{
  "header": {
    "keySignatures": [],
    "meta": [],
    "name": "",
    "ppq": 43,
    "tempos": [
      {
        "bpm": 120,
        "ticks": 0
      }
    ],
    "timeSignatures": []
  },
  "tracks": [
    {
      "channel": 0,
      "controlChanges": {},
      "pitchBends": [],
      "instrument": {
        "family": "piano",
        "number": 0,
        "name": "acoustic grand piano"
      },
      "name": "",
      "notes": [
        {
          "duration": 0.27906976744186046,
          "durationTicks": 24,
          "midi": 86,
          "name": "D6",
          "ticks": 0,
          "time": 0,
          "velocity": 0.49606299212598426
        },
        {
          "duration": 0.03488372093023256,
          "durationTicks": 3,
          "midi": 82,
          "name": "A#5",
          "ticks": 1,
          "time": 0.011627906976744186,
          "velocity": 0.14960629921259844
        },
        {
          "duration": 0.023255813953488372,
          "durationTicks": 2,
          "midi": 85,
          "name": "C#6",
          "ticks": 1,
          "time": 0.011627906976744186,
          "velocity": 0.3228346456692913
        },
        {
          "duration": 0.046511627906976744,
          "durationTicks": 4,
          "midi": 41,
          "name": "F2",
          "ticks": 2,
          "time": 0.023255813953488372,
          "velocity": 0.16535433070866143
        },
        {
          "duration": 0.313953488372093,
          "durationTicks": 27,
          "midi": 89,
          "name": "F6",
          "ticks": 21,
          "time": 0.2441860465116279,
          "velocity": 0.49606299212598426
        },
        {
          "duration": 0.034883720930232565,
          "durationTicks": 3,
          "midi": 88,
          "name": "E6",
          "ticks": 22,
          "time": 0.2558139534883721,
          "velocity": 0.2755905511811024
        },
        {
          "duration": 0.31395348837209297,
          "durationTicks": 27,
          "midi": 91,
          "name": "G6",
          "ticks": 41,
          "time": 0.47674418604651164,
          "velocity": 0.6220472440944882
        },
        {
          "duration": 0.22093023255813948,
          "durationTicks": 19,
          "midi": 98,
          "name": "D7",
          "ticks": 61,
          "time": 0.7093023255813954,
          "velocity": 0.4881889763779528
        },
        {
          "duration": 0.12790697674418605,
          "durationTicks": 11,
          "midi": 91,
          "name": "G6",
          "ticks": 76,
          "time": 0.8837209302325582,
          "velocity": 0.07874015748031496
        },
        {
          "duration": 0.0348837209302324,
          "durationTicks": 3,
          "midi": 88,
          "name": "E6",
          "ticks": 100,
          "time": 1.1627906976744187,
          "velocity": 0.2755905511811024
        },
        {
          "duration": 0.2325581395348837,
          "durationTicks": 20,
          "midi": 89,
          "name": "F6",
          "ticks": 100,
          "time": 1.1627906976744187,
          "velocity": 0.49606299212598426
        },
        {
          "duration": 0.0348837209302324,
          "durationTicks": 3,
          "midi": 44,
          "name": "G#2",
          "ticks": 101,
          "time": 1.1744186046511629,
          "velocity": 0.15748031496062992
        },
        {
          "duration": 0.3139534883720929,
          "durationTicks": 27,
          "midi": 88,
          "name": "E6",
          "ticks": 119,
          "time": 1.3837209302325582,
          "velocity": 0.48031496062992124
        },
        {
          "duration": 0.03488372093023262,
          "durationTicks": 3,
          "midi": 87,
          "name": "D#6",
          "ticks": 120,
          "time": 1.3953488372093024,
          "velocity": 0.29133858267716534
        },
        {
          "duration": 0.06976744186046502,
          "durationTicks": 6,
          "midi": 89,
          "name": "F6",
          "ticks": 121,
          "time": 1.4069767441860466,
          "velocity": 0.25984251968503935
        },
        {
          "duration": 0.0348837209302324,
          "durationTicks": 3,
          "midi": 42,
          "name": "F#2",
          "ticks": 122,
          "time": 1.4186046511627908,
          "velocity": 0.15748031496062992
        },
        {
          "duration": 0.2558139534883721,
          "durationTicks": 22,
          "midi": 84,
          "name": "C6",
          "ticks": 139,
          "time": 1.6162790697674418,
          "velocity": 0.49606299212598426
        },
        {
          "duration": 0.2790697674418603,
          "durationTicks": 24,
          "midi": 86,
          "name": "D6",
          "ticks": 159,
          "time": 1.8488372093023255,
          "velocity": 0.49606299212598426
        },
        {
          "duration": 0.03488372093023262,
          "durationTicks": 3,
          "midi": 82,
          "name": "A#5",
          "ticks": 160,
          "time": 1.8604651162790697,
          "velocity": 0.14960629921259844
        },
        {
          "duration": 0.023255813953488413,
          "durationTicks": 2,
          "midi": 85,
          "name": "C#6",
          "ticks": 160,
          "time": 1.8604651162790697,
          "velocity": 0.3228346456692913
        },
        {
          "duration": 0.3139534883720927,
          "durationTicks": 27,
          "midi": 89,
          "name": "F6",
          "ticks": 178,
          "time": 2.0697674418604652,
          "velocity": 0.49606299212598426
        },
        {
          "duration": 0.03488372093023262,
          "durationTicks": 3,
          "midi": 88,
          "name": "E6",
          "ticks": 179,
          "time": 2.0813953488372094,
          "velocity": 0.2755905511811024
        },
        {
          "duration": 0.034883720930232176,
          "durationTicks": 3,
          "midi": 44,
          "name": "G#2",
          "ticks": 180,
          "time": 2.0930232558139537,
          "velocity": 0.15748031496062992
        },
        {
          "duration": 0.034883720930232176,
          "durationTicks": 3,
          "midi": 28,
          "name": "E1",
          "ticks": 181,
          "time": 2.104651162790698,
          "velocity": 0.11811023622047244
        },
        {
          "duration": 0.31395348837209314,
          "durationTicks": 27,
          "midi": 91,
          "name": "G6",
          "ticks": 198,
          "time": 2.302325581395349,
          "velocity": 0.6220472440944882
        },
        {
          "duration": 0.22093023255813948,
          "durationTicks": 19,
          "midi": 98,
          "name": "D7",
          "ticks": 218,
          "time": 2.5348837209302326,
          "velocity": 0.4881889763779528
        },
        {
          "duration": 0.12790697674418627,
          "durationTicks": 11,
          "midi": 91,
          "name": "G6",
          "ticks": 233,
          "time": 2.7093023255813953,
          "velocity": 0.08661417322834646
        },
        {
          "duration": 0.2441860465116279,
          "durationTicks": 21,
          "midi": 89,
          "name": "F6",
          "ticks": 257,
          "time": 2.988372093023256,
          "velocity": 0.49606299212598426
        },
        {
          "duration": 0.03488372093023262,
          "durationTicks": 3,
          "midi": 88,
          "name": "E6",
          "ticks": 258,
          "time": 3,
          "velocity": 0.2755905511811024
        },
        {
          "duration": 0.03488372093023262,
          "durationTicks": 3,
          "midi": 44,
          "name": "G#2",
          "ticks": 259,
          "time": 3.011627906976744,
          "velocity": 0.15748031496062992
        },
        {
          "duration": 0.31395348837209314,
          "durationTicks": 27,
          "midi": 88,
          "name": "E6",
          "ticks": 277,
          "time": 3.2209302325581395,
          "velocity": 0.48031496062992124
        },
        {
          "duration": 0.03488372093023262,
          "durationTicks": 3,
          "midi": 87,
          "name": "D#6",
          "ticks": 278,
          "time": 3.2325581395348837,
          "velocity": 0.29133858267716534
        },
        {
          "duration": 0.06976744186046524,
          "durationTicks": 6,
          "midi": 89,
          "name": "F6",
          "ticks": 279,
          "time": 3.244186046511628,
          "velocity": 0.25984251968503935
        },
        {
          "duration": 0.03488372093023262,
          "durationTicks": 3,
          "midi": 42,
          "name": "F#2",
          "ticks": 280,
          "time": 3.255813953488372,
          "velocity": 0.14960629921259844
        },
        {
          "duration": 0.30232558139534893,
          "durationTicks": 26,
          "midi": 84,
          "name": "C6",
          "ticks": 296,
          "time": 3.441860465116279,
          "velocity": 0.49606299212598426
        },
        {
          "duration": 0.2558139534883721,
          "durationTicks": 22,
          "midi": 86,
          "name": "D6",
          "ticks": 316,
          "time": 3.6744186046511627,
          "velocity": 0.49606299212598426
        },
        {
          "duration": 0.04651162790697683,
          "durationTicks": 4,
          "midi": 85,
          "name": "C#6",
          "ticks": 317,
          "time": 3.686046511627907,
          "velocity": 0.3228346456692913
        },
        {
          "duration": 0.03488372093023262,
          "durationTicks": 3,
          "midi": 41,
          "name": "F2",
          "ticks": 318,
          "time": 3.697674418604651,
          "velocity": 0.16535433070866143
        },
        {
          "duration": 0.3139534883720936,
          "durationTicks": 27,
          "midi": 89,
          "name": "F6",
          "ticks": 336,
          "time": 3.9069767441860463,
          "velocity": 0.49606299212598426
        },
        {
          "duration": 0.03488372093023262,
          "durationTicks": 3,
          "midi": 88,
          "name": "E6",
          "ticks": 337,
          "time": 3.9186046511627906,
          "velocity": 0.2755905511811024
        },
        {
          "duration": 0.03488372093023262,
          "durationTicks": 3,
          "midi": 44,
          "name": "G#2",
          "ticks": 338,
          "time": 3.9302325581395348,
          "velocity": 0.15748031496062992
        },
        {
          "duration": 0.3139534883720927,
          "durationTicks": 27,
          "midi": 91,
          "name": "G6",
          "ticks": 356,
          "time": 4.1395348837209305,
          "velocity": 0.6220472440944882
        },
        {
          "duration": 0.22093023255813993,
          "durationTicks": 19,
          "midi": 98,
          "name": "D7",
          "ticks": 377,
          "time": 4.383720930232558,
          "velocity": 0.4881889763779528
        },
        {
          "duration": 0.12790697674418627,
          "durationTicks": 11,
          "midi": 91,
          "name": "G6",
          "ticks": 391,
          "time": 4.546511627906977,
          "velocity": 0.08661417322834646
        },
        {
          "duration": 0.24418604651162834,
          "durationTicks": 21,
          "midi": 89,
          "name": "F6",
          "ticks": 414,
          "time": 4.813953488372093,
          "velocity": 0.49606299212598426
        },
        {
          "duration": 0.03488372093023262,
          "durationTicks": 3,
          "midi": 88,
          "name": "E6",
          "ticks": 415,
          "time": 4.825581395348837,
          "velocity": 0.2755905511811024
        },
        {
          "duration": 0.03488372093023262,
          "durationTicks": 3,
          "midi": 44,
          "name": "G#2",
          "ticks": 416,
          "time": 4.837209302325581,
          "velocity": 0.15748031496062992
        },
        {
          "duration": 0.25581395348837166,
          "durationTicks": 22,
          "midi": 88,
          "name": "E6",
          "ticks": 434,
          "time": 5.046511627906977,
          "velocity": 0.48031496062992124
        },
        {
          "duration": 0.03488372093023262,
          "durationTicks": 3,
          "midi": 87,
          "name": "D#6",
          "ticks": 435,
          "time": 5.058139534883721,
          "velocity": 0.29133858267716534
        },
        {
          "duration": 0.06976744186046524,
          "durationTicks": 6,
          "midi": 89,
          "name": "F6",
          "ticks": 436,
          "time": 5.069767441860465,
          "velocity": 0.2677165354330709
        },
        {
          "duration": 0.03488372093023262,
          "durationTicks": 3,
          "midi": 42,
          "name": "F#2",
          "ticks": 437,
          "time": 5.0813953488372094,
          "velocity": 0.14960629921259844
        },
        {
          "duration": 0.3023255813953494,
          "durationTicks": 26,
          "midi": 84,
          "name": "C6",
          "ticks": 454,
          "time": 5.27906976744186,
          "velocity": 0.49606299212598426
        },
        {
          "duration": 0.2790697674418601,
          "durationTicks": 24,
          "midi": 86,
          "name": "D6",
          "ticks": 473,
          "time": 5.5,
          "velocity": 0.49606299212598426
        },
        {
          "duration": 0.023255813953488413,
          "durationTicks": 2,
          "midi": 85,
          "name": "C#6",
          "ticks": 474,
          "time": 5.511627906976744,
          "velocity": 0.3228346456692913
        },
        {
          "duration": 0.03488372093023262,
          "durationTicks": 3,
          "midi": 41,
          "name": "F2",
          "ticks": 475,
          "time": 5.523255813953488,
          "velocity": 0.16535433070866143
        },
        {
          "duration": 0.3139534883720927,
          "durationTicks": 27,
          "midi": 89,
          "name": "F6",
          "ticks": 494,
          "time": 5.744186046511628,
          "velocity": 0.49606299212598426
        },
        {
          "duration": 0.03488372093023262,
          "durationTicks": 3,
          "midi": 88,
          "name": "E6",
          "ticks": 495,
          "time": 5.755813953488372,
          "velocity": 0.2755905511811024
        },
        {
          "duration": 0.03488372093023262,
          "durationTicks": 3,
          "midi": 44,
          "name": "G#2",
          "ticks": 496,
          "time": 5.767441860465116,
          "velocity": 0.15748031496062992
        },
        {
          "duration": 0.3139534883720927,
          "durationTicks": 27,
          "midi": 91,
          "name": "G6",
          "ticks": 514,
          "time": 5.976744186046512,
          "velocity": 0.6220472440944882
        },
        {
          "duration": 0.03488372093023262,
          "durationTicks": 3,
          "midi": 97,
          "name": "C#7",
          "ticks": 533,
          "time": 6.1976744186046515,
          "velocity": 0.10236220472440945
        },
        {
          "duration": 0.22093023255813904,
          "durationTicks": 19,
          "midi": 98,
          "name": "D7",
          "ticks": 533,
          "time": 6.1976744186046515,
          "velocity": 0.4881889763779528
        },
        {
          "duration": 0.11627906976744207,
          "durationTicks": 10,
          "midi": 91,
          "name": "G6",
          "ticks": 549,
          "time": 6.383720930232558,
          "velocity": 0.07874015748031496
        },
        {
          "duration": 0.24418604651162745,
          "durationTicks": 21,
          "midi": 89,
          "name": "F6",
          "ticks": 572,
          "time": 6.651162790697675,
          "velocity": 0.49606299212598426
        },
        {
          "duration": 0.03488372093023262,
          "durationTicks": 3,
          "midi": 88,
          "name": "E6",
          "ticks": 573,
          "time": 6.662790697674419,
          "velocity": 0.2755905511811024
        },
        {
          "duration": 0.03488372093023262,
          "durationTicks": 3,
          "midi": 44,
          "name": "G#2",
          "ticks": 574,
          "time": 6.674418604651163,
          "velocity": 0.15748031496062992
        },
        {
          "duration": 0.25581395348837255,
          "durationTicks": 22,
          "midi": 88,
          "name": "E6",
          "ticks": 592,
          "time": 6.883720930232558,
          "velocity": 0.48031496062992124
        },
        {
          "duration": 0.03488372093023262,
          "durationTicks": 3,
          "midi": 87,
          "name": "D#6",
          "ticks": 593,
          "time": 6.895348837209302,
          "velocity": 0.29133858267716534
        },
        {
          "duration": 0.06976744186046524,
          "durationTicks": 6,
          "midi": 89,
          "name": "F6",
          "ticks": 594,
          "time": 6.906976744186046,
          "velocity": 0.2677165354330709
        },
        {
          "duration": 0.03488372093023262,
          "durationTicks": 3,
          "midi": 42,
          "name": "F#2",
          "ticks": 595,
          "time": 6.9186046511627906,
          "velocity": 0.15748031496062992
        },
        {
          "duration": 0.3139534883720927,
          "durationTicks": 27,
          "midi": 84,
          "name": "C6",
          "ticks": 612,
          "time": 7.116279069767442,
          "velocity": 0.49606299212598426
        },
        {
          "duration": 0.5116279069767442,
          "durationTicks": 44,
          "midi": 86,
          "name": "D6",
          "ticks": 631,
          "time": 7.337209302325581,
          "velocity": 0.49606299212598426
        },
        {
          "duration": 0.03488372093023262,
          "durationTicks": 3,
          "midi": 82,
          "name": "A#5",
          "ticks": 632,
          "time": 7.348837209302325,
          "velocity": 0.14960629921259844
        },
        {
          "duration": 0.03488372093023262,
          "durationTicks": 3,
          "midi": 85,
          "name": "C#6",
          "ticks": 632,
          "time": 7.348837209302325,
          "velocity": 0.3228346456692913
        },
        {
          "duration": 0.3139534883720936,
          "durationTicks": 27,
          "midi": 98,
          "name": "D7",
          "ticks": 632,
          "time": 7.348837209302325,
          "velocity": 0.49606299212598426
        },
        {
          "duration": 0.04651162790697683,
          "durationTicks": 4,
          "midi": 41,
          "name": "F2",
          "ticks": 633,
          "time": 7.3604651162790695,
          "velocity": 0.16535433070866143
        },
        {
          "duration": 0.03488372093023262,
          "durationTicks": 3,
          "midi": 90,
          "name": "F#6",
          "ticks": 636,
          "time": 7.395348837209302,
          "velocity": 0.15748031496062992
        },
        {
          "duration": 0.3139534883720936,
          "durationTicks": 27,
          "midi": 91,
          "name": "G6",
          "ticks": 636,
          "time": 7.395348837209302,
          "velocity": 0.6220472440944882
        },
        {
          "duration": 0.27906976744186096,
          "durationTicks": 24,
          "midi": 93,
          "name": "A6",
          "ticks": 638,
          "time": 7.4186046511627906,
          "velocity": 0.6141732283464567
        },
        {
          "duration": 0.1744186046511631,
          "durationTicks": 15,
          "midi": 93,
          "name": "A6",
          "ticks": 667,
          "time": 7.755813953488372,
          "velocity": 0.13385826771653545
        },
        {
          "duration": 0.1860465116279073,
          "durationTicks": 16,
          "midi": 91,
          "name": "G6",
          "ticks": 669,
          "time": 7.77906976744186,
          "velocity": 0.13385826771653545
        },
        {
          "duration": 0.23255813953488236,
          "durationTicks": 20,
          "midi": 57,
          "name": "A3",
          "ticks": 810,
          "time": 9.418604651162791,
          "velocity": 0.41732283464566927
        },
        {
          "duration": 0.24418604651162745,
          "durationTicks": 21,
          "midi": 69,
          "name": "A4",
          "ticks": 810,
          "time": 9.418604651162791,
          "velocity": 0.4409448818897638
        },
        {
          "duration": 0.20930232558139572,
          "durationTicks": 18,
          "midi": 85,
          "name": "C#6",
          "ticks": 811,
          "time": 9.430232558139535,
          "velocity": 0.1889763779527559
        },
        {
          "duration": 0.19767441860465063,
          "durationTicks": 17,
          "midi": 95,
          "name": "B6",
          "ticks": 811,
          "time": 9.430232558139535,
          "velocity": 0.12598425196850394
        },
        {
          "duration": 0.09302325581395188,
          "durationTicks": 8,
          "midi": 91,
          "name": "G6",
          "ticks": 812,
          "time": 9.44186046511628,
          "velocity": 0.11023622047244094
        },
        {
          "duration": 0.03488372093023173,
          "durationTicks": 3,
          "midi": 40,
          "name": "E2",
          "ticks": 815,
          "time": 9.476744186046512,
          "velocity": 0.12598425196850394
        },
        {
          "duration": 0.23255813953488413,
          "durationTicks": 20,
          "midi": 60,
          "name": "C4",
          "ticks": 830,
          "time": 9.651162790697674,
          "velocity": 0.5196850393700787
        },
        {
          "duration": 0.26744186046511764,
          "durationTicks": 23,
          "midi": 79,
          "name": "G5",
          "ticks": 830,
          "time": 9.651162790697674,
          "velocity": 0.2283464566929134
        },
        {
          "duration": 0.26744186046511764,
          "durationTicks": 23,
          "midi": 88,
          "name": "E6",
          "ticks": 830,
          "time": 9.651162790697674,
          "velocity": 0.1732283464566929
        },
        {
          "duration": 0.03488372093023173,
          "durationTicks": 3,
          "midi": 67,
          "name": "G4",
          "ticks": 831,
          "time": 9.662790697674419,
          "velocity": 0.12598425196850394
        },
        {
          "duration": 0.08139534883720856,
          "durationTicks": 7,
          "midi": 94,
          "name": "A#6",
          "ticks": 831,
          "time": 9.662790697674419,
          "velocity": 0.08661417322834646
        },
        {
          "duration": 0.10465116279069697,
          "durationTicks": 9,
          "midi": 96,
          "name": "C7",
          "ticks": 831,
          "time": 9.662790697674419,
          "velocity": 0.10236220472440945
        },
        {
          "duration": 0.03488372093023173,
          "durationTicks": 3,
          "midi": 69,
          "name": "A4",
          "ticks": 833,
          "time": 9.686046511627907,
          "velocity": 0.12598425196850394
        },
        {
          "duration": 1.511627906976745,
          "durationTicks": 130,
          "midi": 62,
          "name": "D4",
          "ticks": 850,
          "time": 9.883720930232558,
          "velocity": 0.5669291338582677
        },
        {
          "duration": 0.6395348837209305,
          "durationTicks": 55,
          "midi": 81,
          "name": "A5",
          "ticks": 850,
          "time": 9.883720930232558,
          "velocity": 0.2677165354330709
        },
        {
          "duration": 0.6279069767441854,
          "durationTicks": 54,
          "midi": 90,
          "name": "F#6",
          "ticks": 850,
          "time": 9.883720930232558,
          "velocity": 0.2440944881889764
        },
        {
          "duration": 0.03488372093023173,
          "durationTicks": 3,
          "midi": 69,
          "name": "A4",
          "ticks": 851,
          "time": 9.895348837209303,
          "velocity": 0.11023622047244094
        },
        {
          "duration": 0.08139534883720856,
          "durationTicks": 7,
          "midi": 72,
          "name": "C5",
          "ticks": 851,
          "time": 9.895348837209303,
          "velocity": 0.18110236220472442
        },
        {
          "duration": 0.11627906976744029,
          "durationTicks": 10,
          "midi": 98,
          "name": "D7",
          "ticks": 851,
          "time": 9.895348837209303,
          "velocity": 0.10236220472440945
        },
        {
          "duration": 0.06976744186046524,
          "durationTicks": 6,
          "midi": 96,
          "name": "C7",
          "ticks": 852,
          "time": 9.906976744186046,
          "velocity": 0.07086614173228346
        },
        {
          "duration": 0.03488372093023351,
          "durationTicks": 3,
          "midi": 41,
          "name": "F2",
          "ticks": 869,
          "time": 10.104651162790697,
          "velocity": 0.5196850393700787
        },
        {
          "duration": 0.3488372093023262,
          "durationTicks": 30,
          "midi": 69,
          "name": "A4",
          "ticks": 869,
          "time": 10.104651162790697,
          "velocity": 0.4015748031496063
        },
        {
          "duration": 1.0348837209302335,
          "durationTicks": 89,
          "midi": 76,
          "name": "E5",
          "ticks": 869,
          "time": 10.104651162790697,
          "velocity": 0.3464566929133858
        },
        {
          "duration": 0.023255813953488413,
          "durationTicks": 2,
          "midi": 78,
          "name": "F#5",
          "ticks": 869,
          "time": 10.104651162790697,
          "velocity": 0.25196850393700787
        },
        {
          "duration": 0.20930232558139572,
          "durationTicks": 18,
          "midi": 85,
          "name": "C#6",
          "ticks": 869,
          "time": 10.104651162790697,
          "velocity": 0.2047244094488189
        },
        {
          "duration": 0.023255813953488413,
          "durationTicks": 2,
          "midi": 56,
          "name": "G#3",
          "ticks": 870,
          "time": 10.116279069767442,
          "velocity": 0.44881889763779526
        },
        {
          "duration": 0.058139534883720145,
          "durationTicks": 5,
          "midi": 83,
          "name": "B5",
          "ticks": 870,
          "time": 10.116279069767442,
          "velocity": 0.2047244094488189
        },
        {
          "duration": 0.3139534883720927,
          "durationTicks": 27,
          "midi": 91,
          "name": "G6",
          "ticks": 870,
          "time": 10.116279069767442,
          "velocity": 0.2204724409448819
        },
        {
          "duration": 0.09302325581395365,
          "durationTicks": 8,
          "midi": 92,
          "name": "G#6",
          "ticks": 870,
          "time": 10.116279069767442,
          "velocity": 0.13385826771653545
        },
        {
          "duration": 0.058139534883720145,
          "durationTicks": 5,
          "midi": 96,
          "name": "C7",
          "ticks": 870,
          "time": 10.116279069767442,
          "velocity": 0.11023622047244094
        },
        {
          "duration": 0.1860465116279073,
          "durationTicks": 16,
          "midi": 72,
          "name": "C5",
          "ticks": 871,
          "time": 10.127906976744185,
          "velocity": 0.2283464566929134
        },
        {
          "duration": 0.24418604651162923,
          "durationTicks": 21,
          "midi": 79,
          "name": "G5",
          "ticks": 871,
          "time": 10.127906976744185,
          "velocity": 0.2204724409448819
        },
        {
          "duration": 0.023255813953488413,
          "durationTicks": 2,
          "midi": 50,
          "name": "D3",
          "ticks": 872,
          "time": 10.13953488372093,
          "velocity": 0.4094488188976378
        },
        {
          "duration": 1.116279069767442,
          "durationTicks": 96,
          "midi": 57,
          "name": "A3",
          "ticks": 872,
          "time": 10.13953488372093,
          "velocity": 0.4330708661417323
        },
        {
          "duration": 0.023255813953488413,
          "durationTicks": 2,
          "midi": 66,
          "name": "F#4",
          "ticks": 872,
          "time": 10.13953488372093,
          "velocity": 0.25984251968503935
        },
        {
          "duration": 0.3372093023255811,
          "durationTicks": 29,
          "midi": 87,
          "name": "D#6",
          "ticks": 872,
          "time": 10.13953488372093,
          "velocity": 0.18110236220472442
        },
        {
          "duration": 0.15116279069767558,
          "durationTicks": 13,
          "midi": 45,
          "name": "A2",
          "ticks": 875,
          "time": 10.174418604651162,
          "velocity": 0.4330708661417323
        },
        {
          "duration": 0.04651162790697683,
          "durationTicks": 4,
          "midi": 66,
          "name": "F#4",
          "ticks": 877,
          "time": 10.19767441860465,
          "velocity": 0.2125984251968504
        },
        {
          "duration": 0.06976744186046524,
          "durationTicks": 6,
          "midi": 66,
          "name": "F#4",
          "ticks": 882,
          "time": 10.255813953488373,
          "velocity": 0.1732283464566929
        },
        {
          "duration": 0.40697674418604635,
          "durationTicks": 35,
          "midi": 45,
          "name": "A2",
          "ticks": 889,
          "time": 10.337209302325581,
          "velocity": 0.3543307086614173
        },
        {
          "duration": 0.04651162790697683,
          "durationTicks": 4,
          "midi": 66,
          "name": "F#4",
          "ticks": 894,
          "time": 10.395348837209303,
          "velocity": 0.13385826771653545
        },
        {
          "duration": 0.04651162790697683,
          "durationTicks": 4,
          "midi": 66,
          "name": "F#4",
          "ticks": 901,
          "time": 10.476744186046512,
          "velocity": 0.11811023622047244
        },
        {
          "duration": 0.03488372093023173,
          "durationTicks": 3,
          "midi": 66,
          "name": "F#4",
          "ticks": 921,
          "time": 10.709302325581396,
          "velocity": 0.07086614173228346
        },
        {
          "duration": 0.04651162790697683,
          "durationTicks": 4,
          "midi": 45,
          "name": "A2",
          "ticks": 925,
          "time": 10.755813953488373,
          "velocity": 0.29133858267716534
        },
        {
          "duration": 0.04651162790697683,
          "durationTicks": 4,
          "midi": 45,
          "name": "A2",
          "ticks": 932,
          "time": 10.837209302325581,
          "velocity": 0.28346456692913385
        },
        {
          "duration": 0.04651162790697683,
          "durationTicks": 4,
          "midi": 45,
          "name": "A2",
          "ticks": 939,
          "time": 10.918604651162791,
          "velocity": 0.2677165354330709
        },
        {
          "duration": 0.03488372093023173,
          "durationTicks": 3,
          "midi": 45,
          "name": "A2",
          "ticks": 946,
          "time": 11,
          "velocity": 0.25984251968503935
        },
        {
          "duration": 0.03488372093023351,
          "durationTicks": 3,
          "midi": 45,
          "name": "A2",
          "ticks": 953,
          "time": 11.081395348837209,
          "velocity": 0.2440944881889764
        },
        {
          "duration": 0.03488372093023173,
          "durationTicks": 3,
          "midi": 45,
          "name": "A2",
          "ticks": 960,
          "time": 11.162790697674419,
          "velocity": 0.23622047244094488
        },
        {
          "duration": 0.03488372093023351,
          "durationTicks": 3,
          "midi": 45,
          "name": "A2",
          "ticks": 967,
          "time": 11.244186046511627,
          "velocity": 0.2204724409448819
        },
        {
          "duration": 0.03488372093023173,
          "durationTicks": 3,
          "midi": 45,
          "name": "A2",
          "ticks": 986,
          "time": 11.465116279069768,
          "velocity": 0.2440944881889764
        },
        {
          "duration": 0.1511627906976738,
          "durationTicks": 13,
          "midi": 65,
          "name": "F4",
          "ticks": 987,
          "time": 11.476744186046512,
          "velocity": 0.5118110236220472
        },
        {
          "duration": 0.03488372093023173,
          "durationTicks": 3,
          "midi": 72,
          "name": "C5",
          "ticks": 987,
          "time": 11.476744186046512,
          "velocity": 0.14960629921259844
        },
        {
          "duration": 0.1860465116279073,
          "durationTicks": 16,
          "midi": 84,
          "name": "C6",
          "ticks": 987,
          "time": 11.476744186046512,
          "velocity": 0.23622047244094488
        },
        {
          "duration": 0.1511627906976738,
          "durationTicks": 13,
          "midi": 93,
          "name": "A6",
          "ticks": 988,
          "time": 11.488372093023257,
          "velocity": 0.13385826771653545
        },
        {
          "duration": 0.058139534883720145,
          "durationTicks": 5,
          "midi": 99,
          "name": "D#7",
          "ticks": 988,
          "time": 11.488372093023257,
          "velocity": 0.07086614173228346
        },
        {
          "duration": 0.10465116279069697,
          "durationTicks": 9,
          "midi": 101,
          "name": "F7",
          "ticks": 988,
          "time": 11.488372093023257,
          "velocity": 0.10236220472440945
        },
        {
          "duration": 0.03488372093023173,
          "durationTicks": 3,
          "midi": 45,
          "name": "A2",
          "ticks": 993,
          "time": 11.546511627906977,
          "velocity": 0.18110236220472442
        },
        {
          "duration": 0.03488372093023173,
          "durationTicks": 3,
          "midi": 45,
          "name": "A2",
          "ticks": 997,
          "time": 11.593023255813954,
          "velocity": 0.2047244094488189
        },
        {
          "duration": 0.26744186046511764,
          "durationTicks": 23,
          "midi": 76,
          "name": "E5",
          "ticks": 998,
          "time": 11.604651162790697,
          "velocity": 0.49606299212598426
        },
        {
          "duration": 0.1860465116279073,
          "durationTicks": 16,
          "midi": 83,
          "name": "B5",
          "ticks": 998,
          "time": 11.604651162790697,
          "velocity": 0.23622047244094488
        },
        {
          "duration": 0.1627906976744189,
          "durationTicks": 14,
          "midi": 92,
          "name": "G#6",
          "ticks": 999,
          "time": 11.616279069767442,
          "velocity": 0.14173228346456693
        },
        {
          "duration": 0.08139534883720856,
          "durationTicks": 7,
          "midi": 98,
          "name": "D7",
          "ticks": 999,
          "time": 11.616279069767442,
          "velocity": 0.08661417322834646
        },
        {
          "duration": 0.10465116279069697,
          "durationTicks": 9,
          "midi": 100,
          "name": "E7",
          "ticks": 999,
          "time": 11.616279069767442,
          "velocity": 0.10236220472440945
        },
        {
          "duration": 0.023255813953488413,
          "durationTicks": 2,
          "midi": 44,
          "name": "G#2",
          "ticks": 1000,
          "time": 11.627906976744185,
          "velocity": 0.2283464566929134
        },
        {
          "duration": 0.09302325581395365,
          "durationTicks": 8,
          "midi": 64,
          "name": "E4",
          "ticks": 1000,
          "time": 11.627906976744185,
          "velocity": 0.5275590551181102
        },
        {
          "duration": 0.03488372093023173,
          "durationTicks": 3,
          "midi": 45,
          "name": "A2",
          "ticks": 1003,
          "time": 11.662790697674419,
          "velocity": 0.14173228346456693
        },
        {
          "duration": 0.24418604651162923,
          "durationTicks": 21,
          "midi": 74,
          "name": "D5",
          "ticks": 1006,
          "time": 11.69767441860465,
          "velocity": 0.5118110236220472
        },
        {
          "duration": 0.1860465116279073,
          "durationTicks": 16,
          "midi": 81,
          "name": "A5",
          "ticks": 1007,
          "time": 11.709302325581396,
          "velocity": 0.2440944881889764
        },
        {
          "duration": 0.1511627906976738,
          "durationTicks": 13,
          "midi": 90,
          "name": "F#6",
          "ticks": 1007,
          "time": 11.709302325581396,
          "velocity": 0.16535433070866143
        },
        {
          "duration": 0.12790697674418716,
          "durationTicks": 11,
          "midi": 62,
          "name": "D4",
          "ticks": 1008,
          "time": 11.720930232558139,
          "velocity": 0.49606299212598426
        },
        {
          "duration": 0.08139534883721034,
          "durationTicks": 7,
          "midi": 96,
          "name": "C7",
          "ticks": 1008,
          "time": 11.720930232558139,
          "velocity": 0.07874015748031496
        },
        {
          "duration": 0.09302325581395365,
          "durationTicks": 8,
          "midi": 98,
          "name": "D7",
          "ticks": 1008,
          "time": 11.720930232558139,
          "velocity": 0.09448818897637795
        },
        {
          "duration": 0.03488372093023173,
          "durationTicks": 3,
          "midi": 38,
          "name": "D2",
          "ticks": 1011,
          "time": 11.755813953488373,
          "velocity": 0.14173228346456693
        },
        {
          "duration": 0.24418604651162745,
          "durationTicks": 21,
          "midi": 72,
          "name": "C5",
          "ticks": 1017,
          "time": 11.825581395348838,
          "velocity": 0.5118110236220472
        },
        {
          "duration": 0.12790697674418539,
          "durationTicks": 11,
          "midi": 79,
          "name": "G5",
          "ticks": 1017,
          "time": 11.825581395348838,
          "velocity": 0.23622047244094488
        },
        {
          "duration": 0.11627906976744207,
          "durationTicks": 10,
          "midi": 60,
          "name": "C4",
          "ticks": 1018,
          "time": 11.837209302325581,
          "velocity": 0.5196850393700787
        },
        {
          "duration": 0.03488372093023351,
          "durationTicks": 3,
          "midi": 67,
          "name": "G4",
          "ticks": 1018,
          "time": 11.837209302325581,
          "velocity": 0.12598425196850394
        },
        {
          "duration": 0.08139534883721034,
          "durationTicks": 7,
          "midi": 94,
          "name": "A#6",
          "ticks": 1018,
          "time": 11.837209302325581,
          "velocity": 0.07874015748031496
        },
        {
          "duration": 0.1627906976744189,
          "durationTicks": 14,
          "midi": 96,
          "name": "C7",
          "ticks": 1018,
          "time": 11.837209302325581,
          "velocity": 0.11023622047244094
        },
        {
          "duration": 0.04651162790697683,
          "durationTicks": 4,
          "midi": 45,
          "name": "A2",
          "ticks": 1021,
          "time": 11.872093023255815,
          "velocity": 0.15748031496062992
        },
        {
          "duration": 0.8953488372093013,
          "durationTicks": 77,
          "midi": 50,
          "name": "D3",
          "ticks": 1027,
          "time": 11.94186046511628,
          "velocity": 0.5354330708661418
        },
        {
          "duration": 0.5697674418604635,
          "durationTicks": 49,
          "midi": 81,
          "name": "A5",
          "ticks": 1027,
          "time": 11.94186046511628,
          "velocity": 0.3228346456692913
        },
        {
          "duration": 0.3023255813953476,
          "durationTicks": 26,
          "midi": 90,
          "name": "F#6",
          "ticks": 1027,
          "time": 11.94186046511628,
          "velocity": 0.23622047244094488
        },
        {
          "duration": 0.023255813953488413,
          "durationTicks": 2,
          "midi": 61,
          "name": "C#4",
          "ticks": 1028,
          "time": 11.953488372093023,
          "velocity": 0.4881889763779528
        },
        {
          "duration": 0.5232558139534884,
          "durationTicks": 45,
          "midi": 69,
          "name": "A4",
          "ticks": 1028,
          "time": 11.953488372093023,
          "velocity": 0.44881889763779526
        },
        {
          "duration": 0.7093023255813957,
          "durationTicks": 61,
          "midi": 74,
          "name": "D5",
          "ticks": 1028,
          "time": 11.953488372093023,
          "velocity": 0.4881889763779528
        },
        {
          "duration": 0.5116279069767451,
          "durationTicks": 44,
          "midi": 77,
          "name": "F5",
          "ticks": 1028,
          "time": 11.953488372093023,
          "velocity": 0.2047244094488189
        },
        {
          "duration": 0.3255813953488378,
          "durationTicks": 28,
          "midi": 78,
          "name": "F#5",
          "ticks": 1028,
          "time": 11.953488372093023,
          "velocity": 0.15748031496062992
        },
        {
          "duration": 0.1860465116279073,
          "durationTicks": 16,
          "midi": 83,
          "name": "B5",
          "ticks": 1028,
          "time": 11.953488372093023,
          "velocity": 0.2755905511811024
        },
        {
          "duration": 0.09302325581395365,
          "durationTicks": 8,
          "midi": 89,
          "name": "F6",
          "ticks": 1028,
          "time": 11.953488372093023,
          "velocity": 0.2125984251968504
        },
        {
          "duration": 0.058139534883720145,
          "durationTicks": 5,
          "midi": 98,
          "name": "D7",
          "ticks": 1028,
          "time": 11.953488372093023,
          "velocity": 0.13385826771653545
        },
        {
          "duration": 0.4651162790697665,
          "durationTicks": 40,
          "midi": 79,
          "name": "G5",
          "ticks": 1029,
          "time": 11.965116279069768,
          "velocity": 0.1968503937007874
        },
        {
          "duration": 0.04651162790697505,
          "durationTicks": 4,
          "midi": 92,
          "name": "G#6",
          "ticks": 1029,
          "time": 11.965116279069768,
          "velocity": 0.07874015748031496
        },
        {
          "duration": 0.058139534883720145,
          "durationTicks": 5,
          "midi": 97,
          "name": "C#7",
          "ticks": 1029,
          "time": 11.965116279069768,
          "velocity": 0.14960629921259844
        },
        {
          "duration": 0.4767441860465116,
          "durationTicks": 41,
          "midi": 85,
          "name": "C#6",
          "ticks": 1030,
          "time": 11.976744186046512,
          "velocity": 0.18110236220472442
        },
        {
          "duration": 0.1395348837209287,
          "durationTicks": 12,
          "midi": 88,
          "name": "E6",
          "ticks": 1031,
          "time": 11.988372093023257,
          "velocity": 0.13385826771653545
        },
        {
          "duration": 0.04651162790697683,
          "durationTicks": 4,
          "midi": 67,
          "name": "G4",
          "ticks": 1034,
          "time": 12.023255813953488,
          "velocity": 0.2440944881889764
        },
        {
          "duration": 0.05813953488372192,
          "durationTicks": 5,
          "midi": 98,
          "name": "D7",
          "ticks": 1035,
          "time": 12.034883720930232,
          "velocity": 0.11811023622047244
        },
        {
          "duration": 0.04651162790697683,
          "durationTicks": 4,
          "midi": 43,
          "name": "G2",
          "ticks": 1042,
          "time": 12.116279069767442,
          "velocity": 0.33858267716535434
        },
        {
          "duration": 0.04651162790697683,
          "durationTicks": 4,
          "midi": 67,
          "name": "G4",
          "ticks": 1043,
          "time": 12.127906976744185,
          "velocity": 0.15748031496062992
        },
        {
          "duration": 1.1511627906976756,
          "durationTicks": 99,
          "midi": 43,
          "name": "G2",
          "ticks": 1047,
          "time": 12.174418604651162,
          "velocity": 0.33070866141732286
        },
        {
          "duration": 0.37209302325581284,
          "durationTicks": 32,
          "midi": 67,
          "name": "G4",
          "ticks": 1050,
          "time": 12.209302325581396,
          "velocity": 0.11811023622047244
        },
        {
          "duration": 0.06976744186046524,
          "durationTicks": 6,
          "midi": 90,
          "name": "F#6",
          "ticks": 1057,
          "time": 12.290697674418604,
          "velocity": 0.08661417322834646
        },
        {
          "duration": 0.06976744186046524,
          "durationTicks": 6,
          "midi": 50,
          "name": "D3",
          "ticks": 1105,
          "time": 12.848837209302326,
          "velocity": 0.18110236220472442
        },
        {
          "duration": 0.04651162790697683,
          "durationTicks": 4,
          "midi": 50,
          "name": "D3",
          "ticks": 1114,
          "time": 12.953488372093023,
          "velocity": 0.14960629921259844
        },
        {
          "duration": 0.04651162790697683,
          "durationTicks": 4,
          "midi": 50,
          "name": "D3",
          "ticks": 1121,
          "time": 13.034883720930232,
          "velocity": 0.13385826771653545
        },
        {
          "duration": 0.04651162790697683,
          "durationTicks": 4,
          "midi": 50,
          "name": "D3",
          "ticks": 1128,
          "time": 13.116279069767442,
          "velocity": 0.11023622047244094
        },
        {
          "duration": 0.04651162790697683,
          "durationTicks": 4,
          "midi": 50,
          "name": "D3",
          "ticks": 1135,
          "time": 13.19767441860465,
          "velocity": 0.09448818897637795
        },
        {
          "duration": 0.04651162790697683,
          "durationTicks": 4,
          "midi": 50,
          "name": "D3",
          "ticks": 1142,
          "time": 13.279069767441861,
          "velocity": 0.07874015748031496
        },
        {
          "duration": 0.13953488372093048,
          "durationTicks": 12,
          "midi": 65,
          "name": "F4",
          "ticks": 1145,
          "time": 13.313953488372093,
          "velocity": 0.5118110236220472
        },
        {
          "duration": 0.1860465116279073,
          "durationTicks": 16,
          "midi": 84,
          "name": "C6",
          "ticks": 1145,
          "time": 13.313953488372093,
          "velocity": 0.2283464566929134
        },
        {
          "duration": 0.1627906976744189,
          "durationTicks": 14,
          "midi": 93,
          "name": "A6",
          "ticks": 1145,
          "time": 13.313953488372093,
          "velocity": 0.14173228346456693
        },
        {
          "duration": 0.10465116279069697,
          "durationTicks": 9,
          "midi": 101,
          "name": "F7",
          "ticks": 1146,
          "time": 13.325581395348838,
          "velocity": 0.09448818897637795
        },
        {
          "duration": 0.08139534883721034,
          "durationTicks": 7,
          "midi": 43,
          "name": "G2",
          "ticks": 1151,
          "time": 13.383720930232558,
          "velocity": 0.2125984251968504
        },
        {
          "duration": 0.26744186046511587,
          "durationTicks": 23,
          "midi": 76,
          "name": "E5",
          "ticks": 1155,
          "time": 13.430232558139535,
          "velocity": 0.4881889763779528
        },
        {
          "duration": 0.1744186046511622,
          "durationTicks": 15,
          "midi": 92,
          "name": "G#6",
          "ticks": 1155,
          "time": 13.430232558139535,
          "velocity": 0.16535433070866143
        },
        {
          "duration": 0.19767441860465063,
          "durationTicks": 17,
          "midi": 83,
          "name": "B5",
          "ticks": 1156,
          "time": 13.44186046511628,
          "velocity": 0.2283464566929134
        },
        {
          "duration": 0.06976744186046346,
          "durationTicks": 6,
          "midi": 98,
          "name": "D7",
          "ticks": 1156,
          "time": 13.44186046511628,
          "velocity": 0.08661417322834646
        },
        {
          "duration": 0.10465116279069697,
          "durationTicks": 9,
          "midi": 100,
          "name": "E7",
          "ticks": 1156,
          "time": 13.44186046511628,
          "velocity": 0.11023622047244094
        },
        {
          "duration": 0.10465116279069697,
          "durationTicks": 9,
          "midi": 64,
          "name": "E4",
          "ticks": 1157,
          "time": 13.453488372093023,
          "velocity": 0.5275590551181102
        },
        {
          "duration": 0.06976744186046346,
          "durationTicks": 6,
          "midi": 43,
          "name": "G2",
          "ticks": 1160,
          "time": 13.488372093023257,
          "velocity": 0.14960629921259844
        },
        {
          "duration": 0.22093023255814082,
          "durationTicks": 19,
          "midi": 74,
          "name": "D5",
          "ticks": 1166,
          "time": 13.55813953488372,
          "velocity": 0.5039370078740157
        },
        {
          "duration": 0.1860465116279073,
          "durationTicks": 16,
          "midi": 81,
          "name": "A5",
          "ticks": 1166,
          "time": 13.55813953488372,
          "velocity": 0.2440944881889764
        },
        {
          "duration": 0.15116279069767558,
          "durationTicks": 13,
          "midi": 90,
          "name": "F#6",
          "ticks": 1166,
          "time": 13.55813953488372,
          "velocity": 0.14960629921259844
        },
        {
          "duration": 0.10465116279069697,
          "durationTicks": 9,
          "midi": 98,
          "name": "D7",
          "ticks": 1167,
          "time": 13.569767441860465,
          "velocity": 0.10236220472440945
        },
        {
          "duration": 0.09302325581395365,
          "durationTicks": 8,
          "midi": 62,
          "name": "D4",
          "ticks": 1168,
          "time": 13.581395348837209,
          "velocity": 0.5118110236220472
        },
        {
          "duration": 0.05813953488372192,
          "durationTicks": 5,
          "midi": 96,
          "name": "C7",
          "ticks": 1168,
          "time": 13.581395348837209,
          "velocity": 0.07874015748031496
        },
        {
          "duration": 0.03488372093023173,
          "durationTicks": 3,
          "midi": 42,
          "name": "F#2",
          "ticks": 1169,
          "time": 13.593023255813954,
          "velocity": 0.1732283464566929
        },
        {
          "duration": 0.05813953488372192,
          "durationTicks": 5,
          "midi": 43,
          "name": "G2",
          "ticks": 1172,
          "time": 13.627906976744185,
          "velocity": 0.16535433070866143
        },
        {
          "duration": 0.1860465116279073,
          "durationTicks": 16,
          "midi": 72,
          "name": "C5",
          "ticks": 1175,
          "time": 13.662790697674419,
          "velocity": 0.5118110236220472
        },
        {
          "duration": 0.11627906976744207,
          "durationTicks": 10,
          "midi": 60,
          "name": "C4",
          "ticks": 1176,
          "time": 13.674418604651162,
          "velocity": 0.5118110236220472
        },
        {
          "duration": 0.04651162790697683,
          "durationTicks": 4,
          "midi": 67,
          "name": "G4",
          "ticks": 1176,
          "time": 13.674418604651162,
          "velocity": 0.14960629921259844
        },
        {
          "duration": 0.6162790697674421,
          "durationTicks": 53,
          "midi": 79,
          "name": "G5",
          "ticks": 1176,
          "time": 13.674418604651162,
          "velocity": 0.3228346456692913
        },
        {
          "duration": 0.08139534883721034,
          "durationTicks": 7,
          "midi": 94,
          "name": "A#6",
          "ticks": 1176,
          "time": 13.674418604651162,
          "velocity": 0.08661417322834646
        },
        {
          "duration": 0.19767441860465063,
          "durationTicks": 17,
          "midi": 96,
          "name": "C7",
          "ticks": 1177,
          "time": 13.686046511627907,
          "velocity": 0.23622047244094488
        },
        {
          "duration": 0.023255813953488413,
          "durationTicks": 2,
          "midi": 45,
          "name": "A2",
          "ticks": 1185,
          "time": 13.779069767441861,
          "velocity": 0.5433070866141733
        },
        {
          "duration": 0.03488372093023173,
          "durationTicks": 3,
          "midi": 81,
          "name": "A5",
          "ticks": 1185,
          "time": 13.779069767441861,
          "velocity": 0.2047244094488189
        },
        {
          "duration": 0.04651162790697683,
          "durationTicks": 4,
          "midi": 86,
          "name": "D6",
          "ticks": 1185,
          "time": 13.779069767441861,
          "velocity": 0.14960629921259844
        },
        {
          "duration": 0.09302325581395365,
          "durationTicks": 8,
          "midi": 95,
          "name": "B6",
          "ticks": 1185,
          "time": 13.779069767441861,
          "velocity": 0.1732283464566929
        },
        {
          "duration": 0.023255813953488413,
          "durationTicks": 2,
          "midi": 61,
          "name": "C#4",
          "ticks": 1186,
          "time": 13.790697674418604,
          "velocity": 0.2992125984251969
        },
        {
          "duration": 0.6162790697674421,
          "durationTicks": 53,
          "midi": 77,
          "name": "F5",
          "ticks": 1186,
          "time": 13.790697674418604,
          "velocity": 0.25984251968503935
        },
        {
          "duration": 0.06976744186046524,
          "durationTicks": 6,
          "midi": 83,
          "name": "B5",
          "ticks": 1186,
          "time": 13.790697674418604,
          "velocity": 0.12598425196850394
        },
        {
          "duration": 0.08139534883721034,
          "durationTicks": 7,
          "midi": 90,
          "name": "F#6",
          "ticks": 1186,
          "time": 13.790697674418604,
          "velocity": 0.07874015748031496
        },
        {
          "duration": 0.04651162790697683,
          "durationTicks": 4,
          "midi": 94,
          "name": "A#6",
          "ticks": 1186,
          "time": 13.790697674418604,
          "velocity": 0.14173228346456693
        },
        {
          "duration": 1.1279069767441854,
          "durationTicks": 97,
          "midi": 65,
          "name": "F4",
          "ticks": 1187,
          "time": 13.80232558139535,
          "velocity": 0.48031496062992124
        },
        {
          "duration": 0.24418604651162745,
          "durationTicks": 21,
          "midi": 82,
          "name": "A#5",
          "ticks": 1187,
          "time": 13.80232558139535,
          "velocity": 0.16535433070866143
        },
        {
          "duration": 0.9186046511627914,
          "durationTicks": 79,
          "midi": 48,
          "name": "C3",
          "ticks": 1188,
          "time": 13.813953488372093,
          "velocity": 0.49606299212598426
        },
        {
          "duration": 0.03488372093023173,
          "durationTicks": 3,
          "midi": 41,
          "name": "F2",
          "ticks": 1189,
          "time": 13.825581395348838,
          "velocity": 0.4645669291338583
        },
        {
          "duration": 0.11627906976744207,
          "durationTicks": 10,
          "midi": 67,
          "name": "G4",
          "ticks": 1189,
          "time": 13.825581395348838,
          "velocity": 0.4645669291338583
        },
        {
          "duration": 0.11627906976744207,
          "durationTicks": 10,
          "midi": 87,
          "name": "D#6",
          "ticks": 1189,
          "time": 13.825581395348838,
          "velocity": 0.15748031496062992
        },
        {
          "duration": 0.03488372093023173,
          "durationTicks": 3,
          "midi": 75,
          "name": "D#5",
          "ticks": 1193,
          "time": 13.872093023255815,
          "velocity": 0.08661417322834646
        },
        {
          "duration": 0.26744186046511764,
          "durationTicks": 23,
          "midi": 69,
          "name": "A4",
          "ticks": 1219,
          "time": 14.174418604651162,
          "velocity": 0.08661417322834646
        },
        {
          "duration": 0.13953488372093048,
          "durationTicks": 12,
          "midi": 41,
          "name": "F2",
          "ticks": 1231,
          "time": 14.313953488372093,
          "velocity": 0.2125984251968504
        },
        {
          "duration": 0.13953488372093048,
          "durationTicks": 12,
          "midi": 53,
          "name": "F3",
          "ticks": 1253,
          "time": 14.569767441860465,
          "velocity": 0.30708661417322836
        },
        {
          "duration": 0.03488372093023351,
          "durationTicks": 3,
          "midi": 41,
          "name": "F2",
          "ticks": 1262,
          "time": 14.674418604651162,
          "velocity": 0.25984251968503935
        },
        {
          "duration": 0.6279069767441872,
          "durationTicks": 54,
          "midi": 69,
          "name": "A4",
          "ticks": 1264,
          "time": 14.69767441860465,
          "velocity": 0.4409448818897638
        },
        {
          "duration": 0.19767441860465063,
          "durationTicks": 17,
          "midi": 57,
          "name": "A3",
          "ticks": 1265,
          "time": 14.709302325581396,
          "velocity": 0.41732283464566927
        },
        {
          "duration": 0.27906976744186096,
          "durationTicks": 24,
          "midi": 72,
          "name": "C5",
          "ticks": 1265,
          "time": 14.709302325581396,
          "velocity": 0.08661417322834646
        },
        {
          "duration": 0.22093023255813904,
          "durationTicks": 19,
          "midi": 85,
          "name": "C#6",
          "ticks": 1265,
          "time": 14.709302325581396,
          "velocity": 0.1968503937007874
        },
        {
          "duration": 0.20930232558139572,
          "durationTicks": 18,
          "midi": 95,
          "name": "B6",
          "ticks": 1265,
          "time": 14.709302325581396,
          "velocity": 0.12598425196850394
        },
        {
          "duration": 0.09302325581395365,
          "durationTicks": 8,
          "midi": 91,
          "name": "G6",
          "ticks": 1267,
          "time": 14.732558139534884,
          "velocity": 0.11023622047244094
        },
        {
          "duration": 0.4883720930232567,
          "durationTicks": 42,
          "midi": 48,
          "name": "C3",
          "ticks": 1268,
          "time": 14.744186046511627,
          "velocity": 0.25984251968503935
        },
        {
          "duration": 0.05813953488372192,
          "durationTicks": 5,
          "midi": 41,
          "name": "F2",
          "ticks": 1270,
          "time": 14.767441860465116,
          "velocity": 0.2283464566929134
        },
        {
          "duration": 0.5348837209302335,
          "durationTicks": 46,
          "midi": 41,
          "name": "F2",
          "ticks": 1278,
          "time": 14.86046511627907,
          "velocity": 0.13385826771653545
        },
        {
          "duration": 0.4651162790697665,
          "durationTicks": 40,
          "midi": 57,
          "name": "A3",
          "ticks": 1283,
          "time": 14.918604651162791,
          "velocity": 0.2047244094488189
        },
        {
          "duration": 0.23255813953488236,
          "durationTicks": 20,
          "midi": 60,
          "name": "C4",
          "ticks": 1322,
          "time": 15.372093023255815,
          "velocity": 0.5275590551181102
        },
        {
          "duration": 0.7093023255813957,
          "durationTicks": 61,
          "midi": 79,
          "name": "G5",
          "ticks": 1323,
          "time": 15.383720930232558,
          "velocity": 0.23622047244094488
        },
        {
          "duration": 0.25581395348837255,
          "durationTicks": 22,
          "midi": 88,
          "name": "E6",
          "ticks": 1323,
          "time": 15.383720930232558,
          "velocity": 0.1732283464566929
        },
        {
          "duration": 0.03488372093023173,
          "durationTicks": 3,
          "midi": 67,
          "name": "G4",
          "ticks": 1324,
          "time": 15.395348837209303,
          "velocity": 0.09448818897637795
        },
        {
          "duration": 0.06976744186046524,
          "durationTicks": 6,
          "midi": 94,
          "name": "A#6",
          "ticks": 1324,
          "time": 15.395348837209303,
          "velocity": 0.09448818897637795
        },
        {
          "duration": 0.09302325581395365,
          "durationTicks": 8,
          "midi": 96,
          "name": "C7",
          "ticks": 1325,
          "time": 15.406976744186046,
          "velocity": 0.09448818897637795
        },
        {
          "duration": 0.03488372093023173,
          "durationTicks": 3,
          "midi": 40,
          "name": "E2",
          "ticks": 1326,
          "time": 15.418604651162791,
          "velocity": 0.1732283464566929
        },
        {
          "duration": 0.13953488372093048,
          "durationTicks": 12,
          "midi": 41,
          "name": "F2",
          "ticks": 1329,
          "time": 15.453488372093023,
          "velocity": 0.09448818897637795
        },
        {
          "duration": 0.023255813953488413,
          "durationTicks": 2,
          "midi": 62,
          "name": "D4",
          "ticks": 1342,
          "time": 15.604651162790697,
          "velocity": 0.3858267716535433
        },
        {
          "duration": 0.5348837209302335,
          "durationTicks": 46,
          "midi": 69,
          "name": "A4",
          "ticks": 1342,
          "time": 15.604651162790697,
          "velocity": 0.44881889763779526
        },
        {
          "duration": 0.7209302325581408,
          "durationTicks": 62,
          "midi": 74,
          "name": "D5",
          "ticks": 1342,
          "time": 15.604651162790697,
          "velocity": 0.5039370078740157
        },
        {
          "duration": 0.3023255813953494,
          "durationTicks": 26,
          "midi": 78,
          "name": "F#5",
          "ticks": 1342,
          "time": 15.604651162790697,
          "velocity": 0.15748031496062992
        },
        {
          "duration": 0.1976744186046524,
          "durationTicks": 17,
          "midi": 83,
          "name": "B5",
          "ticks": 1342,
          "time": 15.604651162790697,
          "velocity": 0.25984251968503935
        },
        {
          "duration": 0.3023255813953494,
          "durationTicks": 26,
          "midi": 90,
          "name": "F#6",
          "ticks": 1342,
          "time": 15.604651162790697,
          "velocity": 0.2440944881889764
        },
        {
          "duration": 0.023255813953488413,
          "durationTicks": 2,
          "midi": 49,
          "name": "C#3",
          "ticks": 1343,
          "time": 15.616279069767442,
          "velocity": 0.5433070866141733
        },
        {
          "duration": 0.5116279069767433,
          "durationTicks": 44,
          "midi": 77,
          "name": "F5",
          "ticks": 1343,
          "time": 15.616279069767442,
          "velocity": 0.1968503937007874
        },
        {
          "duration": 0.08139534883720856,
          "durationTicks": 7,
          "midi": 89,
          "name": "F6",
          "ticks": 1343,
          "time": 15.616279069767442,
          "velocity": 0.2125984251968504
        },
        {
          "duration": 0.13953488372093048,
          "durationTicks": 12,
          "midi": 98,
          "name": "D7",
          "ticks": 1343,
          "time": 15.616279069767442,
          "velocity": 0.13385826771653545
        },
        {
          "duration": 0.4883720930232549,
          "durationTicks": 42,
          "midi": 85,
          "name": "C#6",
          "ticks": 1344,
          "time": 15.627906976744185,
          "velocity": 0.2204724409448819
        },
        {
          "duration": 0.04651162790697683,
          "durationTicks": 4,
          "midi": 92,
          "name": "G#6",
          "ticks": 1344,
          "time": 15.627906976744185,
          "velocity": 0.07874015748031496
        },
        {
          "duration": 0.8604651162790695,
          "durationTicks": 74,
          "midi": 50,
          "name": "D3",
          "ticks": 1345,
          "time": 15.63953488372093,
          "velocity": 0.5118110236220472
        },
        {
          "duration": 0.04651162790697683,
          "durationTicks": 4,
          "midi": 72,
          "name": "C5",
          "ticks": 1347,
          "time": 15.662790697674419,
          "velocity": 0.1968503937007874
        },
        {
          "duration": 0.11627906976744207,
          "durationTicks": 10,
          "midi": 88,
          "name": "E6",
          "ticks": 1348,
          "time": 15.674418604651162,
          "velocity": 0.10236220472440945
        },
        {
          "duration": 0.04651162790697683,
          "durationTicks": 4,
          "midi": 67,
          "name": "G4",
          "ticks": 1349,
          "time": 15.686046511627907,
          "velocity": 0.2440944881889764
        },
        {
          "duration": 0.06976744186046524,
          "durationTicks": 6,
          "midi": 67,
          "name": "G4",
          "ticks": 1356,
          "time": 15.767441860465116,
          "velocity": 0.15748031496062992
        },
        {
          "duration": 0.04651162790697683,
          "durationTicks": 4,
          "midi": 43,
          "name": "G2",
          "ticks": 1357,
          "time": 15.779069767441861,
          "velocity": 0.3464566929133858
        },
        {
          "duration": 0.9302325581395348,
          "durationTicks": 80,
          "midi": 43,
          "name": "G2",
          "ticks": 1362,
          "time": 15.837209302325581,
          "velocity": 0.3228346456692913
        },
        {
          "duration": 0.3604651162790695,
          "durationTicks": 31,
          "midi": 67,
          "name": "G4",
          "ticks": 1365,
          "time": 15.872093023255815,
          "velocity": 0.12598425196850394
        },
        {
          "duration": 0.06976744186046346,
          "durationTicks": 6,
          "midi": 90,
          "name": "F#6",
          "ticks": 1372,
          "time": 15.953488372093023,
          "velocity": 0.09448818897637795
        },
        {
          "duration": 0.06976744186046346,
          "durationTicks": 6,
          "midi": 50,
          "name": "D3",
          "ticks": 1420,
          "time": 16.511627906976745,
          "velocity": 0.18110236220472442
        },
        {
          "duration": 0.04651162790697683,
          "durationTicks": 4,
          "midi": 50,
          "name": "D3",
          "ticks": 1429,
          "time": 16.61627906976744,
          "velocity": 0.14960629921259844
        },
        {
          "duration": 0.04651162790697683,
          "durationTicks": 4,
          "midi": 50,
          "name": "D3",
          "ticks": 1436,
          "time": 16.697674418604652,
          "velocity": 0.13385826771653545
        },
        {
          "duration": 0.04651162790697683,
          "durationTicks": 4,
          "midi": 57,
          "name": "A3",
          "ticks": 1441,
          "time": 16.75581395348837,
          "velocity": 0.4251968503937008
        },
        {
          "duration": 0.24418604651162923,
          "durationTicks": 21,
          "midi": 69,
          "name": "A4",
          "ticks": 1441,
          "time": 16.75581395348837,
          "velocity": 0.44881889763779526
        },
        {
          "duration": 0.03488372093023173,
          "durationTicks": 3,
          "midi": 42,
          "name": "F#2",
          "ticks": 1442,
          "time": 16.767441860465116,
          "velocity": 0.29133858267716534
        },
        {
          "duration": 0.22093023255813904,
          "durationTicks": 19,
          "midi": 62,
          "name": "D4",
          "ticks": 1442,
          "time": 16.767441860465116,
          "velocity": 0.18110236220472442
        },
        {
          "duration": 0.1860465116279073,
          "durationTicks": 16,
          "midi": 85,
          "name": "C#6",
          "ticks": 1442,
          "time": 16.767441860465116,
          "velocity": 0.1968503937007874
        },
        {
          "duration": 0.1860465116279073,
          "durationTicks": 16,
          "midi": 95,
          "name": "B6",
          "ticks": 1442,
          "time": 16.767441860465116,
          "velocity": 0.12598425196850394
        },
        {
          "duration": 0.09302325581395365,
          "durationTicks": 8,
          "midi": 91,
          "name": "G6",
          "ticks": 1443,
          "time": 16.77906976744186,
          "velocity": 0.11811023622047244
        },
        {
          "duration": 0.1744186046511622,
          "durationTicks": 15,
          "midi": 57,
          "name": "A3",
          "ticks": 1446,
          "time": 16.813953488372093,
          "velocity": 0.29133858267716534
        },
        {
          "duration": 0.023255813953486637,
          "durationTicks": 2,
          "midi": 42,
          "name": "F#2",
          "ticks": 1448,
          "time": 16.837209302325583,
          "velocity": 0.2440944881889764
        },
        {
          "duration": 0.15116279069767558,
          "durationTicks": 13,
          "midi": 43,
          "name": "G2",
          "ticks": 1450,
          "time": 16.86046511627907,
          "velocity": 0.2047244094488189
        },
        {
          "duration": 0.04651162790697683,
          "durationTicks": 4,
          "midi": 50,
          "name": "D3",
          "ticks": 1450,
          "time": 16.86046511627907,
          "velocity": 0.10236220472440945
        },
        {
          "duration": 0.06976744186046702,
          "durationTicks": 6,
          "midi": 50,
          "name": "D3",
          "ticks": 1457,
          "time": 16.941860465116278,
          "velocity": 0.14173228346456693
        },
        {
          "duration": 0.23255813953488413,
          "durationTicks": 20,
          "midi": 60,
          "name": "C4",
          "ticks": 1461,
          "time": 16.988372093023255,
          "velocity": 0.5196850393700787
        },
        {
          "duration": 0.29069767441860606,
          "durationTicks": 25,
          "midi": 79,
          "name": "G5",
          "ticks": 1461,
          "time": 16.988372093023255,
          "velocity": 0.2204724409448819
        },
        {
          "duration": 0.2558139534883743,
          "durationTicks": 22,
          "midi": 88,
          "name": "E6",
          "ticks": 1461,
          "time": 16.988372093023255,
          "velocity": 0.16535433070866143
        },
        {
          "duration": 0.03488372093023173,
          "durationTicks": 3,
          "midi": 67,
          "name": "G4",
          "ticks": 1462,
          "time": 17,
          "velocity": 0.13385826771653545
        },
        {
          "duration": 0.09302325581395365,
          "durationTicks": 8,
          "midi": 94,
          "name": "A#6",
          "ticks": 1462,
          "time": 17,
          "velocity": 0.07874015748031496
        },
        {
          "duration": 0.11627906976744029,
          "durationTicks": 10,
          "midi": 96,
          "name": "C7",
          "ticks": 1462,
          "time": 17,
          "velocity": 0.10236220472440945
        },
        {
          "duration": 0.2209302325581426,
          "durationTicks": 19,
          "midi": 43,
          "name": "G2",
          "ticks": 1464,
          "time": 17.023255813953487,
          "velocity": 0.1968503937007874
        },
        {
          "duration": 0.06976744186046702,
          "durationTicks": 6,
          "midi": 50,
          "name": "D3",
          "ticks": 1464,
          "time": 17.023255813953487,
          "velocity": 0.11811023622047244
        },
        {
          "duration": 0.04651162790697683,
          "durationTicks": 4,
          "midi": 69,
          "name": "A4",
          "ticks": 1464,
          "time": 17.023255813953487,
          "velocity": 0.14960629921259844
        },
        {
          "duration": 1.6860465116279073,
          "durationTicks": 145,
          "midi": 74,
          "name": "D5",
          "ticks": 1481,
          "time": 17.22093023255814,
          "velocity": 0.5039370078740157
        },
        {
          "duration": 0.6627906976744207,
          "durationTicks": 57,
          "midi": 81,
          "name": "A5",
          "ticks": 1481,
          "time": 17.22093023255814,
          "velocity": 0.31496062992125984
        },
        {
          "duration": 0.5813953488372086,
          "durationTicks": 50,
          "midi": 90,
          "name": "F#6",
          "ticks": 1481,
          "time": 17.22093023255814,
          "velocity": 0.2204724409448819
        },
        {
          "duration": 0.22093023255813904,
          "durationTicks": 19,
          "midi": 62,
          "name": "D4",
          "ticks": 1482,
          "time": 17.232558139534884,
          "velocity": 0.5039370078740157
        },
        {
          "duration": 0.03488372093023173,
          "durationTicks": 3,
          "midi": 72,
          "name": "C5",
          "ticks": 1482,
          "time": 17.232558139534884,
          "velocity": 0.1889763779527559
        },
        {
          "duration": 0.08139534883720856,
          "durationTicks": 7,
          "midi": 96,
          "name": "C7",
          "ticks": 1482,
          "time": 17.232558139534884,
          "velocity": 0.07874015748031496
        },
        {
          "duration": 0.11627906976744029,
          "durationTicks": 10,
          "midi": 98,
          "name": "D7",
          "ticks": 1482,
          "time": 17.232558139534884,
          "velocity": 0.10236220472440945
        },
        {
          "duration": 0.16279069767441712,
          "durationTicks": 14,
          "midi": 43,
          "name": "G2",
          "ticks": 1486,
          "time": 17.27906976744186,
          "velocity": 0.15748031496062992
        },
        {
          "duration": 0.08139534883720856,
          "durationTicks": 7,
          "midi": 72,
          "name": "C5",
          "ticks": 1486,
          "time": 17.27906976744186,
          "velocity": 0.1732283464566929
        },
        {
          "duration": 0.02325581395349019,
          "durationTicks": 2,
          "midi": 61,
          "name": "C#4",
          "ticks": 1501,
          "time": 17.453488372093023,
          "velocity": 0.49606299212598426
        },
        {
          "duration": 0.3488372093023244,
          "durationTicks": 30,
          "midi": 69,
          "name": "A4",
          "ticks": 1501,
          "time": 17.453488372093023,
          "velocity": 0.4094488188976378
        },
        {
          "duration": 1.1046511627906987,
          "durationTicks": 95,
          "midi": 76,
          "name": "E5",
          "ticks": 1501,
          "time": 17.453488372093023,
          "velocity": 0.3464566929133858
        },
        {
          "duration": 0.02325581395349019,
          "durationTicks": 2,
          "midi": 78,
          "name": "F#5",
          "ticks": 1501,
          "time": 17.453488372093023,
          "velocity": 0.2440944881889764
        },
        {
          "duration": 0.20930232558139394,
          "durationTicks": 18,
          "midi": 85,
          "name": "C#6",
          "ticks": 1501,
          "time": 17.453488372093023,
          "velocity": 0.1968503937007874
        },
        {
          "duration": 0.023255813953486637,
          "durationTicks": 2,
          "midi": 41,
          "name": "F2",
          "ticks": 1502,
          "time": 17.46511627906977,
          "velocity": 0.5275590551181102
        },
        {
          "duration": 0.023255813953486637,
          "durationTicks": 2,
          "midi": 56,
          "name": "G#3",
          "ticks": 1502,
          "time": 17.46511627906977,
          "velocity": 0.44881889763779526
        },
        {
          "duration": 0.05813953488371837,
          "durationTicks": 5,
          "midi": 83,
          "name": "B5",
          "ticks": 1502,
          "time": 17.46511627906977,
          "velocity": 0.1968503937007874
        },
        {
          "duration": 0.3139534883720927,
          "durationTicks": 27,
          "midi": 91,
          "name": "G6",
          "ticks": 1502,
          "time": 17.46511627906977,
          "velocity": 0.2283464566929134
        },
        {
          "duration": 0.09302325581395365,
          "durationTicks": 8,
          "midi": 92,
          "name": "G#6",
          "ticks": 1502,
          "time": 17.46511627906977,
          "velocity": 0.13385826771653545
        },
        {
          "duration": 0.05813953488371837,
          "durationTicks": 5,
          "midi": 96,
          "name": "C7",
          "ticks": 1502,
          "time": 17.46511627906977,
          "velocity": 0.08661417322834646
        },
        {
          "duration": 1.2674418604651159,
          "durationTicks": 109,
          "midi": 62,
          "name": "D4",
          "ticks": 1503,
          "time": 17.476744186046513,
          "velocity": 0.5196850393700787
        },
        {
          "duration": 0.03488372093023173,
          "durationTicks": 3,
          "midi": 72,
          "name": "C5",
          "ticks": 1503,
          "time": 17.476744186046513,
          "velocity": 0.23622047244094488
        },
        {
          "duration": 0.24418604651162568,
          "durationTicks": 21,
          "midi": 79,
          "name": "G5",
          "ticks": 1503,
          "time": 17.476744186046513,
          "velocity": 0.2283464566929134
        },
        {
          "duration": 0.02325581395349019,
          "durationTicks": 2,
          "midi": 9,
          "name": "A-1",
          "ticks": 1504,
          "time": 17.488372093023255,
          "velocity": 0.23622047244094488
        },
        {
          "duration": 0.02325581395349019,
          "durationTicks": 2,
          "midi": 50,
          "name": "D3",
          "ticks": 1504,
          "time": 17.488372093023255,
          "velocity": 0.41732283464566927
        },
        {
          "duration": 1.1046511627906987,
          "durationTicks": 95,
          "midi": 57,
          "name": "A3",
          "ticks": 1504,
          "time": 17.488372093023255,
          "velocity": 0.4330708661417323
        },
        {
          "duration": 0.02325581395349019,
          "durationTicks": 2,
          "midi": 66,
          "name": "F#4",
          "ticks": 1504,
          "time": 17.488372093023255,
          "velocity": 0.25196850393700787
        },
        {
          "duration": 0.3372093023255829,
          "durationTicks": 29,
          "midi": 87,
          "name": "D#6",
          "ticks": 1504,
          "time": 17.488372093023255,
          "velocity": 0.18110236220472442
        },
        {
          "duration": 0.03488372093023173,
          "durationTicks": 3,
          "midi": 100,
          "name": "E7",
          "ticks": 1504,
          "time": 17.488372093023255,
          "velocity": 0.10236220472440945
        },
        {
          "duration": 0.05813953488372192,
          "durationTicks": 5,
          "midi": 72,
          "name": "C5",
          "ticks": 1507,
          "time": 17.523255813953487,
          "velocity": 0.12598425196850394
        },
        {
          "duration": 0.15116279069767558,
          "durationTicks": 13,
          "midi": 84,
          "name": "C6",
          "ticks": 1507,
          "time": 17.523255813953487,
          "velocity": 0.14960629921259844
        },
        {
          "duration": 0.13953488372093048,
          "durationTicks": 12,
          "midi": 45,
          "name": "A2",
          "ticks": 1508,
          "time": 17.53488372093023,
          "velocity": 0.4330708661417323
        },
        {
          "duration": 0.06976744186046702,
          "durationTicks": 6,
          "midi": 98,
          "name": "D7",
          "ticks": 1508,
          "time": 17.53488372093023,
          "velocity": 0.07874015748031496
        },
        {
          "duration": 0.06976744186046346,
          "durationTicks": 6,
          "midi": 66,
          "name": "F#4",
          "ticks": 1514,
          "time": 17.6046511627907,
          "velocity": 0.1732283464566929
        },
        {
          "duration": 0.05813953488371837,
          "durationTicks": 5,
          "midi": 72,
          "name": "C5",
          "ticks": 1514,
          "time": 17.6046511627907,
          "velocity": 0.10236220472440945
        },
        {
          "duration": 0.40697674418604635,
          "durationTicks": 35,
          "midi": 45,
          "name": "A2",
          "ticks": 1521,
          "time": 17.686046511627907,
          "velocity": 0.3543307086614173
        },
        {
          "duration": 0.04651162790697683,
          "durationTicks": 4,
          "midi": 66,
          "name": "F#4",
          "ticks": 1526,
          "time": 17.74418604651163,
          "velocity": 0.13385826771653545
        },
        {
          "duration": 0.04651162790697683,
          "durationTicks": 4,
          "midi": 66,
          "name": "F#4",
          "ticks": 1533,
          "time": 17.825581395348838,
          "velocity": 0.11811023622047244
        },
        {
          "duration": 0.03488372093023173,
          "durationTicks": 3,
          "midi": 90,
          "name": "F#6",
          "ticks": 1533,
          "time": 17.825581395348838,
          "velocity": 0.07874015748031496
        },
        {
          "duration": 0.03488372093023173,
          "durationTicks": 3,
          "midi": 66,
          "name": "F#4",
          "ticks": 1553,
          "time": 18.058139534883722,
          "velocity": 0.07874015748031496
        },
        {
          "duration": 0.04651162790697683,
          "durationTicks": 4,
          "midi": 45,
          "name": "A2",
          "ticks": 1557,
          "time": 18.1046511627907,
          "velocity": 0.29133858267716534
        },
        {
          "duration": 0.04651162790697683,
          "durationTicks": 4,
          "midi": 45,
          "name": "A2",
          "ticks": 1564,
          "time": 18.186046511627907,
          "velocity": 0.28346456692913385
        },
        {
          "duration": 0.04651162790697683,
          "durationTicks": 4,
          "midi": 45,
          "name": "A2",
          "ticks": 1571,
          "time": 18.267441860465116,
          "velocity": 0.2755905511811024
        },
        {
          "duration": 0.034883720930235285,
          "durationTicks": 3,
          "midi": 45,
          "name": "A2",
          "ticks": 1578,
          "time": 18.348837209302324,
          "velocity": 0.25984251968503935
        },
        {
          "duration": 0.03488372093023173,
          "durationTicks": 3,
          "midi": 45,
          "name": "A2",
          "ticks": 1585,
          "time": 18.430232558139537,
          "velocity": 0.2440944881889764
        },
        {
          "duration": 0.03488372093023173,
          "durationTicks": 3,
          "midi": 45,
          "name": "A2",
          "ticks": 1592,
          "time": 18.511627906976745,
          "velocity": 0.23622047244094488
        },
        {
          "duration": 0.03488372093023173,
          "durationTicks": 3,
          "midi": 45,
          "name": "A2",
          "ticks": 1618,
          "time": 18.813953488372093,
          "velocity": 0.1889763779527559
        },
        {
          "duration": 0.12790697674418539,
          "durationTicks": 11,
          "midi": 65,
          "name": "F4",
          "ticks": 1620,
          "time": 18.837209302325583,
          "velocity": 0.5118110236220472
        },
        {
          "duration": 0.03488372093023173,
          "durationTicks": 3,
          "midi": 69,
          "name": "A4",
          "ticks": 1620,
          "time": 18.837209302325583,
          "velocity": 0.1732283464566929
        },
        {
          "duration": 0.03488372093023173,
          "durationTicks": 3,
          "midi": 72,
          "name": "C5",
          "ticks": 1620,
          "time": 18.837209302325583,
          "velocity": 0.14960629921259844
        },
        {
          "duration": 0.1744186046511622,
          "durationTicks": 15,
          "midi": 84,
          "name": "C6",
          "ticks": 1620,
          "time": 18.837209302325583,
          "velocity": 0.23622047244094488
        },
        {
          "duration": 0.15116279069767202,
          "durationTicks": 13,
          "midi": 93,
          "name": "A6",
          "ticks": 1620,
          "time": 18.837209302325583,
          "velocity": 0.14173228346456693
        },
        {
          "duration": 0.09302325581395365,
          "durationTicks": 8,
          "midi": 101,
          "name": "F7",
          "ticks": 1621,
          "time": 18.848837209302324,
          "velocity": 0.10236220472440945
        },
        {
          "duration": 0.1744186046511622,
          "durationTicks": 15,
          "midi": 83,
          "name": "B5",
          "ticks": 1629,
          "time": 18.941860465116278,
          "velocity": 0.2440944881889764
        },
        {
          "duration": 0.15116279069767558,
          "durationTicks": 13,
          "midi": 92,
          "name": "G#6",
          "ticks": 1629,
          "time": 18.941860465116278,
          "velocity": 0.16535433070866143
        },
        {
          "duration": 0.09302325581395365,
          "durationTicks": 8,
          "midi": 76,
          "name": "E5",
          "ticks": 1630,
          "time": 18.953488372093023,
          "velocity": 0.4881889763779528
        },
        {
          "duration": 0.06976744186046346,
          "durationTicks": 6,
          "midi": 98,
          "name": "D7",
          "ticks": 1630,
          "time": 18.953488372093023,
          "velocity": 0.07874015748031496
        },
        {
          "duration": 0.09302325581395365,
          "durationTicks": 8,
          "midi": 100,
          "name": "E7",
          "ticks": 1630,
          "time": 18.953488372093023,
          "velocity": 0.11023622047244094
        },
        {
          "duration": 0.1046511627906952,
          "durationTicks": 9,
          "midi": 64,
          "name": "E4",
          "ticks": 1631,
          "time": 18.96511627906977,
          "velocity": 0.5354330708661418
        },
        {
          "duration": 0.05813953488371837,
          "durationTicks": 5,
          "midi": 45,
          "name": "A2",
          "ticks": 1635,
          "time": 19.011627906976745,
          "velocity": 0.2125984251968504
        },
        {
          "duration": 0.03488372093023173,
          "durationTicks": 3,
          "midi": 69,
          "name": "A4",
          "ticks": 1638,
          "time": 19.046511627906977,
          "velocity": 0.16535433070866143
        },
        {
          "duration": 0.24418604651162923,
          "durationTicks": 21,
          "midi": 77,
          "name": "F5",
          "ticks": 1638,
          "time": 19.046511627906977,
          "velocity": 0.5118110236220472
        },
        {
          "duration": 0.03488372093023173,
          "durationTicks": 3,
          "midi": 72,
          "name": "C5",
          "ticks": 1639,
          "time": 19.058139534883722,
          "velocity": 0.13385826771653545
        },
        {
          "duration": 0.1744186046511622,
          "durationTicks": 15,
          "midi": 84,
          "name": "C6",
          "ticks": 1639,
          "time": 19.058139534883722,
          "velocity": 0.2283464566929134
        },
        {
          "duration": 0.13953488372093048,
          "durationTicks": 12,
          "midi": 93,
          "name": "A6",
          "ticks": 1639,
          "time": 19.058139534883722,
          "velocity": 0.11023622047244094
        },
        {
          "duration": 0.11627906976744384,
          "durationTicks": 10,
          "midi": 65,
          "name": "F4",
          "ticks": 1640,
          "time": 19.069767441860463,
          "velocity": 0.5669291338582677
        },
        {
          "duration": 0.09302325581395365,
          "durationTicks": 8,
          "midi": 101,
          "name": "F7",
          "ticks": 1640,
          "time": 19.069767441860463,
          "velocity": 0.09448818897637795
        },
        {
          "duration": 0.04651162790697683,
          "durationTicks": 4,
          "midi": 45,
          "name": "A2",
          "ticks": 1644,
          "time": 19.11627906976744,
          "velocity": 0.16535433070866143
        },
        {
          "duration": 0.27906976744186096,
          "durationTicks": 24,
          "midi": 79,
          "name": "G5",
          "ticks": 1649,
          "time": 19.174418604651162,
          "velocity": 0.31496062992125984
        },
        {
          "duration": 0.3372093023255829,
          "durationTicks": 29,
          "midi": 86,
          "name": "D6",
          "ticks": 1649,
          "time": 19.174418604651162,
          "velocity": 0.2677165354330709
        },
        {
          "duration": 0.9069767441860463,
          "durationTicks": 78,
          "midi": 67,
          "name": "G4",
          "ticks": 1650,
          "time": 19.186046511627907,
          "velocity": 0.6377952755905512
        },
        {
          "duration": 0.02325581395349019,
          "durationTicks": 2,
          "midi": 44,
          "name": "G#2",
          "ticks": 1652,
          "time": 19.209302325581394,
          "velocity": 0.23622047244094488
        },
        {
          "duration": 1.6046511627906987,
          "durationTicks": 138,
          "midi": 62,
          "name": "D4",
          "ticks": 1658,
          "time": 19.27906976744186,
          "velocity": 0.4881889763779528
        },
        {
          "duration": 0.04651162790697683,
          "durationTicks": 4,
          "midi": 72,
          "name": "C5",
          "ticks": 1658,
          "time": 19.27906976744186,
          "velocity": 0.15748031496062992
        },
        {
          "duration": 0.16279069767441712,
          "durationTicks": 14,
          "midi": 81,
          "name": "A5",
          "ticks": 1658,
          "time": 19.27906976744186,
          "velocity": 0.1968503937007874
        },
        {
          "duration": 0.05813953488372192,
          "durationTicks": 5,
          "midi": 84,
          "name": "C6",
          "ticks": 1658,
          "time": 19.27906976744186,
          "velocity": 0.2125984251968504
        },
        {
          "duration": 0.023255813953486637,
          "durationTicks": 2,
          "midi": 49,
          "name": "C#3",
          "ticks": 1659,
          "time": 19.290697674418606,
          "velocity": 0.5354330708661418
        },
        {
          "duration": 0.1860465116279073,
          "durationTicks": 16,
          "midi": 83,
          "name": "B5",
          "ticks": 1659,
          "time": 19.290697674418606,
          "velocity": 0.2755905511811024
        },
        {
          "duration": 0.08139534883720856,
          "durationTicks": 7,
          "midi": 89,
          "name": "F6",
          "ticks": 1659,
          "time": 19.290697674418606,
          "velocity": 0.2204724409448819
        },
        {
          "duration": 0.03488372093023173,
          "durationTicks": 3,
          "midi": 90,
          "name": "F#6",
          "ticks": 1659,
          "time": 19.290697674418606,
          "velocity": 0.14173228346456693
        },
        {
          "duration": 0.22093023255813904,
          "durationTicks": 19,
          "midi": 93,
          "name": "A6",
          "ticks": 1659,
          "time": 19.290697674418606,
          "velocity": 0.25196850393700787
        },
        {
          "duration": 0.02325581395349019,
          "durationTicks": 2,
          "midi": 42,
          "name": "F#2",
          "ticks": 1660,
          "time": 19.302325581395348,
          "velocity": 0.5039370078740157
        },
        {
          "duration": 0.05813953488372192,
          "durationTicks": 5,
          "midi": 97,
          "name": "C#7",
          "ticks": 1660,
          "time": 19.302325581395348,
          "velocity": 0.13385826771653545
        },
        {
          "duration": 0.9418604651162781,
          "durationTicks": 81,
          "midi": 50,
          "name": "D3",
          "ticks": 1661,
          "time": 19.313953488372093,
          "velocity": 0.5118110236220472
        },
        {
          "duration": 0.5,
          "durationTicks": 43,
          "midi": 77,
          "name": "F5",
          "ticks": 1661,
          "time": 19.313953488372093,
          "velocity": 0.1889763779527559
        },
        {
          "duration": 0.47674418604651336,
          "durationTicks": 41,
          "midi": 85,
          "name": "C#6",
          "ticks": 1661,
          "time": 19.313953488372093,
          "velocity": 0.1732283464566929
        },
        {
          "duration": 0.24418604651162923,
          "durationTicks": 21,
          "midi": 78,
          "name": "F#5",
          "ticks": 1665,
          "time": 19.36046511627907,
          "velocity": 0.11023622047244094
        },
        {
          "duration": 0.09302325581395365,
          "durationTicks": 8,
          "midi": 90,
          "name": "F#6",
          "ticks": 1665,
          "time": 19.36046511627907,
          "velocity": 0.14173228346456693
        },
        {
          "duration": 0.11627906976744029,
          "durationTicks": 10,
          "midi": 88,
          "name": "E6",
          "ticks": 1667,
          "time": 19.38372093023256,
          "velocity": 0.07086614173228346
        },
        {
          "duration": 0.13953488372093048,
          "durationTicks": 12,
          "midi": 84,
          "name": "C6",
          "ticks": 1668,
          "time": 19.3953488372093,
          "velocity": 0.08661417322834646
        },
        {
          "duration": 0.03488372093023173,
          "durationTicks": 3,
          "midi": 43,
          "name": "G2",
          "ticks": 1674,
          "time": 19.46511627906977,
          "velocity": 0.3464566929133858
        },
        {
          "duration": 1.5930232558139537,
          "durationTicks": 137,
          "midi": 43,
          "name": "G2",
          "ticks": 1678,
          "time": 19.511627906976745,
          "velocity": 0.3228346456692913
        },
        {
          "duration": 0.12790697674418539,
          "durationTicks": 11,
          "midi": 81,
          "name": "A5",
          "ticks": 1689,
          "time": 19.63953488372093,
          "velocity": 0.07086614173228346
        },
        {
          "duration": 0.04651162790697683,
          "durationTicks": 4,
          "midi": 50,
          "name": "D3",
          "ticks": 1745,
          "time": 20.290697674418606,
          "velocity": 0.14960629921259844
        },
        {
          "duration": 0.04651162790697683,
          "durationTicks": 4,
          "midi": 50,
          "name": "D3",
          "ticks": 1752,
          "time": 20.372093023255815,
          "velocity": 0.13385826771653545
        },
        {
          "duration": 0.04651162790697683,
          "durationTicks": 4,
          "midi": 50,
          "name": "D3",
          "ticks": 1759,
          "time": 20.453488372093023,
          "velocity": 0.11811023622047244
        },
        {
          "duration": 0.04651162790697683,
          "durationTicks": 4,
          "midi": 50,
          "name": "D3",
          "ticks": 1766,
          "time": 20.53488372093023,
          "velocity": 0.09448818897637795
        },
        {
          "duration": 0.04651162790697683,
          "durationTicks": 4,
          "midi": 50,
          "name": "D3",
          "ticks": 1773,
          "time": 20.61627906976744,
          "velocity": 0.07874015748031496
        },
        {
          "duration": 0.023255813953486637,
          "durationTicks": 2,
          "midi": 70,
          "name": "A#4",
          "ticks": 1815,
          "time": 21.1046511627907,
          "velocity": 0.4251968503937008
        },
        {
          "duration": 0.6279069767441854,
          "durationTicks": 54,
          "midi": 74,
          "name": "D5",
          "ticks": 1815,
          "time": 21.1046511627907,
          "velocity": 0.4881889763779528
        },
        {
          "duration": 0.02325581395349019,
          "durationTicks": 2,
          "midi": 45,
          "name": "A2",
          "ticks": 1816,
          "time": 21.11627906976744,
          "velocity": 0.5275590551181102
        },
        {
          "duration": 0.034883720930235285,
          "durationTicks": 3,
          "midi": 61,
          "name": "C#4",
          "ticks": 1816,
          "time": 21.11627906976744,
          "velocity": 0.5433070866141733
        },
        {
          "duration": 0.02325581395349019,
          "durationTicks": 2,
          "midi": 66,
          "name": "F#4",
          "ticks": 1816,
          "time": 21.11627906976744,
          "velocity": 0.4251968503937008
        },
        {
          "duration": 0.6279069767441889,
          "durationTicks": 54,
          "midi": 77,
          "name": "F5",
          "ticks": 1816,
          "time": 21.11627906976744,
          "velocity": 0.28346456692913385
        },
        {
          "duration": 0.08139534883721211,
          "durationTicks": 7,
          "midi": 88,
          "name": "E6",
          "ticks": 1816,
          "time": 21.11627906976744,
          "velocity": 0.31496062992125984
        },
        {
          "duration": 0.12790697674418894,
          "durationTicks": 11,
          "midi": 91,
          "name": "G6",
          "ticks": 1816,
          "time": 21.11627906976744,
          "velocity": 0.23622047244094488
        },
        {
          "duration": 0.09302325581395365,
          "durationTicks": 8,
          "midi": 95,
          "name": "B6",
          "ticks": 1816,
          "time": 21.11627906976744,
          "velocity": 0.16535433070866143
        },
        {
          "duration": 0.13953488372093048,
          "durationTicks": 12,
          "midi": 96,
          "name": "C7",
          "ticks": 1816,
          "time": 21.11627906976744,
          "velocity": 0.1889763779527559
        },
        {
          "duration": 0.5348837209302317,
          "durationTicks": 46,
          "midi": 69,
          "name": "A4",
          "ticks": 1817,
          "time": 21.127906976744185,
          "velocity": 0.5590551181102362
        },
        {
          "duration": 1.6279069767441854,
          "durationTicks": 140,
          "midi": 72,
          "name": "C5",
          "ticks": 1817,
          "time": 21.127906976744185,
          "velocity": 0.5118110236220472
        },
        {
          "duration": 0.2558139534883743,
          "durationTicks": 22,
          "midi": 79,
          "name": "G5",
          "ticks": 1817,
          "time": 21.127906976744185,
          "velocity": 0.1889763779527559
        },
        {
          "duration": 0.06976744186046702,
          "durationTicks": 6,
          "midi": 83,
          "name": "B5",
          "ticks": 1817,
          "time": 21.127906976744185,
          "velocity": 0.14960629921259844
        },
        {
          "duration": 0.03488372093023173,
          "durationTicks": 3,
          "midi": 87,
          "name": "D#6",
          "ticks": 1817,
          "time": 21.127906976744185,
          "velocity": 0.14173228346456693
        },
        {
          "duration": 0.2558139534883743,
          "durationTicks": 22,
          "midi": 90,
          "name": "F#6",
          "ticks": 1817,
          "time": 21.127906976744185,
          "velocity": 0.1889763779527559
        },
        {
          "duration": 0.05813953488372192,
          "durationTicks": 5,
          "midi": 93,
          "name": "A6",
          "ticks": 1817,
          "time": 21.127906976744185,
          "velocity": 0.25984251968503935
        },
        {
          "duration": 0.8953488372093013,
          "durationTicks": 77,
          "midi": 65,
          "name": "F4",
          "ticks": 1818,
          "time": 21.13953488372093,
          "velocity": 0.48031496062992124
        },
        {
          "duration": 0.06976744186046346,
          "durationTicks": 6,
          "midi": 98,
          "name": "D7",
          "ticks": 1818,
          "time": 21.13953488372093,
          "velocity": 0.10236220472440945
        },
        {
          "duration": 1.3953488372093013,
          "durationTicks": 120,
          "midi": 48,
          "name": "C3",
          "ticks": 1819,
          "time": 21.151162790697676,
          "velocity": 0.49606299212598426
        },
        {
          "duration": 0.04651162790697683,
          "durationTicks": 4,
          "midi": 62,
          "name": "D4",
          "ticks": 1819,
          "time": 21.151162790697676,
          "velocity": 0.49606299212598426
        },
        {
          "duration": 0.04651162790697683,
          "durationTicks": 4,
          "midi": 82,
          "name": "A#5",
          "ticks": 1819,
          "time": 21.151162790697676,
          "velocity": 0.14960629921259844
        },
        {
          "duration": 0.02325581395349019,
          "durationTicks": 2,
          "midi": 41,
          "name": "F2",
          "ticks": 1821,
          "time": 21.174418604651162,
          "velocity": 0.4330708661417323
        },
        {
          "duration": 0.08139534883720856,
          "durationTicks": 7,
          "midi": 87,
          "name": "D#6",
          "ticks": 1821,
          "time": 21.174418604651162,
          "velocity": 0.16535433070866143
        },
        {
          "duration": 0.04651162790697683,
          "durationTicks": 4,
          "midi": 67,
          "name": "G4",
          "ticks": 1822,
          "time": 21.186046511627907,
          "velocity": 0.4330708661417323
        },
        {
          "duration": 0.02325581395349019,
          "durationTicks": 2,
          "midi": 62,
          "name": "D4",
          "ticks": 1824,
          "time": 21.209302325581394,
          "velocity": 0.41732283464566927
        },
        {
          "duration": 0.03488372093023173,
          "durationTicks": 3,
          "midi": 88,
          "name": "E6",
          "ticks": 1826,
          "time": 21.232558139534884,
          "velocity": 0.10236220472440945
        },
        {
          "duration": 0.04651162790697683,
          "durationTicks": 4,
          "midi": 62,
          "name": "D4",
          "ticks": 1827,
          "time": 21.24418604651163,
          "velocity": 0.4251968503937008
        },
        {
          "duration": 0.06976744186046346,
          "durationTicks": 6,
          "midi": 88,
          "name": "E6",
          "ticks": 1834,
          "time": 21.325581395348838,
          "velocity": 0.11023622047244094
        },
        {
          "duration": 0.02325581395349019,
          "durationTicks": 2,
          "midi": 62,
          "name": "D4",
          "ticks": 1840,
          "time": 21.3953488372093,
          "velocity": 0.33070866141732286
        },
        {
          "duration": 1.290697674418606,
          "durationTicks": 111,
          "midi": 60,
          "name": "C4",
          "ticks": 1845,
          "time": 21.453488372093023,
          "velocity": 0.5275590551181102
        },
        {
          "duration": 0.16279069767441712,
          "durationTicks": 14,
          "midi": 41,
          "name": "F2",
          "ticks": 1862,
          "time": 21.651162790697676,
          "velocity": 0.2125984251968504
        },
        {
          "duration": 0.06976744186046702,
          "durationTicks": 6,
          "midi": 81,
          "name": "A5",
          "ticks": 1863,
          "time": 21.662790697674417,
          "velocity": 0.11023622047244094
        },
        {
          "duration": 0.08139534883720856,
          "durationTicks": 7,
          "midi": 69,
          "name": "A4",
          "ticks": 1873,
          "time": 21.77906976744186,
          "velocity": 0.08661417322834646
        },
        {
          "duration": 0.13953488372093048,
          "durationTicks": 12,
          "midi": 53,
          "name": "F3",
          "ticks": 1884,
          "time": 21.906976744186046,
          "velocity": 0.1889763779527559
        },
        {
          "duration": 0.7325581395348841,
          "durationTicks": 63,
          "midi": 79,
          "name": "G5",
          "ticks": 1895,
          "time": 22.03488372093023,
          "velocity": 0.1889763779527559
        },
        {
          "duration": 0.1860465116279073,
          "durationTicks": 16,
          "midi": 86,
          "name": "D6",
          "ticks": 1895,
          "time": 22.03488372093023,
          "velocity": 0.2204724409448819
        },
        {
          "duration": 0.29069767441860606,
          "durationTicks": 25,
          "midi": 88,
          "name": "E6",
          "ticks": 1895,
          "time": 22.03488372093023,
          "velocity": 0.15748031496062992
        },
        {
          "duration": 0.023255813953486637,
          "durationTicks": 2,
          "midi": 39,
          "name": "D#2",
          "ticks": 1896,
          "time": 22.046511627906977,
          "velocity": 0.2283464566929134
        },
        {
          "duration": 0.5930232558139537,
          "durationTicks": 51,
          "midi": 67,
          "name": "G4",
          "ticks": 1896,
          "time": 22.046511627906977,
          "velocity": 0.5511811023622047
        },
        {
          "duration": 0.09302325581395365,
          "durationTicks": 8,
          "midi": 94,
          "name": "A#6",
          "ticks": 1896,
          "time": 22.046511627906977,
          "velocity": 0.11023622047244094
        },
        {
          "duration": 0.09302325581395365,
          "durationTicks": 8,
          "midi": 96,
          "name": "C7",
          "ticks": 1896,
          "time": 22.046511627906977,
          "velocity": 0.10236220472440945
        },
        {
          "duration": 0.2093023255813975,
          "durationTicks": 18,
          "midi": 53,
          "name": "F3",
          "ticks": 1898,
          "time": 22.069767441860463,
          "velocity": 0.16535433070866143
        },
        {
          "duration": 0.8139534883720927,
          "durationTicks": 70,
          "midi": 41,
          "name": "F2",
          "ticks": 1903,
          "time": 22.127906976744185,
          "velocity": 0.14960629921259844
        },
        {
          "duration": 0.02325581395349019,
          "durationTicks": 2,
          "midi": 53,
          "name": "F3",
          "ticks": 1973,
          "time": 22.941860465116278,
          "velocity": 0.4566929133858268
        },
        {
          "duration": 0.29069767441860606,
          "durationTicks": 25,
          "midi": 77,
          "name": "F5",
          "ticks": 1973,
          "time": 22.941860465116278,
          "velocity": 0.4881889763779528
        },
        {
          "duration": 0.11627906976744029,
          "durationTicks": 10,
          "midi": 65,
          "name": "F4",
          "ticks": 1974,
          "time": 22.953488372093023,
          "velocity": 0.5826771653543307
        },
        {
          "duration": 0.47674418604651336,
          "durationTicks": 41,
          "midi": 81,
          "name": "A5",
          "ticks": 1974,
          "time": 22.953488372093023,
          "velocity": 0.25196850393700787
        },
        {
          "duration": 0.3837209302325597,
          "durationTicks": 33,
          "midi": 84,
          "name": "C6",
          "ticks": 1974,
          "time": 22.953488372093023,
          "velocity": 0.23622047244094488
        },
        {
          "duration": 0.1860465116279073,
          "durationTicks": 16,
          "midi": 85,
          "name": "C#6",
          "ticks": 1974,
          "time": 22.953488372093023,
          "velocity": 0.28346456692913385
        },
        {
          "duration": 0.22093023255813904,
          "durationTicks": 19,
          "midi": 86,
          "name": "D6",
          "ticks": 1974,
          "time": 22.953488372093023,
          "velocity": 0.2283464566929134
        },
        {
          "duration": 0.011627906976745095,
          "durationTicks": 1,
          "midi": 51,
          "name": "D#3",
          "ticks": 1975,
          "time": 22.96511627906977,
          "velocity": 0.5433070866141733
        },
        {
          "duration": 0.023255813953486637,
          "durationTicks": 2,
          "midi": 70,
          "name": "A#4",
          "ticks": 1975,
          "time": 22.96511627906977,
          "velocity": 0.41732283464566927
        },
        {
          "duration": 0.27906976744186096,
          "durationTicks": 24,
          "midi": 80,
          "name": "G#5",
          "ticks": 1975,
          "time": 22.96511627906977,
          "velocity": 0.15748031496062992
        },
        {
          "duration": 0.12790697674418539,
          "durationTicks": 11,
          "midi": 83,
          "name": "B5",
          "ticks": 1975,
          "time": 22.96511627906977,
          "velocity": 0.1968503937007874
        },
        {
          "duration": 0.27906976744186096,
          "durationTicks": 24,
          "midi": 90,
          "name": "F#6",
          "ticks": 1975,
          "time": 22.96511627906977,
          "velocity": 0.10236220472440945
        },
        {
          "duration": 0.08139534883720856,
          "durationTicks": 7,
          "midi": 91,
          "name": "G6",
          "ticks": 1975,
          "time": 22.96511627906977,
          "velocity": 0.2125984251968504
        },
        {
          "duration": 0.19767441860464885,
          "durationTicks": 17,
          "midi": 95,
          "name": "B6",
          "ticks": 1975,
          "time": 22.96511627906977,
          "velocity": 0.2677165354330709
        },
        {
          "duration": 0.09302325581395365,
          "durationTicks": 8,
          "midi": 99,
          "name": "D#7",
          "ticks": 1975,
          "time": 22.96511627906977,
          "velocity": 0.1732283464566929
        },
        {
          "duration": 1.2325581395348806,
          "durationTicks": 106,
          "midi": 45,
          "name": "A2",
          "ticks": 1976,
          "time": 22.976744186046513,
          "velocity": 0.49606299212598426
        },
        {
          "duration": 0.8953488372093013,
          "durationTicks": 77,
          "midi": 52,
          "name": "E3",
          "ticks": 1976,
          "time": 22.976744186046513,
          "velocity": 0.5118110236220472
        },
        {
          "duration": 0.5,
          "durationTicks": 43,
          "midi": 71,
          "name": "B4",
          "ticks": 1976,
          "time": 22.976744186046513,
          "velocity": 0.44881889763779526
        },
        {
          "duration": 0.38372093023255616,
          "durationTicks": 33,
          "midi": 87,
          "name": "D#6",
          "ticks": 1976,
          "time": 22.976744186046513,
          "velocity": 0.1968503937007874
        },
        {
          "duration": 0.046511627906973274,
          "durationTicks": 4,
          "midi": 88,
          "name": "E6",
          "ticks": 1976,
          "time": 22.976744186046513,
          "velocity": 0.10236220472440945
        },
        {
          "duration": 0.06976744186046346,
          "durationTicks": 6,
          "midi": 94,
          "name": "A#6",
          "ticks": 1976,
          "time": 22.976744186046513,
          "velocity": 0.07874015748031496
        },
        {
          "duration": 0.0930232558139501,
          "durationTicks": 8,
          "midi": 101,
          "name": "F7",
          "ticks": 1976,
          "time": 22.976744186046513,
          "velocity": 0.08661417322834646
        },
        {
          "duration": 0.08139534883720856,
          "durationTicks": 7,
          "midi": 69,
          "name": "A4",
          "ticks": 1977,
          "time": 22.988372093023255,
          "velocity": 0.3700787401574803
        },
        {
          "duration": 0.3604651162790695,
          "durationTicks": 31,
          "midi": 79,
          "name": "G5",
          "ticks": 1977,
          "time": 22.988372093023255,
          "velocity": 0.15748031496062992
        },
        {
          "duration": 0.03488372093023173,
          "durationTicks": 3,
          "midi": 100,
          "name": "E7",
          "ticks": 1977,
          "time": 22.988372093023255,
          "velocity": 0.10236220472440945
        },
        {
          "duration": 0.02325581395349019,
          "durationTicks": 2,
          "midi": 65,
          "name": "F4",
          "ticks": 1985,
          "time": 23.08139534883721,
          "velocity": 0.47244094488188976
        },
        {
          "duration": 0.08139534883720856,
          "durationTicks": 7,
          "midi": 69,
          "name": "A4",
          "ticks": 1985,
          "time": 23.08139534883721,
          "velocity": 0.14960629921259844
        },
        {
          "duration": 0.02325581395349019,
          "durationTicks": 2,
          "midi": 65,
          "name": "F4",
          "ticks": 1989,
          "time": 23.127906976744185,
          "velocity": 0.44881889763779526
        },
        {
          "duration": 0.27906976744186096,
          "durationTicks": 24,
          "midi": 69,
          "name": "A4",
          "ticks": 1993,
          "time": 23.174418604651162,
          "velocity": 0.12598425196850394
        },
        {
          "duration": 0.08139534883720856,
          "durationTicks": 7,
          "midi": 95,
          "name": "B6",
          "ticks": 2001,
          "time": 23.267441860465116,
          "velocity": 0.07086614173228346
        },
        {
          "duration": 0.3604651162790695,
          "durationTicks": 31,
          "midi": 76,
          "name": "E5",
          "ticks": 2052,
          "time": 23.86046511627907,
          "velocity": 0.4881889763779528
        },
        {
          "duration": 0.33720930232557933,
          "durationTicks": 29,
          "midi": 72,
          "name": "C5",
          "ticks": 2053,
          "time": 23.872093023255815,
          "velocity": 0.5196850393700787
        },
        {
          "duration": 0.38372093023255616,
          "durationTicks": 33,
          "midi": 83,
          "name": "B5",
          "ticks": 2053,
          "time": 23.872093023255815,
          "velocity": 0.2283464566929134
        },
        {
          "duration": 0.3604651162790695,
          "durationTicks": 31,
          "midi": 92,
          "name": "G#6",
          "ticks": 2053,
          "time": 23.872093023255815,
          "velocity": 0.15748031496062992
        },
        {
          "duration": 0.33720930232557933,
          "durationTicks": 29,
          "midi": 60,
          "name": "C4",
          "ticks": 2054,
          "time": 23.88372093023256,
          "velocity": 0.5196850393700787
        },
        {
          "duration": 0.32558139534883423,
          "durationTicks": 28,
          "midi": 64,
          "name": "E4",
          "ticks": 2054,
          "time": 23.88372093023256,
          "velocity": 0.48031496062992124
        },
        {
          "duration": 0.3488372093023244,
          "durationTicks": 30,
          "midi": 79,
          "name": "G5",
          "ticks": 2054,
          "time": 23.88372093023256,
          "velocity": 0.2440944881889764
        },
        {
          "duration": 0.09302325581395365,
          "durationTicks": 8,
          "midi": 94,
          "name": "A#6",
          "ticks": 2054,
          "time": 23.88372093023256,
          "velocity": 0.09448818897637795
        },
        {
          "duration": 0.13953488372092693,
          "durationTicks": 12,
          "midi": 96,
          "name": "C7",
          "ticks": 2054,
          "time": 23.88372093023256,
          "velocity": 0.11023622047244094
        },
        {
          "duration": 0.3139534883720927,
          "durationTicks": 27,
          "midi": 52,
          "name": "E3",
          "ticks": 2055,
          "time": 23.8953488372093,
          "velocity": 0.1732283464566929
        },
        {
          "duration": 0.08139534883721211,
          "durationTicks": 7,
          "midi": 98,
          "name": "D7",
          "ticks": 2055,
          "time": 23.8953488372093,
          "velocity": 0.07874015748031496
        },
        {
          "duration": 0.3372093023255829,
          "durationTicks": 29,
          "midi": 69,
          "name": "A4",
          "ticks": 2082,
          "time": 24.209302325581394,
          "velocity": 0.4645669291338583
        },
        {
          "duration": 0.3372093023255829,
          "durationTicks": 29,
          "midi": 74,
          "name": "D5",
          "ticks": 2082,
          "time": 24.209302325581394,
          "velocity": 0.5039370078740157
        },
        {
          "duration": 0.1976744186046524,
          "durationTicks": 17,
          "midi": 85,
          "name": "C#6",
          "ticks": 2082,
          "time": 24.209302325581394,
          "velocity": 0.1968503937007874
        },
        {
          "duration": 0.3255813953488378,
          "durationTicks": 28,
          "midi": 57,
          "name": "A3",
          "ticks": 2083,
          "time": 24.22093023255814,
          "velocity": 0.4015748031496063
        },
        {
          "duration": 0.27906976744186096,
          "durationTicks": 24,
          "midi": 90,
          "name": "F#6",
          "ticks": 2083,
          "time": 24.22093023255814,
          "velocity": 0.13385826771653545
        },
        {
          "duration": 0.11627906976744384,
          "durationTicks": 10,
          "midi": 98,
          "name": "D7",
          "ticks": 2083,
          "time": 24.22093023255814,
          "velocity": 0.11023622047244094
        },
        {
          "duration": 0.3255813953488378,
          "durationTicks": 28,
          "midi": 62,
          "name": "D4",
          "ticks": 2084,
          "time": 24.232558139534884,
          "velocity": 0.5118110236220472
        },
        {
          "duration": 0.20930232558139394,
          "durationTicks": 18,
          "midi": 76,
          "name": "E5",
          "ticks": 2084,
          "time": 24.232558139534884,
          "velocity": 0.1968503937007874
        },
        {
          "duration": 0.08139534883720856,
          "durationTicks": 7,
          "midi": 91,
          "name": "G6",
          "ticks": 2084,
          "time": 24.232558139534884,
          "velocity": 0.12598425196850394
        },
        {
          "duration": 0.05813953488371837,
          "durationTicks": 5,
          "midi": 96,
          "name": "C7",
          "ticks": 2085,
          "time": 24.24418604651163,
          "velocity": 0.07086614173228346
        },
        {
          "duration": 0.03488372093023173,
          "durationTicks": 3,
          "midi": 72,
          "name": "C5",
          "ticks": 2088,
          "time": 24.27906976744186,
          "velocity": 0.09448818897637795
        },
        {
          "duration": 0.2906976744186025,
          "durationTicks": 25,
          "midi": 45,
          "name": "A2",
          "ticks": 2089,
          "time": 24.290697674418606,
          "velocity": 0.2125984251968504
        },
        {
          "duration": 0.3488372093023244,
          "durationTicks": 30,
          "midi": 72,
          "name": "C5",
          "ticks": 2111,
          "time": 24.546511627906977,
          "velocity": 0.5118110236220472
        },
        {
          "duration": 0.26744186046511587,
          "durationTicks": 23,
          "midi": 79,
          "name": "G5",
          "ticks": 2111,
          "time": 24.546511627906977,
          "velocity": 0.2204724409448819
        },
        {
          "duration": 0.26744186046511587,
          "durationTicks": 23,
          "midi": 88,
          "name": "E6",
          "ticks": 2111,
          "time": 24.546511627906977,
          "velocity": 0.16535433070866143
        },
        {
          "duration": 0.24418604651162568,
          "durationTicks": 21,
          "midi": 60,
          "name": "C4",
          "ticks": 2112,
          "time": 24.558139534883722,
          "velocity": 0.5196850393700787
        },
        {
          "duration": 0.03488372093023173,
          "durationTicks": 3,
          "midi": 67,
          "name": "G4",
          "ticks": 2112,
          "time": 24.558139534883722,
          "velocity": 0.12598425196850394
        },
        {
          "duration": 0.09302325581395365,
          "durationTicks": 8,
          "midi": 94,
          "name": "A#6",
          "ticks": 2112,
          "time": 24.558139534883722,
          "velocity": 0.08661417322834646
        },
        {
          "duration": 0.09302325581395365,
          "durationTicks": 8,
          "midi": 96,
          "name": "C7",
          "ticks": 2113,
          "time": 24.569767441860463,
          "velocity": 0.09448818897637795
        },
        {
          "duration": 0.1976744186046524,
          "durationTicks": 17,
          "midi": 45,
          "name": "A2",
          "ticks": 2115,
          "time": 24.593023255813954,
          "velocity": 0.1732283464566929
        },
        {
          "duration": 0.6976744186046488,
          "durationTicks": 60,
          "midi": 69,
          "name": "A4",
          "ticks": 2132,
          "time": 24.790697674418606,
          "velocity": 0.4645669291338583
        },
        {
          "duration": 0.1976744186046524,
          "durationTicks": 17,
          "midi": 57,
          "name": "A3",
          "ticks": 2133,
          "time": 24.802325581395348,
          "velocity": 0.41732283464566927
        },
        {
          "duration": 0.6860465116279073,
          "durationTicks": 59,
          "midi": 66,
          "name": "F#4",
          "ticks": 2133,
          "time": 24.802325581395348,
          "velocity": 0.2047244094488189
        },
        {
          "duration": 0.15116279069767558,
          "durationTicks": 13,
          "midi": 85,
          "name": "C#6",
          "ticks": 2133,
          "time": 24.802325581395348,
          "velocity": 0.2047244094488189
        },
        {
          "duration": 0.04651162790697683,
          "durationTicks": 4,
          "midi": 90,
          "name": "F#6",
          "ticks": 2133,
          "time": 24.802325581395348,
          "velocity": 0.10236220472440945
        },
        {
          "duration": 0.1860465116279073,
          "durationTicks": 16,
          "midi": 95,
          "name": "B6",
          "ticks": 2133,
          "time": 24.802325581395348,
          "velocity": 0.12598425196850394
        },
        {
          "duration": 0.20930232558139394,
          "durationTicks": 18,
          "midi": 50,
          "name": "D3",
          "ticks": 2134,
          "time": 24.813953488372093,
          "velocity": 0.47244094488188976
        },
        {
          "duration": 0.02325581395349019,
          "durationTicks": 2,
          "midi": 61,
          "name": "C#4",
          "ticks": 2134,
          "time": 24.813953488372093,
          "velocity": 0.3228346456692913
        },
        {
          "duration": 0.03488372093023173,
          "durationTicks": 3,
          "midi": 39,
          "name": "D#2",
          "ticks": 2135,
          "time": 24.825581395348838,
          "velocity": 0.44881889763779526
        },
        {
          "duration": 0.034883720930235285,
          "durationTicks": 3,
          "midi": 88,
          "name": "E6",
          "ticks": 2137,
          "time": 24.848837209302324,
          "velocity": 0.07874015748031496
        },
        {
          "duration": 0.09302325581395365,
          "durationTicks": 8,
          "midi": 38,
          "name": "D2",
          "ticks": 2138,
          "time": 24.86046511627907,
          "velocity": 0.3937007874015748
        },
        {
          "duration": 0.15116279069767558,
          "durationTicks": 13,
          "midi": 76,
          "name": "E5",
          "ticks": 2138,
          "time": 24.86046511627907,
          "velocity": 0.09448818897637795
        },
        {
          "duration": 0.1046511627906952,
          "durationTicks": 9,
          "midi": 72,
          "name": "C5",
          "ticks": 2143,
          "time": 24.91860465116279,
          "velocity": 0.12598425196850394
        },
        {
          "duration": 0.02325581395349019,
          "durationTicks": 2,
          "midi": 37,
          "name": "C#2",
          "ticks": 2146,
          "time": 24.953488372093023,
          "velocity": 0.2440944881889764
        },
        {
          "duration": 0.06976744186046346,
          "durationTicks": 6,
          "midi": 38,
          "name": "D2",
          "ticks": 2148,
          "time": 24.976744186046513,
          "velocity": 0.30708661417322836
        },
        {
          "duration": 0.03488372093023173,
          "durationTicks": 3,
          "midi": 56,
          "name": "G#3",
          "ticks": 2150,
          "time": 25,
          "velocity": 0.4094488188976378
        },
        {
          "duration": 0.3023255813953476,
          "durationTicks": 26,
          "midi": 85,
          "name": "C#6",
          "ticks": 2151,
          "time": 25.011627906976745,
          "velocity": 0.25984251968503935
        },
        {
          "duration": 0.10465116279069875,
          "durationTicks": 9,
          "midi": 62,
          "name": "D4",
          "ticks": 2152,
          "time": 25.023255813953487,
          "velocity": 0.18110236220472442
        },
        {
          "duration": 0.08139534883721211,
          "durationTicks": 7,
          "midi": 93,
          "name": "A6",
          "ticks": 2152,
          "time": 25.023255813953487,
          "velocity": 0.12598425196850394
        },
        {
          "duration": 0.09302325581395365,
          "durationTicks": 8,
          "midi": 57,
          "name": "A3",
          "ticks": 2153,
          "time": 25.03488372093023,
          "velocity": 0.3700787401574803
        },
        {
          "duration": 0.023255813953486637,
          "durationTicks": 2,
          "midi": 39,
          "name": "D#2",
          "ticks": 2154,
          "time": 25.046511627906977,
          "velocity": 0.3464566929133858
        },
        {
          "duration": 0.08139534883720856,
          "durationTicks": 7,
          "midi": 91,
          "name": "G6",
          "ticks": 2154,
          "time": 25.046511627906977,
          "velocity": 0.07874015748031496
        },
        {
          "duration": 0.23255813953488413,
          "durationTicks": 20,
          "midi": 95,
          "name": "B6",
          "ticks": 2154,
          "time": 25.046511627906977,
          "velocity": 0.16535433070866143
        },
        {
          "duration": 0.08139534883720856,
          "durationTicks": 7,
          "midi": 50,
          "name": "D3",
          "ticks": 2155,
          "time": 25.058139534883722,
          "velocity": 0.29133858267716534
        },
        {
          "duration": 0.034883720930235285,
          "durationTicks": 3,
          "midi": 38,
          "name": "D2",
          "ticks": 2156,
          "time": 25.069767441860463,
          "velocity": 0.2992125984251969
        },
        {
          "duration": 0.02325581395349019,
          "durationTicks": 2,
          "midi": 38,
          "name": "D2",
          "ticks": 2160,
          "time": 25.11627906976744,
          "velocity": 0.28346456692913385
        },
        {
          "duration": 0.11627906976744384,
          "durationTicks": 10,
          "midi": 88,
          "name": "E6",
          "ticks": 2161,
          "time": 25.127906976744185,
          "velocity": 0.11023622047244094
        },
        {
          "duration": 0.023255813953486637,
          "durationTicks": 2,
          "midi": 39,
          "name": "D#2",
          "ticks": 2162,
          "time": 25.13953488372093,
          "velocity": 0.28346456692913385
        },
        {
          "duration": 0.6744186046511622,
          "durationTicks": 58,
          "midi": 62,
          "name": "D4",
          "ticks": 2162,
          "time": 25.13953488372093,
          "velocity": 0.47244094488188976
        },
        {
          "duration": 0.023255813953486637,
          "durationTicks": 2,
          "midi": 56,
          "name": "G#3",
          "ticks": 2163,
          "time": 25.151162790697676,
          "velocity": 0.3543307086614173
        },
        {
          "duration": 0.08139534883721211,
          "durationTicks": 7,
          "midi": 91,
          "name": "G6",
          "ticks": 2164,
          "time": 25.162790697674417,
          "velocity": 0.12598425196850394
        },
        {
          "duration": 0.06976744186046702,
          "durationTicks": 6,
          "midi": 50,
          "name": "D3",
          "ticks": 2165,
          "time": 25.174418604651162,
          "velocity": 0.2440944881889764
        },
        {
          "duration": 0.12790697674418539,
          "durationTicks": 11,
          "midi": 57,
          "name": "A3",
          "ticks": 2165,
          "time": 25.174418604651162,
          "velocity": 0.23622047244094488
        },
        {
          "duration": 0.023255813953486637,
          "durationTicks": 2,
          "midi": 39,
          "name": "D#2",
          "ticks": 2167,
          "time": 25.197674418604652,
          "velocity": 0.2677165354330709
        },
        {
          "duration": 0.023255813953486637,
          "durationTicks": 2,
          "midi": 37,
          "name": "C#2",
          "ticks": 2170,
          "time": 25.232558139534884,
          "velocity": 0.2283464566929134
        },
        {
          "duration": 0.23255813953488413,
          "durationTicks": 20,
          "midi": 50,
          "name": "D3",
          "ticks": 2172,
          "time": 25.25581395348837,
          "velocity": 0.5354330708661418
        },
        {
          "duration": 0.13953488372093048,
          "durationTicks": 12,
          "midi": 84,
          "name": "C6",
          "ticks": 2173,
          "time": 25.267441860465116,
          "velocity": 0.2047244094488189
        },
        {
          "duration": 0.023255813953486637,
          "durationTicks": 2,
          "midi": 39,
          "name": "D#2",
          "ticks": 2174,
          "time": 25.27906976744186,
          "velocity": 0.2992125984251969
        },
        {
          "duration": 0.034883720930235285,
          "durationTicks": 3,
          "midi": 38,
          "name": "D2",
          "ticks": 2176,
          "time": 25.302325581395348,
          "velocity": 0.2755905511811024
        },
        {
          "duration": 0.15116279069767558,
          "durationTicks": 13,
          "midi": 57,
          "name": "A3",
          "ticks": 2177,
          "time": 25.313953488372093,
          "velocity": 0.07874015748031496
        },
        {
          "duration": 0.12790697674418894,
          "durationTicks": 11,
          "midi": 38,
          "name": "D2",
          "ticks": 2180,
          "time": 25.348837209302324,
          "velocity": 0.2125984251968504
        },
        {
          "duration": 0.10465116279069875,
          "durationTicks": 9,
          "midi": 55,
          "name": "G3",
          "ticks": 2192,
          "time": 25.488372093023255,
          "velocity": 0.41732283464566927
        },
        {
          "duration": 0.11627906976744384,
          "durationTicks": 10,
          "midi": 67,
          "name": "G4",
          "ticks": 2192,
          "time": 25.488372093023255,
          "velocity": 0.4330708661417323
        },
        {
          "duration": 0.3372093023255829,
          "durationTicks": 29,
          "midi": 83,
          "name": "B5",
          "ticks": 2192,
          "time": 25.488372093023255,
          "velocity": 0.2204724409448819
        },
        {
          "duration": 0.09302325581395365,
          "durationTicks": 8,
          "midi": 50,
          "name": "D3",
          "ticks": 2193,
          "time": 25.5,
          "velocity": 0.33858267716535434
        },
        {
          "duration": 0.23255813953488413,
          "durationTicks": 20,
          "midi": 89,
          "name": "F6",
          "ticks": 2194,
          "time": 25.511627906976745,
          "velocity": 0.14960629921259844
        },
        {
          "duration": 0.06976744186046702,
          "durationTicks": 6,
          "midi": 93,
          "name": "A6",
          "ticks": 2195,
          "time": 25.523255813953487,
          "velocity": 0.10236220472440945
        },
        {
          "duration": 0.06976744186046702,
          "durationTicks": 6,
          "midi": 38,
          "name": "D2",
          "ticks": 2196,
          "time": 25.53488372093023,
          "velocity": 0.25984251968503935
        },
        {
          "duration": 0.22093023255813904,
          "durationTicks": 19,
          "midi": 55,
          "name": "G3",
          "ticks": 2202,
          "time": 25.6046511627907,
          "velocity": 0.4330708661417323
        },
        {
          "duration": 0.023255813953486637,
          "durationTicks": 2,
          "midi": 68,
          "name": "G#4",
          "ticks": 2202,
          "time": 25.6046511627907,
          "velocity": 0.3858267716535433
        },
        {
          "duration": 0.02325581395349019,
          "durationTicks": 2,
          "midi": 39,
          "name": "D#2",
          "ticks": 2203,
          "time": 25.61627906976744,
          "velocity": 0.2677165354330709
        },
        {
          "duration": 0.13953488372093048,
          "durationTicks": 12,
          "midi": 86,
          "name": "D6",
          "ticks": 2203,
          "time": 25.61627906976744,
          "velocity": 0.09448818897637795
        },
        {
          "duration": 0.05813953488372192,
          "durationTicks": 5,
          "midi": 38,
          "name": "D2",
          "ticks": 2205,
          "time": 25.63953488372093,
          "velocity": 0.2125984251968504
        },
        {
          "duration": 0.11627906976744384,
          "durationTicks": 10,
          "midi": 38,
          "name": "D2",
          "ticks": 2211,
          "time": 25.709302325581394,
          "velocity": 0.18110236220472442
        },
        {
          "duration": 0.03488372093023173,
          "durationTicks": 3,
          "midi": 74,
          "name": "D5",
          "ticks": 2221,
          "time": 25.825581395348838,
          "velocity": 0.09448818897637795
        },
        {
          "duration": 0.5697674418604635,
          "durationTicks": 49,
          "midi": 69,
          "name": "A4",
          "ticks": 2222,
          "time": 25.837209302325583,
          "velocity": 0.47244094488188976
        },
        {
          "duration": 0.38372093023255616,
          "durationTicks": 33,
          "midi": 85,
          "name": "C#6",
          "ticks": 2222,
          "time": 25.837209302325583,
          "velocity": 0.23622047244094488
        },
        {
          "duration": 0.3604651162790695,
          "durationTicks": 31,
          "midi": 95,
          "name": "B6",
          "ticks": 2223,
          "time": 25.848837209302324,
          "velocity": 0.1889763779527559
        },
        {
          "duration": 0.06976744186046702,
          "durationTicks": 6,
          "midi": 62,
          "name": "D4",
          "ticks": 2224,
          "time": 25.86046511627907,
          "velocity": 0.11811023622047244
        },
        {
          "duration": 0.03488372093023173,
          "durationTicks": 3,
          "midi": 39,
          "name": "D#2",
          "ticks": 2226,
          "time": 25.88372093023256,
          "velocity": 0.23622047244094488
        },
        {
          "duration": 0.4534883720930232,
          "durationTicks": 39,
          "midi": 57,
          "name": "A3",
          "ticks": 2226,
          "time": 25.88372093023256,
          "velocity": 0.4645669291338583
        },
        {
          "duration": 0.06976744186046346,
          "durationTicks": 6,
          "midi": 76,
          "name": "E5",
          "ticks": 2230,
          "time": 25.930232558139537,
          "velocity": 0.10236220472440945
        },
        {
          "duration": 0.023255813953486637,
          "durationTicks": 2,
          "midi": 40,
          "name": "E2",
          "ticks": 2233,
          "time": 25.96511627906977,
          "velocity": 0.2677165354330709
        },
        {
          "duration": 0.05813953488372192,
          "durationTicks": 5,
          "midi": 91,
          "name": "G6",
          "ticks": 2244,
          "time": 26.093023255813954,
          "velocity": 0.07086614173228346
        },
        {
          "duration": 0.02325581395349019,
          "durationTicks": 2,
          "midi": 39,
          "name": "D#2",
          "ticks": 2246,
          "time": 26.11627906976744,
          "velocity": 0.2283464566929134
        },
        {
          "duration": 0.25581395348837077,
          "durationTicks": 22,
          "midi": 50,
          "name": "D3",
          "ticks": 2249,
          "time": 26.151162790697676,
          "velocity": 0.5196850393700787
        },
        {
          "duration": 0.24418604651162923,
          "durationTicks": 21,
          "midi": 84,
          "name": "C6",
          "ticks": 2250,
          "time": 26.162790697674417,
          "velocity": 0.1732283464566929
        },
        {
          "duration": 0.23255813953488413,
          "durationTicks": 20,
          "midi": 88,
          "name": "E6",
          "ticks": 2250,
          "time": 26.162790697674417,
          "velocity": 0.11811023622047244
        },
        {
          "duration": 0.22093023255813904,
          "durationTicks": 19,
          "midi": 78,
          "name": "F#5",
          "ticks": 2251,
          "time": 26.174418604651162,
          "velocity": 0.15748031496062992
        },
        {
          "duration": 0.04651162790697683,
          "durationTicks": 4,
          "midi": 39,
          "name": "D#2",
          "ticks": 2252,
          "time": 26.186046511627907,
          "velocity": 0.23622047244094488
        },
        {
          "duration": 0.1046511627906952,
          "durationTicks": 9,
          "midi": 38,
          "name": "D2",
          "ticks": 2261,
          "time": 26.290697674418606,
          "velocity": 0.11811023622047244
        },
        {
          "duration": 0.3372093023255829,
          "durationTicks": 29,
          "midi": 67,
          "name": "G4",
          "ticks": 2270,
          "time": 26.3953488372093,
          "velocity": 0.47244094488188976
        },
        {
          "duration": 0.09302325581395365,
          "durationTicks": 8,
          "midi": 55,
          "name": "G3",
          "ticks": 2271,
          "time": 26.406976744186046,
          "velocity": 0.41732283464566927
        },
        {
          "duration": 0.3139534883720927,
          "durationTicks": 27,
          "midi": 83,
          "name": "B5",
          "ticks": 2271,
          "time": 26.406976744186046,
          "velocity": 0.16535433070866143
        },
        {
          "duration": 0.04651162790697683,
          "durationTicks": 4,
          "midi": 50,
          "name": "D3",
          "ticks": 2272,
          "time": 26.41860465116279,
          "velocity": 0.33070866141732286
        },
        {
          "duration": 0.22093023255813904,
          "durationTicks": 19,
          "midi": 89,
          "name": "F6",
          "ticks": 2273,
          "time": 26.430232558139537,
          "velocity": 0.15748031496062992
        },
        {
          "duration": 0.05813953488372192,
          "durationTicks": 5,
          "midi": 38,
          "name": "D2",
          "ticks": 2275,
          "time": 26.453488372093023,
          "velocity": 0.2283464566929134
        },
        {
          "duration": 0.23255813953488413,
          "durationTicks": 20,
          "midi": 93,
          "name": "A6",
          "ticks": 2278,
          "time": 26.488372093023255,
          "velocity": 0.1889763779527559
        },
        {
          "duration": 0.02325581395349019,
          "durationTicks": 2,
          "midi": 39,
          "name": "D#2",
          "ticks": 2281,
          "time": 26.523255813953487,
          "velocity": 0.25196850393700787
        },
        {
          "duration": 0.05813953488372192,
          "durationTicks": 5,
          "midi": 38,
          "name": "D2",
          "ticks": 2283,
          "time": 26.546511627906977,
          "velocity": 0.1732283464566929
        },
        {
          "duration": 0.1744186046511622,
          "durationTicks": 15,
          "midi": 55,
          "name": "G3",
          "ticks": 2284,
          "time": 26.558139534883722,
          "velocity": 0.2204724409448819
        },
        {
          "duration": 0.08139534883720856,
          "durationTicks": 7,
          "midi": 38,
          "name": "D2",
          "ticks": 2291,
          "time": 26.63953488372093,
          "velocity": 0.08661417322834646
        },
        {
          "duration": 0.5930232558139537,
          "durationTicks": 51,
          "midi": 69,
          "name": "A4",
          "ticks": 2299,
          "time": 26.732558139534884,
          "velocity": 0.4645669291338583
        },
        {
          "duration": 0.03488372093023173,
          "durationTicks": 3,
          "midi": 57,
          "name": "A3",
          "ticks": 2300,
          "time": 26.74418604651163,
          "velocity": 0.41732283464566927
        },
        {
          "duration": 0.38372093023255616,
          "durationTicks": 33,
          "midi": 85,
          "name": "C#6",
          "ticks": 2300,
          "time": 26.74418604651163,
          "velocity": 0.25984251968503935
        },
        {
          "duration": 0.3720930232558146,
          "durationTicks": 32,
          "midi": 95,
          "name": "B6",
          "ticks": 2301,
          "time": 26.75581395348837,
          "velocity": 0.2047244094488189
        },
        {
          "duration": 0.03488372093023173,
          "durationTicks": 3,
          "midi": 40,
          "name": "E2",
          "ticks": 2304,
          "time": 26.790697674418606,
          "velocity": 0.1889763779527559
        },
        {
          "duration": 0.05813953488371837,
          "durationTicks": 5,
          "midi": 57,
          "name": "A3",
          "ticks": 2304,
          "time": 26.790697674418606,
          "velocity": 0.31496062992125984
        },
        {
          "duration": 0.02325581395349019,
          "durationTicks": 2,
          "midi": 56,
          "name": "G#3",
          "ticks": 2310,
          "time": 26.86046511627907,
          "velocity": 0.3700787401574803
        },
        {
          "duration": 0.06976744186046702,
          "durationTicks": 6,
          "midi": 88,
          "name": "E6",
          "ticks": 2310,
          "time": 26.86046511627907,
          "velocity": 0.09448818897637795
        },
        {
          "duration": 0.03488372093023173,
          "durationTicks": 3,
          "midi": 40,
          "name": "E2",
          "ticks": 2311,
          "time": 26.872093023255815,
          "velocity": 0.23622047244094488
        },
        {
          "duration": 0.3023255813953476,
          "durationTicks": 26,
          "midi": 57,
          "name": "A3",
          "ticks": 2314,
          "time": 26.906976744186046,
          "velocity": 0.44881889763779526
        },
        {
          "duration": 0.04651162790697683,
          "durationTicks": 4,
          "midi": 76,
          "name": "E5",
          "ticks": 2321,
          "time": 26.988372093023255,
          "velocity": 0.11023622047244094
        },
        {
          "duration": 0.05813953488371837,
          "durationTicks": 5,
          "midi": 91,
          "name": "G6",
          "ticks": 2323,
          "time": 27.011627906976745,
          "velocity": 0.07874015748031496
        },
        {
          "duration": 0.2093023255813975,
          "durationTicks": 18,
          "midi": 88,
          "name": "E6",
          "ticks": 2328,
          "time": 27.069767441860463,
          "velocity": 0.12598425196850394
        },
        {
          "duration": 0.24418604651162923,
          "durationTicks": 21,
          "midi": 50,
          "name": "D3",
          "ticks": 2329,
          "time": 27.08139534883721,
          "velocity": 0.5196850393700787
        },
        {
          "duration": 0.2558139534883743,
          "durationTicks": 22,
          "midi": 78,
          "name": "F#5",
          "ticks": 2329,
          "time": 27.08139534883721,
          "velocity": 0.14960629921259844
        },
        {
          "duration": 0.22093023255813904,
          "durationTicks": 19,
          "midi": 84,
          "name": "C6",
          "ticks": 2329,
          "time": 27.08139534883721,
          "velocity": 0.15748031496062992
        },
        {
          "duration": 0.348837209302328,
          "durationTicks": 30,
          "midi": 93,
          "name": "A6",
          "ticks": 2329,
          "time": 27.08139534883721,
          "velocity": 0.15748031496062992
        },
        {
          "duration": 0.034883720930235285,
          "durationTicks": 3,
          "midi": 39,
          "name": "D#2",
          "ticks": 2332,
          "time": 27.11627906976744,
          "velocity": 0.1732283464566929
        },
        {
          "duration": 0.12790697674418539,
          "durationTicks": 11,
          "midi": 67,
          "name": "G4",
          "ticks": 2349,
          "time": 27.313953488372093,
          "velocity": 0.4330708661417323
        },
        {
          "duration": 0.03488372093023173,
          "durationTicks": 3,
          "midi": 55,
          "name": "G3",
          "ticks": 2350,
          "time": 27.325581395348838,
          "velocity": 0.4251968503937008
        },
        {
          "duration": 0.33720930232557933,
          "durationTicks": 29,
          "midi": 83,
          "name": "B5",
          "ticks": 2350,
          "time": 27.325581395348838,
          "velocity": 0.2283464566929134
        },
        {
          "duration": 0.23255813953488413,
          "durationTicks": 20,
          "midi": 89,
          "name": "F6",
          "ticks": 2352,
          "time": 27.348837209302324,
          "velocity": 0.15748031496062992
        },
        {
          "duration": 0.03488372093023173,
          "durationTicks": 3,
          "midi": 50,
          "name": "D3",
          "ticks": 2353,
          "time": 27.36046511627907,
          "velocity": 0.23622047244094488
        },
        {
          "duration": 0.05813953488372192,
          "durationTicks": 5,
          "midi": 38,
          "name": "D2",
          "ticks": 2354,
          "time": 27.372093023255815,
          "velocity": 0.1889763779527559
        },
        {
          "duration": 0.05813953488372192,
          "durationTicks": 5,
          "midi": 55,
          "name": "G3",
          "ticks": 2354,
          "time": 27.372093023255815,
          "velocity": 0.28346456692913385
        },
        {
          "duration": 0.22093023255813904,
          "durationTicks": 19,
          "midi": 55,
          "name": "G3",
          "ticks": 2360,
          "time": 27.441860465116278,
          "velocity": 0.4251968503937008
        },
        {
          "duration": 0.02325581395349019,
          "durationTicks": 2,
          "midi": 68,
          "name": "G#4",
          "ticks": 2360,
          "time": 27.441860465116278,
          "velocity": 0.3858267716535433
        },
        {
          "duration": 0.13953488372093048,
          "durationTicks": 12,
          "midi": 86,
          "name": "D6",
          "ticks": 2360,
          "time": 27.441860465116278,
          "velocity": 0.10236220472440945
        },
        {
          "duration": 0.02325581395349019,
          "durationTicks": 2,
          "midi": 56,
          "name": "G#3",
          "ticks": 2379,
          "time": 27.662790697674417,
          "velocity": 0.4409448818897638
        },
        {
          "duration": 0.3604651162790695,
          "durationTicks": 31,
          "midi": 69,
          "name": "A4",
          "ticks": 2379,
          "time": 27.662790697674417,
          "velocity": 0.4645669291338583
        },
        {
          "duration": 0.3255813953488378,
          "durationTicks": 28,
          "midi": 85,
          "name": "C#6",
          "ticks": 2379,
          "time": 27.662790697674417,
          "velocity": 0.25984251968503935
        },
        {
          "duration": 0.30232558139535115,
          "durationTicks": 26,
          "midi": 95,
          "name": "B6",
          "ticks": 2380,
          "time": 27.674418604651162,
          "velocity": 0.1732283464566929
        },
        {
          "duration": 0.08139534883720856,
          "durationTicks": 7,
          "midi": 57,
          "name": "A3",
          "ticks": 2381,
          "time": 27.686046511627907,
          "velocity": 0.2992125984251969
        },
        {
          "duration": 0.02325581395349019,
          "durationTicks": 2,
          "midi": 56,
          "name": "G#3",
          "ticks": 2388,
          "time": 27.767441860465116,
          "velocity": 0.36220472440944884
        },
        {
          "duration": 0.08139534883720856,
          "durationTicks": 7,
          "midi": 88,
          "name": "E6",
          "ticks": 2389,
          "time": 27.77906976744186,
          "velocity": 0.09448818897637795
        },
        {
          "duration": 0.023255813953486637,
          "durationTicks": 2,
          "midi": 57,
          "name": "A3",
          "ticks": 2390,
          "time": 27.790697674418606,
          "velocity": 0.33070866141732286
        },
        {
          "duration": 0.08139534883721211,
          "durationTicks": 7,
          "midi": 91,
          "name": "G6",
          "ticks": 2391,
          "time": 27.802325581395348,
          "velocity": 0.10236220472440945
        },
        {
          "duration": 0.19767441860464885,
          "durationTicks": 17,
          "midi": 57,
          "name": "A3",
          "ticks": 2393,
          "time": 27.825581395348838,
          "velocity": 0.36220472440944884
        },
        {
          "duration": 0.12790697674418539,
          "durationTicks": 11,
          "midi": 72,
          "name": "C5",
          "ticks": 2409,
          "time": 28.011627906976745,
          "velocity": 0.5118110236220472
        },
        {
          "duration": 0.16279069767441712,
          "durationTicks": 14,
          "midi": 88,
          "name": "E6",
          "ticks": 2409,
          "time": 28.011627906976745,
          "velocity": 0.16535433070866143
        },
        {
          "duration": 0.1860465116279073,
          "durationTicks": 16,
          "midi": 60,
          "name": "C4",
          "ticks": 2410,
          "time": 28.023255813953487,
          "velocity": 0.5196850393700787
        },
        {
          "duration": 0.16279069767442067,
          "durationTicks": 14,
          "midi": 79,
          "name": "G5",
          "ticks": 2410,
          "time": 28.023255813953487,
          "velocity": 0.2283464566929134
        },
        {
          "duration": 0.11627906976744384,
          "durationTicks": 10,
          "midi": 94,
          "name": "A#6",
          "ticks": 2410,
          "time": 28.023255813953487,
          "velocity": 0.08661417322834646
        },
        {
          "duration": 0.10465116279069875,
          "durationTicks": 9,
          "midi": 96,
          "name": "C7",
          "ticks": 2410,
          "time": 28.023255813953487,
          "velocity": 0.10236220472440945
        },
        {
          "duration": 0.03488372093023173,
          "durationTicks": 3,
          "midi": 38,
          "name": "D2",
          "ticks": 2412,
          "time": 28.046511627906977,
          "velocity": 0.13385826771653545
        },
        {
          "duration": 0.03488372093023173,
          "durationTicks": 3,
          "midi": 69,
          "name": "A4",
          "ticks": 2412,
          "time": 28.046511627906977,
          "velocity": 0.13385826771653545
        },
        {
          "duration": 0.10465116279069875,
          "durationTicks": 9,
          "midi": 71,
          "name": "B4",
          "ticks": 2419,
          "time": 28.127906976744185,
          "velocity": 0.4330708661417323
        },
        {
          "duration": 0.13953488372093048,
          "durationTicks": 12,
          "midi": 87,
          "name": "D#6",
          "ticks": 2419,
          "time": 28.127906976744185,
          "velocity": 0.18110236220472442
        },
        {
          "duration": 0.13953488372093048,
          "durationTicks": 12,
          "midi": 97,
          "name": "C#7",
          "ticks": 2419,
          "time": 28.127906976744185,
          "velocity": 0.12598425196850394
        },
        {
          "duration": 0.12790697674418539,
          "durationTicks": 11,
          "midi": 93,
          "name": "A6",
          "ticks": 2420,
          "time": 28.13953488372093,
          "velocity": 0.09448818897637795
        },
        {
          "duration": 0.02325581395349019,
          "durationTicks": 2,
          "midi": 59,
          "name": "B3",
          "ticks": 2426,
          "time": 28.209302325581394,
          "velocity": 0.3858267716535433
        },
        {
          "duration": 0.03488372093023173,
          "durationTicks": 3,
          "midi": 57,
          "name": "A3",
          "ticks": 2428,
          "time": 28.232558139534884,
          "velocity": 0.41732283464566927
        },
        {
          "duration": 0.12790697674418539,
          "durationTicks": 11,
          "midi": 69,
          "name": "A4",
          "ticks": 2428,
          "time": 28.232558139534884,
          "velocity": 0.4409448818897638
        },
        {
          "duration": 0.16279069767441712,
          "durationTicks": 14,
          "midi": 85,
          "name": "C#6",
          "ticks": 2428,
          "time": 28.232558139534884,
          "velocity": 0.1889763779527559
        },
        {
          "duration": 0.16279069767441712,
          "durationTicks": 14,
          "midi": 91,
          "name": "G6",
          "ticks": 2429,
          "time": 28.24418604651163,
          "velocity": 0.11023622047244094
        },
        {
          "duration": 0.06976744186046346,
          "durationTicks": 6,
          "midi": 57,
          "name": "A3",
          "ticks": 2432,
          "time": 28.27906976744186,
          "velocity": 0.29133858267716534
        },
        {
          "duration": 0.3720930232558146,
          "durationTicks": 32,
          "midi": 79,
          "name": "G5",
          "ticks": 2439,
          "time": 28.36046511627907,
          "velocity": 0.31496062992125984
        },
        {
          "duration": 0.11627906976744384,
          "durationTicks": 10,
          "midi": 83,
          "name": "B5",
          "ticks": 2439,
          "time": 28.36046511627907,
          "velocity": 0.1732283464566929
        },
        {
          "duration": 0.3139534883720927,
          "durationTicks": 27,
          "midi": 67,
          "name": "G4",
          "ticks": 2440,
          "time": 28.372093023255815,
          "velocity": 0.4645669291338583
        },
        {
          "duration": 0.22093023255813904,
          "durationTicks": 19,
          "midi": 89,
          "name": "F6",
          "ticks": 2441,
          "time": 28.38372093023256,
          "velocity": 0.15748031496062992
        },
        {
          "duration": 0.03488372093023173,
          "durationTicks": 3,
          "midi": 55,
          "name": "G3",
          "ticks": 2443,
          "time": 28.406976744186046,
          "velocity": 0.30708661417322836
        },
        {
          "duration": 0.24418604651162923,
          "durationTicks": 21,
          "midi": 72,
          "name": "C5",
          "ticks": 2447,
          "time": 28.453488372093023,
          "velocity": 0.16535433070866143
        },
        {
          "duration": 0.430232558139533,
          "durationTicks": 37,
          "midi": 50,
          "name": "D3",
          "ticks": 2449,
          "time": 28.476744186046513,
          "velocity": 0.4645669291338583
        },
        {
          "duration": 0.03488372093023173,
          "durationTicks": 3,
          "midi": 39,
          "name": "D#2",
          "ticks": 2450,
          "time": 28.488372093023255,
          "velocity": 0.44881889763779526
        },
        {
          "duration": 0.1860465116279073,
          "durationTicks": 16,
          "midi": 83,
          "name": "B5",
          "ticks": 2450,
          "time": 28.488372093023255,
          "velocity": 0.2047244094488189
        },
        {
          "duration": 0.09302325581395365,
          "durationTicks": 8,
          "midi": 38,
          "name": "D2",
          "ticks": 2453,
          "time": 28.523255813953487,
          "velocity": 0.4094488188976378
        },
        {
          "duration": 0.02325581395349019,
          "durationTicks": 2,
          "midi": 57,
          "name": "A3",
          "ticks": 2461,
          "time": 28.61627906976744,
          "velocity": 0.25984251968503935
        },
        {
          "duration": 0.05813953488372192,
          "durationTicks": 5,
          "midi": 38,
          "name": "D2",
          "ticks": 2462,
          "time": 28.627906976744185,
          "velocity": 0.28346456692913385
        },
        {
          "duration": 0.4767441860465098,
          "durationTicks": 41,
          "midi": 69,
          "name": "A4",
          "ticks": 2467,
          "time": 28.686046511627907,
          "velocity": 0.47244094488188976
        },
        {
          "duration": 0.06976744186046346,
          "durationTicks": 6,
          "midi": 76,
          "name": "E5",
          "ticks": 2468,
          "time": 28.697674418604652,
          "velocity": 0.12598425196850394
        },
        {
          "duration": 0.2906976744186025,
          "durationTicks": 25,
          "midi": 85,
          "name": "C#6",
          "ticks": 2468,
          "time": 28.697674418604652,
          "velocity": 0.25984251968503935
        },
        {
          "duration": 0.25581395348837077,
          "durationTicks": 22,
          "midi": 95,
          "name": "B6",
          "ticks": 2468,
          "time": 28.697674418604652,
          "velocity": 0.1732283464566929
        },
        {
          "duration": 0.034883720930235285,
          "durationTicks": 3,
          "midi": 39,
          "name": "D#2",
          "ticks": 2469,
          "time": 28.709302325581394,
          "velocity": 0.3464566929133858
        },
        {
          "duration": 0.02325581395349019,
          "durationTicks": 2,
          "midi": 56,
          "name": "G#3",
          "ticks": 2469,
          "time": 28.709302325581394,
          "velocity": 0.4094488188976378
        },
        {
          "duration": 0.06976744186046346,
          "durationTicks": 6,
          "midi": 57,
          "name": "A3",
          "ticks": 2471,
          "time": 28.732558139534884,
          "velocity": 0.30708661417322836
        },
        {
          "duration": 0.40697674418604635,
          "durationTicks": 35,
          "midi": 66,
          "name": "F#4",
          "ticks": 2471,
          "time": 28.732558139534884,
          "velocity": 0.18110236220472442
        },
        {
          "duration": 0.023255813953486637,
          "durationTicks": 2,
          "midi": 38,
          "name": "D2",
          "ticks": 2475,
          "time": 28.77906976744186,
          "velocity": 0.2440944881889764
        },
        {
          "duration": 0.02325581395349019,
          "durationTicks": 2,
          "midi": 56,
          "name": "G#3",
          "ticks": 2477,
          "time": 28.802325581395348,
          "velocity": 0.3858267716535433
        },
        {
          "duration": 0.06976744186046702,
          "durationTicks": 6,
          "midi": 88,
          "name": "E6",
          "ticks": 2478,
          "time": 28.813953488372093,
          "velocity": 0.10236220472440945
        },
        {
          "duration": 0.023255813953486637,
          "durationTicks": 2,
          "midi": 57,
          "name": "A3",
          "ticks": 2479,
          "time": 28.825581395348838,
          "velocity": 0.33070866141732286
        },
        {
          "duration": 0.03488372093023173,
          "durationTicks": 3,
          "midi": 76,
          "name": "E5",
          "ticks": 2479,
          "time": 28.825581395348838,
          "velocity": 0.07086614173228346
        },
        {
          "duration": 0.3023255813953476,
          "durationTicks": 26,
          "midi": 57,
          "name": "A3",
          "ticks": 2482,
          "time": 28.86046511627907,
          "velocity": 0.3228346456692913
        },
        {
          "duration": 0.023255813953486637,
          "durationTicks": 2,
          "midi": 38,
          "name": "D2",
          "ticks": 2484,
          "time": 28.88372093023256,
          "velocity": 0.2677165354330709
        },
        {
          "duration": 0.25581395348837077,
          "durationTicks": 22,
          "midi": 74,
          "name": "D5",
          "ticks": 2487,
          "time": 28.91860465116279,
          "velocity": 0.29133858267716534
        },
        {
          "duration": 0.23255813953488058,
          "durationTicks": 20,
          "midi": 50,
          "name": "D3",
          "ticks": 2488,
          "time": 28.930232558139537,
          "velocity": 0.49606299212598426
        },
        {
          "duration": 0.15116279069767202,
          "durationTicks": 13,
          "midi": 84,
          "name": "C6",
          "ticks": 2488,
          "time": 28.930232558139537,
          "velocity": 0.2125984251968504
        },
        {
          "duration": 0.04651162790697683,
          "durationTicks": 4,
          "midi": 38,
          "name": "D2",
          "ticks": 2490,
          "time": 28.953488372093023,
          "velocity": 0.2755905511811024
        },
        {
          "duration": 0.12790697674418894,
          "durationTicks": 11,
          "midi": 38,
          "name": "D2",
          "ticks": 2496,
          "time": 29.023255813953487,
          "velocity": 0.2125984251968504
        },
        {
          "duration": 0.12790697674418539,
          "durationTicks": 11,
          "midi": 67,
          "name": "G4",
          "ticks": 2507,
          "time": 29.151162790697676,
          "velocity": 0.4409448818897638
        },
        {
          "duration": 0.02325581395349019,
          "durationTicks": 2,
          "midi": 38,
          "name": "D2",
          "ticks": 2508,
          "time": 29.162790697674417,
          "velocity": 0.25984251968503935
        },
        {
          "duration": 0.3372093023255829,
          "durationTicks": 29,
          "midi": 55,
          "name": "G3",
          "ticks": 2508,
          "time": 29.162790697674417,
          "velocity": 0.4330708661417323
        },
        {
          "duration": 0.3372093023255829,
          "durationTicks": 29,
          "midi": 83,
          "name": "B5",
          "ticks": 2508,
          "time": 29.162790697674417,
          "velocity": 0.2204724409448819
        },
        {
          "duration": 0.02325581395349019,
          "durationTicks": 2,
          "midi": 50,
          "name": "D3",
          "ticks": 2509,
          "time": 29.174418604651162,
          "velocity": 0.29133858267716534
        },
        {
          "duration": 0.08139534883720856,
          "durationTicks": 7,
          "midi": 86,
          "name": "D6",
          "ticks": 2509,
          "time": 29.174418604651162,
          "velocity": 0.07874015748031496
        },
        {
          "duration": 0.22093023255813904,
          "durationTicks": 19,
          "midi": 89,
          "name": "F6",
          "ticks": 2510,
          "time": 29.186046511627907,
          "velocity": 0.15748031496062992
        },
        {
          "duration": 0.08139534883720856,
          "durationTicks": 7,
          "midi": 93,
          "name": "A6",
          "ticks": 2511,
          "time": 29.197674418604652,
          "velocity": 0.08661417322834646
        },
        {
          "duration": 0.05813953488372192,
          "durationTicks": 5,
          "midi": 38,
          "name": "D2",
          "ticks": 2512,
          "time": 29.209302325581394,
          "velocity": 0.2677165354330709
        },
        {
          "duration": 0.023255813953486637,
          "durationTicks": 2,
          "midi": 68,
          "name": "G#4",
          "ticks": 2518,
          "time": 29.27906976744186,
          "velocity": 0.3858267716535433
        },
        {
          "duration": 0.03488372093023173,
          "durationTicks": 3,
          "midi": 74,
          "name": "D5",
          "ticks": 2518,
          "time": 29.27906976744186,
          "velocity": 0.09448818897637795
        },
        {
          "duration": 0.16279069767441712,
          "durationTicks": 14,
          "midi": 86,
          "name": "D6",
          "ticks": 2518,
          "time": 29.27906976744186,
          "velocity": 0.09448818897637795
        },
        {
          "duration": 0.1046511627906952,
          "durationTicks": 9,
          "midi": 38,
          "name": "D2",
          "ticks": 2527,
          "time": 29.38372093023256,
          "velocity": 0.16535433070866143
        },
        {
          "duration": 0.03488372093023173,
          "durationTicks": 3,
          "midi": 56,
          "name": "G#3",
          "ticks": 2537,
          "time": 29.5,
          "velocity": 0.44881889763779526
        },
        {
          "duration": 0.5813953488372086,
          "durationTicks": 50,
          "midi": 69,
          "name": "A4",
          "ticks": 2537,
          "time": 29.5,
          "velocity": 0.4645669291338583
        },
        {
          "duration": 0.39534883720930125,
          "durationTicks": 34,
          "midi": 85,
          "name": "C#6",
          "ticks": 2537,
          "time": 29.5,
          "velocity": 0.25984251968503935
        },
        {
          "duration": 0.3488372093023244,
          "durationTicks": 30,
          "midi": 95,
          "name": "B6",
          "ticks": 2538,
          "time": 29.511627906976745,
          "velocity": 0.1732283464566929
        },
        {
          "duration": 0.08139534883721211,
          "durationTicks": 7,
          "midi": 57,
          "name": "A3",
          "ticks": 2539,
          "time": 29.523255813953487,
          "velocity": 0.31496062992125984
        },
        {
          "duration": 0.05813953488372192,
          "durationTicks": 5,
          "midi": 62,
          "name": "D4",
          "ticks": 2539,
          "time": 29.523255813953487,
          "velocity": 0.11811023622047244
        },
        {
          "duration": 0.03488372093023173,
          "durationTicks": 3,
          "midi": 39,
          "name": "D#2",
          "ticks": 2541,
          "time": 29.546511627906977,
          "velocity": 0.23622047244094488
        },
        {
          "duration": 0.04651162790697683,
          "durationTicks": 4,
          "midi": 56,
          "name": "G#3",
          "ticks": 2546,
          "time": 29.6046511627907,
          "velocity": 0.3543307086614173
        },
        {
          "duration": 0.09302325581395365,
          "durationTicks": 8,
          "midi": 88,
          "name": "E6",
          "ticks": 2547,
          "time": 29.61627906976744,
          "velocity": 0.08661417322834646
        },
        {
          "duration": 0.04651162790697683,
          "durationTicks": 4,
          "midi": 62,
          "name": "D4",
          "ticks": 2549,
          "time": 29.63953488372093,
          "velocity": 0.11023622047244094
        },
        {
          "duration": 0.04651162790697683,
          "durationTicks": 4,
          "midi": 57,
          "name": "A3",
          "ticks": 2551,
          "time": 29.662790697674417,
          "velocity": 0.2204724409448819
        },
        {
          "duration": 0.06976744186046346,
          "durationTicks": 6,
          "midi": 88,
          "name": "E6",
          "ticks": 2557,
          "time": 29.732558139534884,
          "velocity": 0.08661417322834646
        },
        {
          "duration": 0.023255813953486637,
          "durationTicks": 2,
          "midi": 57,
          "name": "A3",
          "ticks": 2558,
          "time": 29.74418604651163,
          "velocity": 0.3543307086614173
        },
        {
          "duration": 0.05813953488372192,
          "durationTicks": 5,
          "midi": 91,
          "name": "G6",
          "ticks": 2559,
          "time": 29.75581395348837,
          "velocity": 0.08661417322834646
        },
        {
          "duration": 0.03488372093023173,
          "durationTicks": 3,
          "midi": 39,
          "name": "D#2",
          "ticks": 2561,
          "time": 29.77906976744186,
          "velocity": 0.2283464566929134
        },
        {
          "duration": 0.16279069767441712,
          "durationTicks": 14,
          "midi": 57,
          "name": "A3",
          "ticks": 2561,
          "time": 29.77906976744186,
          "velocity": 0.25984251968503935
        },
        {
          "duration": 0.26744186046511587,
          "durationTicks": 23,
          "midi": 50,
          "name": "D3",
          "ticks": 2564,
          "time": 29.813953488372093,
          "velocity": 0.5196850393700787
        },
        {
          "duration": 0.25581395348837077,
          "durationTicks": 22,
          "midi": 84,
          "name": "C6",
          "ticks": 2565,
          "time": 29.825581395348838,
          "velocity": 0.1732283464566929
        },
        {
          "duration": 0.26744186046511587,
          "durationTicks": 23,
          "midi": 88,
          "name": "E6",
          "ticks": 2565,
          "time": 29.825581395348838,
          "velocity": 0.12598425196850394
        },
        {
          "duration": 0.25581395348837077,
          "durationTicks": 22,
          "midi": 78,
          "name": "F#5",
          "ticks": 2566,
          "time": 29.837209302325583,
          "velocity": 0.16535433070866143
        },
        {
          "duration": 0.04651162790697683,
          "durationTicks": 4,
          "midi": 39,
          "name": "D#2",
          "ticks": 2567,
          "time": 29.848837209302324,
          "velocity": 0.2440944881889764
        },
        {
          "duration": 0.10465116279069875,
          "durationTicks": 9,
          "midi": 38,
          "name": "D2",
          "ticks": 2576,
          "time": 29.953488372093023,
          "velocity": 0.12598425196850394
        },
        {
          "duration": 0.3372093023255829,
          "durationTicks": 29,
          "midi": 67,
          "name": "G4",
          "ticks": 2586,
          "time": 30.069767441860463,
          "velocity": 0.47244094488188976
        },
        {
          "duration": 0.09302325581395365,
          "durationTicks": 8,
          "midi": 55,
          "name": "G3",
          "ticks": 2587,
          "time": 30.08139534883721,
          "velocity": 0.4251968503937008
        },
        {
          "duration": 0.3139534883720927,
          "durationTicks": 27,
          "midi": 83,
          "name": "B5",
          "ticks": 2587,
          "time": 30.08139534883721,
          "velocity": 0.18110236220472442
        },
        {
          "duration": 0.3953488372093048,
          "durationTicks": 34,
          "midi": 93,
          "name": "A6",
          "ticks": 2587,
          "time": 30.08139534883721,
          "velocity": 0.1732283464566929
        },
        {
          "duration": 0.023255813953486637,
          "durationTicks": 2,
          "midi": 38,
          "name": "D2",
          "ticks": 2588,
          "time": 30.093023255813954,
          "velocity": 0.2677165354330709
        },
        {
          "duration": 0.22093023255813904,
          "durationTicks": 19,
          "midi": 89,
          "name": "F6",
          "ticks": 2589,
          "time": 30.1046511627907,
          "velocity": 0.15748031496062992
        },
        {
          "duration": 0.04651162790697683,
          "durationTicks": 4,
          "midi": 38,
          "name": "D2",
          "ticks": 2591,
          "time": 30.127906976744185,
          "velocity": 0.2125984251968504
        },
        {
          "duration": 0.02325581395349019,
          "durationTicks": 2,
          "midi": 50,
          "name": "D3",
          "ticks": 2591,
          "time": 30.127906976744185,
          "velocity": 0.23622047244094488
        },
        {
          "duration": 0.03488372093023173,
          "durationTicks": 3,
          "midi": 54,
          "name": "F#3",
          "ticks": 2595,
          "time": 30.174418604651162,
          "velocity": 0.3464566929133858
        },
        {
          "duration": 0.1744186046511622,
          "durationTicks": 15,
          "midi": 55,
          "name": "G3",
          "ticks": 2600,
          "time": 30.232558139534884,
          "velocity": 0.2204724409448819
        },
        {
          "duration": 0.5813953488372086,
          "durationTicks": 50,
          "midi": 69,
          "name": "A4",
          "ticks": 2615,
          "time": 30.406976744186046,
          "velocity": 0.4645669291338583
        },
        {
          "duration": 0.03488372093023173,
          "durationTicks": 3,
          "midi": 74,
          "name": "D5",
          "ticks": 2615,
          "time": 30.406976744186046,
          "velocity": 0.09448818897637795
        },
        {
          "duration": 0.03488372093023173,
          "durationTicks": 3,
          "midi": 57,
          "name": "A3",
          "ticks": 2616,
          "time": 30.41860465116279,
          "velocity": 0.41732283464566927
        },
        {
          "duration": 0.3488372093023244,
          "durationTicks": 30,
          "midi": 85,
          "name": "C#6",
          "ticks": 2616,
          "time": 30.41860465116279,
          "velocity": 0.25984251968503935
        },
        {
          "duration": 0.3255813953488378,
          "durationTicks": 28,
          "midi": 95,
          "name": "B6",
          "ticks": 2616,
          "time": 30.41860465116279,
          "velocity": 0.1732283464566929
        },
        {
          "duration": 0.03488372093023173,
          "durationTicks": 3,
          "midi": 39,
          "name": "D#2",
          "ticks": 2620,
          "time": 30.46511627906977,
          "velocity": 0.1968503937007874
        },
        {
          "duration": 0.05813953488371837,
          "durationTicks": 5,
          "midi": 57,
          "name": "A3",
          "ticks": 2620,
          "time": 30.46511627906977,
          "velocity": 0.30708661417322836
        },
        {
          "duration": 0.03488372093023173,
          "durationTicks": 3,
          "midi": 40,
          "name": "E2",
          "ticks": 2626,
          "time": 30.53488372093023,
          "velocity": 0.2125984251968504
        },
        {
          "duration": 0.02325581395349019,
          "durationTicks": 2,
          "midi": 56,
          "name": "G#3",
          "ticks": 2626,
          "time": 30.53488372093023,
          "velocity": 0.3700787401574803
        },
        {
          "duration": 0.09302325581395365,
          "durationTicks": 8,
          "midi": 88,
          "name": "E6",
          "ticks": 2626,
          "time": 30.53488372093023,
          "velocity": 0.10236220472440945
        },
        {
          "duration": 0.08139534883720856,
          "durationTicks": 7,
          "midi": 91,
          "name": "G6",
          "ticks": 2628,
          "time": 30.558139534883722,
          "velocity": 0.09448818897637795
        },
        {
          "duration": 0.27906976744186096,
          "durationTicks": 24,
          "midi": 57,
          "name": "A3",
          "ticks": 2630,
          "time": 30.58139534883721,
          "velocity": 0.23622047244094488
        },
        {
          "duration": 0.23255813953488413,
          "durationTicks": 20,
          "midi": 50,
          "name": "D3",
          "ticks": 2645,
          "time": 30.75581395348837,
          "velocity": 0.5196850393700787
        },
        {
          "duration": 0.23255813953488413,
          "durationTicks": 20,
          "midi": 78,
          "name": "F#5",
          "ticks": 2646,
          "time": 30.767441860465116,
          "velocity": 0.14173228346456693
        },
        {
          "duration": 0.22093023255813904,
          "durationTicks": 19,
          "midi": 84,
          "name": "C6",
          "ticks": 2646,
          "time": 30.767441860465116,
          "velocity": 0.15748031496062992
        },
        {
          "duration": 0.06976744186046702,
          "durationTicks": 6,
          "midi": 97,
          "name": "C#7",
          "ticks": 2646,
          "time": 30.767441860465116,
          "velocity": 0.12598425196850394
        },
        {
          "duration": 0.15116279069767558,
          "durationTicks": 13,
          "midi": 88,
          "name": "E6",
          "ticks": 2653,
          "time": 30.848837209302324,
          "velocity": 0.07874015748031496
        },
        {
          "duration": 0.05813953488371837,
          "durationTicks": 5,
          "midi": 38,
          "name": "D2",
          "ticks": 2656,
          "time": 30.88372093023256,
          "velocity": 0.07086614173228346
        },
        {
          "duration": 0.3604651162790695,
          "durationTicks": 31,
          "midi": 55,
          "name": "G3",
          "ticks": 2664,
          "time": 30.976744186046513,
          "velocity": 0.4645669291338583
        },
        {
          "duration": 0.3604651162790695,
          "durationTicks": 31,
          "midi": 67,
          "name": "G4",
          "ticks": 2664,
          "time": 30.976744186046513,
          "velocity": 0.4645669291338583
        },
        {
          "duration": 0.3255813953488378,
          "durationTicks": 28,
          "midi": 83,
          "name": "B5",
          "ticks": 2665,
          "time": 30.988372093023255,
          "velocity": 0.1732283464566929
        },
        {
          "duration": 0.09302325581395365,
          "durationTicks": 8,
          "midi": 89,
          "name": "F6",
          "ticks": 2667,
          "time": 31.011627906976745,
          "velocity": 0.11023622047244094
        },
        {
          "duration": 0.02325581395349019,
          "durationTicks": 2,
          "midi": 50,
          "name": "D3",
          "ticks": 2668,
          "time": 31.023255813953487,
          "velocity": 0.2992125984251969
        },
        {
          "duration": 0.03488372093023173,
          "durationTicks": 3,
          "midi": 38,
          "name": "D2",
          "ticks": 2669,
          "time": 31.03488372093023,
          "velocity": 0.1889763779527559
        },
        {
          "duration": 0.034883720930235285,
          "durationTicks": 3,
          "midi": 61,
          "name": "C#4",
          "ticks": 2676,
          "time": 31.11627906976744,
          "velocity": 0.07086614173228346
        },
        {
          "duration": 0.11627906976744384,
          "durationTicks": 10,
          "midi": 89,
          "name": "F6",
          "ticks": 2677,
          "time": 31.127906976744185,
          "velocity": 0.14960629921259844
        },
        {
          "duration": 0.04651162790697683,
          "durationTicks": 4,
          "midi": 39,
          "name": "D#2",
          "ticks": 2680,
          "time": 31.162790697674417,
          "velocity": 0.08661417322834646
        },
        {
          "duration": 0.4534883720930232,
          "durationTicks": 39,
          "midi": 69,
          "name": "A4",
          "ticks": 2694,
          "time": 31.325581395348838,
          "velocity": 0.47244094488188976
        },
        {
          "duration": 0.023255813953486637,
          "durationTicks": 2,
          "midi": 56,
          "name": "G#3",
          "ticks": 2695,
          "time": 31.337209302325583,
          "velocity": 0.4409448818897638
        },
        {
          "duration": 0.39534883720930125,
          "durationTicks": 34,
          "midi": 85,
          "name": "C#6",
          "ticks": 2695,
          "time": 31.337209302325583,
          "velocity": 0.25196850393700787
        },
        {
          "duration": 0.3604651162790695,
          "durationTicks": 31,
          "midi": 95,
          "name": "B6",
          "ticks": 2696,
          "time": 31.348837209302324,
          "velocity": 0.15748031496062992
        },
        {
          "duration": 0.16279069767441712,
          "durationTicks": 14,
          "midi": 57,
          "name": "A3",
          "ticks": 2699,
          "time": 31.38372093023256,
          "velocity": 0.4566929133858268
        },
        {
          "duration": 0.1046511627906952,
          "durationTicks": 9,
          "midi": 76,
          "name": "E5",
          "ticks": 2703,
          "time": 31.430232558139537,
          "velocity": 0.09448818897637795
        },
        {
          "duration": 0.03488372093023173,
          "durationTicks": 3,
          "midi": 56,
          "name": "G#3",
          "ticks": 2714,
          "time": 31.558139534883722,
          "velocity": 0.3464566929133858
        },
        {
          "duration": 0.08139534883720856,
          "durationTicks": 7,
          "midi": 88,
          "name": "E6",
          "ticks": 2714,
          "time": 31.558139534883722,
          "velocity": 0.07874015748031496
        },
        {
          "duration": 0.06976744186046702,
          "durationTicks": 6,
          "midi": 91,
          "name": "G6",
          "ticks": 2716,
          "time": 31.58139534883721,
          "velocity": 0.07874015748031496
        },
        {
          "duration": 0.08139534883720856,
          "durationTicks": 7,
          "midi": 57,
          "name": "A3",
          "ticks": 2717,
          "time": 31.593023255813954,
          "velocity": 0.2283464566929134
        },
        {
          "duration": 0.24418604651162923,
          "durationTicks": 21,
          "midi": 62,
          "name": "D4",
          "ticks": 2723,
          "time": 31.662790697674417,
          "velocity": 0.5118110236220472
        },
        {
          "duration": 0.24418604651162923,
          "durationTicks": 21,
          "midi": 90,
          "name": "F#6",
          "ticks": 2724,
          "time": 31.674418604651162,
          "velocity": 0.16535433070866143
        },
        {
          "duration": 0.10465116279069875,
          "durationTicks": 9,
          "midi": 98,
          "name": "D7",
          "ticks": 2725,
          "time": 31.686046511627907,
          "velocity": 0.09448818897637795
        },
        {
          "duration": 0.08139534883720856,
          "durationTicks": 7,
          "midi": 57,
          "name": "A3",
          "ticks": 2726,
          "time": 31.697674418604652,
          "velocity": 0.1732283464566929
        },
        {
          "duration": 0.06976744186046346,
          "durationTicks": 6,
          "midi": 96,
          "name": "C7",
          "ticks": 2726,
          "time": 31.697674418604652,
          "velocity": 0.08661417322834646
        },
        {
          "duration": 0.33720930232557933,
          "durationTicks": 29,
          "midi": 72,
          "name": "C5",
          "ticks": 2743,
          "time": 31.8953488372093,
          "velocity": 0.5118110236220472
        },
        {
          "duration": 0.5000000000000036,
          "durationTicks": 43,
          "midi": 79,
          "name": "G5",
          "ticks": 2743,
          "time": 31.8953488372093,
          "velocity": 0.25984251968503935
        },
        {
          "duration": 0.24418604651162568,
          "durationTicks": 21,
          "midi": 88,
          "name": "E6",
          "ticks": 2743,
          "time": 31.8953488372093,
          "velocity": 0.1732283464566929
        },
        {
          "duration": 0.22093023255813904,
          "durationTicks": 19,
          "midi": 60,
          "name": "C4",
          "ticks": 2744,
          "time": 31.906976744186046,
          "velocity": 0.5118110236220472
        },
        {
          "duration": 0.03488372093023173,
          "durationTicks": 3,
          "midi": 67,
          "name": "G4",
          "ticks": 2744,
          "time": 31.906976744186046,
          "velocity": 0.11811023622047244
        },
        {
          "duration": 0.06976744186046702,
          "durationTicks": 6,
          "midi": 74,
          "name": "D5",
          "ticks": 2744,
          "time": 31.906976744186046,
          "velocity": 0.23622047244094488
        },
        {
          "duration": 0.08139534883720856,
          "durationTicks": 7,
          "midi": 94,
          "name": "A#6",
          "ticks": 2744,
          "time": 31.906976744186046,
          "velocity": 0.08661417322834646
        },
        {
          "duration": 0.13953488372092693,
          "durationTicks": 12,
          "midi": 96,
          "name": "C7",
          "ticks": 2744,
          "time": 31.906976744186046,
          "velocity": 0.10236220472440945
        },
        {
          "duration": 0.2325581395348877,
          "durationTicks": 20,
          "midi": 67,
          "name": "G4",
          "ticks": 2763,
          "time": 32.127906976744185,
          "velocity": 0.4251968503937008
        },
        {
          "duration": 0.02325581395349019,
          "durationTicks": 2,
          "midi": 55,
          "name": "G3",
          "ticks": 2764,
          "time": 32.13953488372093,
          "velocity": 0.47244094488188976
        },
        {
          "duration": 0.03488372093023884,
          "durationTicks": 3,
          "midi": 74,
          "name": "D5",
          "ticks": 2764,
          "time": 32.13953488372093,
          "velocity": 0.09448818897637795
        },
        {
          "duration": 0.05813953488372192,
          "durationTicks": 5,
          "midi": 85,
          "name": "C#6",
          "ticks": 2764,
          "time": 32.13953488372093,
          "velocity": 0.07874015748031496
        },
        {
          "duration": 0.1279069767441925,
          "durationTicks": 11,
          "midi": 93,
          "name": "A6",
          "ticks": 2764,
          "time": 32.13953488372093,
          "velocity": 0.1732283464566929
        },
        {
          "duration": 0.2093023255813975,
          "durationTicks": 18,
          "midi": 50,
          "name": "D3",
          "ticks": 2765,
          "time": 32.151162790697676,
          "velocity": 0.4566929133858268
        },
        {
          "duration": 0.19767441860464885,
          "durationTicks": 17,
          "midi": 83,
          "name": "B5",
          "ticks": 2765,
          "time": 32.151162790697676,
          "velocity": 0.2047244094488189
        },
        {
          "duration": 0.1046511627906952,
          "durationTicks": 9,
          "midi": 89,
          "name": "F6",
          "ticks": 2765,
          "time": 32.151162790697676,
          "velocity": 0.11811023622047244
        },
        {
          "duration": 0.03488372093023173,
          "durationTicks": 3,
          "midi": 39,
          "name": "D#2",
          "ticks": 2766,
          "time": 32.16279069767442,
          "velocity": 0.44881889763779526
        },
        {
          "duration": 0.02325581395349019,
          "durationTicks": 2,
          "midi": 60,
          "name": "C4",
          "ticks": 2766,
          "time": 32.16279069767442,
          "velocity": 0.29133858267716534
        },
        {
          "duration": 0.023255813953483084,
          "durationTicks": 2,
          "midi": 56,
          "name": "G#3",
          "ticks": 2767,
          "time": 32.174418604651166,
          "velocity": 0.3543307086614173
        },
        {
          "duration": 0.09302325581395365,
          "durationTicks": 8,
          "midi": 38,
          "name": "D2",
          "ticks": 2769,
          "time": 32.19767441860465,
          "velocity": 0.4094488188976378
        },
        {
          "duration": 0.06976744186047057,
          "durationTicks": 6,
          "midi": 76,
          "name": "E5",
          "ticks": 2769,
          "time": 32.19767441860465,
          "velocity": 0.07086614173228346
        },
        {
          "duration": 0.09302325581395365,
          "durationTicks": 8,
          "midi": 86,
          "name": "D6",
          "ticks": 2769,
          "time": 32.19767441860465,
          "velocity": 0.07874015748031496
        },
        {
          "duration": 0.05813953488372192,
          "durationTicks": 5,
          "midi": 55,
          "name": "G3",
          "ticks": 2778,
          "time": 32.30232558139535,
          "velocity": 0.3700787401574803
        },
        {
          "duration": 0.03488372093023173,
          "durationTicks": 3,
          "midi": 38,
          "name": "D2",
          "ticks": 2779,
          "time": 32.31395348837209,
          "velocity": 0.16535433070866143
        },
        {
          "duration": 0.48837209302325846,
          "durationTicks": 42,
          "midi": 69,
          "name": "A4",
          "ticks": 2782,
          "time": 32.348837209302324,
          "velocity": 0.44881889763779526
        },
        {
          "duration": 0.03488372093023173,
          "durationTicks": 3,
          "midi": 93,
          "name": "A6",
          "ticks": 2782,
          "time": 32.348837209302324,
          "velocity": 0.09448818897637795
        },
        {
          "duration": 0.25581395348837077,
          "durationTicks": 22,
          "midi": 85,
          "name": "C#6",
          "ticks": 2783,
          "time": 32.36046511627907,
          "velocity": 0.23622047244094488
        },
        {
          "duration": 0.2674418604651123,
          "durationTicks": 23,
          "midi": 95,
          "name": "B6",
          "ticks": 2783,
          "time": 32.36046511627907,
          "velocity": 0.1968503937007874
        },
        {
          "duration": 0.03488372093023173,
          "durationTicks": 3,
          "midi": 40,
          "name": "E2",
          "ticks": 2784,
          "time": 32.372093023255815,
          "velocity": 0.2440944881889764
        },
        {
          "duration": 0.22093023255813904,
          "durationTicks": 19,
          "midi": 57,
          "name": "A3",
          "ticks": 2784,
          "time": 32.372093023255815,
          "velocity": 0.4566929133858268
        },
        {
          "duration": 0.03488372093023173,
          "durationTicks": 3,
          "midi": 76,
          "name": "E5",
          "ticks": 2794,
          "time": 32.48837209302326,
          "velocity": 0.08661417322834646
        },
        {
          "duration": 0.06976744186047057,
          "durationTicks": 6,
          "midi": 91,
          "name": "G6",
          "ticks": 2796,
          "time": 32.51162790697674,
          "velocity": 0.08661417322834646
        },
        {
          "duration": 0.03488372093023173,
          "durationTicks": 3,
          "midi": 40,
          "name": "E2",
          "ticks": 2798,
          "time": 32.53488372093023,
          "velocity": 0.13385826771653545
        },
        {
          "duration": 0.3372093023255829,
          "durationTicks": 29,
          "midi": 62,
          "name": "D4",
          "ticks": 2803,
          "time": 32.593023255813954,
          "velocity": 0.47244094488188976
        },
        {
          "duration": 0.2093023255813975,
          "durationTicks": 18,
          "midi": 66,
          "name": "F#4",
          "ticks": 2803,
          "time": 32.593023255813954,
          "velocity": 0.2283464566929134
        },
        {
          "duration": 0.03488372093023173,
          "durationTicks": 3,
          "midi": 79,
          "name": "G5",
          "ticks": 2803,
          "time": 32.593023255813954,
          "velocity": 0.11811023622047244
        },
        {
          "duration": 0.03488372093023173,
          "durationTicks": 3,
          "midi": 84,
          "name": "C6",
          "ticks": 2803,
          "time": 32.593023255813954,
          "velocity": 0.14960629921259844
        },
        {
          "duration": 0.2325581395348877,
          "durationTicks": 20,
          "midi": 50,
          "name": "D3",
          "ticks": 2804,
          "time": 32.604651162790695,
          "velocity": 0.47244094488188976
        },
        {
          "duration": 0.2325581395348877,
          "durationTicks": 20,
          "midi": 57,
          "name": "A3",
          "ticks": 2804,
          "time": 32.604651162790695,
          "velocity": 0.3937007874015748
        },
        {
          "duration": 0.13953488372093403,
          "durationTicks": 12,
          "midi": 72,
          "name": "C5",
          "ticks": 2804,
          "time": 32.604651162790695,
          "velocity": 0.14173228346456693
        },
        {
          "duration": 0.12790697674418539,
          "durationTicks": 11,
          "midi": 76,
          "name": "E5",
          "ticks": 2804,
          "time": 32.604651162790695,
          "velocity": 0.11811023622047244
        },
        {
          "duration": 0.046511627906973274,
          "durationTicks": 4,
          "midi": 39,
          "name": "D#2",
          "ticks": 2805,
          "time": 32.616279069767444,
          "velocity": 0.4409448818897638
        },
        {
          "duration": 0.046511627906973274,
          "durationTicks": 4,
          "midi": 90,
          "name": "F#6",
          "ticks": 2805,
          "time": 32.616279069767444,
          "velocity": 0.14960629921259844
        },
        {
          "duration": 0.09302325581395365,
          "durationTicks": 8,
          "midi": 80,
          "name": "G#5",
          "ticks": 2806,
          "time": 32.627906976744185,
          "velocity": 0.09448818897637795
        },
        {
          "duration": 0.17441860465115866,
          "durationTicks": 15,
          "midi": 84,
          "name": "C6",
          "ticks": 2808,
          "time": 32.651162790697676,
          "velocity": 0.15748031496062992
        },
        {
          "duration": 0.05813953488372192,
          "durationTicks": 5,
          "midi": 85,
          "name": "C#6",
          "ticks": 2808,
          "time": 32.651162790697676,
          "velocity": 0.08661417322834646
        },
        {
          "duration": 0.09302325581395365,
          "durationTicks": 8,
          "midi": 38,
          "name": "D2",
          "ticks": 2809,
          "time": 32.66279069767442,
          "velocity": 0.4015748031496063
        },
        {
          "duration": 0.058139534883714816,
          "durationTicks": 5,
          "midi": 38,
          "name": "D2",
          "ticks": 2818,
          "time": 32.76744186046512,
          "velocity": 0.15748031496062992
        },
        {
          "duration": 0.22093023255813904,
          "durationTicks": 19,
          "midi": 55,
          "name": "G3",
          "ticks": 2824,
          "time": 32.83720930232558,
          "velocity": 0.44881889763779526
        },
        {
          "duration": 0.27906976744186096,
          "durationTicks": 24,
          "midi": 83,
          "name": "B5",
          "ticks": 2824,
          "time": 32.83720930232558,
          "velocity": 0.1968503937007874
        },
        {
          "duration": 0.02325581395349019,
          "durationTicks": 2,
          "midi": 50,
          "name": "D3",
          "ticks": 2825,
          "time": 32.848837209302324,
          "velocity": 0.30708661417322836
        },
        {
          "duration": 0.1860465116279002,
          "durationTicks": 16,
          "midi": 89,
          "name": "F6",
          "ticks": 2826,
          "time": 32.86046511627907,
          "velocity": 0.15748031496062992
        },
        {
          "duration": 0.16279069767441712,
          "durationTicks": 14,
          "midi": 93,
          "name": "A6",
          "ticks": 2828,
          "time": 32.883720930232556,
          "velocity": 0.14173228346456693
        },
        {
          "duration": 0.03488372093023884,
          "durationTicks": 3,
          "midi": 68,
          "name": "G#4",
          "ticks": 2831,
          "time": 32.91860465116279,
          "velocity": 0.3937007874015748
        },
        {
          "duration": 0.02325581395349019,
          "durationTicks": 2,
          "midi": 56,
          "name": "G#3",
          "ticks": 2843,
          "time": 33.05813953488372,
          "velocity": 0.3700787401574803
        },
        {
          "duration": 0.12790697674418539,
          "durationTicks": 11,
          "midi": 62,
          "name": "D4",
          "ticks": 2843,
          "time": 33.05813953488372,
          "velocity": 0.23622047244094488
        },
        {
          "duration": 0.1046511627906952,
          "durationTicks": 9,
          "midi": 72,
          "name": "C5",
          "ticks": 2843,
          "time": 33.05813953488372,
          "velocity": 0.14173228346456693
        },
        {
          "duration": 0.081395348837205,
          "durationTicks": 7,
          "midi": 86,
          "name": "D6",
          "ticks": 2843,
          "time": 33.05813953488372,
          "velocity": 0.09448818897637795
        },
        {
          "duration": 0.2093023255813975,
          "durationTicks": 18,
          "midi": 50,
          "name": "D3",
          "ticks": 2844,
          "time": 33.06976744186046,
          "velocity": 0.44881889763779526
        },
        {
          "duration": 0.04651162790698038,
          "durationTicks": 4,
          "midi": 69,
          "name": "A4",
          "ticks": 2844,
          "time": 33.06976744186046,
          "velocity": 0.15748031496062992
        },
        {
          "duration": 0.09302325581395365,
          "durationTicks": 8,
          "midi": 76,
          "name": "E5",
          "ticks": 2844,
          "time": 33.06976744186046,
          "velocity": 0.07874015748031496
        },
        {
          "duration": 0.19767441860465595,
          "durationTicks": 17,
          "midi": 93,
          "name": "A6",
          "ticks": 2844,
          "time": 33.06976744186046,
          "velocity": 0.13385826771653545
        },
        {
          "duration": 0.03488372093023173,
          "durationTicks": 3,
          "midi": 39,
          "name": "D#2",
          "ticks": 2845,
          "time": 33.08139534883721,
          "velocity": 0.4330708661417323
        },
        {
          "duration": 0.03488372093023173,
          "durationTicks": 3,
          "midi": 66,
          "name": "F#4",
          "ticks": 2846,
          "time": 33.093023255813954,
          "velocity": 0.25196850393700787
        },
        {
          "duration": 0.05813953488372192,
          "durationTicks": 5,
          "midi": 38,
          "name": "D2",
          "ticks": 2848,
          "time": 33.116279069767444,
          "velocity": 0.4094488188976378
        },
        {
          "duration": 0.03488372093023173,
          "durationTicks": 3,
          "midi": 67,
          "name": "G4",
          "ticks": 2848,
          "time": 33.116279069767444,
          "velocity": 0.25196850393700787
        },
        {
          "duration": 0.02325581395349019,
          "durationTicks": 2,
          "midi": 56,
          "name": "G#3",
          "ticks": 2851,
          "time": 33.151162790697676,
          "velocity": 0.3937007874015748
        },
        {
          "duration": 0.5930232558139537,
          "durationTicks": 51,
          "midi": 69,
          "name": "A4",
          "ticks": 2851,
          "time": 33.151162790697676,
          "velocity": 0.48031496062992124
        },
        {
          "duration": 0.3604651162790731,
          "durationTicks": 31,
          "midi": 85,
          "name": "C#6",
          "ticks": 2852,
          "time": 33.16279069767442,
          "velocity": 0.25984251968503935
        },
        {
          "duration": 0.1046511627906952,
          "durationTicks": 9,
          "midi": 57,
          "name": "A3",
          "ticks": 2853,
          "time": 33.174418604651166,
          "velocity": 0.4330708661417323
        },
        {
          "duration": 0.023255813953483084,
          "durationTicks": 2,
          "midi": 66,
          "name": "F#4",
          "ticks": 2853,
          "time": 33.174418604651166,
          "velocity": 0.2283464566929134
        },
        {
          "duration": 0.046511627906973274,
          "durationTicks": 4,
          "midi": 72,
          "name": "C5",
          "ticks": 2853,
          "time": 33.174418604651166,
          "velocity": 0.18110236220472442
        },
        {
          "duration": 0.30232558139535115,
          "durationTicks": 26,
          "midi": 91,
          "name": "G6",
          "ticks": 2854,
          "time": 33.18604651162791,
          "velocity": 0.13385826771653545
        },
        {
          "duration": 0.32558139534883423,
          "durationTicks": 28,
          "midi": 95,
          "name": "B6",
          "ticks": 2854,
          "time": 33.18604651162791,
          "velocity": 0.1732283464566929
        },
        {
          "duration": 0.03488372093023173,
          "durationTicks": 3,
          "midi": 39,
          "name": "D#2",
          "ticks": 2857,
          "time": 33.22093023255814,
          "velocity": 0.2283464566929134
        },
        {
          "duration": 0.05813953488372192,
          "durationTicks": 5,
          "midi": 40,
          "name": "E2",
          "ticks": 2863,
          "time": 33.2906976744186,
          "velocity": 0.23622047244094488
        },
        {
          "duration": 0.06976744186047057,
          "durationTicks": 6,
          "midi": 88,
          "name": "E6",
          "ticks": 2863,
          "time": 33.2906976744186,
          "velocity": 0.09448818897637795
        },
        {
          "duration": 0.023255813953483084,
          "durationTicks": 2,
          "midi": 56,
          "name": "G#3",
          "ticks": 2864,
          "time": 33.30232558139535,
          "velocity": 0.3543307086614173
        },
        {
          "duration": 0.17441860465116577,
          "durationTicks": 15,
          "midi": 57,
          "name": "A3",
          "ticks": 2866,
          "time": 33.325581395348834,
          "velocity": 0.44881889763779526
        },
        {
          "duration": 0.081395348837205,
          "durationTicks": 7,
          "midi": 76,
          "name": "E5",
          "ticks": 2872,
          "time": 33.395348837209305,
          "velocity": 0.07874015748031496
        },
        {
          "duration": 0.03488372093023173,
          "durationTicks": 3,
          "midi": 40,
          "name": "E2",
          "ticks": 2876,
          "time": 33.44186046511628,
          "velocity": 0.11023622047244094
        },
        {
          "duration": 0.3604651162790731,
          "durationTicks": 31,
          "midi": 62,
          "name": "D4",
          "ticks": 2881,
          "time": 33.5,
          "velocity": 0.47244094488188976
        },
        {
          "duration": 0.22093023255813904,
          "durationTicks": 19,
          "midi": 66,
          "name": "F#4",
          "ticks": 2881,
          "time": 33.5,
          "velocity": 0.2283464566929134
        },
        {
          "duration": 0.15116279069767558,
          "durationTicks": 13,
          "midi": 76,
          "name": "E5",
          "ticks": 2881,
          "time": 33.5,
          "velocity": 0.14173228346456693
        },
        {
          "duration": 0.03488372093023173,
          "durationTicks": 3,
          "midi": 84,
          "name": "C6",
          "ticks": 2881,
          "time": 33.5,
          "velocity": 0.14960629921259844
        },
        {
          "duration": 0.2325581395348877,
          "durationTicks": 20,
          "midi": 50,
          "name": "D3",
          "ticks": 2882,
          "time": 33.51162790697674,
          "velocity": 0.47244094488188976
        },
        {
          "duration": 0.2325581395348877,
          "durationTicks": 20,
          "midi": 57,
          "name": "A3",
          "ticks": 2882,
          "time": 33.51162790697674,
          "velocity": 0.3858267716535433
        },
        {
          "duration": 0.15116279069767558,
          "durationTicks": 13,
          "midi": 72,
          "name": "C5",
          "ticks": 2882,
          "time": 33.51162790697674,
          "velocity": 0.13385826771653545
        },
        {
          "duration": 0.046511627906973274,
          "durationTicks": 4,
          "midi": 39,
          "name": "D#2",
          "ticks": 2883,
          "time": 33.52325581395349,
          "velocity": 0.4409448818897638
        },
        {
          "duration": 0.046511627906973274,
          "durationTicks": 4,
          "midi": 90,
          "name": "F#6",
          "ticks": 2883,
          "time": 33.52325581395349,
          "velocity": 0.14960629921259844
        },
        {
          "duration": 0.1046511627906952,
          "durationTicks": 9,
          "midi": 80,
          "name": "G#5",
          "ticks": 2884,
          "time": 33.53488372093023,
          "velocity": 0.09448818897637795
        },
        {
          "duration": 0.16279069767441712,
          "durationTicks": 14,
          "midi": 84,
          "name": "C6",
          "ticks": 2886,
          "time": 33.55813953488372,
          "velocity": 0.14960629921259844
        },
        {
          "duration": 0.09302325581395365,
          "durationTicks": 8,
          "midi": 38,
          "name": "D2",
          "ticks": 2887,
          "time": 33.56976744186046,
          "velocity": 0.4015748031496063
        },
        {
          "duration": 0.05813953488372192,
          "durationTicks": 5,
          "midi": 85,
          "name": "C#6",
          "ticks": 2887,
          "time": 33.56976744186046,
          "velocity": 0.07874015748031496
        },
        {
          "duration": 0.058139534883714816,
          "durationTicks": 5,
          "midi": 38,
          "name": "D2",
          "ticks": 2896,
          "time": 33.674418604651166,
          "velocity": 0.1732283464566929
        },
        {
          "duration": 0.1046511627906952,
          "durationTicks": 9,
          "midi": 55,
          "name": "G3",
          "ticks": 2902,
          "time": 33.74418604651163,
          "velocity": 0.4251968503937008
        },
        {
          "duration": 0.11627906976744384,
          "durationTicks": 10,
          "midi": 67,
          "name": "G4",
          "ticks": 2902,
          "time": 33.74418604651163,
          "velocity": 0.4330708661417323
        },
        {
          "duration": 0.3139534883720927,
          "durationTicks": 27,
          "midi": 83,
          "name": "B5",
          "ticks": 2902,
          "time": 33.74418604651163,
          "velocity": 0.2283464566929134
        },
        {
          "duration": 0.02325581395349019,
          "durationTicks": 2,
          "midi": 50,
          "name": "D3",
          "ticks": 2903,
          "time": 33.75581395348837,
          "velocity": 0.2992125984251969
        },
        {
          "duration": 0.23255813953488058,
          "durationTicks": 20,
          "midi": 89,
          "name": "F6",
          "ticks": 2904,
          "time": 33.76744186046512,
          "velocity": 0.15748031496062992
        },
        {
          "duration": 0.05813953488372192,
          "durationTicks": 5,
          "midi": 93,
          "name": "A6",
          "ticks": 2906,
          "time": 33.7906976744186,
          "velocity": 0.07086614173228346
        },
        {
          "duration": 0.03488372093023884,
          "durationTicks": 3,
          "midi": 39,
          "name": "D#2",
          "ticks": 2909,
          "time": 33.825581395348834,
          "velocity": 0.15748031496062992
        },
        {
          "duration": 0.02325581395349019,
          "durationTicks": 2,
          "midi": 50,
          "name": "D3",
          "ticks": 2910,
          "time": 33.83720930232558,
          "velocity": 0.2283464566929134
        },
        {
          "duration": 0.1046511627906952,
          "durationTicks": 9,
          "midi": 55,
          "name": "G3",
          "ticks": 2912,
          "time": 33.86046511627907,
          "velocity": 0.4330708661417323
        },
        {
          "duration": 0.03488372093023173,
          "durationTicks": 3,
          "midi": 61,
          "name": "C#4",
          "ticks": 2912,
          "time": 33.86046511627907,
          "velocity": 0.10236220472440945
        },
        {
          "duration": 0.023255813953483084,
          "durationTicks": 2,
          "midi": 68,
          "name": "G#4",
          "ticks": 2912,
          "time": 33.86046511627907,
          "velocity": 0.3937007874015748
        },
        {
          "duration": 0.03488372093023173,
          "durationTicks": 3,
          "midi": 74,
          "name": "D5",
          "ticks": 2912,
          "time": 33.86046511627907,
          "velocity": 0.10236220472440945
        },
        {
          "duration": 0.1046511627906952,
          "durationTicks": 9,
          "midi": 86,
          "name": "D6",
          "ticks": 2912,
          "time": 33.86046511627907,
          "velocity": 0.11023622047244094
        },
        {
          "duration": 0.02325581395349019,
          "durationTicks": 2,
          "midi": 48,
          "name": "C3",
          "ticks": 2921,
          "time": 33.96511627906977,
          "velocity": 0.4409448818897638
        },
        {
          "duration": 0.02325581395349019,
          "durationTicks": 2,
          "midi": 56,
          "name": "G#3",
          "ticks": 2921,
          "time": 33.96511627906977,
          "velocity": 0.33070866141732286
        },
        {
          "duration": 0.1046511627906952,
          "durationTicks": 9,
          "midi": 93,
          "name": "A6",
          "ticks": 2921,
          "time": 33.96511627906977,
          "velocity": 0.18110236220472442
        },
        {
          "duration": 0.09302325581395365,
          "durationTicks": 8,
          "midi": 62,
          "name": "D4",
          "ticks": 2922,
          "time": 33.97674418604651,
          "velocity": 0.25984251968503935
        },
        {
          "duration": 0.04651162790698038,
          "durationTicks": 4,
          "midi": 69,
          "name": "A4",
          "ticks": 2922,
          "time": 33.97674418604651,
          "velocity": 0.1889763779527559
        },
        {
          "duration": 0.09302325581395365,
          "durationTicks": 8,
          "midi": 72,
          "name": "C5",
          "ticks": 2922,
          "time": 33.97674418604651,
          "velocity": 0.14173228346456693
        },
        {
          "duration": 0.11627906976743674,
          "durationTicks": 10,
          "midi": 50,
          "name": "D3",
          "ticks": 2923,
          "time": 33.98837209302326,
          "velocity": 0.4409448818897638
        },
        {
          "duration": 0.023255813953483084,
          "durationTicks": 2,
          "midi": 57,
          "name": "A3",
          "ticks": 2923,
          "time": 33.98837209302326,
          "velocity": 0.30708661417322836
        },
        {
          "duration": 0.023255813953483084,
          "durationTicks": 2,
          "midi": 67,
          "name": "G4",
          "ticks": 2923,
          "time": 33.98837209302326,
          "velocity": 0.2440944881889764
        },
        {
          "duration": 0.03488372093023173,
          "durationTicks": 3,
          "midi": 39,
          "name": "D#2",
          "ticks": 2924,
          "time": 34,
          "velocity": 0.4251968503937008
        },
        {
          "duration": 0.04651162790698038,
          "durationTicks": 4,
          "midi": 38,
          "name": "D2",
          "ticks": 2927,
          "time": 34.03488372093023,
          "velocity": 0.4015748031496063
        },
        {
          "duration": 0.02325581395349019,
          "durationTicks": 2,
          "midi": 67,
          "name": "G4",
          "ticks": 2927,
          "time": 34.03488372093023,
          "velocity": 0.25196850393700787
        },
        {
          "duration": 0.08139534883721211,
          "durationTicks": 7,
          "midi": 76,
          "name": "E5",
          "ticks": 2927,
          "time": 34.03488372093023,
          "velocity": 0.09448818897637795
        },
        {
          "duration": 0.6046511627906952,
          "durationTicks": 52,
          "midi": 69,
          "name": "A4",
          "ticks": 2929,
          "time": 34.05813953488372,
          "velocity": 0.4645669291338583
        },
        {
          "duration": 0.023255813953483084,
          "durationTicks": 2,
          "midi": 39,
          "name": "D#2",
          "ticks": 2931,
          "time": 34.08139534883721,
          "velocity": 0.3543307086614173
        },
        {
          "duration": 0.023255813953483084,
          "durationTicks": 2,
          "midi": 56,
          "name": "G#3",
          "ticks": 2931,
          "time": 34.08139534883721,
          "velocity": 0.3937007874015748
        },
        {
          "duration": 0.046511627906973274,
          "durationTicks": 4,
          "midi": 72,
          "name": "C5",
          "ticks": 2931,
          "time": 34.08139534883721,
          "velocity": 0.1732283464566929
        },
        {
          "duration": 0.36046511627906597,
          "durationTicks": 31,
          "midi": 85,
          "name": "C#6",
          "ticks": 2931,
          "time": 34.08139534883721,
          "velocity": 0.25196850393700787
        },
        {
          "duration": 0.3139534883720927,
          "durationTicks": 27,
          "midi": 95,
          "name": "B6",
          "ticks": 2931,
          "time": 34.08139534883721,
          "velocity": 0.1732283464566929
        },
        {
          "duration": 0.05813953488372192,
          "durationTicks": 5,
          "midi": 66,
          "name": "F#4",
          "ticks": 2933,
          "time": 34.104651162790695,
          "velocity": 0.14960629921259844
        },
        {
          "duration": 0.06976744186046346,
          "durationTicks": 6,
          "midi": 50,
          "name": "D3",
          "ticks": 2934,
          "time": 34.116279069767444,
          "velocity": 0.2992125984251969
        },
        {
          "duration": 0.05813953488372192,
          "durationTicks": 5,
          "midi": 57,
          "name": "A3",
          "ticks": 2935,
          "time": 34.127906976744185,
          "velocity": 0.25196850393700787
        },
        {
          "duration": 0.04651162790698038,
          "durationTicks": 4,
          "midi": 39,
          "name": "D#2",
          "ticks": 2936,
          "time": 34.13953488372093,
          "velocity": 0.2047244094488189
        },
        {
          "duration": 0.02325581395349019,
          "durationTicks": 2,
          "midi": 56,
          "name": "G#3",
          "ticks": 2940,
          "time": 34.18604651162791,
          "velocity": 0.3700787401574803
        },
        {
          "duration": 0.08139534883721211,
          "durationTicks": 7,
          "midi": 88,
          "name": "E6",
          "ticks": 2940,
          "time": 34.18604651162791,
          "velocity": 0.10236220472440945
        },
        {
          "duration": 0.03488372093023173,
          "durationTicks": 3,
          "midi": 40,
          "name": "E2",
          "ticks": 2942,
          "time": 34.2093023255814,
          "velocity": 0.23622047244094488
        },
        {
          "duration": 0.023255813953483084,
          "durationTicks": 2,
          "midi": 57,
          "name": "A3",
          "ticks": 2942,
          "time": 34.2093023255814,
          "velocity": 0.33858267716535434
        },
        {
          "duration": 0.08139534883721211,
          "durationTicks": 7,
          "midi": 91,
          "name": "G6",
          "ticks": 2943,
          "time": 34.22093023255814,
          "velocity": 0.09448818897637795
        },
        {
          "duration": 0.17441860465115866,
          "durationTicks": 15,
          "midi": 57,
          "name": "A3",
          "ticks": 2945,
          "time": 34.24418604651163,
          "velocity": 0.2440944881889764
        },
        {
          "duration": 0.24418604651162923,
          "durationTicks": 21,
          "midi": 50,
          "name": "D3",
          "ticks": 2960,
          "time": 34.41860465116279,
          "velocity": 0.5354330708661418
        },
        {
          "duration": 0.22093023255813904,
          "durationTicks": 19,
          "midi": 84,
          "name": "C6",
          "ticks": 2960,
          "time": 34.41860465116279,
          "velocity": 0.15748031496062992
        },
        {
          "duration": 0.03488372093023173,
          "durationTicks": 3,
          "midi": 40,
          "name": "E2",
          "ticks": 2961,
          "time": 34.43023255813954,
          "velocity": 0.4330708661417323
        },
        {
          "duration": 0.19767441860464885,
          "durationTicks": 17,
          "midi": 57,
          "name": "A3",
          "ticks": 2961,
          "time": 34.43023255813954,
          "velocity": 0.2125984251968504
        },
        {
          "duration": 0.1860465116279073,
          "durationTicks": 16,
          "midi": 66,
          "name": "F#4",
          "ticks": 2961,
          "time": 34.43023255813954,
          "velocity": 0.16535433070866143
        },
        {
          "duration": 0.15116279069767558,
          "durationTicks": 13,
          "midi": 72,
          "name": "C5",
          "ticks": 2961,
          "time": 34.43023255813954,
          "velocity": 0.11811023622047244
        },
        {
          "duration": 0.03488372093023173,
          "durationTicks": 3,
          "midi": 39,
          "name": "D#2",
          "ticks": 2964,
          "time": 34.46511627906977,
          "velocity": 0.4251968503937008
        },
        {
          "duration": 0.08139534883721211,
          "durationTicks": 7,
          "midi": 38,
          "name": "D2",
          "ticks": 2967,
          "time": 34.5,
          "velocity": 0.3779527559055118
        },
        {
          "duration": 0.12790697674418539,
          "durationTicks": 11,
          "midi": 88,
          "name": "E6",
          "ticks": 2967,
          "time": 34.5,
          "velocity": 0.07874015748031496
        },
        {
          "duration": 0.1046511627906952,
          "durationTicks": 9,
          "midi": 93,
          "name": "A6",
          "ticks": 2969,
          "time": 34.52325581395349,
          "velocity": 0.08661417322834646
        },
        {
          "duration": 0.03488372093023173,
          "durationTicks": 3,
          "midi": 38,
          "name": "D2",
          "ticks": 2976,
          "time": 34.604651162790695,
          "velocity": 0.14173228346456693
        },
        {
          "duration": 0.1046511627907023,
          "durationTicks": 9,
          "midi": 55,
          "name": "G3",
          "ticks": 2981,
          "time": 34.66279069767442,
          "velocity": 0.41732283464566927
        },
        {
          "duration": 0.11627906976744384,
          "durationTicks": 10,
          "midi": 67,
          "name": "G4",
          "ticks": 2981,
          "time": 34.66279069767442,
          "velocity": 0.4330708661417323
        },
        {
          "duration": 0.3139534883720927,
          "durationTicks": 27,
          "midi": 83,
          "name": "B5",
          "ticks": 2981,
          "time": 34.66279069767442,
          "velocity": 0.2283464566929134
        },
        {
          "duration": 0.046511627906973274,
          "durationTicks": 4,
          "midi": 50,
          "name": "D3",
          "ticks": 2982,
          "time": 34.674418604651166,
          "velocity": 0.33070866141732286
        },
        {
          "duration": 0.22093023255813904,
          "durationTicks": 19,
          "midi": 89,
          "name": "F6",
          "ticks": 2983,
          "time": 34.68604651162791,
          "velocity": 0.15748031496062992
        },
        {
          "duration": 0.05813953488372192,
          "durationTicks": 5,
          "midi": 93,
          "name": "A6",
          "ticks": 2985,
          "time": 34.7093023255814,
          "velocity": 0.07086614173228346
        },
        {
          "duration": 0.04651162790698038,
          "durationTicks": 4,
          "midi": 50,
          "name": "D3",
          "ticks": 2987,
          "time": 34.73255813953488,
          "velocity": 0.2440944881889764
        },
        {
          "duration": 0.09302325581395365,
          "durationTicks": 8,
          "midi": 55,
          "name": "G3",
          "ticks": 2991,
          "time": 34.77906976744186,
          "velocity": 0.4330708661417323
        },
        {
          "duration": 0.03488372093023173,
          "durationTicks": 3,
          "midi": 61,
          "name": "C#4",
          "ticks": 2991,
          "time": 34.77906976744186,
          "velocity": 0.09448818897637795
        },
        {
          "duration": 0.02325581395349019,
          "durationTicks": 2,
          "midi": 68,
          "name": "G#4",
          "ticks": 2991,
          "time": 34.77906976744186,
          "velocity": 0.3858267716535433
        },
        {
          "duration": 0.03488372093023173,
          "durationTicks": 3,
          "midi": 74,
          "name": "D5",
          "ticks": 2991,
          "time": 34.77906976744186,
          "velocity": 0.09448818897637795
        },
        {
          "duration": 0.12790697674418539,
          "durationTicks": 11,
          "midi": 86,
          "name": "D6",
          "ticks": 2991,
          "time": 34.77906976744186,
          "velocity": 0.11023622047244094
        },
        {
          "duration": 0.06976744186046346,
          "durationTicks": 6,
          "midi": 93,
          "name": "A6",
          "ticks": 2999,
          "time": 34.872093023255815,
          "velocity": 0.15748031496062992
        },
        {
          "duration": 0.12790697674418539,
          "durationTicks": 11,
          "midi": 62,
          "name": "D4",
          "ticks": 3000,
          "time": 34.883720930232556,
          "velocity": 0.2440944881889764
        },
        {
          "duration": 0.03488372093023173,
          "durationTicks": 3,
          "midi": 69,
          "name": "A4",
          "ticks": 3000,
          "time": 34.883720930232556,
          "velocity": 0.1732283464566929
        },
        {
          "duration": 0.1046511627907023,
          "durationTicks": 9,
          "midi": 72,
          "name": "C5",
          "ticks": 3000,
          "time": 34.883720930232556,
          "velocity": 0.14173228346456693
        },
        {
          "duration": 0.2093023255813904,
          "durationTicks": 18,
          "midi": 50,
          "name": "D3",
          "ticks": 3001,
          "time": 34.895348837209305,
          "velocity": 0.44881889763779526
        },
        {
          "duration": 0.03488372093023173,
          "durationTicks": 3,
          "midi": 39,
          "name": "D#2",
          "ticks": 3002,
          "time": 34.906976744186046,
          "velocity": 0.4251968503937008
        },
        {
          "duration": 0.02325581395349019,
          "durationTicks": 2,
          "midi": 66,
          "name": "F#4",
          "ticks": 3004,
          "time": 34.93023255813954,
          "velocity": 0.2283464566929134
        },
        {
          "duration": 0.04651162790698038,
          "durationTicks": 4,
          "midi": 38,
          "name": "D2",
          "ticks": 3005,
          "time": 34.94186046511628,
          "velocity": 0.4015748031496063
        },
        {
          "duration": 0.03488372093023173,
          "durationTicks": 3,
          "midi": 67,
          "name": "G4",
          "ticks": 3005,
          "time": 34.94186046511628,
          "velocity": 0.23622047244094488
        },
        {
          "duration": 0.04651162790698038,
          "durationTicks": 4,
          "midi": 76,
          "name": "E5",
          "ticks": 3005,
          "time": 34.94186046511628,
          "velocity": 0.07086614173228346
        },
        {
          "duration": 0.3604651162790731,
          "durationTicks": 31,
          "midi": 69,
          "name": "A4",
          "ticks": 3008,
          "time": 34.97674418604651,
          "velocity": 0.4645669291338583
        },
        {
          "duration": 0.06976744186046346,
          "durationTicks": 6,
          "midi": 93,
          "name": "A6",
          "ticks": 3008,
          "time": 34.97674418604651,
          "velocity": 0.13385826771653545
        },
        {
          "duration": 0.023255813953483084,
          "durationTicks": 2,
          "midi": 56,
          "name": "G#3",
          "ticks": 3009,
          "time": 34.98837209302326,
          "velocity": 0.47244094488188976
        },
        {
          "duration": 0.02325581395349019,
          "durationTicks": 2,
          "midi": 40,
          "name": "E2",
          "ticks": 3010,
          "time": 35,
          "velocity": 0.2992125984251969
        },
        {
          "duration": 0.03488372093023173,
          "durationTicks": 3,
          "midi": 72,
          "name": "C5",
          "ticks": 3010,
          "time": 35,
          "velocity": 0.18110236220472442
        },
        {
          "duration": 0.3604651162790731,
          "durationTicks": 31,
          "midi": 85,
          "name": "C#6",
          "ticks": 3010,
          "time": 35,
          "velocity": 0.25196850393700787
        },
        {
          "duration": 0.3139534883720927,
          "durationTicks": 27,
          "midi": 95,
          "name": "B6",
          "ticks": 3011,
          "time": 35.01162790697674,
          "velocity": 0.1732283464566929
        },
        {
          "duration": 0.06976744186046346,
          "durationTicks": 6,
          "midi": 57,
          "name": "A3",
          "ticks": 3013,
          "time": 35.03488372093023,
          "velocity": 0.3464566929133858
        },
        {
          "duration": 0.03488372093023884,
          "durationTicks": 3,
          "midi": 39,
          "name": "D#2",
          "ticks": 3014,
          "time": 35.04651162790697,
          "velocity": 0.2283464566929134
        },
        {
          "duration": 0.05813953488372192,
          "durationTicks": 5,
          "midi": 40,
          "name": "E2",
          "ticks": 3020,
          "time": 35.116279069767444,
          "velocity": 0.23622047244094488
        },
        {
          "duration": 0.03488372093023173,
          "durationTicks": 3,
          "midi": 57,
          "name": "A3",
          "ticks": 3020,
          "time": 35.116279069767444,
          "velocity": 0.36220472440944884
        },
        {
          "duration": 0.06976744186046346,
          "durationTicks": 6,
          "midi": 88,
          "name": "E6",
          "ticks": 3020,
          "time": 35.116279069767444,
          "velocity": 0.08661417322834646
        },
        {
          "duration": 0.06976744186047057,
          "durationTicks": 6,
          "midi": 91,
          "name": "G6",
          "ticks": 3022,
          "time": 35.13953488372093,
          "velocity": 0.10236220472440945
        },
        {
          "duration": 0.17441860465116577,
          "durationTicks": 15,
          "midi": 57,
          "name": "A3",
          "ticks": 3024,
          "time": 35.16279069767442,
          "velocity": 0.23622047244094488
        },
        {
          "duration": 0.17441860465115866,
          "durationTicks": 15,
          "midi": 60,
          "name": "C4",
          "ticks": 3039,
          "time": 35.33720930232558,
          "velocity": 0.5196850393700787
        },
        {
          "duration": 0.13953488372092693,
          "durationTicks": 12,
          "midi": 72,
          "name": "C5",
          "ticks": 3039,
          "time": 35.33720930232558,
          "velocity": 0.5275590551181102
        },
        {
          "duration": 0.17441860465115866,
          "durationTicks": 15,
          "midi": 88,
          "name": "E6",
          "ticks": 3039,
          "time": 35.33720930232558,
          "velocity": 0.16535433070866143
        },
        {
          "duration": 0.19767441860464885,
          "durationTicks": 17,
          "midi": 66,
          "name": "F#4",
          "ticks": 3040,
          "time": 35.348837209302324,
          "velocity": 0.25196850393700787
        },
        {
          "duration": 0.16279069767441712,
          "durationTicks": 14,
          "midi": 79,
          "name": "G5",
          "ticks": 3040,
          "time": 35.348837209302324,
          "velocity": 0.2677165354330709
        },
        {
          "duration": 0.08139534883721211,
          "durationTicks": 7,
          "midi": 94,
          "name": "A#6",
          "ticks": 3040,
          "time": 35.348837209302324,
          "velocity": 0.08661417322834646
        },
        {
          "duration": 0.2093023255813904,
          "durationTicks": 18,
          "midi": 50,
          "name": "D3",
          "ticks": 3041,
          "time": 35.36046511627907,
          "velocity": 0.4566929133858268
        },
        {
          "duration": 0.03488372093023173,
          "durationTicks": 3,
          "midi": 39,
          "name": "D#2",
          "ticks": 3042,
          "time": 35.372093023255815,
          "velocity": 0.4330708661417323
        },
        {
          "duration": 0.08139534883721211,
          "durationTicks": 7,
          "midi": 69,
          "name": "A4",
          "ticks": 3043,
          "time": 35.383720930232556,
          "velocity": 0.07874015748031496
        },
        {
          "duration": 0.08139534883721211,
          "durationTicks": 7,
          "midi": 76,
          "name": "E5",
          "ticks": 3045,
          "time": 35.406976744186046,
          "velocity": 0.15748031496062992
        },
        {
          "duration": 0.02325581395349019,
          "durationTicks": 2,
          "midi": 38,
          "name": "D2",
          "ticks": 3047,
          "time": 35.43023255813954,
          "velocity": 0.36220472440944884
        },
        {
          "duration": 0.11627906976744384,
          "durationTicks": 10,
          "midi": 71,
          "name": "B4",
          "ticks": 3050,
          "time": 35.46511627906977,
          "velocity": 0.4409448818897638
        },
        {
          "duration": 0.13953488372092693,
          "durationTicks": 12,
          "midi": 87,
          "name": "D#6",
          "ticks": 3050,
          "time": 35.46511627906977,
          "velocity": 0.18110236220472442
        },
        {
          "duration": 0.15116279069767558,
          "durationTicks": 13,
          "midi": 97,
          "name": "C#7",
          "ticks": 3050,
          "time": 35.46511627906977,
          "velocity": 0.13385826771653545
        },
        {
          "duration": 0.11627906976744384,
          "durationTicks": 10,
          "midi": 90,
          "name": "F#6",
          "ticks": 3051,
          "time": 35.47674418604651,
          "velocity": 0.08661417322834646
        },
        {
          "duration": 0.023255813953483084,
          "durationTicks": 2,
          "midi": 40,
          "name": "E2",
          "ticks": 3052,
          "time": 35.48837209302326,
          "velocity": 0.25196850393700787
        },
        {
          "duration": 0.023255813953483084,
          "durationTicks": 2,
          "midi": 60,
          "name": "C4",
          "ticks": 3055,
          "time": 35.52325581395349,
          "velocity": 0.3543307086614173
        },
        {
          "duration": 0.03488372093023884,
          "durationTicks": 3,
          "midi": 59,
          "name": "B3",
          "ticks": 3057,
          "time": 35.54651162790697,
          "velocity": 0.36220472440944884
        },
        {
          "duration": 0.03488372093023173,
          "durationTicks": 3,
          "midi": 57,
          "name": "A3",
          "ticks": 3060,
          "time": 35.58139534883721,
          "velocity": 0.4251968503937008
        },
        {
          "duration": 0.1046511627906952,
          "durationTicks": 9,
          "midi": 69,
          "name": "A4",
          "ticks": 3060,
          "time": 35.58139534883721,
          "velocity": 0.4409448818897638
        },
        {
          "duration": 0.03488372093023173,
          "durationTicks": 3,
          "midi": 76,
          "name": "E5",
          "ticks": 3060,
          "time": 35.58139534883721,
          "velocity": 0.07874015748031496
        },
        {
          "duration": 0.15116279069766847,
          "durationTicks": 13,
          "midi": 85,
          "name": "C#6",
          "ticks": 3060,
          "time": 35.58139534883721,
          "velocity": 0.1968503937007874
        },
        {
          "duration": 0.03488372093023173,
          "durationTicks": 3,
          "midi": 40,
          "name": "E2",
          "ticks": 3061,
          "time": 35.593023255813954,
          "velocity": 0.2440944881889764
        },
        {
          "duration": 0.13953488372092693,
          "durationTicks": 12,
          "midi": 91,
          "name": "G6",
          "ticks": 3061,
          "time": 35.593023255813954,
          "velocity": 0.10236220472440945
        },
        {
          "duration": 0.05813953488372192,
          "durationTicks": 5,
          "midi": 57,
          "name": "A3",
          "ticks": 3064,
          "time": 35.627906976744185,
          "velocity": 0.36220472440944884
        },
        {
          "duration": 0.3488372093023244,
          "durationTicks": 30,
          "midi": 67,
          "name": "G4",
          "ticks": 3069,
          "time": 35.68604651162791,
          "velocity": 0.4566929133858268
        },
        {
          "duration": 0.22093023255813904,
          "durationTicks": 19,
          "midi": 83,
          "name": "B5",
          "ticks": 3069,
          "time": 35.68604651162791,
          "velocity": 0.18110236220472442
        },
        {
          "duration": 0.02325581395349019,
          "durationTicks": 2,
          "midi": 39,
          "name": "D#2",
          "ticks": 3070,
          "time": 35.69767441860465,
          "velocity": 0.23622047244094488
        },
        {
          "duration": 0.081395348837205,
          "durationTicks": 7,
          "midi": 89,
          "name": "F6",
          "ticks": 3071,
          "time": 35.7093023255814,
          "velocity": 0.11023622047244094
        },
        {
          "duration": 0.1279069767441925,
          "durationTicks": 11,
          "midi": 55,
          "name": "G3",
          "ticks": 3073,
          "time": 35.73255813953488,
          "velocity": 0.5039370078740157
        },
        {
          "duration": 0.16279069767441712,
          "durationTicks": 14,
          "midi": 72,
          "name": "C5",
          "ticks": 3079,
          "time": 35.80232558139535,
          "velocity": 0.1732283464566929
        },
        {
          "duration": 0.05813953488372192,
          "durationTicks": 5,
          "midi": 74,
          "name": "D5",
          "ticks": 3079,
          "time": 35.80232558139535,
          "velocity": 0.14173228346456693
        },
        {
          "duration": 0.12790697674418539,
          "durationTicks": 11,
          "midi": 89,
          "name": "F6",
          "ticks": 3080,
          "time": 35.81395348837209,
          "velocity": 0.14960629921259844
        },
        {
          "duration": 0.2093023255813975,
          "durationTicks": 18,
          "midi": 50,
          "name": "D3",
          "ticks": 3081,
          "time": 35.825581395348834,
          "velocity": 0.4566929133858268
        },
        {
          "duration": 0.03488372093023173,
          "durationTicks": 3,
          "midi": 39,
          "name": "D#2",
          "ticks": 3082,
          "time": 35.83720930232558,
          "velocity": 0.4409448818897638
        },
        {
          "duration": 0.09302325581395365,
          "durationTicks": 8,
          "midi": 38,
          "name": "D2",
          "ticks": 3085,
          "time": 35.872093023255815,
          "velocity": 0.4094488188976378
        },
        {
          "duration": 0.023255813953483084,
          "durationTicks": 2,
          "midi": 56,
          "name": "G#3",
          "ticks": 3087,
          "time": 35.895348837209305,
          "velocity": 0.3700787401574803
        },
        {
          "duration": 0.09302325581395365,
          "durationTicks": 8,
          "midi": 83,
          "name": "B5",
          "ticks": 3089,
          "time": 35.91860465116279,
          "velocity": 0.12598425196850394
        },
        {
          "duration": 0.081395348837205,
          "durationTicks": 7,
          "midi": 55,
          "name": "G3",
          "ticks": 3092,
          "time": 35.95348837209303,
          "velocity": 0.3779527559055118
        },
        {
          "duration": 0.04651162790698038,
          "durationTicks": 4,
          "midi": 38,
          "name": "D2",
          "ticks": 3094,
          "time": 35.97674418604651,
          "velocity": 0.16535433070866143
        },
        {
          "duration": 0.4767441860465098,
          "durationTicks": 41,
          "midi": 69,
          "name": "A4",
          "ticks": 3098,
          "time": 36.02325581395349,
          "velocity": 0.4645669291338583
        },
        {
          "duration": 0.03488372093023173,
          "durationTicks": 3,
          "midi": 93,
          "name": "A6",
          "ticks": 3098,
          "time": 36.02325581395349,
          "velocity": 0.08661417322834646
        },
        {
          "duration": 0.03488372093023173,
          "durationTicks": 3,
          "midi": 56,
          "name": "G#3",
          "ticks": 3099,
          "time": 36.03488372093023,
          "velocity": 0.4566929133858268
        },
        {
          "duration": 0.24418604651162923,
          "durationTicks": 21,
          "midi": 85,
          "name": "C#6",
          "ticks": 3099,
          "time": 36.03488372093023,
          "velocity": 0.25196850393700787
        },
        {
          "duration": 0.25581395348837077,
          "durationTicks": 22,
          "midi": 95,
          "name": "B6",
          "ticks": 3099,
          "time": 36.03488372093023,
          "velocity": 0.1732283464566929
        },
        {
          "duration": 0.03488372093023884,
          "durationTicks": 3,
          "midi": 40,
          "name": "E2",
          "ticks": 3100,
          "time": 36.04651162790697,
          "velocity": 0.25196850393700787
        },
        {
          "duration": 0.081395348837205,
          "durationTicks": 7,
          "midi": 57,
          "name": "A3",
          "ticks": 3101,
          "time": 36.05813953488372,
          "velocity": 0.31496062992125984
        },
        {
          "duration": 0.02325581395349019,
          "durationTicks": 2,
          "midi": 56,
          "name": "G#3",
          "ticks": 3108,
          "time": 36.13953488372093,
          "velocity": 0.36220472440944884
        },
        {
          "duration": 0.081395348837205,
          "durationTicks": 7,
          "midi": 88,
          "name": "E6",
          "ticks": 3109,
          "time": 36.151162790697676,
          "velocity": 0.09448818897637795
        },
        {
          "duration": 0.02325581395349019,
          "durationTicks": 2,
          "midi": 57,
          "name": "A3",
          "ticks": 3110,
          "time": 36.16279069767442,
          "velocity": 0.33070866141732286
        },
        {
          "duration": 0.03488372093023173,
          "durationTicks": 3,
          "midi": 40,
          "name": "E2",
          "ticks": 3113,
          "time": 36.19767441860465,
          "velocity": 0.11811023622047244
        },
        {
          "duration": 0.2906976744186096,
          "durationTicks": 25,
          "midi": 57,
          "name": "A3",
          "ticks": 3113,
          "time": 36.19767441860465,
          "velocity": 0.3543307086614173
        },
        {
          "duration": 0.3604651162790731,
          "durationTicks": 31,
          "midi": 62,
          "name": "D4",
          "ticks": 3118,
          "time": 36.25581395348837,
          "velocity": 0.47244094488188976
        },
        {
          "duration": 0.22093023255813904,
          "durationTicks": 19,
          "midi": 66,
          "name": "F#4",
          "ticks": 3118,
          "time": 36.25581395348837,
          "velocity": 0.2283464566929134
        },
        {
          "duration": 0.03488372093023173,
          "durationTicks": 3,
          "midi": 84,
          "name": "C6",
          "ticks": 3118,
          "time": 36.25581395348837,
          "velocity": 0.14173228346456693
        },
        {
          "duration": 0.23255813953488058,
          "durationTicks": 20,
          "midi": 50,
          "name": "D3",
          "ticks": 3119,
          "time": 36.26744186046512,
          "velocity": 0.47244094488188976
        },
        {
          "duration": 0.15116279069766847,
          "durationTicks": 13,
          "midi": 72,
          "name": "C5",
          "ticks": 3119,
          "time": 36.26744186046512,
          "velocity": 0.14960629921259844
        },
        {
          "duration": 0.13953488372092693,
          "durationTicks": 12,
          "midi": 76,
          "name": "E5",
          "ticks": 3119,
          "time": 36.26744186046512,
          "velocity": 0.12598425196850394
        },
        {
          "duration": 0.046511627906973274,
          "durationTicks": 4,
          "midi": 82,
          "name": "A#5",
          "ticks": 3119,
          "time": 36.26744186046512,
          "velocity": 0.08661417322834646
        },
        {
          "duration": 0.046511627906973274,
          "durationTicks": 4,
          "midi": 39,
          "name": "D#2",
          "ticks": 3120,
          "time": 36.27906976744186,
          "velocity": 0.44881889763779526
        },
        {
          "duration": 0.1046511627907023,
          "durationTicks": 9,
          "midi": 80,
          "name": "G#5",
          "ticks": 3121,
          "time": 36.2906976744186,
          "velocity": 0.09448818897637795
        },
        {
          "duration": 0.16279069767441712,
          "durationTicks": 14,
          "midi": 84,
          "name": "C6",
          "ticks": 3123,
          "time": 36.31395348837209,
          "velocity": 0.14960629921259844
        },
        {
          "duration": 0.06976744186046346,
          "durationTicks": 6,
          "midi": 85,
          "name": "C#6",
          "ticks": 3123,
          "time": 36.31395348837209,
          "velocity": 0.08661417322834646
        },
        {
          "duration": 0.09302325581395365,
          "durationTicks": 8,
          "midi": 38,
          "name": "D2",
          "ticks": 3124,
          "time": 36.325581395348834,
          "velocity": 0.4015748031496063
        },
        {
          "duration": 0.03488372093023173,
          "durationTicks": 3,
          "midi": 90,
          "name": "F#6",
          "ticks": 3127,
          "time": 36.36046511627907,
          "velocity": 0.09448818897637795
        },
        {
          "duration": 0.05813953488372192,
          "durationTicks": 5,
          "midi": 38,
          "name": "D2",
          "ticks": 3133,
          "time": 36.43023255813954,
          "velocity": 0.1732283464566929
        },
        {
          "duration": 0.1046511627906952,
          "durationTicks": 9,
          "midi": 55,
          "name": "G3",
          "ticks": 3139,
          "time": 36.5,
          "velocity": 0.4251968503937008
        },
        {
          "duration": 0.11627906976744384,
          "durationTicks": 10,
          "midi": 67,
          "name": "G4",
          "ticks": 3139,
          "time": 36.5,
          "velocity": 0.4330708661417323
        },
        {
          "duration": 0.3139534883720927,
          "durationTicks": 27,
          "midi": 83,
          "name": "B5",
          "ticks": 3139,
          "time": 36.5,
          "velocity": 0.2283464566929134
        },
        {
          "duration": 0.02325581395349019,
          "durationTicks": 2,
          "midi": 50,
          "name": "D3",
          "ticks": 3140,
          "time": 36.51162790697674,
          "velocity": 0.29133858267716534
        },
        {
          "duration": 0.22093023255813904,
          "durationTicks": 19,
          "midi": 89,
          "name": "F6",
          "ticks": 3141,
          "time": 36.52325581395349,
          "velocity": 0.14960629921259844
        },
        {
          "duration": 0.05813953488372192,
          "durationTicks": 5,
          "midi": 93,
          "name": "A6",
          "ticks": 3143,
          "time": 36.54651162790697,
          "velocity": 0.07086614173228346
        },
        {
          "duration": 0.03488372093023173,
          "durationTicks": 3,
          "midi": 39,
          "name": "D#2",
          "ticks": 3146,
          "time": 36.58139534883721,
          "velocity": 0.14960629921259844
        },
        {
          "duration": 0.02325581395349019,
          "durationTicks": 2,
          "midi": 50,
          "name": "D3",
          "ticks": 3147,
          "time": 36.593023255813954,
          "velocity": 0.2283464566929134
        },
        {
          "duration": 0.09302325581395365,
          "durationTicks": 8,
          "midi": 55,
          "name": "G3",
          "ticks": 3149,
          "time": 36.616279069767444,
          "velocity": 0.4330708661417323
        },
        {
          "duration": 0.03488372093023173,
          "durationTicks": 3,
          "midi": 61,
          "name": "C#4",
          "ticks": 3149,
          "time": 36.616279069767444,
          "velocity": 0.10236220472440945
        },
        {
          "duration": 0.023255813953483084,
          "durationTicks": 2,
          "midi": 68,
          "name": "G#4",
          "ticks": 3149,
          "time": 36.616279069767444,
          "velocity": 0.3858267716535433
        },
        {
          "duration": 0.03488372093023173,
          "durationTicks": 3,
          "midi": 74,
          "name": "D5",
          "ticks": 3149,
          "time": 36.616279069767444,
          "velocity": 0.09448818897637795
        },
        {
          "duration": 0.12790697674418539,
          "durationTicks": 11,
          "midi": 86,
          "name": "D6",
          "ticks": 3149,
          "time": 36.616279069767444,
          "velocity": 0.11023622047244094
        },
        {
          "duration": 0.023255813953483084,
          "durationTicks": 2,
          "midi": 58,
          "name": "A#3",
          "ticks": 3157,
          "time": 36.7093023255814,
          "velocity": 0.25196850393700787
        },
        {
          "duration": 0.06976744186046346,
          "durationTicks": 6,
          "midi": 93,
          "name": "A6",
          "ticks": 3157,
          "time": 36.7093023255814,
          "velocity": 0.15748031496062992
        },
        {
          "duration": 0.12790697674418539,
          "durationTicks": 11,
          "midi": 62,
          "name": "D4",
          "ticks": 3158,
          "time": 36.72093023255814,
          "velocity": 0.2440944881889764
        },
        {
          "duration": 0.03488372093023173,
          "durationTicks": 3,
          "midi": 69,
          "name": "A4",
          "ticks": 3158,
          "time": 36.72093023255814,
          "velocity": 0.1732283464566929
        },
        {
          "duration": 0.1046511627906952,
          "durationTicks": 9,
          "midi": 72,
          "name": "C5",
          "ticks": 3158,
          "time": 36.72093023255814,
          "velocity": 0.14173228346456693
        },
        {
          "duration": 0.2093023255813975,
          "durationTicks": 18,
          "midi": 50,
          "name": "D3",
          "ticks": 3159,
          "time": 36.73255813953488,
          "velocity": 0.44881889763779526
        },
        {
          "duration": 0.09302325581395365,
          "durationTicks": 8,
          "midi": 76,
          "name": "E5",
          "ticks": 3159,
          "time": 36.73255813953488,
          "velocity": 0.07086614173228346
        },
        {
          "duration": 0.03488372093023173,
          "durationTicks": 3,
          "midi": 39,
          "name": "D#2",
          "ticks": 3160,
          "time": 36.74418604651163,
          "velocity": 0.4251968503937008
        },
        {
          "duration": 0.023255813953483084,
          "durationTicks": 2,
          "midi": 66,
          "name": "F#4",
          "ticks": 3162,
          "time": 36.76744186046512,
          "velocity": 0.2283464566929134
        },
        {
          "duration": 0.046511627906973274,
          "durationTicks": 4,
          "midi": 38,
          "name": "D2",
          "ticks": 3163,
          "time": 36.77906976744186,
          "velocity": 0.4015748031496063
        },
        {
          "duration": 0.03488372093023173,
          "durationTicks": 3,
          "midi": 67,
          "name": "G4",
          "ticks": 3163,
          "time": 36.77906976744186,
          "velocity": 0.23622047244094488
        },
        {
          "duration": 0.5930232558139537,
          "durationTicks": 51,
          "midi": 69,
          "name": "A4",
          "ticks": 3166,
          "time": 36.81395348837209,
          "velocity": 0.48031496062992124
        },
        {
          "duration": 0.06976744186046346,
          "durationTicks": 6,
          "midi": 93,
          "name": "A6",
          "ticks": 3166,
          "time": 36.81395348837209,
          "velocity": 0.13385826771653545
        },
        {
          "duration": 0.02325581395349019,
          "durationTicks": 2,
          "midi": 56,
          "name": "G#3",
          "ticks": 3167,
          "time": 36.825581395348834,
          "velocity": 0.47244094488188976
        },
        {
          "duration": 0.046511627906973274,
          "durationTicks": 4,
          "midi": 72,
          "name": "C5",
          "ticks": 3168,
          "time": 36.83720930232558,
          "velocity": 0.18110236220472442
        },
        {
          "duration": 0.36046511627906597,
          "durationTicks": 31,
          "midi": 85,
          "name": "C#6",
          "ticks": 3168,
          "time": 36.83720930232558,
          "velocity": 0.2440944881889764
        },
        {
          "duration": 0.3372093023255829,
          "durationTicks": 29,
          "midi": 95,
          "name": "B6",
          "ticks": 3169,
          "time": 36.848837209302324,
          "velocity": 0.1968503937007874
        },
        {
          "duration": 0.30232558139535115,
          "durationTicks": 26,
          "midi": 57,
          "name": "A3",
          "ticks": 3171,
          "time": 36.872093023255815,
          "velocity": 0.47244094488188976
        },
        {
          "duration": 0.03488372093023173,
          "durationTicks": 3,
          "midi": 39,
          "name": "D#2",
          "ticks": 3172,
          "time": 36.883720930232556,
          "velocity": 0.2283464566929134
        },
        {
          "duration": 0.03488372093023884,
          "durationTicks": 3,
          "midi": 38,
          "name": "D2",
          "ticks": 3175,
          "time": 36.91860465116279,
          "velocity": 0.14173228346456693
        },
        {
          "duration": 0.03488372093023173,
          "durationTicks": 3,
          "midi": 40,
          "name": "E2",
          "ticks": 3179,
          "time": 36.96511627906977,
          "velocity": 0.2125984251968504
        },
        {
          "duration": 0.03488372093023173,
          "durationTicks": 3,
          "midi": 76,
          "name": "E5",
          "ticks": 3179,
          "time": 36.96511627906977,
          "velocity": 0.07874015748031496
        },
        {
          "duration": 0.03488372093023173,
          "durationTicks": 3,
          "midi": 48,
          "name": "C3",
          "ticks": 3180,
          "time": 36.97674418604651,
          "velocity": 0.2047244094488189
        },
        {
          "duration": 0.17441860465115866,
          "durationTicks": 15,
          "midi": 91,
          "name": "G6",
          "ticks": 3181,
          "time": 36.98837209302326,
          "velocity": 0.10236220472440945
        },
        {
          "duration": 0.06976744186046346,
          "durationTicks": 6,
          "midi": 76,
          "name": "E5",
          "ticks": 3188,
          "time": 37.06976744186046,
          "velocity": 0.09448818897637795
        },
        {
          "duration": 0.3372093023255758,
          "durationTicks": 29,
          "midi": 62,
          "name": "D4",
          "ticks": 3197,
          "time": 37.174418604651166,
          "velocity": 0.47244094488188976
        },
        {
          "duration": 0.23255813953488058,
          "durationTicks": 20,
          "midi": 66,
          "name": "F#4",
          "ticks": 3197,
          "time": 37.174418604651166,
          "velocity": 0.2283464566929134
        },
        {
          "duration": 0.15116279069766847,
          "durationTicks": 13,
          "midi": 76,
          "name": "E5",
          "ticks": 3197,
          "time": 37.174418604651166,
          "velocity": 0.14173228346456693
        },
        {
          "duration": 0.03488372093023173,
          "durationTicks": 3,
          "midi": 84,
          "name": "C6",
          "ticks": 3197,
          "time": 37.174418604651166,
          "velocity": 0.14173228346456693
        },
        {
          "duration": 0.2093023255813975,
          "durationTicks": 18,
          "midi": 50,
          "name": "D3",
          "ticks": 3198,
          "time": 37.18604651162791,
          "velocity": 0.47244094488188976
        },
        {
          "duration": 0.2093023255813975,
          "durationTicks": 18,
          "midi": 57,
          "name": "A3",
          "ticks": 3198,
          "time": 37.18604651162791,
          "velocity": 0.3937007874015748
        },
        {
          "duration": 0.15116279069767558,
          "durationTicks": 13,
          "midi": 72,
          "name": "C5",
          "ticks": 3198,
          "time": 37.18604651162791,
          "velocity": 0.14173228346456693
        },
        {
          "duration": 0.04651162790698038,
          "durationTicks": 4,
          "midi": 39,
          "name": "D#2",
          "ticks": 3199,
          "time": 37.19767441860465,
          "velocity": 0.4409448818897638
        },
        {
          "duration": 0.04651162790698038,
          "durationTicks": 4,
          "midi": 90,
          "name": "F#6",
          "ticks": 3199,
          "time": 37.19767441860465,
          "velocity": 0.14960629921259844
        },
        {
          "duration": 0.1046511627906952,
          "durationTicks": 9,
          "midi": 80,
          "name": "G#5",
          "ticks": 3200,
          "time": 37.2093023255814,
          "velocity": 0.09448818897637795
        },
        {
          "duration": 0.17441860465116577,
          "durationTicks": 15,
          "midi": 84,
          "name": "C6",
          "ticks": 3202,
          "time": 37.23255813953488,
          "velocity": 0.14960629921259844
        },
        {
          "duration": 0.09302325581395365,
          "durationTicks": 8,
          "midi": 38,
          "name": "D2",
          "ticks": 3203,
          "time": 37.24418604651163,
          "velocity": 0.4094488188976378
        },
        {
          "duration": 0.05813953488372192,
          "durationTicks": 5,
          "midi": 85,
          "name": "C#6",
          "ticks": 3203,
          "time": 37.24418604651163,
          "velocity": 0.07874015748031496
        },
        {
          "duration": 0.03488372093023173,
          "durationTicks": 3,
          "midi": 38,
          "name": "D2",
          "ticks": 3212,
          "time": 37.348837209302324,
          "velocity": 0.16535433070866143
        },
        {
          "duration": 0.1046511627906952,
          "durationTicks": 9,
          "midi": 55,
          "name": "G3",
          "ticks": 3217,
          "time": 37.406976744186046,
          "velocity": 0.4094488188976378
        },
        {
          "duration": 0.11627906976744384,
          "durationTicks": 10,
          "midi": 67,
          "name": "G4",
          "ticks": 3217,
          "time": 37.406976744186046,
          "velocity": 0.4330708661417323
        },
        {
          "duration": 0.3139534883720927,
          "durationTicks": 27,
          "midi": 83,
          "name": "B5",
          "ticks": 3217,
          "time": 37.406976744186046,
          "velocity": 0.2283464566929134
        },
        {
          "duration": 0.23255813953488058,
          "durationTicks": 20,
          "midi": 89,
          "name": "F6",
          "ticks": 3219,
          "time": 37.43023255813954,
          "velocity": 0.15748031496062992
        },
        {
          "duration": 0.02325581395349019,
          "durationTicks": 2,
          "midi": 50,
          "name": "D3",
          "ticks": 3220,
          "time": 37.44186046511628,
          "velocity": 0.2677165354330709
        },
        {
          "duration": 0.11627906976743674,
          "durationTicks": 10,
          "midi": 55,
          "name": "G3",
          "ticks": 3227,
          "time": 37.52325581395349,
          "velocity": 0.4330708661417323
        },
        {
          "duration": 0.05813953488372192,
          "durationTicks": 5,
          "midi": 62,
          "name": "D4",
          "ticks": 3227,
          "time": 37.52325581395349,
          "velocity": 0.09448818897637795
        },
        {
          "duration": 0.023255813953483084,
          "durationTicks": 2,
          "midi": 68,
          "name": "G#4",
          "ticks": 3227,
          "time": 37.52325581395349,
          "velocity": 0.3858267716535433
        },
        {
          "duration": 0.09302325581395365,
          "durationTicks": 8,
          "midi": 93,
          "name": "A6",
          "ticks": 3236,
          "time": 37.627906976744185,
          "velocity": 0.1732283464566929
        },
        {
          "duration": 0.1279069767441925,
          "durationTicks": 11,
          "midi": 62,
          "name": "D4",
          "ticks": 3237,
          "time": 37.63953488372093,
          "velocity": 0.23622047244094488
        },
        {
          "duration": 0.04651162790698038,
          "durationTicks": 4,
          "midi": 69,
          "name": "A4",
          "ticks": 3237,
          "time": 37.63953488372093,
          "velocity": 0.18110236220472442
        },
        {
          "duration": 0.1046511627907023,
          "durationTicks": 9,
          "midi": 72,
          "name": "C5",
          "ticks": 3237,
          "time": 37.63953488372093,
          "velocity": 0.14960629921259844
        },
        {
          "duration": 0.19767441860464885,
          "durationTicks": 17,
          "midi": 50,
          "name": "D3",
          "ticks": 3238,
          "time": 37.651162790697676,
          "velocity": 0.44881889763779526
        },
        {
          "duration": 0.02325581395349019,
          "durationTicks": 2,
          "midi": 57,
          "name": "A3",
          "ticks": 3238,
          "time": 37.651162790697676,
          "velocity": 0.2992125984251969
        },
        {
          "duration": 0.02325581395349019,
          "durationTicks": 2,
          "midi": 67,
          "name": "G4",
          "ticks": 3238,
          "time": 37.651162790697676,
          "velocity": 0.25196850393700787
        },
        {
          "duration": 0.03488372093023173,
          "durationTicks": 3,
          "midi": 39,
          "name": "D#2",
          "ticks": 3239,
          "time": 37.66279069767442,
          "velocity": 0.4251968503937008
        },
        {
          "duration": 0.05813953488372192,
          "durationTicks": 5,
          "midi": 38,
          "name": "D2",
          "ticks": 3242,
          "time": 37.69767441860465,
          "velocity": 0.4015748031496063
        },
        {
          "duration": 0.02325581395349019,
          "durationTicks": 2,
          "midi": 67,
          "name": "G4",
          "ticks": 3242,
          "time": 37.69767441860465,
          "velocity": 0.25196850393700787
        },
        {
          "duration": 0.04651162790698038,
          "durationTicks": 4,
          "midi": 76,
          "name": "E5",
          "ticks": 3242,
          "time": 37.69767441860465,
          "velocity": 0.07086614173228346
        },
        {
          "duration": 0.05813953488372192,
          "durationTicks": 5,
          "midi": 57,
          "name": "A3",
          "ticks": 3245,
          "time": 37.73255813953488,
          "velocity": 0.4645669291338583
        },
        {
          "duration": 0.06976744186046346,
          "durationTicks": 6,
          "midi": 66,
          "name": "F#4",
          "ticks": 3246,
          "time": 37.74418604651163,
          "velocity": 0.2125984251968504
        },
        {
          "duration": 0.5930232558139537,
          "durationTicks": 51,
          "midi": 69,
          "name": "A4",
          "ticks": 3246,
          "time": 37.74418604651163,
          "velocity": 0.4645669291338583
        },
        {
          "duration": 0.3720930232558146,
          "durationTicks": 32,
          "midi": 85,
          "name": "C#6",
          "ticks": 3246,
          "time": 37.74418604651163,
          "velocity": 0.25196850393700787
        },
        {
          "duration": 0.02325581395349019,
          "durationTicks": 2,
          "midi": 40,
          "name": "E2",
          "ticks": 3247,
          "time": 37.75581395348837,
          "velocity": 0.2992125984251969
        },
        {
          "duration": 0.04651162790698038,
          "durationTicks": 4,
          "midi": 72,
          "name": "C5",
          "ticks": 3247,
          "time": 37.75581395348837,
          "velocity": 0.1889763779527559
        },
        {
          "duration": 0.32558139534883423,
          "durationTicks": 28,
          "midi": 95,
          "name": "B6",
          "ticks": 3248,
          "time": 37.76744186046512,
          "velocity": 0.1732283464566929
        },
        {
          "duration": 0.03488372093023173,
          "durationTicks": 3,
          "midi": 39,
          "name": "D#2",
          "ticks": 3251,
          "time": 37.80232558139535,
          "velocity": 0.23622047244094488
        },
        {
          "duration": 0.05813953488372192,
          "durationTicks": 5,
          "midi": 57,
          "name": "A3",
          "ticks": 3251,
          "time": 37.80232558139535,
          "velocity": 0.3464566929133858
        },
        {
          "duration": 0.02325581395349019,
          "durationTicks": 2,
          "midi": 56,
          "name": "G#3",
          "ticks": 3257,
          "time": 37.872093023255815,
          "velocity": 0.36220472440944884
        },
        {
          "duration": 0.06976744186046346,
          "durationTicks": 6,
          "midi": 88,
          "name": "E6",
          "ticks": 3257,
          "time": 37.872093023255815,
          "velocity": 0.08661417322834646
        },
        {
          "duration": 0.04651162790698038,
          "durationTicks": 4,
          "midi": 40,
          "name": "E2",
          "ticks": 3258,
          "time": 37.883720930232556,
          "velocity": 0.23622047244094488
        },
        {
          "duration": 0.17441860465116577,
          "durationTicks": 15,
          "midi": 57,
          "name": "A3",
          "ticks": 3261,
          "time": 37.91860465116279,
          "velocity": 0.2283464566929134
        },
        {
          "duration": 0.3372093023255829,
          "durationTicks": 29,
          "midi": 62,
          "name": "D4",
          "ticks": 3276,
          "time": 38.093023255813954,
          "velocity": 0.47244094488188976
        },
        {
          "duration": 0.2093023255813975,
          "durationTicks": 18,
          "midi": 66,
          "name": "F#4",
          "ticks": 3276,
          "time": 38.093023255813954,
          "velocity": 0.2283464566929134
        },
        {
          "duration": 0.03488372093023173,
          "durationTicks": 3,
          "midi": 84,
          "name": "C6",
          "ticks": 3276,
          "time": 38.093023255813954,
          "velocity": 0.14960629921259844
        },
        {
          "duration": 0.2325581395348877,
          "durationTicks": 20,
          "midi": 50,
          "name": "D3",
          "ticks": 3277,
          "time": 38.104651162790695,
          "velocity": 0.47244094488188976
        },
        {
          "duration": 0.13953488372093403,
          "durationTicks": 12,
          "midi": 72,
          "name": "C5",
          "ticks": 3277,
          "time": 38.104651162790695,
          "velocity": 0.14173228346456693
        },
        {
          "duration": 0.046511627906973274,
          "durationTicks": 4,
          "midi": 39,
          "name": "D#2",
          "ticks": 3278,
          "time": 38.116279069767444,
          "velocity": 0.4409448818897638
        },
        {
          "duration": 0.1860465116279073,
          "durationTicks": 16,
          "midi": 57,
          "name": "A3",
          "ticks": 3278,
          "time": 38.116279069767444,
          "velocity": 0.2677165354330709
        },
        {
          "duration": 0.03488372093023173,
          "durationTicks": 3,
          "midi": 82,
          "name": "A#5",
          "ticks": 3278,
          "time": 38.116279069767444,
          "velocity": 0.08661417322834646
        },
        {
          "duration": 0.046511627906973274,
          "durationTicks": 4,
          "midi": 90,
          "name": "F#6",
          "ticks": 3278,
          "time": 38.116279069767444,
          "velocity": 0.14960629921259844
        },
        {
          "duration": 0.09302325581395365,
          "durationTicks": 8,
          "midi": 80,
          "name": "G#5",
          "ticks": 3279,
          "time": 38.127906976744185,
          "velocity": 0.09448818897637795
        },
        {
          "duration": 0.17441860465115866,
          "durationTicks": 15,
          "midi": 84,
          "name": "C6",
          "ticks": 3281,
          "time": 38.151162790697676,
          "velocity": 0.14960629921259844
        },
        {
          "duration": 0.09302325581395365,
          "durationTicks": 8,
          "midi": 38,
          "name": "D2",
          "ticks": 3282,
          "time": 38.16279069767442,
          "velocity": 0.4015748031496063
        },
        {
          "duration": 0.11627906976743674,
          "durationTicks": 10,
          "midi": 88,
          "name": "E6",
          "ticks": 3286,
          "time": 38.2093023255814,
          "velocity": 0.07086614173228346
        },
        {
          "duration": 0.058139534883714816,
          "durationTicks": 5,
          "midi": 38,
          "name": "D2",
          "ticks": 3291,
          "time": 38.26744186046512,
          "velocity": 0.15748031496062992
        },
        {
          "duration": 0.09302325581395365,
          "durationTicks": 8,
          "midi": 55,
          "name": "G3",
          "ticks": 3297,
          "time": 38.33720930232558,
          "velocity": 0.4251968503937008
        },
        {
          "duration": 0.22093023255813904,
          "durationTicks": 19,
          "midi": 67,
          "name": "G4",
          "ticks": 3297,
          "time": 38.33720930232558,
          "velocity": 0.47244094488188976
        },
        {
          "duration": 0.2093023255813904,
          "durationTicks": 18,
          "midi": 83,
          "name": "B5",
          "ticks": 3297,
          "time": 38.33720930232558,
          "velocity": 0.18110236220472442
        },
        {
          "duration": 0.02325581395349019,
          "durationTicks": 2,
          "midi": 50,
          "name": "D3",
          "ticks": 3298,
          "time": 38.348837209302324,
          "velocity": 0.2992125984251969
        },
        {
          "duration": 0.2093023255813904,
          "durationTicks": 18,
          "midi": 89,
          "name": "F6",
          "ticks": 3299,
          "time": 38.36046511627907,
          "velocity": 0.15748031496062992
        },
        {
          "duration": 0.25581395348837077,
          "durationTicks": 22,
          "midi": 93,
          "name": "A6",
          "ticks": 3301,
          "time": 38.383720930232556,
          "velocity": 0.1889763779527559
        },
        {
          "duration": 0.03488372093023173,
          "durationTicks": 3,
          "midi": 62,
          "name": "D4",
          "ticks": 3306,
          "time": 38.44186046511628,
          "velocity": 0.10236220472440945
        },
        {
          "duration": 0.03488372093023173,
          "durationTicks": 3,
          "midi": 74,
          "name": "D5",
          "ticks": 3306,
          "time": 38.44186046511628,
          "velocity": 0.11023622047244094
        },
        {
          "duration": 0.046511627906973274,
          "durationTicks": 4,
          "midi": 55,
          "name": "G3",
          "ticks": 3310,
          "time": 38.48837209302326,
          "velocity": 0.2204724409448819
        },
        {
          "duration": 0.02325581395349019,
          "durationTicks": 2,
          "midi": 56,
          "name": "G#3",
          "ticks": 3314,
          "time": 38.53488372093023,
          "velocity": 0.31496062992125984
        },
        {
          "duration": 0.1860465116279073,
          "durationTicks": 16,
          "midi": 81,
          "name": "A5",
          "ticks": 3315,
          "time": 38.54651162790697,
          "velocity": 0.2677165354330709
        },
        {
          "duration": 0.17441860465115866,
          "durationTicks": 15,
          "midi": 57,
          "name": "A3",
          "ticks": 3316,
          "time": 38.55813953488372,
          "velocity": 0.3937007874015748
        },
        {
          "duration": 0.17441860465115866,
          "durationTicks": 15,
          "midi": 69,
          "name": "A4",
          "ticks": 3316,
          "time": 38.55813953488372,
          "velocity": 0.41732283464566927
        },
        {
          "duration": 0.13953488372092693,
          "durationTicks": 12,
          "midi": 85,
          "name": "C#6",
          "ticks": 3316,
          "time": 38.55813953488372,
          "velocity": 0.2047244094488189
        },
        {
          "duration": 0.19767441860465595,
          "durationTicks": 17,
          "midi": 50,
          "name": "D3",
          "ticks": 3317,
          "time": 38.56976744186046,
          "velocity": 0.4645669291338583
        },
        {
          "duration": 0.02325581395349019,
          "durationTicks": 2,
          "midi": 67,
          "name": "G4",
          "ticks": 3317,
          "time": 38.56976744186046,
          "velocity": 0.28346456692913385
        },
        {
          "duration": 0.13953488372093403,
          "durationTicks": 12,
          "midi": 72,
          "name": "C5",
          "ticks": 3317,
          "time": 38.56976744186046,
          "velocity": 0.11023622047244094
        },
        {
          "duration": 0.12790697674418539,
          "durationTicks": 11,
          "midi": 95,
          "name": "B6",
          "ticks": 3317,
          "time": 38.56976744186046,
          "velocity": 0.14960629921259844
        },
        {
          "duration": 0.03488372093023173,
          "durationTicks": 3,
          "midi": 39,
          "name": "D#2",
          "ticks": 3318,
          "time": 38.58139534883721,
          "velocity": 0.4566929133858268
        },
        {
          "duration": 0.16279069767441712,
          "durationTicks": 14,
          "midi": 66,
          "name": "F#4",
          "ticks": 3319,
          "time": 38.593023255813954,
          "velocity": 0.23622047244094488
        },
        {
          "duration": 0.09302325581395365,
          "durationTicks": 8,
          "midi": 38,
          "name": "D2",
          "ticks": 3321,
          "time": 38.616279069767444,
          "velocity": 0.3937007874015748
        },
        {
          "duration": 0.09302325581395365,
          "durationTicks": 8,
          "midi": 76,
          "name": "E5",
          "ticks": 3321,
          "time": 38.616279069767444,
          "velocity": 0.09448818897637795
        },
        {
          "duration": 0.04651162790698038,
          "durationTicks": 4,
          "midi": 38,
          "name": "D2",
          "ticks": 3331,
          "time": 38.73255813953488,
          "velocity": 0.14173228346456693
        },
        {
          "duration": 0.1860465116279073,
          "durationTicks": 16,
          "midi": 57,
          "name": "A3",
          "ticks": 3335,
          "time": 38.77906976744186,
          "velocity": 0.4251968503937008
        },
        {
          "duration": 0.22093023255813904,
          "durationTicks": 19,
          "midi": 66,
          "name": "F#4",
          "ticks": 3335,
          "time": 38.77906976744186,
          "velocity": 0.2283464566929134
        },
        {
          "duration": 0.17441860465116577,
          "durationTicks": 15,
          "midi": 69,
          "name": "A4",
          "ticks": 3336,
          "time": 38.7906976744186,
          "velocity": 0.4251968503937008
        },
        {
          "duration": 0.13953488372093403,
          "durationTicks": 12,
          "midi": 85,
          "name": "C#6",
          "ticks": 3336,
          "time": 38.7906976744186,
          "velocity": 0.2047244094488189
        },
        {
          "duration": 0.04651162790698038,
          "durationTicks": 4,
          "midi": 90,
          "name": "F#6",
          "ticks": 3336,
          "time": 38.7906976744186,
          "velocity": 0.09448818897637795
        },
        {
          "duration": 0.25581395348837077,
          "durationTicks": 22,
          "midi": 50,
          "name": "D3",
          "ticks": 3337,
          "time": 38.80232558139535,
          "velocity": 0.48031496062992124
        },
        {
          "duration": 0.13953488372092693,
          "durationTicks": 12,
          "midi": 72,
          "name": "C5",
          "ticks": 3337,
          "time": 38.80232558139535,
          "velocity": 0.09448818897637795
        },
        {
          "duration": 0.12790697674418539,
          "durationTicks": 11,
          "midi": 95,
          "name": "B6",
          "ticks": 3337,
          "time": 38.80232558139535,
          "velocity": 0.12598425196850394
        },
        {
          "duration": 0.02325581395349019,
          "durationTicks": 2,
          "midi": 39,
          "name": "D#2",
          "ticks": 3338,
          "time": 38.81395348837209,
          "velocity": 0.4645669291338583
        },
        {
          "duration": 0.11627906976744384,
          "durationTicks": 10,
          "midi": 80,
          "name": "G#5",
          "ticks": 3338,
          "time": 38.81395348837209,
          "velocity": 0.11811023622047244
        },
        {
          "duration": 0.1046511627906952,
          "durationTicks": 9,
          "midi": 38,
          "name": "D2",
          "ticks": 3340,
          "time": 38.83720930232558,
          "velocity": 0.4094488188976378
        },
        {
          "duration": 0.03488372093023173,
          "durationTicks": 3,
          "midi": 91,
          "name": "G6",
          "ticks": 3340,
          "time": 38.83720930232558,
          "velocity": 0.11023622047244094
        },
        {
          "duration": 0.081395348837205,
          "durationTicks": 7,
          "midi": 76,
          "name": "E5",
          "ticks": 3342,
          "time": 38.86046511627907,
          "velocity": 0.07874015748031496
        },
        {
          "duration": 0.09302325581395365,
          "durationTicks": 8,
          "midi": 38,
          "name": "D2",
          "ticks": 3351,
          "time": 38.96511627906977,
          "velocity": 0.14960629921259844
        },
        {
          "duration": 0.11627906976743674,
          "durationTicks": 10,
          "midi": 57,
          "name": "A3",
          "ticks": 3364,
          "time": 39.116279069767444,
          "velocity": 0.4409448818897638
        },
        {
          "duration": 0.02325581395349019,
          "durationTicks": 2,
          "midi": 41,
          "name": "F2",
          "ticks": 3365,
          "time": 39.127906976744185,
          "velocity": 0.44881889763779526
        },
        {
          "duration": 0.1046511627906952,
          "durationTicks": 9,
          "midi": 72,
          "name": "C5",
          "ticks": 3365,
          "time": 39.127906976744185,
          "velocity": 0.14173228346456693
        },
        {
          "duration": 0.30232558139535115,
          "durationTicks": 26,
          "midi": 76,
          "name": "E5",
          "ticks": 3365,
          "time": 39.127906976744185,
          "velocity": 0.15748031496062992
        },
        {
          "duration": 0.25581395348837077,
          "durationTicks": 22,
          "midi": 85,
          "name": "C#6",
          "ticks": 3365,
          "time": 39.127906976744185,
          "velocity": 0.23622047244094488
        },
        {
          "duration": 0.03488372093023173,
          "durationTicks": 3,
          "midi": 91,
          "name": "G6",
          "ticks": 3365,
          "time": 39.127906976744185,
          "velocity": 0.14173228346456693
        },
        {
          "duration": 0.25581395348837077,
          "durationTicks": 22,
          "midi": 95,
          "name": "B6",
          "ticks": 3365,
          "time": 39.127906976744185,
          "velocity": 0.16535433070866143
        },
        {
          "duration": 0.1046511627907023,
          "durationTicks": 9,
          "midi": 50,
          "name": "D3",
          "ticks": 3366,
          "time": 39.13953488372093,
          "velocity": 0.4645669291338583
        },
        {
          "duration": 0.30232558139535115,
          "durationTicks": 26,
          "midi": 66,
          "name": "F#4",
          "ticks": 3366,
          "time": 39.13953488372093,
          "velocity": 0.2125984251968504
        },
        {
          "duration": 0.03488372093023173,
          "durationTicks": 3,
          "midi": 39,
          "name": "D#2",
          "ticks": 3368,
          "time": 39.16279069767442,
          "velocity": 0.4409448818897638
        },
        {
          "duration": 0.06976744186046346,
          "durationTicks": 6,
          "midi": 80,
          "name": "G#5",
          "ticks": 3368,
          "time": 39.16279069767442,
          "velocity": 0.10236220472440945
        },
        {
          "duration": 0.03488372093023173,
          "durationTicks": 3,
          "midi": 91,
          "name": "G6",
          "ticks": 3370,
          "time": 39.18604651162791,
          "velocity": 0.11023622047244094
        },
        {
          "duration": 0.03488372093023173,
          "durationTicks": 3,
          "midi": 38,
          "name": "D2",
          "ticks": 3371,
          "time": 39.19767441860465,
          "velocity": 0.3937007874015748
        },
        {
          "duration": 0.02325581395349019,
          "durationTicks": 2,
          "midi": 58,
          "name": "A#3",
          "ticks": 3374,
          "time": 39.23255813953488,
          "velocity": 0.4094488188976378
        },
        {
          "duration": 0.02325581395349019,
          "durationTicks": 2,
          "midi": 40,
          "name": "E2",
          "ticks": 3375,
          "time": 39.24418604651163,
          "velocity": 0.5039370078740157
        },
        {
          "duration": 0.13953488372092693,
          "durationTicks": 12,
          "midi": 72,
          "name": "C5",
          "ticks": 3375,
          "time": 39.24418604651163,
          "velocity": 0.1732283464566929
        },
        {
          "duration": 0.19767441860465595,
          "durationTicks": 17,
          "midi": 50,
          "name": "D3",
          "ticks": 3376,
          "time": 39.25581395348837,
          "velocity": 0.47244094488188976
        },
        {
          "duration": 0.22093023255813904,
          "durationTicks": 19,
          "midi": 57,
          "name": "A3",
          "ticks": 3376,
          "time": 39.25581395348837,
          "velocity": 0.4251968503937008
        },
        {
          "duration": 0.1046511627907023,
          "durationTicks": 9,
          "midi": 82,
          "name": "A#5",
          "ticks": 3376,
          "time": 39.25581395348837,
          "velocity": 0.11811023622047244
        },
        {
          "duration": 0.06976744186046346,
          "durationTicks": 6,
          "midi": 91,
          "name": "G6",
          "ticks": 3376,
          "time": 39.25581395348837,
          "velocity": 0.10236220472440945
        },
        {
          "duration": 0.03488372093023173,
          "durationTicks": 3,
          "midi": 39,
          "name": "D#2",
          "ticks": 3377,
          "time": 39.26744186046512,
          "velocity": 0.47244094488188976
        },
        {
          "duration": 0.09302325581395365,
          "durationTicks": 8,
          "midi": 38,
          "name": "D2",
          "ticks": 3380,
          "time": 39.30232558139535,
          "velocity": 0.36220472440944884
        },
        {
          "duration": 0.03488372093023884,
          "durationTicks": 3,
          "midi": 38,
          "name": "D2",
          "ticks": 3390,
          "time": 39.41860465116279,
          "velocity": 0.11811023622047244
        },
        {
          "duration": 0.23255813953488058,
          "durationTicks": 20,
          "midi": 79,
          "name": "G5",
          "ticks": 3394,
          "time": 39.46511627906977,
          "velocity": 0.2755905511811024
        },
        {
          "duration": 0.02325581395349019,
          "durationTicks": 2,
          "midi": 55,
          "name": "G3",
          "ticks": 3395,
          "time": 39.47674418604651,
          "velocity": 0.47244094488188976
        },
        {
          "duration": 0.22093023255813904,
          "durationTicks": 19,
          "midi": 72,
          "name": "C5",
          "ticks": 3395,
          "time": 39.47674418604651,
          "velocity": 0.1732283464566929
        },
        {
          "duration": 0.22093023255813904,
          "durationTicks": 19,
          "midi": 93,
          "name": "A6",
          "ticks": 3395,
          "time": 39.47674418604651,
          "velocity": 0.16535433070866143
        },
        {
          "duration": 0.22093023255813904,
          "durationTicks": 19,
          "midi": 50,
          "name": "D3",
          "ticks": 3396,
          "time": 39.48837209302326,
          "velocity": 0.47244094488188976
        },
        {
          "duration": 0.19767441860464885,
          "durationTicks": 17,
          "midi": 83,
          "name": "B5",
          "ticks": 3396,
          "time": 39.48837209302326,
          "velocity": 0.2125984251968504
        },
        {
          "duration": 0.1046511627906952,
          "durationTicks": 9,
          "midi": 89,
          "name": "F6",
          "ticks": 3396,
          "time": 39.48837209302326,
          "velocity": 0.11023622047244094
        },
        {
          "duration": 0.02325581395349019,
          "durationTicks": 2,
          "midi": 57,
          "name": "A3",
          "ticks": 3397,
          "time": 39.5,
          "velocity": 0.3464566929133858
        },
        {
          "duration": 0.02325581395349019,
          "durationTicks": 2,
          "midi": 39,
          "name": "D#2",
          "ticks": 3398,
          "time": 39.51162790697674,
          "velocity": 0.44881889763779526
        },
        {
          "duration": 0.1046511627906952,
          "durationTicks": 9,
          "midi": 86,
          "name": "D6",
          "ticks": 3399,
          "time": 39.52325581395349,
          "velocity": 0.07874015748031496
        },
        {
          "duration": 0.09302325581395365,
          "durationTicks": 8,
          "midi": 38,
          "name": "D2",
          "ticks": 3400,
          "time": 39.53488372093023,
          "velocity": 0.4251968503937008
        },
        {
          "duration": 0.02325581395349019,
          "durationTicks": 2,
          "midi": 56,
          "name": "G#3",
          "ticks": 3406,
          "time": 39.604651162790695,
          "velocity": 0.33070866141732286
        },
        {
          "duration": 0.02325581395349019,
          "durationTicks": 2,
          "midi": 57,
          "name": "A3",
          "ticks": 3408,
          "time": 39.627906976744185,
          "velocity": 0.2755905511811024
        },
        {
          "duration": 0.05813953488372192,
          "durationTicks": 5,
          "midi": 38,
          "name": "D2",
          "ticks": 3409,
          "time": 39.63953488372093,
          "velocity": 0.28346456692913385
        },
        {
          "duration": 0.46511627906976827,
          "durationTicks": 40,
          "midi": 69,
          "name": "A4",
          "ticks": 3414,
          "time": 39.69767441860465,
          "velocity": 0.4409448818897638
        },
        {
          "duration": 0.03488372093023173,
          "durationTicks": 3,
          "midi": 73,
          "name": "C#5",
          "ticks": 3414,
          "time": 39.69767441860465,
          "velocity": 0.10236220472440945
        },
        {
          "duration": 0.09302325581395365,
          "durationTicks": 8,
          "midi": 90,
          "name": "F#6",
          "ticks": 3414,
          "time": 39.69767441860465,
          "velocity": 0.12598425196850394
        },
        {
          "duration": 0.1046511627906952,
          "durationTicks": 9,
          "midi": 57,
          "name": "A3",
          "ticks": 3415,
          "time": 39.7093023255814,
          "velocity": 0.4409448818897638
        },
        {
          "duration": 0.12790697674418539,
          "durationTicks": 11,
          "midi": 66,
          "name": "F#4",
          "ticks": 3415,
          "time": 39.7093023255814,
          "velocity": 0.2755905511811024
        },
        {
          "duration": 0.48837209302325135,
          "durationTicks": 42,
          "midi": 85,
          "name": "C#6",
          "ticks": 3415,
          "time": 39.7093023255814,
          "velocity": 0.23622047244094488
        },
        {
          "duration": 0.2093023255813975,
          "durationTicks": 18,
          "midi": 50,
          "name": "D3",
          "ticks": 3416,
          "time": 39.72093023255814,
          "velocity": 0.5354330708661418
        },
        {
          "duration": 0.04651162790698038,
          "durationTicks": 4,
          "midi": 84,
          "name": "C6",
          "ticks": 3416,
          "time": 39.72093023255814,
          "velocity": 0.08661417322834646
        },
        {
          "duration": 0.06976744186046346,
          "durationTicks": 6,
          "midi": 91,
          "name": "G6",
          "ticks": 3416,
          "time": 39.72093023255814,
          "velocity": 0.11811023622047244
        },
        {
          "duration": 0.22093023255813904,
          "durationTicks": 19,
          "midi": 95,
          "name": "B6",
          "ticks": 3416,
          "time": 39.72093023255814,
          "velocity": 0.1732283464566929
        },
        {
          "duration": 0.03488372093023884,
          "durationTicks": 3,
          "midi": 39,
          "name": "D#2",
          "ticks": 3417,
          "time": 39.73255813953488,
          "velocity": 0.4881889763779528
        },
        {
          "duration": 0.19767441860465595,
          "durationTicks": 17,
          "midi": 72,
          "name": "C5",
          "ticks": 3417,
          "time": 39.73255813953488,
          "velocity": 0.18110236220472442
        },
        {
          "duration": 0.046511627906973274,
          "durationTicks": 4,
          "midi": 38,
          "name": "D2",
          "ticks": 3420,
          "time": 39.76744186046512,
          "velocity": 0.4251968503937008
        },
        {
          "duration": 0.17441860465116577,
          "durationTicks": 15,
          "midi": 80,
          "name": "G#5",
          "ticks": 3421,
          "time": 39.77906976744186,
          "velocity": 0.2047244094488189
        },
        {
          "duration": 0.03488372093023173,
          "durationTicks": 3,
          "midi": 56,
          "name": "G#3",
          "ticks": 3424,
          "time": 39.81395348837209,
          "velocity": 0.4015748031496063
        },
        {
          "duration": 0.05813953488372192,
          "durationTicks": 5,
          "midi": 82,
          "name": "A#5",
          "ticks": 3424,
          "time": 39.81395348837209,
          "velocity": 0.11811023622047244
        },
        {
          "duration": 0.09302325581395365,
          "durationTicks": 8,
          "midi": 90,
          "name": "F#6",
          "ticks": 3424,
          "time": 39.81395348837209,
          "velocity": 0.14173228346456693
        },
        {
          "duration": 0.09302325581395365,
          "durationTicks": 8,
          "midi": 91,
          "name": "G6",
          "ticks": 3424,
          "time": 39.81395348837209,
          "velocity": 0.12598425196850394
        },
        {
          "duration": 0.08139534883721211,
          "durationTicks": 7,
          "midi": 88,
          "name": "E6",
          "ticks": 3425,
          "time": 39.825581395348834,
          "velocity": 0.08661417322834646
        },
        {
          "duration": 0.02325581395349019,
          "durationTicks": 2,
          "midi": 40,
          "name": "E2",
          "ticks": 3426,
          "time": 39.83720930232558,
          "velocity": 0.4330708661417323
        },
        {
          "duration": 0.08139534883721211,
          "durationTicks": 7,
          "midi": 57,
          "name": "A3",
          "ticks": 3427,
          "time": 39.848837209302324,
          "velocity": 0.25984251968503935
        },
        {
          "duration": 0.023255813953483084,
          "durationTicks": 2,
          "midi": 39,
          "name": "D#2",
          "ticks": 3428,
          "time": 39.86046511627907,
          "velocity": 0.3700787401574803
        },
        {
          "duration": 0.15116279069766847,
          "durationTicks": 13,
          "midi": 76,
          "name": "E5",
          "ticks": 3428,
          "time": 39.86046511627907,
          "velocity": 0.09448818897637795
        },
        {
          "duration": 0.05813953488372192,
          "durationTicks": 5,
          "midi": 66,
          "name": "F#4",
          "ticks": 3429,
          "time": 39.872093023255815,
          "velocity": 0.11811023622047244
        },
        {
          "duration": 0.04651162790698038,
          "durationTicks": 4,
          "midi": 38,
          "name": "D2",
          "ticks": 3430,
          "time": 39.883720930232556,
          "velocity": 0.33858267716535434
        },
        {
          "duration": 0.03488372093023173,
          "durationTicks": 3,
          "midi": 48,
          "name": "C3",
          "ticks": 3434,
          "time": 39.93023255813954,
          "velocity": 0.5196850393700787
        },
        {
          "duration": 0.5348837209302317,
          "durationTicks": 46,
          "midi": 74,
          "name": "D5",
          "ticks": 3436,
          "time": 39.95348837209303,
          "velocity": 0.33070866141732286
        },
        {
          "duration": 0.046511627906973274,
          "durationTicks": 4,
          "midi": 78,
          "name": "F#5",
          "ticks": 3436,
          "time": 39.95348837209303,
          "velocity": 0.2047244094488189
        },
        {
          "duration": 0.23255813953488058,
          "durationTicks": 20,
          "midi": 62,
          "name": "D4",
          "ticks": 3437,
          "time": 39.96511627906977,
          "velocity": 0.4409448818897638
        },
        {
          "duration": 0.03488372093023173,
          "durationTicks": 3,
          "midi": 92,
          "name": "G#6",
          "ticks": 3437,
          "time": 39.96511627906977,
          "velocity": 0.10236220472440945
        },
        {
          "duration": 0.02325581395349019,
          "durationTicks": 2,
          "midi": 51,
          "name": "D#3",
          "ticks": 3438,
          "time": 39.97674418604651,
          "velocity": 0.47244094488188976
        },
        {
          "duration": 0.17441860465116577,
          "durationTicks": 15,
          "midi": 57,
          "name": "A3",
          "ticks": 3438,
          "time": 39.97674418604651,
          "velocity": 0.14173228346456693
        },
        {
          "duration": 0.16279069767441712,
          "durationTicks": 14,
          "midi": 84,
          "name": "C6",
          "ticks": 3438,
          "time": 39.97674418604651,
          "velocity": 0.1732283464566929
        },
        {
          "duration": 0.12790697674418539,
          "durationTicks": 11,
          "midi": 78,
          "name": "F#5",
          "ticks": 3441,
          "time": 40.01162790697674,
          "velocity": 0.14173228346456693
        },
        {
          "duration": 0.06976744186047057,
          "durationTicks": 6,
          "midi": 79,
          "name": "G5",
          "ticks": 3441,
          "time": 40.01162790697674,
          "velocity": 0.11811023622047244
        },
        {
          "duration": 0.023255813953483084,
          "durationTicks": 2,
          "midi": 50,
          "name": "D3",
          "ticks": 3442,
          "time": 40.02325581395349,
          "velocity": 0.4645669291338583
        },
        {
          "duration": 0.02325581395349019,
          "durationTicks": 2,
          "midi": 49,
          "name": "C#3",
          "ticks": 3445,
          "time": 40.05813953488372,
          "velocity": 0.41732283464566927
        },
        {
          "duration": 0.04651162790698038,
          "durationTicks": 4,
          "midi": 67,
          "name": "G4",
          "ticks": 3446,
          "time": 40.06976744186046,
          "velocity": 0.14173228346456693
        },
        {
          "duration": 0.023255813953483084,
          "durationTicks": 2,
          "midi": 50,
          "name": "D3",
          "ticks": 3447,
          "time": 40.08139534883721,
          "velocity": 0.4251968503937008
        },
        {
          "duration": 0.02325581395349019,
          "durationTicks": 2,
          "midi": 45,
          "name": "A2",
          "ticks": 3448,
          "time": 40.093023255813954,
          "velocity": 0.3700787401574803
        },
        {
          "duration": 0.2674418604651194,
          "durationTicks": 23,
          "midi": 83,
          "name": "B5",
          "ticks": 3452,
          "time": 40.13953488372093,
          "velocity": 0.2047244094488189
        },
        {
          "duration": 0.02325581395349019,
          "durationTicks": 2,
          "midi": 45,
          "name": "A2",
          "ticks": 3453,
          "time": 40.151162790697676,
          "velocity": 0.5433070866141733
        },
        {
          "duration": 0.02325581395349019,
          "durationTicks": 2,
          "midi": 67,
          "name": "G4",
          "ticks": 3453,
          "time": 40.151162790697676,
          "velocity": 0.3937007874015748
        },
        {
          "duration": 0.081395348837205,
          "durationTicks": 7,
          "midi": 88,
          "name": "E6",
          "ticks": 3453,
          "time": 40.151162790697676,
          "velocity": 0.1732283464566929
        },
        {
          "duration": 0.11627906976744384,
          "durationTicks": 10,
          "midi": 55,
          "name": "G3",
          "ticks": 3454,
          "time": 40.16279069767442,
          "velocity": 0.4330708661417323
        },
        {
          "duration": 0.05813953488372192,
          "durationTicks": 5,
          "midi": 78,
          "name": "F#5",
          "ticks": 3454,
          "time": 40.16279069767442,
          "velocity": 0.18110236220472442
        },
        {
          "duration": 0.011627906976741542,
          "durationTicks": 1,
          "midi": 47,
          "name": "B2",
          "ticks": 3455,
          "time": 40.174418604651166,
          "velocity": 0.5354330708661418
        },
        {
          "duration": 0.023255813953483084,
          "durationTicks": 2,
          "midi": 60,
          "name": "C4",
          "ticks": 3455,
          "time": 40.174418604651166,
          "velocity": 0.30708661417322836
        },
        {
          "duration": 0.046511627906973274,
          "durationTicks": 4,
          "midi": 37,
          "name": "C#2",
          "ticks": 3456,
          "time": 40.18604651162791,
          "velocity": 0.4645669291338583
        },
        {
          "duration": 0.24418604651162923,
          "durationTicks": 21,
          "midi": 67,
          "name": "G4",
          "ticks": 3456,
          "time": 40.18604651162791,
          "velocity": 0.4645669291338583
        },
        {
          "duration": 0.046511627906973274,
          "durationTicks": 4,
          "midi": 82,
          "name": "A#5",
          "ticks": 3456,
          "time": 40.18604651162791,
          "velocity": 0.09448818897637795
        },
        {
          "duration": 0.046511627906973274,
          "durationTicks": 4,
          "midi": 89,
          "name": "F6",
          "ticks": 3458,
          "time": 40.2093023255814,
          "velocity": 0.11811023622047244
        },
        {
          "duration": 0.04651162790698038,
          "durationTicks": 4,
          "midi": 48,
          "name": "C3",
          "ticks": 3459,
          "time": 40.22093023255814,
          "velocity": 0.4566929133858268
        },
        {
          "duration": 0.03488372093023173,
          "durationTicks": 3,
          "midi": 69,
          "name": "A4",
          "ticks": 3459,
          "time": 40.22093023255814,
          "velocity": 0.14960629921259844
        },
        {
          "duration": 0.04651162790698038,
          "durationTicks": 4,
          "midi": 36,
          "name": "C2",
          "ticks": 3460,
          "time": 40.23255813953488,
          "velocity": 0.3937007874015748
        },
        {
          "duration": 0.13953488372093403,
          "durationTicks": 12,
          "midi": 64,
          "name": "E4",
          "ticks": 3460,
          "time": 40.23255813953488,
          "velocity": 0.2047244094488189
        },
        {
          "duration": 0.03488372093023173,
          "durationTicks": 3,
          "midi": 78,
          "name": "F#5",
          "ticks": 3461,
          "time": 40.24418604651163,
          "velocity": 0.10236220472440945
        },
        {
          "duration": 0.02325581395349019,
          "durationTicks": 2,
          "midi": 49,
          "name": "C#3",
          "ticks": 3465,
          "time": 40.2906976744186,
          "velocity": 0.3464566929133858
        },
        {
          "duration": 0.09302325581395365,
          "durationTicks": 8,
          "midi": 55,
          "name": "G3",
          "ticks": 3465,
          "time": 40.2906976744186,
          "velocity": 0.4251968503937008
        },
        {
          "duration": 0.13953488372093403,
          "durationTicks": 12,
          "midi": 89,
          "name": "F6",
          "ticks": 3465,
          "time": 40.2906976744186,
          "velocity": 0.14173228346456693
        },
        {
          "duration": 0.02325581395349019,
          "durationTicks": 2,
          "midi": 47,
          "name": "B2",
          "ticks": 3467,
          "time": 40.31395348837209,
          "velocity": 0.3700787401574803
        },
        {
          "duration": 0.03488372093023884,
          "durationTicks": 3,
          "midi": 36,
          "name": "C2",
          "ticks": 3468,
          "time": 40.325581395348834,
          "velocity": 0.31496062992125984
        },
        {
          "duration": 0.03488372093023173,
          "durationTicks": 3,
          "midi": 48,
          "name": "C3",
          "ticks": 3469,
          "time": 40.33720930232558,
          "velocity": 0.33858267716535434
        },
        {
          "duration": 0.046511627906973274,
          "durationTicks": 4,
          "midi": 70,
          "name": "A#4",
          "ticks": 3469,
          "time": 40.33720930232558,
          "velocity": 0.15748031496062992
        },
        {
          "duration": 0.24418604651162923,
          "durationTicks": 21,
          "midi": 50,
          "name": "D3",
          "ticks": 3472,
          "time": 40.372093023255815,
          "velocity": 0.44881889763779526
        },
        {
          "duration": 0.02325581395349019,
          "durationTicks": 2,
          "midi": 56,
          "name": "G#3",
          "ticks": 3473,
          "time": 40.383720930232556,
          "velocity": 0.3779527559055118
        },
        {
          "duration": 0.2325581395348877,
          "durationTicks": 20,
          "midi": 72,
          "name": "C5",
          "ticks": 3473,
          "time": 40.383720930232556,
          "velocity": 0.1968503937007874
        },
        {
          "duration": 0.720930232558139,
          "durationTicks": 62,
          "midi": 76,
          "name": "E5",
          "ticks": 3473,
          "time": 40.383720930232556,
          "velocity": 0.15748031496062992
        },
        {
          "duration": 0.05813953488372192,
          "durationTicks": 5,
          "midi": 38,
          "name": "D2",
          "ticks": 3475,
          "time": 40.406976744186046,
          "velocity": 0.44881889763779526
        },
        {
          "duration": 0.03488372093023884,
          "durationTicks": 3,
          "midi": 69,
          "name": "A4",
          "ticks": 3476,
          "time": 40.41860465116279,
          "velocity": 0.14960629921259844
        },
        {
          "duration": 0.03488372093023173,
          "durationTicks": 3,
          "midi": 57,
          "name": "A3",
          "ticks": 3477,
          "time": 40.43023255813954,
          "velocity": 0.33858267716535434
        },
        {
          "duration": 0.05813953488372192,
          "durationTicks": 5,
          "midi": 67,
          "name": "G4",
          "ticks": 3478,
          "time": 40.44186046511628,
          "velocity": 0.28346456692913385
        },
        {
          "duration": 0.02325581395349019,
          "durationTicks": 2,
          "midi": 38,
          "name": "D2",
          "ticks": 3481,
          "time": 40.47674418604651,
          "velocity": 0.30708661417322836
        },
        {
          "duration": 0.02325581395349019,
          "durationTicks": 2,
          "midi": 57,
          "name": "A3",
          "ticks": 3481,
          "time": 40.47674418604651,
          "velocity": 0.33070866141732286
        },
        {
          "duration": 0.5813953488372121,
          "durationTicks": 50,
          "midi": 69,
          "name": "A4",
          "ticks": 3483,
          "time": 40.5,
          "velocity": 0.47244094488188976
        },
        {
          "duration": 0.6279069767441854,
          "durationTicks": 54,
          "midi": 85,
          "name": "C#6",
          "ticks": 3483,
          "time": 40.5,
          "velocity": 0.2440944881889764
        },
        {
          "duration": 0.3372093023255829,
          "durationTicks": 29,
          "midi": 95,
          "name": "B6",
          "ticks": 3484,
          "time": 40.51162790697674,
          "velocity": 0.1732283464566929
        },
        {
          "duration": 0.09302325581395365,
          "durationTicks": 8,
          "midi": 66,
          "name": "F#4",
          "ticks": 3486,
          "time": 40.53488372093023,
          "velocity": 0.1732283464566929
        },
        {
          "duration": 0.06976744186047057,
          "durationTicks": 6,
          "midi": 38,
          "name": "D2",
          "ticks": 3487,
          "time": 40.54651162790697,
          "velocity": 0.3228346456692913
        },
        {
          "duration": 0.05813953488372192,
          "durationTicks": 5,
          "midi": 57,
          "name": "A3",
          "ticks": 3488,
          "time": 40.55813953488372,
          "velocity": 0.31496062992125984
        },
        {
          "duration": 0.03488372093023173,
          "durationTicks": 3,
          "midi": 56,
          "name": "G#3",
          "ticks": 3493,
          "time": 40.616279069767444,
          "velocity": 0.3700787401574803
        },
        {
          "duration": 0.03488372093023173,
          "durationTicks": 3,
          "midi": 91,
          "name": "G6",
          "ticks": 3493,
          "time": 40.616279069767444,
          "velocity": 0.08661417322834646
        },
        {
          "duration": 0.02325581395349019,
          "durationTicks": 2,
          "midi": 40,
          "name": "E2",
          "ticks": 3494,
          "time": 40.627906976744185,
          "velocity": 0.48031496062992124
        },
        {
          "duration": 0.05813953488372192,
          "durationTicks": 5,
          "midi": 90,
          "name": "F#6",
          "ticks": 3494,
          "time": 40.627906976744185,
          "velocity": 0.08661417322834646
        },
        {
          "duration": 0.19767441860465595,
          "durationTicks": 17,
          "midi": 50,
          "name": "D3",
          "ticks": 3495,
          "time": 40.63953488372093,
          "velocity": 0.44881889763779526
        },
        {
          "duration": 0.22093023255814614,
          "durationTicks": 19,
          "midi": 66,
          "name": "F#4",
          "ticks": 3495,
          "time": 40.63953488372093,
          "velocity": 0.2047244094488189
        },
        {
          "duration": 0.2093023255813975,
          "durationTicks": 18,
          "midi": 72,
          "name": "C5",
          "ticks": 3495,
          "time": 40.63953488372093,
          "velocity": 0.18110236220472442
        },
        {
          "duration": 0.02325581395349019,
          "durationTicks": 2,
          "midi": 39,
          "name": "D#2",
          "ticks": 3496,
          "time": 40.651162790697676,
          "velocity": 0.48031496062992124
        },
        {
          "duration": 0.06976744186046346,
          "durationTicks": 6,
          "midi": 57,
          "name": "A3",
          "ticks": 3496,
          "time": 40.651162790697676,
          "velocity": 0.2677165354330709
        },
        {
          "duration": 0.058139534883714816,
          "durationTicks": 5,
          "midi": 38,
          "name": "D2",
          "ticks": 3498,
          "time": 40.674418604651166,
          "velocity": 0.4251968503937008
        },
        {
          "duration": 0.03488372093023173,
          "durationTicks": 3,
          "midi": 91,
          "name": "G6",
          "ticks": 3498,
          "time": 40.674418604651166,
          "velocity": 0.11811023622047244
        },
        {
          "duration": 0.02325581395349019,
          "durationTicks": 2,
          "midi": 39,
          "name": "D#2",
          "ticks": 3503,
          "time": 40.73255813953488,
          "velocity": 0.3700787401574803
        },
        {
          "duration": 0.09302325581395365,
          "durationTicks": 8,
          "midi": 57,
          "name": "A3",
          "ticks": 3503,
          "time": 40.73255813953488,
          "velocity": 0.4094488188976378
        },
        {
          "duration": 0.3720930232558146,
          "durationTicks": 32,
          "midi": 62,
          "name": "D4",
          "ticks": 3503,
          "time": 40.73255813953488,
          "velocity": 0.4566929133858268
        },
        {
          "duration": 0.081395348837205,
          "durationTicks": 7,
          "midi": 91,
          "name": "G6",
          "ticks": 3504,
          "time": 40.74418604651163,
          "velocity": 0.14960629921259844
        },
        {
          "duration": 0.02325581395349019,
          "durationTicks": 2,
          "midi": 38,
          "name": "D2",
          "ticks": 3510,
          "time": 40.81395348837209,
          "velocity": 0.28346456692913385
        },
        {
          "duration": 0.011627906976748648,
          "durationTicks": 1,
          "midi": 50,
          "name": "D3",
          "ticks": 3513,
          "time": 40.848837209302324,
          "velocity": 0.5433070866141733
        },
        {
          "duration": 0.22093023255813904,
          "durationTicks": 19,
          "midi": 84,
          "name": "C6",
          "ticks": 3513,
          "time": 40.848837209302324,
          "velocity": 0.2125984251968504
        },
        {
          "duration": 0.011627906976741542,
          "durationTicks": 1,
          "midi": 48,
          "name": "C3",
          "ticks": 3514,
          "time": 40.86046511627907,
          "velocity": 0.5590551181102362
        },
        {
          "duration": 0.046511627906973274,
          "durationTicks": 4,
          "midi": 78,
          "name": "F#5",
          "ticks": 3514,
          "time": 40.86046511627907,
          "velocity": 0.1889763779527559
        },
        {
          "duration": 0.1046511627906952,
          "durationTicks": 9,
          "midi": 50,
          "name": "D3",
          "ticks": 3515,
          "time": 40.872093023255815,
          "velocity": 0.5354330708661418
        },
        {
          "duration": 0.03488372093023173,
          "durationTicks": 3,
          "midi": 92,
          "name": "G#6",
          "ticks": 3515,
          "time": 40.872093023255815,
          "velocity": 0.11023622047244094
        },
        {
          "duration": 0.09302325581395365,
          "durationTicks": 8,
          "midi": 79,
          "name": "G5",
          "ticks": 3517,
          "time": 40.895348837209305,
          "velocity": 0.13385826771653545
        },
        {
          "duration": 0.12790697674418539,
          "durationTicks": 11,
          "midi": 78,
          "name": "F#5",
          "ticks": 3519,
          "time": 40.91860465116279,
          "velocity": 0.13385826771653545
        },
        {
          "duration": 0.06976744186046346,
          "durationTicks": 6,
          "midi": 57,
          "name": "A3",
          "ticks": 3522,
          "time": 40.95348837209303,
          "velocity": 0.11811023622047244
        },
        {
          "duration": 0.08139534883721211,
          "durationTicks": 7,
          "midi": 67,
          "name": "G4",
          "ticks": 3524,
          "time": 40.97674418604651,
          "velocity": 0.11811023622047244
        },
        {
          "duration": 0.03488372093023173,
          "durationTicks": 3,
          "midi": 50,
          "name": "D3",
          "ticks": 3525,
          "time": 40.98837209302326,
          "velocity": 0.4409448818897638
        },
        {
          "duration": 0.02325581395349019,
          "durationTicks": 2,
          "midi": 45,
          "name": "A2",
          "ticks": 3526,
          "time": 41,
          "velocity": 0.3700787401574803
        },
        {
          "duration": 0.40697674418604635,
          "durationTicks": 35,
          "midi": 79,
          "name": "G5",
          "ticks": 3532,
          "time": 41.06976744186046,
          "velocity": 0.25196850393700787
        },
        {
          "duration": 0.023255813953483084,
          "durationTicks": 2,
          "midi": 60,
          "name": "C4",
          "ticks": 3533,
          "time": 41.08139534883721,
          "velocity": 0.28346456692913385
        },
        {
          "duration": 0.023255813953483084,
          "durationTicks": 2,
          "midi": 68,
          "name": "G#4",
          "ticks": 3533,
          "time": 41.08139534883721,
          "velocity": 0.4094488188976378
        },
        {
          "duration": 0.3139534883720927,
          "durationTicks": 27,
          "midi": 83,
          "name": "B5",
          "ticks": 3533,
          "time": 41.08139534883721,
          "velocity": 0.2283464566929134
        },
        {
          "duration": 0.03488372093023173,
          "durationTicks": 3,
          "midi": 89,
          "name": "F6",
          "ticks": 3533,
          "time": 41.08139534883721,
          "velocity": 0.08661417322834646
        },
        {
          "duration": 0.011627906976741542,
          "durationTicks": 1,
          "midi": 47,
          "name": "B2",
          "ticks": 3534,
          "time": 41.093023255813954,
          "velocity": 0.5275590551181102
        },
        {
          "duration": 0.04651162790698038,
          "durationTicks": 4,
          "midi": 37,
          "name": "C#2",
          "ticks": 3535,
          "time": 41.104651162790695,
          "velocity": 0.4566929133858268
        },
        {
          "duration": 0.08139534883721211,
          "durationTicks": 7,
          "midi": 55,
          "name": "G3",
          "ticks": 3535,
          "time": 41.104651162790695,
          "velocity": 0.3464566929133858
        },
        {
          "duration": 0.08139534883721211,
          "durationTicks": 7,
          "midi": 67,
          "name": "G4",
          "ticks": 3535,
          "time": 41.104651162790695,
          "velocity": 0.3937007874015748
        },
        {
          "duration": 0.04651162790698038,
          "durationTicks": 4,
          "midi": 82,
          "name": "A#5",
          "ticks": 3535,
          "time": 41.104651162790695,
          "velocity": 0.09448818897637795
        },
        {
          "duration": 0.08139534883721211,
          "durationTicks": 7,
          "midi": 93,
          "name": "A6",
          "ticks": 3535,
          "time": 41.104651162790695,
          "velocity": 0.07874015748031496
        },
        {
          "duration": 0.06976744186046346,
          "durationTicks": 6,
          "midi": 78,
          "name": "F#5",
          "ticks": 3536,
          "time": 41.116279069767444,
          "velocity": 0.13385826771653545
        },
        {
          "duration": 0.04651162790698038,
          "durationTicks": 4,
          "midi": 89,
          "name": "F6",
          "ticks": 3537,
          "time": 41.127906976744185,
          "velocity": 0.11023622047244094
        },
        {
          "duration": 0.02325581395349019,
          "durationTicks": 2,
          "midi": 47,
          "name": "B2",
          "ticks": 3538,
          "time": 41.13953488372093,
          "velocity": 0.4409448818897638
        },
        {
          "duration": 0.03488372093023884,
          "durationTicks": 3,
          "midi": 69,
          "name": "A4",
          "ticks": 3538,
          "time": 41.13953488372093,
          "velocity": 0.14173228346456693
        },
        {
          "duration": 0.046511627906973274,
          "durationTicks": 4,
          "midi": 36,
          "name": "C2",
          "ticks": 3539,
          "time": 41.151162790697676,
          "velocity": 0.4015748031496063
        },
        {
          "duration": 0.15116279069767558,
          "durationTicks": 13,
          "midi": 60,
          "name": "C4",
          "ticks": 3539,
          "time": 41.151162790697676,
          "velocity": 0.2677165354330709
        },
        {
          "duration": 0.15116279069767558,
          "durationTicks": 13,
          "midi": 64,
          "name": "E4",
          "ticks": 3539,
          "time": 41.151162790697676,
          "velocity": 0.2125984251968504
        },
        {
          "duration": 0.02325581395349019,
          "durationTicks": 2,
          "midi": 68,
          "name": "G#4",
          "ticks": 3542,
          "time": 41.18604651162791,
          "velocity": 0.3464566929133858
        },
        {
          "duration": 0.02325581395349019,
          "durationTicks": 2,
          "midi": 37,
          "name": "C#2",
          "ticks": 3543,
          "time": 41.19767441860465,
          "velocity": 0.3779527559055118
        },
        {
          "duration": 0.02325581395349019,
          "durationTicks": 2,
          "midi": 47,
          "name": "B2",
          "ticks": 3543,
          "time": 41.19767441860465,
          "velocity": 0.3937007874015748
        },
        {
          "duration": 0.02325581395349019,
          "durationTicks": 2,
          "midi": 55,
          "name": "G3",
          "ticks": 3543,
          "time": 41.19767441860465,
          "velocity": 0.36220472440944884
        },
        {
          "duration": 0.13953488372093403,
          "durationTicks": 12,
          "midi": 89,
          "name": "F6",
          "ticks": 3543,
          "time": 41.19767441860465,
          "velocity": 0.14173228346456693
        },
        {
          "duration": 0.13953488372092693,
          "durationTicks": 12,
          "midi": 67,
          "name": "G4",
          "ticks": 3544,
          "time": 41.2093023255814,
          "velocity": 0.4015748031496063
        },
        {
          "duration": 0.02325581395349019,
          "durationTicks": 2,
          "midi": 34,
          "name": "A#1",
          "ticks": 3546,
          "time": 41.23255813953488,
          "velocity": 0.2283464566929134
        },
        {
          "duration": 0.06976744186046346,
          "durationTicks": 6,
          "midi": 55,
          "name": "G3",
          "ticks": 3547,
          "time": 41.24418604651163,
          "velocity": 0.29133858267716534
        },
        {
          "duration": 0.04651162790698038,
          "durationTicks": 4,
          "midi": 36,
          "name": "C2",
          "ticks": 3548,
          "time": 41.25581395348837,
          "velocity": 0.30708661417322836
        },
        {
          "duration": 0.058139534883714816,
          "durationTicks": 5,
          "midi": 48,
          "name": "C3",
          "ticks": 3549,
          "time": 41.26744186046512,
          "velocity": 0.49606299212598426
        },
        {
          "duration": 0.23255813953488058,
          "durationTicks": 20,
          "midi": 62,
          "name": "D4",
          "ticks": 3552,
          "time": 41.30232558139535,
          "velocity": 0.28346456692913385
        },
        {
          "duration": 0.046511627906973274,
          "durationTicks": 4,
          "midi": 78,
          "name": "F#5",
          "ticks": 3552,
          "time": 41.30232558139535,
          "velocity": 0.07086614173228346
        },
        {
          "duration": 0.09302325581395365,
          "durationTicks": 8,
          "midi": 93,
          "name": "A6",
          "ticks": 3552,
          "time": 41.30232558139535,
          "velocity": 0.18110236220472442
        },
        {
          "duration": 0.22093023255813904,
          "durationTicks": 19,
          "midi": 72,
          "name": "C5",
          "ticks": 3553,
          "time": 41.31395348837209,
          "velocity": 0.1889763779527559
        },
        {
          "duration": 0.02325581395349019,
          "durationTicks": 2,
          "midi": 38,
          "name": "D2",
          "ticks": 3555,
          "time": 41.33720930232558,
          "velocity": 0.4566929133858268
        },
        {
          "duration": 0.046511627906973274,
          "durationTicks": 4,
          "midi": 39,
          "name": "D#2",
          "ticks": 3557,
          "time": 41.36046511627907,
          "velocity": 0.4094488188976378
        },
        {
          "duration": 0.03488372093023173,
          "durationTicks": 3,
          "midi": 67,
          "name": "G4",
          "ticks": 3557,
          "time": 41.36046511627907,
          "velocity": 0.2677165354330709
        },
        {
          "duration": 0.058139534883714816,
          "durationTicks": 5,
          "midi": 76,
          "name": "E5",
          "ticks": 3557,
          "time": 41.36046511627907,
          "velocity": 0.08661417322834646
        },
        {
          "duration": 0.09302325581395365,
          "durationTicks": 8,
          "midi": 57,
          "name": "A3",
          "ticks": 3558,
          "time": 41.372093023255815,
          "velocity": 0.4566929133858268
        },
        {
          "duration": 0.6046511627906952,
          "durationTicks": 52,
          "midi": 69,
          "name": "A4",
          "ticks": 3560,
          "time": 41.395348837209305,
          "velocity": 0.4566929133858268
        },
        {
          "duration": 0.04651162790698038,
          "durationTicks": 4,
          "midi": 38,
          "name": "D2",
          "ticks": 3561,
          "time": 41.406976744186046,
          "velocity": 0.36220472440944884
        },
        {
          "duration": 0.3720930232558146,
          "durationTicks": 32,
          "midi": 66,
          "name": "F#4",
          "ticks": 3562,
          "time": 41.41860465116279,
          "velocity": 0.25196850393700787
        },
        {
          "duration": 0.6279069767441854,
          "durationTicks": 54,
          "midi": 85,
          "name": "C#6",
          "ticks": 3562,
          "time": 41.41860465116279,
          "velocity": 0.25196850393700787
        },
        {
          "duration": 0.3488372093023244,
          "durationTicks": 30,
          "midi": 95,
          "name": "B6",
          "ticks": 3563,
          "time": 41.43023255813954,
          "velocity": 0.1889763779527559
        },
        {
          "duration": 0.023255813953483084,
          "durationTicks": 2,
          "midi": 36,
          "name": "C2",
          "ticks": 3565,
          "time": 41.45348837209303,
          "velocity": 0.25984251968503935
        },
        {
          "duration": 0.2906976744186096,
          "durationTicks": 25,
          "midi": 57,
          "name": "A3",
          "ticks": 3567,
          "time": 41.47674418604651,
          "velocity": 0.48031496062992124
        },
        {
          "duration": 0.03488372093023173,
          "durationTicks": 3,
          "midi": 39,
          "name": "D#2",
          "ticks": 3568,
          "time": 41.48837209302326,
          "velocity": 0.29133858267716534
        },
        {
          "duration": 0.2093023255813975,
          "durationTicks": 18,
          "midi": 50,
          "name": "D3",
          "ticks": 3573,
          "time": 41.54651162790697,
          "velocity": 0.4645669291338583
        },
        {
          "duration": 0.05813953488372192,
          "durationTicks": 5,
          "midi": 84,
          "name": "C6",
          "ticks": 3573,
          "time": 41.54651162790697,
          "velocity": 0.08661417322834646
        },
        {
          "duration": 0.03488372093023173,
          "durationTicks": 3,
          "midi": 39,
          "name": "D#2",
          "ticks": 3574,
          "time": 41.55813953488372,
          "velocity": 0.4645669291338583
        },
        {
          "duration": 0.22093023255813904,
          "durationTicks": 19,
          "midi": 72,
          "name": "C5",
          "ticks": 3575,
          "time": 41.56976744186046,
          "velocity": 0.1889763779527559
        },
        {
          "duration": 0.40697674418604635,
          "durationTicks": 35,
          "midi": 76,
          "name": "E5",
          "ticks": 3576,
          "time": 41.58139534883721,
          "velocity": 0.1968503937007874
        },
        {
          "duration": 0.03488372093023173,
          "durationTicks": 3,
          "midi": 91,
          "name": "G6",
          "ticks": 3576,
          "time": 41.58139534883721,
          "velocity": 0.11023622047244094
        },
        {
          "duration": 0.05813953488372192,
          "durationTicks": 5,
          "midi": 38,
          "name": "D2",
          "ticks": 3577,
          "time": 41.593023255813954,
          "velocity": 0.4251968503937008
        },
        {
          "duration": 0.023255813953483084,
          "durationTicks": 2,
          "midi": 37,
          "name": "C#2",
          "ticks": 3584,
          "time": 41.674418604651166,
          "velocity": 0.2440944881889764
        },
        {
          "duration": 0.04651162790698038,
          "durationTicks": 4,
          "midi": 91,
          "name": "G6",
          "ticks": 3586,
          "time": 41.69767441860465,
          "velocity": 0.09448818897637795
        },
        {
          "duration": 0.05813953488372192,
          "durationTicks": 5,
          "midi": 38,
          "name": "D2",
          "ticks": 3587,
          "time": 41.7093023255814,
          "velocity": 0.3228346456692913
        },
        {
          "duration": 0.02325581395349019,
          "durationTicks": 2,
          "midi": 60,
          "name": "C4",
          "ticks": 3593,
          "time": 41.77906976744186,
          "velocity": 0.2283464566929134
        },
        {
          "duration": 0.12790697674418539,
          "durationTicks": 11,
          "midi": 74,
          "name": "D5",
          "ticks": 3593,
          "time": 41.77906976744186,
          "velocity": 0.3228346456692913
        },
        {
          "duration": 0.03488372093023173,
          "durationTicks": 3,
          "midi": 77,
          "name": "F5",
          "ticks": 3593,
          "time": 41.77906976744186,
          "velocity": 0.14173228346456693
        },
        {
          "duration": 0.16279069767441712,
          "durationTicks": 14,
          "midi": 79,
          "name": "G5",
          "ticks": 3593,
          "time": 41.77906976744186,
          "velocity": 0.15748031496062992
        },
        {
          "duration": 0.19767441860464885,
          "durationTicks": 17,
          "midi": 84,
          "name": "C6",
          "ticks": 3593,
          "time": 41.77906976744186,
          "velocity": 0.2047244094488189
        },
        {
          "duration": 0.08139534883721211,
          "durationTicks": 7,
          "midi": 45,
          "name": "A2",
          "ticks": 3594,
          "time": 41.7906976744186,
          "velocity": 0.5196850393700787
        },
        {
          "duration": 0.02325581395349019,
          "durationTicks": 2,
          "midi": 51,
          "name": "D#3",
          "ticks": 3596,
          "time": 41.81395348837209,
          "velocity": 0.4330708661417323
        },
        {
          "duration": 0.04651162790698038,
          "durationTicks": 4,
          "midi": 61,
          "name": "C#4",
          "ticks": 3597,
          "time": 41.825581395348834,
          "velocity": 0.30708661417322836
        },
        {
          "duration": 0.023255813953483084,
          "durationTicks": 2,
          "midi": 50,
          "name": "D3",
          "ticks": 3600,
          "time": 41.86046511627907,
          "velocity": 0.4409448818897638
        },
        {
          "duration": 0.05813953488372192,
          "durationTicks": 5,
          "midi": 57,
          "name": "A3",
          "ticks": 3603,
          "time": 41.895348837209305,
          "velocity": 0.07874015748031496
        },
        {
          "duration": 0.02325581395349019,
          "durationTicks": 2,
          "midi": 50,
          "name": "D3",
          "ticks": 3605,
          "time": 41.91860465116279,
          "velocity": 0.41732283464566927
        },
        {
          "duration": 0.02325581395349019,
          "durationTicks": 2,
          "midi": 45,
          "name": "A2",
          "ticks": 3606,
          "time": 41.93023255813954,
          "velocity": 0.3700787401574803
        },
        {
          "duration": 0.03488372093023173,
          "durationTicks": 3,
          "midi": 67,
          "name": "G4",
          "ticks": 3607,
          "time": 41.94186046511628,
          "velocity": 0.09448818897637795
        },
        {
          "duration": 0.03488372093023173,
          "durationTicks": 3,
          "midi": 78,
          "name": "F#5",
          "ticks": 3607,
          "time": 41.94186046511628,
          "velocity": 0.07086614173228346
        },
        {
          "duration": 0.023255813953483084,
          "durationTicks": 2,
          "midi": 45,
          "name": "A2",
          "ticks": 3611,
          "time": 41.98837209302326,
          "velocity": 0.5433070866141733
        },
        {
          "duration": 0.023255813953483084,
          "durationTicks": 2,
          "midi": 67,
          "name": "G4",
          "ticks": 3611,
          "time": 41.98837209302326,
          "velocity": 0.3937007874015748
        },
        {
          "duration": 0.32558139534883423,
          "durationTicks": 28,
          "midi": 83,
          "name": "B5",
          "ticks": 3611,
          "time": 41.98837209302326,
          "velocity": 0.2204724409448819
        },
        {
          "duration": 0.081395348837205,
          "durationTicks": 7,
          "midi": 88,
          "name": "E6",
          "ticks": 3611,
          "time": 41.98837209302326,
          "velocity": 0.16535433070866143
        },
        {
          "duration": 0.1046511627906952,
          "durationTicks": 9,
          "midi": 55,
          "name": "G3",
          "ticks": 3612,
          "time": 42,
          "velocity": 0.4330708661417323
        },
        {
          "duration": 0.05813953488372192,
          "durationTicks": 5,
          "midi": 78,
          "name": "F#5",
          "ticks": 3612,
          "time": 42,
          "velocity": 0.16535433070866143
        },
        {
          "duration": 0.011627906976748648,
          "durationTicks": 1,
          "midi": 47,
          "name": "B2",
          "ticks": 3613,
          "time": 42.01162790697674,
          "velocity": 0.5354330708661418
        },
        {
          "duration": 0.02325581395349019,
          "durationTicks": 2,
          "midi": 60,
          "name": "C4",
          "ticks": 3613,
          "time": 42.01162790697674,
          "velocity": 0.30708661417322836
        },
        {
          "duration": 0.046511627906973274,
          "durationTicks": 4,
          "midi": 37,
          "name": "C#2",
          "ticks": 3614,
          "time": 42.02325581395349,
          "velocity": 0.4566929133858268
        },
        {
          "duration": 0.046511627906973274,
          "durationTicks": 4,
          "midi": 82,
          "name": "A#5",
          "ticks": 3614,
          "time": 42.02325581395349,
          "velocity": 0.07874015748031496
        },
        {
          "duration": 0.17441860465116577,
          "durationTicks": 15,
          "midi": 60,
          "name": "C4",
          "ticks": 3616,
          "time": 42.04651162790697,
          "velocity": 0.29133858267716534
        },
        {
          "duration": 0.04651162790698038,
          "durationTicks": 4,
          "midi": 89,
          "name": "F6",
          "ticks": 3616,
          "time": 42.04651162790697,
          "velocity": 0.11023622047244094
        },
        {
          "duration": 0.046511627906973274,
          "durationTicks": 4,
          "midi": 48,
          "name": "C3",
          "ticks": 3617,
          "time": 42.05813953488372,
          "velocity": 0.4566929133858268
        },
        {
          "duration": 0.16279069767441712,
          "durationTicks": 14,
          "midi": 64,
          "name": "E4",
          "ticks": 3617,
          "time": 42.05813953488372,
          "velocity": 0.1968503937007874
        },
        {
          "duration": 0.03488372093023173,
          "durationTicks": 3,
          "midi": 69,
          "name": "A4",
          "ticks": 3617,
          "time": 42.05813953488372,
          "velocity": 0.14960629921259844
        },
        {
          "duration": 0.04651162790698038,
          "durationTicks": 4,
          "midi": 36,
          "name": "C2",
          "ticks": 3618,
          "time": 42.06976744186046,
          "velocity": 0.3937007874015748
        },
        {
          "duration": 0.023255813953483084,
          "durationTicks": 2,
          "midi": 37,
          "name": "C#2",
          "ticks": 3622,
          "time": 42.116279069767444,
          "velocity": 0.3700787401574803
        },
        {
          "duration": 0.023255813953483084,
          "durationTicks": 2,
          "midi": 48,
          "name": "C3",
          "ticks": 3622,
          "time": 42.116279069767444,
          "velocity": 0.4094488188976378
        },
        {
          "duration": 0.11627906976743674,
          "durationTicks": 10,
          "midi": 55,
          "name": "G3",
          "ticks": 3622,
          "time": 42.116279069767444,
          "velocity": 0.3543307086614173
        },
        {
          "duration": 0.023255813953483084,
          "durationTicks": 2,
          "midi": 68,
          "name": "G#4",
          "ticks": 3622,
          "time": 42.116279069767444,
          "velocity": 0.3937007874015748
        },
        {
          "duration": 0.13953488372092693,
          "durationTicks": 12,
          "midi": 89,
          "name": "F6",
          "ticks": 3622,
          "time": 42.116279069767444,
          "velocity": 0.14173228346456693
        },
        {
          "duration": 0.09302325581395365,
          "durationTicks": 8,
          "midi": 67,
          "name": "G4",
          "ticks": 3624,
          "time": 42.13953488372093,
          "velocity": 0.3937007874015748
        },
        {
          "duration": 0.09302325581395365,
          "durationTicks": 8,
          "midi": 48,
          "name": "C3",
          "ticks": 3625,
          "time": 42.151162790697676,
          "velocity": 0.5039370078740157
        },
        {
          "duration": 0.046511627906973274,
          "durationTicks": 4,
          "midi": 36,
          "name": "C2",
          "ticks": 3627,
          "time": 42.174418604651166,
          "velocity": 0.30708661417322836
        },
        {
          "duration": 0.09302325581395365,
          "durationTicks": 8,
          "midi": 93,
          "name": "A6",
          "ticks": 3631,
          "time": 42.22093023255814,
          "velocity": 0.18110236220472442
        },
        {
          "duration": 0.4418604651162852,
          "durationTicks": 38,
          "midi": 62,
          "name": "D4",
          "ticks": 3632,
          "time": 42.23255813953488,
          "velocity": 0.31496062992125984
        },
        {
          "duration": 0.09302325581395365,
          "durationTicks": 8,
          "midi": 72,
          "name": "C5",
          "ticks": 3632,
          "time": 42.23255813953488,
          "velocity": 0.14960629921259844
        },
        {
          "duration": 0.02325581395349019,
          "durationTicks": 2,
          "midi": 67,
          "name": "G4",
          "ticks": 3633,
          "time": 42.24418604651163,
          "velocity": 0.28346456692913385
        },
        {
          "duration": 0.02325581395349019,
          "durationTicks": 2,
          "midi": 38,
          "name": "D2",
          "ticks": 3634,
          "time": 42.25581395348837,
          "velocity": 0.4566929133858268
        },
        {
          "duration": 0.046511627906973274,
          "durationTicks": 4,
          "midi": 39,
          "name": "D#2",
          "ticks": 3636,
          "time": 42.27906976744186,
          "velocity": 0.4015748031496063
        },
        {
          "duration": 0.03488372093023173,
          "durationTicks": 3,
          "midi": 67,
          "name": "G4",
          "ticks": 3636,
          "time": 42.27906976744186,
          "velocity": 0.2677165354330709
        },
        {
          "duration": 0.17441860465116577,
          "durationTicks": 15,
          "midi": 76,
          "name": "E5",
          "ticks": 3636,
          "time": 42.27906976744186,
          "velocity": 0.09448818897637795
        },
        {
          "duration": 0.03488372093023173,
          "durationTicks": 3,
          "midi": 57,
          "name": "A3",
          "ticks": 3637,
          "time": 42.2906976744186,
          "velocity": 0.3228346456692913
        },
        {
          "duration": 0.3604651162790731,
          "durationTicks": 31,
          "midi": 69,
          "name": "A4",
          "ticks": 3639,
          "time": 42.31395348837209,
          "velocity": 0.4330708661417323
        },
        {
          "duration": 0.02325581395349019,
          "durationTicks": 2,
          "midi": 39,
          "name": "D#2",
          "ticks": 3641,
          "time": 42.33720930232558,
          "velocity": 0.3779527559055118
        },
        {
          "duration": 0.02325581395349019,
          "durationTicks": 2,
          "midi": 56,
          "name": "G#3",
          "ticks": 3641,
          "time": 42.33720930232558,
          "velocity": 0.3858267716535433
        },
        {
          "duration": 0.12790697674418539,
          "durationTicks": 11,
          "midi": 72,
          "name": "C5",
          "ticks": 3641,
          "time": 42.33720930232558,
          "velocity": 0.18110236220472442
        },
        {
          "duration": 0.27906976744186096,
          "durationTicks": 24,
          "midi": 85,
          "name": "C#6",
          "ticks": 3641,
          "time": 42.33720930232558,
          "velocity": 0.2283464566929134
        },
        {
          "duration": 0.3488372093023244,
          "durationTicks": 30,
          "midi": 95,
          "name": "B6",
          "ticks": 3642,
          "time": 42.348837209302324,
          "velocity": 0.1968503937007874
        },
        {
          "duration": 0.32558139534883423,
          "durationTicks": 28,
          "midi": 66,
          "name": "F#4",
          "ticks": 3643,
          "time": 42.36046511627907,
          "velocity": 0.2677165354330709
        },
        {
          "duration": 0.02325581395349019,
          "durationTicks": 2,
          "midi": 36,
          "name": "C2",
          "ticks": 3644,
          "time": 42.372093023255815,
          "velocity": 0.2440944881889764
        },
        {
          "duration": 0.30232558139535115,
          "durationTicks": 26,
          "midi": 57,
          "name": "A3",
          "ticks": 3644,
          "time": 42.372093023255815,
          "velocity": 0.4409448818897638
        },
        {
          "duration": 0.03488372093023884,
          "durationTicks": 3,
          "midi": 38,
          "name": "D2",
          "ticks": 3648,
          "time": 42.41860465116279,
          "velocity": 0.2677165354330709
        },
        {
          "duration": 0.19767441860464885,
          "durationTicks": 17,
          "midi": 80,
          "name": "G#5",
          "ticks": 3651,
          "time": 42.45348837209303,
          "velocity": 0.16535433070866143
        },
        {
          "duration": 0.09302325581394655,
          "durationTicks": 8,
          "midi": 90,
          "name": "F#6",
          "ticks": 3651,
          "time": 42.45348837209303,
          "velocity": 0.12598425196850394
        },
        {
          "duration": 0.05813953488372192,
          "durationTicks": 5,
          "midi": 93,
          "name": "A6",
          "ticks": 3652,
          "time": 42.46511627906977,
          "velocity": 0.11023622047244094
        },
        {
          "duration": 0.2093023255813975,
          "durationTicks": 18,
          "midi": 50,
          "name": "D3",
          "ticks": 3653,
          "time": 42.47674418604651,
          "velocity": 0.5118110236220472
        },
        {
          "duration": 0.04651162790698038,
          "durationTicks": 4,
          "midi": 84,
          "name": "C6",
          "ticks": 3653,
          "time": 42.47674418604651,
          "velocity": 0.09448818897637795
        },
        {
          "duration": 0.03488372093023173,
          "durationTicks": 3,
          "midi": 39,
          "name": "D#2",
          "ticks": 3654,
          "time": 42.48837209302326,
          "velocity": 0.4881889763779528
        },
        {
          "duration": 0.3139534883720927,
          "durationTicks": 27,
          "midi": 72,
          "name": "C5",
          "ticks": 3654,
          "time": 42.48837209302326,
          "velocity": 0.5039370078740157
        },
        {
          "duration": 0.03488372093023173,
          "durationTicks": 3,
          "midi": 91,
          "name": "G6",
          "ticks": 3656,
          "time": 42.51162790697674,
          "velocity": 0.10236220472440945
        },
        {
          "duration": 0.09302325581395365,
          "durationTicks": 8,
          "midi": 38,
          "name": "D2",
          "ticks": 3657,
          "time": 42.52325581395349,
          "velocity": 0.4251968503937008
        },
        {
          "duration": 0.023255813953483084,
          "durationTicks": 2,
          "midi": 37,
          "name": "C#2",
          "ticks": 3665,
          "time": 42.616279069767444,
          "velocity": 0.2755905511811024
        },
        {
          "duration": 0.03488372093023884,
          "durationTicks": 3,
          "midi": 38,
          "name": "D2",
          "ticks": 3667,
          "time": 42.63953488372093,
          "velocity": 0.29133858267716534
        },
        {
          "duration": 0.15116279069766847,
          "durationTicks": 13,
          "midi": 60,
          "name": "C4",
          "ticks": 3670,
          "time": 42.674418604651166,
          "velocity": 0.5275590551181102
        },
        {
          "duration": 0.11627906976743674,
          "durationTicks": 10,
          "midi": 74,
          "name": "D5",
          "ticks": 3670,
          "time": 42.674418604651166,
          "velocity": 0.3464566929133858
        },
        {
          "duration": 0.1860465116279073,
          "durationTicks": 16,
          "midi": 79,
          "name": "G5",
          "ticks": 3670,
          "time": 42.674418604651166,
          "velocity": 0.2283464566929134
        },
        {
          "duration": 0.12790697674418539,
          "durationTicks": 11,
          "midi": 88,
          "name": "E6",
          "ticks": 3670,
          "time": 42.674418604651166,
          "velocity": 0.2125984251968504
        },
        {
          "duration": 0.02325581395349019,
          "durationTicks": 2,
          "midi": 44,
          "name": "G#2",
          "ticks": 3671,
          "time": 42.68604651162791,
          "velocity": 0.47244094488188976
        },
        {
          "duration": 0.24418604651162923,
          "durationTicks": 21,
          "midi": 83,
          "name": "B5",
          "ticks": 3671,
          "time": 42.68604651162791,
          "velocity": 0.2677165354330709
        },
        {
          "duration": 0.17441860465116577,
          "durationTicks": 15,
          "midi": 89,
          "name": "F6",
          "ticks": 3671,
          "time": 42.68604651162791,
          "velocity": 0.1732283464566929
        },
        {
          "duration": 0.22093023255813904,
          "durationTicks": 19,
          "midi": 90,
          "name": "F#6",
          "ticks": 3671,
          "time": 42.68604651162791,
          "velocity": 0.13385826771653545
        },
        {
          "duration": 0.08139534883721211,
          "durationTicks": 7,
          "midi": 94,
          "name": "A#6",
          "ticks": 3671,
          "time": 42.68604651162791,
          "velocity": 0.08661417322834646
        },
        {
          "duration": 0.02325581395349019,
          "durationTicks": 2,
          "midi": 54,
          "name": "F#3",
          "ticks": 3672,
          "time": 42.69767441860465,
          "velocity": 0.4409448818897638
        },
        {
          "duration": 0.09302325581395365,
          "durationTicks": 8,
          "midi": 77,
          "name": "F5",
          "ticks": 3672,
          "time": 42.69767441860465,
          "velocity": 0.2204724409448819
        },
        {
          "duration": 0.046511627906973274,
          "durationTicks": 4,
          "midi": 43,
          "name": "G2",
          "ticks": 3673,
          "time": 42.7093023255814,
          "velocity": 0.4330708661417323
        },
        {
          "duration": 0.1046511627906952,
          "durationTicks": 9,
          "midi": 67,
          "name": "G4",
          "ticks": 3673,
          "time": 42.7093023255814,
          "velocity": 0.2047244094488189
        },
        {
          "duration": 0.1046511627906952,
          "durationTicks": 9,
          "midi": 85,
          "name": "C#6",
          "ticks": 3673,
          "time": 42.7093023255814,
          "velocity": 0.1968503937007874
        },
        {
          "duration": 0.046511627906973274,
          "durationTicks": 4,
          "midi": 98,
          "name": "D7",
          "ticks": 3673,
          "time": 42.7093023255814,
          "velocity": 0.10236220472440945
        },
        {
          "duration": 0.023255813953483084,
          "durationTicks": 2,
          "midi": 43,
          "name": "G2",
          "ticks": 3678,
          "time": 42.76744186046512,
          "velocity": 0.3779527559055118
        },
        {
          "duration": 0.12790697674418539,
          "durationTicks": 11,
          "midi": 71,
          "name": "B4",
          "ticks": 3680,
          "time": 42.7906976744186,
          "velocity": 0.4566929133858268
        },
        {
          "duration": 0.05813953488372192,
          "durationTicks": 5,
          "midi": 74,
          "name": "D5",
          "ticks": 3681,
          "time": 42.80232558139535,
          "velocity": 0.18110236220472442
        },
        {
          "duration": 0.11627906976743674,
          "durationTicks": 10,
          "midi": 82,
          "name": "A#5",
          "ticks": 3681,
          "time": 42.80232558139535,
          "velocity": 0.25196850393700787
        },
        {
          "duration": 0.13953488372092693,
          "durationTicks": 12,
          "midi": 87,
          "name": "D#6",
          "ticks": 3681,
          "time": 42.80232558139535,
          "velocity": 0.18110236220472442
        },
        {
          "duration": 0.04651162790698038,
          "durationTicks": 4,
          "midi": 53,
          "name": "F3",
          "ticks": 3682,
          "time": 42.81395348837209,
          "velocity": 0.41732283464566927
        },
        {
          "duration": 0.09302325581395365,
          "durationTicks": 8,
          "midi": 66,
          "name": "F#4",
          "ticks": 3682,
          "time": 42.81395348837209,
          "velocity": 0.16535433070866143
        },
        {
          "duration": 0.1046511627906952,
          "durationTicks": 9,
          "midi": 88,
          "name": "E6",
          "ticks": 3682,
          "time": 42.81395348837209,
          "velocity": 0.1968503937007874
        },
        {
          "duration": 0.02325581395349019,
          "durationTicks": 2,
          "midi": 41,
          "name": "F2",
          "ticks": 3683,
          "time": 42.825581395348834,
          "velocity": 0.4094488188976378
        },
        {
          "duration": 0.03488372093023173,
          "durationTicks": 3,
          "midi": 54,
          "name": "F#3",
          "ticks": 3686,
          "time": 42.86046511627907,
          "velocity": 0.3464566929133858
        },
        {
          "duration": 0.023255813953483084,
          "durationTicks": 2,
          "midi": 60,
          "name": "C4",
          "ticks": 3686,
          "time": 42.86046511627907,
          "velocity": 0.36220472440944884
        },
        {
          "duration": 0.05813953488372192,
          "durationTicks": 5,
          "midi": 42,
          "name": "F#2",
          "ticks": 3687,
          "time": 42.872093023255815,
          "velocity": 0.5196850393700787
        },
        {
          "duration": 0.02325581395349019,
          "durationTicks": 2,
          "midi": 59,
          "name": "B3",
          "ticks": 3688,
          "time": 42.883720930232556,
          "velocity": 0.4330708661417323
        },
        {
          "duration": 0.04651162790698038,
          "durationTicks": 4,
          "midi": 73,
          "name": "C#5",
          "ticks": 3688,
          "time": 42.883720930232556,
          "velocity": 0.2125984251968504
        },
        {
          "duration": 0.13953488372092693,
          "durationTicks": 12,
          "midi": 69,
          "name": "A4",
          "ticks": 3689,
          "time": 42.895348837209305,
          "velocity": 0.4330708661417323
        },
        {
          "duration": 0.02325581395349019,
          "durationTicks": 2,
          "midi": 53,
          "name": "F3",
          "ticks": 3690,
          "time": 42.906976744186046,
          "velocity": 0.4645669291338583
        },
        {
          "duration": 0.12790697674418539,
          "durationTicks": 11,
          "midi": 64,
          "name": "E4",
          "ticks": 3690,
          "time": 42.906976744186046,
          "velocity": 0.2677165354330709
        },
        {
          "duration": 0.04651162790698038,
          "durationTicks": 4,
          "midi": 92,
          "name": "G#6",
          "ticks": 3690,
          "time": 42.906976744186046,
          "velocity": 0.11023622047244094
        },
        {
          "duration": 0.04651162790698038,
          "durationTicks": 4,
          "midi": 86,
          "name": "D6",
          "ticks": 3691,
          "time": 42.91860465116279,
          "velocity": 0.07874015748031496
        },
        {
          "duration": 0.09302325581395365,
          "durationTicks": 8,
          "midi": 91,
          "name": "G6",
          "ticks": 3691,
          "time": 42.91860465116279,
          "velocity": 0.11023622047244094
        },
        {
          "duration": 0.02325581395349019,
          "durationTicks": 2,
          "midi": 41,
          "name": "F2",
          "ticks": 3692,
          "time": 42.93023255813954,
          "velocity": 0.49606299212598426
        },
        {
          "duration": 0.05813953488372192,
          "durationTicks": 5,
          "midi": 52,
          "name": "E3",
          "ticks": 3692,
          "time": 42.93023255813954,
          "velocity": 0.41732283464566927
        },
        {
          "duration": 0.12790697674418539,
          "durationTicks": 11,
          "midi": 71,
          "name": "B4",
          "ticks": 3692,
          "time": 42.93023255813954,
          "velocity": 0.2992125984251969
        },
        {
          "duration": 0.11627906976743674,
          "durationTicks": 10,
          "midi": 74,
          "name": "D5",
          "ticks": 3692,
          "time": 42.93023255813954,
          "velocity": 0.15748031496062992
        },
        {
          "duration": 0.1046511627906952,
          "durationTicks": 9,
          "midi": 88,
          "name": "E6",
          "ticks": 3692,
          "time": 42.93023255813954,
          "velocity": 0.15748031496062992
        },
        {
          "duration": 0.081395348837205,
          "durationTicks": 7,
          "midi": 40,
          "name": "E2",
          "ticks": 3694,
          "time": 42.95348837209303,
          "velocity": 0.4566929133858268
        },
        {
          "duration": 0.023255813953483084,
          "durationTicks": 2,
          "midi": 59,
          "name": "B3",
          "ticks": 3694,
          "time": 42.95348837209303,
          "velocity": 0.31496062992125984
        },
        {
          "duration": 0.02325581395349019,
          "durationTicks": 2,
          "midi": 58,
          "name": "A#3",
          "ticks": 3696,
          "time": 42.97674418604651,
          "velocity": 0.3700787401574803
        },
        {
          "duration": 0.3953488372092977,
          "durationTicks": 34,
          "midi": 79,
          "name": "G5",
          "ticks": 3700,
          "time": 43.02325581395349,
          "velocity": 0.30708661417322836
        },
        {
          "duration": 0.02325581395349019,
          "durationTicks": 2,
          "midi": 55,
          "name": "G3",
          "ticks": 3701,
          "time": 43.03488372093023,
          "velocity": 0.4409448818897638
        },
        {
          "duration": 0.1046511627906952,
          "durationTicks": 9,
          "midi": 62,
          "name": "D4",
          "ticks": 3701,
          "time": 43.03488372093023,
          "velocity": 0.2677165354330709
        },
        {
          "duration": 0.3488372093023244,
          "durationTicks": 30,
          "midi": 67,
          "name": "G4",
          "ticks": 3701,
          "time": 43.03488372093023,
          "velocity": 0.48031496062992124
        },
        {
          "duration": 0.03488372093023173,
          "durationTicks": 3,
          "midi": 84,
          "name": "C6",
          "ticks": 3701,
          "time": 43.03488372093023,
          "velocity": 0.07086614173228346
        },
        {
          "duration": 0.2093023255813975,
          "durationTicks": 18,
          "midi": 85,
          "name": "C#6",
          "ticks": 3701,
          "time": 43.03488372093023,
          "velocity": 0.14173228346456693
        },
        {
          "duration": 0.24418604651162923,
          "durationTicks": 21,
          "midi": 89,
          "name": "F6",
          "ticks": 3701,
          "time": 43.03488372093023,
          "velocity": 0.14960629921259844
        },
        {
          "duration": 0.04651162790698038,
          "durationTicks": 4,
          "midi": 90,
          "name": "F#6",
          "ticks": 3701,
          "time": 43.03488372093023,
          "velocity": 0.08661417322834646
        },
        {
          "duration": 0.32558139534884134,
          "durationTicks": 28,
          "midi": 93,
          "name": "A6",
          "ticks": 3701,
          "time": 43.03488372093023,
          "velocity": 0.2677165354330709
        },
        {
          "duration": 0.05813953488372192,
          "durationTicks": 5,
          "midi": 39,
          "name": "D#2",
          "ticks": 3703,
          "time": 43.05813953488372,
          "velocity": 0.48031496062992124
        },
        {
          "duration": 0.04651162790698038,
          "durationTicks": 4,
          "midi": 50,
          "name": "D3",
          "ticks": 3704,
          "time": 43.06976744186046,
          "velocity": 0.44881889763779526
        },
        {
          "duration": 0.06976744186046346,
          "durationTicks": 6,
          "midi": 86,
          "name": "D6",
          "ticks": 3704,
          "time": 43.06976744186046,
          "velocity": 0.07874015748031496
        },
        {
          "duration": 0.27906976744186096,
          "durationTicks": 24,
          "midi": 72,
          "name": "C5",
          "ticks": 3706,
          "time": 43.093023255813954,
          "velocity": 0.13385826771653545
        },
        {
          "duration": 0.023255813953483084,
          "durationTicks": 2,
          "midi": 38,
          "name": "D2",
          "ticks": 3708,
          "time": 43.116279069767444,
          "velocity": 0.41732283464566927
        },
        {
          "duration": 0.03488372093023173,
          "durationTicks": 3,
          "midi": 57,
          "name": "A3",
          "ticks": 3708,
          "time": 43.116279069767444,
          "velocity": 0.44881889763779526
        },
        {
          "duration": 0.6511627906976756,
          "durationTicks": 56,
          "midi": 76,
          "name": "E5",
          "ticks": 3708,
          "time": 43.116279069767444,
          "velocity": 0.14960629921259844
        },
        {
          "duration": 0.04651162790698038,
          "durationTicks": 4,
          "midi": 90,
          "name": "F#6",
          "ticks": 3709,
          "time": 43.127906976744185,
          "velocity": 0.07874015748031496
        },
        {
          "duration": 0.046511627906973274,
          "durationTicks": 4,
          "midi": 39,
          "name": "D#2",
          "ticks": 3711,
          "time": 43.151162790697676,
          "velocity": 0.4566929133858268
        },
        {
          "duration": 0.22093023255813904,
          "durationTicks": 19,
          "midi": 50,
          "name": "D3",
          "ticks": 3711,
          "time": 43.151162790697676,
          "velocity": 0.4566929133858268
        },
        {
          "duration": 0.09302325581395365,
          "durationTicks": 8,
          "midi": 57,
          "name": "A3",
          "ticks": 3712,
          "time": 43.16279069767442,
          "velocity": 0.3700787401574803
        },
        {
          "duration": 0.06976744186046346,
          "durationTicks": 6,
          "midi": 83,
          "name": "B5",
          "ticks": 3712,
          "time": 43.16279069767442,
          "velocity": 0.2283464566929134
        },
        {
          "duration": 0.03488372093023173,
          "durationTicks": 3,
          "midi": 38,
          "name": "D2",
          "ticks": 3715,
          "time": 43.19767441860465,
          "velocity": 0.3937007874015748
        },
        {
          "duration": 0.046511627906973274,
          "durationTicks": 4,
          "midi": 38,
          "name": "D2",
          "ticks": 3719,
          "time": 43.24418604651163,
          "velocity": 0.29133858267716534
        },
        {
          "duration": 0.1046511627906952,
          "durationTicks": 9,
          "midi": 83,
          "name": "B5",
          "ticks": 3719,
          "time": 43.24418604651163,
          "velocity": 0.14960629921259844
        },
        {
          "duration": 0.046511627906973274,
          "durationTicks": 4,
          "midi": 57,
          "name": "A3",
          "ticks": 3721,
          "time": 43.26744186046512,
          "velocity": 0.33070866141732286
        },
        {
          "duration": 0.06976744186046346,
          "durationTicks": 6,
          "midi": 38,
          "name": "D2",
          "ticks": 3724,
          "time": 43.30232558139535,
          "velocity": 0.2992125984251969
        },
        {
          "duration": 0.023255813953483084,
          "durationTicks": 2,
          "midi": 56,
          "name": "G#3",
          "ticks": 3729,
          "time": 43.36046511627907,
          "velocity": 0.3228346456692913
        },
        {
          "duration": 0.46511627906976827,
          "durationTicks": 40,
          "midi": 69,
          "name": "A4",
          "ticks": 3730,
          "time": 43.372093023255815,
          "velocity": 0.44881889763779526
        },
        {
          "duration": 0.03488372093023173,
          "durationTicks": 3,
          "midi": 74,
          "name": "D5",
          "ticks": 3730,
          "time": 43.372093023255815,
          "velocity": 0.13385826771653545
        },
        {
          "duration": 0.02325581395349019,
          "durationTicks": 2,
          "midi": 40,
          "name": "E2",
          "ticks": 3731,
          "time": 43.383720930232556,
          "velocity": 0.4881889763779528
        },
        {
          "duration": 0.09302325581395365,
          "durationTicks": 8,
          "midi": 57,
          "name": "A3",
          "ticks": 3731,
          "time": 43.383720930232556,
          "velocity": 0.3779527559055118
        },
        {
          "duration": 0.48837209302325846,
          "durationTicks": 42,
          "midi": 85,
          "name": "C#6",
          "ticks": 3731,
          "time": 43.383720930232556,
          "velocity": 0.23622047244094488
        },
        {
          "duration": 0.04651162790698038,
          "durationTicks": 4,
          "midi": 90,
          "name": "F#6",
          "ticks": 3731,
          "time": 43.383720930232556,
          "velocity": 0.08661417322834646
        },
        {
          "duration": 0.22093023255813904,
          "durationTicks": 19,
          "midi": 95,
          "name": "B6",
          "ticks": 3731,
          "time": 43.383720930232556,
          "velocity": 0.14173228346456693
        },
        {
          "duration": 0.09302325581395365,
          "durationTicks": 8,
          "midi": 50,
          "name": "D3",
          "ticks": 3732,
          "time": 43.395348837209305,
          "velocity": 0.4645669291338583
        },
        {
          "duration": 0.081395348837205,
          "durationTicks": 7,
          "midi": 72,
          "name": "C5",
          "ticks": 3732,
          "time": 43.395348837209305,
          "velocity": 0.11023622047244094
        },
        {
          "duration": 0.02325581395349019,
          "durationTicks": 2,
          "midi": 39,
          "name": "D#2",
          "ticks": 3733,
          "time": 43.406976744186046,
          "velocity": 0.48031496062992124
        },
        {
          "duration": 0.08139534883721211,
          "durationTicks": 7,
          "midi": 66,
          "name": "F#4",
          "ticks": 3733,
          "time": 43.406976744186046,
          "velocity": 0.1968503937007874
        },
        {
          "duration": 0.046511627906973274,
          "durationTicks": 4,
          "midi": 38,
          "name": "D2",
          "ticks": 3735,
          "time": 43.43023255813954,
          "velocity": 0.41732283464566927
        },
        {
          "duration": 0.023255813953483084,
          "durationTicks": 2,
          "midi": 40,
          "name": "E2",
          "ticks": 3740,
          "time": 43.48837209302326,
          "velocity": 0.5039370078740157
        },
        {
          "duration": 0.011627906976741542,
          "durationTicks": 1,
          "midi": 48,
          "name": "C3",
          "ticks": 3740,
          "time": 43.48837209302326,
          "velocity": 0.5118110236220472
        },
        {
          "duration": 0.1046511627906952,
          "durationTicks": 9,
          "midi": 57,
          "name": "A3",
          "ticks": 3740,
          "time": 43.48837209302326,
          "velocity": 0.44881889763779526
        },
        {
          "duration": 0.1046511627906952,
          "durationTicks": 9,
          "midi": 72,
          "name": "C5",
          "ticks": 3740,
          "time": 43.48837209302326,
          "velocity": 0.18110236220472442
        },
        {
          "duration": 0.09302325581395365,
          "durationTicks": 8,
          "midi": 50,
          "name": "D3",
          "ticks": 3741,
          "time": 43.5,
          "velocity": 0.48031496062992124
        },
        {
          "duration": 0.09302325581395365,
          "durationTicks": 8,
          "midi": 66,
          "name": "F#4",
          "ticks": 3741,
          "time": 43.5,
          "velocity": 0.1889763779527559
        },
        {
          "duration": 0.03488372093023173,
          "durationTicks": 3,
          "midi": 82,
          "name": "A#5",
          "ticks": 3741,
          "time": 43.5,
          "velocity": 0.12598425196850394
        },
        {
          "duration": 0.06976744186046346,
          "durationTicks": 6,
          "midi": 91,
          "name": "G6",
          "ticks": 3741,
          "time": 43.5,
          "velocity": 0.11811023622047244
        },
        {
          "duration": 0.03488372093023173,
          "durationTicks": 3,
          "midi": 39,
          "name": "D#2",
          "ticks": 3742,
          "time": 43.51162790697674,
          "velocity": 0.4566929133858268
        },
        {
          "duration": 0.04651162790698038,
          "durationTicks": 4,
          "midi": 38,
          "name": "D2",
          "ticks": 3745,
          "time": 43.54651162790697,
          "velocity": 0.3464566929133858
        },
        {
          "duration": 0.03488372093023173,
          "durationTicks": 3,
          "midi": 48,
          "name": "C3",
          "ticks": 3749,
          "time": 43.593023255813954,
          "velocity": 0.5275590551181102
        },
        {
          "duration": 0.1860465116279073,
          "durationTicks": 16,
          "midi": 78,
          "name": "F#5",
          "ticks": 3751,
          "time": 43.616279069767444,
          "velocity": 0.2125984251968504
        },
        {
          "duration": 0.03488372093023173,
          "durationTicks": 3,
          "midi": 92,
          "name": "G#6",
          "ticks": 3752,
          "time": 43.627906976744185,
          "velocity": 0.10236220472440945
        },
        {
          "duration": 0.03488372093023884,
          "durationTicks": 3,
          "midi": 50,
          "name": "D3",
          "ticks": 3753,
          "time": 43.63953488372093,
          "velocity": 0.4881889763779528
        },
        {
          "duration": 0.17441860465116577,
          "durationTicks": 15,
          "midi": 57,
          "name": "A3",
          "ticks": 3753,
          "time": 43.63953488372093,
          "velocity": 0.13385826771653545
        },
        {
          "duration": 0.1860465116279073,
          "durationTicks": 16,
          "midi": 84,
          "name": "C6",
          "ticks": 3753,
          "time": 43.63953488372093,
          "velocity": 0.1732283464566929
        },
        {
          "duration": 0.03488372093023173,
          "durationTicks": 3,
          "midi": 50,
          "name": "D3",
          "ticks": 3757,
          "time": 43.68604651162791,
          "velocity": 0.47244094488188976
        },
        {
          "duration": 0.04651162790698038,
          "durationTicks": 4,
          "midi": 79,
          "name": "G5",
          "ticks": 3758,
          "time": 43.69767441860465,
          "velocity": 0.09448818897637795
        },
        {
          "duration": 0.02325581395349019,
          "durationTicks": 2,
          "midi": 49,
          "name": "C#3",
          "ticks": 3760,
          "time": 43.72093023255814,
          "velocity": 0.4251968503937008
        },
        {
          "duration": 0.04651162790698038,
          "durationTicks": 4,
          "midi": 67,
          "name": "G4",
          "ticks": 3761,
          "time": 43.73255813953488,
          "velocity": 0.14173228346456693
        },
        {
          "duration": 0.02325581395349019,
          "durationTicks": 2,
          "midi": 50,
          "name": "D3",
          "ticks": 3762,
          "time": 43.74418604651163,
          "velocity": 0.4251968503937008
        },
        {
          "duration": 0.02325581395349019,
          "durationTicks": 2,
          "midi": 45,
          "name": "A2",
          "ticks": 3763,
          "time": 43.75581395348837,
          "velocity": 0.36220472440944884
        },
        {
          "duration": 0.02325581395349019,
          "durationTicks": 2,
          "midi": 44,
          "name": "G#2",
          "ticks": 3769,
          "time": 43.825581395348834,
          "velocity": 0.48031496062992124
        },
        {
          "duration": 0.03488372093023884,
          "durationTicks": 3,
          "midi": 76,
          "name": "E5",
          "ticks": 3769,
          "time": 43.825581395348834,
          "velocity": 0.11023622047244094
        },
        {
          "duration": 0.38372093023256326,
          "durationTicks": 33,
          "midi": 79,
          "name": "G5",
          "ticks": 3769,
          "time": 43.825581395348834,
          "velocity": 0.2440944881889764
        },
        {
          "duration": 0.02325581395349019,
          "durationTicks": 2,
          "midi": 60,
          "name": "C4",
          "ticks": 3770,
          "time": 43.83720930232558,
          "velocity": 0.28346456692913385
        },
        {
          "duration": 0.02325581395349019,
          "durationTicks": 2,
          "midi": 68,
          "name": "G#4",
          "ticks": 3770,
          "time": 43.83720930232558,
          "velocity": 0.4094488188976378
        },
        {
          "duration": 0.03488372093023173,
          "durationTicks": 3,
          "midi": 77,
          "name": "F5",
          "ticks": 3770,
          "time": 43.83720930232558,
          "velocity": 0.14173228346456693
        },
        {
          "duration": 0.3139534883720927,
          "durationTicks": 27,
          "midi": 83,
          "name": "B5",
          "ticks": 3770,
          "time": 43.83720930232558,
          "velocity": 0.2283464566929134
        },
        {
          "duration": 0.011627906976748648,
          "durationTicks": 1,
          "midi": 47,
          "name": "B2",
          "ticks": 3771,
          "time": 43.848837209302324,
          "velocity": 0.5275590551181102
        },
        {
          "duration": 0.05813953488372192,
          "durationTicks": 5,
          "midi": 82,
          "name": "A#5",
          "ticks": 3771,
          "time": 43.848837209302324,
          "velocity": 0.08661417322834646
        },
        {
          "duration": 0.046511627906973274,
          "durationTicks": 4,
          "midi": 37,
          "name": "C#2",
          "ticks": 3772,
          "time": 43.86046511627907,
          "velocity": 0.4566929133858268
        },
        {
          "duration": 0.03488372093023173,
          "durationTicks": 3,
          "midi": 48,
          "name": "C3",
          "ticks": 3772,
          "time": 43.86046511627907,
          "velocity": 0.5039370078740157
        },
        {
          "duration": 0.081395348837205,
          "durationTicks": 7,
          "midi": 55,
          "name": "G3",
          "ticks": 3772,
          "time": 43.86046511627907,
          "velocity": 0.3464566929133858
        },
        {
          "duration": 0.081395348837205,
          "durationTicks": 7,
          "midi": 67,
          "name": "G4",
          "ticks": 3772,
          "time": 43.86046511627907,
          "velocity": 0.3937007874015748
        },
        {
          "duration": 0.081395348837205,
          "durationTicks": 7,
          "midi": 93,
          "name": "A6",
          "ticks": 3772,
          "time": 43.86046511627907,
          "velocity": 0.07874015748031496
        },
        {
          "duration": 0.06976744186046346,
          "durationTicks": 6,
          "midi": 78,
          "name": "F#5",
          "ticks": 3773,
          "time": 43.872093023255815,
          "velocity": 0.12598425196850394
        },
        {
          "duration": 0.04651162790698038,
          "durationTicks": 4,
          "midi": 89,
          "name": "F6",
          "ticks": 3774,
          "time": 43.883720930232556,
          "velocity": 0.11023622047244094
        },
        {
          "duration": 0.023255813953483084,
          "durationTicks": 2,
          "midi": 47,
          "name": "B2",
          "ticks": 3775,
          "time": 43.895348837209305,
          "velocity": 0.4409448818897638
        },
        {
          "duration": 0.03488372093023173,
          "durationTicks": 3,
          "midi": 69,
          "name": "A4",
          "ticks": 3775,
          "time": 43.895348837209305,
          "velocity": 0.14173228346456693
        },
        {
          "duration": 0.04651162790698038,
          "durationTicks": 4,
          "midi": 36,
          "name": "C2",
          "ticks": 3776,
          "time": 43.906976744186046,
          "velocity": 0.4015748031496063
        },
        {
          "duration": 0.13953488372092693,
          "durationTicks": 12,
          "midi": 60,
          "name": "C4",
          "ticks": 3776,
          "time": 43.906976744186046,
          "velocity": 0.2677165354330709
        },
        {
          "duration": 0.15116279069767558,
          "durationTicks": 13,
          "midi": 64,
          "name": "E4",
          "ticks": 3776,
          "time": 43.906976744186046,
          "velocity": 0.2204724409448819
        },
        {
          "duration": 0.02325581395349019,
          "durationTicks": 2,
          "midi": 68,
          "name": "G#4",
          "ticks": 3779,
          "time": 43.94186046511628,
          "velocity": 0.3464566929133858
        },
        {
          "duration": 0.023255813953483084,
          "durationTicks": 2,
          "midi": 37,
          "name": "C#2",
          "ticks": 3780,
          "time": 43.95348837209303,
          "velocity": 0.3700787401574803
        },
        {
          "duration": 0.023255813953483084,
          "durationTicks": 2,
          "midi": 47,
          "name": "B2",
          "ticks": 3780,
          "time": 43.95348837209303,
          "velocity": 0.3937007874015748
        },
        {
          "duration": 0.023255813953483084,
          "durationTicks": 2,
          "midi": 55,
          "name": "G3",
          "ticks": 3780,
          "time": 43.95348837209303,
          "velocity": 0.3543307086614173
        },
        {
          "duration": 0.15116279069766847,
          "durationTicks": 13,
          "midi": 89,
          "name": "F6",
          "ticks": 3780,
          "time": 43.95348837209303,
          "velocity": 0.14173228346456693
        },
        {
          "duration": 0.19767441860464885,
          "durationTicks": 17,
          "midi": 67,
          "name": "G4",
          "ticks": 3781,
          "time": 43.96511627906977,
          "velocity": 0.4015748031496063
        },
        {
          "duration": 0.046511627906973274,
          "durationTicks": 4,
          "midi": 48,
          "name": "C3",
          "ticks": 3784,
          "time": 44,
          "velocity": 0.3464566929133858
        },
        {
          "duration": 0.046511627906973274,
          "durationTicks": 4,
          "midi": 55,
          "name": "G3",
          "ticks": 3784,
          "time": 44,
          "velocity": 0.18110236220472442
        },
        {
          "duration": 0.02325581395349019,
          "durationTicks": 2,
          "midi": 36,
          "name": "C2",
          "ticks": 3785,
          "time": 44.01162790697674,
          "velocity": 0.2992125984251969
        },
        {
          "duration": 0.08139534883721211,
          "durationTicks": 7,
          "midi": 93,
          "name": "A6",
          "ticks": 3788,
          "time": 44.04651162790697,
          "velocity": 0.15748031496062992
        },
        {
          "duration": 0.09302325581395365,
          "durationTicks": 8,
          "midi": 57,
          "name": "A3",
          "ticks": 3789,
          "time": 44.05813953488372,
          "velocity": 0.33070866141732286
        },
        {
          "duration": 0.23255813953488058,
          "durationTicks": 20,
          "midi": 72,
          "name": "C5",
          "ticks": 3789,
          "time": 44.05813953488372,
          "velocity": 0.1968503937007874
        },
        {
          "duration": 0.22093023255813904,
          "durationTicks": 19,
          "midi": 50,
          "name": "D3",
          "ticks": 3790,
          "time": 44.06976744186046,
          "velocity": 0.44881889763779526
        },
        {
          "duration": 0.2093023255813975,
          "durationTicks": 18,
          "midi": 76,
          "name": "E5",
          "ticks": 3790,
          "time": 44.06976744186046,
          "velocity": 0.15748031496062992
        },
        {
          "duration": 0.046511627906973274,
          "durationTicks": 4,
          "midi": 38,
          "name": "D2",
          "ticks": 3792,
          "time": 44.093023255813954,
          "velocity": 0.44881889763779526
        },
        {
          "duration": 0.02325581395349019,
          "durationTicks": 2,
          "midi": 38,
          "name": "D2",
          "ticks": 3797,
          "time": 44.151162790697676,
          "velocity": 0.2992125984251969
        },
        {
          "duration": 0.06976744186046346,
          "durationTicks": 6,
          "midi": 93,
          "name": "A6",
          "ticks": 3797,
          "time": 44.151162790697676,
          "velocity": 0.13385826771653545
        },
        {
          "duration": 0.5930232558139537,
          "durationTicks": 51,
          "midi": 69,
          "name": "A4",
          "ticks": 3798,
          "time": 44.16279069767442,
          "velocity": 0.47244094488188976
        },
        {
          "duration": 0.023255813953483084,
          "durationTicks": 2,
          "midi": 58,
          "name": "A#3",
          "ticks": 3799,
          "time": 44.174418604651166,
          "velocity": 0.4015748031496063
        },
        {
          "duration": 0.03488372093023173,
          "durationTicks": 3,
          "midi": 66,
          "name": "F#4",
          "ticks": 3799,
          "time": 44.174418604651166,
          "velocity": 0.25196850393700787
        },
        {
          "duration": 0.6162790697674367,
          "durationTicks": 53,
          "midi": 85,
          "name": "C#6",
          "ticks": 3799,
          "time": 44.174418604651166,
          "velocity": 0.25196850393700787
        },
        {
          "duration": 0.3372093023255829,
          "durationTicks": 29,
          "midi": 95,
          "name": "B6",
          "ticks": 3800,
          "time": 44.18604651162791,
          "velocity": 0.16535433070866143
        },
        {
          "duration": 0.19767441860465595,
          "durationTicks": 17,
          "midi": 57,
          "name": "A3",
          "ticks": 3801,
          "time": 44.19767441860465,
          "velocity": 0.47244094488188976
        },
        {
          "duration": 0.3139534883720927,
          "durationTicks": 27,
          "midi": 66,
          "name": "F#4",
          "ticks": 3803,
          "time": 44.22093023255814,
          "velocity": 0.28346456692913385
        },
        {
          "duration": 0.03488372093023884,
          "durationTicks": 3,
          "midi": 38,
          "name": "D2",
          "ticks": 3804,
          "time": 44.23255813953488,
          "velocity": 0.3228346456692913
        },
        {
          "duration": 0.19767441860464885,
          "durationTicks": 17,
          "midi": 80,
          "name": "G#5",
          "ticks": 3808,
          "time": 44.27906976744186,
          "velocity": 0.16535433070866143
        },
        {
          "duration": 0.09302325581395365,
          "durationTicks": 8,
          "midi": 90,
          "name": "F#6",
          "ticks": 3808,
          "time": 44.27906976744186,
          "velocity": 0.12598425196850394
        },
        {
          "duration": 0.19767441860464885,
          "durationTicks": 17,
          "midi": 50,
          "name": "D3",
          "ticks": 3810,
          "time": 44.30232558139535,
          "velocity": 0.5039370078740157
        },
        {
          "duration": 0.046511627906973274,
          "durationTicks": 4,
          "midi": 84,
          "name": "C6",
          "ticks": 3810,
          "time": 44.30232558139535,
          "velocity": 0.09448818897637795
        },
        {
          "duration": 0.03488372093023173,
          "durationTicks": 3,
          "midi": 39,
          "name": "D#2",
          "ticks": 3811,
          "time": 44.31395348837209,
          "velocity": 0.4881889763779528
        },
        {
          "duration": 0.2093023255813975,
          "durationTicks": 18,
          "midi": 72,
          "name": "C5",
          "ticks": 3811,
          "time": 44.31395348837209,
          "velocity": 0.1889763779527559
        },
        {
          "duration": 0.03488372093023173,
          "durationTicks": 3,
          "midi": 91,
          "name": "G6",
          "ticks": 3813,
          "time": 44.33720930232558,
          "velocity": 0.11811023622047244
        },
        {
          "duration": 0.08139534883721211,
          "durationTicks": 7,
          "midi": 38,
          "name": "D2",
          "ticks": 3814,
          "time": 44.348837209302324,
          "velocity": 0.4251968503937008
        },
        {
          "duration": 0.03488372093023173,
          "durationTicks": 3,
          "midi": 76,
          "name": "E5",
          "ticks": 3815,
          "time": 44.36046511627907,
          "velocity": 0.07874015748031496
        },
        {
          "duration": 0.023255813953483084,
          "durationTicks": 2,
          "midi": 56,
          "name": "G#3",
          "ticks": 3818,
          "time": 44.395348837209305,
          "velocity": 0.3937007874015748
        },
        {
          "duration": 0.09302325581395365,
          "durationTicks": 8,
          "midi": 91,
          "name": "G6",
          "ticks": 3819,
          "time": 44.406976744186046,
          "velocity": 0.11023622047244094
        },
        {
          "duration": 0.09302325581395365,
          "durationTicks": 8,
          "midi": 57,
          "name": "A3",
          "ticks": 3820,
          "time": 44.41860465116279,
          "velocity": 0.3464566929133858
        },
        {
          "duration": 0.02325581395349019,
          "durationTicks": 2,
          "midi": 37,
          "name": "C#2",
          "ticks": 3821,
          "time": 44.43023255813954,
          "velocity": 0.2677165354330709
        },
        {
          "duration": 0.04651162790698038,
          "durationTicks": 4,
          "midi": 88,
          "name": "E6",
          "ticks": 3822,
          "time": 44.44186046511628,
          "velocity": 0.07874015748031496
        },
        {
          "duration": 0.03488372093023173,
          "durationTicks": 3,
          "midi": 38,
          "name": "D2",
          "ticks": 3825,
          "time": 44.47674418604651,
          "velocity": 0.31496062992125984
        },
        {
          "duration": 0.03488372093023173,
          "durationTicks": 3,
          "midi": 48,
          "name": "C3",
          "ticks": 3828,
          "time": 44.51162790697674,
          "velocity": 0.5275590551181102
        },
        {
          "duration": 0.03488372093023173,
          "durationTicks": 3,
          "midi": 76,
          "name": "E5",
          "ticks": 3829,
          "time": 44.52325581395349,
          "velocity": 0.07086614173228346
        },
        {
          "duration": 0.22093023255813904,
          "durationTicks": 19,
          "midi": 84,
          "name": "C6",
          "ticks": 3829,
          "time": 44.52325581395349,
          "velocity": 0.2125984251968504
        },
        {
          "duration": 0.03488372093023884,
          "durationTicks": 3,
          "midi": 92,
          "name": "G#6",
          "ticks": 3831,
          "time": 44.54651162790697,
          "velocity": 0.10236220472440945
        },
        {
          "duration": 0.03488372093023173,
          "durationTicks": 3,
          "midi": 50,
          "name": "D3",
          "ticks": 3832,
          "time": 44.55813953488372,
          "velocity": 0.49606299212598426
        },
        {
          "duration": 0.12790697674418539,
          "durationTicks": 11,
          "midi": 78,
          "name": "F#5",
          "ticks": 3835,
          "time": 44.593023255813954,
          "velocity": 0.13385826771653545
        },
        {
          "duration": 0.06976744186046346,
          "durationTicks": 6,
          "midi": 79,
          "name": "G5",
          "ticks": 3835,
          "time": 44.593023255813954,
          "velocity": 0.11811023622047244
        },
        {
          "duration": 0.03488372093023173,
          "durationTicks": 3,
          "midi": 50,
          "name": "D3",
          "ticks": 3836,
          "time": 44.604651162790695,
          "velocity": 0.48031496062992124
        },
        {
          "duration": 0.11627906976743674,
          "durationTicks": 10,
          "midi": 67,
          "name": "G4",
          "ticks": 3837,
          "time": 44.616279069767444,
          "velocity": 0.15748031496062992
        },
        {
          "duration": 0.02325581395349019,
          "durationTicks": 2,
          "midi": 49,
          "name": "C#3",
          "ticks": 3839,
          "time": 44.63953488372093,
          "velocity": 0.4330708661417323
        },
        {
          "duration": 0.1046511627907023,
          "durationTicks": 9,
          "midi": 57,
          "name": "A3",
          "ticks": 3839,
          "time": 44.63953488372093,
          "velocity": 0.11811023622047244
        },
        {
          "duration": 0.03488372093023173,
          "durationTicks": 3,
          "midi": 50,
          "name": "D3",
          "ticks": 3841,
          "time": 44.66279069767442,
          "velocity": 0.4330708661417323
        },
        {
          "duration": 0.023255813953483084,
          "durationTicks": 2,
          "midi": 45,
          "name": "A2",
          "ticks": 3842,
          "time": 44.674418604651166,
          "velocity": 0.3700787401574803
        },
        {
          "duration": 0.3720930232558146,
          "durationTicks": 32,
          "midi": 79,
          "name": "G5",
          "ticks": 3848,
          "time": 44.74418604651163,
          "velocity": 0.28346456692913385
        },
        {
          "duration": 0.02325581395349019,
          "durationTicks": 2,
          "midi": 60,
          "name": "C4",
          "ticks": 3849,
          "time": 44.75581395348837,
          "velocity": 0.28346456692913385
        },
        {
          "duration": 0.02325581395349019,
          "durationTicks": 2,
          "midi": 68,
          "name": "G#4",
          "ticks": 3849,
          "time": 44.75581395348837,
          "velocity": 0.4094488188976378
        },
        {
          "duration": 0.24418604651162923,
          "durationTicks": 21,
          "midi": 83,
          "name": "B5",
          "ticks": 3849,
          "time": 44.75581395348837,
          "velocity": 0.2204724409448819
        },
        {
          "duration": 0.11627906976744384,
          "durationTicks": 10,
          "midi": 88,
          "name": "E6",
          "ticks": 3849,
          "time": 44.75581395348837,
          "velocity": 0.10236220472440945
        },
        {
          "duration": 0.03488372093023173,
          "durationTicks": 3,
          "midi": 89,
          "name": "F6",
          "ticks": 3849,
          "time": 44.75581395348837,
          "velocity": 0.08661417322834646
        },
        {
          "duration": 0.011627906976741542,
          "durationTicks": 1,
          "midi": 47,
          "name": "B2",
          "ticks": 3850,
          "time": 44.76744186046512,
          "velocity": 0.5275590551181102
        },
        {
          "duration": 0.046511627906973274,
          "durationTicks": 4,
          "midi": 37,
          "name": "C#2",
          "ticks": 3851,
          "time": 44.77906976744186,
          "velocity": 0.4566929133858268
        },
        {
          "duration": 0.03488372093023173,
          "durationTicks": 3,
          "midi": 48,
          "name": "C3",
          "ticks": 3851,
          "time": 44.77906976744186,
          "velocity": 0.5039370078740157
        },
        {
          "duration": 0.06976744186046346,
          "durationTicks": 6,
          "midi": 55,
          "name": "G3",
          "ticks": 3851,
          "time": 44.77906976744186,
          "velocity": 0.3464566929133858
        },
        {
          "duration": 0.22093023255813904,
          "durationTicks": 19,
          "midi": 67,
          "name": "G4",
          "ticks": 3851,
          "time": 44.77906976744186,
          "velocity": 0.4566929133858268
        },
        {
          "duration": 0.046511627906973274,
          "durationTicks": 4,
          "midi": 82,
          "name": "A#5",
          "ticks": 3851,
          "time": 44.77906976744186,
          "velocity": 0.08661417322834646
        },
        {
          "duration": 0.19767441860464885,
          "durationTicks": 17,
          "midi": 93,
          "name": "A6",
          "ticks": 3851,
          "time": 44.77906976744186,
          "velocity": 0.1968503937007874
        },
        {
          "duration": 0.06976744186047057,
          "durationTicks": 6,
          "midi": 78,
          "name": "F#5",
          "ticks": 3852,
          "time": 44.7906976744186,
          "velocity": 0.12598425196850394
        },
        {
          "duration": 0.046511627906973274,
          "durationTicks": 4,
          "midi": 89,
          "name": "F6",
          "ticks": 3853,
          "time": 44.80232558139535,
          "velocity": 0.11023622047244094
        },
        {
          "duration": 0.02325581395349019,
          "durationTicks": 2,
          "midi": 47,
          "name": "B2",
          "ticks": 3854,
          "time": 44.81395348837209,
          "velocity": 0.4409448818897638
        },
        {
          "duration": 0.04651162790698038,
          "durationTicks": 4,
          "midi": 69,
          "name": "A4",
          "ticks": 3854,
          "time": 44.81395348837209,
          "velocity": 0.18110236220472442
        },
        {
          "duration": 0.04651162790698038,
          "durationTicks": 4,
          "midi": 36,
          "name": "C2",
          "ticks": 3855,
          "time": 44.825581395348834,
          "velocity": 0.3937007874015748
        },
        {
          "duration": 0.15116279069767558,
          "durationTicks": 13,
          "midi": 60,
          "name": "C4",
          "ticks": 3855,
          "time": 44.825581395348834,
          "velocity": 0.28346456692913385
        },
        {
          "duration": 0.16279069767441712,
          "durationTicks": 14,
          "midi": 48,
          "name": "C3",
          "ticks": 3856,
          "time": 44.83720930232558,
          "velocity": 0.5039370078740157
        },
        {
          "duration": 0.02325581395349019,
          "durationTicks": 2,
          "midi": 54,
          "name": "F#3",
          "ticks": 3857,
          "time": 44.848837209302324,
          "velocity": 0.4251968503937008
        },
        {
          "duration": 0.11627906976743674,
          "durationTicks": 10,
          "midi": 64,
          "name": "E4",
          "ticks": 3858,
          "time": 44.86046511627907,
          "velocity": 0.18110236220472442
        },
        {
          "duration": 0.03488372093023173,
          "durationTicks": 3,
          "midi": 37,
          "name": "C#2",
          "ticks": 3859,
          "time": 44.872093023255815,
          "velocity": 0.3937007874015748
        },
        {
          "duration": 0.02325581395349019,
          "durationTicks": 2,
          "midi": 55,
          "name": "G3",
          "ticks": 3859,
          "time": 44.872093023255815,
          "velocity": 0.4094488188976378
        },
        {
          "duration": 0.03488372093023173,
          "durationTicks": 3,
          "midi": 78,
          "name": "F#5",
          "ticks": 3859,
          "time": 44.872093023255815,
          "velocity": 0.07086614173228346
        },
        {
          "duration": 0.1046511627906952,
          "durationTicks": 9,
          "midi": 89,
          "name": "F6",
          "ticks": 3859,
          "time": 44.872093023255815,
          "velocity": 0.16535433070866143
        },
        {
          "duration": 0.1046511627906952,
          "durationTicks": 9,
          "midi": 55,
          "name": "G3",
          "ticks": 3862,
          "time": 44.906976744186046,
          "velocity": 0.3937007874015748
        },
        {
          "duration": 0.03488372093023173,
          "durationTicks": 3,
          "midi": 36,
          "name": "C2",
          "ticks": 3865,
          "time": 44.94186046511628,
          "velocity": 0.28346456692913385
        },
        {
          "duration": 0.04651162790698038,
          "durationTicks": 4,
          "midi": 78,
          "name": "F#5",
          "ticks": 3868,
          "time": 44.97674418604651,
          "velocity": 0.07086614173228346
        },
        {
          "duration": 0.22093023255813904,
          "durationTicks": 19,
          "midi": 62,
          "name": "D4",
          "ticks": 3869,
          "time": 44.98837209302326,
          "velocity": 0.28346456692913385
        },
        {
          "duration": 0.09302325581395365,
          "durationTicks": 8,
          "midi": 72,
          "name": "C5",
          "ticks": 3869,
          "time": 44.98837209302326,
          "velocity": 0.14960629921259844
        },
        {
          "duration": 0.06976744186046346,
          "durationTicks": 6,
          "midi": 86,
          "name": "D6",
          "ticks": 3869,
          "time": 44.98837209302326,
          "velocity": 0.10236220472440945
        },
        {
          "duration": 0.046511627906973274,
          "durationTicks": 4,
          "midi": 69,
          "name": "A4",
          "ticks": 3870,
          "time": 45,
          "velocity": 0.1732283464566929
        },
        {
          "duration": 0.19767441860465595,
          "durationTicks": 17,
          "midi": 50,
          "name": "D3",
          "ticks": 3871,
          "time": 45.01162790697674,
          "velocity": 0.4251968503937008
        },
        {
          "duration": 0.05813953488372192,
          "durationTicks": 5,
          "midi": 39,
          "name": "D#2",
          "ticks": 3872,
          "time": 45.02325581395349,
          "velocity": 0.4251968503937008
        },
        {
          "duration": 0.05813953488372192,
          "durationTicks": 5,
          "midi": 83,
          "name": "B5",
          "ticks": 3872,
          "time": 45.02325581395349,
          "velocity": 0.11811023622047244
        },
        {
          "duration": 0.02325581395349019,
          "durationTicks": 2,
          "midi": 56,
          "name": "G#3",
          "ticks": 3873,
          "time": 45.03488372093023,
          "velocity": 0.36220472440944884
        },
        {
          "duration": 0.17441860465116577,
          "durationTicks": 15,
          "midi": 76,
          "name": "E5",
          "ticks": 3873,
          "time": 45.03488372093023,
          "velocity": 0.09448818897637795
        },
        {
          "duration": 0.04651162790698038,
          "durationTicks": 4,
          "midi": 67,
          "name": "G4",
          "ticks": 3874,
          "time": 45.04651162790697,
          "velocity": 0.2440944881889764
        },
        {
          "duration": 0.1046511627907023,
          "durationTicks": 9,
          "midi": 93,
          "name": "A6",
          "ticks": 3874,
          "time": 45.04651162790697,
          "velocity": 0.15748031496062992
        },
        {
          "duration": 0.6046511627906952,
          "durationTicks": 52,
          "midi": 69,
          "name": "A4",
          "ticks": 3875,
          "time": 45.05813953488372,
          "velocity": 0.4409448818897638
        },
        {
          "duration": 0.023255813953483084,
          "durationTicks": 2,
          "midi": 58,
          "name": "A#3",
          "ticks": 3877,
          "time": 45.08139534883721,
          "velocity": 0.3464566929133858
        },
        {
          "duration": 0.36046511627906597,
          "durationTicks": 31,
          "midi": 66,
          "name": "F#4",
          "ticks": 3877,
          "time": 45.08139534883721,
          "velocity": 0.25196850393700787
        },
        {
          "duration": 0.02325581395349019,
          "durationTicks": 2,
          "midi": 39,
          "name": "D#2",
          "ticks": 3878,
          "time": 45.093023255813954,
          "velocity": 0.3779527559055118
        },
        {
          "duration": 0.11627906976744384,
          "durationTicks": 10,
          "midi": 72,
          "name": "C5",
          "ticks": 3878,
          "time": 45.093023255813954,
          "velocity": 0.1889763779527559
        },
        {
          "duration": 0.2674418604651194,
          "durationTicks": 23,
          "midi": 85,
          "name": "C#6",
          "ticks": 3878,
          "time": 45.093023255813954,
          "velocity": 0.2283464566929134
        },
        {
          "duration": 0.02325581395349019,
          "durationTicks": 2,
          "midi": 56,
          "name": "G#3",
          "ticks": 3879,
          "time": 45.104651162790695,
          "velocity": 0.3858267716535433
        },
        {
          "duration": 0.3139534883720927,
          "durationTicks": 27,
          "midi": 95,
          "name": "B6",
          "ticks": 3879,
          "time": 45.104651162790695,
          "velocity": 0.1732283464566929
        },
        {
          "duration": 0.02325581395349019,
          "durationTicks": 2,
          "midi": 36,
          "name": "C2",
          "ticks": 3881,
          "time": 45.127906976744185,
          "velocity": 0.2440944881889764
        },
        {
          "duration": 0.046511627906973274,
          "durationTicks": 4,
          "midi": 57,
          "name": "A3",
          "ticks": 3883,
          "time": 45.151162790697676,
          "velocity": 0.2677165354330709
        },
        {
          "duration": 0.11627906976744384,
          "durationTicks": 10,
          "midi": 88,
          "name": "E6",
          "ticks": 3887,
          "time": 45.19767441860465,
          "velocity": 0.11811023622047244
        },
        {
          "duration": 0.023255813953483084,
          "durationTicks": 2,
          "midi": 56,
          "name": "G#3",
          "ticks": 3888,
          "time": 45.2093023255814,
          "velocity": 0.4094488188976378
        },
        {
          "duration": 0.19767441860464885,
          "durationTicks": 17,
          "midi": 50,
          "name": "D3",
          "ticks": 3889,
          "time": 45.22093023255814,
          "velocity": 0.4645669291338583
        },
        {
          "duration": 0.05813953488372192,
          "durationTicks": 5,
          "midi": 84,
          "name": "C6",
          "ticks": 3889,
          "time": 45.22093023255814,
          "velocity": 0.09448818897637795
        },
        {
          "duration": 0.03488372093023884,
          "durationTicks": 3,
          "midi": 39,
          "name": "D#2",
          "ticks": 3890,
          "time": 45.23255813953488,
          "velocity": 0.4645669291338583
        },
        {
          "duration": 0.17441860465116577,
          "durationTicks": 15,
          "midi": 57,
          "name": "A3",
          "ticks": 3890,
          "time": 45.23255813953488,
          "velocity": 0.29133858267716534
        },
        {
          "duration": 0.1860465116279073,
          "durationTicks": 16,
          "midi": 72,
          "name": "C5",
          "ticks": 3891,
          "time": 45.24418604651163,
          "velocity": 0.11023622047244094
        },
        {
          "duration": 0.3488372093023244,
          "durationTicks": 30,
          "midi": 76,
          "name": "E5",
          "ticks": 3891,
          "time": 45.24418604651163,
          "velocity": 0.14960629921259844
        },
        {
          "duration": 0.03488372093023173,
          "durationTicks": 3,
          "midi": 91,
          "name": "G6",
          "ticks": 3892,
          "time": 45.25581395348837,
          "velocity": 0.10236220472440945
        },
        {
          "duration": 0.09302325581395365,
          "durationTicks": 8,
          "midi": 38,
          "name": "D2",
          "ticks": 3893,
          "time": 45.26744186046512,
          "velocity": 0.4251968503937008
        },
        {
          "duration": 0.023255813953483084,
          "durationTicks": 2,
          "midi": 37,
          "name": "C#2",
          "ticks": 3901,
          "time": 45.36046511627907,
          "velocity": 0.2677165354330709
        },
        {
          "duration": 0.02325581395349019,
          "durationTicks": 2,
          "midi": 38,
          "name": "D2",
          "ticks": 3903,
          "time": 45.383720930232556,
          "velocity": 0.28346456692913385
        },
        {
          "duration": 0.27906976744186096,
          "durationTicks": 24,
          "midi": 85,
          "name": "C#6",
          "ticks": 3906,
          "time": 45.41860465116279,
          "velocity": 0.2440944881889764
        },
        {
          "duration": 0.011627906976741542,
          "durationTicks": 1,
          "midi": 50,
          "name": "D3",
          "ticks": 3907,
          "time": 45.43023255813954,
          "velocity": 0.5433070866141733
        },
        {
          "duration": 0.22093023255813904,
          "durationTicks": 19,
          "midi": 84,
          "name": "C6",
          "ticks": 3907,
          "time": 45.43023255813954,
          "velocity": 0.2125984251968504
        },
        {
          "duration": 0.011627906976748648,
          "durationTicks": 1,
          "midi": 48,
          "name": "C3",
          "ticks": 3908,
          "time": 45.44186046511628,
          "velocity": 0.5590551181102362
        },
        {
          "duration": 0.04651162790698038,
          "durationTicks": 4,
          "midi": 78,
          "name": "F#5",
          "ticks": 3908,
          "time": 45.44186046511628,
          "velocity": 0.1889763779527559
        },
        {
          "duration": 0.15116279069767558,
          "durationTicks": 13,
          "midi": 88,
          "name": "E6",
          "ticks": 3908,
          "time": 45.44186046511628,
          "velocity": 0.15748031496062992
        },
        {
          "duration": 0.1046511627906952,
          "durationTicks": 9,
          "midi": 50,
          "name": "D3",
          "ticks": 3909,
          "time": 45.45348837209303,
          "velocity": 0.5354330708661418
        },
        {
          "duration": 0.03488372093023173,
          "durationTicks": 3,
          "midi": 92,
          "name": "G#6",
          "ticks": 3909,
          "time": 45.45348837209303,
          "velocity": 0.09448818897637795
        },
        {
          "duration": 0.17441860465115866,
          "durationTicks": 15,
          "midi": 57,
          "name": "A3",
          "ticks": 3910,
          "time": 45.46511627906977,
          "velocity": 0.14960629921259844
        },
        {
          "duration": 0.12790697674418539,
          "durationTicks": 11,
          "midi": 78,
          "name": "F#5",
          "ticks": 3913,
          "time": 45.5,
          "velocity": 0.13385826771653545
        },
        {
          "duration": 0.06976744186046346,
          "durationTicks": 6,
          "midi": 79,
          "name": "G5",
          "ticks": 3913,
          "time": 45.5,
          "velocity": 0.11023622047244094
        },
        {
          "duration": 0.046511627906973274,
          "durationTicks": 4,
          "midi": 67,
          "name": "G4",
          "ticks": 3918,
          "time": 45.55813953488372,
          "velocity": 0.11023622047244094
        },
        {
          "duration": 0.03488372093023173,
          "durationTicks": 3,
          "midi": 50,
          "name": "D3",
          "ticks": 3919,
          "time": 45.56976744186046,
          "velocity": 0.4409448818897638
        },
        {
          "duration": 0.023255813953483084,
          "durationTicks": 2,
          "midi": 45,
          "name": "A2",
          "ticks": 3920,
          "time": 45.58139534883721,
          "velocity": 0.3700787401574803
        },
        {
          "duration": 0.03488372093023173,
          "durationTicks": 3,
          "midi": 68,
          "name": "G#4",
          "ticks": 3926,
          "time": 45.651162790697676,
          "velocity": 0.4094488188976378
        },
        {
          "duration": 0.03488372093023173,
          "durationTicks": 3,
          "midi": 76,
          "name": "E5",
          "ticks": 3926,
          "time": 45.651162790697676,
          "velocity": 0.10236220472440945
        },
        {
          "duration": 0.3953488372092977,
          "durationTicks": 34,
          "midi": 79,
          "name": "G5",
          "ticks": 3926,
          "time": 45.651162790697676,
          "velocity": 0.23622047244094488
        },
        {
          "duration": 0.02325581395349019,
          "durationTicks": 2,
          "midi": 60,
          "name": "C4",
          "ticks": 3927,
          "time": 45.66279069767442,
          "velocity": 0.28346456692913385
        },
        {
          "duration": 0.27906976744186096,
          "durationTicks": 24,
          "midi": 83,
          "name": "B5",
          "ticks": 3927,
          "time": 45.66279069767442,
          "velocity": 0.2204724409448819
        },
        {
          "duration": 0.09302325581395365,
          "durationTicks": 8,
          "midi": 88,
          "name": "E6",
          "ticks": 3927,
          "time": 45.66279069767442,
          "velocity": 0.10236220472440945
        },
        {
          "duration": 0.03488372093023173,
          "durationTicks": 3,
          "midi": 89,
          "name": "F6",
          "ticks": 3927,
          "time": 45.66279069767442,
          "velocity": 0.08661417322834646
        },
        {
          "duration": 0.011627906976741542,
          "durationTicks": 1,
          "midi": 47,
          "name": "B2",
          "ticks": 3928,
          "time": 45.674418604651166,
          "velocity": 0.5275590551181102
        },
        {
          "duration": 0.046511627906973274,
          "durationTicks": 4,
          "midi": 37,
          "name": "C#2",
          "ticks": 3929,
          "time": 45.68604651162791,
          "velocity": 0.4566929133858268
        },
        {
          "duration": 0.09302325581395365,
          "durationTicks": 8,
          "midi": 55,
          "name": "G3",
          "ticks": 3929,
          "time": 45.68604651162791,
          "velocity": 0.3464566929133858
        },
        {
          "duration": 0.30232558139535115,
          "durationTicks": 26,
          "midi": 67,
          "name": "G4",
          "ticks": 3929,
          "time": 45.68604651162791,
          "velocity": 0.4566929133858268
        },
        {
          "duration": 0.046511627906973274,
          "durationTicks": 4,
          "midi": 82,
          "name": "A#5",
          "ticks": 3929,
          "time": 45.68604651162791,
          "velocity": 0.08661417322834646
        },
        {
          "duration": 0.27906976744186096,
          "durationTicks": 24,
          "midi": 93,
          "name": "A6",
          "ticks": 3929,
          "time": 45.68604651162791,
          "velocity": 0.1732283464566929
        },
        {
          "duration": 0.05813953488372192,
          "durationTicks": 5,
          "midi": 78,
          "name": "F#5",
          "ticks": 3930,
          "time": 45.69767441860465,
          "velocity": 0.13385826771653545
        },
        {
          "duration": 0.046511627906973274,
          "durationTicks": 4,
          "midi": 89,
          "name": "F6",
          "ticks": 3931,
          "time": 45.7093023255814,
          "velocity": 0.11023622047244094
        },
        {
          "duration": 0.02325581395349019,
          "durationTicks": 2,
          "midi": 47,
          "name": "B2",
          "ticks": 3932,
          "time": 45.72093023255814,
          "velocity": 0.4409448818897638
        },
        {
          "duration": 0.03488372093023173,
          "durationTicks": 3,
          "midi": 69,
          "name": "A4",
          "ticks": 3932,
          "time": 45.72093023255814,
          "velocity": 0.14960629921259844
        },
        {
          "duration": 0.04651162790698038,
          "durationTicks": 4,
          "midi": 36,
          "name": "C2",
          "ticks": 3933,
          "time": 45.73255813953488,
          "velocity": 0.3937007874015748
        },
        {
          "duration": 0.15116279069767558,
          "durationTicks": 13,
          "midi": 60,
          "name": "C4",
          "ticks": 3933,
          "time": 45.73255813953488,
          "velocity": 0.2677165354330709
        },
        {
          "duration": 0.15116279069767558,
          "durationTicks": 13,
          "midi": 64,
          "name": "E4",
          "ticks": 3933,
          "time": 45.73255813953488,
          "velocity": 0.2047244094488189
        },
        {
          "duration": 0.09302325581395365,
          "durationTicks": 8,
          "midi": 55,
          "name": "G3",
          "ticks": 3938,
          "time": 45.7906976744186,
          "velocity": 0.4251968503937008
        },
        {
          "duration": 0.13953488372093403,
          "durationTicks": 12,
          "midi": 89,
          "name": "F6",
          "ticks": 3938,
          "time": 45.7906976744186,
          "velocity": 0.14173228346456693
        },
        {
          "duration": 0.05813953488372192,
          "durationTicks": 5,
          "midi": 36,
          "name": "C2",
          "ticks": 3941,
          "time": 45.825581395348834,
          "velocity": 0.31496062992125984
        },
        {
          "duration": 0.06976744186046346,
          "durationTicks": 6,
          "midi": 48,
          "name": "C3",
          "ticks": 3942,
          "time": 45.83720930232558,
          "velocity": 0.5039370078740157
        },
        {
          "duration": 0.046511627906973274,
          "durationTicks": 4,
          "midi": 70,
          "name": "A#4",
          "ticks": 3942,
          "time": 45.83720930232558,
          "velocity": 0.08661417322834646
        },
        {
          "duration": 0.02325581395349019,
          "durationTicks": 2,
          "midi": 58,
          "name": "A#3",
          "ticks": 3946,
          "time": 45.883720930232556,
          "velocity": 0.2755905511811024
        },
        {
          "duration": 0.22093023255813904,
          "durationTicks": 19,
          "midi": 62,
          "name": "D4",
          "ticks": 3947,
          "time": 45.895348837209305,
          "velocity": 0.29133858267716534
        },
        {
          "duration": 0.1046511627906952,
          "durationTicks": 9,
          "midi": 72,
          "name": "C5",
          "ticks": 3947,
          "time": 45.895348837209305,
          "velocity": 0.15748031496062992
        },
        {
          "duration": 0.05813953488372192,
          "durationTicks": 5,
          "midi": 57,
          "name": "A3",
          "ticks": 3948,
          "time": 45.906976744186046,
          "velocity": 0.33858267716535434
        },
        {
          "duration": 0.02325581395349019,
          "durationTicks": 2,
          "midi": 38,
          "name": "D2",
          "ticks": 3949,
          "time": 45.91860465116279,
          "velocity": 0.4566929133858268
        },
        {
          "duration": 0.04651162790698038,
          "durationTicks": 4,
          "midi": 39,
          "name": "D#2",
          "ticks": 3951,
          "time": 45.94186046511628,
          "velocity": 0.4094488188976378
        },
        {
          "duration": 0.05813953488372192,
          "durationTicks": 5,
          "midi": 76,
          "name": "E5",
          "ticks": 3951,
          "time": 45.94186046511628,
          "velocity": 0.08661417322834646
        },
        {
          "duration": 0.046511627906973274,
          "durationTicks": 4,
          "midi": 38,
          "name": "D2",
          "ticks": 3955,
          "time": 45.98837209302326,
          "velocity": 0.36220472440944884
        },
        {
          "duration": 0.43023255813952943,
          "durationTicks": 37,
          "midi": 69,
          "name": "A4",
          "ticks": 3955,
          "time": 45.98837209302326,
          "velocity": 0.4645669291338583
        },
        {
          "duration": 0.12790697674418539,
          "durationTicks": 11,
          "midi": 93,
          "name": "A6",
          "ticks": 3955,
          "time": 45.98837209302326,
          "velocity": 0.14173228346456693
        },
        {
          "duration": 0.02325581395349019,
          "durationTicks": 2,
          "midi": 56,
          "name": "G#3",
          "ticks": 3956,
          "time": 46,
          "velocity": 0.47244094488188976
        },
        {
          "duration": 0.6162790697674438,
          "durationTicks": 53,
          "midi": 85,
          "name": "C#6",
          "ticks": 3956,
          "time": 46,
          "velocity": 0.25984251968503935
        },
        {
          "duration": 0.34883720930233153,
          "durationTicks": 30,
          "midi": 66,
          "name": "F#4",
          "ticks": 3957,
          "time": 46.01162790697674,
          "velocity": 0.25984251968503935
        },
        {
          "duration": 0.11627906976744384,
          "durationTicks": 10,
          "midi": 72,
          "name": "C5",
          "ticks": 3957,
          "time": 46.01162790697674,
          "velocity": 0.1889763779527559
        },
        {
          "duration": 0.3604651162790731,
          "durationTicks": 31,
          "midi": 95,
          "name": "B6",
          "ticks": 3957,
          "time": 46.01162790697674,
          "velocity": 0.1732283464566929
        },
        {
          "duration": 0.09302325581395365,
          "durationTicks": 8,
          "midi": 57,
          "name": "A3",
          "ticks": 3958,
          "time": 46.02325581395349,
          "velocity": 0.4094488188976378
        },
        {
          "duration": 0.02325581395349019,
          "durationTicks": 2,
          "midi": 36,
          "name": "C2",
          "ticks": 3959,
          "time": 46.03488372093023,
          "velocity": 0.25984251968503935
        },
        {
          "duration": 0.02325581395349019,
          "durationTicks": 2,
          "midi": 39,
          "name": "D#2",
          "ticks": 3962,
          "time": 46.06976744186046,
          "velocity": 0.29133858267716534
        },
        {
          "duration": 0.19767441860464885,
          "durationTicks": 17,
          "midi": 80,
          "name": "G#5",
          "ticks": 3966,
          "time": 46.116279069767444,
          "velocity": 0.16535433070866143
        },
        {
          "duration": 0.09302325581395365,
          "durationTicks": 8,
          "midi": 90,
          "name": "F#6",
          "ticks": 3966,
          "time": 46.116279069767444,
          "velocity": 0.12598425196850394
        },
        {
          "duration": 0.1046511627906952,
          "durationTicks": 9,
          "midi": 57,
          "name": "A3",
          "ticks": 3967,
          "time": 46.127906976744185,
          "velocity": 0.4251968503937008
        },
        {
          "duration": 0.4534883720930267,
          "durationTicks": 39,
          "midi": 62,
          "name": "D4",
          "ticks": 3967,
          "time": 46.127906976744185,
          "velocity": 0.4881889763779528
        },
        {
          "duration": 0.08139534883721211,
          "durationTicks": 7,
          "midi": 88,
          "name": "E6",
          "ticks": 3967,
          "time": 46.127906976744185,
          "velocity": 0.08661417322834646
        },
        {
          "duration": 0.2093023255813975,
          "durationTicks": 18,
          "midi": 50,
          "name": "D3",
          "ticks": 3968,
          "time": 46.13953488372093,
          "velocity": 0.5039370078740157
        },
        {
          "duration": 0.04651162790698038,
          "durationTicks": 4,
          "midi": 84,
          "name": "C6",
          "ticks": 3968,
          "time": 46.13953488372093,
          "velocity": 0.08661417322834646
        },
        {
          "duration": 0.03488372093023173,
          "durationTicks": 3,
          "midi": 39,
          "name": "D#2",
          "ticks": 3969,
          "time": 46.151162790697676,
          "velocity": 0.4881889763779528
        },
        {
          "duration": 0.1860465116279073,
          "durationTicks": 16,
          "midi": 72,
          "name": "C5",
          "ticks": 3969,
          "time": 46.151162790697676,
          "velocity": 0.1889763779527559
        },
        {
          "duration": 0.03488372093023173,
          "durationTicks": 3,
          "midi": 91,
          "name": "G6",
          "ticks": 3971,
          "time": 46.174418604651166,
          "velocity": 0.10236220472440945
        },
        {
          "duration": 0.08139534883721211,
          "durationTicks": 7,
          "midi": 38,
          "name": "D2",
          "ticks": 3972,
          "time": 46.18604651162791,
          "velocity": 0.4251968503937008
        },
        {
          "duration": 0.03488372093023173,
          "durationTicks": 3,
          "midi": 76,
          "name": "E5",
          "ticks": 3973,
          "time": 46.19767441860465,
          "velocity": 0.07874015748031496
        },
        {
          "duration": 0.02325581395349019,
          "durationTicks": 2,
          "midi": 56,
          "name": "G#3",
          "ticks": 3976,
          "time": 46.23255813953488,
          "velocity": 0.4251968503937008
        },
        {
          "duration": 0.081395348837205,
          "durationTicks": 7,
          "midi": 88,
          "name": "E6",
          "ticks": 3977,
          "time": 46.24418604651163,
          "velocity": 0.07874015748031496
        },
        {
          "duration": 0.1046511627906952,
          "durationTicks": 9,
          "midi": 91,
          "name": "G6",
          "ticks": 3977,
          "time": 46.24418604651163,
          "velocity": 0.11811023622047244
        },
        {
          "duration": 0.11627906976744384,
          "durationTicks": 10,
          "midi": 57,
          "name": "A3",
          "ticks": 3978,
          "time": 46.25581395348837,
          "velocity": 0.3779527559055118
        },
        {
          "duration": 0.023255813953483084,
          "durationTicks": 2,
          "midi": 37,
          "name": "C#2",
          "ticks": 3979,
          "time": 46.26744186046512,
          "velocity": 0.2677165354330709
        },
        {
          "duration": 0.03488372093023173,
          "durationTicks": 3,
          "midi": 38,
          "name": "D2",
          "ticks": 3983,
          "time": 46.31395348837209,
          "velocity": 0.31496062992125984
        },
        {
          "duration": 0.03488372093023173,
          "durationTicks": 3,
          "midi": 71,
          "name": "B4",
          "ticks": 3985,
          "time": 46.33720930232558,
          "velocity": 0.18110236220472442
        },
        {
          "duration": 0.3953488372092977,
          "durationTicks": 34,
          "midi": 74,
          "name": "D5",
          "ticks": 3985,
          "time": 46.33720930232558,
          "velocity": 0.5354330708661418
        },
        {
          "duration": 0.16279069767441712,
          "durationTicks": 14,
          "midi": 90,
          "name": "F#6",
          "ticks": 3986,
          "time": 46.348837209302324,
          "velocity": 0.2047244094488189
        },
        {
          "duration": 0.25581395348837077,
          "durationTicks": 22,
          "midi": 83,
          "name": "B5",
          "ticks": 3987,
          "time": 46.36046511627907,
          "velocity": 0.2125984251968504
        },
        {
          "duration": 0.23255813953488058,
          "durationTicks": 20,
          "midi": 89,
          "name": "F6",
          "ticks": 3987,
          "time": 46.36046511627907,
          "velocity": 0.18110236220472442
        },
        {
          "duration": 0.081395348837205,
          "durationTicks": 7,
          "midi": 96,
          "name": "C7",
          "ticks": 3987,
          "time": 46.36046511627907,
          "velocity": 0.09448818897637795
        },
        {
          "duration": 0.22093023255813904,
          "durationTicks": 19,
          "midi": 77,
          "name": "F5",
          "ticks": 3988,
          "time": 46.372093023255815,
          "velocity": 0.2047244094488189
        },
        {
          "duration": 0.19767441860465595,
          "durationTicks": 17,
          "midi": 55,
          "name": "G3",
          "ticks": 3989,
          "time": 46.383720930232556,
          "velocity": 0.44881889763779526
        },
        {
          "duration": 0.023255813953483084,
          "durationTicks": 2,
          "midi": 43,
          "name": "G2",
          "ticks": 3990,
          "time": 46.395348837209305,
          "velocity": 0.3700787401574803
        },
        {
          "duration": 0.1046511627906952,
          "durationTicks": 9,
          "midi": 71,
          "name": "B4",
          "ticks": 3990,
          "time": 46.395348837209305,
          "velocity": 0.11023622047244094
        },
        {
          "duration": 0.02325581395349019,
          "durationTicks": 2,
          "midi": 42,
          "name": "F#2",
          "ticks": 3992,
          "time": 46.41860465116279,
          "velocity": 0.41732283464566927
        },
        {
          "duration": 0.03488372093023173,
          "durationTicks": 3,
          "midi": 43,
          "name": "G2",
          "ticks": 3997,
          "time": 46.47674418604651,
          "velocity": 0.3543307086614173
        },
        {
          "duration": 0.046511627906973274,
          "durationTicks": 4,
          "midi": 43,
          "name": "G2",
          "ticks": 4001,
          "time": 46.52325581395349,
          "velocity": 0.33070866141732286
        },
        {
          "duration": 0.05813953488372192,
          "durationTicks": 5,
          "midi": 90,
          "name": "F#6",
          "ticks": 4004,
          "time": 46.55813953488372,
          "velocity": 0.12598425196850394
        },
        {
          "duration": 0.46511627906976827,
          "durationTicks": 40,
          "midi": 79,
          "name": "G5",
          "ticks": 4005,
          "time": 46.56976744186046,
          "velocity": 0.2755905511811024
        },
        {
          "duration": 0.11627906976744384,
          "durationTicks": 10,
          "midi": 88,
          "name": "E6",
          "ticks": 4005,
          "time": 46.56976744186046,
          "velocity": 0.2283464566929134
        },
        {
          "duration": 0.23255813953488058,
          "durationTicks": 20,
          "midi": 53,
          "name": "F3",
          "ticks": 4006,
          "time": 46.58139534883721,
          "velocity": 0.4645669291338583
        },
        {
          "duration": 0.22093023255813904,
          "durationTicks": 19,
          "midi": 60,
          "name": "C4",
          "ticks": 4006,
          "time": 46.58139534883721,
          "velocity": 0.4645669291338583
        },
        {
          "duration": 0.32558139534883423,
          "durationTicks": 28,
          "midi": 72,
          "name": "C5",
          "ticks": 4006,
          "time": 46.58139534883721,
          "velocity": 0.5039370078740157
        },
        {
          "duration": 0.058139534883714816,
          "durationTicks": 5,
          "midi": 94,
          "name": "A#6",
          "ticks": 4006,
          "time": 46.58139534883721,
          "velocity": 0.16535433070866143
        },
        {
          "duration": 0.05813953488372192,
          "durationTicks": 5,
          "midi": 87,
          "name": "D#6",
          "ticks": 4007,
          "time": 46.593023255813954,
          "velocity": 0.07874015748031496
        },
        {
          "duration": 0.06976744186046346,
          "durationTicks": 6,
          "midi": 96,
          "name": "C7",
          "ticks": 4007,
          "time": 46.593023255813954,
          "velocity": 0.1732283464566929
        },
        {
          "duration": 0.02325581395349019,
          "durationTicks": 2,
          "midi": 42,
          "name": "F#2",
          "ticks": 4008,
          "time": 46.604651162790695,
          "velocity": 0.48031496062992124
        },
        {
          "duration": 0.2093023255813975,
          "durationTicks": 18,
          "midi": 69,
          "name": "A4",
          "ticks": 4008,
          "time": 46.604651162790695,
          "velocity": 0.25196850393700787
        },
        {
          "duration": 0.1046511627906952,
          "durationTicks": 9,
          "midi": 41,
          "name": "F2",
          "ticks": 4010,
          "time": 46.627906976744185,
          "velocity": 0.4251968503937008
        },
        {
          "duration": 0.03488372093023173,
          "durationTicks": 3,
          "midi": 83,
          "name": "B5",
          "ticks": 4010,
          "time": 46.627906976744185,
          "velocity": 0.11811023622047244
        },
        {
          "duration": 0.06976744186046346,
          "durationTicks": 6,
          "midi": 83,
          "name": "B5",
          "ticks": 4014,
          "time": 46.674418604651166,
          "velocity": 0.07874015748031496
        },
        {
          "duration": 0.05813953488372192,
          "durationTicks": 5,
          "midi": 96,
          "name": "C7",
          "ticks": 4015,
          "time": 46.68604651162791,
          "velocity": 0.08661417322834646
        },
        {
          "duration": 0.09302325581395365,
          "durationTicks": 8,
          "midi": 88,
          "name": "E6",
          "ticks": 4019,
          "time": 46.73255813953488,
          "velocity": 0.10236220472440945
        },
        {
          "duration": 0.046511627906973274,
          "durationTicks": 4,
          "midi": 41,
          "name": "F2",
          "ticks": 4020,
          "time": 46.74418604651163,
          "velocity": 0.3228346456692913
        },
        {
          "duration": 0.24418604651162212,
          "durationTicks": 21,
          "midi": 67,
          "name": "G4",
          "ticks": 4025,
          "time": 46.80232558139535,
          "velocity": 0.4251968503937008
        },
        {
          "duration": 0.05813953488372192,
          "durationTicks": 5,
          "midi": 90,
          "name": "F#6",
          "ticks": 4026,
          "time": 46.81395348837209,
          "velocity": 0.07086614173228346
        },
        {
          "duration": 0.12790697674418539,
          "durationTicks": 11,
          "midi": 93,
          "name": "A6",
          "ticks": 4026,
          "time": 46.81395348837209,
          "velocity": 0.16535433070866143
        },
        {
          "duration": 0.02325581395349019,
          "durationTicks": 2,
          "midi": 50,
          "name": "D3",
          "ticks": 4027,
          "time": 46.825581395348834,
          "velocity": 0.48031496062992124
        },
        {
          "duration": 0.19767441860465595,
          "durationTicks": 17,
          "midi": 83,
          "name": "B5",
          "ticks": 4027,
          "time": 46.825581395348834,
          "velocity": 0.18110236220472442
        },
        {
          "duration": 0.1046511627907023,
          "durationTicks": 9,
          "midi": 89,
          "name": "F6",
          "ticks": 4027,
          "time": 46.825581395348834,
          "velocity": 0.11023622047244094
        },
        {
          "duration": 0.046511627906973274,
          "durationTicks": 4,
          "midi": 39,
          "name": "D#2",
          "ticks": 4028,
          "time": 46.83720930232558,
          "velocity": 0.47244094488188976
        },
        {
          "duration": 0.02325581395349019,
          "durationTicks": 2,
          "midi": 56,
          "name": "G#3",
          "ticks": 4029,
          "time": 46.848837209302324,
          "velocity": 0.3543307086614173
        },
        {
          "duration": 0.1860465116279002,
          "durationTicks": 16,
          "midi": 50,
          "name": "D3",
          "ticks": 4030,
          "time": 46.86046511627907,
          "velocity": 0.41732283464566927
        },
        {
          "duration": 0.1046511627906952,
          "durationTicks": 9,
          "midi": 76,
          "name": "E5",
          "ticks": 4031,
          "time": 46.872093023255815,
          "velocity": 0.07086614173228346
        },
        {
          "duration": 0.09302325581395365,
          "durationTicks": 8,
          "midi": 86,
          "name": "D6",
          "ticks": 4031,
          "time": 46.872093023255815,
          "velocity": 0.07874015748031496
        },
        {
          "duration": 0.08139534883721211,
          "durationTicks": 7,
          "midi": 38,
          "name": "D2",
          "ticks": 4032,
          "time": 46.883720930232556,
          "velocity": 0.3779527559055118
        },
        {
          "duration": 0.02325581395349019,
          "durationTicks": 2,
          "midi": 56,
          "name": "G#3",
          "ticks": 4037,
          "time": 46.94186046511628,
          "velocity": 0.33070866141732286
        },
        {
          "duration": 0.06976744186046346,
          "durationTicks": 6,
          "midi": 72,
          "name": "C5",
          "ticks": 4037,
          "time": 46.94186046511628,
          "velocity": 0.12598425196850394
        },
        {
          "duration": 0.02325581395349019,
          "durationTicks": 2,
          "midi": 37,
          "name": "C#2",
          "ticks": 4039,
          "time": 46.96511627906977,
          "velocity": 0.2440944881889764
        },
        {
          "duration": 0.02325581395349019,
          "durationTicks": 2,
          "midi": 57,
          "name": "A3",
          "ticks": 4039,
          "time": 46.96511627906977,
          "velocity": 0.2677165354330709
        },
        {
          "duration": 0.046511627906973274,
          "durationTicks": 4,
          "midi": 38,
          "name": "D2",
          "ticks": 4041,
          "time": 46.98837209302326,
          "velocity": 0.29133858267716534
        },
        {
          "duration": 0.4767441860465098,
          "durationTicks": 41,
          "midi": 69,
          "name": "A4",
          "ticks": 4045,
          "time": 47.03488372093023,
          "velocity": 0.44881889763779526
        },
        {
          "duration": 0.09302325581395365,
          "durationTicks": 8,
          "midi": 90,
          "name": "F#6",
          "ticks": 4045,
          "time": 47.03488372093023,
          "velocity": 0.12598425196850394
        },
        {
          "duration": 0.1046511627907023,
          "durationTicks": 9,
          "midi": 57,
          "name": "A3",
          "ticks": 4046,
          "time": 47.04651162790697,
          "velocity": 0.4409448818897638
        },
        {
          "duration": 0.24418604651162923,
          "durationTicks": 21,
          "midi": 62,
          "name": "D4",
          "ticks": 4046,
          "time": 47.04651162790697,
          "velocity": 0.3464566929133858
        },
        {
          "duration": 0.1279069767441925,
          "durationTicks": 11,
          "midi": 66,
          "name": "F#4",
          "ticks": 4046,
          "time": 47.04651162790697,
          "velocity": 0.2755905511811024
        },
        {
          "duration": 0.5116279069767486,
          "durationTicks": 44,
          "midi": 85,
          "name": "C#6",
          "ticks": 4046,
          "time": 47.04651162790697,
          "velocity": 0.23622047244094488
        },
        {
          "duration": 0.2093023255813975,
          "durationTicks": 18,
          "midi": 50,
          "name": "D3",
          "ticks": 4047,
          "time": 47.05813953488372,
          "velocity": 0.5354330708661418
        },
        {
          "duration": 0.2093023255813975,
          "durationTicks": 18,
          "midi": 72,
          "name": "C5",
          "ticks": 4047,
          "time": 47.05813953488372,
          "velocity": 0.18110236220472442
        },
        {
          "duration": 0.22093023255813904,
          "durationTicks": 19,
          "midi": 95,
          "name": "B6",
          "ticks": 4047,
          "time": 47.05813953488372,
          "velocity": 0.1732283464566929
        },
        {
          "duration": 0.03488372093023173,
          "durationTicks": 3,
          "midi": 39,
          "name": "D#2",
          "ticks": 4048,
          "time": 47.06976744186046,
          "velocity": 0.4881889763779528
        },
        {
          "duration": 0.03488372093023173,
          "durationTicks": 3,
          "midi": 91,
          "name": "G6",
          "ticks": 4050,
          "time": 47.093023255813954,
          "velocity": 0.11811023622047244
        },
        {
          "duration": 0.04651162790698038,
          "durationTicks": 4,
          "midi": 38,
          "name": "D2",
          "ticks": 4051,
          "time": 47.104651162790695,
          "velocity": 0.4251968503937008
        },
        {
          "duration": 0.17441860465115866,
          "durationTicks": 15,
          "midi": 80,
          "name": "G#5",
          "ticks": 4052,
          "time": 47.116279069767444,
          "velocity": 0.2047244094488189
        },
        {
          "duration": 0.03488372093023173,
          "durationTicks": 3,
          "midi": 56,
          "name": "G#3",
          "ticks": 4055,
          "time": 47.151162790697676,
          "velocity": 0.3937007874015748
        },
        {
          "duration": 0.05813953488372192,
          "durationTicks": 5,
          "midi": 82,
          "name": "A#5",
          "ticks": 4055,
          "time": 47.151162790697676,
          "velocity": 0.11811023622047244
        },
        {
          "duration": 0.09302325581395365,
          "durationTicks": 8,
          "midi": 90,
          "name": "F#6",
          "ticks": 4055,
          "time": 47.151162790697676,
          "velocity": 0.14173228346456693
        },
        {
          "duration": 0.09302325581395365,
          "durationTicks": 8,
          "midi": 91,
          "name": "G6",
          "ticks": 4055,
          "time": 47.151162790697676,
          "velocity": 0.11811023622047244
        },
        {
          "duration": 0.08139534883721211,
          "durationTicks": 7,
          "midi": 88,
          "name": "E6",
          "ticks": 4056,
          "time": 47.16279069767442,
          "velocity": 0.07874015748031496
        },
        {
          "duration": 0.023255813953483084,
          "durationTicks": 2,
          "midi": 40,
          "name": "E2",
          "ticks": 4057,
          "time": 47.174418604651166,
          "velocity": 0.4330708661417323
        },
        {
          "duration": 0.08139534883721211,
          "durationTicks": 7,
          "midi": 57,
          "name": "A3",
          "ticks": 4058,
          "time": 47.18604651162791,
          "velocity": 0.2677165354330709
        },
        {
          "duration": 0.02325581395349019,
          "durationTicks": 2,
          "midi": 39,
          "name": "D#2",
          "ticks": 4059,
          "time": 47.19767441860465,
          "velocity": 0.3700787401574803
        },
        {
          "duration": 0.05813953488372192,
          "durationTicks": 5,
          "midi": 66,
          "name": "F#4",
          "ticks": 4060,
          "time": 47.2093023255814,
          "velocity": 0.11811023622047244
        },
        {
          "duration": 0.13953488372092693,
          "durationTicks": 12,
          "midi": 76,
          "name": "E5",
          "ticks": 4060,
          "time": 47.2093023255814,
          "velocity": 0.10236220472440945
        },
        {
          "duration": 0.04651162790698038,
          "durationTicks": 4,
          "midi": 38,
          "name": "D2",
          "ticks": 4061,
          "time": 47.22093023255814,
          "velocity": 0.33858267716535434
        },
        {
          "duration": 0.03488372093023173,
          "durationTicks": 3,
          "midi": 48,
          "name": "C3",
          "ticks": 4065,
          "time": 47.26744186046512,
          "velocity": 0.5196850393700787
        },
        {
          "duration": 0.418604651162795,
          "durationTicks": 36,
          "midi": 74,
          "name": "D5",
          "ticks": 4067,
          "time": 47.2906976744186,
          "velocity": 0.33070866141732286
        },
        {
          "duration": 0.1860465116279073,
          "durationTicks": 16,
          "midi": 78,
          "name": "F#5",
          "ticks": 4067,
          "time": 47.2906976744186,
          "velocity": 0.2125984251968504
        },
        {
          "duration": 0.23255813953488058,
          "durationTicks": 20,
          "midi": 62,
          "name": "D4",
          "ticks": 4068,
          "time": 47.30232558139535,
          "velocity": 0.4409448818897638
        },
        {
          "duration": 0.03488372093023173,
          "durationTicks": 3,
          "midi": 92,
          "name": "G#6",
          "ticks": 4068,
          "time": 47.30232558139535,
          "velocity": 0.10236220472440945
        },
        {
          "duration": 0.02325581395349019,
          "durationTicks": 2,
          "midi": 51,
          "name": "D#3",
          "ticks": 4069,
          "time": 47.31395348837209,
          "velocity": 0.47244094488188976
        },
        {
          "duration": 0.1860465116279073,
          "durationTicks": 16,
          "midi": 84,
          "name": "C6",
          "ticks": 4069,
          "time": 47.31395348837209,
          "velocity": 0.18110236220472442
        },
        {
          "duration": 0.15116279069767558,
          "durationTicks": 13,
          "midi": 57,
          "name": "A3",
          "ticks": 4071,
          "time": 47.33720930232558,
          "velocity": 0.14173228346456693
        },
        {
          "duration": 0.03488372093023173,
          "durationTicks": 3,
          "midi": 50,
          "name": "D3",
          "ticks": 4073,
          "time": 47.36046511627907,
          "velocity": 0.4645669291338583
        },
        {
          "duration": 0.046511627906973274,
          "durationTicks": 4,
          "midi": 79,
          "name": "G5",
          "ticks": 4074,
          "time": 47.372093023255815,
          "velocity": 0.09448818897637795
        },
        {
          "duration": 0.023255813953483084,
          "durationTicks": 2,
          "midi": 49,
          "name": "C#3",
          "ticks": 4076,
          "time": 47.395348837209305,
          "velocity": 0.41732283464566927
        },
        {
          "duration": 0.04651162790698038,
          "durationTicks": 4,
          "midi": 67,
          "name": "G4",
          "ticks": 4077,
          "time": 47.406976744186046,
          "velocity": 0.14173228346456693
        },
        {
          "duration": 0.02325581395349019,
          "durationTicks": 2,
          "midi": 50,
          "name": "D3",
          "ticks": 4078,
          "time": 47.41860465116279,
          "velocity": 0.4251968503937008
        },
        {
          "duration": 0.02325581395349019,
          "durationTicks": 2,
          "midi": 45,
          "name": "A2",
          "ticks": 4079,
          "time": 47.43023255813954,
          "velocity": 0.3700787401574803
        },
        {
          "duration": 0.02325581395349019,
          "durationTicks": 2,
          "midi": 44,
          "name": "G#2",
          "ticks": 4085,
          "time": 47.5,
          "velocity": 0.48031496062992124
        },
        {
          "duration": 0.38372093023255616,
          "durationTicks": 33,
          "midi": 79,
          "name": "G5",
          "ticks": 4085,
          "time": 47.5,
          "velocity": 0.28346456692913385
        },
        {
          "duration": 0.02325581395349019,
          "durationTicks": 2,
          "midi": 60,
          "name": "C4",
          "ticks": 4086,
          "time": 47.51162790697674,
          "velocity": 0.28346456692913385
        },
        {
          "duration": 0.02325581395349019,
          "durationTicks": 2,
          "midi": 68,
          "name": "G#4",
          "ticks": 4086,
          "time": 47.51162790697674,
          "velocity": 0.4094488188976378
        },
        {
          "duration": 0.2093023255813975,
          "durationTicks": 18,
          "midi": 83,
          "name": "B5",
          "ticks": 4086,
          "time": 47.51162790697674,
          "velocity": 0.2204724409448819
        },
        {
          "duration": 0.11627906976744384,
          "durationTicks": 10,
          "midi": 88,
          "name": "E6",
          "ticks": 4086,
          "time": 47.51162790697674,
          "velocity": 0.10236220472440945
        },
        {
          "duration": 0.03488372093023173,
          "durationTicks": 3,
          "midi": 89,
          "name": "F6",
          "ticks": 4086,
          "time": 47.51162790697674,
          "velocity": 0.07874015748031496
        },
        {
          "duration": 0.011627906976741542,
          "durationTicks": 1,
          "midi": 47,
          "name": "B2",
          "ticks": 4087,
          "time": 47.52325581395349,
          "velocity": 0.5275590551181102
        },
        {
          "duration": 0.05813953488372192,
          "durationTicks": 5,
          "midi": 82,
          "name": "A#5",
          "ticks": 4087,
          "time": 47.52325581395349,
          "velocity": 0.08661417322834646
        },
        {
          "duration": 0.04651162790698038,
          "durationTicks": 4,
          "midi": 37,
          "name": "C#2",
          "ticks": 4088,
          "time": 47.53488372093023,
          "velocity": 0.4566929133858268
        },
        {
          "duration": 0.03488372093023173,
          "durationTicks": 3,
          "midi": 48,
          "name": "C3",
          "ticks": 4088,
          "time": 47.53488372093023,
          "velocity": 0.5039370078740157
        },
        {
          "duration": 0.06976744186046346,
          "durationTicks": 6,
          "midi": 55,
          "name": "G3",
          "ticks": 4088,
          "time": 47.53488372093023,
          "velocity": 0.3464566929133858
        },
        {
          "duration": 0.19767441860464885,
          "durationTicks": 17,
          "midi": 67,
          "name": "G4",
          "ticks": 4088,
          "time": 47.53488372093023,
          "velocity": 0.4566929133858268
        },
        {
          "duration": 0.2906976744186025,
          "durationTicks": 25,
          "midi": 93,
          "name": "A6",
          "ticks": 4088,
          "time": 47.53488372093023,
          "velocity": 0.1968503937007874
        },
        {
          "duration": 0.06976744186047057,
          "durationTicks": 6,
          "midi": 78,
          "name": "F#5",
          "ticks": 4089,
          "time": 47.54651162790697,
          "velocity": 0.12598425196850394
        },
        {
          "duration": 0.046511627906973274,
          "durationTicks": 4,
          "midi": 89,
          "name": "F6",
          "ticks": 4090,
          "time": 47.55813953488372,
          "velocity": 0.11023622047244094
        },
        {
          "duration": 0.02325581395349019,
          "durationTicks": 2,
          "midi": 47,
          "name": "B2",
          "ticks": 4091,
          "time": 47.56976744186046,
          "velocity": 0.4409448818897638
        },
        {
          "duration": 0.04651162790698038,
          "durationTicks": 4,
          "midi": 69,
          "name": "A4",
          "ticks": 4091,
          "time": 47.56976744186046,
          "velocity": 0.1732283464566929
        },
        {
          "duration": 0.046511627906973274,
          "durationTicks": 4,
          "midi": 36,
          "name": "C2",
          "ticks": 4092,
          "time": 47.58139534883721,
          "velocity": 0.4015748031496063
        },
        {
          "duration": 0.13953488372092693,
          "durationTicks": 12,
          "midi": 60,
          "name": "C4",
          "ticks": 4092,
          "time": 47.58139534883721,
          "velocity": 0.28346456692913385
        },
        {
          "duration": 0.046511627906973274,
          "durationTicks": 4,
          "midi": 48,
          "name": "C3",
          "ticks": 4093,
          "time": 47.593023255813954,
          "velocity": 0.4251968503937008
        },
        {
          "duration": 0.02325581395349019,
          "durationTicks": 2,
          "midi": 54,
          "name": "F#3",
          "ticks": 4094,
          "time": 47.604651162790695,
          "velocity": 0.4251968503937008
        },
        {
          "duration": 0.1046511627906952,
          "durationTicks": 9,
          "midi": 64,
          "name": "E4",
          "ticks": 4095,
          "time": 47.616279069767444,
          "velocity": 0.1732283464566929
        },
        {
          "duration": 0.02325581395349019,
          "durationTicks": 2,
          "midi": 37,
          "name": "C#2",
          "ticks": 4096,
          "time": 47.627906976744185,
          "velocity": 0.3937007874015748
        },
        {
          "duration": 0.02325581395349019,
          "durationTicks": 2,
          "midi": 55,
          "name": "G3",
          "ticks": 4096,
          "time": 47.627906976744185,
          "velocity": 0.4094488188976378
        },
        {
          "duration": 0.09302325581395365,
          "durationTicks": 8,
          "midi": 89,
          "name": "F6",
          "ticks": 4096,
          "time": 47.627906976744185,
          "velocity": 0.16535433070866143
        },
        {
          "duration": 0.02325581395349019,
          "durationTicks": 2,
          "midi": 36,
          "name": "C2",
          "ticks": 4098,
          "time": 47.651162790697676,
          "velocity": 0.29133858267716534
        },
        {
          "duration": 0.06976744186046346,
          "durationTicks": 6,
          "midi": 48,
          "name": "C3",
          "ticks": 4098,
          "time": 47.651162790697676,
          "velocity": 0.3779527559055118
        },
        {
          "duration": 0.06976744186046346,
          "durationTicks": 6,
          "midi": 55,
          "name": "G3",
          "ticks": 4099,
          "time": 47.66279069767442,
          "velocity": 0.36220472440944884
        },
        {
          "duration": 0.1046511627907023,
          "durationTicks": 9,
          "midi": 72,
          "name": "C5",
          "ticks": 4105,
          "time": 47.73255813953488,
          "velocity": 0.14960629921259844
        },
        {
          "duration": 0.1046511627907023,
          "durationTicks": 9,
          "midi": 76,
          "name": "E5",
          "ticks": 4105,
          "time": 47.73255813953488,
          "velocity": 0.07086614173228346
        },
        {
          "duration": 0.19767441860464885,
          "durationTicks": 17,
          "midi": 50,
          "name": "D3",
          "ticks": 4106,
          "time": 47.74418604651163,
          "velocity": 0.4409448818897638
        },
        {
          "duration": 0.02325581395349019,
          "durationTicks": 2,
          "midi": 67,
          "name": "G4",
          "ticks": 4106,
          "time": 47.74418604651163,
          "velocity": 0.25984251968503935
        },
        {
          "duration": 0.08139534883721211,
          "durationTicks": 7,
          "midi": 38,
          "name": "D2",
          "ticks": 4107,
          "time": 47.75581395348837,
          "velocity": 0.44881889763779526
        },
        {
          "duration": 0.023255813953483084,
          "durationTicks": 2,
          "midi": 56,
          "name": "G#3",
          "ticks": 4108,
          "time": 47.76744186046512,
          "velocity": 0.3700787401574803
        },
        {
          "duration": 0.03488372093023173,
          "durationTicks": 3,
          "midi": 69,
          "name": "A4",
          "ticks": 4108,
          "time": 47.76744186046512,
          "velocity": 0.15748031496062992
        },
        {
          "duration": 0.02325581395349019,
          "durationTicks": 2,
          "midi": 57,
          "name": "A3",
          "ticks": 4110,
          "time": 47.7906976744186,
          "velocity": 0.33858267716535434
        },
        {
          "duration": 0.02325581395349019,
          "durationTicks": 2,
          "midi": 67,
          "name": "G4",
          "ticks": 4110,
          "time": 47.7906976744186,
          "velocity": 0.25984251968503935
        },
        {
          "duration": 0.05813953488372192,
          "durationTicks": 5,
          "midi": 57,
          "name": "A3",
          "ticks": 4113,
          "time": 47.825581395348834,
          "velocity": 0.4645669291338583
        },
        {
          "duration": 0.36046511627906597,
          "durationTicks": 31,
          "midi": 66,
          "name": "F#4",
          "ticks": 4114,
          "time": 47.83720930232558,
          "velocity": 0.28346456692913385
        },
        {
          "duration": 0.6279069767441854,
          "durationTicks": 54,
          "midi": 85,
          "name": "C#6",
          "ticks": 4114,
          "time": 47.83720930232558,
          "velocity": 0.25196850393700787
        },
        {
          "duration": 0.1046511627907023,
          "durationTicks": 9,
          "midi": 72,
          "name": "C5",
          "ticks": 4115,
          "time": 47.848837209302324,
          "velocity": 0.1889763779527559
        },
        {
          "duration": 0.32558139534883423,
          "durationTicks": 28,
          "midi": 95,
          "name": "B6",
          "ticks": 4116,
          "time": 47.86046511627907,
          "velocity": 0.1889763779527559
        },
        {
          "duration": 0.02325581395349019,
          "durationTicks": 2,
          "midi": 36,
          "name": "C2",
          "ticks": 4117,
          "time": 47.872093023255815,
          "velocity": 0.2677165354330709
        },
        {
          "duration": 0.5116279069767415,
          "durationTicks": 44,
          "midi": 57,
          "name": "A3",
          "ticks": 4119,
          "time": 47.895348837209305,
          "velocity": 0.48031496062992124
        },
        {
          "duration": 0.2093023255813975,
          "durationTicks": 18,
          "midi": 50,
          "name": "D3",
          "ticks": 4125,
          "time": 47.96511627906977,
          "velocity": 0.47244094488188976
        },
        {
          "duration": 0.046511627906973274,
          "durationTicks": 4,
          "midi": 84,
          "name": "C6",
          "ticks": 4125,
          "time": 47.96511627906977,
          "velocity": 0.08661417322834646
        },
        {
          "duration": 0.03488372093023173,
          "durationTicks": 3,
          "midi": 39,
          "name": "D#2",
          "ticks": 4126,
          "time": 47.97674418604651,
          "velocity": 0.4645669291338583
        },
        {
          "duration": 0.19767441860464885,
          "durationTicks": 17,
          "midi": 72,
          "name": "C5",
          "ticks": 4127,
          "time": 47.98837209302326,
          "velocity": 0.1968503937007874
        },
        {
          "duration": 0.3488372093023244,
          "durationTicks": 30,
          "midi": 76,
          "name": "E5",
          "ticks": 4128,
          "time": 48,
          "velocity": 0.18110236220472442
        },
        {
          "duration": 0.03488372093023173,
          "durationTicks": 3,
          "midi": 91,
          "name": "G6",
          "ticks": 4128,
          "time": 48,
          "velocity": 0.11023622047244094
        },
        {
          "duration": 0.05813953488372192,
          "durationTicks": 5,
          "midi": 38,
          "name": "D2",
          "ticks": 4129,
          "time": 48.01162790697674,
          "velocity": 0.4251968503937008
        },
        {
          "duration": 0.02325581395349019,
          "durationTicks": 2,
          "midi": 37,
          "name": "C#2",
          "ticks": 4136,
          "time": 48.093023255813954,
          "velocity": 0.2440944881889764
        },
        {
          "duration": 0.05813953488372192,
          "durationTicks": 5,
          "midi": 91,
          "name": "G6",
          "ticks": 4137,
          "time": 48.104651162790695,
          "velocity": 0.08661417322834646
        },
        {
          "duration": 0.03488372093023173,
          "durationTicks": 3,
          "midi": 38,
          "name": "D2",
          "ticks": 4139,
          "time": 48.127906976744185,
          "velocity": 0.31496062992125984
        },
        {
          "duration": 0.03488372093023173,
          "durationTicks": 3,
          "midi": 48,
          "name": "C3",
          "ticks": 4143,
          "time": 48.174418604651166,
          "velocity": 0.5275590551181102
        },
        {
          "duration": 0.22093023255813904,
          "durationTicks": 19,
          "midi": 84,
          "name": "C6",
          "ticks": 4144,
          "time": 48.18604651162791,
          "velocity": 0.2125984251968504
        },
        {
          "duration": 0.03488372093023173,
          "durationTicks": 3,
          "midi": 92,
          "name": "G#6",
          "ticks": 4146,
          "time": 48.2093023255814,
          "velocity": 0.09448818897637795
        },
        {
          "duration": 0.03488372093023173,
          "durationTicks": 3,
          "midi": 50,
          "name": "D3",
          "ticks": 4147,
          "time": 48.22093023255814,
          "velocity": 0.49606299212598426
        },
        {
          "duration": 0.12790697674418539,
          "durationTicks": 11,
          "midi": 78,
          "name": "F#5",
          "ticks": 4150,
          "time": 48.25581395348837,
          "velocity": 0.13385826771653545
        },
        {
          "duration": 0.06976744186046346,
          "durationTicks": 6,
          "midi": 79,
          "name": "G5",
          "ticks": 4150,
          "time": 48.25581395348837,
          "velocity": 0.11023622047244094
        },
        {
          "duration": 0.03488372093023173,
          "durationTicks": 3,
          "midi": 50,
          "name": "D3",
          "ticks": 4151,
          "time": 48.26744186046512,
          "velocity": 0.48031496062992124
        },
        {
          "duration": 0.023255813953483084,
          "durationTicks": 2,
          "midi": 49,
          "name": "C#3",
          "ticks": 4154,
          "time": 48.30232558139535,
          "velocity": 0.4330708661417323
        },
        {
          "duration": 0.02325581395349019,
          "durationTicks": 2,
          "midi": 50,
          "name": "D3",
          "ticks": 4156,
          "time": 48.325581395348834,
          "velocity": 0.4330708661417323
        },
        {
          "duration": 0.02325581395349019,
          "durationTicks": 2,
          "midi": 45,
          "name": "A2",
          "ticks": 4157,
          "time": 48.33720930232558,
          "velocity": 0.3700787401574803
        },
        {
          "duration": 0.05813953488372192,
          "durationTicks": 5,
          "midi": 67,
          "name": "G4",
          "ticks": 4157,
          "time": 48.33720930232558,
          "velocity": 0.12598425196850394
        },
        {
          "duration": 0.03488372093023173,
          "durationTicks": 3,
          "midi": 76,
          "name": "E5",
          "ticks": 4163,
          "time": 48.406976744186046,
          "velocity": 0.11023622047244094
        },
        {
          "duration": 0.40697674418604635,
          "durationTicks": 35,
          "midi": 79,
          "name": "G5",
          "ticks": 4163,
          "time": 48.406976744186046,
          "velocity": 0.25196850393700787
        },
        {
          "duration": 0.02325581395349019,
          "durationTicks": 2,
          "midi": 60,
          "name": "C4",
          "ticks": 4164,
          "time": 48.41860465116279,
          "velocity": 0.28346456692913385
        },
        {
          "duration": 0.02325581395349019,
          "durationTicks": 2,
          "midi": 68,
          "name": "G#4",
          "ticks": 4164,
          "time": 48.41860465116279,
          "velocity": 0.4094488188976378
        },
        {
          "duration": 0.3139534883720927,
          "durationTicks": 27,
          "midi": 83,
          "name": "B5",
          "ticks": 4164,
          "time": 48.41860465116279,
          "velocity": 0.2283464566929134
        },
        {
          "duration": 0.03488372093023884,
          "durationTicks": 3,
          "midi": 89,
          "name": "F6",
          "ticks": 4164,
          "time": 48.41860465116279,
          "velocity": 0.08661417322834646
        },
        {
          "duration": 0.011627906976741542,
          "durationTicks": 1,
          "midi": 47,
          "name": "B2",
          "ticks": 4165,
          "time": 48.43023255813954,
          "velocity": 0.5275590551181102
        },
        {
          "duration": 0.05813953488372192,
          "durationTicks": 5,
          "midi": 82,
          "name": "A#5",
          "ticks": 4165,
          "time": 48.43023255813954,
          "velocity": 0.08661417322834646
        },
        {
          "duration": 0.04651162790698038,
          "durationTicks": 4,
          "midi": 37,
          "name": "C#2",
          "ticks": 4166,
          "time": 48.44186046511628,
          "velocity": 0.4566929133858268
        },
        {
          "duration": 0.03488372093023173,
          "durationTicks": 3,
          "midi": 48,
          "name": "C3",
          "ticks": 4166,
          "time": 48.44186046511628,
          "velocity": 0.5039370078740157
        },
        {
          "duration": 0.08139534883721211,
          "durationTicks": 7,
          "midi": 55,
          "name": "G3",
          "ticks": 4166,
          "time": 48.44186046511628,
          "velocity": 0.3464566929133858
        },
        {
          "duration": 0.08139534883721211,
          "durationTicks": 7,
          "midi": 67,
          "name": "G4",
          "ticks": 4166,
          "time": 48.44186046511628,
          "velocity": 0.3937007874015748
        },
        {
          "duration": 0.08139534883721211,
          "durationTicks": 7,
          "midi": 93,
          "name": "A6",
          "ticks": 4166,
          "time": 48.44186046511628,
          "velocity": 0.07874015748031496
        },
        {
          "duration": 0.09302325581394655,
          "durationTicks": 8,
          "midi": 78,
          "name": "F#5",
          "ticks": 4167,
          "time": 48.45348837209303,
          "velocity": 0.12598425196850394
        },
        {
          "duration": 0.046511627906973274,
          "durationTicks": 4,
          "midi": 89,
          "name": "F6",
          "ticks": 4168,
          "time": 48.46511627906977,
          "velocity": 0.11023622047244094
        },
        {
          "duration": 0.02325581395349019,
          "durationTicks": 2,
          "midi": 47,
          "name": "B2",
          "ticks": 4169,
          "time": 48.47674418604651,
          "velocity": 0.4409448818897638
        },
        {
          "duration": 0.03488372093023173,
          "durationTicks": 3,
          "midi": 69,
          "name": "A4",
          "ticks": 4169,
          "time": 48.47674418604651,
          "velocity": 0.14173228346456693
        },
        {
          "duration": 0.046511627906973274,
          "durationTicks": 4,
          "midi": 36,
          "name": "C2",
          "ticks": 4170,
          "time": 48.48837209302326,
          "velocity": 0.3937007874015748
        },
        {
          "duration": 0.15116279069766847,
          "durationTicks": 13,
          "midi": 60,
          "name": "C4",
          "ticks": 4170,
          "time": 48.48837209302326,
          "velocity": 0.2677165354330709
        },
        {
          "duration": 0.15116279069766847,
          "durationTicks": 13,
          "midi": 64,
          "name": "E4",
          "ticks": 4170,
          "time": 48.48837209302326,
          "velocity": 0.2125984251968504
        },
        {
          "duration": 0.023255813953483084,
          "durationTicks": 2,
          "midi": 68,
          "name": "G#4",
          "ticks": 4173,
          "time": 48.52325581395349,
          "velocity": 0.3464566929133858
        },
        {
          "duration": 0.02325581395349019,
          "durationTicks": 2,
          "midi": 37,
          "name": "C#2",
          "ticks": 4174,
          "time": 48.53488372093023,
          "velocity": 0.3779527559055118
        },
        {
          "duration": 0.02325581395349019,
          "durationTicks": 2,
          "midi": 47,
          "name": "B2",
          "ticks": 4174,
          "time": 48.53488372093023,
          "velocity": 0.3937007874015748
        },
        {
          "duration": 0.02325581395349019,
          "durationTicks": 2,
          "midi": 55,
          "name": "G3",
          "ticks": 4174,
          "time": 48.53488372093023,
          "velocity": 0.3543307086614173
        },
        {
          "duration": 0.13953488372093403,
          "durationTicks": 12,
          "midi": 89,
          "name": "F6",
          "ticks": 4174,
          "time": 48.53488372093023,
          "velocity": 0.14173228346456693
        },
        {
          "duration": 0.13953488372093403,
          "durationTicks": 12,
          "midi": 67,
          "name": "G4",
          "ticks": 4175,
          "time": 48.54651162790697,
          "velocity": 0.4015748031496063
        },
        {
          "duration": 0.02325581395349019,
          "durationTicks": 2,
          "midi": 34,
          "name": "A#1",
          "ticks": 4177,
          "time": 48.56976744186046,
          "velocity": 0.2283464566929134
        },
        {
          "duration": 0.06976744186046346,
          "durationTicks": 6,
          "midi": 55,
          "name": "G3",
          "ticks": 4178,
          "time": 48.58139534883721,
          "velocity": 0.29133858267716534
        },
        {
          "duration": 0.046511627906973274,
          "durationTicks": 4,
          "midi": 36,
          "name": "C2",
          "ticks": 4179,
          "time": 48.593023255813954,
          "velocity": 0.30708661417322836
        },
        {
          "duration": 0.05813953488372192,
          "durationTicks": 5,
          "midi": 48,
          "name": "C3",
          "ticks": 4180,
          "time": 48.604651162790695,
          "velocity": 0.49606299212598426
        },
        {
          "duration": 0.03488372093023173,
          "durationTicks": 3,
          "midi": 70,
          "name": "A#4",
          "ticks": 4181,
          "time": 48.616279069767444,
          "velocity": 0.10236220472440945
        },
        {
          "duration": 0.7209302325581461,
          "durationTicks": 62,
          "midi": 62,
          "name": "D4",
          "ticks": 4183,
          "time": 48.63953488372093,
          "velocity": 0.4566929133858268
        },
        {
          "duration": 0.04651162790698038,
          "durationTicks": 4,
          "midi": 78,
          "name": "F#5",
          "ticks": 4183,
          "time": 48.63953488372093,
          "velocity": 0.07086614173228346
        },
        {
          "duration": 0.09302325581395365,
          "durationTicks": 8,
          "midi": 93,
          "name": "A6",
          "ticks": 4183,
          "time": 48.63953488372093,
          "velocity": 0.18110236220472442
        },
        {
          "duration": 0.23255813953488058,
          "durationTicks": 20,
          "midi": 72,
          "name": "C5",
          "ticks": 4184,
          "time": 48.651162790697676,
          "velocity": 0.1968503937007874
        },
        {
          "duration": 0.023255813953483084,
          "durationTicks": 2,
          "midi": 38,
          "name": "D2",
          "ticks": 4186,
          "time": 48.674418604651166,
          "velocity": 0.4566929133858268
        },
        {
          "duration": 0.4186046511627879,
          "durationTicks": 36,
          "midi": 50,
          "name": "D3",
          "ticks": 4186,
          "time": 48.674418604651166,
          "velocity": 0.49606299212598426
        },
        {
          "duration": 0.04651162790698038,
          "durationTicks": 4,
          "midi": 39,
          "name": "D#2",
          "ticks": 4188,
          "time": 48.69767441860465,
          "velocity": 0.4094488188976378
        },
        {
          "duration": 0.03488372093023173,
          "durationTicks": 3,
          "midi": 67,
          "name": "G4",
          "ticks": 4188,
          "time": 48.69767441860465,
          "velocity": 0.25984251968503935
        },
        {
          "duration": 0.05813953488372192,
          "durationTicks": 5,
          "midi": 76,
          "name": "E5",
          "ticks": 4188,
          "time": 48.69767441860465,
          "velocity": 0.08661417322834646
        },
        {
          "duration": 0.09302325581395365,
          "durationTicks": 8,
          "midi": 57,
          "name": "A3",
          "ticks": 4189,
          "time": 48.7093023255814,
          "velocity": 0.4566929133858268
        },
        {
          "duration": 0.046511627906973274,
          "durationTicks": 4,
          "midi": 38,
          "name": "D2",
          "ticks": 4192,
          "time": 48.74418604651163,
          "velocity": 0.36220472440944884
        },
        {
          "duration": 0.3604651162790731,
          "durationTicks": 31,
          "midi": 66,
          "name": "F#4",
          "ticks": 4193,
          "time": 48.75581395348837,
          "velocity": 0.2677165354330709
        },
        {
          "duration": 0.27906976744186096,
          "durationTicks": 24,
          "midi": 85,
          "name": "C#6",
          "ticks": 4193,
          "time": 48.75581395348837,
          "velocity": 0.2047244094488189
        },
        {
          "duration": 0.27906976744185386,
          "durationTicks": 24,
          "midi": 95,
          "name": "B6",
          "ticks": 4194,
          "time": 48.76744186046512,
          "velocity": 0.14173228346456693
        },
        {
          "duration": 0.02325581395349019,
          "durationTicks": 2,
          "midi": 36,
          "name": "C2",
          "ticks": 4196,
          "time": 48.7906976744186,
          "velocity": 0.25984251968503935
        },
        {
          "duration": 0.27906976744186096,
          "durationTicks": 24,
          "midi": 57,
          "name": "A3",
          "ticks": 4198,
          "time": 48.81395348837209,
          "velocity": 0.41732283464566927
        },
        {
          "duration": 0.02325581395349019,
          "durationTicks": 2,
          "midi": 39,
          "name": "D#2",
          "ticks": 4199,
          "time": 48.825581395348834,
          "velocity": 0.29133858267716534
        },
        {
          "duration": 0.1860465116279073,
          "durationTicks": 16,
          "midi": 80,
          "name": "G#5",
          "ticks": 4203,
          "time": 48.872093023255815,
          "velocity": 0.14960629921259844
        },
        {
          "duration": 0.08139534883721211,
          "durationTicks": 7,
          "midi": 90,
          "name": "F#6",
          "ticks": 4203,
          "time": 48.872093023255815,
          "velocity": 0.11023622047244094
        },
        {
          "duration": 0.2093023255813904,
          "durationTicks": 18,
          "midi": 72,
          "name": "C5",
          "ticks": 4205,
          "time": 48.895348837209305,
          "velocity": 0.11023622047244094
        },
        {
          "duration": 0.03488372093023173,
          "durationTicks": 3,
          "midi": 39,
          "name": "D#2",
          "ticks": 4206,
          "time": 48.906976744186046,
          "velocity": 0.48031496062992124
        },
        {
          "duration": 0.03488372093023173,
          "durationTicks": 3,
          "midi": 91,
          "name": "G6",
          "ticks": 4208,
          "time": 48.93023255813954,
          "velocity": 0.10236220472440945
        },
        {
          "duration": 0.09302325581395365,
          "durationTicks": 8,
          "midi": 38,
          "name": "D2",
          "ticks": 4209,
          "time": 48.94186046511628,
          "velocity": 0.4251968503937008
        },
        {
          "duration": 0.32558139534884134,
          "durationTicks": 28,
          "midi": 76,
          "name": "E5",
          "ticks": 4209,
          "time": 48.94186046511628,
          "velocity": 0.14960629921259844
        },
        {
          "duration": 0.04651162790698038,
          "durationTicks": 4,
          "midi": 38,
          "name": "D2",
          "ticks": 4218,
          "time": 49.04651162790697,
          "velocity": 0.28346456692913385
        },
        {
          "duration": 0.27906976744186096,
          "durationTicks": 24,
          "midi": 85,
          "name": "C#6",
          "ticks": 4222,
          "time": 49.093023255813954,
          "velocity": 0.2440944881889764
        },
        {
          "duration": 0.011627906976748648,
          "durationTicks": 1,
          "midi": 50,
          "name": "D3",
          "ticks": 4223,
          "time": 49.104651162790695,
          "velocity": 0.5433070866141733
        },
        {
          "duration": 0.03488372093023173,
          "durationTicks": 3,
          "midi": 79,
          "name": "G5",
          "ticks": 4223,
          "time": 49.104651162790695,
          "velocity": 0.15748031496062992
        },
        {
          "duration": 0.22093023255813904,
          "durationTicks": 19,
          "midi": 84,
          "name": "C6",
          "ticks": 4223,
          "time": 49.104651162790695,
          "velocity": 0.2125984251968504
        },
        {
          "duration": 0.011627906976741542,
          "durationTicks": 1,
          "midi": 48,
          "name": "C3",
          "ticks": 4224,
          "time": 49.116279069767444,
          "velocity": 0.5590551181102362
        },
        {
          "duration": 0.046511627906973274,
          "durationTicks": 4,
          "midi": 78,
          "name": "F#5",
          "ticks": 4224,
          "time": 49.116279069767444,
          "velocity": 0.18110236220472442
        },
        {
          "duration": 0.15116279069767558,
          "durationTicks": 13,
          "midi": 88,
          "name": "E6",
          "ticks": 4224,
          "time": 49.116279069767444,
          "velocity": 0.15748031496062992
        },
        {
          "duration": 0.1046511627906952,
          "durationTicks": 9,
          "midi": 50,
          "name": "D3",
          "ticks": 4225,
          "time": 49.127906976744185,
          "velocity": 0.5354330708661418
        },
        {
          "duration": 0.03488372093023173,
          "durationTicks": 3,
          "midi": 92,
          "name": "G#6",
          "ticks": 4225,
          "time": 49.127906976744185,
          "velocity": 0.10236220472440945
        },
        {
          "duration": 0.17441860465116577,
          "durationTicks": 15,
          "midi": 57,
          "name": "A3",
          "ticks": 4226,
          "time": 49.13953488372093,
          "velocity": 0.15748031496062992
        },
        {
          "duration": 0.09302325581395365,
          "durationTicks": 8,
          "midi": 79,
          "name": "G5",
          "ticks": 4227,
          "time": 49.151162790697676,
          "velocity": 0.13385826771653545
        },
        {
          "duration": 0.12790697674418539,
          "durationTicks": 11,
          "midi": 78,
          "name": "F#5",
          "ticks": 4229,
          "time": 49.174418604651166,
          "velocity": 0.12598425196850394
        },
        {
          "duration": 0.04651162790698038,
          "durationTicks": 4,
          "midi": 67,
          "name": "G4",
          "ticks": 4234,
          "time": 49.23255813953488,
          "velocity": 0.11023622047244094
        },
        {
          "duration": 0.03488372093023173,
          "durationTicks": 3,
          "midi": 50,
          "name": "D3",
          "ticks": 4235,
          "time": 49.24418604651163,
          "velocity": 0.4409448818897638
        },
        {
          "duration": 0.02325581395349019,
          "durationTicks": 2,
          "midi": 45,
          "name": "A2",
          "ticks": 4236,
          "time": 49.25581395348837,
          "velocity": 0.3700787401574803
        },
        {
          "duration": 0.03488372093023884,
          "durationTicks": 3,
          "midi": 76,
          "name": "E5",
          "ticks": 4242,
          "time": 49.325581395348834,
          "velocity": 0.10236220472440945
        },
        {
          "duration": 0.38372093023256326,
          "durationTicks": 33,
          "midi": 79,
          "name": "G5",
          "ticks": 4242,
          "time": 49.325581395348834,
          "velocity": 0.25196850393700787
        },
        {
          "duration": 0.02325581395349019,
          "durationTicks": 2,
          "midi": 60,
          "name": "C4",
          "ticks": 4243,
          "time": 49.33720930232558,
          "velocity": 0.28346456692913385
        },
        {
          "duration": 0.02325581395349019,
          "durationTicks": 2,
          "midi": 68,
          "name": "G#4",
          "ticks": 4243,
          "time": 49.33720930232558,
          "velocity": 0.4094488188976378
        },
        {
          "duration": 0.3139534883720927,
          "durationTicks": 27,
          "midi": 83,
          "name": "B5",
          "ticks": 4243,
          "time": 49.33720930232558,
          "velocity": 0.2283464566929134
        },
        {
          "duration": 0.09302325581395365,
          "durationTicks": 8,
          "midi": 88,
          "name": "E6",
          "ticks": 4243,
          "time": 49.33720930232558,
          "velocity": 0.10236220472440945
        },
        {
          "duration": 0.03488372093023173,
          "durationTicks": 3,
          "midi": 89,
          "name": "F6",
          "ticks": 4243,
          "time": 49.33720930232558,
          "velocity": 0.08661417322834646
        },
        {
          "duration": 0.011627906976748648,
          "durationTicks": 1,
          "midi": 47,
          "name": "B2",
          "ticks": 4244,
          "time": 49.348837209302324,
          "velocity": 0.5275590551181102
        },
        {
          "duration": 0.046511627906973274,
          "durationTicks": 4,
          "midi": 37,
          "name": "C#2",
          "ticks": 4245,
          "time": 49.36046511627907,
          "velocity": 0.4566929133858268
        },
        {
          "duration": 0.081395348837205,
          "durationTicks": 7,
          "midi": 55,
          "name": "G3",
          "ticks": 4245,
          "time": 49.36046511627907,
          "velocity": 0.3464566929133858
        },
        {
          "duration": 0.081395348837205,
          "durationTicks": 7,
          "midi": 67,
          "name": "G4",
          "ticks": 4245,
          "time": 49.36046511627907,
          "velocity": 0.3937007874015748
        },
        {
          "duration": 0.046511627906973274,
          "durationTicks": 4,
          "midi": 82,
          "name": "A#5",
          "ticks": 4245,
          "time": 49.36046511627907,
          "velocity": 0.08661417322834646
        },
        {
          "duration": 0.081395348837205,
          "durationTicks": 7,
          "midi": 93,
          "name": "A6",
          "ticks": 4245,
          "time": 49.36046511627907,
          "velocity": 0.07874015748031496
        },
        {
          "duration": 0.02325581395349019,
          "durationTicks": 2,
          "midi": 60,
          "name": "C4",
          "ticks": 4246,
          "time": 49.372093023255815,
          "velocity": 0.2283464566929134
        },
        {
          "duration": 0.09302325581395365,
          "durationTicks": 8,
          "midi": 78,
          "name": "F#5",
          "ticks": 4246,
          "time": 49.372093023255815,
          "velocity": 0.13385826771653545
        },
        {
          "duration": 0.04651162790698038,
          "durationTicks": 4,
          "midi": 89,
          "name": "F6",
          "ticks": 4247,
          "time": 49.383720930232556,
          "velocity": 0.11023622047244094
        },
        {
          "duration": 0.023255813953483084,
          "durationTicks": 2,
          "midi": 47,
          "name": "B2",
          "ticks": 4248,
          "time": 49.395348837209305,
          "velocity": 0.4330708661417323
        },
        {
          "duration": 0.03488372093023173,
          "durationTicks": 3,
          "midi": 69,
          "name": "A4",
          "ticks": 4248,
          "time": 49.395348837209305,
          "velocity": 0.14173228346456693
        },
        {
          "duration": 0.04651162790698038,
          "durationTicks": 4,
          "midi": 36,
          "name": "C2",
          "ticks": 4249,
          "time": 49.406976744186046,
          "velocity": 0.3937007874015748
        },
        {
          "duration": 0.13953488372092693,
          "durationTicks": 12,
          "midi": 60,
          "name": "C4",
          "ticks": 4249,
          "time": 49.406976744186046,
          "velocity": 0.25984251968503935
        },
        {
          "duration": 0.15116279069767558,
          "durationTicks": 13,
          "midi": 64,
          "name": "E4",
          "ticks": 4249,
          "time": 49.406976744186046,
          "velocity": 0.2125984251968504
        },
        {
          "duration": 0.02325581395349019,
          "durationTicks": 2,
          "midi": 68,
          "name": "G#4",
          "ticks": 4252,
          "time": 49.44186046511628,
          "velocity": 0.3464566929133858
        },
        {
          "duration": 0.023255813953483084,
          "durationTicks": 2,
          "midi": 37,
          "name": "C#2",
          "ticks": 4253,
          "time": 49.45348837209303,
          "velocity": 0.3700787401574803
        },
        {
          "duration": 0.023255813953483084,
          "durationTicks": 2,
          "midi": 47,
          "name": "B2",
          "ticks": 4253,
          "time": 49.45348837209303,
          "velocity": 0.3937007874015748
        },
        {
          "duration": 0.023255813953483084,
          "durationTicks": 2,
          "midi": 55,
          "name": "G3",
          "ticks": 4253,
          "time": 49.45348837209303,
          "velocity": 0.36220472440944884
        },
        {
          "duration": 0.15116279069766847,
          "durationTicks": 13,
          "midi": 89,
          "name": "F6",
          "ticks": 4253,
          "time": 49.45348837209303,
          "velocity": 0.14173228346456693
        },
        {
          "duration": 0.19767441860464885,
          "durationTicks": 17,
          "midi": 67,
          "name": "G4",
          "ticks": 4254,
          "time": 49.46511627906977,
          "velocity": 0.4015748031496063
        },
        {
          "duration": 0.023255813953483084,
          "durationTicks": 2,
          "midi": 34,
          "name": "A#1",
          "ticks": 4256,
          "time": 49.48837209302326,
          "velocity": 0.2283464566929134
        },
        {
          "duration": 0.046511627906973274,
          "durationTicks": 4,
          "midi": 55,
          "name": "G3",
          "ticks": 4257,
          "time": 49.5,
          "velocity": 0.1889763779527559
        },
        {
          "duration": 0.02325581395349019,
          "durationTicks": 2,
          "midi": 36,
          "name": "C2",
          "ticks": 4258,
          "time": 49.51162790697674,
          "velocity": 0.29133858267716534
        },
        {
          "duration": 0.023255813953483084,
          "durationTicks": 2,
          "midi": 48,
          "name": "C3",
          "ticks": 4259,
          "time": 49.52325581395349,
          "velocity": 0.3228346456692913
        },
        {
          "duration": 0.03488372093023173,
          "durationTicks": 3,
          "midi": 70,
          "name": "A#4",
          "ticks": 4259,
          "time": 49.52325581395349,
          "velocity": 0.16535433070866143
        },
        {
          "duration": 0.06976744186047057,
          "durationTicks": 6,
          "midi": 93,
          "name": "A6",
          "ticks": 4261,
          "time": 49.54651162790697,
          "velocity": 0.15748031496062992
        },
        {
          "duration": 0.09302325581395365,
          "durationTicks": 8,
          "midi": 57,
          "name": "A3",
          "ticks": 4262,
          "time": 49.55813953488372,
          "velocity": 0.33858267716535434
        },
        {
          "duration": 0.24418604651162923,
          "durationTicks": 21,
          "midi": 72,
          "name": "C5",
          "ticks": 4262,
          "time": 49.55813953488372,
          "velocity": 0.1968503937007874
        },
        {
          "duration": 0.22093023255813904,
          "durationTicks": 19,
          "midi": 50,
          "name": "D3",
          "ticks": 4263,
          "time": 49.56976744186046,
          "velocity": 0.44881889763779526
        },
        {
          "duration": 0.046511627906973274,
          "durationTicks": 4,
          "midi": 38,
          "name": "D2",
          "ticks": 4265,
          "time": 49.593023255813954,
          "velocity": 0.44881889763779526
        },
        {
          "duration": 0.02325581395349019,
          "durationTicks": 2,
          "midi": 38,
          "name": "D2",
          "ticks": 4270,
          "time": 49.651162790697676,
          "velocity": 0.2992125984251969
        },
        {
          "duration": 0.06976744186046346,
          "durationTicks": 6,
          "midi": 93,
          "name": "A6",
          "ticks": 4270,
          "time": 49.651162790697676,
          "velocity": 0.14173228346456693
        },
        {
          "duration": 0.3604651162790731,
          "durationTicks": 31,
          "midi": 69,
          "name": "A4",
          "ticks": 4271,
          "time": 49.66279069767442,
          "velocity": 0.44881889763779526
        },
        {
          "duration": 0.023255813953483084,
          "durationTicks": 2,
          "midi": 58,
          "name": "A#3",
          "ticks": 4272,
          "time": 49.674418604651166,
          "velocity": 0.4015748031496063
        },
        {
          "duration": 0.03488372093023173,
          "durationTicks": 3,
          "midi": 66,
          "name": "F#4",
          "ticks": 4272,
          "time": 49.674418604651166,
          "velocity": 0.25196850393700787
        },
        {
          "duration": 0.36046511627906597,
          "durationTicks": 31,
          "midi": 76,
          "name": "E5",
          "ticks": 4272,
          "time": 49.674418604651166,
          "velocity": 0.1968503937007874
        },
        {
          "duration": 0.2906976744186025,
          "durationTicks": 25,
          "midi": 85,
          "name": "C#6",
          "ticks": 4272,
          "time": 49.674418604651166,
          "velocity": 0.23622047244094488
        },
        {
          "duration": 0.3488372093023244,
          "durationTicks": 30,
          "midi": 95,
          "name": "B6",
          "ticks": 4273,
          "time": 49.68604651162791,
          "velocity": 0.1732283464566929
        },
        {
          "duration": 0.09302325581395365,
          "durationTicks": 8,
          "midi": 57,
          "name": "A3",
          "ticks": 4274,
          "time": 49.69767441860465,
          "velocity": 0.41732283464566927
        },
        {
          "duration": 0.08139534883721211,
          "durationTicks": 7,
          "midi": 66,
          "name": "F#4",
          "ticks": 4276,
          "time": 49.72093023255814,
          "velocity": 0.1732283464566929
        },
        {
          "duration": 0.05813953488372192,
          "durationTicks": 5,
          "midi": 38,
          "name": "D2",
          "ticks": 4277,
          "time": 49.73255813953488,
          "velocity": 0.3228346456692913
        },
        {
          "duration": 0.03488372093023173,
          "durationTicks": 3,
          "midi": 56,
          "name": "G#3",
          "ticks": 4282,
          "time": 49.7906976744186,
          "velocity": 0.3779527559055118
        },
        {
          "duration": 0.023255813953483084,
          "durationTicks": 2,
          "midi": 40,
          "name": "E2",
          "ticks": 4283,
          "time": 49.80232558139535,
          "velocity": 0.4881889763779528
        },
        {
          "duration": 0.05813953488372192,
          "durationTicks": 5,
          "midi": 90,
          "name": "F#6",
          "ticks": 4283,
          "time": 49.80232558139535,
          "velocity": 0.08661417322834646
        },
        {
          "duration": 0.2093023255813975,
          "durationTicks": 18,
          "midi": 50,
          "name": "D3",
          "ticks": 4284,
          "time": 49.81395348837209,
          "velocity": 0.44881889763779526
        },
        {
          "duration": 0.2093023255813975,
          "durationTicks": 18,
          "midi": 66,
          "name": "F#4",
          "ticks": 4284,
          "time": 49.81395348837209,
          "velocity": 0.18110236220472442
        },
        {
          "duration": 0.32558139534883423,
          "durationTicks": 28,
          "midi": 72,
          "name": "C5",
          "ticks": 4284,
          "time": 49.81395348837209,
          "velocity": 0.5118110236220472
        },
        {
          "duration": 0.03488372093023173,
          "durationTicks": 3,
          "midi": 82,
          "name": "A#5",
          "ticks": 4284,
          "time": 49.81395348837209,
          "velocity": 0.09448818897637795
        },
        {
          "duration": 0.02325581395349019,
          "durationTicks": 2,
          "midi": 39,
          "name": "D#2",
          "ticks": 4285,
          "time": 49.825581395348834,
          "velocity": 0.4881889763779528
        },
        {
          "duration": 0.1860465116279073,
          "durationTicks": 16,
          "midi": 57,
          "name": "A3",
          "ticks": 4285,
          "time": 49.825581395348834,
          "velocity": 0.2677165354330709
        },
        {
          "duration": 0.1046511627907023,
          "durationTicks": 9,
          "midi": 38,
          "name": "D2",
          "ticks": 4287,
          "time": 49.848837209302324,
          "velocity": 0.4251968503937008
        },
        {
          "duration": 0.03488372093023173,
          "durationTicks": 3,
          "midi": 91,
          "name": "G6",
          "ticks": 4287,
          "time": 49.848837209302324,
          "velocity": 0.11811023622047244
        },
        {
          "duration": 0.023255813953483084,
          "durationTicks": 2,
          "midi": 37,
          "name": "C#2",
          "ticks": 4296,
          "time": 49.95348837209303,
          "velocity": 0.25984251968503935
        },
        {
          "duration": 0.03488372093023173,
          "durationTicks": 3,
          "midi": 38,
          "name": "D2",
          "ticks": 4298,
          "time": 49.97674418604651,
          "velocity": 0.28346456692913385
        },
        {
          "duration": 0.11627906976744384,
          "durationTicks": 10,
          "midi": 74,
          "name": "D5",
          "ticks": 4301,
          "time": 50.01162790697674,
          "velocity": 0.3464566929133858
        },
        {
          "duration": 0.1860465116279073,
          "durationTicks": 16,
          "midi": 79,
          "name": "G5",
          "ticks": 4301,
          "time": 50.01162790697674,
          "velocity": 0.2283464566929134
        },
        {
          "duration": 0.24418604651162923,
          "durationTicks": 21,
          "midi": 88,
          "name": "E6",
          "ticks": 4301,
          "time": 50.01162790697674,
          "velocity": 0.2125984251968504
        },
        {
          "duration": 0.023255813953483084,
          "durationTicks": 2,
          "midi": 44,
          "name": "G#2",
          "ticks": 4302,
          "time": 50.02325581395349,
          "velocity": 0.48031496062992124
        },
        {
          "duration": 0.1046511627906952,
          "durationTicks": 9,
          "midi": 60,
          "name": "C4",
          "ticks": 4302,
          "time": 50.02325581395349,
          "velocity": 0.5275590551181102
        },
        {
          "duration": 0.2906976744186025,
          "durationTicks": 25,
          "midi": 83,
          "name": "B5",
          "ticks": 4302,
          "time": 50.02325581395349,
          "velocity": 0.29133858267716534
        },
        {
          "duration": 0.16279069767441712,
          "durationTicks": 14,
          "midi": 89,
          "name": "F6",
          "ticks": 4302,
          "time": 50.02325581395349,
          "velocity": 0.18110236220472442
        },
        {
          "duration": 0.05813953488372192,
          "durationTicks": 5,
          "midi": 90,
          "name": "F#6",
          "ticks": 4302,
          "time": 50.02325581395349,
          "velocity": 0.13385826771653545
        },
        {
          "duration": 0.081395348837205,
          "durationTicks": 7,
          "midi": 94,
          "name": "A#6",
          "ticks": 4302,
          "time": 50.02325581395349,
          "velocity": 0.08661417322834646
        },
        {
          "duration": 0.02325581395349019,
          "durationTicks": 2,
          "midi": 54,
          "name": "F#3",
          "ticks": 4303,
          "time": 50.03488372093023,
          "velocity": 0.4409448818897638
        },
        {
          "duration": 0.1046511627906952,
          "durationTicks": 9,
          "midi": 77,
          "name": "F5",
          "ticks": 4303,
          "time": 50.03488372093023,
          "velocity": 0.2283464566929134
        },
        {
          "duration": 0.04651162790698038,
          "durationTicks": 4,
          "midi": 43,
          "name": "G2",
          "ticks": 4304,
          "time": 50.04651162790697,
          "velocity": 0.4330708661417323
        },
        {
          "duration": 0.1046511627907023,
          "durationTicks": 9,
          "midi": 67,
          "name": "G4",
          "ticks": 4304,
          "time": 50.04651162790697,
          "velocity": 0.2283464566929134
        },
        {
          "duration": 0.09302325581395365,
          "durationTicks": 8,
          "midi": 85,
          "name": "C#6",
          "ticks": 4304,
          "time": 50.04651162790697,
          "velocity": 0.2047244094488189
        },
        {
          "duration": 0.04651162790698038,
          "durationTicks": 4,
          "midi": 98,
          "name": "D7",
          "ticks": 4304,
          "time": 50.04651162790697,
          "velocity": 0.10236220472440945
        },
        {
          "duration": 0.02325581395349019,
          "durationTicks": 2,
          "midi": 43,
          "name": "G2",
          "ticks": 4309,
          "time": 50.104651162790695,
          "velocity": 0.3779527559055118
        },
        {
          "duration": 0.03488372093023173,
          "durationTicks": 3,
          "midi": 71,
          "name": "B4",
          "ticks": 4311,
          "time": 50.127906976744185,
          "velocity": 0.4566929133858268
        },
        {
          "duration": 0.02325581395349019,
          "durationTicks": 2,
          "midi": 39,
          "name": "D#2",
          "ticks": 4312,
          "time": 50.13953488372093,
          "velocity": 0.3937007874015748
        },
        {
          "duration": 0.02325581395349019,
          "durationTicks": 2,
          "midi": 73,
          "name": "C#5",
          "ticks": 4312,
          "time": 50.13953488372093,
          "velocity": 0.33070866141732286
        },
        {
          "duration": 0.1279069767441925,
          "durationTicks": 11,
          "midi": 82,
          "name": "A#5",
          "ticks": 4312,
          "time": 50.13953488372093,
          "velocity": 0.2204724409448819
        },
        {
          "duration": 0.13953488372093403,
          "durationTicks": 12,
          "midi": 87,
          "name": "D#6",
          "ticks": 4312,
          "time": 50.13953488372093,
          "velocity": 0.15748031496062992
        },
        {
          "duration": 0.05813953488372192,
          "durationTicks": 5,
          "midi": 90,
          "name": "F#6",
          "ticks": 4312,
          "time": 50.13953488372093,
          "velocity": 0.09448818897637795
        },
        {
          "duration": 0.16279069767442422,
          "durationTicks": 14,
          "midi": 97,
          "name": "C#7",
          "ticks": 4312,
          "time": 50.13953488372093,
          "velocity": 0.14173228346456693
        },
        {
          "duration": 0.02325581395349019,
          "durationTicks": 2,
          "midi": 59,
          "name": "B3",
          "ticks": 4313,
          "time": 50.151162790697676,
          "velocity": 0.44881889763779526
        },
        {
          "duration": 0.11627906976744384,
          "durationTicks": 10,
          "midi": 66,
          "name": "F#4",
          "ticks": 4313,
          "time": 50.151162790697676,
          "velocity": 0.25984251968503935
        },
        {
          "duration": 0.1046511627906952,
          "durationTicks": 9,
          "midi": 80,
          "name": "G#5",
          "ticks": 4313,
          "time": 50.151162790697676,
          "velocity": 0.11023622047244094
        },
        {
          "duration": 0.1046511627906952,
          "durationTicks": 9,
          "midi": 92,
          "name": "G#6",
          "ticks": 4313,
          "time": 50.151162790697676,
          "velocity": 0.12598425196850394
        },
        {
          "duration": 0.09302325581395365,
          "durationTicks": 8,
          "midi": 54,
          "name": "F#3",
          "ticks": 4314,
          "time": 50.16279069767442,
          "velocity": 0.4409448818897638
        },
        {
          "duration": 0.1046511627907023,
          "durationTicks": 9,
          "midi": 76,
          "name": "E5",
          "ticks": 4314,
          "time": 50.16279069767442,
          "velocity": 0.1889763779527559
        },
        {
          "duration": 0.081395348837205,
          "durationTicks": 7,
          "midi": 71,
          "name": "B4",
          "ticks": 4315,
          "time": 50.174418604651166,
          "velocity": 0.3228346456692913
        },
        {
          "duration": 0.03488372093023173,
          "durationTicks": 3,
          "midi": 42,
          "name": "F#2",
          "ticks": 4317,
          "time": 50.19767441860465,
          "velocity": 0.4251968503937008
        },
        {
          "duration": 0.02325581395349019,
          "durationTicks": 2,
          "midi": 60,
          "name": "C4",
          "ticks": 4317,
          "time": 50.19767441860465,
          "velocity": 0.3543307086614173
        },
        {
          "duration": 0.09302325581395365,
          "durationTicks": 8,
          "midi": 73,
          "name": "C#5",
          "ticks": 4318,
          "time": 50.2093023255814,
          "velocity": 0.2755905511811024
        },
        {
          "duration": 0.03488372093023173,
          "durationTicks": 3,
          "midi": 89,
          "name": "F6",
          "ticks": 4318,
          "time": 50.2093023255814,
          "velocity": 0.08661417322834646
        },
        {
          "duration": 0.11627906976744384,
          "durationTicks": 10,
          "midi": 69,
          "name": "A4",
          "ticks": 4322,
          "time": 50.25581395348837,
          "velocity": 0.4330708661417323
        },
        {
          "duration": 0.023255813953483084,
          "durationTicks": 2,
          "midi": 41,
          "name": "F2",
          "ticks": 4323,
          "time": 50.26744186046512,
          "velocity": 0.4251968503937008
        },
        {
          "duration": 0.08139534883721211,
          "durationTicks": 7,
          "midi": 52,
          "name": "E3",
          "ticks": 4324,
          "time": 50.27906976744186,
          "velocity": 0.4330708661417323
        },
        {
          "duration": 0.05813953488372192,
          "durationTicks": 5,
          "midi": 86,
          "name": "D6",
          "ticks": 4324,
          "time": 50.27906976744186,
          "velocity": 0.07874015748031496
        },
        {
          "duration": 0.15116279069767558,
          "durationTicks": 13,
          "midi": 91,
          "name": "G6",
          "ticks": 4324,
          "time": 50.27906976744186,
          "velocity": 0.13385826771653545
        },
        {
          "duration": 0.08139534883721211,
          "durationTicks": 7,
          "midi": 40,
          "name": "E2",
          "ticks": 4325,
          "time": 50.2906976744186,
          "velocity": 0.48031496062992124
        },
        {
          "duration": 0.02325581395349019,
          "durationTicks": 2,
          "midi": 59,
          "name": "B3",
          "ticks": 4325,
          "time": 50.2906976744186,
          "velocity": 0.4015748031496063
        },
        {
          "duration": 0.03488372093023173,
          "durationTicks": 3,
          "midi": 92,
          "name": "G#6",
          "ticks": 4325,
          "time": 50.2906976744186,
          "velocity": 0.09448818897637795
        },
        {
          "duration": 0.06976744186046346,
          "durationTicks": 6,
          "midi": 88,
          "name": "E6",
          "ticks": 4327,
          "time": 50.31395348837209,
          "velocity": 0.13385826771653545
        },
        {
          "duration": 0.02325581395349019,
          "durationTicks": 2,
          "midi": 59,
          "name": "B3",
          "ticks": 4328,
          "time": 50.325581395348834,
          "velocity": 0.3779527559055118
        },
        {
          "duration": 0.36046511627906597,
          "durationTicks": 31,
          "midi": 67,
          "name": "G4",
          "ticks": 4331,
          "time": 50.36046511627907,
          "velocity": 0.47244094488188976
        },
        {
          "duration": 0.011627906976741542,
          "durationTicks": 1,
          "midi": 41,
          "name": "F2",
          "ticks": 4332,
          "time": 50.372093023255815,
          "velocity": 0.5196850393700787
        },
        {
          "duration": 0.02325581395349019,
          "durationTicks": 2,
          "midi": 55,
          "name": "G3",
          "ticks": 4332,
          "time": 50.372093023255815,
          "velocity": 0.4566929133858268
        },
        {
          "duration": 0.03488372093023173,
          "durationTicks": 3,
          "midi": 84,
          "name": "C6",
          "ticks": 4332,
          "time": 50.372093023255815,
          "velocity": 0.07874015748031496
        },
        {
          "duration": 0.04651162790698038,
          "durationTicks": 4,
          "midi": 74,
          "name": "D5",
          "ticks": 4333,
          "time": 50.383720930232556,
          "velocity": 0.16535433070866143
        },
        {
          "duration": 0.1046511627907023,
          "durationTicks": 9,
          "midi": 83,
          "name": "B5",
          "ticks": 4333,
          "time": 50.383720930232556,
          "velocity": 0.2125984251968504
        },
        {
          "duration": 0.05813953488372192,
          "durationTicks": 5,
          "midi": 39,
          "name": "D#2",
          "ticks": 4334,
          "time": 50.395348837209305,
          "velocity": 0.4645669291338583
        },
        {
          "duration": 0.046511627906973274,
          "durationTicks": 4,
          "midi": 50,
          "name": "D3",
          "ticks": 4334,
          "time": 50.395348837209305,
          "velocity": 0.4645669291338583
        },
        {
          "duration": 0.22093023255813904,
          "durationTicks": 19,
          "midi": 89,
          "name": "F6",
          "ticks": 4334,
          "time": 50.395348837209305,
          "velocity": 0.14960629921259844
        },
        {
          "duration": 0.30232558139535115,
          "durationTicks": 26,
          "midi": 72,
          "name": "C5",
          "ticks": 4335,
          "time": 50.406976744186046,
          "velocity": 0.14960629921259844
        },
        {
          "duration": 0.2674418604651194,
          "durationTicks": 23,
          "midi": 76,
          "name": "E5",
          "ticks": 4336,
          "time": 50.41860465116279,
          "velocity": 0.14173228346456693
        },
        {
          "duration": 0.023255813953483084,
          "durationTicks": 2,
          "midi": 38,
          "name": "D2",
          "ticks": 4339,
          "time": 50.45348837209303,
          "velocity": 0.4094488188976378
        },
        {
          "duration": 0.023255813953483084,
          "durationTicks": 2,
          "midi": 50,
          "name": "D3",
          "ticks": 4339,
          "time": 50.45348837209303,
          "velocity": 0.4566929133858268
        },
        {
          "duration": 0.13953488372092693,
          "durationTicks": 12,
          "midi": 57,
          "name": "A3",
          "ticks": 4339,
          "time": 50.45348837209303,
          "velocity": 0.4566929133858268
        },
        {
          "duration": 0.1046511627906952,
          "durationTicks": 9,
          "midi": 85,
          "name": "C#6",
          "ticks": 4340,
          "time": 50.46511627906977,
          "velocity": 0.14960629921259844
        },
        {
          "duration": 0.046511627906973274,
          "durationTicks": 4,
          "midi": 39,
          "name": "D#2",
          "ticks": 4342,
          "time": 50.48837209302326,
          "velocity": 0.4645669291338583
        },
        {
          "duration": 0.22093023255813904,
          "durationTicks": 19,
          "midi": 50,
          "name": "D3",
          "ticks": 4342,
          "time": 50.48837209302326,
          "velocity": 0.4645669291338583
        },
        {
          "duration": 0.09302325581395365,
          "durationTicks": 8,
          "midi": 95,
          "name": "B6",
          "ticks": 4342,
          "time": 50.48837209302326,
          "velocity": 0.08661417322834646
        },
        {
          "duration": 0.06976744186046346,
          "durationTicks": 6,
          "midi": 83,
          "name": "B5",
          "ticks": 4343,
          "time": 50.5,
          "velocity": 0.2283464566929134
        },
        {
          "duration": 0.02325581395349019,
          "durationTicks": 2,
          "midi": 38,
          "name": "D2",
          "ticks": 4346,
          "time": 50.53488372093023,
          "velocity": 0.3937007874015748
        },
        {
          "duration": 0.02325581395349019,
          "durationTicks": 2,
          "midi": 39,
          "name": "D#2",
          "ticks": 4348,
          "time": 50.55813953488372,
          "velocity": 0.3464566929133858
        },
        {
          "duration": 0.03488372093023173,
          "durationTicks": 3,
          "midi": 38,
          "name": "D2",
          "ticks": 4350,
          "time": 50.58139534883721,
          "velocity": 0.2755905511811024
        },
        {
          "duration": 0.1046511627906952,
          "durationTicks": 9,
          "midi": 83,
          "name": "B5",
          "ticks": 4350,
          "time": 50.58139534883721,
          "velocity": 0.14960629921259844
        },
        {
          "duration": 0.04651162790698038,
          "durationTicks": 4,
          "midi": 57,
          "name": "A3",
          "ticks": 4352,
          "time": 50.604651162790695,
          "velocity": 0.33070866141732286
        },
        {
          "duration": 0.06976744186047057,
          "durationTicks": 6,
          "midi": 38,
          "name": "D2",
          "ticks": 4355,
          "time": 50.63953488372093,
          "velocity": 0.2992125984251969
        },
        {
          "duration": 0.02325581395349019,
          "durationTicks": 2,
          "midi": 56,
          "name": "G#3",
          "ticks": 4360,
          "time": 50.69767441860465,
          "velocity": 0.3228346456692913
        },
        {
          "duration": 0.46511627906976827,
          "durationTicks": 40,
          "midi": 69,
          "name": "A4",
          "ticks": 4361,
          "time": 50.7093023255814,
          "velocity": 0.44881889763779526
        },
        {
          "duration": 0.03488372093023173,
          "durationTicks": 3,
          "midi": 74,
          "name": "D5",
          "ticks": 4361,
          "time": 50.7093023255814,
          "velocity": 0.13385826771653545
        },
        {
          "duration": 0.3720930232558146,
          "durationTicks": 32,
          "midi": 76,
          "name": "E5",
          "ticks": 4361,
          "time": 50.7093023255814,
          "velocity": 0.15748031496062992
        },
        {
          "duration": 0.02325581395349019,
          "durationTicks": 2,
          "midi": 40,
          "name": "E2",
          "ticks": 4362,
          "time": 50.72093023255814,
          "velocity": 0.4881889763779528
        },
        {
          "duration": 0.09302325581395365,
          "durationTicks": 8,
          "midi": 57,
          "name": "A3",
          "ticks": 4362,
          "time": 50.72093023255814,
          "velocity": 0.3858267716535433
        },
        {
          "duration": 0.5116279069767415,
          "durationTicks": 44,
          "midi": 85,
          "name": "C#6",
          "ticks": 4362,
          "time": 50.72093023255814,
          "velocity": 0.23622047244094488
        },
        {
          "duration": 0.04651162790698038,
          "durationTicks": 4,
          "midi": 90,
          "name": "F#6",
          "ticks": 4362,
          "time": 50.72093023255814,
          "velocity": 0.08661417322834646
        },
        {
          "duration": 0.22093023255813904,
          "durationTicks": 19,
          "midi": 95,
          "name": "B6",
          "ticks": 4362,
          "time": 50.72093023255814,
          "velocity": 0.14173228346456693
        },
        {
          "duration": 0.09302325581395365,
          "durationTicks": 8,
          "midi": 50,
          "name": "D3",
          "ticks": 4363,
          "time": 50.73255813953488,
          "velocity": 0.4645669291338583
        },
        {
          "duration": 0.08139534883721211,
          "durationTicks": 7,
          "midi": 72,
          "name": "C5",
          "ticks": 4363,
          "time": 50.73255813953488,
          "velocity": 0.11811023622047244
        },
        {
          "duration": 0.02325581395349019,
          "durationTicks": 2,
          "midi": 39,
          "name": "D#2",
          "ticks": 4364,
          "time": 50.74418604651163,
          "velocity": 0.48031496062992124
        },
        {
          "duration": 0.081395348837205,
          "durationTicks": 7,
          "midi": 66,
          "name": "F#4",
          "ticks": 4364,
          "time": 50.74418604651163,
          "velocity": 0.1889763779527559
        },
        {
          "duration": 0.046511627906973274,
          "durationTicks": 4,
          "midi": 38,
          "name": "D2",
          "ticks": 4366,
          "time": 50.76744186046512,
          "velocity": 0.41732283464566927
        },
        {
          "duration": 0.02325581395349019,
          "durationTicks": 2,
          "midi": 40,
          "name": "E2",
          "ticks": 4371,
          "time": 50.825581395348834,
          "velocity": 0.5039370078740157
        },
        {
          "duration": 0.011627906976748648,
          "durationTicks": 1,
          "midi": 48,
          "name": "C3",
          "ticks": 4371,
          "time": 50.825581395348834,
          "velocity": 0.5118110236220472
        },
        {
          "duration": 0.1046511627907023,
          "durationTicks": 9,
          "midi": 57,
          "name": "A3",
          "ticks": 4371,
          "time": 50.825581395348834,
          "velocity": 0.44881889763779526
        },
        {
          "duration": 0.1046511627907023,
          "durationTicks": 9,
          "midi": 72,
          "name": "C5",
          "ticks": 4371,
          "time": 50.825581395348834,
          "velocity": 0.1732283464566929
        },
        {
          "duration": 0.09302325581395365,
          "durationTicks": 8,
          "midi": 50,
          "name": "D3",
          "ticks": 4372,
          "time": 50.83720930232558,
          "velocity": 0.48031496062992124
        },
        {
          "duration": 0.09302325581395365,
          "durationTicks": 8,
          "midi": 66,
          "name": "F#4",
          "ticks": 4372,
          "time": 50.83720930232558,
          "velocity": 0.1889763779527559
        },
        {
          "duration": 0.03488372093023173,
          "durationTicks": 3,
          "midi": 82,
          "name": "A#5",
          "ticks": 4372,
          "time": 50.83720930232558,
          "velocity": 0.13385826771653545
        },
        {
          "duration": 0.06976744186046346,
          "durationTicks": 6,
          "midi": 91,
          "name": "G6",
          "ticks": 4372,
          "time": 50.83720930232558,
          "velocity": 0.11023622047244094
        },
        {
          "duration": 0.03488372093023173,
          "durationTicks": 3,
          "midi": 39,
          "name": "D#2",
          "ticks": 4373,
          "time": 50.848837209302324,
          "velocity": 0.4566929133858268
        },
        {
          "duration": 0.04651162790698038,
          "durationTicks": 4,
          "midi": 38,
          "name": "D2",
          "ticks": 4376,
          "time": 50.883720930232556,
          "velocity": 0.3543307086614173
        },
        {
          "duration": 0.03488372093023173,
          "durationTicks": 3,
          "midi": 48,
          "name": "C3",
          "ticks": 4380,
          "time": 50.93023255813954,
          "velocity": 0.5275590551181102
        },
        {
          "duration": 0.1860465116279002,
          "durationTicks": 16,
          "midi": 78,
          "name": "F#5",
          "ticks": 4382,
          "time": 50.95348837209303,
          "velocity": 0.2047244094488189
        },
        {
          "duration": 0.03488372093023173,
          "durationTicks": 3,
          "midi": 96,
          "name": "C7",
          "ticks": 4382,
          "time": 50.95348837209303,
          "velocity": 0.07874015748031496
        },
        {
          "duration": 0.03488372093023173,
          "durationTicks": 3,
          "midi": 92,
          "name": "G#6",
          "ticks": 4383,
          "time": 50.96511627906977,
          "velocity": 0.10236220472440945
        },
        {
          "duration": 0.03488372093023173,
          "durationTicks": 3,
          "midi": 50,
          "name": "D3",
          "ticks": 4384,
          "time": 50.97674418604651,
          "velocity": 0.4881889763779528
        },
        {
          "duration": 0.1860465116279073,
          "durationTicks": 16,
          "midi": 84,
          "name": "C6",
          "ticks": 4384,
          "time": 50.97674418604651,
          "velocity": 0.1732283464566929
        },
        {
          "duration": 0.15116279069767558,
          "durationTicks": 13,
          "midi": 57,
          "name": "A3",
          "ticks": 4386,
          "time": 51,
          "velocity": 0.13385826771653545
        },
        {
          "duration": 0.06976744186047057,
          "durationTicks": 6,
          "midi": 79,
          "name": "G5",
          "ticks": 4387,
          "time": 51.01162790697674,
          "velocity": 0.11811023622047244
        },
        {
          "duration": 0.03488372093023173,
          "durationTicks": 3,
          "midi": 50,
          "name": "D3",
          "ticks": 4388,
          "time": 51.02325581395349,
          "velocity": 0.47244094488188976
        },
        {
          "duration": 0.02325581395349019,
          "durationTicks": 2,
          "midi": 49,
          "name": "C#3",
          "ticks": 4391,
          "time": 51.05813953488372,
          "velocity": 0.4251968503937008
        },
        {
          "duration": 0.04651162790698038,
          "durationTicks": 4,
          "midi": 67,
          "name": "G4",
          "ticks": 4392,
          "time": 51.06976744186046,
          "velocity": 0.14173228346456693
        },
        {
          "duration": 0.023255813953483084,
          "durationTicks": 2,
          "midi": 50,
          "name": "D3",
          "ticks": 4393,
          "time": 51.08139534883721,
          "velocity": 0.4251968503937008
        },
        {
          "duration": 0.02325581395349019,
          "durationTicks": 2,
          "midi": 45,
          "name": "A2",
          "ticks": 4394,
          "time": 51.093023255813954,
          "velocity": 0.3700787401574803
        },
        {
          "duration": 0.02325581395349019,
          "durationTicks": 2,
          "midi": 44,
          "name": "G#2",
          "ticks": 4400,
          "time": 51.16279069767442,
          "velocity": 0.48031496062992124
        },
        {
          "duration": 0.03488372093023173,
          "durationTicks": 3,
          "midi": 68,
          "name": "G#4",
          "ticks": 4400,
          "time": 51.16279069767442,
          "velocity": 0.4094488188976378
        },
        {
          "duration": 0.03488372093023173,
          "durationTicks": 3,
          "midi": 76,
          "name": "E5",
          "ticks": 4400,
          "time": 51.16279069767442,
          "velocity": 0.10236220472440945
        },
        {
          "duration": 0.3720930232558146,
          "durationTicks": 32,
          "midi": 79,
          "name": "G5",
          "ticks": 4400,
          "time": 51.16279069767442,
          "velocity": 0.28346456692913385
        },
        {
          "duration": 0.023255813953483084,
          "durationTicks": 2,
          "midi": 60,
          "name": "C4",
          "ticks": 4401,
          "time": 51.174418604651166,
          "velocity": 0.28346456692913385
        },
        {
          "duration": 0.24418604651162212,
          "durationTicks": 21,
          "midi": 83,
          "name": "B5",
          "ticks": 4401,
          "time": 51.174418604651166,
          "velocity": 0.2204724409448819
        },
        {
          "duration": 0.058139534883714816,
          "durationTicks": 5,
          "midi": 88,
          "name": "E6",
          "ticks": 4401,
          "time": 51.174418604651166,
          "velocity": 0.10236220472440945
        },
        {
          "duration": 0.03488372093023173,
          "durationTicks": 3,
          "midi": 89,
          "name": "F6",
          "ticks": 4401,
          "time": 51.174418604651166,
          "velocity": 0.08661417322834646
        },
        {
          "duration": 0.011627906976741542,
          "durationTicks": 1,
          "midi": 47,
          "name": "B2",
          "ticks": 4402,
          "time": 51.18604651162791,
          "velocity": 0.5354330708661418
        },
        {
          "duration": 0.04651162790698038,
          "durationTicks": 4,
          "midi": 37,
          "name": "C#2",
          "ticks": 4403,
          "time": 51.19767441860465,
          "velocity": 0.4645669291338583
        },
        {
          "duration": 0.03488372093023173,
          "durationTicks": 3,
          "midi": 48,
          "name": "C3",
          "ticks": 4403,
          "time": 51.19767441860465,
          "velocity": 0.5039370078740157
        },
        {
          "duration": 0.06976744186047057,
          "durationTicks": 6,
          "midi": 55,
          "name": "G3",
          "ticks": 4403,
          "time": 51.19767441860465,
          "velocity": 0.3464566929133858
        },
        {
          "duration": 0.22093023255813904,
          "durationTicks": 19,
          "midi": 67,
          "name": "G4",
          "ticks": 4403,
          "time": 51.19767441860465,
          "velocity": 0.4566929133858268
        },
        {
          "duration": 0.04651162790698038,
          "durationTicks": 4,
          "midi": 82,
          "name": "A#5",
          "ticks": 4403,
          "time": 51.19767441860465,
          "velocity": 0.08661417322834646
        },
        {
          "duration": 0.19767441860465595,
          "durationTicks": 17,
          "midi": 93,
          "name": "A6",
          "ticks": 4403,
          "time": 51.19767441860465,
          "velocity": 0.1968503937007874
        },
        {
          "duration": 0.06976744186046346,
          "durationTicks": 6,
          "midi": 78,
          "name": "F#5",
          "ticks": 4404,
          "time": 51.2093023255814,
          "velocity": 0.13385826771653545
        },
        {
          "duration": 0.04651162790698038,
          "durationTicks": 4,
          "midi": 89,
          "name": "F6",
          "ticks": 4405,
          "time": 51.22093023255814,
          "velocity": 0.11023622047244094
        },
        {
          "duration": 0.02325581395349019,
          "durationTicks": 2,
          "midi": 47,
          "name": "B2",
          "ticks": 4406,
          "time": 51.23255813953488,
          "velocity": 0.4330708661417323
        },
        {
          "duration": 0.04651162790698038,
          "durationTicks": 4,
          "midi": 69,
          "name": "A4",
          "ticks": 4406,
          "time": 51.23255813953488,
          "velocity": 0.1732283464566929
        },
        {
          "duration": 0.046511627906973274,
          "durationTicks": 4,
          "midi": 36,
          "name": "C2",
          "ticks": 4407,
          "time": 51.24418604651163,
          "velocity": 0.4015748031496063
        },
        {
          "duration": 0.15116279069767558,
          "durationTicks": 13,
          "midi": 60,
          "name": "C4",
          "ticks": 4407,
          "time": 51.24418604651163,
          "velocity": 0.28346456692913385
        },
        {
          "duration": 0.04651162790698038,
          "durationTicks": 4,
          "midi": 48,
          "name": "C3",
          "ticks": 4408,
          "time": 51.25581395348837,
          "velocity": 0.4251968503937008
        },
        {
          "duration": 0.023255813953483084,
          "durationTicks": 2,
          "midi": 54,
          "name": "F#3",
          "ticks": 4409,
          "time": 51.26744186046512,
          "velocity": 0.4251968503937008
        },
        {
          "duration": 0.11627906976744384,
          "durationTicks": 10,
          "midi": 64,
          "name": "E4",
          "ticks": 4410,
          "time": 51.27906976744186,
          "velocity": 0.18110236220472442
        },
        {
          "duration": 0.02325581395349019,
          "durationTicks": 2,
          "midi": 37,
          "name": "C#2",
          "ticks": 4411,
          "time": 51.2906976744186,
          "velocity": 0.3937007874015748
        },
        {
          "duration": 0.02325581395349019,
          "durationTicks": 2,
          "midi": 55,
          "name": "G3",
          "ticks": 4411,
          "time": 51.2906976744186,
          "velocity": 0.4015748031496063
        },
        {
          "duration": 0.03488372093023173,
          "durationTicks": 3,
          "midi": 78,
          "name": "F#5",
          "ticks": 4411,
          "time": 51.2906976744186,
          "velocity": 0.07086614173228346
        },
        {
          "duration": 0.1046511627907023,
          "durationTicks": 9,
          "midi": 89,
          "name": "F6",
          "ticks": 4411,
          "time": 51.2906976744186,
          "velocity": 0.16535433070866143
        },
        {
          "duration": 0.02325581395349019,
          "durationTicks": 2,
          "midi": 36,
          "name": "C2",
          "ticks": 4413,
          "time": 51.31395348837209,
          "velocity": 0.29133858267716534
        },
        {
          "duration": 0.1046511627906952,
          "durationTicks": 9,
          "midi": 48,
          "name": "C3",
          "ticks": 4413,
          "time": 51.31395348837209,
          "velocity": 0.5039370078740157
        },
        {
          "duration": 0.1046511627907023,
          "durationTicks": 9,
          "midi": 55,
          "name": "G3",
          "ticks": 4414,
          "time": 51.325581395348834,
          "velocity": 0.3937007874015748
        },
        {
          "duration": 0.03488372093023173,
          "durationTicks": 3,
          "midi": 36,
          "name": "C2",
          "ticks": 4417,
          "time": 51.36046511627907,
          "velocity": 0.28346456692913385
        },
        {
          "duration": 0.03488372093023173,
          "durationTicks": 3,
          "midi": 70,
          "name": "A#4",
          "ticks": 4417,
          "time": 51.36046511627907,
          "velocity": 0.07086614173228346
        },
        {
          "duration": 0.046511627906973274,
          "durationTicks": 4,
          "midi": 78,
          "name": "F#5",
          "ticks": 4420,
          "time": 51.395348837209305,
          "velocity": 0.07086614173228346
        },
        {
          "duration": 0.22093023255813904,
          "durationTicks": 19,
          "midi": 62,
          "name": "D4",
          "ticks": 4421,
          "time": 51.406976744186046,
          "velocity": 0.29133858267716534
        },
        {
          "duration": 0.23255813953488058,
          "durationTicks": 20,
          "midi": 72,
          "name": "C5",
          "ticks": 4421,
          "time": 51.406976744186046,
          "velocity": 0.1968503937007874
        },
        {
          "duration": 0.08139534883721211,
          "durationTicks": 7,
          "midi": 86,
          "name": "D6",
          "ticks": 4421,
          "time": 51.406976744186046,
          "velocity": 0.10236220472440945
        },
        {
          "duration": 0.04651162790698038,
          "durationTicks": 4,
          "midi": 69,
          "name": "A4",
          "ticks": 4422,
          "time": 51.41860465116279,
          "velocity": 0.18110236220472442
        },
        {
          "duration": 0.2093023255813904,
          "durationTicks": 18,
          "midi": 50,
          "name": "D3",
          "ticks": 4423,
          "time": 51.43023255813954,
          "velocity": 0.4094488188976378
        },
        {
          "duration": 0.05813953488372192,
          "durationTicks": 5,
          "midi": 39,
          "name": "D#2",
          "ticks": 4424,
          "time": 51.44186046511628,
          "velocity": 0.4251968503937008
        },
        {
          "duration": 0.06976744186046346,
          "durationTicks": 6,
          "midi": 83,
          "name": "B5",
          "ticks": 4424,
          "time": 51.44186046511628,
          "velocity": 0.11811023622047244
        },
        {
          "duration": 0.023255813953483084,
          "durationTicks": 2,
          "midi": 56,
          "name": "G#3",
          "ticks": 4425,
          "time": 51.45348837209303,
          "velocity": 0.36220472440944884
        },
        {
          "duration": 0.058139534883714816,
          "durationTicks": 5,
          "midi": 76,
          "name": "E5",
          "ticks": 4425,
          "time": 51.45348837209303,
          "velocity": 0.08661417322834646
        },
        {
          "duration": 0.03488372093023173,
          "durationTicks": 3,
          "midi": 67,
          "name": "G4",
          "ticks": 4426,
          "time": 51.46511627906977,
          "velocity": 0.25196850393700787
        },
        {
          "duration": 0.16279069767441712,
          "durationTicks": 14,
          "midi": 93,
          "name": "A6",
          "ticks": 4426,
          "time": 51.46511627906977,
          "velocity": 0.13385826771653545
        },
        {
          "duration": 0.046511627906973274,
          "durationTicks": 4,
          "midi": 38,
          "name": "D2",
          "ticks": 4429,
          "time": 51.5,
          "velocity": 0.36220472440944884
        },
        {
          "duration": 0.02325581395349019,
          "durationTicks": 2,
          "midi": 56,
          "name": "G#3",
          "ticks": 4429,
          "time": 51.5,
          "velocity": 0.3937007874015748
        },
        {
          "duration": 0.5930232558139537,
          "durationTicks": 51,
          "midi": 69,
          "name": "A4",
          "ticks": 4429,
          "time": 51.5,
          "velocity": 0.47244094488188976
        },
        {
          "duration": 0.6279069767441854,
          "durationTicks": 54,
          "midi": 85,
          "name": "C#6",
          "ticks": 4430,
          "time": 51.51162790697674,
          "velocity": 0.23622047244094488
        },
        {
          "duration": 0.1046511627906952,
          "durationTicks": 9,
          "midi": 57,
          "name": "A3",
          "ticks": 4431,
          "time": 51.52325581395349,
          "velocity": 0.4330708661417323
        },
        {
          "duration": 0.3488372093023244,
          "durationTicks": 30,
          "midi": 66,
          "name": "F#4",
          "ticks": 4431,
          "time": 51.52325581395349,
          "velocity": 0.2677165354330709
        },
        {
          "duration": 0.3372093023255829,
          "durationTicks": 29,
          "midi": 95,
          "name": "B6",
          "ticks": 4431,
          "time": 51.52325581395349,
          "velocity": 0.1732283464566929
        },
        {
          "duration": 0.08139534883721211,
          "durationTicks": 7,
          "midi": 91,
          "name": "G6",
          "ticks": 4432,
          "time": 51.53488372093023,
          "velocity": 0.14173228346456693
        },
        {
          "duration": 0.02325581395349019,
          "durationTicks": 2,
          "midi": 36,
          "name": "C2",
          "ticks": 4433,
          "time": 51.54651162790697,
          "velocity": 0.25984251968503935
        },
        {
          "duration": 0.023255813953483084,
          "durationTicks": 2,
          "midi": 39,
          "name": "D#2",
          "ticks": 4436,
          "time": 51.58139534883721,
          "velocity": 0.2992125984251969
        },
        {
          "duration": 0.1860465116279073,
          "durationTicks": 16,
          "midi": 80,
          "name": "G#5",
          "ticks": 4440,
          "time": 51.627906976744185,
          "velocity": 0.1732283464566929
        },
        {
          "duration": 0.09302325581395365,
          "durationTicks": 8,
          "midi": 90,
          "name": "F#6",
          "ticks": 4440,
          "time": 51.627906976744185,
          "velocity": 0.12598425196850394
        },
        {
          "duration": 0.09302325581395365,
          "durationTicks": 8,
          "midi": 57,
          "name": "A3",
          "ticks": 4441,
          "time": 51.63953488372093,
          "velocity": 0.4330708661417323
        },
        {
          "duration": 0.04651162790698038,
          "durationTicks": 4,
          "midi": 86,
          "name": "D6",
          "ticks": 4441,
          "time": 51.63953488372093,
          "velocity": 0.07086614173228346
        },
        {
          "duration": 0.09302325581395365,
          "durationTicks": 8,
          "midi": 88,
          "name": "E6",
          "ticks": 4441,
          "time": 51.63953488372093,
          "velocity": 0.08661417322834646
        },
        {
          "duration": 0.19767441860464885,
          "durationTicks": 17,
          "midi": 50,
          "name": "D3",
          "ticks": 4442,
          "time": 51.651162790697676,
          "velocity": 0.5039370078740157
        },
        {
          "duration": 0.046511627906973274,
          "durationTicks": 4,
          "midi": 84,
          "name": "C6",
          "ticks": 4442,
          "time": 51.651162790697676,
          "velocity": 0.08661417322834646
        },
        {
          "duration": 0.03488372093023173,
          "durationTicks": 3,
          "midi": 39,
          "name": "D#2",
          "ticks": 4443,
          "time": 51.66279069767442,
          "velocity": 0.4881889763779528
        },
        {
          "duration": 0.19767441860465595,
          "durationTicks": 17,
          "midi": 72,
          "name": "C5",
          "ticks": 4443,
          "time": 51.66279069767442,
          "velocity": 0.18110236220472442
        },
        {
          "duration": 0.03488372093023173,
          "durationTicks": 3,
          "midi": 91,
          "name": "G6",
          "ticks": 4445,
          "time": 51.68604651162791,
          "velocity": 0.10236220472440945
        },
        {
          "duration": 0.04651162790698038,
          "durationTicks": 4,
          "midi": 38,
          "name": "D2",
          "ticks": 4446,
          "time": 51.69767441860465,
          "velocity": 0.4251968503937008
        },
        {
          "duration": 0.418604651162795,
          "durationTicks": 36,
          "midi": 76,
          "name": "E5",
          "ticks": 4446,
          "time": 51.69767441860465,
          "velocity": 0.15748031496062992
        },
        {
          "duration": 0.02325581395349019,
          "durationTicks": 2,
          "midi": 39,
          "name": "D#2",
          "ticks": 4450,
          "time": 51.74418604651163,
          "velocity": 0.3858267716535433
        },
        {
          "duration": 0.1046511627906952,
          "durationTicks": 9,
          "midi": 57,
          "name": "A3",
          "ticks": 4450,
          "time": 51.74418604651163,
          "velocity": 0.4015748031496063
        },
        {
          "duration": 0.08139534883721211,
          "durationTicks": 7,
          "midi": 91,
          "name": "G6",
          "ticks": 4451,
          "time": 51.75581395348837,
          "velocity": 0.14960629921259844
        },
        {
          "duration": 0.02325581395349019,
          "durationTicks": 2,
          "midi": 37,
          "name": "C#2",
          "ticks": 4453,
          "time": 51.77906976744186,
          "velocity": 0.25196850393700787
        },
        {
          "duration": 0.02325581395349019,
          "durationTicks": 2,
          "midi": 38,
          "name": "D2",
          "ticks": 4457,
          "time": 51.825581395348834,
          "velocity": 0.29133858267716534
        },
        {
          "duration": 0.011627906976741542,
          "durationTicks": 1,
          "midi": 50,
          "name": "D3",
          "ticks": 4460,
          "time": 51.86046511627907,
          "velocity": 0.5433070866141733
        },
        {
          "duration": 0.03488372093023173,
          "durationTicks": 3,
          "midi": 79,
          "name": "G5",
          "ticks": 4460,
          "time": 51.86046511627907,
          "velocity": 0.15748031496062992
        },
        {
          "duration": 0.22093023255813904,
          "durationTicks": 19,
          "midi": 84,
          "name": "C6",
          "ticks": 4460,
          "time": 51.86046511627907,
          "velocity": 0.2204724409448819
        },
        {
          "duration": 0.011627906976741542,
          "durationTicks": 1,
          "midi": 48,
          "name": "C3",
          "ticks": 4461,
          "time": 51.872093023255815,
          "velocity": 0.5669291338582677
        },
        {
          "duration": 0.046511627906973274,
          "durationTicks": 4,
          "midi": 78,
          "name": "F#5",
          "ticks": 4461,
          "time": 51.872093023255815,
          "velocity": 0.1889763779527559
        },
        {
          "duration": 0.1046511627907023,
          "durationTicks": 9,
          "midi": 50,
          "name": "D3",
          "ticks": 4462,
          "time": 51.883720930232556,
          "velocity": 0.5354330708661418
        },
        {
          "duration": 0.03488372093023173,
          "durationTicks": 3,
          "midi": 92,
          "name": "G#6",
          "ticks": 4462,
          "time": 51.883720930232556,
          "velocity": 0.10236220472440945
        },
        {
          "duration": 0.12790697674418539,
          "durationTicks": 11,
          "midi": 78,
          "name": "F#5",
          "ticks": 4466,
          "time": 51.93023255813954,
          "velocity": 0.13385826771653545
        },
        {
          "duration": 0.06976744186046346,
          "durationTicks": 6,
          "midi": 79,
          "name": "G5",
          "ticks": 4466,
          "time": 51.93023255813954,
          "velocity": 0.10236220472440945
        },
        {
          "duration": 0.081395348837205,
          "durationTicks": 7,
          "midi": 57,
          "name": "A3",
          "ticks": 4468,
          "time": 51.95348837209303,
          "velocity": 0.11811023622047244
        },
        {
          "duration": 0.046511627906973274,
          "durationTicks": 4,
          "midi": 67,
          "name": "G4",
          "ticks": 4471,
          "time": 51.98837209302326,
          "velocity": 0.11811023622047244
        },
        {
          "duration": 0.03488372093023173,
          "durationTicks": 3,
          "midi": 50,
          "name": "D3",
          "ticks": 4472,
          "time": 52,
          "velocity": 0.4409448818897638
        },
        {
          "duration": 0.02325581395349019,
          "durationTicks": 2,
          "midi": 45,
          "name": "A2",
          "ticks": 4473,
          "time": 52.01162790697674,
          "velocity": 0.3700787401574803
        },
        {
          "duration": 0.38372093023255616,
          "durationTicks": 33,
          "midi": 79,
          "name": "G5",
          "ticks": 4479,
          "time": 52.08139534883721,
          "velocity": 0.25196850393700787
        },
        {
          "duration": 0.02325581395349019,
          "durationTicks": 2,
          "midi": 60,
          "name": "C4",
          "ticks": 4480,
          "time": 52.093023255813954,
          "velocity": 0.28346456692913385
        },
        {
          "duration": 0.02325581395349019,
          "durationTicks": 2,
          "midi": 68,
          "name": "G#4",
          "ticks": 4480,
          "time": 52.093023255813954,
          "velocity": 0.4094488188976378
        },
        {
          "duration": 0.3139534883720927,
          "durationTicks": 27,
          "midi": 83,
          "name": "B5",
          "ticks": 4480,
          "time": 52.093023255813954,
          "velocity": 0.2204724409448819
        },
        {
          "duration": 0.03488372093023173,
          "durationTicks": 3,
          "midi": 89,
          "name": "F6",
          "ticks": 4480,
          "time": 52.093023255813954,
          "velocity": 0.08661417322834646
        },
        {
          "duration": 0.011627906976748648,
          "durationTicks": 1,
          "midi": 47,
          "name": "B2",
          "ticks": 4481,
          "time": 52.104651162790695,
          "velocity": 0.5275590551181102
        },
        {
          "duration": 0.05813953488372192,
          "durationTicks": 5,
          "midi": 82,
          "name": "A#5",
          "ticks": 4481,
          "time": 52.104651162790695,
          "velocity": 0.08661417322834646
        },
        {
          "duration": 0.046511627906973274,
          "durationTicks": 4,
          "midi": 37,
          "name": "C#2",
          "ticks": 4482,
          "time": 52.116279069767444,
          "velocity": 0.4566929133858268
        },
        {
          "duration": 0.081395348837205,
          "durationTicks": 7,
          "midi": 55,
          "name": "G3",
          "ticks": 4482,
          "time": 52.116279069767444,
          "velocity": 0.3464566929133858
        },
        {
          "duration": 0.09302325581395365,
          "durationTicks": 8,
          "midi": 67,
          "name": "G4",
          "ticks": 4482,
          "time": 52.116279069767444,
          "velocity": 0.3937007874015748
        },
        {
          "duration": 0.081395348837205,
          "durationTicks": 7,
          "midi": 93,
          "name": "A6",
          "ticks": 4482,
          "time": 52.116279069767444,
          "velocity": 0.07874015748031496
        },
        {
          "duration": 0.06976744186046346,
          "durationTicks": 6,
          "midi": 78,
          "name": "F#5",
          "ticks": 4483,
          "time": 52.127906976744185,
          "velocity": 0.12598425196850394
        },
        {
          "duration": 0.04651162790698038,
          "durationTicks": 4,
          "midi": 89,
          "name": "F6",
          "ticks": 4484,
          "time": 52.13953488372093,
          "velocity": 0.11023622047244094
        },
        {
          "duration": 0.02325581395349019,
          "durationTicks": 2,
          "midi": 47,
          "name": "B2",
          "ticks": 4485,
          "time": 52.151162790697676,
          "velocity": 0.4409448818897638
        },
        {
          "duration": 0.03488372093023173,
          "durationTicks": 3,
          "midi": 69,
          "name": "A4",
          "ticks": 4485,
          "time": 52.151162790697676,
          "velocity": 0.14173228346456693
        },
        {
          "duration": 0.04651162790698038,
          "durationTicks": 4,
          "midi": 36,
          "name": "C2",
          "ticks": 4486,
          "time": 52.16279069767442,
          "velocity": 0.3937007874015748
        },
        {
          "duration": 0.13953488372093403,
          "durationTicks": 12,
          "midi": 60,
          "name": "C4",
          "ticks": 4486,
          "time": 52.16279069767442,
          "velocity": 0.2677165354330709
        },
        {
          "duration": 0.15116279069767558,
          "durationTicks": 13,
          "midi": 64,
          "name": "E4",
          "ticks": 4486,
          "time": 52.16279069767442,
          "velocity": 0.2204724409448819
        },
        {
          "duration": 0.02325581395349019,
          "durationTicks": 2,
          "midi": 68,
          "name": "G#4",
          "ticks": 4489,
          "time": 52.19767441860465,
          "velocity": 0.3464566929133858
        },
        {
          "duration": 0.023255813953483084,
          "durationTicks": 2,
          "midi": 37,
          "name": "C#2",
          "ticks": 4490,
          "time": 52.2093023255814,
          "velocity": 0.3700787401574803
        },
        {
          "duration": 0.023255813953483084,
          "durationTicks": 2,
          "midi": 47,
          "name": "B2",
          "ticks": 4490,
          "time": 52.2093023255814,
          "velocity": 0.3937007874015748
        },
        {
          "duration": 0.023255813953483084,
          "durationTicks": 2,
          "midi": 55,
          "name": "G3",
          "ticks": 4490,
          "time": 52.2093023255814,
          "velocity": 0.3543307086614173
        },
        {
          "duration": 0.15116279069767558,
          "durationTicks": 13,
          "midi": 89,
          "name": "F6",
          "ticks": 4490,
          "time": 52.2093023255814,
          "velocity": 0.14173228346456693
        },
        {
          "duration": 0.19767441860464885,
          "durationTicks": 17,
          "midi": 67,
          "name": "G4",
          "ticks": 4491,
          "time": 52.22093023255814,
          "velocity": 0.4015748031496063
        },
        {
          "duration": 0.04651162790698038,
          "durationTicks": 4,
          "midi": 48,
          "name": "C3",
          "ticks": 4494,
          "time": 52.25581395348837,
          "velocity": 0.3464566929133858
        },
        {
          "duration": 0.04651162790698038,
          "durationTicks": 4,
          "midi": 55,
          "name": "G3",
          "ticks": 4494,
          "time": 52.25581395348837,
          "velocity": 0.1889763779527559
        },
        {
          "duration": 0.023255813953483084,
          "durationTicks": 2,
          "midi": 36,
          "name": "C2",
          "ticks": 4495,
          "time": 52.26744186046512,
          "velocity": 0.2992125984251969
        },
        {
          "duration": 0.03488372093023173,
          "durationTicks": 3,
          "midi": 70,
          "name": "A#4",
          "ticks": 4496,
          "time": 52.27906976744186,
          "velocity": 0.16535433070866143
        },
        {
          "duration": 0.081395348837205,
          "durationTicks": 7,
          "midi": 93,
          "name": "A6",
          "ticks": 4498,
          "time": 52.30232558139535,
          "velocity": 0.15748031496062992
        },
        {
          "duration": 0.09302325581395365,
          "durationTicks": 8,
          "midi": 57,
          "name": "A3",
          "ticks": 4499,
          "time": 52.31395348837209,
          "velocity": 0.33070866141732286
        },
        {
          "duration": 0.1046511627906952,
          "durationTicks": 9,
          "midi": 72,
          "name": "C5",
          "ticks": 4499,
          "time": 52.31395348837209,
          "velocity": 0.14960629921259844
        },
        {
          "duration": 0.22093023255813904,
          "durationTicks": 19,
          "midi": 50,
          "name": "D3",
          "ticks": 4500,
          "time": 52.325581395348834,
          "velocity": 0.44881889763779526
        },
        {
          "duration": 0.04651162790698038,
          "durationTicks": 4,
          "midi": 38,
          "name": "D2",
          "ticks": 4502,
          "time": 52.348837209302324,
          "velocity": 0.44881889763779526
        },
        {
          "duration": 0.6046511627906952,
          "durationTicks": 52,
          "midi": 69,
          "name": "A4",
          "ticks": 4507,
          "time": 52.406976744186046,
          "velocity": 0.44881889763779526
        },
        {
          "duration": 0.11627906976744384,
          "durationTicks": 10,
          "midi": 93,
          "name": "A6",
          "ticks": 4507,
          "time": 52.406976744186046,
          "velocity": 0.14173228346456693
        },
        {
          "duration": 0.02325581395349019,
          "durationTicks": 2,
          "midi": 56,
          "name": "G#3",
          "ticks": 4508,
          "time": 52.41860465116279,
          "velocity": 0.47244094488188976
        },
        {
          "duration": 0.2906976744186096,
          "durationTicks": 25,
          "midi": 85,
          "name": "C#6",
          "ticks": 4508,
          "time": 52.41860465116279,
          "velocity": 0.2283464566929134
        },
        {
          "duration": 0.11627906976743674,
          "durationTicks": 10,
          "midi": 72,
          "name": "C5",
          "ticks": 4509,
          "time": 52.43023255813954,
          "velocity": 0.1889763779527559
        },
        {
          "duration": 0.09302325581395365,
          "durationTicks": 8,
          "midi": 57,
          "name": "A3",
          "ticks": 4510,
          "time": 52.44186046511628,
          "velocity": 0.41732283464566927
        },
        {
          "duration": 0.3139534883720927,
          "durationTicks": 27,
          "midi": 95,
          "name": "B6",
          "ticks": 4510,
          "time": 52.44186046511628,
          "velocity": 0.1732283464566929
        },
        {
          "duration": 0.023255813953483084,
          "durationTicks": 2,
          "midi": 36,
          "name": "C2",
          "ticks": 4511,
          "time": 52.45348837209303,
          "velocity": 0.2677165354330709
        },
        {
          "duration": 0.3372093023255829,
          "durationTicks": 29,
          "midi": 66,
          "name": "F#4",
          "ticks": 4512,
          "time": 52.46511627906977,
          "velocity": 0.28346456692913385
        },
        {
          "duration": 0.03488372093023173,
          "durationTicks": 3,
          "midi": 38,
          "name": "D2",
          "ticks": 4515,
          "time": 52.5,
          "velocity": 0.2992125984251969
        },
        {
          "duration": 0.19767441860464885,
          "durationTicks": 17,
          "midi": 80,
          "name": "G#5",
          "ticks": 4518,
          "time": 52.53488372093023,
          "velocity": 0.16535433070866143
        },
        {
          "duration": 0.09302325581395365,
          "durationTicks": 8,
          "midi": 90,
          "name": "F#6",
          "ticks": 4518,
          "time": 52.53488372093023,
          "velocity": 0.12598425196850394
        },
        {
          "duration": 0.22093023255814614,
          "durationTicks": 19,
          "midi": 57,
          "name": "A3",
          "ticks": 4519,
          "time": 52.54651162790697,
          "velocity": 0.4251968503937008
        },
        {
          "duration": 0.03488372093023884,
          "durationTicks": 3,
          "midi": 86,
          "name": "D6",
          "ticks": 4519,
          "time": 52.54651162790697,
          "velocity": 0.07086614173228346
        },
        {
          "duration": 0.08139534883721211,
          "durationTicks": 7,
          "midi": 88,
          "name": "E6",
          "ticks": 4519,
          "time": 52.54651162790697,
          "velocity": 0.09448818897637795
        },
        {
          "duration": 0.2093023255813975,
          "durationTicks": 18,
          "midi": 50,
          "name": "D3",
          "ticks": 4520,
          "time": 52.55813953488372,
          "velocity": 0.5039370078740157
        },
        {
          "duration": 0.046511627906973274,
          "durationTicks": 4,
          "midi": 84,
          "name": "C6",
          "ticks": 4520,
          "time": 52.55813953488372,
          "velocity": 0.08661417322834646
        },
        {
          "duration": 0.03488372093023173,
          "durationTicks": 3,
          "midi": 39,
          "name": "D#2",
          "ticks": 4521,
          "time": 52.56976744186046,
          "velocity": 0.4881889763779528
        },
        {
          "duration": 0.2093023255813975,
          "durationTicks": 18,
          "midi": 72,
          "name": "C5",
          "ticks": 4521,
          "time": 52.56976744186046,
          "velocity": 0.11811023622047244
        },
        {
          "duration": 0.03488372093023173,
          "durationTicks": 3,
          "midi": 91,
          "name": "G6",
          "ticks": 4523,
          "time": 52.593023255813954,
          "velocity": 0.11023622047244094
        },
        {
          "duration": 0.09302325581395365,
          "durationTicks": 8,
          "midi": 38,
          "name": "D2",
          "ticks": 4524,
          "time": 52.604651162790695,
          "velocity": 0.4330708661417323
        },
        {
          "duration": 0.16279069767441712,
          "durationTicks": 14,
          "midi": 76,
          "name": "E5",
          "ticks": 4525,
          "time": 52.616279069767444,
          "velocity": 0.08661417322834646
        },
        {
          "duration": 0.05813953488372192,
          "durationTicks": 5,
          "midi": 38,
          "name": "D2",
          "ticks": 4533,
          "time": 52.7093023255814,
          "velocity": 0.30708661417322836
        },
        {
          "duration": 0.03488372093023173,
          "durationTicks": 3,
          "midi": 48,
          "name": "C3",
          "ticks": 4538,
          "time": 52.76744186046512,
          "velocity": 0.5275590551181102
        },
        {
          "duration": 0.27906976744185386,
          "durationTicks": 24,
          "midi": 85,
          "name": "C#6",
          "ticks": 4538,
          "time": 52.76744186046512,
          "velocity": 0.2283464566929134
        },
        {
          "duration": 0.22093023255813904,
          "durationTicks": 19,
          "midi": 84,
          "name": "C6",
          "ticks": 4539,
          "time": 52.77906976744186,
          "velocity": 0.2125984251968504
        },
        {
          "duration": 0.30232558139534405,
          "durationTicks": 26,
          "midi": 88,
          "name": "E6",
          "ticks": 4541,
          "time": 52.80232558139535,
          "velocity": 0.11811023622047244
        },
        {
          "duration": 0.03488372093023173,
          "durationTicks": 3,
          "midi": 92,
          "name": "G#6",
          "ticks": 4541,
          "time": 52.80232558139535,
          "velocity": 0.10236220472440945
        },
        {
          "duration": 0.03488372093023173,
          "durationTicks": 3,
          "midi": 50,
          "name": "D3",
          "ticks": 4542,
          "time": 52.81395348837209,
          "velocity": 0.49606299212598426
        },
        {
          "duration": 0.17441860465116577,
          "durationTicks": 15,
          "midi": 57,
          "name": "A3",
          "ticks": 4543,
          "time": 52.825581395348834,
          "velocity": 0.16535433070866143
        },
        {
          "duration": 0.12790697674418539,
          "durationTicks": 11,
          "midi": 78,
          "name": "F#5",
          "ticks": 4545,
          "time": 52.848837209302324,
          "velocity": 0.14173228346456693
        },
        {
          "duration": 0.06976744186046346,
          "durationTicks": 6,
          "midi": 79,
          "name": "G5",
          "ticks": 4545,
          "time": 52.848837209302324,
          "velocity": 0.11023622047244094
        },
        {
          "duration": 0.03488372093023173,
          "durationTicks": 3,
          "midi": 50,
          "name": "D3",
          "ticks": 4546,
          "time": 52.86046511627907,
          "velocity": 0.48031496062992124
        },
        {
          "duration": 0.11627906976744384,
          "durationTicks": 10,
          "midi": 67,
          "name": "G4",
          "ticks": 4547,
          "time": 52.872093023255815,
          "velocity": 0.14960629921259844
        },
        {
          "duration": 0.023255813953483084,
          "durationTicks": 2,
          "midi": 49,
          "name": "C#3",
          "ticks": 4549,
          "time": 52.895348837209305,
          "velocity": 0.4330708661417323
        },
        {
          "duration": 0.03488372093023884,
          "durationTicks": 3,
          "midi": 50,
          "name": "D3",
          "ticks": 4551,
          "time": 52.91860465116279,
          "velocity": 0.4330708661417323
        },
        {
          "duration": 0.02325581395349019,
          "durationTicks": 2,
          "midi": 45,
          "name": "A2",
          "ticks": 4552,
          "time": 52.93023255813954,
          "velocity": 0.3700787401574803
        },
        {
          "duration": 0.03488372093023173,
          "durationTicks": 3,
          "midi": 68,
          "name": "G#4",
          "ticks": 4558,
          "time": 53,
          "velocity": 0.4094488188976378
        },
        {
          "duration": 0.30232558139535115,
          "durationTicks": 26,
          "midi": 79,
          "name": "G5",
          "ticks": 4558,
          "time": 53,
          "velocity": 0.25196850393700787
        },
        {
          "duration": 0.02325581395349019,
          "durationTicks": 2,
          "midi": 60,
          "name": "C4",
          "ticks": 4559,
          "time": 53.01162790697674,
          "velocity": 0.28346456692913385
        },
        {
          "duration": 0.2906976744186096,
          "durationTicks": 25,
          "midi": 83,
          "name": "B5",
          "ticks": 4559,
          "time": 53.01162790697674,
          "velocity": 0.2283464566929134
        },
        {
          "duration": 0.03488372093023173,
          "durationTicks": 3,
          "midi": 89,
          "name": "F6",
          "ticks": 4559,
          "time": 53.01162790697674,
          "velocity": 0.08661417322834646
        },
        {
          "duration": 0.011627906976741542,
          "durationTicks": 1,
          "midi": 47,
          "name": "B2",
          "ticks": 4560,
          "time": 53.02325581395349,
          "velocity": 0.5275590551181102
        },
        {
          "duration": 0.05813953488372192,
          "durationTicks": 5,
          "midi": 82,
          "name": "A#5",
          "ticks": 4560,
          "time": 53.02325581395349,
          "velocity": 0.08661417322834646
        },
        {
          "duration": 0.04651162790698038,
          "durationTicks": 4,
          "midi": 37,
          "name": "C#2",
          "ticks": 4561,
          "time": 53.03488372093023,
          "velocity": 0.4566929133858268
        },
        {
          "duration": 0.08139534883721211,
          "durationTicks": 7,
          "midi": 55,
          "name": "G3",
          "ticks": 4561,
          "time": 53.03488372093023,
          "velocity": 0.3464566929133858
        },
        {
          "duration": 0.08139534883721211,
          "durationTicks": 7,
          "midi": 67,
          "name": "G4",
          "ticks": 4561,
          "time": 53.03488372093023,
          "velocity": 0.3937007874015748
        },
        {
          "duration": 0.08139534883721211,
          "durationTicks": 7,
          "midi": 93,
          "name": "A6",
          "ticks": 4561,
          "time": 53.03488372093023,
          "velocity": 0.07874015748031496
        },
        {
          "duration": 0.06976744186047057,
          "durationTicks": 6,
          "midi": 78,
          "name": "F#5",
          "ticks": 4562,
          "time": 53.04651162790697,
          "velocity": 0.12598425196850394
        },
        {
          "duration": 0.046511627906973274,
          "durationTicks": 4,
          "midi": 89,
          "name": "F6",
          "ticks": 4563,
          "time": 53.05813953488372,
          "velocity": 0.11023622047244094
        },
        {
          "duration": 0.02325581395349019,
          "durationTicks": 2,
          "midi": 47,
          "name": "B2",
          "ticks": 4564,
          "time": 53.06976744186046,
          "velocity": 0.4409448818897638
        },
        {
          "duration": 0.03488372093023173,
          "durationTicks": 3,
          "midi": 69,
          "name": "A4",
          "ticks": 4564,
          "time": 53.06976744186046,
          "velocity": 0.14173228346456693
        },
        {
          "duration": 0.046511627906973274,
          "durationTicks": 4,
          "midi": 36,
          "name": "C2",
          "ticks": 4565,
          "time": 53.08139534883721,
          "velocity": 0.3937007874015748
        },
        {
          "duration": 0.23255813953488058,
          "durationTicks": 20,
          "midi": 60,
          "name": "C4",
          "ticks": 4565,
          "time": 53.08139534883721,
          "velocity": 0.2677165354330709
        },
        {
          "duration": 0.22093023255813904,
          "durationTicks": 19,
          "midi": 64,
          "name": "E4",
          "ticks": 4565,
          "time": 53.08139534883721,
          "velocity": 0.2125984251968504
        },
        {
          "duration": 0.023255813953483084,
          "durationTicks": 2,
          "midi": 68,
          "name": "G#4",
          "ticks": 4568,
          "time": 53.116279069767444,
          "velocity": 0.3464566929133858
        },
        {
          "duration": 0.02325581395349019,
          "durationTicks": 2,
          "midi": 37,
          "name": "C#2",
          "ticks": 4569,
          "time": 53.127906976744185,
          "velocity": 0.3779527559055118
        },
        {
          "duration": 0.02325581395349019,
          "durationTicks": 2,
          "midi": 47,
          "name": "B2",
          "ticks": 4569,
          "time": 53.127906976744185,
          "velocity": 0.3937007874015748
        },
        {
          "duration": 0.02325581395349019,
          "durationTicks": 2,
          "midi": 55,
          "name": "G3",
          "ticks": 4569,
          "time": 53.127906976744185,
          "velocity": 0.36220472440944884
        },
        {
          "duration": 0.13953488372093403,
          "durationTicks": 12,
          "midi": 89,
          "name": "F6",
          "ticks": 4569,
          "time": 53.127906976744185,
          "velocity": 0.14173228346456693
        },
        {
          "duration": 0.2093023255813975,
          "durationTicks": 18,
          "midi": 67,
          "name": "G4",
          "ticks": 4570,
          "time": 53.13953488372093,
          "velocity": 0.4015748031496063
        },
        {
          "duration": 0.02325581395349019,
          "durationTicks": 2,
          "midi": 34,
          "name": "A#1",
          "ticks": 4572,
          "time": 53.16279069767442,
          "velocity": 0.2283464566929134
        },
        {
          "duration": 0.1860465116279073,
          "durationTicks": 16,
          "midi": 48,
          "name": "C3",
          "ticks": 4573,
          "time": 53.174418604651166,
          "velocity": 0.3464566929133858
        },
        {
          "duration": 0.16279069767441712,
          "durationTicks": 14,
          "midi": 55,
          "name": "G3",
          "ticks": 4573,
          "time": 53.174418604651166,
          "velocity": 0.1889763779527559
        },
        {
          "duration": 0.17441860465116577,
          "durationTicks": 15,
          "midi": 36,
          "name": "C2",
          "ticks": 4574,
          "time": 53.18604651162791,
          "velocity": 0.30708661417322836
        },
        {
          "duration": 0.03488372093023173,
          "durationTicks": 3,
          "midi": 70,
          "name": "A#4",
          "ticks": 4575,
          "time": 53.19767441860465,
          "velocity": 0.07086614173228346
        },
        {
          "duration": 0.2325581395348877,
          "durationTicks": 20,
          "midi": 55,
          "name": "G3",
          "ticks": 4637,
          "time": 53.91860465116279,
          "velocity": 0.41732283464566927
        },
        {
          "duration": 0.22093023255813904,
          "durationTicks": 19,
          "midi": 79,
          "name": "G5",
          "ticks": 4638,
          "time": 53.93023255813954,
          "velocity": 0.2204724409448819
        },
        {
          "duration": 0.2093023255813904,
          "durationTicks": 18,
          "midi": 83,
          "name": "B5",
          "ticks": 4638,
          "time": 53.93023255813954,
          "velocity": 0.1732283464566929
        },
        {
          "duration": 0.1860465116279073,
          "durationTicks": 16,
          "midi": 93,
          "name": "A6",
          "ticks": 4638,
          "time": 53.93023255813954,
          "velocity": 0.11811023622047244
        },
        {
          "duration": 0.2325581395348877,
          "durationTicks": 20,
          "midi": 67,
          "name": "G4",
          "ticks": 4639,
          "time": 53.94186046511628,
          "velocity": 0.4330708661417323
        },
        {
          "duration": 0.09302325581394655,
          "durationTicks": 8,
          "midi": 89,
          "name": "F6",
          "ticks": 4640,
          "time": 53.95348837209303,
          "velocity": 0.10236220472440945
        },
        {
          "duration": 0.22093023255813904,
          "durationTicks": 19,
          "midi": 69,
          "name": "A4",
          "ticks": 4657,
          "time": 54.151162790697676,
          "velocity": 0.41732283464566927
        },
        {
          "duration": 0.03488372093023173,
          "durationTicks": 3,
          "midi": 74,
          "name": "D5",
          "ticks": 4657,
          "time": 54.151162790697676,
          "velocity": 0.11023622047244094
        },
        {
          "duration": 0.2093023255813975,
          "durationTicks": 18,
          "midi": 57,
          "name": "A3",
          "ticks": 4658,
          "time": 54.16279069767442,
          "velocity": 0.41732283464566927
        },
        {
          "duration": 0.15116279069767558,
          "durationTicks": 13,
          "midi": 85,
          "name": "C#6",
          "ticks": 4658,
          "time": 54.16279069767442,
          "velocity": 0.2047244094488189
        },
        {
          "duration": 0.03488372093023173,
          "durationTicks": 3,
          "midi": 90,
          "name": "F#6",
          "ticks": 4658,
          "time": 54.16279069767442,
          "velocity": 0.08661417322834646
        },
        {
          "duration": 0.08139534883721211,
          "durationTicks": 7,
          "midi": 91,
          "name": "G6",
          "ticks": 4658,
          "time": 54.16279069767442,
          "velocity": 0.12598425196850394
        },
        {
          "duration": 0.2093023255813904,
          "durationTicks": 18,
          "midi": 50,
          "name": "D3",
          "ticks": 4659,
          "time": 54.174418604651166,
          "velocity": 0.4645669291338583
        },
        {
          "duration": 0.32558139534883423,
          "durationTicks": 28,
          "midi": 66,
          "name": "F#4",
          "ticks": 4659,
          "time": 54.174418604651166,
          "velocity": 0.25196850393700787
        },
        {
          "duration": 0.19767441860464885,
          "durationTicks": 17,
          "midi": 72,
          "name": "C5",
          "ticks": 4659,
          "time": 54.174418604651166,
          "velocity": 0.10236220472440945
        },
        {
          "duration": 0.17441860465115866,
          "durationTicks": 15,
          "midi": 95,
          "name": "B6",
          "ticks": 4659,
          "time": 54.174418604651166,
          "velocity": 0.14173228346456693
        },
        {
          "duration": 0.02325581395349019,
          "durationTicks": 2,
          "midi": 39,
          "name": "D#2",
          "ticks": 4660,
          "time": 54.18604651162791,
          "velocity": 0.4566929133858268
        },
        {
          "duration": 0.1046511627906952,
          "durationTicks": 9,
          "midi": 38,
          "name": "D2",
          "ticks": 4662,
          "time": 54.2093023255814,
          "velocity": 0.4015748031496063
        },
        {
          "duration": 0.5232558139534902,
          "durationTicks": 45,
          "midi": 76,
          "name": "E5",
          "ticks": 4663,
          "time": 54.22093023255814,
          "velocity": 0.1968503937007874
        },
        {
          "duration": 0.03488372093023884,
          "durationTicks": 3,
          "midi": 80,
          "name": "G#5",
          "ticks": 4664,
          "time": 54.23255813953488,
          "velocity": 0.07086614173228346
        },
        {
          "duration": 0.02325581395349019,
          "durationTicks": 2,
          "midi": 37,
          "name": "C#2",
          "ticks": 4671,
          "time": 54.31395348837209,
          "velocity": 0.25196850393700787
        },
        {
          "duration": 0.02325581395349019,
          "durationTicks": 2,
          "midi": 38,
          "name": "D2",
          "ticks": 4673,
          "time": 54.33720930232558,
          "velocity": 0.2677165354330709
        },
        {
          "duration": 0.03488372093023173,
          "durationTicks": 3,
          "midi": 85,
          "name": "C#6",
          "ticks": 4676,
          "time": 54.372093023255815,
          "velocity": 0.11811023622047244
        },
        {
          "duration": 0.1046511627907023,
          "durationTicks": 9,
          "midi": 57,
          "name": "A3",
          "ticks": 4677,
          "time": 54.383720930232556,
          "velocity": 0.33070866141732286
        },
        {
          "duration": 0.2325581395348877,
          "durationTicks": 20,
          "midi": 62,
          "name": "D4",
          "ticks": 4677,
          "time": 54.383720930232556,
          "velocity": 0.31496062992125984
        },
        {
          "duration": 0.19767441860464885,
          "durationTicks": 17,
          "midi": 50,
          "name": "D3",
          "ticks": 4678,
          "time": 54.395348837209305,
          "velocity": 0.5118110236220472
        },
        {
          "duration": 0.2093023255813904,
          "durationTicks": 18,
          "midi": 72,
          "name": "C5",
          "ticks": 4678,
          "time": 54.395348837209305,
          "velocity": 0.15748031496062992
        },
        {
          "duration": 0.03488372093023173,
          "durationTicks": 3,
          "midi": 39,
          "name": "D#2",
          "ticks": 4679,
          "time": 54.406976744186046,
          "velocity": 0.4330708661417323
        },
        {
          "duration": 0.05813953488372192,
          "durationTicks": 5,
          "midi": 38,
          "name": "D2",
          "ticks": 4682,
          "time": 54.44186046511628,
          "velocity": 0.4409448818897638
        },
        {
          "duration": 0.11627906976743674,
          "durationTicks": 10,
          "midi": 69,
          "name": "A4",
          "ticks": 4686,
          "time": 54.48837209302326,
          "velocity": 0.18110236220472442
        },
        {
          "duration": 0.1046511627906952,
          "durationTicks": 9,
          "midi": 80,
          "name": "G#5",
          "ticks": 4686,
          "time": 54.48837209302326,
          "velocity": 0.16535433070866143
        },
        {
          "duration": 0.046511627906973274,
          "durationTicks": 4,
          "midi": 85,
          "name": "C#6",
          "ticks": 4686,
          "time": 54.48837209302326,
          "velocity": 0.12598425196850394
        },
        {
          "duration": 0.12790697674418539,
          "durationTicks": 11,
          "midi": 93,
          "name": "A6",
          "ticks": 4686,
          "time": 54.48837209302326,
          "velocity": 0.15748031496062992
        },
        {
          "duration": 0.02325581395349019,
          "durationTicks": 2,
          "midi": 40,
          "name": "E2",
          "ticks": 4687,
          "time": 54.5,
          "velocity": 0.4645669291338583
        },
        {
          "duration": 0.046511627906973274,
          "durationTicks": 4,
          "midi": 82,
          "name": "A#5",
          "ticks": 4687,
          "time": 54.5,
          "velocity": 0.08661417322834646
        },
        {
          "duration": 0.06976744186046346,
          "durationTicks": 6,
          "midi": 90,
          "name": "F#6",
          "ticks": 4687,
          "time": 54.5,
          "velocity": 0.10236220472440945
        },
        {
          "duration": 0.03488372093023173,
          "durationTicks": 3,
          "midi": 91,
          "name": "G6",
          "ticks": 4687,
          "time": 54.5,
          "velocity": 0.07874015748031496
        },
        {
          "duration": 0.03488372093023173,
          "durationTicks": 3,
          "midi": 39,
          "name": "D#2",
          "ticks": 4689,
          "time": 54.52325581395349,
          "velocity": 0.4094488188976378
        },
        {
          "duration": 0.06976744186047057,
          "durationTicks": 6,
          "midi": 66,
          "name": "F#4",
          "ticks": 4691,
          "time": 54.54651162790697,
          "velocity": 0.2047244094488189
        },
        {
          "duration": 0.023255813953483084,
          "durationTicks": 2,
          "midi": 38,
          "name": "D2",
          "ticks": 4694,
          "time": 54.58139534883721,
          "velocity": 0.33070866141732286
        },
        {
          "duration": 0.25581395348837077,
          "durationTicks": 22,
          "midi": 79,
          "name": "G5",
          "ticks": 4695,
          "time": 54.593023255813954,
          "velocity": 0.16535433070866143
        },
        {
          "duration": 0.30232558139535115,
          "durationTicks": 26,
          "midi": 85,
          "name": "C#6",
          "ticks": 4695,
          "time": 54.593023255813954,
          "velocity": 0.25984251968503935
        },
        {
          "duration": 0.1046511627907023,
          "durationTicks": 9,
          "midi": 73,
          "name": "C#5",
          "ticks": 4696,
          "time": 54.604651162790695,
          "velocity": 0.12598425196850394
        },
        {
          "duration": 0.03488372093023173,
          "durationTicks": 3,
          "midi": 77,
          "name": "F5",
          "ticks": 4696,
          "time": 54.604651162790695,
          "velocity": 0.15748031496062992
        },
        {
          "duration": 0.08139534883721211,
          "durationTicks": 7,
          "midi": 83,
          "name": "B5",
          "ticks": 4696,
          "time": 54.604651162790695,
          "velocity": 0.07874015748031496
        },
        {
          "duration": 0.2093023255813904,
          "durationTicks": 18,
          "midi": 45,
          "name": "A2",
          "ticks": 4697,
          "time": 54.616279069767444,
          "velocity": 0.5039370078740157
        },
        {
          "duration": 0.03488372093023173,
          "durationTicks": 3,
          "midi": 61,
          "name": "C#4",
          "ticks": 4697,
          "time": 54.616279069767444,
          "velocity": 0.2992125984251969
        },
        {
          "duration": 0.4418604651162781,
          "durationTicks": 38,
          "midi": 67,
          "name": "G4",
          "ticks": 4697,
          "time": 54.616279069767444,
          "velocity": 0.2283464566929134
        },
        {
          "duration": 0.023255813953483084,
          "durationTicks": 2,
          "midi": 74,
          "name": "D5",
          "ticks": 4697,
          "time": 54.616279069767444,
          "velocity": 0.23622047244094488
        },
        {
          "duration": 0.02325581395349019,
          "durationTicks": 2,
          "midi": 51,
          "name": "D#3",
          "ticks": 4699,
          "time": 54.63953488372093,
          "velocity": 0.3858267716535433
        },
        {
          "duration": 0.2093023255813975,
          "durationTicks": 18,
          "midi": 75,
          "name": "D#5",
          "ticks": 4699,
          "time": 54.63953488372093,
          "velocity": 0.2204724409448819
        },
        {
          "duration": 0.03488372093023173,
          "durationTicks": 3,
          "midi": 61,
          "name": "C#4",
          "ticks": 4701,
          "time": 54.66279069767442,
          "velocity": 0.25196850393700787
        },
        {
          "duration": 0.03488372093023173,
          "durationTicks": 3,
          "midi": 52,
          "name": "E3",
          "ticks": 4705,
          "time": 54.7093023255814,
          "velocity": 0.2283464566929134
        },
        {
          "duration": 0.11627906976744384,
          "durationTicks": 10,
          "midi": 61,
          "name": "C#4",
          "ticks": 4706,
          "time": 54.72093023255814,
          "velocity": 0.2204724409448819
        },
        {
          "duration": 0.058139534883714816,
          "durationTicks": 5,
          "midi": 52,
          "name": "E3",
          "ticks": 4710,
          "time": 54.76744186046512,
          "velocity": 0.2125984251968504
        },
        {
          "duration": 0.02325581395349019,
          "durationTicks": 2,
          "midi": 44,
          "name": "G#2",
          "ticks": 4715,
          "time": 54.825581395348834,
          "velocity": 0.44881889763779526
        },
        {
          "duration": 0.04651162790698038,
          "durationTicks": 4,
          "midi": 77,
          "name": "F5",
          "ticks": 4715,
          "time": 54.825581395348834,
          "velocity": 0.12598425196850394
        },
        {
          "duration": 0.23255813953488058,
          "durationTicks": 20,
          "midi": 55,
          "name": "G3",
          "ticks": 4716,
          "time": 54.83720930232558,
          "velocity": 0.3543307086614173
        },
        {
          "duration": 0.2093023255813904,
          "durationTicks": 18,
          "midi": 60,
          "name": "C4",
          "ticks": 4716,
          "time": 54.83720930232558,
          "velocity": 0.29133858267716534
        },
        {
          "duration": 0.22093023255813904,
          "durationTicks": 19,
          "midi": 64,
          "name": "E4",
          "ticks": 4716,
          "time": 54.83720930232558,
          "velocity": 0.1968503937007874
        },
        {
          "duration": 0.16279069767441712,
          "durationTicks": 14,
          "midi": 70,
          "name": "A#4",
          "ticks": 4716,
          "time": 54.83720930232558,
          "velocity": 0.14960629921259844
        },
        {
          "duration": 0.046511627906973274,
          "durationTicks": 4,
          "midi": 84,
          "name": "C6",
          "ticks": 4716,
          "time": 54.83720930232558,
          "velocity": 0.07874015748031496
        },
        {
          "duration": 0.05813953488372192,
          "durationTicks": 5,
          "midi": 95,
          "name": "B6",
          "ticks": 4716,
          "time": 54.83720930232558,
          "velocity": 0.07874015748031496
        },
        {
          "duration": 0.02325581395349019,
          "durationTicks": 2,
          "midi": 47,
          "name": "B2",
          "ticks": 4717,
          "time": 54.848837209302324,
          "velocity": 0.4881889763779528
        },
        {
          "duration": 0.04651162790698038,
          "durationTicks": 4,
          "midi": 74,
          "name": "D5",
          "ticks": 4717,
          "time": 54.848837209302324,
          "velocity": 0.14960629921259844
        },
        {
          "duration": 0.046511627906973274,
          "durationTicks": 4,
          "midi": 37,
          "name": "C#2",
          "ticks": 4718,
          "time": 54.86046511627907,
          "velocity": 0.4409448818897638
        },
        {
          "duration": 0.2093023255813975,
          "durationTicks": 18,
          "midi": 48,
          "name": "C3",
          "ticks": 4719,
          "time": 54.872093023255815,
          "velocity": 0.5039370078740157
        },
        {
          "duration": 0.13953488372092693,
          "durationTicks": 12,
          "midi": 78,
          "name": "F#5",
          "ticks": 4719,
          "time": 54.872093023255815,
          "velocity": 0.09448818897637795
        },
        {
          "duration": 0.03488372093023173,
          "durationTicks": 3,
          "midi": 83,
          "name": "B5",
          "ticks": 4720,
          "time": 54.883720930232556,
          "velocity": 0.07086614173228346
        },
        {
          "duration": 0.09302325581395365,
          "durationTicks": 8,
          "midi": 36,
          "name": "C2",
          "ticks": 4722,
          "time": 54.906976744186046,
          "velocity": 0.41732283464566927
        },
        {
          "duration": 0.09302325581395365,
          "durationTicks": 8,
          "midi": 74,
          "name": "D5",
          "ticks": 4722,
          "time": 54.906976744186046,
          "velocity": 0.10236220472440945
        },
        {
          "duration": 0.03488372093023173,
          "durationTicks": 3,
          "midi": 91,
          "name": "G6",
          "ticks": 4722,
          "time": 54.906976744186046,
          "velocity": 0.07874015748031496
        },
        {
          "duration": 0.02325581395349019,
          "durationTicks": 2,
          "midi": 35,
          "name": "B1",
          "ticks": 4730,
          "time": 55,
          "velocity": 0.25196850393700787
        },
        {
          "duration": 0.03488372093023173,
          "durationTicks": 3,
          "midi": 36,
          "name": "C2",
          "ticks": 4732,
          "time": 55.02325581395349,
          "velocity": 0.2677165354330709
        },
        {
          "duration": 0.046511627906973274,
          "durationTicks": 4,
          "midi": 70,
          "name": "A#4",
          "ticks": 4732,
          "time": 55.02325581395349,
          "velocity": 0.09448818897637795
        },
        {
          "duration": 0.03488372093023173,
          "durationTicks": 3,
          "midi": 79,
          "name": "G5",
          "ticks": 4735,
          "time": 55.05813953488372,
          "velocity": 0.11023622047244094
        },
        {
          "duration": 0.02325581395349019,
          "durationTicks": 2,
          "midi": 56,
          "name": "G#3",
          "ticks": 4736,
          "time": 55.06976744186046,
          "velocity": 0.3228346456692913
        },
        {
          "duration": 0.46511627906976827,
          "durationTicks": 40,
          "midi": 62,
          "name": "D4",
          "ticks": 4736,
          "time": 55.06976744186046,
          "velocity": 0.4094488188976378
        },
        {
          "duration": 0.48837209302325846,
          "durationTicks": 42,
          "midi": 66,
          "name": "F#4",
          "ticks": 4736,
          "time": 55.06976744186046,
          "velocity": 0.2755905511811024
        },
        {
          "duration": 0.48837209302325846,
          "durationTicks": 42,
          "midi": 69,
          "name": "A4",
          "ticks": 4736,
          "time": 55.06976744186046,
          "velocity": 0.2204724409448819
        },
        {
          "duration": 0.22093023255813904,
          "durationTicks": 19,
          "midi": 72,
          "name": "C5",
          "ticks": 4736,
          "time": 55.06976744186046,
          "velocity": 0.14960629921259844
        },
        {
          "duration": 0.09302325581395365,
          "durationTicks": 8,
          "midi": 93,
          "name": "A6",
          "ticks": 4736,
          "time": 55.06976744186046,
          "velocity": 0.12598425196850394
        },
        {
          "duration": 0.02325581395349019,
          "durationTicks": 2,
          "midi": 38,
          "name": "D2",
          "ticks": 4738,
          "time": 55.093023255813954,
          "velocity": 0.4566929133858268
        },
        {
          "duration": 0.43023255813953654,
          "durationTicks": 37,
          "midi": 50,
          "name": "D3",
          "ticks": 4738,
          "time": 55.093023255813954,
          "velocity": 0.4881889763779528
        },
        {
          "duration": 0.046511627906973274,
          "durationTicks": 4,
          "midi": 39,
          "name": "D#2",
          "ticks": 4740,
          "time": 55.116279069767444,
          "velocity": 0.4094488188976378
        },
        {
          "duration": 0.40697674418604635,
          "durationTicks": 35,
          "midi": 57,
          "name": "A3",
          "ticks": 4740,
          "time": 55.116279069767444,
          "velocity": 0.3779527559055118
        },
        {
          "duration": 0.1046511627906952,
          "durationTicks": 9,
          "midi": 80,
          "name": "G#5",
          "ticks": 4741,
          "time": 55.127906976744185,
          "velocity": 0.07086614173228346
        },
        {
          "duration": 0.03488372093023173,
          "durationTicks": 3,
          "midi": 38,
          "name": "D2",
          "ticks": 4744,
          "time": 55.16279069767442,
          "velocity": 0.3464566929133858
        },
        {
          "duration": 0.03488372093023173,
          "durationTicks": 3,
          "midi": 37,
          "name": "C#2",
          "ticks": 4747,
          "time": 55.19767441860465,
          "velocity": 0.2992125984251969
        },
        {
          "duration": 0.05813953488372192,
          "durationTicks": 5,
          "midi": 38,
          "name": "D2",
          "ticks": 4750,
          "time": 55.23255813953488,
          "velocity": 0.2677165354330709
        },
        {
          "duration": 0.19767441860465595,
          "durationTicks": 17,
          "midi": 80,
          "name": "G#5",
          "ticks": 4755,
          "time": 55.2906976744186,
          "velocity": 0.14960629921259844
        },
        {
          "duration": 0.023255813953483084,
          "durationTicks": 2,
          "midi": 40,
          "name": "E2",
          "ticks": 4756,
          "time": 55.30232558139535,
          "velocity": 0.44881889763779526
        },
        {
          "duration": 0.081395348837205,
          "durationTicks": 7,
          "midi": 90,
          "name": "F#6",
          "ticks": 4756,
          "time": 55.30232558139535,
          "velocity": 0.09448818897637795
        },
        {
          "duration": 0.24418604651162923,
          "durationTicks": 21,
          "midi": 72,
          "name": "C5",
          "ticks": 4757,
          "time": 55.31395348837209,
          "velocity": 0.1732283464566929
        },
        {
          "duration": 0.02325581395349019,
          "durationTicks": 2,
          "midi": 39,
          "name": "D#2",
          "ticks": 4758,
          "time": 55.325581395348834,
          "velocity": 0.4645669291338583
        },
        {
          "duration": 0.1046511627907023,
          "durationTicks": 9,
          "midi": 38,
          "name": "D2",
          "ticks": 4760,
          "time": 55.348837209302324,
          "velocity": 0.4409448818897638
        },
        {
          "duration": 0.15116279069766847,
          "durationTicks": 13,
          "midi": 76,
          "name": "E5",
          "ticks": 4761,
          "time": 55.36046511627907,
          "velocity": 0.07874015748031496
        },
        {
          "duration": 0.05813953488372192,
          "durationTicks": 5,
          "midi": 38,
          "name": "D2",
          "ticks": 4770,
          "time": 55.46511627906977,
          "velocity": 0.29133858267716534
        },
        {
          "duration": 0.4534883720930196,
          "durationTicks": 39,
          "midi": 74,
          "name": "D5",
          "ticks": 4775,
          "time": 55.52325581395349,
          "velocity": 0.5196850393700787
        },
        {
          "duration": 0.03488372093023173,
          "durationTicks": 3,
          "midi": 77,
          "name": "F5",
          "ticks": 4775,
          "time": 55.52325581395349,
          "velocity": 0.13385826771653545
        },
        {
          "duration": 0.25581395348837077,
          "durationTicks": 22,
          "midi": 81,
          "name": "A5",
          "ticks": 4775,
          "time": 55.52325581395349,
          "velocity": 0.2440944881889764
        },
        {
          "duration": 0.27906976744186096,
          "durationTicks": 24,
          "midi": 85,
          "name": "C#6",
          "ticks": 4775,
          "time": 55.52325581395349,
          "velocity": 0.2283464566929134
        },
        {
          "duration": 0.011627906976741542,
          "durationTicks": 1,
          "midi": 61,
          "name": "C#4",
          "ticks": 4776,
          "time": 55.53488372093023,
          "velocity": 0.5118110236220472
        },
        {
          "duration": 0.2325581395348877,
          "durationTicks": 20,
          "midi": 79,
          "name": "G5",
          "ticks": 4776,
          "time": 55.53488372093023,
          "velocity": 0.16535433070866143
        },
        {
          "duration": 0.2906976744186025,
          "durationTicks": 25,
          "midi": 90,
          "name": "F#6",
          "ticks": 4776,
          "time": 55.53488372093023,
          "velocity": 0.13385826771653545
        },
        {
          "duration": 0.08139534883721211,
          "durationTicks": 7,
          "midi": 96,
          "name": "C7",
          "ticks": 4776,
          "time": 55.53488372093023,
          "velocity": 0.1732283464566929
        },
        {
          "duration": 0.02325581395349019,
          "durationTicks": 2,
          "midi": 45,
          "name": "A2",
          "ticks": 4777,
          "time": 55.54651162790697,
          "velocity": 0.5039370078740157
        },
        {
          "duration": 0.22093023255814614,
          "durationTicks": 19,
          "midi": 62,
          "name": "D4",
          "ticks": 4777,
          "time": 55.54651162790697,
          "velocity": 0.5118110236220472
        },
        {
          "duration": 0.06976744186047057,
          "durationTicks": 6,
          "midi": 83,
          "name": "B5",
          "ticks": 4777,
          "time": 55.54651162790697,
          "velocity": 0.08661417322834646
        },
        {
          "duration": 0.1860465116279073,
          "durationTicks": 16,
          "midi": 67,
          "name": "G4",
          "ticks": 4778,
          "time": 55.55813953488372,
          "velocity": 0.2047244094488189
        },
        {
          "duration": 0.03488372093023173,
          "durationTicks": 3,
          "midi": 52,
          "name": "E3",
          "ticks": 4779,
          "time": 55.56976744186046,
          "velocity": 0.29133858267716534
        },
        {
          "duration": 0.1860465116279073,
          "durationTicks": 16,
          "midi": 45,
          "name": "A2",
          "ticks": 4780,
          "time": 55.58139534883721,
          "velocity": 0.5196850393700787
        },
        {
          "duration": 0.12790697674418539,
          "durationTicks": 11,
          "midi": 52,
          "name": "E3",
          "ticks": 4783,
          "time": 55.616279069767444,
          "velocity": 0.2755905511811024
        },
        {
          "duration": 0.03488372093023173,
          "durationTicks": 3,
          "midi": 78,
          "name": "F#5",
          "ticks": 4794,
          "time": 55.74418604651163,
          "velocity": 0.11811023622047244
        },
        {
          "duration": 0.06976744186046346,
          "durationTicks": 6,
          "midi": 83,
          "name": "B5",
          "ticks": 4794,
          "time": 55.74418604651163,
          "velocity": 0.10236220472440945
        },
        {
          "duration": 0.22093023255813904,
          "durationTicks": 19,
          "midi": 55,
          "name": "G3",
          "ticks": 4795,
          "time": 55.75581395348837,
          "velocity": 0.33070866141732286
        },
        {
          "duration": 0.2093023255813975,
          "durationTicks": 18,
          "midi": 70,
          "name": "A#4",
          "ticks": 4795,
          "time": 55.75581395348837,
          "velocity": 0.14173228346456693
        },
        {
          "duration": 0.046511627906973274,
          "durationTicks": 4,
          "midi": 37,
          "name": "C#2",
          "ticks": 4797,
          "time": 55.77906976744186,
          "velocity": 0.4409448818897638
        },
        {
          "duration": 0.12790697674418539,
          "durationTicks": 11,
          "midi": 78,
          "name": "F#5",
          "ticks": 4798,
          "time": 55.7906976744186,
          "velocity": 0.08661417322834646
        },
        {
          "duration": 0.05813953488372192,
          "durationTicks": 5,
          "midi": 62,
          "name": "D4",
          "ticks": 4800,
          "time": 55.81395348837209,
          "velocity": 0.30708661417322836
        },
        {
          "duration": 0.09302325581395365,
          "durationTicks": 8,
          "midi": 36,
          "name": "C2",
          "ticks": 4801,
          "time": 55.825581395348834,
          "velocity": 0.41732283464566927
        },
        {
          "duration": 0.17441860465116577,
          "durationTicks": 15,
          "midi": 48,
          "name": "C3",
          "ticks": 4801,
          "time": 55.825581395348834,
          "velocity": 0.5118110236220472
        },
        {
          "duration": 0.04651162790698038,
          "durationTicks": 4,
          "midi": 62,
          "name": "D4",
          "ticks": 4806,
          "time": 55.883720930232556,
          "velocity": 0.25196850393700787
        },
        {
          "duration": 0.02325581395349019,
          "durationTicks": 2,
          "midi": 35,
          "name": "B1",
          "ticks": 4809,
          "time": 55.91860465116279,
          "velocity": 0.25196850393700787
        },
        {
          "duration": 0.03488372093023173,
          "durationTicks": 3,
          "midi": 36,
          "name": "C2",
          "ticks": 4811,
          "time": 55.94186046511628,
          "velocity": 0.2677165354330709
        },
        {
          "duration": 0.046511627906973274,
          "durationTicks": 4,
          "midi": 69,
          "name": "A4",
          "ticks": 4813,
          "time": 55.96511627906977,
          "velocity": 0.23622047244094488
        },
        {
          "duration": 0.4534883720930267,
          "durationTicks": 39,
          "midi": 72,
          "name": "C5",
          "ticks": 4814,
          "time": 55.97674418604651,
          "velocity": 0.5275590551181102
        },
        {
          "duration": 0.25581395348837077,
          "durationTicks": 22,
          "midi": 88,
          "name": "E6",
          "ticks": 4814,
          "time": 55.97674418604651,
          "velocity": 0.16535433070866143
        },
        {
          "duration": 0.3488372093023244,
          "durationTicks": 30,
          "midi": 66,
          "name": "F#4",
          "ticks": 4815,
          "time": 55.98837209302326,
          "velocity": 0.2677165354330709
        },
        {
          "duration": 0.23255813953488058,
          "durationTicks": 20,
          "midi": 79,
          "name": "G5",
          "ticks": 4815,
          "time": 55.98837209302326,
          "velocity": 0.2677165354330709
        },
        {
          "duration": 0.03488372093023173,
          "durationTicks": 3,
          "midi": 90,
          "name": "F#6",
          "ticks": 4815,
          "time": 55.98837209302326,
          "velocity": 0.12598425196850394
        },
        {
          "duration": 0.081395348837205,
          "durationTicks": 7,
          "midi": 94,
          "name": "A#6",
          "ticks": 4815,
          "time": 55.98837209302326,
          "velocity": 0.08661417322834646
        },
        {
          "duration": 0.32558139534884134,
          "durationTicks": 28,
          "midi": 50,
          "name": "D3",
          "ticks": 4817,
          "time": 56.01162790697674,
          "velocity": 0.49606299212598426
        },
        {
          "duration": 0.05813953488372192,
          "durationTicks": 5,
          "midi": 93,
          "name": "A6",
          "ticks": 4817,
          "time": 56.01162790697674,
          "velocity": 0.11811023622047244
        },
        {
          "duration": 0.30232558139534405,
          "durationTicks": 26,
          "midi": 69,
          "name": "A4",
          "ticks": 4818,
          "time": 56.02325581395349,
          "velocity": 0.2204724409448819
        },
        {
          "duration": 0.04651162790698038,
          "durationTicks": 4,
          "midi": 39,
          "name": "D#2",
          "ticks": 4819,
          "time": 56.03488372093023,
          "velocity": 0.4094488188976378
        },
        {
          "duration": 0.09302325581395365,
          "durationTicks": 8,
          "midi": 76,
          "name": "E5",
          "ticks": 4819,
          "time": 56.03488372093023,
          "velocity": 0.09448818897637795
        },
        {
          "duration": 0.03488372093023173,
          "durationTicks": 3,
          "midi": 38,
          "name": "D2",
          "ticks": 4823,
          "time": 56.08139534883721,
          "velocity": 0.3543307086614173
        },
        {
          "duration": 0.046511627906973274,
          "durationTicks": 4,
          "midi": 37,
          "name": "C#2",
          "ticks": 4826,
          "time": 56.116279069767444,
          "velocity": 0.2992125984251969
        },
        {
          "duration": 0.04651162790698038,
          "durationTicks": 4,
          "midi": 38,
          "name": "D2",
          "ticks": 4830,
          "time": 56.16279069767442,
          "velocity": 0.2677165354330709
        },
        {
          "duration": 0.11627906976743674,
          "durationTicks": 10,
          "midi": 57,
          "name": "A3",
          "ticks": 4834,
          "time": 56.2093023255814,
          "velocity": 0.3779527559055118
        },
        {
          "duration": 0.02325581395349019,
          "durationTicks": 2,
          "midi": 40,
          "name": "E2",
          "ticks": 4835,
          "time": 56.22093023255814,
          "velocity": 0.44881889763779526
        },
        {
          "duration": 0.03488372093023173,
          "durationTicks": 3,
          "midi": 80,
          "name": "G#5",
          "ticks": 4835,
          "time": 56.22093023255814,
          "velocity": 0.14960629921259844
        },
        {
          "duration": 0.08139534883721211,
          "durationTicks": 7,
          "midi": 90,
          "name": "F#6",
          "ticks": 4835,
          "time": 56.22093023255814,
          "velocity": 0.09448818897637795
        },
        {
          "duration": 0.19767441860464885,
          "durationTicks": 17,
          "midi": 93,
          "name": "A6",
          "ticks": 4835,
          "time": 56.22093023255814,
          "velocity": 0.1732283464566929
        },
        {
          "duration": 0.02325581395349019,
          "durationTicks": 2,
          "midi": 39,
          "name": "D#2",
          "ticks": 4837,
          "time": 56.24418604651163,
          "velocity": 0.4645669291338583
        },
        {
          "duration": 0.06976744186046346,
          "durationTicks": 6,
          "midi": 38,
          "name": "D2",
          "ticks": 4839,
          "time": 56.26744186046512,
          "velocity": 0.4409448818897638
        },
        {
          "duration": 0.03488372093023173,
          "durationTicks": 3,
          "midi": 80,
          "name": "G#5",
          "ticks": 4839,
          "time": 56.26744186046512,
          "velocity": 0.11811023622047244
        },
        {
          "duration": 0.02325581395349019,
          "durationTicks": 2,
          "midi": 54,
          "name": "F#3",
          "ticks": 4845,
          "time": 56.33720930232558,
          "velocity": 0.4094488188976378
        },
        {
          "duration": 0.24418604651162923,
          "durationTicks": 21,
          "midi": 79,
          "name": "G5",
          "ticks": 4845,
          "time": 56.33720930232558,
          "velocity": 0.2677165354330709
        },
        {
          "duration": 0.13953488372092693,
          "durationTicks": 12,
          "midi": 83,
          "name": "B5",
          "ticks": 4845,
          "time": 56.33720930232558,
          "velocity": 0.2047244094488189
        },
        {
          "duration": 0.08139534883721211,
          "durationTicks": 7,
          "midi": 38,
          "name": "D2",
          "ticks": 4846,
          "time": 56.348837209302324,
          "velocity": 0.33070866141732286
        },
        {
          "duration": 0.08139534883721211,
          "durationTicks": 7,
          "midi": 62,
          "name": "D4",
          "ticks": 4846,
          "time": 56.348837209302324,
          "velocity": 0.18110236220472442
        },
        {
          "duration": 0.16279069767441712,
          "durationTicks": 14,
          "midi": 67,
          "name": "G4",
          "ticks": 4846,
          "time": 56.348837209302324,
          "velocity": 0.4409448818897638
        },
        {
          "duration": 0.05813953488372192,
          "durationTicks": 5,
          "midi": 86,
          "name": "D6",
          "ticks": 4846,
          "time": 56.348837209302324,
          "velocity": 0.07874015748031496
        },
        {
          "duration": 0.06976744186046346,
          "durationTicks": 6,
          "midi": 50,
          "name": "D3",
          "ticks": 4847,
          "time": 56.36046511627907,
          "velocity": 0.3543307086614173
        },
        {
          "duration": 0.023255813953483084,
          "durationTicks": 2,
          "midi": 56,
          "name": "G#3",
          "ticks": 4847,
          "time": 56.36046511627907,
          "velocity": 0.3700787401574803
        },
        {
          "duration": 0.081395348837205,
          "durationTicks": 7,
          "midi": 89,
          "name": "F6",
          "ticks": 4847,
          "time": 56.36046511627907,
          "velocity": 0.11023622047244094
        },
        {
          "duration": 0.03488372093023173,
          "durationTicks": 3,
          "midi": 55,
          "name": "G3",
          "ticks": 4850,
          "time": 56.395348837209305,
          "velocity": 0.31496062992125984
        },
        {
          "duration": 0.17441860465115866,
          "durationTicks": 15,
          "midi": 76,
          "name": "E5",
          "ticks": 4853,
          "time": 56.43023255813954,
          "velocity": 0.12598425196850394
        },
        {
          "duration": 0.5,
          "durationTicks": 43,
          "midi": 85,
          "name": "C#6",
          "ticks": 4853,
          "time": 56.43023255813954,
          "velocity": 0.2283464566929134
        },
        {
          "duration": 0.2325581395348877,
          "durationTicks": 20,
          "midi": 45,
          "name": "A2",
          "ticks": 4854,
          "time": 56.44186046511628,
          "velocity": 0.49606299212598426
        },
        {
          "duration": 0.04651162790698038,
          "durationTicks": 4,
          "midi": 75,
          "name": "D#5",
          "ticks": 4854,
          "time": 56.44186046511628,
          "velocity": 0.23622047244094488
        },
        {
          "duration": 0.03488372093023173,
          "durationTicks": 3,
          "midi": 77,
          "name": "F5",
          "ticks": 4854,
          "time": 56.44186046511628,
          "velocity": 0.14960629921259844
        },
        {
          "duration": 0.04651162790698038,
          "durationTicks": 4,
          "midi": 84,
          "name": "C6",
          "ticks": 4854,
          "time": 56.44186046511628,
          "velocity": 0.11023622047244094
        },
        {
          "duration": 0.03488372093023173,
          "durationTicks": 3,
          "midi": 61,
          "name": "C#4",
          "ticks": 4855,
          "time": 56.45348837209303,
          "velocity": 0.28346456692913385
        },
        {
          "duration": 0.023255813953483084,
          "durationTicks": 2,
          "midi": 74,
          "name": "D5",
          "ticks": 4858,
          "time": 56.48837209302326,
          "velocity": 0.23622047244094488
        },
        {
          "duration": 0.03488372093023173,
          "durationTicks": 3,
          "midi": 83,
          "name": "B5",
          "ticks": 4858,
          "time": 56.48837209302326,
          "velocity": 0.1732283464566929
        },
        {
          "duration": 0.03488372093023173,
          "durationTicks": 3,
          "midi": 61,
          "name": "C#4",
          "ticks": 4859,
          "time": 56.5,
          "velocity": 0.2283464566929134
        },
        {
          "duration": 0.03488372093023173,
          "durationTicks": 3,
          "midi": 75,
          "name": "D#5",
          "ticks": 4860,
          "time": 56.51162790697674,
          "velocity": 0.1968503937007874
        },
        {
          "duration": 0.1046511627906952,
          "durationTicks": 9,
          "midi": 67,
          "name": "G4",
          "ticks": 4862,
          "time": 56.53488372093023,
          "velocity": 0.2440944881889764
        },
        {
          "duration": 0.1279069767441925,
          "durationTicks": 11,
          "midi": 61,
          "name": "C#4",
          "ticks": 4863,
          "time": 56.54651162790697,
          "velocity": 0.1732283464566929
        },
        {
          "duration": 0.03488372093023884,
          "durationTicks": 3,
          "midi": 83,
          "name": "B5",
          "ticks": 4863,
          "time": 56.54651162790697,
          "velocity": 0.09448818897637795
        },
        {
          "duration": 0.03488372093023173,
          "durationTicks": 3,
          "midi": 75,
          "name": "D#5",
          "ticks": 4865,
          "time": 56.56976744186046,
          "velocity": 0.16535433070866143
        },
        {
          "duration": 0.023255813953483084,
          "durationTicks": 2,
          "midi": 52,
          "name": "E3",
          "ticks": 4866,
          "time": 56.58139534883721,
          "velocity": 0.25196850393700787
        },
        {
          "duration": 0.06976744186046346,
          "durationTicks": 6,
          "midi": 75,
          "name": "D#5",
          "ticks": 4870,
          "time": 56.627906976744185,
          "velocity": 0.2047244094488189
        },
        {
          "duration": 0.23255813953488058,
          "durationTicks": 20,
          "midi": 64,
          "name": "E4",
          "ticks": 4874,
          "time": 56.674418604651166,
          "velocity": 0.2204724409448819
        },
        {
          "duration": 0.046511627906973274,
          "durationTicks": 4,
          "midi": 83,
          "name": "B5",
          "ticks": 4874,
          "time": 56.674418604651166,
          "velocity": 0.11023622047244094
        },
        {
          "duration": 0.15116279069766847,
          "durationTicks": 13,
          "midi": 88,
          "name": "E6",
          "ticks": 4874,
          "time": 56.674418604651166,
          "velocity": 0.1732283464566929
        },
        {
          "duration": 0.03488372093023173,
          "durationTicks": 3,
          "midi": 48,
          "name": "C3",
          "ticks": 4875,
          "time": 56.68604651162791,
          "velocity": 0.4566929133858268
        },
        {
          "duration": 0.2093023255813975,
          "durationTicks": 18,
          "midi": 69,
          "name": "A4",
          "ticks": 4875,
          "time": 56.68604651162791,
          "velocity": 0.4645669291338583
        },
        {
          "duration": 0.06976744186046346,
          "durationTicks": 6,
          "midi": 91,
          "name": "G6",
          "ticks": 4875,
          "time": 56.68604651162791,
          "velocity": 0.1889763779527559
        },
        {
          "duration": 0.17441860465116577,
          "durationTicks": 15,
          "midi": 95,
          "name": "B6",
          "ticks": 4875,
          "time": 56.68604651162791,
          "velocity": 0.14960629921259844
        },
        {
          "duration": 0.02325581395349019,
          "durationTicks": 2,
          "midi": 56,
          "name": "G#3",
          "ticks": 4876,
          "time": 56.69767441860465,
          "velocity": 0.3858267716535433
        },
        {
          "duration": 0.03488372093023173,
          "durationTicks": 3,
          "midi": 74,
          "name": "D5",
          "ticks": 4876,
          "time": 56.69767441860465,
          "velocity": 0.1889763779527559
        },
        {
          "duration": 0.02325581395349019,
          "durationTicks": 2,
          "midi": 55,
          "name": "G3",
          "ticks": 4878,
          "time": 56.72093023255814,
          "velocity": 0.33070866141732286
        },
        {
          "duration": 0.03488372093023884,
          "durationTicks": 3,
          "midi": 37,
          "name": "C#2",
          "ticks": 4879,
          "time": 56.73255813953488,
          "velocity": 0.4409448818897638
        },
        {
          "duration": 0.03488372093023884,
          "durationTicks": 3,
          "midi": 48,
          "name": "C3",
          "ticks": 4879,
          "time": 56.73255813953488,
          "velocity": 0.4094488188976378
        },
        {
          "duration": 0.09302325581395365,
          "durationTicks": 8,
          "midi": 74,
          "name": "D5",
          "ticks": 4881,
          "time": 56.75581395348837,
          "velocity": 0.09448818897637795
        },
        {
          "duration": 0.081395348837205,
          "durationTicks": 7,
          "midi": 36,
          "name": "C2",
          "ticks": 4882,
          "time": 56.76744186046512,
          "velocity": 0.3937007874015748
        },
        {
          "duration": 0.046511627906973274,
          "durationTicks": 4,
          "midi": 91,
          "name": "G6",
          "ticks": 4882,
          "time": 56.76744186046512,
          "velocity": 0.12598425196850394
        },
        {
          "duration": 0.02325581395349019,
          "durationTicks": 2,
          "midi": 55,
          "name": "G3",
          "ticks": 4884,
          "time": 56.7906976744186,
          "velocity": 0.29133858267716534
        },
        {
          "duration": 0.02325581395349019,
          "durationTicks": 2,
          "midi": 56,
          "name": "G#3",
          "ticks": 4887,
          "time": 56.825581395348834,
          "velocity": 0.30708661417322836
        },
        {
          "duration": 0.03488372093023173,
          "durationTicks": 3,
          "midi": 35,
          "name": "B1",
          "ticks": 4889,
          "time": 56.848837209302324,
          "velocity": 0.25984251968503935
        },
        {
          "duration": 0.03488372093023173,
          "durationTicks": 3,
          "midi": 56,
          "name": "G#3",
          "ticks": 4890,
          "time": 56.86046511627907,
          "velocity": 0.28346456692913385
        },
        {
          "duration": 0.4534883720930267,
          "durationTicks": 39,
          "midi": 57,
          "name": "A3",
          "ticks": 4894,
          "time": 56.906976744186046,
          "velocity": 0.4251968503937008
        },
        {
          "duration": 0.22093023255813904,
          "durationTicks": 19,
          "midi": 72,
          "name": "C5",
          "ticks": 4894,
          "time": 56.906976744186046,
          "velocity": 0.15748031496062992
        },
        {
          "duration": 0.04651162790698038,
          "durationTicks": 4,
          "midi": 80,
          "name": "G#5",
          "ticks": 4894,
          "time": 56.906976744186046,
          "velocity": 0.10236220472440945
        },
        {
          "duration": 0.03488372093023173,
          "durationTicks": 3,
          "midi": 91,
          "name": "G6",
          "ticks": 4894,
          "time": 56.906976744186046,
          "velocity": 0.09448818897637795
        },
        {
          "duration": 0.43023255813953654,
          "durationTicks": 37,
          "midi": 50,
          "name": "D3",
          "ticks": 4895,
          "time": 56.91860465116279,
          "velocity": 0.4881889763779528
        },
        {
          "duration": 0.05813953488372192,
          "durationTicks": 5,
          "midi": 38,
          "name": "D2",
          "ticks": 4896,
          "time": 56.93023255813954,
          "velocity": 0.44881889763779526
        },
        {
          "duration": 0.43023255813953654,
          "durationTicks": 37,
          "midi": 66,
          "name": "F#4",
          "ticks": 4896,
          "time": 56.93023255813954,
          "velocity": 0.2677165354330709
        },
        {
          "duration": 0.11627906976744384,
          "durationTicks": 10,
          "midi": 80,
          "name": "G#5",
          "ticks": 4899,
          "time": 56.96511627906977,
          "velocity": 0.07086614173228346
        },
        {
          "duration": 0.046511627906973274,
          "durationTicks": 4,
          "midi": 38,
          "name": "D2",
          "ticks": 4902,
          "time": 57,
          "velocity": 0.30708661417322836
        },
        {
          "duration": 0.03488372093023884,
          "durationTicks": 3,
          "midi": 37,
          "name": "C#2",
          "ticks": 4906,
          "time": 57.04651162790697,
          "velocity": 0.2755905511811024
        },
        {
          "duration": 0.046511627906973274,
          "durationTicks": 4,
          "midi": 38,
          "name": "D2",
          "ticks": 4909,
          "time": 57.08139534883721,
          "velocity": 0.2677165354330709
        },
        {
          "duration": 0.19767441860464885,
          "durationTicks": 17,
          "midi": 80,
          "name": "G#5",
          "ticks": 4913,
          "time": 57.127906976744185,
          "velocity": 0.14960629921259844
        },
        {
          "duration": 0.02325581395349019,
          "durationTicks": 2,
          "midi": 40,
          "name": "E2",
          "ticks": 4914,
          "time": 57.13953488372093,
          "velocity": 0.4409448818897638
        },
        {
          "duration": 0.08139534883721211,
          "durationTicks": 7,
          "midi": 90,
          "name": "F#6",
          "ticks": 4914,
          "time": 57.13953488372093,
          "velocity": 0.09448818897637795
        },
        {
          "duration": 0.2093023255813975,
          "durationTicks": 18,
          "midi": 72,
          "name": "C5",
          "ticks": 4915,
          "time": 57.151162790697676,
          "velocity": 0.13385826771653545
        },
        {
          "duration": 0.02325581395349019,
          "durationTicks": 2,
          "midi": 39,
          "name": "D#2",
          "ticks": 4916,
          "time": 57.16279069767442,
          "velocity": 0.4645669291338583
        },
        {
          "duration": 0.1046511627906952,
          "durationTicks": 9,
          "midi": 38,
          "name": "D2",
          "ticks": 4918,
          "time": 57.18604651162791,
          "velocity": 0.4409448818897638
        },
        {
          "duration": 0.046511627906973274,
          "durationTicks": 4,
          "midi": 38,
          "name": "D2",
          "ticks": 4928,
          "time": 57.30232558139535,
          "velocity": 0.28346456692913385
        },
        {
          "duration": 0.15116279069767558,
          "durationTicks": 13,
          "midi": 74,
          "name": "D5",
          "ticks": 4932,
          "time": 57.348837209302324,
          "velocity": 0.3228346456692913
        },
        {
          "duration": 0.16279069767441712,
          "durationTicks": 14,
          "midi": 83,
          "name": "B5",
          "ticks": 4932,
          "time": 57.348837209302324,
          "velocity": 0.23622047244094488
        },
        {
          "duration": 0.023255813953483084,
          "durationTicks": 2,
          "midi": 44,
          "name": "G#2",
          "ticks": 4933,
          "time": 57.36046511627907,
          "velocity": 0.47244094488188976
        },
        {
          "duration": 0.12790697674418539,
          "durationTicks": 11,
          "midi": 67,
          "name": "G4",
          "ticks": 4933,
          "time": 57.36046511627907,
          "velocity": 0.2440944881889764
        },
        {
          "duration": 0.13953488372092693,
          "durationTicks": 12,
          "midi": 71,
          "name": "B4",
          "ticks": 4933,
          "time": 57.36046511627907,
          "velocity": 0.14960629921259844
        },
        {
          "duration": 0.12790697674418539,
          "durationTicks": 11,
          "midi": 77,
          "name": "F5",
          "ticks": 4933,
          "time": 57.36046511627907,
          "velocity": 0.2047244094488189
        },
        {
          "duration": 0.11627906976743674,
          "durationTicks": 10,
          "midi": 81,
          "name": "A5",
          "ticks": 4933,
          "time": 57.36046511627907,
          "velocity": 0.13385826771653545
        },
        {
          "duration": 0.06976744186046346,
          "durationTicks": 6,
          "midi": 90,
          "name": "F#6",
          "ticks": 4933,
          "time": 57.36046511627907,
          "velocity": 0.12598425196850394
        },
        {
          "duration": 0.02325581395349019,
          "durationTicks": 2,
          "midi": 54,
          "name": "F#3",
          "ticks": 4934,
          "time": 57.372093023255815,
          "velocity": 0.41732283464566927
        },
        {
          "duration": 0.15116279069767558,
          "durationTicks": 13,
          "midi": 85,
          "name": "C#6",
          "ticks": 4934,
          "time": 57.372093023255815,
          "velocity": 0.2125984251968504
        },
        {
          "duration": 0.04651162790698038,
          "durationTicks": 4,
          "midi": 43,
          "name": "G2",
          "ticks": 4935,
          "time": 57.383720930232556,
          "velocity": 0.44881889763779526
        },
        {
          "duration": 0.04651162790698038,
          "durationTicks": 4,
          "midi": 98,
          "name": "D7",
          "ticks": 4935,
          "time": 57.383720930232556,
          "velocity": 0.09448818897637795
        },
        {
          "duration": 0.03488372093023173,
          "durationTicks": 3,
          "midi": 43,
          "name": "G2",
          "ticks": 4940,
          "time": 57.44186046511628,
          "velocity": 0.3779527559055118
        },
        {
          "duration": 0.03488372093023173,
          "durationTicks": 3,
          "midi": 90,
          "name": "F#6",
          "ticks": 4943,
          "time": 57.47674418604651,
          "velocity": 0.09448818897637795
        },
        {
          "duration": 0.1046511627906952,
          "durationTicks": 9,
          "midi": 66,
          "name": "F#4",
          "ticks": 4944,
          "time": 57.48837209302326,
          "velocity": 0.1889763779527559
        },
        {
          "duration": 0.13953488372092693,
          "durationTicks": 12,
          "midi": 73,
          "name": "C#5",
          "ticks": 4944,
          "time": 57.48837209302326,
          "velocity": 0.33070866141732286
        },
        {
          "duration": 0.09302325581395365,
          "durationTicks": 8,
          "midi": 76,
          "name": "E5",
          "ticks": 4944,
          "time": 57.48837209302326,
          "velocity": 0.18110236220472442
        },
        {
          "duration": 0.081395348837205,
          "durationTicks": 7,
          "midi": 80,
          "name": "G#5",
          "ticks": 4944,
          "time": 57.48837209302326,
          "velocity": 0.12598425196850394
        },
        {
          "duration": 0.13953488372092693,
          "durationTicks": 12,
          "midi": 82,
          "name": "A#5",
          "ticks": 4944,
          "time": 57.48837209302326,
          "velocity": 0.2204724409448819
        },
        {
          "duration": 0.16279069767441712,
          "durationTicks": 14,
          "midi": 88,
          "name": "E6",
          "ticks": 4944,
          "time": 57.48837209302326,
          "velocity": 0.18110236220472442
        },
        {
          "duration": 0.02325581395349019,
          "durationTicks": 2,
          "midi": 41,
          "name": "F2",
          "ticks": 4945,
          "time": 57.5,
          "velocity": 0.44881889763779526
        },
        {
          "duration": 0.08139534883721211,
          "durationTicks": 7,
          "midi": 61,
          "name": "C#4",
          "ticks": 4945,
          "time": 57.5,
          "velocity": 0.29133858267716534
        },
        {
          "duration": 0.09302325581395365,
          "durationTicks": 8,
          "midi": 92,
          "name": "G#6",
          "ticks": 4945,
          "time": 57.5,
          "velocity": 0.12598425196850394
        },
        {
          "duration": 0.09302325581395365,
          "durationTicks": 8,
          "midi": 84,
          "name": "C6",
          "ticks": 4946,
          "time": 57.51162790697674,
          "velocity": 0.2047244094488189
        },
        {
          "duration": 0.05813953488372192,
          "durationTicks": 5,
          "midi": 70,
          "name": "A#4",
          "ticks": 4947,
          "time": 57.52325581395349,
          "velocity": 0.11023622047244094
        },
        {
          "duration": 0.04651162790698038,
          "durationTicks": 4,
          "midi": 54,
          "name": "F#3",
          "ticks": 4948,
          "time": 57.53488372093023,
          "velocity": 0.4015748031496063
        },
        {
          "duration": 0.04651162790698038,
          "durationTicks": 4,
          "midi": 42,
          "name": "F#2",
          "ticks": 4949,
          "time": 57.54651162790697,
          "velocity": 0.4566929133858268
        },
        {
          "duration": 0.023255813953483084,
          "durationTicks": 2,
          "midi": 50,
          "name": "D3",
          "ticks": 4952,
          "time": 57.58139534883721,
          "velocity": 0.4251968503937008
        },
        {
          "duration": 0.09302325581395365,
          "durationTicks": 8,
          "midi": 59,
          "name": "B3",
          "ticks": 4953,
          "time": 57.593023255813954,
          "velocity": 0.3228346456692913
        },
        {
          "duration": 0.1046511627906952,
          "durationTicks": 9,
          "midi": 64,
          "name": "E4",
          "ticks": 4953,
          "time": 57.593023255813954,
          "velocity": 0.2677165354330709
        },
        {
          "duration": 0.1860465116279073,
          "durationTicks": 16,
          "midi": 79,
          "name": "G5",
          "ticks": 4953,
          "time": 57.593023255813954,
          "velocity": 0.2283464566929134
        },
        {
          "duration": 0.15116279069767558,
          "durationTicks": 13,
          "midi": 83,
          "name": "B5",
          "ticks": 4953,
          "time": 57.593023255813954,
          "velocity": 0.1889763779527559
        },
        {
          "duration": 0.19767441860464885,
          "durationTicks": 17,
          "midi": 93,
          "name": "A6",
          "ticks": 4953,
          "time": 57.593023255813954,
          "velocity": 0.1732283464566929
        },
        {
          "duration": 0.1046511627907023,
          "durationTicks": 9,
          "midi": 67,
          "name": "G4",
          "ticks": 4954,
          "time": 57.604651162790695,
          "velocity": 0.4330708661417323
        },
        {
          "duration": 0.023255813953483084,
          "durationTicks": 2,
          "midi": 41,
          "name": "F2",
          "ticks": 4955,
          "time": 57.616279069767444,
          "velocity": 0.4251968503937008
        },
        {
          "duration": 0.03488372093023173,
          "durationTicks": 3,
          "midi": 52,
          "name": "E3",
          "ticks": 4955,
          "time": 57.616279069767444,
          "velocity": 0.4645669291338583
        },
        {
          "duration": 0.06976744186046346,
          "durationTicks": 6,
          "midi": 89,
          "name": "F6",
          "ticks": 4955,
          "time": 57.616279069767444,
          "velocity": 0.13385826771653545
        },
        {
          "duration": 0.03488372093023173,
          "durationTicks": 3,
          "midi": 85,
          "name": "C#6",
          "ticks": 4956,
          "time": 57.627906976744185,
          "velocity": 0.08661417322834646
        },
        {
          "duration": 0.03488372093023173,
          "durationTicks": 3,
          "midi": 92,
          "name": "G#6",
          "ticks": 4956,
          "time": 57.627906976744185,
          "velocity": 0.07874015748031496
        },
        {
          "duration": 0.02325581395349019,
          "durationTicks": 2,
          "midi": 40,
          "name": "E2",
          "ticks": 4957,
          "time": 57.63953488372093,
          "velocity": 0.3937007874015748
        },
        {
          "duration": 0.03488372093023884,
          "durationTicks": 3,
          "midi": 82,
          "name": "A#5",
          "ticks": 4957,
          "time": 57.63953488372093,
          "velocity": 0.13385826771653545
        },
        {
          "duration": 0.04651162790698038,
          "durationTicks": 4,
          "midi": 52,
          "name": "E3",
          "ticks": 4959,
          "time": 57.66279069767442,
          "velocity": 0.4251968503937008
        },
        {
          "duration": 0.06976744186046346,
          "durationTicks": 6,
          "midi": 74,
          "name": "D5",
          "ticks": 4959,
          "time": 57.66279069767442,
          "velocity": 0.14960629921259844
        },
        {
          "duration": 0.03488372093023173,
          "durationTicks": 3,
          "midi": 40,
          "name": "E2",
          "ticks": 4960,
          "time": 57.674418604651166,
          "velocity": 0.44881889763779526
        },
        {
          "duration": 0.03488372093023173,
          "durationTicks": 3,
          "midi": 82,
          "name": "A#5",
          "ticks": 4961,
          "time": 57.68604651162791,
          "velocity": 0.1732283464566929
        },
        {
          "duration": 0.581395348837205,
          "durationTicks": 50,
          "midi": 62,
          "name": "D4",
          "ticks": 4963,
          "time": 57.7093023255814,
          "velocity": 0.33070866141732286
        },
        {
          "duration": 0.02325581395349019,
          "durationTicks": 2,
          "midi": 49,
          "name": "C#3",
          "ticks": 4964,
          "time": 57.72093023255814,
          "velocity": 0.4094488188976378
        },
        {
          "duration": 0.3139534883720927,
          "durationTicks": 27,
          "midi": 72,
          "name": "C5",
          "ticks": 4964,
          "time": 57.72093023255814,
          "velocity": 0.1889763779527559
        },
        {
          "duration": 0.2906976744186025,
          "durationTicks": 25,
          "midi": 76,
          "name": "E5",
          "ticks": 4964,
          "time": 57.72093023255814,
          "velocity": 0.10236220472440945
        },
        {
          "duration": 0.02325581395349019,
          "durationTicks": 2,
          "midi": 39,
          "name": "D#2",
          "ticks": 4965,
          "time": 57.73255813953488,
          "velocity": 0.47244094488188976
        },
        {
          "duration": 0.08139534883721211,
          "durationTicks": 7,
          "midi": 69,
          "name": "A4",
          "ticks": 4965,
          "time": 57.73255813953488,
          "velocity": 0.1889763779527559
        },
        {
          "duration": 0.03488372093023884,
          "durationTicks": 3,
          "midi": 78,
          "name": "F#5",
          "ticks": 4965,
          "time": 57.73255813953488,
          "velocity": 0.07874015748031496
        },
        {
          "duration": 0.03488372093023173,
          "durationTicks": 3,
          "midi": 50,
          "name": "D3",
          "ticks": 4966,
          "time": 57.74418604651163,
          "velocity": 0.4566929133858268
        },
        {
          "duration": 0.05813953488372192,
          "durationTicks": 5,
          "midi": 57,
          "name": "A3",
          "ticks": 4967,
          "time": 57.75581395348837,
          "velocity": 0.31496062992125984
        },
        {
          "duration": 0.05813953488372192,
          "durationTicks": 5,
          "midi": 66,
          "name": "F#4",
          "ticks": 4967,
          "time": 57.75581395348837,
          "velocity": 0.2440944881889764
        },
        {
          "duration": 0.023255813953483084,
          "durationTicks": 2,
          "midi": 39,
          "name": "D#2",
          "ticks": 4968,
          "time": 57.76744186046512,
          "velocity": 0.4330708661417323
        },
        {
          "duration": 0.03488372093023173,
          "durationTicks": 3,
          "midi": 38,
          "name": "D2",
          "ticks": 4970,
          "time": 57.7906976744186,
          "velocity": 0.4251968503937008
        },
        {
          "duration": 0.03488372093023173,
          "durationTicks": 3,
          "midi": 50,
          "name": "D3",
          "ticks": 4970,
          "time": 57.7906976744186,
          "velocity": 0.4251968503937008
        },
        {
          "duration": 0.24418604651162923,
          "durationTicks": 21,
          "midi": 67,
          "name": "G4",
          "ticks": 4972,
          "time": 57.81395348837209,
          "velocity": 0.4251968503937008
        },
        {
          "duration": 0.08139534883721211,
          "durationTicks": 7,
          "midi": 85,
          "name": "C#6",
          "ticks": 4972,
          "time": 57.81395348837209,
          "velocity": 0.13385826771653545
        },
        {
          "duration": 0.08139534883721211,
          "durationTicks": 7,
          "midi": 90,
          "name": "F#6",
          "ticks": 4972,
          "time": 57.81395348837209,
          "velocity": 0.08661417322834646
        },
        {
          "duration": 0.5116279069767486,
          "durationTicks": 44,
          "midi": 93,
          "name": "A6",
          "ticks": 4973,
          "time": 57.825581395348834,
          "velocity": 0.2047244094488189
        },
        {
          "duration": 0.43023255813953654,
          "durationTicks": 37,
          "midi": 50,
          "name": "D3",
          "ticks": 4974,
          "time": 57.83720930232558,
          "velocity": 0.5196850393700787
        },
        {
          "duration": 0.19767441860464885,
          "durationTicks": 17,
          "midi": 83,
          "name": "B5",
          "ticks": 4974,
          "time": 57.83720930232558,
          "velocity": 0.2125984251968504
        },
        {
          "duration": 0.1046511627906952,
          "durationTicks": 9,
          "midi": 89,
          "name": "F6",
          "ticks": 4974,
          "time": 57.83720930232558,
          "velocity": 0.11811023622047244
        },
        {
          "duration": 0.03488372093023173,
          "durationTicks": 3,
          "midi": 39,
          "name": "D#2",
          "ticks": 4975,
          "time": 57.848837209302324,
          "velocity": 0.4251968503937008
        },
        {
          "duration": 0.02325581395349019,
          "durationTicks": 2,
          "midi": 38,
          "name": "D2",
          "ticks": 4978,
          "time": 57.883720930232556,
          "velocity": 0.3700787401574803
        },
        {
          "duration": 0.09302325581395365,
          "durationTicks": 8,
          "midi": 86,
          "name": "D6",
          "ticks": 4978,
          "time": 57.883720930232556,
          "velocity": 0.07086614173228346
        },
        {
          "duration": 0.02325581395349019,
          "durationTicks": 2,
          "midi": 39,
          "name": "D#2",
          "ticks": 4980,
          "time": 57.906976744186046,
          "velocity": 0.33858267716535434
        },
        {
          "duration": 0.02325581395349019,
          "durationTicks": 2,
          "midi": 56,
          "name": "G#3",
          "ticks": 4980,
          "time": 57.906976744186046,
          "velocity": 0.3228346456692913
        },
        {
          "duration": 0.046511627906973274,
          "durationTicks": 4,
          "midi": 38,
          "name": "D2",
          "ticks": 4982,
          "time": 57.93023255813954,
          "velocity": 0.29133858267716534
        },
        {
          "duration": 0.023255813953483084,
          "durationTicks": 2,
          "midi": 56,
          "name": "G#3",
          "ticks": 4984,
          "time": 57.95348837209303,
          "velocity": 0.2992125984251969
        },
        {
          "duration": 0.02325581395349019,
          "durationTicks": 2,
          "midi": 57,
          "name": "A3",
          "ticks": 4986,
          "time": 57.97674418604651,
          "velocity": 0.25196850393700787
        },
        {
          "duration": 0.046511627906973274,
          "durationTicks": 4,
          "midi": 38,
          "name": "D2",
          "ticks": 4988,
          "time": 58,
          "velocity": 0.2677165354330709
        },
        {
          "duration": 0.11627906976744384,
          "durationTicks": 10,
          "midi": 57,
          "name": "A3",
          "ticks": 4991,
          "time": 58.03488372093023,
          "velocity": 0.3700787401574803
        },
        {
          "duration": 0.04651162790698038,
          "durationTicks": 4,
          "midi": 81,
          "name": "A5",
          "ticks": 4992,
          "time": 58.04651162790697,
          "velocity": 0.11811023622047244
        },
        {
          "duration": 0.02325581395349019,
          "durationTicks": 2,
          "midi": 40,
          "name": "E2",
          "ticks": 4993,
          "time": 58.05813953488372,
          "velocity": 0.4409448818897638
        },
        {
          "duration": 0.12790697674418539,
          "durationTicks": 11,
          "midi": 66,
          "name": "F#4",
          "ticks": 4993,
          "time": 58.05813953488372,
          "velocity": 0.29133858267716534
        },
        {
          "duration": 0.081395348837205,
          "durationTicks": 7,
          "midi": 90,
          "name": "F#6",
          "ticks": 4993,
          "time": 58.05813953488372,
          "velocity": 0.09448818897637795
        },
        {
          "duration": 0.2093023255813975,
          "durationTicks": 18,
          "midi": 72,
          "name": "C5",
          "ticks": 4994,
          "time": 58.06976744186046,
          "velocity": 0.15748031496062992
        },
        {
          "duration": 0.023255813953483084,
          "durationTicks": 2,
          "midi": 39,
          "name": "D#2",
          "ticks": 4995,
          "time": 58.08139534883721,
          "velocity": 0.4566929133858268
        },
        {
          "duration": 0.05813953488372192,
          "durationTicks": 5,
          "midi": 38,
          "name": "D2",
          "ticks": 4997,
          "time": 58.104651162790695,
          "velocity": 0.4409448818897638
        },
        {
          "duration": 0.3720930232558146,
          "durationTicks": 32,
          "midi": 76,
          "name": "E5",
          "ticks": 5002,
          "time": 58.16279069767442,
          "velocity": 0.2047244094488189
        },
        {
          "duration": 0.09302325581395365,
          "durationTicks": 8,
          "midi": 90,
          "name": "F#6",
          "ticks": 5002,
          "time": 58.16279069767442,
          "velocity": 0.11811023622047244
        },
        {
          "duration": 0.023255813953483084,
          "durationTicks": 2,
          "midi": 40,
          "name": "E2",
          "ticks": 5003,
          "time": 58.174418604651166,
          "velocity": 0.44881889763779526
        },
        {
          "duration": 0.058139534883714816,
          "durationTicks": 5,
          "midi": 82,
          "name": "A#5",
          "ticks": 5003,
          "time": 58.174418604651166,
          "velocity": 0.09448818897637795
        },
        {
          "duration": 0.058139534883714816,
          "durationTicks": 5,
          "midi": 85,
          "name": "C#6",
          "ticks": 5003,
          "time": 58.174418604651166,
          "velocity": 0.10236220472440945
        },
        {
          "duration": 0.03488372093023173,
          "durationTicks": 3,
          "midi": 39,
          "name": "D#2",
          "ticks": 5005,
          "time": 58.19767441860465,
          "velocity": 0.3937007874015748
        },
        {
          "duration": 0.03488372093023173,
          "durationTicks": 3,
          "midi": 80,
          "name": "G#5",
          "ticks": 5006,
          "time": 58.2093023255814,
          "velocity": 0.16535433070866143
        },
        {
          "duration": 0.03488372093023173,
          "durationTicks": 3,
          "midi": 57,
          "name": "A3",
          "ticks": 5009,
          "time": 58.24418604651163,
          "velocity": 0.2283464566929134
        },
        {
          "duration": 0.02325581395349019,
          "durationTicks": 2,
          "midi": 38,
          "name": "D2",
          "ticks": 5010,
          "time": 58.25581395348837,
          "velocity": 0.33858267716535434
        },
        {
          "duration": 0.05813953488372192,
          "durationTicks": 5,
          "midi": 66,
          "name": "F#4",
          "ticks": 5010,
          "time": 58.25581395348837,
          "velocity": 0.2047244094488189
        },
        {
          "duration": 0.2906976744186025,
          "durationTicks": 25,
          "midi": 85,
          "name": "C#6",
          "ticks": 5011,
          "time": 58.26744186046512,
          "velocity": 0.25984251968503935
        },
        {
          "duration": 0.05813953488372192,
          "durationTicks": 5,
          "midi": 73,
          "name": "C#5",
          "ticks": 5012,
          "time": 58.27906976744186,
          "velocity": 0.13385826771653545
        },
        {
          "duration": 0.03488372093023173,
          "durationTicks": 3,
          "midi": 77,
          "name": "F5",
          "ticks": 5012,
          "time": 58.27906976744186,
          "velocity": 0.15748031496062992
        },
        {
          "duration": 0.1860465116279073,
          "durationTicks": 16,
          "midi": 79,
          "name": "G5",
          "ticks": 5012,
          "time": 58.27906976744186,
          "velocity": 0.1732283464566929
        },
        {
          "duration": 0.08139534883721211,
          "durationTicks": 7,
          "midi": 83,
          "name": "B5",
          "ticks": 5012,
          "time": 58.27906976744186,
          "velocity": 0.10236220472440945
        },
        {
          "duration": 0.2093023255813975,
          "durationTicks": 18,
          "midi": 45,
          "name": "A2",
          "ticks": 5013,
          "time": 58.2906976744186,
          "velocity": 0.5039370078740157
        },
        {
          "duration": 0.03488372093023173,
          "durationTicks": 3,
          "midi": 61,
          "name": "C#4",
          "ticks": 5013,
          "time": 58.2906976744186,
          "velocity": 0.30708661417322836
        },
        {
          "duration": 0.03488372093023173,
          "durationTicks": 3,
          "midi": 75,
          "name": "D#5",
          "ticks": 5013,
          "time": 58.2906976744186,
          "velocity": 0.2125984251968504
        },
        {
          "duration": 0.1046511627906952,
          "durationTicks": 9,
          "midi": 67,
          "name": "G4",
          "ticks": 5015,
          "time": 58.31395348837209,
          "velocity": 0.2440944881889764
        },
        {
          "duration": 0.02325581395349019,
          "durationTicks": 2,
          "midi": 74,
          "name": "D5",
          "ticks": 5016,
          "time": 58.325581395348834,
          "velocity": 0.2283464566929134
        },
        {
          "duration": 0.046511627906973274,
          "durationTicks": 4,
          "midi": 61,
          "name": "C#4",
          "ticks": 5017,
          "time": 58.33720930232558,
          "velocity": 0.2440944881889764
        },
        {
          "duration": 0.03488372093023173,
          "durationTicks": 3,
          "midi": 75,
          "name": "D#5",
          "ticks": 5018,
          "time": 58.348837209302324,
          "velocity": 0.18110236220472442
        },
        {
          "duration": 0.03488372093023173,
          "durationTicks": 3,
          "midi": 52,
          "name": "E3",
          "ticks": 5021,
          "time": 58.383720930232556,
          "velocity": 0.25984251968503935
        },
        {
          "duration": 0.11627906976743674,
          "durationTicks": 10,
          "midi": 61,
          "name": "C#4",
          "ticks": 5022,
          "time": 58.395348837209305,
          "velocity": 0.2204724409448819
        },
        {
          "duration": 0.03488372093023173,
          "durationTicks": 3,
          "midi": 75,
          "name": "D#5",
          "ticks": 5023,
          "time": 58.406976744186046,
          "velocity": 0.14960629921259844
        },
        {
          "duration": 0.03488372093023173,
          "durationTicks": 3,
          "midi": 74,
          "name": "D5",
          "ticks": 5026,
          "time": 58.44186046511628,
          "velocity": 0.1732283464566929
        },
        {
          "duration": 0.27906976744185386,
          "durationTicks": 24,
          "midi": 67,
          "name": "G4",
          "ticks": 5027,
          "time": 58.45348837209303,
          "velocity": 0.1968503937007874
        },
        {
          "duration": 0.02325581395349019,
          "durationTicks": 2,
          "midi": 52,
          "name": "E3",
          "ticks": 5029,
          "time": 58.47674418604651,
          "velocity": 0.2440944881889764
        },
        {
          "duration": 0.05813953488372192,
          "durationTicks": 5,
          "midi": 75,
          "name": "D#5",
          "ticks": 5029,
          "time": 58.47674418604651,
          "velocity": 0.12598425196850394
        },
        {
          "duration": 0.02325581395349019,
          "durationTicks": 2,
          "midi": 44,
          "name": "G#2",
          "ticks": 5031,
          "time": 58.5,
          "velocity": 0.44881889763779526
        },
        {
          "duration": 0.046511627906973274,
          "durationTicks": 4,
          "midi": 77,
          "name": "F5",
          "ticks": 5031,
          "time": 58.5,
          "velocity": 0.12598425196850394
        },
        {
          "duration": 0.2325581395348877,
          "durationTicks": 20,
          "midi": 55,
          "name": "G3",
          "ticks": 5032,
          "time": 58.51162790697674,
          "velocity": 0.30708661417322836
        },
        {
          "duration": 0.22093023255813904,
          "durationTicks": 19,
          "midi": 60,
          "name": "C4",
          "ticks": 5032,
          "time": 58.51162790697674,
          "velocity": 0.28346456692913385
        },
        {
          "duration": 0.22093023255813904,
          "durationTicks": 19,
          "midi": 64,
          "name": "E4",
          "ticks": 5032,
          "time": 58.51162790697674,
          "velocity": 0.1968503937007874
        },
        {
          "duration": 0.22093023255813904,
          "durationTicks": 19,
          "midi": 70,
          "name": "A#4",
          "ticks": 5032,
          "time": 58.51162790697674,
          "velocity": 0.14173228346456693
        },
        {
          "duration": 0.04651162790698038,
          "durationTicks": 4,
          "midi": 84,
          "name": "C6",
          "ticks": 5032,
          "time": 58.51162790697674,
          "velocity": 0.07874015748031496
        },
        {
          "duration": 0.05813953488372192,
          "durationTicks": 5,
          "midi": 91,
          "name": "G6",
          "ticks": 5032,
          "time": 58.51162790697674,
          "velocity": 0.11811023622047244
        },
        {
          "duration": 0.04651162790698038,
          "durationTicks": 4,
          "midi": 95,
          "name": "B6",
          "ticks": 5032,
          "time": 58.51162790697674,
          "velocity": 0.07874015748031496
        },
        {
          "duration": 0.023255813953483084,
          "durationTicks": 2,
          "midi": 47,
          "name": "B2",
          "ticks": 5033,
          "time": 58.52325581395349,
          "velocity": 0.4881889763779528
        },
        {
          "duration": 0.04651162790698038,
          "durationTicks": 4,
          "midi": 37,
          "name": "C#2",
          "ticks": 5034,
          "time": 58.53488372093023,
          "velocity": 0.4409448818897638
        },
        {
          "duration": 0.2093023255813975,
          "durationTicks": 18,
          "midi": 48,
          "name": "C3",
          "ticks": 5035,
          "time": 58.54651162790697,
          "velocity": 0.5039370078740157
        },
        {
          "duration": 0.09302325581395365,
          "durationTicks": 8,
          "midi": 36,
          "name": "C2",
          "ticks": 5038,
          "time": 58.58139534883721,
          "velocity": 0.41732283464566927
        },
        {
          "duration": 0.058139534883714816,
          "durationTicks": 5,
          "midi": 91,
          "name": "G6",
          "ticks": 5038,
          "time": 58.58139534883721,
          "velocity": 0.08661417322834646
        },
        {
          "duration": 0.023255813953483084,
          "durationTicks": 2,
          "midi": 35,
          "name": "B1",
          "ticks": 5046,
          "time": 58.674418604651166,
          "velocity": 0.25196850393700787
        },
        {
          "duration": 0.03488372093023173,
          "durationTicks": 3,
          "midi": 36,
          "name": "C2",
          "ticks": 5048,
          "time": 58.69767441860465,
          "velocity": 0.2677165354330709
        },
        {
          "duration": 0.34883720930233153,
          "durationTicks": 30,
          "midi": 69,
          "name": "A4",
          "ticks": 5051,
          "time": 58.73255813953488,
          "velocity": 0.41732283464566927
        },
        {
          "duration": 0.03488372093023884,
          "durationTicks": 3,
          "midi": 79,
          "name": "G5",
          "ticks": 5051,
          "time": 58.73255813953488,
          "velocity": 0.11811023622047244
        },
        {
          "duration": 0.02325581395349019,
          "durationTicks": 2,
          "midi": 56,
          "name": "G#3",
          "ticks": 5052,
          "time": 58.74418604651163,
          "velocity": 0.36220472440944884
        },
        {
          "duration": 0.22093023255813904,
          "durationTicks": 19,
          "midi": 62,
          "name": "D4",
          "ticks": 5052,
          "time": 58.74418604651163,
          "velocity": 0.28346456692913385
        },
        {
          "duration": 0.22093023255813904,
          "durationTicks": 19,
          "midi": 72,
          "name": "C5",
          "ticks": 5052,
          "time": 58.74418604651163,
          "velocity": 0.14960629921259844
        },
        {
          "duration": 0.081395348837205,
          "durationTicks": 7,
          "midi": 93,
          "name": "A6",
          "ticks": 5052,
          "time": 58.74418604651163,
          "velocity": 0.12598425196850394
        },
        {
          "duration": 0.32558139534884134,
          "durationTicks": 28,
          "midi": 66,
          "name": "F#4",
          "ticks": 5053,
          "time": 58.75581395348837,
          "velocity": 0.2440944881889764
        },
        {
          "duration": 0.023255813953483084,
          "durationTicks": 2,
          "midi": 38,
          "name": "D2",
          "ticks": 5054,
          "time": 58.76744186046512,
          "velocity": 0.4566929133858268
        },
        {
          "duration": 0.17441860465116577,
          "durationTicks": 15,
          "midi": 57,
          "name": "A3",
          "ticks": 5055,
          "time": 58.77906976744186,
          "velocity": 0.33070866141732286
        },
        {
          "duration": 0.04651162790698038,
          "durationTicks": 4,
          "midi": 39,
          "name": "D#2",
          "ticks": 5056,
          "time": 58.7906976744186,
          "velocity": 0.4094488188976378
        },
        {
          "duration": 0.1046511627907023,
          "durationTicks": 9,
          "midi": 76,
          "name": "E5",
          "ticks": 5056,
          "time": 58.7906976744186,
          "velocity": 0.08661417322834646
        },
        {
          "duration": 0.09302325581395365,
          "durationTicks": 8,
          "midi": 80,
          "name": "G#5",
          "ticks": 5057,
          "time": 58.80232558139535,
          "velocity": 0.07086614173228346
        },
        {
          "duration": 0.046511627906973274,
          "durationTicks": 4,
          "midi": 38,
          "name": "D2",
          "ticks": 5060,
          "time": 58.83720930232558,
          "velocity": 0.3543307086614173
        },
        {
          "duration": 0.02325581395349019,
          "durationTicks": 2,
          "midi": 37,
          "name": "C#2",
          "ticks": 5064,
          "time": 58.883720930232556,
          "velocity": 0.2755905511811024
        },
        {
          "duration": 0.03488372093023173,
          "durationTicks": 3,
          "midi": 38,
          "name": "D2",
          "ticks": 5066,
          "time": 58.906976744186046,
          "velocity": 0.2440944881889764
        },
        {
          "duration": 0.023255813953483084,
          "durationTicks": 2,
          "midi": 56,
          "name": "G#3",
          "ticks": 5070,
          "time": 58.95348837209303,
          "velocity": 0.4409448818897638
        },
        {
          "duration": 0.13953488372092693,
          "durationTicks": 12,
          "midi": 85,
          "name": "C#6",
          "ticks": 5071,
          "time": 58.96511627906977,
          "velocity": 0.1968503937007874
        },
        {
          "duration": 0.11627906976744384,
          "durationTicks": 10,
          "midi": 95,
          "name": "B6",
          "ticks": 5071,
          "time": 58.96511627906977,
          "velocity": 0.13385826771653545
        },
        {
          "duration": 0.1046511627907023,
          "durationTicks": 9,
          "midi": 50,
          "name": "D3",
          "ticks": 5072,
          "time": 58.97674418604651,
          "velocity": 0.4645669291338583
        },
        {
          "duration": 0.09302325581395365,
          "durationTicks": 8,
          "midi": 57,
          "name": "A3",
          "ticks": 5072,
          "time": 58.97674418604651,
          "velocity": 0.3937007874015748
        },
        {
          "duration": 0.04651162790698038,
          "durationTicks": 4,
          "midi": 84,
          "name": "C6",
          "ticks": 5072,
          "time": 58.97674418604651,
          "velocity": 0.08661417322834646
        },
        {
          "duration": 0.03488372093023173,
          "durationTicks": 3,
          "midi": 39,
          "name": "D#2",
          "ticks": 5073,
          "time": 58.98837209302326,
          "velocity": 0.47244094488188976
        },
        {
          "duration": 0.03488372093023173,
          "durationTicks": 3,
          "midi": 91,
          "name": "G6",
          "ticks": 5075,
          "time": 59.01162790697674,
          "velocity": 0.10236220472440945
        },
        {
          "duration": 0.05813953488372192,
          "durationTicks": 5,
          "midi": 38,
          "name": "D2",
          "ticks": 5076,
          "time": 59.02325581395349,
          "velocity": 0.4251968503937008
        },
        {
          "duration": 0.17441860465115866,
          "durationTicks": 15,
          "midi": 76,
          "name": "E5",
          "ticks": 5076,
          "time": 59.02325581395349,
          "velocity": 0.11023622047244094
        },
        {
          "duration": 0.04651162790698038,
          "durationTicks": 4,
          "midi": 72,
          "name": "C5",
          "ticks": 5077,
          "time": 59.03488372093023,
          "velocity": 0.07086614173228346
        },
        {
          "duration": 0.05813953488372192,
          "durationTicks": 5,
          "midi": 91,
          "name": "G6",
          "ticks": 5080,
          "time": 59.06976744186046,
          "velocity": 0.13385826771653545
        },
        {
          "duration": 0.1046511627906952,
          "durationTicks": 9,
          "midi": 67,
          "name": "G4",
          "ticks": 5081,
          "time": 59.08139534883721,
          "velocity": 0.4409448818897638
        },
        {
          "duration": 0.22093023255813904,
          "durationTicks": 19,
          "midi": 83,
          "name": "B5",
          "ticks": 5081,
          "time": 59.08139534883721,
          "velocity": 0.18110236220472442
        },
        {
          "duration": 0.05813953488372192,
          "durationTicks": 5,
          "midi": 38,
          "name": "D2",
          "ticks": 5082,
          "time": 59.093023255813954,
          "velocity": 0.33858267716535434
        },
        {
          "duration": 0.03488372093023173,
          "durationTicks": 3,
          "midi": 55,
          "name": "G3",
          "ticks": 5082,
          "time": 59.093023255813954,
          "velocity": 0.41732283464566927
        },
        {
          "duration": 0.05813953488372192,
          "durationTicks": 5,
          "midi": 86,
          "name": "D6",
          "ticks": 5082,
          "time": 59.093023255813954,
          "velocity": 0.07086614173228346
        },
        {
          "duration": 0.08139534883721211,
          "durationTicks": 7,
          "midi": 50,
          "name": "D3",
          "ticks": 5083,
          "time": 59.104651162790695,
          "velocity": 0.33858267716535434
        },
        {
          "duration": 0.38372093023256326,
          "durationTicks": 33,
          "midi": 72,
          "name": "C5",
          "ticks": 5083,
          "time": 59.104651162790695,
          "velocity": 0.4330708661417323
        },
        {
          "duration": 0.1046511627907023,
          "durationTicks": 9,
          "midi": 89,
          "name": "F6",
          "ticks": 5083,
          "time": 59.104651162790695,
          "velocity": 0.11023622047244094
        },
        {
          "duration": 0.03488372093023884,
          "durationTicks": 3,
          "midi": 55,
          "name": "G3",
          "ticks": 5086,
          "time": 59.13953488372093,
          "velocity": 0.30708661417322836
        },
        {
          "duration": 0.03488372093023173,
          "durationTicks": 3,
          "midi": 37,
          "name": "C#2",
          "ticks": 5089,
          "time": 59.174418604651166,
          "velocity": 0.29133858267716534
        },
        {
          "duration": 0.2906976744186025,
          "durationTicks": 25,
          "midi": 77,
          "name": "F5",
          "ticks": 5090,
          "time": 59.18604651162791,
          "velocity": 0.2992125984251969
        },
        {
          "duration": 0.3139534883720927,
          "durationTicks": 27,
          "midi": 85,
          "name": "C#6",
          "ticks": 5090,
          "time": 59.18604651162791,
          "velocity": 0.2283464566929134
        },
        {
          "duration": 0.16279069767441712,
          "durationTicks": 14,
          "midi": 87,
          "name": "D#6",
          "ticks": 5090,
          "time": 59.18604651162791,
          "velocity": 0.1968503937007874
        },
        {
          "duration": 0.1046511627906952,
          "durationTicks": 9,
          "midi": 93,
          "name": "A6",
          "ticks": 5090,
          "time": 59.18604651162791,
          "velocity": 0.16535433070866143
        },
        {
          "duration": 0.011627906976748648,
          "durationTicks": 1,
          "midi": 52,
          "name": "E3",
          "ticks": 5091,
          "time": 59.19767441860465,
          "velocity": 0.5590551181102362
        },
        {
          "duration": 0.02325581395349019,
          "durationTicks": 2,
          "midi": 61,
          "name": "C#4",
          "ticks": 5091,
          "time": 59.19767441860465,
          "velocity": 0.23622047244094488
        },
        {
          "duration": 0.2325581395348877,
          "durationTicks": 20,
          "midi": 65,
          "name": "F4",
          "ticks": 5091,
          "time": 59.19767441860465,
          "velocity": 0.44881889763779526
        },
        {
          "duration": 0.03488372093023173,
          "durationTicks": 3,
          "midi": 75,
          "name": "D#5",
          "ticks": 5091,
          "time": 59.19767441860465,
          "velocity": 0.23622047244094488
        },
        {
          "duration": 0.15116279069767558,
          "durationTicks": 13,
          "midi": 81,
          "name": "A5",
          "ticks": 5091,
          "time": 59.19767441860465,
          "velocity": 0.14173228346456693
        },
        {
          "duration": 0.03488372093023173,
          "durationTicks": 3,
          "midi": 96,
          "name": "C7",
          "ticks": 5091,
          "time": 59.19767441860465,
          "velocity": 0.18110236220472442
        },
        {
          "duration": 0.05813953488372192,
          "durationTicks": 5,
          "midi": 100,
          "name": "E7",
          "ticks": 5091,
          "time": 59.19767441860465,
          "velocity": 0.13385826771653545
        },
        {
          "duration": 0.24418604651162923,
          "durationTicks": 21,
          "midi": 53,
          "name": "F3",
          "ticks": 5092,
          "time": 59.2093023255814,
          "velocity": 0.5511811023622047
        },
        {
          "duration": 0.02325581395349019,
          "durationTicks": 2,
          "midi": 45,
          "name": "A2",
          "ticks": 5093,
          "time": 59.22093023255814,
          "velocity": 0.44881889763779526
        },
        {
          "duration": 0.2093023255813975,
          "durationTicks": 18,
          "midi": 61,
          "name": "C#4",
          "ticks": 5094,
          "time": 59.23255813953488,
          "velocity": 0.25984251968503935
        },
        {
          "duration": 0.19767441860464885,
          "durationTicks": 17,
          "midi": 75,
          "name": "D#5",
          "ticks": 5095,
          "time": 59.24418604651163,
          "velocity": 0.2125984251968504
        },
        {
          "duration": 0.16279069767441712,
          "durationTicks": 14,
          "midi": 96,
          "name": "C7",
          "ticks": 5095,
          "time": 59.24418604651163,
          "velocity": 0.12598425196850394
        },
        {
          "duration": 0.17441860465116577,
          "durationTicks": 15,
          "midi": 45,
          "name": "A2",
          "ticks": 5096,
          "time": 59.25581395348837,
          "velocity": 0.4094488188976378
        },
        {
          "duration": 0.5697674418604706,
          "durationTicks": 49,
          "midi": 69,
          "name": "A4",
          "ticks": 5110,
          "time": 59.41860465116279,
          "velocity": 0.4251968503937008
        },
        {
          "duration": 0.02325581395349019,
          "durationTicks": 2,
          "midi": 38,
          "name": "D2",
          "ticks": 5112,
          "time": 59.44186046511628,
          "velocity": 0.3858267716535433
        },
        {
          "duration": 0.02325581395349019,
          "durationTicks": 2,
          "midi": 60,
          "name": "C4",
          "ticks": 5112,
          "time": 59.44186046511628,
          "velocity": 0.25196850393700787
        },
        {
          "duration": 0.6976744186046488,
          "durationTicks": 60,
          "midi": 74,
          "name": "D5",
          "ticks": 5112,
          "time": 59.44186046511628,
          "velocity": 0.25196850393700787
        },
        {
          "duration": 0.023255813953483084,
          "durationTicks": 2,
          "midi": 54,
          "name": "F#3",
          "ticks": 5113,
          "time": 59.45348837209303,
          "velocity": 0.33070866141732286
        },
        {
          "duration": 0.058139534883714816,
          "durationTicks": 5,
          "midi": 82,
          "name": "A#5",
          "ticks": 5113,
          "time": 59.45348837209303,
          "velocity": 0.08661417322834646
        },
        {
          "duration": 0.11627906976743674,
          "durationTicks": 10,
          "midi": 91,
          "name": "G6",
          "ticks": 5113,
          "time": 59.45348837209303,
          "velocity": 0.16535433070866143
        },
        {
          "duration": 0.011627906976748648,
          "durationTicks": 1,
          "midi": 50,
          "name": "D3",
          "ticks": 5115,
          "time": 59.47674418604651,
          "velocity": 0.5196850393700787
        },
        {
          "duration": 0.046511627906973274,
          "durationTicks": 4,
          "midi": 37,
          "name": "C#2",
          "ticks": 5116,
          "time": 59.48837209302326,
          "velocity": 0.4409448818897638
        },
        {
          "duration": 0.03488372093023173,
          "durationTicks": 3,
          "midi": 90,
          "name": "F#6",
          "ticks": 5116,
          "time": 59.48837209302326,
          "velocity": 0.07086614173228346
        },
        {
          "duration": 0.08139534883721211,
          "durationTicks": 7,
          "midi": 62,
          "name": "D4",
          "ticks": 5118,
          "time": 59.51162790697674,
          "velocity": 0.31496062992125984
        },
        {
          "duration": 0.08139534883721211,
          "durationTicks": 7,
          "midi": 36,
          "name": "C2",
          "ticks": 5120,
          "time": 59.53488372093023,
          "velocity": 0.3779527559055118
        },
        {
          "duration": 0.02325581395349019,
          "durationTicks": 2,
          "midi": 55,
          "name": "G3",
          "ticks": 5122,
          "time": 59.55813953488372,
          "velocity": 0.25196850393700787
        },
        {
          "duration": 0.046511627906973274,
          "durationTicks": 4,
          "midi": 78,
          "name": "F#5",
          "ticks": 5125,
          "time": 59.593023255813954,
          "velocity": 0.11811023622047244
        },
        {
          "duration": 0.5348837209302317,
          "durationTicks": 46,
          "midi": 62,
          "name": "D4",
          "ticks": 5126,
          "time": 59.604651162790695,
          "velocity": 0.3937007874015748
        },
        {
          "duration": 0.023255813953483084,
          "durationTicks": 2,
          "midi": 35,
          "name": "B1",
          "ticks": 5127,
          "time": 59.616279069767444,
          "velocity": 0.2677165354330709
        },
        {
          "duration": 0.02325581395349019,
          "durationTicks": 2,
          "midi": 49,
          "name": "C#3",
          "ticks": 5129,
          "time": 59.63953488372093,
          "velocity": 0.5511811023622047
        },
        {
          "duration": 0.4534883720930196,
          "durationTicks": 39,
          "midi": 57,
          "name": "A3",
          "ticks": 5130,
          "time": 59.651162790697676,
          "velocity": 0.3858267716535433
        },
        {
          "duration": 0.22093023255813904,
          "durationTicks": 19,
          "midi": 72,
          "name": "C5",
          "ticks": 5130,
          "time": 59.651162790697676,
          "velocity": 0.14960629921259844
        },
        {
          "duration": 0.16279069767441712,
          "durationTicks": 14,
          "midi": 80,
          "name": "G#5",
          "ticks": 5130,
          "time": 59.651162790697676,
          "velocity": 0.10236220472440945
        },
        {
          "duration": 0.02325581395349019,
          "durationTicks": 2,
          "midi": 40,
          "name": "E2",
          "ticks": 5131,
          "time": 59.66279069767442,
          "velocity": 0.4015748031496063
        },
        {
          "duration": 0.4418604651162781,
          "durationTicks": 38,
          "midi": 50,
          "name": "D3",
          "ticks": 5131,
          "time": 59.66279069767442,
          "velocity": 0.5354330708661418
        },
        {
          "duration": 0.4767441860465098,
          "durationTicks": 41,
          "midi": 66,
          "name": "F#4",
          "ticks": 5131,
          "time": 59.66279069767442,
          "velocity": 0.2677165354330709
        },
        {
          "duration": 0.12790697674418539,
          "durationTicks": 11,
          "midi": 76,
          "name": "E5",
          "ticks": 5131,
          "time": 59.66279069767442,
          "velocity": 0.08661417322834646
        },
        {
          "duration": 0.1046511627907023,
          "durationTicks": 9,
          "midi": 38,
          "name": "D2",
          "ticks": 5134,
          "time": 59.69767441860465,
          "velocity": 0.44881889763779526
        },
        {
          "duration": 0.09302325581395365,
          "durationTicks": 8,
          "midi": 93,
          "name": "A6",
          "ticks": 5135,
          "time": 59.7093023255814,
          "velocity": 0.11023622047244094
        },
        {
          "duration": 0.05813953488372192,
          "durationTicks": 5,
          "midi": 38,
          "name": "D2",
          "ticks": 5144,
          "time": 59.81395348837209,
          "velocity": 0.28346456692913385
        },
        {
          "duration": 0.19767441860464885,
          "durationTicks": 17,
          "midi": 80,
          "name": "G#5",
          "ticks": 5149,
          "time": 59.872093023255815,
          "velocity": 0.14960629921259844
        },
        {
          "duration": 0.02325581395349019,
          "durationTicks": 2,
          "midi": 40,
          "name": "E2",
          "ticks": 5150,
          "time": 59.883720930232556,
          "velocity": 0.44881889763779526
        },
        {
          "duration": 0.23255813953488058,
          "durationTicks": 20,
          "midi": 72,
          "name": "C5",
          "ticks": 5151,
          "time": 59.895348837209305,
          "velocity": 0.15748031496062992
        },
        {
          "duration": 0.02325581395349019,
          "durationTicks": 2,
          "midi": 39,
          "name": "D#2",
          "ticks": 5152,
          "time": 59.906976744186046,
          "velocity": 0.4645669291338583
        },
        {
          "duration": 0.1046511627906952,
          "durationTicks": 9,
          "midi": 38,
          "name": "D2",
          "ticks": 5154,
          "time": 59.93023255813954,
          "velocity": 0.4409448818897638
        },
        {
          "duration": 0.05813953488372192,
          "durationTicks": 5,
          "midi": 38,
          "name": "D2",
          "ticks": 5164,
          "time": 60.04651162790697,
          "velocity": 0.29133858267716534
        },
        {
          "duration": 0.04651162790698038,
          "durationTicks": 4,
          "midi": 76,
          "name": "E5",
          "ticks": 5169,
          "time": 60.104651162790695,
          "velocity": 0.11023622047244094
        },
        {
          "duration": 0.2906976744186096,
          "durationTicks": 25,
          "midi": 85,
          "name": "C#6",
          "ticks": 5169,
          "time": 60.104651162790695,
          "velocity": 0.2283464566929134
        },
        {
          "duration": 0.24418604651162923,
          "durationTicks": 21,
          "midi": 79,
          "name": "G5",
          "ticks": 5170,
          "time": 60.116279069767444,
          "velocity": 0.15748031496062992
        },
        {
          "duration": 0.2093023255813975,
          "durationTicks": 18,
          "midi": 45,
          "name": "A2",
          "ticks": 5171,
          "time": 60.127906976744185,
          "velocity": 0.49606299212598426
        },
        {
          "duration": 0.09302325581395365,
          "durationTicks": 8,
          "midi": 83,
          "name": "B5",
          "ticks": 5171,
          "time": 60.127906976744185,
          "velocity": 0.09448818897637795
        },
        {
          "duration": 0.03488372093023884,
          "durationTicks": 3,
          "midi": 67,
          "name": "G4",
          "ticks": 5172,
          "time": 60.13953488372093,
          "velocity": 0.1968503937007874
        },
        {
          "duration": 0.02325581395349019,
          "durationTicks": 2,
          "midi": 61,
          "name": "C#4",
          "ticks": 5173,
          "time": 60.151162790697676,
          "velocity": 0.33070866141732286
        },
        {
          "duration": 0.03488372093023173,
          "durationTicks": 3,
          "midi": 74,
          "name": "D5",
          "ticks": 5174,
          "time": 60.16279069767442,
          "velocity": 0.2440944881889764
        },
        {
          "duration": 0.03488372093023173,
          "durationTicks": 3,
          "midi": 62,
          "name": "D4",
          "ticks": 5175,
          "time": 60.174418604651166,
          "velocity": 0.25196850393700787
        },
        {
          "duration": 0.38372093023255616,
          "durationTicks": 33,
          "midi": 67,
          "name": "G4",
          "ticks": 5176,
          "time": 60.18604651162791,
          "velocity": 0.16535433070866143
        },
        {
          "duration": 0.023255813953483084,
          "durationTicks": 2,
          "midi": 61,
          "name": "C#4",
          "ticks": 5178,
          "time": 60.2093023255814,
          "velocity": 0.2992125984251969
        },
        {
          "duration": 0.03488372093023884,
          "durationTicks": 3,
          "midi": 62,
          "name": "D4",
          "ticks": 5180,
          "time": 60.23255813953488,
          "velocity": 0.25196850393700787
        },
        {
          "duration": 0.03488372093023173,
          "durationTicks": 3,
          "midi": 75,
          "name": "D#5",
          "ticks": 5181,
          "time": 60.24418604651163,
          "velocity": 0.18110236220472442
        },
        {
          "duration": 0.03488372093023173,
          "durationTicks": 3,
          "midi": 61,
          "name": "C#4",
          "ticks": 5183,
          "time": 60.26744186046512,
          "velocity": 0.2677165354330709
        },
        {
          "duration": 0.023255813953483084,
          "durationTicks": 2,
          "midi": 51,
          "name": "D#3",
          "ticks": 5186,
          "time": 60.30232558139535,
          "velocity": 0.28346456692913385
        },
        {
          "duration": 0.03488372093023173,
          "durationTicks": 3,
          "midi": 61,
          "name": "C#4",
          "ticks": 5187,
          "time": 60.31395348837209,
          "velocity": 0.25196850393700787
        },
        {
          "duration": 0.03488372093023173,
          "durationTicks": 3,
          "midi": 76,
          "name": "E5",
          "ticks": 5189,
          "time": 60.33720930232558,
          "velocity": 0.08661417322834646
        },
        {
          "duration": 0.2325581395348877,
          "durationTicks": 20,
          "midi": 55,
          "name": "G3",
          "ticks": 5190,
          "time": 60.348837209302324,
          "velocity": 0.33858267716535434
        },
        {
          "duration": 0.19767441860464885,
          "durationTicks": 17,
          "midi": 70,
          "name": "A#4",
          "ticks": 5190,
          "time": 60.348837209302324,
          "velocity": 0.14960629921259844
        },
        {
          "duration": 0.03488372093023173,
          "durationTicks": 3,
          "midi": 84,
          "name": "C6",
          "ticks": 5190,
          "time": 60.348837209302324,
          "velocity": 0.07086614173228346
        },
        {
          "duration": 0.04651162790698038,
          "durationTicks": 4,
          "midi": 95,
          "name": "B6",
          "ticks": 5190,
          "time": 60.348837209302324,
          "velocity": 0.07086614173228346
        },
        {
          "duration": 0.023255813953483084,
          "durationTicks": 2,
          "midi": 47,
          "name": "B2",
          "ticks": 5191,
          "time": 60.36046511627907,
          "velocity": 0.48031496062992124
        },
        {
          "duration": 0.046511627906973274,
          "durationTicks": 4,
          "midi": 37,
          "name": "C#2",
          "ticks": 5192,
          "time": 60.372093023255815,
          "velocity": 0.4330708661417323
        },
        {
          "duration": 0.02325581395349019,
          "durationTicks": 2,
          "midi": 60,
          "name": "C4",
          "ticks": 5192,
          "time": 60.372093023255815,
          "velocity": 0.25196850393700787
        },
        {
          "duration": 0.046511627906973274,
          "durationTicks": 4,
          "midi": 64,
          "name": "E4",
          "ticks": 5192,
          "time": 60.372093023255815,
          "velocity": 0.2125984251968504
        },
        {
          "duration": 0.22093023255813904,
          "durationTicks": 19,
          "midi": 74,
          "name": "D5",
          "ticks": 5192,
          "time": 60.372093023255815,
          "velocity": 0.15748031496062992
        },
        {
          "duration": 0.03488372093023173,
          "durationTicks": 3,
          "midi": 78,
          "name": "F#5",
          "ticks": 5192,
          "time": 60.372093023255815,
          "velocity": 0.13385826771653545
        },
        {
          "duration": 0.03488372093023173,
          "durationTicks": 3,
          "midi": 83,
          "name": "B5",
          "ticks": 5194,
          "time": 60.395348837209305,
          "velocity": 0.07086614173228346
        },
        {
          "duration": 0.09302325581395365,
          "durationTicks": 8,
          "midi": 36,
          "name": "C2",
          "ticks": 5196,
          "time": 60.41860465116279,
          "velocity": 0.41732283464566927
        },
        {
          "duration": 0.046511627906973274,
          "durationTicks": 4,
          "midi": 64,
          "name": "E4",
          "ticks": 5197,
          "time": 60.43023255813954,
          "velocity": 0.18110236220472442
        },
        {
          "duration": 0.04651162790698038,
          "durationTicks": 4,
          "midi": 60,
          "name": "C4",
          "ticks": 5198,
          "time": 60.44186046511628,
          "velocity": 0.2125984251968504
        },
        {
          "duration": 0.04651162790698038,
          "durationTicks": 4,
          "midi": 78,
          "name": "F#5",
          "ticks": 5198,
          "time": 60.44186046511628,
          "velocity": 0.08661417322834646
        },
        {
          "duration": 0.1046511627906952,
          "durationTicks": 9,
          "midi": 48,
          "name": "C3",
          "ticks": 5202,
          "time": 60.48837209302326,
          "velocity": 0.5039370078740157
        },
        {
          "duration": 0.081395348837205,
          "durationTicks": 7,
          "midi": 64,
          "name": "E4",
          "ticks": 5202,
          "time": 60.48837209302326,
          "velocity": 0.18110236220472442
        },
        {
          "duration": 0.02325581395349019,
          "durationTicks": 2,
          "midi": 35,
          "name": "B1",
          "ticks": 5204,
          "time": 60.51162790697674,
          "velocity": 0.25196850393700787
        },
        {
          "duration": 0.03488372093023173,
          "durationTicks": 3,
          "midi": 36,
          "name": "C2",
          "ticks": 5206,
          "time": 60.53488372093023,
          "velocity": 0.2677165354330709
        },
        {
          "duration": 0.4534883720930267,
          "durationTicks": 39,
          "midi": 62,
          "name": "D4",
          "ticks": 5209,
          "time": 60.56976744186046,
          "velocity": 0.2992125984251969
        },
        {
          "duration": 0.46511627906976827,
          "durationTicks": 40,
          "midi": 69,
          "name": "A4",
          "ticks": 5209,
          "time": 60.56976744186046,
          "velocity": 0.23622047244094488
        },
        {
          "duration": 0.03488372093023173,
          "durationTicks": 3,
          "midi": 79,
          "name": "G5",
          "ticks": 5209,
          "time": 60.56976744186046,
          "velocity": 0.11023622047244094
        },
        {
          "duration": 0.023255813953483084,
          "durationTicks": 2,
          "midi": 56,
          "name": "G#3",
          "ticks": 5210,
          "time": 60.58139534883721,
          "velocity": 0.3543307086614173
        },
        {
          "duration": 0.4534883720930196,
          "durationTicks": 39,
          "midi": 66,
          "name": "F#4",
          "ticks": 5210,
          "time": 60.58139534883721,
          "velocity": 0.2440944881889764
        },
        {
          "duration": 0.2093023255813904,
          "durationTicks": 18,
          "midi": 72,
          "name": "C5",
          "ticks": 5210,
          "time": 60.58139534883721,
          "velocity": 0.14960629921259844
        },
        {
          "duration": 0.058139534883714816,
          "durationTicks": 5,
          "midi": 90,
          "name": "F#6",
          "ticks": 5210,
          "time": 60.58139534883721,
          "velocity": 0.07086614173228346
        },
        {
          "duration": 0.09302325581395365,
          "durationTicks": 8,
          "midi": 93,
          "name": "A6",
          "ticks": 5210,
          "time": 60.58139534883721,
          "velocity": 0.11811023622047244
        },
        {
          "duration": 0.02325581395349019,
          "durationTicks": 2,
          "midi": 38,
          "name": "D2",
          "ticks": 5212,
          "time": 60.604651162790695,
          "velocity": 0.4566929133858268
        },
        {
          "duration": 0.1860465116279073,
          "durationTicks": 16,
          "midi": 57,
          "name": "A3",
          "ticks": 5212,
          "time": 60.604651162790695,
          "velocity": 0.3228346456692913
        },
        {
          "duration": 0.04651162790698038,
          "durationTicks": 4,
          "midi": 39,
          "name": "D#2",
          "ticks": 5214,
          "time": 60.627906976744185,
          "velocity": 0.4094488188976378
        },
        {
          "duration": 0.11627906976744384,
          "durationTicks": 10,
          "midi": 76,
          "name": "E5",
          "ticks": 5214,
          "time": 60.627906976744185,
          "velocity": 0.08661417322834646
        },
        {
          "duration": 0.1046511627907023,
          "durationTicks": 9,
          "midi": 80,
          "name": "G#5",
          "ticks": 5215,
          "time": 60.63953488372093,
          "velocity": 0.07086614173228346
        },
        {
          "duration": 0.046511627906973274,
          "durationTicks": 4,
          "midi": 38,
          "name": "D2",
          "ticks": 5218,
          "time": 60.674418604651166,
          "velocity": 0.3543307086614173
        },
        {
          "duration": 0.02325581395349019,
          "durationTicks": 2,
          "midi": 37,
          "name": "C#2",
          "ticks": 5222,
          "time": 60.72093023255814,
          "velocity": 0.2755905511811024
        },
        {
          "duration": 0.046511627906973274,
          "durationTicks": 4,
          "midi": 38,
          "name": "D2",
          "ticks": 5224,
          "time": 60.74418604651163,
          "velocity": 0.25196850393700787
        },
        {
          "duration": 0.02325581395349019,
          "durationTicks": 2,
          "midi": 56,
          "name": "G#3",
          "ticks": 5228,
          "time": 60.7906976744186,
          "velocity": 0.25196850393700787
        },
        {
          "duration": 0.24418604651162923,
          "durationTicks": 21,
          "midi": 76,
          "name": "E5",
          "ticks": 5228,
          "time": 60.7906976744186,
          "velocity": 0.12598425196850394
        },
        {
          "duration": 0.081395348837205,
          "durationTicks": 7,
          "midi": 93,
          "name": "A6",
          "ticks": 5229,
          "time": 60.80232558139535,
          "velocity": 0.13385826771653545
        },
        {
          "duration": 0.2093023255813975,
          "durationTicks": 18,
          "midi": 50,
          "name": "D3",
          "ticks": 5230,
          "time": 60.81395348837209,
          "velocity": 0.44881889763779526
        },
        {
          "duration": 0.22093023255813904,
          "durationTicks": 19,
          "midi": 57,
          "name": "A3",
          "ticks": 5230,
          "time": 60.81395348837209,
          "velocity": 0.25984251968503935
        },
        {
          "duration": 0.22093023255813904,
          "durationTicks": 19,
          "midi": 72,
          "name": "C5",
          "ticks": 5230,
          "time": 60.81395348837209,
          "velocity": 0.13385826771653545
        },
        {
          "duration": 0.03488372093023884,
          "durationTicks": 3,
          "midi": 39,
          "name": "D#2",
          "ticks": 5231,
          "time": 60.825581395348834,
          "velocity": 0.4330708661417323
        },
        {
          "duration": 0.09302325581395365,
          "durationTicks": 8,
          "midi": 38,
          "name": "D2",
          "ticks": 5234,
          "time": 60.86046511627907,
          "velocity": 0.4330708661417323
        },
        {
          "duration": 0.05813953488372192,
          "durationTicks": 5,
          "midi": 38,
          "name": "D2",
          "ticks": 5243,
          "time": 60.96511627906977,
          "velocity": 0.28346456692913385
        },
        {
          "duration": 0.24418604651162923,
          "durationTicks": 21,
          "midi": 74,
          "name": "D5",
          "ticks": 5248,
          "time": 61.02325581395349,
          "velocity": 0.3228346456692913
        },
        {
          "duration": 0.22093023255813904,
          "durationTicks": 19,
          "midi": 71,
          "name": "B4",
          "ticks": 5249,
          "time": 61.03488372093023,
          "velocity": 0.1889763779527559
        },
        {
          "duration": 0.2325581395348877,
          "durationTicks": 20,
          "midi": 77,
          "name": "F5",
          "ticks": 5249,
          "time": 61.03488372093023,
          "velocity": 0.1889763779527559
        },
        {
          "duration": 0.1860465116279073,
          "durationTicks": 16,
          "midi": 81,
          "name": "A5",
          "ticks": 5249,
          "time": 61.03488372093023,
          "velocity": 0.15748031496062992
        },
        {
          "duration": 0.3953488372093048,
          "durationTicks": 34,
          "midi": 83,
          "name": "B5",
          "ticks": 5249,
          "time": 61.03488372093023,
          "velocity": 0.2755905511811024
        },
        {
          "duration": 0.13953488372093403,
          "durationTicks": 12,
          "midi": 90,
          "name": "F#6",
          "ticks": 5249,
          "time": 61.03488372093023,
          "velocity": 0.07874015748031496
        },
        {
          "duration": 0.19767441860465595,
          "durationTicks": 17,
          "midi": 62,
          "name": "D4",
          "ticks": 5250,
          "time": 61.04651162790697,
          "velocity": 0.18110236220472442
        },
        {
          "duration": 0.2093023255813975,
          "durationTicks": 18,
          "midi": 67,
          "name": "G4",
          "ticks": 5250,
          "time": 61.04651162790697,
          "velocity": 0.2440944881889764
        },
        {
          "duration": 0.2674418604651194,
          "durationTicks": 23,
          "midi": 85,
          "name": "C#6",
          "ticks": 5250,
          "time": 61.04651162790697,
          "velocity": 0.2204724409448819
        },
        {
          "duration": 0.1860465116279073,
          "durationTicks": 16,
          "midi": 55,
          "name": "G3",
          "ticks": 5251,
          "time": 61.05813953488372,
          "velocity": 0.44881889763779526
        },
        {
          "duration": 0.03488372093023173,
          "durationTicks": 3,
          "midi": 98,
          "name": "D7",
          "ticks": 5251,
          "time": 61.05813953488372,
          "velocity": 0.08661417322834646
        },
        {
          "duration": 0.02325581395349019,
          "durationTicks": 2,
          "midi": 42,
          "name": "F#2",
          "ticks": 5254,
          "time": 61.093023255813954,
          "velocity": 0.41732283464566927
        },
        {
          "duration": 0.03488372093023173,
          "durationTicks": 3,
          "midi": 43,
          "name": "G2",
          "ticks": 5259,
          "time": 61.151162790697676,
          "velocity": 0.3543307086614173
        },
        {
          "duration": 0.05813953488372192,
          "durationTicks": 5,
          "midi": 43,
          "name": "G2",
          "ticks": 5263,
          "time": 61.19767441860465,
          "velocity": 0.4015748031496063
        },
        {
          "duration": 0.12790697674418539,
          "durationTicks": 11,
          "midi": 72,
          "name": "C5",
          "ticks": 5267,
          "time": 61.24418604651163,
          "velocity": 0.25984251968503935
        },
        {
          "duration": 0.1046511627906952,
          "durationTicks": 9,
          "midi": 93,
          "name": "A6",
          "ticks": 5267,
          "time": 61.24418604651163,
          "velocity": 0.1732283464566929
        },
        {
          "duration": 0.11627906976744384,
          "durationTicks": 10,
          "midi": 60,
          "name": "C4",
          "ticks": 5268,
          "time": 61.25581395348837,
          "velocity": 0.33070866141732286
        },
        {
          "duration": 0.15116279069767558,
          "durationTicks": 13,
          "midi": 79,
          "name": "G5",
          "ticks": 5268,
          "time": 61.25581395348837,
          "velocity": 0.2283464566929134
        },
        {
          "duration": 0.05813953488372192,
          "durationTicks": 5,
          "midi": 87,
          "name": "D#6",
          "ticks": 5268,
          "time": 61.25581395348837,
          "velocity": 0.07086614173228346
        },
        {
          "duration": 0.023255813953483084,
          "durationTicks": 2,
          "midi": 52,
          "name": "E3",
          "ticks": 5269,
          "time": 61.26744186046512,
          "velocity": 0.3779527559055118
        },
        {
          "duration": 0.1046511627906952,
          "durationTicks": 9,
          "midi": 67,
          "name": "G4",
          "ticks": 5269,
          "time": 61.26744186046512,
          "velocity": 0.44881889763779526
        },
        {
          "duration": 0.15116279069766847,
          "durationTicks": 13,
          "midi": 75,
          "name": "D#5",
          "ticks": 5269,
          "time": 61.26744186046512,
          "velocity": 0.16535433070866143
        },
        {
          "duration": 0.02325581395349019,
          "durationTicks": 2,
          "midi": 42,
          "name": "F#2",
          "ticks": 5270,
          "time": 61.27906976744186,
          "velocity": 0.4881889763779528
        },
        {
          "duration": 0.046511627906973274,
          "durationTicks": 4,
          "midi": 96,
          "name": "C7",
          "ticks": 5270,
          "time": 61.27906976744186,
          "velocity": 0.11811023622047244
        },
        {
          "duration": 0.02325581395349019,
          "durationTicks": 2,
          "midi": 53,
          "name": "F3",
          "ticks": 5271,
          "time": 61.2906976744186,
          "velocity": 0.4330708661417323
        },
        {
          "duration": 0.09302325581395365,
          "durationTicks": 8,
          "midi": 41,
          "name": "F2",
          "ticks": 5272,
          "time": 61.30232558139535,
          "velocity": 0.4409448818897638
        },
        {
          "duration": 0.13953488372092693,
          "durationTicks": 12,
          "midi": 69,
          "name": "A4",
          "ticks": 5277,
          "time": 61.36046511627907,
          "velocity": 0.44881889763779526
        },
        {
          "duration": 0.06976744186046346,
          "durationTicks": 6,
          "midi": 93,
          "name": "A6",
          "ticks": 5278,
          "time": 61.372093023255815,
          "velocity": 0.14960629921259844
        },
        {
          "duration": 0.03488372093023173,
          "durationTicks": 3,
          "midi": 57,
          "name": "A3",
          "ticks": 5279,
          "time": 61.383720930232556,
          "velocity": 0.4094488188976378
        },
        {
          "duration": 0.12790697674418539,
          "durationTicks": 11,
          "midi": 85,
          "name": "C#6",
          "ticks": 5279,
          "time": 61.383720930232556,
          "velocity": 0.1889763779527559
        },
        {
          "duration": 0.08139534883721211,
          "durationTicks": 7,
          "midi": 53,
          "name": "F3",
          "ticks": 5281,
          "time": 61.406976744186046,
          "velocity": 0.3464566929133858
        },
        {
          "duration": 0.32558139534883423,
          "durationTicks": 28,
          "midi": 72,
          "name": "C5",
          "ticks": 5281,
          "time": 61.406976744186046,
          "velocity": 0.1968503937007874
        },
        {
          "duration": 0.08139534883721211,
          "durationTicks": 7,
          "midi": 91,
          "name": "G6",
          "ticks": 5281,
          "time": 61.406976744186046,
          "velocity": 0.12598425196850394
        },
        {
          "duration": 0.05813953488372192,
          "durationTicks": 5,
          "midi": 41,
          "name": "F2",
          "ticks": 5283,
          "time": 61.43023255813954,
          "velocity": 0.30708661417322836
        },
        {
          "duration": 0.2906976744186025,
          "durationTicks": 25,
          "midi": 57,
          "name": "A3",
          "ticks": 5283,
          "time": 61.43023255813954,
          "velocity": 0.3858267716535433
        },
        {
          "duration": 0.2093023255813975,
          "durationTicks": 18,
          "midi": 76,
          "name": "E5",
          "ticks": 5289,
          "time": 61.5,
          "velocity": 0.12598425196850394
        },
        {
          "duration": 0.22093023255813904,
          "durationTicks": 19,
          "midi": 50,
          "name": "D3",
          "ticks": 5290,
          "time": 61.51162790697674,
          "velocity": 0.4645669291338583
        },
        {
          "duration": 0.4418604651162852,
          "durationTicks": 38,
          "midi": 66,
          "name": "F#4",
          "ticks": 5290,
          "time": 61.51162790697674,
          "velocity": 0.2677165354330709
        },
        {
          "duration": 0.046511627906973274,
          "durationTicks": 4,
          "midi": 39,
          "name": "D#2",
          "ticks": 5291,
          "time": 61.52325581395349,
          "velocity": 0.4566929133858268
        },
        {
          "duration": 0.06976744186047057,
          "durationTicks": 6,
          "midi": 85,
          "name": "C#6",
          "ticks": 5293,
          "time": 61.54651162790697,
          "velocity": 0.07874015748031496
        },
        {
          "duration": 0.1046511627906952,
          "durationTicks": 9,
          "midi": 80,
          "name": "G#5",
          "ticks": 5294,
          "time": 61.55813953488372,
          "velocity": 0.07874015748031496
        },
        {
          "duration": 0.08139534883721211,
          "durationTicks": 7,
          "midi": 38,
          "name": "D2",
          "ticks": 5295,
          "time": 61.56976744186046,
          "velocity": 0.3779527559055118
        },
        {
          "duration": 0.02325581395349019,
          "durationTicks": 2,
          "midi": 37,
          "name": "C#2",
          "ticks": 5302,
          "time": 61.651162790697676,
          "velocity": 0.23622047244094488
        },
        {
          "duration": 0.046511627906973274,
          "durationTicks": 4,
          "midi": 38,
          "name": "D2",
          "ticks": 5304,
          "time": 61.674418604651166,
          "velocity": 0.2755905511811024
        },
        {
          "duration": 0.2674418604651123,
          "durationTicks": 23,
          "midi": 69,
          "name": "A4",
          "ticks": 5307,
          "time": 61.7093023255814,
          "velocity": 0.4251968503937008
        },
        {
          "duration": 0.1046511627906952,
          "durationTicks": 9,
          "midi": 80,
          "name": "G#5",
          "ticks": 5308,
          "time": 61.72093023255814,
          "velocity": 0.1732283464566929
        },
        {
          "duration": 0.09302325581395365,
          "durationTicks": 8,
          "midi": 90,
          "name": "F#6",
          "ticks": 5308,
          "time": 61.72093023255814,
          "velocity": 0.11811023622047244
        },
        {
          "duration": 0.2093023255813975,
          "durationTicks": 18,
          "midi": 57,
          "name": "A3",
          "ticks": 5309,
          "time": 61.73255813953488,
          "velocity": 0.4330708661417323
        },
        {
          "duration": 0.1279069767441925,
          "durationTicks": 11,
          "midi": 85,
          "name": "C#6",
          "ticks": 5309,
          "time": 61.73255813953488,
          "velocity": 0.1968503937007874
        },
        {
          "duration": 0.1860465116279073,
          "durationTicks": 16,
          "midi": 95,
          "name": "B6",
          "ticks": 5309,
          "time": 61.73255813953488,
          "velocity": 0.12598425196850394
        },
        {
          "duration": 0.09302325581395365,
          "durationTicks": 8,
          "midi": 50,
          "name": "D3",
          "ticks": 5310,
          "time": 61.74418604651163,
          "velocity": 0.5039370078740157
        },
        {
          "duration": 0.046511627906973274,
          "durationTicks": 4,
          "midi": 84,
          "name": "C6",
          "ticks": 5310,
          "time": 61.74418604651163,
          "velocity": 0.08661417322834646
        },
        {
          "duration": 0.06976744186046346,
          "durationTicks": 6,
          "midi": 91,
          "name": "G6",
          "ticks": 5310,
          "time": 61.74418604651163,
          "velocity": 0.11811023622047244
        },
        {
          "duration": 0.03488372093023173,
          "durationTicks": 3,
          "midi": 39,
          "name": "D#2",
          "ticks": 5311,
          "time": 61.75581395348837,
          "velocity": 0.4881889763779528
        },
        {
          "duration": 0.19767441860465595,
          "durationTicks": 17,
          "midi": 72,
          "name": "C5",
          "ticks": 5311,
          "time": 61.75581395348837,
          "velocity": 0.16535433070866143
        },
        {
          "duration": 0.03488372093023173,
          "durationTicks": 3,
          "midi": 38,
          "name": "D2",
          "ticks": 5314,
          "time": 61.7906976744186,
          "velocity": 0.4251968503937008
        },
        {
          "duration": 0.38372093023256326,
          "durationTicks": 33,
          "midi": 76,
          "name": "E5",
          "ticks": 5317,
          "time": 61.825581395348834,
          "velocity": 0.14960629921259844
        },
        {
          "duration": 0.05813953488372192,
          "durationTicks": 5,
          "midi": 82,
          "name": "A#5",
          "ticks": 5317,
          "time": 61.825581395348834,
          "velocity": 0.12598425196850394
        },
        {
          "duration": 0.02325581395349019,
          "durationTicks": 2,
          "midi": 40,
          "name": "E2",
          "ticks": 5318,
          "time": 61.83720930232558,
          "velocity": 0.4881889763779528
        },
        {
          "duration": 0.09302325581395365,
          "durationTicks": 8,
          "midi": 50,
          "name": "D3",
          "ticks": 5319,
          "time": 61.848837209302324,
          "velocity": 0.4645669291338583
        },
        {
          "duration": 0.058139534883714816,
          "durationTicks": 5,
          "midi": 39,
          "name": "D#2",
          "ticks": 5320,
          "time": 61.86046511627907,
          "velocity": 0.44881889763779526
        },
        {
          "duration": 0.32558139534883423,
          "durationTicks": 28,
          "midi": 85,
          "name": "C#6",
          "ticks": 5324,
          "time": 61.906976744186046,
          "velocity": 0.25984251968503935
        },
        {
          "duration": 0.02325581395349019,
          "durationTicks": 2,
          "midi": 38,
          "name": "D2",
          "ticks": 5325,
          "time": 61.91860465116279,
          "velocity": 0.31496062992125984
        },
        {
          "duration": 0.023255813953483084,
          "durationTicks": 2,
          "midi": 58,
          "name": "A#3",
          "ticks": 5328,
          "time": 61.95348837209303,
          "velocity": 0.25196850393700787
        },
        {
          "duration": 0.23255813953488058,
          "durationTicks": 20,
          "midi": 61,
          "name": "C#4",
          "ticks": 5328,
          "time": 61.95348837209303,
          "velocity": 0.25196850393700787
        },
        {
          "duration": 0.03488372093023173,
          "durationTicks": 3,
          "midi": 74,
          "name": "D5",
          "ticks": 5328,
          "time": 61.95348837209303,
          "velocity": 0.2204724409448819
        },
        {
          "duration": 0.03488372093023173,
          "durationTicks": 3,
          "midi": 77,
          "name": "F5",
          "ticks": 5328,
          "time": 61.95348837209303,
          "velocity": 0.13385826771653545
        },
        {
          "duration": 0.24418604651162212,
          "durationTicks": 21,
          "midi": 79,
          "name": "G5",
          "ticks": 5328,
          "time": 61.95348837209303,
          "velocity": 0.16535433070866143
        },
        {
          "duration": 0.09302325581394655,
          "durationTicks": 8,
          "midi": 83,
          "name": "B5",
          "ticks": 5328,
          "time": 61.95348837209303,
          "velocity": 0.08661417322834646
        },
        {
          "duration": 0.046511627906973274,
          "durationTicks": 4,
          "midi": 84,
          "name": "C6",
          "ticks": 5328,
          "time": 61.95348837209303,
          "velocity": 0.08661417322834646
        },
        {
          "duration": 0.2093023255813975,
          "durationTicks": 18,
          "midi": 45,
          "name": "A2",
          "ticks": 5329,
          "time": 61.96511627906977,
          "velocity": 0.49606299212598426
        },
        {
          "duration": 0.4418604651162781,
          "durationTicks": 38,
          "midi": 67,
          "name": "G4",
          "ticks": 5329,
          "time": 61.96511627906977,
          "velocity": 0.23622047244094488
        },
        {
          "duration": 0.19767441860464885,
          "durationTicks": 17,
          "midi": 75,
          "name": "D#5",
          "ticks": 5331,
          "time": 61.98837209302326,
          "velocity": 0.2125984251968504
        },
        {
          "duration": 0.03488372093023884,
          "durationTicks": 3,
          "midi": 52,
          "name": "E3",
          "ticks": 5336,
          "time": 62.04651162790697,
          "velocity": 0.23622047244094488
        },
        {
          "duration": 0.08139534883721211,
          "durationTicks": 7,
          "midi": 52,
          "name": "E3",
          "ticks": 5340,
          "time": 62.093023255813954,
          "velocity": 0.2204724409448819
        },
        {
          "duration": 0.023255813953483084,
          "durationTicks": 2,
          "midi": 44,
          "name": "G#2",
          "ticks": 5347,
          "time": 62.174418604651166,
          "velocity": 0.44881889763779526
        },
        {
          "duration": 0.046511627906973274,
          "durationTicks": 4,
          "midi": 77,
          "name": "F5",
          "ticks": 5347,
          "time": 62.174418604651166,
          "velocity": 0.12598425196850394
        },
        {
          "duration": 0.22093023255813904,
          "durationTicks": 19,
          "midi": 55,
          "name": "G3",
          "ticks": 5348,
          "time": 62.18604651162791,
          "velocity": 0.3228346456692913
        },
        {
          "duration": 0.19767441860464885,
          "durationTicks": 17,
          "midi": 60,
          "name": "C4",
          "ticks": 5348,
          "time": 62.18604651162791,
          "velocity": 0.29133858267716534
        },
        {
          "duration": 0.22093023255813904,
          "durationTicks": 19,
          "midi": 64,
          "name": "E4",
          "ticks": 5348,
          "time": 62.18604651162791,
          "velocity": 0.1968503937007874
        },
        {
          "duration": 0.03488372093023173,
          "durationTicks": 3,
          "midi": 70,
          "name": "A#4",
          "ticks": 5348,
          "time": 62.18604651162791,
          "velocity": 0.1732283464566929
        },
        {
          "duration": 0.05813953488372192,
          "durationTicks": 5,
          "midi": 84,
          "name": "C6",
          "ticks": 5348,
          "time": 62.18604651162791,
          "velocity": 0.07086614173228346
        },
        {
          "duration": 0.046511627906973274,
          "durationTicks": 4,
          "midi": 95,
          "name": "B6",
          "ticks": 5348,
          "time": 62.18604651162791,
          "velocity": 0.07086614173228346
        },
        {
          "duration": 0.02325581395349019,
          "durationTicks": 2,
          "midi": 47,
          "name": "B2",
          "ticks": 5349,
          "time": 62.19767441860465,
          "velocity": 0.4881889763779528
        },
        {
          "duration": 0.04651162790698038,
          "durationTicks": 4,
          "midi": 74,
          "name": "D5",
          "ticks": 5349,
          "time": 62.19767441860465,
          "velocity": 0.14960629921259844
        },
        {
          "duration": 0.046511627906973274,
          "durationTicks": 4,
          "midi": 37,
          "name": "C#2",
          "ticks": 5350,
          "time": 62.2093023255814,
          "velocity": 0.4409448818897638
        },
        {
          "duration": 0.17441860465116577,
          "durationTicks": 15,
          "midi": 48,
          "name": "C3",
          "ticks": 5351,
          "time": 62.22093023255814,
          "velocity": 0.4251968503937008
        },
        {
          "duration": 0.11627906976744384,
          "durationTicks": 10,
          "midi": 78,
          "name": "F#5",
          "ticks": 5351,
          "time": 62.22093023255814,
          "velocity": 0.09448818897637795
        },
        {
          "duration": 0.03488372093023884,
          "durationTicks": 3,
          "midi": 83,
          "name": "B5",
          "ticks": 5352,
          "time": 62.23255813953488,
          "velocity": 0.07874015748031496
        },
        {
          "duration": 0.09302325581395365,
          "durationTicks": 8,
          "midi": 36,
          "name": "C2",
          "ticks": 5354,
          "time": 62.25581395348837,
          "velocity": 0.41732283464566927
        },
        {
          "duration": 0.09302325581395365,
          "durationTicks": 8,
          "midi": 74,
          "name": "D5",
          "ticks": 5354,
          "time": 62.25581395348837,
          "velocity": 0.10236220472440945
        },
        {
          "duration": 0.03488372093023173,
          "durationTicks": 3,
          "midi": 91,
          "name": "G6",
          "ticks": 5354,
          "time": 62.25581395348837,
          "velocity": 0.07874015748031496
        },
        {
          "duration": 0.02325581395349019,
          "durationTicks": 2,
          "midi": 35,
          "name": "B1",
          "ticks": 5362,
          "time": 62.348837209302324,
          "velocity": 0.25196850393700787
        },
        {
          "duration": 0.02325581395349019,
          "durationTicks": 2,
          "midi": 36,
          "name": "C2",
          "ticks": 5364,
          "time": 62.372093023255815,
          "velocity": 0.2677165354330709
        },
        {
          "duration": 0.13953488372092693,
          "durationTicks": 12,
          "midi": 69,
          "name": "A4",
          "ticks": 5367,
          "time": 62.406976744186046,
          "velocity": 0.1732283464566929
        },
        {
          "duration": 0.22093023255813904,
          "durationTicks": 19,
          "midi": 72,
          "name": "C5",
          "ticks": 5367,
          "time": 62.406976744186046,
          "velocity": 0.14960629921259844
        },
        {
          "duration": 0.04651162790698038,
          "durationTicks": 4,
          "midi": 80,
          "name": "G#5",
          "ticks": 5367,
          "time": 62.406976744186046,
          "velocity": 0.10236220472440945
        },
        {
          "duration": 0.03488372093023173,
          "durationTicks": 3,
          "midi": 91,
          "name": "G6",
          "ticks": 5367,
          "time": 62.406976744186046,
          "velocity": 0.07086614173228346
        },
        {
          "duration": 0.05813953488372192,
          "durationTicks": 5,
          "midi": 93,
          "name": "A6",
          "ticks": 5367,
          "time": 62.406976744186046,
          "velocity": 0.11023622047244094
        },
        {
          "duration": 0.4418604651162852,
          "durationTicks": 38,
          "midi": 50,
          "name": "D3",
          "ticks": 5368,
          "time": 62.41860465116279,
          "velocity": 0.4881889763779528
        },
        {
          "duration": 0.2093023255813975,
          "durationTicks": 18,
          "midi": 76,
          "name": "E5",
          "ticks": 5368,
          "time": 62.41860465116279,
          "velocity": 0.09448818897637795
        },
        {
          "duration": 0.11627906976743674,
          "durationTicks": 10,
          "midi": 38,
          "name": "D2",
          "ticks": 5369,
          "time": 62.43023255813954,
          "velocity": 0.44881889763779526
        },
        {
          "duration": 0.46511627906976827,
          "durationTicks": 40,
          "midi": 66,
          "name": "F#4",
          "ticks": 5369,
          "time": 62.43023255813954,
          "velocity": 0.2755905511811024
        },
        {
          "duration": 0.02325581395349019,
          "durationTicks": 2,
          "midi": 56,
          "name": "G#3",
          "ticks": 5370,
          "time": 62.44186046511628,
          "velocity": 0.2755905511811024
        },
        {
          "duration": 0.3953488372093048,
          "durationTicks": 34,
          "midi": 57,
          "name": "A3",
          "ticks": 5372,
          "time": 62.46511627906977,
          "velocity": 0.36220472440944884
        },
        {
          "duration": 0.09302325581395365,
          "durationTicks": 8,
          "midi": 80,
          "name": "G#5",
          "ticks": 5372,
          "time": 62.46511627906977,
          "velocity": 0.07086614173228346
        },
        {
          "duration": 0.03488372093023884,
          "durationTicks": 3,
          "midi": 37,
          "name": "C#2",
          "ticks": 5379,
          "time": 62.54651162790697,
          "velocity": 0.28346456692913385
        },
        {
          "duration": 0.046511627906973274,
          "durationTicks": 4,
          "midi": 38,
          "name": "D2",
          "ticks": 5382,
          "time": 62.58139534883721,
          "velocity": 0.2755905511811024
        },
        {
          "duration": 0.1860465116279073,
          "durationTicks": 16,
          "midi": 80,
          "name": "G#5",
          "ticks": 5386,
          "time": 62.627906976744185,
          "velocity": 0.14960629921259844
        },
        {
          "duration": 0.02325581395349019,
          "durationTicks": 2,
          "midi": 40,
          "name": "E2",
          "ticks": 5387,
          "time": 62.63953488372093,
          "velocity": 0.44881889763779526
        },
        {
          "duration": 0.08139534883721211,
          "durationTicks": 7,
          "midi": 90,
          "name": "F#6",
          "ticks": 5387,
          "time": 62.63953488372093,
          "velocity": 0.09448818897637795
        },
        {
          "duration": 0.1046511627907023,
          "durationTicks": 9,
          "midi": 93,
          "name": "A6",
          "ticks": 5387,
          "time": 62.63953488372093,
          "velocity": 0.12598425196850394
        },
        {
          "duration": 0.24418604651162923,
          "durationTicks": 21,
          "midi": 72,
          "name": "C5",
          "ticks": 5388,
          "time": 62.651162790697676,
          "velocity": 0.1732283464566929
        },
        {
          "duration": 0.02325581395349019,
          "durationTicks": 2,
          "midi": 39,
          "name": "D#2",
          "ticks": 5389,
          "time": 62.66279069767442,
          "velocity": 0.4645669291338583
        },
        {
          "duration": 0.1046511627906952,
          "durationTicks": 9,
          "midi": 38,
          "name": "D2",
          "ticks": 5391,
          "time": 62.68604651162791,
          "velocity": 0.4409448818897638
        },
        {
          "duration": 0.05813953488372192,
          "durationTicks": 5,
          "midi": 38,
          "name": "D2",
          "ticks": 5401,
          "time": 62.80232558139535,
          "velocity": 0.29133858267716534
        },
        {
          "duration": 0.4534883720930196,
          "durationTicks": 39,
          "midi": 74,
          "name": "D5",
          "ticks": 5406,
          "time": 62.86046511627907,
          "velocity": 0.5196850393700787
        },
        {
          "duration": 0.03488372093023173,
          "durationTicks": 3,
          "midi": 77,
          "name": "F5",
          "ticks": 5406,
          "time": 62.86046511627907,
          "velocity": 0.13385826771653545
        },
        {
          "duration": 0.27906976744185386,
          "durationTicks": 24,
          "midi": 81,
          "name": "A5",
          "ticks": 5406,
          "time": 62.86046511627907,
          "velocity": 0.23622047244094488
        },
        {
          "duration": 0.2906976744186025,
          "durationTicks": 25,
          "midi": 85,
          "name": "C#6",
          "ticks": 5406,
          "time": 62.86046511627907,
          "velocity": 0.2283464566929134
        },
        {
          "duration": 0.011627906976741542,
          "durationTicks": 1,
          "midi": 61,
          "name": "C#4",
          "ticks": 5407,
          "time": 62.872093023255815,
          "velocity": 0.5118110236220472
        },
        {
          "duration": 0.24418604651162923,
          "durationTicks": 21,
          "midi": 79,
          "name": "G5",
          "ticks": 5407,
          "time": 62.872093023255815,
          "velocity": 0.15748031496062992
        },
        {
          "duration": 0.2906976744186025,
          "durationTicks": 25,
          "midi": 90,
          "name": "F#6",
          "ticks": 5407,
          "time": 62.872093023255815,
          "velocity": 0.13385826771653545
        },
        {
          "duration": 0.05813953488372192,
          "durationTicks": 5,
          "midi": 96,
          "name": "C7",
          "ticks": 5407,
          "time": 62.872093023255815,
          "velocity": 0.18110236220472442
        },
        {
          "duration": 0.02325581395349019,
          "durationTicks": 2,
          "midi": 45,
          "name": "A2",
          "ticks": 5408,
          "time": 62.883720930232556,
          "velocity": 0.5039370078740157
        },
        {
          "duration": 0.22093023255813904,
          "durationTicks": 19,
          "midi": 62,
          "name": "D4",
          "ticks": 5408,
          "time": 62.883720930232556,
          "velocity": 0.5118110236220472
        },
        {
          "duration": 0.08139534883721211,
          "durationTicks": 7,
          "midi": 83,
          "name": "B5",
          "ticks": 5408,
          "time": 62.883720930232556,
          "velocity": 0.07086614173228346
        },
        {
          "duration": 0.4418604651162781,
          "durationTicks": 38,
          "midi": 67,
          "name": "G4",
          "ticks": 5409,
          "time": 62.895348837209305,
          "velocity": 0.2677165354330709
        },
        {
          "duration": 0.03488372093023173,
          "durationTicks": 3,
          "midi": 52,
          "name": "E3",
          "ticks": 5410,
          "time": 62.906976744186046,
          "velocity": 0.29133858267716534
        },
        {
          "duration": 0.17441860465116577,
          "durationTicks": 15,
          "midi": 45,
          "name": "A2",
          "ticks": 5411,
          "time": 62.91860465116279,
          "velocity": 0.4251968503937008
        },
        {
          "duration": 0.03488372093023173,
          "durationTicks": 3,
          "midi": 52,
          "name": "E3",
          "ticks": 5414,
          "time": 62.95348837209303,
          "velocity": 0.2755905511811024
        },
        {
          "duration": 0.09302325581395365,
          "durationTicks": 8,
          "midi": 52,
          "name": "E3",
          "ticks": 5418,
          "time": 63,
          "velocity": 0.2440944881889764
        },
        {
          "duration": 0.03488372093023173,
          "durationTicks": 3,
          "midi": 76,
          "name": "E5",
          "ticks": 5426,
          "time": 63.093023255813954,
          "velocity": 0.09448818897637795
        },
        {
          "duration": 0.046511627906973274,
          "durationTicks": 4,
          "midi": 77,
          "name": "F5",
          "ticks": 5426,
          "time": 63.093023255813954,
          "velocity": 0.12598425196850394
        },
        {
          "duration": 0.2093023255813975,
          "durationTicks": 18,
          "midi": 55,
          "name": "G3",
          "ticks": 5427,
          "time": 63.104651162790695,
          "velocity": 0.33858267716535434
        },
        {
          "duration": 0.22093023255813904,
          "durationTicks": 19,
          "midi": 70,
          "name": "A#4",
          "ticks": 5427,
          "time": 63.104651162790695,
          "velocity": 0.25984251968503935
        },
        {
          "duration": 0.04651162790698038,
          "durationTicks": 4,
          "midi": 84,
          "name": "C6",
          "ticks": 5427,
          "time": 63.104651162790695,
          "velocity": 0.07874015748031496
        },
        {
          "duration": 0.03488372093023173,
          "durationTicks": 3,
          "midi": 95,
          "name": "B6",
          "ticks": 5427,
          "time": 63.104651162790695,
          "velocity": 0.07874015748031496
        },
        {
          "duration": 0.023255813953483084,
          "durationTicks": 2,
          "midi": 47,
          "name": "B2",
          "ticks": 5428,
          "time": 63.116279069767444,
          "velocity": 0.4881889763779528
        },
        {
          "duration": 0.04651162790698038,
          "durationTicks": 4,
          "midi": 37,
          "name": "C#2",
          "ticks": 5429,
          "time": 63.127906976744185,
          "velocity": 0.4330708661417323
        },
        {
          "duration": 0.17441860465116577,
          "durationTicks": 15,
          "midi": 48,
          "name": "C3",
          "ticks": 5430,
          "time": 63.13953488372093,
          "velocity": 0.4251968503937008
        },
        {
          "duration": 0.11627906976744384,
          "durationTicks": 10,
          "midi": 78,
          "name": "F#5",
          "ticks": 5430,
          "time": 63.13953488372093,
          "velocity": 0.09448818897637795
        },
        {
          "duration": 0.02325581395349019,
          "durationTicks": 2,
          "midi": 62,
          "name": "D4",
          "ticks": 5431,
          "time": 63.151162790697676,
          "velocity": 0.29133858267716534
        },
        {
          "duration": 0.03488372093023173,
          "durationTicks": 3,
          "midi": 83,
          "name": "B5",
          "ticks": 5431,
          "time": 63.151162790697676,
          "velocity": 0.07086614173228346
        },
        {
          "duration": 0.09302325581395365,
          "durationTicks": 8,
          "midi": 36,
          "name": "C2",
          "ticks": 5433,
          "time": 63.174418604651166,
          "velocity": 0.41732283464566927
        },
        {
          "duration": 0.09302325581395365,
          "durationTicks": 8,
          "midi": 81,
          "name": "A5",
          "ticks": 5435,
          "time": 63.19767441860465,
          "velocity": 0.11023622047244094
        },
        {
          "duration": 0.046511627906973274,
          "durationTicks": 4,
          "midi": 62,
          "name": "D4",
          "ticks": 5436,
          "time": 63.2093023255814,
          "velocity": 0.2677165354330709
        },
        {
          "duration": 0.023255813953483084,
          "durationTicks": 2,
          "midi": 35,
          "name": "B1",
          "ticks": 5441,
          "time": 63.26744186046512,
          "velocity": 0.25196850393700787
        },
        {
          "duration": 0.02325581395349019,
          "durationTicks": 2,
          "midi": 36,
          "name": "C2",
          "ticks": 5443,
          "time": 63.2906976744186,
          "velocity": 0.2677165354330709
        },
        {
          "duration": 0.36046511627906597,
          "durationTicks": 31,
          "midi": 72,
          "name": "C5",
          "ticks": 5444,
          "time": 63.30232558139535,
          "velocity": 0.5354330708661418
        },
        {
          "duration": 0.02325581395349019,
          "durationTicks": 2,
          "midi": 59,
          "name": "B3",
          "ticks": 5445,
          "time": 63.31395348837209,
          "velocity": 0.4566929133858268
        },
        {
          "duration": 0.25581395348837077,
          "durationTicks": 22,
          "midi": 88,
          "name": "E6",
          "ticks": 5445,
          "time": 63.31395348837209,
          "velocity": 0.15748031496062992
        },
        {
          "duration": 0.4534883720930267,
          "durationTicks": 39,
          "midi": 69,
          "name": "A4",
          "ticks": 5446,
          "time": 63.325581395348834,
          "velocity": 0.29133858267716534
        },
        {
          "duration": 0.03488372093023884,
          "durationTicks": 3,
          "midi": 90,
          "name": "F#6",
          "ticks": 5446,
          "time": 63.325581395348834,
          "velocity": 0.12598425196850394
        },
        {
          "duration": 0.08139534883721211,
          "durationTicks": 7,
          "midi": 93,
          "name": "A6",
          "ticks": 5446,
          "time": 63.325581395348834,
          "velocity": 0.11023622047244094
        },
        {
          "duration": 0.08139534883721211,
          "durationTicks": 7,
          "midi": 94,
          "name": "A#6",
          "ticks": 5446,
          "time": 63.325581395348834,
          "velocity": 0.10236220472440945
        },
        {
          "duration": 0.43023255813953654,
          "durationTicks": 37,
          "midi": 50,
          "name": "D3",
          "ticks": 5447,
          "time": 63.33720930232558,
          "velocity": 0.4881889763779528
        },
        {
          "duration": 0.2093023255813904,
          "durationTicks": 18,
          "midi": 60,
          "name": "C4",
          "ticks": 5447,
          "time": 63.33720930232558,
          "velocity": 0.49606299212598426
        },
        {
          "duration": 0.2674418604651123,
          "durationTicks": 23,
          "midi": 66,
          "name": "F#4",
          "ticks": 5447,
          "time": 63.33720930232558,
          "velocity": 0.2677165354330709
        },
        {
          "duration": 0.17441860465115866,
          "durationTicks": 15,
          "midi": 76,
          "name": "E5",
          "ticks": 5447,
          "time": 63.33720930232558,
          "velocity": 0.07086614173228346
        },
        {
          "duration": 0.03488372093023173,
          "durationTicks": 3,
          "midi": 38,
          "name": "D2",
          "ticks": 5449,
          "time": 63.36046511627907,
          "velocity": 0.44881889763779526
        },
        {
          "duration": 0.05813953488372192,
          "durationTicks": 5,
          "midi": 38,
          "name": "D2",
          "ticks": 5453,
          "time": 63.406976744186046,
          "velocity": 0.33070866141732286
        },
        {
          "duration": 0.03488372093023173,
          "durationTicks": 3,
          "midi": 37,
          "name": "C#2",
          "ticks": 5458,
          "time": 63.46511627906977,
          "velocity": 0.2755905511811024
        },
        {
          "duration": 0.046511627906973274,
          "durationTicks": 4,
          "midi": 38,
          "name": "D2",
          "ticks": 5461,
          "time": 63.5,
          "velocity": 0.2755905511811024
        },
        {
          "duration": 0.4767441860465098,
          "durationTicks": 41,
          "midi": 57,
          "name": "A3",
          "ticks": 5465,
          "time": 63.54651162790697,
          "velocity": 0.3779527559055118
        },
        {
          "duration": 0.02325581395349019,
          "durationTicks": 2,
          "midi": 40,
          "name": "E2",
          "ticks": 5466,
          "time": 63.55813953488372,
          "velocity": 0.4409448818897638
        },
        {
          "duration": 0.03488372093023173,
          "durationTicks": 3,
          "midi": 80,
          "name": "G#5",
          "ticks": 5466,
          "time": 63.55813953488372,
          "velocity": 0.14960629921259844
        },
        {
          "duration": 0.081395348837205,
          "durationTicks": 7,
          "midi": 90,
          "name": "F#6",
          "ticks": 5466,
          "time": 63.55813953488372,
          "velocity": 0.09448818897637795
        },
        {
          "duration": 0.09302325581395365,
          "durationTicks": 8,
          "midi": 93,
          "name": "A6",
          "ticks": 5466,
          "time": 63.55813953488372,
          "velocity": 0.11811023622047244
        },
        {
          "duration": 0.023255813953483084,
          "durationTicks": 2,
          "midi": 39,
          "name": "D#2",
          "ticks": 5468,
          "time": 63.58139534883721,
          "velocity": 0.4645669291338583
        },
        {
          "duration": 0.4186046511627879,
          "durationTicks": 36,
          "midi": 76,
          "name": "E5",
          "ticks": 5469,
          "time": 63.593023255813954,
          "velocity": 0.5039370078740157
        },
        {
          "duration": 0.03488372093023173,
          "durationTicks": 3,
          "midi": 38,
          "name": "D2",
          "ticks": 5470,
          "time": 63.604651162790695,
          "velocity": 0.4409448818897638
        },
        {
          "duration": 0.03488372093023173,
          "durationTicks": 3,
          "midi": 80,
          "name": "G#5",
          "ticks": 5470,
          "time": 63.604651162790695,
          "velocity": 0.11023622047244094
        },
        {
          "duration": 0.2093023255813975,
          "durationTicks": 18,
          "midi": 92,
          "name": "G#6",
          "ticks": 5470,
          "time": 63.604651162790695,
          "velocity": 0.18110236220472442
        },
        {
          "duration": 0.2674418604651123,
          "durationTicks": 23,
          "midi": 64,
          "name": "E4",
          "ticks": 5471,
          "time": 63.616279069767444,
          "velocity": 0.5196850393700787
        },
        {
          "duration": 0.24418604651162923,
          "durationTicks": 21,
          "midi": 83,
          "name": "B5",
          "ticks": 5471,
          "time": 63.616279069767444,
          "velocity": 0.23622047244094488
        },
        {
          "duration": 0.081395348837205,
          "durationTicks": 7,
          "midi": 98,
          "name": "D7",
          "ticks": 5471,
          "time": 63.616279069767444,
          "velocity": 0.08661417322834646
        },
        {
          "duration": 0.1046511627906952,
          "durationTicks": 9,
          "midi": 100,
          "name": "E7",
          "ticks": 5471,
          "time": 63.616279069767444,
          "velocity": 0.11811023622047244
        },
        {
          "duration": 0.05813953488372192,
          "durationTicks": 5,
          "midi": 38,
          "name": "D2",
          "ticks": 5474,
          "time": 63.651162790697676,
          "velocity": 0.3779527559055118
        },
        {
          "duration": 0.06976744186047057,
          "durationTicks": 6,
          "midi": 72,
          "name": "C5",
          "ticks": 5478,
          "time": 63.69767441860465,
          "velocity": 0.11811023622047244
        },
        {
          "duration": 0.04651162790698038,
          "durationTicks": 4,
          "midi": 38,
          "name": "D2",
          "ticks": 5480,
          "time": 63.72093023255814,
          "velocity": 0.29133858267716534
        },
        {
          "duration": 0.058139534883714816,
          "durationTicks": 5,
          "midi": 84,
          "name": "C6",
          "ticks": 5484,
          "time": 63.76744186046512,
          "velocity": 0.11811023622047244
        },
        {
          "duration": 0.25581395348836367,
          "durationTicks": 22,
          "midi": 85,
          "name": "C#6",
          "ticks": 5484,
          "time": 63.76744186046512,
          "velocity": 0.2283464566929134
        },
        {
          "duration": 0.23255813953488058,
          "durationTicks": 20,
          "midi": 45,
          "name": "A2",
          "ticks": 5485,
          "time": 63.77906976744186,
          "velocity": 0.49606299212598426
        },
        {
          "duration": 0.22093023255813904,
          "durationTicks": 19,
          "midi": 79,
          "name": "G5",
          "ticks": 5485,
          "time": 63.77906976744186,
          "velocity": 0.16535433070866143
        },
        {
          "duration": 0.22093023255813904,
          "durationTicks": 19,
          "midi": 67,
          "name": "G4",
          "ticks": 5486,
          "time": 63.7906976744186,
          "velocity": 0.2125984251968504
        },
        {
          "duration": 0.023255813953483084,
          "durationTicks": 2,
          "midi": 61,
          "name": "C#4",
          "ticks": 5487,
          "time": 63.80232558139535,
          "velocity": 0.2677165354330709
        },
        {
          "duration": 0.19767441860464885,
          "durationTicks": 17,
          "midi": 75,
          "name": "D#5",
          "ticks": 5487,
          "time": 63.80232558139535,
          "velocity": 0.2283464566929134
        },
        {
          "duration": 0.02325581395349019,
          "durationTicks": 2,
          "midi": 52,
          "name": "E3",
          "ticks": 5490,
          "time": 63.83720930232558,
          "velocity": 0.23622047244094488
        },
        {
          "duration": 0.03488372093023173,
          "durationTicks": 3,
          "midi": 61,
          "name": "C#4",
          "ticks": 5490,
          "time": 63.83720930232558,
          "velocity": 0.2204724409448819
        },
        {
          "duration": 0.03488372093023173,
          "durationTicks": 3,
          "midi": 52,
          "name": "E3",
          "ticks": 5494,
          "time": 63.883720930232556,
          "velocity": 0.2283464566929134
        },
        {
          "duration": 0.13953488372092693,
          "durationTicks": 12,
          "midi": 61,
          "name": "C#4",
          "ticks": 5494,
          "time": 63.883720930232556,
          "velocity": 0.3543307086614173
        },
        {
          "duration": 0.081395348837205,
          "durationTicks": 7,
          "midi": 52,
          "name": "E3",
          "ticks": 5498,
          "time": 63.93023255813954,
          "velocity": 0.2204724409448819
        },
        {
          "duration": 0.6279069767441854,
          "durationTicks": 54,
          "midi": 74,
          "name": "D5",
          "ticks": 5504,
          "time": 64,
          "velocity": 0.49606299212598426
        },
        {
          "duration": 0.04651162790698038,
          "durationTicks": 4,
          "midi": 83,
          "name": "B5",
          "ticks": 5505,
          "time": 64.01162790697674,
          "velocity": 0.09448818897637795
        },
        {
          "duration": 0.24418604651162923,
          "durationTicks": 21,
          "midi": 90,
          "name": "F#6",
          "ticks": 5505,
          "time": 64.01162790697674,
          "velocity": 0.14960629921259844
        },
        {
          "duration": 0.2093023255814046,
          "durationTicks": 18,
          "midi": 48,
          "name": "C3",
          "ticks": 5506,
          "time": 64.02325581395348,
          "velocity": 0.44881889763779526
        },
        {
          "duration": 0.22093023255814614,
          "durationTicks": 19,
          "midi": 55,
          "name": "G3",
          "ticks": 5506,
          "time": 64.02325581395348,
          "velocity": 0.33858267716535434
        },
        {
          "duration": 0.4651162790697754,
          "durationTicks": 40,
          "midi": 62,
          "name": "D4",
          "ticks": 5506,
          "time": 64.02325581395348,
          "velocity": 0.5039370078740157
        },
        {
          "duration": 0.2093023255814046,
          "durationTicks": 18,
          "midi": 81,
          "name": "A5",
          "ticks": 5506,
          "time": 64.02325581395348,
          "velocity": 0.23622047244094488
        },
        {
          "duration": 0.09302325581396076,
          "durationTicks": 8,
          "midi": 91,
          "name": "G6",
          "ticks": 5506,
          "time": 64.02325581395348,
          "velocity": 0.13385826771653545
        },
        {
          "duration": 0.09302325581396076,
          "durationTicks": 8,
          "midi": 98,
          "name": "D7",
          "ticks": 5506,
          "time": 64.02325581395348,
          "velocity": 0.09448818897637795
        },
        {
          "duration": 0.023255813953483084,
          "durationTicks": 2,
          "midi": 69,
          "name": "A4",
          "ticks": 5507,
          "time": 64.03488372093024,
          "velocity": 0.2283464566929134
        },
        {
          "duration": 0.034883720930224626,
          "durationTicks": 3,
          "midi": 78,
          "name": "F#5",
          "ticks": 5508,
          "time": 64.04651162790698,
          "velocity": 0.08661417322834646
        },
        {
          "duration": 0.023255813953483084,
          "durationTicks": 2,
          "midi": 37,
          "name": "C#2",
          "ticks": 5510,
          "time": 64.06976744186046,
          "velocity": 0.4251968503937008
        },
        {
          "duration": 0.16279069767442422,
          "durationTicks": 14,
          "midi": 70,
          "name": "A#4",
          "ticks": 5511,
          "time": 64.0813953488372,
          "velocity": 0.1732283464566929
        },
        {
          "duration": 0.09302325581396076,
          "durationTicks": 8,
          "midi": 36,
          "name": "C2",
          "ticks": 5512,
          "time": 64.09302325581395,
          "velocity": 0.41732283464566927
        },
        {
          "duration": 0.023255813953483084,
          "durationTicks": 2,
          "midi": 35,
          "name": "B1",
          "ticks": 5520,
          "time": 64.18604651162791,
          "velocity": 0.25984251968503935
        },
        {
          "duration": 0.023255813953497295,
          "durationTicks": 2,
          "midi": 36,
          "name": "C2",
          "ticks": 5522,
          "time": 64.20930232558139,
          "velocity": 0.2677165354330709
        },
        {
          "duration": 0.16279069767441,
          "durationTicks": 14,
          "midi": 93,
          "name": "A6",
          "ticks": 5524,
          "time": 64.23255813953489,
          "velocity": 0.11023622047244094
        },
        {
          "duration": 0.46511627906976116,
          "durationTicks": 40,
          "midi": 69,
          "name": "A4",
          "ticks": 5525,
          "time": 64.24418604651163,
          "velocity": 0.2047244094488189
        },
        {
          "duration": 0.22093023255813193,
          "durationTicks": 19,
          "midi": 72,
          "name": "C5",
          "ticks": 5525,
          "time": 64.24418604651163,
          "velocity": 0.15748031496062992
        },
        {
          "duration": 0.04651162790698038,
          "durationTicks": 4,
          "midi": 80,
          "name": "G#5",
          "ticks": 5525,
          "time": 64.24418604651163,
          "velocity": 0.10236220472440945
        },
        {
          "duration": 0.22093023255814614,
          "durationTicks": 19,
          "midi": 50,
          "name": "D3",
          "ticks": 5526,
          "time": 64.25581395348837,
          "velocity": 0.4409448818897638
        },
        {
          "duration": 0.05813953488372192,
          "durationTicks": 5,
          "midi": 38,
          "name": "D2",
          "ticks": 5527,
          "time": 64.26744186046511,
          "velocity": 0.44881889763779526
        },
        {
          "duration": 0.2093023255814046,
          "durationTicks": 18,
          "midi": 66,
          "name": "F#4",
          "ticks": 5527,
          "time": 64.26744186046511,
          "velocity": 0.2204724409448819
        },
        {
          "duration": 0.19767441860466306,
          "durationTicks": 17,
          "midi": 57,
          "name": "A3",
          "ticks": 5528,
          "time": 64.27906976744185,
          "velocity": 0.33070866141732286
        },
        {
          "duration": 0.03488372093023884,
          "durationTicks": 3,
          "midi": 90,
          "name": "F#6",
          "ticks": 5528,
          "time": 64.27906976744185,
          "velocity": 0.13385826771653545
        },
        {
          "duration": 0.04651162790698038,
          "durationTicks": 4,
          "midi": 38,
          "name": "D2",
          "ticks": 5533,
          "time": 64.33720930232558,
          "velocity": 0.30708661417322836
        },
        {
          "duration": 0.034883720930224626,
          "durationTicks": 3,
          "midi": 90,
          "name": "F#6",
          "ticks": 5534,
          "time": 64.34883720930233,
          "velocity": 0.07874015748031496
        },
        {
          "duration": 0.03488372093023884,
          "durationTicks": 3,
          "midi": 37,
          "name": "C#2",
          "ticks": 5537,
          "time": 64.38372093023256,
          "velocity": 0.28346456692913385
        },
        {
          "duration": 0.06976744186046346,
          "durationTicks": 6,
          "midi": 38,
          "name": "D2",
          "ticks": 5540,
          "time": 64.4186046511628,
          "velocity": 0.36220472440944884
        },
        {
          "duration": 0.17441860465116577,
          "durationTicks": 15,
          "midi": 76,
          "name": "E5",
          "ticks": 5546,
          "time": 64.48837209302326,
          "velocity": 0.09448818897637795
        },
        {
          "duration": 0.034883720930224626,
          "durationTicks": 3,
          "midi": 79,
          "name": "G5",
          "ticks": 5546,
          "time": 64.48837209302326,
          "velocity": 0.07874015748031496
        },
        {
          "duration": 0.034883720930224626,
          "durationTicks": 3,
          "midi": 90,
          "name": "F#6",
          "ticks": 5546,
          "time": 64.48837209302326,
          "velocity": 0.14173228346456693
        },
        {
          "duration": 0.081395348837205,
          "durationTicks": 7,
          "midi": 93,
          "name": "A6",
          "ticks": 5546,
          "time": 64.48837209302326,
          "velocity": 0.13385826771653545
        },
        {
          "duration": 0.04651162790698038,
          "durationTicks": 4,
          "midi": 39,
          "name": "D#2",
          "ticks": 5547,
          "time": 64.5,
          "velocity": 0.4645669291338583
        },
        {
          "duration": 0.19767441860464885,
          "durationTicks": 17,
          "midi": 50,
          "name": "D3",
          "ticks": 5547,
          "time": 64.5,
          "velocity": 0.4251968503937008
        },
        {
          "duration": 0.19767441860464885,
          "durationTicks": 17,
          "midi": 57,
          "name": "A3",
          "ticks": 5547,
          "time": 64.5,
          "velocity": 0.25984251968503935
        },
        {
          "duration": 0.2093023255813904,
          "durationTicks": 18,
          "midi": 66,
          "name": "F#4",
          "ticks": 5547,
          "time": 64.5,
          "velocity": 0.18110236220472442
        },
        {
          "duration": 0.2093023255813904,
          "durationTicks": 18,
          "midi": 72,
          "name": "C5",
          "ticks": 5547,
          "time": 64.5,
          "velocity": 0.14960629921259844
        },
        {
          "duration": 0.09302325581394655,
          "durationTicks": 8,
          "midi": 38,
          "name": "D2",
          "ticks": 5551,
          "time": 64.54651162790698,
          "velocity": 0.4251968503937008
        },
        {
          "duration": 0.04651162790698038,
          "durationTicks": 4,
          "midi": 38,
          "name": "D2",
          "ticks": 5560,
          "time": 64.65116279069767,
          "velocity": 0.2755905511811024
        },
        {
          "duration": 0.17441860465116577,
          "durationTicks": 15,
          "midi": 74,
          "name": "D5",
          "ticks": 5564,
          "time": 64.69767441860465,
          "velocity": 0.30708661417322836
        },
        {
          "duration": 0.13953488372092693,
          "durationTicks": 12,
          "midi": 83,
          "name": "B5",
          "ticks": 5564,
          "time": 64.69767441860465,
          "velocity": 0.2125984251968504
        },
        {
          "duration": 0.05813953488372192,
          "durationTicks": 5,
          "midi": 90,
          "name": "F#6",
          "ticks": 5564,
          "time": 64.69767441860465,
          "velocity": 0.14173228346456693
        },
        {
          "duration": 0.023255813953497295,
          "durationTicks": 2,
          "midi": 44,
          "name": "G#2",
          "ticks": 5565,
          "time": 64.70930232558139,
          "velocity": 0.47244094488188976
        },
        {
          "duration": 0.09302325581396076,
          "durationTicks": 8,
          "midi": 71,
          "name": "B4",
          "ticks": 5565,
          "time": 64.70930232558139,
          "velocity": 0.13385826771653545
        },
        {
          "duration": 0.11627906976744384,
          "durationTicks": 10,
          "midi": 81,
          "name": "A5",
          "ticks": 5565,
          "time": 64.70930232558139,
          "velocity": 0.14173228346456693
        },
        {
          "duration": 0.16279069767442422,
          "durationTicks": 14,
          "midi": 89,
          "name": "F6",
          "ticks": 5565,
          "time": 64.70930232558139,
          "velocity": 0.1732283464566929
        },
        {
          "duration": 0.023255813953483084,
          "durationTicks": 2,
          "midi": 54,
          "name": "F#3",
          "ticks": 5566,
          "time": 64.72093023255815,
          "velocity": 0.4251968503937008
        },
        {
          "duration": 0.09302325581394655,
          "durationTicks": 8,
          "midi": 67,
          "name": "G4",
          "ticks": 5566,
          "time": 64.72093023255815,
          "velocity": 0.23622047244094488
        },
        {
          "duration": 0.12790697674418539,
          "durationTicks": 11,
          "midi": 77,
          "name": "F5",
          "ticks": 5566,
          "time": 64.72093023255815,
          "velocity": 0.2125984251968504
        },
        {
          "duration": 0.16279069767441,
          "durationTicks": 14,
          "midi": 85,
          "name": "C#6",
          "ticks": 5566,
          "time": 64.72093023255815,
          "velocity": 0.2125984251968504
        },
        {
          "duration": 0.04651162790696617,
          "durationTicks": 4,
          "midi": 98,
          "name": "D7",
          "ticks": 5567,
          "time": 64.73255813953489,
          "velocity": 0.09448818897637795
        },
        {
          "duration": 0.034883720930224626,
          "durationTicks": 3,
          "midi": 43,
          "name": "G2",
          "ticks": 5568,
          "time": 64.74418604651163,
          "velocity": 0.3937007874015748
        },
        {
          "duration": 0.081395348837205,
          "durationTicks": 7,
          "midi": 55,
          "name": "G3",
          "ticks": 5568,
          "time": 64.74418604651163,
          "velocity": 0.4251968503937008
        },
        {
          "duration": 0.023255813953483084,
          "durationTicks": 2,
          "midi": 43,
          "name": "G2",
          "ticks": 5572,
          "time": 64.79069767441861,
          "velocity": 0.3779527559055118
        },
        {
          "duration": 0.15116279069766847,
          "durationTicks": 13,
          "midi": 82,
          "name": "A#5",
          "ticks": 5574,
          "time": 64.81395348837209,
          "velocity": 0.1732283464566929
        },
        {
          "duration": 0.17441860465116577,
          "durationTicks": 15,
          "midi": 88,
          "name": "E6",
          "ticks": 5574,
          "time": 64.81395348837209,
          "velocity": 0.14960629921259844
        },
        {
          "duration": 0.023255813953497295,
          "durationTicks": 2,
          "midi": 41,
          "name": "F2",
          "ticks": 5576,
          "time": 64.83720930232558,
          "velocity": 0.41732283464566927
        },
        {
          "duration": 0.08139534883721922,
          "durationTicks": 7,
          "midi": 66,
          "name": "F#4",
          "ticks": 5576,
          "time": 64.83720930232558,
          "velocity": 0.1732283464566929
        },
        {
          "duration": 0.2906976744186096,
          "durationTicks": 25,
          "midi": 84,
          "name": "C6",
          "ticks": 5576,
          "time": 64.83720930232558,
          "velocity": 0.1732283464566929
        },
        {
          "duration": 0.06976744186046346,
          "durationTicks": 6,
          "midi": 54,
          "name": "F#3",
          "ticks": 5577,
          "time": 64.84883720930233,
          "velocity": 0.41732283464566927
        },
        {
          "duration": 0.023255813953483084,
          "durationTicks": 2,
          "midi": 42,
          "name": "F#2",
          "ticks": 5578,
          "time": 64.86046511627907,
          "velocity": 0.3228346456692913
        },
        {
          "duration": 0.05813953488372192,
          "durationTicks": 5,
          "midi": 61,
          "name": "C#4",
          "ticks": 5578,
          "time": 64.86046511627907,
          "velocity": 0.2204724409448819
        },
        {
          "duration": 0.04651162790698038,
          "durationTicks": 4,
          "midi": 42,
          "name": "F#2",
          "ticks": 5581,
          "time": 64.8953488372093,
          "velocity": 0.4881889763779528
        },
        {
          "duration": 0.11627906976744384,
          "durationTicks": 10,
          "midi": 64,
          "name": "E4",
          "ticks": 5583,
          "time": 64.9186046511628,
          "velocity": 0.25196850393700787
        },
        {
          "duration": 0.11627906976744384,
          "durationTicks": 10,
          "midi": 59,
          "name": "B3",
          "ticks": 5584,
          "time": 64.93023255813954,
          "velocity": 0.30708661417322836
        },
        {
          "duration": 0.12790697674418539,
          "durationTicks": 11,
          "midi": 68,
          "name": "G#4",
          "ticks": 5584,
          "time": 64.93023255813954,
          "velocity": 0.25196850393700787
        },
        {
          "duration": 0.09302325581394655,
          "durationTicks": 8,
          "midi": 95,
          "name": "B6",
          "ticks": 5584,
          "time": 64.93023255813954,
          "velocity": 0.10236220472440945
        },
        {
          "duration": 0.03488372093023884,
          "durationTicks": 3,
          "midi": 41,
          "name": "F2",
          "ticks": 5585,
          "time": 64.94186046511628,
          "velocity": 0.49606299212598426
        },
        {
          "duration": 0.023255813953483084,
          "durationTicks": 2,
          "midi": 51,
          "name": "D#3",
          "ticks": 5585,
          "time": 64.94186046511628,
          "velocity": 0.41732283464566927
        },
        {
          "duration": 0.04651162790698038,
          "durationTicks": 4,
          "midi": 86,
          "name": "D6",
          "ticks": 5585,
          "time": 64.94186046511628,
          "velocity": 0.07874015748031496
        },
        {
          "duration": 0.13953488372092693,
          "durationTicks": 12,
          "midi": 74,
          "name": "D5",
          "ticks": 5586,
          "time": 64.95348837209302,
          "velocity": 0.14173228346456693
        },
        {
          "duration": 0.08139534883721922,
          "durationTicks": 7,
          "midi": 78,
          "name": "F#5",
          "ticks": 5586,
          "time": 64.95348837209302,
          "velocity": 0.07086614173228346
        },
        {
          "duration": 0.08139534883721922,
          "durationTicks": 7,
          "midi": 52,
          "name": "E3",
          "ticks": 5587,
          "time": 64.96511627906976,
          "velocity": 0.4251968503937008
        },
        {
          "duration": 0.06976744186046346,
          "durationTicks": 6,
          "midi": 40,
          "name": "E2",
          "ticks": 5588,
          "time": 64.97674418604652,
          "velocity": 0.4409448818897638
        },
        {
          "duration": 0.06976744186046346,
          "durationTicks": 6,
          "midi": 82,
          "name": "A#5",
          "ticks": 5588,
          "time": 64.97674418604652,
          "velocity": 0.16535433070866143
        },
        {
          "duration": 0.3372093023255758,
          "durationTicks": 29,
          "midi": 62,
          "name": "D4",
          "ticks": 5594,
          "time": 65.04651162790698,
          "velocity": 0.5511811023622047
        },
        {
          "duration": 0.11627906976744384,
          "durationTicks": 10,
          "midi": 66,
          "name": "F#4",
          "ticks": 5594,
          "time": 65.04651162790698,
          "velocity": 0.2204724409448819
        },
        {
          "duration": 0.081395348837205,
          "durationTicks": 7,
          "midi": 93,
          "name": "A6",
          "ticks": 5594,
          "time": 65.04651162790698,
          "velocity": 0.13385826771653545
        },
        {
          "duration": 0.023255813953483084,
          "durationTicks": 2,
          "midi": 49,
          "name": "C#3",
          "ticks": 5595,
          "time": 65.05813953488372,
          "velocity": 0.4094488188976378
        },
        {
          "duration": 0.09302325581394655,
          "durationTicks": 8,
          "midi": 57,
          "name": "A3",
          "ticks": 5595,
          "time": 65.05813953488372,
          "velocity": 0.31496062992125984
        },
        {
          "duration": 0.09302325581394655,
          "durationTicks": 8,
          "midi": 76,
          "name": "E5",
          "ticks": 5595,
          "time": 65.05813953488372,
          "velocity": 0.12598425196850394
        },
        {
          "duration": 0.023255813953483084,
          "durationTicks": 2,
          "midi": 39,
          "name": "D#2",
          "ticks": 5596,
          "time": 65.06976744186046,
          "velocity": 0.47244094488188976
        },
        {
          "duration": 0.09302325581396076,
          "durationTicks": 8,
          "midi": 72,
          "name": "C5",
          "ticks": 5596,
          "time": 65.06976744186046,
          "velocity": 0.14960629921259844
        },
        {
          "duration": 0.03488372093023884,
          "durationTicks": 3,
          "midi": 50,
          "name": "D3",
          "ticks": 5597,
          "time": 65.0813953488372,
          "velocity": 0.4566929133858268
        },
        {
          "duration": 0.05813953488372192,
          "durationTicks": 5,
          "midi": 80,
          "name": "G#5",
          "ticks": 5597,
          "time": 65.0813953488372,
          "velocity": 0.09448818897637795
        },
        {
          "duration": 0.023255813953483084,
          "durationTicks": 2,
          "midi": 39,
          "name": "D#2",
          "ticks": 5599,
          "time": 65.1046511627907,
          "velocity": 0.4330708661417323
        },
        {
          "duration": 0.023255813953483084,
          "durationTicks": 2,
          "midi": 38,
          "name": "D2",
          "ticks": 5601,
          "time": 65.12790697674419,
          "velocity": 0.36220472440944884
        },
        {
          "duration": 0.3720930232558146,
          "durationTicks": 32,
          "midi": 50,
          "name": "D3",
          "ticks": 5601,
          "time": 65.12790697674419,
          "velocity": 0.5039370078740157
        },
        {
          "duration": 0.19767441860466306,
          "durationTicks": 17,
          "midi": 80,
          "name": "G#5",
          "ticks": 5603,
          "time": 65.15116279069767,
          "velocity": 0.18110236220472442
        },
        {
          "duration": 0.08139534883721922,
          "durationTicks": 7,
          "midi": 85,
          "name": "C#6",
          "ticks": 5603,
          "time": 65.15116279069767,
          "velocity": 0.11023622047244094
        },
        {
          "duration": 0.034883720930224626,
          "durationTicks": 3,
          "midi": 78,
          "name": "F#5",
          "ticks": 5604,
          "time": 65.16279069767442,
          "velocity": 0.07874015748031496
        },
        {
          "duration": 0.081395348837205,
          "durationTicks": 7,
          "midi": 84,
          "name": "C6",
          "ticks": 5604,
          "time": 65.16279069767442,
          "velocity": 0.11023622047244094
        },
        {
          "duration": 0.25581395348837077,
          "durationTicks": 22,
          "midi": 90,
          "name": "F#6",
          "ticks": 5604,
          "time": 65.16279069767442,
          "velocity": 0.2047244094488189
        },
        {
          "duration": 0.023255813953483084,
          "durationTicks": 2,
          "midi": 40,
          "name": "E2",
          "ticks": 5605,
          "time": 65.17441860465117,
          "velocity": 0.4251968503937008
        },
        {
          "duration": 0.3372093023255758,
          "durationTicks": 29,
          "midi": 72,
          "name": "C5",
          "ticks": 5605,
          "time": 65.17441860465117,
          "velocity": 0.5275590551181102
        },
        {
          "duration": 0.17441860465116577,
          "durationTicks": 15,
          "midi": 76,
          "name": "E5",
          "ticks": 5606,
          "time": 65.18604651162791,
          "velocity": 0.10236220472440945
        },
        {
          "duration": 0.023255813953497295,
          "durationTicks": 2,
          "midi": 39,
          "name": "D#2",
          "ticks": 5607,
          "time": 65.19767441860465,
          "velocity": 0.3779527559055118
        },
        {
          "duration": 0.19767441860464885,
          "durationTicks": 17,
          "midi": 57,
          "name": "A3",
          "ticks": 5607,
          "time": 65.19767441860465,
          "velocity": 0.41732283464566927
        },
        {
          "duration": 0.418604651162795,
          "durationTicks": 36,
          "midi": 66,
          "name": "F#4",
          "ticks": 5607,
          "time": 65.19767441860465,
          "velocity": 0.30708661417322836
        },
        {
          "duration": 0.023255813953483084,
          "durationTicks": 2,
          "midi": 38,
          "name": "D2",
          "ticks": 5611,
          "time": 65.24418604651163,
          "velocity": 0.33858267716535434
        },
        {
          "duration": 0.03488372093023884,
          "durationTicks": 3,
          "midi": 38,
          "name": "D2",
          "ticks": 5614,
          "time": 65.27906976744185,
          "velocity": 0.25984251968503935
        },
        {
          "duration": 0.04651162790698038,
          "durationTicks": 4,
          "midi": 38,
          "name": "D2",
          "ticks": 5619,
          "time": 65.33720930232558,
          "velocity": 0.2677165354330709
        },
        {
          "duration": 0.15116279069768268,
          "durationTicks": 13,
          "midi": 88,
          "name": "E6",
          "ticks": 5623,
          "time": 65.38372093023256,
          "velocity": 0.16535433070866143
        },
        {
          "duration": 0.11627906976744384,
          "durationTicks": 10,
          "midi": 60,
          "name": "C4",
          "ticks": 5624,
          "time": 65.3953488372093,
          "velocity": 0.5196850393700787
        },
        {
          "duration": 0.1860465116279073,
          "durationTicks": 16,
          "midi": 79,
          "name": "G5",
          "ticks": 5624,
          "time": 65.3953488372093,
          "velocity": 0.29133858267716534
        },
        {
          "duration": 0.1046511627907023,
          "durationTicks": 9,
          "midi": 94,
          "name": "A#6",
          "ticks": 5624,
          "time": 65.3953488372093,
          "velocity": 0.08661417322834646
        },
        {
          "duration": 0.034883720930224626,
          "durationTicks": 3,
          "midi": 39,
          "name": "D#2",
          "ticks": 5625,
          "time": 65.40697674418605,
          "velocity": 0.4566929133858268
        },
        {
          "duration": 0.04651162790696617,
          "durationTicks": 4,
          "midi": 74,
          "name": "D5",
          "ticks": 5625,
          "time": 65.40697674418605,
          "velocity": 0.2125984251968504
        },
        {
          "duration": 0.04651162790698038,
          "durationTicks": 4,
          "midi": 38,
          "name": "D2",
          "ticks": 5628,
          "time": 65.44186046511628,
          "velocity": 0.4409448818897638
        },
        {
          "duration": 0.03488372093023884,
          "durationTicks": 3,
          "midi": 90,
          "name": "F#6",
          "ticks": 5628,
          "time": 65.44186046511628,
          "velocity": 0.09448818897637795
        },
        {
          "duration": 0.034883720930224626,
          "durationTicks": 3,
          "midi": 57,
          "name": "A3",
          "ticks": 5631,
          "time": 65.47674418604652,
          "velocity": 0.4015748031496063
        },
        {
          "duration": 0.1860465116279073,
          "durationTicks": 16,
          "midi": 83,
          "name": "B5",
          "ticks": 5632,
          "time": 65.48837209302326,
          "velocity": 0.2440944881889764
        },
        {
          "duration": 0.13953488372092693,
          "durationTicks": 12,
          "midi": 90,
          "name": "F#6",
          "ticks": 5632,
          "time": 65.48837209302326,
          "velocity": 0.12598425196850394
        },
        {
          "duration": 0.023255813953483084,
          "durationTicks": 2,
          "midi": 40,
          "name": "E2",
          "ticks": 5633,
          "time": 65.5,
          "velocity": 0.49606299212598426
        },
        {
          "duration": 0.023255813953483084,
          "durationTicks": 2,
          "midi": 71,
          "name": "B4",
          "ticks": 5633,
          "time": 65.5,
          "velocity": 0.4566929133858268
        },
        {
          "duration": 0.15116279069766847,
          "durationTicks": 13,
          "midi": 76,
          "name": "E5",
          "ticks": 5633,
          "time": 65.5,
          "velocity": 0.15748031496062992
        },
        {
          "duration": 0.418604651162795,
          "durationTicks": 36,
          "midi": 85,
          "name": "C#6",
          "ticks": 5633,
          "time": 65.5,
          "velocity": 0.2440944881889764
        },
        {
          "duration": 0.11627906976744384,
          "durationTicks": 10,
          "midi": 87,
          "name": "D#6",
          "ticks": 5633,
          "time": 65.5,
          "velocity": 0.18110236220472442
        },
        {
          "duration": 0.09302325581396076,
          "durationTicks": 8,
          "midi": 50,
          "name": "D3",
          "ticks": 5634,
          "time": 65.51162790697674,
          "velocity": 0.48031496062992124
        },
        {
          "duration": 0.03488372093023884,
          "durationTicks": 3,
          "midi": 57,
          "name": "A3",
          "ticks": 5635,
          "time": 65.52325581395348,
          "velocity": 0.3937007874015748
        },
        {
          "duration": 0.03488372093023884,
          "durationTicks": 3,
          "midi": 72,
          "name": "C5",
          "ticks": 5635,
          "time": 65.52325581395348,
          "velocity": 0.44881889763779526
        },
        {
          "duration": 0.023255813953483084,
          "durationTicks": 2,
          "midi": 39,
          "name": "D#2",
          "ticks": 5637,
          "time": 65.54651162790698,
          "velocity": 0.4251968503937008
        },
        {
          "duration": 0.05813953488372192,
          "durationTicks": 5,
          "midi": 71,
          "name": "B4",
          "ticks": 5638,
          "time": 65.55813953488372,
          "velocity": 0.3543307086614173
        },
        {
          "duration": 0.03488372093023884,
          "durationTicks": 3,
          "midi": 38,
          "name": "D2",
          "ticks": 5639,
          "time": 65.56976744186046,
          "velocity": 0.33858267716535434
        },
        {
          "duration": 0.04651162790698038,
          "durationTicks": 4,
          "midi": 93,
          "name": "A6",
          "ticks": 5639,
          "time": 65.56976744186046,
          "velocity": 0.12598425196850394
        },
        {
          "duration": 0.23255813953487348,
          "durationTicks": 20,
          "midi": 79,
          "name": "G5",
          "ticks": 5642,
          "time": 65.6046511627907,
          "velocity": 0.2992125984251969
        },
        {
          "duration": 0.04651162790696617,
          "durationTicks": 4,
          "midi": 84,
          "name": "C6",
          "ticks": 5642,
          "time": 65.6046511627907,
          "velocity": 0.18110236220472442
        },
        {
          "duration": 0.24418604651162923,
          "durationTicks": 21,
          "midi": 60,
          "name": "C4",
          "ticks": 5643,
          "time": 65.61627906976744,
          "velocity": 0.5196850393700787
        },
        {
          "duration": 0.034883720930224626,
          "durationTicks": 3,
          "midi": 67,
          "name": "G4",
          "ticks": 5643,
          "time": 65.61627906976744,
          "velocity": 0.25984251968503935
        },
        {
          "duration": 0.25581395348837077,
          "durationTicks": 22,
          "midi": 88,
          "name": "E6",
          "ticks": 5643,
          "time": 65.61627906976744,
          "velocity": 0.1732283464566929
        },
        {
          "duration": 0.09302325581394655,
          "durationTicks": 8,
          "midi": 94,
          "name": "A#6",
          "ticks": 5643,
          "time": 65.61627906976744,
          "velocity": 0.07874015748031496
        },
        {
          "duration": 0.22093023255814614,
          "durationTicks": 19,
          "midi": 45,
          "name": "A2",
          "ticks": 5644,
          "time": 65.62790697674419,
          "velocity": 0.4881889763779528
        },
        {
          "duration": 0.023255813953497295,
          "durationTicks": 2,
          "midi": 52,
          "name": "E3",
          "ticks": 5646,
          "time": 65.65116279069767,
          "velocity": 0.30708661417322836
        },
        {
          "duration": 0.19767441860466306,
          "durationTicks": 17,
          "midi": 75,
          "name": "D#5",
          "ticks": 5646,
          "time": 65.65116279069767,
          "velocity": 0.2125984251968504
        },
        {
          "duration": 0.1860465116279073,
          "durationTicks": 16,
          "midi": 67,
          "name": "G4",
          "ticks": 5647,
          "time": 65.66279069767442,
          "velocity": 0.18110236220472442
        },
        {
          "duration": 0.06976744186046346,
          "durationTicks": 6,
          "midi": 96,
          "name": "C7",
          "ticks": 5647,
          "time": 65.66279069767442,
          "velocity": 0.13385826771653545
        },
        {
          "duration": 0.13953488372094114,
          "durationTicks": 12,
          "midi": 52,
          "name": "E3",
          "ticks": 5651,
          "time": 65.70930232558139,
          "velocity": 0.25196850393700787
        },
        {
          "duration": 0.034883720930224626,
          "durationTicks": 3,
          "midi": 83,
          "name": "B5",
          "ticks": 5652,
          "time": 65.72093023255815,
          "velocity": 0.07086614173228346
        },
        {
          "duration": 0.24418604651161502,
          "durationTicks": 21,
          "midi": 64,
          "name": "E4",
          "ticks": 5663,
          "time": 65.84883720930233,
          "velocity": 0.2283464566929134
        },
        {
          "duration": 0.19767441860464885,
          "durationTicks": 17,
          "midi": 91,
          "name": "G6",
          "ticks": 5663,
          "time": 65.84883720930233,
          "velocity": 0.15748031496062992
        },
        {
          "duration": 0.081395348837205,
          "durationTicks": 7,
          "midi": 48,
          "name": "C3",
          "ticks": 5664,
          "time": 65.86046511627907,
          "velocity": 0.4566929133858268
        },
        {
          "duration": 0.10465116279068809,
          "durationTicks": 9,
          "midi": 67,
          "name": "G4",
          "ticks": 5664,
          "time": 65.86046511627907,
          "velocity": 0.23622047244094488
        },
        {
          "duration": 0.10465116279068809,
          "durationTicks": 9,
          "midi": 71,
          "name": "B4",
          "ticks": 5664,
          "time": 65.86046511627907,
          "velocity": 0.4409448818897638
        },
        {
          "duration": 0.04651162790698038,
          "durationTicks": 4,
          "midi": 74,
          "name": "D5",
          "ticks": 5664,
          "time": 65.86046511627907,
          "velocity": 0.15748031496062992
        },
        {
          "duration": 0.05813953488372192,
          "durationTicks": 5,
          "midi": 78,
          "name": "F#5",
          "ticks": 5664,
          "time": 65.86046511627907,
          "velocity": 0.14173228346456693
        },
        {
          "duration": 0.12790697674418539,
          "durationTicks": 11,
          "midi": 87,
          "name": "D#6",
          "ticks": 5664,
          "time": 65.86046511627907,
          "velocity": 0.18110236220472442
        },
        {
          "duration": 0.03488372093023884,
          "durationTicks": 3,
          "midi": 80,
          "name": "G#5",
          "ticks": 5665,
          "time": 65.87209302325581,
          "velocity": 0.07086614173228346
        },
        {
          "duration": 0.05813953488372192,
          "durationTicks": 5,
          "midi": 82,
          "name": "A#5",
          "ticks": 5665,
          "time": 65.87209302325581,
          "velocity": 0.07874015748031496
        },
        {
          "duration": 0.12790697674418539,
          "durationTicks": 11,
          "midi": 93,
          "name": "A6",
          "ticks": 5665,
          "time": 65.87209302325581,
          "velocity": 0.10236220472440945
        },
        {
          "duration": 0.03488372093023884,
          "durationTicks": 3,
          "midi": 37,
          "name": "C#2",
          "ticks": 5666,
          "time": 65.88372093023256,
          "velocity": 0.4409448818897638
        },
        {
          "duration": 0.06976744186046346,
          "durationTicks": 6,
          "midi": 55,
          "name": "G3",
          "ticks": 5667,
          "time": 65.8953488372093,
          "velocity": 0.3700787401574803
        },
        {
          "duration": 0.05813953488372192,
          "durationTicks": 5,
          "midi": 36,
          "name": "C2",
          "ticks": 5669,
          "time": 65.9186046511628,
          "velocity": 0.4251968503937008
        },
        {
          "duration": 0.05813953488372192,
          "durationTicks": 5,
          "midi": 74,
          "name": "D5",
          "ticks": 5670,
          "time": 65.93023255813954,
          "velocity": 0.1732283464566929
        },
        {
          "duration": 0.03488372093023884,
          "durationTicks": 3,
          "midi": 78,
          "name": "F#5",
          "ticks": 5671,
          "time": 65.94186046511628,
          "velocity": 0.09448818897637795
        },
        {
          "duration": 0.2093023255814046,
          "durationTicks": 18,
          "midi": 81,
          "name": "A5",
          "ticks": 5672,
          "time": 65.95348837209302,
          "velocity": 0.25196850393700787
        },
        {
          "duration": 0.11627906976744384,
          "durationTicks": 10,
          "midi": 85,
          "name": "C#6",
          "ticks": 5673,
          "time": 65.96511627906976,
          "velocity": 0.1732283464566929
        },
        {
          "duration": 0.09302325581394655,
          "durationTicks": 8,
          "midi": 69,
          "name": "A4",
          "ticks": 5674,
          "time": 65.97674418604652,
          "velocity": 0.44881889763779526
        },
        {
          "duration": 0.034883720930224626,
          "durationTicks": 3,
          "midi": 78,
          "name": "F#5",
          "ticks": 5675,
          "time": 65.98837209302326,
          "velocity": 0.08661417322834646
        },
        {
          "duration": 0.03488372093023884,
          "durationTicks": 3,
          "midi": 36,
          "name": "C2",
          "ticks": 5677,
          "time": 66.01162790697674,
          "velocity": 0.30708661417322836
        },
        {
          "duration": 0.023255813953483084,
          "durationTicks": 2,
          "midi": 57,
          "name": "A3",
          "ticks": 5679,
          "time": 66.03488372093024,
          "velocity": 0.33070866141732286
        },
        {
          "duration": 0.2325581395348877,
          "durationTicks": 20,
          "midi": 71,
          "name": "B4",
          "ticks": 5682,
          "time": 66.06976744186046,
          "velocity": 0.47244094488188976
        },
        {
          "duration": 0.15116279069768268,
          "durationTicks": 13,
          "midi": 90,
          "name": "F#6",
          "ticks": 5682,
          "time": 66.06976744186046,
          "velocity": 0.1732283464566929
        },
        {
          "duration": 0.04651162790698038,
          "durationTicks": 4,
          "midi": 80,
          "name": "G#5",
          "ticks": 5683,
          "time": 66.0813953488372,
          "velocity": 0.10236220472440945
        },
        {
          "duration": 0.16279069767442422,
          "durationTicks": 14,
          "midi": 87,
          "name": "D#6",
          "ticks": 5683,
          "time": 66.0813953488372,
          "velocity": 0.1968503937007874
        },
        {
          "duration": 0.22093023255814614,
          "durationTicks": 19,
          "midi": 50,
          "name": "D3",
          "ticks": 5684,
          "time": 66.09302325581395,
          "velocity": 0.44881889763779526
        },
        {
          "duration": 0.023255813953497295,
          "durationTicks": 2,
          "midi": 58,
          "name": "A#3",
          "ticks": 5684,
          "time": 66.09302325581395,
          "velocity": 0.4330708661417323
        },
        {
          "duration": 0.33720930232559,
          "durationTicks": 29,
          "midi": 66,
          "name": "F#4",
          "ticks": 5684,
          "time": 66.09302325581395,
          "velocity": 0.25984251968503935
        },
        {
          "duration": 0.15116279069768268,
          "durationTicks": 13,
          "midi": 97,
          "name": "C#7",
          "ticks": 5684,
          "time": 66.09302325581395,
          "velocity": 0.14960629921259844
        },
        {
          "duration": 0.023255813953483084,
          "durationTicks": 2,
          "midi": 38,
          "name": "D2",
          "ticks": 5685,
          "time": 66.1046511627907,
          "velocity": 0.44881889763779526
        },
        {
          "duration": 0.023255813953483084,
          "durationTicks": 2,
          "midi": 57,
          "name": "A3",
          "ticks": 5686,
          "time": 66.11627906976744,
          "velocity": 0.3858267716535433
        },
        {
          "duration": 0.023255813953497295,
          "durationTicks": 2,
          "midi": 38,
          "name": "D2",
          "ticks": 5688,
          "time": 66.13953488372093,
          "velocity": 0.4330708661417323
        },
        {
          "duration": 0.09302325581396076,
          "durationTicks": 8,
          "midi": 80,
          "name": "G#5",
          "ticks": 5688,
          "time": 66.13953488372093,
          "velocity": 0.07874015748031496
        },
        {
          "duration": 0.05813953488372192,
          "durationTicks": 5,
          "midi": 85,
          "name": "C#6",
          "ticks": 5688,
          "time": 66.13953488372093,
          "velocity": 0.07874015748031496
        },
        {
          "duration": 0.04651162790698038,
          "durationTicks": 4,
          "midi": 38,
          "name": "D2",
          "ticks": 5691,
          "time": 66.17441860465117,
          "velocity": 0.30708661417322836
        },
        {
          "duration": 0.06976744186046346,
          "durationTicks": 6,
          "midi": 57,
          "name": "A3",
          "ticks": 5691,
          "time": 66.17441860465117,
          "velocity": 0.3228346456692913
        },
        {
          "duration": 0.034883720930224626,
          "durationTicks": 3,
          "midi": 37,
          "name": "C#2",
          "ticks": 5695,
          "time": 66.22093023255815,
          "velocity": 0.28346456692913385
        },
        {
          "duration": 0.03488372093023884,
          "durationTicks": 3,
          "midi": 38,
          "name": "D2",
          "ticks": 5698,
          "time": 66.25581395348837,
          "velocity": 0.2677165354330709
        },
        {
          "duration": 0.12790697674418539,
          "durationTicks": 11,
          "midi": 69,
          "name": "A4",
          "ticks": 5702,
          "time": 66.30232558139535,
          "velocity": 0.4251968503937008
        },
        {
          "duration": 0.12790697674418539,
          "durationTicks": 11,
          "midi": 80,
          "name": "G#5",
          "ticks": 5702,
          "time": 66.30232558139535,
          "velocity": 0.1732283464566929
        },
        {
          "duration": 0.1046511627907023,
          "durationTicks": 9,
          "midi": 57,
          "name": "A3",
          "ticks": 5703,
          "time": 66.31395348837209,
          "velocity": 0.4330708661417323
        },
        {
          "duration": 0.13953488372092693,
          "durationTicks": 12,
          "midi": 85,
          "name": "C#6",
          "ticks": 5703,
          "time": 66.31395348837209,
          "velocity": 0.1968503937007874
        },
        {
          "duration": 0.081395348837205,
          "durationTicks": 7,
          "midi": 90,
          "name": "F#6",
          "ticks": 5703,
          "time": 66.31395348837209,
          "velocity": 0.08661417322834646
        },
        {
          "duration": 0.1046511627907023,
          "durationTicks": 9,
          "midi": 50,
          "name": "D3",
          "ticks": 5704,
          "time": 66.32558139534883,
          "velocity": 0.5039370078740157
        },
        {
          "duration": 0.04651162790698038,
          "durationTicks": 4,
          "midi": 84,
          "name": "C6",
          "ticks": 5704,
          "time": 66.32558139534883,
          "velocity": 0.08661417322834646
        },
        {
          "duration": 0.06976744186046346,
          "durationTicks": 6,
          "midi": 91,
          "name": "G6",
          "ticks": 5704,
          "time": 66.32558139534883,
          "velocity": 0.11811023622047244
        },
        {
          "duration": 0.03488372093023884,
          "durationTicks": 3,
          "midi": 39,
          "name": "D#2",
          "ticks": 5705,
          "time": 66.33720930232558,
          "velocity": 0.4881889763779528
        },
        {
          "duration": 0.081395348837205,
          "durationTicks": 7,
          "midi": 72,
          "name": "C5",
          "ticks": 5706,
          "time": 66.34883720930233,
          "velocity": 0.12598425196850394
        },
        {
          "duration": 0.05813953488372192,
          "durationTicks": 5,
          "midi": 38,
          "name": "D2",
          "ticks": 5708,
          "time": 66.37209302325581,
          "velocity": 0.4251968503937008
        },
        {
          "duration": 0.16279069767441,
          "durationTicks": 14,
          "midi": 76,
          "name": "E5",
          "ticks": 5711,
          "time": 66.40697674418605,
          "velocity": 0.13385826771653545
        },
        {
          "duration": 0.05813953488372192,
          "durationTicks": 5,
          "midi": 91,
          "name": "G6",
          "ticks": 5712,
          "time": 66.4186046511628,
          "velocity": 0.13385826771653545
        },
        {
          "duration": 0.17441860465116577,
          "durationTicks": 15,
          "midi": 67,
          "name": "G4",
          "ticks": 5713,
          "time": 66.43023255813954,
          "velocity": 0.4409448818897638
        },
        {
          "duration": 0.1860465116279073,
          "durationTicks": 16,
          "midi": 83,
          "name": "B5",
          "ticks": 5713,
          "time": 66.43023255813954,
          "velocity": 0.1968503937007874
        },
        {
          "duration": 0.081395348837205,
          "durationTicks": 7,
          "midi": 38,
          "name": "D2",
          "ticks": 5714,
          "time": 66.44186046511628,
          "velocity": 0.33070866141732286
        },
        {
          "duration": 0.05813953488372192,
          "durationTicks": 5,
          "midi": 86,
          "name": "D6",
          "ticks": 5714,
          "time": 66.44186046511628,
          "velocity": 0.08661417322834646
        },
        {
          "duration": 0.06976744186046346,
          "durationTicks": 6,
          "midi": 50,
          "name": "D3",
          "ticks": 5715,
          "time": 66.45348837209302,
          "velocity": 0.3543307086614173
        },
        {
          "duration": 0.023255813953497295,
          "durationTicks": 2,
          "midi": 56,
          "name": "G#3",
          "ticks": 5715,
          "time": 66.45348837209302,
          "velocity": 0.3228346456692913
        },
        {
          "duration": 0.08139534883721922,
          "durationTicks": 7,
          "midi": 72,
          "name": "C5",
          "ticks": 5715,
          "time": 66.45348837209302,
          "velocity": 0.1732283464566929
        },
        {
          "duration": 0.08139534883721922,
          "durationTicks": 7,
          "midi": 89,
          "name": "F6",
          "ticks": 5715,
          "time": 66.45348837209302,
          "velocity": 0.11023622047244094
        },
        {
          "duration": 0.023255813953483084,
          "durationTicks": 2,
          "midi": 55,
          "name": "G3",
          "ticks": 5718,
          "time": 66.48837209302326,
          "velocity": 0.31496062992125984
        },
        {
          "duration": 0.023255813953497295,
          "durationTicks": 2,
          "midi": 54,
          "name": "F#3",
          "ticks": 5720,
          "time": 66.51162790697674,
          "velocity": 0.4015748031496063
        },
        {
          "duration": 0.25581395348837077,
          "durationTicks": 22,
          "midi": 69,
          "name": "A4",
          "ticks": 5721,
          "time": 66.52325581395348,
          "velocity": 0.44881889763779526
        },
        {
          "duration": 0.24418604651162923,
          "durationTicks": 21,
          "midi": 85,
          "name": "C#6",
          "ticks": 5721,
          "time": 66.52325581395348,
          "velocity": 0.29133858267716534
        },
        {
          "duration": 0.034883720930224626,
          "durationTicks": 3,
          "midi": 45,
          "name": "A2",
          "ticks": 5722,
          "time": 66.53488372093024,
          "velocity": 0.49606299212598426
        },
        {
          "duration": 0.04651162790696617,
          "durationTicks": 4,
          "midi": 75,
          "name": "D#5",
          "ticks": 5722,
          "time": 66.53488372093024,
          "velocity": 0.2125984251968504
        },
        {
          "duration": 0.034883720930224626,
          "durationTicks": 3,
          "midi": 77,
          "name": "F5",
          "ticks": 5722,
          "time": 66.53488372093024,
          "velocity": 0.15748031496062992
        },
        {
          "duration": 0.09302325581394655,
          "durationTicks": 8,
          "midi": 73,
          "name": "C#5",
          "ticks": 5723,
          "time": 66.54651162790698,
          "velocity": 0.12598425196850394
        },
        {
          "duration": 0.17441860465116577,
          "durationTicks": 15,
          "midi": 57,
          "name": "A3",
          "ticks": 5726,
          "time": 66.5813953488372,
          "velocity": 0.3700787401574803
        },
        {
          "duration": 0.17441860465116577,
          "durationTicks": 15,
          "midi": 76,
          "name": "E5",
          "ticks": 5726,
          "time": 66.5813953488372,
          "velocity": 0.11023622047244094
        },
        {
          "duration": 0.03488372093023884,
          "durationTicks": 3,
          "midi": 61,
          "name": "C#4",
          "ticks": 5727,
          "time": 66.59302325581395,
          "velocity": 0.2283464566929134
        },
        {
          "duration": 0.1860465116279073,
          "durationTicks": 16,
          "midi": 75,
          "name": "D#5",
          "ticks": 5727,
          "time": 66.59302325581395,
          "velocity": 0.2047244094488189
        },
        {
          "duration": 0.15116279069766847,
          "durationTicks": 13,
          "midi": 45,
          "name": "A2",
          "ticks": 5728,
          "time": 66.6046511627907,
          "velocity": 0.4015748031496063
        },
        {
          "duration": 0.023255813953483084,
          "durationTicks": 2,
          "midi": 52,
          "name": "E3",
          "ticks": 5728,
          "time": 66.6046511627907,
          "velocity": 0.2992125984251969
        },
        {
          "duration": 0.081395348837205,
          "durationTicks": 7,
          "midi": 79,
          "name": "G5",
          "ticks": 5728,
          "time": 66.6046511627907,
          "velocity": 0.14173228346456693
        },
        {
          "duration": 0.12790697674418539,
          "durationTicks": 11,
          "midi": 67,
          "name": "G4",
          "ticks": 5730,
          "time": 66.62790697674419,
          "velocity": 0.18110236220472442
        },
        {
          "duration": 0.12790697674418539,
          "durationTicks": 11,
          "midi": 61,
          "name": "C#4",
          "ticks": 5731,
          "time": 66.63953488372093,
          "velocity": 0.25196850393700787
        },
        {
          "duration": 0.04651162790696617,
          "durationTicks": 4,
          "midi": 52,
          "name": "E3",
          "ticks": 5738,
          "time": 66.72093023255815,
          "velocity": 0.4094488188976378
        },
        {
          "duration": 0.3139534883720927,
          "durationTicks": 27,
          "midi": 72,
          "name": "C5",
          "ticks": 5741,
          "time": 66.75581395348837,
          "velocity": 0.44881889763779526
        },
        {
          "duration": 0.30232558139535115,
          "durationTicks": 26,
          "midi": 77,
          "name": "F5",
          "ticks": 5741,
          "time": 66.75581395348837,
          "velocity": 0.30708661417322836
        },
        {
          "duration": 0.04651162790698038,
          "durationTicks": 4,
          "midi": 88,
          "name": "E6",
          "ticks": 5741,
          "time": 66.75581395348837,
          "velocity": 0.08661417322834646
        },
        {
          "duration": 0.25581395348837077,
          "durationTicks": 22,
          "midi": 91,
          "name": "G6",
          "ticks": 5741,
          "time": 66.75581395348837,
          "velocity": 0.13385826771653545
        },
        {
          "duration": 0.011627906976741542,
          "durationTicks": 1,
          "midi": 51,
          "name": "D#3",
          "ticks": 5742,
          "time": 66.76744186046511,
          "velocity": 0.5275590551181102
        },
        {
          "duration": 0.03488372093023884,
          "durationTicks": 3,
          "midi": 60,
          "name": "C4",
          "ticks": 5742,
          "time": 66.76744186046511,
          "velocity": 0.29133858267716534
        },
        {
          "duration": 0.2325581395348877,
          "durationTicks": 20,
          "midi": 65,
          "name": "F4",
          "ticks": 5742,
          "time": 66.76744186046511,
          "velocity": 0.4645669291338583
        },
        {
          "duration": 0.08139534883721922,
          "durationTicks": 7,
          "midi": 95,
          "name": "B6",
          "ticks": 5742,
          "time": 66.76744186046511,
          "velocity": 0.08661417322834646
        },
        {
          "duration": 0.22093023255814614,
          "durationTicks": 19,
          "midi": 96,
          "name": "C7",
          "ticks": 5742,
          "time": 66.76744186046511,
          "velocity": 0.16535433070866143
        },
        {
          "duration": 0.05813953488372192,
          "durationTicks": 5,
          "midi": 100,
          "name": "E7",
          "ticks": 5742,
          "time": 66.76744186046511,
          "velocity": 0.13385826771653545
        },
        {
          "duration": 0.011627906976755753,
          "durationTicks": 1,
          "midi": 48,
          "name": "C3",
          "ticks": 5743,
          "time": 66.77906976744185,
          "velocity": 0.5196850393700787
        },
        {
          "duration": 0.2093023255814046,
          "durationTicks": 18,
          "midi": 53,
          "name": "F3",
          "ticks": 5743,
          "time": 66.77906976744185,
          "velocity": 0.5511811023622047
        },
        {
          "duration": 0.03488372093023884,
          "durationTicks": 3,
          "midi": 74,
          "name": "D5",
          "ticks": 5743,
          "time": 66.77906976744185,
          "velocity": 0.15748031496062992
        },
        {
          "duration": 0.08139534883721922,
          "durationTicks": 7,
          "midi": 81,
          "name": "A5",
          "ticks": 5743,
          "time": 66.77906976744185,
          "velocity": 0.18110236220472442
        },
        {
          "duration": 0.17441860465116577,
          "durationTicks": 15,
          "midi": 60,
          "name": "C4",
          "ticks": 5746,
          "time": 66.81395348837209,
          "velocity": 0.23622047244094488
        },
        {
          "duration": 0.03488372093023884,
          "durationTicks": 3,
          "midi": 83,
          "name": "B5",
          "ticks": 5746,
          "time": 66.81395348837209,
          "velocity": 0.07086614173228346
        },
        {
          "duration": 0.09302325581396076,
          "durationTicks": 8,
          "midi": 36,
          "name": "C2",
          "ticks": 5748,
          "time": 66.83720930232558,
          "velocity": 0.41732283464566927
        },
        {
          "duration": 0.16279069767442422,
          "durationTicks": 14,
          "midi": 70,
          "name": "A#4",
          "ticks": 5748,
          "time": 66.83720930232558,
          "velocity": 0.13385826771653545
        },
        {
          "duration": 0.1046511627907023,
          "durationTicks": 9,
          "midi": 74,
          "name": "D5",
          "ticks": 5748,
          "time": 66.83720930232558,
          "velocity": 0.09448818897637795
        },
        {
          "duration": 0.03488372093023884,
          "durationTicks": 3,
          "midi": 81,
          "name": "A5",
          "ticks": 5752,
          "time": 66.88372093023256,
          "velocity": 0.12598425196850394
        },
        {
          "duration": 0.034883720930224626,
          "durationTicks": 3,
          "midi": 35,
          "name": "B1",
          "ticks": 5756,
          "time": 66.93023255813954,
          "velocity": 0.25984251968503935
        },
        {
          "duration": 0.023255813953497295,
          "durationTicks": 2,
          "midi": 36,
          "name": "C2",
          "ticks": 5759,
          "time": 66.96511627906976,
          "velocity": 0.2755905511811024
        },
        {
          "duration": 0.03488372093023884,
          "durationTicks": 3,
          "midi": 48,
          "name": "C3",
          "ticks": 5759,
          "time": 66.96511627906976,
          "velocity": 0.33070866141732286
        },
        {
          "duration": 0.023255813953483084,
          "durationTicks": 2,
          "midi": 35,
          "name": "B1",
          "ticks": 5761,
          "time": 66.98837209302326,
          "velocity": 0.23622047244094488
        },
        {
          "duration": 0.22093023255814614,
          "durationTicks": 19,
          "midi": 55,
          "name": "G3",
          "ticks": 5762,
          "time": 67,
          "velocity": 0.4094488188976378
        },
        {
          "duration": 0.2325581395348877,
          "durationTicks": 20,
          "midi": 79,
          "name": "G5",
          "ticks": 5762,
          "time": 67,
          "velocity": 0.2204724409448819
        },
        {
          "duration": 0.2093023255813904,
          "durationTicks": 18,
          "midi": 83,
          "name": "B5",
          "ticks": 5762,
          "time": 67,
          "velocity": 0.18110236220472442
        },
        {
          "duration": 0.1860465116279073,
          "durationTicks": 16,
          "midi": 93,
          "name": "A6",
          "ticks": 5762,
          "time": 67,
          "velocity": 0.13385826771653545
        },
        {
          "duration": 0.023255813953497295,
          "durationTicks": 2,
          "midi": 36,
          "name": "C2",
          "ticks": 5763,
          "time": 67.01162790697674,
          "velocity": 0.30708661417322836
        },
        {
          "duration": 0.2093023255814046,
          "durationTicks": 18,
          "midi": 67,
          "name": "G4",
          "ticks": 5763,
          "time": 67.01162790697674,
          "velocity": 0.4251968503937008
        },
        {
          "duration": 0.05813953488372192,
          "durationTicks": 5,
          "midi": 60,
          "name": "C4",
          "ticks": 5764,
          "time": 67.02325581395348,
          "velocity": 0.13385826771653545
        },
        {
          "duration": 0.05813953488372192,
          "durationTicks": 5,
          "midi": 86,
          "name": "D6",
          "ticks": 5764,
          "time": 67.02325581395348,
          "velocity": 0.07086614173228346
        },
        {
          "duration": 0.04651162790696617,
          "durationTicks": 4,
          "midi": 37,
          "name": "C#2",
          "ticks": 5765,
          "time": 67.03488372093024,
          "velocity": 0.29133858267716534
        },
        {
          "duration": 0.05813953488372192,
          "durationTicks": 5,
          "midi": 48,
          "name": "C3",
          "ticks": 5766,
          "time": 67.04651162790698,
          "velocity": 0.2204724409448819
        },
        {
          "duration": 0.023255813953497295,
          "durationTicks": 2,
          "midi": 48,
          "name": "C3",
          "ticks": 5780,
          "time": 67.20930232558139,
          "velocity": 0.4015748031496063
        },
        {
          "duration": 1.2325581395348735,
          "durationTicks": 106,
          "midi": 62,
          "name": "D4",
          "ticks": 5781,
          "time": 67.22093023255815,
          "velocity": 0.44881889763779526
        },
        {
          "duration": 0.4418604651162781,
          "durationTicks": 38,
          "midi": 50,
          "name": "D3",
          "ticks": 5782,
          "time": 67.23255813953489,
          "velocity": 0.5196850393700787
        },
        {
          "duration": 0.9883720930232585,
          "durationTicks": 85,
          "midi": 69,
          "name": "A4",
          "ticks": 5782,
          "time": 67.23255813953489,
          "velocity": 0.4251968503937008
        },
        {
          "duration": 0.32558139534883423,
          "durationTicks": 28,
          "midi": 78,
          "name": "F#5",
          "ticks": 5782,
          "time": 67.23255813953489,
          "velocity": 0.14960629921259844
        },
        {
          "duration": 0.25581395348837077,
          "durationTicks": 22,
          "midi": 84,
          "name": "C6",
          "ticks": 5782,
          "time": 67.23255813953489,
          "velocity": 0.16535433070866143
        },
        {
          "duration": 0.24418604651162923,
          "durationTicks": 21,
          "midi": 88,
          "name": "E6",
          "ticks": 5782,
          "time": 67.23255813953489,
          "velocity": 0.07086614173228346
        },
        {
          "duration": 0.19767441860464885,
          "durationTicks": 17,
          "midi": 93,
          "name": "A6",
          "ticks": 5782,
          "time": 67.23255813953489,
          "velocity": 0.14173228346456693
        },
        {
          "duration": 0.06976744186046346,
          "durationTicks": 6,
          "midi": 97,
          "name": "C#7",
          "ticks": 5782,
          "time": 67.23255813953489,
          "velocity": 0.13385826771653545
        },
        {
          "duration": 0.023255813953483084,
          "durationTicks": 2,
          "midi": 48,
          "name": "C3",
          "ticks": 5820,
          "time": 67.67441860465117,
          "velocity": 0.4645669291338583
        },
        {
          "duration": 0.2674418604651123,
          "durationTicks": 23,
          "midi": 84,
          "name": "C6",
          "ticks": 5820,
          "time": 67.67441860465117,
          "velocity": 0.1889763779527559
        },
        {
          "duration": 0.32558139534883423,
          "durationTicks": 28,
          "midi": 78,
          "name": "F#5",
          "ticks": 5821,
          "time": 67.68604651162791,
          "velocity": 0.10236220472440945
        },
        {
          "duration": 0.2093023255813904,
          "durationTicks": 18,
          "midi": 93,
          "name": "A6",
          "ticks": 5821,
          "time": 67.68604651162791,
          "velocity": 0.14960629921259844
        },
        {
          "duration": 0.06976744186046346,
          "durationTicks": 6,
          "midi": 97,
          "name": "C#7",
          "ticks": 5821,
          "time": 67.68604651162791,
          "velocity": 0.12598425196850394
        },
        {
          "duration": 0.7790697674418681,
          "durationTicks": 67,
          "midi": 50,
          "name": "D3",
          "ticks": 5822,
          "time": 67.69767441860465,
          "velocity": 0.48031496062992124
        },
        {
          "duration": 0.2674418604651123,
          "durationTicks": 23,
          "midi": 62,
          "name": "D4",
          "ticks": 5918,
          "time": 68.81395348837209,
          "velocity": 0.47244094488188976
        },
        {
          "duration": 0.24418604651162923,
          "durationTicks": 21,
          "midi": 66,
          "name": "F#4",
          "ticks": 5918,
          "time": 68.81395348837209,
          "velocity": 0.2283464566929134
        },
        {
          "duration": 0.24418604651162923,
          "durationTicks": 21,
          "midi": 69,
          "name": "A4",
          "ticks": 5918,
          "time": 68.81395348837209,
          "velocity": 0.4330708661417323
        },
        {
          "duration": 0.03488372093023884,
          "durationTicks": 3,
          "midi": 84,
          "name": "C6",
          "ticks": 5918,
          "time": 68.81395348837209,
          "velocity": 0.14173228346456693
        },
        {
          "duration": 0.22093023255814614,
          "durationTicks": 19,
          "midi": 50,
          "name": "D3",
          "ticks": 5919,
          "time": 68.82558139534883,
          "velocity": 0.47244094488188976
        },
        {
          "duration": 0.34883720930233153,
          "durationTicks": 30,
          "midi": 72,
          "name": "C5",
          "ticks": 5919,
          "time": 68.82558139534883,
          "velocity": 0.4330708661417323
        },
        {
          "duration": 0.05813953488372192,
          "durationTicks": 5,
          "midi": 85,
          "name": "C#6",
          "ticks": 5919,
          "time": 68.82558139534883,
          "velocity": 0.07086614173228346
        },
        {
          "duration": 0.06976744186046346,
          "durationTicks": 6,
          "midi": 97,
          "name": "C#7",
          "ticks": 5919,
          "time": 68.82558139534883,
          "velocity": 0.13385826771653545
        },
        {
          "duration": 0.04651162790698038,
          "durationTicks": 4,
          "midi": 39,
          "name": "D#2",
          "ticks": 5920,
          "time": 68.83720930232558,
          "velocity": 0.44881889763779526
        },
        {
          "duration": 0.22093023255814614,
          "durationTicks": 19,
          "midi": 57,
          "name": "A3",
          "ticks": 5920,
          "time": 68.83720930232558,
          "velocity": 0.31496062992125984
        },
        {
          "duration": 0.16279069767442422,
          "durationTicks": 14,
          "midi": 76,
          "name": "E5",
          "ticks": 5920,
          "time": 68.83720930232558,
          "velocity": 0.07874015748031496
        },
        {
          "duration": 0.13953488372094114,
          "durationTicks": 12,
          "midi": 88,
          "name": "E6",
          "ticks": 5920,
          "time": 68.83720930232558,
          "velocity": 0.07874015748031496
        },
        {
          "duration": 0.04651162790698038,
          "durationTicks": 4,
          "midi": 90,
          "name": "F#6",
          "ticks": 5920,
          "time": 68.83720930232558,
          "velocity": 0.14960629921259844
        },
        {
          "duration": 0.13953488372092693,
          "durationTicks": 12,
          "midi": 80,
          "name": "G#5",
          "ticks": 5921,
          "time": 68.84883720930233,
          "velocity": 0.10236220472440945
        },
        {
          "duration": 0.09302325581396076,
          "durationTicks": 8,
          "midi": 38,
          "name": "D2",
          "ticks": 5924,
          "time": 68.88372093023256,
          "velocity": 0.4015748031496063
        },
        {
          "duration": 0.081395348837205,
          "durationTicks": 7,
          "midi": 38,
          "name": "D2",
          "ticks": 5933,
          "time": 68.98837209302326,
          "velocity": 0.3858267716535433
        },
        {
          "duration": 0.13953488372092693,
          "durationTicks": 12,
          "midi": 65,
          "name": "F4",
          "ticks": 5939,
          "time": 69.05813953488372,
          "velocity": 0.47244094488188976
        },
        {
          "duration": 0.04651162790698038,
          "durationTicks": 4,
          "midi": 90,
          "name": "F#6",
          "ticks": 5939,
          "time": 69.05813953488372,
          "velocity": 0.15748031496062992
        },
        {
          "duration": 0.04651162790698038,
          "durationTicks": 4,
          "midi": 91,
          "name": "G6",
          "ticks": 5939,
          "time": 69.05813953488372,
          "velocity": 0.16535433070866143
        },
        {
          "duration": 0.03488372093023884,
          "durationTicks": 3,
          "midi": 53,
          "name": "F3",
          "ticks": 5940,
          "time": 69.06976744186046,
          "velocity": 0.5511811023622047
        },
        {
          "duration": 0.13953488372092693,
          "durationTicks": 12,
          "midi": 87,
          "name": "D#6",
          "ticks": 5940,
          "time": 69.06976744186046,
          "velocity": 0.1732283464566929
        },
        {
          "duration": 0.13953488372092693,
          "durationTicks": 12,
          "midi": 96,
          "name": "C7",
          "ticks": 5940,
          "time": 69.06976744186046,
          "velocity": 0.14173228346456693
        },
        {
          "duration": 0.05813953488372192,
          "durationTicks": 5,
          "midi": 100,
          "name": "E7",
          "ticks": 5940,
          "time": 69.06976744186046,
          "velocity": 0.14173228346456693
        },
        {
          "duration": 0.04651162790698038,
          "durationTicks": 4,
          "midi": 39,
          "name": "D#2",
          "ticks": 5941,
          "time": 69.0813953488372,
          "velocity": 0.4645669291338583
        },
        {
          "duration": 0.04651162790698038,
          "durationTicks": 4,
          "midi": 53,
          "name": "F3",
          "ticks": 5944,
          "time": 69.11627906976744,
          "velocity": 0.5196850393700787
        },
        {
          "duration": 0.023255813953483084,
          "durationTicks": 2,
          "midi": 62,
          "name": "D4",
          "ticks": 5944,
          "time": 69.11627906976744,
          "velocity": 0.2283464566929134
        },
        {
          "duration": 0.04651162790698038,
          "durationTicks": 4,
          "midi": 38,
          "name": "D2",
          "ticks": 5945,
          "time": 69.12790697674419,
          "velocity": 0.41732283464566927
        },
        {
          "duration": 0.081395348837205,
          "durationTicks": 7,
          "midi": 91,
          "name": "G6",
          "ticks": 5945,
          "time": 69.12790697674419,
          "velocity": 0.14960629921259844
        },
        {
          "duration": 0.034883720930224626,
          "durationTicks": 3,
          "midi": 52,
          "name": "E3",
          "ticks": 5948,
          "time": 69.16279069767442,
          "velocity": 0.44881889763779526
        },
        {
          "duration": 0.023255813953483084,
          "durationTicks": 2,
          "midi": 62,
          "name": "D4",
          "ticks": 5948,
          "time": 69.16279069767442,
          "velocity": 0.2755905511811024
        },
        {
          "duration": 0.32558139534883423,
          "durationTicks": 28,
          "midi": 76,
          "name": "E5",
          "ticks": 5948,
          "time": 69.16279069767442,
          "velocity": 0.2992125984251969
        },
        {
          "duration": 0.13953488372092693,
          "durationTicks": 12,
          "midi": 80,
          "name": "G#5",
          "ticks": 5948,
          "time": 69.16279069767442,
          "velocity": 0.1889763779527559
        },
        {
          "duration": 0.023255813953483084,
          "durationTicks": 2,
          "midi": 57,
          "name": "A3",
          "ticks": 5949,
          "time": 69.17441860465117,
          "velocity": 0.29133858267716534
        },
        {
          "duration": 0.1860465116279073,
          "durationTicks": 16,
          "midi": 71,
          "name": "B4",
          "ticks": 5949,
          "time": 69.17441860465117,
          "velocity": 0.4409448818897638
        },
        {
          "duration": 0.11627906976744384,
          "durationTicks": 10,
          "midi": 86,
          "name": "D6",
          "ticks": 5949,
          "time": 69.17441860465117,
          "velocity": 0.2047244094488189
        },
        {
          "duration": 0.11627906976744384,
          "durationTicks": 10,
          "midi": 95,
          "name": "B6",
          "ticks": 5949,
          "time": 69.17441860465117,
          "velocity": 0.14173228346456693
        },
        {
          "duration": 0.03488372093023884,
          "durationTicks": 3,
          "midi": 39,
          "name": "D#2",
          "ticks": 5951,
          "time": 69.19767441860465,
          "velocity": 0.3779527559055118
        },
        {
          "duration": 0.023255813953497295,
          "durationTicks": 2,
          "midi": 51,
          "name": "D#3",
          "ticks": 5951,
          "time": 69.19767441860465,
          "velocity": 0.5433070866141733
        },
        {
          "duration": 0.1046511627907023,
          "durationTicks": 9,
          "midi": 64,
          "name": "E4",
          "ticks": 5951,
          "time": 69.19767441860465,
          "velocity": 0.47244094488188976
        },
        {
          "duration": 0.023255813953483084,
          "durationTicks": 2,
          "midi": 52,
          "name": "E3",
          "ticks": 5953,
          "time": 69.22093023255815,
          "velocity": 0.5196850393700787
        },
        {
          "duration": 0.034883720930224626,
          "durationTicks": 3,
          "midi": 39,
          "name": "D#2",
          "ticks": 5955,
          "time": 69.24418604651163,
          "velocity": 0.3543307086614173
        },
        {
          "duration": 0.03488372093023884,
          "durationTicks": 3,
          "midi": 51,
          "name": "D#3",
          "ticks": 5956,
          "time": 69.25581395348837,
          "velocity": 0.5196850393700787
        },
        {
          "duration": 0.255813953488385,
          "durationTicks": 22,
          "midi": 69,
          "name": "A4",
          "ticks": 5958,
          "time": 69.27906976744185,
          "velocity": 0.4251968503937008
        },
        {
          "duration": 0.255813953488385,
          "durationTicks": 22,
          "midi": 85,
          "name": "C#6",
          "ticks": 5958,
          "time": 69.27906976744185,
          "velocity": 0.2677165354330709
        },
        {
          "duration": 0.011627906976741542,
          "durationTicks": 1,
          "midi": 49,
          "name": "C#3",
          "ticks": 5959,
          "time": 69.29069767441861,
          "velocity": 0.5354330708661418
        },
        {
          "duration": 0.1860465116279073,
          "durationTicks": 16,
          "midi": 93,
          "name": "A6",
          "ticks": 5959,
          "time": 69.29069767441861,
          "velocity": 0.1732283464566929
        },
        {
          "duration": 0.011627906976741542,
          "durationTicks": 1,
          "midi": 48,
          "name": "C3",
          "ticks": 5960,
          "time": 69.30232558139535,
          "velocity": 0.5590551181102362
        },
        {
          "duration": 0.24418604651162923,
          "durationTicks": 21,
          "midi": 62,
          "name": "D4",
          "ticks": 5960,
          "time": 69.30232558139535,
          "velocity": 0.4645669291338583
        },
        {
          "duration": 0.04651162790698038,
          "durationTicks": 4,
          "midi": 78,
          "name": "F#5",
          "ticks": 5960,
          "time": 69.30232558139535,
          "velocity": 0.2047244094488189
        },
        {
          "duration": 0.04651162790698038,
          "durationTicks": 4,
          "midi": 84,
          "name": "C6",
          "ticks": 5960,
          "time": 69.30232558139535,
          "velocity": 0.2047244094488189
        },
        {
          "duration": 0.011627906976741542,
          "durationTicks": 1,
          "midi": 49,
          "name": "C#3",
          "ticks": 5961,
          "time": 69.31395348837209,
          "velocity": 0.5433070866141733
        },
        {
          "duration": 0.03488372093023884,
          "durationTicks": 3,
          "midi": 92,
          "name": "G#6",
          "ticks": 5961,
          "time": 69.31395348837209,
          "velocity": 0.10236220472440945
        },
        {
          "duration": 0.023255813953497295,
          "durationTicks": 2,
          "midi": 51,
          "name": "D#3",
          "ticks": 5962,
          "time": 69.32558139534883,
          "velocity": 0.5748031496062992
        },
        {
          "duration": 0.09302325581396076,
          "durationTicks": 8,
          "midi": 79,
          "name": "G5",
          "ticks": 5963,
          "time": 69.33720930232558,
          "velocity": 0.14173228346456693
        },
        {
          "duration": 0.12790697674418539,
          "durationTicks": 11,
          "midi": 78,
          "name": "F#5",
          "ticks": 5965,
          "time": 69.36046511627907,
          "velocity": 0.13385826771653545
        },
        {
          "duration": 0.15116279069766847,
          "durationTicks": 13,
          "midi": 84,
          "name": "C6",
          "ticks": 5965,
          "time": 69.36046511627907,
          "velocity": 0.15748031496062992
        },
        {
          "duration": 0.023255813953483084,
          "durationTicks": 2,
          "midi": 50,
          "name": "D3",
          "ticks": 5966,
          "time": 69.37209302325581,
          "velocity": 0.5196850393700787
        },
        {
          "duration": 0.3720930232558146,
          "durationTicks": 32,
          "midi": 67,
          "name": "G4",
          "ticks": 5967,
          "time": 69.38372093023256,
          "velocity": 0.4409448818897638
        },
        {
          "duration": 0.023255813953483084,
          "durationTicks": 2,
          "midi": 45,
          "name": "A2",
          "ticks": 5972,
          "time": 69.44186046511628,
          "velocity": 0.3700787401574803
        },
        {
          "duration": 0.023255813953483084,
          "durationTicks": 2,
          "midi": 51,
          "name": "D#3",
          "ticks": 5972,
          "time": 69.44186046511628,
          "velocity": 0.4566929133858268
        },
        {
          "duration": 0.05813953488372192,
          "durationTicks": 5,
          "midi": 57,
          "name": "A3",
          "ticks": 5975,
          "time": 69.47674418604652,
          "velocity": 0.2125984251968504
        },
        {
          "duration": 0.03488372093023884,
          "durationTicks": 3,
          "midi": 50,
          "name": "D3",
          "ticks": 5977,
          "time": 69.5,
          "velocity": 0.44881889763779526
        },
        {
          "duration": 0.2325581395348877,
          "durationTicks": 20,
          "midi": 82,
          "name": "A#5",
          "ticks": 5979,
          "time": 69.52325581395348,
          "velocity": 0.15748031496062992
        },
        {
          "duration": 0.04651162790698038,
          "durationTicks": 4,
          "midi": 83,
          "name": "B5",
          "ticks": 5979,
          "time": 69.52325581395348,
          "velocity": 0.07874015748031496
        },
        {
          "duration": 0.1860465116279073,
          "durationTicks": 16,
          "midi": 91,
          "name": "G6",
          "ticks": 5979,
          "time": 69.52325581395348,
          "velocity": 0.1732283464566929
        },
        {
          "duration": 0.22093023255813193,
          "durationTicks": 19,
          "midi": 55,
          "name": "G3",
          "ticks": 5980,
          "time": 69.53488372093024,
          "velocity": 0.3464566929133858
        },
        {
          "duration": 0.30232558139533694,
          "durationTicks": 26,
          "midi": 72,
          "name": "C5",
          "ticks": 5980,
          "time": 69.53488372093024,
          "velocity": 0.2677165354330709
        },
        {
          "duration": 0.05813953488370771,
          "durationTicks": 5,
          "midi": 78,
          "name": "F#5",
          "ticks": 5980,
          "time": 69.53488372093024,
          "velocity": 0.13385826771653545
        },
        {
          "duration": 0.081395348837205,
          "durationTicks": 7,
          "midi": 95,
          "name": "B6",
          "ticks": 5980,
          "time": 69.53488372093024,
          "velocity": 0.16535433070866143
        },
        {
          "duration": 0.2093023255813904,
          "durationTicks": 18,
          "midi": 60,
          "name": "C4",
          "ticks": 5981,
          "time": 69.54651162790698,
          "velocity": 0.48031496062992124
        },
        {
          "duration": 0.034883720930224626,
          "durationTicks": 3,
          "midi": 69,
          "name": "A4",
          "ticks": 5981,
          "time": 69.54651162790698,
          "velocity": 0.2125984251968504
        },
        {
          "duration": 0.04651162790698038,
          "durationTicks": 4,
          "midi": 37,
          "name": "C#2",
          "ticks": 5982,
          "time": 69.55813953488372,
          "velocity": 0.4566929133858268
        },
        {
          "duration": 0.023255813953483084,
          "durationTicks": 2,
          "midi": 47,
          "name": "B2",
          "ticks": 5982,
          "time": 69.55813953488372,
          "velocity": 0.3858267716535433
        },
        {
          "duration": 0.04651162790698038,
          "durationTicks": 4,
          "midi": 88,
          "name": "E6",
          "ticks": 5982,
          "time": 69.55813953488372,
          "velocity": 0.10236220472440945
        },
        {
          "duration": 0.17441860465116577,
          "durationTicks": 15,
          "midi": 64,
          "name": "E4",
          "ticks": 5984,
          "time": 69.5813953488372,
          "velocity": 0.25984251968503935
        },
        {
          "duration": 0.09302325581394655,
          "durationTicks": 8,
          "midi": 36,
          "name": "C2",
          "ticks": 5986,
          "time": 69.6046511627907,
          "velocity": 0.4094488188976378
        },
        {
          "duration": 0.09302325581394655,
          "durationTicks": 8,
          "midi": 78,
          "name": "F#5",
          "ticks": 5987,
          "time": 69.61627906976744,
          "velocity": 0.09448818897637795
        },
        {
          "duration": 0.12790697674418539,
          "durationTicks": 11,
          "midi": 70,
          "name": "A#4",
          "ticks": 5988,
          "time": 69.62790697674419,
          "velocity": 0.1968503937007874
        },
        {
          "duration": 0.023255813953497295,
          "durationTicks": 2,
          "midi": 35,
          "name": "B1",
          "ticks": 5994,
          "time": 69.69767441860465,
          "velocity": 0.2677165354330709
        },
        {
          "duration": 0.034883720930224626,
          "durationTicks": 3,
          "midi": 49,
          "name": "C#3",
          "ticks": 5996,
          "time": 69.72093023255815,
          "velocity": 0.41732283464566927
        },
        {
          "duration": 0.2093023255813904,
          "durationTicks": 18,
          "midi": 81,
          "name": "A5",
          "ticks": 5998,
          "time": 69.74418604651163,
          "velocity": 0.18110236220472442
        },
        {
          "duration": 0.19767441860464885,
          "durationTicks": 17,
          "midi": 50,
          "name": "D3",
          "ticks": 5999,
          "time": 69.75581395348837,
          "velocity": 0.47244094488188976
        },
        {
          "duration": 0.4418604651162781,
          "durationTicks": 38,
          "midi": 69,
          "name": "A4",
          "ticks": 5999,
          "time": 69.75581395348837,
          "velocity": 0.4330708661417323
        },
        {
          "duration": 0.4534883720930196,
          "durationTicks": 39,
          "midi": 74,
          "name": "D5",
          "ticks": 5999,
          "time": 69.75581395348837,
          "velocity": 0.2677165354330709
        },
        {
          "duration": 0.12790697674418539,
          "durationTicks": 11,
          "midi": 78,
          "name": "F#5",
          "ticks": 5999,
          "time": 69.75581395348837,
          "velocity": 0.15748031496062992
        },
        {
          "duration": 0.06976744186046346,
          "durationTicks": 6,
          "midi": 97,
          "name": "C#7",
          "ticks": 5999,
          "time": 69.75581395348837,
          "velocity": 0.13385826771653545
        },
        {
          "duration": 0.08139534883721922,
          "durationTicks": 7,
          "midi": 38,
          "name": "D2",
          "ticks": 6001,
          "time": 69.77906976744185,
          "velocity": 0.4645669291338583
        },
        {
          "duration": 0.418604651162795,
          "durationTicks": 36,
          "midi": 62,
          "name": "D4",
          "ticks": 6001,
          "time": 69.77906976744185,
          "velocity": 0.48031496062992124
        },
        {
          "duration": 0.45348837209303383,
          "durationTicks": 39,
          "midi": 66,
          "name": "F#4",
          "ticks": 6001,
          "time": 69.77906976744185,
          "velocity": 0.25196850393700787
        },
        {
          "duration": 0.023255813953483084,
          "durationTicks": 2,
          "midi": 57,
          "name": "A3",
          "ticks": 6002,
          "time": 69.79069767441861,
          "velocity": 0.3464566929133858
        },
        {
          "duration": 0.081395348837205,
          "durationTicks": 7,
          "midi": 80,
          "name": "G#5",
          "ticks": 6002,
          "time": 69.79069767441861,
          "velocity": 0.10236220472440945
        },
        {
          "duration": 0.13953488372092693,
          "durationTicks": 12,
          "midi": 57,
          "name": "A3",
          "ticks": 6005,
          "time": 69.82558139534883,
          "velocity": 0.29133858267716534
        },
        {
          "duration": 0.023255813953483084,
          "durationTicks": 2,
          "midi": 38,
          "name": "D2",
          "ticks": 6009,
          "time": 69.87209302325581,
          "velocity": 0.2755905511811024
        },
        {
          "duration": 0.081395348837205,
          "durationTicks": 7,
          "midi": 72,
          "name": "C5",
          "ticks": 6009,
          "time": 69.87209302325581,
          "velocity": 0.11811023622047244
        },
        {
          "duration": 0.03488372093023884,
          "durationTicks": 3,
          "midi": 37,
          "name": "C#2",
          "ticks": 6011,
          "time": 69.8953488372093,
          "velocity": 0.28346456692913385
        },
        {
          "duration": 0.034883720930224626,
          "durationTicks": 3,
          "midi": 38,
          "name": "D2",
          "ticks": 6014,
          "time": 69.93023255813954,
          "velocity": 0.28346456692913385
        },
        {
          "duration": 0.05813953488372192,
          "durationTicks": 5,
          "midi": 93,
          "name": "A6",
          "ticks": 6018,
          "time": 69.97674418604652,
          "velocity": 0.16535433070866143
        },
        {
          "duration": 0.22093023255813193,
          "durationTicks": 19,
          "midi": 50,
          "name": "D3",
          "ticks": 6019,
          "time": 69.98837209302326,
          "velocity": 0.4645669291338583
        },
        {
          "duration": 0.2093023255813904,
          "durationTicks": 18,
          "midi": 57,
          "name": "A3",
          "ticks": 6019,
          "time": 69.98837209302326,
          "velocity": 0.25196850393700787
        },
        {
          "duration": 0.2325581395348877,
          "durationTicks": 20,
          "midi": 72,
          "name": "C5",
          "ticks": 6019,
          "time": 69.98837209302326,
          "velocity": 0.15748031496062992
        },
        {
          "duration": 0.03488372093023884,
          "durationTicks": 3,
          "midi": 39,
          "name": "D#2",
          "ticks": 6020,
          "time": 70,
          "velocity": 0.4330708661417323
        },
        {
          "duration": 0.09302325581394655,
          "durationTicks": 8,
          "midi": 38,
          "name": "D2",
          "ticks": 6023,
          "time": 70.03488372093024,
          "velocity": 0.4330708661417323
        },
        {
          "duration": 0.05813953488372192,
          "durationTicks": 5,
          "midi": 38,
          "name": "D2",
          "ticks": 6032,
          "time": 70.13953488372093,
          "velocity": 0.29133858267716534
        },
        {
          "duration": 0.04651162790698038,
          "durationTicks": 4,
          "midi": 76,
          "name": "E5",
          "ticks": 6037,
          "time": 70.19767441860465,
          "velocity": 0.11023622047244094
        },
        {
          "duration": 0.2325581395348877,
          "durationTicks": 20,
          "midi": 85,
          "name": "C#6",
          "ticks": 6037,
          "time": 70.19767441860465,
          "velocity": 0.23622047244094488
        },
        {
          "duration": 0.023255813953497295,
          "durationTicks": 2,
          "midi": 75,
          "name": "D#5",
          "ticks": 6038,
          "time": 70.20930232558139,
          "velocity": 0.2283464566929134
        },
        {
          "duration": 0.6860465116279073,
          "durationTicks": 59,
          "midi": 79,
          "name": "G5",
          "ticks": 6038,
          "time": 70.20930232558139,
          "velocity": 0.2440944881889764
        },
        {
          "duration": 0.09302325581394655,
          "durationTicks": 8,
          "midi": 83,
          "name": "B5",
          "ticks": 6039,
          "time": 70.22093023255815,
          "velocity": 0.11023622047244094
        },
        {
          "duration": 0.034883720930224626,
          "durationTicks": 3,
          "midi": 61,
          "name": "C#4",
          "ticks": 6040,
          "time": 70.23255813953489,
          "velocity": 0.31496062992125984
        },
        {
          "duration": 0.19767441860464885,
          "durationTicks": 17,
          "midi": 67,
          "name": "G4",
          "ticks": 6040,
          "time": 70.23255813953489,
          "velocity": 0.1968503937007874
        },
        {
          "duration": 0.034883720930224626,
          "durationTicks": 3,
          "midi": 74,
          "name": "D5",
          "ticks": 6040,
          "time": 70.23255813953489,
          "velocity": 0.28346456692913385
        },
        {
          "duration": 0.04651162790698038,
          "durationTicks": 4,
          "midi": 45,
          "name": "A2",
          "ticks": 6043,
          "time": 70.26744186046511,
          "velocity": 0.4094488188976378
        },
        {
          "duration": 0.08139534883721922,
          "durationTicks": 7,
          "midi": 61,
          "name": "C#4",
          "ticks": 6044,
          "time": 70.27906976744185,
          "velocity": 0.29133858267716534
        },
        {
          "duration": 0.023255813953483084,
          "durationTicks": 2,
          "midi": 74,
          "name": "D5",
          "ticks": 6045,
          "time": 70.29069767441861,
          "velocity": 0.25196850393700787
        },
        {
          "duration": 0.1046511627907023,
          "durationTicks": 9,
          "midi": 45,
          "name": "A2",
          "ticks": 6048,
          "time": 70.32558139534883,
          "velocity": 0.3779527559055118
        },
        {
          "duration": 0.023255813953497295,
          "durationTicks": 2,
          "midi": 51,
          "name": "D#3",
          "ticks": 6049,
          "time": 70.33720930232558,
          "velocity": 0.3543307086614173
        },
        {
          "duration": 0.03488372093023884,
          "durationTicks": 3,
          "midi": 74,
          "name": "D5",
          "ticks": 6049,
          "time": 70.33720930232558,
          "velocity": 0.2125984251968504
        },
        {
          "duration": 0.034883720930224626,
          "durationTicks": 3,
          "midi": 62,
          "name": "D4",
          "ticks": 6051,
          "time": 70.36046511627907,
          "velocity": 0.25196850393700787
        },
        {
          "duration": 0.03488372093023884,
          "durationTicks": 3,
          "midi": 74,
          "name": "D5",
          "ticks": 6054,
          "time": 70.3953488372093,
          "velocity": 0.2047244094488189
        },
        {
          "duration": 0.023255813953483084,
          "durationTicks": 2,
          "midi": 44,
          "name": "G#2",
          "ticks": 6057,
          "time": 70.43023255813954,
          "velocity": 0.5511811023622047
        },
        {
          "duration": 0.06976744186046346,
          "durationTicks": 6,
          "midi": 69,
          "name": "A4",
          "ticks": 6057,
          "time": 70.43023255813954,
          "velocity": 0.23622047244094488
        },
        {
          "duration": 0.19767441860464885,
          "durationTicks": 17,
          "midi": 73,
          "name": "C#5",
          "ticks": 6057,
          "time": 70.43023255813954,
          "velocity": 0.14960629921259844
        },
        {
          "duration": 0.9418604651162781,
          "durationTicks": 81,
          "midi": 76,
          "name": "E5",
          "ticks": 6057,
          "time": 70.43023255813954,
          "velocity": 0.31496062992125984
        },
        {
          "duration": 0.17441860465116577,
          "durationTicks": 15,
          "midi": 95,
          "name": "B6",
          "ticks": 6057,
          "time": 70.43023255813954,
          "velocity": 0.1732283464566929
        },
        {
          "duration": 0.06976744186046346,
          "durationTicks": 6,
          "midi": 64,
          "name": "E4",
          "ticks": 6058,
          "time": 70.44186046511628,
          "velocity": 0.28346456692913385
        },
        {
          "duration": 0.03488372093023884,
          "durationTicks": 3,
          "midi": 74,
          "name": "D5",
          "ticks": 6058,
          "time": 70.44186046511628,
          "velocity": 0.1732283464566929
        },
        {
          "duration": 0.16279069767442422,
          "durationTicks": 14,
          "midi": 83,
          "name": "B5",
          "ticks": 6058,
          "time": 70.44186046511628,
          "velocity": 0.14173228346456693
        },
        {
          "duration": 0.43023255813953654,
          "durationTicks": 37,
          "midi": 85,
          "name": "C#6",
          "ticks": 6058,
          "time": 70.44186046511628,
          "velocity": 0.2204724409448819
        },
        {
          "duration": 0.011627906976741542,
          "durationTicks": 1,
          "midi": 47,
          "name": "B2",
          "ticks": 6059,
          "time": 70.45348837209302,
          "velocity": 0.5354330708661418
        },
        {
          "duration": 0.03488372093023884,
          "durationTicks": 3,
          "midi": 78,
          "name": "F#5",
          "ticks": 6059,
          "time": 70.45348837209302,
          "velocity": 0.14960629921259844
        },
        {
          "duration": 0.22093023255814614,
          "durationTicks": 19,
          "midi": 87,
          "name": "D#6",
          "ticks": 6059,
          "time": 70.45348837209302,
          "velocity": 0.2047244094488189
        },
        {
          "duration": 0.04651162790698038,
          "durationTicks": 4,
          "midi": 100,
          "name": "E7",
          "ticks": 6059,
          "time": 70.45348837209302,
          "velocity": 0.11023622047244094
        },
        {
          "duration": 0.05813953488372192,
          "durationTicks": 5,
          "midi": 57,
          "name": "A3",
          "ticks": 6060,
          "time": 70.46511627906976,
          "velocity": 0.41732283464566927
        },
        {
          "duration": 0.04651162790698038,
          "durationTicks": 4,
          "midi": 82,
          "name": "A#5",
          "ticks": 6060,
          "time": 70.46511627906976,
          "velocity": 0.07874015748031496
        },
        {
          "duration": 0.023255813953483084,
          "durationTicks": 2,
          "midi": 48,
          "name": "C3",
          "ticks": 6061,
          "time": 70.47674418604652,
          "velocity": 0.4645669291338583
        },
        {
          "duration": 0.09302325581394655,
          "durationTicks": 8,
          "midi": 92,
          "name": "G#6",
          "ticks": 6061,
          "time": 70.47674418604652,
          "velocity": 0.07086614173228346
        },
        {
          "duration": 0.17441860465116577,
          "durationTicks": 15,
          "midi": 67,
          "name": "G4",
          "ticks": 6062,
          "time": 70.48837209302326,
          "velocity": 0.1732283464566929
        },
        {
          "duration": 0.023255813953483084,
          "durationTicks": 2,
          "midi": 37,
          "name": "C#2",
          "ticks": 6063,
          "time": 70.5,
          "velocity": 0.4330708661417323
        },
        {
          "duration": 0.06976744186046346,
          "durationTicks": 6,
          "midi": 36,
          "name": "C2",
          "ticks": 6065,
          "time": 70.52325581395348,
          "velocity": 0.3937007874015748
        },
        {
          "duration": 0.023255813953483084,
          "durationTicks": 2,
          "midi": 47,
          "name": "B2",
          "ticks": 6067,
          "time": 70.54651162790698,
          "velocity": 0.44881889763779526
        },
        {
          "duration": 0.12790697674418539,
          "durationTicks": 11,
          "midi": 64,
          "name": "E4",
          "ticks": 6067,
          "time": 70.54651162790698,
          "velocity": 0.25984251968503935
        },
        {
          "duration": 0.7441860465116292,
          "durationTicks": 64,
          "midi": 69,
          "name": "A4",
          "ticks": 6070,
          "time": 70.5813953488372,
          "velocity": 0.29133858267716534
        },
        {
          "duration": 0.023255813953497295,
          "durationTicks": 2,
          "midi": 47,
          "name": "B2",
          "ticks": 6071,
          "time": 70.59302325581395,
          "velocity": 0.41732283464566927
        },
        {
          "duration": 0.023255813953497295,
          "durationTicks": 2,
          "midi": 47,
          "name": "B2",
          "ticks": 6075,
          "time": 70.63953488372093,
          "velocity": 0.4015748031496063
        },
        {
          "duration": 0.023255813953497295,
          "durationTicks": 2,
          "midi": 57,
          "name": "A3",
          "ticks": 6075,
          "time": 70.63953488372093,
          "velocity": 0.2992125984251969
        },
        {
          "duration": 0.4418604651162781,
          "durationTicks": 38,
          "midi": 62,
          "name": "D4",
          "ticks": 6078,
          "time": 70.67441860465117,
          "velocity": 0.31496062992125984
        },
        {
          "duration": 0.023255813953483084,
          "durationTicks": 2,
          "midi": 86,
          "name": "D6",
          "ticks": 6078,
          "time": 70.67441860465117,
          "velocity": 0.28346456692913385
        },
        {
          "duration": 0.06976744186046346,
          "durationTicks": 6,
          "midi": 50,
          "name": "D3",
          "ticks": 6079,
          "time": 70.68604651162791,
          "velocity": 0.4566929133858268
        },
        {
          "duration": 0.023255813953483084,
          "durationTicks": 2,
          "midi": 56,
          "name": "G#3",
          "ticks": 6079,
          "time": 70.68604651162791,
          "velocity": 0.49606299212598426
        },
        {
          "duration": 0.05813953488372192,
          "durationTicks": 5,
          "midi": 66,
          "name": "F#4",
          "ticks": 6079,
          "time": 70.68604651162791,
          "velocity": 0.2283464566929134
        },
        {
          "duration": 0.19767441860464885,
          "durationTicks": 17,
          "midi": 72,
          "name": "C5",
          "ticks": 6079,
          "time": 70.68604651162791,
          "velocity": 0.16535433070866143
        },
        {
          "duration": 0.1046511627907023,
          "durationTicks": 9,
          "midi": 93,
          "name": "A6",
          "ticks": 6079,
          "time": 70.68604651162791,
          "velocity": 0.11023622047244094
        },
        {
          "duration": 0.13953488372092693,
          "durationTicks": 12,
          "midi": 95,
          "name": "B6",
          "ticks": 6079,
          "time": 70.68604651162791,
          "velocity": 0.11023622047244094
        },
        {
          "duration": 0.05813953488372192,
          "durationTicks": 5,
          "midi": 96,
          "name": "C7",
          "ticks": 6079,
          "time": 70.68604651162791,
          "velocity": 0.07086614173228346
        },
        {
          "duration": 0.24418604651162923,
          "durationTicks": 21,
          "midi": 87,
          "name": "D#6",
          "ticks": 6080,
          "time": 70.69767441860465,
          "velocity": 0.1889763779527559
        },
        {
          "duration": 0.03488372093023884,
          "durationTicks": 3,
          "midi": 100,
          "name": "E7",
          "ticks": 6080,
          "time": 70.69767441860465,
          "velocity": 0.07086614173228346
        },
        {
          "duration": 0.023255813953497295,
          "durationTicks": 2,
          "midi": 39,
          "name": "D#2",
          "ticks": 6081,
          "time": 70.70930232558139,
          "velocity": 0.4566929133858268
        },
        {
          "duration": 0.6395348837209411,
          "durationTicks": 55,
          "midi": 57,
          "name": "A3",
          "ticks": 6081,
          "time": 70.70930232558139,
          "velocity": 0.4566929133858268
        },
        {
          "duration": 0.03488372093023884,
          "durationTicks": 3,
          "midi": 38,
          "name": "D2",
          "ticks": 6086,
          "time": 70.76744186046511,
          "velocity": 0.4015748031496063
        },
        {
          "duration": 0.06976744186046346,
          "durationTicks": 6,
          "midi": 66,
          "name": "F#4",
          "ticks": 6088,
          "time": 70.79069767441861,
          "velocity": 0.1732283464566929
        },
        {
          "duration": 0.023255813953483084,
          "durationTicks": 2,
          "midi": 50,
          "name": "D3",
          "ticks": 6090,
          "time": 70.81395348837209,
          "velocity": 0.3543307086614173
        },
        {
          "duration": 0.03488372093023884,
          "durationTicks": 3,
          "midi": 50,
          "name": "D3",
          "ticks": 6095,
          "time": 70.87209302325581,
          "velocity": 0.4015748031496063
        },
        {
          "duration": 0.24418604651162923,
          "durationTicks": 21,
          "midi": 66,
          "name": "F#4",
          "ticks": 6097,
          "time": 70.8953488372093,
          "velocity": 0.2755905511811024
        },
        {
          "duration": 0.04651162790696617,
          "durationTicks": 4,
          "midi": 85,
          "name": "C#6",
          "ticks": 6098,
          "time": 70.90697674418605,
          "velocity": 0.09448818897637795
        },
        {
          "duration": 0.081395348837205,
          "durationTicks": 7,
          "midi": 90,
          "name": "F#6",
          "ticks": 6098,
          "time": 70.90697674418605,
          "velocity": 0.09448818897637795
        },
        {
          "duration": 0.081395348837205,
          "durationTicks": 7,
          "midi": 93,
          "name": "A6",
          "ticks": 6098,
          "time": 70.90697674418605,
          "velocity": 0.14173228346456693
        },
        {
          "duration": 0.023255813953483084,
          "durationTicks": 2,
          "midi": 39,
          "name": "D#2",
          "ticks": 6099,
          "time": 70.9186046511628,
          "velocity": 0.49606299212598426
        },
        {
          "duration": 0.081395348837205,
          "durationTicks": 7,
          "midi": 50,
          "name": "D3",
          "ticks": 6099,
          "time": 70.9186046511628,
          "velocity": 0.49606299212598426
        },
        {
          "duration": 0.22093023255813193,
          "durationTicks": 19,
          "midi": 72,
          "name": "C5",
          "ticks": 6099,
          "time": 70.9186046511628,
          "velocity": 0.15748031496062992
        },
        {
          "duration": 0.06976744186046346,
          "durationTicks": 6,
          "midi": 80,
          "name": "G#5",
          "ticks": 6100,
          "time": 70.93023255813954,
          "velocity": 0.14173228346456693
        },
        {
          "duration": 0.04651162790698038,
          "durationTicks": 4,
          "midi": 79,
          "name": "G5",
          "ticks": 6106,
          "time": 71,
          "velocity": 0.09448818897637795
        },
        {
          "duration": 0.06976744186046346,
          "durationTicks": 6,
          "midi": 50,
          "name": "D3",
          "ticks": 6107,
          "time": 71.01162790697674,
          "velocity": 0.3779527559055118
        },
        {
          "duration": 0.023255813953497295,
          "durationTicks": 2,
          "midi": 38,
          "name": "D2",
          "ticks": 6108,
          "time": 71.02325581395348,
          "velocity": 0.3228346456692913
        },
        {
          "duration": 0.04651162790696617,
          "durationTicks": 4,
          "midi": 80,
          "name": "G#5",
          "ticks": 6110,
          "time": 71.04651162790698,
          "velocity": 0.07086614173228346
        },
        {
          "duration": 0.023255813953497295,
          "durationTicks": 2,
          "midi": 50,
          "name": "D3",
          "ticks": 6114,
          "time": 71.09302325581395,
          "velocity": 0.33858267716535434
        },
        {
          "duration": 0.16279069767441,
          "durationTicks": 14,
          "midi": 79,
          "name": "G5",
          "ticks": 6116,
          "time": 71.11627906976744,
          "velocity": 0.2204724409448819
        },
        {
          "duration": 0.05813953488372192,
          "durationTicks": 5,
          "midi": 83,
          "name": "B5",
          "ticks": 6116,
          "time": 71.11627906976744,
          "velocity": 0.15748031496062992
        },
        {
          "duration": 0.2325581395348877,
          "durationTicks": 20,
          "midi": 85,
          "name": "C#6",
          "ticks": 6116,
          "time": 71.11627906976744,
          "velocity": 0.23622047244094488
        },
        {
          "duration": 0.03488372093023884,
          "durationTicks": 3,
          "midi": 77,
          "name": "F5",
          "ticks": 6117,
          "time": 71.12790697674419,
          "velocity": 0.14960629921259844
        },
        {
          "duration": 0.2093023255814046,
          "durationTicks": 18,
          "midi": 45,
          "name": "A2",
          "ticks": 6118,
          "time": 71.13953488372093,
          "velocity": 0.5039370078740157
        },
        {
          "duration": 0.023255813953497295,
          "durationTicks": 2,
          "midi": 61,
          "name": "C#4",
          "ticks": 6118,
          "time": 71.13953488372093,
          "velocity": 0.28346456692913385
        },
        {
          "duration": 0.19767441860464885,
          "durationTicks": 17,
          "midi": 67,
          "name": "G4",
          "ticks": 6118,
          "time": 71.13953488372093,
          "velocity": 0.2204724409448819
        },
        {
          "duration": 0.023255813953497295,
          "durationTicks": 2,
          "midi": 74,
          "name": "D5",
          "ticks": 6118,
          "time": 71.13953488372093,
          "velocity": 0.2283464566929134
        },
        {
          "duration": 0.16279069767441,
          "durationTicks": 14,
          "midi": 75,
          "name": "D#5",
          "ticks": 6120,
          "time": 71.16279069767442,
          "velocity": 0.2125984251968504
        },
        {
          "duration": 0.023255813953483084,
          "durationTicks": 2,
          "midi": 52,
          "name": "E3",
          "ticks": 6122,
          "time": 71.18604651162791,
          "velocity": 0.2440944881889764
        },
        {
          "duration": 0.03488372093023884,
          "durationTicks": 3,
          "midi": 61,
          "name": "C#4",
          "ticks": 6122,
          "time": 71.18604651162791,
          "velocity": 0.2283464566929134
        },
        {
          "duration": 0.034883720930224626,
          "durationTicks": 3,
          "midi": 52,
          "name": "E3",
          "ticks": 6126,
          "time": 71.23255813953489,
          "velocity": 0.23622047244094488
        },
        {
          "duration": 0.11627906976744384,
          "durationTicks": 10,
          "midi": 61,
          "name": "C#4",
          "ticks": 6126,
          "time": 71.23255813953489,
          "velocity": 0.2283464566929134
        },
        {
          "duration": 0.05813953488372192,
          "durationTicks": 5,
          "midi": 83,
          "name": "B5",
          "ticks": 6126,
          "time": 71.23255813953489,
          "velocity": 0.07874015748031496
        },
        {
          "duration": 0.05813953488372192,
          "durationTicks": 5,
          "midi": 52,
          "name": "E3",
          "ticks": 6130,
          "time": 71.27906976744185,
          "velocity": 0.2204724409448819
        },
        {
          "duration": 0.30232558139535115,
          "durationTicks": 26,
          "midi": 74,
          "name": "D5",
          "ticks": 6134,
          "time": 71.32558139534883,
          "velocity": 0.33858267716535434
        },
        {
          "duration": 0.13953488372094114,
          "durationTicks": 12,
          "midi": 83,
          "name": "B5",
          "ticks": 6135,
          "time": 71.33720930232558,
          "velocity": 0.2125984251968504
        },
        {
          "duration": 0.023255813953497295,
          "durationTicks": 2,
          "midi": 84,
          "name": "C6",
          "ticks": 6135,
          "time": 71.33720930232558,
          "velocity": 0.2283464566929134
        },
        {
          "duration": 0.011627906976741542,
          "durationTicks": 1,
          "midi": 44,
          "name": "G#2",
          "ticks": 6136,
          "time": 71.34883720930233,
          "velocity": 0.5511811023622047
        },
        {
          "duration": 0.034883720930224626,
          "durationTicks": 3,
          "midi": 60,
          "name": "C4",
          "ticks": 6136,
          "time": 71.34883720930233,
          "velocity": 0.33070866141732286
        },
        {
          "duration": 0.034883720930224626,
          "durationTicks": 3,
          "midi": 79,
          "name": "G5",
          "ticks": 6136,
          "time": 71.34883720930233,
          "velocity": 0.10236220472440945
        },
        {
          "duration": 0.27906976744185386,
          "durationTicks": 24,
          "midi": 89,
          "name": "F6",
          "ticks": 6136,
          "time": 71.34883720930233,
          "velocity": 0.2125984251968504
        },
        {
          "duration": 0.13953488372092693,
          "durationTicks": 12,
          "midi": 90,
          "name": "F#6",
          "ticks": 6136,
          "time": 71.34883720930233,
          "velocity": 0.08661417322834646
        },
        {
          "duration": 0.10465116279068809,
          "durationTicks": 9,
          "midi": 91,
          "name": "G6",
          "ticks": 6136,
          "time": 71.34883720930233,
          "velocity": 0.11811023622047244
        },
        {
          "duration": 0.17441860465115155,
          "durationTicks": 15,
          "midi": 93,
          "name": "A6",
          "ticks": 6136,
          "time": 71.34883720930233,
          "velocity": 0.16535433070866143
        },
        {
          "duration": 0.011627906976741542,
          "durationTicks": 1,
          "midi": 42,
          "name": "F#2",
          "ticks": 6137,
          "time": 71.36046511627907,
          "velocity": 0.5433070866141733
        },
        {
          "duration": 0.24418604651162923,
          "durationTicks": 21,
          "midi": 67,
          "name": "G4",
          "ticks": 6137,
          "time": 71.36046511627907,
          "velocity": 0.1968503937007874
        },
        {
          "duration": 0.081395348837205,
          "durationTicks": 7,
          "midi": 81,
          "name": "A5",
          "ticks": 6137,
          "time": 71.36046511627907,
          "velocity": 0.16535433070866143
        },
        {
          "duration": 0.43023255813953654,
          "durationTicks": 37,
          "midi": 85,
          "name": "C#6",
          "ticks": 6137,
          "time": 71.36046511627907,
          "velocity": 0.2125984251968504
        },
        {
          "duration": 0.1046511627907023,
          "durationTicks": 9,
          "midi": 77,
          "name": "F5",
          "ticks": 6138,
          "time": 71.37209302325581,
          "velocity": 0.1968503937007874
        },
        {
          "duration": 0.04651162790698038,
          "durationTicks": 4,
          "midi": 98,
          "name": "D7",
          "ticks": 6138,
          "time": 71.37209302325581,
          "velocity": 0.09448818897637795
        },
        {
          "duration": 0.2325581395348877,
          "durationTicks": 20,
          "midi": 55,
          "name": "G3",
          "ticks": 6139,
          "time": 71.38372093023256,
          "velocity": 0.48031496062992124
        },
        {
          "duration": 0.04651162790698038,
          "durationTicks": 4,
          "midi": 62,
          "name": "D4",
          "ticks": 6140,
          "time": 71.3953488372093,
          "velocity": 0.25984251968503935
        },
        {
          "duration": 0.034883720930224626,
          "durationTicks": 3,
          "midi": 71,
          "name": "B4",
          "ticks": 6141,
          "time": 71.40697674418605,
          "velocity": 0.07874015748031496
        },
        {
          "duration": 0.023255813953483084,
          "durationTicks": 2,
          "midi": 43,
          "name": "G2",
          "ticks": 6144,
          "time": 71.44186046511628,
          "velocity": 0.36220472440944884
        },
        {
          "duration": 0.03488372093023884,
          "durationTicks": 3,
          "midi": 71,
          "name": "B4",
          "ticks": 6146,
          "time": 71.46511627906976,
          "velocity": 0.07874015748031496
        },
        {
          "duration": 0.10465116279068809,
          "durationTicks": 9,
          "midi": 77,
          "name": "F5",
          "ticks": 6148,
          "time": 71.48837209302326,
          "velocity": 0.1889763779527559
        },
        {
          "duration": 0.081395348837205,
          "durationTicks": 7,
          "midi": 64,
          "name": "E4",
          "ticks": 6149,
          "time": 71.5,
          "velocity": 0.18110236220472442
        },
        {
          "duration": 0.023255813953497295,
          "durationTicks": 2,
          "midi": 43,
          "name": "G2",
          "ticks": 6150,
          "time": 71.51162790697674,
          "velocity": 0.3937007874015748
        },
        {
          "duration": 0.09302325581394655,
          "durationTicks": 8,
          "midi": 83,
          "name": "B5",
          "ticks": 6154,
          "time": 71.55813953488372,
          "velocity": 0.14960629921259844
        },
        {
          "duration": 0.06976744186046346,
          "durationTicks": 6,
          "midi": 72,
          "name": "C5",
          "ticks": 6156,
          "time": 71.5813953488372,
          "velocity": 0.1968503937007874
        },
        {
          "duration": 0.45348837209303383,
          "durationTicks": 39,
          "midi": 76,
          "name": "E5",
          "ticks": 6156,
          "time": 71.5813953488372,
          "velocity": 0.3464566929133858
        },
        {
          "duration": 0.45348837209303383,
          "durationTicks": 39,
          "midi": 69,
          "name": "A4",
          "ticks": 6157,
          "time": 71.59302325581395,
          "velocity": 0.25984251968503935
        },
        {
          "duration": 0.05813953488372192,
          "durationTicks": 5,
          "midi": 90,
          "name": "F#6",
          "ticks": 6157,
          "time": 71.59302325581395,
          "velocity": 0.12598425196850394
        },
        {
          "duration": 0.2906976744186096,
          "durationTicks": 25,
          "midi": 91,
          "name": "G6",
          "ticks": 6157,
          "time": 71.59302325581395,
          "velocity": 0.2283464566929134
        },
        {
          "duration": 0.04651162790698038,
          "durationTicks": 4,
          "midi": 92,
          "name": "G#6",
          "ticks": 6157,
          "time": 71.59302325581395,
          "velocity": 0.10236220472440945
        },
        {
          "duration": 0.034883720930224626,
          "durationTicks": 3,
          "midi": 50,
          "name": "D3",
          "ticks": 6158,
          "time": 71.6046511627907,
          "velocity": 0.44881889763779526
        },
        {
          "duration": 0.05813953488372192,
          "durationTicks": 5,
          "midi": 66,
          "name": "F#4",
          "ticks": 6158,
          "time": 71.6046511627907,
          "velocity": 0.23622047244094488
        },
        {
          "duration": 0.2093023255813904,
          "durationTicks": 18,
          "midi": 79,
          "name": "G5",
          "ticks": 6158,
          "time": 71.6046511627907,
          "velocity": 0.2204724409448819
        },
        {
          "duration": 0.2093023255813904,
          "durationTicks": 18,
          "midi": 87,
          "name": "D#6",
          "ticks": 6159,
          "time": 71.61627906976744,
          "velocity": 0.15748031496062992
        },
        {
          "duration": 0.034883720930224626,
          "durationTicks": 3,
          "midi": 100,
          "name": "E7",
          "ticks": 6159,
          "time": 71.61627906976744,
          "velocity": 0.09448818897637795
        },
        {
          "duration": 0.023255813953483084,
          "durationTicks": 2,
          "midi": 39,
          "name": "D#2",
          "ticks": 6160,
          "time": 71.62790697674419,
          "velocity": 0.4881889763779528
        },
        {
          "duration": 0.1860465116279073,
          "durationTicks": 16,
          "midi": 57,
          "name": "A3",
          "ticks": 6160,
          "time": 71.62790697674419,
          "velocity": 0.4330708661417323
        },
        {
          "duration": 0.03488372093023884,
          "durationTicks": 3,
          "midi": 73,
          "name": "C#5",
          "ticks": 6161,
          "time": 71.63953488372093,
          "velocity": 0.10236220472440945
        },
        {
          "duration": 0.023255813953497295,
          "durationTicks": 2,
          "midi": 50,
          "name": "D3",
          "ticks": 6162,
          "time": 71.65116279069767,
          "velocity": 0.4094488188976378
        },
        {
          "duration": 0.05813953488372192,
          "durationTicks": 5,
          "midi": 93,
          "name": "A6",
          "ticks": 6162,
          "time": 71.65116279069767,
          "velocity": 0.11811023622047244
        },
        {
          "duration": 0.12790697674418539,
          "durationTicks": 11,
          "midi": 72,
          "name": "C5",
          "ticks": 6163,
          "time": 71.66279069767442,
          "velocity": 0.10236220472440945
        },
        {
          "duration": 0.023255813953483084,
          "durationTicks": 2,
          "midi": 64,
          "name": "E4",
          "ticks": 6164,
          "time": 71.67441860465117,
          "velocity": 0.23622047244094488
        },
        {
          "duration": 0.03488372093023884,
          "durationTicks": 3,
          "midi": 50,
          "name": "D3",
          "ticks": 6165,
          "time": 71.68604651162791,
          "velocity": 0.3779527559055118
        },
        {
          "duration": 0.023255813953483084,
          "durationTicks": 2,
          "midi": 45,
          "name": "A2",
          "ticks": 6169,
          "time": 71.73255813953489,
          "velocity": 0.3779527559055118
        },
        {
          "duration": 0.023255813953483084,
          "durationTicks": 2,
          "midi": 50,
          "name": "D3",
          "ticks": 6169,
          "time": 71.73255813953489,
          "velocity": 0.3543307086614173
        },
        {
          "duration": 0.03488372093023884,
          "durationTicks": 3,
          "midi": 64,
          "name": "E4",
          "ticks": 6171,
          "time": 71.75581395348837,
          "velocity": 0.1889763779527559
        },
        {
          "duration": 0.04651162790698038,
          "durationTicks": 4,
          "midi": 62,
          "name": "D4",
          "ticks": 6172,
          "time": 71.76744186046511,
          "velocity": 0.1732283464566929
        },
        {
          "duration": 0.25581395348837077,
          "durationTicks": 22,
          "midi": 66,
          "name": "F#4",
          "ticks": 6174,
          "time": 71.79069767441861,
          "velocity": 0.25196850393700787
        },
        {
          "duration": 0.011627906976741542,
          "durationTicks": 1,
          "midi": 48,
          "name": "C3",
          "ticks": 6176,
          "time": 71.81395348837209,
          "velocity": 0.5118110236220472
        },
        {
          "duration": 0.05813953488372192,
          "durationTicks": 5,
          "midi": 93,
          "name": "A6",
          "ticks": 6176,
          "time": 71.81395348837209,
          "velocity": 0.11023622047244094
        },
        {
          "duration": 0.12790697674418539,
          "durationTicks": 11,
          "midi": 50,
          "name": "D3",
          "ticks": 6177,
          "time": 71.82558139534883,
          "velocity": 0.44881889763779526
        },
        {
          "duration": 0.2093023255814046,
          "durationTicks": 18,
          "midi": 57,
          "name": "A3",
          "ticks": 6177,
          "time": 71.82558139534883,
          "velocity": 0.25196850393700787
        },
        {
          "duration": 0.22093023255814614,
          "durationTicks": 19,
          "midi": 72,
          "name": "C5",
          "ticks": 6177,
          "time": 71.82558139534883,
          "velocity": 0.13385826771653545
        },
        {
          "duration": 0.08139534883721922,
          "durationTicks": 7,
          "midi": 85,
          "name": "C#6",
          "ticks": 6177,
          "time": 71.82558139534883,
          "velocity": 0.10236220472440945
        },
        {
          "duration": 0.081395348837205,
          "durationTicks": 7,
          "midi": 87,
          "name": "D#6",
          "ticks": 6179,
          "time": 71.84883720930233,
          "velocity": 0.08661417322834646
        },
        {
          "duration": 0.03488372093023884,
          "durationTicks": 3,
          "midi": 38,
          "name": "D2",
          "ticks": 6181,
          "time": 71.87209302325581,
          "velocity": 0.44881889763779526
        },
        {
          "duration": 0.04651162790698038,
          "durationTicks": 4,
          "midi": 93,
          "name": "A6",
          "ticks": 6182,
          "time": 71.88372093023256,
          "velocity": 0.07086614173228346
        },
        {
          "duration": 0.034883720930224626,
          "durationTicks": 3,
          "midi": 38,
          "name": "D2",
          "ticks": 6185,
          "time": 71.9186046511628,
          "velocity": 0.36220472440944884
        },
        {
          "duration": 0.04651162790698038,
          "durationTicks": 4,
          "midi": 50,
          "name": "D3",
          "ticks": 6189,
          "time": 71.96511627906976,
          "velocity": 0.3543307086614173
        },
        {
          "duration": 0.12790697674418539,
          "durationTicks": 11,
          "midi": 74,
          "name": "D5",
          "ticks": 6195,
          "time": 72.03488372093024,
          "velocity": 0.33070866141732286
        },
        {
          "duration": 0.023255813953483084,
          "durationTicks": 2,
          "midi": 84,
          "name": "C6",
          "ticks": 6195,
          "time": 72.03488372093024,
          "velocity": 0.2283464566929134
        },
        {
          "duration": 0.11627906976744384,
          "durationTicks": 10,
          "midi": 71,
          "name": "B4",
          "ticks": 6196,
          "time": 72.04651162790698,
          "velocity": 0.13385826771653545
        },
        {
          "duration": 0.11627906976744384,
          "durationTicks": 10,
          "midi": 77,
          "name": "F5",
          "ticks": 6196,
          "time": 72.04651162790698,
          "velocity": 0.2047244094488189
        },
        {
          "duration": 0.11627906976744384,
          "durationTicks": 10,
          "midi": 81,
          "name": "A5",
          "ticks": 6196,
          "time": 72.04651162790698,
          "velocity": 0.15748031496062992
        },
        {
          "duration": 0.12790697674418539,
          "durationTicks": 11,
          "midi": 83,
          "name": "B5",
          "ticks": 6196,
          "time": 72.04651162790698,
          "velocity": 0.2283464566929134
        },
        {
          "duration": 0.11627906976744384,
          "durationTicks": 10,
          "midi": 90,
          "name": "F#6",
          "ticks": 6196,
          "time": 72.04651162790698,
          "velocity": 0.07086614173228346
        },
        {
          "duration": 0.034883720930224626,
          "durationTicks": 3,
          "midi": 44,
          "name": "G#2",
          "ticks": 6197,
          "time": 72.05813953488372,
          "velocity": 0.5118110236220472
        },
        {
          "duration": 0.023255813953483084,
          "durationTicks": 2,
          "midi": 54,
          "name": "F#3",
          "ticks": 6197,
          "time": 72.05813953488372,
          "velocity": 0.4409448818897638
        },
        {
          "duration": 0.1046511627907023,
          "durationTicks": 9,
          "midi": 62,
          "name": "D4",
          "ticks": 6197,
          "time": 72.05813953488372,
          "velocity": 0.2047244094488189
        },
        {
          "duration": 0.12790697674418539,
          "durationTicks": 11,
          "midi": 67,
          "name": "G4",
          "ticks": 6197,
          "time": 72.05813953488372,
          "velocity": 0.23622047244094488
        },
        {
          "duration": 0.1046511627907023,
          "durationTicks": 9,
          "midi": 85,
          "name": "C#6",
          "ticks": 6197,
          "time": 72.05813953488372,
          "velocity": 0.2204724409448819
        },
        {
          "duration": 0.03488372093023884,
          "durationTicks": 3,
          "midi": 98,
          "name": "D7",
          "ticks": 6198,
          "time": 72.06976744186046,
          "velocity": 0.08661417322834646
        },
        {
          "duration": 0.08139534883721922,
          "durationTicks": 7,
          "midi": 55,
          "name": "G3",
          "ticks": 6199,
          "time": 72.0813953488372,
          "velocity": 0.41732283464566927
        },
        {
          "duration": 0.023255813953483084,
          "durationTicks": 2,
          "midi": 42,
          "name": "F#2",
          "ticks": 6201,
          "time": 72.1046511627907,
          "velocity": 0.3937007874015748
        },
        {
          "duration": 0.023255813953483084,
          "durationTicks": 2,
          "midi": 43,
          "name": "G2",
          "ticks": 6203,
          "time": 72.12790697674419,
          "velocity": 0.3937007874015748
        },
        {
          "duration": 0.023255813953483084,
          "durationTicks": 2,
          "midi": 60,
          "name": "C4",
          "ticks": 6206,
          "time": 72.16279069767442,
          "velocity": 0.23622047244094488
        },
        {
          "duration": 0.17441860465115155,
          "durationTicks": 15,
          "midi": 73,
          "name": "C#5",
          "ticks": 6206,
          "time": 72.16279069767442,
          "velocity": 0.33858267716535434
        },
        {
          "duration": 0.16279069767441,
          "durationTicks": 14,
          "midi": 76,
          "name": "E5",
          "ticks": 6206,
          "time": 72.16279069767442,
          "velocity": 0.2125984251968504
        },
        {
          "duration": 0.12790697674418539,
          "durationTicks": 11,
          "midi": 80,
          "name": "G#5",
          "ticks": 6206,
          "time": 72.16279069767442,
          "velocity": 0.12598425196850394
        },
        {
          "duration": 0.15116279069766847,
          "durationTicks": 13,
          "midi": 82,
          "name": "A#5",
          "ticks": 6206,
          "time": 72.16279069767442,
          "velocity": 0.2204724409448819
        },
        {
          "duration": 0.023255813953483084,
          "durationTicks": 2,
          "midi": 53,
          "name": "F3",
          "ticks": 6207,
          "time": 72.17441860465117,
          "velocity": 0.4409448818897638
        },
        {
          "duration": 0.10465116279068809,
          "durationTicks": 9,
          "midi": 70,
          "name": "A#4",
          "ticks": 6207,
          "time": 72.17441860465117,
          "velocity": 0.16535433070866143
        },
        {
          "duration": 0.2906976744185954,
          "durationTicks": 25,
          "midi": 84,
          "name": "C6",
          "ticks": 6207,
          "time": 72.17441860465117,
          "velocity": 0.2125984251968504
        },
        {
          "duration": 0.13953488372092693,
          "durationTicks": 12,
          "midi": 92,
          "name": "G#6",
          "ticks": 6207,
          "time": 72.17441860465117,
          "velocity": 0.15748031496062992
        },
        {
          "duration": 0.081395348837205,
          "durationTicks": 7,
          "midi": 61,
          "name": "C#4",
          "ticks": 6208,
          "time": 72.18604651162791,
          "velocity": 0.25984251968503935
        },
        {
          "duration": 0.09302325581394655,
          "durationTicks": 8,
          "midi": 66,
          "name": "F#4",
          "ticks": 6208,
          "time": 72.18604651162791,
          "velocity": 0.18110236220472442
        },
        {
          "duration": 0.04651162790698038,
          "durationTicks": 4,
          "midi": 97,
          "name": "C#7",
          "ticks": 6208,
          "time": 72.18604651162791,
          "velocity": 0.09448818897637795
        },
        {
          "duration": 0.081395348837205,
          "durationTicks": 7,
          "midi": 54,
          "name": "F#3",
          "ticks": 6209,
          "time": 72.19767441860465,
          "velocity": 0.3937007874015748
        },
        {
          "duration": 0.023255813953483084,
          "durationTicks": 2,
          "midi": 42,
          "name": "F#2",
          "ticks": 6212,
          "time": 72.23255813953489,
          "velocity": 0.4251968503937008
        },
        {
          "duration": 0.06976744186046346,
          "durationTicks": 6,
          "midi": 89,
          "name": "F6",
          "ticks": 6212,
          "time": 72.23255813953489,
          "velocity": 0.09448818897637795
        },
        {
          "duration": 0.04651162790698038,
          "durationTicks": 4,
          "midi": 41,
          "name": "F2",
          "ticks": 6215,
          "time": 72.26744186046511,
          "velocity": 0.47244094488188976
        },
        {
          "duration": 0.11627906976744384,
          "durationTicks": 10,
          "midi": 59,
          "name": "B3",
          "ticks": 6215,
          "time": 72.26744186046511,
          "velocity": 0.33070866141732286
        },
        {
          "duration": 0.023255813953497295,
          "durationTicks": 2,
          "midi": 51,
          "name": "D#3",
          "ticks": 6216,
          "time": 72.27906976744185,
          "velocity": 0.4566929133858268
        },
        {
          "duration": 0.09302325581396076,
          "durationTicks": 8,
          "midi": 68,
          "name": "G#4",
          "ticks": 6216,
          "time": 72.27906976744185,
          "velocity": 0.2204724409448819
        },
        {
          "duration": 0.09302325581394655,
          "durationTicks": 8,
          "midi": 64,
          "name": "E4",
          "ticks": 6217,
          "time": 72.29069767441861,
          "velocity": 0.2677165354330709
        },
        {
          "duration": 0.04651162790696617,
          "durationTicks": 4,
          "midi": 86,
          "name": "D6",
          "ticks": 6217,
          "time": 72.29069767441861,
          "velocity": 0.07874015748031496
        },
        {
          "duration": 0.06976744186046346,
          "durationTicks": 6,
          "midi": 52,
          "name": "E3",
          "ticks": 6218,
          "time": 72.30232558139535,
          "velocity": 0.4330708661417323
        },
        {
          "duration": 0.06976744186046346,
          "durationTicks": 6,
          "midi": 95,
          "name": "B6",
          "ticks": 6218,
          "time": 72.30232558139535,
          "velocity": 0.09448818897637795
        },
        {
          "duration": 0.06976744186046346,
          "durationTicks": 6,
          "midi": 40,
          "name": "E2",
          "ticks": 6219,
          "time": 72.31395348837209,
          "velocity": 0.4566929133858268
        },
        {
          "duration": 0.04651162790698038,
          "durationTicks": 4,
          "midi": 78,
          "name": "F#5",
          "ticks": 6224,
          "time": 72.37209302325581,
          "velocity": 0.11023622047244094
        },
        {
          "duration": 0.11627906976744384,
          "durationTicks": 10,
          "midi": 62,
          "name": "D4",
          "ticks": 6225,
          "time": 72.38372093023256,
          "velocity": 0.25196850393700787
        },
        {
          "duration": 0.4651162790697754,
          "durationTicks": 40,
          "midi": 69,
          "name": "A4",
          "ticks": 6225,
          "time": 72.38372093023256,
          "velocity": 0.44881889763779526
        },
        {
          "duration": 0.4651162790697754,
          "durationTicks": 40,
          "midi": 72,
          "name": "C5",
          "ticks": 6225,
          "time": 72.38372093023256,
          "velocity": 0.4330708661417323
        },
        {
          "duration": 0.11627906976744384,
          "durationTicks": 10,
          "midi": 76,
          "name": "E5",
          "ticks": 6225,
          "time": 72.38372093023256,
          "velocity": 0.09448818897637795
        },
        {
          "duration": 0.05813953488372192,
          "durationTicks": 5,
          "midi": 93,
          "name": "A6",
          "ticks": 6225,
          "time": 72.38372093023256,
          "velocity": 0.12598425196850394
        },
        {
          "duration": 0.32558139534884845,
          "durationTicks": 28,
          "midi": 57,
          "name": "A3",
          "ticks": 6226,
          "time": 72.3953488372093,
          "velocity": 0.3937007874015748
        },
        {
          "duration": 0.023255813953483084,
          "durationTicks": 2,
          "midi": 39,
          "name": "D#2",
          "ticks": 6227,
          "time": 72.40697674418605,
          "velocity": 0.47244094488188976
        },
        {
          "duration": 0.04651162790696617,
          "durationTicks": 4,
          "midi": 50,
          "name": "D3",
          "ticks": 6227,
          "time": 72.40697674418605,
          "velocity": 0.4645669291338583
        },
        {
          "duration": 0.3372093023255758,
          "durationTicks": 29,
          "midi": 66,
          "name": "F#4",
          "ticks": 6227,
          "time": 72.40697674418605,
          "velocity": 0.4094488188976378
        },
        {
          "duration": 0.04651162790696617,
          "durationTicks": 4,
          "midi": 80,
          "name": "G#5",
          "ticks": 6227,
          "time": 72.40697674418605,
          "velocity": 0.13385826771653545
        },
        {
          "duration": 0.023255813953483084,
          "durationTicks": 2,
          "midi": 39,
          "name": "D#2",
          "ticks": 6230,
          "time": 72.44186046511628,
          "velocity": 0.4251968503937008
        },
        {
          "duration": 0.023255813953497295,
          "durationTicks": 2,
          "midi": 38,
          "name": "D2",
          "ticks": 6232,
          "time": 72.46511627906976,
          "velocity": 0.3543307086614173
        },
        {
          "duration": 0.03488372093023884,
          "durationTicks": 3,
          "midi": 50,
          "name": "D3",
          "ticks": 6232,
          "time": 72.46511627906976,
          "velocity": 0.4094488188976378
        },
        {
          "duration": 0.03488372093023884,
          "durationTicks": 3,
          "midi": 80,
          "name": "G#5",
          "ticks": 6232,
          "time": 72.46511627906976,
          "velocity": 0.07086614173228346
        },
        {
          "duration": 0.023255813953483084,
          "durationTicks": 2,
          "midi": 48,
          "name": "C3",
          "ticks": 6235,
          "time": 72.5,
          "velocity": 0.4409448818897638
        },
        {
          "duration": 0.023255813953483084,
          "durationTicks": 2,
          "midi": 63,
          "name": "D#4",
          "ticks": 6235,
          "time": 72.5,
          "velocity": 0.3464566929133858
        },
        {
          "duration": 0.27906976744185386,
          "durationTicks": 24,
          "midi": 74,
          "name": "D5",
          "ticks": 6235,
          "time": 72.5,
          "velocity": 0.2677165354330709
        },
        {
          "duration": 0.03488372093023884,
          "durationTicks": 3,
          "midi": 79,
          "name": "G5",
          "ticks": 6235,
          "time": 72.5,
          "velocity": 0.11811023622047244
        },
        {
          "duration": 0.03488372093023884,
          "durationTicks": 3,
          "midi": 85,
          "name": "C#6",
          "ticks": 6235,
          "time": 72.5,
          "velocity": 0.10236220472440945
        },
        {
          "duration": 0.16279069767442422,
          "durationTicks": 14,
          "midi": 93,
          "name": "A6",
          "ticks": 6235,
          "time": 72.5,
          "velocity": 0.1889763779527559
        },
        {
          "duration": 0.06976744186046346,
          "durationTicks": 6,
          "midi": 97,
          "name": "C#7",
          "ticks": 6236,
          "time": 72.51162790697674,
          "velocity": 0.13385826771653545
        },
        {
          "duration": 0.023255813953497295,
          "durationTicks": 2,
          "midi": 40,
          "name": "E2",
          "ticks": 6237,
          "time": 72.52325581395348,
          "velocity": 0.4015748031496063
        },
        {
          "duration": 0.19767441860466306,
          "durationTicks": 17,
          "midi": 50,
          "name": "D3",
          "ticks": 6237,
          "time": 72.52325581395348,
          "velocity": 0.4015748031496063
        },
        {
          "duration": 0.2093023255814046,
          "durationTicks": 18,
          "midi": 62,
          "name": "D4",
          "ticks": 6237,
          "time": 72.52325581395348,
          "velocity": 0.4566929133858268
        },
        {
          "duration": 0.13953488372094114,
          "durationTicks": 12,
          "midi": 88,
          "name": "E6",
          "ticks": 6237,
          "time": 72.52325581395348,
          "velocity": 0.09448818897637795
        },
        {
          "duration": 0.04651162790698038,
          "durationTicks": 4,
          "midi": 90,
          "name": "F#6",
          "ticks": 6237,
          "time": 72.52325581395348,
          "velocity": 0.15748031496062992
        },
        {
          "duration": 0.023255813953483084,
          "durationTicks": 2,
          "midi": 39,
          "name": "D#2",
          "ticks": 6239,
          "time": 72.54651162790698,
          "velocity": 0.3937007874015748
        },
        {
          "duration": 0.081395348837205,
          "durationTicks": 7,
          "midi": 38,
          "name": "D2",
          "ticks": 6241,
          "time": 72.56976744186046,
          "velocity": 0.3858267716535433
        },
        {
          "duration": 0.034883720930224626,
          "durationTicks": 3,
          "midi": 90,
          "name": "F#6",
          "ticks": 6244,
          "time": 72.6046511627907,
          "velocity": 0.08661417322834646
        },
        {
          "duration": 0.03488372093023884,
          "durationTicks": 3,
          "midi": 37,
          "name": "C#2",
          "ticks": 6248,
          "time": 72.65116279069767,
          "velocity": 0.2440944881889764
        },
        {
          "duration": 0.023255813953483084,
          "durationTicks": 2,
          "midi": 38,
          "name": "D2",
          "ticks": 6251,
          "time": 72.68604651162791,
          "velocity": 0.2677165354330709
        },
        {
          "duration": 0.023255813953483084,
          "durationTicks": 2,
          "midi": 43,
          "name": "G2",
          "ticks": 6254,
          "time": 72.72093023255815,
          "velocity": 0.3228346456692913
        },
        {
          "duration": 0.16279069767441,
          "durationTicks": 14,
          "midi": 87,
          "name": "D#6",
          "ticks": 6254,
          "time": 72.72093023255815,
          "velocity": 0.1732283464566929
        },
        {
          "duration": 0.034883720930224626,
          "durationTicks": 3,
          "midi": 90,
          "name": "F#6",
          "ticks": 6254,
          "time": 72.72093023255815,
          "velocity": 0.12598425196850394
        },
        {
          "duration": 0.034883720930224626,
          "durationTicks": 3,
          "midi": 53,
          "name": "F3",
          "ticks": 6255,
          "time": 72.73255813953489,
          "velocity": 0.5511811023622047
        },
        {
          "duration": 0.10465116279068809,
          "durationTicks": 9,
          "midi": 77,
          "name": "F5",
          "ticks": 6255,
          "time": 72.73255813953489,
          "velocity": 0.28346456692913385
        },
        {
          "duration": 0.05813953488372192,
          "durationTicks": 5,
          "midi": 85,
          "name": "C#6",
          "ticks": 6255,
          "time": 72.73255813953489,
          "velocity": 0.08661417322834646
        },
        {
          "duration": 0.034883720930224626,
          "durationTicks": 3,
          "midi": 91,
          "name": "G6",
          "ticks": 6255,
          "time": 72.73255813953489,
          "velocity": 0.15748031496062992
        },
        {
          "duration": 0.081395348837205,
          "durationTicks": 7,
          "midi": 93,
          "name": "A6",
          "ticks": 6255,
          "time": 72.73255813953489,
          "velocity": 0.2125984251968504
        },
        {
          "duration": 0.12790697674418539,
          "durationTicks": 11,
          "midi": 96,
          "name": "C7",
          "ticks": 6255,
          "time": 72.73255813953489,
          "velocity": 0.14173228346456693
        },
        {
          "duration": 0.05813953488372192,
          "durationTicks": 5,
          "midi": 100,
          "name": "E7",
          "ticks": 6255,
          "time": 72.73255813953489,
          "velocity": 0.14173228346456693
        },
        {
          "duration": 0.034883720930224626,
          "durationTicks": 3,
          "midi": 95,
          "name": "B6",
          "ticks": 6256,
          "time": 72.74418604651163,
          "velocity": 0.07086614173228346
        },
        {
          "duration": 0.023255813953497295,
          "durationTicks": 2,
          "midi": 39,
          "name": "D#2",
          "ticks": 6258,
          "time": 72.76744186046511,
          "velocity": 0.44881889763779526
        },
        {
          "duration": 0.06976744186047767,
          "durationTicks": 6,
          "midi": 53,
          "name": "F3",
          "ticks": 6259,
          "time": 72.77906976744185,
          "velocity": 0.5196850393700787
        },
        {
          "duration": 0.04651162790696617,
          "durationTicks": 4,
          "midi": 38,
          "name": "D2",
          "ticks": 6260,
          "time": 72.79069767441861,
          "velocity": 0.4251968503937008
        },
        {
          "duration": 0.081395348837205,
          "durationTicks": 7,
          "midi": 91,
          "name": "G6",
          "ticks": 6260,
          "time": 72.79069767441861,
          "velocity": 0.14173228346456693
        },
        {
          "duration": 0.023255813953497295,
          "durationTicks": 2,
          "midi": 62,
          "name": "D4",
          "ticks": 6263,
          "time": 72.82558139534883,
          "velocity": 0.28346456692913385
        },
        {
          "duration": 0.2906976744186096,
          "durationTicks": 25,
          "midi": 76,
          "name": "E5",
          "ticks": 6264,
          "time": 72.83720930232558,
          "velocity": 0.30708661417322836
        },
        {
          "duration": 0.13953488372094114,
          "durationTicks": 12,
          "midi": 80,
          "name": "G#5",
          "ticks": 6264,
          "time": 72.83720930232558,
          "velocity": 0.2677165354330709
        },
        {
          "duration": 0.3139534883720927,
          "durationTicks": 27,
          "midi": 93,
          "name": "A6",
          "ticks": 6264,
          "time": 72.83720930232558,
          "velocity": 0.1732283464566929
        },
        {
          "duration": 0.03488372093023884,
          "durationTicks": 3,
          "midi": 97,
          "name": "C#7",
          "ticks": 6264,
          "time": 72.83720930232558,
          "velocity": 0.12598425196850394
        },
        {
          "duration": 0.023255813953483084,
          "durationTicks": 2,
          "midi": 40,
          "name": "E2",
          "ticks": 6265,
          "time": 72.84883720930233,
          "velocity": 0.4330708661417323
        },
        {
          "duration": 0.04651162790696617,
          "durationTicks": 4,
          "midi": 51,
          "name": "D#3",
          "ticks": 6265,
          "time": 72.84883720930233,
          "velocity": 0.5748031496062992
        },
        {
          "duration": 0.1860465116279073,
          "durationTicks": 16,
          "midi": 71,
          "name": "B4",
          "ticks": 6265,
          "time": 72.84883720930233,
          "velocity": 0.44881889763779526
        },
        {
          "duration": 0.11627906976742963,
          "durationTicks": 10,
          "midi": 86,
          "name": "D6",
          "ticks": 6265,
          "time": 72.84883720930233,
          "velocity": 0.1889763779527559
        },
        {
          "duration": 0.11627906976742963,
          "durationTicks": 10,
          "midi": 95,
          "name": "B6",
          "ticks": 6265,
          "time": 72.84883720930233,
          "velocity": 0.14173228346456693
        },
        {
          "duration": 0.06976744186046346,
          "durationTicks": 6,
          "midi": 39,
          "name": "D#2",
          "ticks": 6267,
          "time": 72.87209302325581,
          "velocity": 0.3937007874015748
        },
        {
          "duration": 0.1046511627907023,
          "durationTicks": 9,
          "midi": 64,
          "name": "E4",
          "ticks": 6267,
          "time": 72.87209302325581,
          "velocity": 0.4645669291338583
        },
        {
          "duration": 0.023255813953497295,
          "durationTicks": 2,
          "midi": 53,
          "name": "F3",
          "ticks": 6269,
          "time": 72.8953488372093,
          "velocity": 0.5039370078740157
        },
        {
          "duration": 0.12790697674418539,
          "durationTicks": 11,
          "midi": 90,
          "name": "F#6",
          "ticks": 6269,
          "time": 72.8953488372093,
          "velocity": 0.15748031496062992
        },
        {
          "duration": 0.023255813953483084,
          "durationTicks": 2,
          "midi": 51,
          "name": "D#3",
          "ticks": 6271,
          "time": 72.9186046511628,
          "velocity": 0.5669291338582677
        },
        {
          "duration": 0.023255813953497295,
          "durationTicks": 2,
          "midi": 48,
          "name": "C3",
          "ticks": 6274,
          "time": 72.95348837209302,
          "velocity": 0.5039370078740157
        },
        {
          "duration": 0.24418604651162923,
          "durationTicks": 21,
          "midi": 69,
          "name": "A4",
          "ticks": 6274,
          "time": 72.95348837209302,
          "velocity": 0.4330708661417323
        },
        {
          "duration": 0.24418604651162923,
          "durationTicks": 21,
          "midi": 85,
          "name": "C#6",
          "ticks": 6274,
          "time": 72.95348837209302,
          "velocity": 0.25196850393700787
        },
        {
          "duration": 0.22093023255814614,
          "durationTicks": 19,
          "midi": 62,
          "name": "D4",
          "ticks": 6275,
          "time": 72.96511627906976,
          "velocity": 0.4566929133858268
        },
        {
          "duration": 0.05813953488372192,
          "durationTicks": 5,
          "midi": 84,
          "name": "C6",
          "ticks": 6275,
          "time": 72.96511627906976,
          "velocity": 0.2047244094488189
        },
        {
          "duration": 0.011627906976741542,
          "durationTicks": 1,
          "midi": 46,
          "name": "A#2",
          "ticks": 6276,
          "time": 72.97674418604652,
          "velocity": 0.5118110236220472
        },
        {
          "duration": 0.04651162790696617,
          "durationTicks": 4,
          "midi": 78,
          "name": "F#5",
          "ticks": 6276,
          "time": 72.97674418604652,
          "velocity": 0.2047244094488189
        },
        {
          "duration": 0.023255813953483084,
          "durationTicks": 2,
          "midi": 57,
          "name": "A3",
          "ticks": 6277,
          "time": 72.98837209302326,
          "velocity": 0.23622047244094488
        },
        {
          "duration": 0.034883720930224626,
          "durationTicks": 3,
          "midi": 92,
          "name": "G#6",
          "ticks": 6277,
          "time": 72.98837209302326,
          "velocity": 0.10236220472440945
        },
        {
          "duration": 0.023255813953483084,
          "durationTicks": 2,
          "midi": 51,
          "name": "D#3",
          "ticks": 6278,
          "time": 73,
          "velocity": 0.5196850393700787
        },
        {
          "duration": 0.16279069767442422,
          "durationTicks": 14,
          "midi": 57,
          "name": "A3",
          "ticks": 6280,
          "time": 73.02325581395348,
          "velocity": 0.2283464566929134
        },
        {
          "duration": 0.12790697674418539,
          "durationTicks": 11,
          "midi": 78,
          "name": "F#5",
          "ticks": 6281,
          "time": 73.03488372093024,
          "velocity": 0.12598425196850394
        },
        {
          "duration": 0.06976744186046346,
          "durationTicks": 6,
          "midi": 79,
          "name": "G5",
          "ticks": 6281,
          "time": 73.03488372093024,
          "velocity": 0.11023622047244094
        },
        {
          "duration": 0.19767441860464885,
          "durationTicks": 17,
          "midi": 84,
          "name": "C6",
          "ticks": 6281,
          "time": 73.03488372093024,
          "velocity": 0.16535433070866143
        },
        {
          "duration": 0.023255813953483084,
          "durationTicks": 2,
          "midi": 51,
          "name": "D#3",
          "ticks": 6283,
          "time": 73.05813953488372,
          "velocity": 0.4881889763779528
        },
        {
          "duration": 0.023255813953497295,
          "durationTicks": 2,
          "midi": 49,
          "name": "C#3",
          "ticks": 6285,
          "time": 73.0813953488372,
          "velocity": 0.41732283464566927
        },
        {
          "duration": 0.04651162790698038,
          "durationTicks": 4,
          "midi": 67,
          "name": "G4",
          "ticks": 6286,
          "time": 73.09302325581395,
          "velocity": 0.13385826771653545
        },
        {
          "duration": 0.023255813953483084,
          "durationTicks": 2,
          "midi": 45,
          "name": "A2",
          "ticks": 6288,
          "time": 73.11627906976744,
          "velocity": 0.3700787401574803
        },
        {
          "duration": 0.023255813953483084,
          "durationTicks": 2,
          "midi": 51,
          "name": "D#3",
          "ticks": 6288,
          "time": 73.11627906976744,
          "velocity": 0.4409448818897638
        },
        {
          "duration": 0.023255813953483084,
          "durationTicks": 2,
          "midi": 54,
          "name": "F#3",
          "ticks": 6294,
          "time": 73.18604651162791,
          "velocity": 0.2677165354330709
        },
        {
          "duration": 0.09302325581394655,
          "durationTicks": 8,
          "midi": 76,
          "name": "E5",
          "ticks": 6294,
          "time": 73.18604651162791,
          "velocity": 0.16535433070866143
        },
        {
          "duration": 0.11627906976744384,
          "durationTicks": 10,
          "midi": 79,
          "name": "G5",
          "ticks": 6294,
          "time": 73.18604651162791,
          "velocity": 0.15748031496062992
        },
        {
          "duration": 0.2325581395348877,
          "durationTicks": 20,
          "midi": 82,
          "name": "A#5",
          "ticks": 6294,
          "time": 73.18604651162791,
          "velocity": 0.15748031496062992
        },
        {
          "duration": 0.1860465116279073,
          "durationTicks": 16,
          "midi": 91,
          "name": "G6",
          "ticks": 6294,
          "time": 73.18604651162791,
          "velocity": 0.1889763779527559
        },
        {
          "duration": 0.09302325581394655,
          "durationTicks": 8,
          "midi": 95,
          "name": "B6",
          "ticks": 6294,
          "time": 73.18604651162791,
          "velocity": 0.16535433070866143
        },
        {
          "duration": 0.011627906976741542,
          "durationTicks": 1,
          "midi": 45,
          "name": "A2",
          "ticks": 6295,
          "time": 73.19767441860465,
          "velocity": 0.5118110236220472
        },
        {
          "duration": 0.2325581395348877,
          "durationTicks": 20,
          "midi": 60,
          "name": "C4",
          "ticks": 6295,
          "time": 73.19767441860465,
          "velocity": 0.47244094488188976
        },
        {
          "duration": 0.22093023255814614,
          "durationTicks": 19,
          "midi": 67,
          "name": "G4",
          "ticks": 6295,
          "time": 73.19767441860465,
          "velocity": 0.44881889763779526
        },
        {
          "duration": 0.03488372093023884,
          "durationTicks": 3,
          "midi": 77,
          "name": "F5",
          "ticks": 6295,
          "time": 73.19767441860465,
          "velocity": 0.14960629921259844
        },
        {
          "duration": 0.05813953488372192,
          "durationTicks": 5,
          "midi": 88,
          "name": "E6",
          "ticks": 6295,
          "time": 73.19767441860465,
          "velocity": 0.1732283464566929
        },
        {
          "duration": 0.2093023255814046,
          "durationTicks": 18,
          "midi": 55,
          "name": "G3",
          "ticks": 6296,
          "time": 73.20930232558139,
          "velocity": 0.3228346456692913
        },
        {
          "duration": 0.023255813953497295,
          "durationTicks": 2,
          "midi": 64,
          "name": "E4",
          "ticks": 6296,
          "time": 73.20930232558139,
          "velocity": 0.23622047244094488
        },
        {
          "duration": 0.03488372093023884,
          "durationTicks": 3,
          "midi": 69,
          "name": "A4",
          "ticks": 6296,
          "time": 73.20930232558139,
          "velocity": 0.25196850393700787
        },
        {
          "duration": 0.04651162790696617,
          "durationTicks": 4,
          "midi": 37,
          "name": "C#2",
          "ticks": 6297,
          "time": 73.22093023255815,
          "velocity": 0.44881889763779526
        },
        {
          "duration": 0.05813953488372192,
          "durationTicks": 5,
          "midi": 78,
          "name": "F#5",
          "ticks": 6298,
          "time": 73.23255813953489,
          "velocity": 0.12598425196850394
        },
        {
          "duration": 0.081395348837205,
          "durationTicks": 7,
          "midi": 48,
          "name": "C3",
          "ticks": 6299,
          "time": 73.24418604651163,
          "velocity": 0.44881889763779526
        },
        {
          "duration": 0.09302325581396076,
          "durationTicks": 8,
          "midi": 36,
          "name": "C2",
          "ticks": 6301,
          "time": 73.26744186046511,
          "velocity": 0.4094488188976378
        },
        {
          "duration": 0.13953488372094114,
          "durationTicks": 12,
          "midi": 64,
          "name": "E4",
          "ticks": 6301,
          "time": 73.26744186046511,
          "velocity": 0.2047244094488189
        },
        {
          "duration": 0.04651162790696617,
          "durationTicks": 4,
          "midi": 88,
          "name": "E6",
          "ticks": 6303,
          "time": 73.29069767441861,
          "velocity": 0.11023622047244094
        },
        {
          "duration": 0.09302325581396076,
          "durationTicks": 8,
          "midi": 70,
          "name": "A#4",
          "ticks": 6306,
          "time": 73.32558139534883,
          "velocity": 0.09448818897637795
        },
        {
          "duration": 0.023255813953497295,
          "durationTicks": 2,
          "midi": 47,
          "name": "B2",
          "ticks": 6307,
          "time": 73.33720930232558,
          "velocity": 0.2677165354330709
        },
        {
          "duration": 0.023255813953483084,
          "durationTicks": 2,
          "midi": 35,
          "name": "B1",
          "ticks": 6309,
          "time": 73.36046511627907,
          "velocity": 0.25984251968503935
        },
        {
          "duration": 0.023255813953497295,
          "durationTicks": 2,
          "midi": 36,
          "name": "C2",
          "ticks": 6311,
          "time": 73.38372093023256,
          "velocity": 0.28346456692913385
        },
        {
          "duration": 0.1860465116279073,
          "durationTicks": 16,
          "midi": 88,
          "name": "E6",
          "ticks": 6311,
          "time": 73.38372093023256,
          "velocity": 0.12598425196850394
        },
        {
          "duration": 0.023255813953483084,
          "durationTicks": 2,
          "midi": 47,
          "name": "B2",
          "ticks": 6313,
          "time": 73.40697674418605,
          "velocity": 0.4015748031496063
        },
        {
          "duration": 0.46511627906976116,
          "durationTicks": 40,
          "midi": 69,
          "name": "A4",
          "ticks": 6314,
          "time": 73.4186046511628,
          "velocity": 0.4330708661417323
        },
        {
          "duration": 0.4534883720930196,
          "durationTicks": 39,
          "midi": 74,
          "name": "D5",
          "ticks": 6314,
          "time": 73.4186046511628,
          "velocity": 0.29133858267716534
        },
        {
          "duration": 0.09302325581394655,
          "durationTicks": 8,
          "midi": 78,
          "name": "F#5",
          "ticks": 6314,
          "time": 73.4186046511628,
          "velocity": 0.14173228346456693
        },
        {
          "duration": 0.034883720930224626,
          "durationTicks": 3,
          "midi": 79,
          "name": "G5",
          "ticks": 6314,
          "time": 73.4186046511628,
          "velocity": 0.14960629921259844
        },
        {
          "duration": 0.16279069767441,
          "durationTicks": 14,
          "midi": 93,
          "name": "A6",
          "ticks": 6314,
          "time": 73.4186046511628,
          "velocity": 0.1732283464566929
        },
        {
          "duration": 0.2093023255813904,
          "durationTicks": 18,
          "midi": 50,
          "name": "D3",
          "ticks": 6315,
          "time": 73.43023255813954,
          "velocity": 0.47244094488188976
        },
        {
          "duration": 0.023255813953483084,
          "durationTicks": 2,
          "midi": 56,
          "name": "G#3",
          "ticks": 6315,
          "time": 73.43023255813954,
          "velocity": 0.3464566929133858
        },
        {
          "duration": 0.034883720930224626,
          "durationTicks": 3,
          "midi": 82,
          "name": "A#5",
          "ticks": 6315,
          "time": 73.43023255813954,
          "velocity": 0.11023622047244094
        },
        {
          "duration": 0.06976744186046346,
          "durationTicks": 6,
          "midi": 97,
          "name": "C#7",
          "ticks": 6315,
          "time": 73.43023255813954,
          "velocity": 0.13385826771653545
        },
        {
          "duration": 0.4418604651162781,
          "durationTicks": 38,
          "midi": 66,
          "name": "F#4",
          "ticks": 6316,
          "time": 73.44186046511628,
          "velocity": 0.25984251968503935
        },
        {
          "duration": 0.05813953488372192,
          "durationTicks": 5,
          "midi": 90,
          "name": "F#6",
          "ticks": 6316,
          "time": 73.44186046511628,
          "velocity": 0.14960629921259844
        },
        {
          "duration": 0.023255813953497295,
          "durationTicks": 2,
          "midi": 38,
          "name": "D2",
          "ticks": 6317,
          "time": 73.45348837209302,
          "velocity": 0.47244094488188976
        },
        {
          "duration": 0.1860465116279073,
          "durationTicks": 16,
          "midi": 57,
          "name": "A3",
          "ticks": 6317,
          "time": 73.45348837209302,
          "velocity": 0.3228346456692913
        },
        {
          "duration": 0.418604651162795,
          "durationTicks": 36,
          "midi": 62,
          "name": "D4",
          "ticks": 6317,
          "time": 73.45348837209302,
          "velocity": 0.48031496062992124
        },
        {
          "duration": 0.023255813953483084,
          "durationTicks": 2,
          "midi": 39,
          "name": "D#2",
          "ticks": 6319,
          "time": 73.47674418604652,
          "velocity": 0.4094488188976378
        },
        {
          "duration": 0.034883720930224626,
          "durationTicks": 3,
          "midi": 80,
          "name": "G#5",
          "ticks": 6319,
          "time": 73.47674418604652,
          "velocity": 0.07086614173228346
        },
        {
          "duration": 0.05813953488372192,
          "durationTicks": 5,
          "midi": 38,
          "name": "D2",
          "ticks": 6321,
          "time": 73.5,
          "velocity": 0.33858267716535434
        },
        {
          "duration": 0.081395348837205,
          "durationTicks": 7,
          "midi": 76,
          "name": "E5",
          "ticks": 6321,
          "time": 73.5,
          "velocity": 0.08661417322834646
        },
        {
          "duration": 0.03488372093023884,
          "durationTicks": 3,
          "midi": 90,
          "name": "F#6",
          "ticks": 6323,
          "time": 73.52325581395348,
          "velocity": 0.08661417322834646
        },
        {
          "duration": 0.081395348837205,
          "durationTicks": 7,
          "midi": 72,
          "name": "C5",
          "ticks": 6325,
          "time": 73.54651162790698,
          "velocity": 0.11811023622047244
        },
        {
          "duration": 0.034883720930224626,
          "durationTicks": 3,
          "midi": 37,
          "name": "C#2",
          "ticks": 6326,
          "time": 73.55813953488372,
          "velocity": 0.29133858267716534
        },
        {
          "duration": 0.03488372093023884,
          "durationTicks": 3,
          "midi": 38,
          "name": "D2",
          "ticks": 6329,
          "time": 73.59302325581395,
          "velocity": 0.25984251968503935
        },
        {
          "duration": 0.04651162790698038,
          "durationTicks": 4,
          "midi": 88,
          "name": "E6",
          "ticks": 6331,
          "time": 73.61627906976744,
          "velocity": 0.07086614173228346
        },
        {
          "duration": 0.023255813953497295,
          "durationTicks": 2,
          "midi": 56,
          "name": "G#3",
          "ticks": 6333,
          "time": 73.63953488372093,
          "velocity": 0.25196850393700787
        },
        {
          "duration": 0.19767441860464885,
          "durationTicks": 17,
          "midi": 76,
          "name": "E5",
          "ticks": 6333,
          "time": 73.63953488372093,
          "velocity": 0.12598425196850394
        },
        {
          "duration": 0.05813953488372192,
          "durationTicks": 5,
          "midi": 93,
          "name": "A6",
          "ticks": 6334,
          "time": 73.65116279069767,
          "velocity": 0.16535433070866143
        },
        {
          "duration": 0.22093023255813193,
          "durationTicks": 19,
          "midi": 50,
          "name": "D3",
          "ticks": 6335,
          "time": 73.66279069767442,
          "velocity": 0.4645669291338583
        },
        {
          "duration": 0.2093023255813904,
          "durationTicks": 18,
          "midi": 57,
          "name": "A3",
          "ticks": 6335,
          "time": 73.66279069767442,
          "velocity": 0.25196850393700787
        },
        {
          "duration": 0.24418604651162923,
          "durationTicks": 21,
          "midi": 72,
          "name": "C5",
          "ticks": 6335,
          "time": 73.66279069767442,
          "velocity": 0.2440944881889764
        },
        {
          "duration": 0.034883720930224626,
          "durationTicks": 3,
          "midi": 39,
          "name": "D#2",
          "ticks": 6336,
          "time": 73.67441860465117,
          "velocity": 0.4330708661417323
        },
        {
          "duration": 0.09302325581396076,
          "durationTicks": 8,
          "midi": 38,
          "name": "D2",
          "ticks": 6339,
          "time": 73.70930232558139,
          "velocity": 0.4330708661417323
        },
        {
          "duration": 0.05813953488372192,
          "durationTicks": 5,
          "midi": 38,
          "name": "D2",
          "ticks": 6348,
          "time": 73.81395348837209,
          "velocity": 0.28346456692913385
        },
        {
          "duration": 0.27906976744185386,
          "durationTicks": 24,
          "midi": 85,
          "name": "C#6",
          "ticks": 6353,
          "time": 73.87209302325581,
          "velocity": 0.2283464566929134
        },
        {
          "duration": 0.03488372093023884,
          "durationTicks": 3,
          "midi": 88,
          "name": "E6",
          "ticks": 6353,
          "time": 73.87209302325581,
          "velocity": 0.11023622047244094
        },
        {
          "duration": 0.023255813953497295,
          "durationTicks": 2,
          "midi": 60,
          "name": "C4",
          "ticks": 6354,
          "time": 73.88372093023256,
          "velocity": 0.25984251968503935
        },
        {
          "duration": 0.4534883720930196,
          "durationTicks": 39,
          "midi": 67,
          "name": "G4",
          "ticks": 6354,
          "time": 73.88372093023256,
          "velocity": 0.47244094488188976
        },
        {
          "duration": 0.03488372093023884,
          "durationTicks": 3,
          "midi": 76,
          "name": "E5",
          "ticks": 6354,
          "time": 73.88372093023256,
          "velocity": 0.12598425196850394
        },
        {
          "duration": 0.1046511627907023,
          "durationTicks": 9,
          "midi": 83,
          "name": "B5",
          "ticks": 6354,
          "time": 73.88372093023256,
          "velocity": 0.2440944881889764
        },
        {
          "duration": 0.13953488372092693,
          "durationTicks": 12,
          "midi": 93,
          "name": "A6",
          "ticks": 6354,
          "time": 73.88372093023256,
          "velocity": 0.12598425196850394
        },
        {
          "duration": 0.03488372093023884,
          "durationTicks": 3,
          "midi": 45,
          "name": "A2",
          "ticks": 6355,
          "time": 73.8953488372093,
          "velocity": 0.49606299212598426
        },
        {
          "duration": 0.03488372093023884,
          "durationTicks": 3,
          "midi": 74,
          "name": "D5",
          "ticks": 6355,
          "time": 73.8953488372093,
          "velocity": 0.2992125984251969
        },
        {
          "duration": 0.034883720930224626,
          "durationTicks": 3,
          "midi": 55,
          "name": "G3",
          "ticks": 6356,
          "time": 73.90697674418605,
          "velocity": 0.31496062992125984
        },
        {
          "duration": 0.034883720930224626,
          "durationTicks": 3,
          "midi": 61,
          "name": "C#4",
          "ticks": 6356,
          "time": 73.90697674418605,
          "velocity": 0.29133858267716534
        },
        {
          "duration": 0.081395348837205,
          "durationTicks": 7,
          "midi": 89,
          "name": "F6",
          "ticks": 6356,
          "time": 73.90697674418605,
          "velocity": 0.13385826771653545
        },
        {
          "duration": 0.034883720930224626,
          "durationTicks": 3,
          "midi": 75,
          "name": "D#5",
          "ticks": 6358,
          "time": 73.93023255813954,
          "velocity": 0.2125984251968504
        },
        {
          "duration": 0.17441860465116577,
          "durationTicks": 15,
          "midi": 45,
          "name": "A2",
          "ticks": 6359,
          "time": 73.94186046511628,
          "velocity": 0.5196850393700787
        },
        {
          "duration": 0.081395348837205,
          "durationTicks": 7,
          "midi": 86,
          "name": "D6",
          "ticks": 6359,
          "time": 73.94186046511628,
          "velocity": 0.11023622047244094
        },
        {
          "duration": 0.15116279069768268,
          "durationTicks": 13,
          "midi": 61,
          "name": "C#4",
          "ticks": 6360,
          "time": 73.95348837209302,
          "velocity": 0.2125984251968504
        },
        {
          "duration": 0.023255813953497295,
          "durationTicks": 2,
          "midi": 74,
          "name": "D5",
          "ticks": 6361,
          "time": 73.96511627906976,
          "velocity": 0.2283464566929134
        },
        {
          "duration": 0.04651162790698038,
          "durationTicks": 4,
          "midi": 83,
          "name": "B5",
          "ticks": 6364,
          "time": 74,
          "velocity": 0.14173228346456693
        },
        {
          "duration": 0.03488372093023884,
          "durationTicks": 3,
          "midi": 74,
          "name": "D5",
          "ticks": 6365,
          "time": 74.01162790697674,
          "velocity": 0.1889763779527559
        },
        {
          "duration": 0.04651162790698038,
          "durationTicks": 4,
          "midi": 55,
          "name": "G3",
          "ticks": 6366,
          "time": 74.02325581395348,
          "velocity": 0.25984251968503935
        },
        {
          "duration": 0.32558139534883423,
          "durationTicks": 28,
          "midi": 74,
          "name": "D5",
          "ticks": 6370,
          "time": 74.06976744186046,
          "velocity": 0.18110236220472442
        },
        {
          "duration": 0.13953488372092693,
          "durationTicks": 12,
          "midi": 83,
          "name": "B5",
          "ticks": 6370,
          "time": 74.06976744186046,
          "velocity": 0.14960629921259844
        },
        {
          "duration": 0.03488372093023884,
          "durationTicks": 3,
          "midi": 78,
          "name": "F#5",
          "ticks": 6372,
          "time": 74.09302325581395,
          "velocity": 0.12598425196850394
        },
        {
          "duration": 0.22093023255813193,
          "durationTicks": 19,
          "midi": 60,
          "name": "C4",
          "ticks": 6373,
          "time": 74.1046511627907,
          "velocity": 0.29133858267716534
        },
        {
          "duration": 0.22093023255813193,
          "durationTicks": 19,
          "midi": 70,
          "name": "A#4",
          "ticks": 6373,
          "time": 74.1046511627907,
          "velocity": 0.14173228346456693
        },
        {
          "duration": 0.2093023255813904,
          "durationTicks": 18,
          "midi": 64,
          "name": "E4",
          "ticks": 6374,
          "time": 74.11627906976744,
          "velocity": 0.18110236220472442
        },
        {
          "duration": 0.04651162790698038,
          "durationTicks": 4,
          "midi": 37,
          "name": "C#2",
          "ticks": 6375,
          "time": 74.12790697674419,
          "velocity": 0.4330708661417323
        },
        {
          "duration": 0.1860465116279073,
          "durationTicks": 16,
          "midi": 55,
          "name": "G3",
          "ticks": 6376,
          "time": 74.13953488372093,
          "velocity": 0.2440944881889764
        },
        {
          "duration": 0.13953488372092693,
          "durationTicks": 12,
          "midi": 78,
          "name": "F#5",
          "ticks": 6376,
          "time": 74.13953488372093,
          "velocity": 0.08661417322834646
        },
        {
          "duration": 0.09302325581394655,
          "durationTicks": 8,
          "midi": 36,
          "name": "C2",
          "ticks": 6379,
          "time": 74.17441860465117,
          "velocity": 0.41732283464566927
        },
        {
          "duration": 0.1860465116279073,
          "durationTicks": 16,
          "midi": 48,
          "name": "C3",
          "ticks": 6379,
          "time": 74.17441860465117,
          "velocity": 0.5275590551181102
        },
        {
          "duration": 0.023255813953497295,
          "durationTicks": 2,
          "midi": 35,
          "name": "B1",
          "ticks": 6387,
          "time": 74.26744186046511,
          "velocity": 0.25196850393700787
        },
        {
          "duration": 0.034883720930224626,
          "durationTicks": 3,
          "midi": 36,
          "name": "C2",
          "ticks": 6389,
          "time": 74.29069767441861,
          "velocity": 0.2677165354330709
        },
        {
          "duration": 0.023255813953497295,
          "durationTicks": 2,
          "midi": 56,
          "name": "G#3",
          "ticks": 6392,
          "time": 74.32558139534883,
          "velocity": 0.4251968503937008
        },
        {
          "duration": 0.7093023255814046,
          "durationTicks": 61,
          "midi": 69,
          "name": "A4",
          "ticks": 6392,
          "time": 74.32558139534883,
          "velocity": 0.4645669291338583
        },
        {
          "duration": 0.023255813953497295,
          "durationTicks": 2,
          "midi": 61,
          "name": "C#4",
          "ticks": 6393,
          "time": 74.33720930232558,
          "velocity": 0.28346456692913385
        },
        {
          "duration": 0.2325581395348877,
          "durationTicks": 20,
          "midi": 72,
          "name": "C5",
          "ticks": 6393,
          "time": 74.33720930232558,
          "velocity": 0.14173228346456693
        },
        {
          "duration": 0.03488372093023884,
          "durationTicks": 3,
          "midi": 78,
          "name": "F#5",
          "ticks": 6393,
          "time": 74.33720930232558,
          "velocity": 0.07874015748031496
        },
        {
          "duration": 0.16279069767442422,
          "durationTicks": 14,
          "midi": 80,
          "name": "G#5",
          "ticks": 6393,
          "time": 74.33720930232558,
          "velocity": 0.12598425196850394
        },
        {
          "duration": 0.15116279069768268,
          "durationTicks": 13,
          "midi": 85,
          "name": "C#6",
          "ticks": 6393,
          "time": 74.33720930232558,
          "velocity": 0.2047244094488189
        },
        {
          "duration": 0.04651162790698038,
          "durationTicks": 4,
          "midi": 90,
          "name": "F#6",
          "ticks": 6393,
          "time": 74.33720930232558,
          "velocity": 0.09448818897637795
        },
        {
          "duration": 0.1860465116279073,
          "durationTicks": 16,
          "midi": 95,
          "name": "B6",
          "ticks": 6393,
          "time": 74.33720930232558,
          "velocity": 0.14173228346456693
        },
        {
          "duration": 0.6744186046511516,
          "durationTicks": 58,
          "midi": 57,
          "name": "A3",
          "ticks": 6394,
          "time": 74.34883720930233,
          "velocity": 0.48031496062992124
        },
        {
          "duration": 0.46511627906976116,
          "durationTicks": 40,
          "midi": 66,
          "name": "F#4",
          "ticks": 6394,
          "time": 74.34883720930233,
          "velocity": 0.2677165354330709
        },
        {
          "duration": 0.034883720930224626,
          "durationTicks": 3,
          "midi": 82,
          "name": "A#5",
          "ticks": 6394,
          "time": 74.34883720930233,
          "velocity": 0.07086614173228346
        },
        {
          "duration": 0.081395348837205,
          "durationTicks": 7,
          "midi": 88,
          "name": "E6",
          "ticks": 6394,
          "time": 74.34883720930233,
          "velocity": 0.07874015748031496
        },
        {
          "duration": 0.06976744186046346,
          "durationTicks": 6,
          "midi": 91,
          "name": "G6",
          "ticks": 6394,
          "time": 74.34883720930233,
          "velocity": 0.11811023622047244
        },
        {
          "duration": 0.2093023255813904,
          "durationTicks": 18,
          "midi": 50,
          "name": "D3",
          "ticks": 6395,
          "time": 74.36046511627907,
          "velocity": 0.41732283464566927
        },
        {
          "duration": 0.023255813953497295,
          "durationTicks": 2,
          "midi": 39,
          "name": "D#2",
          "ticks": 6397,
          "time": 74.38372093023256,
          "velocity": 0.3858267716535433
        },
        {
          "duration": 0.16279069767442422,
          "durationTicks": 14,
          "midi": 76,
          "name": "E5",
          "ticks": 6398,
          "time": 74.3953488372093,
          "velocity": 0.09448818897637795
        },
        {
          "duration": 0.04651162790698038,
          "durationTicks": 4,
          "midi": 38,
          "name": "D2",
          "ticks": 6401,
          "time": 74.43023255813954,
          "velocity": 0.3464566929133858
        },
        {
          "duration": 0.034883720930224626,
          "durationTicks": 3,
          "midi": 37,
          "name": "C#2",
          "ticks": 6405,
          "time": 74.47674418604652,
          "velocity": 0.2755905511811024
        },
        {
          "duration": 0.04651162790698038,
          "durationTicks": 4,
          "midi": 38,
          "name": "D2",
          "ticks": 6408,
          "time": 74.51162790697674,
          "velocity": 0.2677165354330709
        },
        {
          "duration": 0.1860465116279073,
          "durationTicks": 16,
          "midi": 80,
          "name": "G#5",
          "ticks": 6412,
          "time": 74.55813953488372,
          "velocity": 0.1732283464566929
        },
        {
          "duration": 0.4767441860465169,
          "durationTicks": 41,
          "midi": 85,
          "name": "C#6",
          "ticks": 6412,
          "time": 74.55813953488372,
          "velocity": 0.30708661417322836
        },
        {
          "duration": 0.09302325581394655,
          "durationTicks": 8,
          "midi": 90,
          "name": "F#6",
          "ticks": 6412,
          "time": 74.55813953488372,
          "velocity": 0.11811023622047244
        },
        {
          "duration": 0.03488372093023884,
          "durationTicks": 3,
          "midi": 86,
          "name": "D6",
          "ticks": 6413,
          "time": 74.56976744186046,
          "velocity": 0.07086614173228346
        },
        {
          "duration": 0.22093023255814614,
          "durationTicks": 19,
          "midi": 50,
          "name": "D3",
          "ticks": 6414,
          "time": 74.5813953488372,
          "velocity": 0.5039370078740157
        },
        {
          "duration": 0.04651162790698038,
          "durationTicks": 4,
          "midi": 84,
          "name": "C6",
          "ticks": 6414,
          "time": 74.5813953488372,
          "velocity": 0.09448818897637795
        },
        {
          "duration": 0.3604651162790731,
          "durationTicks": 31,
          "midi": 95,
          "name": "B6",
          "ticks": 6414,
          "time": 74.5813953488372,
          "velocity": 0.1968503937007874
        },
        {
          "duration": 0.03488372093023884,
          "durationTicks": 3,
          "midi": 39,
          "name": "D#2",
          "ticks": 6415,
          "time": 74.59302325581395,
          "velocity": 0.4881889763779528
        },
        {
          "duration": 0.2093023255814046,
          "durationTicks": 18,
          "midi": 72,
          "name": "C5",
          "ticks": 6415,
          "time": 74.59302325581395,
          "velocity": 0.18110236220472442
        },
        {
          "duration": 0.034883720930224626,
          "durationTicks": 3,
          "midi": 91,
          "name": "G6",
          "ticks": 6417,
          "time": 74.61627906976744,
          "velocity": 0.09448818897637795
        },
        {
          "duration": 0.04651162790698038,
          "durationTicks": 4,
          "midi": 38,
          "name": "D2",
          "ticks": 6418,
          "time": 74.62790697674419,
          "velocity": 0.4251968503937008
        },
        {
          "duration": 0.16279069767442422,
          "durationTicks": 14,
          "midi": 76,
          "name": "E5",
          "ticks": 6420,
          "time": 74.65116279069767,
          "velocity": 0.14173228346456693
        },
        {
          "duration": 0.023255813953483084,
          "durationTicks": 2,
          "midi": 39,
          "name": "D#2",
          "ticks": 6422,
          "time": 74.67441860465117,
          "velocity": 0.3858267716535433
        },
        {
          "duration": 0.09302325581394655,
          "durationTicks": 8,
          "midi": 91,
          "name": "G6",
          "ticks": 6423,
          "time": 74.68604651162791,
          "velocity": 0.16535433070866143
        },
        {
          "duration": 0.023255813953497295,
          "durationTicks": 2,
          "midi": 37,
          "name": "C#2",
          "ticks": 6425,
          "time": 74.70930232558139,
          "velocity": 0.25196850393700787
        },
        {
          "duration": 0.03488372093023884,
          "durationTicks": 3,
          "midi": 38,
          "name": "D2",
          "ticks": 6429,
          "time": 74.75581395348837,
          "velocity": 0.29133858267716534
        },
        {
          "duration": 0.2093023255813904,
          "durationTicks": 18,
          "midi": 75,
          "name": "D#5",
          "ticks": 6433,
          "time": 74.80232558139535,
          "velocity": 0.2204724409448819
        },
        {
          "duration": 0.034883720930224626,
          "durationTicks": 3,
          "midi": 77,
          "name": "F5",
          "ticks": 6433,
          "time": 74.80232558139535,
          "velocity": 0.14960629921259844
        },
        {
          "duration": 0.4418604651162781,
          "durationTicks": 38,
          "midi": 79,
          "name": "G5",
          "ticks": 6433,
          "time": 74.80232558139535,
          "velocity": 0.23622047244094488
        },
        {
          "duration": 0.09302325581394655,
          "durationTicks": 8,
          "midi": 83,
          "name": "B5",
          "ticks": 6433,
          "time": 74.80232558139535,
          "velocity": 0.11023622047244094
        },
        {
          "duration": 0.023255813953483084,
          "durationTicks": 2,
          "midi": 44,
          "name": "G#2",
          "ticks": 6434,
          "time": 74.81395348837209,
          "velocity": 0.49606299212598426
        },
        {
          "duration": 0.05813953488372192,
          "durationTicks": 5,
          "midi": 73,
          "name": "C#5",
          "ticks": 6434,
          "time": 74.81395348837209,
          "velocity": 0.12598425196850394
        },
        {
          "duration": 0.06976744186046346,
          "durationTicks": 6,
          "midi": 88,
          "name": "E6",
          "ticks": 6434,
          "time": 74.81395348837209,
          "velocity": 0.10236220472440945
        },
        {
          "duration": 0.023255813953497295,
          "durationTicks": 2,
          "midi": 52,
          "name": "E3",
          "ticks": 6435,
          "time": 74.82558139534883,
          "velocity": 0.36220472440944884
        },
        {
          "duration": 0.2325581395348877,
          "durationTicks": 20,
          "midi": 76,
          "name": "E5",
          "ticks": 6435,
          "time": 74.82558139534883,
          "velocity": 0.14173228346456693
        },
        {
          "duration": 0.03488372093023884,
          "durationTicks": 3,
          "midi": 61,
          "name": "C#4",
          "ticks": 6436,
          "time": 74.83720930232558,
          "velocity": 0.25196850393700787
        },
        {
          "duration": 0.17441860465116577,
          "durationTicks": 15,
          "midi": 67,
          "name": "G4",
          "ticks": 6436,
          "time": 74.83720930232558,
          "velocity": 0.1889763779527559
        },
        {
          "duration": 0.17441860465115155,
          "durationTicks": 15,
          "midi": 45,
          "name": "A2",
          "ticks": 6437,
          "time": 74.84883720930233,
          "velocity": 0.4330708661417323
        },
        {
          "duration": 0.12790697674418539,
          "durationTicks": 11,
          "midi": 52,
          "name": "E3",
          "ticks": 6440,
          "time": 74.88372093023256,
          "velocity": 0.2755905511811024
        },
        {
          "duration": 0.15116279069768268,
          "durationTicks": 13,
          "midi": 61,
          "name": "C#4",
          "ticks": 6440,
          "time": 74.88372093023256,
          "velocity": 0.2047244094488189
        },
        {
          "duration": 0.023255813953497295,
          "durationTicks": 2,
          "midi": 44,
          "name": "G#2",
          "ticks": 6452,
          "time": 75.02325581395348,
          "velocity": 0.48031496062992124
        },
        {
          "duration": 0.2325581395348877,
          "durationTicks": 20,
          "midi": 64,
          "name": "E4",
          "ticks": 6452,
          "time": 75.02325581395348,
          "velocity": 0.2047244094488189
        },
        {
          "duration": 0.2093023255813904,
          "durationTicks": 18,
          "midi": 60,
          "name": "C4",
          "ticks": 6453,
          "time": 75.03488372093024,
          "velocity": 0.2992125984251969
        },
        {
          "duration": 0.16279069767441,
          "durationTicks": 14,
          "midi": 83,
          "name": "B5",
          "ticks": 6453,
          "time": 75.03488372093024,
          "velocity": 0.2204724409448819
        },
        {
          "duration": 0.05813953488370771,
          "durationTicks": 5,
          "midi": 84,
          "name": "C6",
          "ticks": 6453,
          "time": 75.03488372093024,
          "velocity": 0.07874015748031496
        },
        {
          "duration": 0.09302325581394655,
          "durationTicks": 8,
          "midi": 89,
          "name": "F6",
          "ticks": 6453,
          "time": 75.03488372093024,
          "velocity": 0.11023622047244094
        },
        {
          "duration": 0.023255813953483084,
          "durationTicks": 2,
          "midi": 47,
          "name": "B2",
          "ticks": 6454,
          "time": 75.04651162790698,
          "velocity": 0.5118110236220472
        },
        {
          "duration": 0.19767441860464885,
          "durationTicks": 17,
          "midi": 67,
          "name": "G4",
          "ticks": 6454,
          "time": 75.04651162790698,
          "velocity": 0.4094488188976378
        },
        {
          "duration": 0.04651162790698038,
          "durationTicks": 4,
          "midi": 37,
          "name": "C#2",
          "ticks": 6455,
          "time": 75.05813953488372,
          "velocity": 0.4645669291338583
        },
        {
          "duration": 0.023255813953483084,
          "durationTicks": 2,
          "midi": 55,
          "name": "G3",
          "ticks": 6455,
          "time": 75.05813953488372,
          "velocity": 0.3543307086614173
        },
        {
          "duration": 0.16279069767442422,
          "durationTicks": 14,
          "midi": 55,
          "name": "G3",
          "ticks": 6458,
          "time": 75.09302325581395,
          "velocity": 0.3228346456692913
        },
        {
          "duration": 0.10465116279068809,
          "durationTicks": 9,
          "midi": 36,
          "name": "C2",
          "ticks": 6459,
          "time": 75.1046511627907,
          "velocity": 0.3937007874015748
        },
        {
          "duration": 0.12790697674418539,
          "durationTicks": 11,
          "midi": 48,
          "name": "C3",
          "ticks": 6460,
          "time": 75.11627906976744,
          "velocity": 0.3937007874015748
        },
        {
          "duration": 0.13953488372092693,
          "durationTicks": 12,
          "midi": 74,
          "name": "D5",
          "ticks": 6460,
          "time": 75.11627906976744,
          "velocity": 0.11023622047244094
        },
        {
          "duration": 0.10465116279068809,
          "durationTicks": 9,
          "midi": 70,
          "name": "A#4",
          "ticks": 6464,
          "time": 75.16279069767442,
          "velocity": 0.4094488188976378
        },
        {
          "duration": 0.023255813953497295,
          "durationTicks": 2,
          "midi": 35,
          "name": "B1",
          "ticks": 6468,
          "time": 75.20930232558139,
          "velocity": 0.2440944881889764
        },
        {
          "duration": 0.6046511627907023,
          "durationTicks": 52,
          "midi": 81,
          "name": "A5",
          "ticks": 6471,
          "time": 75.24418604651163,
          "velocity": 0.2677165354330709
        },
        {
          "duration": 0.09302325581394655,
          "durationTicks": 8,
          "midi": 91,
          "name": "G6",
          "ticks": 6471,
          "time": 75.24418604651163,
          "velocity": 0.14173228346456693
        },
        {
          "duration": 0.2093023255813904,
          "durationTicks": 18,
          "midi": 57,
          "name": "A3",
          "ticks": 6472,
          "time": 75.25581395348837,
          "velocity": 0.4251968503937008
        },
        {
          "duration": 0.023255813953483084,
          "durationTicks": 2,
          "midi": 61,
          "name": "C#4",
          "ticks": 6472,
          "time": 75.25581395348837,
          "velocity": 0.28346456692913385
        },
        {
          "duration": 0.4767441860465169,
          "durationTicks": 41,
          "midi": 66,
          "name": "F#4",
          "ticks": 6472,
          "time": 75.25581395348837,
          "velocity": 0.2440944881889764
        },
        {
          "duration": 0.2093023255813904,
          "durationTicks": 18,
          "midi": 72,
          "name": "C5",
          "ticks": 6472,
          "time": 75.25581395348837,
          "velocity": 0.14173228346456693
        },
        {
          "duration": 0.15116279069768268,
          "durationTicks": 13,
          "midi": 85,
          "name": "C#6",
          "ticks": 6472,
          "time": 75.25581395348837,
          "velocity": 0.2047244094488189
        },
        {
          "duration": 0.03488372093023884,
          "durationTicks": 3,
          "midi": 90,
          "name": "F#6",
          "ticks": 6472,
          "time": 75.25581395348837,
          "velocity": 0.11023622047244094
        },
        {
          "duration": 0.1860465116279073,
          "durationTicks": 16,
          "midi": 95,
          "name": "B6",
          "ticks": 6472,
          "time": 75.25581395348837,
          "velocity": 0.14960629921259844
        },
        {
          "duration": 0.2093023255814046,
          "durationTicks": 18,
          "midi": 50,
          "name": "D3",
          "ticks": 6473,
          "time": 75.26744186046511,
          "velocity": 0.44881889763779526
        },
        {
          "duration": 0.19767441860464885,
          "durationTicks": 17,
          "midi": 69,
          "name": "A4",
          "ticks": 6473,
          "time": 75.26744186046511,
          "velocity": 0.4330708661417323
        },
        {
          "duration": 0.11627906976744384,
          "durationTicks": 10,
          "midi": 38,
          "name": "D2",
          "ticks": 6475,
          "time": 75.29069767441861,
          "velocity": 0.44881889763779526
        },
        {
          "duration": 0.38372093023255616,
          "durationTicks": 33,
          "midi": 76,
          "name": "E5",
          "ticks": 6478,
          "time": 75.32558139534883,
          "velocity": 0.16535433070866143
        },
        {
          "duration": 0.034883720930224626,
          "durationTicks": 3,
          "midi": 37,
          "name": "C#2",
          "ticks": 6485,
          "time": 75.40697674418605,
          "velocity": 0.2755905511811024
        },
        {
          "duration": 0.03488372093023884,
          "durationTicks": 3,
          "midi": 85,
          "name": "C#6",
          "ticks": 6490,
          "time": 75.46511627906976,
          "velocity": 0.11811023622047244
        },
        {
          "duration": 0.24418604651162923,
          "durationTicks": 21,
          "midi": 57,
          "name": "A3",
          "ticks": 6491,
          "time": 75.47674418604652,
          "velocity": 0.33070866141732286
        },
        {
          "duration": 0.22093023255813193,
          "durationTicks": 19,
          "midi": 50,
          "name": "D3",
          "ticks": 6492,
          "time": 75.48837209302326,
          "velocity": 0.4566929133858268
        },
        {
          "duration": 0.2325581395348877,
          "durationTicks": 20,
          "midi": 72,
          "name": "C5",
          "ticks": 6492,
          "time": 75.48837209302326,
          "velocity": 0.13385826771653545
        },
        {
          "duration": 0.03488372093023884,
          "durationTicks": 3,
          "midi": 39,
          "name": "D#2",
          "ticks": 6493,
          "time": 75.5,
          "velocity": 0.4330708661417323
        },
        {
          "duration": 0.09302325581394655,
          "durationTicks": 8,
          "midi": 38,
          "name": "D2",
          "ticks": 6496,
          "time": 75.53488372093024,
          "velocity": 0.4330708661417323
        },
        {
          "duration": 0.06976744186046346,
          "durationTicks": 6,
          "midi": 38,
          "name": "D2",
          "ticks": 6505,
          "time": 75.63953488372093,
          "velocity": 0.29133858267716534
        },
        {
          "duration": 0.2674418604651265,
          "durationTicks": 23,
          "midi": 74,
          "name": "D5",
          "ticks": 6511,
          "time": 75.70930232558139,
          "velocity": 0.33070866141732286
        },
        {
          "duration": 0.023255813953497295,
          "durationTicks": 2,
          "midi": 84,
          "name": "C6",
          "ticks": 6511,
          "time": 75.70930232558139,
          "velocity": 0.2283464566929134
        },
        {
          "duration": 0.19767441860464885,
          "durationTicks": 17,
          "midi": 71,
          "name": "B4",
          "ticks": 6512,
          "time": 75.72093023255815,
          "velocity": 0.13385826771653545
        },
        {
          "duration": 0.22093023255813193,
          "durationTicks": 19,
          "midi": 77,
          "name": "F5",
          "ticks": 6512,
          "time": 75.72093023255815,
          "velocity": 0.2125984251968504
        },
        {
          "duration": 0.25581395348837077,
          "durationTicks": 22,
          "midi": 83,
          "name": "B5",
          "ticks": 6512,
          "time": 75.72093023255815,
          "velocity": 0.2047244094488189
        },
        {
          "duration": 0.023255813953483084,
          "durationTicks": 2,
          "midi": 42,
          "name": "F#2",
          "ticks": 6513,
          "time": 75.73255813953489,
          "velocity": 0.49606299212598426
        },
        {
          "duration": 0.19767441860464885,
          "durationTicks": 17,
          "midi": 67,
          "name": "G4",
          "ticks": 6513,
          "time": 75.73255813953489,
          "velocity": 0.2125984251968504
        },
        {
          "duration": 0.3372093023255758,
          "durationTicks": 29,
          "midi": 85,
          "name": "C#6",
          "ticks": 6513,
          "time": 75.73255813953489,
          "velocity": 0.2204724409448819
        },
        {
          "duration": 0.10465116279068809,
          "durationTicks": 9,
          "midi": 90,
          "name": "F#6",
          "ticks": 6513,
          "time": 75.73255813953489,
          "velocity": 0.08661417322834646
        },
        {
          "duration": 0.04651162790698038,
          "durationTicks": 4,
          "midi": 98,
          "name": "D7",
          "ticks": 6514,
          "time": 75.74418604651163,
          "velocity": 0.10236220472440945
        },
        {
          "duration": 0.16279069767442422,
          "durationTicks": 14,
          "midi": 55,
          "name": "G3",
          "ticks": 6517,
          "time": 75.77906976744185,
          "velocity": 0.3543307086614173
        },
        {
          "duration": 0.034883720930224626,
          "durationTicks": 3,
          "midi": 43,
          "name": "G2",
          "ticks": 6518,
          "time": 75.79069767441861,
          "velocity": 0.3858267716535433
        },
        {
          "duration": 0.09302325581396076,
          "durationTicks": 8,
          "midi": 43,
          "name": "G2",
          "ticks": 6522,
          "time": 75.83720930232558,
          "velocity": 0.3543307086614173
        },
        {
          "duration": 0.2325581395348877,
          "durationTicks": 20,
          "midi": 69,
          "name": "A4",
          "ticks": 6530,
          "time": 75.93023255813954,
          "velocity": 0.2125984251968504
        },
        {
          "duration": 0.22093023255814614,
          "durationTicks": 19,
          "midi": 53,
          "name": "F3",
          "ticks": 6531,
          "time": 75.94186046511628,
          "velocity": 0.4645669291338583
        },
        {
          "duration": 0.2325581395348877,
          "durationTicks": 20,
          "midi": 60,
          "name": "C4",
          "ticks": 6531,
          "time": 75.94186046511628,
          "velocity": 0.31496062992125984
        },
        {
          "duration": 0.581395348837205,
          "durationTicks": 50,
          "midi": 72,
          "name": "C5",
          "ticks": 6531,
          "time": 75.94186046511628,
          "velocity": 0.4330708661417323
        },
        {
          "duration": 0.03488372093023884,
          "durationTicks": 3,
          "midi": 42,
          "name": "F#2",
          "ticks": 6532,
          "time": 75.95348837209302,
          "velocity": 0.48031496062992124
        },
        {
          "duration": 0.04651162790698038,
          "durationTicks": 4,
          "midi": 87,
          "name": "D#6",
          "ticks": 6532,
          "time": 75.95348837209302,
          "velocity": 0.08661417322834646
        },
        {
          "duration": 0.04651162790698038,
          "durationTicks": 4,
          "midi": 96,
          "name": "C7",
          "ticks": 6533,
          "time": 75.96511627906976,
          "velocity": 0.11811023622047244
        },
        {
          "duration": 0.10465116279068809,
          "durationTicks": 9,
          "midi": 41,
          "name": "F2",
          "ticks": 6535,
          "time": 75.98837209302326,
          "velocity": 0.4251968503937008
        },
        {
          "duration": 0.034883720930224626,
          "durationTicks": 3,
          "midi": 83,
          "name": "B5",
          "ticks": 6535,
          "time": 75.98837209302326,
          "velocity": 0.11811023622047244
        },
        {
          "duration": 0.17441860465116577,
          "durationTicks": 15,
          "midi": 75,
          "name": "D#5",
          "ticks": 6536,
          "time": 76,
          "velocity": 0.1732283464566929
        },
        {
          "duration": 0.06976744186046346,
          "durationTicks": 6,
          "midi": 83,
          "name": "B5",
          "ticks": 6539,
          "time": 76.03488372093024,
          "velocity": 0.07874015748031496
        },
        {
          "duration": 0.04651162790696617,
          "durationTicks": 4,
          "midi": 41,
          "name": "F2",
          "ticks": 6545,
          "time": 76.1046511627907,
          "velocity": 0.31496062992125984
        },
        {
          "duration": 0.023255813953483084,
          "durationTicks": 2,
          "midi": 56,
          "name": "G#3",
          "ticks": 6550,
          "time": 76.16279069767442,
          "velocity": 0.31496062992125984
        },
        {
          "duration": 0.034883720930224626,
          "durationTicks": 3,
          "midi": 79,
          "name": "G5",
          "ticks": 6550,
          "time": 76.16279069767442,
          "velocity": 0.15748031496062992
        },
        {
          "duration": 0.3139534883720927,
          "durationTicks": 27,
          "midi": 81,
          "name": "A5",
          "ticks": 6550,
          "time": 76.16279069767442,
          "velocity": 0.23622047244094488
        },
        {
          "duration": 0.3488372093023173,
          "durationTicks": 30,
          "midi": 62,
          "name": "D4",
          "ticks": 6551,
          "time": 76.17441860465117,
          "velocity": 0.47244094488188976
        },
        {
          "duration": 0.3488372093023173,
          "durationTicks": 30,
          "midi": 69,
          "name": "A4",
          "ticks": 6551,
          "time": 76.17441860465117,
          "velocity": 0.41732283464566927
        },
        {
          "duration": 0.09302325581394655,
          "durationTicks": 8,
          "midi": 78,
          "name": "F#5",
          "ticks": 6551,
          "time": 76.17441860465117,
          "velocity": 0.14960629921259844
        },
        {
          "duration": 0.06976744186046346,
          "durationTicks": 6,
          "midi": 97,
          "name": "C#7",
          "ticks": 6551,
          "time": 76.17441860465117,
          "velocity": 0.13385826771653545
        },
        {
          "duration": 0.2093023255813904,
          "durationTicks": 18,
          "midi": 50,
          "name": "D3",
          "ticks": 6552,
          "time": 76.18604651162791,
          "velocity": 0.4645669291338583
        },
        {
          "duration": 0.2093023255813904,
          "durationTicks": 18,
          "midi": 57,
          "name": "A3",
          "ticks": 6552,
          "time": 76.18604651162791,
          "velocity": 0.31496062992125984
        },
        {
          "duration": 0.2325581395348877,
          "durationTicks": 20,
          "midi": 66,
          "name": "F#4",
          "ticks": 6552,
          "time": 76.18604651162791,
          "velocity": 0.4330708661417323
        },
        {
          "duration": 0.15116279069766847,
          "durationTicks": 13,
          "midi": 76,
          "name": "E5",
          "ticks": 6552,
          "time": 76.18604651162791,
          "velocity": 0.07874015748031496
        },
        {
          "duration": 0.12790697674418539,
          "durationTicks": 11,
          "midi": 88,
          "name": "E6",
          "ticks": 6552,
          "time": 76.18604651162791,
          "velocity": 0.09448818897637795
        },
        {
          "duration": 0.04651162790698038,
          "durationTicks": 4,
          "midi": 90,
          "name": "F#6",
          "ticks": 6552,
          "time": 76.18604651162791,
          "velocity": 0.14960629921259844
        },
        {
          "duration": 0.04651162790698038,
          "durationTicks": 4,
          "midi": 39,
          "name": "D#2",
          "ticks": 6554,
          "time": 76.20930232558139,
          "velocity": 0.4566929133858268
        },
        {
          "duration": 0.11627906976744384,
          "durationTicks": 10,
          "midi": 80,
          "name": "G#5",
          "ticks": 6556,
          "time": 76.23255813953489,
          "velocity": 0.07086614173228346
        },
        {
          "duration": 0.06976744186046346,
          "durationTicks": 6,
          "midi": 38,
          "name": "D2",
          "ticks": 6558,
          "time": 76.25581395348837,
          "velocity": 0.3464566929133858
        },
        {
          "duration": 0.03488372093023884,
          "durationTicks": 3,
          "midi": 90,
          "name": "F#6",
          "ticks": 6559,
          "time": 76.26744186046511,
          "velocity": 0.08661417322834646
        },
        {
          "duration": 0.023255813953497295,
          "durationTicks": 2,
          "midi": 37,
          "name": "C#2",
          "ticks": 6564,
          "time": 76.32558139534883,
          "velocity": 0.2440944881889764
        },
        {
          "duration": 0.04651162790696617,
          "durationTicks": 4,
          "midi": 38,
          "name": "D2",
          "ticks": 6566,
          "time": 76.34883720930233,
          "velocity": 0.29133858267716534
        },
        {
          "duration": 0.13953488372094114,
          "durationTicks": 12,
          "midi": 77,
          "name": "F5",
          "ticks": 6570,
          "time": 76.3953488372093,
          "velocity": 0.2755905511811024
        },
        {
          "duration": 0.1046511627907023,
          "durationTicks": 9,
          "midi": 80,
          "name": "G#5",
          "ticks": 6570,
          "time": 76.3953488372093,
          "velocity": 0.15748031496062992
        },
        {
          "duration": 0.04651162790698038,
          "durationTicks": 4,
          "midi": 90,
          "name": "F#6",
          "ticks": 6570,
          "time": 76.3953488372093,
          "velocity": 0.1732283464566929
        },
        {
          "duration": 0.04651162790698038,
          "durationTicks": 4,
          "midi": 97,
          "name": "C#7",
          "ticks": 6570,
          "time": 76.3953488372093,
          "velocity": 0.14173228346456693
        },
        {
          "duration": 0.11627906976742963,
          "durationTicks": 10,
          "midi": 53,
          "name": "F3",
          "ticks": 6571,
          "time": 76.40697674418605,
          "velocity": 0.5433070866141733
        },
        {
          "duration": 0.15116279069766847,
          "durationTicks": 13,
          "midi": 87,
          "name": "D#6",
          "ticks": 6571,
          "time": 76.40697674418605,
          "velocity": 0.1732283464566929
        },
        {
          "duration": 0.034883720930224626,
          "durationTicks": 3,
          "midi": 91,
          "name": "G6",
          "ticks": 6571,
          "time": 76.40697674418605,
          "velocity": 0.14960629921259844
        },
        {
          "duration": 0.12790697674418539,
          "durationTicks": 11,
          "midi": 96,
          "name": "C7",
          "ticks": 6571,
          "time": 76.40697674418605,
          "velocity": 0.09448818897637795
        },
        {
          "duration": 0.05813953488370771,
          "durationTicks": 5,
          "midi": 100,
          "name": "E7",
          "ticks": 6571,
          "time": 76.40697674418605,
          "velocity": 0.13385826771653545
        },
        {
          "duration": 0.06976744186046346,
          "durationTicks": 6,
          "midi": 95,
          "name": "B6",
          "ticks": 6572,
          "time": 76.4186046511628,
          "velocity": 0.08661417322834646
        },
        {
          "duration": 0.023255813953483084,
          "durationTicks": 2,
          "midi": 39,
          "name": "D#2",
          "ticks": 6574,
          "time": 76.44186046511628,
          "velocity": 0.47244094488188976
        },
        {
          "duration": 0.03488372093023884,
          "durationTicks": 3,
          "midi": 97,
          "name": "C#7",
          "ticks": 6575,
          "time": 76.45348837209302,
          "velocity": 0.07086614173228346
        },
        {
          "duration": 0.04651162790698038,
          "durationTicks": 4,
          "midi": 38,
          "name": "D2",
          "ticks": 6576,
          "time": 76.46511627906976,
          "velocity": 0.4330708661417323
        },
        {
          "duration": 0.08139534883721922,
          "durationTicks": 7,
          "midi": 91,
          "name": "G6",
          "ticks": 6576,
          "time": 76.46511627906976,
          "velocity": 0.14960629921259844
        },
        {
          "duration": 0.06976744186046346,
          "durationTicks": 6,
          "midi": 93,
          "name": "A6",
          "ticks": 6579,
          "time": 76.5,
          "velocity": 0.14960629921259844
        },
        {
          "duration": 0.13953488372092693,
          "durationTicks": 12,
          "midi": 80,
          "name": "G#5",
          "ticks": 6580,
          "time": 76.51162790697674,
          "velocity": 0.2755905511811024
        },
        {
          "duration": 0.03488372093023884,
          "durationTicks": 3,
          "midi": 97,
          "name": "C#7",
          "ticks": 6580,
          "time": 76.51162790697674,
          "velocity": 0.12598425196850394
        },
        {
          "duration": 0.023255813953497295,
          "durationTicks": 2,
          "midi": 40,
          "name": "E2",
          "ticks": 6581,
          "time": 76.52325581395348,
          "velocity": 0.4251968503937008
        },
        {
          "duration": 0.04651162790698038,
          "durationTicks": 4,
          "midi": 51,
          "name": "D#3",
          "ticks": 6581,
          "time": 76.52325581395348,
          "velocity": 0.5748031496062992
        },
        {
          "duration": 0.17441860465116577,
          "durationTicks": 15,
          "midi": 71,
          "name": "B4",
          "ticks": 6581,
          "time": 76.52325581395348,
          "velocity": 0.44881889763779526
        },
        {
          "duration": 0.1046511627907023,
          "durationTicks": 9,
          "midi": 76,
          "name": "E5",
          "ticks": 6581,
          "time": 76.52325581395348,
          "velocity": 0.2992125984251969
        },
        {
          "duration": 0.08139534883721922,
          "durationTicks": 7,
          "midi": 81,
          "name": "A5",
          "ticks": 6581,
          "time": 76.52325581395348,
          "velocity": 0.10236220472440945
        },
        {
          "duration": 0.1046511627907023,
          "durationTicks": 9,
          "midi": 86,
          "name": "D6",
          "ticks": 6581,
          "time": 76.52325581395348,
          "velocity": 0.1889763779527559
        },
        {
          "duration": 0.1046511627907023,
          "durationTicks": 9,
          "midi": 95,
          "name": "B6",
          "ticks": 6581,
          "time": 76.52325581395348,
          "velocity": 0.14173228346456693
        },
        {
          "duration": 0.09302325581394655,
          "durationTicks": 8,
          "midi": 90,
          "name": "F#6",
          "ticks": 6582,
          "time": 76.53488372093024,
          "velocity": 0.10236220472440945
        },
        {
          "duration": 0.034883720930224626,
          "durationTicks": 3,
          "midi": 39,
          "name": "D#2",
          "ticks": 6583,
          "time": 76.54651162790698,
          "velocity": 0.3937007874015748
        },
        {
          "duration": 0.081395348837205,
          "durationTicks": 7,
          "midi": 64,
          "name": "E4",
          "ticks": 6583,
          "time": 76.54651162790698,
          "velocity": 0.47244094488188976
        },
        {
          "duration": 0.22093023255814614,
          "durationTicks": 19,
          "midi": 93,
          "name": "A6",
          "ticks": 6586,
          "time": 76.5813953488372,
          "velocity": 0.16535433070866143
        },
        {
          "duration": 0.023255813953497295,
          "durationTicks": 2,
          "midi": 39,
          "name": "D#2",
          "ticks": 6587,
          "time": 76.59302325581395,
          "velocity": 0.3464566929133858
        },
        {
          "duration": 0.03488372093023884,
          "durationTicks": 3,
          "midi": 51,
          "name": "D#3",
          "ticks": 6587,
          "time": 76.59302325581395,
          "velocity": 0.5590551181102362
        },
        {
          "duration": 0.03488372093023884,
          "durationTicks": 3,
          "midi": 82,
          "name": "A#5",
          "ticks": 6587,
          "time": 76.59302325581395,
          "velocity": 0.07874015748031496
        },
        {
          "duration": 0.011627906976741542,
          "durationTicks": 1,
          "midi": 50,
          "name": "D3",
          "ticks": 6590,
          "time": 76.62790697674419,
          "velocity": 0.5275590551181102
        },
        {
          "duration": 0.2325581395348877,
          "durationTicks": 20,
          "midi": 69,
          "name": "A4",
          "ticks": 6590,
          "time": 76.62790697674419,
          "velocity": 0.4251968503937008
        },
        {
          "duration": 0.2325581395348877,
          "durationTicks": 20,
          "midi": 85,
          "name": "C#6",
          "ticks": 6590,
          "time": 76.62790697674419,
          "velocity": 0.25984251968503935
        },
        {
          "duration": 0.011627906976741542,
          "durationTicks": 1,
          "midi": 48,
          "name": "C3",
          "ticks": 6591,
          "time": 76.63953488372093,
          "velocity": 0.5669291338582677
        },
        {
          "duration": 0.04651162790698038,
          "durationTicks": 4,
          "midi": 78,
          "name": "F#5",
          "ticks": 6591,
          "time": 76.63953488372093,
          "velocity": 0.2047244094488189
        },
        {
          "duration": 0.15116279069768268,
          "durationTicks": 13,
          "midi": 88,
          "name": "E6",
          "ticks": 6591,
          "time": 76.63953488372093,
          "velocity": 0.13385826771653545
        },
        {
          "duration": 0.011627906976755753,
          "durationTicks": 1,
          "midi": 50,
          "name": "D3",
          "ticks": 6592,
          "time": 76.65116279069767,
          "velocity": 0.5669291338582677
        },
        {
          "duration": 0.2906976744186096,
          "durationTicks": 25,
          "midi": 76,
          "name": "E5",
          "ticks": 6592,
          "time": 76.65116279069767,
          "velocity": 0.1889763779527559
        },
        {
          "duration": 0.034883720930224626,
          "durationTicks": 3,
          "midi": 51,
          "name": "D#3",
          "ticks": 6593,
          "time": 76.66279069767442,
          "velocity": 0.5826771653543307
        },
        {
          "duration": 0.16279069767441,
          "durationTicks": 14,
          "midi": 84,
          "name": "C6",
          "ticks": 6593,
          "time": 76.66279069767442,
          "velocity": 0.1732283464566929
        },
        {
          "duration": 0.09302325581394655,
          "durationTicks": 8,
          "midi": 79,
          "name": "G5",
          "ticks": 6594,
          "time": 76.67441860465117,
          "velocity": 0.14173228346456693
        },
        {
          "duration": 0.12790697674418539,
          "durationTicks": 11,
          "midi": 78,
          "name": "F#5",
          "ticks": 6596,
          "time": 76.69767441860465,
          "velocity": 0.12598425196850394
        },
        {
          "duration": 0.04651162790698038,
          "durationTicks": 4,
          "midi": 50,
          "name": "D3",
          "ticks": 6597,
          "time": 76.70930232558139,
          "velocity": 0.5196850393700787
        },
        {
          "duration": 0.12790697674418539,
          "durationTicks": 11,
          "midi": 67,
          "name": "G4",
          "ticks": 6598,
          "time": 76.72093023255815,
          "velocity": 0.14173228346456693
        },
        {
          "duration": 0.03488372093023884,
          "durationTicks": 3,
          "midi": 50,
          "name": "D3",
          "ticks": 6602,
          "time": 76.76744186046511,
          "velocity": 0.4566929133858268
        },
        {
          "duration": 0.023255813953497295,
          "durationTicks": 2,
          "midi": 45,
          "name": "A2",
          "ticks": 6603,
          "time": 76.77906976744185,
          "velocity": 0.3700787401574803
        },
        {
          "duration": 0.023255813953497295,
          "durationTicks": 2,
          "midi": 50,
          "name": "D3",
          "ticks": 6607,
          "time": 76.82558139534883,
          "velocity": 0.41732283464566927
        },
        {
          "duration": 0.023255813953483084,
          "durationTicks": 2,
          "midi": 54,
          "name": "F#3",
          "ticks": 6609,
          "time": 76.84883720930233,
          "velocity": 0.2755905511811024
        },
        {
          "duration": 0.034883720930224626,
          "durationTicks": 3,
          "midi": 79,
          "name": "G5",
          "ticks": 6609,
          "time": 76.84883720930233,
          "velocity": 0.15748031496062992
        },
        {
          "duration": 0.23255813953487348,
          "durationTicks": 20,
          "midi": 82,
          "name": "A#5",
          "ticks": 6609,
          "time": 76.84883720930233,
          "velocity": 0.15748031496062992
        },
        {
          "duration": 0.1860465116279073,
          "durationTicks": 16,
          "midi": 91,
          "name": "G6",
          "ticks": 6609,
          "time": 76.84883720930233,
          "velocity": 0.1889763779527559
        },
        {
          "duration": 0.09302325581394655,
          "durationTicks": 8,
          "midi": 95,
          "name": "B6",
          "ticks": 6609,
          "time": 76.84883720930233,
          "velocity": 0.16535433070866143
        },
        {
          "duration": 0.011627906976741542,
          "durationTicks": 1,
          "midi": 45,
          "name": "A2",
          "ticks": 6610,
          "time": 76.86046511627907,
          "velocity": 0.5118110236220472
        },
        {
          "duration": 0.23255813953487348,
          "durationTicks": 20,
          "midi": 60,
          "name": "C4",
          "ticks": 6610,
          "time": 76.86046511627907,
          "velocity": 0.47244094488188976
        },
        {
          "duration": 0.22093023255813193,
          "durationTicks": 19,
          "midi": 67,
          "name": "G4",
          "ticks": 6610,
          "time": 76.86046511627907,
          "velocity": 0.44881889763779526
        },
        {
          "duration": 0.034883720930224626,
          "durationTicks": 3,
          "midi": 77,
          "name": "F5",
          "ticks": 6610,
          "time": 76.86046511627907,
          "velocity": 0.14960629921259844
        },
        {
          "duration": 0.034883720930224626,
          "durationTicks": 3,
          "midi": 84,
          "name": "C6",
          "ticks": 6610,
          "time": 76.86046511627907,
          "velocity": 0.10236220472440945
        },
        {
          "duration": 0.2093023255813904,
          "durationTicks": 18,
          "midi": 55,
          "name": "G3",
          "ticks": 6611,
          "time": 76.87209302325581,
          "velocity": 0.31496062992125984
        },
        {
          "duration": 0.03488372093023884,
          "durationTicks": 3,
          "midi": 69,
          "name": "A4",
          "ticks": 6611,
          "time": 76.87209302325581,
          "velocity": 0.25196850393700787
        },
        {
          "duration": 0.04651162790698038,
          "durationTicks": 4,
          "midi": 37,
          "name": "C#2",
          "ticks": 6612,
          "time": 76.88372093023256,
          "velocity": 0.4566929133858268
        },
        {
          "duration": 0.11627906976744384,
          "durationTicks": 10,
          "midi": 78,
          "name": "F#5",
          "ticks": 6613,
          "time": 76.8953488372093,
          "velocity": 0.12598425196850394
        },
        {
          "duration": 0.081395348837205,
          "durationTicks": 7,
          "midi": 48,
          "name": "C3",
          "ticks": 6614,
          "time": 76.90697674418605,
          "velocity": 0.44881889763779526
        },
        {
          "duration": 0.034883720930224626,
          "durationTicks": 3,
          "midi": 83,
          "name": "B5",
          "ticks": 6614,
          "time": 76.90697674418605,
          "velocity": 0.07086614173228346
        },
        {
          "duration": 0.09302325581394655,
          "durationTicks": 8,
          "midi": 36,
          "name": "C2",
          "ticks": 6616,
          "time": 76.93023255813954,
          "velocity": 0.4094488188976378
        },
        {
          "duration": 0.13953488372092693,
          "durationTicks": 12,
          "midi": 64,
          "name": "E4",
          "ticks": 6616,
          "time": 76.93023255813954,
          "velocity": 0.1889763779527559
        },
        {
          "duration": 0.04651162790698038,
          "durationTicks": 4,
          "midi": 88,
          "name": "E6",
          "ticks": 6618,
          "time": 76.95348837209302,
          "velocity": 0.10236220472440945
        },
        {
          "duration": 0.09302325581394655,
          "durationTicks": 8,
          "midi": 70,
          "name": "A#4",
          "ticks": 6621,
          "time": 76.98837209302326,
          "velocity": 0.09448818897637795
        },
        {
          "duration": 0.023255813953483084,
          "durationTicks": 2,
          "midi": 47,
          "name": "B2",
          "ticks": 6622,
          "time": 77,
          "velocity": 0.2677165354330709
        },
        {
          "duration": 0.023255813953497295,
          "durationTicks": 2,
          "midi": 35,
          "name": "B1",
          "ticks": 6624,
          "time": 77.02325581395348,
          "velocity": 0.25984251968503935
        },
        {
          "duration": 0.023255813953483084,
          "durationTicks": 2,
          "midi": 36,
          "name": "C2",
          "ticks": 6626,
          "time": 77.04651162790698,
          "velocity": 0.28346456692913385
        },
        {
          "duration": 0.19767441860464885,
          "durationTicks": 17,
          "midi": 88,
          "name": "E6",
          "ticks": 6626,
          "time": 77.04651162790698,
          "velocity": 0.13385826771653545
        },
        {
          "duration": 0.023255813953483084,
          "durationTicks": 2,
          "midi": 47,
          "name": "B2",
          "ticks": 6628,
          "time": 77.06976744186046,
          "velocity": 0.4015748031496063
        },
        {
          "duration": 0.5232558139534973,
          "durationTicks": 45,
          "midi": 74,
          "name": "D5",
          "ticks": 6629,
          "time": 77.0813953488372,
          "velocity": 0.28346456692913385
        },
        {
          "duration": 0.09302325581396076,
          "durationTicks": 8,
          "midi": 78,
          "name": "F#5",
          "ticks": 6629,
          "time": 77.0813953488372,
          "velocity": 0.14173228346456693
        },
        {
          "duration": 0.03488372093023884,
          "durationTicks": 3,
          "midi": 79,
          "name": "G5",
          "ticks": 6629,
          "time": 77.0813953488372,
          "velocity": 0.14960629921259844
        },
        {
          "duration": 0.32558139534884845,
          "durationTicks": 28,
          "midi": 81,
          "name": "A5",
          "ticks": 6629,
          "time": 77.0813953488372,
          "velocity": 0.16535433070866143
        },
        {
          "duration": 0.16279069767442422,
          "durationTicks": 14,
          "midi": 93,
          "name": "A6",
          "ticks": 6629,
          "time": 77.0813953488372,
          "velocity": 0.1732283464566929
        },
        {
          "duration": 0.22093023255814614,
          "durationTicks": 19,
          "midi": 50,
          "name": "D3",
          "ticks": 6630,
          "time": 77.09302325581395,
          "velocity": 0.47244094488188976
        },
        {
          "duration": 0.023255813953497295,
          "durationTicks": 2,
          "midi": 56,
          "name": "G#3",
          "ticks": 6630,
          "time": 77.09302325581395,
          "velocity": 0.3464566929133858
        },
        {
          "duration": 0.3604651162790731,
          "durationTicks": 31,
          "midi": 69,
          "name": "A4",
          "ticks": 6630,
          "time": 77.09302325581395,
          "velocity": 0.4409448818897638
        },
        {
          "duration": 0.03488372093023884,
          "durationTicks": 3,
          "midi": 82,
          "name": "A#5",
          "ticks": 6630,
          "time": 77.09302325581395,
          "velocity": 0.09448818897637795
        },
        {
          "duration": 0.06976744186047767,
          "durationTicks": 6,
          "midi": 97,
          "name": "C#7",
          "ticks": 6630,
          "time": 77.09302325581395,
          "velocity": 0.13385826771653545
        },
        {
          "duration": 0.4767441860465027,
          "durationTicks": 41,
          "midi": 66,
          "name": "F#4",
          "ticks": 6631,
          "time": 77.1046511627907,
          "velocity": 0.2677165354330709
        },
        {
          "duration": 0.05813953488372192,
          "durationTicks": 5,
          "midi": 90,
          "name": "F#6",
          "ticks": 6631,
          "time": 77.1046511627907,
          "velocity": 0.14960629921259844
        },
        {
          "duration": 0.023255813953483084,
          "durationTicks": 2,
          "midi": 38,
          "name": "D2",
          "ticks": 6632,
          "time": 77.11627906976744,
          "velocity": 0.47244094488188976
        },
        {
          "duration": 0.43023255813953654,
          "durationTicks": 37,
          "midi": 57,
          "name": "A3",
          "ticks": 6632,
          "time": 77.11627906976744,
          "velocity": 0.3779527559055118
        },
        {
          "duration": 0.4534883720930196,
          "durationTicks": 39,
          "midi": 62,
          "name": "D4",
          "ticks": 6632,
          "time": 77.11627906976744,
          "velocity": 0.48031496062992124
        },
        {
          "duration": 0.023255813953497295,
          "durationTicks": 2,
          "midi": 39,
          "name": "D#2",
          "ticks": 6634,
          "time": 77.13953488372093,
          "velocity": 0.4094488188976378
        },
        {
          "duration": 0.03488372093023884,
          "durationTicks": 3,
          "midi": 80,
          "name": "G#5",
          "ticks": 6634,
          "time": 77.13953488372093,
          "velocity": 0.07086614173228346
        },
        {
          "duration": 0.05813953488372192,
          "durationTicks": 5,
          "midi": 38,
          "name": "D2",
          "ticks": 6636,
          "time": 77.16279069767442,
          "velocity": 0.33858267716535434
        },
        {
          "duration": 0.081395348837205,
          "durationTicks": 7,
          "midi": 76,
          "name": "E5",
          "ticks": 6636,
          "time": 77.16279069767442,
          "velocity": 0.08661417322834646
        },
        {
          "duration": 0.03488372093023884,
          "durationTicks": 3,
          "midi": 90,
          "name": "F#6",
          "ticks": 6638,
          "time": 77.18604651162791,
          "velocity": 0.09448818897637795
        },
        {
          "duration": 0.09302325581396076,
          "durationTicks": 8,
          "midi": 72,
          "name": "C5",
          "ticks": 6640,
          "time": 77.20930232558139,
          "velocity": 0.11811023622047244
        },
        {
          "duration": 0.034883720930224626,
          "durationTicks": 3,
          "midi": 37,
          "name": "C#2",
          "ticks": 6641,
          "time": 77.22093023255815,
          "velocity": 0.29133858267716534
        },
        {
          "duration": 0.05813953488372192,
          "durationTicks": 5,
          "midi": 38,
          "name": "D2",
          "ticks": 6644,
          "time": 77.25581395348837,
          "velocity": 0.2677165354330709
        },
        {
          "duration": 0.04651162790698038,
          "durationTicks": 4,
          "midi": 88,
          "name": "E6",
          "ticks": 6646,
          "time": 77.27906976744185,
          "velocity": 0.07086614173228346
        },
        {
          "duration": 0.023255813953483084,
          "durationTicks": 2,
          "midi": 48,
          "name": "C3",
          "ticks": 6649,
          "time": 77.31395348837209,
          "velocity": 0.4251968503937008
        },
        {
          "duration": 0.04651162790698038,
          "durationTicks": 4,
          "midi": 90,
          "name": "F#6",
          "ticks": 6649,
          "time": 77.31395348837209,
          "velocity": 0.16535433070866143
        },
        {
          "duration": 0.023255813953497295,
          "durationTicks": 2,
          "midi": 40,
          "name": "E2",
          "ticks": 6650,
          "time": 77.32558139534883,
          "velocity": 0.4409448818897638
        },
        {
          "duration": 0.2325581395348877,
          "durationTicks": 20,
          "midi": 72,
          "name": "C5",
          "ticks": 6651,
          "time": 77.33720930232558,
          "velocity": 0.16535433070866143
        },
        {
          "duration": 0.023255813953483084,
          "durationTicks": 2,
          "midi": 39,
          "name": "D#2",
          "ticks": 6652,
          "time": 77.34883720930233,
          "velocity": 0.4645669291338583
        },
        {
          "duration": 0.19767441860464885,
          "durationTicks": 17,
          "midi": 50,
          "name": "D3",
          "ticks": 6652,
          "time": 77.34883720930233,
          "velocity": 0.33858267716535434
        },
        {
          "duration": 0.15116279069766847,
          "durationTicks": 13,
          "midi": 80,
          "name": "G#5",
          "ticks": 6652,
          "time": 77.34883720930233,
          "velocity": 0.13385826771653545
        },
        {
          "duration": 0.1046511627907023,
          "durationTicks": 9,
          "midi": 38,
          "name": "D2",
          "ticks": 6654,
          "time": 77.37209302325581,
          "velocity": 0.4409448818897638
        },
        {
          "duration": 0.05813953488372192,
          "durationTicks": 5,
          "midi": 38,
          "name": "D2",
          "ticks": 6664,
          "time": 77.48837209302326,
          "velocity": 0.29133858267716534
        },
        {
          "duration": 0.05813953488372192,
          "durationTicks": 5,
          "midi": 76,
          "name": "E5",
          "ticks": 6669,
          "time": 77.54651162790698,
          "velocity": 0.11023622047244094
        },
        {
          "duration": 0.66279069767441,
          "durationTicks": 57,
          "midi": 85,
          "name": "C#6",
          "ticks": 6669,
          "time": 77.54651162790698,
          "velocity": 0.2283464566929134
        },
        {
          "duration": 0.023255813953483084,
          "durationTicks": 2,
          "midi": 57,
          "name": "A3",
          "ticks": 6670,
          "time": 77.55813953488372,
          "velocity": 0.2283464566929134
        },
        {
          "duration": 0.6744186046511658,
          "durationTicks": 58,
          "midi": 79,
          "name": "G5",
          "ticks": 6670,
          "time": 77.55813953488372,
          "velocity": 0.2440944881889764
        },
        {
          "duration": 0.24418604651162923,
          "durationTicks": 21,
          "midi": 45,
          "name": "A2",
          "ticks": 6671,
          "time": 77.56976744186046,
          "velocity": 0.6062992125984252
        },
        {
          "duration": 0.06976744186046346,
          "durationTicks": 6,
          "midi": 83,
          "name": "B5",
          "ticks": 6671,
          "time": 77.56976744186046,
          "velocity": 0.11811023622047244
        },
        {
          "duration": 0.023255813953497295,
          "durationTicks": 2,
          "midi": 62,
          "name": "D4",
          "ticks": 6672,
          "time": 77.5813953488372,
          "velocity": 0.2755905511811024
        },
        {
          "duration": 0.418604651162795,
          "durationTicks": 36,
          "midi": 67,
          "name": "G4",
          "ticks": 6672,
          "time": 77.5813953488372,
          "velocity": 0.25196850393700787
        },
        {
          "duration": 0.04651162790698038,
          "durationTicks": 4,
          "midi": 73,
          "name": "C#5",
          "ticks": 6672,
          "time": 77.5813953488372,
          "velocity": 0.13385826771653545
        },
        {
          "duration": 0.023255813953483084,
          "durationTicks": 2,
          "midi": 61,
          "name": "C#4",
          "ticks": 6674,
          "time": 77.6046511627907,
          "velocity": 0.33070866141732286
        },
        {
          "duration": 0.03488372093023884,
          "durationTicks": 3,
          "midi": 62,
          "name": "D4",
          "ticks": 6676,
          "time": 77.62790697674419,
          "velocity": 0.2677165354330709
        },
        {
          "duration": 0.03488372093023884,
          "durationTicks": 3,
          "midi": 73,
          "name": "C#5",
          "ticks": 6677,
          "time": 77.63953488372093,
          "velocity": 0.10236220472440945
        },
        {
          "duration": 0.10465116279068809,
          "durationTicks": 9,
          "midi": 62,
          "name": "D4",
          "ticks": 6680,
          "time": 77.67441860465117,
          "velocity": 0.28346456692913385
        },
        {
          "duration": 0.9534883720930338,
          "durationTicks": 82,
          "midi": 76,
          "name": "E5",
          "ticks": 6688,
          "time": 77.76744186046511,
          "velocity": 0.3228346456692913
        },
        {
          "duration": 0.17441860465116577,
          "durationTicks": 15,
          "midi": 83,
          "name": "B5",
          "ticks": 6688,
          "time": 77.76744186046511,
          "velocity": 0.15748031496062992
        },
        {
          "duration": 0.03488372093023884,
          "durationTicks": 3,
          "midi": 86,
          "name": "D6",
          "ticks": 6688,
          "time": 77.76744186046511,
          "velocity": 0.2204724409448819
        },
        {
          "duration": 0.04651162790698038,
          "durationTicks": 4,
          "midi": 64,
          "name": "E4",
          "ticks": 6689,
          "time": 77.77906976744185,
          "velocity": 0.2677165354330709
        },
        {
          "duration": 0.04651162790698038,
          "durationTicks": 4,
          "midi": 93,
          "name": "A6",
          "ticks": 6689,
          "time": 77.77906976744185,
          "velocity": 0.07874015748031496
        },
        {
          "duration": 0.22093023255813193,
          "durationTicks": 19,
          "midi": 87,
          "name": "D#6",
          "ticks": 6690,
          "time": 77.79069767441861,
          "velocity": 0.1968503937007874
        },
        {
          "duration": 0.04651162790698038,
          "durationTicks": 4,
          "midi": 82,
          "name": "A#5",
          "ticks": 6691,
          "time": 77.80232558139535,
          "velocity": 0.07874015748031496
        },
        {
          "duration": 0.034883720930224626,
          "durationTicks": 3,
          "midi": 100,
          "name": "E7",
          "ticks": 6691,
          "time": 77.80232558139535,
          "velocity": 0.11023622047244094
        },
        {
          "duration": 0.03488372093023884,
          "durationTicks": 3,
          "midi": 78,
          "name": "F#5",
          "ticks": 6692,
          "time": 77.81395348837209,
          "velocity": 0.10236220472440945
        },
        {
          "duration": 0.023255813953497295,
          "durationTicks": 2,
          "midi": 45,
          "name": "A2",
          "ticks": 6693,
          "time": 77.82558139534883,
          "velocity": 0.5118110236220472
        },
        {
          "duration": 0.023255813953497295,
          "durationTicks": 2,
          "midi": 37,
          "name": "C#2",
          "ticks": 6694,
          "time": 77.83720930232558,
          "velocity": 0.4330708661417323
        },
        {
          "duration": 0.034883720930224626,
          "durationTicks": 3,
          "midi": 36,
          "name": "C2",
          "ticks": 6696,
          "time": 77.86046511627907,
          "velocity": 0.4015748031496063
        },
        {
          "duration": 0.12790697674418539,
          "durationTicks": 11,
          "midi": 64,
          "name": "E4",
          "ticks": 6698,
          "time": 77.88372093023256,
          "velocity": 0.25984251968503935
        },
        {
          "duration": 0.7674418604651123,
          "durationTicks": 66,
          "midi": 69,
          "name": "A4",
          "ticks": 6701,
          "time": 77.9186046511628,
          "velocity": 0.29133858267716534
        },
        {
          "duration": 0.023255813953483084,
          "durationTicks": 2,
          "midi": 46,
          "name": "A#2",
          "ticks": 6702,
          "time": 77.93023255813954,
          "velocity": 0.4409448818897638
        },
        {
          "duration": 0.023255813953497295,
          "durationTicks": 2,
          "midi": 44,
          "name": "G#2",
          "ticks": 6704,
          "time": 77.95348837209302,
          "velocity": 0.3779527559055118
        },
        {
          "duration": 0.04651162790698038,
          "durationTicks": 4,
          "midi": 57,
          "name": "A3",
          "ticks": 6704,
          "time": 77.95348837209302,
          "velocity": 0.2992125984251969
        },
        {
          "duration": 0.4418604651162781,
          "durationTicks": 38,
          "midi": 62,
          "name": "D4",
          "ticks": 6709,
          "time": 78.01162790697674,
          "velocity": 0.3228346456692913
        },
        {
          "duration": 0.023255813953497295,
          "durationTicks": 2,
          "midi": 86,
          "name": "D6",
          "ticks": 6709,
          "time": 78.01162790697674,
          "velocity": 0.28346456692913385
        },
        {
          "duration": 0.06976744186046346,
          "durationTicks": 6,
          "midi": 50,
          "name": "D3",
          "ticks": 6710,
          "time": 78.02325581395348,
          "velocity": 0.4566929133858268
        },
        {
          "duration": 0.023255813953497295,
          "durationTicks": 2,
          "midi": 56,
          "name": "G#3",
          "ticks": 6710,
          "time": 78.02325581395348,
          "velocity": 0.5039370078740157
        },
        {
          "duration": 0.05813953488372192,
          "durationTicks": 5,
          "midi": 66,
          "name": "F#4",
          "ticks": 6710,
          "time": 78.02325581395348,
          "velocity": 0.2283464566929134
        },
        {
          "duration": 0.19767441860466306,
          "durationTicks": 17,
          "midi": 72,
          "name": "C5",
          "ticks": 6710,
          "time": 78.02325581395348,
          "velocity": 0.16535433070866143
        },
        {
          "duration": 0.1046511627907023,
          "durationTicks": 9,
          "midi": 93,
          "name": "A6",
          "ticks": 6710,
          "time": 78.02325581395348,
          "velocity": 0.11023622047244094
        },
        {
          "duration": 0.13953488372094114,
          "durationTicks": 12,
          "midi": 95,
          "name": "B6",
          "ticks": 6710,
          "time": 78.02325581395348,
          "velocity": 0.11023622047244094
        },
        {
          "duration": 0.24418604651161502,
          "durationTicks": 21,
          "midi": 87,
          "name": "D#6",
          "ticks": 6711,
          "time": 78.03488372093024,
          "velocity": 0.1968503937007874
        },
        {
          "duration": 0.034883720930224626,
          "durationTicks": 3,
          "midi": 100,
          "name": "E7",
          "ticks": 6711,
          "time": 78.03488372093024,
          "velocity": 0.07086614173228346
        },
        {
          "duration": 0.023255813953483084,
          "durationTicks": 2,
          "midi": 39,
          "name": "D#2",
          "ticks": 6712,
          "time": 78.04651162790698,
          "velocity": 0.4566929133858268
        },
        {
          "duration": 0.6395348837209269,
          "durationTicks": 55,
          "midi": 57,
          "name": "A3",
          "ticks": 6712,
          "time": 78.04651162790698,
          "velocity": 0.4645669291338583
        },
        {
          "duration": 0.023255813953497295,
          "durationTicks": 2,
          "midi": 39,
          "name": "D#2",
          "ticks": 6716,
          "time": 78.09302325581395,
          "velocity": 0.4015748031496063
        },
        {
          "duration": 0.023255813953483084,
          "durationTicks": 2,
          "midi": 38,
          "name": "D2",
          "ticks": 6718,
          "time": 78.11627906976744,
          "velocity": 0.3464566929133858
        },
        {
          "duration": 0.04651162790698038,
          "durationTicks": 4,
          "midi": 50,
          "name": "D3",
          "ticks": 6719,
          "time": 78.12790697674419,
          "velocity": 0.36220472440944884
        },
        {
          "duration": 0.06976744186046346,
          "durationTicks": 6,
          "midi": 66,
          "name": "F#4",
          "ticks": 6719,
          "time": 78.12790697674419,
          "velocity": 0.18110236220472442
        },
        {
          "duration": 0.03488372093023884,
          "durationTicks": 3,
          "midi": 50,
          "name": "D3",
          "ticks": 6726,
          "time": 78.20930232558139,
          "velocity": 0.4015748031496063
        },
        {
          "duration": 0.2674418604651265,
          "durationTicks": 23,
          "midi": 66,
          "name": "F#4",
          "ticks": 6726,
          "time": 78.20930232558139,
          "velocity": 0.2755905511811024
        },
        {
          "duration": 0.04651162790698038,
          "durationTicks": 4,
          "midi": 85,
          "name": "C#6",
          "ticks": 6729,
          "time": 78.24418604651163,
          "velocity": 0.08661417322834646
        },
        {
          "duration": 0.081395348837205,
          "durationTicks": 7,
          "midi": 90,
          "name": "F#6",
          "ticks": 6729,
          "time": 78.24418604651163,
          "velocity": 0.09448818897637795
        },
        {
          "duration": 0.081395348837205,
          "durationTicks": 7,
          "midi": 93,
          "name": "A6",
          "ticks": 6729,
          "time": 78.24418604651163,
          "velocity": 0.13385826771653545
        },
        {
          "duration": 0.023255813953483084,
          "durationTicks": 2,
          "midi": 39,
          "name": "D#2",
          "ticks": 6730,
          "time": 78.25581395348837,
          "velocity": 0.49606299212598426
        },
        {
          "duration": 0.081395348837205,
          "durationTicks": 7,
          "midi": 50,
          "name": "D3",
          "ticks": 6730,
          "time": 78.25581395348837,
          "velocity": 0.49606299212598426
        },
        {
          "duration": 0.22093023255814614,
          "durationTicks": 19,
          "midi": 72,
          "name": "C5",
          "ticks": 6730,
          "time": 78.25581395348837,
          "velocity": 0.16535433070866143
        },
        {
          "duration": 0.06976744186046346,
          "durationTicks": 6,
          "midi": 80,
          "name": "G#5",
          "ticks": 6731,
          "time": 78.26744186046511,
          "velocity": 0.14173228346456693
        },
        {
          "duration": 0.04651162790698038,
          "durationTicks": 4,
          "midi": 79,
          "name": "G5",
          "ticks": 6737,
          "time": 78.33720930232558,
          "velocity": 0.09448818897637795
        },
        {
          "duration": 0.06976744186046346,
          "durationTicks": 6,
          "midi": 50,
          "name": "D3",
          "ticks": 6738,
          "time": 78.34883720930233,
          "velocity": 0.3779527559055118
        },
        {
          "duration": 0.023255813953483084,
          "durationTicks": 2,
          "midi": 38,
          "name": "D2",
          "ticks": 6739,
          "time": 78.36046511627907,
          "velocity": 0.3228346456692913
        },
        {
          "duration": 0.023255813953483084,
          "durationTicks": 2,
          "midi": 50,
          "name": "D3",
          "ticks": 6745,
          "time": 78.43023255813954,
          "velocity": 0.33858267716535434
        },
        {
          "duration": 0.16279069767442422,
          "durationTicks": 14,
          "midi": 79,
          "name": "G5",
          "ticks": 6747,
          "time": 78.45348837209302,
          "velocity": 0.2204724409448819
        },
        {
          "duration": 0.24418604651162923,
          "durationTicks": 21,
          "midi": 85,
          "name": "C#6",
          "ticks": 6747,
          "time": 78.45348837209302,
          "velocity": 0.23622047244094488
        },
        {
          "duration": 0.03488372093023884,
          "durationTicks": 3,
          "midi": 77,
          "name": "F5",
          "ticks": 6748,
          "time": 78.46511627906976,
          "velocity": 0.14173228346456693
        },
        {
          "duration": 0.04651162790698038,
          "durationTicks": 4,
          "midi": 83,
          "name": "B5",
          "ticks": 6748,
          "time": 78.46511627906976,
          "velocity": 0.15748031496062992
        },
        {
          "duration": 0.2093023255813904,
          "durationTicks": 18,
          "midi": 45,
          "name": "A2",
          "ticks": 6749,
          "time": 78.47674418604652,
          "velocity": 0.5039370078740157
        },
        {
          "duration": 0.034883720930224626,
          "durationTicks": 3,
          "midi": 61,
          "name": "C#4",
          "ticks": 6749,
          "time": 78.47674418604652,
          "velocity": 0.2755905511811024
        },
        {
          "duration": 0.4767441860465027,
          "durationTicks": 41,
          "midi": 67,
          "name": "G4",
          "ticks": 6749,
          "time": 78.47674418604652,
          "velocity": 0.25196850393700787
        },
        {
          "duration": 0.023255813953483084,
          "durationTicks": 2,
          "midi": 74,
          "name": "D5",
          "ticks": 6749,
          "time": 78.47674418604652,
          "velocity": 0.2283464566929134
        },
        {
          "duration": 0.17441860465116577,
          "durationTicks": 15,
          "midi": 75,
          "name": "D#5",
          "ticks": 6751,
          "time": 78.5,
          "velocity": 0.2204724409448819
        },
        {
          "duration": 0.023255813953497295,
          "durationTicks": 2,
          "midi": 52,
          "name": "E3",
          "ticks": 6753,
          "time": 78.52325581395348,
          "velocity": 0.2440944881889764
        },
        {
          "duration": 0.03488372093023884,
          "durationTicks": 3,
          "midi": 61,
          "name": "C#4",
          "ticks": 6753,
          "time": 78.52325581395348,
          "velocity": 0.2283464566929134
        },
        {
          "duration": 0.03488372093023884,
          "durationTicks": 3,
          "midi": 52,
          "name": "E3",
          "ticks": 6757,
          "time": 78.56976744186046,
          "velocity": 0.2283464566929134
        },
        {
          "duration": 0.12790697674418539,
          "durationTicks": 11,
          "midi": 61,
          "name": "C#4",
          "ticks": 6757,
          "time": 78.56976744186046,
          "velocity": 0.2992125984251969
        },
        {
          "duration": 0.05813953488372192,
          "durationTicks": 5,
          "midi": 83,
          "name": "B5",
          "ticks": 6757,
          "time": 78.56976744186046,
          "velocity": 0.08661417322834646
        },
        {
          "duration": 0.06976744186046346,
          "durationTicks": 6,
          "midi": 52,
          "name": "E3",
          "ticks": 6761,
          "time": 78.61627906976744,
          "velocity": 0.2125984251968504
        },
        {
          "duration": 0.3372093023255758,
          "durationTicks": 29,
          "midi": 74,
          "name": "D5",
          "ticks": 6766,
          "time": 78.67441860465117,
          "velocity": 0.3464566929133858
        },
        {
          "duration": 0.04651162790698038,
          "durationTicks": 4,
          "midi": 54,
          "name": "F#3",
          "ticks": 6767,
          "time": 78.68604651162791,
          "velocity": 0.44881889763779526
        },
        {
          "duration": 0.2325581395348877,
          "durationTicks": 20,
          "midi": 83,
          "name": "B5",
          "ticks": 6767,
          "time": 78.68604651162791,
          "velocity": 0.2047244094488189
        },
        {
          "duration": 0.03488372093023884,
          "durationTicks": 3,
          "midi": 84,
          "name": "C6",
          "ticks": 6767,
          "time": 78.68604651162791,
          "velocity": 0.25196850393700787
        },
        {
          "duration": 0.011627906976741542,
          "durationTicks": 1,
          "midi": 42,
          "name": "F#2",
          "ticks": 6768,
          "time": 78.69767441860465,
          "velocity": 0.5196850393700787
        },
        {
          "duration": 0.03488372093023884,
          "durationTicks": 3,
          "midi": 60,
          "name": "C4",
          "ticks": 6768,
          "time": 78.69767441860465,
          "velocity": 0.36220472440944884
        },
        {
          "duration": 0.05813953488372192,
          "durationTicks": 5,
          "midi": 70,
          "name": "A#4",
          "ticks": 6768,
          "time": 78.69767441860465,
          "velocity": 0.2204724409448819
        },
        {
          "duration": 0.2674418604651123,
          "durationTicks": 23,
          "midi": 89,
          "name": "F6",
          "ticks": 6768,
          "time": 78.69767441860465,
          "velocity": 0.2125984251968504
        },
        {
          "duration": 0.13953488372092693,
          "durationTicks": 12,
          "midi": 90,
          "name": "F#6",
          "ticks": 6768,
          "time": 78.69767441860465,
          "velocity": 0.10236220472440945
        },
        {
          "duration": 0.04651162790698038,
          "durationTicks": 4,
          "midi": 91,
          "name": "G6",
          "ticks": 6768,
          "time": 78.69767441860465,
          "velocity": 0.13385826771653545
        },
        {
          "duration": 0.17441860465116577,
          "durationTicks": 15,
          "midi": 93,
          "name": "A6",
          "ticks": 6768,
          "time": 78.69767441860465,
          "velocity": 0.11023622047244094
        },
        {
          "duration": 0.03488372093023884,
          "durationTicks": 3,
          "midi": 48,
          "name": "C3",
          "ticks": 6769,
          "time": 78.70930232558139,
          "velocity": 0.4645669291338583
        },
        {
          "duration": 0.1046511627907023,
          "durationTicks": 9,
          "midi": 77,
          "name": "F5",
          "ticks": 6769,
          "time": 78.70930232558139,
          "velocity": 0.2125984251968504
        },
        {
          "duration": 0.08139534883721922,
          "durationTicks": 7,
          "midi": 81,
          "name": "A5",
          "ticks": 6769,
          "time": 78.70930232558139,
          "velocity": 0.14173228346456693
        },
        {
          "duration": 0.40697674418603924,
          "durationTicks": 35,
          "midi": 85,
          "name": "C#6",
          "ticks": 6770,
          "time": 78.72093023255815,
          "velocity": 0.1968503937007874
        },
        {
          "duration": 0.04651162790696617,
          "durationTicks": 4,
          "midi": 98,
          "name": "D7",
          "ticks": 6770,
          "time": 78.72093023255815,
          "velocity": 0.09448818897637795
        },
        {
          "duration": 0.19767441860464885,
          "durationTicks": 17,
          "midi": 55,
          "name": "G3",
          "ticks": 6771,
          "time": 78.73255813953489,
          "velocity": 0.4330708661417323
        },
        {
          "duration": 0.023255813953497295,
          "durationTicks": 2,
          "midi": 60,
          "name": "C4",
          "ticks": 6774,
          "time": 78.76744186046511,
          "velocity": 0.2283464566929134
        },
        {
          "duration": 0.17441860465116577,
          "durationTicks": 15,
          "midi": 70,
          "name": "A#4",
          "ticks": 6774,
          "time": 78.76744186046511,
          "velocity": 0.11811023622047244
        },
        {
          "duration": 0.05813953488372192,
          "durationTicks": 5,
          "midi": 91,
          "name": "G6",
          "ticks": 6774,
          "time": 78.76744186046511,
          "velocity": 0.13385826771653545
        },
        {
          "duration": 0.023255813953483084,
          "durationTicks": 2,
          "midi": 48,
          "name": "C3",
          "ticks": 6776,
          "time": 78.79069767441861,
          "velocity": 0.3937007874015748
        },
        {
          "duration": 0.023255813953483084,
          "durationTicks": 2,
          "midi": 62,
          "name": "D4",
          "ticks": 6777,
          "time": 78.80232558139535,
          "velocity": 0.2283464566929134
        },
        {
          "duration": 0.1046511627907023,
          "durationTicks": 9,
          "midi": 77,
          "name": "F5",
          "ticks": 6780,
          "time": 78.83720930232558,
          "velocity": 0.1732283464566929
        },
        {
          "duration": 0.023255813953483084,
          "durationTicks": 2,
          "midi": 44,
          "name": "G#2",
          "ticks": 6781,
          "time": 78.84883720930233,
          "velocity": 0.41732283464566927
        },
        {
          "duration": 0.023255813953483084,
          "durationTicks": 2,
          "midi": 48,
          "name": "C3",
          "ticks": 6782,
          "time": 78.86046511627907,
          "velocity": 0.3464566929133858
        },
        {
          "duration": 0.04651162790698038,
          "durationTicks": 4,
          "midi": 64,
          "name": "E4",
          "ticks": 6782,
          "time": 78.86046511627907,
          "velocity": 0.1889763779527559
        },
        {
          "duration": 0.023255813953483084,
          "durationTicks": 2,
          "midi": 45,
          "name": "A2",
          "ticks": 6787,
          "time": 78.9186046511628,
          "velocity": 0.3464566929133858
        },
        {
          "duration": 0.023255813953483084,
          "durationTicks": 2,
          "midi": 54,
          "name": "F#3",
          "ticks": 6788,
          "time": 78.93023255813954,
          "velocity": 0.4251968503937008
        },
        {
          "duration": 0.4534883720930196,
          "durationTicks": 39,
          "midi": 76,
          "name": "E5",
          "ticks": 6788,
          "time": 78.93023255813954,
          "velocity": 0.3464566929133858
        },
        {
          "duration": 0.2093023255813904,
          "durationTicks": 18,
          "midi": 91,
          "name": "G6",
          "ticks": 6788,
          "time": 78.93023255813954,
          "velocity": 0.2283464566929134
        },
        {
          "duration": 0.04651162790698038,
          "durationTicks": 4,
          "midi": 62,
          "name": "D4",
          "ticks": 6789,
          "time": 78.94186046511628,
          "velocity": 0.2992125984251969
        },
        {
          "duration": 0.4418604651162781,
          "durationTicks": 38,
          "midi": 69,
          "name": "A4",
          "ticks": 6789,
          "time": 78.94186046511628,
          "velocity": 0.2677165354330709
        },
        {
          "duration": 0.13953488372092693,
          "durationTicks": 12,
          "midi": 83,
          "name": "B5",
          "ticks": 6789,
          "time": 78.94186046511628,
          "velocity": 0.13385826771653545
        },
        {
          "duration": 0.05813953488372192,
          "durationTicks": 5,
          "midi": 90,
          "name": "F#6",
          "ticks": 6789,
          "time": 78.94186046511628,
          "velocity": 0.12598425196850394
        },
        {
          "duration": 0.04651162790698038,
          "durationTicks": 4,
          "midi": 92,
          "name": "G#6",
          "ticks": 6789,
          "time": 78.94186046511628,
          "velocity": 0.09448818897637795
        },
        {
          "duration": 0.15116279069766847,
          "durationTicks": 13,
          "midi": 95,
          "name": "B6",
          "ticks": 6789,
          "time": 78.94186046511628,
          "velocity": 0.13385826771653545
        },
        {
          "duration": 0.023255813953497295,
          "durationTicks": 2,
          "midi": 56,
          "name": "G#3",
          "ticks": 6790,
          "time": 78.95348837209302,
          "velocity": 0.47244094488188976
        },
        {
          "duration": 0.04651162790698038,
          "durationTicks": 4,
          "midi": 72,
          "name": "C5",
          "ticks": 6790,
          "time": 78.95348837209302,
          "velocity": 0.14960629921259844
        },
        {
          "duration": 0.2093023255814046,
          "durationTicks": 18,
          "midi": 79,
          "name": "G5",
          "ticks": 6790,
          "time": 78.95348837209302,
          "velocity": 0.2204724409448819
        },
        {
          "duration": 0.19767441860466306,
          "durationTicks": 17,
          "midi": 87,
          "name": "D#6",
          "ticks": 6791,
          "time": 78.96511627906976,
          "velocity": 0.16535433070866143
        },
        {
          "duration": 0.03488372093023884,
          "durationTicks": 3,
          "midi": 100,
          "name": "E7",
          "ticks": 6791,
          "time": 78.96511627906976,
          "velocity": 0.11023622047244094
        },
        {
          "duration": 0.034883720930224626,
          "durationTicks": 3,
          "midi": 64,
          "name": "E4",
          "ticks": 6792,
          "time": 78.97674418604652,
          "velocity": 0.25984251968503935
        },
        {
          "duration": 0.38372093023255616,
          "durationTicks": 33,
          "midi": 57,
          "name": "A3",
          "ticks": 6794,
          "time": 79,
          "velocity": 0.4330708661417323
        },
        {
          "duration": 0.05813953488372192,
          "durationTicks": 5,
          "midi": 93,
          "name": "A6",
          "ticks": 6794,
          "time": 79,
          "velocity": 0.11811023622047244
        },
        {
          "duration": 0.12790697674418539,
          "durationTicks": 11,
          "midi": 72,
          "name": "C5",
          "ticks": 6795,
          "time": 79.01162790697674,
          "velocity": 0.11023622047244094
        },
        {
          "duration": 0.05813953488372192,
          "durationTicks": 5,
          "midi": 64,
          "name": "E4",
          "ticks": 6796,
          "time": 79.02325581395348,
          "velocity": 0.2677165354330709
        },
        {
          "duration": 0.04651162790698038,
          "durationTicks": 4,
          "midi": 50,
          "name": "D3",
          "ticks": 6799,
          "time": 79.05813953488372,
          "velocity": 0.3543307086614173
        },
        {
          "duration": 0.023255813953497295,
          "durationTicks": 2,
          "midi": 45,
          "name": "A2",
          "ticks": 6801,
          "time": 79.0813953488372,
          "velocity": 0.3779527559055118
        },
        {
          "duration": 0.04651162790698038,
          "durationTicks": 4,
          "midi": 66,
          "name": "F#4",
          "ticks": 6801,
          "time": 79.0813953488372,
          "velocity": 0.18110236220472442
        },
        {
          "duration": 0.023255813953483084,
          "durationTicks": 2,
          "midi": 50,
          "name": "D3",
          "ticks": 6804,
          "time": 79.11627906976744,
          "velocity": 0.3700787401574803
        },
        {
          "duration": 0.03488372093023884,
          "durationTicks": 3,
          "midi": 73,
          "name": "C#5",
          "ticks": 6806,
          "time": 79.13953488372093,
          "velocity": 0.13385826771653545
        },
        {
          "duration": 0.09302325581396076,
          "durationTicks": 8,
          "midi": 93,
          "name": "A6",
          "ticks": 6806,
          "time": 79.13953488372093,
          "velocity": 0.15748031496062992
        },
        {
          "duration": 0.22093023255814614,
          "durationTicks": 19,
          "midi": 62,
          "name": "D4",
          "ticks": 6807,
          "time": 79.15116279069767,
          "velocity": 0.25984251968503935
        },
        {
          "duration": 0.06976744186047767,
          "durationTicks": 6,
          "midi": 80,
          "name": "G#5",
          "ticks": 6807,
          "time": 79.15116279069767,
          "velocity": 0.16535433070866143
        },
        {
          "duration": 0.2093023255813904,
          "durationTicks": 18,
          "midi": 72,
          "name": "C5",
          "ticks": 6808,
          "time": 79.16279069767442,
          "velocity": 0.09448818897637795
        },
        {
          "duration": 0.081395348837205,
          "durationTicks": 7,
          "midi": 85,
          "name": "C#6",
          "ticks": 6810,
          "time": 79.18604651162791,
          "velocity": 0.11811023622047244
        },
        {
          "duration": 0.081395348837205,
          "durationTicks": 7,
          "midi": 87,
          "name": "D#6",
          "ticks": 6810,
          "time": 79.18604651162791,
          "velocity": 0.07874015748031496
        },
        {
          "duration": 0.023255813953497295,
          "durationTicks": 2,
          "midi": 50,
          "name": "D3",
          "ticks": 6812,
          "time": 79.20930232558139,
          "velocity": 0.36220472440944884
        },
        {
          "duration": 0.06976744186046346,
          "durationTicks": 6,
          "midi": 66,
          "name": "F#4",
          "ticks": 6812,
          "time": 79.20930232558139,
          "velocity": 0.14960629921259844
        },
        {
          "duration": 0.05813953488372192,
          "durationTicks": 5,
          "midi": 80,
          "name": "G#5",
          "ticks": 6817,
          "time": 79.26744186046511,
          "velocity": 0.07874015748031496
        },
        {
          "duration": 0.023255813953483084,
          "durationTicks": 2,
          "midi": 45,
          "name": "A2",
          "ticks": 6819,
          "time": 79.29069767441861,
          "velocity": 0.3228346456692913
        },
        {
          "duration": 0.023255813953483084,
          "durationTicks": 2,
          "midi": 50,
          "name": "D3",
          "ticks": 6819,
          "time": 79.29069767441861,
          "velocity": 0.33070866141732286
        },
        {
          "duration": 0.09302325581394655,
          "durationTicks": 8,
          "midi": 66,
          "name": "F#4",
          "ticks": 6819,
          "time": 79.29069767441861,
          "velocity": 0.14960629921259844
        },
        {
          "duration": 0.023255813953483084,
          "durationTicks": 2,
          "midi": 48,
          "name": "C3",
          "ticks": 6826,
          "time": 79.37209302325581,
          "velocity": 0.36220472440944884
        },
        {
          "duration": 0.16279069767442422,
          "durationTicks": 14,
          "midi": 83,
          "name": "B5",
          "ticks": 6826,
          "time": 79.37209302325581,
          "velocity": 0.2440944881889764
        },
        {
          "duration": 0.12790697674418539,
          "durationTicks": 11,
          "midi": 67,
          "name": "G4",
          "ticks": 6827,
          "time": 79.38372093023256,
          "velocity": 0.2283464566929134
        },
        {
          "duration": 0.11627906976744384,
          "durationTicks": 10,
          "midi": 71,
          "name": "B4",
          "ticks": 6827,
          "time": 79.38372093023256,
          "velocity": 0.13385826771653545
        },
        {
          "duration": 0.13953488372092693,
          "durationTicks": 12,
          "midi": 74,
          "name": "D5",
          "ticks": 6827,
          "time": 79.38372093023256,
          "velocity": 0.3228346456692913
        },
        {
          "duration": 0.03488372093023884,
          "durationTicks": 3,
          "midi": 77,
          "name": "F5",
          "ticks": 6827,
          "time": 79.38372093023256,
          "velocity": 0.18110236220472442
        },
        {
          "duration": 0.11627906976744384,
          "durationTicks": 10,
          "midi": 81,
          "name": "A5",
          "ticks": 6827,
          "time": 79.38372093023256,
          "velocity": 0.13385826771653545
        },
        {
          "duration": 0.1860465116279073,
          "durationTicks": 16,
          "midi": 89,
          "name": "F6",
          "ticks": 6827,
          "time": 79.38372093023256,
          "velocity": 0.18110236220472442
        },
        {
          "duration": 0.15116279069768268,
          "durationTicks": 13,
          "midi": 90,
          "name": "F#6",
          "ticks": 6827,
          "time": 79.38372093023256,
          "velocity": 0.10236220472440945
        },
        {
          "duration": 0.16279069767442422,
          "durationTicks": 14,
          "midi": 85,
          "name": "C#6",
          "ticks": 6828,
          "time": 79.3953488372093,
          "velocity": 0.2125984251968504
        },
        {
          "duration": 0.11627906976742963,
          "durationTicks": 10,
          "midi": 55,
          "name": "G3",
          "ticks": 6829,
          "time": 79.40697674418605,
          "velocity": 0.4566929133858268
        },
        {
          "duration": 0.11627906976742963,
          "durationTicks": 10,
          "midi": 62,
          "name": "D4",
          "ticks": 6829,
          "time": 79.40697674418605,
          "velocity": 0.25196850393700787
        },
        {
          "duration": 0.034883720930224626,
          "durationTicks": 3,
          "midi": 98,
          "name": "D7",
          "ticks": 6829,
          "time": 79.40697674418605,
          "velocity": 0.08661417322834646
        },
        {
          "duration": 0.023255813953483084,
          "durationTicks": 2,
          "midi": 43,
          "name": "G2",
          "ticks": 6830,
          "time": 79.4186046511628,
          "velocity": 0.4251968503937008
        },
        {
          "duration": 0.081395348837205,
          "durationTicks": 7,
          "midi": 77,
          "name": "F5",
          "ticks": 6831,
          "time": 79.43023255813954,
          "velocity": 0.14173228346456693
        },
        {
          "duration": 0.023255813953483084,
          "durationTicks": 2,
          "midi": 42,
          "name": "F#2",
          "ticks": 6832,
          "time": 79.44186046511628,
          "velocity": 0.41732283464566927
        },
        {
          "duration": 0.023255813953497295,
          "durationTicks": 2,
          "midi": 43,
          "name": "G2",
          "ticks": 6834,
          "time": 79.46511627906976,
          "velocity": 0.3543307086614173
        },
        {
          "duration": 0.09302325581396076,
          "durationTicks": 8,
          "midi": 66,
          "name": "F#4",
          "ticks": 6838,
          "time": 79.51162790697674,
          "velocity": 0.2125984251968504
        },
        {
          "duration": 0.17441860465116577,
          "durationTicks": 15,
          "midi": 73,
          "name": "C#5",
          "ticks": 6838,
          "time": 79.51162790697674,
          "velocity": 0.33858267716535434
        },
        {
          "duration": 0.12790697674418539,
          "durationTicks": 11,
          "midi": 82,
          "name": "A#5",
          "ticks": 6838,
          "time": 79.51162790697674,
          "velocity": 0.2125984251968504
        },
        {
          "duration": 0.16279069767442422,
          "durationTicks": 14,
          "midi": 88,
          "name": "E6",
          "ticks": 6838,
          "time": 79.51162790697674,
          "velocity": 0.15748031496062992
        },
        {
          "duration": 0.1046511627907023,
          "durationTicks": 9,
          "midi": 92,
          "name": "G#6",
          "ticks": 6838,
          "time": 79.51162790697674,
          "velocity": 0.11811023622047244
        },
        {
          "duration": 0.09302325581396076,
          "durationTicks": 8,
          "midi": 42,
          "name": "F#2",
          "ticks": 6839,
          "time": 79.52325581395348,
          "velocity": 0.4645669291338583
        },
        {
          "duration": 0.023255813953497295,
          "durationTicks": 2,
          "midi": 53,
          "name": "F3",
          "ticks": 6839,
          "time": 79.52325581395348,
          "velocity": 0.41732283464566927
        },
        {
          "duration": 0.08139534883721922,
          "durationTicks": 7,
          "midi": 61,
          "name": "C#4",
          "ticks": 6839,
          "time": 79.52325581395348,
          "velocity": 0.28346456692913385
        },
        {
          "duration": 0.08139534883721922,
          "durationTicks": 7,
          "midi": 70,
          "name": "A#4",
          "ticks": 6839,
          "time": 79.52325581395348,
          "velocity": 0.11811023622047244
        },
        {
          "duration": 0.1046511627907023,
          "durationTicks": 9,
          "midi": 76,
          "name": "E5",
          "ticks": 6839,
          "time": 79.52325581395348,
          "velocity": 0.2047244094488189
        },
        {
          "duration": 0.06976744186046346,
          "durationTicks": 6,
          "midi": 80,
          "name": "G#5",
          "ticks": 6839,
          "time": 79.52325581395348,
          "velocity": 0.11811023622047244
        },
        {
          "duration": 0.081395348837205,
          "durationTicks": 7,
          "midi": 84,
          "name": "C6",
          "ticks": 6840,
          "time": 79.53488372093024,
          "velocity": 0.18110236220472442
        },
        {
          "duration": 0.03488372093023884,
          "durationTicks": 3,
          "midi": 89,
          "name": "F6",
          "ticks": 6845,
          "time": 79.59302325581395,
          "velocity": 0.08661417322834646
        },
        {
          "duration": 0.13953488372092693,
          "durationTicks": 12,
          "midi": 71,
          "name": "B4",
          "ticks": 6846,
          "time": 79.6046511627907,
          "velocity": 0.2047244094488189
        },
        {
          "duration": 0.04651162790698038,
          "durationTicks": 4,
          "midi": 41,
          "name": "F2",
          "ticks": 6847,
          "time": 79.61627906976744,
          "velocity": 0.49606299212598426
        },
        {
          "duration": 0.1046511627907023,
          "durationTicks": 9,
          "midi": 64,
          "name": "E4",
          "ticks": 6847,
          "time": 79.61627906976744,
          "velocity": 0.2677165354330709
        },
        {
          "duration": 0.12790697674418539,
          "durationTicks": 11,
          "midi": 68,
          "name": "G#4",
          "ticks": 6847,
          "time": 79.61627906976744,
          "velocity": 0.25196850393700787
        },
        {
          "duration": 0.1046511627907023,
          "durationTicks": 9,
          "midi": 59,
          "name": "B3",
          "ticks": 6848,
          "time": 79.62790697674419,
          "velocity": 0.2992125984251969
        },
        {
          "duration": 0.09302325581396076,
          "durationTicks": 8,
          "midi": 78,
          "name": "F#5",
          "ticks": 6848,
          "time": 79.62790697674419,
          "velocity": 0.07874015748031496
        },
        {
          "duration": 0.1860465116279073,
          "durationTicks": 16,
          "midi": 84,
          "name": "C6",
          "ticks": 6848,
          "time": 79.62790697674419,
          "velocity": 0.11811023622047244
        },
        {
          "duration": 0.04651162790698038,
          "durationTicks": 4,
          "midi": 86,
          "name": "D6",
          "ticks": 6848,
          "time": 79.62790697674419,
          "velocity": 0.07874015748031496
        },
        {
          "duration": 0.06976744186046346,
          "durationTicks": 6,
          "midi": 95,
          "name": "B6",
          "ticks": 6849,
          "time": 79.63953488372093,
          "velocity": 0.10236220472440945
        },
        {
          "duration": 0.03488372093023884,
          "durationTicks": 3,
          "midi": 52,
          "name": "E3",
          "ticks": 6850,
          "time": 79.65116279069767,
          "velocity": 0.4330708661417323
        },
        {
          "duration": 0.03488372093023884,
          "durationTicks": 3,
          "midi": 92,
          "name": "G#6",
          "ticks": 6850,
          "time": 79.65116279069767,
          "velocity": 0.07874015748031496
        },
        {
          "duration": 0.06976744186046346,
          "durationTicks": 6,
          "midi": 40,
          "name": "E2",
          "ticks": 6851,
          "time": 79.66279069767442,
          "velocity": 0.44881889763779526
        },
        {
          "duration": 0.034883720930224626,
          "durationTicks": 3,
          "midi": 82,
          "name": "A#5",
          "ticks": 6851,
          "time": 79.66279069767442,
          "velocity": 0.12598425196850394
        },
        {
          "duration": 0.1046511627907023,
          "durationTicks": 9,
          "midi": 74,
          "name": "D5",
          "ticks": 6853,
          "time": 79.68604651162791,
          "velocity": 0.12598425196850394
        },
        {
          "duration": 0.10465116279068809,
          "durationTicks": 9,
          "midi": 62,
          "name": "D4",
          "ticks": 6857,
          "time": 79.73255813953489,
          "velocity": 0.2755905511811024
        },
        {
          "duration": 0.10465116279068809,
          "durationTicks": 9,
          "midi": 66,
          "name": "F#4",
          "ticks": 6857,
          "time": 79.73255813953489,
          "velocity": 0.2204724409448819
        },
        {
          "duration": 0.081395348837205,
          "durationTicks": 7,
          "midi": 93,
          "name": "A6",
          "ticks": 6857,
          "time": 79.73255813953489,
          "velocity": 0.13385826771653545
        },
        {
          "duration": 0.023255813953483084,
          "durationTicks": 2,
          "midi": 49,
          "name": "C#3",
          "ticks": 6858,
          "time": 79.74418604651163,
          "velocity": 0.4094488188976378
        },
        {
          "duration": 0.09302325581394655,
          "durationTicks": 8,
          "midi": 57,
          "name": "A3",
          "ticks": 6858,
          "time": 79.74418604651163,
          "velocity": 0.31496062992125984
        },
        {
          "duration": 0.4418604651162781,
          "durationTicks": 38,
          "midi": 69,
          "name": "A4",
          "ticks": 6858,
          "time": 79.74418604651163,
          "velocity": 0.4409448818897638
        },
        {
          "duration": 0.4418604651162781,
          "durationTicks": 38,
          "midi": 72,
          "name": "C5",
          "ticks": 6858,
          "time": 79.74418604651163,
          "velocity": 0.4330708661417323
        },
        {
          "duration": 0.3139534883720927,
          "durationTicks": 27,
          "midi": 76,
          "name": "E5",
          "ticks": 6858,
          "time": 79.74418604651163,
          "velocity": 0.12598425196850394
        },
        {
          "duration": 0.023255813953483084,
          "durationTicks": 2,
          "midi": 39,
          "name": "D#2",
          "ticks": 6859,
          "time": 79.75581395348837,
          "velocity": 0.47244094488188976
        },
        {
          "duration": 0.03488372093023884,
          "durationTicks": 3,
          "midi": 50,
          "name": "D3",
          "ticks": 6860,
          "time": 79.76744186046511,
          "velocity": 0.4566929133858268
        },
        {
          "duration": 0.05813953488372192,
          "durationTicks": 5,
          "midi": 80,
          "name": "G#5",
          "ticks": 6860,
          "time": 79.76744186046511,
          "velocity": 0.09448818897637795
        },
        {
          "duration": 0.023255813953483084,
          "durationTicks": 2,
          "midi": 39,
          "name": "D#2",
          "ticks": 6862,
          "time": 79.79069767441861,
          "velocity": 0.4330708661417323
        },
        {
          "duration": 0.023255813953483084,
          "durationTicks": 2,
          "midi": 38,
          "name": "D2",
          "ticks": 6864,
          "time": 79.81395348837209,
          "velocity": 0.36220472440944884
        },
        {
          "duration": 0.023255813953483084,
          "durationTicks": 2,
          "midi": 50,
          "name": "D3",
          "ticks": 6864,
          "time": 79.81395348837209,
          "velocity": 0.3937007874015748
        },
        {
          "duration": 0.05813953488372192,
          "durationTicks": 5,
          "midi": 82,
          "name": "A#5",
          "ticks": 6865,
          "time": 79.82558139534883,
          "velocity": 0.12598425196850394
        },
        {
          "duration": 0.2906976744186096,
          "durationTicks": 25,
          "midi": 74,
          "name": "D5",
          "ticks": 6866,
          "time": 79.83720930232558,
          "velocity": 0.2677165354330709
        },
        {
          "duration": 0.13953488372094114,
          "durationTicks": 12,
          "midi": 78,
          "name": "F#5",
          "ticks": 6866,
          "time": 79.83720930232558,
          "velocity": 0.15748031496062992
        },
        {
          "duration": 0.19767441860466306,
          "durationTicks": 17,
          "midi": 80,
          "name": "G#5",
          "ticks": 6866,
          "time": 79.83720930232558,
          "velocity": 0.1889763779527559
        },
        {
          "duration": 0.06976744186047767,
          "durationTicks": 6,
          "midi": 85,
          "name": "C#6",
          "ticks": 6866,
          "time": 79.83720930232558,
          "velocity": 0.12598425196850394
        },
        {
          "duration": 0.08139534883721922,
          "durationTicks": 7,
          "midi": 97,
          "name": "C#7",
          "ticks": 6866,
          "time": 79.83720930232558,
          "velocity": 0.13385826771653545
        },
        {
          "duration": 0.034883720930224626,
          "durationTicks": 3,
          "midi": 40,
          "name": "E2",
          "ticks": 6867,
          "time": 79.84883720930233,
          "velocity": 0.4251968503937008
        },
        {
          "duration": 0.32558139534883423,
          "durationTicks": 28,
          "midi": 62,
          "name": "D4",
          "ticks": 6867,
          "time": 79.84883720930233,
          "velocity": 0.48031496062992124
        },
        {
          "duration": 0.2093023255813904,
          "durationTicks": 18,
          "midi": 50,
          "name": "D3",
          "ticks": 6868,
          "time": 79.86046511627907,
          "velocity": 0.4409448818897638
        },
        {
          "duration": 0.04651162790698038,
          "durationTicks": 4,
          "midi": 90,
          "name": "F#6",
          "ticks": 6868,
          "time": 79.86046511627907,
          "velocity": 0.16535433070866143
        },
        {
          "duration": 0.19767441860464885,
          "durationTicks": 17,
          "midi": 57,
          "name": "A3",
          "ticks": 6869,
          "time": 79.87209302325581,
          "velocity": 0.23622047244094488
        },
        {
          "duration": 0.22093023255813193,
          "durationTicks": 19,
          "midi": 66,
          "name": "F#4",
          "ticks": 6869,
          "time": 79.87209302325581,
          "velocity": 0.4251968503937008
        },
        {
          "duration": 0.023255813953497295,
          "durationTicks": 2,
          "midi": 39,
          "name": "D#2",
          "ticks": 6870,
          "time": 79.88372093023256,
          "velocity": 0.3779527559055118
        },
        {
          "duration": 0.081395348837205,
          "durationTicks": 7,
          "midi": 38,
          "name": "D2",
          "ticks": 6872,
          "time": 79.90697674418605,
          "velocity": 0.3543307086614173
        },
        {
          "duration": 0.034883720930224626,
          "durationTicks": 3,
          "midi": 37,
          "name": "C#2",
          "ticks": 6879,
          "time": 79.98837209302326,
          "velocity": 0.2125984251968504
        },
        {
          "duration": 0.04651162790698038,
          "durationTicks": 4,
          "midi": 38,
          "name": "D2",
          "ticks": 6882,
          "time": 80.02325581395348,
          "velocity": 0.28346456692913385
        },
        {
          "duration": 0.12790697674418539,
          "durationTicks": 11,
          "midi": 77,
          "name": "F5",
          "ticks": 6886,
          "time": 80.06976744186046,
          "velocity": 0.2755905511811024
        },
        {
          "duration": 0.22093023255814614,
          "durationTicks": 19,
          "midi": 80,
          "name": "G#5",
          "ticks": 6886,
          "time": 80.06976744186046,
          "velocity": 0.1732283464566929
        },
        {
          "duration": 0.04651162790698038,
          "durationTicks": 4,
          "midi": 90,
          "name": "F#6",
          "ticks": 6886,
          "time": 80.06976744186046,
          "velocity": 0.18110236220472442
        },
        {
          "duration": 0.03488372093023884,
          "durationTicks": 3,
          "midi": 97,
          "name": "C#7",
          "ticks": 6886,
          "time": 80.06976744186046,
          "velocity": 0.13385826771653545
        },
        {
          "duration": 0.09302325581396076,
          "durationTicks": 8,
          "midi": 53,
          "name": "F3",
          "ticks": 6887,
          "time": 80.0813953488372,
          "velocity": 0.5433070866141733
        },
        {
          "duration": 0.13953488372094114,
          "durationTicks": 12,
          "midi": 87,
          "name": "D#6",
          "ticks": 6887,
          "time": 80.0813953488372,
          "velocity": 0.1732283464566929
        },
        {
          "duration": 0.03488372093023884,
          "durationTicks": 3,
          "midi": 91,
          "name": "G6",
          "ticks": 6887,
          "time": 80.0813953488372,
          "velocity": 0.14960629921259844
        },
        {
          "duration": 0.19767441860464885,
          "durationTicks": 17,
          "midi": 96,
          "name": "C7",
          "ticks": 6887,
          "time": 80.0813953488372,
          "velocity": 0.11811023622047244
        },
        {
          "duration": 0.05813953488372192,
          "durationTicks": 5,
          "midi": 100,
          "name": "E7",
          "ticks": 6887,
          "time": 80.0813953488372,
          "velocity": 0.14173228346456693
        },
        {
          "duration": 0.06976744186047767,
          "durationTicks": 6,
          "midi": 95,
          "name": "B6",
          "ticks": 6888,
          "time": 80.09302325581395,
          "velocity": 0.08661417322834646
        },
        {
          "duration": 0.023255813953483084,
          "durationTicks": 2,
          "midi": 39,
          "name": "D#2",
          "ticks": 6890,
          "time": 80.11627906976744,
          "velocity": 0.4645669291338583
        },
        {
          "duration": 0.04651162790698038,
          "durationTicks": 4,
          "midi": 38,
          "name": "D2",
          "ticks": 6892,
          "time": 80.13953488372093,
          "velocity": 0.4566929133858268
        },
        {
          "duration": 0.08139534883721922,
          "durationTicks": 7,
          "midi": 91,
          "name": "G6",
          "ticks": 6892,
          "time": 80.13953488372093,
          "velocity": 0.13385826771653545
        },
        {
          "duration": 0.023255813953483084,
          "durationTicks": 2,
          "midi": 52,
          "name": "E3",
          "ticks": 6895,
          "time": 80.17441860465117,
          "velocity": 0.4251968503937008
        },
        {
          "duration": 0.04651162790698038,
          "durationTicks": 4,
          "midi": 57,
          "name": "A3",
          "ticks": 6895,
          "time": 80.17441860465117,
          "velocity": 0.4251968503937008
        },
        {
          "duration": 0.17441860465116577,
          "durationTicks": 15,
          "midi": 76,
          "name": "E5",
          "ticks": 6895,
          "time": 80.17441860465117,
          "velocity": 0.2440944881889764
        },
        {
          "duration": 0.1860465116279073,
          "durationTicks": 16,
          "midi": 71,
          "name": "B4",
          "ticks": 6896,
          "time": 80.18604651162791,
          "velocity": 0.4409448818897638
        },
        {
          "duration": 0.12790697674418539,
          "durationTicks": 11,
          "midi": 86,
          "name": "D6",
          "ticks": 6896,
          "time": 80.18604651162791,
          "velocity": 0.1968503937007874
        },
        {
          "duration": 0.13953488372092693,
          "durationTicks": 12,
          "midi": 95,
          "name": "B6",
          "ticks": 6896,
          "time": 80.18604651162791,
          "velocity": 0.14173228346456693
        },
        {
          "duration": 0.023255813953497295,
          "durationTicks": 2,
          "midi": 39,
          "name": "D#2",
          "ticks": 6897,
          "time": 80.19767441860465,
          "velocity": 0.4251968503937008
        },
        {
          "duration": 0.03488372093023884,
          "durationTicks": 3,
          "midi": 51,
          "name": "D#3",
          "ticks": 6897,
          "time": 80.19767441860465,
          "velocity": 0.5433070866141733
        },
        {
          "duration": 0.10465116279068809,
          "durationTicks": 9,
          "midi": 64,
          "name": "E4",
          "ticks": 6899,
          "time": 80.22093023255815,
          "velocity": 0.4330708661417323
        },
        {
          "duration": 0.034883720930224626,
          "durationTicks": 3,
          "midi": 39,
          "name": "D#2",
          "ticks": 6900,
          "time": 80.23255813953489,
          "velocity": 0.4251968503937008
        },
        {
          "duration": 0.1046511627907023,
          "durationTicks": 9,
          "midi": 90,
          "name": "F#6",
          "ticks": 6901,
          "time": 80.24418604651163,
          "velocity": 0.14960629921259844
        },
        {
          "duration": 0.023255813953483084,
          "durationTicks": 2,
          "midi": 51,
          "name": "D#3",
          "ticks": 6902,
          "time": 80.25581395348837,
          "velocity": 0.5275590551181102
        },
        {
          "duration": 0.03488372093023884,
          "durationTicks": 3,
          "midi": 69,
          "name": "A4",
          "ticks": 6902,
          "time": 80.25581395348837,
          "velocity": 0.15748031496062992
        },
        {
          "duration": 0.03488372093023884,
          "durationTicks": 3,
          "midi": 38,
          "name": "D2",
          "ticks": 6903,
          "time": 80.26744186046511,
          "velocity": 0.30708661417322836
        },
        {
          "duration": 0.023255813953497295,
          "durationTicks": 2,
          "midi": 52,
          "name": "E3",
          "ticks": 6904,
          "time": 80.27906976744185,
          "velocity": 0.4094488188976378
        },
        {
          "duration": 0.011627906976741542,
          "durationTicks": 1,
          "midi": 51,
          "name": "D#3",
          "ticks": 6906,
          "time": 80.30232558139535,
          "velocity": 0.5196850393700787
        },
        {
          "duration": 0.22093023255813193,
          "durationTicks": 19,
          "midi": 69,
          "name": "A4",
          "ticks": 6906,
          "time": 80.30232558139535,
          "velocity": 0.4409448818897638
        },
        {
          "duration": 0.011627906976741542,
          "durationTicks": 1,
          "midi": 50,
          "name": "D3",
          "ticks": 6907,
          "time": 80.31395348837209,
          "velocity": 0.5748031496062992
        },
        {
          "duration": 0.22093023255814614,
          "durationTicks": 19,
          "midi": 85,
          "name": "C#6",
          "ticks": 6907,
          "time": 80.31395348837209,
          "velocity": 0.23622047244094488
        },
        {
          "duration": 0.023255813953497295,
          "durationTicks": 2,
          "midi": 48,
          "name": "C3",
          "ticks": 6908,
          "time": 80.32558139534883,
          "velocity": 0.5196850393700787
        },
        {
          "duration": 0.2093023255814046,
          "durationTicks": 18,
          "midi": 62,
          "name": "D4",
          "ticks": 6908,
          "time": 80.32558139534883,
          "velocity": 0.4330708661417323
        },
        {
          "duration": 0.04651162790698038,
          "durationTicks": 4,
          "midi": 78,
          "name": "F#5",
          "ticks": 6908,
          "time": 80.32558139534883,
          "velocity": 0.2125984251968504
        },
        {
          "duration": 0.04651162790698038,
          "durationTicks": 4,
          "midi": 80,
          "name": "G#5",
          "ticks": 6908,
          "time": 80.32558139534883,
          "velocity": 0.13385826771653545
        },
        {
          "duration": 0.034883720930224626,
          "durationTicks": 3,
          "midi": 51,
          "name": "D#3",
          "ticks": 6910,
          "time": 80.34883720930233,
          "velocity": 0.5511811023622047
        },
        {
          "duration": 0.16279069767441,
          "durationTicks": 14,
          "midi": 84,
          "name": "C6",
          "ticks": 6910,
          "time": 80.34883720930233,
          "velocity": 0.1732283464566929
        },
        {
          "duration": 0.11627906976744384,
          "durationTicks": 10,
          "midi": 79,
          "name": "G5",
          "ticks": 6911,
          "time": 80.36046511627907,
          "velocity": 0.13385826771653545
        },
        {
          "duration": 0.06976744186046346,
          "durationTicks": 6,
          "midi": 78,
          "name": "F#5",
          "ticks": 6913,
          "time": 80.38372093023256,
          "velocity": 0.11811023622047244
        },
        {
          "duration": 0.04651162790698038,
          "durationTicks": 4,
          "midi": 57,
          "name": "A3",
          "ticks": 6914,
          "time": 80.3953488372093,
          "velocity": 0.14960629921259844
        },
        {
          "duration": 0.05813953488372192,
          "durationTicks": 5,
          "midi": 88,
          "name": "E6",
          "ticks": 6916,
          "time": 80.4186046511628,
          "velocity": 0.08661417322834646
        },
        {
          "duration": 0.023255813953483084,
          "durationTicks": 2,
          "midi": 49,
          "name": "C#3",
          "ticks": 6917,
          "time": 80.43023255813954,
          "velocity": 0.4409448818897638
        },
        {
          "duration": 0.04651162790698038,
          "durationTicks": 4,
          "midi": 67,
          "name": "G4",
          "ticks": 6918,
          "time": 80.44186046511628,
          "velocity": 0.11811023622047244
        },
        {
          "duration": 0.023255813953497295,
          "durationTicks": 2,
          "midi": 50,
          "name": "D3",
          "ticks": 6919,
          "time": 80.45348837209302,
          "velocity": 0.4566929133858268
        },
        {
          "duration": 0.023255813953497295,
          "durationTicks": 2,
          "midi": 45,
          "name": "A2",
          "ticks": 6920,
          "time": 80.46511627906976,
          "velocity": 0.3700787401574803
        },
        {
          "duration": 0.04651162790698038,
          "durationTicks": 4,
          "midi": 78,
          "name": "F#5",
          "ticks": 6920,
          "time": 80.46511627906976,
          "velocity": 0.10236220472440945
        },
        {
          "duration": 0.24418604651162923,
          "durationTicks": 21,
          "midi": 67,
          "name": "G4",
          "ticks": 6924,
          "time": 80.51162790697674,
          "velocity": 0.4409448818897638
        },
        {
          "duration": 0.081395348837205,
          "durationTicks": 7,
          "midi": 83,
          "name": "B5",
          "ticks": 6924,
          "time": 80.51162790697674,
          "velocity": 0.10236220472440945
        },
        {
          "duration": 0.023255813953497295,
          "durationTicks": 2,
          "midi": 46,
          "name": "A#2",
          "ticks": 6925,
          "time": 80.52325581395348,
          "velocity": 0.5118110236220472
        },
        {
          "duration": 0.32558139534884845,
          "durationTicks": 28,
          "midi": 72,
          "name": "C5",
          "ticks": 6925,
          "time": 80.52325581395348,
          "velocity": 0.2677165354330709
        },
        {
          "duration": 0.03488372093023884,
          "durationTicks": 3,
          "midi": 76,
          "name": "E5",
          "ticks": 6925,
          "time": 80.52325581395348,
          "velocity": 0.1732283464566929
        },
        {
          "duration": 0.06976744186046346,
          "durationTicks": 6,
          "midi": 78,
          "name": "F#5",
          "ticks": 6925,
          "time": 80.52325581395348,
          "velocity": 0.15748031496062992
        },
        {
          "duration": 0.1860465116279073,
          "durationTicks": 16,
          "midi": 91,
          "name": "G6",
          "ticks": 6925,
          "time": 80.52325581395348,
          "velocity": 0.1732283464566929
        },
        {
          "duration": 0.22093023255813193,
          "durationTicks": 19,
          "midi": 55,
          "name": "G3",
          "ticks": 6926,
          "time": 80.53488372093024,
          "velocity": 0.3228346456692913
        },
        {
          "duration": 0.034883720930224626,
          "durationTicks": 3,
          "midi": 82,
          "name": "A#5",
          "ticks": 6926,
          "time": 80.53488372093024,
          "velocity": 0.14960629921259844
        },
        {
          "duration": 0.081395348837205,
          "durationTicks": 7,
          "midi": 95,
          "name": "B6",
          "ticks": 6926,
          "time": 80.53488372093024,
          "velocity": 0.15748031496062992
        },
        {
          "duration": 0.22093023255813193,
          "durationTicks": 19,
          "midi": 60,
          "name": "C4",
          "ticks": 6927,
          "time": 80.54651162790698,
          "velocity": 0.47244094488188976
        },
        {
          "duration": 0.04651162790698038,
          "durationTicks": 4,
          "midi": 37,
          "name": "C#2",
          "ticks": 6928,
          "time": 80.55813953488372,
          "velocity": 0.44881889763779526
        },
        {
          "duration": 0.17441860465116577,
          "durationTicks": 15,
          "midi": 64,
          "name": "E4",
          "ticks": 6930,
          "time": 80.5813953488372,
          "velocity": 0.2283464566929134
        },
        {
          "duration": 0.03488372093023884,
          "durationTicks": 3,
          "midi": 69,
          "name": "A4",
          "ticks": 6931,
          "time": 80.59302325581395,
          "velocity": 0.15748031496062992
        },
        {
          "duration": 0.16279069767442422,
          "durationTicks": 14,
          "midi": 82,
          "name": "A#5",
          "ticks": 6931,
          "time": 80.59302325581395,
          "velocity": 0.13385826771653545
        },
        {
          "duration": 0.09302325581394655,
          "durationTicks": 8,
          "midi": 36,
          "name": "C2",
          "ticks": 6932,
          "time": 80.6046511627907,
          "velocity": 0.4094488188976378
        },
        {
          "duration": 0.1046511627907023,
          "durationTicks": 9,
          "midi": 78,
          "name": "F#5",
          "ticks": 6933,
          "time": 80.61627906976744,
          "velocity": 0.07874015748031496
        },
        {
          "duration": 0.03488372093023884,
          "durationTicks": 3,
          "midi": 88,
          "name": "E6",
          "ticks": 6936,
          "time": 80.65116279069767,
          "velocity": 0.07874015748031496
        },
        {
          "duration": 0.081395348837205,
          "durationTicks": 7,
          "midi": 70,
          "name": "A#4",
          "ticks": 6938,
          "time": 80.67441860465117,
          "velocity": 0.07874015748031496
        },
        {
          "duration": 0.023255813953497295,
          "durationTicks": 2,
          "midi": 35,
          "name": "B1",
          "ticks": 6940,
          "time": 80.69767441860465,
          "velocity": 0.2677165354330709
        },
        {
          "duration": 0.023255813953483084,
          "durationTicks": 2,
          "midi": 36,
          "name": "C2",
          "ticks": 6942,
          "time": 80.72093023255815,
          "velocity": 0.28346456692913385
        },
        {
          "duration": 0.023255813953483084,
          "durationTicks": 2,
          "midi": 62,
          "name": "D4",
          "ticks": 6945,
          "time": 80.75581395348837,
          "velocity": 0.3700787401574803
        },
        {
          "duration": 0.09302325581396076,
          "durationTicks": 8,
          "midi": 78,
          "name": "F#5",
          "ticks": 6945,
          "time": 80.75581395348837,
          "velocity": 0.12598425196850394
        },
        {
          "duration": 0.03488372093023884,
          "durationTicks": 3,
          "midi": 79,
          "name": "G5",
          "ticks": 6945,
          "time": 80.75581395348837,
          "velocity": 0.14960629921259844
        },
        {
          "duration": 0.2093023255813904,
          "durationTicks": 18,
          "midi": 81,
          "name": "A5",
          "ticks": 6945,
          "time": 80.75581395348837,
          "velocity": 0.16535433070866143
        },
        {
          "duration": 0.2093023255814046,
          "durationTicks": 18,
          "midi": 50,
          "name": "D3",
          "ticks": 6946,
          "time": 80.76744186046511,
          "velocity": 0.4645669291338583
        },
        {
          "duration": 0.023255813953497295,
          "durationTicks": 2,
          "midi": 56,
          "name": "G#3",
          "ticks": 6946,
          "time": 80.76744186046511,
          "velocity": 0.3464566929133858
        },
        {
          "duration": 0.4651162790697754,
          "durationTicks": 40,
          "midi": 69,
          "name": "A4",
          "ticks": 6946,
          "time": 80.76744186046511,
          "velocity": 0.4409448818897638
        },
        {
          "duration": 0.03488372093023884,
          "durationTicks": 3,
          "midi": 82,
          "name": "A#5",
          "ticks": 6946,
          "time": 80.76744186046511,
          "velocity": 0.09448818897637795
        },
        {
          "duration": 0.13953488372094114,
          "durationTicks": 12,
          "midi": 88,
          "name": "E6",
          "ticks": 6946,
          "time": 80.76744186046511,
          "velocity": 0.13385826771653545
        },
        {
          "duration": 0.15116279069768268,
          "durationTicks": 13,
          "midi": 93,
          "name": "A6",
          "ticks": 6946,
          "time": 80.76744186046511,
          "velocity": 0.1732283464566929
        },
        {
          "duration": 0.06976744186046346,
          "durationTicks": 6,
          "midi": 97,
          "name": "C#7",
          "ticks": 6946,
          "time": 80.76744186046511,
          "velocity": 0.13385826771653545
        },
        {
          "duration": 0.45348837209303383,
          "durationTicks": 39,
          "midi": 66,
          "name": "F#4",
          "ticks": 6947,
          "time": 80.77906976744185,
          "velocity": 0.25984251968503935
        },
        {
          "duration": 0.05813953488372192,
          "durationTicks": 5,
          "midi": 90,
          "name": "F#6",
          "ticks": 6947,
          "time": 80.77906976744185,
          "velocity": 0.14960629921259844
        },
        {
          "duration": 0.023255813953483084,
          "durationTicks": 2,
          "midi": 38,
          "name": "D2",
          "ticks": 6948,
          "time": 80.79069767441861,
          "velocity": 0.47244094488188976
        },
        {
          "duration": 0.1860465116279073,
          "durationTicks": 16,
          "midi": 57,
          "name": "A3",
          "ticks": 6948,
          "time": 80.79069767441861,
          "velocity": 0.3228346456692913
        },
        {
          "duration": 0.43023255813953654,
          "durationTicks": 37,
          "midi": 62,
          "name": "D4",
          "ticks": 6948,
          "time": 80.79069767441861,
          "velocity": 0.47244094488188976
        },
        {
          "duration": 0.023255813953483084,
          "durationTicks": 2,
          "midi": 39,
          "name": "D#2",
          "ticks": 6950,
          "time": 80.81395348837209,
          "velocity": 0.4094488188976378
        },
        {
          "duration": 0.11627906976744384,
          "durationTicks": 10,
          "midi": 80,
          "name": "G#5",
          "ticks": 6950,
          "time": 80.81395348837209,
          "velocity": 0.07086614173228346
        },
        {
          "duration": 0.05813953488372192,
          "durationTicks": 5,
          "midi": 38,
          "name": "D2",
          "ticks": 6952,
          "time": 80.83720930232558,
          "velocity": 0.33858267716535434
        },
        {
          "duration": 0.08139534883721922,
          "durationTicks": 7,
          "midi": 76,
          "name": "E5",
          "ticks": 6952,
          "time": 80.83720930232558,
          "velocity": 0.08661417322834646
        },
        {
          "duration": 0.034883720930224626,
          "durationTicks": 3,
          "midi": 90,
          "name": "F#6",
          "ticks": 6954,
          "time": 80.86046511627907,
          "velocity": 0.09448818897637795
        },
        {
          "duration": 0.081395348837205,
          "durationTicks": 7,
          "midi": 72,
          "name": "C5",
          "ticks": 6956,
          "time": 80.88372093023256,
          "velocity": 0.12598425196850394
        },
        {
          "duration": 0.03488372093023884,
          "durationTicks": 3,
          "midi": 37,
          "name": "C#2",
          "ticks": 6957,
          "time": 80.8953488372093,
          "velocity": 0.29133858267716534
        },
        {
          "duration": 0.034883720930224626,
          "durationTicks": 3,
          "midi": 38,
          "name": "D2",
          "ticks": 6960,
          "time": 80.93023255813954,
          "velocity": 0.25196850393700787
        },
        {
          "duration": 0.04651162790698038,
          "durationTicks": 4,
          "midi": 88,
          "name": "E6",
          "ticks": 6962,
          "time": 80.95348837209302,
          "velocity": 0.07086614173228346
        },
        {
          "duration": 0.023255813953483084,
          "durationTicks": 2,
          "midi": 56,
          "name": "G#3",
          "ticks": 6964,
          "time": 80.97674418604652,
          "velocity": 0.25196850393700787
        },
        {
          "duration": 0.2093023255813904,
          "durationTicks": 18,
          "midi": 76,
          "name": "E5",
          "ticks": 6964,
          "time": 80.97674418604652,
          "velocity": 0.12598425196850394
        },
        {
          "duration": 0.05813953488372192,
          "durationTicks": 5,
          "midi": 93,
          "name": "A6",
          "ticks": 6965,
          "time": 80.98837209302326,
          "velocity": 0.16535433070866143
        },
        {
          "duration": 0.24418604651162923,
          "durationTicks": 21,
          "midi": 50,
          "name": "D3",
          "ticks": 6966,
          "time": 81,
          "velocity": 0.5196850393700787
        },
        {
          "duration": 0.22093023255814614,
          "durationTicks": 19,
          "midi": 57,
          "name": "A3",
          "ticks": 6966,
          "time": 81,
          "velocity": 0.25196850393700787
        },
        {
          "duration": 0.25581395348837077,
          "durationTicks": 22,
          "midi": 72,
          "name": "C5",
          "ticks": 6966,
          "time": 81,
          "velocity": 0.2440944881889764
        },
        {
          "duration": 0.03488372093023884,
          "durationTicks": 3,
          "midi": 39,
          "name": "D#2",
          "ticks": 6967,
          "time": 81.01162790697674,
          "velocity": 0.4330708661417323
        },
        {
          "duration": 0.09302325581394655,
          "durationTicks": 8,
          "midi": 38,
          "name": "D2",
          "ticks": 6970,
          "time": 81.04651162790698,
          "velocity": 0.4330708661417323
        },
        {
          "duration": 0.06976744186047767,
          "durationTicks": 6,
          "midi": 38,
          "name": "D2",
          "ticks": 6979,
          "time": 81.15116279069767,
          "velocity": 0.29133858267716534
        },
        {
          "duration": 0.46511627906976116,
          "durationTicks": 40,
          "midi": 67,
          "name": "G4",
          "ticks": 6985,
          "time": 81.22093023255815,
          "velocity": 0.48031496062992124
        },
        {
          "duration": 0.2093023255813904,
          "durationTicks": 18,
          "midi": 76,
          "name": "E5",
          "ticks": 6985,
          "time": 81.22093023255815,
          "velocity": 0.2047244094488189
        },
        {
          "duration": 0.27906976744185386,
          "durationTicks": 24,
          "midi": 85,
          "name": "C#6",
          "ticks": 6985,
          "time": 81.22093023255815,
          "velocity": 0.23622047244094488
        },
        {
          "duration": 0.15116279069766847,
          "durationTicks": 13,
          "midi": 93,
          "name": "A6",
          "ticks": 6986,
          "time": 81.23255813953489,
          "velocity": 0.08661417322834646
        },
        {
          "duration": 0.034883720930224626,
          "durationTicks": 3,
          "midi": 45,
          "name": "A2",
          "ticks": 6987,
          "time": 81.24418604651163,
          "velocity": 0.5039370078740157
        },
        {
          "duration": 0.034883720930224626,
          "durationTicks": 3,
          "midi": 61,
          "name": "C#4",
          "ticks": 6987,
          "time": 81.24418604651163,
          "velocity": 0.2755905511811024
        },
        {
          "duration": 0.15116279069766847,
          "durationTicks": 13,
          "midi": 83,
          "name": "B5",
          "ticks": 6987,
          "time": 81.24418604651163,
          "velocity": 0.2440944881889764
        },
        {
          "duration": 0.081395348837205,
          "durationTicks": 7,
          "midi": 89,
          "name": "F6",
          "ticks": 6988,
          "time": 81.25581395348837,
          "velocity": 0.13385826771653545
        },
        {
          "duration": 0.17441860465115155,
          "durationTicks": 15,
          "midi": 45,
          "name": "A2",
          "ticks": 6991,
          "time": 81.29069767441861,
          "velocity": 0.5196850393700787
        },
        {
          "duration": 0.16279069767441,
          "durationTicks": 14,
          "midi": 61,
          "name": "C#4",
          "ticks": 6991,
          "time": 81.29069767441861,
          "velocity": 0.2125984251968504
        },
        {
          "duration": 0.081395348837205,
          "durationTicks": 7,
          "midi": 86,
          "name": "D6",
          "ticks": 6991,
          "time": 81.29069767441861,
          "velocity": 0.10236220472440945
        },
        {
          "duration": 0.023255813953483084,
          "durationTicks": 2,
          "midi": 55,
          "name": "G3",
          "ticks": 6992,
          "time": 81.30232558139535,
          "velocity": 0.33858267716535434
        },
        {
          "duration": 0.034883720930224626,
          "durationTicks": 3,
          "midi": 74,
          "name": "D5",
          "ticks": 6992,
          "time": 81.30232558139535,
          "velocity": 0.23622047244094488
        },
        {
          "duration": 0.023255813953483084,
          "durationTicks": 2,
          "midi": 55,
          "name": "G3",
          "ticks": 6998,
          "time": 81.37209302325581,
          "velocity": 0.2677165354330709
        },
        {
          "duration": 0.03488372093023884,
          "durationTicks": 3,
          "midi": 75,
          "name": "D#5",
          "ticks": 6999,
          "time": 81.38372093023256,
          "velocity": 0.14173228346456693
        },
        {
          "duration": 0.32558139534883423,
          "durationTicks": 28,
          "midi": 74,
          "name": "D5",
          "ticks": 7002,
          "time": 81.4186046511628,
          "velocity": 0.18110236220472442
        },
        {
          "duration": 0.13953488372092693,
          "durationTicks": 12,
          "midi": 83,
          "name": "B5",
          "ticks": 7002,
          "time": 81.4186046511628,
          "velocity": 0.15748031496062992
        },
        {
          "duration": 0.03488372093023884,
          "durationTicks": 3,
          "midi": 78,
          "name": "F#5",
          "ticks": 7004,
          "time": 81.44186046511628,
          "velocity": 0.12598425196850394
        },
        {
          "duration": 0.22093023255814614,
          "durationTicks": 19,
          "midi": 60,
          "name": "C4",
          "ticks": 7005,
          "time": 81.45348837209302,
          "velocity": 0.29133858267716534
        },
        {
          "duration": 0.2325581395348877,
          "durationTicks": 20,
          "midi": 64,
          "name": "E4",
          "ticks": 7005,
          "time": 81.45348837209302,
          "velocity": 0.18110236220472442
        },
        {
          "duration": 0.22093023255814614,
          "durationTicks": 19,
          "midi": 70,
          "name": "A#4",
          "ticks": 7005,
          "time": 81.45348837209302,
          "velocity": 0.14173228346456693
        },
        {
          "duration": 0.04651162790696617,
          "durationTicks": 4,
          "midi": 37,
          "name": "C#2",
          "ticks": 7007,
          "time": 81.47674418604652,
          "velocity": 0.4330708661417323
        },
        {
          "duration": 0.1860465116279073,
          "durationTicks": 16,
          "midi": 55,
          "name": "G3",
          "ticks": 7008,
          "time": 81.48837209302326,
          "velocity": 0.2440944881889764
        },
        {
          "duration": 0.13953488372092693,
          "durationTicks": 12,
          "midi": 78,
          "name": "F#5",
          "ticks": 7008,
          "time": 81.48837209302326,
          "velocity": 0.09448818897637795
        },
        {
          "duration": 0.09302325581396076,
          "durationTicks": 8,
          "midi": 36,
          "name": "C2",
          "ticks": 7011,
          "time": 81.52325581395348,
          "velocity": 0.41732283464566927
        },
        {
          "duration": 0.1860465116279073,
          "durationTicks": 16,
          "midi": 48,
          "name": "C3",
          "ticks": 7011,
          "time": 81.52325581395348,
          "velocity": 0.5275590551181102
        },
        {
          "duration": 0.034883720930224626,
          "durationTicks": 3,
          "midi": 35,
          "name": "B1",
          "ticks": 7019,
          "time": 81.61627906976744,
          "velocity": 0.25196850393700787
        },
        {
          "duration": 0.023255813953497295,
          "durationTicks": 2,
          "midi": 36,
          "name": "C2",
          "ticks": 7022,
          "time": 81.65116279069767,
          "velocity": 0.2677165354330709
        },
        {
          "duration": 0.023255813953483084,
          "durationTicks": 2,
          "midi": 56,
          "name": "G#3",
          "ticks": 7024,
          "time": 81.67441860465117,
          "velocity": 0.4251968503937008
        },
        {
          "duration": 0.9767441860465027,
          "durationTicks": 84,
          "midi": 69,
          "name": "A4",
          "ticks": 7024,
          "time": 81.67441860465117,
          "velocity": 0.48031496062992124
        },
        {
          "duration": 0.023255813953483084,
          "durationTicks": 2,
          "midi": 61,
          "name": "C#4",
          "ticks": 7025,
          "time": 81.68604651162791,
          "velocity": 0.28346456692913385
        },
        {
          "duration": 0.22093023255814614,
          "durationTicks": 19,
          "midi": 72,
          "name": "C5",
          "ticks": 7025,
          "time": 81.68604651162791,
          "velocity": 0.14173228346456693
        },
        {
          "duration": 0.03488372093023884,
          "durationTicks": 3,
          "midi": 78,
          "name": "F#5",
          "ticks": 7025,
          "time": 81.68604651162791,
          "velocity": 0.07086614173228346
        },
        {
          "duration": 0.16279069767442422,
          "durationTicks": 14,
          "midi": 80,
          "name": "G#5",
          "ticks": 7025,
          "time": 81.68604651162791,
          "velocity": 0.12598425196850394
        },
        {
          "duration": 0.15116279069766847,
          "durationTicks": 13,
          "midi": 85,
          "name": "C#6",
          "ticks": 7025,
          "time": 81.68604651162791,
          "velocity": 0.2047244094488189
        },
        {
          "duration": 0.1860465116279073,
          "durationTicks": 16,
          "midi": 95,
          "name": "B6",
          "ticks": 7025,
          "time": 81.68604651162791,
          "velocity": 0.14173228346456693
        },
        {
          "duration": 0.19767441860464885,
          "durationTicks": 17,
          "midi": 57,
          "name": "A3",
          "ticks": 7026,
          "time": 81.69767441860465,
          "velocity": 0.3779527559055118
        },
        {
          "duration": 0.4534883720930196,
          "durationTicks": 39,
          "midi": 66,
          "name": "F#4",
          "ticks": 7026,
          "time": 81.69767441860465,
          "velocity": 0.25196850393700787
        },
        {
          "duration": 0.081395348837205,
          "durationTicks": 7,
          "midi": 88,
          "name": "E6",
          "ticks": 7026,
          "time": 81.69767441860465,
          "velocity": 0.07086614173228346
        },
        {
          "duration": 0.06976744186046346,
          "durationTicks": 6,
          "midi": 91,
          "name": "G6",
          "ticks": 7026,
          "time": 81.69767441860465,
          "velocity": 0.11811023622047244
        },
        {
          "duration": 0.19767441860466306,
          "durationTicks": 17,
          "midi": 50,
          "name": "D3",
          "ticks": 7027,
          "time": 81.70930232558139,
          "velocity": 0.4330708661417323
        },
        {
          "duration": 0.023255813953483084,
          "durationTicks": 2,
          "midi": 38,
          "name": "D2",
          "ticks": 7028,
          "time": 81.72093023255815,
          "velocity": 0.4251968503937008
        },
        {
          "duration": 0.16279069767442422,
          "durationTicks": 14,
          "midi": 76,
          "name": "E5",
          "ticks": 7030,
          "time": 81.74418604651163,
          "velocity": 0.09448818897637795
        },
        {
          "duration": 0.04651162790698038,
          "durationTicks": 4,
          "midi": 38,
          "name": "D2",
          "ticks": 7033,
          "time": 81.77906976744185,
          "velocity": 0.3464566929133858
        },
        {
          "duration": 0.03488372093023884,
          "durationTicks": 3,
          "midi": 37,
          "name": "C#2",
          "ticks": 7037,
          "time": 81.82558139534883,
          "velocity": 0.2755905511811024
        },
        {
          "duration": 0.023255813953483084,
          "durationTicks": 2,
          "midi": 38,
          "name": "D2",
          "ticks": 7040,
          "time": 81.86046511627907,
          "velocity": 0.25196850393700787
        },
        {
          "duration": 0.24418604651162923,
          "durationTicks": 21,
          "midi": 85,
          "name": "C#6",
          "ticks": 7043,
          "time": 81.8953488372093,
          "velocity": 0.23622047244094488
        },
        {
          "duration": 0.22093023255813193,
          "durationTicks": 19,
          "midi": 50,
          "name": "D3",
          "ticks": 7045,
          "time": 81.9186046511628,
          "velocity": 0.4645669291338583
        },
        {
          "duration": 0.09302325581394655,
          "durationTicks": 8,
          "midi": 57,
          "name": "A3",
          "ticks": 7045,
          "time": 81.9186046511628,
          "velocity": 0.3858267716535433
        },
        {
          "duration": 0.04651162790696617,
          "durationTicks": 4,
          "midi": 84,
          "name": "C6",
          "ticks": 7045,
          "time": 81.9186046511628,
          "velocity": 0.09448818897637795
        },
        {
          "duration": 0.034883720930224626,
          "durationTicks": 3,
          "midi": 39,
          "name": "D#2",
          "ticks": 7046,
          "time": 81.93023255813954,
          "velocity": 0.47244094488188976
        },
        {
          "duration": 0.3488372093023173,
          "durationTicks": 30,
          "midi": 95,
          "name": "B6",
          "ticks": 7046,
          "time": 81.93023255813954,
          "velocity": 0.1732283464566929
        },
        {
          "duration": 0.19767441860464885,
          "durationTicks": 17,
          "midi": 72,
          "name": "C5",
          "ticks": 7047,
          "time": 81.94186046511628,
          "velocity": 0.1889763779527559
        },
        {
          "duration": 0.1046511627907023,
          "durationTicks": 9,
          "midi": 76,
          "name": "E5",
          "ticks": 7047,
          "time": 81.94186046511628,
          "velocity": 0.11811023622047244
        },
        {
          "duration": 0.08139534883721922,
          "durationTicks": 7,
          "midi": 38,
          "name": "D2",
          "ticks": 7049,
          "time": 81.96511627906976,
          "velocity": 0.4251968503937008
        },
        {
          "duration": 0.023255813953497295,
          "durationTicks": 2,
          "midi": 56,
          "name": "G#3",
          "ticks": 7053,
          "time": 82.01162790697674,
          "velocity": 0.4094488188976378
        },
        {
          "duration": 0.09302325581396076,
          "durationTicks": 8,
          "midi": 91,
          "name": "G6",
          "ticks": 7054,
          "time": 82.02325581395348,
          "velocity": 0.12598425196850394
        },
        {
          "duration": 0.09302325581394655,
          "durationTicks": 8,
          "midi": 57,
          "name": "A3",
          "ticks": 7055,
          "time": 82.03488372093024,
          "velocity": 0.3700787401574803
        },
        {
          "duration": 0.03488372093023884,
          "durationTicks": 3,
          "midi": 38,
          "name": "D2",
          "ticks": 7060,
          "time": 82.09302325581395,
          "velocity": 0.30708661417322836
        },
        {
          "duration": 0.11627906976744384,
          "durationTicks": 10,
          "midi": 88,
          "name": "E6",
          "ticks": 7063,
          "time": 82.12790697674419,
          "velocity": 0.14960629921259844
        },
        {
          "duration": 0.03488372093023884,
          "durationTicks": 3,
          "midi": 57,
          "name": "A3",
          "ticks": 7064,
          "time": 82.13953488372093,
          "velocity": 0.41732283464566927
        },
        {
          "duration": 0.24418604651162923,
          "durationTicks": 21,
          "midi": 75,
          "name": "D#5",
          "ticks": 7064,
          "time": 82.13953488372093,
          "velocity": 0.2125984251968504
        },
        {
          "duration": 0.03488372093023884,
          "durationTicks": 3,
          "midi": 77,
          "name": "F5",
          "ticks": 7064,
          "time": 82.13953488372093,
          "velocity": 0.14960629921259844
        },
        {
          "duration": 0.24418604651162923,
          "durationTicks": 21,
          "midi": 79,
          "name": "G5",
          "ticks": 7064,
          "time": 82.13953488372093,
          "velocity": 0.15748031496062992
        },
        {
          "duration": 0.09302325581396076,
          "durationTicks": 8,
          "midi": 83,
          "name": "B5",
          "ticks": 7064,
          "time": 82.13953488372093,
          "velocity": 0.11023622047244094
        },
        {
          "duration": 0.06976744186046346,
          "durationTicks": 6,
          "midi": 97,
          "name": "C#7",
          "ticks": 7064,
          "time": 82.13953488372093,
          "velocity": 0.1889763779527559
        },
        {
          "duration": 0.05813953488372192,
          "durationTicks": 5,
          "midi": 73,
          "name": "C#5",
          "ticks": 7065,
          "time": 82.15116279069767,
          "velocity": 0.12598425196850394
        },
        {
          "duration": 0.8139534883720927,
          "durationTicks": 70,
          "midi": 85,
          "name": "C#6",
          "ticks": 7065,
          "time": 82.15116279069767,
          "velocity": 0.30708661417322836
        },
        {
          "duration": 0.04651162790696617,
          "durationTicks": 4,
          "midi": 52,
          "name": "E3",
          "ticks": 7066,
          "time": 82.16279069767442,
          "velocity": 0.36220472440944884
        },
        {
          "duration": 0.034883720930224626,
          "durationTicks": 3,
          "midi": 61,
          "name": "C#4",
          "ticks": 7067,
          "time": 82.17441860465117,
          "velocity": 0.2440944881889764
        },
        {
          "duration": 0.04651162790698038,
          "durationTicks": 4,
          "midi": 67,
          "name": "G4",
          "ticks": 7067,
          "time": 82.17441860465117,
          "velocity": 0.1889763779527559
        },
        {
          "duration": 0.17441860465116577,
          "durationTicks": 15,
          "midi": 45,
          "name": "A2",
          "ticks": 7068,
          "time": 82.18604651162791,
          "velocity": 0.4330708661417323
        },
        {
          "duration": 0.24418604651162923,
          "durationTicks": 21,
          "midi": 57,
          "name": "A3",
          "ticks": 7068,
          "time": 82.18604651162791,
          "velocity": 0.4566929133858268
        },
        {
          "duration": 0.17441860465116577,
          "durationTicks": 15,
          "midi": 76,
          "name": "E5",
          "ticks": 7069,
          "time": 82.19767441860465,
          "velocity": 0.10236220472440945
        },
        {
          "duration": 0.15116279069766847,
          "durationTicks": 13,
          "midi": 52,
          "name": "E3",
          "ticks": 7071,
          "time": 82.22093023255815,
          "velocity": 0.2755905511811024
        },
        {
          "duration": 0.15116279069766847,
          "durationTicks": 13,
          "midi": 61,
          "name": "C#4",
          "ticks": 7071,
          "time": 82.22093023255815,
          "velocity": 0.1968503937007874
        },
        {
          "duration": 0.12790697674418539,
          "durationTicks": 11,
          "midi": 67,
          "name": "G4",
          "ticks": 7072,
          "time": 82.23255813953489,
          "velocity": 0.15748031496062992
        },
        {
          "duration": 0.11627906976744384,
          "durationTicks": 10,
          "midi": 88,
          "name": "E6",
          "ticks": 7083,
          "time": 82.36046511627907,
          "velocity": 0.14960629921259844
        },
        {
          "duration": 0.19767441860464885,
          "durationTicks": 17,
          "midi": 91,
          "name": "G6",
          "ticks": 7083,
          "time": 82.36046511627907,
          "velocity": 0.18110236220472442
        },
        {
          "duration": 0.22093023255813193,
          "durationTicks": 19,
          "midi": 64,
          "name": "E4",
          "ticks": 7084,
          "time": 82.37209302325581,
          "velocity": 0.1968503937007874
        },
        {
          "duration": 0.023255813953497295,
          "durationTicks": 2,
          "midi": 47,
          "name": "B2",
          "ticks": 7085,
          "time": 82.38372093023256,
          "velocity": 0.49606299212598426
        },
        {
          "duration": 0.04651162790698038,
          "durationTicks": 4,
          "midi": 74,
          "name": "D5",
          "ticks": 7085,
          "time": 82.38372093023256,
          "velocity": 0.1889763779527559
        },
        {
          "duration": 0.17441860465116577,
          "durationTicks": 15,
          "midi": 95,
          "name": "B6",
          "ticks": 7085,
          "time": 82.38372093023256,
          "velocity": 0.14960629921259844
        },
        {
          "duration": 0.04651162790696617,
          "durationTicks": 4,
          "midi": 48,
          "name": "C3",
          "ticks": 7087,
          "time": 82.40697674418605,
          "velocity": 0.4330708661417323
        },
        {
          "duration": 0.04651162790696617,
          "durationTicks": 4,
          "midi": 83,
          "name": "B5",
          "ticks": 7087,
          "time": 82.40697674418605,
          "velocity": 0.07874015748031496
        },
        {
          "duration": 0.034883720930224626,
          "durationTicks": 3,
          "midi": 37,
          "name": "C#2",
          "ticks": 7088,
          "time": 82.4186046511628,
          "velocity": 0.4409448818897638
        },
        {
          "duration": 0.15116279069766847,
          "durationTicks": 13,
          "midi": 57,
          "name": "A3",
          "ticks": 7090,
          "time": 82.44186046511628,
          "velocity": 0.4881889763779528
        },
        {
          "duration": 0.03488372093023884,
          "durationTicks": 3,
          "midi": 36,
          "name": "C2",
          "ticks": 7091,
          "time": 82.45348837209302,
          "velocity": 0.3937007874015748
        },
        {
          "duration": 0.04651162790698038,
          "durationTicks": 4,
          "midi": 74,
          "name": "D5",
          "ticks": 7091,
          "time": 82.45348837209302,
          "velocity": 0.1889763779527559
        },
        {
          "duration": 0.15116279069768268,
          "durationTicks": 13,
          "midi": 48,
          "name": "C3",
          "ticks": 7092,
          "time": 82.46511627906976,
          "velocity": 0.5039370078740157
        },
        {
          "duration": 0.03488372093023884,
          "durationTicks": 3,
          "midi": 36,
          "name": "C2",
          "ticks": 7097,
          "time": 82.52325581395348,
          "velocity": 0.2992125984251969
        },
        {
          "duration": 0.023255813953483084,
          "durationTicks": 2,
          "midi": 36,
          "name": "C2",
          "ticks": 7101,
          "time": 82.56976744186046,
          "velocity": 0.2677165354330709
        },
        {
          "duration": 0.023255813953497295,
          "durationTicks": 2,
          "midi": 55,
          "name": "G3",
          "ticks": 7103,
          "time": 82.59302325581395,
          "velocity": 0.31496062992125984
        },
        {
          "duration": 0.03488372093023884,
          "durationTicks": 3,
          "midi": 79,
          "name": "G5",
          "ticks": 7103,
          "time": 82.59302325581395,
          "velocity": 0.11023622047244094
        },
        {
          "duration": 0.22093023255813193,
          "durationTicks": 19,
          "midi": 62,
          "name": "D4",
          "ticks": 7104,
          "time": 82.6046511627907,
          "velocity": 0.28346456692913385
        },
        {
          "duration": 0.4534883720930196,
          "durationTicks": 39,
          "midi": 66,
          "name": "F#4",
          "ticks": 7104,
          "time": 82.6046511627907,
          "velocity": 0.25196850393700787
        },
        {
          "duration": 0.10465116279068809,
          "durationTicks": 9,
          "midi": 72,
          "name": "C5",
          "ticks": 7104,
          "time": 82.6046511627907,
          "velocity": 0.14960629921259844
        },
        {
          "duration": 0.023255813953483084,
          "durationTicks": 2,
          "midi": 38,
          "name": "D2",
          "ticks": 7106,
          "time": 82.62790697674419,
          "velocity": 0.4566929133858268
        },
        {
          "duration": 0.04651162790698038,
          "durationTicks": 4,
          "midi": 39,
          "name": "D#2",
          "ticks": 7108,
          "time": 82.65116279069767,
          "velocity": 0.4094488188976378
        },
        {
          "duration": 0.04651162790696617,
          "durationTicks": 4,
          "midi": 57,
          "name": "A3",
          "ticks": 7109,
          "time": 82.66279069767442,
          "velocity": 0.2677165354330709
        },
        {
          "duration": 0.10465116279068809,
          "durationTicks": 9,
          "midi": 80,
          "name": "G#5",
          "ticks": 7109,
          "time": 82.66279069767442,
          "velocity": 0.07086614173228346
        },
        {
          "duration": 0.2093023255813904,
          "durationTicks": 18,
          "midi": 93,
          "name": "A6",
          "ticks": 7110,
          "time": 82.67441860465117,
          "velocity": 0.14960629921259844
        },
        {
          "duration": 0.04651162790698038,
          "durationTicks": 4,
          "midi": 38,
          "name": "D2",
          "ticks": 7112,
          "time": 82.69767441860465,
          "velocity": 0.36220472440944884
        },
        {
          "duration": 0.3139534883720927,
          "durationTicks": 27,
          "midi": 69,
          "name": "A4",
          "ticks": 7112,
          "time": 82.69767441860465,
          "velocity": 0.4566929133858268
        },
        {
          "duration": 0.32558139534883423,
          "durationTicks": 28,
          "midi": 57,
          "name": "A3",
          "ticks": 7114,
          "time": 82.72093023255815,
          "velocity": 0.48031496062992124
        },
        {
          "duration": 0.10465116279068809,
          "durationTicks": 9,
          "midi": 72,
          "name": "C5",
          "ticks": 7114,
          "time": 82.72093023255815,
          "velocity": 0.1889763779527559
        },
        {
          "duration": 0.23255813953487348,
          "durationTicks": 20,
          "midi": 95,
          "name": "B6",
          "ticks": 7114,
          "time": 82.72093023255815,
          "velocity": 0.13385826771653545
        },
        {
          "duration": 0.10465116279068809,
          "durationTicks": 9,
          "midi": 91,
          "name": "G6",
          "ticks": 7115,
          "time": 82.73255813953489,
          "velocity": 0.13385826771653545
        },
        {
          "duration": 0.023255813953483084,
          "durationTicks": 2,
          "midi": 36,
          "name": "C2",
          "ticks": 7116,
          "time": 82.74418604651163,
          "velocity": 0.25984251968503935
        },
        {
          "duration": 0.03488372093023884,
          "durationTicks": 3,
          "midi": 88,
          "name": "E6",
          "ticks": 7118,
          "time": 82.76744186046511,
          "velocity": 0.07086614173228346
        },
        {
          "duration": 0.03488372093023884,
          "durationTicks": 3,
          "midi": 39,
          "name": "D#2",
          "ticks": 7119,
          "time": 82.77906976744185,
          "velocity": 0.29133858267716534
        },
        {
          "duration": 0.2093023255814046,
          "durationTicks": 18,
          "midi": 50,
          "name": "D3",
          "ticks": 7124,
          "time": 82.83720930232558,
          "velocity": 0.4645669291338583
        },
        {
          "duration": 0.05813953488372192,
          "durationTicks": 5,
          "midi": 84,
          "name": "C6",
          "ticks": 7124,
          "time": 82.83720930232558,
          "velocity": 0.08661417322834646
        },
        {
          "duration": 0.034883720930224626,
          "durationTicks": 3,
          "midi": 39,
          "name": "D#2",
          "ticks": 7125,
          "time": 82.84883720930233,
          "velocity": 0.4645669291338583
        },
        {
          "duration": 0.30232558139535115,
          "durationTicks": 26,
          "midi": 72,
          "name": "C5",
          "ticks": 7126,
          "time": 82.86046511627907,
          "velocity": 0.23622047244094488
        },
        {
          "duration": 0.17441860465116577,
          "durationTicks": 15,
          "midi": 76,
          "name": "E5",
          "ticks": 7127,
          "time": 82.87209302325581,
          "velocity": 0.11023622047244094
        },
        {
          "duration": 0.03488372093023884,
          "durationTicks": 3,
          "midi": 91,
          "name": "G6",
          "ticks": 7127,
          "time": 82.87209302325581,
          "velocity": 0.11811023622047244
        },
        {
          "duration": 0.09302325581396076,
          "durationTicks": 8,
          "midi": 38,
          "name": "D2",
          "ticks": 7128,
          "time": 82.88372093023256,
          "velocity": 0.4251968503937008
        },
        {
          "duration": 0.023255813953483084,
          "durationTicks": 2,
          "midi": 37,
          "name": "C#2",
          "ticks": 7136,
          "time": 82.97674418604652,
          "velocity": 0.2755905511811024
        },
        {
          "duration": 0.04651162790698038,
          "durationTicks": 4,
          "midi": 38,
          "name": "D2",
          "ticks": 7138,
          "time": 83,
          "velocity": 0.2992125984251969
        },
        {
          "duration": 0.023255813953483084,
          "durationTicks": 2,
          "midi": 52,
          "name": "E3",
          "ticks": 7142,
          "time": 83.04651162790698,
          "velocity": 0.3937007874015748
        },
        {
          "duration": 0.3604651162790731,
          "durationTicks": 31,
          "midi": 69,
          "name": "A4",
          "ticks": 7142,
          "time": 83.04651162790698,
          "velocity": 0.48031496062992124
        },
        {
          "duration": 0.5930232558139465,
          "durationTicks": 51,
          "midi": 85,
          "name": "C#6",
          "ticks": 7142,
          "time": 83.04651162790698,
          "velocity": 0.3700787401574803
        },
        {
          "duration": 0.023255813953483084,
          "durationTicks": 2,
          "midi": 41,
          "name": "F2",
          "ticks": 7143,
          "time": 83.05813953488372,
          "velocity": 0.4566929133858268
        },
        {
          "duration": 0.1046511627907023,
          "durationTicks": 9,
          "midi": 60,
          "name": "C4",
          "ticks": 7143,
          "time": 83.05813953488372,
          "velocity": 0.3543307086614173
        },
        {
          "duration": 0.22093023255813193,
          "durationTicks": 19,
          "midi": 75,
          "name": "D#5",
          "ticks": 7143,
          "time": 83.05813953488372,
          "velocity": 0.1968503937007874
        },
        {
          "duration": 0.5697674418604635,
          "durationTicks": 49,
          "midi": 95,
          "name": "B6",
          "ticks": 7143,
          "time": 83.05813953488372,
          "velocity": 0.2440944881889764
        },
        {
          "duration": 0.06976744186046346,
          "durationTicks": 6,
          "midi": 96,
          "name": "C7",
          "ticks": 7143,
          "time": 83.05813953488372,
          "velocity": 0.13385826771653545
        },
        {
          "duration": 0.09302325581396076,
          "durationTicks": 8,
          "midi": 53,
          "name": "F3",
          "ticks": 7144,
          "time": 83.06976744186046,
          "velocity": 0.4566929133858268
        },
        {
          "duration": 0.1046511627907023,
          "durationTicks": 9,
          "midi": 79,
          "name": "G5",
          "ticks": 7144,
          "time": 83.06976744186046,
          "velocity": 0.09448818897637795
        },
        {
          "duration": 0.081395348837205,
          "durationTicks": 7,
          "midi": 88,
          "name": "E6",
          "ticks": 7144,
          "time": 83.06976744186046,
          "velocity": 0.14960629921259844
        },
        {
          "duration": 0.08139534883721922,
          "durationTicks": 7,
          "midi": 83,
          "name": "B5",
          "ticks": 7145,
          "time": 83.0813953488372,
          "velocity": 0.14173228346456693
        },
        {
          "duration": 0.4418604651162781,
          "durationTicks": 38,
          "midi": 91,
          "name": "G6",
          "ticks": 7145,
          "time": 83.0813953488372,
          "velocity": 0.15748031496062992
        },
        {
          "duration": 0.034883720930224626,
          "durationTicks": 3,
          "midi": 41,
          "name": "F2",
          "ticks": 7148,
          "time": 83.11627906976744,
          "velocity": 0.41732283464566927
        },
        {
          "duration": 0.023255813953497295,
          "durationTicks": 2,
          "midi": 42,
          "name": "F#2",
          "ticks": 7151,
          "time": 83.15116279069767,
          "velocity": 0.29133858267716534
        },
        {
          "duration": 0.04651162790698038,
          "durationTicks": 4,
          "midi": 40,
          "name": "E2",
          "ticks": 7153,
          "time": 83.17441860465117,
          "velocity": 0.2125984251968504
        },
        {
          "duration": 0.081395348837205,
          "durationTicks": 7,
          "midi": 53,
          "name": "F3",
          "ticks": 7155,
          "time": 83.19767441860465,
          "velocity": 0.3700787401574803
        },
        {
          "duration": 0.03488372093023884,
          "durationTicks": 3,
          "midi": 60,
          "name": "C4",
          "ticks": 7155,
          "time": 83.19767441860465,
          "velocity": 0.23622047244094488
        },
        {
          "duration": 0.09302325581396076,
          "durationTicks": 8,
          "midi": 88,
          "name": "E6",
          "ticks": 7156,
          "time": 83.20930232558139,
          "velocity": 0.08661417322834646
        },
        {
          "duration": 0.04651162790696617,
          "durationTicks": 4,
          "midi": 41,
          "name": "F2",
          "ticks": 7158,
          "time": 83.23255813953489,
          "velocity": 0.3543307086614173
        },
        {
          "duration": 0.04651162790698038,
          "durationTicks": 4,
          "midi": 57,
          "name": "A3",
          "ticks": 7159,
          "time": 83.24418604651163,
          "velocity": 0.4566929133858268
        },
        {
          "duration": 0.2674418604651265,
          "durationTicks": 23,
          "midi": 74,
          "name": "D5",
          "ticks": 7162,
          "time": 83.27906976744185,
          "velocity": 0.31496062992125984
        },
        {
          "duration": 0.1860465116279073,
          "durationTicks": 16,
          "midi": 83,
          "name": "B5",
          "ticks": 7162,
          "time": 83.27906976744185,
          "velocity": 0.2204724409448819
        },
        {
          "duration": 0.15116279069768268,
          "durationTicks": 13,
          "midi": 90,
          "name": "F#6",
          "ticks": 7162,
          "time": 83.27906976744185,
          "velocity": 0.11023622047244094
        },
        {
          "duration": 0.034883720930224626,
          "durationTicks": 3,
          "midi": 43,
          "name": "G2",
          "ticks": 7163,
          "time": 83.29069767441861,
          "velocity": 0.49606299212598426
        },
        {
          "duration": 0.05813953488372192,
          "durationTicks": 5,
          "midi": 62,
          "name": "D4",
          "ticks": 7163,
          "time": 83.29069767441861,
          "velocity": 0.2440944881889764
        },
        {
          "duration": 0.034883720930224626,
          "durationTicks": 3,
          "midi": 65,
          "name": "F4",
          "ticks": 7163,
          "time": 83.29069767441861,
          "velocity": 0.14960629921259844
        },
        {
          "duration": 0.04651162790698038,
          "durationTicks": 4,
          "midi": 98,
          "name": "D7",
          "ticks": 7164,
          "time": 83.30232558139535,
          "velocity": 0.09448818897637795
        },
        {
          "duration": 0.023255813953497295,
          "durationTicks": 2,
          "midi": 56,
          "name": "G#3",
          "ticks": 7166,
          "time": 83.32558139534883,
          "velocity": 0.4566929133858268
        },
        {
          "duration": 0.04651162790696617,
          "durationTicks": 4,
          "midi": 76,
          "name": "E5",
          "ticks": 7168,
          "time": 83.34883720930233,
          "velocity": 0.1968503937007874
        },
        {
          "duration": 0.04651162790698038,
          "durationTicks": 4,
          "midi": 62,
          "name": "D4",
          "ticks": 7169,
          "time": 83.36046511627907,
          "velocity": 0.2204724409448819
        },
        {
          "duration": 0.023255813953497295,
          "durationTicks": 2,
          "midi": 42,
          "name": "F#2",
          "ticks": 7171,
          "time": 83.38372093023256,
          "velocity": 0.4094488188976378
        },
        {
          "duration": 0.023255813953497295,
          "durationTicks": 2,
          "midi": 71,
          "name": "B4",
          "ticks": 7171,
          "time": 83.38372093023256,
          "velocity": 0.25196850393700787
        },
        {
          "duration": 0.023255813953497295,
          "durationTicks": 2,
          "midi": 57,
          "name": "A3",
          "ticks": 7172,
          "time": 83.3953488372093,
          "velocity": 0.4566929133858268
        },
        {
          "duration": 0.17441860465116577,
          "durationTicks": 15,
          "midi": 88,
          "name": "E6",
          "ticks": 7172,
          "time": 83.3953488372093,
          "velocity": 0.2125984251968504
        },
        {
          "duration": 0.034883720930224626,
          "durationTicks": 3,
          "midi": 76,
          "name": "E5",
          "ticks": 7173,
          "time": 83.40697674418605,
          "velocity": 0.16535433070866143
        },
        {
          "duration": 0.04651162790696617,
          "durationTicks": 4,
          "midi": 62,
          "name": "D4",
          "ticks": 7174,
          "time": 83.4186046511628,
          "velocity": 0.1889763779527559
        },
        {
          "duration": 0.04651162790696617,
          "durationTicks": 4,
          "midi": 69,
          "name": "A4",
          "ticks": 7174,
          "time": 83.4186046511628,
          "velocity": 0.4015748031496063
        },
        {
          "duration": 0.11627906976744384,
          "durationTicks": 10,
          "midi": 57,
          "name": "A3",
          "ticks": 7175,
          "time": 83.43023255813954,
          "velocity": 0.41732283464566927
        },
        {
          "duration": 0.023255813953483084,
          "durationTicks": 2,
          "midi": 44,
          "name": "G#2",
          "ticks": 7176,
          "time": 83.44186046511628,
          "velocity": 0.3779527559055118
        },
        {
          "duration": 0.023255813953497295,
          "durationTicks": 2,
          "midi": 42,
          "name": "F#2",
          "ticks": 7178,
          "time": 83.46511627906976,
          "velocity": 0.4015748031496063
        },
        {
          "duration": 0.023255813953483084,
          "durationTicks": 2,
          "midi": 43,
          "name": "G2",
          "ticks": 7180,
          "time": 83.48837209302326,
          "velocity": 0.3858267716535433
        },
        {
          "duration": 0.5116279069767415,
          "durationTicks": 44,
          "midi": 86,
          "name": "D6",
          "ticks": 7181,
          "time": 83.5,
          "velocity": 0.4881889763779528
        },
        {
          "duration": 0.04651162790698038,
          "durationTicks": 4,
          "midi": 90,
          "name": "F#6",
          "ticks": 7182,
          "time": 83.51162790697674,
          "velocity": 0.13385826771653545
        },
        {
          "duration": 0.011627906976755753,
          "durationTicks": 1,
          "midi": 44,
          "name": "G#2",
          "ticks": 7183,
          "time": 83.52325581395348,
          "velocity": 0.5196850393700787
        },
        {
          "duration": 0.45348837209303383,
          "durationTicks": 39,
          "midi": 65,
          "name": "F4",
          "ticks": 7183,
          "time": 83.52325581395348,
          "velocity": 0.2047244094488189
        },
        {
          "duration": 0.08139534883721922,
          "durationTicks": 7,
          "midi": 71,
          "name": "B4",
          "ticks": 7183,
          "time": 83.52325581395348,
          "velocity": 0.2204724409448819
        },
        {
          "duration": 0.5348837209302388,
          "durationTicks": 46,
          "midi": 83,
          "name": "B5",
          "ticks": 7183,
          "time": 83.52325581395348,
          "velocity": 0.23622047244094488
        },
        {
          "duration": 0.011627906976741542,
          "durationTicks": 1,
          "midi": 42,
          "name": "F#2",
          "ticks": 7184,
          "time": 83.53488372093024,
          "velocity": 0.5354330708661418
        },
        {
          "duration": 0.43023255813953654,
          "durationTicks": 37,
          "midi": 43,
          "name": "G2",
          "ticks": 7185,
          "time": 83.54651162790698,
          "velocity": 0.49606299212598426
        },
        {
          "duration": 0.034883720930224626,
          "durationTicks": 3,
          "midi": 57,
          "name": "A3",
          "ticks": 7186,
          "time": 83.55813953488372,
          "velocity": 0.29133858267716534
        },
        {
          "duration": 0.3953488372092977,
          "durationTicks": 34,
          "midi": 73,
          "name": "C#5",
          "ticks": 7187,
          "time": 83.56976744186046,
          "velocity": 0.2047244094488189
        },
        {
          "duration": 0.023255813953497295,
          "durationTicks": 2,
          "midi": 50,
          "name": "D3",
          "ticks": 7188,
          "time": 83.5813953488372,
          "velocity": 0.25196850393700787
        },
        {
          "duration": 0.023255813953483084,
          "durationTicks": 2,
          "midi": 58,
          "name": "A#3",
          "ticks": 7190,
          "time": 83.6046511627907,
          "velocity": 0.2440944881889764
        },
        {
          "duration": 0.04651162790698038,
          "durationTicks": 4,
          "midi": 71,
          "name": "B4",
          "ticks": 7191,
          "time": 83.61627906976744,
          "velocity": 0.10236220472440945
        },
        {
          "duration": 0.023255813953483084,
          "durationTicks": 2,
          "midi": 50,
          "name": "D3",
          "ticks": 7195,
          "time": 83.66279069767442,
          "velocity": 0.23622047244094488
        },
        {
          "duration": 0.30232558139533694,
          "durationTicks": 26,
          "midi": 59,
          "name": "B3",
          "ticks": 7195,
          "time": 83.66279069767442,
          "velocity": 0.14960629921259844
        },
        {
          "duration": 0.04651162790698038,
          "durationTicks": 4,
          "midi": 50,
          "name": "D3",
          "ticks": 7202,
          "time": 83.74418604651163,
          "velocity": 0.2047244094488189
        },
        {
          "duration": 0.04651162790698038,
          "durationTicks": 4,
          "midi": 50,
          "name": "D3",
          "ticks": 7209,
          "time": 83.82558139534883,
          "velocity": 0.1889763779527559
        },
        {
          "duration": 0.03488372093023884,
          "durationTicks": 3,
          "midi": 74,
          "name": "D5",
          "ticks": 7221,
          "time": 83.96511627906976,
          "velocity": 0.2047244094488189
        },
        {
          "duration": 0.40697674418605345,
          "durationTicks": 35,
          "midi": 85,
          "name": "C#6",
          "ticks": 7221,
          "time": 83.96511627906976,
          "velocity": 0.23622047244094488
        },
        {
          "duration": 0.5,
          "durationTicks": 43,
          "midi": 67,
          "name": "G4",
          "ticks": 7222,
          "time": 83.97674418604652,
          "velocity": 0.2125984251968504
        },
        {
          "duration": 0.034883720930224626,
          "durationTicks": 3,
          "midi": 71,
          "name": "B4",
          "ticks": 7222,
          "time": 83.97674418604652,
          "velocity": 0.10236220472440945
        },
        {
          "duration": 0.034883720930224626,
          "durationTicks": 3,
          "midi": 77,
          "name": "F5",
          "ticks": 7222,
          "time": 83.97674418604652,
          "velocity": 0.13385826771653545
        },
        {
          "duration": 0.034883720930224626,
          "durationTicks": 3,
          "midi": 84,
          "name": "C6",
          "ticks": 7222,
          "time": 83.97674418604652,
          "velocity": 0.08661417322834646
        },
        {
          "duration": 0.3139534883720927,
          "durationTicks": 27,
          "midi": 45,
          "name": "A2",
          "ticks": 7223,
          "time": 83.98837209302326,
          "velocity": 0.5275590551181102
        },
        {
          "duration": 0.3139534883720927,
          "durationTicks": 27,
          "midi": 52,
          "name": "E3",
          "ticks": 7223,
          "time": 83.98837209302326,
          "velocity": 0.33858267716535434
        },
        {
          "duration": 0.30232558139535115,
          "durationTicks": 26,
          "midi": 61,
          "name": "C#4",
          "ticks": 7224,
          "time": 84,
          "velocity": 0.2125984251968504
        },
        {
          "duration": 0.3139534883720927,
          "durationTicks": 27,
          "midi": 75,
          "name": "D#5",
          "ticks": 7224,
          "time": 84,
          "velocity": 0.2204724409448819
        },
        {
          "duration": 0.11627906976742963,
          "durationTicks": 10,
          "midi": 76,
          "name": "E5",
          "ticks": 7227,
          "time": 84.03488372093024,
          "velocity": 0.08661417322834646
        },
        {
          "duration": 0.023255813953483084,
          "durationTicks": 2,
          "midi": 47,
          "name": "B2",
          "ticks": 7251,
          "time": 84.31395348837209,
          "velocity": 0.4566929133858268
        },
        {
          "duration": 0.2325581395348877,
          "durationTicks": 20,
          "midi": 55,
          "name": "G3",
          "ticks": 7251,
          "time": 84.31395348837209,
          "velocity": 0.31496062992125984
        },
        {
          "duration": 0.2093023255813904,
          "durationTicks": 18,
          "midi": 60,
          "name": "C4",
          "ticks": 7251,
          "time": 84.31395348837209,
          "velocity": 0.28346456692913385
        },
        {
          "duration": 0.2093023255813904,
          "durationTicks": 18,
          "midi": 64,
          "name": "E4",
          "ticks": 7251,
          "time": 84.31395348837209,
          "velocity": 0.1968503937007874
        },
        {
          "duration": 0.15116279069766847,
          "durationTicks": 13,
          "midi": 70,
          "name": "A#4",
          "ticks": 7251,
          "time": 84.31395348837209,
          "velocity": 0.14960629921259844
        },
        {
          "duration": 0.03488372093023884,
          "durationTicks": 3,
          "midi": 74,
          "name": "D5",
          "ticks": 7251,
          "time": 84.31395348837209,
          "velocity": 0.15748031496062992
        },
        {
          "duration": 0.03488372093023884,
          "durationTicks": 3,
          "midi": 77,
          "name": "F5",
          "ticks": 7251,
          "time": 84.31395348837209,
          "velocity": 0.12598425196850394
        },
        {
          "duration": 0.03488372093023884,
          "durationTicks": 3,
          "midi": 83,
          "name": "B5",
          "ticks": 7251,
          "time": 84.31395348837209,
          "velocity": 0.07086614173228346
        },
        {
          "duration": 0.05813953488372192,
          "durationTicks": 5,
          "midi": 91,
          "name": "G6",
          "ticks": 7251,
          "time": 84.31395348837209,
          "velocity": 0.11811023622047244
        },
        {
          "duration": 0.04651162790698038,
          "durationTicks": 4,
          "midi": 37,
          "name": "C#2",
          "ticks": 7253,
          "time": 84.33720930232558,
          "velocity": 0.4409448818897638
        },
        {
          "duration": 0.023255813953497295,
          "durationTicks": 2,
          "midi": 48,
          "name": "C3",
          "ticks": 7253,
          "time": 84.33720930232558,
          "velocity": 0.4409448818897638
        },
        {
          "duration": 0.2325581395348877,
          "durationTicks": 20,
          "midi": 48,
          "name": "C3",
          "ticks": 7256,
          "time": 84.37209302325581,
          "velocity": 0.4015748031496063
        },
        {
          "duration": 0.09302325581394655,
          "durationTicks": 8,
          "midi": 74,
          "name": "D5",
          "ticks": 7256,
          "time": 84.37209302325581,
          "velocity": 0.16535433070866143
        },
        {
          "duration": 0.05813953488372192,
          "durationTicks": 5,
          "midi": 36,
          "name": "C2",
          "ticks": 7257,
          "time": 84.38372093023256,
          "velocity": 0.41732283464566927
        },
        {
          "duration": 0.03488372093023884,
          "durationTicks": 3,
          "midi": 91,
          "name": "G6",
          "ticks": 7257,
          "time": 84.38372093023256,
          "velocity": 0.07086614173228346
        },
        {
          "duration": 0.034883720930224626,
          "durationTicks": 3,
          "midi": 76,
          "name": "E5",
          "ticks": 7260,
          "time": 84.4186046511628,
          "velocity": 0.2125984251968504
        },
        {
          "duration": 0.6162790697674438,
          "durationTicks": 53,
          "midi": 81,
          "name": "A5",
          "ticks": 7260,
          "time": 84.4186046511628,
          "velocity": 0.4566929133858268
        },
        {
          "duration": 0.10465116279068809,
          "durationTicks": 9,
          "midi": 100,
          "name": "E7",
          "ticks": 7260,
          "time": 84.4186046511628,
          "velocity": 0.25984251968503935
        },
        {
          "duration": 0.4651162790697754,
          "durationTicks": 40,
          "midi": 65,
          "name": "F4",
          "ticks": 7339,
          "time": 85.33720930232558,
          "velocity": 0.25196850393700787
        },
        {
          "duration": 0.03488372093023884,
          "durationTicks": 3,
          "midi": 74,
          "name": "D5",
          "ticks": 7339,
          "time": 85.33720930232558,
          "velocity": 0.2283464566929134
        },
        {
          "duration": 0.2906976744186096,
          "durationTicks": 25,
          "midi": 77,
          "name": "F5",
          "ticks": 7339,
          "time": 85.33720930232558,
          "velocity": 0.2755905511811024
        },
        {
          "duration": 0.6511627906976827,
          "durationTicks": 56,
          "midi": 79,
          "name": "G5",
          "ticks": 7339,
          "time": 85.33720930232558,
          "velocity": 0.4409448818897638
        },
        {
          "duration": 0.5465116279069804,
          "durationTicks": 47,
          "midi": 83,
          "name": "B5",
          "ticks": 7339,
          "time": 85.33720930232558,
          "velocity": 0.2440944881889764
        },
        {
          "duration": 0.11627906976744384,
          "durationTicks": 10,
          "midi": 98,
          "name": "D7",
          "ticks": 7339,
          "time": 85.33720930232558,
          "velocity": 0.2677165354330709
        },
        {
          "duration": 0.034883720930224626,
          "durationTicks": 3,
          "midi": 58,
          "name": "A#3",
          "ticks": 7340,
          "time": 85.34883720930233,
          "velocity": 0.2677165354330709
        },
        {
          "duration": 0.034883720930224626,
          "durationTicks": 3,
          "midi": 72,
          "name": "C5",
          "ticks": 7340,
          "time": 85.34883720930233,
          "velocity": 0.23622047244094488
        },
        {
          "duration": 0.023255813953483084,
          "durationTicks": 2,
          "midi": 43,
          "name": "G2",
          "ticks": 7342,
          "time": 85.37209302325581,
          "velocity": 0.4409448818897638
        },
        {
          "duration": 0.081395348837205,
          "durationTicks": 7,
          "midi": 81,
          "name": "A5",
          "ticks": 7342,
          "time": 85.37209302325581,
          "velocity": 0.07086614173228346
        },
        {
          "duration": 0.04651162790698038,
          "durationTicks": 4,
          "midi": 50,
          "name": "D3",
          "ticks": 7343,
          "time": 85.38372093023256,
          "velocity": 0.2992125984251969
        },
        {
          "duration": 0.40697674418605345,
          "durationTicks": 35,
          "midi": 59,
          "name": "B3",
          "ticks": 7343,
          "time": 85.38372093023256,
          "velocity": 0.2283464566929134
        },
        {
          "duration": 0.03488372093023884,
          "durationTicks": 3,
          "midi": 73,
          "name": "C#5",
          "ticks": 7343,
          "time": 85.38372093023256,
          "velocity": 0.2283464566929134
        },
        {
          "duration": 0.023255813953497295,
          "durationTicks": 2,
          "midi": 42,
          "name": "F#2",
          "ticks": 7344,
          "time": 85.3953488372093,
          "velocity": 0.4251968503937008
        },
        {
          "duration": 0.38372093023255616,
          "durationTicks": 33,
          "midi": 43,
          "name": "G2",
          "ticks": 7346,
          "time": 85.4186046511628,
          "velocity": 0.3779527559055118
        },
        {
          "duration": 0.3604651162790731,
          "durationTicks": 31,
          "midi": 73,
          "name": "C#5",
          "ticks": 7347,
          "time": 85.43023255813954,
          "velocity": 0.18110236220472442
        },
        {
          "duration": 0.023255813953483084,
          "durationTicks": 2,
          "midi": 50,
          "name": "D3",
          "ticks": 7352,
          "time": 85.48837209302326,
          "velocity": 0.2440944881889764
        },
        {
          "duration": 0.04651162790698038,
          "durationTicks": 4,
          "midi": 50,
          "name": "D3",
          "ticks": 7359,
          "time": 85.56976744186046,
          "velocity": 0.1968503937007874
        },
        {
          "duration": 0.04651162790698038,
          "durationTicks": 4,
          "midi": 50,
          "name": "D3",
          "ticks": 7366,
          "time": 85.65116279069767,
          "velocity": 0.1889763779527559
        },
        {
          "duration": 0.04651162790696617,
          "durationTicks": 4,
          "midi": 50,
          "name": "D3",
          "ticks": 7373,
          "time": 85.73255813953489,
          "velocity": 0.1732283464566929
        },
        {
          "duration": 0.034883720930224626,
          "durationTicks": 3,
          "midi": 74,
          "name": "D5",
          "ticks": 7378,
          "time": 85.79069767441861,
          "velocity": 0.2125984251968504
        },
        {
          "duration": 0.04651162790696617,
          "durationTicks": 4,
          "midi": 76,
          "name": "E5",
          "ticks": 7378,
          "time": 85.79069767441861,
          "velocity": 0.12598425196850394
        },
        {
          "duration": 0.30232558139533694,
          "durationTicks": 26,
          "midi": 85,
          "name": "C#6",
          "ticks": 7378,
          "time": 85.79069767441861,
          "velocity": 0.23622047244094488
        },
        {
          "duration": 0.24418604651162923,
          "durationTicks": 21,
          "midi": 67,
          "name": "G4",
          "ticks": 7379,
          "time": 85.80232558139535,
          "velocity": 0.1968503937007874
        },
        {
          "duration": 0.034883720930224626,
          "durationTicks": 3,
          "midi": 71,
          "name": "B4",
          "ticks": 7379,
          "time": 85.80232558139535,
          "velocity": 0.10236220472440945
        },
        {
          "duration": 0.034883720930224626,
          "durationTicks": 3,
          "midi": 77,
          "name": "F5",
          "ticks": 7379,
          "time": 85.80232558139535,
          "velocity": 0.12598425196850394
        },
        {
          "duration": 0.22093023255814614,
          "durationTicks": 19,
          "midi": 45,
          "name": "A2",
          "ticks": 7380,
          "time": 85.81395348837209,
          "velocity": 0.5275590551181102
        },
        {
          "duration": 0.2093023255813904,
          "durationTicks": 18,
          "midi": 52,
          "name": "E3",
          "ticks": 7380,
          "time": 85.81395348837209,
          "velocity": 0.33858267716535434
        },
        {
          "duration": 0.22093023255814614,
          "durationTicks": 19,
          "midi": 61,
          "name": "C#4",
          "ticks": 7381,
          "time": 85.82558139534883,
          "velocity": 0.23622047244094488
        },
        {
          "duration": 0.03488372093023884,
          "durationTicks": 3,
          "midi": 75,
          "name": "D#5",
          "ticks": 7381,
          "time": 85.82558139534883,
          "velocity": 0.2204724409448819
        },
        {
          "duration": 0.12790697674418539,
          "durationTicks": 11,
          "midi": 76,
          "name": "E5",
          "ticks": 7384,
          "time": 85.86046511627907,
          "velocity": 0.08661417322834646
        },
        {
          "duration": 0.2093023255813904,
          "durationTicks": 18,
          "midi": 75,
          "name": "D#5",
          "ticks": 7386,
          "time": 85.88372093023256,
          "velocity": 0.1732283464566929
        },
        {
          "duration": 0.3372093023255758,
          "durationTicks": 29,
          "midi": 62,
          "name": "D4",
          "ticks": 7400,
          "time": 86.04651162790698,
          "velocity": 0.31496062992125984
        },
        {
          "duration": 0.11627906976744384,
          "durationTicks": 10,
          "midi": 66,
          "name": "F#4",
          "ticks": 7400,
          "time": 86.04651162790698,
          "velocity": 0.2283464566929134
        },
        {
          "duration": 0.25581395348837077,
          "durationTicks": 22,
          "midi": 72,
          "name": "C5",
          "ticks": 7400,
          "time": 86.04651162790698,
          "velocity": 0.14960629921259844
        },
        {
          "duration": 0.19767441860464885,
          "durationTicks": 17,
          "midi": 93,
          "name": "A6",
          "ticks": 7400,
          "time": 86.04651162790698,
          "velocity": 0.14173228346456693
        },
        {
          "duration": 0.3139534883720927,
          "durationTicks": 27,
          "midi": 50,
          "name": "D3",
          "ticks": 7401,
          "time": 86.05813953488372,
          "velocity": 0.5196850393700787
        },
        {
          "duration": 0.03488372093023884,
          "durationTicks": 3,
          "midi": 38,
          "name": "D2",
          "ticks": 7404,
          "time": 86.09302325581395,
          "velocity": 0.4330708661417323
        },
        {
          "duration": 0.023255813953497295,
          "durationTicks": 2,
          "midi": 38,
          "name": "D2",
          "ticks": 7408,
          "time": 86.13953488372093,
          "velocity": 0.4409448818897638
        },
        {
          "duration": 0.06976744186046346,
          "durationTicks": 6,
          "midi": 80,
          "name": "G#5",
          "ticks": 7408,
          "time": 86.13953488372093,
          "velocity": 0.18110236220472442
        },
        {
          "duration": 0.1046511627907023,
          "durationTicks": 9,
          "midi": 76,
          "name": "E5",
          "ticks": 7409,
          "time": 86.15116279069767,
          "velocity": 0.11811023622047244
        },
        {
          "duration": 0.05813953488372192,
          "durationTicks": 5,
          "midi": 82,
          "name": "A#5",
          "ticks": 7409,
          "time": 86.15116279069767,
          "velocity": 0.09448818897637795
        },
        {
          "duration": 0.12790697674418539,
          "durationTicks": 11,
          "midi": 85,
          "name": "C#6",
          "ticks": 7409,
          "time": 86.15116279069767,
          "velocity": 0.12598425196850394
        },
        {
          "duration": 0.09302325581396076,
          "durationTicks": 8,
          "midi": 90,
          "name": "F#6",
          "ticks": 7409,
          "time": 86.15116279069767,
          "velocity": 0.11023622047244094
        },
        {
          "duration": 0.1860465116279073,
          "durationTicks": 16,
          "midi": 57,
          "name": "A3",
          "ticks": 7411,
          "time": 86.17441860465117,
          "velocity": 0.2283464566929134
        },
        {
          "duration": 0.05813953488372192,
          "durationTicks": 5,
          "midi": 39,
          "name": "D#2",
          "ticks": 7412,
          "time": 86.18604651162791,
          "velocity": 0.41732283464566927
        },
        {
          "duration": 0.13953488372092693,
          "durationTicks": 12,
          "midi": 66,
          "name": "F#4",
          "ticks": 7412,
          "time": 86.18604651162791,
          "velocity": 0.14960629921259844
        },
        {
          "duration": 0.034883720930224626,
          "durationTicks": 3,
          "midi": 80,
          "name": "G#5",
          "ticks": 7415,
          "time": 86.22093023255815,
          "velocity": 0.14173228346456693
        },
        {
          "duration": 0.023255813953483084,
          "durationTicks": 2,
          "midi": 38,
          "name": "D2",
          "ticks": 7417,
          "time": 86.24418604651163,
          "velocity": 0.33070866141732286
        },
        {
          "duration": 0.25581395348837077,
          "durationTicks": 22,
          "midi": 89,
          "name": "F6",
          "ticks": 7418,
          "time": 86.25581395348837,
          "velocity": 0.30708661417322836
        },
        {
          "duration": 0.6860465116279073,
          "durationTicks": 59,
          "midi": 77,
          "name": "F5",
          "ticks": 7419,
          "time": 86.26744186046511,
          "velocity": 0.4566929133858268
        },
        {
          "duration": 0.16279069767442422,
          "durationTicks": 14,
          "midi": 96,
          "name": "C7",
          "ticks": 7419,
          "time": 86.26744186046511,
          "velocity": 0.2440944881889764
        },
        {
          "duration": 0.12790697674418539,
          "durationTicks": 11,
          "midi": 55,
          "name": "G3",
          "ticks": 7428,
          "time": 86.37209302325581,
          "velocity": 0.33070866141732286
        },
        {
          "duration": 0.04651162790698038,
          "durationTicks": 4,
          "midi": 79,
          "name": "G5",
          "ticks": 7428,
          "time": 86.37209302325581,
          "velocity": 0.12598425196850394
        },
        {
          "duration": 0.12790697674418539,
          "durationTicks": 11,
          "midi": 60,
          "name": "C4",
          "ticks": 7429,
          "time": 86.38372093023256,
          "velocity": 0.29133858267716534
        },
        {
          "duration": 0.11627906976744384,
          "durationTicks": 10,
          "midi": 64,
          "name": "E4",
          "ticks": 7429,
          "time": 86.38372093023256,
          "velocity": 0.2047244094488189
        },
        {
          "duration": 0.11627906976744384,
          "durationTicks": 10,
          "midi": 70,
          "name": "A#4",
          "ticks": 7429,
          "time": 86.38372093023256,
          "velocity": 0.14960629921259844
        },
        {
          "duration": 0.03488372093023884,
          "durationTicks": 3,
          "midi": 88,
          "name": "E6",
          "ticks": 7429,
          "time": 86.38372093023256,
          "velocity": 0.07086614173228346
        },
        {
          "duration": 0.05813953488372192,
          "durationTicks": 5,
          "midi": 91,
          "name": "G6",
          "ticks": 7429,
          "time": 86.38372093023256,
          "velocity": 0.13385826771653545
        },
        {
          "duration": 0.04651162790696617,
          "durationTicks": 4,
          "midi": 37,
          "name": "C#2",
          "ticks": 7431,
          "time": 86.40697674418605,
          "velocity": 0.4330708661417323
        },
        {
          "duration": 0.09302325581394655,
          "durationTicks": 8,
          "midi": 48,
          "name": "C3",
          "ticks": 7431,
          "time": 86.40697674418605,
          "velocity": 0.4409448818897638
        },
        {
          "duration": 0.023255813953483084,
          "durationTicks": 2,
          "midi": 36,
          "name": "C2",
          "ticks": 7437,
          "time": 86.47674418604652,
          "velocity": 0.3858267716535433
        },
        {
          "duration": 0.023255813953483084,
          "durationTicks": 2,
          "midi": 47,
          "name": "B2",
          "ticks": 7439,
          "time": 86.5,
          "velocity": 0.41732283464566927
        },
        {
          "duration": 0.09302325581396076,
          "durationTicks": 8,
          "midi": 57,
          "name": "A3",
          "ticks": 7440,
          "time": 86.51162790697674,
          "velocity": 0.3228346456692913
        },
        {
          "duration": 0.33720930232559,
          "durationTicks": 29,
          "midi": 72,
          "name": "C5",
          "ticks": 7440,
          "time": 86.51162790697674,
          "velocity": 0.2204724409448819
        },
        {
          "duration": 0.05813953488372192,
          "durationTicks": 5,
          "midi": 90,
          "name": "F#6",
          "ticks": 7440,
          "time": 86.51162790697674,
          "velocity": 0.07086614173228346
        },
        {
          "duration": 0.081395348837205,
          "durationTicks": 7,
          "midi": 93,
          "name": "A6",
          "ticks": 7440,
          "time": 86.51162790697674,
          "velocity": 0.12598425196850394
        },
        {
          "duration": 0.09302325581396076,
          "durationTicks": 8,
          "midi": 50,
          "name": "D3",
          "ticks": 7441,
          "time": 86.52325581395348,
          "velocity": 0.4881889763779528
        },
        {
          "duration": 0.09302325581396076,
          "durationTicks": 8,
          "midi": 66,
          "name": "F#4",
          "ticks": 7441,
          "time": 86.52325581395348,
          "velocity": 0.25196850393700787
        },
        {
          "duration": 0.05813953488370771,
          "durationTicks": 5,
          "midi": 38,
          "name": "D2",
          "ticks": 7442,
          "time": 86.53488372093024,
          "velocity": 0.4409448818897638
        },
        {
          "duration": 0.06976744186046346,
          "durationTicks": 6,
          "midi": 80,
          "name": "G#5",
          "ticks": 7443,
          "time": 86.54651162790698,
          "velocity": 0.09448818897637795
        },
        {
          "duration": 0.023255813953497295,
          "durationTicks": 2,
          "midi": 39,
          "name": "D#2",
          "ticks": 7447,
          "time": 86.59302325581395,
          "velocity": 0.4094488188976378
        },
        {
          "duration": 0.11627906976744384,
          "durationTicks": 10,
          "midi": 60,
          "name": "C4",
          "ticks": 7448,
          "time": 86.6046511627907,
          "velocity": 0.3228346456692913
        },
        {
          "duration": 0.1046511627907023,
          "durationTicks": 9,
          "midi": 65,
          "name": "F4",
          "ticks": 7449,
          "time": 86.61627906976744,
          "velocity": 0.2992125984251969
        },
        {
          "duration": 0.22093023255813193,
          "durationTicks": 19,
          "midi": 75,
          "name": "D#5",
          "ticks": 7449,
          "time": 86.61627906976744,
          "velocity": 0.1968503937007874
        },
        {
          "duration": 0.023255813953483084,
          "durationTicks": 2,
          "midi": 43,
          "name": "G2",
          "ticks": 7450,
          "time": 86.62790697674419,
          "velocity": 0.4251968503937008
        },
        {
          "duration": 0.1046511627907023,
          "durationTicks": 9,
          "midi": 53,
          "name": "F3",
          "ticks": 7450,
          "time": 86.62790697674419,
          "velocity": 0.4645669291338583
        },
        {
          "duration": 0.2325581395348877,
          "durationTicks": 20,
          "midi": 69,
          "name": "A4",
          "ticks": 7450,
          "time": 86.62790697674419,
          "velocity": 0.2125984251968504
        },
        {
          "duration": 0.22093023255814614,
          "durationTicks": 19,
          "midi": 83,
          "name": "B5",
          "ticks": 7451,
          "time": 86.63953488372093,
          "velocity": 0.13385826771653545
        },
        {
          "duration": 0.03488372093023884,
          "durationTicks": 3,
          "midi": 96,
          "name": "C7",
          "ticks": 7451,
          "time": 86.63953488372093,
          "velocity": 0.08661417322834646
        },
        {
          "duration": 0.03488372093023884,
          "durationTicks": 3,
          "midi": 41,
          "name": "F2",
          "ticks": 7452,
          "time": 86.65116279069767,
          "velocity": 0.47244094488188976
        },
        {
          "duration": 0.1860465116279073,
          "durationTicks": 16,
          "midi": 79,
          "name": "G5",
          "ticks": 7452,
          "time": 86.65116279069767,
          "velocity": 0.11811023622047244
        },
        {
          "duration": 0.023255813953497295,
          "durationTicks": 2,
          "midi": 41,
          "name": "F2",
          "ticks": 7456,
          "time": 86.69767441860465,
          "velocity": 0.3700787401574803
        },
        {
          "duration": 0.011627906976741542,
          "durationTicks": 1,
          "midi": 52,
          "name": "E3",
          "ticks": 7459,
          "time": 86.73255813953489,
          "velocity": 0.5118110236220472
        },
        {
          "duration": 0.10465116279068809,
          "durationTicks": 9,
          "midi": 60,
          "name": "C4",
          "ticks": 7459,
          "time": 86.73255813953489,
          "velocity": 0.3228346456692913
        },
        {
          "duration": 0.09302325581394655,
          "durationTicks": 8,
          "midi": 53,
          "name": "F3",
          "ticks": 7460,
          "time": 86.74418604651163,
          "velocity": 0.48031496062992124
        },
        {
          "duration": 0.081395348837205,
          "durationTicks": 7,
          "midi": 88,
          "name": "E6",
          "ticks": 7460,
          "time": 86.74418604651163,
          "velocity": 0.08661417322834646
        },
        {
          "duration": 0.081395348837205,
          "durationTicks": 7,
          "midi": 96,
          "name": "C7",
          "ticks": 7460,
          "time": 86.74418604651163,
          "velocity": 0.12598425196850394
        },
        {
          "duration": 0.023255813953497295,
          "durationTicks": 2,
          "midi": 42,
          "name": "F#2",
          "ticks": 7462,
          "time": 86.76744186046511,
          "velocity": 0.4645669291338583
        },
        {
          "duration": 0.04651162790696617,
          "durationTicks": 4,
          "midi": 41,
          "name": "F2",
          "ticks": 7464,
          "time": 86.79069767441861,
          "velocity": 0.4566929133858268
        },
        {
          "duration": 0.1046511627907023,
          "durationTicks": 9,
          "midi": 74,
          "name": "D5",
          "ticks": 7468,
          "time": 86.83720930232558,
          "velocity": 0.14173228346456693
        },
        {
          "duration": 0.034883720930224626,
          "durationTicks": 3,
          "midi": 51,
          "name": "D#3",
          "ticks": 7469,
          "time": 86.84883720930233,
          "velocity": 0.4645669291338583
        },
        {
          "duration": 0.023255813953483084,
          "durationTicks": 2,
          "midi": 58,
          "name": "A#3",
          "ticks": 7469,
          "time": 86.84883720930233,
          "velocity": 0.2677165354330709
        },
        {
          "duration": 0.12790697674418539,
          "durationTicks": 11,
          "midi": 71,
          "name": "B4",
          "ticks": 7469,
          "time": 86.84883720930233,
          "velocity": 0.2047244094488189
        },
        {
          "duration": 0.25581395348837077,
          "durationTicks": 22,
          "midi": 95,
          "name": "B6",
          "ticks": 7469,
          "time": 86.84883720930233,
          "velocity": 0.2204724409448819
        },
        {
          "duration": 0.09302325581394655,
          "durationTicks": 8,
          "midi": 64,
          "name": "E4",
          "ticks": 7470,
          "time": 86.86046511627907,
          "velocity": 0.28346456692913385
        },
        {
          "duration": 0.10465116279068809,
          "durationTicks": 9,
          "midi": 68,
          "name": "G#4",
          "ticks": 7470,
          "time": 86.86046511627907,
          "velocity": 0.2283464566929134
        },
        {
          "duration": 0.023255813953483084,
          "durationTicks": 2,
          "midi": 41,
          "name": "F2",
          "ticks": 7471,
          "time": 86.87209302325581,
          "velocity": 0.4094488188976378
        },
        {
          "duration": 0.081395348837205,
          "durationTicks": 7,
          "midi": 59,
          "name": "B3",
          "ticks": 7471,
          "time": 86.87209302325581,
          "velocity": 0.3464566929133858
        },
        {
          "duration": 0.13953488372092693,
          "durationTicks": 12,
          "midi": 82,
          "name": "A#5",
          "ticks": 7471,
          "time": 86.87209302325581,
          "velocity": 0.11811023622047244
        },
        {
          "duration": 0.05813953488372192,
          "durationTicks": 5,
          "midi": 52,
          "name": "E3",
          "ticks": 7472,
          "time": 86.88372093023256,
          "velocity": 0.4330708661417323
        },
        {
          "duration": 0.03488372093023884,
          "durationTicks": 3,
          "midi": 40,
          "name": "E2",
          "ticks": 7473,
          "time": 86.8953488372093,
          "velocity": 0.4015748031496063
        },
        {
          "duration": 0.023255813953483084,
          "durationTicks": 2,
          "midi": 39,
          "name": "D#2",
          "ticks": 7476,
          "time": 86.93023255813954,
          "velocity": 0.4015748031496063
        },
        {
          "duration": 0.03488372093023884,
          "durationTicks": 3,
          "midi": 79,
          "name": "G5",
          "ticks": 7477,
          "time": 86.94186046511628,
          "velocity": 0.15748031496062992
        },
        {
          "duration": 0.081395348837205,
          "durationTicks": 7,
          "midi": 84,
          "name": "C6",
          "ticks": 7477,
          "time": 86.94186046511628,
          "velocity": 0.15748031496062992
        },
        {
          "duration": 0.5581395348837219,
          "durationTicks": 48,
          "midi": 88,
          "name": "E6",
          "ticks": 7477,
          "time": 86.94186046511628,
          "velocity": 0.28346456692913385
        },
        {
          "duration": 0.03488372093023884,
          "durationTicks": 3,
          "midi": 40,
          "name": "E2",
          "ticks": 7478,
          "time": 86.95348837209302,
          "velocity": 0.49606299212598426
        },
        {
          "duration": 0.13953488372092693,
          "durationTicks": 12,
          "midi": 62,
          "name": "D4",
          "ticks": 7478,
          "time": 86.95348837209302,
          "velocity": 0.2677165354330709
        },
        {
          "duration": 0.12790697674418539,
          "durationTicks": 11,
          "midi": 76,
          "name": "E5",
          "ticks": 7478,
          "time": 86.95348837209302,
          "velocity": 0.4645669291338583
        },
        {
          "duration": 0.11627906976744384,
          "durationTicks": 10,
          "midi": 57,
          "name": "A3",
          "ticks": 7479,
          "time": 86.96511627906976,
          "velocity": 0.33070866141732286
        },
        {
          "duration": 0.03488372093023884,
          "durationTicks": 3,
          "midi": 85,
          "name": "C#6",
          "ticks": 7479,
          "time": 86.96511627906976,
          "velocity": 0.08661417322834646
        },
        {
          "duration": 0.04651162790698038,
          "durationTicks": 4,
          "midi": 93,
          "name": "A6",
          "ticks": 7479,
          "time": 86.96511627906976,
          "velocity": 0.14173228346456693
        },
        {
          "duration": 0.04651162790696617,
          "durationTicks": 4,
          "midi": 50,
          "name": "D3",
          "ticks": 7480,
          "time": 86.97674418604652,
          "velocity": 0.4645669291338583
        },
        {
          "duration": 0.12790697674418539,
          "durationTicks": 11,
          "midi": 66,
          "name": "F#4",
          "ticks": 7480,
          "time": 86.97674418604652,
          "velocity": 0.23622047244094488
        },
        {
          "duration": 0.09302325581394655,
          "durationTicks": 8,
          "midi": 72,
          "name": "C5",
          "ticks": 7480,
          "time": 86.97674418604652,
          "velocity": 0.1889763779527559
        },
        {
          "duration": 0.09302325581394655,
          "durationTicks": 8,
          "midi": 80,
          "name": "G#5",
          "ticks": 7480,
          "time": 86.97674418604652,
          "velocity": 0.12598425196850394
        },
        {
          "duration": 0.04651162790698038,
          "durationTicks": 4,
          "midi": 39,
          "name": "D#2",
          "ticks": 7481,
          "time": 86.98837209302326,
          "velocity": 0.48031496062992124
        },
        {
          "duration": 0.04651162790696617,
          "durationTicks": 4,
          "midi": 50,
          "name": "D3",
          "ticks": 7485,
          "time": 87.03488372093024,
          "velocity": 0.4094488188976378
        },
        {
          "duration": 0.023255813953483084,
          "durationTicks": 2,
          "midi": 78,
          "name": "F#5",
          "ticks": 7487,
          "time": 87.05813953488372,
          "velocity": 0.36220472440944884
        },
        {
          "duration": 0.19767441860464885,
          "durationTicks": 17,
          "midi": 89,
          "name": "F6",
          "ticks": 7488,
          "time": 87.06976744186046,
          "velocity": 0.31496062992125984
        },
        {
          "duration": 0.04651162790698038,
          "durationTicks": 4,
          "midi": 48,
          "name": "C3",
          "ticks": 7489,
          "time": 87.0813953488372,
          "velocity": 0.49606299212598426
        },
        {
          "duration": 0.11627906976744384,
          "durationTicks": 10,
          "midi": 77,
          "name": "F5",
          "ticks": 7489,
          "time": 87.0813953488372,
          "velocity": 0.4645669291338583
        },
        {
          "duration": 0.06976744186046346,
          "durationTicks": 6,
          "midi": 82,
          "name": "A#5",
          "ticks": 7489,
          "time": 87.0813953488372,
          "velocity": 0.07086614173228346
        },
        {
          "duration": 0.5930232558139608,
          "durationTicks": 51,
          "midi": 83,
          "name": "B5",
          "ticks": 7489,
          "time": 87.0813953488372,
          "velocity": 0.25196850393700787
        },
        {
          "duration": 0.13953488372094114,
          "durationTicks": 12,
          "midi": 91,
          "name": "G6",
          "ticks": 7489,
          "time": 87.0813953488372,
          "velocity": 0.13385826771653545
        },
        {
          "duration": 0.13953488372094114,
          "durationTicks": 12,
          "midi": 96,
          "name": "C7",
          "ticks": 7489,
          "time": 87.0813953488372,
          "velocity": 0.2440944881889764
        },
        {
          "duration": 0.09302325581396076,
          "durationTicks": 8,
          "midi": 74,
          "name": "D5",
          "ticks": 7490,
          "time": 87.09302325581395,
          "velocity": 0.16535433070866143
        },
        {
          "duration": 0.04651162790696617,
          "durationTicks": 4,
          "midi": 37,
          "name": "C#2",
          "ticks": 7491,
          "time": 87.1046511627907,
          "velocity": 0.4566929133858268
        },
        {
          "duration": 0.06976744186046346,
          "durationTicks": 6,
          "midi": 55,
          "name": "G3",
          "ticks": 7491,
          "time": 87.1046511627907,
          "velocity": 0.31496062992125984
        },
        {
          "duration": 0.11627906976744384,
          "durationTicks": 10,
          "midi": 64,
          "name": "E4",
          "ticks": 7491,
          "time": 87.1046511627907,
          "velocity": 0.2755905511811024
        },
        {
          "duration": 0.05813953488372192,
          "durationTicks": 5,
          "midi": 48,
          "name": "C3",
          "ticks": 7494,
          "time": 87.13953488372093,
          "velocity": 0.5118110236220472
        },
        {
          "duration": 0.023255813953483084,
          "durationTicks": 2,
          "midi": 75,
          "name": "D#5",
          "ticks": 7497,
          "time": 87.17441860465117,
          "velocity": 0.2677165354330709
        },
        {
          "duration": 0.30232558139535115,
          "durationTicks": 26,
          "midi": 55,
          "name": "G3",
          "ticks": 7498,
          "time": 87.18604651162791,
          "velocity": 0.36220472440944884
        },
        {
          "duration": 0.023255813953497295,
          "durationTicks": 2,
          "midi": 42,
          "name": "F#2",
          "ticks": 7499,
          "time": 87.19767441860465,
          "velocity": 0.5275590551181102
        },
        {
          "duration": 0.4534883720930196,
          "durationTicks": 39,
          "midi": 76,
          "name": "E5",
          "ticks": 7499,
          "time": 87.19767441860465,
          "velocity": 0.4645669291338583
        },
        {
          "duration": 0.09302325581396076,
          "durationTicks": 8,
          "midi": 81,
          "name": "A5",
          "ticks": 7499,
          "time": 87.19767441860465,
          "velocity": 0.10236220472440945
        },
        {
          "duration": 0.034883720930224626,
          "durationTicks": 3,
          "midi": 43,
          "name": "G2",
          "ticks": 7501,
          "time": 87.22093023255815,
          "velocity": 0.4566929133858268
        },
        {
          "duration": 0.04651162790696617,
          "durationTicks": 4,
          "midi": 65,
          "name": "F4",
          "ticks": 7501,
          "time": 87.22093023255815,
          "velocity": 0.2047244094488189
        },
        {
          "duration": 0.081395348837205,
          "durationTicks": 7,
          "midi": 73,
          "name": "C#5",
          "ticks": 7501,
          "time": 87.22093023255815,
          "velocity": 0.2204724409448819
        },
        {
          "duration": 0.023255813953497295,
          "durationTicks": 2,
          "midi": 42,
          "name": "F#2",
          "ticks": 7506,
          "time": 87.27906976744185,
          "velocity": 0.3858267716535433
        },
        {
          "duration": 0.03488372093023884,
          "durationTicks": 3,
          "midi": 59,
          "name": "B3",
          "ticks": 7506,
          "time": 87.27906976744185,
          "velocity": 0.1968503937007874
        },
        {
          "duration": 0.3604651162790731,
          "durationTicks": 31,
          "midi": 65,
          "name": "F4",
          "ticks": 7506,
          "time": 87.27906976744185,
          "velocity": 0.14173228346456693
        },
        {
          "duration": 0.023255813953483084,
          "durationTicks": 2,
          "midi": 43,
          "name": "G2",
          "ticks": 7508,
          "time": 87.30232558139535,
          "velocity": 0.3779527559055118
        },
        {
          "duration": 0.3139534883720927,
          "durationTicks": 27,
          "midi": 73,
          "name": "C#5",
          "ticks": 7509,
          "time": 87.31395348837209,
          "velocity": 0.15748031496062992
        },
        {
          "duration": 0.023255813953497295,
          "durationTicks": 2,
          "midi": 42,
          "name": "F#2",
          "ticks": 7510,
          "time": 87.32558139534883,
          "velocity": 0.36220472440944884
        },
        {
          "duration": 0.023255813953497295,
          "durationTicks": 2,
          "midi": 50,
          "name": "D3",
          "ticks": 7510,
          "time": 87.32558139534883,
          "velocity": 0.2283464566929134
        },
        {
          "duration": 0.33720930232559,
          "durationTicks": 29,
          "midi": 59,
          "name": "B3",
          "ticks": 7510,
          "time": 87.32558139534883,
          "velocity": 0.2755905511811024
        },
        {
          "duration": 0.3139534883720927,
          "durationTicks": 27,
          "midi": 43,
          "name": "G2",
          "ticks": 7512,
          "time": 87.34883720930233,
          "velocity": 0.47244094488188976
        },
        {
          "duration": 0.04651162790696617,
          "durationTicks": 4,
          "midi": 50,
          "name": "D3",
          "ticks": 7517,
          "time": 87.40697674418605,
          "velocity": 0.2047244094488189
        },
        {
          "duration": 0.04651162790698038,
          "durationTicks": 4,
          "midi": 50,
          "name": "D3",
          "ticks": 7524,
          "time": 87.48837209302326,
          "velocity": 0.1968503937007874
        },
        {
          "duration": 0.04651162790698038,
          "durationTicks": 4,
          "midi": 50,
          "name": "D3",
          "ticks": 7531,
          "time": 87.56976744186046,
          "velocity": 0.1732283464566929
        },
        {
          "duration": 2.4651162790697754,
          "durationTicks": 212,
          "midi": 74,
          "name": "D5",
          "ticks": 7537,
          "time": 87.63953488372093,
          "velocity": 0.49606299212598426
        },
        {
          "duration": 0.4767441860465169,
          "durationTicks": 41,
          "midi": 86,
          "name": "D6",
          "ticks": 7537,
          "time": 87.63953488372093,
          "velocity": 0.5354330708661418
        },
        {
          "duration": 0.15116279069768268,
          "durationTicks": 13,
          "midi": 102,
          "name": "F#7",
          "ticks": 7537,
          "time": 87.63953488372093,
          "velocity": 0.2755905511811024
        },
        {
          "duration": 0.255813953488385,
          "durationTicks": 22,
          "midi": 67,
          "name": "G4",
          "ticks": 7538,
          "time": 87.65116279069767,
          "velocity": 0.1968503937007874
        },
        {
          "duration": 0.03488372093023884,
          "durationTicks": 3,
          "midi": 84,
          "name": "C6",
          "ticks": 7538,
          "time": 87.65116279069767,
          "velocity": 0.08661417322834646
        },
        {
          "duration": 0.24418604651162923,
          "durationTicks": 21,
          "midi": 85,
          "name": "C#6",
          "ticks": 7538,
          "time": 87.65116279069767,
          "velocity": 0.2677165354330709
        },
        {
          "duration": 0.16279069767442422,
          "durationTicks": 14,
          "midi": 93,
          "name": "A6",
          "ticks": 7538,
          "time": 87.65116279069767,
          "velocity": 0.25196850393700787
        },
        {
          "duration": 0.04651162790696617,
          "durationTicks": 4,
          "midi": 45,
          "name": "A2",
          "ticks": 7539,
          "time": 87.66279069767442,
          "velocity": 0.5196850393700787
        },
        {
          "duration": 0.2093023255813904,
          "durationTicks": 18,
          "midi": 52,
          "name": "E3",
          "ticks": 7539,
          "time": 87.66279069767442,
          "velocity": 0.3228346456692913
        },
        {
          "duration": 0.22093023255813193,
          "durationTicks": 19,
          "midi": 61,
          "name": "C#4",
          "ticks": 7540,
          "time": 87.67441860465117,
          "velocity": 0.23622047244094488
        },
        {
          "duration": 0.17441860465116577,
          "durationTicks": 15,
          "midi": 57,
          "name": "A3",
          "ticks": 7543,
          "time": 87.70930232558139,
          "velocity": 0.15748031496062992
        },
        {
          "duration": 0.16279069767441,
          "durationTicks": 14,
          "midi": 45,
          "name": "A2",
          "ticks": 7544,
          "time": 87.72093023255815,
          "velocity": 0.4330708661417323
        },
        {
          "duration": 0.13953488372092693,
          "durationTicks": 12,
          "midi": 102,
          "name": "F#7",
          "ticks": 7557,
          "time": 87.87209302325581,
          "velocity": 0.28346456692913385
        },
        {
          "duration": 0.17441860465116577,
          "durationTicks": 15,
          "midi": 93,
          "name": "A6",
          "ticks": 7558,
          "time": 87.88372093023256,
          "velocity": 0.2440944881889764
        },
        {
          "duration": 0.03488372093023884,
          "durationTicks": 3,
          "midi": 69,
          "name": "A4",
          "ticks": 7559,
          "time": 87.8953488372093,
          "velocity": 0.07086614173228346
        },
        {
          "duration": 0.05813953488370771,
          "durationTicks": 5,
          "midi": 61,
          "name": "C#4",
          "ticks": 7560,
          "time": 87.90697674418605,
          "velocity": 0.18110236220472442
        },
        {
          "duration": 0.023255813953483084,
          "durationTicks": 2,
          "midi": 45,
          "name": "A2",
          "ticks": 7561,
          "time": 87.9186046511628,
          "velocity": 0.36220472440944884
        },
        {
          "duration": 0.05813953488372192,
          "durationTicks": 5,
          "midi": 52,
          "name": "E3",
          "ticks": 7561,
          "time": 87.9186046511628,
          "velocity": 0.2047244094488189
        },
        {
          "duration": 0.11627906976744384,
          "durationTicks": 10,
          "midi": 85,
          "name": "C#6",
          "ticks": 7561,
          "time": 87.9186046511628,
          "velocity": 0.08661417322834646
        },
        {
          "duration": 0.03488372093023884,
          "durationTicks": 3,
          "midi": 57,
          "name": "A3",
          "ticks": 7563,
          "time": 87.94186046511628,
          "velocity": 0.09448818897637795
        },
        {
          "duration": 0.023255813953497295,
          "durationTicks": 2,
          "midi": 45,
          "name": "A2",
          "ticks": 7564,
          "time": 87.95348837209302,
          "velocity": 0.31496062992125984
        },
        {
          "duration": 0.1860465116279073,
          "durationTicks": 16,
          "midi": 67,
          "name": "G4",
          "ticks": 7564,
          "time": 87.95348837209302,
          "velocity": 0.2047244094488189
        },
        {
          "duration": 0.023255813953483084,
          "durationTicks": 2,
          "midi": 47,
          "name": "B2",
          "ticks": 7567,
          "time": 87.98837209302326,
          "velocity": 0.4566929133858268
        },
        {
          "duration": 0.2325581395348877,
          "durationTicks": 20,
          "midi": 55,
          "name": "G3",
          "ticks": 7567,
          "time": 87.98837209302326,
          "velocity": 0.3228346456692913
        },
        {
          "duration": 0.19767441860464885,
          "durationTicks": 17,
          "midi": 64,
          "name": "E4",
          "ticks": 7567,
          "time": 87.98837209302326,
          "velocity": 0.1968503937007874
        },
        {
          "duration": 0.15116279069766847,
          "durationTicks": 13,
          "midi": 70,
          "name": "A#4",
          "ticks": 7567,
          "time": 87.98837209302326,
          "velocity": 0.14173228346456693
        },
        {
          "duration": 0.05813953488372192,
          "durationTicks": 5,
          "midi": 91,
          "name": "G6",
          "ticks": 7567,
          "time": 87.98837209302326,
          "velocity": 0.11811023622047244
        },
        {
          "duration": 0.1860465116279073,
          "durationTicks": 16,
          "midi": 60,
          "name": "C4",
          "ticks": 7568,
          "time": 88,
          "velocity": 0.29133858267716534
        },
        {
          "duration": 0.03488372093023884,
          "durationTicks": 3,
          "midi": 80,
          "name": "G#5",
          "ticks": 7568,
          "time": 88,
          "velocity": 0.07086614173228346
        },
        {
          "duration": 0.1046511627907023,
          "durationTicks": 9,
          "midi": 83,
          "name": "B5",
          "ticks": 7568,
          "time": 88,
          "velocity": 0.07086614173228346
        },
        {
          "duration": 0.03488372093023884,
          "durationTicks": 3,
          "midi": 37,
          "name": "C#2",
          "ticks": 7569,
          "time": 88.01162790697674,
          "velocity": 0.4409448818897638
        },
        {
          "duration": 0.023255813953497295,
          "durationTicks": 2,
          "midi": 48,
          "name": "C3",
          "ticks": 7569,
          "time": 88.01162790697674,
          "velocity": 0.4409448818897638
        },
        {
          "duration": 0.09302325581396076,
          "durationTicks": 8,
          "midi": 78,
          "name": "F#5",
          "ticks": 7570,
          "time": 88.02325581395348,
          "velocity": 0.09448818897637795
        },
        {
          "duration": 0.023255813953483084,
          "durationTicks": 2,
          "midi": 36,
          "name": "C2",
          "ticks": 7572,
          "time": 88.04651162790698,
          "velocity": 0.4330708661417323
        },
        {
          "duration": 0.05813953488372192,
          "durationTicks": 5,
          "midi": 36,
          "name": "C2",
          "ticks": 7575,
          "time": 88.0813953488372,
          "velocity": 0.3937007874015748
        },
        {
          "duration": 0.04651162790698038,
          "durationTicks": 4,
          "midi": 36,
          "name": "C2",
          "ticks": 7585,
          "time": 88.19767441860465,
          "velocity": 0.11023622047244094
        },
        {
          "duration": 0.4767441860465169,
          "durationTicks": 41,
          "midi": 86,
          "name": "D6",
          "ticks": 7654,
          "time": 89,
          "velocity": 0.5748031496062992
        },
        {
          "duration": 0.05813953488372192,
          "durationTicks": 5,
          "midi": 77,
          "name": "F5",
          "ticks": 7655,
          "time": 89.01162790697674,
          "velocity": 0.2047244094488189
        },
        {
          "duration": 0.24418604651162923,
          "durationTicks": 21,
          "midi": 83,
          "name": "B5",
          "ticks": 7655,
          "time": 89.01162790697674,
          "velocity": 0.2755905511811024
        },
        {
          "duration": 0.081395348837205,
          "durationTicks": 7,
          "midi": 85,
          "name": "C#6",
          "ticks": 7655,
          "time": 89.01162790697674,
          "velocity": 0.28346456692913385
        },
        {
          "duration": 0.9767441860465169,
          "durationTicks": 84,
          "midi": 102,
          "name": "F#7",
          "ticks": 7655,
          "time": 89.01162790697674,
          "velocity": 0.3700787401574803
        },
        {
          "duration": 0.12790697674418539,
          "durationTicks": 11,
          "midi": 65,
          "name": "F4",
          "ticks": 7656,
          "time": 89.02325581395348,
          "velocity": 0.2125984251968504
        },
        {
          "duration": 1,
          "durationTicks": 86,
          "midi": 93,
          "name": "A6",
          "ticks": 7656,
          "time": 89.02325581395348,
          "velocity": 0.33070866141732286
        },
        {
          "duration": 0.04651162790696617,
          "durationTicks": 4,
          "midi": 69,
          "name": "A4",
          "ticks": 7657,
          "time": 89.03488372093024,
          "velocity": 0.14173228346456693
        },
        {
          "duration": 0.12790697674418539,
          "durationTicks": 11,
          "midi": 59,
          "name": "B3",
          "ticks": 7658,
          "time": 89.04651162790698,
          "velocity": 0.2204724409448819
        },
        {
          "duration": 0.05813953488372192,
          "durationTicks": 5,
          "midi": 42,
          "name": "F#2",
          "ticks": 7661,
          "time": 89.0813953488372,
          "velocity": 0.4409448818897638
        },
        {
          "duration": 0.05813953488372192,
          "durationTicks": 5,
          "midi": 50,
          "name": "D3",
          "ticks": 7662,
          "time": 89.09302325581395,
          "velocity": 0.28346456692913385
        },
        {
          "duration": 0.023255813953483084,
          "durationTicks": 2,
          "midi": 21,
          "name": "A0",
          "ticks": 7663,
          "time": 89.1046511627907,
          "velocity": 0.25196850393700787
        },
        {
          "duration": 0.023255813953483084,
          "durationTicks": 2,
          "midi": 85,
          "name": "C#6",
          "ticks": 7665,
          "time": 89.12790697674419,
          "velocity": 0.2440944881889764
        },
        {
          "duration": 0.023255813953497295,
          "durationTicks": 2,
          "midi": 44,
          "name": "G#2",
          "ticks": 7666,
          "time": 89.13953488372093,
          "velocity": 0.28346456692913385
        },
        {
          "duration": 0.05813953488372192,
          "durationTicks": 5,
          "midi": 42,
          "name": "F#2",
          "ticks": 7668,
          "time": 89.16279069767442,
          "velocity": 0.41732283464566927
        },
        {
          "duration": 0.023255813953483084,
          "durationTicks": 2,
          "midi": 50,
          "name": "D3",
          "ticks": 7668,
          "time": 89.16279069767442,
          "velocity": 0.2440944881889764
        },
        {
          "duration": 0.034883720930224626,
          "durationTicks": 3,
          "midi": 55,
          "name": "G3",
          "ticks": 7668,
          "time": 89.16279069767442,
          "velocity": 0.2204724409448819
        },
        {
          "duration": 0.034883720930224626,
          "durationTicks": 3,
          "midi": 65,
          "name": "F4",
          "ticks": 7668,
          "time": 89.16279069767442,
          "velocity": 0.12598425196850394
        },
        {
          "duration": 0.1046511627907023,
          "durationTicks": 9,
          "midi": 59,
          "name": "B3",
          "ticks": 7670,
          "time": 89.18604651162791,
          "velocity": 0.1968503937007874
        },
        {
          "duration": 0.09302325581394655,
          "durationTicks": 8,
          "midi": 85,
          "name": "C#6",
          "ticks": 7670,
          "time": 89.18604651162791,
          "velocity": 0.25984251968503935
        },
        {
          "duration": 0.023255813953483084,
          "durationTicks": 2,
          "midi": 20,
          "name": "G#0",
          "ticks": 7673,
          "time": 89.22093023255815,
          "velocity": 0.2283464566929134
        },
        {
          "duration": 0.023255813953483084,
          "durationTicks": 2,
          "midi": 43,
          "name": "G2",
          "ticks": 7675,
          "time": 89.24418604651163,
          "velocity": 0.3700787401574803
        },
        {
          "duration": 0.04651162790698038,
          "durationTicks": 4,
          "midi": 42,
          "name": "F#2",
          "ticks": 7677,
          "time": 89.26744186046511,
          "velocity": 0.4094488188976378
        },
        {
          "duration": 0.04651162790698038,
          "durationTicks": 4,
          "midi": 55,
          "name": "G3",
          "ticks": 7677,
          "time": 89.26744186046511,
          "velocity": 0.16535433070866143
        },
        {
          "duration": 0.03488372093023884,
          "durationTicks": 3,
          "midi": 65,
          "name": "F4",
          "ticks": 7677,
          "time": 89.26744186046511,
          "velocity": 0.13385826771653545
        },
        {
          "duration": 0.05813953488372192,
          "durationTicks": 5,
          "midi": 83,
          "name": "B5",
          "ticks": 7677,
          "time": 89.26744186046511,
          "velocity": 0.1732283464566929
        },
        {
          "duration": 0.03488372093023884,
          "durationTicks": 3,
          "midi": 50,
          "name": "D3",
          "ticks": 7678,
          "time": 89.27906976744185,
          "velocity": 0.2047244094488189
        },
        {
          "duration": 0.023255813953483084,
          "durationTicks": 2,
          "midi": 85,
          "name": "C#6",
          "ticks": 7680,
          "time": 89.30232558139535,
          "velocity": 0.25196850393700787
        },
        {
          "duration": 0.03488372093023884,
          "durationTicks": 3,
          "midi": 69,
          "name": "A4",
          "ticks": 7682,
          "time": 89.32558139534883,
          "velocity": 0.07874015748031496
        },
        {
          "duration": 0.05813953488372192,
          "durationTicks": 5,
          "midi": 42,
          "name": "F#2",
          "ticks": 7683,
          "time": 89.33720930232558,
          "velocity": 0.4015748031496063
        },
        {
          "duration": 0.03488372093023884,
          "durationTicks": 3,
          "midi": 55,
          "name": "G3",
          "ticks": 7683,
          "time": 89.33720930232558,
          "velocity": 0.1968503937007874
        },
        {
          "duration": 0.08139534883721922,
          "durationTicks": 7,
          "midi": 83,
          "name": "B5",
          "ticks": 7683,
          "time": 89.33720930232558,
          "velocity": 0.2283464566929134
        },
        {
          "duration": 0.034883720930224626,
          "durationTicks": 3,
          "midi": 50,
          "name": "D3",
          "ticks": 7685,
          "time": 89.36046511627907,
          "velocity": 0.23622047244094488
        },
        {
          "duration": 0.023255813953483084,
          "durationTicks": 2,
          "midi": 85,
          "name": "C#6",
          "ticks": 7685,
          "time": 89.36046511627907,
          "velocity": 0.25196850393700787
        },
        {
          "duration": 0.05813953488372192,
          "durationTicks": 5,
          "midi": 65,
          "name": "F4",
          "ticks": 7687,
          "time": 89.38372093023256,
          "velocity": 0.09448818897637795
        },
        {
          "duration": 0.023255813953483084,
          "durationTicks": 2,
          "midi": 44,
          "name": "G#2",
          "ticks": 7689,
          "time": 89.40697674418605,
          "velocity": 0.29133858267716534
        },
        {
          "duration": 0.023255813953483084,
          "durationTicks": 2,
          "midi": 85,
          "name": "C#6",
          "ticks": 7689,
          "time": 89.40697674418605,
          "velocity": 0.2440944881889764
        },
        {
          "duration": 0.04651162790696617,
          "durationTicks": 4,
          "midi": 59,
          "name": "B3",
          "ticks": 7690,
          "time": 89.4186046511628,
          "velocity": 0.14960629921259844
        },
        {
          "duration": 0.023255813953483084,
          "durationTicks": 2,
          "midi": 75,
          "name": "D#5",
          "ticks": 7690,
          "time": 89.4186046511628,
          "velocity": 0.3228346456692913
        },
        {
          "duration": 0.034883720930224626,
          "durationTicks": 3,
          "midi": 42,
          "name": "F#2",
          "ticks": 7691,
          "time": 89.43023255813954,
          "velocity": 0.4015748031496063
        },
        {
          "duration": 0.04651162790698038,
          "durationTicks": 4,
          "midi": 69,
          "name": "A4",
          "ticks": 7691,
          "time": 89.43023255813954,
          "velocity": 0.09448818897637795
        },
        {
          "duration": 0.16279069767442422,
          "durationTicks": 14,
          "midi": 83,
          "name": "B5",
          "ticks": 7692,
          "time": 89.44186046511628,
          "velocity": 0.25984251968503935
        },
        {
          "duration": 0.04651162790698038,
          "durationTicks": 4,
          "midi": 77,
          "name": "F5",
          "ticks": 7694,
          "time": 89.46511627906976,
          "velocity": 0.23622047244094488
        },
        {
          "duration": 0.16279069767441,
          "durationTicks": 14,
          "midi": 67,
          "name": "G4",
          "ticks": 7695,
          "time": 89.47674418604652,
          "velocity": 0.23622047244094488
        },
        {
          "duration": 0.09302325581394655,
          "durationTicks": 8,
          "midi": 85,
          "name": "C#6",
          "ticks": 7695,
          "time": 89.47674418604652,
          "velocity": 0.3464566929133858
        },
        {
          "duration": 0.04651162790698038,
          "durationTicks": 4,
          "midi": 45,
          "name": "A2",
          "ticks": 7696,
          "time": 89.48837209302326,
          "velocity": 0.49606299212598426
        },
        {
          "duration": 0.12790697674418539,
          "durationTicks": 11,
          "midi": 61,
          "name": "C#4",
          "ticks": 7696,
          "time": 89.48837209302326,
          "velocity": 0.25196850393700787
        },
        {
          "duration": 0.034883720930224626,
          "durationTicks": 3,
          "midi": 84,
          "name": "C6",
          "ticks": 7696,
          "time": 89.48837209302326,
          "velocity": 0.13385826771653545
        },
        {
          "duration": 0.5930232558139465,
          "durationTicks": 51,
          "midi": 86,
          "name": "D6",
          "ticks": 7696,
          "time": 89.48837209302326,
          "velocity": 0.5905511811023622
        },
        {
          "duration": 0.034883720930224626,
          "durationTicks": 3,
          "midi": 76,
          "name": "E5",
          "ticks": 7701,
          "time": 89.54651162790698,
          "velocity": 0.2440944881889764
        },
        {
          "duration": 0.023255813953483084,
          "durationTicks": 2,
          "midi": 52,
          "name": "E3",
          "ticks": 7702,
          "time": 89.55813953488372,
          "velocity": 0.2755905511811024
        },
        {
          "duration": 0.034883720930224626,
          "durationTicks": 3,
          "midi": 57,
          "name": "A3",
          "ticks": 7702,
          "time": 89.55813953488372,
          "velocity": 0.2125984251968504
        },
        {
          "duration": 0.03488372093023884,
          "durationTicks": 3,
          "midi": 45,
          "name": "A2",
          "ticks": 7703,
          "time": 89.56976744186046,
          "velocity": 0.41732283464566927
        },
        {
          "duration": 0.13953488372094114,
          "durationTicks": 12,
          "midi": 85,
          "name": "C#6",
          "ticks": 7704,
          "time": 89.5813953488372,
          "velocity": 0.25984251968503935
        },
        {
          "duration": 0.06976744186047767,
          "durationTicks": 6,
          "midi": 52,
          "name": "E3",
          "ticks": 7705,
          "time": 89.59302325581395,
          "velocity": 0.29133858267716534
        },
        {
          "duration": 0.03488372093023884,
          "durationTicks": 3,
          "midi": 61,
          "name": "C#4",
          "ticks": 7708,
          "time": 89.62790697674419,
          "velocity": 0.2283464566929134
        },
        {
          "duration": 0.023255813953497295,
          "durationTicks": 2,
          "midi": 44,
          "name": "G#2",
          "ticks": 7709,
          "time": 89.63953488372093,
          "velocity": 0.4015748031496063
        },
        {
          "duration": 0.08139534883721922,
          "durationTicks": 7,
          "midi": 67,
          "name": "G4",
          "ticks": 7710,
          "time": 89.65116279069767,
          "velocity": 0.14960629921259844
        },
        {
          "duration": 0.03488372093023884,
          "durationTicks": 3,
          "midi": 61,
          "name": "C#4",
          "ticks": 7713,
          "time": 89.68604651162791,
          "velocity": 0.2047244094488189
        },
        {
          "duration": 0.03488372093023884,
          "durationTicks": 3,
          "midi": 82,
          "name": "A#5",
          "ticks": 7714,
          "time": 89.69767441860465,
          "velocity": 0.1889763779527559
        },
        {
          "duration": 0.023255813953483084,
          "durationTicks": 2,
          "midi": 44,
          "name": "G#2",
          "ticks": 7716,
          "time": 89.72093023255815,
          "velocity": 0.4251968503937008
        },
        {
          "duration": 0.023255813953483084,
          "durationTicks": 2,
          "midi": 53,
          "name": "F3",
          "ticks": 7716,
          "time": 89.72093023255815,
          "velocity": 0.2440944881889764
        },
        {
          "duration": 0.034883720930224626,
          "durationTicks": 3,
          "midi": 76,
          "name": "E5",
          "ticks": 7716,
          "time": 89.72093023255815,
          "velocity": 0.2204724409448819
        },
        {
          "duration": 0.023255813953483084,
          "durationTicks": 2,
          "midi": 45,
          "name": "A2",
          "ticks": 7718,
          "time": 89.74418604651163,
          "velocity": 0.36220472440944884
        },
        {
          "duration": 0.04651162790698038,
          "durationTicks": 4,
          "midi": 52,
          "name": "E3",
          "ticks": 7718,
          "time": 89.74418604651163,
          "velocity": 0.2440944881889764
        },
        {
          "duration": 0.04651162790698038,
          "durationTicks": 4,
          "midi": 61,
          "name": "C#4",
          "ticks": 7718,
          "time": 89.74418604651163,
          "velocity": 0.1968503937007874
        },
        {
          "duration": 0.034883720930224626,
          "durationTicks": 3,
          "midi": 67,
          "name": "G4",
          "ticks": 7718,
          "time": 89.74418604651163,
          "velocity": 0.07086614173228346
        },
        {
          "duration": 0.04651162790698038,
          "durationTicks": 4,
          "midi": 85,
          "name": "C#6",
          "ticks": 7718,
          "time": 89.74418604651163,
          "velocity": 0.31496062992125984
        },
        {
          "duration": 0.03488372093023884,
          "durationTicks": 3,
          "midi": 82,
          "name": "A#5",
          "ticks": 7719,
          "time": 89.75581395348837,
          "velocity": 0.1968503937007874
        },
        {
          "duration": 0.03488372093023884,
          "durationTicks": 3,
          "midi": 91,
          "name": "G6",
          "ticks": 7719,
          "time": 89.75581395348837,
          "velocity": 0.12598425196850394
        },
        {
          "duration": 0.023255813953497295,
          "durationTicks": 2,
          "midi": 44,
          "name": "G#2",
          "ticks": 7720,
          "time": 89.76744186046511,
          "velocity": 0.3937007874015748
        },
        {
          "duration": 0.034883720930224626,
          "durationTicks": 3,
          "midi": 57,
          "name": "A3",
          "ticks": 7722,
          "time": 89.79069767441861,
          "velocity": 0.1889763779527559
        },
        {
          "duration": 0.034883720930224626,
          "durationTicks": 3,
          "midi": 61,
          "name": "C#4",
          "ticks": 7723,
          "time": 89.80232558139535,
          "velocity": 0.2204724409448819
        },
        {
          "duration": 0.023255813953483084,
          "durationTicks": 2,
          "midi": 44,
          "name": "G#2",
          "ticks": 7724,
          "time": 89.81395348837209,
          "velocity": 0.4251968503937008
        },
        {
          "duration": 0.04651162790698038,
          "durationTicks": 4,
          "midi": 79,
          "name": "G5",
          "ticks": 7724,
          "time": 89.81395348837209,
          "velocity": 0.18110236220472442
        },
        {
          "duration": 0.12790697674418539,
          "durationTicks": 11,
          "midi": 85,
          "name": "C#6",
          "ticks": 7724,
          "time": 89.81395348837209,
          "velocity": 0.33858267716535434
        },
        {
          "duration": 0.2093023255814046,
          "durationTicks": 18,
          "midi": 66,
          "name": "F#4",
          "ticks": 7725,
          "time": 89.82558139534883,
          "velocity": 0.2125984251968504
        },
        {
          "duration": 0.22093023255814614,
          "durationTicks": 19,
          "midi": 62,
          "name": "D4",
          "ticks": 7726,
          "time": 89.83720930232558,
          "velocity": 0.29133858267716534
        },
        {
          "duration": 0.16279069767442422,
          "durationTicks": 14,
          "midi": 69,
          "name": "A4",
          "ticks": 7726,
          "time": 89.83720930232558,
          "velocity": 0.2047244094488189
        },
        {
          "duration": 0.04651162790698038,
          "durationTicks": 4,
          "midi": 82,
          "name": "A#5",
          "ticks": 7726,
          "time": 89.83720930232558,
          "velocity": 0.2283464566929134
        },
        {
          "duration": 0.023255813953483084,
          "durationTicks": 2,
          "midi": 39,
          "name": "D#2",
          "ticks": 7727,
          "time": 89.84883720930233,
          "velocity": 0.4409448818897638
        },
        {
          "duration": 0.023255813953483084,
          "durationTicks": 2,
          "midi": 50,
          "name": "D3",
          "ticks": 7727,
          "time": 89.84883720930233,
          "velocity": 0.47244094488188976
        },
        {
          "duration": 0.19767441860464885,
          "durationTicks": 17,
          "midi": 57,
          "name": "A3",
          "ticks": 7727,
          "time": 89.84883720930233,
          "velocity": 0.3228346456692913
        },
        {
          "duration": 0.06976744186046346,
          "durationTicks": 6,
          "midi": 80,
          "name": "G#5",
          "ticks": 7728,
          "time": 89.86046511627907,
          "velocity": 0.10236220472440945
        },
        {
          "duration": 0.034883720930224626,
          "durationTicks": 3,
          "midi": 84,
          "name": "C6",
          "ticks": 7728,
          "time": 89.86046511627907,
          "velocity": 0.10236220472440945
        },
        {
          "duration": 0.034883720930224626,
          "durationTicks": 3,
          "midi": 90,
          "name": "F#6",
          "ticks": 7728,
          "time": 89.86046511627907,
          "velocity": 0.09448818897637795
        },
        {
          "duration": 0.15116279069768268,
          "durationTicks": 13,
          "midi": 50,
          "name": "D3",
          "ticks": 7730,
          "time": 89.88372093023256,
          "velocity": 0.4251968503937008
        },
        {
          "duration": 0.023255813953497295,
          "durationTicks": 2,
          "midi": 40,
          "name": "E2",
          "ticks": 7731,
          "time": 89.8953488372093,
          "velocity": 0.4881889763779528
        },
        {
          "duration": 0.05813953488370771,
          "durationTicks": 5,
          "midi": 76,
          "name": "E5",
          "ticks": 7732,
          "time": 89.90697674418605,
          "velocity": 0.2677165354330709
        },
        {
          "duration": 0.034883720930224626,
          "durationTicks": 3,
          "midi": 77,
          "name": "F5",
          "ticks": 7733,
          "time": 89.9186046511628,
          "velocity": 0.25196850393700787
        },
        {
          "duration": 0.3953488372092977,
          "durationTicks": 34,
          "midi": 79,
          "name": "G5",
          "ticks": 7733,
          "time": 89.9186046511628,
          "velocity": 0.4330708661417323
        },
        {
          "duration": 0.3372093023255758,
          "durationTicks": 29,
          "midi": 91,
          "name": "G6",
          "ticks": 7733,
          "time": 89.9186046511628,
          "velocity": 0.6141732283464567
        },
        {
          "duration": 0.034883720930224626,
          "durationTicks": 3,
          "midi": 90,
          "name": "F#6",
          "ticks": 7734,
          "time": 89.93023255813954,
          "velocity": 0.15748031496062992
        },
        {
          "duration": 0.023255813953497295,
          "durationTicks": 2,
          "midi": 19,
          "name": "G0",
          "ticks": 7737,
          "time": 89.96511627906976,
          "velocity": 0.2440944881889764
        },
        {
          "duration": 0.11627906976744384,
          "durationTicks": 10,
          "midi": 55,
          "name": "G3",
          "ticks": 7744,
          "time": 90.04651162790698,
          "velocity": 0.33070866141732286
        },
        {
          "duration": 0.11627906976744384,
          "durationTicks": 10,
          "midi": 60,
          "name": "C4",
          "ticks": 7745,
          "time": 90.05813953488372,
          "velocity": 0.29133858267716534
        },
        {
          "duration": 0.1046511627907023,
          "durationTicks": 9,
          "midi": 64,
          "name": "E4",
          "ticks": 7745,
          "time": 90.05813953488372,
          "velocity": 0.2047244094488189
        },
        {
          "duration": 0.1046511627907023,
          "durationTicks": 9,
          "midi": 70,
          "name": "A#4",
          "ticks": 7745,
          "time": 90.05813953488372,
          "velocity": 0.14960629921259844
        },
        {
          "duration": 0.03488372093023884,
          "durationTicks": 3,
          "midi": 80,
          "name": "G#5",
          "ticks": 7746,
          "time": 90.06976744186046,
          "velocity": 0.09448818897637795
        },
        {
          "duration": 0.08139534883721922,
          "durationTicks": 7,
          "midi": 48,
          "name": "C3",
          "ticks": 7747,
          "time": 90.0813953488372,
          "velocity": 0.4409448818897638
        },
        {
          "duration": 0.06976744186047767,
          "durationTicks": 6,
          "midi": 78,
          "name": "F#5",
          "ticks": 7748,
          "time": 90.09302325581395,
          "velocity": 0.08661417322834646
        },
        {
          "duration": 0.023255813953483084,
          "durationTicks": 2,
          "midi": 37,
          "name": "C#2",
          "ticks": 7749,
          "time": 90.1046511627907,
          "velocity": 0.4330708661417323
        },
        {
          "duration": 0.23255813953487348,
          "durationTicks": 20,
          "midi": 69,
          "name": "A4",
          "ticks": 7754,
          "time": 90.16279069767442,
          "velocity": 0.1889763779527559
        },
        {
          "duration": 0.034883720930224626,
          "durationTicks": 3,
          "midi": 40,
          "name": "E2",
          "ticks": 7755,
          "time": 90.17441860465117,
          "velocity": 0.4409448818897638
        },
        {
          "duration": 0.4534883720930196,
          "durationTicks": 39,
          "midi": 72,
          "name": "C5",
          "ticks": 7755,
          "time": 90.17441860465117,
          "velocity": 0.23622047244094488
        },
        {
          "duration": 0.04651162790698038,
          "durationTicks": 4,
          "midi": 78,
          "name": "F#5",
          "ticks": 7755,
          "time": 90.17441860465117,
          "velocity": 0.10236220472440945
        },
        {
          "duration": 0.09302325581394655,
          "durationTicks": 8,
          "midi": 93,
          "name": "A6",
          "ticks": 7755,
          "time": 90.17441860465117,
          "velocity": 0.12598425196850394
        },
        {
          "duration": 0.2093023255813904,
          "durationTicks": 18,
          "midi": 50,
          "name": "D3",
          "ticks": 7756,
          "time": 90.18604651162791,
          "velocity": 0.44881889763779526
        },
        {
          "duration": 0.2093023255813904,
          "durationTicks": 18,
          "midi": 57,
          "name": "A3",
          "ticks": 7756,
          "time": 90.18604651162791,
          "velocity": 0.3543307086614173
        },
        {
          "duration": 0.2093023255814046,
          "durationTicks": 18,
          "midi": 66,
          "name": "F#4",
          "ticks": 7757,
          "time": 90.19767441860465,
          "velocity": 0.2204724409448819
        },
        {
          "duration": 0.023255813953497295,
          "durationTicks": 2,
          "midi": 39,
          "name": "D#2",
          "ticks": 7758,
          "time": 90.20930232558139,
          "velocity": 0.4251968503937008
        },
        {
          "duration": 0.09302325581394655,
          "durationTicks": 8,
          "midi": 76,
          "name": "E5",
          "ticks": 7759,
          "time": 90.22093023255815,
          "velocity": 0.09448818897637795
        },
        {
          "duration": 0.05813953488372192,
          "durationTicks": 5,
          "midi": 38,
          "name": "D2",
          "ticks": 7760,
          "time": 90.23255813953489,
          "velocity": 0.4409448818897638
        },
        {
          "duration": 0.023255813953483084,
          "durationTicks": 2,
          "midi": 38,
          "name": "D2",
          "ticks": 7766,
          "time": 90.30232558139535,
          "velocity": 0.2440944881889764
        },
        {
          "duration": 0.03488372093023884,
          "durationTicks": 3,
          "midi": 37,
          "name": "C#2",
          "ticks": 7768,
          "time": 90.32558139534883,
          "velocity": 0.28346456692913385
        },
        {
          "duration": 0.13953488372092693,
          "durationTicks": 12,
          "midi": 91,
          "name": "G6",
          "ticks": 7768,
          "time": 90.32558139534883,
          "velocity": 0.11023622047244094
        },
        {
          "duration": 0.04651162790698038,
          "durationTicks": 4,
          "midi": 38,
          "name": "D2",
          "ticks": 7771,
          "time": 90.36046511627907,
          "velocity": 0.3464566929133858
        },
        {
          "duration": 0.15116279069768268,
          "durationTicks": 13,
          "midi": 83,
          "name": "B5",
          "ticks": 7774,
          "time": 90.3953488372093,
          "velocity": 0.14173228346456693
        },
        {
          "duration": 0.2093023255813904,
          "durationTicks": 18,
          "midi": 53,
          "name": "F3",
          "ticks": 7775,
          "time": 90.40697674418605,
          "velocity": 0.44881889763779526
        },
        {
          "duration": 0.23255813953487348,
          "durationTicks": 20,
          "midi": 60,
          "name": "C4",
          "ticks": 7775,
          "time": 90.40697674418605,
          "velocity": 0.31496062992125984
        },
        {
          "duration": 0.2093023255813904,
          "durationTicks": 18,
          "midi": 75,
          "name": "D#5",
          "ticks": 7775,
          "time": 90.40697674418605,
          "velocity": 0.12598425196850394
        },
        {
          "duration": 0.06976744186046346,
          "durationTicks": 6,
          "midi": 96,
          "name": "C7",
          "ticks": 7775,
          "time": 90.40697674418605,
          "velocity": 0.13385826771653545
        },
        {
          "duration": 0.034883720930224626,
          "durationTicks": 3,
          "midi": 42,
          "name": "F#2",
          "ticks": 7776,
          "time": 90.4186046511628,
          "velocity": 0.4409448818897638
        },
        {
          "duration": 0.2093023255813904,
          "durationTicks": 18,
          "midi": 69,
          "name": "A4",
          "ticks": 7776,
          "time": 90.4186046511628,
          "velocity": 0.2047244094488189
        },
        {
          "duration": 0.11627906976744384,
          "durationTicks": 10,
          "midi": 79,
          "name": "G5",
          "ticks": 7776,
          "time": 90.4186046511628,
          "velocity": 0.10236220472440945
        },
        {
          "duration": 0.04651162790698038,
          "durationTicks": 4,
          "midi": 41,
          "name": "F2",
          "ticks": 7779,
          "time": 90.45348837209302,
          "velocity": 0.44881889763779526
        },
        {
          "duration": 0.03488372093023884,
          "durationTicks": 3,
          "midi": 40,
          "name": "E2",
          "ticks": 7785,
          "time": 90.52325581395348,
          "velocity": 0.29133858267716534
        },
        {
          "duration": 0.06976744186046346,
          "durationTicks": 6,
          "midi": 41,
          "name": "F2",
          "ticks": 7788,
          "time": 90.55813953488372,
          "velocity": 0.3779527559055118
        },
        {
          "duration": 0.023255813953483084,
          "durationTicks": 2,
          "midi": 52,
          "name": "E3",
          "ticks": 7793,
          "time": 90.61627906976744,
          "velocity": 0.33858267716535434
        },
        {
          "duration": 0.25581395348837077,
          "durationTicks": 22,
          "midi": 74,
          "name": "D5",
          "ticks": 7793,
          "time": 90.61627906976744,
          "velocity": 0.3228346456692913
        },
        {
          "duration": 0.2325581395348877,
          "durationTicks": 20,
          "midi": 67,
          "name": "G4",
          "ticks": 7794,
          "time": 90.62790697674419,
          "velocity": 0.2047244094488189
        },
        {
          "duration": 0.17441860465116577,
          "durationTicks": 15,
          "midi": 81,
          "name": "A5",
          "ticks": 7794,
          "time": 90.62790697674419,
          "velocity": 0.14173228346456693
        },
        {
          "duration": 0.7093023255813904,
          "durationTicks": 61,
          "midi": 83,
          "name": "B5",
          "ticks": 7794,
          "time": 90.62790697674419,
          "velocity": 0.28346456692913385
        },
        {
          "duration": 0.12790697674418539,
          "durationTicks": 11,
          "midi": 90,
          "name": "F#6",
          "ticks": 7794,
          "time": 90.62790697674419,
          "velocity": 0.10236220472440945
        },
        {
          "duration": 0.25581395348837077,
          "durationTicks": 22,
          "midi": 62,
          "name": "D4",
          "ticks": 7795,
          "time": 90.63953488372093,
          "velocity": 0.23622047244094488
        },
        {
          "duration": 0.19767441860464885,
          "durationTicks": 17,
          "midi": 71,
          "name": "B4",
          "ticks": 7795,
          "time": 90.63953488372093,
          "velocity": 0.10236220472440945
        },
        {
          "duration": 0.24418604651162923,
          "durationTicks": 21,
          "midi": 85,
          "name": "C#6",
          "ticks": 7795,
          "time": 90.63953488372093,
          "velocity": 0.33070866141732286
        },
        {
          "duration": 0.023255813953497295,
          "durationTicks": 2,
          "midi": 43,
          "name": "G2",
          "ticks": 7796,
          "time": 90.65116279069767,
          "velocity": 0.41732283464566927
        },
        {
          "duration": 0.03488372093023884,
          "durationTicks": 3,
          "midi": 98,
          "name": "D7",
          "ticks": 7796,
          "time": 90.65116279069767,
          "velocity": 0.09448818897637795
        },
        {
          "duration": 0.4186046511627808,
          "durationTicks": 36,
          "midi": 55,
          "name": "G3",
          "ticks": 7797,
          "time": 90.66279069767442,
          "velocity": 0.4409448818897638
        },
        {
          "duration": 0.03488372093023884,
          "durationTicks": 3,
          "midi": 43,
          "name": "G2",
          "ticks": 7800,
          "time": 90.69767441860465,
          "velocity": 0.3937007874015748
        },
        {
          "duration": 0.11627906976744384,
          "durationTicks": 10,
          "midi": 43,
          "name": "G2",
          "ticks": 7804,
          "time": 90.74418604651163,
          "velocity": 0.3937007874015748
        },
        {
          "duration": 0.5813953488372192,
          "durationTicks": 50,
          "midi": 86,
          "name": "D6",
          "ticks": 7812,
          "time": 90.83720930232558,
          "velocity": 0.4881889763779528
        },
        {
          "duration": 0.081395348837205,
          "durationTicks": 7,
          "midi": 81,
          "name": "A5",
          "ticks": 7813,
          "time": 90.84883720930233,
          "velocity": 0.15748031496062992
        },
        {
          "duration": 0.011627906976741542,
          "durationTicks": 1,
          "midi": 42,
          "name": "F#2",
          "ticks": 7815,
          "time": 90.87209302325581,
          "velocity": 0.5118110236220472
        },
        {
          "duration": 0.4534883720930196,
          "durationTicks": 39,
          "midi": 65,
          "name": "F4",
          "ticks": 7815,
          "time": 90.87209302325581,
          "velocity": 0.2047244094488189
        },
        {
          "duration": 0.03488372093023884,
          "durationTicks": 3,
          "midi": 69,
          "name": "A4",
          "ticks": 7815,
          "time": 90.87209302325581,
          "velocity": 0.12598425196850394
        },
        {
          "duration": 0.03488372093023884,
          "durationTicks": 3,
          "midi": 90,
          "name": "F#6",
          "ticks": 7815,
          "time": 90.87209302325581,
          "velocity": 0.08661417322834646
        },
        {
          "duration": 0.4534883720930196,
          "durationTicks": 39,
          "midi": 43,
          "name": "G2",
          "ticks": 7816,
          "time": 90.88372093023256,
          "velocity": 0.48031496062992124
        },
        {
          "duration": 0.4534883720930196,
          "durationTicks": 39,
          "midi": 73,
          "name": "C#5",
          "ticks": 7818,
          "time": 90.90697674418605,
          "velocity": 0.2047244094488189
        },
        {
          "duration": 0.023255813953483084,
          "durationTicks": 2,
          "midi": 50,
          "name": "D3",
          "ticks": 7819,
          "time": 90.9186046511628,
          "velocity": 0.25984251968503935
        },
        {
          "duration": 0.06976744186046346,
          "durationTicks": 6,
          "midi": 59,
          "name": "B3",
          "ticks": 7819,
          "time": 90.9186046511628,
          "velocity": 0.1732283464566929
        },
        {
          "duration": 0.023255813953483084,
          "durationTicks": 2,
          "midi": 50,
          "name": "D3",
          "ticks": 7826,
          "time": 91,
          "velocity": 0.23622047244094488
        },
        {
          "duration": 0.3372093023255758,
          "durationTicks": 29,
          "midi": 59,
          "name": "B3",
          "ticks": 7826,
          "time": 91,
          "velocity": 0.2677165354330709
        },
        {
          "duration": 0.04651162790698038,
          "durationTicks": 4,
          "midi": 50,
          "name": "D3",
          "ticks": 7833,
          "time": 91.0813953488372,
          "velocity": 0.2047244094488189
        },
        {
          "duration": 0.04651162790696617,
          "durationTicks": 4,
          "midi": 50,
          "name": "D3",
          "ticks": 7840,
          "time": 91.16279069767442,
          "velocity": 0.1889763779527559
        },
        {
          "duration": 0.04651162790698038,
          "durationTicks": 4,
          "midi": 50,
          "name": "D3",
          "ticks": 7847,
          "time": 91.24418604651163,
          "velocity": 0.18110236220472442
        },
        {
          "duration": 0.04651162790698038,
          "durationTicks": 4,
          "midi": 76,
          "name": "E5",
          "ticks": 7853,
          "time": 91.31395348837209,
          "velocity": 0.12598425196850394
        },
        {
          "duration": 0.40697674418605345,
          "durationTicks": 35,
          "midi": 85,
          "name": "C#6",
          "ticks": 7853,
          "time": 91.31395348837209,
          "velocity": 0.23622047244094488
        },
        {
          "duration": 0.5,
          "durationTicks": 43,
          "midi": 67,
          "name": "G4",
          "ticks": 7854,
          "time": 91.32558139534883,
          "velocity": 0.2125984251968504
        },
        {
          "duration": 0.04651162790698038,
          "durationTicks": 4,
          "midi": 75,
          "name": "D#5",
          "ticks": 7854,
          "time": 91.32558139534883,
          "velocity": 0.2283464566929134
        },
        {
          "duration": 0.03488372093023884,
          "durationTicks": 3,
          "midi": 77,
          "name": "F5",
          "ticks": 7854,
          "time": 91.32558139534883,
          "velocity": 0.13385826771653545
        },
        {
          "duration": 0.03488372093023884,
          "durationTicks": 3,
          "midi": 84,
          "name": "C6",
          "ticks": 7854,
          "time": 91.32558139534883,
          "velocity": 0.10236220472440945
        },
        {
          "duration": 0.011627906976755753,
          "durationTicks": 1,
          "midi": 44,
          "name": "G#2",
          "ticks": 7855,
          "time": 91.33720930232558,
          "velocity": 0.5354330708661418
        },
        {
          "duration": 0.03488372093023884,
          "durationTicks": 3,
          "midi": 52,
          "name": "E3",
          "ticks": 7855,
          "time": 91.33720930232558,
          "velocity": 0.2992125984251969
        },
        {
          "duration": 0.30232558139533694,
          "durationTicks": 26,
          "midi": 45,
          "name": "A2",
          "ticks": 7856,
          "time": 91.34883720930233,
          "velocity": 0.4881889763779528
        },
        {
          "duration": 0.30232558139533694,
          "durationTicks": 26,
          "midi": 61,
          "name": "C#4",
          "ticks": 7856,
          "time": 91.34883720930233,
          "velocity": 0.2440944881889764
        },
        {
          "duration": 0.2674418604651123,
          "durationTicks": 23,
          "midi": 52,
          "name": "E3",
          "ticks": 7859,
          "time": 91.38372093023256,
          "velocity": 0.25984251968503935
        },
        {
          "duration": 0.27906976744186807,
          "durationTicks": 24,
          "midi": 75,
          "name": "D#5",
          "ticks": 7859,
          "time": 91.38372093023256,
          "velocity": 0.2125984251968504
        },
        {
          "duration": 0.11627906976744384,
          "durationTicks": 10,
          "midi": 76,
          "name": "E5",
          "ticks": 7859,
          "time": 91.38372093023256,
          "velocity": 0.09448818897637795
        },
        {
          "duration": 0.023255813953483084,
          "durationTicks": 2,
          "midi": 47,
          "name": "B2",
          "ticks": 7883,
          "time": 91.66279069767442,
          "velocity": 0.4566929133858268
        },
        {
          "duration": 0.24418604651162923,
          "durationTicks": 21,
          "midi": 55,
          "name": "G3",
          "ticks": 7883,
          "time": 91.66279069767442,
          "velocity": 0.31496062992125984
        },
        {
          "duration": 0.2093023255813904,
          "durationTicks": 18,
          "midi": 60,
          "name": "C4",
          "ticks": 7883,
          "time": 91.66279069767442,
          "velocity": 0.28346456692913385
        },
        {
          "duration": 0.2093023255813904,
          "durationTicks": 18,
          "midi": 64,
          "name": "E4",
          "ticks": 7883,
          "time": 91.66279069767442,
          "velocity": 0.1968503937007874
        },
        {
          "duration": 0.15116279069766847,
          "durationTicks": 13,
          "midi": 70,
          "name": "A#4",
          "ticks": 7883,
          "time": 91.66279069767442,
          "velocity": 0.14173228346456693
        },
        {
          "duration": 0.034883720930224626,
          "durationTicks": 3,
          "midi": 74,
          "name": "D5",
          "ticks": 7883,
          "time": 91.66279069767442,
          "velocity": 0.16535433070866143
        },
        {
          "duration": 0.034883720930224626,
          "durationTicks": 3,
          "midi": 77,
          "name": "F5",
          "ticks": 7883,
          "time": 91.66279069767442,
          "velocity": 0.11811023622047244
        },
        {
          "duration": 0.05813953488372192,
          "durationTicks": 5,
          "midi": 91,
          "name": "G6",
          "ticks": 7883,
          "time": 91.66279069767442,
          "velocity": 0.11811023622047244
        },
        {
          "duration": 0.034883720930224626,
          "durationTicks": 3,
          "midi": 80,
          "name": "G#5",
          "ticks": 7884,
          "time": 91.67441860465117,
          "velocity": 0.07086614173228346
        },
        {
          "duration": 0.04651162790698038,
          "durationTicks": 4,
          "midi": 37,
          "name": "C#2",
          "ticks": 7885,
          "time": 91.68604651162791,
          "velocity": 0.4409448818897638
        },
        {
          "duration": 0.023255813953483084,
          "durationTicks": 2,
          "midi": 48,
          "name": "C3",
          "ticks": 7885,
          "time": 91.68604651162791,
          "velocity": 0.4409448818897638
        },
        {
          "duration": 0.23255813953487348,
          "durationTicks": 20,
          "midi": 48,
          "name": "C3",
          "ticks": 7888,
          "time": 91.72093023255815,
          "velocity": 0.4015748031496063
        },
        {
          "duration": 0.09302325581394655,
          "durationTicks": 8,
          "midi": 74,
          "name": "D5",
          "ticks": 7888,
          "time": 91.72093023255815,
          "velocity": 0.16535433070866143
        },
        {
          "duration": 0.05813953488372192,
          "durationTicks": 5,
          "midi": 36,
          "name": "C2",
          "ticks": 7889,
          "time": 91.73255813953489,
          "velocity": 0.41732283464566927
        },
        {
          "duration": 0.034883720930224626,
          "durationTicks": 3,
          "midi": 91,
          "name": "G6",
          "ticks": 7889,
          "time": 91.73255813953489,
          "velocity": 0.07874015748031496
        },
        {
          "duration": 0.03488372093023884,
          "durationTicks": 3,
          "midi": 76,
          "name": "E5",
          "ticks": 7892,
          "time": 91.76744186046511,
          "velocity": 0.2125984251968504
        },
        {
          "duration": 0.023255813953497295,
          "durationTicks": 2,
          "midi": 79,
          "name": "G5",
          "ticks": 7892,
          "time": 91.76744186046511,
          "velocity": 0.2283464566929134
        },
        {
          "duration": 0.6162790697674438,
          "durationTicks": 53,
          "midi": 81,
          "name": "A5",
          "ticks": 7892,
          "time": 91.76744186046511,
          "velocity": 0.4566929133858268
        },
        {
          "duration": 0.1046511627907023,
          "durationTicks": 9,
          "midi": 100,
          "name": "E7",
          "ticks": 7892,
          "time": 91.76744186046511,
          "velocity": 0.25984251968503935
        },
        {
          "duration": 0.023255813953483084,
          "durationTicks": 2,
          "midi": 37,
          "name": "C#2",
          "ticks": 7894,
          "time": 91.79069767441861,
          "velocity": 0.29133858267716534
        },
        {
          "duration": 0.66279069767441,
          "durationTicks": 57,
          "midi": 79,
          "name": "G5",
          "ticks": 7969,
          "time": 92.66279069767442,
          "velocity": 0.4409448818897638
        },
        {
          "duration": 0.4767441860465027,
          "durationTicks": 41,
          "midi": 65,
          "name": "F4",
          "ticks": 7970,
          "time": 92.67441860465117,
          "velocity": 0.25196850393700787
        },
        {
          "duration": 0.034883720930224626,
          "durationTicks": 3,
          "midi": 74,
          "name": "D5",
          "ticks": 7970,
          "time": 92.67441860465117,
          "velocity": 0.2283464566929134
        },
        {
          "duration": 0.2906976744185954,
          "durationTicks": 25,
          "midi": 77,
          "name": "F5",
          "ticks": 7970,
          "time": 92.67441860465117,
          "velocity": 0.2677165354330709
        },
        {
          "duration": 0.48837209302325846,
          "durationTicks": 42,
          "midi": 83,
          "name": "B5",
          "ticks": 7970,
          "time": 92.67441860465117,
          "velocity": 0.2440944881889764
        },
        {
          "duration": 0.11627906976744384,
          "durationTicks": 10,
          "midi": 98,
          "name": "D7",
          "ticks": 7970,
          "time": 92.67441860465117,
          "velocity": 0.2677165354330709
        },
        {
          "duration": 0.023255813953483084,
          "durationTicks": 2,
          "midi": 58,
          "name": "A#3",
          "ticks": 7971,
          "time": 92.68604651162791,
          "velocity": 0.2677165354330709
        },
        {
          "duration": 0.03488372093023884,
          "durationTicks": 3,
          "midi": 72,
          "name": "C5",
          "ticks": 7971,
          "time": 92.68604651162791,
          "velocity": 0.23622047244094488
        },
        {
          "duration": 0.081395348837205,
          "durationTicks": 7,
          "midi": 81,
          "name": "A5",
          "ticks": 7972,
          "time": 92.69767441860465,
          "velocity": 0.10236220472440945
        },
        {
          "duration": 0.023255813953497295,
          "durationTicks": 2,
          "midi": 43,
          "name": "G2",
          "ticks": 7973,
          "time": 92.70930232558139,
          "velocity": 0.4409448818897638
        },
        {
          "duration": 0.4418604651162781,
          "durationTicks": 38,
          "midi": 59,
          "name": "B3",
          "ticks": 7973,
          "time": 92.70930232558139,
          "velocity": 0.2440944881889764
        },
        {
          "duration": 0.04651162790696617,
          "durationTicks": 4,
          "midi": 50,
          "name": "D3",
          "ticks": 7974,
          "time": 92.72093023255815,
          "velocity": 0.2992125984251969
        },
        {
          "duration": 0.034883720930224626,
          "durationTicks": 3,
          "midi": 73,
          "name": "C#5",
          "ticks": 7974,
          "time": 92.72093023255815,
          "velocity": 0.23622047244094488
        },
        {
          "duration": 0.023255813953483084,
          "durationTicks": 2,
          "midi": 42,
          "name": "F#2",
          "ticks": 7975,
          "time": 92.73255813953489,
          "velocity": 0.4251968503937008
        },
        {
          "duration": 0.40697674418605345,
          "durationTicks": 35,
          "midi": 43,
          "name": "G2",
          "ticks": 7977,
          "time": 92.75581395348837,
          "velocity": 0.48031496062992124
        },
        {
          "duration": 0.418604651162795,
          "durationTicks": 36,
          "midi": 73,
          "name": "C#5",
          "ticks": 7978,
          "time": 92.76744186046511,
          "velocity": 0.18110236220472442
        },
        {
          "duration": 0.023255813953497295,
          "durationTicks": 2,
          "midi": 50,
          "name": "D3",
          "ticks": 7983,
          "time": 92.82558139534883,
          "velocity": 0.2440944881889764
        },
        {
          "duration": 0.04651162790696617,
          "durationTicks": 4,
          "midi": 50,
          "name": "D3",
          "ticks": 7990,
          "time": 92.90697674418605,
          "velocity": 0.1968503937007874
        },
        {
          "duration": 0.04651162790698038,
          "durationTicks": 4,
          "midi": 50,
          "name": "D3",
          "ticks": 7997,
          "time": 92.98837209302326,
          "velocity": 0.1889763779527559
        },
        {
          "duration": 0.1860465116279073,
          "durationTicks": 16,
          "midi": 76,
          "name": "E5",
          "ticks": 8010,
          "time": 93.13953488372093,
          "velocity": 0.12598425196850394
        },
        {
          "duration": 0.2906976744186096,
          "durationTicks": 25,
          "midi": 85,
          "name": "C#6",
          "ticks": 8010,
          "time": 93.13953488372093,
          "velocity": 0.23622047244094488
        },
        {
          "duration": 0.023255813953497295,
          "durationTicks": 2,
          "midi": 60,
          "name": "C4",
          "ticks": 8011,
          "time": 93.15116279069767,
          "velocity": 0.2677165354330709
        },
        {
          "duration": 0.22093023255814614,
          "durationTicks": 19,
          "midi": 67,
          "name": "G4",
          "ticks": 8011,
          "time": 93.15116279069767,
          "velocity": 0.1889763779527559
        },
        {
          "duration": 0.04651162790698038,
          "durationTicks": 4,
          "midi": 75,
          "name": "D#5",
          "ticks": 8011,
          "time": 93.15116279069767,
          "velocity": 0.2283464566929134
        },
        {
          "duration": 0.03488372093023884,
          "durationTicks": 3,
          "midi": 77,
          "name": "F5",
          "ticks": 8011,
          "time": 93.15116279069767,
          "velocity": 0.12598425196850394
        },
        {
          "duration": 0.03488372093023884,
          "durationTicks": 3,
          "midi": 84,
          "name": "C6",
          "ticks": 8011,
          "time": 93.15116279069767,
          "velocity": 0.09448818897637795
        },
        {
          "duration": 0.011627906976741542,
          "durationTicks": 1,
          "midi": 44,
          "name": "G#2",
          "ticks": 8012,
          "time": 93.16279069767442,
          "velocity": 0.5354330708661418
        },
        {
          "duration": 0.034883720930224626,
          "durationTicks": 3,
          "midi": 52,
          "name": "E3",
          "ticks": 8012,
          "time": 93.16279069767442,
          "velocity": 0.2992125984251969
        },
        {
          "duration": 0.19767441860464885,
          "durationTicks": 17,
          "midi": 45,
          "name": "A2",
          "ticks": 8013,
          "time": 93.17441860465117,
          "velocity": 0.4881889763779528
        },
        {
          "duration": 0.19767441860464885,
          "durationTicks": 17,
          "midi": 61,
          "name": "C#4",
          "ticks": 8013,
          "time": 93.17441860465117,
          "velocity": 0.2440944881889764
        },
        {
          "duration": 0.16279069767442422,
          "durationTicks": 14,
          "midi": 52,
          "name": "E3",
          "ticks": 8016,
          "time": 93.20930232558139,
          "velocity": 0.25196850393700787
        },
        {
          "duration": 0.22093023255814614,
          "durationTicks": 19,
          "midi": 75,
          "name": "D#5",
          "ticks": 8016,
          "time": 93.20930232558139,
          "velocity": 0.2047244094488189
        },
        {
          "duration": 0.023255813953483084,
          "durationTicks": 2,
          "midi": 56,
          "name": "G#3",
          "ticks": 8030,
          "time": 93.37209302325581,
          "velocity": 0.31496062992125984
        },
        {
          "duration": 0.34883720930233153,
          "durationTicks": 30,
          "midi": 62,
          "name": "D4",
          "ticks": 8030,
          "time": 93.37209302325581,
          "velocity": 0.3228346456692913
        },
        {
          "duration": 0.12790697674418539,
          "durationTicks": 11,
          "midi": 66,
          "name": "F#4",
          "ticks": 8030,
          "time": 93.37209302325581,
          "velocity": 0.2283464566929134
        },
        {
          "duration": 0.30232558139535115,
          "durationTicks": 26,
          "midi": 69,
          "name": "A4",
          "ticks": 8030,
          "time": 93.37209302325581,
          "velocity": 0.2440944881889764
        },
        {
          "duration": 0.03488372093023884,
          "durationTicks": 3,
          "midi": 73,
          "name": "C#5",
          "ticks": 8030,
          "time": 93.37209302325581,
          "velocity": 0.14960629921259844
        },
        {
          "duration": 0.081395348837205,
          "durationTicks": 7,
          "midi": 93,
          "name": "A6",
          "ticks": 8031,
          "time": 93.38372093023256,
          "velocity": 0.13385826771653545
        },
        {
          "duration": 0.023255813953497295,
          "durationTicks": 2,
          "midi": 50,
          "name": "D3",
          "ticks": 8032,
          "time": 93.3953488372093,
          "velocity": 0.47244094488188976
        },
        {
          "duration": 0.09302325581396076,
          "durationTicks": 8,
          "midi": 57,
          "name": "A3",
          "ticks": 8032,
          "time": 93.3953488372093,
          "velocity": 0.29133858267716534
        },
        {
          "duration": 0.25581395348837077,
          "durationTicks": 22,
          "midi": 72,
          "name": "C5",
          "ticks": 8032,
          "time": 93.3953488372093,
          "velocity": 0.14960629921259844
        },
        {
          "duration": 0.034883720930224626,
          "durationTicks": 3,
          "midi": 80,
          "name": "G#5",
          "ticks": 8033,
          "time": 93.40697674418605,
          "velocity": 0.09448818897637795
        },
        {
          "duration": 0.023255813953483084,
          "durationTicks": 2,
          "midi": 39,
          "name": "D#2",
          "ticks": 8035,
          "time": 93.43023255813954,
          "velocity": 0.4251968503937008
        },
        {
          "duration": 0.2906976744186096,
          "durationTicks": 25,
          "midi": 50,
          "name": "D3",
          "ticks": 8035,
          "time": 93.43023255813954,
          "velocity": 0.5196850393700787
        },
        {
          "duration": 0.04651162790698038,
          "durationTicks": 4,
          "midi": 38,
          "name": "D2",
          "ticks": 8037,
          "time": 93.45348837209302,
          "velocity": 0.41732283464566927
        },
        {
          "duration": 0.09302325581396076,
          "durationTicks": 8,
          "midi": 80,
          "name": "G#5",
          "ticks": 8037,
          "time": 93.45348837209302,
          "velocity": 0.18110236220472442
        },
        {
          "duration": 0.11627906976744384,
          "durationTicks": 10,
          "midi": 76,
          "name": "E5",
          "ticks": 8040,
          "time": 93.48837209302326,
          "velocity": 0.11023622047244094
        },
        {
          "duration": 0.034883720930224626,
          "durationTicks": 3,
          "midi": 82,
          "name": "A#5",
          "ticks": 8040,
          "time": 93.48837209302326,
          "velocity": 0.09448818897637795
        },
        {
          "duration": 0.09302325581394655,
          "durationTicks": 8,
          "midi": 85,
          "name": "C#6",
          "ticks": 8040,
          "time": 93.48837209302326,
          "velocity": 0.13385826771653545
        },
        {
          "duration": 0.09302325581394655,
          "durationTicks": 8,
          "midi": 93,
          "name": "A6",
          "ticks": 8040,
          "time": 93.48837209302326,
          "velocity": 0.14173228346456693
        },
        {
          "duration": 0.081395348837205,
          "durationTicks": 7,
          "midi": 90,
          "name": "F#6",
          "ticks": 8041,
          "time": 93.5,
          "velocity": 0.11023622047244094
        },
        {
          "duration": 0.2093023255814046,
          "durationTicks": 18,
          "midi": 57,
          "name": "A3",
          "ticks": 8042,
          "time": 93.51162790697674,
          "velocity": 0.23622047244094488
        },
        {
          "duration": 0.03488372093023884,
          "durationTicks": 3,
          "midi": 39,
          "name": "D#2",
          "ticks": 8043,
          "time": 93.52325581395348,
          "velocity": 0.4015748031496063
        },
        {
          "duration": 0.13953488372092693,
          "durationTicks": 12,
          "midi": 66,
          "name": "F#4",
          "ticks": 8044,
          "time": 93.53488372093024,
          "velocity": 0.12598425196850394
        },
        {
          "duration": 0.04651162790698038,
          "durationTicks": 4,
          "midi": 38,
          "name": "D2",
          "ticks": 8048,
          "time": 93.5813953488372,
          "velocity": 0.33070866141732286
        },
        {
          "duration": 0.6976744186046488,
          "durationTicks": 60,
          "midi": 77,
          "name": "F5",
          "ticks": 8050,
          "time": 93.6046511627907,
          "velocity": 0.4566929133858268
        },
        {
          "duration": 0.13953488372092693,
          "durationTicks": 12,
          "midi": 96,
          "name": "C7",
          "ticks": 8051,
          "time": 93.61627906976744,
          "velocity": 0.2440944881889764
        },
        {
          "duration": 0.10465116279068809,
          "durationTicks": 9,
          "midi": 67,
          "name": "G4",
          "ticks": 8060,
          "time": 93.72093023255815,
          "velocity": 0.1968503937007874
        },
        {
          "duration": 0.023255813953483084,
          "durationTicks": 2,
          "midi": 47,
          "name": "B2",
          "ticks": 8061,
          "time": 93.73255813953489,
          "velocity": 0.4566929133858268
        },
        {
          "duration": 0.10465116279068809,
          "durationTicks": 9,
          "midi": 55,
          "name": "G3",
          "ticks": 8061,
          "time": 93.73255813953489,
          "velocity": 0.33070866141732286
        },
        {
          "duration": 0.10465116279068809,
          "durationTicks": 9,
          "midi": 60,
          "name": "C4",
          "ticks": 8061,
          "time": 93.73255813953489,
          "velocity": 0.2992125984251969
        },
        {
          "duration": 0.10465116279068809,
          "durationTicks": 9,
          "midi": 64,
          "name": "E4",
          "ticks": 8061,
          "time": 93.73255813953489,
          "velocity": 0.2125984251968504
        },
        {
          "duration": 0.10465116279068809,
          "durationTicks": 9,
          "midi": 70,
          "name": "A#4",
          "ticks": 8061,
          "time": 93.73255813953489,
          "velocity": 0.16535433070866143
        },
        {
          "duration": 0.05813953488372192,
          "durationTicks": 5,
          "midi": 91,
          "name": "G6",
          "ticks": 8061,
          "time": 93.73255813953489,
          "velocity": 0.12598425196850394
        },
        {
          "duration": 0.04651162790698038,
          "durationTicks": 4,
          "midi": 37,
          "name": "C#2",
          "ticks": 8063,
          "time": 93.75581395348837,
          "velocity": 0.4251968503937008
        },
        {
          "duration": 0.06976744186046346,
          "durationTicks": 6,
          "midi": 48,
          "name": "C3",
          "ticks": 8063,
          "time": 93.75581395348837,
          "velocity": 0.4251968503937008
        },
        {
          "duration": 0.034883720930224626,
          "durationTicks": 3,
          "midi": 36,
          "name": "C2",
          "ticks": 8067,
          "time": 93.80232558139535,
          "velocity": 0.4330708661417323
        },
        {
          "duration": 0.023255813953497295,
          "durationTicks": 2,
          "midi": 47,
          "name": "B2",
          "ticks": 8069,
          "time": 93.82558139534883,
          "velocity": 0.4409448818897638
        },
        {
          "duration": 0.03488372093023884,
          "durationTicks": 3,
          "midi": 91,
          "name": "G6",
          "ticks": 8069,
          "time": 93.82558139534883,
          "velocity": 0.11811023622047244
        },
        {
          "duration": 0.05813953488372192,
          "durationTicks": 5,
          "midi": 39,
          "name": "D#2",
          "ticks": 8070,
          "time": 93.83720930232558,
          "velocity": 0.4645669291338583
        },
        {
          "duration": 0.023255813953497295,
          "durationTicks": 2,
          "midi": 56,
          "name": "G#3",
          "ticks": 8070,
          "time": 93.83720930232558,
          "velocity": 0.3700787401574803
        },
        {
          "duration": 0.11627906976744384,
          "durationTicks": 10,
          "midi": 69,
          "name": "A4",
          "ticks": 8070,
          "time": 93.83720930232558,
          "velocity": 0.2204724409448819
        },
        {
          "duration": 0.11627906976744384,
          "durationTicks": 10,
          "midi": 72,
          "name": "C5",
          "ticks": 8070,
          "time": 93.83720930232558,
          "velocity": 0.14960629921259844
        },
        {
          "duration": 0.12790697674418539,
          "durationTicks": 11,
          "midi": 80,
          "name": "G#5",
          "ticks": 8070,
          "time": 93.83720930232558,
          "velocity": 0.10236220472440945
        },
        {
          "duration": 0.08139534883721922,
          "durationTicks": 7,
          "midi": 93,
          "name": "A6",
          "ticks": 8070,
          "time": 93.83720930232558,
          "velocity": 0.12598425196850394
        },
        {
          "duration": 0.10465116279068809,
          "durationTicks": 9,
          "midi": 50,
          "name": "D3",
          "ticks": 8071,
          "time": 93.84883720930233,
          "velocity": 0.4645669291338583
        },
        {
          "duration": 0.10465116279068809,
          "durationTicks": 9,
          "midi": 66,
          "name": "F#4",
          "ticks": 8071,
          "time": 93.84883720930233,
          "velocity": 0.2125984251968504
        },
        {
          "duration": 0.06976744186046346,
          "durationTicks": 6,
          "midi": 57,
          "name": "A3",
          "ticks": 8074,
          "time": 93.88372093023256,
          "velocity": 0.33858267716535434
        },
        {
          "duration": 0.05813953488372192,
          "durationTicks": 5,
          "midi": 38,
          "name": "D2",
          "ticks": 8075,
          "time": 93.8953488372093,
          "velocity": 0.4015748031496063
        },
        {
          "duration": 0.1046511627907023,
          "durationTicks": 9,
          "midi": 65,
          "name": "F4",
          "ticks": 8080,
          "time": 93.95348837209302,
          "velocity": 0.2677165354330709
        },
        {
          "duration": 0.09302325581396076,
          "durationTicks": 8,
          "midi": 60,
          "name": "C4",
          "ticks": 8081,
          "time": 93.96511627906976,
          "velocity": 0.3228346456692913
        },
        {
          "duration": 0.2093023255814046,
          "durationTicks": 18,
          "midi": 75,
          "name": "D#5",
          "ticks": 8081,
          "time": 93.96511627906976,
          "velocity": 0.1889763779527559
        },
        {
          "duration": 0.22093023255814614,
          "durationTicks": 19,
          "midi": 79,
          "name": "G5",
          "ticks": 8081,
          "time": 93.96511627906976,
          "velocity": 0.12598425196850394
        },
        {
          "duration": 0.09302325581394655,
          "durationTicks": 8,
          "midi": 69,
          "name": "A4",
          "ticks": 8082,
          "time": 93.97674418604652,
          "velocity": 0.2204724409448819
        },
        {
          "duration": 0.023255813953483084,
          "durationTicks": 2,
          "midi": 41,
          "name": "F2",
          "ticks": 8083,
          "time": 93.98837209302326,
          "velocity": 0.4645669291338583
        },
        {
          "duration": 0.081395348837205,
          "durationTicks": 7,
          "midi": 53,
          "name": "F3",
          "ticks": 8083,
          "time": 93.98837209302326,
          "velocity": 0.4645669291338583
        },
        {
          "duration": 0.034883720930224626,
          "durationTicks": 3,
          "midi": 96,
          "name": "C7",
          "ticks": 8083,
          "time": 93.98837209302326,
          "velocity": 0.07086614173228346
        },
        {
          "duration": 0.023255813953497295,
          "durationTicks": 2,
          "midi": 42,
          "name": "F#2",
          "ticks": 8085,
          "time": 94.01162790697674,
          "velocity": 0.4015748031496063
        },
        {
          "duration": 0.023255813953483084,
          "durationTicks": 2,
          "midi": 41,
          "name": "F2",
          "ticks": 8087,
          "time": 94.03488372093024,
          "velocity": 0.41732283464566927
        },
        {
          "duration": 0.13953488372092693,
          "durationTicks": 12,
          "midi": 85,
          "name": "C#6",
          "ticks": 8088,
          "time": 94.04651162790698,
          "velocity": 0.14960629921259844
        },
        {
          "duration": 0.09302325581396076,
          "durationTicks": 8,
          "midi": 60,
          "name": "C4",
          "ticks": 8090,
          "time": 94.06976744186046,
          "velocity": 0.3464566929133858
        },
        {
          "duration": 0.081395348837205,
          "durationTicks": 7,
          "midi": 88,
          "name": "E6",
          "ticks": 8090,
          "time": 94.06976744186046,
          "velocity": 0.07874015748031496
        },
        {
          "duration": 0.06976744186046346,
          "durationTicks": 6,
          "midi": 93,
          "name": "A6",
          "ticks": 8090,
          "time": 94.06976744186046,
          "velocity": 0.07874015748031496
        },
        {
          "duration": 0.06976744186046346,
          "durationTicks": 6,
          "midi": 96,
          "name": "C7",
          "ticks": 8090,
          "time": 94.06976744186046,
          "velocity": 0.11023622047244094
        },
        {
          "duration": 0.03488372093023884,
          "durationTicks": 3,
          "midi": 42,
          "name": "F#2",
          "ticks": 8091,
          "time": 94.0813953488372,
          "velocity": 0.4645669291338583
        },
        {
          "duration": 0.08139534883721922,
          "durationTicks": 7,
          "midi": 53,
          "name": "F3",
          "ticks": 8091,
          "time": 94.0813953488372,
          "velocity": 0.49606299212598426
        },
        {
          "duration": 0.081395348837205,
          "durationTicks": 7,
          "midi": 69,
          "name": "A4",
          "ticks": 8093,
          "time": 94.1046511627907,
          "velocity": 0.1968503937007874
        },
        {
          "duration": 0.04651162790698038,
          "durationTicks": 4,
          "midi": 41,
          "name": "F2",
          "ticks": 8094,
          "time": 94.11627906976744,
          "velocity": 0.47244094488188976
        },
        {
          "duration": 0.023255813953483084,
          "durationTicks": 2,
          "midi": 51,
          "name": "D#3",
          "ticks": 8099,
          "time": 94.17441860465117,
          "velocity": 0.4645669291338583
        },
        {
          "duration": 0.023255813953483084,
          "durationTicks": 2,
          "midi": 58,
          "name": "A#3",
          "ticks": 8099,
          "time": 94.17441860465117,
          "velocity": 0.25196850393700787
        },
        {
          "duration": 0.13953488372092693,
          "durationTicks": 12,
          "midi": 71,
          "name": "B4",
          "ticks": 8099,
          "time": 94.17441860465117,
          "velocity": 0.2125984251968504
        },
        {
          "duration": 0.11627906976744384,
          "durationTicks": 10,
          "midi": 74,
          "name": "D5",
          "ticks": 8099,
          "time": 94.17441860465117,
          "velocity": 0.12598425196850394
        },
        {
          "duration": 0.09302325581394655,
          "durationTicks": 8,
          "midi": 95,
          "name": "B6",
          "ticks": 8099,
          "time": 94.17441860465117,
          "velocity": 0.10236220472440945
        },
        {
          "duration": 0.12790697674418539,
          "durationTicks": 11,
          "midi": 64,
          "name": "E4",
          "ticks": 8100,
          "time": 94.18604651162791,
          "velocity": 0.28346456692913385
        },
        {
          "duration": 0.13953488372092693,
          "durationTicks": 12,
          "midi": 68,
          "name": "G#4",
          "ticks": 8100,
          "time": 94.18604651162791,
          "velocity": 0.2283464566929134
        },
        {
          "duration": 0.1046511627907023,
          "durationTicks": 9,
          "midi": 82,
          "name": "A#5",
          "ticks": 8100,
          "time": 94.18604651162791,
          "velocity": 0.11023622047244094
        },
        {
          "duration": 0.023255813953497295,
          "durationTicks": 2,
          "midi": 41,
          "name": "F2",
          "ticks": 8101,
          "time": 94.19767441860465,
          "velocity": 0.4094488188976378
        },
        {
          "duration": 0.1046511627907023,
          "durationTicks": 9,
          "midi": 52,
          "name": "E3",
          "ticks": 8101,
          "time": 94.19767441860465,
          "velocity": 0.4409448818897638
        },
        {
          "duration": 0.09302325581396076,
          "durationTicks": 8,
          "midi": 59,
          "name": "B3",
          "ticks": 8101,
          "time": 94.19767441860465,
          "velocity": 0.33070866141732286
        },
        {
          "duration": 0.05813953488370771,
          "durationTicks": 5,
          "midi": 40,
          "name": "E2",
          "ticks": 8103,
          "time": 94.22093023255815,
          "velocity": 0.4015748031496063
        },
        {
          "duration": 0.081395348837205,
          "durationTicks": 7,
          "midi": 84,
          "name": "C6",
          "ticks": 8109,
          "time": 94.29069767441861,
          "velocity": 0.14173228346456693
        },
        {
          "duration": 0.16279069767441,
          "durationTicks": 14,
          "midi": 88,
          "name": "E6",
          "ticks": 8109,
          "time": 94.29069767441861,
          "velocity": 0.2755905511811024
        },
        {
          "duration": 0.15116279069766847,
          "durationTicks": 13,
          "midi": 95,
          "name": "B6",
          "ticks": 8109,
          "time": 94.29069767441861,
          "velocity": 0.2283464566929134
        },
        {
          "duration": 0.023255813953483084,
          "durationTicks": 2,
          "midi": 50,
          "name": "D3",
          "ticks": 8110,
          "time": 94.30232558139535,
          "velocity": 0.48031496062992124
        },
        {
          "duration": 0.11627906976744384,
          "durationTicks": 10,
          "midi": 76,
          "name": "E5",
          "ticks": 8110,
          "time": 94.30232558139535,
          "velocity": 0.4645669291338583
        },
        {
          "duration": 0.04651162790698038,
          "durationTicks": 4,
          "midi": 90,
          "name": "F#6",
          "ticks": 8110,
          "time": 94.30232558139535,
          "velocity": 0.07874015748031496
        },
        {
          "duration": 0.023255813953483084,
          "durationTicks": 2,
          "midi": 40,
          "name": "E2",
          "ticks": 8111,
          "time": 94.31395348837209,
          "velocity": 0.49606299212598426
        },
        {
          "duration": 0.1046511627907023,
          "durationTicks": 9,
          "midi": 57,
          "name": "A3",
          "ticks": 8111,
          "time": 94.31395348837209,
          "velocity": 0.3543307086614173
        },
        {
          "duration": 0.1046511627907023,
          "durationTicks": 9,
          "midi": 66,
          "name": "F#4",
          "ticks": 8111,
          "time": 94.31395348837209,
          "velocity": 0.23622047244094488
        },
        {
          "duration": 0.09302325581396076,
          "durationTicks": 8,
          "midi": 72,
          "name": "C5",
          "ticks": 8111,
          "time": 94.31395348837209,
          "velocity": 0.14173228346456693
        },
        {
          "duration": 0.04651162790698038,
          "durationTicks": 4,
          "midi": 85,
          "name": "C#6",
          "ticks": 8111,
          "time": 94.31395348837209,
          "velocity": 0.07086614173228346
        },
        {
          "duration": 0.03488372093023884,
          "durationTicks": 3,
          "midi": 93,
          "name": "A6",
          "ticks": 8112,
          "time": 94.32558139534883,
          "velocity": 0.11811023622047244
        },
        {
          "duration": 0.04651162790698038,
          "durationTicks": 4,
          "midi": 39,
          "name": "D#2",
          "ticks": 8113,
          "time": 94.33720930232558,
          "velocity": 0.48031496062992124
        },
        {
          "duration": 0.08139534883721922,
          "durationTicks": 7,
          "midi": 50,
          "name": "D3",
          "ticks": 8113,
          "time": 94.33720930232558,
          "velocity": 0.4566929133858268
        },
        {
          "duration": 0.023255813953497295,
          "durationTicks": 2,
          "midi": 38,
          "name": "D2",
          "ticks": 8117,
          "time": 94.38372093023256,
          "velocity": 0.36220472440944884
        },
        {
          "duration": 0.2906976744185954,
          "durationTicks": 25,
          "midi": 77,
          "name": "F5",
          "ticks": 8119,
          "time": 94.40697674418605,
          "velocity": 0.44881889763779526
        },
        {
          "duration": 0.11627906976744384,
          "durationTicks": 10,
          "midi": 60,
          "name": "C4",
          "ticks": 8120,
          "time": 94.4186046511628,
          "velocity": 0.2992125984251969
        },
        {
          "duration": 0.11627906976744384,
          "durationTicks": 10,
          "midi": 67,
          "name": "G4",
          "ticks": 8120,
          "time": 94.4186046511628,
          "velocity": 0.2283464566929134
        },
        {
          "duration": 0.05813953488372192,
          "durationTicks": 5,
          "midi": 70,
          "name": "A#4",
          "ticks": 8120,
          "time": 94.4186046511628,
          "velocity": 0.1889763779527559
        },
        {
          "duration": 0.12790697674418539,
          "durationTicks": 11,
          "midi": 96,
          "name": "C7",
          "ticks": 8120,
          "time": 94.4186046511628,
          "velocity": 0.2440944881889764
        },
        {
          "duration": 0.023255813953483084,
          "durationTicks": 2,
          "midi": 47,
          "name": "B2",
          "ticks": 8121,
          "time": 94.43023255813954,
          "velocity": 0.4251968503937008
        },
        {
          "duration": 0.023255813953483084,
          "durationTicks": 2,
          "midi": 55,
          "name": "G3",
          "ticks": 8121,
          "time": 94.43023255813954,
          "velocity": 0.3464566929133858
        },
        {
          "duration": 0.09302325581394655,
          "durationTicks": 8,
          "midi": 64,
          "name": "E4",
          "ticks": 8121,
          "time": 94.43023255813954,
          "velocity": 0.2283464566929134
        },
        {
          "duration": 1.058139534883722,
          "durationTicks": 91,
          "midi": 74,
          "name": "D5",
          "ticks": 8121,
          "time": 94.43023255813954,
          "velocity": 0.44881889763779526
        },
        {
          "duration": 0.04651162790698038,
          "durationTicks": 4,
          "midi": 91,
          "name": "G6",
          "ticks": 8121,
          "time": 94.43023255813954,
          "velocity": 0.12598425196850394
        },
        {
          "duration": 0.04651162790698038,
          "durationTicks": 4,
          "midi": 37,
          "name": "C#2",
          "ticks": 8122,
          "time": 94.44186046511628,
          "velocity": 0.48031496062992124
        },
        {
          "duration": 0.04651162790698038,
          "durationTicks": 4,
          "midi": 48,
          "name": "C3",
          "ticks": 8123,
          "time": 94.45348837209302,
          "velocity": 0.4566929133858268
        },
        {
          "duration": 0.04651162790698038,
          "durationTicks": 4,
          "midi": 55,
          "name": "G3",
          "ticks": 8124,
          "time": 94.46511627906976,
          "velocity": 0.31496062992125984
        },
        {
          "duration": 0.034883720930224626,
          "durationTicks": 3,
          "midi": 36,
          "name": "C2",
          "ticks": 8126,
          "time": 94.48837209302326,
          "velocity": 0.44881889763779526
        },
        {
          "duration": 0.034883720930224626,
          "durationTicks": 3,
          "midi": 70,
          "name": "A#4",
          "ticks": 8126,
          "time": 94.48837209302326,
          "velocity": 0.09448818897637795
        },
        {
          "duration": 0.06976744186046346,
          "durationTicks": 6,
          "midi": 91,
          "name": "G6",
          "ticks": 8126,
          "time": 94.48837209302326,
          "velocity": 0.13385826771653545
        },
        {
          "duration": 0.04651162790698038,
          "durationTicks": 4,
          "midi": 85,
          "name": "C#6",
          "ticks": 8128,
          "time": 94.51162790697674,
          "velocity": 0.30708661417322836
        },
        {
          "duration": 0.25581395348837077,
          "durationTicks": 22,
          "midi": 86,
          "name": "D6",
          "ticks": 8128,
          "time": 94.51162790697674,
          "velocity": 0.5354330708661418
        },
        {
          "duration": 0.38372093023257037,
          "durationTicks": 33,
          "midi": 69,
          "name": "A4",
          "ticks": 8129,
          "time": 94.52325581395348,
          "velocity": 0.2047244094488189
        },
        {
          "duration": 0.16279069767442422,
          "durationTicks": 14,
          "midi": 93,
          "name": "A6",
          "ticks": 8129,
          "time": 94.52325581395348,
          "velocity": 0.28346456692913385
        },
        {
          "duration": 0.15116279069768268,
          "durationTicks": 13,
          "midi": 102,
          "name": "F#7",
          "ticks": 8129,
          "time": 94.52325581395348,
          "velocity": 0.2755905511811024
        },
        {
          "duration": 0.43023255813953654,
          "durationTicks": 37,
          "midi": 50,
          "name": "D3",
          "ticks": 8131,
          "time": 94.54651162790698,
          "velocity": 0.4566929133858268
        },
        {
          "duration": 0.43023255813953654,
          "durationTicks": 37,
          "midi": 57,
          "name": "A3",
          "ticks": 8131,
          "time": 94.54651162790698,
          "velocity": 0.3543307086614173
        },
        {
          "duration": 0.8953488372092977,
          "durationTicks": 77,
          "midi": 66,
          "name": "F#4",
          "ticks": 8132,
          "time": 94.55813953488372,
          "velocity": 0.25196850393700787
        },
        {
          "duration": 0.023255813953483084,
          "durationTicks": 2,
          "midi": 39,
          "name": "D#2",
          "ticks": 8133,
          "time": 94.56976744186046,
          "velocity": 0.4566929133858268
        },
        {
          "duration": 0.081395348837205,
          "durationTicks": 7,
          "midi": 80,
          "name": "G#5",
          "ticks": 8133,
          "time": 94.56976744186046,
          "velocity": 0.10236220472440945
        },
        {
          "duration": 0.05813953488372192,
          "durationTicks": 5,
          "midi": 38,
          "name": "D2",
          "ticks": 8135,
          "time": 94.59302325581395,
          "velocity": 0.47244094488188976
        },
        {
          "duration": 0.2674418604651123,
          "durationTicks": 23,
          "midi": 72,
          "name": "C5",
          "ticks": 8136,
          "time": 94.6046511627907,
          "velocity": 0.10236220472440945
        },
        {
          "duration": 0.023255813953483084,
          "durationTicks": 2,
          "midi": 38,
          "name": "D2",
          "ticks": 8141,
          "time": 94.66279069767442,
          "velocity": 0.25984251968503935
        },
        {
          "duration": 0.023255813953483084,
          "durationTicks": 2,
          "midi": 37,
          "name": "C#2",
          "ticks": 8143,
          "time": 94.68604651162791,
          "velocity": 0.28346456692913385
        },
        {
          "duration": 0.2674418604651265,
          "durationTicks": 23,
          "midi": 38,
          "name": "D2",
          "ticks": 8145,
          "time": 94.70930232558139,
          "velocity": 0.2992125984251969
        },
        {
          "duration": 0.48837209302324425,
          "durationTicks": 42,
          "midi": 69,
          "name": "A4",
          "ticks": 8168,
          "time": 94.97674418604652,
          "velocity": 0.23622047244094488
        },
        {
          "duration": 0.2093023255813904,
          "durationTicks": 18,
          "midi": 72,
          "name": "C5",
          "ticks": 8169,
          "time": 94.98837209302326,
          "velocity": 0.08661417322834646
        },
        {
          "duration": 0.04651162790698038,
          "durationTicks": 4,
          "midi": 91,
          "name": "G6",
          "ticks": 8169,
          "time": 94.98837209302326,
          "velocity": 0.07086614173228346
        },
        {
          "duration": 0.11627906976744384,
          "durationTicks": 10,
          "midi": 93,
          "name": "A6",
          "ticks": 8169,
          "time": 94.98837209302326,
          "velocity": 0.14960629921259844
        },
        {
          "duration": 0.2093023255813904,
          "durationTicks": 18,
          "midi": 50,
          "name": "D3",
          "ticks": 8170,
          "time": 95,
          "velocity": 0.44881889763779526
        },
        {
          "duration": 0.19767441860464885,
          "durationTicks": 17,
          "midi": 57,
          "name": "A3",
          "ticks": 8170,
          "time": 95,
          "velocity": 0.2677165354330709
        },
        {
          "duration": 0.03488372093023884,
          "durationTicks": 3,
          "midi": 82,
          "name": "A#5",
          "ticks": 8170,
          "time": 95,
          "velocity": 0.07086614173228346
        },
        {
          "duration": 0.023255813953497295,
          "durationTicks": 2,
          "midi": 39,
          "name": "D#2",
          "ticks": 8171,
          "time": 95.01162790697674,
          "velocity": 0.4409448818897638
        },
        {
          "duration": 0.10465116279068809,
          "durationTicks": 9,
          "midi": 38,
          "name": "D2",
          "ticks": 8173,
          "time": 95.03488372093024,
          "velocity": 0.4330708661417323
        },
        {
          "duration": 0.04651162790698038,
          "durationTicks": 4,
          "midi": 38,
          "name": "D2",
          "ticks": 8183,
          "time": 95.15116279069767,
          "velocity": 0.2755905511811024
        },
        {
          "duration": 0.023255813953497295,
          "durationTicks": 2,
          "midi": 56,
          "name": "G#3",
          "ticks": 8187,
          "time": 95.19767441860465,
          "velocity": 0.25196850393700787
        },
        {
          "duration": 0.2093023255814046,
          "durationTicks": 18,
          "midi": 76,
          "name": "E5",
          "ticks": 8187,
          "time": 95.19767441860465,
          "velocity": 0.11811023622047244
        },
        {
          "duration": 0.2325581395348877,
          "durationTicks": 20,
          "midi": 62,
          "name": "D4",
          "ticks": 8188,
          "time": 95.20930232558139,
          "velocity": 0.2283464566929134
        },
        {
          "duration": 0.08139534883721922,
          "durationTicks": 7,
          "midi": 93,
          "name": "A6",
          "ticks": 8188,
          "time": 95.20930232558139,
          "velocity": 0.12598425196850394
        },
        {
          "duration": 0.22093023255813193,
          "durationTicks": 19,
          "midi": 50,
          "name": "D3",
          "ticks": 8189,
          "time": 95.22093023255815,
          "velocity": 0.44881889763779526
        },
        {
          "duration": 0.22093023255813193,
          "durationTicks": 19,
          "midi": 57,
          "name": "A3",
          "ticks": 8189,
          "time": 95.22093023255815,
          "velocity": 0.25196850393700787
        },
        {
          "duration": 0.22093023255813193,
          "durationTicks": 19,
          "midi": 72,
          "name": "C5",
          "ticks": 8189,
          "time": 95.22093023255815,
          "velocity": 0.11023622047244094
        },
        {
          "duration": 0.034883720930224626,
          "durationTicks": 3,
          "midi": 39,
          "name": "D#2",
          "ticks": 8190,
          "time": 95.23255813953489,
          "velocity": 0.4330708661417323
        },
        {
          "duration": 0.09302325581396076,
          "durationTicks": 8,
          "midi": 38,
          "name": "D2",
          "ticks": 8193,
          "time": 95.26744186046511,
          "velocity": 0.4330708661417323
        },
        {
          "duration": 0.081395348837205,
          "durationTicks": 7,
          "midi": 38,
          "name": "D2",
          "ticks": 8202,
          "time": 95.37209302325581,
          "velocity": 0.3543307086614173
        },
        {
          "duration": 0.12790697674418539,
          "durationTicks": 11,
          "midi": 87,
          "name": "D#6",
          "ticks": 8207,
          "time": 95.43023255813954,
          "velocity": 0.28346456692913385
        },
        {
          "duration": 0.2325581395348877,
          "durationTicks": 20,
          "midi": 88,
          "name": "E6",
          "ticks": 8207,
          "time": 95.43023255813954,
          "velocity": 0.5196850393700787
        },
        {
          "duration": 0.04651162790698038,
          "durationTicks": 4,
          "midi": 93,
          "name": "A6",
          "ticks": 8208,
          "time": 95.44186046511628,
          "velocity": 0.13385826771653545
        },
        {
          "duration": 0.15116279069766847,
          "durationTicks": 13,
          "midi": 95,
          "name": "B6",
          "ticks": 8208,
          "time": 95.44186046511628,
          "velocity": 0.28346456692913385
        },
        {
          "duration": 0.6627906976744242,
          "durationTicks": 57,
          "midi": 64,
          "name": "E4",
          "ticks": 8209,
          "time": 95.45348837209302,
          "velocity": 0.30708661417322836
        },
        {
          "duration": 0.8953488372093119,
          "durationTicks": 77,
          "midi": 76,
          "name": "E5",
          "ticks": 8209,
          "time": 95.45348837209302,
          "velocity": 0.4645669291338583
        },
        {
          "duration": 0.04651162790698038,
          "durationTicks": 4,
          "midi": 84,
          "name": "C6",
          "ticks": 8209,
          "time": 95.45348837209302,
          "velocity": 0.2204724409448819
        },
        {
          "duration": 0.023255813953497295,
          "durationTicks": 2,
          "midi": 41,
          "name": "F2",
          "ticks": 8210,
          "time": 95.46511627906976,
          "velocity": 0.4251968503937008
        },
        {
          "duration": 0.023255813953497295,
          "durationTicks": 2,
          "midi": 52,
          "name": "E3",
          "ticks": 8210,
          "time": 95.46511627906976,
          "velocity": 0.4330708661417323
        },
        {
          "duration": 0.43023255813953654,
          "durationTicks": 37,
          "midi": 59,
          "name": "B3",
          "ticks": 8210,
          "time": 95.46511627906976,
          "velocity": 0.31496062992125984
        },
        {
          "duration": 0.918604651162795,
          "durationTicks": 79,
          "midi": 68,
          "name": "G#4",
          "ticks": 8210,
          "time": 95.46511627906976,
          "velocity": 0.2204724409448819
        },
        {
          "duration": 0.13953488372092693,
          "durationTicks": 12,
          "midi": 82,
          "name": "A#5",
          "ticks": 8211,
          "time": 95.47674418604652,
          "velocity": 0.11023622047244094
        },
        {
          "duration": 0.023255813953483084,
          "durationTicks": 2,
          "midi": 41,
          "name": "F2",
          "ticks": 8213,
          "time": 95.5,
          "velocity": 0.4566929133858268
        },
        {
          "duration": 0.3953488372092977,
          "durationTicks": 34,
          "midi": 52,
          "name": "E3",
          "ticks": 8213,
          "time": 95.5,
          "velocity": 0.3937007874015748
        },
        {
          "duration": 0.2325581395348877,
          "durationTicks": 20,
          "midi": 74,
          "name": "D5",
          "ticks": 8214,
          "time": 95.51162790697674,
          "velocity": 0.12598425196850394
        },
        {
          "duration": 0.081395348837205,
          "durationTicks": 7,
          "midi": 78,
          "name": "F#5",
          "ticks": 8214,
          "time": 95.51162790697674,
          "velocity": 0.07874015748031496
        },
        {
          "duration": 0.06976744186046346,
          "durationTicks": 6,
          "midi": 40,
          "name": "E2",
          "ticks": 8215,
          "time": 95.52325581395348,
          "velocity": 0.4330708661417323
        },
        {
          "duration": 0.2906976744185954,
          "durationTicks": 25,
          "midi": 40,
          "name": "E2",
          "ticks": 8222,
          "time": 95.6046511627907,
          "velocity": 0.30708661417322836
        },
        {
          "duration": 0.2093023255813904,
          "durationTicks": 18,
          "midi": 59,
          "name": "B3",
          "ticks": 8248,
          "time": 95.90697674418605,
          "velocity": 0.29133858267716534
        },
        {
          "duration": 0.46511627906976116,
          "durationTicks": 40,
          "midi": 74,
          "name": "D5",
          "ticks": 8248,
          "time": 95.90697674418605,
          "velocity": 0.18110236220472442
        },
        {
          "duration": 0.13953488372092693,
          "durationTicks": 12,
          "midi": 78,
          "name": "F#5",
          "ticks": 8248,
          "time": 95.90697674418605,
          "velocity": 0.08661417322834646
        },
        {
          "duration": 0.05813953488370771,
          "durationTicks": 5,
          "midi": 92,
          "name": "G#6",
          "ticks": 8248,
          "time": 95.90697674418605,
          "velocity": 0.10236220472440945
        },
        {
          "duration": 0.034883720930224626,
          "durationTicks": 3,
          "midi": 41,
          "name": "F2",
          "ticks": 8249,
          "time": 95.9186046511628,
          "velocity": 0.4566929133858268
        },
        {
          "duration": 0.2093023255813904,
          "durationTicks": 18,
          "midi": 52,
          "name": "E3",
          "ticks": 8249,
          "time": 95.9186046511628,
          "velocity": 0.4251968503937008
        },
        {
          "duration": 0.09302325581394655,
          "durationTicks": 8,
          "midi": 87,
          "name": "D#6",
          "ticks": 8249,
          "time": 95.9186046511628,
          "velocity": 0.07086614173228346
        },
        {
          "duration": 0.09302325581394655,
          "durationTicks": 8,
          "midi": 95,
          "name": "B6",
          "ticks": 8249,
          "time": 95.9186046511628,
          "velocity": 0.15748031496062992
        },
        {
          "duration": 0.11627906976744384,
          "durationTicks": 10,
          "midi": 82,
          "name": "A#5",
          "ticks": 8251,
          "time": 95.94186046511628,
          "velocity": 0.07086614173228346
        },
        {
          "duration": 0.08139534883721922,
          "durationTicks": 7,
          "midi": 40,
          "name": "E2",
          "ticks": 8252,
          "time": 95.95348837209302,
          "velocity": 0.4566929133858268
        },
        {
          "duration": 0.023255813953483084,
          "durationTicks": 2,
          "midi": 39,
          "name": "D#2",
          "ticks": 8259,
          "time": 96.03488372093024,
          "velocity": 0.2755905511811024
        },
        {
          "duration": 0.05813953488372192,
          "durationTicks": 5,
          "midi": 40,
          "name": "E2",
          "ticks": 8261,
          "time": 96.05813953488372,
          "velocity": 0.30708661417322836
        },
        {
          "duration": 0.023255813953483084,
          "durationTicks": 2,
          "midi": 38,
          "name": "D2",
          "ticks": 8266,
          "time": 96.11627906976744,
          "velocity": 0.36220472440944884
        },
        {
          "duration": 0.023255813953483084,
          "durationTicks": 2,
          "midi": 58,
          "name": "A#3",
          "ticks": 8266,
          "time": 96.11627906976744,
          "velocity": 0.28346456692913385
        },
        {
          "duration": 0.05813953488372192,
          "durationTicks": 5,
          "midi": 92,
          "name": "G#6",
          "ticks": 8267,
          "time": 96.12790697674419,
          "velocity": 0.09448818897637795
        },
        {
          "duration": 0.03488372093023884,
          "durationTicks": 3,
          "midi": 41,
          "name": "F2",
          "ticks": 8268,
          "time": 96.13953488372093,
          "velocity": 0.4645669291338583
        },
        {
          "duration": 0.24418604651162923,
          "durationTicks": 21,
          "midi": 52,
          "name": "E3",
          "ticks": 8268,
          "time": 96.13953488372093,
          "velocity": 0.4881889763779528
        },
        {
          "duration": 0.2325581395348877,
          "durationTicks": 20,
          "midi": 59,
          "name": "B3",
          "ticks": 8268,
          "time": 96.13953488372093,
          "velocity": 0.3543307086614173
        },
        {
          "duration": 0.06976744186047767,
          "durationTicks": 6,
          "midi": 95,
          "name": "B6",
          "ticks": 8269,
          "time": 96.15116279069767,
          "velocity": 0.10236220472440945
        },
        {
          "duration": 0.081395348837205,
          "durationTicks": 7,
          "midi": 40,
          "name": "E2",
          "ticks": 8271,
          "time": 96.17441860465117,
          "velocity": 0.4645669291338583
        },
        {
          "duration": 0.023255813953483084,
          "durationTicks": 2,
          "midi": 39,
          "name": "D#2",
          "ticks": 8278,
          "time": 96.25581395348837,
          "velocity": 0.29133858267716534
        },
        {
          "duration": 0.06976744186047767,
          "durationTicks": 6,
          "midi": 40,
          "name": "E2",
          "ticks": 8280,
          "time": 96.27906976744185,
          "velocity": 0.31496062992125984
        },
        {
          "duration": 0.22093023255814614,
          "durationTicks": 19,
          "midi": 89,
          "name": "F6",
          "ticks": 8285,
          "time": 96.33720930232558,
          "velocity": 0.5275590551181102
        },
        {
          "duration": 0.06976744186046346,
          "durationTicks": 6,
          "midi": 85,
          "name": "C#6",
          "ticks": 8286,
          "time": 96.34883720930233,
          "velocity": 0.2125984251968504
        },
        {
          "duration": 0.04651162790696617,
          "durationTicks": 4,
          "midi": 94,
          "name": "A#6",
          "ticks": 8286,
          "time": 96.34883720930233,
          "velocity": 0.13385826771653545
        },
        {
          "duration": 0.13953488372092693,
          "durationTicks": 12,
          "midi": 96,
          "name": "C7",
          "ticks": 8286,
          "time": 96.34883720930233,
          "velocity": 0.29133858267716534
        },
        {
          "duration": 0.9883720930232585,
          "durationTicks": 85,
          "midi": 65,
          "name": "F4",
          "ticks": 8287,
          "time": 96.36046511627907,
          "velocity": 0.3228346456692913
        },
        {
          "duration": 0.3720930232558146,
          "durationTicks": 32,
          "midi": 72,
          "name": "C5",
          "ticks": 8287,
          "time": 96.36046511627907,
          "velocity": 0.15748031496062992
        },
        {
          "duration": 0.9302325581395365,
          "durationTicks": 80,
          "midi": 77,
          "name": "F5",
          "ticks": 8287,
          "time": 96.36046511627907,
          "velocity": 0.4566929133858268
        },
        {
          "duration": 0.023255813953483084,
          "durationTicks": 2,
          "midi": 90,
          "name": "F#6",
          "ticks": 8287,
          "time": 96.36046511627907,
          "velocity": 0.2440944881889764
        },
        {
          "duration": 0.023255813953483084,
          "durationTicks": 2,
          "midi": 41,
          "name": "F2",
          "ticks": 8288,
          "time": 96.37209302325581,
          "velocity": 0.48031496062992124
        },
        {
          "duration": 0.4418604651162781,
          "durationTicks": 38,
          "midi": 60,
          "name": "C4",
          "ticks": 8288,
          "time": 96.37209302325581,
          "velocity": 0.3464566929133858
        },
        {
          "duration": 0.43023255813953654,
          "durationTicks": 37,
          "midi": 69,
          "name": "A4",
          "ticks": 8289,
          "time": 96.38372093023256,
          "velocity": 0.2125984251968504
        },
        {
          "duration": 0.023255813953497295,
          "durationTicks": 2,
          "midi": 42,
          "name": "F#2",
          "ticks": 8290,
          "time": 96.3953488372093,
          "velocity": 0.48031496062992124
        },
        {
          "duration": 0.11627906976744384,
          "durationTicks": 10,
          "midi": 83,
          "name": "B5",
          "ticks": 8290,
          "time": 96.3953488372093,
          "velocity": 0.10236220472440945
        },
        {
          "duration": 0.034883720930224626,
          "durationTicks": 3,
          "midi": 41,
          "name": "F2",
          "ticks": 8292,
          "time": 96.4186046511628,
          "velocity": 0.4330708661417323
        },
        {
          "duration": 0.23255813953487348,
          "durationTicks": 20,
          "midi": 75,
          "name": "D#5",
          "ticks": 8292,
          "time": 96.4186046511628,
          "velocity": 0.11023622047244094
        },
        {
          "duration": 0.023255813953497295,
          "durationTicks": 2,
          "midi": 41,
          "name": "F2",
          "ticks": 8296,
          "time": 96.46511627906976,
          "velocity": 0.2677165354330709
        },
        {
          "duration": 0.023255813953483084,
          "durationTicks": 2,
          "midi": 40,
          "name": "E2",
          "ticks": 8298,
          "time": 96.48837209302326,
          "velocity": 0.25984251968503935
        },
        {
          "duration": 0.30232558139535115,
          "durationTicks": 26,
          "midi": 41,
          "name": "F2",
          "ticks": 8300,
          "time": 96.51162790697674,
          "velocity": 0.31496062992125984
        },
        {
          "duration": 0.2325581395348877,
          "durationTicks": 20,
          "midi": 72,
          "name": "C5",
          "ticks": 8326,
          "time": 96.81395348837209,
          "velocity": 0.2204724409448819
        },
        {
          "duration": 0.4534883720930196,
          "durationTicks": 39,
          "midi": 75,
          "name": "D#5",
          "ticks": 8326,
          "time": 96.81395348837209,
          "velocity": 0.16535433070866143
        },
        {
          "duration": 0.16279069767442422,
          "durationTicks": 14,
          "midi": 83,
          "name": "B5",
          "ticks": 8326,
          "time": 96.81395348837209,
          "velocity": 0.13385826771653545
        },
        {
          "duration": 0.22093023255814614,
          "durationTicks": 19,
          "midi": 53,
          "name": "F3",
          "ticks": 8327,
          "time": 96.82558139534883,
          "velocity": 0.4566929133858268
        },
        {
          "duration": 0.22093023255814614,
          "durationTicks": 19,
          "midi": 60,
          "name": "C4",
          "ticks": 8327,
          "time": 96.82558139534883,
          "velocity": 0.2992125984251969
        },
        {
          "duration": 0.4418604651162781,
          "durationTicks": 38,
          "midi": 69,
          "name": "A4",
          "ticks": 8328,
          "time": 96.83720930232558,
          "velocity": 0.2440944881889764
        },
        {
          "duration": 0.11627906976744384,
          "durationTicks": 10,
          "midi": 79,
          "name": "G5",
          "ticks": 8328,
          "time": 96.83720930232558,
          "velocity": 0.07874015748031496
        },
        {
          "duration": 0.08139534883721922,
          "durationTicks": 7,
          "midi": 96,
          "name": "C7",
          "ticks": 8328,
          "time": 96.83720930232558,
          "velocity": 0.14960629921259844
        },
        {
          "duration": 0.023255813953483084,
          "durationTicks": 2,
          "midi": 42,
          "name": "F#2",
          "ticks": 8329,
          "time": 96.84883720930233,
          "velocity": 0.41732283464566927
        },
        {
          "duration": 0.06976744186046346,
          "durationTicks": 6,
          "midi": 41,
          "name": "F2",
          "ticks": 8331,
          "time": 96.87209302325581,
          "velocity": 0.4251968503937008
        },
        {
          "duration": 0.023255813953483084,
          "durationTicks": 2,
          "midi": 40,
          "name": "E2",
          "ticks": 8337,
          "time": 96.94186046511628,
          "velocity": 0.2677165354330709
        },
        {
          "duration": 0.08139534883721922,
          "durationTicks": 7,
          "midi": 41,
          "name": "F2",
          "ticks": 8339,
          "time": 96.96511627906976,
          "velocity": 0.2992125984251969
        },
        {
          "duration": 0.2325581395348877,
          "durationTicks": 20,
          "midi": 60,
          "name": "C4",
          "ticks": 8347,
          "time": 97.05813953488372,
          "velocity": 0.31496062992125984
        },
        {
          "duration": 0.06976744186046346,
          "durationTicks": 6,
          "midi": 96,
          "name": "C7",
          "ticks": 8347,
          "time": 97.05813953488372,
          "velocity": 0.11023622047244094
        },
        {
          "duration": 0.03488372093023884,
          "durationTicks": 3,
          "midi": 42,
          "name": "F#2",
          "ticks": 8348,
          "time": 97.06976744186046,
          "velocity": 0.44881889763779526
        },
        {
          "duration": 0.19767441860464885,
          "durationTicks": 17,
          "midi": 53,
          "name": "F3",
          "ticks": 8349,
          "time": 97.0813953488372,
          "velocity": 0.3937007874015748
        },
        {
          "duration": 0.081395348837205,
          "durationTicks": 7,
          "midi": 41,
          "name": "F2",
          "ticks": 8351,
          "time": 97.1046511627907,
          "velocity": 0.44881889763779526
        },
        {
          "duration": 0.081395348837205,
          "durationTicks": 7,
          "midi": 41,
          "name": "F2",
          "ticks": 8359,
          "time": 97.19767441860465,
          "velocity": 0.3858267716535433
        },
        {
          "duration": 0.38372093023255616,
          "durationTicks": 33,
          "midi": 79,
          "name": "G5",
          "ticks": 8364,
          "time": 97.25581395348837,
          "velocity": 0.4566929133858268
        },
        {
          "duration": 0.4651162790697754,
          "durationTicks": 40,
          "midi": 74,
          "name": "D5",
          "ticks": 8365,
          "time": 97.26744186046511,
          "velocity": 0.30708661417322836
        },
        {
          "duration": 0.03488372093023884,
          "durationTicks": 3,
          "midi": 84,
          "name": "C6",
          "ticks": 8365,
          "time": 97.26744186046511,
          "velocity": 0.2440944881889764
        },
        {
          "duration": 0.15116279069768268,
          "durationTicks": 13,
          "midi": 90,
          "name": "F#6",
          "ticks": 8365,
          "time": 97.26744186046511,
          "velocity": 0.14960629921259844
        },
        {
          "duration": 0.11627906976744384,
          "durationTicks": 10,
          "midi": 98,
          "name": "D7",
          "ticks": 8365,
          "time": 97.26744186046511,
          "velocity": 0.2677165354330709
        },
        {
          "duration": 0.1860465116279073,
          "durationTicks": 16,
          "midi": 81,
          "name": "A5",
          "ticks": 8366,
          "time": 97.27906976744185,
          "velocity": 0.2204724409448819
        },
        {
          "duration": 0.2093023255814046,
          "durationTicks": 18,
          "midi": 83,
          "name": "B5",
          "ticks": 8366,
          "time": 97.27906976744185,
          "velocity": 0.2204724409448819
        },
        {
          "duration": 0.2093023255813904,
          "durationTicks": 18,
          "midi": 62,
          "name": "D4",
          "ticks": 8367,
          "time": 97.29069767441861,
          "velocity": 0.25984251968503935
        },
        {
          "duration": 0.2093023255813904,
          "durationTicks": 18,
          "midi": 67,
          "name": "G4",
          "ticks": 8367,
          "time": 97.29069767441861,
          "velocity": 0.2047244094488189
        },
        {
          "duration": 0.2093023255813904,
          "durationTicks": 18,
          "midi": 71,
          "name": "B4",
          "ticks": 8367,
          "time": 97.29069767441861,
          "velocity": 0.14173228346456693
        },
        {
          "duration": 0.034883720930224626,
          "durationTicks": 3,
          "midi": 43,
          "name": "G2",
          "ticks": 8368,
          "time": 97.30232558139535,
          "velocity": 0.41732283464566927
        },
        {
          "duration": 0.3953488372092977,
          "durationTicks": 34,
          "midi": 85,
          "name": "C#6",
          "ticks": 8368,
          "time": 97.30232558139535,
          "velocity": 0.2440944881889764
        },
        {
          "duration": 0.1860465116279073,
          "durationTicks": 16,
          "midi": 55,
          "name": "G3",
          "ticks": 8369,
          "time": 97.31395348837209,
          "velocity": 0.4409448818897638
        },
        {
          "duration": 0.15116279069766847,
          "durationTicks": 13,
          "midi": 43,
          "name": "G2",
          "ticks": 8372,
          "time": 97.34883720930233,
          "velocity": 0.3858267716535433
        },
        {
          "duration": 0.023255813953483084,
          "durationTicks": 2,
          "midi": 42,
          "name": "F#2",
          "ticks": 8385,
          "time": 97.5,
          "velocity": 0.28346456692913385
        },
        {
          "duration": 0.3604651162790731,
          "durationTicks": 31,
          "midi": 69,
          "name": "A4",
          "ticks": 8385,
          "time": 97.5,
          "velocity": 0.5984251968503937
        },
        {
          "duration": 0.13953488372092693,
          "durationTicks": 12,
          "midi": 57,
          "name": "A3",
          "ticks": 8386,
          "time": 97.51162790697674,
          "velocity": 0.4015748031496063
        },
        {
          "duration": 0.03488372093023884,
          "durationTicks": 3,
          "midi": 76,
          "name": "E5",
          "ticks": 8386,
          "time": 97.51162790697674,
          "velocity": 0.15748031496062992
        },
        {
          "duration": 0.4767441860465169,
          "durationTicks": 41,
          "midi": 88,
          "name": "E6",
          "ticks": 8386,
          "time": 97.51162790697674,
          "velocity": 0.23622047244094488
        },
        {
          "duration": 0.1860465116279073,
          "durationTicks": 16,
          "midi": 95,
          "name": "B6",
          "ticks": 8386,
          "time": 97.51162790697674,
          "velocity": 0.13385826771653545
        },
        {
          "duration": 0.19767441860464885,
          "durationTicks": 17,
          "midi": 62,
          "name": "D4",
          "ticks": 8388,
          "time": 97.53488372093024,
          "velocity": 0.18110236220472442
        },
        {
          "duration": 0.16279069767441,
          "durationTicks": 14,
          "midi": 89,
          "name": "F6",
          "ticks": 8388,
          "time": 97.53488372093024,
          "velocity": 0.07874015748031496
        },
        {
          "duration": 0.034883720930224626,
          "durationTicks": 3,
          "midi": 42,
          "name": "F#2",
          "ticks": 8389,
          "time": 97.54651162790698,
          "velocity": 0.3543307086614173
        },
        {
          "duration": 0.1860465116279073,
          "durationTicks": 16,
          "midi": 43,
          "name": "G2",
          "ticks": 8392,
          "time": 97.5813953488372,
          "velocity": 0.30708661417322836
        },
        {
          "duration": 0.023255813953483084,
          "durationTicks": 2,
          "midi": 57,
          "name": "A3",
          "ticks": 8401,
          "time": 97.68604651162791,
          "velocity": 0.23622047244094488
        },
        {
          "duration": 0.023255813953497295,
          "durationTicks": 2,
          "midi": 56,
          "name": "G#3",
          "ticks": 8403,
          "time": 97.70930232558139,
          "velocity": 0.2677165354330709
        },
        {
          "duration": 0.03488372093023884,
          "durationTicks": 3,
          "midi": 85,
          "name": "C#6",
          "ticks": 8403,
          "time": 97.70930232558139,
          "velocity": 0.14960629921259844
        },
        {
          "duration": 0.22093023255813193,
          "durationTicks": 19,
          "midi": 60,
          "name": "C4",
          "ticks": 8405,
          "time": 97.73255813953489,
          "velocity": 0.5118110236220472
        },
        {
          "duration": 0.034883720930224626,
          "durationTicks": 3,
          "midi": 76,
          "name": "E5",
          "ticks": 8405,
          "time": 97.73255813953489,
          "velocity": 0.11811023622047244
        },
        {
          "duration": 0.27906976744185386,
          "durationTicks": 24,
          "midi": 79,
          "name": "G5",
          "ticks": 8405,
          "time": 97.73255813953489,
          "velocity": 0.23622047244094488
        },
        {
          "duration": 0.15116279069766847,
          "durationTicks": 13,
          "midi": 96,
          "name": "C7",
          "ticks": 8405,
          "time": 97.73255813953489,
          "velocity": 0.2992125984251969
        },
        {
          "duration": 0.1860465116279073,
          "durationTicks": 16,
          "midi": 100,
          "name": "E7",
          "ticks": 8405,
          "time": 97.73255813953489,
          "velocity": 0.33070866141732286
        },
        {
          "duration": 0.081395348837205,
          "durationTicks": 7,
          "midi": 94,
          "name": "A#6",
          "ticks": 8406,
          "time": 97.74418604651163,
          "velocity": 0.09448818897637795
        },
        {
          "duration": 0.24418604651162923,
          "durationTicks": 21,
          "midi": 62,
          "name": "D4",
          "ticks": 8424,
          "time": 97.95348837209302,
          "velocity": 0.5118110236220472
        },
        {
          "duration": 0.03488372093023884,
          "durationTicks": 3,
          "midi": 66,
          "name": "F#4",
          "ticks": 8424,
          "time": 97.95348837209302,
          "velocity": 0.1889763779527559
        },
        {
          "duration": 0.6046511627907023,
          "durationTicks": 52,
          "midi": 81,
          "name": "A5",
          "ticks": 8424,
          "time": 97.95348837209302,
          "velocity": 0.31496062992125984
        },
        {
          "duration": 0.16279069767442422,
          "durationTicks": 14,
          "midi": 102,
          "name": "F#7",
          "ticks": 8424,
          "time": 97.95348837209302,
          "velocity": 0.31496062992125984
        },
        {
          "duration": 0.2906976744186096,
          "durationTicks": 25,
          "midi": 90,
          "name": "F#6",
          "ticks": 8425,
          "time": 97.96511627906976,
          "velocity": 0.15748031496062992
        },
        {
          "duration": 0.16279069767442422,
          "durationTicks": 14,
          "midi": 102,
          "name": "F#7",
          "ticks": 8444,
          "time": 98.18604651162791,
          "velocity": 0.3228346456692913
        },
        {
          "duration": 0.4418604651162781,
          "durationTicks": 38,
          "midi": 57,
          "name": "A3",
          "ticks": 8445,
          "time": 98.19767441860465,
          "velocity": 0.31496062992125984
        },
        {
          "duration": 0.43023255813953654,
          "durationTicks": 37,
          "midi": 50,
          "name": "D3",
          "ticks": 8446,
          "time": 98.20930232558139,
          "velocity": 0.4409448818897638
        },
        {
          "duration": 1.360465116279073,
          "durationTicks": 117,
          "midi": 62,
          "name": "D4",
          "ticks": 8446,
          "time": 98.20930232558139,
          "velocity": 0.5275590551181102
        },
        {
          "duration": 0.034883720930224626,
          "durationTicks": 3,
          "midi": 39,
          "name": "D#2",
          "ticks": 8447,
          "time": 98.22093023255815,
          "velocity": 0.4330708661417323
        },
        {
          "duration": 1.3488372093023173,
          "durationTicks": 116,
          "midi": 66,
          "name": "F#4",
          "ticks": 8447,
          "time": 98.22093023255815,
          "velocity": 0.2677165354330709
        },
        {
          "duration": 0.3139534883720927,
          "durationTicks": 27,
          "midi": 72,
          "name": "C5",
          "ticks": 8447,
          "time": 98.22093023255815,
          "velocity": 0.12598425196850394
        },
        {
          "duration": 0.13953488372092693,
          "durationTicks": 12,
          "midi": 80,
          "name": "G#5",
          "ticks": 8447,
          "time": 98.22093023255815,
          "velocity": 0.09448818897637795
        },
        {
          "duration": 0.1046511627907023,
          "durationTicks": 9,
          "midi": 76,
          "name": "E5",
          "ticks": 8451,
          "time": 98.26744186046511,
          "velocity": 0.07086614173228346
        },
        {
          "duration": 0.06976744186047767,
          "durationTicks": 6,
          "midi": 38,
          "name": "D2",
          "ticks": 8452,
          "time": 98.27906976744185,
          "velocity": 0.3779527559055118
        },
        {
          "duration": 0.17441860465116577,
          "durationTicks": 15,
          "midi": 90,
          "name": "F#6",
          "ticks": 8452,
          "time": 98.27906976744185,
          "velocity": 0.11811023622047244
        },
        {
          "duration": 0.023255813953483084,
          "durationTicks": 2,
          "midi": 37,
          "name": "C#2",
          "ticks": 8458,
          "time": 98.34883720930233,
          "velocity": 0.2677165354330709
        },
        {
          "duration": 0.2674418604651123,
          "durationTicks": 23,
          "midi": 38,
          "name": "D2",
          "ticks": 8460,
          "time": 98.37209302325581,
          "velocity": 0.28346456692913385
        },
        {
          "duration": 0.418604651162795,
          "durationTicks": 36,
          "midi": 69,
          "name": "A4",
          "ticks": 8483,
          "time": 98.63953488372093,
          "velocity": 0.2047244094488189
        },
        {
          "duration": 0.04651162790698038,
          "durationTicks": 4,
          "midi": 82,
          "name": "A#5",
          "ticks": 8484,
          "time": 98.65116279069767,
          "velocity": 0.07086614173228346
        },
        {
          "duration": 0.15116279069768268,
          "durationTicks": 13,
          "midi": 93,
          "name": "A6",
          "ticks": 8484,
          "time": 98.65116279069767,
          "velocity": 0.12598425196850394
        },
        {
          "duration": 0.4534883720930196,
          "durationTicks": 39,
          "midi": 50,
          "name": "D3",
          "ticks": 8485,
          "time": 98.66279069767442,
          "velocity": 0.44881889763779526
        },
        {
          "duration": 0.9069767441860392,
          "durationTicks": 78,
          "midi": 57,
          "name": "A3",
          "ticks": 8485,
          "time": 98.66279069767442,
          "velocity": 0.3858267716535433
        },
        {
          "duration": 0.4186046511627808,
          "durationTicks": 36,
          "midi": 72,
          "name": "C5",
          "ticks": 8485,
          "time": 98.66279069767442,
          "velocity": 0.08661417322834646
        },
        {
          "duration": 0.023255813953483084,
          "durationTicks": 2,
          "midi": 39,
          "name": "D#2",
          "ticks": 8486,
          "time": 98.67441860465117,
          "velocity": 0.4409448818897638
        },
        {
          "duration": 0.1046511627907023,
          "durationTicks": 9,
          "midi": 38,
          "name": "D2",
          "ticks": 8488,
          "time": 98.69767441860465,
          "velocity": 0.4330708661417323
        },
        {
          "duration": 0.27906976744185386,
          "durationTicks": 24,
          "midi": 38,
          "name": "D2",
          "ticks": 8498,
          "time": 98.81395348837209,
          "velocity": 0.29133858267716534
        },
        {
          "duration": 0.1860465116279073,
          "durationTicks": 16,
          "midi": 80,
          "name": "G#5",
          "ticks": 8523,
          "time": 99.1046511627907,
          "velocity": 0.14173228346456693
        },
        {
          "duration": 0.023255813953483084,
          "durationTicks": 2,
          "midi": 40,
          "name": "E2",
          "ticks": 8524,
          "time": 99.11627906976744,
          "velocity": 0.4409448818897638
        },
        {
          "duration": 0.2093023255813904,
          "durationTicks": 18,
          "midi": 72,
          "name": "C5",
          "ticks": 8524,
          "time": 99.11627906976744,
          "velocity": 0.07874015748031496
        },
        {
          "duration": 0.1860465116279073,
          "durationTicks": 16,
          "midi": 76,
          "name": "E5",
          "ticks": 8524,
          "time": 99.11627906976744,
          "velocity": 0.11023622047244094
        },
        {
          "duration": 0.4418604651162781,
          "durationTicks": 38,
          "midi": 50,
          "name": "D3",
          "ticks": 8525,
          "time": 99.12790697674419,
          "velocity": 0.49606299212598426
        },
        {
          "duration": 0.023255813953497295,
          "durationTicks": 2,
          "midi": 39,
          "name": "D#2",
          "ticks": 8526,
          "time": 99.13953488372093,
          "velocity": 0.4566929133858268
        },
        {
          "duration": 0.10465116279068809,
          "durationTicks": 9,
          "midi": 38,
          "name": "D2",
          "ticks": 8528,
          "time": 99.16279069767442,
          "velocity": 0.4330708661417323
        },
        {
          "duration": 0.05813953488372192,
          "durationTicks": 5,
          "midi": 38,
          "name": "D2",
          "ticks": 8538,
          "time": 99.27906976744185,
          "velocity": 0.28346456692913385
        },
        {
          "duration": 0.19767441860466306,
          "durationTicks": 17,
          "midi": 80,
          "name": "G#5",
          "ticks": 8543,
          "time": 99.33720930232558,
          "velocity": 0.14960629921259844
        },
        {
          "duration": 0.023255813953483084,
          "durationTicks": 2,
          "midi": 40,
          "name": "E2",
          "ticks": 8544,
          "time": 99.34883720930233,
          "velocity": 0.44881889763779526
        },
        {
          "duration": 0.09302325581394655,
          "durationTicks": 8,
          "midi": 90,
          "name": "F#6",
          "ticks": 8544,
          "time": 99.34883720930233,
          "velocity": 0.10236220472440945
        },
        {
          "duration": 0.4534883720930196,
          "durationTicks": 39,
          "midi": 72,
          "name": "C5",
          "ticks": 8545,
          "time": 99.36046511627907,
          "velocity": 0.1968503937007874
        },
        {
          "duration": 0.023255813953483084,
          "durationTicks": 2,
          "midi": 39,
          "name": "D#2",
          "ticks": 8546,
          "time": 99.37209302325581,
          "velocity": 0.4645669291338583
        },
        {
          "duration": 0.1046511627907023,
          "durationTicks": 9,
          "midi": 38,
          "name": "D2",
          "ticks": 8548,
          "time": 99.3953488372093,
          "velocity": 0.4409448818897638
        },
        {
          "duration": 0.05813953488372192,
          "durationTicks": 5,
          "midi": 38,
          "name": "D2",
          "ticks": 8558,
          "time": 99.51162790697674,
          "velocity": 0.30708661417322836
        },
        {
          "duration": 0.2325581395348877,
          "durationTicks": 20,
          "midi": 60,
          "name": "C4",
          "ticks": 8563,
          "time": 99.56976744186046,
          "velocity": 0.30708661417322836
        },
        {
          "duration": 0.06976744186046346,
          "durationTicks": 6,
          "midi": 77,
          "name": "F5",
          "ticks": 8563,
          "time": 99.56976744186046,
          "velocity": 0.4251968503937008
        },
        {
          "duration": 0.25581395348837077,
          "durationTicks": 22,
          "midi": 83,
          "name": "B5",
          "ticks": 8563,
          "time": 99.56976744186046,
          "velocity": 0.25196850393700787
        },
        {
          "duration": 0.2093023255813904,
          "durationTicks": 18,
          "midi": 84,
          "name": "C6",
          "ticks": 8563,
          "time": 99.56976744186046,
          "velocity": 0.2677165354330709
        },
        {
          "duration": 0.13953488372092693,
          "durationTicks": 12,
          "midi": 96,
          "name": "C7",
          "ticks": 8563,
          "time": 99.56976744186046,
          "velocity": 0.2677165354330709
        },
        {
          "duration": 0.1046511627907023,
          "durationTicks": 9,
          "midi": 101,
          "name": "F7",
          "ticks": 8563,
          "time": 99.56976744186046,
          "velocity": 0.28346456692913385
        },
        {
          "duration": 0.22093023255814614,
          "durationTicks": 19,
          "midi": 53,
          "name": "F3",
          "ticks": 8564,
          "time": 99.5813953488372,
          "velocity": 0.44881889763779526
        },
        {
          "duration": 0.13953488372094114,
          "durationTicks": 12,
          "midi": 65,
          "name": "F4",
          "ticks": 8564,
          "time": 99.5813953488372,
          "velocity": 0.5511811023622047
        },
        {
          "duration": 0.15116279069768268,
          "durationTicks": 13,
          "midi": 93,
          "name": "A6",
          "ticks": 8564,
          "time": 99.5813953488372,
          "velocity": 0.1732283464566929
        },
        {
          "duration": 0.04651162790698038,
          "durationTicks": 4,
          "midi": 42,
          "name": "F#2",
          "ticks": 8565,
          "time": 99.59302325581395,
          "velocity": 0.4566929133858268
        },
        {
          "duration": 0.04651162790698038,
          "durationTicks": 4,
          "midi": 87,
          "name": "D#6",
          "ticks": 8565,
          "time": 99.59302325581395,
          "velocity": 0.07086614173228346
        },
        {
          "duration": 0.081395348837205,
          "durationTicks": 7,
          "midi": 69,
          "name": "A4",
          "ticks": 8566,
          "time": 99.6046511627907,
          "velocity": 0.2204724409448819
        },
        {
          "duration": 0.06976744186046346,
          "durationTicks": 6,
          "midi": 79,
          "name": "G5",
          "ticks": 8566,
          "time": 99.6046511627907,
          "velocity": 0.08661417322834646
        },
        {
          "duration": 0.05813953488372192,
          "durationTicks": 5,
          "midi": 75,
          "name": "D#5",
          "ticks": 8568,
          "time": 99.62790697674419,
          "velocity": 0.11811023622047244
        },
        {
          "duration": 0.03488372093023884,
          "durationTicks": 3,
          "midi": 41,
          "name": "F2",
          "ticks": 8569,
          "time": 99.63953488372093,
          "velocity": 0.44881889763779526
        },
        {
          "duration": 0.023255813953483084,
          "durationTicks": 2,
          "midi": 41,
          "name": "F2",
          "ticks": 8573,
          "time": 99.68604651162791,
          "velocity": 0.2992125984251969
        },
        {
          "duration": 0.1860465116279073,
          "durationTicks": 16,
          "midi": 88,
          "name": "E6",
          "ticks": 8573,
          "time": 99.68604651162791,
          "velocity": 0.2440944881889764
        },
        {
          "duration": 0.11627906976744384,
          "durationTicks": 10,
          "midi": 100,
          "name": "E7",
          "ticks": 8573,
          "time": 99.68604651162791,
          "velocity": 0.28346456692913385
        },
        {
          "duration": 0.04651162790698038,
          "durationTicks": 4,
          "midi": 76,
          "name": "E5",
          "ticks": 8574,
          "time": 99.69767441860465,
          "velocity": 0.4330708661417323
        },
        {
          "duration": 0.17441860465116577,
          "durationTicks": 15,
          "midi": 92,
          "name": "G#6",
          "ticks": 8574,
          "time": 99.69767441860465,
          "velocity": 0.15748031496062992
        },
        {
          "duration": 0.06976744186046346,
          "durationTicks": 6,
          "midi": 98,
          "name": "D7",
          "ticks": 8574,
          "time": 99.69767441860465,
          "velocity": 0.09448818897637795
        },
        {
          "duration": 0.023255813953497295,
          "durationTicks": 2,
          "midi": 40,
          "name": "E2",
          "ticks": 8575,
          "time": 99.70930232558139,
          "velocity": 0.2755905511811024
        },
        {
          "duration": 0.1046511627907023,
          "durationTicks": 9,
          "midi": 69,
          "name": "A4",
          "ticks": 8575,
          "time": 99.70930232558139,
          "velocity": 0.16535433070866143
        },
        {
          "duration": 0.09302325581394655,
          "durationTicks": 8,
          "midi": 64,
          "name": "E4",
          "ticks": 8576,
          "time": 99.72093023255815,
          "velocity": 0.4881889763779528
        },
        {
          "duration": 0.06976744186046346,
          "durationTicks": 6,
          "midi": 41,
          "name": "F2",
          "ticks": 8577,
          "time": 99.73255813953489,
          "velocity": 0.30708661417322836
        },
        {
          "duration": 0.06976744186046346,
          "durationTicks": 6,
          "midi": 77,
          "name": "F5",
          "ticks": 8577,
          "time": 99.73255813953489,
          "velocity": 0.1968503937007874
        },
        {
          "duration": 0.06976744186046346,
          "durationTicks": 6,
          "midi": 74,
          "name": "D5",
          "ticks": 8583,
          "time": 99.80232558139535,
          "velocity": 0.44881889763779526
        },
        {
          "duration": 0.034883720930224626,
          "durationTicks": 3,
          "midi": 79,
          "name": "G5",
          "ticks": 8583,
          "time": 99.80232558139535,
          "velocity": 0.18110236220472442
        },
        {
          "duration": 0.2093023255813904,
          "durationTicks": 18,
          "midi": 81,
          "name": "A5",
          "ticks": 8583,
          "time": 99.80232558139535,
          "velocity": 0.2677165354330709
        },
        {
          "duration": 0.16279069767441,
          "durationTicks": 14,
          "midi": 93,
          "name": "A6",
          "ticks": 8583,
          "time": 99.80232558139535,
          "velocity": 0.2677165354330709
        },
        {
          "duration": 0.15116279069766847,
          "durationTicks": 13,
          "midi": 102,
          "name": "F#7",
          "ticks": 8583,
          "time": 99.80232558139535,
          "velocity": 0.30708661417322836
        },
        {
          "duration": 0.1046511627907023,
          "durationTicks": 9,
          "midi": 57,
          "name": "A3",
          "ticks": 8584,
          "time": 99.81395348837209,
          "velocity": 0.31496062992125984
        },
        {
          "duration": 0.12790697674418539,
          "durationTicks": 11,
          "midi": 62,
          "name": "D4",
          "ticks": 8584,
          "time": 99.81395348837209,
          "velocity": 0.5433070866141733
        },
        {
          "duration": 0.11627906976744384,
          "durationTicks": 10,
          "midi": 76,
          "name": "E5",
          "ticks": 8584,
          "time": 99.81395348837209,
          "velocity": 0.3464566929133858
        },
        {
          "duration": 0.12790697674418539,
          "durationTicks": 11,
          "midi": 90,
          "name": "F#6",
          "ticks": 8584,
          "time": 99.81395348837209,
          "velocity": 0.1889763779527559
        },
        {
          "duration": 0.023255813953497295,
          "durationTicks": 2,
          "midi": 40,
          "name": "E2",
          "ticks": 8585,
          "time": 99.82558139534883,
          "velocity": 0.44881889763779526
        },
        {
          "duration": 0.19767441860464885,
          "durationTicks": 17,
          "midi": 50,
          "name": "D3",
          "ticks": 8585,
          "time": 99.82558139534883,
          "velocity": 0.4566929133858268
        },
        {
          "duration": 0.19767441860464885,
          "durationTicks": 17,
          "midi": 72,
          "name": "C5",
          "ticks": 8585,
          "time": 99.82558139534883,
          "velocity": 0.4409448818897638
        },
        {
          "duration": 0.03488372093023884,
          "durationTicks": 3,
          "midi": 83,
          "name": "B5",
          "ticks": 8586,
          "time": 99.83720930232558,
          "velocity": 0.07086614173228346
        },
        {
          "duration": 0.04651162790696617,
          "durationTicks": 4,
          "midi": 39,
          "name": "D#2",
          "ticks": 8587,
          "time": 99.84883720930233,
          "velocity": 0.4566929133858268
        },
        {
          "duration": 0.03488372093023884,
          "durationTicks": 3,
          "midi": 80,
          "name": "G#5",
          "ticks": 8589,
          "time": 99.87209302325581,
          "velocity": 0.07874015748031496
        },
        {
          "duration": 0.06976744186046346,
          "durationTicks": 6,
          "midi": 38,
          "name": "D2",
          "ticks": 8591,
          "time": 99.8953488372093,
          "velocity": 0.36220472440944884
        },
        {
          "duration": 0.03488372093023884,
          "durationTicks": 3,
          "midi": 66,
          "name": "F#4",
          "ticks": 8591,
          "time": 99.8953488372093,
          "velocity": 0.2204724409448819
        },
        {
          "duration": 0.16279069767441,
          "durationTicks": 14,
          "midi": 79,
          "name": "G5",
          "ticks": 8593,
          "time": 99.9186046511628,
          "velocity": 0.2440944881889764
        },
        {
          "duration": 0.04651162790696617,
          "durationTicks": 4,
          "midi": 83,
          "name": "B5",
          "ticks": 8593,
          "time": 99.9186046511628,
          "velocity": 0.13385826771653545
        },
        {
          "duration": 0.19767441860464885,
          "durationTicks": 17,
          "midi": 96,
          "name": "C7",
          "ticks": 8593,
          "time": 99.9186046511628,
          "velocity": 0.30708661417322836
        },
        {
          "duration": 0.16279069767441,
          "durationTicks": 14,
          "midi": 100,
          "name": "E7",
          "ticks": 8593,
          "time": 99.9186046511628,
          "velocity": 0.33858267716535434
        },
        {
          "duration": 0.1046511627907023,
          "durationTicks": 9,
          "midi": 60,
          "name": "C4",
          "ticks": 8594,
          "time": 99.93023255813954,
          "velocity": 0.5196850393700787
        },
        {
          "duration": 0.13953488372092693,
          "durationTicks": 12,
          "midi": 94,
          "name": "A#6",
          "ticks": 8594,
          "time": 99.93023255813954,
          "velocity": 0.15748031496062992
        },
        {
          "duration": 0.05813953488372192,
          "durationTicks": 5,
          "midi": 66,
          "name": "F#4",
          "ticks": 8596,
          "time": 99.95348837209302,
          "velocity": 0.2283464566929134
        },
        {
          "duration": 0.06976744186046346,
          "durationTicks": 6,
          "midi": 69,
          "name": "A4",
          "ticks": 8596,
          "time": 99.95348837209302,
          "velocity": 0.11023622047244094
        },
        {
          "duration": 0.13953488372092693,
          "durationTicks": 12,
          "midi": 74,
          "name": "D5",
          "ticks": 8596,
          "time": 99.95348837209302,
          "velocity": 0.4251968503937008
        },
        {
          "duration": 0.023255813953497295,
          "durationTicks": 2,
          "midi": 37,
          "name": "C#2",
          "ticks": 8597,
          "time": 99.96511627906976,
          "velocity": 0.2755905511811024
        },
        {
          "duration": 0.023255813953483084,
          "durationTicks": 2,
          "midi": 38,
          "name": "D2",
          "ticks": 8599,
          "time": 99.98837209302326,
          "velocity": 0.2992125984251969
        },
        {
          "duration": 0.023255813953497295,
          "durationTicks": 2,
          "midi": 39,
          "name": "D#2",
          "ticks": 8601,
          "time": 100.01162790697674,
          "velocity": 0.3464566929133858
        },
        {
          "duration": 0.023255813953497295,
          "durationTicks": 2,
          "midi": 70,
          "name": "A#4",
          "ticks": 8602,
          "time": 100.02325581395348,
          "velocity": 0.2440944881889764
        },
        {
          "duration": 1.418604651162795,
          "durationTicks": 122,
          "midi": 83,
          "name": "B5",
          "ticks": 8602,
          "time": 100.02325581395348,
          "velocity": 0.29133858267716534
        },
        {
          "duration": 0.25581395348837077,
          "durationTicks": 22,
          "midi": 90,
          "name": "F#6",
          "ticks": 8602,
          "time": 100.02325581395348,
          "velocity": 0.14173228346456693
        },
        {
          "duration": 0.16279069767442422,
          "durationTicks": 14,
          "midi": 102,
          "name": "F#7",
          "ticks": 8602,
          "time": 100.02325581395348,
          "velocity": 0.30708661417322836
        },
        {
          "duration": 0.023255813953483084,
          "durationTicks": 2,
          "midi": 44,
          "name": "G#2",
          "ticks": 8603,
          "time": 100.03488372093024,
          "velocity": 0.47244094488188976
        },
        {
          "duration": 0.011627906976741542,
          "durationTicks": 1,
          "midi": 61,
          "name": "C#4",
          "ticks": 8603,
          "time": 100.03488372093024,
          "velocity": 0.5196850393700787
        },
        {
          "duration": 0.24418604651161502,
          "durationTicks": 21,
          "midi": 77,
          "name": "F5",
          "ticks": 8603,
          "time": 100.03488372093024,
          "velocity": 0.15748031496062992
        },
        {
          "duration": 0.3139534883720927,
          "durationTicks": 27,
          "midi": 81,
          "name": "A5",
          "ticks": 8603,
          "time": 100.03488372093024,
          "velocity": 0.2677165354330709
        },
        {
          "duration": 0.09302325581394655,
          "durationTicks": 8,
          "midi": 50,
          "name": "D3",
          "ticks": 8604,
          "time": 100.04651162790698,
          "velocity": 0.3937007874015748
        },
        {
          "duration": 0.4534883720930196,
          "durationTicks": 39,
          "midi": 62,
          "name": "D4",
          "ticks": 8604,
          "time": 100.04651162790698,
          "velocity": 0.5039370078740157
        },
        {
          "duration": 0.04651162790698038,
          "durationTicks": 4,
          "midi": 43,
          "name": "G2",
          "ticks": 8605,
          "time": 100.05813953488372,
          "velocity": 0.44881889763779526
        },
        {
          "duration": 0.05813953488372192,
          "durationTicks": 5,
          "midi": 72,
          "name": "C5",
          "ticks": 8605,
          "time": 100.05813953488372,
          "velocity": 0.28346456692913385
        },
        {
          "duration": 0.3720930232558146,
          "durationTicks": 32,
          "midi": 43,
          "name": "G2",
          "ticks": 8610,
          "time": 100.11627906976744,
          "velocity": 0.3858267716535433
        },
        {
          "duration": 0.034883720930224626,
          "durationTicks": 3,
          "midi": 73,
          "name": "C#5",
          "ticks": 8610,
          "time": 100.11627906976744,
          "velocity": 0.2204724409448819
        },
        {
          "duration": 0.023255813953497295,
          "durationTicks": 2,
          "midi": 72,
          "name": "C5",
          "ticks": 8613,
          "time": 100.15116279069767,
          "velocity": 0.23622047244094488
        },
        {
          "duration": 0.04651162790698038,
          "durationTicks": 4,
          "midi": 50,
          "name": "D3",
          "ticks": 8615,
          "time": 100.17441860465117,
          "velocity": 0.25984251968503935
        },
        {
          "duration": 0.034883720930224626,
          "durationTicks": 3,
          "midi": 73,
          "name": "C#5",
          "ticks": 8615,
          "time": 100.17441860465117,
          "velocity": 0.14173228346456693
        },
        {
          "duration": 0.04651162790698038,
          "durationTicks": 4,
          "midi": 50,
          "name": "D3",
          "ticks": 8622,
          "time": 100.25581395348837,
          "velocity": 0.2047244094488189
        },
        {
          "duration": 0.04651162790698038,
          "durationTicks": 4,
          "midi": 50,
          "name": "D3",
          "ticks": 8629,
          "time": 100.33720930232558,
          "velocity": 0.1889763779527559
        },
        {
          "duration": 0.04651162790698038,
          "durationTicks": 4,
          "midi": 59,
          "name": "B3",
          "ticks": 8631,
          "time": 100.36046511627907,
          "velocity": 0.08661417322834646
        },
        {
          "duration": 0.05813953488372192,
          "durationTicks": 5,
          "midi": 81,
          "name": "A5",
          "ticks": 8634,
          "time": 100.3953488372093,
          "velocity": 0.08661417322834646
        },
        {
          "duration": 0.023255813953483084,
          "durationTicks": 2,
          "midi": 50,
          "name": "D3",
          "ticks": 8641,
          "time": 100.47674418604652,
          "velocity": 0.33070866141732286
        },
        {
          "duration": 0.04651162790696617,
          "durationTicks": 4,
          "midi": 72,
          "name": "C5",
          "ticks": 8641,
          "time": 100.47674418604652,
          "velocity": 0.14960629921259844
        },
        {
          "duration": 0.6976744186046488,
          "durationTicks": 60,
          "midi": 65,
          "name": "F4",
          "ticks": 8642,
          "time": 100.48837209302326,
          "velocity": 0.2283464566929134
        },
        {
          "duration": 0.06976744186046346,
          "durationTicks": 6,
          "midi": 81,
          "name": "A5",
          "ticks": 8643,
          "time": 100.5,
          "velocity": 0.1889763779527559
        },
        {
          "duration": 0.03488372093023884,
          "durationTicks": 3,
          "midi": 43,
          "name": "G2",
          "ticks": 8645,
          "time": 100.52325581395348,
          "velocity": 0.4409448818897638
        },
        {
          "duration": 0.43023255813953654,
          "durationTicks": 37,
          "midi": 59,
          "name": "B3",
          "ticks": 8645,
          "time": 100.52325581395348,
          "velocity": 0.1889763779527559
        },
        {
          "duration": 0.03488372093023884,
          "durationTicks": 3,
          "midi": 90,
          "name": "F#6",
          "ticks": 8645,
          "time": 100.52325581395348,
          "velocity": 0.08661417322834646
        },
        {
          "duration": 0.06976744186046346,
          "durationTicks": 6,
          "midi": 50,
          "name": "D3",
          "ticks": 8646,
          "time": 100.53488372093024,
          "velocity": 0.3464566929133858
        },
        {
          "duration": 0.3720930232558146,
          "durationTicks": 32,
          "midi": 43,
          "name": "G2",
          "ticks": 8649,
          "time": 100.56976744186046,
          "velocity": 0.3700787401574803
        },
        {
          "duration": 0.05813953488372192,
          "durationTicks": 5,
          "midi": 81,
          "name": "A5",
          "ticks": 8652,
          "time": 100.6046511627907,
          "velocity": 0.09448818897637795
        },
        {
          "duration": 0.04651162790698038,
          "durationTicks": 4,
          "midi": 50,
          "name": "D3",
          "ticks": 8655,
          "time": 100.63953488372093,
          "velocity": 0.25984251968503935
        },
        {
          "duration": 0.25581395348837077,
          "durationTicks": 22,
          "midi": 73,
          "name": "C#5",
          "ticks": 8660,
          "time": 100.69767441860465,
          "velocity": 0.13385826771653545
        },
        {
          "duration": 0.04651162790696617,
          "durationTicks": 4,
          "midi": 50,
          "name": "D3",
          "ticks": 8662,
          "time": 100.72093023255815,
          "velocity": 0.2047244094488189
        },
        {
          "duration": 0.04651162790698038,
          "durationTicks": 4,
          "midi": 50,
          "name": "D3",
          "ticks": 8669,
          "time": 100.80232558139535,
          "velocity": 0.1968503937007874
        },
        {
          "duration": 0.04651162790698038,
          "durationTicks": 4,
          "midi": 50,
          "name": "D3",
          "ticks": 8676,
          "time": 100.88372093023256,
          "velocity": 0.18110236220472442
        },
        {
          "duration": 0.03488372093023884,
          "durationTicks": 3,
          "midi": 42,
          "name": "F#2",
          "ticks": 8681,
          "time": 100.94186046511628,
          "velocity": 0.5039370078740157
        },
        {
          "duration": 0.5232558139534831,
          "durationTicks": 45,
          "midi": 77,
          "name": "F5",
          "ticks": 8681,
          "time": 100.94186046511628,
          "velocity": 0.41732283464566927
        },
        {
          "duration": 0.04651162790698038,
          "durationTicks": 4,
          "midi": 72,
          "name": "C5",
          "ticks": 8682,
          "time": 100.95348837209302,
          "velocity": 0.2204724409448819
        },
        {
          "duration": 0.03488372093023884,
          "durationTicks": 3,
          "midi": 75,
          "name": "D#5",
          "ticks": 8682,
          "time": 100.95348837209302,
          "velocity": 0.14173228346456693
        },
        {
          "duration": 0.04651162790698038,
          "durationTicks": 4,
          "midi": 71,
          "name": "B4",
          "ticks": 8683,
          "time": 100.96511627906976,
          "velocity": 0.13385826771653545
        },
        {
          "duration": 0.034883720930224626,
          "durationTicks": 3,
          "midi": 43,
          "name": "G2",
          "ticks": 8684,
          "time": 100.97674418604652,
          "velocity": 0.47244094488188976
        },
        {
          "duration": 0.19767441860464885,
          "durationTicks": 17,
          "midi": 59,
          "name": "B3",
          "ticks": 8684,
          "time": 100.97674418604652,
          "velocity": 0.2125984251968504
        },
        {
          "duration": 0.1860465116279073,
          "durationTicks": 16,
          "midi": 73,
          "name": "C#5",
          "ticks": 8686,
          "time": 101,
          "velocity": 0.2125984251968504
        },
        {
          "duration": 0.05813953488372192,
          "durationTicks": 5,
          "midi": 81,
          "name": "A5",
          "ticks": 8686,
          "time": 101,
          "velocity": 0.08661417322834646
        },
        {
          "duration": 0.023255813953497295,
          "durationTicks": 2,
          "midi": 50,
          "name": "D3",
          "ticks": 8687,
          "time": 101.01162790697674,
          "velocity": 0.23622047244094488
        },
        {
          "duration": 0.15116279069768268,
          "durationTicks": 13,
          "midi": 43,
          "name": "G2",
          "ticks": 8688,
          "time": 101.02325581395348,
          "velocity": 0.3937007874015748
        },
        {
          "duration": 0.023255813953497295,
          "durationTicks": 2,
          "midi": 50,
          "name": "D3",
          "ticks": 8694,
          "time": 101.09302325581395,
          "velocity": 0.23622047244094488
        },
        {
          "duration": 0.27906976744185386,
          "durationTicks": 24,
          "midi": 74,
          "name": "D5",
          "ticks": 8696,
          "time": 101.11627906976744,
          "velocity": 0.2440944881889764
        },
        {
          "duration": 0.03488372093023884,
          "durationTicks": 3,
          "midi": 72,
          "name": "C5",
          "ticks": 8702,
          "time": 101.18604651162791,
          "velocity": 0.2283464566929134
        },
        {
          "duration": 0.09302325581396076,
          "durationTicks": 8,
          "midi": 50,
          "name": "D3",
          "ticks": 8703,
          "time": 101.19767441860465,
          "velocity": 0.3779527559055118
        },
        {
          "duration": 0.33720930232559,
          "durationTicks": 29,
          "midi": 65,
          "name": "F4",
          "ticks": 8703,
          "time": 101.19767441860465,
          "velocity": 0.5039370078740157
        },
        {
          "duration": 0.081395348837205,
          "durationTicks": 7,
          "midi": 81,
          "name": "A5",
          "ticks": 8703,
          "time": 101.19767441860465,
          "velocity": 0.13385826771653545
        },
        {
          "duration": 0.03488372093023884,
          "durationTicks": 3,
          "midi": 43,
          "name": "G2",
          "ticks": 8704,
          "time": 101.20930232558139,
          "velocity": 0.41732283464566927
        },
        {
          "duration": 0.1860465116279073,
          "durationTicks": 16,
          "midi": 59,
          "name": "B3",
          "ticks": 8704,
          "time": 101.20930232558139,
          "velocity": 0.23622047244094488
        },
        {
          "duration": 0.034883720930224626,
          "durationTicks": 3,
          "midi": 73,
          "name": "C#5",
          "ticks": 8705,
          "time": 101.22093023255815,
          "velocity": 0.2204724409448819
        },
        {
          "duration": 0.15116279069768268,
          "durationTicks": 13,
          "midi": 43,
          "name": "G2",
          "ticks": 8708,
          "time": 101.25581395348837,
          "velocity": 0.4330708661417323
        },
        {
          "duration": 0.15116279069768268,
          "durationTicks": 13,
          "midi": 73,
          "name": "C#5",
          "ticks": 8709,
          "time": 101.26744186046511,
          "velocity": 0.25196850393700787
        },
        {
          "duration": 0.023255813953497295,
          "durationTicks": 2,
          "midi": 50,
          "name": "D3",
          "ticks": 8714,
          "time": 101.32558139534883,
          "velocity": 0.25984251968503935
        },
        {
          "duration": 0.2325581395348877,
          "durationTicks": 20,
          "midi": 57,
          "name": "A3",
          "ticks": 8720,
          "time": 101.3953488372093,
          "velocity": 0.3464566929133858
        },
        {
          "duration": 0.09302325581396076,
          "durationTicks": 8,
          "midi": 93,
          "name": "A6",
          "ticks": 8720,
          "time": 101.3953488372093,
          "velocity": 0.2047244094488189
        },
        {
          "duration": 0.11627906976744384,
          "durationTicks": 10,
          "midi": 101,
          "name": "F7",
          "ticks": 8720,
          "time": 101.3953488372093,
          "velocity": 0.28346456692913385
        },
        {
          "duration": 0.11627906976742963,
          "durationTicks": 10,
          "midi": 84,
          "name": "C6",
          "ticks": 8721,
          "time": 101.40697674418605,
          "velocity": 0.23622047244094488
        },
        {
          "duration": 0.2093023255813904,
          "durationTicks": 18,
          "midi": 50,
          "name": "D3",
          "ticks": 8722,
          "time": 101.4186046511628,
          "velocity": 0.44881889763779526
        },
        {
          "duration": 0.10465116279068809,
          "durationTicks": 9,
          "midi": 72,
          "name": "C5",
          "ticks": 8722,
          "time": 101.4186046511628,
          "velocity": 0.2204724409448819
        },
        {
          "duration": 0.05813953488372192,
          "durationTicks": 5,
          "midi": 80,
          "name": "G#5",
          "ticks": 8726,
          "time": 101.46511627906976,
          "velocity": 0.07874015748031496
        },
        {
          "duration": 0.023255813953483084,
          "durationTicks": 2,
          "midi": 38,
          "name": "D2",
          "ticks": 8727,
          "time": 101.47674418604652,
          "velocity": 0.3779527559055118
        },
        {
          "duration": 0.04651162790698038,
          "durationTicks": 4,
          "midi": 93,
          "name": "A6",
          "ticks": 8729,
          "time": 101.5,
          "velocity": 0.14960629921259844
        },
        {
          "duration": 0.023255813953497295,
          "durationTicks": 2,
          "midi": 38,
          "name": "D2",
          "ticks": 8730,
          "time": 101.51162790697674,
          "velocity": 0.30708661417322836
        },
        {
          "duration": 0.06976744186046346,
          "durationTicks": 6,
          "midi": 76,
          "name": "E5",
          "ticks": 8730,
          "time": 101.51162790697674,
          "velocity": 0.4330708661417323
        },
        {
          "duration": 0.05813953488372192,
          "durationTicks": 5,
          "midi": 71,
          "name": "B4",
          "ticks": 8731,
          "time": 101.52325581395348,
          "velocity": 0.14960629921259844
        },
        {
          "duration": 0.16279069767442422,
          "durationTicks": 14,
          "midi": 83,
          "name": "B5",
          "ticks": 8731,
          "time": 101.52325581395348,
          "velocity": 0.23622047244094488
        },
        {
          "duration": 0.1046511627907023,
          "durationTicks": 9,
          "midi": 100,
          "name": "E7",
          "ticks": 8731,
          "time": 101.52325581395348,
          "velocity": 0.2755905511811024
        },
        {
          "duration": 0.10465116279068809,
          "durationTicks": 9,
          "midi": 64,
          "name": "E4",
          "ticks": 8732,
          "time": 101.53488372093024,
          "velocity": 0.5275590551181102
        },
        {
          "duration": 0.13953488372092693,
          "durationTicks": 12,
          "midi": 92,
          "name": "G#6",
          "ticks": 8732,
          "time": 101.53488372093024,
          "velocity": 0.14173228346456693
        },
        {
          "duration": 0.081395348837205,
          "durationTicks": 7,
          "midi": 98,
          "name": "D7",
          "ticks": 8732,
          "time": 101.53488372093024,
          "velocity": 0.07086614173228346
        },
        {
          "duration": 0.05813953488372192,
          "durationTicks": 5,
          "midi": 77,
          "name": "F5",
          "ticks": 8735,
          "time": 101.56976744186046,
          "velocity": 0.2283464566929134
        },
        {
          "duration": 0.03488372093023884,
          "durationTicks": 3,
          "midi": 38,
          "name": "D2",
          "ticks": 8737,
          "time": 101.59302325581395,
          "velocity": 0.29133858267716534
        },
        {
          "duration": 0.22093023255814614,
          "durationTicks": 19,
          "midi": 81,
          "name": "A5",
          "ticks": 8740,
          "time": 101.62790697674419,
          "velocity": 0.25196850393700787
        },
        {
          "duration": 0.1860465116279073,
          "durationTicks": 16,
          "midi": 86,
          "name": "D6",
          "ticks": 8740,
          "time": 101.62790697674419,
          "velocity": 0.28346456692913385
        },
        {
          "duration": 0.38372093023255616,
          "durationTicks": 33,
          "midi": 96,
          "name": "C7",
          "ticks": 8740,
          "time": 101.62790697674419,
          "velocity": 0.29133858267716534
        },
        {
          "duration": 0.13953488372092693,
          "durationTicks": 12,
          "midi": 98,
          "name": "D7",
          "ticks": 8740,
          "time": 101.62790697674419,
          "velocity": 0.28346456692913385
        },
        {
          "duration": 0.15116279069766847,
          "durationTicks": 13,
          "midi": 102,
          "name": "F#7",
          "ticks": 8740,
          "time": 101.62790697674419,
          "velocity": 0.30708661417322836
        },
        {
          "duration": 0.22093023255814614,
          "durationTicks": 19,
          "midi": 53,
          "name": "F3",
          "ticks": 8741,
          "time": 101.63953488372093,
          "velocity": 0.4409448818897638
        },
        {
          "duration": 0.011627906976741542,
          "durationTicks": 1,
          "midi": 61,
          "name": "C#4",
          "ticks": 8741,
          "time": 101.63953488372093,
          "velocity": 0.5196850393700787
        },
        {
          "duration": 0.05813953488372192,
          "durationTicks": 5,
          "midi": 74,
          "name": "D5",
          "ticks": 8741,
          "time": 101.63953488372093,
          "velocity": 0.4251968503937008
        },
        {
          "duration": 0.15116279069768268,
          "durationTicks": 13,
          "midi": 90,
          "name": "F#6",
          "ticks": 8741,
          "time": 101.63953488372093,
          "velocity": 0.12598425196850394
        },
        {
          "duration": 0.03488372093023884,
          "durationTicks": 3,
          "midi": 42,
          "name": "F#2",
          "ticks": 8742,
          "time": 101.65116279069767,
          "velocity": 0.4330708661417323
        },
        {
          "duration": 0.09302325581396076,
          "durationTicks": 8,
          "midi": 62,
          "name": "D4",
          "ticks": 8742,
          "time": 101.65116279069767,
          "velocity": 0.5118110236220472
        },
        {
          "duration": 0.16279069767442422,
          "durationTicks": 14,
          "midi": 76,
          "name": "E5",
          "ticks": 8742,
          "time": 101.65116279069767,
          "velocity": 0.1968503937007874
        },
        {
          "duration": 0.6162790697674438,
          "durationTicks": 53,
          "midi": 79,
          "name": "G5",
          "ticks": 8742,
          "time": 101.65116279069767,
          "velocity": 0.25984251968503935
        },
        {
          "duration": 0.2906976744185954,
          "durationTicks": 25,
          "midi": 72,
          "name": "C5",
          "ticks": 8743,
          "time": 101.66279069767442,
          "velocity": 0.48031496062992124
        },
        {
          "duration": 0.04651162790698038,
          "durationTicks": 4,
          "midi": 41,
          "name": "F2",
          "ticks": 8745,
          "time": 101.68604651162791,
          "velocity": 0.4645669291338583
        },
        {
          "duration": 0.04651162790696617,
          "durationTicks": 4,
          "midi": 83,
          "name": "B5",
          "ticks": 8749,
          "time": 101.73255813953489,
          "velocity": 0.12598425196850394
        },
        {
          "duration": 0.30232558139535115,
          "durationTicks": 26,
          "midi": 100,
          "name": "E7",
          "ticks": 8750,
          "time": 101.74418604651163,
          "velocity": 0.33858267716535434
        },
        {
          "duration": 0.03488372093023884,
          "durationTicks": 3,
          "midi": 40,
          "name": "E2",
          "ticks": 8751,
          "time": 101.75581395348837,
          "velocity": 0.3228346456692913
        },
        {
          "duration": 0.1046511627907023,
          "durationTicks": 9,
          "midi": 60,
          "name": "C4",
          "ticks": 8751,
          "time": 101.75581395348837,
          "velocity": 0.5196850393700787
        },
        {
          "duration": 0.09302325581396076,
          "durationTicks": 8,
          "midi": 94,
          "name": "A#6",
          "ticks": 8751,
          "time": 101.75581395348837,
          "velocity": 0.11811023622047244
        },
        {
          "duration": 0.09302325581396076,
          "durationTicks": 8,
          "midi": 69,
          "name": "A4",
          "ticks": 8753,
          "time": 101.77906976744185,
          "velocity": 0.25196850393700787
        },
        {
          "duration": 0.06976744186047767,
          "durationTicks": 6,
          "midi": 74,
          "name": "D5",
          "ticks": 8753,
          "time": 101.77906976744185,
          "velocity": 0.2283464566929134
        },
        {
          "duration": 0.05813953488372192,
          "durationTicks": 5,
          "midi": 41,
          "name": "F2",
          "ticks": 8756,
          "time": 101.81395348837209,
          "velocity": 0.33858267716535434
        },
        {
          "duration": 0.023255813953483084,
          "durationTicks": 2,
          "midi": 59,
          "name": "B3",
          "ticks": 8760,
          "time": 101.86046511627907,
          "velocity": 0.4645669291338583
        },
        {
          "duration": 0.023255813953483084,
          "durationTicks": 2,
          "midi": 75,
          "name": "D#5",
          "ticks": 8760,
          "time": 101.86046511627907,
          "velocity": 0.2677165354330709
        },
        {
          "duration": 0.03488372093023884,
          "durationTicks": 3,
          "midi": 48,
          "name": "C3",
          "ticks": 8761,
          "time": 101.87209302325581,
          "velocity": 0.4251968503937008
        },
        {
          "duration": 0.3953488372092977,
          "durationTicks": 34,
          "midi": 60,
          "name": "C4",
          "ticks": 8762,
          "time": 101.88372093023256,
          "velocity": 0.48031496062992124
        },
        {
          "duration": 0.03488372093023884,
          "durationTicks": 3,
          "midi": 67,
          "name": "G4",
          "ticks": 8762,
          "time": 101.88372093023256,
          "velocity": 0.2047244094488189
        },
        {
          "duration": 0.03488372093023884,
          "durationTicks": 3,
          "midi": 70,
          "name": "A#4",
          "ticks": 8762,
          "time": 101.88372093023256,
          "velocity": 0.29133858267716534
        },
        {
          "duration": 0.3139534883720927,
          "durationTicks": 27,
          "midi": 83,
          "name": "B5",
          "ticks": 8762,
          "time": 101.88372093023256,
          "velocity": 0.14960629921259844
        },
        {
          "duration": 0.09302325581396076,
          "durationTicks": 8,
          "midi": 94,
          "name": "A#6",
          "ticks": 8762,
          "time": 101.88372093023256,
          "velocity": 0.1968503937007874
        },
        {
          "duration": 0.023255813953497295,
          "durationTicks": 2,
          "midi": 42,
          "name": "F#2",
          "ticks": 8763,
          "time": 101.8953488372093,
          "velocity": 0.4094488188976378
        },
        {
          "duration": 0.2093023255814046,
          "durationTicks": 18,
          "midi": 75,
          "name": "D#5",
          "ticks": 8763,
          "time": 101.8953488372093,
          "velocity": 0.29133858267716534
        },
        {
          "duration": 0.034883720930224626,
          "durationTicks": 3,
          "midi": 41,
          "name": "F2",
          "ticks": 8765,
          "time": 101.9186046511628,
          "velocity": 0.4094488188976378
        },
        {
          "duration": 0.38372093023255616,
          "durationTicks": 33,
          "midi": 48,
          "name": "C3",
          "ticks": 8767,
          "time": 101.94186046511628,
          "velocity": 0.33070866141732286
        },
        {
          "duration": 0.04651162790698038,
          "durationTicks": 4,
          "midi": 88,
          "name": "E6",
          "ticks": 8771,
          "time": 101.98837209302326,
          "velocity": 0.13385826771653545
        },
        {
          "duration": 0.04651162790698038,
          "durationTicks": 4,
          "midi": 94,
          "name": "A#6",
          "ticks": 8772,
          "time": 102,
          "velocity": 0.09448818897637795
        },
        {
          "duration": 0.1046511627907023,
          "durationTicks": 9,
          "midi": 41,
          "name": "F2",
          "ticks": 8773,
          "time": 102.01162790697674,
          "velocity": 0.28346456692913385
        },
        {
          "duration": 0.034883720930224626,
          "durationTicks": 3,
          "midi": 88,
          "name": "E6",
          "ticks": 8777,
          "time": 102.05813953488372,
          "velocity": 0.11023622047244094
        },
        {
          "duration": 0.6511627906976685,
          "durationTicks": 56,
          "midi": 57,
          "name": "A3",
          "ticks": 8782,
          "time": 102.11627906976744,
          "velocity": 0.3858267716535433
        },
        {
          "duration": 0.19767441860464885,
          "durationTicks": 17,
          "midi": 41,
          "name": "F2",
          "ticks": 8783,
          "time": 102.12790697674419,
          "velocity": 0.23622047244094488
        },
        {
          "duration": 0.034883720930224626,
          "durationTicks": 3,
          "midi": 88,
          "name": "E6",
          "ticks": 8786,
          "time": 102.16279069767442,
          "velocity": 0.11811023622047244
        },
        {
          "duration": 0.06976744186046346,
          "durationTicks": 6,
          "midi": 63,
          "name": "D#4",
          "ticks": 8794,
          "time": 102.25581395348837,
          "velocity": 0.13385826771653545
        },
        {
          "duration": 0.03488372093023884,
          "durationTicks": 3,
          "midi": 88,
          "name": "E6",
          "ticks": 8796,
          "time": 102.27906976744185,
          "velocity": 0.09448818897637795
        },
        {
          "duration": 0.24418604651162923,
          "durationTicks": 21,
          "midi": 75,
          "name": "D#5",
          "ticks": 8800,
          "time": 102.32558139534883,
          "velocity": 0.28346456692913385
        },
        {
          "duration": 0.33720930232559,
          "durationTicks": 29,
          "midi": 83,
          "name": "B5",
          "ticks": 8800,
          "time": 102.32558139534883,
          "velocity": 0.1732283464566929
        },
        {
          "duration": 0.03488372093023884,
          "durationTicks": 3,
          "midi": 62,
          "name": "D4",
          "ticks": 8801,
          "time": 102.33720930232558,
          "velocity": 0.30708661417322836
        },
        {
          "duration": 0.16279069767442422,
          "durationTicks": 14,
          "midi": 88,
          "name": "E6",
          "ticks": 8801,
          "time": 102.33720930232558,
          "velocity": 0.1968503937007874
        },
        {
          "duration": 0.09302325581396076,
          "durationTicks": 8,
          "midi": 94,
          "name": "A#6",
          "ticks": 8801,
          "time": 102.33720930232558,
          "velocity": 0.2125984251968504
        },
        {
          "duration": 0.023255813953483084,
          "durationTicks": 2,
          "midi": 48,
          "name": "C3",
          "ticks": 8802,
          "time": 102.34883720930233,
          "velocity": 0.4094488188976378
        },
        {
          "duration": 0.06976744186046346,
          "durationTicks": 6,
          "midi": 41,
          "name": "F2",
          "ticks": 8804,
          "time": 102.37209302325581,
          "velocity": 0.3937007874015748
        },
        {
          "duration": 0.8837209302325562,
          "durationTicks": 76,
          "midi": 63,
          "name": "D#4",
          "ticks": 8804,
          "time": 102.37209302325581,
          "velocity": 0.3543307086614173
        },
        {
          "duration": 0.3604651162790731,
          "durationTicks": 31,
          "midi": 48,
          "name": "C3",
          "ticks": 8809,
          "time": 102.43023255813954,
          "velocity": 0.33858267716535434
        },
        {
          "duration": 0.2906976744186096,
          "durationTicks": 25,
          "midi": 41,
          "name": "F2",
          "ticks": 8815,
          "time": 102.5,
          "velocity": 0.29133858267716534
        },
        {
          "duration": 0.03488372093023884,
          "durationTicks": 3,
          "midi": 56,
          "name": "G#3",
          "ticks": 8838,
          "time": 102.76744186046511,
          "velocity": 0.5118110236220472
        },
        {
          "duration": 0.023255813953497295,
          "durationTicks": 2,
          "midi": 70,
          "name": "A#4",
          "ticks": 8838,
          "time": 102.76744186046511,
          "velocity": 0.44881889763779526
        },
        {
          "duration": 0.05813953488372192,
          "durationTicks": 5,
          "midi": 81,
          "name": "A5",
          "ticks": 8839,
          "time": 102.77906976744185,
          "velocity": 0.1889763779527559
        },
        {
          "duration": 0.3953488372093119,
          "durationTicks": 34,
          "midi": 88,
          "name": "E6",
          "ticks": 8839,
          "time": 102.77906976744185,
          "velocity": 0.2992125984251969
        },
        {
          "duration": 0.6860465116279073,
          "durationTicks": 59,
          "midi": 69,
          "name": "A4",
          "ticks": 8840,
          "time": 102.79069767441861,
          "velocity": 0.5984251968503937
        },
        {
          "duration": 0.22093023255813193,
          "durationTicks": 19,
          "midi": 83,
          "name": "B5",
          "ticks": 8840,
          "time": 102.79069767441861,
          "velocity": 0.1732283464566929
        },
        {
          "duration": 0.27906976744185386,
          "durationTicks": 24,
          "midi": 87,
          "name": "D#6",
          "ticks": 8840,
          "time": 102.79069767441861,
          "velocity": 0.1732283464566929
        },
        {
          "duration": 0.09302325581394655,
          "durationTicks": 8,
          "midi": 93,
          "name": "A6",
          "ticks": 8840,
          "time": 102.79069767441861,
          "velocity": 0.2047244094488189
        },
        {
          "duration": 0.09302325581394655,
          "durationTicks": 8,
          "midi": 94,
          "name": "A#6",
          "ticks": 8840,
          "time": 102.79069767441861,
          "velocity": 0.1968503937007874
        },
        {
          "duration": 0.023255813953483084,
          "durationTicks": 2,
          "midi": 48,
          "name": "C3",
          "ticks": 8841,
          "time": 102.80232558139535,
          "velocity": 0.4645669291338583
        },
        {
          "duration": 0.16279069767441,
          "durationTicks": 14,
          "midi": 57,
          "name": "A3",
          "ticks": 8841,
          "time": 102.80232558139535,
          "velocity": 0.4881889763779528
        },
        {
          "duration": 0.15116279069766847,
          "durationTicks": 13,
          "midi": 85,
          "name": "C#6",
          "ticks": 8841,
          "time": 102.80232558139535,
          "velocity": 0.2283464566929134
        },
        {
          "duration": 0.09302325581394655,
          "durationTicks": 8,
          "midi": 91,
          "name": "G6",
          "ticks": 8841,
          "time": 102.80232558139535,
          "velocity": 0.11023622047244094
        },
        {
          "duration": 0.081395348837205,
          "durationTicks": 7,
          "midi": 41,
          "name": "F2",
          "ticks": 8842,
          "time": 102.81395348837209,
          "velocity": 0.4251968503937008
        },
        {
          "duration": 0.12790697674418539,
          "durationTicks": 11,
          "midi": 48,
          "name": "C3",
          "ticks": 8848,
          "time": 102.88372093023256,
          "velocity": 0.33070866141732286
        },
        {
          "duration": 0.034883720930224626,
          "durationTicks": 3,
          "midi": 41,
          "name": "F2",
          "ticks": 8856,
          "time": 102.97674418604652,
          "velocity": 0.2755905511811024
        },
        {
          "duration": 0.023255813953497295,
          "durationTicks": 2,
          "midi": 47,
          "name": "B2",
          "ticks": 8859,
          "time": 103.01162790697674,
          "velocity": 0.4409448818897638
        },
        {
          "duration": 0.023255813953497295,
          "durationTicks": 2,
          "midi": 56,
          "name": "G#3",
          "ticks": 8859,
          "time": 103.01162790697674,
          "velocity": 0.3543307086614173
        },
        {
          "duration": 0.06976744186046346,
          "durationTicks": 6,
          "midi": 84,
          "name": "C6",
          "ticks": 8859,
          "time": 103.01162790697674,
          "velocity": 0.12598425196850394
        },
        {
          "duration": 0.22093023255814614,
          "durationTicks": 19,
          "midi": 83,
          "name": "B5",
          "ticks": 8860,
          "time": 103.02325581395348,
          "velocity": 0.12598425196850394
        },
        {
          "duration": 0.09302325581396076,
          "durationTicks": 8,
          "midi": 94,
          "name": "A#6",
          "ticks": 8860,
          "time": 103.02325581395348,
          "velocity": 0.1968503937007874
        },
        {
          "duration": 0.04651162790696617,
          "durationTicks": 4,
          "midi": 48,
          "name": "C3",
          "ticks": 8861,
          "time": 103.03488372093024,
          "velocity": 0.4566929133858268
        },
        {
          "duration": 0.19767441860464885,
          "durationTicks": 17,
          "midi": 57,
          "name": "A3",
          "ticks": 8861,
          "time": 103.03488372093024,
          "velocity": 0.3858267716535433
        },
        {
          "duration": 0.05813953488372192,
          "durationTicks": 5,
          "midi": 41,
          "name": "F2",
          "ticks": 8864,
          "time": 103.06976744186046,
          "velocity": 0.4015748031496063
        },
        {
          "duration": 0.13953488372092693,
          "durationTicks": 12,
          "midi": 48,
          "name": "C3",
          "ticks": 8868,
          "time": 103.11627906976744,
          "velocity": 0.49606299212598426
        },
        {
          "duration": 0.04651162790698038,
          "durationTicks": 4,
          "midi": 41,
          "name": "F2",
          "ticks": 8876,
          "time": 103.20930232558139,
          "velocity": 0.4645669291338583
        },
        {
          "duration": 0.23255813953487348,
          "durationTicks": 20,
          "midi": 72,
          "name": "C5",
          "ticks": 8878,
          "time": 103.23255813953489,
          "velocity": 0.16535433070866143
        },
        {
          "duration": 0.034883720930224626,
          "durationTicks": 3,
          "midi": 88,
          "name": "E6",
          "ticks": 8878,
          "time": 103.23255813953489,
          "velocity": 0.07874015748031496
        },
        {
          "duration": 0.2325581395348877,
          "durationTicks": 20,
          "midi": 57,
          "name": "A3",
          "ticks": 8879,
          "time": 103.24418604651163,
          "velocity": 0.4094488188976378
        },
        {
          "duration": 0.24418604651162923,
          "durationTicks": 21,
          "midi": 66,
          "name": "F#4",
          "ticks": 8879,
          "time": 103.24418604651163,
          "velocity": 0.2283464566929134
        },
        {
          "duration": 0.11627906976744384,
          "durationTicks": 10,
          "midi": 93,
          "name": "A6",
          "ticks": 8879,
          "time": 103.24418604651163,
          "velocity": 0.10236220472440945
        },
        {
          "duration": 0.22093023255814614,
          "durationTicks": 19,
          "midi": 62,
          "name": "D4",
          "ticks": 8880,
          "time": 103.25581395348837,
          "velocity": 0.30708661417322836
        },
        {
          "duration": 0.03488372093023884,
          "durationTicks": 3,
          "midi": 39,
          "name": "D#2",
          "ticks": 8881,
          "time": 103.26744186046511,
          "velocity": 0.4645669291338583
        },
        {
          "duration": 0.19767441860464885,
          "durationTicks": 17,
          "midi": 50,
          "name": "D3",
          "ticks": 8881,
          "time": 103.26744186046511,
          "velocity": 0.41732283464566927
        },
        {
          "duration": 0.04651162790698038,
          "durationTicks": 4,
          "midi": 38,
          "name": "D2",
          "ticks": 8884,
          "time": 103.30232558139535,
          "velocity": 0.3937007874015748
        },
        {
          "duration": 0.1046511627907023,
          "durationTicks": 9,
          "midi": 80,
          "name": "G#5",
          "ticks": 8884,
          "time": 103.30232558139535,
          "velocity": 0.07874015748031496
        },
        {
          "duration": 0.023255813953483084,
          "durationTicks": 2,
          "midi": 38,
          "name": "D2",
          "ticks": 8889,
          "time": 103.36046511627907,
          "velocity": 0.2992125984251969
        },
        {
          "duration": 0.023255813953497295,
          "durationTicks": 2,
          "midi": 37,
          "name": "C#2",
          "ticks": 8891,
          "time": 103.38372093023256,
          "velocity": 0.2440944881889764
        },
        {
          "duration": 0.04651162790696617,
          "durationTicks": 4,
          "midi": 38,
          "name": "D2",
          "ticks": 8893,
          "time": 103.40697674418605,
          "velocity": 0.2677165354330709
        },
        {
          "duration": 0.023255813953497295,
          "durationTicks": 2,
          "midi": 37,
          "name": "C#2",
          "ticks": 8897,
          "time": 103.45348837209302,
          "velocity": 0.33070866141732286
        },
        {
          "duration": 0.3139534883720927,
          "durationTicks": 27,
          "midi": 79,
          "name": "G5",
          "ticks": 8898,
          "time": 103.46511627906976,
          "velocity": 0.2677165354330709
        },
        {
          "duration": 0.255813953488385,
          "durationTicks": 22,
          "midi": 84,
          "name": "C6",
          "ticks": 8898,
          "time": 103.46511627906976,
          "velocity": 0.31496062992125984
        },
        {
          "duration": 0.11627906976744384,
          "durationTicks": 10,
          "midi": 88,
          "name": "E6",
          "ticks": 8898,
          "time": 103.46511627906976,
          "velocity": 0.2204724409448819
        },
        {
          "duration": 0.1860465116279073,
          "durationTicks": 16,
          "midi": 100,
          "name": "E7",
          "ticks": 8898,
          "time": 103.46511627906976,
          "velocity": 0.33070866141732286
        },
        {
          "duration": 0.22093023255813193,
          "durationTicks": 19,
          "midi": 53,
          "name": "F3",
          "ticks": 8899,
          "time": 103.47674418604652,
          "velocity": 0.44881889763779526
        },
        {
          "duration": 0.22093023255813193,
          "durationTicks": 19,
          "midi": 60,
          "name": "C4",
          "ticks": 8899,
          "time": 103.47674418604652,
          "velocity": 0.4566929133858268
        },
        {
          "duration": 0.09302325581394655,
          "durationTicks": 8,
          "midi": 72,
          "name": "C5",
          "ticks": 8899,
          "time": 103.47674418604652,
          "velocity": 0.4645669291338583
        },
        {
          "duration": 0.12790697674418539,
          "durationTicks": 11,
          "midi": 83,
          "name": "B5",
          "ticks": 8899,
          "time": 103.47674418604652,
          "velocity": 0.1889763779527559
        },
        {
          "duration": 0.05813953488372192,
          "durationTicks": 5,
          "midi": 94,
          "name": "A#6",
          "ticks": 8899,
          "time": 103.47674418604652,
          "velocity": 0.16535433070866143
        },
        {
          "duration": 0.04651162790698038,
          "durationTicks": 4,
          "midi": 42,
          "name": "F#2",
          "ticks": 8900,
          "time": 103.48837209302326,
          "velocity": 0.44881889763779526
        },
        {
          "duration": 0.2093023255813904,
          "durationTicks": 18,
          "midi": 75,
          "name": "D#5",
          "ticks": 8900,
          "time": 103.48837209302326,
          "velocity": 0.14173228346456693
        },
        {
          "duration": 0.19767441860464885,
          "durationTicks": 17,
          "midi": 69,
          "name": "A4",
          "ticks": 8901,
          "time": 103.5,
          "velocity": 0.2047244094488189
        },
        {
          "duration": 0.034883720930224626,
          "durationTicks": 3,
          "midi": 41,
          "name": "F2",
          "ticks": 8904,
          "time": 103.53488372093024,
          "velocity": 0.4409448818897638
        },
        {
          "duration": 0.03488372093023884,
          "durationTicks": 3,
          "midi": 40,
          "name": "E2",
          "ticks": 8909,
          "time": 103.59302325581395,
          "velocity": 0.29133858267716534
        },
        {
          "duration": 0.081395348837205,
          "durationTicks": 7,
          "midi": 41,
          "name": "F2",
          "ticks": 8912,
          "time": 103.62790697674419,
          "velocity": 0.3543307086614173
        },
        {
          "duration": 0.1046511627907023,
          "durationTicks": 9,
          "midi": 88,
          "name": "E6",
          "ticks": 8912,
          "time": 103.62790697674419,
          "velocity": 0.10236220472440945
        },
        {
          "duration": 0.023255813953497295,
          "durationTicks": 2,
          "midi": 57,
          "name": "A3",
          "ticks": 8918,
          "time": 103.69767441860465,
          "velocity": 0.29133858267716534
        },
        {
          "duration": 0.06976744186046346,
          "durationTicks": 6,
          "midi": 74,
          "name": "D5",
          "ticks": 8918,
          "time": 103.69767441860465,
          "velocity": 0.4409448818897638
        },
        {
          "duration": 1.581395348837205,
          "durationTicks": 136,
          "midi": 83,
          "name": "B5",
          "ticks": 8918,
          "time": 103.69767441860465,
          "velocity": 0.2677165354330709
        },
        {
          "duration": 0.25581395348837077,
          "durationTicks": 22,
          "midi": 90,
          "name": "F#6",
          "ticks": 8918,
          "time": 103.69767441860465,
          "velocity": 0.13385826771653545
        },
        {
          "duration": 0.16279069767442422,
          "durationTicks": 14,
          "midi": 102,
          "name": "F#7",
          "ticks": 8918,
          "time": 103.69767441860465,
          "velocity": 0.31496062992125984
        },
        {
          "duration": 0.7674418604651265,
          "durationTicks": 66,
          "midi": 62,
          "name": "D4",
          "ticks": 8919,
          "time": 103.70930232558139,
          "velocity": 0.5039370078740157
        },
        {
          "duration": 0.3139534883720927,
          "durationTicks": 27,
          "midi": 81,
          "name": "A5",
          "ticks": 8919,
          "time": 103.70930232558139,
          "velocity": 0.2677165354330709
        },
        {
          "duration": 0.011627906976741542,
          "durationTicks": 1,
          "midi": 42,
          "name": "F#2",
          "ticks": 8920,
          "time": 103.72093023255815,
          "velocity": 0.5118110236220472
        },
        {
          "duration": 0.06976744186046346,
          "durationTicks": 6,
          "midi": 69,
          "name": "A4",
          "ticks": 8920,
          "time": 103.72093023255815,
          "velocity": 0.2047244094488189
        },
        {
          "duration": 0.034883720930224626,
          "durationTicks": 3,
          "midi": 43,
          "name": "G2",
          "ticks": 8921,
          "time": 103.73255813953489,
          "velocity": 0.4566929133858268
        },
        {
          "duration": 0.05813953488372192,
          "durationTicks": 5,
          "midi": 72,
          "name": "C5",
          "ticks": 8921,
          "time": 103.73255813953489,
          "velocity": 0.2992125984251969
        },
        {
          "duration": 0.03488372093023884,
          "durationTicks": 3,
          "midi": 43,
          "name": "G2",
          "ticks": 8925,
          "time": 103.77906976744185,
          "velocity": 0.4015748031496063
        },
        {
          "duration": 0.03488372093023884,
          "durationTicks": 3,
          "midi": 71,
          "name": "B4",
          "ticks": 8925,
          "time": 103.77906976744185,
          "velocity": 0.12598425196850394
        },
        {
          "duration": 0.03488372093023884,
          "durationTicks": 3,
          "midi": 55,
          "name": "G3",
          "ticks": 8928,
          "time": 103.81395348837209,
          "velocity": 0.15748031496062992
        },
        {
          "duration": 0.03488372093023884,
          "durationTicks": 3,
          "midi": 72,
          "name": "C5",
          "ticks": 8928,
          "time": 103.81395348837209,
          "velocity": 0.2204724409448819
        },
        {
          "duration": 0.32558139534883423,
          "durationTicks": 28,
          "midi": 43,
          "name": "G2",
          "ticks": 8929,
          "time": 103.82558139534883,
          "velocity": 0.36220472440944884
        },
        {
          "duration": 0.023255813953483084,
          "durationTicks": 2,
          "midi": 50,
          "name": "D3",
          "ticks": 8931,
          "time": 103.84883720930233,
          "velocity": 0.25196850393700787
        },
        {
          "duration": 0.034883720930224626,
          "durationTicks": 3,
          "midi": 73,
          "name": "C#5",
          "ticks": 8931,
          "time": 103.84883720930233,
          "velocity": 0.15748031496062992
        },
        {
          "duration": 0.04651162790698038,
          "durationTicks": 4,
          "midi": 50,
          "name": "D3",
          "ticks": 8938,
          "time": 103.93023255813954,
          "velocity": 0.1968503937007874
        },
        {
          "duration": 0.04651162790698038,
          "durationTicks": 4,
          "midi": 59,
          "name": "B3",
          "ticks": 8940,
          "time": 103.95348837209302,
          "velocity": 0.10236220472440945
        },
        {
          "duration": 0.04651162790698038,
          "durationTicks": 4,
          "midi": 50,
          "name": "D3",
          "ticks": 8945,
          "time": 104.01162790697674,
          "velocity": 0.1889763779527559
        },
        {
          "duration": 0.04651162790696617,
          "durationTicks": 4,
          "midi": 59,
          "name": "B3",
          "ticks": 8947,
          "time": 104.03488372093024,
          "velocity": 0.08661417322834646
        },
        {
          "duration": 0.05813953488372192,
          "durationTicks": 5,
          "midi": 81,
          "name": "A5",
          "ticks": 8950,
          "time": 104.06976744186046,
          "velocity": 0.08661417322834646
        },
        {
          "duration": 0.034883720930224626,
          "durationTicks": 3,
          "midi": 59,
          "name": "B3",
          "ticks": 8954,
          "time": 104.11627906976744,
          "velocity": 0.07086614173228346
        },
        {
          "duration": 0.03488372093023884,
          "durationTicks": 3,
          "midi": 42,
          "name": "F#2",
          "ticks": 8957,
          "time": 104.15116279069767,
          "velocity": 0.5039370078740157
        },
        {
          "duration": 0.6860465116279073,
          "durationTicks": 59,
          "midi": 65,
          "name": "F4",
          "ticks": 8957,
          "time": 104.15116279069767,
          "velocity": 0.2283464566929134
        },
        {
          "duration": 0.04651162790696617,
          "durationTicks": 4,
          "midi": 81,
          "name": "A5",
          "ticks": 8958,
          "time": 104.16279069767442,
          "velocity": 0.14960629921259844
        },
        {
          "duration": 0.04651162790698038,
          "durationTicks": 4,
          "midi": 71,
          "name": "B4",
          "ticks": 8959,
          "time": 104.17441860465117,
          "velocity": 0.14173228346456693
        },
        {
          "duration": 0.06976744186046346,
          "durationTicks": 6,
          "midi": 90,
          "name": "F#6",
          "ticks": 8959,
          "time": 104.17441860465117,
          "velocity": 0.09448818897637795
        },
        {
          "duration": 0.03488372093023884,
          "durationTicks": 3,
          "midi": 43,
          "name": "G2",
          "ticks": 8960,
          "time": 104.18604651162791,
          "velocity": 0.47244094488188976
        },
        {
          "duration": 0.04651162790698038,
          "durationTicks": 4,
          "midi": 59,
          "name": "B3",
          "ticks": 8960,
          "time": 104.18604651162791,
          "velocity": 0.2125984251968504
        },
        {
          "duration": 0.023255813953483084,
          "durationTicks": 2,
          "midi": 50,
          "name": "D3",
          "ticks": 8963,
          "time": 104.22093023255815,
          "velocity": 0.23622047244094488
        },
        {
          "duration": 0.38372093023255616,
          "durationTicks": 33,
          "midi": 43,
          "name": "G2",
          "ticks": 8964,
          "time": 104.23255813953489,
          "velocity": 0.3937007874015748
        },
        {
          "duration": 0.06976744186046346,
          "durationTicks": 6,
          "midi": 59,
          "name": "B3",
          "ticks": 8965,
          "time": 104.24418604651163,
          "velocity": 0.16535433070866143
        },
        {
          "duration": 0.05813953488372192,
          "durationTicks": 5,
          "midi": 81,
          "name": "A5",
          "ticks": 8965,
          "time": 104.24418604651163,
          "velocity": 0.10236220472440945
        },
        {
          "duration": 0.023255813953483084,
          "durationTicks": 2,
          "midi": 50,
          "name": "D3",
          "ticks": 8970,
          "time": 104.30232558139535,
          "velocity": 0.23622047244094488
        },
        {
          "duration": 0.2906976744186096,
          "durationTicks": 25,
          "midi": 59,
          "name": "B3",
          "ticks": 8972,
          "time": 104.32558139534883,
          "velocity": 0.11811023622047244
        },
        {
          "duration": 0.04651162790698038,
          "durationTicks": 4,
          "midi": 50,
          "name": "D3",
          "ticks": 8977,
          "time": 104.38372093023256,
          "velocity": 0.1968503937007874
        },
        {
          "duration": 0.23255813953487348,
          "durationTicks": 20,
          "midi": 73,
          "name": "C#5",
          "ticks": 8980,
          "time": 104.4186046511628,
          "velocity": 0.13385826771653545
        },
        {
          "duration": 0.04651162790698038,
          "durationTicks": 4,
          "midi": 50,
          "name": "D3",
          "ticks": 8984,
          "time": 104.46511627906976,
          "velocity": 0.18110236220472442
        },
        {
          "duration": 0.023255813953483084,
          "durationTicks": 2,
          "midi": 50,
          "name": "D3",
          "ticks": 8996,
          "time": 104.6046511627907,
          "velocity": 0.33070866141732286
        },
        {
          "duration": 0.09302325581396076,
          "durationTicks": 8,
          "midi": 50,
          "name": "D3",
          "ticks": 8999,
          "time": 104.63953488372093,
          "velocity": 0.36220472440944884
        },
        {
          "duration": 0.09302325581396076,
          "durationTicks": 8,
          "midi": 81,
          "name": "A5",
          "ticks": 8999,
          "time": 104.63953488372093,
          "velocity": 0.09448818897637795
        },
        {
          "duration": 0.03488372093023884,
          "durationTicks": 3,
          "midi": 43,
          "name": "G2",
          "ticks": 9000,
          "time": 104.65116279069767,
          "velocity": 0.4409448818897638
        },
        {
          "duration": 0.16279069767441,
          "durationTicks": 14,
          "midi": 59,
          "name": "B3",
          "ticks": 9001,
          "time": 104.66279069767442,
          "velocity": 0.18110236220472442
        },
        {
          "duration": 0.16279069767441,
          "durationTicks": 14,
          "midi": 73,
          "name": "C#5",
          "ticks": 9001,
          "time": 104.66279069767442,
          "velocity": 0.1732283464566929
        },
        {
          "duration": 0.13953488372092693,
          "durationTicks": 12,
          "midi": 43,
          "name": "G2",
          "ticks": 9004,
          "time": 104.69767441860465,
          "velocity": 0.3700787401574803
        },
        {
          "duration": 0.04651162790698038,
          "durationTicks": 4,
          "midi": 50,
          "name": "D3",
          "ticks": 9010,
          "time": 104.76744186046511,
          "velocity": 0.25984251968503935
        },
        {
          "duration": 0.023255813953497295,
          "durationTicks": 2,
          "midi": 70,
          "name": "A#4",
          "ticks": 9015,
          "time": 104.82558139534883,
          "velocity": 0.44881889763779526
        },
        {
          "duration": 0.023255813953497295,
          "durationTicks": 2,
          "midi": 56,
          "name": "G#3",
          "ticks": 9016,
          "time": 104.83720930232558,
          "velocity": 0.4251968503937008
        },
        {
          "duration": 0.05813953488372192,
          "durationTicks": 5,
          "midi": 73,
          "name": "C#5",
          "ticks": 9016,
          "time": 104.83720930232558,
          "velocity": 0.30708661417322836
        },
        {
          "duration": 0.4651162790697754,
          "durationTicks": 40,
          "midi": 88,
          "name": "E6",
          "ticks": 9016,
          "time": 104.83720930232558,
          "velocity": 0.2440944881889764
        },
        {
          "duration": 0.23255813953487348,
          "durationTicks": 20,
          "midi": 69,
          "name": "A4",
          "ticks": 9017,
          "time": 104.84883720930233,
          "velocity": 0.5984251968503937
        },
        {
          "duration": 0.1860465116279073,
          "durationTicks": 16,
          "midi": 77,
          "name": "F5",
          "ticks": 9017,
          "time": 104.84883720930233,
          "velocity": 0.2440944881889764
        },
        {
          "duration": 0.081395348837205,
          "durationTicks": 7,
          "midi": 91,
          "name": "G6",
          "ticks": 9019,
          "time": 104.87209302325581,
          "velocity": 0.11811023622047244
        },
        {
          "duration": 0.04651162790698038,
          "durationTicks": 4,
          "midi": 50,
          "name": "D3",
          "ticks": 9020,
          "time": 104.88372093023256,
          "velocity": 0.3228346456692913
        },
        {
          "duration": 0.023255813953497295,
          "durationTicks": 2,
          "midi": 59,
          "name": "B3",
          "ticks": 9020,
          "time": 104.88372093023256,
          "velocity": 0.28346456692913385
        },
        {
          "duration": 0.1860465116279073,
          "durationTicks": 16,
          "midi": 65,
          "name": "F4",
          "ticks": 9020,
          "time": 104.88372093023256,
          "velocity": 0.1732283464566929
        },
        {
          "duration": 0.023255813953497295,
          "durationTicks": 2,
          "midi": 42,
          "name": "F#2",
          "ticks": 9021,
          "time": 104.8953488372093,
          "velocity": 0.3464566929133858
        },
        {
          "duration": 0.17441860465115155,
          "durationTicks": 15,
          "midi": 73,
          "name": "C#5",
          "ticks": 9022,
          "time": 104.90697674418605,
          "velocity": 0.3228346456692913
        },
        {
          "duration": 0.15116279069766847,
          "durationTicks": 13,
          "midi": 43,
          "name": "G2",
          "ticks": 9023,
          "time": 104.9186046511628,
          "velocity": 0.33858267716535434
        },
        {
          "duration": 0.023255813953483084,
          "durationTicks": 2,
          "midi": 58,
          "name": "A#3",
          "ticks": 9025,
          "time": 104.94186046511628,
          "velocity": 0.30708661417322836
        },
        {
          "duration": 0.023255813953497295,
          "durationTicks": 2,
          "midi": 57,
          "name": "A3",
          "ticks": 9027,
          "time": 104.96511627906976,
          "velocity": 0.25196850393700787
        },
        {
          "duration": 0.023255813953483084,
          "durationTicks": 2,
          "midi": 57,
          "name": "A3",
          "ticks": 9033,
          "time": 105.03488372093024,
          "velocity": 0.25984251968503935
        },
        {
          "duration": 0.2325581395348877,
          "durationTicks": 20,
          "midi": 60,
          "name": "C4",
          "ticks": 9036,
          "time": 105.06976744186046,
          "velocity": 0.5118110236220472
        },
        {
          "duration": 0.023255813953483084,
          "durationTicks": 2,
          "midi": 68,
          "name": "G#4",
          "ticks": 9036,
          "time": 105.06976744186046,
          "velocity": 0.5354330708661418
        },
        {
          "duration": 0.15116279069768268,
          "durationTicks": 13,
          "midi": 96,
          "name": "C7",
          "ticks": 9036,
          "time": 105.06976744186046,
          "velocity": 0.29133858267716534
        },
        {
          "duration": 0.1860465116279073,
          "durationTicks": 16,
          "midi": 100,
          "name": "E7",
          "ticks": 9036,
          "time": 105.06976744186046,
          "velocity": 0.33070866141732286
        },
        {
          "duration": 0.2093023255814046,
          "durationTicks": 18,
          "midi": 74,
          "name": "D5",
          "ticks": 9037,
          "time": 105.0813953488372,
          "velocity": 0.2992125984251969
        },
        {
          "duration": 0.2093023255814046,
          "durationTicks": 18,
          "midi": 77,
          "name": "F5",
          "ticks": 9037,
          "time": 105.0813953488372,
          "velocity": 0.2283464566929134
        },
        {
          "duration": 0.15116279069768268,
          "durationTicks": 13,
          "midi": 90,
          "name": "F#6",
          "ticks": 9037,
          "time": 105.0813953488372,
          "velocity": 0.08661417322834646
        },
        {
          "duration": 0.023255813953497295,
          "durationTicks": 2,
          "midi": 42,
          "name": "F#2",
          "ticks": 9038,
          "time": 105.09302325581395,
          "velocity": 0.4251968503937008
        },
        {
          "duration": 0.2906976744186096,
          "durationTicks": 25,
          "midi": 67,
          "name": "G4",
          "ticks": 9038,
          "time": 105.09302325581395,
          "velocity": 0.5511811023622047
        },
        {
          "duration": 0.16279069767442422,
          "durationTicks": 14,
          "midi": 93,
          "name": "A6",
          "ticks": 9038,
          "time": 105.09302325581395,
          "velocity": 0.16535433070866143
        },
        {
          "duration": 0.1860465116279073,
          "durationTicks": 16,
          "midi": 55,
          "name": "G3",
          "ticks": 9039,
          "time": 105.1046511627907,
          "velocity": 0.44881889763779526
        },
        {
          "duration": 0.19767441860464885,
          "durationTicks": 17,
          "midi": 91,
          "name": "G6",
          "ticks": 9040,
          "time": 105.11627906976744,
          "velocity": 0.2283464566929134
        },
        {
          "duration": 0.13953488372094114,
          "durationTicks": 12,
          "midi": 43,
          "name": "G2",
          "ticks": 9043,
          "time": 105.15116279069767,
          "velocity": 0.3543307086614173
        },
        {
          "duration": 0.8720930232558146,
          "durationTicks": 75,
          "midi": 81,
          "name": "A5",
          "ticks": 9054,
          "time": 105.27906976744185,
          "velocity": 0.2992125984251969
        },
        {
          "duration": 0.023255813953483084,
          "durationTicks": 2,
          "midi": 48,
          "name": "C3",
          "ticks": 9055,
          "time": 105.29069767441861,
          "velocity": 0.44881889763779526
        },
        {
          "duration": 0.034883720930224626,
          "durationTicks": 3,
          "midi": 85,
          "name": "C#6",
          "ticks": 9055,
          "time": 105.29069767441861,
          "velocity": 0.08661417322834646
        },
        {
          "duration": 0.6860465116279073,
          "durationTicks": 59,
          "midi": 86,
          "name": "D6",
          "ticks": 9055,
          "time": 105.29069767441861,
          "velocity": 0.33858267716535434
        },
        {
          "duration": 0.16279069767441,
          "durationTicks": 14,
          "midi": 102,
          "name": "F#7",
          "ticks": 9055,
          "time": 105.29069767441861,
          "velocity": 0.31496062992125984
        },
        {
          "duration": 0.034883720930224626,
          "durationTicks": 3,
          "midi": 57,
          "name": "A3",
          "ticks": 9056,
          "time": 105.30232558139535,
          "velocity": 0.30708661417322836
        },
        {
          "duration": 1.139534883720927,
          "durationTicks": 98,
          "midi": 62,
          "name": "D4",
          "ticks": 9056,
          "time": 105.30232558139535,
          "velocity": 0.5433070866141733
        },
        {
          "duration": 0.2325581395348877,
          "durationTicks": 20,
          "midi": 90,
          "name": "F#6",
          "ticks": 9056,
          "time": 105.30232558139535,
          "velocity": 0.15748031496062992
        },
        {
          "duration": 0.6744186046511658,
          "durationTicks": 58,
          "midi": 50,
          "name": "D3",
          "ticks": 9057,
          "time": 105.31395348837209,
          "velocity": 0.4881889763779528
        },
        {
          "duration": 0.09302325581396076,
          "durationTicks": 8,
          "midi": 76,
          "name": "E5",
          "ticks": 9059,
          "time": 105.33720930232558,
          "velocity": 0.11811023622047244
        },
        {
          "duration": 0.6511627906976685,
          "durationTicks": 56,
          "midi": 57,
          "name": "A3",
          "ticks": 9060,
          "time": 105.34883720930233,
          "velocity": 0.3700787401574803
        },
        {
          "duration": 0.04651162790696617,
          "durationTicks": 4,
          "midi": 85,
          "name": "C#6",
          "ticks": 9060,
          "time": 105.34883720930233,
          "velocity": 0.07086614173228346
        },
        {
          "duration": 0.023255813953483084,
          "durationTicks": 2,
          "midi": 38,
          "name": "D2",
          "ticks": 9061,
          "time": 105.36046511627907,
          "velocity": 0.41732283464566927
        },
        {
          "duration": 0.6162790697674438,
          "durationTicks": 53,
          "midi": 66,
          "name": "F#4",
          "ticks": 9063,
          "time": 105.38372093023256,
          "velocity": 0.29133858267716534
        },
        {
          "duration": 1.5232558139534973,
          "durationTicks": 131,
          "midi": 69,
          "name": "A4",
          "ticks": 9063,
          "time": 105.38372093023256,
          "velocity": 0.5275590551181102
        },
        {
          "duration": 0.05813953488372192,
          "durationTicks": 5,
          "midi": 38,
          "name": "D2",
          "ticks": 9064,
          "time": 105.3953488372093,
          "velocity": 0.3464566929133858
        },
        {
          "duration": 0.023255813953497295,
          "durationTicks": 2,
          "midi": 37,
          "name": "C#2",
          "ticks": 9069,
          "time": 105.45348837209302,
          "velocity": 0.25984251968503935
        },
        {
          "duration": 0.06976744186046346,
          "durationTicks": 6,
          "midi": 72,
          "name": "C5",
          "ticks": 9069,
          "time": 105.45348837209302,
          "velocity": 0.16535433070866143
        },
        {
          "duration": 0.04651162790696617,
          "durationTicks": 4,
          "midi": 38,
          "name": "D2",
          "ticks": 9071,
          "time": 105.47674418604652,
          "velocity": 0.29133858267716534
        },
        {
          "duration": 0.1860465116279073,
          "durationTicks": 16,
          "midi": 88,
          "name": "E6",
          "ticks": 9075,
          "time": 105.52325581395348,
          "velocity": 0.2125984251968504
        },
        {
          "duration": 0.16279069767442422,
          "durationTicks": 14,
          "midi": 102,
          "name": "F#7",
          "ticks": 9075,
          "time": 105.52325581395348,
          "velocity": 0.3228346456692913
        },
        {
          "duration": 0.4186046511627808,
          "durationTicks": 36,
          "midi": 72,
          "name": "C5",
          "ticks": 9076,
          "time": 105.53488372093024,
          "velocity": 0.33858267716535434
        },
        {
          "duration": 0.16279069767442422,
          "durationTicks": 14,
          "midi": 80,
          "name": "G#5",
          "ticks": 9078,
          "time": 105.55813953488372,
          "velocity": 0.13385826771653545
        },
        {
          "duration": 0.034883720930224626,
          "durationTicks": 3,
          "midi": 90,
          "name": "F#6",
          "ticks": 9078,
          "time": 105.55813953488372,
          "velocity": 0.16535433070866143
        },
        {
          "duration": 0.03488372093023884,
          "durationTicks": 3,
          "midi": 38,
          "name": "D2",
          "ticks": 9079,
          "time": 105.56976744186046,
          "velocity": 0.44881889763779526
        },
        {
          "duration": 0.06976744186046346,
          "durationTicks": 6,
          "midi": 38,
          "name": "D2",
          "ticks": 9083,
          "time": 105.61627906976744,
          "velocity": 0.4015748031496063
        },
        {
          "duration": 0.11627906976744384,
          "durationTicks": 10,
          "midi": 90,
          "name": "F#6",
          "ticks": 9083,
          "time": 105.61627906976744,
          "velocity": 0.12598425196850394
        },
        {
          "duration": 0.3139534883720927,
          "durationTicks": 27,
          "midi": 38,
          "name": "D2",
          "ticks": 9090,
          "time": 105.69767441860465,
          "velocity": 0.3464566929133858
        },
        {
          "duration": 0.03488372093023884,
          "durationTicks": 3,
          "midi": 90,
          "name": "F#6",
          "ticks": 9095,
          "time": 105.75581395348837,
          "velocity": 0.07086614173228346
        },
        {
          "duration": 0.023255813953497295,
          "durationTicks": 2,
          "midi": 40,
          "name": "E2",
          "ticks": 9117,
          "time": 106.01162790697674,
          "velocity": 0.44881889763779526
        },
        {
          "duration": 0.8953488372093119,
          "durationTicks": 77,
          "midi": 57,
          "name": "A3",
          "ticks": 9117,
          "time": 106.01162790697674,
          "velocity": 0.3858267716535433
        },
        {
          "duration": 0.6627906976744242,
          "durationTicks": 57,
          "midi": 72,
          "name": "C5",
          "ticks": 9117,
          "time": 106.01162790697674,
          "velocity": 0.10236220472440945
        },
        {
          "duration": 0.04651162790698038,
          "durationTicks": 4,
          "midi": 90,
          "name": "F#6",
          "ticks": 9117,
          "time": 106.01162790697674,
          "velocity": 0.15748031496062992
        },
        {
          "duration": 0.418604651162795,
          "durationTicks": 36,
          "midi": 50,
          "name": "D3",
          "ticks": 9118,
          "time": 106.02325581395348,
          "velocity": 0.4330708661417323
        },
        {
          "duration": 0.8837209302325704,
          "durationTicks": 76,
          "midi": 66,
          "name": "F#4",
          "ticks": 9118,
          "time": 106.02325581395348,
          "velocity": 0.2677165354330709
        },
        {
          "duration": 0.16279069767442422,
          "durationTicks": 14,
          "midi": 76,
          "name": "E5",
          "ticks": 9118,
          "time": 106.02325581395348,
          "velocity": 0.07086614173228346
        },
        {
          "duration": 0.034883720930224626,
          "durationTicks": 3,
          "midi": 39,
          "name": "D#2",
          "ticks": 9119,
          "time": 106.03488372093024,
          "velocity": 0.44881889763779526
        },
        {
          "duration": 0.09302325581396076,
          "durationTicks": 8,
          "midi": 38,
          "name": "D2",
          "ticks": 9122,
          "time": 106.06976744186046,
          "velocity": 0.4094488188976378
        },
        {
          "duration": 0.2674418604651123,
          "durationTicks": 23,
          "midi": 38,
          "name": "D2",
          "ticks": 9131,
          "time": 106.17441860465117,
          "velocity": 0.28346456692913385
        },
        {
          "duration": 0.06976744186046346,
          "durationTicks": 6,
          "midi": 90,
          "name": "F#6",
          "ticks": 9155,
          "time": 106.45348837209302,
          "velocity": 0.09448818897637795
        },
        {
          "duration": 0.05813953488372192,
          "durationTicks": 5,
          "midi": 93,
          "name": "A6",
          "ticks": 9155,
          "time": 106.45348837209302,
          "velocity": 0.10236220472440945
        },
        {
          "duration": 0.4418604651162923,
          "durationTicks": 38,
          "midi": 50,
          "name": "D3",
          "ticks": 9156,
          "time": 106.46511627906976,
          "velocity": 0.4881889763779528
        },
        {
          "duration": 0.03488372093023884,
          "durationTicks": 3,
          "midi": 82,
          "name": "A#5",
          "ticks": 9156,
          "time": 106.46511627906976,
          "velocity": 0.08661417322834646
        },
        {
          "duration": 0.034883720930224626,
          "durationTicks": 3,
          "midi": 39,
          "name": "D#2",
          "ticks": 9157,
          "time": 106.47674418604652,
          "velocity": 0.41732283464566927
        },
        {
          "duration": 0.13953488372092693,
          "durationTicks": 12,
          "midi": 80,
          "name": "G#5",
          "ticks": 9157,
          "time": 106.47674418604652,
          "velocity": 0.11811023622047244
        },
        {
          "duration": 0.09302325581396076,
          "durationTicks": 8,
          "midi": 38,
          "name": "D2",
          "ticks": 9160,
          "time": 106.51162790697674,
          "velocity": 0.41732283464566927
        },
        {
          "duration": 0.05813953488372192,
          "durationTicks": 5,
          "midi": 38,
          "name": "D2",
          "ticks": 9169,
          "time": 106.61627906976744,
          "velocity": 0.2755905511811024
        },
        {
          "duration": 0.19767441860464885,
          "durationTicks": 17,
          "midi": 80,
          "name": "G#5",
          "ticks": 9174,
          "time": 106.67441860465117,
          "velocity": 0.14960629921259844
        },
        {
          "duration": 0.023255813953483084,
          "durationTicks": 2,
          "midi": 40,
          "name": "E2",
          "ticks": 9175,
          "time": 106.68604651162791,
          "velocity": 0.4409448818897638
        },
        {
          "duration": 0.09302325581394655,
          "durationTicks": 8,
          "midi": 90,
          "name": "F#6",
          "ticks": 9175,
          "time": 106.68604651162791,
          "velocity": 0.10236220472440945
        },
        {
          "duration": 0.5581395348837219,
          "durationTicks": 48,
          "midi": 72,
          "name": "C5",
          "ticks": 9176,
          "time": 106.69767441860465,
          "velocity": 0.23622047244094488
        },
        {
          "duration": 0.023255813953497295,
          "durationTicks": 2,
          "midi": 39,
          "name": "D#2",
          "ticks": 9177,
          "time": 106.70930232558139,
          "velocity": 0.4645669291338583
        },
        {
          "duration": 0.10465116279068809,
          "durationTicks": 9,
          "midi": 38,
          "name": "D2",
          "ticks": 9179,
          "time": 106.73255813953489,
          "velocity": 0.4409448818897638
        },
        {
          "duration": 0.05813953488372192,
          "durationTicks": 5,
          "midi": 38,
          "name": "D2",
          "ticks": 9189,
          "time": 106.84883720930233,
          "velocity": 0.30708661417322836
        },
        {
          "duration": 0.22093023255813193,
          "durationTicks": 19,
          "midi": 60,
          "name": "C4",
          "ticks": 9194,
          "time": 106.90697674418605,
          "velocity": 0.31496062992125984
        },
        {
          "duration": 0.034883720930224626,
          "durationTicks": 3,
          "midi": 68,
          "name": "G#4",
          "ticks": 9194,
          "time": 106.90697674418605,
          "velocity": 0.16535433070866143
        },
        {
          "duration": 0.06976744186046346,
          "durationTicks": 6,
          "midi": 77,
          "name": "F5",
          "ticks": 9194,
          "time": 106.90697674418605,
          "velocity": 0.4251968503937008
        },
        {
          "duration": 0.30232558139533694,
          "durationTicks": 26,
          "midi": 83,
          "name": "B5",
          "ticks": 9194,
          "time": 106.90697674418605,
          "velocity": 0.2440944881889764
        },
        {
          "duration": 0.2093023255813904,
          "durationTicks": 18,
          "midi": 84,
          "name": "C6",
          "ticks": 9194,
          "time": 106.90697674418605,
          "velocity": 0.25196850393700787
        },
        {
          "duration": 0.13953488372092693,
          "durationTicks": 12,
          "midi": 96,
          "name": "C7",
          "ticks": 9194,
          "time": 106.90697674418605,
          "velocity": 0.2677165354330709
        },
        {
          "duration": 0.10465116279068809,
          "durationTicks": 9,
          "midi": 101,
          "name": "F7",
          "ticks": 9194,
          "time": 106.90697674418605,
          "velocity": 0.2755905511811024
        },
        {
          "duration": 0.22093023255813193,
          "durationTicks": 19,
          "midi": 53,
          "name": "F3",
          "ticks": 9195,
          "time": 106.9186046511628,
          "velocity": 0.44881889763779526
        },
        {
          "duration": 0.13953488372092693,
          "durationTicks": 12,
          "midi": 65,
          "name": "F4",
          "ticks": 9195,
          "time": 106.9186046511628,
          "velocity": 0.5511811023622047
        },
        {
          "duration": 0.15116279069766847,
          "durationTicks": 13,
          "midi": 93,
          "name": "A6",
          "ticks": 9195,
          "time": 106.9186046511628,
          "velocity": 0.1732283464566929
        },
        {
          "duration": 0.04651162790698038,
          "durationTicks": 4,
          "midi": 42,
          "name": "F#2",
          "ticks": 9196,
          "time": 106.93023255813954,
          "velocity": 0.4566929133858268
        },
        {
          "duration": 0.081395348837205,
          "durationTicks": 7,
          "midi": 69,
          "name": "A4",
          "ticks": 9197,
          "time": 106.94186046511628,
          "velocity": 0.2204724409448819
        },
        {
          "duration": 0.06976744186046346,
          "durationTicks": 6,
          "midi": 79,
          "name": "G5",
          "ticks": 9197,
          "time": 106.94186046511628,
          "velocity": 0.08661417322834646
        },
        {
          "duration": 0.05813953488372192,
          "durationTicks": 5,
          "midi": 75,
          "name": "D#5",
          "ticks": 9199,
          "time": 106.96511627906976,
          "velocity": 0.12598425196850394
        },
        {
          "duration": 0.034883720930224626,
          "durationTicks": 3,
          "midi": 41,
          "name": "F2",
          "ticks": 9200,
          "time": 106.97674418604652,
          "velocity": 0.44881889763779526
        },
        {
          "duration": 0.023255813953497295,
          "durationTicks": 2,
          "midi": 41,
          "name": "F2",
          "ticks": 9204,
          "time": 107.02325581395348,
          "velocity": 0.2992125984251969
        },
        {
          "duration": 0.1860465116279073,
          "durationTicks": 16,
          "midi": 88,
          "name": "E6",
          "ticks": 9204,
          "time": 107.02325581395348,
          "velocity": 0.2440944881889764
        },
        {
          "duration": 0.11627906976744384,
          "durationTicks": 10,
          "midi": 100,
          "name": "E7",
          "ticks": 9204,
          "time": 107.02325581395348,
          "velocity": 0.2755905511811024
        },
        {
          "duration": 0.04651162790696617,
          "durationTicks": 4,
          "midi": 76,
          "name": "E5",
          "ticks": 9205,
          "time": 107.03488372093024,
          "velocity": 0.4330708661417323
        },
        {
          "duration": 0.17441860465115155,
          "durationTicks": 15,
          "midi": 92,
          "name": "G#6",
          "ticks": 9205,
          "time": 107.03488372093024,
          "velocity": 0.15748031496062992
        },
        {
          "duration": 0.06976744186046346,
          "durationTicks": 6,
          "midi": 98,
          "name": "D7",
          "ticks": 9205,
          "time": 107.03488372093024,
          "velocity": 0.10236220472440945
        },
        {
          "duration": 0.023255813953483084,
          "durationTicks": 2,
          "midi": 40,
          "name": "E2",
          "ticks": 9206,
          "time": 107.04651162790698,
          "velocity": 0.2755905511811024
        },
        {
          "duration": 0.2093023255813904,
          "durationTicks": 18,
          "midi": 69,
          "name": "A4",
          "ticks": 9206,
          "time": 107.04651162790698,
          "velocity": 0.31496062992125984
        },
        {
          "duration": 0.1046511627907023,
          "durationTicks": 9,
          "midi": 64,
          "name": "E4",
          "ticks": 9207,
          "time": 107.05813953488372,
          "velocity": 0.5511811023622047
        },
        {
          "duration": 0.06976744186046346,
          "durationTicks": 6,
          "midi": 41,
          "name": "F2",
          "ticks": 9208,
          "time": 107.06976744186046,
          "velocity": 0.30708661417322836
        },
        {
          "duration": 0.03488372093023884,
          "durationTicks": 3,
          "midi": 75,
          "name": "D#5",
          "ticks": 9208,
          "time": 107.06976744186046,
          "velocity": 0.09448818897637795
        },
        {
          "duration": 0.12790697674418539,
          "durationTicks": 11,
          "midi": 77,
          "name": "F5",
          "ticks": 9208,
          "time": 107.06976744186046,
          "velocity": 0.4566929133858268
        },
        {
          "duration": 0.16279069767442422,
          "durationTicks": 14,
          "midi": 57,
          "name": "A3",
          "ticks": 9214,
          "time": 107.13953488372093,
          "velocity": 0.3464566929133858
        },
        {
          "duration": 0.15116279069768268,
          "durationTicks": 13,
          "midi": 84,
          "name": "C6",
          "ticks": 9214,
          "time": 107.13953488372093,
          "velocity": 0.25196850393700787
        },
        {
          "duration": 0.09302325581396076,
          "durationTicks": 8,
          "midi": 93,
          "name": "A6",
          "ticks": 9214,
          "time": 107.13953488372093,
          "velocity": 0.2047244094488189
        },
        {
          "duration": 0.11627906976744384,
          "durationTicks": 10,
          "midi": 101,
          "name": "F7",
          "ticks": 9214,
          "time": 107.13953488372093,
          "velocity": 0.28346456692913385
        },
        {
          "duration": 0.023255813953497295,
          "durationTicks": 2,
          "midi": 79,
          "name": "G5",
          "ticks": 9215,
          "time": 107.15116279069767,
          "velocity": 0.25196850393700787
        },
        {
          "duration": 0.05813953488372192,
          "durationTicks": 5,
          "midi": 90,
          "name": "F#6",
          "ticks": 9215,
          "time": 107.15116279069767,
          "velocity": 0.08661417322834646
        },
        {
          "duration": 0.2093023255813904,
          "durationTicks": 18,
          "midi": 50,
          "name": "D3",
          "ticks": 9216,
          "time": 107.16279069767442,
          "velocity": 0.4645669291338583
        },
        {
          "duration": 0.10465116279068809,
          "durationTicks": 9,
          "midi": 65,
          "name": "F4",
          "ticks": 9216,
          "time": 107.16279069767442,
          "velocity": 0.5590551181102362
        },
        {
          "duration": 0.05813953488372192,
          "durationTicks": 5,
          "midi": 39,
          "name": "D#2",
          "ticks": 9217,
          "time": 107.17441860465117,
          "velocity": 0.44881889763779526
        },
        {
          "duration": 0.03488372093023884,
          "durationTicks": 3,
          "midi": 80,
          "name": "G#5",
          "ticks": 9220,
          "time": 107.20930232558139,
          "velocity": 0.07874015748031496
        },
        {
          "duration": 0.04651162790696617,
          "durationTicks": 4,
          "midi": 38,
          "name": "D2",
          "ticks": 9222,
          "time": 107.23255813953489,
          "velocity": 0.36220472440944884
        },
        {
          "duration": 0.7790697674418539,
          "durationTicks": 67,
          "midi": 79,
          "name": "G5",
          "ticks": 9223,
          "time": 107.24418604651163,
          "velocity": 0.48031496062992124
        },
        {
          "duration": 0.04651162790698038,
          "durationTicks": 4,
          "midi": 93,
          "name": "A6",
          "ticks": 9223,
          "time": 107.24418604651163,
          "velocity": 0.14173228346456693
        },
        {
          "duration": 0.30232558139535115,
          "durationTicks": 26,
          "midi": 86,
          "name": "D6",
          "ticks": 9224,
          "time": 107.25581395348837,
          "velocity": 0.2755905511811024
        },
        {
          "duration": 0.2325581395348877,
          "durationTicks": 20,
          "midi": 98,
          "name": "D7",
          "ticks": 9224,
          "time": 107.25581395348837,
          "velocity": 0.30708661417322836
        },
        {
          "duration": 0.1046511627907023,
          "durationTicks": 9,
          "midi": 67,
          "name": "G4",
          "ticks": 9225,
          "time": 107.26744186046511,
          "velocity": 0.5433070866141733
        },
        {
          "duration": 0.023255813953497295,
          "durationTicks": 2,
          "midi": 74,
          "name": "D5",
          "ticks": 9225,
          "time": 107.26744186046511,
          "velocity": 0.25196850393700787
        },
        {
          "duration": 0.08139534883721922,
          "durationTicks": 7,
          "midi": 72,
          "name": "C5",
          "ticks": 9226,
          "time": 107.27906976744185,
          "velocity": 0.13385826771653545
        },
        {
          "duration": 0.30232558139535115,
          "durationTicks": 26,
          "midi": 77,
          "name": "F5",
          "ticks": 9226,
          "time": 107.27906976744185,
          "velocity": 0.28346456692913385
        },
        {
          "duration": 0.023255813953483084,
          "durationTicks": 2,
          "midi": 38,
          "name": "D2",
          "ticks": 9227,
          "time": 107.29069767441861,
          "velocity": 0.2992125984251969
        },
        {
          "duration": 0.081395348837205,
          "durationTicks": 7,
          "midi": 57,
          "name": "A3",
          "ticks": 9229,
          "time": 107.31395348837209,
          "velocity": 0.3543307086614173
        },
        {
          "duration": 0.04651162790698038,
          "durationTicks": 4,
          "midi": 38,
          "name": "D2",
          "ticks": 9230,
          "time": 107.32558139534883,
          "velocity": 0.2992125984251969
        },
        {
          "duration": 0.023255813953483084,
          "durationTicks": 2,
          "midi": 68,
          "name": "G#4",
          "ticks": 9234,
          "time": 107.37209302325581,
          "velocity": 0.4566929133858268
        },
        {
          "duration": 0.03488372093023884,
          "durationTicks": 3,
          "midi": 74,
          "name": "D5",
          "ticks": 9234,
          "time": 107.37209302325581,
          "velocity": 0.28346456692913385
        },
        {
          "duration": 0.023255813953497295,
          "durationTicks": 2,
          "midi": 71,
          "name": "B4",
          "ticks": 9235,
          "time": 107.38372093023256,
          "velocity": 0.23622047244094488
        },
        {
          "duration": 1.418604651162795,
          "durationTicks": 122,
          "midi": 83,
          "name": "B5",
          "ticks": 9235,
          "time": 107.38372093023256,
          "velocity": 0.29133858267716534
        },
        {
          "duration": 0.6976744186046488,
          "durationTicks": 60,
          "midi": 67,
          "name": "G4",
          "ticks": 9236,
          "time": 107.3953488372093,
          "velocity": 0.47244094488188976
        },
        {
          "duration": 0.03488372093023884,
          "durationTicks": 3,
          "midi": 72,
          "name": "C5",
          "ticks": 9236,
          "time": 107.3953488372093,
          "velocity": 0.2283464566929134
        },
        {
          "duration": 0.023255813953497295,
          "durationTicks": 2,
          "midi": 75,
          "name": "D#5",
          "ticks": 9236,
          "time": 107.3953488372093,
          "velocity": 0.2283464566929134
        },
        {
          "duration": 0.09302325581396076,
          "durationTicks": 8,
          "midi": 81,
          "name": "A5",
          "ticks": 9236,
          "time": 107.3953488372093,
          "velocity": 0.09448818897637795
        },
        {
          "duration": 0.023255813953483084,
          "durationTicks": 2,
          "midi": 59,
          "name": "B3",
          "ticks": 9237,
          "time": 107.40697674418605,
          "velocity": 0.2677165354330709
        },
        {
          "duration": 0.023255813953483084,
          "durationTicks": 2,
          "midi": 43,
          "name": "G2",
          "ticks": 9238,
          "time": 107.4186046511628,
          "velocity": 0.41732283464566927
        },
        {
          "duration": 0.3720930232558146,
          "durationTicks": 32,
          "midi": 59,
          "name": "B3",
          "ticks": 9240,
          "time": 107.44186046511628,
          "velocity": 0.2125984251968504
        },
        {
          "duration": 0.03488372093023884,
          "durationTicks": 3,
          "midi": 62,
          "name": "D4",
          "ticks": 9240,
          "time": 107.44186046511628,
          "velocity": 0.09448818897637795
        },
        {
          "duration": 0.08139534883721922,
          "durationTicks": 7,
          "midi": 43,
          "name": "G2",
          "ticks": 9241,
          "time": 107.45348837209302,
          "velocity": 0.3779527559055118
        },
        {
          "duration": 0.3720930232558146,
          "durationTicks": 32,
          "midi": 73,
          "name": "C#5",
          "ticks": 9243,
          "time": 107.47674418604652,
          "velocity": 0.2677165354330709
        },
        {
          "duration": 0.06976744186046346,
          "durationTicks": 6,
          "midi": 55,
          "name": "G3",
          "ticks": 9248,
          "time": 107.53488372093024,
          "velocity": 0.10236220472440945
        },
        {
          "duration": 0.2906976744185954,
          "durationTicks": 25,
          "midi": 43,
          "name": "G2",
          "ticks": 9249,
          "time": 107.54651162790698,
          "velocity": 0.49606299212598426
        },
        {
          "duration": 0.04651162790696617,
          "durationTicks": 4,
          "midi": 50,
          "name": "D3",
          "ticks": 9254,
          "time": 107.6046511627907,
          "velocity": 0.1889763779527559
        },
        {
          "duration": 0.04651162790698038,
          "durationTicks": 4,
          "midi": 50,
          "name": "D3",
          "ticks": 9261,
          "time": 107.68604651162791,
          "velocity": 0.1889763779527559
        },
        {
          "duration": 0.6976744186046488,
          "durationTicks": 60,
          "midi": 65,
          "name": "F4",
          "ticks": 9273,
          "time": 107.82558139534883,
          "velocity": 0.2283464566929134
        },
        {
          "duration": 0.03488372093023884,
          "durationTicks": 3,
          "midi": 82,
          "name": "A#5",
          "ticks": 9273,
          "time": 107.82558139534883,
          "velocity": 0.10236220472440945
        },
        {
          "duration": 0.011627906976755753,
          "durationTicks": 1,
          "midi": 44,
          "name": "G#2",
          "ticks": 9274,
          "time": 107.83720930232558,
          "velocity": 0.5196850393700787
        },
        {
          "duration": 0.08139534883721922,
          "durationTicks": 7,
          "midi": 81,
          "name": "A5",
          "ticks": 9274,
          "time": 107.83720930232558,
          "velocity": 0.08661417322834646
        },
        {
          "duration": 0.034883720930224626,
          "durationTicks": 3,
          "midi": 43,
          "name": "G2",
          "ticks": 9275,
          "time": 107.84883720930233,
          "velocity": 0.4881889763779528
        },
        {
          "duration": 0.4302325581395223,
          "durationTicks": 37,
          "midi": 59,
          "name": "B3",
          "ticks": 9275,
          "time": 107.84883720930233,
          "velocity": 0.25196850393700787
        },
        {
          "duration": 0.43023255813953654,
          "durationTicks": 37,
          "midi": 73,
          "name": "C#5",
          "ticks": 9276,
          "time": 107.86046511627907,
          "velocity": 0.25984251968503935
        },
        {
          "duration": 0.023255813953497295,
          "durationTicks": 2,
          "midi": 50,
          "name": "D3",
          "ticks": 9278,
          "time": 107.88372093023256,
          "velocity": 0.2440944881889764
        },
        {
          "duration": 0.38372093023255616,
          "durationTicks": 33,
          "midi": 43,
          "name": "G2",
          "ticks": 9279,
          "time": 107.8953488372093,
          "velocity": 0.41732283464566927
        },
        {
          "duration": 0.023255813953497295,
          "durationTicks": 2,
          "midi": 50,
          "name": "D3",
          "ticks": 9285,
          "time": 107.96511627906976,
          "velocity": 0.23622047244094488
        },
        {
          "duration": 0.04651162790696617,
          "durationTicks": 4,
          "midi": 50,
          "name": "D3",
          "ticks": 9292,
          "time": 108.04651162790698,
          "velocity": 0.1968503937007874
        },
        {
          "duration": 0.04651162790698038,
          "durationTicks": 4,
          "midi": 50,
          "name": "D3",
          "ticks": 9299,
          "time": 108.12790697674419,
          "velocity": 0.1889763779527559
        },
        {
          "duration": 0.023255813953497295,
          "durationTicks": 2,
          "midi": 50,
          "name": "D3",
          "ticks": 9311,
          "time": 108.26744186046511,
          "velocity": 0.33070866141732286
        },
        {
          "duration": 0.04651162790698038,
          "durationTicks": 4,
          "midi": 75,
          "name": "D#5",
          "ticks": 9312,
          "time": 108.27906976744185,
          "velocity": 0.14960629921259844
        },
        {
          "duration": 0.1046511627907023,
          "durationTicks": 9,
          "midi": 81,
          "name": "A5",
          "ticks": 9314,
          "time": 108.30232558139535,
          "velocity": 0.11811023622047244
        },
        {
          "duration": 0.03488372093023884,
          "durationTicks": 3,
          "midi": 43,
          "name": "G2",
          "ticks": 9315,
          "time": 108.31395348837209,
          "velocity": 0.4409448818897638
        },
        {
          "duration": 0.19767441860464885,
          "durationTicks": 17,
          "midi": 59,
          "name": "B3",
          "ticks": 9315,
          "time": 108.31395348837209,
          "velocity": 0.1889763779527559
        },
        {
          "duration": 0.06976744186046346,
          "durationTicks": 6,
          "midi": 50,
          "name": "D3",
          "ticks": 9316,
          "time": 108.32558139534883,
          "velocity": 0.3464566929133858
        },
        {
          "duration": 0.1860465116279073,
          "durationTicks": 16,
          "midi": 73,
          "name": "C#5",
          "ticks": 9316,
          "time": 108.32558139534883,
          "velocity": 0.18110236220472442
        },
        {
          "duration": 0.15116279069766847,
          "durationTicks": 13,
          "midi": 43,
          "name": "G2",
          "ticks": 9319,
          "time": 108.36046511627907,
          "velocity": 0.36220472440944884
        },
        {
          "duration": 0.04651162790698038,
          "durationTicks": 4,
          "midi": 50,
          "name": "D3",
          "ticks": 9325,
          "time": 108.43023255813954,
          "velocity": 0.25984251968503935
        },
        {
          "duration": 0.05813953488372192,
          "durationTicks": 5,
          "midi": 72,
          "name": "C5",
          "ticks": 9332,
          "time": 108.51162790697674,
          "velocity": 0.23622047244094488
        },
        {
          "duration": 0.03488372093023884,
          "durationTicks": 3,
          "midi": 74,
          "name": "D5",
          "ticks": 9332,
          "time": 108.51162790697674,
          "velocity": 0.16535433070866143
        },
        {
          "duration": 0.12790697674418539,
          "durationTicks": 11,
          "midi": 81,
          "name": "A5",
          "ticks": 9333,
          "time": 108.52325581395348,
          "velocity": 0.14173228346456693
        },
        {
          "duration": 0.09302325581394655,
          "durationTicks": 8,
          "midi": 50,
          "name": "D3",
          "ticks": 9334,
          "time": 108.53488372093024,
          "velocity": 0.3858267716535433
        },
        {
          "duration": 0.2093023255813904,
          "durationTicks": 18,
          "midi": 65,
          "name": "F4",
          "ticks": 9334,
          "time": 108.53488372093024,
          "velocity": 0.13385826771653545
        },
        {
          "duration": 0.034883720930224626,
          "durationTicks": 3,
          "midi": 43,
          "name": "G2",
          "ticks": 9335,
          "time": 108.54651162790698,
          "velocity": 0.4251968503937008
        },
        {
          "duration": 0.19767441860464885,
          "durationTicks": 17,
          "midi": 59,
          "name": "B3",
          "ticks": 9335,
          "time": 108.54651162790698,
          "velocity": 0.2440944881889764
        },
        {
          "duration": 0.1860465116279073,
          "durationTicks": 16,
          "midi": 73,
          "name": "C#5",
          "ticks": 9337,
          "time": 108.56976744186046,
          "velocity": 0.2204724409448819
        },
        {
          "duration": 0.15116279069768268,
          "durationTicks": 13,
          "midi": 43,
          "name": "G2",
          "ticks": 9339,
          "time": 108.59302325581395,
          "velocity": 0.36220472440944884
        },
        {
          "duration": 0.023255813953483084,
          "durationTicks": 2,
          "midi": 50,
          "name": "D3",
          "ticks": 9345,
          "time": 108.66279069767442,
          "velocity": 0.25984251968503935
        },
        {
          "duration": 0.023255813953483084,
          "durationTicks": 2,
          "midi": 48,
          "name": "C3",
          "ticks": 9352,
          "time": 108.74418604651163,
          "velocity": 0.4409448818897638
        },
        {
          "duration": 0.2325581395348877,
          "durationTicks": 20,
          "midi": 57,
          "name": "A3",
          "ticks": 9352,
          "time": 108.74418604651163,
          "velocity": 0.3228346456692913
        },
        {
          "duration": 0.24418604651162923,
          "durationTicks": 21,
          "midi": 66,
          "name": "F#4",
          "ticks": 9352,
          "time": 108.74418604651163,
          "velocity": 0.2125984251968504
        },
        {
          "duration": 0.034883720930224626,
          "durationTicks": 3,
          "midi": 79,
          "name": "G5",
          "ticks": 9352,
          "time": 108.74418604651163,
          "velocity": 0.14173228346456693
        },
        {
          "duration": 0.2325581395348877,
          "durationTicks": 20,
          "midi": 62,
          "name": "D4",
          "ticks": 9353,
          "time": 108.75581395348837,
          "velocity": 0.25196850393700787
        },
        {
          "duration": 0.06976744186046346,
          "durationTicks": 6,
          "midi": 72,
          "name": "C5",
          "ticks": 9353,
          "time": 108.75581395348837,
          "velocity": 0.2204724409448819
        },
        {
          "duration": 0.2093023255814046,
          "durationTicks": 18,
          "midi": 50,
          "name": "D3",
          "ticks": 9354,
          "time": 108.76744186046511,
          "velocity": 0.4094488188976378
        },
        {
          "duration": 0.08139534883721922,
          "durationTicks": 7,
          "midi": 93,
          "name": "A6",
          "ticks": 9355,
          "time": 108.77906976744185,
          "velocity": 0.11811023622047244
        },
        {
          "duration": 0.09302325581394655,
          "durationTicks": 8,
          "midi": 76,
          "name": "E5",
          "ticks": 9357,
          "time": 108.80232558139535,
          "velocity": 0.08661417322834646
        },
        {
          "duration": 0.023255813953483084,
          "durationTicks": 2,
          "midi": 38,
          "name": "D2",
          "ticks": 9358,
          "time": 108.81395348837209,
          "velocity": 0.4015748031496063
        },
        {
          "duration": 0.03488372093023884,
          "durationTicks": 3,
          "midi": 82,
          "name": "A#5",
          "ticks": 9358,
          "time": 108.81395348837209,
          "velocity": 0.07086614173228346
        },
        {
          "duration": 0.023255813953497295,
          "durationTicks": 2,
          "midi": 39,
          "name": "D#2",
          "ticks": 9360,
          "time": 108.83720930232558,
          "velocity": 0.3937007874015748
        },
        {
          "duration": 0.3604651162790731,
          "durationTicks": 31,
          "midi": 72,
          "name": "C5",
          "ticks": 9360,
          "time": 108.83720930232558,
          "velocity": 0.23622047244094488
        },
        {
          "duration": 0.04651162790698038,
          "durationTicks": 4,
          "midi": 38,
          "name": "D2",
          "ticks": 9362,
          "time": 108.86046511627907,
          "velocity": 0.31496062992125984
        },
        {
          "duration": 0.05813953488372192,
          "durationTicks": 5,
          "midi": 38,
          "name": "D2",
          "ticks": 9367,
          "time": 108.9186046511628,
          "velocity": 0.29133858267716534
        },
        {
          "duration": 0.15116279069766847,
          "durationTicks": 13,
          "midi": 83,
          "name": "B5",
          "ticks": 9372,
          "time": 108.97674418604652,
          "velocity": 0.14173228346456693
        },
        {
          "duration": 0.2093023255813904,
          "durationTicks": 18,
          "midi": 53,
          "name": "F3",
          "ticks": 9373,
          "time": 108.98837209302326,
          "velocity": 0.44881889763779526
        },
        {
          "duration": 0.2093023255813904,
          "durationTicks": 18,
          "midi": 60,
          "name": "C4",
          "ticks": 9373,
          "time": 108.98837209302326,
          "velocity": 0.3228346456692913
        },
        {
          "duration": 0.2093023255813904,
          "durationTicks": 18,
          "midi": 75,
          "name": "D#5",
          "ticks": 9373,
          "time": 108.98837209302326,
          "velocity": 0.14960629921259844
        },
        {
          "duration": 0.06976744186046346,
          "durationTicks": 6,
          "midi": 96,
          "name": "C7",
          "ticks": 9373,
          "time": 108.98837209302326,
          "velocity": 0.13385826771653545
        },
        {
          "duration": 0.03488372093023884,
          "durationTicks": 3,
          "midi": 42,
          "name": "F#2",
          "ticks": 9374,
          "time": 109,
          "velocity": 0.4409448818897638
        },
        {
          "duration": 0.19767441860464885,
          "durationTicks": 17,
          "midi": 69,
          "name": "A4",
          "ticks": 9374,
          "time": 109,
          "velocity": 0.2125984251968504
        },
        {
          "duration": 0.11627906976744384,
          "durationTicks": 10,
          "midi": 79,
          "name": "G5",
          "ticks": 9374,
          "time": 109,
          "velocity": 0.09448818897637795
        },
        {
          "duration": 0.04651162790696617,
          "durationTicks": 4,
          "midi": 41,
          "name": "F2",
          "ticks": 9377,
          "time": 109.03488372093024,
          "velocity": 0.44881889763779526
        },
        {
          "duration": 0.034883720930224626,
          "durationTicks": 3,
          "midi": 40,
          "name": "E2",
          "ticks": 9383,
          "time": 109.1046511627907,
          "velocity": 0.2992125984251969
        },
        {
          "duration": 0.06976744186046346,
          "durationTicks": 6,
          "midi": 41,
          "name": "F2",
          "ticks": 9386,
          "time": 109.13953488372093,
          "velocity": 0.30708661417322836
        },
        {
          "duration": 0.023255813953497295,
          "durationTicks": 2,
          "midi": 61,
          "name": "C#4",
          "ticks": 9391,
          "time": 109.19767441860465,
          "velocity": 0.41732283464566927
        },
        {
          "duration": 0.04651162790698038,
          "durationTicks": 4,
          "midi": 74,
          "name": "D5",
          "ticks": 9391,
          "time": 109.19767441860465,
          "velocity": 0.47244094488188976
        },
        {
          "duration": 0.3720930232558146,
          "durationTicks": 32,
          "midi": 83,
          "name": "B5",
          "ticks": 9391,
          "time": 109.19767441860465,
          "velocity": 0.1732283464566929
        },
        {
          "duration": 0.05813953488372192,
          "durationTicks": 5,
          "midi": 87,
          "name": "D#6",
          "ticks": 9391,
          "time": 109.19767441860465,
          "velocity": 0.15748031496062992
        },
        {
          "duration": 0.1046511627907023,
          "durationTicks": 9,
          "midi": 88,
          "name": "E6",
          "ticks": 9391,
          "time": 109.19767441860465,
          "velocity": 0.29133858267716534
        },
        {
          "duration": 0.3604651162790731,
          "durationTicks": 31,
          "midi": 90,
          "name": "F#6",
          "ticks": 9391,
          "time": 109.19767441860465,
          "velocity": 0.15748031496062992
        },
        {
          "duration": 0.12790697674418539,
          "durationTicks": 11,
          "midi": 98,
          "name": "D7",
          "ticks": 9391,
          "time": 109.19767441860465,
          "velocity": 0.28346456692913385
        },
        {
          "duration": 0.16279069767442422,
          "durationTicks": 14,
          "midi": 102,
          "name": "F#7",
          "ticks": 9391,
          "time": 109.19767441860465,
          "velocity": 0.31496062992125984
        },
        {
          "duration": 0.45348837209303383,
          "durationTicks": 39,
          "midi": 48,
          "name": "C3",
          "ticks": 9392,
          "time": 109.20930232558139,
          "velocity": 0.44881889763779526
        },
        {
          "duration": 0.9069767441860535,
          "durationTicks": 78,
          "midi": 57,
          "name": "A3",
          "ticks": 9392,
          "time": 109.20930232558139,
          "velocity": 0.3937007874015748
        },
        {
          "duration": 0.48837209302325846,
          "durationTicks": 42,
          "midi": 69,
          "name": "A4",
          "ticks": 9392,
          "time": 109.20930232558139,
          "velocity": 0.5511811023622047
        },
        {
          "duration": 0.09302325581396076,
          "durationTicks": 8,
          "midi": 94,
          "name": "A#6",
          "ticks": 9392,
          "time": 109.20930232558139,
          "velocity": 0.2125984251968504
        },
        {
          "duration": 0.3720930232558004,
          "durationTicks": 32,
          "midi": 62,
          "name": "D4",
          "ticks": 9393,
          "time": 109.22093023255815,
          "velocity": 0.49606299212598426
        },
        {
          "duration": 0.04651162790696617,
          "durationTicks": 4,
          "midi": 84,
          "name": "C6",
          "ticks": 9393,
          "time": 109.22093023255815,
          "velocity": 0.11023622047244094
        },
        {
          "duration": 0.034883720930224626,
          "durationTicks": 3,
          "midi": 103,
          "name": "G7",
          "ticks": 9393,
          "time": 109.22093023255815,
          "velocity": 0.09448818897637795
        },
        {
          "duration": 0.034883720930224626,
          "durationTicks": 3,
          "midi": 41,
          "name": "F2",
          "ticks": 9394,
          "time": 109.23255813953489,
          "velocity": 0.4094488188976378
        },
        {
          "duration": 0.11627906976744384,
          "durationTicks": 10,
          "midi": 75,
          "name": "D#5",
          "ticks": 9394,
          "time": 109.23255813953489,
          "velocity": 0.3543307086614173
        },
        {
          "duration": 0.034883720930224626,
          "durationTicks": 3,
          "midi": 41,
          "name": "F2",
          "ticks": 9400,
          "time": 109.30232558139535,
          "velocity": 0.30708661417322836
        },
        {
          "duration": 0.09302325581396076,
          "durationTicks": 8,
          "midi": 88,
          "name": "E6",
          "ticks": 9403,
          "time": 109.33720930232558,
          "velocity": 0.11811023622047244
        },
        {
          "duration": 0.2906976744186096,
          "durationTicks": 25,
          "midi": 41,
          "name": "F2",
          "ticks": 9406,
          "time": 109.37209302325581,
          "velocity": 0.2755905511811024
        },
        {
          "duration": 0.10465116279068809,
          "durationTicks": 9,
          "midi": 62,
          "name": "D4",
          "ticks": 9426,
          "time": 109.6046511627907,
          "velocity": 0.33858267716535434
        },
        {
          "duration": 0.3372093023255758,
          "durationTicks": 29,
          "midi": 83,
          "name": "B5",
          "ticks": 9431,
          "time": 109.66279069767442,
          "velocity": 0.1732283464566929
        },
        {
          "duration": 0.3139534883720927,
          "durationTicks": 27,
          "midi": 87,
          "name": "D#6",
          "ticks": 9431,
          "time": 109.66279069767442,
          "velocity": 0.15748031496062992
        },
        {
          "duration": 0.19767441860464885,
          "durationTicks": 17,
          "midi": 88,
          "name": "E6",
          "ticks": 9431,
          "time": 109.66279069767442,
          "velocity": 0.1732283464566929
        },
        {
          "duration": 0.09302325581394655,
          "durationTicks": 8,
          "midi": 94,
          "name": "A#6",
          "ticks": 9432,
          "time": 109.67441860465117,
          "velocity": 0.1968503937007874
        },
        {
          "duration": 0.023255813953483084,
          "durationTicks": 2,
          "midi": 48,
          "name": "C3",
          "ticks": 9433,
          "time": 109.68604651162791,
          "velocity": 0.4094488188976378
        },
        {
          "duration": 0.023255813953483084,
          "durationTicks": 2,
          "midi": 75,
          "name": "D#5",
          "ticks": 9433,
          "time": 109.68604651162791,
          "velocity": 0.3464566929133858
        },
        {
          "duration": 0.06976744186046346,
          "durationTicks": 6,
          "midi": 41,
          "name": "F2",
          "ticks": 9435,
          "time": 109.70930232558139,
          "velocity": 0.4015748031496063
        },
        {
          "duration": 0.04651162790698038,
          "durationTicks": 4,
          "midi": 63,
          "name": "D#4",
          "ticks": 9435,
          "time": 109.70930232558139,
          "velocity": 0.2677165354330709
        },
        {
          "duration": 0.023255813953497295,
          "durationTicks": 2,
          "midi": 74,
          "name": "D5",
          "ticks": 9435,
          "time": 109.70930232558139,
          "velocity": 0.36220472440944884
        },
        {
          "duration": 0.023255813953483084,
          "durationTicks": 2,
          "midi": 75,
          "name": "D#5",
          "ticks": 9436,
          "time": 109.72093023255815,
          "velocity": 0.2755905511811024
        },
        {
          "duration": 0.38372093023255616,
          "durationTicks": 33,
          "midi": 74,
          "name": "D5",
          "ticks": 9438,
          "time": 109.74418604651163,
          "velocity": 0.33070866141732286
        },
        {
          "duration": 0.03488372093023884,
          "durationTicks": 3,
          "midi": 62,
          "name": "D4",
          "ticks": 9439,
          "time": 109.75581395348837,
          "velocity": 0.29133858267716534
        },
        {
          "duration": 0.3604651162790731,
          "durationTicks": 31,
          "midi": 48,
          "name": "C3",
          "ticks": 9440,
          "time": 109.76744186046511,
          "velocity": 0.30708661417322836
        },
        {
          "duration": 0.05813953488372192,
          "durationTicks": 5,
          "midi": 63,
          "name": "D#4",
          "ticks": 9442,
          "time": 109.79069767441861,
          "velocity": 0.2283464566929134
        },
        {
          "duration": 0.2906976744186096,
          "durationTicks": 25,
          "midi": 41,
          "name": "F2",
          "ticks": 9446,
          "time": 109.83720930232558,
          "velocity": 0.2677165354330709
        },
        {
          "duration": 0.04651162790696617,
          "durationTicks": 4,
          "midi": 62,
          "name": "D4",
          "ticks": 9447,
          "time": 109.84883720930233,
          "velocity": 0.25196850393700787
        },
        {
          "duration": 0.05813953488372192,
          "durationTicks": 5,
          "midi": 63,
          "name": "D#4",
          "ticks": 9451,
          "time": 109.8953488372093,
          "velocity": 0.1968503937007874
        },
        {
          "duration": 0.06976744186046346,
          "durationTicks": 6,
          "midi": 63,
          "name": "D#4",
          "ticks": 9458,
          "time": 109.97674418604652,
          "velocity": 0.1732283464566929
        },
        {
          "duration": 0.05813953488372192,
          "durationTicks": 5,
          "midi": 63,
          "name": "D#4",
          "ticks": 9466,
          "time": 110.06976744186046,
          "velocity": 0.14960629921259844
        },
        {
          "duration": 0.24418604651162923,
          "durationTicks": 21,
          "midi": 60,
          "name": "C4",
          "ticks": 9470,
          "time": 110.11627906976744,
          "velocity": 0.5275590551181102
        },
        {
          "duration": 0.034883720930224626,
          "durationTicks": 3,
          "midi": 68,
          "name": "G#4",
          "ticks": 9470,
          "time": 110.11627906976744,
          "velocity": 0.5433070866141733
        },
        {
          "duration": 0.4767441860465169,
          "durationTicks": 41,
          "midi": 83,
          "name": "B5",
          "ticks": 9471,
          "time": 110.12790697674419,
          "velocity": 0.2283464566929134
        },
        {
          "duration": 0.3604651162790731,
          "durationTicks": 31,
          "midi": 84,
          "name": "C6",
          "ticks": 9471,
          "time": 110.12790697674419,
          "velocity": 0.33858267716535434
        },
        {
          "duration": 0.2093023255813904,
          "durationTicks": 18,
          "midi": 86,
          "name": "D6",
          "ticks": 9471,
          "time": 110.12790697674419,
          "velocity": 0.2125984251968504
        },
        {
          "duration": 0.46511627906976116,
          "durationTicks": 40,
          "midi": 87,
          "name": "D#6",
          "ticks": 9471,
          "time": 110.12790697674419,
          "velocity": 0.2047244094488189
        },
        {
          "duration": 0.05813953488372192,
          "durationTicks": 5,
          "midi": 88,
          "name": "E6",
          "ticks": 9471,
          "time": 110.12790697674419,
          "velocity": 0.23622047244094488
        },
        {
          "duration": 0.1860465116279073,
          "durationTicks": 16,
          "midi": 100,
          "name": "E7",
          "ticks": 9471,
          "time": 110.12790697674419,
          "velocity": 0.3228346456692913
        },
        {
          "duration": 0.4418604651162781,
          "durationTicks": 38,
          "midi": 75,
          "name": "D#5",
          "ticks": 9472,
          "time": 110.13953488372093,
          "velocity": 0.33070866141732286
        },
        {
          "duration": 0.8604651162790731,
          "durationTicks": 74,
          "midi": 79,
          "name": "G5",
          "ticks": 9472,
          "time": 110.13953488372093,
          "velocity": 0.2047244094488189
        },
        {
          "duration": 0.023255813953497295,
          "durationTicks": 2,
          "midi": 48,
          "name": "C3",
          "ticks": 9473,
          "time": 110.15116279069767,
          "velocity": 0.3937007874015748
        },
        {
          "duration": 0.4418604651162781,
          "durationTicks": 38,
          "midi": 67,
          "name": "G4",
          "ticks": 9473,
          "time": 110.15116279069767,
          "velocity": 0.5669291338582677
        },
        {
          "duration": 0.16279069767442422,
          "durationTicks": 14,
          "midi": 94,
          "name": "A#6",
          "ticks": 9473,
          "time": 110.15116279069767,
          "velocity": 0.2125984251968504
        },
        {
          "duration": 0.06976744186046346,
          "durationTicks": 6,
          "midi": 41,
          "name": "F2",
          "ticks": 9475,
          "time": 110.17441860465117,
          "velocity": 0.41732283464566927
        },
        {
          "duration": 0.04651162790698038,
          "durationTicks": 4,
          "midi": 88,
          "name": "E6",
          "ticks": 9477,
          "time": 110.19767441860465,
          "velocity": 0.1732283464566929
        },
        {
          "duration": 0.13953488372094114,
          "durationTicks": 12,
          "midi": 48,
          "name": "C3",
          "ticks": 9478,
          "time": 110.20930232558139,
          "velocity": 0.31496062992125984
        },
        {
          "duration": 0.04651162790698038,
          "durationTicks": 4,
          "midi": 88,
          "name": "E6",
          "ticks": 9482,
          "time": 110.25581395348837,
          "velocity": 0.14960629921259844
        },
        {
          "duration": 0.05813953488372192,
          "durationTicks": 5,
          "midi": 41,
          "name": "F2",
          "ticks": 9486,
          "time": 110.30232558139535,
          "velocity": 0.28346456692913385
        },
        {
          "duration": 0.081395348837205,
          "durationTicks": 7,
          "midi": 88,
          "name": "E6",
          "ticks": 9487,
          "time": 110.31395348837209,
          "velocity": 0.13385826771653545
        },
        {
          "duration": 0.2093023255813904,
          "durationTicks": 18,
          "midi": 57,
          "name": "A3",
          "ticks": 9491,
          "time": 110.36046511627907,
          "velocity": 0.4251968503937008
        },
        {
          "duration": 0.034883720930224626,
          "durationTicks": 3,
          "midi": 62,
          "name": "D4",
          "ticks": 9491,
          "time": 110.36046511627907,
          "velocity": 0.3543307086614173
        },
        {
          "duration": 0.034883720930224626,
          "durationTicks": 3,
          "midi": 94,
          "name": "A#6",
          "ticks": 9491,
          "time": 110.36046511627907,
          "velocity": 0.23622047244094488
        },
        {
          "duration": 0.023255813953483084,
          "durationTicks": 2,
          "midi": 48,
          "name": "C3",
          "ticks": 9492,
          "time": 110.37209302325581,
          "velocity": 0.4094488188976378
        },
        {
          "duration": 0.1046511627907023,
          "durationTicks": 9,
          "midi": 41,
          "name": "F2",
          "ticks": 9493,
          "time": 110.38372093023256,
          "velocity": 0.4094488188976378
        },
        {
          "duration": 0.03488372093023884,
          "durationTicks": 3,
          "midi": 63,
          "name": "D#4",
          "ticks": 9494,
          "time": 110.3953488372093,
          "velocity": 0.3228346456692913
        },
        {
          "duration": 0.04651162790696617,
          "durationTicks": 4,
          "midi": 94,
          "name": "A#6",
          "ticks": 9495,
          "time": 110.40697674418605,
          "velocity": 0.12598425196850394
        },
        {
          "duration": 0.081395348837205,
          "durationTicks": 7,
          "midi": 88,
          "name": "E6",
          "ticks": 9496,
          "time": 110.4186046511628,
          "velocity": 0.12598425196850394
        },
        {
          "duration": 0.12790697674418539,
          "durationTicks": 11,
          "midi": 48,
          "name": "C3",
          "ticks": 9499,
          "time": 110.45348837209302,
          "velocity": 0.29133858267716534
        },
        {
          "duration": 0.08139534883721922,
          "durationTicks": 7,
          "midi": 41,
          "name": "F2",
          "ticks": 9505,
          "time": 110.52325581395348,
          "velocity": 0.4566929133858268
        },
        {
          "duration": 0.06976744186046346,
          "durationTicks": 6,
          "midi": 57,
          "name": "A3",
          "ticks": 9510,
          "time": 110.5813953488372,
          "velocity": 0.33070866141732286
        },
        {
          "duration": 0.023255813953497295,
          "durationTicks": 2,
          "midi": 62,
          "name": "D4",
          "ticks": 9510,
          "time": 110.5813953488372,
          "velocity": 0.29133858267716534
        },
        {
          "duration": 0.03488372093023884,
          "durationTicks": 3,
          "midi": 88,
          "name": "E6",
          "ticks": 9510,
          "time": 110.5813953488372,
          "velocity": 0.07874015748031496
        },
        {
          "duration": 0.2093023255814046,
          "durationTicks": 18,
          "midi": 66,
          "name": "F#4",
          "ticks": 9511,
          "time": 110.59302325581395,
          "velocity": 0.23622047244094488
        },
        {
          "duration": 0.16279069767442422,
          "durationTicks": 14,
          "midi": 76,
          "name": "E5",
          "ticks": 9511,
          "time": 110.59302325581395,
          "velocity": 0.10236220472440945
        },
        {
          "duration": 0.2093023255813904,
          "durationTicks": 18,
          "midi": 50,
          "name": "D3",
          "ticks": 9512,
          "time": 110.6046511627907,
          "velocity": 0.44881889763779526
        },
        {
          "duration": 0.04651162790696617,
          "durationTicks": 4,
          "midi": 93,
          "name": "A6",
          "ticks": 9512,
          "time": 110.6046511627907,
          "velocity": 0.13385826771653545
        },
        {
          "duration": 0.034883720930224626,
          "durationTicks": 3,
          "midi": 39,
          "name": "D#2",
          "ticks": 9513,
          "time": 110.61627906976744,
          "velocity": 0.4566929133858268
        },
        {
          "duration": 0.04651162790698038,
          "durationTicks": 4,
          "midi": 38,
          "name": "D2",
          "ticks": 9516,
          "time": 110.65116279069767,
          "velocity": 0.3937007874015748
        },
        {
          "duration": 0.11627906976744384,
          "durationTicks": 10,
          "midi": 57,
          "name": "A3",
          "ticks": 9519,
          "time": 110.68604651162791,
          "velocity": 0.23622047244094488
        },
        {
          "duration": 0.023255813953497295,
          "durationTicks": 2,
          "midi": 38,
          "name": "D2",
          "ticks": 9521,
          "time": 110.70930232558139,
          "velocity": 0.30708661417322836
        },
        {
          "duration": 0.023255813953483084,
          "durationTicks": 2,
          "midi": 37,
          "name": "C#2",
          "ticks": 9523,
          "time": 110.73255813953489,
          "velocity": 0.2440944881889764
        },
        {
          "duration": 0.04651162790698038,
          "durationTicks": 4,
          "midi": 38,
          "name": "D2",
          "ticks": 9525,
          "time": 110.75581395348837,
          "velocity": 0.2677165354330709
        },
        {
          "duration": 0.023255813953483084,
          "durationTicks": 2,
          "midi": 61,
          "name": "C#4",
          "ticks": 9528,
          "time": 110.79069767441861,
          "velocity": 0.25196850393700787
        },
        {
          "duration": 0.5581395348837219,
          "durationTicks": 48,
          "midi": 65,
          "name": "F4",
          "ticks": 9529,
          "time": 110.80232558139535,
          "velocity": 0.5118110236220472
        },
        {
          "duration": 0.16279069767441,
          "durationTicks": 14,
          "midi": 83,
          "name": "B5",
          "ticks": 9529,
          "time": 110.80232558139535,
          "velocity": 0.11811023622047244
        },
        {
          "duration": 0.2325581395348877,
          "durationTicks": 20,
          "midi": 60,
          "name": "C4",
          "ticks": 9530,
          "time": 110.81395348837209,
          "velocity": 0.33858267716535434
        },
        {
          "duration": 0.4534883720930196,
          "durationTicks": 39,
          "midi": 75,
          "name": "D#5",
          "ticks": 9530,
          "time": 110.81395348837209,
          "velocity": 0.29133858267716534
        },
        {
          "duration": 0.023255813953497295,
          "durationTicks": 2,
          "midi": 41,
          "name": "F2",
          "ticks": 9531,
          "time": 110.82558139534883,
          "velocity": 0.4645669291338583
        },
        {
          "duration": 0.22093023255814614,
          "durationTicks": 19,
          "midi": 69,
          "name": "A4",
          "ticks": 9531,
          "time": 110.82558139534883,
          "velocity": 0.1968503937007874
        },
        {
          "duration": 0.04651162790698038,
          "durationTicks": 4,
          "midi": 93,
          "name": "A6",
          "ticks": 9531,
          "time": 110.82558139534883,
          "velocity": 0.07086614173228346
        },
        {
          "duration": 0.04651162790698038,
          "durationTicks": 4,
          "midi": 96,
          "name": "C7",
          "ticks": 9532,
          "time": 110.83720930232558,
          "velocity": 0.10236220472440945
        },
        {
          "duration": 0.023255813953483084,
          "durationTicks": 2,
          "midi": 42,
          "name": "F#2",
          "ticks": 9533,
          "time": 110.84883720930233,
          "velocity": 0.41732283464566927
        },
        {
          "duration": 0.06976744186046346,
          "durationTicks": 6,
          "midi": 41,
          "name": "F2",
          "ticks": 9535,
          "time": 110.87209302325581,
          "velocity": 0.4330708661417323
        },
        {
          "duration": 0.08139534883721922,
          "durationTicks": 7,
          "midi": 88,
          "name": "E6",
          "ticks": 9537,
          "time": 110.8953488372093,
          "velocity": 0.07086614173228346
        },
        {
          "duration": 0.023255813953483084,
          "durationTicks": 2,
          "midi": 40,
          "name": "E2",
          "ticks": 9541,
          "time": 110.94186046511628,
          "velocity": 0.2992125984251969
        },
        {
          "duration": 0.08139534883721922,
          "durationTicks": 7,
          "midi": 41,
          "name": "F2",
          "ticks": 9543,
          "time": 110.96511627906976,
          "velocity": 0.30708661417322836
        },
        {
          "duration": 0.23255813953487348,
          "durationTicks": 20,
          "midi": 79,
          "name": "G5",
          "ticks": 9549,
          "time": 111.03488372093024,
          "velocity": 0.2283464566929134
        },
        {
          "duration": 0.023255813953483084,
          "durationTicks": 2,
          "midi": 43,
          "name": "G2",
          "ticks": 9550,
          "time": 111.04651162790698,
          "velocity": 0.4566929133858268
        },
        {
          "duration": 0.11627906976744384,
          "durationTicks": 10,
          "midi": 81,
          "name": "A5",
          "ticks": 9550,
          "time": 111.04651162790698,
          "velocity": 0.2047244094488189
        },
        {
          "duration": 0.19767441860464885,
          "durationTicks": 17,
          "midi": 93,
          "name": "A6",
          "ticks": 9550,
          "time": 111.04651162790698,
          "velocity": 0.25196850393700787
        },
        {
          "duration": 0.2325581395348877,
          "durationTicks": 20,
          "midi": 57,
          "name": "A3",
          "ticks": 9551,
          "time": 111.05813953488372,
          "velocity": 0.4566929133858268
        },
        {
          "duration": 0.581395348837205,
          "durationTicks": 50,
          "midi": 69,
          "name": "A4",
          "ticks": 9551,
          "time": 111.05813953488372,
          "velocity": 0.5826771653543307
        },
        {
          "duration": 0.1046511627907023,
          "durationTicks": 9,
          "midi": 73,
          "name": "C#5",
          "ticks": 9551,
          "time": 111.05813953488372,
          "velocity": 0.2125984251968504
        },
        {
          "duration": 0.2325581395348877,
          "durationTicks": 20,
          "midi": 85,
          "name": "C#6",
          "ticks": 9551,
          "time": 111.05813953488372,
          "velocity": 0.2992125984251969
        },
        {
          "duration": 0.2325581395348877,
          "durationTicks": 20,
          "midi": 88,
          "name": "E6",
          "ticks": 9551,
          "time": 111.05813953488372,
          "velocity": 0.2440944881889764
        },
        {
          "duration": 0.13953488372092693,
          "durationTicks": 12,
          "midi": 95,
          "name": "B6",
          "ticks": 9551,
          "time": 111.05813953488372,
          "velocity": 0.15748031496062992
        },
        {
          "duration": 0.06976744186046346,
          "durationTicks": 6,
          "midi": 99,
          "name": "D#7",
          "ticks": 9551,
          "time": 111.05813953488372,
          "velocity": 0.08661417322834646
        },
        {
          "duration": 0.06976744186046346,
          "durationTicks": 6,
          "midi": 101,
          "name": "F7",
          "ticks": 9552,
          "time": 111.06976744186046,
          "velocity": 0.09448818897637795
        },
        {
          "duration": 0.19767441860464885,
          "durationTicks": 17,
          "midi": 61,
          "name": "C#4",
          "ticks": 9553,
          "time": 111.0813953488372,
          "velocity": 0.2283464566929134
        },
        {
          "duration": 0.081395348837205,
          "durationTicks": 7,
          "midi": 52,
          "name": "E3",
          "ticks": 9556,
          "time": 111.11627906976744,
          "velocity": 0.2992125984251969
        },
        {
          "duration": 0.13953488372092693,
          "durationTicks": 12,
          "midi": 45,
          "name": "A2",
          "ticks": 9557,
          "time": 111.12790697674419,
          "velocity": 0.41732283464566927
        },
        {
          "duration": 0.05813953488372192,
          "durationTicks": 5,
          "midi": 52,
          "name": "E3",
          "ticks": 9564,
          "time": 111.20930232558139,
          "velocity": 0.2125984251968504
        },
        {
          "duration": 0.03488372093023884,
          "durationTicks": 3,
          "midi": 73,
          "name": "C#5",
          "ticks": 9569,
          "time": 111.26744186046511,
          "velocity": 0.2283464566929134
        },
        {
          "duration": 0.2325581395348877,
          "durationTicks": 20,
          "midi": 83,
          "name": "B5",
          "ticks": 9569,
          "time": 111.26744186046511,
          "velocity": 0.25196850393700787
        },
        {
          "duration": 0.03488372093023884,
          "durationTicks": 3,
          "midi": 42,
          "name": "F#2",
          "ticks": 9570,
          "time": 111.27906976744185,
          "velocity": 0.44881889763779526
        },
        {
          "duration": 0.03488372093023884,
          "durationTicks": 3,
          "midi": 93,
          "name": "A6",
          "ticks": 9570,
          "time": 111.27906976744185,
          "velocity": 0.12598425196850394
        },
        {
          "duration": 0.023255813953483084,
          "durationTicks": 2,
          "midi": 56,
          "name": "G#3",
          "ticks": 9571,
          "time": 111.29069767441861,
          "velocity": 0.25196850393700787
        },
        {
          "duration": 0.04651162790696617,
          "durationTicks": 4,
          "midi": 74,
          "name": "D5",
          "ticks": 9571,
          "time": 111.29069767441861,
          "velocity": 0.16535433070866143
        },
        {
          "duration": 0.17441860465115155,
          "durationTicks": 15,
          "midi": 84,
          "name": "C6",
          "ticks": 9571,
          "time": 111.29069767441861,
          "velocity": 0.14960629921259844
        },
        {
          "duration": 0.04651162790698038,
          "durationTicks": 4,
          "midi": 72,
          "name": "C5",
          "ticks": 9572,
          "time": 111.30232558139535,
          "velocity": 0.2125984251968504
        },
        {
          "duration": 0.034883720930224626,
          "durationTicks": 3,
          "midi": 85,
          "name": "C#6",
          "ticks": 9572,
          "time": 111.30232558139535,
          "velocity": 0.12598425196850394
        },
        {
          "duration": 0.06976744186046346,
          "durationTicks": 6,
          "midi": 43,
          "name": "G2",
          "ticks": 9573,
          "time": 111.31395348837209,
          "velocity": 0.4330708661417323
        },
        {
          "duration": 0.04651162790698038,
          "durationTicks": 4,
          "midi": 93,
          "name": "A6",
          "ticks": 9574,
          "time": 111.32558139534883,
          "velocity": 0.11023622047244094
        },
        {
          "duration": 0.06976744186046346,
          "durationTicks": 6,
          "midi": 73,
          "name": "C#5",
          "ticks": 9576,
          "time": 111.34883720930233,
          "velocity": 0.2204724409448819
        },
        {
          "duration": 0.023255813953483084,
          "durationTicks": 2,
          "midi": 50,
          "name": "D3",
          "ticks": 9577,
          "time": 111.36046511627907,
          "velocity": 0.2992125984251969
        },
        {
          "duration": 0.05813953488372192,
          "durationTicks": 5,
          "midi": 65,
          "name": "F4",
          "ticks": 9578,
          "time": 111.37209302325581,
          "velocity": 0.2992125984251969
        },
        {
          "duration": 0.03488372093023884,
          "durationTicks": 3,
          "midi": 75,
          "name": "D#5",
          "ticks": 9579,
          "time": 111.38372093023256,
          "velocity": 0.2125984251968504
        },
        {
          "duration": 0.2906976744186096,
          "durationTicks": 25,
          "midi": 85,
          "name": "C#6",
          "ticks": 9579,
          "time": 111.38372093023256,
          "velocity": 0.25196850393700787
        },
        {
          "duration": 0.05813953488372192,
          "durationTicks": 5,
          "midi": 71,
          "name": "B4",
          "ticks": 9580,
          "time": 111.3953488372093,
          "velocity": 0.14960629921259844
        },
        {
          "duration": 0.2093023255814046,
          "durationTicks": 18,
          "midi": 79,
          "name": "G5",
          "ticks": 9580,
          "time": 111.3953488372093,
          "velocity": 0.14960629921259844
        },
        {
          "duration": 0.03488372093023884,
          "durationTicks": 3,
          "midi": 93,
          "name": "A6",
          "ticks": 9580,
          "time": 111.3953488372093,
          "velocity": 0.12598425196850394
        },
        {
          "duration": 0.023255813953483084,
          "durationTicks": 2,
          "midi": 44,
          "name": "G#2",
          "ticks": 9581,
          "time": 111.40697674418605,
          "velocity": 0.5590551181102362
        },
        {
          "duration": 0.034883720930224626,
          "durationTicks": 3,
          "midi": 52,
          "name": "E3",
          "ticks": 9581,
          "time": 111.40697674418605,
          "velocity": 0.29133858267716534
        },
        {
          "duration": 0.22093023255813193,
          "durationTicks": 19,
          "midi": 57,
          "name": "A3",
          "ticks": 9581,
          "time": 111.40697674418605,
          "velocity": 0.31496062992125984
        },
        {
          "duration": 0.19767441860464885,
          "durationTicks": 17,
          "midi": 61,
          "name": "C#4",
          "ticks": 9582,
          "time": 111.4186046511628,
          "velocity": 0.2440944881889764
        },
        {
          "duration": 0.034883720930224626,
          "durationTicks": 3,
          "midi": 74,
          "name": "D5",
          "ticks": 9582,
          "time": 111.4186046511628,
          "velocity": 0.25984251968503935
        },
        {
          "duration": 0.034883720930224626,
          "durationTicks": 3,
          "midi": 45,
          "name": "A2",
          "ticks": 9583,
          "time": 111.43023255813954,
          "velocity": 0.44881889763779526
        },
        {
          "duration": 0.03488372093023884,
          "durationTicks": 3,
          "midi": 65,
          "name": "F4",
          "ticks": 9584,
          "time": 111.44186046511628,
          "velocity": 0.2125984251968504
        },
        {
          "duration": 0.03488372093023884,
          "durationTicks": 3,
          "midi": 52,
          "name": "E3",
          "ticks": 9585,
          "time": 111.45348837209302,
          "velocity": 0.25196850393700787
        },
        {
          "duration": 0.04651162790698038,
          "durationTicks": 4,
          "midi": 75,
          "name": "D#5",
          "ticks": 9585,
          "time": 111.45348837209302,
          "velocity": 0.1968503937007874
        },
        {
          "duration": 0.03488372093023884,
          "durationTicks": 3,
          "midi": 93,
          "name": "A6",
          "ticks": 9585,
          "time": 111.45348837209302,
          "velocity": 0.08661417322834646
        },
        {
          "duration": 0.12790697674418539,
          "durationTicks": 11,
          "midi": 45,
          "name": "A2",
          "ticks": 9587,
          "time": 111.47674418604652,
          "velocity": 0.4409448818897638
        },
        {
          "duration": 0.1046511627907023,
          "durationTicks": 9,
          "midi": 52,
          "name": "E3",
          "ticks": 9589,
          "time": 111.5,
          "velocity": 0.25196850393700787
        },
        {
          "duration": 0.09302325581396076,
          "durationTicks": 8,
          "midi": 75,
          "name": "D#5",
          "ticks": 9590,
          "time": 111.51162790697674,
          "velocity": 0.1732283464566929
        },
        {
          "duration": 0.23255813953487348,
          "durationTicks": 20,
          "midi": 83,
          "name": "B5",
          "ticks": 9598,
          "time": 111.6046511627907,
          "velocity": 0.25984251968503935
        },
        {
          "duration": 0.023255813953483084,
          "durationTicks": 2,
          "midi": 73,
          "name": "C#5",
          "ticks": 9599,
          "time": 111.61627906976744,
          "velocity": 0.2283464566929134
        },
        {
          "duration": 0.1046511627907023,
          "durationTicks": 9,
          "midi": 77,
          "name": "F5",
          "ticks": 9599,
          "time": 111.61627906976744,
          "velocity": 0.1968503937007874
        },
        {
          "duration": 0.023255813953483084,
          "durationTicks": 2,
          "midi": 42,
          "name": "F#2",
          "ticks": 9600,
          "time": 111.62790697674419,
          "velocity": 0.44881889763779526
        },
        {
          "duration": 0.09302325581396076,
          "durationTicks": 8,
          "midi": 65,
          "name": "F4",
          "ticks": 9600,
          "time": 111.62790697674419,
          "velocity": 0.2440944881889764
        },
        {
          "duration": 0.04651162790698038,
          "durationTicks": 4,
          "midi": 74,
          "name": "D5",
          "ticks": 9600,
          "time": 111.62790697674419,
          "velocity": 0.15748031496062992
        },
        {
          "duration": 0.04651162790698038,
          "durationTicks": 4,
          "midi": 72,
          "name": "C5",
          "ticks": 9601,
          "time": 111.63953488372093,
          "velocity": 0.2047244094488189
        },
        {
          "duration": 0.06976744186047767,
          "durationTicks": 6,
          "midi": 43,
          "name": "G2",
          "ticks": 9602,
          "time": 111.65116279069767,
          "velocity": 0.4330708661417323
        },
        {
          "duration": 0.04651162790698038,
          "durationTicks": 4,
          "midi": 71,
          "name": "B4",
          "ticks": 9602,
          "time": 111.65116279069767,
          "velocity": 0.14173228346456693
        },
        {
          "duration": 0.05813953488372192,
          "durationTicks": 5,
          "midi": 69,
          "name": "A4",
          "ticks": 9604,
          "time": 111.67441860465117,
          "velocity": 0.07086614173228346
        },
        {
          "duration": 0.06976744186046346,
          "durationTicks": 6,
          "midi": 73,
          "name": "C#5",
          "ticks": 9605,
          "time": 111.68604651162791,
          "velocity": 0.2283464566929134
        },
        {
          "duration": 0.023255813953497295,
          "durationTicks": 2,
          "midi": 50,
          "name": "D3",
          "ticks": 9606,
          "time": 111.69767441860465,
          "velocity": 0.2992125984251969
        },
        {
          "duration": 0.034883720930224626,
          "durationTicks": 3,
          "midi": 75,
          "name": "D#5",
          "ticks": 9608,
          "time": 111.72093023255815,
          "velocity": 0.2125984251968504
        },
        {
          "duration": 0.04651162790696617,
          "durationTicks": 4,
          "midi": 76,
          "name": "E5",
          "ticks": 9608,
          "time": 111.72093023255815,
          "velocity": 0.1889763779527559
        },
        {
          "duration": 0.24418604651161502,
          "durationTicks": 21,
          "midi": 85,
          "name": "C#6",
          "ticks": 9608,
          "time": 111.72093023255815,
          "velocity": 0.25196850393700787
        },
        {
          "duration": 0.023255813953483084,
          "durationTicks": 2,
          "midi": 58,
          "name": "A#3",
          "ticks": 9609,
          "time": 111.73255813953489,
          "velocity": 0.31496062992125984
        },
        {
          "duration": 0.2093023255813904,
          "durationTicks": 18,
          "midi": 67,
          "name": "G4",
          "ticks": 9609,
          "time": 111.73255813953489,
          "velocity": 0.1889763779527559
        },
        {
          "duration": 0.034883720930224626,
          "durationTicks": 3,
          "midi": 77,
          "name": "F5",
          "ticks": 9609,
          "time": 111.73255813953489,
          "velocity": 0.14960629921259844
        },
        {
          "duration": 0.8023255813953512,
          "durationTicks": 69,
          "midi": 79,
          "name": "G5",
          "ticks": 9609,
          "time": 111.73255813953489,
          "velocity": 0.2755905511811024
        },
        {
          "duration": 0.023255813953483084,
          "durationTicks": 2,
          "midi": 44,
          "name": "G#2",
          "ticks": 9610,
          "time": 111.74418604651163,
          "velocity": 0.5590551181102362
        },
        {
          "duration": 0.034883720930224626,
          "durationTicks": 3,
          "midi": 52,
          "name": "E3",
          "ticks": 9610,
          "time": 111.74418604651163,
          "velocity": 0.29133858267716534
        },
        {
          "duration": 0.04651162790698038,
          "durationTicks": 4,
          "midi": 71,
          "name": "B4",
          "ticks": 9610,
          "time": 111.74418604651163,
          "velocity": 0.14960629921259844
        },
        {
          "duration": 0.1860465116279073,
          "durationTicks": 16,
          "midi": 57,
          "name": "A3",
          "ticks": 9611,
          "time": 111.75581395348837,
          "velocity": 0.2283464566929134
        },
        {
          "duration": 0.17441860465116577,
          "durationTicks": 15,
          "midi": 61,
          "name": "C#4",
          "ticks": 9611,
          "time": 111.75581395348837,
          "velocity": 0.2440944881889764
        },
        {
          "duration": 0.03488372093023884,
          "durationTicks": 3,
          "midi": 74,
          "name": "D5",
          "ticks": 9611,
          "time": 111.75581395348837,
          "velocity": 0.25196850393700787
        },
        {
          "duration": 0.03488372093023884,
          "durationTicks": 3,
          "midi": 45,
          "name": "A2",
          "ticks": 9612,
          "time": 111.76744186046511,
          "velocity": 0.44881889763779526
        },
        {
          "duration": 0.03488372093023884,
          "durationTicks": 3,
          "midi": 84,
          "name": "C6",
          "ticks": 9612,
          "time": 111.76744186046511,
          "velocity": 0.07086614173228346
        },
        {
          "duration": 0.5581395348837219,
          "durationTicks": 48,
          "midi": 76,
          "name": "E5",
          "ticks": 9613,
          "time": 111.77906976744185,
          "velocity": 0.48031496062992124
        },
        {
          "duration": 0.034883720930224626,
          "durationTicks": 3,
          "midi": 52,
          "name": "E3",
          "ticks": 9614,
          "time": 111.79069767441861,
          "velocity": 0.25196850393700787
        },
        {
          "duration": 0.034883720930224626,
          "durationTicks": 3,
          "midi": 75,
          "name": "D#5",
          "ticks": 9614,
          "time": 111.79069767441861,
          "velocity": 0.1968503937007874
        },
        {
          "duration": 0.13953488372092693,
          "durationTicks": 12,
          "midi": 45,
          "name": "A2",
          "ticks": 9616,
          "time": 111.81395348837209,
          "velocity": 0.4409448818897638
        },
        {
          "duration": 0.1046511627907023,
          "durationTicks": 9,
          "midi": 52,
          "name": "E3",
          "ticks": 9618,
          "time": 111.83720930232558,
          "velocity": 0.25196850393700787
        },
        {
          "duration": 0.081395348837205,
          "durationTicks": 7,
          "midi": 75,
          "name": "D#5",
          "ticks": 9619,
          "time": 111.84883720930233,
          "velocity": 0.16535433070866143
        },
        {
          "duration": 0.023255813953483084,
          "durationTicks": 2,
          "midi": 53,
          "name": "F3",
          "ticks": 9627,
          "time": 111.94186046511628,
          "velocity": 0.2440944881889764
        },
        {
          "duration": 0.34883720930233153,
          "durationTicks": 30,
          "midi": 64,
          "name": "E4",
          "ticks": 9627,
          "time": 111.94186046511628,
          "velocity": 0.47244094488188976
        },
        {
          "duration": 0.023255813953483084,
          "durationTicks": 2,
          "midi": 68,
          "name": "G#4",
          "ticks": 9627,
          "time": 111.94186046511628,
          "velocity": 0.29133858267716534
        },
        {
          "duration": 0.34883720930233153,
          "durationTicks": 30,
          "midi": 72,
          "name": "C5",
          "ticks": 9627,
          "time": 111.94186046511628,
          "velocity": 0.5196850393700787
        },
        {
          "duration": 0.3372093023255758,
          "durationTicks": 29,
          "midi": 83,
          "name": "B5",
          "ticks": 9627,
          "time": 111.94186046511628,
          "velocity": 0.2677165354330709
        },
        {
          "duration": 0.34883720930233153,
          "durationTicks": 30,
          "midi": 92,
          "name": "G#6",
          "ticks": 9627,
          "time": 111.94186046511628,
          "velocity": 0.1732283464566929
        },
        {
          "duration": 0.023255813953497295,
          "durationTicks": 2,
          "midi": 44,
          "name": "G#2",
          "ticks": 9628,
          "time": 111.95348837209302,
          "velocity": 0.4409448818897638
        },
        {
          "duration": 0.33720930232559,
          "durationTicks": 29,
          "midi": 60,
          "name": "C4",
          "ticks": 9628,
          "time": 111.95348837209302,
          "velocity": 0.5511811023622047
        },
        {
          "duration": 0.08139534883721922,
          "durationTicks": 7,
          "midi": 94,
          "name": "A#6",
          "ticks": 9628,
          "time": 111.95348837209302,
          "velocity": 0.11023622047244094
        },
        {
          "duration": 0.023255813953497295,
          "durationTicks": 2,
          "midi": 67,
          "name": "G4",
          "ticks": 9629,
          "time": 111.96511627906976,
          "velocity": 0.2677165354330709
        },
        {
          "duration": 0.06976744186047767,
          "durationTicks": 6,
          "midi": 82,
          "name": "A#5",
          "ticks": 9629,
          "time": 111.96511627906976,
          "velocity": 0.07874015748031496
        },
        {
          "duration": 0.05813953488372192,
          "durationTicks": 5,
          "midi": 98,
          "name": "D7",
          "ticks": 9629,
          "time": 111.96511627906976,
          "velocity": 0.07874015748031496
        },
        {
          "duration": 0.023255813953483084,
          "durationTicks": 2,
          "midi": 47,
          "name": "B2",
          "ticks": 9630,
          "time": 111.97674418604652,
          "velocity": 0.4881889763779528
        },
        {
          "duration": 0.3139534883720927,
          "durationTicks": 27,
          "midi": 55,
          "name": "G3",
          "ticks": 9630,
          "time": 111.97674418604652,
          "velocity": 0.33858267716535434
        },
        {
          "duration": 0.04651162790698038,
          "durationTicks": 4,
          "midi": 37,
          "name": "C#2",
          "ticks": 9631,
          "time": 111.98837209302326,
          "velocity": 0.44881889763779526
        },
        {
          "duration": 0.081395348837205,
          "durationTicks": 7,
          "midi": 70,
          "name": "A#4",
          "ticks": 9631,
          "time": 111.98837209302326,
          "velocity": 0.08661417322834646
        },
        {
          "duration": 0.3139534883720927,
          "durationTicks": 27,
          "midi": 48,
          "name": "C3",
          "ticks": 9632,
          "time": 112,
          "velocity": 0.4645669291338583
        },
        {
          "duration": 0.09302325581394655,
          "durationTicks": 8,
          "midi": 36,
          "name": "C2",
          "ticks": 9635,
          "time": 112.03488372093024,
          "velocity": 0.4251968503937008
        },
        {
          "duration": 0.034883720930224626,
          "durationTicks": 3,
          "midi": 74,
          "name": "D5",
          "ticks": 9636,
          "time": 112.04651162790698,
          "velocity": 0.10236220472440945
        },
        {
          "duration": 0.1860465116279073,
          "durationTicks": 16,
          "midi": 70,
          "name": "A#4",
          "ticks": 9640,
          "time": 112.09302325581395,
          "velocity": 0.08661417322834646
        },
        {
          "duration": 0.03488372093023884,
          "durationTicks": 3,
          "midi": 35,
          "name": "B1",
          "ticks": 9643,
          "time": 112.12790697674419,
          "velocity": 0.25984251968503935
        },
        {
          "duration": 0.12790697674418539,
          "durationTicks": 11,
          "midi": 36,
          "name": "C2",
          "ticks": 9646,
          "time": 112.16279069767442,
          "velocity": 0.2992125984251969
        },
        {
          "duration": 0.3604651162790731,
          "durationTicks": 31,
          "midi": 74,
          "name": "D5",
          "ticks": 9656,
          "time": 112.27906976744185,
          "velocity": 0.5196850393700787
        },
        {
          "duration": 0.023255813953483084,
          "durationTicks": 2,
          "midi": 61,
          "name": "C#4",
          "ticks": 9657,
          "time": 112.29069767441861,
          "velocity": 0.49606299212598426
        },
        {
          "duration": 0.3953488372092977,
          "durationTicks": 34,
          "midi": 90,
          "name": "F#6",
          "ticks": 9657,
          "time": 112.29069767441861,
          "velocity": 0.13385826771653545
        },
        {
          "duration": 0.3488372093023173,
          "durationTicks": 30,
          "midi": 57,
          "name": "A3",
          "ticks": 9658,
          "time": 112.30232558139535,
          "velocity": 0.44881889763779526
        },
        {
          "duration": 0.023255813953483084,
          "durationTicks": 2,
          "midi": 65,
          "name": "F4",
          "ticks": 9658,
          "time": 112.30232558139535,
          "velocity": 0.2677165354330709
        },
        {
          "duration": 0.3488372093023173,
          "durationTicks": 30,
          "midi": 69,
          "name": "A4",
          "ticks": 9658,
          "time": 112.30232558139535,
          "velocity": 0.47244094488188976
        },
        {
          "duration": 0.034883720930224626,
          "durationTicks": 3,
          "midi": 72,
          "name": "C5",
          "ticks": 9658,
          "time": 112.30232558139535,
          "velocity": 0.23622047244094488
        },
        {
          "duration": 0.40697674418603924,
          "durationTicks": 35,
          "midi": 85,
          "name": "C#6",
          "ticks": 9658,
          "time": 112.30232558139535,
          "velocity": 0.29133858267716534
        },
        {
          "duration": 0.13953488372092693,
          "durationTicks": 12,
          "midi": 95,
          "name": "B6",
          "ticks": 9658,
          "time": 112.30232558139535,
          "velocity": 0.13385826771653545
        },
        {
          "duration": 0.081395348837205,
          "durationTicks": 7,
          "midi": 96,
          "name": "C7",
          "ticks": 9658,
          "time": 112.30232558139535,
          "velocity": 0.1889763779527559
        },
        {
          "duration": 0.023255813953483084,
          "durationTicks": 2,
          "midi": 45,
          "name": "A2",
          "ticks": 9659,
          "time": 112.31395348837209,
          "velocity": 0.5118110236220472
        },
        {
          "duration": 0.32558139534883423,
          "durationTicks": 28,
          "midi": 62,
          "name": "D4",
          "ticks": 9659,
          "time": 112.31395348837209,
          "velocity": 0.49606299212598426
        },
        {
          "duration": 0.06976744186046346,
          "durationTicks": 6,
          "midi": 83,
          "name": "B5",
          "ticks": 9659,
          "time": 112.31395348837209,
          "velocity": 0.12598425196850394
        },
        {
          "duration": 0.023255813953497295,
          "durationTicks": 2,
          "midi": 52,
          "name": "E3",
          "ticks": 9661,
          "time": 112.33720930232558,
          "velocity": 0.28346456692913385
        },
        {
          "duration": 0.2906976744186096,
          "durationTicks": 25,
          "midi": 67,
          "name": "G4",
          "ticks": 9661,
          "time": 112.33720930232558,
          "velocity": 0.2204724409448819
        },
        {
          "duration": 0.3139534883720927,
          "durationTicks": 27,
          "midi": 45,
          "name": "A2",
          "ticks": 9662,
          "time": 112.34883720930233,
          "velocity": 0.5118110236220472
        },
        {
          "duration": 0.3139534883720927,
          "durationTicks": 27,
          "midi": 76,
          "name": "E5",
          "ticks": 9662,
          "time": 112.34883720930233,
          "velocity": 0.14960629921259844
        },
        {
          "duration": 0.2674418604651123,
          "durationTicks": 23,
          "midi": 52,
          "name": "E3",
          "ticks": 9664,
          "time": 112.37209302325581,
          "velocity": 0.2755905511811024
        },
        {
          "duration": 0.4651162790697754,
          "durationTicks": 40,
          "midi": 79,
          "name": "G5",
          "ticks": 9687,
          "time": 112.63953488372093,
          "velocity": 0.2677165354330709
        },
        {
          "duration": 0.08139534883721922,
          "durationTicks": 7,
          "midi": 83,
          "name": "B5",
          "ticks": 9687,
          "time": 112.63953488372093,
          "velocity": 0.08661417322834646
        },
        {
          "duration": 0.08139534883721922,
          "durationTicks": 7,
          "midi": 84,
          "name": "C6",
          "ticks": 9687,
          "time": 112.63953488372093,
          "velocity": 0.1732283464566929
        },
        {
          "duration": 0.255813953488385,
          "durationTicks": 22,
          "midi": 55,
          "name": "G3",
          "ticks": 9688,
          "time": 112.65116279069767,
          "velocity": 0.49606299212598426
        },
        {
          "duration": 0.22093023255814614,
          "durationTicks": 19,
          "midi": 60,
          "name": "C4",
          "ticks": 9688,
          "time": 112.65116279069767,
          "velocity": 0.5590551181102362
        },
        {
          "duration": 0.16279069767442422,
          "durationTicks": 14,
          "midi": 74,
          "name": "D5",
          "ticks": 9688,
          "time": 112.65116279069767,
          "velocity": 0.2755905511811024
        },
        {
          "duration": 0.22093023255814614,
          "durationTicks": 19,
          "midi": 88,
          "name": "E6",
          "ticks": 9688,
          "time": 112.65116279069767,
          "velocity": 0.18110236220472442
        },
        {
          "duration": 0.04651162790698038,
          "durationTicks": 4,
          "midi": 37,
          "name": "C#2",
          "ticks": 9690,
          "time": 112.67441860465117,
          "velocity": 0.44881889763779526
        },
        {
          "duration": 0.04651162790698038,
          "durationTicks": 4,
          "midi": 82,
          "name": "A#5",
          "ticks": 9690,
          "time": 112.67441860465117,
          "velocity": 0.07086614173228346
        },
        {
          "duration": 0.06976744186046346,
          "durationTicks": 6,
          "midi": 94,
          "name": "A#6",
          "ticks": 9690,
          "time": 112.67441860465117,
          "velocity": 0.07086614173228346
        },
        {
          "duration": 0.13953488372092693,
          "durationTicks": 12,
          "midi": 78,
          "name": "F#5",
          "ticks": 9691,
          "time": 112.68604651162791,
          "velocity": 0.11023622047244094
        },
        {
          "duration": 0.16279069767442422,
          "durationTicks": 14,
          "midi": 64,
          "name": "E4",
          "ticks": 9693,
          "time": 112.70930232558139,
          "velocity": 0.1968503937007874
        },
        {
          "duration": 0.17441860465115155,
          "durationTicks": 15,
          "midi": 48,
          "name": "C3",
          "ticks": 9694,
          "time": 112.72093023255815,
          "velocity": 0.5118110236220472
        },
        {
          "duration": 0.034883720930224626,
          "durationTicks": 3,
          "midi": 70,
          "name": "A#4",
          "ticks": 9694,
          "time": 112.72093023255815,
          "velocity": 0.11811023622047244
        },
        {
          "duration": 0.06976744186046346,
          "durationTicks": 6,
          "midi": 36,
          "name": "C2",
          "ticks": 9696,
          "time": 112.74418604651163,
          "velocity": 0.3858267716535433
        },
        {
          "duration": 0.081395348837205,
          "durationTicks": 7,
          "midi": 70,
          "name": "A#4",
          "ticks": 9700,
          "time": 112.79069767441861,
          "velocity": 0.08661417322834646
        },
        {
          "duration": 0.023255813953483084,
          "durationTicks": 2,
          "midi": 35,
          "name": "B1",
          "ticks": 9702,
          "time": 112.81395348837209,
          "velocity": 0.25984251968503935
        },
        {
          "duration": 0.03488372093023884,
          "durationTicks": 3,
          "midi": 36,
          "name": "C2",
          "ticks": 9704,
          "time": 112.83720930232558,
          "velocity": 0.2677165354330709
        },
        {
          "duration": 0.2093023255813904,
          "durationTicks": 18,
          "midi": 83,
          "name": "B5",
          "ticks": 9708,
          "time": 112.88372093023256,
          "velocity": 0.2204724409448819
        },
        {
          "duration": 0.05813953488372192,
          "durationTicks": 5,
          "midi": 85,
          "name": "C#6",
          "ticks": 9708,
          "time": 112.88372093023256,
          "velocity": 0.09448818897637795
        },
        {
          "duration": 0.12790697674418539,
          "durationTicks": 11,
          "midi": 89,
          "name": "F6",
          "ticks": 9708,
          "time": 112.88372093023256,
          "velocity": 0.10236220472440945
        },
        {
          "duration": 0.12790697674418539,
          "durationTicks": 11,
          "midi": 93,
          "name": "A6",
          "ticks": 9708,
          "time": 112.88372093023256,
          "velocity": 0.1732283464566929
        },
        {
          "duration": 0.023255813953497295,
          "durationTicks": 2,
          "midi": 38,
          "name": "D2",
          "ticks": 9709,
          "time": 112.8953488372093,
          "velocity": 0.47244094488188976
        },
        {
          "duration": 0.22093023255814614,
          "durationTicks": 19,
          "midi": 50,
          "name": "D3",
          "ticks": 9709,
          "time": 112.8953488372093,
          "velocity": 0.48031496062992124
        },
        {
          "duration": 0.023255813953483084,
          "durationTicks": 2,
          "midi": 60,
          "name": "C4",
          "ticks": 9710,
          "time": 112.90697674418605,
          "velocity": 0.2992125984251969
        },
        {
          "duration": 0.05813953488372192,
          "durationTicks": 5,
          "midi": 39,
          "name": "D#2",
          "ticks": 9711,
          "time": 112.9186046511628,
          "velocity": 0.4566929133858268
        },
        {
          "duration": 0.11627906976744384,
          "durationTicks": 10,
          "midi": 86,
          "name": "D6",
          "ticks": 9711,
          "time": 112.9186046511628,
          "velocity": 0.07874015748031496
        },
        {
          "duration": 0.1046511627907023,
          "durationTicks": 9,
          "midi": 76,
          "name": "E5",
          "ticks": 9712,
          "time": 112.93023255813954,
          "velocity": 0.08661417322834646
        },
        {
          "duration": 0.034883720930224626,
          "durationTicks": 3,
          "midi": 38,
          "name": "D2",
          "ticks": 9716,
          "time": 112.97674418604652,
          "velocity": 0.3464566929133858
        },
        {
          "duration": 0.03488372093023884,
          "durationTicks": 3,
          "midi": 37,
          "name": "C#2",
          "ticks": 9719,
          "time": 113.01162790697674,
          "velocity": 0.29133858267716534
        },
        {
          "duration": 0.023255813953497295,
          "durationTicks": 2,
          "midi": 56,
          "name": "G#3",
          "ticks": 9719,
          "time": 113.01162790697674,
          "velocity": 0.33858267716535434
        },
        {
          "duration": 0.081395348837205,
          "durationTicks": 7,
          "midi": 72,
          "name": "C5",
          "ticks": 9719,
          "time": 113.01162790697674,
          "velocity": 0.11811023622047244
        },
        {
          "duration": 0.023255813953483084,
          "durationTicks": 2,
          "midi": 57,
          "name": "A3",
          "ticks": 9721,
          "time": 113.03488372093024,
          "velocity": 0.2755905511811024
        },
        {
          "duration": 0.05813953488372192,
          "durationTicks": 5,
          "midi": 38,
          "name": "D2",
          "ticks": 9722,
          "time": 113.04651162790698,
          "velocity": 0.2755905511811024
        },
        {
          "duration": 0.46511627906976116,
          "durationTicks": 40,
          "midi": 69,
          "name": "A4",
          "ticks": 9727,
          "time": 113.1046511627907,
          "velocity": 0.44881889763779526
        },
        {
          "duration": 0.09302325581394655,
          "durationTicks": 8,
          "midi": 90,
          "name": "F#6",
          "ticks": 9727,
          "time": 113.1046511627907,
          "velocity": 0.11811023622047244
        },
        {
          "duration": 0.1046511627907023,
          "durationTicks": 9,
          "midi": 57,
          "name": "A3",
          "ticks": 9728,
          "time": 113.11627906976744,
          "velocity": 0.4330708661417323
        },
        {
          "duration": 0.4767441860465027,
          "durationTicks": 41,
          "midi": 62,
          "name": "D4",
          "ticks": 9728,
          "time": 113.11627906976744,
          "velocity": 0.4645669291338583
        },
        {
          "duration": 0.12790697674418539,
          "durationTicks": 11,
          "midi": 66,
          "name": "F#4",
          "ticks": 9728,
          "time": 113.11627906976744,
          "velocity": 0.2755905511811024
        },
        {
          "duration": 0.5,
          "durationTicks": 43,
          "midi": 85,
          "name": "C#6",
          "ticks": 9728,
          "time": 113.11627906976744,
          "velocity": 0.28346456692913385
        },
        {
          "duration": 0.19767441860464885,
          "durationTicks": 17,
          "midi": 50,
          "name": "D3",
          "ticks": 9729,
          "time": 113.12790697674419,
          "velocity": 0.5354330708661418
        },
        {
          "duration": 0.19767441860464885,
          "durationTicks": 17,
          "midi": 72,
          "name": "C5",
          "ticks": 9729,
          "time": 113.12790697674419,
          "velocity": 0.1889763779527559
        },
        {
          "duration": 0.2093023255813904,
          "durationTicks": 18,
          "midi": 95,
          "name": "B6",
          "ticks": 9729,
          "time": 113.12790697674419,
          "velocity": 0.1732283464566929
        },
        {
          "duration": 0.03488372093023884,
          "durationTicks": 3,
          "midi": 39,
          "name": "D#2",
          "ticks": 9730,
          "time": 113.13953488372093,
          "velocity": 0.4881889763779528
        },
        {
          "duration": 0.034883720930224626,
          "durationTicks": 3,
          "midi": 91,
          "name": "G6",
          "ticks": 9732,
          "time": 113.16279069767442,
          "velocity": 0.12598425196850394
        },
        {
          "duration": 0.04651162790698038,
          "durationTicks": 4,
          "midi": 38,
          "name": "D2",
          "ticks": 9733,
          "time": 113.17441860465117,
          "velocity": 0.4251968503937008
        },
        {
          "duration": 0.13953488372092693,
          "durationTicks": 12,
          "midi": 80,
          "name": "G#5",
          "ticks": 9734,
          "time": 113.18604651162791,
          "velocity": 0.2125984251968504
        },
        {
          "duration": 0.034883720930224626,
          "durationTicks": 3,
          "midi": 56,
          "name": "G#3",
          "ticks": 9737,
          "time": 113.22093023255815,
          "velocity": 0.3937007874015748
        },
        {
          "duration": 0.05813953488370771,
          "durationTicks": 5,
          "midi": 82,
          "name": "A#5",
          "ticks": 9737,
          "time": 113.22093023255815,
          "velocity": 0.11811023622047244
        },
        {
          "duration": 0.09302325581394655,
          "durationTicks": 8,
          "midi": 90,
          "name": "F#6",
          "ticks": 9737,
          "time": 113.22093023255815,
          "velocity": 0.14173228346456693
        },
        {
          "duration": 0.09302325581394655,
          "durationTicks": 8,
          "midi": 91,
          "name": "G6",
          "ticks": 9737,
          "time": 113.22093023255815,
          "velocity": 0.11811023622047244
        },
        {
          "duration": 0.2674418604651123,
          "durationTicks": 23,
          "midi": 88,
          "name": "E6",
          "ticks": 9738,
          "time": 113.23255813953489,
          "velocity": 0.16535433070866143
        },
        {
          "duration": 0.023255813953483084,
          "durationTicks": 2,
          "midi": 40,
          "name": "E2",
          "ticks": 9739,
          "time": 113.24418604651163,
          "velocity": 0.4330708661417323
        },
        {
          "duration": 0.081395348837205,
          "durationTicks": 7,
          "midi": 57,
          "name": "A3",
          "ticks": 9740,
          "time": 113.25581395348837,
          "velocity": 0.28346456692913385
        },
        {
          "duration": 0.023255813953497295,
          "durationTicks": 2,
          "midi": 39,
          "name": "D#2",
          "ticks": 9741,
          "time": 113.26744186046511,
          "velocity": 0.3700787401574803
        },
        {
          "duration": 0.06976744186047767,
          "durationTicks": 6,
          "midi": 66,
          "name": "F#4",
          "ticks": 9742,
          "time": 113.27906976744185,
          "velocity": 0.25196850393700787
        },
        {
          "duration": 0.3139534883720927,
          "durationTicks": 27,
          "midi": 76,
          "name": "E5",
          "ticks": 9742,
          "time": 113.27906976744185,
          "velocity": 0.2283464566929134
        },
        {
          "duration": 0.05813953488372192,
          "durationTicks": 5,
          "midi": 38,
          "name": "D2",
          "ticks": 9743,
          "time": 113.29069767441861,
          "velocity": 0.4015748031496063
        },
        {
          "duration": 0.011627906976755753,
          "durationTicks": 1,
          "midi": 50,
          "name": "D3",
          "ticks": 9747,
          "time": 113.33720930232558,
          "velocity": 0.5590551181102362
        },
        {
          "duration": 0.011627906976741542,
          "durationTicks": 1,
          "midi": 48,
          "name": "C3",
          "ticks": 9748,
          "time": 113.34883720930233,
          "velocity": 0.5748031496062992
        },
        {
          "duration": 0.10465116279068809,
          "durationTicks": 9,
          "midi": 50,
          "name": "D3",
          "ticks": 9749,
          "time": 113.36046511627907,
          "velocity": 0.5590551181102362
        },
        {
          "duration": 0.034883720930224626,
          "durationTicks": 3,
          "midi": 92,
          "name": "G#6",
          "ticks": 9749,
          "time": 113.36046511627907,
          "velocity": 0.11023622047244094
        },
        {
          "duration": 0.1860465116279073,
          "durationTicks": 16,
          "midi": 84,
          "name": "C6",
          "ticks": 9750,
          "time": 113.37209302325581,
          "velocity": 0.18110236220472442
        },
        {
          "duration": 0.17441860465116577,
          "durationTicks": 15,
          "midi": 57,
          "name": "A3",
          "ticks": 9751,
          "time": 113.38372093023256,
          "velocity": 0.16535433070866143
        },
        {
          "duration": 0.09302325581396076,
          "durationTicks": 8,
          "midi": 79,
          "name": "G5",
          "ticks": 9751,
          "time": 113.38372093023256,
          "velocity": 0.14173228346456693
        },
        {
          "duration": 0.12790697674418539,
          "durationTicks": 11,
          "midi": 78,
          "name": "F#5",
          "ticks": 9753,
          "time": 113.40697674418605,
          "velocity": 0.12598425196850394
        },
        {
          "duration": 0.11627906976744384,
          "durationTicks": 10,
          "midi": 67,
          "name": "G4",
          "ticks": 9755,
          "time": 113.43023255813954,
          "velocity": 0.14173228346456693
        },
        {
          "duration": 0.034883720930224626,
          "durationTicks": 3,
          "midi": 50,
          "name": "D3",
          "ticks": 9759,
          "time": 113.47674418604652,
          "velocity": 0.44881889763779526
        },
        {
          "duration": 0.023255813953483084,
          "durationTicks": 2,
          "midi": 45,
          "name": "A2",
          "ticks": 9760,
          "time": 113.48837209302326,
          "velocity": 0.3700787401574803
        },
        {
          "duration": 0.023255813953497295,
          "durationTicks": 2,
          "midi": 49,
          "name": "C#3",
          "ticks": 9763,
          "time": 113.52325581395348,
          "velocity": 0.4015748031496063
        },
        {
          "duration": 0.40697674418603924,
          "durationTicks": 35,
          "midi": 79,
          "name": "G5",
          "ticks": 9766,
          "time": 113.55813953488372,
          "velocity": 0.25196850393700787
        },
        {
          "duration": 0.023255813953483084,
          "durationTicks": 2,
          "midi": 60,
          "name": "C4",
          "ticks": 9767,
          "time": 113.56976744186046,
          "velocity": 0.28346456692913385
        },
        {
          "duration": 0.023255813953483084,
          "durationTicks": 2,
          "midi": 68,
          "name": "G#4",
          "ticks": 9767,
          "time": 113.56976744186046,
          "velocity": 0.4094488188976378
        },
        {
          "duration": 0.3139534883720927,
          "durationTicks": 27,
          "midi": 83,
          "name": "B5",
          "ticks": 9767,
          "time": 113.56976744186046,
          "velocity": 0.2204724409448819
        },
        {
          "duration": 0.03488372093023884,
          "durationTicks": 3,
          "midi": 89,
          "name": "F6",
          "ticks": 9767,
          "time": 113.56976744186046,
          "velocity": 0.09448818897637795
        },
        {
          "duration": 0.011627906976741542,
          "durationTicks": 1,
          "midi": 47,
          "name": "B2",
          "ticks": 9768,
          "time": 113.5813953488372,
          "velocity": 0.5275590551181102
        },
        {
          "duration": 0.04651162790698038,
          "durationTicks": 4,
          "midi": 37,
          "name": "C#2",
          "ticks": 9769,
          "time": 113.59302325581395,
          "velocity": 0.4645669291338583
        },
        {
          "duration": 0.08139534883721922,
          "durationTicks": 7,
          "midi": 55,
          "name": "G3",
          "ticks": 9769,
          "time": 113.59302325581395,
          "velocity": 0.3464566929133858
        },
        {
          "duration": 0.08139534883721922,
          "durationTicks": 7,
          "midi": 67,
          "name": "G4",
          "ticks": 9769,
          "time": 113.59302325581395,
          "velocity": 0.3937007874015748
        },
        {
          "duration": 0.04651162790698038,
          "durationTicks": 4,
          "midi": 82,
          "name": "A#5",
          "ticks": 9769,
          "time": 113.59302325581395,
          "velocity": 0.08661417322834646
        },
        {
          "duration": 0.08139534883721922,
          "durationTicks": 7,
          "midi": 93,
          "name": "A6",
          "ticks": 9769,
          "time": 113.59302325581395,
          "velocity": 0.07874015748031496
        },
        {
          "duration": 0.06976744186046346,
          "durationTicks": 6,
          "midi": 78,
          "name": "F#5",
          "ticks": 9770,
          "time": 113.6046511627907,
          "velocity": 0.12598425196850394
        },
        {
          "duration": 0.04651162790698038,
          "durationTicks": 4,
          "midi": 89,
          "name": "F6",
          "ticks": 9771,
          "time": 113.61627906976744,
          "velocity": 0.11811023622047244
        },
        {
          "duration": 0.023255813953483084,
          "durationTicks": 2,
          "midi": 47,
          "name": "B2",
          "ticks": 9772,
          "time": 113.62790697674419,
          "velocity": 0.4409448818897638
        },
        {
          "duration": 0.03488372093023884,
          "durationTicks": 3,
          "midi": 69,
          "name": "A4",
          "ticks": 9772,
          "time": 113.62790697674419,
          "velocity": 0.14173228346456693
        },
        {
          "duration": 0.04651162790698038,
          "durationTicks": 4,
          "midi": 36,
          "name": "C2",
          "ticks": 9773,
          "time": 113.63953488372093,
          "velocity": 0.3937007874015748
        },
        {
          "duration": 0.15116279069768268,
          "durationTicks": 13,
          "midi": 60,
          "name": "C4",
          "ticks": 9773,
          "time": 113.63953488372093,
          "velocity": 0.25984251968503935
        },
        {
          "duration": 0.15116279069768268,
          "durationTicks": 13,
          "midi": 64,
          "name": "E4",
          "ticks": 9773,
          "time": 113.63953488372093,
          "velocity": 0.2125984251968504
        },
        {
          "duration": 0.023255813953483084,
          "durationTicks": 2,
          "midi": 68,
          "name": "G#4",
          "ticks": 9776,
          "time": 113.67441860465117,
          "velocity": 0.3464566929133858
        },
        {
          "duration": 0.023255813953483084,
          "durationTicks": 2,
          "midi": 37,
          "name": "C#2",
          "ticks": 9777,
          "time": 113.68604651162791,
          "velocity": 0.3700787401574803
        },
        {
          "duration": 0.023255813953483084,
          "durationTicks": 2,
          "midi": 47,
          "name": "B2",
          "ticks": 9777,
          "time": 113.68604651162791,
          "velocity": 0.3937007874015748
        },
        {
          "duration": 0.023255813953483084,
          "durationTicks": 2,
          "midi": 55,
          "name": "G3",
          "ticks": 9777,
          "time": 113.68604651162791,
          "velocity": 0.36220472440944884
        },
        {
          "duration": 0.13953488372092693,
          "durationTicks": 12,
          "midi": 89,
          "name": "F6",
          "ticks": 9777,
          "time": 113.68604651162791,
          "velocity": 0.14173228346456693
        },
        {
          "duration": 0.13953488372092693,
          "durationTicks": 12,
          "midi": 67,
          "name": "G4",
          "ticks": 9778,
          "time": 113.69767441860465,
          "velocity": 0.4015748031496063
        },
        {
          "duration": 0.023255813953483084,
          "durationTicks": 2,
          "midi": 34,
          "name": "A#1",
          "ticks": 9780,
          "time": 113.72093023255815,
          "velocity": 0.2283464566929134
        },
        {
          "duration": 0.06976744186046346,
          "durationTicks": 6,
          "midi": 55,
          "name": "G3",
          "ticks": 9781,
          "time": 113.73255813953489,
          "velocity": 0.29133858267716534
        },
        {
          "duration": 0.04651162790698038,
          "durationTicks": 4,
          "midi": 36,
          "name": "C2",
          "ticks": 9782,
          "time": 113.74418604651163,
          "velocity": 0.2992125984251969
        },
        {
          "duration": 0.05813953488372192,
          "durationTicks": 5,
          "midi": 48,
          "name": "C3",
          "ticks": 9783,
          "time": 113.75581395348837,
          "velocity": 0.49606299212598426
        },
        {
          "duration": 0.03488372093023884,
          "durationTicks": 3,
          "midi": 70,
          "name": "A#4",
          "ticks": 9783,
          "time": 113.75581395348837,
          "velocity": 0.07086614173228346
        },
        {
          "duration": 0.23255813953487348,
          "durationTicks": 20,
          "midi": 62,
          "name": "D4",
          "ticks": 9786,
          "time": 113.79069767441861,
          "velocity": 0.28346456692913385
        },
        {
          "duration": 0.04651162790696617,
          "durationTicks": 4,
          "midi": 78,
          "name": "F#5",
          "ticks": 9786,
          "time": 113.79069767441861,
          "velocity": 0.07086614173228346
        },
        {
          "duration": 0.09302325581394655,
          "durationTicks": 8,
          "midi": 93,
          "name": "A6",
          "ticks": 9786,
          "time": 113.79069767441861,
          "velocity": 0.18110236220472442
        },
        {
          "duration": 0.2325581395348877,
          "durationTicks": 20,
          "midi": 72,
          "name": "C5",
          "ticks": 9787,
          "time": 113.80232558139535,
          "velocity": 0.1968503937007874
        },
        {
          "duration": 0.023255813953497295,
          "durationTicks": 2,
          "midi": 38,
          "name": "D2",
          "ticks": 9789,
          "time": 113.82558139534883,
          "velocity": 0.4566929133858268
        },
        {
          "duration": 0.04651162790696617,
          "durationTicks": 4,
          "midi": 39,
          "name": "D#2",
          "ticks": 9791,
          "time": 113.84883720930233,
          "velocity": 0.4094488188976378
        },
        {
          "duration": 0.034883720930224626,
          "durationTicks": 3,
          "midi": 67,
          "name": "G4",
          "ticks": 9791,
          "time": 113.84883720930233,
          "velocity": 0.2677165354330709
        },
        {
          "duration": 0.05813953488372192,
          "durationTicks": 5,
          "midi": 76,
          "name": "E5",
          "ticks": 9791,
          "time": 113.84883720930233,
          "velocity": 0.08661417322834646
        },
        {
          "duration": 0.09302325581394655,
          "durationTicks": 8,
          "midi": 57,
          "name": "A3",
          "ticks": 9792,
          "time": 113.86046511627907,
          "velocity": 0.4566929133858268
        },
        {
          "duration": 0.6046511627907023,
          "durationTicks": 52,
          "midi": 69,
          "name": "A4",
          "ticks": 9794,
          "time": 113.88372093023256,
          "velocity": 0.47244094488188976
        },
        {
          "duration": 0.04651162790698038,
          "durationTicks": 4,
          "midi": 38,
          "name": "D2",
          "ticks": 9795,
          "time": 113.8953488372093,
          "velocity": 0.36220472440944884
        },
        {
          "duration": 0.36046511627905886,
          "durationTicks": 31,
          "midi": 66,
          "name": "F#4",
          "ticks": 9796,
          "time": 113.90697674418605,
          "velocity": 0.2677165354330709
        },
        {
          "duration": 0.6279069767441854,
          "durationTicks": 54,
          "midi": 85,
          "name": "C#6",
          "ticks": 9796,
          "time": 113.90697674418605,
          "velocity": 0.2440944881889764
        },
        {
          "duration": 0.3372093023255758,
          "durationTicks": 29,
          "midi": 95,
          "name": "B6",
          "ticks": 9797,
          "time": 113.9186046511628,
          "velocity": 0.1732283464566929
        },
        {
          "duration": 0.023255813953483084,
          "durationTicks": 2,
          "midi": 36,
          "name": "C2",
          "ticks": 9799,
          "time": 113.94186046511628,
          "velocity": 0.25984251968503935
        },
        {
          "duration": 0.05813953488372192,
          "durationTicks": 5,
          "midi": 57,
          "name": "A3",
          "ticks": 9801,
          "time": 113.96511627906976,
          "velocity": 0.3700787401574803
        },
        {
          "duration": 0.023255813953483084,
          "durationTicks": 2,
          "midi": 39,
          "name": "D#2",
          "ticks": 9802,
          "time": 113.97674418604652,
          "velocity": 0.2992125984251969
        },
        {
          "duration": 0.023255813953483084,
          "durationTicks": 2,
          "midi": 38,
          "name": "D2",
          "ticks": 9804,
          "time": 114,
          "velocity": 0.2677165354330709
        },
        {
          "duration": 0.1860465116279073,
          "durationTicks": 16,
          "midi": 80,
          "name": "G#5",
          "ticks": 9806,
          "time": 114.02325581395348,
          "velocity": 0.16535433070866143
        },
        {
          "duration": 0.08139534883721922,
          "durationTicks": 7,
          "midi": 90,
          "name": "F#6",
          "ticks": 9806,
          "time": 114.02325581395348,
          "velocity": 0.12598425196850394
        },
        {
          "duration": 0.09302325581394655,
          "durationTicks": 8,
          "midi": 57,
          "name": "A3",
          "ticks": 9807,
          "time": 114.03488372093024,
          "velocity": 0.4330708661417323
        },
        {
          "duration": 0.09302325581394655,
          "durationTicks": 8,
          "midi": 88,
          "name": "E6",
          "ticks": 9807,
          "time": 114.03488372093024,
          "velocity": 0.08661417322834646
        },
        {
          "duration": 0.19767441860464885,
          "durationTicks": 17,
          "midi": 50,
          "name": "D3",
          "ticks": 9808,
          "time": 114.04651162790698,
          "velocity": 0.5039370078740157
        },
        {
          "duration": 0.04651162790696617,
          "durationTicks": 4,
          "midi": 84,
          "name": "C6",
          "ticks": 9808,
          "time": 114.04651162790698,
          "velocity": 0.08661417322834646
        },
        {
          "duration": 0.034883720930224626,
          "durationTicks": 3,
          "midi": 39,
          "name": "D#2",
          "ticks": 9809,
          "time": 114.05813953488372,
          "velocity": 0.4881889763779528
        },
        {
          "duration": 0.19767441860464885,
          "durationTicks": 17,
          "midi": 72,
          "name": "C5",
          "ticks": 9809,
          "time": 114.05813953488372,
          "velocity": 0.18110236220472442
        },
        {
          "duration": 0.03488372093023884,
          "durationTicks": 3,
          "midi": 91,
          "name": "G6",
          "ticks": 9811,
          "time": 114.0813953488372,
          "velocity": 0.11023622047244094
        },
        {
          "duration": 0.04651162790698038,
          "durationTicks": 4,
          "midi": 38,
          "name": "D2",
          "ticks": 9812,
          "time": 114.09302325581395,
          "velocity": 0.4251968503937008
        },
        {
          "duration": 0.40697674418603924,
          "durationTicks": 35,
          "midi": 76,
          "name": "E5",
          "ticks": 9813,
          "time": 114.1046511627907,
          "velocity": 0.15748031496062992
        },
        {
          "duration": 0.023255813953497295,
          "durationTicks": 2,
          "midi": 39,
          "name": "D#2",
          "ticks": 9816,
          "time": 114.13953488372093,
          "velocity": 0.3858267716535433
        },
        {
          "duration": 0.1046511627907023,
          "durationTicks": 9,
          "midi": 57,
          "name": "A3",
          "ticks": 9816,
          "time": 114.13953488372093,
          "velocity": 0.4015748031496063
        },
        {
          "duration": 0.08139534883721922,
          "durationTicks": 7,
          "midi": 91,
          "name": "G6",
          "ticks": 9817,
          "time": 114.15116279069767,
          "velocity": 0.14960629921259844
        },
        {
          "duration": 0.023255813953483084,
          "durationTicks": 2,
          "midi": 37,
          "name": "C#2",
          "ticks": 9819,
          "time": 114.17441860465117,
          "velocity": 0.25196850393700787
        },
        {
          "duration": 0.023255813953483084,
          "durationTicks": 2,
          "midi": 38,
          "name": "D2",
          "ticks": 9823,
          "time": 114.22093023255815,
          "velocity": 0.29133858267716534
        },
        {
          "duration": 0.011627906976741542,
          "durationTicks": 1,
          "midi": 50,
          "name": "D3",
          "ticks": 9826,
          "time": 114.25581395348837,
          "velocity": 0.5433070866141733
        },
        {
          "duration": 0.03488372093023884,
          "durationTicks": 3,
          "midi": 79,
          "name": "G5",
          "ticks": 9826,
          "time": 114.25581395348837,
          "velocity": 0.15748031496062992
        },
        {
          "duration": 0.22093023255814614,
          "durationTicks": 19,
          "midi": 84,
          "name": "C6",
          "ticks": 9826,
          "time": 114.25581395348837,
          "velocity": 0.2204724409448819
        },
        {
          "duration": 0.011627906976741542,
          "durationTicks": 1,
          "midi": 48,
          "name": "C3",
          "ticks": 9827,
          "time": 114.26744186046511,
          "velocity": 0.5669291338582677
        },
        {
          "duration": 0.04651162790698038,
          "durationTicks": 4,
          "midi": 78,
          "name": "F#5",
          "ticks": 9827,
          "time": 114.26744186046511,
          "velocity": 0.1889763779527559
        },
        {
          "duration": 0.1046511627907023,
          "durationTicks": 9,
          "midi": 50,
          "name": "D3",
          "ticks": 9828,
          "time": 114.27906976744185,
          "velocity": 0.5354330708661418
        },
        {
          "duration": 0.03488372093023884,
          "durationTicks": 3,
          "midi": 92,
          "name": "G#6",
          "ticks": 9828,
          "time": 114.27906976744185,
          "velocity": 0.10236220472440945
        },
        {
          "duration": 0.12790697674418539,
          "durationTicks": 11,
          "midi": 78,
          "name": "F#5",
          "ticks": 9832,
          "time": 114.32558139534883,
          "velocity": 0.13385826771653545
        },
        {
          "duration": 0.06976744186046346,
          "durationTicks": 6,
          "midi": 79,
          "name": "G5",
          "ticks": 9832,
          "time": 114.32558139534883,
          "velocity": 0.11811023622047244
        },
        {
          "duration": 0.081395348837205,
          "durationTicks": 7,
          "midi": 57,
          "name": "A3",
          "ticks": 9834,
          "time": 114.34883720930233,
          "velocity": 0.11811023622047244
        },
        {
          "duration": 0.04651162790698038,
          "durationTicks": 4,
          "midi": 67,
          "name": "G4",
          "ticks": 9837,
          "time": 114.38372093023256,
          "velocity": 0.11811023622047244
        },
        {
          "duration": 0.03488372093023884,
          "durationTicks": 3,
          "midi": 50,
          "name": "D3",
          "ticks": 9838,
          "time": 114.3953488372093,
          "velocity": 0.4409448818897638
        },
        {
          "duration": 0.023255813953483084,
          "durationTicks": 2,
          "midi": 45,
          "name": "A2",
          "ticks": 9839,
          "time": 114.40697674418605,
          "velocity": 0.3700787401574803
        },
        {
          "duration": 0.3953488372092977,
          "durationTicks": 34,
          "midi": 79,
          "name": "G5",
          "ticks": 9845,
          "time": 114.47674418604652,
          "velocity": 0.23622047244094488
        },
        {
          "duration": 0.023255813953483084,
          "durationTicks": 2,
          "midi": 60,
          "name": "C4",
          "ticks": 9846,
          "time": 114.48837209302326,
          "velocity": 0.28346456692913385
        },
        {
          "duration": 0.023255813953483084,
          "durationTicks": 2,
          "midi": 68,
          "name": "G#4",
          "ticks": 9846,
          "time": 114.48837209302326,
          "velocity": 0.4094488188976378
        },
        {
          "duration": 0.27906976744185386,
          "durationTicks": 24,
          "midi": 83,
          "name": "B5",
          "ticks": 9846,
          "time": 114.48837209302326,
          "velocity": 0.2204724409448819
        },
        {
          "duration": 0.034883720930224626,
          "durationTicks": 3,
          "midi": 89,
          "name": "F6",
          "ticks": 9846,
          "time": 114.48837209302326,
          "velocity": 0.08661417322834646
        },
        {
          "duration": 0.011627906976741542,
          "durationTicks": 1,
          "midi": 47,
          "name": "B2",
          "ticks": 9847,
          "time": 114.5,
          "velocity": 0.5354330708661418
        },
        {
          "duration": 0.05813953488372192,
          "durationTicks": 5,
          "midi": 82,
          "name": "A#5",
          "ticks": 9847,
          "time": 114.5,
          "velocity": 0.08661417322834646
        },
        {
          "duration": 0.04651162790698038,
          "durationTicks": 4,
          "midi": 37,
          "name": "C#2",
          "ticks": 9848,
          "time": 114.51162790697674,
          "velocity": 0.4566929133858268
        },
        {
          "duration": 0.09302325581396076,
          "durationTicks": 8,
          "midi": 55,
          "name": "G3",
          "ticks": 9848,
          "time": 114.51162790697674,
          "velocity": 0.3464566929133858
        },
        {
          "duration": 0.30232558139535115,
          "durationTicks": 26,
          "midi": 67,
          "name": "G4",
          "ticks": 9848,
          "time": 114.51162790697674,
          "velocity": 0.4645669291338583
        },
        {
          "duration": 0.27906976744186807,
          "durationTicks": 24,
          "midi": 93,
          "name": "A6",
          "ticks": 9848,
          "time": 114.51162790697674,
          "velocity": 0.18110236220472442
        },
        {
          "duration": 0.05813953488372192,
          "durationTicks": 5,
          "midi": 78,
          "name": "F#5",
          "ticks": 9849,
          "time": 114.52325581395348,
          "velocity": 0.12598425196850394
        },
        {
          "duration": 0.04651162790696617,
          "durationTicks": 4,
          "midi": 89,
          "name": "F6",
          "ticks": 9850,
          "time": 114.53488372093024,
          "velocity": 0.11023622047244094
        },
        {
          "duration": 0.023255813953483084,
          "durationTicks": 2,
          "midi": 47,
          "name": "B2",
          "ticks": 9851,
          "time": 114.54651162790698,
          "velocity": 0.4409448818897638
        },
        {
          "duration": 0.034883720930224626,
          "durationTicks": 3,
          "midi": 69,
          "name": "A4",
          "ticks": 9851,
          "time": 114.54651162790698,
          "velocity": 0.13385826771653545
        },
        {
          "duration": 0.04651162790698038,
          "durationTicks": 4,
          "midi": 36,
          "name": "C2",
          "ticks": 9852,
          "time": 114.55813953488372,
          "velocity": 0.3937007874015748
        },
        {
          "duration": 0.15116279069766847,
          "durationTicks": 13,
          "midi": 60,
          "name": "C4",
          "ticks": 9852,
          "time": 114.55813953488372,
          "velocity": 0.2677165354330709
        },
        {
          "duration": 0.15116279069766847,
          "durationTicks": 13,
          "midi": 64,
          "name": "E4",
          "ticks": 9852,
          "time": 114.55813953488372,
          "velocity": 0.2047244094488189
        },
        {
          "duration": 0.09302325581394655,
          "durationTicks": 8,
          "midi": 55,
          "name": "G3",
          "ticks": 9857,
          "time": 114.61627906976744,
          "velocity": 0.4251968503937008
        },
        {
          "duration": 0.13953488372092693,
          "durationTicks": 12,
          "midi": 89,
          "name": "F6",
          "ticks": 9857,
          "time": 114.61627906976744,
          "velocity": 0.14960629921259844
        },
        {
          "duration": 0.05813953488372192,
          "durationTicks": 5,
          "midi": 36,
          "name": "C2",
          "ticks": 9860,
          "time": 114.65116279069767,
          "velocity": 0.31496062992125984
        },
        {
          "duration": 0.06976744186046346,
          "durationTicks": 6,
          "midi": 48,
          "name": "C3",
          "ticks": 9861,
          "time": 114.66279069767442,
          "velocity": 0.5039370078740157
        },
        {
          "duration": 0.04651162790696617,
          "durationTicks": 4,
          "midi": 70,
          "name": "A#4",
          "ticks": 9861,
          "time": 114.66279069767442,
          "velocity": 0.08661417322834646
        },
        {
          "duration": 0.023255813953497295,
          "durationTicks": 2,
          "midi": 58,
          "name": "A#3",
          "ticks": 9865,
          "time": 114.70930232558139,
          "velocity": 0.2755905511811024
        },
        {
          "duration": 0.22093023255813193,
          "durationTicks": 19,
          "midi": 62,
          "name": "D4",
          "ticks": 9866,
          "time": 114.72093023255815,
          "velocity": 0.29133858267716534
        },
        {
          "duration": 0.23255813953487348,
          "durationTicks": 20,
          "midi": 72,
          "name": "C5",
          "ticks": 9866,
          "time": 114.72093023255815,
          "velocity": 0.1968503937007874
        },
        {
          "duration": 0.081395348837205,
          "durationTicks": 7,
          "midi": 57,
          "name": "A3",
          "ticks": 9867,
          "time": 114.73255813953489,
          "velocity": 0.33858267716535434
        },
        {
          "duration": 0.023255813953483084,
          "durationTicks": 2,
          "midi": 38,
          "name": "D2",
          "ticks": 9868,
          "time": 114.74418604651163,
          "velocity": 0.4566929133858268
        },
        {
          "duration": 0.04651162790698038,
          "durationTicks": 4,
          "midi": 39,
          "name": "D#2",
          "ticks": 9870,
          "time": 114.76744186046511,
          "velocity": 0.4094488188976378
        },
        {
          "duration": 0.05813953488372192,
          "durationTicks": 5,
          "midi": 76,
          "name": "E5",
          "ticks": 9870,
          "time": 114.76744186046511,
          "velocity": 0.09448818897637795
        },
        {
          "duration": 0.04651162790698038,
          "durationTicks": 4,
          "midi": 38,
          "name": "D2",
          "ticks": 9874,
          "time": 114.81395348837209,
          "velocity": 0.36220472440944884
        },
        {
          "duration": 0.5930232558139608,
          "durationTicks": 51,
          "midi": 69,
          "name": "A4",
          "ticks": 9874,
          "time": 114.81395348837209,
          "velocity": 0.47244094488188976
        },
        {
          "duration": 0.12790697674418539,
          "durationTicks": 11,
          "midi": 93,
          "name": "A6",
          "ticks": 9874,
          "time": 114.81395348837209,
          "velocity": 0.14173228346456693
        },
        {
          "duration": 0.023255813953497295,
          "durationTicks": 2,
          "midi": 56,
          "name": "G#3",
          "ticks": 9875,
          "time": 114.82558139534883,
          "velocity": 0.47244094488188976
        },
        {
          "duration": 0.6162790697674438,
          "durationTicks": 53,
          "midi": 85,
          "name": "C#6",
          "ticks": 9875,
          "time": 114.82558139534883,
          "velocity": 0.25196850393700787
        },
        {
          "duration": 0.3720930232558146,
          "durationTicks": 32,
          "midi": 66,
          "name": "F#4",
          "ticks": 9876,
          "time": 114.83720930232558,
          "velocity": 0.28346456692913385
        },
        {
          "duration": 0.3604651162790731,
          "durationTicks": 31,
          "midi": 95,
          "name": "B6",
          "ticks": 9876,
          "time": 114.83720930232558,
          "velocity": 0.1732283464566929
        },
        {
          "duration": 0.023255813953483084,
          "durationTicks": 2,
          "midi": 36,
          "name": "C2",
          "ticks": 9878,
          "time": 114.86046511627907,
          "velocity": 0.2677165354330709
        },
        {
          "duration": 0.06976744186046346,
          "durationTicks": 6,
          "midi": 57,
          "name": "A3",
          "ticks": 9879,
          "time": 114.87209302325581,
          "velocity": 0.36220472440944884
        },
        {
          "duration": 0.023255813953497295,
          "durationTicks": 2,
          "midi": 39,
          "name": "D#2",
          "ticks": 9881,
          "time": 114.8953488372093,
          "velocity": 0.2992125984251969
        },
        {
          "duration": 0.19767441860464885,
          "durationTicks": 17,
          "midi": 80,
          "name": "G#5",
          "ticks": 9885,
          "time": 114.94186046511628,
          "velocity": 0.16535433070866143
        },
        {
          "duration": 0.09302325581396076,
          "durationTicks": 8,
          "midi": 90,
          "name": "F#6",
          "ticks": 9885,
          "time": 114.94186046511628,
          "velocity": 0.11811023622047244
        },
        {
          "duration": 0.09302325581396076,
          "durationTicks": 8,
          "midi": 57,
          "name": "A3",
          "ticks": 9886,
          "time": 114.95348837209302,
          "velocity": 0.4251968503937008
        },
        {
          "duration": 0.48837209302325846,
          "durationTicks": 42,
          "midi": 62,
          "name": "D4",
          "ticks": 9886,
          "time": 114.95348837209302,
          "velocity": 0.4330708661417323
        },
        {
          "duration": 0.03488372093023884,
          "durationTicks": 3,
          "midi": 86,
          "name": "D6",
          "ticks": 9886,
          "time": 114.95348837209302,
          "velocity": 0.07086614173228346
        },
        {
          "duration": 0.09302325581396076,
          "durationTicks": 8,
          "midi": 88,
          "name": "E6",
          "ticks": 9886,
          "time": 114.95348837209302,
          "velocity": 0.08661417322834646
        },
        {
          "duration": 0.2093023255814046,
          "durationTicks": 18,
          "midi": 50,
          "name": "D3",
          "ticks": 9887,
          "time": 114.96511627906976,
          "velocity": 0.5039370078740157
        },
        {
          "duration": 0.04651162790698038,
          "durationTicks": 4,
          "midi": 84,
          "name": "C6",
          "ticks": 9887,
          "time": 114.96511627906976,
          "velocity": 0.09448818897637795
        },
        {
          "duration": 0.034883720930224626,
          "durationTicks": 3,
          "midi": 39,
          "name": "D#2",
          "ticks": 9888,
          "time": 114.97674418604652,
          "velocity": 0.4881889763779528
        },
        {
          "duration": 0.2093023255813904,
          "durationTicks": 18,
          "midi": 72,
          "name": "C5",
          "ticks": 9888,
          "time": 114.97674418604652,
          "velocity": 0.18110236220472442
        },
        {
          "duration": 0.03488372093023884,
          "durationTicks": 3,
          "midi": 91,
          "name": "G6",
          "ticks": 9890,
          "time": 115,
          "velocity": 0.10236220472440945
        },
        {
          "duration": 0.04651162790698038,
          "durationTicks": 4,
          "midi": 38,
          "name": "D2",
          "ticks": 9891,
          "time": 115.01162790697674,
          "velocity": 0.4251968503937008
        },
        {
          "duration": 0.16279069767442422,
          "durationTicks": 14,
          "midi": 76,
          "name": "E5",
          "ticks": 9892,
          "time": 115.02325581395348,
          "velocity": 0.13385826771653545
        },
        {
          "duration": 0.023255813953483084,
          "durationTicks": 2,
          "midi": 39,
          "name": "D#2",
          "ticks": 9895,
          "time": 115.05813953488372,
          "velocity": 0.3858267716535433
        },
        {
          "duration": 0.3372093023255758,
          "durationTicks": 29,
          "midi": 57,
          "name": "A3",
          "ticks": 9895,
          "time": 115.05813953488372,
          "velocity": 0.4015748031496063
        },
        {
          "duration": 0.081395348837205,
          "durationTicks": 7,
          "midi": 91,
          "name": "G6",
          "ticks": 9896,
          "time": 115.06976744186046,
          "velocity": 0.14960629921259844
        },
        {
          "duration": 0.023255813953497295,
          "durationTicks": 2,
          "midi": 37,
          "name": "C#2",
          "ticks": 9898,
          "time": 115.09302325581395,
          "velocity": 0.25196850393700787
        },
        {
          "duration": 0.03488372093023884,
          "durationTicks": 3,
          "midi": 38,
          "name": "D2",
          "ticks": 9902,
          "time": 115.13953488372093,
          "velocity": 0.30708661417322836
        },
        {
          "duration": 0.034883720930224626,
          "durationTicks": 3,
          "midi": 48,
          "name": "C3",
          "ticks": 9905,
          "time": 115.17441860465117,
          "velocity": 0.5275590551181102
        },
        {
          "duration": 0.19767441860464885,
          "durationTicks": 17,
          "midi": 84,
          "name": "C6",
          "ticks": 9906,
          "time": 115.18604651162791,
          "velocity": 0.2125984251968504
        },
        {
          "duration": 0.16279069767442422,
          "durationTicks": 14,
          "midi": 88,
          "name": "E6",
          "ticks": 9906,
          "time": 115.18604651162791,
          "velocity": 0.14173228346456693
        },
        {
          "duration": 0.03488372093023884,
          "durationTicks": 3,
          "midi": 92,
          "name": "G#6",
          "ticks": 9908,
          "time": 115.20930232558139,
          "velocity": 0.10236220472440945
        },
        {
          "duration": 0.034883720930224626,
          "durationTicks": 3,
          "midi": 50,
          "name": "D3",
          "ticks": 9909,
          "time": 115.22093023255815,
          "velocity": 0.49606299212598426
        },
        {
          "duration": 0.12790697674418539,
          "durationTicks": 11,
          "midi": 78,
          "name": "F#5",
          "ticks": 9912,
          "time": 115.25581395348837,
          "velocity": 0.13385826771653545
        },
        {
          "duration": 0.06976744186046346,
          "durationTicks": 6,
          "midi": 79,
          "name": "G5",
          "ticks": 9912,
          "time": 115.25581395348837,
          "velocity": 0.11811023622047244
        },
        {
          "duration": 0.03488372093023884,
          "durationTicks": 3,
          "midi": 50,
          "name": "D3",
          "ticks": 9913,
          "time": 115.26744186046511,
          "velocity": 0.48031496062992124
        },
        {
          "duration": 0.13953488372094114,
          "durationTicks": 12,
          "midi": 67,
          "name": "G4",
          "ticks": 9914,
          "time": 115.27906976744185,
          "velocity": 0.3937007874015748
        },
        {
          "duration": 0.023255813953483084,
          "durationTicks": 2,
          "midi": 49,
          "name": "C#3",
          "ticks": 9916,
          "time": 115.30232558139535,
          "velocity": 0.4330708661417323
        },
        {
          "duration": 0.03488372093023884,
          "durationTicks": 3,
          "midi": 50,
          "name": "D3",
          "ticks": 9918,
          "time": 115.32558139534883,
          "velocity": 0.4330708661417323
        },
        {
          "duration": 0.023255813953497295,
          "durationTicks": 2,
          "midi": 45,
          "name": "A2",
          "ticks": 9919,
          "time": 115.33720930232558,
          "velocity": 0.3700787401574803
        },
        {
          "duration": 0.33720930232559,
          "durationTicks": 29,
          "midi": 83,
          "name": "B5",
          "ticks": 9923,
          "time": 115.38372093023256,
          "velocity": 0.2204724409448819
        },
        {
          "duration": 0.08139534883721922,
          "durationTicks": 7,
          "midi": 88,
          "name": "E6",
          "ticks": 9924,
          "time": 115.3953488372093,
          "velocity": 0.1732283464566929
        },
        {
          "duration": 0.11627906976744384,
          "durationTicks": 10,
          "midi": 93,
          "name": "A6",
          "ticks": 9924,
          "time": 115.3953488372093,
          "velocity": 0.15748031496062992
        },
        {
          "duration": 0.023255813953483084,
          "durationTicks": 2,
          "midi": 47,
          "name": "B2",
          "ticks": 9925,
          "time": 115.40697674418605,
          "velocity": 0.5433070866141733
        },
        {
          "duration": 0.10465116279068809,
          "durationTicks": 9,
          "midi": 55,
          "name": "G3",
          "ticks": 9925,
          "time": 115.40697674418605,
          "velocity": 0.4330708661417323
        },
        {
          "duration": 0.05813953488370771,
          "durationTicks": 5,
          "midi": 78,
          "name": "F#5",
          "ticks": 9925,
          "time": 115.40697674418605,
          "velocity": 0.1889763779527559
        },
        {
          "duration": 0.023255813953483084,
          "durationTicks": 2,
          "midi": 60,
          "name": "C4",
          "ticks": 9926,
          "time": 115.4186046511628,
          "velocity": 0.30708661417322836
        },
        {
          "duration": 0.04651162790698038,
          "durationTicks": 4,
          "midi": 82,
          "name": "A#5",
          "ticks": 9927,
          "time": 115.43023255813954,
          "velocity": 0.08661417322834646
        },
        {
          "duration": 0.03488372093023884,
          "durationTicks": 3,
          "midi": 37,
          "name": "C#2",
          "ticks": 9928,
          "time": 115.44186046511628,
          "velocity": 0.44881889763779526
        },
        {
          "duration": 0.04651162790698038,
          "durationTicks": 4,
          "midi": 89,
          "name": "F6",
          "ticks": 9929,
          "time": 115.45348837209302,
          "velocity": 0.11023622047244094
        },
        {
          "duration": 0.04651162790698038,
          "durationTicks": 4,
          "midi": 48,
          "name": "C3",
          "ticks": 9930,
          "time": 115.46511627906976,
          "velocity": 0.4566929133858268
        },
        {
          "duration": 0.16279069767442422,
          "durationTicks": 14,
          "midi": 64,
          "name": "E4",
          "ticks": 9930,
          "time": 115.46511627906976,
          "velocity": 0.2047244094488189
        },
        {
          "duration": 0.03488372093023884,
          "durationTicks": 3,
          "midi": 69,
          "name": "A4",
          "ticks": 9930,
          "time": 115.46511627906976,
          "velocity": 0.14960629921259844
        },
        {
          "duration": 0.04651162790696617,
          "durationTicks": 4,
          "midi": 36,
          "name": "C2",
          "ticks": 9931,
          "time": 115.47674418604652,
          "velocity": 0.3937007874015748
        },
        {
          "duration": 0.023255813953497295,
          "durationTicks": 2,
          "midi": 37,
          "name": "C#2",
          "ticks": 9935,
          "time": 115.52325581395348,
          "velocity": 0.3700787401574803
        },
        {
          "duration": 0.023255813953497295,
          "durationTicks": 2,
          "midi": 48,
          "name": "C3",
          "ticks": 9935,
          "time": 115.52325581395348,
          "velocity": 0.4094488188976378
        },
        {
          "duration": 0.03488372093023884,
          "durationTicks": 3,
          "midi": 55,
          "name": "G3",
          "ticks": 9935,
          "time": 115.52325581395348,
          "velocity": 0.3543307086614173
        },
        {
          "duration": 0.023255813953497295,
          "durationTicks": 2,
          "midi": 68,
          "name": "G#4",
          "ticks": 9935,
          "time": 115.52325581395348,
          "velocity": 0.4015748031496063
        },
        {
          "duration": 0.15116279069768268,
          "durationTicks": 13,
          "midi": 89,
          "name": "F6",
          "ticks": 9935,
          "time": 115.52325581395348,
          "velocity": 0.14173228346456693
        },
        {
          "duration": 0.10465116279068809,
          "durationTicks": 9,
          "midi": 67,
          "name": "G4",
          "ticks": 9937,
          "time": 115.54651162790698,
          "velocity": 0.3937007874015748
        },
        {
          "duration": 0.05813953488372192,
          "durationTicks": 5,
          "midi": 48,
          "name": "C3",
          "ticks": 9938,
          "time": 115.55813953488372,
          "velocity": 0.3464566929133858
        },
        {
          "duration": 0.04651162790698038,
          "durationTicks": 4,
          "midi": 55,
          "name": "G3",
          "ticks": 9939,
          "time": 115.56976744186046,
          "velocity": 0.1968503937007874
        },
        {
          "duration": 0.023255813953497295,
          "durationTicks": 2,
          "midi": 36,
          "name": "C2",
          "ticks": 9940,
          "time": 115.5813953488372,
          "velocity": 0.29133858267716534
        },
        {
          "duration": 0.04651162790698038,
          "durationTicks": 4,
          "midi": 70,
          "name": "A#4",
          "ticks": 9940,
          "time": 115.5813953488372,
          "velocity": 0.15748031496062992
        },
        {
          "duration": 0.24418604651162923,
          "durationTicks": 21,
          "midi": 50,
          "name": "D3",
          "ticks": 9943,
          "time": 115.61627906976744,
          "velocity": 0.44881889763779526
        },
        {
          "duration": 0.06976744186046346,
          "durationTicks": 6,
          "midi": 93,
          "name": "A6",
          "ticks": 9943,
          "time": 115.61627906976744,
          "velocity": 0.15748031496062992
        },
        {
          "duration": 0.09302325581396076,
          "durationTicks": 8,
          "midi": 57,
          "name": "A3",
          "ticks": 9944,
          "time": 115.62790697674419,
          "velocity": 0.33858267716535434
        },
        {
          "duration": 0.2325581395348877,
          "durationTicks": 20,
          "midi": 72,
          "name": "C5",
          "ticks": 9944,
          "time": 115.62790697674419,
          "velocity": 0.1968503937007874
        },
        {
          "duration": 0.22093023255814614,
          "durationTicks": 19,
          "midi": 76,
          "name": "E5",
          "ticks": 9944,
          "time": 115.62790697674419,
          "velocity": 0.15748031496062992
        },
        {
          "duration": 0.05813953488372192,
          "durationTicks": 5,
          "midi": 38,
          "name": "D2",
          "ticks": 9946,
          "time": 115.65116279069767,
          "velocity": 0.44881889763779526
        },
        {
          "duration": 0.06976744186046346,
          "durationTicks": 6,
          "midi": 67,
          "name": "G4",
          "ticks": 9947,
          "time": 115.66279069767442,
          "velocity": 0.28346456692913385
        },
        {
          "duration": 0.023255813953483084,
          "durationTicks": 2,
          "midi": 38,
          "name": "D2",
          "ticks": 9952,
          "time": 115.72093023255815,
          "velocity": 0.2992125984251969
        },
        {
          "duration": 0.06976744186046346,
          "durationTicks": 6,
          "midi": 93,
          "name": "A6",
          "ticks": 9952,
          "time": 115.72093023255815,
          "velocity": 0.14173228346456693
        },
        {
          "duration": 0.3488372093023173,
          "durationTicks": 30,
          "midi": 69,
          "name": "A4",
          "ticks": 9953,
          "time": 115.73255813953489,
          "velocity": 0.4645669291338583
        },
        {
          "duration": 0.023255813953483084,
          "durationTicks": 2,
          "midi": 58,
          "name": "A#3",
          "ticks": 9954,
          "time": 115.74418604651163,
          "velocity": 0.4015748031496063
        },
        {
          "duration": 0.034883720930224626,
          "durationTicks": 3,
          "midi": 66,
          "name": "F#4",
          "ticks": 9954,
          "time": 115.74418604651163,
          "velocity": 0.25196850393700787
        },
        {
          "duration": 0.2674418604651123,
          "durationTicks": 23,
          "midi": 85,
          "name": "C#6",
          "ticks": 9954,
          "time": 115.74418604651163,
          "velocity": 0.2047244094488189
        },
        {
          "duration": 0.2674418604651123,
          "durationTicks": 23,
          "midi": 95,
          "name": "B6",
          "ticks": 9955,
          "time": 115.75581395348837,
          "velocity": 0.14960629921259844
        },
        {
          "duration": 0.30232558139535115,
          "durationTicks": 26,
          "midi": 57,
          "name": "A3",
          "ticks": 9956,
          "time": 115.76744186046511,
          "velocity": 0.47244094488188976
        },
        {
          "duration": 0.30232558139533694,
          "durationTicks": 26,
          "midi": 66,
          "name": "F#4",
          "ticks": 9958,
          "time": 115.79069767441861,
          "velocity": 0.2677165354330709
        },
        {
          "duration": 0.034883720930224626,
          "durationTicks": 3,
          "midi": 38,
          "name": "D2",
          "ticks": 9959,
          "time": 115.80232558139535,
          "velocity": 0.3228346456692913
        },
        {
          "duration": 0.19767441860464885,
          "durationTicks": 17,
          "midi": 80,
          "name": "G#5",
          "ticks": 9963,
          "time": 115.84883720930233,
          "velocity": 0.16535433070866143
        },
        {
          "duration": 0.09302325581394655,
          "durationTicks": 8,
          "midi": 90,
          "name": "F#6",
          "ticks": 9963,
          "time": 115.84883720930233,
          "velocity": 0.12598425196850394
        },
        {
          "duration": 0.2093023255813904,
          "durationTicks": 18,
          "midi": 50,
          "name": "D3",
          "ticks": 9965,
          "time": 115.87209302325581,
          "velocity": 0.5039370078740157
        },
        {
          "duration": 0.05813953488372192,
          "durationTicks": 5,
          "midi": 84,
          "name": "C6",
          "ticks": 9965,
          "time": 115.87209302325581,
          "velocity": 0.08661417322834646
        },
        {
          "duration": 0.03488372093023884,
          "durationTicks": 3,
          "midi": 39,
          "name": "D#2",
          "ticks": 9966,
          "time": 115.88372093023256,
          "velocity": 0.4881889763779528
        },
        {
          "duration": 0.32558139534883423,
          "durationTicks": 28,
          "midi": 72,
          "name": "C5",
          "ticks": 9966,
          "time": 115.88372093023256,
          "velocity": 0.5118110236220472
        },
        {
          "duration": 0.034883720930224626,
          "durationTicks": 3,
          "midi": 91,
          "name": "G6",
          "ticks": 9968,
          "time": 115.90697674418605,
          "velocity": 0.11023622047244094
        },
        {
          "duration": 0.09302325581394655,
          "durationTicks": 8,
          "midi": 38,
          "name": "D2",
          "ticks": 9969,
          "time": 115.9186046511628,
          "velocity": 0.4251968503937008
        },
        {
          "duration": 0.16279069767441,
          "durationTicks": 14,
          "midi": 76,
          "name": "E5",
          "ticks": 9970,
          "time": 115.93023255813954,
          "velocity": 0.14960629921259844
        },
        {
          "duration": 0.023255813953497295,
          "durationTicks": 2,
          "midi": 37,
          "name": "C#2",
          "ticks": 9977,
          "time": 116.01162790697674,
          "velocity": 0.2755905511811024
        },
        {
          "duration": 0.04651162790696617,
          "durationTicks": 4,
          "midi": 38,
          "name": "D2",
          "ticks": 9979,
          "time": 116.03488372093024,
          "velocity": 0.29133858267716534
        },
        {
          "duration": 0.11627906976744384,
          "durationTicks": 10,
          "midi": 60,
          "name": "C4",
          "ticks": 9983,
          "time": 116.0813953488372,
          "velocity": 0.5275590551181102
        },
        {
          "duration": 0.11627906976744384,
          "durationTicks": 10,
          "midi": 74,
          "name": "D5",
          "ticks": 9983,
          "time": 116.0813953488372,
          "velocity": 0.3464566929133858
        },
        {
          "duration": 0.38372093023255616,
          "durationTicks": 33,
          "midi": 88,
          "name": "E6",
          "ticks": 9983,
          "time": 116.0813953488372,
          "velocity": 0.2047244094488189
        },
        {
          "duration": 0.1046511627907023,
          "durationTicks": 9,
          "midi": 91,
          "name": "G6",
          "ticks": 9983,
          "time": 116.0813953488372,
          "velocity": 0.11023622047244094
        },
        {
          "duration": 0.13953488372094114,
          "durationTicks": 12,
          "midi": 67,
          "name": "G4",
          "ticks": 9984,
          "time": 116.09302325581395,
          "velocity": 0.23622047244094488
        },
        {
          "duration": 0.11627906976744384,
          "durationTicks": 10,
          "midi": 77,
          "name": "F5",
          "ticks": 9984,
          "time": 116.09302325581395,
          "velocity": 0.1968503937007874
        },
        {
          "duration": 0.15116279069768268,
          "durationTicks": 13,
          "midi": 79,
          "name": "G5",
          "ticks": 9984,
          "time": 116.09302325581395,
          "velocity": 0.2440944881889764
        },
        {
          "duration": 0.2325581395348877,
          "durationTicks": 20,
          "midi": 83,
          "name": "B5",
          "ticks": 9984,
          "time": 116.09302325581395,
          "velocity": 0.29133858267716534
        },
        {
          "duration": 0.17441860465116577,
          "durationTicks": 15,
          "midi": 90,
          "name": "F#6",
          "ticks": 9984,
          "time": 116.09302325581395,
          "velocity": 0.10236220472440945
        },
        {
          "duration": 0.08139534883721922,
          "durationTicks": 7,
          "midi": 94,
          "name": "A#6",
          "ticks": 9984,
          "time": 116.09302325581395,
          "velocity": 0.09448818897637795
        },
        {
          "duration": 0.023255813953483084,
          "durationTicks": 2,
          "midi": 42,
          "name": "F#2",
          "ticks": 9985,
          "time": 116.1046511627907,
          "velocity": 0.47244094488188976
        },
        {
          "duration": 0.081395348837205,
          "durationTicks": 7,
          "midi": 55,
          "name": "G3",
          "ticks": 9986,
          "time": 116.11627906976744,
          "velocity": 0.4409448818897638
        },
        {
          "duration": 0.09302325581394655,
          "durationTicks": 8,
          "midi": 85,
          "name": "C#6",
          "ticks": 9986,
          "time": 116.11627906976744,
          "velocity": 0.2047244094488189
        },
        {
          "duration": 0.034883720930224626,
          "durationTicks": 3,
          "midi": 98,
          "name": "D7",
          "ticks": 9986,
          "time": 116.11627906976744,
          "velocity": 0.09448818897637795
        },
        {
          "duration": 0.034883720930224626,
          "durationTicks": 3,
          "midi": 43,
          "name": "G2",
          "ticks": 9990,
          "time": 116.16279069767442,
          "velocity": 0.3858267716535433
        },
        {
          "duration": 0.03488372093023884,
          "durationTicks": 3,
          "midi": 71,
          "name": "B4",
          "ticks": 9993,
          "time": 116.19767441860465,
          "velocity": 0.4566929133858268
        },
        {
          "duration": 0.12790697674418539,
          "durationTicks": 11,
          "midi": 82,
          "name": "A#5",
          "ticks": 9993,
          "time": 116.19767441860465,
          "velocity": 0.2125984251968504
        },
        {
          "duration": 0.023255813953497295,
          "durationTicks": 2,
          "midi": 73,
          "name": "C#5",
          "ticks": 9994,
          "time": 116.20930232558139,
          "velocity": 0.33070866141732286
        },
        {
          "duration": 0.1860465116279073,
          "durationTicks": 16,
          "midi": 87,
          "name": "D#6",
          "ticks": 9994,
          "time": 116.20930232558139,
          "velocity": 0.15748031496062992
        },
        {
          "duration": 0.15116279069768268,
          "durationTicks": 13,
          "midi": 97,
          "name": "C#7",
          "ticks": 9994,
          "time": 116.20930232558139,
          "velocity": 0.14173228346456693
        },
        {
          "duration": 0.023255813953483084,
          "durationTicks": 2,
          "midi": 53,
          "name": "F3",
          "ticks": 9995,
          "time": 116.22093023255815,
          "velocity": 0.4409448818897638
        },
        {
          "duration": 0.023255813953483084,
          "durationTicks": 2,
          "midi": 59,
          "name": "B3",
          "ticks": 9995,
          "time": 116.22093023255815,
          "velocity": 0.44881889763779526
        },
        {
          "duration": 0.13953488372092693,
          "durationTicks": 12,
          "midi": 76,
          "name": "E5",
          "ticks": 9995,
          "time": 116.22093023255815,
          "velocity": 0.1968503937007874
        },
        {
          "duration": 0.13953488372092693,
          "durationTicks": 12,
          "midi": 92,
          "name": "G#6",
          "ticks": 9995,
          "time": 116.22093023255815,
          "velocity": 0.16535433070866143
        },
        {
          "duration": 0.023255813953483084,
          "durationTicks": 2,
          "midi": 41,
          "name": "F2",
          "ticks": 9996,
          "time": 116.23255813953489,
          "velocity": 0.3543307086614173
        },
        {
          "duration": 0.081395348837205,
          "durationTicks": 7,
          "midi": 66,
          "name": "F#4",
          "ticks": 9996,
          "time": 116.23255813953489,
          "velocity": 0.2204724409448819
        },
        {
          "duration": 0.10465116279068809,
          "durationTicks": 9,
          "midi": 80,
          "name": "G#5",
          "ticks": 9996,
          "time": 116.23255813953489,
          "velocity": 0.10236220472440945
        },
        {
          "duration": 0.06976744186046346,
          "durationTicks": 6,
          "midi": 54,
          "name": "F#3",
          "ticks": 9997,
          "time": 116.24418604651163,
          "velocity": 0.4015748031496063
        },
        {
          "duration": 0.06976744186046346,
          "durationTicks": 6,
          "midi": 71,
          "name": "B4",
          "ticks": 9997,
          "time": 116.24418604651163,
          "velocity": 0.3228346456692913
        },
        {
          "duration": 0.03488372093023884,
          "durationTicks": 3,
          "midi": 42,
          "name": "F#2",
          "ticks": 9999,
          "time": 116.26744186046511,
          "velocity": 0.4251968503937008
        },
        {
          "duration": 0.023255813953497295,
          "durationTicks": 2,
          "midi": 60,
          "name": "C4",
          "ticks": 9999,
          "time": 116.26744186046511,
          "velocity": 0.3543307086614173
        },
        {
          "duration": 0.04651162790698038,
          "durationTicks": 4,
          "midi": 73,
          "name": "C#5",
          "ticks": 10000,
          "time": 116.27906976744185,
          "velocity": 0.2677165354330709
        },
        {
          "duration": 0.034883720930224626,
          "durationTicks": 3,
          "midi": 59,
          "name": "B3",
          "ticks": 10001,
          "time": 116.29069767441861,
          "velocity": 0.41732283464566927
        },
        {
          "duration": 0.04651162790698038,
          "durationTicks": 4,
          "midi": 41,
          "name": "F2",
          "ticks": 10003,
          "time": 116.31395348837209,
          "velocity": 0.48031496062992124
        },
        {
          "duration": 0.1046511627907023,
          "durationTicks": 9,
          "midi": 64,
          "name": "E4",
          "ticks": 10004,
          "time": 116.32558139534883,
          "velocity": 0.2677165354330709
        },
        {
          "duration": 0.11627906976744384,
          "durationTicks": 10,
          "midi": 69,
          "name": "A4",
          "ticks": 10004,
          "time": 116.32558139534883,
          "velocity": 0.4409448818897638
        },
        {
          "duration": 0.12790697674418539,
          "durationTicks": 11,
          "midi": 85,
          "name": "C#6",
          "ticks": 10004,
          "time": 116.32558139534883,
          "velocity": 0.2283464566929134
        },
        {
          "duration": 0.05813953488372192,
          "durationTicks": 5,
          "midi": 86,
          "name": "D6",
          "ticks": 10004,
          "time": 116.32558139534883,
          "velocity": 0.07874015748031496
        },
        {
          "duration": 0.04651162790698038,
          "durationTicks": 4,
          "midi": 90,
          "name": "F#6",
          "ticks": 10004,
          "time": 116.32558139534883,
          "velocity": 0.07874015748031496
        },
        {
          "duration": 0.11627906976744384,
          "durationTicks": 10,
          "midi": 95,
          "name": "B6",
          "ticks": 10004,
          "time": 116.32558139534883,
          "velocity": 0.18110236220472442
        },
        {
          "duration": 0.03488372093023884,
          "durationTicks": 3,
          "midi": 73,
          "name": "C#5",
          "ticks": 10005,
          "time": 116.33720930232558,
          "velocity": 0.2047244094488189
        },
        {
          "duration": 0.16279069767442422,
          "durationTicks": 14,
          "midi": 91,
          "name": "G6",
          "ticks": 10005,
          "time": 116.33720930232558,
          "velocity": 0.13385826771653545
        },
        {
          "duration": 0.12790697674418539,
          "durationTicks": 11,
          "midi": 71,
          "name": "B4",
          "ticks": 10006,
          "time": 116.34883720930233,
          "velocity": 0.2440944881889764
        },
        {
          "duration": 0.081395348837205,
          "durationTicks": 7,
          "midi": 40,
          "name": "E2",
          "ticks": 10007,
          "time": 116.36046511627907,
          "velocity": 0.47244094488188976
        },
        {
          "duration": 0.03488372093023884,
          "durationTicks": 3,
          "midi": 59,
          "name": "B3",
          "ticks": 10008,
          "time": 116.37209302325581,
          "velocity": 0.3779527559055118
        },
        {
          "duration": 0.03488372093023884,
          "durationTicks": 3,
          "midi": 74,
          "name": "D5",
          "ticks": 10008,
          "time": 116.37209302325581,
          "velocity": 0.12598425196850394
        },
        {
          "duration": 0.38372093023255616,
          "durationTicks": 33,
          "midi": 79,
          "name": "G5",
          "ticks": 10013,
          "time": 116.43023255813954,
          "velocity": 0.3228346456692913
        },
        {
          "duration": 0.011627906976741542,
          "durationTicks": 1,
          "midi": 41,
          "name": "F2",
          "ticks": 10014,
          "time": 116.44186046511628,
          "velocity": 0.5118110236220472
        },
        {
          "duration": 0.1046511627907023,
          "durationTicks": 9,
          "midi": 67,
          "name": "G4",
          "ticks": 10014,
          "time": 116.44186046511628,
          "velocity": 0.4094488188976378
        },
        {
          "duration": 0.023255813953497295,
          "durationTicks": 2,
          "midi": 49,
          "name": "C#3",
          "ticks": 10015,
          "time": 116.45348837209302,
          "velocity": 0.3937007874015748
        },
        {
          "duration": 0.023255813953497295,
          "durationTicks": 2,
          "midi": 55,
          "name": "G3",
          "ticks": 10015,
          "time": 116.45348837209302,
          "velocity": 0.44881889763779526
        },
        {
          "duration": 0.32558139534883423,
          "durationTicks": 28,
          "midi": 62,
          "name": "D4",
          "ticks": 10015,
          "time": 116.45348837209302,
          "velocity": 0.33070866141732286
        },
        {
          "duration": 0.2906976744186096,
          "durationTicks": 25,
          "midi": 76,
          "name": "E5",
          "ticks": 10015,
          "time": 116.45348837209302,
          "velocity": 0.11811023622047244
        },
        {
          "duration": 0.33720930232559,
          "durationTicks": 29,
          "midi": 83,
          "name": "B5",
          "ticks": 10015,
          "time": 116.45348837209302,
          "velocity": 0.2440944881889764
        },
        {
          "duration": 0.05813953488372192,
          "durationTicks": 5,
          "midi": 39,
          "name": "D#2",
          "ticks": 10016,
          "time": 116.46511627906976,
          "velocity": 0.47244094488188976
        },
        {
          "duration": 0.04651162790698038,
          "durationTicks": 4,
          "midi": 84,
          "name": "C6",
          "ticks": 10016,
          "time": 116.46511627906976,
          "velocity": 0.07086614173228346
        },
        {
          "duration": 0.2325581395348877,
          "durationTicks": 20,
          "midi": 89,
          "name": "F6",
          "ticks": 10016,
          "time": 116.46511627906976,
          "velocity": 0.15748031496062992
        },
        {
          "duration": 0.034883720930224626,
          "durationTicks": 3,
          "midi": 50,
          "name": "D3",
          "ticks": 10017,
          "time": 116.47674418604652,
          "velocity": 0.4566929133858268
        },
        {
          "duration": 0.04651162790698038,
          "durationTicks": 4,
          "midi": 57,
          "name": "A3",
          "ticks": 10018,
          "time": 116.48837209302326,
          "velocity": 0.3937007874015748
        },
        {
          "duration": 0.2906976744185954,
          "durationTicks": 25,
          "midi": 72,
          "name": "C5",
          "ticks": 10018,
          "time": 116.48837209302326,
          "velocity": 0.12598425196850394
        },
        {
          "duration": 0.12790697674418539,
          "durationTicks": 11,
          "midi": 85,
          "name": "C#6",
          "ticks": 10018,
          "time": 116.48837209302326,
          "velocity": 0.13385826771653545
        },
        {
          "duration": 0.04651162790698038,
          "durationTicks": 4,
          "midi": 86,
          "name": "D6",
          "ticks": 10019,
          "time": 116.5,
          "velocity": 0.07874015748031496
        },
        {
          "duration": 0.03488372093023884,
          "durationTicks": 3,
          "midi": 38,
          "name": "D2",
          "ticks": 10021,
          "time": 116.52325581395348,
          "velocity": 0.4330708661417323
        },
        {
          "duration": 0.25581395348837077,
          "durationTicks": 22,
          "midi": 50,
          "name": "D3",
          "ticks": 10021,
          "time": 116.52325581395348,
          "velocity": 0.5118110236220472
        },
        {
          "duration": 0.023255813953483084,
          "durationTicks": 2,
          "midi": 56,
          "name": "G#3",
          "ticks": 10022,
          "time": 116.53488372093024,
          "velocity": 0.3858267716535433
        },
        {
          "duration": 0.09302325581394655,
          "durationTicks": 8,
          "midi": 90,
          "name": "F#6",
          "ticks": 10023,
          "time": 116.54651162790698,
          "velocity": 0.09448818897637795
        },
        {
          "duration": 0.034883720930224626,
          "durationTicks": 3,
          "midi": 84,
          "name": "C6",
          "ticks": 10024,
          "time": 116.55813953488372,
          "velocity": 0.12598425196850394
        },
        {
          "duration": 0.19767441860464885,
          "durationTicks": 17,
          "midi": 67,
          "name": "G4",
          "ticks": 10025,
          "time": 116.56976744186046,
          "velocity": 0.3858267716535433
        },
        {
          "duration": 0.15116279069768268,
          "durationTicks": 13,
          "midi": 86,
          "name": "D6",
          "ticks": 10025,
          "time": 116.56976744186046,
          "velocity": 0.11023622047244094
        },
        {
          "duration": 0.03488372093023884,
          "durationTicks": 3,
          "midi": 39,
          "name": "D#2",
          "ticks": 10026,
          "time": 116.5813953488372,
          "velocity": 0.41732283464566927
        },
        {
          "duration": 0.023255813953497295,
          "durationTicks": 2,
          "midi": 55,
          "name": "G3",
          "ticks": 10026,
          "time": 116.5813953488372,
          "velocity": 0.3779527559055118
        },
        {
          "duration": 0.06976744186046346,
          "durationTicks": 6,
          "midi": 38,
          "name": "D2",
          "ticks": 10031,
          "time": 116.63953488372093,
          "velocity": 0.33070866141732286
        },
        {
          "duration": 0.023255813953497295,
          "durationTicks": 2,
          "midi": 56,
          "name": "G#3",
          "ticks": 10031,
          "time": 116.63953488372093,
          "velocity": 0.33070866141732286
        },
        {
          "duration": 0.023255813953497295,
          "durationTicks": 2,
          "midi": 57,
          "name": "A3",
          "ticks": 10037,
          "time": 116.70930232558139,
          "velocity": 0.25984251968503935
        },
        {
          "duration": 0.023255813953483084,
          "durationTicks": 2,
          "midi": 38,
          "name": "D2",
          "ticks": 10039,
          "time": 116.73255813953489,
          "velocity": 0.25196850393700787
        },
        {
          "duration": 0.48837209302325846,
          "durationTicks": 42,
          "midi": 69,
          "name": "A4",
          "ticks": 10041,
          "time": 116.75581395348837,
          "velocity": 0.4409448818897638
        },
        {
          "duration": 0.1046511627907023,
          "durationTicks": 9,
          "midi": 93,
          "name": "A6",
          "ticks": 10041,
          "time": 116.75581395348837,
          "velocity": 0.12598425196850394
        },
        {
          "duration": 0.03488372093023884,
          "durationTicks": 3,
          "midi": 56,
          "name": "G#3",
          "ticks": 10042,
          "time": 116.76744186046511,
          "velocity": 0.4566929133858268
        },
        {
          "duration": 0.12790697674418539,
          "durationTicks": 11,
          "midi": 66,
          "name": "F#4",
          "ticks": 10042,
          "time": 116.76744186046511,
          "velocity": 0.25984251968503935
        },
        {
          "duration": 0.5116279069767558,
          "durationTicks": 44,
          "midi": 85,
          "name": "C#6",
          "ticks": 10043,
          "time": 116.77906976744185,
          "velocity": 0.23622047244094488
        },
        {
          "duration": 0.03488372093023884,
          "durationTicks": 3,
          "midi": 88,
          "name": "E6",
          "ticks": 10043,
          "time": 116.77906976744185,
          "velocity": 0.07086614173228346
        },
        {
          "duration": 0.2093023255813904,
          "durationTicks": 18,
          "midi": 50,
          "name": "D3",
          "ticks": 10044,
          "time": 116.79069767441861,
          "velocity": 0.5275590551181102
        },
        {
          "duration": 0.05813953488372192,
          "durationTicks": 5,
          "midi": 84,
          "name": "C6",
          "ticks": 10044,
          "time": 116.79069767441861,
          "velocity": 0.08661417322834646
        },
        {
          "duration": 0.034883720930224626,
          "durationTicks": 3,
          "midi": 39,
          "name": "D#2",
          "ticks": 10045,
          "time": 116.80232558139535,
          "velocity": 0.4645669291338583
        },
        {
          "duration": 0.06976744186046346,
          "durationTicks": 6,
          "midi": 57,
          "name": "A3",
          "ticks": 10045,
          "time": 116.80232558139535,
          "velocity": 0.2992125984251969
        },
        {
          "duration": 0.19767441860464885,
          "durationTicks": 17,
          "midi": 72,
          "name": "C5",
          "ticks": 10045,
          "time": 116.80232558139535,
          "velocity": 0.1889763779527559
        },
        {
          "duration": 0.06976744186046346,
          "durationTicks": 6,
          "midi": 76,
          "name": "E5",
          "ticks": 10047,
          "time": 116.82558139534883,
          "velocity": 0.09448818897637795
        },
        {
          "duration": 0.04651162790698038,
          "durationTicks": 4,
          "midi": 38,
          "name": "D2",
          "ticks": 10048,
          "time": 116.83720930232558,
          "velocity": 0.41732283464566927
        },
        {
          "duration": 0.03488372093023884,
          "durationTicks": 3,
          "midi": 56,
          "name": "G#3",
          "ticks": 10051,
          "time": 116.87209302325581,
          "velocity": 0.3937007874015748
        },
        {
          "duration": 0.13953488372092693,
          "durationTicks": 12,
          "midi": 80,
          "name": "G#5",
          "ticks": 10052,
          "time": 116.88372093023256,
          "velocity": 0.18110236220472442
        },
        {
          "duration": 0.12790697674418539,
          "durationTicks": 11,
          "midi": 82,
          "name": "A#5",
          "ticks": 10052,
          "time": 116.88372093023256,
          "velocity": 0.11023622047244094
        },
        {
          "duration": 0.081395348837205,
          "durationTicks": 7,
          "midi": 90,
          "name": "F#6",
          "ticks": 10052,
          "time": 116.88372093023256,
          "velocity": 0.12598425196850394
        },
        {
          "duration": 0.09302325581396076,
          "durationTicks": 8,
          "midi": 91,
          "name": "G6",
          "ticks": 10052,
          "time": 116.88372093023256,
          "velocity": 0.11811023622047244
        },
        {
          "duration": 0.03488372093023884,
          "durationTicks": 3,
          "midi": 40,
          "name": "E2",
          "ticks": 10053,
          "time": 116.8953488372093,
          "velocity": 0.48031496062992124
        },
        {
          "duration": 0.03488372093023884,
          "durationTicks": 3,
          "midi": 78,
          "name": "F#5",
          "ticks": 10053,
          "time": 116.8953488372093,
          "velocity": 0.07086614173228346
        },
        {
          "duration": 0.09302325581396076,
          "durationTicks": 8,
          "midi": 88,
          "name": "E6",
          "ticks": 10053,
          "time": 116.8953488372093,
          "velocity": 0.07874015748031496
        },
        {
          "duration": 0.09302325581394655,
          "durationTicks": 8,
          "midi": 57,
          "name": "A3",
          "ticks": 10054,
          "time": 116.90697674418605,
          "velocity": 0.3700787401574803
        },
        {
          "duration": 0.023255813953483084,
          "durationTicks": 2,
          "midi": 39,
          "name": "D#2",
          "ticks": 10056,
          "time": 116.93023255813954,
          "velocity": 0.3779527559055118
        },
        {
          "duration": 0.06976744186046346,
          "durationTicks": 6,
          "midi": 66,
          "name": "F#4",
          "ticks": 10056,
          "time": 116.93023255813954,
          "velocity": 0.11811023622047244
        },
        {
          "duration": 0.1046511627907023,
          "durationTicks": 9,
          "midi": 76,
          "name": "E5",
          "ticks": 10057,
          "time": 116.94186046511628,
          "velocity": 0.09448818897637795
        },
        {
          "duration": 0.04651162790698038,
          "durationTicks": 4,
          "midi": 38,
          "name": "D2",
          "ticks": 10058,
          "time": 116.95348837209302,
          "velocity": 0.33858267716535434
        },
        {
          "duration": 0.011627906976755753,
          "durationTicks": 1,
          "midi": 48,
          "name": "C3",
          "ticks": 10064,
          "time": 117.02325581395348,
          "velocity": 0.5196850393700787
        },
        {
          "duration": 0.4418604651162781,
          "durationTicks": 38,
          "midi": 74,
          "name": "D5",
          "ticks": 10064,
          "time": 117.02325581395348,
          "velocity": 0.33070866141732286
        },
        {
          "duration": 0.04651162790698038,
          "durationTicks": 4,
          "midi": 78,
          "name": "F#5",
          "ticks": 10064,
          "time": 117.02325581395348,
          "velocity": 0.2125984251968504
        },
        {
          "duration": 0.23255813953487348,
          "durationTicks": 20,
          "midi": 62,
          "name": "D4",
          "ticks": 10065,
          "time": 117.03488372093024,
          "velocity": 0.4409448818897638
        },
        {
          "duration": 0.034883720930224626,
          "durationTicks": 3,
          "midi": 92,
          "name": "G#6",
          "ticks": 10065,
          "time": 117.03488372093024,
          "velocity": 0.10236220472440945
        },
        {
          "duration": 0.023255813953483084,
          "durationTicks": 2,
          "midi": 51,
          "name": "D#3",
          "ticks": 10066,
          "time": 117.04651162790698,
          "velocity": 0.47244094488188976
        },
        {
          "duration": 0.1860465116279073,
          "durationTicks": 16,
          "midi": 84,
          "name": "C6",
          "ticks": 10066,
          "time": 117.04651162790698,
          "velocity": 0.18110236220472442
        },
        {
          "duration": 0.15116279069768268,
          "durationTicks": 13,
          "midi": 57,
          "name": "A3",
          "ticks": 10068,
          "time": 117.06976744186046,
          "velocity": 0.14173228346456693
        },
        {
          "duration": 0.12790697674418539,
          "durationTicks": 11,
          "midi": 78,
          "name": "F#5",
          "ticks": 10069,
          "time": 117.0813953488372,
          "velocity": 0.14173228346456693
        },
        {
          "duration": 0.03488372093023884,
          "durationTicks": 3,
          "midi": 50,
          "name": "D3",
          "ticks": 10070,
          "time": 117.09302325581395,
          "velocity": 0.4645669291338583
        },
        {
          "duration": 0.04651162790696617,
          "durationTicks": 4,
          "midi": 79,
          "name": "G5",
          "ticks": 10071,
          "time": 117.1046511627907,
          "velocity": 0.09448818897637795
        },
        {
          "duration": 0.023255813953483084,
          "durationTicks": 2,
          "midi": 49,
          "name": "C#3",
          "ticks": 10073,
          "time": 117.12790697674419,
          "velocity": 0.41732283464566927
        },
        {
          "duration": 0.04651162790698038,
          "durationTicks": 4,
          "midi": 67,
          "name": "G4",
          "ticks": 10074,
          "time": 117.13953488372093,
          "velocity": 0.13385826771653545
        },
        {
          "duration": 0.023255813953497295,
          "durationTicks": 2,
          "midi": 50,
          "name": "D3",
          "ticks": 10075,
          "time": 117.15116279069767,
          "velocity": 0.4251968503937008
        },
        {
          "duration": 0.023255813953483084,
          "durationTicks": 2,
          "midi": 45,
          "name": "A2",
          "ticks": 10076,
          "time": 117.16279069767442,
          "velocity": 0.3700787401574803
        },
        {
          "duration": 0.023255813953483084,
          "durationTicks": 2,
          "midi": 44,
          "name": "G#2",
          "ticks": 10082,
          "time": 117.23255813953489,
          "velocity": 0.48031496062992124
        },
        {
          "duration": 0.38372093023255616,
          "durationTicks": 33,
          "midi": 79,
          "name": "G5",
          "ticks": 10082,
          "time": 117.23255813953489,
          "velocity": 0.25196850393700787
        },
        {
          "duration": 0.023255813953483084,
          "durationTicks": 2,
          "midi": 60,
          "name": "C4",
          "ticks": 10083,
          "time": 117.24418604651163,
          "velocity": 0.28346456692913385
        },
        {
          "duration": 0.023255813953483084,
          "durationTicks": 2,
          "midi": 68,
          "name": "G#4",
          "ticks": 10083,
          "time": 117.24418604651163,
          "velocity": 0.4094488188976378
        },
        {
          "duration": 0.3139534883720927,
          "durationTicks": 27,
          "midi": 83,
          "name": "B5",
          "ticks": 10083,
          "time": 117.24418604651163,
          "velocity": 0.2283464566929134
        },
        {
          "duration": 0.09302325581394655,
          "durationTicks": 8,
          "midi": 88,
          "name": "E6",
          "ticks": 10083,
          "time": 117.24418604651163,
          "velocity": 0.10236220472440945
        },
        {
          "duration": 0.034883720930224626,
          "durationTicks": 3,
          "midi": 89,
          "name": "F6",
          "ticks": 10083,
          "time": 117.24418604651163,
          "velocity": 0.08661417322834646
        },
        {
          "duration": 0.011627906976741542,
          "durationTicks": 1,
          "midi": 47,
          "name": "B2",
          "ticks": 10084,
          "time": 117.25581395348837,
          "velocity": 0.5275590551181102
        },
        {
          "duration": 0.04651162790698038,
          "durationTicks": 4,
          "midi": 37,
          "name": "C#2",
          "ticks": 10085,
          "time": 117.26744186046511,
          "velocity": 0.4645669291338583
        },
        {
          "duration": 0.03488372093023884,
          "durationTicks": 3,
          "midi": 48,
          "name": "C3",
          "ticks": 10085,
          "time": 117.26744186046511,
          "velocity": 0.49606299212598426
        },
        {
          "duration": 0.08139534883721922,
          "durationTicks": 7,
          "midi": 55,
          "name": "G3",
          "ticks": 10085,
          "time": 117.26744186046511,
          "velocity": 0.3464566929133858
        },
        {
          "duration": 0.08139534883721922,
          "durationTicks": 7,
          "midi": 67,
          "name": "G4",
          "ticks": 10085,
          "time": 117.26744186046511,
          "velocity": 0.3937007874015748
        },
        {
          "duration": 0.04651162790698038,
          "durationTicks": 4,
          "midi": 82,
          "name": "A#5",
          "ticks": 10085,
          "time": 117.26744186046511,
          "velocity": 0.08661417322834646
        },
        {
          "duration": 0.08139534883721922,
          "durationTicks": 7,
          "midi": 93,
          "name": "A6",
          "ticks": 10085,
          "time": 117.26744186046511,
          "velocity": 0.07874015748031496
        },
        {
          "duration": 0.06976744186047767,
          "durationTicks": 6,
          "midi": 78,
          "name": "F#5",
          "ticks": 10086,
          "time": 117.27906976744185,
          "velocity": 0.12598425196850394
        },
        {
          "duration": 0.04651162790696617,
          "durationTicks": 4,
          "midi": 89,
          "name": "F6",
          "ticks": 10087,
          "time": 117.29069767441861,
          "velocity": 0.11023622047244094
        },
        {
          "duration": 0.023255813953483084,
          "durationTicks": 2,
          "midi": 47,
          "name": "B2",
          "ticks": 10088,
          "time": 117.30232558139535,
          "velocity": 0.4409448818897638
        },
        {
          "duration": 0.034883720930224626,
          "durationTicks": 3,
          "midi": 69,
          "name": "A4",
          "ticks": 10088,
          "time": 117.30232558139535,
          "velocity": 0.14173228346456693
        },
        {
          "duration": 0.04651162790698038,
          "durationTicks": 4,
          "midi": 36,
          "name": "C2",
          "ticks": 10089,
          "time": 117.31395348837209,
          "velocity": 0.4015748031496063
        },
        {
          "duration": 0.13953488372092693,
          "durationTicks": 12,
          "midi": 60,
          "name": "C4",
          "ticks": 10089,
          "time": 117.31395348837209,
          "velocity": 0.2677165354330709
        },
        {
          "duration": 0.15116279069766847,
          "durationTicks": 13,
          "midi": 64,
          "name": "E4",
          "ticks": 10089,
          "time": 117.31395348837209,
          "velocity": 0.2125984251968504
        },
        {
          "duration": 0.023255813953483084,
          "durationTicks": 2,
          "midi": 68,
          "name": "G#4",
          "ticks": 10092,
          "time": 117.34883720930233,
          "velocity": 0.3464566929133858
        },
        {
          "duration": 0.023255813953483084,
          "durationTicks": 2,
          "midi": 37,
          "name": "C#2",
          "ticks": 10093,
          "time": 117.36046511627907,
          "velocity": 0.3700787401574803
        },
        {
          "duration": 0.023255813953483084,
          "durationTicks": 2,
          "midi": 47,
          "name": "B2",
          "ticks": 10093,
          "time": 117.36046511627907,
          "velocity": 0.3937007874015748
        },
        {
          "duration": 0.023255813953483084,
          "durationTicks": 2,
          "midi": 55,
          "name": "G3",
          "ticks": 10093,
          "time": 117.36046511627907,
          "velocity": 0.36220472440944884
        },
        {
          "duration": 0.15116279069766847,
          "durationTicks": 13,
          "midi": 89,
          "name": "F6",
          "ticks": 10093,
          "time": 117.36046511627907,
          "velocity": 0.14173228346456693
        },
        {
          "duration": 0.19767441860464885,
          "durationTicks": 17,
          "midi": 67,
          "name": "G4",
          "ticks": 10094,
          "time": 117.37209302325581,
          "velocity": 0.4015748031496063
        },
        {
          "duration": 0.04651162790696617,
          "durationTicks": 4,
          "midi": 48,
          "name": "C3",
          "ticks": 10097,
          "time": 117.40697674418605,
          "velocity": 0.3464566929133858
        },
        {
          "duration": 0.04651162790696617,
          "durationTicks": 4,
          "midi": 55,
          "name": "G3",
          "ticks": 10097,
          "time": 117.40697674418605,
          "velocity": 0.1889763779527559
        },
        {
          "duration": 0.023255813953483084,
          "durationTicks": 2,
          "midi": 36,
          "name": "C2",
          "ticks": 10098,
          "time": 117.4186046511628,
          "velocity": 0.29133858267716534
        },
        {
          "duration": 0.034883720930224626,
          "durationTicks": 3,
          "midi": 70,
          "name": "A#4",
          "ticks": 10099,
          "time": 117.43023255813954,
          "velocity": 0.16535433070866143
        },
        {
          "duration": 0.06976744186046346,
          "durationTicks": 6,
          "midi": 93,
          "name": "A6",
          "ticks": 10101,
          "time": 117.45348837209302,
          "velocity": 0.15748031496062992
        },
        {
          "duration": 0.09302325581396076,
          "durationTicks": 8,
          "midi": 57,
          "name": "A3",
          "ticks": 10102,
          "time": 117.46511627906976,
          "velocity": 0.33858267716535434
        },
        {
          "duration": 0.1046511627907023,
          "durationTicks": 9,
          "midi": 72,
          "name": "C5",
          "ticks": 10102,
          "time": 117.46511627906976,
          "velocity": 0.14960629921259844
        },
        {
          "duration": 0.22093023255813193,
          "durationTicks": 19,
          "midi": 50,
          "name": "D3",
          "ticks": 10103,
          "time": 117.47674418604652,
          "velocity": 0.44881889763779526
        },
        {
          "duration": 0.04651162790698038,
          "durationTicks": 4,
          "midi": 38,
          "name": "D2",
          "ticks": 10105,
          "time": 117.5,
          "velocity": 0.44881889763779526
        },
        {
          "duration": 0.5930232558139465,
          "durationTicks": 51,
          "midi": 69,
          "name": "A4",
          "ticks": 10110,
          "time": 117.55813953488372,
          "velocity": 0.4645669291338583
        },
        {
          "duration": 0.12790697674418539,
          "durationTicks": 11,
          "midi": 93,
          "name": "A6",
          "ticks": 10110,
          "time": 117.55813953488372,
          "velocity": 0.14173228346456693
        },
        {
          "duration": 0.023255813953483084,
          "durationTicks": 2,
          "midi": 56,
          "name": "G#3",
          "ticks": 10111,
          "time": 117.56976744186046,
          "velocity": 0.47244094488188976
        },
        {
          "duration": 0.6279069767441854,
          "durationTicks": 54,
          "midi": 85,
          "name": "C#6",
          "ticks": 10111,
          "time": 117.56976744186046,
          "velocity": 0.25984251968503935
        },
        {
          "duration": 0.12790697674418539,
          "durationTicks": 11,
          "midi": 72,
          "name": "C5",
          "ticks": 10112,
          "time": 117.5813953488372,
          "velocity": 0.1968503937007874
        },
        {
          "duration": 0.11627906976744384,
          "durationTicks": 10,
          "midi": 57,
          "name": "A3",
          "ticks": 10113,
          "time": 117.59302325581395,
          "velocity": 0.41732283464566927
        },
        {
          "duration": 0.11627906976744384,
          "durationTicks": 10,
          "midi": 66,
          "name": "F#4",
          "ticks": 10113,
          "time": 117.59302325581395,
          "velocity": 0.1889763779527559
        },
        {
          "duration": 0.3604651162790731,
          "durationTicks": 31,
          "midi": 95,
          "name": "B6",
          "ticks": 10113,
          "time": 117.59302325581395,
          "velocity": 0.1968503937007874
        },
        {
          "duration": 0.023255813953483084,
          "durationTicks": 2,
          "midi": 36,
          "name": "C2",
          "ticks": 10114,
          "time": 117.6046511627907,
          "velocity": 0.2677165354330709
        },
        {
          "duration": 0.04651162790698038,
          "durationTicks": 4,
          "midi": 38,
          "name": "D2",
          "ticks": 10118,
          "time": 117.65116279069767,
          "velocity": 0.2992125984251969
        },
        {
          "duration": 0.023255813953497295,
          "durationTicks": 2,
          "midi": 40,
          "name": "E2",
          "ticks": 10123,
          "time": 117.70930232558139,
          "velocity": 0.4881889763779528
        },
        {
          "duration": 0.06976744186046346,
          "durationTicks": 6,
          "midi": 90,
          "name": "F#6",
          "ticks": 10123,
          "time": 117.70930232558139,
          "velocity": 0.07874015748031496
        },
        {
          "duration": 0.05813953488372192,
          "durationTicks": 5,
          "midi": 93,
          "name": "A6",
          "ticks": 10123,
          "time": 117.70930232558139,
          "velocity": 0.11023622047244094
        },
        {
          "duration": 0.2093023255813904,
          "durationTicks": 18,
          "midi": 50,
          "name": "D3",
          "ticks": 10124,
          "time": 117.72093023255815,
          "velocity": 0.44881889763779526
        },
        {
          "duration": 0.081395348837205,
          "durationTicks": 7,
          "midi": 57,
          "name": "A3",
          "ticks": 10124,
          "time": 117.72093023255815,
          "velocity": 0.3937007874015748
        },
        {
          "duration": 0.24418604651161502,
          "durationTicks": 21,
          "midi": 66,
          "name": "F#4",
          "ticks": 10124,
          "time": 117.72093023255815,
          "velocity": 0.2755905511811024
        },
        {
          "duration": 0.22093023255813193,
          "durationTicks": 19,
          "midi": 72,
          "name": "C5",
          "ticks": 10124,
          "time": 117.72093023255815,
          "velocity": 0.18110236220472442
        },
        {
          "duration": 0.034883720930224626,
          "durationTicks": 3,
          "midi": 82,
          "name": "A#5",
          "ticks": 10124,
          "time": 117.72093023255815,
          "velocity": 0.08661417322834646
        },
        {
          "duration": 0.034883720930224626,
          "durationTicks": 3,
          "midi": 88,
          "name": "E6",
          "ticks": 10124,
          "time": 117.72093023255815,
          "velocity": 0.08661417322834646
        },
        {
          "duration": 0.023255813953483084,
          "durationTicks": 2,
          "midi": 39,
          "name": "D#2",
          "ticks": 10125,
          "time": 117.73255813953489,
          "velocity": 0.4881889763779528
        },
        {
          "duration": 0.05813953488372192,
          "durationTicks": 5,
          "midi": 38,
          "name": "D2",
          "ticks": 10127,
          "time": 117.75581395348837,
          "velocity": 0.4251968503937008
        },
        {
          "duration": 0.03488372093023884,
          "durationTicks": 3,
          "midi": 91,
          "name": "G6",
          "ticks": 10127,
          "time": 117.75581395348837,
          "velocity": 0.10236220472440945
        },
        {
          "duration": 0.16279069767442422,
          "durationTicks": 14,
          "midi": 76,
          "name": "E5",
          "ticks": 10129,
          "time": 117.77906976744185,
          "velocity": 0.14173228346456693
        },
        {
          "duration": 0.023255813953483084,
          "durationTicks": 2,
          "midi": 39,
          "name": "D#2",
          "ticks": 10132,
          "time": 117.81395348837209,
          "velocity": 0.3700787401574803
        },
        {
          "duration": 0.32558139534883423,
          "durationTicks": 28,
          "midi": 57,
          "name": "A3",
          "ticks": 10132,
          "time": 117.81395348837209,
          "velocity": 0.4330708661417323
        },
        {
          "duration": 0.08139534883721922,
          "durationTicks": 7,
          "midi": 91,
          "name": "G6",
          "ticks": 10133,
          "time": 117.82558139534883,
          "velocity": 0.14960629921259844
        },
        {
          "duration": 0.03488372093023884,
          "durationTicks": 3,
          "midi": 38,
          "name": "D2",
          "ticks": 10139,
          "time": 117.8953488372093,
          "velocity": 0.2992125984251969
        },
        {
          "duration": 0.034883720930224626,
          "durationTicks": 3,
          "midi": 48,
          "name": "C3",
          "ticks": 10142,
          "time": 117.93023255813954,
          "velocity": 0.5275590551181102
        },
        {
          "duration": 0.19767441860464885,
          "durationTicks": 17,
          "midi": 84,
          "name": "C6",
          "ticks": 10143,
          "time": 117.94186046511628,
          "velocity": 0.2125984251968504
        },
        {
          "duration": 0.2093023255814046,
          "durationTicks": 18,
          "midi": 74,
          "name": "D5",
          "ticks": 10144,
          "time": 117.95348837209302,
          "velocity": 0.33070866141732286
        },
        {
          "duration": 0.15116279069768268,
          "durationTicks": 13,
          "midi": 88,
          "name": "E6",
          "ticks": 10144,
          "time": 117.95348837209302,
          "velocity": 0.13385826771653545
        },
        {
          "duration": 0.2093023255814046,
          "durationTicks": 18,
          "midi": 62,
          "name": "D4",
          "ticks": 10145,
          "time": 117.96511627906976,
          "velocity": 0.4330708661417323
        },
        {
          "duration": 0.03488372093023884,
          "durationTicks": 3,
          "midi": 92,
          "name": "G#6",
          "ticks": 10145,
          "time": 117.96511627906976,
          "velocity": 0.10236220472440945
        },
        {
          "duration": 0.034883720930224626,
          "durationTicks": 3,
          "midi": 50,
          "name": "D3",
          "ticks": 10146,
          "time": 117.97674418604652,
          "velocity": 0.49606299212598426
        },
        {
          "duration": 0.15116279069768268,
          "durationTicks": 13,
          "midi": 78,
          "name": "F#5",
          "ticks": 10149,
          "time": 118.01162790697674,
          "velocity": 0.13385826771653545
        },
        {
          "duration": 0.06976744186046346,
          "durationTicks": 6,
          "midi": 79,
          "name": "G5",
          "ticks": 10149,
          "time": 118.01162790697674,
          "velocity": 0.11023622047244094
        },
        {
          "duration": 0.03488372093023884,
          "durationTicks": 3,
          "midi": 50,
          "name": "D3",
          "ticks": 10150,
          "time": 118.02325581395348,
          "velocity": 0.48031496062992124
        },
        {
          "duration": 0.09302325581394655,
          "durationTicks": 8,
          "midi": 67,
          "name": "G4",
          "ticks": 10151,
          "time": 118.03488372093024,
          "velocity": 0.14960629921259844
        },
        {
          "duration": 0.023255813953483084,
          "durationTicks": 2,
          "midi": 49,
          "name": "C#3",
          "ticks": 10153,
          "time": 118.05813953488372,
          "velocity": 0.4330708661417323
        },
        {
          "duration": 0.023255813953497295,
          "durationTicks": 2,
          "midi": 50,
          "name": "D3",
          "ticks": 10155,
          "time": 118.0813953488372,
          "velocity": 0.4330708661417323
        },
        {
          "duration": 0.023255813953497295,
          "durationTicks": 2,
          "midi": 45,
          "name": "A2",
          "ticks": 10156,
          "time": 118.09302325581395,
          "velocity": 0.3700787401574803
        },
        {
          "duration": 0.023255813953497295,
          "durationTicks": 2,
          "midi": 48,
          "name": "C3",
          "ticks": 10160,
          "time": 118.13953488372093,
          "velocity": 0.49606299212598426
        },
        {
          "duration": 0.12790697674418539,
          "durationTicks": 11,
          "midi": 55,
          "name": "G3",
          "ticks": 10160,
          "time": 118.13953488372093,
          "velocity": 0.41732283464566927
        },
        {
          "duration": 0.03488372093023884,
          "durationTicks": 3,
          "midi": 68,
          "name": "G#4",
          "ticks": 10160,
          "time": 118.13953488372093,
          "velocity": 0.41732283464566927
        },
        {
          "duration": 0.3953488372093119,
          "durationTicks": 34,
          "midi": 79,
          "name": "G5",
          "ticks": 10160,
          "time": 118.13953488372093,
          "velocity": 0.23622047244094488
        },
        {
          "duration": 0.12790697674418539,
          "durationTicks": 11,
          "midi": 83,
          "name": "B5",
          "ticks": 10161,
          "time": 118.15116279069767,
          "velocity": 0.2125984251968504
        },
        {
          "duration": 0.03488372093023884,
          "durationTicks": 3,
          "midi": 89,
          "name": "F6",
          "ticks": 10161,
          "time": 118.15116279069767,
          "velocity": 0.09448818897637795
        },
        {
          "duration": 0.30232558139535115,
          "durationTicks": 26,
          "midi": 93,
          "name": "A6",
          "ticks": 10161,
          "time": 118.15116279069767,
          "velocity": 0.18110236220472442
        },
        {
          "duration": 0.04651162790698038,
          "durationTicks": 4,
          "midi": 37,
          "name": "C#2",
          "ticks": 10163,
          "time": 118.17441860465117,
          "velocity": 0.4566929133858268
        },
        {
          "duration": 0.05813953488372192,
          "durationTicks": 5,
          "midi": 48,
          "name": "C3",
          "ticks": 10163,
          "time": 118.17441860465117,
          "velocity": 0.4645669291338583
        },
        {
          "duration": 0.3139534883720927,
          "durationTicks": 27,
          "midi": 67,
          "name": "G4",
          "ticks": 10163,
          "time": 118.17441860465117,
          "velocity": 0.4566929133858268
        },
        {
          "duration": 0.3604651162790731,
          "durationTicks": 31,
          "midi": 74,
          "name": "D5",
          "ticks": 10163,
          "time": 118.17441860465117,
          "velocity": 0.1968503937007874
        },
        {
          "duration": 0.04651162790698038,
          "durationTicks": 4,
          "midi": 82,
          "name": "A#5",
          "ticks": 10163,
          "time": 118.17441860465117,
          "velocity": 0.09448818897637795
        },
        {
          "duration": 0.1860465116279073,
          "durationTicks": 16,
          "midi": 64,
          "name": "E4",
          "ticks": 10164,
          "time": 118.18604651162791,
          "velocity": 0.2204724409448819
        },
        {
          "duration": 0.05813953488372192,
          "durationTicks": 5,
          "midi": 78,
          "name": "F#5",
          "ticks": 10164,
          "time": 118.18604651162791,
          "velocity": 0.11023622047244094
        },
        {
          "duration": 0.04651162790698038,
          "durationTicks": 4,
          "midi": 89,
          "name": "F6",
          "ticks": 10165,
          "time": 118.19767441860465,
          "velocity": 0.11811023622047244
        },
        {
          "duration": 0.04651162790696617,
          "durationTicks": 4,
          "midi": 36,
          "name": "C2",
          "ticks": 10167,
          "time": 118.22093023255815,
          "velocity": 0.4015748031496063
        },
        {
          "duration": 0.034883720930224626,
          "durationTicks": 3,
          "midi": 48,
          "name": "C3",
          "ticks": 10169,
          "time": 118.24418604651163,
          "velocity": 0.4251968503937008
        },
        {
          "duration": 0.09302325581396076,
          "durationTicks": 8,
          "midi": 55,
          "name": "G3",
          "ticks": 10172,
          "time": 118.27906976744185,
          "velocity": 0.4251968503937008
        },
        {
          "duration": 0.04651162790698038,
          "durationTicks": 4,
          "midi": 78,
          "name": "F#5",
          "ticks": 10172,
          "time": 118.27906976744185,
          "velocity": 0.09448818897637795
        },
        {
          "duration": 0.13953488372094114,
          "durationTicks": 12,
          "midi": 89,
          "name": "F6",
          "ticks": 10172,
          "time": 118.27906976744185,
          "velocity": 0.14173228346456693
        },
        {
          "duration": 0.15116279069766847,
          "durationTicks": 13,
          "midi": 83,
          "name": "B5",
          "ticks": 10173,
          "time": 118.29069767441861,
          "velocity": 0.14173228346456693
        },
        {
          "duration": 0.05813953488372192,
          "durationTicks": 5,
          "midi": 36,
          "name": "C2",
          "ticks": 10175,
          "time": 118.31395348837209,
          "velocity": 0.31496062992125984
        },
        {
          "duration": 0.081395348837205,
          "durationTicks": 7,
          "midi": 48,
          "name": "C3",
          "ticks": 10175,
          "time": 118.31395348837209,
          "velocity": 0.5118110236220472
        },
        {
          "duration": 0.04651162790698038,
          "durationTicks": 4,
          "midi": 70,
          "name": "A#4",
          "ticks": 10176,
          "time": 118.32558139534883,
          "velocity": 0.09448818897637795
        },
        {
          "duration": 0.023255813953483084,
          "durationTicks": 2,
          "midi": 58,
          "name": "A#3",
          "ticks": 10180,
          "time": 118.37209302325581,
          "velocity": 0.2755905511811024
        },
        {
          "duration": 0.24418604651162923,
          "durationTicks": 21,
          "midi": 62,
          "name": "D4",
          "ticks": 10180,
          "time": 118.37209302325581,
          "velocity": 0.29133858267716534
        },
        {
          "duration": 0.24418604651162923,
          "durationTicks": 21,
          "midi": 72,
          "name": "C5",
          "ticks": 10181,
          "time": 118.38372093023256,
          "velocity": 0.1968503937007874
        },
        {
          "duration": 0.03488372093023884,
          "durationTicks": 3,
          "midi": 38,
          "name": "D2",
          "ticks": 10182,
          "time": 118.3953488372093,
          "velocity": 0.4566929133858268
        },
        {
          "duration": 0.08139534883721922,
          "durationTicks": 7,
          "midi": 57,
          "name": "A3",
          "ticks": 10182,
          "time": 118.3953488372093,
          "velocity": 0.33858267716535434
        },
        {
          "duration": 0.04651162790698038,
          "durationTicks": 4,
          "midi": 39,
          "name": "D#2",
          "ticks": 10185,
          "time": 118.43023255813954,
          "velocity": 0.4015748031496063
        },
        {
          "duration": 0.6744186046511658,
          "durationTicks": 58,
          "midi": 76,
          "name": "E5",
          "ticks": 10185,
          "time": 118.43023255813954,
          "velocity": 0.15748031496062992
        },
        {
          "duration": 0.023255813953483084,
          "durationTicks": 2,
          "midi": 38,
          "name": "D2",
          "ticks": 10189,
          "time": 118.47674418604652,
          "velocity": 0.3464566929133858
        },
        {
          "duration": 0.06976744186046346,
          "durationTicks": 6,
          "midi": 93,
          "name": "A6",
          "ticks": 10189,
          "time": 118.47674418604652,
          "velocity": 0.14173228346456693
        },
        {
          "duration": 0.03488372093023884,
          "durationTicks": 3,
          "midi": 66,
          "name": "F#4",
          "ticks": 10191,
          "time": 118.5,
          "velocity": 0.25196850393700787
        },
        {
          "duration": 0.581395348837205,
          "durationTicks": 50,
          "midi": 69,
          "name": "A4",
          "ticks": 10191,
          "time": 118.5,
          "velocity": 0.44881889763779526
        },
        {
          "duration": 0.2906976744186096,
          "durationTicks": 25,
          "midi": 85,
          "name": "C#6",
          "ticks": 10191,
          "time": 118.5,
          "velocity": 0.23622047244094488
        },
        {
          "duration": 0.1046511627907023,
          "durationTicks": 9,
          "midi": 57,
          "name": "A3",
          "ticks": 10192,
          "time": 118.51162790697674,
          "velocity": 0.41732283464566927
        },
        {
          "duration": 0.3139534883720927,
          "durationTicks": 27,
          "midi": 95,
          "name": "B6",
          "ticks": 10193,
          "time": 118.52325581395348,
          "velocity": 0.1732283464566929
        },
        {
          "duration": 0.034883720930224626,
          "durationTicks": 3,
          "midi": 39,
          "name": "D#2",
          "ticks": 10195,
          "time": 118.54651162790698,
          "velocity": 0.2992125984251969
        },
        {
          "duration": 0.081395348837205,
          "durationTicks": 7,
          "midi": 66,
          "name": "F#4",
          "ticks": 10195,
          "time": 118.54651162790698,
          "velocity": 0.1732283464566929
        },
        {
          "duration": 0.023255813953497295,
          "durationTicks": 2,
          "midi": 38,
          "name": "D2",
          "ticks": 10198,
          "time": 118.5813953488372,
          "velocity": 0.2755905511811024
        },
        {
          "duration": 0.023255813953483084,
          "durationTicks": 2,
          "midi": 37,
          "name": "C#2",
          "ticks": 10200,
          "time": 118.6046511627907,
          "velocity": 0.3858267716535433
        },
        {
          "duration": 0.034883720930224626,
          "durationTicks": 3,
          "midi": 56,
          "name": "G#3",
          "ticks": 10201,
          "time": 118.61627906976744,
          "velocity": 0.3779527559055118
        },
        {
          "duration": 0.023255813953483084,
          "durationTicks": 2,
          "midi": 40,
          "name": "E2",
          "ticks": 10202,
          "time": 118.62790697674419,
          "velocity": 0.4881889763779528
        },
        {
          "duration": 0.05813953488372192,
          "durationTicks": 5,
          "midi": 90,
          "name": "F#6",
          "ticks": 10202,
          "time": 118.62790697674419,
          "velocity": 0.07874015748031496
        },
        {
          "duration": 0.19767441860464885,
          "durationTicks": 17,
          "midi": 50,
          "name": "D3",
          "ticks": 10203,
          "time": 118.63953488372093,
          "velocity": 0.44881889763779526
        },
        {
          "duration": 0.22093023255814614,
          "durationTicks": 19,
          "midi": 66,
          "name": "F#4",
          "ticks": 10203,
          "time": 118.63953488372093,
          "velocity": 0.2125984251968504
        },
        {
          "duration": 0.2093023255814046,
          "durationTicks": 18,
          "midi": 72,
          "name": "C5",
          "ticks": 10203,
          "time": 118.63953488372093,
          "velocity": 0.11023622047244094
        },
        {
          "duration": 0.03488372093023884,
          "durationTicks": 3,
          "midi": 82,
          "name": "A#5",
          "ticks": 10203,
          "time": 118.63953488372093,
          "velocity": 0.09448818897637795
        },
        {
          "duration": 0.03488372093023884,
          "durationTicks": 3,
          "midi": 39,
          "name": "D#2",
          "ticks": 10204,
          "time": 118.65116279069767,
          "velocity": 0.4881889763779528
        },
        {
          "duration": 0.17441860465116577,
          "durationTicks": 15,
          "midi": 57,
          "name": "A3",
          "ticks": 10204,
          "time": 118.65116279069767,
          "velocity": 0.2677165354330709
        },
        {
          "duration": 0.45348837209303383,
          "durationTicks": 39,
          "midi": 62,
          "name": "D4",
          "ticks": 10204,
          "time": 118.65116279069767,
          "velocity": 0.44881889763779526
        },
        {
          "duration": 0.034883720930224626,
          "durationTicks": 3,
          "midi": 91,
          "name": "G6",
          "ticks": 10206,
          "time": 118.67441860465117,
          "velocity": 0.11023622047244094
        },
        {
          "duration": 0.09302325581394655,
          "durationTicks": 8,
          "midi": 38,
          "name": "D2",
          "ticks": 10207,
          "time": 118.68604651162791,
          "velocity": 0.4094488188976378
        },
        {
          "duration": 0.04651162790696617,
          "durationTicks": 4,
          "midi": 38,
          "name": "D2",
          "ticks": 10216,
          "time": 118.79069767441861,
          "velocity": 0.28346456692913385
        },
        {
          "duration": 0.27906976744186807,
          "durationTicks": 24,
          "midi": 85,
          "name": "C#6",
          "ticks": 10220,
          "time": 118.83720930232558,
          "velocity": 0.25196850393700787
        },
        {
          "duration": 0.011627906976741542,
          "durationTicks": 1,
          "midi": 50,
          "name": "D3",
          "ticks": 10221,
          "time": 118.84883720930233,
          "velocity": 0.5354330708661418
        },
        {
          "duration": 0.034883720930224626,
          "durationTicks": 3,
          "midi": 79,
          "name": "G5",
          "ticks": 10221,
          "time": 118.84883720930233,
          "velocity": 0.14960629921259844
        },
        {
          "duration": 0.22093023255813193,
          "durationTicks": 19,
          "midi": 84,
          "name": "C6",
          "ticks": 10221,
          "time": 118.84883720930233,
          "velocity": 0.2125984251968504
        },
        {
          "duration": 0.011627906976741542,
          "durationTicks": 1,
          "midi": 48,
          "name": "C3",
          "ticks": 10222,
          "time": 118.86046511627907,
          "velocity": 0.5590551181102362
        },
        {
          "duration": 0.04651162790698038,
          "durationTicks": 4,
          "midi": 78,
          "name": "F#5",
          "ticks": 10222,
          "time": 118.86046511627907,
          "velocity": 0.1889763779527559
        },
        {
          "duration": 0.15116279069766847,
          "durationTicks": 13,
          "midi": 88,
          "name": "E6",
          "ticks": 10222,
          "time": 118.86046511627907,
          "velocity": 0.15748031496062992
        },
        {
          "duration": 0.1046511627907023,
          "durationTicks": 9,
          "midi": 50,
          "name": "D3",
          "ticks": 10223,
          "time": 118.87209302325581,
          "velocity": 0.5354330708661418
        },
        {
          "duration": 0.03488372093023884,
          "durationTicks": 3,
          "midi": 92,
          "name": "G#6",
          "ticks": 10223,
          "time": 118.87209302325581,
          "velocity": 0.10236220472440945
        },
        {
          "duration": 0.17441860465116577,
          "durationTicks": 15,
          "midi": 57,
          "name": "A3",
          "ticks": 10224,
          "time": 118.88372093023256,
          "velocity": 0.14173228346456693
        },
        {
          "duration": 0.12790697674418539,
          "durationTicks": 11,
          "midi": 78,
          "name": "F#5",
          "ticks": 10227,
          "time": 118.9186046511628,
          "velocity": 0.13385826771653545
        },
        {
          "duration": 0.06976744186046346,
          "durationTicks": 6,
          "midi": 79,
          "name": "G5",
          "ticks": 10227,
          "time": 118.9186046511628,
          "velocity": 0.11023622047244094
        },
        {
          "duration": 0.04651162790696617,
          "durationTicks": 4,
          "midi": 67,
          "name": "G4",
          "ticks": 10232,
          "time": 118.97674418604652,
          "velocity": 0.11811023622047244
        },
        {
          "duration": 0.034883720930224626,
          "durationTicks": 3,
          "midi": 50,
          "name": "D3",
          "ticks": 10233,
          "time": 118.98837209302326,
          "velocity": 0.4409448818897638
        },
        {
          "duration": 0.023255813953483084,
          "durationTicks": 2,
          "midi": 45,
          "name": "A2",
          "ticks": 10234,
          "time": 119,
          "velocity": 0.3700787401574803
        },
        {
          "duration": 0.03488372093023884,
          "durationTicks": 3,
          "midi": 68,
          "name": "G#4",
          "ticks": 10240,
          "time": 119.06976744186046,
          "velocity": 0.4094488188976378
        },
        {
          "duration": 0.40697674418605345,
          "durationTicks": 35,
          "midi": 79,
          "name": "G5",
          "ticks": 10240,
          "time": 119.06976744186046,
          "velocity": 0.25196850393700787
        },
        {
          "duration": 0.023255813953497295,
          "durationTicks": 2,
          "midi": 60,
          "name": "C4",
          "ticks": 10241,
          "time": 119.0813953488372,
          "velocity": 0.28346456692913385
        },
        {
          "duration": 0.3139534883720927,
          "durationTicks": 27,
          "midi": 83,
          "name": "B5",
          "ticks": 10241,
          "time": 119.0813953488372,
          "velocity": 0.2204724409448819
        },
        {
          "duration": 0.03488372093023884,
          "durationTicks": 3,
          "midi": 89,
          "name": "F6",
          "ticks": 10241,
          "time": 119.0813953488372,
          "velocity": 0.08661417322834646
        },
        {
          "duration": 0.011627906976755753,
          "durationTicks": 1,
          "midi": 47,
          "name": "B2",
          "ticks": 10242,
          "time": 119.09302325581395,
          "velocity": 0.5275590551181102
        },
        {
          "duration": 0.04651162790696617,
          "durationTicks": 4,
          "midi": 37,
          "name": "C#2",
          "ticks": 10243,
          "time": 119.1046511627907,
          "velocity": 0.4566929133858268
        },
        {
          "duration": 0.081395348837205,
          "durationTicks": 7,
          "midi": 55,
          "name": "G3",
          "ticks": 10243,
          "time": 119.1046511627907,
          "velocity": 0.3464566929133858
        },
        {
          "duration": 0.081395348837205,
          "durationTicks": 7,
          "midi": 67,
          "name": "G4",
          "ticks": 10243,
          "time": 119.1046511627907,
          "velocity": 0.3937007874015748
        },
        {
          "duration": 0.04651162790696617,
          "durationTicks": 4,
          "midi": 82,
          "name": "A#5",
          "ticks": 10243,
          "time": 119.1046511627907,
          "velocity": 0.08661417322834646
        },
        {
          "duration": 0.081395348837205,
          "durationTicks": 7,
          "midi": 93,
          "name": "A6",
          "ticks": 10243,
          "time": 119.1046511627907,
          "velocity": 0.07874015748031496
        },
        {
          "duration": 0.06976744186046346,
          "durationTicks": 6,
          "midi": 78,
          "name": "F#5",
          "ticks": 10244,
          "time": 119.11627906976744,
          "velocity": 0.13385826771653545
        },
        {
          "duration": 0.04651162790698038,
          "durationTicks": 4,
          "midi": 89,
          "name": "F6",
          "ticks": 10245,
          "time": 119.12790697674419,
          "velocity": 0.11023622047244094
        },
        {
          "duration": 0.023255813953497295,
          "durationTicks": 2,
          "midi": 47,
          "name": "B2",
          "ticks": 10246,
          "time": 119.13953488372093,
          "velocity": 0.4409448818897638
        },
        {
          "duration": 0.03488372093023884,
          "durationTicks": 3,
          "midi": 69,
          "name": "A4",
          "ticks": 10246,
          "time": 119.13953488372093,
          "velocity": 0.14173228346456693
        },
        {
          "duration": 0.04651162790698038,
          "durationTicks": 4,
          "midi": 36,
          "name": "C2",
          "ticks": 10247,
          "time": 119.15116279069767,
          "velocity": 0.3937007874015748
        },
        {
          "duration": 0.15116279069768268,
          "durationTicks": 13,
          "midi": 60,
          "name": "C4",
          "ticks": 10247,
          "time": 119.15116279069767,
          "velocity": 0.2677165354330709
        },
        {
          "duration": 0.15116279069768268,
          "durationTicks": 13,
          "midi": 64,
          "name": "E4",
          "ticks": 10247,
          "time": 119.15116279069767,
          "velocity": 0.2125984251968504
        },
        {
          "duration": 0.023255813953483084,
          "durationTicks": 2,
          "midi": 68,
          "name": "G#4",
          "ticks": 10250,
          "time": 119.18604651162791,
          "velocity": 0.3464566929133858
        },
        {
          "duration": 0.023255813953497295,
          "durationTicks": 2,
          "midi": 37,
          "name": "C#2",
          "ticks": 10251,
          "time": 119.19767441860465,
          "velocity": 0.3779527559055118
        },
        {
          "duration": 0.023255813953497295,
          "durationTicks": 2,
          "midi": 47,
          "name": "B2",
          "ticks": 10251,
          "time": 119.19767441860465,
          "velocity": 0.3937007874015748
        },
        {
          "duration": 0.023255813953497295,
          "durationTicks": 2,
          "midi": 55,
          "name": "G3",
          "ticks": 10251,
          "time": 119.19767441860465,
          "velocity": 0.36220472440944884
        },
        {
          "duration": 0.13953488372092693,
          "durationTicks": 12,
          "midi": 89,
          "name": "F6",
          "ticks": 10251,
          "time": 119.19767441860465,
          "velocity": 0.14173228346456693
        },
        {
          "duration": 0.13953488372094114,
          "durationTicks": 12,
          "midi": 67,
          "name": "G4",
          "ticks": 10252,
          "time": 119.20930232558139,
          "velocity": 0.4015748031496063
        },
        {
          "duration": 0.023255813953483084,
          "durationTicks": 2,
          "midi": 34,
          "name": "A#1",
          "ticks": 10254,
          "time": 119.23255813953489,
          "velocity": 0.2283464566929134
        },
        {
          "duration": 0.06976744186046346,
          "durationTicks": 6,
          "midi": 55,
          "name": "G3",
          "ticks": 10255,
          "time": 119.24418604651163,
          "velocity": 0.29133858267716534
        },
        {
          "duration": 0.04651162790698038,
          "durationTicks": 4,
          "midi": 36,
          "name": "C2",
          "ticks": 10256,
          "time": 119.25581395348837,
          "velocity": 0.30708661417322836
        },
        {
          "duration": 0.05813953488372192,
          "durationTicks": 5,
          "midi": 48,
          "name": "C3",
          "ticks": 10257,
          "time": 119.26744186046511,
          "velocity": 0.49606299212598426
        },
        {
          "duration": 0.2093023255813904,
          "durationTicks": 18,
          "midi": 62,
          "name": "D4",
          "ticks": 10260,
          "time": 119.30232558139535,
          "velocity": 0.28346456692913385
        },
        {
          "duration": 0.04651162790698038,
          "durationTicks": 4,
          "midi": 78,
          "name": "F#5",
          "ticks": 10260,
          "time": 119.30232558139535,
          "velocity": 0.07086614173228346
        },
        {
          "duration": 0.09302325581394655,
          "durationTicks": 8,
          "midi": 93,
          "name": "A6",
          "ticks": 10260,
          "time": 119.30232558139535,
          "velocity": 0.18110236220472442
        },
        {
          "duration": 0.2093023255813904,
          "durationTicks": 18,
          "midi": 72,
          "name": "C5",
          "ticks": 10261,
          "time": 119.31395348837209,
          "velocity": 0.1889763779527559
        },
        {
          "duration": 0.023255813953497295,
          "durationTicks": 2,
          "midi": 38,
          "name": "D2",
          "ticks": 10263,
          "time": 119.33720930232558,
          "velocity": 0.4566929133858268
        },
        {
          "duration": 0.04651162790698038,
          "durationTicks": 4,
          "midi": 39,
          "name": "D#2",
          "ticks": 10265,
          "time": 119.36046511627907,
          "velocity": 0.4094488188976378
        },
        {
          "duration": 0.034883720930224626,
          "durationTicks": 3,
          "midi": 67,
          "name": "G4",
          "ticks": 10265,
          "time": 119.36046511627907,
          "velocity": 0.2677165354330709
        },
        {
          "duration": 0.05813953488372192,
          "durationTicks": 5,
          "midi": 76,
          "name": "E5",
          "ticks": 10265,
          "time": 119.36046511627907,
          "velocity": 0.08661417322834646
        },
        {
          "duration": 0.09302325581394655,
          "durationTicks": 8,
          "midi": 57,
          "name": "A3",
          "ticks": 10266,
          "time": 119.37209302325581,
          "velocity": 0.4566929133858268
        },
        {
          "duration": 0.45348837209303383,
          "durationTicks": 39,
          "midi": 69,
          "name": "A4",
          "ticks": 10268,
          "time": 119.3953488372093,
          "velocity": 0.4645669291338583
        },
        {
          "duration": 0.04651162790696617,
          "durationTicks": 4,
          "midi": 38,
          "name": "D2",
          "ticks": 10269,
          "time": 119.40697674418605,
          "velocity": 0.36220472440944884
        },
        {
          "duration": 0.3488372093023173,
          "durationTicks": 30,
          "midi": 66,
          "name": "F#4",
          "ticks": 10270,
          "time": 119.4186046511628,
          "velocity": 0.29133858267716534
        },
        {
          "duration": 0.11627906976744384,
          "durationTicks": 10,
          "midi": 85,
          "name": "C#6",
          "ticks": 10270,
          "time": 119.4186046511628,
          "velocity": 0.16535433070866143
        },
        {
          "duration": 0.3488372093023173,
          "durationTicks": 30,
          "midi": 95,
          "name": "B6",
          "ticks": 10271,
          "time": 119.43023255813954,
          "velocity": 0.18110236220472442
        },
        {
          "duration": 0.023255813953497295,
          "durationTicks": 2,
          "midi": 36,
          "name": "C2",
          "ticks": 10273,
          "time": 119.45348837209302,
          "velocity": 0.25984251968503935
        },
        {
          "duration": 0.034883720930224626,
          "durationTicks": 3,
          "midi": 57,
          "name": "A3",
          "ticks": 10275,
          "time": 119.47674418604652,
          "velocity": 0.3700787401574803
        },
        {
          "duration": 0.023255813953483084,
          "durationTicks": 2,
          "midi": 39,
          "name": "D#2",
          "ticks": 10276,
          "time": 119.48837209302326,
          "velocity": 0.30708661417322836
        },
        {
          "duration": 0.023255813953497295,
          "durationTicks": 2,
          "midi": 58,
          "name": "A#3",
          "ticks": 10278,
          "time": 119.51162790697674,
          "velocity": 0.3228346456692913
        },
        {
          "duration": 0.23255813953487348,
          "durationTicks": 20,
          "midi": 57,
          "name": "A3",
          "ticks": 10280,
          "time": 119.53488372093024,
          "velocity": 0.4251968503937008
        },
        {
          "duration": 0.22093023255813193,
          "durationTicks": 19,
          "midi": 62,
          "name": "D4",
          "ticks": 10280,
          "time": 119.53488372093024,
          "velocity": 0.25984251968503935
        },
        {
          "duration": 0.05813953488370771,
          "durationTicks": 5,
          "midi": 84,
          "name": "C6",
          "ticks": 10280,
          "time": 119.53488372093024,
          "velocity": 0.08661417322834646
        },
        {
          "duration": 0.081395348837205,
          "durationTicks": 7,
          "midi": 88,
          "name": "E6",
          "ticks": 10280,
          "time": 119.53488372093024,
          "velocity": 0.08661417322834646
        },
        {
          "duration": 0.2093023255813904,
          "durationTicks": 18,
          "midi": 50,
          "name": "D3",
          "ticks": 10281,
          "time": 119.54651162790698,
          "velocity": 0.3700787401574803
        },
        {
          "duration": 0.023255813953483084,
          "durationTicks": 2,
          "midi": 39,
          "name": "D#2",
          "ticks": 10282,
          "time": 119.55813953488372,
          "velocity": 0.4015748031496063
        },
        {
          "duration": 0.09302325581394655,
          "durationTicks": 8,
          "midi": 80,
          "name": "G#5",
          "ticks": 10282,
          "time": 119.55813953488372,
          "velocity": 0.11023622047244094
        },
        {
          "duration": 0.4767441860465169,
          "durationTicks": 41,
          "midi": 85,
          "name": "C#6",
          "ticks": 10282,
          "time": 119.55813953488372,
          "velocity": 0.2677165354330709
        },
        {
          "duration": 0.04651162790698038,
          "durationTicks": 4,
          "midi": 91,
          "name": "G6",
          "ticks": 10282,
          "time": 119.55813953488372,
          "velocity": 0.12598425196850394
        },
        {
          "duration": 0.05813953488372192,
          "durationTicks": 5,
          "midi": 38,
          "name": "D2",
          "ticks": 10284,
          "time": 119.5813953488372,
          "velocity": 0.4015748031496063
        },
        {
          "duration": 0.16279069767442422,
          "durationTicks": 14,
          "midi": 76,
          "name": "E5",
          "ticks": 10285,
          "time": 119.59302325581395,
          "velocity": 0.1732283464566929
        },
        {
          "duration": 0.1046511627907023,
          "durationTicks": 9,
          "midi": 72,
          "name": "C5",
          "ticks": 10289,
          "time": 119.63953488372093,
          "velocity": 0.1889763779527559
        },
        {
          "duration": 0.04651162790698038,
          "durationTicks": 4,
          "midi": 91,
          "name": "G6",
          "ticks": 10293,
          "time": 119.68604651162791,
          "velocity": 0.09448818897637795
        },
        {
          "duration": 0.05813953488372192,
          "durationTicks": 5,
          "midi": 38,
          "name": "D2",
          "ticks": 10294,
          "time": 119.69767441860465,
          "velocity": 0.30708661417322836
        },
        {
          "duration": 0.023255813953483084,
          "durationTicks": 2,
          "midi": 61,
          "name": "C#4",
          "ticks": 10299,
          "time": 119.75581395348837,
          "velocity": 0.4015748031496063
        },
        {
          "duration": 0.34883720930233153,
          "durationTicks": 30,
          "midi": 74,
          "name": "D5",
          "ticks": 10299,
          "time": 119.75581395348837,
          "velocity": 0.5354330708661418
        },
        {
          "duration": 0.04651162790698038,
          "durationTicks": 4,
          "midi": 90,
          "name": "F#6",
          "ticks": 10299,
          "time": 119.75581395348837,
          "velocity": 0.2125984251968504
        },
        {
          "duration": 0.25581395348837077,
          "durationTicks": 22,
          "midi": 77,
          "name": "F5",
          "ticks": 10300,
          "time": 119.76744186046511,
          "velocity": 0.2204724409448819
        },
        {
          "duration": 0.2325581395348877,
          "durationTicks": 20,
          "midi": 83,
          "name": "B5",
          "ticks": 10300,
          "time": 119.76744186046511,
          "velocity": 0.2125984251968504
        },
        {
          "duration": 0.08139534883721922,
          "durationTicks": 7,
          "midi": 96,
          "name": "C7",
          "ticks": 10300,
          "time": 119.76744186046511,
          "velocity": 0.10236220472440945
        },
        {
          "duration": 0.023255813953497295,
          "durationTicks": 2,
          "midi": 42,
          "name": "F#2",
          "ticks": 10301,
          "time": 119.77906976744185,
          "velocity": 0.5118110236220472
        },
        {
          "duration": 0.2093023255814046,
          "durationTicks": 18,
          "midi": 62,
          "name": "D4",
          "ticks": 10301,
          "time": 119.77906976744185,
          "velocity": 0.44881889763779526
        },
        {
          "duration": 0.19767441860464885,
          "durationTicks": 17,
          "midi": 67,
          "name": "G4",
          "ticks": 10302,
          "time": 119.79069767441861,
          "velocity": 0.2125984251968504
        },
        {
          "duration": 0.19767441860464885,
          "durationTicks": 17,
          "midi": 55,
          "name": "G3",
          "ticks": 10303,
          "time": 119.80232558139535,
          "velocity": 0.41732283464566927
        },
        {
          "duration": 0.034883720930224626,
          "durationTicks": 3,
          "midi": 71,
          "name": "B4",
          "ticks": 10303,
          "time": 119.80232558139535,
          "velocity": 0.11023622047244094
        },
        {
          "duration": 0.1046511627907023,
          "durationTicks": 9,
          "midi": 90,
          "name": "F#6",
          "ticks": 10305,
          "time": 119.82558139534883,
          "velocity": 0.1732283464566929
        },
        {
          "duration": 0.03488372093023884,
          "durationTicks": 3,
          "midi": 43,
          "name": "G2",
          "ticks": 10306,
          "time": 119.83720930232558,
          "velocity": 0.3858267716535433
        },
        {
          "duration": 0.13953488372092693,
          "durationTicks": 12,
          "midi": 71,
          "name": "B4",
          "ticks": 10307,
          "time": 119.84883720930233,
          "velocity": 0.07874015748031496
        },
        {
          "duration": 0.1046511627907023,
          "durationTicks": 9,
          "midi": 43,
          "name": "G2",
          "ticks": 10310,
          "time": 119.88372093023256,
          "velocity": 0.3543307086614173
        },
        {
          "duration": 0.05813953488372192,
          "durationTicks": 5,
          "midi": 90,
          "name": "F#6",
          "ticks": 10317,
          "time": 119.96511627906976,
          "velocity": 0.14173228346456693
        },
        {
          "duration": 0.22093023255813193,
          "durationTicks": 19,
          "midi": 60,
          "name": "C4",
          "ticks": 10319,
          "time": 119.98837209302326,
          "velocity": 0.4645669291338583
        },
        {
          "duration": 0.3372093023255758,
          "durationTicks": 29,
          "midi": 72,
          "name": "C5",
          "ticks": 10319,
          "time": 119.98837209302326,
          "velocity": 0.5039370078740157
        },
        {
          "duration": 0.4767441860465027,
          "durationTicks": 41,
          "midi": 79,
          "name": "G5",
          "ticks": 10319,
          "time": 119.98837209302326,
          "velocity": 0.25984251968503935
        },
        {
          "duration": 0.11627906976744384,
          "durationTicks": 10,
          "midi": 88,
          "name": "E6",
          "ticks": 10319,
          "time": 119.98837209302326,
          "velocity": 0.2283464566929134
        },
        {
          "duration": 0.081395348837205,
          "durationTicks": 7,
          "midi": 93,
          "name": "A6",
          "ticks": 10319,
          "time": 119.98837209302326,
          "velocity": 0.12598425196850394
        },
        {
          "duration": 0.023255813953483084,
          "durationTicks": 2,
          "midi": 43,
          "name": "G2",
          "ticks": 10320,
          "time": 120,
          "velocity": 0.44881889763779526
        },
        {
          "duration": 0.22093023255814614,
          "durationTicks": 19,
          "midi": 53,
          "name": "F3",
          "ticks": 10320,
          "time": 120,
          "velocity": 0.44881889763779526
        },
        {
          "duration": 0.05813953488372192,
          "durationTicks": 5,
          "midi": 94,
          "name": "A#6",
          "ticks": 10320,
          "time": 120,
          "velocity": 0.1732283464566929
        },
        {
          "duration": 0.2093023255814046,
          "durationTicks": 18,
          "midi": 69,
          "name": "A4",
          "ticks": 10321,
          "time": 120.01162790697674,
          "velocity": 0.23622047244094488
        },
        {
          "duration": 0.04651162790698038,
          "durationTicks": 4,
          "midi": 87,
          "name": "D#6",
          "ticks": 10321,
          "time": 120.01162790697674,
          "velocity": 0.08661417322834646
        },
        {
          "duration": 0.06976744186046346,
          "durationTicks": 6,
          "midi": 96,
          "name": "C7",
          "ticks": 10321,
          "time": 120.01162790697674,
          "velocity": 0.1732283464566929
        },
        {
          "duration": 0.03488372093023884,
          "durationTicks": 3,
          "midi": 83,
          "name": "B5",
          "ticks": 10322,
          "time": 120.02325581395348,
          "velocity": 0.13385826771653545
        },
        {
          "duration": 0.10465116279068809,
          "durationTicks": 9,
          "midi": 41,
          "name": "F2",
          "ticks": 10323,
          "time": 120.03488372093024,
          "velocity": 0.4251968503937008
        },
        {
          "duration": 0.03488372093023884,
          "durationTicks": 3,
          "midi": 83,
          "name": "B5",
          "ticks": 10326,
          "time": 120.06976744186046,
          "velocity": 0.09448818897637795
        },
        {
          "duration": 0.05813953488372192,
          "durationTicks": 5,
          "midi": 96,
          "name": "C7",
          "ticks": 10329,
          "time": 120.1046511627907,
          "velocity": 0.08661417322834646
        },
        {
          "duration": 0.023255813953497295,
          "durationTicks": 2,
          "midi": 40,
          "name": "E2",
          "ticks": 10332,
          "time": 120.13953488372093,
          "velocity": 0.25984251968503935
        },
        {
          "duration": 0.06976744186047767,
          "durationTicks": 6,
          "midi": 88,
          "name": "E6",
          "ticks": 10333,
          "time": 120.15116279069767,
          "velocity": 0.10236220472440945
        },
        {
          "duration": 0.034883720930224626,
          "durationTicks": 3,
          "midi": 41,
          "name": "F2",
          "ticks": 10334,
          "time": 120.16279069767442,
          "velocity": 0.3228346456692913
        },
        {
          "duration": 0.25581395348837077,
          "durationTicks": 22,
          "midi": 67,
          "name": "G4",
          "ticks": 10338,
          "time": 120.20930232558139,
          "velocity": 0.4251968503937008
        },
        {
          "duration": 0.11627906976742963,
          "durationTicks": 10,
          "midi": 89,
          "name": "F6",
          "ticks": 10339,
          "time": 120.22093023255815,
          "velocity": 0.11023622047244094
        },
        {
          "duration": 0.17441860465115155,
          "durationTicks": 15,
          "midi": 93,
          "name": "A6",
          "ticks": 10339,
          "time": 120.22093023255815,
          "velocity": 0.1968503937007874
        },
        {
          "duration": 0.023255813953483084,
          "durationTicks": 2,
          "midi": 50,
          "name": "D3",
          "ticks": 10340,
          "time": 120.23255813953489,
          "velocity": 0.48031496062992124
        },
        {
          "duration": 0.19767441860464885,
          "durationTicks": 17,
          "midi": 83,
          "name": "B5",
          "ticks": 10340,
          "time": 120.23255813953489,
          "velocity": 0.2125984251968504
        },
        {
          "duration": 0.04651162790698038,
          "durationTicks": 4,
          "midi": 39,
          "name": "D#2",
          "ticks": 10341,
          "time": 120.24418604651163,
          "velocity": 0.47244094488188976
        },
        {
          "duration": 0.023255813953483084,
          "durationTicks": 2,
          "midi": 60,
          "name": "C4",
          "ticks": 10341,
          "time": 120.24418604651163,
          "velocity": 0.30708661417322836
        },
        {
          "duration": 0.1860465116279073,
          "durationTicks": 16,
          "midi": 50,
          "name": "D3",
          "ticks": 10343,
          "time": 120.26744186046511,
          "velocity": 0.4251968503937008
        },
        {
          "duration": 0.1046511627907023,
          "durationTicks": 9,
          "midi": 76,
          "name": "E5",
          "ticks": 10344,
          "time": 120.27906976744185,
          "velocity": 0.07086614173228346
        },
        {
          "duration": 0.09302325581396076,
          "durationTicks": 8,
          "midi": 86,
          "name": "D6",
          "ticks": 10344,
          "time": 120.27906976744185,
          "velocity": 0.07874015748031496
        },
        {
          "duration": 0.081395348837205,
          "durationTicks": 7,
          "midi": 38,
          "name": "D2",
          "ticks": 10345,
          "time": 120.29069767441861,
          "velocity": 0.3779527559055118
        },
        {
          "duration": 0.023255813953483084,
          "durationTicks": 2,
          "midi": 56,
          "name": "G#3",
          "ticks": 10350,
          "time": 120.34883720930233,
          "velocity": 0.3228346456692913
        },
        {
          "duration": 0.06976744186046346,
          "durationTicks": 6,
          "midi": 72,
          "name": "C5",
          "ticks": 10351,
          "time": 120.36046511627907,
          "velocity": 0.11811023622047244
        },
        {
          "duration": 0.023255813953483084,
          "durationTicks": 2,
          "midi": 37,
          "name": "C#2",
          "ticks": 10352,
          "time": 120.37209302325581,
          "velocity": 0.2440944881889764
        },
        {
          "duration": 0.023255813953483084,
          "durationTicks": 2,
          "midi": 57,
          "name": "A3",
          "ticks": 10352,
          "time": 120.37209302325581,
          "velocity": 0.2677165354330709
        },
        {
          "duration": 0.05813953488372192,
          "durationTicks": 5,
          "midi": 38,
          "name": "D2",
          "ticks": 10354,
          "time": 120.3953488372093,
          "velocity": 0.2992125984251969
        },
        {
          "duration": 0.023255813953483084,
          "durationTicks": 2,
          "midi": 56,
          "name": "G#3",
          "ticks": 10358,
          "time": 120.44186046511628,
          "velocity": 0.3228346456692913
        },
        {
          "duration": 0.4651162790697754,
          "durationTicks": 40,
          "midi": 69,
          "name": "A4",
          "ticks": 10359,
          "time": 120.45348837209302,
          "velocity": 0.44881889763779526
        },
        {
          "duration": 0.03488372093023884,
          "durationTicks": 3,
          "midi": 74,
          "name": "D5",
          "ticks": 10359,
          "time": 120.45348837209302,
          "velocity": 0.13385826771653545
        },
        {
          "duration": 0.3953488372093119,
          "durationTicks": 34,
          "midi": 76,
          "name": "E5",
          "ticks": 10359,
          "time": 120.45348837209302,
          "velocity": 0.15748031496062992
        },
        {
          "duration": 0.023255813953497295,
          "durationTicks": 2,
          "midi": 40,
          "name": "E2",
          "ticks": 10360,
          "time": 120.46511627906976,
          "velocity": 0.4881889763779528
        },
        {
          "duration": 0.09302325581396076,
          "durationTicks": 8,
          "midi": 57,
          "name": "A3",
          "ticks": 10360,
          "time": 120.46511627906976,
          "velocity": 0.3779527559055118
        },
        {
          "duration": 0.48837209302325846,
          "durationTicks": 42,
          "midi": 85,
          "name": "C#6",
          "ticks": 10360,
          "time": 120.46511627906976,
          "velocity": 0.23622047244094488
        },
        {
          "duration": 0.06976744186047767,
          "durationTicks": 6,
          "midi": 90,
          "name": "F#6",
          "ticks": 10360,
          "time": 120.46511627906976,
          "velocity": 0.07874015748031496
        },
        {
          "duration": 0.08139534883721922,
          "durationTicks": 7,
          "midi": 91,
          "name": "G6",
          "ticks": 10360,
          "time": 120.46511627906976,
          "velocity": 0.11811023622047244
        },
        {
          "duration": 0.09302325581394655,
          "durationTicks": 8,
          "midi": 50,
          "name": "D3",
          "ticks": 10361,
          "time": 120.47674418604652,
          "velocity": 0.4645669291338583
        },
        {
          "duration": 0.081395348837205,
          "durationTicks": 7,
          "midi": 72,
          "name": "C5",
          "ticks": 10361,
          "time": 120.47674418604652,
          "velocity": 0.11811023622047244
        },
        {
          "duration": 0.2093023255813904,
          "durationTicks": 18,
          "midi": 95,
          "name": "B6",
          "ticks": 10361,
          "time": 120.47674418604652,
          "velocity": 0.13385826771653545
        },
        {
          "duration": 0.023255813953483084,
          "durationTicks": 2,
          "midi": 39,
          "name": "D#2",
          "ticks": 10362,
          "time": 120.48837209302326,
          "velocity": 0.4881889763779528
        },
        {
          "duration": 0.081395348837205,
          "durationTicks": 7,
          "midi": 66,
          "name": "F#4",
          "ticks": 10362,
          "time": 120.48837209302326,
          "velocity": 0.1968503937007874
        },
        {
          "duration": 0.04651162790698038,
          "durationTicks": 4,
          "midi": 38,
          "name": "D2",
          "ticks": 10364,
          "time": 120.51162790697674,
          "velocity": 0.41732283464566927
        },
        {
          "duration": 0.023255813953483084,
          "durationTicks": 2,
          "midi": 40,
          "name": "E2",
          "ticks": 10369,
          "time": 120.56976744186046,
          "velocity": 0.5039370078740157
        },
        {
          "duration": 0.011627906976741542,
          "durationTicks": 1,
          "midi": 48,
          "name": "C3",
          "ticks": 10369,
          "time": 120.56976744186046,
          "velocity": 0.5118110236220472
        },
        {
          "duration": 0.1046511627907023,
          "durationTicks": 9,
          "midi": 57,
          "name": "A3",
          "ticks": 10369,
          "time": 120.56976744186046,
          "velocity": 0.44881889763779526
        },
        {
          "duration": 0.1046511627907023,
          "durationTicks": 9,
          "midi": 72,
          "name": "C5",
          "ticks": 10369,
          "time": 120.56976744186046,
          "velocity": 0.18110236220472442
        },
        {
          "duration": 0.09302325581396076,
          "durationTicks": 8,
          "midi": 50,
          "name": "D3",
          "ticks": 10370,
          "time": 120.5813953488372,
          "velocity": 0.48031496062992124
        },
        {
          "duration": 0.09302325581396076,
          "durationTicks": 8,
          "midi": 66,
          "name": "F#4",
          "ticks": 10370,
          "time": 120.5813953488372,
          "velocity": 0.1889763779527559
        },
        {
          "duration": 0.1046511627907023,
          "durationTicks": 9,
          "midi": 82,
          "name": "A#5",
          "ticks": 10370,
          "time": 120.5813953488372,
          "velocity": 0.12598425196850394
        },
        {
          "duration": 0.06976744186046346,
          "durationTicks": 6,
          "midi": 91,
          "name": "G6",
          "ticks": 10370,
          "time": 120.5813953488372,
          "velocity": 0.11023622047244094
        },
        {
          "duration": 0.03488372093023884,
          "durationTicks": 3,
          "midi": 39,
          "name": "D#2",
          "ticks": 10371,
          "time": 120.59302325581395,
          "velocity": 0.4566929133858268
        },
        {
          "duration": 0.04651162790698038,
          "durationTicks": 4,
          "midi": 38,
          "name": "D2",
          "ticks": 10374,
          "time": 120.62790697674419,
          "velocity": 0.3543307086614173
        },
        {
          "duration": 0.034883720930224626,
          "durationTicks": 3,
          "midi": 48,
          "name": "C3",
          "ticks": 10378,
          "time": 120.67441860465117,
          "velocity": 0.5275590551181102
        },
        {
          "duration": 0.1860465116279073,
          "durationTicks": 16,
          "midi": 78,
          "name": "F#5",
          "ticks": 10380,
          "time": 120.69767441860465,
          "velocity": 0.2047244094488189
        },
        {
          "duration": 0.03488372093023884,
          "durationTicks": 3,
          "midi": 92,
          "name": "G#6",
          "ticks": 10381,
          "time": 120.70930232558139,
          "velocity": 0.11023622047244094
        },
        {
          "duration": 0.034883720930224626,
          "durationTicks": 3,
          "midi": 50,
          "name": "D3",
          "ticks": 10382,
          "time": 120.72093023255815,
          "velocity": 0.4881889763779528
        },
        {
          "duration": 0.17441860465115155,
          "durationTicks": 15,
          "midi": 57,
          "name": "A3",
          "ticks": 10382,
          "time": 120.72093023255815,
          "velocity": 0.13385826771653545
        },
        {
          "duration": 0.1860465116279073,
          "durationTicks": 16,
          "midi": 84,
          "name": "C6",
          "ticks": 10382,
          "time": 120.72093023255815,
          "velocity": 0.18110236220472442
        },
        {
          "duration": 0.03488372093023884,
          "durationTicks": 3,
          "midi": 50,
          "name": "D3",
          "ticks": 10386,
          "time": 120.76744186046511,
          "velocity": 0.47244094488188976
        },
        {
          "duration": 0.04651162790698038,
          "durationTicks": 4,
          "midi": 79,
          "name": "G5",
          "ticks": 10387,
          "time": 120.77906976744185,
          "velocity": 0.10236220472440945
        },
        {
          "duration": 0.023255813953483084,
          "durationTicks": 2,
          "midi": 49,
          "name": "C#3",
          "ticks": 10389,
          "time": 120.80232558139535,
          "velocity": 0.4251968503937008
        },
        {
          "duration": 0.04651162790698038,
          "durationTicks": 4,
          "midi": 67,
          "name": "G4",
          "ticks": 10390,
          "time": 120.81395348837209,
          "velocity": 0.14173228346456693
        },
        {
          "duration": 0.023255813953497295,
          "durationTicks": 2,
          "midi": 50,
          "name": "D3",
          "ticks": 10391,
          "time": 120.82558139534883,
          "velocity": 0.4251968503937008
        },
        {
          "duration": 0.023255813953497295,
          "durationTicks": 2,
          "midi": 45,
          "name": "A2",
          "ticks": 10392,
          "time": 120.83720930232558,
          "velocity": 0.3700787401574803
        },
        {
          "duration": 0.023255813953483084,
          "durationTicks": 2,
          "midi": 44,
          "name": "G#2",
          "ticks": 10398,
          "time": 120.90697674418605,
          "velocity": 0.48031496062992124
        },
        {
          "duration": 0.034883720930224626,
          "durationTicks": 3,
          "midi": 68,
          "name": "G#4",
          "ticks": 10398,
          "time": 120.90697674418605,
          "velocity": 0.4094488188976378
        },
        {
          "duration": 0.034883720930224626,
          "durationTicks": 3,
          "midi": 76,
          "name": "E5",
          "ticks": 10398,
          "time": 120.90697674418605,
          "velocity": 0.10236220472440945
        },
        {
          "duration": 0.38372093023255616,
          "durationTicks": 33,
          "midi": 79,
          "name": "G5",
          "ticks": 10398,
          "time": 120.90697674418605,
          "velocity": 0.28346456692913385
        },
        {
          "duration": 0.023255813953483084,
          "durationTicks": 2,
          "midi": 60,
          "name": "C4",
          "ticks": 10399,
          "time": 120.9186046511628,
          "velocity": 0.28346456692913385
        },
        {
          "duration": 0.2093023255813904,
          "durationTicks": 18,
          "midi": 83,
          "name": "B5",
          "ticks": 10399,
          "time": 120.9186046511628,
          "velocity": 0.2204724409448819
        },
        {
          "duration": 0.11627906976744384,
          "durationTicks": 10,
          "midi": 88,
          "name": "E6",
          "ticks": 10399,
          "time": 120.9186046511628,
          "velocity": 0.10236220472440945
        },
        {
          "duration": 0.034883720930224626,
          "durationTicks": 3,
          "midi": 89,
          "name": "F6",
          "ticks": 10399,
          "time": 120.9186046511628,
          "velocity": 0.08661417322834646
        },
        {
          "duration": 0.011627906976741542,
          "durationTicks": 1,
          "midi": 47,
          "name": "B2",
          "ticks": 10400,
          "time": 120.93023255813954,
          "velocity": 0.5275590551181102
        },
        {
          "duration": 0.05813953488372192,
          "durationTicks": 5,
          "midi": 82,
          "name": "A#5",
          "ticks": 10400,
          "time": 120.93023255813954,
          "velocity": 0.08661417322834646
        },
        {
          "duration": 0.04651162790698038,
          "durationTicks": 4,
          "midi": 37,
          "name": "C#2",
          "ticks": 10401,
          "time": 120.94186046511628,
          "velocity": 0.4645669291338583
        },
        {
          "duration": 0.03488372093023884,
          "durationTicks": 3,
          "midi": 48,
          "name": "C3",
          "ticks": 10401,
          "time": 120.94186046511628,
          "velocity": 0.5039370078740157
        },
        {
          "duration": 0.06976744186046346,
          "durationTicks": 6,
          "midi": 55,
          "name": "G3",
          "ticks": 10401,
          "time": 120.94186046511628,
          "velocity": 0.3464566929133858
        },
        {
          "duration": 0.19767441860464885,
          "durationTicks": 17,
          "midi": 67,
          "name": "G4",
          "ticks": 10401,
          "time": 120.94186046511628,
          "velocity": 0.4566929133858268
        },
        {
          "duration": 0.2906976744186096,
          "durationTicks": 25,
          "midi": 93,
          "name": "A6",
          "ticks": 10401,
          "time": 120.94186046511628,
          "velocity": 0.1968503937007874
        },
        {
          "duration": 0.06976744186046346,
          "durationTicks": 6,
          "midi": 78,
          "name": "F#5",
          "ticks": 10402,
          "time": 120.95348837209302,
          "velocity": 0.12598425196850394
        },
        {
          "duration": 0.04651162790698038,
          "durationTicks": 4,
          "midi": 89,
          "name": "F6",
          "ticks": 10403,
          "time": 120.96511627906976,
          "velocity": 0.11811023622047244
        },
        {
          "duration": 0.023255813953483084,
          "durationTicks": 2,
          "midi": 47,
          "name": "B2",
          "ticks": 10404,
          "time": 120.97674418604652,
          "velocity": 0.4409448818897638
        },
        {
          "duration": 0.04651162790696617,
          "durationTicks": 4,
          "midi": 69,
          "name": "A4",
          "ticks": 10404,
          "time": 120.97674418604652,
          "velocity": 0.18110236220472442
        },
        {
          "duration": 0.04651162790698038,
          "durationTicks": 4,
          "midi": 36,
          "name": "C2",
          "ticks": 10405,
          "time": 120.98837209302326,
          "velocity": 0.4015748031496063
        },
        {
          "duration": 0.13953488372092693,
          "durationTicks": 12,
          "midi": 60,
          "name": "C4",
          "ticks": 10405,
          "time": 120.98837209302326,
          "velocity": 0.28346456692913385
        },
        {
          "duration": 0.04651162790698038,
          "durationTicks": 4,
          "midi": 48,
          "name": "C3",
          "ticks": 10406,
          "time": 121,
          "velocity": 0.4251968503937008
        },
        {
          "duration": 0.023255813953497295,
          "durationTicks": 2,
          "midi": 54,
          "name": "F#3",
          "ticks": 10407,
          "time": 121.01162790697674,
          "velocity": 0.4251968503937008
        },
        {
          "duration": 0.1046511627907023,
          "durationTicks": 9,
          "midi": 64,
          "name": "E4",
          "ticks": 10408,
          "time": 121.02325581395348,
          "velocity": 0.18110236220472442
        },
        {
          "duration": 0.034883720930224626,
          "durationTicks": 3,
          "midi": 37,
          "name": "C#2",
          "ticks": 10409,
          "time": 121.03488372093024,
          "velocity": 0.3937007874015748
        },
        {
          "duration": 0.10465116279068809,
          "durationTicks": 9,
          "midi": 55,
          "name": "G3",
          "ticks": 10409,
          "time": 121.03488372093024,
          "velocity": 0.4015748031496063
        },
        {
          "duration": 0.034883720930224626,
          "durationTicks": 3,
          "midi": 78,
          "name": "F#5",
          "ticks": 10409,
          "time": 121.03488372093024,
          "velocity": 0.07874015748031496
        },
        {
          "duration": 0.15116279069766847,
          "durationTicks": 13,
          "midi": 89,
          "name": "F6",
          "ticks": 10409,
          "time": 121.03488372093024,
          "velocity": 0.1732283464566929
        },
        {
          "duration": 0.06976744186046346,
          "durationTicks": 6,
          "midi": 48,
          "name": "C3",
          "ticks": 10411,
          "time": 121.05813953488372,
          "velocity": 0.3779527559055118
        },
        {
          "duration": 0.034883720930224626,
          "durationTicks": 3,
          "midi": 70,
          "name": "A#4",
          "ticks": 10415,
          "time": 121.1046511627907,
          "velocity": 0.15748031496062992
        },
        {
          "duration": 0.1046511627907023,
          "durationTicks": 9,
          "midi": 72,
          "name": "C5",
          "ticks": 10418,
          "time": 121.13953488372093,
          "velocity": 0.15748031496062992
        },
        {
          "duration": 0.22093023255814614,
          "durationTicks": 19,
          "midi": 50,
          "name": "D3",
          "ticks": 10419,
          "time": 121.15116279069767,
          "velocity": 0.4409448818897638
        },
        {
          "duration": 0.023255813953497295,
          "durationTicks": 2,
          "midi": 67,
          "name": "G4",
          "ticks": 10419,
          "time": 121.15116279069767,
          "velocity": 0.25984251968503935
        },
        {
          "duration": 0.05813953488372192,
          "durationTicks": 5,
          "midi": 38,
          "name": "D2",
          "ticks": 10420,
          "time": 121.16279069767442,
          "velocity": 0.44881889763779526
        },
        {
          "duration": 0.023255813953483084,
          "durationTicks": 2,
          "midi": 56,
          "name": "G#3",
          "ticks": 10421,
          "time": 121.17441860465117,
          "velocity": 0.3700787401574803
        },
        {
          "duration": 0.034883720930224626,
          "durationTicks": 3,
          "midi": 69,
          "name": "A4",
          "ticks": 10421,
          "time": 121.17441860465117,
          "velocity": 0.14960629921259844
        },
        {
          "duration": 0.023255813953497295,
          "durationTicks": 2,
          "midi": 57,
          "name": "A3",
          "ticks": 10423,
          "time": 121.19767441860465,
          "velocity": 0.33858267716535434
        },
        {
          "duration": 0.023255813953497295,
          "durationTicks": 2,
          "midi": 67,
          "name": "G4",
          "ticks": 10423,
          "time": 121.19767441860465,
          "velocity": 0.25984251968503935
        },
        {
          "duration": 0.05813953488372192,
          "durationTicks": 5,
          "midi": 57,
          "name": "A3",
          "ticks": 10426,
          "time": 121.23255813953489,
          "velocity": 0.4645669291338583
        },
        {
          "duration": 0.38372093023255616,
          "durationTicks": 33,
          "midi": 66,
          "name": "F#4",
          "ticks": 10427,
          "time": 121.24418604651163,
          "velocity": 0.28346456692913385
        },
        {
          "duration": 0.5930232558139465,
          "durationTicks": 51,
          "midi": 69,
          "name": "A4",
          "ticks": 10427,
          "time": 121.24418604651163,
          "velocity": 0.47244094488188976
        },
        {
          "duration": 0.11627906976744384,
          "durationTicks": 10,
          "midi": 72,
          "name": "C5",
          "ticks": 10428,
          "time": 121.25581395348837,
          "velocity": 0.1968503937007874
        },
        {
          "duration": 0.6279069767441854,
          "durationTicks": 54,
          "midi": 85,
          "name": "C#6",
          "ticks": 10428,
          "time": 121.25581395348837,
          "velocity": 0.25196850393700787
        },
        {
          "duration": 0.34883720930233153,
          "durationTicks": 30,
          "midi": 95,
          "name": "B6",
          "ticks": 10429,
          "time": 121.26744186046511,
          "velocity": 0.1732283464566929
        },
        {
          "duration": 0.023255813953497295,
          "durationTicks": 2,
          "midi": 36,
          "name": "C2",
          "ticks": 10430,
          "time": 121.27906976744185,
          "velocity": 0.2677165354330709
        },
        {
          "duration": 0.05813953488372192,
          "durationTicks": 5,
          "midi": 57,
          "name": "A3",
          "ticks": 10432,
          "time": 121.30232558139535,
          "velocity": 0.3779527559055118
        },
        {
          "duration": 0.03488372093023884,
          "durationTicks": 3,
          "midi": 38,
          "name": "D2",
          "ticks": 10434,
          "time": 121.32558139534883,
          "velocity": 0.2992125984251969
        },
        {
          "duration": 0.19767441860464885,
          "durationTicks": 17,
          "midi": 80,
          "name": "G#5",
          "ticks": 10437,
          "time": 121.36046511627907,
          "velocity": 0.16535433070866143
        },
        {
          "duration": 0.09302325581394655,
          "durationTicks": 8,
          "midi": 90,
          "name": "F#6",
          "ticks": 10437,
          "time": 121.36046511627907,
          "velocity": 0.12598425196850394
        },
        {
          "duration": 0.09302325581394655,
          "durationTicks": 8,
          "midi": 57,
          "name": "A3",
          "ticks": 10438,
          "time": 121.37209302325581,
          "velocity": 0.4330708661417323
        },
        {
          "duration": 0.09302325581394655,
          "durationTicks": 8,
          "midi": 62,
          "name": "D4",
          "ticks": 10438,
          "time": 121.37209302325581,
          "velocity": 0.31496062992125984
        },
        {
          "duration": 0.09302325581394655,
          "durationTicks": 8,
          "midi": 88,
          "name": "E6",
          "ticks": 10438,
          "time": 121.37209302325581,
          "velocity": 0.08661417322834646
        },
        {
          "duration": 0.2093023255813904,
          "durationTicks": 18,
          "midi": 50,
          "name": "D3",
          "ticks": 10439,
          "time": 121.38372093023256,
          "velocity": 0.5039370078740157
        },
        {
          "duration": 0.04651162790698038,
          "durationTicks": 4,
          "midi": 84,
          "name": "C6",
          "ticks": 10439,
          "time": 121.38372093023256,
          "velocity": 0.09448818897637795
        },
        {
          "duration": 0.03488372093023884,
          "durationTicks": 3,
          "midi": 39,
          "name": "D#2",
          "ticks": 10440,
          "time": 121.3953488372093,
          "velocity": 0.4881889763779528
        },
        {
          "duration": 0.2093023255814046,
          "durationTicks": 18,
          "midi": 72,
          "name": "C5",
          "ticks": 10440,
          "time": 121.3953488372093,
          "velocity": 0.18110236220472442
        },
        {
          "duration": 0.034883720930224626,
          "durationTicks": 3,
          "midi": 91,
          "name": "G6",
          "ticks": 10442,
          "time": 121.4186046511628,
          "velocity": 0.10236220472440945
        },
        {
          "duration": 0.04651162790698038,
          "durationTicks": 4,
          "midi": 38,
          "name": "D2",
          "ticks": 10443,
          "time": 121.43023255813954,
          "velocity": 0.4251968503937008
        },
        {
          "duration": 0.19767441860464885,
          "durationTicks": 17,
          "midi": 76,
          "name": "E5",
          "ticks": 10444,
          "time": 121.44186046511628,
          "velocity": 0.13385826771653545
        },
        {
          "duration": 0.023255813953483084,
          "durationTicks": 2,
          "midi": 39,
          "name": "D#2",
          "ticks": 10447,
          "time": 121.47674418604652,
          "velocity": 0.3858267716535433
        },
        {
          "duration": 0.3372093023255758,
          "durationTicks": 29,
          "midi": 57,
          "name": "A3",
          "ticks": 10447,
          "time": 121.47674418604652,
          "velocity": 0.4015748031496063
        },
        {
          "duration": 0.081395348837205,
          "durationTicks": 7,
          "midi": 91,
          "name": "G6",
          "ticks": 10448,
          "time": 121.48837209302326,
          "velocity": 0.14960629921259844
        },
        {
          "duration": 0.023255813953497295,
          "durationTicks": 2,
          "midi": 37,
          "name": "C#2",
          "ticks": 10450,
          "time": 121.51162790697674,
          "velocity": 0.25196850393700787
        },
        {
          "duration": 0.034883720930224626,
          "durationTicks": 3,
          "midi": 38,
          "name": "D2",
          "ticks": 10454,
          "time": 121.55813953488372,
          "velocity": 0.30708661417322836
        },
        {
          "duration": 0.03488372093023884,
          "durationTicks": 3,
          "midi": 48,
          "name": "C3",
          "ticks": 10457,
          "time": 121.59302325581395,
          "velocity": 0.5275590551181102
        },
        {
          "duration": 0.22093023255813193,
          "durationTicks": 19,
          "midi": 84,
          "name": "C6",
          "ticks": 10458,
          "time": 121.6046511627907,
          "velocity": 0.2125984251968504
        },
        {
          "duration": 0.17441860465115155,
          "durationTicks": 15,
          "midi": 88,
          "name": "E6",
          "ticks": 10458,
          "time": 121.6046511627907,
          "velocity": 0.14173228346456693
        },
        {
          "duration": 0.418604651162795,
          "durationTicks": 36,
          "midi": 74,
          "name": "D5",
          "ticks": 10459,
          "time": 121.61627906976744,
          "velocity": 0.33070866141732286
        },
        {
          "duration": 0.2325581395348877,
          "durationTicks": 20,
          "midi": 62,
          "name": "D4",
          "ticks": 10460,
          "time": 121.62790697674419,
          "velocity": 0.4330708661417323
        },
        {
          "duration": 0.03488372093023884,
          "durationTicks": 3,
          "midi": 92,
          "name": "G#6",
          "ticks": 10460,
          "time": 121.62790697674419,
          "velocity": 0.09448818897637795
        },
        {
          "duration": 0.03488372093023884,
          "durationTicks": 3,
          "midi": 50,
          "name": "D3",
          "ticks": 10461,
          "time": 121.63953488372093,
          "velocity": 0.49606299212598426
        },
        {
          "duration": 0.09302325581396076,
          "durationTicks": 8,
          "midi": 79,
          "name": "G5",
          "ticks": 10462,
          "time": 121.65116279069767,
          "velocity": 0.12598425196850394
        },
        {
          "duration": 0.12790697674418539,
          "durationTicks": 11,
          "midi": 78,
          "name": "F#5",
          "ticks": 10464,
          "time": 121.67441860465117,
          "velocity": 0.13385826771653545
        },
        {
          "duration": 0.03488372093023884,
          "durationTicks": 3,
          "midi": 50,
          "name": "D3",
          "ticks": 10465,
          "time": 121.68604651162791,
          "velocity": 0.48031496062992124
        },
        {
          "duration": 0.11627906976744384,
          "durationTicks": 10,
          "midi": 67,
          "name": "G4",
          "ticks": 10466,
          "time": 121.69767441860465,
          "velocity": 0.14960629921259844
        },
        {
          "duration": 0.023255813953483084,
          "durationTicks": 2,
          "midi": 49,
          "name": "C#3",
          "ticks": 10468,
          "time": 121.72093023255815,
          "velocity": 0.4330708661417323
        },
        {
          "duration": 0.034883720930224626,
          "durationTicks": 3,
          "midi": 50,
          "name": "D3",
          "ticks": 10470,
          "time": 121.74418604651163,
          "velocity": 0.4330708661417323
        },
        {
          "duration": 0.023255813953483084,
          "durationTicks": 2,
          "midi": 45,
          "name": "A2",
          "ticks": 10471,
          "time": 121.75581395348837,
          "velocity": 0.3700787401574803
        },
        {
          "duration": 0.03488372093023884,
          "durationTicks": 3,
          "midi": 68,
          "name": "G#4",
          "ticks": 10477,
          "time": 121.82558139534883,
          "velocity": 0.4094488188976378
        },
        {
          "duration": 0.38372093023255616,
          "durationTicks": 33,
          "midi": 79,
          "name": "G5",
          "ticks": 10477,
          "time": 121.82558139534883,
          "velocity": 0.28346456692913385
        },
        {
          "duration": 0.023255813953497295,
          "durationTicks": 2,
          "midi": 60,
          "name": "C4",
          "ticks": 10478,
          "time": 121.83720930232558,
          "velocity": 0.28346456692913385
        },
        {
          "duration": 0.03488372093023884,
          "durationTicks": 3,
          "midi": 77,
          "name": "F5",
          "ticks": 10478,
          "time": 121.83720930232558,
          "velocity": 0.14173228346456693
        },
        {
          "duration": 0.2093023255814046,
          "durationTicks": 18,
          "midi": 83,
          "name": "B5",
          "ticks": 10478,
          "time": 121.83720930232558,
          "velocity": 0.2204724409448819
        },
        {
          "duration": 0.11627906976744384,
          "durationTicks": 10,
          "midi": 88,
          "name": "E6",
          "ticks": 10478,
          "time": 121.83720930232558,
          "velocity": 0.11023622047244094
        },
        {
          "duration": 0.011627906976741542,
          "durationTicks": 1,
          "midi": 47,
          "name": "B2",
          "ticks": 10479,
          "time": 121.84883720930233,
          "velocity": 0.5275590551181102
        },
        {
          "duration": 0.05813953488372192,
          "durationTicks": 5,
          "midi": 82,
          "name": "A#5",
          "ticks": 10479,
          "time": 121.84883720930233,
          "velocity": 0.09448818897637795
        },
        {
          "duration": 0.04651162790698038,
          "durationTicks": 4,
          "midi": 37,
          "name": "C#2",
          "ticks": 10480,
          "time": 121.86046511627907,
          "velocity": 0.4645669291338583
        },
        {
          "duration": 0.034883720930224626,
          "durationTicks": 3,
          "midi": 48,
          "name": "C3",
          "ticks": 10480,
          "time": 121.86046511627907,
          "velocity": 0.5039370078740157
        },
        {
          "duration": 0.06976744186046346,
          "durationTicks": 6,
          "midi": 55,
          "name": "G3",
          "ticks": 10480,
          "time": 121.86046511627907,
          "velocity": 0.3464566929133858
        },
        {
          "duration": 0.19767441860464885,
          "durationTicks": 17,
          "midi": 67,
          "name": "G4",
          "ticks": 10480,
          "time": 121.86046511627907,
          "velocity": 0.4566929133858268
        },
        {
          "duration": 0.2906976744185954,
          "durationTicks": 25,
          "midi": 93,
          "name": "A6",
          "ticks": 10480,
          "time": 121.86046511627907,
          "velocity": 0.1968503937007874
        },
        {
          "duration": 0.06976744186046346,
          "durationTicks": 6,
          "midi": 78,
          "name": "F#5",
          "ticks": 10481,
          "time": 121.87209302325581,
          "velocity": 0.13385826771653545
        },
        {
          "duration": 0.04651162790698038,
          "durationTicks": 4,
          "midi": 89,
          "name": "F6",
          "ticks": 10482,
          "time": 121.88372093023256,
          "velocity": 0.11023622047244094
        },
        {
          "duration": 0.023255813953497295,
          "durationTicks": 2,
          "midi": 47,
          "name": "B2",
          "ticks": 10483,
          "time": 121.8953488372093,
          "velocity": 0.4409448818897638
        },
        {
          "duration": 0.04651162790698038,
          "durationTicks": 4,
          "midi": 69,
          "name": "A4",
          "ticks": 10483,
          "time": 121.8953488372093,
          "velocity": 0.1732283464566929
        },
        {
          "duration": 0.04651162790696617,
          "durationTicks": 4,
          "midi": 36,
          "name": "C2",
          "ticks": 10484,
          "time": 121.90697674418605,
          "velocity": 0.3937007874015748
        },
        {
          "duration": 0.13953488372092693,
          "durationTicks": 12,
          "midi": 60,
          "name": "C4",
          "ticks": 10484,
          "time": 121.90697674418605,
          "velocity": 0.28346456692913385
        },
        {
          "duration": 0.04651162790696617,
          "durationTicks": 4,
          "midi": 48,
          "name": "C3",
          "ticks": 10485,
          "time": 121.9186046511628,
          "velocity": 0.4251968503937008
        },
        {
          "duration": 0.023255813953483084,
          "durationTicks": 2,
          "midi": 54,
          "name": "F#3",
          "ticks": 10486,
          "time": 121.93023255813954,
          "velocity": 0.4251968503937008
        },
        {
          "duration": 0.1046511627907023,
          "durationTicks": 9,
          "midi": 64,
          "name": "E4",
          "ticks": 10487,
          "time": 121.94186046511628,
          "velocity": 0.1732283464566929
        },
        {
          "duration": 0.03488372093023884,
          "durationTicks": 3,
          "midi": 37,
          "name": "C#2",
          "ticks": 10488,
          "time": 121.95348837209302,
          "velocity": 0.3937007874015748
        },
        {
          "duration": 0.023255813953497295,
          "durationTicks": 2,
          "midi": 55,
          "name": "G3",
          "ticks": 10488,
          "time": 121.95348837209302,
          "velocity": 0.4094488188976378
        },
        {
          "duration": 0.03488372093023884,
          "durationTicks": 3,
          "midi": 78,
          "name": "F#5",
          "ticks": 10488,
          "time": 121.95348837209302,
          "velocity": 0.07086614173228346
        },
        {
          "duration": 0.15116279069768268,
          "durationTicks": 13,
          "midi": 89,
          "name": "F6",
          "ticks": 10488,
          "time": 121.95348837209302,
          "velocity": 0.16535433070866143
        },
        {
          "duration": 0.06976744186046346,
          "durationTicks": 6,
          "midi": 48,
          "name": "C3",
          "ticks": 10490,
          "time": 121.97674418604652,
          "velocity": 0.3779527559055118
        },
        {
          "duration": 0.06976744186046346,
          "durationTicks": 6,
          "midi": 55,
          "name": "G3",
          "ticks": 10491,
          "time": 121.98837209302326,
          "velocity": 0.36220472440944884
        },
        {
          "duration": 0.1046511627907023,
          "durationTicks": 9,
          "midi": 72,
          "name": "C5",
          "ticks": 10497,
          "time": 122.05813953488372,
          "velocity": 0.15748031496062992
        },
        {
          "duration": 0.19767441860464885,
          "durationTicks": 17,
          "midi": 50,
          "name": "D3",
          "ticks": 10498,
          "time": 122.06976744186046,
          "velocity": 0.44881889763779526
        },
        {
          "duration": 0.023255813953483084,
          "durationTicks": 2,
          "midi": 67,
          "name": "G4",
          "ticks": 10498,
          "time": 122.06976744186046,
          "velocity": 0.25984251968503935
        },
        {
          "duration": 0.08139534883721922,
          "durationTicks": 7,
          "midi": 38,
          "name": "D2",
          "ticks": 10499,
          "time": 122.0813953488372,
          "velocity": 0.44881889763779526
        },
        {
          "duration": 0.023255813953497295,
          "durationTicks": 2,
          "midi": 56,
          "name": "G#3",
          "ticks": 10500,
          "time": 122.09302325581395,
          "velocity": 0.3700787401574803
        },
        {
          "duration": 0.03488372093023884,
          "durationTicks": 3,
          "midi": 69,
          "name": "A4",
          "ticks": 10500,
          "time": 122.09302325581395,
          "velocity": 0.14960629921259844
        },
        {
          "duration": 0.023255813953483084,
          "durationTicks": 2,
          "midi": 57,
          "name": "A3",
          "ticks": 10502,
          "time": 122.11627906976744,
          "velocity": 0.33858267716535434
        },
        {
          "duration": 0.023255813953483084,
          "durationTicks": 2,
          "midi": 67,
          "name": "G4",
          "ticks": 10502,
          "time": 122.11627906976744,
          "velocity": 0.2677165354330709
        },
        {
          "duration": 0.05813953488372192,
          "durationTicks": 5,
          "midi": 57,
          "name": "A3",
          "ticks": 10505,
          "time": 122.15116279069767,
          "velocity": 0.4645669291338583
        },
        {
          "duration": 0.023255813953483084,
          "durationTicks": 2,
          "midi": 39,
          "name": "D#2",
          "ticks": 10506,
          "time": 122.16279069767442,
          "velocity": 0.33858267716535434
        },
        {
          "duration": 0.38372093023255616,
          "durationTicks": 33,
          "midi": 66,
          "name": "F#4",
          "ticks": 10506,
          "time": 122.16279069767442,
          "velocity": 0.2440944881889764
        },
        {
          "duration": 0.2674418604651123,
          "durationTicks": 23,
          "midi": 85,
          "name": "C#6",
          "ticks": 10506,
          "time": 122.16279069767442,
          "velocity": 0.2047244094488189
        },
        {
          "duration": 0.10465116279068809,
          "durationTicks": 9,
          "midi": 72,
          "name": "C5",
          "ticks": 10507,
          "time": 122.17441860465117,
          "velocity": 0.1889763779527559
        },
        {
          "duration": 0.25581395348837077,
          "durationTicks": 22,
          "midi": 95,
          "name": "B6",
          "ticks": 10508,
          "time": 122.18604651162791,
          "velocity": 0.14173228346456693
        },
        {
          "duration": 0.023255813953497295,
          "durationTicks": 2,
          "midi": 36,
          "name": "C2",
          "ticks": 10509,
          "time": 122.19767441860465,
          "velocity": 0.2677165354330709
        },
        {
          "duration": 0.2906976744185954,
          "durationTicks": 25,
          "midi": 57,
          "name": "A3",
          "ticks": 10511,
          "time": 122.22093023255815,
          "velocity": 0.48031496062992124
        },
        {
          "duration": 0.22093023255813193,
          "durationTicks": 19,
          "midi": 50,
          "name": "D3",
          "ticks": 10517,
          "time": 122.29069767441861,
          "velocity": 0.47244094488188976
        },
        {
          "duration": 0.05813953488372192,
          "durationTicks": 5,
          "midi": 84,
          "name": "C6",
          "ticks": 10517,
          "time": 122.29069767441861,
          "velocity": 0.08661417322834646
        },
        {
          "duration": 0.034883720930224626,
          "durationTicks": 3,
          "midi": 39,
          "name": "D#2",
          "ticks": 10518,
          "time": 122.30232558139535,
          "velocity": 0.4645669291338583
        },
        {
          "duration": 0.2093023255813904,
          "durationTicks": 18,
          "midi": 72,
          "name": "C5",
          "ticks": 10519,
          "time": 122.31395348837209,
          "velocity": 0.11811023622047244
        },
        {
          "duration": 0.3953488372093119,
          "durationTicks": 34,
          "midi": 76,
          "name": "E5",
          "ticks": 10520,
          "time": 122.32558139534883,
          "velocity": 0.1968503937007874
        },
        {
          "duration": 0.03488372093023884,
          "durationTicks": 3,
          "midi": 91,
          "name": "G6",
          "ticks": 10520,
          "time": 122.32558139534883,
          "velocity": 0.11023622047244094
        },
        {
          "duration": 0.09302325581396076,
          "durationTicks": 8,
          "midi": 38,
          "name": "D2",
          "ticks": 10521,
          "time": 122.33720930232558,
          "velocity": 0.4251968503937008
        },
        {
          "duration": 0.023255813953483084,
          "durationTicks": 2,
          "midi": 37,
          "name": "C#2",
          "ticks": 10529,
          "time": 122.43023255813954,
          "velocity": 0.2677165354330709
        },
        {
          "duration": 0.05813953488372192,
          "durationTicks": 5,
          "midi": 38,
          "name": "D2",
          "ticks": 10531,
          "time": 122.45348837209302,
          "velocity": 0.30708661417322836
        },
        {
          "duration": 0.023255813953497295,
          "durationTicks": 2,
          "midi": 49,
          "name": "C#3",
          "ticks": 10536,
          "time": 122.51162790697674,
          "velocity": 0.5511811023622047
        },
        {
          "duration": 0.27906976744186807,
          "durationTicks": 24,
          "midi": 85,
          "name": "C#6",
          "ticks": 10536,
          "time": 122.51162790697674,
          "velocity": 0.2440944881889764
        },
        {
          "duration": 0.19767441860466306,
          "durationTicks": 17,
          "midi": 84,
          "name": "C6",
          "ticks": 10537,
          "time": 122.52325581395348,
          "velocity": 0.2125984251968504
        },
        {
          "duration": 0.011627906976741542,
          "durationTicks": 1,
          "midi": 48,
          "name": "C3",
          "ticks": 10538,
          "time": 122.53488372093024,
          "velocity": 0.5354330708661418
        },
        {
          "duration": 0.22093023255813193,
          "durationTicks": 19,
          "midi": 62,
          "name": "D4",
          "ticks": 10538,
          "time": 122.53488372093024,
          "velocity": 0.4251968503937008
        },
        {
          "duration": 0.034883720930224626,
          "durationTicks": 3,
          "midi": 92,
          "name": "G#6",
          "ticks": 10539,
          "time": 122.54651162790698,
          "velocity": 0.09448818897637795
        },
        {
          "duration": 0.081395348837205,
          "durationTicks": 7,
          "midi": 50,
          "name": "D3",
          "ticks": 10540,
          "time": 122.55813953488372,
          "velocity": 0.5196850393700787
        },
        {
          "duration": 0.06976744186047767,
          "durationTicks": 6,
          "midi": 79,
          "name": "G5",
          "ticks": 10543,
          "time": 122.59302325581395,
          "velocity": 0.11811023622047244
        },
        {
          "duration": 0.12790697674418539,
          "durationTicks": 11,
          "midi": 57,
          "name": "A3",
          "ticks": 10544,
          "time": 122.6046511627907,
          "velocity": 0.14173228346456693
        },
        {
          "duration": 0.1046511627907023,
          "durationTicks": 9,
          "midi": 67,
          "name": "G4",
          "ticks": 10545,
          "time": 122.61627906976744,
          "velocity": 0.14960629921259844
        },
        {
          "duration": 0.023255813953497295,
          "durationTicks": 2,
          "midi": 49,
          "name": "C#3",
          "ticks": 10547,
          "time": 122.63953488372093,
          "velocity": 0.4409448818897638
        },
        {
          "duration": 0.034883720930224626,
          "durationTicks": 3,
          "midi": 50,
          "name": "D3",
          "ticks": 10549,
          "time": 122.66279069767442,
          "velocity": 0.4409448818897638
        },
        {
          "duration": 0.023255813953483084,
          "durationTicks": 2,
          "midi": 45,
          "name": "A2",
          "ticks": 10550,
          "time": 122.67441860465117,
          "velocity": 0.3700787401574803
        },
        {
          "duration": 0.023255813953483084,
          "durationTicks": 2,
          "midi": 67,
          "name": "G4",
          "ticks": 10555,
          "time": 122.73255813953489,
          "velocity": 0.3937007874015748
        },
        {
          "duration": 0.32558139534883423,
          "durationTicks": 28,
          "midi": 83,
          "name": "B5",
          "ticks": 10555,
          "time": 122.73255813953489,
          "velocity": 0.2283464566929134
        },
        {
          "duration": 0.081395348837205,
          "durationTicks": 7,
          "midi": 88,
          "name": "E6",
          "ticks": 10555,
          "time": 122.73255813953489,
          "velocity": 0.1732283464566929
        },
        {
          "duration": 0.11627906976744384,
          "durationTicks": 10,
          "midi": 93,
          "name": "A6",
          "ticks": 10555,
          "time": 122.73255813953489,
          "velocity": 0.15748031496062992
        },
        {
          "duration": 0.023255813953483084,
          "durationTicks": 2,
          "midi": 47,
          "name": "B2",
          "ticks": 10556,
          "time": 122.74418604651163,
          "velocity": 0.5433070866141733
        },
        {
          "duration": 0.1046511627907023,
          "durationTicks": 9,
          "midi": 55,
          "name": "G3",
          "ticks": 10556,
          "time": 122.74418604651163,
          "velocity": 0.4330708661417323
        },
        {
          "duration": 0.05813953488372192,
          "durationTicks": 5,
          "midi": 78,
          "name": "F#5",
          "ticks": 10556,
          "time": 122.74418604651163,
          "velocity": 0.18110236220472442
        },
        {
          "duration": 0.023255813953483084,
          "durationTicks": 2,
          "midi": 60,
          "name": "C4",
          "ticks": 10557,
          "time": 122.75581395348837,
          "velocity": 0.30708661417322836
        },
        {
          "duration": 0.04651162790698038,
          "durationTicks": 4,
          "midi": 37,
          "name": "C#2",
          "ticks": 10558,
          "time": 122.76744186046511,
          "velocity": 0.4566929133858268
        },
        {
          "duration": 0.04651162790698038,
          "durationTicks": 4,
          "midi": 82,
          "name": "A#5",
          "ticks": 10558,
          "time": 122.76744186046511,
          "velocity": 0.08661417322834646
        },
        {
          "duration": 0.04651162790696617,
          "durationTicks": 4,
          "midi": 89,
          "name": "F6",
          "ticks": 10560,
          "time": 122.79069767441861,
          "velocity": 0.11023622047244094
        },
        {
          "duration": 0.04651162790698038,
          "durationTicks": 4,
          "midi": 48,
          "name": "C3",
          "ticks": 10561,
          "time": 122.80232558139535,
          "velocity": 0.4645669291338583
        },
        {
          "duration": 0.16279069767441,
          "durationTicks": 14,
          "midi": 64,
          "name": "E4",
          "ticks": 10561,
          "time": 122.80232558139535,
          "velocity": 0.2047244094488189
        },
        {
          "duration": 0.034883720930224626,
          "durationTicks": 3,
          "midi": 69,
          "name": "A4",
          "ticks": 10561,
          "time": 122.80232558139535,
          "velocity": 0.14960629921259844
        },
        {
          "duration": 0.04651162790698038,
          "durationTicks": 4,
          "midi": 36,
          "name": "C2",
          "ticks": 10562,
          "time": 122.81395348837209,
          "velocity": 0.3937007874015748
        },
        {
          "duration": 0.023255813953483084,
          "durationTicks": 2,
          "midi": 37,
          "name": "C#2",
          "ticks": 10566,
          "time": 122.86046511627907,
          "velocity": 0.3700787401574803
        },
        {
          "duration": 0.023255813953483084,
          "durationTicks": 2,
          "midi": 48,
          "name": "C3",
          "ticks": 10566,
          "time": 122.86046511627907,
          "velocity": 0.4094488188976378
        },
        {
          "duration": 0.034883720930224626,
          "durationTicks": 3,
          "midi": 55,
          "name": "G3",
          "ticks": 10566,
          "time": 122.86046511627907,
          "velocity": 0.3543307086614173
        },
        {
          "duration": 0.023255813953483084,
          "durationTicks": 2,
          "midi": 68,
          "name": "G#4",
          "ticks": 10566,
          "time": 122.86046511627907,
          "velocity": 0.3937007874015748
        },
        {
          "duration": 0.13953488372092693,
          "durationTicks": 12,
          "midi": 89,
          "name": "F6",
          "ticks": 10566,
          "time": 122.86046511627907,
          "velocity": 0.14173228346456693
        },
        {
          "duration": 0.09302325581396076,
          "durationTicks": 8,
          "midi": 67,
          "name": "G4",
          "ticks": 10568,
          "time": 122.88372093023256,
          "velocity": 0.3937007874015748
        },
        {
          "duration": 0.09302325581396076,
          "durationTicks": 8,
          "midi": 48,
          "name": "C3",
          "ticks": 10569,
          "time": 122.8953488372093,
          "velocity": 0.5039370078740157
        },
        {
          "duration": 0.06976744186046346,
          "durationTicks": 6,
          "midi": 55,
          "name": "G3",
          "ticks": 10570,
          "time": 122.90697674418605,
          "velocity": 0.29133858267716534
        },
        {
          "duration": 0.04651162790696617,
          "durationTicks": 4,
          "midi": 36,
          "name": "C2",
          "ticks": 10571,
          "time": 122.9186046511628,
          "velocity": 0.30708661417322836
        },
        {
          "duration": 0.04651162790696617,
          "durationTicks": 4,
          "midi": 70,
          "name": "A#4",
          "ticks": 10571,
          "time": 122.9186046511628,
          "velocity": 0.07086614173228346
        },
        {
          "duration": 0.09302325581396076,
          "durationTicks": 8,
          "midi": 93,
          "name": "A6",
          "ticks": 10575,
          "time": 122.96511627906976,
          "velocity": 0.18110236220472442
        },
        {
          "duration": 0.22093023255813193,
          "durationTicks": 19,
          "midi": 62,
          "name": "D4",
          "ticks": 10576,
          "time": 122.97674418604652,
          "velocity": 0.2677165354330709
        },
        {
          "duration": 0.23255813953487348,
          "durationTicks": 20,
          "midi": 72,
          "name": "C5",
          "ticks": 10576,
          "time": 122.97674418604652,
          "velocity": 0.1889763779527559
        },
        {
          "duration": 0.023255813953483084,
          "durationTicks": 2,
          "midi": 67,
          "name": "G4",
          "ticks": 10577,
          "time": 122.98837209302326,
          "velocity": 0.28346456692913385
        },
        {
          "duration": 0.023255813953483084,
          "durationTicks": 2,
          "midi": 38,
          "name": "D2",
          "ticks": 10578,
          "time": 123,
          "velocity": 0.4566929133858268
        },
        {
          "duration": 0.04651162790698038,
          "durationTicks": 4,
          "midi": 39,
          "name": "D#2",
          "ticks": 10580,
          "time": 123.02325581395348,
          "velocity": 0.4015748031496063
        },
        {
          "duration": 0.03488372093023884,
          "durationTicks": 3,
          "midi": 67,
          "name": "G4",
          "ticks": 10580,
          "time": 123.02325581395348,
          "velocity": 0.2677165354330709
        },
        {
          "duration": 0.05813953488372192,
          "durationTicks": 5,
          "midi": 76,
          "name": "E5",
          "ticks": 10580,
          "time": 123.02325581395348,
          "velocity": 0.07874015748031496
        },
        {
          "duration": 0.09302325581394655,
          "durationTicks": 8,
          "midi": 57,
          "name": "A3",
          "ticks": 10581,
          "time": 123.03488372093024,
          "velocity": 0.4566929133858268
        },
        {
          "duration": 0.04651162790698038,
          "durationTicks": 4,
          "midi": 38,
          "name": "D2",
          "ticks": 10584,
          "time": 123.06976744186046,
          "velocity": 0.36220472440944884
        },
        {
          "duration": 0.34883720930233153,
          "durationTicks": 30,
          "midi": 66,
          "name": "F#4",
          "ticks": 10585,
          "time": 123.0813953488372,
          "velocity": 0.2677165354330709
        },
        {
          "duration": 0.2906976744186096,
          "durationTicks": 25,
          "midi": 85,
          "name": "C#6",
          "ticks": 10585,
          "time": 123.0813953488372,
          "velocity": 0.2283464566929134
        },
        {
          "duration": 0.32558139534883423,
          "durationTicks": 28,
          "midi": 95,
          "name": "B6",
          "ticks": 10587,
          "time": 123.1046511627907,
          "velocity": 0.1732283464566929
        },
        {
          "duration": 0.023255813953483084,
          "durationTicks": 2,
          "midi": 36,
          "name": "C2",
          "ticks": 10588,
          "time": 123.11627906976744,
          "velocity": 0.25984251968503935
        },
        {
          "duration": 0.05813953488372192,
          "durationTicks": 5,
          "midi": 57,
          "name": "A3",
          "ticks": 10590,
          "time": 123.13953488372093,
          "velocity": 0.3700787401574803
        },
        {
          "duration": 0.023255813953497295,
          "durationTicks": 2,
          "midi": 39,
          "name": "D#2",
          "ticks": 10591,
          "time": 123.15116279069767,
          "velocity": 0.2992125984251969
        },
        {
          "duration": 0.023255813953483084,
          "durationTicks": 2,
          "midi": 38,
          "name": "D2",
          "ticks": 10593,
          "time": 123.17441860465117,
          "velocity": 0.25984251968503935
        },
        {
          "duration": 0.19767441860464885,
          "durationTicks": 17,
          "midi": 80,
          "name": "G#5",
          "ticks": 10595,
          "time": 123.19767441860465,
          "velocity": 0.16535433070866143
        },
        {
          "duration": 0.09302325581396076,
          "durationTicks": 8,
          "midi": 90,
          "name": "F#6",
          "ticks": 10595,
          "time": 123.19767441860465,
          "velocity": 0.11811023622047244
        },
        {
          "duration": 0.2093023255814046,
          "durationTicks": 18,
          "midi": 57,
          "name": "A3",
          "ticks": 10596,
          "time": 123.20930232558139,
          "velocity": 0.4330708661417323
        },
        {
          "duration": 0.2093023255814046,
          "durationTicks": 18,
          "midi": 62,
          "name": "D4",
          "ticks": 10596,
          "time": 123.20930232558139,
          "velocity": 0.31496062992125984
        },
        {
          "duration": 0.08139534883721922,
          "durationTicks": 7,
          "midi": 88,
          "name": "E6",
          "ticks": 10596,
          "time": 123.20930232558139,
          "velocity": 0.08661417322834646
        },
        {
          "duration": 0.2093023255813904,
          "durationTicks": 18,
          "midi": 50,
          "name": "D3",
          "ticks": 10597,
          "time": 123.22093023255815,
          "velocity": 0.5039370078740157
        },
        {
          "duration": 0.04651162790696617,
          "durationTicks": 4,
          "midi": 84,
          "name": "C6",
          "ticks": 10597,
          "time": 123.22093023255815,
          "velocity": 0.09448818897637795
        },
        {
          "duration": 0.034883720930224626,
          "durationTicks": 3,
          "midi": 39,
          "name": "D#2",
          "ticks": 10598,
          "time": 123.23255813953489,
          "velocity": 0.4881889763779528
        },
        {
          "duration": 0.36046511627905886,
          "durationTicks": 31,
          "midi": 72,
          "name": "C5",
          "ticks": 10598,
          "time": 123.23255813953489,
          "velocity": 0.5118110236220472
        },
        {
          "duration": 0.03488372093023884,
          "durationTicks": 3,
          "midi": 91,
          "name": "G6",
          "ticks": 10600,
          "time": 123.25581395348837,
          "velocity": 0.10236220472440945
        },
        {
          "duration": 0.09302325581396076,
          "durationTicks": 8,
          "midi": 38,
          "name": "D2",
          "ticks": 10601,
          "time": 123.26744186046511,
          "velocity": 0.4251968503937008
        },
        {
          "duration": 0.16279069767442422,
          "durationTicks": 14,
          "midi": 76,
          "name": "E5",
          "ticks": 10602,
          "time": 123.27906976744185,
          "velocity": 0.1889763779527559
        },
        {
          "duration": 0.04651162790698038,
          "durationTicks": 4,
          "midi": 38,
          "name": "D2",
          "ticks": 10610,
          "time": 123.37209302325581,
          "velocity": 0.29133858267716534
        },
        {
          "duration": 0.12790697674418539,
          "durationTicks": 11,
          "midi": 74,
          "name": "D5",
          "ticks": 10614,
          "time": 123.4186046511628,
          "velocity": 0.3464566929133858
        },
        {
          "duration": 0.13953488372092693,
          "durationTicks": 12,
          "midi": 79,
          "name": "G5",
          "ticks": 10614,
          "time": 123.4186046511628,
          "velocity": 0.2283464566929134
        },
        {
          "duration": 0.36046511627905886,
          "durationTicks": 31,
          "midi": 88,
          "name": "E6",
          "ticks": 10614,
          "time": 123.4186046511628,
          "velocity": 0.2125984251968504
        },
        {
          "duration": 0.023255813953483084,
          "durationTicks": 2,
          "midi": 44,
          "name": "G#2",
          "ticks": 10615,
          "time": 123.43023255813954,
          "velocity": 0.47244094488188976
        },
        {
          "duration": 0.13953488372092693,
          "durationTicks": 12,
          "midi": 60,
          "name": "C4",
          "ticks": 10615,
          "time": 123.43023255813954,
          "velocity": 0.5275590551181102
        },
        {
          "duration": 0.19767441860464885,
          "durationTicks": 17,
          "midi": 83,
          "name": "B5",
          "ticks": 10615,
          "time": 123.43023255813954,
          "velocity": 0.30708661417322836
        },
        {
          "duration": 0.1860465116279073,
          "durationTicks": 16,
          "midi": 89,
          "name": "F6",
          "ticks": 10615,
          "time": 123.43023255813954,
          "velocity": 0.18110236220472442
        },
        {
          "duration": 0.06976744186046346,
          "durationTicks": 6,
          "midi": 90,
          "name": "F#6",
          "ticks": 10615,
          "time": 123.43023255813954,
          "velocity": 0.12598425196850394
        },
        {
          "duration": 0.081395348837205,
          "durationTicks": 7,
          "midi": 94,
          "name": "A#6",
          "ticks": 10615,
          "time": 123.43023255813954,
          "velocity": 0.07874015748031496
        },
        {
          "duration": 0.023255813953483084,
          "durationTicks": 2,
          "midi": 54,
          "name": "F#3",
          "ticks": 10616,
          "time": 123.44186046511628,
          "velocity": 0.4409448818897638
        },
        {
          "duration": 0.1046511627907023,
          "durationTicks": 9,
          "midi": 77,
          "name": "F5",
          "ticks": 10616,
          "time": 123.44186046511628,
          "velocity": 0.2204724409448819
        },
        {
          "duration": 0.04651162790698038,
          "durationTicks": 4,
          "midi": 43,
          "name": "G2",
          "ticks": 10617,
          "time": 123.45348837209302,
          "velocity": 0.4330708661417323
        },
        {
          "duration": 0.11627906976744384,
          "durationTicks": 10,
          "midi": 67,
          "name": "G4",
          "ticks": 10617,
          "time": 123.45348837209302,
          "velocity": 0.2047244094488189
        },
        {
          "duration": 0.1046511627907023,
          "durationTicks": 9,
          "midi": 85,
          "name": "C#6",
          "ticks": 10617,
          "time": 123.45348837209302,
          "velocity": 0.2047244094488189
        },
        {
          "duration": 0.04651162790698038,
          "durationTicks": 4,
          "midi": 98,
          "name": "D7",
          "ticks": 10617,
          "time": 123.45348837209302,
          "velocity": 0.10236220472440945
        },
        {
          "duration": 0.04651162790698038,
          "durationTicks": 4,
          "midi": 43,
          "name": "G2",
          "ticks": 10622,
          "time": 123.51162790697674,
          "velocity": 0.3779527559055118
        },
        {
          "duration": 0.05813953488372192,
          "durationTicks": 5,
          "midi": 90,
          "name": "F#6",
          "ticks": 10625,
          "time": 123.54651162790698,
          "velocity": 0.16535433070866143
        },
        {
          "duration": 0.034883720930224626,
          "durationTicks": 3,
          "midi": 78,
          "name": "F#5",
          "ticks": 10626,
          "time": 123.55813953488372,
          "velocity": 0.10236220472440945
        },
        {
          "duration": 0.11627906976744384,
          "durationTicks": 10,
          "midi": 82,
          "name": "A#5",
          "ticks": 10626,
          "time": 123.55813953488372,
          "velocity": 0.2677165354330709
        },
        {
          "duration": 0.13953488372092693,
          "durationTicks": 12,
          "midi": 87,
          "name": "D#6",
          "ticks": 10626,
          "time": 123.55813953488372,
          "velocity": 0.1732283464566929
        },
        {
          "duration": 0.13953488372092693,
          "durationTicks": 12,
          "midi": 97,
          "name": "C#7",
          "ticks": 10626,
          "time": 123.55813953488372,
          "velocity": 0.14173228346456693
        },
        {
          "duration": 0.023255813953483084,
          "durationTicks": 2,
          "midi": 41,
          "name": "F2",
          "ticks": 10627,
          "time": 123.56976744186046,
          "velocity": 0.4251968503937008
        },
        {
          "duration": 0.023255813953483084,
          "durationTicks": 2,
          "midi": 59,
          "name": "B3",
          "ticks": 10627,
          "time": 123.56976744186046,
          "velocity": 0.4330708661417323
        },
        {
          "duration": 0.081395348837205,
          "durationTicks": 7,
          "midi": 66,
          "name": "F#4",
          "ticks": 10627,
          "time": 123.56976744186046,
          "velocity": 0.23622047244094488
        },
        {
          "duration": 0.09302325581396076,
          "durationTicks": 8,
          "midi": 76,
          "name": "E5",
          "ticks": 10627,
          "time": 123.56976744186046,
          "velocity": 0.1968503937007874
        },
        {
          "duration": 0.09302325581396076,
          "durationTicks": 8,
          "midi": 80,
          "name": "G#5",
          "ticks": 10627,
          "time": 123.56976744186046,
          "velocity": 0.12598425196850394
        },
        {
          "duration": 0.081395348837205,
          "durationTicks": 7,
          "midi": 92,
          "name": "G#6",
          "ticks": 10627,
          "time": 123.56976744186046,
          "velocity": 0.12598425196850394
        },
        {
          "duration": 0.08139534883721922,
          "durationTicks": 7,
          "midi": 71,
          "name": "B4",
          "ticks": 10629,
          "time": 123.59302325581395,
          "velocity": 0.33858267716535434
        },
        {
          "duration": 0.1046511627907023,
          "durationTicks": 9,
          "midi": 73,
          "name": "C#5",
          "ticks": 10629,
          "time": 123.59302325581395,
          "velocity": 0.30708661417322836
        },
        {
          "duration": 0.04651162790696617,
          "durationTicks": 4,
          "midi": 54,
          "name": "F#3",
          "ticks": 10630,
          "time": 123.6046511627907,
          "velocity": 0.4015748031496063
        },
        {
          "duration": 0.034883720930224626,
          "durationTicks": 3,
          "midi": 60,
          "name": "C4",
          "ticks": 10630,
          "time": 123.6046511627907,
          "velocity": 0.3700787401574803
        },
        {
          "duration": 0.04651162790698038,
          "durationTicks": 4,
          "midi": 42,
          "name": "F#2",
          "ticks": 10631,
          "time": 123.61627906976744,
          "velocity": 0.4645669291338583
        },
        {
          "duration": 0.034883720930224626,
          "durationTicks": 3,
          "midi": 84,
          "name": "C6",
          "ticks": 10631,
          "time": 123.61627906976744,
          "velocity": 0.2047244094488189
        },
        {
          "duration": 0.023255813953497295,
          "durationTicks": 2,
          "midi": 59,
          "name": "B3",
          "ticks": 10633,
          "time": 123.63953488372093,
          "velocity": 0.4330708661417323
        },
        {
          "duration": 0.03488372093023884,
          "durationTicks": 3,
          "midi": 89,
          "name": "F6",
          "ticks": 10633,
          "time": 123.63953488372093,
          "velocity": 0.07086614173228346
        },
        {
          "duration": 0.13953488372094114,
          "durationTicks": 12,
          "midi": 69,
          "name": "A4",
          "ticks": 10634,
          "time": 123.65116279069767,
          "velocity": 0.44881889763779526
        },
        {
          "duration": 0.04651162790696617,
          "durationTicks": 4,
          "midi": 41,
          "name": "F2",
          "ticks": 10635,
          "time": 123.66279069767442,
          "velocity": 0.49606299212598426
        },
        {
          "duration": 0.023255813953483084,
          "durationTicks": 2,
          "midi": 58,
          "name": "A#3",
          "ticks": 10635,
          "time": 123.66279069767442,
          "velocity": 0.4566929133858268
        },
        {
          "duration": 0.12790697674418539,
          "durationTicks": 11,
          "midi": 64,
          "name": "E4",
          "ticks": 10635,
          "time": 123.66279069767442,
          "velocity": 0.25984251968503935
        },
        {
          "duration": 0.11627906976742963,
          "durationTicks": 10,
          "midi": 78,
          "name": "F#5",
          "ticks": 10635,
          "time": 123.66279069767442,
          "velocity": 0.08661417322834646
        },
        {
          "duration": 0.05813953488372192,
          "durationTicks": 5,
          "midi": 86,
          "name": "D6",
          "ticks": 10635,
          "time": 123.66279069767442,
          "velocity": 0.07874015748031496
        },
        {
          "duration": 0.05813953488372192,
          "durationTicks": 5,
          "midi": 52,
          "name": "E3",
          "ticks": 10636,
          "time": 123.67441860465117,
          "velocity": 0.4330708661417323
        },
        {
          "duration": 0.09302325581394655,
          "durationTicks": 8,
          "midi": 91,
          "name": "G6",
          "ticks": 10636,
          "time": 123.67441860465117,
          "velocity": 0.11023622047244094
        },
        {
          "duration": 0.12790697674418539,
          "durationTicks": 11,
          "midi": 71,
          "name": "B4",
          "ticks": 10637,
          "time": 123.68604651162791,
          "velocity": 0.2992125984251969
        },
        {
          "duration": 0.03488372093023884,
          "durationTicks": 3,
          "midi": 92,
          "name": "G#6",
          "ticks": 10638,
          "time": 123.69767441860465,
          "velocity": 0.09448818897637795
        },
        {
          "duration": 0.08139534883721922,
          "durationTicks": 7,
          "midi": 40,
          "name": "E2",
          "ticks": 10639,
          "time": 123.70930232558139,
          "velocity": 0.4566929133858268
        },
        {
          "duration": 0.023255813953497295,
          "durationTicks": 2,
          "midi": 59,
          "name": "B3",
          "ticks": 10639,
          "time": 123.70930232558139,
          "velocity": 0.33070866141732286
        },
        {
          "duration": 0.03488372093023884,
          "durationTicks": 3,
          "midi": 73,
          "name": "C#5",
          "ticks": 10639,
          "time": 123.70930232558139,
          "velocity": 0.18110236220472442
        },
        {
          "duration": 0.023255813953483084,
          "durationTicks": 2,
          "midi": 58,
          "name": "A#3",
          "ticks": 10641,
          "time": 123.73255813953489,
          "velocity": 0.3700787401574803
        },
        {
          "duration": 0.03488372093023884,
          "durationTicks": 3,
          "midi": 55,
          "name": "G3",
          "ticks": 10645,
          "time": 123.77906976744185,
          "velocity": 0.4330708661417323
        },
        {
          "duration": 0.38372093023257037,
          "durationTicks": 33,
          "midi": 79,
          "name": "G5",
          "ticks": 10645,
          "time": 123.77906976744185,
          "velocity": 0.3228346456692913
        },
        {
          "duration": 0.04651162790696617,
          "durationTicks": 4,
          "midi": 90,
          "name": "F#6",
          "ticks": 10646,
          "time": 123.79069767441861,
          "velocity": 0.08661417322834646
        },
        {
          "duration": 0.32558139534883423,
          "durationTicks": 28,
          "midi": 62,
          "name": "D4",
          "ticks": 10647,
          "time": 123.80232558139535,
          "velocity": 0.33070866141732286
        },
        {
          "duration": 0.05813953488372192,
          "durationTicks": 5,
          "midi": 39,
          "name": "D#2",
          "ticks": 10648,
          "time": 123.81395348837209,
          "velocity": 0.47244094488188976
        },
        {
          "duration": 0.22093023255814614,
          "durationTicks": 19,
          "midi": 89,
          "name": "F6",
          "ticks": 10648,
          "time": 123.81395348837209,
          "velocity": 0.14960629921259844
        },
        {
          "duration": 0.30232558139535115,
          "durationTicks": 26,
          "midi": 50,
          "name": "D3",
          "ticks": 10649,
          "time": 123.82558139534883,
          "velocity": 0.5118110236220472
        },
        {
          "duration": 0.05813953488372192,
          "durationTicks": 5,
          "midi": 86,
          "name": "D6",
          "ticks": 10650,
          "time": 123.83720930232558,
          "velocity": 0.08661417322834646
        },
        {
          "duration": 0.27906976744185386,
          "durationTicks": 24,
          "midi": 72,
          "name": "C5",
          "ticks": 10651,
          "time": 123.84883720930233,
          "velocity": 0.11811023622047244
        },
        {
          "duration": 0.03488372093023884,
          "durationTicks": 3,
          "midi": 38,
          "name": "D2",
          "ticks": 10653,
          "time": 123.87209302325581,
          "velocity": 0.4330708661417323
        },
        {
          "duration": 0.03488372093023884,
          "durationTicks": 3,
          "midi": 56,
          "name": "G#3",
          "ticks": 10653,
          "time": 123.87209302325581,
          "velocity": 0.3858267716535433
        },
        {
          "duration": 0.16279069767442422,
          "durationTicks": 14,
          "midi": 76,
          "name": "E5",
          "ticks": 10655,
          "time": 123.8953488372093,
          "velocity": 0.08661417322834646
        },
        {
          "duration": 0.1046511627907023,
          "durationTicks": 9,
          "midi": 85,
          "name": "C#6",
          "ticks": 10655,
          "time": 123.8953488372093,
          "velocity": 0.11811023622047244
        },
        {
          "duration": 0.09302325581396076,
          "durationTicks": 8,
          "midi": 90,
          "name": "F#6",
          "ticks": 10655,
          "time": 123.8953488372093,
          "velocity": 0.10236220472440945
        },
        {
          "duration": 0.034883720930224626,
          "durationTicks": 3,
          "midi": 84,
          "name": "C6",
          "ticks": 10656,
          "time": 123.90697674418605,
          "velocity": 0.12598425196850394
        },
        {
          "duration": 0.19767441860464885,
          "durationTicks": 17,
          "midi": 67,
          "name": "G4",
          "ticks": 10657,
          "time": 123.9186046511628,
          "velocity": 0.4015748031496063
        },
        {
          "duration": 0.034883720930224626,
          "durationTicks": 3,
          "midi": 39,
          "name": "D#2",
          "ticks": 10658,
          "time": 123.93023255813954,
          "velocity": 0.41732283464566927
        },
        {
          "duration": 0.13953488372092693,
          "durationTicks": 12,
          "midi": 86,
          "name": "D6",
          "ticks": 10658,
          "time": 123.93023255813954,
          "velocity": 0.10236220472440945
        },
        {
          "duration": 0.03488372093023884,
          "durationTicks": 3,
          "midi": 38,
          "name": "D2",
          "ticks": 10661,
          "time": 123.96511627906976,
          "velocity": 0.36220472440944884
        },
        {
          "duration": 0.023255813953483084,
          "durationTicks": 2,
          "midi": 56,
          "name": "G#3",
          "ticks": 10663,
          "time": 123.98837209302326,
          "velocity": 0.3464566929133858
        },
        {
          "duration": 0.04651162790698038,
          "durationTicks": 4,
          "midi": 38,
          "name": "D2",
          "ticks": 10665,
          "time": 124.01162790697674,
          "velocity": 0.28346456692913385
        },
        {
          "duration": 0.023255813953483084,
          "durationTicks": 2,
          "midi": 57,
          "name": "A3",
          "ticks": 10669,
          "time": 124.05813953488372,
          "velocity": 0.2677165354330709
        },
        {
          "duration": 0.023255813953497295,
          "durationTicks": 2,
          "midi": 38,
          "name": "D2",
          "ticks": 10671,
          "time": 124.0813953488372,
          "velocity": 0.25984251968503935
        },
        {
          "duration": 0.4767441860465027,
          "durationTicks": 41,
          "midi": 69,
          "name": "A4",
          "ticks": 10673,
          "time": 124.1046511627907,
          "velocity": 0.4409448818897638
        },
        {
          "duration": 0.081395348837205,
          "durationTicks": 7,
          "midi": 93,
          "name": "A6",
          "ticks": 10673,
          "time": 124.1046511627907,
          "velocity": 0.12598425196850394
        },
        {
          "duration": 0.034883720930224626,
          "durationTicks": 3,
          "midi": 56,
          "name": "G#3",
          "ticks": 10674,
          "time": 124.11627906976744,
          "velocity": 0.4566929133858268
        },
        {
          "duration": 0.12790697674418539,
          "durationTicks": 11,
          "midi": 66,
          "name": "F#4",
          "ticks": 10674,
          "time": 124.11627906976744,
          "velocity": 0.25984251968503935
        },
        {
          "duration": 0.5,
          "durationTicks": 43,
          "midi": 85,
          "name": "C#6",
          "ticks": 10675,
          "time": 124.12790697674419,
          "velocity": 0.23622047244094488
        },
        {
          "duration": 0.2093023255814046,
          "durationTicks": 18,
          "midi": 50,
          "name": "D3",
          "ticks": 10676,
          "time": 124.13953488372093,
          "velocity": 0.5275590551181102
        },
        {
          "duration": 0.05813953488372192,
          "durationTicks": 5,
          "midi": 84,
          "name": "C6",
          "ticks": 10676,
          "time": 124.13953488372093,
          "velocity": 0.08661417322834646
        },
        {
          "duration": 0.03488372093023884,
          "durationTicks": 3,
          "midi": 39,
          "name": "D#2",
          "ticks": 10677,
          "time": 124.15116279069767,
          "velocity": 0.4645669291338583
        },
        {
          "duration": 0.06976744186047767,
          "durationTicks": 6,
          "midi": 57,
          "name": "A3",
          "ticks": 10677,
          "time": 124.15116279069767,
          "velocity": 0.29133858267716534
        },
        {
          "duration": 0.19767441860466306,
          "durationTicks": 17,
          "midi": 72,
          "name": "C5",
          "ticks": 10677,
          "time": 124.15116279069767,
          "velocity": 0.1889763779527559
        },
        {
          "duration": 0.06976744186046346,
          "durationTicks": 6,
          "midi": 76,
          "name": "E5",
          "ticks": 10679,
          "time": 124.17441860465117,
          "velocity": 0.09448818897637795
        },
        {
          "duration": 0.04651162790698038,
          "durationTicks": 4,
          "midi": 38,
          "name": "D2",
          "ticks": 10680,
          "time": 124.18604651162791,
          "velocity": 0.41732283464566927
        },
        {
          "duration": 0.034883720930224626,
          "durationTicks": 3,
          "midi": 56,
          "name": "G#3",
          "ticks": 10683,
          "time": 124.22093023255815,
          "velocity": 0.3937007874015748
        },
        {
          "duration": 0.13953488372092693,
          "durationTicks": 12,
          "midi": 80,
          "name": "G#5",
          "ticks": 10684,
          "time": 124.23255813953489,
          "velocity": 0.18110236220472442
        },
        {
          "duration": 0.12790697674418539,
          "durationTicks": 11,
          "midi": 82,
          "name": "A#5",
          "ticks": 10684,
          "time": 124.23255813953489,
          "velocity": 0.11023622047244094
        },
        {
          "duration": 0.081395348837205,
          "durationTicks": 7,
          "midi": 90,
          "name": "F#6",
          "ticks": 10684,
          "time": 124.23255813953489,
          "velocity": 0.12598425196850394
        },
        {
          "duration": 0.09302325581394655,
          "durationTicks": 8,
          "midi": 91,
          "name": "G6",
          "ticks": 10684,
          "time": 124.23255813953489,
          "velocity": 0.11811023622047244
        },
        {
          "duration": 0.034883720930224626,
          "durationTicks": 3,
          "midi": 40,
          "name": "E2",
          "ticks": 10685,
          "time": 124.24418604651163,
          "velocity": 0.48031496062992124
        },
        {
          "duration": 0.034883720930224626,
          "durationTicks": 3,
          "midi": 78,
          "name": "F#5",
          "ticks": 10685,
          "time": 124.24418604651163,
          "velocity": 0.07086614173228346
        },
        {
          "duration": 0.09302325581394655,
          "durationTicks": 8,
          "midi": 88,
          "name": "E6",
          "ticks": 10685,
          "time": 124.24418604651163,
          "velocity": 0.07874015748031496
        },
        {
          "duration": 0.09302325581396076,
          "durationTicks": 8,
          "midi": 57,
          "name": "A3",
          "ticks": 10686,
          "time": 124.25581395348837,
          "velocity": 0.3700787401574803
        },
        {
          "duration": 0.023255813953497295,
          "durationTicks": 2,
          "midi": 39,
          "name": "D#2",
          "ticks": 10688,
          "time": 124.27906976744185,
          "velocity": 0.3779527559055118
        },
        {
          "duration": 0.06976744186047767,
          "durationTicks": 6,
          "midi": 66,
          "name": "F#4",
          "ticks": 10688,
          "time": 124.27906976744185,
          "velocity": 0.11811023622047244
        },
        {
          "duration": 0.13953488372092693,
          "durationTicks": 12,
          "midi": 76,
          "name": "E5",
          "ticks": 10689,
          "time": 124.29069767441861,
          "velocity": 0.09448818897637795
        },
        {
          "duration": 0.04651162790698038,
          "durationTicks": 4,
          "midi": 38,
          "name": "D2",
          "ticks": 10690,
          "time": 124.30232558139535,
          "velocity": 0.33858267716535434
        },
        {
          "duration": 0.011627906976741542,
          "durationTicks": 1,
          "midi": 48,
          "name": "C3",
          "ticks": 10696,
          "time": 124.37209302325581,
          "velocity": 0.5196850393700787
        },
        {
          "duration": 0.5348837209302388,
          "durationTicks": 46,
          "midi": 74,
          "name": "D5",
          "ticks": 10696,
          "time": 124.37209302325581,
          "velocity": 0.33070866141732286
        },
        {
          "duration": 0.1860465116279073,
          "durationTicks": 16,
          "midi": 78,
          "name": "F#5",
          "ticks": 10696,
          "time": 124.37209302325581,
          "velocity": 0.2125984251968504
        },
        {
          "duration": 0.2325581395348877,
          "durationTicks": 20,
          "midi": 62,
          "name": "D4",
          "ticks": 10697,
          "time": 124.38372093023256,
          "velocity": 0.4409448818897638
        },
        {
          "duration": 0.03488372093023884,
          "durationTicks": 3,
          "midi": 92,
          "name": "G#6",
          "ticks": 10697,
          "time": 124.38372093023256,
          "velocity": 0.10236220472440945
        },
        {
          "duration": 0.023255813953497295,
          "durationTicks": 2,
          "midi": 51,
          "name": "D#3",
          "ticks": 10698,
          "time": 124.3953488372093,
          "velocity": 0.47244094488188976
        },
        {
          "duration": 0.17441860465116577,
          "durationTicks": 15,
          "midi": 57,
          "name": "A3",
          "ticks": 10698,
          "time": 124.3953488372093,
          "velocity": 0.14173228346456693
        },
        {
          "duration": 0.16279069767442422,
          "durationTicks": 14,
          "midi": 84,
          "name": "C6",
          "ticks": 10698,
          "time": 124.3953488372093,
          "velocity": 0.18110236220472442
        },
        {
          "duration": 0.06976744186046346,
          "durationTicks": 6,
          "midi": 79,
          "name": "G5",
          "ticks": 10701,
          "time": 124.43023255813954,
          "velocity": 0.12598425196850394
        },
        {
          "duration": 0.023255813953483084,
          "durationTicks": 2,
          "midi": 50,
          "name": "D3",
          "ticks": 10702,
          "time": 124.44186046511628,
          "velocity": 0.4645669291338583
        },
        {
          "duration": 0.023255813953483084,
          "durationTicks": 2,
          "midi": 49,
          "name": "C#3",
          "ticks": 10705,
          "time": 124.47674418604652,
          "velocity": 0.41732283464566927
        },
        {
          "duration": 0.04651162790698038,
          "durationTicks": 4,
          "midi": 67,
          "name": "G4",
          "ticks": 10706,
          "time": 124.48837209302326,
          "velocity": 0.14173228346456693
        },
        {
          "duration": 0.023255813953483084,
          "durationTicks": 2,
          "midi": 50,
          "name": "D3",
          "ticks": 10707,
          "time": 124.5,
          "velocity": 0.4251968503937008
        },
        {
          "duration": 0.023255813953497295,
          "durationTicks": 2,
          "midi": 45,
          "name": "A2",
          "ticks": 10708,
          "time": 124.51162790697674,
          "velocity": 0.3700787401574803
        },
        {
          "duration": 0.27906976744185386,
          "durationTicks": 24,
          "midi": 83,
          "name": "B5",
          "ticks": 10712,
          "time": 124.55813953488372,
          "velocity": 0.2047244094488189
        },
        {
          "duration": 0.023255813953483084,
          "durationTicks": 2,
          "midi": 45,
          "name": "A2",
          "ticks": 10713,
          "time": 124.56976744186046,
          "velocity": 0.5433070866141733
        },
        {
          "duration": 0.023255813953483084,
          "durationTicks": 2,
          "midi": 67,
          "name": "G4",
          "ticks": 10713,
          "time": 124.56976744186046,
          "velocity": 0.3937007874015748
        },
        {
          "duration": 0.09302325581396076,
          "durationTicks": 8,
          "midi": 88,
          "name": "E6",
          "ticks": 10713,
          "time": 124.56976744186046,
          "velocity": 0.1732283464566929
        },
        {
          "duration": 0.11627906976744384,
          "durationTicks": 10,
          "midi": 55,
          "name": "G3",
          "ticks": 10714,
          "time": 124.5813953488372,
          "velocity": 0.4330708661417323
        },
        {
          "duration": 0.05813953488372192,
          "durationTicks": 5,
          "midi": 78,
          "name": "F#5",
          "ticks": 10714,
          "time": 124.5813953488372,
          "velocity": 0.18110236220472442
        },
        {
          "duration": 0.011627906976755753,
          "durationTicks": 1,
          "midi": 47,
          "name": "B2",
          "ticks": 10715,
          "time": 124.59302325581395,
          "velocity": 0.5354330708661418
        },
        {
          "duration": 0.023255813953497295,
          "durationTicks": 2,
          "midi": 60,
          "name": "C4",
          "ticks": 10715,
          "time": 124.59302325581395,
          "velocity": 0.30708661417322836
        },
        {
          "duration": 0.04651162790696617,
          "durationTicks": 4,
          "midi": 37,
          "name": "C#2",
          "ticks": 10716,
          "time": 124.6046511627907,
          "velocity": 0.4645669291338583
        },
        {
          "duration": 0.24418604651162923,
          "durationTicks": 21,
          "midi": 67,
          "name": "G4",
          "ticks": 10716,
          "time": 124.6046511627907,
          "velocity": 0.4645669291338583
        },
        {
          "duration": 0.04651162790696617,
          "durationTicks": 4,
          "midi": 82,
          "name": "A#5",
          "ticks": 10716,
          "time": 124.6046511627907,
          "velocity": 0.09448818897637795
        },
        {
          "duration": 0.04651162790698038,
          "durationTicks": 4,
          "midi": 89,
          "name": "F6",
          "ticks": 10718,
          "time": 124.62790697674419,
          "velocity": 0.11811023622047244
        },
        {
          "duration": 0.04651162790698038,
          "durationTicks": 4,
          "midi": 48,
          "name": "C3",
          "ticks": 10719,
          "time": 124.63953488372093,
          "velocity": 0.4566929133858268
        },
        {
          "duration": 0.15116279069768268,
          "durationTicks": 13,
          "midi": 64,
          "name": "E4",
          "ticks": 10719,
          "time": 124.63953488372093,
          "velocity": 0.2047244094488189
        },
        {
          "duration": 0.03488372093023884,
          "durationTicks": 3,
          "midi": 69,
          "name": "A4",
          "ticks": 10719,
          "time": 124.63953488372093,
          "velocity": 0.14960629921259844
        },
        {
          "duration": 0.04651162790698038,
          "durationTicks": 4,
          "midi": 36,
          "name": "C2",
          "ticks": 10720,
          "time": 124.65116279069767,
          "velocity": 0.3937007874015748
        },
        {
          "duration": 0.05813953488372192,
          "durationTicks": 5,
          "midi": 78,
          "name": "F#5",
          "ticks": 10721,
          "time": 124.66279069767442,
          "velocity": 0.10236220472440945
        },
        {
          "duration": 0.023255813953497295,
          "durationTicks": 2,
          "midi": 49,
          "name": "C#3",
          "ticks": 10725,
          "time": 124.70930232558139,
          "velocity": 0.3464566929133858
        },
        {
          "duration": 0.09302325581396076,
          "durationTicks": 8,
          "midi": 55,
          "name": "G3",
          "ticks": 10725,
          "time": 124.70930232558139,
          "velocity": 0.4330708661417323
        },
        {
          "duration": 0.13953488372094114,
          "durationTicks": 12,
          "midi": 89,
          "name": "F6",
          "ticks": 10725,
          "time": 124.70930232558139,
          "velocity": 0.14173228346456693
        },
        {
          "duration": 0.023255813953483084,
          "durationTicks": 2,
          "midi": 47,
          "name": "B2",
          "ticks": 10727,
          "time": 124.73255813953489,
          "velocity": 0.3779527559055118
        },
        {
          "duration": 0.034883720930224626,
          "durationTicks": 3,
          "midi": 36,
          "name": "C2",
          "ticks": 10728,
          "time": 124.74418604651163,
          "velocity": 0.31496062992125984
        },
        {
          "duration": 0.03488372093023884,
          "durationTicks": 3,
          "midi": 48,
          "name": "C3",
          "ticks": 10729,
          "time": 124.75581395348837,
          "velocity": 0.33858267716535434
        },
        {
          "duration": 0.04651162790698038,
          "durationTicks": 4,
          "midi": 70,
          "name": "A#4",
          "ticks": 10729,
          "time": 124.75581395348837,
          "velocity": 0.15748031496062992
        },
        {
          "duration": 0.24418604651162923,
          "durationTicks": 21,
          "midi": 50,
          "name": "D3",
          "ticks": 10732,
          "time": 124.79069767441861,
          "velocity": 0.44881889763779526
        },
        {
          "duration": 0.023255813953483084,
          "durationTicks": 2,
          "midi": 56,
          "name": "G#3",
          "ticks": 10733,
          "time": 124.80232558139535,
          "velocity": 0.3779527559055118
        },
        {
          "duration": 0.24418604651162923,
          "durationTicks": 21,
          "midi": 72,
          "name": "C5",
          "ticks": 10733,
          "time": 124.80232558139535,
          "velocity": 0.1968503937007874
        },
        {
          "duration": 0.38372093023255616,
          "durationTicks": 33,
          "midi": 76,
          "name": "E5",
          "ticks": 10733,
          "time": 124.80232558139535,
          "velocity": 0.15748031496062992
        },
        {
          "duration": 0.04651162790698038,
          "durationTicks": 4,
          "midi": 90,
          "name": "F#6",
          "ticks": 10734,
          "time": 124.81395348837209,
          "velocity": 0.07086614173228346
        },
        {
          "duration": 0.05813953488372192,
          "durationTicks": 5,
          "midi": 38,
          "name": "D2",
          "ticks": 10735,
          "time": 124.82558139534883,
          "velocity": 0.44881889763779526
        },
        {
          "duration": 0.03488372093023884,
          "durationTicks": 3,
          "midi": 69,
          "name": "A4",
          "ticks": 10736,
          "time": 124.83720930232558,
          "velocity": 0.15748031496062992
        },
        {
          "duration": 0.034883720930224626,
          "durationTicks": 3,
          "midi": 57,
          "name": "A3",
          "ticks": 10737,
          "time": 124.84883720930233,
          "velocity": 0.3464566929133858
        },
        {
          "duration": 0.05813953488372192,
          "durationTicks": 5,
          "midi": 67,
          "name": "G4",
          "ticks": 10738,
          "time": 124.86046511627907,
          "velocity": 0.28346456692913385
        },
        {
          "duration": 0.023255813953497295,
          "durationTicks": 2,
          "midi": 38,
          "name": "D2",
          "ticks": 10741,
          "time": 124.8953488372093,
          "velocity": 0.30708661417322836
        },
        {
          "duration": 0.023255813953497295,
          "durationTicks": 2,
          "midi": 57,
          "name": "A3",
          "ticks": 10741,
          "time": 124.8953488372093,
          "velocity": 0.33070866141732286
        },
        {
          "duration": 0.5930232558139465,
          "durationTicks": 51,
          "midi": 69,
          "name": "A4",
          "ticks": 10743,
          "time": 124.9186046511628,
          "velocity": 0.4645669291338583
        },
        {
          "duration": 0.6395348837209269,
          "durationTicks": 55,
          "midi": 85,
          "name": "C#6",
          "ticks": 10743,
          "time": 124.9186046511628,
          "velocity": 0.25196850393700787
        },
        {
          "duration": 0.3488372093023173,
          "durationTicks": 30,
          "midi": 95,
          "name": "B6",
          "ticks": 10744,
          "time": 124.93023255813954,
          "velocity": 0.1732283464566929
        },
        {
          "duration": 0.09302325581396076,
          "durationTicks": 8,
          "midi": 66,
          "name": "F#4",
          "ticks": 10746,
          "time": 124.95348837209302,
          "velocity": 0.1732283464566929
        },
        {
          "duration": 0.06976744186047767,
          "durationTicks": 6,
          "midi": 38,
          "name": "D2",
          "ticks": 10747,
          "time": 124.96511627906976,
          "velocity": 0.3228346456692913
        },
        {
          "duration": 0.05813953488372192,
          "durationTicks": 5,
          "midi": 57,
          "name": "A3",
          "ticks": 10748,
          "time": 124.97674418604652,
          "velocity": 0.31496062992125984
        },
        {
          "duration": 0.034883720930224626,
          "durationTicks": 3,
          "midi": 56,
          "name": "G#3",
          "ticks": 10753,
          "time": 125.03488372093024,
          "velocity": 0.3779527559055118
        },
        {
          "duration": 0.034883720930224626,
          "durationTicks": 3,
          "midi": 91,
          "name": "G6",
          "ticks": 10753,
          "time": 125.03488372093024,
          "velocity": 0.08661417322834646
        },
        {
          "duration": 0.023255813953483084,
          "durationTicks": 2,
          "midi": 40,
          "name": "E2",
          "ticks": 10754,
          "time": 125.04651162790698,
          "velocity": 0.4881889763779528
        },
        {
          "duration": 0.05813953488372192,
          "durationTicks": 5,
          "midi": 90,
          "name": "F#6",
          "ticks": 10754,
          "time": 125.04651162790698,
          "velocity": 0.08661417322834646
        },
        {
          "duration": 0.19767441860464885,
          "durationTicks": 17,
          "midi": 50,
          "name": "D3",
          "ticks": 10755,
          "time": 125.05813953488372,
          "velocity": 0.44881889763779526
        },
        {
          "duration": 0.2325581395348877,
          "durationTicks": 20,
          "midi": 66,
          "name": "F#4",
          "ticks": 10755,
          "time": 125.05813953488372,
          "velocity": 0.2755905511811024
        },
        {
          "duration": 0.22093023255813193,
          "durationTicks": 19,
          "midi": 72,
          "name": "C5",
          "ticks": 10755,
          "time": 125.05813953488372,
          "velocity": 0.1889763779527559
        },
        {
          "duration": 0.023255813953483084,
          "durationTicks": 2,
          "midi": 39,
          "name": "D#2",
          "ticks": 10756,
          "time": 125.06976744186046,
          "velocity": 0.4881889763779528
        },
        {
          "duration": 0.081395348837205,
          "durationTicks": 7,
          "midi": 57,
          "name": "A3",
          "ticks": 10756,
          "time": 125.06976744186046,
          "velocity": 0.2755905511811024
        },
        {
          "duration": 0.05813953488372192,
          "durationTicks": 5,
          "midi": 38,
          "name": "D2",
          "ticks": 10758,
          "time": 125.09302325581395,
          "velocity": 0.4251968503937008
        },
        {
          "duration": 0.03488372093023884,
          "durationTicks": 3,
          "midi": 91,
          "name": "G6",
          "ticks": 10758,
          "time": 125.09302325581395,
          "velocity": 0.11811023622047244
        },
        {
          "duration": 0.023255813953497295,
          "durationTicks": 2,
          "midi": 56,
          "name": "G#3",
          "ticks": 10763,
          "time": 125.15116279069767,
          "velocity": 0.41732283464566927
        },
        {
          "duration": 0.023255813953483084,
          "durationTicks": 2,
          "midi": 38,
          "name": "D2",
          "ticks": 10764,
          "time": 125.16279069767442,
          "velocity": 0.2992125984251969
        },
        {
          "duration": 0.09302325581394655,
          "durationTicks": 8,
          "midi": 91,
          "name": "G6",
          "ticks": 10764,
          "time": 125.16279069767442,
          "velocity": 0.11811023622047244
        },
        {
          "duration": 0.09302325581394655,
          "durationTicks": 8,
          "midi": 57,
          "name": "A3",
          "ticks": 10765,
          "time": 125.17441860465117,
          "velocity": 0.3779527559055118
        },
        {
          "duration": 0.023255813953483084,
          "durationTicks": 2,
          "midi": 37,
          "name": "C#2",
          "ticks": 10766,
          "time": 125.18604651162791,
          "velocity": 0.25984251968503935
        },
        {
          "duration": 0.034883720930224626,
          "durationTicks": 3,
          "midi": 38,
          "name": "D2",
          "ticks": 10770,
          "time": 125.23255813953489,
          "velocity": 0.30708661417322836
        },
        {
          "duration": 0.03488372093023884,
          "durationTicks": 3,
          "midi": 48,
          "name": "C3",
          "ticks": 10773,
          "time": 125.26744186046511,
          "velocity": 0.5275590551181102
        },
        {
          "duration": 0.03488372093023884,
          "durationTicks": 3,
          "midi": 76,
          "name": "E5",
          "ticks": 10774,
          "time": 125.27906976744185,
          "velocity": 0.07086614173228346
        },
        {
          "duration": 0.22093023255814614,
          "durationTicks": 19,
          "midi": 84,
          "name": "C6",
          "ticks": 10774,
          "time": 125.27906976744185,
          "velocity": 0.2125984251968504
        },
        {
          "duration": 0.034883720930224626,
          "durationTicks": 3,
          "midi": 92,
          "name": "G#6",
          "ticks": 10776,
          "time": 125.30232558139535,
          "velocity": 0.09448818897637795
        },
        {
          "duration": 0.03488372093023884,
          "durationTicks": 3,
          "midi": 50,
          "name": "D3",
          "ticks": 10777,
          "time": 125.31395348837209,
          "velocity": 0.49606299212598426
        },
        {
          "duration": 0.12790697674418539,
          "durationTicks": 11,
          "midi": 78,
          "name": "F#5",
          "ticks": 10780,
          "time": 125.34883720930233,
          "velocity": 0.13385826771653545
        },
        {
          "duration": 0.06976744186046346,
          "durationTicks": 6,
          "midi": 79,
          "name": "G5",
          "ticks": 10780,
          "time": 125.34883720930233,
          "velocity": 0.11811023622047244
        },
        {
          "duration": 0.034883720930224626,
          "durationTicks": 3,
          "midi": 50,
          "name": "D3",
          "ticks": 10781,
          "time": 125.36046511627907,
          "velocity": 0.48031496062992124
        },
        {
          "duration": 0.023255813953497295,
          "durationTicks": 2,
          "midi": 49,
          "name": "C#3",
          "ticks": 10784,
          "time": 125.3953488372093,
          "velocity": 0.4330708661417323
        },
        {
          "duration": 0.1046511627907023,
          "durationTicks": 9,
          "midi": 57,
          "name": "A3",
          "ticks": 10784,
          "time": 125.3953488372093,
          "velocity": 0.11811023622047244
        },
        {
          "duration": 0.081395348837205,
          "durationTicks": 7,
          "midi": 67,
          "name": "G4",
          "ticks": 10785,
          "time": 125.40697674418605,
          "velocity": 0.12598425196850394
        },
        {
          "duration": 0.023255813953483084,
          "durationTicks": 2,
          "midi": 50,
          "name": "D3",
          "ticks": 10786,
          "time": 125.4186046511628,
          "velocity": 0.4330708661417323
        },
        {
          "duration": 0.023255813953483084,
          "durationTicks": 2,
          "midi": 45,
          "name": "A2",
          "ticks": 10787,
          "time": 125.43023255813954,
          "velocity": 0.3700787401574803
        },
        {
          "duration": 0.38372093023255616,
          "durationTicks": 33,
          "midi": 79,
          "name": "G5",
          "ticks": 10793,
          "time": 125.5,
          "velocity": 0.28346456692913385
        },
        {
          "duration": 0.023255813953497295,
          "durationTicks": 2,
          "midi": 60,
          "name": "C4",
          "ticks": 10794,
          "time": 125.51162790697674,
          "velocity": 0.28346456692913385
        },
        {
          "duration": 0.023255813953497295,
          "durationTicks": 2,
          "midi": 68,
          "name": "G#4",
          "ticks": 10794,
          "time": 125.51162790697674,
          "velocity": 0.4094488188976378
        },
        {
          "duration": 0.2093023255814046,
          "durationTicks": 18,
          "midi": 83,
          "name": "B5",
          "ticks": 10794,
          "time": 125.51162790697674,
          "velocity": 0.2204724409448819
        },
        {
          "duration": 0.05813953488372192,
          "durationTicks": 5,
          "midi": 88,
          "name": "E6",
          "ticks": 10794,
          "time": 125.51162790697674,
          "velocity": 0.11023622047244094
        },
        {
          "duration": 0.03488372093023884,
          "durationTicks": 3,
          "midi": 89,
          "name": "F6",
          "ticks": 10794,
          "time": 125.51162790697674,
          "velocity": 0.07874015748031496
        },
        {
          "duration": 0.011627906976755753,
          "durationTicks": 1,
          "midi": 47,
          "name": "B2",
          "ticks": 10795,
          "time": 125.52325581395348,
          "velocity": 0.5354330708661418
        },
        {
          "duration": 0.05813953488372192,
          "durationTicks": 5,
          "midi": 82,
          "name": "A#5",
          "ticks": 10795,
          "time": 125.52325581395348,
          "velocity": 0.08661417322834646
        },
        {
          "duration": 0.04651162790696617,
          "durationTicks": 4,
          "midi": 37,
          "name": "C#2",
          "ticks": 10796,
          "time": 125.53488372093024,
          "velocity": 0.4645669291338583
        },
        {
          "duration": 0.06976744186046346,
          "durationTicks": 6,
          "midi": 55,
          "name": "G3",
          "ticks": 10796,
          "time": 125.53488372093024,
          "velocity": 0.3464566929133858
        },
        {
          "duration": 0.19767441860464885,
          "durationTicks": 17,
          "midi": 67,
          "name": "G4",
          "ticks": 10796,
          "time": 125.53488372093024,
          "velocity": 0.4566929133858268
        },
        {
          "duration": 0.2906976744185954,
          "durationTicks": 25,
          "midi": 93,
          "name": "A6",
          "ticks": 10796,
          "time": 125.53488372093024,
          "velocity": 0.1968503937007874
        },
        {
          "duration": 0.06976744186046346,
          "durationTicks": 6,
          "midi": 78,
          "name": "F#5",
          "ticks": 10797,
          "time": 125.54651162790698,
          "velocity": 0.12598425196850394
        },
        {
          "duration": 0.04651162790698038,
          "durationTicks": 4,
          "midi": 89,
          "name": "F6",
          "ticks": 10798,
          "time": 125.55813953488372,
          "velocity": 0.11023622047244094
        },
        {
          "duration": 0.023255813953483084,
          "durationTicks": 2,
          "midi": 47,
          "name": "B2",
          "ticks": 10799,
          "time": 125.56976744186046,
          "velocity": 0.4409448818897638
        },
        {
          "duration": 0.04651162790698038,
          "durationTicks": 4,
          "midi": 69,
          "name": "A4",
          "ticks": 10799,
          "time": 125.56976744186046,
          "velocity": 0.1732283464566929
        },
        {
          "duration": 0.04651162790698038,
          "durationTicks": 4,
          "midi": 36,
          "name": "C2",
          "ticks": 10800,
          "time": 125.5813953488372,
          "velocity": 0.3937007874015748
        },
        {
          "duration": 0.13953488372094114,
          "durationTicks": 12,
          "midi": 60,
          "name": "C4",
          "ticks": 10800,
          "time": 125.5813953488372,
          "velocity": 0.28346456692913385
        },
        {
          "duration": 0.04651162790698038,
          "durationTicks": 4,
          "midi": 48,
          "name": "C3",
          "ticks": 10801,
          "time": 125.59302325581395,
          "velocity": 0.4251968503937008
        },
        {
          "duration": 0.023255813953483084,
          "durationTicks": 2,
          "midi": 54,
          "name": "F#3",
          "ticks": 10802,
          "time": 125.6046511627907,
          "velocity": 0.4251968503937008
        },
        {
          "duration": 0.1046511627907023,
          "durationTicks": 9,
          "midi": 64,
          "name": "E4",
          "ticks": 10803,
          "time": 125.61627906976744,
          "velocity": 0.1732283464566929
        },
        {
          "duration": 0.03488372093023884,
          "durationTicks": 3,
          "midi": 37,
          "name": "C#2",
          "ticks": 10804,
          "time": 125.62790697674419,
          "velocity": 0.3937007874015748
        },
        {
          "duration": 0.023255813953483084,
          "durationTicks": 2,
          "midi": 55,
          "name": "G3",
          "ticks": 10804,
          "time": 125.62790697674419,
          "velocity": 0.4015748031496063
        },
        {
          "duration": 0.03488372093023884,
          "durationTicks": 3,
          "midi": 78,
          "name": "F#5",
          "ticks": 10804,
          "time": 125.62790697674419,
          "velocity": 0.07874015748031496
        },
        {
          "duration": 0.15116279069766847,
          "durationTicks": 13,
          "midi": 89,
          "name": "F6",
          "ticks": 10804,
          "time": 125.62790697674419,
          "velocity": 0.16535433070866143
        },
        {
          "duration": 0.06976744186047767,
          "durationTicks": 6,
          "midi": 48,
          "name": "C3",
          "ticks": 10806,
          "time": 125.65116279069767,
          "velocity": 0.3779527559055118
        },
        {
          "duration": 0.08139534883721922,
          "durationTicks": 7,
          "midi": 70,
          "name": "A#4",
          "ticks": 10806,
          "time": 125.65116279069767,
          "velocity": 0.16535433070866143
        },
        {
          "duration": 0.06976744186046346,
          "durationTicks": 6,
          "midi": 55,
          "name": "G3",
          "ticks": 10807,
          "time": 125.66279069767442,
          "velocity": 0.36220472440944884
        },
        {
          "duration": 0.10465116279068809,
          "durationTicks": 9,
          "midi": 72,
          "name": "C5",
          "ticks": 10813,
          "time": 125.73255813953489,
          "velocity": 0.15748031496062992
        },
        {
          "duration": 0.43023255813953654,
          "durationTicks": 37,
          "midi": 50,
          "name": "D3",
          "ticks": 10814,
          "time": 125.74418604651163,
          "velocity": 0.5039370078740157
        },
        {
          "duration": 0.023255813953483084,
          "durationTicks": 2,
          "midi": 67,
          "name": "G4",
          "ticks": 10814,
          "time": 125.74418604651163,
          "velocity": 0.25984251968503935
        },
        {
          "duration": 0.081395348837205,
          "durationTicks": 7,
          "midi": 38,
          "name": "D2",
          "ticks": 10815,
          "time": 125.75581395348837,
          "velocity": 0.44881889763779526
        },
        {
          "duration": 0.023255813953497295,
          "durationTicks": 2,
          "midi": 56,
          "name": "G#3",
          "ticks": 10816,
          "time": 125.76744186046511,
          "velocity": 0.3700787401574803
        },
        {
          "duration": 0.03488372093023884,
          "durationTicks": 3,
          "midi": 69,
          "name": "A4",
          "ticks": 10816,
          "time": 125.76744186046511,
          "velocity": 0.15748031496062992
        },
        {
          "duration": 0.023255813953483084,
          "durationTicks": 2,
          "midi": 57,
          "name": "A3",
          "ticks": 10818,
          "time": 125.79069767441861,
          "velocity": 0.33858267716535434
        },
        {
          "duration": 0.023255813953483084,
          "durationTicks": 2,
          "midi": 67,
          "name": "G4",
          "ticks": 10818,
          "time": 125.79069767441861,
          "velocity": 0.25984251968503935
        },
        {
          "duration": 0.05813953488372192,
          "durationTicks": 5,
          "midi": 57,
          "name": "A3",
          "ticks": 10821,
          "time": 125.82558139534883,
          "velocity": 0.4645669291338583
        },
        {
          "duration": 0.023255813953497295,
          "durationTicks": 2,
          "midi": 39,
          "name": "D#2",
          "ticks": 10822,
          "time": 125.83720930232558,
          "velocity": 0.33858267716535434
        },
        {
          "duration": 0.3604651162790731,
          "durationTicks": 31,
          "midi": 66,
          "name": "F#4",
          "ticks": 10822,
          "time": 125.83720930232558,
          "velocity": 0.2677165354330709
        },
        {
          "duration": 0.2906976744186096,
          "durationTicks": 25,
          "midi": 85,
          "name": "C#6",
          "ticks": 10822,
          "time": 125.83720930232558,
          "velocity": 0.23622047244094488
        },
        {
          "duration": 0.11627906976742963,
          "durationTicks": 10,
          "midi": 72,
          "name": "C5",
          "ticks": 10823,
          "time": 125.84883720930233,
          "velocity": 0.1889763779527559
        },
        {
          "duration": 0.3139534883720927,
          "durationTicks": 27,
          "midi": 95,
          "name": "B6",
          "ticks": 10824,
          "time": 125.86046511627907,
          "velocity": 0.1732283464566929
        },
        {
          "duration": 0.05813953488372192,
          "durationTicks": 5,
          "midi": 57,
          "name": "A3",
          "ticks": 10827,
          "time": 125.8953488372093,
          "velocity": 0.3779527559055118
        },
        {
          "duration": 0.023255813953483084,
          "durationTicks": 2,
          "midi": 38,
          "name": "D2",
          "ticks": 10829,
          "time": 125.9186046511628,
          "velocity": 0.2992125984251969
        },
        {
          "duration": 0.19767441860464885,
          "durationTicks": 17,
          "midi": 80,
          "name": "G#5",
          "ticks": 10832,
          "time": 125.95348837209302,
          "velocity": 0.16535433070866143
        },
        {
          "duration": 0.09302325581396076,
          "durationTicks": 8,
          "midi": 90,
          "name": "F#6",
          "ticks": 10832,
          "time": 125.95348837209302,
          "velocity": 0.12598425196850394
        },
        {
          "duration": 0.2093023255814046,
          "durationTicks": 18,
          "midi": 57,
          "name": "A3",
          "ticks": 10833,
          "time": 125.96511627906976,
          "velocity": 0.4330708661417323
        },
        {
          "duration": 0.08139534883721922,
          "durationTicks": 7,
          "midi": 88,
          "name": "E6",
          "ticks": 10833,
          "time": 125.96511627906976,
          "velocity": 0.08661417322834646
        },
        {
          "duration": 0.04651162790696617,
          "durationTicks": 4,
          "midi": 84,
          "name": "C6",
          "ticks": 10834,
          "time": 125.97674418604652,
          "velocity": 0.07874015748031496
        },
        {
          "duration": 0.034883720930224626,
          "durationTicks": 3,
          "midi": 39,
          "name": "D#2",
          "ticks": 10835,
          "time": 125.98837209302326,
          "velocity": 0.4881889763779528
        },
        {
          "duration": 0.19767441860464885,
          "durationTicks": 17,
          "midi": 72,
          "name": "C5",
          "ticks": 10835,
          "time": 125.98837209302326,
          "velocity": 0.11023622047244094
        },
        {
          "duration": 0.03488372093023884,
          "durationTicks": 3,
          "midi": 91,
          "name": "G6",
          "ticks": 10837,
          "time": 126.01162790697674,
          "velocity": 0.10236220472440945
        },
        {
          "duration": 0.09302325581396076,
          "durationTicks": 8,
          "midi": 38,
          "name": "D2",
          "ticks": 10838,
          "time": 126.02325581395348,
          "velocity": 0.4251968503937008
        },
        {
          "duration": 0.36046511627905886,
          "durationTicks": 31,
          "midi": 76,
          "name": "E5",
          "ticks": 10839,
          "time": 126.03488372093024,
          "velocity": 0.15748031496062992
        },
        {
          "duration": 0.04651162790698038,
          "durationTicks": 4,
          "midi": 38,
          "name": "D2",
          "ticks": 10847,
          "time": 126.12790697674419,
          "velocity": 0.29133858267716534
        },
        {
          "duration": 0.023255813953483084,
          "durationTicks": 2,
          "midi": 37,
          "name": "C#2",
          "ticks": 10851,
          "time": 126.17441860465117,
          "velocity": 0.2283464566929134
        },
        {
          "duration": 0.27906976744185386,
          "durationTicks": 24,
          "midi": 85,
          "name": "C#6",
          "ticks": 10851,
          "time": 126.17441860465117,
          "velocity": 0.25196850393700787
        },
        {
          "duration": 0.011627906976741542,
          "durationTicks": 1,
          "midi": 50,
          "name": "D3",
          "ticks": 10852,
          "time": 126.18604651162791,
          "velocity": 0.5433070866141733
        },
        {
          "duration": 0.03488372093023884,
          "durationTicks": 3,
          "midi": 79,
          "name": "G5",
          "ticks": 10852,
          "time": 126.18604651162791,
          "velocity": 0.16535433070866143
        },
        {
          "duration": 0.19767441860464885,
          "durationTicks": 17,
          "midi": 84,
          "name": "C6",
          "ticks": 10852,
          "time": 126.18604651162791,
          "velocity": 0.2125984251968504
        },
        {
          "duration": 0.011627906976741542,
          "durationTicks": 1,
          "midi": 48,
          "name": "C3",
          "ticks": 10853,
          "time": 126.19767441860465,
          "velocity": 0.5590551181102362
        },
        {
          "duration": 0.04651162790698038,
          "durationTicks": 4,
          "midi": 78,
          "name": "F#5",
          "ticks": 10853,
          "time": 126.19767441860465,
          "velocity": 0.1889763779527559
        },
        {
          "duration": 0.15116279069768268,
          "durationTicks": 13,
          "midi": 88,
          "name": "E6",
          "ticks": 10853,
          "time": 126.19767441860465,
          "velocity": 0.15748031496062992
        },
        {
          "duration": 0.1046511627907023,
          "durationTicks": 9,
          "midi": 50,
          "name": "D3",
          "ticks": 10854,
          "time": 126.20930232558139,
          "velocity": 0.5354330708661418
        },
        {
          "duration": 0.03488372093023884,
          "durationTicks": 3,
          "midi": 92,
          "name": "G#6",
          "ticks": 10854,
          "time": 126.20930232558139,
          "velocity": 0.10236220472440945
        },
        {
          "duration": 0.17441860465115155,
          "durationTicks": 15,
          "midi": 57,
          "name": "A3",
          "ticks": 10855,
          "time": 126.22093023255815,
          "velocity": 0.15748031496062992
        },
        {
          "duration": 0.09302325581394655,
          "durationTicks": 8,
          "midi": 79,
          "name": "G5",
          "ticks": 10856,
          "time": 126.23255813953489,
          "velocity": 0.14173228346456693
        },
        {
          "duration": 0.12790697674418539,
          "durationTicks": 11,
          "midi": 78,
          "name": "F#5",
          "ticks": 10858,
          "time": 126.25581395348837,
          "velocity": 0.13385826771653545
        },
        {
          "duration": 0.04651162790698038,
          "durationTicks": 4,
          "midi": 67,
          "name": "G4",
          "ticks": 10863,
          "time": 126.31395348837209,
          "velocity": 0.11023622047244094
        },
        {
          "duration": 0.03488372093023884,
          "durationTicks": 3,
          "midi": 50,
          "name": "D3",
          "ticks": 10864,
          "time": 126.32558139534883,
          "velocity": 0.4409448818897638
        },
        {
          "duration": 0.023255813953497295,
          "durationTicks": 2,
          "midi": 45,
          "name": "A2",
          "ticks": 10865,
          "time": 126.33720930232558,
          "velocity": 0.3700787401574803
        },
        {
          "duration": 0.03488372093023884,
          "durationTicks": 3,
          "midi": 67,
          "name": "G4",
          "ticks": 10869,
          "time": 126.38372093023256,
          "velocity": 0.3937007874015748
        },
        {
          "duration": 0.27906976744186807,
          "durationTicks": 24,
          "midi": 83,
          "name": "B5",
          "ticks": 10869,
          "time": 126.38372093023256,
          "velocity": 0.2047244094488189
        },
        {
          "duration": 0.08139534883721922,
          "durationTicks": 7,
          "midi": 88,
          "name": "E6",
          "ticks": 10870,
          "time": 126.3953488372093,
          "velocity": 0.1732283464566929
        },
        {
          "duration": 0.023255813953483084,
          "durationTicks": 2,
          "midi": 47,
          "name": "B2",
          "ticks": 10871,
          "time": 126.40697674418605,
          "velocity": 0.5433070866141733
        },
        {
          "duration": 0.11627906976742963,
          "durationTicks": 10,
          "midi": 55,
          "name": "G3",
          "ticks": 10871,
          "time": 126.40697674418605,
          "velocity": 0.4330708661417323
        },
        {
          "duration": 0.05813953488370771,
          "durationTicks": 5,
          "midi": 78,
          "name": "F#5",
          "ticks": 10871,
          "time": 126.40697674418605,
          "velocity": 0.1732283464566929
        },
        {
          "duration": 0.023255813953483084,
          "durationTicks": 2,
          "midi": 60,
          "name": "C4",
          "ticks": 10872,
          "time": 126.4186046511628,
          "velocity": 0.30708661417322836
        },
        {
          "duration": 0.32558139534883423,
          "durationTicks": 28,
          "midi": 67,
          "name": "G4",
          "ticks": 10873,
          "time": 126.43023255813954,
          "velocity": 0.4645669291338583
        },
        {
          "duration": 0.04651162790698038,
          "durationTicks": 4,
          "midi": 82,
          "name": "A#5",
          "ticks": 10873,
          "time": 126.43023255813954,
          "velocity": 0.08661417322834646
        },
        {
          "duration": 0.03488372093023884,
          "durationTicks": 3,
          "midi": 37,
          "name": "C#2",
          "ticks": 10874,
          "time": 126.44186046511628,
          "velocity": 0.44881889763779526
        },
        {
          "duration": 0.04651162790698038,
          "durationTicks": 4,
          "midi": 89,
          "name": "F6",
          "ticks": 10875,
          "time": 126.45348837209302,
          "velocity": 0.11023622047244094
        },
        {
          "duration": 0.04651162790698038,
          "durationTicks": 4,
          "midi": 48,
          "name": "C3",
          "ticks": 10876,
          "time": 126.46511627906976,
          "velocity": 0.4566929133858268
        },
        {
          "duration": 0.24418604651162923,
          "durationTicks": 21,
          "midi": 64,
          "name": "E4",
          "ticks": 10876,
          "time": 126.46511627906976,
          "velocity": 0.2047244094488189
        },
        {
          "duration": 0.03488372093023884,
          "durationTicks": 3,
          "midi": 69,
          "name": "A4",
          "ticks": 10876,
          "time": 126.46511627906976,
          "velocity": 0.14173228346456693
        },
        {
          "duration": 0.04651162790696617,
          "durationTicks": 4,
          "midi": 36,
          "name": "C2",
          "ticks": 10877,
          "time": 126.47674418604652,
          "velocity": 0.4015748031496063
        },
        {
          "duration": 0.05813953488372192,
          "durationTicks": 5,
          "midi": 78,
          "name": "F#5",
          "ticks": 10878,
          "time": 126.48837209302326,
          "velocity": 0.09448818897637795
        },
        {
          "duration": 0.023255813953483084,
          "durationTicks": 2,
          "midi": 49,
          "name": "C#3",
          "ticks": 10882,
          "time": 126.53488372093024,
          "velocity": 0.3464566929133858
        },
        {
          "duration": 0.2093023255813904,
          "durationTicks": 18,
          "midi": 55,
          "name": "G3",
          "ticks": 10882,
          "time": 126.53488372093024,
          "velocity": 0.4251968503937008
        },
        {
          "duration": 0.13953488372092693,
          "durationTicks": 12,
          "midi": 89,
          "name": "F6",
          "ticks": 10882,
          "time": 126.53488372093024,
          "velocity": 0.14173228346456693
        },
        {
          "duration": 0.023255813953483084,
          "durationTicks": 2,
          "midi": 47,
          "name": "B2",
          "ticks": 10884,
          "time": 126.55813953488372,
          "velocity": 0.3700787401574803
        },
        {
          "duration": 0.05813953488372192,
          "durationTicks": 5,
          "midi": 36,
          "name": "C2",
          "ticks": 10885,
          "time": 126.56976744186046,
          "velocity": 0.31496062992125984
        },
        {
          "duration": 0.19767441860464885,
          "durationTicks": 17,
          "midi": 48,
          "name": "C3",
          "ticks": 10886,
          "time": 126.5813953488372,
          "velocity": 0.33858267716535434
        },
        {
          "duration": 0.08139534883721922,
          "durationTicks": 7,
          "midi": 70,
          "name": "A#4",
          "ticks": 10886,
          "time": 126.5813953488372,
          "velocity": 0.09448818897637795
        },
        {
          "duration": 0.15116279069768268,
          "durationTicks": 13,
          "midi": 36,
          "name": "C2",
          "ticks": 10891,
          "time": 126.63953488372093,
          "velocity": 0.2755905511811024
        },
        {
          "duration": 0.24418604651162923,
          "durationTicks": 21,
          "midi": 60,
          "name": "C4",
          "ticks": 10949,
          "time": 127.31395348837209,
          "velocity": 0.5196850393700787
        },
        {
          "duration": 0.27906976744185386,
          "durationTicks": 24,
          "midi": 79,
          "name": "G5",
          "ticks": 10949,
          "time": 127.31395348837209,
          "velocity": 0.2283464566929134
        },
        {
          "duration": 0.27906976744185386,
          "durationTicks": 24,
          "midi": 88,
          "name": "E6",
          "ticks": 10949,
          "time": 127.31395348837209,
          "velocity": 0.1732283464566929
        },
        {
          "duration": 0.03488372093023884,
          "durationTicks": 3,
          "midi": 67,
          "name": "G4",
          "ticks": 10950,
          "time": 127.32558139534883,
          "velocity": 0.12598425196850394
        },
        {
          "duration": 0.08139534883721922,
          "durationTicks": 7,
          "midi": 94,
          "name": "A#6",
          "ticks": 10950,
          "time": 127.32558139534883,
          "velocity": 0.08661417322834646
        },
        {
          "duration": 0.13953488372092693,
          "durationTicks": 12,
          "midi": 96,
          "name": "C7",
          "ticks": 10950,
          "time": 127.32558139534883,
          "velocity": 0.10236220472440945
        },
        {
          "duration": 0.034883720930224626,
          "durationTicks": 3,
          "midi": 57,
          "name": "A3",
          "ticks": 10970,
          "time": 127.55813953488372,
          "velocity": 0.3228346456692913
        },
        {
          "duration": 0.4999999999999858,
          "durationTicks": 43,
          "midi": 62,
          "name": "D4",
          "ticks": 10970,
          "time": 127.55813953488372,
          "velocity": 0.5354330708661418
        },
        {
          "duration": 0.22093023255813193,
          "durationTicks": 19,
          "midi": 81,
          "name": "A5",
          "ticks": 10970,
          "time": 127.55813953488372,
          "velocity": 0.2677165354330709
        },
        {
          "duration": 0.2325581395348877,
          "durationTicks": 20,
          "midi": 90,
          "name": "F#6",
          "ticks": 10971,
          "time": 127.56976744186046,
          "velocity": 0.1889763779527559
        },
        {
          "duration": 0.2093023255814046,
          "durationTicks": 18,
          "midi": 50,
          "name": "D3",
          "ticks": 10972,
          "time": 127.5813953488372,
          "velocity": 0.4409448818897638
        },
        {
          "duration": 0.08139534883721922,
          "durationTicks": 7,
          "midi": 72,
          "name": "C5",
          "ticks": 10972,
          "time": 127.5813953488372,
          "velocity": 0.25196850393700787
        },
        {
          "duration": 0.03488372093023884,
          "durationTicks": 3,
          "midi": 39,
          "name": "D#2",
          "ticks": 10973,
          "time": 127.59302325581395,
          "velocity": 0.44881889763779526
        },
        {
          "duration": 0.3139534883721069,
          "durationTicks": 27,
          "midi": 66,
          "name": "F#4",
          "ticks": 10973,
          "time": 127.59302325581395,
          "velocity": 0.25196850393700787
        },
        {
          "duration": 0.17441860465115155,
          "durationTicks": 15,
          "midi": 57,
          "name": "A3",
          "ticks": 10974,
          "time": 127.6046511627907,
          "velocity": 0.30708661417322836
        },
        {
          "duration": 0.1046511627907023,
          "durationTicks": 9,
          "midi": 76,
          "name": "E5",
          "ticks": 10975,
          "time": 127.61627906976744,
          "velocity": 0.07874015748031496
        },
        {
          "duration": 0.06976744186047767,
          "durationTicks": 6,
          "midi": 38,
          "name": "D2",
          "ticks": 10978,
          "time": 127.65116279069767,
          "velocity": 0.3700787401574803
        },
        {
          "duration": 0.06976744186046346,
          "durationTicks": 6,
          "midi": 72,
          "name": "C5",
          "ticks": 10982,
          "time": 127.69767441860465,
          "velocity": 0.13385826771653545
        },
        {
          "duration": 0.04651162790696617,
          "durationTicks": 4,
          "midi": 38,
          "name": "D2",
          "ticks": 10985,
          "time": 127.73255813953489,
          "velocity": 0.2677165354330709
        },
        {
          "duration": 0.023255813953497295,
          "durationTicks": 2,
          "midi": 56,
          "name": "G#3",
          "ticks": 10989,
          "time": 127.77906976744185,
          "velocity": 0.25196850393700787
        },
        {
          "duration": 0.24418604651162923,
          "durationTicks": 21,
          "midi": 76,
          "name": "E5",
          "ticks": 10989,
          "time": 127.77906976744185,
          "velocity": 0.11811023622047244
        },
        {
          "duration": 0.1860465116279073,
          "durationTicks": 16,
          "midi": 93,
          "name": "A6",
          "ticks": 10989,
          "time": 127.77906976744185,
          "velocity": 0.14173228346456693
        },
        {
          "duration": 0.23255813953487348,
          "durationTicks": 20,
          "midi": 72,
          "name": "C5",
          "ticks": 10990,
          "time": 127.79069767441861,
          "velocity": 0.15748031496062992
        },
        {
          "duration": 0.22093023255813193,
          "durationTicks": 19,
          "midi": 50,
          "name": "D3",
          "ticks": 10991,
          "time": 127.80232558139535,
          "velocity": 0.5118110236220472
        },
        {
          "duration": 0.09302325581394655,
          "durationTicks": 8,
          "midi": 57,
          "name": "A3",
          "ticks": 10991,
          "time": 127.80232558139535,
          "velocity": 0.2440944881889764
        },
        {
          "duration": 0.023255813953483084,
          "durationTicks": 2,
          "midi": 39,
          "name": "D#2",
          "ticks": 10992,
          "time": 127.81395348837209,
          "velocity": 0.4330708661417323
        },
        {
          "duration": 0.04651162790698038,
          "durationTicks": 4,
          "midi": 90,
          "name": "F#6",
          "ticks": 10993,
          "time": 127.82558139534883,
          "velocity": 0.11811023622047244
        },
        {
          "duration": 0.06976744186047767,
          "durationTicks": 6,
          "midi": 38,
          "name": "D2",
          "ticks": 10994,
          "time": 127.83720930232558,
          "velocity": 0.4409448818897638
        },
        {
          "duration": 0.15116279069766847,
          "durationTicks": 13,
          "midi": 80,
          "name": "G#5",
          "ticks": 10998,
          "time": 127.88372093023256,
          "velocity": 0.16535433070866143
        },
        {
          "duration": 0.06976744186046346,
          "durationTicks": 6,
          "midi": 85,
          "name": "C#6",
          "ticks": 10999,
          "time": 127.8953488372093,
          "velocity": 0.11023622047244094
        },
        {
          "duration": 0.03488372093023884,
          "durationTicks": 3,
          "midi": 90,
          "name": "F#6",
          "ticks": 10999,
          "time": 127.8953488372093,
          "velocity": 0.1732283464566929
        },
        {
          "duration": 0.023255813953483084,
          "durationTicks": 2,
          "midi": 40,
          "name": "E2",
          "ticks": 11000,
          "time": 127.90697674418605,
          "velocity": 0.4645669291338583
        },
        {
          "duration": 0.10465116279068809,
          "durationTicks": 9,
          "midi": 82,
          "name": "A#5",
          "ticks": 11000,
          "time": 127.90697674418605,
          "velocity": 0.08661417322834646
        },
        {
          "duration": 0.09302325581394655,
          "durationTicks": 8,
          "midi": 57,
          "name": "A3",
          "ticks": 11001,
          "time": 127.9186046511628,
          "velocity": 0.25196850393700787
        },
        {
          "duration": 0.034883720930224626,
          "durationTicks": 3,
          "midi": 39,
          "name": "D#2",
          "ticks": 11002,
          "time": 127.93023255813954,
          "velocity": 0.4094488188976378
        },
        {
          "duration": 0.06976744186046346,
          "durationTicks": 6,
          "midi": 66,
          "name": "F#4",
          "ticks": 11003,
          "time": 127.94186046511628,
          "velocity": 0.12598425196850394
        },
        {
          "duration": 0.03488372093023884,
          "durationTicks": 3,
          "midi": 90,
          "name": "F#6",
          "ticks": 11004,
          "time": 127.95348837209302,
          "velocity": 0.12598425196850394
        },
        {
          "duration": 0.023255813953483084,
          "durationTicks": 2,
          "midi": 38,
          "name": "D2",
          "ticks": 11007,
          "time": 127.98837209302326,
          "velocity": 0.3228346456692913
        },
        {
          "duration": 0.2906976744185954,
          "durationTicks": 25,
          "midi": 85,
          "name": "C#6",
          "ticks": 11009,
          "time": 128.01162790697674,
          "velocity": 0.23622047244094488
        },
        {
          "duration": 0.2093023255814046,
          "durationTicks": 18,
          "midi": 57,
          "name": "A3",
          "ticks": 11010,
          "time": 128.02325581395348,
          "velocity": 0.29133858267716534
        },
        {
          "duration": 0.45348837209303383,
          "durationTicks": 39,
          "midi": 67,
          "name": "G4",
          "ticks": 11010,
          "time": 128.02325581395348,
          "velocity": 0.2283464566929134
        },
        {
          "duration": 0.034883720930224626,
          "durationTicks": 3,
          "midi": 77,
          "name": "F5",
          "ticks": 11010,
          "time": 128.02325581395348,
          "velocity": 0.13385826771653545
        },
        {
          "duration": 0.1046511627907023,
          "durationTicks": 9,
          "midi": 83,
          "name": "B5",
          "ticks": 11010,
          "time": 128.02325581395348,
          "velocity": 0.09448818897637795
        },
        {
          "duration": 0.04651162790699459,
          "durationTicks": 4,
          "midi": 84,
          "name": "C6",
          "ticks": 11010,
          "time": 128.02325581395348,
          "velocity": 0.08661417322834646
        },
        {
          "duration": 0.2093023255814046,
          "durationTicks": 18,
          "midi": 45,
          "name": "A2",
          "ticks": 11011,
          "time": 128.03488372093022,
          "velocity": 0.49606299212598426
        },
        {
          "duration": 0.03488372093025305,
          "durationTicks": 3,
          "midi": 61,
          "name": "C#4",
          "ticks": 11013,
          "time": 128.0581395348837,
          "velocity": 0.31496062992125984
        },
        {
          "duration": 0.034883720930224626,
          "durationTicks": 3,
          "midi": 74,
          "name": "D5",
          "ticks": 11016,
          "time": 128.09302325581396,
          "velocity": 0.23622047244094488
        },
        {
          "duration": 0.034883720930224626,
          "durationTicks": 3,
          "midi": 61,
          "name": "C#4",
          "ticks": 11017,
          "time": 128.1046511627907,
          "velocity": 0.25984251968503935
        },
        {
          "duration": 0.023255813953483084,
          "durationTicks": 2,
          "midi": 52,
          "name": "E3",
          "ticks": 11018,
          "time": 128.11627906976744,
          "velocity": 0.2283464566929134
        },
        {
          "duration": 0.034883720930224626,
          "durationTicks": 3,
          "midi": 74,
          "name": "D5",
          "ticks": 11021,
          "time": 128.15116279069767,
          "velocity": 0.2047244094488189
        },
        {
          "duration": 0.08139534883721922,
          "durationTicks": 7,
          "midi": 52,
          "name": "E3",
          "ticks": 11022,
          "time": 128.1627906976744,
          "velocity": 0.2204724409448819
        },
        {
          "duration": 0.09302325581396076,
          "durationTicks": 8,
          "midi": 61,
          "name": "C#4",
          "ticks": 11022,
          "time": 128.1627906976744,
          "velocity": 0.2125984251968504
        },
        {
          "duration": 0.034883720930224626,
          "durationTicks": 3,
          "midi": 75,
          "name": "D#5",
          "ticks": 11028,
          "time": 128.2325581395349,
          "velocity": 0.10236220472440945
        },
        {
          "duration": 0.023255813953483084,
          "durationTicks": 2,
          "midi": 44,
          "name": "G#2",
          "ticks": 11029,
          "time": 128.24418604651163,
          "velocity": 0.44881889763779526
        },
        {
          "duration": 0.034883720930224626,
          "durationTicks": 3,
          "midi": 76,
          "name": "E5",
          "ticks": 11029,
          "time": 128.24418604651163,
          "velocity": 0.08661417322834646
        },
        {
          "duration": 0.04651162790696617,
          "durationTicks": 4,
          "midi": 77,
          "name": "F5",
          "ticks": 11029,
          "time": 128.24418604651163,
          "velocity": 0.13385826771653545
        },
        {
          "duration": 0.2325581395348877,
          "durationTicks": 20,
          "midi": 55,
          "name": "G3",
          "ticks": 11030,
          "time": 128.25581395348837,
          "velocity": 0.33858267716535434
        },
        {
          "duration": 0.22093023255814614,
          "durationTicks": 19,
          "midi": 60,
          "name": "C4",
          "ticks": 11030,
          "time": 128.25581395348837,
          "velocity": 0.29133858267716534
        },
        {
          "duration": 0.22093023255814614,
          "durationTicks": 19,
          "midi": 64,
          "name": "E4",
          "ticks": 11030,
          "time": 128.25581395348837,
          "velocity": 0.2047244094488189
        },
        {
          "duration": 0.22093023255814614,
          "durationTicks": 19,
          "midi": 70,
          "name": "A#4",
          "ticks": 11030,
          "time": 128.25581395348837,
          "velocity": 0.14960629921259844
        },
        {
          "duration": 0.04651162790696617,
          "durationTicks": 4,
          "midi": 84,
          "name": "C6",
          "ticks": 11030,
          "time": 128.25581395348837,
          "velocity": 0.07874015748031496
        },
        {
          "duration": 0.04651162790696617,
          "durationTicks": 4,
          "midi": 95,
          "name": "B6",
          "ticks": 11030,
          "time": 128.25581395348837,
          "velocity": 0.07874015748031496
        },
        {
          "duration": 0.023255813953483084,
          "durationTicks": 2,
          "midi": 47,
          "name": "B2",
          "ticks": 11031,
          "time": 128.2674418604651,
          "velocity": 0.4881889763779528
        },
        {
          "duration": 0.034883720930224626,
          "durationTicks": 3,
          "midi": 74,
          "name": "D5",
          "ticks": 11031,
          "time": 128.2674418604651,
          "velocity": 0.15748031496062992
        },
        {
          "duration": 0.04651162790699459,
          "durationTicks": 4,
          "midi": 37,
          "name": "C#2",
          "ticks": 11032,
          "time": 128.27906976744185,
          "velocity": 0.4409448818897638
        },
        {
          "duration": 0.2093023255814046,
          "durationTicks": 18,
          "midi": 48,
          "name": "C3",
          "ticks": 11033,
          "time": 128.2906976744186,
          "velocity": 0.5039370078740157
        },
        {
          "duration": 0.12790697674418539,
          "durationTicks": 11,
          "midi": 78,
          "name": "F#5",
          "ticks": 11033,
          "time": 128.2906976744186,
          "velocity": 0.10236220472440945
        },
        {
          "duration": 0.03488372093025305,
          "durationTicks": 3,
          "midi": 83,
          "name": "B5",
          "ticks": 11034,
          "time": 128.30232558139534,
          "velocity": 0.07086614173228346
        },
        {
          "duration": 0.09302325581393234,
          "durationTicks": 8,
          "midi": 36,
          "name": "C2",
          "ticks": 11036,
          "time": 128.32558139534885,
          "velocity": 0.41732283464566927
        },
        {
          "duration": 0.034883720930224626,
          "durationTicks": 3,
          "midi": 91,
          "name": "G6",
          "ticks": 11036,
          "time": 128.32558139534885,
          "velocity": 0.07086614173228346
        },
        {
          "duration": 0.023255813953511506,
          "durationTicks": 2,
          "midi": 35,
          "name": "B1",
          "ticks": 11044,
          "time": 128.41860465116278,
          "velocity": 0.25984251968503935
        },
        {
          "duration": 0.034883720930224626,
          "durationTicks": 3,
          "midi": 36,
          "name": "C2",
          "ticks": 11046,
          "time": 128.4418604651163,
          "velocity": 0.2677165354330709
        },
        {
          "duration": 0.4767441860465169,
          "durationTicks": 41,
          "midi": 69,
          "name": "A4",
          "ticks": 11049,
          "time": 128.47674418604652,
          "velocity": 0.23622047244094488
        },
        {
          "duration": 0.034883720930224626,
          "durationTicks": 3,
          "midi": 79,
          "name": "G5",
          "ticks": 11049,
          "time": 128.47674418604652,
          "velocity": 0.11023622047244094
        },
        {
          "duration": 0.023255813953483084,
          "durationTicks": 2,
          "midi": 56,
          "name": "G#3",
          "ticks": 11050,
          "time": 128.48837209302326,
          "velocity": 0.3543307086614173
        },
        {
          "duration": 0.2093023255814046,
          "durationTicks": 18,
          "midi": 62,
          "name": "D4",
          "ticks": 11050,
          "time": 128.48837209302326,
          "velocity": 0.2677165354330709
        },
        {
          "duration": 0.4767441860465169,
          "durationTicks": 41,
          "midi": 66,
          "name": "F#4",
          "ticks": 11050,
          "time": 128.48837209302326,
          "velocity": 0.25196850393700787
        },
        {
          "duration": 0.2093023255814046,
          "durationTicks": 18,
          "midi": 72,
          "name": "C5",
          "ticks": 11050,
          "time": 128.48837209302326,
          "velocity": 0.14960629921259844
        },
        {
          "duration": 0.08139534883721922,
          "durationTicks": 7,
          "midi": 93,
          "name": "A6",
          "ticks": 11050,
          "time": 128.48837209302326,
          "velocity": 0.12598425196850394
        },
        {
          "duration": 0.023255813953483084,
          "durationTicks": 2,
          "midi": 38,
          "name": "D2",
          "ticks": 11052,
          "time": 128.51162790697674,
          "velocity": 0.4566929133858268
        },
        {
          "duration": 0.18604651162792152,
          "durationTicks": 16,
          "midi": 57,
          "name": "A3",
          "ticks": 11052,
          "time": 128.51162790697674,
          "velocity": 0.3228346456692913
        },
        {
          "duration": 0.04651162790699459,
          "durationTicks": 4,
          "midi": 39,
          "name": "D#2",
          "ticks": 11054,
          "time": 128.53488372093022,
          "velocity": 0.4094488188976378
        },
        {
          "duration": 0.1046511627907023,
          "durationTicks": 9,
          "midi": 76,
          "name": "E5",
          "ticks": 11054,
          "time": 128.53488372093022,
          "velocity": 0.08661417322834646
        },
        {
          "duration": 0.1046511627907023,
          "durationTicks": 9,
          "midi": 80,
          "name": "G#5",
          "ticks": 11055,
          "time": 128.54651162790697,
          "velocity": 0.07086614173228346
        },
        {
          "duration": 0.034883720930224626,
          "durationTicks": 3,
          "midi": 38,
          "name": "D2",
          "ticks": 11058,
          "time": 128.58139534883722,
          "velocity": 0.3464566929133858
        },
        {
          "duration": 0.034883720930224626,
          "durationTicks": 3,
          "midi": 37,
          "name": "C#2",
          "ticks": 11061,
          "time": 128.61627906976744,
          "velocity": 0.2992125984251969
        },
        {
          "duration": 0.04651162790699459,
          "durationTicks": 4,
          "midi": 38,
          "name": "D2",
          "ticks": 11064,
          "time": 128.65116279069767,
          "velocity": 0.25196850393700787
        },
        {
          "duration": 0.023255813953483084,
          "durationTicks": 2,
          "midi": 56,
          "name": "G#3",
          "ticks": 11068,
          "time": 128.69767441860466,
          "velocity": 0.2440944881889764
        },
        {
          "duration": 0.20930232558137618,
          "durationTicks": 18,
          "midi": 76,
          "name": "E5",
          "ticks": 11068,
          "time": 128.69767441860466,
          "velocity": 0.12598425196850394
        },
        {
          "duration": 0.2325581395348877,
          "durationTicks": 20,
          "midi": 62,
          "name": "D4",
          "ticks": 11069,
          "time": 128.7093023255814,
          "velocity": 0.2204724409448819
        },
        {
          "duration": 0.09302325581393234,
          "durationTicks": 8,
          "midi": 93,
          "name": "A6",
          "ticks": 11069,
          "time": 128.7093023255814,
          "velocity": 0.13385826771653545
        },
        {
          "duration": 0.20930232558137618,
          "durationTicks": 18,
          "midi": 50,
          "name": "D3",
          "ticks": 11070,
          "time": 128.72093023255815,
          "velocity": 0.44881889763779526
        },
        {
          "duration": 0.20930232558137618,
          "durationTicks": 18,
          "midi": 57,
          "name": "A3",
          "ticks": 11070,
          "time": 128.72093023255815,
          "velocity": 0.2440944881889764
        },
        {
          "duration": 0.2325581395348877,
          "durationTicks": 20,
          "midi": 72,
          "name": "C5",
          "ticks": 11070,
          "time": 128.72093023255815,
          "velocity": 0.16535433070866143
        },
        {
          "duration": 0.034883720930224626,
          "durationTicks": 3,
          "midi": 39,
          "name": "D#2",
          "ticks": 11071,
          "time": 128.7325581395349,
          "velocity": 0.4330708661417323
        },
        {
          "duration": 0.09302325581396076,
          "durationTicks": 8,
          "midi": 38,
          "name": "D2",
          "ticks": 11074,
          "time": 128.7674418604651,
          "velocity": 0.4330708661417323
        },
        {
          "duration": 0.05813953488370771,
          "durationTicks": 5,
          "midi": 38,
          "name": "D2",
          "ticks": 11083,
          "time": 128.87209302325581,
          "velocity": 0.29133858267716534
        },
        {
          "duration": 0.11627906976744384,
          "durationTicks": 10,
          "midi": 76,
          "name": "E5",
          "ticks": 11088,
          "time": 128.93023255813952,
          "velocity": 0.11023622047244094
        },
        {
          "duration": 0.30232558139536536,
          "durationTicks": 26,
          "midi": 85,
          "name": "C#6",
          "ticks": 11088,
          "time": 128.93023255813952,
          "velocity": 0.2283464566929134
        },
        {
          "duration": 0.4186046511627808,
          "durationTicks": 36,
          "midi": 79,
          "name": "G5",
          "ticks": 11089,
          "time": 128.9418604651163,
          "velocity": 0.25984251968503935
        },
        {
          "duration": 0.09302325581393234,
          "durationTicks": 8,
          "midi": 83,
          "name": "B5",
          "ticks": 11089,
          "time": 128.9418604651163,
          "velocity": 0.09448818897637795
        },
        {
          "duration": 0.22093023255811772,
          "durationTicks": 19,
          "midi": 45,
          "name": "A2",
          "ticks": 11090,
          "time": 128.95348837209303,
          "velocity": 0.49606299212598426
        },
        {
          "duration": 0.034883720930224626,
          "durationTicks": 3,
          "midi": 75,
          "name": "D#5",
          "ticks": 11090,
          "time": 128.95348837209303,
          "velocity": 0.2283464566929134
        },
        {
          "duration": 0.19767441860463464,
          "durationTicks": 17,
          "midi": 67,
          "name": "G4",
          "ticks": 11091,
          "time": 128.96511627906978,
          "velocity": 0.1968503937007874
        },
        {
          "duration": 0.034883720930224626,
          "durationTicks": 3,
          "midi": 52,
          "name": "E3",
          "ticks": 11092,
          "time": 128.97674418604652,
          "velocity": 0.2755905511811024
        },
        {
          "duration": 0.19767441860463464,
          "durationTicks": 17,
          "midi": 61,
          "name": "C#4",
          "ticks": 11092,
          "time": 128.97674418604652,
          "velocity": 0.2440944881889764
        },
        {
          "duration": 0.023255813953483084,
          "durationTicks": 2,
          "midi": 74,
          "name": "D5",
          "ticks": 11093,
          "time": 128.98837209302326,
          "velocity": 0.25196850393700787
        },
        {
          "duration": 0.034883720930224626,
          "durationTicks": 3,
          "midi": 75,
          "name": "D#5",
          "ticks": 11095,
          "time": 129.01162790697674,
          "velocity": 0.2047244094488189
        },
        {
          "duration": 0.15116279069766847,
          "durationTicks": 13,
          "midi": 52,
          "name": "E3",
          "ticks": 11096,
          "time": 129.02325581395348,
          "velocity": 0.2677165354330709
        },
        {
          "duration": 0.034883720930224626,
          "durationTicks": 3,
          "midi": 74,
          "name": "D5",
          "ticks": 11102,
          "time": 129.09302325581396,
          "velocity": 0.1968503937007874
        },
        {
          "duration": 0.11627906976744384,
          "durationTicks": 10,
          "midi": 60,
          "name": "C4",
          "ticks": 11109,
          "time": 129.17441860465115,
          "velocity": 0.5511811023622047
        },
        {
          "duration": 0.24418604651162923,
          "durationTicks": 21,
          "midi": 67,
          "name": "G4",
          "ticks": 11109,
          "time": 129.17441860465115,
          "velocity": 0.25984251968503935
        },
        {
          "duration": 0.023255813953511506,
          "durationTicks": 2,
          "midi": 38,
          "name": "D2",
          "ticks": 11110,
          "time": 129.1860465116279,
          "velocity": 0.4330708661417323
        },
        {
          "duration": 0.2093023255814046,
          "durationTicks": 18,
          "midi": 48,
          "name": "C3",
          "ticks": 11110,
          "time": 129.1860465116279,
          "velocity": 0.44881889763779526
        },
        {
          "duration": 0.22093023255814614,
          "durationTicks": 19,
          "midi": 55,
          "name": "G3",
          "ticks": 11110,
          "time": 129.1860465116279,
          "velocity": 0.3700787401574803
        },
        {
          "duration": 0.13953488372095535,
          "durationTicks": 12,
          "midi": 88,
          "name": "E6",
          "ticks": 11110,
          "time": 129.1860465116279,
          "velocity": 0.1889763779527559
        },
        {
          "duration": 0.30232558139533694,
          "durationTicks": 26,
          "midi": 74,
          "name": "D5",
          "ticks": 11111,
          "time": 129.19767441860466,
          "velocity": 0.5039370078740157
        },
        {
          "duration": 0.04651162790696617,
          "durationTicks": 4,
          "midi": 37,
          "name": "C#2",
          "ticks": 11112,
          "time": 129.2093023255814,
          "velocity": 0.4566929133858268
        },
        {
          "duration": 0.06976744186044925,
          "durationTicks": 6,
          "midi": 70,
          "name": "A#4",
          "ticks": 11112,
          "time": 129.2093023255814,
          "velocity": 0.14173228346456693
        },
        {
          "duration": 0.05813953488370771,
          "durationTicks": 5,
          "midi": 64,
          "name": "E4",
          "ticks": 11113,
          "time": 129.22093023255815,
          "velocity": 0.2204724409448819
        },
        {
          "duration": 0.09302325581396076,
          "durationTicks": 8,
          "midi": 78,
          "name": "F#5",
          "ticks": 11113,
          "time": 129.22093023255815,
          "velocity": 0.11023622047244094
        },
        {
          "duration": 0.04651162790696617,
          "durationTicks": 4,
          "midi": 36,
          "name": "C2",
          "ticks": 11116,
          "time": 129.25581395348837,
          "velocity": 0.41732283464566927
        },
        {
          "duration": 0.15116279069766847,
          "durationTicks": 13,
          "midi": 81,
          "name": "A5",
          "ticks": 11118,
          "time": 129.27906976744185,
          "velocity": 0.2440944881889764
        },
        {
          "duration": 0.13953488372092693,
          "durationTicks": 12,
          "midi": 90,
          "name": "F#6",
          "ticks": 11118,
          "time": 129.27906976744185,
          "velocity": 0.14960629921259844
        },
        {
          "duration": 0.011627906976741542,
          "durationTicks": 1,
          "midi": 61,
          "name": "C#4",
          "ticks": 11119,
          "time": 129.2906976744186,
          "velocity": 0.5275590551181102
        },
        {
          "duration": 0.11627906976744384,
          "durationTicks": 10,
          "midi": 98,
          "name": "D7",
          "ticks": 11119,
          "time": 129.2906976744186,
          "velocity": 0.11023622047244094
        },
        {
          "duration": 0.11627906976744384,
          "durationTicks": 10,
          "midi": 62,
          "name": "D4",
          "ticks": 11120,
          "time": 129.30232558139534,
          "velocity": 0.5039370078740157
        },
        {
          "duration": 0.03488372093025305,
          "durationTicks": 3,
          "midi": 69,
          "name": "A4",
          "ticks": 11120,
          "time": 129.30232558139534,
          "velocity": 0.14173228346456693
        },
        {
          "duration": 0.023255813953483084,
          "durationTicks": 2,
          "midi": 35,
          "name": "B1",
          "ticks": 11122,
          "time": 129.32558139534885,
          "velocity": 0.25984251968503935
        },
        {
          "duration": 0.023255813953483084,
          "durationTicks": 2,
          "midi": 36,
          "name": "C2",
          "ticks": 11126,
          "time": 129.37209302325581,
          "velocity": 0.2677165354330709
        },
        {
          "duration": 0.023255813953483084,
          "durationTicks": 2,
          "midi": 70,
          "name": "A#4",
          "ticks": 11127,
          "time": 129.38372093023256,
          "velocity": 0.25984251968503935
        },
        {
          "duration": 0.4418604651162923,
          "durationTicks": 38,
          "midi": 88,
          "name": "E6",
          "ticks": 11128,
          "time": 129.3953488372093,
          "velocity": 0.15748031496062992
        },
        {
          "duration": 0.45348837209303383,
          "durationTicks": 39,
          "midi": 69,
          "name": "A4",
          "ticks": 11129,
          "time": 129.40697674418604,
          "velocity": 0.29133858267716534
        },
        {
          "duration": 0.6627906976744384,
          "durationTicks": 57,
          "midi": 72,
          "name": "C5",
          "ticks": 11129,
          "time": 129.40697674418604,
          "velocity": 0.5196850393700787
        },
        {
          "duration": 0.08139534883721922,
          "durationTicks": 7,
          "midi": 94,
          "name": "A#6",
          "ticks": 11129,
          "time": 129.40697674418604,
          "velocity": 0.07086614173228346
        },
        {
          "duration": 0.43023255813955075,
          "durationTicks": 37,
          "midi": 50,
          "name": "D3",
          "ticks": 11130,
          "time": 129.41860465116278,
          "velocity": 0.49606299212598426
        },
        {
          "duration": 0.011627906976741542,
          "durationTicks": 1,
          "midi": 61,
          "name": "C#4",
          "ticks": 11130,
          "time": 129.41860465116278,
          "velocity": 0.5118110236220472
        },
        {
          "duration": 0.45348837209303383,
          "durationTicks": 39,
          "midi": 66,
          "name": "F#4",
          "ticks": 11130,
          "time": 129.41860465116278,
          "velocity": 0.2677165354330709
        },
        {
          "duration": 0.17441860465117998,
          "durationTicks": 15,
          "midi": 76,
          "name": "E5",
          "ticks": 11130,
          "time": 129.41860465116278,
          "velocity": 0.07874015748031496
        },
        {
          "duration": 0.19767441860466306,
          "durationTicks": 17,
          "midi": 60,
          "name": "C4",
          "ticks": 11131,
          "time": 129.43023255813952,
          "velocity": 0.5039370078740157
        },
        {
          "duration": 0.034883720930224626,
          "durationTicks": 3,
          "midi": 38,
          "name": "D2",
          "ticks": 11132,
          "time": 129.4418604651163,
          "velocity": 0.4409448818897638
        },
        {
          "duration": 0.034883720930224626,
          "durationTicks": 3,
          "midi": 90,
          "name": "F#6",
          "ticks": 11132,
          "time": 129.4418604651163,
          "velocity": 0.10236220472440945
        },
        {
          "duration": 0.023255813953483084,
          "durationTicks": 2,
          "midi": 39,
          "name": "D#2",
          "ticks": 11135,
          "time": 129.47674418604652,
          "velocity": 0.3779527559055118
        },
        {
          "duration": 0.04651162790696617,
          "durationTicks": 4,
          "midi": 38,
          "name": "D2",
          "ticks": 11137,
          "time": 129.5,
          "velocity": 0.2992125984251969
        },
        {
          "duration": 0.03488372093025305,
          "durationTicks": 3,
          "midi": 37,
          "name": "C#2",
          "ticks": 11141,
          "time": 129.54651162790697,
          "velocity": 0.2755905511811024
        },
        {
          "duration": 0.04651162790696617,
          "durationTicks": 4,
          "midi": 38,
          "name": "D2",
          "ticks": 11144,
          "time": 129.58139534883722,
          "velocity": 0.2677165354330709
        },
        {
          "duration": 0.034883720930224626,
          "durationTicks": 3,
          "midi": 57,
          "name": "A3",
          "ticks": 11148,
          "time": 129.62790697674419,
          "velocity": 0.3779527559055118
        },
        {
          "duration": 0.023255813953483084,
          "durationTicks": 2,
          "midi": 40,
          "name": "E2",
          "ticks": 11149,
          "time": 129.63953488372093,
          "velocity": 0.4409448818897638
        },
        {
          "duration": 0.034883720930224626,
          "durationTicks": 3,
          "midi": 80,
          "name": "G#5",
          "ticks": 11149,
          "time": 129.63953488372093,
          "velocity": 0.16535433070866143
        },
        {
          "duration": 0.08139534883721922,
          "durationTicks": 7,
          "midi": 90,
          "name": "F#6",
          "ticks": 11149,
          "time": 129.63953488372093,
          "velocity": 0.10236220472440945
        },
        {
          "duration": 0.1046511627907023,
          "durationTicks": 9,
          "midi": 93,
          "name": "A6",
          "ticks": 11149,
          "time": 129.63953488372093,
          "velocity": 0.12598425196850394
        },
        {
          "duration": 0.023255813953483084,
          "durationTicks": 2,
          "midi": 39,
          "name": "D#2",
          "ticks": 11151,
          "time": 129.6627906976744,
          "velocity": 0.4645669291338583
        },
        {
          "duration": 0.3720930232558146,
          "durationTicks": 32,
          "midi": 57,
          "name": "A3",
          "ticks": 11152,
          "time": 129.67441860465115,
          "velocity": 0.3464566929133858
        },
        {
          "duration": 0.1046511627907023,
          "durationTicks": 9,
          "midi": 38,
          "name": "D2",
          "ticks": 11153,
          "time": 129.6860465116279,
          "velocity": 0.4409448818897638
        },
        {
          "duration": 0.034883720930224626,
          "durationTicks": 3,
          "midi": 79,
          "name": "G5",
          "ticks": 11155,
          "time": 129.7093023255814,
          "velocity": 0.1732283464566929
        },
        {
          "duration": 0.023255813953483084,
          "durationTicks": 2,
          "midi": 60,
          "name": "C4",
          "ticks": 11159,
          "time": 129.75581395348837,
          "velocity": 0.25984251968503935
        },
        {
          "duration": 0.023255813953511506,
          "durationTicks": 2,
          "midi": 60,
          "name": "C4",
          "ticks": 11162,
          "time": 129.7906976744186,
          "velocity": 0.2283464566929134
        },
        {
          "duration": 0.03488372093025305,
          "durationTicks": 3,
          "midi": 79,
          "name": "G5",
          "ticks": 11162,
          "time": 129.7906976744186,
          "velocity": 0.11811023622047244
        },
        {
          "duration": 0.04651162790699459,
          "durationTicks": 4,
          "midi": 38,
          "name": "D2",
          "ticks": 11163,
          "time": 129.80232558139534,
          "velocity": 0.29133858267716534
        },
        {
          "duration": 0.05813953488370771,
          "durationTicks": 5,
          "midi": 60,
          "name": "C4",
          "ticks": 11165,
          "time": 129.82558139534885,
          "velocity": 0.31496062992125984
        },
        {
          "duration": 0.16279069767441,
          "durationTicks": 14,
          "midi": 79,
          "name": "G5",
          "ticks": 11166,
          "time": 129.8372093023256,
          "velocity": 0.2125984251968504
        },
        {
          "duration": 0.2674418604651123,
          "durationTicks": 23,
          "midi": 76,
          "name": "E5",
          "ticks": 11167,
          "time": 129.84883720930233,
          "velocity": 0.12598425196850394
        },
        {
          "duration": 0.2906976744185954,
          "durationTicks": 25,
          "midi": 85,
          "name": "C#6",
          "ticks": 11167,
          "time": 129.84883720930233,
          "velocity": 0.23622047244094488
        },
        {
          "duration": 0.22093023255814614,
          "durationTicks": 19,
          "midi": 45,
          "name": "A2",
          "ticks": 11168,
          "time": 129.86046511627907,
          "velocity": 0.49606299212598426
        },
        {
          "duration": 0.034883720930224626,
          "durationTicks": 3,
          "midi": 77,
          "name": "F5",
          "ticks": 11168,
          "time": 129.86046511627907,
          "velocity": 0.14960629921259844
        },
        {
          "duration": 0.4418604651162923,
          "durationTicks": 38,
          "midi": 67,
          "name": "G4",
          "ticks": 11169,
          "time": 129.87209302325581,
          "velocity": 0.2204724409448819
        },
        {
          "duration": 0.023255813953483084,
          "durationTicks": 2,
          "midi": 74,
          "name": "D5",
          "ticks": 11169,
          "time": 129.87209302325581,
          "velocity": 0.2283464566929134
        },
        {
          "duration": 0.08139534883721922,
          "durationTicks": 7,
          "midi": 83,
          "name": "B5",
          "ticks": 11169,
          "time": 129.87209302325581,
          "velocity": 0.10236220472440945
        },
        {
          "duration": 0.023255813953483084,
          "durationTicks": 2,
          "midi": 60,
          "name": "C4",
          "ticks": 11171,
          "time": 129.8953488372093,
          "velocity": 0.2755905511811024
        },
        {
          "duration": 0.19767441860466306,
          "durationTicks": 17,
          "midi": 75,
          "name": "D#5",
          "ticks": 11171,
          "time": 129.8953488372093,
          "velocity": 0.2204724409448819
        },
        {
          "duration": 0.023255813953511506,
          "durationTicks": 2,
          "midi": 52,
          "name": "E3",
          "ticks": 11173,
          "time": 129.91860465116278,
          "velocity": 0.23622047244094488
        },
        {
          "duration": 0.023255813953483084,
          "durationTicks": 2,
          "midi": 60,
          "name": "C4",
          "ticks": 11176,
          "time": 129.95348837209303,
          "velocity": 0.23622047244094488
        },
        {
          "duration": 0.034883720930224626,
          "durationTicks": 3,
          "midi": 52,
          "name": "E3",
          "ticks": 11177,
          "time": 129.96511627906978,
          "velocity": 0.23622047244094488
        },
        {
          "duration": 0.023255813953483084,
          "durationTicks": 2,
          "midi": 61,
          "name": "C#4",
          "ticks": 11178,
          "time": 129.97674418604652,
          "velocity": 0.2283464566929134
        },
        {
          "duration": 0.06976744186047767,
          "durationTicks": 6,
          "midi": 52,
          "name": "E3",
          "ticks": 11181,
          "time": 130.01162790697674,
          "velocity": 0.2125984251968504
        },
        {
          "duration": 0.023255813953483084,
          "durationTicks": 2,
          "midi": 44,
          "name": "G#2",
          "ticks": 11187,
          "time": 130.08139534883722,
          "velocity": 0.44881889763779526
        },
        {
          "duration": 0.04651162790696617,
          "durationTicks": 4,
          "midi": 77,
          "name": "F5",
          "ticks": 11187,
          "time": 130.08139534883722,
          "velocity": 0.12598425196850394
        },
        {
          "duration": 0.22093023255814614,
          "durationTicks": 19,
          "midi": 55,
          "name": "G3",
          "ticks": 11188,
          "time": 130.09302325581396,
          "velocity": 0.33858267716535434
        },
        {
          "duration": 0.20930232558137618,
          "durationTicks": 18,
          "midi": 60,
          "name": "C4",
          "ticks": 11188,
          "time": 130.09302325581396,
          "velocity": 0.25196850393700787
        },
        {
          "duration": 0.22093023255814614,
          "durationTicks": 19,
          "midi": 64,
          "name": "E4",
          "ticks": 11188,
          "time": 130.09302325581396,
          "velocity": 0.1968503937007874
        },
        {
          "duration": 0.22093023255814614,
          "durationTicks": 19,
          "midi": 70,
          "name": "A#4",
          "ticks": 11188,
          "time": 130.09302325581396,
          "velocity": 0.1732283464566929
        },
        {
          "duration": 0.05813953488370771,
          "durationTicks": 5,
          "midi": 91,
          "name": "G6",
          "ticks": 11188,
          "time": 130.09302325581396,
          "velocity": 0.12598425196850394
        },
        {
          "duration": 0.04651162790696617,
          "durationTicks": 4,
          "midi": 95,
          "name": "B6",
          "ticks": 11188,
          "time": 130.09302325581396,
          "velocity": 0.07874015748031496
        },
        {
          "duration": 0.023255813953483084,
          "durationTicks": 2,
          "midi": 47,
          "name": "B2",
          "ticks": 11189,
          "time": 130.1046511627907,
          "velocity": 0.4881889763779528
        },
        {
          "duration": 0.04651162790696617,
          "durationTicks": 4,
          "midi": 74,
          "name": "D5",
          "ticks": 11189,
          "time": 130.1046511627907,
          "velocity": 0.14960629921259844
        },
        {
          "duration": 0.04651162790696617,
          "durationTicks": 4,
          "midi": 37,
          "name": "C#2",
          "ticks": 11190,
          "time": 130.11627906976744,
          "velocity": 0.4330708661417323
        },
        {
          "duration": 0.17441860465115155,
          "durationTicks": 15,
          "midi": 48,
          "name": "C3",
          "ticks": 11191,
          "time": 130.12790697674419,
          "velocity": 0.4251968503937008
        },
        {
          "duration": 0.12790697674418539,
          "durationTicks": 11,
          "midi": 78,
          "name": "F#5",
          "ticks": 11191,
          "time": 130.12790697674419,
          "velocity": 0.09448818897637795
        },
        {
          "duration": 0.034883720930224626,
          "durationTicks": 3,
          "midi": 83,
          "name": "B5",
          "ticks": 11192,
          "time": 130.13953488372093,
          "velocity": 0.07086614173228346
        },
        {
          "duration": 0.09302325581396076,
          "durationTicks": 8,
          "midi": 36,
          "name": "C2",
          "ticks": 11194,
          "time": 130.1627906976744,
          "velocity": 0.41732283464566927
        },
        {
          "duration": 0.09302325581396076,
          "durationTicks": 8,
          "midi": 74,
          "name": "D5",
          "ticks": 11194,
          "time": 130.1627906976744,
          "velocity": 0.10236220472440945
        },
        {
          "duration": 0.05813953488373613,
          "durationTicks": 5,
          "midi": 91,
          "name": "G6",
          "ticks": 11194,
          "time": 130.1627906976744,
          "velocity": 0.08661417322834646
        },
        {
          "duration": 0.023255813953483084,
          "durationTicks": 2,
          "midi": 35,
          "name": "B1",
          "ticks": 11202,
          "time": 130.25581395348837,
          "velocity": 0.25196850393700787
        },
        {
          "duration": 0.023255813953483084,
          "durationTicks": 2,
          "midi": 36,
          "name": "C2",
          "ticks": 11204,
          "time": 130.27906976744185,
          "velocity": 0.2677165354330709
        },
        {
          "duration": 0.4534883720930054,
          "durationTicks": 39,
          "midi": 62,
          "name": "D4",
          "ticks": 11207,
          "time": 130.3139534883721,
          "velocity": 0.30708661417322836
        },
        {
          "duration": 0.46511627906974695,
          "durationTicks": 40,
          "midi": 69,
          "name": "A4",
          "ticks": 11207,
          "time": 130.3139534883721,
          "velocity": 0.2204724409448819
        },
        {
          "duration": 0.09302325581393234,
          "durationTicks": 8,
          "midi": 72,
          "name": "C5",
          "ticks": 11207,
          "time": 130.3139534883721,
          "velocity": 0.15748031496062992
        },
        {
          "duration": 0.0813953488371908,
          "durationTicks": 7,
          "midi": 93,
          "name": "A6",
          "ticks": 11207,
          "time": 130.3139534883721,
          "velocity": 0.12598425196850394
        },
        {
          "duration": 0.44186046511626387,
          "durationTicks": 38,
          "midi": 50,
          "name": "D3",
          "ticks": 11208,
          "time": 130.32558139534885,
          "velocity": 0.4881889763779528
        },
        {
          "duration": 0.11627906976744384,
          "durationTicks": 10,
          "midi": 38,
          "name": "D2",
          "ticks": 11209,
          "time": 130.3372093023256,
          "velocity": 0.44881889763779526
        },
        {
          "duration": 0.44186046511626387,
          "durationTicks": 38,
          "midi": 66,
          "name": "F#4",
          "ticks": 11209,
          "time": 130.3372093023256,
          "velocity": 0.2677165354330709
        },
        {
          "duration": 0.4302325581395223,
          "durationTicks": 37,
          "midi": 57,
          "name": "A3",
          "ticks": 11210,
          "time": 130.34883720930233,
          "velocity": 0.3858267716535433
        },
        {
          "duration": 0.08139534883721922,
          "durationTicks": 7,
          "midi": 72,
          "name": "C5",
          "ticks": 11217,
          "time": 130.43023255813952,
          "velocity": 0.12598425196850394
        },
        {
          "duration": 0.034883720930224626,
          "durationTicks": 3,
          "midi": 37,
          "name": "C#2",
          "ticks": 11219,
          "time": 130.45348837209303,
          "velocity": 0.28346456692913385
        },
        {
          "duration": 0.04651162790696617,
          "durationTicks": 4,
          "midi": 38,
          "name": "D2",
          "ticks": 11222,
          "time": 130.48837209302326,
          "velocity": 0.2755905511811024
        },
        {
          "duration": 0.11627906976744384,
          "durationTicks": 10,
          "midi": 80,
          "name": "G#5",
          "ticks": 11226,
          "time": 130.53488372093022,
          "velocity": 0.14960629921259844
        },
        {
          "duration": 0.023255813953511506,
          "durationTicks": 2,
          "midi": 40,
          "name": "E2",
          "ticks": 11227,
          "time": 130.54651162790697,
          "velocity": 0.4409448818897638
        },
        {
          "duration": 0.04651162790699459,
          "durationTicks": 4,
          "midi": 72,
          "name": "C5",
          "ticks": 11227,
          "time": 130.54651162790697,
          "velocity": 0.1732283464566929
        },
        {
          "duration": 0.08139534883721922,
          "durationTicks": 7,
          "midi": 90,
          "name": "F#6",
          "ticks": 11227,
          "time": 130.54651162790697,
          "velocity": 0.09448818897637795
        },
        {
          "duration": 0.1046511627907023,
          "durationTicks": 9,
          "midi": 93,
          "name": "A6",
          "ticks": 11227,
          "time": 130.54651162790697,
          "velocity": 0.12598425196850394
        },
        {
          "duration": 0.023255813953483084,
          "durationTicks": 2,
          "midi": 39,
          "name": "D#2",
          "ticks": 11229,
          "time": 130.56976744186048,
          "velocity": 0.4645669291338583
        },
        {
          "duration": 0.1046511627907023,
          "durationTicks": 9,
          "midi": 38,
          "name": "D2",
          "ticks": 11231,
          "time": 130.59302325581396,
          "velocity": 0.4409448818897638
        },
        {
          "duration": 0.06976744186044925,
          "durationTicks": 6,
          "midi": 72,
          "name": "C5",
          "ticks": 11233,
          "time": 130.61627906976744,
          "velocity": 0.15748031496062992
        },
        {
          "duration": 0.05813953488370771,
          "durationTicks": 5,
          "midi": 38,
          "name": "D2",
          "ticks": 11241,
          "time": 130.7093023255814,
          "velocity": 0.28346456692913385
        },
        {
          "duration": 0.05813953488370771,
          "durationTicks": 5,
          "midi": 72,
          "name": "C5",
          "ticks": 11242,
          "time": 130.72093023255815,
          "velocity": 0.16535433070866143
        },
        {
          "duration": 0.12790697674418539,
          "durationTicks": 11,
          "midi": 74,
          "name": "D5",
          "ticks": 11246,
          "time": 130.7674418604651,
          "velocity": 0.3228346456692913
        },
        {
          "duration": 0.023255813953483084,
          "durationTicks": 2,
          "midi": 84,
          "name": "C6",
          "ticks": 11246,
          "time": 130.7674418604651,
          "velocity": 0.2283464566929134
        },
        {
          "duration": 0.05813953488373613,
          "durationTicks": 5,
          "midi": 71,
          "name": "B4",
          "ticks": 11247,
          "time": 130.77906976744185,
          "velocity": 0.12598425196850394
        },
        {
          "duration": 0.11627906976744384,
          "durationTicks": 10,
          "midi": 77,
          "name": "F5",
          "ticks": 11247,
          "time": 130.77906976744185,
          "velocity": 0.1889763779527559
        },
        {
          "duration": 0.11627906976744384,
          "durationTicks": 10,
          "midi": 81,
          "name": "A5",
          "ticks": 11247,
          "time": 130.77906976744185,
          "velocity": 0.15748031496062992
        },
        {
          "duration": 0.12790697674418539,
          "durationTicks": 11,
          "midi": 83,
          "name": "B5",
          "ticks": 11247,
          "time": 130.77906976744185,
          "velocity": 0.2283464566929134
        },
        {
          "duration": 0.11627906976744384,
          "durationTicks": 10,
          "midi": 90,
          "name": "F#6",
          "ticks": 11247,
          "time": 130.77906976744185,
          "velocity": 0.07086614173228346
        },
        {
          "duration": 0.1046511627907023,
          "durationTicks": 9,
          "midi": 62,
          "name": "D4",
          "ticks": 11248,
          "time": 130.7906976744186,
          "velocity": 0.1889763779527559
        },
        {
          "duration": 0.12790697674418539,
          "durationTicks": 11,
          "midi": 67,
          "name": "G4",
          "ticks": 11248,
          "time": 130.7906976744186,
          "velocity": 0.23622047244094488
        },
        {
          "duration": 0.11627906976744384,
          "durationTicks": 10,
          "midi": 85,
          "name": "C#6",
          "ticks": 11248,
          "time": 130.7906976744186,
          "velocity": 0.2204724409448819
        },
        {
          "duration": 0.08139534883721922,
          "durationTicks": 7,
          "midi": 55,
          "name": "G3",
          "ticks": 11249,
          "time": 130.80232558139534,
          "velocity": 0.44881889763779526
        },
        {
          "duration": 0.03488372093025305,
          "durationTicks": 3,
          "midi": 98,
          "name": "D7",
          "ticks": 11249,
          "time": 130.80232558139534,
          "velocity": 0.08661417322834646
        },
        {
          "duration": 0.023255813953483084,
          "durationTicks": 2,
          "midi": 43,
          "name": "G2",
          "ticks": 11253,
          "time": 130.84883720930233,
          "velocity": 0.3858267716535433
        },
        {
          "duration": 0.034883720930224626,
          "durationTicks": 3,
          "midi": 71,
          "name": "B4",
          "ticks": 11254,
          "time": 130.86046511627907,
          "velocity": 0.14173228346456693
        },
        {
          "duration": 0.023255813953483084,
          "durationTicks": 2,
          "midi": 56,
          "name": "G#3",
          "ticks": 11256,
          "time": 130.88372093023256,
          "velocity": 0.2677165354330709
        },
        {
          "duration": 0.023255813953483084,
          "durationTicks": 2,
          "midi": 60,
          "name": "C4",
          "ticks": 11257,
          "time": 130.8953488372093,
          "velocity": 0.2283464566929134
        },
        {
          "duration": 0.1046511627907023,
          "durationTicks": 9,
          "midi": 70,
          "name": "A#4",
          "ticks": 11257,
          "time": 130.8953488372093,
          "velocity": 0.11023622047244094
        },
        {
          "duration": 0.11627906976744384,
          "durationTicks": 10,
          "midi": 73,
          "name": "C#5",
          "ticks": 11257,
          "time": 130.8953488372093,
          "velocity": 0.33858267716535434
        },
        {
          "duration": 0.17441860465117998,
          "durationTicks": 15,
          "midi": 76,
          "name": "E5",
          "ticks": 11257,
          "time": 130.8953488372093,
          "velocity": 0.2125984251968504
        },
        {
          "duration": 0.12790697674418539,
          "durationTicks": 11,
          "midi": 80,
          "name": "G#5",
          "ticks": 11257,
          "time": 130.8953488372093,
          "velocity": 0.12598425196850394
        },
        {
          "duration": 0.15116279069766847,
          "durationTicks": 13,
          "midi": 82,
          "name": "A#5",
          "ticks": 11257,
          "time": 130.8953488372093,
          "velocity": 0.2204724409448819
        },
        {
          "duration": 0.023255813953483084,
          "durationTicks": 2,
          "midi": 53,
          "name": "F3",
          "ticks": 11258,
          "time": 130.90697674418604,
          "velocity": 0.4409448818897638
        },
        {
          "duration": 0.15116279069766847,
          "durationTicks": 13,
          "midi": 84,
          "name": "C6",
          "ticks": 11258,
          "time": 130.90697674418604,
          "velocity": 0.2125984251968504
        },
        {
          "duration": 0.13953488372092693,
          "durationTicks": 12,
          "midi": 92,
          "name": "G#6",
          "ticks": 11258,
          "time": 130.90697674418604,
          "velocity": 0.1889763779527559
        },
        {
          "duration": 0.08139534883721922,
          "durationTicks": 7,
          "midi": 61,
          "name": "C#4",
          "ticks": 11259,
          "time": 130.91860465116278,
          "velocity": 0.25984251968503935
        },
        {
          "duration": 0.09302325581396076,
          "durationTicks": 8,
          "midi": 66,
          "name": "F#4",
          "ticks": 11259,
          "time": 130.91860465116278,
          "velocity": 0.18110236220472442
        },
        {
          "duration": 0.04651162790699459,
          "durationTicks": 4,
          "midi": 97,
          "name": "C#7",
          "ticks": 11259,
          "time": 130.91860465116278,
          "velocity": 0.10236220472440945
        },
        {
          "duration": 0.08139534883721922,
          "durationTicks": 7,
          "midi": 54,
          "name": "F#3",
          "ticks": 11260,
          "time": 130.93023255813952,
          "velocity": 0.3937007874015748
        },
        {
          "duration": 0.034883720930224626,
          "durationTicks": 3,
          "midi": 42,
          "name": "F#2",
          "ticks": 11263,
          "time": 130.96511627906978,
          "velocity": 0.4251968503937008
        },
        {
          "duration": 0.05813953488370771,
          "durationTicks": 5,
          "midi": 89,
          "name": "F6",
          "ticks": 11264,
          "time": 130.97674418604652,
          "velocity": 0.08661417322834646
        },
        {
          "duration": 0.05813953488370771,
          "durationTicks": 5,
          "midi": 41,
          "name": "F2",
          "ticks": 11266,
          "time": 131,
          "velocity": 0.49606299212598426
        },
        {
          "duration": 0.023255813953483084,
          "durationTicks": 2,
          "midi": 51,
          "name": "D#3",
          "ticks": 11267,
          "time": 131.01162790697674,
          "velocity": 0.48031496062992124
        },
        {
          "duration": 0.1046511627907023,
          "durationTicks": 9,
          "midi": 64,
          "name": "E4",
          "ticks": 11267,
          "time": 131.01162790697674,
          "velocity": 0.28346456692913385
        },
        {
          "duration": 0.11627906976744384,
          "durationTicks": 10,
          "midi": 68,
          "name": "G#4",
          "ticks": 11267,
          "time": 131.01162790697674,
          "velocity": 0.2755905511811024
        },
        {
          "duration": 0.15116279069766847,
          "durationTicks": 13,
          "midi": 83,
          "name": "B5",
          "ticks": 11267,
          "time": 131.01162790697674,
          "velocity": 0.2755905511811024
        },
        {
          "duration": 0.12790697674418539,
          "durationTicks": 11,
          "midi": 87,
          "name": "D#6",
          "ticks": 11267,
          "time": 131.01162790697674,
          "velocity": 0.2047244094488189
        },
        {
          "duration": 0.12790697674418539,
          "durationTicks": 11,
          "midi": 97,
          "name": "C#7",
          "ticks": 11267,
          "time": 131.01162790697674,
          "velocity": 0.14173228346456693
        },
        {
          "duration": 0.1046511627907023,
          "durationTicks": 9,
          "midi": 59,
          "name": "B3",
          "ticks": 11268,
          "time": 131.02325581395348,
          "velocity": 0.4330708661417323
        },
        {
          "duration": 0.04651162790699459,
          "durationTicks": 4,
          "midi": 86,
          "name": "D6",
          "ticks": 11268,
          "time": 131.02325581395348,
          "velocity": 0.07874015748031496
        },
        {
          "duration": 0.09302325581396076,
          "durationTicks": 8,
          "midi": 52,
          "name": "E3",
          "ticks": 11269,
          "time": 131.03488372093022,
          "velocity": 0.4251968503937008
        },
        {
          "duration": 0.03488372093025305,
          "durationTicks": 3,
          "midi": 73,
          "name": "C#5",
          "ticks": 11269,
          "time": 131.03488372093022,
          "velocity": 0.18110236220472442
        },
        {
          "duration": 0.03488372093025305,
          "durationTicks": 3,
          "midi": 93,
          "name": "A6",
          "ticks": 11270,
          "time": 131.04651162790697,
          "velocity": 0.12598425196850394
        },
        {
          "duration": 0.05813953488370771,
          "durationTicks": 5,
          "midi": 82,
          "name": "A#5",
          "ticks": 11272,
          "time": 131.06976744186048,
          "velocity": 0.15748031496062992
        },
        {
          "duration": 0.04651162790696617,
          "durationTicks": 4,
          "midi": 40,
          "name": "E2",
          "ticks": 11273,
          "time": 131.08139534883722,
          "velocity": 0.44881889763779526
        },
        {
          "duration": 0.04651162790696617,
          "durationTicks": 4,
          "midi": 78,
          "name": "F#5",
          "ticks": 11273,
          "time": 131.08139534883722,
          "velocity": 0.11023622047244094
        },
        {
          "duration": 0.12790697674418539,
          "durationTicks": 11,
          "midi": 72,
          "name": "C5",
          "ticks": 11276,
          "time": 131.11627906976744,
          "velocity": 0.5354330708661418
        },
        {
          "duration": 0.15116279069766847,
          "durationTicks": 13,
          "midi": 88,
          "name": "E6",
          "ticks": 11276,
          "time": 131.11627906976744,
          "velocity": 0.18110236220472442
        },
        {
          "duration": 0.11627906976744384,
          "durationTicks": 10,
          "midi": 60,
          "name": "C4",
          "ticks": 11277,
          "time": 131.12790697674419,
          "velocity": 0.5275590551181102
        },
        {
          "duration": 0.09302325581396076,
          "durationTicks": 8,
          "midi": 66,
          "name": "F#4",
          "ticks": 11277,
          "time": 131.12790697674419,
          "velocity": 0.2755905511811024
        },
        {
          "duration": 0.023255813953483084,
          "durationTicks": 2,
          "midi": 69,
          "name": "A4",
          "ticks": 11277,
          "time": 131.12790697674419,
          "velocity": 0.28346456692913385
        },
        {
          "duration": 0.18604651162792152,
          "durationTicks": 16,
          "midi": 79,
          "name": "G5",
          "ticks": 11277,
          "time": 131.12790697674419,
          "velocity": 0.2677165354330709
        },
        {
          "duration": 0.06976744186047767,
          "durationTicks": 6,
          "midi": 85,
          "name": "C#6",
          "ticks": 11277,
          "time": 131.12790697674419,
          "velocity": 0.07086614173228346
        },
        {
          "duration": 0.1046511627907023,
          "durationTicks": 9,
          "midi": 94,
          "name": "A#6",
          "ticks": 11277,
          "time": 131.12790697674419,
          "velocity": 0.07874015748031496
        },
        {
          "duration": 0.023255813953483084,
          "durationTicks": 2,
          "midi": 49,
          "name": "C#3",
          "ticks": 11278,
          "time": 131.13953488372093,
          "velocity": 0.41732283464566927
        },
        {
          "duration": 0.05813953488373613,
          "durationTicks": 5,
          "midi": 39,
          "name": "D#2",
          "ticks": 11279,
          "time": 131.15116279069767,
          "velocity": 0.4566929133858268
        },
        {
          "duration": 0.13953488372092693,
          "durationTicks": 12,
          "midi": 93,
          "name": "A6",
          "ticks": 11279,
          "time": 131.15116279069767,
          "velocity": 0.1968503937007874
        },
        {
          "duration": 0.03488372093025305,
          "durationTicks": 3,
          "midi": 50,
          "name": "D3",
          "ticks": 11280,
          "time": 131.1627906976744,
          "velocity": 0.4566929133858268
        },
        {
          "duration": 0.09302325581396076,
          "durationTicks": 8,
          "midi": 69,
          "name": "A4",
          "ticks": 11280,
          "time": 131.1627906976744,
          "velocity": 0.29133858267716534
        },
        {
          "duration": 0.04651162790699459,
          "durationTicks": 4,
          "midi": 76,
          "name": "E5",
          "ticks": 11281,
          "time": 131.17441860465115,
          "velocity": 0.08661417322834646
        },
        {
          "duration": 0.023255813953483084,
          "durationTicks": 2,
          "midi": 38,
          "name": "D2",
          "ticks": 11284,
          "time": 131.2093023255814,
          "velocity": 0.4094488188976378
        },
        {
          "duration": 0.023255813953483084,
          "durationTicks": 2,
          "midi": 50,
          "name": "D3",
          "ticks": 11284,
          "time": 131.2093023255814,
          "velocity": 0.4566929133858268
        },
        {
          "duration": 0.034883720930224626,
          "durationTicks": 3,
          "midi": 57,
          "name": "A3",
          "ticks": 11284,
          "time": 131.2093023255814,
          "velocity": 0.3937007874015748
        },
        {
          "duration": 0.34883720930233153,
          "durationTicks": 30,
          "midi": 83,
          "name": "B5",
          "ticks": 11285,
          "time": 131.22093023255815,
          "velocity": 0.25196850393700787
        },
        {
          "duration": 0.11627906976744384,
          "durationTicks": 10,
          "midi": 85,
          "name": "C#6",
          "ticks": 11285,
          "time": 131.22093023255815,
          "velocity": 0.13385826771653545
        },
        {
          "duration": 0.15116279069766847,
          "durationTicks": 13,
          "midi": 90,
          "name": "F#6",
          "ticks": 11285,
          "time": 131.22093023255815,
          "velocity": 0.14960629921259844
        },
        {
          "duration": 0.023255813953483084,
          "durationTicks": 2,
          "midi": 40,
          "name": "E2",
          "ticks": 11286,
          "time": 131.2325581395349,
          "velocity": 0.47244094488188976
        },
        {
          "duration": 0.5,
          "durationTicks": 43,
          "midi": 66,
          "name": "F#4",
          "ticks": 11286,
          "time": 131.2325581395349,
          "velocity": 0.2677165354330709
        },
        {
          "duration": 0.023255813953483084,
          "durationTicks": 2,
          "midi": 71,
          "name": "B4",
          "ticks": 11286,
          "time": 131.2325581395349,
          "velocity": 0.4566929133858268
        },
        {
          "duration": 0.2093023255814046,
          "durationTicks": 18,
          "midi": 76,
          "name": "E5",
          "ticks": 11286,
          "time": 131.2325581395349,
          "velocity": 0.16535433070866143
        },
        {
          "duration": 0.16279069767441,
          "durationTicks": 14,
          "midi": 87,
          "name": "D#6",
          "ticks": 11286,
          "time": 131.2325581395349,
          "velocity": 0.1889763779527559
        },
        {
          "duration": 0.1860465116278931,
          "durationTicks": 16,
          "midi": 97,
          "name": "C#7",
          "ticks": 11286,
          "time": 131.2325581395349,
          "velocity": 0.13385826771653545
        },
        {
          "duration": 0.32558139534884845,
          "durationTicks": 28,
          "midi": 50,
          "name": "D3",
          "ticks": 11288,
          "time": 131.25581395348837,
          "velocity": 0.4881889763779528
        },
        {
          "duration": 0.034883720930224626,
          "durationTicks": 3,
          "midi": 57,
          "name": "A3",
          "ticks": 11288,
          "time": 131.25581395348837,
          "velocity": 0.3858267716535433
        },
        {
          "duration": 0.023255813953483084,
          "durationTicks": 2,
          "midi": 72,
          "name": "C5",
          "ticks": 11288,
          "time": 131.25581395348837,
          "velocity": 0.4566929133858268
        },
        {
          "duration": 0.023255813953483084,
          "durationTicks": 2,
          "midi": 39,
          "name": "D#2",
          "ticks": 11290,
          "time": 131.27906976744185,
          "velocity": 0.4251968503937008
        },
        {
          "duration": 0.2093023255814046,
          "durationTicks": 18,
          "midi": 71,
          "name": "B4",
          "ticks": 11290,
          "time": 131.27906976744185,
          "velocity": 0.3464566929133858
        },
        {
          "duration": 0.06976744186047767,
          "durationTicks": 6,
          "midi": 38,
          "name": "D2",
          "ticks": 11292,
          "time": 131.30232558139534,
          "velocity": 0.3543307086614173
        },
        {
          "duration": 0.09302325581396076,
          "durationTicks": 8,
          "midi": 69,
          "name": "A4",
          "ticks": 11292,
          "time": 131.30232558139534,
          "velocity": 0.1732283464566929
        },
        {
          "duration": 0.04651162790699459,
          "durationTicks": 4,
          "midi": 93,
          "name": "A6",
          "ticks": 11292,
          "time": 131.30232558139534,
          "velocity": 0.12598425196850394
        },
        {
          "duration": 0.023255813953483084,
          "durationTicks": 2,
          "midi": 59,
          "name": "B3",
          "ticks": 11293,
          "time": 131.3139534883721,
          "velocity": 0.3858267716535433
        },
        {
          "duration": 0.034883720930224626,
          "durationTicks": 3,
          "midi": 57,
          "name": "A3",
          "ticks": 11294,
          "time": 131.32558139534885,
          "velocity": 0.3228346456692913
        },
        {
          "duration": 0.034883720930224626,
          "durationTicks": 3,
          "midi": 37,
          "name": "C#2",
          "ticks": 11298,
          "time": 131.37209302325581,
          "velocity": 0.2283464566929134
        },
        {
          "duration": 0.04651162790699459,
          "durationTicks": 4,
          "midi": 38,
          "name": "D2",
          "ticks": 11301,
          "time": 131.40697674418604,
          "velocity": 0.2755905511811024
        },
        {
          "duration": 0.023255813953483084,
          "durationTicks": 2,
          "midi": 57,
          "name": "A3",
          "ticks": 11301,
          "time": 131.40697674418604,
          "velocity": 0.2440944881889764
        },
        {
          "duration": 0.2441860465116008,
          "durationTicks": 21,
          "midi": 57,
          "name": "A3",
          "ticks": 11304,
          "time": 131.4418604651163,
          "velocity": 0.4094488188976378
        },
        {
          "duration": 0.12790697674418539,
          "durationTicks": 11,
          "midi": 80,
          "name": "G#5",
          "ticks": 11305,
          "time": 131.45348837209303,
          "velocity": 0.14173228346456693
        },
        {
          "duration": 0.023255813953483084,
          "durationTicks": 2,
          "midi": 40,
          "name": "E2",
          "ticks": 11306,
          "time": 131.46511627906978,
          "velocity": 0.44881889763779526
        },
        {
          "duration": 0.0813953488371908,
          "durationTicks": 7,
          "midi": 93,
          "name": "A6",
          "ticks": 11306,
          "time": 131.46511627906978,
          "velocity": 0.11811023622047244
        },
        {
          "duration": 0.04651162790696617,
          "durationTicks": 4,
          "midi": 84,
          "name": "C6",
          "ticks": 11307,
          "time": 131.47674418604652,
          "velocity": 0.07874015748031496
        },
        {
          "duration": 0.023255813953483084,
          "durationTicks": 2,
          "midi": 39,
          "name": "D#2",
          "ticks": 11308,
          "time": 131.48837209302326,
          "velocity": 0.4645669291338583
        },
        {
          "duration": 0.034883720930224626,
          "durationTicks": 3,
          "midi": 71,
          "name": "B4",
          "ticks": 11309,
          "time": 131.5,
          "velocity": 0.1889763779527559
        },
        {
          "duration": 0.06976744186047767,
          "durationTicks": 6,
          "midi": 38,
          "name": "D2",
          "ticks": 11310,
          "time": 131.51162790697674,
          "velocity": 0.4409448818897638
        },
        {
          "duration": 0.034883720930224626,
          "durationTicks": 3,
          "midi": 72,
          "name": "C5",
          "ticks": 11315,
          "time": 131.56976744186048,
          "velocity": 0.1732283464566929
        },
        {
          "duration": 0.04651162790696617,
          "durationTicks": 4,
          "midi": 79,
          "name": "G5",
          "ticks": 11316,
          "time": 131.58139534883722,
          "velocity": 0.11023622047244094
        },
        {
          "duration": 0.15116279069766847,
          "durationTicks": 13,
          "midi": 93,
          "name": "A6",
          "ticks": 11316,
          "time": 131.58139534883722,
          "velocity": 0.14960629921259844
        },
        {
          "duration": 0.023255813953483084,
          "durationTicks": 2,
          "midi": 41,
          "name": "F2",
          "ticks": 11317,
          "time": 131.59302325581396,
          "velocity": 0.3858267716535433
        },
        {
          "duration": 0.09302325581393234,
          "durationTicks": 8,
          "midi": 90,
          "name": "F#6",
          "ticks": 11317,
          "time": 131.59302325581396,
          "velocity": 0.10236220472440945
        },
        {
          "duration": 0.0813953488371908,
          "durationTicks": 7,
          "midi": 50,
          "name": "D3",
          "ticks": 11318,
          "time": 131.6046511627907,
          "velocity": 0.4251968503937008
        },
        {
          "duration": 0.023255813953483084,
          "durationTicks": 2,
          "midi": 39,
          "name": "D#2",
          "ticks": 11320,
          "time": 131.62790697674419,
          "velocity": 0.3937007874015748
        },
        {
          "duration": 0.04651162790699459,
          "durationTicks": 4,
          "midi": 38,
          "name": "D2",
          "ticks": 11322,
          "time": 131.65116279069767,
          "velocity": 0.3937007874015748
        },
        {
          "duration": 0.24418604651162923,
          "durationTicks": 21,
          "midi": 71,
          "name": "B4",
          "ticks": 11325,
          "time": 131.6860465116279,
          "velocity": 0.15748031496062992
        },
        {
          "duration": 0.26744186046514073,
          "durationTicks": 23,
          "midi": 76,
          "name": "E5",
          "ticks": 11325,
          "time": 131.6860465116279,
          "velocity": 0.2047244094488189
        },
        {
          "duration": 0.2906976744186238,
          "durationTicks": 25,
          "midi": 85,
          "name": "C#6",
          "ticks": 11325,
          "time": 131.6860465116279,
          "velocity": 0.25196850393700787
        },
        {
          "duration": 0.034883720930224626,
          "durationTicks": 3,
          "midi": 74,
          "name": "D5",
          "ticks": 11326,
          "time": 131.69767441860466,
          "velocity": 0.2283464566929134
        },
        {
          "duration": 0.24418604651162923,
          "durationTicks": 21,
          "midi": 79,
          "name": "G5",
          "ticks": 11326,
          "time": 131.69767441860466,
          "velocity": 0.15748031496062992
        },
        {
          "duration": 0.20930232558137618,
          "durationTicks": 18,
          "midi": 45,
          "name": "A2",
          "ticks": 11327,
          "time": 131.7093023255814,
          "velocity": 0.5039370078740157
        },
        {
          "duration": 0.023255813953483084,
          "durationTicks": 2,
          "midi": 61,
          "name": "C#4",
          "ticks": 11327,
          "time": 131.7093023255814,
          "velocity": 0.25984251968503935
        },
        {
          "duration": 0.023255813953483084,
          "durationTicks": 2,
          "midi": 60,
          "name": "C4",
          "ticks": 11329,
          "time": 131.7325581395349,
          "velocity": 0.2440944881889764
        },
        {
          "duration": 0.034883720930224626,
          "durationTicks": 3,
          "midi": 67,
          "name": "G4",
          "ticks": 11329,
          "time": 131.7325581395349,
          "velocity": 0.1968503937007874
        },
        {
          "duration": 0.19767441860463464,
          "durationTicks": 17,
          "midi": 75,
          "name": "D#5",
          "ticks": 11329,
          "time": 131.7325581395349,
          "velocity": 0.2125984251968504
        },
        {
          "duration": 0.023255813953483084,
          "durationTicks": 2,
          "midi": 61,
          "name": "C#4",
          "ticks": 11331,
          "time": 131.75581395348837,
          "velocity": 0.2283464566929134
        },
        {
          "duration": 0.3720930232558146,
          "durationTicks": 32,
          "midi": 67,
          "name": "G4",
          "ticks": 11333,
          "time": 131.77906976744185,
          "velocity": 0.1889763779527559
        },
        {
          "duration": 0.03488372093025305,
          "durationTicks": 3,
          "midi": 52,
          "name": "E3",
          "ticks": 11335,
          "time": 131.80232558139534,
          "velocity": 0.2283464566929134
        },
        {
          "duration": 0.06976744186044925,
          "durationTicks": 6,
          "midi": 52,
          "name": "E3",
          "ticks": 11339,
          "time": 131.84883720930233,
          "velocity": 0.2204724409448819
        },
        {
          "duration": 0.023255813953511506,
          "durationTicks": 2,
          "midi": 44,
          "name": "G#2",
          "ticks": 11345,
          "time": 131.91860465116278,
          "velocity": 0.44881889763779526
        },
        {
          "duration": 0.1046511627907023,
          "durationTicks": 9,
          "midi": 60,
          "name": "C4",
          "ticks": 11345,
          "time": 131.91860465116278,
          "velocity": 0.28346456692913385
        },
        {
          "duration": 0.22093023255814614,
          "durationTicks": 19,
          "midi": 55,
          "name": "G3",
          "ticks": 11346,
          "time": 131.93023255813952,
          "velocity": 0.33858267716535434
        },
        {
          "duration": 0.22093023255814614,
          "durationTicks": 19,
          "midi": 64,
          "name": "E4",
          "ticks": 11346,
          "time": 131.93023255813952,
          "velocity": 0.1968503937007874
        },
        {
          "duration": 0.22093023255814614,
          "durationTicks": 19,
          "midi": 70,
          "name": "A#4",
          "ticks": 11346,
          "time": 131.93023255813952,
          "velocity": 0.1732283464566929
        },
        {
          "duration": 0.04651162790699459,
          "durationTicks": 4,
          "midi": 84,
          "name": "C6",
          "ticks": 11346,
          "time": 131.93023255813952,
          "velocity": 0.07086614173228346
        },
        {
          "duration": 0.04651162790699459,
          "durationTicks": 4,
          "midi": 95,
          "name": "B6",
          "ticks": 11346,
          "time": 131.93023255813952,
          "velocity": 0.07874015748031496
        },
        {
          "duration": 0.023255813953483084,
          "durationTicks": 2,
          "midi": 47,
          "name": "B2",
          "ticks": 11347,
          "time": 131.9418604651163,
          "velocity": 0.4881889763779528
        },
        {
          "duration": 0.04651162790696617,
          "durationTicks": 4,
          "midi": 74,
          "name": "D5",
          "ticks": 11347,
          "time": 131.9418604651163,
          "velocity": 0.15748031496062992
        },
        {
          "duration": 0.04651162790696617,
          "durationTicks": 4,
          "midi": 37,
          "name": "C#2",
          "ticks": 11348,
          "time": 131.95348837209303,
          "velocity": 0.4409448818897638
        },
        {
          "duration": 0.17441860465115155,
          "durationTicks": 15,
          "midi": 48,
          "name": "C3",
          "ticks": 11349,
          "time": 131.96511627906978,
          "velocity": 0.4251968503937008
        },
        {
          "duration": 0.04651162790696617,
          "durationTicks": 4,
          "midi": 78,
          "name": "F#5",
          "ticks": 11350,
          "time": 131.97674418604652,
          "velocity": 0.11023622047244094
        },
        {
          "duration": 0.09302325581396076,
          "durationTicks": 8,
          "midi": 36,
          "name": "C2",
          "ticks": 11352,
          "time": 132,
          "velocity": 0.41732283464566927
        },
        {
          "duration": 0.1046511627907023,
          "durationTicks": 9,
          "midi": 74,
          "name": "D5",
          "ticks": 11352,
          "time": 132,
          "velocity": 0.10236220472440945
        },
        {
          "duration": 0.03488372093025305,
          "durationTicks": 3,
          "midi": 78,
          "name": "F#5",
          "ticks": 11355,
          "time": 132.03488372093022,
          "velocity": 0.09448818897637795
        },
        {
          "duration": 0.023255813953483084,
          "durationTicks": 2,
          "midi": 35,
          "name": "B1",
          "ticks": 11360,
          "time": 132.09302325581396,
          "velocity": 0.25196850393700787
        },
        {
          "duration": 0.023255813953483084,
          "durationTicks": 2,
          "midi": 36,
          "name": "C2",
          "ticks": 11362,
          "time": 132.11627906976744,
          "velocity": 0.2677165354330709
        },
        {
          "duration": 0.45348837209303383,
          "durationTicks": 39,
          "midi": 62,
          "name": "D4",
          "ticks": 11365,
          "time": 132.15116279069767,
          "velocity": 0.30708661417322836
        },
        {
          "duration": 0.45348837209303383,
          "durationTicks": 39,
          "midi": 69,
          "name": "A4",
          "ticks": 11365,
          "time": 132.15116279069767,
          "velocity": 0.2204724409448819
        },
        {
          "duration": 0.22093023255814614,
          "durationTicks": 19,
          "midi": 72,
          "name": "C5",
          "ticks": 11365,
          "time": 132.15116279069767,
          "velocity": 0.15748031496062992
        },
        {
          "duration": 0.04651162790699459,
          "durationTicks": 4,
          "midi": 80,
          "name": "G#5",
          "ticks": 11365,
          "time": 132.15116279069767,
          "velocity": 0.10236220472440945
        },
        {
          "duration": 0.08139534883721922,
          "durationTicks": 7,
          "midi": 93,
          "name": "A6",
          "ticks": 11365,
          "time": 132.15116279069767,
          "velocity": 0.12598425196850394
        },
        {
          "duration": 0.43023255813955075,
          "durationTicks": 37,
          "midi": 50,
          "name": "D3",
          "ticks": 11366,
          "time": 132.1627906976744,
          "velocity": 0.4881889763779528
        },
        {
          "duration": 0.11627906976744384,
          "durationTicks": 10,
          "midi": 38,
          "name": "D2",
          "ticks": 11367,
          "time": 132.17441860465115,
          "velocity": 0.44881889763779526
        },
        {
          "duration": 0.4418604651162923,
          "durationTicks": 38,
          "midi": 66,
          "name": "F#4",
          "ticks": 11367,
          "time": 132.17441860465115,
          "velocity": 0.2677165354330709
        },
        {
          "duration": 0.67441860465118,
          "durationTicks": 58,
          "midi": 57,
          "name": "A3",
          "ticks": 11368,
          "time": 132.1860465116279,
          "velocity": 0.4330708661417323
        },
        {
          "duration": 0.1046511627907023,
          "durationTicks": 9,
          "midi": 80,
          "name": "G#5",
          "ticks": 11370,
          "time": 132.2093023255814,
          "velocity": 0.07086614173228346
        },
        {
          "duration": 0.03488372093025305,
          "durationTicks": 3,
          "midi": 37,
          "name": "C#2",
          "ticks": 11377,
          "time": 132.2906976744186,
          "velocity": 0.28346456692913385
        },
        {
          "duration": 0.04651162790696617,
          "durationTicks": 4,
          "midi": 38,
          "name": "D2",
          "ticks": 11380,
          "time": 132.32558139534885,
          "velocity": 0.2755905511811024
        },
        {
          "duration": 0.19767441860466306,
          "durationTicks": 17,
          "midi": 80,
          "name": "G#5",
          "ticks": 11384,
          "time": 132.37209302325581,
          "velocity": 0.14960629921259844
        },
        {
          "duration": 0.023255813953483084,
          "durationTicks": 2,
          "midi": 40,
          "name": "E2",
          "ticks": 11385,
          "time": 132.38372093023256,
          "velocity": 0.44881889763779526
        },
        {
          "duration": 0.08139534883721922,
          "durationTicks": 7,
          "midi": 90,
          "name": "F#6",
          "ticks": 11385,
          "time": 132.38372093023256,
          "velocity": 0.10236220472440945
        },
        {
          "duration": 0.1046511627907023,
          "durationTicks": 9,
          "midi": 93,
          "name": "A6",
          "ticks": 11385,
          "time": 132.38372093023256,
          "velocity": 0.12598425196850394
        },
        {
          "duration": 0.22093023255814614,
          "durationTicks": 19,
          "midi": 72,
          "name": "C5",
          "ticks": 11386,
          "time": 132.3953488372093,
          "velocity": 0.1732283464566929
        },
        {
          "duration": 0.023255813953483084,
          "durationTicks": 2,
          "midi": 39,
          "name": "D#2",
          "ticks": 11387,
          "time": 132.40697674418604,
          "velocity": 0.4645669291338583
        },
        {
          "duration": 0.1046511627907023,
          "durationTicks": 9,
          "midi": 38,
          "name": "D2",
          "ticks": 11389,
          "time": 132.43023255813952,
          "velocity": 0.44881889763779526
        },
        {
          "duration": 0.04651162790699459,
          "durationTicks": 4,
          "midi": 38,
          "name": "D2",
          "ticks": 11399,
          "time": 132.54651162790697,
          "velocity": 0.29133858267716534
        },
        {
          "duration": 0.17441860465115155,
          "durationTicks": 15,
          "midi": 76,
          "name": "E5",
          "ticks": 11403,
          "time": 132.59302325581396,
          "velocity": 0.12598425196850394
        },
        {
          "duration": 0.24418604651162923,
          "durationTicks": 21,
          "midi": 85,
          "name": "C#6",
          "ticks": 11403,
          "time": 132.59302325581396,
          "velocity": 0.2283464566929134
        },
        {
          "duration": 0.22093023255814614,
          "durationTicks": 19,
          "midi": 45,
          "name": "A2",
          "ticks": 11404,
          "time": 132.6046511627907,
          "velocity": 0.49606299212598426
        },
        {
          "duration": 0.034883720930224626,
          "durationTicks": 3,
          "midi": 77,
          "name": "F5",
          "ticks": 11404,
          "time": 132.6046511627907,
          "velocity": 0.14960629921259844
        },
        {
          "duration": 0.24418604651162923,
          "durationTicks": 21,
          "midi": 79,
          "name": "G5",
          "ticks": 11404,
          "time": 132.6046511627907,
          "velocity": 0.16535433070866143
        },
        {
          "duration": 0.06976744186044925,
          "durationTicks": 6,
          "midi": 83,
          "name": "B5",
          "ticks": 11404,
          "time": 132.6046511627907,
          "velocity": 0.11023622047244094
        },
        {
          "duration": 0.023255813953483084,
          "durationTicks": 2,
          "midi": 61,
          "name": "C#4",
          "ticks": 11405,
          "time": 132.61627906976744,
          "velocity": 0.2755905511811024
        },
        {
          "duration": 0.22093023255814614,
          "durationTicks": 19,
          "midi": 67,
          "name": "G4",
          "ticks": 11405,
          "time": 132.61627906976744,
          "velocity": 0.2204724409448819
        },
        {
          "duration": 0.023255813953483084,
          "durationTicks": 2,
          "midi": 74,
          "name": "D5",
          "ticks": 11405,
          "time": 132.61627906976744,
          "velocity": 0.2283464566929134
        },
        {
          "duration": 0.2093023255814046,
          "durationTicks": 18,
          "midi": 75,
          "name": "D#5",
          "ticks": 11407,
          "time": 132.63953488372093,
          "velocity": 0.2204724409448819
        },
        {
          "duration": 0.023255813953483084,
          "durationTicks": 2,
          "midi": 52,
          "name": "E3",
          "ticks": 11409,
          "time": 132.6627906976744,
          "velocity": 0.23622047244094488
        },
        {
          "duration": 0.03488372093025305,
          "durationTicks": 3,
          "midi": 61,
          "name": "C#4",
          "ticks": 11409,
          "time": 132.6627906976744,
          "velocity": 0.2283464566929134
        },
        {
          "duration": 0.034883720930224626,
          "durationTicks": 3,
          "midi": 52,
          "name": "E3",
          "ticks": 11413,
          "time": 132.7093023255814,
          "velocity": 0.2283464566929134
        },
        {
          "duration": 0.034883720930224626,
          "durationTicks": 3,
          "midi": 61,
          "name": "C#4",
          "ticks": 11413,
          "time": 132.7093023255814,
          "velocity": 0.1732283464566929
        },
        {
          "duration": 0.08139534883721922,
          "durationTicks": 7,
          "midi": 52,
          "name": "E3",
          "ticks": 11417,
          "time": 132.75581395348837,
          "velocity": 0.25196850393700787
        },
        {
          "duration": 0.05813953488373613,
          "durationTicks": 5,
          "midi": 61,
          "name": "C#4",
          "ticks": 11417,
          "time": 132.75581395348837,
          "velocity": 0.14960629921259844
        },
        {
          "duration": 0.15116279069766847,
          "durationTicks": 13,
          "midi": 88,
          "name": "E6",
          "ticks": 11423,
          "time": 132.82558139534885,
          "velocity": 0.15748031496062992
        },
        {
          "duration": 0.13953488372092693,
          "durationTicks": 12,
          "midi": 91,
          "name": "G6",
          "ticks": 11423,
          "time": 132.82558139534885,
          "velocity": 0.1889763779527559
        },
        {
          "duration": 0.13953488372092693,
          "durationTicks": 12,
          "midi": 64,
          "name": "E4",
          "ticks": 11424,
          "time": 132.8372093023256,
          "velocity": 0.1968503937007874
        },
        {
          "duration": 0.13953488372092693,
          "durationTicks": 12,
          "midi": 69,
          "name": "A4",
          "ticks": 11424,
          "time": 132.8372093023256,
          "velocity": 0.47244094488188976
        },
        {
          "duration": 0.19767441860463464,
          "durationTicks": 17,
          "midi": 95,
          "name": "B6",
          "ticks": 11424,
          "time": 132.8372093023256,
          "velocity": 0.1732283464566929
        },
        {
          "duration": 0.023255813953483084,
          "durationTicks": 2,
          "midi": 47,
          "name": "B2",
          "ticks": 11425,
          "time": 132.84883720930233,
          "velocity": 0.4881889763779528
        },
        {
          "duration": 0.04651162790696617,
          "durationTicks": 4,
          "midi": 74,
          "name": "D5",
          "ticks": 11425,
          "time": 132.84883720930233,
          "velocity": 0.1889763779527559
        },
        {
          "duration": 0.12790697674418539,
          "durationTicks": 11,
          "midi": 85,
          "name": "C#6",
          "ticks": 11425,
          "time": 132.84883720930233,
          "velocity": 0.2204724409448819
        },
        {
          "duration": 0.08139534883721922,
          "durationTicks": 7,
          "midi": 48,
          "name": "C3",
          "ticks": 11427,
          "time": 132.87209302325581,
          "velocity": 0.4251968503937008
        },
        {
          "duration": 0.023255813953483084,
          "durationTicks": 2,
          "midi": 58,
          "name": "A#3",
          "ticks": 11427,
          "time": 132.87209302325581,
          "velocity": 0.33858267716535434
        },
        {
          "duration": 0.1046511627907023,
          "durationTicks": 9,
          "midi": 78,
          "name": "F#5",
          "ticks": 11427,
          "time": 132.87209302325581,
          "velocity": 0.10236220472440945
        },
        {
          "duration": 0.05813953488370771,
          "durationTicks": 5,
          "midi": 83,
          "name": "B5",
          "ticks": 11427,
          "time": 132.87209302325581,
          "velocity": 0.07874015748031496
        },
        {
          "duration": 0.034883720930224626,
          "durationTicks": 3,
          "midi": 37,
          "name": "C#2",
          "ticks": 11428,
          "time": 132.88372093023256,
          "velocity": 0.4409448818897638
        },
        {
          "duration": 0.023255813953483084,
          "durationTicks": 2,
          "midi": 56,
          "name": "G#3",
          "ticks": 11429,
          "time": 132.8953488372093,
          "velocity": 0.3858267716535433
        },
        {
          "duration": 0.04651162790699459,
          "durationTicks": 4,
          "midi": 67,
          "name": "G4",
          "ticks": 11429,
          "time": 132.8953488372093,
          "velocity": 0.16535433070866143
        },
        {
          "duration": 0.08139534883721922,
          "durationTicks": 7,
          "midi": 36,
          "name": "C2",
          "ticks": 11431,
          "time": 132.91860465116278,
          "velocity": 0.3937007874015748
        },
        {
          "duration": 0.03488372093025305,
          "durationTicks": 3,
          "midi": 74,
          "name": "D5",
          "ticks": 11431,
          "time": 132.91860465116278,
          "velocity": 0.10236220472440945
        },
        {
          "duration": 0.12790697674418539,
          "durationTicks": 11,
          "midi": 71,
          "name": "B4",
          "ticks": 11434,
          "time": 132.95348837209303,
          "velocity": 0.4409448818897638
        },
        {
          "duration": 0.1046511627907023,
          "durationTicks": 9,
          "midi": 87,
          "name": "D#6",
          "ticks": 11435,
          "time": 132.96511627906978,
          "velocity": 0.1889763779527559
        },
        {
          "duration": 0.034883720930224626,
          "durationTicks": 3,
          "midi": 59,
          "name": "B3",
          "ticks": 11436,
          "time": 132.97674418604652,
          "velocity": 0.3779527559055118
        },
        {
          "duration": 0.09302325581396076,
          "durationTicks": 8,
          "midi": 67,
          "name": "G4",
          "ticks": 11436,
          "time": 132.97674418604652,
          "velocity": 0.11811023622047244
        },
        {
          "duration": 0.08139534883721922,
          "durationTicks": 7,
          "midi": 55,
          "name": "G3",
          "ticks": 11437,
          "time": 132.98837209302326,
          "velocity": 0.2677165354330709
        },
        {
          "duration": 0.09302325581396076,
          "durationTicks": 8,
          "midi": 64,
          "name": "E4",
          "ticks": 11437,
          "time": 132.98837209302326,
          "velocity": 0.1889763779527559
        },
        {
          "duration": 0.023255813953483084,
          "durationTicks": 2,
          "midi": 36,
          "name": "C2",
          "ticks": 11439,
          "time": 133.01162790697674,
          "velocity": 0.2755905511811024
        },
        {
          "duration": 0.04651162790699459,
          "durationTicks": 4,
          "midi": 59,
          "name": "B3",
          "ticks": 11441,
          "time": 133.03488372093022,
          "velocity": 0.3858267716535433
        },
        {
          "duration": 0.023255813953511506,
          "durationTicks": 2,
          "midi": 36,
          "name": "C2",
          "ticks": 11442,
          "time": 133.04651162790697,
          "velocity": 0.29133858267716534
        },
        {
          "duration": 0.23255813953485927,
          "durationTicks": 20,
          "midi": 69,
          "name": "A4",
          "ticks": 11444,
          "time": 133.06976744186048,
          "velocity": 0.4015748031496063
        },
        {
          "duration": 0.04651162790696617,
          "durationTicks": 4,
          "midi": 90,
          "name": "F#6",
          "ticks": 11444,
          "time": 133.06976744186048,
          "velocity": 0.12598425196850394
        },
        {
          "duration": 0.023255813953483084,
          "durationTicks": 2,
          "midi": 40,
          "name": "E2",
          "ticks": 11445,
          "time": 133.08139534883722,
          "velocity": 0.48031496062992124
        },
        {
          "duration": 0.33720930232556157,
          "durationTicks": 29,
          "midi": 66,
          "name": "F#4",
          "ticks": 11445,
          "time": 133.08139534883722,
          "velocity": 0.25196850393700787
        },
        {
          "duration": 0.15116279069766847,
          "durationTicks": 13,
          "midi": 85,
          "name": "C#6",
          "ticks": 11445,
          "time": 133.08139534883722,
          "velocity": 0.2047244094488189
        },
        {
          "duration": 0.20930232558137618,
          "durationTicks": 18,
          "midi": 50,
          "name": "D3",
          "ticks": 11446,
          "time": 133.09302325581396,
          "velocity": 0.4409448818897638
        },
        {
          "duration": 0.06976744186044925,
          "durationTicks": 6,
          "midi": 84,
          "name": "C6",
          "ticks": 11446,
          "time": 133.09302325581396,
          "velocity": 0.10236220472440945
        },
        {
          "duration": 0.034883720930224626,
          "durationTicks": 3,
          "midi": 39,
          "name": "D#2",
          "ticks": 11447,
          "time": 133.1046511627907,
          "velocity": 0.4409448818897638
        },
        {
          "duration": 0.034883720930224626,
          "durationTicks": 3,
          "midi": 71,
          "name": "B4",
          "ticks": 11447,
          "time": 133.1046511627907,
          "velocity": 0.1968503937007874
        },
        {
          "duration": 0.16279069767441,
          "durationTicks": 14,
          "midi": 57,
          "name": "A3",
          "ticks": 11449,
          "time": 133.12790697674419,
          "velocity": 0.33070866141732286
        },
        {
          "duration": 0.034883720930224626,
          "durationTicks": 3,
          "midi": 91,
          "name": "G6",
          "ticks": 11449,
          "time": 133.12790697674419,
          "velocity": 0.11023622047244094
        },
        {
          "duration": 0.13953488372092693,
          "durationTicks": 12,
          "midi": 38,
          "name": "D2",
          "ticks": 11450,
          "time": 133.13953488372093,
          "velocity": 0.3937007874015748
        },
        {
          "duration": 0.1046511627907023,
          "durationTicks": 9,
          "midi": 80,
          "name": "G#5",
          "ticks": 11450,
          "time": 133.13953488372093,
          "velocity": 0.07874015748031496
        },
        {
          "duration": 0.4186046511628092,
          "durationTicks": 36,
          "midi": 76,
          "name": "E5",
          "ticks": 11451,
          "time": 133.15116279069767,
          "velocity": 0.16535433070866143
        },
        {
          "duration": 0.11627906976744384,
          "durationTicks": 10,
          "midi": 72,
          "name": "C5",
          "ticks": 11453,
          "time": 133.17441860465115,
          "velocity": 0.09448818897637795
        },
        {
          "duration": 0.03488372093025305,
          "durationTicks": 3,
          "midi": 85,
          "name": "C#6",
          "ticks": 11463,
          "time": 133.2906976744186,
          "velocity": 0.12598425196850394
        },
        {
          "duration": 0.1046511627907023,
          "durationTicks": 9,
          "midi": 57,
          "name": "A3",
          "ticks": 11464,
          "time": 133.30232558139534,
          "velocity": 0.33070866141732286
        },
        {
          "duration": 0.2325581395348877,
          "durationTicks": 20,
          "midi": 62,
          "name": "D4",
          "ticks": 11464,
          "time": 133.30232558139534,
          "velocity": 0.2283464566929134
        },
        {
          "duration": 0.10465116279067388,
          "durationTicks": 9,
          "midi": 50,
          "name": "D3",
          "ticks": 11465,
          "time": 133.3139534883721,
          "velocity": 0.4566929133858268
        },
        {
          "duration": 0.10465116279067388,
          "durationTicks": 9,
          "midi": 72,
          "name": "C5",
          "ticks": 11465,
          "time": 133.3139534883721,
          "velocity": 0.11023622047244094
        },
        {
          "duration": 0.034883720930224626,
          "durationTicks": 3,
          "midi": 39,
          "name": "D#2",
          "ticks": 11466,
          "time": 133.32558139534885,
          "velocity": 0.4409448818897638
        },
        {
          "duration": 0.05813953488370771,
          "durationTicks": 5,
          "midi": 38,
          "name": "D2",
          "ticks": 11469,
          "time": 133.36046511627907,
          "velocity": 0.4330708661417323
        },
        {
          "duration": 0.023255813953511506,
          "durationTicks": 2,
          "midi": 54,
          "name": "F#3",
          "ticks": 11474,
          "time": 133.41860465116278,
          "velocity": 0.4094488188976378
        },
        {
          "duration": 0.1046511627907023,
          "durationTicks": 9,
          "midi": 67,
          "name": "G4",
          "ticks": 11474,
          "time": 133.41860465116278,
          "velocity": 0.4409448818897638
        },
        {
          "duration": 0.17441860465117998,
          "durationTicks": 15,
          "midi": 83,
          "name": "B5",
          "ticks": 11474,
          "time": 133.41860465116278,
          "velocity": 0.18110236220472442
        },
        {
          "duration": 0.05813953488373613,
          "durationTicks": 5,
          "midi": 38,
          "name": "D2",
          "ticks": 11475,
          "time": 133.43023255813952,
          "velocity": 0.3464566929133858
        },
        {
          "duration": 0.05813953488373613,
          "durationTicks": 5,
          "midi": 86,
          "name": "D6",
          "ticks": 11475,
          "time": 133.43023255813952,
          "velocity": 0.07874015748031496
        },
        {
          "duration": 0.023255813953483084,
          "durationTicks": 2,
          "midi": 56,
          "name": "G#3",
          "ticks": 11476,
          "time": 133.4418604651163,
          "velocity": 0.3858267716535433
        },
        {
          "duration": 0.10465116279067388,
          "durationTicks": 9,
          "midi": 72,
          "name": "C5",
          "ticks": 11476,
          "time": 133.4418604651163,
          "velocity": 0.16535433070866143
        },
        {
          "duration": 0.09302325581393234,
          "durationTicks": 8,
          "midi": 89,
          "name": "F6",
          "ticks": 11476,
          "time": 133.4418604651163,
          "velocity": 0.11023622047244094
        },
        {
          "duration": 0.023255813953483084,
          "durationTicks": 2,
          "midi": 57,
          "name": "A3",
          "ticks": 11478,
          "time": 133.46511627906978,
          "velocity": 0.31496062992125984
        },
        {
          "duration": 0.023255813953483084,
          "durationTicks": 2,
          "midi": 38,
          "name": "D2",
          "ticks": 11481,
          "time": 133.5,
          "velocity": 0.28346456692913385
        },
        {
          "duration": 0.023255813953483084,
          "durationTicks": 2,
          "midi": 55,
          "name": "G3",
          "ticks": 11481,
          "time": 133.5,
          "velocity": 0.23622047244094488
        },
        {
          "duration": 0.023255813953483084,
          "durationTicks": 2,
          "midi": 66,
          "name": "F#4",
          "ticks": 11483,
          "time": 133.52325581395348,
          "velocity": 0.23622047244094488
        },
        {
          "duration": 0.4767441860465169,
          "durationTicks": 41,
          "midi": 85,
          "name": "C#6",
          "ticks": 11483,
          "time": 133.52325581395348,
          "velocity": 0.2283464566929134
        },
        {
          "duration": 0.06976744186047767,
          "durationTicks": 6,
          "midi": 93,
          "name": "A6",
          "ticks": 11483,
          "time": 133.52325581395348,
          "velocity": 0.09448818897637795
        },
        {
          "duration": 0.22093023255814614,
          "durationTicks": 19,
          "midi": 45,
          "name": "A2",
          "ticks": 11485,
          "time": 133.54651162790697,
          "velocity": 0.5275590551181102
        },
        {
          "duration": 0.1046511627907023,
          "durationTicks": 9,
          "midi": 67,
          "name": "G4",
          "ticks": 11486,
          "time": 133.5581395348837,
          "velocity": 0.30708661417322836
        },
        {
          "duration": 0.03488372093025305,
          "durationTicks": 3,
          "midi": 74,
          "name": "D5",
          "ticks": 11486,
          "time": 133.5581395348837,
          "velocity": 0.2440944881889764
        },
        {
          "duration": 0.19767441860463464,
          "durationTicks": 17,
          "midi": 61,
          "name": "C#4",
          "ticks": 11487,
          "time": 133.56976744186048,
          "velocity": 0.25196850393700787
        },
        {
          "duration": 0.034883720930224626,
          "durationTicks": 3,
          "midi": 75,
          "name": "D#5",
          "ticks": 11489,
          "time": 133.59302325581396,
          "velocity": 0.1968503937007874
        },
        {
          "duration": 0.034883720930224626,
          "durationTicks": 3,
          "midi": 83,
          "name": "B5",
          "ticks": 11490,
          "time": 133.6046511627907,
          "velocity": 0.13385826771653545
        },
        {
          "duration": 0.034883720930224626,
          "durationTicks": 3,
          "midi": 75,
          "name": "D#5",
          "ticks": 11494,
          "time": 133.65116279069767,
          "velocity": 0.15748031496062992
        },
        {
          "duration": 0.05813953488373613,
          "durationTicks": 5,
          "midi": 67,
          "name": "G4",
          "ticks": 11497,
          "time": 133.6860465116279,
          "velocity": 0.2283464566929134
        },
        {
          "duration": 0.06976744186044925,
          "durationTicks": 6,
          "midi": 75,
          "name": "D#5",
          "ticks": 11499,
          "time": 133.7093023255814,
          "velocity": 0.1968503937007874
        },
        {
          "duration": 0.023255813953483084,
          "durationTicks": 2,
          "midi": 55,
          "name": "G3",
          "ticks": 11501,
          "time": 133.7325581395349,
          "velocity": 0.25984251968503935
        },
        {
          "duration": 0.034883720930224626,
          "durationTicks": 3,
          "midi": 78,
          "name": "F#5",
          "ticks": 11502,
          "time": 133.74418604651163,
          "velocity": 0.13385826771653545
        },
        {
          "duration": 0.2325581395348877,
          "durationTicks": 20,
          "midi": 81,
          "name": "A5",
          "ticks": 11502,
          "time": 133.74418604651163,
          "velocity": 0.25196850393700787
        },
        {
          "duration": 0.12790697674418539,
          "durationTicks": 11,
          "midi": 83,
          "name": "B5",
          "ticks": 11502,
          "time": 133.74418604651163,
          "velocity": 0.11023622047244094
        },
        {
          "duration": 0.13953488372092693,
          "durationTicks": 12,
          "midi": 91,
          "name": "G6",
          "ticks": 11502,
          "time": 133.74418604651163,
          "velocity": 0.1889763779527559
        },
        {
          "duration": 0.22093023255814614,
          "durationTicks": 19,
          "midi": 64,
          "name": "E4",
          "ticks": 11503,
          "time": 133.75581395348837,
          "velocity": 0.18110236220472442
        },
        {
          "duration": 0.22093023255814614,
          "durationTicks": 19,
          "midi": 69,
          "name": "A4",
          "ticks": 11503,
          "time": 133.75581395348837,
          "velocity": 0.4645669291338583
        },
        {
          "duration": 0.12790697674418539,
          "durationTicks": 11,
          "midi": 88,
          "name": "E6",
          "ticks": 11503,
          "time": 133.75581395348837,
          "velocity": 0.15748031496062992
        },
        {
          "duration": 0.17441860465115155,
          "durationTicks": 15,
          "midi": 95,
          "name": "B6",
          "ticks": 11503,
          "time": 133.75581395348837,
          "velocity": 0.14960629921259844
        },
        {
          "duration": 0.04651162790699459,
          "durationTicks": 4,
          "midi": 60,
          "name": "C4",
          "ticks": 11504,
          "time": 133.7674418604651,
          "velocity": 0.2992125984251969
        },
        {
          "duration": 0.13953488372092693,
          "durationTicks": 12,
          "midi": 78,
          "name": "F#5",
          "ticks": 11506,
          "time": 133.7906976744186,
          "velocity": 0.09448818897637795
        },
        {
          "duration": 0.03488372093025305,
          "durationTicks": 3,
          "midi": 37,
          "name": "C#2",
          "ticks": 11507,
          "time": 133.80232558139534,
          "velocity": 0.44881889763779526
        },
        {
          "duration": 0.023255813953483084,
          "durationTicks": 2,
          "midi": 56,
          "name": "G#3",
          "ticks": 11508,
          "time": 133.8139534883721,
          "velocity": 0.33858267716535434
        },
        {
          "duration": 0.17441860465115155,
          "durationTicks": 15,
          "midi": 48,
          "name": "C3",
          "ticks": 11509,
          "time": 133.82558139534885,
          "velocity": 0.5039370078740157
        },
        {
          "duration": 0.0813953488371908,
          "durationTicks": 7,
          "midi": 36,
          "name": "C2",
          "ticks": 11510,
          "time": 133.8372093023256,
          "velocity": 0.3937007874015748
        },
        {
          "duration": 0.034883720930224626,
          "durationTicks": 3,
          "midi": 74,
          "name": "D5",
          "ticks": 11510,
          "time": 133.8372093023256,
          "velocity": 0.07874015748031496
        },
        {
          "duration": 0.023255813953483084,
          "durationTicks": 2,
          "midi": 56,
          "name": "G#3",
          "ticks": 11515,
          "time": 133.8953488372093,
          "velocity": 0.30708661417322836
        },
        {
          "duration": 0.04651162790699459,
          "durationTicks": 4,
          "midi": 67,
          "name": "G4",
          "ticks": 11515,
          "time": 133.8953488372093,
          "velocity": 0.11023622047244094
        },
        {
          "duration": 0.03488372093025305,
          "durationTicks": 3,
          "midi": 35,
          "name": "B1",
          "ticks": 11517,
          "time": 133.91860465116278,
          "velocity": 0.25984251968503935
        },
        {
          "duration": 0.023255813953483084,
          "durationTicks": 2,
          "midi": 56,
          "name": "G#3",
          "ticks": 11519,
          "time": 133.9418604651163,
          "velocity": 0.25984251968503935
        },
        {
          "duration": 0.023255813953483084,
          "durationTicks": 2,
          "midi": 36,
          "name": "C2",
          "ticks": 11520,
          "time": 133.95348837209303,
          "velocity": 0.25984251968503935
        },
        {
          "duration": 0.034883720930224626,
          "durationTicks": 3,
          "midi": 55,
          "name": "G3",
          "ticks": 11522,
          "time": 133.97674418604652,
          "velocity": 0.31496062992125984
        },
        {
          "duration": 0.034883720930224626,
          "durationTicks": 3,
          "midi": 79,
          "name": "G5",
          "ticks": 11522,
          "time": 133.97674418604652,
          "velocity": 0.11023622047244094
        },
        {
          "duration": 0.45348837209303383,
          "durationTicks": 39,
          "midi": 62,
          "name": "D4",
          "ticks": 11523,
          "time": 133.98837209302326,
          "velocity": 0.30708661417322836
        },
        {
          "duration": 0.4651162790697754,
          "durationTicks": 40,
          "midi": 66,
          "name": "F#4",
          "ticks": 11523,
          "time": 133.98837209302326,
          "velocity": 0.2677165354330709
        },
        {
          "duration": 0.22093023255814614,
          "durationTicks": 19,
          "midi": 72,
          "name": "C5",
          "ticks": 11523,
          "time": 133.98837209302326,
          "velocity": 0.14960629921259844
        },
        {
          "duration": 0.15116279069766847,
          "durationTicks": 13,
          "midi": 93,
          "name": "A6",
          "ticks": 11523,
          "time": 133.98837209302326,
          "velocity": 0.13385826771653545
        },
        {
          "duration": 0.034883720930224626,
          "durationTicks": 3,
          "midi": 38,
          "name": "D2",
          "ticks": 11524,
          "time": 134,
          "velocity": 0.4566929133858268
        },
        {
          "duration": 0.034883720930224626,
          "durationTicks": 3,
          "midi": 69,
          "name": "A4",
          "ticks": 11524,
          "time": 134,
          "velocity": 0.11811023622047244
        },
        {
          "duration": 0.43023255813955075,
          "durationTicks": 37,
          "midi": 50,
          "name": "D3",
          "ticks": 11525,
          "time": 134.01162790697674,
          "velocity": 0.49606299212598426
        },
        {
          "duration": 0.04651162790699459,
          "durationTicks": 4,
          "midi": 39,
          "name": "D#2",
          "ticks": 11527,
          "time": 134.03488372093022,
          "velocity": 0.4094488188976378
        },
        {
          "duration": 0.13953488372092693,
          "durationTicks": 12,
          "midi": 57,
          "name": "A3",
          "ticks": 11528,
          "time": 134.04651162790697,
          "velocity": 0.15748031496062992
        },
        {
          "duration": 0.09302325581396076,
          "durationTicks": 8,
          "midi": 80,
          "name": "G#5",
          "ticks": 11528,
          "time": 134.04651162790697,
          "velocity": 0.07086614173228346
        },
        {
          "duration": 0.04651162790699459,
          "durationTicks": 4,
          "midi": 85,
          "name": "C#6",
          "ticks": 11529,
          "time": 134.0581395348837,
          "velocity": 0.07086614173228346
        },
        {
          "duration": 0.04651162790696617,
          "durationTicks": 4,
          "midi": 38,
          "name": "D2",
          "ticks": 11531,
          "time": 134.08139534883722,
          "velocity": 0.3543307086614173
        },
        {
          "duration": 0.023255813953483084,
          "durationTicks": 2,
          "midi": 37,
          "name": "C#2",
          "ticks": 11535,
          "time": 134.12790697674419,
          "velocity": 0.2755905511811024
        },
        {
          "duration": 0.05813953488373613,
          "durationTicks": 5,
          "midi": 38,
          "name": "D2",
          "ticks": 11537,
          "time": 134.15116279069767,
          "velocity": 0.2677165354330709
        },
        {
          "duration": 0.24418604651162923,
          "durationTicks": 21,
          "midi": 57,
          "name": "A3",
          "ticks": 11542,
          "time": 134.2093023255814,
          "velocity": 0.33070866141732286
        },
        {
          "duration": 0.19767441860463464,
          "durationTicks": 17,
          "midi": 80,
          "name": "G#5",
          "ticks": 11542,
          "time": 134.2093023255814,
          "velocity": 0.14960629921259844
        },
        {
          "duration": 0.023255813953483084,
          "durationTicks": 2,
          "midi": 40,
          "name": "E2",
          "ticks": 11543,
          "time": 134.22093023255815,
          "velocity": 0.44881889763779526
        },
        {
          "duration": 0.0813953488371908,
          "durationTicks": 7,
          "midi": 90,
          "name": "F#6",
          "ticks": 11543,
          "time": 134.22093023255815,
          "velocity": 0.09448818897637795
        },
        {
          "duration": 0.22093023255814614,
          "durationTicks": 19,
          "midi": 72,
          "name": "C5",
          "ticks": 11544,
          "time": 134.2325581395349,
          "velocity": 0.13385826771653545
        },
        {
          "duration": 0.023255813953483084,
          "durationTicks": 2,
          "midi": 39,
          "name": "D#2",
          "ticks": 11545,
          "time": 134.24418604651163,
          "velocity": 0.4645669291338583
        },
        {
          "duration": 0.1046511627907023,
          "durationTicks": 9,
          "midi": 38,
          "name": "D2",
          "ticks": 11547,
          "time": 134.2674418604651,
          "velocity": 0.4409448818897638
        },
        {
          "duration": 0.17441860465117998,
          "durationTicks": 15,
          "midi": 76,
          "name": "E5",
          "ticks": 11548,
          "time": 134.27906976744185,
          "velocity": 0.11023622047244094
        },
        {
          "duration": 0.05813953488373613,
          "durationTicks": 5,
          "midi": 38,
          "name": "D2",
          "ticks": 11557,
          "time": 134.38372093023256,
          "velocity": 0.29133858267716534
        },
        {
          "duration": 0.2674418604651123,
          "durationTicks": 23,
          "midi": 74,
          "name": "D5",
          "ticks": 11562,
          "time": 134.4418604651163,
          "velocity": 0.3228346456692913
        },
        {
          "duration": 0.023255813953483084,
          "durationTicks": 2,
          "midi": 84,
          "name": "C6",
          "ticks": 11562,
          "time": 134.4418604651163,
          "velocity": 0.2283464566929134
        },
        {
          "duration": 0.1860465116278931,
          "durationTicks": 16,
          "midi": 71,
          "name": "B4",
          "ticks": 11563,
          "time": 134.45348837209303,
          "velocity": 0.13385826771653545
        },
        {
          "duration": 0.24418604651162923,
          "durationTicks": 21,
          "midi": 77,
          "name": "F5",
          "ticks": 11563,
          "time": 134.45348837209303,
          "velocity": 0.18110236220472442
        },
        {
          "duration": 0.22093023255811772,
          "durationTicks": 19,
          "midi": 81,
          "name": "A5",
          "ticks": 11563,
          "time": 134.45348837209303,
          "velocity": 0.14173228346456693
        },
        {
          "duration": 0.25581395348837077,
          "durationTicks": 22,
          "midi": 83,
          "name": "B5",
          "ticks": 11563,
          "time": 134.45348837209303,
          "velocity": 0.2125984251968504
        },
        {
          "duration": 0.13953488372092693,
          "durationTicks": 12,
          "midi": 90,
          "name": "F#6",
          "ticks": 11563,
          "time": 134.45348837209303,
          "velocity": 0.07874015748031496
        },
        {
          "duration": 0.16279069767441,
          "durationTicks": 14,
          "midi": 93,
          "name": "A6",
          "ticks": 11563,
          "time": 134.45348837209303,
          "velocity": 0.14173228346456693
        },
        {
          "duration": 0.023255813953483084,
          "durationTicks": 2,
          "midi": 54,
          "name": "F#3",
          "ticks": 11564,
          "time": 134.46511627906978,
          "velocity": 0.44881889763779526
        },
        {
          "duration": 0.19767441860463464,
          "durationTicks": 17,
          "midi": 62,
          "name": "D4",
          "ticks": 11564,
          "time": 134.46511627906978,
          "velocity": 0.18110236220472442
        },
        {
          "duration": 0.19767441860463464,
          "durationTicks": 17,
          "midi": 67,
          "name": "G4",
          "ticks": 11564,
          "time": 134.46511627906978,
          "velocity": 0.23622047244094488
        },
        {
          "duration": 0.32558139534882,
          "durationTicks": 28,
          "midi": 85,
          "name": "C#6",
          "ticks": 11564,
          "time": 134.46511627906978,
          "velocity": 0.2204724409448819
        },
        {
          "duration": 0.034883720930224626,
          "durationTicks": 3,
          "midi": 98,
          "name": "D7",
          "ticks": 11565,
          "time": 134.47674418604652,
          "velocity": 0.09448818897637795
        },
        {
          "duration": 0.16279069767441,
          "durationTicks": 14,
          "midi": 55,
          "name": "G3",
          "ticks": 11566,
          "time": 134.48837209302326,
          "velocity": 0.41732283464566927
        },
        {
          "duration": 0.023255813953483084,
          "durationTicks": 2,
          "midi": 43,
          "name": "G2",
          "ticks": 11569,
          "time": 134.52325581395348,
          "velocity": 0.3779527559055118
        },
        {
          "duration": 0.034883720930224626,
          "durationTicks": 3,
          "midi": 43,
          "name": "G2",
          "ticks": 11573,
          "time": 134.56976744186048,
          "velocity": 0.3543307086614173
        },
        {
          "duration": 0.04651162790696617,
          "durationTicks": 4,
          "midi": 43,
          "name": "G2",
          "ticks": 11577,
          "time": 134.61627906976744,
          "velocity": 0.33858267716535434
        },
        {
          "duration": 0.2325581395348877,
          "durationTicks": 20,
          "midi": 65,
          "name": "F4",
          "ticks": 11581,
          "time": 134.6627906976744,
          "velocity": 0.2677165354330709
        },
        {
          "duration": 0.2325581395348877,
          "durationTicks": 20,
          "midi": 69,
          "name": "A4",
          "ticks": 11581,
          "time": 134.6627906976744,
          "velocity": 0.2047244094488189
        },
        {
          "duration": 0.22093023255814614,
          "durationTicks": 19,
          "midi": 53,
          "name": "F3",
          "ticks": 11582,
          "time": 134.67441860465115,
          "velocity": 0.4645669291338583
        },
        {
          "duration": 0.22093023255814614,
          "durationTicks": 19,
          "midi": 60,
          "name": "C4",
          "ticks": 11582,
          "time": 134.67441860465115,
          "velocity": 0.31496062992125984
        },
        {
          "duration": 0.05813953488373613,
          "durationTicks": 5,
          "midi": 93,
          "name": "A6",
          "ticks": 11582,
          "time": 134.67441860465115,
          "velocity": 0.07086614173228346
        },
        {
          "duration": 0.04651162790699459,
          "durationTicks": 4,
          "midi": 42,
          "name": "F#2",
          "ticks": 11583,
          "time": 134.6860465116279,
          "velocity": 0.48031496062992124
        },
        {
          "duration": 0.04651162790699459,
          "durationTicks": 4,
          "midi": 87,
          "name": "D#6",
          "ticks": 11583,
          "time": 134.6860465116279,
          "velocity": 0.07874015748031496
        },
        {
          "duration": 0.04651162790696617,
          "durationTicks": 4,
          "midi": 96,
          "name": "C7",
          "ticks": 11584,
          "time": 134.69767441860466,
          "velocity": 0.11811023622047244
        },
        {
          "duration": 0.034883720930224626,
          "durationTicks": 3,
          "midi": 83,
          "name": "B5",
          "ticks": 11586,
          "time": 134.72093023255815,
          "velocity": 0.12598425196850394
        },
        {
          "duration": 0.09302325581396076,
          "durationTicks": 8,
          "midi": 41,
          "name": "F2",
          "ticks": 11587,
          "time": 134.7325581395349,
          "velocity": 0.3779527559055118
        },
        {
          "duration": 0.13953488372092693,
          "durationTicks": 12,
          "midi": 75,
          "name": "D#5",
          "ticks": 11589,
          "time": 134.75581395348837,
          "velocity": 0.12598425196850394
        },
        {
          "duration": 0.06976744186047767,
          "durationTicks": 6,
          "midi": 83,
          "name": "B5",
          "ticks": 11590,
          "time": 134.7674418604651,
          "velocity": 0.07874015748031496
        },
        {
          "duration": 0.05813953488370771,
          "durationTicks": 5,
          "midi": 41,
          "name": "F2",
          "ticks": 11596,
          "time": 134.8372093023256,
          "velocity": 0.31496062992125984
        },
        {
          "duration": 0.034883720930224626,
          "durationTicks": 3,
          "midi": 57,
          "name": "A3",
          "ticks": 11601,
          "time": 134.8953488372093,
          "velocity": 0.36220472440944884
        },
        {
          "duration": 0.023255813953483084,
          "durationTicks": 2,
          "midi": 67,
          "name": "G4",
          "ticks": 11601,
          "time": 134.8953488372093,
          "velocity": 0.49606299212598426
        },
        {
          "duration": 0.5116279069767415,
          "durationTicks": 44,
          "midi": 74,
          "name": "D5",
          "ticks": 11601,
          "time": 134.8953488372093,
          "velocity": 0.5039370078740157
        },
        {
          "duration": 0.25581395348837077,
          "durationTicks": 22,
          "midi": 78,
          "name": "F#5",
          "ticks": 11601,
          "time": 134.8953488372093,
          "velocity": 0.3228346456692913
        },
        {
          "duration": 0.22093023255814614,
          "durationTicks": 19,
          "midi": 81,
          "name": "A5",
          "ticks": 11601,
          "time": 134.8953488372093,
          "velocity": 0.25984251968503935
        },
        {
          "duration": 0.11627906976744384,
          "durationTicks": 10,
          "midi": 85,
          "name": "C#6",
          "ticks": 11601,
          "time": 134.8953488372093,
          "velocity": 0.2677165354330709
        },
        {
          "duration": 0.43023255813955075,
          "durationTicks": 37,
          "midi": 62,
          "name": "D4",
          "ticks": 11602,
          "time": 134.90697674418604,
          "velocity": 0.5275590551181102
        },
        {
          "duration": 0.2093023255814046,
          "durationTicks": 18,
          "midi": 72,
          "name": "C5",
          "ticks": 11602,
          "time": 134.90697674418604,
          "velocity": 0.25984251968503935
        },
        {
          "duration": 0.04651162790699459,
          "durationTicks": 4,
          "midi": 80,
          "name": "G#5",
          "ticks": 11602,
          "time": 134.90697674418604,
          "velocity": 0.12598425196850394
        },
        {
          "duration": 0.09302325581396076,
          "durationTicks": 8,
          "midi": 96,
          "name": "C7",
          "ticks": 11602,
          "time": 134.90697674418604,
          "velocity": 0.07874015748031496
        },
        {
          "duration": 0.023255813953511506,
          "durationTicks": 2,
          "midi": 40,
          "name": "E2",
          "ticks": 11603,
          "time": 134.91860465116278,
          "velocity": 0.4645669291338583
        },
        {
          "duration": 0.2093023255814046,
          "durationTicks": 18,
          "midi": 50,
          "name": "D3",
          "ticks": 11603,
          "time": 134.91860465116278,
          "velocity": 0.4645669291338583
        },
        {
          "duration": 0.4418604651162923,
          "durationTicks": 38,
          "midi": 66,
          "name": "F#4",
          "ticks": 11603,
          "time": 134.91860465116278,
          "velocity": 0.5669291338582677
        },
        {
          "duration": 0.04651162790696617,
          "durationTicks": 4,
          "midi": 39,
          "name": "D#2",
          "ticks": 11605,
          "time": 134.9418604651163,
          "velocity": 0.4645669291338583
        },
        {
          "duration": 0.17441860465115155,
          "durationTicks": 15,
          "midi": 57,
          "name": "A3",
          "ticks": 11605,
          "time": 134.9418604651163,
          "velocity": 0.30708661417322836
        },
        {
          "duration": 0.0813953488371908,
          "durationTicks": 7,
          "midi": 76,
          "name": "E5",
          "ticks": 11607,
          "time": 134.96511627906978,
          "velocity": 0.07874015748031496
        },
        {
          "duration": 0.11627906976744384,
          "durationTicks": 10,
          "midi": 80,
          "name": "G#5",
          "ticks": 11607,
          "time": 134.96511627906978,
          "velocity": 0.07086614173228346
        },
        {
          "duration": 0.06976744186044925,
          "durationTicks": 6,
          "midi": 38,
          "name": "D2",
          "ticks": 11609,
          "time": 134.98837209302326,
          "velocity": 0.3543307086614173
        },
        {
          "duration": 0.023255813953511506,
          "durationTicks": 2,
          "midi": 37,
          "name": "C#2",
          "ticks": 11615,
          "time": 135.0581395348837,
          "velocity": 0.25196850393700787
        },
        {
          "duration": 0.023255813953483084,
          "durationTicks": 2,
          "midi": 38,
          "name": "D2",
          "ticks": 11617,
          "time": 135.08139534883722,
          "velocity": 0.2755905511811024
        },
        {
          "duration": 0.023255813953483084,
          "durationTicks": 2,
          "midi": 56,
          "name": "G#3",
          "ticks": 11620,
          "time": 135.11627906976744,
          "velocity": 0.2440944881889764
        },
        {
          "duration": 0.12790697674418539,
          "durationTicks": 11,
          "midi": 76,
          "name": "E5",
          "ticks": 11620,
          "time": 135.11627906976744,
          "velocity": 0.11811023622047244
        },
        {
          "duration": 0.22093023255814614,
          "durationTicks": 19,
          "midi": 93,
          "name": "A6",
          "ticks": 11620,
          "time": 135.11627906976744,
          "velocity": 0.15748031496062992
        },
        {
          "duration": 0.1046511627907023,
          "durationTicks": 9,
          "midi": 50,
          "name": "D3",
          "ticks": 11622,
          "time": 135.13953488372093,
          "velocity": 0.44881889763779526
        },
        {
          "duration": 0.2093023255814046,
          "durationTicks": 18,
          "midi": 57,
          "name": "A3",
          "ticks": 11622,
          "time": 135.13953488372093,
          "velocity": 0.3937007874015748
        },
        {
          "duration": 0.22093023255814614,
          "durationTicks": 19,
          "midi": 72,
          "name": "C5",
          "ticks": 11622,
          "time": 135.13953488372093,
          "velocity": 0.13385826771653545
        },
        {
          "duration": 0.023255813953483084,
          "durationTicks": 2,
          "midi": 39,
          "name": "D#2",
          "ticks": 11623,
          "time": 135.15116279069767,
          "velocity": 0.4409448818897638
        },
        {
          "duration": 0.05813953488373613,
          "durationTicks": 5,
          "midi": 90,
          "name": "F#6",
          "ticks": 11623,
          "time": 135.15116279069767,
          "velocity": 0.16535433070866143
        },
        {
          "duration": 0.06976744186047767,
          "durationTicks": 6,
          "midi": 38,
          "name": "D2",
          "ticks": 11625,
          "time": 135.17441860465115,
          "velocity": 0.4330708661417323
        },
        {
          "duration": 0.11627906976744384,
          "durationTicks": 10,
          "midi": 90,
          "name": "F#6",
          "ticks": 11630,
          "time": 135.2325581395349,
          "velocity": 0.1889763779527559
        },
        {
          "duration": 0.3604651162790731,
          "durationTicks": 31,
          "midi": 85,
          "name": "C#6",
          "ticks": 11631,
          "time": 135.24418604651163,
          "velocity": 0.2677165354330709
        },
        {
          "duration": 0.023255813953483084,
          "durationTicks": 2,
          "midi": 41,
          "name": "F2",
          "ticks": 11632,
          "time": 135.25581395348837,
          "velocity": 0.4015748031496063
        },
        {
          "duration": 0.08139534883721922,
          "durationTicks": 7,
          "midi": 50,
          "name": "D3",
          "ticks": 11633,
          "time": 135.2674418604651,
          "velocity": 0.4330708661417323
        },
        {
          "duration": 0.023255813953511506,
          "durationTicks": 2,
          "midi": 39,
          "name": "D#2",
          "ticks": 11635,
          "time": 135.2906976744186,
          "velocity": 0.3858267716535433
        },
        {
          "duration": 0.04651162790696617,
          "durationTicks": 4,
          "midi": 38,
          "name": "D2",
          "ticks": 11637,
          "time": 135.3139534883721,
          "velocity": 0.3858267716535433
        },
        {
          "duration": 0.2674418604651123,
          "durationTicks": 23,
          "midi": 76,
          "name": "E5",
          "ticks": 11640,
          "time": 135.34883720930233,
          "velocity": 0.1968503937007874
        },
        {
          "duration": 0.25581395348837077,
          "durationTicks": 22,
          "midi": 79,
          "name": "G5",
          "ticks": 11640,
          "time": 135.34883720930233,
          "velocity": 0.16535433070866143
        },
        {
          "duration": 0.08139534883721922,
          "durationTicks": 7,
          "midi": 83,
          "name": "B5",
          "ticks": 11641,
          "time": 135.36046511627907,
          "velocity": 0.07874015748031496
        },
        {
          "duration": 0.2093023255814046,
          "durationTicks": 18,
          "midi": 45,
          "name": "A2",
          "ticks": 11642,
          "time": 135.37209302325581,
          "velocity": 0.5039370078740157
        },
        {
          "duration": 0.09302325581396076,
          "durationTicks": 8,
          "midi": 67,
          "name": "G4",
          "ticks": 11642,
          "time": 135.37209302325581,
          "velocity": 0.2283464566929134
        },
        {
          "duration": 0.04651162790696617,
          "durationTicks": 4,
          "midi": 61,
          "name": "C#4",
          "ticks": 11643,
          "time": 135.38372093023256,
          "velocity": 0.2440944881889764
        },
        {
          "duration": 0.034883720930224626,
          "durationTicks": 3,
          "midi": 90,
          "name": "F#6",
          "ticks": 11643,
          "time": 135.38372093023256,
          "velocity": 0.07874015748031496
        },
        {
          "duration": 0.03488372093025305,
          "durationTicks": 3,
          "midi": 74,
          "name": "D5",
          "ticks": 11647,
          "time": 135.43023255813952,
          "velocity": 0.2440944881889764
        },
        {
          "duration": 0.09302325581393234,
          "durationTicks": 8,
          "midi": 61,
          "name": "C#4",
          "ticks": 11648,
          "time": 135.4418604651163,
          "velocity": 0.2125984251968504
        },
        {
          "duration": 0.034883720930224626,
          "durationTicks": 3,
          "midi": 52,
          "name": "E3",
          "ticks": 11650,
          "time": 135.46511627906978,
          "velocity": 0.2283464566929134
        },
        {
          "duration": 0.034883720930224626,
          "durationTicks": 3,
          "midi": 66,
          "name": "F#4",
          "ticks": 11650,
          "time": 135.46511627906978,
          "velocity": 0.2047244094488189
        },
        {
          "duration": 0.034883720930224626,
          "durationTicks": 3,
          "midi": 74,
          "name": "D5",
          "ticks": 11652,
          "time": 135.48837209302326,
          "velocity": 0.2047244094488189
        },
        {
          "duration": 0.06976744186047767,
          "durationTicks": 6,
          "midi": 52,
          "name": "E3",
          "ticks": 11654,
          "time": 135.51162790697674,
          "velocity": 0.2125984251968504
        },
        {
          "duration": 0.04651162790699459,
          "durationTicks": 4,
          "midi": 66,
          "name": "F#4",
          "ticks": 11655,
          "time": 135.52325581395348,
          "velocity": 0.1732283464566929
        },
        {
          "duration": 0.04651162790699459,
          "durationTicks": 4,
          "midi": 61,
          "name": "C#4",
          "ticks": 11657,
          "time": 135.54651162790697,
          "velocity": 0.18110236220472442
        },
        {
          "duration": 0.023255813953483084,
          "durationTicks": 2,
          "midi": 44,
          "name": "G#2",
          "ticks": 11660,
          "time": 135.58139534883722,
          "velocity": 0.44881889763779526
        },
        {
          "duration": 0.034883720930224626,
          "durationTicks": 3,
          "midi": 77,
          "name": "F5",
          "ticks": 11660,
          "time": 135.58139534883722,
          "velocity": 0.14173228346456693
        },
        {
          "duration": 0.2325581395348877,
          "durationTicks": 20,
          "midi": 55,
          "name": "G3",
          "ticks": 11661,
          "time": 135.59302325581396,
          "velocity": 0.33858267716535434
        },
        {
          "duration": 0.22093023255814614,
          "durationTicks": 19,
          "midi": 60,
          "name": "C4",
          "ticks": 11661,
          "time": 135.59302325581396,
          "velocity": 0.28346456692913385
        },
        {
          "duration": 0.22093023255814614,
          "durationTicks": 19,
          "midi": 64,
          "name": "E4",
          "ticks": 11661,
          "time": 135.59302325581396,
          "velocity": 0.2047244094488189
        },
        {
          "duration": 0.22093023255814614,
          "durationTicks": 19,
          "midi": 70,
          "name": "A#4",
          "ticks": 11661,
          "time": 135.59302325581396,
          "velocity": 0.14960629921259844
        },
        {
          "duration": 0.04651162790696617,
          "durationTicks": 4,
          "midi": 84,
          "name": "C6",
          "ticks": 11661,
          "time": 135.59302325581396,
          "velocity": 0.07874015748031496
        },
        {
          "duration": 0.04651162790696617,
          "durationTicks": 4,
          "midi": 95,
          "name": "B6",
          "ticks": 11661,
          "time": 135.59302325581396,
          "velocity": 0.07086614173228346
        },
        {
          "duration": 0.023255813953483084,
          "durationTicks": 2,
          "midi": 47,
          "name": "B2",
          "ticks": 11662,
          "time": 135.6046511627907,
          "velocity": 0.4881889763779528
        },
        {
          "duration": 0.034883720930224626,
          "durationTicks": 3,
          "midi": 74,
          "name": "D5",
          "ticks": 11662,
          "time": 135.6046511627907,
          "velocity": 0.16535433070866143
        },
        {
          "duration": 0.04651162790696617,
          "durationTicks": 4,
          "midi": 37,
          "name": "C#2",
          "ticks": 11663,
          "time": 135.61627906976744,
          "velocity": 0.4409448818897638
        },
        {
          "duration": 0.06976744186044925,
          "durationTicks": 6,
          "midi": 78,
          "name": "F#5",
          "ticks": 11663,
          "time": 135.61627906976744,
          "velocity": 0.10236220472440945
        },
        {
          "duration": 0.2093023255814046,
          "durationTicks": 18,
          "midi": 48,
          "name": "C3",
          "ticks": 11664,
          "time": 135.62790697674419,
          "velocity": 0.5039370078740157
        },
        {
          "duration": 0.034883720930224626,
          "durationTicks": 3,
          "midi": 83,
          "name": "B5",
          "ticks": 11665,
          "time": 135.63953488372093,
          "velocity": 0.07086614173228346
        },
        {
          "duration": 0.09302325581396076,
          "durationTicks": 8,
          "midi": 36,
          "name": "C2",
          "ticks": 11667,
          "time": 135.6627906976744,
          "velocity": 0.41732283464566927
        },
        {
          "duration": 0.03488372093025305,
          "durationTicks": 3,
          "midi": 91,
          "name": "G6",
          "ticks": 11667,
          "time": 135.6627906976744,
          "velocity": 0.07086614173228346
        },
        {
          "duration": 0.034883720930224626,
          "durationTicks": 3,
          "midi": 78,
          "name": "F#5",
          "ticks": 11670,
          "time": 135.69767441860466,
          "velocity": 0.08661417322834646
        },
        {
          "duration": 0.023255813953483084,
          "durationTicks": 2,
          "midi": 35,
          "name": "B1",
          "ticks": 11675,
          "time": 135.75581395348837,
          "velocity": 0.25984251968503935
        },
        {
          "duration": 0.03488372093025305,
          "durationTicks": 3,
          "midi": 36,
          "name": "C2",
          "ticks": 11677,
          "time": 135.77906976744185,
          "velocity": 0.2677165354330709
        },
        {
          "duration": 0.46511627906974695,
          "durationTicks": 40,
          "midi": 69,
          "name": "A4",
          "ticks": 11680,
          "time": 135.8139534883721,
          "velocity": 0.2204724409448819
        },
        {
          "duration": 0.034883720930224626,
          "durationTicks": 3,
          "midi": 79,
          "name": "G5",
          "ticks": 11680,
          "time": 135.8139534883721,
          "velocity": 0.11023622047244094
        },
        {
          "duration": 0.023255813953483084,
          "durationTicks": 2,
          "midi": 56,
          "name": "G#3",
          "ticks": 11681,
          "time": 135.82558139534885,
          "velocity": 0.36220472440944884
        },
        {
          "duration": 0.44186046511626387,
          "durationTicks": 38,
          "midi": 62,
          "name": "D4",
          "ticks": 11681,
          "time": 135.82558139534885,
          "velocity": 0.31496062992125984
        },
        {
          "duration": 0.22093023255811772,
          "durationTicks": 19,
          "midi": 72,
          "name": "C5",
          "ticks": 11681,
          "time": 135.82558139534885,
          "velocity": 0.14960629921259844
        },
        {
          "duration": 0.0813953488371908,
          "durationTicks": 7,
          "midi": 93,
          "name": "A6",
          "ticks": 11681,
          "time": 135.82558139534885,
          "velocity": 0.12598425196850394
        },
        {
          "duration": 0.4534883720930054,
          "durationTicks": 39,
          "midi": 66,
          "name": "F#4",
          "ticks": 11682,
          "time": 135.8372093023256,
          "velocity": 0.25984251968503935
        },
        {
          "duration": 0.023255813953483084,
          "durationTicks": 2,
          "midi": 38,
          "name": "D2",
          "ticks": 11683,
          "time": 135.84883720930233,
          "velocity": 0.4566929133858268
        },
        {
          "duration": 0.4186046511627808,
          "durationTicks": 36,
          "midi": 50,
          "name": "D3",
          "ticks": 11683,
          "time": 135.84883720930233,
          "velocity": 0.49606299212598426
        },
        {
          "duration": 0.6395348837209269,
          "durationTicks": 55,
          "midi": 57,
          "name": "A3",
          "ticks": 11683,
          "time": 135.84883720930233,
          "velocity": 0.3858267716535433
        },
        {
          "duration": 0.04651162790696617,
          "durationTicks": 4,
          "midi": 39,
          "name": "D#2",
          "ticks": 11685,
          "time": 135.87209302325581,
          "velocity": 0.4094488188976378
        },
        {
          "duration": 0.09302325581396076,
          "durationTicks": 8,
          "midi": 76,
          "name": "E5",
          "ticks": 11685,
          "time": 135.87209302325581,
          "velocity": 0.08661417322834646
        },
        {
          "duration": 0.1046511627907023,
          "durationTicks": 9,
          "midi": 80,
          "name": "G#5",
          "ticks": 11686,
          "time": 135.88372093023256,
          "velocity": 0.07086614173228346
        },
        {
          "duration": 0.03488372093025305,
          "durationTicks": 3,
          "midi": 38,
          "name": "D2",
          "ticks": 11689,
          "time": 135.91860465116278,
          "velocity": 0.3464566929133858
        },
        {
          "duration": 0.034883720930224626,
          "durationTicks": 3,
          "midi": 37,
          "name": "C#2",
          "ticks": 11692,
          "time": 135.95348837209303,
          "velocity": 0.29133858267716534
        },
        {
          "duration": 0.05813953488370771,
          "durationTicks": 5,
          "midi": 38,
          "name": "D2",
          "ticks": 11695,
          "time": 135.98837209302326,
          "velocity": 0.2677165354330709
        },
        {
          "duration": 0.18604651162792152,
          "durationTicks": 16,
          "midi": 80,
          "name": "G#5",
          "ticks": 11700,
          "time": 136.04651162790697,
          "velocity": 0.14960629921259844
        },
        {
          "duration": 0.023255813953511506,
          "durationTicks": 2,
          "midi": 40,
          "name": "E2",
          "ticks": 11701,
          "time": 136.0581395348837,
          "velocity": 0.44881889763779526
        },
        {
          "duration": 0.08139534883721922,
          "durationTicks": 7,
          "midi": 90,
          "name": "F#6",
          "ticks": 11701,
          "time": 136.0581395348837,
          "velocity": 0.10236220472440945
        },
        {
          "duration": 0.22093023255811772,
          "durationTicks": 19,
          "midi": 72,
          "name": "C5",
          "ticks": 11702,
          "time": 136.06976744186048,
          "velocity": 0.16535433070866143
        },
        {
          "duration": 0.023255813953483084,
          "durationTicks": 2,
          "midi": 39,
          "name": "D#2",
          "ticks": 11703,
          "time": 136.08139534883722,
          "velocity": 0.4645669291338583
        },
        {
          "duration": 0.1046511627907023,
          "durationTicks": 9,
          "midi": 38,
          "name": "D2",
          "ticks": 11705,
          "time": 136.1046511627907,
          "velocity": 0.4409448818897638
        },
        {
          "duration": 0.04651162790696617,
          "durationTicks": 4,
          "midi": 38,
          "name": "D2",
          "ticks": 11715,
          "time": 136.22093023255815,
          "velocity": 0.28346456692913385
        },
        {
          "duration": 0.17441860465117998,
          "durationTicks": 15,
          "midi": 76,
          "name": "E5",
          "ticks": 11719,
          "time": 136.2674418604651,
          "velocity": 0.12598425196850394
        },
        {
          "duration": 0.2325581395348877,
          "durationTicks": 20,
          "midi": 85,
          "name": "C#6",
          "ticks": 11719,
          "time": 136.2674418604651,
          "velocity": 0.2283464566929134
        },
        {
          "duration": 0.22093023255814614,
          "durationTicks": 19,
          "midi": 45,
          "name": "A2",
          "ticks": 11720,
          "time": 136.27906976744185,
          "velocity": 0.49606299212598426
        },
        {
          "duration": 0.03488372093025305,
          "durationTicks": 3,
          "midi": 77,
          "name": "F5",
          "ticks": 11720,
          "time": 136.27906976744185,
          "velocity": 0.15748031496062992
        },
        {
          "duration": 0.3720930232558146,
          "durationTicks": 32,
          "midi": 79,
          "name": "G5",
          "ticks": 11720,
          "time": 136.27906976744185,
          "velocity": 0.2440944881889764
        },
        {
          "duration": 0.09302325581396076,
          "durationTicks": 8,
          "midi": 83,
          "name": "B5",
          "ticks": 11720,
          "time": 136.27906976744185,
          "velocity": 0.09448818897637795
        },
        {
          "duration": 0.023255813953511506,
          "durationTicks": 2,
          "midi": 61,
          "name": "C#4",
          "ticks": 11721,
          "time": 136.2906976744186,
          "velocity": 0.28346456692913385
        },
        {
          "duration": 0.2093023255814046,
          "durationTicks": 18,
          "midi": 67,
          "name": "G4",
          "ticks": 11721,
          "time": 136.2906976744186,
          "velocity": 0.2204724409448819
        },
        {
          "duration": 0.03488372093025305,
          "durationTicks": 3,
          "midi": 75,
          "name": "D#5",
          "ticks": 11721,
          "time": 136.2906976744186,
          "velocity": 0.23622047244094488
        },
        {
          "duration": 0.023255813953483084,
          "durationTicks": 2,
          "midi": 74,
          "name": "D5",
          "ticks": 11724,
          "time": 136.32558139534885,
          "velocity": 0.25196850393700787
        },
        {
          "duration": 0.023255813953483084,
          "durationTicks": 2,
          "midi": 52,
          "name": "E3",
          "ticks": 11725,
          "time": 136.3372093023256,
          "velocity": 0.2440944881889764
        },
        {
          "duration": 0.034883720930224626,
          "durationTicks": 3,
          "midi": 61,
          "name": "C#4",
          "ticks": 11725,
          "time": 136.3372093023256,
          "velocity": 0.2283464566929134
        },
        {
          "duration": 0.034883720930224626,
          "durationTicks": 3,
          "midi": 75,
          "name": "D#5",
          "ticks": 11726,
          "time": 136.34883720930233,
          "velocity": 0.2047244094488189
        },
        {
          "duration": 0.034883720930224626,
          "durationTicks": 3,
          "midi": 52,
          "name": "E3",
          "ticks": 11729,
          "time": 136.38372093023256,
          "velocity": 0.2283464566929134
        },
        {
          "duration": 0.11627906976744384,
          "durationTicks": 10,
          "midi": 61,
          "name": "C#4",
          "ticks": 11729,
          "time": 136.38372093023256,
          "velocity": 0.18110236220472442
        },
        {
          "duration": 0.06976744186047767,
          "durationTicks": 6,
          "midi": 52,
          "name": "E3",
          "ticks": 11733,
          "time": 136.43023255813952,
          "velocity": 0.23622047244094488
        },
        {
          "duration": 0.03488372093025305,
          "durationTicks": 3,
          "midi": 74,
          "name": "D5",
          "ticks": 11733,
          "time": 136.43023255813952,
          "velocity": 0.1968503937007874
        },
        {
          "duration": 0.023255813953483084,
          "durationTicks": 2,
          "midi": 58,
          "name": "A#3",
          "ticks": 11738,
          "time": 136.48837209302326,
          "velocity": 0.36220472440944884
        },
        {
          "duration": 0.023255813953483084,
          "durationTicks": 2,
          "midi": 44,
          "name": "G#2",
          "ticks": 11739,
          "time": 136.5,
          "velocity": 0.4566929133858268
        },
        {
          "duration": 0.13953488372092693,
          "durationTicks": 12,
          "midi": 64,
          "name": "E4",
          "ticks": 11739,
          "time": 136.5,
          "velocity": 0.48031496062992124
        },
        {
          "duration": 0.023255813953483084,
          "durationTicks": 2,
          "midi": 68,
          "name": "G#4",
          "ticks": 11739,
          "time": 136.5,
          "velocity": 0.23622047244094488
        },
        {
          "duration": 0.8023255813953369,
          "durationTicks": 69,
          "midi": 76,
          "name": "E5",
          "ticks": 11739,
          "time": 136.5,
          "velocity": 0.4881889763779528
        },
        {
          "duration": 0.5813953488372192,
          "durationTicks": 50,
          "midi": 83,
          "name": "B5",
          "ticks": 11739,
          "time": 136.5,
          "velocity": 0.2755905511811024
        },
        {
          "duration": 0.06976744186047767,
          "durationTicks": 6,
          "midi": 84,
          "name": "C6",
          "ticks": 11739,
          "time": 136.5,
          "velocity": 0.2204724409448819
        },
        {
          "duration": 0.17441860465115155,
          "durationTicks": 15,
          "midi": 92,
          "name": "G#6",
          "ticks": 11739,
          "time": 136.5,
          "velocity": 0.1889763779527559
        },
        {
          "duration": 0.22093023255814614,
          "durationTicks": 19,
          "midi": 55,
          "name": "G3",
          "ticks": 11740,
          "time": 136.51162790697674,
          "velocity": 0.33858267716535434
        },
        {
          "duration": 0.12790697674418539,
          "durationTicks": 11,
          "midi": 60,
          "name": "C4",
          "ticks": 11740,
          "time": 136.51162790697674,
          "velocity": 0.5590551181102362
        },
        {
          "duration": 0.023255813953483084,
          "durationTicks": 2,
          "midi": 47,
          "name": "B2",
          "ticks": 11741,
          "time": 136.52325581395348,
          "velocity": 0.4881889763779528
        },
        {
          "duration": 0.023255813953483084,
          "durationTicks": 2,
          "midi": 77,
          "name": "F5",
          "ticks": 11741,
          "time": 136.52325581395348,
          "velocity": 0.2283464566929134
        },
        {
          "duration": 0.05813953488373613,
          "durationTicks": 5,
          "midi": 98,
          "name": "D7",
          "ticks": 11741,
          "time": 136.52325581395348,
          "velocity": 0.08661417322834646
        },
        {
          "duration": 0.04651162790699459,
          "durationTicks": 4,
          "midi": 37,
          "name": "C#2",
          "ticks": 11742,
          "time": 136.53488372093022,
          "velocity": 0.44881889763779526
        },
        {
          "duration": 0.03488372093025305,
          "durationTicks": 3,
          "midi": 70,
          "name": "A#4",
          "ticks": 11742,
          "time": 136.53488372093022,
          "velocity": 0.11811023622047244
        },
        {
          "duration": 0.2093023255814046,
          "durationTicks": 18,
          "midi": 48,
          "name": "C3",
          "ticks": 11743,
          "time": 136.54651162790697,
          "velocity": 0.5039370078740157
        },
        {
          "duration": 0.34883720930233153,
          "durationTicks": 30,
          "midi": 74,
          "name": "D5",
          "ticks": 11743,
          "time": 136.54651162790697,
          "velocity": 0.5118110236220472
        },
        {
          "duration": 0.09302325581396076,
          "durationTicks": 8,
          "midi": 67,
          "name": "G4",
          "ticks": 11744,
          "time": 136.5581395348837,
          "velocity": 0.5118110236220472
        },
        {
          "duration": 0.04651162790699459,
          "durationTicks": 4,
          "midi": 94,
          "name": "A#6",
          "ticks": 11744,
          "time": 136.5581395348837,
          "velocity": 0.07086614173228346
        },
        {
          "duration": 0.034883720930224626,
          "durationTicks": 3,
          "midi": 70,
          "name": "A#4",
          "ticks": 11746,
          "time": 136.58139534883722,
          "velocity": 0.10236220472440945
        },
        {
          "duration": 0.023255813953483084,
          "durationTicks": 2,
          "midi": 36,
          "name": "C2",
          "ticks": 11748,
          "time": 136.6046511627907,
          "velocity": 0.3937007874015748
        },
        {
          "duration": 0.023255813953483084,
          "durationTicks": 2,
          "midi": 37,
          "name": "C#2",
          "ticks": 11750,
          "time": 136.62790697674419,
          "velocity": 0.3464566929133858
        },
        {
          "duration": 0.12790697674418539,
          "durationTicks": 11,
          "midi": 78,
          "name": "F#5",
          "ticks": 11750,
          "time": 136.62790697674419,
          "velocity": 0.31496062992125984
        },
        {
          "duration": 0.18604651162792152,
          "durationTicks": 16,
          "midi": 81,
          "name": "A5",
          "ticks": 11750,
          "time": 136.62790697674419,
          "velocity": 0.2440944881889764
        },
        {
          "duration": 0.1046511627907023,
          "durationTicks": 9,
          "midi": 85,
          "name": "C#6",
          "ticks": 11750,
          "time": 136.62790697674419,
          "velocity": 0.2283464566929134
        },
        {
          "duration": 0.09302325581396076,
          "durationTicks": 8,
          "midi": 96,
          "name": "C7",
          "ticks": 11750,
          "time": 136.62790697674419,
          "velocity": 0.08661417322834646
        },
        {
          "duration": 0.011627906976741542,
          "durationTicks": 1,
          "midi": 61,
          "name": "C#4",
          "ticks": 11751,
          "time": 136.63953488372093,
          "velocity": 0.5196850393700787
        },
        {
          "duration": 0.09302325581396076,
          "durationTicks": 8,
          "midi": 62,
          "name": "D4",
          "ticks": 11752,
          "time": 136.65116279069767,
          "velocity": 0.5196850393700787
        },
        {
          "duration": 0.1046511627907023,
          "durationTicks": 9,
          "midi": 66,
          "name": "F#4",
          "ticks": 11752,
          "time": 136.65116279069767,
          "velocity": 0.5433070866141733
        },
        {
          "duration": 0.06976744186047767,
          "durationTicks": 6,
          "midi": 98,
          "name": "D7",
          "ticks": 11752,
          "time": 136.65116279069767,
          "velocity": 0.08661417322834646
        },
        {
          "duration": 0.05813953488373613,
          "durationTicks": 5,
          "midi": 36,
          "name": "C2",
          "ticks": 11754,
          "time": 136.67441860465115,
          "velocity": 0.28346456692913385
        },
        {
          "duration": 0.03488372093025305,
          "durationTicks": 3,
          "midi": 70,
          "name": "A#4",
          "ticks": 11755,
          "time": 136.6860465116279,
          "velocity": 0.09448818897637795
        },
        {
          "duration": 0.24418604651162923,
          "durationTicks": 21,
          "midi": 79,
          "name": "G5",
          "ticks": 11759,
          "time": 136.7325581395349,
          "velocity": 0.2440944881889764
        },
        {
          "duration": 0.2325581395348877,
          "durationTicks": 20,
          "midi": 64,
          "name": "E4",
          "ticks": 11760,
          "time": 136.74418604651163,
          "velocity": 0.5196850393700787
        },
        {
          "duration": 0.45348837209303383,
          "durationTicks": 39,
          "midi": 69,
          "name": "A4",
          "ticks": 11760,
          "time": 136.74418604651163,
          "velocity": 0.2204724409448819
        },
        {
          "duration": 0.6976744186046631,
          "durationTicks": 60,
          "midi": 72,
          "name": "C5",
          "ticks": 11760,
          "time": 136.74418604651163,
          "velocity": 0.5196850393700787
        },
        {
          "duration": 0.2906976744185954,
          "durationTicks": 25,
          "midi": 92,
          "name": "G#6",
          "ticks": 11760,
          "time": 136.74418604651163,
          "velocity": 0.14173228346456693
        },
        {
          "duration": 0.08139534883721922,
          "durationTicks": 7,
          "midi": 94,
          "name": "A#6",
          "ticks": 11760,
          "time": 136.74418604651163,
          "velocity": 0.10236220472440945
        },
        {
          "duration": 0.034883720930224626,
          "durationTicks": 3,
          "midi": 38,
          "name": "D2",
          "ticks": 11761,
          "time": 136.75581395348837,
          "velocity": 0.44881889763779526
        },
        {
          "duration": 0.4186046511627808,
          "durationTicks": 36,
          "midi": 50,
          "name": "D3",
          "ticks": 11762,
          "time": 136.7674418604651,
          "velocity": 0.49606299212598426
        },
        {
          "duration": 0.011627906976741542,
          "durationTicks": 1,
          "midi": 61,
          "name": "C#4",
          "ticks": 11762,
          "time": 136.7674418604651,
          "velocity": 0.5196850393700787
        },
        {
          "duration": 0.034883720930224626,
          "durationTicks": 3,
          "midi": 90,
          "name": "F#6",
          "ticks": 11762,
          "time": 136.7674418604651,
          "velocity": 0.11023622047244094
        },
        {
          "duration": 0.18604651162792152,
          "durationTicks": 16,
          "midi": 60,
          "name": "C4",
          "ticks": 11763,
          "time": 136.77906976744185,
          "velocity": 0.4645669291338583
        },
        {
          "duration": 0.04651162790699459,
          "durationTicks": 4,
          "midi": 39,
          "name": "D#2",
          "ticks": 11764,
          "time": 136.7906976744186,
          "velocity": 0.4094488188976378
        },
        {
          "duration": 0.034883720930224626,
          "durationTicks": 3,
          "midi": 78,
          "name": "F#5",
          "ticks": 11767,
          "time": 136.82558139534885,
          "velocity": 0.10236220472440945
        },
        {
          "duration": 0.04651162790696617,
          "durationTicks": 4,
          "midi": 38,
          "name": "D2",
          "ticks": 11768,
          "time": 136.8372093023256,
          "velocity": 0.3543307086614173
        },
        {
          "duration": 0.023255813953483084,
          "durationTicks": 2,
          "midi": 37,
          "name": "C#2",
          "ticks": 11772,
          "time": 136.88372093023256,
          "velocity": 0.28346456692913385
        },
        {
          "duration": 0.05813953488373613,
          "durationTicks": 5,
          "midi": 38,
          "name": "D2",
          "ticks": 11774,
          "time": 136.90697674418604,
          "velocity": 0.2677165354330709
        },
        {
          "duration": 0.4186046511627808,
          "durationTicks": 36,
          "midi": 57,
          "name": "A3",
          "ticks": 11779,
          "time": 136.96511627906978,
          "velocity": 0.3779527559055118
        },
        {
          "duration": 0.023255813953483084,
          "durationTicks": 2,
          "midi": 40,
          "name": "E2",
          "ticks": 11780,
          "time": 136.97674418604652,
          "velocity": 0.4409448818897638
        },
        {
          "duration": 0.034883720930224626,
          "durationTicks": 3,
          "midi": 80,
          "name": "G#5",
          "ticks": 11780,
          "time": 136.97674418604652,
          "velocity": 0.15748031496062992
        },
        {
          "duration": 0.0813953488371908,
          "durationTicks": 7,
          "midi": 90,
          "name": "F#6",
          "ticks": 11780,
          "time": 136.97674418604652,
          "velocity": 0.11023622047244094
        },
        {
          "duration": 0.023255813953483084,
          "durationTicks": 2,
          "midi": 39,
          "name": "D#2",
          "ticks": 11782,
          "time": 137,
          "velocity": 0.4645669291338583
        },
        {
          "duration": 0.1046511627907023,
          "durationTicks": 9,
          "midi": 38,
          "name": "D2",
          "ticks": 11784,
          "time": 137.02325581395348,
          "velocity": 0.4409448818897638
        },
        {
          "duration": 0.04651162790699459,
          "durationTicks": 4,
          "midi": 66,
          "name": "F#4",
          "ticks": 11785,
          "time": 137.03488372093022,
          "velocity": 0.23622047244094488
        },
        {
          "duration": 0.03488372093025305,
          "durationTicks": 3,
          "midi": 79,
          "name": "G5",
          "ticks": 11786,
          "time": 137.04651162790697,
          "velocity": 0.1732283464566929
        },
        {
          "duration": 0.04651162790696617,
          "durationTicks": 4,
          "midi": 66,
          "name": "F#4",
          "ticks": 11792,
          "time": 137.11627906976744,
          "velocity": 0.18110236220472442
        },
        {
          "duration": 0.023255813953483084,
          "durationTicks": 2,
          "midi": 60,
          "name": "C4",
          "ticks": 11793,
          "time": 137.12790697674419,
          "velocity": 0.23622047244094488
        },
        {
          "duration": 0.034883720930224626,
          "durationTicks": 3,
          "midi": 79,
          "name": "G5",
          "ticks": 11793,
          "time": 137.12790697674419,
          "velocity": 0.12598425196850394
        },
        {
          "duration": 0.04651162790696617,
          "durationTicks": 4,
          "midi": 38,
          "name": "D2",
          "ticks": 11794,
          "time": 137.13953488372093,
          "velocity": 0.28346456692913385
        },
        {
          "duration": 0.05813953488373613,
          "durationTicks": 5,
          "midi": 60,
          "name": "C4",
          "ticks": 11796,
          "time": 137.1627906976744,
          "velocity": 0.31496062992125984
        },
        {
          "duration": 0.04651162790699459,
          "durationTicks": 4,
          "midi": 66,
          "name": "F#4",
          "ticks": 11797,
          "time": 137.17441860465115,
          "velocity": 0.1968503937007874
        },
        {
          "duration": 0.16279069767443843,
          "durationTicks": 14,
          "midi": 79,
          "name": "G5",
          "ticks": 11797,
          "time": 137.17441860465115,
          "velocity": 0.2125984251968504
        },
        {
          "duration": 0.04651162790699459,
          "durationTicks": 4,
          "midi": 83,
          "name": "B5",
          "ticks": 11798,
          "time": 137.1860465116279,
          "velocity": 0.11811023622047244
        },
        {
          "duration": 0.3139534883721069,
          "durationTicks": 27,
          "midi": 85,
          "name": "C#6",
          "ticks": 11798,
          "time": 137.1860465116279,
          "velocity": 0.2283464566929134
        },
        {
          "duration": 0.23255813953485927,
          "durationTicks": 20,
          "midi": 45,
          "name": "A2",
          "ticks": 11799,
          "time": 137.19767441860466,
          "velocity": 0.49606299212598426
        },
        {
          "duration": 0.034883720930224626,
          "durationTicks": 3,
          "midi": 77,
          "name": "F5",
          "ticks": 11799,
          "time": 137.19767441860466,
          "velocity": 0.14960629921259844
        },
        {
          "duration": 0.22093023255811772,
          "durationTicks": 19,
          "midi": 67,
          "name": "G4",
          "ticks": 11800,
          "time": 137.2093023255814,
          "velocity": 0.2204724409448819
        },
        {
          "duration": 0.023255813953483084,
          "durationTicks": 2,
          "midi": 74,
          "name": "D5",
          "ticks": 11800,
          "time": 137.2093023255814,
          "velocity": 0.2283464566929134
        },
        {
          "duration": 0.023255813953483084,
          "durationTicks": 2,
          "midi": 60,
          "name": "C4",
          "ticks": 11802,
          "time": 137.2325581395349,
          "velocity": 0.2755905511811024
        },
        {
          "duration": 0.05813953488370771,
          "durationTicks": 5,
          "midi": 64,
          "name": "E4",
          "ticks": 11802,
          "time": 137.2325581395349,
          "velocity": 0.18110236220472442
        },
        {
          "duration": 0.22093023255814614,
          "durationTicks": 19,
          "midi": 75,
          "name": "D#5",
          "ticks": 11802,
          "time": 137.2325581395349,
          "velocity": 0.2204724409448819
        },
        {
          "duration": 0.04651162790696617,
          "durationTicks": 4,
          "midi": 92,
          "name": "G#6",
          "ticks": 11803,
          "time": 137.24418604651163,
          "velocity": 0.07874015748031496
        },
        {
          "duration": 0.023255813953483084,
          "durationTicks": 2,
          "midi": 52,
          "name": "E3",
          "ticks": 11804,
          "time": 137.25581395348837,
          "velocity": 0.2440944881889764
        },
        {
          "duration": 0.05813953488373613,
          "durationTicks": 5,
          "midi": 83,
          "name": "B5",
          "ticks": 11804,
          "time": 137.25581395348837,
          "velocity": 0.11023622047244094
        },
        {
          "duration": 0.023255813953511506,
          "durationTicks": 2,
          "midi": 60,
          "name": "C4",
          "ticks": 11807,
          "time": 137.2906976744186,
          "velocity": 0.23622047244094488
        },
        {
          "duration": 0.03488372093025305,
          "durationTicks": 3,
          "midi": 52,
          "name": "E3",
          "ticks": 11808,
          "time": 137.30232558139534,
          "velocity": 0.2283464566929134
        },
        {
          "duration": 0.0813953488371908,
          "durationTicks": 7,
          "midi": 52,
          "name": "E3",
          "ticks": 11812,
          "time": 137.34883720930233,
          "velocity": 0.2125984251968504
        },
        {
          "duration": 0.023255813953483084,
          "durationTicks": 2,
          "midi": 38,
          "name": "D2",
          "ticks": 11820,
          "time": 137.4418604651163,
          "velocity": 0.4015748031496063
        },
        {
          "duration": 0.0813953488371908,
          "durationTicks": 7,
          "midi": 48,
          "name": "C3",
          "ticks": 11820,
          "time": 137.4418604651163,
          "velocity": 0.44881889763779526
        },
        {
          "duration": 0.19767441860463464,
          "durationTicks": 17,
          "midi": 55,
          "name": "G3",
          "ticks": 11820,
          "time": 137.4418604651163,
          "velocity": 0.3228346456692913
        },
        {
          "duration": 0.20930232558137618,
          "durationTicks": 18,
          "midi": 64,
          "name": "E4",
          "ticks": 11820,
          "time": 137.4418604651163,
          "velocity": 0.2283464566929134
        },
        {
          "duration": 0.20930232558137618,
          "durationTicks": 18,
          "midi": 70,
          "name": "A#4",
          "ticks": 11820,
          "time": 137.4418604651163,
          "velocity": 0.14173228346456693
        },
        {
          "duration": 0.09302325581393234,
          "durationTicks": 8,
          "midi": 91,
          "name": "G6",
          "ticks": 11820,
          "time": 137.4418604651163,
          "velocity": 0.13385826771653545
        },
        {
          "duration": 0.034883720930224626,
          "durationTicks": 3,
          "midi": 74,
          "name": "D5",
          "ticks": 11821,
          "time": 137.45348837209303,
          "velocity": 0.14960629921259844
        },
        {
          "duration": 0.034883720930224626,
          "durationTicks": 3,
          "midi": 80,
          "name": "G#5",
          "ticks": 11821,
          "time": 137.45348837209303,
          "velocity": 0.07086614173228346
        },
        {
          "duration": 0.04651162790696617,
          "durationTicks": 4,
          "midi": 37,
          "name": "C#2",
          "ticks": 11822,
          "time": 137.46511627906978,
          "velocity": 0.4330708661417323
        },
        {
          "duration": 0.034883720930224626,
          "durationTicks": 3,
          "midi": 88,
          "name": "E6",
          "ticks": 11822,
          "time": 137.46511627906978,
          "velocity": 0.09448818897637795
        },
        {
          "duration": 0.13953488372092693,
          "durationTicks": 12,
          "midi": 78,
          "name": "F#5",
          "ticks": 11823,
          "time": 137.47674418604652,
          "velocity": 0.07874015748031496
        },
        {
          "duration": 0.09302325581396076,
          "durationTicks": 8,
          "midi": 36,
          "name": "C2",
          "ticks": 11826,
          "time": 137.51162790697674,
          "velocity": 0.41732283464566927
        },
        {
          "duration": 0.09302325581396076,
          "durationTicks": 8,
          "midi": 74,
          "name": "D5",
          "ticks": 11826,
          "time": 137.51162790697674,
          "velocity": 0.09448818897637795
        },
        {
          "duration": 0.12790697674418539,
          "durationTicks": 11,
          "midi": 48,
          "name": "C3",
          "ticks": 11828,
          "time": 137.53488372093022,
          "velocity": 0.5039370078740157
        },
        {
          "duration": 0.023255813953483084,
          "durationTicks": 2,
          "midi": 35,
          "name": "B1",
          "ticks": 11834,
          "time": 137.6046511627907,
          "velocity": 0.25196850393700787
        },
        {
          "duration": 0.4651162790697754,
          "durationTicks": 40,
          "midi": 57,
          "name": "A3",
          "ticks": 11838,
          "time": 137.65116279069767,
          "velocity": 0.3858267716535433
        },
        {
          "duration": 0.09302325581396076,
          "durationTicks": 8,
          "midi": 72,
          "name": "C5",
          "ticks": 11838,
          "time": 137.65116279069767,
          "velocity": 0.16535433070866143
        },
        {
          "duration": 0.04651162790699459,
          "durationTicks": 4,
          "midi": 78,
          "name": "F#5",
          "ticks": 11838,
          "time": 137.65116279069767,
          "velocity": 0.07086614173228346
        },
        {
          "duration": 0.04651162790699459,
          "durationTicks": 4,
          "midi": 80,
          "name": "G#5",
          "ticks": 11838,
          "time": 137.65116279069767,
          "velocity": 0.11811023622047244
        },
        {
          "duration": 0.08139534883721922,
          "durationTicks": 7,
          "midi": 93,
          "name": "A6",
          "ticks": 11838,
          "time": 137.65116279069767,
          "velocity": 0.12598425196850394
        },
        {
          "duration": 0.023255813953483084,
          "durationTicks": 2,
          "midi": 40,
          "name": "E2",
          "ticks": 11839,
          "time": 137.6627906976744,
          "velocity": 0.4015748031496063
        },
        {
          "duration": 0.5813953488372192,
          "durationTicks": 50,
          "midi": 62,
          "name": "D4",
          "ticks": 11839,
          "time": 137.6627906976744,
          "velocity": 0.30708661417322836
        },
        {
          "duration": 0.4767441860465169,
          "durationTicks": 41,
          "midi": 66,
          "name": "F#4",
          "ticks": 11839,
          "time": 137.6627906976744,
          "velocity": 0.2677165354330709
        },
        {
          "duration": 0.45348837209303383,
          "durationTicks": 39,
          "midi": 50,
          "name": "D3",
          "ticks": 11840,
          "time": 137.67441860465115,
          "velocity": 0.49606299212598426
        },
        {
          "duration": 0.10465116279067388,
          "durationTicks": 9,
          "midi": 38,
          "name": "D2",
          "ticks": 11842,
          "time": 137.69767441860466,
          "velocity": 0.44881889763779526
        },
        {
          "duration": 0.08139534883721922,
          "durationTicks": 7,
          "midi": 72,
          "name": "C5",
          "ticks": 11848,
          "time": 137.7674418604651,
          "velocity": 0.13385826771653545
        },
        {
          "duration": 0.023255813953511506,
          "durationTicks": 2,
          "midi": 37,
          "name": "C#2",
          "ticks": 11851,
          "time": 137.80232558139534,
          "velocity": 0.25196850393700787
        },
        {
          "duration": 0.04651162790696617,
          "durationTicks": 4,
          "midi": 38,
          "name": "D2",
          "ticks": 11853,
          "time": 137.82558139534885,
          "velocity": 0.29133858267716534
        },
        {
          "duration": 0.06976744186047767,
          "durationTicks": 6,
          "midi": 80,
          "name": "G#5",
          "ticks": 11857,
          "time": 137.87209302325581,
          "velocity": 0.15748031496062992
        },
        {
          "duration": 0.023255813953483084,
          "durationTicks": 2,
          "midi": 40,
          "name": "E2",
          "ticks": 11858,
          "time": 137.88372093023256,
          "velocity": 0.44881889763779526
        },
        {
          "duration": 0.04651162790696617,
          "durationTicks": 4,
          "midi": 72,
          "name": "C5",
          "ticks": 11858,
          "time": 137.88372093023256,
          "velocity": 0.1732283464566929
        },
        {
          "duration": 0.08139534883721922,
          "durationTicks": 7,
          "midi": 90,
          "name": "F#6",
          "ticks": 11858,
          "time": 137.88372093023256,
          "velocity": 0.09448818897637795
        },
        {
          "duration": 0.1046511627907023,
          "durationTicks": 9,
          "midi": 93,
          "name": "A6",
          "ticks": 11858,
          "time": 137.88372093023256,
          "velocity": 0.11811023622047244
        },
        {
          "duration": 0.023255813953483084,
          "durationTicks": 2,
          "midi": 39,
          "name": "D#2",
          "ticks": 11860,
          "time": 137.90697674418604,
          "velocity": 0.4645669291338583
        },
        {
          "duration": 0.1046511627907023,
          "durationTicks": 9,
          "midi": 38,
          "name": "D2",
          "ticks": 11862,
          "time": 137.93023255813952,
          "velocity": 0.4409448818897638
        },
        {
          "duration": 0.22093023255814614,
          "durationTicks": 19,
          "midi": 76,
          "name": "E5",
          "ticks": 11862,
          "time": 137.93023255813952,
          "velocity": 0.23622047244094488
        },
        {
          "duration": 0.06976744186044925,
          "durationTicks": 6,
          "midi": 72,
          "name": "C5",
          "ticks": 11864,
          "time": 137.95348837209303,
          "velocity": 0.15748031496062992
        },
        {
          "duration": 0.034883720930224626,
          "durationTicks": 3,
          "midi": 80,
          "name": "G#5",
          "ticks": 11864,
          "time": 137.95348837209303,
          "velocity": 0.10236220472440945
        },
        {
          "duration": 0.06976744186047767,
          "durationTicks": 6,
          "midi": 38,
          "name": "D2",
          "ticks": 11872,
          "time": 138.04651162790697,
          "velocity": 0.29133858267716534
        },
        {
          "duration": 0.06976744186047767,
          "durationTicks": 6,
          "midi": 72,
          "name": "C5",
          "ticks": 11873,
          "time": 138.0581395348837,
          "velocity": 0.14960629921259844
        },
        {
          "duration": 0.12790697674418539,
          "durationTicks": 11,
          "midi": 74,
          "name": "D5",
          "ticks": 11878,
          "time": 138.11627906976744,
          "velocity": 0.3228346456692913
        },
        {
          "duration": 0.05813953488370771,
          "durationTicks": 5,
          "midi": 71,
          "name": "B4",
          "ticks": 11879,
          "time": 138.12790697674419,
          "velocity": 0.13385826771653545
        },
        {
          "duration": 0.11627906976744384,
          "durationTicks": 10,
          "midi": 81,
          "name": "A5",
          "ticks": 11879,
          "time": 138.12790697674419,
          "velocity": 0.13385826771653545
        },
        {
          "duration": 0.1046511627907023,
          "durationTicks": 9,
          "midi": 83,
          "name": "B5",
          "ticks": 11879,
          "time": 138.12790697674419,
          "velocity": 0.2125984251968504
        },
        {
          "duration": 0.15116279069766847,
          "durationTicks": 13,
          "midi": 89,
          "name": "F6",
          "ticks": 11879,
          "time": 138.12790697674419,
          "velocity": 0.18110236220472442
        },
        {
          "duration": 0.09302325581396076,
          "durationTicks": 8,
          "midi": 67,
          "name": "G4",
          "ticks": 11880,
          "time": 138.13953488372093,
          "velocity": 0.2204724409448819
        },
        {
          "duration": 0.12790697674418539,
          "durationTicks": 11,
          "midi": 85,
          "name": "C#6",
          "ticks": 11880,
          "time": 138.13953488372093,
          "velocity": 0.2204724409448819
        },
        {
          "duration": 0.08139534883721922,
          "durationTicks": 7,
          "midi": 90,
          "name": "F#6",
          "ticks": 11880,
          "time": 138.13953488372093,
          "velocity": 0.08661417322834646
        },
        {
          "duration": 0.06976744186047767,
          "durationTicks": 6,
          "midi": 77,
          "name": "F5",
          "ticks": 11881,
          "time": 138.15116279069767,
          "velocity": 0.1889763779527559
        },
        {
          "duration": 0.04651162790699459,
          "durationTicks": 4,
          "midi": 98,
          "name": "D7",
          "ticks": 11881,
          "time": 138.15116279069767,
          "velocity": 0.10236220472440945
        },
        {
          "duration": 0.08139534883721922,
          "durationTicks": 7,
          "midi": 55,
          "name": "G3",
          "ticks": 11882,
          "time": 138.1627906976744,
          "velocity": 0.4251968503937008
        },
        {
          "duration": 0.023255813953483084,
          "durationTicks": 2,
          "midi": 43,
          "name": "G2",
          "ticks": 11885,
          "time": 138.19767441860466,
          "velocity": 0.3779527559055118
        },
        {
          "duration": 0.034883720930224626,
          "durationTicks": 3,
          "midi": 72,
          "name": "C5",
          "ticks": 11885,
          "time": 138.19767441860466,
          "velocity": 0.11023622047244094
        },
        {
          "duration": 0.11627906976744384,
          "durationTicks": 10,
          "midi": 76,
          "name": "E5",
          "ticks": 11887,
          "time": 138.22093023255815,
          "velocity": 0.23622047244094488
        },
        {
          "duration": 0.11627906976744384,
          "durationTicks": 10,
          "midi": 66,
          "name": "F#4",
          "ticks": 11888,
          "time": 138.2325581395349,
          "velocity": 0.1968503937007874
        },
        {
          "duration": 0.11627906976744384,
          "durationTicks": 10,
          "midi": 80,
          "name": "G#5",
          "ticks": 11888,
          "time": 138.2325581395349,
          "velocity": 0.12598425196850394
        },
        {
          "duration": 0.11627906976744384,
          "durationTicks": 10,
          "midi": 82,
          "name": "A#5",
          "ticks": 11888,
          "time": 138.2325581395349,
          "velocity": 0.2204724409448819
        },
        {
          "duration": 0.023255813953483084,
          "durationTicks": 2,
          "midi": 41,
          "name": "F2",
          "ticks": 11889,
          "time": 138.24418604651163,
          "velocity": 0.4645669291338583
        },
        {
          "duration": 0.09302325581396076,
          "durationTicks": 8,
          "midi": 61,
          "name": "C#4",
          "ticks": 11889,
          "time": 138.24418604651163,
          "velocity": 0.28346456692913385
        },
        {
          "duration": 0.09302325581396076,
          "durationTicks": 8,
          "midi": 70,
          "name": "A#4",
          "ticks": 11889,
          "time": 138.24418604651163,
          "velocity": 0.11811023622047244
        },
        {
          "duration": 0.09302325581396076,
          "durationTicks": 8,
          "midi": 73,
          "name": "C#5",
          "ticks": 11889,
          "time": 138.24418604651163,
          "velocity": 0.33070866141732286
        },
        {
          "duration": 0.13953488372092693,
          "durationTicks": 12,
          "midi": 92,
          "name": "G#6",
          "ticks": 11889,
          "time": 138.24418604651163,
          "velocity": 0.1968503937007874
        },
        {
          "duration": 0.05813953488373613,
          "durationTicks": 5,
          "midi": 54,
          "name": "F#3",
          "ticks": 11890,
          "time": 138.25581395348837,
          "velocity": 0.4566929133858268
        },
        {
          "duration": 0.1046511627907023,
          "durationTicks": 9,
          "midi": 84,
          "name": "C6",
          "ticks": 11890,
          "time": 138.25581395348837,
          "velocity": 0.1732283464566929
        },
        {
          "duration": 0.034883720930224626,
          "durationTicks": 3,
          "midi": 90,
          "name": "F#6",
          "ticks": 11890,
          "time": 138.25581395348837,
          "velocity": 0.07086614173228346
        },
        {
          "duration": 0.023255813953483084,
          "durationTicks": 2,
          "midi": 42,
          "name": "F#2",
          "ticks": 11891,
          "time": 138.2674418604651,
          "velocity": 0.29133858267716534
        },
        {
          "duration": 0.08139534883721922,
          "durationTicks": 7,
          "midi": 89,
          "name": "F6",
          "ticks": 11894,
          "time": 138.30232558139534,
          "velocity": 0.09448818897637795
        },
        {
          "duration": 0.023255813953483084,
          "durationTicks": 2,
          "midi": 42,
          "name": "F#2",
          "ticks": 11895,
          "time": 138.3139534883721,
          "velocity": 0.3858267716535433
        },
        {
          "duration": 0.023255813953483084,
          "durationTicks": 2,
          "midi": 54,
          "name": "F#3",
          "ticks": 11896,
          "time": 138.32558139534885,
          "velocity": 0.3937007874015748
        },
        {
          "duration": 0.24418604651162923,
          "durationTicks": 21,
          "midi": 74,
          "name": "D5",
          "ticks": 11896,
          "time": 138.32558139534885,
          "velocity": 0.5039370078740157
        },
        {
          "duration": 0.023255813953483084,
          "durationTicks": 2,
          "midi": 41,
          "name": "F2",
          "ticks": 11897,
          "time": 138.3372093023256,
          "velocity": 0.49606299212598426
        },
        {
          "duration": 0.023255813953483084,
          "durationTicks": 2,
          "midi": 72,
          "name": "C5",
          "ticks": 11897,
          "time": 138.3372093023256,
          "velocity": 0.4251968503937008
        },
        {
          "duration": 0.15116279069766847,
          "durationTicks": 13,
          "midi": 81,
          "name": "A5",
          "ticks": 11897,
          "time": 138.3372093023256,
          "velocity": 0.2755905511811024
        },
        {
          "duration": 0.5465116279069662,
          "durationTicks": 47,
          "midi": 83,
          "name": "B5",
          "ticks": 11897,
          "time": 138.3372093023256,
          "velocity": 0.28346456692913385
        },
        {
          "duration": 0.13953488372092693,
          "durationTicks": 12,
          "midi": 90,
          "name": "F#6",
          "ticks": 11897,
          "time": 138.3372093023256,
          "velocity": 0.18110236220472442
        },
        {
          "duration": 0.034883720930224626,
          "durationTicks": 3,
          "midi": 51,
          "name": "D#3",
          "ticks": 11898,
          "time": 138.34883720930233,
          "velocity": 0.4881889763779528
        },
        {
          "duration": 0.12790697674418539,
          "durationTicks": 11,
          "midi": 87,
          "name": "D#6",
          "ticks": 11898,
          "time": 138.34883720930233,
          "velocity": 0.2047244094488189
        },
        {
          "duration": 0.12790697674418539,
          "durationTicks": 11,
          "midi": 97,
          "name": "C#7",
          "ticks": 11898,
          "time": 138.34883720930233,
          "velocity": 0.14960629921259844
        },
        {
          "duration": 0.1046511627907023,
          "durationTicks": 9,
          "midi": 62,
          "name": "D4",
          "ticks": 11899,
          "time": 138.36046511627907,
          "velocity": 0.49606299212598426
        },
        {
          "duration": 0.09302325581396076,
          "durationTicks": 8,
          "midi": 68,
          "name": "G#4",
          "ticks": 11899,
          "time": 138.36046511627907,
          "velocity": 0.2125984251968504
        },
        {
          "duration": 0.09302325581396076,
          "durationTicks": 8,
          "midi": 71,
          "name": "B4",
          "ticks": 11899,
          "time": 138.36046511627907,
          "velocity": 0.41732283464566927
        },
        {
          "duration": 0.023255813953483084,
          "durationTicks": 2,
          "midi": 41,
          "name": "F2",
          "ticks": 11900,
          "time": 138.37209302325581,
          "velocity": 0.4566929133858268
        },
        {
          "duration": 0.08139534883721922,
          "durationTicks": 7,
          "midi": 52,
          "name": "E3",
          "ticks": 11901,
          "time": 138.38372093023256,
          "velocity": 0.4251968503937008
        },
        {
          "duration": 0.023255813953483084,
          "durationTicks": 2,
          "midi": 59,
          "name": "B3",
          "ticks": 11901,
          "time": 138.38372093023256,
          "velocity": 0.2755905511811024
        },
        {
          "duration": 0.04651162790699459,
          "durationTicks": 4,
          "midi": 78,
          "name": "F#5",
          "ticks": 11903,
          "time": 138.40697674418604,
          "velocity": 0.11811023622047244
        },
        {
          "duration": 0.04651162790699459,
          "durationTicks": 4,
          "midi": 40,
          "name": "E2",
          "ticks": 11904,
          "time": 138.41860465116278,
          "velocity": 0.44881889763779526
        },
        {
          "duration": 0.034883720930224626,
          "durationTicks": 3,
          "midi": 59,
          "name": "B3",
          "ticks": 11906,
          "time": 138.4418604651163,
          "velocity": 0.48031496062992124
        },
        {
          "duration": 0.034883720930224626,
          "durationTicks": 3,
          "midi": 84,
          "name": "C6",
          "ticks": 11906,
          "time": 138.4418604651163,
          "velocity": 0.13385826771653545
        },
        {
          "duration": 0.12790697674418539,
          "durationTicks": 11,
          "midi": 69,
          "name": "A4",
          "ticks": 11907,
          "time": 138.45348837209303,
          "velocity": 0.2755905511811024
        },
        {
          "duration": 0.12790697674418539,
          "durationTicks": 11,
          "midi": 72,
          "name": "C5",
          "ticks": 11907,
          "time": 138.45348837209303,
          "velocity": 0.5354330708661418
        },
        {
          "duration": 0.30232558139533694,
          "durationTicks": 26,
          "midi": 76,
          "name": "E5",
          "ticks": 11907,
          "time": 138.45348837209303,
          "velocity": 0.48031496062992124
        },
        {
          "duration": 0.1046511627907023,
          "durationTicks": 9,
          "midi": 64,
          "name": "E4",
          "ticks": 11908,
          "time": 138.46511627906978,
          "velocity": 0.5118110236220472
        },
        {
          "duration": 0.12790697674418539,
          "durationTicks": 11,
          "midi": 79,
          "name": "G5",
          "ticks": 11908,
          "time": 138.46511627906978,
          "velocity": 0.25984251968503935
        },
        {
          "duration": 0.06976744186044925,
          "durationTicks": 6,
          "midi": 85,
          "name": "C#6",
          "ticks": 11908,
          "time": 138.46511627906978,
          "velocity": 0.08661417322834646
        },
        {
          "duration": 0.16279069767441,
          "durationTicks": 14,
          "midi": 92,
          "name": "G#6",
          "ticks": 11908,
          "time": 138.46511627906978,
          "velocity": 0.14173228346456693
        },
        {
          "duration": 0.0813953488371908,
          "durationTicks": 7,
          "midi": 94,
          "name": "A#6",
          "ticks": 11908,
          "time": 138.46511627906978,
          "velocity": 0.07874015748031496
        },
        {
          "duration": 0.023255813953483084,
          "durationTicks": 2,
          "midi": 49,
          "name": "C#3",
          "ticks": 11909,
          "time": 138.47674418604652,
          "velocity": 0.4094488188976378
        },
        {
          "duration": 0.1046511627907023,
          "durationTicks": 9,
          "midi": 60,
          "name": "C4",
          "ticks": 11909,
          "time": 138.47674418604652,
          "velocity": 0.5275590551181102
        },
        {
          "duration": 0.06976744186044925,
          "durationTicks": 6,
          "midi": 98,
          "name": "D7",
          "ticks": 11909,
          "time": 138.47674418604652,
          "velocity": 0.11023622047244094
        },
        {
          "duration": 0.06976744186044925,
          "durationTicks": 6,
          "midi": 39,
          "name": "D#2",
          "ticks": 11910,
          "time": 138.48837209302326,
          "velocity": 0.44881889763779526
        },
        {
          "duration": 0.034883720930224626,
          "durationTicks": 3,
          "midi": 50,
          "name": "D3",
          "ticks": 11911,
          "time": 138.5,
          "velocity": 0.4566929133858268
        },
        {
          "duration": 0.034883720930224626,
          "durationTicks": 3,
          "midi": 90,
          "name": "F#6",
          "ticks": 11911,
          "time": 138.5,
          "velocity": 0.09448818897637795
        },
        {
          "duration": 0.023255813953511506,
          "durationTicks": 2,
          "midi": 50,
          "name": "D3",
          "ticks": 11915,
          "time": 138.54651162790697,
          "velocity": 0.4015748031496063
        },
        {
          "duration": 0.023255813953511506,
          "durationTicks": 2,
          "midi": 38,
          "name": "D2",
          "ticks": 11916,
          "time": 138.5581395348837,
          "velocity": 0.41732283464566927
        },
        {
          "duration": 0.5581395348837077,
          "durationTicks": 48,
          "midi": 81,
          "name": "A5",
          "ticks": 11917,
          "time": 138.56976744186048,
          "velocity": 0.2755905511811024
        },
        {
          "duration": 0.0813953488371908,
          "durationTicks": 7,
          "midi": 85,
          "name": "C#6",
          "ticks": 11917,
          "time": 138.56976744186048,
          "velocity": 0.12598425196850394
        },
        {
          "duration": 0.33720930232556157,
          "durationTicks": 29,
          "midi": 50,
          "name": "D3",
          "ticks": 11918,
          "time": 138.58139534883722,
          "velocity": 0.49606299212598426
        },
        {
          "duration": 0.011627906976741542,
          "durationTicks": 1,
          "midi": 61,
          "name": "C#4",
          "ticks": 11918,
          "time": 138.58139534883722,
          "velocity": 0.5669291338582677
        },
        {
          "duration": 0.5,
          "durationTicks": 43,
          "midi": 74,
          "name": "D5",
          "ticks": 11918,
          "time": 138.58139534883722,
          "velocity": 0.4881889763779528
        },
        {
          "duration": 0.05813953488370771,
          "durationTicks": 5,
          "midi": 78,
          "name": "F#5",
          "ticks": 11918,
          "time": 138.58139534883722,
          "velocity": 0.16535433070866143
        },
        {
          "duration": 0.16279069767441,
          "durationTicks": 14,
          "midi": 87,
          "name": "D#6",
          "ticks": 11918,
          "time": 138.58139534883722,
          "velocity": 0.18110236220472442
        },
        {
          "duration": 0.1860465116278931,
          "durationTicks": 16,
          "midi": 97,
          "name": "C#7",
          "ticks": 11918,
          "time": 138.58139534883722,
          "velocity": 0.14173228346456693
        },
        {
          "duration": 0.09302325581393234,
          "durationTicks": 8,
          "midi": 98,
          "name": "D7",
          "ticks": 11918,
          "time": 138.58139534883722,
          "velocity": 0.11023622047244094
        },
        {
          "duration": 0.44186046511626387,
          "durationTicks": 38,
          "midi": 62,
          "name": "D4",
          "ticks": 11919,
          "time": 138.59302325581396,
          "velocity": 0.5511811023622047
        },
        {
          "duration": 0.4534883720930054,
          "durationTicks": 39,
          "midi": 69,
          "name": "A4",
          "ticks": 11919,
          "time": 138.59302325581396,
          "velocity": 0.25984251968503935
        },
        {
          "duration": 0.023255813953483084,
          "durationTicks": 2,
          "midi": 72,
          "name": "C5",
          "ticks": 11919,
          "time": 138.59302325581396,
          "velocity": 0.47244094488188976
        },
        {
          "duration": 0.12790697674418539,
          "durationTicks": 11,
          "midi": 90,
          "name": "F#6",
          "ticks": 11919,
          "time": 138.59302325581396,
          "velocity": 0.25196850393700787
        },
        {
          "duration": 0.034883720930224626,
          "durationTicks": 3,
          "midi": 91,
          "name": "G6",
          "ticks": 11921,
          "time": 138.61627906976744,
          "velocity": 0.07874015748031496
        },
        {
          "duration": 0.034883720930224626,
          "durationTicks": 3,
          "midi": 39,
          "name": "D#2",
          "ticks": 11922,
          "time": 138.62790697674419,
          "velocity": 0.3937007874015748
        },
        {
          "duration": 0.19767441860466306,
          "durationTicks": 17,
          "midi": 71,
          "name": "B4",
          "ticks": 11923,
          "time": 138.63953488372093,
          "velocity": 0.3228346456692913
        },
        {
          "duration": 0.06976744186047767,
          "durationTicks": 6,
          "midi": 38,
          "name": "D2",
          "ticks": 11925,
          "time": 138.6627906976744,
          "velocity": 0.33070866141732286
        },
        {
          "duration": 0.023255813953483084,
          "durationTicks": 2,
          "midi": 58,
          "name": "A#3",
          "ticks": 11928,
          "time": 138.69767441860466,
          "velocity": 0.2755905511811024
        },
        {
          "duration": 0.3139534883720785,
          "durationTicks": 27,
          "midi": 66,
          "name": "F#4",
          "ticks": 11930,
          "time": 138.72093023255815,
          "velocity": 0.2677165354330709
        },
        {
          "duration": 0.08139534883721922,
          "durationTicks": 7,
          "midi": 90,
          "name": "F#6",
          "ticks": 11932,
          "time": 138.74418604651163,
          "velocity": 0.11811023622047244
        },
        {
          "duration": 0.04651162790696617,
          "durationTicks": 4,
          "midi": 38,
          "name": "D2",
          "ticks": 11933,
          "time": 138.75581395348837,
          "velocity": 0.2677165354330709
        },
        {
          "duration": 0.1046511627907023,
          "durationTicks": 9,
          "midi": 80,
          "name": "G#5",
          "ticks": 11937,
          "time": 138.80232558139534,
          "velocity": 0.14960629921259844
        },
        {
          "duration": 0.023255813953483084,
          "durationTicks": 2,
          "midi": 40,
          "name": "E2",
          "ticks": 11938,
          "time": 138.8139534883721,
          "velocity": 0.4409448818897638
        },
        {
          "duration": 0.22093023255811772,
          "durationTicks": 19,
          "midi": 57,
          "name": "A3",
          "ticks": 11938,
          "time": 138.8139534883721,
          "velocity": 0.41732283464566927
        },
        {
          "duration": 0.04651162790696617,
          "durationTicks": 4,
          "midi": 84,
          "name": "C6",
          "ticks": 11939,
          "time": 138.82558139534885,
          "velocity": 0.07874015748031496
        },
        {
          "duration": 0.023255813953483084,
          "durationTicks": 2,
          "midi": 39,
          "name": "D#2",
          "ticks": 11940,
          "time": 138.8372093023256,
          "velocity": 0.4566929133858268
        },
        {
          "duration": 0.034883720930224626,
          "durationTicks": 3,
          "midi": 71,
          "name": "B4",
          "ticks": 11941,
          "time": 138.84883720930233,
          "velocity": 0.1889763779527559
        },
        {
          "duration": 0.04651162790696617,
          "durationTicks": 4,
          "midi": 90,
          "name": "F#6",
          "ticks": 11941,
          "time": 138.84883720930233,
          "velocity": 0.14960629921259844
        },
        {
          "duration": 0.04651162790696617,
          "durationTicks": 4,
          "midi": 38,
          "name": "D2",
          "ticks": 11942,
          "time": 138.86046511627907,
          "velocity": 0.4409448818897638
        },
        {
          "duration": 0.05813953488373613,
          "durationTicks": 5,
          "midi": 72,
          "name": "C5",
          "ticks": 11945,
          "time": 138.8953488372093,
          "velocity": 0.2047244094488189
        },
        {
          "duration": 0.16279069767443843,
          "durationTicks": 14,
          "midi": 76,
          "name": "E5",
          "ticks": 11946,
          "time": 138.90697674418604,
          "velocity": 0.14173228346456693
        },
        {
          "duration": 0.03488372093025305,
          "durationTicks": 3,
          "midi": 90,
          "name": "F#6",
          "ticks": 11946,
          "time": 138.90697674418604,
          "velocity": 0.14960629921259844
        },
        {
          "duration": 0.023255813953511506,
          "durationTicks": 2,
          "midi": 40,
          "name": "E2",
          "ticks": 11947,
          "time": 138.91860465116278,
          "velocity": 0.4881889763779528
        },
        {
          "duration": 0.3953488372093261,
          "durationTicks": 34,
          "midi": 85,
          "name": "C#6",
          "ticks": 11947,
          "time": 138.91860465116278,
          "velocity": 0.2440944881889764
        },
        {
          "duration": 0.09302325581396076,
          "durationTicks": 8,
          "midi": 50,
          "name": "D3",
          "ticks": 11948,
          "time": 138.93023255813952,
          "velocity": 0.4645669291338583
        },
        {
          "duration": 0.034883720930224626,
          "durationTicks": 3,
          "midi": 39,
          "name": "D#2",
          "ticks": 11949,
          "time": 138.9418604651163,
          "velocity": 0.44881889763779526
        },
        {
          "duration": 0.023255813953483084,
          "durationTicks": 2,
          "midi": 38,
          "name": "D2",
          "ticks": 11954,
          "time": 139,
          "velocity": 0.31496062992125984
        },
        {
          "duration": 0.45348837209303383,
          "durationTicks": 39,
          "midi": 67,
          "name": "G4",
          "ticks": 11957,
          "time": 139.03488372093022,
          "velocity": 0.23622047244094488
        },
        {
          "duration": 0.03488372093025305,
          "durationTicks": 3,
          "midi": 77,
          "name": "F5",
          "ticks": 11957,
          "time": 139.03488372093022,
          "velocity": 0.14173228346456693
        },
        {
          "duration": 0.06976744186047767,
          "durationTicks": 6,
          "midi": 83,
          "name": "B5",
          "ticks": 11957,
          "time": 139.03488372093022,
          "velocity": 0.12598425196850394
        },
        {
          "duration": 0.04651162790699459,
          "durationTicks": 4,
          "midi": 84,
          "name": "C6",
          "ticks": 11957,
          "time": 139.03488372093022,
          "velocity": 0.08661417322834646
        },
        {
          "duration": 0.2093023255814046,
          "durationTicks": 18,
          "midi": 45,
          "name": "A2",
          "ticks": 11958,
          "time": 139.04651162790697,
          "velocity": 0.49606299212598426
        },
        {
          "duration": 0.023255813953483084,
          "durationTicks": 2,
          "midi": 52,
          "name": "E3",
          "ticks": 11960,
          "time": 139.06976744186048,
          "velocity": 0.29133858267716534
        },
        {
          "duration": 0.034883720930224626,
          "durationTicks": 3,
          "midi": 61,
          "name": "C#4",
          "ticks": 11960,
          "time": 139.06976744186048,
          "velocity": 0.29133858267716534
        },
        {
          "duration": 0.034883720930224626,
          "durationTicks": 3,
          "midi": 74,
          "name": "D5",
          "ticks": 11963,
          "time": 139.1046511627907,
          "velocity": 0.23622047244094488
        },
        {
          "duration": 0.12790697674418539,
          "durationTicks": 11,
          "midi": 52,
          "name": "E3",
          "ticks": 11965,
          "time": 139.12790697674419,
          "velocity": 0.2440944881889764
        },
        {
          "duration": 0.023255813953483084,
          "durationTicks": 2,
          "midi": 61,
          "name": "C#4",
          "ticks": 11965,
          "time": 139.12790697674419,
          "velocity": 0.2440944881889764
        },
        {
          "duration": 0.03488372093025305,
          "durationTicks": 3,
          "midi": 74,
          "name": "D5",
          "ticks": 11968,
          "time": 139.1627906976744,
          "velocity": 0.2047244094488189
        },
        {
          "duration": 0.023255813953483084,
          "durationTicks": 2,
          "midi": 59,
          "name": "B3",
          "ticks": 11975,
          "time": 139.24418604651163,
          "velocity": 0.25984251968503935
        },
        {
          "duration": 0.023255813953483084,
          "durationTicks": 2,
          "midi": 44,
          "name": "G#2",
          "ticks": 11976,
          "time": 139.25581395348837,
          "velocity": 0.44881889763779526
        },
        {
          "duration": 0.034883720930224626,
          "durationTicks": 3,
          "midi": 76,
          "name": "E5",
          "ticks": 11976,
          "time": 139.25581395348837,
          "velocity": 0.08661417322834646
        },
        {
          "duration": 0.2325581395348877,
          "durationTicks": 20,
          "midi": 55,
          "name": "G3",
          "ticks": 11977,
          "time": 139.2674418604651,
          "velocity": 0.33858267716535434
        },
        {
          "duration": 0.17441860465117998,
          "durationTicks": 15,
          "midi": 60,
          "name": "C4",
          "ticks": 11977,
          "time": 139.2674418604651,
          "velocity": 0.31496062992125984
        },
        {
          "duration": 0.22093023255814614,
          "durationTicks": 19,
          "midi": 64,
          "name": "E4",
          "ticks": 11977,
          "time": 139.2674418604651,
          "velocity": 0.2047244094488189
        },
        {
          "duration": 0.22093023255814614,
          "durationTicks": 19,
          "midi": 70,
          "name": "A#4",
          "ticks": 11977,
          "time": 139.2674418604651,
          "velocity": 0.14960629921259844
        },
        {
          "duration": 0.034883720930224626,
          "durationTicks": 3,
          "midi": 84,
          "name": "C6",
          "ticks": 11977,
          "time": 139.2674418604651,
          "velocity": 0.07874015748031496
        },
        {
          "duration": 0.04651162790699459,
          "durationTicks": 4,
          "midi": 95,
          "name": "B6",
          "ticks": 11977,
          "time": 139.2674418604651,
          "velocity": 0.07874015748031496
        },
        {
          "duration": 0.023255813953483084,
          "durationTicks": 2,
          "midi": 47,
          "name": "B2",
          "ticks": 11978,
          "time": 139.27906976744185,
          "velocity": 0.4881889763779528
        },
        {
          "duration": 0.03488372093025305,
          "durationTicks": 3,
          "midi": 74,
          "name": "D5",
          "ticks": 11978,
          "time": 139.27906976744185,
          "velocity": 0.15748031496062992
        },
        {
          "duration": 0.04651162790699459,
          "durationTicks": 4,
          "midi": 37,
          "name": "C#2",
          "ticks": 11979,
          "time": 139.2906976744186,
          "velocity": 0.4409448818897638
        },
        {
          "duration": 0.2093023255814046,
          "durationTicks": 18,
          "midi": 48,
          "name": "C3",
          "ticks": 11980,
          "time": 139.30232558139534,
          "velocity": 0.5039370078740157
        },
        {
          "duration": 0.1046511627907023,
          "durationTicks": 9,
          "midi": 83,
          "name": "B5",
          "ticks": 11980,
          "time": 139.30232558139534,
          "velocity": 0.08661417322834646
        },
        {
          "duration": 0.09302325581393234,
          "durationTicks": 8,
          "midi": 36,
          "name": "C2",
          "ticks": 11983,
          "time": 139.3372093023256,
          "velocity": 0.41732283464566927
        },
        {
          "duration": 0.034883720930224626,
          "durationTicks": 3,
          "midi": 91,
          "name": "G6",
          "ticks": 11983,
          "time": 139.3372093023256,
          "velocity": 0.07086614173228346
        },
        {
          "duration": 0.06976744186044925,
          "durationTicks": 6,
          "midi": 78,
          "name": "F#5",
          "ticks": 11984,
          "time": 139.34883720930233,
          "velocity": 0.10236220472440945
        },
        {
          "duration": 0.023255813953511506,
          "durationTicks": 2,
          "midi": 35,
          "name": "B1",
          "ticks": 11991,
          "time": 139.43023255813952,
          "velocity": 0.25196850393700787
        },
        {
          "duration": 0.034883720930224626,
          "durationTicks": 3,
          "midi": 36,
          "name": "C2",
          "ticks": 11993,
          "time": 139.45348837209303,
          "velocity": 0.2677165354330709
        },
        {
          "duration": 0.023255813953483084,
          "durationTicks": 2,
          "midi": 59,
          "name": "B3",
          "ticks": 11995,
          "time": 139.47674418604652,
          "velocity": 0.25984251968503935
        },
        {
          "duration": 0.4767441860465169,
          "durationTicks": 41,
          "midi": 69,
          "name": "A4",
          "ticks": 11996,
          "time": 139.48837209302326,
          "velocity": 0.2204724409448819
        },
        {
          "duration": 0.034883720930224626,
          "durationTicks": 3,
          "midi": 79,
          "name": "G5",
          "ticks": 11996,
          "time": 139.48837209302326,
          "velocity": 0.11023622047244094
        },
        {
          "duration": 0.034883720930224626,
          "durationTicks": 3,
          "midi": 56,
          "name": "G#3",
          "ticks": 11997,
          "time": 139.5,
          "velocity": 0.3543307086614173
        },
        {
          "duration": 0.48837209302325846,
          "durationTicks": 42,
          "midi": 66,
          "name": "F#4",
          "ticks": 11997,
          "time": 139.5,
          "velocity": 0.2677165354330709
        },
        {
          "duration": 0.22093023255814614,
          "durationTicks": 19,
          "midi": 72,
          "name": "C5",
          "ticks": 11997,
          "time": 139.5,
          "velocity": 0.15748031496062992
        },
        {
          "duration": 0.45348837209303383,
          "durationTicks": 39,
          "midi": 62,
          "name": "D4",
          "ticks": 11998,
          "time": 139.51162790697674,
          "velocity": 0.31496062992125984
        },
        {
          "duration": 0.023255813953483084,
          "durationTicks": 2,
          "midi": 38,
          "name": "D2",
          "ticks": 11999,
          "time": 139.52325581395348,
          "velocity": 0.4566929133858268
        },
        {
          "duration": 0.43023255813955075,
          "durationTicks": 37,
          "midi": 50,
          "name": "D3",
          "ticks": 11999,
          "time": 139.52325581395348,
          "velocity": 0.49606299212598426
        },
        {
          "duration": 0.05813953488373613,
          "durationTicks": 5,
          "midi": 93,
          "name": "A6",
          "ticks": 11999,
          "time": 139.52325581395348,
          "velocity": 0.12598425196850394
        },
        {
          "duration": 0.4418604651162923,
          "durationTicks": 38,
          "midi": 57,
          "name": "A3",
          "ticks": 12000,
          "time": 139.53488372093022,
          "velocity": 0.3779527559055118
        },
        {
          "duration": 0.04651162790699459,
          "durationTicks": 4,
          "midi": 39,
          "name": "D#2",
          "ticks": 12001,
          "time": 139.54651162790697,
          "velocity": 0.4094488188976378
        },
        {
          "duration": 0.1046511627907023,
          "durationTicks": 9,
          "midi": 76,
          "name": "E5",
          "ticks": 12001,
          "time": 139.54651162790697,
          "velocity": 0.08661417322834646
        },
        {
          "duration": 0.1046511627907023,
          "durationTicks": 9,
          "midi": 80,
          "name": "G#5",
          "ticks": 12002,
          "time": 139.5581395348837,
          "velocity": 0.07086614173228346
        },
        {
          "duration": 0.034883720930224626,
          "durationTicks": 3,
          "midi": 38,
          "name": "D2",
          "ticks": 12005,
          "time": 139.59302325581396,
          "velocity": 0.3464566929133858
        },
        {
          "duration": 0.034883720930224626,
          "durationTicks": 3,
          "midi": 37,
          "name": "C#2",
          "ticks": 12008,
          "time": 139.62790697674419,
          "velocity": 0.2992125984251969
        },
        {
          "duration": 0.05813953488373613,
          "durationTicks": 5,
          "midi": 38,
          "name": "D2",
          "ticks": 12011,
          "time": 139.6627906976744,
          "velocity": 0.2677165354330709
        },
        {
          "duration": 0.19767441860463464,
          "durationTicks": 17,
          "midi": 80,
          "name": "G#5",
          "ticks": 12016,
          "time": 139.72093023255815,
          "velocity": 0.14960629921259844
        },
        {
          "duration": 0.023255813953483084,
          "durationTicks": 2,
          "midi": 40,
          "name": "E2",
          "ticks": 12017,
          "time": 139.7325581395349,
          "velocity": 0.44881889763779526
        },
        {
          "duration": 0.09302325581396076,
          "durationTicks": 8,
          "midi": 90,
          "name": "F#6",
          "ticks": 12017,
          "time": 139.7325581395349,
          "velocity": 0.11023622047244094
        },
        {
          "duration": 0.2325581395348877,
          "durationTicks": 20,
          "midi": 72,
          "name": "C5",
          "ticks": 12018,
          "time": 139.74418604651163,
          "velocity": 0.16535433070866143
        },
        {
          "duration": 0.023255813953483084,
          "durationTicks": 2,
          "midi": 39,
          "name": "D#2",
          "ticks": 12019,
          "time": 139.75581395348837,
          "velocity": 0.4645669291338583
        },
        {
          "duration": 0.1046511627907023,
          "durationTicks": 9,
          "midi": 38,
          "name": "D2",
          "ticks": 12021,
          "time": 139.77906976744185,
          "velocity": 0.4409448818897638
        },
        {
          "duration": 0.05813953488373613,
          "durationTicks": 5,
          "midi": 38,
          "name": "D2",
          "ticks": 12031,
          "time": 139.8953488372093,
          "velocity": 0.29133858267716534
        },
        {
          "duration": 0.04651162790696617,
          "durationTicks": 4,
          "midi": 76,
          "name": "E5",
          "ticks": 12036,
          "time": 139.95348837209303,
          "velocity": 0.11023622047244094
        },
        {
          "duration": 0.3720930232558146,
          "durationTicks": 32,
          "midi": 85,
          "name": "C#6",
          "ticks": 12036,
          "time": 139.95348837209303,
          "velocity": 0.2283464566929134
        },
        {
          "duration": 0.023255813953483084,
          "durationTicks": 2,
          "midi": 61,
          "name": "C#4",
          "ticks": 12037,
          "time": 139.96511627906978,
          "velocity": 0.2440944881889764
        },
        {
          "duration": 0.034883720930224626,
          "durationTicks": 3,
          "midi": 75,
          "name": "D#5",
          "ticks": 12037,
          "time": 139.96511627906978,
          "velocity": 0.23622047244094488
        },
        {
          "duration": 0.2325581395348877,
          "durationTicks": 20,
          "midi": 79,
          "name": "G5",
          "ticks": 12037,
          "time": 139.96511627906978,
          "velocity": 0.16535433070866143
        },
        {
          "duration": 0.0813953488371908,
          "durationTicks": 7,
          "midi": 83,
          "name": "B5",
          "ticks": 12037,
          "time": 139.96511627906978,
          "velocity": 0.07874015748031496
        },
        {
          "duration": 0.22093023255814614,
          "durationTicks": 19,
          "midi": 45,
          "name": "A2",
          "ticks": 12038,
          "time": 139.97674418604652,
          "velocity": 0.5196850393700787
        },
        {
          "duration": 0.1860465116278931,
          "durationTicks": 16,
          "midi": 67,
          "name": "G4",
          "ticks": 12039,
          "time": 139.98837209302326,
          "velocity": 0.2047244094488189
        },
        {
          "duration": 0.034883720930224626,
          "durationTicks": 3,
          "midi": 52,
          "name": "E3",
          "ticks": 12040,
          "time": 140,
          "velocity": 0.2755905511811024
        },
        {
          "duration": 0.034883720930224626,
          "durationTicks": 3,
          "midi": 61,
          "name": "C#4",
          "ticks": 12040,
          "time": 140,
          "velocity": 0.25984251968503935
        },
        {
          "duration": 0.023255813953483084,
          "durationTicks": 2,
          "midi": 74,
          "name": "D5",
          "ticks": 12040,
          "time": 140,
          "velocity": 0.25196850393700787
        },
        {
          "duration": 0.034883720930224626,
          "durationTicks": 3,
          "midi": 75,
          "name": "D#5",
          "ticks": 12042,
          "time": 140.02325581395348,
          "velocity": 0.2125984251968504
        },
        {
          "duration": 0.13953488372092693,
          "durationTicks": 12,
          "midi": 52,
          "name": "E3",
          "ticks": 12044,
          "time": 140.04651162790697,
          "velocity": 0.2755905511811024
        },
        {
          "duration": 0.09302325581396076,
          "durationTicks": 8,
          "midi": 61,
          "name": "C#4",
          "ticks": 12044,
          "time": 140.04651162790697,
          "velocity": 0.2204724409448819
        },
        {
          "duration": 0.034883720930224626,
          "durationTicks": 3,
          "midi": 74,
          "name": "D5",
          "ticks": 12049,
          "time": 140.1046511627907,
          "velocity": 0.2047244094488189
        },
        {
          "duration": 0.04651162790699459,
          "durationTicks": 4,
          "midi": 61,
          "name": "C#4",
          "ticks": 12053,
          "time": 140.15116279069767,
          "velocity": 0.2125984251968504
        },
        {
          "duration": 0.03488372093025305,
          "durationTicks": 3,
          "midi": 78,
          "name": "F#5",
          "ticks": 12055,
          "time": 140.17441860465115,
          "velocity": 0.11811023622047244
        },
        {
          "duration": 0.19767441860466306,
          "durationTicks": 17,
          "midi": 81,
          "name": "A5",
          "ticks": 12055,
          "time": 140.17441860465115,
          "velocity": 0.2440944881889764
        },
        {
          "duration": 0.3139534883721069,
          "durationTicks": 27,
          "midi": 83,
          "name": "B5",
          "ticks": 12055,
          "time": 140.17441860465115,
          "velocity": 0.25196850393700787
        },
        {
          "duration": 0.08139534883721922,
          "durationTicks": 7,
          "midi": 91,
          "name": "G6",
          "ticks": 12055,
          "time": 140.17441860465115,
          "velocity": 0.1889763779527559
        },
        {
          "duration": 0.03488372093025305,
          "durationTicks": 3,
          "midi": 56,
          "name": "G#3",
          "ticks": 12056,
          "time": 140.1860465116279,
          "velocity": 0.3858267716535433
        },
        {
          "duration": 0.22093023255814614,
          "durationTicks": 19,
          "midi": 64,
          "name": "E4",
          "ticks": 12056,
          "time": 140.1860465116279,
          "velocity": 0.2440944881889764
        },
        {
          "duration": 0.11627906976744384,
          "durationTicks": 10,
          "midi": 69,
          "name": "A4",
          "ticks": 12056,
          "time": 140.1860465116279,
          "velocity": 0.4645669291338583
        },
        {
          "duration": 0.1279069767442138,
          "durationTicks": 11,
          "midi": 88,
          "name": "E6",
          "ticks": 12056,
          "time": 140.1860465116279,
          "velocity": 0.15748031496062992
        },
        {
          "duration": 0.023255813953483084,
          "durationTicks": 2,
          "midi": 60,
          "name": "C4",
          "ticks": 12057,
          "time": 140.19767441860466,
          "velocity": 0.29133858267716534
        },
        {
          "duration": 0.0813953488371908,
          "durationTicks": 7,
          "midi": 74,
          "name": "D5",
          "ticks": 12058,
          "time": 140.2093023255814,
          "velocity": 0.18110236220472442
        },
        {
          "duration": 0.023255813953483084,
          "durationTicks": 2,
          "midi": 55,
          "name": "G3",
          "ticks": 12059,
          "time": 140.22093023255815,
          "velocity": 0.33070866141732286
        },
        {
          "duration": 0.0813953488371908,
          "durationTicks": 7,
          "midi": 78,
          "name": "F#5",
          "ticks": 12059,
          "time": 140.22093023255815,
          "velocity": 0.10236220472440945
        },
        {
          "duration": 0.034883720930224626,
          "durationTicks": 3,
          "midi": 37,
          "name": "C#2",
          "ticks": 12060,
          "time": 140.2325581395349,
          "velocity": 0.4409448818897638
        },
        {
          "duration": 0.05813953488373613,
          "durationTicks": 5,
          "midi": 48,
          "name": "C3",
          "ticks": 12062,
          "time": 140.25581395348837,
          "velocity": 0.3779527559055118
        },
        {
          "duration": 0.05813953488373613,
          "durationTicks": 5,
          "midi": 36,
          "name": "C2",
          "ticks": 12063,
          "time": 140.2674418604651,
          "velocity": 0.3937007874015748
        },
        {
          "duration": 0.04651162790699459,
          "durationTicks": 4,
          "midi": 91,
          "name": "G6",
          "ticks": 12063,
          "time": 140.2674418604651,
          "velocity": 0.13385826771653545
        },
        {
          "duration": 0.023255813953511506,
          "durationTicks": 2,
          "midi": 58,
          "name": "A#3",
          "ticks": 12066,
          "time": 140.30232558139534,
          "velocity": 0.4094488188976378
        },
        {
          "duration": 0.09302325581396076,
          "durationTicks": 8,
          "midi": 67,
          "name": "G4",
          "ticks": 12066,
          "time": 140.30232558139534,
          "velocity": 0.13385826771653545
        },
        {
          "duration": 0.09302325581396076,
          "durationTicks": 8,
          "midi": 71,
          "name": "B4",
          "ticks": 12066,
          "time": 140.30232558139534,
          "velocity": 0.4409448818897638
        },
        {
          "duration": 0.12790697674418539,
          "durationTicks": 11,
          "midi": 87,
          "name": "D#6",
          "ticks": 12066,
          "time": 140.30232558139534,
          "velocity": 0.1732283464566929
        },
        {
          "duration": 0.034883720930224626,
          "durationTicks": 3,
          "midi": 78,
          "name": "F#5",
          "ticks": 12067,
          "time": 140.3139534883721,
          "velocity": 0.16535433070866143
        },
        {
          "duration": 0.06976744186044925,
          "durationTicks": 6,
          "midi": 48,
          "name": "C3",
          "ticks": 12068,
          "time": 140.32558139534885,
          "velocity": 0.36220472440944884
        },
        {
          "duration": 0.023255813953483084,
          "durationTicks": 2,
          "midi": 59,
          "name": "B3",
          "ticks": 12068,
          "time": 140.32558139534885,
          "velocity": 0.33070866141732286
        },
        {
          "duration": 0.05813953488370771,
          "durationTicks": 5,
          "midi": 55,
          "name": "G3",
          "ticks": 12069,
          "time": 140.3372093023256,
          "velocity": 0.2677165354330709
        },
        {
          "duration": 0.034883720930224626,
          "durationTicks": 3,
          "midi": 59,
          "name": "B3",
          "ticks": 12072,
          "time": 140.37209302325581,
          "velocity": 0.3937007874015748
        },
        {
          "duration": 0.023255813953483084,
          "durationTicks": 2,
          "midi": 70,
          "name": "A#4",
          "ticks": 12074,
          "time": 140.3953488372093,
          "velocity": 0.4094488188976378
        },
        {
          "duration": 0.04651162790699459,
          "durationTicks": 4,
          "midi": 74,
          "name": "D5",
          "ticks": 12074,
          "time": 140.3953488372093,
          "velocity": 0.11811023622047244
        },
        {
          "duration": 0.22093023255814614,
          "durationTicks": 19,
          "midi": 81,
          "name": "A5",
          "ticks": 12074,
          "time": 140.3953488372093,
          "velocity": 0.25984251968503935
        },
        {
          "duration": 0.05813953488373613,
          "durationTicks": 5,
          "midi": 57,
          "name": "A3",
          "ticks": 12075,
          "time": 140.40697674418604,
          "velocity": 0.3937007874015748
        },
        {
          "duration": 0.04651162790699459,
          "durationTicks": 4,
          "midi": 80,
          "name": "G#5",
          "ticks": 12075,
          "time": 140.40697674418604,
          "velocity": 0.11811023622047244
        },
        {
          "duration": 0.15116279069766847,
          "durationTicks": 13,
          "midi": 85,
          "name": "C#6",
          "ticks": 12075,
          "time": 140.40697674418604,
          "velocity": 0.1968503937007874
        },
        {
          "duration": 0.08139534883721922,
          "durationTicks": 7,
          "midi": 91,
          "name": "G6",
          "ticks": 12075,
          "time": 140.40697674418604,
          "velocity": 0.11023622047244094
        },
        {
          "duration": 0.33720930232559,
          "durationTicks": 29,
          "midi": 50,
          "name": "D3",
          "ticks": 12076,
          "time": 140.41860465116278,
          "velocity": 0.4881889763779528
        },
        {
          "duration": 0.2093023255814046,
          "durationTicks": 18,
          "midi": 69,
          "name": "A4",
          "ticks": 12076,
          "time": 140.41860465116278,
          "velocity": 0.4409448818897638
        },
        {
          "duration": 0.32558139534884845,
          "durationTicks": 28,
          "midi": 66,
          "name": "F#4",
          "ticks": 12077,
          "time": 140.43023255813952,
          "velocity": 0.2677165354330709
        },
        {
          "duration": 0.04651162790696617,
          "durationTicks": 4,
          "midi": 38,
          "name": "D2",
          "ticks": 12078,
          "time": 140.4418604651163,
          "velocity": 0.44881889763779526
        },
        {
          "duration": 0.034883720930224626,
          "durationTicks": 3,
          "midi": 71,
          "name": "B4",
          "ticks": 12078,
          "time": 140.4418604651163,
          "velocity": 0.18110236220472442
        },
        {
          "duration": 0.17441860465115155,
          "durationTicks": 15,
          "midi": 76,
          "name": "E5",
          "ticks": 12080,
          "time": 140.46511627906978,
          "velocity": 0.10236220472440945
        },
        {
          "duration": 0.1046511627907023,
          "durationTicks": 9,
          "midi": 80,
          "name": "G#5",
          "ticks": 12080,
          "time": 140.46511627906978,
          "velocity": 0.07874015748031496
        },
        {
          "duration": 0.2674418604651123,
          "durationTicks": 23,
          "midi": 57,
          "name": "A3",
          "ticks": 12081,
          "time": 140.47674418604652,
          "velocity": 0.33070866141732286
        },
        {
          "duration": 0.04651162790696617,
          "durationTicks": 4,
          "midi": 38,
          "name": "D2",
          "ticks": 12083,
          "time": 140.5,
          "velocity": 0.30708661417322836
        },
        {
          "duration": 0.12790697674418539,
          "durationTicks": 11,
          "midi": 72,
          "name": "C5",
          "ticks": 12083,
          "time": 140.5,
          "velocity": 0.11811023622047244
        },
        {
          "duration": 0.03488372093025305,
          "durationTicks": 3,
          "midi": 37,
          "name": "C#2",
          "ticks": 12087,
          "time": 140.54651162790697,
          "velocity": 0.2755905511811024
        },
        {
          "duration": 0.04651162790696617,
          "durationTicks": 4,
          "midi": 38,
          "name": "D2",
          "ticks": 12090,
          "time": 140.58139534883722,
          "velocity": 0.2755905511811024
        },
        {
          "duration": 0.12790697674418539,
          "durationTicks": 11,
          "midi": 80,
          "name": "G#5",
          "ticks": 12094,
          "time": 140.62790697674419,
          "velocity": 0.14960629921259844
        },
        {
          "duration": 0.2093023255814046,
          "durationTicks": 18,
          "midi": 93,
          "name": "A6",
          "ticks": 12094,
          "time": 140.62790697674419,
          "velocity": 0.16535433070866143
        },
        {
          "duration": 0.023255813953483084,
          "durationTicks": 2,
          "midi": 40,
          "name": "E2",
          "ticks": 12095,
          "time": 140.63953488372093,
          "velocity": 0.4409448818897638
        },
        {
          "duration": 0.06976744186047767,
          "durationTicks": 6,
          "midi": 90,
          "name": "F#6",
          "ticks": 12095,
          "time": 140.63953488372093,
          "velocity": 0.09448818897637795
        },
        {
          "duration": 0.1046511627907023,
          "durationTicks": 9,
          "midi": 72,
          "name": "C5",
          "ticks": 12096,
          "time": 140.65116279069767,
          "velocity": 0.12598425196850394
        },
        {
          "duration": 0.023255813953483084,
          "durationTicks": 2,
          "midi": 39,
          "name": "D#2",
          "ticks": 12097,
          "time": 140.6627906976744,
          "velocity": 0.4566929133858268
        },
        {
          "duration": 0.06976744186047767,
          "durationTicks": 6,
          "midi": 38,
          "name": "D2",
          "ticks": 12099,
          "time": 140.6860465116279,
          "velocity": 0.4409448818897638
        },
        {
          "duration": 0.16279069767441,
          "durationTicks": 14,
          "midi": 79,
          "name": "G5",
          "ticks": 12105,
          "time": 140.75581395348837,
          "velocity": 0.25196850393700787
        },
        {
          "duration": 0.17441860465115155,
          "durationTicks": 15,
          "midi": 83,
          "name": "B5",
          "ticks": 12105,
          "time": 140.75581395348837,
          "velocity": 0.1889763779527559
        },
        {
          "duration": 0.09302325581396076,
          "durationTicks": 8,
          "midi": 38,
          "name": "D2",
          "ticks": 12106,
          "time": 140.7674418604651,
          "velocity": 0.33858267716535434
        },
        {
          "duration": 0.09302325581396076,
          "durationTicks": 8,
          "midi": 67,
          "name": "G4",
          "ticks": 12106,
          "time": 140.7674418604651,
          "velocity": 0.4330708661417323
        },
        {
          "duration": 0.05813953488373613,
          "durationTicks": 5,
          "midi": 86,
          "name": "D6",
          "ticks": 12106,
          "time": 140.7674418604651,
          "velocity": 0.08661417322834646
        },
        {
          "duration": 0.08139534883721922,
          "durationTicks": 7,
          "midi": 50,
          "name": "D3",
          "ticks": 12107,
          "time": 140.77906976744185,
          "velocity": 0.3543307086614173
        },
        {
          "duration": 0.023255813953483084,
          "durationTicks": 2,
          "midi": 56,
          "name": "G#3",
          "ticks": 12107,
          "time": 140.77906976744185,
          "velocity": 0.33070866141732286
        },
        {
          "duration": 0.1046511627907023,
          "durationTicks": 9,
          "midi": 72,
          "name": "C5",
          "ticks": 12107,
          "time": 140.77906976744185,
          "velocity": 0.16535433070866143
        },
        {
          "duration": 0.09302325581396076,
          "durationTicks": 8,
          "midi": 89,
          "name": "F6",
          "ticks": 12107,
          "time": 140.77906976744185,
          "velocity": 0.11023622047244094
        },
        {
          "duration": 0.04651162790696617,
          "durationTicks": 4,
          "midi": 55,
          "name": "G3",
          "ticks": 12110,
          "time": 140.8139534883721,
          "velocity": 0.30708661417322836
        },
        {
          "duration": 0.023255813953483084,
          "durationTicks": 2,
          "midi": 66,
          "name": "F#4",
          "ticks": 12114,
          "time": 140.86046511627907,
          "velocity": 0.2440944881889764
        },
        {
          "duration": 0.04651162790696617,
          "durationTicks": 4,
          "midi": 76,
          "name": "E5",
          "ticks": 12114,
          "time": 140.86046511627907,
          "velocity": 0.12598425196850394
        },
        {
          "duration": 0.24418604651162923,
          "durationTicks": 21,
          "midi": 85,
          "name": "C#6",
          "ticks": 12114,
          "time": 140.86046511627907,
          "velocity": 0.2283464566929134
        },
        {
          "duration": 0.06976744186044925,
          "durationTicks": 6,
          "midi": 93,
          "name": "A6",
          "ticks": 12114,
          "time": 140.86046511627907,
          "velocity": 0.08661417322834646
        },
        {
          "duration": 0.2093023255814046,
          "durationTicks": 18,
          "midi": 45,
          "name": "A2",
          "ticks": 12116,
          "time": 140.88372093023256,
          "velocity": 0.5039370078740157
        },
        {
          "duration": 0.1046511627907023,
          "durationTicks": 9,
          "midi": 67,
          "name": "G4",
          "ticks": 12117,
          "time": 140.8953488372093,
          "velocity": 0.31496062992125984
        },
        {
          "duration": 0.034883720930224626,
          "durationTicks": 3,
          "midi": 74,
          "name": "D5",
          "ticks": 12117,
          "time": 140.8953488372093,
          "velocity": 0.2440944881889764
        },
        {
          "duration": 0.19767441860466306,
          "durationTicks": 17,
          "midi": 61,
          "name": "C#4",
          "ticks": 12118,
          "time": 140.90697674418604,
          "velocity": 0.25196850393700787
        },
        {
          "duration": 0.03488372093025305,
          "durationTicks": 3,
          "midi": 75,
          "name": "D#5",
          "ticks": 12120,
          "time": 140.93023255813952,
          "velocity": 0.2047244094488189
        },
        {
          "duration": 0.034883720930224626,
          "durationTicks": 3,
          "midi": 83,
          "name": "B5",
          "ticks": 12121,
          "time": 140.9418604651163,
          "velocity": 0.13385826771653545
        },
        {
          "duration": 0.034883720930224626,
          "durationTicks": 3,
          "midi": 75,
          "name": "D#5",
          "ticks": 12125,
          "time": 140.98837209302326,
          "velocity": 0.15748031496062992
        },
        {
          "duration": 0.08139534883721922,
          "durationTicks": 7,
          "midi": 67,
          "name": "G4",
          "ticks": 12128,
          "time": 141.02325581395348,
          "velocity": 0.23622047244094488
        },
        {
          "duration": 0.08139534883721922,
          "durationTicks": 7,
          "midi": 75,
          "name": "D#5",
          "ticks": 12130,
          "time": 141.04651162790697,
          "velocity": 0.1732283464566929
        },
        {
          "duration": 0.023255813953483084,
          "durationTicks": 2,
          "midi": 53,
          "name": "F3",
          "ticks": 12132,
          "time": 141.06976744186048,
          "velocity": 0.25196850393700787
        },
        {
          "duration": 0.15116279069766847,
          "durationTicks": 13,
          "midi": 88,
          "name": "E6",
          "ticks": 12134,
          "time": 141.09302325581396,
          "velocity": 0.15748031496062992
        },
        {
          "duration": 0.034883720930224626,
          "durationTicks": 3,
          "midi": 57,
          "name": "A3",
          "ticks": 12135,
          "time": 141.1046511627907,
          "velocity": 0.4330708661417323
        },
        {
          "duration": 0.22093023255814614,
          "durationTicks": 19,
          "midi": 64,
          "name": "E4",
          "ticks": 12135,
          "time": 141.1046511627907,
          "velocity": 0.1968503937007874
        },
        {
          "duration": 0.22093023255814614,
          "durationTicks": 19,
          "midi": 69,
          "name": "A4",
          "ticks": 12135,
          "time": 141.1046511627907,
          "velocity": 0.47244094488188976
        },
        {
          "duration": 0.06976744186044925,
          "durationTicks": 6,
          "midi": 91,
          "name": "G6",
          "ticks": 12135,
          "time": 141.1046511627907,
          "velocity": 0.1889763779527559
        },
        {
          "duration": 0.17441860465115155,
          "durationTicks": 15,
          "midi": 95,
          "name": "B6",
          "ticks": 12135,
          "time": 141.1046511627907,
          "velocity": 0.18110236220472442
        },
        {
          "duration": 0.023255813953483084,
          "durationTicks": 2,
          "midi": 47,
          "name": "B2",
          "ticks": 12136,
          "time": 141.11627906976744,
          "velocity": 0.4881889763779528
        },
        {
          "duration": 0.2325581395348877,
          "durationTicks": 20,
          "midi": 85,
          "name": "C#6",
          "ticks": 12136,
          "time": 141.11627906976744,
          "velocity": 0.2204724409448819
        },
        {
          "duration": 0.2093023255814046,
          "durationTicks": 18,
          "midi": 48,
          "name": "C3",
          "ticks": 12138,
          "time": 141.13953488372093,
          "velocity": 0.5039370078740157
        },
        {
          "duration": 0.034883720930224626,
          "durationTicks": 3,
          "midi": 37,
          "name": "C#2",
          "ticks": 12139,
          "time": 141.15116279069767,
          "velocity": 0.4409448818897638
        },
        {
          "duration": 0.04651162790699459,
          "durationTicks": 4,
          "midi": 67,
          "name": "G4",
          "ticks": 12140,
          "time": 141.1627906976744,
          "velocity": 0.1968503937007874
        },
        {
          "duration": 0.08139534883721922,
          "durationTicks": 7,
          "midi": 36,
          "name": "C2",
          "ticks": 12142,
          "time": 141.1860465116279,
          "velocity": 0.3937007874015748
        },
        {
          "duration": 0.08139534883721922,
          "durationTicks": 7,
          "midi": 74,
          "name": "D5",
          "ticks": 12142,
          "time": 141.1860465116279,
          "velocity": 0.09448818897637795
        },
        {
          "duration": 0.04651162790699459,
          "durationTicks": 4,
          "midi": 91,
          "name": "G6",
          "ticks": 12142,
          "time": 141.1860465116279,
          "velocity": 0.12598425196850394
        },
        {
          "duration": 0.06976744186044925,
          "durationTicks": 6,
          "midi": 67,
          "name": "G4",
          "ticks": 12145,
          "time": 141.22093023255815,
          "velocity": 0.13385826771653545
        },
        {
          "duration": 0.023255813953483084,
          "durationTicks": 2,
          "midi": 56,
          "name": "G#3",
          "ticks": 12147,
          "time": 141.24418604651163,
          "velocity": 0.3228346456692913
        },
        {
          "duration": 0.023255813953511506,
          "durationTicks": 2,
          "midi": 56,
          "name": "G#3",
          "ticks": 12151,
          "time": 141.2906976744186,
          "velocity": 0.2755905511811024
        },
        {
          "duration": 0.023255813953511506,
          "durationTicks": 2,
          "midi": 36,
          "name": "C2",
          "ticks": 12152,
          "time": 141.30232558139534,
          "velocity": 0.25984251968503935
        },
        {
          "duration": 0.034883720930224626,
          "durationTicks": 3,
          "midi": 55,
          "name": "G3",
          "ticks": 12154,
          "time": 141.32558139534885,
          "velocity": 0.3228346456692913
        },
        {
          "duration": 0.034883720930224626,
          "durationTicks": 3,
          "midi": 79,
          "name": "G5",
          "ticks": 12154,
          "time": 141.32558139534885,
          "velocity": 0.11023622047244094
        },
        {
          "duration": 0.20930232558137618,
          "durationTicks": 18,
          "midi": 62,
          "name": "D4",
          "ticks": 12155,
          "time": 141.3372093023256,
          "velocity": 0.28346456692913385
        },
        {
          "duration": 0.4534883720930054,
          "durationTicks": 39,
          "midi": 66,
          "name": "F#4",
          "ticks": 12155,
          "time": 141.3372093023256,
          "velocity": 0.25196850393700787
        },
        {
          "duration": 0.20930232558137618,
          "durationTicks": 18,
          "midi": 72,
          "name": "C5",
          "ticks": 12155,
          "time": 141.3372093023256,
          "velocity": 0.15748031496062992
        },
        {
          "duration": 0.15116279069766847,
          "durationTicks": 13,
          "midi": 93,
          "name": "A6",
          "ticks": 12155,
          "time": 141.3372093023256,
          "velocity": 0.13385826771653545
        },
        {
          "duration": 0.034883720930224626,
          "durationTicks": 3,
          "midi": 69,
          "name": "A4",
          "ticks": 12156,
          "time": 141.34883720930233,
          "velocity": 0.11811023622047244
        },
        {
          "duration": 0.023255813953483084,
          "durationTicks": 2,
          "midi": 38,
          "name": "D2",
          "ticks": 12157,
          "time": 141.36046511627907,
          "velocity": 0.4566929133858268
        },
        {
          "duration": 0.04651162790696617,
          "durationTicks": 4,
          "midi": 39,
          "name": "D#2",
          "ticks": 12159,
          "time": 141.38372093023256,
          "velocity": 0.4094488188976378
        },
        {
          "duration": 0.13953488372092693,
          "durationTicks": 12,
          "midi": 57,
          "name": "A3",
          "ticks": 12160,
          "time": 141.3953488372093,
          "velocity": 0.15748031496062992
        },
        {
          "duration": 0.09302325581396076,
          "durationTicks": 8,
          "midi": 80,
          "name": "G#5",
          "ticks": 12160,
          "time": 141.3953488372093,
          "velocity": 0.07086614173228346
        },
        {
          "duration": 0.04651162790699459,
          "durationTicks": 4,
          "midi": 85,
          "name": "C#6",
          "ticks": 12161,
          "time": 141.40697674418604,
          "velocity": 0.07086614173228346
        },
        {
          "duration": 0.04651162790699459,
          "durationTicks": 4,
          "midi": 38,
          "name": "D2",
          "ticks": 12163,
          "time": 141.43023255813952,
          "velocity": 0.3543307086614173
        },
        {
          "duration": 0.023255813953483084,
          "durationTicks": 2,
          "midi": 37,
          "name": "C#2",
          "ticks": 12167,
          "time": 141.47674418604652,
          "velocity": 0.2755905511811024
        },
        {
          "duration": 0.04651162790696617,
          "durationTicks": 4,
          "midi": 38,
          "name": "D2",
          "ticks": 12169,
          "time": 141.5,
          "velocity": 0.2440944881889764
        },
        {
          "duration": 0.12790697674418539,
          "durationTicks": 11,
          "midi": 69,
          "name": "A4",
          "ticks": 12173,
          "time": 141.54651162790697,
          "velocity": 0.18110236220472442
        },
        {
          "duration": 0.12790697674418539,
          "durationTicks": 11,
          "midi": 93,
          "name": "A6",
          "ticks": 12173,
          "time": 141.54651162790697,
          "velocity": 0.12598425196850394
        },
        {
          "duration": 0.2325581395348877,
          "durationTicks": 20,
          "midi": 57,
          "name": "A3",
          "ticks": 12174,
          "time": 141.5581395348837,
          "velocity": 0.3228346456692913
        },
        {
          "duration": 0.22093023255814614,
          "durationTicks": 19,
          "midi": 62,
          "name": "D4",
          "ticks": 12174,
          "time": 141.5581395348837,
          "velocity": 0.23622047244094488
        },
        {
          "duration": 0.09302325581396076,
          "durationTicks": 8,
          "midi": 76,
          "name": "E5",
          "ticks": 12174,
          "time": 141.5581395348837,
          "velocity": 0.07086614173228346
        },
        {
          "duration": 0.20930232558137618,
          "durationTicks": 18,
          "midi": 50,
          "name": "D3",
          "ticks": 12175,
          "time": 141.56976744186048,
          "velocity": 0.44881889763779526
        },
        {
          "duration": 0.22093023255811772,
          "durationTicks": 19,
          "midi": 72,
          "name": "C5",
          "ticks": 12175,
          "time": 141.56976744186048,
          "velocity": 0.13385826771653545
        },
        {
          "duration": 0.034883720930224626,
          "durationTicks": 3,
          "midi": 39,
          "name": "D#2",
          "ticks": 12176,
          "time": 141.58139534883722,
          "velocity": 0.4330708661417323
        },
        {
          "duration": 0.09302325581396076,
          "durationTicks": 8,
          "midi": 38,
          "name": "D2",
          "ticks": 12179,
          "time": 141.61627906976744,
          "velocity": 0.4330708661417323
        },
        {
          "duration": 0.05813953488370771,
          "durationTicks": 5,
          "midi": 38,
          "name": "D2",
          "ticks": 12188,
          "time": 141.72093023255815,
          "velocity": 0.28346456692913385
        },
        {
          "duration": 0.2674418604651123,
          "durationTicks": 23,
          "midi": 74,
          "name": "D5",
          "ticks": 12193,
          "time": 141.77906976744185,
          "velocity": 0.3228346456692913
        },
        {
          "duration": 0.023255813953483084,
          "durationTicks": 2,
          "midi": 84,
          "name": "C6",
          "ticks": 12193,
          "time": 141.77906976744185,
          "velocity": 0.2283464566929134
        },
        {
          "duration": 0.023255813953511506,
          "durationTicks": 2,
          "midi": 44,
          "name": "G#2",
          "ticks": 12194,
          "time": 141.7906976744186,
          "velocity": 0.47244094488188976
        },
        {
          "duration": 0.2093023255814046,
          "durationTicks": 18,
          "midi": 67,
          "name": "G4",
          "ticks": 12194,
          "time": 141.7906976744186,
          "velocity": 0.23622047244094488
        },
        {
          "duration": 0.18604651162792152,
          "durationTicks": 16,
          "midi": 71,
          "name": "B4",
          "ticks": 12194,
          "time": 141.7906976744186,
          "velocity": 0.13385826771653545
        },
        {
          "duration": 0.24418604651162923,
          "durationTicks": 21,
          "midi": 77,
          "name": "F5",
          "ticks": 12194,
          "time": 141.7906976744186,
          "velocity": 0.1968503937007874
        },
        {
          "duration": 0.19767441860466306,
          "durationTicks": 17,
          "midi": 81,
          "name": "A5",
          "ticks": 12194,
          "time": 141.7906976744186,
          "velocity": 0.13385826771653545
        },
        {
          "duration": 0.25581395348837077,
          "durationTicks": 22,
          "midi": 83,
          "name": "B5",
          "ticks": 12194,
          "time": 141.7906976744186,
          "velocity": 0.2047244094488189
        },
        {
          "duration": 0.13953488372092693,
          "durationTicks": 12,
          "midi": 90,
          "name": "F#6",
          "ticks": 12194,
          "time": 141.7906976744186,
          "velocity": 0.07086614173228346
        },
        {
          "duration": 0.19767441860466306,
          "durationTicks": 17,
          "midi": 62,
          "name": "D4",
          "ticks": 12195,
          "time": 141.80232558139534,
          "velocity": 0.1889763779527559
        },
        {
          "duration": 0.33720930232559,
          "durationTicks": 29,
          "midi": 85,
          "name": "C#6",
          "ticks": 12195,
          "time": 141.80232558139534,
          "velocity": 0.2125984251968504
        },
        {
          "duration": 0.19767441860463464,
          "durationTicks": 17,
          "midi": 55,
          "name": "G3",
          "ticks": 12196,
          "time": 141.8139534883721,
          "velocity": 0.44881889763779526
        },
        {
          "duration": 0.034883720930224626,
          "durationTicks": 3,
          "midi": 98,
          "name": "D7",
          "ticks": 12196,
          "time": 141.8139534883721,
          "velocity": 0.08661417322834646
        },
        {
          "duration": 0.023255813953483084,
          "durationTicks": 2,
          "midi": 42,
          "name": "F#2",
          "ticks": 12199,
          "time": 141.84883720930233,
          "velocity": 0.41732283464566927
        },
        {
          "duration": 0.09302325581396076,
          "durationTicks": 8,
          "midi": 43,
          "name": "G2",
          "ticks": 12204,
          "time": 141.90697674418604,
          "velocity": 0.3464566929133858
        },
        {
          "duration": 0.5,
          "durationTicks": 43,
          "midi": 65,
          "name": "F4",
          "ticks": 12212,
          "time": 142,
          "velocity": 0.5354330708661418
        },
        {
          "duration": 0.2325581395348877,
          "durationTicks": 20,
          "midi": 53,
          "name": "F3",
          "ticks": 12213,
          "time": 142.01162790697674,
          "velocity": 0.4645669291338583
        },
        {
          "duration": 0.24418604651162923,
          "durationTicks": 21,
          "midi": 60,
          "name": "C4",
          "ticks": 12213,
          "time": 142.01162790697674,
          "velocity": 0.31496062992125984
        },
        {
          "duration": 0.7093023255814046,
          "durationTicks": 61,
          "midi": 69,
          "name": "A4",
          "ticks": 12213,
          "time": 142.01162790697674,
          "velocity": 0.3228346456692913
        },
        {
          "duration": 0.04651162790699459,
          "durationTicks": 4,
          "midi": 42,
          "name": "F#2",
          "ticks": 12214,
          "time": 142.02325581395348,
          "velocity": 0.48031496062992124
        },
        {
          "duration": 0.04651162790699459,
          "durationTicks": 4,
          "midi": 87,
          "name": "D#6",
          "ticks": 12214,
          "time": 142.02325581395348,
          "velocity": 0.08661417322834646
        },
        {
          "duration": 0.04651162790699459,
          "durationTicks": 4,
          "midi": 96,
          "name": "C7",
          "ticks": 12215,
          "time": 142.03488372093022,
          "velocity": 0.11811023622047244
        },
        {
          "duration": 0.08139534883721922,
          "durationTicks": 7,
          "midi": 79,
          "name": "G5",
          "ticks": 12217,
          "time": 142.0581395348837,
          "velocity": 0.07086614173228346
        },
        {
          "duration": 0.03488372093025305,
          "durationTicks": 3,
          "midi": 83,
          "name": "B5",
          "ticks": 12217,
          "time": 142.0581395348837,
          "velocity": 0.11811023622047244
        },
        {
          "duration": 0.09302325581393234,
          "durationTicks": 8,
          "midi": 41,
          "name": "F2",
          "ticks": 12218,
          "time": 142.06976744186048,
          "velocity": 0.3779527559055118
        },
        {
          "duration": 0.16279069767441,
          "durationTicks": 14,
          "midi": 75,
          "name": "D#5",
          "ticks": 12220,
          "time": 142.09302325581396,
          "velocity": 0.14960629921259844
        },
        {
          "duration": 0.06976744186044925,
          "durationTicks": 6,
          "midi": 83,
          "name": "B5",
          "ticks": 12221,
          "time": 142.1046511627907,
          "velocity": 0.07874015748031496
        },
        {
          "duration": 0.06976744186047767,
          "durationTicks": 6,
          "midi": 41,
          "name": "F2",
          "ticks": 12227,
          "time": 142.17441860465115,
          "velocity": 0.31496062992125984
        },
        {
          "duration": 0.15116279069766847,
          "durationTicks": 13,
          "midi": 93,
          "name": "A6",
          "ticks": 12233,
          "time": 142.24418604651163,
          "velocity": 0.2204724409448819
        },
        {
          "duration": 0.25581395348837077,
          "durationTicks": 22,
          "midi": 84,
          "name": "C6",
          "ticks": 12234,
          "time": 142.25581395348837,
          "velocity": 0.25196850393700787
        },
        {
          "duration": 0.04651162790696617,
          "durationTicks": 4,
          "midi": 90,
          "name": "F#6",
          "ticks": 12234,
          "time": 142.25581395348837,
          "velocity": 0.07874015748031496
        },
        {
          "duration": 0.2093023255814046,
          "durationTicks": 18,
          "midi": 50,
          "name": "D3",
          "ticks": 12235,
          "time": 142.2674418604651,
          "velocity": 0.4645669291338583
        },
        {
          "duration": 0.19767441860466306,
          "durationTicks": 17,
          "midi": 57,
          "name": "A3",
          "ticks": 12235,
          "time": 142.2674418604651,
          "velocity": 0.29133858267716534
        },
        {
          "duration": 0.09302325581396076,
          "durationTicks": 8,
          "midi": 101,
          "name": "F7",
          "ticks": 12235,
          "time": 142.2674418604651,
          "velocity": 0.11023622047244094
        },
        {
          "duration": 0.04651162790699459,
          "durationTicks": 4,
          "midi": 39,
          "name": "D#2",
          "ticks": 12236,
          "time": 142.27906976744185,
          "velocity": 0.4566929133858268
        },
        {
          "duration": 0.034883720930224626,
          "durationTicks": 3,
          "midi": 80,
          "name": "G#5",
          "ticks": 12239,
          "time": 142.3139534883721,
          "velocity": 0.07874015748031496
        },
        {
          "duration": 0.0813953488371908,
          "durationTicks": 7,
          "midi": 38,
          "name": "D2",
          "ticks": 12240,
          "time": 142.32558139534885,
          "velocity": 0.3779527559055118
        },
        {
          "duration": 0.023255813953483084,
          "durationTicks": 2,
          "midi": 37,
          "name": "C#2",
          "ticks": 12247,
          "time": 142.40697674418604,
          "velocity": 0.2440944881889764
        },
        {
          "duration": 0.3139534883721069,
          "durationTicks": 27,
          "midi": 93,
          "name": "A6",
          "ticks": 12248,
          "time": 142.41860465116278,
          "velocity": 0.18110236220472442
        },
        {
          "duration": 0.023255813953511506,
          "durationTicks": 2,
          "midi": 38,
          "name": "D2",
          "ticks": 12249,
          "time": 142.43023255813952,
          "velocity": 0.2677165354330709
        },
        {
          "duration": 0.023255813953483084,
          "durationTicks": 2,
          "midi": 56,
          "name": "G#3",
          "ticks": 12252,
          "time": 142.46511627906978,
          "velocity": 0.25196850393700787
        },
        {
          "duration": 0.44186046511626387,
          "durationTicks": 38,
          "midi": 62,
          "name": "D4",
          "ticks": 12252,
          "time": 142.46511627906978,
          "velocity": 0.5511811023622047
        },
        {
          "duration": 0.22093023255814614,
          "durationTicks": 19,
          "midi": 50,
          "name": "D3",
          "ticks": 12254,
          "time": 142.48837209302326,
          "velocity": 0.5039370078740157
        },
        {
          "duration": 0.09302325581396076,
          "durationTicks": 8,
          "midi": 57,
          "name": "A3",
          "ticks": 12254,
          "time": 142.48837209302326,
          "velocity": 0.2440944881889764
        },
        {
          "duration": 0.1046511627907023,
          "durationTicks": 9,
          "midi": 72,
          "name": "C5",
          "ticks": 12254,
          "time": 142.48837209302326,
          "velocity": 0.15748031496062992
        },
        {
          "duration": 0.023255813953483084,
          "durationTicks": 2,
          "midi": 39,
          "name": "D#2",
          "ticks": 12255,
          "time": 142.5,
          "velocity": 0.4409448818897638
        },
        {
          "duration": 0.04651162790696617,
          "durationTicks": 4,
          "midi": 66,
          "name": "F#4",
          "ticks": 12255,
          "time": 142.5,
          "velocity": 0.33858267716535434
        },
        {
          "duration": 0.06976744186047767,
          "durationTicks": 6,
          "midi": 38,
          "name": "D2",
          "ticks": 12257,
          "time": 142.52325581395348,
          "velocity": 0.44881889763779526
        },
        {
          "duration": 0.034883720930224626,
          "durationTicks": 3,
          "midi": 80,
          "name": "G#5",
          "ticks": 12261,
          "time": 142.56976744186048,
          "velocity": 0.16535433070866143
        },
        {
          "duration": 0.0813953488371908,
          "durationTicks": 7,
          "midi": 85,
          "name": "C#6",
          "ticks": 12262,
          "time": 142.58139534883722,
          "velocity": 0.11023622047244094
        },
        {
          "duration": 0.034883720930224626,
          "durationTicks": 3,
          "midi": 40,
          "name": "E2",
          "ticks": 12263,
          "time": 142.59302325581396,
          "velocity": 0.47244094488188976
        },
        {
          "duration": 0.2674418604651123,
          "durationTicks": 23,
          "midi": 90,
          "name": "F#6",
          "ticks": 12263,
          "time": 142.59302325581396,
          "velocity": 0.2047244094488189
        },
        {
          "duration": 0.1046511627907023,
          "durationTicks": 9,
          "midi": 72,
          "name": "C5",
          "ticks": 12264,
          "time": 142.6046511627907,
          "velocity": 0.2047244094488189
        },
        {
          "duration": 0.08139534883721922,
          "durationTicks": 7,
          "midi": 76,
          "name": "E5",
          "ticks": 12265,
          "time": 142.61627906976744,
          "velocity": 0.12598425196850394
        },
        {
          "duration": 0.1046511627907023,
          "durationTicks": 9,
          "midi": 80,
          "name": "G#5",
          "ticks": 12265,
          "time": 142.61627906976744,
          "velocity": 0.15748031496062992
        },
        {
          "duration": 0.023255813953483084,
          "durationTicks": 2,
          "midi": 39,
          "name": "D#2",
          "ticks": 12266,
          "time": 142.62790697674419,
          "velocity": 0.3858267716535433
        },
        {
          "duration": 0.06976744186047767,
          "durationTicks": 6,
          "midi": 57,
          "name": "A3",
          "ticks": 12266,
          "time": 142.62790697674419,
          "velocity": 0.2440944881889764
        },
        {
          "duration": 0.05813953488373613,
          "durationTicks": 5,
          "midi": 66,
          "name": "F#4",
          "ticks": 12267,
          "time": 142.63953488372093,
          "velocity": 0.13385826771653545
        },
        {
          "duration": 0.023255813953511506,
          "durationTicks": 2,
          "midi": 38,
          "name": "D2",
          "ticks": 12270,
          "time": 142.67441860465115,
          "velocity": 0.3228346456692913
        },
        {
          "duration": 0.034883720930224626,
          "durationTicks": 3,
          "midi": 77,
          "name": "F5",
          "ticks": 12272,
          "time": 142.69767441860466,
          "velocity": 0.15748031496062992
        },
        {
          "duration": 0.44186046511626387,
          "durationTicks": 38,
          "midi": 85,
          "name": "C#6",
          "ticks": 12272,
          "time": 142.69767441860466,
          "velocity": 0.2440944881889764
        },
        {
          "duration": 0.20930232558137618,
          "durationTicks": 18,
          "midi": 57,
          "name": "A3",
          "ticks": 12273,
          "time": 142.7093023255814,
          "velocity": 0.29133858267716534
        },
        {
          "duration": 0.20930232558137618,
          "durationTicks": 18,
          "midi": 67,
          "name": "G4",
          "ticks": 12273,
          "time": 142.7093023255814,
          "velocity": 0.2283464566929134
        },
        {
          "duration": 0.09302325581393234,
          "durationTicks": 8,
          "midi": 83,
          "name": "B5",
          "ticks": 12273,
          "time": 142.7093023255814,
          "velocity": 0.08661417322834646
        },
        {
          "duration": 0.22093023255814614,
          "durationTicks": 19,
          "midi": 45,
          "name": "A2",
          "ticks": 12274,
          "time": 142.72093023255815,
          "velocity": 0.5196850393700787
        },
        {
          "duration": 0.04651162790696617,
          "durationTicks": 4,
          "midi": 52,
          "name": "E3",
          "ticks": 12285,
          "time": 142.84883720930233,
          "velocity": 0.2125984251968504
        },
        {
          "duration": 0.023255813953483084,
          "durationTicks": 2,
          "midi": 52,
          "name": "E3",
          "ticks": 12290,
          "time": 142.90697674418604,
          "velocity": 0.23622047244094488
        },
        {
          "duration": 0.023255813953483084,
          "durationTicks": 2,
          "midi": 61,
          "name": "C#4",
          "ticks": 12290,
          "time": 142.90697674418604,
          "velocity": 0.25984251968503935
        },
        {
          "duration": 0.03488372093025305,
          "durationTicks": 3,
          "midi": 78,
          "name": "F#5",
          "ticks": 12291,
          "time": 142.91860465116278,
          "velocity": 0.11811023622047244
        },
        {
          "duration": 0.06976744186047767,
          "durationTicks": 6,
          "midi": 83,
          "name": "B5",
          "ticks": 12291,
          "time": 142.91860465116278,
          "velocity": 0.10236220472440945
        },
        {
          "duration": 0.08139534883721922,
          "durationTicks": 7,
          "midi": 91,
          "name": "G6",
          "ticks": 12291,
          "time": 142.91860465116278,
          "velocity": 0.1889763779527559
        },
        {
          "duration": 0.023255813953511506,
          "durationTicks": 2,
          "midi": 56,
          "name": "G#3",
          "ticks": 12292,
          "time": 142.93023255813952,
          "velocity": 0.3858267716535433
        },
        {
          "duration": 0.22093023255814614,
          "durationTicks": 19,
          "midi": 69,
          "name": "A4",
          "ticks": 12292,
          "time": 142.93023255813952,
          "velocity": 0.4645669291338583
        },
        {
          "duration": 0.13953488372095535,
          "durationTicks": 12,
          "midi": 88,
          "name": "E6",
          "ticks": 12292,
          "time": 142.93023255813952,
          "velocity": 0.15748031496062992
        },
        {
          "duration": 0.17441860465117998,
          "durationTicks": 15,
          "midi": 95,
          "name": "B6",
          "ticks": 12292,
          "time": 142.93023255813952,
          "velocity": 0.14173228346456693
        },
        {
          "duration": 0.22093023255811772,
          "durationTicks": 19,
          "midi": 74,
          "name": "D5",
          "ticks": 12293,
          "time": 142.9418604651163,
          "velocity": 0.2283464566929134
        },
        {
          "duration": 0.04651162790696617,
          "durationTicks": 4,
          "midi": 76,
          "name": "E5",
          "ticks": 12293,
          "time": 142.9418604651163,
          "velocity": 0.10236220472440945
        },
        {
          "duration": 0.034883720930224626,
          "durationTicks": 3,
          "midi": 55,
          "name": "G3",
          "ticks": 12294,
          "time": 142.95348837209303,
          "velocity": 0.33070866141732286
        },
        {
          "duration": 0.1860465116278931,
          "durationTicks": 16,
          "midi": 64,
          "name": "E4",
          "ticks": 12295,
          "time": 142.96511627906978,
          "velocity": 0.2047244094488189
        },
        {
          "duration": 0.13953488372092693,
          "durationTicks": 12,
          "midi": 78,
          "name": "F#5",
          "ticks": 12295,
          "time": 142.96511627906978,
          "velocity": 0.08661417322834646
        },
        {
          "duration": 0.034883720930224626,
          "durationTicks": 3,
          "midi": 37,
          "name": "C#2",
          "ticks": 12296,
          "time": 142.97674418604652,
          "velocity": 0.44881889763779526
        },
        {
          "duration": 0.17441860465115155,
          "durationTicks": 15,
          "midi": 48,
          "name": "C3",
          "ticks": 12298,
          "time": 143,
          "velocity": 0.49606299212598426
        },
        {
          "duration": 0.08139534883721922,
          "durationTicks": 7,
          "midi": 36,
          "name": "C2",
          "ticks": 12299,
          "time": 143.01162790697674,
          "velocity": 0.4015748031496063
        },
        {
          "duration": 0.04651162790696617,
          "durationTicks": 4,
          "midi": 91,
          "name": "G6",
          "ticks": 12299,
          "time": 143.01162790697674,
          "velocity": 0.12598425196850394
        },
        {
          "duration": 0.03488372093025305,
          "durationTicks": 3,
          "midi": 55,
          "name": "G3",
          "ticks": 12301,
          "time": 143.03488372093022,
          "velocity": 0.29133858267716534
        },
        {
          "duration": 0.023255813953483084,
          "durationTicks": 2,
          "midi": 56,
          "name": "G#3",
          "ticks": 12304,
          "time": 143.06976744186048,
          "velocity": 0.31496062992125984
        },
        {
          "duration": 0.04651162790696617,
          "durationTicks": 4,
          "midi": 67,
          "name": "G4",
          "ticks": 12304,
          "time": 143.06976744186048,
          "velocity": 0.11811023622047244
        },
        {
          "duration": 0.04651162790696617,
          "durationTicks": 4,
          "midi": 36,
          "name": "C2",
          "ticks": 12307,
          "time": 143.1046511627907,
          "velocity": 0.2677165354330709
        },
        {
          "duration": 0.034883720930224626,
          "durationTicks": 3,
          "midi": 56,
          "name": "G#3",
          "ticks": 12307,
          "time": 143.1046511627907,
          "velocity": 0.29133858267716534
        },
        {
          "duration": 0.45348837209303383,
          "durationTicks": 39,
          "midi": 77,
          "name": "F5",
          "ticks": 12311,
          "time": 143.15116279069767,
          "velocity": 0.4566929133858268
        },
        {
          "duration": 0.034883720930224626,
          "durationTicks": 3,
          "midi": 85,
          "name": "C#6",
          "ticks": 12311,
          "time": 143.15116279069767,
          "velocity": 0.11023622047244094
        },
        {
          "duration": 0.2325581395348877,
          "durationTicks": 20,
          "midi": 62,
          "name": "D4",
          "ticks": 12312,
          "time": 143.1627906976744,
          "velocity": 0.2677165354330709
        },
        {
          "duration": 0.2325581395348877,
          "durationTicks": 20,
          "midi": 66,
          "name": "F#4",
          "ticks": 12312,
          "time": 143.1627906976744,
          "velocity": 0.2440944881889764
        },
        {
          "duration": 0.2325581395348877,
          "durationTicks": 20,
          "midi": 72,
          "name": "C5",
          "ticks": 12312,
          "time": 143.1627906976744,
          "velocity": 0.15748031496062992
        },
        {
          "duration": 0.11627906976744384,
          "durationTicks": 10,
          "midi": 93,
          "name": "A6",
          "ticks": 12312,
          "time": 143.1627906976744,
          "velocity": 0.13385826771653545
        },
        {
          "duration": 0.16279069767443843,
          "durationTicks": 14,
          "midi": 96,
          "name": "C7",
          "ticks": 12312,
          "time": 143.1627906976744,
          "velocity": 0.23622047244094488
        },
        {
          "duration": 0.45348837209303383,
          "durationTicks": 39,
          "midi": 69,
          "name": "A4",
          "ticks": 12313,
          "time": 143.17441860465115,
          "velocity": 0.1889763779527559
        },
        {
          "duration": 0.2093023255814046,
          "durationTicks": 18,
          "midi": 50,
          "name": "D3",
          "ticks": 12314,
          "time": 143.1860465116279,
          "velocity": 0.41732283464566927
        },
        {
          "duration": 0.023255813953483084,
          "durationTicks": 2,
          "midi": 38,
          "name": "D2",
          "ticks": 12315,
          "time": 143.19767441860466,
          "velocity": 0.41732283464566927
        },
        {
          "duration": 0.034883720930224626,
          "durationTicks": 3,
          "midi": 39,
          "name": "D#2",
          "ticks": 12317,
          "time": 143.22093023255815,
          "velocity": 0.3858267716535433
        },
        {
          "duration": 0.17441860465115155,
          "durationTicks": 15,
          "midi": 57,
          "name": "A3",
          "ticks": 12317,
          "time": 143.22093023255815,
          "velocity": 0.25984251968503935
        },
        {
          "duration": 0.09302325581396076,
          "durationTicks": 8,
          "midi": 80,
          "name": "G#5",
          "ticks": 12317,
          "time": 143.22093023255815,
          "velocity": 0.07874015748031496
        },
        {
          "duration": 0.034883720930224626,
          "durationTicks": 3,
          "midi": 38,
          "name": "D2",
          "ticks": 12320,
          "time": 143.25581395348837,
          "velocity": 0.3543307086614173
        },
        {
          "duration": 0.03488372093025305,
          "durationTicks": 3,
          "midi": 37,
          "name": "C#2",
          "ticks": 12323,
          "time": 143.2906976744186,
          "velocity": 0.30708661417322836
        },
        {
          "duration": 0.0813953488371908,
          "durationTicks": 7,
          "midi": 38,
          "name": "D2",
          "ticks": 12326,
          "time": 143.32558139534885,
          "velocity": 0.3700787401574803
        },
        {
          "duration": 0.06976744186047767,
          "durationTicks": 6,
          "midi": 90,
          "name": "F#6",
          "ticks": 12333,
          "time": 143.40697674418604,
          "velocity": 0.07086614173228346
        },
        {
          "duration": 0.08139534883721922,
          "durationTicks": 7,
          "midi": 93,
          "name": "A6",
          "ticks": 12333,
          "time": 143.40697674418604,
          "velocity": 0.11811023622047244
        },
        {
          "duration": 0.04651162790699459,
          "durationTicks": 4,
          "midi": 39,
          "name": "D#2",
          "ticks": 12334,
          "time": 143.41860465116278,
          "velocity": 0.4645669291338583
        },
        {
          "duration": 0.19767441860466306,
          "durationTicks": 17,
          "midi": 50,
          "name": "D3",
          "ticks": 12334,
          "time": 143.41860465116278,
          "velocity": 0.4251968503937008
        },
        {
          "duration": 0.4186046511628092,
          "durationTicks": 36,
          "midi": 57,
          "name": "A3",
          "ticks": 12334,
          "time": 143.41860465116278,
          "velocity": 0.2992125984251969
        },
        {
          "duration": 0.22093023255814614,
          "durationTicks": 19,
          "midi": 66,
          "name": "F#4",
          "ticks": 12334,
          "time": 143.41860465116278,
          "velocity": 0.1889763779527559
        },
        {
          "duration": 0.1046511627907023,
          "durationTicks": 9,
          "midi": 72,
          "name": "C5",
          "ticks": 12334,
          "time": 143.41860465116278,
          "velocity": 0.2204724409448819
        },
        {
          "duration": 0.03488372093025305,
          "durationTicks": 3,
          "midi": 82,
          "name": "A#5",
          "ticks": 12334,
          "time": 143.41860465116278,
          "velocity": 0.08661417322834646
        },
        {
          "duration": 0.12790697674418539,
          "durationTicks": 11,
          "midi": 38,
          "name": "D2",
          "ticks": 12338,
          "time": 143.46511627906978,
          "velocity": 0.41732283464566927
        },
        {
          "duration": 0.3604651162790731,
          "durationTicks": 31,
          "midi": 86,
          "name": "D6",
          "ticks": 12341,
          "time": 143.5,
          "velocity": 0.29133858267716534
        },
        {
          "duration": 0.2093023255814046,
          "durationTicks": 18,
          "midi": 93,
          "name": "A6",
          "ticks": 12341,
          "time": 143.5,
          "velocity": 0.2677165354330709
        },
        {
          "duration": 0.13953488372092693,
          "durationTicks": 12,
          "midi": 102,
          "name": "F#7",
          "ticks": 12341,
          "time": 143.5,
          "velocity": 0.28346456692913385
        },
        {
          "duration": 0.5116279069767415,
          "durationTicks": 44,
          "midi": 74,
          "name": "D5",
          "ticks": 12342,
          "time": 143.51162790697674,
          "velocity": 0.4566929133858268
        },
        {
          "duration": 0.034883720930224626,
          "durationTicks": 3,
          "midi": 82,
          "name": "A#5",
          "ticks": 12342,
          "time": 143.51162790697674,
          "velocity": 0.11811023622047244
        },
        {
          "duration": 0.09302325581396076,
          "durationTicks": 8,
          "midi": 72,
          "name": "C5",
          "ticks": 12345,
          "time": 143.54651162790697,
          "velocity": 0.16535433070866143
        },
        {
          "duration": 0.04651162790696617,
          "durationTicks": 4,
          "midi": 77,
          "name": "F5",
          "ticks": 12351,
          "time": 143.61627906976744,
          "velocity": 0.1889763779527559
        },
        {
          "duration": 0.25581395348837077,
          "durationTicks": 22,
          "midi": 85,
          "name": "C#6",
          "ticks": 12351,
          "time": 143.61627906976744,
          "velocity": 0.23622047244094488
        },
        {
          "duration": 0.22093023255814614,
          "durationTicks": 19,
          "midi": 45,
          "name": "A2",
          "ticks": 12352,
          "time": 143.62790697674419,
          "velocity": 0.49606299212598426
        },
        {
          "duration": 0.034883720930224626,
          "durationTicks": 3,
          "midi": 76,
          "name": "E5",
          "ticks": 12352,
          "time": 143.62790697674419,
          "velocity": 0.14960629921259844
        },
        {
          "duration": 0.24418604651162923,
          "durationTicks": 21,
          "midi": 79,
          "name": "G5",
          "ticks": 12352,
          "time": 143.62790697674419,
          "velocity": 0.16535433070866143
        },
        {
          "duration": 0.09302325581396076,
          "durationTicks": 8,
          "midi": 83,
          "name": "B5",
          "ticks": 12352,
          "time": 143.62790697674419,
          "velocity": 0.09448818897637795
        },
        {
          "duration": 0.034883720930224626,
          "durationTicks": 3,
          "midi": 61,
          "name": "C#4",
          "ticks": 12353,
          "time": 143.63953488372093,
          "velocity": 0.2677165354330709
        },
        {
          "duration": 0.19767441860466306,
          "durationTicks": 17,
          "midi": 67,
          "name": "G4",
          "ticks": 12353,
          "time": 143.63953488372093,
          "velocity": 0.2125984251968504
        },
        {
          "duration": 0.023255813953511506,
          "durationTicks": 2,
          "midi": 52,
          "name": "E3",
          "ticks": 12357,
          "time": 143.6860465116279,
          "velocity": 0.2440944881889764
        },
        {
          "duration": 0.03488372093025305,
          "durationTicks": 3,
          "midi": 61,
          "name": "C#4",
          "ticks": 12357,
          "time": 143.6860465116279,
          "velocity": 0.2204724409448819
        },
        {
          "duration": 0.1046511627907023,
          "durationTicks": 9,
          "midi": 76,
          "name": "E5",
          "ticks": 12357,
          "time": 143.6860465116279,
          "velocity": 0.07086614173228346
        },
        {
          "duration": 0.034883720930224626,
          "durationTicks": 3,
          "midi": 52,
          "name": "E3",
          "ticks": 12361,
          "time": 143.7325581395349,
          "velocity": 0.2283464566929134
        },
        {
          "duration": 0.12790697674418539,
          "durationTicks": 11,
          "midi": 61,
          "name": "C#4",
          "ticks": 12361,
          "time": 143.7325581395349,
          "velocity": 0.1968503937007874
        },
        {
          "duration": 0.06976744186047767,
          "durationTicks": 6,
          "midi": 52,
          "name": "E3",
          "ticks": 12365,
          "time": 143.77906976744185,
          "velocity": 0.2125984251968504
        },
        {
          "duration": 0.023255813953483084,
          "durationTicks": 2,
          "midi": 44,
          "name": "G#2",
          "ticks": 12371,
          "time": 143.84883720930233,
          "velocity": 0.4645669291338583
        },
        {
          "duration": 0.5930232558139608,
          "durationTicks": 51,
          "midi": 69,
          "name": "A4",
          "ticks": 12371,
          "time": 143.84883720930233,
          "velocity": 0.5354330708661418
        },
        {
          "duration": 0.1860465116278931,
          "durationTicks": 16,
          "midi": 88,
          "name": "E6",
          "ticks": 12371,
          "time": 143.84883720930233,
          "velocity": 0.2125984251968504
        },
        {
          "duration": 0.22093023255814614,
          "durationTicks": 19,
          "midi": 55,
          "name": "G3",
          "ticks": 12372,
          "time": 143.86046511627907,
          "velocity": 0.33858267716535434
        },
        {
          "duration": 0.2093023255814046,
          "durationTicks": 18,
          "midi": 60,
          "name": "C4",
          "ticks": 12372,
          "time": 143.86046511627907,
          "velocity": 0.2755905511811024
        },
        {
          "duration": 0.034883720930224626,
          "durationTicks": 3,
          "midi": 84,
          "name": "C6",
          "ticks": 12372,
          "time": 143.86046511627907,
          "velocity": 0.07086614173228346
        },
        {
          "duration": 0.04651162790696617,
          "durationTicks": 4,
          "midi": 95,
          "name": "B6",
          "ticks": 12372,
          "time": 143.86046511627907,
          "velocity": 0.07874015748031496
        },
        {
          "duration": 0.023255813953483084,
          "durationTicks": 2,
          "midi": 47,
          "name": "B2",
          "ticks": 12373,
          "time": 143.87209302325581,
          "velocity": 0.47244094488188976
        },
        {
          "duration": 0.17441860465115155,
          "durationTicks": 15,
          "midi": 64,
          "name": "E4",
          "ticks": 12374,
          "time": 143.88372093023256,
          "velocity": 0.1889763779527559
        },
        {
          "duration": 0.034883720930224626,
          "durationTicks": 3,
          "midi": 78,
          "name": "F#5",
          "ticks": 12374,
          "time": 143.88372093023256,
          "velocity": 0.09448818897637795
        },
        {
          "duration": 0.17441860465117998,
          "durationTicks": 15,
          "midi": 48,
          "name": "C3",
          "ticks": 12375,
          "time": 143.8953488372093,
          "velocity": 0.41732283464566927
        },
        {
          "duration": 0.023255813953483084,
          "durationTicks": 2,
          "midi": 37,
          "name": "C#2",
          "ticks": 12376,
          "time": 143.90697674418604,
          "velocity": 0.4330708661417323
        },
        {
          "duration": 0.03488372093025305,
          "durationTicks": 3,
          "midi": 83,
          "name": "B5",
          "ticks": 12376,
          "time": 143.90697674418604,
          "velocity": 0.07086614173228346
        },
        {
          "duration": 0.09302325581396076,
          "durationTicks": 8,
          "midi": 36,
          "name": "C2",
          "ticks": 12378,
          "time": 143.93023255813952,
          "velocity": 0.41732283464566927
        },
        {
          "duration": 0.03488372093025305,
          "durationTicks": 3,
          "midi": 91,
          "name": "G6",
          "ticks": 12378,
          "time": 143.93023255813952,
          "velocity": 0.07874015748031496
        },
        {
          "duration": 0.034883720930224626,
          "durationTicks": 3,
          "midi": 35,
          "name": "B1",
          "ticks": 12386,
          "time": 144.02325581395348,
          "velocity": 0.25984251968503935
        },
        {
          "duration": 0.023255813953511506,
          "durationTicks": 2,
          "midi": 63,
          "name": "D#4",
          "ticks": 12389,
          "time": 144.0581395348837,
          "velocity": 0.33070866141732286
        },
        {
          "duration": 0.22093023255811772,
          "durationTicks": 19,
          "midi": 50,
          "name": "D3",
          "ticks": 12390,
          "time": 144.06976744186048,
          "velocity": 0.4409448818897638
        },
        {
          "duration": 0.3953488372092977,
          "durationTicks": 34,
          "midi": 76,
          "name": "E5",
          "ticks": 12390,
          "time": 144.06976744186048,
          "velocity": 0.4881889763779528
        },
        {
          "duration": 0.27906976744185386,
          "durationTicks": 24,
          "midi": 64,
          "name": "E4",
          "ticks": 12391,
          "time": 144.08139534883722,
          "velocity": 0.5118110236220472
        },
        {
          "duration": 0.3604651162790731,
          "durationTicks": 31,
          "midi": 83,
          "name": "B5",
          "ticks": 12391,
          "time": 144.08139534883722,
          "velocity": 0.2283464566929134
        },
        {
          "duration": 0.2906976744185954,
          "durationTicks": 25,
          "midi": 92,
          "name": "G#6",
          "ticks": 12391,
          "time": 144.08139534883722,
          "velocity": 0.14960629921259844
        },
        {
          "duration": 0.09302325581393234,
          "durationTicks": 8,
          "midi": 100,
          "name": "E7",
          "ticks": 12391,
          "time": 144.08139534883722,
          "velocity": 0.10236220472440945
        },
        {
          "duration": 0.19767441860463464,
          "durationTicks": 17,
          "midi": 72,
          "name": "C5",
          "ticks": 12392,
          "time": 144.09302325581396,
          "velocity": 0.2047244094488189
        },
        {
          "duration": 0.034883720930224626,
          "durationTicks": 3,
          "midi": 80,
          "name": "G#5",
          "ticks": 12392,
          "time": 144.09302325581396,
          "velocity": 0.10236220472440945
        },
        {
          "duration": 0.06976744186044925,
          "durationTicks": 6,
          "midi": 98,
          "name": "D7",
          "ticks": 12392,
          "time": 144.09302325581396,
          "velocity": 0.09448818897637795
        },
        {
          "duration": 0.05813953488370771,
          "durationTicks": 5,
          "midi": 38,
          "name": "D2",
          "ticks": 12393,
          "time": 144.1046511627907,
          "velocity": 0.44881889763779526
        },
        {
          "duration": 0.17441860465115155,
          "durationTicks": 15,
          "midi": 57,
          "name": "A3",
          "ticks": 12394,
          "time": 144.11627906976744,
          "velocity": 0.33858267716535434
        },
        {
          "duration": 0.09302325581396076,
          "durationTicks": 8,
          "midi": 80,
          "name": "G#5",
          "ticks": 12396,
          "time": 144.13953488372093,
          "velocity": 0.07086614173228346
        },
        {
          "duration": 0.023255813953483084,
          "durationTicks": 2,
          "midi": 38,
          "name": "D2",
          "ticks": 12401,
          "time": 144.19767441860466,
          "velocity": 0.28346456692913385
        },
        {
          "duration": 0.034883720930224626,
          "durationTicks": 3,
          "midi": 37,
          "name": "C#2",
          "ticks": 12403,
          "time": 144.22093023255815,
          "velocity": 0.28346456692913385
        },
        {
          "duration": 0.023255813953483084,
          "durationTicks": 2,
          "midi": 38,
          "name": "D2",
          "ticks": 12406,
          "time": 144.25581395348837,
          "velocity": 0.2755905511811024
        },
        {
          "duration": 0.023255813953511506,
          "durationTicks": 2,
          "midi": 56,
          "name": "G#3",
          "ticks": 12409,
          "time": 144.2906976744186,
          "velocity": 0.25196850393700787
        },
        {
          "duration": 0.08139534883721922,
          "durationTicks": 7,
          "midi": 93,
          "name": "A6",
          "ticks": 12410,
          "time": 144.30232558139534,
          "velocity": 0.13385826771653545
        },
        {
          "duration": 0.23255813953485927,
          "durationTicks": 20,
          "midi": 50,
          "name": "D3",
          "ticks": 12411,
          "time": 144.3139534883721,
          "velocity": 0.4566929133858268
        },
        {
          "duration": 0.10465116279067388,
          "durationTicks": 9,
          "midi": 57,
          "name": "A3",
          "ticks": 12411,
          "time": 144.3139534883721,
          "velocity": 0.2677165354330709
        },
        {
          "duration": 0.5465116279069662,
          "durationTicks": 47,
          "midi": 72,
          "name": "C5",
          "ticks": 12411,
          "time": 144.3139534883721,
          "velocity": 0.5039370078740157
        },
        {
          "duration": 0.034883720930224626,
          "durationTicks": 3,
          "midi": 39,
          "name": "D#2",
          "ticks": 12412,
          "time": 144.32558139534885,
          "velocity": 0.4330708661417323
        },
        {
          "duration": 0.023255813953483084,
          "durationTicks": 2,
          "midi": 66,
          "name": "F#4",
          "ticks": 12413,
          "time": 144.3372093023256,
          "velocity": 0.2440944881889764
        },
        {
          "duration": 0.1046511627907023,
          "durationTicks": 9,
          "midi": 38,
          "name": "D2",
          "ticks": 12415,
          "time": 144.36046511627907,
          "velocity": 0.4330708661417323
        },
        {
          "duration": 0.06976744186047767,
          "durationTicks": 6,
          "midi": 64,
          "name": "E4",
          "ticks": 12416,
          "time": 144.37209302325581,
          "velocity": 0.2755905511811024
        },
        {
          "duration": 0.33720930232559,
          "durationTicks": 29,
          "midi": 60,
          "name": "C4",
          "ticks": 12421,
          "time": 144.43023255813952,
          "velocity": 0.5196850393700787
        },
        {
          "duration": 0.1511627906976969,
          "durationTicks": 13,
          "midi": 79,
          "name": "G5",
          "ticks": 12421,
          "time": 144.43023255813952,
          "velocity": 0.2283464566929134
        },
        {
          "duration": 0.08139534883721922,
          "durationTicks": 7,
          "midi": 94,
          "name": "A#6",
          "ticks": 12421,
          "time": 144.43023255813952,
          "velocity": 0.08661417322834646
        },
        {
          "duration": 0.04651162790696617,
          "durationTicks": 4,
          "midi": 96,
          "name": "C7",
          "ticks": 12422,
          "time": 144.4418604651163,
          "velocity": 0.07874015748031496
        },
        {
          "duration": 0.12790697674418539,
          "durationTicks": 11,
          "midi": 66,
          "name": "F#4",
          "ticks": 12423,
          "time": 144.45348837209303,
          "velocity": 0.2283464566929134
        },
        {
          "duration": 0.10465116279067388,
          "durationTicks": 9,
          "midi": 69,
          "name": "A4",
          "ticks": 12423,
          "time": 144.45348837209303,
          "velocity": 0.09448818897637795
        },
        {
          "duration": 0.034883720930224626,
          "durationTicks": 3,
          "midi": 37,
          "name": "C#2",
          "ticks": 12424,
          "time": 144.46511627906978,
          "velocity": 0.2755905511811024
        },
        {
          "duration": 0.034883720930224626,
          "durationTicks": 3,
          "midi": 38,
          "name": "D2",
          "ticks": 12427,
          "time": 144.5,
          "velocity": 0.2992125984251969
        },
        {
          "duration": 0.2674418604651123,
          "durationTicks": 23,
          "midi": 76,
          "name": "E5",
          "ticks": 12430,
          "time": 144.53488372093022,
          "velocity": 0.1732283464566929
        },
        {
          "duration": 0.2790697674418823,
          "durationTicks": 24,
          "midi": 85,
          "name": "C#6",
          "ticks": 12430,
          "time": 144.53488372093022,
          "velocity": 0.23622047244094488
        },
        {
          "duration": 0.03488372093025305,
          "durationTicks": 3,
          "midi": 74,
          "name": "D5",
          "ticks": 12431,
          "time": 144.54651162790697,
          "velocity": 0.2204724409448819
        },
        {
          "duration": 0.03488372093025305,
          "durationTicks": 3,
          "midi": 77,
          "name": "F5",
          "ticks": 12431,
          "time": 144.54651162790697,
          "velocity": 0.14173228346456693
        },
        {
          "duration": 0.2093023255814046,
          "durationTicks": 18,
          "midi": 45,
          "name": "A2",
          "ticks": 12432,
          "time": 144.5581395348837,
          "velocity": 0.49606299212598426
        },
        {
          "duration": 0.06976744186047767,
          "durationTicks": 6,
          "midi": 83,
          "name": "B5",
          "ticks": 12432,
          "time": 144.5581395348837,
          "velocity": 0.09448818897637795
        },
        {
          "duration": 0.1860465116278931,
          "durationTicks": 16,
          "midi": 67,
          "name": "G4",
          "ticks": 12434,
          "time": 144.58139534883722,
          "velocity": 0.1889763779527559
        },
        {
          "duration": 0.17441860465115155,
          "durationTicks": 15,
          "midi": 75,
          "name": "D#5",
          "ticks": 12434,
          "time": 144.58139534883722,
          "velocity": 0.2125984251968504
        },
        {
          "duration": 0.05813953488370771,
          "durationTicks": 5,
          "midi": 79,
          "name": "G5",
          "ticks": 12435,
          "time": 144.59302325581396,
          "velocity": 0.2125984251968504
        },
        {
          "duration": 0.034883720930224626,
          "durationTicks": 3,
          "midi": 52,
          "name": "E3",
          "ticks": 12437,
          "time": 144.61627906976744,
          "velocity": 0.25984251968503935
        },
        {
          "duration": 0.08139534883721922,
          "durationTicks": 7,
          "midi": 52,
          "name": "E3",
          "ticks": 12442,
          "time": 144.67441860465115,
          "velocity": 0.2204724409448819
        },
        {
          "duration": 0.023255813953483084,
          "durationTicks": 2,
          "midi": 44,
          "name": "G#2",
          "ticks": 12450,
          "time": 144.7674418604651,
          "velocity": 0.48031496062992124
        },
        {
          "duration": 0.023255813953483084,
          "durationTicks": 2,
          "midi": 55,
          "name": "G3",
          "ticks": 12450,
          "time": 144.7674418604651,
          "velocity": 0.4094488188976378
        },
        {
          "duration": 0.2325581395348877,
          "durationTicks": 20,
          "midi": 64,
          "name": "E4",
          "ticks": 12450,
          "time": 144.7674418604651,
          "velocity": 0.2047244094488189
        },
        {
          "duration": 0.034883720930224626,
          "durationTicks": 3,
          "midi": 68,
          "name": "G#4",
          "ticks": 12450,
          "time": 144.7674418604651,
          "velocity": 0.4094488188976378
        },
        {
          "duration": 0.2325581395348877,
          "durationTicks": 20,
          "midi": 79,
          "name": "G5",
          "ticks": 12450,
          "time": 144.7674418604651,
          "velocity": 0.25196850393700787
        },
        {
          "duration": 0.22093023255814614,
          "durationTicks": 19,
          "midi": 60,
          "name": "C4",
          "ticks": 12451,
          "time": 144.77906976744185,
          "velocity": 0.3228346456692913
        },
        {
          "duration": 0.16279069767443843,
          "durationTicks": 14,
          "midi": 83,
          "name": "B5",
          "ticks": 12451,
          "time": 144.77906976744185,
          "velocity": 0.2204724409448819
        },
        {
          "duration": 0.09302325581396076,
          "durationTicks": 8,
          "midi": 89,
          "name": "F6",
          "ticks": 12451,
          "time": 144.77906976744185,
          "velocity": 0.11023622047244094
        },
        {
          "duration": 0.18604651162792152,
          "durationTicks": 16,
          "midi": 93,
          "name": "A6",
          "ticks": 12451,
          "time": 144.77906976744185,
          "velocity": 0.13385826771653545
        },
        {
          "duration": 0.023255813953511506,
          "durationTicks": 2,
          "midi": 47,
          "name": "B2",
          "ticks": 12452,
          "time": 144.7906976744186,
          "velocity": 0.5118110236220472
        },
        {
          "duration": 0.05813953488373613,
          "durationTicks": 5,
          "midi": 82,
          "name": "A#5",
          "ticks": 12452,
          "time": 144.7906976744186,
          "velocity": 0.08661417322834646
        },
        {
          "duration": 0.04651162790699459,
          "durationTicks": 4,
          "midi": 37,
          "name": "C#2",
          "ticks": 12453,
          "time": 144.80232558139534,
          "velocity": 0.4645669291338583
        },
        {
          "duration": 0.18604651162792152,
          "durationTicks": 16,
          "midi": 55,
          "name": "G3",
          "ticks": 12453,
          "time": 144.80232558139534,
          "velocity": 0.33858267716535434
        },
        {
          "duration": 0.2093023255814046,
          "durationTicks": 18,
          "midi": 67,
          "name": "G4",
          "ticks": 12453,
          "time": 144.80232558139534,
          "velocity": 0.3937007874015748
        },
        {
          "duration": 0.19767441860466306,
          "durationTicks": 17,
          "midi": 70,
          "name": "A#4",
          "ticks": 12453,
          "time": 144.80232558139534,
          "velocity": 0.08661417322834646
        },
        {
          "duration": 0.1046511627907023,
          "durationTicks": 9,
          "midi": 36,
          "name": "C2",
          "ticks": 12457,
          "time": 144.84883720930233,
          "velocity": 0.3937007874015748
        },
        {
          "duration": 0.16279069767441,
          "durationTicks": 14,
          "midi": 48,
          "name": "C3",
          "ticks": 12458,
          "time": 144.86046511627907,
          "velocity": 0.49606299212598426
        },
        {
          "duration": 0.13953488372092693,
          "durationTicks": 12,
          "midi": 74,
          "name": "D5",
          "ticks": 12458,
          "time": 144.86046511627907,
          "velocity": 0.11023622047244094
        },
        {
          "duration": 0.023255813953483084,
          "durationTicks": 2,
          "midi": 35,
          "name": "B1",
          "ticks": 12466,
          "time": 144.95348837209303,
          "velocity": 0.2440944881889764
        },
        {
          "duration": 0.023255813953483084,
          "durationTicks": 2,
          "midi": 36,
          "name": "C2",
          "ticks": 12468,
          "time": 144.97674418604652,
          "velocity": 0.25984251968503935
        },
        {
          "duration": 0.3953488372092977,
          "durationTicks": 34,
          "midi": 76,
          "name": "E5",
          "ticks": 12470,
          "time": 145,
          "velocity": 0.4645669291338583
        },
        {
          "duration": 0.1046511627907023,
          "durationTicks": 9,
          "midi": 84,
          "name": "C6",
          "ticks": 12470,
          "time": 145,
          "velocity": 0.14173228346456693
        },
        {
          "duration": 0.2093023255814046,
          "durationTicks": 18,
          "midi": 57,
          "name": "A3",
          "ticks": 12471,
          "time": 145.01162790697674,
          "velocity": 0.3464566929133858
        },
        {
          "duration": 0.45348837209303383,
          "durationTicks": 39,
          "midi": 66,
          "name": "F#4",
          "ticks": 12471,
          "time": 145.01162790697674,
          "velocity": 0.25196850393700787
        },
        {
          "duration": 0.2093023255814046,
          "durationTicks": 18,
          "midi": 72,
          "name": "C5",
          "ticks": 12471,
          "time": 145.01162790697674,
          "velocity": 0.14960629921259844
        },
        {
          "duration": 0.034883720930224626,
          "durationTicks": 3,
          "midi": 79,
          "name": "G5",
          "ticks": 12471,
          "time": 145.01162790697674,
          "velocity": 0.13385826771653545
        },
        {
          "duration": 0.11627906976744384,
          "durationTicks": 10,
          "midi": 93,
          "name": "A6",
          "ticks": 12471,
          "time": 145.01162790697674,
          "velocity": 0.09448818897637795
        },
        {
          "duration": 0.13953488372092693,
          "durationTicks": 12,
          "midi": 95,
          "name": "B6",
          "ticks": 12471,
          "time": 145.01162790697674,
          "velocity": 0.2204724409448819
        },
        {
          "duration": 0.023255813953483084,
          "durationTicks": 2,
          "midi": 77,
          "name": "F5",
          "ticks": 12472,
          "time": 145.02325581395348,
          "velocity": 0.23622047244094488
        },
        {
          "duration": 0.04651162790699459,
          "durationTicks": 4,
          "midi": 90,
          "name": "F#6",
          "ticks": 12472,
          "time": 145.02325581395348,
          "velocity": 0.07086614173228346
        },
        {
          "duration": 0.023255813953483084,
          "durationTicks": 2,
          "midi": 39,
          "name": "D#2",
          "ticks": 12473,
          "time": 145.03488372093022,
          "velocity": 0.48031496062992124
        },
        {
          "duration": 0.19767441860466306,
          "durationTicks": 17,
          "midi": 50,
          "name": "D3",
          "ticks": 12473,
          "time": 145.03488372093022,
          "velocity": 0.41732283464566927
        },
        {
          "duration": 0.023255813953511506,
          "durationTicks": 2,
          "midi": 38,
          "name": "D2",
          "ticks": 12475,
          "time": 145.0581395348837,
          "velocity": 0.3858267716535433
        },
        {
          "duration": 0.05813953488370771,
          "durationTicks": 5,
          "midi": 38,
          "name": "D2",
          "ticks": 12478,
          "time": 145.09302325581396,
          "velocity": 0.3543307086614173
        },
        {
          "duration": 0.023255813953483084,
          "durationTicks": 2,
          "midi": 37,
          "name": "C#2",
          "ticks": 12483,
          "time": 145.15116279069767,
          "velocity": 0.2755905511811024
        },
        {
          "duration": 0.03488372093025305,
          "durationTicks": 3,
          "midi": 38,
          "name": "D2",
          "ticks": 12485,
          "time": 145.17441860465115,
          "velocity": 0.25196850393700787
        },
        {
          "duration": 0.023255813953483084,
          "durationTicks": 2,
          "midi": 56,
          "name": "G#3",
          "ticks": 12489,
          "time": 145.22093023255815,
          "velocity": 0.25196850393700787
        },
        {
          "duration": 0.22093023255814614,
          "durationTicks": 19,
          "midi": 62,
          "name": "D4",
          "ticks": 12490,
          "time": 145.2325581395349,
          "velocity": 0.2283464566929134
        },
        {
          "duration": 0.08139534883721922,
          "durationTicks": 7,
          "midi": 93,
          "name": "A6",
          "ticks": 12490,
          "time": 145.2325581395349,
          "velocity": 0.13385826771653545
        },
        {
          "duration": 0.2093023255814046,
          "durationTicks": 18,
          "midi": 50,
          "name": "D3",
          "ticks": 12491,
          "time": 145.24418604651163,
          "velocity": 0.44881889763779526
        },
        {
          "duration": 0.22093023255814614,
          "durationTicks": 19,
          "midi": 57,
          "name": "A3",
          "ticks": 12491,
          "time": 145.24418604651163,
          "velocity": 0.25984251968503935
        },
        {
          "duration": 0.1046511627907023,
          "durationTicks": 9,
          "midi": 72,
          "name": "C5",
          "ticks": 12491,
          "time": 145.24418604651163,
          "velocity": 0.29133858267716534
        },
        {
          "duration": 0.034883720930224626,
          "durationTicks": 3,
          "midi": 39,
          "name": "D#2",
          "ticks": 12492,
          "time": 145.25581395348837,
          "velocity": 0.4330708661417323
        },
        {
          "duration": 0.06976744186047767,
          "durationTicks": 6,
          "midi": 38,
          "name": "D2",
          "ticks": 12495,
          "time": 145.2906976744186,
          "velocity": 0.4330708661417323
        },
        {
          "duration": 0.12790697674418539,
          "durationTicks": 11,
          "midi": 84,
          "name": "C6",
          "ticks": 12499,
          "time": 145.3372093023256,
          "velocity": 0.31496062992125984
        },
        {
          "duration": 0.17441860465115155,
          "durationTicks": 15,
          "midi": 100,
          "name": "E7",
          "ticks": 12499,
          "time": 145.3372093023256,
          "velocity": 0.2992125984251969
        },
        {
          "duration": 0.023255813953483084,
          "durationTicks": 2,
          "midi": 73,
          "name": "C#5",
          "ticks": 12500,
          "time": 145.34883720930233,
          "velocity": 0.4251968503937008
        },
        {
          "duration": 0.16279069767441,
          "durationTicks": 14,
          "midi": 91,
          "name": "G6",
          "ticks": 12500,
          "time": 145.34883720930233,
          "velocity": 0.2440944881889764
        },
        {
          "duration": 0.04651162790696617,
          "durationTicks": 4,
          "midi": 37,
          "name": "C#2",
          "ticks": 12501,
          "time": 145.36046511627907,
          "velocity": 0.2755905511811024
        },
        {
          "duration": 0.33720930232559,
          "durationTicks": 29,
          "midi": 72,
          "name": "C5",
          "ticks": 12501,
          "time": 145.36046511627907,
          "velocity": 0.4645669291338583
        },
        {
          "duration": 0.04651162790699459,
          "durationTicks": 4,
          "midi": 38,
          "name": "D2",
          "ticks": 12505,
          "time": 145.40697674418604,
          "velocity": 0.29133858267716534
        },
        {
          "duration": 0.023255813953483084,
          "durationTicks": 2,
          "midi": 44,
          "name": "G#2",
          "ticks": 12510,
          "time": 145.46511627906978,
          "velocity": 0.47244094488188976
        },
        {
          "duration": 0.11627906976744384,
          "durationTicks": 10,
          "midi": 74,
          "name": "D5",
          "ticks": 12510,
          "time": 145.46511627906978,
          "velocity": 0.31496062992125984
        },
        {
          "duration": 0.11627906976744384,
          "durationTicks": 10,
          "midi": 77,
          "name": "F5",
          "ticks": 12510,
          "time": 145.46511627906978,
          "velocity": 0.1968503937007874
        },
        {
          "duration": 0.11627906976744384,
          "durationTicks": 10,
          "midi": 81,
          "name": "A5",
          "ticks": 12510,
          "time": 145.46511627906978,
          "velocity": 0.15748031496062992
        },
        {
          "duration": 0.12790697674418539,
          "durationTicks": 11,
          "midi": 83,
          "name": "B5",
          "ticks": 12510,
          "time": 145.46511627906978,
          "velocity": 0.2283464566929134
        },
        {
          "duration": 0.023255813953483084,
          "durationTicks": 2,
          "midi": 85,
          "name": "C#6",
          "ticks": 12510,
          "time": 145.46511627906978,
          "velocity": 0.2440944881889764
        },
        {
          "duration": 0.11627906976744384,
          "durationTicks": 10,
          "midi": 90,
          "name": "F#6",
          "ticks": 12510,
          "time": 145.46511627906978,
          "velocity": 0.07874015748031496
        },
        {
          "duration": 0.1046511627907023,
          "durationTicks": 9,
          "midi": 62,
          "name": "D4",
          "ticks": 12511,
          "time": 145.47674418604652,
          "velocity": 0.1968503937007874
        },
        {
          "duration": 0.12790697674418539,
          "durationTicks": 11,
          "midi": 67,
          "name": "G4",
          "ticks": 12511,
          "time": 145.47674418604652,
          "velocity": 0.23622047244094488
        },
        {
          "duration": 0.08139534883721922,
          "durationTicks": 7,
          "midi": 55,
          "name": "G3",
          "ticks": 12512,
          "time": 145.48837209302326,
          "velocity": 0.44881889763779526
        },
        {
          "duration": 0.034883720930224626,
          "durationTicks": 3,
          "midi": 98,
          "name": "D7",
          "ticks": 12512,
          "time": 145.48837209302326,
          "velocity": 0.08661417322834646
        },
        {
          "duration": 0.023255813953483084,
          "durationTicks": 2,
          "midi": 43,
          "name": "G2",
          "ticks": 12516,
          "time": 145.53488372093022,
          "velocity": 0.3858267716535433
        },
        {
          "duration": 0.023255813953483084,
          "durationTicks": 2,
          "midi": 56,
          "name": "G#3",
          "ticks": 12519,
          "time": 145.56976744186048,
          "velocity": 0.25984251968503935
        },
        {
          "duration": 0.023255813953483084,
          "durationTicks": 2,
          "midi": 60,
          "name": "C4",
          "ticks": 12520,
          "time": 145.58139534883722,
          "velocity": 0.2283464566929134
        },
        {
          "duration": 0.13953488372092693,
          "durationTicks": 12,
          "midi": 76,
          "name": "E5",
          "ticks": 12520,
          "time": 145.58139534883722,
          "velocity": 0.2047244094488189
        },
        {
          "duration": 0.09302325581393234,
          "durationTicks": 8,
          "midi": 80,
          "name": "G#5",
          "ticks": 12520,
          "time": 145.58139534883722,
          "velocity": 0.12598425196850394
        },
        {
          "duration": 0.12790697674418539,
          "durationTicks": 11,
          "midi": 82,
          "name": "A#5",
          "ticks": 12520,
          "time": 145.58139534883722,
          "velocity": 0.2204724409448819
        },
        {
          "duration": 0.023255813953483084,
          "durationTicks": 2,
          "midi": 53,
          "name": "F3",
          "ticks": 12521,
          "time": 145.59302325581396,
          "velocity": 0.4409448818897638
        },
        {
          "duration": 0.06976744186044925,
          "durationTicks": 6,
          "midi": 61,
          "name": "C#4",
          "ticks": 12522,
          "time": 145.6046511627907,
          "velocity": 0.25196850393700787
        },
        {
          "duration": 0.06976744186044925,
          "durationTicks": 6,
          "midi": 66,
          "name": "F#4",
          "ticks": 12522,
          "time": 145.6046511627907,
          "velocity": 0.2047244094488189
        },
        {
          "duration": 0.04651162790696617,
          "durationTicks": 4,
          "midi": 97,
          "name": "C#7",
          "ticks": 12522,
          "time": 145.6046511627907,
          "velocity": 0.09448818897637795
        },
        {
          "duration": 0.06976744186044925,
          "durationTicks": 6,
          "midi": 54,
          "name": "F#3",
          "ticks": 12523,
          "time": 145.61627906976744,
          "velocity": 0.3937007874015748
        },
        {
          "duration": 0.05813953488373613,
          "durationTicks": 5,
          "midi": 42,
          "name": "F#2",
          "ticks": 12526,
          "time": 145.65116279069767,
          "velocity": 0.4881889763779528
        },
        {
          "duration": 0.03488372093025305,
          "durationTicks": 3,
          "midi": 89,
          "name": "F6",
          "ticks": 12527,
          "time": 145.6627906976744,
          "velocity": 0.07874015748031496
        },
        {
          "duration": 0.2906976744186238,
          "durationTicks": 25,
          "midi": 67,
          "name": "G4",
          "ticks": 12528,
          "time": 145.67441860465115,
          "velocity": 0.5433070866141733
        },
        {
          "duration": 0.30232558139536536,
          "durationTicks": 26,
          "midi": 86,
          "name": "D6",
          "ticks": 12528,
          "time": 145.67441860465115,
          "velocity": 0.25196850393700787
        },
        {
          "duration": 0.09302325581396076,
          "durationTicks": 8,
          "midi": 95,
          "name": "B6",
          "ticks": 12529,
          "time": 145.6860465116279,
          "velocity": 0.09448818897637795
        },
        {
          "duration": 0.023255813953483084,
          "durationTicks": 2,
          "midi": 51,
          "name": "D#3",
          "ticks": 12530,
          "time": 145.69767441860466,
          "velocity": 0.4094488188976378
        },
        {
          "duration": 0.10465116279067388,
          "durationTicks": 9,
          "midi": 59,
          "name": "B3",
          "ticks": 12530,
          "time": 145.69767441860466,
          "velocity": 0.2992125984251969
        },
        {
          "duration": 0.10465116279067388,
          "durationTicks": 9,
          "midi": 64,
          "name": "E4",
          "ticks": 12530,
          "time": 145.69767441860466,
          "velocity": 0.2755905511811024
        },
        {
          "duration": 0.023255813953483084,
          "durationTicks": 2,
          "midi": 73,
          "name": "C#5",
          "ticks": 12530,
          "time": 145.69767441860466,
          "velocity": 0.2440944881889764
        },
        {
          "duration": 0.023255813953483084,
          "durationTicks": 2,
          "midi": 41,
          "name": "F2",
          "ticks": 12531,
          "time": 145.7093023255814,
          "velocity": 0.4330708661417323
        },
        {
          "duration": 0.09302325581396076,
          "durationTicks": 8,
          "midi": 52,
          "name": "E3",
          "ticks": 12532,
          "time": 145.72093023255815,
          "velocity": 0.4330708661417323
        },
        {
          "duration": 0.034883720930224626,
          "durationTicks": 3,
          "midi": 92,
          "name": "G#6",
          "ticks": 12532,
          "time": 145.72093023255815,
          "velocity": 0.08661417322834646
        },
        {
          "duration": 0.034883720930224626,
          "durationTicks": 3,
          "midi": 82,
          "name": "A#5",
          "ticks": 12533,
          "time": 145.7325581395349,
          "velocity": 0.13385826771653545
        },
        {
          "duration": 0.05813953488373613,
          "durationTicks": 5,
          "midi": 40,
          "name": "E2",
          "ticks": 12535,
          "time": 145.75581395348837,
          "velocity": 0.4330708661417323
        },
        {
          "duration": 0.09302325581396076,
          "durationTicks": 8,
          "midi": 84,
          "name": "C6",
          "ticks": 12538,
          "time": 145.7906976744186,
          "velocity": 0.07874015748031496
        },
        {
          "duration": 0.05813953488373613,
          "durationTicks": 5,
          "midi": 72,
          "name": "C5",
          "ticks": 12539,
          "time": 145.80232558139534,
          "velocity": 0.2125984251968504
        },
        {
          "duration": 0.023255813953483084,
          "durationTicks": 2,
          "midi": 50,
          "name": "D3",
          "ticks": 12540,
          "time": 145.8139534883721,
          "velocity": 0.48031496062992124
        },
        {
          "duration": 0.4534883720930054,
          "durationTicks": 39,
          "midi": 57,
          "name": "A3",
          "ticks": 12540,
          "time": 145.8139534883721,
          "velocity": 0.4015748031496063
        },
        {
          "duration": 0.04651162790696617,
          "durationTicks": 4,
          "midi": 90,
          "name": "F#6",
          "ticks": 12540,
          "time": 145.8139534883721,
          "velocity": 0.08661417322834646
        },
        {
          "duration": 0.09302325581393234,
          "durationTicks": 8,
          "midi": 93,
          "name": "A6",
          "ticks": 12540,
          "time": 145.8139534883721,
          "velocity": 0.12598425196850394
        },
        {
          "duration": 0.0813953488371908,
          "durationTicks": 7,
          "midi": 76,
          "name": "E5",
          "ticks": 12541,
          "time": 145.82558139534885,
          "velocity": 0.10236220472440945
        },
        {
          "duration": 0.05813953488370771,
          "durationTicks": 5,
          "midi": 39,
          "name": "D#2",
          "ticks": 12542,
          "time": 145.8372093023256,
          "velocity": 0.4566929133858268
        },
        {
          "duration": 0.04651162790696617,
          "durationTicks": 4,
          "midi": 50,
          "name": "D3",
          "ticks": 12543,
          "time": 145.84883720930233,
          "velocity": 0.44881889763779526
        },
        {
          "duration": 0.023255813953483084,
          "durationTicks": 2,
          "midi": 38,
          "name": "D2",
          "ticks": 12547,
          "time": 145.8953488372093,
          "velocity": 0.4015748031496063
        },
        {
          "duration": 0.15116279069766847,
          "durationTicks": 13,
          "midi": 82,
          "name": "A#5",
          "ticks": 12547,
          "time": 145.8953488372093,
          "velocity": 0.11023622047244094
        },
        {
          "duration": 0.4418604651162923,
          "durationTicks": 38,
          "midi": 74,
          "name": "D5",
          "ticks": 12548,
          "time": 145.90697674418604,
          "velocity": 0.5118110236220472
        },
        {
          "duration": 0.3720930232558146,
          "durationTicks": 32,
          "midi": 81,
          "name": "A5",
          "ticks": 12548,
          "time": 145.90697674418604,
          "velocity": 0.2755905511811024
        },
        {
          "duration": 0.023255813953511506,
          "durationTicks": 2,
          "midi": 40,
          "name": "E2",
          "ticks": 12549,
          "time": 145.91860465116278,
          "velocity": 0.47244094488188976
        },
        {
          "duration": 0.023255813953511506,
          "durationTicks": 2,
          "midi": 49,
          "name": "C#3",
          "ticks": 12549,
          "time": 145.91860465116278,
          "velocity": 0.48031496062992124
        },
        {
          "duration": 0.34883720930233153,
          "durationTicks": 30,
          "midi": 62,
          "name": "D4",
          "ticks": 12549,
          "time": 145.91860465116278,
          "velocity": 0.5196850393700787
        },
        {
          "duration": 0.08139534883721922,
          "durationTicks": 7,
          "midi": 84,
          "name": "C6",
          "ticks": 12549,
          "time": 145.91860465116278,
          "velocity": 0.11023622047244094
        },
        {
          "duration": 0.1046511627907023,
          "durationTicks": 9,
          "midi": 85,
          "name": "C#6",
          "ticks": 12549,
          "time": 145.91860465116278,
          "velocity": 0.11023622047244094
        },
        {
          "duration": 0.25581395348837077,
          "durationTicks": 22,
          "midi": 90,
          "name": "F#6",
          "ticks": 12549,
          "time": 145.91860465116278,
          "velocity": 0.1732283464566929
        },
        {
          "duration": 0.19767441860466306,
          "durationTicks": 17,
          "midi": 72,
          "name": "C5",
          "ticks": 12550,
          "time": 145.93023255813952,
          "velocity": 0.1889763779527559
        },
        {
          "duration": 0.023255813953483084,
          "durationTicks": 2,
          "midi": 39,
          "name": "D#2",
          "ticks": 12551,
          "time": 145.9418604651163,
          "velocity": 0.44881889763779526
        },
        {
          "duration": 0.44186046511626387,
          "durationTicks": 38,
          "midi": 50,
          "name": "D3",
          "ticks": 12551,
          "time": 145.9418604651163,
          "velocity": 0.5354330708661418
        },
        {
          "duration": 0.1860465116278931,
          "durationTicks": 16,
          "midi": 76,
          "name": "E5",
          "ticks": 12551,
          "time": 145.9418604651163,
          "velocity": 0.14173228346456693
        },
        {
          "duration": 0.023255813953483084,
          "durationTicks": 2,
          "midi": 38,
          "name": "D2",
          "ticks": 12553,
          "time": 145.96511627906978,
          "velocity": 0.3858267716535433
        },
        {
          "duration": 0.38372093023255616,
          "durationTicks": 33,
          "midi": 66,
          "name": "F#4",
          "ticks": 12555,
          "time": 145.98837209302326,
          "velocity": 0.25984251968503935
        },
        {
          "duration": 0.06976744186047767,
          "durationTicks": 6,
          "midi": 38,
          "name": "D2",
          "ticks": 12556,
          "time": 146,
          "velocity": 0.33858267716535434
        },
        {
          "duration": 0.05813953488370771,
          "durationTicks": 5,
          "midi": 38,
          "name": "D2",
          "ticks": 12563,
          "time": 146.08139534883722,
          "velocity": 0.2755905511811024
        },
        {
          "duration": 0.023255813953483084,
          "durationTicks": 2,
          "midi": 40,
          "name": "E2",
          "ticks": 12569,
          "time": 146.15116279069767,
          "velocity": 0.44881889763779526
        },
        {
          "duration": 0.1046511627907023,
          "durationTicks": 9,
          "midi": 72,
          "name": "C5",
          "ticks": 12570,
          "time": 146.1627906976744,
          "velocity": 0.25984251968503935
        },
        {
          "duration": 0.023255813953511506,
          "durationTicks": 2,
          "midi": 39,
          "name": "D#2",
          "ticks": 12571,
          "time": 146.17441860465115,
          "velocity": 0.4645669291338583
        },
        {
          "duration": 0.06976744186047767,
          "durationTicks": 6,
          "midi": 80,
          "name": "G#5",
          "ticks": 12571,
          "time": 146.17441860465115,
          "velocity": 0.13385826771653545
        },
        {
          "duration": 0.04651162790699459,
          "durationTicks": 4,
          "midi": 90,
          "name": "F#6",
          "ticks": 12572,
          "time": 146.1860465116279,
          "velocity": 0.13385826771653545
        },
        {
          "duration": 0.05813953488370771,
          "durationTicks": 5,
          "midi": 38,
          "name": "D2",
          "ticks": 12573,
          "time": 146.19767441860466,
          "velocity": 0.4409448818897638
        },
        {
          "duration": 0.13953488372092693,
          "durationTicks": 12,
          "midi": 80,
          "name": "G#5",
          "ticks": 12578,
          "time": 146.25581395348837,
          "velocity": 0.1889763779527559
        },
        {
          "duration": 0.34883720930233153,
          "durationTicks": 30,
          "midi": 82,
          "name": "A#5",
          "ticks": 12578,
          "time": 146.25581395348837,
          "velocity": 0.25196850393700787
        },
        {
          "duration": 0.04651162790696617,
          "durationTicks": 4,
          "midi": 90,
          "name": "F#6",
          "ticks": 12578,
          "time": 146.25581395348837,
          "velocity": 0.1732283464566929
        },
        {
          "duration": 0.08139534883721922,
          "durationTicks": 7,
          "midi": 58,
          "name": "A#3",
          "ticks": 12579,
          "time": 146.2674418604651,
          "velocity": 0.3779527559055118
        },
        {
          "duration": 0.33720930232559,
          "durationTicks": 29,
          "midi": 70,
          "name": "A#4",
          "ticks": 12579,
          "time": 146.2674418604651,
          "velocity": 0.44881889763779526
        },
        {
          "duration": 0.08139534883721922,
          "durationTicks": 7,
          "midi": 84,
          "name": "C6",
          "ticks": 12579,
          "time": 146.2674418604651,
          "velocity": 0.11811023622047244
        },
        {
          "duration": 0.05813953488373613,
          "durationTicks": 5,
          "midi": 89,
          "name": "F6",
          "ticks": 12579,
          "time": 146.2674418604651,
          "velocity": 0.10236220472440945
        },
        {
          "duration": 0.15116279069766847,
          "durationTicks": 13,
          "midi": 96,
          "name": "C7",
          "ticks": 12579,
          "time": 146.2674418604651,
          "velocity": 0.18110236220472442
        },
        {
          "duration": 0.05813953488373613,
          "durationTicks": 5,
          "midi": 97,
          "name": "C#7",
          "ticks": 12579,
          "time": 146.2674418604651,
          "velocity": 0.07874015748031496
        },
        {
          "duration": 0.09302325581396076,
          "durationTicks": 8,
          "midi": 76,
          "name": "E5",
          "ticks": 12580,
          "time": 146.27906976744185,
          "velocity": 0.08661417322834646
        },
        {
          "duration": 0.023255813953511506,
          "durationTicks": 2,
          "midi": 38,
          "name": "D2",
          "ticks": 12582,
          "time": 146.30232558139534,
          "velocity": 0.33070866141732286
        },
        {
          "duration": 0.034883720930224626,
          "durationTicks": 3,
          "midi": 39,
          "name": "D#2",
          "ticks": 12584,
          "time": 146.32558139534885,
          "velocity": 0.3543307086614173
        },
        {
          "duration": 0.034883720930224626,
          "durationTicks": 3,
          "midi": 90,
          "name": "F#6",
          "ticks": 12584,
          "time": 146.32558139534885,
          "velocity": 0.07874015748031496
        },
        {
          "duration": 0.034883720930224626,
          "durationTicks": 3,
          "midi": 77,
          "name": "F5",
          "ticks": 12588,
          "time": 146.37209302325581,
          "velocity": 0.12598425196850394
        },
        {
          "duration": 0.2906976744185954,
          "durationTicks": 25,
          "midi": 85,
          "name": "C#6",
          "ticks": 12588,
          "time": 146.37209302325581,
          "velocity": 0.2440944881889764
        },
        {
          "duration": 0.023255813953483084,
          "durationTicks": 2,
          "midi": 58,
          "name": "A#3",
          "ticks": 12589,
          "time": 146.38372093023256,
          "velocity": 0.3543307086614173
        },
        {
          "duration": 0.22093023255814614,
          "durationTicks": 19,
          "midi": 67,
          "name": "G4",
          "ticks": 12589,
          "time": 146.38372093023256,
          "velocity": 0.2283464566929134
        },
        {
          "duration": 0.09302325581396076,
          "durationTicks": 8,
          "midi": 83,
          "name": "B5",
          "ticks": 12589,
          "time": 146.38372093023256,
          "velocity": 0.09448818897637795
        },
        {
          "duration": 0.2093023255814046,
          "durationTicks": 18,
          "midi": 45,
          "name": "A2",
          "ticks": 12590,
          "time": 146.3953488372093,
          "velocity": 0.49606299212598426
        },
        {
          "duration": 0.09302325581396076,
          "durationTicks": 8,
          "midi": 73,
          "name": "C#5",
          "ticks": 12590,
          "time": 146.3953488372093,
          "velocity": 0.14173228346456693
        },
        {
          "duration": 0.05813953488373613,
          "durationTicks": 5,
          "midi": 61,
          "name": "C#4",
          "ticks": 12591,
          "time": 146.40697674418604,
          "velocity": 0.25196850393700787
        },
        {
          "duration": 0.03488372093025305,
          "durationTicks": 3,
          "midi": 75,
          "name": "D#5",
          "ticks": 12592,
          "time": 146.41860465116278,
          "velocity": 0.2125984251968504
        },
        {
          "duration": 0.023255813953511506,
          "durationTicks": 2,
          "midi": 58,
          "name": "A#3",
          "ticks": 12593,
          "time": 146.43023255813952,
          "velocity": 0.29133858267716534
        },
        {
          "duration": 0.03488372093025305,
          "durationTicks": 3,
          "midi": 92,
          "name": "G#6",
          "ticks": 12593,
          "time": 146.43023255813952,
          "velocity": 0.07086614173228346
        },
        {
          "duration": 0.023255813953483084,
          "durationTicks": 2,
          "midi": 58,
          "name": "A#3",
          "ticks": 12596,
          "time": 146.46511627906978,
          "velocity": 0.2283464566929134
        },
        {
          "duration": 0.16279069767441,
          "durationTicks": 14,
          "midi": 75,
          "name": "D#5",
          "ticks": 12596,
          "time": 146.46511627906978,
          "velocity": 0.1889763779527559
        },
        {
          "duration": 0.034883720930224626,
          "durationTicks": 3,
          "midi": 61,
          "name": "C#4",
          "ticks": 12597,
          "time": 146.47674418604652,
          "velocity": 0.2047244094488189
        },
        {
          "duration": 0.04651162790696617,
          "durationTicks": 4,
          "midi": 58,
          "name": "A#3",
          "ticks": 12600,
          "time": 146.51162790697674,
          "velocity": 0.2677165354330709
        },
        {
          "duration": 0.04651162790699459,
          "durationTicks": 4,
          "midi": 52,
          "name": "E3",
          "ticks": 12601,
          "time": 146.52325581395348,
          "velocity": 0.2125984251968504
        },
        {
          "duration": 0.03488372093025305,
          "durationTicks": 3,
          "midi": 61,
          "name": "C#4",
          "ticks": 12603,
          "time": 146.54651162790697,
          "velocity": 0.14960629921259844
        },
        {
          "duration": 0.034883720930224626,
          "durationTicks": 3,
          "midi": 58,
          "name": "A#3",
          "ticks": 12605,
          "time": 146.56976744186048,
          "velocity": 0.25984251968503935
        },
        {
          "duration": 0.034883720930224626,
          "durationTicks": 3,
          "midi": 52,
          "name": "E3",
          "ticks": 12606,
          "time": 146.58139534883722,
          "velocity": 0.4094488188976378
        },
        {
          "duration": 0.2674418604651123,
          "durationTicks": 23,
          "midi": 77,
          "name": "F5",
          "ticks": 12608,
          "time": 146.6046511627907,
          "velocity": 0.29133858267716534
        },
        {
          "duration": 0.011627906976741542,
          "durationTicks": 1,
          "midi": 51,
          "name": "D#3",
          "ticks": 12609,
          "time": 146.61627906976744,
          "velocity": 0.5354330708661418
        },
        {
          "duration": 0.2093023255814046,
          "durationTicks": 18,
          "midi": 60,
          "name": "C4",
          "ticks": 12609,
          "time": 146.61627906976744,
          "velocity": 0.29133858267716534
        },
        {
          "duration": 0.25581395348837077,
          "durationTicks": 22,
          "midi": 65,
          "name": "F4",
          "ticks": 12609,
          "time": 146.61627906976744,
          "velocity": 0.4645669291338583
        },
        {
          "duration": 0.034883720930224626,
          "durationTicks": 3,
          "midi": 70,
          "name": "A#4",
          "ticks": 12609,
          "time": 146.61627906976744,
          "velocity": 0.2204724409448819
        },
        {
          "duration": 0.25581395348837077,
          "durationTicks": 22,
          "midi": 72,
          "name": "C5",
          "ticks": 12609,
          "time": 146.61627906976744,
          "velocity": 0.44881889763779526
        },
        {
          "duration": 0.04651162790696617,
          "durationTicks": 4,
          "midi": 88,
          "name": "E6",
          "ticks": 12609,
          "time": 146.61627906976744,
          "velocity": 0.07086614173228346
        },
        {
          "duration": 0.04651162790696617,
          "durationTicks": 4,
          "midi": 95,
          "name": "B6",
          "ticks": 12609,
          "time": 146.61627906976744,
          "velocity": 0.08661417322834646
        },
        {
          "duration": 0.27906976744185386,
          "durationTicks": 24,
          "midi": 96,
          "name": "C7",
          "ticks": 12609,
          "time": 146.61627906976744,
          "velocity": 0.13385826771653545
        },
        {
          "duration": 0.05813953488370771,
          "durationTicks": 5,
          "midi": 100,
          "name": "E7",
          "ticks": 12609,
          "time": 146.61627906976744,
          "velocity": 0.13385826771653545
        },
        {
          "duration": 0.011627906976741542,
          "durationTicks": 1,
          "midi": 48,
          "name": "C3",
          "ticks": 12610,
          "time": 146.62790697674419,
          "velocity": 0.5196850393700787
        },
        {
          "duration": 0.2093023255814046,
          "durationTicks": 18,
          "midi": 53,
          "name": "F3",
          "ticks": 12610,
          "time": 146.62790697674419,
          "velocity": 0.5511811023622047
        },
        {
          "duration": 0.034883720930224626,
          "durationTicks": 3,
          "midi": 74,
          "name": "D5",
          "ticks": 12610,
          "time": 146.62790697674419,
          "velocity": 0.15748031496062992
        },
        {
          "duration": 0.13953488372092693,
          "durationTicks": 12,
          "midi": 81,
          "name": "A5",
          "ticks": 12610,
          "time": 146.62790697674419,
          "velocity": 0.1732283464566929
        },
        {
          "duration": 0.034883720930224626,
          "durationTicks": 3,
          "midi": 37,
          "name": "C#2",
          "ticks": 12612,
          "time": 146.65116279069767,
          "velocity": 0.4409448818897638
        },
        {
          "duration": 0.03488372093025305,
          "durationTicks": 3,
          "midi": 83,
          "name": "B5",
          "ticks": 12613,
          "time": 146.6627906976744,
          "velocity": 0.07086614173228346
        },
        {
          "duration": 0.03488372093025305,
          "durationTicks": 3,
          "midi": 48,
          "name": "C3",
          "ticks": 12614,
          "time": 146.67441860465115,
          "velocity": 0.4251968503937008
        },
        {
          "duration": 0.09302325581396076,
          "durationTicks": 8,
          "midi": 36,
          "name": "C2",
          "ticks": 12615,
          "time": 146.6860465116279,
          "velocity": 0.41732283464566927
        },
        {
          "duration": 0.1046511627907023,
          "durationTicks": 9,
          "midi": 74,
          "name": "D5",
          "ticks": 12615,
          "time": 146.6860465116279,
          "velocity": 0.09448818897637795
        },
        {
          "duration": 0.1279069767442138,
          "durationTicks": 11,
          "midi": 91,
          "name": "G6",
          "ticks": 12615,
          "time": 146.6860465116279,
          "velocity": 0.09448818897637795
        },
        {
          "duration": 0.12790697674418539,
          "durationTicks": 11,
          "midi": 70,
          "name": "A#4",
          "ticks": 12617,
          "time": 146.7093023255814,
          "velocity": 0.18110236220472442
        },
        {
          "duration": 0.03488372093025305,
          "durationTicks": 3,
          "midi": 36,
          "name": "C2",
          "ticks": 12624,
          "time": 146.7906976744186,
          "velocity": 0.2677165354330709
        },
        {
          "duration": 0.5116279069767415,
          "durationTicks": 44,
          "midi": 74,
          "name": "D5",
          "ticks": 12627,
          "time": 146.82558139534885,
          "velocity": 0.4566929133858268
        },
        {
          "duration": 0.16279069767441,
          "durationTicks": 14,
          "midi": 93,
          "name": "A6",
          "ticks": 12627,
          "time": 146.82558139534885,
          "velocity": 0.29133858267716534
        },
        {
          "duration": 0.15116279069766847,
          "durationTicks": 13,
          "midi": 102,
          "name": "F#7",
          "ticks": 12627,
          "time": 146.82558139534885,
          "velocity": 0.28346456692913385
        },
        {
          "duration": 0.023255813953483084,
          "durationTicks": 2,
          "midi": 40,
          "name": "E2",
          "ticks": 12628,
          "time": 146.8372093023256,
          "velocity": 0.3464566929133858
        },
        {
          "duration": 0.44186046511626387,
          "durationTicks": 38,
          "midi": 62,
          "name": "D4",
          "ticks": 12628,
          "time": 146.8372093023256,
          "velocity": 0.31496062992125984
        },
        {
          "duration": 0.33720930232556157,
          "durationTicks": 29,
          "midi": 69,
          "name": "A4",
          "ticks": 12628,
          "time": 146.8372093023256,
          "velocity": 0.2204724409448819
        },
        {
          "duration": 0.16279069767441,
          "durationTicks": 14,
          "midi": 80,
          "name": "G#5",
          "ticks": 12628,
          "time": 146.8372093023256,
          "velocity": 0.14960629921259844
        },
        {
          "duration": 0.05813953488370771,
          "durationTicks": 5,
          "midi": 90,
          "name": "F#6",
          "ticks": 12628,
          "time": 146.8372093023256,
          "velocity": 0.08661417322834646
        },
        {
          "duration": 0.034883720930224626,
          "durationTicks": 3,
          "midi": 91,
          "name": "G6",
          "ticks": 12628,
          "time": 146.8372093023256,
          "velocity": 0.13385826771653545
        },
        {
          "duration": 0.023255813953483084,
          "durationTicks": 2,
          "midi": 57,
          "name": "A3",
          "ticks": 12629,
          "time": 146.84883720930233,
          "velocity": 0.2677165354330709
        },
        {
          "duration": 0.034883720930224626,
          "durationTicks": 3,
          "midi": 82,
          "name": "A#5",
          "ticks": 12629,
          "time": 146.84883720930233,
          "velocity": 0.11023622047244094
        },
        {
          "duration": 0.04651162790696617,
          "durationTicks": 4,
          "midi": 38,
          "name": "D2",
          "ticks": 12630,
          "time": 146.86046511627907,
          "velocity": 0.44881889763779526
        },
        {
          "duration": 0.023255813953483084,
          "durationTicks": 2,
          "midi": 50,
          "name": "D3",
          "ticks": 12630,
          "time": 146.86046511627907,
          "velocity": 0.4566929133858268
        },
        {
          "duration": 0.023255813953483084,
          "durationTicks": 2,
          "midi": 66,
          "name": "F#4",
          "ticks": 12631,
          "time": 146.87209302325581,
          "velocity": 0.23622047244094488
        },
        {
          "duration": 0.6162790697674438,
          "durationTicks": 53,
          "midi": 57,
          "name": "A3",
          "ticks": 12632,
          "time": 146.88372093023256,
          "velocity": 0.3858267716535433
        },
        {
          "duration": 0.38372093023255616,
          "durationTicks": 33,
          "midi": 50,
          "name": "D3",
          "ticks": 12633,
          "time": 146.8953488372093,
          "velocity": 0.49606299212598426
        },
        {
          "duration": 0.023255813953483084,
          "durationTicks": 2,
          "midi": 39,
          "name": "D#2",
          "ticks": 12634,
          "time": 146.90697674418604,
          "velocity": 0.3858267716535433
        },
        {
          "duration": 0.3953488372092977,
          "durationTicks": 34,
          "midi": 66,
          "name": "F#4",
          "ticks": 12634,
          "time": 146.90697674418604,
          "velocity": 0.2677165354330709
        },
        {
          "duration": 0.09302325581396076,
          "durationTicks": 8,
          "midi": 76,
          "name": "E5",
          "ticks": 12635,
          "time": 146.91860465116278,
          "velocity": 0.07086614173228346
        },
        {
          "duration": 0.04651162790699459,
          "durationTicks": 4,
          "midi": 38,
          "name": "D2",
          "ticks": 12636,
          "time": 146.93023255813952,
          "velocity": 0.31496062992125984
        },
        {
          "duration": 0.12790697674418539,
          "durationTicks": 11,
          "midi": 72,
          "name": "C5",
          "ticks": 12636,
          "time": 146.93023255813952,
          "velocity": 0.13385826771653545
        },
        {
          "duration": 0.034883720930224626,
          "durationTicks": 3,
          "midi": 37,
          "name": "C#2",
          "ticks": 12640,
          "time": 146.97674418604652,
          "velocity": 0.28346456692913385
        },
        {
          "duration": 0.04651162790696617,
          "durationTicks": 4,
          "midi": 38,
          "name": "D2",
          "ticks": 12643,
          "time": 147.01162790697674,
          "velocity": 0.2755905511811024
        },
        {
          "duration": 0.11627906976744384,
          "durationTicks": 10,
          "midi": 80,
          "name": "G#5",
          "ticks": 12647,
          "time": 147.0581395348837,
          "velocity": 0.14960629921259844
        },
        {
          "duration": 0.1511627906976969,
          "durationTicks": 13,
          "midi": 93,
          "name": "A6",
          "ticks": 12647,
          "time": 147.0581395348837,
          "velocity": 0.13385826771653545
        },
        {
          "duration": 0.023255813953483084,
          "durationTicks": 2,
          "midi": 40,
          "name": "E2",
          "ticks": 12648,
          "time": 147.06976744186048,
          "velocity": 0.4409448818897638
        },
        {
          "duration": 0.0813953488371908,
          "durationTicks": 7,
          "midi": 90,
          "name": "F#6",
          "ticks": 12648,
          "time": 147.06976744186048,
          "velocity": 0.09448818897637795
        },
        {
          "duration": 0.0813953488371908,
          "durationTicks": 7,
          "midi": 72,
          "name": "C5",
          "ticks": 12649,
          "time": 147.08139534883722,
          "velocity": 0.11811023622047244
        },
        {
          "duration": 0.023255813953483084,
          "durationTicks": 2,
          "midi": 39,
          "name": "D#2",
          "ticks": 12650,
          "time": 147.09302325581396,
          "velocity": 0.4645669291338583
        },
        {
          "duration": 0.09302325581396076,
          "durationTicks": 8,
          "midi": 38,
          "name": "D2",
          "ticks": 12652,
          "time": 147.11627906976744,
          "velocity": 0.4409448818897638
        },
        {
          "duration": 0.43023255813955075,
          "durationTicks": 37,
          "midi": 70,
          "name": "A#4",
          "ticks": 12657,
          "time": 147.17441860465115,
          "velocity": 0.5275590551181102
        },
        {
          "duration": 0.04651162790699459,
          "durationTicks": 4,
          "midi": 76,
          "name": "E5",
          "ticks": 12657,
          "time": 147.17441860465115,
          "velocity": 0.09448818897637795
        },
        {
          "duration": 0.17441860465117998,
          "durationTicks": 15,
          "midi": 89,
          "name": "F6",
          "ticks": 12657,
          "time": 147.17441860465115,
          "velocity": 0.2440944881889764
        },
        {
          "duration": 0.06976744186047767,
          "durationTicks": 6,
          "midi": 80,
          "name": "G#5",
          "ticks": 12658,
          "time": 147.1860465116279,
          "velocity": 0.08661417322834646
        },
        {
          "duration": 0.05813953488370771,
          "durationTicks": 5,
          "midi": 38,
          "name": "D2",
          "ticks": 12661,
          "time": 147.22093023255815,
          "velocity": 0.29133858267716534
        },
        {
          "duration": 0.17441860465117998,
          "durationTicks": 15,
          "midi": 76,
          "name": "E5",
          "ticks": 12666,
          "time": 147.27906976744185,
          "velocity": 0.12598425196850394
        },
        {
          "duration": 0.2906976744186238,
          "durationTicks": 25,
          "midi": 85,
          "name": "C#6",
          "ticks": 12666,
          "time": 147.27906976744185,
          "velocity": 0.2283464566929134
        },
        {
          "duration": 0.22093023255814614,
          "durationTicks": 19,
          "midi": 45,
          "name": "A2",
          "ticks": 12667,
          "time": 147.2906976744186,
          "velocity": 0.49606299212598426
        },
        {
          "duration": 0.03488372093025305,
          "durationTicks": 3,
          "midi": 77,
          "name": "F5",
          "ticks": 12667,
          "time": 147.2906976744186,
          "velocity": 0.14960629921259844
        },
        {
          "duration": 0.22093023255814614,
          "durationTicks": 19,
          "midi": 79,
          "name": "G5",
          "ticks": 12667,
          "time": 147.2906976744186,
          "velocity": 0.16535433070866143
        },
        {
          "duration": 0.09302325581396076,
          "durationTicks": 8,
          "midi": 83,
          "name": "B5",
          "ticks": 12667,
          "time": 147.2906976744186,
          "velocity": 0.10236220472440945
        },
        {
          "duration": 0.05813953488373613,
          "durationTicks": 5,
          "midi": 84,
          "name": "C6",
          "ticks": 12667,
          "time": 147.2906976744186,
          "velocity": 0.11023622047244094
        },
        {
          "duration": 0.03488372093025305,
          "durationTicks": 3,
          "midi": 61,
          "name": "C#4",
          "ticks": 12668,
          "time": 147.30232558139534,
          "velocity": 0.2755905511811024
        },
        {
          "duration": 0.2093023255814046,
          "durationTicks": 18,
          "midi": 67,
          "name": "G4",
          "ticks": 12668,
          "time": 147.30232558139534,
          "velocity": 0.2125984251968504
        },
        {
          "duration": 0.034883720930224626,
          "durationTicks": 3,
          "midi": 75,
          "name": "D#5",
          "ticks": 12671,
          "time": 147.3372093023256,
          "velocity": 0.2047244094488189
        },
        {
          "duration": 0.023255813953483084,
          "durationTicks": 2,
          "midi": 52,
          "name": "E3",
          "ticks": 12672,
          "time": 147.34883720930233,
          "velocity": 0.2440944881889764
        },
        {
          "duration": 0.034883720930224626,
          "durationTicks": 3,
          "midi": 61,
          "name": "C#4",
          "ticks": 12672,
          "time": 147.34883720930233,
          "velocity": 0.2283464566929134
        },
        {
          "duration": 0.04651162790696617,
          "durationTicks": 4,
          "midi": 75,
          "name": "D#5",
          "ticks": 12675,
          "time": 147.38372093023256,
          "velocity": 0.1732283464566929
        },
        {
          "duration": 0.034883720930224626,
          "durationTicks": 3,
          "midi": 52,
          "name": "E3",
          "ticks": 12676,
          "time": 147.3953488372093,
          "velocity": 0.2283464566929134
        },
        {
          "duration": 0.11627906976744384,
          "durationTicks": 10,
          "midi": 61,
          "name": "C#4",
          "ticks": 12676,
          "time": 147.3953488372093,
          "velocity": 0.18110236220472442
        },
        {
          "duration": 0.06976744186044925,
          "durationTicks": 6,
          "midi": 52,
          "name": "E3",
          "ticks": 12680,
          "time": 147.4418604651163,
          "velocity": 0.2125984251968504
        },
        {
          "duration": 0.09302325581393234,
          "durationTicks": 8,
          "midi": 75,
          "name": "D#5",
          "ticks": 12680,
          "time": 147.4418604651163,
          "velocity": 0.18110236220472442
        },
        {
          "duration": 0.27906976744185386,
          "durationTicks": 24,
          "midi": 77,
          "name": "F5",
          "ticks": 12685,
          "time": 147.5,
          "velocity": 0.4881889763779528
        },
        {
          "duration": 0.2674418604651123,
          "durationTicks": 23,
          "midi": 65,
          "name": "F4",
          "ticks": 12686,
          "time": 147.51162790697674,
          "velocity": 0.5196850393700787
        },
        {
          "duration": 0.25581395348837077,
          "durationTicks": 22,
          "midi": 84,
          "name": "C6",
          "ticks": 12686,
          "time": 147.51162790697674,
          "velocity": 0.2755905511811024
        },
        {
          "duration": 0.2325581395348877,
          "durationTicks": 20,
          "midi": 93,
          "name": "A6",
          "ticks": 12686,
          "time": 147.51162790697674,
          "velocity": 0.14960629921259844
        },
        {
          "duration": 0.2325581395348877,
          "durationTicks": 20,
          "midi": 55,
          "name": "G3",
          "ticks": 12687,
          "time": 147.52325581395348,
          "velocity": 0.33070866141732286
        },
        {
          "duration": 0.04651162790699459,
          "durationTicks": 4,
          "midi": 88,
          "name": "E6",
          "ticks": 12687,
          "time": 147.52325581395348,
          "velocity": 0.07874015748031496
        },
        {
          "duration": 0.05813953488373613,
          "durationTicks": 5,
          "midi": 91,
          "name": "G6",
          "ticks": 12687,
          "time": 147.52325581395348,
          "velocity": 0.12598425196850394
        },
        {
          "duration": 0.05813953488373613,
          "durationTicks": 5,
          "midi": 95,
          "name": "B6",
          "ticks": 12687,
          "time": 147.52325581395348,
          "velocity": 0.09448818897637795
        },
        {
          "duration": 0.05813953488373613,
          "durationTicks": 5,
          "midi": 99,
          "name": "D#7",
          "ticks": 12687,
          "time": 147.52325581395348,
          "velocity": 0.07086614173228346
        },
        {
          "duration": 0.023255813953483084,
          "durationTicks": 2,
          "midi": 47,
          "name": "B2",
          "ticks": 12688,
          "time": 147.53488372093022,
          "velocity": 0.49606299212598426
        },
        {
          "duration": 0.22093023255814614,
          "durationTicks": 19,
          "midi": 60,
          "name": "C4",
          "ticks": 12688,
          "time": 147.53488372093022,
          "velocity": 0.30708661417322836
        },
        {
          "duration": 0.04651162790699459,
          "durationTicks": 4,
          "midi": 74,
          "name": "D5",
          "ticks": 12688,
          "time": 147.53488372093022,
          "velocity": 0.14960629921259844
        },
        {
          "duration": 0.03488372093025305,
          "durationTicks": 3,
          "midi": 80,
          "name": "G#5",
          "ticks": 12688,
          "time": 147.53488372093022,
          "velocity": 0.07086614173228346
        },
        {
          "duration": 0.04651162790699459,
          "durationTicks": 4,
          "midi": 37,
          "name": "C#2",
          "ticks": 12689,
          "time": 147.54651162790697,
          "velocity": 0.4409448818897638
        },
        {
          "duration": 0.03488372093025305,
          "durationTicks": 3,
          "midi": 48,
          "name": "C3",
          "ticks": 12690,
          "time": 147.5581395348837,
          "velocity": 0.4251968503937008
        },
        {
          "duration": 0.09302325581393234,
          "durationTicks": 8,
          "midi": 74,
          "name": "D5",
          "ticks": 12693,
          "time": 147.59302325581396,
          "velocity": 0.10236220472440945
        },
        {
          "duration": 0.13953488372092693,
          "durationTicks": 12,
          "midi": 48,
          "name": "C3",
          "ticks": 12694,
          "time": 147.6046511627907,
          "velocity": 0.3858267716535433
        },
        {
          "duration": 0.06976744186044925,
          "durationTicks": 6,
          "midi": 36,
          "name": "C2",
          "ticks": 12695,
          "time": 147.61627906976744,
          "velocity": 0.3779527559055118
        },
        {
          "duration": 0.12790697674418539,
          "durationTicks": 11,
          "midi": 70,
          "name": "A#4",
          "ticks": 12697,
          "time": 147.63953488372093,
          "velocity": 0.25984251968503935
        },
        {
          "duration": 0.03488372093025305,
          "durationTicks": 3,
          "midi": 35,
          "name": "B1",
          "ticks": 12701,
          "time": 147.6860465116279,
          "velocity": 0.25984251968503935
        },
        {
          "duration": 0.04651162790696617,
          "durationTicks": 4,
          "midi": 36,
          "name": "C2",
          "ticks": 12704,
          "time": 147.72093023255815,
          "velocity": 0.3937007874015748
        },
        {
          "duration": 0.11627906976744384,
          "durationTicks": 10,
          "midi": 80,
          "name": "G#5",
          "ticks": 12707,
          "time": 147.75581395348837,
          "velocity": 0.23622047244094488
        },
        {
          "duration": 0.24418604651162923,
          "durationTicks": 21,
          "midi": 71,
          "name": "B4",
          "ticks": 12708,
          "time": 147.7674418604651,
          "velocity": 0.4409448818897638
        },
        {
          "duration": 0.34883720930233153,
          "durationTicks": 30,
          "midi": 76,
          "name": "E5",
          "ticks": 12708,
          "time": 147.7674418604651,
          "velocity": 0.2755905511811024
        },
        {
          "duration": 0.19767441860466306,
          "durationTicks": 17,
          "midi": 86,
          "name": "D6",
          "ticks": 12708,
          "time": 147.7674418604651,
          "velocity": 0.18110236220472442
        },
        {
          "duration": 0.18604651162792152,
          "durationTicks": 16,
          "midi": 95,
          "name": "B6",
          "ticks": 12708,
          "time": 147.7674418604651,
          "velocity": 0.14960629921259844
        },
        {
          "duration": 0.05813953488373613,
          "durationTicks": 5,
          "midi": 99,
          "name": "D#7",
          "ticks": 12708,
          "time": 147.7674418604651,
          "velocity": 0.14960629921259844
        },
        {
          "duration": 0.06976744186047767,
          "durationTicks": 6,
          "midi": 39,
          "name": "D#2",
          "ticks": 12709,
          "time": 147.77906976744185,
          "velocity": 0.4094488188976378
        },
        {
          "duration": 0.011627906976741542,
          "durationTicks": 1,
          "midi": 52,
          "name": "E3",
          "ticks": 12709,
          "time": 147.77906976744185,
          "velocity": 0.5196850393700787
        },
        {
          "duration": 0.023255813953483084,
          "durationTicks": 2,
          "midi": 57,
          "name": "A3",
          "ticks": 12709,
          "time": 147.77906976744185,
          "velocity": 0.36220472440944884
        },
        {
          "duration": 0.03488372093025305,
          "durationTicks": 3,
          "midi": 93,
          "name": "A6",
          "ticks": 12709,
          "time": 147.77906976744185,
          "velocity": 0.13385826771653545
        },
        {
          "duration": 0.023255813953511506,
          "durationTicks": 2,
          "midi": 51,
          "name": "D#3",
          "ticks": 12710,
          "time": 147.7906976744186,
          "velocity": 0.5590551181102362
        },
        {
          "duration": 0.22093023255814614,
          "durationTicks": 19,
          "midi": 90,
          "name": "F#6",
          "ticks": 12710,
          "time": 147.7906976744186,
          "velocity": 0.10236220472440945
        },
        {
          "duration": 0.03488372093025305,
          "durationTicks": 3,
          "midi": 84,
          "name": "C6",
          "ticks": 12711,
          "time": 147.80232558139534,
          "velocity": 0.10236220472440945
        },
        {
          "duration": 0.023255813953483084,
          "durationTicks": 2,
          "midi": 52,
          "name": "E3",
          "ticks": 12712,
          "time": 147.8139534883721,
          "velocity": 0.47244094488188976
        },
        {
          "duration": 0.04651162790696617,
          "durationTicks": 4,
          "midi": 57,
          "name": "A3",
          "ticks": 12712,
          "time": 147.8139534883721,
          "velocity": 0.30708661417322836
        },
        {
          "duration": 0.05813953488370771,
          "durationTicks": 5,
          "midi": 93,
          "name": "A6",
          "ticks": 12713,
          "time": 147.82558139534885,
          "velocity": 0.09448818897637795
        },
        {
          "duration": 0.023255813953483084,
          "durationTicks": 2,
          "midi": 51,
          "name": "D#3",
          "ticks": 12714,
          "time": 147.8372093023256,
          "velocity": 0.5196850393700787
        },
        {
          "duration": 0.06976744186044925,
          "durationTicks": 6,
          "midi": 38,
          "name": "D2",
          "ticks": 12715,
          "time": 147.84883720930233,
          "velocity": 0.3937007874015748
        },
        {
          "duration": 0.023255813953483084,
          "durationTicks": 2,
          "midi": 52,
          "name": "E3",
          "ticks": 12716,
          "time": 147.86046511627907,
          "velocity": 0.4094488188976378
        },
        {
          "duration": 0.09302325581396076,
          "durationTicks": 8,
          "midi": 69,
          "name": "A4",
          "ticks": 12716,
          "time": 147.86046511627907,
          "velocity": 0.10236220472440945
        },
        {
          "duration": 0.023255813953483084,
          "durationTicks": 2,
          "midi": 57,
          "name": "A3",
          "ticks": 12717,
          "time": 147.87209302325581,
          "velocity": 0.2755905511811024
        },
        {
          "duration": 0.034883720930224626,
          "durationTicks": 3,
          "midi": 51,
          "name": "D#3",
          "ticks": 12718,
          "time": 147.88372093023256,
          "velocity": 0.47244094488188976
        },
        {
          "duration": 0.04651162790699459,
          "durationTicks": 4,
          "midi": 80,
          "name": "G#5",
          "ticks": 12719,
          "time": 147.8953488372093,
          "velocity": 0.14960629921259844
        },
        {
          "duration": 0.023255813953483084,
          "durationTicks": 2,
          "midi": 57,
          "name": "A3",
          "ticks": 12720,
          "time": 147.90697674418604,
          "velocity": 0.25984251968503935
        },
        {
          "duration": 0.04651162790699459,
          "durationTicks": 4,
          "midi": 38,
          "name": "D2",
          "ticks": 12722,
          "time": 147.93023255813952,
          "velocity": 0.2677165354330709
        },
        {
          "duration": 0.034883720930224626,
          "durationTicks": 3,
          "midi": 51,
          "name": "D#3",
          "ticks": 12723,
          "time": 147.9418604651163,
          "velocity": 0.4409448818897638
        },
        {
          "duration": 0.24418604651162923,
          "durationTicks": 21,
          "midi": 69,
          "name": "A4",
          "ticks": 12725,
          "time": 147.96511627906978,
          "velocity": 0.23622047244094488
        },
        {
          "duration": 0.05813953488370771,
          "durationTicks": 5,
          "midi": 50,
          "name": "D3",
          "ticks": 12727,
          "time": 147.98837209302326,
          "velocity": 0.5039370078740157
        },
        {
          "duration": 0.08139534883721922,
          "durationTicks": 7,
          "midi": 93,
          "name": "A6",
          "ticks": 12727,
          "time": 147.98837209302326,
          "velocity": 0.13385826771653545
        },
        {
          "duration": 0.1046511627907023,
          "durationTicks": 9,
          "midi": 57,
          "name": "A3",
          "ticks": 12728,
          "time": 148,
          "velocity": 0.25984251968503935
        },
        {
          "duration": 0.04651162790696617,
          "durationTicks": 4,
          "midi": 80,
          "name": "G#5",
          "ticks": 12728,
          "time": 148,
          "velocity": 0.14960629921259844
        },
        {
          "duration": 0.04651162790696617,
          "durationTicks": 4,
          "midi": 84,
          "name": "C6",
          "ticks": 12728,
          "time": 148,
          "velocity": 0.07874015748031496
        },
        {
          "duration": 0.023255813953483084,
          "durationTicks": 2,
          "midi": 39,
          "name": "D#2",
          "ticks": 12729,
          "time": 148.01162790697674,
          "velocity": 0.4409448818897638
        },
        {
          "duration": 0.09302325581396076,
          "durationTicks": 8,
          "midi": 71,
          "name": "B4",
          "ticks": 12730,
          "time": 148.02325581395348,
          "velocity": 0.29133858267716534
        },
        {
          "duration": 0.09302325581396076,
          "durationTicks": 8,
          "midi": 38,
          "name": "D2",
          "ticks": 12731,
          "time": 148.03488372093022,
          "velocity": 0.4330708661417323
        },
        {
          "duration": 0.023255813953511506,
          "durationTicks": 2,
          "midi": 51,
          "name": "D#3",
          "ticks": 12732,
          "time": 148.04651162790697,
          "velocity": 0.47244094488188976
        },
        {
          "duration": 0.05813953488373613,
          "durationTicks": 5,
          "midi": 64,
          "name": "E4",
          "ticks": 12732,
          "time": 148.04651162790697,
          "velocity": 0.31496062992125984
        },
        {
          "duration": 0.04651162790696617,
          "durationTicks": 4,
          "midi": 80,
          "name": "G#5",
          "ticks": 12734,
          "time": 148.06976744186048,
          "velocity": 0.12598425196850394
        },
        {
          "duration": 0.023255813953483084,
          "durationTicks": 2,
          "midi": 50,
          "name": "D3",
          "ticks": 12736,
          "time": 148.09302325581396,
          "velocity": 0.5196850393700787
        },
        {
          "duration": 0.011627906976741542,
          "durationTicks": 1,
          "midi": 52,
          "name": "E3",
          "ticks": 12738,
          "time": 148.11627906976744,
          "velocity": 0.5354330708661418
        },
        {
          "duration": 0.3139534883720785,
          "durationTicks": 27,
          "midi": 72,
          "name": "C5",
          "ticks": 12738,
          "time": 148.11627906976744,
          "velocity": 0.4645669291338583
        },
        {
          "duration": 0.3604651162790731,
          "durationTicks": 31,
          "midi": 77,
          "name": "F5",
          "ticks": 12738,
          "time": 148.11627906976744,
          "velocity": 0.2677165354330709
        },
        {
          "duration": 0.12790697674418539,
          "durationTicks": 11,
          "midi": 91,
          "name": "G6",
          "ticks": 12738,
          "time": 148.11627906976744,
          "velocity": 0.14173228346456693
        },
        {
          "duration": 0.12790697674418539,
          "durationTicks": 11,
          "midi": 96,
          "name": "C7",
          "ticks": 12738,
          "time": 148.11627906976744,
          "velocity": 0.1732283464566929
        },
        {
          "duration": 0.05813953488370771,
          "durationTicks": 5,
          "midi": 100,
          "name": "E7",
          "ticks": 12738,
          "time": 148.11627906976744,
          "velocity": 0.14173228346456693
        },
        {
          "duration": 0.2093023255814046,
          "durationTicks": 18,
          "midi": 53,
          "name": "F3",
          "ticks": 12739,
          "time": 148.12790697674419,
          "velocity": 0.5433070866141733
        },
        {
          "duration": 0.08139534883721922,
          "durationTicks": 7,
          "midi": 87,
          "name": "D#6",
          "ticks": 12739,
          "time": 148.12790697674419,
          "velocity": 0.1732283464566929
        },
        {
          "duration": 0.023255813953483084,
          "durationTicks": 2,
          "midi": 37,
          "name": "C#2",
          "ticks": 12741,
          "time": 148.15116279069767,
          "velocity": 0.2755905511811024
        },
        {
          "duration": 0.034883720930224626,
          "durationTicks": 3,
          "midi": 62,
          "name": "D4",
          "ticks": 12741,
          "time": 148.15116279069767,
          "velocity": 0.1889763779527559
        },
        {
          "duration": 0.023255813953511506,
          "durationTicks": 2,
          "midi": 38,
          "name": "D2",
          "ticks": 12743,
          "time": 148.17441860465115,
          "velocity": 0.2992125984251969
        },
        {
          "duration": 0.2906976744185954,
          "durationTicks": 25,
          "midi": 85,
          "name": "C#6",
          "ticks": 12745,
          "time": 148.19767441860466,
          "velocity": 0.23622047244094488
        },
        {
          "duration": 0.22093023255811772,
          "durationTicks": 19,
          "midi": 45,
          "name": "A2",
          "ticks": 12746,
          "time": 148.2093023255814,
          "velocity": 0.49606299212598426
        },
        {
          "duration": 0.4534883720930054,
          "durationTicks": 39,
          "midi": 79,
          "name": "G5",
          "ticks": 12746,
          "time": 148.2093023255814,
          "velocity": 0.23622047244094488
        },
        {
          "duration": 0.06976744186044925,
          "durationTicks": 6,
          "midi": 83,
          "name": "B5",
          "ticks": 12746,
          "time": 148.2093023255814,
          "velocity": 0.11023622047244094
        },
        {
          "duration": 0.034883720930224626,
          "durationTicks": 3,
          "midi": 61,
          "name": "C#4",
          "ticks": 12747,
          "time": 148.22093023255815,
          "velocity": 0.2677165354330709
        },
        {
          "duration": 0.023255813953483084,
          "durationTicks": 2,
          "midi": 74,
          "name": "D5",
          "ticks": 12747,
          "time": 148.22093023255815,
          "velocity": 0.2283464566929134
        },
        {
          "duration": 0.17441860465115155,
          "durationTicks": 15,
          "midi": 75,
          "name": "D#5",
          "ticks": 12749,
          "time": 148.24418604651163,
          "velocity": 0.2204724409448819
        },
        {
          "duration": 0.08139534883721922,
          "durationTicks": 7,
          "midi": 96,
          "name": "C7",
          "ticks": 12750,
          "time": 148.25581395348837,
          "velocity": 0.12598425196850394
        },
        {
          "duration": 0.034883720930224626,
          "durationTicks": 3,
          "midi": 61,
          "name": "C#4",
          "ticks": 12751,
          "time": 148.2674418604651,
          "velocity": 0.2283464566929134
        },
        {
          "duration": 0.12790697674418539,
          "durationTicks": 11,
          "midi": 61,
          "name": "C#4",
          "ticks": 12755,
          "time": 148.3139534883721,
          "velocity": 0.1732283464566929
        },
        {
          "duration": 0.09302325581396076,
          "durationTicks": 8,
          "midi": 53,
          "name": "F3",
          "ticks": 12758,
          "time": 148.34883720930233,
          "velocity": 0.4015748031496063
        },
        {
          "duration": 0.023255813953511506,
          "durationTicks": 2,
          "midi": 44,
          "name": "G#2",
          "ticks": 12765,
          "time": 148.43023255813952,
          "velocity": 0.48031496062992124
        },
        {
          "duration": 0.023255813953511506,
          "durationTicks": 2,
          "midi": 68,
          "name": "G#4",
          "ticks": 12765,
          "time": 148.43023255813952,
          "velocity": 0.3779527559055118
        },
        {
          "duration": 0.19767441860466306,
          "durationTicks": 17,
          "midi": 93,
          "name": "A6",
          "ticks": 12765,
          "time": 148.43023255813952,
          "velocity": 0.13385826771653545
        },
        {
          "duration": 0.023255813953483084,
          "durationTicks": 2,
          "midi": 54,
          "name": "F#3",
          "ticks": 12766,
          "time": 148.4418604651163,
          "velocity": 0.44881889763779526
        },
        {
          "duration": 0.22093023255811772,
          "durationTicks": 19,
          "midi": 60,
          "name": "C4",
          "ticks": 12766,
          "time": 148.4418604651163,
          "velocity": 0.29133858267716534
        },
        {
          "duration": 0.16279069767441,
          "durationTicks": 14,
          "midi": 83,
          "name": "B5",
          "ticks": 12766,
          "time": 148.4418604651163,
          "velocity": 0.2204724409448819
        },
        {
          "duration": 0.05813953488370771,
          "durationTicks": 5,
          "midi": 84,
          "name": "C6",
          "ticks": 12766,
          "time": 148.4418604651163,
          "velocity": 0.11811023622047244
        },
        {
          "duration": 0.034883720930224626,
          "durationTicks": 3,
          "midi": 88,
          "name": "E6",
          "ticks": 12766,
          "time": 148.4418604651163,
          "velocity": 0.08661417322834646
        },
        {
          "duration": 0.023255813953483084,
          "durationTicks": 2,
          "midi": 47,
          "name": "B2",
          "ticks": 12767,
          "time": 148.45348837209303,
          "velocity": 0.5118110236220472
        },
        {
          "duration": 0.23255813953485927,
          "durationTicks": 20,
          "midi": 67,
          "name": "G4",
          "ticks": 12767,
          "time": 148.45348837209303,
          "velocity": 0.4094488188976378
        },
        {
          "duration": 0.05813953488370771,
          "durationTicks": 5,
          "midi": 82,
          "name": "A#5",
          "ticks": 12767,
          "time": 148.45348837209303,
          "velocity": 0.09448818897637795
        },
        {
          "duration": 0.04651162790696617,
          "durationTicks": 4,
          "midi": 37,
          "name": "C#2",
          "ticks": 12768,
          "time": 148.46511627906978,
          "velocity": 0.4566929133858268
        },
        {
          "duration": 0.19767441860463464,
          "durationTicks": 17,
          "midi": 70,
          "name": "A#4",
          "ticks": 12768,
          "time": 148.46511627906978,
          "velocity": 0.07874015748031496
        },
        {
          "duration": 0.16279069767441,
          "durationTicks": 14,
          "midi": 64,
          "name": "E4",
          "ticks": 12771,
          "time": 148.5,
          "velocity": 0.2047244094488189
        },
        {
          "duration": 0.1046511627907023,
          "durationTicks": 9,
          "midi": 36,
          "name": "C2",
          "ticks": 12772,
          "time": 148.51162790697674,
          "velocity": 0.3937007874015748
        },
        {
          "duration": 0.16279069767441,
          "durationTicks": 14,
          "midi": 48,
          "name": "C3",
          "ticks": 12773,
          "time": 148.52325581395348,
          "velocity": 0.5039370078740157
        },
        {
          "duration": 0.12790697674418539,
          "durationTicks": 11,
          "midi": 55,
          "name": "G3",
          "ticks": 12773,
          "time": 148.52325581395348,
          "velocity": 0.28346456692913385
        },
        {
          "duration": 0.16279069767441,
          "durationTicks": 14,
          "midi": 74,
          "name": "D5",
          "ticks": 12773,
          "time": 148.52325581395348,
          "velocity": 0.11023622047244094
        },
        {
          "duration": 0.023255813953483084,
          "durationTicks": 2,
          "midi": 35,
          "name": "B1",
          "ticks": 12781,
          "time": 148.61627906976744,
          "velocity": 0.25196850393700787
        },
        {
          "duration": 0.023255813953483084,
          "durationTicks": 2,
          "midi": 36,
          "name": "C2",
          "ticks": 12783,
          "time": 148.63953488372093,
          "velocity": 0.2677165354330709
        },
        {
          "duration": 0.19767441860466306,
          "durationTicks": 17,
          "midi": 57,
          "name": "A3",
          "ticks": 12786,
          "time": 148.67441860465115,
          "velocity": 0.3228346456692913
        },
        {
          "duration": 0.45348837209303383,
          "durationTicks": 39,
          "midi": 62,
          "name": "D4",
          "ticks": 12786,
          "time": 148.67441860465115,
          "velocity": 0.30708661417322836
        },
        {
          "duration": 0.22093023255814614,
          "durationTicks": 19,
          "midi": 72,
          "name": "C5",
          "ticks": 12786,
          "time": 148.67441860465115,
          "velocity": 0.14173228346456693
        },
        {
          "duration": 0.11627906976744384,
          "durationTicks": 10,
          "midi": 93,
          "name": "A6",
          "ticks": 12786,
          "time": 148.67441860465115,
          "velocity": 0.10236220472440945
        },
        {
          "duration": 0.45348837209303383,
          "durationTicks": 39,
          "midi": 66,
          "name": "F#4",
          "ticks": 12787,
          "time": 148.6860465116279,
          "velocity": 0.2755905511811024
        },
        {
          "duration": 0.023255813953483084,
          "durationTicks": 2,
          "midi": 38,
          "name": "D2",
          "ticks": 12788,
          "time": 148.69767441860466,
          "velocity": 0.4566929133858268
        },
        {
          "duration": 0.4302325581395223,
          "durationTicks": 37,
          "midi": 50,
          "name": "D3",
          "ticks": 12788,
          "time": 148.69767441860466,
          "velocity": 0.49606299212598426
        },
        {
          "duration": 0.04651162790696617,
          "durationTicks": 4,
          "midi": 39,
          "name": "D#2",
          "ticks": 12790,
          "time": 148.72093023255815,
          "velocity": 0.4094488188976378
        },
        {
          "duration": 0.09302325581396076,
          "durationTicks": 8,
          "midi": 76,
          "name": "E5",
          "ticks": 12790,
          "time": 148.72093023255815,
          "velocity": 0.08661417322834646
        },
        {
          "duration": 0.04651162790699459,
          "durationTicks": 4,
          "midi": 38,
          "name": "D2",
          "ticks": 12794,
          "time": 148.7674418604651,
          "velocity": 0.3543307086614173
        },
        {
          "duration": 0.05813953488373613,
          "durationTicks": 5,
          "midi": 79,
          "name": "G5",
          "ticks": 12795,
          "time": 148.77906976744185,
          "velocity": 0.14173228346456693
        },
        {
          "duration": 0.023255813953483084,
          "durationTicks": 2,
          "midi": 37,
          "name": "C#2",
          "ticks": 12798,
          "time": 148.8139534883721,
          "velocity": 0.2755905511811024
        },
        {
          "duration": 0.05813953488370771,
          "durationTicks": 5,
          "midi": 38,
          "name": "D2",
          "ticks": 12800,
          "time": 148.8372093023256,
          "velocity": 0.2677165354330709
        },
        {
          "duration": 0.023255813953483084,
          "durationTicks": 2,
          "midi": 40,
          "name": "E2",
          "ticks": 12806,
          "time": 148.90697674418604,
          "velocity": 0.44881889763779526
        },
        {
          "duration": 0.19767441860466306,
          "durationTicks": 17,
          "midi": 57,
          "name": "A3",
          "ticks": 12806,
          "time": 148.90697674418604,
          "velocity": 0.4094488188976378
        },
        {
          "duration": 0.03488372093025305,
          "durationTicks": 3,
          "midi": 80,
          "name": "G#5",
          "ticks": 12806,
          "time": 148.90697674418604,
          "velocity": 0.14960629921259844
        },
        {
          "duration": 0.08139534883721922,
          "durationTicks": 7,
          "midi": 90,
          "name": "F#6",
          "ticks": 12806,
          "time": 148.90697674418604,
          "velocity": 0.09448818897637795
        },
        {
          "duration": 0.22093023255814614,
          "durationTicks": 19,
          "midi": 72,
          "name": "C5",
          "ticks": 12807,
          "time": 148.91860465116278,
          "velocity": 0.13385826771653545
        },
        {
          "duration": 0.023255813953511506,
          "durationTicks": 2,
          "midi": 39,
          "name": "D#2",
          "ticks": 12808,
          "time": 148.93023255813952,
          "velocity": 0.4645669291338583
        },
        {
          "duration": 0.10465116279067388,
          "durationTicks": 9,
          "midi": 38,
          "name": "D2",
          "ticks": 12810,
          "time": 148.95348837209303,
          "velocity": 0.4409448818897638
        },
        {
          "duration": 0.05813953488370771,
          "durationTicks": 5,
          "midi": 38,
          "name": "D2",
          "ticks": 12820,
          "time": 149.06976744186048,
          "velocity": 0.29133858267716534
        },
        {
          "duration": 0.2674418604651123,
          "durationTicks": 23,
          "midi": 74,
          "name": "D5",
          "ticks": 12825,
          "time": 149.12790697674419,
          "velocity": 0.33070866141732286
        },
        {
          "duration": 0.18604651162792152,
          "durationTicks": 16,
          "midi": 71,
          "name": "B4",
          "ticks": 12826,
          "time": 149.13953488372093,
          "velocity": 0.12598425196850394
        },
        {
          "duration": 0.2325581395348877,
          "durationTicks": 20,
          "midi": 77,
          "name": "F5",
          "ticks": 12826,
          "time": 149.13953488372093,
          "velocity": 0.1889763779527559
        },
        {
          "duration": 0.18604651162792152,
          "durationTicks": 16,
          "midi": 81,
          "name": "A5",
          "ticks": 12826,
          "time": 149.13953488372093,
          "velocity": 0.14960629921259844
        },
        {
          "duration": 0.18604651162792152,
          "durationTicks": 16,
          "midi": 83,
          "name": "B5",
          "ticks": 12826,
          "time": 149.13953488372093,
          "velocity": 0.2047244094488189
        },
        {
          "duration": 0.13953488372092693,
          "durationTicks": 12,
          "midi": 90,
          "name": "F#6",
          "ticks": 12826,
          "time": 149.13953488372093,
          "velocity": 0.07874015748031496
        },
        {
          "duration": 0.19767441860466306,
          "durationTicks": 17,
          "midi": 62,
          "name": "D4",
          "ticks": 12827,
          "time": 149.15116279069767,
          "velocity": 0.18110236220472442
        },
        {
          "duration": 0.33720930232559,
          "durationTicks": 29,
          "midi": 85,
          "name": "C#6",
          "ticks": 12827,
          "time": 149.15116279069767,
          "velocity": 0.2125984251968504
        },
        {
          "duration": 0.19767441860466306,
          "durationTicks": 17,
          "midi": 55,
          "name": "G3",
          "ticks": 12828,
          "time": 149.1627906976744,
          "velocity": 0.4645669291338583
        },
        {
          "duration": 0.04651162790699459,
          "durationTicks": 4,
          "midi": 98,
          "name": "D7",
          "ticks": 12828,
          "time": 149.1627906976744,
          "velocity": 0.09448818897637795
        },
        {
          "duration": 0.023255813953483084,
          "durationTicks": 2,
          "midi": 43,
          "name": "G2",
          "ticks": 12832,
          "time": 149.2093023255814,
          "velocity": 0.3858267716535433
        },
        {
          "duration": 0.034883720930224626,
          "durationTicks": 3,
          "midi": 43,
          "name": "G2",
          "ticks": 12836,
          "time": 149.25581395348837,
          "velocity": 0.3543307086614173
        },
        {
          "duration": 0.04651162790699459,
          "durationTicks": 4,
          "midi": 43,
          "name": "G2",
          "ticks": 12840,
          "time": 149.30232558139534,
          "velocity": 0.33858267716535434
        },
        {
          "duration": 0.48837209302325846,
          "durationTicks": 42,
          "midi": 65,
          "name": "F4",
          "ticks": 12844,
          "time": 149.34883720930233,
          "velocity": 0.5275590551181102
        },
        {
          "duration": 0.04651162790696617,
          "durationTicks": 4,
          "midi": 83,
          "name": "B5",
          "ticks": 12844,
          "time": 149.34883720930233,
          "velocity": 0.14173228346456693
        },
        {
          "duration": 0.22093023255814614,
          "durationTicks": 19,
          "midi": 53,
          "name": "F3",
          "ticks": 12845,
          "time": 149.36046511627907,
          "velocity": 0.47244094488188976
        },
        {
          "duration": 0.2325581395348877,
          "durationTicks": 20,
          "midi": 60,
          "name": "C4",
          "ticks": 12845,
          "time": 149.36046511627907,
          "velocity": 0.31496062992125984
        },
        {
          "duration": 0.7093023255814046,
          "durationTicks": 61,
          "midi": 69,
          "name": "A4",
          "ticks": 12845,
          "time": 149.36046511627907,
          "velocity": 0.30708661417322836
        },
        {
          "duration": 0.04651162790696617,
          "durationTicks": 4,
          "midi": 42,
          "name": "F#2",
          "ticks": 12846,
          "time": 149.37209302325581,
          "velocity": 0.48031496062992124
        },
        {
          "duration": 0.04651162790696617,
          "durationTicks": 4,
          "midi": 87,
          "name": "D#6",
          "ticks": 12846,
          "time": 149.37209302325581,
          "velocity": 0.08661417322834646
        },
        {
          "duration": 0.04651162790696617,
          "durationTicks": 4,
          "midi": 96,
          "name": "C7",
          "ticks": 12847,
          "time": 149.38372093023256,
          "velocity": 0.12598425196850394
        },
        {
          "duration": 0.1046511627907023,
          "durationTicks": 9,
          "midi": 83,
          "name": "B5",
          "ticks": 12849,
          "time": 149.40697674418604,
          "velocity": 0.11811023622047244
        },
        {
          "duration": 0.09302325581396076,
          "durationTicks": 8,
          "midi": 41,
          "name": "F2",
          "ticks": 12850,
          "time": 149.41860465116278,
          "velocity": 0.3779527559055118
        },
        {
          "duration": 0.15116279069766847,
          "durationTicks": 13,
          "midi": 75,
          "name": "D#5",
          "ticks": 12852,
          "time": 149.4418604651163,
          "velocity": 0.13385826771653545
        },
        {
          "duration": 0.05813953488373613,
          "durationTicks": 5,
          "midi": 41,
          "name": "F2",
          "ticks": 12859,
          "time": 149.52325581395348,
          "velocity": 0.31496062992125984
        },
        {
          "duration": 0.09302325581393234,
          "durationTicks": 8,
          "midi": 93,
          "name": "A6",
          "ticks": 12864,
          "time": 149.58139534883722,
          "velocity": 0.2047244094488189
        },
        {
          "duration": 0.25581395348837077,
          "durationTicks": 22,
          "midi": 84,
          "name": "C6",
          "ticks": 12865,
          "time": 149.59302325581396,
          "velocity": 0.25984251968503935
        },
        {
          "duration": 0.05813953488370771,
          "durationTicks": 5,
          "midi": 90,
          "name": "F#6",
          "ticks": 12865,
          "time": 149.59302325581396,
          "velocity": 0.08661417322834646
        },
        {
          "duration": 0.05813953488370771,
          "durationTicks": 5,
          "midi": 99,
          "name": "D#7",
          "ticks": 12865,
          "time": 149.59302325581396,
          "velocity": 0.07086614173228346
        },
        {
          "duration": 0.1046511627907023,
          "durationTicks": 9,
          "midi": 101,
          "name": "F7",
          "ticks": 12865,
          "time": 149.59302325581396,
          "velocity": 0.09448818897637795
        },
        {
          "duration": 0.2093023255814046,
          "durationTicks": 18,
          "midi": 50,
          "name": "D3",
          "ticks": 12866,
          "time": 149.6046511627907,
          "velocity": 0.4645669291338583
        },
        {
          "duration": 0.19767441860463464,
          "durationTicks": 17,
          "midi": 57,
          "name": "A3",
          "ticks": 12866,
          "time": 149.6046511627907,
          "velocity": 0.30708661417322836
        },
        {
          "duration": 0.04651162790696617,
          "durationTicks": 4,
          "midi": 39,
          "name": "D#2",
          "ticks": 12867,
          "time": 149.61627906976744,
          "velocity": 0.4566929133858268
        },
        {
          "duration": 0.08139534883721922,
          "durationTicks": 7,
          "midi": 38,
          "name": "D2",
          "ticks": 12871,
          "time": 149.6627906976744,
          "velocity": 0.3858267716535433
        },
        {
          "duration": 0.04651162790699459,
          "durationTicks": 4,
          "midi": 93,
          "name": "A6",
          "ticks": 12873,
          "time": 149.6860465116279,
          "velocity": 0.14960629921259844
        },
        {
          "duration": 0.023255813953483084,
          "durationTicks": 2,
          "midi": 37,
          "name": "C#2",
          "ticks": 12878,
          "time": 149.74418604651163,
          "velocity": 0.2440944881889764
        },
        {
          "duration": 0.3604651162790731,
          "durationTicks": 31,
          "midi": 93,
          "name": "A6",
          "ticks": 12879,
          "time": 149.75581395348837,
          "velocity": 0.18110236220472442
        },
        {
          "duration": 0.023255813953483084,
          "durationTicks": 2,
          "midi": 38,
          "name": "D2",
          "ticks": 12880,
          "time": 149.7674418604651,
          "velocity": 0.2677165354330709
        },
        {
          "duration": 0.023255813953511506,
          "durationTicks": 2,
          "midi": 56,
          "name": "G#3",
          "ticks": 12883,
          "time": 149.80232558139534,
          "velocity": 0.25196850393700787
        },
        {
          "duration": 0.48837209302325846,
          "durationTicks": 42,
          "midi": 62,
          "name": "D4",
          "ticks": 12883,
          "time": 149.80232558139534,
          "velocity": 0.5511811023622047
        },
        {
          "duration": 0.23255813953485927,
          "durationTicks": 20,
          "midi": 50,
          "name": "D3",
          "ticks": 12885,
          "time": 149.82558139534885,
          "velocity": 0.5118110236220472
        },
        {
          "duration": 0.09302325581393234,
          "durationTicks": 8,
          "midi": 57,
          "name": "A3",
          "ticks": 12885,
          "time": 149.82558139534885,
          "velocity": 0.25196850393700787
        },
        {
          "duration": 0.10465116279067388,
          "durationTicks": 9,
          "midi": 72,
          "name": "C5",
          "ticks": 12885,
          "time": 149.82558139534885,
          "velocity": 0.15748031496062992
        },
        {
          "duration": 0.023255813953483084,
          "durationTicks": 2,
          "midi": 39,
          "name": "D#2",
          "ticks": 12886,
          "time": 149.8372093023256,
          "velocity": 0.4409448818897638
        },
        {
          "duration": 0.04651162790696617,
          "durationTicks": 4,
          "midi": 66,
          "name": "F#4",
          "ticks": 12886,
          "time": 149.8372093023256,
          "velocity": 0.33858267716535434
        },
        {
          "duration": 0.06976744186044925,
          "durationTicks": 6,
          "midi": 38,
          "name": "D2",
          "ticks": 12888,
          "time": 149.86046511627907,
          "velocity": 0.44881889763779526
        },
        {
          "duration": 0.03488372093025305,
          "durationTicks": 3,
          "midi": 80,
          "name": "G#5",
          "ticks": 12892,
          "time": 149.90697674418604,
          "velocity": 0.16535433070866143
        },
        {
          "duration": 0.06976744186047767,
          "durationTicks": 6,
          "midi": 85,
          "name": "C#6",
          "ticks": 12893,
          "time": 149.91860465116278,
          "velocity": 0.11023622047244094
        },
        {
          "duration": 0.03488372093025305,
          "durationTicks": 3,
          "midi": 40,
          "name": "E2",
          "ticks": 12894,
          "time": 149.93023255813952,
          "velocity": 0.47244094488188976
        },
        {
          "duration": 0.05813953488373613,
          "durationTicks": 5,
          "midi": 84,
          "name": "C6",
          "ticks": 12894,
          "time": 149.93023255813952,
          "velocity": 0.14173228346456693
        },
        {
          "duration": 0.26744186046514073,
          "durationTicks": 23,
          "midi": 90,
          "name": "F#6",
          "ticks": 12894,
          "time": 149.93023255813952,
          "velocity": 0.2047244094488189
        },
        {
          "duration": 0.11627906976741542,
          "durationTicks": 10,
          "midi": 72,
          "name": "C5",
          "ticks": 12895,
          "time": 149.9418604651163,
          "velocity": 0.2047244094488189
        },
        {
          "duration": 0.30232558139533694,
          "durationTicks": 26,
          "midi": 76,
          "name": "E5",
          "ticks": 12896,
          "time": 149.95348837209303,
          "velocity": 0.16535433070866143
        },
        {
          "duration": 0.10465116279067388,
          "durationTicks": 9,
          "midi": 80,
          "name": "G#5",
          "ticks": 12896,
          "time": 149.95348837209303,
          "velocity": 0.15748031496062992
        },
        {
          "duration": 0.023255813953483084,
          "durationTicks": 2,
          "midi": 39,
          "name": "D#2",
          "ticks": 12897,
          "time": 149.96511627906978,
          "velocity": 0.3858267716535433
        },
        {
          "duration": 0.0813953488371908,
          "durationTicks": 7,
          "midi": 57,
          "name": "A3",
          "ticks": 12897,
          "time": 149.96511627906978,
          "velocity": 0.2440944881889764
        },
        {
          "duration": 0.0813953488371908,
          "durationTicks": 7,
          "midi": 66,
          "name": "F#4",
          "ticks": 12898,
          "time": 149.97674418604652,
          "velocity": 0.14960629921259844
        },
        {
          "duration": 0.034883720930224626,
          "durationTicks": 3,
          "midi": 38,
          "name": "D2",
          "ticks": 12901,
          "time": 150.01162790697674,
          "velocity": 0.3228346456692913
        },
        {
          "duration": 0.4418604651162923,
          "durationTicks": 38,
          "midi": 85,
          "name": "C#6",
          "ticks": 12904,
          "time": 150.04651162790697,
          "velocity": 0.2283464566929134
        },
        {
          "duration": 0.023255813953511506,
          "durationTicks": 2,
          "midi": 57,
          "name": "A3",
          "ticks": 12905,
          "time": 150.0581395348837,
          "velocity": 0.25196850393700787
        },
        {
          "duration": 0.2093023255814046,
          "durationTicks": 18,
          "midi": 67,
          "name": "G4",
          "ticks": 12905,
          "time": 150.0581395348837,
          "velocity": 0.2204724409448819
        },
        {
          "duration": 0.03488372093025305,
          "durationTicks": 3,
          "midi": 77,
          "name": "F5",
          "ticks": 12905,
          "time": 150.0581395348837,
          "velocity": 0.1732283464566929
        },
        {
          "duration": 0.09302325581396076,
          "durationTicks": 8,
          "midi": 83,
          "name": "B5",
          "ticks": 12905,
          "time": 150.0581395348837,
          "velocity": 0.10236220472440945
        },
        {
          "duration": 0.04651162790699459,
          "durationTicks": 4,
          "midi": 84,
          "name": "C6",
          "ticks": 12905,
          "time": 150.0581395348837,
          "velocity": 0.07874015748031496
        },
        {
          "duration": 0.22093023255811772,
          "durationTicks": 19,
          "midi": 45,
          "name": "A2",
          "ticks": 12906,
          "time": 150.06976744186048,
          "velocity": 0.5275590551181102
        },
        {
          "duration": 0.034883720930224626,
          "durationTicks": 3,
          "midi": 52,
          "name": "E3",
          "ticks": 12911,
          "time": 150.12790697674419,
          "velocity": 0.25984251968503935
        },
        {
          "duration": 0.03488372093025305,
          "durationTicks": 3,
          "midi": 52,
          "name": "E3",
          "ticks": 12916,
          "time": 150.1860465116279,
          "velocity": 0.2204724409448819
        },
        {
          "duration": 0.034883720930224626,
          "durationTicks": 3,
          "midi": 52,
          "name": "E3",
          "ticks": 12920,
          "time": 150.2325581395349,
          "velocity": 0.2125984251968504
        },
        {
          "duration": 0.034883720930224626,
          "durationTicks": 3,
          "midi": 78,
          "name": "F#5",
          "ticks": 12923,
          "time": 150.2674418604651,
          "velocity": 0.11811023622047244
        },
        {
          "duration": 0.06976744186047767,
          "durationTicks": 6,
          "midi": 83,
          "name": "B5",
          "ticks": 12923,
          "time": 150.2674418604651,
          "velocity": 0.11023622047244094
        },
        {
          "duration": 0.08139534883721922,
          "durationTicks": 7,
          "midi": 91,
          "name": "G6",
          "ticks": 12923,
          "time": 150.2674418604651,
          "velocity": 0.1968503937007874
        },
        {
          "duration": 0.023255813953483084,
          "durationTicks": 2,
          "midi": 56,
          "name": "G#3",
          "ticks": 12924,
          "time": 150.27906976744185,
          "velocity": 0.3858267716535433
        },
        {
          "duration": 0.22093023255814614,
          "durationTicks": 19,
          "midi": 69,
          "name": "A4",
          "ticks": 12924,
          "time": 150.27906976744185,
          "velocity": 0.4645669291338583
        },
        {
          "duration": 0.13953488372092693,
          "durationTicks": 12,
          "midi": 88,
          "name": "E6",
          "ticks": 12924,
          "time": 150.27906976744185,
          "velocity": 0.16535433070866143
        },
        {
          "duration": 0.17441860465117998,
          "durationTicks": 15,
          "midi": 95,
          "name": "B6",
          "ticks": 12924,
          "time": 150.27906976744185,
          "velocity": 0.14173228346456693
        },
        {
          "duration": 0.04651162790699459,
          "durationTicks": 4,
          "midi": 60,
          "name": "C4",
          "ticks": 12925,
          "time": 150.2906976744186,
          "velocity": 0.30708661417322836
        },
        {
          "duration": 0.16279069767443843,
          "durationTicks": 14,
          "midi": 74,
          "name": "D5",
          "ticks": 12925,
          "time": 150.2906976744186,
          "velocity": 0.25196850393700787
        },
        {
          "duration": 0.03488372093025305,
          "durationTicks": 3,
          "midi": 55,
          "name": "G3",
          "ticks": 12926,
          "time": 150.30232558139534,
          "velocity": 0.33070866141732286
        },
        {
          "duration": 0.1860465116278931,
          "durationTicks": 16,
          "midi": 64,
          "name": "E4",
          "ticks": 12927,
          "time": 150.3139534883721,
          "velocity": 0.1889763779527559
        },
        {
          "duration": 0.13953488372092693,
          "durationTicks": 12,
          "midi": 78,
          "name": "F#5",
          "ticks": 12927,
          "time": 150.3139534883721,
          "velocity": 0.09448818897637795
        },
        {
          "duration": 0.034883720930224626,
          "durationTicks": 3,
          "midi": 37,
          "name": "C#2",
          "ticks": 12928,
          "time": 150.32558139534885,
          "velocity": 0.44881889763779526
        },
        {
          "duration": 0.17441860465115155,
          "durationTicks": 15,
          "midi": 48,
          "name": "C3",
          "ticks": 12930,
          "time": 150.34883720930233,
          "velocity": 0.4881889763779528
        },
        {
          "duration": 0.08139534883721922,
          "durationTicks": 7,
          "midi": 36,
          "name": "C2",
          "ticks": 12931,
          "time": 150.36046511627907,
          "velocity": 0.4015748031496063
        },
        {
          "duration": 0.04651162790696617,
          "durationTicks": 4,
          "midi": 91,
          "name": "G6",
          "ticks": 12931,
          "time": 150.36046511627907,
          "velocity": 0.12598425196850394
        },
        {
          "duration": 0.034883720930224626,
          "durationTicks": 3,
          "midi": 55,
          "name": "G3",
          "ticks": 12933,
          "time": 150.38372093023256,
          "velocity": 0.29133858267716534
        },
        {
          "duration": 0.023255813953511506,
          "durationTicks": 2,
          "midi": 56,
          "name": "G#3",
          "ticks": 12936,
          "time": 150.41860465116278,
          "velocity": 0.31496062992125984
        },
        {
          "duration": 0.04651162790699459,
          "durationTicks": 4,
          "midi": 67,
          "name": "G4",
          "ticks": 12936,
          "time": 150.41860465116278,
          "velocity": 0.11023622047244094
        },
        {
          "duration": 0.04651162790696617,
          "durationTicks": 4,
          "midi": 36,
          "name": "C2",
          "ticks": 12939,
          "time": 150.45348837209303,
          "velocity": 0.25984251968503935
        },
        {
          "duration": 0.034883720930224626,
          "durationTicks": 3,
          "midi": 56,
          "name": "G#3",
          "ticks": 12939,
          "time": 150.45348837209303,
          "velocity": 0.29133858267716534
        },
        {
          "duration": 0.034883720930224626,
          "durationTicks": 3,
          "midi": 55,
          "name": "G3",
          "ticks": 12943,
          "time": 150.5,
          "velocity": 0.33070866141732286
        },
        {
          "duration": 0.4418604651162923,
          "durationTicks": 38,
          "midi": 77,
          "name": "F5",
          "ticks": 12943,
          "time": 150.5,
          "velocity": 0.4566929133858268
        },
        {
          "duration": 0.034883720930224626,
          "durationTicks": 3,
          "midi": 85,
          "name": "C#6",
          "ticks": 12943,
          "time": 150.5,
          "velocity": 0.11811023622047244
        },
        {
          "duration": 0.4418604651162923,
          "durationTicks": 38,
          "midi": 62,
          "name": "D4",
          "ticks": 12944,
          "time": 150.51162790697674,
          "velocity": 0.30708661417322836
        },
        {
          "duration": 0.4651162790697754,
          "durationTicks": 40,
          "midi": 66,
          "name": "F#4",
          "ticks": 12944,
          "time": 150.51162790697674,
          "velocity": 0.2677165354330709
        },
        {
          "duration": 0.22093023255814614,
          "durationTicks": 19,
          "midi": 72,
          "name": "C5",
          "ticks": 12944,
          "time": 150.51162790697674,
          "velocity": 0.15748031496062992
        },
        {
          "duration": 0.11627906976744384,
          "durationTicks": 10,
          "midi": 93,
          "name": "A6",
          "ticks": 12944,
          "time": 150.51162790697674,
          "velocity": 0.13385826771653545
        },
        {
          "duration": 0.16279069767441,
          "durationTicks": 14,
          "midi": 96,
          "name": "C7",
          "ticks": 12944,
          "time": 150.51162790697674,
          "velocity": 0.23622047244094488
        },
        {
          "duration": 0.034883720930224626,
          "durationTicks": 3,
          "midi": 91,
          "name": "G6",
          "ticks": 12945,
          "time": 150.52325581395348,
          "velocity": 0.07086614173228346
        },
        {
          "duration": 0.4186046511628092,
          "durationTicks": 36,
          "midi": 50,
          "name": "D3",
          "ticks": 12946,
          "time": 150.53488372093022,
          "velocity": 0.49606299212598426
        },
        {
          "duration": 0.43023255813955075,
          "durationTicks": 37,
          "midi": 69,
          "name": "A4",
          "ticks": 12946,
          "time": 150.53488372093022,
          "velocity": 0.2204724409448819
        },
        {
          "duration": 0.023255813953511506,
          "durationTicks": 2,
          "midi": 38,
          "name": "D2",
          "ticks": 12947,
          "time": 150.54651162790697,
          "velocity": 0.41732283464566927
        },
        {
          "duration": 0.034883720930224626,
          "durationTicks": 3,
          "midi": 39,
          "name": "D#2",
          "ticks": 12949,
          "time": 150.56976744186048,
          "velocity": 0.3858267716535433
        },
        {
          "duration": 0.6046511627906739,
          "durationTicks": 52,
          "midi": 57,
          "name": "A3",
          "ticks": 12949,
          "time": 150.56976744186048,
          "velocity": 0.3779527559055118
        },
        {
          "duration": 0.09302325581393234,
          "durationTicks": 8,
          "midi": 80,
          "name": "G#5",
          "ticks": 12949,
          "time": 150.56976744186048,
          "velocity": 0.07086614173228346
        },
        {
          "duration": 0.034883720930224626,
          "durationTicks": 3,
          "midi": 38,
          "name": "D2",
          "ticks": 12952,
          "time": 150.6046511627907,
          "velocity": 0.3543307086614173
        },
        {
          "duration": 0.034883720930224626,
          "durationTicks": 3,
          "midi": 37,
          "name": "C#2",
          "ticks": 12955,
          "time": 150.63953488372093,
          "velocity": 0.2992125984251969
        },
        {
          "duration": 0.05813953488373613,
          "durationTicks": 5,
          "midi": 38,
          "name": "D2",
          "ticks": 12958,
          "time": 150.67441860465115,
          "velocity": 0.2755905511811024
        },
        {
          "duration": 0.12790697674418539,
          "durationTicks": 11,
          "midi": 80,
          "name": "G#5",
          "ticks": 12963,
          "time": 150.7325581395349,
          "velocity": 0.14960629921259844
        },
        {
          "duration": 0.023255813953483084,
          "durationTicks": 2,
          "midi": 40,
          "name": "E2",
          "ticks": 12964,
          "time": 150.74418604651163,
          "velocity": 0.44881889763779526
        },
        {
          "duration": 0.08139534883721922,
          "durationTicks": 7,
          "midi": 90,
          "name": "F#6",
          "ticks": 12964,
          "time": 150.74418604651163,
          "velocity": 0.09448818897637795
        },
        {
          "duration": 0.27906976744185386,
          "durationTicks": 24,
          "midi": 93,
          "name": "A6",
          "ticks": 12964,
          "time": 150.74418604651163,
          "velocity": 0.2047244094488189
        },
        {
          "duration": 0.11627906976744384,
          "durationTicks": 10,
          "midi": 72,
          "name": "C5",
          "ticks": 12965,
          "time": 150.75581395348837,
          "velocity": 0.2125984251968504
        },
        {
          "duration": 0.023255813953483084,
          "durationTicks": 2,
          "midi": 39,
          "name": "D#2",
          "ticks": 12966,
          "time": 150.7674418604651,
          "velocity": 0.4645669291338583
        },
        {
          "duration": 0.12790697674418539,
          "durationTicks": 11,
          "midi": 38,
          "name": "D2",
          "ticks": 12968,
          "time": 150.7906976744186,
          "velocity": 0.4409448818897638
        },
        {
          "duration": 0.32558139534882,
          "durationTicks": 28,
          "midi": 86,
          "name": "D6",
          "ticks": 12973,
          "time": 150.84883720930233,
          "velocity": 0.31496062992125984
        },
        {
          "duration": 0.15116279069766847,
          "durationTicks": 13,
          "midi": 102,
          "name": "F#7",
          "ticks": 12973,
          "time": 150.84883720930233,
          "velocity": 0.2755905511811024
        },
        {
          "duration": 0.5813953488372192,
          "durationTicks": 50,
          "midi": 74,
          "name": "D5",
          "ticks": 12974,
          "time": 150.86046511627907,
          "velocity": 0.4566929133858268
        },
        {
          "duration": 0.034883720930224626,
          "durationTicks": 3,
          "midi": 82,
          "name": "A#5",
          "ticks": 12974,
          "time": 150.86046511627907,
          "velocity": 0.11811023622047244
        },
        {
          "duration": 0.05813953488370771,
          "durationTicks": 5,
          "midi": 80,
          "name": "G#5",
          "ticks": 12975,
          "time": 150.87209302325581,
          "velocity": 0.07086614173228346
        },
        {
          "duration": 0.08139534883721922,
          "durationTicks": 7,
          "midi": 72,
          "name": "C5",
          "ticks": 12977,
          "time": 150.8953488372093,
          "velocity": 0.15748031496062992
        },
        {
          "duration": 0.023255813953511506,
          "durationTicks": 2,
          "midi": 38,
          "name": "D2",
          "ticks": 12980,
          "time": 150.93023255813952,
          "velocity": 0.2755905511811024
        },
        {
          "duration": 0.034883720930224626,
          "durationTicks": 3,
          "midi": 77,
          "name": "F5",
          "ticks": 12982,
          "time": 150.95348837209303,
          "velocity": 0.1968503937007874
        },
        {
          "duration": 0.25581395348837077,
          "durationTicks": 22,
          "midi": 85,
          "name": "C#6",
          "ticks": 12982,
          "time": 150.95348837209303,
          "velocity": 0.23622047244094488
        },
        {
          "duration": 0.22093023255811772,
          "durationTicks": 19,
          "midi": 45,
          "name": "A2",
          "ticks": 12983,
          "time": 150.96511627906978,
          "velocity": 0.49606299212598426
        },
        {
          "duration": 0.24418604651162923,
          "durationTicks": 21,
          "midi": 79,
          "name": "G5",
          "ticks": 12983,
          "time": 150.96511627906978,
          "velocity": 0.16535433070866143
        },
        {
          "duration": 0.09302325581393234,
          "durationTicks": 8,
          "midi": 83,
          "name": "B5",
          "ticks": 12983,
          "time": 150.96511627906978,
          "velocity": 0.10236220472440945
        },
        {
          "duration": 0.034883720930224626,
          "durationTicks": 3,
          "midi": 61,
          "name": "C#4",
          "ticks": 12984,
          "time": 150.97674418604652,
          "velocity": 0.2755905511811024
        },
        {
          "duration": 0.19767441860463464,
          "durationTicks": 17,
          "midi": 67,
          "name": "G4",
          "ticks": 12984,
          "time": 150.97674418604652,
          "velocity": 0.2204724409448819
        },
        {
          "duration": 0.12790697674418539,
          "durationTicks": 11,
          "midi": 76,
          "name": "E5",
          "ticks": 12987,
          "time": 151.01162790697674,
          "velocity": 0.07874015748031496
        },
        {
          "duration": 0.023255813953483084,
          "durationTicks": 2,
          "midi": 52,
          "name": "E3",
          "ticks": 12988,
          "time": 151.02325581395348,
          "velocity": 0.23622047244094488
        },
        {
          "duration": 0.034883720930224626,
          "durationTicks": 3,
          "midi": 61,
          "name": "C#4",
          "ticks": 12988,
          "time": 151.02325581395348,
          "velocity": 0.2283464566929134
        },
        {
          "duration": 0.034883720930224626,
          "durationTicks": 3,
          "midi": 52,
          "name": "E3",
          "ticks": 12992,
          "time": 151.06976744186048,
          "velocity": 0.2283464566929134
        },
        {
          "duration": 0.12790697674418539,
          "durationTicks": 11,
          "midi": 61,
          "name": "C#4",
          "ticks": 12992,
          "time": 151.06976744186048,
          "velocity": 0.1968503937007874
        },
        {
          "duration": 0.06976744186044925,
          "durationTicks": 6,
          "midi": 52,
          "name": "E3",
          "ticks": 12996,
          "time": 151.11627906976744,
          "velocity": 0.2125984251968504
        },
        {
          "duration": 0.023255813953511506,
          "durationTicks": 2,
          "midi": 44,
          "name": "G#2",
          "ticks": 13002,
          "time": 151.1860465116279,
          "velocity": 0.4645669291338583
        },
        {
          "duration": 0.6976744186046631,
          "durationTicks": 60,
          "midi": 69,
          "name": "A4",
          "ticks": 13002,
          "time": 151.1860465116279,
          "velocity": 0.5354330708661418
        },
        {
          "duration": 0.18604651162792152,
          "durationTicks": 16,
          "midi": 88,
          "name": "E6",
          "ticks": 13002,
          "time": 151.1860465116279,
          "velocity": 0.2125984251968504
        },
        {
          "duration": 0.23255813953485927,
          "durationTicks": 20,
          "midi": 55,
          "name": "G3",
          "ticks": 13003,
          "time": 151.19767441860466,
          "velocity": 0.33858267716535434
        },
        {
          "duration": 0.22093023255811772,
          "durationTicks": 19,
          "midi": 60,
          "name": "C4",
          "ticks": 13003,
          "time": 151.19767441860466,
          "velocity": 0.2755905511811024
        },
        {
          "duration": 0.034883720930224626,
          "durationTicks": 3,
          "midi": 84,
          "name": "C6",
          "ticks": 13003,
          "time": 151.19767441860466,
          "velocity": 0.07086614173228346
        },
        {
          "duration": 0.04651162790696617,
          "durationTicks": 4,
          "midi": 95,
          "name": "B6",
          "ticks": 13003,
          "time": 151.19767441860466,
          "velocity": 0.07874015748031496
        },
        {
          "duration": 0.023255813953483084,
          "durationTicks": 2,
          "midi": 47,
          "name": "B2",
          "ticks": 13004,
          "time": 151.2093023255814,
          "velocity": 0.47244094488188976
        },
        {
          "duration": 0.44186046511626387,
          "durationTicks": 38,
          "midi": 64,
          "name": "E4",
          "ticks": 13005,
          "time": 151.22093023255815,
          "velocity": 0.5275590551181102
        },
        {
          "duration": 0.034883720930224626,
          "durationTicks": 3,
          "midi": 78,
          "name": "F#5",
          "ticks": 13005,
          "time": 151.22093023255815,
          "velocity": 0.10236220472440945
        },
        {
          "duration": 0.2093023255814046,
          "durationTicks": 18,
          "midi": 48,
          "name": "C3",
          "ticks": 13006,
          "time": 151.2325581395349,
          "velocity": 0.5039370078740157
        },
        {
          "duration": 0.023255813953483084,
          "durationTicks": 2,
          "midi": 37,
          "name": "C#2",
          "ticks": 13007,
          "time": 151.24418604651163,
          "velocity": 0.4330708661417323
        },
        {
          "duration": 0.034883720930224626,
          "durationTicks": 3,
          "midi": 83,
          "name": "B5",
          "ticks": 13007,
          "time": 151.24418604651163,
          "velocity": 0.07086614173228346
        },
        {
          "duration": 0.09302325581396076,
          "durationTicks": 8,
          "midi": 36,
          "name": "C2",
          "ticks": 13009,
          "time": 151.2674418604651,
          "velocity": 0.4251968503937008
        },
        {
          "duration": 0.08139534883721922,
          "durationTicks": 7,
          "midi": 78,
          "name": "F#5",
          "ticks": 13009,
          "time": 151.2674418604651,
          "velocity": 0.07086614173228346
        },
        {
          "duration": 0.023255813953483084,
          "durationTicks": 2,
          "midi": 35,
          "name": "B1",
          "ticks": 13017,
          "time": 151.36046511627907,
          "velocity": 0.25196850393700787
        },
        {
          "duration": 0.034883720930224626,
          "durationTicks": 3,
          "midi": 36,
          "name": "C2",
          "ticks": 13019,
          "time": 151.38372093023256,
          "velocity": 0.2677165354330709
        },
        {
          "duration": 0.03488372093025305,
          "durationTicks": 3,
          "midi": 79,
          "name": "G5",
          "ticks": 13022,
          "time": 151.41860465116278,
          "velocity": 0.11023622047244094
        },
        {
          "duration": 0.2790697674418823,
          "durationTicks": 24,
          "midi": 83,
          "name": "B5",
          "ticks": 13022,
          "time": 151.41860465116278,
          "velocity": 0.25196850393700787
        },
        {
          "duration": 0.30232558139536536,
          "durationTicks": 26,
          "midi": 92,
          "name": "G#6",
          "ticks": 13022,
          "time": 151.41860465116278,
          "velocity": 0.14960629921259844
        },
        {
          "duration": 0.023255813953511506,
          "durationTicks": 2,
          "midi": 56,
          "name": "G#3",
          "ticks": 13023,
          "time": 151.43023255813952,
          "velocity": 0.3700787401574803
        },
        {
          "duration": 0.13953488372095535,
          "durationTicks": 12,
          "midi": 100,
          "name": "E7",
          "ticks": 13023,
          "time": 151.43023255813952,
          "velocity": 0.10236220472440945
        },
        {
          "duration": 0.20930232558137618,
          "durationTicks": 18,
          "midi": 72,
          "name": "C5",
          "ticks": 13024,
          "time": 151.4418604651163,
          "velocity": 0.2047244094488189
        },
        {
          "duration": 0.06976744186044925,
          "durationTicks": 6,
          "midi": 98,
          "name": "D7",
          "ticks": 13024,
          "time": 151.4418604651163,
          "velocity": 0.08661417322834646
        },
        {
          "duration": 0.023255813953483084,
          "durationTicks": 2,
          "midi": 38,
          "name": "D2",
          "ticks": 13025,
          "time": 151.45348837209303,
          "velocity": 0.4566929133858268
        },
        {
          "duration": 0.4186046511627808,
          "durationTicks": 36,
          "midi": 50,
          "name": "D3",
          "ticks": 13025,
          "time": 151.45348837209303,
          "velocity": 0.49606299212598426
        },
        {
          "duration": 0.3139534883720785,
          "durationTicks": 27,
          "midi": 57,
          "name": "A3",
          "ticks": 13025,
          "time": 151.45348837209303,
          "velocity": 0.4015748031496063
        },
        {
          "duration": 0.04651162790696617,
          "durationTicks": 4,
          "midi": 39,
          "name": "D#2",
          "ticks": 13027,
          "time": 151.47674418604652,
          "velocity": 0.4094488188976378
        },
        {
          "duration": 0.1046511627907023,
          "durationTicks": 9,
          "midi": 80,
          "name": "G#5",
          "ticks": 13028,
          "time": 151.48837209302326,
          "velocity": 0.07874015748031496
        },
        {
          "duration": 0.04651162790699459,
          "durationTicks": 4,
          "midi": 38,
          "name": "D2",
          "ticks": 13031,
          "time": 151.52325581395348,
          "velocity": 0.3543307086614173
        },
        {
          "duration": 0.023255813953483084,
          "durationTicks": 2,
          "midi": 37,
          "name": "C#2",
          "ticks": 13035,
          "time": 151.56976744186048,
          "velocity": 0.28346456692913385
        },
        {
          "duration": 0.05813953488370771,
          "durationTicks": 5,
          "midi": 38,
          "name": "D2",
          "ticks": 13037,
          "time": 151.59302325581396,
          "velocity": 0.2755905511811024
        },
        {
          "duration": 0.1046511627907023,
          "durationTicks": 9,
          "midi": 80,
          "name": "G#5",
          "ticks": 13042,
          "time": 151.65116279069767,
          "velocity": 0.14960629921259844
        },
        {
          "duration": 0.023255813953483084,
          "durationTicks": 2,
          "midi": 40,
          "name": "E2",
          "ticks": 13043,
          "time": 151.6627906976744,
          "velocity": 0.44881889763779526
        },
        {
          "duration": 0.023255813953483084,
          "durationTicks": 2,
          "midi": 66,
          "name": "F#4",
          "ticks": 13043,
          "time": 151.6627906976744,
          "velocity": 0.25984251968503935
        },
        {
          "duration": 0.08139534883721922,
          "durationTicks": 7,
          "midi": 90,
          "name": "F#6",
          "ticks": 13043,
          "time": 151.6627906976744,
          "velocity": 0.09448818897637795
        },
        {
          "duration": 0.1046511627907023,
          "durationTicks": 9,
          "midi": 93,
          "name": "A6",
          "ticks": 13043,
          "time": 151.6627906976744,
          "velocity": 0.12598425196850394
        },
        {
          "duration": 0.5232558139535115,
          "durationTicks": 45,
          "midi": 72,
          "name": "C5",
          "ticks": 13044,
          "time": 151.67441860465115,
          "velocity": 0.5039370078740157
        },
        {
          "duration": 0.023255813953511506,
          "durationTicks": 2,
          "midi": 39,
          "name": "D#2",
          "ticks": 13045,
          "time": 151.6860465116279,
          "velocity": 0.4645669291338583
        },
        {
          "duration": 0.1046511627907023,
          "durationTicks": 9,
          "midi": 38,
          "name": "D2",
          "ticks": 13047,
          "time": 151.7093023255814,
          "velocity": 0.4409448818897638
        },
        {
          "duration": 0.04651162790696617,
          "durationTicks": 4,
          "midi": 83,
          "name": "B5",
          "ticks": 13047,
          "time": 151.7093023255814,
          "velocity": 0.09448818897637795
        },
        {
          "duration": 0.034883720930224626,
          "durationTicks": 3,
          "midi": 66,
          "name": "F#4",
          "ticks": 13050,
          "time": 151.74418604651163,
          "velocity": 0.2440944881889764
        },
        {
          "duration": 0.16279069767441,
          "durationTicks": 14,
          "midi": 79,
          "name": "G5",
          "ticks": 13051,
          "time": 151.75581395348837,
          "velocity": 0.2440944881889764
        },
        {
          "duration": 0.33720930232559,
          "durationTicks": 29,
          "midi": 60,
          "name": "C4",
          "ticks": 13052,
          "time": 151.7674418604651,
          "velocity": 0.5118110236220472
        },
        {
          "duration": 0.08139534883721922,
          "durationTicks": 7,
          "midi": 94,
          "name": "A#6",
          "ticks": 13052,
          "time": 151.7674418604651,
          "velocity": 0.08661417322834646
        },
        {
          "duration": 0.1046511627907023,
          "durationTicks": 9,
          "midi": 66,
          "name": "F#4",
          "ticks": 13054,
          "time": 151.7906976744186,
          "velocity": 0.1968503937007874
        },
        {
          "duration": 0.04651162790696617,
          "durationTicks": 4,
          "midi": 38,
          "name": "D2",
          "ticks": 13057,
          "time": 151.82558139534885,
          "velocity": 0.28346456692913385
        },
        {
          "duration": 0.2906976744185954,
          "durationTicks": 25,
          "midi": 85,
          "name": "C#6",
          "ticks": 13061,
          "time": 151.87209302325581,
          "velocity": 0.23622047244094488
        },
        {
          "duration": 0.22093023255814614,
          "durationTicks": 19,
          "midi": 45,
          "name": "A2",
          "ticks": 13062,
          "time": 151.88372093023256,
          "velocity": 0.49606299212598426
        },
        {
          "duration": 0.034883720930224626,
          "durationTicks": 3,
          "midi": 77,
          "name": "F5",
          "ticks": 13062,
          "time": 151.88372093023256,
          "velocity": 0.14960629921259844
        },
        {
          "duration": 0.2093023255814046,
          "durationTicks": 18,
          "midi": 67,
          "name": "G4",
          "ticks": 13063,
          "time": 151.8953488372093,
          "velocity": 0.2204724409448819
        },
        {
          "duration": 0.08139534883721922,
          "durationTicks": 7,
          "midi": 83,
          "name": "B5",
          "ticks": 13063,
          "time": 151.8953488372093,
          "velocity": 0.09448818897637795
        },
        {
          "duration": 0.17441860465117998,
          "durationTicks": 15,
          "midi": 75,
          "name": "D#5",
          "ticks": 13065,
          "time": 151.91860465116278,
          "velocity": 0.2125984251968504
        },
        {
          "duration": 0.05813953488373613,
          "durationTicks": 5,
          "midi": 79,
          "name": "G5",
          "ticks": 13066,
          "time": 151.93023255813952,
          "velocity": 0.2204724409448819
        },
        {
          "duration": 0.023255813953483084,
          "durationTicks": 2,
          "midi": 52,
          "name": "E3",
          "ticks": 13067,
          "time": 151.9418604651163,
          "velocity": 0.2440944881889764
        },
        {
          "duration": 0.034883720930224626,
          "durationTicks": 3,
          "midi": 52,
          "name": "E3",
          "ticks": 13071,
          "time": 151.98837209302326,
          "velocity": 0.2283464566929134
        },
        {
          "duration": 0.05813953488373613,
          "durationTicks": 5,
          "midi": 52,
          "name": "E3",
          "ticks": 13075,
          "time": 152.03488372093022,
          "velocity": 0.2125984251968504
        },
        {
          "duration": 0.24418604651162923,
          "durationTicks": 21,
          "midi": 79,
          "name": "G5",
          "ticks": 13080,
          "time": 152.09302325581396,
          "velocity": 0.2440944881889764
        },
        {
          "duration": 0.023255813953483084,
          "durationTicks": 2,
          "midi": 44,
          "name": "G#2",
          "ticks": 13081,
          "time": 152.1046511627907,
          "velocity": 0.4645669291338583
        },
        {
          "duration": 0.034883720930224626,
          "durationTicks": 3,
          "midi": 68,
          "name": "G#4",
          "ticks": 13081,
          "time": 152.1046511627907,
          "velocity": 0.33070866141732286
        },
        {
          "duration": 0.22093023255814614,
          "durationTicks": 19,
          "midi": 60,
          "name": "C4",
          "ticks": 13082,
          "time": 152.11627906976744,
          "velocity": 0.31496062992125984
        },
        {
          "duration": 0.22093023255814614,
          "durationTicks": 19,
          "midi": 64,
          "name": "E4",
          "ticks": 13082,
          "time": 152.11627906976744,
          "velocity": 0.2047244094488189
        },
        {
          "duration": 0.034883720930224626,
          "durationTicks": 3,
          "midi": 77,
          "name": "F5",
          "ticks": 13082,
          "time": 152.11627906976744,
          "velocity": 0.14173228346456693
        },
        {
          "duration": 0.04651162790696617,
          "durationTicks": 4,
          "midi": 95,
          "name": "B6",
          "ticks": 13082,
          "time": 152.11627906976744,
          "velocity": 0.08661417322834646
        },
        {
          "duration": 0.023255813953483084,
          "durationTicks": 2,
          "midi": 47,
          "name": "B2",
          "ticks": 13083,
          "time": 152.12790697674419,
          "velocity": 0.49606299212598426
        },
        {
          "duration": 0.05813953488370771,
          "durationTicks": 5,
          "midi": 82,
          "name": "A#5",
          "ticks": 13083,
          "time": 152.12790697674419,
          "velocity": 0.07874015748031496
        },
        {
          "duration": 0.04651162790696617,
          "durationTicks": 4,
          "midi": 37,
          "name": "C#2",
          "ticks": 13084,
          "time": 152.13953488372093,
          "velocity": 0.4566929133858268
        },
        {
          "duration": 0.18604651162792152,
          "durationTicks": 16,
          "midi": 55,
          "name": "G3",
          "ticks": 13084,
          "time": 152.13953488372093,
          "velocity": 0.25196850393700787
        },
        {
          "duration": 0.19767441860466306,
          "durationTicks": 17,
          "midi": 70,
          "name": "A#4",
          "ticks": 13084,
          "time": 152.13953488372093,
          "velocity": 0.09448818897637795
        },
        {
          "duration": 0.19767441860466306,
          "durationTicks": 17,
          "midi": 74,
          "name": "D5",
          "ticks": 13084,
          "time": 152.13953488372093,
          "velocity": 0.12598425196850394
        },
        {
          "duration": 0.11627906976744384,
          "durationTicks": 10,
          "midi": 78,
          "name": "F#5",
          "ticks": 13085,
          "time": 152.15116279069767,
          "velocity": 0.11023622047244094
        },
        {
          "duration": 0.1046511627907023,
          "durationTicks": 9,
          "midi": 83,
          "name": "B5",
          "ticks": 13086,
          "time": 152.1627906976744,
          "velocity": 0.13385826771653545
        },
        {
          "duration": 0.1046511627907023,
          "durationTicks": 9,
          "midi": 36,
          "name": "C2",
          "ticks": 13088,
          "time": 152.1860465116279,
          "velocity": 0.4015748031496063
        },
        {
          "duration": 0.16279069767441,
          "durationTicks": 14,
          "midi": 48,
          "name": "C3",
          "ticks": 13089,
          "time": 152.19767441860466,
          "velocity": 0.49606299212598426
        },
        {
          "duration": 0.023255813953511506,
          "durationTicks": 2,
          "midi": 35,
          "name": "B1",
          "ticks": 13097,
          "time": 152.2906976744186,
          "velocity": 0.2440944881889764
        },
        {
          "duration": 0.023255813953483084,
          "durationTicks": 2,
          "midi": 36,
          "name": "C2",
          "ticks": 13099,
          "time": 152.3139534883721,
          "velocity": 0.2677165354330709
        },
        {
          "duration": 0.3953488372092977,
          "durationTicks": 34,
          "midi": 76,
          "name": "E5",
          "ticks": 13101,
          "time": 152.3372093023256,
          "velocity": 0.4645669291338583
        },
        {
          "duration": 0.09302325581393234,
          "durationTicks": 8,
          "midi": 84,
          "name": "C6",
          "ticks": 13101,
          "time": 152.3372093023256,
          "velocity": 0.13385826771653545
        },
        {
          "duration": 0.20930232558137618,
          "durationTicks": 18,
          "midi": 57,
          "name": "A3",
          "ticks": 13102,
          "time": 152.34883720930233,
          "velocity": 0.3464566929133858
        },
        {
          "duration": 0.4534883720930054,
          "durationTicks": 39,
          "midi": 66,
          "name": "F#4",
          "ticks": 13102,
          "time": 152.34883720930233,
          "velocity": 0.25196850393700787
        },
        {
          "duration": 0.20930232558137618,
          "durationTicks": 18,
          "midi": 72,
          "name": "C5",
          "ticks": 13102,
          "time": 152.34883720930233,
          "velocity": 0.15748031496062992
        },
        {
          "duration": 0.034883720930224626,
          "durationTicks": 3,
          "midi": 79,
          "name": "G5",
          "ticks": 13102,
          "time": 152.34883720930233,
          "velocity": 0.12598425196850394
        },
        {
          "duration": 0.11627906976744384,
          "durationTicks": 10,
          "midi": 93,
          "name": "A6",
          "ticks": 13102,
          "time": 152.34883720930233,
          "velocity": 0.10236220472440945
        },
        {
          "duration": 0.13953488372092693,
          "durationTicks": 12,
          "midi": 95,
          "name": "B6",
          "ticks": 13102,
          "time": 152.34883720930233,
          "velocity": 0.2204724409448819
        },
        {
          "duration": 0.023255813953483084,
          "durationTicks": 2,
          "midi": 77,
          "name": "F5",
          "ticks": 13103,
          "time": 152.36046511627907,
          "velocity": 0.2283464566929134
        },
        {
          "duration": 0.023255813953483084,
          "durationTicks": 2,
          "midi": 39,
          "name": "D#2",
          "ticks": 13104,
          "time": 152.37209302325581,
          "velocity": 0.48031496062992124
        },
        {
          "duration": 0.19767441860466306,
          "durationTicks": 17,
          "midi": 50,
          "name": "D3",
          "ticks": 13104,
          "time": 152.37209302325581,
          "velocity": 0.41732283464566927
        },
        {
          "duration": 0.023255813953483084,
          "durationTicks": 2,
          "midi": 38,
          "name": "D2",
          "ticks": 13106,
          "time": 152.3953488372093,
          "velocity": 0.3858267716535433
        },
        {
          "duration": 0.05813953488373613,
          "durationTicks": 5,
          "midi": 38,
          "name": "D2",
          "ticks": 13109,
          "time": 152.43023255813952,
          "velocity": 0.3464566929133858
        },
        {
          "duration": 0.023255813953483084,
          "durationTicks": 2,
          "midi": 37,
          "name": "C#2",
          "ticks": 13114,
          "time": 152.48837209302326,
          "velocity": 0.2755905511811024
        },
        {
          "duration": 0.034883720930224626,
          "durationTicks": 3,
          "midi": 38,
          "name": "D2",
          "ticks": 13116,
          "time": 152.51162790697674,
          "velocity": 0.25196850393700787
        },
        {
          "duration": 0.023255813953511506,
          "durationTicks": 2,
          "midi": 56,
          "name": "G#3",
          "ticks": 13120,
          "time": 152.5581395348837,
          "velocity": 0.2440944881889764
        },
        {
          "duration": 0.22093023255811772,
          "durationTicks": 19,
          "midi": 62,
          "name": "D4",
          "ticks": 13121,
          "time": 152.56976744186048,
          "velocity": 0.2283464566929134
        },
        {
          "duration": 0.0813953488371908,
          "durationTicks": 7,
          "midi": 93,
          "name": "A6",
          "ticks": 13121,
          "time": 152.56976744186048,
          "velocity": 0.13385826771653545
        },
        {
          "duration": 0.20930232558137618,
          "durationTicks": 18,
          "midi": 50,
          "name": "D3",
          "ticks": 13122,
          "time": 152.58139534883722,
          "velocity": 0.44881889763779526
        },
        {
          "duration": 0.22093023255811772,
          "durationTicks": 19,
          "midi": 57,
          "name": "A3",
          "ticks": 13122,
          "time": 152.58139534883722,
          "velocity": 0.25196850393700787
        },
        {
          "duration": 0.10465116279067388,
          "durationTicks": 9,
          "midi": 72,
          "name": "C5",
          "ticks": 13122,
          "time": 152.58139534883722,
          "velocity": 0.2992125984251969
        },
        {
          "duration": 0.034883720930224626,
          "durationTicks": 3,
          "midi": 39,
          "name": "D#2",
          "ticks": 13123,
          "time": 152.59302325581396,
          "velocity": 0.4330708661417323
        },
        {
          "duration": 0.06976744186047767,
          "durationTicks": 6,
          "midi": 38,
          "name": "D2",
          "ticks": 13126,
          "time": 152.62790697674419,
          "velocity": 0.4330708661417323
        },
        {
          "duration": 0.12790697674418539,
          "durationTicks": 11,
          "midi": 84,
          "name": "C6",
          "ticks": 13130,
          "time": 152.67441860465115,
          "velocity": 0.31496062992125984
        },
        {
          "duration": 0.17441860465117998,
          "durationTicks": 15,
          "midi": 100,
          "name": "E7",
          "ticks": 13130,
          "time": 152.67441860465115,
          "velocity": 0.2992125984251969
        },
        {
          "duration": 0.023255813953511506,
          "durationTicks": 2,
          "midi": 73,
          "name": "C#5",
          "ticks": 13131,
          "time": 152.6860465116279,
          "velocity": 0.4251968503937008
        },
        {
          "duration": 0.16279069767443843,
          "durationTicks": 14,
          "midi": 91,
          "name": "G6",
          "ticks": 13131,
          "time": 152.6860465116279,
          "velocity": 0.2440944881889764
        },
        {
          "duration": 0.04651162790696617,
          "durationTicks": 4,
          "midi": 37,
          "name": "C#2",
          "ticks": 13132,
          "time": 152.69767441860466,
          "velocity": 0.2755905511811024
        },
        {
          "duration": 0.32558139534882,
          "durationTicks": 28,
          "midi": 72,
          "name": "C5",
          "ticks": 13132,
          "time": 152.69767441860466,
          "velocity": 0.4645669291338583
        },
        {
          "duration": 0.04651162790696617,
          "durationTicks": 4,
          "midi": 38,
          "name": "D2",
          "ticks": 13136,
          "time": 152.74418604651163,
          "velocity": 0.29133858267716534
        },
        {
          "duration": 0.11627906976744384,
          "durationTicks": 10,
          "midi": 74,
          "name": "D5",
          "ticks": 13141,
          "time": 152.80232558139534,
          "velocity": 0.31496062992125984
        },
        {
          "duration": 0.11627906976744384,
          "durationTicks": 10,
          "midi": 77,
          "name": "F5",
          "ticks": 13141,
          "time": 152.80232558139534,
          "velocity": 0.1968503937007874
        },
        {
          "duration": 0.11627906976744384,
          "durationTicks": 10,
          "midi": 81,
          "name": "A5",
          "ticks": 13141,
          "time": 152.80232558139534,
          "velocity": 0.15748031496062992
        },
        {
          "duration": 0.12790697674418539,
          "durationTicks": 11,
          "midi": 83,
          "name": "B5",
          "ticks": 13141,
          "time": 152.80232558139534,
          "velocity": 0.2283464566929134
        },
        {
          "duration": 0.023255813953511506,
          "durationTicks": 2,
          "midi": 85,
          "name": "C#6",
          "ticks": 13141,
          "time": 152.80232558139534,
          "velocity": 0.2440944881889764
        },
        {
          "duration": 0.11627906976744384,
          "durationTicks": 10,
          "midi": 90,
          "name": "F#6",
          "ticks": 13141,
          "time": 152.80232558139534,
          "velocity": 0.07874015748031496
        },
        {
          "duration": 0.10465116279067388,
          "durationTicks": 9,
          "midi": 62,
          "name": "D4",
          "ticks": 13142,
          "time": 152.8139534883721,
          "velocity": 0.1968503937007874
        },
        {
          "duration": 0.12790697674418539,
          "durationTicks": 11,
          "midi": 67,
          "name": "G4",
          "ticks": 13142,
          "time": 152.8139534883721,
          "velocity": 0.23622047244094488
        },
        {
          "duration": 0.0813953488371908,
          "durationTicks": 7,
          "midi": 55,
          "name": "G3",
          "ticks": 13143,
          "time": 152.82558139534885,
          "velocity": 0.44881889763779526
        },
        {
          "duration": 0.034883720930224626,
          "durationTicks": 3,
          "midi": 98,
          "name": "D7",
          "ticks": 13143,
          "time": 152.82558139534885,
          "velocity": 0.08661417322834646
        },
        {
          "duration": 0.034883720930224626,
          "durationTicks": 3,
          "midi": 43,
          "name": "G2",
          "ticks": 13147,
          "time": 152.87209302325581,
          "velocity": 0.3858267716535433
        },
        {
          "duration": 0.023255813953483084,
          "durationTicks": 2,
          "midi": 56,
          "name": "G#3",
          "ticks": 13150,
          "time": 152.90697674418604,
          "velocity": 0.25984251968503935
        },
        {
          "duration": 0.023255813953511506,
          "durationTicks": 2,
          "midi": 60,
          "name": "C4",
          "ticks": 13151,
          "time": 152.91860465116278,
          "velocity": 0.23622047244094488
        },
        {
          "duration": 0.11627906976744384,
          "durationTicks": 10,
          "midi": 76,
          "name": "E5",
          "ticks": 13151,
          "time": 152.91860465116278,
          "velocity": 0.2047244094488189
        },
        {
          "duration": 0.1046511627907023,
          "durationTicks": 9,
          "midi": 80,
          "name": "G#5",
          "ticks": 13151,
          "time": 152.91860465116278,
          "velocity": 0.12598425196850394
        },
        {
          "duration": 0.1511627906976969,
          "durationTicks": 13,
          "midi": 82,
          "name": "A#5",
          "ticks": 13151,
          "time": 152.91860465116278,
          "velocity": 0.2204724409448819
        },
        {
          "duration": 0.023255813953511506,
          "durationTicks": 2,
          "midi": 53,
          "name": "F3",
          "ticks": 13152,
          "time": 152.93023255813952,
          "velocity": 0.4409448818897638
        },
        {
          "duration": 0.13953488372095535,
          "durationTicks": 12,
          "midi": 92,
          "name": "G#6",
          "ticks": 13152,
          "time": 152.93023255813952,
          "velocity": 0.16535433070866143
        },
        {
          "duration": 0.0813953488371908,
          "durationTicks": 7,
          "midi": 61,
          "name": "C#4",
          "ticks": 13153,
          "time": 152.9418604651163,
          "velocity": 0.25984251968503935
        },
        {
          "duration": 0.0813953488371908,
          "durationTicks": 7,
          "midi": 66,
          "name": "F#4",
          "ticks": 13153,
          "time": 152.9418604651163,
          "velocity": 0.1968503937007874
        },
        {
          "duration": 0.04651162790696617,
          "durationTicks": 4,
          "midi": 97,
          "name": "C#7",
          "ticks": 13153,
          "time": 152.9418604651163,
          "velocity": 0.09448818897637795
        },
        {
          "duration": 0.0813953488371908,
          "durationTicks": 7,
          "midi": 54,
          "name": "F#3",
          "ticks": 13154,
          "time": 152.95348837209303,
          "velocity": 0.3937007874015748
        },
        {
          "duration": 0.023255813953483084,
          "durationTicks": 2,
          "midi": 42,
          "name": "F#2",
          "ticks": 13157,
          "time": 152.98837209302326,
          "velocity": 0.4251968503937008
        },
        {
          "duration": 0.034883720930224626,
          "durationTicks": 3,
          "midi": 70,
          "name": "A#4",
          "ticks": 13157,
          "time": 152.98837209302326,
          "velocity": 0.13385826771653545
        },
        {
          "duration": 0.06976744186047767,
          "durationTicks": 6,
          "midi": 89,
          "name": "F6",
          "ticks": 13158,
          "time": 153,
          "velocity": 0.08661417322834646
        },
        {
          "duration": 0.023255813953483084,
          "durationTicks": 2,
          "midi": 68,
          "name": "G#4",
          "ticks": 13159,
          "time": 153.01162790697674,
          "velocity": 0.3858267716535433
        },
        {
          "duration": 0.04651162790699459,
          "durationTicks": 4,
          "midi": 41,
          "name": "F2",
          "ticks": 13160,
          "time": 153.02325581395348,
          "velocity": 0.44881889763779526
        },
        {
          "duration": 0.023255813953483084,
          "durationTicks": 2,
          "midi": 58,
          "name": "A#3",
          "ticks": 13160,
          "time": 153.02325581395348,
          "velocity": 0.33858267716535434
        },
        {
          "duration": 0.25581395348837077,
          "durationTicks": 22,
          "midi": 79,
          "name": "G5",
          "ticks": 13160,
          "time": 153.02325581395348,
          "velocity": 0.30708661417322836
        },
        {
          "duration": 0.12790697674418539,
          "durationTicks": 11,
          "midi": 86,
          "name": "D6",
          "ticks": 13160,
          "time": 153.02325581395348,
          "velocity": 0.25196850393700787
        },
        {
          "duration": 0.03488372093025305,
          "durationTicks": 3,
          "midi": 51,
          "name": "D#3",
          "ticks": 13161,
          "time": 153.03488372093022,
          "velocity": 0.44881889763779526
        },
        {
          "duration": 0.023255813953483084,
          "durationTicks": 2,
          "midi": 64,
          "name": "E4",
          "ticks": 13161,
          "time": 153.03488372093022,
          "velocity": 0.29133858267716534
        },
        {
          "duration": 0.3139534883721069,
          "durationTicks": 27,
          "midi": 67,
          "name": "G4",
          "ticks": 13161,
          "time": 153.03488372093022,
          "velocity": 0.5354330708661418
        },
        {
          "duration": 0.06976744186047767,
          "durationTicks": 6,
          "midi": 72,
          "name": "C5",
          "ticks": 13161,
          "time": 153.03488372093022,
          "velocity": 0.2440944881889764
        },
        {
          "duration": 0.09302325581396076,
          "durationTicks": 8,
          "midi": 87,
          "name": "D#6",
          "ticks": 13161,
          "time": 153.03488372093022,
          "velocity": 0.07086614173228346
        },
        {
          "duration": 0.03488372093025305,
          "durationTicks": 3,
          "midi": 88,
          "name": "E6",
          "ticks": 13161,
          "time": 153.03488372093022,
          "velocity": 0.14173228346456693
        },
        {
          "duration": 0.09302325581396076,
          "durationTicks": 8,
          "midi": 95,
          "name": "B6",
          "ticks": 13161,
          "time": 153.03488372093022,
          "velocity": 0.08661417322834646
        },
        {
          "duration": 0.1046511627907023,
          "durationTicks": 9,
          "midi": 59,
          "name": "B3",
          "ticks": 13162,
          "time": 153.04651162790697,
          "velocity": 0.31496062992125984
        },
        {
          "duration": 0.0813953488371908,
          "durationTicks": 7,
          "midi": 40,
          "name": "E2",
          "ticks": 13164,
          "time": 153.06976744186048,
          "velocity": 0.44881889763779526
        },
        {
          "duration": 0.05813953488370771,
          "durationTicks": 5,
          "midi": 82,
          "name": "A#5",
          "ticks": 13166,
          "time": 153.09302325581396,
          "velocity": 0.15748031496062992
        },
        {
          "duration": 0.08139534883721922,
          "durationTicks": 7,
          "midi": 72,
          "name": "C5",
          "ticks": 13169,
          "time": 153.12790697674419,
          "velocity": 0.2204724409448819
        },
        {
          "duration": 0.08139534883721922,
          "durationTicks": 7,
          "midi": 93,
          "name": "A6",
          "ticks": 13171,
          "time": 153.15116279069767,
          "velocity": 0.13385826771653545
        },
        {
          "duration": 0.023255813953483084,
          "durationTicks": 2,
          "midi": 49,
          "name": "C#3",
          "ticks": 13172,
          "time": 153.1627906976744,
          "velocity": 0.41732283464566927
        },
        {
          "duration": 0.13953488372092693,
          "durationTicks": 12,
          "midi": 57,
          "name": "A3",
          "ticks": 13172,
          "time": 153.1627906976744,
          "velocity": 0.3228346456692913
        },
        {
          "duration": 0.06976744186047767,
          "durationTicks": 6,
          "midi": 62,
          "name": "D4",
          "ticks": 13172,
          "time": 153.1627906976744,
          "velocity": 0.2755905511811024
        },
        {
          "duration": 0.05813953488373613,
          "durationTicks": 5,
          "midi": 39,
          "name": "D#2",
          "ticks": 13173,
          "time": 153.17441860465115,
          "velocity": 0.4645669291338583
        },
        {
          "duration": 0.03488372093025305,
          "durationTicks": 3,
          "midi": 50,
          "name": "D3",
          "ticks": 13174,
          "time": 153.1860465116279,
          "velocity": 0.4566929133858268
        },
        {
          "duration": 0.04651162790696617,
          "durationTicks": 4,
          "midi": 76,
          "name": "E5",
          "ticks": 13175,
          "time": 153.19767441860466,
          "velocity": 0.09448818897637795
        },
        {
          "duration": 0.023255813953483084,
          "durationTicks": 2,
          "midi": 38,
          "name": "D2",
          "ticks": 13178,
          "time": 153.2325581395349,
          "velocity": 0.3700787401574803
        },
        {
          "duration": 0.25581395348837077,
          "durationTicks": 22,
          "midi": 50,
          "name": "D3",
          "ticks": 13178,
          "time": 153.2325581395349,
          "velocity": 0.4251968503937008
        },
        {
          "duration": 0.5116279069767415,
          "durationTicks": 44,
          "midi": 74,
          "name": "D5",
          "ticks": 13179,
          "time": 153.24418604651163,
          "velocity": 0.5118110236220472
        },
        {
          "duration": 0.38372093023255616,
          "durationTicks": 33,
          "midi": 81,
          "name": "A5",
          "ticks": 13179,
          "time": 153.24418604651163,
          "velocity": 0.28346456692913385
        },
        {
          "duration": 0.2674418604651123,
          "durationTicks": 23,
          "midi": 90,
          "name": "F#6",
          "ticks": 13179,
          "time": 153.24418604651163,
          "velocity": 0.15748031496062992
        },
        {
          "duration": 0.3604651162790731,
          "durationTicks": 31,
          "midi": 62,
          "name": "D4",
          "ticks": 13180,
          "time": 153.25581395348837,
          "velocity": 0.48031496062992124
        },
        {
          "duration": 0.06976744186047767,
          "durationTicks": 6,
          "midi": 85,
          "name": "C#6",
          "ticks": 13180,
          "time": 153.25581395348837,
          "velocity": 0.09448818897637795
        },
        {
          "duration": 0.023255813953483084,
          "durationTicks": 2,
          "midi": 40,
          "name": "E2",
          "ticks": 13181,
          "time": 153.2674418604651,
          "velocity": 0.4566929133858268
        },
        {
          "duration": 0.19767441860466306,
          "durationTicks": 17,
          "midi": 72,
          "name": "C5",
          "ticks": 13181,
          "time": 153.2674418604651,
          "velocity": 0.18110236220472442
        },
        {
          "duration": 0.09302325581396076,
          "durationTicks": 8,
          "midi": 76,
          "name": "E5",
          "ticks": 13182,
          "time": 153.27906976744185,
          "velocity": 0.07874015748031496
        },
        {
          "duration": 0.06976744186047767,
          "durationTicks": 6,
          "midi": 39,
          "name": "D#2",
          "ticks": 13183,
          "time": 153.2906976744186,
          "velocity": 0.4015748031496063
        },
        {
          "duration": 0.30232558139536536,
          "durationTicks": 26,
          "midi": 69,
          "name": "A4",
          "ticks": 13184,
          "time": 153.30232558139534,
          "velocity": 0.23622047244094488
        },
        {
          "duration": 0.04651162790696617,
          "durationTicks": 4,
          "midi": 38,
          "name": "D2",
          "ticks": 13189,
          "time": 153.36046511627907,
          "velocity": 0.29133858267716534
        },
        {
          "duration": 0.11627906976744384,
          "durationTicks": 10,
          "midi": 57,
          "name": "A3",
          "ticks": 13189,
          "time": 153.36046511627907,
          "velocity": 0.14960629921259844
        },
        {
          "duration": 0.38372093023255616,
          "durationTicks": 33,
          "midi": 66,
          "name": "F#4",
          "ticks": 13190,
          "time": 153.37209302325581,
          "velocity": 0.25984251968503935
        },
        {
          "duration": 0.03488372093025305,
          "durationTicks": 3,
          "midi": 38,
          "name": "D2",
          "ticks": 13195,
          "time": 153.43023255813952,
          "velocity": 0.23622047244094488
        },
        {
          "duration": 0.15116279069766847,
          "durationTicks": 13,
          "midi": 76,
          "name": "E5",
          "ticks": 13199,
          "time": 153.47674418604652,
          "velocity": 0.11811023622047244
        },
        {
          "duration": 0.11627906976744384,
          "durationTicks": 10,
          "midi": 50,
          "name": "D3",
          "ticks": 13201,
          "time": 153.5,
          "velocity": 0.4566929133858268
        },
        {
          "duration": 0.1046511627907023,
          "durationTicks": 9,
          "midi": 57,
          "name": "A3",
          "ticks": 13201,
          "time": 153.5,
          "velocity": 0.25984251968503935
        },
        {
          "duration": 0.11627906976744384,
          "durationTicks": 10,
          "midi": 72,
          "name": "C5",
          "ticks": 13201,
          "time": 153.5,
          "velocity": 0.2440944881889764
        },
        {
          "duration": 0.034883720930224626,
          "durationTicks": 3,
          "midi": 39,
          "name": "D#2",
          "ticks": 13202,
          "time": 153.51162790697674,
          "velocity": 0.4330708661417323
        },
        {
          "duration": 0.03488372093025305,
          "durationTicks": 3,
          "midi": 90,
          "name": "F#6",
          "ticks": 13204,
          "time": 153.53488372093022,
          "velocity": 0.11023622047244094
        },
        {
          "duration": 0.05813953488373613,
          "durationTicks": 5,
          "midi": 38,
          "name": "D2",
          "ticks": 13205,
          "time": 153.54651162790697,
          "velocity": 0.4251968503937008
        },
        {
          "duration": 0.023255813953483084,
          "durationTicks": 2,
          "midi": 58,
          "name": "A#3",
          "ticks": 13210,
          "time": 153.6046511627907,
          "velocity": 0.2755905511811024
        },
        {
          "duration": 0.40697674418603924,
          "durationTicks": 35,
          "midi": 82,
          "name": "A#5",
          "ticks": 13210,
          "time": 153.6046511627907,
          "velocity": 0.2440944881889764
        },
        {
          "duration": 0.04651162790696617,
          "durationTicks": 4,
          "midi": 90,
          "name": "F#6",
          "ticks": 13210,
          "time": 153.6046511627907,
          "velocity": 0.14173228346456693
        },
        {
          "duration": 0.023255813953483084,
          "durationTicks": 2,
          "midi": 41,
          "name": "F2",
          "ticks": 13211,
          "time": 153.61627906976744,
          "velocity": 0.4251968503937008
        },
        {
          "duration": 0.32558139534884845,
          "durationTicks": 28,
          "midi": 70,
          "name": "A#4",
          "ticks": 13211,
          "time": 153.61627906976744,
          "velocity": 0.44881889763779526
        },
        {
          "duration": 0.08139534883721922,
          "durationTicks": 7,
          "midi": 84,
          "name": "C6",
          "ticks": 13211,
          "time": 153.61627906976744,
          "velocity": 0.11023622047244094
        },
        {
          "duration": 0.13953488372092693,
          "durationTicks": 12,
          "midi": 96,
          "name": "C7",
          "ticks": 13211,
          "time": 153.61627906976744,
          "velocity": 0.1889763779527559
        },
        {
          "duration": 0.08139534883721922,
          "durationTicks": 7,
          "midi": 50,
          "name": "D3",
          "ticks": 13212,
          "time": 153.62790697674419,
          "velocity": 0.44881889763779526
        },
        {
          "duration": 0.034883720930224626,
          "durationTicks": 3,
          "midi": 89,
          "name": "F6",
          "ticks": 13212,
          "time": 153.62790697674419,
          "velocity": 0.09448818897637795
        },
        {
          "duration": 0.08139534883721922,
          "durationTicks": 7,
          "midi": 92,
          "name": "G#6",
          "ticks": 13212,
          "time": 153.62790697674419,
          "velocity": 0.14173228346456693
        },
        {
          "duration": 0.04651162790699459,
          "durationTicks": 4,
          "midi": 57,
          "name": "A3",
          "ticks": 13214,
          "time": 153.65116279069767,
          "velocity": 0.4094488188976378
        },
        {
          "duration": 0.05813953488373613,
          "durationTicks": 5,
          "midi": 80,
          "name": "G#5",
          "ticks": 13214,
          "time": 153.65116279069767,
          "velocity": 0.07874015748031496
        },
        {
          "duration": 0.023255813953483084,
          "durationTicks": 2,
          "midi": 38,
          "name": "D2",
          "ticks": 13218,
          "time": 153.69767441860466,
          "velocity": 0.3700787401574803
        },
        {
          "duration": 0.2325581395348877,
          "durationTicks": 20,
          "midi": 76,
          "name": "E5",
          "ticks": 13219,
          "time": 153.7093023255814,
          "velocity": 0.2047244094488189
        },
        {
          "duration": 0.25581395348837077,
          "durationTicks": 22,
          "midi": 79,
          "name": "G5",
          "ticks": 13219,
          "time": 153.7093023255814,
          "velocity": 0.16535433070866143
        },
        {
          "duration": 0.27906976744185386,
          "durationTicks": 24,
          "midi": 85,
          "name": "C#6",
          "ticks": 13219,
          "time": 153.7093023255814,
          "velocity": 0.25196850393700787
        },
        {
          "duration": 0.12790697674418539,
          "durationTicks": 11,
          "midi": 73,
          "name": "C#5",
          "ticks": 13220,
          "time": 153.72093023255815,
          "velocity": 0.12598425196850394
        },
        {
          "duration": 0.0813953488371908,
          "durationTicks": 7,
          "midi": 83,
          "name": "B5",
          "ticks": 13220,
          "time": 153.72093023255815,
          "velocity": 0.07874015748031496
        },
        {
          "duration": 0.22093023255814614,
          "durationTicks": 19,
          "midi": 45,
          "name": "A2",
          "ticks": 13221,
          "time": 153.7325581395349,
          "velocity": 0.5039370078740157
        },
        {
          "duration": 0.04651162790696617,
          "durationTicks": 4,
          "midi": 58,
          "name": "A#3",
          "ticks": 13221,
          "time": 153.7325581395349,
          "velocity": 0.3228346456692913
        },
        {
          "duration": 0.023255813953483084,
          "durationTicks": 2,
          "midi": 61,
          "name": "C#4",
          "ticks": 13221,
          "time": 153.7325581395349,
          "velocity": 0.28346456692913385
        },
        {
          "duration": 0.034883720930224626,
          "durationTicks": 3,
          "midi": 67,
          "name": "G4",
          "ticks": 13223,
          "time": 153.75581395348837,
          "velocity": 0.1968503937007874
        },
        {
          "duration": 0.034883720930224626,
          "durationTicks": 3,
          "midi": 75,
          "name": "D#5",
          "ticks": 13223,
          "time": 153.75581395348837,
          "velocity": 0.2047244094488189
        },
        {
          "duration": 0.04651162790696617,
          "durationTicks": 4,
          "midi": 92,
          "name": "G#6",
          "ticks": 13223,
          "time": 153.75581395348837,
          "velocity": 0.07874015748031496
        },
        {
          "duration": 0.03488372093025305,
          "durationTicks": 3,
          "midi": 61,
          "name": "C#4",
          "ticks": 13225,
          "time": 153.77906976744185,
          "velocity": 0.23622047244094488
        },
        {
          "duration": 0.16279069767443843,
          "durationTicks": 14,
          "midi": 58,
          "name": "A#3",
          "ticks": 13226,
          "time": 153.7906976744186,
          "velocity": 0.25196850393700787
        },
        {
          "duration": 0.13953488372095535,
          "durationTicks": 12,
          "midi": 67,
          "name": "G4",
          "ticks": 13227,
          "time": 153.80232558139534,
          "velocity": 0.15748031496062992
        },
        {
          "duration": 0.16279069767443843,
          "durationTicks": 14,
          "midi": 75,
          "name": "D#5",
          "ticks": 13227,
          "time": 153.80232558139534,
          "velocity": 0.1889763779527559
        },
        {
          "duration": 0.12790697674418539,
          "durationTicks": 11,
          "midi": 52,
          "name": "E3",
          "ticks": 13229,
          "time": 153.82558139534885,
          "velocity": 0.4094488188976378
        },
        {
          "duration": 0.05813953488370771,
          "durationTicks": 5,
          "midi": 61,
          "name": "C#4",
          "ticks": 13229,
          "time": 153.82558139534885,
          "velocity": 0.18110236220472442
        },
        {
          "duration": 0.03488372093025305,
          "durationTicks": 3,
          "midi": 61,
          "name": "C#4",
          "ticks": 13237,
          "time": 153.91860465116278,
          "velocity": 0.25196850393700787
        },
        {
          "duration": 0.27906976744185386,
          "durationTicks": 24,
          "midi": 72,
          "name": "C5",
          "ticks": 13239,
          "time": 153.9418604651163,
          "velocity": 0.44881889763779526
        },
        {
          "duration": 0.034883720930224626,
          "durationTicks": 3,
          "midi": 89,
          "name": "F6",
          "ticks": 13239,
          "time": 153.9418604651163,
          "velocity": 0.11811023622047244
        },
        {
          "duration": 0.23255813953485927,
          "durationTicks": 20,
          "midi": 96,
          "name": "C7",
          "ticks": 13239,
          "time": 153.9418604651163,
          "velocity": 0.1889763779527559
        },
        {
          "duration": 0.011627906976741542,
          "durationTicks": 1,
          "midi": 51,
          "name": "D#3",
          "ticks": 13240,
          "time": 153.95348837209303,
          "velocity": 0.5275590551181102
        },
        {
          "duration": 0.22093023255811772,
          "durationTicks": 19,
          "midi": 60,
          "name": "C4",
          "ticks": 13240,
          "time": 153.95348837209303,
          "velocity": 0.3228346456692913
        },
        {
          "duration": 0.27906976744185386,
          "durationTicks": 24,
          "midi": 65,
          "name": "F4",
          "ticks": 13240,
          "time": 153.95348837209303,
          "velocity": 0.4645669291338583
        },
        {
          "duration": 0.04651162790696617,
          "durationTicks": 4,
          "midi": 88,
          "name": "E6",
          "ticks": 13240,
          "time": 153.95348837209303,
          "velocity": 0.07086614173228346
        },
        {
          "duration": 0.04651162790696617,
          "durationTicks": 4,
          "midi": 95,
          "name": "B6",
          "ticks": 13240,
          "time": 153.95348837209303,
          "velocity": 0.08661417322834646
        },
        {
          "duration": 0.05813953488370771,
          "durationTicks": 5,
          "midi": 100,
          "name": "E7",
          "ticks": 13240,
          "time": 153.95348837209303,
          "velocity": 0.14173228346456693
        },
        {
          "duration": 0.023255813953483084,
          "durationTicks": 2,
          "midi": 38,
          "name": "D2",
          "ticks": 13241,
          "time": 153.96511627906978,
          "velocity": 0.4409448818897638
        },
        {
          "duration": 0.011627906976741542,
          "durationTicks": 1,
          "midi": 48,
          "name": "C3",
          "ticks": 13241,
          "time": 153.96511627906978,
          "velocity": 0.5196850393700787
        },
        {
          "duration": 0.22093023255811772,
          "durationTicks": 19,
          "midi": 53,
          "name": "F3",
          "ticks": 13241,
          "time": 153.96511627906978,
          "velocity": 0.5511811023622047
        },
        {
          "duration": 0.034883720930224626,
          "durationTicks": 3,
          "midi": 74,
          "name": "D5",
          "ticks": 13241,
          "time": 153.96511627906978,
          "velocity": 0.15748031496062992
        },
        {
          "duration": 0.13953488372092693,
          "durationTicks": 12,
          "midi": 81,
          "name": "A5",
          "ticks": 13241,
          "time": 153.96511627906978,
          "velocity": 0.18110236220472442
        },
        {
          "duration": 0.034883720930224626,
          "durationTicks": 3,
          "midi": 37,
          "name": "C#2",
          "ticks": 13243,
          "time": 153.98837209302326,
          "velocity": 0.4330708661417323
        },
        {
          "duration": 0.034883720930224626,
          "durationTicks": 3,
          "midi": 70,
          "name": "A#4",
          "ticks": 13244,
          "time": 154,
          "velocity": 0.14173228346456693
        },
        {
          "duration": 0.09302325581396076,
          "durationTicks": 8,
          "midi": 36,
          "name": "C2",
          "ticks": 13246,
          "time": 154.02325581395348,
          "velocity": 0.41732283464566927
        },
        {
          "duration": 0.1046511627907023,
          "durationTicks": 9,
          "midi": 74,
          "name": "D5",
          "ticks": 13246,
          "time": 154.02325581395348,
          "velocity": 0.09448818897637795
        },
        {
          "duration": 0.18604651162792152,
          "durationTicks": 16,
          "midi": 91,
          "name": "G6",
          "ticks": 13246,
          "time": 154.02325581395348,
          "velocity": 0.12598425196850394
        },
        {
          "duration": 0.12790697674418539,
          "durationTicks": 11,
          "midi": 70,
          "name": "A#4",
          "ticks": 13248,
          "time": 154.04651162790697,
          "velocity": 0.08661417322834646
        },
        {
          "duration": 0.023255813953483084,
          "durationTicks": 2,
          "midi": 36,
          "name": "C2",
          "ticks": 13257,
          "time": 154.15116279069767,
          "velocity": 0.2755905511811024
        },
        {
          "duration": 0.04651162790699459,
          "durationTicks": 4,
          "midi": 48,
          "name": "C3",
          "ticks": 13257,
          "time": 154.15116279069767,
          "velocity": 0.5039370078740157
        },
        {
          "duration": 0.34883720930233153,
          "durationTicks": 30,
          "midi": 69,
          "name": "A4",
          "ticks": 13259,
          "time": 154.17441860465115,
          "velocity": 0.2440944881889764
        },
        {
          "duration": 0.5116279069767415,
          "durationTicks": 44,
          "midi": 74,
          "name": "D5",
          "ticks": 13259,
          "time": 154.17441860465115,
          "velocity": 0.4645669291338583
        },
        {
          "duration": 0.16279069767443843,
          "durationTicks": 14,
          "midi": 93,
          "name": "A6",
          "ticks": 13259,
          "time": 154.17441860465115,
          "velocity": 0.29133858267716534
        },
        {
          "duration": 0.1511627906976969,
          "durationTicks": 13,
          "midi": 102,
          "name": "F#7",
          "ticks": 13259,
          "time": 154.17441860465115,
          "velocity": 0.28346456692913385
        },
        {
          "duration": 0.2093023255814046,
          "durationTicks": 18,
          "midi": 62,
          "name": "D4",
          "ticks": 13260,
          "time": 154.1860465116279,
          "velocity": 0.28346456692913385
        },
        {
          "duration": 0.04651162790699459,
          "durationTicks": 4,
          "midi": 90,
          "name": "F#6",
          "ticks": 13260,
          "time": 154.1860465116279,
          "velocity": 0.08661417322834646
        },
        {
          "duration": 0.034883720930224626,
          "durationTicks": 3,
          "midi": 38,
          "name": "D2",
          "ticks": 13261,
          "time": 154.19767441860466,
          "velocity": 0.44881889763779526
        },
        {
          "duration": 0.023255813953483084,
          "durationTicks": 2,
          "midi": 57,
          "name": "A3",
          "ticks": 13261,
          "time": 154.19767441860466,
          "velocity": 0.31496062992125984
        },
        {
          "duration": 0.034883720930224626,
          "durationTicks": 3,
          "midi": 80,
          "name": "G#5",
          "ticks": 13261,
          "time": 154.19767441860466,
          "velocity": 0.09448818897637795
        },
        {
          "duration": 0.04651162790696617,
          "durationTicks": 4,
          "midi": 82,
          "name": "A#5",
          "ticks": 13261,
          "time": 154.19767441860466,
          "velocity": 0.11811023622047244
        },
        {
          "duration": 0.04651162790696617,
          "durationTicks": 4,
          "midi": 39,
          "name": "D#2",
          "ticks": 13264,
          "time": 154.2325581395349,
          "velocity": 0.4251968503937008
        },
        {
          "duration": 0.17441860465115155,
          "durationTicks": 15,
          "midi": 50,
          "name": "D3",
          "ticks": 13264,
          "time": 154.2325581395349,
          "velocity": 0.4251968503937008
        },
        {
          "duration": 0.16279069767441,
          "durationTicks": 14,
          "midi": 57,
          "name": "A3",
          "ticks": 13264,
          "time": 154.2325581395349,
          "velocity": 0.3228346456692913
        },
        {
          "duration": 0.4302325581395223,
          "durationTicks": 37,
          "midi": 66,
          "name": "F#4",
          "ticks": 13264,
          "time": 154.2325581395349,
          "velocity": 0.2755905511811024
        },
        {
          "duration": 0.09302325581396076,
          "durationTicks": 8,
          "midi": 76,
          "name": "E5",
          "ticks": 13264,
          "time": 154.2325581395349,
          "velocity": 0.11023622047244094
        },
        {
          "duration": 0.1046511627907023,
          "durationTicks": 9,
          "midi": 80,
          "name": "G#5",
          "ticks": 13265,
          "time": 154.24418604651163,
          "velocity": 0.07086614173228346
        },
        {
          "duration": 0.12790697674418539,
          "durationTicks": 11,
          "midi": 72,
          "name": "C5",
          "ticks": 13267,
          "time": 154.2674418604651,
          "velocity": 0.13385826771653545
        },
        {
          "duration": 0.03488372093025305,
          "durationTicks": 3,
          "midi": 38,
          "name": "D2",
          "ticks": 13268,
          "time": 154.27906976744185,
          "velocity": 0.3543307086614173
        },
        {
          "duration": 0.04651162790696617,
          "durationTicks": 4,
          "midi": 37,
          "name": "C#2",
          "ticks": 13271,
          "time": 154.3139534883721,
          "velocity": 0.30708661417322836
        },
        {
          "duration": 0.023255813953483084,
          "durationTicks": 2,
          "midi": 38,
          "name": "D2",
          "ticks": 13275,
          "time": 154.36046511627907,
          "velocity": 0.25196850393700787
        },
        {
          "duration": 0.023255813953483084,
          "durationTicks": 2,
          "midi": 56,
          "name": "G#3",
          "ticks": 13278,
          "time": 154.3953488372093,
          "velocity": 0.25196850393700787
        },
        {
          "duration": 0.15116279069766847,
          "durationTicks": 13,
          "midi": 76,
          "name": "E5",
          "ticks": 13278,
          "time": 154.3953488372093,
          "velocity": 0.12598425196850394
        },
        {
          "duration": 0.2325581395348877,
          "durationTicks": 20,
          "midi": 62,
          "name": "D4",
          "ticks": 13279,
          "time": 154.40697674418604,
          "velocity": 0.2283464566929134
        },
        {
          "duration": 0.08139534883721922,
          "durationTicks": 7,
          "midi": 93,
          "name": "A6",
          "ticks": 13279,
          "time": 154.40697674418604,
          "velocity": 0.15748031496062992
        },
        {
          "duration": 0.2093023255814046,
          "durationTicks": 18,
          "midi": 50,
          "name": "D3",
          "ticks": 13280,
          "time": 154.41860465116278,
          "velocity": 0.4566929133858268
        },
        {
          "duration": 0.2093023255814046,
          "durationTicks": 18,
          "midi": 57,
          "name": "A3",
          "ticks": 13280,
          "time": 154.41860465116278,
          "velocity": 0.25196850393700787
        },
        {
          "duration": 0.09302325581396076,
          "durationTicks": 8,
          "midi": 72,
          "name": "C5",
          "ticks": 13280,
          "time": 154.41860465116278,
          "velocity": 0.11023622047244094
        },
        {
          "duration": 0.03488372093025305,
          "durationTicks": 3,
          "midi": 39,
          "name": "D#2",
          "ticks": 13281,
          "time": 154.43023255813952,
          "velocity": 0.4330708661417323
        },
        {
          "duration": 0.05813953488370771,
          "durationTicks": 5,
          "midi": 38,
          "name": "D2",
          "ticks": 13284,
          "time": 154.46511627906978,
          "velocity": 0.4330708661417323
        },
        {
          "duration": 0.43023255813955075,
          "durationTicks": 37,
          "midi": 70,
          "name": "A#4",
          "ticks": 13289,
          "time": 154.52325581395348,
          "velocity": 0.5196850393700787
        },
        {
          "duration": 0.18604651162792152,
          "durationTicks": 16,
          "midi": 89,
          "name": "F6",
          "ticks": 13289,
          "time": 154.52325581395348,
          "velocity": 0.2440944881889764
        },
        {
          "duration": 0.05813953488370771,
          "durationTicks": 5,
          "midi": 38,
          "name": "D2",
          "ticks": 13293,
          "time": 154.56976744186048,
          "velocity": 0.29133858267716534
        },
        {
          "duration": 0.04651162790696617,
          "durationTicks": 4,
          "midi": 76,
          "name": "E5",
          "ticks": 13298,
          "time": 154.62790697674419,
          "velocity": 0.10236220472440945
        },
        {
          "duration": 0.2906976744185954,
          "durationTicks": 25,
          "midi": 85,
          "name": "C#6",
          "ticks": 13298,
          "time": 154.62790697674419,
          "velocity": 0.2283464566929134
        },
        {
          "duration": 0.22093023255814614,
          "durationTicks": 19,
          "midi": 79,
          "name": "G5",
          "ticks": 13299,
          "time": 154.63953488372093,
          "velocity": 0.16535433070866143
        },
        {
          "duration": 0.1046511627907023,
          "durationTicks": 9,
          "midi": 83,
          "name": "B5",
          "ticks": 13299,
          "time": 154.63953488372093,
          "velocity": 0.09448818897637795
        },
        {
          "duration": 0.05813953488373613,
          "durationTicks": 5,
          "midi": 84,
          "name": "C6",
          "ticks": 13299,
          "time": 154.63953488372093,
          "velocity": 0.11811023622047244
        },
        {
          "duration": 0.2093023255814046,
          "durationTicks": 18,
          "midi": 45,
          "name": "A2",
          "ticks": 13300,
          "time": 154.65116279069767,
          "velocity": 0.49606299212598426
        },
        {
          "duration": 0.19767441860466306,
          "durationTicks": 17,
          "midi": 67,
          "name": "G4",
          "ticks": 13301,
          "time": 154.6627906976744,
          "velocity": 0.2047244094488189
        },
        {
          "duration": 0.03488372093025305,
          "durationTicks": 3,
          "midi": 52,
          "name": "E3",
          "ticks": 13302,
          "time": 154.67441860465115,
          "velocity": 0.28346456692913385
        },
        {
          "duration": 0.17441860465117998,
          "durationTicks": 15,
          "midi": 61,
          "name": "C#4",
          "ticks": 13302,
          "time": 154.67441860465115,
          "velocity": 0.2440944881889764
        },
        {
          "duration": 0.13953488372092693,
          "durationTicks": 12,
          "midi": 52,
          "name": "E3",
          "ticks": 13306,
          "time": 154.72093023255815,
          "velocity": 0.2677165354330709
        },
        {
          "duration": 0.15116279069766847,
          "durationTicks": 13,
          "midi": 75,
          "name": "D#5",
          "ticks": 13307,
          "time": 154.7325581395349,
          "velocity": 0.18110236220472442
        },
        {
          "duration": 0.25581395348837077,
          "durationTicks": 22,
          "midi": 77,
          "name": "F5",
          "ticks": 13317,
          "time": 154.84883720930233,
          "velocity": 0.4881889763779528
        },
        {
          "duration": 0.24418604651162923,
          "durationTicks": 21,
          "midi": 65,
          "name": "F4",
          "ticks": 13318,
          "time": 154.86046511627907,
          "velocity": 0.5196850393700787
        },
        {
          "duration": 0.2674418604651123,
          "durationTicks": 23,
          "midi": 84,
          "name": "C6",
          "ticks": 13318,
          "time": 154.86046511627907,
          "velocity": 0.2755905511811024
        },
        {
          "duration": 0.34883720930233153,
          "durationTicks": 30,
          "midi": 93,
          "name": "A6",
          "ticks": 13318,
          "time": 154.86046511627907,
          "velocity": 0.15748031496062992
        },
        {
          "duration": 0.2093023255814046,
          "durationTicks": 18,
          "midi": 55,
          "name": "G3",
          "ticks": 13319,
          "time": 154.87209302325581,
          "velocity": 0.33070866141732286
        },
        {
          "duration": 0.04651162790696617,
          "durationTicks": 4,
          "midi": 88,
          "name": "E6",
          "ticks": 13319,
          "time": 154.87209302325581,
          "velocity": 0.08661417322834646
        },
        {
          "duration": 0.05813953488370771,
          "durationTicks": 5,
          "midi": 91,
          "name": "G6",
          "ticks": 13319,
          "time": 154.87209302325581,
          "velocity": 0.11811023622047244
        },
        {
          "duration": 0.05813953488370771,
          "durationTicks": 5,
          "midi": 95,
          "name": "B6",
          "ticks": 13319,
          "time": 154.87209302325581,
          "velocity": 0.08661417322834646
        },
        {
          "duration": 0.05813953488370771,
          "durationTicks": 5,
          "midi": 99,
          "name": "D#7",
          "ticks": 13319,
          "time": 154.87209302325581,
          "velocity": 0.07086614173228346
        },
        {
          "duration": 0.023255813953483084,
          "durationTicks": 2,
          "midi": 47,
          "name": "B2",
          "ticks": 13320,
          "time": 154.88372093023256,
          "velocity": 0.49606299212598426
        },
        {
          "duration": 0.19767441860466306,
          "durationTicks": 17,
          "midi": 60,
          "name": "C4",
          "ticks": 13320,
          "time": 154.88372093023256,
          "velocity": 0.30708661417322836
        },
        {
          "duration": 0.04651162790696617,
          "durationTicks": 4,
          "midi": 74,
          "name": "D5",
          "ticks": 13320,
          "time": 154.88372093023256,
          "velocity": 0.14173228346456693
        },
        {
          "duration": 0.034883720930224626,
          "durationTicks": 3,
          "midi": 80,
          "name": "G#5",
          "ticks": 13320,
          "time": 154.88372093023256,
          "velocity": 0.07874015748031496
        },
        {
          "duration": 0.04651162790699459,
          "durationTicks": 4,
          "midi": 37,
          "name": "C#2",
          "ticks": 13321,
          "time": 154.8953488372093,
          "velocity": 0.4409448818897638
        },
        {
          "duration": 0.17441860465117998,
          "durationTicks": 15,
          "midi": 48,
          "name": "C3",
          "ticks": 13322,
          "time": 154.90697674418604,
          "velocity": 0.4251968503937008
        },
        {
          "duration": 0.04651162790699459,
          "durationTicks": 4,
          "midi": 83,
          "name": "B5",
          "ticks": 13322,
          "time": 154.90697674418604,
          "velocity": 0.07086614173228346
        },
        {
          "duration": 0.10465116279067388,
          "durationTicks": 9,
          "midi": 74,
          "name": "D5",
          "ticks": 13325,
          "time": 154.9418604651163,
          "velocity": 0.11023622047244094
        },
        {
          "duration": 0.06976744186044925,
          "durationTicks": 6,
          "midi": 36,
          "name": "C2",
          "ticks": 13327,
          "time": 154.96511627906978,
          "velocity": 0.3779527559055118
        },
        {
          "duration": 0.1046511627907023,
          "durationTicks": 9,
          "midi": 70,
          "name": "A#4",
          "ticks": 13329,
          "time": 154.98837209302326,
          "velocity": 0.2283464566929134
        },
        {
          "duration": 0.03488372093025305,
          "durationTicks": 3,
          "midi": 35,
          "name": "B1",
          "ticks": 13333,
          "time": 155.03488372093022,
          "velocity": 0.25984251968503935
        },
        {
          "duration": 0.33720930232556157,
          "durationTicks": 29,
          "midi": 71,
          "name": "B4",
          "ticks": 13338,
          "time": 155.09302325581396,
          "velocity": 0.4409448818897638
        },
        {
          "duration": 0.32558139534882,
          "durationTicks": 28,
          "midi": 76,
          "name": "E5",
          "ticks": 13338,
          "time": 155.09302325581396,
          "velocity": 0.25984251968503935
        },
        {
          "duration": 0.1046511627907023,
          "durationTicks": 9,
          "midi": 80,
          "name": "G#5",
          "ticks": 13338,
          "time": 155.09302325581396,
          "velocity": 0.2283464566929134
        },
        {
          "duration": 0.19767441860463464,
          "durationTicks": 17,
          "midi": 86,
          "name": "D6",
          "ticks": 13338,
          "time": 155.09302325581396,
          "velocity": 0.18110236220472442
        },
        {
          "duration": 0.1860465116278931,
          "durationTicks": 16,
          "midi": 95,
          "name": "B6",
          "ticks": 13338,
          "time": 155.09302325581396,
          "velocity": 0.14960629921259844
        },
        {
          "duration": 0.06976744186044925,
          "durationTicks": 6,
          "midi": 99,
          "name": "D#7",
          "ticks": 13338,
          "time": 155.09302325581396,
          "velocity": 0.14173228346456693
        },
        {
          "duration": 0.011627906976741542,
          "durationTicks": 1,
          "midi": 52,
          "name": "E3",
          "ticks": 13339,
          "time": 155.1046511627907,
          "velocity": 0.5196850393700787
        },
        {
          "duration": 0.04651162790696617,
          "durationTicks": 4,
          "midi": 69,
          "name": "A4",
          "ticks": 13339,
          "time": 155.1046511627907,
          "velocity": 0.1968503937007874
        },
        {
          "duration": 0.011627906976741542,
          "durationTicks": 1,
          "midi": 51,
          "name": "D#3",
          "ticks": 13340,
          "time": 155.11627906976744,
          "velocity": 0.5669291338582677
        },
        {
          "duration": 0.33720930232559,
          "durationTicks": 29,
          "midi": 90,
          "name": "F#6",
          "ticks": 13340,
          "time": 155.11627906976744,
          "velocity": 0.18110236220472442
        },
        {
          "duration": 0.034883720930224626,
          "durationTicks": 3,
          "midi": 38,
          "name": "D2",
          "ticks": 13341,
          "time": 155.12790697674419,
          "velocity": 0.44881889763779526
        },
        {
          "duration": 0.034883720930224626,
          "durationTicks": 3,
          "midi": 52,
          "name": "E3",
          "ticks": 13341,
          "time": 155.12790697674419,
          "velocity": 0.5039370078740157
        },
        {
          "duration": 0.023255813953483084,
          "durationTicks": 2,
          "midi": 57,
          "name": "A3",
          "ticks": 13342,
          "time": 155.13953488372093,
          "velocity": 0.3228346456692913
        },
        {
          "duration": 0.023255813953483084,
          "durationTicks": 2,
          "midi": 51,
          "name": "D#3",
          "ticks": 13344,
          "time": 155.1627906976744,
          "velocity": 0.5118110236220472
        },
        {
          "duration": 0.04651162790699459,
          "durationTicks": 4,
          "midi": 69,
          "name": "A4",
          "ticks": 13344,
          "time": 155.1627906976744,
          "velocity": 0.11023622047244094
        },
        {
          "duration": 0.05813953488373613,
          "durationTicks": 5,
          "midi": 38,
          "name": "D2",
          "ticks": 13345,
          "time": 155.17441860465115,
          "velocity": 0.3228346456692913
        },
        {
          "duration": 0.023255813953483084,
          "durationTicks": 2,
          "midi": 57,
          "name": "A3",
          "ticks": 13347,
          "time": 155.19767441860466,
          "velocity": 0.2755905511811024
        },
        {
          "duration": 0.034883720930224626,
          "durationTicks": 3,
          "midi": 51,
          "name": "D#3",
          "ticks": 13348,
          "time": 155.2093023255814,
          "velocity": 0.47244094488188976
        },
        {
          "duration": 0.22093023255814614,
          "durationTicks": 19,
          "midi": 69,
          "name": "A4",
          "ticks": 13349,
          "time": 155.22093023255815,
          "velocity": 0.2204724409448819
        },
        {
          "duration": 0.04651162790696617,
          "durationTicks": 4,
          "midi": 80,
          "name": "G#5",
          "ticks": 13349,
          "time": 155.22093023255815,
          "velocity": 0.14960629921259844
        },
        {
          "duration": 0.034883720930224626,
          "durationTicks": 3,
          "midi": 37,
          "name": "C#2",
          "ticks": 13350,
          "time": 155.2325581395349,
          "velocity": 0.28346456692913385
        },
        {
          "duration": 0.023255813953483084,
          "durationTicks": 2,
          "midi": 57,
          "name": "A3",
          "ticks": 13350,
          "time": 155.2325581395349,
          "velocity": 0.23622047244094488
        },
        {
          "duration": 0.04651162790699459,
          "durationTicks": 4,
          "midi": 38,
          "name": "D2",
          "ticks": 13353,
          "time": 155.2674418604651,
          "velocity": 0.2755905511811024
        },
        {
          "duration": 0.034883720930224626,
          "durationTicks": 3,
          "midi": 51,
          "name": "D#3",
          "ticks": 13353,
          "time": 155.2674418604651,
          "velocity": 0.4409448818897638
        },
        {
          "duration": 0.04651162790699459,
          "durationTicks": 4,
          "midi": 80,
          "name": "G#5",
          "ticks": 13355,
          "time": 155.2906976744186,
          "velocity": 0.1889763779527559
        },
        {
          "duration": 0.11627906976744384,
          "durationTicks": 10,
          "midi": 57,
          "name": "A3",
          "ticks": 13356,
          "time": 155.30232558139534,
          "velocity": 0.3779527559055118
        },
        {
          "duration": 0.12790697674418539,
          "durationTicks": 11,
          "midi": 93,
          "name": "A6",
          "ticks": 13357,
          "time": 155.3139534883721,
          "velocity": 0.13385826771653545
        },
        {
          "duration": 0.023255813953483084,
          "durationTicks": 2,
          "midi": 40,
          "name": "E2",
          "ticks": 13358,
          "time": 155.32558139534885,
          "velocity": 0.44881889763779526
        },
        {
          "duration": 0.011627906976741542,
          "durationTicks": 1,
          "midi": 51,
          "name": "D#3",
          "ticks": 13358,
          "time": 155.32558139534885,
          "velocity": 0.5275590551181102
        },
        {
          "duration": 0.034883720930224626,
          "durationTicks": 3,
          "midi": 62,
          "name": "D4",
          "ticks": 13358,
          "time": 155.32558139534885,
          "velocity": 0.3464566929133858
        },
        {
          "duration": 0.034883720930224626,
          "durationTicks": 3,
          "midi": 50,
          "name": "D3",
          "ticks": 13359,
          "time": 155.3372093023256,
          "velocity": 0.5354330708661418
        },
        {
          "duration": 0.04651162790696617,
          "durationTicks": 4,
          "midi": 84,
          "name": "C6",
          "ticks": 13359,
          "time": 155.3372093023256,
          "velocity": 0.07874015748031496
        },
        {
          "duration": 0.023255813953483084,
          "durationTicks": 2,
          "midi": 39,
          "name": "D#2",
          "ticks": 13360,
          "time": 155.34883720930233,
          "velocity": 0.4645669291338583
        },
        {
          "duration": 0.034883720930224626,
          "durationTicks": 3,
          "midi": 64,
          "name": "E4",
          "ticks": 13360,
          "time": 155.34883720930233,
          "velocity": 0.33070866141732286
        },
        {
          "duration": 0.05813953488370771,
          "durationTicks": 5,
          "midi": 80,
          "name": "G#5",
          "ticks": 13361,
          "time": 155.36046511627907,
          "velocity": 0.18110236220472442
        },
        {
          "duration": 0.08139534883721922,
          "durationTicks": 7,
          "midi": 38,
          "name": "D2",
          "ticks": 13362,
          "time": 155.37209302325581,
          "velocity": 0.44881889763779526
        },
        {
          "duration": 0.3720930232558146,
          "durationTicks": 32,
          "midi": 65,
          "name": "F4",
          "ticks": 13366,
          "time": 155.41860465116278,
          "velocity": 0.4645669291338583
        },
        {
          "duration": 0.08139534883721922,
          "durationTicks": 7,
          "midi": 53,
          "name": "F3",
          "ticks": 13367,
          "time": 155.43023255813952,
          "velocity": 0.5433070866141733
        },
        {
          "duration": 0.34883720930233153,
          "durationTicks": 30,
          "midi": 72,
          "name": "C5",
          "ticks": 13367,
          "time": 155.43023255813952,
          "velocity": 0.4566929133858268
        },
        {
          "duration": 0.04651162790699459,
          "durationTicks": 4,
          "midi": 80,
          "name": "G#5",
          "ticks": 13367,
          "time": 155.43023255813952,
          "velocity": 0.13385826771653545
        },
        {
          "duration": 0.19767441860466306,
          "durationTicks": 17,
          "midi": 87,
          "name": "D#6",
          "ticks": 13367,
          "time": 155.43023255813952,
          "velocity": 0.16535433070866143
        },
        {
          "duration": 0.06976744186047767,
          "durationTicks": 6,
          "midi": 95,
          "name": "B6",
          "ticks": 13367,
          "time": 155.43023255813952,
          "velocity": 0.07086614173228346
        },
        {
          "duration": 0.2093023255814046,
          "durationTicks": 18,
          "midi": 96,
          "name": "C7",
          "ticks": 13367,
          "time": 155.43023255813952,
          "velocity": 0.1732283464566929
        },
        {
          "duration": 0.05813953488373613,
          "durationTicks": 5,
          "midi": 100,
          "name": "E7",
          "ticks": 13367,
          "time": 155.43023255813952,
          "velocity": 0.14173228346456693
        },
        {
          "duration": 0.11627906976744384,
          "durationTicks": 10,
          "midi": 69,
          "name": "A4",
          "ticks": 13369,
          "time": 155.45348837209303,
          "velocity": 0.08661417322834646
        },
        {
          "duration": 0.13953488372092693,
          "durationTicks": 12,
          "midi": 91,
          "name": "G6",
          "ticks": 13369,
          "time": 155.45348837209303,
          "velocity": 0.12598425196850394
        },
        {
          "duration": 0.034883720930224626,
          "durationTicks": 3,
          "midi": 62,
          "name": "D4",
          "ticks": 13370,
          "time": 155.46511627906978,
          "velocity": 0.2283464566929134
        },
        {
          "duration": 0.023255813953483084,
          "durationTicks": 2,
          "midi": 37,
          "name": "C#2",
          "ticks": 13371,
          "time": 155.47674418604652,
          "velocity": 0.2677165354330709
        },
        {
          "duration": 0.034883720930224626,
          "durationTicks": 3,
          "midi": 38,
          "name": "D2",
          "ticks": 13374,
          "time": 155.51162790697674,
          "velocity": 0.29133858267716534
        },
        {
          "duration": 0.04651162790699459,
          "durationTicks": 4,
          "midi": 53,
          "name": "F3",
          "ticks": 13375,
          "time": 155.52325581395348,
          "velocity": 0.44881889763779526
        },
        {
          "duration": 0.26744186046514073,
          "durationTicks": 23,
          "midi": 85,
          "name": "C#6",
          "ticks": 13377,
          "time": 155.54651162790697,
          "velocity": 0.2283464566929134
        },
        {
          "duration": 0.4418604651162923,
          "durationTicks": 38,
          "midi": 79,
          "name": "G5",
          "ticks": 13378,
          "time": 155.5581395348837,
          "velocity": 0.23622047244094488
        },
        {
          "duration": 0.22093023255811772,
          "durationTicks": 19,
          "midi": 45,
          "name": "A2",
          "ticks": 13379,
          "time": 155.56976744186048,
          "velocity": 0.5433070866141733
        },
        {
          "duration": 0.023255813953483084,
          "durationTicks": 2,
          "midi": 54,
          "name": "F#3",
          "ticks": 13379,
          "time": 155.56976744186048,
          "velocity": 0.36220472440944884
        },
        {
          "duration": 0.023255813953483084,
          "durationTicks": 2,
          "midi": 74,
          "name": "D5",
          "ticks": 13379,
          "time": 155.56976744186048,
          "velocity": 0.2283464566929134
        },
        {
          "duration": 0.0813953488371908,
          "durationTicks": 7,
          "midi": 83,
          "name": "B5",
          "ticks": 13379,
          "time": 155.56976744186048,
          "velocity": 0.11023622047244094
        },
        {
          "duration": 0.0813953488371908,
          "durationTicks": 7,
          "midi": 53,
          "name": "F3",
          "ticks": 13381,
          "time": 155.59302325581396,
          "velocity": 0.44881889763779526
        },
        {
          "duration": 0.1860465116278931,
          "durationTicks": 16,
          "midi": 61,
          "name": "C#4",
          "ticks": 13381,
          "time": 155.59302325581396,
          "velocity": 0.25196850393700787
        },
        {
          "duration": 0.16279069767441,
          "durationTicks": 14,
          "midi": 75,
          "name": "D#5",
          "ticks": 13381,
          "time": 155.59302325581396,
          "velocity": 0.2204724409448819
        },
        {
          "duration": 0.023255813953511506,
          "durationTicks": 2,
          "midi": 54,
          "name": "F#3",
          "ticks": 13388,
          "time": 155.67441860465115,
          "velocity": 0.2992125984251969
        },
        {
          "duration": 0.0813953488371908,
          "durationTicks": 7,
          "midi": 53,
          "name": "F3",
          "ticks": 13390,
          "time": 155.69767441860466,
          "velocity": 0.3937007874015748
        },
        {
          "duration": 0.17441860465117998,
          "durationTicks": 15,
          "midi": 83,
          "name": "B5",
          "ticks": 13396,
          "time": 155.7674418604651,
          "velocity": 0.2047244094488189
        },
        {
          "duration": 0.22093023255814614,
          "durationTicks": 19,
          "midi": 70,
          "name": "A#4",
          "ticks": 13397,
          "time": 155.77906976744185,
          "velocity": 0.11811023622047244
        },
        {
          "duration": 0.03488372093025305,
          "durationTicks": 3,
          "midi": 75,
          "name": "D#5",
          "ticks": 13397,
          "time": 155.77906976744185,
          "velocity": 0.10236220472440945
        },
        {
          "duration": 0.03488372093025305,
          "durationTicks": 3,
          "midi": 81,
          "name": "A5",
          "ticks": 13397,
          "time": 155.77906976744185,
          "velocity": 0.09448818897637795
        },
        {
          "duration": 0.03488372093025305,
          "durationTicks": 3,
          "midi": 88,
          "name": "E6",
          "ticks": 13397,
          "time": 155.77906976744185,
          "velocity": 0.11811023622047244
        },
        {
          "duration": 0.023255813953511506,
          "durationTicks": 2,
          "midi": 47,
          "name": "B2",
          "ticks": 13398,
          "time": 155.7906976744186,
          "velocity": 0.5196850393700787
        },
        {
          "duration": 0.023255813953511506,
          "durationTicks": 2,
          "midi": 55,
          "name": "G3",
          "ticks": 13398,
          "time": 155.7906976744186,
          "velocity": 0.4330708661417323
        },
        {
          "duration": 0.2093023255814046,
          "durationTicks": 18,
          "midi": 60,
          "name": "C4",
          "ticks": 13398,
          "time": 155.7906976744186,
          "velocity": 0.30708661417322836
        },
        {
          "duration": 0.17441860465117998,
          "durationTicks": 15,
          "midi": 93,
          "name": "A6",
          "ticks": 13398,
          "time": 155.7906976744186,
          "velocity": 0.13385826771653545
        },
        {
          "duration": 0.04651162790699459,
          "durationTicks": 4,
          "midi": 37,
          "name": "C#2",
          "ticks": 13399,
          "time": 155.80232558139534,
          "velocity": 0.4566929133858268
        },
        {
          "duration": 0.20930232558137618,
          "durationTicks": 18,
          "midi": 74,
          "name": "D5",
          "ticks": 13400,
          "time": 155.8139534883721,
          "velocity": 0.10236220472440945
        },
        {
          "duration": 0.16279069767441,
          "durationTicks": 14,
          "midi": 55,
          "name": "G3",
          "ticks": 13401,
          "time": 155.82558139534885,
          "velocity": 0.33858267716535434
        },
        {
          "duration": 0.04651162790696617,
          "durationTicks": 4,
          "midi": 89,
          "name": "F6",
          "ticks": 13401,
          "time": 155.82558139534885,
          "velocity": 0.11811023622047244
        },
        {
          "duration": 0.1046511627907023,
          "durationTicks": 9,
          "midi": 36,
          "name": "C2",
          "ticks": 13403,
          "time": 155.84883720930233,
          "velocity": 0.3937007874015748
        },
        {
          "duration": 0.17441860465115155,
          "durationTicks": 15,
          "midi": 48,
          "name": "C3",
          "ticks": 13403,
          "time": 155.84883720930233,
          "velocity": 0.5039370078740157
        },
        {
          "duration": 0.13953488372092693,
          "durationTicks": 12,
          "midi": 64,
          "name": "E4",
          "ticks": 13404,
          "time": 155.86046511627907,
          "velocity": 0.2047244094488189
        },
        {
          "duration": 0.023255813953483084,
          "durationTicks": 2,
          "midi": 35,
          "name": "B1",
          "ticks": 13412,
          "time": 155.95348837209303,
          "velocity": 0.2440944881889764
        },
        {
          "duration": 0.023255813953483084,
          "durationTicks": 2,
          "midi": 36,
          "name": "C2",
          "ticks": 13414,
          "time": 155.97674418604652,
          "velocity": 0.2677165354330709
        },
        {
          "duration": 0.04651162790696617,
          "durationTicks": 4,
          "midi": 78,
          "name": "F#5",
          "ticks": 13416,
          "time": 156,
          "velocity": 0.07086614173228346
        },
        {
          "duration": 0.19767441860466306,
          "durationTicks": 17,
          "midi": 57,
          "name": "A3",
          "ticks": 13417,
          "time": 156.01162790697674,
          "velocity": 0.3228346456692913
        },
        {
          "duration": 0.3139534883721069,
          "durationTicks": 27,
          "midi": 62,
          "name": "D4",
          "ticks": 13417,
          "time": 156.01162790697674,
          "velocity": 0.28346456692913385
        },
        {
          "duration": 0.27906976744185386,
          "durationTicks": 24,
          "midi": 72,
          "name": "C5",
          "ticks": 13417,
          "time": 156.01162790697674,
          "velocity": 0.14173228346456693
        },
        {
          "duration": 0.11627906976744384,
          "durationTicks": 10,
          "midi": 93,
          "name": "A6",
          "ticks": 13417,
          "time": 156.01162790697674,
          "velocity": 0.10236220472440945
        },
        {
          "duration": 0.034883720930224626,
          "durationTicks": 3,
          "midi": 38,
          "name": "D2",
          "ticks": 13418,
          "time": 156.02325581395348,
          "velocity": 0.4566929133858268
        },
        {
          "duration": 0.2906976744186238,
          "durationTicks": 25,
          "midi": 66,
          "name": "F#4",
          "ticks": 13418,
          "time": 156.02325581395348,
          "velocity": 0.23622047244094488
        },
        {
          "duration": 0.04651162790699459,
          "durationTicks": 4,
          "midi": 39,
          "name": "D#2",
          "ticks": 13421,
          "time": 156.0581395348837,
          "velocity": 0.4094488188976378
        },
        {
          "duration": 0.09302325581396076,
          "durationTicks": 8,
          "midi": 76,
          "name": "E5",
          "ticks": 13421,
          "time": 156.0581395348837,
          "velocity": 0.08661417322834646
        },
        {
          "duration": 0.04651162790696617,
          "durationTicks": 4,
          "midi": 38,
          "name": "D2",
          "ticks": 13425,
          "time": 156.1046511627907,
          "velocity": 0.3543307086614173
        },
        {
          "duration": 0.05813953488370771,
          "durationTicks": 5,
          "midi": 79,
          "name": "G5",
          "ticks": 13426,
          "time": 156.11627906976744,
          "velocity": 0.14173228346456693
        },
        {
          "duration": 0.023255813953483084,
          "durationTicks": 2,
          "midi": 37,
          "name": "C#2",
          "ticks": 13429,
          "time": 156.15116279069767,
          "velocity": 0.2755905511811024
        },
        {
          "duration": 0.12790697674418539,
          "durationTicks": 11,
          "midi": 38,
          "name": "D2",
          "ticks": 13431,
          "time": 156.17441860465115,
          "velocity": 0.28346456692913385
        },
        {
          "duration": 0.2674418604651123,
          "durationTicks": 23,
          "midi": 67,
          "name": "G4",
          "ticks": 13443,
          "time": 156.3139534883721,
          "velocity": 0.4251968503937008
        },
        {
          "duration": 0.33720930232556157,
          "durationTicks": 29,
          "midi": 72,
          "name": "C5",
          "ticks": 13443,
          "time": 156.3139534883721,
          "velocity": 0.2125984251968504
        },
        {
          "duration": 0.023255813953483084,
          "durationTicks": 2,
          "midi": 55,
          "name": "G3",
          "ticks": 13444,
          "time": 156.32558139534885,
          "velocity": 0.4881889763779528
        },
        {
          "duration": 0.034883720930224626,
          "durationTicks": 3,
          "midi": 74,
          "name": "D5",
          "ticks": 13444,
          "time": 156.32558139534885,
          "velocity": 0.11023622047244094
        },
        {
          "duration": 0.034883720930224626,
          "durationTicks": 3,
          "midi": 81,
          "name": "A5",
          "ticks": 13444,
          "time": 156.32558139534885,
          "velocity": 0.07086614173228346
        },
        {
          "duration": 0.20930232558137618,
          "durationTicks": 18,
          "midi": 83,
          "name": "B5",
          "ticks": 13444,
          "time": 156.32558139534885,
          "velocity": 0.2047244094488189
        },
        {
          "duration": 0.05813953488370771,
          "durationTicks": 5,
          "midi": 85,
          "name": "C#6",
          "ticks": 13444,
          "time": 156.32558139534885,
          "velocity": 0.08661417322834646
        },
        {
          "duration": 0.06976744186044925,
          "durationTicks": 6,
          "midi": 90,
          "name": "F#6",
          "ticks": 13444,
          "time": 156.32558139534885,
          "velocity": 0.07874015748031496
        },
        {
          "duration": 0.12790697674418539,
          "durationTicks": 11,
          "midi": 93,
          "name": "A6",
          "ticks": 13444,
          "time": 156.32558139534885,
          "velocity": 0.1732283464566929
        },
        {
          "duration": 0.3604651162790731,
          "durationTicks": 31,
          "midi": 50,
          "name": "D3",
          "ticks": 13445,
          "time": 156.3372093023256,
          "velocity": 0.48031496062992124
        },
        {
          "duration": 0.023255813953483084,
          "durationTicks": 2,
          "midi": 57,
          "name": "A3",
          "ticks": 13446,
          "time": 156.34883720930233,
          "velocity": 0.3543307086614173
        },
        {
          "duration": 0.09302325581396076,
          "durationTicks": 8,
          "midi": 89,
          "name": "F6",
          "ticks": 13446,
          "time": 156.34883720930233,
          "velocity": 0.10236220472440945
        },
        {
          "duration": 0.023255813953483084,
          "durationTicks": 2,
          "midi": 39,
          "name": "D#2",
          "ticks": 13447,
          "time": 156.36046511627907,
          "velocity": 0.4566929133858268
        },
        {
          "duration": 0.11627906976744384,
          "durationTicks": 10,
          "midi": 86,
          "name": "D6",
          "ticks": 13447,
          "time": 156.36046511627907,
          "velocity": 0.08661417322834646
        },
        {
          "duration": 0.09302325581396076,
          "durationTicks": 8,
          "midi": 38,
          "name": "D2",
          "ticks": 13449,
          "time": 156.38372093023256,
          "velocity": 0.4330708661417323
        },
        {
          "duration": 0.09302325581396076,
          "durationTicks": 8,
          "midi": 76,
          "name": "E5",
          "ticks": 13449,
          "time": 156.38372093023256,
          "velocity": 0.07086614173228346
        },
        {
          "duration": 0.023255813953483084,
          "durationTicks": 2,
          "midi": 56,
          "name": "G#3",
          "ticks": 13455,
          "time": 156.45348837209303,
          "velocity": 0.33858267716535434
        },
        {
          "duration": 0.023255813953483084,
          "durationTicks": 2,
          "midi": 57,
          "name": "A3",
          "ticks": 13457,
          "time": 156.47674418604652,
          "velocity": 0.2755905511811024
        },
        {
          "duration": 0.19767441860463464,
          "durationTicks": 17,
          "midi": 38,
          "name": "D2",
          "ticks": 13458,
          "time": 156.48837209302326,
          "velocity": 0.29133858267716534
        },
        {
          "duration": 0.023255813953483084,
          "durationTicks": 2,
          "midi": 56,
          "name": "G#3",
          "ticks": 13466,
          "time": 156.58139534883722,
          "velocity": 0.2755905511811024
        },
        {
          "duration": 0.05813953488370771,
          "durationTicks": 5,
          "midi": 67,
          "name": "G4",
          "ticks": 13467,
          "time": 156.59302325581396,
          "velocity": 0.2047244094488189
        },
        {
          "duration": 0.023255813953483084,
          "durationTicks": 2,
          "midi": 57,
          "name": "A3",
          "ticks": 13468,
          "time": 156.6046511627907,
          "velocity": 0.2440944881889764
        },
        {
          "duration": 0.2093023255814046,
          "durationTicks": 18,
          "midi": 67,
          "name": "G4",
          "ticks": 13474,
          "time": 156.67441860465115,
          "velocity": 0.4330708661417323
        },
        {
          "duration": 0.15116279069766847,
          "durationTicks": 13,
          "midi": 72,
          "name": "C5",
          "ticks": 13476,
          "time": 156.69767441860466,
          "velocity": 0.1732283464566929
        },
        {
          "duration": 0.023255813953483084,
          "durationTicks": 2,
          "midi": 55,
          "name": "G3",
          "ticks": 13477,
          "time": 156.7093023255814,
          "velocity": 0.4881889763779528
        },
        {
          "duration": 0.06976744186044925,
          "durationTicks": 6,
          "midi": 85,
          "name": "C#6",
          "ticks": 13477,
          "time": 156.7093023255814,
          "velocity": 0.07874015748031496
        },
        {
          "duration": 0.05813953488370771,
          "durationTicks": 5,
          "midi": 90,
          "name": "F#6",
          "ticks": 13477,
          "time": 156.7093023255814,
          "velocity": 0.07086614173228346
        },
        {
          "duration": 0.11627906976744384,
          "durationTicks": 10,
          "midi": 93,
          "name": "A6",
          "ticks": 13477,
          "time": 156.7093023255814,
          "velocity": 0.16535433070866143
        },
        {
          "duration": 0.22093023255814614,
          "durationTicks": 19,
          "midi": 50,
          "name": "D3",
          "ticks": 13478,
          "time": 156.72093023255815,
          "velocity": 0.47244094488188976
        },
        {
          "duration": 0.11627906976744384,
          "durationTicks": 10,
          "midi": 83,
          "name": "B5",
          "ticks": 13478,
          "time": 156.72093023255815,
          "velocity": 0.1889763779527559
        },
        {
          "duration": 0.09302325581396076,
          "durationTicks": 8,
          "midi": 89,
          "name": "F6",
          "ticks": 13478,
          "time": 156.72093023255815,
          "velocity": 0.10236220472440945
        },
        {
          "duration": 0.023255813953483084,
          "durationTicks": 2,
          "midi": 39,
          "name": "D#2",
          "ticks": 13480,
          "time": 156.74418604651163,
          "velocity": 0.4566929133858268
        },
        {
          "duration": 0.023255813953483084,
          "durationTicks": 2,
          "midi": 56,
          "name": "G#3",
          "ticks": 13480,
          "time": 156.74418604651163,
          "velocity": 0.3700787401574803
        },
        {
          "duration": 0.08139534883721922,
          "durationTicks": 7,
          "midi": 86,
          "name": "D6",
          "ticks": 13481,
          "time": 156.75581395348837,
          "velocity": 0.08661417322834646
        },
        {
          "duration": 0.09302325581396076,
          "durationTicks": 8,
          "midi": 38,
          "name": "D2",
          "ticks": 13482,
          "time": 156.7674418604651,
          "velocity": 0.4251968503937008
        },
        {
          "duration": 0.05813953488373613,
          "durationTicks": 5,
          "midi": 76,
          "name": "E5",
          "ticks": 13482,
          "time": 156.7674418604651,
          "velocity": 0.07086614173228346
        },
        {
          "duration": 0.023255813953483084,
          "durationTicks": 2,
          "midi": 56,
          "name": "G#3",
          "ticks": 13488,
          "time": 156.8372093023256,
          "velocity": 0.2677165354330709
        },
        {
          "duration": 0.05813953488370771,
          "durationTicks": 5,
          "midi": 38,
          "name": "D2",
          "ticks": 13491,
          "time": 156.87209302325581,
          "velocity": 0.14960629921259844
        },
        {
          "duration": 0.2325581395348877,
          "durationTicks": 20,
          "midi": 79,
          "name": "G5",
          "ticks": 13495,
          "time": 156.91860465116278,
          "velocity": 0.2755905511811024
        },
        {
          "duration": 0.3953488372093261,
          "durationTicks": 34,
          "midi": 81,
          "name": "A5",
          "ticks": 13495,
          "time": 156.91860465116278,
          "velocity": 0.4881889763779528
        },
        {
          "duration": 0.04651162790699459,
          "durationTicks": 4,
          "midi": 76,
          "name": "E5",
          "ticks": 13496,
          "time": 156.93023255813952,
          "velocity": 0.25984251968503935
        },
        {
          "duration": 0.6860465116279215,
          "durationTicks": 59,
          "midi": 85,
          "name": "C#6",
          "ticks": 13496,
          "time": 156.93023255813952,
          "velocity": 0.2755905511811024
        },
        {
          "duration": 0.11627906976744384,
          "durationTicks": 10,
          "midi": 100,
          "name": "E7",
          "ticks": 13496,
          "time": 156.93023255813952,
          "velocity": 0.2992125984251969
        },
        {
          "duration": 0.04651162790696617,
          "durationTicks": 4,
          "midi": 45,
          "name": "A2",
          "ticks": 13497,
          "time": 156.9418604651163,
          "velocity": 0.5118110236220472
        },
        {
          "duration": 0.023255813953483084,
          "durationTicks": 2,
          "midi": 60,
          "name": "C4",
          "ticks": 13497,
          "time": 156.9418604651163,
          "velocity": 0.30708661417322836
        },
        {
          "duration": 0.33720930232556157,
          "durationTicks": 29,
          "midi": 69,
          "name": "A4",
          "ticks": 13497,
          "time": 156.9418604651163,
          "velocity": 0.5354330708661418
        },
        {
          "duration": 0.06976744186044925,
          "durationTicks": 6,
          "midi": 73,
          "name": "C#5",
          "ticks": 13497,
          "time": 156.9418604651163,
          "velocity": 0.2125984251968504
        },
        {
          "duration": 0.034883720930224626,
          "durationTicks": 3,
          "midi": 74,
          "name": "D5",
          "ticks": 13497,
          "time": 156.9418604651163,
          "velocity": 0.2283464566929134
        },
        {
          "duration": 0.0813953488371908,
          "durationTicks": 7,
          "midi": 83,
          "name": "B5",
          "ticks": 13498,
          "time": 156.95348837209303,
          "velocity": 0.11023622047244094
        },
        {
          "duration": 0.1860465116278931,
          "durationTicks": 16,
          "midi": 61,
          "name": "C#4",
          "ticks": 13499,
          "time": 156.96511627906978,
          "velocity": 0.25984251968503935
        },
        {
          "duration": 0.40697674418603924,
          "durationTicks": 35,
          "midi": 52,
          "name": "E3",
          "ticks": 13500,
          "time": 156.97674418604652,
          "velocity": 0.2755905511811024
        },
        {
          "duration": 0.16279069767441,
          "durationTicks": 14,
          "midi": 75,
          "name": "D#5",
          "ticks": 13500,
          "time": 156.97674418604652,
          "velocity": 0.2125984251968504
        },
        {
          "duration": 0.38372093023255616,
          "durationTicks": 33,
          "midi": 45,
          "name": "A2",
          "ticks": 13502,
          "time": 157,
          "velocity": 0.4094488188976378
        },
        {
          "duration": 0.023255813953483084,
          "durationTicks": 2,
          "midi": 77,
          "name": "F5",
          "ticks": 13514,
          "time": 157.13953488372093,
          "velocity": 0.3543307086614173
        },
        {
          "duration": 0.24418604651162923,
          "durationTicks": 21,
          "midi": 64,
          "name": "E4",
          "ticks": 13515,
          "time": 157.15116279069767,
          "velocity": 0.5039370078740157
        },
        {
          "duration": 0.33720930232559,
          "durationTicks": 29,
          "midi": 83,
          "name": "B5",
          "ticks": 13515,
          "time": 157.15116279069767,
          "velocity": 0.23622047244094488
        },
        {
          "duration": 0.2325581395348877,
          "durationTicks": 20,
          "midi": 88,
          "name": "E6",
          "ticks": 13515,
          "time": 157.15116279069767,
          "velocity": 0.2677165354330709
        },
        {
          "duration": 0.22093023255814614,
          "durationTicks": 19,
          "midi": 92,
          "name": "G#6",
          "ticks": 13515,
          "time": 157.15116279069767,
          "velocity": 0.14960629921259844
        },
        {
          "duration": 0.04651162790699459,
          "durationTicks": 4,
          "midi": 79,
          "name": "G5",
          "ticks": 13516,
          "time": 157.1627906976744,
          "velocity": 0.14960629921259844
        },
        {
          "duration": 0.06976744186047767,
          "durationTicks": 6,
          "midi": 98,
          "name": "D7",
          "ticks": 13516,
          "time": 157.1627906976744,
          "velocity": 0.07874015748031496
        },
        {
          "duration": 0.03488372093025305,
          "durationTicks": 3,
          "midi": 75,
          "name": "D#5",
          "ticks": 13517,
          "time": 157.17441860465115,
          "velocity": 0.28346456692913385
        },
        {
          "duration": 0.034883720930224626,
          "durationTicks": 3,
          "midi": 75,
          "name": "D#5",
          "ticks": 13521,
          "time": 157.22093023255815,
          "velocity": 0.13385826771653545
        },
        {
          "duration": 0.06976744186047767,
          "durationTicks": 6,
          "midi": 75,
          "name": "D#5",
          "ticks": 13525,
          "time": 157.2674418604651,
          "velocity": 0.09448818897637795
        },
        {
          "duration": 0.023255813953483084,
          "durationTicks": 2,
          "midi": 61,
          "name": "C#4",
          "ticks": 13534,
          "time": 157.37209302325581,
          "velocity": 0.4094488188976378
        },
        {
          "duration": 0.06976744186047767,
          "durationTicks": 6,
          "midi": 74,
          "name": "D5",
          "ticks": 13535,
          "time": 157.38372093023256,
          "velocity": 0.44881889763779526
        },
        {
          "duration": 0.2093023255814046,
          "durationTicks": 18,
          "midi": 79,
          "name": "G5",
          "ticks": 13535,
          "time": 157.38372093023256,
          "velocity": 0.2047244094488189
        },
        {
          "duration": 0.25581395348837077,
          "durationTicks": 22,
          "midi": 81,
          "name": "A5",
          "ticks": 13535,
          "time": 157.38372093023256,
          "velocity": 0.2440944881889764
        },
        {
          "duration": 0.2325581395348877,
          "durationTicks": 20,
          "midi": 90,
          "name": "F#6",
          "ticks": 13535,
          "time": 157.38372093023256,
          "velocity": 0.1732283464566929
        },
        {
          "duration": 0.05813953488373613,
          "durationTicks": 5,
          "midi": 92,
          "name": "G#6",
          "ticks": 13535,
          "time": 157.38372093023256,
          "velocity": 0.18110236220472442
        },
        {
          "duration": 0.13953488372092693,
          "durationTicks": 12,
          "midi": 98,
          "name": "D7",
          "ticks": 13535,
          "time": 157.38372093023256,
          "velocity": 0.29133858267716534
        },
        {
          "duration": 0.16279069767441,
          "durationTicks": 14,
          "midi": 102,
          "name": "F#7",
          "ticks": 13535,
          "time": 157.38372093023256,
          "velocity": 0.31496062992125984
        },
        {
          "duration": 0.22093023255814614,
          "durationTicks": 19,
          "midi": 62,
          "name": "D4",
          "ticks": 13536,
          "time": 157.3953488372093,
          "velocity": 0.5039370078740157
        },
        {
          "duration": 0.7441860465116292,
          "durationTicks": 64,
          "midi": 76,
          "name": "E5",
          "ticks": 13536,
          "time": 157.3953488372093,
          "velocity": 0.4330708661417323
        },
        {
          "duration": 0.4418604651162923,
          "durationTicks": 38,
          "midi": 45,
          "name": "A2",
          "ticks": 13537,
          "time": 157.40697674418604,
          "velocity": 0.4015748031496063
        },
        {
          "duration": 0.4418604651162923,
          "durationTicks": 38,
          "midi": 69,
          "name": "A4",
          "ticks": 13537,
          "time": 157.40697674418604,
          "velocity": 0.2440944881889764
        },
        {
          "duration": 0.05813953488373613,
          "durationTicks": 5,
          "midi": 96,
          "name": "C7",
          "ticks": 13537,
          "time": 157.40697674418604,
          "velocity": 0.08661417322834646
        },
        {
          "duration": 0.4186046511628092,
          "durationTicks": 36,
          "midi": 57,
          "name": "A3",
          "ticks": 13538,
          "time": 157.41860465116278,
          "velocity": 0.4409448818897638
        },
        {
          "duration": 0.03488372093025305,
          "durationTicks": 3,
          "midi": 100,
          "name": "E7",
          "ticks": 13538,
          "time": 157.41860465116278,
          "velocity": 0.09448818897637795
        },
        {
          "duration": 0.03488372093025305,
          "durationTicks": 3,
          "midi": 87,
          "name": "D#6",
          "ticks": 13548,
          "time": 157.53488372093022,
          "velocity": 0.14960629921259844
        },
        {
          "duration": 0.04651162790696617,
          "durationTicks": 4,
          "midi": 71,
          "name": "B4",
          "ticks": 13554,
          "time": 157.6046511627907,
          "velocity": 0.18110236220472442
        },
        {
          "duration": 0.19767441860463464,
          "durationTicks": 17,
          "midi": 83,
          "name": "B5",
          "ticks": 13554,
          "time": 157.6046511627907,
          "velocity": 0.2677165354330709
        },
        {
          "duration": 0.034883720930224626,
          "durationTicks": 3,
          "midi": 87,
          "name": "D#6",
          "ticks": 13554,
          "time": 157.6046511627907,
          "velocity": 0.16535433070866143
        },
        {
          "duration": 0.15116279069766847,
          "durationTicks": 13,
          "midi": 92,
          "name": "G#6",
          "ticks": 13554,
          "time": 157.6046511627907,
          "velocity": 0.14960629921259844
        },
        {
          "duration": 0.11627906976744384,
          "durationTicks": 10,
          "midi": 100,
          "name": "E7",
          "ticks": 13554,
          "time": 157.6046511627907,
          "velocity": 0.28346456692913385
        },
        {
          "duration": 0.2674418604651123,
          "durationTicks": 23,
          "midi": 64,
          "name": "E4",
          "ticks": 13555,
          "time": 157.61627906976744,
          "velocity": 0.49606299212598426
        },
        {
          "duration": 0.08139534883721922,
          "durationTicks": 7,
          "midi": 98,
          "name": "D7",
          "ticks": 13555,
          "time": 157.61627906976744,
          "velocity": 0.07874015748031496
        },
        {
          "duration": 0.12790697674418539,
          "durationTicks": 11,
          "midi": 74,
          "name": "D5",
          "ticks": 13557,
          "time": 157.63953488372093,
          "velocity": 0.2283464566929134
        },
        {
          "duration": 0.09302325581396076,
          "durationTicks": 8,
          "midi": 87,
          "name": "D#6",
          "ticks": 13559,
          "time": 157.6627906976744,
          "velocity": 0.07086614173228346
        },
        {
          "duration": 0.06976744186047767,
          "durationTicks": 6,
          "midi": 92,
          "name": "G#6",
          "ticks": 13569,
          "time": 157.77906976744185,
          "velocity": 0.10236220472440945
        },
        {
          "duration": 0.023255813953483084,
          "durationTicks": 2,
          "midi": 73,
          "name": "C#5",
          "ticks": 13573,
          "time": 157.82558139534885,
          "velocity": 0.36220472440944884
        },
        {
          "duration": 0.27906976744185386,
          "durationTicks": 24,
          "midi": 60,
          "name": "C4",
          "ticks": 13574,
          "time": 157.8372093023256,
          "velocity": 0.48031496062992124
        },
        {
          "duration": 0.2325581395348877,
          "durationTicks": 20,
          "midi": 79,
          "name": "G5",
          "ticks": 13574,
          "time": 157.8372093023256,
          "velocity": 0.3228346456692913
        },
        {
          "duration": 0.2325581395348877,
          "durationTicks": 20,
          "midi": 84,
          "name": "C6",
          "ticks": 13574,
          "time": 157.8372093023256,
          "velocity": 0.3228346456692913
        },
        {
          "duration": 0.1860465116278931,
          "durationTicks": 16,
          "midi": 100,
          "name": "E7",
          "ticks": 13574,
          "time": 157.8372093023256,
          "velocity": 0.33858267716535434
        },
        {
          "duration": 0.22093023255814614,
          "durationTicks": 19,
          "midi": 67,
          "name": "G4",
          "ticks": 13575,
          "time": 157.84883720930233,
          "velocity": 0.2755905511811024
        },
        {
          "duration": 0.06976744186044925,
          "durationTicks": 6,
          "midi": 83,
          "name": "B5",
          "ticks": 13575,
          "time": 157.84883720930233,
          "velocity": 0.15748031496062992
        },
        {
          "duration": 0.6976744186046346,
          "durationTicks": 60,
          "midi": 85,
          "name": "C#6",
          "ticks": 13575,
          "time": 157.84883720930233,
          "velocity": 0.2440944881889764
        },
        {
          "duration": 0.09302325581396076,
          "durationTicks": 8,
          "midi": 94,
          "name": "A#6",
          "ticks": 13575,
          "time": 157.84883720930233,
          "velocity": 0.10236220472440945
        },
        {
          "duration": 0.45348837209303383,
          "durationTicks": 39,
          "midi": 45,
          "name": "A2",
          "ticks": 13576,
          "time": 157.86046511627907,
          "velocity": 0.49606299212598426
        },
        {
          "duration": 0.4186046511627808,
          "durationTicks": 36,
          "midi": 52,
          "name": "E3",
          "ticks": 13577,
          "time": 157.87209302325581,
          "velocity": 0.30708661417322836
        },
        {
          "duration": 0.023255813953483084,
          "durationTicks": 2,
          "midi": 74,
          "name": "D5",
          "ticks": 13577,
          "time": 157.87209302325581,
          "velocity": 0.25196850393700787
        },
        {
          "duration": 0.17441860465117998,
          "durationTicks": 15,
          "midi": 75,
          "name": "D#5",
          "ticks": 13579,
          "time": 157.8953488372093,
          "velocity": 0.2047244094488189
        },
        {
          "duration": 0.034883720930224626,
          "durationTicks": 3,
          "midi": 68,
          "name": "G#4",
          "ticks": 13594,
          "time": 158.06976744186048,
          "velocity": 0.16535433070866143
        },
        {
          "duration": 0.6511627906976685,
          "durationTicks": 56,
          "midi": 83,
          "name": "B5",
          "ticks": 13594,
          "time": 158.06976744186048,
          "velocity": 0.28346456692913385
        },
        {
          "duration": 0.30232558139533694,
          "durationTicks": 26,
          "midi": 92,
          "name": "G#6",
          "ticks": 13594,
          "time": 158.06976744186048,
          "velocity": 0.16535433070866143
        },
        {
          "duration": 0.11627906976741542,
          "durationTicks": 10,
          "midi": 100,
          "name": "E7",
          "ticks": 13594,
          "time": 158.06976744186048,
          "velocity": 0.28346456692913385
        },
        {
          "duration": 0.44186046511626387,
          "durationTicks": 38,
          "midi": 64,
          "name": "E4",
          "ticks": 13595,
          "time": 158.08139534883722,
          "velocity": 0.49606299212598426
        },
        {
          "duration": 0.04651162790696617,
          "durationTicks": 4,
          "midi": 79,
          "name": "G5",
          "ticks": 13595,
          "time": 158.08139534883722,
          "velocity": 0.16535433070866143
        },
        {
          "duration": 0.0813953488371908,
          "durationTicks": 7,
          "midi": 98,
          "name": "D7",
          "ticks": 13595,
          "time": 158.08139534883722,
          "velocity": 0.08661417322834646
        },
        {
          "duration": 0.04651162790696617,
          "durationTicks": 4,
          "midi": 60,
          "name": "C4",
          "ticks": 13599,
          "time": 158.12790697674419,
          "velocity": 0.2125984251968504
        },
        {
          "duration": 0.034883720930224626,
          "durationTicks": 3,
          "midi": 75,
          "name": "D#5",
          "ticks": 13600,
          "time": 158.13953488372093,
          "velocity": 0.12598425196850394
        },
        {
          "duration": 0.09302325581396076,
          "durationTicks": 8,
          "midi": 75,
          "name": "D#5",
          "ticks": 13604,
          "time": 158.1860465116279,
          "velocity": 0.10236220472440945
        },
        {
          "duration": 0.023255813953511506,
          "durationTicks": 2,
          "midi": 61,
          "name": "C#4",
          "ticks": 13613,
          "time": 158.2906976744186,
          "velocity": 0.28346456692913385
        },
        {
          "duration": 0.33720930232559,
          "durationTicks": 29,
          "midi": 71,
          "name": "B4",
          "ticks": 13613,
          "time": 158.2906976744186,
          "velocity": 0.6141732283464567
        },
        {
          "duration": 0.2325581395348877,
          "durationTicks": 20,
          "midi": 90,
          "name": "F#6",
          "ticks": 13614,
          "time": 158.30232558139534,
          "velocity": 0.25984251968503935
        },
        {
          "duration": 0.12790697674418539,
          "durationTicks": 11,
          "midi": 79,
          "name": "G5",
          "ticks": 13615,
          "time": 158.3139534883721,
          "velocity": 0.1889763779527559
        },
        {
          "duration": 0.06976744186044925,
          "durationTicks": 6,
          "midi": 87,
          "name": "D#6",
          "ticks": 13615,
          "time": 158.3139534883721,
          "velocity": 0.25196850393700787
        },
        {
          "duration": 0.09302325581393234,
          "durationTicks": 8,
          "midi": 93,
          "name": "A6",
          "ticks": 13615,
          "time": 158.3139534883721,
          "velocity": 0.11811023622047244
        },
        {
          "duration": 0.4302325581395223,
          "durationTicks": 37,
          "midi": 45,
          "name": "A2",
          "ticks": 13616,
          "time": 158.32558139534885,
          "velocity": 0.5196850393700787
        },
        {
          "duration": 0.034883720930224626,
          "durationTicks": 3,
          "midi": 100,
          "name": "E7",
          "ticks": 13617,
          "time": 158.3372093023256,
          "velocity": 0.09448818897637795
        },
        {
          "duration": 0.16279069767441,
          "durationTicks": 14,
          "midi": 87,
          "name": "D#6",
          "ticks": 13622,
          "time": 158.3953488372093,
          "velocity": 0.2125984251968504
        },
        {
          "duration": 0.11627906976744384,
          "durationTicks": 10,
          "midi": 69,
          "name": "A4",
          "ticks": 13625,
          "time": 158.43023255813952,
          "velocity": 0.2283464566929134
        },
        {
          "duration": 0.04651162790696617,
          "durationTicks": 4,
          "midi": 79,
          "name": "G5",
          "ticks": 13628,
          "time": 158.46511627906978,
          "velocity": 0.07086614173228346
        },
        {
          "duration": 0.15116279069766847,
          "durationTicks": 13,
          "midi": 92,
          "name": "G#6",
          "ticks": 13633,
          "time": 158.52325581395348,
          "velocity": 0.14960629921259844
        },
        {
          "duration": 0.11627906976744384,
          "durationTicks": 10,
          "midi": 100,
          "name": "E7",
          "ticks": 13633,
          "time": 158.52325581395348,
          "velocity": 0.2755905511811024
        },
        {
          "duration": 0.023255813953483084,
          "durationTicks": 2,
          "midi": 58,
          "name": "A#3",
          "ticks": 13634,
          "time": 158.53488372093022,
          "velocity": 0.25196850393700787
        },
        {
          "duration": 0.2674418604651123,
          "durationTicks": 23,
          "midi": 64,
          "name": "E4",
          "ticks": 13634,
          "time": 158.53488372093022,
          "velocity": 0.4881889763779528
        },
        {
          "duration": 0.06976744186047767,
          "durationTicks": 6,
          "midi": 98,
          "name": "D7",
          "ticks": 13634,
          "time": 158.53488372093022,
          "velocity": 0.08661417322834646
        },
        {
          "duration": 0.19767441860466306,
          "durationTicks": 17,
          "midi": 69,
          "name": "A4",
          "ticks": 13636,
          "time": 158.5581395348837,
          "velocity": 0.14960629921259844
        },
        {
          "duration": 0.15116279069766847,
          "durationTicks": 13,
          "midi": 87,
          "name": "D#6",
          "ticks": 13637,
          "time": 158.56976744186048,
          "velocity": 0.07086614173228346
        },
        {
          "duration": 0.0813953488371908,
          "durationTicks": 7,
          "midi": 92,
          "name": "G#6",
          "ticks": 13648,
          "time": 158.69767441860466,
          "velocity": 0.10236220472440945
        },
        {
          "duration": 0.40697674418603924,
          "durationTicks": 35,
          "midi": 81,
          "name": "A5",
          "ticks": 13652,
          "time": 158.74418604651163,
          "velocity": 0.48031496062992124
        },
        {
          "duration": 0.034883720930224626,
          "durationTicks": 3,
          "midi": 79,
          "name": "G5",
          "ticks": 13653,
          "time": 158.75581395348837,
          "velocity": 0.29133858267716534
        },
        {
          "duration": 0.06976744186047767,
          "durationTicks": 6,
          "midi": 86,
          "name": "D6",
          "ticks": 13653,
          "time": 158.75581395348837,
          "velocity": 0.2204724409448819
        },
        {
          "duration": 0.24418604651162923,
          "durationTicks": 21,
          "midi": 87,
          "name": "D#6",
          "ticks": 13653,
          "time": 158.75581395348837,
          "velocity": 0.25196850393700787
        },
        {
          "duration": 0.11627906976744384,
          "durationTicks": 10,
          "midi": 100,
          "name": "E7",
          "ticks": 13653,
          "time": 158.75581395348837,
          "velocity": 0.29133858267716534
        },
        {
          "duration": 0.023255813953483084,
          "durationTicks": 2,
          "midi": 48,
          "name": "C3",
          "ticks": 13654,
          "time": 158.7674418604651,
          "velocity": 0.4409448818897638
        },
        {
          "duration": 0.3604651162790731,
          "durationTicks": 31,
          "midi": 69,
          "name": "A4",
          "ticks": 13654,
          "time": 158.7674418604651,
          "velocity": 0.5354330708661418
        },
        {
          "duration": 0.13953488372092693,
          "durationTicks": 12,
          "midi": 78,
          "name": "F#5",
          "ticks": 13654,
          "time": 158.7674418604651,
          "velocity": 0.2283464566929134
        },
        {
          "duration": 0.09302325581396076,
          "durationTicks": 8,
          "midi": 85,
          "name": "C#6",
          "ticks": 13654,
          "time": 158.7674418604651,
          "velocity": 0.16535433070866143
        },
        {
          "duration": 0.4418604651162923,
          "durationTicks": 38,
          "midi": 54,
          "name": "F#3",
          "ticks": 13655,
          "time": 158.77906976744185,
          "velocity": 0.31496062992125984
        },
        {
          "duration": 0.023255813953511506,
          "durationTicks": 2,
          "midi": 47,
          "name": "B2",
          "ticks": 13656,
          "time": 158.7906976744186,
          "velocity": 0.4330708661417323
        },
        {
          "duration": 0.17441860465115155,
          "durationTicks": 15,
          "midi": 63,
          "name": "D#4",
          "ticks": 13658,
          "time": 158.8139534883721,
          "velocity": 0.2283464566929134
        },
        {
          "duration": 0.8604651162790447,
          "durationTicks": 74,
          "midi": 47,
          "name": "B2",
          "ticks": 13659,
          "time": 158.82558139534885,
          "velocity": 0.5118110236220472
        },
        {
          "duration": 0.034883720930224626,
          "durationTicks": 3,
          "midi": 76,
          "name": "E5",
          "ticks": 13659,
          "time": 158.82558139534885,
          "velocity": 0.29133858267716534
        },
        {
          "duration": 0.034883720930224626,
          "durationTicks": 3,
          "midi": 76,
          "name": "E5",
          "ticks": 13663,
          "time": 158.87209302325581,
          "velocity": 0.2283464566929134
        },
        {
          "duration": 0.034883720930224626,
          "durationTicks": 3,
          "midi": 77,
          "name": "F5",
          "ticks": 13670,
          "time": 158.95348837209303,
          "velocity": 0.09448818897637795
        },
        {
          "duration": 0.0813953488371908,
          "durationTicks": 7,
          "midi": 76,
          "name": "E5",
          "ticks": 13672,
          "time": 158.97674418604652,
          "velocity": 0.41732283464566927
        },
        {
          "duration": 0.24418604651162923,
          "durationTicks": 21,
          "midi": 64,
          "name": "E4",
          "ticks": 13673,
          "time": 158.98837209302326,
          "velocity": 0.5118110236220472
        },
        {
          "duration": 0.2906976744185954,
          "durationTicks": 25,
          "midi": 83,
          "name": "B5",
          "ticks": 13673,
          "time": 158.98837209302326,
          "velocity": 0.2283464566929134
        },
        {
          "duration": 0.034883720930224626,
          "durationTicks": 3,
          "midi": 71,
          "name": "B4",
          "ticks": 13674,
          "time": 159,
          "velocity": 0.18110236220472442
        },
        {
          "duration": 0.22093023255814614,
          "durationTicks": 19,
          "midi": 92,
          "name": "G#6",
          "ticks": 13674,
          "time": 159,
          "velocity": 0.14960629921259844
        },
        {
          "duration": 0.3953488372092977,
          "durationTicks": 34,
          "midi": 87,
          "name": "D#6",
          "ticks": 13675,
          "time": 159.01162790697674,
          "velocity": 0.2283464566929134
        },
        {
          "duration": 0.2325581395348877,
          "durationTicks": 20,
          "midi": 78,
          "name": "F#5",
          "ticks": 13693,
          "time": 159.22093023255815,
          "velocity": 0.31496062992125984
        },
        {
          "duration": 0.2325581395348877,
          "durationTicks": 20,
          "midi": 81,
          "name": "A5",
          "ticks": 13693,
          "time": 159.22093023255815,
          "velocity": 0.28346456692913385
        },
        {
          "duration": 0.2674418604651123,
          "durationTicks": 23,
          "midi": 86,
          "name": "D6",
          "ticks": 13693,
          "time": 159.22093023255815,
          "velocity": 0.28346456692913385
        },
        {
          "duration": 0.16279069767441,
          "durationTicks": 14,
          "midi": 102,
          "name": "F#7",
          "ticks": 13693,
          "time": 159.22093023255815,
          "velocity": 0.3228346456692913
        },
        {
          "duration": 0.023255813953483084,
          "durationTicks": 2,
          "midi": 58,
          "name": "A#3",
          "ticks": 13694,
          "time": 159.2325581395349,
          "velocity": 0.4409448818897638
        },
        {
          "duration": 0.2325581395348877,
          "durationTicks": 20,
          "midi": 62,
          "name": "D4",
          "ticks": 13694,
          "time": 159.2325581395349,
          "velocity": 0.49606299212598426
        },
        {
          "duration": 0.22093023255814614,
          "durationTicks": 19,
          "midi": 66,
          "name": "F#4",
          "ticks": 13694,
          "time": 159.2325581395349,
          "velocity": 0.31496062992125984
        },
        {
          "duration": 0.12790697674418539,
          "durationTicks": 11,
          "midi": 85,
          "name": "C#6",
          "ticks": 13694,
          "time": 159.2325581395349,
          "velocity": 0.18110236220472442
        },
        {
          "duration": 0.1046511627907023,
          "durationTicks": 9,
          "midi": 94,
          "name": "A#6",
          "ticks": 13694,
          "time": 159.2325581395349,
          "velocity": 0.11023622047244094
        },
        {
          "duration": 0.06976744186044925,
          "durationTicks": 6,
          "midi": 96,
          "name": "C7",
          "ticks": 13694,
          "time": 159.2325581395349,
          "velocity": 0.07086614173228346
        },
        {
          "duration": 0.4302325581395223,
          "durationTicks": 37,
          "midi": 71,
          "name": "B4",
          "ticks": 13695,
          "time": 159.24418604651163,
          "velocity": 0.2677165354330709
        },
        {
          "duration": 0.13953488372092693,
          "durationTicks": 12,
          "midi": 76,
          "name": "E5",
          "ticks": 13695,
          "time": 159.24418604651163,
          "velocity": 0.23622047244094488
        },
        {
          "duration": 0.22093023255814614,
          "durationTicks": 19,
          "midi": 89,
          "name": "F6",
          "ticks": 13695,
          "time": 159.24418604651163,
          "velocity": 0.1968503937007874
        },
        {
          "duration": 0.0813953488371908,
          "durationTicks": 7,
          "midi": 76,
          "name": "E5",
          "ticks": 13712,
          "time": 159.4418604651163,
          "velocity": 0.4330708661417323
        },
        {
          "duration": 0.034883720930224626,
          "durationTicks": 3,
          "midi": 87,
          "name": "D#6",
          "ticks": 13713,
          "time": 159.45348837209303,
          "velocity": 0.14173228346456693
        },
        {
          "duration": 0.11627906976744384,
          "durationTicks": 10,
          "midi": 100,
          "name": "E7",
          "ticks": 13713,
          "time": 159.45348837209303,
          "velocity": 0.28346456692913385
        },
        {
          "duration": 0.25581395348837077,
          "durationTicks": 22,
          "midi": 64,
          "name": "E4",
          "ticks": 13714,
          "time": 159.46511627906978,
          "velocity": 0.49606299212598426
        },
        {
          "duration": 0.2325581395348877,
          "durationTicks": 20,
          "midi": 92,
          "name": "G#6",
          "ticks": 13714,
          "time": 159.46511627906978,
          "velocity": 0.14960629921259844
        },
        {
          "duration": 0.034883720930224626,
          "durationTicks": 3,
          "midi": 81,
          "name": "A5",
          "ticks": 13715,
          "time": 159.47674418604652,
          "velocity": 0.11811023622047244
        },
        {
          "duration": 0.1860465116278931,
          "durationTicks": 16,
          "midi": 78,
          "name": "F#5",
          "ticks": 13716,
          "time": 159.48837209302326,
          "velocity": 0.11811023622047244
        },
        {
          "duration": 0.2325581395348877,
          "durationTicks": 20,
          "midi": 79,
          "name": "G5",
          "ticks": 13732,
          "time": 159.67441860465115,
          "velocity": 0.2992125984251969
        },
        {
          "duration": 0.26744186046514073,
          "durationTicks": 23,
          "midi": 81,
          "name": "A5",
          "ticks": 13732,
          "time": 159.67441860465115,
          "velocity": 0.15748031496062992
        },
        {
          "duration": 0.26744186046514073,
          "durationTicks": 23,
          "midi": 84,
          "name": "C6",
          "ticks": 13732,
          "time": 159.67441860465115,
          "velocity": 0.29133858267716534
        },
        {
          "duration": 0.13953488372095535,
          "durationTicks": 12,
          "midi": 96,
          "name": "C7",
          "ticks": 13732,
          "time": 159.67441860465115,
          "velocity": 0.2992125984251969
        },
        {
          "duration": 0.18604651162792152,
          "durationTicks": 16,
          "midi": 100,
          "name": "E7",
          "ticks": 13732,
          "time": 159.67441860465115,
          "velocity": 0.33858267716535434
        },
        {
          "duration": 0.26744186046514073,
          "durationTicks": 23,
          "midi": 60,
          "name": "C4",
          "ticks": 13733,
          "time": 159.6860465116279,
          "velocity": 0.49606299212598426
        },
        {
          "duration": 0.05813953488373613,
          "durationTicks": 5,
          "midi": 85,
          "name": "C#6",
          "ticks": 13733,
          "time": 159.6860465116279,
          "velocity": 0.12598425196850394
        },
        {
          "duration": 0.03488372093025305,
          "durationTicks": 3,
          "midi": 86,
          "name": "D6",
          "ticks": 13733,
          "time": 159.6860465116279,
          "velocity": 0.09448818897637795
        },
        {
          "duration": 0.2325581395348877,
          "durationTicks": 20,
          "midi": 87,
          "name": "D#6",
          "ticks": 13733,
          "time": 159.6860465116279,
          "velocity": 0.23622047244094488
        },
        {
          "duration": 0.4302325581395223,
          "durationTicks": 37,
          "midi": 47,
          "name": "B2",
          "ticks": 13734,
          "time": 159.69767441860466,
          "velocity": 0.5039370078740157
        },
        {
          "duration": 0.4302325581395223,
          "durationTicks": 37,
          "midi": 54,
          "name": "F#3",
          "ticks": 13734,
          "time": 159.69767441860466,
          "velocity": 0.33858267716535434
        },
        {
          "duration": 0.22093023255811772,
          "durationTicks": 19,
          "midi": 69,
          "name": "A4",
          "ticks": 13734,
          "time": 159.69767441860466,
          "velocity": 0.23622047244094488
        },
        {
          "duration": 0.09302325581393234,
          "durationTicks": 8,
          "midi": 94,
          "name": "A#6",
          "ticks": 13734,
          "time": 159.69767441860466,
          "velocity": 0.11023622047244094
        },
        {
          "duration": 0.023255813953483084,
          "durationTicks": 2,
          "midi": 63,
          "name": "D#4",
          "ticks": 13737,
          "time": 159.7325581395349,
          "velocity": 0.2440944881889764
        },
        {
          "duration": 0.023255813953483084,
          "durationTicks": 2,
          "midi": 76,
          "name": "E5",
          "ticks": 13740,
          "time": 159.7674418604651,
          "velocity": 0.25984251968503935
        },
        {
          "duration": 0.03488372093025305,
          "durationTicks": 3,
          "midi": 75,
          "name": "D#5",
          "ticks": 13742,
          "time": 159.7906976744186,
          "velocity": 0.07086614173228346
        },
        {
          "duration": 0.34883720930233153,
          "durationTicks": 30,
          "midi": 88,
          "name": "E6",
          "ticks": 13743,
          "time": 159.80232558139534,
          "velocity": 0.2440944881889764
        },
        {
          "duration": 0.034883720930224626,
          "durationTicks": 3,
          "midi": 76,
          "name": "E5",
          "ticks": 13744,
          "time": 159.8139534883721,
          "velocity": 0.1968503937007874
        },
        {
          "duration": 0.1046511627907023,
          "durationTicks": 9,
          "midi": 76,
          "name": "E5",
          "ticks": 13749,
          "time": 159.87209302325581,
          "velocity": 0.41732283464566927
        },
        {
          "duration": 0.27906976744185386,
          "durationTicks": 24,
          "midi": 64,
          "name": "E4",
          "ticks": 13752,
          "time": 159.90697674418604,
          "velocity": 0.5118110236220472
        },
        {
          "duration": 0.3720930232558146,
          "durationTicks": 32,
          "midi": 83,
          "name": "B5",
          "ticks": 13752,
          "time": 159.90697674418604,
          "velocity": 0.2440944881889764
        },
        {
          "duration": 0.11627906976744384,
          "durationTicks": 10,
          "midi": 100,
          "name": "E7",
          "ticks": 13752,
          "time": 159.90697674418604,
          "velocity": 0.28346456692913385
        },
        {
          "duration": 0.2325581395348877,
          "durationTicks": 20,
          "midi": 92,
          "name": "G#6",
          "ticks": 13753,
          "time": 159.91860465116278,
          "velocity": 0.14960629921259844
        },
        {
          "duration": 0.3720930232558146,
          "durationTicks": 32,
          "midi": 87,
          "name": "D#6",
          "ticks": 13755,
          "time": 159.9418604651163,
          "velocity": 0.29133858267716534
        },
        {
          "duration": 0.034883720930224626,
          "durationTicks": 3,
          "midi": 98,
          "name": "D7",
          "ticks": 13756,
          "time": 159.95348837209303,
          "velocity": 0.07086614173228346
        },
        {
          "duration": 0.04651162790696617,
          "durationTicks": 4,
          "midi": 60,
          "name": "C4",
          "ticks": 13757,
          "time": 159.96511627906978,
          "velocity": 0.2204724409448819
        },
        {
          "duration": 0.023255813953483084,
          "durationTicks": 2,
          "midi": 60,
          "name": "C4",
          "ticks": 13770,
          "time": 160.11627906976744,
          "velocity": 0.2992125984251969
        },
        {
          "duration": 0.023255813953483084,
          "durationTicks": 2,
          "midi": 43,
          "name": "G2",
          "ticks": 13771,
          "time": 160.12790697674419,
          "velocity": 0.41732283464566927
        },
        {
          "duration": 0.034883720930224626,
          "durationTicks": 3,
          "midi": 57,
          "name": "A3",
          "ticks": 13771,
          "time": 160.12790697674419,
          "velocity": 0.36220472440944884
        },
        {
          "duration": 0.2325581395348877,
          "durationTicks": 20,
          "midi": 66,
          "name": "F#4",
          "ticks": 13771,
          "time": 160.12790697674419,
          "velocity": 0.2755905511811024
        },
        {
          "duration": 0.4651162790697754,
          "durationTicks": 40,
          "midi": 71,
          "name": "B4",
          "ticks": 13771,
          "time": 160.12790697674419,
          "velocity": 0.6062992125984252
        },
        {
          "duration": 0.2325581395348877,
          "durationTicks": 20,
          "midi": 78,
          "name": "F#5",
          "ticks": 13771,
          "time": 160.12790697674419,
          "velocity": 0.3228346456692913
        },
        {
          "duration": 0.8488372093023315,
          "durationTicks": 73,
          "midi": 81,
          "name": "A5",
          "ticks": 13772,
          "time": 160.13953488372093,
          "velocity": 0.4881889763779528
        },
        {
          "duration": 0.13953488372092693,
          "durationTicks": 12,
          "midi": 85,
          "name": "C#6",
          "ticks": 13772,
          "time": 160.13953488372093,
          "velocity": 0.14173228346456693
        },
        {
          "duration": 0.11627906976744384,
          "durationTicks": 10,
          "midi": 94,
          "name": "A#6",
          "ticks": 13772,
          "time": 160.13953488372093,
          "velocity": 0.07874015748031496
        },
        {
          "duration": 0.22093023255814614,
          "durationTicks": 19,
          "midi": 89,
          "name": "F6",
          "ticks": 13773,
          "time": 160.15116279069767,
          "velocity": 0.2125984251968504
        },
        {
          "duration": 0.023255813953483084,
          "durationTicks": 2,
          "midi": 47,
          "name": "B2",
          "ticks": 13774,
          "time": 160.1627906976744,
          "velocity": 0.33858267716535434
        },
        {
          "duration": 0.08139534883721922,
          "durationTicks": 7,
          "midi": 97,
          "name": "C#7",
          "ticks": 13774,
          "time": 160.1627906976744,
          "velocity": 0.1968503937007874
        },
        {
          "duration": 0.3953488372092977,
          "durationTicks": 34,
          "midi": 47,
          "name": "B2",
          "ticks": 13777,
          "time": 160.19767441860466,
          "velocity": 0.3464566929133858
        },
        {
          "duration": 0.05813953488373613,
          "durationTicks": 5,
          "midi": 97,
          "name": "C#7",
          "ticks": 13785,
          "time": 160.2906976744186,
          "velocity": 0.08661417322834646
        },
        {
          "duration": 0.0813953488371908,
          "durationTicks": 7,
          "midi": 76,
          "name": "E5",
          "ticks": 13790,
          "time": 160.34883720930233,
          "velocity": 0.4251968503937008
        },
        {
          "duration": 0.11627906976744384,
          "durationTicks": 10,
          "midi": 100,
          "name": "E7",
          "ticks": 13791,
          "time": 160.36046511627907,
          "velocity": 0.28346456692913385
        },
        {
          "duration": 0.27906976744185386,
          "durationTicks": 24,
          "midi": 64,
          "name": "E4",
          "ticks": 13792,
          "time": 160.37209302325581,
          "velocity": 0.5039370078740157
        },
        {
          "duration": 0.24418604651162923,
          "durationTicks": 21,
          "midi": 92,
          "name": "G#6",
          "ticks": 13792,
          "time": 160.37209302325581,
          "velocity": 0.14960629921259844
        },
        {
          "duration": 0.06976744186047767,
          "durationTicks": 6,
          "midi": 98,
          "name": "D7",
          "ticks": 13792,
          "time": 160.37209302325581,
          "velocity": 0.08661417322834646
        },
        {
          "duration": 0.19767441860466306,
          "durationTicks": 17,
          "midi": 78,
          "name": "F#5",
          "ticks": 13794,
          "time": 160.3953488372093,
          "velocity": 0.11023622047244094
        },
        {
          "duration": 0.023255813953483084,
          "durationTicks": 2,
          "midi": 79,
          "name": "G5",
          "ticks": 13811,
          "time": 160.59302325581396,
          "velocity": 0.2992125984251969
        },
        {
          "duration": 0.11627906976744384,
          "durationTicks": 10,
          "midi": 100,
          "name": "E7",
          "ticks": 13811,
          "time": 160.59302325581396,
          "velocity": 0.29133858267716534
        },
        {
          "duration": 0.44186046511626387,
          "durationTicks": 38,
          "midi": 55,
          "name": "G3",
          "ticks": 13812,
          "time": 160.6046511627907,
          "velocity": 0.31496062992125984
        },
        {
          "duration": 0.33720930232559,
          "durationTicks": 29,
          "midi": 69,
          "name": "A4",
          "ticks": 13812,
          "time": 160.6046511627907,
          "velocity": 0.5354330708661418
        },
        {
          "duration": 0.15116279069766847,
          "durationTicks": 13,
          "midi": 74,
          "name": "D5",
          "ticks": 13812,
          "time": 160.6046511627907,
          "velocity": 0.16535433070866143
        },
        {
          "duration": 0.4186046511627808,
          "durationTicks": 36,
          "midi": 48,
          "name": "C3",
          "ticks": 13814,
          "time": 160.62790697674419,
          "velocity": 0.44881889763779526
        },
        {
          "duration": 0.023255813953511506,
          "durationTicks": 2,
          "midi": 37,
          "name": "C#2",
          "ticks": 13818,
          "time": 160.67441860465115,
          "velocity": 0.4330708661417323
        },
        {
          "duration": 0.38372093023255616,
          "durationTicks": 33,
          "midi": 64,
          "name": "E4",
          "ticks": 13818,
          "time": 160.67441860465115,
          "velocity": 0.5196850393700787
        },
        {
          "duration": 0.03488372093025305,
          "durationTicks": 3,
          "midi": 78,
          "name": "F#5",
          "ticks": 13819,
          "time": 160.6860465116279,
          "velocity": 0.10236220472440945
        },
        {
          "duration": 0.05813953488370771,
          "durationTicks": 5,
          "midi": 36,
          "name": "C2",
          "ticks": 13820,
          "time": 160.69767441860466,
          "velocity": 0.3937007874015748
        },
        {
          "duration": 0.023255813953483084,
          "durationTicks": 2,
          "midi": 35,
          "name": "B1",
          "ticks": 13825,
          "time": 160.75581395348837,
          "velocity": 0.2677165354330709
        },
        {
          "duration": 0.08139534883721922,
          "durationTicks": 7,
          "midi": 36,
          "name": "C2",
          "ticks": 13829,
          "time": 160.80232558139534,
          "velocity": 0.31496062992125984
        },
        {
          "duration": 0.25581395348837077,
          "durationTicks": 22,
          "midi": 83,
          "name": "B5",
          "ticks": 13831,
          "time": 160.82558139534885,
          "velocity": 0.25984251968503935
        },
        {
          "duration": 0.2325581395348877,
          "durationTicks": 20,
          "midi": 92,
          "name": "G#6",
          "ticks": 13832,
          "time": 160.8372093023256,
          "velocity": 0.14960629921259844
        },
        {
          "duration": 0.06976744186044925,
          "durationTicks": 6,
          "midi": 98,
          "name": "D7",
          "ticks": 13832,
          "time": 160.8372093023256,
          "velocity": 0.08661417322834646
        },
        {
          "duration": 0.15116279069766847,
          "durationTicks": 13,
          "midi": 36,
          "name": "C2",
          "ticks": 13837,
          "time": 160.8953488372093,
          "velocity": 0.31496062992125984
        },
        {
          "duration": 0.03488372093025305,
          "durationTicks": 3,
          "midi": 70,
          "name": "A#4",
          "ticks": 13849,
          "time": 161.03488372093022,
          "velocity": 0.23622047244094488
        },
        {
          "duration": 0.03488372093025305,
          "durationTicks": 3,
          "midi": 61,
          "name": "C#4",
          "ticks": 13850,
          "time": 161.04651162790697,
          "velocity": 0.5275590551181102
        },
        {
          "duration": 0.4651162790697754,
          "durationTicks": 40,
          "midi": 67,
          "name": "G4",
          "ticks": 13850,
          "time": 161.04651162790697,
          "velocity": 0.4330708661417323
        },
        {
          "duration": 0.24418604651162923,
          "durationTicks": 21,
          "midi": 81,
          "name": "A5",
          "ticks": 13850,
          "time": 161.04651162790697,
          "velocity": 0.2677165354330709
        },
        {
          "duration": 0.12790697674418539,
          "durationTicks": 11,
          "midi": 86,
          "name": "D6",
          "ticks": 13850,
          "time": 161.04651162790697,
          "velocity": 0.23622047244094488
        },
        {
          "duration": 0.12790697674418539,
          "durationTicks": 11,
          "midi": 98,
          "name": "D7",
          "ticks": 13850,
          "time": 161.04651162790697,
          "velocity": 0.29133858267716534
        },
        {
          "duration": 0.17441860465117998,
          "durationTicks": 15,
          "midi": 102,
          "name": "F#7",
          "ticks": 13850,
          "time": 161.04651162790697,
          "velocity": 0.3228346456692913
        },
        {
          "duration": 0.4651162790697754,
          "durationTicks": 40,
          "midi": 48,
          "name": "C3",
          "ticks": 13851,
          "time": 161.0581395348837,
          "velocity": 0.5196850393700787
        },
        {
          "duration": 0.06976744186047767,
          "durationTicks": 6,
          "midi": 74,
          "name": "D5",
          "ticks": 13851,
          "time": 161.0581395348837,
          "velocity": 0.44881889763779526
        },
        {
          "duration": 0.2325581395348877,
          "durationTicks": 20,
          "midi": 90,
          "name": "F#6",
          "ticks": 13851,
          "time": 161.0581395348837,
          "velocity": 0.18110236220472442
        },
        {
          "duration": 0.22093023255814614,
          "durationTicks": 19,
          "midi": 91,
          "name": "G6",
          "ticks": 13851,
          "time": 161.0581395348837,
          "velocity": 0.16535433070866143
        },
        {
          "duration": 0.08139534883721922,
          "durationTicks": 7,
          "midi": 96,
          "name": "C7",
          "ticks": 13851,
          "time": 161.0581395348837,
          "velocity": 0.07874015748031496
        },
        {
          "duration": 0.20930232558137618,
          "durationTicks": 18,
          "midi": 72,
          "name": "C5",
          "ticks": 13853,
          "time": 161.08139534883722,
          "velocity": 0.29133858267716534
        },
        {
          "duration": 0.05813953488370771,
          "durationTicks": 5,
          "midi": 62,
          "name": "D4",
          "ticks": 13855,
          "time": 161.1046511627907,
          "velocity": 0.48031496062992124
        },
        {
          "duration": 0.04651162790696617,
          "durationTicks": 4,
          "midi": 76,
          "name": "E5",
          "ticks": 13866,
          "time": 161.2325581395349,
          "velocity": 0.08661417322834646
        },
        {
          "duration": 0.023255813953483084,
          "durationTicks": 2,
          "midi": 62,
          "name": "D4",
          "ticks": 13869,
          "time": 161.2674418604651,
          "velocity": 0.4409448818897638
        },
        {
          "duration": 0.2674418604651123,
          "durationTicks": 23,
          "midi": 83,
          "name": "B5",
          "ticks": 13870,
          "time": 161.27906976744185,
          "velocity": 0.25196850393700787
        },
        {
          "duration": 0.4186046511628092,
          "durationTicks": 36,
          "midi": 88,
          "name": "E6",
          "ticks": 13870,
          "time": 161.27906976744185,
          "velocity": 0.25196850393700787
        },
        {
          "duration": 0.11627906976744384,
          "durationTicks": 10,
          "midi": 100,
          "name": "E7",
          "ticks": 13870,
          "time": 161.27906976744185,
          "velocity": 0.2755905511811024
        },
        {
          "duration": 0.2790697674418823,
          "durationTicks": 24,
          "midi": 64,
          "name": "E4",
          "ticks": 13871,
          "time": 161.2906976744186,
          "velocity": 0.49606299212598426
        },
        {
          "duration": 0.24418604651162923,
          "durationTicks": 21,
          "midi": 92,
          "name": "G#6",
          "ticks": 13871,
          "time": 161.2906976744186,
          "velocity": 0.14173228346456693
        },
        {
          "duration": 0.40697674418603924,
          "durationTicks": 35,
          "midi": 81,
          "name": "A5",
          "ticks": 13889,
          "time": 161.5,
          "velocity": 0.4881889763779528
        },
        {
          "duration": 0.45348837209303383,
          "durationTicks": 39,
          "midi": 55,
          "name": "G3",
          "ticks": 13890,
          "time": 161.51162790697674,
          "velocity": 0.3228346456692913
        },
        {
          "duration": 0.034883720930224626,
          "durationTicks": 3,
          "midi": 86,
          "name": "D6",
          "ticks": 13890,
          "time": 161.51162790697674,
          "velocity": 0.14173228346456693
        },
        {
          "duration": 0.11627906976744384,
          "durationTicks": 10,
          "midi": 100,
          "name": "E7",
          "ticks": 13890,
          "time": 161.51162790697674,
          "velocity": 0.28346456692913385
        },
        {
          "duration": 0.023255813953483084,
          "durationTicks": 2,
          "midi": 47,
          "name": "B2",
          "ticks": 13891,
          "time": 161.52325581395348,
          "velocity": 0.5039370078740157
        },
        {
          "duration": 0.33720930232559,
          "durationTicks": 29,
          "midi": 69,
          "name": "A4",
          "ticks": 13891,
          "time": 161.52325581395348,
          "velocity": 0.5354330708661418
        },
        {
          "duration": 0.18604651162792152,
          "durationTicks": 16,
          "midi": 74,
          "name": "D5",
          "ticks": 13891,
          "time": 161.52325581395348,
          "velocity": 0.18110236220472442
        },
        {
          "duration": 0.05813953488373613,
          "durationTicks": 5,
          "midi": 78,
          "name": "F#5",
          "ticks": 13891,
          "time": 161.52325581395348,
          "velocity": 0.2283464566929134
        },
        {
          "duration": 0.43023255813955075,
          "durationTicks": 37,
          "midi": 48,
          "name": "C3",
          "ticks": 13893,
          "time": 161.54651162790697,
          "velocity": 0.4645669291338583
        },
        {
          "duration": 0.04651162790696617,
          "durationTicks": 4,
          "midi": 37,
          "name": "C#2",
          "ticks": 13895,
          "time": 161.56976744186048,
          "velocity": 0.4409448818897638
        },
        {
          "duration": 0.5348837209302246,
          "durationTicks": 46,
          "midi": 64,
          "name": "E4",
          "ticks": 13897,
          "time": 161.59302325581396,
          "velocity": 0.5196850393700787
        },
        {
          "duration": 0.05813953488370771,
          "durationTicks": 5,
          "midi": 36,
          "name": "C2",
          "ticks": 13899,
          "time": 161.61627906976744,
          "velocity": 0.3858267716535433
        },
        {
          "duration": 0.023255813953511506,
          "durationTicks": 2,
          "midi": 35,
          "name": "B1",
          "ticks": 13904,
          "time": 161.67441860465115,
          "velocity": 0.2677165354330709
        },
        {
          "duration": 0.0813953488371908,
          "durationTicks": 7,
          "midi": 36,
          "name": "C2",
          "ticks": 13908,
          "time": 161.72093023255815,
          "velocity": 0.31496062992125984
        },
        {
          "duration": 0.7325581395348877,
          "durationTicks": 63,
          "midi": 83,
          "name": "B5",
          "ticks": 13910,
          "time": 161.74418604651163,
          "velocity": 0.48031496062992124
        },
        {
          "duration": 0.24418604651162923,
          "durationTicks": 21,
          "midi": 92,
          "name": "G#6",
          "ticks": 13911,
          "time": 161.75581395348837,
          "velocity": 0.14960629921259844
        },
        {
          "duration": 0.06976744186047767,
          "durationTicks": 6,
          "midi": 98,
          "name": "D7",
          "ticks": 13911,
          "time": 161.75581395348837,
          "velocity": 0.08661417322834646
        },
        {
          "duration": 0.16279069767441,
          "durationTicks": 14,
          "midi": 36,
          "name": "C2",
          "ticks": 13916,
          "time": 161.8139534883721,
          "velocity": 0.31496062992125984
        },
        {
          "duration": 0.023255813953483084,
          "durationTicks": 2,
          "midi": 72,
          "name": "C5",
          "ticks": 13929,
          "time": 161.96511627906978,
          "velocity": 0.41732283464566927
        },
        {
          "duration": 0.04651162790696617,
          "durationTicks": 4,
          "midi": 81,
          "name": "A5",
          "ticks": 13929,
          "time": 161.96511627906978,
          "velocity": 0.25196850393700787
        },
        {
          "duration": 0.023255813953483084,
          "durationTicks": 2,
          "midi": 47,
          "name": "B2",
          "ticks": 13930,
          "time": 161.97674418604652,
          "velocity": 0.5354330708661418
        },
        {
          "duration": 0.16279069767441,
          "durationTicks": 14,
          "midi": 90,
          "name": "F#6",
          "ticks": 13930,
          "time": 161.97674418604652,
          "velocity": 0.2283464566929134
        },
        {
          "duration": 0.1046511627907023,
          "durationTicks": 9,
          "midi": 102,
          "name": "F#7",
          "ticks": 13930,
          "time": 161.97674418604652,
          "velocity": 0.28346456692913385
        },
        {
          "duration": 0.4302325581395223,
          "durationTicks": 37,
          "midi": 60,
          "name": "C4",
          "ticks": 13931,
          "time": 161.98837209302326,
          "velocity": 0.4409448818897638
        },
        {
          "duration": 0.2325581395348877,
          "durationTicks": 20,
          "midi": 67,
          "name": "G4",
          "ticks": 13931,
          "time": 161.98837209302326,
          "velocity": 0.4409448818897638
        },
        {
          "duration": 0.25581395348837077,
          "durationTicks": 22,
          "midi": 71,
          "name": "B4",
          "ticks": 13931,
          "time": 161.98837209302326,
          "velocity": 0.5354330708661418
        },
        {
          "duration": 0.2325581395348877,
          "durationTicks": 20,
          "midi": 91,
          "name": "G6",
          "ticks": 13931,
          "time": 161.98837209302326,
          "velocity": 0.13385826771653545
        },
        {
          "duration": 0.4418604651162923,
          "durationTicks": 38,
          "midi": 48,
          "name": "C3",
          "ticks": 13932,
          "time": 162,
          "velocity": 0.5354330708661418
        },
        {
          "duration": 0.04651162790696617,
          "durationTicks": 4,
          "midi": 55,
          "name": "G3",
          "ticks": 13932,
          "time": 162,
          "velocity": 0.1732283464566929
        },
        {
          "duration": 0.19767441860466306,
          "durationTicks": 17,
          "midi": 86,
          "name": "D6",
          "ticks": 13932,
          "time": 162,
          "velocity": 0.10236220472440945
        },
        {
          "duration": 0.2093023255814046,
          "durationTicks": 18,
          "midi": 82,
          "name": "A#5",
          "ticks": 13933,
          "time": 162.01162790697674,
          "velocity": 0.16535433070866143
        },
        {
          "duration": 0.03488372093025305,
          "durationTicks": 3,
          "midi": 37,
          "name": "C#2",
          "ticks": 13935,
          "time": 162.03488372093022,
          "velocity": 0.25196850393700787
        },
        {
          "duration": 0.08139534883721922,
          "durationTicks": 7,
          "midi": 76,
          "name": "E5",
          "ticks": 13948,
          "time": 162.1860465116279,
          "velocity": 0.4251968503937008
        },
        {
          "duration": 0.2674418604651123,
          "durationTicks": 23,
          "midi": 64,
          "name": "E4",
          "ticks": 13949,
          "time": 162.19767441860466,
          "velocity": 0.5039370078740157
        },
        {
          "duration": 0.11627906976744384,
          "durationTicks": 10,
          "midi": 100,
          "name": "E7",
          "ticks": 13949,
          "time": 162.19767441860466,
          "velocity": 0.2755905511811024
        },
        {
          "duration": 0.22093023255811772,
          "durationTicks": 19,
          "midi": 92,
          "name": "G#6",
          "ticks": 13950,
          "time": 162.2093023255814,
          "velocity": 0.14960629921259844
        },
        {
          "duration": 0.06976744186044925,
          "durationTicks": 6,
          "midi": 98,
          "name": "D7",
          "ticks": 13950,
          "time": 162.2093023255814,
          "velocity": 0.08661417322834646
        },
        {
          "duration": 0.2093023255814046,
          "durationTicks": 18,
          "midi": 67,
          "name": "G4",
          "ticks": 13952,
          "time": 162.2325581395349,
          "velocity": 0.2440944881889764
        },
        {
          "duration": 0.5697674418604777,
          "durationTicks": 49,
          "midi": 72,
          "name": "C5",
          "ticks": 13953,
          "time": 162.24418604651163,
          "velocity": 0.4566929133858268
        },
        {
          "duration": 0.2906976744186238,
          "durationTicks": 25,
          "midi": 84,
          "name": "C6",
          "ticks": 13967,
          "time": 162.40697674418604,
          "velocity": 0.5275590551181102
        },
        {
          "duration": 0.17441860465117998,
          "durationTicks": 15,
          "midi": 78,
          "name": "F#5",
          "ticks": 13968,
          "time": 162.41860465116278,
          "velocity": 0.23622047244094488
        },
        {
          "duration": 0.04651162790699459,
          "durationTicks": 4,
          "midi": 80,
          "name": "G#5",
          "ticks": 13968,
          "time": 162.41860465116278,
          "velocity": 0.2047244094488189
        },
        {
          "duration": 0.2325581395348877,
          "durationTicks": 20,
          "midi": 81,
          "name": "A5",
          "ticks": 13968,
          "time": 162.41860465116278,
          "velocity": 0.16535433070866143
        },
        {
          "duration": 0.17441860465117998,
          "durationTicks": 15,
          "midi": 100,
          "name": "E7",
          "ticks": 13968,
          "time": 162.41860465116278,
          "velocity": 0.30708661417322836
        },
        {
          "duration": 0.6395348837209553,
          "durationTicks": 55,
          "midi": 87,
          "name": "D#6",
          "ticks": 13969,
          "time": 162.43023255813952,
          "velocity": 0.2440944881889764
        },
        {
          "duration": 0.17441860465117998,
          "durationTicks": 15,
          "midi": 91,
          "name": "G6",
          "ticks": 13969,
          "time": 162.43023255813952,
          "velocity": 0.23622047244094488
        },
        {
          "duration": 0.05813953488370771,
          "durationTicks": 5,
          "midi": 47,
          "name": "B2",
          "ticks": 13970,
          "time": 162.4418604651163,
          "velocity": 0.5196850393700787
        },
        {
          "duration": 0.44186046511626387,
          "durationTicks": 38,
          "midi": 54,
          "name": "F#3",
          "ticks": 13970,
          "time": 162.4418604651163,
          "velocity": 0.3228346456692913
        },
        {
          "duration": 0.23255813953485927,
          "durationTicks": 20,
          "midi": 69,
          "name": "A4",
          "ticks": 13971,
          "time": 162.45348837209303,
          "velocity": 0.2204724409448819
        },
        {
          "duration": 0.0813953488371908,
          "durationTicks": 7,
          "midi": 85,
          "name": "C#6",
          "ticks": 13971,
          "time": 162.45348837209303,
          "velocity": 0.12598425196850394
        },
        {
          "duration": 0.023255813953483084,
          "durationTicks": 2,
          "midi": 60,
          "name": "C4",
          "ticks": 13972,
          "time": 162.46511627906978,
          "velocity": 0.2755905511811024
        },
        {
          "duration": 0.1860465116278931,
          "durationTicks": 16,
          "midi": 63,
          "name": "D#4",
          "ticks": 13974,
          "time": 162.48837209302326,
          "velocity": 0.3858267716535433
        },
        {
          "duration": 0.034883720930224626,
          "durationTicks": 3,
          "midi": 76,
          "name": "E5",
          "ticks": 13975,
          "time": 162.5,
          "velocity": 0.25196850393700787
        },
        {
          "duration": 0.83720930232559,
          "durationTicks": 72,
          "midi": 47,
          "name": "B2",
          "ticks": 13976,
          "time": 162.51162790697674,
          "velocity": 0.5196850393700787
        },
        {
          "duration": 0.03488372093025305,
          "durationTicks": 3,
          "midi": 76,
          "name": "E5",
          "ticks": 13980,
          "time": 162.5581395348837,
          "velocity": 0.1968503937007874
        },
        {
          "duration": 0.34883720930233153,
          "durationTicks": 30,
          "midi": 76,
          "name": "E5",
          "ticks": 13989,
          "time": 162.6627906976744,
          "velocity": 0.4251968503937008
        },
        {
          "duration": 0.7209302325581461,
          "durationTicks": 62,
          "midi": 83,
          "name": "B5",
          "ticks": 13989,
          "time": 162.6627906976744,
          "velocity": 0.5039370078740157
        },
        {
          "duration": 0.11627906976744384,
          "durationTicks": 10,
          "midi": 100,
          "name": "E7",
          "ticks": 13989,
          "time": 162.6627906976744,
          "velocity": 0.2755905511811024
        },
        {
          "duration": 0.24418604651162923,
          "durationTicks": 21,
          "midi": 64,
          "name": "E4",
          "ticks": 13990,
          "time": 162.67441860465115,
          "velocity": 0.49606299212598426
        },
        {
          "duration": 0.2325581395348877,
          "durationTicks": 20,
          "midi": 92,
          "name": "G#6",
          "ticks": 13990,
          "time": 162.67441860465115,
          "velocity": 0.14960629921259844
        },
        {
          "duration": 0.05813953488373613,
          "durationTicks": 5,
          "midi": 98,
          "name": "D7",
          "ticks": 13991,
          "time": 162.6860465116279,
          "velocity": 0.09448818897637795
        },
        {
          "duration": 0.4767441860465169,
          "durationTicks": 41,
          "midi": 71,
          "name": "B4",
          "ticks": 14007,
          "time": 162.87209302325581,
          "velocity": 0.5275590551181102
        },
        {
          "duration": 0.2325581395348877,
          "durationTicks": 20,
          "midi": 78,
          "name": "F#5",
          "ticks": 14008,
          "time": 162.88372093023256,
          "velocity": 0.30708661417322836
        },
        {
          "duration": 0.034883720930224626,
          "durationTicks": 3,
          "midi": 80,
          "name": "G#5",
          "ticks": 14008,
          "time": 162.88372093023256,
          "velocity": 0.18110236220472442
        },
        {
          "duration": 0.023255813953483084,
          "durationTicks": 2,
          "midi": 81,
          "name": "A5",
          "ticks": 14008,
          "time": 162.88372093023256,
          "velocity": 0.23622047244094488
        },
        {
          "duration": 0.15116279069766847,
          "durationTicks": 13,
          "midi": 85,
          "name": "C#6",
          "ticks": 14008,
          "time": 162.88372093023256,
          "velocity": 0.2440944881889764
        },
        {
          "duration": 0.1046511627907023,
          "durationTicks": 9,
          "midi": 102,
          "name": "F#7",
          "ticks": 14008,
          "time": 162.88372093023256,
          "velocity": 0.28346456692913385
        },
        {
          "duration": 0.023255813953483084,
          "durationTicks": 2,
          "midi": 58,
          "name": "A#3",
          "ticks": 14009,
          "time": 162.8953488372093,
          "velocity": 0.4645669291338583
        },
        {
          "duration": 0.22093023255814614,
          "durationTicks": 19,
          "midi": 66,
          "name": "F#4",
          "ticks": 14009,
          "time": 162.8953488372093,
          "velocity": 0.31496062992125984
        },
        {
          "duration": 0.1046511627907023,
          "durationTicks": 9,
          "midi": 94,
          "name": "A#6",
          "ticks": 14009,
          "time": 162.8953488372093,
          "velocity": 0.12598425196850394
        },
        {
          "duration": 0.3953488372093261,
          "durationTicks": 34,
          "midi": 81,
          "name": "A5",
          "ticks": 14011,
          "time": 162.91860465116278,
          "velocity": 0.16535433070866143
        },
        {
          "duration": 0.2093023255814046,
          "durationTicks": 18,
          "midi": 89,
          "name": "F6",
          "ticks": 14011,
          "time": 162.91860465116278,
          "velocity": 0.1732283464566929
        },
        {
          "duration": 0.0813953488371908,
          "durationTicks": 7,
          "midi": 76,
          "name": "E5",
          "ticks": 14027,
          "time": 163.1046511627907,
          "velocity": 0.4251968503937008
        },
        {
          "duration": 0.2674418604651123,
          "durationTicks": 23,
          "midi": 64,
          "name": "E4",
          "ticks": 14028,
          "time": 163.11627906976744,
          "velocity": 0.5039370078740157
        },
        {
          "duration": 0.034883720930224626,
          "durationTicks": 3,
          "midi": 87,
          "name": "D#6",
          "ticks": 14028,
          "time": 163.11627906976744,
          "velocity": 0.14173228346456693
        },
        {
          "duration": 0.11627906976744384,
          "durationTicks": 10,
          "midi": 100,
          "name": "E7",
          "ticks": 14028,
          "time": 163.11627906976744,
          "velocity": 0.28346456692913385
        },
        {
          "duration": 0.24418604651162923,
          "durationTicks": 21,
          "midi": 92,
          "name": "G#6",
          "ticks": 14029,
          "time": 163.12790697674419,
          "velocity": 0.14960629921259844
        },
        {
          "duration": 0.08139534883721922,
          "durationTicks": 7,
          "midi": 98,
          "name": "D7",
          "ticks": 14029,
          "time": 163.12790697674419,
          "velocity": 0.07874015748031496
        },
        {
          "duration": 0.19767441860466306,
          "durationTicks": 17,
          "midi": 78,
          "name": "F#5",
          "ticks": 14031,
          "time": 163.15116279069767,
          "velocity": 0.11811023622047244
        },
        {
          "duration": 0.40697674418603924,
          "durationTicks": 35,
          "midi": 81,
          "name": "A5",
          "ticks": 14047,
          "time": 163.3372093023256,
          "velocity": 0.4881889763779528
        },
        {
          "duration": 0.3720930232558146,
          "durationTicks": 32,
          "midi": 69,
          "name": "A4",
          "ticks": 14048,
          "time": 163.34883720930233,
          "velocity": 0.5433070866141733
        },
        {
          "duration": 0.023255813953483084,
          "durationTicks": 2,
          "midi": 79,
          "name": "G5",
          "ticks": 14048,
          "time": 163.34883720930233,
          "velocity": 0.2992125984251969
        },
        {
          "duration": 0.06976744186044925,
          "durationTicks": 6,
          "midi": 86,
          "name": "D6",
          "ticks": 14048,
          "time": 163.34883720930233,
          "velocity": 0.2047244094488189
        },
        {
          "duration": 0.5465116279069662,
          "durationTicks": 47,
          "midi": 87,
          "name": "D#6",
          "ticks": 14048,
          "time": 163.34883720930233,
          "velocity": 0.2755905511811024
        },
        {
          "duration": 0.11627906976744384,
          "durationTicks": 10,
          "midi": 100,
          "name": "E7",
          "ticks": 14048,
          "time": 163.34883720930233,
          "velocity": 0.29133858267716534
        },
        {
          "duration": 0.22093023255814614,
          "durationTicks": 19,
          "midi": 59,
          "name": "B3",
          "ticks": 14049,
          "time": 163.36046511627907,
          "velocity": 0.2992125984251969
        },
        {
          "duration": 0.034883720930224626,
          "durationTicks": 3,
          "midi": 73,
          "name": "C#5",
          "ticks": 14049,
          "time": 163.36046511627907,
          "velocity": 0.14960629921259844
        },
        {
          "duration": 0.2093023255814046,
          "durationTicks": 18,
          "midi": 78,
          "name": "F#5",
          "ticks": 14049,
          "time": 163.36046511627907,
          "velocity": 0.2677165354330709
        },
        {
          "duration": 0.04651162790696617,
          "durationTicks": 4,
          "midi": 85,
          "name": "C#6",
          "ticks": 14049,
          "time": 163.36046511627907,
          "velocity": 0.1889763779527559
        },
        {
          "duration": 0.4302325581395223,
          "durationTicks": 37,
          "midi": 47,
          "name": "B2",
          "ticks": 14050,
          "time": 163.37209302325581,
          "velocity": 0.47244094488188976
        },
        {
          "duration": 0.4302325581395223,
          "durationTicks": 37,
          "midi": 54,
          "name": "F#3",
          "ticks": 14050,
          "time": 163.37209302325581,
          "velocity": 0.33858267716535434
        },
        {
          "duration": 0.023255813953483084,
          "durationTicks": 2,
          "midi": 64,
          "name": "E4",
          "ticks": 14052,
          "time": 163.3953488372093,
          "velocity": 0.23622047244094488
        },
        {
          "duration": 0.16279069767443843,
          "durationTicks": 14,
          "midi": 63,
          "name": "D#4",
          "ticks": 14054,
          "time": 163.41860465116278,
          "velocity": 0.3858267716535433
        },
        {
          "duration": 0.03488372093025305,
          "durationTicks": 3,
          "midi": 76,
          "name": "E5",
          "ticks": 14054,
          "time": 163.41860465116278,
          "velocity": 0.2755905511811024
        },
        {
          "duration": 0.08139534883721922,
          "durationTicks": 7,
          "midi": 76,
          "name": "E5",
          "ticks": 14066,
          "time": 163.5581395348837,
          "velocity": 0.4094488188976378
        },
        {
          "duration": 0.32558139534882,
          "durationTicks": 28,
          "midi": 83,
          "name": "B5",
          "ticks": 14067,
          "time": 163.56976744186048,
          "velocity": 0.2440944881889764
        },
        {
          "duration": 0.11627906976741542,
          "durationTicks": 10,
          "midi": 100,
          "name": "E7",
          "ticks": 14067,
          "time": 163.56976744186048,
          "velocity": 0.25984251968503935
        },
        {
          "duration": 0.3488372093023031,
          "durationTicks": 30,
          "midi": 64,
          "name": "E4",
          "ticks": 14068,
          "time": 163.58139534883722,
          "velocity": 0.4881889763779528
        },
        {
          "duration": 0.4186046511627808,
          "durationTicks": 36,
          "midi": 92,
          "name": "G#6",
          "ticks": 14068,
          "time": 163.58139534883722,
          "velocity": 0.3543307086614173
        },
        {
          "duration": 0.0813953488371908,
          "durationTicks": 7,
          "midi": 98,
          "name": "D7",
          "ticks": 14068,
          "time": 163.58139534883722,
          "velocity": 0.08661417322834646
        },
        {
          "duration": 0.023255813953511506,
          "durationTicks": 2,
          "midi": 69,
          "name": "A4",
          "ticks": 14086,
          "time": 163.7906976744186,
          "velocity": 0.4015748031496063
        },
        {
          "duration": 0.023255813953511506,
          "durationTicks": 2,
          "midi": 78,
          "name": "F#5",
          "ticks": 14087,
          "time": 163.80232558139534,
          "velocity": 0.2755905511811024
        },
        {
          "duration": 0.38372093023255616,
          "durationTicks": 33,
          "midi": 80,
          "name": "G#5",
          "ticks": 14087,
          "time": 163.80232558139534,
          "velocity": 0.48031496062992124
        },
        {
          "duration": 0.11627906976744384,
          "durationTicks": 10,
          "midi": 99,
          "name": "D#7",
          "ticks": 14087,
          "time": 163.80232558139534,
          "velocity": 0.2992125984251969
        },
        {
          "duration": 0.023255813953483084,
          "durationTicks": 2,
          "midi": 42,
          "name": "F#2",
          "ticks": 14088,
          "time": 163.8139534883721,
          "velocity": 0.4094488188976378
        },
        {
          "duration": 0.023255813953483084,
          "durationTicks": 2,
          "midi": 51,
          "name": "D#3",
          "ticks": 14088,
          "time": 163.8139534883721,
          "velocity": 0.4409448818897638
        },
        {
          "duration": 0.2906976744185954,
          "durationTicks": 25,
          "midi": 68,
          "name": "G#4",
          "ticks": 14088,
          "time": 163.8139534883721,
          "velocity": 0.5590551181102362
        },
        {
          "duration": 0.16279069767441,
          "durationTicks": 14,
          "midi": 82,
          "name": "A#5",
          "ticks": 14088,
          "time": 163.8139534883721,
          "velocity": 0.2125984251968504
        },
        {
          "duration": 0.06976744186044925,
          "durationTicks": 6,
          "midi": 86,
          "name": "D6",
          "ticks": 14088,
          "time": 163.8139534883721,
          "velocity": 0.10236220472440945
        },
        {
          "duration": 0.15116279069766847,
          "durationTicks": 13,
          "midi": 74,
          "name": "D5",
          "ticks": 14089,
          "time": 163.82558139534885,
          "velocity": 0.12598425196850394
        },
        {
          "duration": 0.04651162790696617,
          "durationTicks": 4,
          "midi": 41,
          "name": "F2",
          "ticks": 14090,
          "time": 163.8372093023256,
          "velocity": 0.4409448818897638
        },
        {
          "duration": 0.09302325581393234,
          "durationTicks": 8,
          "midi": 52,
          "name": "E3",
          "ticks": 14090,
          "time": 163.8372093023256,
          "velocity": 0.4251968503937008
        },
        {
          "duration": 0.05813953488370771,
          "durationTicks": 5,
          "midi": 78,
          "name": "F#5",
          "ticks": 14092,
          "time": 163.86046511627907,
          "velocity": 0.13385826771653545
        },
        {
          "duration": 0.04651162790696617,
          "durationTicks": 4,
          "midi": 40,
          "name": "E2",
          "ticks": 14094,
          "time": 163.88372093023256,
          "velocity": 0.4251968503937008
        },
        {
          "duration": 0.1046511627907023,
          "durationTicks": 9,
          "midi": 62,
          "name": "D4",
          "ticks": 14098,
          "time": 163.93023255813952,
          "velocity": 0.2677165354330709
        },
        {
          "duration": 0.04651162790699459,
          "durationTicks": 4,
          "midi": 66,
          "name": "F#4",
          "ticks": 14098,
          "time": 163.93023255813952,
          "velocity": 0.2283464566929134
        },
        {
          "duration": 0.08139534883721922,
          "durationTicks": 7,
          "midi": 93,
          "name": "A6",
          "ticks": 14098,
          "time": 163.93023255813952,
          "velocity": 0.13385826771653545
        },
        {
          "duration": 0.023255813953483084,
          "durationTicks": 2,
          "midi": 49,
          "name": "C#3",
          "ticks": 14099,
          "time": 163.9418604651163,
          "velocity": 0.4015748031496063
        },
        {
          "duration": 0.10465116279067388,
          "durationTicks": 9,
          "midi": 57,
          "name": "A3",
          "ticks": 14099,
          "time": 163.9418604651163,
          "velocity": 0.30708661417322836
        },
        {
          "duration": 0.09302325581393234,
          "durationTicks": 8,
          "midi": 72,
          "name": "C5",
          "ticks": 14099,
          "time": 163.9418604651163,
          "velocity": 0.1889763779527559
        },
        {
          "duration": 0.05813953488370771,
          "durationTicks": 5,
          "midi": 39,
          "name": "D#2",
          "ticks": 14100,
          "time": 163.95348837209303,
          "velocity": 0.47244094488188976
        },
        {
          "duration": 0.034883720930224626,
          "durationTicks": 3,
          "midi": 50,
          "name": "D3",
          "ticks": 14101,
          "time": 163.96511627906978,
          "velocity": 0.4566929133858268
        },
        {
          "duration": 0.023255813953483084,
          "durationTicks": 2,
          "midi": 38,
          "name": "D2",
          "ticks": 14105,
          "time": 164.01162790697674,
          "velocity": 0.36220472440944884
        },
        {
          "duration": 0.034883720930224626,
          "durationTicks": 3,
          "midi": 50,
          "name": "D3",
          "ticks": 14105,
          "time": 164.01162790697674,
          "velocity": 0.4251968503937008
        },
        {
          "duration": 0.023255813953483084,
          "durationTicks": 2,
          "midi": 66,
          "name": "F#4",
          "ticks": 14105,
          "time": 164.01162790697674,
          "velocity": 0.25196850393700787
        },
        {
          "duration": 0.22093023255814614,
          "durationTicks": 19,
          "midi": 83,
          "name": "B5",
          "ticks": 14107,
          "time": 164.03488372093022,
          "velocity": 0.2125984251968504
        },
        {
          "duration": 0.023255813953511506,
          "durationTicks": 2,
          "midi": 60,
          "name": "C4",
          "ticks": 14108,
          "time": 164.04651162790697,
          "velocity": 0.25196850393700787
        },
        {
          "duration": 0.25581395348837077,
          "durationTicks": 22,
          "midi": 64,
          "name": "E4",
          "ticks": 14108,
          "time": 164.04651162790697,
          "velocity": 0.49606299212598426
        },
        {
          "duration": 0.023255813953511506,
          "durationTicks": 2,
          "midi": 47,
          "name": "B2",
          "ticks": 14109,
          "time": 164.0581395348837,
          "velocity": 0.4330708661417323
        },
        {
          "duration": 0.1046511627907023,
          "durationTicks": 9,
          "midi": 55,
          "name": "G3",
          "ticks": 14109,
          "time": 164.0581395348837,
          "velocity": 0.3779527559055118
        },
        {
          "duration": 0.04651162790699459,
          "durationTicks": 4,
          "midi": 78,
          "name": "F#5",
          "ticks": 14109,
          "time": 164.0581395348837,
          "velocity": 0.14173228346456693
        },
        {
          "duration": 0.04651162790699459,
          "durationTicks": 4,
          "midi": 91,
          "name": "G6",
          "ticks": 14109,
          "time": 164.0581395348837,
          "velocity": 0.13385826771653545
        },
        {
          "duration": 0.05813953488373613,
          "durationTicks": 5,
          "midi": 98,
          "name": "D7",
          "ticks": 14109,
          "time": 164.0581395348837,
          "velocity": 0.08661417322834646
        },
        {
          "duration": 0.05813953488370771,
          "durationTicks": 5,
          "midi": 37,
          "name": "C#2",
          "ticks": 14110,
          "time": 164.06976744186048,
          "velocity": 0.47244094488188976
        },
        {
          "duration": 0.04651162790696617,
          "durationTicks": 4,
          "midi": 82,
          "name": "A#5",
          "ticks": 14110,
          "time": 164.06976744186048,
          "velocity": 0.09448818897637795
        },
        {
          "duration": 0.10465116279067388,
          "durationTicks": 9,
          "midi": 48,
          "name": "C3",
          "ticks": 14111,
          "time": 164.08139534883722,
          "velocity": 0.5354330708661418
        },
        {
          "duration": 0.10465116279067388,
          "durationTicks": 9,
          "midi": 74,
          "name": "D5",
          "ticks": 14111,
          "time": 164.08139534883722,
          "velocity": 0.09448818897637795
        },
        {
          "duration": 0.034883720930224626,
          "durationTicks": 3,
          "midi": 36,
          "name": "C2",
          "ticks": 14115,
          "time": 164.12790697674419,
          "velocity": 0.4094488188976378
        },
        {
          "duration": 0.1046511627907023,
          "durationTicks": 9,
          "midi": 78,
          "name": "F#5",
          "ticks": 14117,
          "time": 164.15116279069767,
          "velocity": 0.13385826771653545
        },
        {
          "duration": 0.18604651162792152,
          "durationTicks": 16,
          "midi": 87,
          "name": "D#6",
          "ticks": 14117,
          "time": 164.15116279069767,
          "velocity": 0.2440944881889764
        },
        {
          "duration": 0.08139534883721922,
          "durationTicks": 7,
          "midi": 69,
          "name": "A4",
          "ticks": 14118,
          "time": 164.1627906976744,
          "velocity": 0.2204724409448819
        },
        {
          "duration": 0.48837209302325846,
          "durationTicks": 42,
          "midi": 81,
          "name": "A5",
          "ticks": 14118,
          "time": 164.1627906976744,
          "velocity": 0.4881889763779528
        },
        {
          "duration": 0.06976744186047767,
          "durationTicks": 6,
          "midi": 86,
          "name": "D6",
          "ticks": 14118,
          "time": 164.1627906976744,
          "velocity": 0.10236220472440945
        },
        {
          "duration": 0.03488372093025305,
          "durationTicks": 3,
          "midi": 35,
          "name": "B1",
          "ticks": 14119,
          "time": 164.17441860465115,
          "velocity": 0.25196850393700787
        },
        {
          "duration": 0.06976744186047767,
          "durationTicks": 6,
          "midi": 85,
          "name": "C#6",
          "ticks": 14119,
          "time": 164.17441860465115,
          "velocity": 0.09448818897637795
        },
        {
          "duration": 0.03488372093025305,
          "durationTicks": 3,
          "midi": 47,
          "name": "B2",
          "ticks": 14120,
          "time": 164.1860465116279,
          "velocity": 0.48031496062992124
        },
        {
          "duration": 0.04651162790696617,
          "durationTicks": 4,
          "midi": 54,
          "name": "F#3",
          "ticks": 14122,
          "time": 164.2093023255814,
          "velocity": 0.30708661417322836
        },
        {
          "duration": 0.023255813953483084,
          "durationTicks": 2,
          "midi": 46,
          "name": "A#2",
          "ticks": 14123,
          "time": 164.22093023255815,
          "velocity": 0.33070866141732286
        },
        {
          "duration": 0.04651162790696617,
          "durationTicks": 4,
          "midi": 59,
          "name": "B3",
          "ticks": 14124,
          "time": 164.2325581395349,
          "velocity": 0.3543307086614173
        },
        {
          "duration": 0.023255813953483084,
          "durationTicks": 2,
          "midi": 47,
          "name": "B2",
          "ticks": 14125,
          "time": 164.24418604651163,
          "velocity": 0.4330708661417323
        },
        {
          "duration": 0.023255813953483084,
          "durationTicks": 2,
          "midi": 70,
          "name": "A#4",
          "ticks": 14125,
          "time": 164.24418604651163,
          "velocity": 0.3937007874015748
        },
        {
          "duration": 0.24418604651162923,
          "durationTicks": 21,
          "midi": 79,
          "name": "G5",
          "ticks": 14126,
          "time": 164.25581395348837,
          "velocity": 0.28346456692913385
        },
        {
          "duration": 0.6860465116279215,
          "durationTicks": 59,
          "midi": 85,
          "name": "C#6",
          "ticks": 14126,
          "time": 164.25581395348837,
          "velocity": 0.2440944881889764
        },
        {
          "duration": 0.034883720930224626,
          "durationTicks": 3,
          "midi": 86,
          "name": "D6",
          "ticks": 14126,
          "time": 164.25581395348837,
          "velocity": 0.1732283464566929
        },
        {
          "duration": 0.11627906976744384,
          "durationTicks": 10,
          "midi": 100,
          "name": "E7",
          "ticks": 14126,
          "time": 164.25581395348837,
          "velocity": 0.29133858267716534
        },
        {
          "duration": 0.011627906976741542,
          "durationTicks": 1,
          "midi": 46,
          "name": "A#2",
          "ticks": 14127,
          "time": 164.2674418604651,
          "velocity": 0.5275590551181102
        },
        {
          "duration": 0.34883720930233153,
          "durationTicks": 30,
          "midi": 69,
          "name": "A4",
          "ticks": 14127,
          "time": 164.2674418604651,
          "velocity": 0.5433070866141733
        },
        {
          "duration": 0.05813953488373613,
          "durationTicks": 5,
          "midi": 73,
          "name": "C#5",
          "ticks": 14127,
          "time": 164.2674418604651,
          "velocity": 0.23622047244094488
        },
        {
          "duration": 0.034883720930224626,
          "durationTicks": 3,
          "midi": 74,
          "name": "D5",
          "ticks": 14127,
          "time": 164.2674418604651,
          "velocity": 0.2204724409448819
        },
        {
          "duration": 0.03488372093025305,
          "durationTicks": 3,
          "midi": 45,
          "name": "A2",
          "ticks": 14128,
          "time": 164.27906976744185,
          "velocity": 0.5433070866141733
        },
        {
          "duration": 0.2093023255814046,
          "durationTicks": 18,
          "midi": 61,
          "name": "C#4",
          "ticks": 14129,
          "time": 164.2906976744186,
          "velocity": 0.25984251968503935
        },
        {
          "duration": 0.08139534883721922,
          "durationTicks": 7,
          "midi": 75,
          "name": "D#5",
          "ticks": 14130,
          "time": 164.30232558139534,
          "velocity": 0.2283464566929134
        },
        {
          "duration": 0.034883720930224626,
          "durationTicks": 3,
          "midi": 64,
          "name": "E4",
          "ticks": 14131,
          "time": 164.3139534883721,
          "velocity": 0.11811023622047244
        },
        {
          "duration": 0.034883720930224626,
          "durationTicks": 3,
          "midi": 76,
          "name": "E5",
          "ticks": 14133,
          "time": 164.3372093023256,
          "velocity": 0.12598425196850394
        },
        {
          "duration": 0.04651162790696617,
          "durationTicks": 4,
          "midi": 45,
          "name": "A2",
          "ticks": 14134,
          "time": 164.34883720930233,
          "velocity": 0.4330708661417323
        },
        {
          "duration": 0.04651162790696617,
          "durationTicks": 4,
          "midi": 52,
          "name": "E3",
          "ticks": 14136,
          "time": 164.37209302325581,
          "velocity": 0.25196850393700787
        },
        {
          "duration": 0.11627906976744384,
          "durationTicks": 10,
          "midi": 75,
          "name": "D#5",
          "ticks": 14138,
          "time": 164.3953488372093,
          "velocity": 0.1889763779527559
        },
        {
          "duration": 0.12790697674418539,
          "durationTicks": 11,
          "midi": 45,
          "name": "A2",
          "ticks": 14139,
          "time": 164.40697674418604,
          "velocity": 0.4015748031496063
        },
        {
          "duration": 0.12790697674418539,
          "durationTicks": 11,
          "midi": 52,
          "name": "E3",
          "ticks": 14141,
          "time": 164.43023255813952,
          "velocity": 0.2125984251968504
        },
        {
          "duration": 0.09302325581396076,
          "durationTicks": 8,
          "midi": 76,
          "name": "E5",
          "ticks": 14146,
          "time": 164.48837209302326,
          "velocity": 0.44881889763779526
        },
        {
          "duration": 0.04651162790696617,
          "durationTicks": 4,
          "midi": 71,
          "name": "B4",
          "ticks": 14147,
          "time": 164.5,
          "velocity": 0.1889763779527559
        },
        {
          "duration": 0.32558139534884845,
          "durationTicks": 28,
          "midi": 83,
          "name": "B5",
          "ticks": 14147,
          "time": 164.5,
          "velocity": 0.23622047244094488
        },
        {
          "duration": 0.30232558139533694,
          "durationTicks": 26,
          "midi": 92,
          "name": "G#6",
          "ticks": 14147,
          "time": 164.5,
          "velocity": 0.1732283464566929
        },
        {
          "duration": 0.2325581395348877,
          "durationTicks": 20,
          "midi": 64,
          "name": "E4",
          "ticks": 14148,
          "time": 164.51162790697674,
          "velocity": 0.5039370078740157
        },
        {
          "duration": 0.06976744186047767,
          "durationTicks": 6,
          "midi": 98,
          "name": "D7",
          "ticks": 14148,
          "time": 164.51162790697674,
          "velocity": 0.09448818897637795
        },
        {
          "duration": 0.6279069767441854,
          "durationTicks": 54,
          "midi": 45,
          "name": "A2",
          "ticks": 14151,
          "time": 164.54651162790697,
          "velocity": 0.5196850393700787
        },
        {
          "duration": 0.17441860465115155,
          "durationTicks": 15,
          "midi": 52,
          "name": "E3",
          "ticks": 14153,
          "time": 164.56976744186048,
          "velocity": 0.2677165354330709
        },
        {
          "duration": 0.034883720930224626,
          "durationTicks": 3,
          "midi": 75,
          "name": "D#5",
          "ticks": 14153,
          "time": 164.56976744186048,
          "velocity": 0.12598425196850394
        },
        {
          "duration": 0.09302325581396076,
          "durationTicks": 8,
          "midi": 75,
          "name": "D#5",
          "ticks": 14157,
          "time": 164.61627906976744,
          "velocity": 0.09448818897637795
        },
        {
          "duration": 0.19767441860463464,
          "durationTicks": 17,
          "midi": 79,
          "name": "G5",
          "ticks": 14167,
          "time": 164.7325581395349,
          "velocity": 0.1968503937007874
        },
        {
          "duration": 0.25581395348837077,
          "durationTicks": 22,
          "midi": 81,
          "name": "A5",
          "ticks": 14167,
          "time": 164.7325581395349,
          "velocity": 0.23622047244094488
        },
        {
          "duration": 0.2325581395348877,
          "durationTicks": 20,
          "midi": 90,
          "name": "F#6",
          "ticks": 14167,
          "time": 164.7325581395349,
          "velocity": 0.16535433070866143
        },
        {
          "duration": 0.12790697674418539,
          "durationTicks": 11,
          "midi": 98,
          "name": "D7",
          "ticks": 14167,
          "time": 164.7325581395349,
          "velocity": 0.28346456692913385
        },
        {
          "duration": 0.16279069767441,
          "durationTicks": 14,
          "midi": 102,
          "name": "F#7",
          "ticks": 14167,
          "time": 164.7325581395349,
          "velocity": 0.31496062992125984
        },
        {
          "duration": 0.023255813953483084,
          "durationTicks": 2,
          "midi": 56,
          "name": "G#3",
          "ticks": 14168,
          "time": 164.74418604651163,
          "velocity": 0.4094488188976378
        },
        {
          "duration": 0.2093023255814046,
          "durationTicks": 18,
          "midi": 62,
          "name": "D4",
          "ticks": 14168,
          "time": 164.74418604651163,
          "velocity": 0.5039370078740157
        },
        {
          "duration": 0.7325581395348877,
          "durationTicks": 63,
          "midi": 76,
          "name": "E5",
          "ticks": 14168,
          "time": 164.74418604651163,
          "velocity": 0.4330708661417323
        },
        {
          "duration": 0.4302325581395223,
          "durationTicks": 37,
          "midi": 69,
          "name": "A4",
          "ticks": 14169,
          "time": 164.75581395348837,
          "velocity": 0.23622047244094488
        },
        {
          "duration": 0.15116279069766847,
          "durationTicks": 13,
          "midi": 93,
          "name": "A6",
          "ticks": 14169,
          "time": 164.75581395348837,
          "velocity": 0.23622047244094488
        },
        {
          "duration": 0.034883720930224626,
          "durationTicks": 3,
          "midi": 100,
          "name": "E7",
          "ticks": 14170,
          "time": 164.7674418604651,
          "velocity": 0.09448818897637795
        },
        {
          "duration": 0.32558139534882,
          "durationTicks": 28,
          "midi": 83,
          "name": "B5",
          "ticks": 14185,
          "time": 164.9418604651163,
          "velocity": 0.1968503937007874
        },
        {
          "duration": 0.16279069767441,
          "durationTicks": 14,
          "midi": 87,
          "name": "D#6",
          "ticks": 14185,
          "time": 164.9418604651163,
          "velocity": 0.15748031496062992
        },
        {
          "duration": 0.1860465116278931,
          "durationTicks": 16,
          "midi": 92,
          "name": "G#6",
          "ticks": 14185,
          "time": 164.9418604651163,
          "velocity": 0.2047244094488189
        },
        {
          "duration": 0.11627906976741542,
          "durationTicks": 10,
          "midi": 100,
          "name": "E7",
          "ticks": 14185,
          "time": 164.9418604651163,
          "velocity": 0.28346456692913385
        },
        {
          "duration": 0.034883720930224626,
          "durationTicks": 3,
          "midi": 71,
          "name": "B4",
          "ticks": 14186,
          "time": 164.95348837209303,
          "velocity": 0.1889763779527559
        },
        {
          "duration": 0.13953488372092693,
          "durationTicks": 12,
          "midi": 95,
          "name": "B6",
          "ticks": 14186,
          "time": 164.95348837209303,
          "velocity": 0.2047244094488189
        },
        {
          "duration": 0.06976744186044925,
          "durationTicks": 6,
          "midi": 98,
          "name": "D7",
          "ticks": 14186,
          "time": 164.95348837209303,
          "velocity": 0.07874015748031496
        },
        {
          "duration": 0.24418604651162923,
          "durationTicks": 21,
          "midi": 64,
          "name": "E4",
          "ticks": 14187,
          "time": 164.96511627906978,
          "velocity": 0.47244094488188976
        },
        {
          "duration": 0.13953488372092693,
          "durationTicks": 12,
          "midi": 74,
          "name": "D5",
          "ticks": 14188,
          "time": 164.97674418604652,
          "velocity": 0.2125984251968504
        },
        {
          "duration": 0.03488372093025305,
          "durationTicks": 3,
          "midi": 92,
          "name": "G#6",
          "ticks": 14204,
          "time": 165.1627906976744,
          "velocity": 0.09448818897637795
        },
        {
          "duration": 0.09302325581396076,
          "durationTicks": 8,
          "midi": 72,
          "name": "C5",
          "ticks": 14205,
          "time": 165.17441860465115,
          "velocity": 0.44881889763779526
        },
        {
          "duration": 0.7325581395348877,
          "durationTicks": 63,
          "midi": 85,
          "name": "C#6",
          "ticks": 14205,
          "time": 165.17441860465115,
          "velocity": 0.2440944881889764
        },
        {
          "duration": 0.18604651162792152,
          "durationTicks": 16,
          "midi": 100,
          "name": "E7",
          "ticks": 14205,
          "time": 165.17441860465115,
          "velocity": 0.33858267716535434
        },
        {
          "duration": 0.26744186046514073,
          "durationTicks": 23,
          "midi": 60,
          "name": "C4",
          "ticks": 14206,
          "time": 165.1860465116279,
          "velocity": 0.48031496062992124
        },
        {
          "duration": 0.22093023255814614,
          "durationTicks": 19,
          "midi": 67,
          "name": "G4",
          "ticks": 14206,
          "time": 165.1860465116279,
          "velocity": 0.2755905511811024
        },
        {
          "duration": 0.22093023255814614,
          "durationTicks": 19,
          "midi": 79,
          "name": "G5",
          "ticks": 14206,
          "time": 165.1860465116279,
          "velocity": 0.31496062992125984
        },
        {
          "duration": 0.09302325581396076,
          "durationTicks": 8,
          "midi": 94,
          "name": "A#6",
          "ticks": 14206,
          "time": 165.1860465116279,
          "velocity": 0.10236220472440945
        },
        {
          "duration": 0.4534883720930054,
          "durationTicks": 39,
          "midi": 45,
          "name": "A2",
          "ticks": 14207,
          "time": 165.19767441860466,
          "velocity": 0.4330708661417323
        },
        {
          "duration": 0.19767441860463464,
          "durationTicks": 17,
          "midi": 52,
          "name": "E3",
          "ticks": 14208,
          "time": 165.2093023255814,
          "velocity": 0.30708661417322836
        },
        {
          "duration": 0.023255813953483084,
          "durationTicks": 2,
          "midi": 74,
          "name": "D5",
          "ticks": 14208,
          "time": 165.2093023255814,
          "velocity": 0.25196850393700787
        },
        {
          "duration": 0.17441860465115155,
          "durationTicks": 15,
          "midi": 75,
          "name": "D#5",
          "ticks": 14210,
          "time": 165.2325581395349,
          "velocity": 0.2047244094488189
        },
        {
          "duration": 0.03488372093025305,
          "durationTicks": 3,
          "midi": 68,
          "name": "G#4",
          "ticks": 14225,
          "time": 165.40697674418604,
          "velocity": 0.16535433070866143
        },
        {
          "duration": 0.45348837209303383,
          "durationTicks": 39,
          "midi": 83,
          "name": "B5",
          "ticks": 14225,
          "time": 165.40697674418604,
          "velocity": 0.25984251968503935
        },
        {
          "duration": 0.30232558139536536,
          "durationTicks": 26,
          "midi": 92,
          "name": "G#6",
          "ticks": 14225,
          "time": 165.40697674418604,
          "velocity": 0.15748031496062992
        },
        {
          "duration": 0.11627906976744384,
          "durationTicks": 10,
          "midi": 100,
          "name": "E7",
          "ticks": 14225,
          "time": 165.40697674418604,
          "velocity": 0.28346456692913385
        },
        {
          "duration": 0.2093023255814046,
          "durationTicks": 18,
          "midi": 52,
          "name": "E3",
          "ticks": 14226,
          "time": 165.41860465116278,
          "velocity": 0.1968503937007874
        },
        {
          "duration": 0.7325581395348877,
          "durationTicks": 63,
          "midi": 64,
          "name": "E4",
          "ticks": 14226,
          "time": 165.41860465116278,
          "velocity": 0.5118110236220472
        },
        {
          "duration": 0.04651162790699459,
          "durationTicks": 4,
          "midi": 79,
          "name": "G5",
          "ticks": 14226,
          "time": 165.41860465116278,
          "velocity": 0.1732283464566929
        },
        {
          "duration": 0.05813953488373613,
          "durationTicks": 5,
          "midi": 98,
          "name": "D7",
          "ticks": 14227,
          "time": 165.43023255813952,
          "velocity": 0.07874015748031496
        },
        {
          "duration": 0.04651162790696617,
          "durationTicks": 4,
          "midi": 60,
          "name": "C4",
          "ticks": 14230,
          "time": 165.46511627906978,
          "velocity": 0.2125984251968504
        },
        {
          "duration": 0.034883720930224626,
          "durationTicks": 3,
          "midi": 75,
          "name": "D#5",
          "ticks": 14231,
          "time": 165.47674418604652,
          "velocity": 0.13385826771653545
        },
        {
          "duration": 0.05813953488373613,
          "durationTicks": 5,
          "midi": 75,
          "name": "D#5",
          "ticks": 14235,
          "time": 165.52325581395348,
          "velocity": 0.09448818897637795
        },
        {
          "duration": 0.023255813953483084,
          "durationTicks": 2,
          "midi": 61,
          "name": "C#4",
          "ticks": 14244,
          "time": 165.62790697674419,
          "velocity": 0.29133858267716534
        },
        {
          "duration": 0.34883720930233153,
          "durationTicks": 30,
          "midi": 71,
          "name": "B4",
          "ticks": 14244,
          "time": 165.62790697674419,
          "velocity": 0.6141732283464567
        },
        {
          "duration": 0.2325581395348877,
          "durationTicks": 20,
          "midi": 90,
          "name": "F#6",
          "ticks": 14245,
          "time": 165.63953488372093,
          "velocity": 0.25984251968503935
        },
        {
          "duration": 0.12790697674418539,
          "durationTicks": 11,
          "midi": 79,
          "name": "G5",
          "ticks": 14246,
          "time": 165.65116279069767,
          "velocity": 0.1889763779527559
        },
        {
          "duration": 0.06976744186047767,
          "durationTicks": 6,
          "midi": 87,
          "name": "D#6",
          "ticks": 14246,
          "time": 165.65116279069767,
          "velocity": 0.25196850393700787
        },
        {
          "duration": 0.09302325581396076,
          "durationTicks": 8,
          "midi": 93,
          "name": "A6",
          "ticks": 14246,
          "time": 165.65116279069767,
          "velocity": 0.11811023622047244
        },
        {
          "duration": 0.25581395348837077,
          "durationTicks": 22,
          "midi": 45,
          "name": "A2",
          "ticks": 14247,
          "time": 165.6627906976744,
          "velocity": 0.5196850393700787
        },
        {
          "duration": 0.03488372093025305,
          "durationTicks": 3,
          "midi": 100,
          "name": "E7",
          "ticks": 14248,
          "time": 165.67441860465115,
          "velocity": 0.09448818897637795
        },
        {
          "duration": 0.2906976744185954,
          "durationTicks": 25,
          "midi": 87,
          "name": "D#6",
          "ticks": 14253,
          "time": 165.7325581395349,
          "velocity": 0.2125984251968504
        },
        {
          "duration": 0.12790697674418539,
          "durationTicks": 11,
          "midi": 69,
          "name": "A4",
          "ticks": 14256,
          "time": 165.7674418604651,
          "velocity": 0.2204724409448819
        },
        {
          "duration": 0.023255813953483084,
          "durationTicks": 2,
          "midi": 58,
          "name": "A#3",
          "ticks": 14262,
          "time": 165.8372093023256,
          "velocity": 0.29133858267716534
        },
        {
          "duration": 0.023255813953483084,
          "durationTicks": 2,
          "midi": 58,
          "name": "A#3",
          "ticks": 14265,
          "time": 165.87209302325581,
          "velocity": 0.2677165354330709
        },
        {
          "duration": 0.11627906976744384,
          "durationTicks": 10,
          "midi": 100,
          "name": "E7",
          "ticks": 14265,
          "time": 165.87209302325581,
          "velocity": 0.28346456692913385
        },
        {
          "duration": 0.24418604651162923,
          "durationTicks": 21,
          "midi": 92,
          "name": "G#6",
          "ticks": 14266,
          "time": 165.88372093023256,
          "velocity": 0.16535433070866143
        },
        {
          "duration": 0.08139534883721922,
          "durationTicks": 7,
          "midi": 98,
          "name": "D7",
          "ticks": 14266,
          "time": 165.88372093023256,
          "velocity": 0.07874015748031496
        },
        {
          "duration": 0.17441860465117998,
          "durationTicks": 15,
          "midi": 45,
          "name": "A2",
          "ticks": 14270,
          "time": 165.93023255813952,
          "velocity": 0.3228346456692913
        },
        {
          "duration": 0.034883720930224626,
          "durationTicks": 3,
          "midi": 79,
          "name": "G5",
          "ticks": 14284,
          "time": 166.09302325581396,
          "velocity": 0.29133858267716534
        },
        {
          "duration": 0.40697674418603924,
          "durationTicks": 35,
          "midi": 81,
          "name": "A5",
          "ticks": 14284,
          "time": 166.09302325581396,
          "velocity": 0.48031496062992124
        },
        {
          "duration": 0.023255813953483084,
          "durationTicks": 2,
          "midi": 60,
          "name": "C4",
          "ticks": 14285,
          "time": 166.1046511627907,
          "velocity": 0.29133858267716534
        },
        {
          "duration": 0.06976744186044925,
          "durationTicks": 6,
          "midi": 86,
          "name": "D6",
          "ticks": 14285,
          "time": 166.1046511627907,
          "velocity": 0.2204724409448819
        },
        {
          "duration": 0.66279069767441,
          "durationTicks": 57,
          "midi": 87,
          "name": "D#6",
          "ticks": 14285,
          "time": 166.1046511627907,
          "velocity": 0.25196850393700787
        },
        {
          "duration": 0.11627906976744384,
          "durationTicks": 10,
          "midi": 100,
          "name": "E7",
          "ticks": 14285,
          "time": 166.1046511627907,
          "velocity": 0.28346456692913385
        },
        {
          "duration": 0.44186046511626387,
          "durationTicks": 38,
          "midi": 47,
          "name": "B2",
          "ticks": 14286,
          "time": 166.11627906976744,
          "velocity": 0.4881889763779528
        },
        {
          "duration": 0.3604651162790731,
          "durationTicks": 31,
          "midi": 69,
          "name": "A4",
          "ticks": 14286,
          "time": 166.11627906976744,
          "velocity": 0.5354330708661418
        },
        {
          "duration": 0.06976744186044925,
          "durationTicks": 6,
          "midi": 73,
          "name": "C#5",
          "ticks": 14286,
          "time": 166.11627906976744,
          "velocity": 0.18110236220472442
        },
        {
          "duration": 0.4302325581395223,
          "durationTicks": 37,
          "midi": 54,
          "name": "F#3",
          "ticks": 14287,
          "time": 166.12790697674419,
          "velocity": 0.3464566929133858
        },
        {
          "duration": 0.16279069767443843,
          "durationTicks": 14,
          "midi": 63,
          "name": "D#4",
          "ticks": 14291,
          "time": 166.17441860465115,
          "velocity": 0.3779527559055118
        },
        {
          "duration": 0.03488372093025305,
          "durationTicks": 3,
          "midi": 76,
          "name": "E5",
          "ticks": 14291,
          "time": 166.17441860465115,
          "velocity": 0.25196850393700787
        },
        {
          "duration": 0.0813953488371908,
          "durationTicks": 7,
          "midi": 76,
          "name": "E5",
          "ticks": 14303,
          "time": 166.3139534883721,
          "velocity": 0.4094488188976378
        },
        {
          "duration": 0.2906976744185954,
          "durationTicks": 25,
          "midi": 83,
          "name": "B5",
          "ticks": 14304,
          "time": 166.32558139534885,
          "velocity": 0.2440944881889764
        },
        {
          "duration": 0.11627906976744384,
          "durationTicks": 10,
          "midi": 100,
          "name": "E7",
          "ticks": 14304,
          "time": 166.32558139534885,
          "velocity": 0.2677165354330709
        },
        {
          "duration": 0.2325581395348877,
          "durationTicks": 20,
          "midi": 64,
          "name": "E4",
          "ticks": 14305,
          "time": 166.3372093023256,
          "velocity": 0.4881889763779528
        },
        {
          "duration": 0.22093023255811772,
          "durationTicks": 19,
          "midi": 92,
          "name": "G#6",
          "ticks": 14305,
          "time": 166.3372093023256,
          "velocity": 0.14960629921259844
        },
        {
          "duration": 0.0813953488371908,
          "durationTicks": 7,
          "midi": 98,
          "name": "D7",
          "ticks": 14305,
          "time": 166.3372093023256,
          "velocity": 0.07874015748031496
        },
        {
          "duration": 0.023255813953511506,
          "durationTicks": 2,
          "midi": 61,
          "name": "C#4",
          "ticks": 14324,
          "time": 166.5581395348837,
          "velocity": 0.4566929133858268
        },
        {
          "duration": 0.06976744186047767,
          "durationTicks": 6,
          "midi": 74,
          "name": "D5",
          "ticks": 14324,
          "time": 166.5581395348837,
          "velocity": 0.4566929133858268
        },
        {
          "duration": 0.2325581395348877,
          "durationTicks": 20,
          "midi": 81,
          "name": "A5",
          "ticks": 14324,
          "time": 166.5581395348837,
          "velocity": 0.29133858267716534
        },
        {
          "duration": 0.16279069767443843,
          "durationTicks": 14,
          "midi": 102,
          "name": "F#7",
          "ticks": 14324,
          "time": 166.5581395348837,
          "velocity": 0.3228346456692913
        },
        {
          "duration": 0.023255813953483084,
          "durationTicks": 2,
          "midi": 58,
          "name": "A#3",
          "ticks": 14325,
          "time": 166.56976744186048,
          "velocity": 0.4409448818897638
        },
        {
          "duration": 0.22093023255811772,
          "durationTicks": 19,
          "midi": 66,
          "name": "F#4",
          "ticks": 14325,
          "time": 166.56976744186048,
          "velocity": 0.31496062992125984
        },
        {
          "duration": 0.22093023255811772,
          "durationTicks": 19,
          "midi": 78,
          "name": "F#5",
          "ticks": 14325,
          "time": 166.56976744186048,
          "velocity": 0.3228346456692913
        },
        {
          "duration": 0.13953488372092693,
          "durationTicks": 12,
          "midi": 85,
          "name": "C#6",
          "ticks": 14325,
          "time": 166.56976744186048,
          "velocity": 0.1889763779527559
        },
        {
          "duration": 0.11627906976741542,
          "durationTicks": 10,
          "midi": 94,
          "name": "A#6",
          "ticks": 14325,
          "time": 166.56976744186048,
          "velocity": 0.08661417322834646
        },
        {
          "duration": 0.0813953488371908,
          "durationTicks": 7,
          "midi": 96,
          "name": "C7",
          "ticks": 14325,
          "time": 166.56976744186048,
          "velocity": 0.07086614173228346
        },
        {
          "duration": 0.22093023255811772,
          "durationTicks": 19,
          "midi": 62,
          "name": "D4",
          "ticks": 14326,
          "time": 166.58139534883722,
          "velocity": 0.5118110236220472
        },
        {
          "duration": 0.034883720930224626,
          "durationTicks": 3,
          "midi": 69,
          "name": "A4",
          "ticks": 14326,
          "time": 166.58139534883722,
          "velocity": 0.13385826771653545
        },
        {
          "duration": 0.44186046511626387,
          "durationTicks": 38,
          "midi": 71,
          "name": "B4",
          "ticks": 14326,
          "time": 166.58139534883722,
          "velocity": 0.25984251968503935
        },
        {
          "duration": 0.13953488372092693,
          "durationTicks": 12,
          "midi": 76,
          "name": "E5",
          "ticks": 14326,
          "time": 166.58139534883722,
          "velocity": 0.25196850393700787
        },
        {
          "duration": 0.20930232558137618,
          "durationTicks": 18,
          "midi": 89,
          "name": "F6",
          "ticks": 14326,
          "time": 166.58139534883722,
          "velocity": 0.2047244094488189
        },
        {
          "duration": 0.4302325581395223,
          "durationTicks": 37,
          "midi": 47,
          "name": "B2",
          "ticks": 14327,
          "time": 166.59302325581396,
          "velocity": 0.36220472440944884
        },
        {
          "duration": 0.08139534883721922,
          "durationTicks": 7,
          "midi": 76,
          "name": "E5",
          "ticks": 14343,
          "time": 166.77906976744185,
          "velocity": 0.4330708661417323
        },
        {
          "duration": 0.03488372093025305,
          "durationTicks": 3,
          "midi": 87,
          "name": "D#6",
          "ticks": 14344,
          "time": 166.7906976744186,
          "velocity": 0.14173228346456693
        },
        {
          "duration": 0.11627906976744384,
          "durationTicks": 10,
          "midi": 100,
          "name": "E7",
          "ticks": 14344,
          "time": 166.7906976744186,
          "velocity": 0.2755905511811024
        },
        {
          "duration": 0.25581395348837077,
          "durationTicks": 22,
          "midi": 64,
          "name": "E4",
          "ticks": 14345,
          "time": 166.80232558139534,
          "velocity": 0.49606299212598426
        },
        {
          "duration": 0.04651162790699459,
          "durationTicks": 4,
          "midi": 81,
          "name": "A5",
          "ticks": 14345,
          "time": 166.80232558139534,
          "velocity": 0.12598425196850394
        },
        {
          "duration": 0.24418604651162923,
          "durationTicks": 21,
          "midi": 92,
          "name": "G#6",
          "ticks": 14345,
          "time": 166.80232558139534,
          "velocity": 0.15748031496062992
        },
        {
          "duration": 0.20930232558137618,
          "durationTicks": 18,
          "midi": 78,
          "name": "F#5",
          "ticks": 14347,
          "time": 166.82558139534885,
          "velocity": 0.2283464566929134
        },
        {
          "duration": 0.034883720930224626,
          "durationTicks": 3,
          "midi": 81,
          "name": "A5",
          "ticks": 14351,
          "time": 166.87209302325581,
          "velocity": 0.07086614173228346
        },
        {
          "duration": 0.023255813953483084,
          "durationTicks": 2,
          "midi": 46,
          "name": "A#2",
          "ticks": 14364,
          "time": 167.02325581395348,
          "velocity": 0.4566929133858268
        },
        {
          "duration": 0.27906976744185386,
          "durationTicks": 24,
          "midi": 60,
          "name": "C4",
          "ticks": 14364,
          "time": 167.02325581395348,
          "velocity": 0.49606299212598426
        },
        {
          "duration": 0.2325581395348877,
          "durationTicks": 20,
          "midi": 79,
          "name": "G5",
          "ticks": 14364,
          "time": 167.02325581395348,
          "velocity": 0.2992125984251969
        },
        {
          "duration": 0.2674418604651123,
          "durationTicks": 23,
          "midi": 81,
          "name": "A5",
          "ticks": 14364,
          "time": 167.02325581395348,
          "velocity": 0.16535433070866143
        },
        {
          "duration": 0.24418604651162923,
          "durationTicks": 21,
          "midi": 84,
          "name": "C6",
          "ticks": 14364,
          "time": 167.02325581395348,
          "velocity": 0.28346456692913385
        },
        {
          "duration": 0.05813953488373613,
          "durationTicks": 5,
          "midi": 85,
          "name": "C#6",
          "ticks": 14364,
          "time": 167.02325581395348,
          "velocity": 0.11811023622047244
        },
        {
          "duration": 0.24418604651162923,
          "durationTicks": 21,
          "midi": 87,
          "name": "D#6",
          "ticks": 14364,
          "time": 167.02325581395348,
          "velocity": 0.25196850393700787
        },
        {
          "duration": 0.13953488372092693,
          "durationTicks": 12,
          "midi": 96,
          "name": "C7",
          "ticks": 14364,
          "time": 167.02325581395348,
          "velocity": 0.2992125984251969
        },
        {
          "duration": 0.18604651162792152,
          "durationTicks": 16,
          "midi": 100,
          "name": "E7",
          "ticks": 14364,
          "time": 167.02325581395348,
          "velocity": 0.33858267716535434
        },
        {
          "duration": 0.03488372093025305,
          "durationTicks": 3,
          "midi": 86,
          "name": "D6",
          "ticks": 14365,
          "time": 167.03488372093022,
          "velocity": 0.08661417322834646
        },
        {
          "duration": 0.43023255813955075,
          "durationTicks": 37,
          "midi": 47,
          "name": "B2",
          "ticks": 14366,
          "time": 167.04651162790697,
          "velocity": 0.48031496062992124
        },
        {
          "duration": 0.43023255813955075,
          "durationTicks": 37,
          "midi": 54,
          "name": "F#3",
          "ticks": 14366,
          "time": 167.04651162790697,
          "velocity": 0.33858267716535434
        },
        {
          "duration": 0.22093023255814614,
          "durationTicks": 19,
          "midi": 69,
          "name": "A4",
          "ticks": 14366,
          "time": 167.04651162790697,
          "velocity": 0.2283464566929134
        },
        {
          "duration": 0.09302325581396076,
          "durationTicks": 8,
          "midi": 94,
          "name": "A#6",
          "ticks": 14366,
          "time": 167.04651162790697,
          "velocity": 0.11811023622047244
        },
        {
          "duration": 0.034883720930224626,
          "durationTicks": 3,
          "midi": 64,
          "name": "E4",
          "ticks": 14368,
          "time": 167.06976744186048,
          "velocity": 0.23622047244094488
        },
        {
          "duration": 0.034883720930224626,
          "durationTicks": 3,
          "midi": 76,
          "name": "E5",
          "ticks": 14370,
          "time": 167.09302325581396,
          "velocity": 0.2755905511811024
        },
        {
          "duration": 0.034883720930224626,
          "durationTicks": 3,
          "midi": 78,
          "name": "F#5",
          "ticks": 14371,
          "time": 167.1046511627907,
          "velocity": 0.09448818897637795
        },
        {
          "duration": 0.3720930232558146,
          "durationTicks": 32,
          "midi": 88,
          "name": "E6",
          "ticks": 14373,
          "time": 167.12790697674419,
          "velocity": 0.2440944881889764
        },
        {
          "duration": 0.034883720930224626,
          "durationTicks": 3,
          "midi": 77,
          "name": "F5",
          "ticks": 14381,
          "time": 167.22093023255815,
          "velocity": 0.10236220472440945
        },
        {
          "duration": 0.08139534883721922,
          "durationTicks": 7,
          "midi": 76,
          "name": "E5",
          "ticks": 14383,
          "time": 167.24418604651163,
          "velocity": 0.41732283464566927
        },
        {
          "duration": 0.27906976744185386,
          "durationTicks": 24,
          "midi": 64,
          "name": "E4",
          "ticks": 14384,
          "time": 167.25581395348837,
          "velocity": 0.5118110236220472
        },
        {
          "duration": 0.38372093023255616,
          "durationTicks": 33,
          "midi": 83,
          "name": "B5",
          "ticks": 14384,
          "time": 167.25581395348837,
          "velocity": 0.2440944881889764
        },
        {
          "duration": 0.11627906976744384,
          "durationTicks": 10,
          "midi": 100,
          "name": "E7",
          "ticks": 14384,
          "time": 167.25581395348837,
          "velocity": 0.28346456692913385
        },
        {
          "duration": 0.2325581395348877,
          "durationTicks": 20,
          "midi": 92,
          "name": "G#6",
          "ticks": 14385,
          "time": 167.2674418604651,
          "velocity": 0.14173228346456693
        },
        {
          "duration": 0.38372093023255616,
          "durationTicks": 33,
          "midi": 87,
          "name": "D#6",
          "ticks": 14386,
          "time": 167.27906976744185,
          "velocity": 0.29133858267716534
        },
        {
          "duration": 0.03488372093025305,
          "durationTicks": 3,
          "midi": 98,
          "name": "D7",
          "ticks": 14388,
          "time": 167.30232558139534,
          "velocity": 0.07086614173228346
        },
        {
          "duration": 0.04651162790696617,
          "durationTicks": 4,
          "midi": 60,
          "name": "C4",
          "ticks": 14389,
          "time": 167.3139534883721,
          "velocity": 0.2204724409448819
        },
        {
          "duration": 0.023255813953483084,
          "durationTicks": 2,
          "midi": 60,
          "name": "C4",
          "ticks": 14402,
          "time": 167.46511627906978,
          "velocity": 0.2992125984251969
        },
        {
          "duration": 0.023255813953483084,
          "durationTicks": 2,
          "midi": 43,
          "name": "G2",
          "ticks": 14403,
          "time": 167.47674418604652,
          "velocity": 0.41732283464566927
        },
        {
          "duration": 0.034883720930224626,
          "durationTicks": 3,
          "midi": 57,
          "name": "A3",
          "ticks": 14403,
          "time": 167.47674418604652,
          "velocity": 0.36220472440944884
        },
        {
          "duration": 0.2325581395348877,
          "durationTicks": 20,
          "midi": 66,
          "name": "F#4",
          "ticks": 14403,
          "time": 167.47674418604652,
          "velocity": 0.2755905511811024
        },
        {
          "duration": 0.4534883720930054,
          "durationTicks": 39,
          "midi": 71,
          "name": "B4",
          "ticks": 14403,
          "time": 167.47674418604652,
          "velocity": 0.6062992125984252
        },
        {
          "duration": 0.2325581395348877,
          "durationTicks": 20,
          "midi": 78,
          "name": "F#5",
          "ticks": 14403,
          "time": 167.47674418604652,
          "velocity": 0.31496062992125984
        },
        {
          "duration": 0.4186046511627808,
          "durationTicks": 36,
          "midi": 81,
          "name": "A5",
          "ticks": 14404,
          "time": 167.48837209302326,
          "velocity": 0.2047244094488189
        },
        {
          "duration": 0.13953488372092693,
          "durationTicks": 12,
          "midi": 85,
          "name": "C#6",
          "ticks": 14404,
          "time": 167.48837209302326,
          "velocity": 0.14960629921259844
        },
        {
          "duration": 0.27906976744185386,
          "durationTicks": 24,
          "midi": 93,
          "name": "A6",
          "ticks": 14404,
          "time": 167.48837209302326,
          "velocity": 0.2047244094488189
        },
        {
          "duration": 0.11627906976744384,
          "durationTicks": 10,
          "midi": 94,
          "name": "A#6",
          "ticks": 14404,
          "time": 167.48837209302326,
          "velocity": 0.07874015748031496
        },
        {
          "duration": 0.22093023255814614,
          "durationTicks": 19,
          "midi": 89,
          "name": "F6",
          "ticks": 14405,
          "time": 167.5,
          "velocity": 0.2125984251968504
        },
        {
          "duration": 0.023255813953483084,
          "durationTicks": 2,
          "midi": 47,
          "name": "B2",
          "ticks": 14406,
          "time": 167.51162790697674,
          "velocity": 0.33858267716535434
        },
        {
          "duration": 0.08139534883721922,
          "durationTicks": 7,
          "midi": 97,
          "name": "C#7",
          "ticks": 14406,
          "time": 167.51162790697674,
          "velocity": 0.1968503937007874
        },
        {
          "duration": 0.38372093023255616,
          "durationTicks": 33,
          "midi": 47,
          "name": "B2",
          "ticks": 14409,
          "time": 167.54651162790697,
          "velocity": 0.3464566929133858
        },
        {
          "duration": 0.04651162790696617,
          "durationTicks": 4,
          "midi": 97,
          "name": "C#7",
          "ticks": 14417,
          "time": 167.63953488372093,
          "velocity": 0.08661417322834646
        },
        {
          "duration": 0.0813953488371908,
          "durationTicks": 7,
          "midi": 76,
          "name": "E5",
          "ticks": 14422,
          "time": 167.69767441860466,
          "velocity": 0.4251968503937008
        },
        {
          "duration": 0.11627906976744384,
          "durationTicks": 10,
          "midi": 100,
          "name": "E7",
          "ticks": 14423,
          "time": 167.7093023255814,
          "velocity": 0.2755905511811024
        },
        {
          "duration": 0.25581395348837077,
          "durationTicks": 22,
          "midi": 64,
          "name": "E4",
          "ticks": 14424,
          "time": 167.72093023255815,
          "velocity": 0.5039370078740157
        },
        {
          "duration": 0.22093023255814614,
          "durationTicks": 19,
          "midi": 92,
          "name": "G#6",
          "ticks": 14424,
          "time": 167.72093023255815,
          "velocity": 0.14960629921259844
        },
        {
          "duration": 0.06976744186044925,
          "durationTicks": 6,
          "midi": 98,
          "name": "D7",
          "ticks": 14424,
          "time": 167.72093023255815,
          "velocity": 0.08661417322834646
        },
        {
          "duration": 0.1860465116278931,
          "durationTicks": 16,
          "midi": 78,
          "name": "F#5",
          "ticks": 14426,
          "time": 167.74418604651163,
          "velocity": 0.15748031496062992
        },
        {
          "duration": 0.40697674418606766,
          "durationTicks": 35,
          "midi": 81,
          "name": "A5",
          "ticks": 14441,
          "time": 167.91860465116278,
          "velocity": 0.4881889763779528
        },
        {
          "duration": 0.4767441860465169,
          "durationTicks": 41,
          "midi": 55,
          "name": "G3",
          "ticks": 14442,
          "time": 167.93023255813952,
          "velocity": 0.31496062992125984
        },
        {
          "duration": 0.023255813953511506,
          "durationTicks": 2,
          "midi": 79,
          "name": "G5",
          "ticks": 14442,
          "time": 167.93023255813952,
          "velocity": 0.29133858267716534
        },
        {
          "duration": 0.11627906976744384,
          "durationTicks": 10,
          "midi": 100,
          "name": "E7",
          "ticks": 14442,
          "time": 167.93023255813952,
          "velocity": 0.29133858267716534
        },
        {
          "duration": 0.22093023255811772,
          "durationTicks": 19,
          "midi": 60,
          "name": "C4",
          "ticks": 14443,
          "time": 167.9418604651163,
          "velocity": 0.23622047244094488
        },
        {
          "duration": 0.33720930232556157,
          "durationTicks": 29,
          "midi": 69,
          "name": "A4",
          "ticks": 14443,
          "time": 167.9418604651163,
          "velocity": 0.5354330708661418
        },
        {
          "duration": 0.1860465116278931,
          "durationTicks": 16,
          "midi": 74,
          "name": "D5",
          "ticks": 14443,
          "time": 167.9418604651163,
          "velocity": 0.16535433070866143
        },
        {
          "duration": 0.12790697674418539,
          "durationTicks": 11,
          "midi": 83,
          "name": "B5",
          "ticks": 14443,
          "time": 167.9418604651163,
          "velocity": 0.15748031496062992
        },
        {
          "duration": 0.44186046511626387,
          "durationTicks": 38,
          "midi": 48,
          "name": "C3",
          "ticks": 14445,
          "time": 167.96511627906978,
          "velocity": 0.4409448818897638
        },
        {
          "duration": 0.06976744186044925,
          "durationTicks": 6,
          "midi": 78,
          "name": "F#5",
          "ticks": 14445,
          "time": 167.96511627906978,
          "velocity": 0.18110236220472442
        },
        {
          "duration": 0.023255813953483084,
          "durationTicks": 2,
          "midi": 37,
          "name": "C#2",
          "ticks": 14447,
          "time": 167.98837209302326,
          "velocity": 0.4330708661417323
        },
        {
          "duration": 0.5116279069767415,
          "durationTicks": 44,
          "midi": 64,
          "name": "E4",
          "ticks": 14447,
          "time": 167.98837209302326,
          "velocity": 0.5196850393700787
        },
        {
          "duration": 0.034883720930224626,
          "durationTicks": 3,
          "midi": 91,
          "name": "G6",
          "ticks": 14449,
          "time": 168.01162790697674,
          "velocity": 0.07086614173228346
        },
        {
          "duration": 0.05813953488373613,
          "durationTicks": 5,
          "midi": 36,
          "name": "C2",
          "ticks": 14451,
          "time": 168.03488372093022,
          "velocity": 0.3858267716535433
        },
        {
          "duration": 0.023255813953483084,
          "durationTicks": 2,
          "midi": 35,
          "name": "B1",
          "ticks": 14456,
          "time": 168.09302325581396,
          "velocity": 0.2677165354330709
        },
        {
          "duration": 0.08139534883721922,
          "durationTicks": 7,
          "midi": 36,
          "name": "C2",
          "ticks": 14460,
          "time": 168.13953488372093,
          "velocity": 0.31496062992125984
        },
        {
          "duration": 0.24418604651162923,
          "durationTicks": 21,
          "midi": 83,
          "name": "B5",
          "ticks": 14462,
          "time": 168.1627906976744,
          "velocity": 0.25196850393700787
        },
        {
          "duration": 0.2325581395348877,
          "durationTicks": 20,
          "midi": 92,
          "name": "G#6",
          "ticks": 14463,
          "time": 168.17441860465115,
          "velocity": 0.14960629921259844
        },
        {
          "duration": 0.06976744186047767,
          "durationTicks": 6,
          "midi": 98,
          "name": "D7",
          "ticks": 14463,
          "time": 168.17441860465115,
          "velocity": 0.07874015748031496
        },
        {
          "duration": 0.16279069767441,
          "durationTicks": 14,
          "midi": 36,
          "name": "C2",
          "ticks": 14468,
          "time": 168.2325581395349,
          "velocity": 0.30708661417322836
        },
        {
          "duration": 0.023255813953483084,
          "durationTicks": 2,
          "midi": 79,
          "name": "G5",
          "ticks": 14482,
          "time": 168.3953488372093,
          "velocity": 0.2677165354330709
        },
        {
          "duration": 0.3953488372092977,
          "durationTicks": 34,
          "midi": 81,
          "name": "A5",
          "ticks": 14482,
          "time": 168.3953488372093,
          "velocity": 0.4881889763779528
        },
        {
          "duration": 0.22093023255814614,
          "durationTicks": 19,
          "midi": 69,
          "name": "A4",
          "ticks": 14483,
          "time": 168.40697674418604,
          "velocity": 0.5275590551181102
        },
        {
          "duration": 0.1046511627907023,
          "durationTicks": 9,
          "midi": 100,
          "name": "E7",
          "ticks": 14483,
          "time": 168.40697674418604,
          "velocity": 0.2992125984251969
        },
        {
          "duration": 0.4418604651162923,
          "durationTicks": 38,
          "midi": 48,
          "name": "C3",
          "ticks": 14484,
          "time": 168.41860465116278,
          "velocity": 0.5118110236220472
        },
        {
          "duration": 0.03488372093025305,
          "durationTicks": 3,
          "midi": 83,
          "name": "B5",
          "ticks": 14484,
          "time": 168.41860465116278,
          "velocity": 0.15748031496062992
        },
        {
          "duration": 0.09302325581396076,
          "durationTicks": 8,
          "midi": 90,
          "name": "F#6",
          "ticks": 14484,
          "time": 168.41860465116278,
          "velocity": 0.09448818897637795
        },
        {
          "duration": 0.08139534883721922,
          "durationTicks": 7,
          "midi": 95,
          "name": "B6",
          "ticks": 14484,
          "time": 168.41860465116278,
          "velocity": 0.1732283464566929
        },
        {
          "duration": 0.17441860465115155,
          "durationTicks": 15,
          "midi": 86,
          "name": "D6",
          "ticks": 14486,
          "time": 168.4418604651163,
          "velocity": 0.08661417322834646
        },
        {
          "duration": 0.09302325581393234,
          "durationTicks": 8,
          "midi": 67,
          "name": "G4",
          "ticks": 14487,
          "time": 168.45348837209303,
          "velocity": 0.4409448818897638
        },
        {
          "duration": 0.034883720930224626,
          "durationTicks": 3,
          "midi": 64,
          "name": "E4",
          "ticks": 14492,
          "time": 168.51162790697674,
          "velocity": 0.07874015748031496
        },
        {
          "duration": 0.11627906976744384,
          "durationTicks": 10,
          "midi": 76,
          "name": "E5",
          "ticks": 14493,
          "time": 168.52325581395348,
          "velocity": 0.14173228346456693
        },
        {
          "duration": 0.5581395348837361,
          "durationTicks": 48,
          "midi": 67,
          "name": "G4",
          "ticks": 14496,
          "time": 168.5581395348837,
          "velocity": 0.33858267716535434
        },
        {
          "duration": 0.3720930232558146,
          "durationTicks": 32,
          "midi": 83,
          "name": "B5",
          "ticks": 14501,
          "time": 168.61627906976744,
          "velocity": 0.4881889763779528
        },
        {
          "duration": 0.1046511627907023,
          "durationTicks": 9,
          "midi": 102,
          "name": "F#7",
          "ticks": 14502,
          "time": 168.62790697674419,
          "velocity": 0.28346456692913385
        },
        {
          "duration": 0.034883720930224626,
          "durationTicks": 3,
          "midi": 28,
          "name": "E1",
          "ticks": 14503,
          "time": 168.63953488372093,
          "velocity": 0.12598425196850394
        },
        {
          "duration": 0.22093023255814614,
          "durationTicks": 19,
          "midi": 71,
          "name": "B4",
          "ticks": 14503,
          "time": 168.63953488372093,
          "velocity": 0.5354330708661418
        },
        {
          "duration": 0.15116279069766847,
          "durationTicks": 13,
          "midi": 90,
          "name": "F#6",
          "ticks": 14503,
          "time": 168.63953488372093,
          "velocity": 0.2283464566929134
        },
        {
          "duration": 0.24418604651162923,
          "durationTicks": 21,
          "midi": 84,
          "name": "C6",
          "ticks": 14520,
          "time": 168.8372093023256,
          "velocity": 0.5354330708661418
        },
        {
          "duration": 0.4534883720930054,
          "durationTicks": 39,
          "midi": 55,
          "name": "G3",
          "ticks": 14521,
          "time": 168.84883720930233,
          "velocity": 0.33070866141732286
        },
        {
          "duration": 0.2325581395348877,
          "durationTicks": 20,
          "midi": 72,
          "name": "C5",
          "ticks": 14521,
          "time": 168.84883720930233,
          "velocity": 0.4566929133858268
        },
        {
          "duration": 0.034883720930224626,
          "durationTicks": 3,
          "midi": 78,
          "name": "F#5",
          "ticks": 14521,
          "time": 168.84883720930233,
          "velocity": 0.2125984251968504
        },
        {
          "duration": 0.023255813953483084,
          "durationTicks": 2,
          "midi": 81,
          "name": "A5",
          "ticks": 14521,
          "time": 168.84883720930233,
          "velocity": 0.25196850393700787
        },
        {
          "duration": 0.034883720930224626,
          "durationTicks": 3,
          "midi": 89,
          "name": "F6",
          "ticks": 14521,
          "time": 168.84883720930233,
          "velocity": 0.16535433070866143
        },
        {
          "duration": 0.17441860465115155,
          "durationTicks": 15,
          "midi": 100,
          "name": "E7",
          "ticks": 14521,
          "time": 168.84883720930233,
          "velocity": 0.2992125984251969
        },
        {
          "duration": 0.023255813953483084,
          "durationTicks": 2,
          "midi": 47,
          "name": "B2",
          "ticks": 14522,
          "time": 168.86046511627907,
          "velocity": 0.5118110236220472
        },
        {
          "duration": 0.45348837209303383,
          "durationTicks": 39,
          "midi": 64,
          "name": "E4",
          "ticks": 14522,
          "time": 168.86046511627907,
          "velocity": 0.1968503937007874
        },
        {
          "duration": 0.17441860465115155,
          "durationTicks": 15,
          "midi": 91,
          "name": "G6",
          "ticks": 14522,
          "time": 168.86046511627907,
          "velocity": 0.2755905511811024
        },
        {
          "duration": 0.034883720930224626,
          "durationTicks": 3,
          "midi": 80,
          "name": "G#5",
          "ticks": 14523,
          "time": 168.87209302325581,
          "velocity": 0.2125984251968504
        },
        {
          "duration": 0.034883720930224626,
          "durationTicks": 3,
          "midi": 88,
          "name": "E6",
          "ticks": 14523,
          "time": 168.87209302325581,
          "velocity": 0.08661417322834646
        },
        {
          "duration": 0.05813953488373613,
          "durationTicks": 5,
          "midi": 37,
          "name": "C#2",
          "ticks": 14524,
          "time": 168.88372093023256,
          "velocity": 0.4566929133858268
        },
        {
          "duration": 0.43023255813955075,
          "durationTicks": 37,
          "midi": 48,
          "name": "C3",
          "ticks": 14524,
          "time": 168.88372093023256,
          "velocity": 0.48031496062992124
        },
        {
          "duration": 0.04651162790699459,
          "durationTicks": 4,
          "midi": 82,
          "name": "A#5",
          "ticks": 14526,
          "time": 168.90697674418604,
          "velocity": 0.07874015748031496
        },
        {
          "duration": 0.03488372093025305,
          "durationTicks": 3,
          "midi": 74,
          "name": "D5",
          "ticks": 14528,
          "time": 168.93023255813952,
          "velocity": 0.08661417322834646
        },
        {
          "duration": 0.09302325581393234,
          "durationTicks": 8,
          "midi": 36,
          "name": "C2",
          "ticks": 14529,
          "time": 168.9418604651163,
          "velocity": 0.4251968503937008
        },
        {
          "duration": 0.04651162790696617,
          "durationTicks": 4,
          "midi": 70,
          "name": "A#4",
          "ticks": 14529,
          "time": 168.9418604651163,
          "velocity": 0.15748031496062992
        },
        {
          "duration": 0.04651162790696617,
          "durationTicks": 4,
          "midi": 70,
          "name": "A#4",
          "ticks": 14534,
          "time": 169,
          "velocity": 0.08661417322834646
        },
        {
          "duration": 0.023255813953483084,
          "durationTicks": 2,
          "midi": 35,
          "name": "B1",
          "ticks": 14537,
          "time": 169.03488372093022,
          "velocity": 0.25984251968503935
        },
        {
          "duration": 0.25581395348837077,
          "durationTicks": 22,
          "midi": 71,
          "name": "B4",
          "ticks": 14540,
          "time": 169.06976744186048,
          "velocity": 0.5511811023622047
        },
        {
          "duration": 0.023255813953483084,
          "durationTicks": 2,
          "midi": 81,
          "name": "A5",
          "ticks": 14540,
          "time": 169.06976744186048,
          "velocity": 0.2440944881889764
        },
        {
          "duration": 0.10465116279067388,
          "durationTicks": 9,
          "midi": 102,
          "name": "F#7",
          "ticks": 14540,
          "time": 169.06976744186048,
          "velocity": 0.28346456692913385
        },
        {
          "duration": 0.023255813953483084,
          "durationTicks": 2,
          "midi": 35,
          "name": "B1",
          "ticks": 14541,
          "time": 169.08139534883722,
          "velocity": 0.31496062992125984
        },
        {
          "duration": 0.023255813953483084,
          "durationTicks": 2,
          "midi": 73,
          "name": "C#5",
          "ticks": 14541,
          "time": 169.08139534883722,
          "velocity": 0.23622047244094488
        },
        {
          "duration": 0.15116279069766847,
          "durationTicks": 13,
          "midi": 90,
          "name": "F#6",
          "ticks": 14541,
          "time": 169.08139534883722,
          "velocity": 0.2283464566929134
        },
        {
          "duration": 0.09302325581396076,
          "durationTicks": 8,
          "midi": 36,
          "name": "C2",
          "ticks": 14543,
          "time": 169.1046511627907,
          "velocity": 0.31496062992125984
        },
        {
          "duration": 0.09302325581393234,
          "durationTicks": 8,
          "midi": 36,
          "name": "C2",
          "ticks": 14552,
          "time": 169.2093023255814,
          "velocity": 0.2677165354330709
        },
        {
          "duration": 0.2790697674418823,
          "durationTicks": 24,
          "midi": 84,
          "name": "C6",
          "ticks": 14560,
          "time": 169.30232558139534,
          "velocity": 0.5275590551181102
        },
        {
          "duration": 0.023255813953483084,
          "durationTicks": 2,
          "midi": 47,
          "name": "B2",
          "ticks": 14561,
          "time": 169.3139534883721,
          "velocity": 0.5354330708661418
        },
        {
          "duration": 0.4767441860464885,
          "durationTicks": 41,
          "midi": 67,
          "name": "G4",
          "ticks": 14561,
          "time": 169.3139534883721,
          "velocity": 0.4330708661417323
        },
        {
          "duration": 0.2674418604651123,
          "durationTicks": 23,
          "midi": 82,
          "name": "A#5",
          "ticks": 14561,
          "time": 169.3139534883721,
          "velocity": 0.2204724409448819
        },
        {
          "duration": 0.5,
          "durationTicks": 43,
          "midi": 86,
          "name": "D6",
          "ticks": 14561,
          "time": 169.3139534883721,
          "velocity": 0.5354330708661418
        },
        {
          "duration": 0.2906976744185954,
          "durationTicks": 25,
          "midi": 91,
          "name": "G6",
          "ticks": 14561,
          "time": 169.3139534883721,
          "velocity": 0.2755905511811024
        },
        {
          "duration": 0.17441860465115155,
          "durationTicks": 15,
          "midi": 100,
          "name": "E7",
          "ticks": 14561,
          "time": 169.3139534883721,
          "velocity": 0.2992125984251969
        },
        {
          "duration": 0.44186046511626387,
          "durationTicks": 38,
          "midi": 60,
          "name": "C4",
          "ticks": 14562,
          "time": 169.32558139534885,
          "velocity": 0.44881889763779526
        },
        {
          "duration": 0.2906976744185954,
          "durationTicks": 25,
          "midi": 72,
          "name": "C5",
          "ticks": 14562,
          "time": 169.32558139534885,
          "velocity": 0.5039370078740157
        },
        {
          "duration": 0.22093023255811772,
          "durationTicks": 19,
          "midi": 76,
          "name": "E5",
          "ticks": 14562,
          "time": 169.32558139534885,
          "velocity": 0.13385826771653545
        },
        {
          "duration": 0.20930232558137618,
          "durationTicks": 18,
          "midi": 88,
          "name": "E6",
          "ticks": 14562,
          "time": 169.32558139534885,
          "velocity": 0.14173228346456693
        },
        {
          "duration": 0.09302325581393234,
          "durationTicks": 8,
          "midi": 90,
          "name": "F#6",
          "ticks": 14562,
          "time": 169.32558139534885,
          "velocity": 0.12598425196850394
        },
        {
          "duration": 0.4302325581395223,
          "durationTicks": 37,
          "midi": 48,
          "name": "C3",
          "ticks": 14563,
          "time": 169.3372093023256,
          "velocity": 0.5275590551181102
        },
        {
          "duration": 0.05813953488370771,
          "durationTicks": 5,
          "midi": 64,
          "name": "E4",
          "ticks": 14564,
          "time": 169.34883720930233,
          "velocity": 0.11023622047244094
        },
        {
          "duration": 0.1046511627907023,
          "durationTicks": 9,
          "midi": 83,
          "name": "B5",
          "ticks": 14564,
          "time": 169.34883720930233,
          "velocity": 0.2440944881889764
        },
        {
          "duration": 0.03488372093025305,
          "durationTicks": 3,
          "midi": 85,
          "name": "C#6",
          "ticks": 14580,
          "time": 169.53488372093022,
          "velocity": 0.2755905511811024
        },
        {
          "duration": 0.33720930232559,
          "durationTicks": 29,
          "midi": 74,
          "name": "D5",
          "ticks": 14581,
          "time": 169.54651162790697,
          "velocity": 0.44881889763779526
        },
        {
          "duration": 0.1511627906976969,
          "durationTicks": 13,
          "midi": 102,
          "name": "F#7",
          "ticks": 14581,
          "time": 169.54651162790697,
          "velocity": 0.29133858267716534
        },
        {
          "duration": 0.03488372093025305,
          "durationTicks": 3,
          "midi": 88,
          "name": "E6",
          "ticks": 14582,
          "time": 169.5581395348837,
          "velocity": 0.13385826771653545
        },
        {
          "duration": 0.16279069767443843,
          "durationTicks": 14,
          "midi": 93,
          "name": "A6",
          "ticks": 14582,
          "time": 169.5581395348837,
          "velocity": 0.23622047244094488
        },
        {
          "duration": 0.12790697674418539,
          "durationTicks": 11,
          "midi": 87,
          "name": "D#6",
          "ticks": 14599,
          "time": 169.75581395348837,
          "velocity": 0.28346456692913385
        },
        {
          "duration": 0.2325581395348877,
          "durationTicks": 20,
          "midi": 88,
          "name": "E6",
          "ticks": 14599,
          "time": 169.75581395348837,
          "velocity": 0.5196850393700787
        },
        {
          "duration": 0.16279069767441,
          "durationTicks": 14,
          "midi": 82,
          "name": "A#5",
          "ticks": 14600,
          "time": 169.7674418604651,
          "velocity": 0.2125984251968504
        },
        {
          "duration": 0.05813953488373613,
          "durationTicks": 5,
          "midi": 93,
          "name": "A6",
          "ticks": 14600,
          "time": 169.7674418604651,
          "velocity": 0.12598425196850394
        },
        {
          "duration": 0.15116279069766847,
          "durationTicks": 13,
          "midi": 95,
          "name": "B6",
          "ticks": 14600,
          "time": 169.7674418604651,
          "velocity": 0.28346456692913385
        },
        {
          "duration": 0.4418604651162923,
          "durationTicks": 38,
          "midi": 64,
          "name": "E4",
          "ticks": 14601,
          "time": 169.77906976744185,
          "velocity": 0.28346456692913385
        },
        {
          "duration": 0.3604651162790731,
          "durationTicks": 31,
          "midi": 71,
          "name": "B4",
          "ticks": 14601,
          "time": 169.77906976744185,
          "velocity": 0.15748031496062992
        },
        {
          "duration": 1.0116279069767415,
          "durationTicks": 87,
          "midi": 76,
          "name": "E5",
          "ticks": 14601,
          "time": 169.77906976744185,
          "velocity": 0.48031496062992124
        },
        {
          "duration": 0.04651162790699459,
          "durationTicks": 4,
          "midi": 84,
          "name": "C6",
          "ticks": 14601,
          "time": 169.77906976744185,
          "velocity": 0.2204724409448819
        },
        {
          "duration": 0.05813953488373613,
          "durationTicks": 5,
          "midi": 41,
          "name": "F2",
          "ticks": 14602,
          "time": 169.7906976744186,
          "velocity": 0.4645669291338583
        },
        {
          "duration": 0.8953488372092977,
          "durationTicks": 77,
          "midi": 52,
          "name": "E3",
          "ticks": 14602,
          "time": 169.7906976744186,
          "velocity": 0.5275590551181102
        },
        {
          "duration": 0.4651162790697754,
          "durationTicks": 40,
          "midi": 59,
          "name": "B3",
          "ticks": 14602,
          "time": 169.7906976744186,
          "velocity": 0.3700787401574803
        },
        {
          "duration": 0.4767441860465169,
          "durationTicks": 41,
          "midi": 68,
          "name": "G#4",
          "ticks": 14602,
          "time": 169.7906976744186,
          "velocity": 0.2125984251968504
        },
        {
          "duration": 0.0813953488371908,
          "durationTicks": 7,
          "midi": 78,
          "name": "F#5",
          "ticks": 14606,
          "time": 169.8372093023256,
          "velocity": 0.07874015748031496
        },
        {
          "duration": 0.06976744186044925,
          "durationTicks": 6,
          "midi": 40,
          "name": "E2",
          "ticks": 14607,
          "time": 169.84883720930233,
          "velocity": 0.4094488188976378
        },
        {
          "duration": 0.05813953488373613,
          "durationTicks": 5,
          "midi": 74,
          "name": "D5",
          "ticks": 14612,
          "time": 169.90697674418604,
          "velocity": 0.13385826771653545
        },
        {
          "duration": 0.023255813953511506,
          "durationTicks": 2,
          "midi": 39,
          "name": "D#2",
          "ticks": 14613,
          "time": 169.91860465116278,
          "velocity": 0.2677165354330709
        },
        {
          "duration": 0.17441860465115155,
          "durationTicks": 15,
          "midi": 40,
          "name": "E2",
          "ticks": 14615,
          "time": 169.9418604651163,
          "velocity": 0.2992125984251969
        },
        {
          "duration": 0.2906976744186238,
          "durationTicks": 25,
          "midi": 88,
          "name": "E6",
          "ticks": 14623,
          "time": 170.03488372093022,
          "velocity": 0.5275590551181102
        },
        {
          "duration": 0.04651162790696617,
          "durationTicks": 4,
          "midi": 87,
          "name": "D#6",
          "ticks": 14629,
          "time": 170.1046511627907,
          "velocity": 0.25984251968503935
        },
        {
          "duration": 0.023255813953483084,
          "durationTicks": 2,
          "midi": 39,
          "name": "D#2",
          "ticks": 14630,
          "time": 170.11627906976744,
          "velocity": 0.31496062992125984
        },
        {
          "duration": 0.30232558139533694,
          "durationTicks": 26,
          "midi": 95,
          "name": "B6",
          "ticks": 14631,
          "time": 170.12790697674419,
          "velocity": 0.2204724409448819
        },
        {
          "duration": 0.034883720930224626,
          "durationTicks": 3,
          "midi": 41,
          "name": "F2",
          "ticks": 14632,
          "time": 170.13953488372093,
          "velocity": 0.3700787401574803
        },
        {
          "duration": 0.023255813953511506,
          "durationTicks": 2,
          "midi": 40,
          "name": "E2",
          "ticks": 14635,
          "time": 170.17441860465115,
          "velocity": 0.25196850393700787
        },
        {
          "duration": 0.3604651162790731,
          "durationTicks": 31,
          "midi": 71,
          "name": "B4",
          "ticks": 14639,
          "time": 170.22093023255815,
          "velocity": 0.4409448818897638
        },
        {
          "duration": 0.2325581395348877,
          "durationTicks": 20,
          "midi": 86,
          "name": "D6",
          "ticks": 14639,
          "time": 170.22093023255815,
          "velocity": 0.1732283464566929
        },
        {
          "duration": 0.034883720930224626,
          "durationTicks": 3,
          "midi": 40,
          "name": "E2",
          "ticks": 14640,
          "time": 170.2325581395349,
          "velocity": 0.2755905511811024
        },
        {
          "duration": 0.27906976744185386,
          "durationTicks": 24,
          "midi": 90,
          "name": "F#6",
          "ticks": 14640,
          "time": 170.2325581395349,
          "velocity": 0.16535433070866143
        },
        {
          "duration": 0.06976744186044925,
          "durationTicks": 6,
          "midi": 99,
          "name": "D#7",
          "ticks": 14640,
          "time": 170.2325581395349,
          "velocity": 0.14173228346456693
        },
        {
          "duration": 0.034883720930224626,
          "durationTicks": 3,
          "midi": 41,
          "name": "F2",
          "ticks": 14643,
          "time": 170.2674418604651,
          "velocity": 0.25984251968503935
        },
        {
          "duration": 0.5697674418604493,
          "durationTicks": 49,
          "midi": 88,
          "name": "E6",
          "ticks": 14659,
          "time": 170.45348837209303,
          "velocity": 0.5118110236220472
        },
        {
          "duration": 0.034883720930224626,
          "durationTicks": 3,
          "midi": 87,
          "name": "D#6",
          "ticks": 14660,
          "time": 170.46511627906978,
          "velocity": 0.25196850393700787
        },
        {
          "duration": 0.06976744186044925,
          "durationTicks": 6,
          "midi": 42,
          "name": "F#2",
          "ticks": 14661,
          "time": 170.47674418604652,
          "velocity": 0.25196850393700787
        },
        {
          "duration": 0.15116279069766847,
          "durationTicks": 13,
          "midi": 95,
          "name": "B6",
          "ticks": 14661,
          "time": 170.47674418604652,
          "velocity": 0.1889763779527559
        },
        {
          "duration": 0.04651162790696617,
          "durationTicks": 4,
          "midi": 87,
          "name": "D#6",
          "ticks": 14669,
          "time": 170.56976744186048,
          "velocity": 0.31496062992125984
        },
        {
          "duration": 0.9069767441860392,
          "durationTicks": 78,
          "midi": 71,
          "name": "B4",
          "ticks": 14674,
          "time": 170.62790697674419,
          "velocity": 0.44881889763779526
        },
        {
          "duration": 0.023255813953483084,
          "durationTicks": 2,
          "midi": 42,
          "name": "F#2",
          "ticks": 14680,
          "time": 170.69767441860466,
          "velocity": 0.4409448818897638
        },
        {
          "duration": 0.48837209302323004,
          "durationTicks": 42,
          "midi": 59,
          "name": "B3",
          "ticks": 14680,
          "time": 170.69767441860466,
          "velocity": 0.30708661417322836
        },
        {
          "duration": 0.5,
          "durationTicks": 43,
          "midi": 68,
          "name": "G#4",
          "ticks": 14680,
          "time": 170.69767441860466,
          "velocity": 0.2047244094488189
        },
        {
          "duration": 0.36046511627904465,
          "durationTicks": 31,
          "midi": 74,
          "name": "D5",
          "ticks": 14680,
          "time": 170.69767441860466,
          "velocity": 0.14173228346456693
        },
        {
          "duration": 0.16279069767441,
          "durationTicks": 14,
          "midi": 82,
          "name": "A#5",
          "ticks": 14680,
          "time": 170.69767441860466,
          "velocity": 0.11811023622047244
        },
        {
          "duration": 0.0813953488371908,
          "durationTicks": 7,
          "midi": 95,
          "name": "B6",
          "ticks": 14680,
          "time": 170.69767441860466,
          "velocity": 0.13385826771653545
        },
        {
          "duration": 0.8953488372092977,
          "durationTicks": 77,
          "midi": 52,
          "name": "E3",
          "ticks": 14681,
          "time": 170.7093023255814,
          "velocity": 0.5196850393700787
        },
        {
          "duration": 0.034883720930224626,
          "durationTicks": 3,
          "midi": 41,
          "name": "F2",
          "ticks": 14682,
          "time": 170.72093023255815,
          "velocity": 0.44881889763779526
        },
        {
          "duration": 0.06976744186047767,
          "durationTicks": 6,
          "midi": 40,
          "name": "E2",
          "ticks": 14685,
          "time": 170.75581395348837,
          "velocity": 0.41732283464566927
        },
        {
          "duration": 0.023255813953483084,
          "durationTicks": 2,
          "midi": 39,
          "name": "D#2",
          "ticks": 14691,
          "time": 170.82558139534885,
          "velocity": 0.25984251968503935
        },
        {
          "duration": 0.30232558139533694,
          "durationTicks": 26,
          "midi": 40,
          "name": "E2",
          "ticks": 14693,
          "time": 170.84883720930233,
          "velocity": 0.30708661417322836
        },
        {
          "duration": 0.023255813953483084,
          "durationTicks": 2,
          "midi": 41,
          "name": "F2",
          "ticks": 14720,
          "time": 171.1627906976744,
          "velocity": 0.29133858267716534
        },
        {
          "duration": 0.18604651162792152,
          "durationTicks": 16,
          "midi": 95,
          "name": "B6",
          "ticks": 14720,
          "time": 171.1627906976744,
          "velocity": 0.11811023622047244
        },
        {
          "duration": 0.06976744186047767,
          "durationTicks": 6,
          "midi": 99,
          "name": "D#7",
          "ticks": 14720,
          "time": 171.1627906976744,
          "velocity": 0.14173228346456693
        },
        {
          "duration": 0.18604651162792152,
          "durationTicks": 16,
          "midi": 86,
          "name": "D6",
          "ticks": 14721,
          "time": 171.17441860465115,
          "velocity": 0.15748031496062992
        },
        {
          "duration": 0.2906976744186238,
          "durationTicks": 25,
          "midi": 90,
          "name": "F#6",
          "ticks": 14721,
          "time": 171.17441860465115,
          "velocity": 0.09448818897637795
        },
        {
          "duration": 0.06976744186047767,
          "durationTicks": 6,
          "midi": 94,
          "name": "A#6",
          "ticks": 14721,
          "time": 171.17441860465115,
          "velocity": 0.08661417322834646
        },
        {
          "duration": 0.023255813953483084,
          "durationTicks": 2,
          "midi": 41,
          "name": "F2",
          "ticks": 14723,
          "time": 171.19767441860466,
          "velocity": 0.2440944881889764
        },
        {
          "duration": 0.06976744186047767,
          "durationTicks": 6,
          "midi": 60,
          "name": "C4",
          "ticks": 14752,
          "time": 171.53488372093022,
          "velocity": 0.5826771653543307
        },
        {
          "duration": 0.03488372093025305,
          "durationTicks": 3,
          "midi": 67,
          "name": "G4",
          "ticks": 14753,
          "time": 171.54651162790697,
          "velocity": 0.11811023622047244
        },
        {
          "duration": 0.06976744186047767,
          "durationTicks": 6,
          "midi": 79,
          "name": "G5",
          "ticks": 14753,
          "time": 171.54651162790697,
          "velocity": 0.2677165354330709
        },
        {
          "duration": 0.06976744186047767,
          "durationTicks": 6,
          "midi": 94,
          "name": "A#6",
          "ticks": 14753,
          "time": 171.54651162790697,
          "velocity": 0.08661417322834646
        },
        {
          "duration": 0.1046511627907023,
          "durationTicks": 9,
          "midi": 96,
          "name": "C7",
          "ticks": 14753,
          "time": 171.54651162790697,
          "velocity": 0.10236220472440945
        },
        {
          "duration": 0.7093023255813762,
          "durationTicks": 61,
          "midi": 69,
          "name": "A4",
          "ticks": 14756,
          "time": 171.58139534883722,
          "velocity": 0.44881889763779526
        },
        {
          "duration": 0.06976744186044925,
          "durationTicks": 6,
          "midi": 89,
          "name": "F6",
          "ticks": 14756,
          "time": 171.58139534883722,
          "velocity": 0.16535433070866143
        },
        {
          "duration": 0.034883720930224626,
          "durationTicks": 3,
          "midi": 73,
          "name": "C#5",
          "ticks": 14757,
          "time": 171.59302325581396,
          "velocity": 0.5433070866141733
        },
        {
          "duration": 0.1046511627907023,
          "durationTicks": 9,
          "midi": 78,
          "name": "F#5",
          "ticks": 14757,
          "time": 171.59302325581396,
          "velocity": 0.15748031496062992
        },
        {
          "duration": 0.19767441860463464,
          "durationTicks": 17,
          "midi": 84,
          "name": "C6",
          "ticks": 14757,
          "time": 171.59302325581396,
          "velocity": 0.15748031496062992
        },
        {
          "duration": 0.06976744186044925,
          "durationTicks": 6,
          "midi": 86,
          "name": "D6",
          "ticks": 14757,
          "time": 171.59302325581396,
          "velocity": 0.1968503937007874
        },
        {
          "duration": 0.05813953488370771,
          "durationTicks": 5,
          "midi": 95,
          "name": "B6",
          "ticks": 14757,
          "time": 171.59302325581396,
          "velocity": 0.09448818897637795
        },
        {
          "duration": 0.04651162790696617,
          "durationTicks": 4,
          "midi": 97,
          "name": "C#7",
          "ticks": 14757,
          "time": 171.59302325581396,
          "velocity": 0.2283464566929134
        },
        {
          "duration": 0.023255813953483084,
          "durationTicks": 2,
          "midi": 61,
          "name": "C#4",
          "ticks": 14758,
          "time": 171.6046511627907,
          "velocity": 0.6299212598425197
        },
        {
          "duration": 0.023255813953483084,
          "durationTicks": 2,
          "midi": 65,
          "name": "F4",
          "ticks": 14758,
          "time": 171.6046511627907,
          "velocity": 0.3228346456692913
        },
        {
          "duration": 0.34883720930233153,
          "durationTicks": 30,
          "midi": 90,
          "name": "F#6",
          "ticks": 14758,
          "time": 171.6046511627907,
          "velocity": 0.25196850393700787
        },
        {
          "duration": 0.06976744186044925,
          "durationTicks": 6,
          "midi": 92,
          "name": "G#6",
          "ticks": 14758,
          "time": 171.6046511627907,
          "velocity": 0.07874015748031496
        },
        {
          "duration": 0.33720930232559,
          "durationTicks": 29,
          "midi": 50,
          "name": "D3",
          "ticks": 14759,
          "time": 171.61627906976744,
          "velocity": 0.4645669291338583
        },
        {
          "duration": 0.3720930232558146,
          "durationTicks": 32,
          "midi": 74,
          "name": "D5",
          "ticks": 14759,
          "time": 171.61627906976744,
          "velocity": 0.44881889763779526
        },
        {
          "duration": 0.023255813953483084,
          "durationTicks": 2,
          "midi": 80,
          "name": "G#5",
          "ticks": 14759,
          "time": 171.61627906976744,
          "velocity": 0.2283464566929134
        },
        {
          "duration": 0.32558139534884845,
          "durationTicks": 28,
          "midi": 57,
          "name": "A3",
          "ticks": 14760,
          "time": 171.62790697674419,
          "velocity": 0.31496062992125984
        },
        {
          "duration": 0.034883720930224626,
          "durationTicks": 3,
          "midi": 62,
          "name": "D4",
          "ticks": 14760,
          "time": 171.62790697674419,
          "velocity": 0.5511811023622047
        },
        {
          "duration": 0.33720930232559,
          "durationTicks": 29,
          "midi": 66,
          "name": "F#4",
          "ticks": 14760,
          "time": 171.62790697674419,
          "velocity": 0.23622047244094488
        },
        {
          "duration": 0.023255813953483084,
          "durationTicks": 2,
          "midi": 39,
          "name": "D#2",
          "ticks": 14761,
          "time": 171.63953488372093,
          "velocity": 0.4409448818897638
        },
        {
          "duration": 0.17441860465117998,
          "durationTicks": 15,
          "midi": 76,
          "name": "E5",
          "ticks": 14762,
          "time": 171.65116279069767,
          "velocity": 0.07874015748031496
        },
        {
          "duration": 0.09302325581396076,
          "durationTicks": 8,
          "midi": 38,
          "name": "D2",
          "ticks": 14763,
          "time": 171.6627906976744,
          "velocity": 0.4015748031496063
        },
        {
          "duration": 0.023255813953483084,
          "durationTicks": 2,
          "midi": 61,
          "name": "C#4",
          "ticks": 14763,
          "time": 171.6627906976744,
          "velocity": 0.5354330708661418
        },
        {
          "duration": 0.03488372093025305,
          "durationTicks": 3,
          "midi": 97,
          "name": "C#7",
          "ticks": 14764,
          "time": 171.67441860465115,
          "velocity": 0.07874015748031496
        },
        {
          "duration": 0.26744186046514073,
          "durationTicks": 23,
          "midi": 62,
          "name": "D4",
          "ticks": 14765,
          "time": 171.6860465116279,
          "velocity": 0.47244094488188976
        },
        {
          "duration": 0.04651162790696617,
          "durationTicks": 4,
          "midi": 88,
          "name": "E6",
          "ticks": 14766,
          "time": 171.69767441860466,
          "velocity": 0.09448818897637795
        },
        {
          "duration": 0.18604651162792152,
          "durationTicks": 16,
          "midi": 38,
          "name": "D2",
          "ticks": 14772,
          "time": 171.7674418604651,
          "velocity": 0.28346456692913385
        },
        {
          "duration": 0.05813953488373613,
          "durationTicks": 5,
          "midi": 72,
          "name": "C5",
          "ticks": 14772,
          "time": 171.7674418604651,
          "velocity": 0.14173228346456693
        },
        {
          "duration": 0.33720930232556157,
          "durationTicks": 29,
          "midi": 76,
          "name": "E5",
          "ticks": 14788,
          "time": 171.95348837209303,
          "velocity": 0.16535433070866143
        },
        {
          "duration": 0.034883720930224626,
          "durationTicks": 3,
          "midi": 84,
          "name": "C6",
          "ticks": 14788,
          "time": 171.95348837209303,
          "velocity": 0.14960629921259844
        },
        {
          "duration": 0.32558139534882,
          "durationTicks": 28,
          "midi": 57,
          "name": "A3",
          "ticks": 14789,
          "time": 171.96511627906978,
          "velocity": 0.4645669291338583
        },
        {
          "duration": 0.023255813953483084,
          "durationTicks": 2,
          "midi": 62,
          "name": "D4",
          "ticks": 14789,
          "time": 171.96511627906978,
          "velocity": 0.2283464566929134
        },
        {
          "duration": 0.25581395348837077,
          "durationTicks": 22,
          "midi": 79,
          "name": "G5",
          "ticks": 14789,
          "time": 171.96511627906978,
          "velocity": 0.15748031496062992
        },
        {
          "duration": 0.4186046511627808,
          "durationTicks": 36,
          "midi": 85,
          "name": "C#6",
          "ticks": 14789,
          "time": 171.96511627906978,
          "velocity": 0.2992125984251969
        },
        {
          "duration": 0.13953488372092693,
          "durationTicks": 12,
          "midi": 95,
          "name": "B6",
          "ticks": 14789,
          "time": 171.96511627906978,
          "velocity": 0.14960629921259844
        },
        {
          "duration": 0.023255813953483084,
          "durationTicks": 2,
          "midi": 45,
          "name": "A2",
          "ticks": 14790,
          "time": 171.97674418604652,
          "velocity": 0.49606299212598426
        },
        {
          "duration": 0.0813953488371908,
          "durationTicks": 7,
          "midi": 83,
          "name": "B5",
          "ticks": 14790,
          "time": 171.97674418604652,
          "velocity": 0.09448818897637795
        },
        {
          "duration": 0.023255813953483084,
          "durationTicks": 2,
          "midi": 61,
          "name": "C#4",
          "ticks": 14791,
          "time": 171.98837209302326,
          "velocity": 0.31496062992125984
        },
        {
          "duration": 0.2906976744185954,
          "durationTicks": 25,
          "midi": 67,
          "name": "G4",
          "ticks": 14792,
          "time": 172,
          "velocity": 0.2047244094488189
        },
        {
          "duration": 0.034883720930224626,
          "durationTicks": 3,
          "midi": 62,
          "name": "D4",
          "ticks": 14793,
          "time": 172.01162790697674,
          "velocity": 0.2283464566929134
        },
        {
          "duration": 0.034883720930224626,
          "durationTicks": 3,
          "midi": 74,
          "name": "D5",
          "ticks": 14793,
          "time": 172.01162790697674,
          "velocity": 0.2992125984251969
        },
        {
          "duration": 0.24418604651162923,
          "durationTicks": 21,
          "midi": 45,
          "name": "A2",
          "ticks": 14795,
          "time": 172.03488372093022,
          "velocity": 0.4015748031496063
        },
        {
          "duration": 0.03488372093025305,
          "durationTicks": 3,
          "midi": 73,
          "name": "C#5",
          "ticks": 14795,
          "time": 172.03488372093022,
          "velocity": 0.13385826771653545
        },
        {
          "duration": 0.023255813953511506,
          "durationTicks": 2,
          "midi": 61,
          "name": "C#4",
          "ticks": 14796,
          "time": 172.04651162790697,
          "velocity": 0.30708661417322836
        },
        {
          "duration": 0.4534883720930054,
          "durationTicks": 39,
          "midi": 62,
          "name": "D4",
          "ticks": 14798,
          "time": 172.06976744186048,
          "velocity": 0.5590551181102362
        },
        {
          "duration": 0.023255813953483084,
          "durationTicks": 2,
          "midi": 51,
          "name": "D#3",
          "ticks": 14806,
          "time": 172.1627906976744,
          "velocity": 0.33858267716535434
        },
        {
          "duration": 0.023255813953483084,
          "durationTicks": 2,
          "midi": 47,
          "name": "B2",
          "ticks": 14816,
          "time": 172.27906976744185,
          "velocity": 0.33858267716535434
        },
        {
          "duration": 0.023255813953511506,
          "durationTicks": 2,
          "midi": 56,
          "name": "G#3",
          "ticks": 14817,
          "time": 172.2906976744186,
          "velocity": 0.2992125984251969
        },
        {
          "duration": 0.03488372093025305,
          "durationTicks": 3,
          "midi": 79,
          "name": "G5",
          "ticks": 14817,
          "time": 172.2906976744186,
          "velocity": 0.10236220472440945
        },
        {
          "duration": 0.25581395348837077,
          "durationTicks": 22,
          "midi": 81,
          "name": "A5",
          "ticks": 14817,
          "time": 172.2906976744186,
          "velocity": 0.25984251968503935
        },
        {
          "duration": 0.2093023255814046,
          "durationTicks": 18,
          "midi": 72,
          "name": "C5",
          "ticks": 14818,
          "time": 172.30232558139534,
          "velocity": 0.2440944881889764
        },
        {
          "duration": 0.24418604651162923,
          "durationTicks": 21,
          "midi": 90,
          "name": "F#6",
          "ticks": 14818,
          "time": 172.30232558139534,
          "velocity": 0.18110236220472442
        },
        {
          "duration": 0.023255813953483084,
          "durationTicks": 2,
          "midi": 40,
          "name": "E2",
          "ticks": 14819,
          "time": 172.3139534883721,
          "velocity": 0.4645669291338583
        },
        {
          "duration": 0.22093023255811772,
          "durationTicks": 19,
          "midi": 57,
          "name": "A3",
          "ticks": 14819,
          "time": 172.3139534883721,
          "velocity": 0.33858267716535434
        },
        {
          "duration": 0.20930232558137618,
          "durationTicks": 18,
          "midi": 66,
          "name": "F#4",
          "ticks": 14820,
          "time": 172.32558139534885,
          "velocity": 0.28346456692913385
        },
        {
          "duration": 0.13953488372092693,
          "durationTicks": 12,
          "midi": 76,
          "name": "E5",
          "ticks": 14820,
          "time": 172.32558139534885,
          "velocity": 0.11023622047244094
        },
        {
          "duration": 0.12790697674418539,
          "durationTicks": 11,
          "midi": 80,
          "name": "G#5",
          "ticks": 14820,
          "time": 172.32558139534885,
          "velocity": 0.11023622047244094
        },
        {
          "duration": 0.1860465116278931,
          "durationTicks": 16,
          "midi": 50,
          "name": "D3",
          "ticks": 14821,
          "time": 172.3372093023256,
          "velocity": 0.3937007874015748
        },
        {
          "duration": 0.04651162790696617,
          "durationTicks": 4,
          "midi": 38,
          "name": "D2",
          "ticks": 14823,
          "time": 172.36046511627907,
          "velocity": 0.4094488188976378
        },
        {
          "duration": 0.03488372093025305,
          "durationTicks": 3,
          "midi": 38,
          "name": "D2",
          "ticks": 14828,
          "time": 172.41860465116278,
          "velocity": 0.2992125984251969
        },
        {
          "duration": 0.04651162790696617,
          "durationTicks": 4,
          "midi": 38,
          "name": "D2",
          "ticks": 14832,
          "time": 172.46511627906978,
          "velocity": 0.2677165354330709
        },
        {
          "duration": 0.12790697674418539,
          "durationTicks": 11,
          "midi": 77,
          "name": "F5",
          "ticks": 14837,
          "time": 172.52325581395348,
          "velocity": 0.15748031496062992
        },
        {
          "duration": 0.3720930232558146,
          "durationTicks": 32,
          "midi": 80,
          "name": "G#5",
          "ticks": 14837,
          "time": 172.52325581395348,
          "velocity": 0.2992125984251969
        },
        {
          "duration": 0.04651162790699459,
          "durationTicks": 4,
          "midi": 83,
          "name": "B5",
          "ticks": 14837,
          "time": 172.52325581395348,
          "velocity": 0.16535433070866143
        },
        {
          "duration": 0.06976744186047767,
          "durationTicks": 6,
          "midi": 85,
          "name": "C#6",
          "ticks": 14837,
          "time": 172.52325581395348,
          "velocity": 0.1732283464566929
        },
        {
          "duration": 0.023255813953483084,
          "durationTicks": 2,
          "midi": 48,
          "name": "C3",
          "ticks": 14838,
          "time": 172.53488372093022,
          "velocity": 0.4881889763779528
        },
        {
          "duration": 0.33720930232559,
          "durationTicks": 29,
          "midi": 56,
          "name": "G#3",
          "ticks": 14838,
          "time": 172.53488372093022,
          "velocity": 0.33858267716535434
        },
        {
          "duration": 0.03488372093025305,
          "durationTicks": 3,
          "midi": 64,
          "name": "E4",
          "ticks": 14838,
          "time": 172.53488372093022,
          "velocity": 0.2755905511811024
        },
        {
          "duration": 0.34883720930233153,
          "durationTicks": 30,
          "midi": 68,
          "name": "G#4",
          "ticks": 14838,
          "time": 172.53488372093022,
          "velocity": 0.44881889763779526
        },
        {
          "duration": 0.3953488372092977,
          "durationTicks": 34,
          "midi": 73,
          "name": "C#5",
          "ticks": 14838,
          "time": 172.53488372093022,
          "velocity": 0.49606299212598426
        },
        {
          "duration": 0.24418604651162923,
          "durationTicks": 21,
          "midi": 87,
          "name": "D#6",
          "ticks": 14838,
          "time": 172.53488372093022,
          "velocity": 0.09448818897637795
        },
        {
          "duration": 0.34883720930233153,
          "durationTicks": 30,
          "midi": 89,
          "name": "F6",
          "ticks": 14838,
          "time": 172.53488372093022,
          "velocity": 0.2440944881889764
        },
        {
          "duration": 0.08139534883721922,
          "durationTicks": 7,
          "midi": 96,
          "name": "C7",
          "ticks": 14838,
          "time": 172.53488372093022,
          "velocity": 0.15748031496062992
        },
        {
          "duration": 0.32558139534884845,
          "durationTicks": 28,
          "midi": 61,
          "name": "C#4",
          "ticks": 14839,
          "time": 172.54651162790697,
          "velocity": 0.5590551181102362
        },
        {
          "duration": 0.023255813953511506,
          "durationTicks": 2,
          "midi": 71,
          "name": "B4",
          "ticks": 14839,
          "time": 172.54651162790697,
          "velocity": 0.25196850393700787
        },
        {
          "duration": 0.03488372093025305,
          "durationTicks": 3,
          "midi": 38,
          "name": "D2",
          "ticks": 14840,
          "time": 172.5581395348837,
          "velocity": 0.47244094488188976
        },
        {
          "duration": 0.32558139534884845,
          "durationTicks": 28,
          "midi": 49,
          "name": "C#3",
          "ticks": 14840,
          "time": 172.5581395348837,
          "velocity": 0.4251968503937008
        },
        {
          "duration": 0.13953488372095535,
          "durationTicks": 12,
          "midi": 79,
          "name": "G5",
          "ticks": 14840,
          "time": 172.5581395348837,
          "velocity": 0.09448818897637795
        },
        {
          "duration": 0.33720930232556157,
          "durationTicks": 29,
          "midi": 65,
          "name": "F4",
          "ticks": 14841,
          "time": 172.56976744186048,
          "velocity": 0.2440944881889764
        },
        {
          "duration": 0.06976744186044925,
          "durationTicks": 6,
          "midi": 37,
          "name": "C#2",
          "ticks": 14843,
          "time": 172.59302325581396,
          "velocity": 0.4330708661417323
        },
        {
          "duration": 0.13953488372092693,
          "durationTicks": 12,
          "midi": 83,
          "name": "B5",
          "ticks": 14843,
          "time": 172.59302325581396,
          "velocity": 0.16535433070866143
        },
        {
          "duration": 0.19767441860466306,
          "durationTicks": 17,
          "midi": 71,
          "name": "B4",
          "ticks": 14845,
          "time": 172.61627906976744,
          "velocity": 0.10236220472440945
        },
        {
          "duration": 0.04651162790699459,
          "durationTicks": 4,
          "midi": 36,
          "name": "C2",
          "ticks": 14849,
          "time": 172.6627906976744,
          "velocity": 0.25984251968503935
        },
        {
          "duration": 0.16279069767441,
          "durationTicks": 14,
          "midi": 37,
          "name": "C#2",
          "ticks": 14853,
          "time": 172.7093023255814,
          "velocity": 0.2992125984251969
        },
        {
          "duration": 0.04651162790696617,
          "durationTicks": 4,
          "midi": 57,
          "name": "A3",
          "ticks": 14867,
          "time": 172.87209302325581,
          "velocity": 0.4645669291338583
        },
        {
          "duration": 0.04651162790696617,
          "durationTicks": 4,
          "midi": 75,
          "name": "D#5",
          "ticks": 14867,
          "time": 172.87209302325581,
          "velocity": 0.2204724409448819
        },
        {
          "duration": 0.09302325581396076,
          "durationTicks": 8,
          "midi": 83,
          "name": "B5",
          "ticks": 14867,
          "time": 172.87209302325581,
          "velocity": 0.14960629921259844
        },
        {
          "duration": 0.32558139534884845,
          "durationTicks": 28,
          "midi": 76,
          "name": "E5",
          "ticks": 14868,
          "time": 172.88372093023256,
          "velocity": 0.14960629921259844
        },
        {
          "duration": 0.25581395348837077,
          "durationTicks": 22,
          "midi": 79,
          "name": "G5",
          "ticks": 14868,
          "time": 172.88372093023256,
          "velocity": 0.1889763779527559
        },
        {
          "duration": 0.33720930232559,
          "durationTicks": 29,
          "midi": 81,
          "name": "A5",
          "ticks": 14868,
          "time": 172.88372093023256,
          "velocity": 0.23622047244094488
        },
        {
          "duration": 0.13953488372092693,
          "durationTicks": 12,
          "midi": 95,
          "name": "B6",
          "ticks": 14868,
          "time": 172.88372093023256,
          "velocity": 0.15748031496062992
        },
        {
          "duration": 0.30232558139536536,
          "durationTicks": 26,
          "midi": 61,
          "name": "C#4",
          "ticks": 14870,
          "time": 172.90697674418604,
          "velocity": 0.31496062992125984
        },
        {
          "duration": 0.2790697674418823,
          "durationTicks": 24,
          "midi": 57,
          "name": "A3",
          "ticks": 14872,
          "time": 172.93023255813952,
          "velocity": 0.3700787401574803
        },
        {
          "duration": 0.2790697674418823,
          "durationTicks": 24,
          "midi": 75,
          "name": "D#5",
          "ticks": 14872,
          "time": 172.93023255813952,
          "velocity": 0.2204724409448819
        },
        {
          "duration": 0.24418604651162923,
          "durationTicks": 21,
          "midi": 45,
          "name": "A2",
          "ticks": 14874,
          "time": 172.95348837209303,
          "velocity": 0.4094488188976378
        },
        {
          "duration": 0.034883720930224626,
          "durationTicks": 3,
          "midi": 67,
          "name": "G4",
          "ticks": 14880,
          "time": 173.02325581395348,
          "velocity": 0.14173228346456693
        },
        {
          "duration": 0.023255813953483084,
          "durationTicks": 2,
          "midi": 47,
          "name": "B2",
          "ticks": 14895,
          "time": 173.19767441860466,
          "velocity": 0.4409448818897638
        },
        {
          "duration": 0.25581395348837077,
          "durationTicks": 22,
          "midi": 73,
          "name": "C#5",
          "ticks": 14895,
          "time": 173.19767441860466,
          "velocity": 0.5196850393700787
        },
        {
          "duration": 0.034883720930224626,
          "durationTicks": 3,
          "midi": 40,
          "name": "E2",
          "ticks": 14896,
          "time": 173.2093023255814,
          "velocity": 0.4409448818897638
        },
        {
          "duration": 0.2325581395348877,
          "durationTicks": 20,
          "midi": 80,
          "name": "G#5",
          "ticks": 14896,
          "time": 173.2093023255814,
          "velocity": 0.2677165354330709
        },
        {
          "duration": 0.023255813953483084,
          "durationTicks": 2,
          "midi": 55,
          "name": "G3",
          "ticks": 14897,
          "time": 173.22093023255815,
          "velocity": 0.28346456692913385
        },
        {
          "duration": 0.2325581395348877,
          "durationTicks": 20,
          "midi": 61,
          "name": "C#4",
          "ticks": 14897,
          "time": 173.22093023255815,
          "velocity": 0.5511811023622047
        },
        {
          "duration": 0.034883720930224626,
          "durationTicks": 3,
          "midi": 64,
          "name": "E4",
          "ticks": 14897,
          "time": 173.22093023255815,
          "velocity": 0.23622047244094488
        },
        {
          "duration": 0.04651162790696617,
          "durationTicks": 4,
          "midi": 77,
          "name": "F5",
          "ticks": 14897,
          "time": 173.22093023255815,
          "velocity": 0.10236220472440945
        },
        {
          "duration": 0.09302325581396076,
          "durationTicks": 8,
          "midi": 83,
          "name": "B5",
          "ticks": 14897,
          "time": 173.22093023255815,
          "velocity": 0.09448818897637795
        },
        {
          "duration": 0.04651162790696617,
          "durationTicks": 4,
          "midi": 84,
          "name": "C6",
          "ticks": 14897,
          "time": 173.22093023255815,
          "velocity": 0.07086614173228346
        },
        {
          "duration": 0.33720930232556157,
          "durationTicks": 29,
          "midi": 89,
          "name": "F6",
          "ticks": 14897,
          "time": 173.22093023255815,
          "velocity": 0.2125984251968504
        },
        {
          "duration": 0.06976744186044925,
          "durationTicks": 6,
          "midi": 49,
          "name": "C#3",
          "ticks": 14898,
          "time": 173.2325581395349,
          "velocity": 0.44881889763779526
        },
        {
          "duration": 0.2093023255814046,
          "durationTicks": 18,
          "midi": 68,
          "name": "G#4",
          "ticks": 14898,
          "time": 173.2325581395349,
          "velocity": 0.1968503937007874
        },
        {
          "duration": 0.2093023255814046,
          "durationTicks": 18,
          "midi": 71,
          "name": "B4",
          "ticks": 14898,
          "time": 173.2325581395349,
          "velocity": 0.2283464566929134
        },
        {
          "duration": 0.034883720930224626,
          "durationTicks": 3,
          "midi": 38,
          "name": "D2",
          "ticks": 14899,
          "time": 173.24418604651163,
          "velocity": 0.4409448818897638
        },
        {
          "duration": 0.2093023255814046,
          "durationTicks": 18,
          "midi": 56,
          "name": "G#3",
          "ticks": 14899,
          "time": 173.24418604651163,
          "velocity": 0.33070866141732286
        },
        {
          "duration": 0.13953488372092693,
          "durationTicks": 12,
          "midi": 75,
          "name": "D#5",
          "ticks": 14899,
          "time": 173.24418604651163,
          "velocity": 0.14960629921259844
        },
        {
          "duration": 0.18604651162792152,
          "durationTicks": 16,
          "midi": 65,
          "name": "F4",
          "ticks": 14900,
          "time": 173.25581395348837,
          "velocity": 0.2125984251968504
        },
        {
          "duration": 0.12790697674418539,
          "durationTicks": 11,
          "midi": 79,
          "name": "G5",
          "ticks": 14900,
          "time": 173.25581395348837,
          "velocity": 0.10236220472440945
        },
        {
          "duration": 0.023255813953483084,
          "durationTicks": 2,
          "midi": 37,
          "name": "C#2",
          "ticks": 14902,
          "time": 173.27906976744185,
          "velocity": 0.4251968503937008
        },
        {
          "duration": 0.05813953488370771,
          "durationTicks": 5,
          "midi": 37,
          "name": "C#2",
          "ticks": 14905,
          "time": 173.3139534883721,
          "velocity": 0.3700787401574803
        },
        {
          "duration": 0.12790697674418539,
          "durationTicks": 11,
          "midi": 49,
          "name": "C#3",
          "ticks": 14905,
          "time": 173.3139534883721,
          "velocity": 0.3700787401574803
        },
        {
          "duration": 0.023255813953483084,
          "durationTicks": 2,
          "midi": 36,
          "name": "C2",
          "ticks": 14910,
          "time": 173.37209302325581,
          "velocity": 0.25984251968503935
        },
        {
          "duration": 0.034883720930224626,
          "durationTicks": 3,
          "midi": 37,
          "name": "C#2",
          "ticks": 14912,
          "time": 173.3953488372093,
          "velocity": 0.2755905511811024
        },
        {
          "duration": 0.3488372093023031,
          "durationTicks": 30,
          "midi": 67,
          "name": "G4",
          "ticks": 14916,
          "time": 173.4418604651163,
          "velocity": 0.44881889763779526
        },
        {
          "duration": 0.22093023255811772,
          "durationTicks": 19,
          "midi": 82,
          "name": "A#5",
          "ticks": 14916,
          "time": 173.4418604651163,
          "velocity": 0.13385826771653545
        },
        {
          "duration": 0.06976744186044925,
          "durationTicks": 6,
          "midi": 84,
          "name": "C6",
          "ticks": 14916,
          "time": 173.4418604651163,
          "velocity": 0.1889763779527559
        },
        {
          "duration": 0.09302325581393234,
          "durationTicks": 8,
          "midi": 95,
          "name": "B6",
          "ticks": 14916,
          "time": 173.4418604651163,
          "velocity": 0.1889763779527559
        },
        {
          "duration": 0.32558139534882,
          "durationTicks": 28,
          "midi": 48,
          "name": "C3",
          "ticks": 14917,
          "time": 173.45348837209303,
          "velocity": 0.5275590551181102
        },
        {
          "duration": 0.6744186046511516,
          "durationTicks": 58,
          "midi": 72,
          "name": "C5",
          "ticks": 14917,
          "time": 173.45348837209303,
          "velocity": 0.49606299212598426
        },
        {
          "duration": 0.034883720930224626,
          "durationTicks": 3,
          "midi": 76,
          "name": "E5",
          "ticks": 14917,
          "time": 173.45348837209303,
          "velocity": 0.1732283464566929
        },
        {
          "duration": 0.3604651162790731,
          "durationTicks": 31,
          "midi": 88,
          "name": "E6",
          "ticks": 14917,
          "time": 173.45348837209303,
          "velocity": 0.25984251968503935
        },
        {
          "duration": 0.04651162790696617,
          "durationTicks": 4,
          "midi": 37,
          "name": "C#2",
          "ticks": 14918,
          "time": 173.46511627906978,
          "velocity": 0.48031496062992124
        },
        {
          "duration": 0.3139534883720785,
          "durationTicks": 27,
          "midi": 60,
          "name": "C4",
          "ticks": 14918,
          "time": 173.46511627906978,
          "velocity": 0.5826771653543307
        },
        {
          "duration": 0.034883720930224626,
          "durationTicks": 3,
          "midi": 80,
          "name": "G#5",
          "ticks": 14918,
          "time": 173.46511627906978,
          "velocity": 0.1732283464566929
        },
        {
          "duration": 0.24418604651162923,
          "durationTicks": 21,
          "midi": 86,
          "name": "D6",
          "ticks": 14918,
          "time": 173.46511627906978,
          "velocity": 0.09448818897637795
        },
        {
          "duration": 0.30232558139533694,
          "durationTicks": 26,
          "midi": 55,
          "name": "G3",
          "ticks": 14919,
          "time": 173.47674418604652,
          "velocity": 0.31496062992125984
        },
        {
          "duration": 0.023255813953483084,
          "durationTicks": 2,
          "midi": 64,
          "name": "E4",
          "ticks": 14919,
          "time": 173.47674418604652,
          "velocity": 0.25984251968503935
        },
        {
          "duration": 0.0813953488371908,
          "durationTicks": 7,
          "midi": 70,
          "name": "A#4",
          "ticks": 14919,
          "time": 173.47674418604652,
          "velocity": 0.12598425196850394
        },
        {
          "duration": 0.08139534883721922,
          "durationTicks": 7,
          "midi": 36,
          "name": "C2",
          "ticks": 14922,
          "time": 173.51162790697674,
          "velocity": 0.4330708661417323
        },
        {
          "duration": 0.2674418604651123,
          "durationTicks": 23,
          "midi": 64,
          "name": "E4",
          "ticks": 14922,
          "time": 173.51162790697674,
          "velocity": 0.2204724409448819
        },
        {
          "duration": 0.034883720930224626,
          "durationTicks": 3,
          "midi": 80,
          "name": "G#5",
          "ticks": 14922,
          "time": 173.51162790697674,
          "velocity": 0.09448818897637795
        },
        {
          "duration": 0.04651162790696617,
          "durationTicks": 4,
          "midi": 35,
          "name": "B1",
          "ticks": 14929,
          "time": 173.59302325581396,
          "velocity": 0.2677165354330709
        },
        {
          "duration": 0.13953488372092693,
          "durationTicks": 12,
          "midi": 36,
          "name": "C2",
          "ticks": 14933,
          "time": 173.63953488372093,
          "velocity": 0.30708661417322836
        },
        {
          "duration": 0.023255813953483084,
          "durationTicks": 2,
          "midi": 70,
          "name": "A#4",
          "ticks": 14945,
          "time": 173.77906976744185,
          "velocity": 0.41732283464566927
        },
        {
          "duration": 0.04651162790699459,
          "durationTicks": 4,
          "midi": 76,
          "name": "E5",
          "ticks": 14945,
          "time": 173.77906976744185,
          "velocity": 0.2047244094488189
        },
        {
          "duration": 0.03488372093025305,
          "durationTicks": 3,
          "midi": 57,
          "name": "A3",
          "ticks": 14946,
          "time": 173.7906976744186,
          "velocity": 0.4566929133858268
        },
        {
          "duration": 0.34883720930233153,
          "durationTicks": 30,
          "midi": 81,
          "name": "A5",
          "ticks": 14946,
          "time": 173.7906976744186,
          "velocity": 0.23622047244094488
        },
        {
          "duration": 0.08139534883721922,
          "durationTicks": 7,
          "midi": 83,
          "name": "B5",
          "ticks": 14946,
          "time": 173.7906976744186,
          "velocity": 0.09448818897637795
        },
        {
          "duration": 0.40697674418606766,
          "durationTicks": 35,
          "midi": 85,
          "name": "C#6",
          "ticks": 14946,
          "time": 173.7906976744186,
          "velocity": 0.2992125984251969
        },
        {
          "duration": 0.13953488372092693,
          "durationTicks": 12,
          "midi": 95,
          "name": "B6",
          "ticks": 14946,
          "time": 173.7906976744186,
          "velocity": 0.12598425196850394
        },
        {
          "duration": 0.06976744186047767,
          "durationTicks": 6,
          "midi": 67,
          "name": "G4",
          "ticks": 14947,
          "time": 173.80232558139534,
          "velocity": 0.29133858267716534
        },
        {
          "duration": 0.33720930232559,
          "durationTicks": 29,
          "midi": 69,
          "name": "A4",
          "ticks": 14947,
          "time": 173.80232558139534,
          "velocity": 0.4566929133858268
        },
        {
          "duration": 0.034883720930224626,
          "durationTicks": 3,
          "midi": 60,
          "name": "C4",
          "ticks": 14948,
          "time": 173.8139534883721,
          "velocity": 0.3228346456692913
        },
        {
          "duration": 0.09302325581393234,
          "durationTicks": 8,
          "midi": 64,
          "name": "E4",
          "ticks": 14948,
          "time": 173.8139534883721,
          "velocity": 0.13385826771653545
        },
        {
          "duration": 0.04651162790696617,
          "durationTicks": 4,
          "midi": 75,
          "name": "D#5",
          "ticks": 14949,
          "time": 173.82558139534885,
          "velocity": 0.2125984251968504
        },
        {
          "duration": 0.13953488372092693,
          "durationTicks": 12,
          "midi": 57,
          "name": "A3",
          "ticks": 14950,
          "time": 173.8372093023256,
          "velocity": 0.3543307086614173
        },
        {
          "duration": 0.05813953488370771,
          "durationTicks": 5,
          "midi": 88,
          "name": "E6",
          "ticks": 14950,
          "time": 173.8372093023256,
          "velocity": 0.12598425196850394
        },
        {
          "duration": 0.05813953488370771,
          "durationTicks": 5,
          "midi": 86,
          "name": "D6",
          "ticks": 14952,
          "time": 173.86046511627907,
          "velocity": 0.10236220472440945
        },
        {
          "duration": 0.12790697674418539,
          "durationTicks": 11,
          "midi": 76,
          "name": "E5",
          "ticks": 14953,
          "time": 173.87209302325581,
          "velocity": 0.16535433070866143
        },
        {
          "duration": 0.023255813953483084,
          "durationTicks": 2,
          "midi": 44,
          "name": "G#2",
          "ticks": 14954,
          "time": 173.88372093023256,
          "velocity": 0.3779527559055118
        },
        {
          "duration": 0.04651162790696617,
          "durationTicks": 4,
          "midi": 60,
          "name": "C4",
          "ticks": 14954,
          "time": 173.88372093023256,
          "velocity": 0.30708661417322836
        },
        {
          "duration": 0.24418604651162923,
          "durationTicks": 21,
          "midi": 75,
          "name": "D#5",
          "ticks": 14954,
          "time": 173.88372093023256,
          "velocity": 0.18110236220472442
        },
        {
          "duration": 0.03488372093025305,
          "durationTicks": 3,
          "midi": 45,
          "name": "A2",
          "ticks": 14956,
          "time": 173.90697674418604,
          "velocity": 0.4251968503937008
        },
        {
          "duration": 0.09302325581396076,
          "durationTicks": 8,
          "midi": 67,
          "name": "G4",
          "ticks": 14956,
          "time": 173.90697674418604,
          "velocity": 0.2204724409448819
        },
        {
          "duration": 0.034883720930224626,
          "durationTicks": 3,
          "midi": 60,
          "name": "C4",
          "ticks": 14961,
          "time": 173.96511627906978,
          "velocity": 0.30708661417322836
        },
        {
          "duration": 0.034883720930224626,
          "durationTicks": 3,
          "midi": 57,
          "name": "A3",
          "ticks": 14965,
          "time": 174.01162790697674,
          "velocity": 0.2755905511811024
        },
        {
          "duration": 0.034883720930224626,
          "durationTicks": 3,
          "midi": 79,
          "name": "G5",
          "ticks": 14965,
          "time": 174.01162790697674,
          "velocity": 0.07086614173228346
        },
        {
          "duration": 0.08139534883721922,
          "durationTicks": 7,
          "midi": 67,
          "name": "G4",
          "ticks": 14966,
          "time": 174.02325581395348,
          "velocity": 0.15748031496062992
        },
        {
          "duration": 0.03488372093025305,
          "durationTicks": 3,
          "midi": 60,
          "name": "C4",
          "ticks": 14967,
          "time": 174.03488372093022,
          "velocity": 0.2992125984251969
        },
        {
          "duration": 0.11627906976744384,
          "durationTicks": 10,
          "midi": 76,
          "name": "E5",
          "ticks": 14967,
          "time": 174.03488372093022,
          "velocity": 0.12598425196850394
        },
        {
          "duration": 0.05813953488370771,
          "durationTicks": 5,
          "midi": 57,
          "name": "A3",
          "ticks": 14971,
          "time": 174.08139534883722,
          "velocity": 0.3937007874015748
        },
        {
          "duration": 0.023255813953483084,
          "durationTicks": 2,
          "midi": 61,
          "name": "C#4",
          "ticks": 14974,
          "time": 174.11627906976744,
          "velocity": 0.3464566929133858
        },
        {
          "duration": 0.24418604651162923,
          "durationTicks": 21,
          "midi": 79,
          "name": "G5",
          "ticks": 14975,
          "time": 174.12790697674419,
          "velocity": 0.25196850393700787
        },
        {
          "duration": 0.08139534883721922,
          "durationTicks": 7,
          "midi": 83,
          "name": "B5",
          "ticks": 14975,
          "time": 174.12790697674419,
          "velocity": 0.08661417322834646
        },
        {
          "duration": 0.08139534883721922,
          "durationTicks": 7,
          "midi": 84,
          "name": "C6",
          "ticks": 14975,
          "time": 174.12790697674419,
          "velocity": 0.1732283464566929
        },
        {
          "duration": 0.011627906976741542,
          "durationTicks": 1,
          "midi": 45,
          "name": "A2",
          "ticks": 14976,
          "time": 174.13953488372093,
          "velocity": 0.5196850393700787
        },
        {
          "duration": 0.22093023255814614,
          "durationTicks": 19,
          "midi": 55,
          "name": "G3",
          "ticks": 14976,
          "time": 174.13953488372093,
          "velocity": 0.33858267716535434
        },
        {
          "duration": 0.25581395348837077,
          "durationTicks": 22,
          "midi": 60,
          "name": "C4",
          "ticks": 14976,
          "time": 174.13953488372093,
          "velocity": 0.5354330708661418
        },
        {
          "duration": 0.15116279069766847,
          "durationTicks": 13,
          "midi": 88,
          "name": "E6",
          "ticks": 14976,
          "time": 174.13953488372093,
          "velocity": 0.18110236220472442
        },
        {
          "duration": 0.011627906976741542,
          "durationTicks": 1,
          "midi": 47,
          "name": "B2",
          "ticks": 14977,
          "time": 174.15116279069767,
          "velocity": 0.5275590551181102
        },
        {
          "duration": 0.04651162790699459,
          "durationTicks": 4,
          "midi": 37,
          "name": "C#2",
          "ticks": 14978,
          "time": 174.1627906976744,
          "velocity": 0.44881889763779526
        },
        {
          "duration": 0.19767441860466306,
          "durationTicks": 17,
          "midi": 48,
          "name": "C3",
          "ticks": 14978,
          "time": 174.1627906976744,
          "velocity": 0.4881889763779528
        },
        {
          "duration": 0.19767441860466306,
          "durationTicks": 17,
          "midi": 64,
          "name": "E4",
          "ticks": 14979,
          "time": 174.17441860465115,
          "velocity": 0.2992125984251969
        },
        {
          "duration": 0.13953488372095535,
          "durationTicks": 12,
          "midi": 78,
          "name": "F#5",
          "ticks": 14979,
          "time": 174.17441860465115,
          "velocity": 0.09448818897637795
        },
        {
          "duration": 0.09302325581393234,
          "durationTicks": 8,
          "midi": 36,
          "name": "C2",
          "ticks": 14982,
          "time": 174.2093023255814,
          "velocity": 0.4251968503937008
        },
        {
          "duration": 0.034883720930224626,
          "durationTicks": 3,
          "midi": 70,
          "name": "A#4",
          "ticks": 14982,
          "time": 174.2093023255814,
          "velocity": 0.11023622047244094
        },
        {
          "duration": 0.08139534883721922,
          "durationTicks": 7,
          "midi": 70,
          "name": "A#4",
          "ticks": 14987,
          "time": 174.2674418604651,
          "velocity": 0.07874015748031496
        },
        {
          "duration": 0.023255813953511506,
          "durationTicks": 2,
          "midi": 35,
          "name": "B1",
          "ticks": 14990,
          "time": 174.30232558139534,
          "velocity": 0.25984251968503935
        },
        {
          "duration": 0.0813953488371908,
          "durationTicks": 7,
          "midi": 88,
          "name": "E6",
          "ticks": 14991,
          "time": 174.3139534883721,
          "velocity": 0.18110236220472442
        },
        {
          "duration": 0.034883720930224626,
          "durationTicks": 3,
          "midi": 36,
          "name": "C2",
          "ticks": 14992,
          "time": 174.32558139534885,
          "velocity": 0.2677165354330709
        },
        {
          "duration": 0.05813953488370771,
          "durationTicks": 5,
          "midi": 47,
          "name": "B2",
          "ticks": 14995,
          "time": 174.36046511627907,
          "velocity": 0.5984251968503937
        },
        {
          "duration": 0.023255813953483084,
          "durationTicks": 2,
          "midi": 77,
          "name": "F5",
          "ticks": 14995,
          "time": 174.36046511627907,
          "velocity": 0.2283464566929134
        },
        {
          "duration": 0.45348837209303383,
          "durationTicks": 39,
          "midi": 83,
          "name": "B5",
          "ticks": 14995,
          "time": 174.36046511627907,
          "velocity": 0.25984251968503935
        },
        {
          "duration": 0.5116279069767415,
          "durationTicks": 44,
          "midi": 87,
          "name": "D#6",
          "ticks": 14995,
          "time": 174.36046511627907,
          "velocity": 0.33858267716535434
        },
        {
          "duration": 0.06976744186044925,
          "durationTicks": 6,
          "midi": 90,
          "name": "F#6",
          "ticks": 14995,
          "time": 174.36046511627907,
          "velocity": 0.14173228346456693
        },
        {
          "duration": 0.4651162790697754,
          "durationTicks": 40,
          "midi": 71,
          "name": "B4",
          "ticks": 14996,
          "time": 174.37209302325581,
          "velocity": 0.4015748031496063
        },
        {
          "duration": 0.3720930232558146,
          "durationTicks": 32,
          "midi": 78,
          "name": "F#5",
          "ticks": 14996,
          "time": 174.37209302325581,
          "velocity": 0.3543307086614173
        },
        {
          "duration": 0.15116279069766847,
          "durationTicks": 13,
          "midi": 81,
          "name": "A5",
          "ticks": 14996,
          "time": 174.37209302325581,
          "velocity": 0.25984251968503935
        },
        {
          "duration": 0.5,
          "durationTicks": 43,
          "midi": 66,
          "name": "F#4",
          "ticks": 14997,
          "time": 174.38372093023256,
          "velocity": 0.23622047244094488
        },
        {
          "duration": 0.3953488372092977,
          "durationTicks": 34,
          "midi": 69,
          "name": "A4",
          "ticks": 14997,
          "time": 174.38372093023256,
          "velocity": 0.2047244094488189
        },
        {
          "duration": 0.34883720930233153,
          "durationTicks": 30,
          "midi": 89,
          "name": "F6",
          "ticks": 14997,
          "time": 174.38372093023256,
          "velocity": 0.1889763779527559
        },
        {
          "duration": 0.034883720930224626,
          "durationTicks": 3,
          "midi": 54,
          "name": "F#3",
          "ticks": 14998,
          "time": 174.3953488372093,
          "velocity": 0.3700787401574803
        },
        {
          "duration": 0.08139534883721922,
          "durationTicks": 7,
          "midi": 85,
          "name": "C#6",
          "ticks": 14998,
          "time": 174.3953488372093,
          "velocity": 0.1732283464566929
        },
        {
          "duration": 0.034883720930224626,
          "durationTicks": 3,
          "midi": 94,
          "name": "A#6",
          "ticks": 14998,
          "time": 174.3953488372093,
          "velocity": 0.12598425196850394
        },
        {
          "duration": 0.09302325581396076,
          "durationTicks": 8,
          "midi": 97,
          "name": "C#7",
          "ticks": 14998,
          "time": 174.3953488372093,
          "velocity": 0.2047244094488189
        },
        {
          "duration": 0.43023255813955075,
          "durationTicks": 37,
          "midi": 63,
          "name": "D#4",
          "ticks": 14999,
          "time": 174.40697674418604,
          "velocity": 0.2283464566929134
        },
        {
          "duration": 0.5813953488372192,
          "durationTicks": 50,
          "midi": 47,
          "name": "B2",
          "ticks": 15001,
          "time": 174.43023255813952,
          "velocity": 0.5039370078740157
        },
        {
          "duration": 0.05813953488370771,
          "durationTicks": 5,
          "midi": 54,
          "name": "F#3",
          "ticks": 15003,
          "time": 174.45348837209303,
          "velocity": 0.2677165354330709
        },
        {
          "duration": 0.38372093023255616,
          "durationTicks": 33,
          "midi": 77,
          "name": "F5",
          "ticks": 15003,
          "time": 174.45348837209303,
          "velocity": 0.15748031496062992
        },
        {
          "duration": 0.05813953488373613,
          "durationTicks": 5,
          "midi": 85,
          "name": "C#6",
          "ticks": 15009,
          "time": 174.52325581395348,
          "velocity": 0.09448818897637795
        },
        {
          "duration": 0.04651162790699459,
          "durationTicks": 4,
          "midi": 97,
          "name": "C#7",
          "ticks": 15009,
          "time": 174.52325581395348,
          "velocity": 0.09448818897637795
        },
        {
          "duration": 0.05813953488373613,
          "durationTicks": 5,
          "midi": 54,
          "name": "F#3",
          "ticks": 15010,
          "time": 174.53488372093022,
          "velocity": 0.2047244094488189
        },
        {
          "duration": 0.03488372093025305,
          "durationTicks": 3,
          "midi": 54,
          "name": "F#3",
          "ticks": 15023,
          "time": 174.6860465116279,
          "velocity": 0.14960629921259844
        },
        {
          "duration": 0.05813953488370771,
          "durationTicks": 5,
          "midi": 55,
          "name": "G3",
          "ticks": 15067,
          "time": 175.19767441860466,
          "velocity": 0.41732283464566927
        },
        {
          "duration": 0.06976744186044925,
          "durationTicks": 6,
          "midi": 79,
          "name": "G5",
          "ticks": 15068,
          "time": 175.2093023255814,
          "velocity": 0.2204724409448819
        },
        {
          "duration": 0.1046511627907023,
          "durationTicks": 9,
          "midi": 83,
          "name": "B5",
          "ticks": 15068,
          "time": 175.2093023255814,
          "velocity": 0.1732283464566929
        },
        {
          "duration": 0.04651162790696617,
          "durationTicks": 4,
          "midi": 93,
          "name": "A6",
          "ticks": 15068,
          "time": 175.2093023255814,
          "velocity": 0.11811023622047244
        },
        {
          "duration": 0.06976744186044925,
          "durationTicks": 6,
          "midi": 67,
          "name": "G4",
          "ticks": 15069,
          "time": 175.22093023255815,
          "velocity": 0.4330708661417323
        },
        {
          "duration": 0.04651162790696617,
          "durationTicks": 4,
          "midi": 74,
          "name": "D5",
          "ticks": 15069,
          "time": 175.22093023255815,
          "velocity": 0.14173228346456693
        },
        {
          "duration": 0.11627906976744384,
          "durationTicks": 10,
          "midi": 89,
          "name": "F6",
          "ticks": 15070,
          "time": 175.2325581395349,
          "velocity": 0.14173228346456693
        },
        {
          "duration": 0.04651162790696617,
          "durationTicks": 4,
          "midi": 69,
          "name": "A4",
          "ticks": 15072,
          "time": 175.25581395348837,
          "velocity": 0.4566929133858268
        },
        {
          "duration": 0.08139534883721922,
          "durationTicks": 7,
          "midi": 85,
          "name": "C#6",
          "ticks": 15072,
          "time": 175.25581395348837,
          "velocity": 0.1732283464566929
        },
        {
          "duration": 0.023255813953483084,
          "durationTicks": 2,
          "midi": 57,
          "name": "A3",
          "ticks": 15073,
          "time": 175.2674418604651,
          "velocity": 0.48031496062992124
        },
        {
          "duration": 1.2790697674418539,
          "durationTicks": 110,
          "midi": 77,
          "name": "F5",
          "ticks": 15073,
          "time": 175.2674418604651,
          "velocity": 0.36220472440944884
        },
        {
          "duration": 1.3023255813953654,
          "durationTicks": 112,
          "midi": 86,
          "name": "D6",
          "ticks": 15073,
          "time": 175.2674418604651,
          "velocity": 0.33858267716535434
        },
        {
          "duration": 0.023255813953483084,
          "durationTicks": 2,
          "midi": 45,
          "name": "A2",
          "ticks": 15074,
          "time": 175.27906976744185,
          "velocity": 0.5905511811023622
        },
        {
          "duration": 1.2790697674418539,
          "durationTicks": 110,
          "midi": 65,
          "name": "F4",
          "ticks": 15074,
          "time": 175.27906976744185,
          "velocity": 0.28346456692913385
        },
        {
          "duration": 0.16279069767443843,
          "durationTicks": 14,
          "midi": 80,
          "name": "G#5",
          "ticks": 15074,
          "time": 175.27906976744185,
          "velocity": 0.2755905511811024
        },
        {
          "duration": 1.2674418604651123,
          "durationTicks": 109,
          "midi": 82,
          "name": "A#5",
          "ticks": 15074,
          "time": 175.27906976744185,
          "velocity": 0.2755905511811024
        },
        {
          "duration": 0.33720930232559,
          "durationTicks": 29,
          "midi": 70,
          "name": "A#4",
          "ticks": 15075,
          "time": 175.2906976744186,
          "velocity": 0.4251968503937008
        },
        {
          "duration": 0.32558139534884845,
          "durationTicks": 28,
          "midi": 88,
          "name": "E6",
          "ticks": 15075,
          "time": 175.2906976744186,
          "velocity": 0.2047244094488189
        },
        {
          "duration": 0.17441860465117998,
          "durationTicks": 15,
          "midi": 74,
          "name": "D5",
          "ticks": 15076,
          "time": 175.30232558139534,
          "velocity": 0.08661417322834646
        },
        {
          "duration": 0.09302325581396076,
          "durationTicks": 8,
          "midi": 84,
          "name": "C6",
          "ticks": 15076,
          "time": 175.30232558139534,
          "velocity": 0.18110236220472442
        },
        {
          "duration": 0.1046511627907023,
          "durationTicks": 9,
          "midi": 96,
          "name": "C7",
          "ticks": 15076,
          "time": 175.30232558139534,
          "velocity": 0.1889763779527559
        },
        {
          "duration": 0.023255813953483084,
          "durationTicks": 2,
          "midi": 53,
          "name": "F3",
          "ticks": 15077,
          "time": 175.3139534883721,
          "velocity": 0.2677165354330709
        },
        {
          "duration": 0.023255813953483084,
          "durationTicks": 2,
          "midi": 58,
          "name": "A#3",
          "ticks": 15077,
          "time": 175.3139534883721,
          "velocity": 0.3464566929133858
        },
        {
          "duration": 0.06976744186044925,
          "durationTicks": 6,
          "midi": 93,
          "name": "A6",
          "ticks": 15077,
          "time": 175.3139534883721,
          "velocity": 0.14960629921259844
        },
        {
          "duration": 0.011627906976741542,
          "durationTicks": 1,
          "midi": 45,
          "name": "A2",
          "ticks": 15078,
          "time": 175.32558139534885,
          "velocity": 0.5275590551181102
        },
        {
          "duration": 0.2906976744185954,
          "durationTicks": 25,
          "midi": 62,
          "name": "D4",
          "ticks": 15078,
          "time": 175.32558139534885,
          "velocity": 0.1968503937007874
        },
        {
          "duration": 0.023255813953483084,
          "durationTicks": 2,
          "midi": 76,
          "name": "E5",
          "ticks": 15078,
          "time": 175.32558139534885,
          "velocity": 0.2283464566929134
        },
        {
          "duration": 0.27906976744185386,
          "durationTicks": 24,
          "midi": 46,
          "name": "A#2",
          "ticks": 15079,
          "time": 175.3372093023256,
          "velocity": 0.49606299212598426
        },
        {
          "duration": 0.023255813953483084,
          "durationTicks": 2,
          "midi": 57,
          "name": "A3",
          "ticks": 15079,
          "time": 175.3372093023256,
          "velocity": 0.29133858267716534
        },
        {
          "duration": 0.034883720930224626,
          "durationTicks": 3,
          "midi": 53,
          "name": "F3",
          "ticks": 15080,
          "time": 175.34883720930233,
          "velocity": 0.29133858267716534
        },
        {
          "duration": 0.04651162790696617,
          "durationTicks": 4,
          "midi": 76,
          "name": "E5",
          "ticks": 15081,
          "time": 175.36046511627907,
          "velocity": 0.18110236220472442
        },
        {
          "duration": 0.023255813953483084,
          "durationTicks": 2,
          "midi": 53,
          "name": "F3",
          "ticks": 15084,
          "time": 175.3953488372093,
          "velocity": 0.2677165354330709
        },
        {
          "duration": 0.2093023255814046,
          "durationTicks": 18,
          "midi": 68,
          "name": "G#4",
          "ticks": 15086,
          "time": 175.41860465116278,
          "velocity": 0.14960629921259844
        },
        {
          "duration": 0.023255813953511506,
          "durationTicks": 2,
          "midi": 53,
          "name": "F3",
          "ticks": 15087,
          "time": 175.43023255813952,
          "velocity": 0.2283464566929134
        },
        {
          "duration": 0.19767441860466306,
          "durationTicks": 17,
          "midi": 76,
          "name": "E5",
          "ticks": 15087,
          "time": 175.43023255813952,
          "velocity": 0.2125984251968504
        },
        {
          "duration": 0.05813953488370771,
          "durationTicks": 5,
          "midi": 84,
          "name": "C6",
          "ticks": 15088,
          "time": 175.4418604651163,
          "velocity": 0.09448818897637795
        },
        {
          "duration": 0.034883720930224626,
          "durationTicks": 3,
          "midi": 96,
          "name": "C7",
          "ticks": 15089,
          "time": 175.45348837209303,
          "velocity": 0.09448818897637795
        },
        {
          "duration": 0.15116279069766847,
          "durationTicks": 13,
          "midi": 53,
          "name": "F3",
          "ticks": 15090,
          "time": 175.46511627906978,
          "velocity": 0.2125984251968504
        },
        {
          "duration": 0.034883720930224626,
          "durationTicks": 3,
          "midi": 57,
          "name": "A3",
          "ticks": 15102,
          "time": 175.6046511627907,
          "velocity": 0.41732283464566927
        },
        {
          "duration": 0.034883720930224626,
          "durationTicks": 3,
          "midi": 87,
          "name": "D#6",
          "ticks": 15103,
          "time": 175.61627906976744,
          "velocity": 0.18110236220472442
        },
        {
          "duration": 0.06976744186047767,
          "durationTicks": 6,
          "midi": 92,
          "name": "G#6",
          "ticks": 15104,
          "time": 175.62790697674419,
          "velocity": 0.2440944881889764
        },
        {
          "duration": 0.11627906976744384,
          "durationTicks": 10,
          "midi": 93,
          "name": "A6",
          "ticks": 15104,
          "time": 175.62790697674419,
          "velocity": 0.12598425196850394
        },
        {
          "duration": 0.011627906976741542,
          "durationTicks": 1,
          "midi": 45,
          "name": "A2",
          "ticks": 15105,
          "time": 175.63953488372093,
          "velocity": 0.5354330708661418
        },
        {
          "duration": 0.34883720930233153,
          "durationTicks": 30,
          "midi": 68,
          "name": "G#4",
          "ticks": 15105,
          "time": 175.63953488372093,
          "velocity": 0.2283464566929134
        },
        {
          "duration": 0.9069767441860392,
          "durationTicks": 78,
          "midi": 70,
          "name": "A#4",
          "ticks": 15105,
          "time": 175.63953488372093,
          "velocity": 0.4409448818897638
        },
        {
          "duration": 0.2093023255814046,
          "durationTicks": 18,
          "midi": 74,
          "name": "D5",
          "ticks": 15105,
          "time": 175.63953488372093,
          "velocity": 0.11811023622047244
        },
        {
          "duration": 0.15116279069766847,
          "durationTicks": 13,
          "midi": 80,
          "name": "G#5",
          "ticks": 15105,
          "time": 175.63953488372093,
          "velocity": 0.2283464566929134
        },
        {
          "duration": 0.1046511627907023,
          "durationTicks": 9,
          "midi": 96,
          "name": "C7",
          "ticks": 15105,
          "time": 175.63953488372093,
          "velocity": 0.2047244094488189
        },
        {
          "duration": 0.30232558139536536,
          "durationTicks": 26,
          "midi": 88,
          "name": "E6",
          "ticks": 15106,
          "time": 175.65116279069767,
          "velocity": 0.1889763779527559
        },
        {
          "duration": 0.3139534883721069,
          "durationTicks": 27,
          "midi": 53,
          "name": "F3",
          "ticks": 15107,
          "time": 175.6627906976744,
          "velocity": 0.2755905511811024
        },
        {
          "duration": 0.023255813953483084,
          "durationTicks": 2,
          "midi": 58,
          "name": "A#3",
          "ticks": 15107,
          "time": 175.6627906976744,
          "velocity": 0.29133858267716534
        },
        {
          "duration": 0.3139534883721069,
          "durationTicks": 27,
          "midi": 62,
          "name": "D4",
          "ticks": 15107,
          "time": 175.6627906976744,
          "velocity": 0.2125984251968504
        },
        {
          "duration": 0.08139534883721922,
          "durationTicks": 7,
          "midi": 84,
          "name": "C6",
          "ticks": 15107,
          "time": 175.6627906976744,
          "velocity": 0.16535433070866143
        },
        {
          "duration": 0.12790697674418539,
          "durationTicks": 11,
          "midi": 76,
          "name": "E5",
          "ticks": 15108,
          "time": 175.67441860465115,
          "velocity": 0.16535433070866143
        },
        {
          "duration": 0.30232558139536536,
          "durationTicks": 26,
          "midi": 46,
          "name": "A#2",
          "ticks": 15109,
          "time": 175.6860465116279,
          "velocity": 0.48031496062992124
        },
        {
          "duration": 0.06976744186047767,
          "durationTicks": 6,
          "midi": 96,
          "name": "C7",
          "ticks": 15116,
          "time": 175.7674418604651,
          "velocity": 0.08661417322834646
        },
        {
          "duration": 0.05813953488373613,
          "durationTicks": 5,
          "midi": 84,
          "name": "C6",
          "ticks": 15118,
          "time": 175.7906976744186,
          "velocity": 0.09448818897637795
        },
        {
          "duration": 0.15116279069766847,
          "durationTicks": 13,
          "midi": 76,
          "name": "E5",
          "ticks": 15120,
          "time": 175.8139534883721,
          "velocity": 0.11811023622047244
        },
        {
          "duration": 0.24418604651162923,
          "durationTicks": 21,
          "midi": 80,
          "name": "G#5",
          "ticks": 15128,
          "time": 175.90697674418604,
          "velocity": 0.2992125984251969
        },
        {
          "duration": 0.22093023255814614,
          "durationTicks": 19,
          "midi": 76,
          "name": "E5",
          "ticks": 15134,
          "time": 175.97674418604652,
          "velocity": 0.25984251968503935
        },
        {
          "duration": 0.034883720930224626,
          "durationTicks": 3,
          "midi": 87,
          "name": "D#6",
          "ticks": 15134,
          "time": 175.97674418604652,
          "velocity": 0.1889763779527559
        },
        {
          "duration": 0.011627906976741542,
          "durationTicks": 1,
          "midi": 47,
          "name": "B2",
          "ticks": 15135,
          "time": 175.98837209302326,
          "velocity": 0.5748031496062992
        },
        {
          "duration": 0.011627906976741542,
          "durationTicks": 1,
          "midi": 45,
          "name": "A2",
          "ticks": 15136,
          "time": 176,
          "velocity": 0.5984251968503937
        },
        {
          "duration": 0.2093023255814046,
          "durationTicks": 18,
          "midi": 68,
          "name": "G#4",
          "ticks": 15136,
          "time": 176,
          "velocity": 0.15748031496062992
        },
        {
          "duration": 0.011627906976741542,
          "durationTicks": 1,
          "midi": 46,
          "name": "A#2",
          "ticks": 15137,
          "time": 176.01162790697674,
          "velocity": 0.5354330708661418
        },
        {
          "duration": 0.1046511627907023,
          "durationTicks": 9,
          "midi": 96,
          "name": "C7",
          "ticks": 15137,
          "time": 176.01162790697674,
          "velocity": 0.1968503937007874
        },
        {
          "duration": 0.011627906976741542,
          "durationTicks": 1,
          "midi": 47,
          "name": "B2",
          "ticks": 15138,
          "time": 176.02325581395348,
          "velocity": 0.5118110236220472
        },
        {
          "duration": 0.034883720930224626,
          "durationTicks": 3,
          "midi": 53,
          "name": "F3",
          "ticks": 15138,
          "time": 176.02325581395348,
          "velocity": 0.28346456692913385
        },
        {
          "duration": 0.023255813953483084,
          "durationTicks": 2,
          "midi": 58,
          "name": "A#3",
          "ticks": 15138,
          "time": 176.02325581395348,
          "velocity": 0.28346456692913385
        },
        {
          "duration": 0.06976744186047767,
          "durationTicks": 6,
          "midi": 84,
          "name": "C6",
          "ticks": 15138,
          "time": 176.02325581395348,
          "velocity": 0.13385826771653545
        },
        {
          "duration": 0.16279069767443843,
          "durationTicks": 14,
          "midi": 46,
          "name": "A#2",
          "ticks": 15139,
          "time": 176.03488372093022,
          "velocity": 0.5433070866141733
        },
        {
          "duration": 0.16279069767443843,
          "durationTicks": 14,
          "midi": 62,
          "name": "D4",
          "ticks": 15139,
          "time": 176.03488372093022,
          "velocity": 0.1732283464566929
        },
        {
          "duration": 0.023255813953483084,
          "durationTicks": 2,
          "midi": 53,
          "name": "F3",
          "ticks": 15142,
          "time": 176.06976744186048,
          "velocity": 0.25984251968503935
        },
        {
          "duration": 0.034883720930224626,
          "durationTicks": 3,
          "midi": 93,
          "name": "A6",
          "ticks": 15142,
          "time": 176.06976744186048,
          "velocity": 0.07086614173228346
        },
        {
          "duration": 0.023255813953483084,
          "durationTicks": 2,
          "midi": 53,
          "name": "F3",
          "ticks": 15145,
          "time": 176.1046511627907,
          "velocity": 0.25196850393700787
        },
        {
          "duration": 0.05813953488373613,
          "durationTicks": 5,
          "midi": 84,
          "name": "C6",
          "ticks": 15150,
          "time": 176.1627906976744,
          "velocity": 0.07874015748031496
        },
        {
          "duration": 0.03488372093025305,
          "durationTicks": 3,
          "midi": 96,
          "name": "C7",
          "ticks": 15150,
          "time": 176.1627906976744,
          "velocity": 0.09448818897637795
        },
        {
          "duration": 0.1860465116278931,
          "durationTicks": 16,
          "midi": 80,
          "name": "G#5",
          "ticks": 15153,
          "time": 176.19767441860466,
          "velocity": 0.2992125984251969
        },
        {
          "duration": 0.12790697674418539,
          "durationTicks": 11,
          "midi": 93,
          "name": "A6",
          "ticks": 15153,
          "time": 176.19767441860466,
          "velocity": 0.13385826771653545
        },
        {
          "duration": 0.011627906976741542,
          "durationTicks": 1,
          "midi": 48,
          "name": "C3",
          "ticks": 15154,
          "time": 176.2093023255814,
          "velocity": 0.5118110236220472
        },
        {
          "duration": 0.023255813953483084,
          "durationTicks": 2,
          "midi": 45,
          "name": "A2",
          "ticks": 15155,
          "time": 176.22093023255815,
          "velocity": 0.5433070866141733
        },
        {
          "duration": 0.32558139534882,
          "durationTicks": 28,
          "midi": 68,
          "name": "G#4",
          "ticks": 15155,
          "time": 176.22093023255815,
          "velocity": 0.23622047244094488
        },
        {
          "duration": 0.3139534883720785,
          "durationTicks": 27,
          "midi": 88,
          "name": "E6",
          "ticks": 15155,
          "time": 176.22093023255815,
          "velocity": 0.25984251968503935
        },
        {
          "duration": 0.1046511627907023,
          "durationTicks": 9,
          "midi": 96,
          "name": "C7",
          "ticks": 15155,
          "time": 176.22093023255815,
          "velocity": 0.1889763779527559
        },
        {
          "duration": 0.09302325581396076,
          "durationTicks": 8,
          "midi": 84,
          "name": "C6",
          "ticks": 15156,
          "time": 176.2325581395349,
          "velocity": 0.1968503937007874
        },
        {
          "duration": 0.034883720930224626,
          "durationTicks": 3,
          "midi": 53,
          "name": "F3",
          "ticks": 15157,
          "time": 176.24418604651163,
          "velocity": 0.2283464566929134
        },
        {
          "duration": 0.023255813953483084,
          "durationTicks": 2,
          "midi": 58,
          "name": "A#3",
          "ticks": 15157,
          "time": 176.24418604651163,
          "velocity": 0.31496062992125984
        },
        {
          "duration": 0.2906976744185954,
          "durationTicks": 25,
          "midi": 62,
          "name": "D4",
          "ticks": 15157,
          "time": 176.24418604651163,
          "velocity": 0.23622047244094488
        },
        {
          "duration": 0.2906976744185954,
          "durationTicks": 25,
          "midi": 46,
          "name": "A#2",
          "ticks": 15158,
          "time": 176.25581395348837,
          "velocity": 0.4881889763779528
        },
        {
          "duration": 0.023255813953511506,
          "durationTicks": 2,
          "midi": 53,
          "name": "F3",
          "ticks": 15161,
          "time": 176.2906976744186,
          "velocity": 0.23622047244094488
        },
        {
          "duration": 0.09302325581396076,
          "durationTicks": 8,
          "midi": 76,
          "name": "E5",
          "ticks": 15161,
          "time": 176.2906976744186,
          "velocity": 0.14173228346456693
        },
        {
          "duration": 0.023255813953483084,
          "durationTicks": 2,
          "midi": 53,
          "name": "F3",
          "ticks": 15164,
          "time": 176.32558139534885,
          "velocity": 0.2283464566929134
        },
        {
          "duration": 0.17441860465115155,
          "durationTicks": 15,
          "midi": 53,
          "name": "F3",
          "ticks": 15167,
          "time": 176.36046511627907,
          "velocity": 0.2047244094488189
        },
        {
          "duration": 0.05813953488370771,
          "durationTicks": 5,
          "midi": 84,
          "name": "C6",
          "ticks": 15168,
          "time": 176.37209302325581,
          "velocity": 0.11023622047244094
        },
        {
          "duration": 0.12790697674418539,
          "durationTicks": 11,
          "midi": 76,
          "name": "E5",
          "ticks": 15170,
          "time": 176.3953488372093,
          "velocity": 0.11811023622047244
        },
        {
          "duration": 0.023255813953483084,
          "durationTicks": 2,
          "midi": 59,
          "name": "B3",
          "ticks": 15182,
          "time": 176.53488372093022,
          "velocity": 0.30708661417322836
        },
        {
          "duration": 0.34883720930233153,
          "durationTicks": 30,
          "midi": 76,
          "name": "E5",
          "ticks": 15182,
          "time": 176.53488372093022,
          "velocity": 0.36220472440944884
        },
        {
          "duration": 0.34883720930233153,
          "durationTicks": 30,
          "midi": 69,
          "name": "A4",
          "ticks": 15183,
          "time": 176.54651162790697,
          "velocity": 0.4015748031496063
        },
        {
          "duration": 0.023255813953511506,
          "durationTicks": 2,
          "midi": 60,
          "name": "C4",
          "ticks": 15184,
          "time": 176.5581395348837,
          "velocity": 0.33070866141732286
        },
        {
          "duration": 0.33720930232559,
          "durationTicks": 29,
          "midi": 64,
          "name": "E4",
          "ticks": 15184,
          "time": 176.5581395348837,
          "velocity": 0.2440944881889764
        },
        {
          "duration": 0.16279069767443843,
          "durationTicks": 14,
          "midi": 79,
          "name": "G5",
          "ticks": 15184,
          "time": 176.5581395348837,
          "velocity": 0.2677165354330709
        },
        {
          "duration": 0.34883720930233153,
          "durationTicks": 30,
          "midi": 85,
          "name": "C#6",
          "ticks": 15184,
          "time": 176.5581395348837,
          "velocity": 0.29133858267716534
        },
        {
          "duration": 0.13953488372095535,
          "durationTicks": 12,
          "midi": 95,
          "name": "B6",
          "ticks": 15184,
          "time": 176.5581395348837,
          "velocity": 0.2047244094488189
        },
        {
          "duration": 0.011627906976741542,
          "durationTicks": 1,
          "midi": 44,
          "name": "G#2",
          "ticks": 15185,
          "time": 176.56976744186048,
          "velocity": 0.5748031496062992
        },
        {
          "duration": 0.04651162790696617,
          "durationTicks": 4,
          "midi": 87,
          "name": "D#6",
          "ticks": 15185,
          "time": 176.56976744186048,
          "velocity": 0.1968503937007874
        },
        {
          "duration": 0.3139534883720785,
          "durationTicks": 27,
          "midi": 45,
          "name": "A2",
          "ticks": 15186,
          "time": 176.58139534883722,
          "velocity": 0.5511811023622047
        },
        {
          "duration": 0.034883720930224626,
          "durationTicks": 3,
          "midi": 92,
          "name": "G#6",
          "ticks": 15186,
          "time": 176.58139534883722,
          "velocity": 0.15748031496062992
        },
        {
          "duration": 0.034883720930224626,
          "durationTicks": 3,
          "midi": 100,
          "name": "E7",
          "ticks": 15186,
          "time": 176.58139534883722,
          "velocity": 0.09448818897637795
        },
        {
          "duration": 0.2906976744185954,
          "durationTicks": 25,
          "midi": 67,
          "name": "G4",
          "ticks": 15187,
          "time": 176.59302325581396,
          "velocity": 0.2125984251968504
        },
        {
          "duration": 0.0813953488371908,
          "durationTicks": 7,
          "midi": 83,
          "name": "B5",
          "ticks": 15187,
          "time": 176.59302325581396,
          "velocity": 0.1732283464566929
        },
        {
          "duration": 0.2674418604651123,
          "durationTicks": 23,
          "midi": 52,
          "name": "E3",
          "ticks": 15188,
          "time": 176.6046511627907,
          "velocity": 0.25984251968503935
        },
        {
          "duration": 0.05813953488370771,
          "durationTicks": 5,
          "midi": 73,
          "name": "C#5",
          "ticks": 15188,
          "time": 176.6046511627907,
          "velocity": 0.07874015748031496
        },
        {
          "duration": 0.023255813953483084,
          "durationTicks": 2,
          "midi": 74,
          "name": "D5",
          "ticks": 15188,
          "time": 176.6046511627907,
          "velocity": 0.2283464566929134
        },
        {
          "duration": 0.2674418604651123,
          "durationTicks": 23,
          "midi": 61,
          "name": "C#4",
          "ticks": 15189,
          "time": 176.61627906976744,
          "velocity": 0.1889763779527559
        },
        {
          "duration": 0.11627906976744384,
          "durationTicks": 10,
          "midi": 75,
          "name": "D#5",
          "ticks": 15190,
          "time": 176.62790697674419,
          "velocity": 0.1889763779527559
        },
        {
          "duration": 0.034883720930224626,
          "durationTicks": 3,
          "midi": 92,
          "name": "G#6",
          "ticks": 15191,
          "time": 176.63953488372093,
          "velocity": 0.07874015748031496
        },
        {
          "duration": 0.05813953488370771,
          "durationTicks": 5,
          "midi": 95,
          "name": "B6",
          "ticks": 15198,
          "time": 176.72093023255815,
          "velocity": 0.11023622047244094
        },
        {
          "duration": 0.05813953488370771,
          "durationTicks": 5,
          "midi": 83,
          "name": "B5",
          "ticks": 15199,
          "time": 176.7325581395349,
          "velocity": 0.07874015748031496
        },
        {
          "duration": 0.08139534883721922,
          "durationTicks": 7,
          "midi": 75,
          "name": "D#5",
          "ticks": 15201,
          "time": 176.75581395348837,
          "velocity": 0.12598425196850394
        },
        {
          "duration": 0.04651162790696617,
          "durationTicks": 4,
          "midi": 75,
          "name": "D#5",
          "ticks": 15209,
          "time": 176.84883720930233,
          "velocity": 0.18110236220472442
        },
        {
          "duration": 0.4534883720930054,
          "durationTicks": 39,
          "midi": 79,
          "name": "G5",
          "ticks": 15209,
          "time": 176.84883720930233,
          "velocity": 0.2755905511811024
        },
        {
          "duration": 0.3720930232558146,
          "durationTicks": 32,
          "midi": 83,
          "name": "B5",
          "ticks": 15211,
          "time": 176.87209302325581,
          "velocity": 0.33070866141732286
        },
        {
          "duration": 0.023255813953483084,
          "durationTicks": 2,
          "midi": 44,
          "name": "G#2",
          "ticks": 15213,
          "time": 176.8953488372093,
          "velocity": 0.6062992125984252
        },
        {
          "duration": 0.24418604651162923,
          "durationTicks": 21,
          "midi": 74,
          "name": "D5",
          "ticks": 15213,
          "time": 176.8953488372093,
          "velocity": 0.36220472440944884
        },
        {
          "duration": 0.18604651162792152,
          "durationTicks": 16,
          "midi": 77,
          "name": "F5",
          "ticks": 15213,
          "time": 176.8953488372093,
          "velocity": 0.2677165354330709
        },
        {
          "duration": 0.06976744186047767,
          "durationTicks": 6,
          "midi": 90,
          "name": "F#6",
          "ticks": 15213,
          "time": 176.8953488372093,
          "velocity": 0.10236220472440945
        },
        {
          "duration": 0.09302325581396076,
          "durationTicks": 8,
          "midi": 62,
          "name": "D4",
          "ticks": 15214,
          "time": 176.90697674418604,
          "velocity": 0.2283464566929134
        },
        {
          "duration": 0.2674418604651123,
          "durationTicks": 23,
          "midi": 67,
          "name": "G4",
          "ticks": 15214,
          "time": 176.90697674418604,
          "velocity": 0.4015748031496063
        },
        {
          "duration": 0.011627906976741542,
          "durationTicks": 1,
          "midi": 42,
          "name": "F#2",
          "ticks": 15215,
          "time": 176.91860465116278,
          "velocity": 0.5196850393700787
        },
        {
          "duration": 0.9651162790697754,
          "durationTicks": 83,
          "midi": 85,
          "name": "C#6",
          "ticks": 15215,
          "time": 176.91860465116278,
          "velocity": 0.31496062992125984
        },
        {
          "duration": 0.12790697674418539,
          "durationTicks": 11,
          "midi": 93,
          "name": "A6",
          "ticks": 15215,
          "time": 176.91860465116278,
          "velocity": 0.2125984251968504
        },
        {
          "duration": 0.023255813953511506,
          "durationTicks": 2,
          "midi": 43,
          "name": "G2",
          "ticks": 15216,
          "time": 176.93023255813952,
          "velocity": 0.47244094488188976
        },
        {
          "duration": 0.09302325581393234,
          "durationTicks": 8,
          "midi": 81,
          "name": "A5",
          "ticks": 15217,
          "time": 176.9418604651163,
          "velocity": 0.14173228346456693
        },
        {
          "duration": 0.011627906976741542,
          "durationTicks": 1,
          "midi": 42,
          "name": "F#2",
          "ticks": 15218,
          "time": 176.95348837209303,
          "velocity": 0.5196850393700787
        },
        {
          "duration": 0.15116279069766847,
          "durationTicks": 13,
          "midi": 43,
          "name": "G2",
          "ticks": 15219,
          "time": 176.96511627906978,
          "velocity": 0.5196850393700787
        },
        {
          "duration": 0.12790697674418539,
          "durationTicks": 11,
          "midi": 65,
          "name": "F4",
          "ticks": 15220,
          "time": 176.97674418604652,
          "velocity": 0.18110236220472442
        },
        {
          "duration": 0.12790697674418539,
          "durationTicks": 11,
          "midi": 59,
          "name": "B3",
          "ticks": 15221,
          "time": 176.98837209302326,
          "velocity": 0.1889763779527559
        },
        {
          "duration": 0.034883720930224626,
          "durationTicks": 3,
          "midi": 73,
          "name": "C#5",
          "ticks": 15223,
          "time": 177.01162790697674,
          "velocity": 0.1732283464566929
        },
        {
          "duration": 0.11627906976741542,
          "durationTicks": 10,
          "midi": 93,
          "name": "A6",
          "ticks": 15228,
          "time": 177.06976744186048,
          "velocity": 0.18110236220472442
        },
        {
          "duration": 0.034883720930224626,
          "durationTicks": 3,
          "midi": 62,
          "name": "D4",
          "ticks": 15229,
          "time": 177.08139534883722,
          "velocity": 0.09448818897637795
        },
        {
          "duration": 0.5348837209302246,
          "durationTicks": 46,
          "midi": 81,
          "name": "A5",
          "ticks": 15230,
          "time": 177.09302325581396,
          "velocity": 0.2440944881889764
        },
        {
          "duration": 0.023255813953483084,
          "durationTicks": 2,
          "midi": 57,
          "name": "A3",
          "ticks": 15232,
          "time": 177.11627906976744,
          "velocity": 0.4094488188976378
        },
        {
          "duration": 0.023255813953483084,
          "durationTicks": 2,
          "midi": 70,
          "name": "A#4",
          "ticks": 15232,
          "time": 177.11627906976744,
          "velocity": 0.3464566929133858
        },
        {
          "duration": 0.08139534883721922,
          "durationTicks": 7,
          "midi": 88,
          "name": "E6",
          "ticks": 15232,
          "time": 177.11627906976744,
          "velocity": 0.16535433070866143
        },
        {
          "duration": 0.011627906976741542,
          "durationTicks": 1,
          "midi": 47,
          "name": "B2",
          "ticks": 15233,
          "time": 177.12790697674419,
          "velocity": 0.5118110236220472
        },
        {
          "duration": 0.4302325581395223,
          "durationTicks": 37,
          "midi": 76,
          "name": "E5",
          "ticks": 15233,
          "time": 177.12790697674419,
          "velocity": 0.3543307086614173
        },
        {
          "duration": 0.034883720930224626,
          "durationTicks": 3,
          "midi": 45,
          "name": "A2",
          "ticks": 15234,
          "time": 177.13953488372093,
          "velocity": 0.5590551181102362
        },
        {
          "duration": 0.023255813953483084,
          "durationTicks": 2,
          "midi": 55,
          "name": "G3",
          "ticks": 15234,
          "time": 177.13953488372093,
          "velocity": 0.3464566929133858
        },
        {
          "duration": 0.09302325581396076,
          "durationTicks": 8,
          "midi": 64,
          "name": "E4",
          "ticks": 15234,
          "time": 177.13953488372093,
          "velocity": 0.2204724409448819
        },
        {
          "duration": 0.5465116279069662,
          "durationTicks": 47,
          "midi": 69,
          "name": "A4",
          "ticks": 15234,
          "time": 177.13953488372093,
          "velocity": 0.4094488188976378
        },
        {
          "duration": 0.034883720930224626,
          "durationTicks": 3,
          "midi": 75,
          "name": "D#5",
          "ticks": 15234,
          "time": 177.13953488372093,
          "velocity": 0.2283464566929134
        },
        {
          "duration": 0.034883720930224626,
          "durationTicks": 3,
          "midi": 92,
          "name": "G#6",
          "ticks": 15235,
          "time": 177.15116279069767,
          "velocity": 0.12598425196850394
        },
        {
          "duration": 0.023255813953511506,
          "durationTicks": 2,
          "midi": 44,
          "name": "G#2",
          "ticks": 15237,
          "time": 177.17441860465115,
          "velocity": 0.5748031496062992
        },
        {
          "duration": 0.67441860465118,
          "durationTicks": 58,
          "midi": 61,
          "name": "C#4",
          "ticks": 15237,
          "time": 177.17441860465115,
          "velocity": 0.23622047244094488
        },
        {
          "duration": 0.023255813953511506,
          "durationTicks": 2,
          "midi": 74,
          "name": "D5",
          "ticks": 15237,
          "time": 177.17441860465115,
          "velocity": 0.25984251968503935
        },
        {
          "duration": 0.04651162790699459,
          "durationTicks": 4,
          "midi": 52,
          "name": "E3",
          "ticks": 15238,
          "time": 177.1860465116279,
          "velocity": 0.2677165354330709
        },
        {
          "duration": 1.639534883720927,
          "durationTicks": 141,
          "midi": 45,
          "name": "A2",
          "ticks": 15239,
          "time": 177.19767441860466,
          "velocity": 0.5118110236220472
        },
        {
          "duration": 0.3488372093023031,
          "durationTicks": 30,
          "midi": 67,
          "name": "G4",
          "ticks": 15239,
          "time": 177.19767441860466,
          "velocity": 0.1732283464566929
        },
        {
          "duration": 0.034883720930224626,
          "durationTicks": 3,
          "midi": 75,
          "name": "D#5",
          "ticks": 15239,
          "time": 177.19767441860466,
          "velocity": 0.18110236220472442
        },
        {
          "duration": 1.0697674418604777,
          "durationTicks": 92,
          "midi": 52,
          "name": "E3",
          "ticks": 15243,
          "time": 177.24418604651163,
          "velocity": 0.2440944881889764
        },
        {
          "duration": 0.04651162790696617,
          "durationTicks": 4,
          "midi": 75,
          "name": "D#5",
          "ticks": 15244,
          "time": 177.25581395348837,
          "velocity": 0.15748031496062992
        },
        {
          "duration": 0.06976744186047767,
          "durationTicks": 6,
          "midi": 95,
          "name": "B6",
          "ticks": 15246,
          "time": 177.27906976744185,
          "velocity": 0.11023622047244094
        },
        {
          "duration": 0.5465116279069662,
          "durationTicks": 47,
          "midi": 75,
          "name": "D#5",
          "ticks": 15249,
          "time": 177.3139534883721,
          "velocity": 0.12598425196850394
        },
        {
          "duration": 0.04651162790696617,
          "durationTicks": 4,
          "midi": 83,
          "name": "B5",
          "ticks": 15249,
          "time": 177.3139534883721,
          "velocity": 0.07086614173228346
        },
        {
          "duration": 0.05813953488373613,
          "durationTicks": 5,
          "midi": 60,
          "name": "C4",
          "ticks": 15384,
          "time": 178.88372093023256,
          "velocity": 0.5511811023622047
        },
        {
          "duration": 0.09302325581396076,
          "durationTicks": 8,
          "midi": 79,
          "name": "G5",
          "ticks": 15384,
          "time": 178.88372093023256,
          "velocity": 0.25196850393700787
        },
        {
          "duration": 0.27906976744185386,
          "durationTicks": 24,
          "midi": 84,
          "name": "C6",
          "ticks": 15384,
          "time": 178.88372093023256,
          "velocity": 0.28346456692913385
        },
        {
          "duration": 0.13953488372092693,
          "durationTicks": 12,
          "midi": 96,
          "name": "C7",
          "ticks": 15384,
          "time": 178.88372093023256,
          "velocity": 0.29133858267716534
        },
        {
          "duration": 0.1046511627907023,
          "durationTicks": 9,
          "midi": 100,
          "name": "E7",
          "ticks": 15384,
          "time": 178.88372093023256,
          "velocity": 0.33070866141732286
        },
        {
          "duration": 0.06976744186047767,
          "durationTicks": 6,
          "midi": 88,
          "name": "E6",
          "ticks": 15385,
          "time": 178.8953488372093,
          "velocity": 0.16535433070866143
        },
        {
          "duration": 0.04651162790699459,
          "durationTicks": 4,
          "midi": 94,
          "name": "A#6",
          "ticks": 15385,
          "time": 178.8953488372093,
          "velocity": 0.07874015748031496
        },
        {
          "duration": 0.023255813953483084,
          "durationTicks": 2,
          "midi": 74,
          "name": "D5",
          "ticks": 15386,
          "time": 178.90697674418604,
          "velocity": 0.3700787401574803
        },
        {
          "duration": 0.2093023255814046,
          "durationTicks": 18,
          "midi": 85,
          "name": "C#6",
          "ticks": 15387,
          "time": 178.91860465116278,
          "velocity": 0.29133858267716534
        },
        {
          "duration": 0.09302325581396076,
          "durationTicks": 8,
          "midi": 97,
          "name": "C#7",
          "ticks": 15387,
          "time": 178.91860465116278,
          "velocity": 0.2992125984251969
        },
        {
          "duration": 0.09302325581396076,
          "durationTicks": 8,
          "midi": 101,
          "name": "F7",
          "ticks": 15387,
          "time": 178.91860465116278,
          "velocity": 0.33070866141732286
        },
        {
          "duration": 0.7093023255814046,
          "durationTicks": 61,
          "midi": 69,
          "name": "A4",
          "ticks": 15388,
          "time": 178.93023255813952,
          "velocity": 0.5354330708661418
        },
        {
          "duration": 0.023255813953511506,
          "durationTicks": 2,
          "midi": 80,
          "name": "G#5",
          "ticks": 15388,
          "time": 178.93023255813952,
          "velocity": 0.23622047244094488
        },
        {
          "duration": 0.04651162790699459,
          "durationTicks": 4,
          "midi": 89,
          "name": "F6",
          "ticks": 15388,
          "time": 178.93023255813952,
          "velocity": 0.14960629921259844
        },
        {
          "duration": 0.04651162790699459,
          "durationTicks": 4,
          "midi": 95,
          "name": "B6",
          "ticks": 15388,
          "time": 178.93023255813952,
          "velocity": 0.07874015748031496
        },
        {
          "duration": 0.011627906976741542,
          "durationTicks": 1,
          "midi": 61,
          "name": "C#4",
          "ticks": 15389,
          "time": 178.9418604651163,
          "velocity": 0.5354330708661418
        },
        {
          "duration": 0.04651162790696617,
          "durationTicks": 4,
          "midi": 62,
          "name": "D4",
          "ticks": 15390,
          "time": 178.95348837209303,
          "velocity": 0.5590551181102362
        },
        {
          "duration": 0.3720930232558146,
          "durationTicks": 32,
          "midi": 86,
          "name": "D6",
          "ticks": 15390,
          "time": 178.95348837209303,
          "velocity": 0.2677165354330709
        },
        {
          "duration": 0.20930232558137618,
          "durationTicks": 18,
          "midi": 93,
          "name": "A6",
          "ticks": 15390,
          "time": 178.95348837209303,
          "velocity": 0.30708661417322836
        },
        {
          "duration": 0.12790697674418539,
          "durationTicks": 11,
          "midi": 98,
          "name": "D7",
          "ticks": 15390,
          "time": 178.95348837209303,
          "velocity": 0.28346456692913385
        },
        {
          "duration": 0.16279069767441,
          "durationTicks": 14,
          "midi": 102,
          "name": "F#7",
          "ticks": 15390,
          "time": 178.95348837209303,
          "velocity": 0.3228346456692913
        },
        {
          "duration": 0.32558139534882,
          "durationTicks": 28,
          "midi": 50,
          "name": "D3",
          "ticks": 15391,
          "time": 178.96511627906978,
          "velocity": 0.47244094488188976
        },
        {
          "duration": 0.40697674418603924,
          "durationTicks": 35,
          "midi": 90,
          "name": "F#6",
          "ticks": 15391,
          "time": 178.96511627906978,
          "velocity": 0.2440944881889764
        },
        {
          "duration": 0.034883720930224626,
          "durationTicks": 3,
          "midi": 39,
          "name": "D#2",
          "ticks": 15392,
          "time": 178.97674418604652,
          "velocity": 0.4409448818897638
        },
        {
          "duration": 0.09302325581396076,
          "durationTicks": 8,
          "midi": 78,
          "name": "F#5",
          "ticks": 15392,
          "time": 178.97674418604652,
          "velocity": 0.09448818897637795
        },
        {
          "duration": 0.04651162790696617,
          "durationTicks": 4,
          "midi": 82,
          "name": "A#5",
          "ticks": 15392,
          "time": 178.97674418604652,
          "velocity": 0.08661417322834646
        },
        {
          "duration": 0.30232558139533694,
          "durationTicks": 26,
          "midi": 57,
          "name": "A3",
          "ticks": 15393,
          "time": 178.98837209302326,
          "velocity": 0.3228346456692913
        },
        {
          "duration": 0.30232558139533694,
          "durationTicks": 26,
          "midi": 66,
          "name": "F#4",
          "ticks": 15393,
          "time": 178.98837209302326,
          "velocity": 0.2283464566929134
        },
        {
          "duration": 0.011627906976741542,
          "durationTicks": 1,
          "midi": 61,
          "name": "C#4",
          "ticks": 15394,
          "time": 179,
          "velocity": 0.5669291338582677
        },
        {
          "duration": 0.13953488372092693,
          "durationTicks": 12,
          "midi": 76,
          "name": "E5",
          "ticks": 15394,
          "time": 179,
          "velocity": 0.07086614173228346
        },
        {
          "duration": 0.19767441860466306,
          "durationTicks": 17,
          "midi": 88,
          "name": "E6",
          "ticks": 15394,
          "time": 179,
          "velocity": 0.11811023622047244
        },
        {
          "duration": 0.023255813953483084,
          "durationTicks": 2,
          "midi": 38,
          "name": "D2",
          "ticks": 15395,
          "time": 179.01162790697674,
          "velocity": 0.41732283464566927
        },
        {
          "duration": 0.27906976744185386,
          "durationTicks": 24,
          "midi": 62,
          "name": "D4",
          "ticks": 15395,
          "time": 179.01162790697674,
          "velocity": 0.5118110236220472
        },
        {
          "duration": 0.034883720930224626,
          "durationTicks": 3,
          "midi": 91,
          "name": "G6",
          "ticks": 15395,
          "time": 179.01162790697674,
          "velocity": 0.08661417322834646
        },
        {
          "duration": 0.06976744186047767,
          "durationTicks": 6,
          "midi": 72,
          "name": "C5",
          "ticks": 15396,
          "time": 179.02325581395348,
          "velocity": 0.16535433070866143
        },
        {
          "duration": 0.06976744186047767,
          "durationTicks": 6,
          "midi": 38,
          "name": "D2",
          "ticks": 15398,
          "time": 179.04651162790697,
          "velocity": 0.36220472440944884
        },
        {
          "duration": 0.023255813953483084,
          "durationTicks": 2,
          "midi": 37,
          "name": "C#2",
          "ticks": 15404,
          "time": 179.11627906976744,
          "velocity": 0.2755905511811024
        },
        {
          "duration": 0.16279069767441,
          "durationTicks": 14,
          "midi": 38,
          "name": "D2",
          "ticks": 15406,
          "time": 179.13953488372093,
          "velocity": 0.36220472440944884
        },
        {
          "duration": 0.05813953488373613,
          "durationTicks": 5,
          "midi": 72,
          "name": "C5",
          "ticks": 15406,
          "time": 179.13953488372093,
          "velocity": 0.11811023622047244
        },
        {
          "duration": 0.06976744186047767,
          "durationTicks": 6,
          "midi": 84,
          "name": "C6",
          "ticks": 15418,
          "time": 179.27906976744185,
          "velocity": 0.11811023622047244
        },
        {
          "duration": 0.33720930232559,
          "durationTicks": 29,
          "midi": 76,
          "name": "E5",
          "ticks": 15419,
          "time": 179.2906976744186,
          "velocity": 0.3464566929133858
        },
        {
          "duration": 0.17441860465117998,
          "durationTicks": 15,
          "midi": 79,
          "name": "G5",
          "ticks": 15419,
          "time": 179.2906976744186,
          "velocity": 0.2677165354330709
        },
        {
          "duration": 0.32558139534884845,
          "durationTicks": 28,
          "midi": 45,
          "name": "A2",
          "ticks": 15420,
          "time": 179.30232558139534,
          "velocity": 0.6141732283464567
        },
        {
          "duration": 0.023255813953511506,
          "durationTicks": 2,
          "midi": 60,
          "name": "C4",
          "ticks": 15420,
          "time": 179.30232558139534,
          "velocity": 0.3228346456692913
        },
        {
          "duration": 0.1046511627907023,
          "durationTicks": 9,
          "midi": 64,
          "name": "E4",
          "ticks": 15420,
          "time": 179.30232558139534,
          "velocity": 0.2440944881889764
        },
        {
          "duration": 0.43023255813955075,
          "durationTicks": 37,
          "midi": 85,
          "name": "C#6",
          "ticks": 15420,
          "time": 179.30232558139534,
          "velocity": 0.29133858267716534
        },
        {
          "duration": 0.1046511627907023,
          "durationTicks": 9,
          "midi": 95,
          "name": "B6",
          "ticks": 15420,
          "time": 179.30232558139534,
          "velocity": 0.15748031496062992
        },
        {
          "duration": 0.023255813953483084,
          "durationTicks": 2,
          "midi": 56,
          "name": "G#3",
          "ticks": 15421,
          "time": 179.3139534883721,
          "velocity": 0.4251968503937008
        },
        {
          "duration": 0.023255813953483084,
          "durationTicks": 2,
          "midi": 61,
          "name": "C#4",
          "ticks": 15422,
          "time": 179.32558139534885,
          "velocity": 0.2755905511811024
        },
        {
          "duration": 0.3139534883720785,
          "durationTicks": 27,
          "midi": 87,
          "name": "D#6",
          "ticks": 15422,
          "time": 179.32558139534885,
          "velocity": 0.1968503937007874
        },
        {
          "duration": 0.034883720930224626,
          "durationTicks": 3,
          "midi": 92,
          "name": "G#6",
          "ticks": 15422,
          "time": 179.32558139534885,
          "velocity": 0.14173228346456693
        },
        {
          "duration": 0.0813953488371908,
          "durationTicks": 7,
          "midi": 83,
          "name": "B5",
          "ticks": 15423,
          "time": 179.3372093023256,
          "velocity": 0.16535433070866143
        },
        {
          "duration": 0.06976744186044925,
          "durationTicks": 6,
          "midi": 52,
          "name": "E3",
          "ticks": 15424,
          "time": 179.34883720930233,
          "velocity": 0.2755905511811024
        },
        {
          "duration": 0.05813953488370771,
          "durationTicks": 5,
          "midi": 61,
          "name": "C#4",
          "ticks": 15425,
          "time": 179.36046511627907,
          "velocity": 0.2204724409448819
        },
        {
          "duration": 0.034883720930224626,
          "durationTicks": 3,
          "midi": 92,
          "name": "G#6",
          "ticks": 15427,
          "time": 179.38372093023256,
          "velocity": 0.08661417322834646
        },
        {
          "duration": 0.18604651162792152,
          "durationTicks": 16,
          "midi": 52,
          "name": "E3",
          "ticks": 15431,
          "time": 179.43023255813952,
          "velocity": 0.23622047244094488
        },
        {
          "duration": 0.03488372093025305,
          "durationTicks": 3,
          "midi": 95,
          "name": "B6",
          "ticks": 15431,
          "time": 179.43023255813952,
          "velocity": 0.08661417322834646
        },
        {
          "duration": 0.034883720930224626,
          "durationTicks": 3,
          "midi": 61,
          "name": "C#4",
          "ticks": 15432,
          "time": 179.4418604651163,
          "velocity": 0.2047244094488189
        },
        {
          "duration": 0.0813953488371908,
          "durationTicks": 7,
          "midi": 74,
          "name": "D5",
          "ticks": 15435,
          "time": 179.47674418604652,
          "velocity": 0.23622047244094488
        },
        {
          "duration": 0.034883720930224626,
          "durationTicks": 3,
          "midi": 61,
          "name": "C#4",
          "ticks": 15436,
          "time": 179.48837209302326,
          "velocity": 0.2047244094488189
        },
        {
          "duration": 0.04651162790696617,
          "durationTicks": 4,
          "midi": 83,
          "name": "B5",
          "ticks": 15436,
          "time": 179.48837209302326,
          "velocity": 0.07874015748031496
        },
        {
          "duration": 0.034883720930224626,
          "durationTicks": 3,
          "midi": 74,
          "name": "D5",
          "ticks": 15444,
          "time": 179.58139534883722,
          "velocity": 0.14960629921259844
        },
        {
          "duration": 0.034883720930224626,
          "durationTicks": 3,
          "midi": 61,
          "name": "C#4",
          "ticks": 15445,
          "time": 179.59302325581396,
          "velocity": 0.15748031496062992
        },
        {
          "duration": 0.05813953488370771,
          "durationTicks": 5,
          "midi": 79,
          "name": "G5",
          "ticks": 15446,
          "time": 179.6046511627907,
          "velocity": 0.2047244094488189
        },
        {
          "duration": 0.24418604651162923,
          "durationTicks": 21,
          "midi": 62,
          "name": "D4",
          "ticks": 15448,
          "time": 179.62790697674419,
          "velocity": 0.48031496062992124
        },
        {
          "duration": 0.25581395348837077,
          "durationTicks": 22,
          "midi": 74,
          "name": "D5",
          "ticks": 15448,
          "time": 179.62790697674419,
          "velocity": 0.5039370078740157
        },
        {
          "duration": 0.2093023255814046,
          "durationTicks": 18,
          "midi": 84,
          "name": "C6",
          "ticks": 15448,
          "time": 179.62790697674419,
          "velocity": 0.15748031496062992
        },
        {
          "duration": 0.30232558139533694,
          "durationTicks": 26,
          "midi": 93,
          "name": "A6",
          "ticks": 15448,
          "time": 179.62790697674419,
          "velocity": 0.31496062992125984
        },
        {
          "duration": 0.15116279069766847,
          "durationTicks": 13,
          "midi": 102,
          "name": "F#7",
          "ticks": 15448,
          "time": 179.62790697674419,
          "velocity": 0.28346456692913385
        },
        {
          "duration": 0.034883720930224626,
          "durationTicks": 3,
          "midi": 50,
          "name": "D3",
          "ticks": 15449,
          "time": 179.63953488372093,
          "velocity": 0.47244094488188976
        },
        {
          "duration": 0.2325581395348877,
          "durationTicks": 20,
          "midi": 57,
          "name": "A3",
          "ticks": 15449,
          "time": 179.63953488372093,
          "velocity": 0.3543307086614173
        },
        {
          "duration": 0.22093023255814614,
          "durationTicks": 19,
          "midi": 69,
          "name": "A4",
          "ticks": 15450,
          "time": 179.65116279069767,
          "velocity": 0.4094488188976378
        },
        {
          "duration": 0.22093023255814614,
          "durationTicks": 19,
          "midi": 72,
          "name": "C5",
          "ticks": 15450,
          "time": 179.65116279069767,
          "velocity": 0.1968503937007874
        },
        {
          "duration": 0.08139534883721922,
          "durationTicks": 7,
          "midi": 78,
          "name": "F#5",
          "ticks": 15450,
          "time": 179.65116279069767,
          "velocity": 0.11023622047244094
        },
        {
          "duration": 0.11627906976744384,
          "durationTicks": 10,
          "midi": 90,
          "name": "F#6",
          "ticks": 15450,
          "time": 179.65116279069767,
          "velocity": 0.18110236220472442
        },
        {
          "duration": 0.2093023255814046,
          "durationTicks": 18,
          "midi": 66,
          "name": "F#4",
          "ticks": 15451,
          "time": 179.6627906976744,
          "velocity": 0.23622047244094488
        },
        {
          "duration": 0.05813953488373613,
          "durationTicks": 5,
          "midi": 80,
          "name": "G#5",
          "ticks": 15451,
          "time": 179.6627906976744,
          "velocity": 0.09448818897637795
        },
        {
          "duration": 0.04651162790699459,
          "durationTicks": 4,
          "midi": 50,
          "name": "D3",
          "ticks": 15453,
          "time": 179.6860465116279,
          "velocity": 0.36220472440944884
        },
        {
          "duration": 0.04651162790696617,
          "durationTicks": 4,
          "midi": 38,
          "name": "D2",
          "ticks": 15454,
          "time": 179.69767441860466,
          "velocity": 0.41732283464566927
        },
        {
          "duration": 0.13953488372092693,
          "durationTicks": 12,
          "midi": 50,
          "name": "D3",
          "ticks": 15458,
          "time": 179.74418604651163,
          "velocity": 0.41732283464566927
        },
        {
          "duration": 0.023255813953511506,
          "durationTicks": 2,
          "midi": 37,
          "name": "C#2",
          "ticks": 15462,
          "time": 179.7906976744186,
          "velocity": 0.2677165354330709
        },
        {
          "duration": 0.04651162790696617,
          "durationTicks": 4,
          "midi": 38,
          "name": "D2",
          "ticks": 15464,
          "time": 179.8139534883721,
          "velocity": 0.28346456692913385
        },
        {
          "duration": 0.023255813953483084,
          "durationTicks": 2,
          "midi": 37,
          "name": "C#2",
          "ticks": 15468,
          "time": 179.86046511627907,
          "velocity": 0.4015748031496063
        },
        {
          "duration": 0.023255813953483084,
          "durationTicks": 2,
          "midi": 60,
          "name": "C4",
          "ticks": 15469,
          "time": 179.87209302325581,
          "velocity": 0.4409448818897638
        },
        {
          "duration": 0.33720930232559,
          "durationTicks": 29,
          "midi": 68,
          "name": "G#4",
          "ticks": 15469,
          "time": 179.87209302325581,
          "velocity": 0.44881889763779526
        },
        {
          "duration": 0.11627906976744384,
          "durationTicks": 10,
          "midi": 77,
          "name": "F5",
          "ticks": 15469,
          "time": 179.87209302325581,
          "velocity": 0.13385826771653545
        },
        {
          "duration": 0.22093023255814614,
          "durationTicks": 19,
          "midi": 83,
          "name": "B5",
          "ticks": 15469,
          "time": 179.87209302325581,
          "velocity": 0.2047244094488189
        },
        {
          "duration": 0.06976744186047767,
          "durationTicks": 6,
          "midi": 84,
          "name": "C6",
          "ticks": 15469,
          "time": 179.87209302325581,
          "velocity": 0.12598425196850394
        },
        {
          "duration": 0.3720930232558146,
          "durationTicks": 32,
          "midi": 85,
          "name": "C#6",
          "ticks": 15469,
          "time": 179.87209302325581,
          "velocity": 0.2755905511811024
        },
        {
          "duration": 0.22093023255814614,
          "durationTicks": 19,
          "midi": 92,
          "name": "G#6",
          "ticks": 15469,
          "time": 179.87209302325581,
          "velocity": 0.31496062992125984
        },
        {
          "duration": 0.13953488372092693,
          "durationTicks": 12,
          "midi": 97,
          "name": "C#7",
          "ticks": 15469,
          "time": 179.87209302325581,
          "velocity": 0.2992125984251969
        },
        {
          "duration": 0.17441860465115155,
          "durationTicks": 15,
          "midi": 101,
          "name": "F7",
          "ticks": 15469,
          "time": 179.87209302325581,
          "velocity": 0.3464566929133858
        },
        {
          "duration": 0.023255813953483084,
          "durationTicks": 2,
          "midi": 48,
          "name": "C3",
          "ticks": 15470,
          "time": 179.88372093023256,
          "velocity": 0.5039370078740157
        },
        {
          "duration": 0.13953488372092693,
          "durationTicks": 12,
          "midi": 73,
          "name": "C#5",
          "ticks": 15470,
          "time": 179.88372093023256,
          "velocity": 0.47244094488188976
        },
        {
          "duration": 0.3953488372092977,
          "durationTicks": 34,
          "midi": 89,
          "name": "F6",
          "ticks": 15470,
          "time": 179.88372093023256,
          "velocity": 0.25984251968503935
        },
        {
          "duration": 0.06976744186047767,
          "durationTicks": 6,
          "midi": 96,
          "name": "C7",
          "ticks": 15470,
          "time": 179.88372093023256,
          "velocity": 0.15748031496062992
        },
        {
          "duration": 0.3139534883721069,
          "durationTicks": 27,
          "midi": 56,
          "name": "G#3",
          "ticks": 15471,
          "time": 179.8953488372093,
          "velocity": 0.33858267716535434
        },
        {
          "duration": 0.32558139534884845,
          "durationTicks": 28,
          "midi": 61,
          "name": "C#4",
          "ticks": 15471,
          "time": 179.8953488372093,
          "velocity": 0.5748031496062992
        },
        {
          "duration": 0.2325581395348877,
          "durationTicks": 20,
          "midi": 87,
          "name": "D#6",
          "ticks": 15471,
          "time": 179.8953488372093,
          "velocity": 0.09448818897637795
        },
        {
          "duration": 0.04651162790699459,
          "durationTicks": 4,
          "midi": 38,
          "name": "D2",
          "ticks": 15472,
          "time": 179.90697674418604,
          "velocity": 0.47244094488188976
        },
        {
          "duration": 0.30232558139536536,
          "durationTicks": 26,
          "midi": 49,
          "name": "C#3",
          "ticks": 15472,
          "time": 179.90697674418604,
          "velocity": 0.4015748031496063
        },
        {
          "duration": 0.30232558139536536,
          "durationTicks": 26,
          "midi": 65,
          "name": "F4",
          "ticks": 15472,
          "time": 179.90697674418604,
          "velocity": 0.25196850393700787
        },
        {
          "duration": 0.13953488372095535,
          "durationTicks": 12,
          "midi": 75,
          "name": "D#5",
          "ticks": 15474,
          "time": 179.93023255813952,
          "velocity": 0.08661417322834646
        },
        {
          "duration": 0.0813953488371908,
          "durationTicks": 7,
          "midi": 37,
          "name": "C#2",
          "ticks": 15476,
          "time": 179.95348837209303,
          "velocity": 0.4251968503937008
        },
        {
          "duration": 0.03488372093025305,
          "durationTicks": 3,
          "midi": 36,
          "name": "C2",
          "ticks": 15483,
          "time": 180.03488372093022,
          "velocity": 0.2440944881889764
        },
        {
          "duration": 0.13953488372092693,
          "durationTicks": 12,
          "midi": 37,
          "name": "C#2",
          "ticks": 15486,
          "time": 180.06976744186048,
          "velocity": 0.2992125984251969
        },
        {
          "duration": 0.3604651162790731,
          "durationTicks": 31,
          "midi": 69,
          "name": "A4",
          "ticks": 15498,
          "time": 180.2093023255814,
          "velocity": 0.5433070866141733
        },
        {
          "duration": 0.33720930232556157,
          "durationTicks": 29,
          "midi": 76,
          "name": "E5",
          "ticks": 15498,
          "time": 180.2093023255814,
          "velocity": 0.3543307086614173
        },
        {
          "duration": 0.12790697674418539,
          "durationTicks": 11,
          "midi": 83,
          "name": "B5",
          "ticks": 15498,
          "time": 180.2093023255814,
          "velocity": 0.1732283464566929
        },
        {
          "duration": 0.32558139534882,
          "durationTicks": 28,
          "midi": 45,
          "name": "A2",
          "ticks": 15499,
          "time": 180.22093023255815,
          "velocity": 0.6141732283464567
        },
        {
          "duration": 0.17441860465115155,
          "durationTicks": 15,
          "midi": 79,
          "name": "G5",
          "ticks": 15499,
          "time": 180.22093023255815,
          "velocity": 0.28346456692913385
        },
        {
          "duration": 0.034883720930224626,
          "durationTicks": 3,
          "midi": 84,
          "name": "C6",
          "ticks": 15499,
          "time": 180.22093023255815,
          "velocity": 0.11811023622047244
        },
        {
          "duration": 0.1046511627907023,
          "durationTicks": 9,
          "midi": 95,
          "name": "B6",
          "ticks": 15499,
          "time": 180.22093023255815,
          "velocity": 0.1732283464566929
        },
        {
          "duration": 0.034883720930224626,
          "durationTicks": 3,
          "midi": 61,
          "name": "C#4",
          "ticks": 15500,
          "time": 180.2325581395349,
          "velocity": 0.28346456692913385
        },
        {
          "duration": 0.034883720930224626,
          "durationTicks": 3,
          "midi": 75,
          "name": "D#5",
          "ticks": 15500,
          "time": 180.2325581395349,
          "velocity": 0.23622047244094488
        },
        {
          "duration": 0.11627906976744384,
          "durationTicks": 10,
          "midi": 64,
          "name": "E4",
          "ticks": 15501,
          "time": 180.24418604651163,
          "velocity": 0.2204724409448819
        },
        {
          "duration": 0.034883720930224626,
          "durationTicks": 3,
          "midi": 92,
          "name": "G#6",
          "ticks": 15501,
          "time": 180.24418604651163,
          "velocity": 0.14173228346456693
        },
        {
          "duration": 0.12790697674418539,
          "durationTicks": 11,
          "midi": 75,
          "name": "D#5",
          "ticks": 15504,
          "time": 180.27906976744185,
          "velocity": 0.2125984251968504
        },
        {
          "duration": 0.023255813953511506,
          "durationTicks": 2,
          "midi": 52,
          "name": "E3",
          "ticks": 15505,
          "time": 180.2906976744186,
          "velocity": 0.25984251968503935
        },
        {
          "duration": 0.5232558139535115,
          "durationTicks": 45,
          "midi": 61,
          "name": "C#4",
          "ticks": 15505,
          "time": 180.2906976744186,
          "velocity": 0.4881889763779528
        },
        {
          "duration": 0.20930232558137618,
          "durationTicks": 18,
          "midi": 52,
          "name": "E3",
          "ticks": 15508,
          "time": 180.32558139534885,
          "velocity": 0.23622047244094488
        },
        {
          "duration": 0.034883720930224626,
          "durationTicks": 3,
          "midi": 95,
          "name": "B6",
          "ticks": 15510,
          "time": 180.34883720930233,
          "velocity": 0.08661417322834646
        },
        {
          "duration": 0.04651162790699459,
          "durationTicks": 4,
          "midi": 83,
          "name": "B5",
          "ticks": 15515,
          "time": 180.40697674418604,
          "velocity": 0.08661417322834646
        },
        {
          "duration": 0.04651162790699459,
          "durationTicks": 4,
          "midi": 75,
          "name": "D#5",
          "ticks": 15516,
          "time": 180.41860465116278,
          "velocity": 0.13385826771653545
        },
        {
          "duration": 0.06976744186044925,
          "durationTicks": 6,
          "midi": 75,
          "name": "D#5",
          "ticks": 15521,
          "time": 180.47674418604652,
          "velocity": 0.11023622047244094
        },
        {
          "duration": 0.034883720930224626,
          "durationTicks": 3,
          "midi": 79,
          "name": "G5",
          "ticks": 15524,
          "time": 180.51162790697674,
          "velocity": 0.08661417322834646
        },
        {
          "duration": 0.04651162790699459,
          "durationTicks": 4,
          "midi": 83,
          "name": "B5",
          "ticks": 15526,
          "time": 180.53488372093022,
          "velocity": 0.1968503937007874
        },
        {
          "duration": 0.03488372093025305,
          "durationTicks": 3,
          "midi": 78,
          "name": "F#5",
          "ticks": 15527,
          "time": 180.54651162790697,
          "velocity": 0.14960629921259844
        },
        {
          "duration": 0.5930232558139608,
          "durationTicks": 51,
          "midi": 89,
          "name": "F6",
          "ticks": 15527,
          "time": 180.54651162790697,
          "velocity": 0.25196850393700787
        },
        {
          "duration": 0.3139534883721069,
          "durationTicks": 27,
          "midi": 92,
          "name": "G#6",
          "ticks": 15527,
          "time": 180.54651162790697,
          "velocity": 0.3228346456692913
        },
        {
          "duration": 0.16279069767443843,
          "durationTicks": 14,
          "midi": 101,
          "name": "F7",
          "ticks": 15527,
          "time": 180.54651162790697,
          "velocity": 0.30708661417322836
        },
        {
          "duration": 0.03488372093025305,
          "durationTicks": 3,
          "midi": 56,
          "name": "G#3",
          "ticks": 15528,
          "time": 180.5581395348837,
          "velocity": 0.3228346456692913
        },
        {
          "duration": 0.023255813953511506,
          "durationTicks": 2,
          "midi": 64,
          "name": "E4",
          "ticks": 15528,
          "time": 180.5581395348837,
          "velocity": 0.29133858267716534
        },
        {
          "duration": 0.08139534883721922,
          "durationTicks": 7,
          "midi": 96,
          "name": "C7",
          "ticks": 15528,
          "time": 180.5581395348837,
          "velocity": 0.14960629921259844
        },
        {
          "duration": 0.22093023255811772,
          "durationTicks": 19,
          "midi": 68,
          "name": "G#4",
          "ticks": 15529,
          "time": 180.56976744186048,
          "velocity": 0.44881889763779526
        },
        {
          "duration": 0.04651162790696617,
          "durationTicks": 4,
          "midi": 38,
          "name": "D2",
          "ticks": 15530,
          "time": 180.58139534883722,
          "velocity": 0.4251968503937008
        },
        {
          "duration": 0.19767441860463464,
          "durationTicks": 17,
          "midi": 65,
          "name": "F4",
          "ticks": 15530,
          "time": 180.58139534883722,
          "velocity": 0.2440944881889764
        },
        {
          "duration": 0.10465116279067388,
          "durationTicks": 9,
          "midi": 79,
          "name": "G5",
          "ticks": 15530,
          "time": 180.58139534883722,
          "velocity": 0.14173228346456693
        },
        {
          "duration": 0.16279069767441,
          "durationTicks": 14,
          "midi": 75,
          "name": "D#5",
          "ticks": 15531,
          "time": 180.59302325581396,
          "velocity": 0.11023622047244094
        },
        {
          "duration": 0.17441860465115155,
          "durationTicks": 15,
          "midi": 56,
          "name": "G#3",
          "ticks": 15532,
          "time": 180.6046511627907,
          "velocity": 0.2992125984251969
        },
        {
          "duration": 0.16279069767441,
          "durationTicks": 14,
          "midi": 83,
          "name": "B5",
          "ticks": 15532,
          "time": 180.6046511627907,
          "velocity": 0.15748031496062992
        },
        {
          "duration": 0.09302325581396076,
          "durationTicks": 8,
          "midi": 37,
          "name": "C#2",
          "ticks": 15534,
          "time": 180.62790697674419,
          "velocity": 0.4094488188976378
        },
        {
          "duration": 0.023255813953483084,
          "durationTicks": 2,
          "midi": 36,
          "name": "C2",
          "ticks": 15542,
          "time": 180.72093023255815,
          "velocity": 0.2677165354330709
        },
        {
          "duration": 0.023255813953483084,
          "durationTicks": 2,
          "midi": 37,
          "name": "C#2",
          "ticks": 15544,
          "time": 180.74418604651163,
          "velocity": 0.29133858267716534
        },
        {
          "duration": 0.023255813953483084,
          "durationTicks": 2,
          "midi": 36,
          "name": "C2",
          "ticks": 15546,
          "time": 180.7674418604651,
          "velocity": 0.3464566929133858
        },
        {
          "duration": 0.12790697674418539,
          "durationTicks": 11,
          "midi": 77,
          "name": "F5",
          "ticks": 15547,
          "time": 180.77906976744185,
          "velocity": 0.4409448818897638
        },
        {
          "duration": 0.08139534883721922,
          "durationTicks": 7,
          "midi": 81,
          "name": "A5",
          "ticks": 15547,
          "time": 180.77906976744185,
          "velocity": 0.12598425196850394
        },
        {
          "duration": 0.03488372093025305,
          "durationTicks": 3,
          "midi": 82,
          "name": "A#5",
          "ticks": 15547,
          "time": 180.77906976744185,
          "velocity": 0.08661417322834646
        },
        {
          "duration": 0.34883720930233153,
          "durationTicks": 30,
          "midi": 84,
          "name": "C6",
          "ticks": 15547,
          "time": 180.77906976744185,
          "velocity": 0.2677165354330709
        },
        {
          "duration": 0.18604651162792152,
          "durationTicks": 16,
          "midi": 96,
          "name": "C7",
          "ticks": 15547,
          "time": 180.77906976744185,
          "velocity": 0.31496062992125984
        },
        {
          "duration": 0.1046511627907023,
          "durationTicks": 9,
          "midi": 101,
          "name": "F7",
          "ticks": 15547,
          "time": 180.77906976744185,
          "velocity": 0.2677165354330709
        },
        {
          "duration": 0.33720930232559,
          "durationTicks": 29,
          "midi": 53,
          "name": "F3",
          "ticks": 15548,
          "time": 180.7906976744186,
          "velocity": 0.48031496062992124
        },
        {
          "duration": 0.34883720930233153,
          "durationTicks": 30,
          "midi": 65,
          "name": "F4",
          "ticks": 15548,
          "time": 180.7906976744186,
          "velocity": 0.5511811023622047
        },
        {
          "duration": 0.33720930232559,
          "durationTicks": 29,
          "midi": 72,
          "name": "C5",
          "ticks": 15548,
          "time": 180.7906976744186,
          "velocity": 0.4566929133858268
        },
        {
          "duration": 0.08139534883721922,
          "durationTicks": 7,
          "midi": 85,
          "name": "C#6",
          "ticks": 15548,
          "time": 180.7906976744186,
          "velocity": 0.18110236220472442
        },
        {
          "duration": 0.19767441860466306,
          "durationTicks": 17,
          "midi": 91,
          "name": "G6",
          "ticks": 15548,
          "time": 180.7906976744186,
          "velocity": 0.09448818897637795
        },
        {
          "duration": 0.32558139534884845,
          "durationTicks": 28,
          "midi": 93,
          "name": "A6",
          "ticks": 15548,
          "time": 180.7906976744186,
          "velocity": 0.23622047244094488
        },
        {
          "duration": 0.05813953488373613,
          "durationTicks": 5,
          "midi": 100,
          "name": "E7",
          "ticks": 15548,
          "time": 180.7906976744186,
          "velocity": 0.13385826771653545
        },
        {
          "duration": 0.03488372093025305,
          "durationTicks": 3,
          "midi": 42,
          "name": "F#2",
          "ticks": 15549,
          "time": 180.80232558139534,
          "velocity": 0.44881889763779526
        },
        {
          "duration": 0.2906976744186238,
          "durationTicks": 25,
          "midi": 75,
          "name": "D#5",
          "ticks": 15549,
          "time": 180.80232558139534,
          "velocity": 0.1732283464566929
        },
        {
          "duration": 0.023255813953483084,
          "durationTicks": 2,
          "midi": 60,
          "name": "C4",
          "ticks": 15550,
          "time": 180.8139534883721,
          "velocity": 0.3700787401574803
        },
        {
          "duration": 0.7093023255813762,
          "durationTicks": 61,
          "midi": 69,
          "name": "A4",
          "ticks": 15550,
          "time": 180.8139534883721,
          "velocity": 0.5275590551181102
        },
        {
          "duration": 0.10465116279067388,
          "durationTicks": 9,
          "midi": 79,
          "name": "G5",
          "ticks": 15550,
          "time": 180.8139534883721,
          "velocity": 0.07874015748031496
        },
        {
          "duration": 0.06976744186044925,
          "durationTicks": 6,
          "midi": 83,
          "name": "B5",
          "ticks": 15550,
          "time": 180.8139534883721,
          "velocity": 0.14960629921259844
        },
        {
          "duration": 0.12790697674418539,
          "durationTicks": 11,
          "midi": 87,
          "name": "D#6",
          "ticks": 15551,
          "time": 180.82558139534885,
          "velocity": 0.1732283464566929
        },
        {
          "duration": 0.023255813953483084,
          "durationTicks": 2,
          "midi": 41,
          "name": "F2",
          "ticks": 15552,
          "time": 180.8372093023256,
          "velocity": 0.4645669291338583
        },
        {
          "duration": 0.3139534883720785,
          "durationTicks": 27,
          "midi": 60,
          "name": "C4",
          "ticks": 15553,
          "time": 180.84883720930233,
          "velocity": 0.3700787401574803
        },
        {
          "duration": 0.023255813953483084,
          "durationTicks": 2,
          "midi": 41,
          "name": "F2",
          "ticks": 15555,
          "time": 180.87209302325581,
          "velocity": 0.33858267716535434
        },
        {
          "duration": 0.023255813953483084,
          "durationTicks": 2,
          "midi": 40,
          "name": "E2",
          "ticks": 15557,
          "time": 180.8953488372093,
          "velocity": 0.31496062992125984
        },
        {
          "duration": 0.2093023255814046,
          "durationTicks": 18,
          "midi": 41,
          "name": "F2",
          "ticks": 15559,
          "time": 180.91860465116278,
          "velocity": 0.31496062992125984
        },
        {
          "duration": 0.034883720930224626,
          "durationTicks": 3,
          "midi": 73,
          "name": "C#5",
          "ticks": 15577,
          "time": 181.12790697674419,
          "velocity": 0.1732283464566929
        },
        {
          "duration": 0.17441860465115155,
          "durationTicks": 15,
          "midi": 79,
          "name": "G5",
          "ticks": 15577,
          "time": 181.12790697674419,
          "velocity": 0.2677165354330709
        },
        {
          "duration": 0.38372093023255616,
          "durationTicks": 33,
          "midi": 85,
          "name": "C#6",
          "ticks": 15577,
          "time": 181.12790697674419,
          "velocity": 0.29133858267716534
        },
        {
          "duration": 0.011627906976741542,
          "durationTicks": 1,
          "midi": 44,
          "name": "G#2",
          "ticks": 15578,
          "time": 181.13953488372093,
          "velocity": 0.5748031496062992
        },
        {
          "duration": 0.15116279069766847,
          "durationTicks": 13,
          "midi": 88,
          "name": "E6",
          "ticks": 15578,
          "time": 181.13953488372093,
          "velocity": 0.2204724409448819
        },
        {
          "duration": 0.1046511627907023,
          "durationTicks": 9,
          "midi": 95,
          "name": "B6",
          "ticks": 15578,
          "time": 181.13953488372093,
          "velocity": 0.15748031496062992
        },
        {
          "duration": 0.32558139534884845,
          "durationTicks": 28,
          "midi": 45,
          "name": "A2",
          "ticks": 15579,
          "time": 181.15116279069767,
          "velocity": 0.6062992125984252
        },
        {
          "duration": 0.09302325581396076,
          "durationTicks": 8,
          "midi": 64,
          "name": "E4",
          "ticks": 15579,
          "time": 181.15116279069767,
          "velocity": 0.25984251968503935
        },
        {
          "duration": 0.13953488372092693,
          "durationTicks": 12,
          "midi": 75,
          "name": "D#5",
          "ticks": 15579,
          "time": 181.15116279069767,
          "velocity": 0.23622047244094488
        },
        {
          "duration": 0.32558139534884845,
          "durationTicks": 28,
          "midi": 76,
          "name": "E5",
          "ticks": 15579,
          "time": 181.15116279069767,
          "velocity": 0.3464566929133858
        },
        {
          "duration": 0.03488372093025305,
          "durationTicks": 3,
          "midi": 92,
          "name": "G#6",
          "ticks": 15580,
          "time": 181.1627906976744,
          "velocity": 0.12598425196850394
        },
        {
          "duration": 0.08139534883721922,
          "durationTicks": 7,
          "midi": 83,
          "name": "B5",
          "ticks": 15581,
          "time": 181.17441860465115,
          "velocity": 0.16535433070866143
        },
        {
          "duration": 0.04651162790699459,
          "durationTicks": 4,
          "midi": 84,
          "name": "C6",
          "ticks": 15581,
          "time": 181.17441860465115,
          "velocity": 0.11811023622047244
        },
        {
          "duration": 0.27906976744185386,
          "durationTicks": 24,
          "midi": 61,
          "name": "C#4",
          "ticks": 15583,
          "time": 181.19767441860466,
          "velocity": 0.1889763779527559
        },
        {
          "duration": 0.0813953488371908,
          "durationTicks": 7,
          "midi": 52,
          "name": "E3",
          "ticks": 15584,
          "time": 181.2093023255814,
          "velocity": 0.2755905511811024
        },
        {
          "duration": 0.034883720930224626,
          "durationTicks": 3,
          "midi": 92,
          "name": "G#6",
          "ticks": 15585,
          "time": 181.22093023255815,
          "velocity": 0.08661417322834646
        },
        {
          "duration": 0.034883720930224626,
          "durationTicks": 3,
          "midi": 95,
          "name": "B6",
          "ticks": 15589,
          "time": 181.2674418604651,
          "velocity": 0.08661417322834646
        },
        {
          "duration": 0.16279069767443843,
          "durationTicks": 14,
          "midi": 52,
          "name": "E3",
          "ticks": 15592,
          "time": 181.30232558139534,
          "velocity": 0.2125984251968504
        },
        {
          "duration": 0.05813953488370771,
          "durationTicks": 5,
          "midi": 83,
          "name": "B5",
          "ticks": 15593,
          "time": 181.3139534883721,
          "velocity": 0.08661417322834646
        },
        {
          "duration": 0.12790697674418539,
          "durationTicks": 11,
          "midi": 75,
          "name": "D#5",
          "ticks": 15595,
          "time": 181.3372093023256,
          "velocity": 0.12598425196850394
        },
        {
          "duration": 0.04651162790699459,
          "durationTicks": 4,
          "midi": 79,
          "name": "G5",
          "ticks": 15603,
          "time": 181.43023255813952,
          "velocity": 0.09448818897637795
        },
        {
          "duration": 0.22093023255814614,
          "durationTicks": 19,
          "midi": 60,
          "name": "C4",
          "ticks": 15607,
          "time": 181.47674418604652,
          "velocity": 0.31496062992125984
        },
        {
          "duration": 0.2325581395348877,
          "durationTicks": 20,
          "midi": 65,
          "name": "F4",
          "ticks": 15607,
          "time": 181.47674418604652,
          "velocity": 0.4881889763779528
        },
        {
          "duration": 0.2325581395348877,
          "durationTicks": 20,
          "midi": 77,
          "name": "F5",
          "ticks": 15607,
          "time": 181.47674418604652,
          "velocity": 0.49606299212598426
        },
        {
          "duration": 0.19767441860463464,
          "durationTicks": 17,
          "midi": 84,
          "name": "C6",
          "ticks": 15607,
          "time": 181.47674418604652,
          "velocity": 0.14173228346456693
        },
        {
          "duration": 0.27906976744185386,
          "durationTicks": 24,
          "midi": 96,
          "name": "C7",
          "ticks": 15607,
          "time": 181.47674418604652,
          "velocity": 0.3228346456692913
        },
        {
          "duration": 0.2093023255814046,
          "durationTicks": 18,
          "midi": 53,
          "name": "F3",
          "ticks": 15608,
          "time": 181.48837209302326,
          "velocity": 0.4645669291338583
        },
        {
          "duration": 0.2093023255814046,
          "durationTicks": 18,
          "midi": 72,
          "name": "C5",
          "ticks": 15608,
          "time": 181.48837209302326,
          "velocity": 0.44881889763779526
        },
        {
          "duration": 0.2093023255814046,
          "durationTicks": 18,
          "midi": 75,
          "name": "D#5",
          "ticks": 15608,
          "time": 181.48837209302326,
          "velocity": 0.2755905511811024
        },
        {
          "duration": 0.04651162790696617,
          "durationTicks": 4,
          "midi": 93,
          "name": "A6",
          "ticks": 15608,
          "time": 181.48837209302326,
          "velocity": 0.12598425196850394
        },
        {
          "duration": 0.05813953488370771,
          "durationTicks": 5,
          "midi": 100,
          "name": "E7",
          "ticks": 15608,
          "time": 181.48837209302326,
          "velocity": 0.14960629921259844
        },
        {
          "duration": 0.05813953488370771,
          "durationTicks": 5,
          "midi": 83,
          "name": "B5",
          "ticks": 15609,
          "time": 181.5,
          "velocity": 0.12598425196850394
        },
        {
          "duration": 0.25581395348837077,
          "durationTicks": 22,
          "midi": 91,
          "name": "G6",
          "ticks": 15609,
          "time": 181.5,
          "velocity": 0.12598425196850394
        },
        {
          "duration": 0.023255813953483084,
          "durationTicks": 2,
          "midi": 42,
          "name": "F#2",
          "ticks": 15610,
          "time": 181.51162790697674,
          "velocity": 0.47244094488188976
        },
        {
          "duration": 0.1046511627907023,
          "durationTicks": 9,
          "midi": 79,
          "name": "G5",
          "ticks": 15611,
          "time": 181.52325581395348,
          "velocity": 0.13385826771653545
        },
        {
          "duration": 0.034883720930224626,
          "durationTicks": 3,
          "midi": 85,
          "name": "C#6",
          "ticks": 15611,
          "time": 181.52325581395348,
          "velocity": 0.08661417322834646
        },
        {
          "duration": 0.023255813953483084,
          "durationTicks": 2,
          "midi": 41,
          "name": "F2",
          "ticks": 15612,
          "time": 181.53488372093022,
          "velocity": 0.4251968503937008
        },
        {
          "duration": 0.17441860465117998,
          "durationTicks": 15,
          "midi": 69,
          "name": "A4",
          "ticks": 15612,
          "time": 181.53488372093022,
          "velocity": 0.2677165354330709
        },
        {
          "duration": 0.06976744186044925,
          "durationTicks": 6,
          "midi": 83,
          "name": "B5",
          "ticks": 15615,
          "time": 181.56976744186048,
          "velocity": 0.07874015748031496
        },
        {
          "duration": 0.034883720930224626,
          "durationTicks": 3,
          "midi": 85,
          "name": "C#6",
          "ticks": 15615,
          "time": 181.56976744186048,
          "velocity": 0.07086614173228346
        },
        {
          "duration": 0.023255813953483084,
          "durationTicks": 2,
          "midi": 41,
          "name": "F2",
          "ticks": 15617,
          "time": 181.59302325581396,
          "velocity": 0.31496062992125984
        },
        {
          "duration": 0.023255813953483084,
          "durationTicks": 2,
          "midi": 40,
          "name": "E2",
          "ticks": 15619,
          "time": 181.61627906976744,
          "velocity": 0.2755905511811024
        },
        {
          "duration": 0.04651162790696617,
          "durationTicks": 4,
          "midi": 41,
          "name": "F2",
          "ticks": 15621,
          "time": 181.63953488372093,
          "velocity": 0.3228346456692913
        },
        {
          "duration": 0.5465116279069662,
          "durationTicks": 47,
          "midi": 83,
          "name": "B5",
          "ticks": 15626,
          "time": 181.69767441860466,
          "velocity": 0.2992125984251969
        },
        {
          "duration": 0.034883720930224626,
          "durationTicks": 3,
          "midi": 86,
          "name": "D6",
          "ticks": 15626,
          "time": 181.69767441860466,
          "velocity": 0.11811023622047244
        },
        {
          "duration": 0.06976744186044925,
          "durationTicks": 6,
          "midi": 87,
          "name": "D#6",
          "ticks": 15626,
          "time": 181.69767441860466,
          "velocity": 0.10236220472440945
        },
        {
          "duration": 0.40697674418603924,
          "durationTicks": 35,
          "midi": 88,
          "name": "E6",
          "ticks": 15626,
          "time": 181.69767441860466,
          "velocity": 0.25196850393700787
        },
        {
          "duration": 0.06976744186044925,
          "durationTicks": 6,
          "midi": 93,
          "name": "A6",
          "ticks": 15626,
          "time": 181.69767441860466,
          "velocity": 0.08661417322834646
        },
        {
          "duration": 0.1860465116278931,
          "durationTicks": 16,
          "midi": 95,
          "name": "B6",
          "ticks": 15626,
          "time": 181.69767441860466,
          "velocity": 0.2992125984251969
        },
        {
          "duration": 0.11627906976744384,
          "durationTicks": 10,
          "midi": 100,
          "name": "E7",
          "ticks": 15626,
          "time": 181.69767441860466,
          "velocity": 0.2677165354330709
        },
        {
          "duration": 0.7790697674418539,
          "durationTicks": 67,
          "midi": 64,
          "name": "E4",
          "ticks": 15627,
          "time": 181.7093023255814,
          "velocity": 0.5511811023622047
        },
        {
          "duration": 0.46511627906974695,
          "durationTicks": 40,
          "midi": 71,
          "name": "B4",
          "ticks": 15627,
          "time": 181.7093023255814,
          "velocity": 0.4566929133858268
        },
        {
          "duration": 0.09302325581393234,
          "durationTicks": 8,
          "midi": 80,
          "name": "G#5",
          "ticks": 15627,
          "time": 181.7093023255814,
          "velocity": 0.14960629921259844
        },
        {
          "duration": 0.20930232558137618,
          "durationTicks": 18,
          "midi": 90,
          "name": "F#6",
          "ticks": 15627,
          "time": 181.7093023255814,
          "velocity": 0.10236220472440945
        },
        {
          "duration": 0.3488372093023031,
          "durationTicks": 30,
          "midi": 92,
          "name": "G#6",
          "ticks": 15627,
          "time": 181.7093023255814,
          "velocity": 0.25984251968503935
        },
        {
          "duration": 0.05813953488370771,
          "durationTicks": 5,
          "midi": 99,
          "name": "D#7",
          "ticks": 15627,
          "time": 181.7093023255814,
          "velocity": 0.15748031496062992
        },
        {
          "duration": 0.7674418604651123,
          "durationTicks": 66,
          "midi": 52,
          "name": "E3",
          "ticks": 15628,
          "time": 181.72093023255815,
          "velocity": 0.4645669291338583
        },
        {
          "duration": 0.6744186046511516,
          "durationTicks": 58,
          "midi": 59,
          "name": "B3",
          "ticks": 15628,
          "time": 181.72093023255815,
          "velocity": 0.3228346456692913
        },
        {
          "duration": 0.33720930232556157,
          "durationTicks": 29,
          "midi": 74,
          "name": "D5",
          "ticks": 15628,
          "time": 181.72093023255815,
          "velocity": 0.2283464566929134
        },
        {
          "duration": 0.13953488372092693,
          "durationTicks": 12,
          "midi": 82,
          "name": "A#5",
          "ticks": 15628,
          "time": 181.72093023255815,
          "velocity": 0.11811023622047244
        },
        {
          "duration": 0.11627906976744384,
          "durationTicks": 10,
          "midi": 84,
          "name": "C6",
          "ticks": 15628,
          "time": 181.72093023255815,
          "velocity": 0.11023622047244094
        },
        {
          "duration": 0.66279069767441,
          "durationTicks": 57,
          "midi": 68,
          "name": "G#4",
          "ticks": 15629,
          "time": 181.7325581395349,
          "velocity": 0.23622047244094488
        },
        {
          "duration": 0.7209302325581461,
          "durationTicks": 62,
          "midi": 40,
          "name": "E2",
          "ticks": 15632,
          "time": 181.7674418604651,
          "velocity": 0.3858267716535433
        },
        {
          "duration": 0.05813953488373613,
          "durationTicks": 5,
          "midi": 78,
          "name": "F#5",
          "ticks": 15633,
          "time": 181.77906976744185,
          "velocity": 0.07874015748031496
        },
        {
          "duration": 0.11627906976744384,
          "durationTicks": 10,
          "midi": 79,
          "name": "G5",
          "ticks": 15698,
          "time": 182.53488372093022,
          "velocity": 0.30708661417322836
        },
        {
          "duration": 1.6279069767441854,
          "durationTicks": 140,
          "midi": 86,
          "name": "D6",
          "ticks": 15698,
          "time": 182.53488372093022,
          "velocity": 0.31496062992125984
        },
        {
          "duration": 0.05813953488373613,
          "durationTicks": 5,
          "midi": 67,
          "name": "G4",
          "ticks": 15699,
          "time": 182.54651162790697,
          "velocity": 0.5354330708661418
        },
        {
          "duration": 0.09302325581396076,
          "durationTicks": 8,
          "midi": 69,
          "name": "A4",
          "ticks": 15700,
          "time": 182.5581395348837,
          "velocity": 0.5433070866141733
        },
        {
          "duration": 0.12790697674418539,
          "durationTicks": 11,
          "midi": 88,
          "name": "E6",
          "ticks": 15701,
          "time": 182.56976744186048,
          "velocity": 0.2125984251968504
        },
        {
          "duration": 0.04651162790696617,
          "durationTicks": 4,
          "midi": 67,
          "name": "G4",
          "ticks": 15705,
          "time": 182.61627906976744,
          "velocity": 0.4015748031496063
        },
        {
          "duration": 0.33720930232559,
          "durationTicks": 29,
          "midi": 77,
          "name": "F5",
          "ticks": 15706,
          "time": 182.62790697674419,
          "velocity": 0.3543307086614173
        },
        {
          "duration": 0.011627906976741542,
          "durationTicks": 1,
          "midi": 47,
          "name": "B2",
          "ticks": 15707,
          "time": 182.63953488372093,
          "velocity": 0.5590551181102362
        },
        {
          "duration": 0.023255813953483084,
          "durationTicks": 2,
          "midi": 61,
          "name": "C#4",
          "ticks": 15707,
          "time": 182.63953488372093,
          "velocity": 0.30708661417322836
        },
        {
          "duration": 0.2093023255814046,
          "durationTicks": 18,
          "midi": 74,
          "name": "D5",
          "ticks": 15707,
          "time": 182.63953488372093,
          "velocity": 0.1732283464566929
        },
        {
          "duration": 0.2674418604651123,
          "durationTicks": 23,
          "midi": 82,
          "name": "A#5",
          "ticks": 15707,
          "time": 182.63953488372093,
          "velocity": 0.30708661417322836
        },
        {
          "duration": 0.3139534883721069,
          "durationTicks": 27,
          "midi": 92,
          "name": "G#6",
          "ticks": 15707,
          "time": 182.63953488372093,
          "velocity": 0.18110236220472442
        },
        {
          "duration": 0.09302325581396076,
          "durationTicks": 8,
          "midi": 96,
          "name": "C7",
          "ticks": 15707,
          "time": 182.63953488372093,
          "velocity": 0.15748031496062992
        },
        {
          "duration": 0.011627906976741542,
          "durationTicks": 1,
          "midi": 45,
          "name": "A2",
          "ticks": 15708,
          "time": 182.65116279069767,
          "velocity": 0.5984251968503937
        },
        {
          "duration": 0.8837209302325562,
          "durationTicks": 76,
          "midi": 70,
          "name": "A#4",
          "ticks": 15708,
          "time": 182.65116279069767,
          "velocity": 0.5669291338582677
        },
        {
          "duration": 0.15116279069766847,
          "durationTicks": 13,
          "midi": 80,
          "name": "G#5",
          "ticks": 15708,
          "time": 182.65116279069767,
          "velocity": 0.2755905511811024
        },
        {
          "duration": 0.011627906976741542,
          "durationTicks": 1,
          "midi": 46,
          "name": "A#2",
          "ticks": 15709,
          "time": 182.6627906976744,
          "velocity": 0.5196850393700787
        },
        {
          "duration": 0.05813953488373613,
          "durationTicks": 5,
          "midi": 65,
          "name": "F4",
          "ticks": 15709,
          "time": 182.6627906976744,
          "velocity": 0.2047244094488189
        },
        {
          "duration": 0.08139534883721922,
          "durationTicks": 7,
          "midi": 84,
          "name": "C6",
          "ticks": 15709,
          "time": 182.6627906976744,
          "velocity": 0.16535433070866143
        },
        {
          "duration": 0.03488372093025305,
          "durationTicks": 3,
          "midi": 53,
          "name": "F3",
          "ticks": 15710,
          "time": 182.67441860465115,
          "velocity": 0.2755905511811024
        },
        {
          "duration": 0.30232558139536536,
          "durationTicks": 26,
          "midi": 62,
          "name": "D4",
          "ticks": 15710,
          "time": 182.67441860465115,
          "velocity": 0.2283464566929134
        },
        {
          "duration": 0.03488372093025305,
          "durationTicks": 3,
          "midi": 67,
          "name": "G4",
          "ticks": 15710,
          "time": 182.67441860465115,
          "velocity": 0.2440944881889764
        },
        {
          "duration": 0.2790697674418823,
          "durationTicks": 24,
          "midi": 76,
          "name": "E5",
          "ticks": 15710,
          "time": 182.67441860465115,
          "velocity": 0.2047244094488189
        },
        {
          "duration": 0.2906976744186238,
          "durationTicks": 25,
          "midi": 46,
          "name": "A#2",
          "ticks": 15711,
          "time": 182.6860465116279,
          "velocity": 0.5118110236220472
        },
        {
          "duration": 0.023255813953483084,
          "durationTicks": 2,
          "midi": 53,
          "name": "F3",
          "ticks": 15714,
          "time": 182.72093023255815,
          "velocity": 0.2755905511811024
        },
        {
          "duration": 0.023255813953483084,
          "durationTicks": 2,
          "midi": 53,
          "name": "F3",
          "ticks": 15717,
          "time": 182.75581395348837,
          "velocity": 0.25984251968503935
        },
        {
          "duration": 0.16279069767443843,
          "durationTicks": 14,
          "midi": 53,
          "name": "F3",
          "ticks": 15720,
          "time": 182.7906976744186,
          "velocity": 0.2283464566929134
        },
        {
          "duration": 0.05813953488373613,
          "durationTicks": 5,
          "midi": 84,
          "name": "C6",
          "ticks": 15721,
          "time": 182.80232558139534,
          "velocity": 0.08661417322834646
        },
        {
          "duration": 0.11627906976744384,
          "durationTicks": 10,
          "midi": 68,
          "name": "G#4",
          "ticks": 15725,
          "time": 182.84883720930233,
          "velocity": 0.14173228346456693
        },
        {
          "duration": 0.22093023255814614,
          "durationTicks": 19,
          "midi": 80,
          "name": "G#5",
          "ticks": 15731,
          "time": 182.91860465116278,
          "velocity": 0.30708661417322836
        },
        {
          "duration": 0.023255813953483084,
          "durationTicks": 2,
          "midi": 75,
          "name": "D#5",
          "ticks": 15734,
          "time": 182.95348837209303,
          "velocity": 0.25984251968503935
        },
        {
          "duration": 0.023255813953483084,
          "durationTicks": 2,
          "midi": 45,
          "name": "A2",
          "ticks": 15736,
          "time": 182.97674418604652,
          "velocity": 0.6299212598425197
        },
        {
          "duration": 0.023255813953483084,
          "durationTicks": 2,
          "midi": 61,
          "name": "C#4",
          "ticks": 15736,
          "time": 182.97674418604652,
          "velocity": 0.30708661417322836
        },
        {
          "duration": 0.32558139534882,
          "durationTicks": 28,
          "midi": 65,
          "name": "F4",
          "ticks": 15736,
          "time": 182.97674418604652,
          "velocity": 0.25196850393700787
        },
        {
          "duration": 0.023255813953483084,
          "durationTicks": 2,
          "midi": 76,
          "name": "E5",
          "ticks": 15736,
          "time": 182.97674418604652,
          "velocity": 0.2992125984251969
        },
        {
          "duration": 0.32558139534882,
          "durationTicks": 28,
          "midi": 77,
          "name": "F5",
          "ticks": 15736,
          "time": 182.97674418604652,
          "velocity": 0.33858267716535434
        },
        {
          "duration": 0.09302325581396076,
          "durationTicks": 8,
          "midi": 96,
          "name": "C7",
          "ticks": 15736,
          "time": 182.97674418604652,
          "velocity": 0.16535433070866143
        },
        {
          "duration": 0.3139534883721069,
          "durationTicks": 27,
          "midi": 46,
          "name": "A#2",
          "ticks": 15738,
          "time": 183,
          "velocity": 0.5669291338582677
        },
        {
          "duration": 0.3139534883721069,
          "durationTicks": 27,
          "midi": 88,
          "name": "E6",
          "ticks": 15738,
          "time": 183,
          "velocity": 0.16535433070866143
        },
        {
          "duration": 0.034883720930224626,
          "durationTicks": 3,
          "midi": 53,
          "name": "F3",
          "ticks": 15739,
          "time": 183.01162790697674,
          "velocity": 0.2677165354330709
        },
        {
          "duration": 0.30232558139536536,
          "durationTicks": 26,
          "midi": 62,
          "name": "D4",
          "ticks": 15739,
          "time": 183.01162790697674,
          "velocity": 0.23622047244094488
        },
        {
          "duration": 0.034883720930224626,
          "durationTicks": 3,
          "midi": 68,
          "name": "G#4",
          "ticks": 15739,
          "time": 183.01162790697674,
          "velocity": 0.2204724409448819
        },
        {
          "duration": 0.27906976744185386,
          "durationTicks": 24,
          "midi": 76,
          "name": "E5",
          "ticks": 15739,
          "time": 183.01162790697674,
          "velocity": 0.25196850393700787
        },
        {
          "duration": 0.08139534883721922,
          "durationTicks": 7,
          "midi": 84,
          "name": "C6",
          "ticks": 15739,
          "time": 183.01162790697674,
          "velocity": 0.2047244094488189
        },
        {
          "duration": 0.023255813953511506,
          "durationTicks": 2,
          "midi": 53,
          "name": "F3",
          "ticks": 15743,
          "time": 183.0581395348837,
          "velocity": 0.2677165354330709
        },
        {
          "duration": 0.17441860465117998,
          "durationTicks": 15,
          "midi": 68,
          "name": "G#4",
          "ticks": 15743,
          "time": 183.0581395348837,
          "velocity": 0.1889763779527559
        },
        {
          "duration": 0.023255813953483084,
          "durationTicks": 2,
          "midi": 53,
          "name": "F3",
          "ticks": 15746,
          "time": 183.09302325581396,
          "velocity": 0.25196850393700787
        },
        {
          "duration": 0.05813953488373613,
          "durationTicks": 5,
          "midi": 84,
          "name": "C6",
          "ticks": 15750,
          "time": 183.13953488372093,
          "velocity": 0.11023622047244094
        },
        {
          "duration": 0.12790697674418539,
          "durationTicks": 11,
          "midi": 53,
          "name": "F3",
          "ticks": 15752,
          "time": 183.1627906976744,
          "velocity": 0.2125984251968504
        },
        {
          "duration": 0.05813953488370771,
          "durationTicks": 5,
          "midi": 68,
          "name": "G#4",
          "ticks": 15759,
          "time": 183.24418604651163,
          "velocity": 0.14960629921259844
        },
        {
          "duration": 0.2325581395348877,
          "durationTicks": 20,
          "midi": 80,
          "name": "G#5",
          "ticks": 15759,
          "time": 183.24418604651163,
          "velocity": 0.30708661417322836
        },
        {
          "duration": 0.023255813953511506,
          "durationTicks": 2,
          "midi": 75,
          "name": "D#5",
          "ticks": 15763,
          "time": 183.2906976744186,
          "velocity": 0.25984251968503935
        },
        {
          "duration": 0.03488372093025305,
          "durationTicks": 3,
          "midi": 84,
          "name": "C6",
          "ticks": 15763,
          "time": 183.2906976744186,
          "velocity": 0.07874015748031496
        },
        {
          "duration": 0.023255813953483084,
          "durationTicks": 2,
          "midi": 45,
          "name": "A2",
          "ticks": 15765,
          "time": 183.3139534883721,
          "velocity": 0.6299212598425197
        },
        {
          "duration": 0.023255813953483084,
          "durationTicks": 2,
          "midi": 61,
          "name": "C#4",
          "ticks": 15765,
          "time": 183.3139534883721,
          "velocity": 0.30708661417322836
        },
        {
          "duration": 0.5813953488371908,
          "durationTicks": 50,
          "midi": 65,
          "name": "F4",
          "ticks": 15765,
          "time": 183.3139534883721,
          "velocity": 0.2992125984251969
        },
        {
          "duration": 0.20930232558137618,
          "durationTicks": 18,
          "midi": 76,
          "name": "E5",
          "ticks": 15765,
          "time": 183.3139534883721,
          "velocity": 0.29133858267716534
        },
        {
          "duration": 0.6162790697674154,
          "durationTicks": 53,
          "midi": 77,
          "name": "F5",
          "ticks": 15765,
          "time": 183.3139534883721,
          "velocity": 0.33858267716535434
        },
        {
          "duration": 0.09302325581393234,
          "durationTicks": 8,
          "midi": 96,
          "name": "C7",
          "ticks": 15765,
          "time": 183.3139534883721,
          "velocity": 0.1732283464566929
        },
        {
          "duration": 0.5465116279069662,
          "durationTicks": 47,
          "midi": 46,
          "name": "A#2",
          "ticks": 15767,
          "time": 183.3372093023256,
          "velocity": 0.6377952755905512
        },
        {
          "duration": 0.09302325581393234,
          "durationTicks": 8,
          "midi": 84,
          "name": "C6",
          "ticks": 15767,
          "time": 183.3372093023256,
          "velocity": 0.2047244094488189
        },
        {
          "duration": 0.034883720930224626,
          "durationTicks": 3,
          "midi": 53,
          "name": "F3",
          "ticks": 15768,
          "time": 183.34883720930233,
          "velocity": 0.2677165354330709
        },
        {
          "duration": 0.1860465116278931,
          "durationTicks": 16,
          "midi": 62,
          "name": "D4",
          "ticks": 15768,
          "time": 183.34883720930233,
          "velocity": 0.2204724409448819
        },
        {
          "duration": 0.17441860465115155,
          "durationTicks": 15,
          "midi": 68,
          "name": "G#4",
          "ticks": 15768,
          "time": 183.34883720930233,
          "velocity": 0.2125984251968504
        },
        {
          "duration": 0.023255813953483084,
          "durationTicks": 2,
          "midi": 53,
          "name": "F3",
          "ticks": 15772,
          "time": 183.3953488372093,
          "velocity": 0.2677165354330709
        },
        {
          "duration": 0.023255813953511506,
          "durationTicks": 2,
          "midi": 53,
          "name": "F3",
          "ticks": 15775,
          "time": 183.43023255813952,
          "velocity": 0.25196850393700787
        },
        {
          "duration": 0.0813953488371908,
          "durationTicks": 7,
          "midi": 84,
          "name": "C6",
          "ticks": 15779,
          "time": 183.47674418604652,
          "velocity": 0.11023622047244094
        },
        {
          "duration": 0.023255813953483084,
          "durationTicks": 2,
          "midi": 71,
          "name": "B4",
          "ticks": 15784,
          "time": 183.53488372093022,
          "velocity": 0.4645669291338583
        },
        {
          "duration": 0.32558139534884845,
          "durationTicks": 28,
          "midi": 76,
          "name": "E5",
          "ticks": 15784,
          "time": 183.53488372093022,
          "velocity": 0.30708661417322836
        },
        {
          "duration": 0.023255813953511506,
          "durationTicks": 2,
          "midi": 61,
          "name": "C#4",
          "ticks": 15785,
          "time": 183.54651162790697,
          "velocity": 0.28346456692913385
        },
        {
          "duration": 0.17441860465117998,
          "durationTicks": 15,
          "midi": 74,
          "name": "D5",
          "ticks": 15785,
          "time": 183.54651162790697,
          "velocity": 0.1968503937007874
        },
        {
          "duration": 0.1511627906976969,
          "durationTicks": 13,
          "midi": 80,
          "name": "G#5",
          "ticks": 15785,
          "time": 183.54651162790697,
          "velocity": 0.2283464566929134
        },
        {
          "duration": 0.09302325581396076,
          "durationTicks": 8,
          "midi": 96,
          "name": "C7",
          "ticks": 15785,
          "time": 183.54651162790697,
          "velocity": 0.18110236220472442
        },
        {
          "duration": 0.33720930232559,
          "durationTicks": 29,
          "midi": 70,
          "name": "A#4",
          "ticks": 15786,
          "time": 183.5581395348837,
          "velocity": 0.47244094488188976
        },
        {
          "duration": 0.09302325581393234,
          "durationTicks": 8,
          "midi": 84,
          "name": "C6",
          "ticks": 15787,
          "time": 183.56976744186048,
          "velocity": 0.1889763779527559
        },
        {
          "duration": 0.034883720930224626,
          "durationTicks": 3,
          "midi": 93,
          "name": "A6",
          "ticks": 15787,
          "time": 183.56976744186048,
          "velocity": 0.09448818897637795
        },
        {
          "duration": 0.27906976744185386,
          "durationTicks": 24,
          "midi": 62,
          "name": "D4",
          "ticks": 15790,
          "time": 183.6046511627907,
          "velocity": 0.13385826771653545
        },
        {
          "duration": 0.023255813953483084,
          "durationTicks": 2,
          "midi": 53,
          "name": "F3",
          "ticks": 15792,
          "time": 183.62790697674419,
          "velocity": 0.2440944881889764
        },
        {
          "duration": 0.05813953488370771,
          "durationTicks": 5,
          "midi": 68,
          "name": "G#4",
          "ticks": 15792,
          "time": 183.62790697674419,
          "velocity": 0.13385826771653545
        },
        {
          "duration": 0.023255813953483084,
          "durationTicks": 2,
          "midi": 53,
          "name": "F3",
          "ticks": 15795,
          "time": 183.6627906976744,
          "velocity": 0.23622047244094488
        },
        {
          "duration": 0.05813953488370771,
          "durationTicks": 5,
          "midi": 68,
          "name": "G#4",
          "ticks": 15799,
          "time": 183.7093023255814,
          "velocity": 0.07874015748031496
        },
        {
          "duration": 0.05813953488370771,
          "durationTicks": 5,
          "midi": 84,
          "name": "C6",
          "ticks": 15799,
          "time": 183.7093023255814,
          "velocity": 0.10236220472440945
        },
        {
          "duration": 0.05813953488373613,
          "durationTicks": 5,
          "midi": 53,
          "name": "F3",
          "ticks": 15804,
          "time": 183.7674418604651,
          "velocity": 0.2047244094488189
        },
        {
          "duration": 0.0813953488371908,
          "durationTicks": 7,
          "midi": 80,
          "name": "G#5",
          "ticks": 15808,
          "time": 183.8139534883721,
          "velocity": 0.2204724409448819
        },
        {
          "duration": 0.04651162790696617,
          "durationTicks": 4,
          "midi": 53,
          "name": "F3",
          "ticks": 15810,
          "time": 183.8372093023256,
          "velocity": 0.2125984251968504
        },
        {
          "duration": 0.034883720930224626,
          "durationTicks": 3,
          "midi": 75,
          "name": "D#5",
          "ticks": 15812,
          "time": 183.86046511627907,
          "velocity": 0.1889763779527559
        },
        {
          "duration": 0.48837209302325846,
          "durationTicks": 42,
          "midi": 84,
          "name": "C6",
          "ticks": 15812,
          "time": 183.86046511627907,
          "velocity": 0.29133858267716534
        },
        {
          "duration": 0.3604651162790731,
          "durationTicks": 31,
          "midi": 72,
          "name": "C5",
          "ticks": 15813,
          "time": 183.87209302325581,
          "velocity": 0.4881889763779528
        },
        {
          "duration": 0.17441860465115155,
          "durationTicks": 15,
          "midi": 100,
          "name": "E7",
          "ticks": 15813,
          "time": 183.87209302325581,
          "velocity": 0.30708661417322836
        },
        {
          "duration": 0.011627906976741542,
          "durationTicks": 1,
          "midi": 46,
          "name": "A#2",
          "ticks": 15815,
          "time": 183.8953488372093,
          "velocity": 0.5196850393700787
        },
        {
          "duration": 0.3604651162790731,
          "durationTicks": 31,
          "midi": 60,
          "name": "C4",
          "ticks": 15815,
          "time": 183.8953488372093,
          "velocity": 0.48031496062992124
        },
        {
          "duration": 0.33720930232559,
          "durationTicks": 29,
          "midi": 64,
          "name": "E4",
          "ticks": 15815,
          "time": 183.8953488372093,
          "velocity": 0.2283464566929134
        },
        {
          "duration": 0.3720930232558146,
          "durationTicks": 32,
          "midi": 67,
          "name": "G4",
          "ticks": 15815,
          "time": 183.8953488372093,
          "velocity": 0.44881889763779526
        },
        {
          "duration": 0.09302325581396076,
          "durationTicks": 8,
          "midi": 83,
          "name": "B5",
          "ticks": 15815,
          "time": 183.8953488372093,
          "velocity": 0.14173228346456693
        },
        {
          "duration": 0.1046511627907023,
          "durationTicks": 9,
          "midi": 91,
          "name": "G6",
          "ticks": 15815,
          "time": 183.8953488372093,
          "velocity": 0.2283464566929134
        },
        {
          "duration": 0.08139534883721922,
          "durationTicks": 7,
          "midi": 95,
          "name": "B6",
          "ticks": 15815,
          "time": 183.8953488372093,
          "velocity": 0.16535433070866143
        },
        {
          "duration": 0.011627906976741542,
          "durationTicks": 1,
          "midi": 47,
          "name": "B2",
          "ticks": 15816,
          "time": 183.90697674418604,
          "velocity": 0.5275590551181102
        },
        {
          "duration": 0.32558139534884845,
          "durationTicks": 28,
          "midi": 55,
          "name": "G3",
          "ticks": 15816,
          "time": 183.90697674418604,
          "velocity": 0.31496062992125984
        },
        {
          "duration": 0.03488372093025305,
          "durationTicks": 3,
          "midi": 37,
          "name": "C#2",
          "ticks": 15817,
          "time": 183.91860465116278,
          "velocity": 0.4251968503937008
        },
        {
          "duration": 0.03488372093025305,
          "durationTicks": 3,
          "midi": 48,
          "name": "C3",
          "ticks": 15817,
          "time": 183.91860465116278,
          "velocity": 0.48031496062992124
        },
        {
          "duration": 0.10465116279067388,
          "durationTicks": 9,
          "midi": 36,
          "name": "C2",
          "ticks": 15820,
          "time": 183.95348837209303,
          "velocity": 0.41732283464566927
        },
        {
          "duration": 0.023255813953483084,
          "durationTicks": 2,
          "midi": 47,
          "name": "B2",
          "ticks": 15822,
          "time": 183.97674418604652,
          "velocity": 0.4015748031496063
        },
        {
          "duration": 0.034883720930224626,
          "durationTicks": 3,
          "midi": 70,
          "name": "A#4",
          "ticks": 15823,
          "time": 183.98837209302326,
          "velocity": 0.15748031496062992
        },
        {
          "duration": 0.034883720930224626,
          "durationTicks": 3,
          "midi": 88,
          "name": "E6",
          "ticks": 15824,
          "time": 184,
          "velocity": 0.07874015748031496
        },
        {
          "duration": 0.023255813953483084,
          "durationTicks": 2,
          "midi": 49,
          "name": "C#3",
          "ticks": 15825,
          "time": 184.01162790697674,
          "velocity": 0.25196850393700787
        },
        {
          "duration": 0.023255813953511506,
          "durationTicks": 2,
          "midi": 35,
          "name": "B1",
          "ticks": 15829,
          "time": 184.0581395348837,
          "velocity": 0.2677165354330709
        },
        {
          "duration": 0.023255813953511506,
          "durationTicks": 2,
          "midi": 48,
          "name": "C3",
          "ticks": 15829,
          "time": 184.0581395348837,
          "velocity": 0.23622047244094488
        },
        {
          "duration": 0.16279069767441,
          "durationTicks": 14,
          "midi": 36,
          "name": "C2",
          "ticks": 15831,
          "time": 184.08139534883722,
          "velocity": 0.3700787401574803
        },
        {
          "duration": 0.034883720930224626,
          "durationTicks": 3,
          "midi": 88,
          "name": "E6",
          "ticks": 15831,
          "time": 184.08139534883722,
          "velocity": 0.07086614173228346
        },
        {
          "duration": 0.3720930232558146,
          "durationTicks": 32,
          "midi": 70,
          "name": "A#4",
          "ticks": 15832,
          "time": 184.09302325581396,
          "velocity": 0.5590551181102362
        },
        {
          "duration": 0.25581395348837077,
          "durationTicks": 22,
          "midi": 86,
          "name": "D6",
          "ticks": 15843,
          "time": 184.22093023255815,
          "velocity": 0.28346456692913385
        },
        {
          "duration": 0.19767441860463464,
          "durationTicks": 17,
          "midi": 74,
          "name": "D5",
          "ticks": 15844,
          "time": 184.2325581395349,
          "velocity": 0.2125984251968504
        },
        {
          "duration": 0.3720930232558146,
          "durationTicks": 32,
          "midi": 88,
          "name": "E6",
          "ticks": 15844,
          "time": 184.2325581395349,
          "velocity": 0.2283464566929134
        },
        {
          "duration": 0.011627906976741542,
          "durationTicks": 1,
          "midi": 48,
          "name": "C3",
          "ticks": 15845,
          "time": 184.24418604651163,
          "velocity": 0.5748031496062992
        },
        {
          "duration": 0.2093023255814046,
          "durationTicks": 18,
          "midi": 77,
          "name": "F5",
          "ticks": 15845,
          "time": 184.24418604651163,
          "velocity": 0.36220472440944884
        },
        {
          "duration": 0.16279069767441,
          "durationTicks": 14,
          "midi": 80,
          "name": "G#5",
          "ticks": 15845,
          "time": 184.24418604651163,
          "velocity": 0.2677165354330709
        },
        {
          "duration": 0.011627906976741542,
          "durationTicks": 1,
          "midi": 45,
          "name": "A2",
          "ticks": 15846,
          "time": 184.25581395348837,
          "velocity": 0.6062992125984252
        },
        {
          "duration": 0.1046511627907023,
          "durationTicks": 9,
          "midi": 65,
          "name": "F4",
          "ticks": 15846,
          "time": 184.25581395348837,
          "velocity": 0.25196850393700787
        },
        {
          "duration": 0.011627906976741542,
          "durationTicks": 1,
          "midi": 46,
          "name": "A#2",
          "ticks": 15847,
          "time": 184.2674418604651,
          "velocity": 0.5275590551181102
        },
        {
          "duration": 0.034883720930224626,
          "durationTicks": 3,
          "midi": 93,
          "name": "A6",
          "ticks": 15847,
          "time": 184.2674418604651,
          "velocity": 0.11023622047244094
        },
        {
          "duration": 0.03488372093025305,
          "durationTicks": 3,
          "midi": 53,
          "name": "F3",
          "ticks": 15848,
          "time": 184.27906976744185,
          "velocity": 0.28346456692913385
        },
        {
          "duration": 0.023255813953483084,
          "durationTicks": 2,
          "midi": 58,
          "name": "A#3",
          "ticks": 15848,
          "time": 184.27906976744185,
          "velocity": 0.4015748031496063
        },
        {
          "duration": 0.09302325581396076,
          "durationTicks": 8,
          "midi": 68,
          "name": "G#4",
          "ticks": 15848,
          "time": 184.27906976744185,
          "velocity": 0.18110236220472442
        },
        {
          "duration": 0.1511627906976969,
          "durationTicks": 13,
          "midi": 46,
          "name": "A#2",
          "ticks": 15849,
          "time": 184.2906976744186,
          "velocity": 0.5118110236220472
        },
        {
          "duration": 0.05813953488373613,
          "durationTicks": 5,
          "midi": 76,
          "name": "E5",
          "ticks": 15849,
          "time": 184.2906976744186,
          "velocity": 0.2204724409448819
        },
        {
          "duration": 0.05813953488370771,
          "durationTicks": 5,
          "midi": 53,
          "name": "F3",
          "ticks": 15852,
          "time": 184.32558139534885,
          "velocity": 0.25984251968503935
        },
        {
          "duration": 0.04651162790696617,
          "durationTicks": 4,
          "midi": 68,
          "name": "G#4",
          "ticks": 15857,
          "time": 184.38372093023256,
          "velocity": 0.10236220472440945
        },
        {
          "duration": 0.034883720930224626,
          "durationTicks": 3,
          "midi": 76,
          "name": "E5",
          "ticks": 15857,
          "time": 184.38372093023256,
          "velocity": 0.16535433070866143
        },
        {
          "duration": 0.04651162790699459,
          "durationTicks": 4,
          "midi": 53,
          "name": "F3",
          "ticks": 15858,
          "time": 184.3953488372093,
          "velocity": 0.2204724409448819
        },
        {
          "duration": 0.04651162790699459,
          "durationTicks": 4,
          "midi": 62,
          "name": "D4",
          "ticks": 15859,
          "time": 184.40697674418604,
          "velocity": 0.2440944881889764
        },
        {
          "duration": 0.08139534883721922,
          "durationTicks": 7,
          "midi": 84,
          "name": "C6",
          "ticks": 15859,
          "time": 184.40697674418604,
          "velocity": 0.16535433070866143
        },
        {
          "duration": 0.03488372093025305,
          "durationTicks": 3,
          "midi": 75,
          "name": "D#5",
          "ticks": 15860,
          "time": 184.41860465116278,
          "velocity": 0.2204724409448819
        },
        {
          "duration": 0.023255813953483084,
          "durationTicks": 2,
          "midi": 60,
          "name": "C4",
          "ticks": 15862,
          "time": 184.4418604651163,
          "velocity": 0.33858267716535434
        },
        {
          "duration": 0.4534883720930054,
          "durationTicks": 39,
          "midi": 76,
          "name": "E5",
          "ticks": 15862,
          "time": 184.4418604651163,
          "velocity": 0.3543307086614173
        },
        {
          "duration": 0.30232558139533694,
          "durationTicks": 26,
          "midi": 81,
          "name": "A5",
          "ticks": 15862,
          "time": 184.4418604651163,
          "velocity": 0.3228346456692913
        },
        {
          "duration": 0.7558139534883708,
          "durationTicks": 65,
          "midi": 85,
          "name": "C#6",
          "ticks": 15862,
          "time": 184.4418604651163,
          "velocity": 0.29133858267716534
        },
        {
          "duration": 0.034883720930224626,
          "durationTicks": 3,
          "midi": 44,
          "name": "G#2",
          "ticks": 15863,
          "time": 184.45348837209303,
          "velocity": 0.5669291338582677
        },
        {
          "duration": 0.8604651162790731,
          "durationTicks": 74,
          "midi": 64,
          "name": "E4",
          "ticks": 15863,
          "time": 184.45348837209303,
          "velocity": 0.25984251968503935
        },
        {
          "duration": 0.16279069767441,
          "durationTicks": 14,
          "midi": 79,
          "name": "G5",
          "ticks": 15863,
          "time": 184.45348837209303,
          "velocity": 0.2677165354330709
        },
        {
          "duration": 0.10465116279067388,
          "durationTicks": 9,
          "midi": 95,
          "name": "B6",
          "ticks": 15863,
          "time": 184.45348837209303,
          "velocity": 0.15748031496062992
        },
        {
          "duration": 0.7209302325581177,
          "durationTicks": 62,
          "midi": 61,
          "name": "C#4",
          "ticks": 15864,
          "time": 184.46511627906978,
          "velocity": 0.2755905511811024
        },
        {
          "duration": 0.7906976744185954,
          "durationTicks": 68,
          "midi": 69,
          "name": "A4",
          "ticks": 15864,
          "time": 184.46511627906978,
          "velocity": 0.5275590551181102
        },
        {
          "duration": 0.034883720930224626,
          "durationTicks": 3,
          "midi": 75,
          "name": "D#5",
          "ticks": 15864,
          "time": 184.46511627906978,
          "velocity": 0.2204724409448819
        },
        {
          "duration": 1.0930232558139608,
          "durationTicks": 94,
          "midi": 57,
          "name": "A3",
          "ticks": 15865,
          "time": 184.47674418604652,
          "velocity": 0.41732283464566927
        },
        {
          "duration": 1.8139534883720785,
          "durationTicks": 156,
          "midi": 45,
          "name": "A2",
          "ticks": 15866,
          "time": 184.48837209302326,
          "velocity": 0.5354330708661418
        },
        {
          "duration": 0.08139534883721922,
          "durationTicks": 7,
          "midi": 83,
          "name": "B5",
          "ticks": 15866,
          "time": 184.48837209302326,
          "velocity": 0.15748031496062992
        },
        {
          "duration": 0.04651162790696617,
          "durationTicks": 4,
          "midi": 52,
          "name": "E3",
          "ticks": 15867,
          "time": 184.5,
          "velocity": 0.30708661417322836
        },
        {
          "duration": 0.6279069767441854,
          "durationTicks": 54,
          "midi": 75,
          "name": "D#5",
          "ticks": 15872,
          "time": 184.5581395348837,
          "velocity": 0.16535433070866143
        },
        {
          "duration": 1.0813953488371908,
          "durationTicks": 93,
          "midi": 52,
          "name": "E3",
          "ticks": 15874,
          "time": 184.58139534883722,
          "velocity": 0.2440944881889764
        },
        {
          "duration": 0.034883720930224626,
          "durationTicks": 3,
          "midi": 95,
          "name": "B6",
          "ticks": 15874,
          "time": 184.58139534883722,
          "velocity": 0.08661417322834646
        },
        {
          "duration": 0.05813953488370771,
          "durationTicks": 5,
          "midi": 83,
          "name": "B5",
          "ticks": 15878,
          "time": 184.62790697674419,
          "velocity": 0.08661417322834646
        },
        {
          "duration": 0.1860465116278931,
          "durationTicks": 16,
          "midi": 79,
          "name": "G5",
          "ticks": 15888,
          "time": 184.74418604651163,
          "velocity": 0.11023622047244094
        },
        {
          "duration": 0.32558139534882,
          "durationTicks": 28,
          "midi": 76,
          "name": "E5",
          "ticks": 15939,
          "time": 185.3372093023256,
          "velocity": 0.07086614173228346
        },
        {
          "duration": 0.023255813953483084,
          "durationTicks": 2,
          "midi": 61,
          "name": "C#4",
          "ticks": 16020,
          "time": 186.27906976744185,
          "velocity": 0.3858267716535433
        },
        {
          "duration": 0.16279069767443843,
          "durationTicks": 14,
          "midi": 69,
          "name": "A4",
          "ticks": 16021,
          "time": 186.2906976744186,
          "velocity": 0.15748031496062992
        },
        {
          "duration": 0.2674418604651123,
          "durationTicks": 23,
          "midi": 74,
          "name": "D5",
          "ticks": 16021,
          "time": 186.2906976744186,
          "velocity": 0.5118110236220472
        },
        {
          "duration": 0.19767441860466306,
          "durationTicks": 17,
          "midi": 81,
          "name": "A5",
          "ticks": 16021,
          "time": 186.2906976744186,
          "velocity": 0.2677165354330709
        },
        {
          "duration": 0.22093023255814614,
          "durationTicks": 19,
          "midi": 57,
          "name": "A3",
          "ticks": 16022,
          "time": 186.30232558139534,
          "velocity": 0.33070866141732286
        },
        {
          "duration": 0.26744186046514073,
          "durationTicks": 23,
          "midi": 62,
          "name": "D4",
          "ticks": 16022,
          "time": 186.30232558139534,
          "velocity": 0.5433070866141733
        },
        {
          "duration": 0.04651162790699459,
          "durationTicks": 4,
          "midi": 80,
          "name": "G#5",
          "ticks": 16022,
          "time": 186.30232558139534,
          "velocity": 0.10236220472440945
        },
        {
          "duration": 0.12790697674418539,
          "durationTicks": 11,
          "midi": 90,
          "name": "F#6",
          "ticks": 16022,
          "time": 186.30232558139534,
          "velocity": 0.1889763779527559
        },
        {
          "duration": 0.2441860465116008,
          "durationTicks": 21,
          "midi": 50,
          "name": "D3",
          "ticks": 16023,
          "time": 186.3139534883721,
          "velocity": 0.4409448818897638
        },
        {
          "duration": 0.13953488372092693,
          "durationTicks": 12,
          "midi": 72,
          "name": "C5",
          "ticks": 16023,
          "time": 186.3139534883721,
          "velocity": 0.2204724409448819
        },
        {
          "duration": 0.034883720930224626,
          "durationTicks": 3,
          "midi": 39,
          "name": "D#2",
          "ticks": 16024,
          "time": 186.32558139534885,
          "velocity": 0.44881889763779526
        },
        {
          "duration": 0.17441860465115155,
          "durationTicks": 15,
          "midi": 66,
          "name": "F#4",
          "ticks": 16024,
          "time": 186.32558139534885,
          "velocity": 0.2204724409448819
        },
        {
          "duration": 0.10465116279067388,
          "durationTicks": 9,
          "midi": 76,
          "name": "E5",
          "ticks": 16024,
          "time": 186.32558139534885,
          "velocity": 0.09448818897637795
        },
        {
          "duration": 0.09302325581396076,
          "durationTicks": 8,
          "midi": 38,
          "name": "D2",
          "ticks": 16027,
          "time": 186.36046511627907,
          "velocity": 0.4094488188976378
        },
        {
          "duration": 0.05813953488370771,
          "durationTicks": 5,
          "midi": 80,
          "name": "G#5",
          "ticks": 16027,
          "time": 186.36046511627907,
          "velocity": 0.07874015748031496
        },
        {
          "duration": 0.09302325581393234,
          "durationTicks": 8,
          "midi": 38,
          "name": "D2",
          "ticks": 16036,
          "time": 186.46511627906978,
          "velocity": 0.13385826771653545
        },
        {
          "duration": 0.2906976744185954,
          "durationTicks": 25,
          "midi": 61,
          "name": "C#4",
          "ticks": 16050,
          "time": 186.62790697674419,
          "velocity": 0.5511811023622047
        },
        {
          "duration": 0.19767441860466306,
          "durationTicks": 17,
          "midi": 80,
          "name": "G#5",
          "ticks": 16050,
          "time": 186.62790697674419,
          "velocity": 0.25196850393700787
        },
        {
          "duration": 0.023255813953483084,
          "durationTicks": 2,
          "midi": 48,
          "name": "C3",
          "ticks": 16051,
          "time": 186.63953488372093,
          "velocity": 0.4566929133858268
        },
        {
          "duration": 0.2325581395348877,
          "durationTicks": 20,
          "midi": 56,
          "name": "G#3",
          "ticks": 16051,
          "time": 186.63953488372093,
          "velocity": 0.31496062992125984
        },
        {
          "duration": 0.13953488372092693,
          "durationTicks": 12,
          "midi": 89,
          "name": "F6",
          "ticks": 16051,
          "time": 186.63953488372093,
          "velocity": 0.1968503937007874
        },
        {
          "duration": 0.13953488372092693,
          "durationTicks": 12,
          "midi": 71,
          "name": "B4",
          "ticks": 16052,
          "time": 186.65116279069767,
          "velocity": 0.2283464566929134
        },
        {
          "duration": 0.03488372093025305,
          "durationTicks": 3,
          "midi": 38,
          "name": "D2",
          "ticks": 16053,
          "time": 186.6627906976744,
          "velocity": 0.4409448818897638
        },
        {
          "duration": 0.24418604651162923,
          "durationTicks": 21,
          "midi": 49,
          "name": "C#3",
          "ticks": 16053,
          "time": 186.6627906976744,
          "velocity": 0.4094488188976378
        },
        {
          "duration": 0.18604651162792152,
          "durationTicks": 16,
          "midi": 65,
          "name": "F4",
          "ticks": 16053,
          "time": 186.6627906976744,
          "velocity": 0.2125984251968504
        },
        {
          "duration": 0.11627906976744384,
          "durationTicks": 10,
          "midi": 75,
          "name": "D#5",
          "ticks": 16053,
          "time": 186.6627906976744,
          "velocity": 0.07874015748031496
        },
        {
          "duration": 0.09302325581396076,
          "durationTicks": 8,
          "midi": 79,
          "name": "G5",
          "ticks": 16054,
          "time": 186.67441860465115,
          "velocity": 0.09448818897637795
        },
        {
          "duration": 0.023255813953483084,
          "durationTicks": 2,
          "midi": 37,
          "name": "C#2",
          "ticks": 16056,
          "time": 186.69767441860466,
          "velocity": 0.4251968503937008
        },
        {
          "duration": 0.06976744186044925,
          "durationTicks": 6,
          "midi": 37,
          "name": "C#2",
          "ticks": 16059,
          "time": 186.7325581395349,
          "velocity": 0.3700787401574803
        },
        {
          "duration": 0.10465116279067388,
          "durationTicks": 9,
          "midi": 37,
          "name": "C#2",
          "ticks": 16066,
          "time": 186.8139534883721,
          "velocity": 0.15748031496062992
        },
        {
          "duration": 0.27906976744185386,
          "durationTicks": 24,
          "midi": 72,
          "name": "C5",
          "ticks": 16080,
          "time": 186.97674418604652,
          "velocity": 0.5118110236220472
        },
        {
          "duration": 0.1860465116278931,
          "durationTicks": 16,
          "midi": 79,
          "name": "G5",
          "ticks": 16080,
          "time": 186.97674418604652,
          "velocity": 0.25984251968503935
        },
        {
          "duration": 0.023255813953483084,
          "durationTicks": 2,
          "midi": 47,
          "name": "B2",
          "ticks": 16081,
          "time": 186.98837209302326,
          "velocity": 0.4645669291338583
        },
        {
          "duration": 0.2325581395348877,
          "durationTicks": 20,
          "midi": 55,
          "name": "G3",
          "ticks": 16081,
          "time": 186.98837209302326,
          "velocity": 0.33858267716535434
        },
        {
          "duration": 0.2906976744185954,
          "durationTicks": 25,
          "midi": 60,
          "name": "C4",
          "ticks": 16081,
          "time": 186.98837209302326,
          "velocity": 0.5511811023622047
        },
        {
          "duration": 0.13953488372092693,
          "durationTicks": 12,
          "midi": 88,
          "name": "E6",
          "ticks": 16081,
          "time": 186.98837209302326,
          "velocity": 0.1889763779527559
        },
        {
          "duration": 0.04651162790696617,
          "durationTicks": 4,
          "midi": 37,
          "name": "C#2",
          "ticks": 16083,
          "time": 187.01162790697674,
          "velocity": 0.44881889763779526
        },
        {
          "duration": 0.25581395348837077,
          "durationTicks": 22,
          "midi": 48,
          "name": "C3",
          "ticks": 16083,
          "time": 187.01162790697674,
          "velocity": 0.4251968503937008
        },
        {
          "duration": 0.12790697674418539,
          "durationTicks": 11,
          "midi": 70,
          "name": "A#4",
          "ticks": 16083,
          "time": 187.01162790697674,
          "velocity": 0.14173228346456693
        },
        {
          "duration": 0.16279069767441,
          "durationTicks": 14,
          "midi": 64,
          "name": "E4",
          "ticks": 16084,
          "time": 187.02325581395348,
          "velocity": 0.2125984251968504
        },
        {
          "duration": 0.09302325581396076,
          "durationTicks": 8,
          "midi": 78,
          "name": "F#5",
          "ticks": 16084,
          "time": 187.02325581395348,
          "velocity": 0.10236220472440945
        },
        {
          "duration": 0.03488372093025305,
          "durationTicks": 3,
          "midi": 74,
          "name": "D5",
          "ticks": 16085,
          "time": 187.03488372093022,
          "velocity": 0.07086614173228346
        },
        {
          "duration": 0.05813953488370771,
          "durationTicks": 5,
          "midi": 36,
          "name": "C2",
          "ticks": 16089,
          "time": 187.08139534883722,
          "velocity": 0.3858267716535433
        },
        {
          "duration": 0.034883720930224626,
          "durationTicks": 3,
          "midi": 35,
          "name": "B1",
          "ticks": 16094,
          "time": 187.13953488372093,
          "velocity": 0.1732283464566929
        },
        {
          "duration": 0.09302325581396076,
          "durationTicks": 8,
          "midi": 36,
          "name": "C2",
          "ticks": 16097,
          "time": 187.17441860465115,
          "velocity": 0.13385826771653545
        },
        {
          "duration": 0.023255813953483084,
          "durationTicks": 2,
          "midi": 58,
          "name": "A#3",
          "ticks": 16110,
          "time": 187.32558139534885,
          "velocity": 0.4409448818897638
        },
        {
          "duration": 0.17441860465115155,
          "durationTicks": 15,
          "midi": 78,
          "name": "F#5",
          "ticks": 16110,
          "time": 187.32558139534885,
          "velocity": 0.15748031496062992
        },
        {
          "duration": 0.023255813953483084,
          "durationTicks": 2,
          "midi": 62,
          "name": "D4",
          "ticks": 16111,
          "time": 187.3372093023256,
          "velocity": 0.2677165354330709
        },
        {
          "duration": 0.19767441860463464,
          "durationTicks": 17,
          "midi": 71,
          "name": "B4",
          "ticks": 16111,
          "time": 187.3372093023256,
          "velocity": 0.4409448818897638
        },
        {
          "duration": 0.17441860465115155,
          "durationTicks": 15,
          "midi": 77,
          "name": "F5",
          "ticks": 16111,
          "time": 187.3372093023256,
          "velocity": 0.1968503937007874
        },
        {
          "duration": 0.034883720930224626,
          "durationTicks": 3,
          "midi": 79,
          "name": "G5",
          "ticks": 16111,
          "time": 187.3372093023256,
          "velocity": 0.14960629921259844
        },
        {
          "duration": 0.12790697674418539,
          "durationTicks": 11,
          "midi": 81,
          "name": "A5",
          "ticks": 16111,
          "time": 187.3372093023256,
          "velocity": 0.14173228346456693
        },
        {
          "duration": 0.1046511627907023,
          "durationTicks": 9,
          "midi": 85,
          "name": "C#6",
          "ticks": 16111,
          "time": 187.3372093023256,
          "velocity": 0.10236220472440945
        },
        {
          "duration": 0.13953488372092693,
          "durationTicks": 12,
          "midi": 87,
          "name": "D#6",
          "ticks": 16111,
          "time": 187.3372093023256,
          "velocity": 0.3228346456692913
        },
        {
          "duration": 0.11627906976744384,
          "durationTicks": 10,
          "midi": 97,
          "name": "C#7",
          "ticks": 16111,
          "time": 187.3372093023256,
          "velocity": 0.13385826771653545
        },
        {
          "duration": 0.27906976744185386,
          "durationTicks": 24,
          "midi": 47,
          "name": "B2",
          "ticks": 16112,
          "time": 187.34883720930233,
          "velocity": 0.4645669291338583
        },
        {
          "duration": 0.13953488372092693,
          "durationTicks": 12,
          "midi": 69,
          "name": "A4",
          "ticks": 16112,
          "time": 187.34883720930233,
          "velocity": 0.1889763779527559
        },
        {
          "duration": 0.11627906976744384,
          "durationTicks": 10,
          "midi": 75,
          "name": "D#5",
          "ticks": 16112,
          "time": 187.34883720930233,
          "velocity": 0.12598425196850394
        },
        {
          "duration": 0.19767441860463464,
          "durationTicks": 17,
          "midi": 54,
          "name": "F#3",
          "ticks": 16113,
          "time": 187.36046511627907,
          "velocity": 0.31496062992125984
        },
        {
          "duration": 0.15116279069766847,
          "durationTicks": 13,
          "midi": 63,
          "name": "D#4",
          "ticks": 16113,
          "time": 187.36046511627907,
          "velocity": 0.2440944881889764
        },
        {
          "duration": 0.034883720930224626,
          "durationTicks": 3,
          "midi": 87,
          "name": "D#6",
          "ticks": 16125,
          "time": 187.5,
          "velocity": 0.09448818897637795
        },
        {
          "duration": 0.2325581395348877,
          "durationTicks": 20,
          "midi": 58,
          "name": "A#3",
          "ticks": 16139,
          "time": 187.6627906976744,
          "velocity": 0.4409448818897638
        },
        {
          "duration": 0.22093023255814614,
          "durationTicks": 19,
          "midi": 70,
          "name": "A#4",
          "ticks": 16139,
          "time": 187.6627906976744,
          "velocity": 0.44881889763779526
        },
        {
          "duration": 0.19767441860466306,
          "durationTicks": 17,
          "midi": 76,
          "name": "E5",
          "ticks": 16139,
          "time": 187.6627906976744,
          "velocity": 0.2125984251968504
        },
        {
          "duration": 0.17441860465117998,
          "durationTicks": 15,
          "midi": 77,
          "name": "F5",
          "ticks": 16140,
          "time": 187.67441860465115,
          "velocity": 0.15748031496062992
        },
        {
          "duration": 0.03488372093025305,
          "durationTicks": 3,
          "midi": 78,
          "name": "F#5",
          "ticks": 16140,
          "time": 187.67441860465115,
          "velocity": 0.14960629921259844
        },
        {
          "duration": 0.13953488372095535,
          "durationTicks": 12,
          "midi": 80,
          "name": "G#5",
          "ticks": 16140,
          "time": 187.67441860465115,
          "velocity": 0.15748031496062992
        },
        {
          "duration": 0.1046511627907023,
          "durationTicks": 9,
          "midi": 84,
          "name": "C6",
          "ticks": 16140,
          "time": 187.67441860465115,
          "velocity": 0.09448818897637795
        },
        {
          "duration": 0.2093023255814046,
          "durationTicks": 18,
          "midi": 86,
          "name": "D6",
          "ticks": 16140,
          "time": 187.67441860465115,
          "velocity": 0.30708661417322836
        },
        {
          "duration": 0.12790697674418539,
          "durationTicks": 11,
          "midi": 96,
          "name": "C7",
          "ticks": 16140,
          "time": 187.67441860465115,
          "velocity": 0.13385826771653545
        },
        {
          "duration": 0.1511627906976969,
          "durationTicks": 13,
          "midi": 68,
          "name": "G#4",
          "ticks": 16141,
          "time": 187.6860465116279,
          "velocity": 0.1968503937007874
        },
        {
          "duration": 0.1279069767442138,
          "durationTicks": 11,
          "midi": 74,
          "name": "D5",
          "ticks": 16141,
          "time": 187.6860465116279,
          "velocity": 0.14173228346456693
        },
        {
          "duration": 0.1860465116278931,
          "durationTicks": 16,
          "midi": 53,
          "name": "F3",
          "ticks": 16142,
          "time": 187.69767441860466,
          "velocity": 0.31496062992125984
        },
        {
          "duration": 0.05813953488370771,
          "durationTicks": 5,
          "midi": 62,
          "name": "D4",
          "ticks": 16142,
          "time": 187.69767441860466,
          "velocity": 0.2440944881889764
        },
        {
          "duration": 0.17441860465115155,
          "durationTicks": 15,
          "midi": 46,
          "name": "A#2",
          "ticks": 16144,
          "time": 187.72093023255815,
          "velocity": 0.4330708661417323
        },
        {
          "duration": 0.08139534883721922,
          "durationTicks": 7,
          "midi": 62,
          "name": "D4",
          "ticks": 16148,
          "time": 187.7674418604651,
          "velocity": 0.15748031496062992
        },
        {
          "duration": 0.22093023255814614,
          "durationTicks": 19,
          "midi": 57,
          "name": "A3",
          "ticks": 16159,
          "time": 187.8953488372093,
          "velocity": 0.4566929133858268
        },
        {
          "duration": 0.2093023255814046,
          "durationTicks": 18,
          "midi": 75,
          "name": "D#5",
          "ticks": 16159,
          "time": 187.8953488372093,
          "velocity": 0.2204724409448819
        },
        {
          "duration": 0.04651162790699459,
          "durationTicks": 4,
          "midi": 77,
          "name": "F5",
          "ticks": 16159,
          "time": 187.8953488372093,
          "velocity": 0.18110236220472442
        },
        {
          "duration": 0.034883720930224626,
          "durationTicks": 3,
          "midi": 84,
          "name": "C6",
          "ticks": 16159,
          "time": 187.8953488372093,
          "velocity": 0.14960629921259844
        },
        {
          "duration": 0.22093023255814614,
          "durationTicks": 19,
          "midi": 85,
          "name": "C#6",
          "ticks": 16159,
          "time": 187.8953488372093,
          "velocity": 0.2992125984251969
        },
        {
          "duration": 0.03488372093025305,
          "durationTicks": 3,
          "midi": 45,
          "name": "A2",
          "ticks": 16160,
          "time": 187.90697674418604,
          "velocity": 0.5039370078740157
        },
        {
          "duration": 0.13953488372092693,
          "durationTicks": 12,
          "midi": 79,
          "name": "G5",
          "ticks": 16160,
          "time": 187.90697674418604,
          "velocity": 0.16535433070866143
        },
        {
          "duration": 0.09302325581396076,
          "durationTicks": 8,
          "midi": 83,
          "name": "B5",
          "ticks": 16160,
          "time": 187.90697674418604,
          "velocity": 0.10236220472440945
        },
        {
          "duration": 0.1046511627907023,
          "durationTicks": 9,
          "midi": 88,
          "name": "E6",
          "ticks": 16160,
          "time": 187.90697674418604,
          "velocity": 0.10236220472440945
        },
        {
          "duration": 0.13953488372092693,
          "durationTicks": 12,
          "midi": 95,
          "name": "B6",
          "ticks": 16160,
          "time": 187.90697674418604,
          "velocity": 0.15748031496062992
        },
        {
          "duration": 0.05813953488373613,
          "durationTicks": 5,
          "midi": 73,
          "name": "C#5",
          "ticks": 16161,
          "time": 187.91860465116278,
          "velocity": 0.11811023622047244
        },
        {
          "duration": 0.16279069767443843,
          "durationTicks": 14,
          "midi": 61,
          "name": "C#4",
          "ticks": 16162,
          "time": 187.93023255813952,
          "velocity": 0.2440944881889764
        },
        {
          "duration": 0.16279069767443843,
          "durationTicks": 14,
          "midi": 76,
          "name": "E5",
          "ticks": 16162,
          "time": 187.93023255813952,
          "velocity": 0.14960629921259844
        },
        {
          "duration": 0.17441860465115155,
          "durationTicks": 15,
          "midi": 52,
          "name": "E3",
          "ticks": 16163,
          "time": 187.9418604651163,
          "velocity": 0.2992125984251969
        },
        {
          "duration": 0.12790697674418539,
          "durationTicks": 11,
          "midi": 67,
          "name": "G4",
          "ticks": 16163,
          "time": 187.9418604651163,
          "velocity": 0.1968503937007874
        },
        {
          "duration": 0.13953488372092693,
          "durationTicks": 12,
          "midi": 45,
          "name": "A2",
          "ticks": 16166,
          "time": 187.97674418604652,
          "velocity": 0.3858267716535433
        },
        {
          "duration": 0.023255813953483084,
          "durationTicks": 2,
          "midi": 44,
          "name": "G#2",
          "ticks": 16178,
          "time": 188.11627906976744,
          "velocity": 0.3858267716535433
        },
        {
          "duration": 0.27906976744185386,
          "durationTicks": 24,
          "midi": 74,
          "name": "D5",
          "ticks": 16178,
          "time": 188.11627906976744,
          "velocity": 0.5039370078740157
        },
        {
          "duration": 0.27906976744185386,
          "durationTicks": 24,
          "midi": 62,
          "name": "D4",
          "ticks": 16179,
          "time": 188.12790697674419,
          "velocity": 0.5354330708661418
        },
        {
          "duration": 0.19767441860466306,
          "durationTicks": 17,
          "midi": 81,
          "name": "A5",
          "ticks": 16179,
          "time": 188.12790697674419,
          "velocity": 0.25196850393700787
        },
        {
          "duration": 0.2325581395348877,
          "durationTicks": 20,
          "midi": 57,
          "name": "A3",
          "ticks": 16180,
          "time": 188.13953488372093,
          "velocity": 0.30708661417322836
        },
        {
          "duration": 0.12790697674418539,
          "durationTicks": 11,
          "midi": 90,
          "name": "F#6",
          "ticks": 16180,
          "time": 188.13953488372093,
          "velocity": 0.1889763779527559
        },
        {
          "duration": 0.25581395348837077,
          "durationTicks": 22,
          "midi": 50,
          "name": "D3",
          "ticks": 16181,
          "time": 188.15116279069767,
          "velocity": 0.44881889763779526
        },
        {
          "duration": 0.13953488372092693,
          "durationTicks": 12,
          "midi": 72,
          "name": "C5",
          "ticks": 16181,
          "time": 188.15116279069767,
          "velocity": 0.2204724409448819
        },
        {
          "duration": 0.03488372093025305,
          "durationTicks": 3,
          "midi": 39,
          "name": "D#2",
          "ticks": 16182,
          "time": 188.1627906976744,
          "velocity": 0.44881889763779526
        },
        {
          "duration": 0.17441860465117998,
          "durationTicks": 15,
          "midi": 66,
          "name": "F#4",
          "ticks": 16182,
          "time": 188.1627906976744,
          "velocity": 0.2204724409448819
        },
        {
          "duration": 0.1046511627907023,
          "durationTicks": 9,
          "midi": 80,
          "name": "G#5",
          "ticks": 16182,
          "time": 188.1627906976744,
          "velocity": 0.11023622047244094
        },
        {
          "duration": 0.09302325581393234,
          "durationTicks": 8,
          "midi": 38,
          "name": "D2",
          "ticks": 16185,
          "time": 188.19767441860466,
          "velocity": 0.4094488188976378
        },
        {
          "duration": 0.1046511627907023,
          "durationTicks": 9,
          "midi": 38,
          "name": "D2",
          "ticks": 16194,
          "time": 188.30232558139534,
          "velocity": 0.14960629921259844
        },
        {
          "duration": 0.2906976744185954,
          "durationTicks": 25,
          "midi": 61,
          "name": "C#4",
          "ticks": 16208,
          "time": 188.46511627906978,
          "velocity": 0.5511811023622047
        },
        {
          "duration": 0.19767441860463464,
          "durationTicks": 17,
          "midi": 80,
          "name": "G#5",
          "ticks": 16208,
          "time": 188.46511627906978,
          "velocity": 0.25196850393700787
        },
        {
          "duration": 0.023255813953483084,
          "durationTicks": 2,
          "midi": 48,
          "name": "C3",
          "ticks": 16209,
          "time": 188.47674418604652,
          "velocity": 0.4566929133858268
        },
        {
          "duration": 0.2325581395348877,
          "durationTicks": 20,
          "midi": 56,
          "name": "G#3",
          "ticks": 16209,
          "time": 188.47674418604652,
          "velocity": 0.31496062992125984
        },
        {
          "duration": 0.13953488372092693,
          "durationTicks": 12,
          "midi": 89,
          "name": "F6",
          "ticks": 16209,
          "time": 188.47674418604652,
          "velocity": 0.1968503937007874
        },
        {
          "duration": 0.12790697674418539,
          "durationTicks": 11,
          "midi": 71,
          "name": "B4",
          "ticks": 16210,
          "time": 188.48837209302326,
          "velocity": 0.2283464566929134
        },
        {
          "duration": 0.034883720930224626,
          "durationTicks": 3,
          "midi": 38,
          "name": "D2",
          "ticks": 16211,
          "time": 188.5,
          "velocity": 0.4409448818897638
        },
        {
          "duration": 0.24418604651162923,
          "durationTicks": 21,
          "midi": 49,
          "name": "C#3",
          "ticks": 16211,
          "time": 188.5,
          "velocity": 0.4094488188976378
        },
        {
          "duration": 0.17441860465115155,
          "durationTicks": 15,
          "midi": 65,
          "name": "F4",
          "ticks": 16211,
          "time": 188.5,
          "velocity": 0.2204724409448819
        },
        {
          "duration": 0.1046511627907023,
          "durationTicks": 9,
          "midi": 75,
          "name": "D#5",
          "ticks": 16211,
          "time": 188.5,
          "velocity": 0.07874015748031496
        },
        {
          "duration": 0.09302325581396076,
          "durationTicks": 8,
          "midi": 79,
          "name": "G5",
          "ticks": 16212,
          "time": 188.51162790697674,
          "velocity": 0.09448818897637795
        },
        {
          "duration": 0.023255813953483084,
          "durationTicks": 2,
          "midi": 37,
          "name": "C#2",
          "ticks": 16214,
          "time": 188.53488372093022,
          "velocity": 0.4251968503937008
        },
        {
          "duration": 0.06976744186044925,
          "durationTicks": 6,
          "midi": 37,
          "name": "C#2",
          "ticks": 16217,
          "time": 188.56976744186048,
          "velocity": 0.3779527559055118
        },
        {
          "duration": 0.1046511627907023,
          "durationTicks": 9,
          "midi": 37,
          "name": "C#2",
          "ticks": 16224,
          "time": 188.65116279069767,
          "velocity": 0.14173228346456693
        },
        {
          "duration": 0.2674418604651123,
          "durationTicks": 23,
          "midi": 72,
          "name": "C5",
          "ticks": 16238,
          "time": 188.8139534883721,
          "velocity": 0.5118110236220472
        },
        {
          "duration": 0.17441860465115155,
          "durationTicks": 15,
          "midi": 79,
          "name": "G5",
          "ticks": 16238,
          "time": 188.8139534883721,
          "velocity": 0.2677165354330709
        },
        {
          "duration": 0.023255813953483084,
          "durationTicks": 2,
          "midi": 47,
          "name": "B2",
          "ticks": 16239,
          "time": 188.82558139534885,
          "velocity": 0.4645669291338583
        },
        {
          "duration": 0.23255813953485927,
          "durationTicks": 20,
          "midi": 55,
          "name": "G3",
          "ticks": 16239,
          "time": 188.82558139534885,
          "velocity": 0.33858267716535434
        },
        {
          "duration": 0.27906976744185386,
          "durationTicks": 24,
          "midi": 60,
          "name": "C4",
          "ticks": 16239,
          "time": 188.82558139534885,
          "velocity": 0.5511811023622047
        },
        {
          "duration": 0.13953488372092693,
          "durationTicks": 12,
          "midi": 88,
          "name": "E6",
          "ticks": 16239,
          "time": 188.82558139534885,
          "velocity": 0.1889763779527559
        },
        {
          "duration": 0.04651162790696617,
          "durationTicks": 4,
          "midi": 37,
          "name": "C#2",
          "ticks": 16241,
          "time": 188.84883720930233,
          "velocity": 0.44881889763779526
        },
        {
          "duration": 0.24418604651162923,
          "durationTicks": 21,
          "midi": 48,
          "name": "C3",
          "ticks": 16241,
          "time": 188.84883720930233,
          "velocity": 0.4251968503937008
        },
        {
          "duration": 0.0813953488371908,
          "durationTicks": 7,
          "midi": 70,
          "name": "A#4",
          "ticks": 16241,
          "time": 188.84883720930233,
          "velocity": 0.14173228346456693
        },
        {
          "duration": 0.15116279069766847,
          "durationTicks": 13,
          "midi": 64,
          "name": "E4",
          "ticks": 16242,
          "time": 188.86046511627907,
          "velocity": 0.2125984251968504
        },
        {
          "duration": 0.09302325581396076,
          "durationTicks": 8,
          "midi": 78,
          "name": "F#5",
          "ticks": 16242,
          "time": 188.86046511627907,
          "velocity": 0.10236220472440945
        },
        {
          "duration": 0.034883720930224626,
          "durationTicks": 3,
          "midi": 74,
          "name": "D5",
          "ticks": 16243,
          "time": 188.87209302325581,
          "velocity": 0.07086614173228346
        },
        {
          "duration": 0.06976744186047767,
          "durationTicks": 6,
          "midi": 36,
          "name": "C2",
          "ticks": 16247,
          "time": 188.91860465116278,
          "velocity": 0.3779527559055118
        },
        {
          "duration": 0.08139534883721922,
          "durationTicks": 7,
          "midi": 36,
          "name": "C2",
          "ticks": 16255,
          "time": 189.01162790697674,
          "velocity": 0.11023622047244094
        },
        {
          "duration": 0.023255813953483084,
          "durationTicks": 2,
          "midi": 58,
          "name": "A#3",
          "ticks": 16268,
          "time": 189.1627906976744,
          "velocity": 0.4409448818897638
        },
        {
          "duration": 0.17441860465117998,
          "durationTicks": 15,
          "midi": 78,
          "name": "F#5",
          "ticks": 16268,
          "time": 189.1627906976744,
          "velocity": 0.14960629921259844
        },
        {
          "duration": 0.023255813953511506,
          "durationTicks": 2,
          "midi": 62,
          "name": "D4",
          "ticks": 16269,
          "time": 189.17441860465115,
          "velocity": 0.2677165354330709
        },
        {
          "duration": 0.19767441860466306,
          "durationTicks": 17,
          "midi": 71,
          "name": "B4",
          "ticks": 16269,
          "time": 189.17441860465115,
          "velocity": 0.4409448818897638
        },
        {
          "duration": 0.17441860465117998,
          "durationTicks": 15,
          "midi": 77,
          "name": "F5",
          "ticks": 16269,
          "time": 189.17441860465115,
          "velocity": 0.1968503937007874
        },
        {
          "duration": 0.03488372093025305,
          "durationTicks": 3,
          "midi": 79,
          "name": "G5",
          "ticks": 16269,
          "time": 189.17441860465115,
          "velocity": 0.14173228346456693
        },
        {
          "duration": 0.12790697674418539,
          "durationTicks": 11,
          "midi": 81,
          "name": "A5",
          "ticks": 16269,
          "time": 189.17441860465115,
          "velocity": 0.14173228346456693
        },
        {
          "duration": 0.1046511627907023,
          "durationTicks": 9,
          "midi": 85,
          "name": "C#6",
          "ticks": 16269,
          "time": 189.17441860465115,
          "velocity": 0.10236220472440945
        },
        {
          "duration": 0.13953488372095535,
          "durationTicks": 12,
          "midi": 87,
          "name": "D#6",
          "ticks": 16269,
          "time": 189.17441860465115,
          "velocity": 0.3228346456692913
        },
        {
          "duration": 0.11627906976744384,
          "durationTicks": 10,
          "midi": 97,
          "name": "C#7",
          "ticks": 16269,
          "time": 189.17441860465115,
          "velocity": 0.13385826771653545
        },
        {
          "duration": 0.2790697674418823,
          "durationTicks": 24,
          "midi": 47,
          "name": "B2",
          "ticks": 16270,
          "time": 189.1860465116279,
          "velocity": 0.4645669291338583
        },
        {
          "duration": 0.13953488372095535,
          "durationTicks": 12,
          "midi": 69,
          "name": "A4",
          "ticks": 16270,
          "time": 189.1860465116279,
          "velocity": 0.1968503937007874
        },
        {
          "duration": 0.11627906976744384,
          "durationTicks": 10,
          "midi": 75,
          "name": "D#5",
          "ticks": 16270,
          "time": 189.1860465116279,
          "velocity": 0.12598425196850394
        },
        {
          "duration": 0.19767441860463464,
          "durationTicks": 17,
          "midi": 54,
          "name": "F#3",
          "ticks": 16271,
          "time": 189.19767441860466,
          "velocity": 0.30708661417322836
        },
        {
          "duration": 0.15116279069766847,
          "durationTicks": 13,
          "midi": 63,
          "name": "D#4",
          "ticks": 16271,
          "time": 189.19767441860466,
          "velocity": 0.2440944881889764
        },
        {
          "duration": 0.034883720930224626,
          "durationTicks": 3,
          "midi": 87,
          "name": "D#6",
          "ticks": 16283,
          "time": 189.3372093023256,
          "velocity": 0.09448818897637795
        },
        {
          "duration": 0.22093023255814614,
          "durationTicks": 19,
          "midi": 58,
          "name": "A#3",
          "ticks": 16297,
          "time": 189.5,
          "velocity": 0.44881889763779526
        },
        {
          "duration": 0.2325581395348877,
          "durationTicks": 20,
          "midi": 70,
          "name": "A#4",
          "ticks": 16297,
          "time": 189.5,
          "velocity": 0.44881889763779526
        },
        {
          "duration": 0.19767441860466306,
          "durationTicks": 17,
          "midi": 76,
          "name": "E5",
          "ticks": 16297,
          "time": 189.5,
          "velocity": 0.2125984251968504
        },
        {
          "duration": 0.17441860465115155,
          "durationTicks": 15,
          "midi": 77,
          "name": "F5",
          "ticks": 16298,
          "time": 189.51162790697674,
          "velocity": 0.14960629921259844
        },
        {
          "duration": 0.034883720930224626,
          "durationTicks": 3,
          "midi": 78,
          "name": "F#5",
          "ticks": 16298,
          "time": 189.51162790697674,
          "velocity": 0.14960629921259844
        },
        {
          "duration": 0.13953488372092693,
          "durationTicks": 12,
          "midi": 80,
          "name": "G#5",
          "ticks": 16298,
          "time": 189.51162790697674,
          "velocity": 0.16535433070866143
        },
        {
          "duration": 0.09302325581396076,
          "durationTicks": 8,
          "midi": 84,
          "name": "C6",
          "ticks": 16298,
          "time": 189.51162790697674,
          "velocity": 0.11023622047244094
        },
        {
          "duration": 0.19767441860466306,
          "durationTicks": 17,
          "midi": 86,
          "name": "D6",
          "ticks": 16298,
          "time": 189.51162790697674,
          "velocity": 0.30708661417322836
        },
        {
          "duration": 0.12790697674418539,
          "durationTicks": 11,
          "midi": 96,
          "name": "C7",
          "ticks": 16298,
          "time": 189.51162790697674,
          "velocity": 0.12598425196850394
        },
        {
          "duration": 0.15116279069766847,
          "durationTicks": 13,
          "midi": 68,
          "name": "G#4",
          "ticks": 16299,
          "time": 189.52325581395348,
          "velocity": 0.1968503937007874
        },
        {
          "duration": 0.12790697674418539,
          "durationTicks": 11,
          "midi": 74,
          "name": "D5",
          "ticks": 16299,
          "time": 189.52325581395348,
          "velocity": 0.14173228346456693
        },
        {
          "duration": 0.17441860465117998,
          "durationTicks": 15,
          "midi": 53,
          "name": "F3",
          "ticks": 16300,
          "time": 189.53488372093022,
          "velocity": 0.31496062992125984
        },
        {
          "duration": 0.16279069767443843,
          "durationTicks": 14,
          "midi": 46,
          "name": "A#2",
          "ticks": 16302,
          "time": 189.5581395348837,
          "velocity": 0.4330708661417323
        },
        {
          "duration": 0.03488372093025305,
          "durationTicks": 3,
          "midi": 62,
          "name": "D4",
          "ticks": 16302,
          "time": 189.5581395348837,
          "velocity": 0.1732283464566929
        },
        {
          "duration": 0.023255813953483084,
          "durationTicks": 2,
          "midi": 47,
          "name": "B2",
          "ticks": 16316,
          "time": 189.72093023255815,
          "velocity": 0.41732283464566927
        },
        {
          "duration": 0.04651162790696617,
          "durationTicks": 4,
          "midi": 76,
          "name": "E5",
          "ticks": 16316,
          "time": 189.72093023255815,
          "velocity": 0.18110236220472442
        },
        {
          "duration": 0.034883720930224626,
          "durationTicks": 3,
          "midi": 77,
          "name": "F5",
          "ticks": 16316,
          "time": 189.72093023255815,
          "velocity": 0.1732283464566929
        },
        {
          "duration": 0.22093023255814614,
          "durationTicks": 19,
          "midi": 85,
          "name": "C#6",
          "ticks": 16316,
          "time": 189.72093023255815,
          "velocity": 0.2992125984251969
        },
        {
          "duration": 0.2325581395348877,
          "durationTicks": 20,
          "midi": 57,
          "name": "A3",
          "ticks": 16317,
          "time": 189.7325581395349,
          "velocity": 0.44881889763779526
        },
        {
          "duration": 0.19767441860463464,
          "durationTicks": 17,
          "midi": 75,
          "name": "D#5",
          "ticks": 16317,
          "time": 189.7325581395349,
          "velocity": 0.2125984251968504
        },
        {
          "duration": 0.15116279069766847,
          "durationTicks": 13,
          "midi": 79,
          "name": "G5",
          "ticks": 16317,
          "time": 189.7325581395349,
          "velocity": 0.16535433070866143
        },
        {
          "duration": 0.08139534883721922,
          "durationTicks": 7,
          "midi": 83,
          "name": "B5",
          "ticks": 16317,
          "time": 189.7325581395349,
          "velocity": 0.09448818897637795
        },
        {
          "duration": 0.13953488372092693,
          "durationTicks": 12,
          "midi": 95,
          "name": "B6",
          "ticks": 16317,
          "time": 189.7325581395349,
          "velocity": 0.14960629921259844
        },
        {
          "duration": 0.023255813953483084,
          "durationTicks": 2,
          "midi": 45,
          "name": "A2",
          "ticks": 16318,
          "time": 189.74418604651163,
          "velocity": 0.49606299212598426
        },
        {
          "duration": 0.05813953488370771,
          "durationTicks": 5,
          "midi": 73,
          "name": "C#5",
          "ticks": 16318,
          "time": 189.74418604651163,
          "velocity": 0.11811023622047244
        },
        {
          "duration": 0.16279069767441,
          "durationTicks": 14,
          "midi": 61,
          "name": "C#4",
          "ticks": 16319,
          "time": 189.75581395348837,
          "velocity": 0.2204724409448819
        },
        {
          "duration": 0.18604651162792152,
          "durationTicks": 16,
          "midi": 52,
          "name": "E3",
          "ticks": 16320,
          "time": 189.7674418604651,
          "velocity": 0.2992125984251969
        },
        {
          "duration": 0.13953488372092693,
          "durationTicks": 12,
          "midi": 67,
          "name": "G4",
          "ticks": 16320,
          "time": 189.7674418604651,
          "velocity": 0.2047244094488189
        },
        {
          "duration": 0.17441860465117998,
          "durationTicks": 15,
          "midi": 45,
          "name": "A2",
          "ticks": 16321,
          "time": 189.77906976744185,
          "velocity": 0.44881889763779526
        },
        {
          "duration": 0.13953488372092693,
          "durationTicks": 12,
          "midi": 76,
          "name": "E5",
          "ticks": 16321,
          "time": 189.77906976744185,
          "velocity": 0.12598425196850394
        },
        {
          "duration": 0.2674418604651123,
          "durationTicks": 23,
          "midi": 76,
          "name": "E5",
          "ticks": 16336,
          "time": 189.95348837209303,
          "velocity": 0.5039370078740157
        },
        {
          "duration": 0.023255813953483084,
          "durationTicks": 2,
          "midi": 42,
          "name": "F#2",
          "ticks": 16337,
          "time": 189.96511627906978,
          "velocity": 0.4094488188976378
        },
        {
          "duration": 0.023255813953483084,
          "durationTicks": 2,
          "midi": 50,
          "name": "D3",
          "ticks": 16337,
          "time": 189.96511627906978,
          "velocity": 0.4409448818897638
        },
        {
          "duration": 0.27906976744185386,
          "durationTicks": 24,
          "midi": 64,
          "name": "E4",
          "ticks": 16337,
          "time": 189.96511627906978,
          "velocity": 0.5433070866141733
        },
        {
          "duration": 0.16279069767441,
          "durationTicks": 14,
          "midi": 74,
          "name": "D5",
          "ticks": 16337,
          "time": 189.96511627906978,
          "velocity": 0.2283464566929134
        },
        {
          "duration": 0.19767441860463464,
          "durationTicks": 17,
          "midi": 83,
          "name": "B5",
          "ticks": 16337,
          "time": 189.96511627906978,
          "velocity": 0.2677165354330709
        },
        {
          "duration": 0.22093023255814614,
          "durationTicks": 19,
          "midi": 59,
          "name": "B3",
          "ticks": 16338,
          "time": 189.97674418604652,
          "velocity": 0.2992125984251969
        },
        {
          "duration": 0.16279069767441,
          "durationTicks": 14,
          "midi": 92,
          "name": "G#6",
          "ticks": 16338,
          "time": 189.97674418604652,
          "velocity": 0.1968503937007874
        },
        {
          "duration": 0.04651162790696617,
          "durationTicks": 4,
          "midi": 41,
          "name": "F2",
          "ticks": 16339,
          "time": 189.98837209302326,
          "velocity": 0.4645669291338583
        },
        {
          "duration": 0.24418604651162923,
          "durationTicks": 21,
          "midi": 52,
          "name": "E3",
          "ticks": 16339,
          "time": 189.98837209302326,
          "velocity": 0.41732283464566927
        },
        {
          "duration": 0.17441860465115155,
          "durationTicks": 15,
          "midi": 68,
          "name": "G#4",
          "ticks": 16340,
          "time": 190,
          "velocity": 0.2125984251968504
        },
        {
          "duration": 0.1046511627907023,
          "durationTicks": 9,
          "midi": 82,
          "name": "A#5",
          "ticks": 16340,
          "time": 190,
          "velocity": 0.12598425196850394
        },
        {
          "duration": 0.06976744186047767,
          "durationTicks": 6,
          "midi": 40,
          "name": "E2",
          "ticks": 16343,
          "time": 190.03488372093022,
          "velocity": 0.41732283464566927
        },
        {
          "duration": 0.11627906976744384,
          "durationTicks": 10,
          "midi": 40,
          "name": "E2",
          "ticks": 16351,
          "time": 190.12790697674419,
          "velocity": 0.1968503937007874
        },
        {
          "duration": 0.023255813953511506,
          "durationTicks": 2,
          "midi": 59,
          "name": "B3",
          "ticks": 16365,
          "time": 190.2906976744186,
          "velocity": 0.28346456692913385
        },
        {
          "duration": 0.26744186046514073,
          "durationTicks": 23,
          "midi": 75,
          "name": "D#5",
          "ticks": 16366,
          "time": 190.30232558139534,
          "velocity": 0.5039370078740157
        },
        {
          "duration": 0.19767441860466306,
          "durationTicks": 17,
          "midi": 82,
          "name": "A#5",
          "ticks": 16366,
          "time": 190.30232558139534,
          "velocity": 0.2755905511811024
        },
        {
          "duration": 0.023255813953483084,
          "durationTicks": 2,
          "midi": 41,
          "name": "F2",
          "ticks": 16367,
          "time": 190.3139534883721,
          "velocity": 0.4566929133858268
        },
        {
          "duration": 0.023255813953483084,
          "durationTicks": 2,
          "midi": 50,
          "name": "D3",
          "ticks": 16367,
          "time": 190.3139534883721,
          "velocity": 0.44881889763779526
        },
        {
          "duration": 0.23255813953485927,
          "durationTicks": 20,
          "midi": 58,
          "name": "A#3",
          "ticks": 16367,
          "time": 190.3139534883721,
          "velocity": 0.31496062992125984
        },
        {
          "duration": 0.2674418604651123,
          "durationTicks": 23,
          "midi": 63,
          "name": "D#4",
          "ticks": 16367,
          "time": 190.3139534883721,
          "velocity": 0.5354330708661418
        },
        {
          "duration": 0.12790697674418539,
          "durationTicks": 11,
          "midi": 91,
          "name": "G6",
          "ticks": 16367,
          "time": 190.3139534883721,
          "velocity": 0.1968503937007874
        },
        {
          "duration": 0.13953488372092693,
          "durationTicks": 12,
          "midi": 73,
          "name": "C#5",
          "ticks": 16368,
          "time": 190.32558139534885,
          "velocity": 0.1968503937007874
        },
        {
          "duration": 0.034883720930224626,
          "durationTicks": 3,
          "midi": 40,
          "name": "E2",
          "ticks": 16369,
          "time": 190.3372093023256,
          "velocity": 0.4645669291338583
        },
        {
          "duration": 0.24418604651162923,
          "durationTicks": 21,
          "midi": 51,
          "name": "D#3",
          "ticks": 16369,
          "time": 190.3372093023256,
          "velocity": 0.41732283464566927
        },
        {
          "duration": 0.17441860465115155,
          "durationTicks": 15,
          "midi": 67,
          "name": "G4",
          "ticks": 16369,
          "time": 190.3372093023256,
          "velocity": 0.2204724409448819
        },
        {
          "duration": 0.1046511627907023,
          "durationTicks": 9,
          "midi": 81,
          "name": "A5",
          "ticks": 16369,
          "time": 190.3372093023256,
          "velocity": 0.11811023622047244
        },
        {
          "duration": 0.06976744186047767,
          "durationTicks": 6,
          "midi": 39,
          "name": "D#2",
          "ticks": 16372,
          "time": 190.37209302325581,
          "velocity": 0.41732283464566927
        },
        {
          "duration": 0.034883720930224626,
          "durationTicks": 3,
          "midi": 38,
          "name": "D2",
          "ticks": 16378,
          "time": 190.4418604651163,
          "velocity": 0.1968503937007874
        },
        {
          "duration": 0.1046511627907023,
          "durationTicks": 9,
          "midi": 39,
          "name": "D#2",
          "ticks": 16381,
          "time": 190.47674418604652,
          "velocity": 0.15748031496062992
        },
        {
          "duration": 0.2674418604651123,
          "durationTicks": 23,
          "midi": 74,
          "name": "D5",
          "ticks": 16396,
          "time": 190.65116279069767,
          "velocity": 0.5118110236220472
        },
        {
          "duration": 0.19767441860466306,
          "durationTicks": 17,
          "midi": 81,
          "name": "A5",
          "ticks": 16396,
          "time": 190.65116279069767,
          "velocity": 0.2677165354330709
        },
        {
          "duration": 0.22093023255814614,
          "durationTicks": 19,
          "midi": 57,
          "name": "A3",
          "ticks": 16397,
          "time": 190.6627906976744,
          "velocity": 0.3228346456692913
        },
        {
          "duration": 0.2674418604651123,
          "durationTicks": 23,
          "midi": 62,
          "name": "D4",
          "ticks": 16397,
          "time": 190.6627906976744,
          "velocity": 0.5354330708661418
        },
        {
          "duration": 0.11627906976744384,
          "durationTicks": 10,
          "midi": 80,
          "name": "G#5",
          "ticks": 16397,
          "time": 190.6627906976744,
          "velocity": 0.10236220472440945
        },
        {
          "duration": 0.12790697674418539,
          "durationTicks": 11,
          "midi": 90,
          "name": "F#6",
          "ticks": 16397,
          "time": 190.6627906976744,
          "velocity": 0.1889763779527559
        },
        {
          "duration": 0.24418604651162923,
          "durationTicks": 21,
          "midi": 50,
          "name": "D3",
          "ticks": 16398,
          "time": 190.67441860465115,
          "velocity": 0.4409448818897638
        },
        {
          "duration": 0.13953488372095535,
          "durationTicks": 12,
          "midi": 72,
          "name": "C5",
          "ticks": 16398,
          "time": 190.67441860465115,
          "velocity": 0.2204724409448819
        },
        {
          "duration": 0.023255813953511506,
          "durationTicks": 2,
          "midi": 39,
          "name": "D#2",
          "ticks": 16399,
          "time": 190.6860465116279,
          "velocity": 0.44881889763779526
        },
        {
          "duration": 0.17441860465117998,
          "durationTicks": 15,
          "midi": 66,
          "name": "F#4",
          "ticks": 16399,
          "time": 190.6860465116279,
          "velocity": 0.2204724409448819
        },
        {
          "duration": 0.1046511627907023,
          "durationTicks": 9,
          "midi": 76,
          "name": "E5",
          "ticks": 16399,
          "time": 190.6860465116279,
          "velocity": 0.07874015748031496
        },
        {
          "duration": 0.023255813953483084,
          "durationTicks": 2,
          "midi": 38,
          "name": "D2",
          "ticks": 16401,
          "time": 190.7093023255814,
          "velocity": 0.4094488188976378
        },
        {
          "duration": 0.06976744186047767,
          "durationTicks": 6,
          "midi": 38,
          "name": "D2",
          "ticks": 16404,
          "time": 190.74418604651163,
          "velocity": 0.3700787401574803
        },
        {
          "duration": 0.10465116279067388,
          "durationTicks": 9,
          "midi": 38,
          "name": "D2",
          "ticks": 16411,
          "time": 190.82558139534885,
          "velocity": 0.14173228346456693
        },
        {
          "duration": 0.2906976744185954,
          "durationTicks": 25,
          "midi": 61,
          "name": "C#4",
          "ticks": 16426,
          "time": 191,
          "velocity": 0.5511811023622047
        },
        {
          "duration": 0.1860465116278931,
          "durationTicks": 16,
          "midi": 80,
          "name": "G#5",
          "ticks": 16426,
          "time": 191,
          "velocity": 0.25984251968503935
        },
        {
          "duration": 0.023255813953483084,
          "durationTicks": 2,
          "midi": 48,
          "name": "C3",
          "ticks": 16427,
          "time": 191.01162790697674,
          "velocity": 0.4566929133858268
        },
        {
          "duration": 0.023255813953483084,
          "durationTicks": 2,
          "midi": 55,
          "name": "G3",
          "ticks": 16427,
          "time": 191.01162790697674,
          "velocity": 0.31496062992125984
        },
        {
          "duration": 0.034883720930224626,
          "durationTicks": 3,
          "midi": 64,
          "name": "E4",
          "ticks": 16427,
          "time": 191.01162790697674,
          "velocity": 0.2125984251968504
        },
        {
          "duration": 0.15116279069766847,
          "durationTicks": 13,
          "midi": 68,
          "name": "G#4",
          "ticks": 16427,
          "time": 191.01162790697674,
          "velocity": 0.14173228346456693
        },
        {
          "duration": 0.12790697674418539,
          "durationTicks": 11,
          "midi": 89,
          "name": "F6",
          "ticks": 16427,
          "time": 191.01162790697674,
          "velocity": 0.1968503937007874
        },
        {
          "duration": 0.11627906976744384,
          "durationTicks": 10,
          "midi": 71,
          "name": "B4",
          "ticks": 16428,
          "time": 191.02325581395348,
          "velocity": 0.23622047244094488
        },
        {
          "duration": 0.03488372093025305,
          "durationTicks": 3,
          "midi": 38,
          "name": "D2",
          "ticks": 16429,
          "time": 191.03488372093022,
          "velocity": 0.4409448818897638
        },
        {
          "duration": 0.2325581395348877,
          "durationTicks": 20,
          "midi": 49,
          "name": "C#3",
          "ticks": 16429,
          "time": 191.03488372093022,
          "velocity": 0.4094488188976378
        },
        {
          "duration": 0.19767441860466306,
          "durationTicks": 17,
          "midi": 56,
          "name": "G#3",
          "ticks": 16429,
          "time": 191.03488372093022,
          "velocity": 0.28346456692913385
        },
        {
          "duration": 0.1046511627907023,
          "durationTicks": 9,
          "midi": 75,
          "name": "D#5",
          "ticks": 16429,
          "time": 191.03488372093022,
          "velocity": 0.07874015748031496
        },
        {
          "duration": 0.16279069767443843,
          "durationTicks": 14,
          "midi": 65,
          "name": "F4",
          "ticks": 16430,
          "time": 191.04651162790697,
          "velocity": 0.2125984251968504
        },
        {
          "duration": 0.09302325581396076,
          "durationTicks": 8,
          "midi": 79,
          "name": "G5",
          "ticks": 16430,
          "time": 191.04651162790697,
          "velocity": 0.09448818897637795
        },
        {
          "duration": 0.10465116279067388,
          "durationTicks": 9,
          "midi": 37,
          "name": "C#2",
          "ticks": 16432,
          "time": 191.06976744186048,
          "velocity": 0.4251968503937008
        },
        {
          "duration": 0.09302325581396076,
          "durationTicks": 8,
          "midi": 37,
          "name": "C#2",
          "ticks": 16442,
          "time": 191.1860465116279,
          "velocity": 0.13385826771653545
        },
        {
          "duration": 0.023255813953483084,
          "durationTicks": 2,
          "midi": 73,
          "name": "C#5",
          "ticks": 16454,
          "time": 191.32558139534885,
          "velocity": 0.3779527559055118
        },
        {
          "duration": 0.023255813953483084,
          "durationTicks": 2,
          "midi": 45,
          "name": "A2",
          "ticks": 16455,
          "time": 191.3372093023256,
          "velocity": 0.4409448818897638
        },
        {
          "duration": 0.2325581395348877,
          "durationTicks": 20,
          "midi": 60,
          "name": "C4",
          "ticks": 16455,
          "time": 191.3372093023256,
          "velocity": 0.5511811023622047
        },
        {
          "duration": 0.1860465116278931,
          "durationTicks": 16,
          "midi": 79,
          "name": "G5",
          "ticks": 16455,
          "time": 191.3372093023256,
          "velocity": 0.2677165354330709
        },
        {
          "duration": 0.0813953488371908,
          "durationTicks": 7,
          "midi": 84,
          "name": "C6",
          "ticks": 16455,
          "time": 191.3372093023256,
          "velocity": 0.16535433070866143
        },
        {
          "duration": 0.20930232558137618,
          "durationTicks": 18,
          "midi": 55,
          "name": "G3",
          "ticks": 16456,
          "time": 191.34883720930233,
          "velocity": 0.3464566929133858
        },
        {
          "duration": 0.13953488372092693,
          "durationTicks": 12,
          "midi": 88,
          "name": "E6",
          "ticks": 16456,
          "time": 191.34883720930233,
          "velocity": 0.1889763779527559
        },
        {
          "duration": 0.04651162790696617,
          "durationTicks": 4,
          "midi": 37,
          "name": "C#2",
          "ticks": 16458,
          "time": 191.37209302325581,
          "velocity": 0.44881889763779526
        },
        {
          "duration": 0.1860465116278931,
          "durationTicks": 16,
          "midi": 48,
          "name": "C3",
          "ticks": 16458,
          "time": 191.37209302325581,
          "velocity": 0.4330708661417323
        },
        {
          "duration": 0.11627906976744384,
          "durationTicks": 10,
          "midi": 70,
          "name": "A#4",
          "ticks": 16458,
          "time": 191.37209302325581,
          "velocity": 0.14960629921259844
        },
        {
          "duration": 0.17441860465115155,
          "durationTicks": 15,
          "midi": 64,
          "name": "E4",
          "ticks": 16459,
          "time": 191.38372093023256,
          "velocity": 0.2125984251968504
        },
        {
          "duration": 0.09302325581396076,
          "durationTicks": 8,
          "midi": 78,
          "name": "F#5",
          "ticks": 16459,
          "time": 191.38372093023256,
          "velocity": 0.10236220472440945
        },
        {
          "duration": 0.034883720930224626,
          "durationTicks": 3,
          "midi": 74,
          "name": "D5",
          "ticks": 16460,
          "time": 191.3953488372093,
          "velocity": 0.07086614173228346
        },
        {
          "duration": 0.06976744186044925,
          "durationTicks": 6,
          "midi": 36,
          "name": "C2",
          "ticks": 16464,
          "time": 191.4418604651163,
          "velocity": 0.3858267716535433
        },
        {
          "duration": 0.17441860465117998,
          "durationTicks": 15,
          "midi": 78,
          "name": "F#5",
          "ticks": 16474,
          "time": 191.5581395348837,
          "velocity": 0.14173228346456693
        },
        {
          "duration": 0.23255813953485927,
          "durationTicks": 20,
          "midi": 59,
          "name": "B3",
          "ticks": 16475,
          "time": 191.56976744186048,
          "velocity": 0.4566929133858268
        },
        {
          "duration": 0.17441860465115155,
          "durationTicks": 15,
          "midi": 77,
          "name": "F5",
          "ticks": 16475,
          "time": 191.56976744186048,
          "velocity": 0.1968503937007874
        },
        {
          "duration": 0.04651162790696617,
          "durationTicks": 4,
          "midi": 79,
          "name": "G5",
          "ticks": 16475,
          "time": 191.56976744186048,
          "velocity": 0.11023622047244094
        },
        {
          "duration": 0.13953488372092693,
          "durationTicks": 12,
          "midi": 81,
          "name": "A5",
          "ticks": 16475,
          "time": 191.56976744186048,
          "velocity": 0.14173228346456693
        },
        {
          "duration": 0.09302325581393234,
          "durationTicks": 8,
          "midi": 85,
          "name": "C#6",
          "ticks": 16475,
          "time": 191.56976744186048,
          "velocity": 0.11811023622047244
        },
        {
          "duration": 0.19767441860463464,
          "durationTicks": 17,
          "midi": 87,
          "name": "D#6",
          "ticks": 16475,
          "time": 191.56976744186048,
          "velocity": 0.3228346456692913
        },
        {
          "duration": 0.12790697674418539,
          "durationTicks": 11,
          "midi": 97,
          "name": "C#7",
          "ticks": 16475,
          "time": 191.56976744186048,
          "velocity": 0.13385826771653545
        },
        {
          "duration": 0.22093023255811772,
          "durationTicks": 19,
          "midi": 47,
          "name": "B2",
          "ticks": 16476,
          "time": 191.58139534883722,
          "velocity": 0.4645669291338583
        },
        {
          "duration": 0.15116279069766847,
          "durationTicks": 13,
          "midi": 69,
          "name": "A4",
          "ticks": 16476,
          "time": 191.58139534883722,
          "velocity": 0.2047244094488189
        },
        {
          "duration": 0.11627906976744384,
          "durationTicks": 10,
          "midi": 75,
          "name": "D#5",
          "ticks": 16476,
          "time": 191.58139534883722,
          "velocity": 0.12598425196850394
        },
        {
          "duration": 0.16279069767441,
          "durationTicks": 14,
          "midi": 63,
          "name": "D#4",
          "ticks": 16477,
          "time": 191.59302325581396,
          "velocity": 0.25984251968503935
        },
        {
          "duration": 0.1860465116278931,
          "durationTicks": 16,
          "midi": 54,
          "name": "F#3",
          "ticks": 16478,
          "time": 191.6046511627907,
          "velocity": 0.2992125984251969
        },
        {
          "duration": 0.023255813953511506,
          "durationTicks": 2,
          "midi": 58,
          "name": "A#3",
          "ticks": 16495,
          "time": 191.80232558139534,
          "velocity": 0.44881889763779526
        },
        {
          "duration": 0.6046511627907023,
          "durationTicks": 52,
          "midi": 77,
          "name": "F5",
          "ticks": 16495,
          "time": 191.80232558139534,
          "velocity": 0.1968503937007874
        },
        {
          "duration": 0.51162790697677,
          "durationTicks": 44,
          "midi": 78,
          "name": "F#5",
          "ticks": 16495,
          "time": 191.80232558139534,
          "velocity": 0.16535433070866143
        },
        {
          "duration": 1.4534883720930054,
          "durationTicks": 125,
          "midi": 47,
          "name": "B2",
          "ticks": 16496,
          "time": 191.8139534883721,
          "velocity": 0.4881889763779528
        },
        {
          "duration": 0.023255813953483084,
          "durationTicks": 2,
          "midi": 62,
          "name": "D4",
          "ticks": 16496,
          "time": 191.8139534883721,
          "velocity": 0.28346456692913385
        },
        {
          "duration": 0.5581395348837077,
          "durationTicks": 48,
          "midi": 71,
          "name": "B4",
          "ticks": 16496,
          "time": 191.8139534883721,
          "velocity": 0.4409448818897638
        },
        {
          "duration": 0.034883720930224626,
          "durationTicks": 3,
          "midi": 79,
          "name": "G5",
          "ticks": 16496,
          "time": 191.8139534883721,
          "velocity": 0.14960629921259844
        },
        {
          "duration": 0.19767441860463464,
          "durationTicks": 17,
          "midi": 81,
          "name": "A5",
          "ticks": 16496,
          "time": 191.8139534883721,
          "velocity": 0.15748031496062992
        },
        {
          "duration": 0.11627906976741542,
          "durationTicks": 10,
          "midi": 85,
          "name": "C#6",
          "ticks": 16496,
          "time": 191.8139534883721,
          "velocity": 0.11023622047244094
        },
        {
          "duration": 0.6279069767441854,
          "durationTicks": 54,
          "midi": 87,
          "name": "D#6",
          "ticks": 16496,
          "time": 191.8139534883721,
          "velocity": 0.30708661417322836
        },
        {
          "duration": 0.16279069767441,
          "durationTicks": 14,
          "midi": 97,
          "name": "C#7",
          "ticks": 16496,
          "time": 191.8139534883721,
          "velocity": 0.13385826771653545
        },
        {
          "duration": 0.4186046511627808,
          "durationTicks": 36,
          "midi": 69,
          "name": "A4",
          "ticks": 16497,
          "time": 191.82558139534885,
          "velocity": 0.2047244094488189
        },
        {
          "duration": 0.19767441860463464,
          "durationTicks": 17,
          "midi": 75,
          "name": "D#5",
          "ticks": 16497,
          "time": 191.82558139534885,
          "velocity": 0.11811023622047244
        },
        {
          "duration": 0.9767441860465169,
          "durationTicks": 84,
          "midi": 54,
          "name": "F#3",
          "ticks": 16498,
          "time": 191.8372093023256,
          "velocity": 0.3228346456692913
        },
        {
          "duration": 0.6162790697674438,
          "durationTicks": 53,
          "midi": 63,
          "name": "D#4",
          "ticks": 16498,
          "time": 191.8372093023256,
          "velocity": 0.25984251968503935
        },
        {
          "duration": 0.023255813953483084,
          "durationTicks": 2,
          "midi": 48,
          "name": "C3",
          "ticks": 16651,
          "time": 193.61627906976744,
          "velocity": 0.4094488188976378
        },
        {
          "duration": 0.023255813953483084,
          "durationTicks": 2,
          "midi": 61,
          "name": "C#4",
          "ticks": 16652,
          "time": 193.62790697674419,
          "velocity": 0.48031496062992124
        },
        {
          "duration": 0.2325581395348877,
          "durationTicks": 20,
          "midi": 69,
          "name": "A4",
          "ticks": 16652,
          "time": 193.62790697674419,
          "velocity": 0.4409448818897638
        },
        {
          "duration": 0.3604651162790731,
          "durationTicks": 31,
          "midi": 72,
          "name": "C5",
          "ticks": 16652,
          "time": 193.62790697674419,
          "velocity": 0.4330708661417323
        },
        {
          "duration": 0.34883720930233153,
          "durationTicks": 30,
          "midi": 74,
          "name": "D5",
          "ticks": 16652,
          "time": 193.62790697674419,
          "velocity": 0.48031496062992124
        },
        {
          "duration": 0.1046511627907023,
          "durationTicks": 9,
          "midi": 78,
          "name": "F#5",
          "ticks": 16652,
          "time": 193.62790697674419,
          "velocity": 0.15748031496062992
        },
        {
          "duration": 0.22093023255814614,
          "durationTicks": 19,
          "midi": 50,
          "name": "D3",
          "ticks": 16653,
          "time": 193.63953488372093,
          "velocity": 0.48031496062992124
        },
        {
          "duration": 0.05813953488373613,
          "durationTicks": 5,
          "midi": 85,
          "name": "C#6",
          "ticks": 16653,
          "time": 193.63953488372093,
          "velocity": 0.07874015748031496
        },
        {
          "duration": 0.25581395348837077,
          "durationTicks": 22,
          "midi": 90,
          "name": "F#6",
          "ticks": 16653,
          "time": 193.63953488372093,
          "velocity": 0.2440944881889764
        },
        {
          "duration": 0.06976744186047767,
          "durationTicks": 6,
          "midi": 97,
          "name": "C#7",
          "ticks": 16653,
          "time": 193.63953488372093,
          "velocity": 0.13385826771653545
        },
        {
          "duration": 0.2093023255814046,
          "durationTicks": 18,
          "midi": 57,
          "name": "A3",
          "ticks": 16654,
          "time": 193.65116279069767,
          "velocity": 0.31496062992125984
        },
        {
          "duration": 0.22093023255814614,
          "durationTicks": 19,
          "midi": 62,
          "name": "D4",
          "ticks": 16654,
          "time": 193.65116279069767,
          "velocity": 0.5354330708661418
        },
        {
          "duration": 0.19767441860466306,
          "durationTicks": 17,
          "midi": 66,
          "name": "F#4",
          "ticks": 16655,
          "time": 193.6627906976744,
          "velocity": 0.23622047244094488
        },
        {
          "duration": 0.13953488372092693,
          "durationTicks": 12,
          "midi": 80,
          "name": "G#5",
          "ticks": 16655,
          "time": 193.6627906976744,
          "velocity": 0.11023622047244094
        },
        {
          "duration": 0.12790697674418539,
          "durationTicks": 11,
          "midi": 88,
          "name": "E6",
          "ticks": 16655,
          "time": 193.6627906976744,
          "velocity": 0.07874015748031496
        },
        {
          "duration": 0.023255813953511506,
          "durationTicks": 2,
          "midi": 39,
          "name": "D#2",
          "ticks": 16656,
          "time": 193.67441860465115,
          "velocity": 0.4330708661417323
        },
        {
          "duration": 0.1046511627907023,
          "durationTicks": 9,
          "midi": 76,
          "name": "E5",
          "ticks": 16657,
          "time": 193.6860465116279,
          "velocity": 0.07086614173228346
        },
        {
          "duration": 0.09302325581393234,
          "durationTicks": 8,
          "midi": 38,
          "name": "D2",
          "ticks": 16658,
          "time": 193.69767441860466,
          "velocity": 0.4015748031496063
        },
        {
          "duration": 0.05813953488373613,
          "durationTicks": 5,
          "midi": 38,
          "name": "D2",
          "ticks": 16667,
          "time": 193.80232558139534,
          "velocity": 0.2992125984251969
        },
        {
          "duration": 0.12790697674418539,
          "durationTicks": 11,
          "midi": 77,
          "name": "F5",
          "ticks": 16672,
          "time": 193.86046511627907,
          "velocity": 0.47244094488188976
        },
        {
          "duration": 0.034883720930224626,
          "durationTicks": 3,
          "midi": 97,
          "name": "C#7",
          "ticks": 16672,
          "time": 193.86046511627907,
          "velocity": 0.13385826771653545
        },
        {
          "duration": 0.11627906976744384,
          "durationTicks": 10,
          "midi": 53,
          "name": "F3",
          "ticks": 16673,
          "time": 193.87209302325581,
          "velocity": 0.5511811023622047
        },
        {
          "duration": 0.15116279069766847,
          "durationTicks": 13,
          "midi": 87,
          "name": "D#6",
          "ticks": 16673,
          "time": 193.87209302325581,
          "velocity": 0.1732283464566929
        },
        {
          "duration": 0.034883720930224626,
          "durationTicks": 3,
          "midi": 91,
          "name": "G6",
          "ticks": 16673,
          "time": 193.87209302325581,
          "velocity": 0.15748031496062992
        },
        {
          "duration": 0.05813953488370771,
          "durationTicks": 5,
          "midi": 100,
          "name": "E7",
          "ticks": 16673,
          "time": 193.87209302325581,
          "velocity": 0.14173228346456693
        },
        {
          "duration": 0.06976744186047767,
          "durationTicks": 6,
          "midi": 95,
          "name": "B6",
          "ticks": 16674,
          "time": 193.88372093023256,
          "velocity": 0.08661417322834646
        },
        {
          "duration": 0.023255813953483084,
          "durationTicks": 2,
          "midi": 62,
          "name": "D4",
          "ticks": 16675,
          "time": 193.8953488372093,
          "velocity": 0.3228346456692913
        },
        {
          "duration": 0.19767441860466306,
          "durationTicks": 17,
          "midi": 80,
          "name": "G#5",
          "ticks": 16675,
          "time": 193.8953488372093,
          "velocity": 0.2755905511811024
        },
        {
          "duration": 0.023255813953483084,
          "durationTicks": 2,
          "midi": 39,
          "name": "D#2",
          "ticks": 16676,
          "time": 193.90697674418604,
          "velocity": 0.47244094488188976
        },
        {
          "duration": 0.08139534883721922,
          "durationTicks": 7,
          "midi": 69,
          "name": "A4",
          "ticks": 16676,
          "time": 193.90697674418604,
          "velocity": 0.2204724409448819
        },
        {
          "duration": 0.03488372093025305,
          "durationTicks": 3,
          "midi": 90,
          "name": "F#6",
          "ticks": 16677,
          "time": 193.91860465116278,
          "velocity": 0.10236220472440945
        },
        {
          "duration": 0.03488372093025305,
          "durationTicks": 3,
          "midi": 97,
          "name": "C#7",
          "ticks": 16677,
          "time": 193.91860465116278,
          "velocity": 0.07874015748031496
        },
        {
          "duration": 0.04651162790699459,
          "durationTicks": 4,
          "midi": 38,
          "name": "D2",
          "ticks": 16678,
          "time": 193.93023255813952,
          "velocity": 0.4330708661417323
        },
        {
          "duration": 0.08139534883721922,
          "durationTicks": 7,
          "midi": 91,
          "name": "G6",
          "ticks": 16678,
          "time": 193.93023255813952,
          "velocity": 0.14960629921259844
        },
        {
          "duration": 0.023255813953483084,
          "durationTicks": 2,
          "midi": 62,
          "name": "D4",
          "ticks": 16679,
          "time": 193.9418604651163,
          "velocity": 0.25984251968503935
        },
        {
          "duration": 0.04651162790696617,
          "durationTicks": 4,
          "midi": 97,
          "name": "C#7",
          "ticks": 16682,
          "time": 193.97674418604652,
          "velocity": 0.13385826771653545
        },
        {
          "duration": 0.023255813953483084,
          "durationTicks": 2,
          "midi": 40,
          "name": "E2",
          "ticks": 16683,
          "time": 193.98837209302326,
          "velocity": 0.4330708661417323
        },
        {
          "duration": 0.04651162790696617,
          "durationTicks": 4,
          "midi": 51,
          "name": "D#3",
          "ticks": 16683,
          "time": 193.98837209302326,
          "velocity": 0.5669291338582677
        },
        {
          "duration": 0.17441860465115155,
          "durationTicks": 15,
          "midi": 71,
          "name": "B4",
          "ticks": 16683,
          "time": 193.98837209302326,
          "velocity": 0.4566929133858268
        },
        {
          "duration": 0.33720930232559,
          "durationTicks": 29,
          "midi": 76,
          "name": "E5",
          "ticks": 16683,
          "time": 193.98837209302326,
          "velocity": 0.44881889763779526
        },
        {
          "duration": 0.12790697674418539,
          "durationTicks": 11,
          "midi": 100,
          "name": "E7",
          "ticks": 16683,
          "time": 193.98837209302326,
          "velocity": 0.11023622047244094
        },
        {
          "duration": 0.09302325581396076,
          "durationTicks": 8,
          "midi": 64,
          "name": "E4",
          "ticks": 16684,
          "time": 194,
          "velocity": 0.5433070866141733
        },
        {
          "duration": 0.1860465116278931,
          "durationTicks": 16,
          "midi": 86,
          "name": "D6",
          "ticks": 16684,
          "time": 194,
          "velocity": 0.2047244094488189
        },
        {
          "duration": 0.034883720930224626,
          "durationTicks": 3,
          "midi": 74,
          "name": "D5",
          "ticks": 16685,
          "time": 194.01162790697674,
          "velocity": 0.07874015748031496
        },
        {
          "duration": 0.3604651162790731,
          "durationTicks": 31,
          "midi": 90,
          "name": "F#6",
          "ticks": 16687,
          "time": 194.03488372093022,
          "velocity": 0.2283464566929134
        },
        {
          "duration": 0.023255813953511506,
          "durationTicks": 2,
          "midi": 39,
          "name": "D#2",
          "ticks": 16689,
          "time": 194.0581395348837,
          "velocity": 0.3543307086614173
        },
        {
          "duration": 0.03488372093025305,
          "durationTicks": 3,
          "midi": 51,
          "name": "D#3",
          "ticks": 16689,
          "time": 194.0581395348837,
          "velocity": 0.5590551181102362
        },
        {
          "duration": 0.3488372093023031,
          "durationTicks": 30,
          "midi": 74,
          "name": "D5",
          "ticks": 16690,
          "time": 194.06976744186048,
          "velocity": 0.49606299212598426
        },
        {
          "duration": 0.25581395348837077,
          "durationTicks": 22,
          "midi": 81,
          "name": "A5",
          "ticks": 16691,
          "time": 194.08139534883722,
          "velocity": 0.2440944881889764
        },
        {
          "duration": 0.011627906976741542,
          "durationTicks": 1,
          "midi": 50,
          "name": "D3",
          "ticks": 16692,
          "time": 194.09302325581396,
          "velocity": 0.5354330708661418
        },
        {
          "duration": 0.24418604651162923,
          "durationTicks": 21,
          "midi": 69,
          "name": "A4",
          "ticks": 16692,
          "time": 194.09302325581396,
          "velocity": 0.4330708661417323
        },
        {
          "duration": 0.25581395348837077,
          "durationTicks": 22,
          "midi": 85,
          "name": "C#6",
          "ticks": 16692,
          "time": 194.09302325581396,
          "velocity": 0.25196850393700787
        },
        {
          "duration": 0.06976744186044925,
          "durationTicks": 6,
          "midi": 96,
          "name": "C7",
          "ticks": 16692,
          "time": 194.09302325581396,
          "velocity": 0.1732283464566929
        },
        {
          "duration": 0.011627906976741542,
          "durationTicks": 1,
          "midi": 48,
          "name": "C3",
          "ticks": 16693,
          "time": 194.1046511627907,
          "velocity": 0.5748031496062992
        },
        {
          "duration": 0.04651162790696617,
          "durationTicks": 4,
          "midi": 78,
          "name": "F#5",
          "ticks": 16693,
          "time": 194.1046511627907,
          "velocity": 0.1889763779527559
        },
        {
          "duration": 0.011627906976741542,
          "durationTicks": 1,
          "midi": 50,
          "name": "D3",
          "ticks": 16694,
          "time": 194.11627906976744,
          "velocity": 0.5669291338582677
        },
        {
          "duration": 0.034883720930224626,
          "durationTicks": 3,
          "midi": 51,
          "name": "D#3",
          "ticks": 16695,
          "time": 194.12790697674419,
          "velocity": 0.5826771653543307
        },
        {
          "duration": 0.05813953488370771,
          "durationTicks": 5,
          "midi": 84,
          "name": "C6",
          "ticks": 16695,
          "time": 194.12790697674419,
          "velocity": 0.1889763779527559
        },
        {
          "duration": 0.09302325581396076,
          "durationTicks": 8,
          "midi": 79,
          "name": "G5",
          "ticks": 16696,
          "time": 194.13953488372093,
          "velocity": 0.13385826771653545
        },
        {
          "duration": 0.05813953488373613,
          "durationTicks": 5,
          "midi": 78,
          "name": "F#5",
          "ticks": 16698,
          "time": 194.1627906976744,
          "velocity": 0.12598425196850394
        },
        {
          "duration": 0.04651162790699459,
          "durationTicks": 4,
          "midi": 50,
          "name": "D3",
          "ticks": 16699,
          "time": 194.17441860465115,
          "velocity": 0.5196850393700787
        },
        {
          "duration": 0.03488372093025305,
          "durationTicks": 3,
          "midi": 83,
          "name": "B5",
          "ticks": 16699,
          "time": 194.17441860465115,
          "velocity": 0.1732283464566929
        },
        {
          "duration": 0.3720930232558146,
          "durationTicks": 32,
          "midi": 67,
          "name": "G4",
          "ticks": 16700,
          "time": 194.1860465116279,
          "velocity": 0.44881889763779526
        },
        {
          "duration": 0.09302325581393234,
          "durationTicks": 8,
          "midi": 84,
          "name": "C6",
          "ticks": 16701,
          "time": 194.19767441860466,
          "velocity": 0.11811023622047244
        },
        {
          "duration": 0.034883720930224626,
          "durationTicks": 3,
          "midi": 50,
          "name": "D3",
          "ticks": 16704,
          "time": 194.2325581395349,
          "velocity": 0.4566929133858268
        },
        {
          "duration": 0.023255813953483084,
          "durationTicks": 2,
          "midi": 45,
          "name": "A2",
          "ticks": 16705,
          "time": 194.24418604651163,
          "velocity": 0.3700787401574803
        },
        {
          "duration": 0.04651162790696617,
          "durationTicks": 4,
          "midi": 78,
          "name": "F#5",
          "ticks": 16705,
          "time": 194.24418604651163,
          "velocity": 0.09448818897637795
        },
        {
          "duration": 0.04651162790699459,
          "durationTicks": 4,
          "midi": 50,
          "name": "D3",
          "ticks": 16709,
          "time": 194.2906976744186,
          "velocity": 0.44881889763779526
        },
        {
          "duration": 0.023255813953511506,
          "durationTicks": 2,
          "midi": 61,
          "name": "C#4",
          "ticks": 16710,
          "time": 194.30232558139534,
          "velocity": 0.2440944881889764
        },
        {
          "duration": 0.22093023255811772,
          "durationTicks": 19,
          "midi": 60,
          "name": "C4",
          "ticks": 16712,
          "time": 194.32558139534885,
          "velocity": 0.5511811023622047
        },
        {
          "duration": 0.04651162790696617,
          "durationTicks": 4,
          "midi": 83,
          "name": "B5",
          "ticks": 16712,
          "time": 194.32558139534885,
          "velocity": 0.09448818897637795
        },
        {
          "duration": 0.25581395348837077,
          "durationTicks": 22,
          "midi": 88,
          "name": "E6",
          "ticks": 16712,
          "time": 194.32558139534885,
          "velocity": 0.23622047244094488
        },
        {
          "duration": 0.011627906976741542,
          "durationTicks": 1,
          "midi": 49,
          "name": "C#3",
          "ticks": 16713,
          "time": 194.3372093023256,
          "velocity": 0.5118110236220472
        },
        {
          "duration": 0.05813953488370771,
          "durationTicks": 5,
          "midi": 78,
          "name": "F#5",
          "ticks": 16713,
          "time": 194.3372093023256,
          "velocity": 0.13385826771653545
        },
        {
          "duration": 0.05813953488370771,
          "durationTicks": 5,
          "midi": 94,
          "name": "A#6",
          "ticks": 16713,
          "time": 194.3372093023256,
          "velocity": 0.11811023622047244
        },
        {
          "duration": 0.0813953488371908,
          "durationTicks": 7,
          "midi": 95,
          "name": "B6",
          "ticks": 16713,
          "time": 194.3372093023256,
          "velocity": 0.1732283464566929
        },
        {
          "duration": 0.023255813953483084,
          "durationTicks": 2,
          "midi": 63,
          "name": "D#4",
          "ticks": 16714,
          "time": 194.34883720930233,
          "velocity": 0.2677165354330709
        },
        {
          "duration": 0.023255813953483084,
          "durationTicks": 2,
          "midi": 70,
          "name": "A#4",
          "ticks": 16714,
          "time": 194.34883720930233,
          "velocity": 0.25984251968503935
        },
        {
          "duration": 0.04651162790696617,
          "durationTicks": 4,
          "midi": 37,
          "name": "C#2",
          "ticks": 16715,
          "time": 194.36046511627907,
          "velocity": 0.47244094488188976
        },
        {
          "duration": 0.023255813953483084,
          "durationTicks": 2,
          "midi": 47,
          "name": "B2",
          "ticks": 16715,
          "time": 194.36046511627907,
          "velocity": 0.3858267716535433
        },
        {
          "duration": 0.19767441860463464,
          "durationTicks": 17,
          "midi": 55,
          "name": "G3",
          "ticks": 16715,
          "time": 194.36046511627907,
          "velocity": 0.36220472440944884
        },
        {
          "duration": 0.17441860465115155,
          "durationTicks": 15,
          "midi": 64,
          "name": "E4",
          "ticks": 16716,
          "time": 194.37209302325581,
          "velocity": 0.2440944881889764
        },
        {
          "duration": 0.08139534883721922,
          "durationTicks": 7,
          "midi": 48,
          "name": "C3",
          "ticks": 16718,
          "time": 194.3953488372093,
          "velocity": 0.41732283464566927
        },
        {
          "duration": 0.15116279069766847,
          "durationTicks": 13,
          "midi": 82,
          "name": "A#5",
          "ticks": 16718,
          "time": 194.3953488372093,
          "velocity": 0.13385826771653545
        },
        {
          "duration": 0.09302325581396076,
          "durationTicks": 8,
          "midi": 36,
          "name": "C2",
          "ticks": 16719,
          "time": 194.40697674418604,
          "velocity": 0.4094488188976378
        },
        {
          "duration": 0.04651162790699459,
          "durationTicks": 4,
          "midi": 78,
          "name": "F#5",
          "ticks": 16720,
          "time": 194.41860465116278,
          "velocity": 0.09448818897637795
        },
        {
          "duration": 0.034883720930224626,
          "durationTicks": 3,
          "midi": 70,
          "name": "A#4",
          "ticks": 16724,
          "time": 194.46511627906978,
          "velocity": 0.10236220472440945
        },
        {
          "duration": 0.023255813953483084,
          "durationTicks": 2,
          "midi": 35,
          "name": "B1",
          "ticks": 16727,
          "time": 194.5,
          "velocity": 0.2677165354330709
        },
        {
          "duration": 0.034883720930224626,
          "durationTicks": 3,
          "midi": 49,
          "name": "C#3",
          "ticks": 16729,
          "time": 194.52325581395348,
          "velocity": 0.4094488188976378
        },
        {
          "duration": 0.6511627906976685,
          "durationTicks": 56,
          "midi": 74,
          "name": "D5",
          "ticks": 16730,
          "time": 194.53488372093022,
          "velocity": 0.48031496062992124
        },
        {
          "duration": 0.5465116279069946,
          "durationTicks": 47,
          "midi": 81,
          "name": "A5",
          "ticks": 16731,
          "time": 194.54651162790697,
          "velocity": 0.29133858267716534
        },
        {
          "duration": 0.2790697674418823,
          "durationTicks": 24,
          "midi": 90,
          "name": "F#6",
          "ticks": 16731,
          "time": 194.54651162790697,
          "velocity": 0.2440944881889764
        },
        {
          "duration": 0.22093023255814614,
          "durationTicks": 19,
          "midi": 50,
          "name": "D3",
          "ticks": 16732,
          "time": 194.5581395348837,
          "velocity": 0.48031496062992124
        },
        {
          "duration": 0.023255813953511506,
          "durationTicks": 2,
          "midi": 61,
          "name": "C#4",
          "ticks": 16732,
          "time": 194.5581395348837,
          "velocity": 0.5433070866141733
        },
        {
          "duration": 0.3604651162790731,
          "durationTicks": 31,
          "midi": 69,
          "name": "A4",
          "ticks": 16732,
          "time": 194.5581395348837,
          "velocity": 0.4330708661417323
        },
        {
          "duration": 0.06976744186047767,
          "durationTicks": 6,
          "midi": 97,
          "name": "C#7",
          "ticks": 16732,
          "time": 194.5581395348837,
          "velocity": 0.13385826771653545
        },
        {
          "duration": 0.09302325581393234,
          "durationTicks": 8,
          "midi": 72,
          "name": "C5",
          "ticks": 16733,
          "time": 194.56976744186048,
          "velocity": 0.2755905511811024
        },
        {
          "duration": 0.10465116279067388,
          "durationTicks": 9,
          "midi": 78,
          "name": "F#5",
          "ticks": 16733,
          "time": 194.56976744186048,
          "velocity": 0.15748031496062992
        },
        {
          "duration": 0.4534883720930054,
          "durationTicks": 39,
          "midi": 62,
          "name": "D4",
          "ticks": 16734,
          "time": 194.58139534883722,
          "velocity": 0.5354330708661418
        },
        {
          "duration": 0.44186046511626387,
          "durationTicks": 38,
          "midi": 66,
          "name": "F#4",
          "ticks": 16734,
          "time": 194.58139534883722,
          "velocity": 0.2677165354330709
        },
        {
          "duration": 0.05813953488370771,
          "durationTicks": 5,
          "midi": 76,
          "name": "E5",
          "ticks": 16734,
          "time": 194.58139534883722,
          "velocity": 0.11811023622047244
        },
        {
          "duration": 0.06976744186044925,
          "durationTicks": 6,
          "midi": 38,
          "name": "D2",
          "ticks": 16735,
          "time": 194.59302325581396,
          "velocity": 0.4645669291338583
        },
        {
          "duration": 0.6511627906976685,
          "durationTicks": 56,
          "midi": 57,
          "name": "A3",
          "ticks": 16735,
          "time": 194.59302325581396,
          "velocity": 0.3858267716535433
        },
        {
          "duration": 0.023255813953511506,
          "durationTicks": 2,
          "midi": 38,
          "name": "D2",
          "ticks": 16742,
          "time": 194.67441860465115,
          "velocity": 0.2755905511811024
        },
        {
          "duration": 0.06976744186047767,
          "durationTicks": 6,
          "midi": 72,
          "name": "C5",
          "ticks": 16743,
          "time": 194.6860465116279,
          "velocity": 0.14173228346456693
        },
        {
          "duration": 0.034883720930224626,
          "durationTicks": 3,
          "midi": 37,
          "name": "C#2",
          "ticks": 16744,
          "time": 194.69767441860466,
          "velocity": 0.29133858267716534
        },
        {
          "duration": 0.04651162790696617,
          "durationTicks": 4,
          "midi": 38,
          "name": "D2",
          "ticks": 16747,
          "time": 194.7325581395349,
          "velocity": 0.28346456692913385
        },
        {
          "duration": 0.023255813953483084,
          "durationTicks": 2,
          "midi": 48,
          "name": "C3",
          "ticks": 16751,
          "time": 194.77906976744185,
          "velocity": 0.41732283464566927
        },
        {
          "duration": 0.023255813953511506,
          "durationTicks": 2,
          "midi": 40,
          "name": "E2",
          "ticks": 16752,
          "time": 194.7906976744186,
          "velocity": 0.4409448818897638
        },
        {
          "duration": 0.2325581395348877,
          "durationTicks": 20,
          "midi": 72,
          "name": "C5",
          "ticks": 16752,
          "time": 194.7906976744186,
          "velocity": 0.15748031496062992
        },
        {
          "duration": 0.19767441860466306,
          "durationTicks": 17,
          "midi": 50,
          "name": "D3",
          "ticks": 16753,
          "time": 194.80232558139534,
          "velocity": 0.3858267716535433
        },
        {
          "duration": 0.023255813953483084,
          "durationTicks": 2,
          "midi": 39,
          "name": "D#2",
          "ticks": 16754,
          "time": 194.8139534883721,
          "velocity": 0.4566929133858268
        },
        {
          "duration": 0.15116279069766847,
          "durationTicks": 13,
          "midi": 80,
          "name": "G#5",
          "ticks": 16754,
          "time": 194.8139534883721,
          "velocity": 0.14173228346456693
        },
        {
          "duration": 0.1046511627907023,
          "durationTicks": 9,
          "midi": 38,
          "name": "D2",
          "ticks": 16756,
          "time": 194.8372093023256,
          "velocity": 0.4409448818897638
        },
        {
          "duration": 0.04651162790696617,
          "durationTicks": 4,
          "midi": 90,
          "name": "F#6",
          "ticks": 16756,
          "time": 194.8372093023256,
          "velocity": 0.16535433070866143
        },
        {
          "duration": 0.04651162790696617,
          "durationTicks": 4,
          "midi": 38,
          "name": "D2",
          "ticks": 16766,
          "time": 194.95348837209303,
          "velocity": 0.28346456692913385
        },
        {
          "duration": 0.17441860465115155,
          "durationTicks": 15,
          "midi": 76,
          "name": "E5",
          "ticks": 16770,
          "time": 195,
          "velocity": 0.12598425196850394
        },
        {
          "duration": 0.4302325581395223,
          "durationTicks": 37,
          "midi": 85,
          "name": "C#6",
          "ticks": 16770,
          "time": 195,
          "velocity": 0.28346456692913385
        },
        {
          "duration": 0.22093023255814614,
          "durationTicks": 19,
          "midi": 45,
          "name": "A2",
          "ticks": 16771,
          "time": 195.01162790697674,
          "velocity": 0.49606299212598426
        },
        {
          "duration": 0.6860465116279215,
          "durationTicks": 59,
          "midi": 79,
          "name": "G5",
          "ticks": 16771,
          "time": 195.01162790697674,
          "velocity": 0.2440944881889764
        },
        {
          "duration": 0.22093023255814614,
          "durationTicks": 19,
          "midi": 67,
          "name": "G4",
          "ticks": 16772,
          "time": 195.02325581395348,
          "velocity": 0.2204724409448819
        },
        {
          "duration": 0.09302325581396076,
          "durationTicks": 8,
          "midi": 83,
          "name": "B5",
          "ticks": 16772,
          "time": 195.02325581395348,
          "velocity": 0.11023622047244094
        },
        {
          "duration": 0.023255813953483084,
          "durationTicks": 2,
          "midi": 61,
          "name": "C#4",
          "ticks": 16773,
          "time": 195.03488372093022,
          "velocity": 0.33858267716535434
        },
        {
          "duration": 0.03488372093025305,
          "durationTicks": 3,
          "midi": 62,
          "name": "D4",
          "ticks": 16775,
          "time": 195.0581395348837,
          "velocity": 0.30708661417322836
        },
        {
          "duration": 0.023255813953483084,
          "durationTicks": 2,
          "midi": 51,
          "name": "D#3",
          "ticks": 16776,
          "time": 195.06976744186048,
          "velocity": 0.33070866141732286
        },
        {
          "duration": 0.12790697674418539,
          "durationTicks": 11,
          "midi": 62,
          "name": "D4",
          "ticks": 16779,
          "time": 195.1046511627907,
          "velocity": 0.29133858267716534
        },
        {
          "duration": 0.023255813953483084,
          "durationTicks": 2,
          "midi": 44,
          "name": "G#2",
          "ticks": 16790,
          "time": 195.2325581395349,
          "velocity": 0.5590551181102362
        },
        {
          "duration": 0.4651162790697754,
          "durationTicks": 40,
          "midi": 81,
          "name": "A5",
          "ticks": 16790,
          "time": 195.2325581395349,
          "velocity": 0.25196850393700787
        },
        {
          "duration": 0.16279069767441,
          "durationTicks": 14,
          "midi": 88,
          "name": "E6",
          "ticks": 16790,
          "time": 195.2325581395349,
          "velocity": 0.16535433070866143
        },
        {
          "duration": 0.1046511627907023,
          "durationTicks": 9,
          "midi": 91,
          "name": "G6",
          "ticks": 16790,
          "time": 195.2325581395349,
          "velocity": 0.2677165354330709
        },
        {
          "duration": 0.023255813953483084,
          "durationTicks": 2,
          "midi": 58,
          "name": "A#3",
          "ticks": 16791,
          "time": 195.24418604651163,
          "velocity": 0.33070866141732286
        },
        {
          "duration": 0.5116279069767415,
          "durationTicks": 44,
          "midi": 76,
          "name": "E5",
          "ticks": 16791,
          "time": 195.24418604651163,
          "velocity": 0.29133858267716534
        },
        {
          "duration": 0.16279069767441,
          "durationTicks": 14,
          "midi": 83,
          "name": "B5",
          "ticks": 16791,
          "time": 195.24418604651163,
          "velocity": 0.14960629921259844
        },
        {
          "duration": 0.11627906976744384,
          "durationTicks": 10,
          "midi": 92,
          "name": "G#6",
          "ticks": 16791,
          "time": 195.24418604651163,
          "velocity": 0.08661417322834646
        },
        {
          "duration": 0.11627906976744384,
          "durationTicks": 10,
          "midi": 95,
          "name": "B6",
          "ticks": 16791,
          "time": 195.24418604651163,
          "velocity": 0.2283464566929134
        },
        {
          "duration": 0.023255813953483084,
          "durationTicks": 2,
          "midi": 47,
          "name": "B2",
          "ticks": 16792,
          "time": 195.25581395348837,
          "velocity": 0.5275590551181102
        },
        {
          "duration": 0.05813953488373613,
          "durationTicks": 5,
          "midi": 64,
          "name": "E4",
          "ticks": 16792,
          "time": 195.25581395348837,
          "velocity": 0.2992125984251969
        },
        {
          "duration": 0.2093023255814046,
          "durationTicks": 18,
          "midi": 69,
          "name": "A4",
          "ticks": 16792,
          "time": 195.25581395348837,
          "velocity": 0.4330708661417323
        },
        {
          "duration": 0.22093023255814614,
          "durationTicks": 19,
          "midi": 87,
          "name": "D#6",
          "ticks": 16792,
          "time": 195.25581395348837,
          "velocity": 0.2125984251968504
        },
        {
          "duration": 0.11627906976744384,
          "durationTicks": 10,
          "midi": 73,
          "name": "C#5",
          "ticks": 16794,
          "time": 195.27906976744185,
          "velocity": 0.13385826771653545
        },
        {
          "duration": 0.2093023255814046,
          "durationTicks": 18,
          "midi": 55,
          "name": "G3",
          "ticks": 16795,
          "time": 195.2906976744186,
          "velocity": 0.47244094488188976
        },
        {
          "duration": 0.17441860465117998,
          "durationTicks": 15,
          "midi": 60,
          "name": "C4",
          "ticks": 16795,
          "time": 195.2906976744186,
          "velocity": 0.2440944881889764
        },
        {
          "duration": 0.06976744186044925,
          "durationTicks": 6,
          "midi": 36,
          "name": "C2",
          "ticks": 16798,
          "time": 195.32558139534885,
          "velocity": 0.3937007874015748
        },
        {
          "duration": 0.12790697674418539,
          "durationTicks": 11,
          "midi": 64,
          "name": "E4",
          "ticks": 16800,
          "time": 195.34883720930233,
          "velocity": 0.25984251968503935
        },
        {
          "duration": 0.023255813953483084,
          "durationTicks": 2,
          "midi": 46,
          "name": "A#2",
          "ticks": 16804,
          "time": 195.3953488372093,
          "velocity": 0.41732283464566927
        },
        {
          "duration": 0.05813953488373613,
          "durationTicks": 5,
          "midi": 95,
          "name": "B6",
          "ticks": 16805,
          "time": 195.40697674418604,
          "velocity": 0.10236220472440945
        },
        {
          "duration": 0.023255813953511506,
          "durationTicks": 2,
          "midi": 49,
          "name": "C#3",
          "ticks": 16806,
          "time": 195.41860465116278,
          "velocity": 0.3700787401574803
        },
        {
          "duration": 0.023255813953483084,
          "durationTicks": 2,
          "midi": 47,
          "name": "B2",
          "ticks": 16808,
          "time": 195.4418604651163,
          "velocity": 0.4015748031496063
        },
        {
          "duration": 0.023255813953483084,
          "durationTicks": 2,
          "midi": 70,
          "name": "A#4",
          "ticks": 16810,
          "time": 195.46511627906978,
          "velocity": 0.33070866141732286
        },
        {
          "duration": 0.17441860465115155,
          "durationTicks": 15,
          "midi": 85,
          "name": "C#6",
          "ticks": 16810,
          "time": 195.46511627906978,
          "velocity": 0.25196850393700787
        },
        {
          "duration": 0.011627906976741542,
          "durationTicks": 1,
          "midi": 42,
          "name": "F#2",
          "ticks": 16811,
          "time": 195.47674418604652,
          "velocity": 0.5118110236220472
        },
        {
          "duration": 0.023255813953483084,
          "durationTicks": 2,
          "midi": 61,
          "name": "C#4",
          "ticks": 16811,
          "time": 195.47674418604652,
          "velocity": 0.33070866141732286
        },
        {
          "duration": 0.023255813953483084,
          "durationTicks": 2,
          "midi": 86,
          "name": "D6",
          "ticks": 16811,
          "time": 195.47674418604652,
          "velocity": 0.29133858267716534
        },
        {
          "duration": 0.011627906976741542,
          "durationTicks": 1,
          "midi": 41,
          "name": "F2",
          "ticks": 16812,
          "time": 195.48837209302326,
          "velocity": 0.5196850393700787
        },
        {
          "duration": 0.06976744186044925,
          "durationTicks": 6,
          "midi": 50,
          "name": "D3",
          "ticks": 16812,
          "time": 195.48837209302326,
          "velocity": 0.48031496062992124
        },
        {
          "duration": 0.12790697674418539,
          "durationTicks": 11,
          "midi": 69,
          "name": "A4",
          "ticks": 16812,
          "time": 195.48837209302326,
          "velocity": 0.3779527559055118
        },
        {
          "duration": 0.034883720930224626,
          "durationTicks": 3,
          "midi": 90,
          "name": "F#6",
          "ticks": 16812,
          "time": 195.48837209302326,
          "velocity": 0.07086614173228346
        },
        {
          "duration": 0.05813953488370771,
          "durationTicks": 5,
          "midi": 96,
          "name": "C7",
          "ticks": 16812,
          "time": 195.48837209302326,
          "velocity": 0.07874015748031496
        },
        {
          "duration": 0.08139534883721922,
          "durationTicks": 7,
          "midi": 66,
          "name": "F#4",
          "ticks": 16813,
          "time": 195.5,
          "velocity": 0.2283464566929134
        },
        {
          "duration": 0.034883720930224626,
          "durationTicks": 3,
          "midi": 84,
          "name": "C6",
          "ticks": 16813,
          "time": 195.5,
          "velocity": 0.08661417322834646
        },
        {
          "duration": 0.24418604651162923,
          "durationTicks": 21,
          "midi": 87,
          "name": "D#6",
          "ticks": 16813,
          "time": 195.5,
          "velocity": 0.1968503937007874
        },
        {
          "duration": 0.09302325581396076,
          "durationTicks": 8,
          "midi": 95,
          "name": "B6",
          "ticks": 16813,
          "time": 195.5,
          "velocity": 0.1968503937007874
        },
        {
          "duration": 0.023255813953483084,
          "durationTicks": 2,
          "midi": 39,
          "name": "D#2",
          "ticks": 16814,
          "time": 195.51162790697674,
          "velocity": 0.4566929133858268
        },
        {
          "duration": 0.04651162790696617,
          "durationTicks": 4,
          "midi": 73,
          "name": "C#5",
          "ticks": 16814,
          "time": 195.51162790697674,
          "velocity": 0.10236220472440945
        },
        {
          "duration": 0.40697674418603924,
          "durationTicks": 35,
          "midi": 57,
          "name": "A3",
          "ticks": 16815,
          "time": 195.52325581395348,
          "velocity": 0.3779527559055118
        },
        {
          "duration": 0.023255813953511506,
          "durationTicks": 2,
          "midi": 39,
          "name": "D#2",
          "ticks": 16818,
          "time": 195.5581395348837,
          "velocity": 0.4015748031496063
        },
        {
          "duration": 0.12790697674418539,
          "durationTicks": 11,
          "midi": 72,
          "name": "C5",
          "ticks": 16818,
          "time": 195.5581395348837,
          "velocity": 0.09448818897637795
        },
        {
          "duration": 0.023255813953483084,
          "durationTicks": 2,
          "midi": 38,
          "name": "D2",
          "ticks": 16820,
          "time": 195.58139534883722,
          "velocity": 0.3464566929133858
        },
        {
          "duration": 0.06976744186044925,
          "durationTicks": 6,
          "midi": 66,
          "name": "F#4",
          "ticks": 16821,
          "time": 195.59302325581396,
          "velocity": 0.18110236220472442
        },
        {
          "duration": 0.023255813953483084,
          "durationTicks": 2,
          "midi": 50,
          "name": "D3",
          "ticks": 16823,
          "time": 195.61627906976744,
          "velocity": 0.36220472440944884
        },
        {
          "duration": 0.04651162790699459,
          "durationTicks": 4,
          "midi": 95,
          "name": "B6",
          "ticks": 16826,
          "time": 195.65116279069767,
          "velocity": 0.09448818897637795
        },
        {
          "duration": 0.12790697674418539,
          "durationTicks": 11,
          "midi": 50,
          "name": "D3",
          "ticks": 16828,
          "time": 195.67441860465115,
          "velocity": 0.49606299212598426
        },
        {
          "duration": 0.2790697674418823,
          "durationTicks": 24,
          "midi": 66,
          "name": "F#4",
          "ticks": 16828,
          "time": 195.67441860465115,
          "velocity": 0.2755905511811024
        },
        {
          "duration": 0.16279069767441,
          "durationTicks": 14,
          "midi": 93,
          "name": "A6",
          "ticks": 16830,
          "time": 195.69767441860466,
          "velocity": 0.14960629921259844
        },
        {
          "duration": 0.0813953488371908,
          "durationTicks": 7,
          "midi": 90,
          "name": "F#6",
          "ticks": 16831,
          "time": 195.7093023255814,
          "velocity": 0.09448818897637795
        },
        {
          "duration": 0.023255813953483084,
          "durationTicks": 2,
          "midi": 39,
          "name": "D#2",
          "ticks": 16832,
          "time": 195.72093023255815,
          "velocity": 0.49606299212598426
        },
        {
          "duration": 0.2325581395348877,
          "durationTicks": 20,
          "midi": 72,
          "name": "C5",
          "ticks": 16832,
          "time": 195.72093023255815,
          "velocity": 0.18110236220472442
        },
        {
          "duration": 0.06976744186044925,
          "durationTicks": 6,
          "midi": 80,
          "name": "G#5",
          "ticks": 16833,
          "time": 195.7325581395349,
          "velocity": 0.13385826771653545
        },
        {
          "duration": 0.06976744186044925,
          "durationTicks": 6,
          "midi": 50,
          "name": "D3",
          "ticks": 16840,
          "time": 195.8139534883721,
          "velocity": 0.3779527559055118
        },
        {
          "duration": 0.023255813953483084,
          "durationTicks": 2,
          "midi": 38,
          "name": "D2",
          "ticks": 16841,
          "time": 195.82558139534885,
          "velocity": 0.3228346456692913
        },
        {
          "duration": 0.04651162790696617,
          "durationTicks": 4,
          "midi": 80,
          "name": "G#5",
          "ticks": 16843,
          "time": 195.84883720930233,
          "velocity": 0.07086614173228346
        },
        {
          "duration": 0.023255813953483084,
          "durationTicks": 2,
          "midi": 38,
          "name": "D2",
          "ticks": 16848,
          "time": 195.90697674418604,
          "velocity": 0.29133858267716534
        },
        {
          "duration": 0.1511627906976969,
          "durationTicks": 13,
          "midi": 79,
          "name": "G5",
          "ticks": 16850,
          "time": 195.93023255813952,
          "velocity": 0.2125984251968504
        },
        {
          "duration": 0.20930232558137618,
          "durationTicks": 18,
          "midi": 45,
          "name": "A2",
          "ticks": 16851,
          "time": 195.9418604651163,
          "velocity": 0.5433070866141733
        },
        {
          "duration": 0.23255813953485927,
          "durationTicks": 20,
          "midi": 85,
          "name": "C#6",
          "ticks": 16851,
          "time": 195.9418604651163,
          "velocity": 0.23622047244094488
        },
        {
          "duration": 0.20930232558137618,
          "durationTicks": 18,
          "midi": 67,
          "name": "G4",
          "ticks": 16852,
          "time": 195.95348837209303,
          "velocity": 0.2283464566929134
        },
        {
          "duration": 0.20930232558137618,
          "durationTicks": 18,
          "midi": 73,
          "name": "C#5",
          "ticks": 16852,
          "time": 195.95348837209303,
          "velocity": 0.2047244094488189
        },
        {
          "duration": 0.023255813953483084,
          "durationTicks": 2,
          "midi": 74,
          "name": "D5",
          "ticks": 16852,
          "time": 195.95348837209303,
          "velocity": 0.2283464566929134
        },
        {
          "duration": 0.034883720930224626,
          "durationTicks": 3,
          "midi": 52,
          "name": "E3",
          "ticks": 16854,
          "time": 195.97674418604652,
          "velocity": 0.2755905511811024
        },
        {
          "duration": 0.17441860465115155,
          "durationTicks": 15,
          "midi": 61,
          "name": "C#4",
          "ticks": 16854,
          "time": 195.97674418604652,
          "velocity": 0.25196850393700787
        },
        {
          "duration": 0.16279069767441,
          "durationTicks": 14,
          "midi": 75,
          "name": "D#5",
          "ticks": 16854,
          "time": 195.97674418604652,
          "velocity": 0.2125984251968504
        },
        {
          "duration": 0.06976744186044925,
          "durationTicks": 6,
          "midi": 83,
          "name": "B5",
          "ticks": 16854,
          "time": 195.97674418604652,
          "velocity": 0.12598425196850394
        },
        {
          "duration": 0.13953488372092693,
          "durationTicks": 12,
          "midi": 64,
          "name": "E4",
          "ticks": 16857,
          "time": 196.01162790697674,
          "velocity": 0.11811023622047244
        },
        {
          "duration": 0.12790697674418539,
          "durationTicks": 11,
          "midi": 52,
          "name": "E3",
          "ticks": 16858,
          "time": 196.02325581395348,
          "velocity": 0.2755905511811024
        },
        {
          "duration": 0.22093023255814614,
          "durationTicks": 19,
          "midi": 83,
          "name": "B5",
          "ticks": 16867,
          "time": 196.12790697674419,
          "velocity": 0.2677165354330709
        },
        {
          "duration": 0.3139534883721069,
          "durationTicks": 27,
          "midi": 74,
          "name": "D5",
          "ticks": 16868,
          "time": 196.13953488372093,
          "velocity": 0.33858267716535434
        },
        {
          "duration": 0.023255813953483084,
          "durationTicks": 2,
          "midi": 44,
          "name": "G#2",
          "ticks": 16869,
          "time": 196.15116279069767,
          "velocity": 0.5748031496062992
        },
        {
          "duration": 0.22093023255814614,
          "durationTicks": 19,
          "midi": 79,
          "name": "G5",
          "ticks": 16869,
          "time": 196.15116279069767,
          "velocity": 0.25196850393700787
        },
        {
          "duration": 0.034883720930224626,
          "durationTicks": 3,
          "midi": 84,
          "name": "C6",
          "ticks": 16869,
          "time": 196.15116279069767,
          "velocity": 0.2440944881889764
        },
        {
          "duration": 0.15116279069766847,
          "durationTicks": 13,
          "midi": 89,
          "name": "F6",
          "ticks": 16869,
          "time": 196.15116279069767,
          "velocity": 0.2440944881889764
        },
        {
          "duration": 0.03488372093025305,
          "durationTicks": 3,
          "midi": 60,
          "name": "C4",
          "ticks": 16870,
          "time": 196.1627906976744,
          "velocity": 0.3464566929133858
        },
        {
          "duration": 0.023255813953483084,
          "durationTicks": 2,
          "midi": 68,
          "name": "G#4",
          "ticks": 16870,
          "time": 196.1627906976744,
          "velocity": 0.3700787401574803
        },
        {
          "duration": 0.09302325581396076,
          "durationTicks": 8,
          "midi": 81,
          "name": "A5",
          "ticks": 16870,
          "time": 196.1627906976744,
          "velocity": 0.14173228346456693
        },
        {
          "duration": 0.13953488372092693,
          "durationTicks": 12,
          "midi": 90,
          "name": "F#6",
          "ticks": 16870,
          "time": 196.1627906976744,
          "velocity": 0.11811023622047244
        },
        {
          "duration": 0.011627906976741542,
          "durationTicks": 1,
          "midi": 41,
          "name": "F2",
          "ticks": 16871,
          "time": 196.17441860465115,
          "velocity": 0.5118110236220472
        },
        {
          "duration": 0.19767441860466306,
          "durationTicks": 17,
          "midi": 77,
          "name": "F5",
          "ticks": 16871,
          "time": 196.17441860465115,
          "velocity": 0.2204724409448819
        },
        {
          "duration": 0.1279069767442138,
          "durationTicks": 11,
          "midi": 67,
          "name": "G4",
          "ticks": 16872,
          "time": 196.1860465116279,
          "velocity": 0.3228346456692913
        },
        {
          "duration": 0.3604651162790731,
          "durationTicks": 31,
          "midi": 85,
          "name": "C#6",
          "ticks": 16872,
          "time": 196.1860465116279,
          "velocity": 0.25984251968503935
        },
        {
          "duration": 0.11627906976744384,
          "durationTicks": 10,
          "midi": 93,
          "name": "A6",
          "ticks": 16872,
          "time": 196.1860465116279,
          "velocity": 0.2047244094488189
        },
        {
          "duration": 0.05813953488370771,
          "durationTicks": 5,
          "midi": 70,
          "name": "A#4",
          "ticks": 16873,
          "time": 196.19767441860466,
          "velocity": 0.11811023622047244
        },
        {
          "duration": 0.023255813953483084,
          "durationTicks": 2,
          "midi": 62,
          "name": "D4",
          "ticks": 16874,
          "time": 196.2093023255814,
          "velocity": 0.2677165354330709
        },
        {
          "duration": 0.023255813953483084,
          "durationTicks": 2,
          "midi": 45,
          "name": "A2",
          "ticks": 16875,
          "time": 196.22093023255815,
          "velocity": 0.5118110236220472
        },
        {
          "duration": 0.15116279069766847,
          "durationTicks": 13,
          "midi": 55,
          "name": "G3",
          "ticks": 16875,
          "time": 196.22093023255815,
          "velocity": 0.33858267716535434
        },
        {
          "duration": 0.023255813953483084,
          "durationTicks": 2,
          "midi": 60,
          "name": "C4",
          "ticks": 16876,
          "time": 196.2325581395349,
          "velocity": 0.2283464566929134
        },
        {
          "duration": 0.023255813953483084,
          "durationTicks": 2,
          "midi": 48,
          "name": "C3",
          "ticks": 16879,
          "time": 196.2674418604651,
          "velocity": 0.3858267716535433
        },
        {
          "duration": 0.12790697674418539,
          "durationTicks": 11,
          "midi": 70,
          "name": "A#4",
          "ticks": 16879,
          "time": 196.2674418604651,
          "velocity": 0.36220472440944884
        },
        {
          "duration": 0.09302325581396076,
          "durationTicks": 8,
          "midi": 64,
          "name": "E4",
          "ticks": 16881,
          "time": 196.2906976744186,
          "velocity": 0.2047244094488189
        },
        {
          "duration": 0.023255813953483084,
          "durationTicks": 2,
          "midi": 44,
          "name": "G#2",
          "ticks": 16883,
          "time": 196.3139534883721,
          "velocity": 0.4330708661417323
        },
        {
          "duration": 0.06976744186044925,
          "durationTicks": 6,
          "midi": 93,
          "name": "A6",
          "ticks": 16887,
          "time": 196.36046511627907,
          "velocity": 0.16535433070866143
        },
        {
          "duration": 0.023255813953483084,
          "durationTicks": 2,
          "midi": 56,
          "name": "G#3",
          "ticks": 16888,
          "time": 196.37209302325581,
          "velocity": 0.4094488188976378
        },
        {
          "duration": 0.48837209302325846,
          "durationTicks": 42,
          "midi": 76,
          "name": "E5",
          "ticks": 16888,
          "time": 196.37209302325581,
          "velocity": 0.31496062992125984
        },
        {
          "duration": 0.3953488372092977,
          "durationTicks": 34,
          "midi": 81,
          "name": "A5",
          "ticks": 16888,
          "time": 196.37209302325581,
          "velocity": 0.2755905511811024
        },
        {
          "duration": 0.3139534883720785,
          "durationTicks": 27,
          "midi": 91,
          "name": "G6",
          "ticks": 16888,
          "time": 196.37209302325581,
          "velocity": 0.25196850393700787
        },
        {
          "duration": 0.023255813953483084,
          "durationTicks": 2,
          "midi": 42,
          "name": "F#2",
          "ticks": 16889,
          "time": 196.38372093023256,
          "velocity": 0.5039370078740157
        },
        {
          "duration": 0.023255813953483084,
          "durationTicks": 2,
          "midi": 61,
          "name": "C#4",
          "ticks": 16889,
          "time": 196.38372093023256,
          "velocity": 0.30708661417322836
        },
        {
          "duration": 0.05813953488373613,
          "durationTicks": 5,
          "midi": 79,
          "name": "G5",
          "ticks": 16889,
          "time": 196.38372093023256,
          "velocity": 0.2677165354330709
        },
        {
          "duration": 0.04651162790696617,
          "durationTicks": 4,
          "midi": 92,
          "name": "G#6",
          "ticks": 16889,
          "time": 196.38372093023256,
          "velocity": 0.11811023622047244
        },
        {
          "duration": 0.05813953488373613,
          "durationTicks": 5,
          "midi": 64,
          "name": "E4",
          "ticks": 16890,
          "time": 196.3953488372093,
          "velocity": 0.25196850393700787
        },
        {
          "duration": 0.12790697674418539,
          "durationTicks": 11,
          "midi": 69,
          "name": "A4",
          "ticks": 16890,
          "time": 196.3953488372093,
          "velocity": 0.3937007874015748
        },
        {
          "duration": 0.12790697674418539,
          "durationTicks": 11,
          "midi": 83,
          "name": "B5",
          "ticks": 16890,
          "time": 196.3953488372093,
          "velocity": 0.11811023622047244
        },
        {
          "duration": 0.023255813953483084,
          "durationTicks": 2,
          "midi": 38,
          "name": "D2",
          "ticks": 16891,
          "time": 196.40697674418604,
          "velocity": 0.5118110236220472
        },
        {
          "duration": 0.22093023255814614,
          "durationTicks": 19,
          "midi": 87,
          "name": "D#6",
          "ticks": 16891,
          "time": 196.40697674418604,
          "velocity": 0.15748031496062992
        },
        {
          "duration": 0.09302325581396076,
          "durationTicks": 8,
          "midi": 95,
          "name": "B6",
          "ticks": 16891,
          "time": 196.40697674418604,
          "velocity": 0.2047244094488189
        },
        {
          "duration": 0.19767441860466306,
          "durationTicks": 17,
          "midi": 57,
          "name": "A3",
          "ticks": 16892,
          "time": 196.41860465116278,
          "velocity": 0.3543307086614173
        },
        {
          "duration": 0.023255813953483084,
          "durationTicks": 2,
          "midi": 45,
          "name": "A2",
          "ticks": 16894,
          "time": 196.4418604651163,
          "velocity": 0.3937007874015748
        },
        {
          "duration": 0.023255813953483084,
          "durationTicks": 2,
          "midi": 50,
          "name": "D3",
          "ticks": 16894,
          "time": 196.4418604651163,
          "velocity": 0.3858267716535433
        },
        {
          "duration": 0.034883720930224626,
          "durationTicks": 3,
          "midi": 73,
          "name": "C#5",
          "ticks": 16895,
          "time": 196.45348837209303,
          "velocity": 0.10236220472440945
        },
        {
          "duration": 0.17441860465115155,
          "durationTicks": 15,
          "midi": 79,
          "name": "G5",
          "ticks": 16895,
          "time": 196.45348837209303,
          "velocity": 0.13385826771653545
        },
        {
          "duration": 0.034883720930224626,
          "durationTicks": 3,
          "midi": 50,
          "name": "D3",
          "ticks": 16897,
          "time": 196.47674418604652,
          "velocity": 0.41732283464566927
        },
        {
          "duration": 0.12790697674418539,
          "durationTicks": 11,
          "midi": 72,
          "name": "C5",
          "ticks": 16897,
          "time": 196.47674418604652,
          "velocity": 0.09448818897637795
        },
        {
          "duration": 0.06976744186047767,
          "durationTicks": 6,
          "midi": 66,
          "name": "F#4",
          "ticks": 16899,
          "time": 196.5,
          "velocity": 0.1732283464566929
        },
        {
          "duration": 0.023255813953483084,
          "durationTicks": 2,
          "midi": 45,
          "name": "A2",
          "ticks": 16901,
          "time": 196.52325581395348,
          "velocity": 0.3464566929133858
        },
        {
          "duration": 0.023255813953483084,
          "durationTicks": 2,
          "midi": 50,
          "name": "D3",
          "ticks": 16901,
          "time": 196.52325581395348,
          "velocity": 0.3464566929133858
        },
        {
          "duration": 0.05813953488373613,
          "durationTicks": 5,
          "midi": 95,
          "name": "B6",
          "ticks": 16904,
          "time": 196.5581395348837,
          "velocity": 0.09448818897637795
        },
        {
          "duration": 0.023255813953483084,
          "durationTicks": 2,
          "midi": 51,
          "name": "D#3",
          "ticks": 16909,
          "time": 196.61627906976744,
          "velocity": 0.3858267716535433
        },
        {
          "duration": 0.24418604651162923,
          "durationTicks": 21,
          "midi": 69,
          "name": "A4",
          "ticks": 16909,
          "time": 196.61627906976744,
          "velocity": 0.2125984251968504
        },
        {
          "duration": 0.034883720930224626,
          "durationTicks": 3,
          "midi": 73,
          "name": "C#5",
          "ticks": 16909,
          "time": 196.61627906976744,
          "velocity": 0.13385826771653545
        },
        {
          "duration": 0.034883720930224626,
          "durationTicks": 3,
          "midi": 50,
          "name": "D3",
          "ticks": 16911,
          "time": 196.63953488372093,
          "velocity": 0.4251968503937008
        },
        {
          "duration": 0.22093023255814614,
          "durationTicks": 19,
          "midi": 57,
          "name": "A3",
          "ticks": 16911,
          "time": 196.63953488372093,
          "velocity": 0.2677165354330709
        },
        {
          "duration": 0.22093023255814614,
          "durationTicks": 19,
          "midi": 66,
          "name": "F#4",
          "ticks": 16911,
          "time": 196.63953488372093,
          "velocity": 0.1889763779527559
        },
        {
          "duration": 0.22093023255814614,
          "durationTicks": 19,
          "midi": 72,
          "name": "C5",
          "ticks": 16911,
          "time": 196.63953488372093,
          "velocity": 0.14173228346456693
        },
        {
          "duration": 0.05813953488373613,
          "durationTicks": 5,
          "midi": 80,
          "name": "G#5",
          "ticks": 16913,
          "time": 196.6627906976744,
          "velocity": 0.09448818897637795
        },
        {
          "duration": 0.04651162790699459,
          "durationTicks": 4,
          "midi": 38,
          "name": "D2",
          "ticks": 16915,
          "time": 196.6860465116279,
          "velocity": 0.4251968503937008
        },
        {
          "duration": 0.034883720930224626,
          "durationTicks": 3,
          "midi": 82,
          "name": "A#5",
          "ticks": 16918,
          "time": 196.72093023255815,
          "velocity": 0.07086614173228346
        },
        {
          "duration": 0.06976744186047767,
          "durationTicks": 6,
          "midi": 50,
          "name": "D3",
          "ticks": 16922,
          "time": 196.7674418604651,
          "velocity": 0.3543307086614173
        },
        {
          "duration": 0.08139534883721922,
          "durationTicks": 7,
          "midi": 91,
          "name": "G6",
          "ticks": 16925,
          "time": 196.80232558139534,
          "velocity": 0.10236220472440945
        },
        {
          "duration": 0.023255813953483084,
          "durationTicks": 2,
          "midi": 45,
          "name": "A2",
          "ticks": 16926,
          "time": 196.8139534883721,
          "velocity": 0.31496062992125984
        },
        {
          "duration": 0.034883720930224626,
          "durationTicks": 3,
          "midi": 42,
          "name": "F#2",
          "ticks": 16929,
          "time": 196.84883720930233,
          "velocity": 0.44881889763779526
        },
        {
          "duration": 0.12790697674418539,
          "durationTicks": 11,
          "midi": 74,
          "name": "D5",
          "ticks": 16929,
          "time": 196.84883720930233,
          "velocity": 0.33070866141732286
        },
        {
          "duration": 0.09302325581396076,
          "durationTicks": 8,
          "midi": 71,
          "name": "B4",
          "ticks": 16930,
          "time": 196.86046511627907,
          "velocity": 0.13385826771653545
        },
        {
          "duration": 0.1046511627907023,
          "durationTicks": 9,
          "midi": 77,
          "name": "F5",
          "ticks": 16930,
          "time": 196.86046511627907,
          "velocity": 0.1732283464566929
        },
        {
          "duration": 0.11627906976744384,
          "durationTicks": 10,
          "midi": 81,
          "name": "A5",
          "ticks": 16930,
          "time": 196.86046511627907,
          "velocity": 0.14960629921259844
        },
        {
          "duration": 0.1046511627907023,
          "durationTicks": 9,
          "midi": 83,
          "name": "B5",
          "ticks": 16930,
          "time": 196.86046511627907,
          "velocity": 0.2125984251968504
        },
        {
          "duration": 0.15116279069766847,
          "durationTicks": 13,
          "midi": 89,
          "name": "F6",
          "ticks": 16930,
          "time": 196.86046511627907,
          "velocity": 0.18110236220472442
        },
        {
          "duration": 0.09302325581396076,
          "durationTicks": 8,
          "midi": 90,
          "name": "F#6",
          "ticks": 16930,
          "time": 196.86046511627907,
          "velocity": 0.07086614173228346
        },
        {
          "duration": 0.1046511627907023,
          "durationTicks": 9,
          "midi": 62,
          "name": "D4",
          "ticks": 16931,
          "time": 196.87209302325581,
          "velocity": 0.28346456692913385
        },
        {
          "duration": 0.09302325581396076,
          "durationTicks": 8,
          "midi": 67,
          "name": "G4",
          "ticks": 16931,
          "time": 196.87209302325581,
          "velocity": 0.2283464566929134
        },
        {
          "duration": 0.12790697674418539,
          "durationTicks": 11,
          "midi": 85,
          "name": "C#6",
          "ticks": 16931,
          "time": 196.87209302325581,
          "velocity": 0.2204724409448819
        },
        {
          "duration": 0.08139534883721922,
          "durationTicks": 7,
          "midi": 55,
          "name": "G3",
          "ticks": 16932,
          "time": 196.88372093023256,
          "velocity": 0.44881889763779526
        },
        {
          "duration": 0.034883720930224626,
          "durationTicks": 3,
          "midi": 98,
          "name": "D7",
          "ticks": 16932,
          "time": 196.88372093023256,
          "velocity": 0.08661417322834646
        },
        {
          "duration": 0.023255813953483084,
          "durationTicks": 2,
          "midi": 43,
          "name": "G2",
          "ticks": 16933,
          "time": 196.8953488372093,
          "velocity": 0.3858267716535433
        },
        {
          "duration": 0.023255813953511506,
          "durationTicks": 2,
          "midi": 43,
          "name": "G2",
          "ticks": 16936,
          "time": 196.93023255813952,
          "velocity": 0.4015748031496063
        },
        {
          "duration": 0.11627906976744384,
          "durationTicks": 10,
          "midi": 66,
          "name": "F#4",
          "ticks": 16939,
          "time": 196.96511627906978,
          "velocity": 0.2204724409448819
        },
        {
          "duration": 0.16279069767441,
          "durationTicks": 14,
          "midi": 76,
          "name": "E5",
          "ticks": 16939,
          "time": 196.96511627906978,
          "velocity": 0.1889763779527559
        },
        {
          "duration": 0.16279069767441,
          "durationTicks": 14,
          "midi": 82,
          "name": "A#5",
          "ticks": 16939,
          "time": 196.96511627906978,
          "velocity": 0.2204724409448819
        },
        {
          "duration": 0.023255813953483084,
          "durationTicks": 2,
          "midi": 41,
          "name": "F2",
          "ticks": 16940,
          "time": 196.97674418604652,
          "velocity": 0.48031496062992124
        },
        {
          "duration": 0.09302325581396076,
          "durationTicks": 8,
          "midi": 61,
          "name": "C#4",
          "ticks": 16940,
          "time": 196.97674418604652,
          "velocity": 0.25984251968503935
        },
        {
          "duration": 0.1046511627907023,
          "durationTicks": 9,
          "midi": 70,
          "name": "A#4",
          "ticks": 16940,
          "time": 196.97674418604652,
          "velocity": 0.14173228346456693
        },
        {
          "duration": 0.15116279069766847,
          "durationTicks": 13,
          "midi": 73,
          "name": "C#5",
          "ticks": 16940,
          "time": 196.97674418604652,
          "velocity": 0.33070866141732286
        },
        {
          "duration": 0.11627906976744384,
          "durationTicks": 10,
          "midi": 80,
          "name": "G#5",
          "ticks": 16940,
          "time": 196.97674418604652,
          "velocity": 0.11811023622047244
        },
        {
          "duration": 0.13953488372092693,
          "durationTicks": 12,
          "midi": 92,
          "name": "G#6",
          "ticks": 16940,
          "time": 196.97674418604652,
          "velocity": 0.16535433070866143
        },
        {
          "duration": 0.09302325581396076,
          "durationTicks": 8,
          "midi": 54,
          "name": "F#3",
          "ticks": 16941,
          "time": 196.98837209302326,
          "velocity": 0.4566929133858268
        },
        {
          "duration": 0.2093023255814046,
          "durationTicks": 18,
          "midi": 84,
          "name": "C6",
          "ticks": 16941,
          "time": 196.98837209302326,
          "velocity": 0.16535433070866143
        },
        {
          "duration": 0.034883720930224626,
          "durationTicks": 3,
          "midi": 90,
          "name": "F#6",
          "ticks": 16941,
          "time": 196.98837209302326,
          "velocity": 0.07874015748031496
        },
        {
          "duration": 0.023255813953483084,
          "durationTicks": 2,
          "midi": 42,
          "name": "F#2",
          "ticks": 16942,
          "time": 197,
          "velocity": 0.25984251968503935
        },
        {
          "duration": 0.03488372093025305,
          "durationTicks": 3,
          "midi": 89,
          "name": "F6",
          "ticks": 16945,
          "time": 197.03488372093022,
          "velocity": 0.08661417322834646
        },
        {
          "duration": 0.023255813953511506,
          "durationTicks": 2,
          "midi": 42,
          "name": "F#2",
          "ticks": 16946,
          "time": 197.04651162790697,
          "velocity": 0.3779527559055118
        },
        {
          "duration": 0.04651162790696617,
          "durationTicks": 4,
          "midi": 41,
          "name": "F2",
          "ticks": 16948,
          "time": 197.06976744186048,
          "velocity": 0.48031496062992124
        },
        {
          "duration": 0.12790697674418539,
          "durationTicks": 11,
          "midi": 59,
          "name": "B3",
          "ticks": 16948,
          "time": 197.06976744186048,
          "velocity": 0.31496062992125984
        },
        {
          "duration": 0.11627906976741542,
          "durationTicks": 10,
          "midi": 64,
          "name": "E4",
          "ticks": 16948,
          "time": 197.06976744186048,
          "velocity": 0.25984251968503935
        },
        {
          "duration": 0.034883720930224626,
          "durationTicks": 3,
          "midi": 51,
          "name": "D#3",
          "ticks": 16949,
          "time": 197.08139534883722,
          "velocity": 0.4566929133858268
        },
        {
          "duration": 0.12790697674418539,
          "durationTicks": 11,
          "midi": 68,
          "name": "G#4",
          "ticks": 16949,
          "time": 197.08139534883722,
          "velocity": 0.25196850393700787
        },
        {
          "duration": 0.05813953488370771,
          "durationTicks": 5,
          "midi": 86,
          "name": "D6",
          "ticks": 16950,
          "time": 197.09302325581396,
          "velocity": 0.08661417322834646
        },
        {
          "duration": 0.06976744186044925,
          "durationTicks": 6,
          "midi": 95,
          "name": "B6",
          "ticks": 16951,
          "time": 197.1046511627907,
          "velocity": 0.10236220472440945
        },
        {
          "duration": 0.023255813953483084,
          "durationTicks": 2,
          "midi": 40,
          "name": "E2",
          "ticks": 16952,
          "time": 197.11627906976744,
          "velocity": 0.3858267716535433
        },
        {
          "duration": 0.08139534883721922,
          "durationTicks": 7,
          "midi": 52,
          "name": "E3",
          "ticks": 16952,
          "time": 197.11627906976744,
          "velocity": 0.4409448818897638
        },
        {
          "duration": 0.05813953488373613,
          "durationTicks": 5,
          "midi": 82,
          "name": "A#5",
          "ticks": 16954,
          "time": 197.13953488372093,
          "velocity": 0.15748031496062992
        },
        {
          "duration": 0.04651162790699459,
          "durationTicks": 4,
          "midi": 40,
          "name": "E2",
          "ticks": 16955,
          "time": 197.15116279069767,
          "velocity": 0.4409448818897638
        },
        {
          "duration": 0.06976744186047767,
          "durationTicks": 6,
          "midi": 73,
          "name": "C#5",
          "ticks": 16955,
          "time": 197.15116279069767,
          "velocity": 0.14173228346456693
        },
        {
          "duration": 0.33720930232556157,
          "durationTicks": 29,
          "midi": 62,
          "name": "D4",
          "ticks": 16959,
          "time": 197.19767441860466,
          "velocity": 0.5511811023622047
        },
        {
          "duration": 0.10465116279067388,
          "durationTicks": 9,
          "midi": 66,
          "name": "F#4",
          "ticks": 16959,
          "time": 197.19767441860466,
          "velocity": 0.2125984251968504
        },
        {
          "duration": 0.0813953488371908,
          "durationTicks": 7,
          "midi": 93,
          "name": "A6",
          "ticks": 16959,
          "time": 197.19767441860466,
          "velocity": 0.13385826771653545
        },
        {
          "duration": 0.023255813953483084,
          "durationTicks": 2,
          "midi": 49,
          "name": "C#3",
          "ticks": 16960,
          "time": 197.2093023255814,
          "velocity": 0.4094488188976378
        },
        {
          "duration": 0.09302325581393234,
          "durationTicks": 8,
          "midi": 57,
          "name": "A3",
          "ticks": 16960,
          "time": 197.2093023255814,
          "velocity": 0.31496062992125984
        },
        {
          "duration": 0.44186046511626387,
          "durationTicks": 38,
          "midi": 69,
          "name": "A4",
          "ticks": 16960,
          "time": 197.2093023255814,
          "velocity": 0.44881889763779526
        },
        {
          "duration": 0.05813953488370771,
          "durationTicks": 5,
          "midi": 39,
          "name": "D#2",
          "ticks": 16961,
          "time": 197.22093023255815,
          "velocity": 0.4645669291338583
        },
        {
          "duration": 0.09302325581396076,
          "durationTicks": 8,
          "midi": 72,
          "name": "C5",
          "ticks": 16961,
          "time": 197.22093023255815,
          "velocity": 0.16535433070866143
        },
        {
          "duration": 0.034883720930224626,
          "durationTicks": 3,
          "midi": 50,
          "name": "D3",
          "ticks": 16962,
          "time": 197.2325581395349,
          "velocity": 0.4566929133858268
        },
        {
          "duration": 0.05813953488370771,
          "durationTicks": 5,
          "midi": 76,
          "name": "E5",
          "ticks": 16963,
          "time": 197.24418604651163,
          "velocity": 0.10236220472440945
        },
        {
          "duration": 0.023255813953483084,
          "durationTicks": 2,
          "midi": 38,
          "name": "D2",
          "ticks": 16966,
          "time": 197.27906976744185,
          "velocity": 0.36220472440944884
        },
        {
          "duration": 0.023255813953483084,
          "durationTicks": 2,
          "midi": 50,
          "name": "D3",
          "ticks": 16966,
          "time": 197.27906976744185,
          "velocity": 0.3937007874015748
        },
        {
          "duration": 0.03488372093025305,
          "durationTicks": 3,
          "midi": 82,
          "name": "A#5",
          "ticks": 16967,
          "time": 197.2906976744186,
          "velocity": 0.08661417322834646
        },
        {
          "duration": 0.13953488372095535,
          "durationTicks": 12,
          "midi": 78,
          "name": "F#5",
          "ticks": 16968,
          "time": 197.30232558139534,
          "velocity": 0.15748031496062992
        },
        {
          "duration": 0.09302325581396076,
          "durationTicks": 8,
          "midi": 85,
          "name": "C#6",
          "ticks": 16968,
          "time": 197.30232558139534,
          "velocity": 0.13385826771653545
        },
        {
          "duration": 0.08139534883721922,
          "durationTicks": 7,
          "midi": 97,
          "name": "C#7",
          "ticks": 16968,
          "time": 197.30232558139534,
          "velocity": 0.13385826771653545
        },
        {
          "duration": 0.034883720930224626,
          "durationTicks": 3,
          "midi": 40,
          "name": "E2",
          "ticks": 16969,
          "time": 197.3139534883721,
          "velocity": 0.4409448818897638
        },
        {
          "duration": 0.13953488372092693,
          "durationTicks": 12,
          "midi": 88,
          "name": "E6",
          "ticks": 16969,
          "time": 197.3139534883721,
          "velocity": 0.07874015748031496
        },
        {
          "duration": 0.2441860465116008,
          "durationTicks": 21,
          "midi": 90,
          "name": "F#6",
          "ticks": 16969,
          "time": 197.3139534883721,
          "velocity": 0.25984251968503935
        },
        {
          "duration": 0.19767441860463464,
          "durationTicks": 17,
          "midi": 50,
          "name": "D3",
          "ticks": 16970,
          "time": 197.32558139534885,
          "velocity": 0.4409448818897638
        },
        {
          "duration": 0.33720930232556157,
          "durationTicks": 29,
          "midi": 72,
          "name": "C5",
          "ticks": 16970,
          "time": 197.32558139534885,
          "velocity": 0.4330708661417323
        },
        {
          "duration": 0.12790697674418539,
          "durationTicks": 11,
          "midi": 76,
          "name": "E5",
          "ticks": 16971,
          "time": 197.3372093023256,
          "velocity": 0.10236220472440945
        },
        {
          "duration": 0.16279069767441,
          "durationTicks": 14,
          "midi": 80,
          "name": "G#5",
          "ticks": 16971,
          "time": 197.3372093023256,
          "velocity": 0.16535433070866143
        },
        {
          "duration": 0.023255813953483084,
          "durationTicks": 2,
          "midi": 39,
          "name": "D#2",
          "ticks": 16972,
          "time": 197.34883720930233,
          "velocity": 0.3858267716535433
        },
        {
          "duration": 0.17441860465115155,
          "durationTicks": 15,
          "midi": 57,
          "name": "A3",
          "ticks": 16972,
          "time": 197.34883720930233,
          "velocity": 0.2283464566929134
        },
        {
          "duration": 0.17441860465115155,
          "durationTicks": 15,
          "midi": 66,
          "name": "F#4",
          "ticks": 16972,
          "time": 197.34883720930233,
          "velocity": 0.14960629921259844
        },
        {
          "duration": 0.04651162790696617,
          "durationTicks": 4,
          "midi": 38,
          "name": "D2",
          "ticks": 16974,
          "time": 197.37209302325581,
          "velocity": 0.3543307086614173
        },
        {
          "duration": 0.03488372093025305,
          "durationTicks": 3,
          "midi": 38,
          "name": "D2",
          "ticks": 16979,
          "time": 197.43023255813952,
          "velocity": 0.23622047244094488
        },
        {
          "duration": 0.023255813953483084,
          "durationTicks": 2,
          "midi": 38,
          "name": "D2",
          "ticks": 16984,
          "time": 197.48837209302326,
          "velocity": 0.25984251968503935
        },
        {
          "duration": 0.034883720930224626,
          "durationTicks": 3,
          "midi": 88,
          "name": "E6",
          "ticks": 16986,
          "time": 197.51162790697674,
          "velocity": 0.10236220472440945
        },
        {
          "duration": 0.15116279069766847,
          "durationTicks": 13,
          "midi": 65,
          "name": "F4",
          "ticks": 16987,
          "time": 197.52325581395348,
          "velocity": 0.5354330708661418
        },
        {
          "duration": 0.1046511627907023,
          "durationTicks": 9,
          "midi": 53,
          "name": "F3",
          "ticks": 16988,
          "time": 197.53488372093022,
          "velocity": 0.5511811023622047
        },
        {
          "duration": 0.03488372093025305,
          "durationTicks": 3,
          "midi": 79,
          "name": "G5",
          "ticks": 16988,
          "time": 197.53488372093022,
          "velocity": 0.10236220472440945
        },
        {
          "duration": 0.11627906976744384,
          "durationTicks": 10,
          "midi": 87,
          "name": "D#6",
          "ticks": 16988,
          "time": 197.53488372093022,
          "velocity": 0.1732283464566929
        },
        {
          "duration": 0.03488372093025305,
          "durationTicks": 3,
          "midi": 91,
          "name": "G6",
          "ticks": 16988,
          "time": 197.53488372093022,
          "velocity": 0.15748031496062992
        },
        {
          "duration": 0.05813953488373613,
          "durationTicks": 5,
          "midi": 100,
          "name": "E7",
          "ticks": 16988,
          "time": 197.53488372093022,
          "velocity": 0.14173228346456693
        },
        {
          "duration": 0.11627906976744384,
          "durationTicks": 10,
          "midi": 101,
          "name": "F7",
          "ticks": 16988,
          "time": 197.53488372093022,
          "velocity": 0.07874015748031496
        },
        {
          "duration": 0.03488372093025305,
          "durationTicks": 3,
          "midi": 95,
          "name": "B6",
          "ticks": 16989,
          "time": 197.54651162790697,
          "velocity": 0.07086614173228346
        },
        {
          "duration": 0.023255813953483084,
          "durationTicks": 2,
          "midi": 39,
          "name": "D#2",
          "ticks": 16991,
          "time": 197.56976744186048,
          "velocity": 0.44881889763779526
        },
        {
          "duration": 0.05813953488370771,
          "durationTicks": 5,
          "midi": 38,
          "name": "D2",
          "ticks": 16993,
          "time": 197.59302325581396,
          "velocity": 0.4251968503937008
        },
        {
          "duration": 0.06976744186044925,
          "durationTicks": 6,
          "midi": 91,
          "name": "G6",
          "ticks": 16993,
          "time": 197.59302325581396,
          "velocity": 0.14173228346456693
        },
        {
          "duration": 0.023255813953483084,
          "durationTicks": 2,
          "midi": 62,
          "name": "D4",
          "ticks": 16997,
          "time": 197.63953488372093,
          "velocity": 0.29133858267716534
        },
        {
          "duration": 0.04651162790699459,
          "durationTicks": 4,
          "midi": 51,
          "name": "D#3",
          "ticks": 16998,
          "time": 197.65116279069767,
          "velocity": 0.5196850393700787
        },
        {
          "duration": 0.04651162790699459,
          "durationTicks": 4,
          "midi": 57,
          "name": "A3",
          "ticks": 16998,
          "time": 197.65116279069767,
          "velocity": 0.4251968503937008
        },
        {
          "duration": 0.2674418604651123,
          "durationTicks": 23,
          "midi": 76,
          "name": "E5",
          "ticks": 16998,
          "time": 197.65116279069767,
          "velocity": 0.48031496062992124
        },
        {
          "duration": 0.15116279069766847,
          "durationTicks": 13,
          "midi": 83,
          "name": "B5",
          "ticks": 16998,
          "time": 197.65116279069767,
          "velocity": 0.2677165354330709
        },
        {
          "duration": 0.22093023255814614,
          "durationTicks": 19,
          "midi": 92,
          "name": "G#6",
          "ticks": 16998,
          "time": 197.65116279069767,
          "velocity": 0.2204724409448819
        },
        {
          "duration": 0.023255813953483084,
          "durationTicks": 2,
          "midi": 41,
          "name": "F2",
          "ticks": 16999,
          "time": 197.6627906976744,
          "velocity": 0.3700787401574803
        },
        {
          "duration": 0.11627906976744384,
          "durationTicks": 10,
          "midi": 71,
          "name": "B4",
          "ticks": 16999,
          "time": 197.6627906976744,
          "velocity": 0.4566929133858268
        },
        {
          "duration": 0.12790697674418539,
          "durationTicks": 11,
          "midi": 80,
          "name": "G#5",
          "ticks": 16999,
          "time": 197.6627906976744,
          "velocity": 0.2204724409448819
        },
        {
          "duration": 0.4186046511628092,
          "durationTicks": 36,
          "midi": 90,
          "name": "F#6",
          "ticks": 16999,
          "time": 197.6627906976744,
          "velocity": 0.25196850393700787
        },
        {
          "duration": 0.04651162790699459,
          "durationTicks": 4,
          "midi": 98,
          "name": "D7",
          "ticks": 16999,
          "time": 197.6627906976744,
          "velocity": 0.10236220472440945
        },
        {
          "duration": 0.06976744186047767,
          "durationTicks": 6,
          "midi": 99,
          "name": "D#7",
          "ticks": 16999,
          "time": 197.6627906976744,
          "velocity": 0.14960629921259844
        },
        {
          "duration": 0.03488372093025305,
          "durationTicks": 3,
          "midi": 100,
          "name": "E7",
          "ticks": 16999,
          "time": 197.6627906976744,
          "velocity": 0.11023622047244094
        },
        {
          "duration": 0.09302325581396076,
          "durationTicks": 8,
          "midi": 64,
          "name": "E4",
          "ticks": 17000,
          "time": 197.67441860465115,
          "velocity": 0.5354330708661418
        },
        {
          "duration": 0.19767441860466306,
          "durationTicks": 17,
          "midi": 86,
          "name": "D6",
          "ticks": 17000,
          "time": 197.67441860465115,
          "velocity": 0.1889763779527559
        },
        {
          "duration": 0.023255813953511506,
          "durationTicks": 2,
          "midi": 38,
          "name": "D2",
          "ticks": 17001,
          "time": 197.6860465116279,
          "velocity": 0.3464566929133858
        },
        {
          "duration": 0.04651162790696617,
          "durationTicks": 4,
          "midi": 91,
          "name": "G6",
          "ticks": 17002,
          "time": 197.69767441860466,
          "velocity": 0.11023622047244094
        },
        {
          "duration": 0.04651162790696617,
          "durationTicks": 4,
          "midi": 39,
          "name": "D#2",
          "ticks": 17003,
          "time": 197.7093023255814,
          "velocity": 0.4094488188976378
        },
        {
          "duration": 0.011627906976741542,
          "durationTicks": 1,
          "midi": 52,
          "name": "E3",
          "ticks": 17004,
          "time": 197.72093023255815,
          "velocity": 0.5118110236220472
        },
        {
          "duration": 0.023255813953483084,
          "durationTicks": 2,
          "midi": 51,
          "name": "D#3",
          "ticks": 17005,
          "time": 197.7325581395349,
          "velocity": 0.5354330708661418
        },
        {
          "duration": 0.06976744186044925,
          "durationTicks": 6,
          "midi": 100,
          "name": "E7",
          "ticks": 17005,
          "time": 197.7325581395349,
          "velocity": 0.07086614173228346
        },
        {
          "duration": 0.023255813953483084,
          "durationTicks": 2,
          "midi": 57,
          "name": "A3",
          "ticks": 17006,
          "time": 197.74418604651163,
          "velocity": 0.3228346456692913
        },
        {
          "duration": 0.19767441860466306,
          "durationTicks": 17,
          "midi": 93,
          "name": "A6",
          "ticks": 17007,
          "time": 197.75581395348837,
          "velocity": 0.1889763779527559
        },
        {
          "duration": 0.023255813953483084,
          "durationTicks": 2,
          "midi": 39,
          "name": "D#2",
          "ticks": 17008,
          "time": 197.7674418604651,
          "velocity": 0.4251968503937008
        },
        {
          "duration": 0.22093023255814614,
          "durationTicks": 19,
          "midi": 69,
          "name": "A4",
          "ticks": 17008,
          "time": 197.7674418604651,
          "velocity": 0.44881889763779526
        },
        {
          "duration": 0.2325581395348877,
          "durationTicks": 20,
          "midi": 74,
          "name": "D5",
          "ticks": 17008,
          "time": 197.7674418604651,
          "velocity": 0.49606299212598426
        },
        {
          "duration": 0.2325581395348877,
          "durationTicks": 20,
          "midi": 85,
          "name": "C#6",
          "ticks": 17008,
          "time": 197.7674418604651,
          "velocity": 0.2440944881889764
        },
        {
          "duration": 0.011627906976741542,
          "durationTicks": 1,
          "midi": 48,
          "name": "C3",
          "ticks": 17009,
          "time": 197.77906976744185,
          "velocity": 0.5196850393700787
        },
        {
          "duration": 0.19767441860466306,
          "durationTicks": 17,
          "midi": 78,
          "name": "F#5",
          "ticks": 17009,
          "time": 197.77906976744185,
          "velocity": 0.2125984251968504
        },
        {
          "duration": 0.03488372093025305,
          "durationTicks": 3,
          "midi": 84,
          "name": "C6",
          "ticks": 17009,
          "time": 197.77906976744185,
          "velocity": 0.2204724409448819
        },
        {
          "duration": 0.023255813953511506,
          "durationTicks": 2,
          "midi": 45,
          "name": "A2",
          "ticks": 17010,
          "time": 197.7906976744186,
          "velocity": 0.5275590551181102
        },
        {
          "duration": 0.2093023255814046,
          "durationTicks": 18,
          "midi": 62,
          "name": "D4",
          "ticks": 17010,
          "time": 197.7906976744186,
          "velocity": 0.5118110236220472
        },
        {
          "duration": 0.04651162790699459,
          "durationTicks": 4,
          "midi": 71,
          "name": "B4",
          "ticks": 17010,
          "time": 197.7906976744186,
          "velocity": 0.2992125984251969
        },
        {
          "duration": 0.023255813953483084,
          "durationTicks": 2,
          "midi": 51,
          "name": "D#3",
          "ticks": 17012,
          "time": 197.8139534883721,
          "velocity": 0.5275590551181102
        },
        {
          "duration": 0.16279069767441,
          "durationTicks": 14,
          "midi": 57,
          "name": "A3",
          "ticks": 17014,
          "time": 197.8372093023256,
          "velocity": 0.3464566929133858
        },
        {
          "duration": 0.06976744186044925,
          "durationTicks": 6,
          "midi": 79,
          "name": "G5",
          "ticks": 17015,
          "time": 197.84883720930233,
          "velocity": 0.11811023622047244
        },
        {
          "duration": 0.09302325581396076,
          "durationTicks": 8,
          "midi": 84,
          "name": "C6",
          "ticks": 17015,
          "time": 197.84883720930233,
          "velocity": 0.1732283464566929
        },
        {
          "duration": 0.023255813953483084,
          "durationTicks": 2,
          "midi": 51,
          "name": "D#3",
          "ticks": 17017,
          "time": 197.87209302325581,
          "velocity": 0.4881889763779528
        },
        {
          "duration": 0.023255813953483084,
          "durationTicks": 2,
          "midi": 49,
          "name": "C#3",
          "ticks": 17019,
          "time": 197.8953488372093,
          "velocity": 0.41732283464566927
        },
        {
          "duration": 0.04651162790699459,
          "durationTicks": 4,
          "midi": 67,
          "name": "G4",
          "ticks": 17020,
          "time": 197.90697674418604,
          "velocity": 0.14960629921259844
        },
        {
          "duration": 0.023255813953511506,
          "durationTicks": 2,
          "midi": 45,
          "name": "A2",
          "ticks": 17022,
          "time": 197.93023255813952,
          "velocity": 0.3700787401574803
        },
        {
          "duration": 0.023255813953511506,
          "durationTicks": 2,
          "midi": 51,
          "name": "D#3",
          "ticks": 17022,
          "time": 197.93023255813952,
          "velocity": 0.4409448818897638
        },
        {
          "duration": 0.023255813953483084,
          "durationTicks": 2,
          "midi": 46,
          "name": "A#2",
          "ticks": 17027,
          "time": 197.98837209302326,
          "velocity": 0.5118110236220472
        },
        {
          "duration": 0.2325581395348877,
          "durationTicks": 20,
          "midi": 67,
          "name": "G4",
          "ticks": 17027,
          "time": 197.98837209302326,
          "velocity": 0.44881889763779526
        },
        {
          "duration": 0.24418604651162923,
          "durationTicks": 21,
          "midi": 72,
          "name": "C5",
          "ticks": 17027,
          "time": 197.98837209302326,
          "velocity": 0.4881889763779528
        },
        {
          "duration": 0.04651162790696617,
          "durationTicks": 4,
          "midi": 76,
          "name": "E5",
          "ticks": 17027,
          "time": 197.98837209302326,
          "velocity": 0.15748031496062992
        },
        {
          "duration": 0.22093023255814614,
          "durationTicks": 19,
          "midi": 55,
          "name": "G3",
          "ticks": 17028,
          "time": 198,
          "velocity": 0.3228346456692913
        },
        {
          "duration": 0.22093023255814614,
          "durationTicks": 19,
          "midi": 60,
          "name": "C4",
          "ticks": 17028,
          "time": 198,
          "velocity": 0.5590551181102362
        },
        {
          "duration": 0.023255813953483084,
          "durationTicks": 2,
          "midi": 69,
          "name": "A4",
          "ticks": 17028,
          "time": 198,
          "velocity": 0.31496062992125984
        },
        {
          "duration": 0.16279069767441,
          "durationTicks": 14,
          "midi": 86,
          "name": "D6",
          "ticks": 17028,
          "time": 198,
          "velocity": 0.13385826771653545
        },
        {
          "duration": 0.05813953488370771,
          "durationTicks": 5,
          "midi": 94,
          "name": "A#6",
          "ticks": 17028,
          "time": 198,
          "velocity": 0.10236220472440945
        },
        {
          "duration": 0.08139534883721922,
          "durationTicks": 7,
          "midi": 95,
          "name": "B6",
          "ticks": 17028,
          "time": 198,
          "velocity": 0.16535433070866143
        },
        {
          "duration": 0.15116279069766847,
          "durationTicks": 13,
          "midi": 74,
          "name": "D5",
          "ticks": 17029,
          "time": 198.01162790697674,
          "velocity": 0.31496062992125984
        },
        {
          "duration": 0.04651162790696617,
          "durationTicks": 4,
          "midi": 78,
          "name": "F#5",
          "ticks": 17029,
          "time": 198.01162790697674,
          "velocity": 0.16535433070866143
        },
        {
          "duration": 0.04651162790699459,
          "durationTicks": 4,
          "midi": 37,
          "name": "C#2",
          "ticks": 17030,
          "time": 198.02325581395348,
          "velocity": 0.47244094488188976
        },
        {
          "duration": 0.034883720930224626,
          "durationTicks": 3,
          "midi": 83,
          "name": "B5",
          "ticks": 17030,
          "time": 198.02325581395348,
          "velocity": 0.09448818897637795
        },
        {
          "duration": 0.17441860465117998,
          "durationTicks": 15,
          "midi": 64,
          "name": "E4",
          "ticks": 17031,
          "time": 198.03488372093022,
          "velocity": 0.1968503937007874
        },
        {
          "duration": 0.023255813953511506,
          "durationTicks": 2,
          "midi": 47,
          "name": "B2",
          "ticks": 17032,
          "time": 198.04651162790697,
          "velocity": 0.3700787401574803
        },
        {
          "duration": 0.16279069767443843,
          "durationTicks": 14,
          "midi": 82,
          "name": "A#5",
          "ticks": 17033,
          "time": 198.0581395348837,
          "velocity": 0.13385826771653545
        },
        {
          "duration": 0.09302325581393234,
          "durationTicks": 8,
          "midi": 36,
          "name": "C2",
          "ticks": 17034,
          "time": 198.06976744186048,
          "velocity": 0.4094488188976378
        },
        {
          "duration": 0.05813953488370771,
          "durationTicks": 5,
          "midi": 78,
          "name": "F#5",
          "ticks": 17035,
          "time": 198.08139534883722,
          "velocity": 0.09448818897637795
        },
        {
          "duration": 0.023255813953483084,
          "durationTicks": 2,
          "midi": 35,
          "name": "B1",
          "ticks": 17042,
          "time": 198.1627906976744,
          "velocity": 0.2677165354330709
        },
        {
          "duration": 0.05813953488373613,
          "durationTicks": 5,
          "midi": 70,
          "name": "A#4",
          "ticks": 17043,
          "time": 198.17441860465115,
          "velocity": 0.29133858267716534
        },
        {
          "duration": 0.023255813953511506,
          "durationTicks": 2,
          "midi": 36,
          "name": "C2",
          "ticks": 17044,
          "time": 198.1860465116279,
          "velocity": 0.28346456692913385
        },
        {
          "duration": 0.09302325581393234,
          "durationTicks": 8,
          "midi": 86,
          "name": "D6",
          "ticks": 17046,
          "time": 198.2093023255814,
          "velocity": 0.2440944881889764
        },
        {
          "duration": 0.023255813953483084,
          "durationTicks": 2,
          "midi": 62,
          "name": "D4",
          "ticks": 17047,
          "time": 198.22093023255815,
          "velocity": 0.4881889763779528
        },
        {
          "duration": 0.4534883720930054,
          "durationTicks": 39,
          "midi": 81,
          "name": "A5",
          "ticks": 17047,
          "time": 198.22093023255815,
          "velocity": 0.28346456692913385
        },
        {
          "duration": 0.27906976744185386,
          "durationTicks": 24,
          "midi": 90,
          "name": "F#6",
          "ticks": 17047,
          "time": 198.22093023255815,
          "velocity": 0.2440944881889764
        },
        {
          "duration": 0.22093023255814614,
          "durationTicks": 19,
          "midi": 50,
          "name": "D3",
          "ticks": 17048,
          "time": 198.2325581395349,
          "velocity": 0.47244094488188976
        },
        {
          "duration": 0.023255813953483084,
          "durationTicks": 2,
          "midi": 56,
          "name": "G#3",
          "ticks": 17048,
          "time": 198.2325581395349,
          "velocity": 0.3464566929133858
        },
        {
          "duration": 0.3604651162790731,
          "durationTicks": 31,
          "midi": 69,
          "name": "A4",
          "ticks": 17048,
          "time": 198.2325581395349,
          "velocity": 0.4409448818897638
        },
        {
          "duration": 0.06976744186044925,
          "durationTicks": 6,
          "midi": 97,
          "name": "C#7",
          "ticks": 17048,
          "time": 198.2325581395349,
          "velocity": 0.14173228346456693
        },
        {
          "duration": 0.06976744186047767,
          "durationTicks": 6,
          "midi": 39,
          "name": "D#2",
          "ticks": 17049,
          "time": 198.24418604651163,
          "velocity": 0.48031496062992124
        },
        {
          "duration": 0.011627906976741542,
          "durationTicks": 1,
          "midi": 61,
          "name": "C#4",
          "ticks": 17049,
          "time": 198.24418604651163,
          "velocity": 0.5433070866141733
        },
        {
          "duration": 0.4302325581395223,
          "durationTicks": 37,
          "midi": 66,
          "name": "F#4",
          "ticks": 17049,
          "time": 198.24418604651163,
          "velocity": 0.2677165354330709
        },
        {
          "duration": 0.08139534883721922,
          "durationTicks": 7,
          "midi": 72,
          "name": "C5",
          "ticks": 17049,
          "time": 198.24418604651163,
          "velocity": 0.28346456692913385
        },
        {
          "duration": 0.4186046511627808,
          "durationTicks": 36,
          "midi": 57,
          "name": "A3",
          "ticks": 17050,
          "time": 198.25581395348837,
          "velocity": 0.3779527559055118
        },
        {
          "duration": 0.4186046511627808,
          "durationTicks": 36,
          "midi": 62,
          "name": "D4",
          "ticks": 17050,
          "time": 198.25581395348837,
          "velocity": 0.5275590551181102
        },
        {
          "duration": 0.08139534883721922,
          "durationTicks": 7,
          "midi": 76,
          "name": "E5",
          "ticks": 17054,
          "time": 198.30232558139534,
          "velocity": 0.08661417322834646
        },
        {
          "duration": 0.06976744186047767,
          "durationTicks": 6,
          "midi": 98,
          "name": "D7",
          "ticks": 17054,
          "time": 198.30232558139534,
          "velocity": 0.07086614173228346
        },
        {
          "duration": 0.034883720930224626,
          "durationTicks": 3,
          "midi": 38,
          "name": "D2",
          "ticks": 17055,
          "time": 198.3139534883721,
          "velocity": 0.3464566929133858
        },
        {
          "duration": 0.05813953488370771,
          "durationTicks": 5,
          "midi": 88,
          "name": "E6",
          "ticks": 17055,
          "time": 198.3139534883721,
          "velocity": 0.11023622047244094
        },
        {
          "duration": 0.04651162790696617,
          "durationTicks": 4,
          "midi": 37,
          "name": "C#2",
          "ticks": 17058,
          "time": 198.34883720930233,
          "velocity": 0.31496062992125984
        },
        {
          "duration": 0.0813953488371908,
          "durationTicks": 7,
          "midi": 72,
          "name": "C5",
          "ticks": 17058,
          "time": 198.34883720930233,
          "velocity": 0.15748031496062992
        },
        {
          "duration": 0.05813953488373613,
          "durationTicks": 5,
          "midi": 38,
          "name": "D2",
          "ticks": 17062,
          "time": 198.3953488372093,
          "velocity": 0.2677165354330709
        },
        {
          "duration": 0.03488372093025305,
          "durationTicks": 3,
          "midi": 88,
          "name": "E6",
          "ticks": 17064,
          "time": 198.41860465116278,
          "velocity": 0.07086614173228346
        },
        {
          "duration": 0.023255813953483084,
          "durationTicks": 2,
          "midi": 48,
          "name": "C3",
          "ticks": 17067,
          "time": 198.45348837209303,
          "velocity": 0.4251968503937008
        },
        {
          "duration": 0.023255813953483084,
          "durationTicks": 2,
          "midi": 40,
          "name": "E2",
          "ticks": 17068,
          "time": 198.46511627906978,
          "velocity": 0.4409448818897638
        },
        {
          "duration": 0.2325581395348877,
          "durationTicks": 20,
          "midi": 72,
          "name": "C5",
          "ticks": 17068,
          "time": 198.46511627906978,
          "velocity": 0.2677165354330709
        },
        {
          "duration": 0.023255813953483084,
          "durationTicks": 2,
          "midi": 39,
          "name": "D#2",
          "ticks": 17070,
          "time": 198.48837209302326,
          "velocity": 0.4645669291338583
        },
        {
          "duration": 0.1860465116278931,
          "durationTicks": 16,
          "midi": 50,
          "name": "D3",
          "ticks": 17070,
          "time": 198.48837209302326,
          "velocity": 0.33858267716535434
        },
        {
          "duration": 0.15116279069766847,
          "durationTicks": 13,
          "midi": 80,
          "name": "G#5",
          "ticks": 17070,
          "time": 198.48837209302326,
          "velocity": 0.14173228346456693
        },
        {
          "duration": 0.1046511627907023,
          "durationTicks": 9,
          "midi": 38,
          "name": "D2",
          "ticks": 17072,
          "time": 198.51162790697674,
          "velocity": 0.4409448818897638
        },
        {
          "duration": 0.04651162790696617,
          "durationTicks": 4,
          "midi": 38,
          "name": "D2",
          "ticks": 17082,
          "time": 198.62790697674419,
          "velocity": 0.28346456692913385
        },
        {
          "duration": 0.4651162790697754,
          "durationTicks": 40,
          "midi": 67,
          "name": "G4",
          "ticks": 17086,
          "time": 198.67441860465115,
          "velocity": 0.6141732283464567
        },
        {
          "duration": 0.2906976744186238,
          "durationTicks": 25,
          "midi": 85,
          "name": "C#6",
          "ticks": 17086,
          "time": 198.67441860465115,
          "velocity": 0.23622047244094488
        },
        {
          "duration": 0.03488372093025305,
          "durationTicks": 3,
          "midi": 88,
          "name": "E6",
          "ticks": 17086,
          "time": 198.67441860465115,
          "velocity": 0.11811023622047244
        },
        {
          "duration": 0.16279069767443843,
          "durationTicks": 14,
          "midi": 93,
          "name": "A6",
          "ticks": 17086,
          "time": 198.67441860465115,
          "velocity": 0.14173228346456693
        },
        {
          "duration": 0.04651162790699459,
          "durationTicks": 4,
          "midi": 45,
          "name": "A2",
          "ticks": 17087,
          "time": 198.6860465116279,
          "velocity": 0.4881889763779528
        },
        {
          "duration": 0.1046511627907023,
          "durationTicks": 9,
          "midi": 83,
          "name": "B5",
          "ticks": 17087,
          "time": 198.6860465116279,
          "velocity": 0.23622047244094488
        },
        {
          "duration": 0.1046511627907023,
          "durationTicks": 9,
          "midi": 91,
          "name": "G6",
          "ticks": 17087,
          "time": 198.6860465116279,
          "velocity": 0.1889763779527559
        },
        {
          "duration": 0.034883720930224626,
          "durationTicks": 3,
          "midi": 61,
          "name": "C#4",
          "ticks": 17088,
          "time": 198.69767441860466,
          "velocity": 0.3228346456692913
        },
        {
          "duration": 0.0813953488371908,
          "durationTicks": 7,
          "midi": 89,
          "name": "F6",
          "ticks": 17089,
          "time": 198.7093023255814,
          "velocity": 0.12598425196850394
        },
        {
          "duration": 0.04651162790696617,
          "durationTicks": 4,
          "midi": 55,
          "name": "G3",
          "ticks": 17090,
          "time": 198.72093023255815,
          "velocity": 0.3464566929133858
        },
        {
          "duration": 0.16279069767441,
          "durationTicks": 14,
          "midi": 45,
          "name": "A2",
          "ticks": 17092,
          "time": 198.74418604651163,
          "velocity": 0.4015748031496063
        },
        {
          "duration": 0.034883720930224626,
          "durationTicks": 3,
          "midi": 61,
          "name": "C#4",
          "ticks": 17092,
          "time": 198.74418604651163,
          "velocity": 0.25984251968503935
        },
        {
          "duration": 0.04651162790696617,
          "durationTicks": 4,
          "midi": 74,
          "name": "D5",
          "ticks": 17093,
          "time": 198.75581395348837,
          "velocity": 0.25196850393700787
        },
        {
          "duration": 0.04651162790699459,
          "durationTicks": 4,
          "midi": 61,
          "name": "C#4",
          "ticks": 17097,
          "time": 198.80232558139534,
          "velocity": 0.1889763779527559
        },
        {
          "duration": 0.09302325581396076,
          "durationTicks": 8,
          "midi": 83,
          "name": "B5",
          "ticks": 17097,
          "time": 198.80232558139534,
          "velocity": 0.14173228346456693
        },
        {
          "duration": 0.034883720930224626,
          "durationTicks": 3,
          "midi": 74,
          "name": "D5",
          "ticks": 17098,
          "time": 198.8139534883721,
          "velocity": 0.2047244094488189
        },
        {
          "duration": 0.034883720930224626,
          "durationTicks": 3,
          "midi": 55,
          "name": "G3",
          "ticks": 17100,
          "time": 198.8372093023256,
          "velocity": 0.2677165354330709
        },
        {
          "duration": 0.05813953488370771,
          "durationTicks": 5,
          "midi": 61,
          "name": "C#4",
          "ticks": 17102,
          "time": 198.86046511627907,
          "velocity": 0.2204724409448819
        },
        {
          "duration": 0.034883720930224626,
          "durationTicks": 3,
          "midi": 74,
          "name": "D5",
          "ticks": 17103,
          "time": 198.87209302325581,
          "velocity": 0.1889763779527559
        },
        {
          "duration": 0.24418604651162923,
          "durationTicks": 21,
          "midi": 55,
          "name": "G3",
          "ticks": 17106,
          "time": 198.90697674418604,
          "velocity": 0.3858267716535433
        },
        {
          "duration": 0.03488372093025305,
          "durationTicks": 3,
          "midi": 76,
          "name": "E5",
          "ticks": 17106,
          "time": 198.90697674418604,
          "velocity": 0.10236220472440945
        },
        {
          "duration": 0.04651162790699459,
          "durationTicks": 4,
          "midi": 77,
          "name": "F5",
          "ticks": 17106,
          "time": 198.90697674418604,
          "velocity": 0.12598425196850394
        },
        {
          "duration": 0.22093023255814614,
          "durationTicks": 19,
          "midi": 60,
          "name": "C4",
          "ticks": 17107,
          "time": 198.91860465116278,
          "velocity": 0.28346456692913385
        },
        {
          "duration": 0.22093023255814614,
          "durationTicks": 19,
          "midi": 64,
          "name": "E4",
          "ticks": 17107,
          "time": 198.91860465116278,
          "velocity": 0.1968503937007874
        },
        {
          "duration": 0.2325581395348877,
          "durationTicks": 20,
          "midi": 70,
          "name": "A#4",
          "ticks": 17107,
          "time": 198.91860465116278,
          "velocity": 0.4566929133858268
        },
        {
          "duration": 0.04651162790699459,
          "durationTicks": 4,
          "midi": 84,
          "name": "C6",
          "ticks": 17107,
          "time": 198.91860465116278,
          "velocity": 0.07086614173228346
        },
        {
          "duration": 0.17441860465117998,
          "durationTicks": 15,
          "midi": 91,
          "name": "G6",
          "ticks": 17107,
          "time": 198.91860465116278,
          "velocity": 0.16535433070866143
        },
        {
          "duration": 0.04651162790699459,
          "durationTicks": 4,
          "midi": 95,
          "name": "B6",
          "ticks": 17107,
          "time": 198.91860465116278,
          "velocity": 0.07086614173228346
        },
        {
          "duration": 0.023255813953511506,
          "durationTicks": 2,
          "midi": 47,
          "name": "B2",
          "ticks": 17108,
          "time": 198.93023255813952,
          "velocity": 0.4881889763779528
        },
        {
          "duration": 0.26744186046514073,
          "durationTicks": 23,
          "midi": 74,
          "name": "D5",
          "ticks": 17108,
          "time": 198.93023255813952,
          "velocity": 0.1968503937007874
        },
        {
          "duration": 0.04651162790696617,
          "durationTicks": 4,
          "midi": 37,
          "name": "C#2",
          "ticks": 17109,
          "time": 198.9418604651163,
          "velocity": 0.4330708661417323
        },
        {
          "duration": 0.20930232558137618,
          "durationTicks": 18,
          "midi": 48,
          "name": "C3",
          "ticks": 17110,
          "time": 198.95348837209303,
          "velocity": 0.5275590551181102
        },
        {
          "duration": 0.12790697674418539,
          "durationTicks": 11,
          "midi": 78,
          "name": "F#5",
          "ticks": 17110,
          "time": 198.95348837209303,
          "velocity": 0.10236220472440945
        },
        {
          "duration": 0.09302325581396076,
          "durationTicks": 8,
          "midi": 83,
          "name": "B5",
          "ticks": 17112,
          "time": 198.97674418604652,
          "velocity": 0.07874015748031496
        },
        {
          "duration": 0.09302325581396076,
          "durationTicks": 8,
          "midi": 36,
          "name": "C2",
          "ticks": 17113,
          "time": 198.98837209302326,
          "velocity": 0.41732283464566927
        },
        {
          "duration": 0.023255813953483084,
          "durationTicks": 2,
          "midi": 35,
          "name": "B1",
          "ticks": 17121,
          "time": 199.08139534883722,
          "velocity": 0.25196850393700787
        },
        {
          "duration": 0.034883720930224626,
          "durationTicks": 3,
          "midi": 36,
          "name": "C2",
          "ticks": 17123,
          "time": 199.1046511627907,
          "velocity": 0.25984251968503935
        },
        {
          "duration": 0.034883720930224626,
          "durationTicks": 3,
          "midi": 66,
          "name": "F#4",
          "ticks": 17126,
          "time": 199.13953488372093,
          "velocity": 0.2047244094488189
        },
        {
          "duration": 0.04651162790696617,
          "durationTicks": 4,
          "midi": 79,
          "name": "G5",
          "ticks": 17126,
          "time": 199.13953488372093,
          "velocity": 0.14173228346456693
        },
        {
          "duration": 0.19767441860466306,
          "durationTicks": 17,
          "midi": 88,
          "name": "E6",
          "ticks": 17126,
          "time": 199.13953488372093,
          "velocity": 0.2440944881889764
        },
        {
          "duration": 0.023255813953483084,
          "durationTicks": 2,
          "midi": 56,
          "name": "G#3",
          "ticks": 17127,
          "time": 199.15116279069767,
          "velocity": 0.44881889763779526
        },
        {
          "duration": 0.023255813953483084,
          "durationTicks": 2,
          "midi": 61,
          "name": "C#4",
          "ticks": 17127,
          "time": 199.15116279069767,
          "velocity": 0.29133858267716534
        },
        {
          "duration": 0.22093023255814614,
          "durationTicks": 19,
          "midi": 69,
          "name": "A4",
          "ticks": 17127,
          "time": 199.15116279069767,
          "velocity": 0.5826771653543307
        },
        {
          "duration": 0.25581395348837077,
          "durationTicks": 22,
          "midi": 76,
          "name": "E5",
          "ticks": 17127,
          "time": 199.15116279069767,
          "velocity": 0.10236220472440945
        },
        {
          "duration": 0.15116279069766847,
          "durationTicks": 13,
          "midi": 85,
          "name": "C#6",
          "ticks": 17127,
          "time": 199.15116279069767,
          "velocity": 0.2047244094488189
        },
        {
          "duration": 0.08139534883721922,
          "durationTicks": 7,
          "midi": 93,
          "name": "A6",
          "ticks": 17127,
          "time": 199.15116279069767,
          "velocity": 0.2047244094488189
        },
        {
          "duration": 0.16279069767443843,
          "durationTicks": 14,
          "midi": 95,
          "name": "B6",
          "ticks": 17127,
          "time": 199.15116279069767,
          "velocity": 0.13385826771653545
        },
        {
          "duration": 0.06976744186047767,
          "durationTicks": 6,
          "midi": 72,
          "name": "C5",
          "ticks": 17128,
          "time": 199.1627906976744,
          "velocity": 0.10236220472440945
        },
        {
          "duration": 0.04651162790699459,
          "durationTicks": 4,
          "midi": 84,
          "name": "C6",
          "ticks": 17128,
          "time": 199.1627906976744,
          "velocity": 0.10236220472440945
        },
        {
          "duration": 0.4186046511628092,
          "durationTicks": 36,
          "midi": 50,
          "name": "D3",
          "ticks": 17129,
          "time": 199.17441860465115,
          "velocity": 0.5118110236220472
        },
        {
          "duration": 0.30232558139536536,
          "durationTicks": 26,
          "midi": 57,
          "name": "A3",
          "ticks": 17129,
          "time": 199.17441860465115,
          "velocity": 0.4251968503937008
        },
        {
          "duration": 0.023255813953511506,
          "durationTicks": 2,
          "midi": 38,
          "name": "D2",
          "ticks": 17130,
          "time": 199.1860465116279,
          "velocity": 0.4094488188976378
        },
        {
          "duration": 0.30232558139536536,
          "durationTicks": 26,
          "midi": 66,
          "name": "F#4",
          "ticks": 17130,
          "time": 199.1860465116279,
          "velocity": 0.28346456692913385
        },
        {
          "duration": 0.09302325581393234,
          "durationTicks": 8,
          "midi": 80,
          "name": "G#5",
          "ticks": 17132,
          "time": 199.2093023255814,
          "velocity": 0.09448818897637795
        },
        {
          "duration": 0.06976744186044925,
          "durationTicks": 6,
          "midi": 38,
          "name": "D2",
          "ticks": 17133,
          "time": 199.22093023255815,
          "velocity": 0.3464566929133858
        },
        {
          "duration": 0.11627906976744384,
          "durationTicks": 10,
          "midi": 72,
          "name": "C5",
          "ticks": 17135,
          "time": 199.24418604651163,
          "velocity": 0.09448818897637795
        },
        {
          "duration": 0.03488372093025305,
          "durationTicks": 3,
          "midi": 37,
          "name": "C#2",
          "ticks": 17139,
          "time": 199.2906976744186,
          "velocity": 0.2755905511811024
        },
        {
          "duration": 0.034883720930224626,
          "durationTicks": 3,
          "midi": 38,
          "name": "D2",
          "ticks": 17142,
          "time": 199.32558139534885,
          "velocity": 0.2677165354330709
        },
        {
          "duration": 0.034883720930224626,
          "durationTicks": 3,
          "midi": 74,
          "name": "D5",
          "ticks": 17146,
          "time": 199.37209302325581,
          "velocity": 0.13385826771653545
        },
        {
          "duration": 0.5232558139534831,
          "durationTicks": 45,
          "midi": 85,
          "name": "C#6",
          "ticks": 17146,
          "time": 199.37209302325581,
          "velocity": 0.30708661417322836
        },
        {
          "duration": 0.09302325581396076,
          "durationTicks": 8,
          "midi": 90,
          "name": "F#6",
          "ticks": 17146,
          "time": 199.37209302325581,
          "velocity": 0.13385826771653545
        },
        {
          "duration": 0.4418604651162923,
          "durationTicks": 38,
          "midi": 69,
          "name": "A4",
          "ticks": 17147,
          "time": 199.38372093023256,
          "velocity": 0.6299212598425197
        },
        {
          "duration": 0.034883720930224626,
          "durationTicks": 3,
          "midi": 79,
          "name": "G5",
          "ticks": 17147,
          "time": 199.38372093023256,
          "velocity": 0.14960629921259844
        },
        {
          "duration": 0.4767441860465169,
          "durationTicks": 41,
          "midi": 88,
          "name": "E6",
          "ticks": 17147,
          "time": 199.38372093023256,
          "velocity": 0.25984251968503935
        },
        {
          "duration": 0.17441860465115155,
          "durationTicks": 15,
          "midi": 93,
          "name": "A6",
          "ticks": 17147,
          "time": 199.38372093023256,
          "velocity": 0.1968503937007874
        },
        {
          "duration": 0.04651162790699459,
          "durationTicks": 4,
          "midi": 84,
          "name": "C6",
          "ticks": 17148,
          "time": 199.3953488372093,
          "velocity": 0.07874015748031496
        },
        {
          "duration": 0.34883720930233153,
          "durationTicks": 30,
          "midi": 95,
          "name": "B6",
          "ticks": 17148,
          "time": 199.3953488372093,
          "velocity": 0.1732283464566929
        },
        {
          "duration": 0.03488372093025305,
          "durationTicks": 3,
          "midi": 39,
          "name": "D#2",
          "ticks": 17149,
          "time": 199.40697674418604,
          "velocity": 0.49606299212598426
        },
        {
          "duration": 0.05813953488373613,
          "durationTicks": 5,
          "midi": 80,
          "name": "G#5",
          "ticks": 17150,
          "time": 199.41860465116278,
          "velocity": 0.14173228346456693
        },
        {
          "duration": 0.04651162790699459,
          "durationTicks": 4,
          "midi": 72,
          "name": "C5",
          "ticks": 17151,
          "time": 199.43023255813952,
          "velocity": 0.07086614173228346
        },
        {
          "duration": 0.04651162790696617,
          "durationTicks": 4,
          "midi": 38,
          "name": "D2",
          "ticks": 17152,
          "time": 199.4418604651163,
          "velocity": 0.41732283464566927
        },
        {
          "duration": 0.13953488372092693,
          "durationTicks": 12,
          "midi": 76,
          "name": "E5",
          "ticks": 17155,
          "time": 199.47674418604652,
          "velocity": 0.1732283464566929
        },
        {
          "duration": 0.09302325581396076,
          "durationTicks": 8,
          "midi": 57,
          "name": "A3",
          "ticks": 17156,
          "time": 199.48837209302326,
          "velocity": 0.41732283464566927
        },
        {
          "duration": 0.04651162790696617,
          "durationTicks": 4,
          "midi": 80,
          "name": "G#5",
          "ticks": 17156,
          "time": 199.48837209302326,
          "velocity": 0.11023622047244094
        },
        {
          "duration": 0.1046511627907023,
          "durationTicks": 9,
          "midi": 91,
          "name": "G6",
          "ticks": 17156,
          "time": 199.48837209302326,
          "velocity": 0.16535433070866143
        },
        {
          "duration": 0.11627906976744384,
          "durationTicks": 10,
          "midi": 66,
          "name": "F#4",
          "ticks": 17157,
          "time": 199.5,
          "velocity": 0.25196850393700787
        },
        {
          "duration": 0.023255813953483084,
          "durationTicks": 2,
          "midi": 38,
          "name": "D2",
          "ticks": 17163,
          "time": 199.56976744186048,
          "velocity": 0.2992125984251969
        },
        {
          "duration": 0.09302325581393234,
          "durationTicks": 8,
          "midi": 75,
          "name": "D#5",
          "ticks": 17165,
          "time": 199.59302325581396,
          "velocity": 0.2125984251968504
        },
        {
          "duration": 0.22093023255814614,
          "durationTicks": 19,
          "midi": 79,
          "name": "G5",
          "ticks": 17165,
          "time": 199.59302325581396,
          "velocity": 0.1732283464566929
        },
        {
          "duration": 0.034883720930224626,
          "durationTicks": 3,
          "midi": 44,
          "name": "G#2",
          "ticks": 17166,
          "time": 199.6046511627907,
          "velocity": 0.5196850393700787
        },
        {
          "duration": 0.06976744186044925,
          "durationTicks": 6,
          "midi": 73,
          "name": "C#5",
          "ticks": 17166,
          "time": 199.6046511627907,
          "velocity": 0.1889763779527559
        },
        {
          "duration": 0.023255813953483084,
          "durationTicks": 2,
          "midi": 57,
          "name": "A3",
          "ticks": 17167,
          "time": 199.61627906976744,
          "velocity": 0.3543307086614173
        },
        {
          "duration": 0.09302325581396076,
          "durationTicks": 8,
          "midi": 83,
          "name": "B5",
          "ticks": 17167,
          "time": 199.61627906976744,
          "velocity": 0.10236220472440945
        },
        {
          "duration": 0.17441860465117998,
          "durationTicks": 15,
          "midi": 57,
          "name": "A3",
          "ticks": 17170,
          "time": 199.65116279069767,
          "velocity": 0.31496062992125984
        },
        {
          "duration": 0.2093023255814046,
          "durationTicks": 18,
          "midi": 76,
          "name": "E5",
          "ticks": 17170,
          "time": 199.65116279069767,
          "velocity": 0.16535433070866143
        },
        {
          "duration": 0.03488372093025305,
          "durationTicks": 3,
          "midi": 52,
          "name": "E3",
          "ticks": 17171,
          "time": 199.6627906976744,
          "velocity": 0.29133858267716534
        },
        {
          "duration": 0.03488372093025305,
          "durationTicks": 3,
          "midi": 61,
          "name": "C#4",
          "ticks": 17171,
          "time": 199.6627906976744,
          "velocity": 0.2283464566929134
        },
        {
          "duration": 0.1511627906976969,
          "durationTicks": 13,
          "midi": 45,
          "name": "A2",
          "ticks": 17172,
          "time": 199.67441860465115,
          "velocity": 0.4015748031496063
        },
        {
          "duration": 0.11627906976744384,
          "durationTicks": 10,
          "midi": 75,
          "name": "D#5",
          "ticks": 17174,
          "time": 199.69767441860466,
          "velocity": 0.18110236220472442
        },
        {
          "duration": 0.034883720930224626,
          "durationTicks": 3,
          "midi": 52,
          "name": "E3",
          "ticks": 17175,
          "time": 199.7093023255814,
          "velocity": 0.2283464566929134
        },
        {
          "duration": 0.1046511627907023,
          "durationTicks": 9,
          "midi": 61,
          "name": "C#4",
          "ticks": 17175,
          "time": 199.7093023255814,
          "velocity": 0.1732283464566929
        },
        {
          "duration": 0.05813953488373613,
          "durationTicks": 5,
          "midi": 52,
          "name": "E3",
          "ticks": 17179,
          "time": 199.75581395348837,
          "velocity": 0.2047244094488189
        },
        {
          "duration": 0.2441860465116008,
          "durationTicks": 21,
          "midi": 64,
          "name": "E4",
          "ticks": 17184,
          "time": 199.8139534883721,
          "velocity": 0.23622047244094488
        },
        {
          "duration": 0.023255813953483084,
          "durationTicks": 2,
          "midi": 66,
          "name": "F#4",
          "ticks": 17184,
          "time": 199.8139534883721,
          "velocity": 0.4094488188976378
        },
        {
          "duration": 0.023255813953483084,
          "durationTicks": 2,
          "midi": 44,
          "name": "G#2",
          "ticks": 17185,
          "time": 199.82558139534885,
          "velocity": 0.48031496062992124
        },
        {
          "duration": 0.04651162790696617,
          "durationTicks": 4,
          "midi": 77,
          "name": "F5",
          "ticks": 17185,
          "time": 199.82558139534885,
          "velocity": 0.1732283464566929
        },
        {
          "duration": 0.24418604651162923,
          "durationTicks": 21,
          "midi": 86,
          "name": "D6",
          "ticks": 17185,
          "time": 199.82558139534885,
          "velocity": 0.25196850393700787
        },
        {
          "duration": 0.19767441860463464,
          "durationTicks": 17,
          "midi": 93,
          "name": "A6",
          "ticks": 17185,
          "time": 199.82558139534885,
          "velocity": 0.13385826771653545
        },
        {
          "duration": 0.20930232558137618,
          "durationTicks": 18,
          "midi": 60,
          "name": "C4",
          "ticks": 17186,
          "time": 199.8372093023256,
          "velocity": 0.29133858267716534
        },
        {
          "duration": 0.22093023255811772,
          "durationTicks": 19,
          "midi": 67,
          "name": "G4",
          "ticks": 17186,
          "time": 199.8372093023256,
          "velocity": 0.5984251968503937
        },
        {
          "duration": 0.15116279069766847,
          "durationTicks": 13,
          "midi": 83,
          "name": "B5",
          "ticks": 17186,
          "time": 199.8372093023256,
          "velocity": 0.2125984251968504
        },
        {
          "duration": 0.09302325581393234,
          "durationTicks": 8,
          "midi": 91,
          "name": "G6",
          "ticks": 17186,
          "time": 199.8372093023256,
          "velocity": 0.2125984251968504
        },
        {
          "duration": 0.023255813953483084,
          "durationTicks": 2,
          "midi": 47,
          "name": "B2",
          "ticks": 17187,
          "time": 199.84883720930233,
          "velocity": 0.5118110236220472
        },
        {
          "duration": 0.05813953488370771,
          "durationTicks": 5,
          "midi": 82,
          "name": "A#5",
          "ticks": 17187,
          "time": 199.84883720930233,
          "velocity": 0.07874015748031496
        },
        {
          "duration": 0.034883720930224626,
          "durationTicks": 3,
          "midi": 101,
          "name": "F7",
          "ticks": 17187,
          "time": 199.84883720930233,
          "velocity": 0.09448818897637795
        },
        {
          "duration": 0.04651162790696617,
          "durationTicks": 4,
          "midi": 37,
          "name": "C#2",
          "ticks": 17188,
          "time": 199.86046511627907,
          "velocity": 0.47244094488188976
        },
        {
          "duration": 0.1860465116278931,
          "durationTicks": 16,
          "midi": 55,
          "name": "G3",
          "ticks": 17188,
          "time": 199.86046511627907,
          "velocity": 0.3543307086614173
        },
        {
          "duration": 0.023255813953483084,
          "durationTicks": 2,
          "midi": 69,
          "name": "A4",
          "ticks": 17189,
          "time": 199.87209302325581,
          "velocity": 0.25984251968503935
        },
        {
          "duration": 0.11627906976744384,
          "durationTicks": 10,
          "midi": 78,
          "name": "F#5",
          "ticks": 17189,
          "time": 199.87209302325581,
          "velocity": 0.10236220472440945
        },
        {
          "duration": 0.04651162790696617,
          "durationTicks": 4,
          "midi": 89,
          "name": "F6",
          "ticks": 17190,
          "time": 199.88372093023256,
          "velocity": 0.11023622047244094
        },
        {
          "duration": 0.09302325581396076,
          "durationTicks": 8,
          "midi": 36,
          "name": "C2",
          "ticks": 17192,
          "time": 199.90697674418604,
          "velocity": 0.3937007874015748
        },
        {
          "duration": 0.12790697674418539,
          "durationTicks": 11,
          "midi": 48,
          "name": "C3",
          "ticks": 17193,
          "time": 199.91860465116278,
          "velocity": 0.4015748031496063
        },
        {
          "duration": 0.03488372093025305,
          "durationTicks": 3,
          "midi": 69,
          "name": "A4",
          "ticks": 17193,
          "time": 199.91860465116278,
          "velocity": 0.1889763779527559
        },
        {
          "duration": 0.18604651162792152,
          "durationTicks": 16,
          "midi": 74,
          "name": "D5",
          "ticks": 17193,
          "time": 199.91860465116278,
          "velocity": 0.14173228346456693
        },
        {
          "duration": 0.0813953488371908,
          "durationTicks": 7,
          "midi": 70,
          "name": "A#4",
          "ticks": 17198,
          "time": 199.97674418604652,
          "velocity": 0.4251968503937008
        },
        {
          "duration": 0.034883720930224626,
          "durationTicks": 3,
          "midi": 35,
          "name": "B1",
          "ticks": 17200,
          "time": 200,
          "velocity": 0.2440944881889764
        },
        {
          "duration": 0.023255813953511506,
          "durationTicks": 2,
          "midi": 56,
          "name": "G#3",
          "ticks": 17204,
          "time": 200.04651162790697,
          "velocity": 0.41732283464566927
        },
        {
          "duration": 0.023255813953511506,
          "durationTicks": 2,
          "midi": 61,
          "name": "C#4",
          "ticks": 17205,
          "time": 200.0581395348837,
          "velocity": 0.2992125984251969
        },
        {
          "duration": 0.4767441860465169,
          "durationTicks": 41,
          "midi": 69,
          "name": "A4",
          "ticks": 17205,
          "time": 200.0581395348837,
          "velocity": 0.5826771653543307
        },
        {
          "duration": 0.03488372093025305,
          "durationTicks": 3,
          "midi": 82,
          "name": "A#5",
          "ticks": 17205,
          "time": 200.0581395348837,
          "velocity": 0.09448818897637795
        },
        {
          "duration": 0.1511627906976969,
          "durationTicks": 13,
          "midi": 85,
          "name": "C#6",
          "ticks": 17205,
          "time": 200.0581395348837,
          "velocity": 0.2047244094488189
        },
        {
          "duration": 0.19767441860466306,
          "durationTicks": 17,
          "midi": 88,
          "name": "E6",
          "ticks": 17205,
          "time": 200.0581395348837,
          "velocity": 0.2204724409448819
        },
        {
          "duration": 0.04651162790699459,
          "durationTicks": 4,
          "midi": 90,
          "name": "F#6",
          "ticks": 17205,
          "time": 200.0581395348837,
          "velocity": 0.12598425196850394
        },
        {
          "duration": 0.09302325581396076,
          "durationTicks": 8,
          "midi": 93,
          "name": "A6",
          "ticks": 17205,
          "time": 200.0581395348837,
          "velocity": 0.1732283464566929
        },
        {
          "duration": 0.18604651162792152,
          "durationTicks": 16,
          "midi": 95,
          "name": "B6",
          "ticks": 17205,
          "time": 200.0581395348837,
          "velocity": 0.14960629921259844
        },
        {
          "duration": 0.22093023255811772,
          "durationTicks": 19,
          "midi": 50,
          "name": "D3",
          "ticks": 17206,
          "time": 200.06976744186048,
          "velocity": 0.4566929133858268
        },
        {
          "duration": 0.22093023255811772,
          "durationTicks": 19,
          "midi": 57,
          "name": "A3",
          "ticks": 17206,
          "time": 200.06976744186048,
          "velocity": 0.3858267716535433
        },
        {
          "duration": 0.22093023255811772,
          "durationTicks": 19,
          "midi": 72,
          "name": "C5",
          "ticks": 17206,
          "time": 200.06976744186048,
          "velocity": 0.09448818897637795
        },
        {
          "duration": 0.04651162790696617,
          "durationTicks": 4,
          "midi": 38,
          "name": "D2",
          "ticks": 17208,
          "time": 200.09302325581396,
          "velocity": 0.44881889763779526
        },
        {
          "duration": 0.034883720930224626,
          "durationTicks": 3,
          "midi": 91,
          "name": "G6",
          "ticks": 17209,
          "time": 200.1046511627907,
          "velocity": 0.12598425196850394
        },
        {
          "duration": 0.17441860465115155,
          "durationTicks": 15,
          "midi": 66,
          "name": "F#4",
          "ticks": 17210,
          "time": 200.11627906976744,
          "velocity": 0.2204724409448819
        },
        {
          "duration": 0.09302325581396076,
          "durationTicks": 8,
          "midi": 80,
          "name": "G#5",
          "ticks": 17210,
          "time": 200.11627906976744,
          "velocity": 0.10236220472440945
        },
        {
          "duration": 0.3139534883721069,
          "durationTicks": 27,
          "midi": 76,
          "name": "E5",
          "ticks": 17211,
          "time": 200.12790697674419,
          "velocity": 0.08661417322834646
        },
        {
          "duration": 0.04651162790699459,
          "durationTicks": 4,
          "midi": 38,
          "name": "D2",
          "ticks": 17213,
          "time": 200.15116279069767,
          "velocity": 0.30708661417322836
        },
        {
          "duration": 0.04651162790696617,
          "durationTicks": 4,
          "midi": 37,
          "name": "C#2",
          "ticks": 17217,
          "time": 200.19767441860466,
          "velocity": 0.28346456692913385
        },
        {
          "duration": 0.05813953488370771,
          "durationTicks": 5,
          "midi": 38,
          "name": "D2",
          "ticks": 17221,
          "time": 200.24418604651163,
          "velocity": 0.3700787401574803
        },
        {
          "duration": 0.023255813953511506,
          "durationTicks": 2,
          "midi": 47,
          "name": "B2",
          "ticks": 17225,
          "time": 200.2906976744186,
          "velocity": 0.4094488188976378
        },
        {
          "duration": 0.22093023255814614,
          "durationTicks": 19,
          "midi": 57,
          "name": "A3",
          "ticks": 17226,
          "time": 200.30232558139534,
          "velocity": 0.33858267716535434
        },
        {
          "duration": 0.04651162790696617,
          "durationTicks": 4,
          "midi": 39,
          "name": "D#2",
          "ticks": 17227,
          "time": 200.3139534883721,
          "velocity": 0.4645669291338583
        },
        {
          "duration": 0.19767441860463464,
          "durationTicks": 17,
          "midi": 50,
          "name": "D3",
          "ticks": 17227,
          "time": 200.3139534883721,
          "velocity": 0.4251968503937008
        },
        {
          "duration": 0.20930232558137618,
          "durationTicks": 18,
          "midi": 66,
          "name": "F#4",
          "ticks": 17227,
          "time": 200.3139534883721,
          "velocity": 0.18110236220472442
        },
        {
          "duration": 0.20930232558137618,
          "durationTicks": 18,
          "midi": 72,
          "name": "C5",
          "ticks": 17227,
          "time": 200.3139534883721,
          "velocity": 0.14960629921259844
        },
        {
          "duration": 0.034883720930224626,
          "durationTicks": 3,
          "midi": 91,
          "name": "G6",
          "ticks": 17227,
          "time": 200.3139534883721,
          "velocity": 0.07874015748031496
        },
        {
          "duration": 0.04651162790696617,
          "durationTicks": 4,
          "midi": 85,
          "name": "C#6",
          "ticks": 17230,
          "time": 200.34883720930233,
          "velocity": 0.07086614173228346
        },
        {
          "duration": 0.09302325581396076,
          "durationTicks": 8,
          "midi": 38,
          "name": "D2",
          "ticks": 17231,
          "time": 200.36046511627907,
          "velocity": 0.41732283464566927
        },
        {
          "duration": 0.04651162790696617,
          "durationTicks": 4,
          "midi": 38,
          "name": "D2",
          "ticks": 17240,
          "time": 200.46511627906978,
          "velocity": 0.2755905511811024
        },
        {
          "duration": 0.30232558139536536,
          "durationTicks": 26,
          "midi": 74,
          "name": "D5",
          "ticks": 17244,
          "time": 200.51162790697674,
          "velocity": 0.3228346456692913
        },
        {
          "duration": 0.24418604651162923,
          "durationTicks": 21,
          "midi": 83,
          "name": "B5",
          "ticks": 17244,
          "time": 200.51162790697674,
          "velocity": 0.2125984251968504
        },
        {
          "duration": 0.023255813953483084,
          "durationTicks": 2,
          "midi": 44,
          "name": "G#2",
          "ticks": 17245,
          "time": 200.52325581395348,
          "velocity": 0.47244094488188976
        },
        {
          "duration": 0.24418604651162923,
          "durationTicks": 21,
          "midi": 89,
          "name": "F6",
          "ticks": 17245,
          "time": 200.52325581395348,
          "velocity": 0.1732283464566929
        },
        {
          "duration": 0.05813953488373613,
          "durationTicks": 5,
          "midi": 90,
          "name": "F#6",
          "ticks": 17245,
          "time": 200.52325581395348,
          "velocity": 0.12598425196850394
        },
        {
          "duration": 0.023255813953483084,
          "durationTicks": 2,
          "midi": 54,
          "name": "F#3",
          "ticks": 17246,
          "time": 200.53488372093022,
          "velocity": 0.41732283464566927
        },
        {
          "duration": 0.2093023255814046,
          "durationTicks": 18,
          "midi": 62,
          "name": "D4",
          "ticks": 17246,
          "time": 200.53488372093022,
          "velocity": 0.2755905511811024
        },
        {
          "duration": 0.22093023255814614,
          "durationTicks": 19,
          "midi": 67,
          "name": "G4",
          "ticks": 17246,
          "time": 200.53488372093022,
          "velocity": 0.23622047244094488
        },
        {
          "duration": 0.24418604651162923,
          "durationTicks": 21,
          "midi": 77,
          "name": "F5",
          "ticks": 17246,
          "time": 200.53488372093022,
          "velocity": 0.2125984251968504
        },
        {
          "duration": 0.18604651162792152,
          "durationTicks": 16,
          "midi": 81,
          "name": "A5",
          "ticks": 17246,
          "time": 200.53488372093022,
          "velocity": 0.11811023622047244
        },
        {
          "duration": 0.25581395348837077,
          "durationTicks": 22,
          "midi": 85,
          "name": "C#6",
          "ticks": 17246,
          "time": 200.53488372093022,
          "velocity": 0.2204724409448819
        },
        {
          "duration": 0.13953488372092693,
          "durationTicks": 12,
          "midi": 93,
          "name": "A6",
          "ticks": 17246,
          "time": 200.53488372093022,
          "velocity": 0.13385826771653545
        },
        {
          "duration": 0.03488372093025305,
          "durationTicks": 3,
          "midi": 71,
          "name": "B4",
          "ticks": 17247,
          "time": 200.54651162790697,
          "velocity": 0.13385826771653545
        },
        {
          "duration": 0.04651162790699459,
          "durationTicks": 4,
          "midi": 98,
          "name": "D7",
          "ticks": 17247,
          "time": 200.54651162790697,
          "velocity": 0.10236220472440945
        },
        {
          "duration": 0.03488372093025305,
          "durationTicks": 3,
          "midi": 43,
          "name": "G2",
          "ticks": 17248,
          "time": 200.5581395348837,
          "velocity": 0.3937007874015748
        },
        {
          "duration": 0.06976744186044925,
          "durationTicks": 6,
          "midi": 43,
          "name": "G2",
          "ticks": 17252,
          "time": 200.6046511627907,
          "velocity": 0.3779527559055118
        },
        {
          "duration": 0.1046511627907023,
          "durationTicks": 9,
          "midi": 71,
          "name": "B4",
          "ticks": 17252,
          "time": 200.6046511627907,
          "velocity": 0.07874015748031496
        },
        {
          "duration": 0.05813953488373613,
          "durationTicks": 5,
          "midi": 43,
          "name": "G2",
          "ticks": 17259,
          "time": 200.6860465116279,
          "velocity": 0.33070866141732286
        },
        {
          "duration": 0.05813953488370771,
          "durationTicks": 5,
          "midi": 42,
          "name": "F#2",
          "ticks": 17264,
          "time": 200.74418604651163,
          "velocity": 0.4566929133858268
        },
        {
          "duration": 0.2325581395348877,
          "durationTicks": 20,
          "midi": 60,
          "name": "C4",
          "ticks": 17264,
          "time": 200.74418604651163,
          "velocity": 0.3228346456692913
        },
        {
          "duration": 0.2325581395348877,
          "durationTicks": 20,
          "midi": 65,
          "name": "F4",
          "ticks": 17264,
          "time": 200.74418604651163,
          "velocity": 0.2677165354330709
        },
        {
          "duration": 0.22093023255814614,
          "durationTicks": 19,
          "midi": 69,
          "name": "A4",
          "ticks": 17265,
          "time": 200.75581395348837,
          "velocity": 0.1968503937007874
        },
        {
          "duration": 0.034883720930224626,
          "durationTicks": 3,
          "midi": 93,
          "name": "A6",
          "ticks": 17265,
          "time": 200.75581395348837,
          "velocity": 0.07874015748031496
        },
        {
          "duration": 0.04651162790699459,
          "durationTicks": 4,
          "midi": 87,
          "name": "D#6",
          "ticks": 17266,
          "time": 200.7674418604651,
          "velocity": 0.08661417322834646
        },
        {
          "duration": 0.19767441860466306,
          "durationTicks": 17,
          "midi": 53,
          "name": "F3",
          "ticks": 17267,
          "time": 200.77906976744185,
          "velocity": 0.4330708661417323
        },
        {
          "duration": 0.03488372093025305,
          "durationTicks": 3,
          "midi": 83,
          "name": "B5",
          "ticks": 17267,
          "time": 200.77906976744185,
          "velocity": 0.13385826771653545
        },
        {
          "duration": 0.04651162790699459,
          "durationTicks": 4,
          "midi": 96,
          "name": "C7",
          "ticks": 17267,
          "time": 200.77906976744185,
          "velocity": 0.11023622047244094
        },
        {
          "duration": 0.09302325581396076,
          "durationTicks": 8,
          "midi": 79,
          "name": "G5",
          "ticks": 17268,
          "time": 200.7906976744186,
          "velocity": 0.07086614173228346
        },
        {
          "duration": 0.08139534883721922,
          "durationTicks": 7,
          "midi": 41,
          "name": "F2",
          "ticks": 17269,
          "time": 200.80232558139534,
          "velocity": 0.3858267716535433
        },
        {
          "duration": 0.15116279069766847,
          "durationTicks": 13,
          "midi": 75,
          "name": "D#5",
          "ticks": 17271,
          "time": 200.82558139534885,
          "velocity": 0.14173228346456693
        },
        {
          "duration": 0.0813953488371908,
          "durationTicks": 7,
          "midi": 83,
          "name": "B5",
          "ticks": 17271,
          "time": 200.82558139534885,
          "velocity": 0.09448818897637795
        },
        {
          "duration": 0.034883720930224626,
          "durationTicks": 3,
          "midi": 40,
          "name": "E2",
          "ticks": 17276,
          "time": 200.88372093023256,
          "velocity": 0.25984251968503935
        },
        {
          "duration": 0.04651162790699459,
          "durationTicks": 4,
          "midi": 41,
          "name": "F2",
          "ticks": 17279,
          "time": 200.91860465116278,
          "velocity": 0.3228346456692913
        },
        {
          "duration": 0.023255813953483084,
          "durationTicks": 2,
          "midi": 61,
          "name": "C#4",
          "ticks": 17284,
          "time": 200.97674418604652,
          "velocity": 0.48031496062992124
        },
        {
          "duration": 0.34883720930233153,
          "durationTicks": 30,
          "midi": 74,
          "name": "D5",
          "ticks": 17284,
          "time": 200.97674418604652,
          "velocity": 0.48031496062992124
        },
        {
          "duration": 0.034883720930224626,
          "durationTicks": 3,
          "midi": 79,
          "name": "G5",
          "ticks": 17284,
          "time": 200.97674418604652,
          "velocity": 0.14960629921259844
        },
        {
          "duration": 0.2325581395348877,
          "durationTicks": 20,
          "midi": 81,
          "name": "A5",
          "ticks": 17284,
          "time": 200.97674418604652,
          "velocity": 0.28346456692913385
        },
        {
          "duration": 0.19767441860463464,
          "durationTicks": 17,
          "midi": 84,
          "name": "C6",
          "ticks": 17284,
          "time": 200.97674418604652,
          "velocity": 0.15748031496062992
        },
        {
          "duration": 0.2093023255814046,
          "durationTicks": 18,
          "midi": 57,
          "name": "A3",
          "ticks": 17285,
          "time": 200.98837209302326,
          "velocity": 0.31496062992125984
        },
        {
          "duration": 0.33720930232559,
          "durationTicks": 29,
          "midi": 69,
          "name": "A4",
          "ticks": 17285,
          "time": 200.98837209302326,
          "velocity": 0.4251968503937008
        },
        {
          "duration": 0.1046511627907023,
          "durationTicks": 9,
          "midi": 78,
          "name": "F#5",
          "ticks": 17285,
          "time": 200.98837209302326,
          "velocity": 0.14960629921259844
        },
        {
          "duration": 0.24418604651162923,
          "durationTicks": 21,
          "midi": 90,
          "name": "F#6",
          "ticks": 17285,
          "time": 200.98837209302326,
          "velocity": 0.25196850393700787
        },
        {
          "duration": 0.06976744186044925,
          "durationTicks": 6,
          "midi": 97,
          "name": "C#7",
          "ticks": 17285,
          "time": 200.98837209302326,
          "velocity": 0.13385826771653545
        },
        {
          "duration": 0.023255813953483084,
          "durationTicks": 2,
          "midi": 40,
          "name": "E2",
          "ticks": 17286,
          "time": 201,
          "velocity": 0.4645669291338583
        },
        {
          "duration": 0.19767441860466306,
          "durationTicks": 17,
          "midi": 50,
          "name": "D3",
          "ticks": 17286,
          "time": 201,
          "velocity": 0.4645669291338583
        },
        {
          "duration": 0.2093023255814046,
          "durationTicks": 18,
          "midi": 62,
          "name": "D4",
          "ticks": 17286,
          "time": 201,
          "velocity": 0.5354330708661418
        },
        {
          "duration": 0.33720930232559,
          "durationTicks": 29,
          "midi": 72,
          "name": "C5",
          "ticks": 17286,
          "time": 201,
          "velocity": 0.4330708661417323
        },
        {
          "duration": 0.12790697674418539,
          "durationTicks": 11,
          "midi": 88,
          "name": "E6",
          "ticks": 17286,
          "time": 201,
          "velocity": 0.09448818897637795
        },
        {
          "duration": 0.12790697674418539,
          "durationTicks": 11,
          "midi": 76,
          "name": "E5",
          "ticks": 17287,
          "time": 201.01162790697674,
          "velocity": 0.07874015748031496
        },
        {
          "duration": 0.023255813953483084,
          "durationTicks": 2,
          "midi": 39,
          "name": "D#2",
          "ticks": 17288,
          "time": 201.02325581395348,
          "velocity": 0.4566929133858268
        },
        {
          "duration": 0.17441860465117998,
          "durationTicks": 15,
          "midi": 66,
          "name": "F#4",
          "ticks": 17288,
          "time": 201.02325581395348,
          "velocity": 0.2204724409448819
        },
        {
          "duration": 0.09302325581396076,
          "durationTicks": 8,
          "midi": 80,
          "name": "G#5",
          "ticks": 17290,
          "time": 201.04651162790697,
          "velocity": 0.07086614173228346
        },
        {
          "duration": 0.06976744186044925,
          "durationTicks": 6,
          "midi": 38,
          "name": "D2",
          "ticks": 17292,
          "time": 201.06976744186048,
          "velocity": 0.3464566929133858
        },
        {
          "duration": 0.023255813953483084,
          "durationTicks": 2,
          "midi": 37,
          "name": "C#2",
          "ticks": 17298,
          "time": 201.13953488372093,
          "velocity": 0.25196850393700787
        },
        {
          "duration": 0.03488372093025305,
          "durationTicks": 3,
          "midi": 38,
          "name": "D2",
          "ticks": 17300,
          "time": 201.1627906976744,
          "velocity": 0.28346456692913385
        },
        {
          "duration": 0.03488372093025305,
          "durationTicks": 3,
          "midi": 88,
          "name": "E6",
          "ticks": 17302,
          "time": 201.1860465116279,
          "velocity": 0.10236220472440945
        },
        {
          "duration": 0.15116279069766847,
          "durationTicks": 13,
          "midi": 65,
          "name": "F4",
          "ticks": 17303,
          "time": 201.19767441860466,
          "velocity": 0.5354330708661418
        },
        {
          "duration": 0.1046511627907023,
          "durationTicks": 9,
          "midi": 53,
          "name": "F3",
          "ticks": 17304,
          "time": 201.2093023255814,
          "velocity": 0.5511811023622047
        },
        {
          "duration": 0.034883720930224626,
          "durationTicks": 3,
          "midi": 79,
          "name": "G5",
          "ticks": 17304,
          "time": 201.2093023255814,
          "velocity": 0.11811023622047244
        },
        {
          "duration": 0.11627906976744384,
          "durationTicks": 10,
          "midi": 87,
          "name": "D#6",
          "ticks": 17304,
          "time": 201.2093023255814,
          "velocity": 0.1732283464566929
        },
        {
          "duration": 0.034883720930224626,
          "durationTicks": 3,
          "midi": 91,
          "name": "G6",
          "ticks": 17304,
          "time": 201.2093023255814,
          "velocity": 0.15748031496062992
        },
        {
          "duration": 0.05813953488370771,
          "durationTicks": 5,
          "midi": 100,
          "name": "E7",
          "ticks": 17304,
          "time": 201.2093023255814,
          "velocity": 0.14173228346456693
        },
        {
          "duration": 0.12790697674418539,
          "durationTicks": 11,
          "midi": 101,
          "name": "F7",
          "ticks": 17304,
          "time": 201.2093023255814,
          "velocity": 0.08661417322834646
        },
        {
          "duration": 0.034883720930224626,
          "durationTicks": 3,
          "midi": 95,
          "name": "B6",
          "ticks": 17305,
          "time": 201.22093023255815,
          "velocity": 0.07086614173228346
        },
        {
          "duration": 0.023255813953483084,
          "durationTicks": 2,
          "midi": 39,
          "name": "D#2",
          "ticks": 17307,
          "time": 201.24418604651163,
          "velocity": 0.4566929133858268
        },
        {
          "duration": 0.05813953488373613,
          "durationTicks": 5,
          "midi": 38,
          "name": "D2",
          "ticks": 17309,
          "time": 201.2674418604651,
          "velocity": 0.4330708661417323
        },
        {
          "duration": 0.06976744186047767,
          "durationTicks": 6,
          "midi": 91,
          "name": "G6",
          "ticks": 17309,
          "time": 201.2674418604651,
          "velocity": 0.14173228346456693
        },
        {
          "duration": 0.023255813953483084,
          "durationTicks": 2,
          "midi": 62,
          "name": "D4",
          "ticks": 17313,
          "time": 201.3139534883721,
          "velocity": 0.28346456692913385
        },
        {
          "duration": 0.04651162790696617,
          "durationTicks": 4,
          "midi": 51,
          "name": "D#3",
          "ticks": 17314,
          "time": 201.32558139534885,
          "velocity": 0.5196850393700787
        },
        {
          "duration": 0.04651162790696617,
          "durationTicks": 4,
          "midi": 57,
          "name": "A3",
          "ticks": 17314,
          "time": 201.32558139534885,
          "velocity": 0.4251968503937008
        },
        {
          "duration": 0.44186046511626387,
          "durationTicks": 38,
          "midi": 76,
          "name": "E5",
          "ticks": 17314,
          "time": 201.32558139534885,
          "velocity": 0.48031496062992124
        },
        {
          "duration": 0.15116279069766847,
          "durationTicks": 13,
          "midi": 83,
          "name": "B5",
          "ticks": 17314,
          "time": 201.32558139534885,
          "velocity": 0.2677165354330709
        },
        {
          "duration": 0.15116279069766847,
          "durationTicks": 13,
          "midi": 92,
          "name": "G#6",
          "ticks": 17314,
          "time": 201.32558139534885,
          "velocity": 0.2283464566929134
        },
        {
          "duration": 0.023255813953483084,
          "durationTicks": 2,
          "midi": 41,
          "name": "F2",
          "ticks": 17315,
          "time": 201.3372093023256,
          "velocity": 0.3700787401574803
        },
        {
          "duration": 0.13953488372092693,
          "durationTicks": 12,
          "midi": 71,
          "name": "B4",
          "ticks": 17315,
          "time": 201.3372093023256,
          "velocity": 0.4566929133858268
        },
        {
          "duration": 0.1046511627907023,
          "durationTicks": 9,
          "midi": 80,
          "name": "G#5",
          "ticks": 17315,
          "time": 201.3372093023256,
          "velocity": 0.2204724409448819
        },
        {
          "duration": 0.4186046511627808,
          "durationTicks": 36,
          "midi": 90,
          "name": "F#6",
          "ticks": 17315,
          "time": 201.3372093023256,
          "velocity": 0.25196850393700787
        },
        {
          "duration": 0.04651162790696617,
          "durationTicks": 4,
          "midi": 98,
          "name": "D7",
          "ticks": 17315,
          "time": 201.3372093023256,
          "velocity": 0.11023622047244094
        },
        {
          "duration": 0.06976744186044925,
          "durationTicks": 6,
          "midi": 99,
          "name": "D#7",
          "ticks": 17315,
          "time": 201.3372093023256,
          "velocity": 0.14960629921259844
        },
        {
          "duration": 0.034883720930224626,
          "durationTicks": 3,
          "midi": 100,
          "name": "E7",
          "ticks": 17315,
          "time": 201.3372093023256,
          "velocity": 0.11023622047244094
        },
        {
          "duration": 0.0813953488371908,
          "durationTicks": 7,
          "midi": 64,
          "name": "E4",
          "ticks": 17316,
          "time": 201.34883720930233,
          "velocity": 0.5354330708661418
        },
        {
          "duration": 0.09302325581396076,
          "durationTicks": 8,
          "midi": 86,
          "name": "D6",
          "ticks": 17316,
          "time": 201.34883720930233,
          "velocity": 0.1889763779527559
        },
        {
          "duration": 0.023255813953483084,
          "durationTicks": 2,
          "midi": 38,
          "name": "D2",
          "ticks": 17317,
          "time": 201.36046511627907,
          "velocity": 0.3464566929133858
        },
        {
          "duration": 0.06976744186047767,
          "durationTicks": 6,
          "midi": 91,
          "name": "G6",
          "ticks": 17318,
          "time": 201.37209302325581,
          "velocity": 0.11023622047244094
        },
        {
          "duration": 0.023255813953483084,
          "durationTicks": 2,
          "midi": 39,
          "name": "D#2",
          "ticks": 17319,
          "time": 201.38372093023256,
          "velocity": 0.4015748031496063
        },
        {
          "duration": 0.011627906976741542,
          "durationTicks": 1,
          "midi": 52,
          "name": "E3",
          "ticks": 17320,
          "time": 201.3953488372093,
          "velocity": 0.5196850393700787
        },
        {
          "duration": 0.03488372093025305,
          "durationTicks": 3,
          "midi": 38,
          "name": "D2",
          "ticks": 17321,
          "time": 201.40697674418604,
          "velocity": 0.3937007874015748
        },
        {
          "duration": 0.011627906976741542,
          "durationTicks": 1,
          "midi": 51,
          "name": "D#3",
          "ticks": 17321,
          "time": 201.40697674418604,
          "velocity": 0.5433070866141733
        },
        {
          "duration": 0.22093023255814614,
          "durationTicks": 19,
          "midi": 62,
          "name": "D4",
          "ticks": 17322,
          "time": 201.41860465116278,
          "velocity": 0.5118110236220472
        },
        {
          "duration": 0.25581395348837077,
          "durationTicks": 22,
          "midi": 81,
          "name": "A5",
          "ticks": 17322,
          "time": 201.41860465116278,
          "velocity": 0.2755905511811024
        },
        {
          "duration": 0.011627906976769964,
          "durationTicks": 1,
          "midi": 48,
          "name": "C3",
          "ticks": 17323,
          "time": 201.43023255813952,
          "velocity": 0.5196850393700787
        },
        {
          "duration": 0.24418604651162923,
          "durationTicks": 21,
          "midi": 69,
          "name": "A4",
          "ticks": 17323,
          "time": 201.43023255813952,
          "velocity": 0.4251968503937008
        },
        {
          "duration": 0.04651162790699459,
          "durationTicks": 4,
          "midi": 87,
          "name": "D#6",
          "ticks": 17323,
          "time": 201.43023255813952,
          "velocity": 0.09448818897637795
        },
        {
          "duration": 0.04651162790699459,
          "durationTicks": 4,
          "midi": 96,
          "name": "C7",
          "ticks": 17323,
          "time": 201.43023255813952,
          "velocity": 0.15748031496062992
        },
        {
          "duration": 0.06976744186047767,
          "durationTicks": 6,
          "midi": 97,
          "name": "C#7",
          "ticks": 17323,
          "time": 201.43023255813952,
          "velocity": 0.1732283464566929
        },
        {
          "duration": 0.22093023255811772,
          "durationTicks": 19,
          "midi": 85,
          "name": "C#6",
          "ticks": 17324,
          "time": 201.4418604651163,
          "velocity": 0.25984251968503935
        },
        {
          "duration": 0.011627906976741542,
          "durationTicks": 1,
          "midi": 44,
          "name": "G#2",
          "ticks": 17325,
          "time": 201.45348837209303,
          "velocity": 0.5275590551181102
        },
        {
          "duration": 0.034883720930224626,
          "durationTicks": 3,
          "midi": 50,
          "name": "D3",
          "ticks": 17325,
          "time": 201.45348837209303,
          "velocity": 0.5826771653543307
        },
        {
          "duration": 0.034883720930224626,
          "durationTicks": 3,
          "midi": 79,
          "name": "G5",
          "ticks": 17325,
          "time": 201.45348837209303,
          "velocity": 0.15748031496062992
        },
        {
          "duration": 0.05813953488370771,
          "durationTicks": 5,
          "midi": 84,
          "name": "C6",
          "ticks": 17327,
          "time": 201.47674418604652,
          "velocity": 0.1732283464566929
        },
        {
          "duration": 0.023255813953483084,
          "durationTicks": 2,
          "midi": 49,
          "name": "C#3",
          "ticks": 17328,
          "time": 201.48837209302326,
          "velocity": 0.48031496062992124
        },
        {
          "duration": 0.023255813953483084,
          "durationTicks": 2,
          "midi": 71,
          "name": "B4",
          "ticks": 17328,
          "time": 201.48837209302326,
          "velocity": 0.23622047244094488
        },
        {
          "duration": 0.034883720930224626,
          "durationTicks": 3,
          "midi": 50,
          "name": "D3",
          "ticks": 17330,
          "time": 201.51162790697674,
          "velocity": 0.5354330708661418
        },
        {
          "duration": 0.04651162790699459,
          "durationTicks": 4,
          "midi": 71,
          "name": "B4",
          "ticks": 17331,
          "time": 201.52325581395348,
          "velocity": 0.11811023622047244
        },
        {
          "duration": 0.04651162790699459,
          "durationTicks": 4,
          "midi": 79,
          "name": "G5",
          "ticks": 17331,
          "time": 201.52325581395348,
          "velocity": 0.10236220472440945
        },
        {
          "duration": 0.034883720930224626,
          "durationTicks": 3,
          "midi": 83,
          "name": "B5",
          "ticks": 17331,
          "time": 201.52325581395348,
          "velocity": 0.15748031496062992
        },
        {
          "duration": 0.05813953488373613,
          "durationTicks": 5,
          "midi": 67,
          "name": "G4",
          "ticks": 17332,
          "time": 201.53488372093022,
          "velocity": 0.13385826771653545
        },
        {
          "duration": 0.05813953488373613,
          "durationTicks": 5,
          "midi": 78,
          "name": "F#5",
          "ticks": 17333,
          "time": 201.54651162790697,
          "velocity": 0.11023622047244094
        },
        {
          "duration": 0.09302325581396076,
          "durationTicks": 8,
          "midi": 84,
          "name": "C6",
          "ticks": 17333,
          "time": 201.54651162790697,
          "velocity": 0.11811023622047244
        },
        {
          "duration": 0.023255813953483084,
          "durationTicks": 2,
          "midi": 49,
          "name": "C#3",
          "ticks": 17337,
          "time": 201.59302325581396,
          "velocity": 0.4330708661417323
        },
        {
          "duration": 0.04651162790696617,
          "durationTicks": 4,
          "midi": 67,
          "name": "G4",
          "ticks": 17338,
          "time": 201.6046511627907,
          "velocity": 0.10236220472440945
        },
        {
          "duration": 0.034883720930224626,
          "durationTicks": 3,
          "midi": 45,
          "name": "A2",
          "ticks": 17340,
          "time": 201.62790697674419,
          "velocity": 0.3858267716535433
        },
        {
          "duration": 0.034883720930224626,
          "durationTicks": 3,
          "midi": 50,
          "name": "D3",
          "ticks": 17340,
          "time": 201.62790697674419,
          "velocity": 0.4251968503937008
        },
        {
          "duration": 0.034883720930224626,
          "durationTicks": 3,
          "midi": 78,
          "name": "F#5",
          "ticks": 17340,
          "time": 201.62790697674419,
          "velocity": 0.09448818897637795
        },
        {
          "duration": 0.2790697674418823,
          "durationTicks": 24,
          "midi": 79,
          "name": "G5",
          "ticks": 17343,
          "time": 201.6627906976744,
          "velocity": 0.28346456692913385
        },
        {
          "duration": 0.08139534883721922,
          "durationTicks": 7,
          "midi": 84,
          "name": "C6",
          "ticks": 17343,
          "time": 201.6627906976744,
          "velocity": 0.1968503937007874
        },
        {
          "duration": 0.011627906976741542,
          "durationTicks": 1,
          "midi": 48,
          "name": "C3",
          "ticks": 17344,
          "time": 201.67441860465115,
          "velocity": 0.5590551181102362
        },
        {
          "duration": 0.22093023255814614,
          "durationTicks": 19,
          "midi": 55,
          "name": "G3",
          "ticks": 17344,
          "time": 201.67441860465115,
          "velocity": 0.36220472440944884
        },
        {
          "duration": 0.22093023255814614,
          "durationTicks": 19,
          "midi": 67,
          "name": "G4",
          "ticks": 17344,
          "time": 201.67441860465115,
          "velocity": 0.4566929133858268
        },
        {
          "duration": 0.05813953488373613,
          "durationTicks": 5,
          "midi": 94,
          "name": "A#6",
          "ticks": 17344,
          "time": 201.67441860465115,
          "velocity": 0.09448818897637795
        },
        {
          "duration": 0.08139534883721922,
          "durationTicks": 7,
          "midi": 95,
          "name": "B6",
          "ticks": 17344,
          "time": 201.67441860465115,
          "velocity": 0.16535433070866143
        },
        {
          "duration": 0.023255813953511506,
          "durationTicks": 2,
          "midi": 47,
          "name": "B2",
          "ticks": 17345,
          "time": 201.6860465116279,
          "velocity": 0.4881889763779528
        },
        {
          "duration": 0.023255813953511506,
          "durationTicks": 2,
          "midi": 70,
          "name": "A#4",
          "ticks": 17345,
          "time": 201.6860465116279,
          "velocity": 0.25984251968503935
        },
        {
          "duration": 0.06976744186047767,
          "durationTicks": 6,
          "midi": 74,
          "name": "D5",
          "ticks": 17345,
          "time": 201.6860465116279,
          "velocity": 0.2677165354330709
        },
        {
          "duration": 0.04651162790699459,
          "durationTicks": 4,
          "midi": 78,
          "name": "F#5",
          "ticks": 17345,
          "time": 201.6860465116279,
          "velocity": 0.14960629921259844
        },
        {
          "duration": 0.04651162790696617,
          "durationTicks": 4,
          "midi": 37,
          "name": "C#2",
          "ticks": 17346,
          "time": 201.69767441860466,
          "velocity": 0.47244094488188976
        },
        {
          "duration": 0.17441860465115155,
          "durationTicks": 15,
          "midi": 64,
          "name": "E4",
          "ticks": 17347,
          "time": 201.7093023255814,
          "velocity": 0.2204724409448819
        },
        {
          "duration": 0.04651162790696617,
          "durationTicks": 4,
          "midi": 83,
          "name": "B5",
          "ticks": 17347,
          "time": 201.7093023255814,
          "velocity": 0.07874015748031496
        },
        {
          "duration": 0.023255813953483084,
          "durationTicks": 2,
          "midi": 48,
          "name": "C3",
          "ticks": 17348,
          "time": 201.72093023255815,
          "velocity": 0.4409448818897638
        },
        {
          "duration": 0.15116279069766847,
          "durationTicks": 13,
          "midi": 82,
          "name": "A#5",
          "ticks": 17349,
          "time": 201.7325581395349,
          "velocity": 0.14173228346456693
        },
        {
          "duration": 0.09302325581396076,
          "durationTicks": 8,
          "midi": 36,
          "name": "C2",
          "ticks": 17350,
          "time": 201.74418604651163,
          "velocity": 0.4094488188976378
        },
        {
          "duration": 0.023255813953483084,
          "durationTicks": 2,
          "midi": 49,
          "name": "C#3",
          "ticks": 17350,
          "time": 201.74418604651163,
          "velocity": 0.3543307086614173
        },
        {
          "duration": 0.05813953488373613,
          "durationTicks": 5,
          "midi": 78,
          "name": "F#5",
          "ticks": 17351,
          "time": 201.75581395348837,
          "velocity": 0.09448818897637795
        },
        {
          "duration": 0.06976744186047767,
          "durationTicks": 6,
          "midi": 96,
          "name": "C7",
          "ticks": 17351,
          "time": 201.75581395348837,
          "velocity": 0.07086614173228346
        },
        {
          "duration": 0.023255813953483084,
          "durationTicks": 2,
          "midi": 47,
          "name": "B2",
          "ticks": 17352,
          "time": 201.7674418604651,
          "velocity": 0.31496062992125984
        },
        {
          "duration": 0.03488372093025305,
          "durationTicks": 3,
          "midi": 70,
          "name": "A#4",
          "ticks": 17355,
          "time": 201.80232558139534,
          "velocity": 0.10236220472440945
        },
        {
          "duration": 0.023255813953483084,
          "durationTicks": 2,
          "midi": 35,
          "name": "B1",
          "ticks": 17358,
          "time": 201.8372093023256,
          "velocity": 0.2677165354330709
        },
        {
          "duration": 0.023255813953483084,
          "durationTicks": 2,
          "midi": 49,
          "name": "C#3",
          "ticks": 17361,
          "time": 201.87209302325581,
          "velocity": 0.4094488188976378
        },
        {
          "duration": 0.5348837209302246,
          "durationTicks": 46,
          "midi": 74,
          "name": "D5",
          "ticks": 17361,
          "time": 201.87209302325581,
          "velocity": 0.47244094488188976
        },
        {
          "duration": 0.5930232558139608,
          "durationTicks": 51,
          "midi": 81,
          "name": "A5",
          "ticks": 17362,
          "time": 201.88372093023256,
          "velocity": 0.29133858267716534
        },
        {
          "duration": 0.2906976744185954,
          "durationTicks": 25,
          "midi": 90,
          "name": "F#6",
          "ticks": 17362,
          "time": 201.88372093023256,
          "velocity": 0.2440944881889764
        },
        {
          "duration": 0.24418604651162923,
          "durationTicks": 21,
          "midi": 50,
          "name": "D3",
          "ticks": 17363,
          "time": 201.8953488372093,
          "velocity": 0.48031496062992124
        },
        {
          "duration": 0.023255813953483084,
          "durationTicks": 2,
          "midi": 61,
          "name": "C#4",
          "ticks": 17363,
          "time": 201.8953488372093,
          "velocity": 0.5433070866141733
        },
        {
          "duration": 0.24418604651162923,
          "durationTicks": 21,
          "midi": 69,
          "name": "A4",
          "ticks": 17363,
          "time": 201.8953488372093,
          "velocity": 0.4330708661417323
        },
        {
          "duration": 0.06976744186047767,
          "durationTicks": 6,
          "midi": 97,
          "name": "C#7",
          "ticks": 17363,
          "time": 201.8953488372093,
          "velocity": 0.13385826771653545
        },
        {
          "duration": 0.09302325581396076,
          "durationTicks": 8,
          "midi": 72,
          "name": "C5",
          "ticks": 17364,
          "time": 201.90697674418604,
          "velocity": 0.2755905511811024
        },
        {
          "duration": 0.1046511627907023,
          "durationTicks": 9,
          "midi": 78,
          "name": "F#5",
          "ticks": 17364,
          "time": 201.90697674418604,
          "velocity": 0.15748031496062992
        },
        {
          "duration": 0.2093023255814046,
          "durationTicks": 18,
          "midi": 62,
          "name": "D4",
          "ticks": 17365,
          "time": 201.91860465116278,
          "velocity": 0.5354330708661418
        },
        {
          "duration": 0.2093023255814046,
          "durationTicks": 18,
          "midi": 66,
          "name": "F#4",
          "ticks": 17365,
          "time": 201.91860465116278,
          "velocity": 0.25984251968503935
        },
        {
          "duration": 0.17441860465117998,
          "durationTicks": 15,
          "midi": 76,
          "name": "E5",
          "ticks": 17365,
          "time": 201.91860465116278,
          "velocity": 0.12598425196850394
        },
        {
          "duration": 0.06976744186047767,
          "durationTicks": 6,
          "midi": 38,
          "name": "D2",
          "ticks": 17366,
          "time": 201.93023255813952,
          "velocity": 0.4645669291338583
        },
        {
          "duration": 0.19767441860466306,
          "durationTicks": 17,
          "midi": 57,
          "name": "A3",
          "ticks": 17366,
          "time": 201.93023255813952,
          "velocity": 0.3464566929133858
        },
        {
          "duration": 0.023255813953483084,
          "durationTicks": 2,
          "midi": 38,
          "name": "D2",
          "ticks": 17373,
          "time": 202.01162790697674,
          "velocity": 0.2755905511811024
        },
        {
          "duration": 0.08139534883721922,
          "durationTicks": 7,
          "midi": 72,
          "name": "C5",
          "ticks": 17374,
          "time": 202.02325581395348,
          "velocity": 0.14960629921259844
        },
        {
          "duration": 0.03488372093025305,
          "durationTicks": 3,
          "midi": 37,
          "name": "C#2",
          "ticks": 17375,
          "time": 202.03488372093022,
          "velocity": 0.29133858267716534
        },
        {
          "duration": 0.06976744186044925,
          "durationTicks": 6,
          "midi": 38,
          "name": "D2",
          "ticks": 17378,
          "time": 202.06976744186048,
          "velocity": 0.36220472440944884
        },
        {
          "duration": 0.023255813953483084,
          "durationTicks": 2,
          "midi": 40,
          "name": "E2",
          "ticks": 17384,
          "time": 202.13953488372093,
          "velocity": 0.4566929133858268
        },
        {
          "duration": 0.2325581395348877,
          "durationTicks": 20,
          "midi": 72,
          "name": "C5",
          "ticks": 17384,
          "time": 202.13953488372093,
          "velocity": 0.16535433070866143
        },
        {
          "duration": 0.38372093023255616,
          "durationTicks": 33,
          "midi": 76,
          "name": "E5",
          "ticks": 17384,
          "time": 202.13953488372093,
          "velocity": 0.13385826771653545
        },
        {
          "duration": 0.034883720930224626,
          "durationTicks": 3,
          "midi": 79,
          "name": "G5",
          "ticks": 17384,
          "time": 202.13953488372093,
          "velocity": 0.09448818897637795
        },
        {
          "duration": 0.19767441860466306,
          "durationTicks": 17,
          "midi": 50,
          "name": "D3",
          "ticks": 17385,
          "time": 202.15116279069767,
          "velocity": 0.47244094488188976
        },
        {
          "duration": 0.4418604651162923,
          "durationTicks": 38,
          "midi": 57,
          "name": "A3",
          "ticks": 17385,
          "time": 202.15116279069767,
          "velocity": 0.29133858267716534
        },
        {
          "duration": 0.22093023255814614,
          "durationTicks": 19,
          "midi": 66,
          "name": "F#4",
          "ticks": 17385,
          "time": 202.15116279069767,
          "velocity": 0.1889763779527559
        },
        {
          "duration": 0.034883720930224626,
          "durationTicks": 3,
          "midi": 82,
          "name": "A#5",
          "ticks": 17385,
          "time": 202.15116279069767,
          "velocity": 0.07874015748031496
        },
        {
          "duration": 0.03488372093025305,
          "durationTicks": 3,
          "midi": 39,
          "name": "D#2",
          "ticks": 17386,
          "time": 202.1627906976744,
          "velocity": 0.4645669291338583
        },
        {
          "duration": 0.04651162790699459,
          "durationTicks": 4,
          "midi": 90,
          "name": "F#6",
          "ticks": 17388,
          "time": 202.1860465116279,
          "velocity": 0.13385826771653545
        },
        {
          "duration": 0.09302325581393234,
          "durationTicks": 8,
          "midi": 38,
          "name": "D2",
          "ticks": 17389,
          "time": 202.19767441860466,
          "velocity": 0.4251968503937008
        },
        {
          "duration": 0.04651162790699459,
          "durationTicks": 4,
          "midi": 38,
          "name": "D2",
          "ticks": 17398,
          "time": 202.30232558139534,
          "velocity": 0.2755905511811024
        },
        {
          "duration": 0.4302325581395223,
          "durationTicks": 37,
          "midi": 85,
          "name": "C#6",
          "ticks": 17402,
          "time": 202.34883720930233,
          "velocity": 0.2755905511811024
        },
        {
          "duration": 0.27906976744185386,
          "durationTicks": 24,
          "midi": 79,
          "name": "G5",
          "ticks": 17403,
          "time": 202.36046511627907,
          "velocity": 0.1968503937007874
        },
        {
          "duration": 0.2093023255814046,
          "durationTicks": 18,
          "midi": 45,
          "name": "A2",
          "ticks": 17404,
          "time": 202.37209302325581,
          "velocity": 0.49606299212598426
        },
        {
          "duration": 0.22093023255814614,
          "durationTicks": 19,
          "midi": 67,
          "name": "G4",
          "ticks": 17404,
          "time": 202.37209302325581,
          "velocity": 0.2125984251968504
        },
        {
          "duration": 0.09302325581396076,
          "durationTicks": 8,
          "midi": 83,
          "name": "B5",
          "ticks": 17404,
          "time": 202.37209302325581,
          "velocity": 0.11811023622047244
        },
        {
          "duration": 0.023255813953483084,
          "durationTicks": 2,
          "midi": 62,
          "name": "D4",
          "ticks": 17405,
          "time": 202.38372093023256,
          "velocity": 0.2440944881889764
        },
        {
          "duration": 0.034883720930224626,
          "durationTicks": 3,
          "midi": 73,
          "name": "C#5",
          "ticks": 17406,
          "time": 202.3953488372093,
          "velocity": 0.1732283464566929
        },
        {
          "duration": 0.03488372093025305,
          "durationTicks": 3,
          "midi": 61,
          "name": "C#4",
          "ticks": 17407,
          "time": 202.40697674418604,
          "velocity": 0.31496062992125984
        },
        {
          "duration": 0.09302325581396076,
          "durationTicks": 8,
          "midi": 74,
          "name": "D5",
          "ticks": 17408,
          "time": 202.41860465116278,
          "velocity": 0.29133858267716534
        },
        {
          "duration": 0.15116279069766847,
          "durationTicks": 13,
          "midi": 62,
          "name": "D4",
          "ticks": 17410,
          "time": 202.4418604651163,
          "velocity": 0.2992125984251969
        },
        {
          "duration": 0.023255813953483084,
          "durationTicks": 2,
          "midi": 44,
          "name": "G#2",
          "ticks": 17422,
          "time": 202.58139534883722,
          "velocity": 0.5590551181102362
        },
        {
          "duration": 0.023255813953483084,
          "durationTicks": 2,
          "midi": 70,
          "name": "A#4",
          "ticks": 17422,
          "time": 202.58139534883722,
          "velocity": 0.36220472440944884
        },
        {
          "duration": 0.17441860465115155,
          "durationTicks": 15,
          "midi": 88,
          "name": "E6",
          "ticks": 17422,
          "time": 202.58139534883722,
          "velocity": 0.1968503937007874
        },
        {
          "duration": 0.10465116279067388,
          "durationTicks": 9,
          "midi": 91,
          "name": "G6",
          "ticks": 17422,
          "time": 202.58139534883722,
          "velocity": 0.2677165354330709
        },
        {
          "duration": 0.034883720930224626,
          "durationTicks": 3,
          "midi": 58,
          "name": "A#3",
          "ticks": 17423,
          "time": 202.59302325581396,
          "velocity": 0.3228346456692913
        },
        {
          "duration": 0.05813953488370771,
          "durationTicks": 5,
          "midi": 64,
          "name": "E4",
          "ticks": 17423,
          "time": 202.59302325581396,
          "velocity": 0.2992125984251969
        },
        {
          "duration": 0.04651162790696617,
          "durationTicks": 4,
          "midi": 74,
          "name": "D5",
          "ticks": 17423,
          "time": 202.59302325581396,
          "velocity": 0.23622047244094488
        },
        {
          "duration": 0.5,
          "durationTicks": 43,
          "midi": 76,
          "name": "E5",
          "ticks": 17423,
          "time": 202.59302325581396,
          "velocity": 0.2992125984251969
        },
        {
          "duration": 0.44186046511626387,
          "durationTicks": 38,
          "midi": 81,
          "name": "A5",
          "ticks": 17423,
          "time": 202.59302325581396,
          "velocity": 0.2440944881889764
        },
        {
          "duration": 0.16279069767441,
          "durationTicks": 14,
          "midi": 83,
          "name": "B5",
          "ticks": 17423,
          "time": 202.59302325581396,
          "velocity": 0.14960629921259844
        },
        {
          "duration": 0.11627906976744384,
          "durationTicks": 10,
          "midi": 92,
          "name": "G#6",
          "ticks": 17423,
          "time": 202.59302325581396,
          "velocity": 0.08661417322834646
        },
        {
          "duration": 0.11627906976744384,
          "durationTicks": 10,
          "midi": 95,
          "name": "B6",
          "ticks": 17423,
          "time": 202.59302325581396,
          "velocity": 0.2283464566929134
        },
        {
          "duration": 0.011627906976741542,
          "durationTicks": 1,
          "midi": 47,
          "name": "B2",
          "ticks": 17424,
          "time": 202.6046511627907,
          "velocity": 0.5433070866141733
        },
        {
          "duration": 0.19767441860463464,
          "durationTicks": 17,
          "midi": 69,
          "name": "A4",
          "ticks": 17424,
          "time": 202.6046511627907,
          "velocity": 0.4330708661417323
        },
        {
          "duration": 0.13953488372092693,
          "durationTicks": 12,
          "midi": 73,
          "name": "C#5",
          "ticks": 17424,
          "time": 202.6046511627907,
          "velocity": 0.11811023622047244
        },
        {
          "duration": 0.2093023255814046,
          "durationTicks": 18,
          "midi": 87,
          "name": "D#6",
          "ticks": 17424,
          "time": 202.6046511627907,
          "velocity": 0.1968503937007874
        },
        {
          "duration": 0.04651162790696617,
          "durationTicks": 4,
          "midi": 78,
          "name": "F#5",
          "ticks": 17425,
          "time": 202.61627906976744,
          "velocity": 0.11023622047244094
        },
        {
          "duration": 0.16279069767441,
          "durationTicks": 14,
          "midi": 55,
          "name": "G3",
          "ticks": 17427,
          "time": 202.63953488372093,
          "velocity": 0.3228346456692913
        },
        {
          "duration": 0.023255813953483084,
          "durationTicks": 2,
          "midi": 37,
          "name": "C#2",
          "ticks": 17428,
          "time": 202.65116279069767,
          "velocity": 0.44881889763779526
        },
        {
          "duration": 0.023255813953483084,
          "durationTicks": 2,
          "midi": 47,
          "name": "B2",
          "ticks": 17428,
          "time": 202.65116279069767,
          "velocity": 0.47244094488188976
        },
        {
          "duration": 0.15116279069766847,
          "durationTicks": 13,
          "midi": 60,
          "name": "C4",
          "ticks": 17428,
          "time": 202.65116279069767,
          "velocity": 0.23622047244094488
        },
        {
          "duration": 0.3720930232558146,
          "durationTicks": 32,
          "midi": 79,
          "name": "G5",
          "ticks": 17429,
          "time": 202.6627906976744,
          "velocity": 0.25196850393700787
        },
        {
          "duration": 0.06976744186047767,
          "durationTicks": 6,
          "midi": 36,
          "name": "C2",
          "ticks": 17430,
          "time": 202.67441860465115,
          "velocity": 0.3937007874015748
        },
        {
          "duration": 0.023255813953511506,
          "durationTicks": 2,
          "midi": 48,
          "name": "C3",
          "ticks": 17430,
          "time": 202.67441860465115,
          "velocity": 0.41732283464566927
        },
        {
          "duration": 0.17441860465115155,
          "durationTicks": 15,
          "midi": 64,
          "name": "E4",
          "ticks": 17432,
          "time": 202.69767441860466,
          "velocity": 0.3228346456692913
        },
        {
          "duration": 0.04651162790696617,
          "durationTicks": 4,
          "midi": 95,
          "name": "B6",
          "ticks": 17437,
          "time": 202.75581395348837,
          "velocity": 0.10236220472440945
        },
        {
          "duration": 0.03488372093025305,
          "durationTicks": 3,
          "midi": 74,
          "name": "D5",
          "ticks": 17440,
          "time": 202.7906976744186,
          "velocity": 0.16535433070866143
        },
        {
          "duration": 0.023255813953511506,
          "durationTicks": 2,
          "midi": 56,
          "name": "G#3",
          "ticks": 17441,
          "time": 202.80232558139534,
          "velocity": 0.4330708661417323
        },
        {
          "duration": 0.023255813953511506,
          "durationTicks": 2,
          "midi": 70,
          "name": "A#4",
          "ticks": 17441,
          "time": 202.80232558139534,
          "velocity": 0.33070866141732286
        },
        {
          "duration": 0.17441860465117998,
          "durationTicks": 15,
          "midi": 85,
          "name": "C#6",
          "ticks": 17441,
          "time": 202.80232558139534,
          "velocity": 0.2204724409448819
        },
        {
          "duration": 0.03488372093025305,
          "durationTicks": 3,
          "midi": 86,
          "name": "D6",
          "ticks": 17441,
          "time": 202.80232558139534,
          "velocity": 0.28346456692913385
        },
        {
          "duration": 0.13953488372095535,
          "durationTicks": 12,
          "midi": 92,
          "name": "G#6",
          "ticks": 17441,
          "time": 202.80232558139534,
          "velocity": 0.16535433070866143
        },
        {
          "duration": 0.011627906976741542,
          "durationTicks": 1,
          "midi": 44,
          "name": "G#2",
          "ticks": 17442,
          "time": 202.8139534883721,
          "velocity": 0.5433070866141733
        },
        {
          "duration": 0.023255813953483084,
          "durationTicks": 2,
          "midi": 61,
          "name": "C#4",
          "ticks": 17442,
          "time": 202.8139534883721,
          "velocity": 0.33858267716535434
        },
        {
          "duration": 0.20930232558137618,
          "durationTicks": 18,
          "midi": 72,
          "name": "C5",
          "ticks": 17442,
          "time": 202.8139534883721,
          "velocity": 0.1732283464566929
        },
        {
          "duration": 0.17441860465115155,
          "durationTicks": 15,
          "midi": 83,
          "name": "B5",
          "ticks": 17442,
          "time": 202.8139534883721,
          "velocity": 0.16535433070866143
        },
        {
          "duration": 0.011627906976741542,
          "durationTicks": 1,
          "midi": 42,
          "name": "F#2",
          "ticks": 17443,
          "time": 202.82558139534885,
          "velocity": 0.5196850393700787
        },
        {
          "duration": 0.12790697674418539,
          "durationTicks": 11,
          "midi": 69,
          "name": "A4",
          "ticks": 17443,
          "time": 202.82558139534885,
          "velocity": 0.4015748031496063
        },
        {
          "duration": 0.24418604651162923,
          "durationTicks": 21,
          "midi": 87,
          "name": "D#6",
          "ticks": 17444,
          "time": 202.8372093023256,
          "velocity": 0.2125984251968504
        },
        {
          "duration": 0.09302325581393234,
          "durationTicks": 8,
          "midi": 95,
          "name": "B6",
          "ticks": 17444,
          "time": 202.8372093023256,
          "velocity": 0.1889763779527559
        },
        {
          "duration": 0.023255813953483084,
          "durationTicks": 2,
          "midi": 50,
          "name": "D3",
          "ticks": 17445,
          "time": 202.84883720930233,
          "velocity": 0.44881889763779526
        },
        {
          "duration": 0.6511627906976685,
          "durationTicks": 56,
          "midi": 57,
          "name": "A3",
          "ticks": 17445,
          "time": 202.84883720930233,
          "velocity": 0.3779527559055118
        },
        {
          "duration": 0.38372093023255616,
          "durationTicks": 33,
          "midi": 62,
          "name": "D4",
          "ticks": 17447,
          "time": 202.87209302325581,
          "velocity": 0.3228346456692913
        },
        {
          "duration": 0.03488372093025305,
          "durationTicks": 3,
          "midi": 50,
          "name": "D3",
          "ticks": 17450,
          "time": 202.90697674418604,
          "velocity": 0.41732283464566927
        },
        {
          "duration": 0.04651162790699459,
          "durationTicks": 4,
          "midi": 66,
          "name": "F#4",
          "ticks": 17452,
          "time": 202.93023255813952,
          "velocity": 0.1732283464566929
        },
        {
          "duration": 0.034883720930224626,
          "durationTicks": 3,
          "midi": 45,
          "name": "A2",
          "ticks": 17453,
          "time": 202.9418604651163,
          "velocity": 0.3858267716535433
        },
        {
          "duration": 0.023255813953483084,
          "durationTicks": 2,
          "midi": 50,
          "name": "D3",
          "ticks": 17454,
          "time": 202.95348837209303,
          "velocity": 0.3464566929133858
        },
        {
          "duration": 0.04651162790696617,
          "durationTicks": 4,
          "midi": 95,
          "name": "B6",
          "ticks": 17457,
          "time": 202.98837209302326,
          "velocity": 0.07874015748031496
        },
        {
          "duration": 0.12790697674418539,
          "durationTicks": 11,
          "midi": 50,
          "name": "D3",
          "ticks": 17459,
          "time": 203.01162790697674,
          "velocity": 0.49606299212598426
        },
        {
          "duration": 0.24418604651162923,
          "durationTicks": 21,
          "midi": 66,
          "name": "F#4",
          "ticks": 17461,
          "time": 203.03488372093022,
          "velocity": 0.2755905511811024
        },
        {
          "duration": 0.16279069767443843,
          "durationTicks": 14,
          "midi": 93,
          "name": "A6",
          "ticks": 17461,
          "time": 203.03488372093022,
          "velocity": 0.14960629921259844
        },
        {
          "duration": 0.08139534883721922,
          "durationTicks": 7,
          "midi": 90,
          "name": "F#6",
          "ticks": 17462,
          "time": 203.04651162790697,
          "velocity": 0.08661417322834646
        },
        {
          "duration": 0.023255813953511506,
          "durationTicks": 2,
          "midi": 39,
          "name": "D#2",
          "ticks": 17463,
          "time": 203.0581395348837,
          "velocity": 0.49606299212598426
        },
        {
          "duration": 0.22093023255814614,
          "durationTicks": 19,
          "midi": 72,
          "name": "C5",
          "ticks": 17463,
          "time": 203.0581395348837,
          "velocity": 0.16535433070866143
        },
        {
          "duration": 0.06976744186044925,
          "durationTicks": 6,
          "midi": 80,
          "name": "G#5",
          "ticks": 17464,
          "time": 203.06976744186048,
          "velocity": 0.14173228346456693
        },
        {
          "duration": 0.04651162790696617,
          "durationTicks": 4,
          "midi": 79,
          "name": "G5",
          "ticks": 17470,
          "time": 203.13953488372093,
          "velocity": 0.10236220472440945
        },
        {
          "duration": 0.06976744186047767,
          "durationTicks": 6,
          "midi": 50,
          "name": "D3",
          "ticks": 17471,
          "time": 203.15116279069767,
          "velocity": 0.3779527559055118
        },
        {
          "duration": 0.023255813953483084,
          "durationTicks": 2,
          "midi": 38,
          "name": "D2",
          "ticks": 17472,
          "time": 203.1627906976744,
          "velocity": 0.31496062992125984
        },
        {
          "duration": 0.04651162790699459,
          "durationTicks": 4,
          "midi": 80,
          "name": "G#5",
          "ticks": 17474,
          "time": 203.1860465116279,
          "velocity": 0.07086614173228346
        },
        {
          "duration": 0.034883720930224626,
          "durationTicks": 3,
          "midi": 91,
          "name": "G6",
          "ticks": 17477,
          "time": 203.22093023255815,
          "velocity": 0.07086614173228346
        },
        {
          "duration": 0.023255813953483084,
          "durationTicks": 2,
          "midi": 50,
          "name": "D3",
          "ticks": 17478,
          "time": 203.2325581395349,
          "velocity": 0.33858267716535434
        },
        {
          "duration": 0.25581395348837077,
          "durationTicks": 22,
          "midi": 76,
          "name": "E5",
          "ticks": 17480,
          "time": 203.25581395348837,
          "velocity": 0.2125984251968504
        },
        {
          "duration": 0.16279069767441,
          "durationTicks": 14,
          "midi": 79,
          "name": "G5",
          "ticks": 17480,
          "time": 203.25581395348837,
          "velocity": 0.2204724409448819
        },
        {
          "duration": 0.05813953488373613,
          "durationTicks": 5,
          "midi": 83,
          "name": "B5",
          "ticks": 17480,
          "time": 203.25581395348837,
          "velocity": 0.16535433070866143
        },
        {
          "duration": 0.2674418604651123,
          "durationTicks": 23,
          "midi": 85,
          "name": "C#6",
          "ticks": 17480,
          "time": 203.25581395348837,
          "velocity": 0.23622047244094488
        },
        {
          "duration": 0.034883720930224626,
          "durationTicks": 3,
          "midi": 77,
          "name": "F5",
          "ticks": 17481,
          "time": 203.2674418604651,
          "velocity": 0.14960629921259844
        },
        {
          "duration": 0.22093023255814614,
          "durationTicks": 19,
          "midi": 45,
          "name": "A2",
          "ticks": 17482,
          "time": 203.27906976744185,
          "velocity": 0.5039370078740157
        },
        {
          "duration": 0.03488372093025305,
          "durationTicks": 3,
          "midi": 61,
          "name": "C#4",
          "ticks": 17482,
          "time": 203.27906976744185,
          "velocity": 0.2755905511811024
        },
        {
          "duration": 0.2325581395348877,
          "durationTicks": 20,
          "midi": 67,
          "name": "G4",
          "ticks": 17482,
          "time": 203.27906976744185,
          "velocity": 0.2204724409448819
        },
        {
          "duration": 0.023255813953483084,
          "durationTicks": 2,
          "midi": 74,
          "name": "D5",
          "ticks": 17482,
          "time": 203.27906976744185,
          "velocity": 0.2283464566929134
        },
        {
          "duration": 0.18604651162792152,
          "durationTicks": 16,
          "midi": 75,
          "name": "D#5",
          "ticks": 17484,
          "time": 203.30232558139534,
          "velocity": 0.2125984251968504
        },
        {
          "duration": 0.023255813953483084,
          "durationTicks": 2,
          "midi": 52,
          "name": "E3",
          "ticks": 17486,
          "time": 203.32558139534885,
          "velocity": 0.23622047244094488
        },
        {
          "duration": 0.034883720930224626,
          "durationTicks": 3,
          "midi": 61,
          "name": "C#4",
          "ticks": 17486,
          "time": 203.32558139534885,
          "velocity": 0.2283464566929134
        },
        {
          "duration": 0.034883720930224626,
          "durationTicks": 3,
          "midi": 52,
          "name": "E3",
          "ticks": 17490,
          "time": 203.37209302325581,
          "velocity": 0.2283464566929134
        },
        {
          "duration": 0.12790697674418539,
          "durationTicks": 11,
          "midi": 61,
          "name": "C#4",
          "ticks": 17490,
          "time": 203.37209302325581,
          "velocity": 0.18110236220472442
        },
        {
          "duration": 0.05813953488370771,
          "durationTicks": 5,
          "midi": 83,
          "name": "B5",
          "ticks": 17490,
          "time": 203.37209302325581,
          "velocity": 0.08661417322834646
        },
        {
          "duration": 0.06976744186047767,
          "durationTicks": 6,
          "midi": 52,
          "name": "E3",
          "ticks": 17494,
          "time": 203.41860465116278,
          "velocity": 0.2125984251968504
        },
        {
          "duration": 0.04651162790696617,
          "durationTicks": 4,
          "midi": 71,
          "name": "B4",
          "ticks": 17501,
          "time": 203.5,
          "velocity": 0.2440944881889764
        },
        {
          "duration": 0.3604651162790731,
          "durationTicks": 31,
          "midi": 79,
          "name": "G5",
          "ticks": 17501,
          "time": 203.5,
          "velocity": 0.25984251968503935
        },
        {
          "duration": 0.034883720930224626,
          "durationTicks": 3,
          "midi": 84,
          "name": "C6",
          "ticks": 17501,
          "time": 203.5,
          "velocity": 0.25196850393700787
        },
        {
          "duration": 0.023255813953483084,
          "durationTicks": 2,
          "midi": 40,
          "name": "E2",
          "ticks": 17502,
          "time": 203.51162790697674,
          "velocity": 0.5511811023622047
        },
        {
          "duration": 0.034883720930224626,
          "durationTicks": 3,
          "midi": 53,
          "name": "F3",
          "ticks": 17502,
          "time": 203.51162790697674,
          "velocity": 0.4566929133858268
        },
        {
          "duration": 0.05813953488373613,
          "durationTicks": 5,
          "midi": 60,
          "name": "C4",
          "ticks": 17502,
          "time": 203.51162790697674,
          "velocity": 0.3543307086614173
        },
        {
          "duration": 0.023255813953483084,
          "durationTicks": 2,
          "midi": 68,
          "name": "G#4",
          "ticks": 17502,
          "time": 203.51162790697674,
          "velocity": 0.3700787401574803
        },
        {
          "duration": 0.30232558139536536,
          "durationTicks": 26,
          "midi": 74,
          "name": "D5",
          "ticks": 17502,
          "time": 203.51162790697674,
          "velocity": 0.3464566929133858
        },
        {
          "duration": 0.05813953488373613,
          "durationTicks": 5,
          "midi": 77,
          "name": "F5",
          "ticks": 17502,
          "time": 203.51162790697674,
          "velocity": 0.2125984251968504
        },
        {
          "duration": 0.12790697674418539,
          "durationTicks": 11,
          "midi": 89,
          "name": "F6",
          "ticks": 17502,
          "time": 203.51162790697674,
          "velocity": 0.25196850393700787
        },
        {
          "duration": 0.13953488372092693,
          "durationTicks": 12,
          "midi": 90,
          "name": "F#6",
          "ticks": 17502,
          "time": 203.51162790697674,
          "velocity": 0.12598425196850394
        },
        {
          "duration": 0.11627906976744384,
          "durationTicks": 10,
          "midi": 67,
          "name": "G4",
          "ticks": 17504,
          "time": 203.53488372093022,
          "velocity": 0.3228346456692913
        },
        {
          "duration": 0.04651162790699459,
          "durationTicks": 4,
          "midi": 82,
          "name": "A#5",
          "ticks": 17504,
          "time": 203.53488372093022,
          "velocity": 0.11023622047244094
        },
        {
          "duration": 0.1046511627907023,
          "durationTicks": 9,
          "midi": 93,
          "name": "A6",
          "ticks": 17504,
          "time": 203.53488372093022,
          "velocity": 0.2047244094488189
        },
        {
          "duration": 0.04651162790699459,
          "durationTicks": 4,
          "midi": 81,
          "name": "A5",
          "ticks": 17506,
          "time": 203.5581395348837,
          "velocity": 0.09448818897637795
        },
        {
          "duration": 0.34883720930233153,
          "durationTicks": 30,
          "midi": 85,
          "name": "C#6",
          "ticks": 17506,
          "time": 203.5581395348837,
          "velocity": 0.2755905511811024
        },
        {
          "duration": 0.19767441860463464,
          "durationTicks": 17,
          "midi": 55,
          "name": "G3",
          "ticks": 17507,
          "time": 203.56976744186048,
          "velocity": 0.4645669291338583
        },
        {
          "duration": 0.023255813953483084,
          "durationTicks": 2,
          "midi": 48,
          "name": "C3",
          "ticks": 17508,
          "time": 203.58139534883722,
          "velocity": 0.4251968503937008
        },
        {
          "duration": 0.11627906976744384,
          "durationTicks": 10,
          "midi": 70,
          "name": "A#4",
          "ticks": 17508,
          "time": 203.58139534883722,
          "velocity": 0.11023622047244094
        },
        {
          "duration": 0.05813953488370771,
          "durationTicks": 5,
          "midi": 77,
          "name": "F5",
          "ticks": 17508,
          "time": 203.58139534883722,
          "velocity": 0.13385826771653545
        },
        {
          "duration": 0.023255813953483084,
          "durationTicks": 2,
          "midi": 43,
          "name": "G2",
          "ticks": 17511,
          "time": 203.61627906976744,
          "velocity": 0.4409448818897638
        },
        {
          "duration": 0.023255813953483084,
          "durationTicks": 2,
          "midi": 62,
          "name": "D4",
          "ticks": 17511,
          "time": 203.61627906976744,
          "velocity": 0.2283464566929134
        },
        {
          "duration": 0.09302325581396076,
          "durationTicks": 8,
          "midi": 77,
          "name": "F5",
          "ticks": 17514,
          "time": 203.65116279069767,
          "velocity": 0.16535433070866143
        },
        {
          "duration": 0.023255813953483084,
          "durationTicks": 2,
          "midi": 44,
          "name": "G#2",
          "ticks": 17515,
          "time": 203.6627906976744,
          "velocity": 0.3779527559055118
        },
        {
          "duration": 0.023255813953511506,
          "durationTicks": 2,
          "midi": 48,
          "name": "C3",
          "ticks": 17516,
          "time": 203.67441860465115,
          "velocity": 0.3700787401574803
        },
        {
          "duration": 0.04651162790699459,
          "durationTicks": 4,
          "midi": 64,
          "name": "E4",
          "ticks": 17516,
          "time": 203.67441860465115,
          "velocity": 0.18110236220472442
        },
        {
          "duration": 0.023255813953483084,
          "durationTicks": 2,
          "midi": 48,
          "name": "C3",
          "ticks": 17519,
          "time": 203.7093023255814,
          "velocity": 0.3700787401574803
        },
        {
          "duration": 0.06976744186044925,
          "durationTicks": 6,
          "midi": 93,
          "name": "A6",
          "ticks": 17519,
          "time": 203.7093023255814,
          "velocity": 0.18110236220472442
        },
        {
          "duration": 0.034883720930224626,
          "durationTicks": 3,
          "midi": 62,
          "name": "D4",
          "ticks": 17520,
          "time": 203.72093023255815,
          "velocity": 0.3543307086614173
        },
        {
          "duration": 0.13953488372092693,
          "durationTicks": 12,
          "midi": 69,
          "name": "A4",
          "ticks": 17521,
          "time": 203.7325581395349,
          "velocity": 0.3858267716535433
        },
        {
          "duration": 0.48837209302325846,
          "durationTicks": 42,
          "midi": 76,
          "name": "E5",
          "ticks": 17521,
          "time": 203.7325581395349,
          "velocity": 0.3228346456692913
        },
        {
          "duration": 0.034883720930224626,
          "durationTicks": 3,
          "midi": 90,
          "name": "F#6",
          "ticks": 17521,
          "time": 203.7325581395349,
          "velocity": 0.11811023622047244
        },
        {
          "duration": 0.08139534883721922,
          "durationTicks": 7,
          "midi": 83,
          "name": "B5",
          "ticks": 17522,
          "time": 203.74418604651163,
          "velocity": 0.15748031496062992
        },
        {
          "duration": 0.04651162790696617,
          "durationTicks": 4,
          "midi": 92,
          "name": "G#6",
          "ticks": 17522,
          "time": 203.74418604651163,
          "velocity": 0.11023622047244094
        },
        {
          "duration": 0.034883720930224626,
          "durationTicks": 3,
          "midi": 50,
          "name": "D3",
          "ticks": 17523,
          "time": 203.75581395348837,
          "velocity": 0.47244094488188976
        },
        {
          "duration": 0.034883720930224626,
          "durationTicks": 3,
          "midi": 72,
          "name": "C5",
          "ticks": 17523,
          "time": 203.75581395348837,
          "velocity": 0.11023622047244094
        },
        {
          "duration": 0.034883720930224626,
          "durationTicks": 3,
          "midi": 96,
          "name": "C7",
          "ticks": 17523,
          "time": 203.75581395348837,
          "velocity": 0.07086614173228346
        },
        {
          "duration": 0.023255813953483084,
          "durationTicks": 2,
          "midi": 66,
          "name": "F#4",
          "ticks": 17524,
          "time": 203.7674418604651,
          "velocity": 0.2283464566929134
        },
        {
          "duration": 0.19767441860466306,
          "durationTicks": 17,
          "midi": 87,
          "name": "D#6",
          "ticks": 17524,
          "time": 203.7674418604651,
          "velocity": 0.16535433070866143
        },
        {
          "duration": 0.09302325581396076,
          "durationTicks": 8,
          "midi": 95,
          "name": "B6",
          "ticks": 17524,
          "time": 203.7674418604651,
          "velocity": 0.2047244094488189
        },
        {
          "duration": 0.034883720930224626,
          "durationTicks": 3,
          "midi": 100,
          "name": "E7",
          "ticks": 17524,
          "time": 203.7674418604651,
          "velocity": 0.10236220472440945
        },
        {
          "duration": 0.3953488372092977,
          "durationTicks": 34,
          "midi": 57,
          "name": "A3",
          "ticks": 17526,
          "time": 203.7906976744186,
          "velocity": 0.36220472440944884
        },
        {
          "duration": 0.023255813953511506,
          "durationTicks": 2,
          "midi": 50,
          "name": "D3",
          "ticks": 17527,
          "time": 203.80232558139534,
          "velocity": 0.4094488188976378
        },
        {
          "duration": 0.11627906976744384,
          "durationTicks": 10,
          "midi": 72,
          "name": "C5",
          "ticks": 17529,
          "time": 203.82558139534885,
          "velocity": 0.11023622047244094
        },
        {
          "duration": 0.023255813953483084,
          "durationTicks": 2,
          "midi": 38,
          "name": "D2",
          "ticks": 17530,
          "time": 203.8372093023256,
          "velocity": 0.3937007874015748
        },
        {
          "duration": 0.023255813953483084,
          "durationTicks": 2,
          "midi": 45,
          "name": "A2",
          "ticks": 17534,
          "time": 203.88372093023256,
          "velocity": 0.3779527559055118
        },
        {
          "duration": 0.023255813953483084,
          "durationTicks": 2,
          "midi": 50,
          "name": "D3",
          "ticks": 17534,
          "time": 203.88372093023256,
          "velocity": 0.36220472440944884
        },
        {
          "duration": 0.09302325581396076,
          "durationTicks": 8,
          "midi": 79,
          "name": "G5",
          "ticks": 17534,
          "time": 203.88372093023256,
          "velocity": 0.16535433070866143
        },
        {
          "duration": 0.05813953488373613,
          "durationTicks": 5,
          "midi": 95,
          "name": "B6",
          "ticks": 17537,
          "time": 203.91860465116278,
          "velocity": 0.09448818897637795
        },
        {
          "duration": 0.034883720930224626,
          "durationTicks": 3,
          "midi": 73,
          "name": "C#5",
          "ticks": 17539,
          "time": 203.9418604651163,
          "velocity": 0.13385826771653545
        },
        {
          "duration": 0.3604651162790731,
          "durationTicks": 31,
          "midi": 62,
          "name": "D4",
          "ticks": 17540,
          "time": 203.95348837209303,
          "velocity": 0.28346456692913385
        },
        {
          "duration": 0.2325581395348877,
          "durationTicks": 20,
          "midi": 72,
          "name": "C5",
          "ticks": 17541,
          "time": 203.96511627906978,
          "velocity": 0.13385826771653545
        },
        {
          "duration": 0.04651162790696617,
          "durationTicks": 4,
          "midi": 80,
          "name": "G#5",
          "ticks": 17542,
          "time": 203.97674418604652,
          "velocity": 0.12598425196850394
        },
        {
          "duration": 0.06976744186044925,
          "durationTicks": 6,
          "midi": 50,
          "name": "D3",
          "ticks": 17543,
          "time": 203.98837209302326,
          "velocity": 0.3858267716535433
        },
        {
          "duration": 0.15116279069766847,
          "durationTicks": 13,
          "midi": 87,
          "name": "D#6",
          "ticks": 17543,
          "time": 203.98837209302326,
          "velocity": 0.07874015748031496
        },
        {
          "duration": 0.06976744186047767,
          "durationTicks": 6,
          "midi": 66,
          "name": "F#4",
          "ticks": 17545,
          "time": 204.01162790697674,
          "velocity": 0.14960629921259844
        },
        {
          "duration": 0.04651162790696617,
          "durationTicks": 4,
          "midi": 80,
          "name": "G#5",
          "ticks": 17550,
          "time": 204.06976744186048,
          "velocity": 0.07874015748031496
        },
        {
          "duration": 0.023255813953483084,
          "durationTicks": 2,
          "midi": 45,
          "name": "A2",
          "ticks": 17552,
          "time": 204.09302325581396,
          "velocity": 0.3228346456692913
        },
        {
          "duration": 0.023255813953483084,
          "durationTicks": 2,
          "midi": 50,
          "name": "D3",
          "ticks": 17552,
          "time": 204.09302325581396,
          "velocity": 0.33070866141732286
        },
        {
          "duration": 0.1046511627907023,
          "durationTicks": 9,
          "midi": 66,
          "name": "F#4",
          "ticks": 17552,
          "time": 204.09302325581396,
          "velocity": 0.18110236220472442
        },
        {
          "duration": 0.023255813953511506,
          "durationTicks": 2,
          "midi": 45,
          "name": "A2",
          "ticks": 17560,
          "time": 204.1860465116279,
          "velocity": 0.48031496062992124
        },
        {
          "duration": 0.1279069767442138,
          "durationTicks": 11,
          "midi": 74,
          "name": "D5",
          "ticks": 17560,
          "time": 204.1860465116279,
          "velocity": 0.33070866141732286
        },
        {
          "duration": 0.023255813953511506,
          "durationTicks": 2,
          "midi": 84,
          "name": "C6",
          "ticks": 17560,
          "time": 204.1860465116279,
          "velocity": 0.2283464566929134
        },
        {
          "duration": 0.03488372093025305,
          "durationTicks": 3,
          "midi": 91,
          "name": "G6",
          "ticks": 17560,
          "time": 204.1860465116279,
          "velocity": 0.11811023622047244
        },
        {
          "duration": 0.13953488372092693,
          "durationTicks": 12,
          "midi": 67,
          "name": "G4",
          "ticks": 17561,
          "time": 204.19767441860466,
          "velocity": 0.23622047244094488
        },
        {
          "duration": 0.11627906976744384,
          "durationTicks": 10,
          "midi": 71,
          "name": "B4",
          "ticks": 17561,
          "time": 204.19767441860466,
          "velocity": 0.13385826771653545
        },
        {
          "duration": 0.0813953488371908,
          "durationTicks": 7,
          "midi": 81,
          "name": "A5",
          "ticks": 17561,
          "time": 204.19767441860466,
          "velocity": 0.16535433070866143
        },
        {
          "duration": 0.12790697674418539,
          "durationTicks": 11,
          "midi": 83,
          "name": "B5",
          "ticks": 17561,
          "time": 204.19767441860466,
          "velocity": 0.2283464566929134
        },
        {
          "duration": 0.16279069767441,
          "durationTicks": 14,
          "midi": 89,
          "name": "F6",
          "ticks": 17561,
          "time": 204.19767441860466,
          "velocity": 0.18110236220472442
        },
        {
          "duration": 0.04651162790696617,
          "durationTicks": 4,
          "midi": 44,
          "name": "G#2",
          "ticks": 17562,
          "time": 204.2093023255814,
          "velocity": 0.5196850393700787
        },
        {
          "duration": 0.11627906976744384,
          "durationTicks": 10,
          "midi": 85,
          "name": "C#6",
          "ticks": 17562,
          "time": 204.2093023255814,
          "velocity": 0.2204724409448819
        },
        {
          "duration": 0.09302325581393234,
          "durationTicks": 8,
          "midi": 90,
          "name": "F#6",
          "ticks": 17562,
          "time": 204.2093023255814,
          "velocity": 0.08661417322834646
        },
        {
          "duration": 0.09302325581396076,
          "durationTicks": 8,
          "midi": 77,
          "name": "F5",
          "ticks": 17563,
          "time": 204.22093023255815,
          "velocity": 0.2047244094488189
        },
        {
          "duration": 0.04651162790696617,
          "durationTicks": 4,
          "midi": 98,
          "name": "D7",
          "ticks": 17563,
          "time": 204.22093023255815,
          "velocity": 0.10236220472440945
        },
        {
          "duration": 0.09302325581396076,
          "durationTicks": 8,
          "midi": 55,
          "name": "G3",
          "ticks": 17564,
          "time": 204.2325581395349,
          "velocity": 0.4251968503937008
        },
        {
          "duration": 0.023255813953483084,
          "durationTicks": 2,
          "midi": 60,
          "name": "C4",
          "ticks": 17571,
          "time": 204.3139534883721,
          "velocity": 0.23622047244094488
        },
        {
          "duration": 0.1860465116278931,
          "durationTicks": 16,
          "midi": 73,
          "name": "C#5",
          "ticks": 17571,
          "time": 204.3139534883721,
          "velocity": 0.33858267716535434
        },
        {
          "duration": 0.11627906976741542,
          "durationTicks": 10,
          "midi": 76,
          "name": "E5",
          "ticks": 17571,
          "time": 204.3139534883721,
          "velocity": 0.2125984251968504
        },
        {
          "duration": 0.12790697674418539,
          "durationTicks": 11,
          "midi": 82,
          "name": "A#5",
          "ticks": 17571,
          "time": 204.3139534883721,
          "velocity": 0.2204724409448819
        },
        {
          "duration": 0.023255813953483084,
          "durationTicks": 2,
          "midi": 53,
          "name": "F3",
          "ticks": 17572,
          "time": 204.32558139534885,
          "velocity": 0.4409448818897638
        },
        {
          "duration": 0.0813953488371908,
          "durationTicks": 7,
          "midi": 80,
          "name": "G#5",
          "ticks": 17572,
          "time": 204.32558139534885,
          "velocity": 0.12598425196850394
        },
        {
          "duration": 0.2906976744185954,
          "durationTicks": 25,
          "midi": 84,
          "name": "C6",
          "ticks": 17572,
          "time": 204.32558139534885,
          "velocity": 0.2125984251968504
        },
        {
          "duration": 0.06976744186044925,
          "durationTicks": 6,
          "midi": 61,
          "name": "C#4",
          "ticks": 17573,
          "time": 204.3372093023256,
          "velocity": 0.2440944881889764
        },
        {
          "duration": 0.06976744186044925,
          "durationTicks": 6,
          "midi": 66,
          "name": "F#4",
          "ticks": 17573,
          "time": 204.3372093023256,
          "velocity": 0.18110236220472442
        },
        {
          "duration": 0.0813953488371908,
          "durationTicks": 7,
          "midi": 70,
          "name": "A#4",
          "ticks": 17573,
          "time": 204.3372093023256,
          "velocity": 0.11023622047244094
        },
        {
          "duration": 0.04651162790696617,
          "durationTicks": 4,
          "midi": 97,
          "name": "C#7",
          "ticks": 17573,
          "time": 204.3372093023256,
          "velocity": 0.10236220472440945
        },
        {
          "duration": 0.023255813953483084,
          "durationTicks": 2,
          "midi": 42,
          "name": "F#2",
          "ticks": 17574,
          "time": 204.34883720930233,
          "velocity": 0.33070866141732286
        },
        {
          "duration": 0.06976744186044925,
          "durationTicks": 6,
          "midi": 54,
          "name": "F#3",
          "ticks": 17574,
          "time": 204.34883720930233,
          "velocity": 0.3937007874015748
        },
        {
          "duration": 0.04651162790696617,
          "durationTicks": 4,
          "midi": 42,
          "name": "F#2",
          "ticks": 17577,
          "time": 204.38372093023256,
          "velocity": 0.5039370078740157
        },
        {
          "duration": 0.04651162790696617,
          "durationTicks": 4,
          "midi": 89,
          "name": "F6",
          "ticks": 17577,
          "time": 204.38372093023256,
          "velocity": 0.08661417322834646
        },
        {
          "duration": 0.11627906976744384,
          "durationTicks": 10,
          "midi": 64,
          "name": "E4",
          "ticks": 17579,
          "time": 204.40697674418604,
          "velocity": 0.25196850393700787
        },
        {
          "duration": 0.11627906976744384,
          "durationTicks": 10,
          "midi": 59,
          "name": "B3",
          "ticks": 17580,
          "time": 204.41860465116278,
          "velocity": 0.31496062992125984
        },
        {
          "duration": 0.12790697674418539,
          "durationTicks": 11,
          "midi": 68,
          "name": "G#4",
          "ticks": 17580,
          "time": 204.41860465116278,
          "velocity": 0.25196850393700787
        },
        {
          "duration": 0.03488372093025305,
          "durationTicks": 3,
          "midi": 41,
          "name": "F2",
          "ticks": 17581,
          "time": 204.43023255813952,
          "velocity": 0.5039370078740157
        },
        {
          "duration": 0.023255813953511506,
          "durationTicks": 2,
          "midi": 51,
          "name": "D#3",
          "ticks": 17581,
          "time": 204.43023255813952,
          "velocity": 0.4094488188976378
        },
        {
          "duration": 0.09302325581396076,
          "durationTicks": 8,
          "midi": 78,
          "name": "F#5",
          "ticks": 17581,
          "time": 204.43023255813952,
          "velocity": 0.08661417322834646
        },
        {
          "duration": 0.05813953488373613,
          "durationTicks": 5,
          "midi": 86,
          "name": "D6",
          "ticks": 17581,
          "time": 204.43023255813952,
          "velocity": 0.08661417322834646
        },
        {
          "duration": 0.06976744186044925,
          "durationTicks": 6,
          "midi": 95,
          "name": "B6",
          "ticks": 17582,
          "time": 204.4418604651163,
          "velocity": 0.10236220472440945
        },
        {
          "duration": 0.0813953488371908,
          "durationTicks": 7,
          "midi": 52,
          "name": "E3",
          "ticks": 17583,
          "time": 204.45348837209303,
          "velocity": 0.4251968503937008
        },
        {
          "duration": 0.034883720930224626,
          "durationTicks": 3,
          "midi": 92,
          "name": "G#6",
          "ticks": 17583,
          "time": 204.45348837209303,
          "velocity": 0.08661417322834646
        },
        {
          "duration": 0.06976744186044925,
          "durationTicks": 6,
          "midi": 40,
          "name": "E2",
          "ticks": 17584,
          "time": 204.46511627906978,
          "velocity": 0.4409448818897638
        },
        {
          "duration": 0.06976744186044925,
          "durationTicks": 6,
          "midi": 82,
          "name": "A#5",
          "ticks": 17584,
          "time": 204.46511627906978,
          "velocity": 0.16535433070866143
        },
        {
          "duration": 0.06976744186047767,
          "durationTicks": 6,
          "midi": 74,
          "name": "D5",
          "ticks": 17589,
          "time": 204.52325581395348,
          "velocity": 0.11811023622047244
        },
        {
          "duration": 0.11627906976744384,
          "durationTicks": 10,
          "midi": 62,
          "name": "D4",
          "ticks": 17590,
          "time": 204.53488372093022,
          "velocity": 0.2677165354330709
        },
        {
          "duration": 0.11627906976744384,
          "durationTicks": 10,
          "midi": 66,
          "name": "F#4",
          "ticks": 17590,
          "time": 204.53488372093022,
          "velocity": 0.2204724409448819
        },
        {
          "duration": 0.08139534883721922,
          "durationTicks": 7,
          "midi": 93,
          "name": "A6",
          "ticks": 17590,
          "time": 204.53488372093022,
          "velocity": 0.13385826771653545
        },
        {
          "duration": 0.023255813953511506,
          "durationTicks": 2,
          "midi": 49,
          "name": "C#3",
          "ticks": 17591,
          "time": 204.54651162790697,
          "velocity": 0.4094488188976378
        },
        {
          "duration": 0.32558139534884845,
          "durationTicks": 28,
          "midi": 57,
          "name": "A3",
          "ticks": 17591,
          "time": 204.54651162790697,
          "velocity": 0.4015748031496063
        },
        {
          "duration": 0.45348837209303383,
          "durationTicks": 39,
          "midi": 69,
          "name": "A4",
          "ticks": 17591,
          "time": 204.54651162790697,
          "velocity": 0.44881889763779526
        },
        {
          "duration": 0.1046511627907023,
          "durationTicks": 9,
          "midi": 76,
          "name": "E5",
          "ticks": 17591,
          "time": 204.54651162790697,
          "velocity": 0.07874015748031496
        },
        {
          "duration": 0.023255813953511506,
          "durationTicks": 2,
          "midi": 39,
          "name": "D#2",
          "ticks": 17592,
          "time": 204.5581395348837,
          "velocity": 0.47244094488188976
        },
        {
          "duration": 0.1046511627907023,
          "durationTicks": 9,
          "midi": 72,
          "name": "C5",
          "ticks": 17592,
          "time": 204.5581395348837,
          "velocity": 0.11811023622047244
        },
        {
          "duration": 0.034883720930224626,
          "durationTicks": 3,
          "midi": 50,
          "name": "D3",
          "ticks": 17593,
          "time": 204.56976744186048,
          "velocity": 0.4566929133858268
        },
        {
          "duration": 0.06976744186044925,
          "durationTicks": 6,
          "midi": 80,
          "name": "G#5",
          "ticks": 17593,
          "time": 204.56976744186048,
          "velocity": 0.08661417322834646
        },
        {
          "duration": 0.023255813953483084,
          "durationTicks": 2,
          "midi": 39,
          "name": "D#2",
          "ticks": 17595,
          "time": 204.59302325581396,
          "velocity": 0.4330708661417323
        },
        {
          "duration": 0.023255813953483084,
          "durationTicks": 2,
          "midi": 38,
          "name": "D2",
          "ticks": 17597,
          "time": 204.61627906976744,
          "velocity": 0.36220472440944884
        },
        {
          "duration": 0.034883720930224626,
          "durationTicks": 3,
          "midi": 50,
          "name": "D3",
          "ticks": 17597,
          "time": 204.61627906976744,
          "velocity": 0.4015748031496063
        },
        {
          "duration": 0.04651162790696617,
          "durationTicks": 4,
          "midi": 79,
          "name": "G5",
          "ticks": 17599,
          "time": 204.63953488372093,
          "velocity": 0.11811023622047244
        },
        {
          "duration": 0.023255813953483084,
          "durationTicks": 2,
          "midi": 48,
          "name": "C3",
          "ticks": 17600,
          "time": 204.65116279069767,
          "velocity": 0.4409448818897638
        },
        {
          "duration": 0.023255813953483084,
          "durationTicks": 2,
          "midi": 61,
          "name": "C#4",
          "ticks": 17600,
          "time": 204.65116279069767,
          "velocity": 0.4645669291338583
        },
        {
          "duration": 0.33720930232559,
          "durationTicks": 29,
          "midi": 74,
          "name": "D5",
          "ticks": 17600,
          "time": 204.65116279069767,
          "velocity": 0.48031496062992124
        },
        {
          "duration": 0.034883720930224626,
          "durationTicks": 3,
          "midi": 84,
          "name": "C6",
          "ticks": 17600,
          "time": 204.65116279069767,
          "velocity": 0.13385826771653545
        },
        {
          "duration": 0.034883720930224626,
          "durationTicks": 3,
          "midi": 85,
          "name": "C#6",
          "ticks": 17600,
          "time": 204.65116279069767,
          "velocity": 0.11811023622047244
        },
        {
          "duration": 0.08139534883721922,
          "durationTicks": 7,
          "midi": 78,
          "name": "F#5",
          "ticks": 17601,
          "time": 204.6627906976744,
          "velocity": 0.13385826771653545
        },
        {
          "duration": 0.24418604651162923,
          "durationTicks": 21,
          "midi": 90,
          "name": "F#6",
          "ticks": 17601,
          "time": 204.6627906976744,
          "velocity": 0.25984251968503935
        },
        {
          "duration": 0.06976744186047767,
          "durationTicks": 6,
          "midi": 97,
          "name": "C#7",
          "ticks": 17601,
          "time": 204.6627906976744,
          "velocity": 0.12598425196850394
        },
        {
          "duration": 0.023255813953511506,
          "durationTicks": 2,
          "midi": 40,
          "name": "E2",
          "ticks": 17602,
          "time": 204.67441860465115,
          "velocity": 0.4330708661417323
        },
        {
          "duration": 0.19767441860466306,
          "durationTicks": 17,
          "midi": 50,
          "name": "D3",
          "ticks": 17602,
          "time": 204.67441860465115,
          "velocity": 0.4094488188976378
        },
        {
          "duration": 0.2093023255814046,
          "durationTicks": 18,
          "midi": 62,
          "name": "D4",
          "ticks": 17602,
          "time": 204.67441860465115,
          "velocity": 0.5196850393700787
        },
        {
          "duration": 0.32558139534884845,
          "durationTicks": 28,
          "midi": 72,
          "name": "C5",
          "ticks": 17602,
          "time": 204.67441860465115,
          "velocity": 0.4330708661417323
        },
        {
          "duration": 0.13953488372095535,
          "durationTicks": 12,
          "midi": 88,
          "name": "E6",
          "ticks": 17602,
          "time": 204.67441860465115,
          "velocity": 0.09448818897637795
        },
        {
          "duration": 0.18604651162792152,
          "durationTicks": 16,
          "midi": 66,
          "name": "F#4",
          "ticks": 17603,
          "time": 204.6860465116279,
          "velocity": 0.2677165354330709
        },
        {
          "duration": 0.11627906976744384,
          "durationTicks": 10,
          "midi": 80,
          "name": "G#5",
          "ticks": 17603,
          "time": 204.6860465116279,
          "velocity": 0.07874015748031496
        },
        {
          "duration": 0.023255813953483084,
          "durationTicks": 2,
          "midi": 39,
          "name": "D#2",
          "ticks": 17604,
          "time": 204.69767441860466,
          "velocity": 0.4094488188976378
        },
        {
          "duration": 0.09302325581396076,
          "durationTicks": 8,
          "midi": 38,
          "name": "D2",
          "ticks": 17606,
          "time": 204.72093023255815,
          "velocity": 0.3858267716535433
        },
        {
          "duration": 0.023255813953483084,
          "durationTicks": 2,
          "midi": 37,
          "name": "C#2",
          "ticks": 17614,
          "time": 204.8139534883721,
          "velocity": 0.2440944881889764
        },
        {
          "duration": 0.023255813953483084,
          "durationTicks": 2,
          "midi": 38,
          "name": "D2",
          "ticks": 17616,
          "time": 204.8372093023256,
          "velocity": 0.2677165354330709
        },
        {
          "duration": 0.034883720930224626,
          "durationTicks": 3,
          "midi": 88,
          "name": "E6",
          "ticks": 17618,
          "time": 204.86046511627907,
          "velocity": 0.10236220472440945
        },
        {
          "duration": 0.13953488372092693,
          "durationTicks": 12,
          "midi": 65,
          "name": "F4",
          "ticks": 17619,
          "time": 204.87209302325581,
          "velocity": 0.5354330708661418
        },
        {
          "duration": 0.06976744186047767,
          "durationTicks": 6,
          "midi": 53,
          "name": "F3",
          "ticks": 17620,
          "time": 204.88372093023256,
          "velocity": 0.5590551181102362
        },
        {
          "duration": 0.034883720930224626,
          "durationTicks": 3,
          "midi": 79,
          "name": "G5",
          "ticks": 17620,
          "time": 204.88372093023256,
          "velocity": 0.11811023622047244
        },
        {
          "duration": 0.15116279069766847,
          "durationTicks": 13,
          "midi": 87,
          "name": "D#6",
          "ticks": 17620,
          "time": 204.88372093023256,
          "velocity": 0.1732283464566929
        },
        {
          "duration": 0.034883720930224626,
          "durationTicks": 3,
          "midi": 91,
          "name": "G6",
          "ticks": 17620,
          "time": 204.88372093023256,
          "velocity": 0.15748031496062992
        },
        {
          "duration": 0.05813953488373613,
          "durationTicks": 5,
          "midi": 100,
          "name": "E7",
          "ticks": 17620,
          "time": 204.88372093023256,
          "velocity": 0.14173228346456693
        },
        {
          "duration": 0.11627906976744384,
          "durationTicks": 10,
          "midi": 101,
          "name": "F7",
          "ticks": 17620,
          "time": 204.88372093023256,
          "velocity": 0.07874015748031496
        },
        {
          "duration": 0.034883720930224626,
          "durationTicks": 3,
          "midi": 95,
          "name": "B6",
          "ticks": 17621,
          "time": 204.8953488372093,
          "velocity": 0.07086614173228346
        },
        {
          "duration": 0.023255813953511506,
          "durationTicks": 2,
          "midi": 39,
          "name": "D#2",
          "ticks": 17623,
          "time": 204.91860465116278,
          "velocity": 0.44881889763779526
        },
        {
          "duration": 0.2093023255814046,
          "durationTicks": 18,
          "midi": 80,
          "name": "G#5",
          "ticks": 17623,
          "time": 204.91860465116278,
          "velocity": 0.2677165354330709
        },
        {
          "duration": 0.04651162790696617,
          "durationTicks": 4,
          "midi": 38,
          "name": "D2",
          "ticks": 17625,
          "time": 204.9418604651163,
          "velocity": 0.4330708661417323
        },
        {
          "duration": 0.0813953488371908,
          "durationTicks": 7,
          "midi": 91,
          "name": "G6",
          "ticks": 17625,
          "time": 204.9418604651163,
          "velocity": 0.13385826771653545
        },
        {
          "duration": 0.034883720930224626,
          "durationTicks": 3,
          "midi": 53,
          "name": "F3",
          "ticks": 17627,
          "time": 204.96511627906978,
          "velocity": 0.49606299212598426
        },
        {
          "duration": 0.023255813953483084,
          "durationTicks": 2,
          "midi": 40,
          "name": "E2",
          "ticks": 17630,
          "time": 205,
          "velocity": 0.44881889763779526
        },
        {
          "duration": 0.04651162790696617,
          "durationTicks": 4,
          "midi": 51,
          "name": "D#3",
          "ticks": 17630,
          "time": 205,
          "velocity": 0.5748031496062992
        },
        {
          "duration": 0.11627906976744384,
          "durationTicks": 10,
          "midi": 71,
          "name": "B4",
          "ticks": 17630,
          "time": 205,
          "velocity": 0.44881889763779526
        },
        {
          "duration": 0.034883720930224626,
          "durationTicks": 3,
          "midi": 74,
          "name": "D5",
          "ticks": 17630,
          "time": 205,
          "velocity": 0.2125984251968504
        },
        {
          "duration": 0.25581395348837077,
          "durationTicks": 22,
          "midi": 76,
          "name": "E5",
          "ticks": 17630,
          "time": 205,
          "velocity": 0.44881889763779526
        },
        {
          "duration": 0.08139534883721922,
          "durationTicks": 7,
          "midi": 81,
          "name": "A5",
          "ticks": 17630,
          "time": 205,
          "velocity": 0.11023622047244094
        },
        {
          "duration": 0.034883720930224626,
          "durationTicks": 3,
          "midi": 89,
          "name": "F6",
          "ticks": 17630,
          "time": 205,
          "velocity": 0.09448818897637795
        },
        {
          "duration": 0.12790697674418539,
          "durationTicks": 11,
          "midi": 100,
          "name": "E7",
          "ticks": 17630,
          "time": 205,
          "velocity": 0.11023622047244094
        },
        {
          "duration": 0.09302325581396076,
          "durationTicks": 8,
          "midi": 64,
          "name": "E4",
          "ticks": 17631,
          "time": 205.01162790697674,
          "velocity": 0.5354330708661418
        },
        {
          "duration": 0.40697674418606766,
          "durationTicks": 35,
          "midi": 90,
          "name": "F#6",
          "ticks": 17633,
          "time": 205.03488372093022,
          "velocity": 0.25196850393700787
        },
        {
          "duration": 0.04651162790699459,
          "durationTicks": 4,
          "midi": 39,
          "name": "D#2",
          "ticks": 17634,
          "time": 205.04651162790697,
          "velocity": 0.3937007874015748
        },
        {
          "duration": 0.023255813953483084,
          "durationTicks": 2,
          "midi": 51,
          "name": "D#3",
          "ticks": 17636,
          "time": 205.06976744186048,
          "velocity": 0.5590551181102362
        },
        {
          "duration": 0.24418604651162923,
          "durationTicks": 21,
          "midi": 74,
          "name": "D5",
          "ticks": 17638,
          "time": 205.09302325581396,
          "velocity": 0.49606299212598426
        },
        {
          "duration": 0.023255813953483084,
          "durationTicks": 2,
          "midi": 48,
          "name": "C3",
          "ticks": 17639,
          "time": 205.1046511627907,
          "velocity": 0.5039370078740157
        },
        {
          "duration": 0.2325581395348877,
          "durationTicks": 20,
          "midi": 69,
          "name": "A4",
          "ticks": 17639,
          "time": 205.1046511627907,
          "velocity": 0.44881889763779526
        },
        {
          "duration": 0.2325581395348877,
          "durationTicks": 20,
          "midi": 85,
          "name": "C#6",
          "ticks": 17639,
          "time": 205.1046511627907,
          "velocity": 0.2440944881889764
        },
        {
          "duration": 0.05813953488370771,
          "durationTicks": 5,
          "midi": 84,
          "name": "C6",
          "ticks": 17640,
          "time": 205.11627906976744,
          "velocity": 0.2125984251968504
        },
        {
          "duration": 0.034883720930224626,
          "durationTicks": 3,
          "midi": 87,
          "name": "D#6",
          "ticks": 17640,
          "time": 205.11627906976744,
          "velocity": 0.09448818897637795
        },
        {
          "duration": 0.023255813953483084,
          "durationTicks": 2,
          "midi": 45,
          "name": "A2",
          "ticks": 17641,
          "time": 205.12790697674419,
          "velocity": 0.5196850393700787
        },
        {
          "duration": 0.2093023255814046,
          "durationTicks": 18,
          "midi": 62,
          "name": "D4",
          "ticks": 17641,
          "time": 205.12790697674419,
          "velocity": 0.5196850393700787
        },
        {
          "duration": 0.04651162790696617,
          "durationTicks": 4,
          "midi": 71,
          "name": "B4",
          "ticks": 17641,
          "time": 205.12790697674419,
          "velocity": 0.2992125984251969
        },
        {
          "duration": 0.04651162790696617,
          "durationTicks": 4,
          "midi": 78,
          "name": "F#5",
          "ticks": 17641,
          "time": 205.12790697674419,
          "velocity": 0.2125984251968504
        },
        {
          "duration": 0.023255813953483084,
          "durationTicks": 2,
          "midi": 51,
          "name": "D#3",
          "ticks": 17643,
          "time": 205.15116279069767,
          "velocity": 0.5196850393700787
        },
        {
          "duration": 0.1279069767442138,
          "durationTicks": 11,
          "midi": 78,
          "name": "F#5",
          "ticks": 17646,
          "time": 205.1860465116279,
          "velocity": 0.14173228346456693
        },
        {
          "duration": 0.09302325581396076,
          "durationTicks": 8,
          "midi": 84,
          "name": "C6",
          "ticks": 17646,
          "time": 205.1860465116279,
          "velocity": 0.1732283464566929
        },
        {
          "duration": 0.12790697674418539,
          "durationTicks": 11,
          "midi": 57,
          "name": "A3",
          "ticks": 17647,
          "time": 205.19767441860466,
          "velocity": 0.1968503937007874
        },
        {
          "duration": 0.023255813953483084,
          "durationTicks": 2,
          "midi": 51,
          "name": "D#3",
          "ticks": 17648,
          "time": 205.2093023255814,
          "velocity": 0.4881889763779528
        },
        {
          "duration": 0.04651162790696617,
          "durationTicks": 4,
          "midi": 79,
          "name": "G5",
          "ticks": 17648,
          "time": 205.2093023255814,
          "velocity": 0.09448818897637795
        },
        {
          "duration": 0.023255813953483084,
          "durationTicks": 2,
          "midi": 49,
          "name": "C#3",
          "ticks": 17650,
          "time": 205.2325581395349,
          "velocity": 0.41732283464566927
        },
        {
          "duration": 0.04651162790696617,
          "durationTicks": 4,
          "midi": 67,
          "name": "G4",
          "ticks": 17651,
          "time": 205.24418604651163,
          "velocity": 0.13385826771653545
        },
        {
          "duration": 0.023255813953483084,
          "durationTicks": 2,
          "midi": 45,
          "name": "A2",
          "ticks": 17653,
          "time": 205.2674418604651,
          "velocity": 0.3700787401574803
        },
        {
          "duration": 0.023255813953483084,
          "durationTicks": 2,
          "midi": 51,
          "name": "D#3",
          "ticks": 17653,
          "time": 205.2674418604651,
          "velocity": 0.4409448818897638
        },
        {
          "duration": 0.03488372093025305,
          "durationTicks": 3,
          "midi": 67,
          "name": "G4",
          "ticks": 17656,
          "time": 205.30232558139534,
          "velocity": 0.10236220472440945
        },
        {
          "duration": 0.023255813953483084,
          "durationTicks": 2,
          "midi": 54,
          "name": "F#3",
          "ticks": 17659,
          "time": 205.3372093023256,
          "velocity": 0.28346456692913385
        },
        {
          "duration": 0.1046511627907023,
          "durationTicks": 9,
          "midi": 76,
          "name": "E5",
          "ticks": 17659,
          "time": 205.3372093023256,
          "velocity": 0.1889763779527559
        },
        {
          "duration": 0.27906976744185386,
          "durationTicks": 24,
          "midi": 79,
          "name": "G5",
          "ticks": 17659,
          "time": 205.3372093023256,
          "velocity": 0.28346456692913385
        },
        {
          "duration": 0.06976744186044925,
          "durationTicks": 6,
          "midi": 84,
          "name": "C6",
          "ticks": 17659,
          "time": 205.3372093023256,
          "velocity": 0.1968503937007874
        },
        {
          "duration": 0.06976744186044925,
          "durationTicks": 6,
          "midi": 86,
          "name": "D6",
          "ticks": 17659,
          "time": 205.3372093023256,
          "velocity": 0.11023622047244094
        },
        {
          "duration": 0.25581395348837077,
          "durationTicks": 22,
          "midi": 88,
          "name": "E6",
          "ticks": 17659,
          "time": 205.3372093023256,
          "velocity": 0.2755905511811024
        },
        {
          "duration": 0.09302325581393234,
          "durationTicks": 8,
          "midi": 95,
          "name": "B6",
          "ticks": 17659,
          "time": 205.3372093023256,
          "velocity": 0.16535433070866143
        },
        {
          "duration": 0.011627906976741542,
          "durationTicks": 1,
          "midi": 45,
          "name": "A2",
          "ticks": 17660,
          "time": 205.34883720930233,
          "velocity": 0.5118110236220472
        },
        {
          "duration": 0.20930232558137618,
          "durationTicks": 18,
          "midi": 60,
          "name": "C4",
          "ticks": 17660,
          "time": 205.34883720930233,
          "velocity": 0.5511811023622047
        },
        {
          "duration": 0.22093023255814614,
          "durationTicks": 19,
          "midi": 67,
          "name": "G4",
          "ticks": 17660,
          "time": 205.34883720930233,
          "velocity": 0.4566929133858268
        },
        {
          "duration": 0.034883720930224626,
          "durationTicks": 3,
          "midi": 77,
          "name": "F5",
          "ticks": 17660,
          "time": 205.34883720930233,
          "velocity": 0.13385826771653545
        },
        {
          "duration": 0.05813953488370771,
          "durationTicks": 5,
          "midi": 94,
          "name": "A#6",
          "ticks": 17660,
          "time": 205.34883720930233,
          "velocity": 0.09448818897637795
        },
        {
          "duration": 0.034883720930224626,
          "durationTicks": 3,
          "midi": 55,
          "name": "G3",
          "ticks": 17661,
          "time": 205.36046511627907,
          "velocity": 0.30708661417322836
        },
        {
          "duration": 0.09302325581396076,
          "durationTicks": 8,
          "midi": 74,
          "name": "D5",
          "ticks": 17661,
          "time": 205.36046511627907,
          "velocity": 0.30708661417322836
        },
        {
          "duration": 0.04651162790696617,
          "durationTicks": 4,
          "midi": 37,
          "name": "C#2",
          "ticks": 17662,
          "time": 205.37209302325581,
          "velocity": 0.47244094488188976
        },
        {
          "duration": 0.1860465116278931,
          "durationTicks": 16,
          "midi": 64,
          "name": "E4",
          "ticks": 17662,
          "time": 205.37209302325581,
          "velocity": 0.2283464566929134
        },
        {
          "duration": 0.023255813953483084,
          "durationTicks": 2,
          "midi": 69,
          "name": "A4",
          "ticks": 17662,
          "time": 205.37209302325581,
          "velocity": 0.2283464566929134
        },
        {
          "duration": 0.12790697674418539,
          "durationTicks": 11,
          "midi": 78,
          "name": "F#5",
          "ticks": 17663,
          "time": 205.38372093023256,
          "velocity": 0.13385826771653545
        },
        {
          "duration": 0.08139534883721922,
          "durationTicks": 7,
          "midi": 48,
          "name": "C3",
          "ticks": 17664,
          "time": 205.3953488372093,
          "velocity": 0.44881889763779526
        },
        {
          "duration": 0.16279069767443843,
          "durationTicks": 14,
          "midi": 55,
          "name": "G3",
          "ticks": 17665,
          "time": 205.40697674418604,
          "velocity": 0.36220472440944884
        },
        {
          "duration": 0.15116279069766847,
          "durationTicks": 13,
          "midi": 82,
          "name": "A#5",
          "ticks": 17665,
          "time": 205.40697674418604,
          "velocity": 0.13385826771653545
        },
        {
          "duration": 0.06976744186044925,
          "durationTicks": 6,
          "midi": 36,
          "name": "C2",
          "ticks": 17668,
          "time": 205.4418604651163,
          "velocity": 0.3700787401574803
        },
        {
          "duration": 0.16279069767441,
          "durationTicks": 14,
          "midi": 86,
          "name": "D6",
          "ticks": 17669,
          "time": 205.45348837209303,
          "velocity": 0.1732283464566929
        },
        {
          "duration": 0.023255813953483084,
          "durationTicks": 2,
          "midi": 47,
          "name": "B2",
          "ticks": 17672,
          "time": 205.48837209302326,
          "velocity": 0.2677165354330709
        },
        {
          "duration": 0.023255813953483084,
          "durationTicks": 2,
          "midi": 35,
          "name": "B1",
          "ticks": 17674,
          "time": 205.51162790697674,
          "velocity": 0.25984251968503935
        },
        {
          "duration": 0.023255813953511506,
          "durationTicks": 2,
          "midi": 49,
          "name": "C#3",
          "ticks": 17677,
          "time": 205.54651162790697,
          "velocity": 0.4015748031496063
        },
        {
          "duration": 0.45348837209303383,
          "durationTicks": 39,
          "midi": 81,
          "name": "A5",
          "ticks": 17678,
          "time": 205.5581395348837,
          "velocity": 0.29133858267716534
        },
        {
          "duration": 0.2790697674418823,
          "durationTicks": 24,
          "midi": 90,
          "name": "F#6",
          "ticks": 17678,
          "time": 205.5581395348837,
          "velocity": 0.2440944881889764
        },
        {
          "duration": 0.20930232558137618,
          "durationTicks": 18,
          "midi": 50,
          "name": "D3",
          "ticks": 17679,
          "time": 205.56976744186048,
          "velocity": 0.48031496062992124
        },
        {
          "duration": 0.023255813953483084,
          "durationTicks": 2,
          "midi": 61,
          "name": "C#4",
          "ticks": 17679,
          "time": 205.56976744186048,
          "velocity": 0.5433070866141733
        },
        {
          "duration": 0.36046511627904465,
          "durationTicks": 31,
          "midi": 69,
          "name": "A4",
          "ticks": 17679,
          "time": 205.56976744186048,
          "velocity": 0.4330708661417323
        },
        {
          "duration": 0.5116279069767415,
          "durationTicks": 44,
          "midi": 74,
          "name": "D5",
          "ticks": 17679,
          "time": 205.56976744186048,
          "velocity": 0.47244094488188976
        },
        {
          "duration": 0.06976744186044925,
          "durationTicks": 6,
          "midi": 97,
          "name": "C#7",
          "ticks": 17679,
          "time": 205.56976744186048,
          "velocity": 0.13385826771653545
        },
        {
          "duration": 0.09302325581393234,
          "durationTicks": 8,
          "midi": 72,
          "name": "C5",
          "ticks": 17680,
          "time": 205.58139534883722,
          "velocity": 0.2755905511811024
        },
        {
          "duration": 0.10465116279067388,
          "durationTicks": 9,
          "midi": 78,
          "name": "F#5",
          "ticks": 17680,
          "time": 205.58139534883722,
          "velocity": 0.14960629921259844
        },
        {
          "duration": 0.44186046511626387,
          "durationTicks": 38,
          "midi": 62,
          "name": "D4",
          "ticks": 17681,
          "time": 205.59302325581396,
          "velocity": 0.5275590551181102
        },
        {
          "duration": 0.4186046511627808,
          "durationTicks": 36,
          "midi": 66,
          "name": "F#4",
          "ticks": 17681,
          "time": 205.59302325581396,
          "velocity": 0.2677165354330709
        },
        {
          "duration": 0.1860465116278931,
          "durationTicks": 16,
          "midi": 76,
          "name": "E5",
          "ticks": 17681,
          "time": 205.59302325581396,
          "velocity": 0.12598425196850394
        },
        {
          "duration": 0.06976744186044925,
          "durationTicks": 6,
          "midi": 38,
          "name": "D2",
          "ticks": 17682,
          "time": 205.6046511627907,
          "velocity": 0.4645669291338583
        },
        {
          "duration": 0.4186046511627808,
          "durationTicks": 36,
          "midi": 57,
          "name": "A3",
          "ticks": 17682,
          "time": 205.6046511627907,
          "velocity": 0.3858267716535433
        },
        {
          "duration": 0.023255813953511506,
          "durationTicks": 2,
          "midi": 38,
          "name": "D2",
          "ticks": 17689,
          "time": 205.6860465116279,
          "velocity": 0.2755905511811024
        },
        {
          "duration": 0.06976744186044925,
          "durationTicks": 6,
          "midi": 72,
          "name": "C5",
          "ticks": 17690,
          "time": 205.69767441860466,
          "velocity": 0.14173228346456693
        },
        {
          "duration": 0.034883720930224626,
          "durationTicks": 3,
          "midi": 37,
          "name": "C#2",
          "ticks": 17691,
          "time": 205.7093023255814,
          "velocity": 0.29133858267716534
        },
        {
          "duration": 0.04651162790696617,
          "durationTicks": 4,
          "midi": 38,
          "name": "D2",
          "ticks": 17694,
          "time": 205.74418604651163,
          "velocity": 0.28346456692913385
        },
        {
          "duration": 0.023255813953511506,
          "durationTicks": 2,
          "midi": 48,
          "name": "C3",
          "ticks": 17698,
          "time": 205.7906976744186,
          "velocity": 0.41732283464566927
        },
        {
          "duration": 0.023255813953511506,
          "durationTicks": 2,
          "midi": 40,
          "name": "E2",
          "ticks": 17699,
          "time": 205.80232558139534,
          "velocity": 0.4409448818897638
        },
        {
          "duration": 0.24418604651162923,
          "durationTicks": 21,
          "midi": 72,
          "name": "C5",
          "ticks": 17699,
          "time": 205.80232558139534,
          "velocity": 0.2677165354330709
        },
        {
          "duration": 0.19767441860463464,
          "durationTicks": 17,
          "midi": 50,
          "name": "D3",
          "ticks": 17700,
          "time": 205.8139534883721,
          "velocity": 0.3858267716535433
        },
        {
          "duration": 0.023255813953483084,
          "durationTicks": 2,
          "midi": 39,
          "name": "D#2",
          "ticks": 17701,
          "time": 205.82558139534885,
          "velocity": 0.4566929133858268
        },
        {
          "duration": 0.16279069767441,
          "durationTicks": 14,
          "midi": 80,
          "name": "G#5",
          "ticks": 17701,
          "time": 205.82558139534885,
          "velocity": 0.13385826771653545
        },
        {
          "duration": 0.1046511627907023,
          "durationTicks": 9,
          "midi": 38,
          "name": "D2",
          "ticks": 17703,
          "time": 205.84883720930233,
          "velocity": 0.44881889763779526
        },
        {
          "duration": 0.04651162790696617,
          "durationTicks": 4,
          "midi": 90,
          "name": "F#6",
          "ticks": 17703,
          "time": 205.84883720930233,
          "velocity": 0.15748031496062992
        },
        {
          "duration": 0.05813953488370771,
          "durationTicks": 5,
          "midi": 38,
          "name": "D2",
          "ticks": 17713,
          "time": 205.96511627906978,
          "velocity": 0.29133858267716534
        },
        {
          "duration": 0.023255813953483084,
          "durationTicks": 2,
          "midi": 49,
          "name": "C#3",
          "ticks": 17717,
          "time": 206.01162790697674,
          "velocity": 0.36220472440944884
        },
        {
          "duration": 0.04651162790699459,
          "durationTicks": 4,
          "midi": 77,
          "name": "F5",
          "ticks": 17718,
          "time": 206.02325581395348,
          "velocity": 0.1968503937007874
        },
        {
          "duration": 0.034883720930224626,
          "durationTicks": 3,
          "midi": 80,
          "name": "G#5",
          "ticks": 17718,
          "time": 206.02325581395348,
          "velocity": 0.14173228346456693
        },
        {
          "duration": 0.25581395348837077,
          "durationTicks": 22,
          "midi": 85,
          "name": "C#6",
          "ticks": 17718,
          "time": 206.02325581395348,
          "velocity": 0.2283464566929134
        },
        {
          "duration": 0.03488372093025305,
          "durationTicks": 3,
          "midi": 61,
          "name": "C#4",
          "ticks": 17719,
          "time": 206.03488372093022,
          "velocity": 0.3228346456692913
        },
        {
          "duration": 0.4418604651162923,
          "durationTicks": 38,
          "midi": 67,
          "name": "G4",
          "ticks": 17719,
          "time": 206.03488372093022,
          "velocity": 0.6220472440944882
        },
        {
          "duration": 0.16279069767443843,
          "durationTicks": 14,
          "midi": 83,
          "name": "B5",
          "ticks": 17719,
          "time": 206.03488372093022,
          "velocity": 0.23622047244094488
        },
        {
          "duration": 0.11627906976744384,
          "durationTicks": 10,
          "midi": 91,
          "name": "G6",
          "ticks": 17719,
          "time": 206.03488372093022,
          "velocity": 0.2047244094488189
        },
        {
          "duration": 0.16279069767443843,
          "durationTicks": 14,
          "midi": 93,
          "name": "A6",
          "ticks": 17719,
          "time": 206.03488372093022,
          "velocity": 0.11811023622047244
        },
        {
          "duration": 0.03488372093025305,
          "durationTicks": 3,
          "midi": 45,
          "name": "A2",
          "ticks": 17720,
          "time": 206.04651162790697,
          "velocity": 0.4881889763779528
        },
        {
          "duration": 0.04651162790699459,
          "durationTicks": 4,
          "midi": 55,
          "name": "G3",
          "ticks": 17720,
          "time": 206.04651162790697,
          "velocity": 0.3700787401574803
        },
        {
          "duration": 0.023255813953483084,
          "durationTicks": 2,
          "midi": 51,
          "name": "D#3",
          "ticks": 17723,
          "time": 206.08139534883722,
          "velocity": 0.33070866141732286
        },
        {
          "duration": 0.034883720930224626,
          "durationTicks": 3,
          "midi": 61,
          "name": "C#4",
          "ticks": 17723,
          "time": 206.08139534883722,
          "velocity": 0.2440944881889764
        },
        {
          "duration": 0.023255813953483084,
          "durationTicks": 2,
          "midi": 75,
          "name": "D#5",
          "ticks": 17723,
          "time": 206.08139534883722,
          "velocity": 0.2283464566929134
        },
        {
          "duration": 0.16279069767441,
          "durationTicks": 14,
          "midi": 45,
          "name": "A2",
          "ticks": 17724,
          "time": 206.09302325581396,
          "velocity": 0.4015748031496063
        },
        {
          "duration": 0.034883720930224626,
          "durationTicks": 3,
          "midi": 74,
          "name": "D5",
          "ticks": 17725,
          "time": 206.1046511627907,
          "velocity": 0.25984251968503935
        },
        {
          "duration": 0.034883720930224626,
          "durationTicks": 3,
          "midi": 73,
          "name": "C#5",
          "ticks": 17726,
          "time": 206.11627906976744,
          "velocity": 0.11811023622047244
        },
        {
          "duration": 0.04651162790696617,
          "durationTicks": 4,
          "midi": 61,
          "name": "C#4",
          "ticks": 17727,
          "time": 206.12790697674419,
          "velocity": 0.2125984251968504
        },
        {
          "duration": 0.04651162790699459,
          "durationTicks": 4,
          "midi": 55,
          "name": "G3",
          "ticks": 17731,
          "time": 206.17441860465115,
          "velocity": 0.25984251968503935
        },
        {
          "duration": 0.08139534883721922,
          "durationTicks": 7,
          "midi": 61,
          "name": "C#4",
          "ticks": 17732,
          "time": 206.1860465116279,
          "velocity": 0.2204724409448819
        },
        {
          "duration": 0.03488372093025305,
          "durationTicks": 3,
          "midi": 75,
          "name": "D#5",
          "ticks": 17732,
          "time": 206.1860465116279,
          "velocity": 0.14960629921259844
        },
        {
          "duration": 0.034883720930224626,
          "durationTicks": 3,
          "midi": 74,
          "name": "D5",
          "ticks": 17735,
          "time": 206.22093023255815,
          "velocity": 0.18110236220472442
        },
        {
          "duration": 0.22093023255814614,
          "durationTicks": 19,
          "midi": 55,
          "name": "G3",
          "ticks": 17738,
          "time": 206.25581395348837,
          "velocity": 0.3858267716535433
        },
        {
          "duration": 0.2325581395348877,
          "durationTicks": 20,
          "midi": 64,
          "name": "E4",
          "ticks": 17738,
          "time": 206.25581395348837,
          "velocity": 0.2125984251968504
        },
        {
          "duration": 0.04651162790696617,
          "durationTicks": 4,
          "midi": 77,
          "name": "F5",
          "ticks": 17738,
          "time": 206.25581395348837,
          "velocity": 0.12598425196850394
        },
        {
          "duration": 0.2093023255814046,
          "durationTicks": 18,
          "midi": 60,
          "name": "C4",
          "ticks": 17739,
          "time": 206.2674418604651,
          "velocity": 0.28346456692913385
        },
        {
          "duration": 0.22093023255814614,
          "durationTicks": 19,
          "midi": 70,
          "name": "A#4",
          "ticks": 17739,
          "time": 206.2674418604651,
          "velocity": 0.4251968503937008
        },
        {
          "duration": 0.04651162790699459,
          "durationTicks": 4,
          "midi": 84,
          "name": "C6",
          "ticks": 17739,
          "time": 206.2674418604651,
          "velocity": 0.07874015748031496
        },
        {
          "duration": 0.17441860465117998,
          "durationTicks": 15,
          "midi": 91,
          "name": "G6",
          "ticks": 17739,
          "time": 206.2674418604651,
          "velocity": 0.16535433070866143
        },
        {
          "duration": 0.04651162790699459,
          "durationTicks": 4,
          "midi": 95,
          "name": "B6",
          "ticks": 17739,
          "time": 206.2674418604651,
          "velocity": 0.07086614173228346
        },
        {
          "duration": 0.023255813953483084,
          "durationTicks": 2,
          "midi": 47,
          "name": "B2",
          "ticks": 17740,
          "time": 206.27906976744185,
          "velocity": 0.4881889763779528
        },
        {
          "duration": 0.25581395348837077,
          "durationTicks": 22,
          "midi": 74,
          "name": "D5",
          "ticks": 17740,
          "time": 206.27906976744185,
          "velocity": 0.1732283464566929
        },
        {
          "duration": 0.04651162790699459,
          "durationTicks": 4,
          "midi": 37,
          "name": "C#2",
          "ticks": 17741,
          "time": 206.2906976744186,
          "velocity": 0.4330708661417323
        },
        {
          "duration": 0.17441860465117998,
          "durationTicks": 15,
          "midi": 48,
          "name": "C3",
          "ticks": 17742,
          "time": 206.30232558139534,
          "velocity": 0.4251968503937008
        },
        {
          "duration": 0.11627906976744384,
          "durationTicks": 10,
          "midi": 78,
          "name": "F#5",
          "ticks": 17742,
          "time": 206.30232558139534,
          "velocity": 0.10236220472440945
        },
        {
          "duration": 0.09302325581393234,
          "durationTicks": 8,
          "midi": 83,
          "name": "B5",
          "ticks": 17744,
          "time": 206.32558139534885,
          "velocity": 0.07086614173228346
        },
        {
          "duration": 0.09302325581393234,
          "durationTicks": 8,
          "midi": 36,
          "name": "C2",
          "ticks": 17745,
          "time": 206.3372093023256,
          "velocity": 0.41732283464566927
        },
        {
          "duration": 0.023255813953511506,
          "durationTicks": 2,
          "midi": 35,
          "name": "B1",
          "ticks": 17753,
          "time": 206.43023255813952,
          "velocity": 0.25984251968503935
        },
        {
          "duration": 0.023255813953483084,
          "durationTicks": 2,
          "midi": 36,
          "name": "C2",
          "ticks": 17755,
          "time": 206.45348837209303,
          "velocity": 0.25984251968503935
        },
        {
          "duration": 0.22093023255814614,
          "durationTicks": 19,
          "midi": 50,
          "name": "D3",
          "ticks": 17757,
          "time": 206.47674418604652,
          "velocity": 0.4566929133858268
        },
        {
          "duration": 0.04651162790696617,
          "durationTicks": 4,
          "midi": 79,
          "name": "G5",
          "ticks": 17757,
          "time": 206.47674418604652,
          "velocity": 0.10236220472440945
        },
        {
          "duration": 0.09302325581396076,
          "durationTicks": 8,
          "midi": 91,
          "name": "G6",
          "ticks": 17757,
          "time": 206.47674418604652,
          "velocity": 0.12598425196850394
        },
        {
          "duration": 0.05813953488370771,
          "durationTicks": 5,
          "midi": 57,
          "name": "A3",
          "ticks": 17758,
          "time": 206.48837209302326,
          "velocity": 0.3779527559055118
        },
        {
          "duration": 0.023255813953483084,
          "durationTicks": 2,
          "midi": 61,
          "name": "C#4",
          "ticks": 17758,
          "time": 206.48837209302326,
          "velocity": 0.2992125984251969
        },
        {
          "duration": 0.4651162790697754,
          "durationTicks": 40,
          "midi": 66,
          "name": "F#4",
          "ticks": 17758,
          "time": 206.48837209302326,
          "velocity": 0.2755905511811024
        },
        {
          "duration": 0.6860465116278931,
          "durationTicks": 59,
          "midi": 69,
          "name": "A4",
          "ticks": 17758,
          "time": 206.48837209302326,
          "velocity": 0.6377952755905512
        },
        {
          "duration": 0.034883720930224626,
          "durationTicks": 3,
          "midi": 82,
          "name": "A#5",
          "ticks": 17758,
          "time": 206.48837209302326,
          "velocity": 0.07086614173228346
        },
        {
          "duration": 0.06976744186044925,
          "durationTicks": 6,
          "midi": 84,
          "name": "C6",
          "ticks": 17758,
          "time": 206.48837209302326,
          "velocity": 0.08661417322834646
        },
        {
          "duration": 0.15116279069766847,
          "durationTicks": 13,
          "midi": 85,
          "name": "C#6",
          "ticks": 17758,
          "time": 206.48837209302326,
          "velocity": 0.1968503937007874
        },
        {
          "duration": 0.6395348837209269,
          "durationTicks": 55,
          "midi": 88,
          "name": "E6",
          "ticks": 17758,
          "time": 206.48837209302326,
          "velocity": 0.29133858267716534
        },
        {
          "duration": 0.05813953488370771,
          "durationTicks": 5,
          "midi": 90,
          "name": "F#6",
          "ticks": 17758,
          "time": 206.48837209302326,
          "velocity": 0.12598425196850394
        },
        {
          "duration": 0.08139534883721922,
          "durationTicks": 7,
          "midi": 93,
          "name": "A6",
          "ticks": 17758,
          "time": 206.48837209302326,
          "velocity": 0.18110236220472442
        },
        {
          "duration": 0.1860465116278931,
          "durationTicks": 16,
          "midi": 95,
          "name": "B6",
          "ticks": 17758,
          "time": 206.48837209302326,
          "velocity": 0.14173228346456693
        },
        {
          "duration": 0.1860465116278931,
          "durationTicks": 16,
          "midi": 72,
          "name": "C5",
          "ticks": 17759,
          "time": 206.5,
          "velocity": 0.10236220472440945
        },
        {
          "duration": 0.06976744186047767,
          "durationTicks": 6,
          "midi": 38,
          "name": "D2",
          "ticks": 17761,
          "time": 206.52325581395348,
          "velocity": 0.44881889763779526
        },
        {
          "duration": 0.06976744186047767,
          "durationTicks": 6,
          "midi": 57,
          "name": "A3",
          "ticks": 17764,
          "time": 206.5581395348837,
          "velocity": 0.33070866141732286
        },
        {
          "duration": 0.1511627906976969,
          "durationTicks": 13,
          "midi": 76,
          "name": "E5",
          "ticks": 17764,
          "time": 206.5581395348837,
          "velocity": 0.09448818897637795
        },
        {
          "duration": 0.023255813953483084,
          "durationTicks": 2,
          "midi": 38,
          "name": "D2",
          "ticks": 17768,
          "time": 206.6046511627907,
          "velocity": 0.28346456692913385
        },
        {
          "duration": 0.04651162790696617,
          "durationTicks": 4,
          "midi": 37,
          "name": "C#2",
          "ticks": 17770,
          "time": 206.62790697674419,
          "velocity": 0.2755905511811024
        },
        {
          "duration": 0.04651162790696617,
          "durationTicks": 4,
          "midi": 57,
          "name": "A3",
          "ticks": 17771,
          "time": 206.63953488372093,
          "velocity": 0.16535433070866143
        },
        {
          "duration": 0.034883720930224626,
          "durationTicks": 3,
          "midi": 74,
          "name": "D5",
          "ticks": 17776,
          "time": 206.69767441860466,
          "velocity": 0.14173228346456693
        },
        {
          "duration": 0.4767441860464885,
          "durationTicks": 41,
          "midi": 85,
          "name": "C#6",
          "ticks": 17776,
          "time": 206.69767441860466,
          "velocity": 0.29133858267716534
        },
        {
          "duration": 0.023255813953483084,
          "durationTicks": 2,
          "midi": 56,
          "name": "G#3",
          "ticks": 17777,
          "time": 206.7093023255814,
          "velocity": 0.3937007874015748
        },
        {
          "duration": 0.034883720930224626,
          "durationTicks": 3,
          "midi": 79,
          "name": "G5",
          "ticks": 17777,
          "time": 206.7093023255814,
          "velocity": 0.09448818897637795
        },
        {
          "duration": 0.09302325581393234,
          "durationTicks": 8,
          "midi": 93,
          "name": "A6",
          "ticks": 17777,
          "time": 206.7093023255814,
          "velocity": 0.2283464566929134
        },
        {
          "duration": 0.023255813953483084,
          "durationTicks": 2,
          "midi": 40,
          "name": "E2",
          "ticks": 17778,
          "time": 206.72093023255815,
          "velocity": 0.48031496062992124
        },
        {
          "duration": 0.22093023255814614,
          "durationTicks": 19,
          "midi": 50,
          "name": "D3",
          "ticks": 17778,
          "time": 206.72093023255815,
          "velocity": 0.47244094488188976
        },
        {
          "duration": 0.04651162790696617,
          "durationTicks": 4,
          "midi": 84,
          "name": "C6",
          "ticks": 17778,
          "time": 206.72093023255815,
          "velocity": 0.08661417322834646
        },
        {
          "duration": 0.44186046511626387,
          "durationTicks": 38,
          "midi": 57,
          "name": "A3",
          "ticks": 17779,
          "time": 206.7325581395349,
          "velocity": 0.4881889763779528
        },
        {
          "duration": 0.30232558139533694,
          "durationTicks": 26,
          "midi": 95,
          "name": "B6",
          "ticks": 17779,
          "time": 206.7325581395349,
          "velocity": 0.1889763779527559
        },
        {
          "duration": 0.023255813953483084,
          "durationTicks": 2,
          "midi": 39,
          "name": "D#2",
          "ticks": 17780,
          "time": 206.74418604651163,
          "velocity": 0.4251968503937008
        },
        {
          "duration": 0.5116279069767415,
          "durationTicks": 44,
          "midi": 76,
          "name": "E5",
          "ticks": 17780,
          "time": 206.74418604651163,
          "velocity": 0.2440944881889764
        },
        {
          "duration": 0.034883720930224626,
          "durationTicks": 3,
          "midi": 91,
          "name": "G6",
          "ticks": 17781,
          "time": 206.75581395348837,
          "velocity": 0.08661417322834646
        },
        {
          "duration": 0.05813953488373613,
          "durationTicks": 5,
          "midi": 38,
          "name": "D2",
          "ticks": 17782,
          "time": 206.7674418604651,
          "velocity": 0.41732283464566927
        },
        {
          "duration": 0.04651162790696617,
          "durationTicks": 4,
          "midi": 80,
          "name": "G#5",
          "ticks": 17787,
          "time": 206.82558139534885,
          "velocity": 0.13385826771653545
        },
        {
          "duration": 0.20930232558137618,
          "durationTicks": 18,
          "midi": 91,
          "name": "G6",
          "ticks": 17787,
          "time": 206.82558139534885,
          "velocity": 0.11811023622047244
        },
        {
          "duration": 0.06976744186044925,
          "durationTicks": 6,
          "midi": 93,
          "name": "A6",
          "ticks": 17788,
          "time": 206.8372093023256,
          "velocity": 0.18110236220472442
        },
        {
          "duration": 0.06976744186044925,
          "durationTicks": 6,
          "midi": 72,
          "name": "C5",
          "ticks": 17789,
          "time": 206.84883720930233,
          "velocity": 0.2047244094488189
        },
        {
          "duration": 0.034883720930224626,
          "durationTicks": 3,
          "midi": 38,
          "name": "D2",
          "ticks": 17792,
          "time": 206.88372093023256,
          "velocity": 0.33070866141732286
        },
        {
          "duration": 0.06976744186044925,
          "durationTicks": 6,
          "midi": 73,
          "name": "C#5",
          "ticks": 17797,
          "time": 206.9418604651163,
          "velocity": 0.18110236220472442
        },
        {
          "duration": 0.0813953488371908,
          "durationTicks": 7,
          "midi": 75,
          "name": "D#5",
          "ticks": 17797,
          "time": 206.9418604651163,
          "velocity": 0.2125984251968504
        },
        {
          "duration": 0.25581395348837077,
          "durationTicks": 22,
          "midi": 79,
          "name": "G5",
          "ticks": 17797,
          "time": 206.9418604651163,
          "velocity": 0.16535433070866143
        },
        {
          "duration": 0.023255813953483084,
          "durationTicks": 2,
          "midi": 44,
          "name": "G#2",
          "ticks": 17798,
          "time": 206.95348837209303,
          "velocity": 0.5118110236220472
        },
        {
          "duration": 0.09302325581393234,
          "durationTicks": 8,
          "midi": 83,
          "name": "B5",
          "ticks": 17798,
          "time": 206.95348837209303,
          "velocity": 0.09448818897637795
        },
        {
          "duration": 0.023255813953483084,
          "durationTicks": 2,
          "midi": 52,
          "name": "E3",
          "ticks": 17799,
          "time": 206.96511627906978,
          "velocity": 0.36220472440944884
        },
        {
          "duration": 0.034883720930224626,
          "durationTicks": 3,
          "midi": 61,
          "name": "C#4",
          "ticks": 17800,
          "time": 206.97674418604652,
          "velocity": 0.25984251968503935
        },
        {
          "duration": 0.16279069767441,
          "durationTicks": 14,
          "midi": 45,
          "name": "A2",
          "ticks": 17803,
          "time": 207.01162790697674,
          "velocity": 0.4015748031496063
        },
        {
          "duration": 0.13953488372092693,
          "durationTicks": 12,
          "midi": 52,
          "name": "E3",
          "ticks": 17804,
          "time": 207.02325581395348,
          "velocity": 0.28346456692913385
        },
        {
          "duration": 0.04651162790699459,
          "durationTicks": 4,
          "midi": 61,
          "name": "C#4",
          "ticks": 17804,
          "time": 207.02325581395348,
          "velocity": 0.1889763779527559
        },
        {
          "duration": 0.16279069767443843,
          "durationTicks": 14,
          "midi": 75,
          "name": "D#5",
          "ticks": 17805,
          "time": 207.03488372093022,
          "velocity": 0.2283464566929134
        },
        {
          "duration": 0.0813953488371908,
          "durationTicks": 7,
          "midi": 61,
          "name": "C#4",
          "ticks": 17809,
          "time": 207.08139534883722,
          "velocity": 0.14960629921259844
        },
        {
          "duration": 0.023255813953511506,
          "durationTicks": 2,
          "midi": 58,
          "name": "A#3",
          "ticks": 17817,
          "time": 207.17441860465115,
          "velocity": 0.2992125984251969
        },
        {
          "duration": 0.05813953488373613,
          "durationTicks": 5,
          "midi": 81,
          "name": "A5",
          "ticks": 17817,
          "time": 207.17441860465115,
          "velocity": 0.2440944881889764
        },
        {
          "duration": 0.26744186046514073,
          "durationTicks": 23,
          "midi": 88,
          "name": "E6",
          "ticks": 17817,
          "time": 207.17441860465115,
          "velocity": 0.31496062992125984
        },
        {
          "duration": 0.08139534883721922,
          "durationTicks": 7,
          "midi": 91,
          "name": "G6",
          "ticks": 17817,
          "time": 207.17441860465115,
          "velocity": 0.1732283464566929
        },
        {
          "duration": 0.03488372093025305,
          "durationTicks": 3,
          "midi": 48,
          "name": "C3",
          "ticks": 17818,
          "time": 207.1860465116279,
          "velocity": 0.44881889763779526
        },
        {
          "duration": 0.32558139534884845,
          "durationTicks": 28,
          "midi": 69,
          "name": "A4",
          "ticks": 17818,
          "time": 207.1860465116279,
          "velocity": 0.6377952755905512
        },
        {
          "duration": 0.1279069767442138,
          "durationTicks": 11,
          "midi": 95,
          "name": "B6",
          "ticks": 17818,
          "time": 207.1860465116279,
          "velocity": 0.16535433070866143
        },
        {
          "duration": 0.034883720930224626,
          "durationTicks": 3,
          "midi": 56,
          "name": "G#3",
          "ticks": 17819,
          "time": 207.19767441860466,
          "velocity": 0.3700787401574803
        },
        {
          "duration": 0.20930232558137618,
          "durationTicks": 18,
          "midi": 64,
          "name": "E4",
          "ticks": 17819,
          "time": 207.19767441860466,
          "velocity": 0.2677165354330709
        },
        {
          "duration": 0.034883720930224626,
          "durationTicks": 3,
          "midi": 74,
          "name": "D5",
          "ticks": 17819,
          "time": 207.19767441860466,
          "velocity": 0.23622047244094488
        },
        {
          "duration": 0.19767441860463464,
          "durationTicks": 17,
          "midi": 85,
          "name": "C#6",
          "ticks": 17819,
          "time": 207.19767441860466,
          "velocity": 0.23622047244094488
        },
        {
          "duration": 0.034883720930224626,
          "durationTicks": 3,
          "midi": 78,
          "name": "F#5",
          "ticks": 17820,
          "time": 207.2093023255814,
          "velocity": 0.08661417322834646
        },
        {
          "duration": 0.023255813953483084,
          "durationTicks": 2,
          "midi": 47,
          "name": "B2",
          "ticks": 17821,
          "time": 207.22093023255815,
          "velocity": 0.4566929133858268
        },
        {
          "duration": 0.034883720930224626,
          "durationTicks": 3,
          "midi": 37,
          "name": "C#2",
          "ticks": 17822,
          "time": 207.2325581395349,
          "velocity": 0.44881889763779526
        },
        {
          "duration": 0.06976744186047767,
          "durationTicks": 6,
          "midi": 48,
          "name": "C3",
          "ticks": 17823,
          "time": 207.24418604651163,
          "velocity": 0.4094488188976378
        },
        {
          "duration": 0.034883720930224626,
          "durationTicks": 3,
          "midi": 56,
          "name": "G#3",
          "ticks": 17823,
          "time": 207.24418604651163,
          "velocity": 0.3543307086614173
        },
        {
          "duration": 0.034883720930224626,
          "durationTicks": 3,
          "midi": 77,
          "name": "F5",
          "ticks": 17823,
          "time": 207.24418604651163,
          "velocity": 0.08661417322834646
        },
        {
          "duration": 0.04651162790696617,
          "durationTicks": 4,
          "midi": 74,
          "name": "D5",
          "ticks": 17824,
          "time": 207.25581395348837,
          "velocity": 0.2204724409448819
        },
        {
          "duration": 0.023255813953483084,
          "durationTicks": 2,
          "midi": 36,
          "name": "C2",
          "ticks": 17825,
          "time": 207.2674418604651,
          "velocity": 0.3858267716535433
        },
        {
          "duration": 0.1046511627907023,
          "durationTicks": 9,
          "midi": 91,
          "name": "G6",
          "ticks": 17825,
          "time": 207.2674418604651,
          "velocity": 0.16535433070866143
        },
        {
          "duration": 0.023255813953511506,
          "durationTicks": 2,
          "midi": 37,
          "name": "C#2",
          "ticks": 17827,
          "time": 207.2906976744186,
          "velocity": 0.4094488188976378
        },
        {
          "duration": 0.023255813953483084,
          "durationTicks": 2,
          "midi": 55,
          "name": "G3",
          "ticks": 17829,
          "time": 207.3139534883721,
          "velocity": 0.2283464566929134
        },
        {
          "duration": 0.06976744186044925,
          "durationTicks": 6,
          "midi": 48,
          "name": "C3",
          "ticks": 17830,
          "time": 207.32558139534885,
          "velocity": 0.3464566929133858
        },
        {
          "duration": 0.034883720930224626,
          "durationTicks": 3,
          "midi": 56,
          "name": "G#3",
          "ticks": 17830,
          "time": 207.32558139534885,
          "velocity": 0.31496062992125984
        },
        {
          "duration": 0.034883720930224626,
          "durationTicks": 3,
          "midi": 36,
          "name": "C2",
          "ticks": 17831,
          "time": 207.3372093023256,
          "velocity": 0.2992125984251969
        },
        {
          "duration": 0.4651162790697754,
          "durationTicks": 40,
          "midi": 50,
          "name": "D3",
          "ticks": 17836,
          "time": 207.3953488372093,
          "velocity": 0.5118110236220472
        },
        {
          "duration": 0.4418604651162923,
          "durationTicks": 38,
          "midi": 66,
          "name": "F#4",
          "ticks": 17837,
          "time": 207.40697674418604,
          "velocity": 0.2755905511811024
        },
        {
          "duration": 0.1046511627907023,
          "durationTicks": 9,
          "midi": 72,
          "name": "C5",
          "ticks": 17837,
          "time": 207.40697674418604,
          "velocity": 0.14960629921259844
        },
        {
          "duration": 0.04651162790699459,
          "durationTicks": 4,
          "midi": 80,
          "name": "G#5",
          "ticks": 17837,
          "time": 207.40697674418604,
          "velocity": 0.10236220472440945
        },
        {
          "duration": 0.05813953488373613,
          "durationTicks": 5,
          "midi": 38,
          "name": "D2",
          "ticks": 17839,
          "time": 207.43023255813952,
          "velocity": 0.44881889763779526
        },
        {
          "duration": 0.34883720930233153,
          "durationTicks": 30,
          "midi": 85,
          "name": "C#6",
          "ticks": 17839,
          "time": 207.43023255813952,
          "velocity": 0.23622047244094488
        },
        {
          "duration": 0.023255813953483084,
          "durationTicks": 2,
          "midi": 56,
          "name": "G#3",
          "ticks": 17840,
          "time": 207.4418604651163,
          "velocity": 0.2755905511811024
        },
        {
          "duration": 0.16279069767441,
          "durationTicks": 14,
          "midi": 57,
          "name": "A3",
          "ticks": 17842,
          "time": 207.46511627906978,
          "velocity": 0.44881889763779526
        },
        {
          "duration": 0.05813953488370771,
          "durationTicks": 5,
          "midi": 80,
          "name": "G#5",
          "ticks": 17842,
          "time": 207.46511627906978,
          "velocity": 0.07086614173228346
        },
        {
          "duration": 0.11627906976744384,
          "durationTicks": 10,
          "midi": 81,
          "name": "A5",
          "ticks": 17846,
          "time": 207.51162790697674,
          "velocity": 0.1968503937007874
        },
        {
          "duration": 0.2906976744185954,
          "durationTicks": 25,
          "midi": 88,
          "name": "E6",
          "ticks": 17846,
          "time": 207.51162790697674,
          "velocity": 0.23622047244094488
        },
        {
          "duration": 0.023255813953483084,
          "durationTicks": 2,
          "midi": 40,
          "name": "E2",
          "ticks": 17847,
          "time": 207.52325581395348,
          "velocity": 0.36220472440944884
        },
        {
          "duration": 0.6279069767441854,
          "durationTicks": 54,
          "midi": 69,
          "name": "A4",
          "ticks": 17847,
          "time": 207.52325581395348,
          "velocity": 0.6299212598425197
        },
        {
          "duration": 0.25581395348837077,
          "durationTicks": 22,
          "midi": 95,
          "name": "B6",
          "ticks": 17847,
          "time": 207.52325581395348,
          "velocity": 0.1732283464566929
        },
        {
          "duration": 0.08139534883721922,
          "durationTicks": 7,
          "midi": 72,
          "name": "C5",
          "ticks": 17848,
          "time": 207.53488372093022,
          "velocity": 0.2125984251968504
        },
        {
          "duration": 0.12790697674418539,
          "durationTicks": 11,
          "midi": 91,
          "name": "G6",
          "ticks": 17848,
          "time": 207.53488372093022,
          "velocity": 0.12598425196850394
        },
        {
          "duration": 0.05813953488370771,
          "durationTicks": 5,
          "midi": 38,
          "name": "D2",
          "ticks": 17851,
          "time": 207.56976744186048,
          "velocity": 0.31496062992125984
        },
        {
          "duration": 0.034883720930224626,
          "durationTicks": 3,
          "midi": 74,
          "name": "D5",
          "ticks": 17856,
          "time": 207.62790697674419,
          "velocity": 0.13385826771653545
        },
        {
          "duration": 0.09302325581396076,
          "durationTicks": 8,
          "midi": 90,
          "name": "F#6",
          "ticks": 17856,
          "time": 207.62790697674419,
          "velocity": 0.13385826771653545
        },
        {
          "duration": 0.2325581395348877,
          "durationTicks": 20,
          "midi": 57,
          "name": "A3",
          "ticks": 17857,
          "time": 207.63953488372093,
          "velocity": 0.4409448818897638
        },
        {
          "duration": 0.034883720930224626,
          "durationTicks": 3,
          "midi": 79,
          "name": "G5",
          "ticks": 17857,
          "time": 207.63953488372093,
          "velocity": 0.15748031496062992
        },
        {
          "duration": 0.05813953488373613,
          "durationTicks": 5,
          "midi": 84,
          "name": "C6",
          "ticks": 17858,
          "time": 207.65116279069767,
          "velocity": 0.08661417322834646
        },
        {
          "duration": 0.03488372093025305,
          "durationTicks": 3,
          "midi": 39,
          "name": "D#2",
          "ticks": 17859,
          "time": 207.6627906976744,
          "velocity": 0.49606299212598426
        },
        {
          "duration": 0.04651162790699459,
          "durationTicks": 4,
          "midi": 72,
          "name": "C5",
          "ticks": 17860,
          "time": 207.67441860465115,
          "velocity": 0.07874015748031496
        },
        {
          "duration": 0.1511627906976969,
          "durationTicks": 13,
          "midi": 80,
          "name": "G#5",
          "ticks": 17860,
          "time": 207.67441860465115,
          "velocity": 0.14173228346456693
        },
        {
          "duration": 0.03488372093025305,
          "durationTicks": 3,
          "midi": 91,
          "name": "G6",
          "ticks": 17861,
          "time": 207.6860465116279,
          "velocity": 0.11023622047244094
        },
        {
          "duration": 0.09302325581393234,
          "durationTicks": 8,
          "midi": 38,
          "name": "D2",
          "ticks": 17862,
          "time": 207.69767441860466,
          "velocity": 0.4251968503937008
        },
        {
          "duration": 0.13953488372092693,
          "durationTicks": 12,
          "midi": 76,
          "name": "E5",
          "ticks": 17862,
          "time": 207.69767441860466,
          "velocity": 0.07874015748031496
        },
        {
          "duration": 0.11627906976744384,
          "durationTicks": 10,
          "midi": 72,
          "name": "C5",
          "ticks": 17865,
          "time": 207.7325581395349,
          "velocity": 0.15748031496062992
        },
        {
          "duration": 0.03488372093025305,
          "durationTicks": 3,
          "midi": 38,
          "name": "D2",
          "ticks": 17871,
          "time": 207.80232558139534,
          "velocity": 0.28346456692913385
        },
        {
          "duration": 0.24418604651162923,
          "durationTicks": 21,
          "midi": 65,
          "name": "F4",
          "ticks": 17875,
          "time": 207.84883720930233,
          "velocity": 0.30708661417322836
        },
        {
          "duration": 0.24418604651162923,
          "durationTicks": 21,
          "midi": 75,
          "name": "D#5",
          "ticks": 17875,
          "time": 207.84883720930233,
          "velocity": 0.2283464566929134
        },
        {
          "duration": 0.13953488372092693,
          "durationTicks": 12,
          "midi": 79,
          "name": "G5",
          "ticks": 17875,
          "time": 207.84883720930233,
          "velocity": 0.14173228346456693
        },
        {
          "duration": 0.5697674418604493,
          "durationTicks": 49,
          "midi": 88,
          "name": "E6",
          "ticks": 17875,
          "time": 207.84883720930233,
          "velocity": 0.31496062992125984
        },
        {
          "duration": 0.20930232558137618,
          "durationTicks": 18,
          "midi": 93,
          "name": "A6",
          "ticks": 17875,
          "time": 207.84883720930233,
          "velocity": 0.25196850393700787
        },
        {
          "duration": 0.11627906976744384,
          "durationTicks": 10,
          "midi": 72,
          "name": "C5",
          "ticks": 17876,
          "time": 207.86046511627907,
          "velocity": 0.2283464566929134
        },
        {
          "duration": 0.11627906976744384,
          "durationTicks": 10,
          "midi": 83,
          "name": "B5",
          "ticks": 17876,
          "time": 207.86046511627907,
          "velocity": 0.13385826771653545
        },
        {
          "duration": 0.24418604651162923,
          "durationTicks": 21,
          "midi": 85,
          "name": "C#6",
          "ticks": 17876,
          "time": 207.86046511627907,
          "velocity": 0.25196850393700787
        },
        {
          "duration": 0.5697674418604493,
          "durationTicks": 49,
          "midi": 95,
          "name": "B6",
          "ticks": 17876,
          "time": 207.86046511627907,
          "velocity": 0.23622047244094488
        },
        {
          "duration": 0.023255813953483084,
          "durationTicks": 2,
          "midi": 41,
          "name": "F2",
          "ticks": 17877,
          "time": 207.87209302325581,
          "velocity": 0.4645669291338583
        },
        {
          "duration": 0.08139534883721922,
          "durationTicks": 7,
          "midi": 60,
          "name": "C4",
          "ticks": 17877,
          "time": 207.87209302325581,
          "velocity": 0.31496062992125984
        },
        {
          "duration": 0.06976744186047767,
          "durationTicks": 6,
          "midi": 96,
          "name": "C7",
          "ticks": 17878,
          "time": 207.88372093023256,
          "velocity": 0.09448818897637795
        },
        {
          "duration": 0.023255813953483084,
          "durationTicks": 2,
          "midi": 43,
          "name": "G2",
          "ticks": 17879,
          "time": 207.8953488372093,
          "velocity": 0.3858267716535433
        },
        {
          "duration": 0.04651162790699459,
          "durationTicks": 4,
          "midi": 41,
          "name": "F2",
          "ticks": 17881,
          "time": 207.91860465116278,
          "velocity": 0.4094488188976378
        },
        {
          "duration": 0.16279069767441,
          "durationTicks": 14,
          "midi": 57,
          "name": "A3",
          "ticks": 17883,
          "time": 207.9418604651163,
          "velocity": 0.47244094488188976
        },
        {
          "duration": 0.023255813953483084,
          "durationTicks": 2,
          "midi": 42,
          "name": "F#2",
          "ticks": 17885,
          "time": 207.96511627906978,
          "velocity": 0.25196850393700787
        },
        {
          "duration": 0.034883720930224626,
          "durationTicks": 3,
          "midi": 76,
          "name": "E5",
          "ticks": 17887,
          "time": 207.98837209302326,
          "velocity": 0.1732283464566929
        },
        {
          "duration": 0.034883720930224626,
          "durationTicks": 3,
          "midi": 83,
          "name": "B5",
          "ticks": 17887,
          "time": 207.98837209302326,
          "velocity": 0.07086614173228346
        },
        {
          "duration": 0.034883720930224626,
          "durationTicks": 3,
          "midi": 53,
          "name": "F3",
          "ticks": 17889,
          "time": 208.01162790697674,
          "velocity": 0.3700787401574803
        },
        {
          "duration": 0.34883720930233153,
          "durationTicks": 30,
          "midi": 91,
          "name": "G6",
          "ticks": 17889,
          "time": 208.01162790697674,
          "velocity": 0.16535433070866143
        },
        {
          "duration": 0.023255813953511506,
          "durationTicks": 2,
          "midi": 41,
          "name": "F2",
          "ticks": 17893,
          "time": 208.0581395348837,
          "velocity": 0.2992125984251969
        },
        {
          "duration": 0.03488372093025305,
          "durationTicks": 3,
          "midi": 53,
          "name": "F3",
          "ticks": 17893,
          "time": 208.0581395348837,
          "velocity": 0.3228346456692913
        },
        {
          "duration": 0.023255813953483084,
          "durationTicks": 2,
          "midi": 42,
          "name": "F#2",
          "ticks": 17895,
          "time": 208.08139534883722,
          "velocity": 0.4566929133858268
        },
        {
          "duration": 0.05813953488370771,
          "durationTicks": 5,
          "midi": 62,
          "name": "D4",
          "ticks": 17895,
          "time": 208.08139534883722,
          "velocity": 0.25196850393700787
        },
        {
          "duration": 0.04651162790696617,
          "durationTicks": 4,
          "midi": 79,
          "name": "G5",
          "ticks": 17895,
          "time": 208.08139534883722,
          "velocity": 0.07086614173228346
        },
        {
          "duration": 0.17441860465115155,
          "durationTicks": 15,
          "midi": 83,
          "name": "B5",
          "ticks": 17895,
          "time": 208.08139534883722,
          "velocity": 0.2125984251968504
        },
        {
          "duration": 0.24418604651162923,
          "durationTicks": 21,
          "midi": 74,
          "name": "D5",
          "ticks": 17896,
          "time": 208.09302325581396,
          "velocity": 0.31496062992125984
        },
        {
          "duration": 0.05813953488370771,
          "durationTicks": 5,
          "midi": 77,
          "name": "F5",
          "ticks": 17896,
          "time": 208.09302325581396,
          "velocity": 0.1968503937007874
        },
        {
          "duration": 0.13953488372092693,
          "durationTicks": 12,
          "midi": 90,
          "name": "F#6",
          "ticks": 17896,
          "time": 208.09302325581396,
          "velocity": 0.12598425196850394
        },
        {
          "duration": 0.2325581395348877,
          "durationTicks": 20,
          "midi": 97,
          "name": "C#7",
          "ticks": 17897,
          "time": 208.1046511627907,
          "velocity": 0.14173228346456693
        },
        {
          "duration": 0.33720930232559,
          "durationTicks": 29,
          "midi": 85,
          "name": "C#6",
          "ticks": 17898,
          "time": 208.11627906976744,
          "velocity": 0.36220472440944884
        },
        {
          "duration": 0.034883720930224626,
          "durationTicks": 3,
          "midi": 98,
          "name": "D7",
          "ticks": 17898,
          "time": 208.11627906976744,
          "velocity": 0.09448818897637795
        },
        {
          "duration": 0.034883720930224626,
          "durationTicks": 3,
          "midi": 43,
          "name": "G2",
          "ticks": 17899,
          "time": 208.12790697674419,
          "velocity": 0.3543307086614173
        },
        {
          "duration": 0.04651162790699459,
          "durationTicks": 4,
          "midi": 57,
          "name": "A3",
          "ticks": 17901,
          "time": 208.15116279069767,
          "velocity": 0.4251968503937008
        },
        {
          "duration": 0.04651162790699459,
          "durationTicks": 4,
          "midi": 62,
          "name": "D4",
          "ticks": 17901,
          "time": 208.15116279069767,
          "velocity": 0.2440944881889764
        },
        {
          "duration": 0.011627906976741542,
          "durationTicks": 1,
          "midi": 70,
          "name": "A#4",
          "ticks": 17901,
          "time": 208.15116279069767,
          "velocity": 0.5118110236220472
        },
        {
          "duration": 0.023255813953483084,
          "durationTicks": 2,
          "midi": 44,
          "name": "G#2",
          "ticks": 17902,
          "time": 208.1627906976744,
          "velocity": 0.3228346456692913
        },
        {
          "duration": 0.03488372093025305,
          "durationTicks": 3,
          "midi": 69,
          "name": "A4",
          "ticks": 17902,
          "time": 208.1627906976744,
          "velocity": 0.49606299212598426
        },
        {
          "duration": 0.1046511627907023,
          "durationTicks": 9,
          "midi": 77,
          "name": "F5",
          "ticks": 17902,
          "time": 208.1627906976744,
          "velocity": 0.1889763779527559
        },
        {
          "duration": 0.04651162790699459,
          "durationTicks": 4,
          "midi": 42,
          "name": "F#2",
          "ticks": 17904,
          "time": 208.1860465116279,
          "velocity": 0.4409448818897638
        },
        {
          "duration": 0.023255813953483084,
          "durationTicks": 2,
          "midi": 70,
          "name": "A#4",
          "ticks": 17905,
          "time": 208.19767441860466,
          "velocity": 0.48031496062992124
        },
        {
          "duration": 0.034883720930224626,
          "durationTicks": 3,
          "midi": 62,
          "name": "D4",
          "ticks": 17906,
          "time": 208.2093023255814,
          "velocity": 0.18110236220472442
        },
        {
          "duration": 0.04651162790696617,
          "durationTicks": 4,
          "midi": 69,
          "name": "A4",
          "ticks": 17907,
          "time": 208.22093023255815,
          "velocity": 0.5433070866141733
        },
        {
          "duration": 0.023255813953483084,
          "durationTicks": 2,
          "midi": 44,
          "name": "G#2",
          "ticks": 17909,
          "time": 208.24418604651163,
          "velocity": 0.3464566929133858
        },
        {
          "duration": 0.023255813953483084,
          "durationTicks": 2,
          "midi": 58,
          "name": "A#3",
          "ticks": 17910,
          "time": 208.25581395348837,
          "velocity": 0.33858267716535434
        },
        {
          "duration": 0.034883720930224626,
          "durationTicks": 3,
          "midi": 90,
          "name": "F#6",
          "ticks": 17910,
          "time": 208.25581395348837,
          "velocity": 0.07086614173228346
        },
        {
          "duration": 0.03488372093025305,
          "durationTicks": 3,
          "midi": 42,
          "name": "F#2",
          "ticks": 17912,
          "time": 208.27906976744185,
          "velocity": 0.4330708661417323
        },
        {
          "duration": 0.023255813953483084,
          "durationTicks": 2,
          "midi": 56,
          "name": "G#3",
          "ticks": 17912,
          "time": 208.27906976744185,
          "velocity": 0.3937007874015748
        },
        {
          "duration": 0.2093023255814046,
          "durationTicks": 18,
          "midi": 69,
          "name": "A4",
          "ticks": 17912,
          "time": 208.27906976744185,
          "velocity": 0.5433070866141733
        },
        {
          "duration": 0.08139534883721922,
          "durationTicks": 7,
          "midi": 89,
          "name": "F6",
          "ticks": 17912,
          "time": 208.27906976744185,
          "velocity": 0.14173228346456693
        },
        {
          "duration": 0.023255813953511506,
          "durationTicks": 2,
          "midi": 55,
          "name": "G3",
          "ticks": 17914,
          "time": 208.30232558139534,
          "velocity": 0.36220472440944884
        },
        {
          "duration": 0.5813953488372192,
          "durationTicks": 50,
          "midi": 86,
          "name": "D6",
          "ticks": 17914,
          "time": 208.30232558139534,
          "velocity": 0.4881889763779528
        },
        {
          "duration": 0.04651162790696617,
          "durationTicks": 4,
          "midi": 62,
          "name": "D4",
          "ticks": 17915,
          "time": 208.3139534883721,
          "velocity": 0.23622047244094488
        },
        {
          "duration": 0.48837209302323004,
          "durationTicks": 42,
          "midi": 83,
          "name": "B5",
          "ticks": 17915,
          "time": 208.3139534883721,
          "velocity": 0.2755905511811024
        },
        {
          "duration": 0.034883720930224626,
          "durationTicks": 3,
          "midi": 75,
          "name": "D#5",
          "ticks": 17916,
          "time": 208.32558139534885,
          "velocity": 0.11023622047244094
        },
        {
          "duration": 0.27906976744185386,
          "durationTicks": 24,
          "midi": 77,
          "name": "F5",
          "ticks": 17916,
          "time": 208.32558139534885,
          "velocity": 0.11811023622047244
        },
        {
          "duration": 0.023255813953483084,
          "durationTicks": 2,
          "midi": 42,
          "name": "F#2",
          "ticks": 17917,
          "time": 208.3372093023256,
          "velocity": 0.5196850393700787
        },
        {
          "duration": 0.023255813953483084,
          "durationTicks": 2,
          "midi": 55,
          "name": "G3",
          "ticks": 17917,
          "time": 208.3372093023256,
          "velocity": 0.29133858267716534
        },
        {
          "duration": 0.4534883720930054,
          "durationTicks": 39,
          "midi": 65,
          "name": "F4",
          "ticks": 17917,
          "time": 208.3372093023256,
          "velocity": 0.1968503937007874
        },
        {
          "duration": 0.44186046511626387,
          "durationTicks": 38,
          "midi": 43,
          "name": "G2",
          "ticks": 17919,
          "time": 208.36046511627907,
          "velocity": 0.48031496062992124
        },
        {
          "duration": 0.023255813953483084,
          "durationTicks": 2,
          "midi": 57,
          "name": "A3",
          "ticks": 17919,
          "time": 208.36046511627907,
          "velocity": 0.28346456692913385
        },
        {
          "duration": 0.45348837209303383,
          "durationTicks": 39,
          "midi": 73,
          "name": "C#5",
          "ticks": 17920,
          "time": 208.37209302325581,
          "velocity": 0.2047244094488189
        },
        {
          "duration": 0.023255813953483084,
          "durationTicks": 2,
          "midi": 50,
          "name": "D3",
          "ticks": 17921,
          "time": 208.38372093023256,
          "velocity": 0.25196850393700787
        },
        {
          "duration": 0.023255813953483084,
          "durationTicks": 2,
          "midi": 50,
          "name": "D3",
          "ticks": 17928,
          "time": 208.46511627906978,
          "velocity": 0.23622047244094488
        },
        {
          "duration": 0.33720930232556157,
          "durationTicks": 29,
          "midi": 59,
          "name": "B3",
          "ticks": 17928,
          "time": 208.46511627906978,
          "velocity": 0.2677165354330709
        },
        {
          "duration": 0.04651162790699459,
          "durationTicks": 4,
          "midi": 50,
          "name": "D3",
          "ticks": 17935,
          "time": 208.54651162790697,
          "velocity": 0.1968503937007874
        },
        {
          "duration": 0.04651162790696617,
          "durationTicks": 4,
          "midi": 50,
          "name": "D3",
          "ticks": 17942,
          "time": 208.62790697674419,
          "velocity": 0.1889763779527559
        },
        {
          "duration": 0.04651162790699459,
          "durationTicks": 4,
          "midi": 76,
          "name": "E5",
          "ticks": 17955,
          "time": 208.77906976744185,
          "velocity": 0.12598425196850394
        },
        {
          "duration": 0.40697674418603924,
          "durationTicks": 35,
          "midi": 85,
          "name": "C#6",
          "ticks": 17955,
          "time": 208.77906976744185,
          "velocity": 0.23622047244094488
        },
        {
          "duration": 0.5,
          "durationTicks": 43,
          "midi": 67,
          "name": "G4",
          "ticks": 17956,
          "time": 208.7906976744186,
          "velocity": 0.2125984251968504
        },
        {
          "duration": 0.04651162790699459,
          "durationTicks": 4,
          "midi": 75,
          "name": "D#5",
          "ticks": 17956,
          "time": 208.7906976744186,
          "velocity": 0.2283464566929134
        },
        {
          "duration": 0.03488372093025305,
          "durationTicks": 3,
          "midi": 77,
          "name": "F5",
          "ticks": 17956,
          "time": 208.7906976744186,
          "velocity": 0.13385826771653545
        },
        {
          "duration": 0.03488372093025305,
          "durationTicks": 3,
          "midi": 84,
          "name": "C6",
          "ticks": 17956,
          "time": 208.7906976744186,
          "velocity": 0.10236220472440945
        },
        {
          "duration": 0.011627906976769964,
          "durationTicks": 1,
          "midi": 44,
          "name": "G#2",
          "ticks": 17957,
          "time": 208.80232558139534,
          "velocity": 0.5354330708661418
        },
        {
          "duration": 0.3139534883721069,
          "durationTicks": 27,
          "midi": 52,
          "name": "E3",
          "ticks": 17957,
          "time": 208.80232558139534,
          "velocity": 0.2992125984251969
        },
        {
          "duration": 0.30232558139533694,
          "durationTicks": 26,
          "midi": 45,
          "name": "A2",
          "ticks": 17958,
          "time": 208.8139534883721,
          "velocity": 0.4881889763779528
        },
        {
          "duration": 0.30232558139533694,
          "durationTicks": 26,
          "midi": 61,
          "name": "C#4",
          "ticks": 17958,
          "time": 208.8139534883721,
          "velocity": 0.2440944881889764
        },
        {
          "duration": 0.27906976744185386,
          "durationTicks": 24,
          "midi": 75,
          "name": "D#5",
          "ticks": 17961,
          "time": 208.84883720930233,
          "velocity": 0.2125984251968504
        },
        {
          "duration": 0.11627906976744384,
          "durationTicks": 10,
          "midi": 76,
          "name": "E5",
          "ticks": 17961,
          "time": 208.84883720930233,
          "velocity": 0.08661417322834646
        },
        {
          "duration": 0.023255813953483084,
          "durationTicks": 2,
          "midi": 47,
          "name": "B2",
          "ticks": 17985,
          "time": 209.12790697674419,
          "velocity": 0.4566929133858268
        },
        {
          "duration": 0.24418604651162923,
          "durationTicks": 21,
          "midi": 55,
          "name": "G3",
          "ticks": 17985,
          "time": 209.12790697674419,
          "velocity": 0.31496062992125984
        },
        {
          "duration": 0.2093023255814046,
          "durationTicks": 18,
          "midi": 60,
          "name": "C4",
          "ticks": 17985,
          "time": 209.12790697674419,
          "velocity": 0.28346456692913385
        },
        {
          "duration": 0.2093023255814046,
          "durationTicks": 18,
          "midi": 64,
          "name": "E4",
          "ticks": 17985,
          "time": 209.12790697674419,
          "velocity": 0.1968503937007874
        },
        {
          "duration": 0.15116279069766847,
          "durationTicks": 13,
          "midi": 70,
          "name": "A#4",
          "ticks": 17985,
          "time": 209.12790697674419,
          "velocity": 0.14173228346456693
        },
        {
          "duration": 0.034883720930224626,
          "durationTicks": 3,
          "midi": 74,
          "name": "D5",
          "ticks": 17985,
          "time": 209.12790697674419,
          "velocity": 0.15748031496062992
        },
        {
          "duration": 0.034883720930224626,
          "durationTicks": 3,
          "midi": 77,
          "name": "F5",
          "ticks": 17985,
          "time": 209.12790697674419,
          "velocity": 0.11811023622047244
        },
        {
          "duration": 0.05813953488370771,
          "durationTicks": 5,
          "midi": 91,
          "name": "G6",
          "ticks": 17985,
          "time": 209.12790697674419,
          "velocity": 0.11811023622047244
        },
        {
          "duration": 0.034883720930224626,
          "durationTicks": 3,
          "midi": 80,
          "name": "G#5",
          "ticks": 17986,
          "time": 209.13953488372093,
          "velocity": 0.07086614173228346
        },
        {
          "duration": 0.04651162790699459,
          "durationTicks": 4,
          "midi": 37,
          "name": "C#2",
          "ticks": 17987,
          "time": 209.15116279069767,
          "velocity": 0.4409448818897638
        },
        {
          "duration": 0.023255813953483084,
          "durationTicks": 2,
          "midi": 48,
          "name": "C3",
          "ticks": 17987,
          "time": 209.15116279069767,
          "velocity": 0.4409448818897638
        },
        {
          "duration": 0.22093023255814614,
          "durationTicks": 19,
          "midi": 48,
          "name": "C3",
          "ticks": 17990,
          "time": 209.1860465116279,
          "velocity": 0.4015748031496063
        },
        {
          "duration": 0.09302325581396076,
          "durationTicks": 8,
          "midi": 74,
          "name": "D5",
          "ticks": 17990,
          "time": 209.1860465116279,
          "velocity": 0.16535433070866143
        },
        {
          "duration": 0.05813953488370771,
          "durationTicks": 5,
          "midi": 36,
          "name": "C2",
          "ticks": 17991,
          "time": 209.19767441860466,
          "velocity": 0.41732283464566927
        },
        {
          "duration": 0.034883720930224626,
          "durationTicks": 3,
          "midi": 91,
          "name": "G6",
          "ticks": 17991,
          "time": 209.19767441860466,
          "velocity": 0.07874015748031496
        },
        {
          "duration": 0.034883720930224626,
          "durationTicks": 3,
          "midi": 76,
          "name": "E5",
          "ticks": 17994,
          "time": 209.2325581395349,
          "velocity": 0.2125984251968504
        },
        {
          "duration": 0.023255813953483084,
          "durationTicks": 2,
          "midi": 79,
          "name": "G5",
          "ticks": 17994,
          "time": 209.2325581395349,
          "velocity": 0.2283464566929134
        },
        {
          "duration": 0.6162790697674438,
          "durationTicks": 53,
          "midi": 81,
          "name": "A5",
          "ticks": 17994,
          "time": 209.2325581395349,
          "velocity": 0.4566929133858268
        },
        {
          "duration": 0.1046511627907023,
          "durationTicks": 9,
          "midi": 100,
          "name": "E7",
          "ticks": 17994,
          "time": 209.2325581395349,
          "velocity": 0.25984251968503935
        },
        {
          "duration": 0.023255813953483084,
          "durationTicks": 2,
          "midi": 37,
          "name": "C#2",
          "ticks": 17996,
          "time": 209.25581395348837,
          "velocity": 0.28346456692913385
        },
        {
          "duration": 0.66279069767441,
          "durationTicks": 57,
          "midi": 79,
          "name": "G5",
          "ticks": 18072,
          "time": 210.13953488372093,
          "velocity": 0.4409448818897638
        },
        {
          "duration": 0.4651162790697754,
          "durationTicks": 40,
          "midi": 65,
          "name": "F4",
          "ticks": 18073,
          "time": 210.15116279069767,
          "velocity": 0.25196850393700787
        },
        {
          "duration": 0.034883720930224626,
          "durationTicks": 3,
          "midi": 74,
          "name": "D5",
          "ticks": 18073,
          "time": 210.15116279069767,
          "velocity": 0.2283464566929134
        },
        {
          "duration": 0.30232558139536536,
          "durationTicks": 26,
          "midi": 77,
          "name": "F5",
          "ticks": 18073,
          "time": 210.15116279069767,
          "velocity": 0.2755905511811024
        },
        {
          "duration": 0.5465116279069946,
          "durationTicks": 47,
          "midi": 83,
          "name": "B5",
          "ticks": 18073,
          "time": 210.15116279069767,
          "velocity": 0.23622047244094488
        },
        {
          "duration": 0.11627906976744384,
          "durationTicks": 10,
          "midi": 98,
          "name": "D7",
          "ticks": 18073,
          "time": 210.15116279069767,
          "velocity": 0.2677165354330709
        },
        {
          "duration": 0.023255813953483084,
          "durationTicks": 2,
          "midi": 58,
          "name": "A#3",
          "ticks": 18074,
          "time": 210.1627906976744,
          "velocity": 0.2677165354330709
        },
        {
          "duration": 0.03488372093025305,
          "durationTicks": 3,
          "midi": 72,
          "name": "C5",
          "ticks": 18074,
          "time": 210.1627906976744,
          "velocity": 0.23622047244094488
        },
        {
          "duration": 0.023255813953511506,
          "durationTicks": 2,
          "midi": 43,
          "name": "G2",
          "ticks": 18076,
          "time": 210.1860465116279,
          "velocity": 0.4409448818897638
        },
        {
          "duration": 0.4186046511628092,
          "durationTicks": 36,
          "midi": 59,
          "name": "B3",
          "ticks": 18076,
          "time": 210.1860465116279,
          "velocity": 0.25196850393700787
        },
        {
          "duration": 0.08139534883721922,
          "durationTicks": 7,
          "midi": 81,
          "name": "A5",
          "ticks": 18076,
          "time": 210.1860465116279,
          "velocity": 0.07086614173228346
        },
        {
          "duration": 0.04651162790696617,
          "durationTicks": 4,
          "midi": 50,
          "name": "D3",
          "ticks": 18077,
          "time": 210.19767441860466,
          "velocity": 0.2992125984251969
        },
        {
          "duration": 0.034883720930224626,
          "durationTicks": 3,
          "midi": 73,
          "name": "C#5",
          "ticks": 18077,
          "time": 210.19767441860466,
          "velocity": 0.2283464566929134
        },
        {
          "duration": 0.023255813953483084,
          "durationTicks": 2,
          "midi": 42,
          "name": "F#2",
          "ticks": 18078,
          "time": 210.2093023255814,
          "velocity": 0.4251968503937008
        },
        {
          "duration": 0.38372093023255616,
          "durationTicks": 33,
          "midi": 43,
          "name": "G2",
          "ticks": 18080,
          "time": 210.2325581395349,
          "velocity": 0.3779527559055118
        },
        {
          "duration": 0.3604651162790731,
          "durationTicks": 31,
          "midi": 73,
          "name": "C#5",
          "ticks": 18081,
          "time": 210.24418604651163,
          "velocity": 0.18110236220472442
        },
        {
          "duration": 0.023255813953511506,
          "durationTicks": 2,
          "midi": 50,
          "name": "D3",
          "ticks": 18086,
          "time": 210.30232558139534,
          "velocity": 0.2440944881889764
        },
        {
          "duration": 0.04651162790696617,
          "durationTicks": 4,
          "midi": 50,
          "name": "D3",
          "ticks": 18093,
          "time": 210.38372093023256,
          "velocity": 0.1968503937007874
        },
        {
          "duration": 0.04651162790696617,
          "durationTicks": 4,
          "midi": 50,
          "name": "D3",
          "ticks": 18100,
          "time": 210.46511627906978,
          "velocity": 0.1889763779527559
        },
        {
          "duration": 0.034883720930224626,
          "durationTicks": 3,
          "midi": 74,
          "name": "D5",
          "ticks": 18112,
          "time": 210.6046511627907,
          "velocity": 0.2125984251968504
        },
        {
          "duration": 0.04651162790696617,
          "durationTicks": 4,
          "midi": 76,
          "name": "E5",
          "ticks": 18112,
          "time": 210.6046511627907,
          "velocity": 0.12598425196850394
        },
        {
          "duration": 0.2906976744185954,
          "durationTicks": 25,
          "midi": 85,
          "name": "C#6",
          "ticks": 18112,
          "time": 210.6046511627907,
          "velocity": 0.23622047244094488
        },
        {
          "duration": 0.22093023255814614,
          "durationTicks": 19,
          "midi": 67,
          "name": "G4",
          "ticks": 18113,
          "time": 210.61627906976744,
          "velocity": 0.1968503937007874
        },
        {
          "duration": 0.034883720930224626,
          "durationTicks": 3,
          "midi": 71,
          "name": "B4",
          "ticks": 18113,
          "time": 210.61627906976744,
          "velocity": 0.10236220472440945
        },
        {
          "duration": 0.034883720930224626,
          "durationTicks": 3,
          "midi": 77,
          "name": "F5",
          "ticks": 18113,
          "time": 210.61627906976744,
          "velocity": 0.12598425196850394
        },
        {
          "duration": 0.034883720930224626,
          "durationTicks": 3,
          "midi": 84,
          "name": "C6",
          "ticks": 18113,
          "time": 210.61627906976744,
          "velocity": 0.07874015748031496
        },
        {
          "duration": 0.2093023255814046,
          "durationTicks": 18,
          "midi": 45,
          "name": "A2",
          "ticks": 18114,
          "time": 210.62790697674419,
          "velocity": 0.5275590551181102
        },
        {
          "duration": 0.19767441860466306,
          "durationTicks": 17,
          "midi": 52,
          "name": "E3",
          "ticks": 18114,
          "time": 210.62790697674419,
          "velocity": 0.33858267716535434
        },
        {
          "duration": 0.19767441860466306,
          "durationTicks": 17,
          "midi": 61,
          "name": "C#4",
          "ticks": 18115,
          "time": 210.63953488372093,
          "velocity": 0.2204724409448819
        },
        {
          "duration": 0.034883720930224626,
          "durationTicks": 3,
          "midi": 75,
          "name": "D#5",
          "ticks": 18115,
          "time": 210.63953488372093,
          "velocity": 0.2204724409448819
        },
        {
          "duration": 0.12790697674418539,
          "durationTicks": 11,
          "midi": 76,
          "name": "E5",
          "ticks": 18118,
          "time": 210.67441860465115,
          "velocity": 0.08661417322834646
        },
        {
          "duration": 0.1860465116278931,
          "durationTicks": 16,
          "midi": 75,
          "name": "D#5",
          "ticks": 18120,
          "time": 210.69767441860466,
          "velocity": 0.1732283464566929
        },
        {
          "duration": 0.023255813953483084,
          "durationTicks": 2,
          "midi": 56,
          "name": "G#3",
          "ticks": 18132,
          "time": 210.8372093023256,
          "velocity": 0.31496062992125984
        },
        {
          "duration": 0.3488372093023031,
          "durationTicks": 30,
          "midi": 62,
          "name": "D4",
          "ticks": 18132,
          "time": 210.8372093023256,
          "velocity": 0.3228346456692913
        },
        {
          "duration": 0.12790697674418539,
          "durationTicks": 11,
          "midi": 66,
          "name": "F#4",
          "ticks": 18132,
          "time": 210.8372093023256,
          "velocity": 0.2283464566929134
        },
        {
          "duration": 0.30232558139533694,
          "durationTicks": 26,
          "midi": 69,
          "name": "A4",
          "ticks": 18132,
          "time": 210.8372093023256,
          "velocity": 0.2440944881889764
        },
        {
          "duration": 0.034883720930224626,
          "durationTicks": 3,
          "midi": 73,
          "name": "C#5",
          "ticks": 18132,
          "time": 210.8372093023256,
          "velocity": 0.16535433070866143
        },
        {
          "duration": 0.034883720930224626,
          "durationTicks": 3,
          "midi": 79,
          "name": "G5",
          "ticks": 18132,
          "time": 210.8372093023256,
          "velocity": 0.18110236220472442
        },
        {
          "duration": 0.22093023255814614,
          "durationTicks": 19,
          "midi": 76,
          "name": "E5",
          "ticks": 18133,
          "time": 210.84883720930233,
          "velocity": 0.11023622047244094
        },
        {
          "duration": 0.0813953488371908,
          "durationTicks": 7,
          "midi": 93,
          "name": "A6",
          "ticks": 18133,
          "time": 210.84883720930233,
          "velocity": 0.13385826771653545
        },
        {
          "duration": 0.023255813953483084,
          "durationTicks": 2,
          "midi": 50,
          "name": "D3",
          "ticks": 18134,
          "time": 210.86046511627907,
          "velocity": 0.47244094488188976
        },
        {
          "duration": 0.09302325581396076,
          "durationTicks": 8,
          "midi": 57,
          "name": "A3",
          "ticks": 18134,
          "time": 210.86046511627907,
          "velocity": 0.29133858267716534
        },
        {
          "duration": 0.24418604651162923,
          "durationTicks": 21,
          "midi": 72,
          "name": "C5",
          "ticks": 18134,
          "time": 210.86046511627907,
          "velocity": 0.14960629921259844
        },
        {
          "duration": 0.023255813953483084,
          "durationTicks": 2,
          "midi": 39,
          "name": "D#2",
          "ticks": 18137,
          "time": 210.8953488372093,
          "velocity": 0.41732283464566927
        },
        {
          "duration": 0.2674418604651123,
          "durationTicks": 23,
          "midi": 50,
          "name": "D3",
          "ticks": 18137,
          "time": 210.8953488372093,
          "velocity": 0.5118110236220472
        },
        {
          "duration": 0.04651162790699459,
          "durationTicks": 4,
          "midi": 38,
          "name": "D2",
          "ticks": 18139,
          "time": 210.91860465116278,
          "velocity": 0.41732283464566927
        },
        {
          "duration": 0.10465116279067388,
          "durationTicks": 9,
          "midi": 80,
          "name": "G#5",
          "ticks": 18141,
          "time": 210.9418604651163,
          "velocity": 0.1732283464566929
        },
        {
          "duration": 0.034883720930224626,
          "durationTicks": 3,
          "midi": 82,
          "name": "A#5",
          "ticks": 18142,
          "time": 210.95348837209303,
          "velocity": 0.09448818897637795
        },
        {
          "duration": 0.09302325581393234,
          "durationTicks": 8,
          "midi": 85,
          "name": "C#6",
          "ticks": 18142,
          "time": 210.95348837209303,
          "velocity": 0.13385826771653545
        },
        {
          "duration": 0.09302325581393234,
          "durationTicks": 8,
          "midi": 90,
          "name": "F#6",
          "ticks": 18142,
          "time": 210.95348837209303,
          "velocity": 0.11023622047244094
        },
        {
          "duration": 0.09302325581393234,
          "durationTicks": 8,
          "midi": 93,
          "name": "A6",
          "ticks": 18142,
          "time": 210.95348837209303,
          "velocity": 0.14173228346456693
        },
        {
          "duration": 0.19767441860463464,
          "durationTicks": 17,
          "midi": 57,
          "name": "A3",
          "ticks": 18144,
          "time": 210.97674418604652,
          "velocity": 0.23622047244094488
        },
        {
          "duration": 0.034883720930224626,
          "durationTicks": 3,
          "midi": 39,
          "name": "D#2",
          "ticks": 18145,
          "time": 210.98837209302326,
          "velocity": 0.4015748031496063
        },
        {
          "duration": 0.13953488372092693,
          "durationTicks": 12,
          "midi": 66,
          "name": "F#4",
          "ticks": 18146,
          "time": 211,
          "velocity": 0.12598425196850394
        },
        {
          "duration": 0.04651162790699459,
          "durationTicks": 4,
          "midi": 38,
          "name": "D2",
          "ticks": 18150,
          "time": 211.04651162790697,
          "velocity": 0.33070866141732286
        },
        {
          "duration": 0.6976744186046346,
          "durationTicks": 60,
          "midi": 77,
          "name": "F5",
          "ticks": 18152,
          "time": 211.06976744186048,
          "velocity": 0.4566929133858268
        },
        {
          "duration": 0.13953488372092693,
          "durationTicks": 12,
          "midi": 96,
          "name": "C7",
          "ticks": 18153,
          "time": 211.08139534883722,
          "velocity": 0.23622047244094488
        },
        {
          "duration": 0.12790697674418539,
          "durationTicks": 11,
          "midi": 55,
          "name": "G3",
          "ticks": 18161,
          "time": 211.17441860465115,
          "velocity": 0.3228346456692913
        },
        {
          "duration": 0.05813953488373613,
          "durationTicks": 5,
          "midi": 79,
          "name": "G5",
          "ticks": 18161,
          "time": 211.17441860465115,
          "velocity": 0.11023622047244094
        },
        {
          "duration": 0.1279069767442138,
          "durationTicks": 11,
          "midi": 60,
          "name": "C4",
          "ticks": 18162,
          "time": 211.1860465116279,
          "velocity": 0.28346456692913385
        },
        {
          "duration": 0.11627906976744384,
          "durationTicks": 10,
          "midi": 64,
          "name": "E4",
          "ticks": 18162,
          "time": 211.1860465116279,
          "velocity": 0.2047244094488189
        },
        {
          "duration": 0.11627906976744384,
          "durationTicks": 10,
          "midi": 70,
          "name": "A#4",
          "ticks": 18162,
          "time": 211.1860465116279,
          "velocity": 0.15748031496062992
        },
        {
          "duration": 0.03488372093025305,
          "durationTicks": 3,
          "midi": 88,
          "name": "E6",
          "ticks": 18162,
          "time": 211.1860465116279,
          "velocity": 0.07086614173228346
        },
        {
          "duration": 0.05813953488373613,
          "durationTicks": 5,
          "midi": 91,
          "name": "G6",
          "ticks": 18162,
          "time": 211.1860465116279,
          "velocity": 0.12598425196850394
        },
        {
          "duration": 0.04651162790696617,
          "durationTicks": 4,
          "midi": 37,
          "name": "C#2",
          "ticks": 18164,
          "time": 211.2093023255814,
          "velocity": 0.4251968503937008
        },
        {
          "duration": 0.09302325581393234,
          "durationTicks": 8,
          "midi": 48,
          "name": "C3",
          "ticks": 18164,
          "time": 211.2093023255814,
          "velocity": 0.4409448818897638
        },
        {
          "duration": 0.04651162790696617,
          "durationTicks": 4,
          "midi": 36,
          "name": "C2",
          "ticks": 18168,
          "time": 211.25581395348837,
          "velocity": 0.4251968503937008
        },
        {
          "duration": 0.023255813953511506,
          "durationTicks": 2,
          "midi": 47,
          "name": "B2",
          "ticks": 18172,
          "time": 211.30232558139534,
          "velocity": 0.41732283464566927
        },
        {
          "duration": 0.09302325581393234,
          "durationTicks": 8,
          "midi": 57,
          "name": "A3",
          "ticks": 18173,
          "time": 211.3139534883721,
          "velocity": 0.3228346456692913
        },
        {
          "duration": 0.33720930232556157,
          "durationTicks": 29,
          "midi": 72,
          "name": "C5",
          "ticks": 18173,
          "time": 211.3139534883721,
          "velocity": 0.23622047244094488
        },
        {
          "duration": 0.10465116279067388,
          "durationTicks": 9,
          "midi": 80,
          "name": "G#5",
          "ticks": 18173,
          "time": 211.3139534883721,
          "velocity": 0.11023622047244094
        },
        {
          "duration": 0.05813953488370771,
          "durationTicks": 5,
          "midi": 90,
          "name": "F#6",
          "ticks": 18173,
          "time": 211.3139534883721,
          "velocity": 0.07086614173228346
        },
        {
          "duration": 0.0813953488371908,
          "durationTicks": 7,
          "midi": 93,
          "name": "A6",
          "ticks": 18173,
          "time": 211.3139534883721,
          "velocity": 0.12598425196850394
        },
        {
          "duration": 0.09302325581393234,
          "durationTicks": 8,
          "midi": 50,
          "name": "D3",
          "ticks": 18174,
          "time": 211.32558139534885,
          "velocity": 0.4881889763779528
        },
        {
          "duration": 0.09302325581393234,
          "durationTicks": 8,
          "midi": 66,
          "name": "F#4",
          "ticks": 18174,
          "time": 211.32558139534885,
          "velocity": 0.25984251968503935
        },
        {
          "duration": 0.05813953488370771,
          "durationTicks": 5,
          "midi": 38,
          "name": "D2",
          "ticks": 18175,
          "time": 211.3372093023256,
          "velocity": 0.4409448818897638
        },
        {
          "duration": 0.023255813953483084,
          "durationTicks": 2,
          "midi": 39,
          "name": "D#2",
          "ticks": 18180,
          "time": 211.3953488372093,
          "velocity": 0.4094488188976378
        },
        {
          "duration": 0.12790697674418539,
          "durationTicks": 11,
          "midi": 60,
          "name": "C4",
          "ticks": 18181,
          "time": 211.40697674418604,
          "velocity": 0.3228346456692913
        },
        {
          "duration": 0.1046511627907023,
          "durationTicks": 9,
          "midi": 96,
          "name": "C7",
          "ticks": 18181,
          "time": 211.40697674418604,
          "velocity": 0.18110236220472442
        },
        {
          "duration": 0.11627906976744384,
          "durationTicks": 10,
          "midi": 65,
          "name": "F4",
          "ticks": 18182,
          "time": 211.41860465116278,
          "velocity": 0.2992125984251969
        },
        {
          "duration": 0.2325581395348877,
          "durationTicks": 20,
          "midi": 75,
          "name": "D#5",
          "ticks": 18182,
          "time": 211.41860465116278,
          "velocity": 0.1968503937007874
        },
        {
          "duration": 0.11627906976744384,
          "durationTicks": 10,
          "midi": 79,
          "name": "G5",
          "ticks": 18182,
          "time": 211.41860465116278,
          "velocity": 0.11811023622047244
        },
        {
          "duration": 0.023255813953511506,
          "durationTicks": 2,
          "midi": 43,
          "name": "G2",
          "ticks": 18183,
          "time": 211.43023255813952,
          "velocity": 0.4251968503937008
        },
        {
          "duration": 0.1046511627907023,
          "durationTicks": 9,
          "midi": 53,
          "name": "F3",
          "ticks": 18183,
          "time": 211.43023255813952,
          "velocity": 0.44881889763779526
        },
        {
          "duration": 0.2325581395348877,
          "durationTicks": 20,
          "midi": 69,
          "name": "A4",
          "ticks": 18183,
          "time": 211.43023255813952,
          "velocity": 0.1968503937007874
        },
        {
          "duration": 0.22093023255811772,
          "durationTicks": 19,
          "midi": 83,
          "name": "B5",
          "ticks": 18184,
          "time": 211.4418604651163,
          "velocity": 0.1732283464566929
        },
        {
          "duration": 0.034883720930224626,
          "durationTicks": 3,
          "midi": 41,
          "name": "F2",
          "ticks": 18185,
          "time": 211.45348837209303,
          "velocity": 0.47244094488188976
        },
        {
          "duration": 0.034883720930224626,
          "durationTicks": 3,
          "midi": 41,
          "name": "F2",
          "ticks": 18189,
          "time": 211.5,
          "velocity": 0.3700787401574803
        },
        {
          "duration": 0.023255813953483084,
          "durationTicks": 2,
          "midi": 52,
          "name": "E3",
          "ticks": 18192,
          "time": 211.53488372093022,
          "velocity": 0.4881889763779528
        },
        {
          "duration": 0.023255813953483084,
          "durationTicks": 2,
          "midi": 59,
          "name": "B3",
          "ticks": 18192,
          "time": 211.53488372093022,
          "velocity": 0.2992125984251969
        },
        {
          "duration": 0.08139534883721922,
          "durationTicks": 7,
          "midi": 96,
          "name": "C7",
          "ticks": 18192,
          "time": 211.53488372093022,
          "velocity": 0.12598425196850394
        },
        {
          "duration": 0.03488372093025305,
          "durationTicks": 3,
          "midi": 42,
          "name": "F#2",
          "ticks": 18194,
          "time": 211.5581395348837,
          "velocity": 0.47244094488188976
        },
        {
          "duration": 0.08139534883721922,
          "durationTicks": 7,
          "midi": 53,
          "name": "F3",
          "ticks": 18194,
          "time": 211.5581395348837,
          "velocity": 0.48031496062992124
        },
        {
          "duration": 0.08139534883721922,
          "durationTicks": 7,
          "midi": 60,
          "name": "C4",
          "ticks": 18194,
          "time": 211.5581395348837,
          "velocity": 0.2677165354330709
        },
        {
          "duration": 0.04651162790696617,
          "durationTicks": 4,
          "midi": 41,
          "name": "F2",
          "ticks": 18197,
          "time": 211.59302325581396,
          "velocity": 0.47244094488188976
        },
        {
          "duration": 0.023255813953483084,
          "durationTicks": 2,
          "midi": 51,
          "name": "D#3",
          "ticks": 18202,
          "time": 211.65116279069767,
          "velocity": 0.4645669291338583
        },
        {
          "duration": 0.023255813953483084,
          "durationTicks": 2,
          "midi": 58,
          "name": "A#3",
          "ticks": 18202,
          "time": 211.65116279069767,
          "velocity": 0.2677165354330709
        },
        {
          "duration": 0.13953488372092693,
          "durationTicks": 12,
          "midi": 71,
          "name": "B4",
          "ticks": 18202,
          "time": 211.65116279069767,
          "velocity": 0.2125984251968504
        },
        {
          "duration": 0.13953488372092693,
          "durationTicks": 12,
          "midi": 74,
          "name": "D5",
          "ticks": 18202,
          "time": 211.65116279069767,
          "velocity": 0.23622047244094488
        },
        {
          "duration": 0.09302325581396076,
          "durationTicks": 8,
          "midi": 64,
          "name": "E4",
          "ticks": 18203,
          "time": 211.6627906976744,
          "velocity": 0.28346456692913385
        },
        {
          "duration": 0.11627906976744384,
          "durationTicks": 10,
          "midi": 68,
          "name": "G#4",
          "ticks": 18203,
          "time": 211.6627906976744,
          "velocity": 0.2283464566929134
        },
        {
          "duration": 0.1511627906976969,
          "durationTicks": 13,
          "midi": 82,
          "name": "A#5",
          "ticks": 18203,
          "time": 211.6627906976744,
          "velocity": 0.11023622047244094
        },
        {
          "duration": 0.023255813953511506,
          "durationTicks": 2,
          "midi": 41,
          "name": "F2",
          "ticks": 18204,
          "time": 211.67441860465115,
          "velocity": 0.4094488188976378
        },
        {
          "duration": 0.09302325581396076,
          "durationTicks": 8,
          "midi": 52,
          "name": "E3",
          "ticks": 18204,
          "time": 211.67441860465115,
          "velocity": 0.4330708661417323
        },
        {
          "duration": 0.09302325581396076,
          "durationTicks": 8,
          "midi": 59,
          "name": "B3",
          "ticks": 18204,
          "time": 211.67441860465115,
          "velocity": 0.33070866141732286
        },
        {
          "duration": 0.03488372093025305,
          "durationTicks": 3,
          "midi": 87,
          "name": "D#6",
          "ticks": 18205,
          "time": 211.6860465116279,
          "velocity": 0.07874015748031496
        },
        {
          "duration": 0.04651162790696617,
          "durationTicks": 4,
          "midi": 40,
          "name": "E2",
          "ticks": 18206,
          "time": 211.69767441860466,
          "velocity": 0.4015748031496063
        },
        {
          "duration": 0.08139534883721922,
          "durationTicks": 7,
          "midi": 84,
          "name": "C6",
          "ticks": 18211,
          "time": 211.75581395348837,
          "velocity": 0.14960629921259844
        },
        {
          "duration": 0.16279069767441,
          "durationTicks": 14,
          "midi": 88,
          "name": "E6",
          "ticks": 18211,
          "time": 211.75581395348837,
          "velocity": 0.2992125984251969
        },
        {
          "duration": 0.1046511627907023,
          "durationTicks": 9,
          "midi": 62,
          "name": "D4",
          "ticks": 18212,
          "time": 211.7674418604651,
          "velocity": 0.2677165354330709
        },
        {
          "duration": 0.11627906976744384,
          "durationTicks": 10,
          "midi": 66,
          "name": "F#4",
          "ticks": 18212,
          "time": 211.7674418604651,
          "velocity": 0.23622047244094488
        },
        {
          "duration": 0.11627906976744384,
          "durationTicks": 10,
          "midi": 76,
          "name": "E5",
          "ticks": 18212,
          "time": 211.7674418604651,
          "velocity": 0.4645669291338583
        },
        {
          "duration": 0.08139534883721922,
          "durationTicks": 7,
          "midi": 93,
          "name": "A6",
          "ticks": 18212,
          "time": 211.7674418604651,
          "velocity": 0.14173228346456693
        },
        {
          "duration": 0.13953488372092693,
          "durationTicks": 12,
          "midi": 95,
          "name": "B6",
          "ticks": 18212,
          "time": 211.7674418604651,
          "velocity": 0.2204724409448819
        },
        {
          "duration": 0.023255813953483084,
          "durationTicks": 2,
          "midi": 40,
          "name": "E2",
          "ticks": 18213,
          "time": 211.77906976744185,
          "velocity": 0.49606299212598426
        },
        {
          "duration": 0.023255813953483084,
          "durationTicks": 2,
          "midi": 49,
          "name": "C#3",
          "ticks": 18213,
          "time": 211.77906976744185,
          "velocity": 0.4094488188976378
        },
        {
          "duration": 0.1046511627907023,
          "durationTicks": 9,
          "midi": 57,
          "name": "A3",
          "ticks": 18213,
          "time": 211.77906976744185,
          "velocity": 0.33858267716535434
        },
        {
          "duration": 0.08139534883721922,
          "durationTicks": 7,
          "midi": 72,
          "name": "C5",
          "ticks": 18214,
          "time": 211.7906976744186,
          "velocity": 0.16535433070866143
        },
        {
          "duration": 0.04651162790699459,
          "durationTicks": 4,
          "midi": 39,
          "name": "D#2",
          "ticks": 18215,
          "time": 211.80232558139534,
          "velocity": 0.48031496062992124
        },
        {
          "duration": 0.03488372093025305,
          "durationTicks": 3,
          "midi": 50,
          "name": "D3",
          "ticks": 18215,
          "time": 211.80232558139534,
          "velocity": 0.4566929133858268
        },
        {
          "duration": 0.04651162790696617,
          "durationTicks": 4,
          "midi": 80,
          "name": "G#5",
          "ticks": 18216,
          "time": 211.8139534883721,
          "velocity": 0.09448818897637795
        },
        {
          "duration": 0.023255813953483084,
          "durationTicks": 2,
          "midi": 38,
          "name": "D2",
          "ticks": 18219,
          "time": 211.84883720930233,
          "velocity": 0.3543307086614173
        },
        {
          "duration": 0.034883720930224626,
          "durationTicks": 3,
          "midi": 50,
          "name": "D3",
          "ticks": 18219,
          "time": 211.84883720930233,
          "velocity": 0.4251968503937008
        },
        {
          "duration": 0.22093023255814614,
          "durationTicks": 19,
          "midi": 89,
          "name": "F6",
          "ticks": 18221,
          "time": 211.87209302325581,
          "velocity": 0.31496062992125984
        },
        {
          "duration": 0.11627906976744384,
          "durationTicks": 10,
          "midi": 60,
          "name": "C4",
          "ticks": 18222,
          "time": 211.88372093023256,
          "velocity": 0.2755905511811024
        },
        {
          "duration": 0.13953488372092693,
          "durationTicks": 12,
          "midi": 64,
          "name": "E4",
          "ticks": 18222,
          "time": 211.88372093023256,
          "velocity": 0.23622047244094488
        },
        {
          "duration": 0.13953488372092693,
          "durationTicks": 12,
          "midi": 67,
          "name": "G4",
          "ticks": 18222,
          "time": 211.88372093023256,
          "velocity": 0.2204724409448819
        },
        {
          "duration": 0.12790697674418539,
          "durationTicks": 11,
          "midi": 77,
          "name": "F5",
          "ticks": 18222,
          "time": 211.88372093023256,
          "velocity": 0.4566929133858268
        },
        {
          "duration": 0.06976744186047767,
          "durationTicks": 6,
          "midi": 82,
          "name": "A#5",
          "ticks": 18222,
          "time": 211.88372093023256,
          "velocity": 0.07874015748031496
        },
        {
          "duration": 0.6395348837209269,
          "durationTicks": 55,
          "midi": 83,
          "name": "B5",
          "ticks": 18222,
          "time": 211.88372093023256,
          "velocity": 0.25196850393700787
        },
        {
          "duration": 0.13953488372092693,
          "durationTicks": 12,
          "midi": 96,
          "name": "C7",
          "ticks": 18222,
          "time": 211.88372093023256,
          "velocity": 0.2440944881889764
        },
        {
          "duration": 0.023255813953483084,
          "durationTicks": 2,
          "midi": 47,
          "name": "B2",
          "ticks": 18223,
          "time": 211.8953488372093,
          "velocity": 0.4251968503937008
        },
        {
          "duration": 0.023255813953483084,
          "durationTicks": 2,
          "midi": 55,
          "name": "G3",
          "ticks": 18223,
          "time": 211.8953488372093,
          "velocity": 0.3464566929133858
        },
        {
          "duration": 0.04651162790699459,
          "durationTicks": 4,
          "midi": 70,
          "name": "A#4",
          "ticks": 18223,
          "time": 211.8953488372093,
          "velocity": 0.1968503937007874
        },
        {
          "duration": 0.12790697674418539,
          "durationTicks": 11,
          "midi": 74,
          "name": "D5",
          "ticks": 18223,
          "time": 211.8953488372093,
          "velocity": 0.2992125984251969
        },
        {
          "duration": 0.04651162790699459,
          "durationTicks": 4,
          "midi": 91,
          "name": "G6",
          "ticks": 18223,
          "time": 211.8953488372093,
          "velocity": 0.13385826771653545
        },
        {
          "duration": 0.04651162790699459,
          "durationTicks": 4,
          "midi": 37,
          "name": "C#2",
          "ticks": 18224,
          "time": 211.90697674418604,
          "velocity": 0.48031496062992124
        },
        {
          "duration": 0.04651162790699459,
          "durationTicks": 4,
          "midi": 48,
          "name": "C3",
          "ticks": 18225,
          "time": 211.91860465116278,
          "velocity": 0.4566929133858268
        },
        {
          "duration": 0.05813953488373613,
          "durationTicks": 5,
          "midi": 55,
          "name": "G3",
          "ticks": 18226,
          "time": 211.93023255813952,
          "velocity": 0.31496062992125984
        },
        {
          "duration": 0.034883720930224626,
          "durationTicks": 3,
          "midi": 36,
          "name": "C2",
          "ticks": 18228,
          "time": 211.95348837209303,
          "velocity": 0.4409448818897638
        },
        {
          "duration": 0.05813953488370771,
          "durationTicks": 5,
          "midi": 70,
          "name": "A#4",
          "ticks": 18228,
          "time": 211.95348837209303,
          "velocity": 0.16535433070866143
        },
        {
          "duration": 0.32558139534884845,
          "durationTicks": 28,
          "midi": 88,
          "name": "E6",
          "ticks": 18231,
          "time": 211.98837209302326,
          "velocity": 0.2992125984251969
        },
        {
          "duration": 0.09302325581396076,
          "durationTicks": 8,
          "midi": 81,
          "name": "A5",
          "ticks": 18232,
          "time": 212,
          "velocity": 0.10236220472440945
        },
        {
          "duration": 0.011627906976741542,
          "durationTicks": 1,
          "midi": 41,
          "name": "F2",
          "ticks": 18233,
          "time": 212.01162790697674,
          "velocity": 0.5118110236220472
        },
        {
          "duration": 0.1046511627907023,
          "durationTicks": 9,
          "midi": 73,
          "name": "C#5",
          "ticks": 18233,
          "time": 212.01162790697674,
          "velocity": 0.2204724409448819
        },
        {
          "duration": 0.4418604651162923,
          "durationTicks": 38,
          "midi": 76,
          "name": "E5",
          "ticks": 18233,
          "time": 212.01162790697674,
          "velocity": 0.4566929133858268
        },
        {
          "duration": 0.023255813953483084,
          "durationTicks": 2,
          "midi": 43,
          "name": "G2",
          "ticks": 18234,
          "time": 212.02325581395348,
          "velocity": 0.49606299212598426
        },
        {
          "duration": 0.4186046511628092,
          "durationTicks": 36,
          "midi": 65,
          "name": "F4",
          "ticks": 18234,
          "time": 212.02325581395348,
          "velocity": 0.2204724409448819
        },
        {
          "duration": 0.40697674418606766,
          "durationTicks": 35,
          "midi": 59,
          "name": "B3",
          "ticks": 18235,
          "time": 212.03488372093022,
          "velocity": 0.2677165354330709
        },
        {
          "duration": 0.023255813953483084,
          "durationTicks": 2,
          "midi": 43,
          "name": "G2",
          "ticks": 18239,
          "time": 212.08139534883722,
          "velocity": 0.3937007874015748
        },
        {
          "duration": 0.04651162790696617,
          "durationTicks": 4,
          "midi": 43,
          "name": "G2",
          "ticks": 18242,
          "time": 212.11627906976744,
          "velocity": 0.3779527559055118
        },
        {
          "duration": 0.30232558139533694,
          "durationTicks": 26,
          "midi": 73,
          "name": "C#5",
          "ticks": 18243,
          "time": 212.12790697674419,
          "velocity": 0.15748031496062992
        },
        {
          "duration": 0.023255813953483084,
          "durationTicks": 2,
          "midi": 50,
          "name": "D3",
          "ticks": 18244,
          "time": 212.13953488372093,
          "velocity": 0.2283464566929134
        },
        {
          "duration": 0.2790697674418823,
          "durationTicks": 24,
          "midi": 43,
          "name": "G2",
          "ticks": 18247,
          "time": 212.17441860465115,
          "velocity": 0.36220472440944884
        },
        {
          "duration": 0.04651162790696617,
          "durationTicks": 4,
          "midi": 50,
          "name": "D3",
          "ticks": 18251,
          "time": 212.22093023255815,
          "velocity": 0.2125984251968504
        },
        {
          "duration": 0.04651162790699459,
          "durationTicks": 4,
          "midi": 50,
          "name": "D3",
          "ticks": 18258,
          "time": 212.30232558139534,
          "velocity": 0.1889763779527559
        },
        {
          "duration": 0.04651162790696617,
          "durationTicks": 4,
          "midi": 50,
          "name": "D3",
          "ticks": 18265,
          "time": 212.38372093023256,
          "velocity": 0.1732283464566929
        },
        {
          "duration": 0.4767441860464885,
          "durationTicks": 41,
          "midi": 86,
          "name": "D6",
          "ticks": 18270,
          "time": 212.4418604651163,
          "velocity": 0.5354330708661418
        },
        {
          "duration": 0.15116279069766847,
          "durationTicks": 13,
          "midi": 102,
          "name": "F#7",
          "ticks": 18270,
          "time": 212.4418604651163,
          "velocity": 0.2755905511811024
        },
        {
          "duration": 0.25581395348837077,
          "durationTicks": 22,
          "midi": 67,
          "name": "G4",
          "ticks": 18271,
          "time": 212.45348837209303,
          "velocity": 0.2047244094488189
        },
        {
          "duration": 1.360465116279073,
          "durationTicks": 117,
          "midi": 74,
          "name": "D5",
          "ticks": 18271,
          "time": 212.45348837209303,
          "velocity": 0.4881889763779528
        },
        {
          "duration": 0.034883720930224626,
          "durationTicks": 3,
          "midi": 77,
          "name": "F5",
          "ticks": 18271,
          "time": 212.45348837209303,
          "velocity": 0.2125984251968504
        },
        {
          "duration": 0.034883720930224626,
          "durationTicks": 3,
          "midi": 84,
          "name": "C6",
          "ticks": 18271,
          "time": 212.45348837209303,
          "velocity": 0.07874015748031496
        },
        {
          "duration": 0.24418604651162923,
          "durationTicks": 21,
          "midi": 85,
          "name": "C#6",
          "ticks": 18271,
          "time": 212.45348837209303,
          "velocity": 0.2755905511811024
        },
        {
          "duration": 0.16279069767441,
          "durationTicks": 14,
          "midi": 93,
          "name": "A6",
          "ticks": 18271,
          "time": 212.45348837209303,
          "velocity": 0.25196850393700787
        },
        {
          "duration": 0.24418604651162923,
          "durationTicks": 21,
          "midi": 45,
          "name": "A2",
          "ticks": 18272,
          "time": 212.46511627906978,
          "velocity": 0.5118110236220472
        },
        {
          "duration": 0.2325581395348877,
          "durationTicks": 20,
          "midi": 61,
          "name": "C#4",
          "ticks": 18272,
          "time": 212.46511627906978,
          "velocity": 0.2440944881889764
        },
        {
          "duration": 0.12790697674418539,
          "durationTicks": 11,
          "midi": 76,
          "name": "E5",
          "ticks": 18272,
          "time": 212.46511627906978,
          "velocity": 0.14960629921259844
        },
        {
          "duration": 0.1860465116278931,
          "durationTicks": 16,
          "midi": 52,
          "name": "E3",
          "ticks": 18274,
          "time": 212.48837209302326,
          "velocity": 0.25984251968503935
        },
        {
          "duration": 0.1511627906976969,
          "durationTicks": 13,
          "midi": 102,
          "name": "F#7",
          "ticks": 18290,
          "time": 212.67441860465115,
          "velocity": 0.28346456692913385
        },
        {
          "duration": 0.18604651162792152,
          "durationTicks": 16,
          "midi": 93,
          "name": "A6",
          "ticks": 18291,
          "time": 212.6860465116279,
          "velocity": 0.2440944881889764
        },
        {
          "duration": 0.023255813953483084,
          "durationTicks": 2,
          "midi": 45,
          "name": "A2",
          "ticks": 18294,
          "time": 212.72093023255815,
          "velocity": 0.3543307086614173
        },
        {
          "duration": 0.06976744186044925,
          "durationTicks": 6,
          "midi": 52,
          "name": "E3",
          "ticks": 18294,
          "time": 212.72093023255815,
          "velocity": 0.1968503937007874
        },
        {
          "duration": 0.0813953488371908,
          "durationTicks": 7,
          "midi": 61,
          "name": "C#4",
          "ticks": 18294,
          "time": 212.72093023255815,
          "velocity": 0.18110236220472442
        },
        {
          "duration": 0.15116279069766847,
          "durationTicks": 13,
          "midi": 85,
          "name": "C#6",
          "ticks": 18294,
          "time": 212.72093023255815,
          "velocity": 0.09448818897637795
        },
        {
          "duration": 0.034883720930224626,
          "durationTicks": 3,
          "midi": 57,
          "name": "A3",
          "ticks": 18296,
          "time": 212.74418604651163,
          "velocity": 0.08661417322834646
        },
        {
          "duration": 0.05813953488373613,
          "durationTicks": 5,
          "midi": 45,
          "name": "A2",
          "ticks": 18297,
          "time": 212.75581395348837,
          "velocity": 0.5118110236220472
        },
        {
          "duration": 0.034883720930224626,
          "durationTicks": 3,
          "midi": 67,
          "name": "G4",
          "ticks": 18297,
          "time": 212.75581395348837,
          "velocity": 0.07086614173228346
        },
        {
          "duration": 0.2325581395348877,
          "durationTicks": 20,
          "midi": 55,
          "name": "G3",
          "ticks": 18301,
          "time": 212.80232558139534,
          "velocity": 0.33070866141732286
        },
        {
          "duration": 0.19767441860466306,
          "durationTicks": 17,
          "midi": 60,
          "name": "C4",
          "ticks": 18301,
          "time": 212.80232558139534,
          "velocity": 0.28346456692913385
        },
        {
          "duration": 0.19767441860466306,
          "durationTicks": 17,
          "midi": 64,
          "name": "E4",
          "ticks": 18301,
          "time": 212.80232558139534,
          "velocity": 0.18110236220472442
        },
        {
          "duration": 0.1511627906976969,
          "durationTicks": 13,
          "midi": 70,
          "name": "A#4",
          "ticks": 18301,
          "time": 212.80232558139534,
          "velocity": 0.14173228346456693
        },
        {
          "duration": 0.05813953488373613,
          "durationTicks": 5,
          "midi": 88,
          "name": "E6",
          "ticks": 18301,
          "time": 212.80232558139534,
          "velocity": 0.10236220472440945
        },
        {
          "duration": 0.06976744186047767,
          "durationTicks": 6,
          "midi": 91,
          "name": "G6",
          "ticks": 18301,
          "time": 212.80232558139534,
          "velocity": 0.14173228346456693
        },
        {
          "duration": 0.04651162790696617,
          "durationTicks": 4,
          "midi": 37,
          "name": "C#2",
          "ticks": 18303,
          "time": 212.82558139534885,
          "velocity": 0.44881889763779526
        },
        {
          "duration": 0.1046511627907023,
          "durationTicks": 9,
          "midi": 78,
          "name": "F#5",
          "ticks": 18304,
          "time": 212.8372093023256,
          "velocity": 0.08661417322834646
        },
        {
          "duration": 0.09302325581396076,
          "durationTicks": 8,
          "midi": 36,
          "name": "C2",
          "ticks": 18307,
          "time": 212.87209302325581,
          "velocity": 0.4251968503937008
        },
        {
          "duration": 0.04651162790699459,
          "durationTicks": 4,
          "midi": 36,
          "name": "C2",
          "ticks": 18320,
          "time": 213.02325581395348,
          "velocity": 0.08661417322834646
        },
        {
          "duration": 1.023255813953483,
          "durationTicks": 88,
          "midi": 86,
          "name": "D6",
          "ticks": 18388,
          "time": 213.8139534883721,
          "velocity": 0.5984251968503937
        },
        {
          "duration": 0.05813953488370771,
          "durationTicks": 5,
          "midi": 77,
          "name": "F5",
          "ticks": 18389,
          "time": 213.82558139534885,
          "velocity": 0.1968503937007874
        },
        {
          "duration": 0.0813953488371908,
          "durationTicks": 7,
          "midi": 85,
          "name": "C#6",
          "ticks": 18389,
          "time": 213.82558139534885,
          "velocity": 0.28346456692913385
        },
        {
          "duration": 0.9534883720930054,
          "durationTicks": 82,
          "midi": 102,
          "name": "F#7",
          "ticks": 18389,
          "time": 213.82558139534885,
          "velocity": 0.3700787401574803
        },
        {
          "duration": 0.1046511627907023,
          "durationTicks": 9,
          "midi": 65,
          "name": "F4",
          "ticks": 18390,
          "time": 213.8372093023256,
          "velocity": 0.2125984251968504
        },
        {
          "duration": 0.11627906976744384,
          "durationTicks": 10,
          "midi": 74,
          "name": "D5",
          "ticks": 18390,
          "time": 213.8372093023256,
          "velocity": 0.48031496062992124
        },
        {
          "duration": 0.09302325581393234,
          "durationTicks": 8,
          "midi": 83,
          "name": "B5",
          "ticks": 18390,
          "time": 213.8372093023256,
          "velocity": 0.2677165354330709
        },
        {
          "duration": 0.9767441860465169,
          "durationTicks": 84,
          "midi": 93,
          "name": "A6",
          "ticks": 18390,
          "time": 213.8372093023256,
          "velocity": 0.33858267716535434
        },
        {
          "duration": 0.04651162790696617,
          "durationTicks": 4,
          "midi": 69,
          "name": "A4",
          "ticks": 18391,
          "time": 213.84883720930233,
          "velocity": 0.14173228346456693
        },
        {
          "duration": 0.06976744186044925,
          "durationTicks": 6,
          "midi": 59,
          "name": "B3",
          "ticks": 18392,
          "time": 213.86046511627907,
          "velocity": 0.2283464566929134
        },
        {
          "duration": 0.05813953488373613,
          "durationTicks": 5,
          "midi": 42,
          "name": "F#2",
          "ticks": 18395,
          "time": 213.8953488372093,
          "velocity": 0.4409448818897638
        },
        {
          "duration": 0.05813953488373613,
          "durationTicks": 5,
          "midi": 50,
          "name": "D3",
          "ticks": 18396,
          "time": 213.90697674418604,
          "velocity": 0.28346456692913385
        },
        {
          "duration": 0.03488372093025305,
          "durationTicks": 3,
          "midi": 55,
          "name": "G3",
          "ticks": 18397,
          "time": 213.91860465116278,
          "velocity": 0.18110236220472442
        },
        {
          "duration": 0.023255813953511506,
          "durationTicks": 2,
          "midi": 82,
          "name": "A#5",
          "ticks": 18398,
          "time": 213.93023255813952,
          "velocity": 0.2283464566929134
        },
        {
          "duration": 0.023255813953511506,
          "durationTicks": 2,
          "midi": 85,
          "name": "C#6",
          "ticks": 18398,
          "time": 213.93023255813952,
          "velocity": 0.25196850393700787
        },
        {
          "duration": 0.04651162790696617,
          "durationTicks": 4,
          "midi": 59,
          "name": "B3",
          "ticks": 18399,
          "time": 213.9418604651163,
          "velocity": 0.1968503937007874
        },
        {
          "duration": 0.034883720930224626,
          "durationTicks": 3,
          "midi": 69,
          "name": "A4",
          "ticks": 18400,
          "time": 213.95348837209303,
          "velocity": 0.11811023622047244
        },
        {
          "duration": 0.11627906976744384,
          "durationTicks": 10,
          "midi": 83,
          "name": "B5",
          "ticks": 18400,
          "time": 213.95348837209303,
          "velocity": 0.2125984251968504
        },
        {
          "duration": 0.034883720930224626,
          "durationTicks": 3,
          "midi": 65,
          "name": "F4",
          "ticks": 18401,
          "time": 213.96511627906978,
          "velocity": 0.12598425196850394
        },
        {
          "duration": 0.8953488372092977,
          "durationTicks": 77,
          "midi": 74,
          "name": "D5",
          "ticks": 18401,
          "time": 213.96511627906978,
          "velocity": 0.5196850393700787
        },
        {
          "duration": 0.05813953488370771,
          "durationTicks": 5,
          "midi": 42,
          "name": "F#2",
          "ticks": 18402,
          "time": 213.97674418604652,
          "velocity": 0.4330708661417323
        },
        {
          "duration": 0.023255813953483084,
          "durationTicks": 2,
          "midi": 50,
          "name": "D3",
          "ticks": 18402,
          "time": 213.97674418604652,
          "velocity": 0.2677165354330709
        },
        {
          "duration": 0.034883720930224626,
          "durationTicks": 3,
          "midi": 59,
          "name": "B3",
          "ticks": 18404,
          "time": 214,
          "velocity": 0.14960629921259844
        },
        {
          "duration": 0.034883720930224626,
          "durationTicks": 3,
          "midi": 55,
          "name": "G3",
          "ticks": 18406,
          "time": 214.02325581395348,
          "velocity": 0.18110236220472442
        },
        {
          "duration": 0.05813953488373613,
          "durationTicks": 5,
          "midi": 43,
          "name": "G2",
          "ticks": 18407,
          "time": 214.03488372093022,
          "velocity": 0.3858267716535433
        },
        {
          "duration": 0.03488372093025305,
          "durationTicks": 3,
          "midi": 85,
          "name": "C#6",
          "ticks": 18408,
          "time": 214.04651162790697,
          "velocity": 0.25984251968503935
        },
        {
          "duration": 0.06976744186047767,
          "durationTicks": 6,
          "midi": 50,
          "name": "D3",
          "ticks": 18409,
          "time": 214.0581395348837,
          "velocity": 0.2283464566929134
        },
        {
          "duration": 0.0813953488371908,
          "durationTicks": 7,
          "midi": 83,
          "name": "B5",
          "ticks": 18411,
          "time": 214.08139534883722,
          "velocity": 0.1968503937007874
        },
        {
          "duration": 0.034883720930224626,
          "durationTicks": 3,
          "midi": 42,
          "name": "F#2",
          "ticks": 18412,
          "time": 214.09302325581396,
          "velocity": 0.4015748031496063
        },
        {
          "duration": 0.023255813953483084,
          "durationTicks": 2,
          "midi": 85,
          "name": "C#6",
          "ticks": 18413,
          "time": 214.1046511627907,
          "velocity": 0.25984251968503935
        },
        {
          "duration": 0.034883720930224626,
          "durationTicks": 3,
          "midi": 55,
          "name": "G3",
          "ticks": 18416,
          "time": 214.13953488372093,
          "velocity": 0.1968503937007874
        },
        {
          "duration": 0.05813953488373613,
          "durationTicks": 5,
          "midi": 42,
          "name": "F#2",
          "ticks": 18417,
          "time": 214.15116279069767,
          "velocity": 0.41732283464566927
        },
        {
          "duration": 0.034883720930224626,
          "durationTicks": 3,
          "midi": 71,
          "name": "B4",
          "ticks": 18417,
          "time": 214.15116279069767,
          "velocity": 0.13385826771653545
        },
        {
          "duration": 0.03488372093025305,
          "durationTicks": 3,
          "midi": 82,
          "name": "A#5",
          "ticks": 18418,
          "time": 214.1627906976744,
          "velocity": 0.2047244094488189
        },
        {
          "duration": 0.023255813953483084,
          "durationTicks": 2,
          "midi": 85,
          "name": "C#6",
          "ticks": 18418,
          "time": 214.1627906976744,
          "velocity": 0.2440944881889764
        },
        {
          "duration": 0.03488372093025305,
          "durationTicks": 3,
          "midi": 59,
          "name": "B3",
          "ticks": 18419,
          "time": 214.17441860465115,
          "velocity": 0.15748031496062992
        },
        {
          "duration": 0.023255813953483084,
          "durationTicks": 2,
          "midi": 43,
          "name": "G2",
          "ticks": 18422,
          "time": 214.2093023255814,
          "velocity": 0.2992125984251969
        },
        {
          "duration": 0.05813953488370771,
          "durationTicks": 5,
          "midi": 59,
          "name": "B3",
          "ticks": 18423,
          "time": 214.22093023255815,
          "velocity": 0.16535433070866143
        },
        {
          "duration": 0.04651162790696617,
          "durationTicks": 4,
          "midi": 69,
          "name": "A4",
          "ticks": 18425,
          "time": 214.24418604651163,
          "velocity": 0.07874015748031496
        },
        {
          "duration": 0.023255813953483084,
          "durationTicks": 2,
          "midi": 42,
          "name": "F#2",
          "ticks": 18426,
          "time": 214.25581395348837,
          "velocity": 0.3858267716535433
        },
        {
          "duration": 0.16279069767441,
          "durationTicks": 14,
          "midi": 83,
          "name": "B5",
          "ticks": 18426,
          "time": 214.25581395348837,
          "velocity": 0.25984251968503935
        },
        {
          "duration": 0.04651162790699459,
          "durationTicks": 4,
          "midi": 77,
          "name": "F5",
          "ticks": 18428,
          "time": 214.27906976744185,
          "velocity": 0.2283464566929134
        },
        {
          "duration": 0.25581395348837077,
          "durationTicks": 22,
          "midi": 85,
          "name": "C#6",
          "ticks": 18428,
          "time": 214.27906976744185,
          "velocity": 0.3464566929133858
        },
        {
          "duration": 0.16279069767443843,
          "durationTicks": 14,
          "midi": 67,
          "name": "G4",
          "ticks": 18429,
          "time": 214.2906976744186,
          "velocity": 0.23622047244094488
        },
        {
          "duration": 0.04651162790699459,
          "durationTicks": 4,
          "midi": 45,
          "name": "A2",
          "ticks": 18430,
          "time": 214.30232558139534,
          "velocity": 0.4881889763779528
        },
        {
          "duration": 0.12790697674418539,
          "durationTicks": 11,
          "midi": 61,
          "name": "C#4",
          "ticks": 18430,
          "time": 214.30232558139534,
          "velocity": 0.25984251968503935
        },
        {
          "duration": 0.03488372093025305,
          "durationTicks": 3,
          "midi": 84,
          "name": "C6",
          "ticks": 18430,
          "time": 214.30232558139534,
          "velocity": 0.13385826771653545
        },
        {
          "duration": 0.034883720930224626,
          "durationTicks": 3,
          "midi": 76,
          "name": "E5",
          "ticks": 18435,
          "time": 214.36046511627907,
          "velocity": 0.2440944881889764
        },
        {
          "duration": 0.023255813953483084,
          "durationTicks": 2,
          "midi": 52,
          "name": "E3",
          "ticks": 18436,
          "time": 214.37209302325581,
          "velocity": 0.2755905511811024
        },
        {
          "duration": 0.034883720930224626,
          "durationTicks": 3,
          "midi": 57,
          "name": "A3",
          "ticks": 18436,
          "time": 214.37209302325581,
          "velocity": 0.2125984251968504
        },
        {
          "duration": 0.034883720930224626,
          "durationTicks": 3,
          "midi": 45,
          "name": "A2",
          "ticks": 18437,
          "time": 214.38372093023256,
          "velocity": 0.41732283464566927
        },
        {
          "duration": 0.06976744186047767,
          "durationTicks": 6,
          "midi": 52,
          "name": "E3",
          "ticks": 18439,
          "time": 214.40697674418604,
          "velocity": 0.29133858267716534
        },
        {
          "duration": 0.034883720930224626,
          "durationTicks": 3,
          "midi": 61,
          "name": "C#4",
          "ticks": 18442,
          "time": 214.4418604651163,
          "velocity": 0.2283464566929134
        },
        {
          "duration": 0.023255813953483084,
          "durationTicks": 2,
          "midi": 44,
          "name": "G#2",
          "ticks": 18443,
          "time": 214.45348837209303,
          "velocity": 0.4015748031496063
        },
        {
          "duration": 0.0813953488371908,
          "durationTicks": 7,
          "midi": 67,
          "name": "G4",
          "ticks": 18444,
          "time": 214.46511627906978,
          "velocity": 0.14173228346456693
        },
        {
          "duration": 0.034883720930224626,
          "durationTicks": 3,
          "midi": 61,
          "name": "C#4",
          "ticks": 18447,
          "time": 214.5,
          "velocity": 0.2047244094488189
        },
        {
          "duration": 0.034883720930224626,
          "durationTicks": 3,
          "midi": 82,
          "name": "A#5",
          "ticks": 18448,
          "time": 214.51162790697674,
          "velocity": 0.1889763779527559
        },
        {
          "duration": 0.023255813953483084,
          "durationTicks": 2,
          "midi": 44,
          "name": "G#2",
          "ticks": 18450,
          "time": 214.53488372093022,
          "velocity": 0.4251968503937008
        },
        {
          "duration": 0.023255813953483084,
          "durationTicks": 2,
          "midi": 53,
          "name": "F3",
          "ticks": 18450,
          "time": 214.53488372093022,
          "velocity": 0.2440944881889764
        },
        {
          "duration": 0.03488372093025305,
          "durationTicks": 3,
          "midi": 76,
          "name": "E5",
          "ticks": 18450,
          "time": 214.53488372093022,
          "velocity": 0.2204724409448819
        },
        {
          "duration": 0.023255813953511506,
          "durationTicks": 2,
          "midi": 45,
          "name": "A2",
          "ticks": 18452,
          "time": 214.5581395348837,
          "velocity": 0.36220472440944884
        },
        {
          "duration": 0.04651162790699459,
          "durationTicks": 4,
          "midi": 52,
          "name": "E3",
          "ticks": 18452,
          "time": 214.5581395348837,
          "velocity": 0.2440944881889764
        },
        {
          "duration": 0.04651162790699459,
          "durationTicks": 4,
          "midi": 61,
          "name": "C#4",
          "ticks": 18452,
          "time": 214.5581395348837,
          "velocity": 0.1968503937007874
        },
        {
          "duration": 0.03488372093025305,
          "durationTicks": 3,
          "midi": 67,
          "name": "G4",
          "ticks": 18452,
          "time": 214.5581395348837,
          "velocity": 0.07086614173228346
        },
        {
          "duration": 0.04651162790699459,
          "durationTicks": 4,
          "midi": 85,
          "name": "C#6",
          "ticks": 18452,
          "time": 214.5581395348837,
          "velocity": 0.30708661417322836
        },
        {
          "duration": 0.034883720930224626,
          "durationTicks": 3,
          "midi": 82,
          "name": "A#5",
          "ticks": 18453,
          "time": 214.56976744186048,
          "velocity": 0.1968503937007874
        },
        {
          "duration": 0.023255813953483084,
          "durationTicks": 2,
          "midi": 44,
          "name": "G#2",
          "ticks": 18454,
          "time": 214.58139534883722,
          "velocity": 0.3937007874015748
        },
        {
          "duration": 0.023255813953483084,
          "durationTicks": 2,
          "midi": 45,
          "name": "A2",
          "ticks": 18457,
          "time": 214.61627906976744,
          "velocity": 0.4409448818897638
        },
        {
          "duration": 0.05813953488370771,
          "durationTicks": 5,
          "midi": 85,
          "name": "C#6",
          "ticks": 18457,
          "time": 214.61627906976744,
          "velocity": 0.31496062992125984
        },
        {
          "duration": 0.2325581395348877,
          "durationTicks": 20,
          "midi": 62,
          "name": "D4",
          "ticks": 18458,
          "time": 214.62790697674419,
          "velocity": 0.2992125984251969
        },
        {
          "duration": 0.06976744186047767,
          "durationTicks": 6,
          "midi": 80,
          "name": "G#5",
          "ticks": 18458,
          "time": 214.62790697674419,
          "velocity": 0.2047244094488189
        },
        {
          "duration": 0.034883720930224626,
          "durationTicks": 3,
          "midi": 91,
          "name": "G6",
          "ticks": 18458,
          "time": 214.62790697674419,
          "velocity": 0.14173228346456693
        },
        {
          "duration": 0.2093023255814046,
          "durationTicks": 18,
          "midi": 57,
          "name": "A3",
          "ticks": 18459,
          "time": 214.63953488372093,
          "velocity": 0.3464566929133858
        },
        {
          "duration": 0.19767441860466306,
          "durationTicks": 17,
          "midi": 66,
          "name": "F#4",
          "ticks": 18459,
          "time": 214.63953488372093,
          "velocity": 0.2283464566929134
        },
        {
          "duration": 0.06976744186047767,
          "durationTicks": 6,
          "midi": 82,
          "name": "A#5",
          "ticks": 18459,
          "time": 214.63953488372093,
          "velocity": 0.2283464566929134
        },
        {
          "duration": 0.18604651162792152,
          "durationTicks": 16,
          "midi": 50,
          "name": "D3",
          "ticks": 18460,
          "time": 214.65116279069767,
          "velocity": 0.4566929133858268
        },
        {
          "duration": 0.03488372093025305,
          "durationTicks": 3,
          "midi": 84,
          "name": "C6",
          "ticks": 18462,
          "time": 214.67441860465115,
          "velocity": 0.11811023622047244
        },
        {
          "duration": 0.023255813953511506,
          "durationTicks": 2,
          "midi": 39,
          "name": "D#2",
          "ticks": 18463,
          "time": 214.6860465116279,
          "velocity": 0.48031496062992124
        },
        {
          "duration": 0.023255813953511506,
          "durationTicks": 2,
          "midi": 75,
          "name": "D#5",
          "ticks": 18463,
          "time": 214.6860465116279,
          "velocity": 0.30708661417322836
        },
        {
          "duration": 0.08139534883721922,
          "durationTicks": 7,
          "midi": 90,
          "name": "F#6",
          "ticks": 18463,
          "time": 214.6860465116279,
          "velocity": 0.16535433070866143
        },
        {
          "duration": 0.04651162790696617,
          "durationTicks": 4,
          "midi": 83,
          "name": "B5",
          "ticks": 18464,
          "time": 214.69767441860466,
          "velocity": 0.09448818897637795
        },
        {
          "duration": 0.04651162790696617,
          "durationTicks": 4,
          "midi": 85,
          "name": "C#6",
          "ticks": 18464,
          "time": 214.69767441860466,
          "velocity": 0.25196850393700787
        },
        {
          "duration": 0.05813953488370771,
          "durationTicks": 5,
          "midi": 76,
          "name": "E5",
          "ticks": 18465,
          "time": 214.7093023255814,
          "velocity": 0.2677165354330709
        },
        {
          "duration": 0.3953488372092977,
          "durationTicks": 34,
          "midi": 79,
          "name": "G5",
          "ticks": 18466,
          "time": 214.72093023255815,
          "velocity": 0.4409448818897638
        },
        {
          "duration": 0.33720930232556157,
          "durationTicks": 29,
          "midi": 91,
          "name": "G6",
          "ticks": 18466,
          "time": 214.72093023255815,
          "velocity": 0.6220472440944882
        },
        {
          "duration": 0.04651162790696617,
          "durationTicks": 4,
          "midi": 37,
          "name": "C#2",
          "ticks": 18467,
          "time": 214.7325581395349,
          "velocity": 0.33070866141732286
        },
        {
          "duration": 0.034883720930224626,
          "durationTicks": 3,
          "midi": 72,
          "name": "C5",
          "ticks": 18467,
          "time": 214.7325581395349,
          "velocity": 0.2047244094488189
        },
        {
          "duration": 0.023255813953483084,
          "durationTicks": 2,
          "midi": 77,
          "name": "F5",
          "ticks": 18467,
          "time": 214.7325581395349,
          "velocity": 0.2677165354330709
        },
        {
          "duration": 0.04651162790699459,
          "durationTicks": 4,
          "midi": 38,
          "name": "D2",
          "ticks": 18471,
          "time": 214.77906976744185,
          "velocity": 0.25984251968503935
        },
        {
          "duration": 0.11627906976744384,
          "durationTicks": 10,
          "midi": 55,
          "name": "G3",
          "ticks": 18477,
          "time": 214.84883720930233,
          "velocity": 0.33070866141732286
        },
        {
          "duration": 0.11627906976744384,
          "durationTicks": 10,
          "midi": 60,
          "name": "C4",
          "ticks": 18478,
          "time": 214.86046511627907,
          "velocity": 0.2992125984251969
        },
        {
          "duration": 0.1046511627907023,
          "durationTicks": 9,
          "midi": 64,
          "name": "E4",
          "ticks": 18478,
          "time": 214.86046511627907,
          "velocity": 0.2047244094488189
        },
        {
          "duration": 0.1046511627907023,
          "durationTicks": 9,
          "midi": 70,
          "name": "A#4",
          "ticks": 18478,
          "time": 214.86046511627907,
          "velocity": 0.14960629921259844
        },
        {
          "duration": 0.034883720930224626,
          "durationTicks": 3,
          "midi": 80,
          "name": "G#5",
          "ticks": 18479,
          "time": 214.87209302325581,
          "velocity": 0.09448818897637795
        },
        {
          "duration": 0.08139534883721922,
          "durationTicks": 7,
          "midi": 48,
          "name": "C3",
          "ticks": 18480,
          "time": 214.88372093023256,
          "velocity": 0.4409448818897638
        },
        {
          "duration": 0.06976744186047767,
          "durationTicks": 6,
          "midi": 78,
          "name": "F#5",
          "ticks": 18481,
          "time": 214.8953488372093,
          "velocity": 0.09448818897637795
        },
        {
          "duration": 0.023255813953483084,
          "durationTicks": 2,
          "midi": 37,
          "name": "C#2",
          "ticks": 18482,
          "time": 214.90697674418604,
          "velocity": 0.4330708661417323
        },
        {
          "duration": 0.2325581395348877,
          "durationTicks": 20,
          "midi": 69,
          "name": "A4",
          "ticks": 18487,
          "time": 214.96511627906978,
          "velocity": 0.1968503937007874
        },
        {
          "duration": 0.034883720930224626,
          "durationTicks": 3,
          "midi": 40,
          "name": "E2",
          "ticks": 18488,
          "time": 214.97674418604652,
          "velocity": 0.4409448818897638
        },
        {
          "duration": 0.4534883720930054,
          "durationTicks": 39,
          "midi": 72,
          "name": "C5",
          "ticks": 18488,
          "time": 214.97674418604652,
          "velocity": 0.23622047244094488
        },
        {
          "duration": 0.04651162790696617,
          "durationTicks": 4,
          "midi": 78,
          "name": "F#5",
          "ticks": 18488,
          "time": 214.97674418604652,
          "velocity": 0.11023622047244094
        },
        {
          "duration": 0.09302325581396076,
          "durationTicks": 8,
          "midi": 93,
          "name": "A6",
          "ticks": 18488,
          "time": 214.97674418604652,
          "velocity": 0.12598425196850394
        },
        {
          "duration": 0.2093023255814046,
          "durationTicks": 18,
          "midi": 50,
          "name": "D3",
          "ticks": 18489,
          "time": 214.98837209302326,
          "velocity": 0.44881889763779526
        },
        {
          "duration": 0.2093023255814046,
          "durationTicks": 18,
          "midi": 57,
          "name": "A3",
          "ticks": 18489,
          "time": 214.98837209302326,
          "velocity": 0.3464566929133858
        },
        {
          "duration": 0.2093023255814046,
          "durationTicks": 18,
          "midi": 66,
          "name": "F#4",
          "ticks": 18490,
          "time": 215,
          "velocity": 0.2283464566929134
        },
        {
          "duration": 0.023255813953483084,
          "durationTicks": 2,
          "midi": 39,
          "name": "D#2",
          "ticks": 18491,
          "time": 215.01162790697674,
          "velocity": 0.4330708661417323
        },
        {
          "duration": 0.09302325581396076,
          "durationTicks": 8,
          "midi": 76,
          "name": "E5",
          "ticks": 18492,
          "time": 215.02325581395348,
          "velocity": 0.09448818897637795
        },
        {
          "duration": 0.05813953488373613,
          "durationTicks": 5,
          "midi": 38,
          "name": "D2",
          "ticks": 18493,
          "time": 215.03488372093022,
          "velocity": 0.4409448818897638
        },
        {
          "duration": 0.023255813953483084,
          "durationTicks": 2,
          "midi": 38,
          "name": "D2",
          "ticks": 18499,
          "time": 215.1046511627907,
          "velocity": 0.2440944881889764
        },
        {
          "duration": 0.034883720930224626,
          "durationTicks": 3,
          "midi": 37,
          "name": "C#2",
          "ticks": 18501,
          "time": 215.12790697674419,
          "velocity": 0.28346456692913385
        },
        {
          "duration": 0.13953488372092693,
          "durationTicks": 12,
          "midi": 91,
          "name": "G6",
          "ticks": 18501,
          "time": 215.12790697674419,
          "velocity": 0.10236220472440945
        },
        {
          "duration": 0.04651162790699459,
          "durationTicks": 4,
          "midi": 38,
          "name": "D2",
          "ticks": 18504,
          "time": 215.1627906976744,
          "velocity": 0.3464566929133858
        },
        {
          "duration": 0.15116279069766847,
          "durationTicks": 13,
          "midi": 83,
          "name": "B5",
          "ticks": 18507,
          "time": 215.19767441860466,
          "velocity": 0.13385826771653545
        },
        {
          "duration": 0.22093023255811772,
          "durationTicks": 19,
          "midi": 53,
          "name": "F3",
          "ticks": 18508,
          "time": 215.2093023255814,
          "velocity": 0.44881889763779526
        },
        {
          "duration": 0.24418604651162923,
          "durationTicks": 21,
          "midi": 60,
          "name": "C4",
          "ticks": 18508,
          "time": 215.2093023255814,
          "velocity": 0.31496062992125984
        },
        {
          "duration": 0.22093023255811772,
          "durationTicks": 19,
          "midi": 75,
          "name": "D#5",
          "ticks": 18508,
          "time": 215.2093023255814,
          "velocity": 0.11811023622047244
        },
        {
          "duration": 0.06976744186044925,
          "durationTicks": 6,
          "midi": 96,
          "name": "C7",
          "ticks": 18508,
          "time": 215.2093023255814,
          "velocity": 0.13385826771653545
        },
        {
          "duration": 0.034883720930224626,
          "durationTicks": 3,
          "midi": 42,
          "name": "F#2",
          "ticks": 18509,
          "time": 215.22093023255815,
          "velocity": 0.4409448818897638
        },
        {
          "duration": 0.22093023255814614,
          "durationTicks": 19,
          "midi": 69,
          "name": "A4",
          "ticks": 18509,
          "time": 215.22093023255815,
          "velocity": 0.2125984251968504
        },
        {
          "duration": 0.11627906976744384,
          "durationTicks": 10,
          "midi": 79,
          "name": "G5",
          "ticks": 18509,
          "time": 215.22093023255815,
          "velocity": 0.10236220472440945
        },
        {
          "duration": 0.04651162790696617,
          "durationTicks": 4,
          "midi": 41,
          "name": "F2",
          "ticks": 18512,
          "time": 215.25581395348837,
          "velocity": 0.44881889763779526
        },
        {
          "duration": 0.034883720930224626,
          "durationTicks": 3,
          "midi": 40,
          "name": "E2",
          "ticks": 18518,
          "time": 215.32558139534885,
          "velocity": 0.29133858267716534
        },
        {
          "duration": 0.08139534883721922,
          "durationTicks": 7,
          "midi": 41,
          "name": "F2",
          "ticks": 18521,
          "time": 215.36046511627907,
          "velocity": 0.3700787401574803
        },
        {
          "duration": 0.2325581395348877,
          "durationTicks": 20,
          "midi": 74,
          "name": "D5",
          "ticks": 18527,
          "time": 215.43023255813952,
          "velocity": 0.3228346456692913
        },
        {
          "duration": 0.22093023255814614,
          "durationTicks": 19,
          "midi": 83,
          "name": "B5",
          "ticks": 18527,
          "time": 215.43023255813952,
          "velocity": 0.2204724409448819
        },
        {
          "duration": 0.22093023255811772,
          "durationTicks": 19,
          "midi": 67,
          "name": "G4",
          "ticks": 18528,
          "time": 215.4418604651163,
          "velocity": 0.2047244094488189
        },
        {
          "duration": 0.13953488372092693,
          "durationTicks": 12,
          "midi": 90,
          "name": "F#6",
          "ticks": 18528,
          "time": 215.4418604651163,
          "velocity": 0.09448818897637795
        },
        {
          "duration": 0.16279069767441,
          "durationTicks": 14,
          "midi": 93,
          "name": "A6",
          "ticks": 18528,
          "time": 215.4418604651163,
          "velocity": 0.14173228346456693
        },
        {
          "duration": 0.20930232558137618,
          "durationTicks": 18,
          "midi": 62,
          "name": "D4",
          "ticks": 18529,
          "time": 215.45348837209303,
          "velocity": 0.2125984251968504
        },
        {
          "duration": 0.23255813953485927,
          "durationTicks": 20,
          "midi": 71,
          "name": "B4",
          "ticks": 18529,
          "time": 215.45348837209303,
          "velocity": 0.18110236220472442
        },
        {
          "duration": 0.15116279069766847,
          "durationTicks": 13,
          "midi": 81,
          "name": "A5",
          "ticks": 18529,
          "time": 215.45348837209303,
          "velocity": 0.11811023622047244
        },
        {
          "duration": 0.25581395348837077,
          "durationTicks": 22,
          "midi": 85,
          "name": "C#6",
          "ticks": 18529,
          "time": 215.45348837209303,
          "velocity": 0.33070866141732286
        },
        {
          "duration": 0.023255813953483084,
          "durationTicks": 2,
          "midi": 43,
          "name": "G2",
          "ticks": 18530,
          "time": 215.46511627906978,
          "velocity": 0.41732283464566927
        },
        {
          "duration": 0.04651162790696617,
          "durationTicks": 4,
          "midi": 98,
          "name": "D7",
          "ticks": 18530,
          "time": 215.46511627906978,
          "velocity": 0.09448818897637795
        },
        {
          "duration": 0.17441860465115155,
          "durationTicks": 15,
          "midi": 55,
          "name": "G3",
          "ticks": 18531,
          "time": 215.47674418604652,
          "velocity": 0.4409448818897638
        },
        {
          "duration": 0.034883720930224626,
          "durationTicks": 3,
          "midi": 43,
          "name": "G2",
          "ticks": 18534,
          "time": 215.51162790697674,
          "velocity": 0.3937007874015748
        },
        {
          "duration": 0.09302325581396076,
          "durationTicks": 8,
          "midi": 43,
          "name": "G2",
          "ticks": 18538,
          "time": 215.5581395348837,
          "velocity": 0.33858267716535434
        },
        {
          "duration": 0.5813953488372192,
          "durationTicks": 50,
          "midi": 86,
          "name": "D6",
          "ticks": 18545,
          "time": 215.63953488372093,
          "velocity": 0.49606299212598426
        },
        {
          "duration": 0.13953488372092693,
          "durationTicks": 12,
          "midi": 81,
          "name": "A5",
          "ticks": 18546,
          "time": 215.65116279069767,
          "velocity": 0.13385826771653545
        },
        {
          "duration": 0.034883720930224626,
          "durationTicks": 3,
          "midi": 91,
          "name": "G6",
          "ticks": 18546,
          "time": 215.65116279069767,
          "velocity": 0.14960629921259844
        },
        {
          "duration": 0.023255813953483084,
          "durationTicks": 2,
          "midi": 55,
          "name": "G3",
          "ticks": 18547,
          "time": 215.6627906976744,
          "velocity": 0.29133858267716534
        },
        {
          "duration": 0.4651162790697754,
          "durationTicks": 40,
          "midi": 65,
          "name": "F4",
          "ticks": 18547,
          "time": 215.6627906976744,
          "velocity": 0.2047244094488189
        },
        {
          "duration": 0.4767441860465169,
          "durationTicks": 41,
          "midi": 83,
          "name": "B5",
          "ticks": 18547,
          "time": 215.6627906976744,
          "velocity": 0.2283464566929134
        },
        {
          "duration": 0.023255813953511506,
          "durationTicks": 2,
          "midi": 42,
          "name": "F#2",
          "ticks": 18548,
          "time": 215.67441860465115,
          "velocity": 0.48031496062992124
        },
        {
          "duration": 0.04651162790699459,
          "durationTicks": 4,
          "midi": 69,
          "name": "A4",
          "ticks": 18548,
          "time": 215.67441860465115,
          "velocity": 0.12598425196850394
        },
        {
          "duration": 0.45348837209303383,
          "durationTicks": 39,
          "midi": 59,
          "name": "B3",
          "ticks": 18549,
          "time": 215.6860465116279,
          "velocity": 0.2677165354330709
        },
        {
          "duration": 0.023255813953483084,
          "durationTicks": 2,
          "midi": 43,
          "name": "G2",
          "ticks": 18550,
          "time": 215.69767441860466,
          "velocity": 0.36220472440944884
        },
        {
          "duration": 0.04651162790696617,
          "durationTicks": 4,
          "midi": 50,
          "name": "D3",
          "ticks": 18550,
          "time": 215.69767441860466,
          "velocity": 0.30708661417322836
        },
        {
          "duration": 0.44186046511626387,
          "durationTicks": 38,
          "midi": 73,
          "name": "C#5",
          "ticks": 18552,
          "time": 215.72093023255815,
          "velocity": 0.2047244094488189
        },
        {
          "duration": 0.40697674418603924,
          "durationTicks": 35,
          "midi": 43,
          "name": "G2",
          "ticks": 18553,
          "time": 215.7325581395349,
          "velocity": 0.48031496062992124
        },
        {
          "duration": 0.023255813953511506,
          "durationTicks": 2,
          "midi": 50,
          "name": "D3",
          "ticks": 18559,
          "time": 215.80232558139534,
          "velocity": 0.23622047244094488
        },
        {
          "duration": 0.04651162790696617,
          "durationTicks": 4,
          "midi": 50,
          "name": "D3",
          "ticks": 18566,
          "time": 215.88372093023256,
          "velocity": 0.2047244094488189
        },
        {
          "duration": 0.04651162790696617,
          "durationTicks": 4,
          "midi": 50,
          "name": "D3",
          "ticks": 18573,
          "time": 215.96511627906978,
          "velocity": 0.1889763779527559
        },
        {
          "duration": 0.04651162790699459,
          "durationTicks": 4,
          "midi": 50,
          "name": "D3",
          "ticks": 18580,
          "time": 216.04651162790697,
          "velocity": 0.18110236220472442
        },
        {
          "duration": 0.04651162790696617,
          "durationTicks": 4,
          "midi": 76,
          "name": "E5",
          "ticks": 18586,
          "time": 216.11627906976744,
          "velocity": 0.12598425196850394
        },
        {
          "duration": 0.40697674418603924,
          "durationTicks": 35,
          "midi": 85,
          "name": "C#6",
          "ticks": 18586,
          "time": 216.11627906976744,
          "velocity": 0.23622047244094488
        },
        {
          "duration": 0.5348837209302246,
          "durationTicks": 46,
          "midi": 67,
          "name": "G4",
          "ticks": 18587,
          "time": 216.12790697674419,
          "velocity": 0.2125984251968504
        },
        {
          "duration": 0.04651162790696617,
          "durationTicks": 4,
          "midi": 75,
          "name": "D#5",
          "ticks": 18587,
          "time": 216.12790697674419,
          "velocity": 0.2204724409448819
        },
        {
          "duration": 0.034883720930224626,
          "durationTicks": 3,
          "midi": 77,
          "name": "F5",
          "ticks": 18587,
          "time": 216.12790697674419,
          "velocity": 0.13385826771653545
        },
        {
          "duration": 0.034883720930224626,
          "durationTicks": 3,
          "midi": 84,
          "name": "C6",
          "ticks": 18587,
          "time": 216.12790697674419,
          "velocity": 0.10236220472440945
        },
        {
          "duration": 0.011627906976741542,
          "durationTicks": 1,
          "midi": 44,
          "name": "G#2",
          "ticks": 18588,
          "time": 216.13953488372093,
          "velocity": 0.5354330708661418
        },
        {
          "duration": 0.034883720930224626,
          "durationTicks": 3,
          "midi": 52,
          "name": "E3",
          "ticks": 18588,
          "time": 216.13953488372093,
          "velocity": 0.2992125984251969
        },
        {
          "duration": 0.30232558139536536,
          "durationTicks": 26,
          "midi": 45,
          "name": "A2",
          "ticks": 18589,
          "time": 216.15116279069767,
          "velocity": 0.4881889763779528
        },
        {
          "duration": 0.30232558139536536,
          "durationTicks": 26,
          "midi": 61,
          "name": "C#4",
          "ticks": 18589,
          "time": 216.15116279069767,
          "velocity": 0.2440944881889764
        },
        {
          "duration": 0.26744186046514073,
          "durationTicks": 23,
          "midi": 52,
          "name": "E3",
          "ticks": 18592,
          "time": 216.1860465116279,
          "velocity": 0.25984251968503935
        },
        {
          "duration": 0.2790697674418823,
          "durationTicks": 24,
          "midi": 75,
          "name": "D#5",
          "ticks": 18592,
          "time": 216.1860465116279,
          "velocity": 0.2047244094488189
        },
        {
          "duration": 0.1511627906976969,
          "durationTicks": 13,
          "midi": 76,
          "name": "E5",
          "ticks": 18592,
          "time": 216.1860465116279,
          "velocity": 0.09448818897637795
        },
        {
          "duration": 0.023255813953483084,
          "durationTicks": 2,
          "midi": 47,
          "name": "B2",
          "ticks": 18616,
          "time": 216.46511627906978,
          "velocity": 0.4566929133858268
        },
        {
          "duration": 0.25581395348837077,
          "durationTicks": 22,
          "midi": 55,
          "name": "G3",
          "ticks": 18616,
          "time": 216.46511627906978,
          "velocity": 0.31496062992125984
        },
        {
          "duration": 0.20930232558137618,
          "durationTicks": 18,
          "midi": 60,
          "name": "C4",
          "ticks": 18616,
          "time": 216.46511627906978,
          "velocity": 0.29133858267716534
        },
        {
          "duration": 0.13953488372092693,
          "durationTicks": 12,
          "midi": 64,
          "name": "E4",
          "ticks": 18616,
          "time": 216.46511627906978,
          "velocity": 0.2047244094488189
        },
        {
          "duration": 0.12790697674418539,
          "durationTicks": 11,
          "midi": 70,
          "name": "A#4",
          "ticks": 18616,
          "time": 216.46511627906978,
          "velocity": 0.14173228346456693
        },
        {
          "duration": 0.034883720930224626,
          "durationTicks": 3,
          "midi": 74,
          "name": "D5",
          "ticks": 18616,
          "time": 216.46511627906978,
          "velocity": 0.15748031496062992
        },
        {
          "duration": 0.034883720930224626,
          "durationTicks": 3,
          "midi": 77,
          "name": "F5",
          "ticks": 18616,
          "time": 216.46511627906978,
          "velocity": 0.11811023622047244
        },
        {
          "duration": 0.05813953488370771,
          "durationTicks": 5,
          "midi": 91,
          "name": "G6",
          "ticks": 18616,
          "time": 216.46511627906978,
          "velocity": 0.11811023622047244
        },
        {
          "duration": 0.034883720930224626,
          "durationTicks": 3,
          "midi": 80,
          "name": "G#5",
          "ticks": 18617,
          "time": 216.47674418604652,
          "velocity": 0.07086614173228346
        },
        {
          "duration": 0.04651162790696617,
          "durationTicks": 4,
          "midi": 37,
          "name": "C#2",
          "ticks": 18618,
          "time": 216.48837209302326,
          "velocity": 0.4330708661417323
        },
        {
          "duration": 0.023255813953483084,
          "durationTicks": 2,
          "midi": 48,
          "name": "C3",
          "ticks": 18618,
          "time": 216.48837209302326,
          "velocity": 0.4409448818897638
        },
        {
          "duration": 0.2093023255814046,
          "durationTicks": 18,
          "midi": 48,
          "name": "C3",
          "ticks": 18621,
          "time": 216.52325581395348,
          "velocity": 0.4015748031496063
        },
        {
          "duration": 0.09302325581396076,
          "durationTicks": 8,
          "midi": 74,
          "name": "D5",
          "ticks": 18621,
          "time": 216.52325581395348,
          "velocity": 0.16535433070866143
        },
        {
          "duration": 0.04651162790699459,
          "durationTicks": 4,
          "midi": 36,
          "name": "C2",
          "ticks": 18622,
          "time": 216.53488372093022,
          "velocity": 0.41732283464566927
        },
        {
          "duration": 0.06976744186047767,
          "durationTicks": 6,
          "midi": 91,
          "name": "G6",
          "ticks": 18622,
          "time": 216.53488372093022,
          "velocity": 0.09448818897637795
        },
        {
          "duration": 0.6279069767441854,
          "durationTicks": 54,
          "midi": 81,
          "name": "A5",
          "ticks": 18625,
          "time": 216.56976744186048,
          "velocity": 0.44881889763779526
        },
        {
          "duration": 0.10465116279067388,
          "durationTicks": 9,
          "midi": 100,
          "name": "E7",
          "ticks": 18626,
          "time": 216.58139534883722,
          "velocity": 0.25984251968503935
        },
        {
          "duration": 0.034883720930224626,
          "durationTicks": 3,
          "midi": 78,
          "name": "F#5",
          "ticks": 18627,
          "time": 216.59302325581396,
          "velocity": 0.18110236220472442
        },
        {
          "duration": 0.06976744186044925,
          "durationTicks": 6,
          "midi": 64,
          "name": "E4",
          "ticks": 18629,
          "time": 216.61627906976744,
          "velocity": 0.09448818897637795
        },
        {
          "duration": 0.4651162790697754,
          "durationTicks": 40,
          "midi": 65,
          "name": "F4",
          "ticks": 18705,
          "time": 217.5,
          "velocity": 0.25984251968503935
        },
        {
          "duration": 0.034883720930224626,
          "durationTicks": 3,
          "midi": 74,
          "name": "D5",
          "ticks": 18705,
          "time": 217.5,
          "velocity": 0.2283464566929134
        },
        {
          "duration": 0.2906976744185954,
          "durationTicks": 25,
          "midi": 77,
          "name": "F5",
          "ticks": 18705,
          "time": 217.5,
          "velocity": 0.2755905511811024
        },
        {
          "duration": 0.6511627906976685,
          "durationTicks": 56,
          "midi": 79,
          "name": "G5",
          "ticks": 18705,
          "time": 217.5,
          "velocity": 0.4409448818897638
        },
        {
          "duration": 0.5465116279069662,
          "durationTicks": 47,
          "midi": 83,
          "name": "B5",
          "ticks": 18705,
          "time": 217.5,
          "velocity": 0.23622047244094488
        },
        {
          "duration": 0.11627906976744384,
          "durationTicks": 10,
          "midi": 98,
          "name": "D7",
          "ticks": 18705,
          "time": 217.5,
          "velocity": 0.2677165354330709
        },
        {
          "duration": 0.034883720930224626,
          "durationTicks": 3,
          "midi": 58,
          "name": "A#3",
          "ticks": 18706,
          "time": 217.51162790697674,
          "velocity": 0.2677165354330709
        },
        {
          "duration": 0.034883720930224626,
          "durationTicks": 3,
          "midi": 72,
          "name": "C5",
          "ticks": 18706,
          "time": 217.51162790697674,
          "velocity": 0.23622047244094488
        },
        {
          "duration": 0.023255813953483084,
          "durationTicks": 2,
          "midi": 43,
          "name": "G2",
          "ticks": 18708,
          "time": 217.53488372093022,
          "velocity": 0.4409448818897638
        },
        {
          "duration": 0.08139534883721922,
          "durationTicks": 7,
          "midi": 81,
          "name": "A5",
          "ticks": 18708,
          "time": 217.53488372093022,
          "velocity": 0.07086614173228346
        },
        {
          "duration": 0.04651162790699459,
          "durationTicks": 4,
          "midi": 50,
          "name": "D3",
          "ticks": 18709,
          "time": 217.54651162790697,
          "velocity": 0.30708661417322836
        },
        {
          "duration": 0.40697674418606766,
          "durationTicks": 35,
          "midi": 59,
          "name": "B3",
          "ticks": 18709,
          "time": 217.54651162790697,
          "velocity": 0.2283464566929134
        },
        {
          "duration": 0.03488372093025305,
          "durationTicks": 3,
          "midi": 73,
          "name": "C#5",
          "ticks": 18709,
          "time": 217.54651162790697,
          "velocity": 0.2283464566929134
        },
        {
          "duration": 0.023255813953511506,
          "durationTicks": 2,
          "midi": 42,
          "name": "F#2",
          "ticks": 18710,
          "time": 217.5581395348837,
          "velocity": 0.4251968503937008
        },
        {
          "duration": 0.38372093023255616,
          "durationTicks": 33,
          "midi": 43,
          "name": "G2",
          "ticks": 18712,
          "time": 217.58139534883722,
          "velocity": 0.3779527559055118
        },
        {
          "duration": 0.3604651162790731,
          "durationTicks": 31,
          "midi": 73,
          "name": "C#5",
          "ticks": 18713,
          "time": 217.59302325581396,
          "velocity": 0.18110236220472442
        },
        {
          "duration": 0.023255813953483084,
          "durationTicks": 2,
          "midi": 50,
          "name": "D3",
          "ticks": 18718,
          "time": 217.65116279069767,
          "velocity": 0.2440944881889764
        },
        {
          "duration": 0.04651162790696617,
          "durationTicks": 4,
          "midi": 50,
          "name": "D3",
          "ticks": 18725,
          "time": 217.7325581395349,
          "velocity": 0.1968503937007874
        },
        {
          "duration": 0.04651162790696617,
          "durationTicks": 4,
          "midi": 50,
          "name": "D3",
          "ticks": 18732,
          "time": 217.8139534883721,
          "velocity": 0.1889763779527559
        },
        {
          "duration": 0.04651162790699459,
          "durationTicks": 4,
          "midi": 50,
          "name": "D3",
          "ticks": 18739,
          "time": 217.8953488372093,
          "velocity": 0.1732283464566929
        },
        {
          "duration": 0.034883720930224626,
          "durationTicks": 3,
          "midi": 74,
          "name": "D5",
          "ticks": 18744,
          "time": 217.95348837209303,
          "velocity": 0.2047244094488189
        },
        {
          "duration": 0.04651162790696617,
          "durationTicks": 4,
          "midi": 76,
          "name": "E5",
          "ticks": 18744,
          "time": 217.95348837209303,
          "velocity": 0.12598425196850394
        },
        {
          "duration": 0.2674418604651123,
          "durationTicks": 23,
          "midi": 85,
          "name": "C#6",
          "ticks": 18744,
          "time": 217.95348837209303,
          "velocity": 0.2440944881889764
        },
        {
          "duration": 0.22093023255811772,
          "durationTicks": 19,
          "midi": 67,
          "name": "G4",
          "ticks": 18745,
          "time": 217.96511627906978,
          "velocity": 0.1968503937007874
        },
        {
          "duration": 0.034883720930224626,
          "durationTicks": 3,
          "midi": 71,
          "name": "B4",
          "ticks": 18745,
          "time": 217.96511627906978,
          "velocity": 0.10236220472440945
        },
        {
          "duration": 0.034883720930224626,
          "durationTicks": 3,
          "midi": 77,
          "name": "F5",
          "ticks": 18745,
          "time": 217.96511627906978,
          "velocity": 0.13385826771653545
        },
        {
          "duration": 0.034883720930224626,
          "durationTicks": 3,
          "midi": 84,
          "name": "C6",
          "ticks": 18745,
          "time": 217.96511627906978,
          "velocity": 0.08661417322834646
        },
        {
          "duration": 0.19767441860463464,
          "durationTicks": 17,
          "midi": 45,
          "name": "A2",
          "ticks": 18746,
          "time": 217.97674418604652,
          "velocity": 0.5275590551181102
        },
        {
          "duration": 0.19767441860463464,
          "durationTicks": 17,
          "midi": 52,
          "name": "E3",
          "ticks": 18746,
          "time": 217.97674418604652,
          "velocity": 0.33858267716535434
        },
        {
          "duration": 0.1860465116278931,
          "durationTicks": 16,
          "midi": 61,
          "name": "C#4",
          "ticks": 18747,
          "time": 217.98837209302326,
          "velocity": 0.2204724409448819
        },
        {
          "duration": 0.034883720930224626,
          "durationTicks": 3,
          "midi": 75,
          "name": "D#5",
          "ticks": 18747,
          "time": 217.98837209302326,
          "velocity": 0.2204724409448819
        },
        {
          "duration": 0.11627906976744384,
          "durationTicks": 10,
          "midi": 76,
          "name": "E5",
          "ticks": 18750,
          "time": 218.02325581395348,
          "velocity": 0.08661417322834646
        },
        {
          "duration": 0.17441860465117998,
          "durationTicks": 15,
          "midi": 75,
          "name": "D#5",
          "ticks": 18752,
          "time": 218.04651162790697,
          "velocity": 0.1732283464566929
        },
        {
          "duration": 0.12790697674418539,
          "durationTicks": 11,
          "midi": 76,
          "name": "E5",
          "ticks": 18763,
          "time": 218.17441860465115,
          "velocity": 0.14173228346456693
        },
        {
          "duration": 0.33720930232559,
          "durationTicks": 29,
          "midi": 57,
          "name": "A3",
          "ticks": 18764,
          "time": 218.1860465116279,
          "velocity": 0.4015748031496063
        },
        {
          "duration": 0.32558139534884845,
          "durationTicks": 28,
          "midi": 66,
          "name": "F#4",
          "ticks": 18764,
          "time": 218.1860465116279,
          "velocity": 0.2440944881889764
        },
        {
          "duration": 0.2558139534883992,
          "durationTicks": 22,
          "midi": 72,
          "name": "C5",
          "ticks": 18764,
          "time": 218.1860465116279,
          "velocity": 0.14173228346456693
        },
        {
          "duration": 0.10465116279067388,
          "durationTicks": 9,
          "midi": 50,
          "name": "D3",
          "ticks": 18765,
          "time": 218.19767441860466,
          "velocity": 0.4645669291338583
        },
        {
          "duration": 0.034883720930224626,
          "durationTicks": 3,
          "midi": 39,
          "name": "D#2",
          "ticks": 18766,
          "time": 218.2093023255814,
          "velocity": 0.44881889763779526
        },
        {
          "duration": 0.05813953488370771,
          "durationTicks": 5,
          "midi": 93,
          "name": "A6",
          "ticks": 18766,
          "time": 218.2093023255814,
          "velocity": 0.11811023622047244
        },
        {
          "duration": 0.034883720930224626,
          "durationTicks": 3,
          "midi": 80,
          "name": "G#5",
          "ticks": 18769,
          "time": 218.24418604651163,
          "velocity": 0.07086614173228346
        },
        {
          "duration": 0.034883720930224626,
          "durationTicks": 3,
          "midi": 38,
          "name": "D2",
          "ticks": 18771,
          "time": 218.2674418604651,
          "velocity": 0.3700787401574803
        },
        {
          "duration": 0.08139534883721922,
          "durationTicks": 7,
          "midi": 85,
          "name": "C#6",
          "ticks": 18774,
          "time": 218.30232558139534,
          "velocity": 0.11023622047244094
        },
        {
          "duration": 0.03488372093025305,
          "durationTicks": 3,
          "midi": 91,
          "name": "G6",
          "ticks": 18774,
          "time": 218.30232558139534,
          "velocity": 0.09448818897637795
        },
        {
          "duration": 0.023255813953483084,
          "durationTicks": 2,
          "midi": 41,
          "name": "F2",
          "ticks": 18775,
          "time": 218.3139534883721,
          "velocity": 0.4094488188976378
        },
        {
          "duration": 0.09302325581393234,
          "durationTicks": 8,
          "midi": 93,
          "name": "A6",
          "ticks": 18775,
          "time": 218.3139534883721,
          "velocity": 0.14960629921259844
        },
        {
          "duration": 0.1860465116278931,
          "durationTicks": 16,
          "midi": 50,
          "name": "D3",
          "ticks": 18776,
          "time": 218.32558139534885,
          "velocity": 0.4251968503937008
        },
        {
          "duration": 0.04651162790696617,
          "durationTicks": 4,
          "midi": 90,
          "name": "F#6",
          "ticks": 18776,
          "time": 218.32558139534885,
          "velocity": 0.07086614173228346
        },
        {
          "duration": 0.034883720930224626,
          "durationTicks": 3,
          "midi": 39,
          "name": "D#2",
          "ticks": 18777,
          "time": 218.3372093023256,
          "velocity": 0.3937007874015748
        },
        {
          "duration": 0.034883720930224626,
          "durationTicks": 3,
          "midi": 38,
          "name": "D2",
          "ticks": 18782,
          "time": 218.3953488372093,
          "velocity": 0.3700787401574803
        },
        {
          "duration": 0.32558139534884845,
          "durationTicks": 28,
          "midi": 89,
          "name": "F6",
          "ticks": 18783,
          "time": 218.40697674418604,
          "velocity": 0.2992125984251969
        },
        {
          "duration": 0.17441860465117998,
          "durationTicks": 15,
          "midi": 96,
          "name": "C7",
          "ticks": 18783,
          "time": 218.40697674418604,
          "velocity": 0.25196850393700787
        },
        {
          "duration": 0.6976744186046631,
          "durationTicks": 60,
          "midi": 77,
          "name": "F5",
          "ticks": 18784,
          "time": 218.41860465116278,
          "velocity": 0.4566929133858268
        },
        {
          "duration": 0.11627906976744384,
          "durationTicks": 10,
          "midi": 55,
          "name": "G3",
          "ticks": 18793,
          "time": 218.52325581395348,
          "velocity": 0.33070866141732286
        },
        {
          "duration": 0.04651162790699459,
          "durationTicks": 4,
          "midi": 79,
          "name": "G5",
          "ticks": 18793,
          "time": 218.52325581395348,
          "velocity": 0.11023622047244094
        },
        {
          "duration": 0.11627906976744384,
          "durationTicks": 10,
          "midi": 60,
          "name": "C4",
          "ticks": 18794,
          "time": 218.53488372093022,
          "velocity": 0.29133858267716534
        },
        {
          "duration": 0.1046511627907023,
          "durationTicks": 9,
          "midi": 64,
          "name": "E4",
          "ticks": 18794,
          "time": 218.53488372093022,
          "velocity": 0.2047244094488189
        },
        {
          "duration": 0.1046511627907023,
          "durationTicks": 9,
          "midi": 70,
          "name": "A#4",
          "ticks": 18794,
          "time": 218.53488372093022,
          "velocity": 0.14960629921259844
        },
        {
          "duration": 0.03488372093025305,
          "durationTicks": 3,
          "midi": 88,
          "name": "E6",
          "ticks": 18794,
          "time": 218.53488372093022,
          "velocity": 0.07086614173228346
        },
        {
          "duration": 0.05813953488373613,
          "durationTicks": 5,
          "midi": 91,
          "name": "G6",
          "ticks": 18794,
          "time": 218.53488372093022,
          "velocity": 0.12598425196850394
        },
        {
          "duration": 0.04651162790699459,
          "durationTicks": 4,
          "midi": 37,
          "name": "C#2",
          "ticks": 18796,
          "time": 218.5581395348837,
          "velocity": 0.4330708661417323
        },
        {
          "duration": 0.08139534883721922,
          "durationTicks": 7,
          "midi": 48,
          "name": "C3",
          "ticks": 18796,
          "time": 218.5581395348837,
          "velocity": 0.4330708661417323
        },
        {
          "duration": 0.11627906976744384,
          "durationTicks": 10,
          "midi": 69,
          "name": "A4",
          "ticks": 18803,
          "time": 218.63953488372093,
          "velocity": 0.1968503937007874
        },
        {
          "duration": 0.034883720930224626,
          "durationTicks": 3,
          "midi": 40,
          "name": "E2",
          "ticks": 18804,
          "time": 218.65116279069767,
          "velocity": 0.4409448818897638
        },
        {
          "duration": 0.11627906976744384,
          "durationTicks": 10,
          "midi": 72,
          "name": "C5",
          "ticks": 18804,
          "time": 218.65116279069767,
          "velocity": 0.14173228346456693
        },
        {
          "duration": 0.18604651162792152,
          "durationTicks": 16,
          "midi": 93,
          "name": "A6",
          "ticks": 18804,
          "time": 218.65116279069767,
          "velocity": 0.12598425196850394
        },
        {
          "duration": 0.09302325581396076,
          "durationTicks": 8,
          "midi": 50,
          "name": "D3",
          "ticks": 18805,
          "time": 218.6627906976744,
          "velocity": 0.44881889763779526
        },
        {
          "duration": 0.1046511627907023,
          "durationTicks": 9,
          "midi": 57,
          "name": "A3",
          "ticks": 18805,
          "time": 218.6627906976744,
          "velocity": 0.3543307086614173
        },
        {
          "duration": 0.09302325581396076,
          "durationTicks": 8,
          "midi": 66,
          "name": "F#4",
          "ticks": 18806,
          "time": 218.67441860465115,
          "velocity": 0.25984251968503935
        },
        {
          "duration": 0.09302325581396076,
          "durationTicks": 8,
          "midi": 80,
          "name": "G#5",
          "ticks": 18806,
          "time": 218.67441860465115,
          "velocity": 0.10236220472440945
        },
        {
          "duration": 0.023255813953511506,
          "durationTicks": 2,
          "midi": 39,
          "name": "D#2",
          "ticks": 18807,
          "time": 218.6860465116279,
          "velocity": 0.4330708661417323
        },
        {
          "duration": 0.04651162790696617,
          "durationTicks": 4,
          "midi": 38,
          "name": "D2",
          "ticks": 18809,
          "time": 218.7093023255814,
          "velocity": 0.4409448818897638
        },
        {
          "duration": 0.023255813953483084,
          "durationTicks": 2,
          "midi": 44,
          "name": "G#2",
          "ticks": 18814,
          "time": 218.7674418604651,
          "velocity": 0.4094488188976378
        },
        {
          "duration": 0.1046511627907023,
          "durationTicks": 9,
          "midi": 53,
          "name": "F3",
          "ticks": 18814,
          "time": 218.7674418604651,
          "velocity": 0.4566929133858268
        },
        {
          "duration": 0.1046511627907023,
          "durationTicks": 9,
          "midi": 60,
          "name": "C4",
          "ticks": 18814,
          "time": 218.7674418604651,
          "velocity": 0.3464566929133858
        },
        {
          "duration": 0.22093023255814614,
          "durationTicks": 19,
          "midi": 75,
          "name": "D#5",
          "ticks": 18814,
          "time": 218.7674418604651,
          "velocity": 0.1968503937007874
        },
        {
          "duration": 0.05813953488373613,
          "durationTicks": 5,
          "midi": 85,
          "name": "C#6",
          "ticks": 18814,
          "time": 218.7674418604651,
          "velocity": 0.07874015748031496
        },
        {
          "duration": 0.22093023255814614,
          "durationTicks": 19,
          "midi": 69,
          "name": "A4",
          "ticks": 18815,
          "time": 218.77906976744185,
          "velocity": 0.1968503937007874
        },
        {
          "duration": 0.22093023255814614,
          "durationTicks": 19,
          "midi": 79,
          "name": "G5",
          "ticks": 18815,
          "time": 218.77906976744185,
          "velocity": 0.10236220472440945
        },
        {
          "duration": 0.023255813953511506,
          "durationTicks": 2,
          "midi": 41,
          "name": "F2",
          "ticks": 18817,
          "time": 218.80232558139534,
          "velocity": 0.4645669291338583
        },
        {
          "duration": 0.023255813953483084,
          "durationTicks": 2,
          "midi": 42,
          "name": "F#2",
          "ticks": 18819,
          "time": 218.82558139534885,
          "velocity": 0.3858267716535433
        },
        {
          "duration": 0.023255813953483084,
          "durationTicks": 2,
          "midi": 41,
          "name": "F2",
          "ticks": 18821,
          "time": 218.84883720930233,
          "velocity": 0.3937007874015748
        },
        {
          "duration": 0.13953488372092693,
          "durationTicks": 12,
          "midi": 83,
          "name": "B5",
          "ticks": 18822,
          "time": 218.86046511627907,
          "velocity": 0.12598425196850394
        },
        {
          "duration": 0.023255813953483084,
          "durationTicks": 2,
          "midi": 52,
          "name": "E3",
          "ticks": 18823,
          "time": 218.87209302325581,
          "velocity": 0.49606299212598426
        },
        {
          "duration": 0.09302325581396076,
          "durationTicks": 8,
          "midi": 60,
          "name": "C4",
          "ticks": 18824,
          "time": 218.88372093023256,
          "velocity": 0.3228346456692913
        },
        {
          "duration": 0.034883720930224626,
          "durationTicks": 3,
          "midi": 94,
          "name": "A#6",
          "ticks": 18824,
          "time": 218.88372093023256,
          "velocity": 0.07086614173228346
        },
        {
          "duration": 0.034883720930224626,
          "durationTicks": 3,
          "midi": 42,
          "name": "F#2",
          "ticks": 18825,
          "time": 218.8953488372093,
          "velocity": 0.4645669291338583
        },
        {
          "duration": 0.08139534883721922,
          "durationTicks": 7,
          "midi": 53,
          "name": "F3",
          "ticks": 18825,
          "time": 218.8953488372093,
          "velocity": 0.4881889763779528
        },
        {
          "duration": 0.06976744186047767,
          "durationTicks": 6,
          "midi": 88,
          "name": "E6",
          "ticks": 18825,
          "time": 218.8953488372093,
          "velocity": 0.07874015748031496
        },
        {
          "duration": 0.09302325581396076,
          "durationTicks": 8,
          "midi": 96,
          "name": "C7",
          "ticks": 18825,
          "time": 218.8953488372093,
          "velocity": 0.14173228346456693
        },
        {
          "duration": 0.04651162790699459,
          "durationTicks": 4,
          "midi": 41,
          "name": "F2",
          "ticks": 18828,
          "time": 218.93023255813952,
          "velocity": 0.47244094488188976
        },
        {
          "duration": 0.023255813953483084,
          "durationTicks": 2,
          "midi": 51,
          "name": "D#3",
          "ticks": 18833,
          "time": 218.98837209302326,
          "velocity": 0.4645669291338583
        },
        {
          "duration": 0.023255813953483084,
          "durationTicks": 2,
          "midi": 58,
          "name": "A#3",
          "ticks": 18833,
          "time": 218.98837209302326,
          "velocity": 0.25984251968503935
        },
        {
          "duration": 0.15116279069766847,
          "durationTicks": 13,
          "midi": 71,
          "name": "B4",
          "ticks": 18833,
          "time": 218.98837209302326,
          "velocity": 0.2125984251968504
        },
        {
          "duration": 0.11627906976744384,
          "durationTicks": 10,
          "midi": 74,
          "name": "D5",
          "ticks": 18833,
          "time": 218.98837209302326,
          "velocity": 0.12598425196850394
        },
        {
          "duration": 0.12790697674418539,
          "durationTicks": 11,
          "midi": 64,
          "name": "E4",
          "ticks": 18834,
          "time": 219,
          "velocity": 0.28346456692913385
        },
        {
          "duration": 0.13953488372092693,
          "durationTicks": 12,
          "midi": 68,
          "name": "G#4",
          "ticks": 18834,
          "time": 219,
          "velocity": 0.2283464566929134
        },
        {
          "duration": 0.1046511627907023,
          "durationTicks": 9,
          "midi": 82,
          "name": "A#5",
          "ticks": 18834,
          "time": 219,
          "velocity": 0.11023622047244094
        },
        {
          "duration": 0.023255813953483084,
          "durationTicks": 2,
          "midi": 41,
          "name": "F2",
          "ticks": 18835,
          "time": 219.01162790697674,
          "velocity": 0.4094488188976378
        },
        {
          "duration": 0.1046511627907023,
          "durationTicks": 9,
          "midi": 52,
          "name": "E3",
          "ticks": 18835,
          "time": 219.01162790697674,
          "velocity": 0.4330708661417323
        },
        {
          "duration": 0.09302325581396076,
          "durationTicks": 8,
          "midi": 59,
          "name": "B3",
          "ticks": 18835,
          "time": 219.01162790697674,
          "velocity": 0.33070866141732286
        },
        {
          "duration": 0.034883720930224626,
          "durationTicks": 3,
          "midi": 87,
          "name": "D#6",
          "ticks": 18836,
          "time": 219.02325581395348,
          "velocity": 0.07086614173228346
        },
        {
          "duration": 0.05813953488373613,
          "durationTicks": 5,
          "midi": 40,
          "name": "E2",
          "ticks": 18837,
          "time": 219.03488372093022,
          "velocity": 0.4015748031496063
        },
        {
          "duration": 0.0813953488371908,
          "durationTicks": 7,
          "midi": 84,
          "name": "C6",
          "ticks": 18843,
          "time": 219.1046511627907,
          "velocity": 0.14173228346456693
        },
        {
          "duration": 0.24418604651162923,
          "durationTicks": 21,
          "midi": 88,
          "name": "E6",
          "ticks": 18843,
          "time": 219.1046511627907,
          "velocity": 0.2755905511811024
        },
        {
          "duration": 0.15116279069766847,
          "durationTicks": 13,
          "midi": 95,
          "name": "B6",
          "ticks": 18843,
          "time": 219.1046511627907,
          "velocity": 0.2283464566929134
        },
        {
          "duration": 0.023255813953483084,
          "durationTicks": 2,
          "midi": 50,
          "name": "D3",
          "ticks": 18844,
          "time": 219.11627906976744,
          "velocity": 0.48031496062992124
        },
        {
          "duration": 0.11627906976744384,
          "durationTicks": 10,
          "midi": 76,
          "name": "E5",
          "ticks": 18844,
          "time": 219.11627906976744,
          "velocity": 0.4645669291338583
        },
        {
          "duration": 0.04651162790696617,
          "durationTicks": 4,
          "midi": 90,
          "name": "F#6",
          "ticks": 18844,
          "time": 219.11627906976744,
          "velocity": 0.07874015748031496
        },
        {
          "duration": 0.023255813953483084,
          "durationTicks": 2,
          "midi": 40,
          "name": "E2",
          "ticks": 18845,
          "time": 219.12790697674419,
          "velocity": 0.49606299212598426
        },
        {
          "duration": 0.09302325581396076,
          "durationTicks": 8,
          "midi": 57,
          "name": "A3",
          "ticks": 18845,
          "time": 219.12790697674419,
          "velocity": 0.3543307086614173
        },
        {
          "duration": 0.09302325581396076,
          "durationTicks": 8,
          "midi": 66,
          "name": "F#4",
          "ticks": 18845,
          "time": 219.12790697674419,
          "velocity": 0.2125984251968504
        },
        {
          "duration": 0.1046511627907023,
          "durationTicks": 9,
          "midi": 85,
          "name": "C#6",
          "ticks": 18845,
          "time": 219.12790697674419,
          "velocity": 0.11023622047244094
        },
        {
          "duration": 0.06976744186047767,
          "durationTicks": 6,
          "midi": 72,
          "name": "C5",
          "ticks": 18846,
          "time": 219.13953488372093,
          "velocity": 0.13385826771653545
        },
        {
          "duration": 0.034883720930224626,
          "durationTicks": 3,
          "midi": 80,
          "name": "G#5",
          "ticks": 18846,
          "time": 219.13953488372093,
          "velocity": 0.11023622047244094
        },
        {
          "duration": 0.034883720930224626,
          "durationTicks": 3,
          "midi": 93,
          "name": "A6",
          "ticks": 18846,
          "time": 219.13953488372093,
          "velocity": 0.12598425196850394
        },
        {
          "duration": 0.04651162790699459,
          "durationTicks": 4,
          "midi": 39,
          "name": "D#2",
          "ticks": 18847,
          "time": 219.15116279069767,
          "velocity": 0.48031496062992124
        },
        {
          "duration": 0.04651162790699459,
          "durationTicks": 4,
          "midi": 50,
          "name": "D3",
          "ticks": 18847,
          "time": 219.15116279069767,
          "velocity": 0.4566929133858268
        },
        {
          "duration": 0.023255813953483084,
          "durationTicks": 2,
          "midi": 49,
          "name": "C#3",
          "ticks": 18851,
          "time": 219.19767441860466,
          "velocity": 0.41732283464566927
        },
        {
          "duration": 0.023255813953483084,
          "durationTicks": 2,
          "midi": 78,
          "name": "F#5",
          "ticks": 18851,
          "time": 219.19767441860466,
          "velocity": 0.3543307086614173
        },
        {
          "duration": 0.12790697674418539,
          "durationTicks": 11,
          "midi": 101,
          "name": "F7",
          "ticks": 18852,
          "time": 219.2093023255814,
          "velocity": 0.2047244094488189
        },
        {
          "duration": 0.11627906976744384,
          "durationTicks": 10,
          "midi": 67,
          "name": "G4",
          "ticks": 18853,
          "time": 219.22093023255815,
          "velocity": 0.2283464566929134
        },
        {
          "duration": 0.2674418604651123,
          "durationTicks": 23,
          "midi": 77,
          "name": "F5",
          "ticks": 18853,
          "time": 219.22093023255815,
          "velocity": 0.4566929133858268
        },
        {
          "duration": 0.05813953488370771,
          "durationTicks": 5,
          "midi": 91,
          "name": "G6",
          "ticks": 18853,
          "time": 219.22093023255815,
          "velocity": 0.14173228346456693
        },
        {
          "duration": 0.12790697674418539,
          "durationTicks": 11,
          "midi": 96,
          "name": "C7",
          "ticks": 18853,
          "time": 219.22093023255815,
          "velocity": 0.2440944881889764
        },
        {
          "duration": 0.1046511627907023,
          "durationTicks": 9,
          "midi": 60,
          "name": "C4",
          "ticks": 18854,
          "time": 219.2325581395349,
          "velocity": 0.29133858267716534
        },
        {
          "duration": 0.1046511627907023,
          "durationTicks": 9,
          "midi": 64,
          "name": "E4",
          "ticks": 18854,
          "time": 219.2325581395349,
          "velocity": 0.2440944881889764
        },
        {
          "duration": 0.034883720930224626,
          "durationTicks": 3,
          "midi": 70,
          "name": "A#4",
          "ticks": 18854,
          "time": 219.2325581395349,
          "velocity": 0.14960629921259844
        },
        {
          "duration": 1.0581395348837077,
          "durationTicks": 91,
          "midi": 74,
          "name": "D5",
          "ticks": 18854,
          "time": 219.2325581395349,
          "velocity": 0.44881889763779526
        },
        {
          "duration": 0.04651162790696617,
          "durationTicks": 4,
          "midi": 37,
          "name": "C#2",
          "ticks": 18855,
          "time": 219.24418604651163,
          "velocity": 0.4645669291338583
        },
        {
          "duration": 0.04651162790696617,
          "durationTicks": 4,
          "midi": 48,
          "name": "C3",
          "ticks": 18855,
          "time": 219.24418604651163,
          "velocity": 0.47244094488188976
        },
        {
          "duration": 0.09302325581396076,
          "durationTicks": 8,
          "midi": 55,
          "name": "G3",
          "ticks": 18855,
          "time": 219.24418604651163,
          "velocity": 0.3228346456692913
        },
        {
          "duration": 0.04651162790699459,
          "durationTicks": 4,
          "midi": 36,
          "name": "C2",
          "ticks": 18859,
          "time": 219.2906976744186,
          "velocity": 0.41732283464566927
        },
        {
          "duration": 0.12790697674418539,
          "durationTicks": 11,
          "midi": 85,
          "name": "C#6",
          "ticks": 18861,
          "time": 219.3139534883721,
          "velocity": 0.31496062992125984
        },
        {
          "duration": 0.25581395348837077,
          "durationTicks": 22,
          "midi": 86,
          "name": "D6",
          "ticks": 18861,
          "time": 219.3139534883721,
          "velocity": 0.5354330708661418
        },
        {
          "duration": 0.3720930232558146,
          "durationTicks": 32,
          "midi": 69,
          "name": "A4",
          "ticks": 18862,
          "time": 219.32558139534885,
          "velocity": 0.2047244094488189
        },
        {
          "duration": 0.034883720930224626,
          "durationTicks": 3,
          "midi": 82,
          "name": "A#5",
          "ticks": 18862,
          "time": 219.32558139534885,
          "velocity": 0.2204724409448819
        },
        {
          "duration": 0.034883720930224626,
          "durationTicks": 3,
          "midi": 91,
          "name": "G6",
          "ticks": 18862,
          "time": 219.32558139534885,
          "velocity": 0.13385826771653545
        },
        {
          "duration": 0.16279069767441,
          "durationTicks": 14,
          "midi": 93,
          "name": "A6",
          "ticks": 18862,
          "time": 219.32558139534885,
          "velocity": 0.28346456692913385
        },
        {
          "duration": 0.15116279069766847,
          "durationTicks": 13,
          "midi": 102,
          "name": "F#7",
          "ticks": 18862,
          "time": 219.32558139534885,
          "velocity": 0.2755905511811024
        },
        {
          "duration": 0.4302325581395223,
          "durationTicks": 37,
          "midi": 57,
          "name": "A3",
          "ticks": 18864,
          "time": 219.34883720930233,
          "velocity": 0.3228346456692913
        },
        {
          "duration": 0.9069767441860392,
          "durationTicks": 78,
          "midi": 62,
          "name": "D4",
          "ticks": 18864,
          "time": 219.34883720930233,
          "velocity": 0.30708661417322836
        },
        {
          "duration": 0.4186046511627808,
          "durationTicks": 36,
          "midi": 50,
          "name": "D3",
          "ticks": 18865,
          "time": 219.36046511627907,
          "velocity": 0.4251968503937008
        },
        {
          "duration": 0.8953488372092977,
          "durationTicks": 77,
          "midi": 66,
          "name": "F#4",
          "ticks": 18865,
          "time": 219.36046511627907,
          "velocity": 0.2677165354330709
        },
        {
          "duration": 0.023255813953483084,
          "durationTicks": 2,
          "midi": 39,
          "name": "D#2",
          "ticks": 18866,
          "time": 219.37209302325581,
          "velocity": 0.4566929133858268
        },
        {
          "duration": 0.06976744186047767,
          "durationTicks": 6,
          "midi": 80,
          "name": "G#5",
          "ticks": 18867,
          "time": 219.38372093023256,
          "velocity": 0.07086614173228346
        },
        {
          "duration": 0.05813953488373613,
          "durationTicks": 5,
          "midi": 38,
          "name": "D2",
          "ticks": 18868,
          "time": 219.3953488372093,
          "velocity": 0.47244094488188976
        },
        {
          "duration": 0.25581395348837077,
          "durationTicks": 22,
          "midi": 72,
          "name": "C5",
          "ticks": 18869,
          "time": 219.40697674418604,
          "velocity": 0.09448818897637795
        },
        {
          "duration": 0.023255813953483084,
          "durationTicks": 2,
          "midi": 38,
          "name": "D2",
          "ticks": 18874,
          "time": 219.46511627906978,
          "velocity": 0.25984251968503935
        },
        {
          "duration": 0.023255813953483084,
          "durationTicks": 2,
          "midi": 37,
          "name": "C#2",
          "ticks": 18876,
          "time": 219.48837209302326,
          "velocity": 0.29133858267716534
        },
        {
          "duration": 0.2674418604651123,
          "durationTicks": 23,
          "midi": 38,
          "name": "D2",
          "ticks": 18878,
          "time": 219.51162790697674,
          "velocity": 0.2992125984251969
        },
        {
          "duration": 0.4767441860465169,
          "durationTicks": 41,
          "midi": 69,
          "name": "A4",
          "ticks": 18901,
          "time": 219.77906976744185,
          "velocity": 0.2204724409448819
        },
        {
          "duration": 0.2093023255814046,
          "durationTicks": 18,
          "midi": 72,
          "name": "C5",
          "ticks": 18902,
          "time": 219.7906976744186,
          "velocity": 0.08661417322834646
        },
        {
          "duration": 0.04651162790699459,
          "durationTicks": 4,
          "midi": 82,
          "name": "A#5",
          "ticks": 18902,
          "time": 219.7906976744186,
          "velocity": 0.07086614173228346
        },
        {
          "duration": 0.04651162790699459,
          "durationTicks": 4,
          "midi": 91,
          "name": "G6",
          "ticks": 18902,
          "time": 219.7906976744186,
          "velocity": 0.07086614173228346
        },
        {
          "duration": 0.11627906976744384,
          "durationTicks": 10,
          "midi": 93,
          "name": "A6",
          "ticks": 18902,
          "time": 219.7906976744186,
          "velocity": 0.14960629921259844
        },
        {
          "duration": 0.4418604651162923,
          "durationTicks": 38,
          "midi": 50,
          "name": "D3",
          "ticks": 18903,
          "time": 219.80232558139534,
          "velocity": 0.49606299212598426
        },
        {
          "duration": 0.4418604651162923,
          "durationTicks": 38,
          "midi": 57,
          "name": "A3",
          "ticks": 18903,
          "time": 219.80232558139534,
          "velocity": 0.3779527559055118
        },
        {
          "duration": 0.023255813953483084,
          "durationTicks": 2,
          "midi": 39,
          "name": "D#2",
          "ticks": 18904,
          "time": 219.8139534883721,
          "velocity": 0.4409448818897638
        },
        {
          "duration": 0.1046511627907023,
          "durationTicks": 9,
          "midi": 38,
          "name": "D2",
          "ticks": 18906,
          "time": 219.8372093023256,
          "velocity": 0.4330708661417323
        },
        {
          "duration": 0.05813953488370771,
          "durationTicks": 5,
          "midi": 38,
          "name": "D2",
          "ticks": 18916,
          "time": 219.95348837209303,
          "velocity": 0.28346456692913385
        },
        {
          "duration": 0.19767441860466306,
          "durationTicks": 17,
          "midi": 80,
          "name": "G#5",
          "ticks": 18921,
          "time": 220.01162790697674,
          "velocity": 0.14960629921259844
        },
        {
          "duration": 0.023255813953483084,
          "durationTicks": 2,
          "midi": 40,
          "name": "E2",
          "ticks": 18922,
          "time": 220.02325581395348,
          "velocity": 0.44881889763779526
        },
        {
          "duration": 0.08139534883721922,
          "durationTicks": 7,
          "midi": 90,
          "name": "F#6",
          "ticks": 18922,
          "time": 220.02325581395348,
          "velocity": 0.09448818897637795
        },
        {
          "duration": 0.11627906976744384,
          "durationTicks": 10,
          "midi": 93,
          "name": "A6",
          "ticks": 18922,
          "time": 220.02325581395348,
          "velocity": 0.13385826771653545
        },
        {
          "duration": 0.2093023255814046,
          "durationTicks": 18,
          "midi": 72,
          "name": "C5",
          "ticks": 18923,
          "time": 220.03488372093022,
          "velocity": 0.13385826771653545
        },
        {
          "duration": 0.023255813953511506,
          "durationTicks": 2,
          "midi": 39,
          "name": "D#2",
          "ticks": 18924,
          "time": 220.04651162790697,
          "velocity": 0.4645669291338583
        },
        {
          "duration": 0.10465116279067388,
          "durationTicks": 9,
          "midi": 38,
          "name": "D2",
          "ticks": 18926,
          "time": 220.06976744186048,
          "velocity": 0.44881889763779526
        },
        {
          "duration": 0.05813953488373613,
          "durationTicks": 5,
          "midi": 38,
          "name": "D2",
          "ticks": 18936,
          "time": 220.1860465116279,
          "velocity": 0.2992125984251969
        },
        {
          "duration": 0.9186046511627808,
          "durationTicks": 79,
          "midi": 76,
          "name": "E5",
          "ticks": 18940,
          "time": 220.2325581395349,
          "velocity": 0.47244094488188976
        },
        {
          "duration": 0.11627906976744384,
          "durationTicks": 10,
          "midi": 87,
          "name": "D#6",
          "ticks": 18940,
          "time": 220.2325581395349,
          "velocity": 0.28346456692913385
        },
        {
          "duration": 0.2325581395348877,
          "durationTicks": 20,
          "midi": 88,
          "name": "E6",
          "ticks": 18940,
          "time": 220.2325581395349,
          "velocity": 0.5275590551181102
        },
        {
          "duration": 0.023255813953483084,
          "durationTicks": 2,
          "midi": 51,
          "name": "D#3",
          "ticks": 18941,
          "time": 220.24418604651163,
          "velocity": 0.4330708661417323
        },
        {
          "duration": 0.04651162790696617,
          "durationTicks": 4,
          "midi": 93,
          "name": "A6",
          "ticks": 18941,
          "time": 220.24418604651163,
          "velocity": 0.14960629921259844
        },
        {
          "duration": 0.15116279069766847,
          "durationTicks": 13,
          "midi": 95,
          "name": "B6",
          "ticks": 18941,
          "time": 220.24418604651163,
          "velocity": 0.28346456692913385
        },
        {
          "duration": 0.023255813953483084,
          "durationTicks": 2,
          "midi": 40,
          "name": "E2",
          "ticks": 18942,
          "time": 220.25581395348837,
          "velocity": 0.44881889763779526
        },
        {
          "duration": 0.034883720930224626,
          "durationTicks": 3,
          "midi": 59,
          "name": "B3",
          "ticks": 18942,
          "time": 220.25581395348837,
          "velocity": 0.3543307086614173
        },
        {
          "duration": 0.6744186046511516,
          "durationTicks": 58,
          "midi": 68,
          "name": "G#4",
          "ticks": 18942,
          "time": 220.25581395348837,
          "velocity": 0.2204724409448819
        },
        {
          "duration": 0.04651162790696617,
          "durationTicks": 4,
          "midi": 84,
          "name": "C6",
          "ticks": 18942,
          "time": 220.25581395348837,
          "velocity": 0.2204724409448819
        },
        {
          "duration": 0.04651162790699459,
          "durationTicks": 4,
          "midi": 41,
          "name": "F2",
          "ticks": 18944,
          "time": 220.27906976744185,
          "velocity": 0.4566929133858268
        },
        {
          "duration": 0.12790697674418539,
          "durationTicks": 11,
          "midi": 82,
          "name": "A#5",
          "ticks": 18944,
          "time": 220.27906976744185,
          "velocity": 0.10236220472440945
        },
        {
          "duration": 0.3953488372093261,
          "durationTicks": 34,
          "midi": 52,
          "name": "E3",
          "ticks": 18946,
          "time": 220.30232558139534,
          "velocity": 0.41732283464566927
        },
        {
          "duration": 0.3953488372093261,
          "durationTicks": 34,
          "midi": 59,
          "name": "B3",
          "ticks": 18946,
          "time": 220.30232558139534,
          "velocity": 0.30708661417322836
        },
        {
          "duration": 0.23255813953485927,
          "durationTicks": 20,
          "midi": 74,
          "name": "D5",
          "ticks": 18947,
          "time": 220.3139534883721,
          "velocity": 0.12598425196850394
        },
        {
          "duration": 0.06976744186044925,
          "durationTicks": 6,
          "midi": 40,
          "name": "E2",
          "ticks": 18948,
          "time": 220.32558139534885,
          "velocity": 0.41732283464566927
        },
        {
          "duration": 0.2906976744186238,
          "durationTicks": 25,
          "midi": 40,
          "name": "E2",
          "ticks": 18955,
          "time": 220.40697674418604,
          "velocity": 0.30708661417322836
        },
        {
          "duration": 0.46511627906974695,
          "durationTicks": 40,
          "midi": 59,
          "name": "B3",
          "ticks": 18981,
          "time": 220.7093023255814,
          "velocity": 0.33858267716535434
        },
        {
          "duration": 0.44186046511626387,
          "durationTicks": 38,
          "midi": 74,
          "name": "D5",
          "ticks": 18981,
          "time": 220.7093023255814,
          "velocity": 0.1968503937007874
        },
        {
          "duration": 0.13953488372092693,
          "durationTicks": 12,
          "midi": 78,
          "name": "F#5",
          "ticks": 18981,
          "time": 220.7093023255814,
          "velocity": 0.08661417322834646
        },
        {
          "duration": 0.05813953488370771,
          "durationTicks": 5,
          "midi": 92,
          "name": "G#6",
          "ticks": 18981,
          "time": 220.7093023255814,
          "velocity": 0.10236220472440945
        },
        {
          "duration": 0.1046511627907023,
          "durationTicks": 9,
          "midi": 95,
          "name": "B6",
          "ticks": 18981,
          "time": 220.7093023255814,
          "velocity": 0.15748031496062992
        },
        {
          "duration": 0.034883720930224626,
          "durationTicks": 3,
          "midi": 41,
          "name": "F2",
          "ticks": 18982,
          "time": 220.72093023255815,
          "velocity": 0.4566929133858268
        },
        {
          "duration": 0.22093023255814614,
          "durationTicks": 19,
          "midi": 52,
          "name": "E3",
          "ticks": 18982,
          "time": 220.72093023255815,
          "velocity": 0.41732283464566927
        },
        {
          "duration": 0.09302325581396076,
          "durationTicks": 8,
          "midi": 87,
          "name": "D#6",
          "ticks": 18982,
          "time": 220.72093023255815,
          "velocity": 0.07874015748031496
        },
        {
          "duration": 0.11627906976744384,
          "durationTicks": 10,
          "midi": 82,
          "name": "A#5",
          "ticks": 18984,
          "time": 220.74418604651163,
          "velocity": 0.07086614173228346
        },
        {
          "duration": 0.08139534883721922,
          "durationTicks": 7,
          "midi": 40,
          "name": "E2",
          "ticks": 18985,
          "time": 220.75581395348837,
          "velocity": 0.4566929133858268
        },
        {
          "duration": 0.023255813953483084,
          "durationTicks": 2,
          "midi": 39,
          "name": "D#2",
          "ticks": 18992,
          "time": 220.8372093023256,
          "velocity": 0.2755905511811024
        },
        {
          "duration": 0.06976744186044925,
          "durationTicks": 6,
          "midi": 40,
          "name": "E2",
          "ticks": 18994,
          "time": 220.86046511627907,
          "velocity": 0.30708661417322836
        },
        {
          "duration": 0.18604651162792152,
          "durationTicks": 16,
          "midi": 82,
          "name": "A#5",
          "ticks": 19000,
          "time": 220.93023255813952,
          "velocity": 0.16535433070866143
        },
        {
          "duration": 0.13953488372092693,
          "durationTicks": 12,
          "midi": 84,
          "name": "C6",
          "ticks": 19001,
          "time": 220.9418604651163,
          "velocity": 0.11811023622047244
        },
        {
          "duration": 0.034883720930224626,
          "durationTicks": 3,
          "midi": 41,
          "name": "F2",
          "ticks": 19002,
          "time": 220.95348837209303,
          "velocity": 0.47244094488188976
        },
        {
          "duration": 0.24418604651162923,
          "durationTicks": 21,
          "midi": 52,
          "name": "E3",
          "ticks": 19002,
          "time": 220.95348837209303,
          "velocity": 0.4881889763779528
        },
        {
          "duration": 0.09302325581393234,
          "durationTicks": 8,
          "midi": 87,
          "name": "D#6",
          "ticks": 19002,
          "time": 220.95348837209303,
          "velocity": 0.07874015748031496
        },
        {
          "duration": 0.19767441860463464,
          "durationTicks": 17,
          "midi": 68,
          "name": "G#4",
          "ticks": 19003,
          "time": 220.96511627906978,
          "velocity": 0.16535433070866143
        },
        {
          "duration": 0.08139534883721922,
          "durationTicks": 7,
          "midi": 40,
          "name": "E2",
          "ticks": 19005,
          "time": 220.98837209302326,
          "velocity": 0.4645669291338583
        },
        {
          "duration": 0.023255813953483084,
          "durationTicks": 2,
          "midi": 39,
          "name": "D#2",
          "ticks": 19012,
          "time": 221.06976744186048,
          "velocity": 0.29133858267716534
        },
        {
          "duration": 0.05813953488370771,
          "durationTicks": 5,
          "midi": 40,
          "name": "E2",
          "ticks": 19014,
          "time": 221.09302325581396,
          "velocity": 0.31496062992125984
        },
        {
          "duration": 0.22093023255814614,
          "durationTicks": 19,
          "midi": 89,
          "name": "F6",
          "ticks": 19018,
          "time": 221.13953488372093,
          "velocity": 0.5196850393700787
        },
        {
          "duration": 0.9418604651162923,
          "durationTicks": 81,
          "midi": 77,
          "name": "F5",
          "ticks": 19019,
          "time": 221.15116279069767,
          "velocity": 0.44881889763779526
        },
        {
          "duration": 0.08139534883721922,
          "durationTicks": 7,
          "midi": 88,
          "name": "E6",
          "ticks": 19019,
          "time": 221.15116279069767,
          "velocity": 0.2204724409448819
        },
        {
          "duration": 0.03488372093025305,
          "durationTicks": 3,
          "midi": 82,
          "name": "A#5",
          "ticks": 19020,
          "time": 221.1627906976744,
          "velocity": 0.11811023622047244
        },
        {
          "duration": 0.03488372093025305,
          "durationTicks": 3,
          "midi": 85,
          "name": "C#6",
          "ticks": 19020,
          "time": 221.1627906976744,
          "velocity": 0.15748031496062992
        },
        {
          "duration": 0.06976744186047767,
          "durationTicks": 6,
          "midi": 87,
          "name": "D#6",
          "ticks": 19020,
          "time": 221.1627906976744,
          "velocity": 0.13385826771653545
        },
        {
          "duration": 0.06976744186047767,
          "durationTicks": 6,
          "midi": 93,
          "name": "A6",
          "ticks": 19020,
          "time": 221.1627906976744,
          "velocity": 0.08661417322834646
        },
        {
          "duration": 0.16279069767443843,
          "durationTicks": 14,
          "midi": 96,
          "name": "C7",
          "ticks": 19020,
          "time": 221.1627906976744,
          "velocity": 0.2204724409448819
        },
        {
          "duration": 0.4418604651162923,
          "durationTicks": 38,
          "midi": 60,
          "name": "C4",
          "ticks": 19021,
          "time": 221.17441860465115,
          "velocity": 0.3700787401574803
        },
        {
          "duration": 0.9767441860465169,
          "durationTicks": 84,
          "midi": 65,
          "name": "F4",
          "ticks": 19021,
          "time": 221.17441860465115,
          "velocity": 0.3228346456692913
        },
        {
          "duration": 0.13953488372095535,
          "durationTicks": 12,
          "midi": 79,
          "name": "G5",
          "ticks": 19021,
          "time": 221.17441860465115,
          "velocity": 0.11023622047244094
        },
        {
          "duration": 0.03488372093025305,
          "durationTicks": 3,
          "midi": 42,
          "name": "F#2",
          "ticks": 19022,
          "time": 221.1860465116279,
          "velocity": 0.5039370078740157
        },
        {
          "duration": 0.4186046511627808,
          "durationTicks": 36,
          "midi": 53,
          "name": "F3",
          "ticks": 19023,
          "time": 221.19767441860466,
          "velocity": 0.4409448818897638
        },
        {
          "duration": 0.4186046511627808,
          "durationTicks": 36,
          "midi": 69,
          "name": "A4",
          "ticks": 19023,
          "time": 221.19767441860466,
          "velocity": 0.2283464566929134
        },
        {
          "duration": 0.12790697674418539,
          "durationTicks": 11,
          "midi": 83,
          "name": "B5",
          "ticks": 19023,
          "time": 221.19767441860466,
          "velocity": 0.11023622047244094
        },
        {
          "duration": 0.24418604651162923,
          "durationTicks": 21,
          "midi": 75,
          "name": "D#5",
          "ticks": 19024,
          "time": 221.2093023255814,
          "velocity": 0.10236220472440945
        },
        {
          "duration": 0.04651162790696617,
          "durationTicks": 4,
          "midi": 41,
          "name": "F2",
          "ticks": 19025,
          "time": 221.22093023255815,
          "velocity": 0.4645669291338583
        },
        {
          "duration": 0.023255813953483084,
          "durationTicks": 2,
          "midi": 41,
          "name": "F2",
          "ticks": 19030,
          "time": 221.27906976744185,
          "velocity": 0.2677165354330709
        },
        {
          "duration": 0.30232558139533694,
          "durationTicks": 26,
          "midi": 41,
          "name": "F2",
          "ticks": 19033,
          "time": 221.3139534883721,
          "velocity": 0.3228346456692913
        },
        {
          "duration": 0.24418604651162923,
          "durationTicks": 21,
          "midi": 72,
          "name": "C5",
          "ticks": 19059,
          "time": 221.61627906976744,
          "velocity": 0.2204724409448819
        },
        {
          "duration": 0.17441860465115155,
          "durationTicks": 15,
          "midi": 83,
          "name": "B5",
          "ticks": 19059,
          "time": 221.61627906976744,
          "velocity": 0.13385826771653545
        },
        {
          "duration": 0.2325581395348877,
          "durationTicks": 20,
          "midi": 53,
          "name": "F3",
          "ticks": 19060,
          "time": 221.62790697674419,
          "velocity": 0.4566929133858268
        },
        {
          "duration": 0.2325581395348877,
          "durationTicks": 20,
          "midi": 60,
          "name": "C4",
          "ticks": 19060,
          "time": 221.62790697674419,
          "velocity": 0.30708661417322836
        },
        {
          "duration": 0.45348837209303383,
          "durationTicks": 39,
          "midi": 69,
          "name": "A4",
          "ticks": 19060,
          "time": 221.62790697674419,
          "velocity": 0.2204724409448819
        },
        {
          "duration": 0.15116279069766847,
          "durationTicks": 13,
          "midi": 79,
          "name": "G5",
          "ticks": 19060,
          "time": 221.62790697674419,
          "velocity": 0.08661417322834646
        },
        {
          "duration": 0.08139534883721922,
          "durationTicks": 7,
          "midi": 87,
          "name": "D#6",
          "ticks": 19060,
          "time": 221.62790697674419,
          "velocity": 0.14173228346456693
        },
        {
          "duration": 0.06976744186047767,
          "durationTicks": 6,
          "midi": 93,
          "name": "A6",
          "ticks": 19060,
          "time": 221.62790697674419,
          "velocity": 0.09448818897637795
        },
        {
          "duration": 0.023255813953483084,
          "durationTicks": 2,
          "midi": 42,
          "name": "F#2",
          "ticks": 19062,
          "time": 221.65116279069767,
          "velocity": 0.41732283464566927
        },
        {
          "duration": 0.04651162790699459,
          "durationTicks": 4,
          "midi": 96,
          "name": "C7",
          "ticks": 19062,
          "time": 221.65116279069767,
          "velocity": 0.10236220472440945
        },
        {
          "duration": 0.08139534883721922,
          "durationTicks": 7,
          "midi": 41,
          "name": "F2",
          "ticks": 19064,
          "time": 221.67441860465115,
          "velocity": 0.4251968503937008
        },
        {
          "duration": 0.09302325581396076,
          "durationTicks": 8,
          "midi": 41,
          "name": "F2",
          "ticks": 19072,
          "time": 221.7674418604651,
          "velocity": 0.2992125984251969
        },
        {
          "duration": 0.2093023255814046,
          "durationTicks": 18,
          "midi": 75,
          "name": "D#5",
          "ticks": 19080,
          "time": 221.86046511627907,
          "velocity": 0.1732283464566929
        },
        {
          "duration": 0.034883720930224626,
          "durationTicks": 3,
          "midi": 84,
          "name": "C6",
          "ticks": 19080,
          "time": 221.86046511627907,
          "velocity": 0.08661417322834646
        },
        {
          "duration": 0.04651162790696617,
          "durationTicks": 4,
          "midi": 85,
          "name": "C#6",
          "ticks": 19080,
          "time": 221.86046511627907,
          "velocity": 0.11811023622047244
        },
        {
          "duration": 0.2325581395348877,
          "durationTicks": 20,
          "midi": 60,
          "name": "C4",
          "ticks": 19081,
          "time": 221.87209302325581,
          "velocity": 0.3228346456692913
        },
        {
          "duration": 0.15116279069766847,
          "durationTicks": 13,
          "midi": 83,
          "name": "B5",
          "ticks": 19081,
          "time": 221.87209302325581,
          "velocity": 0.11023622047244094
        },
        {
          "duration": 0.06976744186047767,
          "durationTicks": 6,
          "midi": 93,
          "name": "A6",
          "ticks": 19081,
          "time": 221.87209302325581,
          "velocity": 0.08661417322834646
        },
        {
          "duration": 0.034883720930224626,
          "durationTicks": 3,
          "midi": 42,
          "name": "F#2",
          "ticks": 19082,
          "time": 221.88372093023256,
          "velocity": 0.44881889763779526
        },
        {
          "duration": 0.18604651162792152,
          "durationTicks": 16,
          "midi": 53,
          "name": "F3",
          "ticks": 19083,
          "time": 221.8953488372093,
          "velocity": 0.3858267716535433
        },
        {
          "duration": 0.06976744186047767,
          "durationTicks": 6,
          "midi": 96,
          "name": "C7",
          "ticks": 19083,
          "time": 221.8953488372093,
          "velocity": 0.11811023622047244
        },
        {
          "duration": 0.08139534883721922,
          "durationTicks": 7,
          "midi": 41,
          "name": "F2",
          "ticks": 19085,
          "time": 221.91860465116278,
          "velocity": 0.44881889763779526
        },
        {
          "duration": 0.08139534883721922,
          "durationTicks": 7,
          "midi": 85,
          "name": "C#6",
          "ticks": 19085,
          "time": 221.91860465116278,
          "velocity": 0.07874015748031496
        },
        {
          "duration": 0.06976744186047767,
          "durationTicks": 6,
          "midi": 41,
          "name": "F2",
          "ticks": 19093,
          "time": 222.01162790697674,
          "velocity": 0.3858267716535433
        },
        {
          "duration": 0.6976744186046631,
          "durationTicks": 60,
          "midi": 79,
          "name": "G5",
          "ticks": 19097,
          "time": 222.0581395348837,
          "velocity": 0.4566929133858268
        },
        {
          "duration": 0.5116279069767415,
          "durationTicks": 44,
          "midi": 74,
          "name": "D5",
          "ticks": 19098,
          "time": 222.06976744186048,
          "velocity": 0.2992125984251969
        },
        {
          "duration": 0.034883720930224626,
          "durationTicks": 3,
          "midi": 84,
          "name": "C6",
          "ticks": 19098,
          "time": 222.06976744186048,
          "velocity": 0.23622047244094488
        },
        {
          "duration": 0.13953488372092693,
          "durationTicks": 12,
          "midi": 90,
          "name": "F#6",
          "ticks": 19098,
          "time": 222.06976744186048,
          "velocity": 0.14173228346456693
        },
        {
          "duration": 0.11627906976741542,
          "durationTicks": 10,
          "midi": 98,
          "name": "D7",
          "ticks": 19098,
          "time": 222.06976744186048,
          "velocity": 0.2677165354330709
        },
        {
          "duration": 0.19767441860463464,
          "durationTicks": 17,
          "midi": 81,
          "name": "A5",
          "ticks": 19099,
          "time": 222.08139534883722,
          "velocity": 0.2283464566929134
        },
        {
          "duration": 0.24418604651162923,
          "durationTicks": 21,
          "midi": 83,
          "name": "B5",
          "ticks": 19099,
          "time": 222.08139534883722,
          "velocity": 0.2047244094488189
        },
        {
          "duration": 0.023255813953483084,
          "durationTicks": 2,
          "midi": 62,
          "name": "D4",
          "ticks": 19100,
          "time": 222.09302325581396,
          "velocity": 0.25984251968503935
        },
        {
          "duration": 0.4767441860465169,
          "durationTicks": 41,
          "midi": 67,
          "name": "G4",
          "ticks": 19100,
          "time": 222.09302325581396,
          "velocity": 0.2047244094488189
        },
        {
          "duration": 0.20930232558137618,
          "durationTicks": 18,
          "midi": 71,
          "name": "B4",
          "ticks": 19100,
          "time": 222.09302325581396,
          "velocity": 0.11811023622047244
        },
        {
          "duration": 0.034883720930224626,
          "durationTicks": 3,
          "midi": 43,
          "name": "G2",
          "ticks": 19101,
          "time": 222.1046511627907,
          "velocity": 0.41732283464566927
        },
        {
          "duration": 0.44186046511626387,
          "durationTicks": 38,
          "midi": 85,
          "name": "C#6",
          "ticks": 19101,
          "time": 222.1046511627907,
          "velocity": 0.1968503937007874
        },
        {
          "duration": 0.48837209302325846,
          "durationTicks": 42,
          "midi": 55,
          "name": "G3",
          "ticks": 19102,
          "time": 222.11627906976744,
          "velocity": 0.4409448818897638
        },
        {
          "duration": 0.45348837209303383,
          "durationTicks": 39,
          "midi": 62,
          "name": "D4",
          "ticks": 19103,
          "time": 222.12790697674419,
          "velocity": 0.2204724409448819
        },
        {
          "duration": 0.5232558139534831,
          "durationTicks": 45,
          "midi": 43,
          "name": "G2",
          "ticks": 19105,
          "time": 222.15116279069767,
          "velocity": 0.3858267716535433
        },
        {
          "duration": 1.16279069767441,
          "durationTicks": 100,
          "midi": 57,
          "name": "A3",
          "ticks": 19178,
          "time": 223,
          "velocity": 0.41732283464566927
        },
        {
          "duration": 0.5697674418604777,
          "durationTicks": 49,
          "midi": 69,
          "name": "A4",
          "ticks": 19178,
          "time": 223,
          "velocity": 0.4409448818897638
        },
        {
          "duration": 0.2093023255814046,
          "durationTicks": 18,
          "midi": 85,
          "name": "C#6",
          "ticks": 19179,
          "time": 223.01162790697674,
          "velocity": 0.1889763779527559
        },
        {
          "duration": 0.18604651162792152,
          "durationTicks": 16,
          "midi": 95,
          "name": "B6",
          "ticks": 19179,
          "time": 223.01162790697674,
          "velocity": 0.12598425196850394
        },
        {
          "duration": 0.09302325581396076,
          "durationTicks": 8,
          "midi": 91,
          "name": "G6",
          "ticks": 19180,
          "time": 223.02325581395348,
          "velocity": 0.11023622047244094
        },
        {
          "duration": 0.03488372093025305,
          "durationTicks": 3,
          "midi": 40,
          "name": "E2",
          "ticks": 19183,
          "time": 223.0581395348837,
          "velocity": 0.12598425196850394
        },
        {
          "duration": 0.3488372093023031,
          "durationTicks": 30,
          "midi": 57,
          "name": "A3",
          "ticks": 19335,
          "time": 224.82558139534885,
          "velocity": 0.41732283464566927
        },
        {
          "duration": 0.30232558139533694,
          "durationTicks": 26,
          "midi": 69,
          "name": "A4",
          "ticks": 19335,
          "time": 224.82558139534885,
          "velocity": 0.4409448818897638
        },
        {
          "duration": 0.20930232558137618,
          "durationTicks": 18,
          "midi": 85,
          "name": "C#6",
          "ticks": 19336,
          "time": 224.8372093023256,
          "velocity": 0.1889763779527559
        },
        {
          "duration": 0.1860465116278931,
          "durationTicks": 16,
          "midi": 95,
          "name": "B6",
          "ticks": 19336,
          "time": 224.8372093023256,
          "velocity": 0.12598425196850394
        },
        {
          "duration": 0.09302325581396076,
          "durationTicks": 8,
          "midi": 91,
          "name": "G6",
          "ticks": 19337,
          "time": 224.84883720930233,
          "velocity": 0.11023622047244094
        },
        {
          "duration": 0.034883720930224626,
          "durationTicks": 3,
          "midi": 40,
          "name": "E2",
          "ticks": 19340,
          "time": 224.88372093023256,
          "velocity": 0.13385826771653545
        },
        {
          "duration": 0.2790697674418823,
          "durationTicks": 24,
          "midi": 81,
          "name": "A5",
          "ticks": 19365,
          "time": 225.17441860465115,
          "velocity": 0.25196850393700787
        },
        {
          "duration": 0.33720930232559,
          "durationTicks": 29,
          "midi": 57,
          "name": "A3",
          "ticks": 19366,
          "time": 225.1860465116279,
          "velocity": 0.4094488188976378
        },
        {
          "duration": 0.2906976744186238,
          "durationTicks": 25,
          "midi": 69,
          "name": "A4",
          "ticks": 19366,
          "time": 225.1860465116279,
          "velocity": 0.4409448818897638
        },
        {
          "duration": 0.2093023255814046,
          "durationTicks": 18,
          "midi": 85,
          "name": "C#6",
          "ticks": 19366,
          "time": 225.1860465116279,
          "velocity": 0.1968503937007874
        },
        {
          "duration": 0.17441860465117998,
          "durationTicks": 15,
          "midi": 95,
          "name": "B6",
          "ticks": 19366,
          "time": 225.1860465116279,
          "velocity": 0.11811023622047244
        },
        {
          "duration": 0.09302325581393234,
          "durationTicks": 8,
          "midi": 91,
          "name": "G6",
          "ticks": 19367,
          "time": 225.19767441860466,
          "velocity": 0.11811023622047244
        },
        {
          "duration": 0.7906976744186238,
          "durationTicks": 68,
          "midi": 81,
          "name": "A5",
          "ticks": 19395,
          "time": 225.52325581395348,
          "velocity": 0.28346456692913385
        },
        {
          "duration": 0.12790697674418539,
          "durationTicks": 11,
          "midi": 57,
          "name": "A3",
          "ticks": 19396,
          "time": 225.53488372093022,
          "velocity": 0.4094488188976378
        },
        {
          "duration": 0.12790697674418539,
          "durationTicks": 11,
          "midi": 69,
          "name": "A4",
          "ticks": 19396,
          "time": 225.53488372093022,
          "velocity": 0.4409448818897638
        },
        {
          "duration": 0.11627906976744384,
          "durationTicks": 10,
          "midi": 85,
          "name": "C#6",
          "ticks": 19396,
          "time": 225.53488372093022,
          "velocity": 0.1968503937007874
        },
        {
          "duration": 0.1046511627907023,
          "durationTicks": 9,
          "midi": 95,
          "name": "B6",
          "ticks": 19396,
          "time": 225.53488372093022,
          "velocity": 0.11811023622047244
        },
        {
          "duration": 0.08139534883721922,
          "durationTicks": 7,
          "midi": 91,
          "name": "G6",
          "ticks": 19397,
          "time": 225.54651162790697,
          "velocity": 0.11811023622047244
        },
        {
          "duration": 0.023255813953483084,
          "durationTicks": 2,
          "midi": 70,
          "name": "A#4",
          "ticks": 19407,
          "time": 225.6627906976744,
          "velocity": 0.3779527559055118
        },
        {
          "duration": 0.1046511627907023,
          "durationTicks": 9,
          "midi": 57,
          "name": "A3",
          "ticks": 19408,
          "time": 225.67441860465115,
          "velocity": 0.4015748031496063
        },
        {
          "duration": 0.03488372093025305,
          "durationTicks": 3,
          "midi": 76,
          "name": "E5",
          "ticks": 19408,
          "time": 225.67441860465115,
          "velocity": 0.08661417322834646
        },
        {
          "duration": 0.6279069767441854,
          "durationTicks": 54,
          "midi": 85,
          "name": "C#6",
          "ticks": 19408,
          "time": 225.67441860465115,
          "velocity": 0.29133858267716534
        },
        {
          "duration": 0.6046511627907023,
          "durationTicks": 52,
          "midi": 95,
          "name": "B6",
          "ticks": 19408,
          "time": 225.67441860465115,
          "velocity": 0.2125984251968504
        },
        {
          "duration": 0.40697674418606766,
          "durationTicks": 35,
          "midi": 69,
          "name": "A4",
          "ticks": 19409,
          "time": 225.6860465116279,
          "velocity": 0.4566929133858268
        },
        {
          "duration": 0.05813953488370771,
          "durationTicks": 5,
          "midi": 91,
          "name": "G6",
          "ticks": 19410,
          "time": 225.69767441860466,
          "velocity": 0.09448818897637795
        },
        {
          "duration": 0.034883720930224626,
          "durationTicks": 3,
          "midi": 40,
          "name": "E2",
          "ticks": 19412,
          "time": 225.72093023255815,
          "velocity": 0.12598425196850394
        },
        {
          "duration": 0.023255813953483084,
          "durationTicks": 2,
          "midi": 56,
          "name": "G#3",
          "ticks": 19417,
          "time": 225.77906976744185,
          "velocity": 0.3858267716535433
        },
        {
          "duration": 0.023255813953511506,
          "durationTicks": 2,
          "midi": 57,
          "name": "A3",
          "ticks": 19419,
          "time": 225.80232558139534,
          "velocity": 0.3543307086614173
        },
        {
          "duration": 0.05813953488370771,
          "durationTicks": 5,
          "midi": 91,
          "name": "G6",
          "ticks": 19420,
          "time": 225.8139534883721,
          "velocity": 0.09448818897637795
        },
        {
          "duration": 0.034883720930224626,
          "durationTicks": 3,
          "midi": 40,
          "name": "E2",
          "ticks": 19422,
          "time": 225.8372093023256,
          "velocity": 0.12598425196850394
        },
        {
          "duration": 0.1860465116278931,
          "durationTicks": 16,
          "midi": 57,
          "name": "A3",
          "ticks": 19422,
          "time": 225.8372093023256,
          "velocity": 0.4330708661417323
        },
        {
          "duration": 0.03488372093025305,
          "durationTicks": 3,
          "midi": 76,
          "name": "E5",
          "ticks": 19429,
          "time": 225.91860465116278,
          "velocity": 0.08661417322834646
        },
        {
          "duration": 0.05813953488370771,
          "durationTicks": 5,
          "midi": 91,
          "name": "G6",
          "ticks": 19431,
          "time": 225.9418604651163,
          "velocity": 0.08661417322834646
        },
        {
          "duration": 0.034883720930224626,
          "durationTicks": 3,
          "midi": 40,
          "name": "E2",
          "ticks": 19433,
          "time": 225.96511627906978,
          "velocity": 0.12598425196850394
        },
        {
          "duration": 0.18604651162792152,
          "durationTicks": 16,
          "midi": 88,
          "name": "E6",
          "ticks": 19439,
          "time": 226.03488372093022,
          "velocity": 0.14173228346456693
        },
        {
          "duration": 0.03488372093025305,
          "durationTicks": 3,
          "midi": 57,
          "name": "A3",
          "ticks": 19440,
          "time": 226.04651162790697,
          "velocity": 0.3543307086614173
        },
        {
          "duration": 0.18604651162792152,
          "durationTicks": 16,
          "midi": 91,
          "name": "G6",
          "ticks": 19441,
          "time": 226.0581395348837,
          "velocity": 0.15748031496062992
        },
        {
          "duration": 0.04651162790696617,
          "durationTicks": 4,
          "midi": 41,
          "name": "F2",
          "ticks": 19444,
          "time": 226.09302325581396,
          "velocity": 0.2283464566929134
        },
        {
          "duration": 0.04651162790696617,
          "durationTicks": 4,
          "midi": 57,
          "name": "A3",
          "ticks": 19444,
          "time": 226.09302325581396,
          "velocity": 0.4094488188976378
        },
        {
          "duration": 0.034883720930224626,
          "durationTicks": 3,
          "midi": 76,
          "name": "E5",
          "ticks": 19444,
          "time": 226.09302325581396,
          "velocity": 0.09448818897637795
        },
        {
          "duration": 0.04651162790699459,
          "durationTicks": 4,
          "midi": 41,
          "name": "F2",
          "ticks": 19449,
          "time": 226.15116279069767,
          "velocity": 0.2204724409448819
        },
        {
          "duration": 0.17441860465117998,
          "durationTicks": 15,
          "midi": 57,
          "name": "A3",
          "ticks": 19449,
          "time": 226.15116279069767,
          "velocity": 0.4094488188976378
        },
        {
          "duration": 0.12790697674418539,
          "durationTicks": 11,
          "midi": 69,
          "name": "A4",
          "ticks": 19450,
          "time": 226.1627906976744,
          "velocity": 0.41732283464566927
        },
        {
          "duration": 0.034883720930224626,
          "durationTicks": 3,
          "midi": 40,
          "name": "E2",
          "ticks": 19453,
          "time": 226.19767441860466,
          "velocity": 0.11023622047244094
        },
        {
          "duration": 0.12790697674418539,
          "durationTicks": 11,
          "midi": 69,
          "name": "A4",
          "ticks": 19464,
          "time": 226.32558139534885,
          "velocity": 0.4409448818897638
        },
        {
          "duration": 0.1046511627907023,
          "durationTicks": 9,
          "midi": 57,
          "name": "A3",
          "ticks": 19465,
          "time": 226.3372093023256,
          "velocity": 0.4251968503937008
        },
        {
          "duration": 0.15116279069766847,
          "durationTicks": 13,
          "midi": 85,
          "name": "C#6",
          "ticks": 19465,
          "time": 226.3372093023256,
          "velocity": 0.2125984251968504
        },
        {
          "duration": 0.1860465116278931,
          "durationTicks": 16,
          "midi": 95,
          "name": "B6",
          "ticks": 19465,
          "time": 226.3372093023256,
          "velocity": 0.14960629921259844
        },
        {
          "duration": 0.1046511627907023,
          "durationTicks": 9,
          "midi": 91,
          "name": "G6",
          "ticks": 19467,
          "time": 226.36046511627907,
          "velocity": 0.09448818897637795
        },
        {
          "duration": 0.11627906976741542,
          "durationTicks": 10,
          "midi": 71,
          "name": "B4",
          "ticks": 19474,
          "time": 226.4418604651163,
          "velocity": 0.4409448818897638
        },
        {
          "duration": 0.023255813953483084,
          "durationTicks": 2,
          "midi": 58,
          "name": "A#3",
          "ticks": 19475,
          "time": 226.45348837209303,
          "velocity": 0.41732283464566927
        },
        {
          "duration": 0.12790697674418539,
          "durationTicks": 11,
          "midi": 87,
          "name": "D#6",
          "ticks": 19475,
          "time": 226.45348837209303,
          "velocity": 0.18110236220472442
        },
        {
          "duration": 0.034883720930224626,
          "durationTicks": 3,
          "midi": 59,
          "name": "B3",
          "ticks": 19480,
          "time": 226.51162790697674,
          "velocity": 0.2755905511811024
        },
        {
          "duration": 0.16279069767443843,
          "durationTicks": 14,
          "midi": 79,
          "name": "G5",
          "ticks": 19483,
          "time": 226.54651162790697,
          "velocity": 0.2283464566929134
        },
        {
          "duration": 0.17441860465117998,
          "durationTicks": 15,
          "midi": 88,
          "name": "E6",
          "ticks": 19483,
          "time": 226.54651162790697,
          "velocity": 0.18110236220472442
        },
        {
          "duration": 0.11627906976744384,
          "durationTicks": 10,
          "midi": 60,
          "name": "C4",
          "ticks": 19484,
          "time": 226.5581395348837,
          "velocity": 0.5275590551181102
        },
        {
          "duration": 0.03488372093025305,
          "durationTicks": 3,
          "midi": 67,
          "name": "G4",
          "ticks": 19484,
          "time": 226.5581395348837,
          "velocity": 0.11811023622047244
        },
        {
          "duration": 0.09302325581396076,
          "durationTicks": 8,
          "midi": 94,
          "name": "A#6",
          "ticks": 19484,
          "time": 226.5581395348837,
          "velocity": 0.08661417322834646
        },
        {
          "duration": 0.2093023255814046,
          "durationTicks": 18,
          "midi": 96,
          "name": "C7",
          "ticks": 19484,
          "time": 226.5581395348837,
          "velocity": 0.10236220472440945
        },
        {
          "duration": 0.43023255813955075,
          "durationTicks": 37,
          "midi": 74,
          "name": "D5",
          "ticks": 19493,
          "time": 226.6627906976744,
          "velocity": 0.5039370078740157
        },
        {
          "duration": 0.33720930232559,
          "durationTicks": 29,
          "midi": 81,
          "name": "A5",
          "ticks": 19493,
          "time": 226.6627906976744,
          "velocity": 0.25984251968503935
        },
        {
          "duration": 0.011627906976741542,
          "durationTicks": 1,
          "midi": 61,
          "name": "C#4",
          "ticks": 19494,
          "time": 226.67441860465115,
          "velocity": 0.5511811023622047
        },
        {
          "duration": 0.7674418604651407,
          "durationTicks": 66,
          "midi": 69,
          "name": "A4",
          "ticks": 19494,
          "time": 226.67441860465115,
          "velocity": 0.44881889763779526
        },
        {
          "duration": 0.25581395348837077,
          "durationTicks": 22,
          "midi": 90,
          "name": "F#6",
          "ticks": 19494,
          "time": 226.67441860465115,
          "velocity": 0.1968503937007874
        },
        {
          "duration": 0.6976744186046631,
          "durationTicks": 60,
          "midi": 50,
          "name": "D3",
          "ticks": 19495,
          "time": 226.6860465116279,
          "velocity": 0.4409448818897638
        },
        {
          "duration": 0.3604651162790731,
          "durationTicks": 31,
          "midi": 62,
          "name": "D4",
          "ticks": 19495,
          "time": 226.6860465116279,
          "velocity": 0.5354330708661418
        },
        {
          "duration": 0.05813953488373613,
          "durationTicks": 5,
          "midi": 72,
          "name": "C5",
          "ticks": 19495,
          "time": 226.6860465116279,
          "velocity": 0.3779527559055118
        },
        {
          "duration": 0.023255813953483084,
          "durationTicks": 2,
          "midi": 39,
          "name": "D#2",
          "ticks": 19496,
          "time": 226.69767441860466,
          "velocity": 0.44881889763779526
        },
        {
          "duration": 0.3139534883720785,
          "durationTicks": 27,
          "midi": 57,
          "name": "A3",
          "ticks": 19496,
          "time": 226.69767441860466,
          "velocity": 0.2992125984251969
        },
        {
          "duration": 0.6511627906976685,
          "durationTicks": 56,
          "midi": 66,
          "name": "F#4",
          "ticks": 19496,
          "time": 226.69767441860466,
          "velocity": 0.2204724409448819
        },
        {
          "duration": 0.023255813953483084,
          "durationTicks": 2,
          "midi": 38,
          "name": "D2",
          "ticks": 19498,
          "time": 226.72093023255815,
          "velocity": 0.4094488188976378
        },
        {
          "duration": 0.1046511627907023,
          "durationTicks": 9,
          "midi": 76,
          "name": "E5",
          "ticks": 19498,
          "time": 226.72093023255815,
          "velocity": 0.08661417322834646
        },
        {
          "duration": 0.06976744186047767,
          "durationTicks": 6,
          "midi": 38,
          "name": "D2",
          "ticks": 19501,
          "time": 226.75581395348837,
          "velocity": 0.3700787401574803
        },
        {
          "duration": 0.06976744186047767,
          "durationTicks": 6,
          "midi": 72,
          "name": "C5",
          "ticks": 19503,
          "time": 226.77906976744185,
          "velocity": 0.1732283464566929
        },
        {
          "duration": 0.17441860465115155,
          "durationTicks": 15,
          "midi": 38,
          "name": "D2",
          "ticks": 19508,
          "time": 226.8372093023256,
          "velocity": 0.28346456692913385
        },
        {
          "duration": 0.05813953488373613,
          "durationTicks": 5,
          "midi": 72,
          "name": "C5",
          "ticks": 19513,
          "time": 226.8953488372093,
          "velocity": 0.07874015748031496
        },
        {
          "duration": 0.22093023255814614,
          "durationTicks": 19,
          "midi": 76,
          "name": "E5",
          "ticks": 19523,
          "time": 227.01162790697674,
          "velocity": 0.11023622047244094
        },
        {
          "duration": 0.33720930232559,
          "durationTicks": 29,
          "midi": 57,
          "name": "A3",
          "ticks": 19524,
          "time": 227.02325581395348,
          "velocity": 0.4330708661417323
        },
        {
          "duration": 0.2093023255814046,
          "durationTicks": 18,
          "midi": 85,
          "name": "C#6",
          "ticks": 19524,
          "time": 227.02325581395348,
          "velocity": 0.2047244094488189
        },
        {
          "duration": 0.19767441860466306,
          "durationTicks": 17,
          "midi": 95,
          "name": "B6",
          "ticks": 19524,
          "time": 227.02325581395348,
          "velocity": 0.12598425196850394
        },
        {
          "duration": 0.09302325581396076,
          "durationTicks": 8,
          "midi": 91,
          "name": "G6",
          "ticks": 19525,
          "time": 227.03488372093022,
          "velocity": 0.12598425196850394
        },
        {
          "duration": 0.023255813953483084,
          "durationTicks": 2,
          "midi": 39,
          "name": "D#2",
          "ticks": 19528,
          "time": 227.06976744186048,
          "velocity": 0.28346456692913385
        },
        {
          "duration": 0.25581395348837077,
          "durationTicks": 22,
          "midi": 38,
          "name": "D2",
          "ticks": 19530,
          "time": 227.09302325581396,
          "velocity": 0.2677165354330709
        },
        {
          "duration": 0.24418604651162923,
          "durationTicks": 21,
          "midi": 74,
          "name": "D5",
          "ticks": 19552,
          "time": 227.34883720930233,
          "velocity": 0.5039370078740157
        },
        {
          "duration": 0.25581395348837077,
          "durationTicks": 22,
          "midi": 90,
          "name": "F#6",
          "ticks": 19552,
          "time": 227.34883720930233,
          "velocity": 0.16535433070866143
        },
        {
          "duration": 0.023255813953483084,
          "durationTicks": 2,
          "midi": 38,
          "name": "D2",
          "ticks": 19553,
          "time": 227.36046511627907,
          "velocity": 0.2283464566929134
        },
        {
          "duration": 0.22093023255814614,
          "durationTicks": 19,
          "midi": 62,
          "name": "D4",
          "ticks": 19553,
          "time": 227.36046511627907,
          "velocity": 0.5039370078740157
        },
        {
          "duration": 0.08139534883721922,
          "durationTicks": 7,
          "midi": 96,
          "name": "C7",
          "ticks": 19553,
          "time": 227.36046511627907,
          "velocity": 0.07874015748031496
        },
        {
          "duration": 0.09302325581396076,
          "durationTicks": 8,
          "midi": 98,
          "name": "D7",
          "ticks": 19553,
          "time": 227.36046511627907,
          "velocity": 0.09448818897637795
        },
        {
          "duration": 0.2093023255814046,
          "durationTicks": 18,
          "midi": 57,
          "name": "A3",
          "ticks": 19554,
          "time": 227.37209302325581,
          "velocity": 0.23622047244094488
        },
        {
          "duration": 0.023255813953483084,
          "durationTicks": 2,
          "midi": 39,
          "name": "D#2",
          "ticks": 19555,
          "time": 227.38372093023256,
          "velocity": 0.25196850393700787
        },
        {
          "duration": 0.17441860465117998,
          "durationTicks": 15,
          "midi": 50,
          "name": "D3",
          "ticks": 19556,
          "time": 227.3953488372093,
          "velocity": 0.08661417322834646
        },
        {
          "duration": 0.16279069767443843,
          "durationTicks": 14,
          "midi": 38,
          "name": "D2",
          "ticks": 19557,
          "time": 227.40697674418604,
          "velocity": 0.2204724409448819
        },
        {
          "duration": 0.023255813953483084,
          "durationTicks": 2,
          "midi": 49,
          "name": "C#3",
          "ticks": 19571,
          "time": 227.56976744186048,
          "velocity": 0.3543307086614173
        },
        {
          "duration": 0.6976744186046346,
          "durationTicks": 60,
          "midi": 61,
          "name": "C#4",
          "ticks": 19572,
          "time": 227.58139534883722,
          "velocity": 0.5511811023622047
        },
        {
          "duration": 0.3488372093023031,
          "durationTicks": 30,
          "midi": 80,
          "name": "G#5",
          "ticks": 19572,
          "time": 227.58139534883722,
          "velocity": 0.25984251968503935
        },
        {
          "duration": 0.06976744186044925,
          "durationTicks": 6,
          "midi": 85,
          "name": "C#6",
          "ticks": 19572,
          "time": 227.58139534883722,
          "velocity": 0.1732283464566929
        },
        {
          "duration": 0.023255813953483084,
          "durationTicks": 2,
          "midi": 48,
          "name": "C3",
          "ticks": 19573,
          "time": 227.59302325581396,
          "velocity": 0.4566929133858268
        },
        {
          "duration": 0.3139534883720785,
          "durationTicks": 27,
          "midi": 68,
          "name": "G#4",
          "ticks": 19573,
          "time": 227.59302325581396,
          "velocity": 0.14173228346456693
        },
        {
          "duration": 0.19767441860463464,
          "durationTicks": 17,
          "midi": 89,
          "name": "F6",
          "ticks": 19573,
          "time": 227.59302325581396,
          "velocity": 0.2047244094488189
        },
        {
          "duration": 0.3139534883720785,
          "durationTicks": 27,
          "midi": 56,
          "name": "G#3",
          "ticks": 19574,
          "time": 227.6046511627907,
          "velocity": 0.29133858267716534
        },
        {
          "duration": 0.27906976744185386,
          "durationTicks": 24,
          "midi": 71,
          "name": "B4",
          "ticks": 19574,
          "time": 227.6046511627907,
          "velocity": 0.23622047244094488
        },
        {
          "duration": 0.034883720930224626,
          "durationTicks": 3,
          "midi": 38,
          "name": "D2",
          "ticks": 19575,
          "time": 227.61627906976744,
          "velocity": 0.44881889763779526
        },
        {
          "duration": 0.3139534883720785,
          "durationTicks": 27,
          "midi": 49,
          "name": "C#3",
          "ticks": 19575,
          "time": 227.61627906976744,
          "velocity": 0.4015748031496063
        },
        {
          "duration": 0.6511627906976685,
          "durationTicks": 56,
          "midi": 65,
          "name": "F4",
          "ticks": 19576,
          "time": 227.62790697674419,
          "velocity": 0.2283464566929134
        },
        {
          "duration": 0.12790697674418539,
          "durationTicks": 11,
          "midi": 79,
          "name": "G5",
          "ticks": 19576,
          "time": 227.62790697674419,
          "velocity": 0.08661417322834646
        },
        {
          "duration": 0.09302325581396076,
          "durationTicks": 8,
          "midi": 37,
          "name": "C#2",
          "ticks": 19578,
          "time": 227.65116279069767,
          "velocity": 0.4251968503937008
        },
        {
          "duration": 0.023255813953483084,
          "durationTicks": 2,
          "midi": 36,
          "name": "C2",
          "ticks": 19586,
          "time": 227.74418604651163,
          "velocity": 0.25196850393700787
        },
        {
          "duration": 0.16279069767441,
          "durationTicks": 14,
          "midi": 37,
          "name": "C#2",
          "ticks": 19588,
          "time": 227.7674418604651,
          "velocity": 0.2992125984251969
        },
        {
          "duration": 0.034883720930224626,
          "durationTicks": 3,
          "midi": 89,
          "name": "F6",
          "ticks": 19593,
          "time": 227.82558139534885,
          "velocity": 0.08661417322834646
        },
        {
          "duration": 0.04651162790699459,
          "durationTicks": 4,
          "midi": 89,
          "name": "F6",
          "ticks": 19599,
          "time": 227.8953488372093,
          "velocity": 0.07874015748031496
        },
        {
          "duration": 0.023255813953511506,
          "durationTicks": 2,
          "midi": 36,
          "name": "C2",
          "ticks": 19602,
          "time": 227.93023255813952,
          "velocity": 0.28346456692913385
        },
        {
          "duration": 0.08139534883721922,
          "durationTicks": 7,
          "midi": 57,
          "name": "A3",
          "ticks": 19602,
          "time": 227.93023255813952,
          "velocity": 0.3937007874015748
        },
        {
          "duration": 0.3604651162790731,
          "durationTicks": 31,
          "midi": 69,
          "name": "A4",
          "ticks": 19602,
          "time": 227.93023255813952,
          "velocity": 0.4409448818897638
        },
        {
          "duration": 0.12790697674418539,
          "durationTicks": 11,
          "midi": 95,
          "name": "B6",
          "ticks": 19602,
          "time": 227.93023255813952,
          "velocity": 0.12598425196850394
        },
        {
          "duration": 0.0813953488371908,
          "durationTicks": 7,
          "midi": 91,
          "name": "G6",
          "ticks": 19603,
          "time": 227.9418604651163,
          "velocity": 0.12598425196850394
        },
        {
          "duration": 0.30232558139533694,
          "durationTicks": 26,
          "midi": 49,
          "name": "C#3",
          "ticks": 19607,
          "time": 227.98837209302326,
          "velocity": 0.2204724409448819
        },
        {
          "duration": 0.27906976744185386,
          "durationTicks": 24,
          "midi": 37,
          "name": "C#2",
          "ticks": 19609,
          "time": 228.01162790697674,
          "velocity": 0.25196850393700787
        },
        {
          "duration": 0.05813953488373613,
          "durationTicks": 5,
          "midi": 57,
          "name": "A3",
          "ticks": 19610,
          "time": 228.02325581395348,
          "velocity": 0.30708661417322836
        },
        {
          "duration": 0.06976744186044925,
          "durationTicks": 6,
          "midi": 57,
          "name": "A3",
          "ticks": 19616,
          "time": 228.09302325581396,
          "velocity": 0.29133858267716534
        },
        {
          "duration": 0.06976744186047767,
          "durationTicks": 6,
          "midi": 57,
          "name": "A3",
          "ticks": 19623,
          "time": 228.17441860465115,
          "velocity": 0.2677165354330709
        },
        {
          "duration": 0.2325581395348877,
          "durationTicks": 20,
          "midi": 73,
          "name": "C#5",
          "ticks": 19632,
          "time": 228.27906976744185,
          "velocity": 0.5039370078740157
        },
        {
          "duration": 0.24418604651162923,
          "durationTicks": 21,
          "midi": 80,
          "name": "G#5",
          "ticks": 19632,
          "time": 228.27906976744185,
          "velocity": 0.2283464566929134
        },
        {
          "duration": 0.19767441860466306,
          "durationTicks": 17,
          "midi": 89,
          "name": "F6",
          "ticks": 19632,
          "time": 228.27906976744185,
          "velocity": 0.1889763779527559
        },
        {
          "duration": 0.2093023255814046,
          "durationTicks": 18,
          "midi": 61,
          "name": "C#4",
          "ticks": 19633,
          "time": 228.2906976744186,
          "velocity": 0.5118110236220472
        },
        {
          "duration": 0.05813953488373613,
          "durationTicks": 5,
          "midi": 68,
          "name": "G#4",
          "ticks": 19633,
          "time": 228.2906976744186,
          "velocity": 0.1968503937007874
        },
        {
          "duration": 0.09302325581396076,
          "durationTicks": 8,
          "midi": 95,
          "name": "B6",
          "ticks": 19633,
          "time": 228.2906976744186,
          "velocity": 0.08661417322834646
        },
        {
          "duration": 0.12790697674418539,
          "durationTicks": 11,
          "midi": 97,
          "name": "C#7",
          "ticks": 19633,
          "time": 228.2906976744186,
          "velocity": 0.13385826771653545
        },
        {
          "duration": 0.023255813953511506,
          "durationTicks": 2,
          "midi": 37,
          "name": "C#2",
          "ticks": 19634,
          "time": 228.30232558139534,
          "velocity": 0.25196850393700787
        },
        {
          "duration": 0.16279069767441,
          "durationTicks": 14,
          "midi": 49,
          "name": "C#3",
          "ticks": 19636,
          "time": 228.32558139534885,
          "velocity": 0.09448818897637795
        },
        {
          "duration": 0.16279069767441,
          "durationTicks": 14,
          "midi": 37,
          "name": "C#2",
          "ticks": 19637,
          "time": 228.3372093023256,
          "velocity": 0.23622047244094488
        },
        {
          "duration": 0.04651162790696617,
          "durationTicks": 4,
          "midi": 56,
          "name": "G#3",
          "ticks": 19638,
          "time": 228.34883720930233,
          "velocity": 0.14960629921259844
        },
        {
          "duration": 0.03488372093025305,
          "durationTicks": 3,
          "midi": 56,
          "name": "G#3",
          "ticks": 19645,
          "time": 228.43023255813952,
          "velocity": 0.07086614173228346
        },
        {
          "duration": 0.3604651162790731,
          "durationTicks": 31,
          "midi": 60,
          "name": "C4",
          "ticks": 19651,
          "time": 228.5,
          "velocity": 0.5433070866141733
        },
        {
          "duration": 0.3604651162790731,
          "durationTicks": 31,
          "midi": 79,
          "name": "G5",
          "ticks": 19651,
          "time": 228.5,
          "velocity": 0.2755905511811024
        },
        {
          "duration": 0.11627906976744384,
          "durationTicks": 10,
          "midi": 89,
          "name": "F6",
          "ticks": 19651,
          "time": 228.5,
          "velocity": 0.14960629921259844
        },
        {
          "duration": 0.023255813953483084,
          "durationTicks": 2,
          "midi": 47,
          "name": "B2",
          "ticks": 19652,
          "time": 228.51162790697674,
          "velocity": 0.4645669291338583
        },
        {
          "duration": 0.33720930232559,
          "durationTicks": 29,
          "midi": 67,
          "name": "G4",
          "ticks": 19652,
          "time": 228.51162790697674,
          "velocity": 0.15748031496062992
        },
        {
          "duration": 0.2906976744185954,
          "durationTicks": 25,
          "midi": 88,
          "name": "E6",
          "ticks": 19652,
          "time": 228.51162790697674,
          "velocity": 0.1889763779527559
        },
        {
          "duration": 0.03488372093025305,
          "durationTicks": 3,
          "midi": 37,
          "name": "C#2",
          "ticks": 19654,
          "time": 228.53488372093022,
          "velocity": 0.4251968503937008
        },
        {
          "duration": 0.33720930232559,
          "durationTicks": 29,
          "midi": 48,
          "name": "C3",
          "ticks": 19654,
          "time": 228.53488372093022,
          "velocity": 0.4409448818897638
        },
        {
          "duration": 0.33720930232559,
          "durationTicks": 29,
          "midi": 55,
          "name": "G3",
          "ticks": 19654,
          "time": 228.53488372093022,
          "velocity": 0.3464566929133858
        },
        {
          "duration": 0.12790697674418539,
          "durationTicks": 11,
          "midi": 70,
          "name": "A#4",
          "ticks": 19654,
          "time": 228.53488372093022,
          "velocity": 0.13385826771653545
        },
        {
          "duration": 0.09302325581396076,
          "durationTicks": 8,
          "midi": 83,
          "name": "B5",
          "ticks": 19654,
          "time": 228.53488372093022,
          "velocity": 0.07086614173228346
        },
        {
          "duration": 0.06976744186047767,
          "durationTicks": 6,
          "midi": 94,
          "name": "A#6",
          "ticks": 19654,
          "time": 228.53488372093022,
          "velocity": 0.07086614173228346
        },
        {
          "duration": 0.13953488372092693,
          "durationTicks": 12,
          "midi": 78,
          "name": "F#5",
          "ticks": 19655,
          "time": 228.54651162790697,
          "velocity": 0.11023622047244094
        },
        {
          "duration": 0.10465116279067388,
          "durationTicks": 9,
          "midi": 36,
          "name": "C2",
          "ticks": 19657,
          "time": 228.56976744186048,
          "velocity": 0.4094488188976378
        },
        {
          "duration": 0.66279069767441,
          "durationTicks": 57,
          "midi": 64,
          "name": "E4",
          "ticks": 19657,
          "time": 228.56976744186048,
          "velocity": 0.25984251968503935
        },
        {
          "duration": 0.023255813953511506,
          "durationTicks": 2,
          "midi": 35,
          "name": "B1",
          "ticks": 19666,
          "time": 228.67441860465115,
          "velocity": 0.2677165354330709
        },
        {
          "duration": 0.16279069767441,
          "durationTicks": 14,
          "midi": 36,
          "name": "C2",
          "ticks": 19668,
          "time": 228.69767441860466,
          "velocity": 0.2992125984251969
        },
        {
          "duration": 0.33720930232559,
          "durationTicks": 29,
          "midi": 69,
          "name": "A4",
          "ticks": 19682,
          "time": 228.86046511627907,
          "velocity": 0.4330708661417323
        },
        {
          "duration": 0.22093023255814614,
          "durationTicks": 19,
          "midi": 85,
          "name": "C#6",
          "ticks": 19683,
          "time": 228.87209302325581,
          "velocity": 0.1889763779527559
        },
        {
          "duration": 0.17441860465115155,
          "durationTicks": 15,
          "midi": 95,
          "name": "B6",
          "ticks": 19683,
          "time": 228.87209302325581,
          "velocity": 0.13385826771653545
        },
        {
          "duration": 0.5348837209302246,
          "durationTicks": 46,
          "midi": 48,
          "name": "C3",
          "ticks": 19684,
          "time": 228.88372093023256,
          "velocity": 0.25196850393700787
        },
        {
          "duration": 0.09302325581396076,
          "durationTicks": 8,
          "midi": 57,
          "name": "A3",
          "ticks": 19684,
          "time": 228.88372093023256,
          "velocity": 0.36220472440944884
        },
        {
          "duration": 0.034883720930224626,
          "durationTicks": 3,
          "midi": 88,
          "name": "E6",
          "ticks": 19684,
          "time": 228.88372093023256,
          "velocity": 0.07874015748031496
        },
        {
          "duration": 0.09302325581396076,
          "durationTicks": 8,
          "midi": 91,
          "name": "G6",
          "ticks": 19684,
          "time": 228.88372093023256,
          "velocity": 0.11023622047244094
        },
        {
          "duration": 0.023255813953483084,
          "durationTicks": 2,
          "midi": 37,
          "name": "C#2",
          "ticks": 19685,
          "time": 228.8953488372093,
          "velocity": 0.2992125984251969
        },
        {
          "duration": 0.25581395348837077,
          "durationTicks": 22,
          "midi": 36,
          "name": "C2",
          "ticks": 19691,
          "time": 228.96511627906978,
          "velocity": 0.25984251968503935
        },
        {
          "duration": 0.06976744186044925,
          "durationTicks": 6,
          "midi": 57,
          "name": "A3",
          "ticks": 19693,
          "time": 228.98837209302326,
          "velocity": 0.28346456692913385
        },
        {
          "duration": 0.023255813953483084,
          "durationTicks": 2,
          "midi": 57,
          "name": "A3",
          "ticks": 19700,
          "time": 229.06976744186048,
          "velocity": 0.25984251968503935
        },
        {
          "duration": 0.023255813953483084,
          "durationTicks": 2,
          "midi": 57,
          "name": "A3",
          "ticks": 19703,
          "time": 229.1046511627907,
          "velocity": 0.2440944881889764
        },
        {
          "duration": 0.023255813953483084,
          "durationTicks": 2,
          "midi": 57,
          "name": "A3",
          "ticks": 19707,
          "time": 229.15116279069767,
          "velocity": 0.23622047244094488
        },
        {
          "duration": 0.2558139534883992,
          "durationTicks": 22,
          "midi": 60,
          "name": "C4",
          "ticks": 19710,
          "time": 229.1860465116279,
          "velocity": 0.5275590551181102
        },
        {
          "duration": 0.22093023255811772,
          "durationTicks": 19,
          "midi": 79,
          "name": "G5",
          "ticks": 19711,
          "time": 229.19767441860466,
          "velocity": 0.2204724409448819
        },
        {
          "duration": 0.20930232558137618,
          "durationTicks": 18,
          "midi": 88,
          "name": "E6",
          "ticks": 19711,
          "time": 229.19767441860466,
          "velocity": 0.1889763779527559
        },
        {
          "duration": 0.034883720930224626,
          "durationTicks": 3,
          "midi": 67,
          "name": "G4",
          "ticks": 19712,
          "time": 229.2093023255814,
          "velocity": 0.10236220472440945
        },
        {
          "duration": 0.09302325581393234,
          "durationTicks": 8,
          "midi": 94,
          "name": "A#6",
          "ticks": 19712,
          "time": 229.2093023255814,
          "velocity": 0.08661417322834646
        },
        {
          "duration": 0.12790697674418539,
          "durationTicks": 11,
          "midi": 96,
          "name": "C7",
          "ticks": 19712,
          "time": 229.2093023255814,
          "velocity": 0.11023622047244094
        },
        {
          "duration": 0.17441860465115155,
          "durationTicks": 15,
          "midi": 36,
          "name": "C2",
          "ticks": 19715,
          "time": 229.24418604651163,
          "velocity": 0.2204724409448819
        },
        {
          "duration": 0.10465116279067388,
          "durationTicks": 9,
          "midi": 55,
          "name": "G3",
          "ticks": 19721,
          "time": 229.3139534883721,
          "velocity": 0.14173228346456693
        },
        {
          "duration": 0.4767441860465169,
          "durationTicks": 41,
          "midi": 78,
          "name": "F#5",
          "ticks": 19730,
          "time": 229.41860465116278,
          "velocity": 0.14960629921259844
        },
        {
          "duration": 0.023255813953511506,
          "durationTicks": 2,
          "midi": 45,
          "name": "A2",
          "ticks": 19731,
          "time": 229.43023255813952,
          "velocity": 0.4566929133858268
        },
        {
          "duration": 0.023255813953511506,
          "durationTicks": 2,
          "midi": 53,
          "name": "F3",
          "ticks": 19731,
          "time": 229.43023255813952,
          "velocity": 0.3700787401574803
        },
        {
          "duration": 0.40697674418606766,
          "durationTicks": 35,
          "midi": 69,
          "name": "A4",
          "ticks": 19731,
          "time": 229.43023255813952,
          "velocity": 0.1968503937007874
        },
        {
          "duration": 0.4651162790697754,
          "durationTicks": 40,
          "midi": 71,
          "name": "B4",
          "ticks": 19731,
          "time": 229.43023255813952,
          "velocity": 0.4251968503937008
        },
        {
          "duration": 0.5930232558139608,
          "durationTicks": 51,
          "midi": 77,
          "name": "F5",
          "ticks": 19731,
          "time": 229.43023255813952,
          "velocity": 0.1968503937007874
        },
        {
          "duration": 0.1046511627907023,
          "durationTicks": 9,
          "midi": 85,
          "name": "C#6",
          "ticks": 19731,
          "time": 229.43023255813952,
          "velocity": 0.10236220472440945
        },
        {
          "duration": 0.6860465116279215,
          "durationTicks": 59,
          "midi": 87,
          "name": "D#6",
          "ticks": 19731,
          "time": 229.43023255813952,
          "velocity": 0.31496062992125984
        },
        {
          "duration": 0.16279069767443843,
          "durationTicks": 14,
          "midi": 97,
          "name": "C#7",
          "ticks": 19731,
          "time": 229.43023255813952,
          "velocity": 0.13385826771653545
        },
        {
          "duration": 0.5,
          "durationTicks": 43,
          "midi": 59,
          "name": "B3",
          "ticks": 19732,
          "time": 229.4418604651163,
          "velocity": 0.3779527559055118
        },
        {
          "duration": 0.19767441860463464,
          "durationTicks": 17,
          "midi": 75,
          "name": "D#5",
          "ticks": 19732,
          "time": 229.4418604651163,
          "velocity": 0.12598425196850394
        },
        {
          "duration": 0.034883720930224626,
          "durationTicks": 3,
          "midi": 79,
          "name": "G5",
          "ticks": 19732,
          "time": 229.4418604651163,
          "velocity": 0.13385826771653545
        },
        {
          "duration": 0.8953488372092977,
          "durationTicks": 77,
          "midi": 47,
          "name": "B2",
          "ticks": 19733,
          "time": 229.45348837209303,
          "velocity": 0.4330708661417323
        },
        {
          "duration": 0.8720930232558146,
          "durationTicks": 75,
          "midi": 54,
          "name": "F#3",
          "ticks": 19733,
          "time": 229.45348837209303,
          "velocity": 0.2992125984251969
        },
        {
          "duration": 0.023255813953483084,
          "durationTicks": 2,
          "midi": 63,
          "name": "D#4",
          "ticks": 19733,
          "time": 229.45348837209303,
          "velocity": 0.2440944881889764
        },
        {
          "duration": 0.5930232558139608,
          "durationTicks": 51,
          "midi": 63,
          "name": "D#4",
          "ticks": 19736,
          "time": 229.48837209302326,
          "velocity": 0.2047244094488189
        },
        {
          "duration": 0.33720930232556157,
          "durationTicks": 29,
          "midi": 58,
          "name": "A#3",
          "ticks": 19809,
          "time": 230.3372093023256,
          "velocity": 0.44881889763779526
        },
        {
          "duration": 0.9186046511627808,
          "durationTicks": 79,
          "midi": 70,
          "name": "A#4",
          "ticks": 19809,
          "time": 230.3372093023256,
          "velocity": 0.4645669291338583
        },
        {
          "duration": 0.3488372093023031,
          "durationTicks": 30,
          "midi": 77,
          "name": "F5",
          "ticks": 19809,
          "time": 230.3372093023256,
          "velocity": 0.15748031496062992
        },
        {
          "duration": 0.3139534883720785,
          "durationTicks": 27,
          "midi": 76,
          "name": "E5",
          "ticks": 19810,
          "time": 230.34883720930233,
          "velocity": 0.2125984251968504
        },
        {
          "duration": 0.034883720930224626,
          "durationTicks": 3,
          "midi": 78,
          "name": "F#5",
          "ticks": 19810,
          "time": 230.34883720930233,
          "velocity": 0.14960629921259844
        },
        {
          "duration": 0.2325581395348877,
          "durationTicks": 20,
          "midi": 80,
          "name": "G#5",
          "ticks": 19810,
          "time": 230.34883720930233,
          "velocity": 0.1732283464566929
        },
        {
          "duration": 0.09302325581396076,
          "durationTicks": 8,
          "midi": 84,
          "name": "C6",
          "ticks": 19810,
          "time": 230.34883720930233,
          "velocity": 0.10236220472440945
        },
        {
          "duration": 0.4651162790697754,
          "durationTicks": 40,
          "midi": 86,
          "name": "D6",
          "ticks": 19810,
          "time": 230.34883720930233,
          "velocity": 0.30708661417322836
        },
        {
          "duration": 0.17441860465115155,
          "durationTicks": 15,
          "midi": 96,
          "name": "C7",
          "ticks": 19810,
          "time": 230.34883720930233,
          "velocity": 0.12598425196850394
        },
        {
          "duration": 0.011627906976741542,
          "durationTicks": 1,
          "midi": 45,
          "name": "A2",
          "ticks": 19811,
          "time": 230.36046511627907,
          "velocity": 0.5118110236220472
        },
        {
          "duration": 0.3139534883720785,
          "durationTicks": 27,
          "midi": 68,
          "name": "G#4",
          "ticks": 19811,
          "time": 230.36046511627907,
          "velocity": 0.2047244094488189
        },
        {
          "duration": 0.2093023255814046,
          "durationTicks": 18,
          "midi": 74,
          "name": "D5",
          "ticks": 19811,
          "time": 230.36046511627907,
          "velocity": 0.14173228346456693
        },
        {
          "duration": 0.32558139534884845,
          "durationTicks": 28,
          "midi": 46,
          "name": "A#2",
          "ticks": 19812,
          "time": 230.37209302325581,
          "velocity": 0.4645669291338583
        },
        {
          "duration": 0.30232558139533694,
          "durationTicks": 26,
          "midi": 53,
          "name": "F3",
          "ticks": 19812,
          "time": 230.37209302325581,
          "velocity": 0.3228346456692913
        },
        {
          "duration": 0.09302325581396076,
          "durationTicks": 8,
          "midi": 62,
          "name": "D4",
          "ticks": 19812,
          "time": 230.37209302325581,
          "velocity": 0.25196850393700787
        },
        {
          "duration": 0.0813953488371908,
          "durationTicks": 7,
          "midi": 62,
          "name": "D4",
          "ticks": 19821,
          "time": 230.47674418604652,
          "velocity": 0.11811023622047244
        },
        {
          "duration": 0.09302325581393234,
          "durationTicks": 8,
          "midi": 62,
          "name": "D4",
          "ticks": 19829,
          "time": 230.56976744186048,
          "velocity": 0.08661417322834646
        },
        {
          "duration": 0.03488372093025305,
          "durationTicks": 3,
          "midi": 75,
          "name": "D#5",
          "ticks": 19837,
          "time": 230.6627906976744,
          "velocity": 0.11811023622047244
        },
        {
          "duration": 0.023255813953511506,
          "durationTicks": 2,
          "midi": 57,
          "name": "A3",
          "ticks": 19838,
          "time": 230.67441860465115,
          "velocity": 0.3543307086614173
        },
        {
          "duration": 0.17441860465117998,
          "durationTicks": 15,
          "midi": 96,
          "name": "C7",
          "ticks": 19839,
          "time": 230.6860465116279,
          "velocity": 0.14173228346456693
        },
        {
          "duration": 0.023255813953483084,
          "durationTicks": 2,
          "midi": 45,
          "name": "A2",
          "ticks": 19840,
          "time": 230.69767441860466,
          "velocity": 0.33070866141732286
        },
        {
          "duration": 0.5465116279069662,
          "durationTicks": 47,
          "midi": 58,
          "name": "A#3",
          "ticks": 19840,
          "time": 230.69767441860466,
          "velocity": 0.44881889763779526
        },
        {
          "duration": 0.32558139534882,
          "durationTicks": 28,
          "midi": 76,
          "name": "E5",
          "ticks": 19840,
          "time": 230.69767441860466,
          "velocity": 0.08661417322834646
        },
        {
          "duration": 0.09302325581393234,
          "durationTicks": 8,
          "midi": 92,
          "name": "G#6",
          "ticks": 19840,
          "time": 230.69767441860466,
          "velocity": 0.14173228346456693
        },
        {
          "duration": 0.034883720930224626,
          "durationTicks": 3,
          "midi": 62,
          "name": "D4",
          "ticks": 19842,
          "time": 230.72093023255815,
          "velocity": 0.08661417322834646
        },
        {
          "duration": 0.3139534883720785,
          "durationTicks": 27,
          "midi": 46,
          "name": "A#2",
          "ticks": 19843,
          "time": 230.7325581395349,
          "velocity": 0.3464566929133858
        },
        {
          "duration": 0.2906976744185954,
          "durationTicks": 25,
          "midi": 53,
          "name": "F3",
          "ticks": 19843,
          "time": 230.7325581395349,
          "velocity": 0.16535433070866143
        },
        {
          "duration": 0.04651162790696617,
          "durationTicks": 4,
          "midi": 86,
          "name": "D6",
          "ticks": 19852,
          "time": 230.8372093023256,
          "velocity": 0.14173228346456693
        },
        {
          "duration": 0.04651162790699459,
          "durationTicks": 4,
          "midi": 86,
          "name": "D6",
          "ticks": 19859,
          "time": 230.91860465116278,
          "velocity": 0.10236220472440945
        },
        {
          "duration": 0.22093023255814614,
          "durationTicks": 19,
          "midi": 86,
          "name": "D6",
          "ticks": 19865,
          "time": 230.98837209302326,
          "velocity": 0.1732283464566929
        },
        {
          "duration": 0.25581395348837077,
          "durationTicks": 22,
          "midi": 77,
          "name": "F5",
          "ticks": 19869,
          "time": 231.03488372093022,
          "velocity": 0.11811023622047244
        },
        {
          "duration": 0.03488372093025305,
          "durationTicks": 3,
          "midi": 62,
          "name": "D4",
          "ticks": 19870,
          "time": 231.04651162790697,
          "velocity": 0.10236220472440945
        },
        {
          "duration": 0.16279069767443843,
          "durationTicks": 14,
          "midi": 96,
          "name": "C7",
          "ticks": 19870,
          "time": 231.04651162790697,
          "velocity": 0.11023622047244094
        },
        {
          "duration": 0.08139534883721922,
          "durationTicks": 7,
          "midi": 92,
          "name": "G#6",
          "ticks": 19871,
          "time": 231.0581395348837,
          "velocity": 0.12598425196850394
        },
        {
          "duration": 0.13953488372092693,
          "durationTicks": 12,
          "midi": 53,
          "name": "F3",
          "ticks": 19875,
          "time": 231.1046511627907,
          "velocity": 0.12598425196850394
        },
        {
          "duration": 0.15116279069766847,
          "durationTicks": 13,
          "midi": 46,
          "name": "A#2",
          "ticks": 19876,
          "time": 231.11627906976744,
          "velocity": 0.29133858267716534
        },
        {
          "duration": 0.22093023255814614,
          "durationTicks": 19,
          "midi": 86,
          "name": "D6",
          "ticks": 19887,
          "time": 231.24418604651163,
          "velocity": 0.1889763779527559
        },
        {
          "duration": 0.22093023255814614,
          "durationTicks": 19,
          "midi": 96,
          "name": "C7",
          "ticks": 19887,
          "time": 231.24418604651163,
          "velocity": 0.18110236220472442
        },
        {
          "duration": 0.3604651162790731,
          "durationTicks": 31,
          "midi": 58,
          "name": "A#3",
          "ticks": 19888,
          "time": 231.25581395348837,
          "velocity": 0.4015748031496063
        },
        {
          "duration": 0.34883720930233153,
          "durationTicks": 30,
          "midi": 70,
          "name": "A#4",
          "ticks": 19889,
          "time": 231.2674418604651,
          "velocity": 0.4251968503937008
        },
        {
          "duration": 0.08139534883721922,
          "durationTicks": 7,
          "midi": 92,
          "name": "G#6",
          "ticks": 19890,
          "time": 231.27906976744185,
          "velocity": 0.09448818897637795
        },
        {
          "duration": 0.19767441860466306,
          "durationTicks": 17,
          "midi": 53,
          "name": "F3",
          "ticks": 19892,
          "time": 231.30232558139534,
          "velocity": 0.11023622047244094
        },
        {
          "duration": 0.2674418604651123,
          "durationTicks": 23,
          "midi": 46,
          "name": "A#2",
          "ticks": 19895,
          "time": 231.3372093023256,
          "velocity": 0.2440944881889764
        },
        {
          "duration": 0.34883720930233153,
          "durationTicks": 30,
          "midi": 57,
          "name": "A3",
          "ticks": 19919,
          "time": 231.61627906976744,
          "velocity": 0.4330708661417323
        },
        {
          "duration": 0.34883720930233153,
          "durationTicks": 30,
          "midi": 69,
          "name": "A4",
          "ticks": 19919,
          "time": 231.61627906976744,
          "velocity": 0.4330708661417323
        },
        {
          "duration": 0.22093023255814614,
          "durationTicks": 19,
          "midi": 85,
          "name": "C#6",
          "ticks": 19919,
          "time": 231.61627906976744,
          "velocity": 0.18110236220472442
        },
        {
          "duration": 0.19767441860466306,
          "durationTicks": 17,
          "midi": 95,
          "name": "B6",
          "ticks": 19919,
          "time": 231.61627906976744,
          "velocity": 0.13385826771653545
        },
        {
          "duration": 0.09302325581396076,
          "durationTicks": 8,
          "midi": 91,
          "name": "G6",
          "ticks": 19920,
          "time": 231.62790697674419,
          "velocity": 0.11023622047244094
        },
        {
          "duration": 0.24418604651162923,
          "durationTicks": 21,
          "midi": 46,
          "name": "A#2",
          "ticks": 19927,
          "time": 231.7093023255814,
          "velocity": 0.1889763779527559
        },
        {
          "duration": 0.034883720930224626,
          "durationTicks": 3,
          "midi": 74,
          "name": "D5",
          "ticks": 19948,
          "time": 231.95348837209303,
          "velocity": 0.18110236220472442
        },
        {
          "duration": 0.023255813953483084,
          "durationTicks": 2,
          "midi": 41,
          "name": "F2",
          "ticks": 19949,
          "time": 231.96511627906978,
          "velocity": 0.4881889763779528
        },
        {
          "duration": 0.22093023255811772,
          "durationTicks": 19,
          "midi": 55,
          "name": "G3",
          "ticks": 19949,
          "time": 231.96511627906978,
          "velocity": 0.47244094488188976
        },
        {
          "duration": 0.20930232558137618,
          "durationTicks": 18,
          "midi": 77,
          "name": "F5",
          "ticks": 19949,
          "time": 231.96511627906978,
          "velocity": 0.15748031496062992
        },
        {
          "duration": 0.44186046511626387,
          "durationTicks": 38,
          "midi": 79,
          "name": "G5",
          "ticks": 19949,
          "time": 231.96511627906978,
          "velocity": 0.2125984251968504
        },
        {
          "duration": 0.3139534883720785,
          "durationTicks": 27,
          "midi": 83,
          "name": "B5",
          "ticks": 19949,
          "time": 231.96511627906978,
          "velocity": 0.31496062992125984
        },
        {
          "duration": 0.15116279069766847,
          "durationTicks": 13,
          "midi": 93,
          "name": "A6",
          "ticks": 19949,
          "time": 231.96511627906978,
          "velocity": 0.15748031496062992
        },
        {
          "duration": 0.19767441860463464,
          "durationTicks": 17,
          "midi": 73,
          "name": "C#5",
          "ticks": 19950,
          "time": 231.97674418604652,
          "velocity": 0.2125984251968504
        },
        {
          "duration": 0.05813953488370771,
          "durationTicks": 5,
          "midi": 81,
          "name": "A5",
          "ticks": 19950,
          "time": 231.97674418604652,
          "velocity": 0.13385826771653545
        },
        {
          "duration": 0.023255813953483084,
          "durationTicks": 2,
          "midi": 42,
          "name": "F#2",
          "ticks": 19954,
          "time": 232.02325581395348,
          "velocity": 0.41732283464566927
        },
        {
          "duration": 0.023255813953483084,
          "durationTicks": 2,
          "midi": 50,
          "name": "D3",
          "ticks": 19954,
          "time": 232.02325581395348,
          "velocity": 0.2755905511811024
        },
        {
          "duration": 0.023255813953511506,
          "durationTicks": 2,
          "midi": 43,
          "name": "G2",
          "ticks": 19956,
          "time": 232.04651162790697,
          "velocity": 0.3858267716535433
        },
        {
          "duration": 0.03488372093025305,
          "durationTicks": 3,
          "midi": 50,
          "name": "D3",
          "ticks": 19957,
          "time": 232.0581395348837,
          "velocity": 0.28346456692913385
        },
        {
          "duration": 0.16279069767443843,
          "durationTicks": 14,
          "midi": 74,
          "name": "D5",
          "ticks": 19957,
          "time": 232.0581395348837,
          "velocity": 0.2440944881889764
        },
        {
          "duration": 0.04651162790696617,
          "durationTicks": 4,
          "midi": 65,
          "name": "F4",
          "ticks": 19958,
          "time": 232.06976744186048,
          "velocity": 0.14960629921259844
        },
        {
          "duration": 0.09302325581393234,
          "durationTicks": 8,
          "midi": 43,
          "name": "G2",
          "ticks": 19959,
          "time": 232.08139534883722,
          "velocity": 0.3700787401574803
        },
        {
          "duration": 0.034883720930224626,
          "durationTicks": 3,
          "midi": 50,
          "name": "D3",
          "ticks": 19962,
          "time": 232.11627906976744,
          "velocity": 0.2204724409448819
        },
        {
          "duration": 0.06976744186047767,
          "durationTicks": 6,
          "midi": 65,
          "name": "F4",
          "ticks": 19963,
          "time": 232.12790697674419,
          "velocity": 0.16535433070866143
        },
        {
          "duration": 0.023255813953511506,
          "durationTicks": 2,
          "midi": 50,
          "name": "D3",
          "ticks": 19967,
          "time": 232.17441860465115,
          "velocity": 0.4251968503937008
        },
        {
          "duration": 0.7209302325581461,
          "durationTicks": 62,
          "midi": 85,
          "name": "C#6",
          "ticks": 19967,
          "time": 232.17441860465115,
          "velocity": 0.2992125984251969
        },
        {
          "duration": 0.3720930232558146,
          "durationTicks": 32,
          "midi": 81,
          "name": "A5",
          "ticks": 19968,
          "time": 232.1860465116279,
          "velocity": 0.23622047244094488
        },
        {
          "duration": 0.06976744186047767,
          "durationTicks": 6,
          "midi": 88,
          "name": "E6",
          "ticks": 19968,
          "time": 232.1860465116279,
          "velocity": 0.11023622047244094
        },
        {
          "duration": 0.023255813953483084,
          "durationTicks": 2,
          "midi": 44,
          "name": "G#2",
          "ticks": 19969,
          "time": 232.19767441860466,
          "velocity": 0.5039370078740157
        },
        {
          "duration": 0.5697674418604493,
          "durationTicks": 49,
          "midi": 69,
          "name": "A4",
          "ticks": 19969,
          "time": 232.19767441860466,
          "velocity": 0.4409448818897638
        },
        {
          "duration": 0.04651162790696617,
          "durationTicks": 4,
          "midi": 73,
          "name": "C#5",
          "ticks": 19969,
          "time": 232.19767441860466,
          "velocity": 0.1968503937007874
        },
        {
          "duration": 0.023255813953483084,
          "durationTicks": 2,
          "midi": 45,
          "name": "A2",
          "ticks": 19971,
          "time": 232.22093023255815,
          "velocity": 0.4645669291338583
        },
        {
          "duration": 0.05813953488370771,
          "durationTicks": 5,
          "midi": 61,
          "name": "C#4",
          "ticks": 19971,
          "time": 232.22093023255815,
          "velocity": 0.2047244094488189
        },
        {
          "duration": 0.40697674418603924,
          "durationTicks": 35,
          "midi": 67,
          "name": "G4",
          "ticks": 19971,
          "time": 232.22093023255815,
          "velocity": 0.2204724409448819
        },
        {
          "duration": 0.034883720930224626,
          "durationTicks": 3,
          "midi": 75,
          "name": "D#5",
          "ticks": 19971,
          "time": 232.22093023255815,
          "velocity": 0.2283464566929134
        },
        {
          "duration": 0.5697674418604493,
          "durationTicks": 49,
          "midi": 76,
          "name": "E5",
          "ticks": 19972,
          "time": 232.2325581395349,
          "velocity": 0.14173228346456693
        },
        {
          "duration": 0.7093023255814046,
          "durationTicks": 61,
          "midi": 57,
          "name": "A3",
          "ticks": 19973,
          "time": 232.24418604651163,
          "velocity": 0.3543307086614173
        },
        {
          "duration": 0.023255813953483084,
          "durationTicks": 2,
          "midi": 52,
          "name": "E3",
          "ticks": 19975,
          "time": 232.2674418604651,
          "velocity": 0.2677165354330709
        },
        {
          "duration": 1.2674418604651123,
          "durationTicks": 109,
          "midi": 45,
          "name": "A2",
          "ticks": 19976,
          "time": 232.27906976744185,
          "velocity": 0.41732283464566927
        },
        {
          "duration": 0.03488372093025305,
          "durationTicks": 3,
          "midi": 75,
          "name": "D#5",
          "ticks": 19976,
          "time": 232.27906976744185,
          "velocity": 0.1732283464566929
        },
        {
          "duration": 0.6162790697674438,
          "durationTicks": 53,
          "midi": 61,
          "name": "C#4",
          "ticks": 19977,
          "time": 232.2906976744186,
          "velocity": 0.16535433070866143
        },
        {
          "duration": 1.1046511627907023,
          "durationTicks": 95,
          "midi": 52,
          "name": "E3",
          "ticks": 19978,
          "time": 232.30232558139534,
          "velocity": 0.25984251968503935
        },
        {
          "duration": 0.6046511627907023,
          "durationTicks": 52,
          "midi": 75,
          "name": "D#5",
          "ticks": 19981,
          "time": 232.3372093023256,
          "velocity": 0.14960629921259844
        },
        {
          "duration": 0.05813953488373613,
          "durationTicks": 5,
          "midi": 41,
          "name": "F2",
          "ticks": 20095,
          "time": 233.6627906976744,
          "velocity": 0.29133858267716534
        },
        {
          "duration": 0.04651162790699459,
          "durationTicks": 4,
          "midi": 57,
          "name": "A3",
          "ticks": 20095,
          "time": 233.6627906976744,
          "velocity": 0.41732283464566927
        },
        {
          "duration": 0.13953488372092693,
          "durationTicks": 12,
          "midi": 69,
          "name": "A4",
          "ticks": 20095,
          "time": 233.6627906976744,
          "velocity": 0.5984251968503937
        },
        {
          "duration": 0.04651162790699459,
          "durationTicks": 4,
          "midi": 76,
          "name": "E5",
          "ticks": 20095,
          "time": 233.6627906976744,
          "velocity": 0.14960629921259844
        },
        {
          "duration": 0.1511627906976969,
          "durationTicks": 13,
          "midi": 85,
          "name": "C#6",
          "ticks": 20096,
          "time": 233.67441860465115,
          "velocity": 0.1968503937007874
        },
        {
          "duration": 0.1511627906976969,
          "durationTicks": 13,
          "midi": 88,
          "name": "E6",
          "ticks": 20096,
          "time": 233.67441860465115,
          "velocity": 0.23622047244094488
        },
        {
          "duration": 0.18604651162792152,
          "durationTicks": 16,
          "midi": 95,
          "name": "B6",
          "ticks": 20096,
          "time": 233.67441860465115,
          "velocity": 0.1889763779527559
        },
        {
          "duration": 0.03488372093025305,
          "durationTicks": 3,
          "midi": 64,
          "name": "E4",
          "ticks": 20097,
          "time": 233.6860465116279,
          "velocity": 0.11811023622047244
        },
        {
          "duration": 0.08139534883721922,
          "durationTicks": 7,
          "midi": 91,
          "name": "G6",
          "ticks": 20097,
          "time": 233.6860465116279,
          "velocity": 0.11023622047244094
        },
        {
          "duration": 0.05813953488370771,
          "durationTicks": 5,
          "midi": 57,
          "name": "A3",
          "ticks": 20100,
          "time": 233.72093023255815,
          "velocity": 0.2992125984251969
        },
        {
          "duration": 0.12790697674418539,
          "durationTicks": 11,
          "midi": 71,
          "name": "B4",
          "ticks": 20105,
          "time": 233.77906976744185,
          "velocity": 0.6062992125984252
        },
        {
          "duration": 0.03488372093025305,
          "durationTicks": 3,
          "midi": 76,
          "name": "E5",
          "ticks": 20105,
          "time": 233.77906976744185,
          "velocity": 0.15748031496062992
        },
        {
          "duration": 0.023255813953511506,
          "durationTicks": 2,
          "midi": 58,
          "name": "A#3",
          "ticks": 20106,
          "time": 233.7906976744186,
          "velocity": 0.4094488188976378
        },
        {
          "duration": 0.03488372093025305,
          "durationTicks": 3,
          "midi": 78,
          "name": "F#5",
          "ticks": 20106,
          "time": 233.7906976744186,
          "velocity": 0.13385826771653545
        },
        {
          "duration": 0.13953488372092693,
          "durationTicks": 12,
          "midi": 87,
          "name": "D#6",
          "ticks": 20106,
          "time": 233.7906976744186,
          "velocity": 0.18110236220472442
        },
        {
          "duration": 0.1511627906976969,
          "durationTicks": 13,
          "midi": 90,
          "name": "F#6",
          "ticks": 20106,
          "time": 233.7906976744186,
          "velocity": 0.25984251968503935
        },
        {
          "duration": 0.06976744186047767,
          "durationTicks": 6,
          "midi": 93,
          "name": "A6",
          "ticks": 20107,
          "time": 233.80232558139534,
          "velocity": 0.11811023622047244
        },
        {
          "duration": 0.034883720930224626,
          "durationTicks": 3,
          "midi": 69,
          "name": "A4",
          "ticks": 20108,
          "time": 233.8139534883721,
          "velocity": 0.36220472440944884
        },
        {
          "duration": 0.06976744186044925,
          "durationTicks": 6,
          "midi": 59,
          "name": "B3",
          "ticks": 20111,
          "time": 233.84883720930233,
          "velocity": 0.48031496062992124
        },
        {
          "duration": 0.17441860465117998,
          "durationTicks": 15,
          "midi": 84,
          "name": "C6",
          "ticks": 20115,
          "time": 233.8953488372093,
          "velocity": 0.29133858267716534
        },
        {
          "duration": 0.15116279069766847,
          "durationTicks": 13,
          "midi": 88,
          "name": "E6",
          "ticks": 20115,
          "time": 233.8953488372093,
          "velocity": 0.15748031496062992
        },
        {
          "duration": 0.2093023255814046,
          "durationTicks": 18,
          "midi": 96,
          "name": "C7",
          "ticks": 20115,
          "time": 233.8953488372093,
          "velocity": 0.2992125984251969
        },
        {
          "duration": 0.16279069767441,
          "durationTicks": 14,
          "midi": 100,
          "name": "E7",
          "ticks": 20115,
          "time": 233.8953488372093,
          "velocity": 0.33070866141732286
        },
        {
          "duration": 0.04651162790699459,
          "durationTicks": 4,
          "midi": 72,
          "name": "C5",
          "ticks": 20116,
          "time": 233.90697674418604,
          "velocity": 0.44881889763779526
        },
        {
          "duration": 0.09302325581396076,
          "durationTicks": 8,
          "midi": 79,
          "name": "G5",
          "ticks": 20116,
          "time": 233.90697674418604,
          "velocity": 0.23622047244094488
        },
        {
          "duration": 0.1046511627907023,
          "durationTicks": 9,
          "midi": 94,
          "name": "A#6",
          "ticks": 20116,
          "time": 233.90697674418604,
          "velocity": 0.08661417322834646
        },
        {
          "duration": 0.09302325581396076,
          "durationTicks": 8,
          "midi": 60,
          "name": "C4",
          "ticks": 20117,
          "time": 233.91860465116278,
          "velocity": 0.5354330708661418
        },
        {
          "duration": 0.06976744186044925,
          "durationTicks": 6,
          "midi": 71,
          "name": "B4",
          "ticks": 20119,
          "time": 233.9418604651163,
          "velocity": 0.30708661417322836
        },
        {
          "duration": 0.08139534883721922,
          "durationTicks": 7,
          "midi": 74,
          "name": "D5",
          "ticks": 20124,
          "time": 234,
          "velocity": 0.44881889763779526
        },
        {
          "duration": 0.4651162790697754,
          "durationTicks": 40,
          "midi": 81,
          "name": "A5",
          "ticks": 20124,
          "time": 234,
          "velocity": 0.28346456692913385
        },
        {
          "duration": 0.16279069767441,
          "durationTicks": 14,
          "midi": 102,
          "name": "F#7",
          "ticks": 20124,
          "time": 234,
          "velocity": 0.30708661417322836
        },
        {
          "duration": 0.011627906976741542,
          "durationTicks": 1,
          "midi": 61,
          "name": "C#4",
          "ticks": 20125,
          "time": 234.01162790697674,
          "velocity": 0.5433070866141733
        },
        {
          "duration": 0.7093023255814046,
          "durationTicks": 61,
          "midi": 69,
          "name": "A4",
          "ticks": 20125,
          "time": 234.01162790697674,
          "velocity": 0.5984251968503937
        },
        {
          "duration": 0.25581395348837077,
          "durationTicks": 22,
          "midi": 90,
          "name": "F#6",
          "ticks": 20125,
          "time": 234.01162790697674,
          "velocity": 0.1968503937007874
        },
        {
          "duration": 0.3604651162790731,
          "durationTicks": 31,
          "midi": 50,
          "name": "D3",
          "ticks": 20126,
          "time": 234.02325581395348,
          "velocity": 0.4409448818897638
        },
        {
          "duration": 0.33720930232559,
          "durationTicks": 29,
          "midi": 62,
          "name": "D4",
          "ticks": 20126,
          "time": 234.02325581395348,
          "velocity": 0.5354330708661418
        },
        {
          "duration": 0.03488372093025305,
          "durationTicks": 3,
          "midi": 39,
          "name": "D#2",
          "ticks": 20127,
          "time": 234.03488372093022,
          "velocity": 0.4251968503937008
        },
        {
          "duration": 0.3139534883721069,
          "durationTicks": 27,
          "midi": 57,
          "name": "A3",
          "ticks": 20127,
          "time": 234.03488372093022,
          "velocity": 0.30708661417322836
        },
        {
          "duration": 0.7093023255814046,
          "durationTicks": 61,
          "midi": 66,
          "name": "F#4",
          "ticks": 20127,
          "time": 234.03488372093022,
          "velocity": 0.2283464566929134
        },
        {
          "duration": 0.08139534883721922,
          "durationTicks": 7,
          "midi": 72,
          "name": "C5",
          "ticks": 20128,
          "time": 234.04651162790697,
          "velocity": 0.2283464566929134
        },
        {
          "duration": 0.09302325581396076,
          "durationTicks": 8,
          "midi": 76,
          "name": "E5",
          "ticks": 20128,
          "time": 234.04651162790697,
          "velocity": 0.08661417322834646
        },
        {
          "duration": 0.06976744186044925,
          "durationTicks": 6,
          "midi": 38,
          "name": "D2",
          "ticks": 20132,
          "time": 234.09302325581396,
          "velocity": 0.3700787401574803
        },
        {
          "duration": 0.06976744186047767,
          "durationTicks": 6,
          "midi": 72,
          "name": "C5",
          "ticks": 20137,
          "time": 234.15116279069767,
          "velocity": 0.15748031496062992
        },
        {
          "duration": 0.023255813953483084,
          "durationTicks": 2,
          "midi": 37,
          "name": "C#2",
          "ticks": 20138,
          "time": 234.1627906976744,
          "velocity": 0.2677165354330709
        },
        {
          "duration": 0.16279069767443843,
          "durationTicks": 14,
          "midi": 38,
          "name": "D2",
          "ticks": 20140,
          "time": 234.1860465116279,
          "velocity": 0.28346456692913385
        },
        {
          "duration": 0.04651162790699459,
          "durationTicks": 4,
          "midi": 72,
          "name": "C5",
          "ticks": 20147,
          "time": 234.2674418604651,
          "velocity": 0.07086614173228346
        },
        {
          "duration": 0.22093023255814614,
          "durationTicks": 19,
          "midi": 76,
          "name": "E5",
          "ticks": 20154,
          "time": 234.34883720930233,
          "velocity": 0.1889763779527559
        },
        {
          "duration": 0.5581395348837077,
          "durationTicks": 48,
          "midi": 57,
          "name": "A3",
          "ticks": 20155,
          "time": 234.36046511627907,
          "velocity": 0.4251968503937008
        },
        {
          "duration": 0.2093023255814046,
          "durationTicks": 18,
          "midi": 85,
          "name": "C#6",
          "ticks": 20155,
          "time": 234.36046511627907,
          "velocity": 0.2047244094488189
        },
        {
          "duration": 0.2325581395348877,
          "durationTicks": 20,
          "midi": 88,
          "name": "E6",
          "ticks": 20155,
          "time": 234.36046511627907,
          "velocity": 0.23622047244094488
        },
        {
          "duration": 0.19767441860463464,
          "durationTicks": 17,
          "midi": 95,
          "name": "B6",
          "ticks": 20155,
          "time": 234.36046511627907,
          "velocity": 0.12598425196850394
        },
        {
          "duration": 0.09302325581396076,
          "durationTicks": 8,
          "midi": 91,
          "name": "G6",
          "ticks": 20156,
          "time": 234.37209302325581,
          "velocity": 0.13385826771653545
        },
        {
          "duration": 0.32558139534884845,
          "durationTicks": 28,
          "midi": 50,
          "name": "D3",
          "ticks": 20158,
          "time": 234.3953488372093,
          "velocity": 0.2283464566929134
        },
        {
          "duration": 0.2906976744186238,
          "durationTicks": 25,
          "midi": 38,
          "name": "D2",
          "ticks": 20160,
          "time": 234.41860465116278,
          "velocity": 0.29133858267716534
        },
        {
          "duration": 0.034883720930224626,
          "durationTicks": 3,
          "midi": 61,
          "name": "C#4",
          "ticks": 20184,
          "time": 234.69767441860466,
          "velocity": 0.4409448818897638
        },
        {
          "duration": 0.2325581395348877,
          "durationTicks": 20,
          "midi": 74,
          "name": "D5",
          "ticks": 20185,
          "time": 234.7093023255814,
          "velocity": 0.44881889763779526
        },
        {
          "duration": 0.12790697674418539,
          "durationTicks": 11,
          "midi": 98,
          "name": "D7",
          "ticks": 20185,
          "time": 234.7093023255814,
          "velocity": 0.29133858267716534
        },
        {
          "duration": 0.16279069767441,
          "durationTicks": 14,
          "midi": 102,
          "name": "F#7",
          "ticks": 20185,
          "time": 234.7093023255814,
          "velocity": 0.31496062992125984
        },
        {
          "duration": 0.25581395348837077,
          "durationTicks": 22,
          "midi": 90,
          "name": "F#6",
          "ticks": 20186,
          "time": 234.72093023255815,
          "velocity": 0.12598425196850394
        },
        {
          "duration": 0.034883720930224626,
          "durationTicks": 3,
          "midi": 38,
          "name": "D2",
          "ticks": 20187,
          "time": 234.7325581395349,
          "velocity": 0.25196850393700787
        },
        {
          "duration": 0.2093023255814046,
          "durationTicks": 18,
          "midi": 62,
          "name": "D4",
          "ticks": 20187,
          "time": 234.7325581395349,
          "velocity": 0.4881889763779528
        },
        {
          "duration": 0.06976744186044925,
          "durationTicks": 6,
          "midi": 96,
          "name": "C7",
          "ticks": 20187,
          "time": 234.7325581395349,
          "velocity": 0.07874015748031496
        },
        {
          "duration": 0.023255813953483084,
          "durationTicks": 2,
          "midi": 39,
          "name": "D#2",
          "ticks": 20190,
          "time": 234.7674418604651,
          "velocity": 0.2440944881889764
        },
        {
          "duration": 0.10465116279067388,
          "durationTicks": 9,
          "midi": 38,
          "name": "D2",
          "ticks": 20194,
          "time": 234.8139534883721,
          "velocity": 0.1889763779527559
        },
        {
          "duration": 0.023255813953511506,
          "durationTicks": 2,
          "midi": 37,
          "name": "C#2",
          "ticks": 20203,
          "time": 234.91860465116278,
          "velocity": 0.3228346456692913
        },
        {
          "duration": 0.05813953488373613,
          "durationTicks": 5,
          "midi": 73,
          "name": "C#5",
          "ticks": 20204,
          "time": 234.93023255813952,
          "velocity": 0.4566929133858268
        },
        {
          "duration": 0.33720930232559,
          "durationTicks": 29,
          "midi": 80,
          "name": "G#5",
          "ticks": 20204,
          "time": 234.93023255813952,
          "velocity": 0.2755905511811024
        },
        {
          "duration": 0.17441860465117998,
          "durationTicks": 15,
          "midi": 92,
          "name": "G#6",
          "ticks": 20204,
          "time": 234.93023255813952,
          "velocity": 0.2755905511811024
        },
        {
          "duration": 0.13953488372095535,
          "durationTicks": 12,
          "midi": 97,
          "name": "C#7",
          "ticks": 20204,
          "time": 234.93023255813952,
          "velocity": 0.29133858267716534
        },
        {
          "duration": 0.17441860465117998,
          "durationTicks": 15,
          "midi": 101,
          "name": "F7",
          "ticks": 20204,
          "time": 234.93023255813952,
          "velocity": 0.33858267716535434
        },
        {
          "duration": 0.023255813953483084,
          "durationTicks": 2,
          "midi": 48,
          "name": "C3",
          "ticks": 20205,
          "time": 234.9418604651163,
          "velocity": 0.4645669291338583
        },
        {
          "duration": 0.32558139534882,
          "durationTicks": 28,
          "midi": 56,
          "name": "G#3",
          "ticks": 20205,
          "time": 234.9418604651163,
          "velocity": 0.30708661417322836
        },
        {
          "duration": 0.66279069767441,
          "durationTicks": 57,
          "midi": 61,
          "name": "C#4",
          "ticks": 20205,
          "time": 234.9418604651163,
          "velocity": 0.5433070866141733
        },
        {
          "duration": 0.19767441860463464,
          "durationTicks": 17,
          "midi": 89,
          "name": "F6",
          "ticks": 20205,
          "time": 234.9418604651163,
          "velocity": 0.1889763779527559
        },
        {
          "duration": 0.15116279069766847,
          "durationTicks": 13,
          "midi": 79,
          "name": "G5",
          "ticks": 20206,
          "time": 234.95348837209303,
          "velocity": 0.11023622047244094
        },
        {
          "duration": 0.034883720930224626,
          "durationTicks": 3,
          "midi": 81,
          "name": "A5",
          "ticks": 20206,
          "time": 234.95348837209303,
          "velocity": 0.11023622047244094
        },
        {
          "duration": 0.04651162790696617,
          "durationTicks": 4,
          "midi": 86,
          "name": "D6",
          "ticks": 20206,
          "time": 234.95348837209303,
          "velocity": 0.11023622047244094
        },
        {
          "duration": 0.04651162790696617,
          "durationTicks": 4,
          "midi": 38,
          "name": "D2",
          "ticks": 20207,
          "time": 234.96511627906978,
          "velocity": 0.44881889763779526
        },
        {
          "duration": 0.30232558139533694,
          "durationTicks": 26,
          "midi": 49,
          "name": "C#3",
          "ticks": 20207,
          "time": 234.96511627906978,
          "velocity": 0.4015748031496063
        },
        {
          "duration": 0.30232558139533694,
          "durationTicks": 26,
          "midi": 65,
          "name": "F4",
          "ticks": 20207,
          "time": 234.96511627906978,
          "velocity": 0.2204724409448819
        },
        {
          "duration": 0.24418604651162923,
          "durationTicks": 21,
          "midi": 71,
          "name": "B4",
          "ticks": 20207,
          "time": 234.96511627906978,
          "velocity": 0.11023622047244094
        },
        {
          "duration": 0.06976744186044925,
          "durationTicks": 6,
          "midi": 74,
          "name": "D5",
          "ticks": 20209,
          "time": 234.98837209302326,
          "velocity": 0.2755905511811024
        },
        {
          "duration": 0.06976744186047767,
          "durationTicks": 6,
          "midi": 37,
          "name": "C#2",
          "ticks": 20213,
          "time": 235.03488372093022,
          "velocity": 0.3779527559055118
        },
        {
          "duration": 0.023255813953483084,
          "durationTicks": 2,
          "midi": 36,
          "name": "C2",
          "ticks": 20219,
          "time": 235.1046511627907,
          "velocity": 0.25196850393700787
        },
        {
          "duration": 0.13953488372092693,
          "durationTicks": 12,
          "midi": 37,
          "name": "C#2",
          "ticks": 20221,
          "time": 235.12790697674419,
          "velocity": 0.2992125984251969
        },
        {
          "duration": 0.03488372093025305,
          "durationTicks": 3,
          "midi": 89,
          "name": "F6",
          "ticks": 20225,
          "time": 235.17441860465115,
          "velocity": 0.08661417322834646
        },
        {
          "duration": 0.034883720930224626,
          "durationTicks": 3,
          "midi": 89,
          "name": "F6",
          "ticks": 20231,
          "time": 235.24418604651163,
          "velocity": 0.07874015748031496
        },
        {
          "duration": 0.023255813953483084,
          "durationTicks": 2,
          "midi": 48,
          "name": "C3",
          "ticks": 20233,
          "time": 235.2674418604651,
          "velocity": 0.28346456692913385
        },
        {
          "duration": 0.43023255813955075,
          "durationTicks": 37,
          "midi": 69,
          "name": "A4",
          "ticks": 20233,
          "time": 235.2674418604651,
          "velocity": 0.5984251968503937
        },
        {
          "duration": 0.04651162790699459,
          "durationTicks": 4,
          "midi": 76,
          "name": "E5",
          "ticks": 20233,
          "time": 235.2674418604651,
          "velocity": 0.15748031496062992
        },
        {
          "duration": 0.18604651162792152,
          "durationTicks": 16,
          "midi": 88,
          "name": "E6",
          "ticks": 20233,
          "time": 235.2674418604651,
          "velocity": 0.2440944881889764
        },
        {
          "duration": 0.32558139534884845,
          "durationTicks": 28,
          "midi": 65,
          "name": "F4",
          "ticks": 20234,
          "time": 235.27906976744185,
          "velocity": 0.15748031496062992
        },
        {
          "duration": 0.13953488372092693,
          "durationTicks": 12,
          "midi": 95,
          "name": "B6",
          "ticks": 20234,
          "time": 235.27906976744185,
          "velocity": 0.12598425196850394
        },
        {
          "duration": 0.06976744186047767,
          "durationTicks": 6,
          "midi": 57,
          "name": "A3",
          "ticks": 20235,
          "time": 235.2906976744186,
          "velocity": 0.3779527559055118
        },
        {
          "duration": 0.08139534883721922,
          "durationTicks": 7,
          "midi": 91,
          "name": "G6",
          "ticks": 20235,
          "time": 235.2906976744186,
          "velocity": 0.12598425196850394
        },
        {
          "duration": 0.2906976744185954,
          "durationTicks": 25,
          "midi": 49,
          "name": "C#3",
          "ticks": 20239,
          "time": 235.3372093023256,
          "velocity": 0.2283464566929134
        },
        {
          "duration": 0.25581395348837077,
          "durationTicks": 22,
          "midi": 37,
          "name": "C#2",
          "ticks": 20241,
          "time": 235.36046511627907,
          "velocity": 0.25984251968503935
        },
        {
          "duration": 0.13953488372092693,
          "durationTicks": 12,
          "midi": 57,
          "name": "A3",
          "ticks": 20242,
          "time": 235.37209302325581,
          "velocity": 0.30708661417322836
        },
        {
          "duration": 0.06976744186047767,
          "durationTicks": 6,
          "midi": 57,
          "name": "A3",
          "ticks": 20255,
          "time": 235.52325581395348,
          "velocity": 0.25984251968503935
        },
        {
          "duration": 0.023255813953483084,
          "durationTicks": 2,
          "midi": 60,
          "name": "C4",
          "ticks": 20262,
          "time": 235.6046511627907,
          "velocity": 0.3464566929133858
        },
        {
          "duration": 0.25581395348837077,
          "durationTicks": 22,
          "midi": 73,
          "name": "C#5",
          "ticks": 20263,
          "time": 235.61627906976744,
          "velocity": 0.5118110236220472
        },
        {
          "duration": 0.2325581395348877,
          "durationTicks": 20,
          "midi": 80,
          "name": "G#5",
          "ticks": 20263,
          "time": 235.61627906976744,
          "velocity": 0.2204724409448819
        },
        {
          "duration": 0.13953488372092693,
          "durationTicks": 12,
          "midi": 97,
          "name": "C#7",
          "ticks": 20263,
          "time": 235.61627906976744,
          "velocity": 0.30708661417322836
        },
        {
          "duration": 0.17441860465115155,
          "durationTicks": 15,
          "midi": 101,
          "name": "F7",
          "ticks": 20263,
          "time": 235.61627906976744,
          "velocity": 0.33858267716535434
        },
        {
          "duration": 0.034883720930224626,
          "durationTicks": 3,
          "midi": 37,
          "name": "C#2",
          "ticks": 20264,
          "time": 235.62790697674419,
          "velocity": 0.2283464566929134
        },
        {
          "duration": 0.2325581395348877,
          "durationTicks": 20,
          "midi": 61,
          "name": "C#4",
          "ticks": 20264,
          "time": 235.62790697674419,
          "velocity": 0.49606299212598426
        },
        {
          "duration": 0.2674418604651123,
          "durationTicks": 23,
          "midi": 89,
          "name": "F6",
          "ticks": 20264,
          "time": 235.62790697674419,
          "velocity": 0.1968503937007874
        },
        {
          "duration": 0.09302325581396076,
          "durationTicks": 8,
          "midi": 95,
          "name": "B6",
          "ticks": 20264,
          "time": 235.62790697674419,
          "velocity": 0.08661417322834646
        },
        {
          "duration": 0.12790697674418539,
          "durationTicks": 11,
          "midi": 37,
          "name": "C#2",
          "ticks": 20272,
          "time": 235.72093023255815,
          "velocity": 0.2204724409448819
        },
        {
          "duration": 0.4302325581395223,
          "durationTicks": 37,
          "midi": 77,
          "name": "F5",
          "ticks": 20282,
          "time": 235.8372093023256,
          "velocity": 0.49606299212598426
        },
        {
          "duration": 0.023255813953483084,
          "durationTicks": 2,
          "midi": 59,
          "name": "B3",
          "ticks": 20283,
          "time": 235.84883720930233,
          "velocity": 0.49606299212598426
        },
        {
          "duration": 0.3720930232558146,
          "durationTicks": 32,
          "midi": 84,
          "name": "C6",
          "ticks": 20283,
          "time": 235.84883720930233,
          "velocity": 0.2992125984251969
        },
        {
          "duration": 0.2325581395348877,
          "durationTicks": 20,
          "midi": 93,
          "name": "A6",
          "ticks": 20283,
          "time": 235.84883720930233,
          "velocity": 0.15748031496062992
        },
        {
          "duration": 0.023255813953483084,
          "durationTicks": 2,
          "midi": 47,
          "name": "B2",
          "ticks": 20284,
          "time": 235.86046511627907,
          "velocity": 0.48031496062992124
        },
        {
          "duration": 0.3604651162790731,
          "durationTicks": 31,
          "midi": 65,
          "name": "F4",
          "ticks": 20284,
          "time": 235.86046511627907,
          "velocity": 0.5039370078740157
        },
        {
          "duration": 0.3720930232558146,
          "durationTicks": 32,
          "midi": 79,
          "name": "G5",
          "ticks": 20284,
          "time": 235.86046511627907,
          "velocity": 0.2755905511811024
        },
        {
          "duration": 0.08139534883721922,
          "durationTicks": 7,
          "midi": 82,
          "name": "A#5",
          "ticks": 20284,
          "time": 235.86046511627907,
          "velocity": 0.07874015748031496
        },
        {
          "duration": 0.09302325581396076,
          "durationTicks": 8,
          "midi": 94,
          "name": "A#6",
          "ticks": 20284,
          "time": 235.86046511627907,
          "velocity": 0.08661417322834646
        },
        {
          "duration": 0.04651162790696617,
          "durationTicks": 4,
          "midi": 99,
          "name": "D#7",
          "ticks": 20284,
          "time": 235.86046511627907,
          "velocity": 0.08661417322834646
        },
        {
          "duration": 0.09302325581396076,
          "durationTicks": 8,
          "midi": 100,
          "name": "E7",
          "ticks": 20284,
          "time": 235.86046511627907,
          "velocity": 0.09448818897637795
        },
        {
          "duration": 0.32558139534884845,
          "durationTicks": 28,
          "midi": 60,
          "name": "C4",
          "ticks": 20285,
          "time": 235.87209302325581,
          "velocity": 0.5669291338582677
        },
        {
          "duration": 0.034883720930224626,
          "durationTicks": 3,
          "midi": 80,
          "name": "G#5",
          "ticks": 20285,
          "time": 235.87209302325581,
          "velocity": 0.14960629921259844
        },
        {
          "duration": 0.27906976744185386,
          "durationTicks": 24,
          "midi": 88,
          "name": "E6",
          "ticks": 20285,
          "time": 235.87209302325581,
          "velocity": 0.1889763779527559
        },
        {
          "duration": 0.034883720930224626,
          "durationTicks": 3,
          "midi": 37,
          "name": "C#2",
          "ticks": 20286,
          "time": 235.88372093023256,
          "velocity": 0.4330708661417323
        },
        {
          "duration": 0.3720930232558146,
          "durationTicks": 32,
          "midi": 48,
          "name": "C3",
          "ticks": 20286,
          "time": 235.88372093023256,
          "velocity": 0.4409448818897638
        },
        {
          "duration": 0.3139534883721069,
          "durationTicks": 27,
          "midi": 55,
          "name": "G3",
          "ticks": 20286,
          "time": 235.88372093023256,
          "velocity": 0.30708661417322836
        },
        {
          "duration": 0.12790697674418539,
          "durationTicks": 11,
          "midi": 70,
          "name": "A#4",
          "ticks": 20286,
          "time": 235.88372093023256,
          "velocity": 0.14173228346456693
        },
        {
          "duration": 0.023255813953511506,
          "durationTicks": 2,
          "midi": 36,
          "name": "C2",
          "ticks": 20289,
          "time": 235.91860465116278,
          "velocity": 0.41732283464566927
        },
        {
          "duration": 0.0813953488371908,
          "durationTicks": 7,
          "midi": 36,
          "name": "C2",
          "ticks": 20292,
          "time": 235.95348837209303,
          "velocity": 0.36220472440944884
        },
        {
          "duration": 0.16279069767443843,
          "durationTicks": 14,
          "midi": 36,
          "name": "C2",
          "ticks": 20300,
          "time": 236.04651162790697,
          "velocity": 0.3228346456692913
        },
        {
          "duration": 0.19767441860466306,
          "durationTicks": 17,
          "midi": 88,
          "name": "E6",
          "ticks": 20312,
          "time": 236.1860465116279,
          "velocity": 0.23622047244094488
        },
        {
          "duration": 0.3488372093023031,
          "durationTicks": 30,
          "midi": 69,
          "name": "A4",
          "ticks": 20313,
          "time": 236.19767441860466,
          "velocity": 0.5984251968503937
        },
        {
          "duration": 0.10465116279067388,
          "durationTicks": 9,
          "midi": 93,
          "name": "A6",
          "ticks": 20313,
          "time": 236.19767441860466,
          "velocity": 0.2047244094488189
        },
        {
          "duration": 0.09302325581393234,
          "durationTicks": 8,
          "midi": 57,
          "name": "A3",
          "ticks": 20314,
          "time": 236.2093023255814,
          "velocity": 0.3858267716535433
        },
        {
          "duration": 0.06976744186044925,
          "durationTicks": 6,
          "midi": 72,
          "name": "C5",
          "ticks": 20314,
          "time": 236.2093023255814,
          "velocity": 0.1968503937007874
        },
        {
          "duration": 0.22093023255811772,
          "durationTicks": 19,
          "midi": 85,
          "name": "C#6",
          "ticks": 20314,
          "time": 236.2093023255814,
          "velocity": 0.2047244094488189
        },
        {
          "duration": 0.15116279069766847,
          "durationTicks": 13,
          "midi": 95,
          "name": "B6",
          "ticks": 20314,
          "time": 236.2093023255814,
          "velocity": 0.13385826771653545
        },
        {
          "duration": 0.034883720930224626,
          "durationTicks": 3,
          "midi": 74,
          "name": "D5",
          "ticks": 20315,
          "time": 236.22093023255815,
          "velocity": 0.07874015748031496
        },
        {
          "duration": 0.023255813953483084,
          "durationTicks": 2,
          "midi": 37,
          "name": "C#2",
          "ticks": 20317,
          "time": 236.24418604651163,
          "velocity": 0.3228346456692913
        },
        {
          "duration": 0.2906976744185954,
          "durationTicks": 25,
          "midi": 48,
          "name": "C3",
          "ticks": 20319,
          "time": 236.2674418604651,
          "velocity": 0.25984251968503935
        },
        {
          "duration": 0.2674418604651123,
          "durationTicks": 23,
          "midi": 64,
          "name": "E4",
          "ticks": 20319,
          "time": 236.2674418604651,
          "velocity": 0.33070866141732286
        },
        {
          "duration": 0.023255813953483084,
          "durationTicks": 2,
          "midi": 35,
          "name": "B1",
          "ticks": 20320,
          "time": 236.27906976744185,
          "velocity": 0.2440944881889764
        },
        {
          "duration": 0.22093023255814614,
          "durationTicks": 19,
          "midi": 36,
          "name": "C2",
          "ticks": 20322,
          "time": 236.30232558139534,
          "velocity": 0.2677165354330709
        },
        {
          "duration": 0.06976744186044925,
          "durationTicks": 6,
          "midi": 57,
          "name": "A3",
          "ticks": 20323,
          "time": 236.3139534883721,
          "velocity": 0.28346456692913385
        },
        {
          "duration": 0.023255813953483084,
          "durationTicks": 2,
          "midi": 57,
          "name": "A3",
          "ticks": 20330,
          "time": 236.3953488372093,
          "velocity": 0.2677165354330709
        },
        {
          "duration": 0.05813953488370771,
          "durationTicks": 5,
          "midi": 57,
          "name": "A3",
          "ticks": 20337,
          "time": 236.47674418604652,
          "velocity": 0.3543307086614173
        },
        {
          "duration": 0.25581395348837077,
          "durationTicks": 22,
          "midi": 72,
          "name": "C5",
          "ticks": 20341,
          "time": 236.52325581395348,
          "velocity": 0.5118110236220472
        },
        {
          "duration": 0.25581395348837077,
          "durationTicks": 22,
          "midi": 77,
          "name": "F5",
          "ticks": 20341,
          "time": 236.52325581395348,
          "velocity": 0.49606299212598426
        },
        {
          "duration": 0.32558139534884845,
          "durationTicks": 28,
          "midi": 88,
          "name": "E6",
          "ticks": 20341,
          "time": 236.52325581395348,
          "velocity": 0.18110236220472442
        },
        {
          "duration": 0.3604651162790731,
          "durationTicks": 31,
          "midi": 93,
          "name": "A6",
          "ticks": 20341,
          "time": 236.52325581395348,
          "velocity": 0.1732283464566929
        },
        {
          "duration": 0.24418604651162923,
          "durationTicks": 21,
          "midi": 60,
          "name": "C4",
          "ticks": 20342,
          "time": 236.53488372093022,
          "velocity": 0.5275590551181102
        },
        {
          "duration": 0.2325581395348877,
          "durationTicks": 20,
          "midi": 65,
          "name": "F4",
          "ticks": 20342,
          "time": 236.53488372093022,
          "velocity": 0.5039370078740157
        },
        {
          "duration": 0.25581395348837077,
          "durationTicks": 22,
          "midi": 79,
          "name": "G5",
          "ticks": 20342,
          "time": 236.53488372093022,
          "velocity": 0.23622047244094488
        },
        {
          "duration": 0.08139534883721922,
          "durationTicks": 7,
          "midi": 94,
          "name": "A#6",
          "ticks": 20342,
          "time": 236.53488372093022,
          "velocity": 0.10236220472440945
        },
        {
          "duration": 0.03488372093025305,
          "durationTicks": 3,
          "midi": 37,
          "name": "C#2",
          "ticks": 20343,
          "time": 236.54651162790697,
          "velocity": 0.28346456692913385
        },
        {
          "duration": 0.06976744186047767,
          "durationTicks": 6,
          "midi": 69,
          "name": "A4",
          "ticks": 20344,
          "time": 236.5581395348837,
          "velocity": 0.23622047244094488
        },
        {
          "duration": 0.17441860465115155,
          "durationTicks": 15,
          "midi": 48,
          "name": "C3",
          "ticks": 20347,
          "time": 236.59302325581396,
          "velocity": 0.12598425196850394
        },
        {
          "duration": 0.16279069767441,
          "durationTicks": 14,
          "midi": 36,
          "name": "C2",
          "ticks": 20348,
          "time": 236.6046511627907,
          "velocity": 0.2283464566929134
        },
        {
          "duration": 0.11627906976744384,
          "durationTicks": 10,
          "midi": 55,
          "name": "G3",
          "ticks": 20352,
          "time": 236.65116279069767,
          "velocity": 0.11811023622047244
        },
        {
          "duration": 0.3953488372092977,
          "durationTicks": 34,
          "midi": 64,
          "name": "E4",
          "ticks": 20362,
          "time": 236.7674418604651,
          "velocity": 0.4881889763779528
        },
        {
          "duration": 0.034883720930224626,
          "durationTicks": 3,
          "midi": 68,
          "name": "G#4",
          "ticks": 20362,
          "time": 236.7674418604651,
          "velocity": 0.1889763779527559
        },
        {
          "duration": 0.5,
          "durationTicks": 43,
          "midi": 76,
          "name": "E5",
          "ticks": 20362,
          "time": 236.7674418604651,
          "velocity": 0.5039370078740157
        },
        {
          "duration": 0.30232558139536536,
          "durationTicks": 26,
          "midi": 83,
          "name": "B5",
          "ticks": 20362,
          "time": 236.7674418604651,
          "velocity": 0.3464566929133858
        },
        {
          "duration": 0.023255813953483084,
          "durationTicks": 2,
          "midi": 45,
          "name": "A2",
          "ticks": 20363,
          "time": 236.77906976744185,
          "velocity": 0.47244094488188976
        },
        {
          "duration": 0.023255813953483084,
          "durationTicks": 2,
          "midi": 53,
          "name": "F3",
          "ticks": 20363,
          "time": 236.77906976744185,
          "velocity": 0.3543307086614173
        },
        {
          "duration": 0.5116279069767415,
          "durationTicks": 44,
          "midi": 59,
          "name": "B3",
          "ticks": 20363,
          "time": 236.77906976744185,
          "velocity": 0.4409448818897638
        },
        {
          "duration": 0.4651162790697754,
          "durationTicks": 40,
          "midi": 71,
          "name": "B4",
          "ticks": 20363,
          "time": 236.77906976744185,
          "velocity": 0.44881889763779526
        },
        {
          "duration": 0.2093023255814046,
          "durationTicks": 18,
          "midi": 81,
          "name": "A5",
          "ticks": 20363,
          "time": 236.77906976744185,
          "velocity": 0.14960629921259844
        },
        {
          "duration": 0.09302325581396076,
          "durationTicks": 8,
          "midi": 85,
          "name": "C#6",
          "ticks": 20363,
          "time": 236.77906976744185,
          "velocity": 0.09448818897637795
        },
        {
          "duration": 0.6860465116279215,
          "durationTicks": 59,
          "midi": 87,
          "name": "D#6",
          "ticks": 20363,
          "time": 236.77906976744185,
          "velocity": 0.31496062992125984
        },
        {
          "duration": 0.09302325581396076,
          "durationTicks": 8,
          "midi": 90,
          "name": "F#6",
          "ticks": 20363,
          "time": 236.77906976744185,
          "velocity": 0.10236220472440945
        },
        {
          "duration": 0.3953488372092977,
          "durationTicks": 34,
          "midi": 92,
          "name": "G#6",
          "ticks": 20363,
          "time": 236.77906976744185,
          "velocity": 0.14173228346456693
        },
        {
          "duration": 0.16279069767443843,
          "durationTicks": 14,
          "midi": 97,
          "name": "C#7",
          "ticks": 20363,
          "time": 236.77906976744185,
          "velocity": 0.14173228346456693
        },
        {
          "duration": 0.09302325581396076,
          "durationTicks": 8,
          "midi": 98,
          "name": "D7",
          "ticks": 20363,
          "time": 236.77906976744185,
          "velocity": 0.12598425196850394
        },
        {
          "duration": 0.8720930232558146,
          "durationTicks": 75,
          "midi": 47,
          "name": "B2",
          "ticks": 20365,
          "time": 236.80232558139534,
          "velocity": 0.4330708661417323
        },
        {
          "duration": 0.8720930232558146,
          "durationTicks": 75,
          "midi": 54,
          "name": "F#3",
          "ticks": 20365,
          "time": 236.80232558139534,
          "velocity": 0.2992125984251969
        },
        {
          "duration": 0.4186046511628092,
          "durationTicks": 36,
          "midi": 69,
          "name": "A4",
          "ticks": 20365,
          "time": 236.80232558139534,
          "velocity": 0.1968503937007874
        },
        {
          "duration": 0.40697674418603924,
          "durationTicks": 35,
          "midi": 78,
          "name": "F#5",
          "ticks": 20368,
          "time": 236.8372093023256,
          "velocity": 0.13385826771653545
        },
        {
          "duration": 0.03488372093025305,
          "durationTicks": 3,
          "midi": 64,
          "name": "E4",
          "ticks": 20397,
          "time": 237.17441860465115,
          "velocity": 0.2047244094488189
        },
        {
          "duration": 0.034883720930224626,
          "durationTicks": 3,
          "midi": 64,
          "name": "E4",
          "ticks": 20401,
          "time": 237.22093023255815,
          "velocity": 0.18110236220472442
        },
        {
          "duration": 0.11627906976744384,
          "durationTicks": 10,
          "midi": 63,
          "name": "D#4",
          "ticks": 20406,
          "time": 237.27906976744185,
          "velocity": 0.08661417322834646
        },
        {
          "duration": 0.6860465116279215,
          "durationTicks": 59,
          "midi": 58,
          "name": "A#3",
          "ticks": 20440,
          "time": 237.67441860465115,
          "velocity": 0.4409448818897638
        },
        {
          "duration": 0.9302325581395507,
          "durationTicks": 80,
          "midi": 70,
          "name": "A#4",
          "ticks": 20440,
          "time": 237.67441860465115,
          "velocity": 0.6062992125984252
        },
        {
          "duration": 1.313953488372107,
          "durationTicks": 113,
          "midi": 77,
          "name": "F5",
          "ticks": 20440,
          "time": 237.67441860465115,
          "velocity": 0.5118110236220472
        },
        {
          "duration": 0.25581395348837077,
          "durationTicks": 22,
          "midi": 80,
          "name": "G#5",
          "ticks": 20440,
          "time": 237.67441860465115,
          "velocity": 0.16535433070866143
        },
        {
          "duration": 0.2790697674418823,
          "durationTicks": 24,
          "midi": 84,
          "name": "C6",
          "ticks": 20440,
          "time": 237.67441860465115,
          "velocity": 0.2755905511811024
        },
        {
          "duration": 0.03488372093025305,
          "durationTicks": 3,
          "midi": 85,
          "name": "C#6",
          "ticks": 20440,
          "time": 237.67441860465115,
          "velocity": 0.1889763779527559
        },
        {
          "duration": 0.05813953488373613,
          "durationTicks": 5,
          "midi": 93,
          "name": "A6",
          "ticks": 20440,
          "time": 237.67441860465115,
          "velocity": 0.18110236220472442
        },
        {
          "duration": 0.023255813953511506,
          "durationTicks": 2,
          "midi": 44,
          "name": "G#2",
          "ticks": 20441,
          "time": 237.6860465116279,
          "velocity": 0.49606299212598426
        },
        {
          "duration": 0.34883720930233153,
          "durationTicks": 30,
          "midi": 65,
          "name": "F4",
          "ticks": 20441,
          "time": 237.6860465116279,
          "velocity": 0.5039370078740157
        },
        {
          "duration": 0.2558139534883992,
          "durationTicks": 22,
          "midi": 74,
          "name": "D5",
          "ticks": 20441,
          "time": 237.6860465116279,
          "velocity": 0.1732283464566929
        },
        {
          "duration": 0.4651162790697754,
          "durationTicks": 40,
          "midi": 86,
          "name": "D6",
          "ticks": 20441,
          "time": 237.6860465116279,
          "velocity": 0.30708661417322836
        },
        {
          "duration": 0.05813953488373613,
          "durationTicks": 5,
          "midi": 99,
          "name": "D#7",
          "ticks": 20441,
          "time": 237.6860465116279,
          "velocity": 0.09448818897637795
        },
        {
          "duration": 0.023255813953483084,
          "durationTicks": 2,
          "midi": 76,
          "name": "E5",
          "ticks": 20442,
          "time": 237.69767441860466,
          "velocity": 0.2440944881889764
        },
        {
          "duration": 0.034883720930224626,
          "durationTicks": 3,
          "midi": 19,
          "name": "G0",
          "ticks": 20443,
          "time": 237.7093023255814,
          "velocity": 0.14960629921259844
        },
        {
          "duration": 0.32558139534882,
          "durationTicks": 28,
          "midi": 53,
          "name": "F3",
          "ticks": 20443,
          "time": 237.7093023255814,
          "velocity": 0.2992125984251969
        },
        {
          "duration": 0.3139534883720785,
          "durationTicks": 27,
          "midi": 46,
          "name": "A#2",
          "ticks": 20444,
          "time": 237.72093023255815,
          "velocity": 0.41732283464566927
        },
        {
          "duration": 0.13953488372092693,
          "durationTicks": 12,
          "midi": 93,
          "name": "A6",
          "ticks": 20447,
          "time": 237.75581395348837,
          "velocity": 0.13385826771653545
        },
        {
          "duration": 0.03488372093025305,
          "durationTicks": 3,
          "midi": 68,
          "name": "G#4",
          "ticks": 20450,
          "time": 237.7906976744186,
          "velocity": 0.11811023622047244
        },
        {
          "duration": 0.16279069767441,
          "durationTicks": 14,
          "midi": 68,
          "name": "G#4",
          "ticks": 20457,
          "time": 237.87209302325581,
          "velocity": 0.07874015748031496
        },
        {
          "duration": 0.04651162790696617,
          "durationTicks": 4,
          "midi": 76,
          "name": "E5",
          "ticks": 20466,
          "time": 237.97674418604652,
          "velocity": 0.09448818897637795
        },
        {
          "duration": 0.34883720930233153,
          "durationTicks": 30,
          "midi": 84,
          "name": "C6",
          "ticks": 20467,
          "time": 237.98837209302326,
          "velocity": 0.1889763779527559
        },
        {
          "duration": 0.023255813953483084,
          "durationTicks": 2,
          "midi": 45,
          "name": "A2",
          "ticks": 20471,
          "time": 238.03488372093022,
          "velocity": 0.25196850393700787
        },
        {
          "duration": 0.17441860465117998,
          "durationTicks": 15,
          "midi": 93,
          "name": "A6",
          "ticks": 20471,
          "time": 238.03488372093022,
          "velocity": 0.2125984251968504
        },
        {
          "duration": 0.9767441860465169,
          "durationTicks": 84,
          "midi": 65,
          "name": "F4",
          "ticks": 20472,
          "time": 238.04651162790697,
          "velocity": 0.5196850393700787
        },
        {
          "duration": 0.1046511627907023,
          "durationTicks": 9,
          "midi": 92,
          "name": "G#6",
          "ticks": 20473,
          "time": 238.0581395348837,
          "velocity": 0.11023622047244094
        },
        {
          "duration": 0.023255813953483084,
          "durationTicks": 2,
          "midi": 45,
          "name": "A2",
          "ticks": 20474,
          "time": 238.06976744186048,
          "velocity": 0.41732283464566927
        },
        {
          "duration": 0.2674418604651123,
          "durationTicks": 23,
          "midi": 53,
          "name": "F3",
          "ticks": 20476,
          "time": 238.09302325581396,
          "velocity": 0.1732283464566929
        },
        {
          "duration": 0.25581395348837077,
          "durationTicks": 22,
          "midi": 46,
          "name": "A#2",
          "ticks": 20478,
          "time": 238.11627906976744,
          "velocity": 0.30708661417322836
        },
        {
          "duration": 0.05813953488373613,
          "durationTicks": 5,
          "midi": 86,
          "name": "D6",
          "ticks": 20482,
          "time": 238.1627906976744,
          "velocity": 0.16535433070866143
        },
        {
          "duration": 0.04651162790696617,
          "durationTicks": 4,
          "midi": 86,
          "name": "D6",
          "ticks": 20489,
          "time": 238.24418604651163,
          "velocity": 0.12598425196850394
        },
        {
          "duration": 0.04651162790696617,
          "durationTicks": 4,
          "midi": 86,
          "name": "D6",
          "ticks": 20495,
          "time": 238.3139534883721,
          "velocity": 0.08661417322834646
        },
        {
          "duration": 0.9534883720930338,
          "durationTicks": 82,
          "midi": 84,
          "name": "C6",
          "ticks": 20500,
          "time": 238.37209302325581,
          "velocity": 0.30708661417322836
        },
        {
          "duration": 0.17441860465115155,
          "durationTicks": 15,
          "midi": 86,
          "name": "D6",
          "ticks": 20500,
          "time": 238.37209302325581,
          "velocity": 0.1889763779527559
        },
        {
          "duration": 0.5232558139534831,
          "durationTicks": 45,
          "midi": 93,
          "name": "A6",
          "ticks": 20500,
          "time": 238.37209302325581,
          "velocity": 0.2047244094488189
        },
        {
          "duration": 0.05813953488373613,
          "durationTicks": 5,
          "midi": 99,
          "name": "D#7",
          "ticks": 20501,
          "time": 238.38372093023256,
          "velocity": 0.09448818897637795
        },
        {
          "duration": 0.5581395348837361,
          "durationTicks": 48,
          "midi": 58,
          "name": "A#3",
          "ticks": 20502,
          "time": 238.3953488372093,
          "velocity": 0.4330708661417323
        },
        {
          "duration": 0.09302325581396076,
          "durationTicks": 8,
          "midi": 92,
          "name": "G#6",
          "ticks": 20502,
          "time": 238.3953488372093,
          "velocity": 0.14173228346456693
        },
        {
          "duration": 0.15116279069766847,
          "durationTicks": 13,
          "midi": 46,
          "name": "A#2",
          "ticks": 20507,
          "time": 238.45348837209303,
          "velocity": 0.2755905511811024
        },
        {
          "duration": 0.13953488372092693,
          "durationTicks": 12,
          "midi": 53,
          "name": "F3",
          "ticks": 20508,
          "time": 238.46511627906978,
          "velocity": 0.11811023622047244
        },
        {
          "duration": 0.06976744186044925,
          "durationTicks": 6,
          "midi": 82,
          "name": "A#5",
          "ticks": 20520,
          "time": 238.6046511627907,
          "velocity": 0.2204724409448819
        },
        {
          "duration": 0.1860465116278931,
          "durationTicks": 16,
          "midi": 86,
          "name": "D6",
          "ticks": 20520,
          "time": 238.6046511627907,
          "velocity": 0.2047244094488189
        },
        {
          "duration": 0.33720930232559,
          "durationTicks": 29,
          "midi": 70,
          "name": "A#4",
          "ticks": 20521,
          "time": 238.61627906976744,
          "velocity": 0.5748031496062992
        },
        {
          "duration": 0.09302325581396076,
          "durationTicks": 8,
          "midi": 92,
          "name": "G#6",
          "ticks": 20522,
          "time": 238.62790697674419,
          "velocity": 0.12598425196850394
        },
        {
          "duration": 0.023255813953483084,
          "durationTicks": 2,
          "midi": 45,
          "name": "A2",
          "ticks": 20523,
          "time": 238.63953488372093,
          "velocity": 0.3858267716535433
        },
        {
          "duration": 0.5813953488372192,
          "durationTicks": 50,
          "midi": 46,
          "name": "A#2",
          "ticks": 20527,
          "time": 238.6860465116279,
          "velocity": 0.2440944881889764
        },
        {
          "duration": 0.33720930232556157,
          "durationTicks": 29,
          "midi": 79,
          "name": "G5",
          "ticks": 20549,
          "time": 238.9418604651163,
          "velocity": 0.2283464566929134
        },
        {
          "duration": 0.15116279069766847,
          "durationTicks": 13,
          "midi": 96,
          "name": "C7",
          "ticks": 20549,
          "time": 238.9418604651163,
          "velocity": 0.31496062992125984
        },
        {
          "duration": 0.1860465116278931,
          "durationTicks": 16,
          "midi": 100,
          "name": "E7",
          "ticks": 20549,
          "time": 238.9418604651163,
          "velocity": 0.33070866141732286
        },
        {
          "duration": 0.32558139534882,
          "durationTicks": 28,
          "midi": 60,
          "name": "C4",
          "ticks": 20550,
          "time": 238.95348837209303,
          "velocity": 0.5039370078740157
        },
        {
          "duration": 0.3139534883720785,
          "durationTicks": 27,
          "midi": 88,
          "name": "E6",
          "ticks": 20550,
          "time": 238.95348837209303,
          "velocity": 0.1732283464566929
        },
        {
          "duration": 0.0813953488371908,
          "durationTicks": 7,
          "midi": 94,
          "name": "A#6",
          "ticks": 20551,
          "time": 238.96511627906978,
          "velocity": 0.10236220472440945
        },
        {
          "duration": 0.034883720930224626,
          "durationTicks": 3,
          "midi": 53,
          "name": "F3",
          "ticks": 20552,
          "time": 238.97674418604652,
          "velocity": 0.07086614173228346
        },
        {
          "duration": 0.25581395348837077,
          "durationTicks": 22,
          "midi": 70,
          "name": "A#4",
          "ticks": 20578,
          "time": 239.27906976744185,
          "velocity": 0.6062992125984252
        },
        {
          "duration": 0.04651162790699459,
          "durationTicks": 4,
          "midi": 75,
          "name": "D#5",
          "ticks": 20578,
          "time": 239.27906976744185,
          "velocity": 0.2440944881889764
        },
        {
          "duration": 0.4418604651162923,
          "durationTicks": 38,
          "midi": 83,
          "name": "B5",
          "ticks": 20578,
          "time": 239.27906976744185,
          "velocity": 0.30708661417322836
        },
        {
          "duration": 0.19767441860466306,
          "durationTicks": 17,
          "midi": 86,
          "name": "D6",
          "ticks": 20578,
          "time": 239.27906976744185,
          "velocity": 0.1968503937007874
        },
        {
          "duration": 0.24418604651162923,
          "durationTicks": 21,
          "midi": 89,
          "name": "F6",
          "ticks": 20579,
          "time": 239.2906976744186,
          "velocity": 0.25196850393700787
        },
        {
          "duration": 0.08139534883721922,
          "durationTicks": 7,
          "midi": 94,
          "name": "A#6",
          "ticks": 20579,
          "time": 239.2906976744186,
          "velocity": 0.2047244094488189
        },
        {
          "duration": 0.22093023255814614,
          "durationTicks": 19,
          "midi": 65,
          "name": "F4",
          "ticks": 20580,
          "time": 239.30232558139534,
          "velocity": 0.1889763779527559
        },
        {
          "duration": 0.04651162790699459,
          "durationTicks": 4,
          "midi": 81,
          "name": "A5",
          "ticks": 20580,
          "time": 239.30232558139534,
          "velocity": 0.1968503937007874
        },
        {
          "duration": 0.08139534883721922,
          "durationTicks": 7,
          "midi": 92,
          "name": "G#6",
          "ticks": 20580,
          "time": 239.30232558139534,
          "velocity": 0.14960629921259844
        },
        {
          "duration": 0.0813953488371908,
          "durationTicks": 7,
          "midi": 58,
          "name": "A#3",
          "ticks": 20581,
          "time": 239.3139534883721,
          "velocity": 0.3779527559055118
        },
        {
          "duration": 0.034883720930224626,
          "durationTicks": 3,
          "midi": 72,
          "name": "C5",
          "ticks": 20582,
          "time": 239.32558139534885,
          "velocity": 0.30708661417322836
        },
        {
          "duration": 0.023255813953483084,
          "durationTicks": 2,
          "midi": 50,
          "name": "D3",
          "ticks": 20584,
          "time": 239.34883720930233,
          "velocity": 0.25984251968503935
        },
        {
          "duration": 0.16279069767441,
          "durationTicks": 14,
          "midi": 43,
          "name": "G2",
          "ticks": 20585,
          "time": 239.36046511627907,
          "velocity": 0.3858267716535433
        },
        {
          "duration": 0.04651162790696617,
          "durationTicks": 4,
          "midi": 72,
          "name": "C5",
          "ticks": 20586,
          "time": 239.37209302325581,
          "velocity": 0.25984251968503935
        },
        {
          "duration": 0.05813953488373613,
          "durationTicks": 5,
          "midi": 58,
          "name": "A#3",
          "ticks": 20589,
          "time": 239.40697674418604,
          "velocity": 0.2992125984251969
        },
        {
          "duration": 0.04651162790699459,
          "durationTicks": 4,
          "midi": 50,
          "name": "D3",
          "ticks": 20591,
          "time": 239.43023255813952,
          "velocity": 0.2440944881889764
        },
        {
          "duration": 0.034883720930224626,
          "durationTicks": 3,
          "midi": 72,
          "name": "C5",
          "ticks": 20592,
          "time": 239.4418604651163,
          "velocity": 0.1889763779527559
        },
        {
          "duration": 0.16279069767441,
          "durationTicks": 14,
          "midi": 73,
          "name": "C#5",
          "ticks": 20595,
          "time": 239.47674418604652,
          "velocity": 0.14173228346456693
        },
        {
          "duration": 0.04651162790696617,
          "durationTicks": 4,
          "midi": 58,
          "name": "A#3",
          "ticks": 20596,
          "time": 239.48837209302326,
          "velocity": 0.44881889763779526
        },
        {
          "duration": 0.4186046511628092,
          "durationTicks": 36,
          "midi": 76,
          "name": "E5",
          "ticks": 20599,
          "time": 239.52325581395348,
          "velocity": 0.5196850393700787
        },
        {
          "duration": 0.25581395348837077,
          "durationTicks": 22,
          "midi": 79,
          "name": "G5",
          "ticks": 20599,
          "time": 239.52325581395348,
          "velocity": 0.16535433070866143
        },
        {
          "duration": 0.11627906976744384,
          "durationTicks": 10,
          "midi": 81,
          "name": "A5",
          "ticks": 20599,
          "time": 239.52325581395348,
          "velocity": 0.18110236220472442
        },
        {
          "duration": 0.7209302325581461,
          "durationTicks": 62,
          "midi": 85,
          "name": "C#6",
          "ticks": 20599,
          "time": 239.52325581395348,
          "velocity": 0.2992125984251969
        },
        {
          "duration": 0.24418604651162923,
          "durationTicks": 21,
          "midi": 92,
          "name": "G#6",
          "ticks": 20599,
          "time": 239.52325581395348,
          "velocity": 0.14960629921259844
        },
        {
          "duration": 0.08139534883721922,
          "durationTicks": 7,
          "midi": 98,
          "name": "D7",
          "ticks": 20599,
          "time": 239.52325581395348,
          "velocity": 0.11811023622047244
        },
        {
          "duration": 0.7674418604651123,
          "durationTicks": 66,
          "midi": 57,
          "name": "A3",
          "ticks": 20600,
          "time": 239.53488372093022,
          "velocity": 0.4645669291338583
        },
        {
          "duration": 0.6046511627907023,
          "durationTicks": 52,
          "midi": 64,
          "name": "E4",
          "ticks": 20600,
          "time": 239.53488372093022,
          "velocity": 0.5039370078740157
        },
        {
          "duration": 0.5581395348837361,
          "durationTicks": 48,
          "midi": 69,
          "name": "A4",
          "ticks": 20600,
          "time": 239.53488372093022,
          "velocity": 0.5905511811023622
        },
        {
          "duration": 0.023255813953511506,
          "durationTicks": 2,
          "midi": 45,
          "name": "A2",
          "ticks": 20601,
          "time": 239.54651162790697,
          "velocity": 0.4645669291338583
        },
        {
          "duration": 0.023255813953511506,
          "durationTicks": 2,
          "midi": 77,
          "name": "F5",
          "ticks": 20601,
          "time": 239.54651162790697,
          "velocity": 0.2677165354330709
        },
        {
          "duration": 1.197674418604663,
          "durationTicks": 103,
          "midi": 52,
          "name": "E3",
          "ticks": 20602,
          "time": 239.5581395348837,
          "velocity": 0.33858267716535434
        },
        {
          "duration": 0.03488372093025305,
          "durationTicks": 3,
          "midi": 75,
          "name": "D#5",
          "ticks": 20602,
          "time": 239.5581395348837,
          "velocity": 0.23622047244094488
        },
        {
          "duration": 0.034883720930224626,
          "durationTicks": 3,
          "midi": 45,
          "name": "A2",
          "ticks": 20606,
          "time": 239.6046511627907,
          "velocity": 0.41732283464566927
        },
        {
          "duration": 0.034883720930224626,
          "durationTicks": 3,
          "midi": 75,
          "name": "D#5",
          "ticks": 20607,
          "time": 239.61627906976744,
          "velocity": 0.1968503937007874
        },
        {
          "duration": 1.2441860465116292,
          "durationTicks": 107,
          "midi": 45,
          "name": "A2",
          "ticks": 20610,
          "time": 239.65116279069767,
          "velocity": 0.3937007874015748
        },
        {
          "duration": 0.05813953488370771,
          "durationTicks": 5,
          "midi": 95,
          "name": "B6",
          "ticks": 20617,
          "time": 239.7325581395349,
          "velocity": 0.09448818897637795
        },
        {
          "duration": 0.034883720930224626,
          "durationTicks": 3,
          "midi": 75,
          "name": "D#5",
          "ticks": 20618,
          "time": 239.74418604651163,
          "velocity": 0.13385826771653545
        },
        {
          "duration": 0.08139534883721922,
          "durationTicks": 7,
          "midi": 83,
          "name": "B5",
          "ticks": 20618,
          "time": 239.74418604651163,
          "velocity": 0.13385826771653545
        },
        {
          "duration": 0.4302325581395223,
          "durationTicks": 37,
          "midi": 75,
          "name": "D#5",
          "ticks": 20625,
          "time": 239.82558139534885,
          "velocity": 0.10236220472440945
        },
        {
          "duration": 0.05813953488370771,
          "durationTicks": 5,
          "midi": 83,
          "name": "B5",
          "ticks": 20627,
          "time": 239.84883720930233,
          "velocity": 0.08661417322834646
        },
        {
          "duration": 0.3720930232558146,
          "durationTicks": 32,
          "midi": 61,
          "name": "C#4",
          "ticks": 20631,
          "time": 239.8953488372093,
          "velocity": 0.07874015748031496
        },
        {
          "duration": 0.24418604651162923,
          "durationTicks": 21,
          "midi": 76,
          "name": "E5",
          "ticks": 20717,
          "time": 240.8953488372093,
          "velocity": 0.07086614173228346
        },
        {
          "duration": 0.24418604651162923,
          "durationTicks": 21,
          "midi": 57,
          "name": "A3",
          "ticks": 20757,
          "time": 241.36046511627907,
          "velocity": 0.30708661417322836
        },
        {
          "duration": 0.44186046511626387,
          "durationTicks": 38,
          "midi": 86,
          "name": "D6",
          "ticks": 20757,
          "time": 241.36046511627907,
          "velocity": 0.31496062992125984
        },
        {
          "duration": 0.16279069767441,
          "durationTicks": 14,
          "midi": 93,
          "name": "A6",
          "ticks": 20757,
          "time": 241.36046511627907,
          "velocity": 0.29133858267716534
        },
        {
          "duration": 0.15116279069766847,
          "durationTicks": 13,
          "midi": 102,
          "name": "F#7",
          "ticks": 20757,
          "time": 241.36046511627907,
          "velocity": 0.2755905511811024
        },
        {
          "duration": 0.19767441860466306,
          "durationTicks": 17,
          "midi": 62,
          "name": "D4",
          "ticks": 20758,
          "time": 241.37209302325581,
          "velocity": 0.25984251968503935
        },
        {
          "duration": 0.19767441860466306,
          "durationTicks": 17,
          "midi": 66,
          "name": "F#4",
          "ticks": 20758,
          "time": 241.37209302325581,
          "velocity": 0.2047244094488189
        },
        {
          "duration": 0.04651162790696617,
          "durationTicks": 4,
          "midi": 72,
          "name": "C5",
          "ticks": 20758,
          "time": 241.37209302325581,
          "velocity": 0.28346456692913385
        },
        {
          "duration": 0.9186046511627808,
          "durationTicks": 79,
          "midi": 74,
          "name": "D5",
          "ticks": 20758,
          "time": 241.37209302325581,
          "velocity": 0.4566929133858268
        },
        {
          "duration": 0.04651162790696617,
          "durationTicks": 4,
          "midi": 90,
          "name": "F#6",
          "ticks": 20758,
          "time": 241.37209302325581,
          "velocity": 0.08661417322834646
        },
        {
          "duration": 0.25581395348837077,
          "durationTicks": 22,
          "midi": 50,
          "name": "D3",
          "ticks": 20759,
          "time": 241.38372093023256,
          "velocity": 0.44881889763779526
        },
        {
          "duration": 0.1046511627907023,
          "durationTicks": 9,
          "midi": 82,
          "name": "A#5",
          "ticks": 20759,
          "time": 241.38372093023256,
          "velocity": 0.11023622047244094
        },
        {
          "duration": 0.034883720930224626,
          "durationTicks": 3,
          "midi": 39,
          "name": "D#2",
          "ticks": 20760,
          "time": 241.3953488372093,
          "velocity": 0.4251968503937008
        },
        {
          "duration": 0.1046511627907023,
          "durationTicks": 9,
          "midi": 80,
          "name": "G#5",
          "ticks": 20760,
          "time": 241.3953488372093,
          "velocity": 0.07874015748031496
        },
        {
          "duration": 0.08139534883721922,
          "durationTicks": 7,
          "midi": 76,
          "name": "E5",
          "ticks": 20761,
          "time": 241.40697674418604,
          "velocity": 0.07086614173228346
        },
        {
          "duration": 0.06976744186044925,
          "durationTicks": 6,
          "midi": 72,
          "name": "C5",
          "ticks": 20764,
          "time": 241.4418604651163,
          "velocity": 0.07874015748031496
        },
        {
          "duration": 0.06976744186044925,
          "durationTicks": 6,
          "midi": 38,
          "name": "D2",
          "ticks": 20765,
          "time": 241.45348837209303,
          "velocity": 0.3700787401574803
        },
        {
          "duration": 0.08139534883721922,
          "durationTicks": 7,
          "midi": 38,
          "name": "D2",
          "ticks": 20773,
          "time": 241.54651162790697,
          "velocity": 0.14173228346456693
        },
        {
          "duration": 0.023255813953483084,
          "durationTicks": 2,
          "midi": 48,
          "name": "C3",
          "ticks": 20786,
          "time": 241.69767441860466,
          "velocity": 0.44881889763779526
        },
        {
          "duration": 0.24418604651162923,
          "durationTicks": 21,
          "midi": 57,
          "name": "A3",
          "ticks": 20786,
          "time": 241.69767441860466,
          "velocity": 0.33070866141732286
        },
        {
          "duration": 0.19767441860463464,
          "durationTicks": 17,
          "midi": 62,
          "name": "D4",
          "ticks": 20787,
          "time": 241.7093023255814,
          "velocity": 0.25196850393700787
        },
        {
          "duration": 0.19767441860463464,
          "durationTicks": 17,
          "midi": 66,
          "name": "F#4",
          "ticks": 20787,
          "time": 241.7093023255814,
          "velocity": 0.2047244094488189
        },
        {
          "duration": 0.15116279069766847,
          "durationTicks": 13,
          "midi": 72,
          "name": "C5",
          "ticks": 20787,
          "time": 241.7093023255814,
          "velocity": 0.14960629921259844
        },
        {
          "duration": 0.09302325581393234,
          "durationTicks": 8,
          "midi": 93,
          "name": "A6",
          "ticks": 20787,
          "time": 241.7093023255814,
          "velocity": 0.16535433070866143
        },
        {
          "duration": 0.25581395348837077,
          "durationTicks": 22,
          "midi": 50,
          "name": "D3",
          "ticks": 20788,
          "time": 241.72093023255815,
          "velocity": 0.44881889763779526
        },
        {
          "duration": 0.034883720930224626,
          "durationTicks": 3,
          "midi": 39,
          "name": "D#2",
          "ticks": 20789,
          "time": 241.7325581395349,
          "velocity": 0.4251968503937008
        },
        {
          "duration": 0.1046511627907023,
          "durationTicks": 9,
          "midi": 80,
          "name": "G#5",
          "ticks": 20789,
          "time": 241.7325581395349,
          "velocity": 0.09448818897637795
        },
        {
          "duration": 0.09302325581396076,
          "durationTicks": 8,
          "midi": 38,
          "name": "D2",
          "ticks": 20792,
          "time": 241.7674418604651,
          "velocity": 0.4015748031496063
        },
        {
          "duration": 0.06976744186047767,
          "durationTicks": 6,
          "midi": 76,
          "name": "E5",
          "ticks": 20792,
          "time": 241.7674418604651,
          "velocity": 0.07086614173228346
        },
        {
          "duration": 0.1046511627907023,
          "durationTicks": 9,
          "midi": 38,
          "name": "D2",
          "ticks": 20801,
          "time": 241.87209302325581,
          "velocity": 0.14960629921259844
        },
        {
          "duration": 0.023255813953483084,
          "durationTicks": 2,
          "midi": 48,
          "name": "C3",
          "ticks": 20815,
          "time": 242.03488372093022,
          "velocity": 0.44881889763779526
        },
        {
          "duration": 0.24418604651162923,
          "durationTicks": 21,
          "midi": 57,
          "name": "A3",
          "ticks": 20815,
          "time": 242.03488372093022,
          "velocity": 0.33070866141732286
        },
        {
          "duration": 0.19767441860466306,
          "durationTicks": 17,
          "midi": 62,
          "name": "D4",
          "ticks": 20816,
          "time": 242.04651162790697,
          "velocity": 0.2440944881889764
        },
        {
          "duration": 0.19767441860466306,
          "durationTicks": 17,
          "midi": 66,
          "name": "F#4",
          "ticks": 20816,
          "time": 242.04651162790697,
          "velocity": 0.1968503937007874
        },
        {
          "duration": 0.1511627906976969,
          "durationTicks": 13,
          "midi": 72,
          "name": "C5",
          "ticks": 20816,
          "time": 242.04651162790697,
          "velocity": 0.15748031496062992
        },
        {
          "duration": 0.08139534883721922,
          "durationTicks": 7,
          "midi": 93,
          "name": "A6",
          "ticks": 20816,
          "time": 242.04651162790697,
          "velocity": 0.11811023622047244
        },
        {
          "duration": 0.24418604651162923,
          "durationTicks": 21,
          "midi": 50,
          "name": "D3",
          "ticks": 20817,
          "time": 242.0581395348837,
          "velocity": 0.44881889763779526
        },
        {
          "duration": 0.034883720930224626,
          "durationTicks": 3,
          "midi": 39,
          "name": "D#2",
          "ticks": 20818,
          "time": 242.06976744186048,
          "velocity": 0.4251968503937008
        },
        {
          "duration": 0.10465116279067388,
          "durationTicks": 9,
          "midi": 80,
          "name": "G#5",
          "ticks": 20818,
          "time": 242.06976744186048,
          "velocity": 0.08661417322834646
        },
        {
          "duration": 0.09302325581396076,
          "durationTicks": 8,
          "midi": 38,
          "name": "D2",
          "ticks": 20821,
          "time": 242.1046511627907,
          "velocity": 0.4015748031496063
        },
        {
          "duration": 0.06976744186044925,
          "durationTicks": 6,
          "midi": 76,
          "name": "E5",
          "ticks": 20821,
          "time": 242.1046511627907,
          "velocity": 0.07086614173228346
        },
        {
          "duration": 0.06976744186044925,
          "durationTicks": 6,
          "midi": 38,
          "name": "D2",
          "ticks": 20830,
          "time": 242.2093023255814,
          "velocity": 0.14960629921259844
        },
        {
          "duration": 0.40697674418603924,
          "durationTicks": 35,
          "midi": 85,
          "name": "C#6",
          "ticks": 20836,
          "time": 242.27906976744185,
          "velocity": 0.30708661417322836
        },
        {
          "duration": 0.16279069767443843,
          "durationTicks": 14,
          "midi": 101,
          "name": "F7",
          "ticks": 20836,
          "time": 242.27906976744185,
          "velocity": 0.29133858267716534
        },
        {
          "duration": 0.4767441860465169,
          "durationTicks": 41,
          "midi": 73,
          "name": "C#5",
          "ticks": 20837,
          "time": 242.2906976744186,
          "velocity": 0.4645669291338583
        },
        {
          "duration": 0.17441860465117998,
          "durationTicks": 15,
          "midi": 92,
          "name": "G#6",
          "ticks": 20837,
          "time": 242.2906976744186,
          "velocity": 0.2283464566929134
        },
        {
          "duration": 0.25581395348837077,
          "durationTicks": 22,
          "midi": 57,
          "name": "A3",
          "ticks": 20844,
          "time": 242.37209302325581,
          "velocity": 0.33070866141732286
        },
        {
          "duration": 0.2093023255814046,
          "durationTicks": 18,
          "midi": 62,
          "name": "D4",
          "ticks": 20845,
          "time": 242.38372093023256,
          "velocity": 0.25196850393700787
        },
        {
          "duration": 0.2093023255814046,
          "durationTicks": 18,
          "midi": 66,
          "name": "F#4",
          "ticks": 20845,
          "time": 242.38372093023256,
          "velocity": 0.1968503937007874
        },
        {
          "duration": 0.08139534883721922,
          "durationTicks": 7,
          "midi": 93,
          "name": "A6",
          "ticks": 20845,
          "time": 242.38372093023256,
          "velocity": 0.11811023622047244
        },
        {
          "duration": 0.2674418604651123,
          "durationTicks": 23,
          "midi": 50,
          "name": "D3",
          "ticks": 20846,
          "time": 242.3953488372093,
          "velocity": 0.44881889763779526
        },
        {
          "duration": 0.11627906976744384,
          "durationTicks": 10,
          "midi": 76,
          "name": "E5",
          "ticks": 20846,
          "time": 242.3953488372093,
          "velocity": 0.07086614173228346
        },
        {
          "duration": 0.05813953488373613,
          "durationTicks": 5,
          "midi": 84,
          "name": "C6",
          "ticks": 20846,
          "time": 242.3953488372093,
          "velocity": 0.07874015748031496
        },
        {
          "duration": 0.03488372093025305,
          "durationTicks": 3,
          "midi": 39,
          "name": "D#2",
          "ticks": 20847,
          "time": 242.40697674418604,
          "velocity": 0.4251968503937008
        },
        {
          "duration": 0.11627906976744384,
          "durationTicks": 10,
          "midi": 80,
          "name": "G#5",
          "ticks": 20847,
          "time": 242.40697674418604,
          "velocity": 0.08661417322834646
        },
        {
          "duration": 0.0813953488371908,
          "durationTicks": 7,
          "midi": 38,
          "name": "D2",
          "ticks": 20850,
          "time": 242.4418604651163,
          "velocity": 0.4015748031496063
        },
        {
          "duration": 0.034883720930224626,
          "durationTicks": 3,
          "midi": 37,
          "name": "C#2",
          "ticks": 20857,
          "time": 242.52325581395348,
          "velocity": 0.2204724409448819
        },
        {
          "duration": 0.09302325581396076,
          "durationTicks": 8,
          "midi": 38,
          "name": "D2",
          "ticks": 20860,
          "time": 242.5581395348837,
          "velocity": 0.14960629921259844
        },
        {
          "duration": 0.1046511627907023,
          "durationTicks": 9,
          "midi": 60,
          "name": "C4",
          "ticks": 20875,
          "time": 242.7325581395349,
          "velocity": 0.31496062992125984
        },
        {
          "duration": 0.1046511627907023,
          "durationTicks": 9,
          "midi": 65,
          "name": "F4",
          "ticks": 20875,
          "time": 242.7325581395349,
          "velocity": 0.2677165354330709
        },
        {
          "duration": 0.1046511627907023,
          "durationTicks": 9,
          "midi": 69,
          "name": "A4",
          "ticks": 20876,
          "time": 242.74418604651163,
          "velocity": 0.2047244094488189
        },
        {
          "duration": 0.034883720930224626,
          "durationTicks": 3,
          "midi": 75,
          "name": "D#5",
          "ticks": 20876,
          "time": 242.74418604651163,
          "velocity": 0.12598425196850394
        },
        {
          "duration": 0.09302325581396076,
          "durationTicks": 8,
          "midi": 83,
          "name": "B5",
          "ticks": 20876,
          "time": 242.74418604651163,
          "velocity": 0.11023622047244094
        },
        {
          "duration": 0.04651162790696617,
          "durationTicks": 4,
          "midi": 42,
          "name": "F#2",
          "ticks": 20877,
          "time": 242.75581395348837,
          "velocity": 0.4409448818897638
        },
        {
          "duration": 0.09302325581396076,
          "durationTicks": 8,
          "midi": 53,
          "name": "F3",
          "ticks": 20877,
          "time": 242.75581395348837,
          "velocity": 0.4645669291338583
        },
        {
          "duration": 0.04651162790699459,
          "durationTicks": 4,
          "midi": 96,
          "name": "C7",
          "ticks": 20878,
          "time": 242.7674418604651,
          "velocity": 0.11811023622047244
        },
        {
          "duration": 0.18604651162792152,
          "durationTicks": 16,
          "midi": 73,
          "name": "C#5",
          "ticks": 20879,
          "time": 242.77906976744185,
          "velocity": 0.2440944881889764
        },
        {
          "duration": 0.3953488372092977,
          "durationTicks": 34,
          "midi": 75,
          "name": "D#5",
          "ticks": 20880,
          "time": 242.7906976744186,
          "velocity": 0.2047244094488189
        },
        {
          "duration": 0.2790697674418823,
          "durationTicks": 24,
          "midi": 79,
          "name": "G5",
          "ticks": 20880,
          "time": 242.7906976744186,
          "velocity": 0.11811023622047244
        },
        {
          "duration": 0.03488372093025305,
          "durationTicks": 3,
          "midi": 41,
          "name": "F2",
          "ticks": 20881,
          "time": 242.80232558139534,
          "velocity": 0.4094488188976378
        },
        {
          "duration": 0.011627906976741542,
          "durationTicks": 1,
          "midi": 52,
          "name": "E3",
          "ticks": 20885,
          "time": 242.84883720930233,
          "velocity": 0.5118110236220472
        },
        {
          "duration": 0.1046511627907023,
          "durationTicks": 9,
          "midi": 60,
          "name": "C4",
          "ticks": 20885,
          "time": 242.84883720930233,
          "velocity": 0.3464566929133858
        },
        {
          "duration": 0.09302325581396076,
          "durationTicks": 8,
          "midi": 88,
          "name": "E6",
          "ticks": 20885,
          "time": 242.84883720930233,
          "velocity": 0.08661417322834646
        },
        {
          "duration": 0.06976744186044925,
          "durationTicks": 6,
          "midi": 93,
          "name": "A6",
          "ticks": 20885,
          "time": 242.84883720930233,
          "velocity": 0.08661417322834646
        },
        {
          "duration": 0.09302325581396076,
          "durationTicks": 8,
          "midi": 96,
          "name": "C7",
          "ticks": 20885,
          "time": 242.84883720930233,
          "velocity": 0.11811023622047244
        },
        {
          "duration": 0.1046511627907023,
          "durationTicks": 9,
          "midi": 53,
          "name": "F3",
          "ticks": 20886,
          "time": 242.86046511627907,
          "velocity": 0.49606299212598426
        },
        {
          "duration": 0.08139534883721922,
          "durationTicks": 7,
          "midi": 69,
          "name": "A4",
          "ticks": 20888,
          "time": 242.88372093023256,
          "velocity": 0.11811023622047244
        },
        {
          "duration": 0.05813953488373613,
          "durationTicks": 5,
          "midi": 41,
          "name": "F2",
          "ticks": 20889,
          "time": 242.8953488372093,
          "velocity": 0.47244094488188976
        },
        {
          "duration": 0.023255813953483084,
          "durationTicks": 2,
          "midi": 59,
          "name": "B3",
          "ticks": 20894,
          "time": 242.95348837209303,
          "velocity": 0.2992125984251969
        },
        {
          "duration": 0.034883720930224626,
          "durationTicks": 3,
          "midi": 72,
          "name": "C5",
          "ticks": 20895,
          "time": 242.96511627906978,
          "velocity": 0.23622047244094488
        },
        {
          "duration": 0.22093023255811772,
          "durationTicks": 19,
          "midi": 83,
          "name": "B5",
          "ticks": 20895,
          "time": 242.96511627906978,
          "velocity": 0.16535433070866143
        },
        {
          "duration": 0.1046511627907023,
          "durationTicks": 9,
          "midi": 53,
          "name": "F3",
          "ticks": 20896,
          "time": 242.97674418604652,
          "velocity": 0.48031496062992124
        },
        {
          "duration": 0.1046511627907023,
          "durationTicks": 9,
          "midi": 60,
          "name": "C4",
          "ticks": 20896,
          "time": 242.97674418604652,
          "velocity": 0.2755905511811024
        },
        {
          "duration": 0.34883720930233153,
          "durationTicks": 30,
          "midi": 69,
          "name": "A4",
          "ticks": 20896,
          "time": 242.97674418604652,
          "velocity": 0.2755905511811024
        },
        {
          "duration": 0.09302325581396076,
          "durationTicks": 8,
          "midi": 88,
          "name": "E6",
          "ticks": 20896,
          "time": 242.97674418604652,
          "velocity": 0.08661417322834646
        },
        {
          "duration": 0.05813953488370771,
          "durationTicks": 5,
          "midi": 96,
          "name": "C7",
          "ticks": 20896,
          "time": 242.97674418604652,
          "velocity": 0.12598425196850394
        },
        {
          "duration": 0.09302325581396076,
          "durationTicks": 8,
          "midi": 41,
          "name": "F2",
          "ticks": 20897,
          "time": 242.98837209302326,
          "velocity": 0.48031496062992124
        },
        {
          "duration": 0.03488372093025305,
          "durationTicks": 3,
          "midi": 73,
          "name": "C#5",
          "ticks": 20902,
          "time": 243.04651162790697,
          "velocity": 0.1889763779527559
        },
        {
          "duration": 0.023255813953483084,
          "durationTicks": 2,
          "midi": 52,
          "name": "E3",
          "ticks": 20905,
          "time": 243.08139534883722,
          "velocity": 0.4881889763779528
        },
        {
          "duration": 0.023255813953483084,
          "durationTicks": 2,
          "midi": 59,
          "name": "B3",
          "ticks": 20905,
          "time": 243.08139534883722,
          "velocity": 0.29133858267716534
        },
        {
          "duration": 0.0813953488371908,
          "durationTicks": 7,
          "midi": 72,
          "name": "C5",
          "ticks": 20905,
          "time": 243.08139534883722,
          "velocity": 0.2440944881889764
        },
        {
          "duration": 0.05813953488370771,
          "durationTicks": 5,
          "midi": 93,
          "name": "A6",
          "ticks": 20906,
          "time": 243.09302325581396,
          "velocity": 0.07086614173228346
        },
        {
          "duration": 0.0813953488371908,
          "durationTicks": 7,
          "midi": 53,
          "name": "F3",
          "ticks": 20907,
          "time": 243.1046511627907,
          "velocity": 0.4645669291338583
        },
        {
          "duration": 0.0813953488371908,
          "durationTicks": 7,
          "midi": 60,
          "name": "C4",
          "ticks": 20907,
          "time": 243.1046511627907,
          "velocity": 0.2677165354330709
        },
        {
          "duration": 0.04651162790696617,
          "durationTicks": 4,
          "midi": 96,
          "name": "C7",
          "ticks": 20908,
          "time": 243.11627906976744,
          "velocity": 0.11023622047244094
        },
        {
          "duration": 0.04651162790696617,
          "durationTicks": 4,
          "midi": 41,
          "name": "F2",
          "ticks": 20910,
          "time": 243.13953488372093,
          "velocity": 0.48031496062992124
        },
        {
          "duration": 0.9418604651162923,
          "durationTicks": 81,
          "midi": 72,
          "name": "C5",
          "ticks": 20913,
          "time": 243.17441860465115,
          "velocity": 0.44881889763779526
        },
        {
          "duration": 0.023255813953511506,
          "durationTicks": 2,
          "midi": 62,
          "name": "D4",
          "ticks": 20914,
          "time": 243.1860465116279,
          "velocity": 0.2440944881889764
        },
        {
          "duration": 0.03488372093025305,
          "durationTicks": 3,
          "midi": 82,
          "name": "A#5",
          "ticks": 20914,
          "time": 243.1860465116279,
          "velocity": 0.11023622047244094
        },
        {
          "duration": 0.18604651162792152,
          "durationTicks": 16,
          "midi": 91,
          "name": "G6",
          "ticks": 20914,
          "time": 243.1860465116279,
          "velocity": 0.25196850393700787
        },
        {
          "duration": 0.17441860465117998,
          "durationTicks": 15,
          "midi": 100,
          "name": "E7",
          "ticks": 20914,
          "time": 243.1860465116279,
          "velocity": 0.2992125984251969
        },
        {
          "duration": 0.23255813953485927,
          "durationTicks": 20,
          "midi": 57,
          "name": "A3",
          "ticks": 20915,
          "time": 243.19767441860466,
          "velocity": 0.33858267716535434
        },
        {
          "duration": 0.1860465116278931,
          "durationTicks": 16,
          "midi": 66,
          "name": "F#4",
          "ticks": 20915,
          "time": 243.19767441860466,
          "velocity": 0.2440944881889764
        },
        {
          "duration": 0.05813953488370771,
          "durationTicks": 5,
          "midi": 93,
          "name": "A6",
          "ticks": 20915,
          "time": 243.19767441860466,
          "velocity": 0.11023622047244094
        },
        {
          "duration": 0.05813953488370771,
          "durationTicks": 5,
          "midi": 39,
          "name": "D#2",
          "ticks": 20917,
          "time": 243.22093023255815,
          "velocity": 0.4645669291338583
        },
        {
          "duration": 0.2325581395348877,
          "durationTicks": 20,
          "midi": 50,
          "name": "D3",
          "ticks": 20917,
          "time": 243.22093023255815,
          "velocity": 0.4330708661417323
        },
        {
          "duration": 0.034883720930224626,
          "durationTicks": 3,
          "midi": 80,
          "name": "G#5",
          "ticks": 20918,
          "time": 243.2325581395349,
          "velocity": 0.09448818897637795
        },
        {
          "duration": 0.06976744186047767,
          "durationTicks": 6,
          "midi": 76,
          "name": "E5",
          "ticks": 20920,
          "time": 243.25581395348837,
          "velocity": 0.07086614173228346
        },
        {
          "duration": 0.04651162790699459,
          "durationTicks": 4,
          "midi": 38,
          "name": "D2",
          "ticks": 20924,
          "time": 243.30232558139534,
          "velocity": 0.30708661417322836
        },
        {
          "duration": 0.034883720930224626,
          "durationTicks": 3,
          "midi": 39,
          "name": "D#2",
          "ticks": 20931,
          "time": 243.38372093023256,
          "velocity": 0.16535433070866143
        },
        {
          "duration": 0.2325581395348877,
          "durationTicks": 20,
          "midi": 57,
          "name": "A3",
          "ticks": 20944,
          "time": 243.53488372093022,
          "velocity": 0.31496062992125984
        },
        {
          "duration": 0.19767441860466306,
          "durationTicks": 17,
          "midi": 62,
          "name": "D4",
          "ticks": 20945,
          "time": 243.54651162790697,
          "velocity": 0.25196850393700787
        },
        {
          "duration": 0.18604651162792152,
          "durationTicks": 16,
          "midi": 66,
          "name": "F#4",
          "ticks": 20945,
          "time": 243.54651162790697,
          "velocity": 0.1968503937007874
        },
        {
          "duration": 0.09302325581396076,
          "durationTicks": 8,
          "midi": 93,
          "name": "A6",
          "ticks": 20945,
          "time": 243.54651162790697,
          "velocity": 0.12598425196850394
        },
        {
          "duration": 0.24418604651162923,
          "durationTicks": 21,
          "midi": 50,
          "name": "D3",
          "ticks": 20946,
          "time": 243.5581395348837,
          "velocity": 0.44881889763779526
        },
        {
          "duration": 0.11627906976744384,
          "durationTicks": 10,
          "midi": 76,
          "name": "E5",
          "ticks": 20946,
          "time": 243.5581395348837,
          "velocity": 0.07086614173228346
        },
        {
          "duration": 0.034883720930224626,
          "durationTicks": 3,
          "midi": 39,
          "name": "D#2",
          "ticks": 20947,
          "time": 243.56976744186048,
          "velocity": 0.4251968503937008
        },
        {
          "duration": 0.09302325581393234,
          "durationTicks": 8,
          "midi": 80,
          "name": "G#5",
          "ticks": 20947,
          "time": 243.56976744186048,
          "velocity": 0.10236220472440945
        },
        {
          "duration": 0.09302325581396076,
          "durationTicks": 8,
          "midi": 38,
          "name": "D2",
          "ticks": 20950,
          "time": 243.6046511627907,
          "velocity": 0.4015748031496063
        },
        {
          "duration": 0.09302325581393234,
          "durationTicks": 8,
          "midi": 38,
          "name": "D2",
          "ticks": 20959,
          "time": 243.7093023255814,
          "velocity": 0.13385826771653545
        },
        {
          "duration": 0.22093023255814614,
          "durationTicks": 19,
          "midi": 57,
          "name": "A3",
          "ticks": 20974,
          "time": 243.88372093023256,
          "velocity": 0.31496062992125984
        },
        {
          "duration": 0.18604651162792152,
          "durationTicks": 16,
          "midi": 62,
          "name": "D4",
          "ticks": 20975,
          "time": 243.8953488372093,
          "velocity": 0.25196850393700787
        },
        {
          "duration": 0.19767441860466306,
          "durationTicks": 17,
          "midi": 66,
          "name": "F#4",
          "ticks": 20975,
          "time": 243.8953488372093,
          "velocity": 0.2047244094488189
        },
        {
          "duration": 0.08139534883721922,
          "durationTicks": 7,
          "midi": 93,
          "name": "A6",
          "ticks": 20975,
          "time": 243.8953488372093,
          "velocity": 0.12598425196850394
        },
        {
          "duration": 0.2093023255814046,
          "durationTicks": 18,
          "midi": 50,
          "name": "D3",
          "ticks": 20976,
          "time": 243.90697674418604,
          "velocity": 0.44881889763779526
        },
        {
          "duration": 0.1046511627907023,
          "durationTicks": 9,
          "midi": 76,
          "name": "E5",
          "ticks": 20976,
          "time": 243.90697674418604,
          "velocity": 0.07086614173228346
        },
        {
          "duration": 0.03488372093025305,
          "durationTicks": 3,
          "midi": 39,
          "name": "D#2",
          "ticks": 20977,
          "time": 243.91860465116278,
          "velocity": 0.4251968503937008
        },
        {
          "duration": 0.1046511627907023,
          "durationTicks": 9,
          "midi": 80,
          "name": "G#5",
          "ticks": 20977,
          "time": 243.91860465116278,
          "velocity": 0.10236220472440945
        },
        {
          "duration": 0.09302325581393234,
          "durationTicks": 8,
          "midi": 38,
          "name": "D2",
          "ticks": 20980,
          "time": 243.95348837209303,
          "velocity": 0.4015748031496063
        },
        {
          "duration": 0.04651162790699459,
          "durationTicks": 4,
          "midi": 38,
          "name": "D2",
          "ticks": 20989,
          "time": 244.0581395348837,
          "velocity": 0.13385826771653545
        },
        {
          "duration": 0.33720930232559,
          "durationTicks": 29,
          "midi": 83,
          "name": "B5",
          "ticks": 20993,
          "time": 244.1046511627907,
          "velocity": 0.31496062992125984
        },
        {
          "duration": 0.1860465116278931,
          "durationTicks": 16,
          "midi": 90,
          "name": "F#6",
          "ticks": 20993,
          "time": 244.1046511627907,
          "velocity": 0.23622047244094488
        },
        {
          "duration": 0.9069767441860392,
          "durationTicks": 78,
          "midi": 71,
          "name": "B4",
          "ticks": 20994,
          "time": 244.11627906976744,
          "velocity": 0.5433070866141733
        },
        {
          "duration": 0.023255813953483084,
          "durationTicks": 2,
          "midi": 48,
          "name": "C3",
          "ticks": 21003,
          "time": 244.22093023255815,
          "velocity": 0.44881889763779526
        },
        {
          "duration": 0.24418604651162923,
          "durationTicks": 21,
          "midi": 57,
          "name": "A3",
          "ticks": 21003,
          "time": 244.22093023255815,
          "velocity": 0.3228346456692913
        },
        {
          "duration": 0.19767441860463464,
          "durationTicks": 17,
          "midi": 62,
          "name": "D4",
          "ticks": 21004,
          "time": 244.2325581395349,
          "velocity": 0.2440944881889764
        },
        {
          "duration": 0.19767441860463464,
          "durationTicks": 17,
          "midi": 66,
          "name": "F#4",
          "ticks": 21004,
          "time": 244.2325581395349,
          "velocity": 0.2047244094488189
        },
        {
          "duration": 0.09302325581396076,
          "durationTicks": 8,
          "midi": 93,
          "name": "A6",
          "ticks": 21004,
          "time": 244.2325581395349,
          "velocity": 0.12598425196850394
        },
        {
          "duration": 0.25581395348837077,
          "durationTicks": 22,
          "midi": 50,
          "name": "D3",
          "ticks": 21005,
          "time": 244.24418604651163,
          "velocity": 0.44881889763779526
        },
        {
          "duration": 0.11627906976744384,
          "durationTicks": 10,
          "midi": 76,
          "name": "E5",
          "ticks": 21005,
          "time": 244.24418604651163,
          "velocity": 0.07086614173228346
        },
        {
          "duration": 0.034883720930224626,
          "durationTicks": 3,
          "midi": 39,
          "name": "D#2",
          "ticks": 21006,
          "time": 244.25581395348837,
          "velocity": 0.4251968503937008
        },
        {
          "duration": 0.1046511627907023,
          "durationTicks": 9,
          "midi": 80,
          "name": "G#5",
          "ticks": 21006,
          "time": 244.25581395348837,
          "velocity": 0.07874015748031496
        },
        {
          "duration": 0.09302325581396076,
          "durationTicks": 8,
          "midi": 38,
          "name": "D2",
          "ticks": 21009,
          "time": 244.2906976744186,
          "velocity": 0.4015748031496063
        },
        {
          "duration": 0.09302325581396076,
          "durationTicks": 8,
          "midi": 38,
          "name": "D2",
          "ticks": 21019,
          "time": 244.40697674418604,
          "velocity": 0.14173228346456693
        },
        {
          "duration": 0.034883720930224626,
          "durationTicks": 3,
          "midi": 44,
          "name": "G#2",
          "ticks": 21033,
          "time": 244.56976744186048,
          "velocity": 0.47244094488188976
        },
        {
          "duration": 0.5581395348837077,
          "durationTicks": 48,
          "midi": 74,
          "name": "D5",
          "ticks": 21033,
          "time": 244.56976744186048,
          "velocity": 0.3228346456692913
        },
        {
          "duration": 0.023255813953483084,
          "durationTicks": 2,
          "midi": 53,
          "name": "F3",
          "ticks": 21034,
          "time": 244.58139534883722,
          "velocity": 0.3858267716535433
        },
        {
          "duration": 0.22093023255811772,
          "durationTicks": 19,
          "midi": 67,
          "name": "G4",
          "ticks": 21034,
          "time": 244.58139534883722,
          "velocity": 0.2677165354330709
        },
        {
          "duration": 0.4767441860464885,
          "durationTicks": 41,
          "midi": 77,
          "name": "F5",
          "ticks": 21034,
          "time": 244.58139534883722,
          "velocity": 0.2047244094488189
        },
        {
          "duration": 0.09302325581393234,
          "durationTicks": 8,
          "midi": 81,
          "name": "A5",
          "ticks": 21034,
          "time": 244.58139534883722,
          "velocity": 0.12598425196850394
        },
        {
          "duration": 0.4767441860464885,
          "durationTicks": 41,
          "midi": 90,
          "name": "F#6",
          "ticks": 21034,
          "time": 244.58139534883722,
          "velocity": 0.18110236220472442
        },
        {
          "duration": 0.5697674418604493,
          "durationTicks": 49,
          "midi": 93,
          "name": "A6",
          "ticks": 21034,
          "time": 244.58139534883722,
          "velocity": 0.14960629921259844
        },
        {
          "duration": 0.32558139534882,
          "durationTicks": 28,
          "midi": 62,
          "name": "D4",
          "ticks": 21035,
          "time": 244.59302325581396,
          "velocity": 0.2992125984251969
        },
        {
          "duration": 0.09302325581393234,
          "durationTicks": 8,
          "midi": 85,
          "name": "C#6",
          "ticks": 21035,
          "time": 244.59302325581396,
          "velocity": 0.2204724409448819
        },
        {
          "duration": 0.034883720930224626,
          "durationTicks": 3,
          "midi": 43,
          "name": "G2",
          "ticks": 21036,
          "time": 244.6046511627907,
          "velocity": 0.4251968503937008
        },
        {
          "duration": 0.04651162790696617,
          "durationTicks": 4,
          "midi": 98,
          "name": "D7",
          "ticks": 21036,
          "time": 244.6046511627907,
          "velocity": 0.09448818897637795
        },
        {
          "duration": 0.034883720930224626,
          "durationTicks": 3,
          "midi": 43,
          "name": "G2",
          "ticks": 21040,
          "time": 244.65116279069767,
          "velocity": 0.4094488188976378
        },
        {
          "duration": 0.04651162790696617,
          "durationTicks": 4,
          "midi": 43,
          "name": "G2",
          "ticks": 21044,
          "time": 244.69767441860466,
          "velocity": 0.49606299212598426
        },
        {
          "duration": 0.3953488372092977,
          "durationTicks": 34,
          "midi": 85,
          "name": "C#6",
          "ticks": 21044,
          "time": 244.69767441860466,
          "velocity": 0.2755905511811024
        },
        {
          "duration": 0.034883720930224626,
          "durationTicks": 3,
          "midi": 43,
          "name": "G2",
          "ticks": 21049,
          "time": 244.75581395348837,
          "velocity": 0.3937007874015748
        },
        {
          "duration": 0.09302325581393234,
          "durationTicks": 8,
          "midi": 81,
          "name": "A5",
          "ticks": 21054,
          "time": 244.8139534883721,
          "velocity": 0.12598425196850394
        },
        {
          "duration": 0.05813953488370771,
          "durationTicks": 5,
          "midi": 98,
          "name": "D7",
          "ticks": 21054,
          "time": 244.8139534883721,
          "velocity": 0.12598425196850394
        },
        {
          "duration": 0.034883720930224626,
          "durationTicks": 3,
          "midi": 43,
          "name": "G2",
          "ticks": 21055,
          "time": 244.82558139534885,
          "velocity": 0.3858267716535433
        },
        {
          "duration": 0.10465116279067388,
          "durationTicks": 9,
          "midi": 55,
          "name": "G3",
          "ticks": 21055,
          "time": 244.82558139534885,
          "velocity": 0.44881889763779526
        },
        {
          "duration": 0.034883720930224626,
          "durationTicks": 3,
          "midi": 43,
          "name": "G2",
          "ticks": 21059,
          "time": 244.87209302325581,
          "velocity": 0.33858267716535434
        },
        {
          "duration": 0.32558139534884845,
          "durationTicks": 28,
          "midi": 62,
          "name": "D4",
          "ticks": 21064,
          "time": 244.93023255813952,
          "velocity": 0.29133858267716534
        },
        {
          "duration": 0.09302325581396076,
          "durationTicks": 8,
          "midi": 67,
          "name": "G4",
          "ticks": 21064,
          "time": 244.93023255813952,
          "velocity": 0.16535433070866143
        },
        {
          "duration": 0.06976744186047767,
          "durationTicks": 6,
          "midi": 81,
          "name": "A5",
          "ticks": 21064,
          "time": 244.93023255813952,
          "velocity": 0.09448818897637795
        },
        {
          "duration": 0.06976744186047767,
          "durationTicks": 6,
          "midi": 98,
          "name": "D7",
          "ticks": 21064,
          "time": 244.93023255813952,
          "velocity": 0.13385826771653545
        },
        {
          "duration": 0.034883720930224626,
          "durationTicks": 3,
          "midi": 43,
          "name": "G2",
          "ticks": 21065,
          "time": 244.9418604651163,
          "velocity": 0.3937007874015748
        },
        {
          "duration": 0.10465116279067388,
          "durationTicks": 9,
          "midi": 55,
          "name": "G3",
          "ticks": 21065,
          "time": 244.9418604651163,
          "velocity": 0.44881889763779526
        },
        {
          "duration": 0.04651162790696617,
          "durationTicks": 4,
          "midi": 43,
          "name": "G2",
          "ticks": 21069,
          "time": 244.98837209302326,
          "velocity": 0.44881889763779526
        },
        {
          "duration": 0.04651162790699459,
          "durationTicks": 4,
          "midi": 79,
          "name": "G5",
          "ticks": 21072,
          "time": 245.02325581395348,
          "velocity": 0.14960629921259844
        },
        {
          "duration": 0.38372093023255616,
          "durationTicks": 33,
          "midi": 81,
          "name": "A5",
          "ticks": 21072,
          "time": 245.02325581395348,
          "velocity": 0.29133858267716534
        },
        {
          "duration": 0.17441860465117998,
          "durationTicks": 15,
          "midi": 88,
          "name": "E6",
          "ticks": 21072,
          "time": 245.02325581395348,
          "velocity": 0.2125984251968504
        },
        {
          "duration": 0.18604651162792152,
          "durationTicks": 16,
          "midi": 66,
          "name": "F#4",
          "ticks": 21073,
          "time": 245.03488372093022,
          "velocity": 0.23622047244094488
        },
        {
          "duration": 0.6279069767441854,
          "durationTicks": 54,
          "midi": 69,
          "name": "A4",
          "ticks": 21073,
          "time": 245.03488372093022,
          "velocity": 0.5118110236220472
        },
        {
          "duration": 0.24418604651162923,
          "durationTicks": 21,
          "midi": 50,
          "name": "D3",
          "ticks": 21074,
          "time": 245.04651162790697,
          "velocity": 0.4566929133858268
        },
        {
          "duration": 0.13953488372092693,
          "durationTicks": 12,
          "midi": 72,
          "name": "C5",
          "ticks": 21074,
          "time": 245.04651162790697,
          "velocity": 0.14960629921259844
        },
        {
          "duration": 0.1860465116278931,
          "durationTicks": 16,
          "midi": 57,
          "name": "A3",
          "ticks": 21077,
          "time": 245.08139534883722,
          "velocity": 0.33070866141732286
        },
        {
          "duration": 0.06976744186044925,
          "durationTicks": 6,
          "midi": 76,
          "name": "E5",
          "ticks": 21078,
          "time": 245.09302325581396,
          "velocity": 0.10236220472440945
        },
        {
          "duration": 0.05813953488370771,
          "durationTicks": 5,
          "midi": 80,
          "name": "G#5",
          "ticks": 21078,
          "time": 245.09302325581396,
          "velocity": 0.09448818897637795
        },
        {
          "duration": 0.023255813953483084,
          "durationTicks": 2,
          "midi": 38,
          "name": "D2",
          "ticks": 21079,
          "time": 245.1046511627907,
          "velocity": 0.36220472440944884
        },
        {
          "duration": 0.04651162790696617,
          "durationTicks": 4,
          "midi": 38,
          "name": "D2",
          "ticks": 21082,
          "time": 245.13953488372093,
          "velocity": 0.2992125984251969
        },
        {
          "duration": 0.2325581395348877,
          "durationTicks": 20,
          "midi": 57,
          "name": "A3",
          "ticks": 21102,
          "time": 245.37209302325581,
          "velocity": 0.31496062992125984
        },
        {
          "duration": 0.2093023255814046,
          "durationTicks": 18,
          "midi": 66,
          "name": "F#4",
          "ticks": 21102,
          "time": 245.37209302325581,
          "velocity": 0.2047244094488189
        },
        {
          "duration": 0.19767441860466306,
          "durationTicks": 17,
          "midi": 62,
          "name": "D4",
          "ticks": 21103,
          "time": 245.38372093023256,
          "velocity": 0.25196850393700787
        },
        {
          "duration": 0.13953488372092693,
          "durationTicks": 12,
          "midi": 72,
          "name": "C5",
          "ticks": 21103,
          "time": 245.38372093023256,
          "velocity": 0.14960629921259844
        },
        {
          "duration": 0.24418604651162923,
          "durationTicks": 21,
          "midi": 50,
          "name": "D3",
          "ticks": 21104,
          "time": 245.3953488372093,
          "velocity": 0.44881889763779526
        },
        {
          "duration": 0.03488372093025305,
          "durationTicks": 3,
          "midi": 39,
          "name": "D#2",
          "ticks": 21105,
          "time": 245.40697674418604,
          "velocity": 0.4251968503937008
        },
        {
          "duration": 0.09302325581396076,
          "durationTicks": 8,
          "midi": 80,
          "name": "G#5",
          "ticks": 21105,
          "time": 245.40697674418604,
          "velocity": 0.10236220472440945
        },
        {
          "duration": 0.09302325581393234,
          "durationTicks": 8,
          "midi": 38,
          "name": "D2",
          "ticks": 21108,
          "time": 245.4418604651163,
          "velocity": 0.4015748031496063
        },
        {
          "duration": 0.05813953488370771,
          "durationTicks": 5,
          "midi": 76,
          "name": "E5",
          "ticks": 21108,
          "time": 245.4418604651163,
          "velocity": 0.07086614173228346
        },
        {
          "duration": 0.09302325581396076,
          "durationTicks": 8,
          "midi": 38,
          "name": "D2",
          "ticks": 21117,
          "time": 245.54651162790697,
          "velocity": 0.13385826771653545
        },
        {
          "duration": 0.023255813953483084,
          "durationTicks": 2,
          "midi": 48,
          "name": "C3",
          "ticks": 21131,
          "time": 245.7093023255814,
          "velocity": 0.44881889763779526
        },
        {
          "duration": 0.2325581395348877,
          "durationTicks": 20,
          "midi": 57,
          "name": "A3",
          "ticks": 21131,
          "time": 245.7093023255814,
          "velocity": 0.33070866141732286
        },
        {
          "duration": 0.19767441860463464,
          "durationTicks": 17,
          "midi": 62,
          "name": "D4",
          "ticks": 21132,
          "time": 245.72093023255815,
          "velocity": 0.25196850393700787
        },
        {
          "duration": 0.19767441860463464,
          "durationTicks": 17,
          "midi": 66,
          "name": "F#4",
          "ticks": 21132,
          "time": 245.72093023255815,
          "velocity": 0.2047244094488189
        },
        {
          "duration": 0.15116279069766847,
          "durationTicks": 13,
          "midi": 72,
          "name": "C5",
          "ticks": 21132,
          "time": 245.72093023255815,
          "velocity": 0.14960629921259844
        },
        {
          "duration": 0.1046511627907023,
          "durationTicks": 9,
          "midi": 93,
          "name": "A6",
          "ticks": 21132,
          "time": 245.72093023255815,
          "velocity": 0.13385826771653545
        },
        {
          "duration": 0.25581395348837077,
          "durationTicks": 22,
          "midi": 50,
          "name": "D3",
          "ticks": 21133,
          "time": 245.7325581395349,
          "velocity": 0.44881889763779526
        },
        {
          "duration": 0.11627906976744384,
          "durationTicks": 10,
          "midi": 76,
          "name": "E5",
          "ticks": 21133,
          "time": 245.7325581395349,
          "velocity": 0.07086614173228346
        },
        {
          "duration": 0.034883720930224626,
          "durationTicks": 3,
          "midi": 39,
          "name": "D#2",
          "ticks": 21134,
          "time": 245.74418604651163,
          "velocity": 0.4251968503937008
        },
        {
          "duration": 0.1046511627907023,
          "durationTicks": 9,
          "midi": 80,
          "name": "G#5",
          "ticks": 21134,
          "time": 245.74418604651163,
          "velocity": 0.08661417322834646
        },
        {
          "duration": 0.09302325581396076,
          "durationTicks": 8,
          "midi": 38,
          "name": "D2",
          "ticks": 21137,
          "time": 245.77906976744185,
          "velocity": 0.4015748031496063
        },
        {
          "duration": 0.05813953488373613,
          "durationTicks": 5,
          "midi": 38,
          "name": "D2",
          "ticks": 21146,
          "time": 245.88372093023256,
          "velocity": 0.14960629921259844
        },
        {
          "duration": 0.023255813953511506,
          "durationTicks": 2,
          "midi": 69,
          "name": "A4",
          "ticks": 21150,
          "time": 245.93023255813952,
          "velocity": 0.4251968503937008
        },
        {
          "duration": 0.3720930232558146,
          "durationTicks": 32,
          "midi": 80,
          "name": "G#5",
          "ticks": 21151,
          "time": 245.9418604651163,
          "velocity": 0.2992125984251969
        },
        {
          "duration": 0.19767441860463464,
          "durationTicks": 17,
          "midi": 87,
          "name": "D#6",
          "ticks": 21151,
          "time": 245.9418604651163,
          "velocity": 0.2440944881889764
        },
        {
          "duration": 0.46511627906974695,
          "durationTicks": 40,
          "midi": 68,
          "name": "G#4",
          "ticks": 21152,
          "time": 245.95348837209303,
          "velocity": 0.5433070866141733
        },
        {
          "duration": 0.23255813953485927,
          "durationTicks": 20,
          "midi": 57,
          "name": "A3",
          "ticks": 21162,
          "time": 246.06976744186048,
          "velocity": 0.31496062992125984
        },
        {
          "duration": 0.19767441860463464,
          "durationTicks": 17,
          "midi": 62,
          "name": "D4",
          "ticks": 21162,
          "time": 246.06976744186048,
          "velocity": 0.25196850393700787
        },
        {
          "duration": 0.15116279069766847,
          "durationTicks": 13,
          "midi": 72,
          "name": "C5",
          "ticks": 21162,
          "time": 246.06976744186048,
          "velocity": 0.14960629921259844
        },
        {
          "duration": 0.09302325581393234,
          "durationTicks": 8,
          "midi": 93,
          "name": "A6",
          "ticks": 21162,
          "time": 246.06976744186048,
          "velocity": 0.12598425196850394
        },
        {
          "duration": 0.25581395348837077,
          "durationTicks": 22,
          "midi": 50,
          "name": "D3",
          "ticks": 21163,
          "time": 246.08139534883722,
          "velocity": 0.44881889763779526
        },
        {
          "duration": 0.11627906976744384,
          "durationTicks": 10,
          "midi": 76,
          "name": "E5",
          "ticks": 21163,
          "time": 246.08139534883722,
          "velocity": 0.07086614173228346
        },
        {
          "duration": 0.034883720930224626,
          "durationTicks": 3,
          "midi": 39,
          "name": "D#2",
          "ticks": 21164,
          "time": 246.09302325581396,
          "velocity": 0.4251968503937008
        },
        {
          "duration": 0.09302325581396076,
          "durationTicks": 8,
          "midi": 38,
          "name": "D2",
          "ticks": 21167,
          "time": 246.12790697674419,
          "velocity": 0.4015748031496063
        },
        {
          "duration": 0.1046511627907023,
          "durationTicks": 9,
          "midi": 38,
          "name": "D2",
          "ticks": 21176,
          "time": 246.2325581395349,
          "velocity": 0.14173228346456693
        },
        {
          "duration": 0.023255813953483084,
          "durationTicks": 2,
          "midi": 50,
          "name": "D3",
          "ticks": 21189,
          "time": 246.38372093023256,
          "velocity": 0.36220472440944884
        },
        {
          "duration": 0.11627906976744384,
          "durationTicks": 10,
          "midi": 60,
          "name": "C4",
          "ticks": 21190,
          "time": 246.3953488372093,
          "velocity": 0.31496062992125984
        },
        {
          "duration": 0.11627906976744384,
          "durationTicks": 10,
          "midi": 65,
          "name": "F4",
          "ticks": 21190,
          "time": 246.3953488372093,
          "velocity": 0.2677165354330709
        },
        {
          "duration": 0.4651162790697754,
          "durationTicks": 40,
          "midi": 75,
          "name": "D#5",
          "ticks": 21191,
          "time": 246.40697674418604,
          "velocity": 0.2047244094488189
        },
        {
          "duration": 0.4418604651162923,
          "durationTicks": 38,
          "midi": 83,
          "name": "B5",
          "ticks": 21191,
          "time": 246.40697674418604,
          "velocity": 0.11023622047244094
        },
        {
          "duration": 0.1046511627907023,
          "durationTicks": 9,
          "midi": 53,
          "name": "F3",
          "ticks": 21192,
          "time": 246.41860465116278,
          "velocity": 0.4566929133858268
        },
        {
          "duration": 0.1046511627907023,
          "durationTicks": 9,
          "midi": 69,
          "name": "A4",
          "ticks": 21192,
          "time": 246.41860465116278,
          "velocity": 0.25984251968503935
        },
        {
          "duration": 0.05813953488373613,
          "durationTicks": 5,
          "midi": 96,
          "name": "C7",
          "ticks": 21192,
          "time": 246.41860465116278,
          "velocity": 0.11811023622047244
        },
        {
          "duration": 0.023255813953511506,
          "durationTicks": 2,
          "midi": 42,
          "name": "F#2",
          "ticks": 21193,
          "time": 246.43023255813952,
          "velocity": 0.4409448818897638
        },
        {
          "duration": 0.7906976744185954,
          "durationTicks": 68,
          "midi": 79,
          "name": "G5",
          "ticks": 21194,
          "time": 246.4418604651163,
          "velocity": 0.33858267716535434
        },
        {
          "duration": 0.05813953488370771,
          "durationTicks": 5,
          "midi": 41,
          "name": "F2",
          "ticks": 21195,
          "time": 246.45348837209303,
          "velocity": 0.4330708661417323
        },
        {
          "duration": 0.1046511627907023,
          "durationTicks": 9,
          "midi": 60,
          "name": "C4",
          "ticks": 21201,
          "time": 246.52325581395348,
          "velocity": 0.33070866141732286
        },
        {
          "duration": 0.034883720930224626,
          "durationTicks": 3,
          "midi": 94,
          "name": "A#6",
          "ticks": 21201,
          "time": 246.52325581395348,
          "velocity": 0.07086614173228346
        },
        {
          "duration": 0.1046511627907023,
          "durationTicks": 9,
          "midi": 53,
          "name": "F3",
          "ticks": 21202,
          "time": 246.53488372093022,
          "velocity": 0.4881889763779528
        },
        {
          "duration": 0.1046511627907023,
          "durationTicks": 9,
          "midi": 69,
          "name": "A4",
          "ticks": 21202,
          "time": 246.53488372093022,
          "velocity": 0.18110236220472442
        },
        {
          "duration": 0.08139534883721922,
          "durationTicks": 7,
          "midi": 88,
          "name": "E6",
          "ticks": 21202,
          "time": 246.53488372093022,
          "velocity": 0.08661417322834646
        },
        {
          "duration": 0.05813953488373613,
          "durationTicks": 5,
          "midi": 96,
          "name": "C7",
          "ticks": 21202,
          "time": 246.53488372093022,
          "velocity": 0.12598425196850394
        },
        {
          "duration": 0.05813953488370771,
          "durationTicks": 5,
          "midi": 41,
          "name": "F2",
          "ticks": 21205,
          "time": 246.56976744186048,
          "velocity": 0.47244094488188976
        },
        {
          "duration": 0.023255813953483084,
          "durationTicks": 2,
          "midi": 59,
          "name": "B3",
          "ticks": 21210,
          "time": 246.62790697674419,
          "velocity": 0.2992125984251969
        },
        {
          "duration": 0.09302325581396076,
          "durationTicks": 8,
          "midi": 53,
          "name": "F3",
          "ticks": 21212,
          "time": 246.65116279069767,
          "velocity": 0.48031496062992124
        },
        {
          "duration": 0.09302325581396076,
          "durationTicks": 8,
          "midi": 60,
          "name": "C4",
          "ticks": 21212,
          "time": 246.65116279069767,
          "velocity": 0.2755905511811024
        },
        {
          "duration": 0.19767441860466306,
          "durationTicks": 17,
          "midi": 69,
          "name": "A4",
          "ticks": 21212,
          "time": 246.65116279069767,
          "velocity": 0.2440944881889764
        },
        {
          "duration": 0.08139534883721922,
          "durationTicks": 7,
          "midi": 88,
          "name": "E6",
          "ticks": 21212,
          "time": 246.65116279069767,
          "velocity": 0.07874015748031496
        },
        {
          "duration": 0.05813953488373613,
          "durationTicks": 5,
          "midi": 96,
          "name": "C7",
          "ticks": 21212,
          "time": 246.65116279069767,
          "velocity": 0.12598425196850394
        },
        {
          "duration": 0.08139534883721922,
          "durationTicks": 7,
          "midi": 41,
          "name": "F2",
          "ticks": 21213,
          "time": 246.6627906976744,
          "velocity": 0.48031496062992124
        },
        {
          "duration": 0.023255813953483084,
          "durationTicks": 2,
          "midi": 52,
          "name": "E3",
          "ticks": 21220,
          "time": 246.74418604651163,
          "velocity": 0.49606299212598426
        },
        {
          "duration": 0.023255813953483084,
          "durationTicks": 2,
          "midi": 59,
          "name": "B3",
          "ticks": 21220,
          "time": 246.74418604651163,
          "velocity": 0.30708661417322836
        },
        {
          "duration": 0.04651162790696617,
          "durationTicks": 4,
          "midi": 100,
          "name": "E7",
          "ticks": 21221,
          "time": 246.75581395348837,
          "velocity": 0.07086614173228346
        },
        {
          "duration": 0.08139534883721922,
          "durationTicks": 7,
          "midi": 53,
          "name": "F3",
          "ticks": 21222,
          "time": 246.7674418604651,
          "velocity": 0.48031496062992124
        },
        {
          "duration": 0.08139534883721922,
          "durationTicks": 7,
          "midi": 60,
          "name": "C4",
          "ticks": 21222,
          "time": 246.7674418604651,
          "velocity": 0.28346456692913385
        },
        {
          "duration": 0.08139534883721922,
          "durationTicks": 7,
          "midi": 88,
          "name": "E6",
          "ticks": 21222,
          "time": 246.7674418604651,
          "velocity": 0.07874015748031496
        },
        {
          "duration": 0.05813953488373613,
          "durationTicks": 5,
          "midi": 96,
          "name": "C7",
          "ticks": 21222,
          "time": 246.7674418604651,
          "velocity": 0.12598425196850394
        },
        {
          "duration": 0.06976744186047767,
          "durationTicks": 6,
          "midi": 41,
          "name": "F2",
          "ticks": 21223,
          "time": 246.77906976744185,
          "velocity": 0.48031496062992124
        },
        {
          "duration": 0.023255813953483084,
          "durationTicks": 2,
          "midi": 43,
          "name": "G2",
          "ticks": 21229,
          "time": 246.84883720930233,
          "velocity": 0.4251968503937008
        },
        {
          "duration": 0.034883720930224626,
          "durationTicks": 3,
          "midi": 81,
          "name": "A5",
          "ticks": 21229,
          "time": 246.84883720930233,
          "velocity": 0.15748031496062992
        },
        {
          "duration": 0.034883720930224626,
          "durationTicks": 3,
          "midi": 82,
          "name": "A#5",
          "ticks": 21229,
          "time": 246.84883720930233,
          "velocity": 0.10236220472440945
        },
        {
          "duration": 0.19767441860463464,
          "durationTicks": 17,
          "midi": 86,
          "name": "D6",
          "ticks": 21229,
          "time": 246.84883720930233,
          "velocity": 0.1889763779527559
        },
        {
          "duration": 0.2325581395348877,
          "durationTicks": 20,
          "midi": 57,
          "name": "A3",
          "ticks": 21230,
          "time": 246.86046511627907,
          "velocity": 0.33070866141732286
        },
        {
          "duration": 0.22093023255814614,
          "durationTicks": 19,
          "midi": 62,
          "name": "D4",
          "ticks": 21230,
          "time": 246.86046511627907,
          "velocity": 0.28346456692913385
        },
        {
          "duration": 0.6860465116278931,
          "durationTicks": 59,
          "midi": 67,
          "name": "G4",
          "ticks": 21230,
          "time": 246.86046511627907,
          "velocity": 0.5354330708661418
        },
        {
          "duration": 0.12790697674418539,
          "durationTicks": 11,
          "midi": 76,
          "name": "E5",
          "ticks": 21230,
          "time": 246.86046511627907,
          "velocity": 0.07874015748031496
        },
        {
          "duration": 0.023255813953483084,
          "durationTicks": 2,
          "midi": 40,
          "name": "E2",
          "ticks": 21231,
          "time": 246.87209302325581,
          "velocity": 0.47244094488188976
        },
        {
          "duration": 0.25581395348837077,
          "durationTicks": 22,
          "midi": 50,
          "name": "D3",
          "ticks": 21232,
          "time": 246.88372093023256,
          "velocity": 0.4409448818897638
        },
        {
          "duration": 0.04651162790699459,
          "durationTicks": 4,
          "midi": 39,
          "name": "D#2",
          "ticks": 21233,
          "time": 246.8953488372093,
          "velocity": 0.48031496062992124
        },
        {
          "duration": 0.06976744186044925,
          "durationTicks": 6,
          "midi": 72,
          "name": "C5",
          "ticks": 21238,
          "time": 246.95348837209303,
          "velocity": 0.11811023622047244
        },
        {
          "duration": 0.023255813953483084,
          "durationTicks": 2,
          "midi": 38,
          "name": "D2",
          "ticks": 21239,
          "time": 246.96511627906978,
          "velocity": 0.30708661417322836
        },
        {
          "duration": 0.034883720930224626,
          "durationTicks": 3,
          "midi": 37,
          "name": "C#2",
          "ticks": 21243,
          "time": 247.01162790697674,
          "velocity": 0.16535433070866143
        },
        {
          "duration": 0.04651162790696617,
          "durationTicks": 4,
          "midi": 38,
          "name": "D2",
          "ticks": 21249,
          "time": 247.08139534883722,
          "velocity": 0.09448818897637795
        },
        {
          "duration": 0.40697674418603924,
          "durationTicks": 35,
          "midi": 78,
          "name": "F#5",
          "ticks": 21309,
          "time": 247.77906976744185,
          "velocity": 0.30708661417322836
        },
        {
          "duration": 0.19767441860466306,
          "durationTicks": 17,
          "midi": 85,
          "name": "C#6",
          "ticks": 21309,
          "time": 247.77906976744185,
          "velocity": 0.2283464566929134
        },
        {
          "duration": 0.48837209302325846,
          "durationTicks": 42,
          "midi": 66,
          "name": "F#4",
          "ticks": 21310,
          "time": 247.7906976744186,
          "velocity": 0.5433070866141733
        },
        {
          "duration": 0.4767441860465169,
          "durationTicks": 41,
          "midi": 57,
          "name": "A3",
          "ticks": 21347,
          "time": 248.22093023255815,
          "velocity": 0.3228346456692913
        },
        {
          "duration": 0.4534883720930054,
          "durationTicks": 39,
          "midi": 62,
          "name": "D4",
          "ticks": 21348,
          "time": 248.2325581395349,
          "velocity": 0.25196850393700787
        },
        {
          "duration": 0.4186046511627808,
          "durationTicks": 36,
          "midi": 72,
          "name": "C5",
          "ticks": 21348,
          "time": 248.2325581395349,
          "velocity": 0.14960629921259844
        },
        {
          "duration": 0.08139534883721922,
          "durationTicks": 7,
          "midi": 93,
          "name": "A6",
          "ticks": 21348,
          "time": 248.2325581395349,
          "velocity": 0.12598425196850394
        },
        {
          "duration": 0.45348837209303383,
          "durationTicks": 39,
          "midi": 50,
          "name": "D3",
          "ticks": 21349,
          "time": 248.24418604651163,
          "velocity": 0.44881889763779526
        },
        {
          "duration": 0.15116279069766847,
          "durationTicks": 13,
          "midi": 76,
          "name": "E5",
          "ticks": 21349,
          "time": 248.24418604651163,
          "velocity": 0.07086614173228346
        },
        {
          "duration": 0.05813953488370771,
          "durationTicks": 5,
          "midi": 85,
          "name": "C#6",
          "ticks": 21349,
          "time": 248.24418604651163,
          "velocity": 0.07086614173228346
        },
        {
          "duration": 0.034883720930224626,
          "durationTicks": 3,
          "midi": 39,
          "name": "D#2",
          "ticks": 21350,
          "time": 248.25581395348837,
          "velocity": 0.4251968503937008
        },
        {
          "duration": 0.12790697674418539,
          "durationTicks": 11,
          "midi": 80,
          "name": "G#5",
          "ticks": 21350,
          "time": 248.25581395348837,
          "velocity": 0.09448818897637795
        },
        {
          "duration": 0.09302325581396076,
          "durationTicks": 8,
          "midi": 38,
          "name": "D2",
          "ticks": 21353,
          "time": 248.2906976744186,
          "velocity": 0.4094488188976378
        },
        {
          "duration": 0.3953488372092977,
          "durationTicks": 34,
          "midi": 66,
          "name": "F#4",
          "ticks": 21355,
          "time": 248.3139534883721,
          "velocity": 0.23622047244094488
        },
        {
          "duration": 0.30232558139536536,
          "durationTicks": 26,
          "midi": 38,
          "name": "D2",
          "ticks": 21362,
          "time": 248.3953488372093,
          "velocity": 0.28346456692913385
        },
        {
          "duration": 0.2558139534883992,
          "durationTicks": 22,
          "midi": 69,
          "name": "A4",
          "ticks": 21387,
          "time": 248.6860465116279,
          "velocity": 0.4409448818897638
        },
        {
          "duration": 0.023255813953483084,
          "durationTicks": 2,
          "midi": 48,
          "name": "C3",
          "ticks": 21388,
          "time": 248.69767441860466,
          "velocity": 0.4645669291338583
        },
        {
          "duration": 0.9069767441860392,
          "durationTicks": 78,
          "midi": 74,
          "name": "D5",
          "ticks": 21388,
          "time": 248.69767441860466,
          "velocity": 0.5196850393700787
        },
        {
          "duration": 0.034883720930224626,
          "durationTicks": 3,
          "midi": 79,
          "name": "G5",
          "ticks": 21388,
          "time": 248.69767441860466,
          "velocity": 0.14960629921259844
        },
        {
          "duration": 0.16279069767441,
          "durationTicks": 14,
          "midi": 84,
          "name": "C6",
          "ticks": 21388,
          "time": 248.69767441860466,
          "velocity": 0.16535433070866143
        },
        {
          "duration": 0.20930232558137618,
          "durationTicks": 18,
          "midi": 93,
          "name": "A6",
          "ticks": 21388,
          "time": 248.69767441860466,
          "velocity": 0.30708661417322836
        },
        {
          "duration": 0.2674418604651123,
          "durationTicks": 23,
          "midi": 98,
          "name": "D7",
          "ticks": 21388,
          "time": 248.69767441860466,
          "velocity": 0.28346456692913385
        },
        {
          "duration": 0.22093023255811772,
          "durationTicks": 19,
          "midi": 102,
          "name": "F#7",
          "ticks": 21388,
          "time": 248.69767441860466,
          "velocity": 0.33070866141732286
        },
        {
          "duration": 0.2674418604651123,
          "durationTicks": 23,
          "midi": 90,
          "name": "F#6",
          "ticks": 21389,
          "time": 248.7093023255814,
          "velocity": 0.2677165354330709
        },
        {
          "duration": 0.06976744186044925,
          "durationTicks": 6,
          "midi": 97,
          "name": "C#7",
          "ticks": 21389,
          "time": 248.7093023255814,
          "velocity": 0.14173228346456693
        },
        {
          "duration": 0.04651162790696617,
          "durationTicks": 4,
          "midi": 39,
          "name": "D#2",
          "ticks": 21390,
          "time": 248.72093023255815,
          "velocity": 0.4566929133858268
        },
        {
          "duration": 0.22093023255814614,
          "durationTicks": 19,
          "midi": 50,
          "name": "D3",
          "ticks": 21390,
          "time": 248.72093023255815,
          "velocity": 0.4330708661417323
        },
        {
          "duration": 0.1046511627907023,
          "durationTicks": 9,
          "midi": 57,
          "name": "A3",
          "ticks": 21390,
          "time": 248.72093023255815,
          "velocity": 0.2992125984251969
        },
        {
          "duration": 0.9767441860465169,
          "durationTicks": 84,
          "midi": 62,
          "name": "D4",
          "ticks": 21390,
          "time": 248.72093023255815,
          "velocity": 0.5669291338582677
        },
        {
          "duration": 0.11627906976744384,
          "durationTicks": 10,
          "midi": 88,
          "name": "E6",
          "ticks": 21390,
          "time": 248.72093023255815,
          "velocity": 0.08661417322834646
        },
        {
          "duration": 0.11627906976744384,
          "durationTicks": 10,
          "midi": 66,
          "name": "F#4",
          "ticks": 21392,
          "time": 248.74418604651163,
          "velocity": 0.2677165354330709
        },
        {
          "duration": 0.06976744186047767,
          "durationTicks": 6,
          "midi": 76,
          "name": "E5",
          "ticks": 21392,
          "time": 248.74418604651163,
          "velocity": 0.11023622047244094
        },
        {
          "duration": 0.06976744186047767,
          "durationTicks": 6,
          "midi": 38,
          "name": "D2",
          "ticks": 21396,
          "time": 248.7906976744186,
          "velocity": 0.36220472440944884
        },
        {
          "duration": 0.1046511627907023,
          "durationTicks": 9,
          "midi": 57,
          "name": "A3",
          "ticks": 21400,
          "time": 248.8372093023256,
          "velocity": 0.2440944881889764
        },
        {
          "duration": 0.034883720930224626,
          "durationTicks": 3,
          "midi": 38,
          "name": "D2",
          "ticks": 21404,
          "time": 248.88372093023256,
          "velocity": 0.15748031496062992
        },
        {
          "duration": 0.023255813953483084,
          "durationTicks": 2,
          "midi": 48,
          "name": "C3",
          "ticks": 21416,
          "time": 249.02325581395348,
          "velocity": 0.4015748031496063
        },
        {
          "duration": 0.30232558139536536,
          "durationTicks": 26,
          "midi": 66,
          "name": "F#4",
          "ticks": 21417,
          "time": 249.03488372093022,
          "velocity": 0.2204724409448819
        },
        {
          "duration": 0.32558139534884845,
          "durationTicks": 28,
          "midi": 69,
          "name": "A4",
          "ticks": 21417,
          "time": 249.03488372093022,
          "velocity": 0.4330708661417323
        },
        {
          "duration": 0.03488372093025305,
          "durationTicks": 3,
          "midi": 84,
          "name": "C6",
          "ticks": 21417,
          "time": 249.03488372093022,
          "velocity": 0.13385826771653545
        },
        {
          "duration": 0.3139534883721069,
          "durationTicks": 27,
          "midi": 93,
          "name": "A6",
          "ticks": 21417,
          "time": 249.03488372093022,
          "velocity": 0.25196850393700787
        },
        {
          "duration": 0.32558139534884845,
          "durationTicks": 28,
          "midi": 50,
          "name": "D3",
          "ticks": 21418,
          "time": 249.04651162790697,
          "velocity": 0.47244094488188976
        },
        {
          "duration": 0.12790697674418539,
          "durationTicks": 11,
          "midi": 72,
          "name": "C5",
          "ticks": 21418,
          "time": 249.04651162790697,
          "velocity": 0.2125984251968504
        },
        {
          "duration": 0.06976744186047767,
          "durationTicks": 6,
          "midi": 97,
          "name": "C#7",
          "ticks": 21418,
          "time": 249.04651162790697,
          "velocity": 0.13385826771653545
        },
        {
          "duration": 0.04651162790699459,
          "durationTicks": 4,
          "midi": 39,
          "name": "D#2",
          "ticks": 21419,
          "time": 249.0581395348837,
          "velocity": 0.4409448818897638
        },
        {
          "duration": 0.3139534883721069,
          "durationTicks": 27,
          "midi": 57,
          "name": "A3",
          "ticks": 21419,
          "time": 249.0581395348837,
          "velocity": 0.3228346456692913
        },
        {
          "duration": 0.09302325581396076,
          "durationTicks": 8,
          "midi": 76,
          "name": "E5",
          "ticks": 21419,
          "time": 249.0581395348837,
          "velocity": 0.07874015748031496
        },
        {
          "duration": 0.03488372093025305,
          "durationTicks": 3,
          "midi": 82,
          "name": "A#5",
          "ticks": 21419,
          "time": 249.0581395348837,
          "velocity": 0.07874015748031496
        },
        {
          "duration": 0.09302325581393234,
          "durationTicks": 8,
          "midi": 80,
          "name": "G#5",
          "ticks": 21420,
          "time": 249.06976744186048,
          "velocity": 0.11811023622047244
        },
        {
          "duration": 0.05813953488370771,
          "durationTicks": 5,
          "midi": 38,
          "name": "D2",
          "ticks": 21423,
          "time": 249.1046511627907,
          "velocity": 0.4015748031496063
        },
        {
          "duration": 0.034883720930224626,
          "durationTicks": 3,
          "midi": 90,
          "name": "F#6",
          "ticks": 21426,
          "time": 249.13953488372093,
          "velocity": 0.10236220472440945
        },
        {
          "duration": 0.15116279069766847,
          "durationTicks": 13,
          "midi": 102,
          "name": "F#7",
          "ticks": 21427,
          "time": 249.15116279069767,
          "velocity": 0.28346456692913385
        },
        {
          "duration": 0.04651162790699459,
          "durationTicks": 4,
          "midi": 38,
          "name": "D2",
          "ticks": 21429,
          "time": 249.17441860465115,
          "velocity": 0.2992125984251969
        },
        {
          "duration": 0.09302325581393234,
          "durationTicks": 8,
          "midi": 72,
          "name": "C5",
          "ticks": 21431,
          "time": 249.19767441860466,
          "velocity": 0.10236220472440945
        },
        {
          "duration": 0.13953488372092693,
          "durationTicks": 12,
          "midi": 38,
          "name": "D2",
          "ticks": 21434,
          "time": 249.2325581395349,
          "velocity": 0.2677165354330709
        },
        {
          "duration": 0.2674418604651123,
          "durationTicks": 23,
          "midi": 69,
          "name": "A4",
          "ticks": 21447,
          "time": 249.38372093023256,
          "velocity": 0.4330708661417323
        },
        {
          "duration": 0.16279069767441,
          "durationTicks": 14,
          "midi": 72,
          "name": "C5",
          "ticks": 21447,
          "time": 249.38372093023256,
          "velocity": 0.16535433070866143
        },
        {
          "duration": 0.1046511627907023,
          "durationTicks": 9,
          "midi": 78,
          "name": "F#5",
          "ticks": 21447,
          "time": 249.38372093023256,
          "velocity": 0.14960629921259844
        },
        {
          "duration": 0.16279069767441,
          "durationTicks": 14,
          "midi": 93,
          "name": "A6",
          "ticks": 21447,
          "time": 249.38372093023256,
          "velocity": 0.18110236220472442
        },
        {
          "duration": 0.2093023255814046,
          "durationTicks": 18,
          "midi": 50,
          "name": "D3",
          "ticks": 21448,
          "time": 249.3953488372093,
          "velocity": 0.47244094488188976
        },
        {
          "duration": 0.2093023255814046,
          "durationTicks": 18,
          "midi": 66,
          "name": "F#4",
          "ticks": 21448,
          "time": 249.3953488372093,
          "velocity": 0.2125984251968504
        },
        {
          "duration": 0.06976744186047767,
          "durationTicks": 6,
          "midi": 97,
          "name": "C#7",
          "ticks": 21448,
          "time": 249.3953488372093,
          "velocity": 0.12598425196850394
        },
        {
          "duration": 0.19767441860466306,
          "durationTicks": 17,
          "midi": 57,
          "name": "A3",
          "ticks": 21449,
          "time": 249.40697674418604,
          "velocity": 0.30708661417322836
        },
        {
          "duration": 0.11627906976744384,
          "durationTicks": 10,
          "midi": 76,
          "name": "E5",
          "ticks": 21449,
          "time": 249.40697674418604,
          "velocity": 0.07086614173228346
        },
        {
          "duration": 0.03488372093025305,
          "durationTicks": 3,
          "midi": 82,
          "name": "A#5",
          "ticks": 21449,
          "time": 249.40697674418604,
          "velocity": 0.08661417322834646
        },
        {
          "duration": 0.12790697674418539,
          "durationTicks": 11,
          "midi": 88,
          "name": "E6",
          "ticks": 21449,
          "time": 249.40697674418604,
          "velocity": 0.08661417322834646
        },
        {
          "duration": 0.04651162790699459,
          "durationTicks": 4,
          "midi": 90,
          "name": "F#6",
          "ticks": 21449,
          "time": 249.40697674418604,
          "velocity": 0.15748031496062992
        },
        {
          "duration": 0.1046511627907023,
          "durationTicks": 9,
          "midi": 80,
          "name": "G#5",
          "ticks": 21450,
          "time": 249.41860465116278,
          "velocity": 0.11023622047244094
        },
        {
          "duration": 0.023255813953511506,
          "durationTicks": 2,
          "midi": 39,
          "name": "D#2",
          "ticks": 21451,
          "time": 249.43023255813952,
          "velocity": 0.4094488188976378
        },
        {
          "duration": 0.09302325581393234,
          "durationTicks": 8,
          "midi": 38,
          "name": "D2",
          "ticks": 21453,
          "time": 249.45348837209303,
          "velocity": 0.3937007874015748
        },
        {
          "duration": 0.034883720930224626,
          "durationTicks": 3,
          "midi": 90,
          "name": "F#6",
          "ticks": 21456,
          "time": 249.48837209302326,
          "velocity": 0.10236220472440945
        },
        {
          "duration": 0.05813953488373613,
          "durationTicks": 5,
          "midi": 38,
          "name": "D2",
          "ticks": 21462,
          "time": 249.5581395348837,
          "velocity": 0.14960629921259844
        },
        {
          "duration": 0.22093023255814614,
          "durationTicks": 19,
          "midi": 86,
          "name": "D6",
          "ticks": 21466,
          "time": 249.6046511627907,
          "velocity": 0.31496062992125984
        },
        {
          "duration": 0.15116279069766847,
          "durationTicks": 13,
          "midi": 102,
          "name": "F#7",
          "ticks": 21466,
          "time": 249.6046511627907,
          "velocity": 0.2755905511811024
        },
        {
          "duration": 0.16279069767441,
          "durationTicks": 14,
          "midi": 93,
          "name": "A6",
          "ticks": 21467,
          "time": 249.61627906976744,
          "velocity": 0.2283464566929134
        },
        {
          "duration": 0.05813953488370771,
          "durationTicks": 5,
          "midi": 41,
          "name": "F2",
          "ticks": 21468,
          "time": 249.62790697674419,
          "velocity": 0.16535433070866143
        },
        {
          "duration": 0.33720930232559,
          "durationTicks": 29,
          "midi": 62,
          "name": "D4",
          "ticks": 21477,
          "time": 249.7325581395349,
          "velocity": 0.47244094488188976
        },
        {
          "duration": 0.3139534883720785,
          "durationTicks": 27,
          "midi": 69,
          "name": "A4",
          "ticks": 21477,
          "time": 249.7325581395349,
          "velocity": 0.4330708661417323
        },
        {
          "duration": 0.1046511627907023,
          "durationTicks": 9,
          "midi": 78,
          "name": "F#5",
          "ticks": 21477,
          "time": 249.7325581395349,
          "velocity": 0.14960629921259844
        },
        {
          "duration": 0.034883720930224626,
          "durationTicks": 3,
          "midi": 84,
          "name": "C6",
          "ticks": 21477,
          "time": 249.7325581395349,
          "velocity": 0.13385826771653545
        },
        {
          "duration": 0.3139534883720785,
          "durationTicks": 27,
          "midi": 50,
          "name": "D3",
          "ticks": 21478,
          "time": 249.74418604651163,
          "velocity": 0.47244094488188976
        },
        {
          "duration": 0.2906976744185954,
          "durationTicks": 25,
          "midi": 66,
          "name": "F#4",
          "ticks": 21478,
          "time": 249.74418604651163,
          "velocity": 0.2283464566929134
        },
        {
          "duration": 0.2325581395348877,
          "durationTicks": 20,
          "midi": 72,
          "name": "C5",
          "ticks": 21478,
          "time": 249.74418604651163,
          "velocity": 0.14960629921259844
        },
        {
          "duration": 0.06976744186047767,
          "durationTicks": 6,
          "midi": 97,
          "name": "C#7",
          "ticks": 21478,
          "time": 249.74418604651163,
          "velocity": 0.13385826771653545
        },
        {
          "duration": 0.30232558139533694,
          "durationTicks": 26,
          "midi": 57,
          "name": "A3",
          "ticks": 21479,
          "time": 249.75581395348837,
          "velocity": 0.31496062992125984
        },
        {
          "duration": 0.15116279069766847,
          "durationTicks": 13,
          "midi": 76,
          "name": "E5",
          "ticks": 21479,
          "time": 249.75581395348837,
          "velocity": 0.07874015748031496
        },
        {
          "duration": 0.034883720930224626,
          "durationTicks": 3,
          "midi": 82,
          "name": "A#5",
          "ticks": 21479,
          "time": 249.75581395348837,
          "velocity": 0.07874015748031496
        },
        {
          "duration": 0.04651162790696617,
          "durationTicks": 4,
          "midi": 90,
          "name": "F#6",
          "ticks": 21479,
          "time": 249.75581395348837,
          "velocity": 0.15748031496062992
        },
        {
          "duration": 0.13953488372092693,
          "durationTicks": 12,
          "midi": 80,
          "name": "G#5",
          "ticks": 21480,
          "time": 249.7674418604651,
          "velocity": 0.10236220472440945
        },
        {
          "duration": 0.12790697674418539,
          "durationTicks": 11,
          "midi": 88,
          "name": "E6",
          "ticks": 21480,
          "time": 249.7674418604651,
          "velocity": 0.07874015748031496
        },
        {
          "duration": 0.023255813953483084,
          "durationTicks": 2,
          "midi": 39,
          "name": "D#2",
          "ticks": 21481,
          "time": 249.77906976744185,
          "velocity": 0.41732283464566927
        },
        {
          "duration": 0.13953488372092693,
          "durationTicks": 12,
          "midi": 84,
          "name": "C6",
          "ticks": 21482,
          "time": 249.7906976744186,
          "velocity": 0.14960629921259844
        },
        {
          "duration": 0.09302325581396076,
          "durationTicks": 8,
          "midi": 38,
          "name": "D2",
          "ticks": 21483,
          "time": 249.80232558139534,
          "velocity": 0.4015748031496063
        },
        {
          "duration": 0.034883720930224626,
          "durationTicks": 3,
          "midi": 90,
          "name": "F#6",
          "ticks": 21486,
          "time": 249.8372093023256,
          "velocity": 0.08661417322834646
        },
        {
          "duration": 0.15116279069766847,
          "durationTicks": 13,
          "midi": 38,
          "name": "D2",
          "ticks": 21492,
          "time": 249.90697674418604,
          "velocity": 0.2755905511811024
        },
        {
          "duration": 0.023255813953483084,
          "durationTicks": 2,
          "midi": 45,
          "name": "A2",
          "ticks": 21506,
          "time": 250.06976744186048,
          "velocity": 0.5590551181102362
        },
        {
          "duration": 0.023255813953483084,
          "durationTicks": 2,
          "midi": 81,
          "name": "A5",
          "ticks": 21506,
          "time": 250.06976744186048,
          "velocity": 0.25196850393700787
        },
        {
          "duration": 0.12790697674418539,
          "durationTicks": 11,
          "midi": 91,
          "name": "G6",
          "ticks": 21506,
          "time": 250.06976744186048,
          "velocity": 0.2283464566929134
        },
        {
          "duration": 0.09302325581393234,
          "durationTicks": 8,
          "midi": 95,
          "name": "B6",
          "ticks": 21506,
          "time": 250.06976744186048,
          "velocity": 0.16535433070866143
        },
        {
          "duration": 0.13953488372092693,
          "durationTicks": 12,
          "midi": 96,
          "name": "C7",
          "ticks": 21506,
          "time": 250.06976744186048,
          "velocity": 0.1889763779527559
        },
        {
          "duration": 0.16279069767441,
          "durationTicks": 14,
          "midi": 98,
          "name": "D7",
          "ticks": 21506,
          "time": 250.06976744186048,
          "velocity": 0.2283464566929134
        },
        {
          "duration": 0.13953488372092693,
          "durationTicks": 12,
          "midi": 102,
          "name": "F#7",
          "ticks": 21506,
          "time": 250.06976744186048,
          "velocity": 0.29133858267716534
        },
        {
          "duration": 0.44186046511626387,
          "durationTicks": 38,
          "midi": 60,
          "name": "C4",
          "ticks": 21507,
          "time": 250.08139534883722,
          "velocity": 0.4409448818897638
        },
        {
          "duration": 0.4534883720930054,
          "durationTicks": 39,
          "midi": 72,
          "name": "C5",
          "ticks": 21507,
          "time": 250.08139534883722,
          "velocity": 0.48031496062992124
        },
        {
          "duration": 0.32558139534882,
          "durationTicks": 28,
          "midi": 74,
          "name": "D5",
          "ticks": 21507,
          "time": 250.08139534883722,
          "velocity": 0.44881889763779526
        },
        {
          "duration": 0.44186046511626387,
          "durationTicks": 38,
          "midi": 77,
          "name": "F5",
          "ticks": 21507,
          "time": 250.08139534883722,
          "velocity": 0.2992125984251969
        },
        {
          "duration": 0.25581395348837077,
          "durationTicks": 22,
          "midi": 79,
          "name": "G5",
          "ticks": 21507,
          "time": 250.08139534883722,
          "velocity": 0.14173228346456693
        },
        {
          "duration": 0.09302325581393234,
          "durationTicks": 8,
          "midi": 88,
          "name": "E6",
          "ticks": 21507,
          "time": 250.08139534883722,
          "velocity": 0.15748031496062992
        },
        {
          "duration": 0.0813953488371908,
          "durationTicks": 7,
          "midi": 90,
          "name": "F#6",
          "ticks": 21507,
          "time": 250.08139534883722,
          "velocity": 0.08661417322834646
        },
        {
          "duration": 0.4534883720930054,
          "durationTicks": 39,
          "midi": 65,
          "name": "F4",
          "ticks": 21508,
          "time": 250.09302325581396,
          "velocity": 0.48031496062992124
        },
        {
          "duration": 0.24418604651162923,
          "durationTicks": 21,
          "midi": 82,
          "name": "A#5",
          "ticks": 21508,
          "time": 250.09302325581396,
          "velocity": 0.2125984251968504
        },
        {
          "duration": 0.44186046511626387,
          "durationTicks": 38,
          "midi": 48,
          "name": "C3",
          "ticks": 21509,
          "time": 250.1046511627907,
          "velocity": 0.5354330708661418
        },
        {
          "duration": 0.034883720930224626,
          "durationTicks": 3,
          "midi": 41,
          "name": "F2",
          "ticks": 21510,
          "time": 250.11627906976744,
          "velocity": 0.4881889763779528
        },
        {
          "duration": 0.034883720930224626,
          "durationTicks": 3,
          "midi": 83,
          "name": "B5",
          "ticks": 21510,
          "time": 250.11627906976744,
          "velocity": 0.10236220472440945
        },
        {
          "duration": 0.05813953488370771,
          "durationTicks": 5,
          "midi": 67,
          "name": "G4",
          "ticks": 21511,
          "time": 250.12790697674419,
          "velocity": 0.4330708661417323
        },
        {
          "duration": 0.1046511627907023,
          "durationTicks": 9,
          "midi": 87,
          "name": "D#6",
          "ticks": 21512,
          "time": 250.13953488372093,
          "velocity": 0.15748031496062992
        },
        {
          "duration": 0.034883720930224626,
          "durationTicks": 3,
          "midi": 67,
          "name": "G4",
          "ticks": 21517,
          "time": 250.19767441860466,
          "velocity": 0.33070866141732286
        },
        {
          "duration": 0.11627906976744384,
          "durationTicks": 10,
          "midi": 91,
          "name": "G6",
          "ticks": 21525,
          "time": 250.2906976744186,
          "velocity": 0.14173228346456693
        },
        {
          "duration": 0.2674418604651123,
          "durationTicks": 23,
          "midi": 69,
          "name": "A4",
          "ticks": 21542,
          "time": 250.48837209302326,
          "velocity": 0.4094488188976378
        },
        {
          "duration": 0.22093023255814614,
          "durationTicks": 19,
          "midi": 86,
          "name": "D6",
          "ticks": 21545,
          "time": 250.52325581395348,
          "velocity": 0.28346456692913385
        },
        {
          "duration": 0.2674418604651123,
          "durationTicks": 23,
          "midi": 98,
          "name": "D7",
          "ticks": 21545,
          "time": 250.52325581395348,
          "velocity": 0.28346456692913385
        },
        {
          "duration": 0.22093023255814614,
          "durationTicks": 19,
          "midi": 102,
          "name": "F#7",
          "ticks": 21545,
          "time": 250.52325581395348,
          "velocity": 0.3228346456692913
        },
        {
          "duration": 0.9883720930232585,
          "durationTicks": 85,
          "midi": 62,
          "name": "D4",
          "ticks": 21546,
          "time": 250.53488372093022,
          "velocity": 0.5433070866141733
        },
        {
          "duration": 0.16279069767443843,
          "durationTicks": 14,
          "midi": 78,
          "name": "F#5",
          "ticks": 21546,
          "time": 250.53488372093022,
          "velocity": 0.14960629921259844
        },
        {
          "duration": 0.12790697674418539,
          "durationTicks": 11,
          "midi": 88,
          "name": "E6",
          "ticks": 21546,
          "time": 250.53488372093022,
          "velocity": 0.10236220472440945
        },
        {
          "duration": 0.2674418604651123,
          "durationTicks": 23,
          "midi": 90,
          "name": "F#6",
          "ticks": 21546,
          "time": 250.53488372093022,
          "velocity": 0.23622047244094488
        },
        {
          "duration": 0.06976744186047767,
          "durationTicks": 6,
          "midi": 97,
          "name": "C#7",
          "ticks": 21546,
          "time": 250.53488372093022,
          "velocity": 0.14173228346456693
        },
        {
          "duration": 0.023255813953511506,
          "durationTicks": 2,
          "midi": 40,
          "name": "E2",
          "ticks": 21547,
          "time": 250.54651162790697,
          "velocity": 0.44881889763779526
        },
        {
          "duration": 0.30232558139536536,
          "durationTicks": 26,
          "midi": 50,
          "name": "D3",
          "ticks": 21547,
          "time": 250.54651162790697,
          "velocity": 0.5511811023622047
        },
        {
          "duration": 0.023255813953511506,
          "durationTicks": 2,
          "midi": 72,
          "name": "C5",
          "ticks": 21547,
          "time": 250.54651162790697,
          "velocity": 0.2992125984251969
        },
        {
          "duration": 0.03488372093025305,
          "durationTicks": 3,
          "midi": 82,
          "name": "A#5",
          "ticks": 21547,
          "time": 250.54651162790697,
          "velocity": 0.07086614173228346
        },
        {
          "duration": 0.034883720930224626,
          "durationTicks": 3,
          "midi": 39,
          "name": "D#2",
          "ticks": 21549,
          "time": 250.56976744186048,
          "velocity": 0.44881889763779526
        },
        {
          "duration": 0.13953488372092693,
          "durationTicks": 12,
          "midi": 66,
          "name": "F#4",
          "ticks": 21550,
          "time": 250.58139534883722,
          "velocity": 0.28346456692913385
        },
        {
          "duration": 0.1046511627907023,
          "durationTicks": 9,
          "midi": 84,
          "name": "C6",
          "ticks": 21551,
          "time": 250.59302325581396,
          "velocity": 0.14960629921259844
        },
        {
          "duration": 0.05813953488370771,
          "durationTicks": 5,
          "midi": 38,
          "name": "D2",
          "ticks": 21552,
          "time": 250.6046511627907,
          "velocity": 0.3779527559055118
        },
        {
          "duration": 0.034883720930224626,
          "durationTicks": 3,
          "midi": 57,
          "name": "A3",
          "ticks": 21552,
          "time": 250.6046511627907,
          "velocity": 0.1732283464566929
        },
        {
          "duration": 0.04651162790696617,
          "durationTicks": 4,
          "midi": 72,
          "name": "C5",
          "ticks": 21552,
          "time": 250.6046511627907,
          "velocity": 0.12598425196850394
        },
        {
          "duration": 0.3139534883721069,
          "durationTicks": 27,
          "midi": 69,
          "name": "A4",
          "ticks": 21576,
          "time": 250.88372093023256,
          "velocity": 0.4330708661417323
        },
        {
          "duration": 0.12790697674418539,
          "durationTicks": 11,
          "midi": 72,
          "name": "C5",
          "ticks": 21576,
          "time": 250.88372093023256,
          "velocity": 0.2283464566929134
        },
        {
          "duration": 0.3139534883721069,
          "durationTicks": 27,
          "midi": 50,
          "name": "D3",
          "ticks": 21577,
          "time": 250.8953488372093,
          "velocity": 0.48031496062992124
        },
        {
          "duration": 0.2906976744185954,
          "durationTicks": 25,
          "midi": 66,
          "name": "F#4",
          "ticks": 21577,
          "time": 250.8953488372093,
          "velocity": 0.2204724409448819
        },
        {
          "duration": 0.2325581395348877,
          "durationTicks": 20,
          "midi": 93,
          "name": "A6",
          "ticks": 21577,
          "time": 250.8953488372093,
          "velocity": 0.28346456692913385
        },
        {
          "duration": 0.06976744186047767,
          "durationTicks": 6,
          "midi": 97,
          "name": "C#7",
          "ticks": 21577,
          "time": 250.8953488372093,
          "velocity": 0.13385826771653545
        },
        {
          "duration": 0.04651162790699459,
          "durationTicks": 4,
          "midi": 39,
          "name": "D#2",
          "ticks": 21578,
          "time": 250.90697674418604,
          "velocity": 0.4409448818897638
        },
        {
          "duration": 0.30232558139536536,
          "durationTicks": 26,
          "midi": 57,
          "name": "A3",
          "ticks": 21578,
          "time": 250.90697674418604,
          "velocity": 0.31496062992125984
        },
        {
          "duration": 0.08139534883721922,
          "durationTicks": 7,
          "midi": 76,
          "name": "E5",
          "ticks": 21578,
          "time": 250.90697674418604,
          "velocity": 0.10236220472440945
        },
        {
          "duration": 0.03488372093025305,
          "durationTicks": 3,
          "midi": 82,
          "name": "A#5",
          "ticks": 21578,
          "time": 250.90697674418604,
          "velocity": 0.07086614173228346
        },
        {
          "duration": 0.06976744186047767,
          "durationTicks": 6,
          "midi": 80,
          "name": "G#5",
          "ticks": 21579,
          "time": 250.91860465116278,
          "velocity": 0.09448818897637795
        },
        {
          "duration": 0.09302325581393234,
          "durationTicks": 8,
          "midi": 38,
          "name": "D2",
          "ticks": 21582,
          "time": 250.95348837209303,
          "velocity": 0.4015748031496063
        },
        {
          "duration": 0.034883720930224626,
          "durationTicks": 3,
          "midi": 75,
          "name": "D#5",
          "ticks": 21585,
          "time": 250.98837209302326,
          "velocity": 0.3937007874015748
        },
        {
          "duration": 0.15116279069766847,
          "durationTicks": 13,
          "midi": 102,
          "name": "F#7",
          "ticks": 21585,
          "time": 250.98837209302326,
          "velocity": 0.28346456692913385
        },
        {
          "duration": 0.034883720930224626,
          "durationTicks": 3,
          "midi": 82,
          "name": "A#5",
          "ticks": 21586,
          "time": 251,
          "velocity": 0.11811023622047244
        },
        {
          "duration": 0.09302325581396076,
          "durationTicks": 8,
          "midi": 72,
          "name": "C5",
          "ticks": 21589,
          "time": 251.03488372093022,
          "velocity": 0.08661417322834646
        },
        {
          "duration": 0.023255813953511506,
          "durationTicks": 2,
          "midi": 38,
          "name": "D2",
          "ticks": 21591,
          "time": 251.0581395348837,
          "velocity": 0.2677165354330709
        },
        {
          "duration": 0.11627906976744384,
          "durationTicks": 10,
          "midi": 38,
          "name": "D2",
          "ticks": 21594,
          "time": 251.09302325581396,
          "velocity": 0.2755905511811024
        },
        {
          "duration": 0.2674418604651123,
          "durationTicks": 23,
          "midi": 69,
          "name": "A4",
          "ticks": 21605,
          "time": 251.22093023255815,
          "velocity": 0.4330708661417323
        },
        {
          "duration": 0.16279069767441,
          "durationTicks": 14,
          "midi": 72,
          "name": "C5",
          "ticks": 21605,
          "time": 251.22093023255815,
          "velocity": 0.16535433070866143
        },
        {
          "duration": 0.19767441860463464,
          "durationTicks": 17,
          "midi": 50,
          "name": "D3",
          "ticks": 21606,
          "time": 251.2325581395349,
          "velocity": 0.4645669291338583
        },
        {
          "duration": 0.2093023255814046,
          "durationTicks": 18,
          "midi": 57,
          "name": "A3",
          "ticks": 21606,
          "time": 251.2325581395349,
          "velocity": 0.33070866141732286
        },
        {
          "duration": 0.1860465116278931,
          "durationTicks": 16,
          "midi": 66,
          "name": "F#4",
          "ticks": 21606,
          "time": 251.2325581395349,
          "velocity": 0.2125984251968504
        },
        {
          "duration": 0.06976744186044925,
          "durationTicks": 6,
          "midi": 97,
          "name": "C#7",
          "ticks": 21606,
          "time": 251.2325581395349,
          "velocity": 0.12598425196850394
        },
        {
          "duration": 0.034883720930224626,
          "durationTicks": 3,
          "midi": 82,
          "name": "A#5",
          "ticks": 21607,
          "time": 251.24418604651163,
          "velocity": 0.08661417322834646
        },
        {
          "duration": 0.09302325581396076,
          "durationTicks": 8,
          "midi": 80,
          "name": "G#5",
          "ticks": 21608,
          "time": 251.25581395348837,
          "velocity": 0.08661417322834646
        },
        {
          "duration": 0.1046511627907023,
          "durationTicks": 9,
          "midi": 88,
          "name": "E6",
          "ticks": 21608,
          "time": 251.25581395348837,
          "velocity": 0.07086614173228346
        },
        {
          "duration": 0.023255813953483084,
          "durationTicks": 2,
          "midi": 39,
          "name": "D#2",
          "ticks": 21609,
          "time": 251.2674418604651,
          "velocity": 0.41732283464566927
        },
        {
          "duration": 0.09302325581396076,
          "durationTicks": 8,
          "midi": 38,
          "name": "D2",
          "ticks": 21611,
          "time": 251.2906976744186,
          "velocity": 0.3937007874015748
        },
        {
          "duration": 0.05813953488373613,
          "durationTicks": 5,
          "midi": 38,
          "name": "D2",
          "ticks": 21620,
          "time": 251.3953488372093,
          "velocity": 0.13385826771653545
        },
        {
          "duration": 0.23255813953485927,
          "durationTicks": 20,
          "midi": 86,
          "name": "D6",
          "ticks": 21624,
          "time": 251.4418604651163,
          "velocity": 0.31496062992125984
        },
        {
          "duration": 0.15116279069766847,
          "durationTicks": 13,
          "midi": 102,
          "name": "F#7",
          "ticks": 21624,
          "time": 251.4418604651163,
          "velocity": 0.28346456692913385
        },
        {
          "duration": 0.27906976744185386,
          "durationTicks": 24,
          "midi": 93,
          "name": "A6",
          "ticks": 21625,
          "time": 251.45348837209303,
          "velocity": 0.2440944881889764
        },
        {
          "duration": 0.04651162790696617,
          "durationTicks": 4,
          "midi": 41,
          "name": "F2",
          "ticks": 21626,
          "time": 251.46511627906978,
          "velocity": 0.15748031496062992
        },
        {
          "duration": 0.023255813953511506,
          "durationTicks": 2,
          "midi": 48,
          "name": "C3",
          "ticks": 21633,
          "time": 251.54651162790697,
          "velocity": 0.4015748031496063
        },
        {
          "duration": 0.8023255813953654,
          "durationTicks": 69,
          "midi": 62,
          "name": "D4",
          "ticks": 21634,
          "time": 251.5581395348837,
          "velocity": 0.4881889763779528
        },
        {
          "duration": 0.30232558139536536,
          "durationTicks": 26,
          "midi": 66,
          "name": "F#4",
          "ticks": 21634,
          "time": 251.5581395348837,
          "velocity": 0.2204724409448819
        },
        {
          "duration": 0.32558139534884845,
          "durationTicks": 28,
          "midi": 69,
          "name": "A4",
          "ticks": 21634,
          "time": 251.5581395348837,
          "velocity": 0.4330708661417323
        },
        {
          "duration": 0.19767441860466306,
          "durationTicks": 17,
          "midi": 84,
          "name": "C6",
          "ticks": 21634,
          "time": 251.5581395348837,
          "velocity": 0.14960629921259844
        },
        {
          "duration": 0.32558139534882,
          "durationTicks": 28,
          "midi": 50,
          "name": "D3",
          "ticks": 21635,
          "time": 251.56976744186048,
          "velocity": 0.47244094488188976
        },
        {
          "duration": 0.24418604651162923,
          "durationTicks": 21,
          "midi": 72,
          "name": "C5",
          "ticks": 21635,
          "time": 251.56976744186048,
          "velocity": 0.15748031496062992
        },
        {
          "duration": 0.05813953488370771,
          "durationTicks": 5,
          "midi": 85,
          "name": "C#6",
          "ticks": 21635,
          "time": 251.56976744186048,
          "velocity": 0.07086614173228346
        },
        {
          "duration": 0.06976744186044925,
          "durationTicks": 6,
          "midi": 97,
          "name": "C#7",
          "ticks": 21635,
          "time": 251.56976744186048,
          "velocity": 0.13385826771653545
        },
        {
          "duration": 0.04651162790696617,
          "durationTicks": 4,
          "midi": 39,
          "name": "D#2",
          "ticks": 21636,
          "time": 251.58139534883722,
          "velocity": 0.4409448818897638
        },
        {
          "duration": 0.3139534883720785,
          "durationTicks": 27,
          "midi": 57,
          "name": "A3",
          "ticks": 21636,
          "time": 251.58139534883722,
          "velocity": 0.31496062992125984
        },
        {
          "duration": 0.13953488372092693,
          "durationTicks": 12,
          "midi": 76,
          "name": "E5",
          "ticks": 21636,
          "time": 251.58139534883722,
          "velocity": 0.07874015748031496
        },
        {
          "duration": 0.034883720930224626,
          "durationTicks": 3,
          "midi": 82,
          "name": "A#5",
          "ticks": 21636,
          "time": 251.58139534883722,
          "velocity": 0.08661417322834646
        },
        {
          "duration": 0.15116279069766847,
          "durationTicks": 13,
          "midi": 80,
          "name": "G#5",
          "ticks": 21637,
          "time": 251.59302325581396,
          "velocity": 0.08661417322834646
        },
        {
          "duration": 0.12790697674418539,
          "durationTicks": 11,
          "midi": 88,
          "name": "E6",
          "ticks": 21637,
          "time": 251.59302325581396,
          "velocity": 0.07874015748031496
        },
        {
          "duration": 0.09302325581396076,
          "durationTicks": 8,
          "midi": 38,
          "name": "D2",
          "ticks": 21640,
          "time": 251.62790697674419,
          "velocity": 0.4015748031496063
        },
        {
          "duration": 0.16279069767441,
          "durationTicks": 14,
          "midi": 38,
          "name": "D2",
          "ticks": 21649,
          "time": 251.7325581395349,
          "velocity": 0.2755905511811024
        },
        {
          "duration": 0.023255813953483084,
          "durationTicks": 2,
          "midi": 67,
          "name": "G4",
          "ticks": 21664,
          "time": 251.90697674418604,
          "velocity": 0.33858267716535434
        },
        {
          "duration": 0.6976744186046631,
          "durationTicks": 60,
          "midi": 69,
          "name": "A4",
          "ticks": 21664,
          "time": 251.90697674418604,
          "velocity": 0.4409448818897638
        },
        {
          "duration": 0.03488372093025305,
          "durationTicks": 3,
          "midi": 75,
          "name": "D#5",
          "ticks": 21664,
          "time": 251.90697674418604,
          "velocity": 0.4094488188976378
        },
        {
          "duration": 0.19767441860466306,
          "durationTicks": 17,
          "midi": 83,
          "name": "B5",
          "ticks": 21664,
          "time": 251.90697674418604,
          "velocity": 0.2677165354330709
        },
        {
          "duration": 0.22093023255814614,
          "durationTicks": 19,
          "midi": 86,
          "name": "D6",
          "ticks": 21664,
          "time": 251.90697674418604,
          "velocity": 0.3228346456692913
        },
        {
          "duration": 0.15116279069766847,
          "durationTicks": 13,
          "midi": 102,
          "name": "F#7",
          "ticks": 21664,
          "time": 251.90697674418604,
          "velocity": 0.28346456692913385
        },
        {
          "duration": 0.011627906976741542,
          "durationTicks": 1,
          "midi": 49,
          "name": "C#3",
          "ticks": 21665,
          "time": 251.91860465116278,
          "velocity": 0.5354330708661418
        },
        {
          "duration": 0.32558139534884845,
          "durationTicks": 28,
          "midi": 78,
          "name": "F#5",
          "ticks": 21665,
          "time": 251.91860465116278,
          "velocity": 0.15748031496062992
        },
        {
          "duration": 0.08139534883721922,
          "durationTicks": 7,
          "midi": 89,
          "name": "F6",
          "ticks": 21665,
          "time": 251.91860465116278,
          "velocity": 0.2204724409448819
        },
        {
          "duration": 0.22093023255814614,
          "durationTicks": 19,
          "midi": 93,
          "name": "A6",
          "ticks": 21665,
          "time": 251.91860465116278,
          "velocity": 0.31496062992125984
        },
        {
          "duration": 0.4186046511628092,
          "durationTicks": 36,
          "midi": 50,
          "name": "D3",
          "ticks": 21666,
          "time": 251.93023255813952,
          "velocity": 0.5196850393700787
        },
        {
          "duration": 0.5465116279069946,
          "durationTicks": 47,
          "midi": 74,
          "name": "D5",
          "ticks": 21666,
          "time": 251.93023255813952,
          "velocity": 0.4881889763779528
        },
        {
          "duration": 0.43023255813955075,
          "durationTicks": 37,
          "midi": 77,
          "name": "F5",
          "ticks": 21666,
          "time": 251.93023255813952,
          "velocity": 0.12598425196850394
        },
        {
          "duration": 0.43023255813955075,
          "durationTicks": 37,
          "midi": 85,
          "name": "C#6",
          "ticks": 21666,
          "time": 251.93023255813952,
          "velocity": 0.2125984251968504
        },
        {
          "duration": 0.1860465116278931,
          "durationTicks": 16,
          "midi": 88,
          "name": "E6",
          "ticks": 21667,
          "time": 251.9418604651163,
          "velocity": 0.11023622047244094
        },
        {
          "duration": 0.023255813953483084,
          "durationTicks": 2,
          "midi": 67,
          "name": "G4",
          "ticks": 21671,
          "time": 251.98837209302326,
          "velocity": 0.2440944881889764
        },
        {
          "duration": 0.17441860465115155,
          "durationTicks": 15,
          "midi": 84,
          "name": "C6",
          "ticks": 21672,
          "time": 252,
          "velocity": 0.13385826771653545
        },
        {
          "duration": 0.023255813953483084,
          "durationTicks": 2,
          "midi": 43,
          "name": "G2",
          "ticks": 21674,
          "time": 252.02325581395348,
          "velocity": 0.3464566929133858
        },
        {
          "duration": 0.19767441860466306,
          "durationTicks": 17,
          "midi": 89,
          "name": "F6",
          "ticks": 21677,
          "time": 252.0581395348837,
          "velocity": 0.14173228346456693
        },
        {
          "duration": 0.034883720930224626,
          "durationTicks": 3,
          "midi": 43,
          "name": "G2",
          "ticks": 21680,
          "time": 252.09302325581396,
          "velocity": 0.33858267716535434
        },
        {
          "duration": 0.04651162790696617,
          "durationTicks": 4,
          "midi": 67,
          "name": "G4",
          "ticks": 21680,
          "time": 252.09302325581396,
          "velocity": 0.16535433070866143
        },
        {
          "duration": 0.22093023255814614,
          "durationTicks": 19,
          "midi": 43,
          "name": "G2",
          "ticks": 21684,
          "time": 252.13953488372093,
          "velocity": 0.33070866141732286
        },
        {
          "duration": 0.06976744186047767,
          "durationTicks": 6,
          "midi": 67,
          "name": "G4",
          "ticks": 21687,
          "time": 252.17441860465115,
          "velocity": 0.12598425196850394
        },
        {
          "duration": 0.1046511627907023,
          "durationTicks": 9,
          "midi": 67,
          "name": "G4",
          "ticks": 21694,
          "time": 252.25581395348837,
          "velocity": 0.11023622047244094
        },
        {
          "duration": 0.17441860465115155,
          "durationTicks": 15,
          "midi": 84,
          "name": "C6",
          "ticks": 21703,
          "time": 252.36046511627907,
          "velocity": 0.18110236220472442
        },
        {
          "duration": 0.27906976744185386,
          "durationTicks": 24,
          "midi": 90,
          "name": "F#6",
          "ticks": 21703,
          "time": 252.36046511627907,
          "velocity": 0.25984251968503935
        },
        {
          "duration": 0.22093023255814614,
          "durationTicks": 19,
          "midi": 93,
          "name": "A6",
          "ticks": 21703,
          "time": 252.36046511627907,
          "velocity": 0.30708661417322836
        },
        {
          "duration": 0.2674418604651123,
          "durationTicks": 23,
          "midi": 98,
          "name": "D7",
          "ticks": 21703,
          "time": 252.36046511627907,
          "velocity": 0.28346456692913385
        },
        {
          "duration": 0.22093023255814614,
          "durationTicks": 19,
          "midi": 102,
          "name": "F#7",
          "ticks": 21703,
          "time": 252.36046511627907,
          "velocity": 0.33070866141732286
        },
        {
          "duration": 0.33720930232559,
          "durationTicks": 29,
          "midi": 62,
          "name": "D4",
          "ticks": 21704,
          "time": 252.37209302325581,
          "velocity": 0.5669291338582677
        },
        {
          "duration": 0.034883720930224626,
          "durationTicks": 3,
          "midi": 85,
          "name": "C#6",
          "ticks": 21704,
          "time": 252.37209302325581,
          "velocity": 0.10236220472440945
        },
        {
          "duration": 0.06976744186047767,
          "durationTicks": 6,
          "midi": 97,
          "name": "C#7",
          "ticks": 21704,
          "time": 252.37209302325581,
          "velocity": 0.13385826771653545
        },
        {
          "duration": 0.023255813953483084,
          "durationTicks": 2,
          "midi": 40,
          "name": "E2",
          "ticks": 21705,
          "time": 252.38372093023256,
          "velocity": 0.4566929133858268
        },
        {
          "duration": 0.17441860465115155,
          "durationTicks": 15,
          "midi": 50,
          "name": "D3",
          "ticks": 21705,
          "time": 252.38372093023256,
          "velocity": 0.4015748031496063
        },
        {
          "duration": 0.22093023255814614,
          "durationTicks": 19,
          "midi": 57,
          "name": "A3",
          "ticks": 21705,
          "time": 252.38372093023256,
          "velocity": 0.33070866141732286
        },
        {
          "duration": 0.034883720930224626,
          "durationTicks": 3,
          "midi": 79,
          "name": "G5",
          "ticks": 21705,
          "time": 252.38372093023256,
          "velocity": 0.11023622047244094
        },
        {
          "duration": 0.034883720930224626,
          "durationTicks": 3,
          "midi": 82,
          "name": "A#5",
          "ticks": 21705,
          "time": 252.38372093023256,
          "velocity": 0.07874015748031496
        },
        {
          "duration": 0.023255813953483084,
          "durationTicks": 2,
          "midi": 11,
          "name": "B-1",
          "ticks": 21706,
          "time": 252.3953488372093,
          "velocity": 0.23622047244094488
        },
        {
          "duration": 0.17441860465117998,
          "durationTicks": 15,
          "midi": 66,
          "name": "F#4",
          "ticks": 21706,
          "time": 252.3953488372093,
          "velocity": 0.2677165354330709
        },
        {
          "duration": 0.05813953488373613,
          "durationTicks": 5,
          "midi": 72,
          "name": "C5",
          "ticks": 21707,
          "time": 252.40697674418604,
          "velocity": 0.09448818897637795
        },
        {
          "duration": 0.023255813953511506,
          "durationTicks": 2,
          "midi": 39,
          "name": "D#2",
          "ticks": 21708,
          "time": 252.41860465116278,
          "velocity": 0.4409448818897638
        },
        {
          "duration": 0.04651162790699459,
          "durationTicks": 4,
          "midi": 76,
          "name": "E5",
          "ticks": 21709,
          "time": 252.43023255813952,
          "velocity": 0.11811023622047244
        },
        {
          "duration": 0.034883720930224626,
          "durationTicks": 3,
          "midi": 38,
          "name": "D2",
          "ticks": 21710,
          "time": 252.4418604651163,
          "velocity": 0.3779527559055118
        },
        {
          "duration": 0.034883720930224626,
          "durationTicks": 3,
          "midi": 38,
          "name": "D2",
          "ticks": 21714,
          "time": 252.48837209302326,
          "velocity": 0.25984251968503935
        },
        {
          "duration": 0.023255813953483084,
          "durationTicks": 2,
          "midi": 63,
          "name": "D#4",
          "ticks": 21733,
          "time": 252.7093023255814,
          "velocity": 0.33070866141732286
        },
        {
          "duration": 0.32558139534882,
          "durationTicks": 28,
          "midi": 69,
          "name": "A4",
          "ticks": 21733,
          "time": 252.7093023255814,
          "velocity": 0.4330708661417323
        },
        {
          "duration": 0.1046511627907023,
          "durationTicks": 9,
          "midi": 78,
          "name": "F#5",
          "ticks": 21733,
          "time": 252.7093023255814,
          "velocity": 0.14960629921259844
        },
        {
          "duration": 0.034883720930224626,
          "durationTicks": 3,
          "midi": 84,
          "name": "C6",
          "ticks": 21733,
          "time": 252.7093023255814,
          "velocity": 0.14173228346456693
        },
        {
          "duration": 0.32558139534882,
          "durationTicks": 28,
          "midi": 50,
          "name": "D3",
          "ticks": 21734,
          "time": 252.72093023255815,
          "velocity": 0.47244094488188976
        },
        {
          "duration": 0.2906976744185954,
          "durationTicks": 25,
          "midi": 66,
          "name": "F#4",
          "ticks": 21734,
          "time": 252.72093023255815,
          "velocity": 0.2204724409448819
        },
        {
          "duration": 0.1046511627907023,
          "durationTicks": 9,
          "midi": 72,
          "name": "C5",
          "ticks": 21734,
          "time": 252.72093023255815,
          "velocity": 0.14960629921259844
        },
        {
          "duration": 0.30232558139533694,
          "durationTicks": 26,
          "midi": 93,
          "name": "A6",
          "ticks": 21734,
          "time": 252.72093023255815,
          "velocity": 0.25196850393700787
        },
        {
          "duration": 0.06976744186044925,
          "durationTicks": 6,
          "midi": 97,
          "name": "C#7",
          "ticks": 21734,
          "time": 252.72093023255815,
          "velocity": 0.13385826771653545
        },
        {
          "duration": 0.04651162790696617,
          "durationTicks": 4,
          "midi": 39,
          "name": "D#2",
          "ticks": 21735,
          "time": 252.7325581395349,
          "velocity": 0.4409448818897638
        },
        {
          "duration": 0.30232558139533694,
          "durationTicks": 26,
          "midi": 57,
          "name": "A3",
          "ticks": 21735,
          "time": 252.7325581395349,
          "velocity": 0.30708661417322836
        },
        {
          "duration": 0.6395348837209269,
          "durationTicks": 55,
          "midi": 62,
          "name": "D4",
          "ticks": 21735,
          "time": 252.7325581395349,
          "velocity": 0.48031496062992124
        },
        {
          "duration": 0.09302325581396076,
          "durationTicks": 8,
          "midi": 76,
          "name": "E5",
          "ticks": 21735,
          "time": 252.7325581395349,
          "velocity": 0.07874015748031496
        },
        {
          "duration": 0.034883720930224626,
          "durationTicks": 3,
          "midi": 82,
          "name": "A#5",
          "ticks": 21735,
          "time": 252.7325581395349,
          "velocity": 0.08661417322834646
        },
        {
          "duration": 0.13953488372092693,
          "durationTicks": 12,
          "midi": 88,
          "name": "E6",
          "ticks": 21735,
          "time": 252.7325581395349,
          "velocity": 0.07874015748031496
        },
        {
          "duration": 0.09302325581396076,
          "durationTicks": 8,
          "midi": 80,
          "name": "G#5",
          "ticks": 21736,
          "time": 252.74418604651163,
          "velocity": 0.11023622047244094
        },
        {
          "duration": 0.15116279069766847,
          "durationTicks": 13,
          "midi": 84,
          "name": "C6",
          "ticks": 21738,
          "time": 252.7674418604651,
          "velocity": 0.14960629921259844
        },
        {
          "duration": 0.05813953488373613,
          "durationTicks": 5,
          "midi": 38,
          "name": "D2",
          "ticks": 21739,
          "time": 252.77906976744185,
          "velocity": 0.4015748031496063
        },
        {
          "duration": 0.034883720930224626,
          "durationTicks": 3,
          "midi": 90,
          "name": "F#6",
          "ticks": 21742,
          "time": 252.8139534883721,
          "velocity": 0.09448818897637795
        },
        {
          "duration": 0.15116279069766847,
          "durationTicks": 13,
          "midi": 102,
          "name": "F#7",
          "ticks": 21743,
          "time": 252.82558139534885,
          "velocity": 0.28346456692913385
        },
        {
          "duration": 0.034883720930224626,
          "durationTicks": 3,
          "midi": 82,
          "name": "A#5",
          "ticks": 21744,
          "time": 252.8372093023256,
          "velocity": 0.12598425196850394
        },
        {
          "duration": 0.04651162790696617,
          "durationTicks": 4,
          "midi": 38,
          "name": "D2",
          "ticks": 21745,
          "time": 252.84883720930233,
          "velocity": 0.2992125984251969
        },
        {
          "duration": 0.08139534883721922,
          "durationTicks": 7,
          "midi": 72,
          "name": "C5",
          "ticks": 21747,
          "time": 252.87209302325581,
          "velocity": 0.09448818897637795
        },
        {
          "duration": 0.13953488372092693,
          "durationTicks": 12,
          "midi": 38,
          "name": "D2",
          "ticks": 21750,
          "time": 252.90697674418604,
          "velocity": 0.2677165354330709
        },
        {
          "duration": 0.26744186046514073,
          "durationTicks": 23,
          "midi": 69,
          "name": "A4",
          "ticks": 21763,
          "time": 253.0581395348837,
          "velocity": 0.4330708661417323
        },
        {
          "duration": 0.16279069767443843,
          "durationTicks": 14,
          "midi": 72,
          "name": "C5",
          "ticks": 21763,
          "time": 253.0581395348837,
          "velocity": 0.15748031496062992
        },
        {
          "duration": 0.1046511627907023,
          "durationTicks": 9,
          "midi": 78,
          "name": "F#5",
          "ticks": 21763,
          "time": 253.0581395348837,
          "velocity": 0.14960629921259844
        },
        {
          "duration": 0.16279069767443843,
          "durationTicks": 14,
          "midi": 93,
          "name": "A6",
          "ticks": 21763,
          "time": 253.0581395348837,
          "velocity": 0.18110236220472442
        },
        {
          "duration": 0.20930232558137618,
          "durationTicks": 18,
          "midi": 50,
          "name": "D3",
          "ticks": 21764,
          "time": 253.06976744186048,
          "velocity": 0.47244094488188976
        },
        {
          "duration": 0.1860465116278931,
          "durationTicks": 16,
          "midi": 66,
          "name": "F#4",
          "ticks": 21764,
          "time": 253.06976744186048,
          "velocity": 0.2125984251968504
        },
        {
          "duration": 0.06976744186044925,
          "durationTicks": 6,
          "midi": 97,
          "name": "C#7",
          "ticks": 21764,
          "time": 253.06976744186048,
          "velocity": 0.12598425196850394
        },
        {
          "duration": 0.19767441860463464,
          "durationTicks": 17,
          "midi": 57,
          "name": "A3",
          "ticks": 21765,
          "time": 253.08139534883722,
          "velocity": 0.30708661417322836
        },
        {
          "duration": 0.11627906976744384,
          "durationTicks": 10,
          "midi": 76,
          "name": "E5",
          "ticks": 21765,
          "time": 253.08139534883722,
          "velocity": 0.07086614173228346
        },
        {
          "duration": 0.034883720930224626,
          "durationTicks": 3,
          "midi": 82,
          "name": "A#5",
          "ticks": 21765,
          "time": 253.08139534883722,
          "velocity": 0.08661417322834646
        },
        {
          "duration": 0.11627906976744384,
          "durationTicks": 10,
          "midi": 88,
          "name": "E6",
          "ticks": 21765,
          "time": 253.08139534883722,
          "velocity": 0.08661417322834646
        },
        {
          "duration": 0.04651162790696617,
          "durationTicks": 4,
          "midi": 90,
          "name": "F#6",
          "ticks": 21765,
          "time": 253.08139534883722,
          "velocity": 0.15748031496062992
        },
        {
          "duration": 0.1046511627907023,
          "durationTicks": 9,
          "midi": 80,
          "name": "G#5",
          "ticks": 21766,
          "time": 253.09302325581396,
          "velocity": 0.10236220472440945
        },
        {
          "duration": 0.023255813953483084,
          "durationTicks": 2,
          "midi": 39,
          "name": "D#2",
          "ticks": 21767,
          "time": 253.1046511627907,
          "velocity": 0.4094488188976378
        },
        {
          "duration": 0.09302325581396076,
          "durationTicks": 8,
          "midi": 38,
          "name": "D2",
          "ticks": 21769,
          "time": 253.12790697674419,
          "velocity": 0.3937007874015748
        },
        {
          "duration": 0.03488372093025305,
          "durationTicks": 3,
          "midi": 90,
          "name": "F#6",
          "ticks": 21772,
          "time": 253.1627906976744,
          "velocity": 0.08661417322834646
        },
        {
          "duration": 0.05813953488370771,
          "durationTicks": 5,
          "midi": 38,
          "name": "D2",
          "ticks": 21778,
          "time": 253.2325581395349,
          "velocity": 0.13385826771653545
        },
        {
          "duration": 0.22093023255814614,
          "durationTicks": 19,
          "midi": 86,
          "name": "D6",
          "ticks": 21782,
          "time": 253.27906976744185,
          "velocity": 0.31496062992125984
        },
        {
          "duration": 0.15116279069766847,
          "durationTicks": 13,
          "midi": 102,
          "name": "F#7",
          "ticks": 21782,
          "time": 253.27906976744185,
          "velocity": 0.2755905511811024
        },
        {
          "duration": 0.16279069767443843,
          "durationTicks": 14,
          "midi": 93,
          "name": "A6",
          "ticks": 21783,
          "time": 253.2906976744186,
          "velocity": 0.23622047244094488
        },
        {
          "duration": 0.04651162790699459,
          "durationTicks": 4,
          "midi": 41,
          "name": "F2",
          "ticks": 21784,
          "time": 253.30232558139534,
          "velocity": 0.15748031496062992
        },
        {
          "duration": 0.33720930232559,
          "durationTicks": 29,
          "midi": 62,
          "name": "D4",
          "ticks": 21793,
          "time": 253.40697674418604,
          "velocity": 0.47244094488188976
        },
        {
          "duration": 0.3139534883721069,
          "durationTicks": 27,
          "midi": 69,
          "name": "A4",
          "ticks": 21793,
          "time": 253.40697674418604,
          "velocity": 0.4330708661417323
        },
        {
          "duration": 0.11627906976744384,
          "durationTicks": 10,
          "midi": 78,
          "name": "F#5",
          "ticks": 21793,
          "time": 253.40697674418604,
          "velocity": 0.14960629921259844
        },
        {
          "duration": 0.03488372093025305,
          "durationTicks": 3,
          "midi": 84,
          "name": "C6",
          "ticks": 21793,
          "time": 253.40697674418604,
          "velocity": 0.14173228346456693
        },
        {
          "duration": 0.3139534883721069,
          "durationTicks": 27,
          "midi": 50,
          "name": "D3",
          "ticks": 21794,
          "time": 253.41860465116278,
          "velocity": 0.47244094488188976
        },
        {
          "duration": 0.2906976744186238,
          "durationTicks": 25,
          "midi": 66,
          "name": "F#4",
          "ticks": 21794,
          "time": 253.41860465116278,
          "velocity": 0.2283464566929134
        },
        {
          "duration": 0.2325581395348877,
          "durationTicks": 20,
          "midi": 72,
          "name": "C5",
          "ticks": 21794,
          "time": 253.41860465116278,
          "velocity": 0.14960629921259844
        },
        {
          "duration": 0.16279069767443843,
          "durationTicks": 14,
          "midi": 76,
          "name": "E5",
          "ticks": 21794,
          "time": 253.41860465116278,
          "velocity": 0.07874015748031496
        },
        {
          "duration": 0.06976744186047767,
          "durationTicks": 6,
          "midi": 97,
          "name": "C#7",
          "ticks": 21794,
          "time": 253.41860465116278,
          "velocity": 0.13385826771653545
        },
        {
          "duration": 0.04651162790699459,
          "durationTicks": 4,
          "midi": 39,
          "name": "D#2",
          "ticks": 21795,
          "time": 253.43023255813952,
          "velocity": 0.4409448818897638
        },
        {
          "duration": 0.30232558139536536,
          "durationTicks": 26,
          "midi": 57,
          "name": "A3",
          "ticks": 21795,
          "time": 253.43023255813952,
          "velocity": 0.31496062992125984
        },
        {
          "duration": 0.03488372093025305,
          "durationTicks": 3,
          "midi": 82,
          "name": "A#5",
          "ticks": 21795,
          "time": 253.43023255813952,
          "velocity": 0.07874015748031496
        },
        {
          "duration": 0.04651162790699459,
          "durationTicks": 4,
          "midi": 90,
          "name": "F#6",
          "ticks": 21795,
          "time": 253.43023255813952,
          "velocity": 0.14960629921259844
        },
        {
          "duration": 0.13953488372092693,
          "durationTicks": 12,
          "midi": 80,
          "name": "G#5",
          "ticks": 21796,
          "time": 253.4418604651163,
          "velocity": 0.10236220472440945
        },
        {
          "duration": 0.12790697674418539,
          "durationTicks": 11,
          "midi": 88,
          "name": "E6",
          "ticks": 21796,
          "time": 253.4418604651163,
          "velocity": 0.07874015748031496
        },
        {
          "duration": 0.13953488372092693,
          "durationTicks": 12,
          "midi": 84,
          "name": "C6",
          "ticks": 21798,
          "time": 253.46511627906978,
          "velocity": 0.14960629921259844
        },
        {
          "duration": 0.09302325581396076,
          "durationTicks": 8,
          "midi": 38,
          "name": "D2",
          "ticks": 21799,
          "time": 253.47674418604652,
          "velocity": 0.4015748031496063
        },
        {
          "duration": 0.15116279069766847,
          "durationTicks": 13,
          "midi": 38,
          "name": "D2",
          "ticks": 21808,
          "time": 253.58139534883722,
          "velocity": 0.2755905511811024
        },
        {
          "duration": 0.023255813953483084,
          "durationTicks": 2,
          "midi": 45,
          "name": "A2",
          "ticks": 21822,
          "time": 253.74418604651163,
          "velocity": 0.5590551181102362
        },
        {
          "duration": 0.023255813953483084,
          "durationTicks": 2,
          "midi": 81,
          "name": "A5",
          "ticks": 21822,
          "time": 253.74418604651163,
          "velocity": 0.25196850393700787
        },
        {
          "duration": 0.38372093023255616,
          "durationTicks": 33,
          "midi": 86,
          "name": "D6",
          "ticks": 21822,
          "time": 253.74418604651163,
          "velocity": 0.28346456692913385
        },
        {
          "duration": 0.12790697674418539,
          "durationTicks": 11,
          "midi": 91,
          "name": "G6",
          "ticks": 21822,
          "time": 253.74418604651163,
          "velocity": 0.2283464566929134
        },
        {
          "duration": 0.09302325581396076,
          "durationTicks": 8,
          "midi": 95,
          "name": "B6",
          "ticks": 21822,
          "time": 253.74418604651163,
          "velocity": 0.16535433070866143
        },
        {
          "duration": 0.13953488372092693,
          "durationTicks": 12,
          "midi": 96,
          "name": "C7",
          "ticks": 21822,
          "time": 253.74418604651163,
          "velocity": 0.1889763779527559
        },
        {
          "duration": 0.13953488372092693,
          "durationTicks": 12,
          "midi": 102,
          "name": "F#7",
          "ticks": 21822,
          "time": 253.74418604651163,
          "velocity": 0.29133858267716534
        },
        {
          "duration": 0.4651162790697754,
          "durationTicks": 40,
          "midi": 60,
          "name": "C4",
          "ticks": 21823,
          "time": 253.75581395348837,
          "velocity": 0.4409448818897638
        },
        {
          "duration": 0.48837209302325846,
          "durationTicks": 42,
          "midi": 72,
          "name": "C5",
          "ticks": 21823,
          "time": 253.75581395348837,
          "velocity": 0.48031496062992124
        },
        {
          "duration": 0.32558139534884845,
          "durationTicks": 28,
          "midi": 74,
          "name": "D5",
          "ticks": 21823,
          "time": 253.75581395348837,
          "velocity": 0.44881889763779526
        },
        {
          "duration": 0.4651162790697754,
          "durationTicks": 40,
          "midi": 77,
          "name": "F5",
          "ticks": 21823,
          "time": 253.75581395348837,
          "velocity": 0.2992125984251969
        },
        {
          "duration": 0.25581395348837077,
          "durationTicks": 22,
          "midi": 79,
          "name": "G5",
          "ticks": 21823,
          "time": 253.75581395348837,
          "velocity": 0.14173228346456693
        },
        {
          "duration": 0.09302325581396076,
          "durationTicks": 8,
          "midi": 88,
          "name": "E6",
          "ticks": 21823,
          "time": 253.75581395348837,
          "velocity": 0.15748031496062992
        },
        {
          "duration": 0.08139534883721922,
          "durationTicks": 7,
          "midi": 90,
          "name": "F#6",
          "ticks": 21823,
          "time": 253.75581395348837,
          "velocity": 0.08661417322834646
        },
        {
          "duration": 0.48837209302325846,
          "durationTicks": 42,
          "midi": 65,
          "name": "F4",
          "ticks": 21824,
          "time": 253.7674418604651,
          "velocity": 0.47244094488188976
        },
        {
          "duration": 0.24418604651162923,
          "durationTicks": 21,
          "midi": 82,
          "name": "A#5",
          "ticks": 21824,
          "time": 253.7674418604651,
          "velocity": 0.2125984251968504
        },
        {
          "duration": 0.4186046511628092,
          "durationTicks": 36,
          "midi": 48,
          "name": "C3",
          "ticks": 21825,
          "time": 253.77906976744185,
          "velocity": 0.4881889763779528
        },
        {
          "duration": 0.04651162790699459,
          "durationTicks": 4,
          "midi": 83,
          "name": "B5",
          "ticks": 21825,
          "time": 253.77906976744185,
          "velocity": 0.09448818897637795
        },
        {
          "duration": 0.03488372093025305,
          "durationTicks": 3,
          "midi": 41,
          "name": "F2",
          "ticks": 21826,
          "time": 253.7906976744186,
          "velocity": 0.4881889763779528
        },
        {
          "duration": 0.05813953488373613,
          "durationTicks": 5,
          "midi": 67,
          "name": "G4",
          "ticks": 21827,
          "time": 253.80232558139534,
          "velocity": 0.4330708661417323
        },
        {
          "duration": 0.10465116279067388,
          "durationTicks": 9,
          "midi": 87,
          "name": "D#6",
          "ticks": 21828,
          "time": 253.8139534883721,
          "velocity": 0.15748031496062992
        },
        {
          "duration": 0.034883720930224626,
          "durationTicks": 3,
          "midi": 67,
          "name": "G4",
          "ticks": 21833,
          "time": 253.87209302325581,
          "velocity": 0.33070866141732286
        },
        {
          "duration": 0.11627906976744384,
          "durationTicks": 10,
          "midi": 91,
          "name": "G6",
          "ticks": 21841,
          "time": 253.96511627906978,
          "velocity": 0.14173228346456693
        },
        {
          "duration": 0.5,
          "durationTicks": 43,
          "midi": 69,
          "name": "A4",
          "ticks": 21858,
          "time": 254.1627906976744,
          "velocity": 0.4251968503937008
        },
        {
          "duration": 0.034883720930224626,
          "durationTicks": 3,
          "midi": 50,
          "name": "D3",
          "ticks": 21862,
          "time": 254.2093023255814,
          "velocity": 0.4409448818897638
        },
        {
          "duration": 0.4302325581395223,
          "durationTicks": 37,
          "midi": 93,
          "name": "A6",
          "ticks": 21862,
          "time": 254.2093023255814,
          "velocity": 0.1889763779527559
        },
        {
          "duration": 0.4534883720930054,
          "durationTicks": 39,
          "midi": 62,
          "name": "D4",
          "ticks": 21863,
          "time": 254.22093023255815,
          "velocity": 0.5039370078740157
        },
        {
          "duration": 0.09302325581396076,
          "durationTicks": 8,
          "midi": 78,
          "name": "F#5",
          "ticks": 21863,
          "time": 254.22093023255815,
          "velocity": 0.14173228346456693
        },
        {
          "duration": 0.04651162790696617,
          "durationTicks": 4,
          "midi": 82,
          "name": "A#5",
          "ticks": 21863,
          "time": 254.22093023255815,
          "velocity": 0.11811023622047244
        },
        {
          "duration": 0.06976744186044925,
          "durationTicks": 6,
          "midi": 97,
          "name": "C#7",
          "ticks": 21863,
          "time": 254.22093023255815,
          "velocity": 0.13385826771653545
        },
        {
          "duration": 0.023255813953483084,
          "durationTicks": 2,
          "midi": 40,
          "name": "E2",
          "ticks": 21864,
          "time": 254.2325581395349,
          "velocity": 0.47244094488188976
        },
        {
          "duration": 0.2674418604651123,
          "durationTicks": 23,
          "midi": 57,
          "name": "A3",
          "ticks": 21864,
          "time": 254.2325581395349,
          "velocity": 0.3543307086614173
        },
        {
          "duration": 0.04651162790696617,
          "durationTicks": 4,
          "midi": 90,
          "name": "F#6",
          "ticks": 21864,
          "time": 254.2325581395349,
          "velocity": 0.14173228346456693
        },
        {
          "duration": 0.09302325581396076,
          "durationTicks": 8,
          "midi": 80,
          "name": "G#5",
          "ticks": 21865,
          "time": 254.24418604651163,
          "velocity": 0.09448818897637795
        },
        {
          "duration": 0.023255813953483084,
          "durationTicks": 2,
          "midi": 39,
          "name": "D#2",
          "ticks": 21866,
          "time": 254.25581395348837,
          "velocity": 0.44881889763779526
        },
        {
          "duration": 0.09302325581396076,
          "durationTicks": 8,
          "midi": 50,
          "name": "D3",
          "ticks": 21867,
          "time": 254.2674418604651,
          "velocity": 0.4015748031496063
        },
        {
          "duration": 0.08139534883721922,
          "durationTicks": 7,
          "midi": 66,
          "name": "F#4",
          "ticks": 21867,
          "time": 254.2674418604651,
          "velocity": 0.25196850393700787
        },
        {
          "duration": 0.06976744186047767,
          "durationTicks": 6,
          "midi": 38,
          "name": "D2",
          "ticks": 21868,
          "time": 254.27906976744185,
          "velocity": 0.4015748031496063
        },
        {
          "duration": 0.06976744186047767,
          "durationTicks": 6,
          "midi": 72,
          "name": "C5",
          "ticks": 21868,
          "time": 254.27906976744185,
          "velocity": 0.13385826771653545
        },
        {
          "duration": 0.04651162790699459,
          "durationTicks": 4,
          "midi": 76,
          "name": "E5",
          "ticks": 21869,
          "time": 254.2906976744186,
          "velocity": 0.09448818897637795
        },
        {
          "duration": 0.04651162790696617,
          "durationTicks": 4,
          "midi": 72,
          "name": "C5",
          "ticks": 21875,
          "time": 254.36046511627907,
          "velocity": 0.11023622047244094
        },
        {
          "duration": 0.11627906976744384,
          "durationTicks": 10,
          "midi": 78,
          "name": "F#5",
          "ticks": 21875,
          "time": 254.36046511627907,
          "velocity": 0.1732283464566929
        },
        {
          "duration": 0.034883720930224626,
          "durationTicks": 3,
          "midi": 79,
          "name": "G5",
          "ticks": 21875,
          "time": 254.36046511627907,
          "velocity": 0.14960629921259844
        },
        {
          "duration": 0.27906976744185386,
          "durationTicks": 24,
          "midi": 88,
          "name": "E6",
          "ticks": 21875,
          "time": 254.36046511627907,
          "velocity": 0.12598425196850394
        },
        {
          "duration": 0.09302325581396076,
          "durationTicks": 8,
          "midi": 97,
          "name": "C#7",
          "ticks": 21875,
          "time": 254.36046511627907,
          "velocity": 0.14173228346456693
        },
        {
          "duration": 0.12790697674418539,
          "durationTicks": 11,
          "midi": 50,
          "name": "D3",
          "ticks": 21876,
          "time": 254.37209302325581,
          "velocity": 0.48031496062992124
        },
        {
          "duration": 0.2906976744185954,
          "durationTicks": 25,
          "midi": 66,
          "name": "F#4",
          "ticks": 21876,
          "time": 254.37209302325581,
          "velocity": 0.28346456692913385
        },
        {
          "duration": 0.2674418604651123,
          "durationTicks": 23,
          "midi": 76,
          "name": "E5",
          "ticks": 21876,
          "time": 254.37209302325581,
          "velocity": 0.12598425196850394
        },
        {
          "duration": 0.04651162790696617,
          "durationTicks": 4,
          "midi": 39,
          "name": "D#2",
          "ticks": 21877,
          "time": 254.38372093023256,
          "velocity": 0.4645669291338583
        },
        {
          "duration": 0.11627906976744384,
          "durationTicks": 10,
          "midi": 80,
          "name": "G#5",
          "ticks": 21878,
          "time": 254.3953488372093,
          "velocity": 0.12598425196850394
        },
        {
          "duration": 0.05813953488373613,
          "durationTicks": 5,
          "midi": 38,
          "name": "D2",
          "ticks": 21881,
          "time": 254.43023255813952,
          "velocity": 0.4251968503937008
        },
        {
          "duration": 0.1046511627907023,
          "durationTicks": 9,
          "midi": 84,
          "name": "C6",
          "ticks": 21881,
          "time": 254.43023255813952,
          "velocity": 0.15748031496062992
        },
        {
          "duration": 0.13953488372092693,
          "durationTicks": 12,
          "midi": 72,
          "name": "C5",
          "ticks": 21887,
          "time": 254.5,
          "velocity": 0.11811023622047244
        },
        {
          "duration": 0.09302325581396076,
          "durationTicks": 8,
          "midi": 97,
          "name": "C#7",
          "ticks": 21887,
          "time": 254.5,
          "velocity": 0.15748031496062992
        },
        {
          "duration": 0.27906976744185386,
          "durationTicks": 24,
          "midi": 50,
          "name": "D3",
          "ticks": 21889,
          "time": 254.52325581395348,
          "velocity": 0.4881889763779528
        },
        {
          "duration": 0.13953488372092693,
          "durationTicks": 12,
          "midi": 57,
          "name": "A3",
          "ticks": 21889,
          "time": 254.52325581395348,
          "velocity": 0.2755905511811024
        },
        {
          "duration": 0.03488372093025305,
          "durationTicks": 3,
          "midi": 39,
          "name": "D#2",
          "ticks": 21890,
          "time": 254.53488372093022,
          "velocity": 0.44881889763779526
        },
        {
          "duration": 0.1046511627907023,
          "durationTicks": 9,
          "midi": 80,
          "name": "G#5",
          "ticks": 21890,
          "time": 254.53488372093022,
          "velocity": 0.11023622047244094
        },
        {
          "duration": 0.0813953488371908,
          "durationTicks": 7,
          "midi": 38,
          "name": "D2",
          "ticks": 21893,
          "time": 254.56976744186048,
          "velocity": 0.4251968503937008
        },
        {
          "duration": 0.12790697674418539,
          "durationTicks": 11,
          "midi": 84,
          "name": "C6",
          "ticks": 21893,
          "time": 254.56976744186048,
          "velocity": 0.16535433070866143
        },
        {
          "duration": 0.023255813953483084,
          "durationTicks": 2,
          "midi": 68,
          "name": "G#4",
          "ticks": 21901,
          "time": 254.6627906976744,
          "velocity": 0.2755905511811024
        },
        {
          "duration": 0.45348837209303383,
          "durationTicks": 39,
          "midi": 81,
          "name": "A5",
          "ticks": 21901,
          "time": 254.6627906976744,
          "velocity": 0.2204724409448819
        },
        {
          "duration": 0.45348837209303383,
          "durationTicks": 39,
          "midi": 57,
          "name": "A3",
          "ticks": 21902,
          "time": 254.67441860465115,
          "velocity": 0.36220472440944884
        },
        {
          "duration": 0.2906976744186238,
          "durationTicks": 25,
          "midi": 66,
          "name": "F#4",
          "ticks": 21902,
          "time": 254.67441860465115,
          "velocity": 0.2283464566929134
        },
        {
          "duration": 0.43023255813955075,
          "durationTicks": 37,
          "midi": 72,
          "name": "C5",
          "ticks": 21902,
          "time": 254.67441860465115,
          "velocity": 0.11023622047244094
        },
        {
          "duration": 0.06976744186047767,
          "durationTicks": 6,
          "midi": 92,
          "name": "G#6",
          "ticks": 21902,
          "time": 254.67441860465115,
          "velocity": 0.07086614173228346
        },
        {
          "duration": 0.06976744186047767,
          "durationTicks": 6,
          "midi": 97,
          "name": "C#7",
          "ticks": 21902,
          "time": 254.67441860465115,
          "velocity": 0.14173228346456693
        },
        {
          "duration": 0.04651162790699459,
          "durationTicks": 4,
          "midi": 39,
          "name": "D#2",
          "ticks": 21903,
          "time": 254.6860465116279,
          "velocity": 0.47244094488188976
        },
        {
          "duration": 0.4418604651162923,
          "durationTicks": 38,
          "midi": 69,
          "name": "A4",
          "ticks": 21903,
          "time": 254.6860465116279,
          "velocity": 0.41732283464566927
        },
        {
          "duration": 0.03488372093025305,
          "durationTicks": 3,
          "midi": 82,
          "name": "A#5",
          "ticks": 21903,
          "time": 254.6860465116279,
          "velocity": 0.07874015748031496
        },
        {
          "duration": 0.04651162790699459,
          "durationTicks": 4,
          "midi": 90,
          "name": "F#6",
          "ticks": 21903,
          "time": 254.6860465116279,
          "velocity": 0.16535433070866143
        },
        {
          "duration": 0.06976744186044925,
          "durationTicks": 6,
          "midi": 38,
          "name": "D2",
          "ticks": 21907,
          "time": 254.7325581395349,
          "velocity": 0.41732283464566927
        },
        {
          "duration": 0.11627906976744384,
          "durationTicks": 10,
          "midi": 84,
          "name": "C6",
          "ticks": 21907,
          "time": 254.7325581395349,
          "velocity": 0.16535433070866143
        },
        {
          "duration": 0.034883720930224626,
          "durationTicks": 3,
          "midi": 90,
          "name": "F#6",
          "ticks": 21909,
          "time": 254.75581395348837,
          "velocity": 0.10236220472440945
        },
        {
          "duration": 0.023255813953511506,
          "durationTicks": 2,
          "midi": 49,
          "name": "C#3",
          "ticks": 21913,
          "time": 254.80232558139534,
          "velocity": 0.4330708661417323
        },
        {
          "duration": 0.09302325581393234,
          "durationTicks": 8,
          "midi": 97,
          "name": "C#7",
          "ticks": 21914,
          "time": 254.8139534883721,
          "velocity": 0.14960629921259844
        },
        {
          "duration": 0.12790697674418539,
          "durationTicks": 11,
          "midi": 50,
          "name": "D3",
          "ticks": 21915,
          "time": 254.82558139534885,
          "velocity": 0.48031496062992124
        },
        {
          "duration": 0.12790697674418539,
          "durationTicks": 11,
          "midi": 76,
          "name": "E5",
          "ticks": 21915,
          "time": 254.82558139534885,
          "velocity": 0.10236220472440945
        },
        {
          "duration": 0.2906976744185954,
          "durationTicks": 25,
          "midi": 88,
          "name": "E6",
          "ticks": 21915,
          "time": 254.82558139534885,
          "velocity": 0.13385826771653545
        },
        {
          "duration": 0.04651162790696617,
          "durationTicks": 4,
          "midi": 39,
          "name": "D#2",
          "ticks": 21916,
          "time": 254.8372093023256,
          "velocity": 0.47244094488188976
        },
        {
          "duration": 0.11627906976744384,
          "durationTicks": 10,
          "midi": 80,
          "name": "G#5",
          "ticks": 21916,
          "time": 254.8372093023256,
          "velocity": 0.12598425196850394
        },
        {
          "duration": 0.06976744186047767,
          "durationTicks": 6,
          "midi": 38,
          "name": "D2",
          "ticks": 21920,
          "time": 254.88372093023256,
          "velocity": 0.4330708661417323
        },
        {
          "duration": 0.11627906976744384,
          "durationTicks": 10,
          "midi": 84,
          "name": "C6",
          "ticks": 21920,
          "time": 254.88372093023256,
          "velocity": 0.16535433070866143
        },
        {
          "duration": 0.023255813953483084,
          "durationTicks": 2,
          "midi": 49,
          "name": "C#3",
          "ticks": 21926,
          "time": 254.95348837209303,
          "velocity": 0.4330708661417323
        },
        {
          "duration": 0.11627906976744384,
          "durationTicks": 10,
          "midi": 78,
          "name": "F#5",
          "ticks": 21927,
          "time": 254.96511627906978,
          "velocity": 0.1732283464566929
        },
        {
          "duration": 0.034883720930224626,
          "durationTicks": 3,
          "midi": 79,
          "name": "G5",
          "ticks": 21927,
          "time": 254.96511627906978,
          "velocity": 0.15748031496062992
        },
        {
          "duration": 0.09302325581393234,
          "durationTicks": 8,
          "midi": 97,
          "name": "C#7",
          "ticks": 21927,
          "time": 254.96511627906978,
          "velocity": 0.14960629921259844
        },
        {
          "duration": 0.3720930232558146,
          "durationTicks": 32,
          "midi": 50,
          "name": "D3",
          "ticks": 21928,
          "time": 254.97674418604652,
          "velocity": 0.49606299212598426
        },
        {
          "duration": 0.15116279069766847,
          "durationTicks": 13,
          "midi": 66,
          "name": "F#4",
          "ticks": 21928,
          "time": 254.97674418604652,
          "velocity": 0.2204724409448819
        },
        {
          "duration": 0.12790697674418539,
          "durationTicks": 11,
          "midi": 76,
          "name": "E5",
          "ticks": 21928,
          "time": 254.97674418604652,
          "velocity": 0.09448818897637795
        },
        {
          "duration": 0.04651162790696617,
          "durationTicks": 4,
          "midi": 39,
          "name": "D#2",
          "ticks": 21929,
          "time": 254.98837209302326,
          "velocity": 0.47244094488188976
        },
        {
          "duration": 0.09302325581396076,
          "durationTicks": 8,
          "midi": 80,
          "name": "G#5",
          "ticks": 21930,
          "time": 255,
          "velocity": 0.11811023622047244
        },
        {
          "duration": 0.08139534883721922,
          "durationTicks": 7,
          "midi": 38,
          "name": "D2",
          "ticks": 21933,
          "time": 255.03488372093022,
          "velocity": 0.4330708661417323
        },
        {
          "duration": 0.12790697674418539,
          "durationTicks": 11,
          "midi": 84,
          "name": "C6",
          "ticks": 21933,
          "time": 255.03488372093022,
          "velocity": 0.16535433070866143
        },
        {
          "duration": 0.023255813953483084,
          "durationTicks": 2,
          "midi": 68,
          "name": "G#4",
          "ticks": 21941,
          "time": 255.12790697674419,
          "velocity": 0.28346456692913385
        },
        {
          "duration": 0.12790697674418539,
          "durationTicks": 11,
          "midi": 81,
          "name": "A5",
          "ticks": 21941,
          "time": 255.12790697674419,
          "velocity": 0.16535433070866143
        },
        {
          "duration": 0.25581395348837077,
          "durationTicks": 22,
          "midi": 57,
          "name": "A3",
          "ticks": 21942,
          "time": 255.13953488372093,
          "velocity": 0.4251968503937008
        },
        {
          "duration": 0.16279069767441,
          "durationTicks": 14,
          "midi": 66,
          "name": "F#4",
          "ticks": 21942,
          "time": 255.13953488372093,
          "velocity": 0.1889763779527559
        },
        {
          "duration": 0.11627906976744384,
          "durationTicks": 10,
          "midi": 72,
          "name": "C5",
          "ticks": 21942,
          "time": 255.13953488372093,
          "velocity": 0.10236220472440945
        },
        {
          "duration": 0.05813953488373613,
          "durationTicks": 5,
          "midi": 90,
          "name": "F#6",
          "ticks": 21942,
          "time": 255.13953488372093,
          "velocity": 0.1732283464566929
        },
        {
          "duration": 0.06976744186047767,
          "durationTicks": 6,
          "midi": 92,
          "name": "G#6",
          "ticks": 21942,
          "time": 255.13953488372093,
          "velocity": 0.07086614173228346
        },
        {
          "duration": 0.06976744186047767,
          "durationTicks": 6,
          "midi": 97,
          "name": "C#7",
          "ticks": 21942,
          "time": 255.13953488372093,
          "velocity": 0.14173228346456693
        },
        {
          "duration": 0.04651162790699459,
          "durationTicks": 4,
          "midi": 39,
          "name": "D#2",
          "ticks": 21943,
          "time": 255.15116279069767,
          "velocity": 0.47244094488188976
        },
        {
          "duration": 0.5581395348837361,
          "durationTicks": 48,
          "midi": 69,
          "name": "A4",
          "ticks": 21943,
          "time": 255.15116279069767,
          "velocity": 0.5984251968503937
        },
        {
          "duration": 0.034883720930224626,
          "durationTicks": 3,
          "midi": 82,
          "name": "A#5",
          "ticks": 21943,
          "time": 255.15116279069767,
          "velocity": 0.07874015748031496
        },
        {
          "duration": 0.1046511627907023,
          "durationTicks": 9,
          "midi": 84,
          "name": "C6",
          "ticks": 21946,
          "time": 255.1860465116279,
          "velocity": 0.14173228346456693
        },
        {
          "duration": 0.09302325581393234,
          "durationTicks": 8,
          "midi": 38,
          "name": "D2",
          "ticks": 21947,
          "time": 255.19767441860466,
          "velocity": 0.41732283464566927
        },
        {
          "duration": 0.03488372093025305,
          "durationTicks": 3,
          "midi": 38,
          "name": "D2",
          "ticks": 21956,
          "time": 255.30232558139534,
          "velocity": 0.16535433070866143
        },
        {
          "duration": 0.2093023255814046,
          "durationTicks": 18,
          "midi": 85,
          "name": "C#6",
          "ticks": 21961,
          "time": 255.36046511627907,
          "velocity": 0.1968503937007874
        },
        {
          "duration": 0.4767441860465169,
          "durationTicks": 41,
          "midi": 88,
          "name": "E6",
          "ticks": 21961,
          "time": 255.36046511627907,
          "velocity": 0.2283464566929134
        },
        {
          "duration": 0.1860465116278931,
          "durationTicks": 16,
          "midi": 95,
          "name": "B6",
          "ticks": 21961,
          "time": 255.36046511627907,
          "velocity": 0.12598425196850394
        },
        {
          "duration": 0.034883720930224626,
          "durationTicks": 3,
          "midi": 41,
          "name": "F2",
          "ticks": 21962,
          "time": 255.37209302325581,
          "velocity": 0.3228346456692913
        },
        {
          "duration": 0.034883720930224626,
          "durationTicks": 3,
          "midi": 62,
          "name": "D4",
          "ticks": 21963,
          "time": 255.38372093023256,
          "velocity": 0.07874015748031496
        },
        {
          "duration": 0.08139534883721922,
          "durationTicks": 7,
          "midi": 91,
          "name": "G6",
          "ticks": 21963,
          "time": 255.38372093023256,
          "velocity": 0.11023622047244094
        },
        {
          "duration": 0.17441860465117998,
          "durationTicks": 15,
          "midi": 57,
          "name": "A3",
          "ticks": 21965,
          "time": 255.40697674418604,
          "velocity": 0.30708661417322836
        },
        {
          "duration": 0.22093023255811772,
          "durationTicks": 19,
          "midi": 60,
          "name": "C4",
          "ticks": 21980,
          "time": 255.58139534883722,
          "velocity": 0.5118110236220472
        },
        {
          "duration": 0.27906976744185386,
          "durationTicks": 24,
          "midi": 79,
          "name": "G5",
          "ticks": 21980,
          "time": 255.58139534883722,
          "velocity": 0.23622047244094488
        },
        {
          "duration": 0.2674418604651123,
          "durationTicks": 23,
          "midi": 84,
          "name": "C6",
          "ticks": 21980,
          "time": 255.58139534883722,
          "velocity": 0.29133858267716534
        },
        {
          "duration": 0.15116279069766847,
          "durationTicks": 13,
          "midi": 96,
          "name": "C7",
          "ticks": 21980,
          "time": 255.58139534883722,
          "velocity": 0.29133858267716534
        },
        {
          "duration": 0.1860465116278931,
          "durationTicks": 16,
          "midi": 100,
          "name": "E7",
          "ticks": 21980,
          "time": 255.58139534883722,
          "velocity": 0.33070866141732286
        },
        {
          "duration": 0.0813953488371908,
          "durationTicks": 7,
          "midi": 94,
          "name": "A#6",
          "ticks": 21981,
          "time": 255.59302325581396,
          "velocity": 0.08661417322834646
        },
        {
          "duration": 0.24418604651162923,
          "durationTicks": 21,
          "midi": 62,
          "name": "D4",
          "ticks": 21999,
          "time": 255.80232558139534,
          "velocity": 0.5118110236220472
        },
        {
          "duration": 0.5930232558139892,
          "durationTicks": 51,
          "midi": 81,
          "name": "A5",
          "ticks": 21999,
          "time": 255.80232558139534,
          "velocity": 0.30708661417322836
        },
        {
          "duration": 0.16279069767443843,
          "durationTicks": 14,
          "midi": 102,
          "name": "F#7",
          "ticks": 21999,
          "time": 255.80232558139534,
          "velocity": 0.31496062992125984
        },
        {
          "duration": 0.290697674418567,
          "durationTicks": 25,
          "midi": 90,
          "name": "F#6",
          "ticks": 22000,
          "time": 255.8139534883721,
          "velocity": 0.14960629921259844
        },
        {
          "duration": 0.16279069767443843,
          "durationTicks": 14,
          "midi": 102,
          "name": "F#7",
          "ticks": 22019,
          "time": 256.0348837209302,
          "velocity": 0.3228346456692913
        },
        {
          "duration": 0.9069767441860677,
          "durationTicks": 78,
          "midi": 57,
          "name": "A3",
          "ticks": 22020,
          "time": 256.04651162790697,
          "velocity": 0.3700787401574803
        },
        {
          "duration": 0.011627906976741542,
          "durationTicks": 1,
          "midi": 61,
          "name": "C#4",
          "ticks": 22020,
          "time": 256.04651162790697,
          "velocity": 0.5118110236220472
        },
        {
          "duration": 0.1511627906976969,
          "durationTicks": 13,
          "midi": 80,
          "name": "G#5",
          "ticks": 22020,
          "time": 256.04651162790697,
          "velocity": 0.14173228346456693
        },
        {
          "duration": 0.45348837209303383,
          "durationTicks": 39,
          "midi": 50,
          "name": "D3",
          "ticks": 22021,
          "time": 256.0581395348837,
          "velocity": 0.4409448818897638
        },
        {
          "duration": 0.4418604651162923,
          "durationTicks": 38,
          "midi": 62,
          "name": "D4",
          "ticks": 22021,
          "time": 256.0581395348837,
          "velocity": 0.5275590551181102
        },
        {
          "duration": 0.04651162790696617,
          "durationTicks": 4,
          "midi": 82,
          "name": "A#5",
          "ticks": 22021,
          "time": 256.0581395348837,
          "velocity": 0.07086614173228346
        },
        {
          "duration": 0.034883720930224626,
          "durationTicks": 3,
          "midi": 39,
          "name": "D#2",
          "ticks": 22022,
          "time": 256.06976744186045,
          "velocity": 0.4330708661417323
        },
        {
          "duration": 1.3372093023256184,
          "durationTicks": 115,
          "midi": 66,
          "name": "F#4",
          "ticks": 22022,
          "time": 256.06976744186045,
          "velocity": 0.25196850393700787
        },
        {
          "duration": 0.3139534883721353,
          "durationTicks": 27,
          "midi": 72,
          "name": "C5",
          "ticks": 22022,
          "time": 256.06976744186045,
          "velocity": 0.11811023622047244
        },
        {
          "duration": 0.09302325581398918,
          "durationTicks": 8,
          "midi": 76,
          "name": "E5",
          "ticks": 22023,
          "time": 256.0813953488372,
          "velocity": 0.07874015748031496
        },
        {
          "duration": 0.06976744186044925,
          "durationTicks": 6,
          "midi": 38,
          "name": "D2",
          "ticks": 22027,
          "time": 256.1279069767442,
          "velocity": 0.3779527559055118
        },
        {
          "duration": 0.17441860465112313,
          "durationTicks": 15,
          "midi": 90,
          "name": "F#6",
          "ticks": 22027,
          "time": 256.1279069767442,
          "velocity": 0.11811023622047244
        },
        {
          "duration": 0.023255813953483084,
          "durationTicks": 2,
          "midi": 37,
          "name": "C#2",
          "ticks": 22033,
          "time": 256.19767441860466,
          "velocity": 0.2677165354330709
        },
        {
          "duration": 0.2674418604651123,
          "durationTicks": 23,
          "midi": 38,
          "name": "D2",
          "ticks": 22035,
          "time": 256.22093023255815,
          "velocity": 0.28346456692913385
        },
        {
          "duration": 0.18604651162792152,
          "durationTicks": 16,
          "midi": 80,
          "name": "G#5",
          "ticks": 22059,
          "time": 256.5,
          "velocity": 0.14173228346456693
        },
        {
          "duration": 0.023255813953483084,
          "durationTicks": 2,
          "midi": 40,
          "name": "E2",
          "ticks": 22060,
          "time": 256.51162790697674,
          "velocity": 0.4409448818897638
        },
        {
          "duration": 0.6627906976744384,
          "durationTicks": 57,
          "midi": 62,
          "name": "D4",
          "ticks": 22060,
          "time": 256.51162790697674,
          "velocity": 0.2440944881889764
        },
        {
          "duration": 0.3488372093023031,
          "durationTicks": 30,
          "midi": 72,
          "name": "C5",
          "ticks": 22060,
          "time": 256.51162790697674,
          "velocity": 0.07874015748031496
        },
        {
          "duration": 0.19767441860466306,
          "durationTicks": 17,
          "midi": 76,
          "name": "E5",
          "ticks": 22060,
          "time": 256.51162790697674,
          "velocity": 0.10236220472440945
        },
        {
          "duration": 0.04651162790696617,
          "durationTicks": 4,
          "midi": 90,
          "name": "F#6",
          "ticks": 22060,
          "time": 256.51162790697674,
          "velocity": 0.13385826771653545
        },
        {
          "duration": 0.43023255813955075,
          "durationTicks": 37,
          "midi": 50,
          "name": "D3",
          "ticks": 22061,
          "time": 256.5232558139535,
          "velocity": 0.47244094488188976
        },
        {
          "duration": 0.034883720930224626,
          "durationTicks": 3,
          "midi": 39,
          "name": "D#2",
          "ticks": 22062,
          "time": 256.5348837209302,
          "velocity": 0.4566929133858268
        },
        {
          "duration": 0.034883720930224626,
          "durationTicks": 3,
          "midi": 93,
          "name": "A6",
          "ticks": 22062,
          "time": 256.5348837209302,
          "velocity": 0.11023622047244094
        },
        {
          "duration": 0.09302325581398918,
          "durationTicks": 8,
          "midi": 38,
          "name": "D2",
          "ticks": 22065,
          "time": 256.56976744186045,
          "velocity": 0.4251968503937008
        },
        {
          "duration": 0.27906976744185386,
          "durationTicks": 24,
          "midi": 38,
          "name": "D2",
          "ticks": 22074,
          "time": 256.6744186046512,
          "velocity": 0.28346456692913385
        },
        {
          "duration": 0.45348837209303383,
          "durationTicks": 39,
          "midi": 69,
          "name": "A4",
          "ticks": 22098,
          "time": 256.95348837209303,
          "velocity": 0.23622047244094488
        },
        {
          "duration": 0.2093023255814046,
          "durationTicks": 18,
          "midi": 72,
          "name": "C5",
          "ticks": 22099,
          "time": 256.9651162790698,
          "velocity": 0.08661417322834646
        },
        {
          "duration": 0.04651162790696617,
          "durationTicks": 4,
          "midi": 82,
          "name": "A#5",
          "ticks": 22099,
          "time": 256.9651162790698,
          "velocity": 0.07086614173228346
        },
        {
          "duration": 0.04651162790696617,
          "durationTicks": 4,
          "midi": 91,
          "name": "G6",
          "ticks": 22099,
          "time": 256.9651162790698,
          "velocity": 0.07086614173228346
        },
        {
          "duration": 0.2093023255814046,
          "durationTicks": 18,
          "midi": 50,
          "name": "D3",
          "ticks": 22100,
          "time": 256.9767441860465,
          "velocity": 0.44881889763779526
        },
        {
          "duration": 0.19767441860466306,
          "durationTicks": 17,
          "midi": 57,
          "name": "A3",
          "ticks": 22100,
          "time": 256.9767441860465,
          "velocity": 0.2677165354330709
        },
        {
          "duration": 0.023255813953483084,
          "durationTicks": 2,
          "midi": 39,
          "name": "D#2",
          "ticks": 22101,
          "time": 256.98837209302326,
          "velocity": 0.4409448818897638
        },
        {
          "duration": 0.10465116279067388,
          "durationTicks": 9,
          "midi": 38,
          "name": "D2",
          "ticks": 22103,
          "time": 257.01162790697674,
          "velocity": 0.4330708661417323
        },
        {
          "duration": 0.04651162790696617,
          "durationTicks": 4,
          "midi": 38,
          "name": "D2",
          "ticks": 22113,
          "time": 257.1279069767442,
          "velocity": 0.2755905511811024
        },
        {
          "duration": 0.023255813953483084,
          "durationTicks": 2,
          "midi": 56,
          "name": "G#3",
          "ticks": 22117,
          "time": 257.1744186046512,
          "velocity": 0.25196850393700787
        },
        {
          "duration": 0.2325581395348877,
          "durationTicks": 20,
          "midi": 76,
          "name": "E5",
          "ticks": 22117,
          "time": 257.1744186046512,
          "velocity": 0.11811023622047244
        },
        {
          "duration": 0.11627906976741542,
          "durationTicks": 10,
          "midi": 93,
          "name": "A6",
          "ticks": 22118,
          "time": 257.1860465116279,
          "velocity": 0.13385826771653545
        },
        {
          "duration": 0.2093023255814046,
          "durationTicks": 18,
          "midi": 50,
          "name": "D3",
          "ticks": 22119,
          "time": 257.19767441860466,
          "velocity": 0.44881889763779526
        },
        {
          "duration": 0.2093023255814046,
          "durationTicks": 18,
          "midi": 57,
          "name": "A3",
          "ticks": 22119,
          "time": 257.19767441860466,
          "velocity": 0.25196850393700787
        },
        {
          "duration": 0.45348837209303383,
          "durationTicks": 39,
          "midi": 72,
          "name": "C5",
          "ticks": 22119,
          "time": 257.19767441860466,
          "velocity": 0.2047244094488189
        },
        {
          "duration": 0.034883720930224626,
          "durationTicks": 3,
          "midi": 39,
          "name": "D#2",
          "ticks": 22120,
          "time": 257.2093023255814,
          "velocity": 0.4330708661417323
        },
        {
          "duration": 0.09302325581393234,
          "durationTicks": 8,
          "midi": 38,
          "name": "D2",
          "ticks": 22123,
          "time": 257.24418604651163,
          "velocity": 0.4330708661417323
        },
        {
          "duration": 0.058139534883764554,
          "durationTicks": 5,
          "midi": 38,
          "name": "D2",
          "ticks": 22132,
          "time": 257.3488372093023,
          "velocity": 0.2992125984251969
        },
        {
          "duration": 0.2325581395348877,
          "durationTicks": 20,
          "midi": 60,
          "name": "C4",
          "ticks": 22137,
          "time": 257.40697674418607,
          "velocity": 0.30708661417322836
        },
        {
          "duration": 0.06976744186044925,
          "durationTicks": 6,
          "midi": 77,
          "name": "F5",
          "ticks": 22137,
          "time": 257.40697674418607,
          "velocity": 0.4251968503937008
        },
        {
          "duration": 0.11627906976741542,
          "durationTicks": 10,
          "midi": 83,
          "name": "B5",
          "ticks": 22137,
          "time": 257.40697674418607,
          "velocity": 0.16535433070866143
        },
        {
          "duration": 0.22093023255814614,
          "durationTicks": 19,
          "midi": 84,
          "name": "C6",
          "ticks": 22137,
          "time": 257.40697674418607,
          "velocity": 0.25984251968503935
        },
        {
          "duration": 0.1395348837208985,
          "durationTicks": 12,
          "midi": 96,
          "name": "C7",
          "ticks": 22137,
          "time": 257.40697674418607,
          "velocity": 0.2677165354330709
        },
        {
          "duration": 0.11627906976741542,
          "durationTicks": 10,
          "midi": 101,
          "name": "F7",
          "ticks": 22137,
          "time": 257.40697674418607,
          "velocity": 0.28346456692913385
        },
        {
          "duration": 0.22093023255814614,
          "durationTicks": 19,
          "midi": 53,
          "name": "F3",
          "ticks": 22138,
          "time": 257.4186046511628,
          "velocity": 0.44881889763779526
        },
        {
          "duration": 0.1395348837208985,
          "durationTicks": 12,
          "midi": 65,
          "name": "F4",
          "ticks": 22138,
          "time": 257.4186046511628,
          "velocity": 0.5511811023622047
        },
        {
          "duration": 0.15116279069764005,
          "durationTicks": 13,
          "midi": 93,
          "name": "A6",
          "ticks": 22138,
          "time": 257.4186046511628,
          "velocity": 0.1732283464566929
        },
        {
          "duration": 0.023255813953483084,
          "durationTicks": 2,
          "midi": 42,
          "name": "F#2",
          "ticks": 22139,
          "time": 257.43023255813955,
          "velocity": 0.4409448818897638
        },
        {
          "duration": 0.034883720930224626,
          "durationTicks": 3,
          "midi": 75,
          "name": "D#5",
          "ticks": 22139,
          "time": 257.43023255813955,
          "velocity": 0.2047244094488189
        },
        {
          "duration": 0.09302325581393234,
          "durationTicks": 8,
          "midi": 69,
          "name": "A4",
          "ticks": 22140,
          "time": 257.4418604651163,
          "velocity": 0.2204724409448819
        },
        {
          "duration": 0.1395348837208985,
          "durationTicks": 12,
          "midi": 79,
          "name": "G5",
          "ticks": 22140,
          "time": 257.4418604651163,
          "velocity": 0.09448818897637795
        },
        {
          "duration": 0.034883720930224626,
          "durationTicks": 3,
          "midi": 41,
          "name": "F2",
          "ticks": 22143,
          "time": 257.4767441860465,
          "velocity": 0.44881889763779526
        },
        {
          "duration": 0.034883720930224626,
          "durationTicks": 3,
          "midi": 75,
          "name": "D#5",
          "ticks": 22145,
          "time": 257.5,
          "velocity": 0.10236220472440945
        },
        {
          "duration": 0.023255813953483084,
          "durationTicks": 2,
          "midi": 41,
          "name": "F2",
          "ticks": 22147,
          "time": 257.5232558139535,
          "velocity": 0.29133858267716534
        },
        {
          "duration": 0.16279069767443843,
          "durationTicks": 14,
          "midi": 88,
          "name": "E6",
          "ticks": 22148,
          "time": 257.5348837209302,
          "velocity": 0.2677165354330709
        },
        {
          "duration": 0.11627906976747227,
          "durationTicks": 10,
          "midi": 100,
          "name": "E7",
          "ticks": 22148,
          "time": 257.5348837209302,
          "velocity": 0.2755905511811024
        },
        {
          "duration": 0.023255813953483084,
          "durationTicks": 2,
          "midi": 40,
          "name": "E2",
          "ticks": 22149,
          "time": 257.54651162790697,
          "velocity": 0.29133858267716534
        },
        {
          "duration": 0.04651162790696617,
          "durationTicks": 4,
          "midi": 76,
          "name": "E5",
          "ticks": 22149,
          "time": 257.54651162790697,
          "velocity": 0.41732283464566927
        },
        {
          "duration": 0.1511627906976969,
          "durationTicks": 13,
          "midi": 83,
          "name": "B5",
          "ticks": 22149,
          "time": 257.54651162790697,
          "velocity": 0.2440944881889764
        },
        {
          "duration": 0.11627906976747227,
          "durationTicks": 10,
          "midi": 92,
          "name": "G#6",
          "ticks": 22149,
          "time": 257.54651162790697,
          "velocity": 0.15748031496062992
        },
        {
          "duration": 0.06976744186044925,
          "durationTicks": 6,
          "midi": 98,
          "name": "D7",
          "ticks": 22149,
          "time": 257.54651162790697,
          "velocity": 0.08661417322834646
        },
        {
          "duration": 0.09302325581398918,
          "durationTicks": 8,
          "midi": 64,
          "name": "E4",
          "ticks": 22150,
          "time": 257.5581395348837,
          "velocity": 0.5354330708661418
        },
        {
          "duration": 0.0697674418605061,
          "durationTicks": 6,
          "midi": 41,
          "name": "F2",
          "ticks": 22151,
          "time": 257.56976744186045,
          "velocity": 0.2992125984251969
        },
        {
          "duration": 0.09302325581398918,
          "durationTicks": 8,
          "midi": 69,
          "name": "A4",
          "ticks": 22151,
          "time": 257.56976744186045,
          "velocity": 0.14173228346456693
        },
        {
          "duration": 0.058139534883764554,
          "durationTicks": 5,
          "midi": 77,
          "name": "F5",
          "ticks": 22152,
          "time": 257.5813953488372,
          "velocity": 0.2204724409448819
        },
        {
          "duration": 0.06976744186044925,
          "durationTicks": 6,
          "midi": 74,
          "name": "D5",
          "ticks": 22157,
          "time": 257.63953488372096,
          "velocity": 0.44881889763779526
        },
        {
          "duration": 0.034883720930224626,
          "durationTicks": 3,
          "midi": 79,
          "name": "G5",
          "ticks": 22157,
          "time": 257.63953488372096,
          "velocity": 0.18110236220472442
        },
        {
          "duration": 0.46511627906971853,
          "durationTicks": 40,
          "midi": 81,
          "name": "A5",
          "ticks": 22157,
          "time": 257.63953488372096,
          "velocity": 0.28346456692913385
        },
        {
          "duration": 0.15116279069764005,
          "durationTicks": 13,
          "midi": 102,
          "name": "F#7",
          "ticks": 22157,
          "time": 257.63953488372096,
          "velocity": 0.30708661417322836
        },
        {
          "duration": 0.10465116279067388,
          "durationTicks": 9,
          "midi": 57,
          "name": "A3",
          "ticks": 22158,
          "time": 257.6511627906977,
          "velocity": 0.31496062992125984
        },
        {
          "duration": 0.12790697674415696,
          "durationTicks": 11,
          "midi": 62,
          "name": "D4",
          "ticks": 22158,
          "time": 257.6511627906977,
          "velocity": 0.5275590551181102
        },
        {
          "duration": 0.2209302325580893,
          "durationTicks": 19,
          "midi": 76,
          "name": "E5",
          "ticks": 22158,
          "time": 257.6511627906977,
          "velocity": 0.30708661417322836
        },
        {
          "duration": 0.12790697674415696,
          "durationTicks": 11,
          "midi": 90,
          "name": "F#6",
          "ticks": 22158,
          "time": 257.6511627906977,
          "velocity": 0.1889763779527559
        },
        {
          "duration": 0.023255813953483084,
          "durationTicks": 2,
          "midi": 40,
          "name": "E2",
          "ticks": 22159,
          "time": 257.66279069767444,
          "velocity": 0.44881889763779526
        },
        {
          "duration": 0.20930232558134776,
          "durationTicks": 18,
          "midi": 50,
          "name": "D3",
          "ticks": 22159,
          "time": 257.66279069767444,
          "velocity": 0.4566929133858268
        },
        {
          "duration": 0.20930232558134776,
          "durationTicks": 18,
          "midi": 72,
          "name": "C5",
          "ticks": 22159,
          "time": 257.66279069767444,
          "velocity": 0.4409448818897638
        },
        {
          "duration": 0.04651162790696617,
          "durationTicks": 4,
          "midi": 39,
          "name": "D#2",
          "ticks": 22161,
          "time": 257.6860465116279,
          "velocity": 0.4566929133858268
        },
        {
          "duration": 0.05813953488370771,
          "durationTicks": 5,
          "midi": 80,
          "name": "G#5",
          "ticks": 22163,
          "time": 257.7093023255814,
          "velocity": 0.07874015748031496
        },
        {
          "duration": 0.06976744186044925,
          "durationTicks": 6,
          "midi": 38,
          "name": "D2",
          "ticks": 22165,
          "time": 257.7325581395349,
          "velocity": 0.36220472440944884
        },
        {
          "duration": 0.023255813953483084,
          "durationTicks": 2,
          "midi": 66,
          "name": "F#4",
          "ticks": 22165,
          "time": 257.7325581395349,
          "velocity": 0.2283464566929134
        },
        {
          "duration": 0.2093023255814046,
          "durationTicks": 18,
          "midi": 79,
          "name": "G5",
          "ticks": 22167,
          "time": 257.75581395348837,
          "velocity": 0.25196850393700787
        },
        {
          "duration": 0.19767441860466306,
          "durationTicks": 17,
          "midi": 96,
          "name": "C7",
          "ticks": 22167,
          "time": 257.75581395348837,
          "velocity": 0.30708661417322836
        },
        {
          "duration": 0.16279069767443843,
          "durationTicks": 14,
          "midi": 100,
          "name": "E7",
          "ticks": 22167,
          "time": 257.75581395348837,
          "velocity": 0.33858267716535434
        },
        {
          "duration": 0.11627906976747227,
          "durationTicks": 10,
          "midi": 60,
          "name": "C4",
          "ticks": 22168,
          "time": 257.7674418604651,
          "velocity": 0.5118110236220472
        },
        {
          "duration": 0.09302325581393234,
          "durationTicks": 8,
          "midi": 94,
          "name": "A#6",
          "ticks": 22168,
          "time": 257.7674418604651,
          "velocity": 0.07874015748031496
        },
        {
          "duration": 0.10465116279073072,
          "durationTicks": 9,
          "midi": 66,
          "name": "F#4",
          "ticks": 22170,
          "time": 257.7906976744186,
          "velocity": 0.25196850393700787
        },
        {
          "duration": 0.09302325581398918,
          "durationTicks": 8,
          "midi": 69,
          "name": "A4",
          "ticks": 22170,
          "time": 257.7906976744186,
          "velocity": 0.2125984251968504
        },
        {
          "duration": 0.1511627906976969,
          "durationTicks": 13,
          "midi": 74,
          "name": "D5",
          "ticks": 22170,
          "time": 257.7906976744186,
          "velocity": 0.44881889763779526
        },
        {
          "duration": 0.023255813953483084,
          "durationTicks": 2,
          "midi": 37,
          "name": "C#2",
          "ticks": 22171,
          "time": 257.80232558139534,
          "velocity": 0.2755905511811024
        },
        {
          "duration": 0.023255813953483084,
          "durationTicks": 2,
          "midi": 38,
          "name": "D2",
          "ticks": 22173,
          "time": 257.8255813953488,
          "velocity": 0.2992125984251969
        },
        {
          "duration": 0.03488372093028147,
          "durationTicks": 3,
          "midi": 39,
          "name": "D#2",
          "ticks": 22175,
          "time": 257.8488372093023,
          "velocity": 0.2992125984251969
        },
        {
          "duration": 0.29069767441865224,
          "durationTicks": 25,
          "midi": 77,
          "name": "F5",
          "ticks": 22177,
          "time": 257.8720930232558,
          "velocity": 0.14960629921259844
        },
        {
          "duration": 1.3953488372093261,
          "durationTicks": 120,
          "midi": 83,
          "name": "B5",
          "ticks": 22177,
          "time": 257.8720930232558,
          "velocity": 0.2677165354330709
        },
        {
          "duration": 0.16279069767443843,
          "durationTicks": 14,
          "midi": 102,
          "name": "F#7",
          "ticks": 22177,
          "time": 257.8720930232558,
          "velocity": 0.31496062992125984
        },
        {
          "duration": 0.011627906976741542,
          "durationTicks": 1,
          "midi": 61,
          "name": "C#4",
          "ticks": 22178,
          "time": 257.8837209302326,
          "velocity": 0.5354330708661418
        },
        {
          "duration": 0.04651162790696617,
          "durationTicks": 4,
          "midi": 90,
          "name": "F#6",
          "ticks": 22178,
          "time": 257.8837209302326,
          "velocity": 0.11023622047244094
        },
        {
          "duration": 0.8488372093023031,
          "durationTicks": 73,
          "midi": 62,
          "name": "D4",
          "ticks": 22179,
          "time": 257.8953488372093,
          "velocity": 0.5196850393700787
        },
        {
          "duration": 0.04651162790696617,
          "durationTicks": 4,
          "midi": 71,
          "name": "B4",
          "ticks": 22179,
          "time": 257.8953488372093,
          "velocity": 0.14960629921259844
        },
        {
          "duration": 0.034883720930224626,
          "durationTicks": 3,
          "midi": 85,
          "name": "C#6",
          "ticks": 22179,
          "time": 257.8953488372093,
          "velocity": 0.10236220472440945
        },
        {
          "duration": 0.023255813953483084,
          "durationTicks": 2,
          "midi": 43,
          "name": "G2",
          "ticks": 22181,
          "time": 257.9186046511628,
          "velocity": 0.4094488188976378
        },
        {
          "duration": 0.034883720930224626,
          "durationTicks": 3,
          "midi": 72,
          "name": "C5",
          "ticks": 22182,
          "time": 257.93023255813955,
          "velocity": 0.2677165354330709
        },
        {
          "duration": 0.023255813953483084,
          "durationTicks": 2,
          "midi": 42,
          "name": "F#2",
          "ticks": 22183,
          "time": 257.9418604651163,
          "velocity": 0.41732283464566927
        },
        {
          "duration": 0.023255813953483084,
          "durationTicks": 2,
          "midi": 43,
          "name": "G2",
          "ticks": 22185,
          "time": 257.9651162790698,
          "velocity": 0.3858267716535433
        },
        {
          "duration": 0.034883720930224626,
          "durationTicks": 3,
          "midi": 73,
          "name": "C#5",
          "ticks": 22185,
          "time": 257.9651162790698,
          "velocity": 0.1889763779527559
        },
        {
          "duration": 0.17441860465117998,
          "durationTicks": 15,
          "midi": 90,
          "name": "F#6",
          "ticks": 22185,
          "time": 257.9651162790698,
          "velocity": 0.12598425196850394
        },
        {
          "duration": 0.034883720930224626,
          "durationTicks": 3,
          "midi": 43,
          "name": "G2",
          "ticks": 22188,
          "time": 258,
          "velocity": 0.36220472440944884
        },
        {
          "duration": 0.034883720930224626,
          "durationTicks": 3,
          "midi": 72,
          "name": "C5",
          "ticks": 22188,
          "time": 258,
          "velocity": 0.2204724409448819
        },
        {
          "duration": 0.04651162790696617,
          "durationTicks": 4,
          "midi": 55,
          "name": "G3",
          "ticks": 22191,
          "time": 258.0348837209302,
          "velocity": 0.11023622047244094
        },
        {
          "duration": 0.27906976744185386,
          "durationTicks": 24,
          "midi": 43,
          "name": "G2",
          "ticks": 22192,
          "time": 258.04651162790697,
          "velocity": 0.3464566929133858
        },
        {
          "duration": 0.04651162790702301,
          "durationTicks": 4,
          "midi": 50,
          "name": "D3",
          "ticks": 22197,
          "time": 258.1046511627907,
          "velocity": 0.1968503937007874
        },
        {
          "duration": 0.06976744186044925,
          "durationTicks": 6,
          "midi": 81,
          "name": "A5",
          "ticks": 22199,
          "time": 258.1279069767442,
          "velocity": 0.13385826771653545
        },
        {
          "duration": 0.04651162790696617,
          "durationTicks": 4,
          "midi": 50,
          "name": "D3",
          "ticks": 22204,
          "time": 258.1860465116279,
          "velocity": 0.1889763779527559
        },
        {
          "duration": 0.04651162790696617,
          "durationTicks": 4,
          "midi": 59,
          "name": "B3",
          "ticks": 22206,
          "time": 258.2093023255814,
          "velocity": 0.08661417322834646
        },
        {
          "duration": 0.05813953488370771,
          "durationTicks": 5,
          "midi": 81,
          "name": "A5",
          "ticks": 22209,
          "time": 258.24418604651163,
          "velocity": 0.08661417322834646
        },
        {
          "duration": 0.04651162790696617,
          "durationTicks": 4,
          "midi": 50,
          "name": "D3",
          "ticks": 22211,
          "time": 258.2674418604651,
          "velocity": 0.1732283464566929
        },
        {
          "duration": 0.034883720930224626,
          "durationTicks": 3,
          "midi": 59,
          "name": "B3",
          "ticks": 22213,
          "time": 258.2906976744186,
          "velocity": 0.07086614173228346
        },
        {
          "duration": 0.034883720930224626,
          "durationTicks": 3,
          "midi": 42,
          "name": "F#2",
          "ticks": 22216,
          "time": 258.3255813953488,
          "velocity": 0.5039370078740157
        },
        {
          "duration": 0.6976744186046631,
          "durationTicks": 60,
          "midi": 65,
          "name": "F4",
          "ticks": 22216,
          "time": 258.3255813953488,
          "velocity": 0.23622047244094488
        },
        {
          "duration": 0.034883720930224626,
          "durationTicks": 3,
          "midi": 81,
          "name": "A5",
          "ticks": 22217,
          "time": 258.33720930232556,
          "velocity": 0.14173228346456693
        },
        {
          "duration": 0.04651162790702301,
          "durationTicks": 4,
          "midi": 71,
          "name": "B4",
          "ticks": 22218,
          "time": 258.3488372093023,
          "velocity": 0.14173228346456693
        },
        {
          "duration": 0.023255813953483084,
          "durationTicks": 2,
          "midi": 72,
          "name": "C5",
          "ticks": 22218,
          "time": 258.3488372093023,
          "velocity": 0.2283464566929134
        },
        {
          "duration": 0.03488372093028147,
          "durationTicks": 3,
          "midi": 43,
          "name": "G2",
          "ticks": 22219,
          "time": 258.36046511627904,
          "velocity": 0.48031496062992124
        },
        {
          "duration": 0.04651162790702301,
          "durationTicks": 4,
          "midi": 59,
          "name": "B3",
          "ticks": 22219,
          "time": 258.36046511627904,
          "velocity": 0.2204724409448819
        },
        {
          "duration": 0.04651162790702301,
          "durationTicks": 4,
          "midi": 90,
          "name": "F#6",
          "ticks": 22219,
          "time": 258.36046511627904,
          "velocity": 0.09448818897637795
        },
        {
          "duration": 0.023255813953483084,
          "durationTicks": 2,
          "midi": 50,
          "name": "D3",
          "ticks": 22222,
          "time": 258.3953488372093,
          "velocity": 0.23622047244094488
        },
        {
          "duration": 0.38372093023252773,
          "durationTicks": 33,
          "midi": 43,
          "name": "G2",
          "ticks": 22223,
          "time": 258.40697674418607,
          "velocity": 0.3937007874015748
        },
        {
          "duration": 0.06976744186044925,
          "durationTicks": 6,
          "midi": 59,
          "name": "B3",
          "ticks": 22224,
          "time": 258.4186046511628,
          "velocity": 0.16535433070866143
        },
        {
          "duration": 0.05813953488370771,
          "durationTicks": 5,
          "midi": 81,
          "name": "A5",
          "ticks": 22224,
          "time": 258.4186046511628,
          "velocity": 0.10236220472440945
        },
        {
          "duration": 0.023255813953483084,
          "durationTicks": 2,
          "midi": 50,
          "name": "D3",
          "ticks": 22229,
          "time": 258.4767441860465,
          "velocity": 0.23622047244094488
        },
        {
          "duration": 0.2906976744185954,
          "durationTicks": 25,
          "midi": 59,
          "name": "B3",
          "ticks": 22231,
          "time": 258.5,
          "velocity": 0.11023622047244094
        },
        {
          "duration": 0.034883720930224626,
          "durationTicks": 3,
          "midi": 73,
          "name": "C#5",
          "ticks": 22232,
          "time": 258.51162790697674,
          "velocity": 0.14960629921259844
        },
        {
          "duration": 0.04651162790696617,
          "durationTicks": 4,
          "midi": 50,
          "name": "D3",
          "ticks": 22236,
          "time": 258.5581395348837,
          "velocity": 0.2047244094488189
        },
        {
          "duration": 0.2093023255814046,
          "durationTicks": 18,
          "midi": 73,
          "name": "C#5",
          "ticks": 22239,
          "time": 258.59302325581393,
          "velocity": 0.11811023622047244
        },
        {
          "duration": 0.04651162790696617,
          "durationTicks": 4,
          "midi": 50,
          "name": "D3",
          "ticks": 22243,
          "time": 258.63953488372096,
          "velocity": 0.1889763779527559
        },
        {
          "duration": 0.04651162790696617,
          "durationTicks": 4,
          "midi": 50,
          "name": "D3",
          "ticks": 22250,
          "time": 258.72093023255815,
          "velocity": 0.1732283464566929
        },
        {
          "duration": 0.023255813953483084,
          "durationTicks": 2,
          "midi": 50,
          "name": "D3",
          "ticks": 22255,
          "time": 258.77906976744185,
          "velocity": 0.33070866141732286
        },
        {
          "duration": 0.04651162790696617,
          "durationTicks": 4,
          "midi": 75,
          "name": "D#5",
          "ticks": 22256,
          "time": 258.7906976744186,
          "velocity": 0.14173228346456693
        },
        {
          "duration": 0.5232558139534831,
          "durationTicks": 45,
          "midi": 77,
          "name": "F5",
          "ticks": 22257,
          "time": 258.80232558139534,
          "velocity": 0.41732283464566927
        },
        {
          "duration": 0.09302325581398918,
          "durationTicks": 8,
          "midi": 81,
          "name": "A5",
          "ticks": 22258,
          "time": 258.8139534883721,
          "velocity": 0.10236220472440945
        },
        {
          "duration": 0.034883720930224626,
          "durationTicks": 3,
          "midi": 43,
          "name": "G2",
          "ticks": 22259,
          "time": 258.8255813953488,
          "velocity": 0.4409448818897638
        },
        {
          "duration": 0.19767441860466306,
          "durationTicks": 17,
          "midi": 59,
          "name": "B3",
          "ticks": 22259,
          "time": 258.8255813953488,
          "velocity": 0.1968503937007874
        },
        {
          "duration": 0.0697674418605061,
          "durationTicks": 6,
          "midi": 50,
          "name": "D3",
          "ticks": 22260,
          "time": 258.83720930232556,
          "velocity": 0.3464566929133858
        },
        {
          "duration": 0.2093023255814046,
          "durationTicks": 18,
          "midi": 73,
          "name": "C#5",
          "ticks": 22260,
          "time": 258.83720930232556,
          "velocity": 0.2755905511811024
        },
        {
          "duration": 0.13953488372095535,
          "durationTicks": 12,
          "midi": 43,
          "name": "G2",
          "ticks": 22263,
          "time": 258.8720930232558,
          "velocity": 0.3700787401574803
        },
        {
          "duration": 0.04651162790696617,
          "durationTicks": 4,
          "midi": 50,
          "name": "D3",
          "ticks": 22269,
          "time": 258.9418604651163,
          "velocity": 0.25984251968503935
        },
        {
          "duration": 0.27906976744185386,
          "durationTicks": 24,
          "midi": 74,
          "name": "D5",
          "ticks": 22273,
          "time": 258.98837209302326,
          "velocity": 0.2440944881889764
        },
        {
          "duration": 0.22093023255814614,
          "durationTicks": 19,
          "midi": 65,
          "name": "F4",
          "ticks": 22277,
          "time": 259.0348837209302,
          "velocity": 0.13385826771653545
        },
        {
          "duration": 0.04651162790696617,
          "durationTicks": 4,
          "midi": 81,
          "name": "A5",
          "ticks": 22277,
          "time": 259.0348837209302,
          "velocity": 0.08661417322834646
        },
        {
          "duration": 0.034883720930224626,
          "durationTicks": 3,
          "midi": 43,
          "name": "G2",
          "ticks": 22278,
          "time": 259.04651162790697,
          "velocity": 0.3779527559055118
        },
        {
          "duration": 0.2093023255814046,
          "durationTicks": 18,
          "midi": 59,
          "name": "B3",
          "ticks": 22278,
          "time": 259.04651162790697,
          "velocity": 0.2755905511811024
        },
        {
          "duration": 0.04651162790696617,
          "durationTicks": 4,
          "midi": 50,
          "name": "D3",
          "ticks": 22279,
          "time": 259.0581395348837,
          "velocity": 0.2677165354330709
        },
        {
          "duration": 0.19767441860466306,
          "durationTicks": 17,
          "midi": 73,
          "name": "C#5",
          "ticks": 22279,
          "time": 259.0581395348837,
          "velocity": 0.2677165354330709
        },
        {
          "duration": 0.16279069767443843,
          "durationTicks": 14,
          "midi": 43,
          "name": "G2",
          "ticks": 22282,
          "time": 259.09302325581393,
          "velocity": 0.33070866141732286
        },
        {
          "duration": 0.023255813953483084,
          "durationTicks": 2,
          "midi": 50,
          "name": "D3",
          "ticks": 22288,
          "time": 259.16279069767444,
          "velocity": 0.2283464566929134
        },
        {
          "duration": 0.034883720930224626,
          "durationTicks": 3,
          "midi": 40,
          "name": "E2",
          "ticks": 22296,
          "time": 259.25581395348837,
          "velocity": 0.3543307086614173
        },
        {
          "duration": 0.023255813953483084,
          "durationTicks": 2,
          "midi": 49,
          "name": "C#3",
          "ticks": 22296,
          "time": 259.25581395348837,
          "velocity": 0.44881889763779526
        },
        {
          "duration": 0.11627906976741542,
          "durationTicks": 10,
          "midi": 69,
          "name": "A4",
          "ticks": 22296,
          "time": 259.25581395348837,
          "velocity": 0.29133858267716534
        },
        {
          "duration": 0.1511627906976969,
          "durationTicks": 13,
          "midi": 84,
          "name": "C6",
          "ticks": 22296,
          "time": 259.25581395348837,
          "velocity": 0.2440944881889764
        },
        {
          "duration": 0.1511627906976969,
          "durationTicks": 13,
          "midi": 93,
          "name": "A6",
          "ticks": 22296,
          "time": 259.25581395348837,
          "velocity": 0.2125984251968504
        },
        {
          "duration": 0.10465116279067388,
          "durationTicks": 9,
          "midi": 101,
          "name": "F7",
          "ticks": 22296,
          "time": 259.25581395348837,
          "velocity": 0.28346456692913385
        },
        {
          "duration": 0.2093023255814046,
          "durationTicks": 18,
          "midi": 57,
          "name": "A3",
          "ticks": 22297,
          "time": 259.2674418604651,
          "velocity": 0.3228346456692913
        },
        {
          "duration": 0.11627906976747227,
          "durationTicks": 10,
          "midi": 65,
          "name": "F4",
          "ticks": 22297,
          "time": 259.2674418604651,
          "velocity": 0.5039370078740157
        },
        {
          "duration": 0.2093023255814046,
          "durationTicks": 18,
          "midi": 50,
          "name": "D3",
          "ticks": 22298,
          "time": 259.27906976744185,
          "velocity": 0.4566929133858268
        },
        {
          "duration": 0.034883720930224626,
          "durationTicks": 3,
          "midi": 72,
          "name": "C5",
          "ticks": 22299,
          "time": 259.2906976744186,
          "velocity": 0.14960629921259844
        },
        {
          "duration": 0.034883720930224626,
          "durationTicks": 3,
          "midi": 74,
          "name": "D5",
          "ticks": 22299,
          "time": 259.2906976744186,
          "velocity": 0.09448818897637795
        },
        {
          "duration": 0.06976744186044925,
          "durationTicks": 6,
          "midi": 80,
          "name": "G#5",
          "ticks": 22299,
          "time": 259.2906976744186,
          "velocity": 0.09448818897637795
        },
        {
          "duration": 0.023255813953483084,
          "durationTicks": 2,
          "midi": 38,
          "name": "D2",
          "ticks": 22302,
          "time": 259.3255813953488,
          "velocity": 0.4015748031496063
        },
        {
          "duration": 0.023255813953539928,
          "durationTicks": 2,
          "midi": 38,
          "name": "D2",
          "ticks": 22305,
          "time": 259.36046511627904,
          "velocity": 0.36220472440944884
        },
        {
          "duration": 0.058139534883764554,
          "durationTicks": 5,
          "midi": 71,
          "name": "B4",
          "ticks": 22305,
          "time": 259.36046511627904,
          "velocity": 0.13385826771653545
        },
        {
          "duration": 0.1279069767442138,
          "durationTicks": 11,
          "midi": 88,
          "name": "E6",
          "ticks": 22305,
          "time": 259.36046511627904,
          "velocity": 0.2677165354330709
        },
        {
          "duration": 0.11627906976747227,
          "durationTicks": 10,
          "midi": 100,
          "name": "E7",
          "ticks": 22305,
          "time": 259.36046511627904,
          "velocity": 0.2677165354330709
        },
        {
          "duration": 0.10465116279073072,
          "durationTicks": 9,
          "midi": 76,
          "name": "E5",
          "ticks": 22306,
          "time": 259.3720930232558,
          "velocity": 0.41732283464566927
        },
        {
          "duration": 0.04651162790702301,
          "durationTicks": 4,
          "midi": 80,
          "name": "G#5",
          "ticks": 22306,
          "time": 259.3720930232558,
          "velocity": 0.09448818897637795
        },
        {
          "duration": 0.13953488372095535,
          "durationTicks": 12,
          "midi": 83,
          "name": "B5",
          "ticks": 22306,
          "time": 259.3720930232558,
          "velocity": 0.2440944881889764
        },
        {
          "duration": 0.1511627906976969,
          "durationTicks": 13,
          "midi": 92,
          "name": "G#6",
          "ticks": 22306,
          "time": 259.3720930232558,
          "velocity": 0.15748031496062992
        },
        {
          "duration": 0.12790697674415696,
          "durationTicks": 11,
          "midi": 64,
          "name": "E4",
          "ticks": 22307,
          "time": 259.3837209302326,
          "velocity": 0.5275590551181102
        },
        {
          "duration": 0.04651162790696617,
          "durationTicks": 4,
          "midi": 98,
          "name": "D7",
          "ticks": 22308,
          "time": 259.3953488372093,
          "velocity": 0.07086614173228346
        },
        {
          "duration": 0.05813953488370771,
          "durationTicks": 5,
          "midi": 77,
          "name": "F5",
          "ticks": 22309,
          "time": 259.40697674418607,
          "velocity": 0.1889763779527559
        },
        {
          "duration": 0.023255813953483084,
          "durationTicks": 2,
          "midi": 38,
          "name": "D2",
          "ticks": 22312,
          "time": 259.4418604651163,
          "velocity": 0.2677165354330709
        },
        {
          "duration": 0.023255813953483084,
          "durationTicks": 2,
          "midi": 37,
          "name": "C#2",
          "ticks": 22314,
          "time": 259.4651162790698,
          "velocity": 0.2755905511811024
        },
        {
          "duration": 0.06976744186044925,
          "durationTicks": 6,
          "midi": 74,
          "name": "D5",
          "ticks": 22315,
          "time": 259.4767441860465,
          "velocity": 0.4330708661417323
        },
        {
          "duration": 0.22093023255814614,
          "durationTicks": 19,
          "midi": 81,
          "name": "A5",
          "ticks": 22315,
          "time": 259.4767441860465,
          "velocity": 0.23622047244094488
        },
        {
          "duration": 0.1511627906976969,
          "durationTicks": 13,
          "midi": 102,
          "name": "F#7",
          "ticks": 22315,
          "time": 259.4767441860465,
          "velocity": 0.30708661417322836
        },
        {
          "duration": 0.1511627906976969,
          "durationTicks": 13,
          "midi": 90,
          "name": "F#6",
          "ticks": 22316,
          "time": 259.48837209302326,
          "velocity": 0.11023622047244094
        },
        {
          "duration": 0.09302325581393234,
          "durationTicks": 8,
          "midi": 96,
          "name": "C7",
          "ticks": 22316,
          "time": 259.48837209302326,
          "velocity": 0.13385826771653545
        },
        {
          "duration": 0.2093023255814046,
          "durationTicks": 18,
          "midi": 53,
          "name": "F3",
          "ticks": 22317,
          "time": 259.5,
          "velocity": 0.4409448818897638
        },
        {
          "duration": 0.09302325581393234,
          "durationTicks": 8,
          "midi": 62,
          "name": "D4",
          "ticks": 22317,
          "time": 259.5,
          "velocity": 0.49606299212598426
        },
        {
          "duration": 0.10465116279067388,
          "durationTicks": 9,
          "midi": 69,
          "name": "A4",
          "ticks": 22317,
          "time": 259.5,
          "velocity": 0.2440944881889764
        },
        {
          "duration": 0.034883720930224626,
          "durationTicks": 3,
          "midi": 42,
          "name": "F#2",
          "ticks": 22318,
          "time": 259.51162790697674,
          "velocity": 0.44881889763779526
        },
        {
          "duration": 0.2906976744185954,
          "durationTicks": 25,
          "midi": 72,
          "name": "C5",
          "ticks": 22318,
          "time": 259.51162790697674,
          "velocity": 0.48031496062992124
        },
        {
          "duration": 0.5930232558139323,
          "durationTicks": 51,
          "midi": 79,
          "name": "G5",
          "ticks": 22319,
          "time": 259.5232558139535,
          "velocity": 0.2677165354330709
        },
        {
          "duration": 0.06976744186044925,
          "durationTicks": 6,
          "midi": 41,
          "name": "F2",
          "ticks": 22321,
          "time": 259.54651162790697,
          "velocity": 0.44881889763779526
        },
        {
          "duration": 0.3023255813953938,
          "durationTicks": 26,
          "midi": 100,
          "name": "E7",
          "ticks": 22325,
          "time": 259.59302325581393,
          "velocity": 0.33070866141732286
        },
        {
          "duration": 0.10465116279073072,
          "durationTicks": 9,
          "midi": 60,
          "name": "C4",
          "ticks": 22326,
          "time": 259.6046511627907,
          "velocity": 0.5196850393700787
        },
        {
          "duration": 0.09302325581398918,
          "durationTicks": 8,
          "midi": 94,
          "name": "A#6",
          "ticks": 22326,
          "time": 259.6046511627907,
          "velocity": 0.12598425196850394
        },
        {
          "duration": 0.023255813953539928,
          "durationTicks": 2,
          "midi": 40,
          "name": "E2",
          "ticks": 22327,
          "time": 259.6162790697674,
          "velocity": 0.31496062992125984
        },
        {
          "duration": 0.10465116279073072,
          "durationTicks": 9,
          "midi": 69,
          "name": "A4",
          "ticks": 22327,
          "time": 259.6162790697674,
          "velocity": 0.25984251968503935
        },
        {
          "duration": 0.06976744186044925,
          "durationTicks": 6,
          "midi": 74,
          "name": "D5",
          "ticks": 22328,
          "time": 259.6279069767442,
          "velocity": 0.2204724409448819
        },
        {
          "duration": 0.05813953488370771,
          "durationTicks": 5,
          "midi": 41,
          "name": "F2",
          "ticks": 22331,
          "time": 259.66279069767444,
          "velocity": 0.33858267716535434
        },
        {
          "duration": 0.023255813953483084,
          "durationTicks": 2,
          "midi": 59,
          "name": "B3",
          "ticks": 22335,
          "time": 259.7093023255814,
          "velocity": 0.4645669291338583
        },
        {
          "duration": 0.023255813953483084,
          "durationTicks": 2,
          "midi": 75,
          "name": "D#5",
          "ticks": 22335,
          "time": 259.7093023255814,
          "velocity": 0.2677165354330709
        },
        {
          "duration": 0.034883720930224626,
          "durationTicks": 3,
          "midi": 48,
          "name": "C3",
          "ticks": 22336,
          "time": 259.72093023255815,
          "velocity": 0.4251968503937008
        },
        {
          "duration": 0.3953488372093261,
          "durationTicks": 34,
          "midi": 60,
          "name": "C4",
          "ticks": 22337,
          "time": 259.7325581395349,
          "velocity": 0.48031496062992124
        },
        {
          "duration": 0.034883720930224626,
          "durationTicks": 3,
          "midi": 67,
          "name": "G4",
          "ticks": 22337,
          "time": 259.7325581395349,
          "velocity": 0.2047244094488189
        },
        {
          "duration": 0.32558139534882,
          "durationTicks": 28,
          "midi": 83,
          "name": "B5",
          "ticks": 22337,
          "time": 259.7325581395349,
          "velocity": 0.14960629921259844
        },
        {
          "duration": 0.09302325581393234,
          "durationTicks": 8,
          "midi": 94,
          "name": "A#6",
          "ticks": 22337,
          "time": 259.7325581395349,
          "velocity": 0.1968503937007874
        },
        {
          "duration": 0.023255813953483084,
          "durationTicks": 2,
          "midi": 42,
          "name": "F#2",
          "ticks": 22338,
          "time": 259.74418604651163,
          "velocity": 0.4094488188976378
        },
        {
          "duration": 0.2093023255814046,
          "durationTicks": 18,
          "midi": 75,
          "name": "D#5",
          "ticks": 22338,
          "time": 259.74418604651163,
          "velocity": 0.29133858267716534
        },
        {
          "duration": 0.06976744186044925,
          "durationTicks": 6,
          "midi": 69,
          "name": "A4",
          "ticks": 22339,
          "time": 259.75581395348837,
          "velocity": 0.09448818897637795
        },
        {
          "duration": 0.034883720930224626,
          "durationTicks": 3,
          "midi": 41,
          "name": "F2",
          "ticks": 22340,
          "time": 259.7674418604651,
          "velocity": 0.4094488188976378
        },
        {
          "duration": 0.37209302325584304,
          "durationTicks": 32,
          "midi": 48,
          "name": "C3",
          "ticks": 22342,
          "time": 259.7906976744186,
          "velocity": 0.33070866141732286
        },
        {
          "duration": 0.04651162790702301,
          "durationTicks": 4,
          "midi": 88,
          "name": "E6",
          "ticks": 22346,
          "time": 259.83720930232556,
          "velocity": 0.13385826771653545
        },
        {
          "duration": 0.04651162790702301,
          "durationTicks": 4,
          "midi": 94,
          "name": "A#6",
          "ticks": 22347,
          "time": 259.8488372093023,
          "velocity": 0.08661417322834646
        },
        {
          "duration": 0.10465116279073072,
          "durationTicks": 9,
          "midi": 41,
          "name": "F2",
          "ticks": 22348,
          "time": 259.86046511627904,
          "velocity": 0.28346456692913385
        },
        {
          "duration": 0.034883720930224626,
          "durationTicks": 3,
          "midi": 88,
          "name": "E6",
          "ticks": 22352,
          "time": 259.90697674418607,
          "velocity": 0.11811023622047244
        },
        {
          "duration": 0.19767441860466306,
          "durationTicks": 17,
          "midi": 57,
          "name": "A3",
          "ticks": 22357,
          "time": 259.9651162790698,
          "velocity": 0.2677165354330709
        },
        {
          "duration": 0.19767441860466306,
          "durationTicks": 17,
          "midi": 41,
          "name": "F2",
          "ticks": 22358,
          "time": 259.9767441860465,
          "velocity": 0.23622047244094488
        },
        {
          "duration": 0.034883720930224626,
          "durationTicks": 3,
          "midi": 88,
          "name": "E6",
          "ticks": 22361,
          "time": 260.01162790697674,
          "velocity": 0.11811023622047244
        },
        {
          "duration": 0.5116279069767415,
          "durationTicks": 44,
          "midi": 63,
          "name": "D#4",
          "ticks": 22369,
          "time": 260.1046511627907,
          "velocity": 0.3464566929133858
        },
        {
          "duration": 0.19767441860460622,
          "durationTicks": 17,
          "midi": 88,
          "name": "E6",
          "ticks": 22371,
          "time": 260.1279069767442,
          "velocity": 0.15748031496062992
        },
        {
          "duration": 0.023255813953483084,
          "durationTicks": 2,
          "midi": 49,
          "name": "C#3",
          "ticks": 22374,
          "time": 260.16279069767444,
          "velocity": 0.4330708661417323
        },
        {
          "duration": 0.023255813953483084,
          "durationTicks": 2,
          "midi": 56,
          "name": "G#3",
          "ticks": 22374,
          "time": 260.16279069767444,
          "velocity": 0.3700787401574803
        },
        {
          "duration": 0.33720930232556157,
          "durationTicks": 29,
          "midi": 83,
          "name": "B5",
          "ticks": 22374,
          "time": 260.16279069767444,
          "velocity": 0.18110236220472442
        },
        {
          "duration": 0.09302325581393234,
          "durationTicks": 8,
          "midi": 67,
          "name": "G4",
          "ticks": 22375,
          "time": 260.1744186046512,
          "velocity": 0.08661417322834646
        },
        {
          "duration": 0.09302325581393234,
          "durationTicks": 8,
          "midi": 94,
          "name": "A#6",
          "ticks": 22375,
          "time": 260.1744186046512,
          "velocity": 0.1968503937007874
        },
        {
          "duration": 0.023255813953483084,
          "durationTicks": 2,
          "midi": 48,
          "name": "C3",
          "ticks": 22376,
          "time": 260.1860465116279,
          "velocity": 0.4409448818897638
        },
        {
          "duration": 0.4418604651162923,
          "durationTicks": 38,
          "midi": 57,
          "name": "A3",
          "ticks": 22376,
          "time": 260.1860465116279,
          "velocity": 0.4015748031496063
        },
        {
          "duration": 0.05813953488370771,
          "durationTicks": 5,
          "midi": 41,
          "name": "F2",
          "ticks": 22379,
          "time": 260.22093023255815,
          "velocity": 0.3858267716535433
        },
        {
          "duration": 0.3604651162791015,
          "durationTicks": 31,
          "midi": 48,
          "name": "C3",
          "ticks": 22383,
          "time": 260.2674418604651,
          "velocity": 0.31496062992125984
        },
        {
          "duration": 0.2093023255814046,
          "durationTicks": 18,
          "midi": 41,
          "name": "F2",
          "ticks": 22397,
          "time": 260.43023255813955,
          "velocity": 0.2992125984251969
        },
        {
          "duration": 0.023255813953483084,
          "durationTicks": 2,
          "midi": 62,
          "name": "D4",
          "ticks": 22414,
          "time": 260.6279069767442,
          "velocity": 0.23622047244094488
        },
        {
          "duration": 0.6860465116278647,
          "durationTicks": 59,
          "midi": 69,
          "name": "A4",
          "ticks": 22414,
          "time": 260.6279069767442,
          "velocity": 0.5984251968503937
        },
        {
          "duration": 0.034883720930224626,
          "durationTicks": 3,
          "midi": 76,
          "name": "E5",
          "ticks": 22414,
          "time": 260.6279069767442,
          "velocity": 0.2047244094488189
        },
        {
          "duration": 0.46511627906971853,
          "durationTicks": 40,
          "midi": 83,
          "name": "B5",
          "ticks": 22414,
          "time": 260.6279069767442,
          "velocity": 0.1732283464566929
        },
        {
          "duration": 0.2906976744185954,
          "durationTicks": 25,
          "midi": 87,
          "name": "D#6",
          "ticks": 22414,
          "time": 260.6279069767442,
          "velocity": 0.18110236220472442
        },
        {
          "duration": 0.38372093023252773,
          "durationTicks": 33,
          "midi": 88,
          "name": "E6",
          "ticks": 22414,
          "time": 260.6279069767442,
          "velocity": 0.3228346456692913
        },
        {
          "duration": 0.17441860465112313,
          "durationTicks": 15,
          "midi": 57,
          "name": "A3",
          "ticks": 22415,
          "time": 260.63953488372096,
          "velocity": 0.49606299212598426
        },
        {
          "duration": 0.1627906976743816,
          "durationTicks": 14,
          "midi": 85,
          "name": "C#6",
          "ticks": 22415,
          "time": 260.63953488372096,
          "velocity": 0.2440944881889764
        },
        {
          "duration": 0.09302325581393234,
          "durationTicks": 8,
          "midi": 93,
          "name": "A6",
          "ticks": 22415,
          "time": 260.63953488372096,
          "velocity": 0.1968503937007874
        },
        {
          "duration": 0.09302325581393234,
          "durationTicks": 8,
          "midi": 94,
          "name": "A#6",
          "ticks": 22415,
          "time": 260.63953488372096,
          "velocity": 0.1968503937007874
        },
        {
          "duration": 0.023255813953483084,
          "durationTicks": 2,
          "midi": 48,
          "name": "C3",
          "ticks": 22416,
          "time": 260.6511627906977,
          "velocity": 0.41732283464566927
        },
        {
          "duration": 0.2209302325580893,
          "durationTicks": 19,
          "midi": 63,
          "name": "D#4",
          "ticks": 22416,
          "time": 260.6511627906977,
          "velocity": 0.3228346456692913
        },
        {
          "duration": 0.09302325581393234,
          "durationTicks": 8,
          "midi": 91,
          "name": "G6",
          "ticks": 22416,
          "time": 260.6511627906977,
          "velocity": 0.11023622047244094
        },
        {
          "duration": 0.0813953488371908,
          "durationTicks": 7,
          "midi": 41,
          "name": "F2",
          "ticks": 22417,
          "time": 260.66279069767444,
          "velocity": 0.41732283464566927
        },
        {
          "duration": 0.12790697674415696,
          "durationTicks": 11,
          "midi": 48,
          "name": "C3",
          "ticks": 22423,
          "time": 260.7325581395349,
          "velocity": 0.3228346456692913
        },
        {
          "duration": 0.0813953488371908,
          "durationTicks": 7,
          "midi": 41,
          "name": "F2",
          "ticks": 22427,
          "time": 260.77906976744185,
          "velocity": 0.2755905511811024
        },
        {
          "duration": 0.023255813953539928,
          "durationTicks": 2,
          "midi": 47,
          "name": "B2",
          "ticks": 22434,
          "time": 260.86046511627904,
          "velocity": 0.4409448818897638
        },
        {
          "duration": 0.023255813953539928,
          "durationTicks": 2,
          "midi": 56,
          "name": "G#3",
          "ticks": 22434,
          "time": 260.86046511627904,
          "velocity": 0.36220472440944884
        },
        {
          "duration": 0.058139534883764554,
          "durationTicks": 5,
          "midi": 84,
          "name": "C6",
          "ticks": 22435,
          "time": 260.8720930232558,
          "velocity": 0.12598425196850394
        },
        {
          "duration": 0.09302325581398918,
          "durationTicks": 8,
          "midi": 94,
          "name": "A#6",
          "ticks": 22435,
          "time": 260.8720930232558,
          "velocity": 0.1968503937007874
        },
        {
          "duration": 0.04651162790696617,
          "durationTicks": 4,
          "midi": 48,
          "name": "C3",
          "ticks": 22436,
          "time": 260.8837209302326,
          "velocity": 0.44881889763779526
        },
        {
          "duration": 0.19767441860460622,
          "durationTicks": 17,
          "midi": 57,
          "name": "A3",
          "ticks": 22436,
          "time": 260.8837209302326,
          "velocity": 0.3858267716535433
        },
        {
          "duration": 0.2209302325580893,
          "durationTicks": 19,
          "midi": 63,
          "name": "D#4",
          "ticks": 22436,
          "time": 260.8837209302326,
          "velocity": 0.30708661417322836
        },
        {
          "duration": 0.05813953488370771,
          "durationTicks": 5,
          "midi": 41,
          "name": "F2",
          "ticks": 22439,
          "time": 260.9186046511628,
          "velocity": 0.4015748031496063
        },
        {
          "duration": 0.1627906976743816,
          "durationTicks": 14,
          "midi": 48,
          "name": "C3",
          "ticks": 22441,
          "time": 260.9418604651163,
          "velocity": 0.49606299212598426
        },
        {
          "duration": 0.04651162790696617,
          "durationTicks": 4,
          "midi": 41,
          "name": "F2",
          "ticks": 22451,
          "time": 261.0581395348837,
          "velocity": 0.4645669291338583
        },
        {
          "duration": 0.22093023255814614,
          "durationTicks": 19,
          "midi": 72,
          "name": "C5",
          "ticks": 22453,
          "time": 261.0813953488372,
          "velocity": 0.16535433070866143
        },
        {
          "duration": 0.04651162790702301,
          "durationTicks": 4,
          "midi": 88,
          "name": "E6",
          "ticks": 22453,
          "time": 261.0813953488372,
          "velocity": 0.07874015748031496
        },
        {
          "duration": 0.2093023255814046,
          "durationTicks": 18,
          "midi": 57,
          "name": "A3",
          "ticks": 22454,
          "time": 261.09302325581393,
          "velocity": 0.4094488188976378
        },
        {
          "duration": 0.22093023255814614,
          "durationTicks": 19,
          "midi": 66,
          "name": "F#4",
          "ticks": 22454,
          "time": 261.09302325581393,
          "velocity": 0.2125984251968504
        },
        {
          "duration": 0.11627906976747227,
          "durationTicks": 10,
          "midi": 93,
          "name": "A6",
          "ticks": 22454,
          "time": 261.09302325581393,
          "velocity": 0.10236220472440945
        },
        {
          "duration": 0.19767441860466306,
          "durationTicks": 17,
          "midi": 62,
          "name": "D4",
          "ticks": 22455,
          "time": 261.1046511627907,
          "velocity": 0.30708661417322836
        },
        {
          "duration": 0.03488372093028147,
          "durationTicks": 3,
          "midi": 39,
          "name": "D#2",
          "ticks": 22456,
          "time": 261.1162790697674,
          "velocity": 0.4566929133858268
        },
        {
          "duration": 0.19767441860466306,
          "durationTicks": 17,
          "midi": 50,
          "name": "D3",
          "ticks": 22456,
          "time": 261.1162790697674,
          "velocity": 0.4409448818897638
        },
        {
          "duration": 0.13953488372095535,
          "durationTicks": 12,
          "midi": 80,
          "name": "G#5",
          "ticks": 22456,
          "time": 261.1162790697674,
          "velocity": 0.09448818897637795
        },
        {
          "duration": 0.04651162790696617,
          "durationTicks": 4,
          "midi": 38,
          "name": "D2",
          "ticks": 22459,
          "time": 261.1511627906977,
          "velocity": 0.3937007874015748
        },
        {
          "duration": 0.023255813953483084,
          "durationTicks": 2,
          "midi": 38,
          "name": "D2",
          "ticks": 22464,
          "time": 261.2093023255814,
          "velocity": 0.2992125984251969
        },
        {
          "duration": 0.023255813953483084,
          "durationTicks": 2,
          "midi": 37,
          "name": "C#2",
          "ticks": 22466,
          "time": 261.2325581395349,
          "velocity": 0.2440944881889764
        },
        {
          "duration": 0.034883720930224626,
          "durationTicks": 3,
          "midi": 38,
          "name": "D2",
          "ticks": 22468,
          "time": 261.25581395348837,
          "velocity": 0.2677165354330709
        },
        {
          "duration": 0.023255813953483084,
          "durationTicks": 2,
          "midi": 37,
          "name": "C#2",
          "ticks": 22471,
          "time": 261.2906976744186,
          "velocity": 0.28346456692913385
        },
        {
          "duration": 0.3139534883720785,
          "durationTicks": 27,
          "midi": 79,
          "name": "G5",
          "ticks": 22472,
          "time": 261.30232558139534,
          "velocity": 0.2677165354330709
        },
        {
          "duration": 0.16279069767443843,
          "durationTicks": 14,
          "midi": 83,
          "name": "B5",
          "ticks": 22472,
          "time": 261.30232558139534,
          "velocity": 0.1732283464566929
        },
        {
          "duration": 0.25581395348837077,
          "durationTicks": 22,
          "midi": 84,
          "name": "C6",
          "ticks": 22472,
          "time": 261.30232558139534,
          "velocity": 0.31496062992125984
        },
        {
          "duration": 0.18604651162792152,
          "durationTicks": 16,
          "midi": 100,
          "name": "E7",
          "ticks": 22472,
          "time": 261.30232558139534,
          "velocity": 0.33070866141732286
        },
        {
          "duration": 0.034883720930224626,
          "durationTicks": 3,
          "midi": 41,
          "name": "F2",
          "ticks": 22473,
          "time": 261.3139534883721,
          "velocity": 0.48031496062992124
        },
        {
          "duration": 0.2325581395348877,
          "durationTicks": 20,
          "midi": 60,
          "name": "C4",
          "ticks": 22473,
          "time": 261.3139534883721,
          "velocity": 0.4645669291338583
        },
        {
          "duration": 0.09302325581398918,
          "durationTicks": 8,
          "midi": 72,
          "name": "C5",
          "ticks": 22473,
          "time": 261.3139534883721,
          "velocity": 0.4645669291338583
        },
        {
          "duration": 0.034883720930224626,
          "durationTicks": 3,
          "midi": 85,
          "name": "C#6",
          "ticks": 22473,
          "time": 261.3139534883721,
          "velocity": 0.07086614173228346
        },
        {
          "duration": 0.10465116279073072,
          "durationTicks": 9,
          "midi": 88,
          "name": "E6",
          "ticks": 22473,
          "time": 261.3139534883721,
          "velocity": 0.2204724409448819
        },
        {
          "duration": 0.05813953488370771,
          "durationTicks": 5,
          "midi": 93,
          "name": "A6",
          "ticks": 22473,
          "time": 261.3139534883721,
          "velocity": 0.07086614173228346
        },
        {
          "duration": 0.05813953488370771,
          "durationTicks": 5,
          "midi": 94,
          "name": "A#6",
          "ticks": 22473,
          "time": 261.3139534883721,
          "velocity": 0.16535433070866143
        },
        {
          "duration": 0.22093023255814614,
          "durationTicks": 19,
          "midi": 75,
          "name": "D#5",
          "ticks": 22474,
          "time": 261.3255813953488,
          "velocity": 0.12598425196850394
        },
        {
          "duration": 0.2093023255814046,
          "durationTicks": 18,
          "midi": 69,
          "name": "A4",
          "ticks": 22475,
          "time": 261.33720930232556,
          "velocity": 0.1889763779527559
        },
        {
          "duration": 0.023255813953483084,
          "durationTicks": 2,
          "midi": 42,
          "name": "F#2",
          "ticks": 22476,
          "time": 261.3488372093023,
          "velocity": 0.4094488188976378
        },
        {
          "duration": 0.04651162790702301,
          "durationTicks": 4,
          "midi": 41,
          "name": "F2",
          "ticks": 22478,
          "time": 261.3720930232558,
          "velocity": 0.4330708661417323
        },
        {
          "duration": 0.023255813953483084,
          "durationTicks": 2,
          "midi": 40,
          "name": "E2",
          "ticks": 22484,
          "time": 261.4418604651163,
          "velocity": 0.2992125984251969
        },
        {
          "duration": 0.09302325581393234,
          "durationTicks": 8,
          "midi": 41,
          "name": "F2",
          "ticks": 22486,
          "time": 261.4651162790698,
          "velocity": 0.3464566929133858
        },
        {
          "duration": 0.09302325581393234,
          "durationTicks": 8,
          "midi": 88,
          "name": "E6",
          "ticks": 22486,
          "time": 261.4651162790698,
          "velocity": 0.10236220472440945
        },
        {
          "duration": 0.0813953488371908,
          "durationTicks": 7,
          "midi": 74,
          "name": "D5",
          "ticks": 22492,
          "time": 261.5348837209302,
          "velocity": 0.4409448818897638
        },
        {
          "duration": 0.32558139534882,
          "durationTicks": 28,
          "midi": 81,
          "name": "A5",
          "ticks": 22493,
          "time": 261.54651162790697,
          "velocity": 0.25984251968503935
        },
        {
          "duration": 1.6279069767442138,
          "durationTicks": 140,
          "midi": 83,
          "name": "B5",
          "ticks": 22493,
          "time": 261.54651162790697,
          "velocity": 0.28346456692913385
        },
        {
          "duration": 0.16279069767443843,
          "durationTicks": 14,
          "midi": 102,
          "name": "F#7",
          "ticks": 22493,
          "time": 261.54651162790697,
          "velocity": 0.31496062992125984
        },
        {
          "duration": 0.4651162790697754,
          "durationTicks": 40,
          "midi": 62,
          "name": "D4",
          "ticks": 22494,
          "time": 261.5581395348837,
          "velocity": 0.5118110236220472
        },
        {
          "duration": 0.2906976744185954,
          "durationTicks": 25,
          "midi": 77,
          "name": "F5",
          "ticks": 22494,
          "time": 261.5581395348837,
          "velocity": 0.14173228346456693
        },
        {
          "duration": 0.24418604651162923,
          "durationTicks": 21,
          "midi": 90,
          "name": "F#6",
          "ticks": 22494,
          "time": 261.5581395348837,
          "velocity": 0.14173228346456693
        },
        {
          "duration": 0.08139534883724764,
          "durationTicks": 7,
          "midi": 96,
          "name": "C7",
          "ticks": 22494,
          "time": 261.5581395348837,
          "velocity": 0.09448818897637795
        },
        {
          "duration": 0.011627906976741542,
          "durationTicks": 1,
          "midi": 42,
          "name": "F#2",
          "ticks": 22495,
          "time": 261.56976744186045,
          "velocity": 0.5118110236220472
        },
        {
          "duration": 0.034883720930224626,
          "durationTicks": 3,
          "midi": 69,
          "name": "A4",
          "ticks": 22495,
          "time": 261.56976744186045,
          "velocity": 0.18110236220472442
        },
        {
          "duration": 0.034883720930224626,
          "durationTicks": 3,
          "midi": 43,
          "name": "G2",
          "ticks": 22496,
          "time": 261.5813953488372,
          "velocity": 0.4566929133858268
        },
        {
          "duration": 0.04651162790702301,
          "durationTicks": 4,
          "midi": 72,
          "name": "C5",
          "ticks": 22497,
          "time": 261.59302325581393,
          "velocity": 0.29133858267716534
        },
        {
          "duration": 0.034883720930224626,
          "durationTicks": 3,
          "midi": 43,
          "name": "G2",
          "ticks": 22500,
          "time": 261.6279069767442,
          "velocity": 0.4015748031496063
        },
        {
          "duration": 0.034883720930224626,
          "durationTicks": 3,
          "midi": 73,
          "name": "C#5",
          "ticks": 22501,
          "time": 261.63953488372096,
          "velocity": 0.1889763779527559
        },
        {
          "duration": 0.034883720930224626,
          "durationTicks": 3,
          "midi": 55,
          "name": "G3",
          "ticks": 22503,
          "time": 261.66279069767444,
          "velocity": 0.16535433070866143
        },
        {
          "duration": 0.33720930232556157,
          "durationTicks": 29,
          "midi": 43,
          "name": "G2",
          "ticks": 22504,
          "time": 261.6744186046512,
          "velocity": 0.36220472440944884
        },
        {
          "duration": 0.034883720930224626,
          "durationTicks": 3,
          "midi": 72,
          "name": "C5",
          "ticks": 22504,
          "time": 261.6744186046512,
          "velocity": 0.2204724409448819
        },
        {
          "duration": 0.023255813953483084,
          "durationTicks": 2,
          "midi": 50,
          "name": "D3",
          "ticks": 22506,
          "time": 261.69767441860466,
          "velocity": 0.2440944881889764
        },
        {
          "duration": 0.04651162790696617,
          "durationTicks": 4,
          "midi": 50,
          "name": "D3",
          "ticks": 22513,
          "time": 261.77906976744185,
          "velocity": 0.2047244094488189
        },
        {
          "duration": 0.04651162790696617,
          "durationTicks": 4,
          "midi": 59,
          "name": "B3",
          "ticks": 22515,
          "time": 261.80232558139534,
          "velocity": 0.10236220472440945
        },
        {
          "duration": 0.04651162790702301,
          "durationTicks": 4,
          "midi": 50,
          "name": "D3",
          "ticks": 22520,
          "time": 261.86046511627904,
          "velocity": 0.18110236220472442
        },
        {
          "duration": 0.05813953488370771,
          "durationTicks": 5,
          "midi": 81,
          "name": "A5",
          "ticks": 22525,
          "time": 261.9186046511628,
          "velocity": 0.08661417322834646
        },
        {
          "duration": 0.04651162790696617,
          "durationTicks": 4,
          "midi": 50,
          "name": "D3",
          "ticks": 22527,
          "time": 261.9418604651163,
          "velocity": 0.1732283464566929
        },
        {
          "duration": 0.04651162790696617,
          "durationTicks": 4,
          "midi": 59,
          "name": "B3",
          "ticks": 22529,
          "time": 261.9651162790698,
          "velocity": 0.08661417322834646
        },
        {
          "duration": 0.023255813953483084,
          "durationTicks": 2,
          "midi": 50,
          "name": "D3",
          "ticks": 22532,
          "time": 262,
          "velocity": 0.33070866141732286
        },
        {
          "duration": 0.04651162790696617,
          "durationTicks": 4,
          "midi": 72,
          "name": "C5",
          "ticks": 22532,
          "time": 262,
          "velocity": 0.14173228346456693
        },
        {
          "duration": 0.6627906976744384,
          "durationTicks": 57,
          "midi": 65,
          "name": "F4",
          "ticks": 22533,
          "time": 262.01162790697674,
          "velocity": 0.2283464566929134
        },
        {
          "duration": 0.06976744186044925,
          "durationTicks": 6,
          "midi": 81,
          "name": "A5",
          "ticks": 22534,
          "time": 262.0232558139535,
          "velocity": 0.1889763779527559
        },
        {
          "duration": 0.04651162790696617,
          "durationTicks": 4,
          "midi": 90,
          "name": "F#6",
          "ticks": 22535,
          "time": 262.0348837209302,
          "velocity": 0.09448818897637795
        },
        {
          "duration": 0.034883720930224626,
          "durationTicks": 3,
          "midi": 43,
          "name": "G2",
          "ticks": 22536,
          "time": 262.04651162790697,
          "velocity": 0.4409448818897638
        },
        {
          "duration": 0.40697674418606766,
          "durationTicks": 35,
          "midi": 59,
          "name": "B3",
          "ticks": 22536,
          "time": 262.04651162790697,
          "velocity": 0.1889763779527559
        },
        {
          "duration": 0.0697674418605061,
          "durationTicks": 6,
          "midi": 50,
          "name": "D3",
          "ticks": 22537,
          "time": 262.0581395348837,
          "velocity": 0.3464566929133858
        },
        {
          "duration": 0.3837209302325846,
          "durationTicks": 33,
          "midi": 43,
          "name": "G2",
          "ticks": 22540,
          "time": 262.09302325581393,
          "velocity": 0.49606299212598426
        },
        {
          "duration": 0.05813953488370771,
          "durationTicks": 5,
          "midi": 81,
          "name": "A5",
          "ticks": 22543,
          "time": 262.1279069767442,
          "velocity": 0.09448818897637795
        },
        {
          "duration": 0.04651162790696617,
          "durationTicks": 4,
          "midi": 50,
          "name": "D3",
          "ticks": 22546,
          "time": 262.16279069767444,
          "velocity": 0.25984251968503935
        },
        {
          "duration": 0.4651162790697754,
          "durationTicks": 40,
          "midi": 73,
          "name": "C#5",
          "ticks": 22551,
          "time": 262.22093023255815,
          "velocity": 0.2677165354330709
        },
        {
          "duration": 0.04651162790696617,
          "durationTicks": 4,
          "midi": 50,
          "name": "D3",
          "ticks": 22553,
          "time": 262.24418604651163,
          "velocity": 0.2047244094488189
        },
        {
          "duration": 0.04651162790696617,
          "durationTicks": 4,
          "midi": 50,
          "name": "D3",
          "ticks": 22560,
          "time": 262.3255813953488,
          "velocity": 0.1968503937007874
        },
        {
          "duration": 0.04651162790696617,
          "durationTicks": 4,
          "midi": 50,
          "name": "D3",
          "ticks": 22567,
          "time": 262.40697674418607,
          "velocity": 0.18110236220472442
        },
        {
          "duration": 0.034883720930224626,
          "durationTicks": 3,
          "midi": 82,
          "name": "A#5",
          "ticks": 22571,
          "time": 262.45348837209303,
          "velocity": 0.10236220472440945
        },
        {
          "duration": 0.3953488372092693,
          "durationTicks": 34,
          "midi": 77,
          "name": "F5",
          "ticks": 22572,
          "time": 262.4651162790698,
          "velocity": 0.2440944881889764
        },
        {
          "duration": 0.011627906976741542,
          "durationTicks": 1,
          "midi": 44,
          "name": "G#2",
          "ticks": 22573,
          "time": 262.4767441860465,
          "velocity": 0.5196850393700787
        },
        {
          "duration": 0.05813953488370771,
          "durationTicks": 5,
          "midi": 81,
          "name": "A5",
          "ticks": 22573,
          "time": 262.4767441860465,
          "velocity": 0.10236220472440945
        },
        {
          "duration": 0.034883720930224626,
          "durationTicks": 3,
          "midi": 43,
          "name": "G2",
          "ticks": 22574,
          "time": 262.48837209302326,
          "velocity": 0.49606299212598426
        },
        {
          "duration": 0.19767441860466306,
          "durationTicks": 17,
          "midi": 59,
          "name": "B3",
          "ticks": 22574,
          "time": 262.48837209302326,
          "velocity": 0.25984251968503935
        },
        {
          "duration": 0.023255813953483084,
          "durationTicks": 2,
          "midi": 50,
          "name": "D3",
          "ticks": 22577,
          "time": 262.5232558139535,
          "velocity": 0.2440944881889764
        },
        {
          "duration": 0.16279069767443843,
          "durationTicks": 14,
          "midi": 43,
          "name": "G2",
          "ticks": 22578,
          "time": 262.5348837209302,
          "velocity": 0.4094488188976378
        },
        {
          "duration": 0.023255813953539928,
          "durationTicks": 2,
          "midi": 50,
          "name": "D3",
          "ticks": 22584,
          "time": 262.6046511627907,
          "velocity": 0.23622047244094488
        },
        {
          "duration": 0.034883720930224626,
          "durationTicks": 3,
          "midi": 50,
          "name": "D3",
          "ticks": 22589,
          "time": 262.66279069767444,
          "velocity": 0.3464566929133858
        },
        {
          "duration": 0.15116279069764005,
          "durationTicks": 13,
          "midi": 81,
          "name": "A5",
          "ticks": 22591,
          "time": 262.6860465116279,
          "velocity": 0.2677165354330709
        },
        {
          "duration": 0.5,
          "durationTicks": 43,
          "midi": 88,
          "name": "E6",
          "ticks": 22591,
          "time": 262.6860465116279,
          "velocity": 0.2440944881889764
        },
        {
          "duration": 0.023255813953483084,
          "durationTicks": 2,
          "midi": 57,
          "name": "A3",
          "ticks": 22592,
          "time": 262.69767441860466,
          "velocity": 0.41732283464566927
        },
        {
          "duration": 0.2325581395348877,
          "durationTicks": 20,
          "midi": 69,
          "name": "A4",
          "ticks": 22592,
          "time": 262.69767441860466,
          "velocity": 0.5984251968503937
        },
        {
          "duration": 0.04651162790696617,
          "durationTicks": 4,
          "midi": 74,
          "name": "D5",
          "ticks": 22592,
          "time": 262.69767441860466,
          "velocity": 0.16535433070866143
        },
        {
          "duration": 0.15116279069764005,
          "durationTicks": 13,
          "midi": 85,
          "name": "C#6",
          "ticks": 22592,
          "time": 262.69767441860466,
          "velocity": 0.2125984251968504
        },
        {
          "duration": 0.023255813953483084,
          "durationTicks": 2,
          "midi": 73,
          "name": "C#5",
          "ticks": 22594,
          "time": 262.72093023255815,
          "velocity": 0.2440944881889764
        },
        {
          "duration": 0.0813953488371908,
          "durationTicks": 7,
          "midi": 91,
          "name": "G6",
          "ticks": 22594,
          "time": 262.72093023255815,
          "velocity": 0.11811023622047244
        },
        {
          "duration": 0.04651162790696617,
          "durationTicks": 4,
          "midi": 50,
          "name": "D3",
          "ticks": 22595,
          "time": 262.7325581395349,
          "velocity": 0.3858267716535433
        },
        {
          "duration": 0.18604651162792152,
          "durationTicks": 16,
          "midi": 65,
          "name": "F4",
          "ticks": 22595,
          "time": 262.7325581395349,
          "velocity": 0.1732283464566929
        },
        {
          "duration": 0.023255813953483084,
          "durationTicks": 2,
          "midi": 42,
          "name": "F#2",
          "ticks": 22596,
          "time": 262.74418604651163,
          "velocity": 0.3779527559055118
        },
        {
          "duration": 0.034883720930224626,
          "durationTicks": 3,
          "midi": 73,
          "name": "C#5",
          "ticks": 22597,
          "time": 262.75581395348837,
          "velocity": 0.2047244094488189
        },
        {
          "duration": 0.1511627906976969,
          "durationTicks": 13,
          "midi": 43,
          "name": "G2",
          "ticks": 22598,
          "time": 262.7674418604651,
          "velocity": 0.36220472440944884
        },
        {
          "duration": 0.023255813953483084,
          "durationTicks": 2,
          "midi": 57,
          "name": "A3",
          "ticks": 22598,
          "time": 262.7674418604651,
          "velocity": 0.28346456692913385
        },
        {
          "duration": 0.023255813953483084,
          "durationTicks": 2,
          "midi": 58,
          "name": "A#3",
          "ticks": 22600,
          "time": 262.7906976744186,
          "velocity": 0.29133858267716534
        },
        {
          "duration": 0.1279069767442138,
          "durationTicks": 11,
          "midi": 73,
          "name": "C#5",
          "ticks": 22601,
          "time": 262.80232558139534,
          "velocity": 0.33070866141732286
        },
        {
          "duration": 0.023255813953483084,
          "durationTicks": 2,
          "midi": 57,
          "name": "A3",
          "ticks": 22602,
          "time": 262.8139534883721,
          "velocity": 0.2440944881889764
        },
        {
          "duration": 0.023255813953483084,
          "durationTicks": 2,
          "midi": 50,
          "name": "D3",
          "ticks": 22604,
          "time": 262.83720930232556,
          "velocity": 0.25196850393700787
        },
        {
          "duration": 0.023255813953483084,
          "durationTicks": 2,
          "midi": 57,
          "name": "A3",
          "ticks": 22608,
          "time": 262.8837209302326,
          "velocity": 0.25196850393700787
        },
        {
          "duration": 0.2325581395348877,
          "durationTicks": 20,
          "midi": 60,
          "name": "C4",
          "ticks": 22611,
          "time": 262.9186046511628,
          "velocity": 0.5118110236220472
        },
        {
          "duration": 0.15116279069764005,
          "durationTicks": 13,
          "midi": 96,
          "name": "C7",
          "ticks": 22611,
          "time": 262.9186046511628,
          "velocity": 0.2992125984251969
        },
        {
          "duration": 0.18604651162786467,
          "durationTicks": 16,
          "midi": 100,
          "name": "E7",
          "ticks": 22611,
          "time": 262.9186046511628,
          "velocity": 0.33070866141732286
        },
        {
          "duration": 0.011627906976741542,
          "durationTicks": 1,
          "midi": 68,
          "name": "G#4",
          "ticks": 22612,
          "time": 262.93023255813955,
          "velocity": 0.5354330708661418
        },
        {
          "duration": 0.30232558139533694,
          "durationTicks": 26,
          "midi": 74,
          "name": "D5",
          "ticks": 22612,
          "time": 262.93023255813955,
          "velocity": 0.44881889763779526
        },
        {
          "duration": 0.25581395348837077,
          "durationTicks": 22,
          "midi": 89,
          "name": "F6",
          "ticks": 22612,
          "time": 262.93023255813955,
          "velocity": 0.1732283464566929
        },
        {
          "duration": 0.1395348837208985,
          "durationTicks": 12,
          "midi": 90,
          "name": "F#6",
          "ticks": 22612,
          "time": 262.93023255813955,
          "velocity": 0.10236220472440945
        },
        {
          "duration": 0.09302325581393234,
          "durationTicks": 8,
          "midi": 94,
          "name": "A#6",
          "ticks": 22612,
          "time": 262.93023255813955,
          "velocity": 0.07874015748031496
        },
        {
          "duration": 0.30232558139533694,
          "durationTicks": 26,
          "midi": 67,
          "name": "G4",
          "ticks": 22613,
          "time": 262.9418604651163,
          "velocity": 0.5511811023622047
        },
        {
          "duration": 0.2093023255814046,
          "durationTicks": 18,
          "midi": 77,
          "name": "F5",
          "ticks": 22613,
          "time": 262.9418604651163,
          "velocity": 0.23622047244094488
        },
        {
          "duration": 0.1627906976743816,
          "durationTicks": 14,
          "midi": 93,
          "name": "A6",
          "ticks": 22613,
          "time": 262.9418604651163,
          "velocity": 0.15748031496062992
        },
        {
          "duration": 0.2093023255814046,
          "durationTicks": 18,
          "midi": 55,
          "name": "G3",
          "ticks": 22614,
          "time": 262.95348837209303,
          "velocity": 0.44881889763779526
        },
        {
          "duration": 0.17441860465117998,
          "durationTicks": 15,
          "midi": 91,
          "name": "G6",
          "ticks": 22615,
          "time": 262.9651162790698,
          "velocity": 0.2283464566929134
        },
        {
          "duration": 0.1511627906976969,
          "durationTicks": 13,
          "midi": 43,
          "name": "G2",
          "ticks": 22618,
          "time": 263,
          "velocity": 0.3464566929133858
        },
        {
          "duration": 0.6860465116278647,
          "durationTicks": 59,
          "midi": 62,
          "name": "D4",
          "ticks": 22631,
          "time": 263.1511627906977,
          "velocity": 0.5511811023622047
        },
        {
          "duration": 0.2325581395348877,
          "durationTicks": 20,
          "midi": 81,
          "name": "A5",
          "ticks": 22631,
          "time": 263.1511627906977,
          "velocity": 0.25984251968503935
        },
        {
          "duration": 0.1627906976743816,
          "durationTicks": 14,
          "midi": 102,
          "name": "F#7",
          "ticks": 22631,
          "time": 263.1511627906977,
          "velocity": 0.31496062992125984
        },
        {
          "duration": 0.023255813953483084,
          "durationTicks": 2,
          "midi": 56,
          "name": "G#3",
          "ticks": 22632,
          "time": 263.16279069767444,
          "velocity": 0.3543307086614173
        },
        {
          "duration": 0.1627906976743816,
          "durationTicks": 14,
          "midi": 93,
          "name": "A6",
          "ticks": 22632,
          "time": 263.16279069767444,
          "velocity": 0.25984251968503935
        },
        {
          "duration": 0.023255813953483084,
          "durationTicks": 2,
          "midi": 39,
          "name": "D#2",
          "ticks": 22633,
          "time": 263.1744186046512,
          "velocity": 0.4566929133858268
        },
        {
          "duration": 0.2093023255814046,
          "durationTicks": 18,
          "midi": 50,
          "name": "D3",
          "ticks": 22633,
          "time": 263.1744186046512,
          "velocity": 0.4409448818897638
        },
        {
          "duration": 0.4651162790697754,
          "durationTicks": 40,
          "midi": 90,
          "name": "F#6",
          "ticks": 22633,
          "time": 263.1744186046512,
          "velocity": 0.18110236220472442
        },
        {
          "duration": 0.09302325581393234,
          "durationTicks": 8,
          "midi": 72,
          "name": "C5",
          "ticks": 22634,
          "time": 263.1860465116279,
          "velocity": 0.23622047244094488
        },
        {
          "duration": 0.17441860465112313,
          "durationTicks": 15,
          "midi": 57,
          "name": "A3",
          "ticks": 22635,
          "time": 263.19767441860466,
          "velocity": 0.3228346456692913
        },
        {
          "duration": 0.1395348837208985,
          "durationTicks": 12,
          "midi": 76,
          "name": "E5",
          "ticks": 22635,
          "time": 263.19767441860466,
          "velocity": 0.11811023622047244
        },
        {
          "duration": 0.023255813953483084,
          "durationTicks": 2,
          "midi": 39,
          "name": "D#2",
          "ticks": 22638,
          "time": 263.2325581395349,
          "velocity": 0.41732283464566927
        },
        {
          "duration": 0.12790697674415696,
          "durationTicks": 11,
          "midi": 66,
          "name": "F#4",
          "ticks": 22639,
          "time": 263.24418604651163,
          "velocity": 0.2283464566929134
        },
        {
          "duration": 0.05813953488370771,
          "durationTicks": 5,
          "midi": 38,
          "name": "D2",
          "ticks": 22640,
          "time": 263.25581395348837,
          "velocity": 0.3464566929133858
        },
        {
          "duration": 0.05813953488370771,
          "durationTicks": 5,
          "midi": 72,
          "name": "C5",
          "ticks": 22645,
          "time": 263.3139534883721,
          "velocity": 0.1732283464566929
        },
        {
          "duration": 0.034883720930224626,
          "durationTicks": 3,
          "midi": 38,
          "name": "D2",
          "ticks": 22646,
          "time": 263.3255813953488,
          "velocity": 0.2755905511811024
        },
        {
          "duration": 0.03488372093028147,
          "durationTicks": 3,
          "midi": 78,
          "name": "F#5",
          "ticks": 22650,
          "time": 263.3720930232558,
          "velocity": 0.14960629921259844
        },
        {
          "duration": 0.18604651162792152,
          "durationTicks": 16,
          "midi": 88,
          "name": "E6",
          "ticks": 22650,
          "time": 263.3720930232558,
          "velocity": 0.2204724409448819
        },
        {
          "duration": 0.2325581395348877,
          "durationTicks": 20,
          "midi": 93,
          "name": "A6",
          "ticks": 22650,
          "time": 263.3720930232558,
          "velocity": 0.25984251968503935
        },
        {
          "duration": 0.16279069767443843,
          "durationTicks": 14,
          "midi": 102,
          "name": "F#7",
          "ticks": 22650,
          "time": 263.3720930232558,
          "velocity": 0.31496062992125984
        },
        {
          "duration": 1.3720930232557862,
          "durationTicks": 118,
          "midi": 66,
          "name": "F#4",
          "ticks": 22651,
          "time": 263.3837209302326,
          "velocity": 0.2755905511811024
        },
        {
          "duration": 0.8720930232557862,
          "durationTicks": 75,
          "midi": 69,
          "name": "A4",
          "ticks": 22651,
          "time": 263.3837209302326,
          "velocity": 0.5196850393700787
        },
        {
          "duration": 0.0813953488371908,
          "durationTicks": 7,
          "midi": 72,
          "name": "C5",
          "ticks": 22651,
          "time": 263.3837209302326,
          "velocity": 0.33070866141732286
        },
        {
          "duration": 0.453488372092977,
          "durationTicks": 39,
          "midi": 50,
          "name": "D3",
          "ticks": 22652,
          "time": 263.3953488372093,
          "velocity": 0.4566929133858268
        },
        {
          "duration": 0.11627906976741542,
          "durationTicks": 10,
          "midi": 76,
          "name": "E5",
          "ticks": 22652,
          "time": 263.3953488372093,
          "velocity": 0.11811023622047244
        },
        {
          "duration": 1.1162790697674154,
          "durationTicks": 96,
          "midi": 57,
          "name": "A3",
          "ticks": 22653,
          "time": 263.40697674418607,
          "velocity": 0.36220472440944884
        },
        {
          "duration": 0.034883720930224626,
          "durationTicks": 3,
          "midi": 38,
          "name": "D2",
          "ticks": 22654,
          "time": 263.4186046511628,
          "velocity": 0.4409448818897638
        },
        {
          "duration": 0.06976744186044925,
          "durationTicks": 6,
          "midi": 38,
          "name": "D2",
          "ticks": 22658,
          "time": 263.4651162790698,
          "velocity": 0.4015748031496063
        },
        {
          "duration": 0.3139534883720785,
          "durationTicks": 27,
          "midi": 72,
          "name": "C5",
          "ticks": 22659,
          "time": 263.4767441860465,
          "velocity": 0.10236220472440945
        },
        {
          "duration": 0.27906976744185386,
          "durationTicks": 24,
          "midi": 38,
          "name": "D2",
          "ticks": 22665,
          "time": 263.54651162790697,
          "velocity": 0.29133858267716534
        },
        {
          "duration": 0.023255813953483084,
          "durationTicks": 2,
          "midi": 40,
          "name": "E2",
          "ticks": 22691,
          "time": 263.8488372093023,
          "velocity": 0.4409448818897638
        },
        {
          "duration": 0.9069767441860677,
          "durationTicks": 78,
          "midi": 62,
          "name": "D4",
          "ticks": 22691,
          "time": 263.8488372093023,
          "velocity": 0.2992125984251969
        },
        {
          "duration": 0.43023255813955075,
          "durationTicks": 37,
          "midi": 72,
          "name": "C5",
          "ticks": 22691,
          "time": 263.8488372093023,
          "velocity": 0.08661417322834646
        },
        {
          "duration": 0.18604651162792152,
          "durationTicks": 16,
          "midi": 76,
          "name": "E5",
          "ticks": 22691,
          "time": 263.8488372093023,
          "velocity": 0.10236220472440945
        },
        {
          "duration": 0.03488372093028147,
          "durationTicks": 3,
          "midi": 90,
          "name": "F#6",
          "ticks": 22691,
          "time": 263.8488372093023,
          "velocity": 0.13385826771653545
        },
        {
          "duration": 0.45348837209303383,
          "durationTicks": 39,
          "midi": 50,
          "name": "D3",
          "ticks": 22692,
          "time": 263.86046511627904,
          "velocity": 0.47244094488188976
        },
        {
          "duration": 0.023255813953539928,
          "durationTicks": 2,
          "midi": 39,
          "name": "D#2",
          "ticks": 22693,
          "time": 263.8720930232558,
          "velocity": 0.4566929133858268
        },
        {
          "duration": 0.1511627906976969,
          "durationTicks": 13,
          "midi": 80,
          "name": "G#5",
          "ticks": 22693,
          "time": 263.8720930232558,
          "velocity": 0.12598425196850394
        },
        {
          "duration": 0.03488372093028147,
          "durationTicks": 3,
          "midi": 93,
          "name": "A6",
          "ticks": 22693,
          "time": 263.8720930232558,
          "velocity": 0.11023622047244094
        },
        {
          "duration": 0.10465116279067388,
          "durationTicks": 9,
          "midi": 38,
          "name": "D2",
          "ticks": 22695,
          "time": 263.8953488372093,
          "velocity": 0.4330708661417323
        },
        {
          "duration": 0.27906976744185386,
          "durationTicks": 24,
          "midi": 38,
          "name": "D2",
          "ticks": 22705,
          "time": 264.01162790697674,
          "velocity": 0.28346456692913385
        },
        {
          "duration": 0.18604651162792152,
          "durationTicks": 16,
          "midi": 80,
          "name": "G#5",
          "ticks": 22730,
          "time": 264.30232558139534,
          "velocity": 0.14173228346456693
        },
        {
          "duration": 0.023255813953483084,
          "durationTicks": 2,
          "midi": 40,
          "name": "E2",
          "ticks": 22731,
          "time": 264.3139534883721,
          "velocity": 0.4409448818897638
        },
        {
          "duration": 0.2093023255814046,
          "durationTicks": 18,
          "midi": 72,
          "name": "C5",
          "ticks": 22731,
          "time": 264.3139534883721,
          "velocity": 0.07874015748031496
        },
        {
          "duration": 0.4186046511628092,
          "durationTicks": 36,
          "midi": 76,
          "name": "E5",
          "ticks": 22731,
          "time": 264.3139534883721,
          "velocity": 0.12598425196850394
        },
        {
          "duration": 0.2093023255814046,
          "durationTicks": 18,
          "midi": 50,
          "name": "D3",
          "ticks": 22732,
          "time": 264.3255813953488,
          "velocity": 0.47244094488188976
        },
        {
          "duration": 0.034883720930224626,
          "durationTicks": 3,
          "midi": 39,
          "name": "D#2",
          "ticks": 22733,
          "time": 264.33720930232556,
          "velocity": 0.4566929133858268
        },
        {
          "duration": 0.058139534883764554,
          "durationTicks": 5,
          "midi": 93,
          "name": "A6",
          "ticks": 22733,
          "time": 264.33720930232556,
          "velocity": 0.11023622047244094
        },
        {
          "duration": 0.09302325581398918,
          "durationTicks": 8,
          "midi": 38,
          "name": "D2",
          "ticks": 22736,
          "time": 264.3720930232558,
          "velocity": 0.4251968503937008
        },
        {
          "duration": 0.04651162790696617,
          "durationTicks": 4,
          "midi": 38,
          "name": "D2",
          "ticks": 22745,
          "time": 264.4767441860465,
          "velocity": 0.2755905511811024
        },
        {
          "duration": 0.023255813953483084,
          "durationTicks": 2,
          "midi": 56,
          "name": "G#3",
          "ticks": 22749,
          "time": 264.5232558139535,
          "velocity": 0.2440944881889764
        },
        {
          "duration": 0.0813953488371908,
          "durationTicks": 7,
          "midi": 93,
          "name": "A6",
          "ticks": 22750,
          "time": 264.5348837209302,
          "velocity": 0.13385826771653545
        },
        {
          "duration": 0.2093023255814046,
          "durationTicks": 18,
          "midi": 50,
          "name": "D3",
          "ticks": 22751,
          "time": 264.54651162790697,
          "velocity": 0.4566929133858268
        },
        {
          "duration": 0.2093023255814046,
          "durationTicks": 18,
          "midi": 57,
          "name": "A3",
          "ticks": 22751,
          "time": 264.54651162790697,
          "velocity": 0.2440944881889764
        },
        {
          "duration": 0.3139534883720785,
          "durationTicks": 27,
          "midi": 72,
          "name": "C5",
          "ticks": 22751,
          "time": 264.54651162790697,
          "velocity": 0.1968503937007874
        },
        {
          "duration": 0.034883720930224626,
          "durationTicks": 3,
          "midi": 39,
          "name": "D#2",
          "ticks": 22752,
          "time": 264.5581395348837,
          "velocity": 0.4409448818897638
        },
        {
          "duration": 0.09302325581398918,
          "durationTicks": 8,
          "midi": 38,
          "name": "D2",
          "ticks": 22755,
          "time": 264.59302325581393,
          "velocity": 0.4330708661417323
        },
        {
          "duration": 0.05813953488370771,
          "durationTicks": 5,
          "midi": 38,
          "name": "D2",
          "ticks": 22764,
          "time": 264.69767441860466,
          "velocity": 0.2992125984251969
        },
        {
          "duration": 0.2093023255814046,
          "durationTicks": 18,
          "midi": 60,
          "name": "C4",
          "ticks": 22769,
          "time": 264.75581395348837,
          "velocity": 0.30708661417322836
        },
        {
          "duration": 0.13953488372095535,
          "durationTicks": 12,
          "midi": 65,
          "name": "F4",
          "ticks": 22769,
          "time": 264.75581395348837,
          "velocity": 0.5511811023622047
        },
        {
          "duration": 0.2906976744185954,
          "durationTicks": 25,
          "midi": 83,
          "name": "B5",
          "ticks": 22769,
          "time": 264.75581395348837,
          "velocity": 0.25196850393700787
        },
        {
          "duration": 0.2093023255814046,
          "durationTicks": 18,
          "midi": 84,
          "name": "C6",
          "ticks": 22769,
          "time": 264.75581395348837,
          "velocity": 0.25984251968503935
        },
        {
          "duration": 0.13953488372095535,
          "durationTicks": 12,
          "midi": 96,
          "name": "C7",
          "ticks": 22769,
          "time": 264.75581395348837,
          "velocity": 0.2677165354330709
        },
        {
          "duration": 0.10465116279067388,
          "durationTicks": 9,
          "midi": 101,
          "name": "F7",
          "ticks": 22769,
          "time": 264.75581395348837,
          "velocity": 0.28346456692913385
        },
        {
          "duration": 0.2093023255814046,
          "durationTicks": 18,
          "midi": 53,
          "name": "F3",
          "ticks": 22770,
          "time": 264.7674418604651,
          "velocity": 0.44881889763779526
        },
        {
          "duration": 0.1511627906976969,
          "durationTicks": 13,
          "midi": 93,
          "name": "A6",
          "ticks": 22770,
          "time": 264.7674418604651,
          "velocity": 0.1732283464566929
        },
        {
          "duration": 0.023255813953483084,
          "durationTicks": 2,
          "midi": 42,
          "name": "F#2",
          "ticks": 22771,
          "time": 264.77906976744185,
          "velocity": 0.4409448818897638
        },
        {
          "duration": 0.05813953488370771,
          "durationTicks": 5,
          "midi": 87,
          "name": "D#6",
          "ticks": 22771,
          "time": 264.77906976744185,
          "velocity": 0.07086614173228346
        },
        {
          "duration": 0.06976744186044925,
          "durationTicks": 6,
          "midi": 69,
          "name": "A4",
          "ticks": 22772,
          "time": 264.7906976744186,
          "velocity": 0.2204724409448819
        },
        {
          "duration": 0.05813953488370771,
          "durationTicks": 5,
          "midi": 79,
          "name": "G5",
          "ticks": 22772,
          "time": 264.7906976744186,
          "velocity": 0.08661417322834646
        },
        {
          "duration": 0.04651162790696617,
          "durationTicks": 4,
          "midi": 75,
          "name": "D#5",
          "ticks": 22774,
          "time": 264.8139534883721,
          "velocity": 0.14960629921259844
        },
        {
          "duration": 0.034883720930224626,
          "durationTicks": 3,
          "midi": 41,
          "name": "F2",
          "ticks": 22775,
          "time": 264.8255813953488,
          "velocity": 0.44881889763779526
        },
        {
          "duration": 0.17441860465117998,
          "durationTicks": 15,
          "midi": 92,
          "name": "G#6",
          "ticks": 22778,
          "time": 264.86046511627904,
          "velocity": 0.16535433070866143
        },
        {
          "duration": 0.2325581395348877,
          "durationTicks": 20,
          "midi": 69,
          "name": "A4",
          "ticks": 22779,
          "time": 264.8720930232558,
          "velocity": 0.29133858267716534
        },
        {
          "duration": 0.2558139534884276,
          "durationTicks": 22,
          "midi": 76,
          "name": "E5",
          "ticks": 22779,
          "time": 264.8720930232558,
          "velocity": 0.5590551181102362
        },
        {
          "duration": 0.0697674418605061,
          "durationTicks": 6,
          "midi": 98,
          "name": "D7",
          "ticks": 22779,
          "time": 264.8720930232558,
          "velocity": 0.08661417322834646
        },
        {
          "duration": 0.023255813953483084,
          "durationTicks": 2,
          "midi": 40,
          "name": "E2",
          "ticks": 22780,
          "time": 264.8837209302326,
          "velocity": 0.2992125984251969
        },
        {
          "duration": 0.10465116279067388,
          "durationTicks": 9,
          "midi": 64,
          "name": "E4",
          "ticks": 22781,
          "time": 264.8953488372093,
          "velocity": 0.5433070866141733
        },
        {
          "duration": 0.06976744186044925,
          "durationTicks": 6,
          "midi": 41,
          "name": "F2",
          "ticks": 22782,
          "time": 264.90697674418607,
          "velocity": 0.30708661417322836
        },
        {
          "duration": 0.023255813953483084,
          "durationTicks": 2,
          "midi": 43,
          "name": "G2",
          "ticks": 22788,
          "time": 264.9767441860465,
          "velocity": 0.3937007874015748
        },
        {
          "duration": 0.18604651162792152,
          "durationTicks": 16,
          "midi": 89,
          "name": "F6",
          "ticks": 22788,
          "time": 264.9767441860465,
          "velocity": 0.25196850393700787
        },
        {
          "duration": 0.1511627906976969,
          "durationTicks": 13,
          "midi": 93,
          "name": "A6",
          "ticks": 22788,
          "time": 264.9767441860465,
          "velocity": 0.23622047244094488
        },
        {
          "duration": 0.11627906976741542,
          "durationTicks": 10,
          "midi": 101,
          "name": "F7",
          "ticks": 22788,
          "time": 264.9767441860465,
          "velocity": 0.2755905511811024
        },
        {
          "duration": 0.18604651162792152,
          "durationTicks": 16,
          "midi": 84,
          "name": "C6",
          "ticks": 22789,
          "time": 264.98837209302326,
          "velocity": 0.23622047244094488
        },
        {
          "duration": 0.04651162790696617,
          "durationTicks": 4,
          "midi": 85,
          "name": "C#6",
          "ticks": 22789,
          "time": 264.98837209302326,
          "velocity": 0.07086614173228346
        },
        {
          "duration": 0.05813953488370771,
          "durationTicks": 5,
          "midi": 99,
          "name": "D#7",
          "ticks": 22789,
          "time": 264.98837209302326,
          "velocity": 0.07086614173228346
        },
        {
          "duration": 0.2093023255814046,
          "durationTicks": 18,
          "midi": 50,
          "name": "D3",
          "ticks": 22790,
          "time": 265,
          "velocity": 0.4645669291338583
        },
        {
          "duration": 0.2325581395348877,
          "durationTicks": 20,
          "midi": 57,
          "name": "A3",
          "ticks": 22790,
          "time": 265,
          "velocity": 0.33858267716535434
        },
        {
          "duration": 0.023255813953483084,
          "durationTicks": 2,
          "midi": 65,
          "name": "F4",
          "ticks": 22790,
          "time": 265,
          "velocity": 0.5590551181102362
        },
        {
          "duration": 0.05813953488370771,
          "durationTicks": 5,
          "midi": 39,
          "name": "D#2",
          "ticks": 22791,
          "time": 265.01162790697674,
          "velocity": 0.44881889763779526
        },
        {
          "duration": 0.0813953488371908,
          "durationTicks": 7,
          "midi": 65,
          "name": "F4",
          "ticks": 22793,
          "time": 265.0348837209302,
          "velocity": 0.4881889763779528
        },
        {
          "duration": 0.034883720930224626,
          "durationTicks": 3,
          "midi": 38,
          "name": "D2",
          "ticks": 22796,
          "time": 265.06976744186045,
          "velocity": 0.36220472440944884
        },
        {
          "duration": 0.7209302325581461,
          "durationTicks": 62,
          "midi": 79,
          "name": "G5",
          "ticks": 22798,
          "time": 265.09302325581393,
          "velocity": 0.4881889763779528
        },
        {
          "duration": 0.2325581395348877,
          "durationTicks": 20,
          "midi": 98,
          "name": "D7",
          "ticks": 22799,
          "time": 265.1046511627907,
          "velocity": 0.2992125984251969
        },
        {
          "duration": 0.023255813953539928,
          "durationTicks": 2,
          "midi": 38,
          "name": "D2",
          "ticks": 22800,
          "time": 265.1162790697674,
          "velocity": 0.33858267716535434
        },
        {
          "duration": 0.67441860465118,
          "durationTicks": 58,
          "midi": 67,
          "name": "G4",
          "ticks": 22800,
          "time": 265.1162790697674,
          "velocity": 0.5905511811023622
        },
        {
          "duration": 0.023255813953539928,
          "durationTicks": 2,
          "midi": 74,
          "name": "D5",
          "ticks": 22800,
          "time": 265.1162790697674,
          "velocity": 0.25196850393700787
        },
        {
          "duration": 0.06976744186044925,
          "durationTicks": 6,
          "midi": 72,
          "name": "C5",
          "ticks": 22801,
          "time": 265.1279069767442,
          "velocity": 0.13385826771653545
        },
        {
          "duration": 0.20930232558134776,
          "durationTicks": 18,
          "midi": 77,
          "name": "F5",
          "ticks": 22801,
          "time": 265.1279069767442,
          "velocity": 0.2755905511811024
        },
        {
          "duration": 0.023255813953483084,
          "durationTicks": 2,
          "midi": 37,
          "name": "C#2",
          "ticks": 22802,
          "time": 265.13953488372096,
          "velocity": 0.2755905511811024
        },
        {
          "duration": 0.023255813953483084,
          "durationTicks": 2,
          "midi": 38,
          "name": "D2",
          "ticks": 22806,
          "time": 265.1860465116279,
          "velocity": 0.28346456692913385
        },
        {
          "duration": 0.034883720930224626,
          "durationTicks": 3,
          "midi": 74,
          "name": "D5",
          "ticks": 22808,
          "time": 265.2093023255814,
          "velocity": 0.2677165354330709
        },
        {
          "duration": 0.023255813953483084,
          "durationTicks": 2,
          "midi": 44,
          "name": "G#2",
          "ticks": 22809,
          "time": 265.22093023255815,
          "velocity": 0.48031496062992124
        },
        {
          "duration": 0.023255813953483084,
          "durationTicks": 2,
          "midi": 71,
          "name": "B4",
          "ticks": 22809,
          "time": 265.22093023255815,
          "velocity": 0.23622047244094488
        },
        {
          "duration": 1.4302325581395507,
          "durationTicks": 123,
          "midi": 83,
          "name": "B5",
          "ticks": 22809,
          "time": 265.22093023255815,
          "velocity": 0.29133858267716534
        },
        {
          "duration": 0.034883720930224626,
          "durationTicks": 3,
          "midi": 72,
          "name": "C5",
          "ticks": 22810,
          "time": 265.2325581395349,
          "velocity": 0.23622047244094488
        },
        {
          "duration": 0.023255813953483084,
          "durationTicks": 2,
          "midi": 59,
          "name": "B3",
          "ticks": 22811,
          "time": 265.24418604651163,
          "velocity": 0.25984251968503935
        },
        {
          "duration": 0.023255813953483084,
          "durationTicks": 2,
          "midi": 43,
          "name": "G2",
          "ticks": 22812,
          "time": 265.25581395348837,
          "velocity": 0.4094488188976378
        },
        {
          "duration": 0.3953488372093261,
          "durationTicks": 34,
          "midi": 59,
          "name": "B3",
          "ticks": 22814,
          "time": 265.27906976744185,
          "velocity": 0.2125984251968504
        },
        {
          "duration": 0.0813953488371908,
          "durationTicks": 7,
          "midi": 43,
          "name": "G2",
          "ticks": 22815,
          "time": 265.2906976744186,
          "velocity": 0.3779527559055118
        },
        {
          "duration": 0.3837209302325846,
          "durationTicks": 33,
          "midi": 73,
          "name": "C#5",
          "ticks": 22816,
          "time": 265.30232558139534,
          "velocity": 0.18110236220472442
        },
        {
          "duration": 0.04651162790702301,
          "durationTicks": 4,
          "midi": 77,
          "name": "F5",
          "ticks": 22821,
          "time": 265.36046511627904,
          "velocity": 0.11023622047244094
        },
        {
          "duration": 0.0697674418605061,
          "durationTicks": 6,
          "midi": 55,
          "name": "G3",
          "ticks": 22822,
          "time": 265.3720930232558,
          "velocity": 0.10236220472440945
        },
        {
          "duration": 0.2906976744185954,
          "durationTicks": 25,
          "midi": 43,
          "name": "G2",
          "ticks": 22823,
          "time": 265.3837209302326,
          "velocity": 0.3464566929133858
        },
        {
          "duration": 0.04651162790696617,
          "durationTicks": 4,
          "midi": 50,
          "name": "D3",
          "ticks": 22828,
          "time": 265.4418604651163,
          "velocity": 0.1889763779527559
        },
        {
          "duration": 0.04651162790696617,
          "durationTicks": 4,
          "midi": 50,
          "name": "D3",
          "ticks": 22835,
          "time": 265.5232558139535,
          "velocity": 0.1889763779527559
        },
        {
          "duration": 0.023255813953483084,
          "durationTicks": 2,
          "midi": 50,
          "name": "D3",
          "ticks": 22847,
          "time": 265.66279069767444,
          "velocity": 0.33070866141732286
        },
        {
          "duration": 0.6976744186046062,
          "durationTicks": 60,
          "midi": 65,
          "name": "F4",
          "ticks": 22848,
          "time": 265.6744186046512,
          "velocity": 0.23622047244094488
        },
        {
          "duration": 0.04651162790696617,
          "durationTicks": 4,
          "midi": 75,
          "name": "D#5",
          "ticks": 22848,
          "time": 265.6744186046512,
          "velocity": 0.14960629921259844
        },
        {
          "duration": 0.10465116279067388,
          "durationTicks": 9,
          "midi": 81,
          "name": "A5",
          "ticks": 22850,
          "time": 265.69767441860466,
          "velocity": 0.12598425196850394
        },
        {
          "duration": 0.034883720930224626,
          "durationTicks": 3,
          "midi": 43,
          "name": "G2",
          "ticks": 22851,
          "time": 265.7093023255814,
          "velocity": 0.4409448818897638
        },
        {
          "duration": 0.06976744186044925,
          "durationTicks": 6,
          "midi": 50,
          "name": "D3",
          "ticks": 22852,
          "time": 265.72093023255815,
          "velocity": 0.33858267716535434
        },
        {
          "duration": 0.40697674418606766,
          "durationTicks": 35,
          "midi": 59,
          "name": "B3",
          "ticks": 22852,
          "time": 265.72093023255815,
          "velocity": 0.18110236220472442
        },
        {
          "duration": 0.4186046511628092,
          "durationTicks": 36,
          "midi": 73,
          "name": "C#5",
          "ticks": 22852,
          "time": 265.72093023255815,
          "velocity": 0.1732283464566929
        },
        {
          "duration": 0.37209302325584304,
          "durationTicks": 32,
          "midi": 43,
          "name": "G2",
          "ticks": 22855,
          "time": 265.75581395348837,
          "velocity": 0.3700787401574803
        },
        {
          "duration": 0.1279069767442138,
          "durationTicks": 11,
          "midi": 67,
          "name": "G4",
          "ticks": 22859,
          "time": 265.80232558139534,
          "velocity": 0.07874015748031496
        },
        {
          "duration": 0.04651162790696617,
          "durationTicks": 4,
          "midi": 50,
          "name": "D3",
          "ticks": 22861,
          "time": 265.8255813953488,
          "velocity": 0.25984251968503935
        },
        {
          "duration": 0.04651162790696617,
          "durationTicks": 4,
          "midi": 50,
          "name": "D3",
          "ticks": 22868,
          "time": 265.90697674418607,
          "velocity": 0.2047244094488189
        },
        {
          "duration": 0.04651162790696617,
          "durationTicks": 4,
          "midi": 50,
          "name": "D3",
          "ticks": 22875,
          "time": 265.98837209302326,
          "velocity": 0.1968503937007874
        },
        {
          "duration": 0.023255813953483084,
          "durationTicks": 2,
          "midi": 42,
          "name": "F#2",
          "ticks": 22887,
          "time": 266.1279069767442,
          "velocity": 0.4645669291338583
        },
        {
          "duration": 0.04651162790696617,
          "durationTicks": 4,
          "midi": 72,
          "name": "C5",
          "ticks": 22888,
          "time": 266.13953488372096,
          "velocity": 0.2204724409448819
        },
        {
          "duration": 0.034883720930224626,
          "durationTicks": 3,
          "midi": 75,
          "name": "D#5",
          "ticks": 22888,
          "time": 266.13953488372096,
          "velocity": 0.14960629921259844
        },
        {
          "duration": 0.04651162790696617,
          "durationTicks": 4,
          "midi": 71,
          "name": "B4",
          "ticks": 22889,
          "time": 266.1511627906977,
          "velocity": 0.14173228346456693
        },
        {
          "duration": 0.0813953488371908,
          "durationTicks": 7,
          "midi": 81,
          "name": "A5",
          "ticks": 22889,
          "time": 266.1511627906977,
          "velocity": 0.08661417322834646
        },
        {
          "duration": 0.034883720930224626,
          "durationTicks": 3,
          "midi": 43,
          "name": "G2",
          "ticks": 22890,
          "time": 266.16279069767444,
          "velocity": 0.47244094488188976
        },
        {
          "duration": 0.19767441860460622,
          "durationTicks": 17,
          "midi": 59,
          "name": "B3",
          "ticks": 22890,
          "time": 266.16279069767444,
          "velocity": 0.2204724409448819
        },
        {
          "duration": 0.18604651162786467,
          "durationTicks": 16,
          "midi": 73,
          "name": "C#5",
          "ticks": 22892,
          "time": 266.1860465116279,
          "velocity": 0.2125984251968504
        },
        {
          "duration": 0.023255813953483084,
          "durationTicks": 2,
          "midi": 50,
          "name": "D3",
          "ticks": 22893,
          "time": 266.19767441860466,
          "velocity": 0.2283464566929134
        },
        {
          "duration": 0.15116279069764005,
          "durationTicks": 13,
          "midi": 43,
          "name": "G2",
          "ticks": 22894,
          "time": 266.2093023255814,
          "velocity": 0.3937007874015748
        },
        {
          "duration": 0.023255813953483084,
          "durationTicks": 2,
          "midi": 50,
          "name": "D3",
          "ticks": 22900,
          "time": 266.27906976744185,
          "velocity": 0.2283464566929134
        },
        {
          "duration": 0.03488372093028147,
          "durationTicks": 3,
          "midi": 74,
          "name": "D5",
          "ticks": 22907,
          "time": 266.36046511627904,
          "velocity": 0.16535433070866143
        },
        {
          "duration": 0.04651162790702301,
          "durationTicks": 4,
          "midi": 72,
          "name": "C5",
          "ticks": 22908,
          "time": 266.3720930232558,
          "velocity": 0.2283464566929134
        },
        {
          "duration": 0.11627906976747227,
          "durationTicks": 10,
          "midi": 81,
          "name": "A5",
          "ticks": 22908,
          "time": 266.3720930232558,
          "velocity": 0.13385826771653545
        },
        {
          "duration": 0.09302325581393234,
          "durationTicks": 8,
          "midi": 50,
          "name": "D3",
          "ticks": 22909,
          "time": 266.3837209302326,
          "velocity": 0.3779527559055118
        },
        {
          "duration": 0.20930232558134776,
          "durationTicks": 18,
          "midi": 65,
          "name": "F4",
          "ticks": 22909,
          "time": 266.3837209302326,
          "velocity": 0.13385826771653545
        },
        {
          "duration": 0.034883720930224626,
          "durationTicks": 3,
          "midi": 43,
          "name": "G2",
          "ticks": 22910,
          "time": 266.3953488372093,
          "velocity": 0.41732283464566927
        },
        {
          "duration": 0.19767441860460622,
          "durationTicks": 17,
          "midi": 59,
          "name": "B3",
          "ticks": 22910,
          "time": 266.3953488372093,
          "velocity": 0.2440944881889764
        },
        {
          "duration": 0.18604651162786467,
          "durationTicks": 16,
          "midi": 73,
          "name": "C#5",
          "ticks": 22912,
          "time": 266.4186046511628,
          "velocity": 0.2125984251968504
        },
        {
          "duration": 0.15116279069764005,
          "durationTicks": 13,
          "midi": 43,
          "name": "G2",
          "ticks": 22914,
          "time": 266.4418604651163,
          "velocity": 0.36220472440944884
        },
        {
          "duration": 0.023255813953483084,
          "durationTicks": 2,
          "midi": 50,
          "name": "D3",
          "ticks": 22920,
          "time": 266.51162790697674,
          "velocity": 0.25984251968503935
        },
        {
          "duration": 0.023255813953483084,
          "durationTicks": 2,
          "midi": 48,
          "name": "C3",
          "ticks": 22927,
          "time": 266.59302325581393,
          "velocity": 0.4409448818897638
        },
        {
          "duration": 0.22093023255814614,
          "durationTicks": 19,
          "midi": 57,
          "name": "A3",
          "ticks": 22927,
          "time": 266.59302325581393,
          "velocity": 0.3228346456692913
        },
        {
          "duration": 0.03488372093028147,
          "durationTicks": 3,
          "midi": 79,
          "name": "G5",
          "ticks": 22927,
          "time": 266.59302325581393,
          "velocity": 0.14960629921259844
        },
        {
          "duration": 0.2093023255814046,
          "durationTicks": 18,
          "midi": 62,
          "name": "D4",
          "ticks": 22928,
          "time": 266.6046511627907,
          "velocity": 0.25196850393700787
        },
        {
          "duration": 0.2093023255814046,
          "durationTicks": 18,
          "midi": 66,
          "name": "F#4",
          "ticks": 22928,
          "time": 266.6046511627907,
          "velocity": 0.2204724409448819
        },
        {
          "duration": 0.0697674418605061,
          "durationTicks": 6,
          "midi": 72,
          "name": "C5",
          "ticks": 22928,
          "time": 266.6046511627907,
          "velocity": 0.2204724409448819
        },
        {
          "duration": 0.2093023255814046,
          "durationTicks": 18,
          "midi": 50,
          "name": "D3",
          "ticks": 22929,
          "time": 266.6162790697674,
          "velocity": 0.4409448818897638
        },
        {
          "duration": 0.0813953488371908,
          "durationTicks": 7,
          "midi": 93,
          "name": "A6",
          "ticks": 22930,
          "time": 266.6279069767442,
          "velocity": 0.11811023622047244
        },
        {
          "duration": 0.09302325581393234,
          "durationTicks": 8,
          "midi": 76,
          "name": "E5",
          "ticks": 22932,
          "time": 266.6511627906977,
          "velocity": 0.08661417322834646
        },
        {
          "duration": 0.023255813953483084,
          "durationTicks": 2,
          "midi": 38,
          "name": "D2",
          "ticks": 22933,
          "time": 266.66279069767444,
          "velocity": 0.4015748031496063
        },
        {
          "duration": 0.10465116279067388,
          "durationTicks": 9,
          "midi": 80,
          "name": "G#5",
          "ticks": 22933,
          "time": 266.66279069767444,
          "velocity": 0.07874015748031496
        },
        {
          "duration": 0.023255813953483084,
          "durationTicks": 2,
          "midi": 39,
          "name": "D#2",
          "ticks": 22935,
          "time": 266.6860465116279,
          "velocity": 0.3937007874015748
        },
        {
          "duration": 0.36046511627904465,
          "durationTicks": 31,
          "midi": 72,
          "name": "C5",
          "ticks": 22935,
          "time": 266.6860465116279,
          "velocity": 0.2283464566929134
        },
        {
          "duration": 0.04651162790696617,
          "durationTicks": 4,
          "midi": 38,
          "name": "D2",
          "ticks": 22937,
          "time": 266.7093023255814,
          "velocity": 0.31496062992125984
        },
        {
          "duration": 0.04651162790696617,
          "durationTicks": 4,
          "midi": 38,
          "name": "D2",
          "ticks": 22942,
          "time": 266.7674418604651,
          "velocity": 0.2677165354330709
        },
        {
          "duration": 0.2325581395348877,
          "durationTicks": 20,
          "midi": 65,
          "name": "F4",
          "ticks": 22946,
          "time": 266.8139534883721,
          "velocity": 0.2755905511811024
        },
        {
          "duration": 0.16279069767443843,
          "durationTicks": 14,
          "midi": 83,
          "name": "B5",
          "ticks": 22946,
          "time": 266.8139534883721,
          "velocity": 0.11023622047244094
        },
        {
          "duration": 0.22093023255814614,
          "durationTicks": 19,
          "midi": 60,
          "name": "C4",
          "ticks": 22947,
          "time": 266.8255813953488,
          "velocity": 0.31496062992125984
        },
        {
          "duration": 0.22093023255814614,
          "durationTicks": 19,
          "midi": 75,
          "name": "D#5",
          "ticks": 22947,
          "time": 266.8255813953488,
          "velocity": 0.14173228346456693
        },
        {
          "duration": 0.13953488372095535,
          "durationTicks": 12,
          "midi": 79,
          "name": "G5",
          "ticks": 22947,
          "time": 266.8255813953488,
          "velocity": 0.09448818897637795
        },
        {
          "duration": 0.023255813953483084,
          "durationTicks": 2,
          "midi": 41,
          "name": "F2",
          "ticks": 22948,
          "time": 266.83720930232556,
          "velocity": 0.4645669291338583
        },
        {
          "duration": 0.2093023255814046,
          "durationTicks": 18,
          "midi": 69,
          "name": "A4",
          "ticks": 22948,
          "time": 266.83720930232556,
          "velocity": 0.1968503937007874
        },
        {
          "duration": 0.04651162790702301,
          "durationTicks": 4,
          "midi": 93,
          "name": "A6",
          "ticks": 22948,
          "time": 266.83720930232556,
          "velocity": 0.07086614173228346
        },
        {
          "duration": 0.04651162790702301,
          "durationTicks": 4,
          "midi": 96,
          "name": "C7",
          "ticks": 22949,
          "time": 266.8488372093023,
          "velocity": 0.09448818897637795
        },
        {
          "duration": 0.023255813953539928,
          "durationTicks": 2,
          "midi": 42,
          "name": "F#2",
          "ticks": 22950,
          "time": 266.86046511627904,
          "velocity": 0.4251968503937008
        },
        {
          "duration": 0.06976744186044925,
          "durationTicks": 6,
          "midi": 41,
          "name": "F2",
          "ticks": 22952,
          "time": 266.8837209302326,
          "velocity": 0.4330708661417323
        },
        {
          "duration": 0.023255813953483084,
          "durationTicks": 2,
          "midi": 40,
          "name": "E2",
          "ticks": 22958,
          "time": 266.95348837209303,
          "velocity": 0.2992125984251969
        },
        {
          "duration": 0.0813953488371908,
          "durationTicks": 7,
          "midi": 41,
          "name": "F2",
          "ticks": 22960,
          "time": 266.9767441860465,
          "velocity": 0.30708661417322836
        },
        {
          "duration": 0.023255813953483084,
          "durationTicks": 2,
          "midi": 61,
          "name": "C#4",
          "ticks": 22966,
          "time": 267.04651162790697,
          "velocity": 0.4251968503937008
        },
        {
          "duration": 0.04651162790696617,
          "durationTicks": 4,
          "midi": 74,
          "name": "D5",
          "ticks": 22966,
          "time": 267.04651162790697,
          "velocity": 0.4645669291338583
        },
        {
          "duration": 0.034883720930224626,
          "durationTicks": 3,
          "midi": 79,
          "name": "G5",
          "ticks": 22966,
          "time": 267.04651162790697,
          "velocity": 0.11023622047244094
        },
        {
          "duration": 0.3372093023256184,
          "durationTicks": 29,
          "midi": 83,
          "name": "B5",
          "ticks": 22966,
          "time": 267.04651162790697,
          "velocity": 0.2047244094488189
        },
        {
          "duration": 0.10465116279073072,
          "durationTicks": 9,
          "midi": 88,
          "name": "E6",
          "ticks": 22966,
          "time": 267.04651162790697,
          "velocity": 0.28346456692913385
        },
        {
          "duration": 0.3604651162791015,
          "durationTicks": 31,
          "midi": 90,
          "name": "F#6",
          "ticks": 22966,
          "time": 267.04651162790697,
          "velocity": 0.14173228346456693
        },
        {
          "duration": 0.16279069767443843,
          "durationTicks": 14,
          "midi": 102,
          "name": "F#7",
          "ticks": 22966,
          "time": 267.04651162790697,
          "velocity": 0.30708661417322836
        },
        {
          "duration": 0.4418604651162923,
          "durationTicks": 38,
          "midi": 48,
          "name": "C3",
          "ticks": 22967,
          "time": 267.0581395348837,
          "velocity": 0.44881889763779526
        },
        {
          "duration": 0.4418604651162923,
          "durationTicks": 38,
          "midi": 57,
          "name": "A3",
          "ticks": 22967,
          "time": 267.0581395348837,
          "velocity": 0.3937007874015748
        },
        {
          "duration": 0.4767441860465169,
          "durationTicks": 41,
          "midi": 69,
          "name": "A4",
          "ticks": 22967,
          "time": 267.0581395348837,
          "velocity": 0.5433070866141733
        },
        {
          "duration": 0.034883720930224626,
          "durationTicks": 3,
          "midi": 84,
          "name": "C6",
          "ticks": 22967,
          "time": 267.0581395348837,
          "velocity": 0.11811023622047244
        },
        {
          "duration": 0.09302325581398918,
          "durationTicks": 8,
          "midi": 94,
          "name": "A#6",
          "ticks": 22967,
          "time": 267.0581395348837,
          "velocity": 0.1968503937007874
        },
        {
          "duration": 0.37209302325584304,
          "durationTicks": 32,
          "midi": 62,
          "name": "D4",
          "ticks": 22968,
          "time": 267.06976744186045,
          "velocity": 0.49606299212598426
        },
        {
          "duration": 0.04651162790696617,
          "durationTicks": 4,
          "midi": 87,
          "name": "D#6",
          "ticks": 22968,
          "time": 267.06976744186045,
          "velocity": 0.13385826771653545
        },
        {
          "duration": 0.034883720930224626,
          "durationTicks": 3,
          "midi": 103,
          "name": "G7",
          "ticks": 22968,
          "time": 267.06976744186045,
          "velocity": 0.09448818897637795
        },
        {
          "duration": 0.11627906976747227,
          "durationTicks": 10,
          "midi": 75,
          "name": "D#5",
          "ticks": 22969,
          "time": 267.0813953488372,
          "velocity": 0.3464566929133858
        },
        {
          "duration": 0.023255813953483084,
          "durationTicks": 2,
          "midi": 41,
          "name": "F2",
          "ticks": 22970,
          "time": 267.09302325581393,
          "velocity": 0.3858267716535433
        },
        {
          "duration": 0.023255813953483084,
          "durationTicks": 2,
          "midi": 41,
          "name": "F2",
          "ticks": 22975,
          "time": 267.1511627906977,
          "velocity": 0.30708661417322836
        },
        {
          "duration": 0.09302325581393234,
          "durationTicks": 8,
          "midi": 88,
          "name": "E6",
          "ticks": 22978,
          "time": 267.1860465116279,
          "velocity": 0.11811023622047244
        },
        {
          "duration": 0.2906976744185954,
          "durationTicks": 25,
          "midi": 41,
          "name": "F2",
          "ticks": 22981,
          "time": 267.22093023255815,
          "velocity": 0.2755905511811024
        },
        {
          "duration": 0.05813953488370771,
          "durationTicks": 5,
          "midi": 62,
          "name": "D4",
          "ticks": 23001,
          "time": 267.45348837209303,
          "velocity": 0.2677165354330709
        },
        {
          "duration": 0.023255813953483084,
          "durationTicks": 2,
          "midi": 49,
          "name": "C#3",
          "ticks": 23005,
          "time": 267.5,
          "velocity": 0.4330708661417323
        },
        {
          "duration": 0.023255813953483084,
          "durationTicks": 2,
          "midi": 56,
          "name": "G#3",
          "ticks": 23005,
          "time": 267.5,
          "velocity": 0.3700787401574803
        },
        {
          "duration": 0.32558139534882,
          "durationTicks": 28,
          "midi": 83,
          "name": "B5",
          "ticks": 23005,
          "time": 267.5,
          "velocity": 0.18110236220472442
        },
        {
          "duration": 0.27906976744185386,
          "durationTicks": 24,
          "midi": 87,
          "name": "D#6",
          "ticks": 23005,
          "time": 267.5,
          "velocity": 0.1732283464566929
        },
        {
          "duration": 0.05813953488370771,
          "durationTicks": 5,
          "midi": 63,
          "name": "D#4",
          "ticks": 23006,
          "time": 267.51162790697674,
          "velocity": 0.3464566929133858
        },
        {
          "duration": 0.09302325581393234,
          "durationTicks": 8,
          "midi": 94,
          "name": "A#6",
          "ticks": 23006,
          "time": 267.51162790697674,
          "velocity": 0.2047244094488189
        },
        {
          "duration": 0.023255813953483084,
          "durationTicks": 2,
          "midi": 48,
          "name": "C3",
          "ticks": 23007,
          "time": 267.5232558139535,
          "velocity": 0.4409448818897638
        },
        {
          "duration": 0.43023255813955075,
          "durationTicks": 37,
          "midi": 57,
          "name": "A3",
          "ticks": 23007,
          "time": 267.5232558139535,
          "velocity": 0.4015748031496063
        },
        {
          "duration": 0.13953488372095535,
          "durationTicks": 12,
          "midi": 88,
          "name": "E6",
          "ticks": 23007,
          "time": 267.5232558139535,
          "velocity": 0.09448818897637795
        },
        {
          "duration": 0.05813953488370771,
          "durationTicks": 5,
          "midi": 41,
          "name": "F2",
          "ticks": 23010,
          "time": 267.5581395348837,
          "velocity": 0.3937007874015748
        },
        {
          "duration": 0.034883720930224626,
          "durationTicks": 3,
          "midi": 62,
          "name": "D4",
          "ticks": 23011,
          "time": 267.56976744186045,
          "velocity": 0.3464566929133858
        },
        {
          "duration": 0.3604651162791015,
          "durationTicks": 31,
          "midi": 48,
          "name": "C3",
          "ticks": 23014,
          "time": 267.6046511627907,
          "velocity": 0.31496062992125984
        },
        {
          "duration": 0.04651162790702301,
          "durationTicks": 4,
          "midi": 63,
          "name": "D#4",
          "ticks": 23014,
          "time": 267.6046511627907,
          "velocity": 0.25196850393700787
        },
        {
          "duration": 0.034883720930224626,
          "durationTicks": 3,
          "midi": 62,
          "name": "D4",
          "ticks": 23018,
          "time": 267.6511627906977,
          "velocity": 0.2755905511811024
        },
        {
          "duration": 0.06976744186044925,
          "durationTicks": 6,
          "midi": 63,
          "name": "D#4",
          "ticks": 23021,
          "time": 267.6860465116279,
          "velocity": 0.2283464566929134
        },
        {
          "duration": 0.05813953488370771,
          "durationTicks": 5,
          "midi": 41,
          "name": "F2",
          "ticks": 23022,
          "time": 267.69767441860466,
          "velocity": 0.2677165354330709
        },
        {
          "duration": 0.023255813953483084,
          "durationTicks": 2,
          "midi": 62,
          "name": "D4",
          "ticks": 23027,
          "time": 267.75581395348837,
          "velocity": 0.2283464566929134
        },
        {
          "duration": 0.19767441860466306,
          "durationTicks": 17,
          "midi": 41,
          "name": "F2",
          "ticks": 23028,
          "time": 267.7674418604651,
          "velocity": 0.23622047244094488
        },
        {
          "duration": 0.06976744186044925,
          "durationTicks": 6,
          "midi": 63,
          "name": "D#4",
          "ticks": 23029,
          "time": 267.77906976744185,
          "velocity": 0.1889763779527559
        },
        {
          "duration": 0.0697674418605061,
          "durationTicks": 6,
          "midi": 63,
          "name": "D#4",
          "ticks": 23037,
          "time": 267.8720930232558,
          "velocity": 0.16535433070866143
        },
        {
          "duration": 0.034883720930224626,
          "durationTicks": 3,
          "midi": 74,
          "name": "D5",
          "ticks": 23042,
          "time": 267.93023255813955,
          "velocity": 0.10236220472440945
        },
        {
          "duration": 0.27906976744185386,
          "durationTicks": 24,
          "midi": 60,
          "name": "C4",
          "ticks": 23044,
          "time": 267.95348837209303,
          "velocity": 0.5275590551181102
        },
        {
          "duration": 0.034883720930224626,
          "durationTicks": 3,
          "midi": 68,
          "name": "G#4",
          "ticks": 23044,
          "time": 267.95348837209303,
          "velocity": 0.5433070866141733
        },
        {
          "duration": 0.4651162790697754,
          "durationTicks": 40,
          "midi": 75,
          "name": "D#5",
          "ticks": 23045,
          "time": 267.9651162790698,
          "velocity": 0.33858267716535434
        },
        {
          "duration": 0.2325581395348877,
          "durationTicks": 20,
          "midi": 83,
          "name": "B5",
          "ticks": 23045,
          "time": 267.9651162790698,
          "velocity": 0.2283464566929134
        },
        {
          "duration": 0.2674418604651123,
          "durationTicks": 23,
          "midi": 84,
          "name": "C6",
          "ticks": 23045,
          "time": 267.9651162790698,
          "velocity": 0.33858267716535434
        },
        {
          "duration": 0.18604651162792152,
          "durationTicks": 16,
          "midi": 100,
          "name": "E7",
          "ticks": 23045,
          "time": 267.9651162790698,
          "velocity": 0.3228346456692913
        },
        {
          "duration": 0.5465116279069662,
          "durationTicks": 47,
          "midi": 79,
          "name": "G5",
          "ticks": 23046,
          "time": 267.9767441860465,
          "velocity": 0.2047244094488189
        },
        {
          "duration": 0.19767441860466306,
          "durationTicks": 17,
          "midi": 86,
          "name": "D6",
          "ticks": 23046,
          "time": 267.9767441860465,
          "velocity": 0.2047244094488189
        },
        {
          "duration": 0.04651162790696617,
          "durationTicks": 4,
          "midi": 88,
          "name": "E6",
          "ticks": 23046,
          "time": 267.9767441860465,
          "velocity": 0.2440944881889764
        },
        {
          "duration": 0.023255813953483084,
          "durationTicks": 2,
          "midi": 48,
          "name": "C3",
          "ticks": 23047,
          "time": 267.98837209302326,
          "velocity": 0.3937007874015748
        },
        {
          "duration": 0.4651162790697754,
          "durationTicks": 40,
          "midi": 67,
          "name": "G4",
          "ticks": 23047,
          "time": 267.98837209302326,
          "velocity": 0.5669291338582677
        },
        {
          "duration": 0.16279069767443843,
          "durationTicks": 14,
          "midi": 94,
          "name": "A#6",
          "ticks": 23047,
          "time": 267.98837209302326,
          "velocity": 0.2125984251968504
        },
        {
          "duration": 0.06976744186044925,
          "durationTicks": 6,
          "midi": 41,
          "name": "F2",
          "ticks": 23049,
          "time": 268.01162790697674,
          "velocity": 0.4251968503937008
        },
        {
          "duration": 0.04651162790696617,
          "durationTicks": 4,
          "midi": 88,
          "name": "E6",
          "ticks": 23051,
          "time": 268.0348837209302,
          "velocity": 0.18110236220472442
        },
        {
          "duration": 0.1511627906976969,
          "durationTicks": 13,
          "midi": 48,
          "name": "C3",
          "ticks": 23052,
          "time": 268.04651162790697,
          "velocity": 0.31496062992125984
        },
        {
          "duration": 0.04651162790702301,
          "durationTicks": 4,
          "midi": 88,
          "name": "E6",
          "ticks": 23056,
          "time": 268.09302325581393,
          "velocity": 0.15748031496062992
        },
        {
          "duration": 0.05813953488370771,
          "durationTicks": 5,
          "midi": 41,
          "name": "F2",
          "ticks": 23060,
          "time": 268.13953488372096,
          "velocity": 0.28346456692913385
        },
        {
          "duration": 0.2209302325580893,
          "durationTicks": 19,
          "midi": 88,
          "name": "E6",
          "ticks": 23061,
          "time": 268.1511627906977,
          "velocity": 0.2204724409448819
        },
        {
          "duration": 0.023255813953483084,
          "durationTicks": 2,
          "midi": 47,
          "name": "B2",
          "ticks": 23065,
          "time": 268.19767441860466,
          "velocity": 0.4409448818897638
        },
        {
          "duration": 0.2093023255814046,
          "durationTicks": 18,
          "midi": 83,
          "name": "B5",
          "ticks": 23066,
          "time": 268.2093023255814,
          "velocity": 0.12598425196850394
        },
        {
          "duration": 0.10465116279067388,
          "durationTicks": 9,
          "midi": 94,
          "name": "A#6",
          "ticks": 23066,
          "time": 268.2093023255814,
          "velocity": 0.2047244094488189
        },
        {
          "duration": 0.04651162790696617,
          "durationTicks": 4,
          "midi": 48,
          "name": "C3",
          "ticks": 23067,
          "time": 268.22093023255815,
          "velocity": 0.44881889763779526
        },
        {
          "duration": 0.05813953488370771,
          "durationTicks": 5,
          "midi": 41,
          "name": "F2",
          "ticks": 23068,
          "time": 268.2325581395349,
          "velocity": 0.41732283464566927
        },
        {
          "duration": 0.18604651162792152,
          "durationTicks": 16,
          "midi": 57,
          "name": "A3",
          "ticks": 23068,
          "time": 268.2325581395349,
          "velocity": 0.36220472440944884
        },
        {
          "duration": 0.13953488372095535,
          "durationTicks": 12,
          "midi": 60,
          "name": "C4",
          "ticks": 23072,
          "time": 268.27906976744185,
          "velocity": 0.29133858267716534
        },
        {
          "duration": 0.1279069767442138,
          "durationTicks": 11,
          "midi": 48,
          "name": "C3",
          "ticks": 23074,
          "time": 268.30232558139534,
          "velocity": 0.33070866141732286
        },
        {
          "duration": 0.08139534883724764,
          "durationTicks": 7,
          "midi": 41,
          "name": "F2",
          "ticks": 23080,
          "time": 268.3720930232558,
          "velocity": 0.4645669291338583
        },
        {
          "duration": 0.09302325581393234,
          "durationTicks": 8,
          "midi": 57,
          "name": "A3",
          "ticks": 23085,
          "time": 268.43023255813955,
          "velocity": 0.33858267716535434
        },
        {
          "duration": 0.17441860465112313,
          "durationTicks": 15,
          "midi": 76,
          "name": "E5",
          "ticks": 23086,
          "time": 268.4418604651163,
          "velocity": 0.10236220472440945
        },
        {
          "duration": 0.2093023255814046,
          "durationTicks": 18,
          "midi": 50,
          "name": "D3",
          "ticks": 23087,
          "time": 268.45348837209303,
          "velocity": 0.4409448818897638
        },
        {
          "duration": 0.04651162790696617,
          "durationTicks": 4,
          "midi": 93,
          "name": "A6",
          "ticks": 23087,
          "time": 268.45348837209303,
          "velocity": 0.13385826771653545
        },
        {
          "duration": 0.034883720930224626,
          "durationTicks": 3,
          "midi": 39,
          "name": "D#2",
          "ticks": 23088,
          "time": 268.4651162790698,
          "velocity": 0.4566929133858268
        },
        {
          "duration": 0.19767441860466306,
          "durationTicks": 17,
          "midi": 66,
          "name": "F#4",
          "ticks": 23088,
          "time": 268.4651162790698,
          "velocity": 0.25196850393700787
        },
        {
          "duration": 0.04651162790696617,
          "durationTicks": 4,
          "midi": 38,
          "name": "D2",
          "ticks": 23091,
          "time": 268.5,
          "velocity": 0.3858267716535433
        },
        {
          "duration": 0.1279069767442138,
          "durationTicks": 11,
          "midi": 57,
          "name": "A3",
          "ticks": 23094,
          "time": 268.5348837209302,
          "velocity": 0.2283464566929134
        },
        {
          "duration": 0.10465116279073072,
          "durationTicks": 9,
          "midi": 79,
          "name": "G5",
          "ticks": 23094,
          "time": 268.5348837209302,
          "velocity": 0.16535433070866143
        },
        {
          "duration": 0.023255813953483084,
          "durationTicks": 2,
          "midi": 38,
          "name": "D2",
          "ticks": 23096,
          "time": 268.5581395348837,
          "velocity": 0.2992125984251969
        },
        {
          "duration": 0.023255813953483084,
          "durationTicks": 2,
          "midi": 37,
          "name": "C#2",
          "ticks": 23098,
          "time": 268.5813953488372,
          "velocity": 0.2440944881889764
        },
        {
          "duration": 0.058139534883764554,
          "durationTicks": 5,
          "midi": 38,
          "name": "D2",
          "ticks": 23100,
          "time": 268.6046511627907,
          "velocity": 0.28346456692913385
        },
        {
          "duration": 0.20930232558134776,
          "durationTicks": 18,
          "midi": 60,
          "name": "C4",
          "ticks": 23105,
          "time": 268.66279069767444,
          "velocity": 0.3543307086614173
        },
        {
          "duration": 0.2325581395348877,
          "durationTicks": 20,
          "midi": 79,
          "name": "G5",
          "ticks": 23105,
          "time": 268.66279069767444,
          "velocity": 0.14960629921259844
        },
        {
          "duration": 0.15116279069764005,
          "durationTicks": 13,
          "midi": 83,
          "name": "B5",
          "ticks": 23105,
          "time": 268.66279069767444,
          "velocity": 0.13385826771653545
        },
        {
          "duration": 0.22093023255814614,
          "durationTicks": 19,
          "midi": 53,
          "name": "F3",
          "ticks": 23106,
          "time": 268.6744186046512,
          "velocity": 0.44881889763779526
        },
        {
          "duration": 0.44186046511623545,
          "durationTicks": 38,
          "midi": 75,
          "name": "D#5",
          "ticks": 23106,
          "time": 268.6744186046512,
          "velocity": 0.2440944881889764
        },
        {
          "duration": 0.06976744186044925,
          "durationTicks": 6,
          "midi": 96,
          "name": "C7",
          "ticks": 23106,
          "time": 268.6744186046512,
          "velocity": 0.14173228346456693
        },
        {
          "duration": 0.034883720930224626,
          "durationTicks": 3,
          "midi": 42,
          "name": "F#2",
          "ticks": 23107,
          "time": 268.6860465116279,
          "velocity": 0.4409448818897638
        },
        {
          "duration": 0.18604651162786467,
          "durationTicks": 16,
          "midi": 69,
          "name": "A4",
          "ticks": 23107,
          "time": 268.6860465116279,
          "velocity": 0.2047244094488189
        },
        {
          "duration": 0.06976744186044925,
          "durationTicks": 6,
          "midi": 88,
          "name": "E6",
          "ticks": 23107,
          "time": 268.6860465116279,
          "velocity": 0.12598425196850394
        },
        {
          "duration": 0.04651162790696617,
          "durationTicks": 4,
          "midi": 41,
          "name": "F2",
          "ticks": 23110,
          "time": 268.72093023255815,
          "velocity": 0.44881889763779526
        },
        {
          "duration": 0.034883720930224626,
          "durationTicks": 3,
          "midi": 40,
          "name": "E2",
          "ticks": 23116,
          "time": 268.7906976744186,
          "velocity": 0.29133858267716534
        },
        {
          "duration": 0.04651162790696617,
          "durationTicks": 4,
          "midi": 41,
          "name": "F2",
          "ticks": 23119,
          "time": 268.8255813953488,
          "velocity": 0.29133858267716534
        },
        {
          "duration": 0.4418604651162923,
          "durationTicks": 38,
          "midi": 77,
          "name": "F5",
          "ticks": 23123,
          "time": 268.8720930232558,
          "velocity": 0.47244094488188976
        },
        {
          "duration": 0.11627906976747227,
          "durationTicks": 10,
          "midi": 81,
          "name": "A5",
          "ticks": 23123,
          "time": 268.8720930232558,
          "velocity": 0.18110236220472442
        },
        {
          "duration": 0.29069767441865224,
          "durationTicks": 25,
          "midi": 84,
          "name": "C6",
          "ticks": 23123,
          "time": 268.8720930232558,
          "velocity": 0.2755905511811024
        },
        {
          "duration": 0.2093023255814046,
          "durationTicks": 18,
          "midi": 88,
          "name": "E6",
          "ticks": 23123,
          "time": 268.8720930232558,
          "velocity": 0.23622047244094488
        },
        {
          "duration": 0.023255813953483084,
          "durationTicks": 2,
          "midi": 44,
          "name": "G#2",
          "ticks": 23124,
          "time": 268.8837209302326,
          "velocity": 0.49606299212598426
        },
        {
          "duration": 0.2674418604651123,
          "durationTicks": 23,
          "midi": 57,
          "name": "A3",
          "ticks": 23124,
          "time": 268.8837209302326,
          "velocity": 0.4566929133858268
        },
        {
          "duration": 0.30232558139533694,
          "durationTicks": 26,
          "midi": 65,
          "name": "F4",
          "ticks": 23124,
          "time": 268.8837209302326,
          "velocity": 0.5039370078740157
        },
        {
          "duration": 0.5581395348837077,
          "durationTicks": 48,
          "midi": 69,
          "name": "A4",
          "ticks": 23124,
          "time": 268.8837209302326,
          "velocity": 0.5905511811023622
        },
        {
          "duration": 0.10465116279067388,
          "durationTicks": 9,
          "midi": 73,
          "name": "C#5",
          "ticks": 23124,
          "time": 268.8837209302326,
          "velocity": 0.2204724409448819
        },
        {
          "duration": 0.30232558139533694,
          "durationTicks": 26,
          "midi": 85,
          "name": "C#6",
          "ticks": 23124,
          "time": 268.8837209302326,
          "velocity": 0.2992125984251969
        },
        {
          "duration": 0.18604651162786467,
          "durationTicks": 16,
          "midi": 93,
          "name": "A6",
          "ticks": 23124,
          "time": 268.8837209302326,
          "velocity": 0.23622047244094488
        },
        {
          "duration": 0.1395348837208985,
          "durationTicks": 12,
          "midi": 95,
          "name": "B6",
          "ticks": 23124,
          "time": 268.8837209302326,
          "velocity": 0.14960629921259844
        },
        {
          "duration": 0.06976744186044925,
          "durationTicks": 6,
          "midi": 99,
          "name": "D#7",
          "ticks": 23124,
          "time": 268.8837209302326,
          "velocity": 0.07874015748031496
        },
        {
          "duration": 0.0813953488371908,
          "durationTicks": 7,
          "midi": 101,
          "name": "F7",
          "ticks": 23124,
          "time": 268.8837209302326,
          "velocity": 0.09448818897637795
        },
        {
          "duration": 0.023255813953483084,
          "durationTicks": 2,
          "midi": 52,
          "name": "E3",
          "ticks": 23125,
          "time": 268.8953488372093,
          "velocity": 0.3464566929133858
        },
        {
          "duration": 0.0813953488371908,
          "durationTicks": 7,
          "midi": 91,
          "name": "G6",
          "ticks": 23125,
          "time": 268.8953488372093,
          "velocity": 0.12598425196850394
        },
        {
          "duration": 0.10465116279067388,
          "durationTicks": 9,
          "midi": 61,
          "name": "C#4",
          "ticks": 23126,
          "time": 268.90697674418607,
          "velocity": 0.2283464566929134
        },
        {
          "duration": 0.17441860465112313,
          "durationTicks": 15,
          "midi": 79,
          "name": "G5",
          "ticks": 23126,
          "time": 268.90697674418607,
          "velocity": 0.1732283464566929
        },
        {
          "duration": 0.1627906976743816,
          "durationTicks": 14,
          "midi": 52,
          "name": "E3",
          "ticks": 23130,
          "time": 268.95348837209303,
          "velocity": 0.29133858267716534
        },
        {
          "duration": 0.17441860465117998,
          "durationTicks": 15,
          "midi": 45,
          "name": "A2",
          "ticks": 23131,
          "time": 268.9651162790698,
          "velocity": 0.5196850393700787
        },
        {
          "duration": 0.10465116279073072,
          "durationTicks": 9,
          "midi": 61,
          "name": "C#4",
          "ticks": 23136,
          "time": 269.0232558139535,
          "velocity": 0.1889763779527559
        },
        {
          "duration": 0.10465116279073072,
          "durationTicks": 9,
          "midi": 93,
          "name": "A6",
          "ticks": 23142,
          "time": 269.09302325581393,
          "velocity": 0.12598425196850394
        },
        {
          "duration": 0.08139534883724764,
          "durationTicks": 7,
          "midi": 73,
          "name": "C#5",
          "ticks": 23144,
          "time": 269.1162790697674,
          "velocity": 0.2440944881889764
        },
        {
          "duration": 0.22093023255814614,
          "durationTicks": 19,
          "midi": 83,
          "name": "B5",
          "ticks": 23144,
          "time": 269.1162790697674,
          "velocity": 0.2440944881889764
        },
        {
          "duration": 0.034883720930224626,
          "durationTicks": 3,
          "midi": 44,
          "name": "G#2",
          "ticks": 23146,
          "time": 269.13953488372096,
          "velocity": 0.5354330708661418
        },
        {
          "duration": 0.034883720930224626,
          "durationTicks": 3,
          "midi": 74,
          "name": "D5",
          "ticks": 23146,
          "time": 269.13953488372096,
          "velocity": 0.1732283464566929
        },
        {
          "duration": 0.023255813953483084,
          "durationTicks": 2,
          "midi": 59,
          "name": "B3",
          "ticks": 23147,
          "time": 269.1511627906977,
          "velocity": 0.29133858267716534
        },
        {
          "duration": 0.023255813953483084,
          "durationTicks": 2,
          "midi": 51,
          "name": "D#3",
          "ticks": 23148,
          "time": 269.16279069767444,
          "velocity": 0.3543307086614173
        },
        {
          "duration": 0.023255813953483084,
          "durationTicks": 2,
          "midi": 57,
          "name": "A3",
          "ticks": 23149,
          "time": 269.1744186046512,
          "velocity": 0.29133858267716534
        },
        {
          "duration": 0.0813953488371908,
          "durationTicks": 7,
          "midi": 84,
          "name": "C6",
          "ticks": 23149,
          "time": 269.1744186046512,
          "velocity": 0.10236220472440945
        },
        {
          "duration": 0.023255813953483084,
          "durationTicks": 2,
          "midi": 42,
          "name": "F#2",
          "ticks": 23150,
          "time": 269.1860465116279,
          "velocity": 0.36220472440944884
        },
        {
          "duration": 0.023255813953483084,
          "durationTicks": 2,
          "midi": 50,
          "name": "D3",
          "ticks": 23150,
          "time": 269.1860465116279,
          "velocity": 0.2283464566929134
        },
        {
          "duration": 0.034883720930224626,
          "durationTicks": 3,
          "midi": 43,
          "name": "G2",
          "ticks": 23152,
          "time": 269.2093023255814,
          "velocity": 0.41732283464566927
        },
        {
          "duration": 0.023255813953483084,
          "durationTicks": 2,
          "midi": 57,
          "name": "A3",
          "ticks": 23152,
          "time": 269.2093023255814,
          "velocity": 0.28346456692913385
        },
        {
          "duration": 0.06976744186044925,
          "durationTicks": 6,
          "midi": 65,
          "name": "F4",
          "ticks": 23152,
          "time": 269.2093023255814,
          "velocity": 0.29133858267716534
        },
        {
          "duration": 0.05813953488370771,
          "durationTicks": 5,
          "midi": 73,
          "name": "C#5",
          "ticks": 23152,
          "time": 269.2093023255814,
          "velocity": 0.2283464566929134
        },
        {
          "duration": 0.034883720930224626,
          "durationTicks": 3,
          "midi": 93,
          "name": "A6",
          "ticks": 23153,
          "time": 269.22093023255815,
          "velocity": 0.12598425196850394
        },
        {
          "duration": 0.06976744186044925,
          "durationTicks": 6,
          "midi": 71,
          "name": "B4",
          "ticks": 23154,
          "time": 269.2325581395349,
          "velocity": 0.15748031496062992
        },
        {
          "duration": 0.034883720930224626,
          "durationTicks": 3,
          "midi": 75,
          "name": "D#5",
          "ticks": 23154,
          "time": 269.2325581395349,
          "velocity": 0.2204724409448819
        },
        {
          "duration": 0.2906976744185954,
          "durationTicks": 25,
          "midi": 85,
          "name": "C#6",
          "ticks": 23154,
          "time": 269.2325581395349,
          "velocity": 0.25196850393700787
        },
        {
          "duration": 0.2093023255814046,
          "durationTicks": 18,
          "midi": 79,
          "name": "G5",
          "ticks": 23155,
          "time": 269.24418604651163,
          "velocity": 0.14960629921259844
        },
        {
          "duration": 0.023255813953483084,
          "durationTicks": 2,
          "midi": 44,
          "name": "G#2",
          "ticks": 23156,
          "time": 269.25581395348837,
          "velocity": 0.5354330708661418
        },
        {
          "duration": 0.034883720930224626,
          "durationTicks": 3,
          "midi": 52,
          "name": "E3",
          "ticks": 23156,
          "time": 269.25581395348837,
          "velocity": 0.30708661417322836
        },
        {
          "duration": 0.22093023255814614,
          "durationTicks": 19,
          "midi": 57,
          "name": "A3",
          "ticks": 23156,
          "time": 269.25581395348837,
          "velocity": 0.30708661417322836
        },
        {
          "duration": 0.19767441860466306,
          "durationTicks": 17,
          "midi": 61,
          "name": "C#4",
          "ticks": 23157,
          "time": 269.2674418604651,
          "velocity": 0.2440944881889764
        },
        {
          "duration": 0.034883720930224626,
          "durationTicks": 3,
          "midi": 74,
          "name": "D5",
          "ticks": 23157,
          "time": 269.2674418604651,
          "velocity": 0.25984251968503935
        },
        {
          "duration": 0.034883720930224626,
          "durationTicks": 3,
          "midi": 45,
          "name": "A2",
          "ticks": 23158,
          "time": 269.27906976744185,
          "velocity": 0.41732283464566927
        },
        {
          "duration": 0.034883720930224626,
          "durationTicks": 3,
          "midi": 52,
          "name": "E3",
          "ticks": 23160,
          "time": 269.30232558139534,
          "velocity": 0.25984251968503935
        },
        {
          "duration": 0.034883720930224626,
          "durationTicks": 3,
          "midi": 75,
          "name": "D#5",
          "ticks": 23160,
          "time": 269.30232558139534,
          "velocity": 0.2047244094488189
        },
        {
          "duration": 0.1511627906976969,
          "durationTicks": 13,
          "midi": 76,
          "name": "E5",
          "ticks": 23160,
          "time": 269.30232558139534,
          "velocity": 0.13385826771653545
        },
        {
          "duration": 0.04651162790696617,
          "durationTicks": 4,
          "midi": 84,
          "name": "C6",
          "ticks": 23160,
          "time": 269.30232558139534,
          "velocity": 0.07086614173228346
        },
        {
          "duration": 0.08139534883724764,
          "durationTicks": 7,
          "midi": 67,
          "name": "G4",
          "ticks": 23161,
          "time": 269.3139534883721,
          "velocity": 0.14960629921259844
        },
        {
          "duration": 0.1279069767442138,
          "durationTicks": 11,
          "midi": 45,
          "name": "A2",
          "ticks": 23162,
          "time": 269.3255813953488,
          "velocity": 0.4251968503937008
        },
        {
          "duration": 0.10465116279073072,
          "durationTicks": 9,
          "midi": 52,
          "name": "E3",
          "ticks": 23164,
          "time": 269.3488372093023,
          "velocity": 0.25984251968503935
        },
        {
          "duration": 0.09302325581398918,
          "durationTicks": 8,
          "midi": 75,
          "name": "D#5",
          "ticks": 23165,
          "time": 269.36046511627904,
          "velocity": 0.1732283464566929
        },
        {
          "duration": 0.034883720930224626,
          "durationTicks": 3,
          "midi": 65,
          "name": "F4",
          "ticks": 23167,
          "time": 269.3837209302326,
          "velocity": 0.14960629921259844
        },
        {
          "duration": 0.034883720930224626,
          "durationTicks": 3,
          "midi": 71,
          "name": "B4",
          "ticks": 23173,
          "time": 269.45348837209303,
          "velocity": 0.14173228346456693
        },
        {
          "duration": 0.1627906976743816,
          "durationTicks": 14,
          "midi": 77,
          "name": "F5",
          "ticks": 23173,
          "time": 269.45348837209303,
          "velocity": 0.1968503937007874
        },
        {
          "duration": 0.18604651162792152,
          "durationTicks": 16,
          "midi": 83,
          "name": "B5",
          "ticks": 23173,
          "time": 269.45348837209303,
          "velocity": 0.25984251968503935
        },
        {
          "duration": 0.023255813953483084,
          "durationTicks": 2,
          "midi": 42,
          "name": "F#2",
          "ticks": 23175,
          "time": 269.4767441860465,
          "velocity": 0.44881889763779526
        },
        {
          "duration": 0.10465116279067388,
          "durationTicks": 9,
          "midi": 65,
          "name": "F4",
          "ticks": 23175,
          "time": 269.4767441860465,
          "velocity": 0.25196850393700787
        },
        {
          "duration": 0.04651162790696617,
          "durationTicks": 4,
          "midi": 74,
          "name": "D5",
          "ticks": 23175,
          "time": 269.4767441860465,
          "velocity": 0.15748031496062992
        },
        {
          "duration": 0.06976744186044925,
          "durationTicks": 6,
          "midi": 81,
          "name": "A5",
          "ticks": 23175,
          "time": 269.4767441860465,
          "velocity": 0.11023622047244094
        },
        {
          "duration": 0.023255813953483084,
          "durationTicks": 2,
          "midi": 59,
          "name": "B3",
          "ticks": 23176,
          "time": 269.48837209302326,
          "velocity": 0.25196850393700787
        },
        {
          "duration": 0.04651162790696617,
          "durationTicks": 4,
          "midi": 72,
          "name": "C5",
          "ticks": 23176,
          "time": 269.48837209302326,
          "velocity": 0.2047244094488189
        },
        {
          "duration": 0.06976744186044925,
          "durationTicks": 6,
          "midi": 43,
          "name": "G2",
          "ticks": 23177,
          "time": 269.5,
          "velocity": 0.4330708661417323
        },
        {
          "duration": 0.023255813953483084,
          "durationTicks": 2,
          "midi": 58,
          "name": "A#3",
          "ticks": 23178,
          "time": 269.51162790697674,
          "velocity": 0.25196850393700787
        },
        {
          "duration": 0.023255813953483084,
          "durationTicks": 2,
          "midi": 59,
          "name": "B3",
          "ticks": 23180,
          "time": 269.5348837209302,
          "velocity": 0.2283464566929134
        },
        {
          "duration": 0.04651162790696617,
          "durationTicks": 4,
          "midi": 73,
          "name": "C#5",
          "ticks": 23180,
          "time": 269.5348837209302,
          "velocity": 0.1968503937007874
        },
        {
          "duration": 0.023255813953483084,
          "durationTicks": 2,
          "midi": 50,
          "name": "D3",
          "ticks": 23181,
          "time": 269.54651162790697,
          "velocity": 0.29133858267716534
        },
        {
          "duration": 0.023255813953483084,
          "durationTicks": 2,
          "midi": 42,
          "name": "F#2",
          "ticks": 23183,
          "time": 269.56976744186045,
          "velocity": 0.36220472440944884
        },
        {
          "duration": 0.023255813953483084,
          "durationTicks": 2,
          "midi": 55,
          "name": "G3",
          "ticks": 23183,
          "time": 269.56976744186045,
          "velocity": 0.28346456692913385
        },
        {
          "duration": 0.2674418604651123,
          "durationTicks": 23,
          "midi": 85,
          "name": "C#6",
          "ticks": 23184,
          "time": 269.5813953488372,
          "velocity": 0.25196850393700787
        },
        {
          "duration": 0.03488372093028147,
          "durationTicks": 3,
          "midi": 57,
          "name": "A3",
          "ticks": 23185,
          "time": 269.59302325581393,
          "velocity": 0.2992125984251969
        },
        {
          "duration": 0.19767441860466306,
          "durationTicks": 17,
          "midi": 76,
          "name": "E5",
          "ticks": 23185,
          "time": 269.59302325581393,
          "velocity": 0.18110236220472442
        },
        {
          "duration": 0.19767441860466306,
          "durationTicks": 17,
          "midi": 79,
          "name": "G5",
          "ticks": 23185,
          "time": 269.59302325581393,
          "velocity": 0.14173228346456693
        },
        {
          "duration": 0.058139534883764554,
          "durationTicks": 5,
          "midi": 84,
          "name": "C6",
          "ticks": 23185,
          "time": 269.59302325581393,
          "velocity": 0.08661417322834646
        },
        {
          "duration": 0.011627906976741542,
          "durationTicks": 1,
          "midi": 44,
          "name": "G#2",
          "ticks": 23186,
          "time": 269.6046511627907,
          "velocity": 0.5275590551181102
        },
        {
          "duration": 0.19767441860466306,
          "durationTicks": 17,
          "midi": 67,
          "name": "G4",
          "ticks": 23186,
          "time": 269.6046511627907,
          "velocity": 0.1968503937007874
        },
        {
          "duration": 0.04651162790702301,
          "durationTicks": 4,
          "midi": 73,
          "name": "C#5",
          "ticks": 23186,
          "time": 269.6046511627907,
          "velocity": 0.2047244094488189
        },
        {
          "duration": 0.03488372093028147,
          "durationTicks": 3,
          "midi": 74,
          "name": "D5",
          "ticks": 23186,
          "time": 269.6046511627907,
          "velocity": 0.2677165354330709
        },
        {
          "duration": 0.023255813953539928,
          "durationTicks": 2,
          "midi": 45,
          "name": "A2",
          "ticks": 23187,
          "time": 269.6162790697674,
          "velocity": 0.5118110236220472
        },
        {
          "duration": 0.04651162790696617,
          "durationTicks": 4,
          "midi": 52,
          "name": "E3",
          "ticks": 23188,
          "time": 269.6279069767442,
          "velocity": 0.31496062992125984
        },
        {
          "duration": 0.04651162790696617,
          "durationTicks": 4,
          "midi": 61,
          "name": "C#4",
          "ticks": 23189,
          "time": 269.63953488372096,
          "velocity": 0.1968503937007874
        },
        {
          "duration": 0.034883720930224626,
          "durationTicks": 3,
          "midi": 75,
          "name": "D#5",
          "ticks": 23189,
          "time": 269.63953488372096,
          "velocity": 0.2047244094488189
        },
        {
          "duration": 0.1395348837208985,
          "durationTicks": 12,
          "midi": 57,
          "name": "A3",
          "ticks": 23191,
          "time": 269.66279069767444,
          "velocity": 0.2440944881889764
        },
        {
          "duration": 0.15116279069764005,
          "durationTicks": 13,
          "midi": 45,
          "name": "A2",
          "ticks": 23192,
          "time": 269.6744186046512,
          "velocity": 0.5118110236220472
        },
        {
          "duration": 0.04651162790696617,
          "durationTicks": 4,
          "midi": 52,
          "name": "E3",
          "ticks": 23193,
          "time": 269.6860465116279,
          "velocity": 0.2677165354330709
        },
        {
          "duration": 0.04651162790696617,
          "durationTicks": 4,
          "midi": 73,
          "name": "C#5",
          "ticks": 23193,
          "time": 269.6860465116279,
          "velocity": 0.11023622047244094
        },
        {
          "duration": 0.10465116279067388,
          "durationTicks": 9,
          "midi": 61,
          "name": "C#4",
          "ticks": 23194,
          "time": 269.69767441860466,
          "velocity": 0.14960629921259844
        },
        {
          "duration": 0.09302325581393234,
          "durationTicks": 8,
          "midi": 75,
          "name": "D#5",
          "ticks": 23194,
          "time": 269.69767441860466,
          "velocity": 0.1732283464566929
        },
        {
          "duration": 0.05813953488370771,
          "durationTicks": 5,
          "midi": 52,
          "name": "E3",
          "ticks": 23198,
          "time": 269.74418604651163,
          "velocity": 0.2440944881889764
        },
        {
          "duration": 0.023255813953483084,
          "durationTicks": 2,
          "midi": 68,
          "name": "G#4",
          "ticks": 23203,
          "time": 269.80232558139534,
          "velocity": 0.5039370078740157
        },
        {
          "duration": 0.3837209302325846,
          "durationTicks": 33,
          "midi": 72,
          "name": "C5",
          "ticks": 23203,
          "time": 269.80232558139534,
          "velocity": 0.5039370078740157
        },
        {
          "duration": 0.43023255813955075,
          "durationTicks": 37,
          "midi": 79,
          "name": "G5",
          "ticks": 23203,
          "time": 269.80232558139534,
          "velocity": 0.2440944881889764
        },
        {
          "duration": 0.06976744186044925,
          "durationTicks": 6,
          "midi": 83,
          "name": "B5",
          "ticks": 23203,
          "time": 269.80232558139534,
          "velocity": 0.09448818897637795
        },
        {
          "duration": 0.2093023255814046,
          "durationTicks": 18,
          "midi": 86,
          "name": "D6",
          "ticks": 23203,
          "time": 269.80232558139534,
          "velocity": 0.2283464566929134
        },
        {
          "duration": 0.3372093023256184,
          "durationTicks": 29,
          "midi": 55,
          "name": "G3",
          "ticks": 23204,
          "time": 269.8139534883721,
          "velocity": 0.3228346456692913
        },
        {
          "duration": 0.3372093023256184,
          "durationTicks": 29,
          "midi": 60,
          "name": "C4",
          "ticks": 23204,
          "time": 269.8139534883721,
          "velocity": 0.5590551181102362
        },
        {
          "duration": 0.0697674418605061,
          "durationTicks": 6,
          "midi": 82,
          "name": "A#5",
          "ticks": 23204,
          "time": 269.8139534883721,
          "velocity": 0.07874015748031496
        },
        {
          "duration": 0.2906976744185954,
          "durationTicks": 25,
          "midi": 88,
          "name": "E6",
          "ticks": 23204,
          "time": 269.8139534883721,
          "velocity": 0.1889763779527559
        },
        {
          "duration": 0.40697674418606766,
          "durationTicks": 35,
          "midi": 67,
          "name": "G4",
          "ticks": 23205,
          "time": 269.8255813953488,
          "velocity": 0.5275590551181102
        },
        {
          "duration": 0.023255813953483084,
          "durationTicks": 2,
          "midi": 37,
          "name": "C#2",
          "ticks": 23206,
          "time": 269.83720930232556,
          "velocity": 0.4645669291338583
        },
        {
          "duration": 0.3372093023256184,
          "durationTicks": 29,
          "midi": 64,
          "name": "E4",
          "ticks": 23206,
          "time": 269.83720930232556,
          "velocity": 0.2204724409448819
        },
        {
          "duration": 0.034883720930224626,
          "durationTicks": 3,
          "midi": 70,
          "name": "A#4",
          "ticks": 23206,
          "time": 269.83720930232556,
          "velocity": 0.11023622047244094
        },
        {
          "duration": 0.0697674418605061,
          "durationTicks": 6,
          "midi": 94,
          "name": "A#6",
          "ticks": 23206,
          "time": 269.83720930232556,
          "velocity": 0.08661417322834646
        },
        {
          "duration": 0.11627906976747227,
          "durationTicks": 10,
          "midi": 36,
          "name": "C2",
          "ticks": 23208,
          "time": 269.86046511627904,
          "velocity": 0.4251968503937008
        },
        {
          "duration": 0.034883720930224626,
          "durationTicks": 3,
          "midi": 70,
          "name": "A#4",
          "ticks": 23210,
          "time": 269.8837209302326,
          "velocity": 0.09448818897637795
        },
        {
          "duration": 0.034883720930224626,
          "durationTicks": 3,
          "midi": 74,
          "name": "D5",
          "ticks": 23211,
          "time": 269.8953488372093,
          "velocity": 0.10236220472440945
        },
        {
          "duration": 0.2093023255814046,
          "durationTicks": 18,
          "midi": 70,
          "name": "A#4",
          "ticks": 23215,
          "time": 269.9418604651163,
          "velocity": 0.07874015748031496
        },
        {
          "duration": 0.023255813953483084,
          "durationTicks": 2,
          "midi": 35,
          "name": "B1",
          "ticks": 23218,
          "time": 269.9767441860465,
          "velocity": 0.25196850393700787
        },
        {
          "duration": 0.16279069767443843,
          "durationTicks": 14,
          "midi": 36,
          "name": "C2",
          "ticks": 23220,
          "time": 270,
          "velocity": 0.33858267716535434
        },
        {
          "duration": 0.04651162790696617,
          "durationTicks": 4,
          "midi": 88,
          "name": "E6",
          "ticks": 23232,
          "time": 270.13953488372096,
          "velocity": 0.14173228346456693
        },
        {
          "duration": 0.33720930232556157,
          "durationTicks": 29,
          "midi": 69,
          "name": "A4",
          "ticks": 23233,
          "time": 270.1511627906977,
          "velocity": 0.4409448818897638
        },
        {
          "duration": 0.04651162790696617,
          "durationTicks": 4,
          "midi": 77,
          "name": "F5",
          "ticks": 23233,
          "time": 270.1511627906977,
          "velocity": 0.1889763779527559
        },
        {
          "duration": 0.3139534883720785,
          "durationTicks": 27,
          "midi": 57,
          "name": "A3",
          "ticks": 23234,
          "time": 270.16279069767444,
          "velocity": 0.4409448818897638
        },
        {
          "duration": 0.06976744186044925,
          "durationTicks": 6,
          "midi": 75,
          "name": "D#5",
          "ticks": 23234,
          "time": 270.16279069767444,
          "velocity": 0.2204724409448819
        },
        {
          "duration": 0.10465116279067388,
          "durationTicks": 9,
          "midi": 83,
          "name": "B5",
          "ticks": 23234,
          "time": 270.16279069767444,
          "velocity": 0.11811023622047244
        },
        {
          "duration": 0.3953488372092693,
          "durationTicks": 34,
          "midi": 85,
          "name": "C#6",
          "ticks": 23234,
          "time": 270.16279069767444,
          "velocity": 0.2992125984251969
        },
        {
          "duration": 0.09302325581393234,
          "durationTicks": 8,
          "midi": 95,
          "name": "B6",
          "ticks": 23234,
          "time": 270.16279069767444,
          "velocity": 0.14960629921259844
        },
        {
          "duration": 0.023255813953483084,
          "durationTicks": 2,
          "midi": 52,
          "name": "E3",
          "ticks": 23236,
          "time": 270.1860465116279,
          "velocity": 0.31496062992125984
        },
        {
          "duration": 0.30232558139533694,
          "durationTicks": 26,
          "midi": 61,
          "name": "C#4",
          "ticks": 23236,
          "time": 270.1860465116279,
          "velocity": 0.2283464566929134
        },
        {
          "duration": 0.30232558139533694,
          "durationTicks": 26,
          "midi": 76,
          "name": "E5",
          "ticks": 23238,
          "time": 270.2093023255814,
          "velocity": 0.14960629921259844
        },
        {
          "duration": 0.04651162790696617,
          "durationTicks": 4,
          "midi": 52,
          "name": "E3",
          "ticks": 23239,
          "time": 270.22093023255815,
          "velocity": 0.28346456692913385
        },
        {
          "duration": 0.25581395348837077,
          "durationTicks": 22,
          "midi": 45,
          "name": "A2",
          "ticks": 23240,
          "time": 270.2325581395349,
          "velocity": 0.4094488188976378
        },
        {
          "duration": 0.06976744186044925,
          "durationTicks": 6,
          "midi": 79,
          "name": "G5",
          "ticks": 23241,
          "time": 270.24418604651163,
          "velocity": 0.14960629921259844
        },
        {
          "duration": 0.2325581395348877,
          "durationTicks": 20,
          "midi": 75,
          "name": "D#5",
          "ticks": 23242,
          "time": 270.25581395348837,
          "velocity": 0.16535433070866143
        },
        {
          "duration": 0.10465116279067388,
          "durationTicks": 9,
          "midi": 67,
          "name": "G4",
          "ticks": 23243,
          "time": 270.2674418604651,
          "velocity": 0.2283464566929134
        },
        {
          "duration": 0.034883720930224626,
          "durationTicks": 3,
          "midi": 95,
          "name": "B6",
          "ticks": 23243,
          "time": 270.2674418604651,
          "velocity": 0.11023622047244094
        },
        {
          "duration": 0.2093023255814046,
          "durationTicks": 18,
          "midi": 52,
          "name": "E3",
          "ticks": 23244,
          "time": 270.27906976744185,
          "velocity": 0.23622047244094488
        },
        {
          "duration": 0.3139534883720785,
          "durationTicks": 27,
          "midi": 67,
          "name": "G4",
          "ticks": 23255,
          "time": 270.40697674418607,
          "velocity": 0.16535433070866143
        },
        {
          "duration": 0.36046511627904465,
          "durationTicks": 31,
          "midi": 72,
          "name": "C5",
          "ticks": 23261,
          "time": 270.4767441860465,
          "velocity": 0.5118110236220472
        },
        {
          "duration": 0.24418604651162923,
          "durationTicks": 21,
          "midi": 79,
          "name": "G5",
          "ticks": 23262,
          "time": 270.48837209302326,
          "velocity": 0.25984251968503935
        },
        {
          "duration": 0.023255813953483084,
          "durationTicks": 2,
          "midi": 47,
          "name": "B2",
          "ticks": 23263,
          "time": 270.5,
          "velocity": 0.4566929133858268
        },
        {
          "duration": 0.36046511627904465,
          "durationTicks": 31,
          "midi": 60,
          "name": "C4",
          "ticks": 23263,
          "time": 270.5,
          "velocity": 0.5511811023622047
        },
        {
          "duration": 0.034883720930224626,
          "durationTicks": 3,
          "midi": 74,
          "name": "D5",
          "ticks": 23263,
          "time": 270.5,
          "velocity": 0.2047244094488189
        },
        {
          "duration": 0.06976744186044925,
          "durationTicks": 6,
          "midi": 88,
          "name": "E6",
          "ticks": 23263,
          "time": 270.5,
          "velocity": 0.2047244094488189
        },
        {
          "duration": 0.3139534883720785,
          "durationTicks": 27,
          "midi": 55,
          "name": "G3",
          "ticks": 23264,
          "time": 270.51162790697674,
          "velocity": 0.3228346456692913
        },
        {
          "duration": 0.04651162790696617,
          "durationTicks": 4,
          "midi": 37,
          "name": "C#2",
          "ticks": 23265,
          "time": 270.5232558139535,
          "velocity": 0.44881889763779526
        },
        {
          "duration": 0.023255813953483084,
          "durationTicks": 2,
          "midi": 48,
          "name": "C3",
          "ticks": 23265,
          "time": 270.5232558139535,
          "velocity": 0.4409448818897638
        },
        {
          "duration": 0.04651162790696617,
          "durationTicks": 4,
          "midi": 82,
          "name": "A#5",
          "ticks": 23265,
          "time": 270.5232558139535,
          "velocity": 0.07086614173228346
        },
        {
          "duration": 0.06976744186044925,
          "durationTicks": 6,
          "midi": 94,
          "name": "A#6",
          "ticks": 23265,
          "time": 270.5232558139535,
          "velocity": 0.07086614173228346
        },
        {
          "duration": 0.19767441860466306,
          "durationTicks": 17,
          "midi": 64,
          "name": "E4",
          "ticks": 23266,
          "time": 270.5348837209302,
          "velocity": 0.3937007874015748
        },
        {
          "duration": 0.05813953488370771,
          "durationTicks": 5,
          "midi": 78,
          "name": "F#5",
          "ticks": 23266,
          "time": 270.5348837209302,
          "velocity": 0.11023622047244094
        },
        {
          "duration": 0.2906976744185954,
          "durationTicks": 25,
          "midi": 48,
          "name": "C3",
          "ticks": 23268,
          "time": 270.5581395348837,
          "velocity": 0.4094488188976378
        },
        {
          "duration": 0.10465116279073072,
          "durationTicks": 9,
          "midi": 74,
          "name": "D5",
          "ticks": 23268,
          "time": 270.5581395348837,
          "velocity": 0.11023622047244094
        },
        {
          "duration": 0.09302325581398918,
          "durationTicks": 8,
          "midi": 36,
          "name": "C2",
          "ticks": 23269,
          "time": 270.56976744186045,
          "velocity": 0.4251968503937008
        },
        {
          "duration": 0.034883720930224626,
          "durationTicks": 3,
          "midi": 70,
          "name": "A#4",
          "ticks": 23269,
          "time": 270.56976744186045,
          "velocity": 0.12598425196850394
        },
        {
          "duration": 0.1279069767442138,
          "durationTicks": 11,
          "midi": 88,
          "name": "E6",
          "ticks": 23271,
          "time": 270.59302325581393,
          "velocity": 0.14173228346456693
        },
        {
          "duration": 0.09302325581393234,
          "durationTicks": 8,
          "midi": 70,
          "name": "A#4",
          "ticks": 23274,
          "time": 270.6279069767442,
          "velocity": 0.08661417322834646
        },
        {
          "duration": 0.023255813953483084,
          "durationTicks": 2,
          "midi": 35,
          "name": "B1",
          "ticks": 23277,
          "time": 270.66279069767444,
          "velocity": 0.25984251968503935
        },
        {
          "duration": 0.04651162790696617,
          "durationTicks": 4,
          "midi": 36,
          "name": "C2",
          "ticks": 23279,
          "time": 270.6860465116279,
          "velocity": 0.28346456692913385
        },
        {
          "duration": 0.034883720930224626,
          "durationTicks": 3,
          "midi": 74,
          "name": "D5",
          "ticks": 23282,
          "time": 270.72093023255815,
          "velocity": 0.13385826771653545
        },
        {
          "duration": 0.5116279069767415,
          "durationTicks": 44,
          "midi": 77,
          "name": "F5",
          "ticks": 23282,
          "time": 270.72093023255815,
          "velocity": 0.4881889763779528
        },
        {
          "duration": 0.33720930232556157,
          "durationTicks": 29,
          "midi": 93,
          "name": "A6",
          "ticks": 23282,
          "time": 270.72093023255815,
          "velocity": 0.13385826771653545
        },
        {
          "duration": 0.6046511627906739,
          "durationTicks": 52,
          "midi": 65,
          "name": "F4",
          "ticks": 23283,
          "time": 270.7325581395349,
          "velocity": 0.5039370078740157
        },
        {
          "duration": 0.10465116279067388,
          "durationTicks": 9,
          "midi": 101,
          "name": "F7",
          "ticks": 23283,
          "time": 270.7325581395349,
          "velocity": 0.10236220472440945
        },
        {
          "duration": 0.04651162790696617,
          "durationTicks": 4,
          "midi": 36,
          "name": "C2",
          "ticks": 23286,
          "time": 270.7674418604651,
          "velocity": 0.2204724409448819
        },
        {
          "duration": 0.33720930232556157,
          "durationTicks": 29,
          "midi": 64,
          "name": "E4",
          "ticks": 23361,
          "time": 271.63953488372096,
          "velocity": 0.5118110236220472
        },
        {
          "duration": 0.36046511627904465,
          "durationTicks": 31,
          "midi": 83,
          "name": "B5",
          "ticks": 23361,
          "time": 271.63953488372096,
          "velocity": 0.2440944881889764
        },
        {
          "duration": 0.36046511627904465,
          "durationTicks": 31,
          "midi": 92,
          "name": "G#6",
          "ticks": 23361,
          "time": 271.63953488372096,
          "velocity": 0.15748031496062992
        },
        {
          "duration": 0.06976744186044925,
          "durationTicks": 6,
          "midi": 98,
          "name": "D7",
          "ticks": 23362,
          "time": 271.6511627906977,
          "velocity": 0.08661417322834646
        },
        {
          "duration": 0.11627906976741542,
          "durationTicks": 10,
          "midi": 100,
          "name": "E7",
          "ticks": 23362,
          "time": 271.6511627906977,
          "velocity": 0.11023622047244094
        },
        {
          "duration": 0.3488372093023031,
          "durationTicks": 30,
          "midi": 74,
          "name": "D5",
          "ticks": 23390,
          "time": 271.9767441860465,
          "velocity": 0.5039370078740157
        },
        {
          "duration": 0.38372093023252773,
          "durationTicks": 33,
          "midi": 81,
          "name": "A5",
          "ticks": 23390,
          "time": 271.9767441860465,
          "velocity": 0.23622047244094488
        },
        {
          "duration": 0.36046511627904465,
          "durationTicks": 31,
          "midi": 90,
          "name": "F#6",
          "ticks": 23390,
          "time": 271.9767441860465,
          "velocity": 0.15748031496062992
        },
        {
          "duration": 0.034883720930224626,
          "durationTicks": 3,
          "midi": 69,
          "name": "A4",
          "ticks": 23391,
          "time": 271.98837209302326,
          "velocity": 0.11811023622047244
        },
        {
          "duration": 0.0813953488371908,
          "durationTicks": 7,
          "midi": 96,
          "name": "C7",
          "ticks": 23391,
          "time": 271.98837209302326,
          "velocity": 0.08661417322834646
        },
        {
          "duration": 0.12790697674415696,
          "durationTicks": 11,
          "midi": 98,
          "name": "D7",
          "ticks": 23391,
          "time": 271.98837209302326,
          "velocity": 0.09448818897637795
        },
        {
          "duration": 0.32558139534882,
          "durationTicks": 28,
          "midi": 62,
          "name": "D4",
          "ticks": 23392,
          "time": 272,
          "velocity": 0.5118110236220472
        },
        {
          "duration": 0.05813953488370771,
          "durationTicks": 5,
          "midi": 76,
          "name": "E5",
          "ticks": 23392,
          "time": 272,
          "velocity": 0.14173228346456693
        },
        {
          "duration": 0.24418604651162923,
          "durationTicks": 21,
          "midi": 60,
          "name": "C4",
          "ticks": 23420,
          "time": 272.3255813953488,
          "velocity": 0.5196850393700787
        },
        {
          "duration": 0.24418604651162923,
          "durationTicks": 21,
          "midi": 79,
          "name": "G5",
          "ticks": 23420,
          "time": 272.3255813953488,
          "velocity": 0.2283464566929134
        },
        {
          "duration": 0.2325581395348877,
          "durationTicks": 20,
          "midi": 88,
          "name": "E6",
          "ticks": 23420,
          "time": 272.3255813953488,
          "velocity": 0.1732283464566929
        },
        {
          "duration": 0.034883720930224626,
          "durationTicks": 3,
          "midi": 67,
          "name": "G4",
          "ticks": 23421,
          "time": 272.33720930232556,
          "velocity": 0.12598425196850394
        },
        {
          "duration": 0.09302325581398918,
          "durationTicks": 8,
          "midi": 94,
          "name": "A#6",
          "ticks": 23421,
          "time": 272.33720930232556,
          "velocity": 0.07874015748031496
        },
        {
          "duration": 0.13953488372095535,
          "durationTicks": 12,
          "midi": 96,
          "name": "C7",
          "ticks": 23421,
          "time": 272.33720930232556,
          "velocity": 0.10236220472440945
        },
        {
          "duration": 0.03488372093028147,
          "durationTicks": 3,
          "midi": 74,
          "name": "D5",
          "ticks": 23423,
          "time": 272.36046511627904,
          "velocity": 0.11811023622047244
        },
        {
          "duration": 0.27906976744185386,
          "durationTicks": 24,
          "midi": 86,
          "name": "D6",
          "ticks": 23439,
          "time": 272.54651162790697,
          "velocity": 0.5039370078740157
        },
        {
          "duration": 0.034883720930224626,
          "durationTicks": 3,
          "midi": 57,
          "name": "A3",
          "ticks": 23440,
          "time": 272.5581395348837,
          "velocity": 0.3228346456692913
        },
        {
          "duration": 0.11627906976747227,
          "durationTicks": 10,
          "midi": 85,
          "name": "C#6",
          "ticks": 23440,
          "time": 272.5581395348837,
          "velocity": 0.3543307086614173
        },
        {
          "duration": 0.7558139534883708,
          "durationTicks": 65,
          "midi": 66,
          "name": "F#4",
          "ticks": 23441,
          "time": 272.56976744186045,
          "velocity": 0.18110236220472442
        },
        {
          "duration": 0.034883720930224626,
          "durationTicks": 3,
          "midi": 82,
          "name": "A#5",
          "ticks": 23441,
          "time": 272.56976744186045,
          "velocity": 0.2125984251968504
        },
        {
          "duration": 0.8953488372093261,
          "durationTicks": 77,
          "midi": 50,
          "name": "D3",
          "ticks": 23442,
          "time": 272.5813953488372,
          "velocity": 0.44881889763779526
        },
        {
          "duration": 0.0697674418605061,
          "durationTicks": 6,
          "midi": 93,
          "name": "A6",
          "ticks": 23442,
          "time": 272.5813953488372,
          "velocity": 0.12598425196850394
        },
        {
          "duration": 0.03488372093028147,
          "durationTicks": 3,
          "midi": 39,
          "name": "D#2",
          "ticks": 23443,
          "time": 272.59302325581393,
          "velocity": 0.4330708661417323
        },
        {
          "duration": 0.8139534883721353,
          "durationTicks": 70,
          "midi": 57,
          "name": "A3",
          "ticks": 23444,
          "time": 272.6046511627907,
          "velocity": 0.33070866141732286
        },
        {
          "duration": 0.03488372093028147,
          "durationTicks": 3,
          "midi": 80,
          "name": "G#5",
          "ticks": 23445,
          "time": 272.6162790697674,
          "velocity": 0.09448818897637795
        },
        {
          "duration": 0.09302325581393234,
          "durationTicks": 8,
          "midi": 76,
          "name": "E5",
          "ticks": 23446,
          "time": 272.6279069767442,
          "velocity": 0.07086614173228346
        },
        {
          "duration": 0.06976744186044925,
          "durationTicks": 6,
          "midi": 38,
          "name": "D2",
          "ticks": 23448,
          "time": 272.6511627906977,
          "velocity": 0.3779527559055118
        },
        {
          "duration": 0.06976744186044925,
          "durationTicks": 6,
          "midi": 72,
          "name": "C5",
          "ticks": 23452,
          "time": 272.69767441860466,
          "velocity": 0.12598425196850394
        },
        {
          "duration": 0.023255813953483084,
          "durationTicks": 2,
          "midi": 37,
          "name": "C#2",
          "ticks": 23454,
          "time": 272.72093023255815,
          "velocity": 0.25984251968503935
        },
        {
          "duration": 0.05813953488370771,
          "durationTicks": 5,
          "midi": 38,
          "name": "D2",
          "ticks": 23456,
          "time": 272.74418604651163,
          "velocity": 0.28346456692913385
        },
        {
          "duration": 0.04651162790696617,
          "durationTicks": 4,
          "midi": 88,
          "name": "E6",
          "ticks": 23458,
          "time": 272.7674418604651,
          "velocity": 0.29133858267716534
        },
        {
          "duration": 0.33720930232556157,
          "durationTicks": 29,
          "midi": 89,
          "name": "F6",
          "ticks": 23458,
          "time": 272.7674418604651,
          "velocity": 0.49606299212598426
        },
        {
          "duration": 0.034883720930224626,
          "durationTicks": 3,
          "midi": 76,
          "name": "E5",
          "ticks": 23459,
          "time": 272.77906976744185,
          "velocity": 0.14960629921259844
        },
        {
          "duration": 0.22093023255814614,
          "durationTicks": 19,
          "midi": 72,
          "name": "C5",
          "ticks": 23461,
          "time": 272.80232558139534,
          "velocity": 0.08661417322834646
        },
        {
          "duration": 0.03488372093028147,
          "durationTicks": 3,
          "midi": 38,
          "name": "D2",
          "ticks": 23465,
          "time": 272.8488372093023,
          "velocity": 0.2677165354330709
        },
        {
          "duration": 0.11627906976741542,
          "durationTicks": 10,
          "midi": 38,
          "name": "D2",
          "ticks": 23472,
          "time": 272.93023255813955,
          "velocity": 0.25196850393700787
        },
        {
          "duration": 0.034883720930224626,
          "durationTicks": 3,
          "midi": 90,
          "name": "F#6",
          "ticks": 23478,
          "time": 273,
          "velocity": 0.12598425196850394
        },
        {
          "duration": 0.30232558139533694,
          "durationTicks": 26,
          "midi": 91,
          "name": "G6",
          "ticks": 23478,
          "time": 273,
          "velocity": 0.6220472440944882
        },
        {
          "duration": 0.2093023255814046,
          "durationTicks": 18,
          "midi": 38,
          "name": "D2",
          "ticks": 23483,
          "time": 273.0581395348837,
          "velocity": 0.2125984251968504
        },
        {
          "duration": 0.22093023255814614,
          "durationTicks": 19,
          "midi": 98,
          "name": "D7",
          "ticks": 23499,
          "time": 273.24418604651163,
          "velocity": 0.4881889763779528
        },
        {
          "duration": 0.04651162790696617,
          "durationTicks": 4,
          "midi": 38,
          "name": "D2",
          "ticks": 23502,
          "time": 273.27906976744185,
          "velocity": 0.2283464566929134
        },
        {
          "duration": 0.2093023255814046,
          "durationTicks": 18,
          "midi": 38,
          "name": "D2",
          "ticks": 23507,
          "time": 273.33720930232556,
          "velocity": 0.1968503937007874
        },
        {
          "duration": 0.1395348837208985,
          "durationTicks": 12,
          "midi": 91,
          "name": "G6",
          "ticks": 23512,
          "time": 273.3953488372093,
          "velocity": 0.10236220472440945
        },
        {
          "duration": 0.2325581395348877,
          "durationTicks": 20,
          "midi": 89,
          "name": "F6",
          "ticks": 23538,
          "time": 273.69767441860466,
          "velocity": 0.49606299212598426
        },
        {
          "duration": 0.034883720930224626,
          "durationTicks": 3,
          "midi": 88,
          "name": "E6",
          "ticks": 23539,
          "time": 273.7093023255814,
          "velocity": 0.2755905511811024
        },
        {
          "duration": 0.034883720930224626,
          "durationTicks": 3,
          "midi": 44,
          "name": "G#2",
          "ticks": 23540,
          "time": 273.72093023255815,
          "velocity": 0.15748031496062992
        },
        {
          "duration": 0.25581395348837077,
          "durationTicks": 22,
          "midi": 88,
          "name": "E6",
          "ticks": 23557,
          "time": 273.9186046511628,
          "velocity": 0.48031496062992124
        },
        {
          "duration": 0.034883720930224626,
          "durationTicks": 3,
          "midi": 87,
          "name": "D#6",
          "ticks": 23558,
          "time": 273.93023255813955,
          "velocity": 0.29133858267716534
        },
        {
          "duration": 0.06976744186044925,
          "durationTicks": 6,
          "midi": 89,
          "name": "F6",
          "ticks": 23559,
          "time": 273.9418604651163,
          "velocity": 0.2440944881889764
        },
        {
          "duration": 0.034883720930224626,
          "durationTicks": 3,
          "midi": 42,
          "name": "F#2",
          "ticks": 23560,
          "time": 273.95348837209303,
          "velocity": 0.15748031496062992
        },
        {
          "duration": 0.30232558139533694,
          "durationTicks": 26,
          "midi": 84,
          "name": "C6",
          "ticks": 23577,
          "time": 274.1511627906977,
          "velocity": 0.49606299212598426
        },
        {
          "duration": 0.2790697674419107,
          "durationTicks": 24,
          "midi": 86,
          "name": "D6",
          "ticks": 23596,
          "time": 274.3720930232558,
          "velocity": 0.49606299212598426
        },
        {
          "duration": 0.04651162790696617,
          "durationTicks": 4,
          "midi": 85,
          "name": "C#6",
          "ticks": 23597,
          "time": 274.3837209302326,
          "velocity": 0.3228346456692913
        },
        {
          "duration": 0.04651162790696617,
          "durationTicks": 4,
          "midi": 41,
          "name": "F2",
          "ticks": 23598,
          "time": 274.3953488372093,
          "velocity": 0.16535433070866143
        },
        {
          "duration": 0.3139534883721353,
          "durationTicks": 27,
          "midi": 89,
          "name": "F6",
          "ticks": 23617,
          "time": 274.6162790697674,
          "velocity": 0.49606299212598426
        },
        {
          "duration": 0.034883720930224626,
          "durationTicks": 3,
          "midi": 88,
          "name": "E6",
          "ticks": 23618,
          "time": 274.6279069767442,
          "velocity": 0.2755905511811024
        },
        {
          "duration": 0.034883720930224626,
          "durationTicks": 3,
          "midi": 44,
          "name": "G#2",
          "ticks": 23619,
          "time": 274.63953488372096,
          "velocity": 0.15748031496062992
        },
        {
          "duration": 0.3139534883721353,
          "durationTicks": 27,
          "midi": 91,
          "name": "G6",
          "ticks": 23637,
          "time": 274.8488372093023,
          "velocity": 0.6220472440944882
        },
        {
          "duration": 0.22093023255814614,
          "durationTicks": 19,
          "midi": 98,
          "name": "D7",
          "ticks": 23657,
          "time": 275.0813953488372,
          "velocity": 0.4881889763779528
        },
        {
          "duration": 0.1279069767442138,
          "durationTicks": 11,
          "midi": 91,
          "name": "G6",
          "ticks": 23672,
          "time": 275.25581395348837,
          "velocity": 0.07874015748031496
        },
        {
          "duration": 0.25581395348837077,
          "durationTicks": 22,
          "midi": 89,
          "name": "F6",
          "ticks": 23694,
          "time": 275.51162790697674,
          "velocity": 0.49606299212598426
        },
        {
          "duration": 0.034883720930224626,
          "durationTicks": 3,
          "midi": 88,
          "name": "E6",
          "ticks": 23695,
          "time": 275.5232558139535,
          "velocity": 0.2755905511811024
        },
        {
          "duration": 0.034883720930224626,
          "durationTicks": 3,
          "midi": 44,
          "name": "G#2",
          "ticks": 23696,
          "time": 275.5348837209302,
          "velocity": 0.15748031496062992
        },
        {
          "duration": 0.3139534883720785,
          "durationTicks": 27,
          "midi": 88,
          "name": "E6",
          "ticks": 23715,
          "time": 275.75581395348837,
          "velocity": 0.48031496062992124
        },
        {
          "duration": 0.034883720930224626,
          "durationTicks": 3,
          "midi": 76,
          "name": "E5",
          "ticks": 23716,
          "time": 275.7674418604651,
          "velocity": 0.13385826771653545
        },
        {
          "duration": 0.034883720930224626,
          "durationTicks": 3,
          "midi": 87,
          "name": "D#6",
          "ticks": 23716,
          "time": 275.7674418604651,
          "velocity": 0.29133858267716534
        },
        {
          "duration": 0.034883720930224626,
          "durationTicks": 3,
          "midi": 42,
          "name": "F#2",
          "ticks": 23718,
          "time": 275.7906976744186,
          "velocity": 0.14960629921259844
        },
        {
          "duration": 0.04651162790696617,
          "durationTicks": 4,
          "midi": 89,
          "name": "F6",
          "ticks": 23719,
          "time": 275.80232558139534,
          "velocity": 0.09448818897637795
        },
        {
          "duration": 0.2674418604651123,
          "durationTicks": 23,
          "midi": 84,
          "name": "C6",
          "ticks": 23734,
          "time": 275.9767441860465,
          "velocity": 0.49606299212598426
        },
        {
          "duration": 0.27906976744185386,
          "durationTicks": 24,
          "midi": 86,
          "name": "D6",
          "ticks": 23755,
          "time": 276.22093023255815,
          "velocity": 0.49606299212598426
        },
        {
          "duration": 0.034883720930224626,
          "durationTicks": 3,
          "midi": 82,
          "name": "A#5",
          "ticks": 23756,
          "time": 276.2325581395349,
          "velocity": 0.14960629921259844
        },
        {
          "duration": 0.023255813953483084,
          "durationTicks": 2,
          "midi": 85,
          "name": "C#6",
          "ticks": 23756,
          "time": 276.2325581395349,
          "velocity": 0.3228346456692913
        },
        {
          "duration": 0.3139534883720785,
          "durationTicks": 27,
          "midi": 89,
          "name": "F6",
          "ticks": 23774,
          "time": 276.4418604651163,
          "velocity": 0.49606299212598426
        },
        {
          "duration": 0.034883720930224626,
          "durationTicks": 3,
          "midi": 88,
          "name": "E6",
          "ticks": 23775,
          "time": 276.45348837209303,
          "velocity": 0.2755905511811024
        },
        {
          "duration": 0.034883720930224626,
          "durationTicks": 3,
          "midi": 44,
          "name": "G#2",
          "ticks": 23776,
          "time": 276.4651162790698,
          "velocity": 0.15748031496062992
        },
        {
          "duration": 0.034883720930224626,
          "durationTicks": 3,
          "midi": 28,
          "name": "E1",
          "ticks": 23777,
          "time": 276.4767441860465,
          "velocity": 0.11811023622047244
        },
        {
          "duration": 0.3139534883720785,
          "durationTicks": 27,
          "midi": 91,
          "name": "G6",
          "ticks": 23794,
          "time": 276.6744186046512,
          "velocity": 0.6220472440944882
        },
        {
          "duration": 0.22093023255814614,
          "durationTicks": 19,
          "midi": 98,
          "name": "D7",
          "ticks": 23814,
          "time": 276.90697674418607,
          "velocity": 0.4881889763779528
        },
        {
          "duration": 0.1279069767442138,
          "durationTicks": 11,
          "midi": 91,
          "name": "G6",
          "ticks": 23829,
          "time": 277.0813953488372,
          "velocity": 0.08661417322834646
        },
        {
          "duration": 0.2325581395348877,
          "durationTicks": 20,
          "midi": 89,
          "name": "F6",
          "ticks": 23854,
          "time": 277.3720930232558,
          "velocity": 0.49606299212598426
        },
        {
          "duration": 0.034883720930224626,
          "durationTicks": 3,
          "midi": 88,
          "name": "E6",
          "ticks": 23855,
          "time": 277.3837209302326,
          "velocity": 0.2755905511811024
        },
        {
          "duration": 0.034883720930224626,
          "durationTicks": 3,
          "midi": 44,
          "name": "G#2",
          "ticks": 23856,
          "time": 277.3953488372093,
          "velocity": 0.15748031496062992
        },
        {
          "duration": 0.3139534883721353,
          "durationTicks": 27,
          "midi": 88,
          "name": "E6",
          "ticks": 23873,
          "time": 277.59302325581393,
          "velocity": 0.48031496062992124
        },
        {
          "duration": 0.03488372093028147,
          "durationTicks": 3,
          "midi": 76,
          "name": "E5",
          "ticks": 23874,
          "time": 277.6046511627907,
          "velocity": 0.13385826771653545
        },
        {
          "duration": 0.03488372093028147,
          "durationTicks": 3,
          "midi": 87,
          "name": "D#6",
          "ticks": 23874,
          "time": 277.6046511627907,
          "velocity": 0.29133858267716534
        },
        {
          "duration": 0.0697674418605061,
          "durationTicks": 6,
          "midi": 89,
          "name": "F6",
          "ticks": 23875,
          "time": 277.6162790697674,
          "velocity": 0.2440944881889764
        },
        {
          "duration": 0.034883720930224626,
          "durationTicks": 3,
          "midi": 42,
          "name": "F#2",
          "ticks": 23876,
          "time": 277.6279069767442,
          "velocity": 0.15748031496062992
        },
        {
          "duration": 0.30232558139533694,
          "durationTicks": 26,
          "midi": 84,
          "name": "C6",
          "ticks": 23892,
          "time": 277.8139534883721,
          "velocity": 0.49606299212598426
        },
        {
          "duration": 0.25581395348837077,
          "durationTicks": 22,
          "midi": 86,
          "name": "D6",
          "ticks": 23912,
          "time": 278.04651162790697,
          "velocity": 0.49606299212598426
        },
        {
          "duration": 0.023255813953483084,
          "durationTicks": 2,
          "midi": 85,
          "name": "C#6",
          "ticks": 23913,
          "time": 278.0581395348837,
          "velocity": 0.3228346456692913
        },
        {
          "duration": 0.034883720930224626,
          "durationTicks": 3,
          "midi": 41,
          "name": "F2",
          "ticks": 23914,
          "time": 278.06976744186045,
          "velocity": 0.16535433070866143
        },
        {
          "duration": 0.32558139534882,
          "durationTicks": 28,
          "midi": 89,
          "name": "F6",
          "ticks": 23932,
          "time": 278.27906976744185,
          "velocity": 0.49606299212598426
        },
        {
          "duration": 0.034883720930224626,
          "durationTicks": 3,
          "midi": 88,
          "name": "E6",
          "ticks": 23933,
          "time": 278.2906976744186,
          "velocity": 0.2755905511811024
        },
        {
          "duration": 0.3139534883720785,
          "durationTicks": 27,
          "midi": 91,
          "name": "G6",
          "ticks": 23953,
          "time": 278.5232558139535,
          "velocity": 0.6220472440944882
        },
        {
          "duration": 0.22093023255814614,
          "durationTicks": 19,
          "midi": 98,
          "name": "D7",
          "ticks": 23972,
          "time": 278.74418604651163,
          "velocity": 0.4881889763779528
        },
        {
          "duration": 0.11627906976741542,
          "durationTicks": 10,
          "midi": 91,
          "name": "G6",
          "ticks": 23988,
          "time": 278.93023255813955,
          "velocity": 0.07874015748031496
        },
        {
          "duration": 0.034883720930224626,
          "durationTicks": 3,
          "midi": 88,
          "name": "E6",
          "ticks": 24011,
          "time": 279.19767441860466,
          "velocity": 0.2755905511811024
        },
        {
          "duration": 0.24418604651162923,
          "durationTicks": 21,
          "midi": 89,
          "name": "F6",
          "ticks": 24011,
          "time": 279.19767441860466,
          "velocity": 0.49606299212598426
        },
        {
          "duration": 0.034883720930224626,
          "durationTicks": 3,
          "midi": 44,
          "name": "G#2",
          "ticks": 24012,
          "time": 279.2093023255814,
          "velocity": 0.15748031496062992
        },
        {
          "duration": 0.3139534883720785,
          "durationTicks": 27,
          "midi": 88,
          "name": "E6",
          "ticks": 24031,
          "time": 279.43023255813955,
          "velocity": 0.48031496062992124
        },
        {
          "duration": 0.034883720930224626,
          "durationTicks": 3,
          "midi": 87,
          "name": "D#6",
          "ticks": 24032,
          "time": 279.4418604651163,
          "velocity": 0.29133858267716534
        },
        {
          "duration": 0.034883720930224626,
          "durationTicks": 3,
          "midi": 42,
          "name": "F#2",
          "ticks": 24034,
          "time": 279.4651162790698,
          "velocity": 0.14960629921259844
        },
        {
          "duration": 0.04651162790696617,
          "durationTicks": 4,
          "midi": 89,
          "name": "F6",
          "ticks": 24035,
          "time": 279.4767441860465,
          "velocity": 0.09448818897637795
        },
        {
          "duration": 0.24418604651162923,
          "durationTicks": 21,
          "midi": 84,
          "name": "C6",
          "ticks": 24051,
          "time": 279.66279069767444,
          "velocity": 0.49606299212598426
        },
        {
          "duration": 0.5116279069767415,
          "durationTicks": 44,
          "midi": 86,
          "name": "D6",
          "ticks": 24071,
          "time": 279.8953488372093,
          "velocity": 0.5039370078740157
        },
        {
          "duration": 0.04651162790696617,
          "durationTicks": 4,
          "midi": 85,
          "name": "C#6",
          "ticks": 24072,
          "time": 279.90697674418607,
          "velocity": 0.3228346456692913
        },
        {
          "duration": 0.32558139534882,
          "durationTicks": 28,
          "midi": 91,
          "name": "G6",
          "ticks": 24073,
          "time": 279.9186046511628,
          "velocity": 0.6220472440944882
        },
        {
          "duration": 0.034883720930224626,
          "durationTicks": 3,
          "midi": 90,
          "name": "F#6",
          "ticks": 24074,
          "time": 279.93023255813955,
          "velocity": 0.15748031496062992
        },
        {
          "duration": 0.2906976744185954,
          "durationTicks": 25,
          "midi": 93,
          "name": "A6",
          "ticks": 24075,
          "time": 279.9418604651163,
          "velocity": 0.6141732283464567
        },
        {
          "duration": 0.034883720930224626,
          "durationTicks": 3,
          "midi": 40,
          "name": "E2",
          "ticks": 24076,
          "time": 279.95348837209303,
          "velocity": 0.16535433070866143
        },
        {
          "duration": 0.16279069767443843,
          "durationTicks": 14,
          "midi": 93,
          "name": "A6",
          "ticks": 24106,
          "time": 280.30232558139534,
          "velocity": 0.14173228346456693
        },
        {
          "duration": 0.18604651162792152,
          "durationTicks": 16,
          "midi": 91,
          "name": "G6",
          "ticks": 24107,
          "time": 280.3139534883721,
          "velocity": 0.13385826771653545
        }
      ],
      "endOfTrackTicks": 24123
    }
  ]
}
