{
  "header": {
    "keySignatures": [],
    "meta": [],
    "name": "",
    "ppq": 384,
    "tempos": [
      {
        "bpm": 160,
        "ticks": 0
      }
    ],
    "timeSignatures": [
      {
        "ticks": 0,
        "timeSignature": [
          4,
          4
        ],
        "measures": 0
      }
    ]
  },
  "tracks": [
    {
      "channel": 0,
      "controlChanges": {},
      "pitchBends": [],
      "instrument": {
        "family": "piano",
        "number": 0,
        "name": "acoustic grand piano"
      },
      "name": "Elec. Piano (Classic)",
      "notes": [
        {
          "duration": 0.09375,
          "durationTicks": 96,
          "midi": 28,
          "name": "E1",
          "ticks": 75264,
          "time": 73.5,
          "velocity": 0.3937007874015748
        },
        {
          "duration": 0.09375,
          "durationTicks": 96,
          "midi": 40,
          "name": "E2",
          "ticks": 75264,
          "time": 73.5,
          "velocity": 0.3937007874015748
        },
        {
          "duration": 0.09375,
          "durationTicks": 96,
          "midi": 43,
          "name": "G2",
          "ticks": 75360,
          "time": 73.59375,
          "velocity": 0.3937007874015748
        },
        {
          "duration": 0.09375,
          "durationTicks": 96,
          "midi": 47,
          "name": "B2",
          "ticks": 75456,
          "time": 73.6875,
          "velocity": 0.3937007874015748
        },
        {
          "duration": 0.09375,
          "durationTicks": 96,
          "midi": 52,
          "name": "E3",
          "ticks": 75552,
          "time": 73.78125,
          "velocity": 0.3937007874015748
        },
        {
          "duration": 0.09375,
          "durationTicks": 96,
          "midi": 55,
          "name": "G3",
          "ticks": 75648,
          "time": 73.875,
          "velocity": 0.3937007874015748
        },
        {
          "duration": 0.09375,
          "durationTicks": 96,
          "midi": 59,
          "name": "B3",
          "ticks": 75744,
          "time": 73.96875,
          "velocity": 0.3937007874015748
        },
        {
          "duration": 0.09375,
          "durationTicks": 96,
          "midi": 64,
          "name": "E4",
          "ticks": 75840,
          "time": 74.0625,
          "velocity": 0.3937007874015748
        },
        {
          "duration": 0.09375,
          "durationTicks": 96,
          "midi": 67,
          "name": "G4",
          "ticks": 75936,
          "time": 74.15625,
          "velocity": 0.3937007874015748
        },
        {
          "duration": 0.09375,
          "durationTicks": 96,
          "midi": 71,
          "name": "B4",
          "ticks": 76032,
          "time": 74.25,
          "velocity": 0.3937007874015748
        },
        {
          "duration": 0.09375,
          "durationTicks": 96,
          "midi": 67,
          "name": "G4",
          "ticks": 76128,
          "time": 74.34375,
          "velocity": 0.3937007874015748
        },
        {
          "duration": 0.09375,
          "durationTicks": 96,
          "midi": 64,
          "name": "E4",
          "ticks": 76224,
          "time": 74.4375,
          "velocity": 0.3937007874015748
        },
        {
          "duration": 0.09375,
          "durationTicks": 96,
          "midi": 59,
          "name": "B3",
          "ticks": 76320,
          "time": 74.53125,
          "velocity": 0.3937007874015748
        },
        {
          "duration": 0.09375,
          "durationTicks": 96,
          "midi": 55,
          "name": "G3",
          "ticks": 76416,
          "time": 74.625,
          "velocity": 0.3937007874015748
        },
        {
          "duration": 0.09375,
          "durationTicks": 96,
          "midi": 52,
          "name": "E3",
          "ticks": 76512,
          "time": 74.71875,
          "velocity": 0.3937007874015748
        },
        {
          "duration": 0.09375,
          "durationTicks": 96,
          "midi": 47,
          "name": "B2",
          "ticks": 76608,
          "time": 74.8125,
          "velocity": 0.3937007874015748
        },
        {
          "duration": 0.09375,
          "durationTicks": 96,
          "midi": 43,
          "name": "G2",
          "ticks": 76704,
          "time": 74.90625,
          "velocity": 0.3937007874015748
        },
        {
          "duration": 0.09375,
          "durationTicks": 96,
          "midi": 27,
          "name": "D#1",
          "ticks": 76800,
          "time": 75,
          "velocity": 0.3937007874015748
        },
        {
          "duration": 0.09375,
          "durationTicks": 96,
          "midi": 39,
          "name": "D#2",
          "ticks": 76800,
          "time": 75,
          "velocity": 0.3937007874015748
        },
        {
          "duration": 0.09375,
          "durationTicks": 96,
          "midi": 42,
          "name": "F#2",
          "ticks": 76896,
          "time": 75.09375,
          "velocity": 0.3937007874015748
        },
        {
          "duration": 0.09375,
          "durationTicks": 96,
          "midi": 47,
          "name": "B2",
          "ticks": 76992,
          "time": 75.1875,
          "velocity": 0.3937007874015748
        },
        {
          "duration": 0.09375,
          "durationTicks": 96,
          "midi": 51,
          "name": "D#3",
          "ticks": 77088,
          "time": 75.28125,
          "velocity": 0.3937007874015748
        },
        {
          "duration": 0.09375,
          "durationTicks": 96,
          "midi": 54,
          "name": "F#3",
          "ticks": 77184,
          "time": 75.375,
          "velocity": 0.3937007874015748
        },
        {
          "duration": 0.09375,
          "durationTicks": 96,
          "midi": 59,
          "name": "B3",
          "ticks": 77280,
          "time": 75.46875,
          "velocity": 0.3937007874015748
        },
        {
          "duration": 0.09375,
          "durationTicks": 96,
          "midi": 63,
          "name": "D#4",
          "ticks": 77376,
          "time": 75.5625,
          "velocity": 0.3937007874015748
        },
        {
          "duration": 0.09375,
          "durationTicks": 96,
          "midi": 66,
          "name": "F#4",
          "ticks": 77472,
          "time": 75.65625,
          "velocity": 0.3937007874015748
        },
        {
          "duration": 0.09375,
          "durationTicks": 96,
          "midi": 71,
          "name": "B4",
          "ticks": 77568,
          "time": 75.75,
          "velocity": 0.3937007874015748
        },
        {
          "duration": 0.09375,
          "durationTicks": 96,
          "midi": 66,
          "name": "F#4",
          "ticks": 77664,
          "time": 75.84375,
          "velocity": 0.3937007874015748
        },
        {
          "duration": 0.09375,
          "durationTicks": 96,
          "midi": 63,
          "name": "D#4",
          "ticks": 77760,
          "time": 75.9375,
          "velocity": 0.3937007874015748
        },
        {
          "duration": 0.09375,
          "durationTicks": 96,
          "midi": 59,
          "name": "B3",
          "ticks": 77856,
          "time": 76.03125,
          "velocity": 0.3937007874015748
        },
        {
          "duration": 0.09375,
          "durationTicks": 96,
          "midi": 54,
          "name": "F#3",
          "ticks": 77952,
          "time": 76.125,
          "velocity": 0.3937007874015748
        },
        {
          "duration": 0.09375,
          "durationTicks": 96,
          "midi": 51,
          "name": "D#3",
          "ticks": 78048,
          "time": 76.21875,
          "velocity": 0.3937007874015748
        },
        {
          "duration": 0.09375,
          "durationTicks": 96,
          "midi": 47,
          "name": "B2",
          "ticks": 78144,
          "time": 76.3125,
          "velocity": 0.3937007874015748
        },
        {
          "duration": 0.09375,
          "durationTicks": 96,
          "midi": 42,
          "name": "F#2",
          "ticks": 78240,
          "time": 76.40625,
          "velocity": 0.3937007874015748
        },
        {
          "duration": 0.09375,
          "durationTicks": 96,
          "midi": 38,
          "name": "D2",
          "ticks": 78336,
          "time": 76.5,
          "velocity": 0.3937007874015748
        },
        {
          "duration": 0.09375,
          "durationTicks": 96,
          "midi": 26,
          "name": "D1",
          "ticks": 78336,
          "time": 76.5,
          "velocity": 0.3937007874015748
        },
        {
          "duration": 0.09375,
          "durationTicks": 96,
          "midi": 42,
          "name": "F#2",
          "ticks": 78432,
          "time": 76.59375,
          "velocity": 0.3937007874015748
        },
        {
          "duration": 0.09375,
          "durationTicks": 96,
          "midi": 47,
          "name": "B2",
          "ticks": 78528,
          "time": 76.6875,
          "velocity": 0.3937007874015748
        },
        {
          "duration": 0.09375,
          "durationTicks": 96,
          "midi": 50,
          "name": "D3",
          "ticks": 78624,
          "time": 76.78125,
          "velocity": 0.3937007874015748
        },
        {
          "duration": 0.09375,
          "durationTicks": 96,
          "midi": 54,
          "name": "F#3",
          "ticks": 78720,
          "time": 76.875,
          "velocity": 0.3937007874015748
        },
        {
          "duration": 0.09375,
          "durationTicks": 96,
          "midi": 59,
          "name": "B3",
          "ticks": 78816,
          "time": 76.96875,
          "velocity": 0.3937007874015748
        },
        {
          "duration": 0.09375,
          "durationTicks": 96,
          "midi": 62,
          "name": "D4",
          "ticks": 78912,
          "time": 77.0625,
          "velocity": 0.3937007874015748
        },
        {
          "duration": 0.09375,
          "durationTicks": 96,
          "midi": 66,
          "name": "F#4",
          "ticks": 79008,
          "time": 77.15625,
          "velocity": 0.3937007874015748
        },
        {
          "duration": 0.09375,
          "durationTicks": 96,
          "midi": 71,
          "name": "B4",
          "ticks": 79104,
          "time": 77.25,
          "velocity": 0.3937007874015748
        },
        {
          "duration": 0.09375,
          "durationTicks": 96,
          "midi": 66,
          "name": "F#4",
          "ticks": 79200,
          "time": 77.34375,
          "velocity": 0.3937007874015748
        },
        {
          "duration": 0.09375,
          "durationTicks": 96,
          "midi": 62,
          "name": "D4",
          "ticks": 79296,
          "time": 77.4375,
          "velocity": 0.3937007874015748
        },
        {
          "duration": 0.09375,
          "durationTicks": 96,
          "midi": 59,
          "name": "B3",
          "ticks": 79392,
          "time": 77.53125,
          "velocity": 0.3937007874015748
        },
        {
          "duration": 0.09375,
          "durationTicks": 96,
          "midi": 54,
          "name": "F#3",
          "ticks": 79488,
          "time": 77.625,
          "velocity": 0.3937007874015748
        },
        {
          "duration": 0.09375,
          "durationTicks": 96,
          "midi": 50,
          "name": "D3",
          "ticks": 79584,
          "time": 77.71875,
          "velocity": 0.3937007874015748
        },
        {
          "duration": 0.09375,
          "durationTicks": 96,
          "midi": 47,
          "name": "B2",
          "ticks": 79680,
          "time": 77.8125,
          "velocity": 0.3937007874015748
        },
        {
          "duration": 0.09375,
          "durationTicks": 96,
          "midi": 42,
          "name": "F#2",
          "ticks": 79776,
          "time": 77.90625,
          "velocity": 0.3937007874015748
        },
        {
          "duration": 0.09375,
          "durationTicks": 96,
          "midi": 37,
          "name": "C#2",
          "ticks": 79872,
          "time": 78,
          "velocity": 0.3937007874015748
        },
        {
          "duration": 0.09375,
          "durationTicks": 96,
          "midi": 25,
          "name": "C#1",
          "ticks": 79872,
          "time": 78,
          "velocity": 0.3937007874015748
        },
        {
          "duration": 0.09375,
          "durationTicks": 96,
          "midi": 42,
          "name": "F#2",
          "ticks": 79968,
          "time": 78.09375,
          "velocity": 0.3937007874015748
        },
        {
          "duration": 0.09375,
          "durationTicks": 96,
          "midi": 46,
          "name": "A#2",
          "ticks": 80064,
          "time": 78.1875,
          "velocity": 0.3937007874015748
        },
        {
          "duration": 0.09375,
          "durationTicks": 96,
          "midi": 49,
          "name": "C#3",
          "ticks": 80160,
          "time": 78.28125,
          "velocity": 0.3937007874015748
        },
        {
          "duration": 0.09375,
          "durationTicks": 96,
          "midi": 54,
          "name": "F#3",
          "ticks": 80256,
          "time": 78.375,
          "velocity": 0.3937007874015748
        },
        {
          "duration": 0.09375,
          "durationTicks": 96,
          "midi": 58,
          "name": "A#3",
          "ticks": 80352,
          "time": 78.46875,
          "velocity": 0.3937007874015748
        },
        {
          "duration": 0.09375,
          "durationTicks": 96,
          "midi": 61,
          "name": "C#4",
          "ticks": 80448,
          "time": 78.5625,
          "velocity": 0.3937007874015748
        },
        {
          "duration": 0.09375,
          "durationTicks": 96,
          "midi": 66,
          "name": "F#4",
          "ticks": 80544,
          "time": 78.65625,
          "velocity": 0.3937007874015748
        },
        {
          "duration": 0.09375,
          "durationTicks": 96,
          "midi": 70,
          "name": "A#4",
          "ticks": 80640,
          "time": 78.75,
          "velocity": 0.3937007874015748
        },
        {
          "duration": 0.09375,
          "durationTicks": 96,
          "midi": 66,
          "name": "F#4",
          "ticks": 80736,
          "time": 78.84375,
          "velocity": 0.3937007874015748
        },
        {
          "duration": 0.09375,
          "durationTicks": 96,
          "midi": 61,
          "name": "C#4",
          "ticks": 80832,
          "time": 78.9375,
          "velocity": 0.3937007874015748
        },
        {
          "duration": 0.09375,
          "durationTicks": 96,
          "midi": 58,
          "name": "A#3",
          "ticks": 80928,
          "time": 79.03125,
          "velocity": 0.3937007874015748
        },
        {
          "duration": 0.09375,
          "durationTicks": 96,
          "midi": 54,
          "name": "F#3",
          "ticks": 81024,
          "time": 79.125,
          "velocity": 0.3937007874015748
        },
        {
          "duration": 0.09375,
          "durationTicks": 96,
          "midi": 49,
          "name": "C#3",
          "ticks": 81120,
          "time": 79.21875,
          "velocity": 0.3937007874015748
        },
        {
          "duration": 0.09375,
          "durationTicks": 96,
          "midi": 46,
          "name": "A#2",
          "ticks": 81216,
          "time": 79.3125,
          "velocity": 0.3937007874015748
        },
        {
          "duration": 0.09375,
          "durationTicks": 96,
          "midi": 42,
          "name": "F#2",
          "ticks": 81312,
          "time": 79.40625,
          "velocity": 0.3937007874015748
        },
        {
          "duration": 0.09375,
          "durationTicks": 96,
          "midi": 36,
          "name": "C2",
          "ticks": 81408,
          "time": 79.5,
          "velocity": 0.3937007874015748
        },
        {
          "duration": 0.09375,
          "durationTicks": 96,
          "midi": 24,
          "name": "C1",
          "ticks": 81408,
          "time": 79.5,
          "velocity": 0.3937007874015748
        },
        {
          "duration": 0.09375,
          "durationTicks": 96,
          "midi": 36,
          "name": "C2",
          "ticks": 81408,
          "time": 79.5,
          "velocity": 0.3937007874015748
        },
        {
          "duration": 0.09375,
          "durationTicks": 96,
          "midi": 40,
          "name": "E2",
          "ticks": 81504,
          "time": 79.59375,
          "velocity": 0.3937007874015748
        },
        {
          "duration": 0.09375,
          "durationTicks": 96,
          "midi": 45,
          "name": "A2",
          "ticks": 81600,
          "time": 79.6875,
          "velocity": 0.3937007874015748
        },
        {
          "duration": 0.09375,
          "durationTicks": 96,
          "midi": 48,
          "name": "C3",
          "ticks": 81696,
          "time": 79.78125,
          "velocity": 0.3937007874015748
        },
        {
          "duration": 0.09375,
          "durationTicks": 96,
          "midi": 52,
          "name": "E3",
          "ticks": 81792,
          "time": 79.875,
          "velocity": 0.3937007874015748
        },
        {
          "duration": 0.09375,
          "durationTicks": 96,
          "midi": 57,
          "name": "A3",
          "ticks": 81888,
          "time": 79.96875,
          "velocity": 0.3937007874015748
        },
        {
          "duration": 0.09375,
          "durationTicks": 96,
          "midi": 60,
          "name": "C4",
          "ticks": 81984,
          "time": 80.0625,
          "velocity": 0.3937007874015748
        },
        {
          "duration": 0.09375,
          "durationTicks": 96,
          "midi": 64,
          "name": "E4",
          "ticks": 82080,
          "time": 80.15625,
          "velocity": 0.3937007874015748
        },
        {
          "duration": 0.09375,
          "durationTicks": 96,
          "midi": 69,
          "name": "A4",
          "ticks": 82176,
          "time": 80.25,
          "velocity": 0.3937007874015748
        },
        {
          "duration": 0.09375,
          "durationTicks": 96,
          "midi": 64,
          "name": "E4",
          "ticks": 82272,
          "time": 80.34375,
          "velocity": 0.3937007874015748
        },
        {
          "duration": 0.09375,
          "durationTicks": 96,
          "midi": 60,
          "name": "C4",
          "ticks": 82368,
          "time": 80.4375,
          "velocity": 0.3937007874015748
        },
        {
          "duration": 0.09375,
          "durationTicks": 96,
          "midi": 57,
          "name": "A3",
          "ticks": 82464,
          "time": 80.53125,
          "velocity": 0.3937007874015748
        },
        {
          "duration": 0.09375,
          "durationTicks": 96,
          "midi": 52,
          "name": "E3",
          "ticks": 82560,
          "time": 80.625,
          "velocity": 0.3937007874015748
        },
        {
          "duration": 0.09375,
          "durationTicks": 96,
          "midi": 48,
          "name": "C3",
          "ticks": 82656,
          "time": 80.71875,
          "velocity": 0.3937007874015748
        },
        {
          "duration": 0.09375,
          "durationTicks": 96,
          "midi": 45,
          "name": "A2",
          "ticks": 82752,
          "time": 80.8125,
          "velocity": 0.3937007874015748
        },
        {
          "duration": 0.09375,
          "durationTicks": 96,
          "midi": 40,
          "name": "E2",
          "ticks": 82848,
          "time": 80.90625,
          "velocity": 0.3937007874015748
        },
        {
          "duration": 0.09375,
          "durationTicks": 96,
          "midi": 35,
          "name": "B1",
          "ticks": 82944,
          "time": 81,
          "velocity": 0.3937007874015748
        },
        {
          "duration": 0.09375,
          "durationTicks": 96,
          "midi": 39,
          "name": "D#2",
          "ticks": 83040,
          "time": 81.09375,
          "velocity": 0.3937007874015748
        },
        {
          "duration": 0.09375,
          "durationTicks": 96,
          "midi": 42,
          "name": "F#2",
          "ticks": 83136,
          "time": 81.1875,
          "velocity": 0.3937007874015748
        },
        {
          "duration": 0.09375,
          "durationTicks": 96,
          "midi": 47,
          "name": "B2",
          "ticks": 83232,
          "time": 81.28125,
          "velocity": 0.3937007874015748
        },
        {
          "duration": 0.09375,
          "durationTicks": 96,
          "midi": 51,
          "name": "D#3",
          "ticks": 83328,
          "time": 81.375,
          "velocity": 0.3937007874015748
        },
        {
          "duration": 0.09375,
          "durationTicks": 96,
          "midi": 54,
          "name": "F#3",
          "ticks": 83424,
          "time": 81.46875,
          "velocity": 0.3937007874015748
        },
        {
          "duration": 0.09375,
          "durationTicks": 96,
          "midi": 59,
          "name": "B3",
          "ticks": 83520,
          "time": 81.5625,
          "velocity": 0.3937007874015748
        },
        {
          "duration": 0.09375,
          "durationTicks": 96,
          "midi": 63,
          "name": "D#4",
          "ticks": 83616,
          "time": 81.65625,
          "velocity": 0.3937007874015748
        },
        {
          "duration": 0.09375,
          "durationTicks": 96,
          "midi": 66,
          "name": "F#4",
          "ticks": 83712,
          "time": 81.75,
          "velocity": 0.3937007874015748
        },
        {
          "duration": 0.09375,
          "durationTicks": 96,
          "midi": 63,
          "name": "D#4",
          "ticks": 83808,
          "time": 81.84375,
          "velocity": 0.3937007874015748
        },
        {
          "duration": 0.09375,
          "durationTicks": 96,
          "midi": 59,
          "name": "B3",
          "ticks": 83904,
          "time": 81.9375,
          "velocity": 0.3937007874015748
        },
        {
          "duration": 0.09375,
          "durationTicks": 96,
          "midi": 54,
          "name": "F#3",
          "ticks": 84000,
          "time": 82.03125,
          "velocity": 0.3937007874015748
        },
        {
          "duration": 0.09375,
          "durationTicks": 96,
          "midi": 51,
          "name": "D#3",
          "ticks": 84096,
          "time": 82.125,
          "velocity": 0.3937007874015748
        },
        {
          "duration": 0.09375,
          "durationTicks": 96,
          "midi": 47,
          "name": "B2",
          "ticks": 84192,
          "time": 82.21875,
          "velocity": 0.3937007874015748
        },
        {
          "duration": 0.09375,
          "durationTicks": 96,
          "midi": 42,
          "name": "F#2",
          "ticks": 84288,
          "time": 82.3125,
          "velocity": 0.3937007874015748
        },
        {
          "duration": 0.09375,
          "durationTicks": 96,
          "midi": 39,
          "name": "D#2",
          "ticks": 84384,
          "time": 82.40625,
          "velocity": 0.3937007874015748
        },
        {
          "duration": 0.09375,
          "durationTicks": 96,
          "midi": 39,
          "name": "D#2",
          "ticks": 84384,
          "time": 82.40625,
          "velocity": 0.3937007874015748
        },
        {
          "duration": 0.09375,
          "durationTicks": 96,
          "midi": 41,
          "name": "F2",
          "ticks": 84480,
          "time": 82.5,
          "velocity": 0.3937007874015748
        },
        {
          "duration": 0.09375,
          "durationTicks": 96,
          "midi": 29,
          "name": "F1",
          "ticks": 84480,
          "time": 82.5,
          "velocity": 0.3937007874015748
        },
        {
          "duration": 0.09375,
          "durationTicks": 96,
          "midi": 29,
          "name": "F1",
          "ticks": 84480,
          "time": 82.5,
          "velocity": 0.3937007874015748
        },
        {
          "duration": 0.09375,
          "durationTicks": 96,
          "midi": 45,
          "name": "A2",
          "ticks": 84576,
          "time": 82.59375,
          "velocity": 0.3937007874015748
        },
        {
          "duration": 0.09375,
          "durationTicks": 96,
          "midi": 48,
          "name": "C3",
          "ticks": 84672,
          "time": 82.6875,
          "velocity": 0.3937007874015748
        },
        {
          "duration": 0.09375,
          "durationTicks": 96,
          "midi": 53,
          "name": "F3",
          "ticks": 84768,
          "time": 82.78125,
          "velocity": 0.3937007874015748
        },
        {
          "duration": 0.09375,
          "durationTicks": 96,
          "midi": 57,
          "name": "A3",
          "ticks": 84864,
          "time": 82.875,
          "velocity": 0.3937007874015748
        },
        {
          "duration": 0.09375,
          "durationTicks": 96,
          "midi": 60,
          "name": "C4",
          "ticks": 84960,
          "time": 82.96875,
          "velocity": 0.3937007874015748
        },
        {
          "duration": 0.09375,
          "durationTicks": 96,
          "midi": 65,
          "name": "F4",
          "ticks": 85056,
          "time": 83.0625,
          "velocity": 0.3937007874015748
        },
        {
          "duration": 0.09375,
          "durationTicks": 96,
          "midi": 69,
          "name": "A4",
          "ticks": 85152,
          "time": 83.15625,
          "velocity": 0.3937007874015748
        },
        {
          "duration": 0.09375,
          "durationTicks": 96,
          "midi": 72,
          "name": "C5",
          "ticks": 85248,
          "time": 83.25,
          "velocity": 0.3937007874015748
        },
        {
          "duration": 0.09375,
          "durationTicks": 96,
          "midi": 69,
          "name": "A4",
          "ticks": 85344,
          "time": 83.34375,
          "velocity": 0.3937007874015748
        },
        {
          "duration": 0.09375,
          "durationTicks": 96,
          "midi": 65,
          "name": "F4",
          "ticks": 85440,
          "time": 83.4375,
          "velocity": 0.3937007874015748
        },
        {
          "duration": 0.09375,
          "durationTicks": 96,
          "midi": 60,
          "name": "C4",
          "ticks": 85536,
          "time": 83.53125,
          "velocity": 0.3937007874015748
        },
        {
          "duration": 0.09375,
          "durationTicks": 96,
          "midi": 57,
          "name": "A3",
          "ticks": 85632,
          "time": 83.625,
          "velocity": 0.3937007874015748
        },
        {
          "duration": 0.09375,
          "durationTicks": 96,
          "midi": 53,
          "name": "F3",
          "ticks": 85728,
          "time": 83.71875,
          "velocity": 0.3937007874015748
        },
        {
          "duration": 0.09375,
          "durationTicks": 96,
          "midi": 48,
          "name": "C3",
          "ticks": 85824,
          "time": 83.8125,
          "velocity": 0.3937007874015748
        },
        {
          "duration": 0.09375,
          "durationTicks": 96,
          "midi": 45,
          "name": "A2",
          "ticks": 85920,
          "time": 83.90625,
          "velocity": 0.3937007874015748
        },
        {
          "duration": 0.09375,
          "durationTicks": 96,
          "midi": 25,
          "name": "C#1",
          "ticks": 86016,
          "time": 84,
          "velocity": 0.3937007874015748
        },
        {
          "duration": 0.09375,
          "durationTicks": 96,
          "midi": 39,
          "name": "D#2",
          "ticks": 86016,
          "time": 84,
          "velocity": 0.3937007874015748
        },
        {
          "duration": 0.09375,
          "durationTicks": 96,
          "midi": 42,
          "name": "F#2",
          "ticks": 86112,
          "time": 84.09375,
          "velocity": 0.3937007874015748
        },
        {
          "duration": 0.09375,
          "durationTicks": 96,
          "midi": 47,
          "name": "B2",
          "ticks": 86208,
          "time": 84.1875,
          "velocity": 0.3937007874015748
        },
        {
          "duration": 0.09375,
          "durationTicks": 96,
          "midi": 51,
          "name": "D#3",
          "ticks": 86304,
          "time": 84.28125,
          "velocity": 0.3937007874015748
        },
        {
          "duration": 0.09375,
          "durationTicks": 96,
          "midi": 54,
          "name": "F#3",
          "ticks": 86400,
          "time": 84.375,
          "velocity": 0.3937007874015748
        },
        {
          "duration": 0.09375,
          "durationTicks": 96,
          "midi": 59,
          "name": "B3",
          "ticks": 86496,
          "time": 84.46875,
          "velocity": 0.3937007874015748
        },
        {
          "duration": 0.09375,
          "durationTicks": 96,
          "midi": 63,
          "name": "D#4",
          "ticks": 86592,
          "time": 84.5625,
          "velocity": 0.3937007874015748
        },
        {
          "duration": 0.09375,
          "durationTicks": 96,
          "midi": 66,
          "name": "F#4",
          "ticks": 86688,
          "time": 84.65625,
          "velocity": 0.3937007874015748
        },
        {
          "duration": 0.09375,
          "durationTicks": 96,
          "midi": 71,
          "name": "B4",
          "ticks": 86784,
          "time": 84.75,
          "velocity": 0.3937007874015748
        },
        {
          "duration": 0.09375,
          "durationTicks": 96,
          "midi": 66,
          "name": "F#4",
          "ticks": 86880,
          "time": 84.84375,
          "velocity": 0.3937007874015748
        },
        {
          "duration": 0.09375,
          "durationTicks": 96,
          "midi": 63,
          "name": "D#4",
          "ticks": 86976,
          "time": 84.9375,
          "velocity": 0.3937007874015748
        },
        {
          "duration": 0.09375,
          "durationTicks": 96,
          "midi": 59,
          "name": "B3",
          "ticks": 87072,
          "time": 85.03125,
          "velocity": 0.3937007874015748
        },
        {
          "duration": 0.09375,
          "durationTicks": 96,
          "midi": 54,
          "name": "F#3",
          "ticks": 87168,
          "time": 85.125,
          "velocity": 0.3937007874015748
        },
        {
          "duration": 0.09375,
          "durationTicks": 96,
          "midi": 51,
          "name": "D#3",
          "ticks": 87264,
          "time": 85.21875,
          "velocity": 0.3937007874015748
        },
        {
          "duration": 0.09375,
          "durationTicks": 96,
          "midi": 47,
          "name": "B2",
          "ticks": 87360,
          "time": 85.3125,
          "velocity": 0.3937007874015748
        },
        {
          "duration": 0.09375,
          "durationTicks": 96,
          "midi": 42,
          "name": "F#2",
          "ticks": 87456,
          "time": 85.40625,
          "velocity": 0.3937007874015748
        },
        {
          "duration": 0.09375,
          "durationTicks": 96,
          "midi": 28,
          "name": "E1",
          "ticks": 87552,
          "time": 85.5,
          "velocity": 0.3937007874015748
        },
        {
          "duration": 0.09375,
          "durationTicks": 96,
          "midi": 40,
          "name": "E2",
          "ticks": 87552,
          "time": 85.5,
          "velocity": 0.3937007874015748
        },
        {
          "duration": 0.09375,
          "durationTicks": 96,
          "midi": 43,
          "name": "G2",
          "ticks": 87648,
          "time": 85.59375,
          "velocity": 0.3937007874015748
        },
        {
          "duration": 0.09375,
          "durationTicks": 96,
          "midi": 47,
          "name": "B2",
          "ticks": 87744,
          "time": 85.6875,
          "velocity": 0.3937007874015748
        },
        {
          "duration": 0.09375,
          "durationTicks": 96,
          "midi": 52,
          "name": "E3",
          "ticks": 87840,
          "time": 85.78125,
          "velocity": 0.3937007874015748
        },
        {
          "duration": 0.09375,
          "durationTicks": 96,
          "midi": 55,
          "name": "G3",
          "ticks": 87936,
          "time": 85.875,
          "velocity": 0.3937007874015748
        },
        {
          "duration": 0.09375,
          "durationTicks": 96,
          "midi": 59,
          "name": "B3",
          "ticks": 88032,
          "time": 85.96875,
          "velocity": 0.3937007874015748
        },
        {
          "duration": 0.09375,
          "durationTicks": 96,
          "midi": 64,
          "name": "E4",
          "ticks": 88128,
          "time": 86.0625,
          "velocity": 0.3937007874015748
        },
        {
          "duration": 0.09375,
          "durationTicks": 96,
          "midi": 67,
          "name": "G4",
          "ticks": 88224,
          "time": 86.15625,
          "velocity": 0.3937007874015748
        },
        {
          "duration": 0.09375,
          "durationTicks": 96,
          "midi": 71,
          "name": "B4",
          "ticks": 88320,
          "time": 86.25,
          "velocity": 0.3937007874015748
        },
        {
          "duration": 0.09375,
          "durationTicks": 96,
          "midi": 67,
          "name": "G4",
          "ticks": 88416,
          "time": 86.34375,
          "velocity": 0.3937007874015748
        },
        {
          "duration": 0.09375,
          "durationTicks": 96,
          "midi": 64,
          "name": "E4",
          "ticks": 88512,
          "time": 86.4375,
          "velocity": 0.3937007874015748
        },
        {
          "duration": 0.09375,
          "durationTicks": 96,
          "midi": 59,
          "name": "B3",
          "ticks": 88608,
          "time": 86.53125,
          "velocity": 0.3937007874015748
        },
        {
          "duration": 0.09375,
          "durationTicks": 96,
          "midi": 55,
          "name": "G3",
          "ticks": 88704,
          "time": 86.625,
          "velocity": 0.3937007874015748
        },
        {
          "duration": 0.09375,
          "durationTicks": 96,
          "midi": 52,
          "name": "E3",
          "ticks": 88800,
          "time": 86.71875,
          "velocity": 0.3937007874015748
        },
        {
          "duration": 0.09375,
          "durationTicks": 96,
          "midi": 47,
          "name": "B2",
          "ticks": 88896,
          "time": 86.8125,
          "velocity": 0.3937007874015748
        },
        {
          "duration": 0.09375,
          "durationTicks": 96,
          "midi": 43,
          "name": "G2",
          "ticks": 88992,
          "time": 86.90625,
          "velocity": 0.3937007874015748
        },
        {
          "duration": 0.09375,
          "durationTicks": 96,
          "midi": 39,
          "name": "D#2",
          "ticks": 89088,
          "time": 87,
          "velocity": 0.3937007874015748
        },
        {
          "duration": 0.09375,
          "durationTicks": 96,
          "midi": 27,
          "name": "D#1",
          "ticks": 89088,
          "time": 87,
          "velocity": 0.3937007874015748
        },
        {
          "duration": 0.09375,
          "durationTicks": 96,
          "midi": 42,
          "name": "F#2",
          "ticks": 89184,
          "time": 87.09375,
          "velocity": 0.3937007874015748
        },
        {
          "duration": 0.09375,
          "durationTicks": 96,
          "midi": 47,
          "name": "B2",
          "ticks": 89280,
          "time": 87.1875,
          "velocity": 0.3937007874015748
        },
        {
          "duration": 0.09375,
          "durationTicks": 96,
          "midi": 51,
          "name": "D#3",
          "ticks": 89376,
          "time": 87.28125,
          "velocity": 0.3937007874015748
        },
        {
          "duration": 0.09375,
          "durationTicks": 96,
          "midi": 54,
          "name": "F#3",
          "ticks": 89472,
          "time": 87.375,
          "velocity": 0.3937007874015748
        },
        {
          "duration": 0.09375,
          "durationTicks": 96,
          "midi": 59,
          "name": "B3",
          "ticks": 89568,
          "time": 87.46875,
          "velocity": 0.3937007874015748
        },
        {
          "duration": 0.09375,
          "durationTicks": 96,
          "midi": 63,
          "name": "D#4",
          "ticks": 89664,
          "time": 87.5625,
          "velocity": 0.3937007874015748
        },
        {
          "duration": 0.09375,
          "durationTicks": 96,
          "midi": 66,
          "name": "F#4",
          "ticks": 89760,
          "time": 87.65625,
          "velocity": 0.3937007874015748
        },
        {
          "duration": 0.09375,
          "durationTicks": 96,
          "midi": 71,
          "name": "B4",
          "ticks": 89856,
          "time": 87.75,
          "velocity": 0.3937007874015748
        },
        {
          "duration": 0.09375,
          "durationTicks": 96,
          "midi": 66,
          "name": "F#4",
          "ticks": 89952,
          "time": 87.84375,
          "velocity": 0.3937007874015748
        },
        {
          "duration": 0.09375,
          "durationTicks": 96,
          "midi": 63,
          "name": "D#4",
          "ticks": 90048,
          "time": 87.9375,
          "velocity": 0.3937007874015748
        },
        {
          "duration": 0.09375,
          "durationTicks": 96,
          "midi": 59,
          "name": "B3",
          "ticks": 90144,
          "time": 88.03125,
          "velocity": 0.3937007874015748
        },
        {
          "duration": 0.09375,
          "durationTicks": 96,
          "midi": 54,
          "name": "F#3",
          "ticks": 90240,
          "time": 88.125,
          "velocity": 0.3937007874015748
        },
        {
          "duration": 0.09375,
          "durationTicks": 96,
          "midi": 51,
          "name": "D#3",
          "ticks": 90336,
          "time": 88.21875,
          "velocity": 0.3937007874015748
        },
        {
          "duration": 0.09375,
          "durationTicks": 96,
          "midi": 47,
          "name": "B2",
          "ticks": 90432,
          "time": 88.3125,
          "velocity": 0.3937007874015748
        },
        {
          "duration": 0.09375,
          "durationTicks": 96,
          "midi": 42,
          "name": "F#2",
          "ticks": 90528,
          "time": 88.40625,
          "velocity": 0.3937007874015748
        },
        {
          "duration": 0.09375,
          "durationTicks": 96,
          "midi": 38,
          "name": "D2",
          "ticks": 90624,
          "time": 88.5,
          "velocity": 0.3937007874015748
        },
        {
          "duration": 0.09375,
          "durationTicks": 96,
          "midi": 26,
          "name": "D1",
          "ticks": 90624,
          "time": 88.5,
          "velocity": 0.3937007874015748
        },
        {
          "duration": 0.09375,
          "durationTicks": 96,
          "midi": 42,
          "name": "F#2",
          "ticks": 90720,
          "time": 88.59375,
          "velocity": 0.3937007874015748
        },
        {
          "duration": 0.09375,
          "durationTicks": 96,
          "midi": 47,
          "name": "B2",
          "ticks": 90816,
          "time": 88.6875,
          "velocity": 0.3937007874015748
        },
        {
          "duration": 0.09375,
          "durationTicks": 96,
          "midi": 50,
          "name": "D3",
          "ticks": 90912,
          "time": 88.78125,
          "velocity": 0.3937007874015748
        },
        {
          "duration": 0.09375,
          "durationTicks": 96,
          "midi": 54,
          "name": "F#3",
          "ticks": 91008,
          "time": 88.875,
          "velocity": 0.3937007874015748
        },
        {
          "duration": 0.09375,
          "durationTicks": 96,
          "midi": 59,
          "name": "B3",
          "ticks": 91104,
          "time": 88.96875,
          "velocity": 0.3937007874015748
        },
        {
          "duration": 0.09375,
          "durationTicks": 96,
          "midi": 62,
          "name": "D4",
          "ticks": 91200,
          "time": 89.0625,
          "velocity": 0.3937007874015748
        },
        {
          "duration": 0.09375,
          "durationTicks": 96,
          "midi": 66,
          "name": "F#4",
          "ticks": 91296,
          "time": 89.15625,
          "velocity": 0.3937007874015748
        },
        {
          "duration": 0.09375,
          "durationTicks": 96,
          "midi": 71,
          "name": "B4",
          "ticks": 91392,
          "time": 89.25,
          "velocity": 0.3937007874015748
        },
        {
          "duration": 0.09375,
          "durationTicks": 96,
          "midi": 66,
          "name": "F#4",
          "ticks": 91488,
          "time": 89.34375,
          "velocity": 0.3937007874015748
        },
        {
          "duration": 0.09375,
          "durationTicks": 96,
          "midi": 62,
          "name": "D4",
          "ticks": 91584,
          "time": 89.4375,
          "velocity": 0.3937007874015748
        },
        {
          "duration": 0.09375,
          "durationTicks": 96,
          "midi": 59,
          "name": "B3",
          "ticks": 91680,
          "time": 89.53125,
          "velocity": 0.3937007874015748
        },
        {
          "duration": 0.09375,
          "durationTicks": 96,
          "midi": 54,
          "name": "F#3",
          "ticks": 91776,
          "time": 89.625,
          "velocity": 0.3937007874015748
        },
        {
          "duration": 0.09375,
          "durationTicks": 96,
          "midi": 50,
          "name": "D3",
          "ticks": 91872,
          "time": 89.71875,
          "velocity": 0.3937007874015748
        },
        {
          "duration": 0.09375,
          "durationTicks": 96,
          "midi": 47,
          "name": "B2",
          "ticks": 91968,
          "time": 89.8125,
          "velocity": 0.3937007874015748
        },
        {
          "duration": 0.09375,
          "durationTicks": 96,
          "midi": 42,
          "name": "F#2",
          "ticks": 92064,
          "time": 89.90625,
          "velocity": 0.3937007874015748
        },
        {
          "duration": 0.09375,
          "durationTicks": 96,
          "midi": 25,
          "name": "C#1",
          "ticks": 92160,
          "time": 90,
          "velocity": 0.3937007874015748
        },
        {
          "duration": 0.09375,
          "durationTicks": 96,
          "midi": 37,
          "name": "C#2",
          "ticks": 92160,
          "time": 90,
          "velocity": 0.3937007874015748
        },
        {
          "duration": 0.09375,
          "durationTicks": 96,
          "midi": 42,
          "name": "F#2",
          "ticks": 92256,
          "time": 90.09375,
          "velocity": 0.3937007874015748
        },
        {
          "duration": 0.09375,
          "durationTicks": 96,
          "midi": 46,
          "name": "A#2",
          "ticks": 92352,
          "time": 90.1875,
          "velocity": 0.3937007874015748
        },
        {
          "duration": 0.09375,
          "durationTicks": 96,
          "midi": 49,
          "name": "C#3",
          "ticks": 92448,
          "time": 90.28125,
          "velocity": 0.3937007874015748
        },
        {
          "duration": 0.09375,
          "durationTicks": 96,
          "midi": 54,
          "name": "F#3",
          "ticks": 92544,
          "time": 90.375,
          "velocity": 0.3937007874015748
        },
        {
          "duration": 0.09375,
          "durationTicks": 96,
          "midi": 58,
          "name": "A#3",
          "ticks": 92640,
          "time": 90.46875,
          "velocity": 0.3937007874015748
        },
        {
          "duration": 0.09375,
          "durationTicks": 96,
          "midi": 61,
          "name": "C#4",
          "ticks": 92736,
          "time": 90.5625,
          "velocity": 0.3937007874015748
        },
        {
          "duration": 0.09375,
          "durationTicks": 96,
          "midi": 66,
          "name": "F#4",
          "ticks": 92832,
          "time": 90.65625,
          "velocity": 0.3937007874015748
        },
        {
          "duration": 0.09375,
          "durationTicks": 96,
          "midi": 70,
          "name": "A#4",
          "ticks": 92928,
          "time": 90.75,
          "velocity": 0.3937007874015748
        },
        {
          "duration": 0.09375,
          "durationTicks": 96,
          "midi": 66,
          "name": "F#4",
          "ticks": 93024,
          "time": 90.84375,
          "velocity": 0.3937007874015748
        },
        {
          "duration": 0.09375,
          "durationTicks": 96,
          "midi": 61,
          "name": "C#4",
          "ticks": 93120,
          "time": 90.9375,
          "velocity": 0.3937007874015748
        },
        {
          "duration": 0.09375,
          "durationTicks": 96,
          "midi": 58,
          "name": "A#3",
          "ticks": 93216,
          "time": 91.03125,
          "velocity": 0.3937007874015748
        },
        {
          "duration": 0.09375,
          "durationTicks": 96,
          "midi": 54,
          "name": "F#3",
          "ticks": 93312,
          "time": 91.125,
          "velocity": 0.3937007874015748
        },
        {
          "duration": 0.09375,
          "durationTicks": 96,
          "midi": 49,
          "name": "C#3",
          "ticks": 93408,
          "time": 91.21875,
          "velocity": 0.3937007874015748
        },
        {
          "duration": 0.09375,
          "durationTicks": 96,
          "midi": 46,
          "name": "A#2",
          "ticks": 93504,
          "time": 91.3125,
          "velocity": 0.3937007874015748
        },
        {
          "duration": 0.09375,
          "durationTicks": 96,
          "midi": 42,
          "name": "F#2",
          "ticks": 93600,
          "time": 91.40625,
          "velocity": 0.3937007874015748
        },
        {
          "duration": 0.09375,
          "durationTicks": 96,
          "midi": 24,
          "name": "C1",
          "ticks": 93696,
          "time": 91.5,
          "velocity": 0.3937007874015748
        },
        {
          "duration": 0.09375,
          "durationTicks": 96,
          "midi": 36,
          "name": "C2",
          "ticks": 93696,
          "time": 91.5,
          "velocity": 0.3937007874015748
        },
        {
          "duration": 0.09375,
          "durationTicks": 96,
          "midi": 40,
          "name": "E2",
          "ticks": 93792,
          "time": 91.59375,
          "velocity": 0.3937007874015748
        },
        {
          "duration": 0.09375,
          "durationTicks": 96,
          "midi": 45,
          "name": "A2",
          "ticks": 93888,
          "time": 91.6875,
          "velocity": 0.3937007874015748
        },
        {
          "duration": 0.09375,
          "durationTicks": 96,
          "midi": 48,
          "name": "C3",
          "ticks": 93984,
          "time": 91.78125,
          "velocity": 0.3937007874015748
        },
        {
          "duration": 0.09375,
          "durationTicks": 96,
          "midi": 52,
          "name": "E3",
          "ticks": 94080,
          "time": 91.875,
          "velocity": 0.3937007874015748
        },
        {
          "duration": 0.28125,
          "durationTicks": 288,
          "midi": 52,
          "name": "E3",
          "ticks": 94080,
          "time": 91.875,
          "velocity": 0.3937007874015748
        },
        {
          "duration": 0.09375,
          "durationTicks": 96,
          "midi": 57,
          "name": "A3",
          "ticks": 94176,
          "time": 91.96875,
          "velocity": 0.3937007874015748
        },
        {
          "duration": 0.09375,
          "durationTicks": 96,
          "midi": 60,
          "name": "C4",
          "ticks": 94272,
          "time": 92.0625,
          "velocity": 0.3937007874015748
        },
        {
          "duration": 0.09375,
          "durationTicks": 96,
          "midi": 64,
          "name": "E4",
          "ticks": 94368,
          "time": 92.15625,
          "velocity": 0.3937007874015748
        },
        {
          "duration": 0.09375,
          "durationTicks": 96,
          "midi": 69,
          "name": "A4",
          "ticks": 94464,
          "time": 92.25,
          "velocity": 0.3937007874015748
        },
        {
          "duration": 0.09375,
          "durationTicks": 96,
          "midi": 64,
          "name": "E4",
          "ticks": 94560,
          "time": 92.34375,
          "velocity": 0.3937007874015748
        },
        {
          "duration": 0.09375,
          "durationTicks": 96,
          "midi": 60,
          "name": "C4",
          "ticks": 94656,
          "time": 92.4375,
          "velocity": 0.3937007874015748
        },
        {
          "duration": 0.09375,
          "durationTicks": 96,
          "midi": 57,
          "name": "A3",
          "ticks": 94752,
          "time": 92.53125,
          "velocity": 0.3937007874015748
        },
        {
          "duration": 0.09375,
          "durationTicks": 96,
          "midi": 52,
          "name": "E3",
          "ticks": 94848,
          "time": 92.625,
          "velocity": 0.3937007874015748
        },
        {
          "duration": 0.09375,
          "durationTicks": 96,
          "midi": 48,
          "name": "C3",
          "ticks": 94944,
          "time": 92.71875,
          "velocity": 0.3937007874015748
        },
        {
          "duration": 0.09375,
          "durationTicks": 96,
          "midi": 45,
          "name": "A2",
          "ticks": 95040,
          "time": 92.8125,
          "velocity": 0.3937007874015748
        },
        {
          "duration": 0.09375,
          "durationTicks": 96,
          "midi": 40,
          "name": "E2",
          "ticks": 95136,
          "time": 92.90625,
          "velocity": 0.3937007874015748
        },
        {
          "duration": 0.09375,
          "durationTicks": 96,
          "midi": 25,
          "name": "C#1",
          "ticks": 95232,
          "time": 93,
          "velocity": 0.3937007874015748
        },
        {
          "duration": 0.09375,
          "durationTicks": 96,
          "midi": 39,
          "name": "D#2",
          "ticks": 95232,
          "time": 93,
          "velocity": 0.3937007874015748
        },
        {
          "duration": 0.09375,
          "durationTicks": 96,
          "midi": 42,
          "name": "F#2",
          "ticks": 95328,
          "time": 93.09375,
          "velocity": 0.3937007874015748
        },
        {
          "duration": 0.09375,
          "durationTicks": 96,
          "midi": 47,
          "name": "B2",
          "ticks": 95424,
          "time": 93.1875,
          "velocity": 0.3937007874015748
        },
        {
          "duration": 0.09375,
          "durationTicks": 96,
          "midi": 51,
          "name": "D#3",
          "ticks": 95520,
          "time": 93.28125,
          "velocity": 0.3937007874015748
        },
        {
          "duration": 0.09375,
          "durationTicks": 96,
          "midi": 54,
          "name": "F#3",
          "ticks": 95616,
          "time": 93.375,
          "velocity": 0.3937007874015748
        },
        {
          "duration": 0.09375,
          "durationTicks": 96,
          "midi": 59,
          "name": "B3",
          "ticks": 95712,
          "time": 93.46875,
          "velocity": 0.3937007874015748
        },
        {
          "duration": 0.09375,
          "durationTicks": 96,
          "midi": 66,
          "name": "F#4",
          "ticks": 95904,
          "time": 93.65625,
          "velocity": 0.3937007874015748
        },
        {
          "duration": 0.09375,
          "durationTicks": 96,
          "midi": 71,
          "name": "B4",
          "ticks": 96000,
          "time": 93.75,
          "velocity": 0.3937007874015748
        },
        {
          "duration": 0.09375,
          "durationTicks": 96,
          "midi": 66,
          "name": "F#4",
          "ticks": 96096,
          "time": 93.84375,
          "velocity": 0.3937007874015748
        },
        {
          "duration": 0.09375,
          "durationTicks": 96,
          "midi": 63,
          "name": "D#4",
          "ticks": 96192,
          "time": 93.9375,
          "velocity": 0.3937007874015748
        },
        {
          "duration": 0.09375,
          "durationTicks": 96,
          "midi": 59,
          "name": "B3",
          "ticks": 96288,
          "time": 94.03125,
          "velocity": 0.3937007874015748
        },
        {
          "duration": 0.09375,
          "durationTicks": 96,
          "midi": 54,
          "name": "F#3",
          "ticks": 96384,
          "time": 94.125,
          "velocity": 0.3937007874015748
        },
        {
          "duration": 0.09375,
          "durationTicks": 96,
          "midi": 51,
          "name": "D#3",
          "ticks": 96480,
          "time": 94.21875,
          "velocity": 0.3937007874015748
        },
        {
          "duration": 0.09375,
          "durationTicks": 96,
          "midi": 47,
          "name": "B2",
          "ticks": 96576,
          "time": 94.3125,
          "velocity": 0.3937007874015748
        },
        {
          "duration": 0.09375,
          "durationTicks": 96,
          "midi": 42,
          "name": "F#2",
          "ticks": 96672,
          "time": 94.40625,
          "velocity": 0.3937007874015748
        },
        {
          "duration": 0.09375,
          "durationTicks": 96,
          "midi": 28,
          "name": "E1",
          "ticks": 159744,
          "time": 156,
          "velocity": 0.3937007874015748
        },
        {
          "duration": 0.09375,
          "durationTicks": 96,
          "midi": 40,
          "name": "E2",
          "ticks": 159744,
          "time": 156,
          "velocity": 0.3937007874015748
        },
        {
          "duration": 0.09375,
          "durationTicks": 96,
          "midi": 43,
          "name": "G2",
          "ticks": 159840,
          "time": 156.09375,
          "velocity": 0.3937007874015748
        },
        {
          "duration": 0.09375,
          "durationTicks": 96,
          "midi": 47,
          "name": "B2",
          "ticks": 159936,
          "time": 156.1875,
          "velocity": 0.3937007874015748
        },
        {
          "duration": 0.09375,
          "durationTicks": 96,
          "midi": 52,
          "name": "E3",
          "ticks": 160032,
          "time": 156.28125,
          "velocity": 0.3937007874015748
        },
        {
          "duration": 0.09375,
          "durationTicks": 96,
          "midi": 55,
          "name": "G3",
          "ticks": 160128,
          "time": 156.375,
          "velocity": 0.3937007874015748
        },
        {
          "duration": 0.09375,
          "durationTicks": 96,
          "midi": 59,
          "name": "B3",
          "ticks": 160224,
          "time": 156.46875,
          "velocity": 0.3937007874015748
        },
        {
          "duration": 0.09375,
          "durationTicks": 96,
          "midi": 64,
          "name": "E4",
          "ticks": 160320,
          "time": 156.5625,
          "velocity": 0.3937007874015748
        },
        {
          "duration": 0.09375,
          "durationTicks": 96,
          "midi": 67,
          "name": "G4",
          "ticks": 160416,
          "time": 156.65625,
          "velocity": 0.3937007874015748
        },
        {
          "duration": 0.09375,
          "durationTicks": 96,
          "midi": 71,
          "name": "B4",
          "ticks": 160512,
          "time": 156.75,
          "velocity": 0.3937007874015748
        },
        {
          "duration": 0.09375,
          "durationTicks": 96,
          "midi": 67,
          "name": "G4",
          "ticks": 160608,
          "time": 156.84375,
          "velocity": 0.3937007874015748
        },
        {
          "duration": 0.09375,
          "durationTicks": 96,
          "midi": 64,
          "name": "E4",
          "ticks": 160704,
          "time": 156.9375,
          "velocity": 0.3937007874015748
        },
        {
          "duration": 0.09375,
          "durationTicks": 96,
          "midi": 59,
          "name": "B3",
          "ticks": 160800,
          "time": 157.03125,
          "velocity": 0.3937007874015748
        },
        {
          "duration": 0.09375,
          "durationTicks": 96,
          "midi": 55,
          "name": "G3",
          "ticks": 160896,
          "time": 157.125,
          "velocity": 0.3937007874015748
        },
        {
          "duration": 0.09375,
          "durationTicks": 96,
          "midi": 52,
          "name": "E3",
          "ticks": 160992,
          "time": 157.21875,
          "velocity": 0.3937007874015748
        },
        {
          "duration": 0.09375,
          "durationTicks": 96,
          "midi": 47,
          "name": "B2",
          "ticks": 161088,
          "time": 157.3125,
          "velocity": 0.3937007874015748
        },
        {
          "duration": 0.09375,
          "durationTicks": 96,
          "midi": 43,
          "name": "G2",
          "ticks": 161184,
          "time": 157.40625,
          "velocity": 0.3937007874015748
        },
        {
          "duration": 0.09375,
          "durationTicks": 96,
          "midi": 39,
          "name": "D#2",
          "ticks": 161280,
          "time": 157.5,
          "velocity": 0.3937007874015748
        },
        {
          "duration": 0.09375,
          "durationTicks": 96,
          "midi": 27,
          "name": "D#1",
          "ticks": 161280,
          "time": 157.5,
          "velocity": 0.3937007874015748
        },
        {
          "duration": 0.09375,
          "durationTicks": 96,
          "midi": 42,
          "name": "F#2",
          "ticks": 161376,
          "time": 157.59375,
          "velocity": 0.3937007874015748
        },
        {
          "duration": 0.09375,
          "durationTicks": 96,
          "midi": 47,
          "name": "B2",
          "ticks": 161472,
          "time": 157.6875,
          "velocity": 0.3937007874015748
        },
        {
          "duration": 0.09375,
          "durationTicks": 96,
          "midi": 51,
          "name": "D#3",
          "ticks": 161568,
          "time": 157.78125,
          "velocity": 0.3937007874015748
        },
        {
          "duration": 0.09375,
          "durationTicks": 96,
          "midi": 54,
          "name": "F#3",
          "ticks": 161664,
          "time": 157.875,
          "velocity": 0.3937007874015748
        },
        {
          "duration": 0.09375,
          "durationTicks": 96,
          "midi": 59,
          "name": "B3",
          "ticks": 161760,
          "time": 157.96875,
          "velocity": 0.3937007874015748
        },
        {
          "duration": 0.09375,
          "durationTicks": 96,
          "midi": 63,
          "name": "D#4",
          "ticks": 161856,
          "time": 158.0625,
          "velocity": 0.3937007874015748
        },
        {
          "duration": 0.09375,
          "durationTicks": 96,
          "midi": 66,
          "name": "F#4",
          "ticks": 161952,
          "time": 158.15625,
          "velocity": 0.3937007874015748
        },
        {
          "duration": 0.09375,
          "durationTicks": 96,
          "midi": 71,
          "name": "B4",
          "ticks": 162048,
          "time": 158.25,
          "velocity": 0.3937007874015748
        },
        {
          "duration": 0.09375,
          "durationTicks": 96,
          "midi": 66,
          "name": "F#4",
          "ticks": 162144,
          "time": 158.34375,
          "velocity": 0.3937007874015748
        },
        {
          "duration": 0.09375,
          "durationTicks": 96,
          "midi": 63,
          "name": "D#4",
          "ticks": 162240,
          "time": 158.4375,
          "velocity": 0.3937007874015748
        },
        {
          "duration": 0.09375,
          "durationTicks": 96,
          "midi": 59,
          "name": "B3",
          "ticks": 162336,
          "time": 158.53125,
          "velocity": 0.3937007874015748
        },
        {
          "duration": 0.09375,
          "durationTicks": 96,
          "midi": 54,
          "name": "F#3",
          "ticks": 162432,
          "time": 158.625,
          "velocity": 0.3937007874015748
        },
        {
          "duration": 0.09375,
          "durationTicks": 96,
          "midi": 51,
          "name": "D#3",
          "ticks": 162528,
          "time": 158.71875,
          "velocity": 0.3937007874015748
        },
        {
          "duration": 0.09375,
          "durationTicks": 96,
          "midi": 47,
          "name": "B2",
          "ticks": 162624,
          "time": 158.8125,
          "velocity": 0.3937007874015748
        },
        {
          "duration": 0.09375,
          "durationTicks": 96,
          "midi": 42,
          "name": "F#2",
          "ticks": 162720,
          "time": 158.90625,
          "velocity": 0.3937007874015748
        },
        {
          "duration": 0.09375,
          "durationTicks": 96,
          "midi": 26,
          "name": "D1",
          "ticks": 162816,
          "time": 159,
          "velocity": 0.3937007874015748
        },
        {
          "duration": 0.09375,
          "durationTicks": 96,
          "midi": 38,
          "name": "D2",
          "ticks": 162816,
          "time": 159,
          "velocity": 0.3937007874015748
        },
        {
          "duration": 0.09375,
          "durationTicks": 96,
          "midi": 42,
          "name": "F#2",
          "ticks": 162912,
          "time": 159.09375,
          "velocity": 0.3937007874015748
        },
        {
          "duration": 0.09375,
          "durationTicks": 96,
          "midi": 47,
          "name": "B2",
          "ticks": 163008,
          "time": 159.1875,
          "velocity": 0.3937007874015748
        },
        {
          "duration": 0.09375,
          "durationTicks": 96,
          "midi": 50,
          "name": "D3",
          "ticks": 163104,
          "time": 159.28125,
          "velocity": 0.3937007874015748
        },
        {
          "duration": 0.09375,
          "durationTicks": 96,
          "midi": 54,
          "name": "F#3",
          "ticks": 163200,
          "time": 159.375,
          "velocity": 0.3937007874015748
        },
        {
          "duration": 0.09375,
          "durationTicks": 96,
          "midi": 59,
          "name": "B3",
          "ticks": 163296,
          "time": 159.46875,
          "velocity": 0.3937007874015748
        },
        {
          "duration": 0.09375,
          "durationTicks": 96,
          "midi": 62,
          "name": "D4",
          "ticks": 163392,
          "time": 159.5625,
          "velocity": 0.3937007874015748
        },
        {
          "duration": 0.09375,
          "durationTicks": 96,
          "midi": 66,
          "name": "F#4",
          "ticks": 163488,
          "time": 159.65625,
          "velocity": 0.3937007874015748
        },
        {
          "duration": 0.09375,
          "durationTicks": 96,
          "midi": 71,
          "name": "B4",
          "ticks": 163584,
          "time": 159.75,
          "velocity": 0.3937007874015748
        },
        {
          "duration": 0.09375,
          "durationTicks": 96,
          "midi": 66,
          "name": "F#4",
          "ticks": 163680,
          "time": 159.84375,
          "velocity": 0.3937007874015748
        },
        {
          "duration": 0.09375,
          "durationTicks": 96,
          "midi": 62,
          "name": "D4",
          "ticks": 163776,
          "time": 159.9375,
          "velocity": 0.3937007874015748
        },
        {
          "duration": 0.09375,
          "durationTicks": 96,
          "midi": 59,
          "name": "B3",
          "ticks": 163872,
          "time": 160.03125,
          "velocity": 0.3937007874015748
        },
        {
          "duration": 0.09375,
          "durationTicks": 96,
          "midi": 54,
          "name": "F#3",
          "ticks": 163968,
          "time": 160.125,
          "velocity": 0.3937007874015748
        },
        {
          "duration": 0.09375,
          "durationTicks": 96,
          "midi": 50,
          "name": "D3",
          "ticks": 164064,
          "time": 160.21875,
          "velocity": 0.3937007874015748
        },
        {
          "duration": 0.09375,
          "durationTicks": 96,
          "midi": 47,
          "name": "B2",
          "ticks": 164160,
          "time": 160.3125,
          "velocity": 0.3937007874015748
        },
        {
          "duration": 0.09375,
          "durationTicks": 96,
          "midi": 42,
          "name": "F#2",
          "ticks": 164256,
          "time": 160.40625,
          "velocity": 0.3937007874015748
        },
        {
          "duration": 0.09375,
          "durationTicks": 96,
          "midi": 37,
          "name": "C#2",
          "ticks": 164352,
          "time": 160.5,
          "velocity": 0.3937007874015748
        },
        {
          "duration": 0.09375,
          "durationTicks": 96,
          "midi": 25,
          "name": "C#1",
          "ticks": 164352,
          "time": 160.5,
          "velocity": 0.3937007874015748
        },
        {
          "duration": 0.09375,
          "durationTicks": 96,
          "midi": 42,
          "name": "F#2",
          "ticks": 164448,
          "time": 160.59375,
          "velocity": 0.3937007874015748
        },
        {
          "duration": 0.09375,
          "durationTicks": 96,
          "midi": 46,
          "name": "A#2",
          "ticks": 164544,
          "time": 160.6875,
          "velocity": 0.3937007874015748
        },
        {
          "duration": 0.09375,
          "durationTicks": 96,
          "midi": 49,
          "name": "C#3",
          "ticks": 164640,
          "time": 160.78125,
          "velocity": 0.3937007874015748
        },
        {
          "duration": 0.09375,
          "durationTicks": 96,
          "midi": 54,
          "name": "F#3",
          "ticks": 164736,
          "time": 160.875,
          "velocity": 0.3937007874015748
        },
        {
          "duration": 0.09375,
          "durationTicks": 96,
          "midi": 58,
          "name": "A#3",
          "ticks": 164832,
          "time": 160.96875,
          "velocity": 0.3937007874015748
        },
        {
          "duration": 0.09375,
          "durationTicks": 96,
          "midi": 61,
          "name": "C#4",
          "ticks": 164928,
          "time": 161.0625,
          "velocity": 0.3937007874015748
        },
        {
          "duration": 0.09375,
          "durationTicks": 96,
          "midi": 66,
          "name": "F#4",
          "ticks": 165024,
          "time": 161.15625,
          "velocity": 0.3937007874015748
        },
        {
          "duration": 0.09375,
          "durationTicks": 96,
          "midi": 70,
          "name": "A#4",
          "ticks": 165120,
          "time": 161.25,
          "velocity": 0.3937007874015748
        },
        {
          "duration": 0.09375,
          "durationTicks": 96,
          "midi": 66,
          "name": "F#4",
          "ticks": 165216,
          "time": 161.34375,
          "velocity": 0.3937007874015748
        },
        {
          "duration": 0.09375,
          "durationTicks": 96,
          "midi": 61,
          "name": "C#4",
          "ticks": 165312,
          "time": 161.4375,
          "velocity": 0.3937007874015748
        },
        {
          "duration": 0.09375,
          "durationTicks": 96,
          "midi": 58,
          "name": "A#3",
          "ticks": 165408,
          "time": 161.53125,
          "velocity": 0.3937007874015748
        },
        {
          "duration": 0.09375,
          "durationTicks": 96,
          "midi": 54,
          "name": "F#3",
          "ticks": 165504,
          "time": 161.625,
          "velocity": 0.3937007874015748
        },
        {
          "duration": 0.09375,
          "durationTicks": 96,
          "midi": 49,
          "name": "C#3",
          "ticks": 165600,
          "time": 161.71875,
          "velocity": 0.3937007874015748
        },
        {
          "duration": 0.09375,
          "durationTicks": 96,
          "midi": 46,
          "name": "A#2",
          "ticks": 165696,
          "time": 161.8125,
          "velocity": 0.3937007874015748
        },
        {
          "duration": 0.09375,
          "durationTicks": 96,
          "midi": 42,
          "name": "F#2",
          "ticks": 165792,
          "time": 161.90625,
          "velocity": 0.3937007874015748
        },
        {
          "duration": 0.09375,
          "durationTicks": 96,
          "midi": 24,
          "name": "C1",
          "ticks": 165888,
          "time": 162,
          "velocity": 0.3937007874015748
        },
        {
          "duration": 0.09375,
          "durationTicks": 96,
          "midi": 36,
          "name": "C2",
          "ticks": 165888,
          "time": 162,
          "velocity": 0.3937007874015748
        },
        {
          "duration": 0.09375,
          "durationTicks": 96,
          "midi": 36,
          "name": "C2",
          "ticks": 165888,
          "time": 162,
          "velocity": 0.3937007874015748
        },
        {
          "duration": 0.09375,
          "durationTicks": 96,
          "midi": 40,
          "name": "E2",
          "ticks": 165984,
          "time": 162.09375,
          "velocity": 0.3937007874015748
        },
        {
          "duration": 0.09375,
          "durationTicks": 96,
          "midi": 45,
          "name": "A2",
          "ticks": 166080,
          "time": 162.1875,
          "velocity": 0.3937007874015748
        },
        {
          "duration": 0.09375,
          "durationTicks": 96,
          "midi": 48,
          "name": "C3",
          "ticks": 166176,
          "time": 162.28125,
          "velocity": 0.3937007874015748
        },
        {
          "duration": 0.09375,
          "durationTicks": 96,
          "midi": 52,
          "name": "E3",
          "ticks": 166272,
          "time": 162.375,
          "velocity": 0.3937007874015748
        },
        {
          "duration": 0.09375,
          "durationTicks": 96,
          "midi": 57,
          "name": "A3",
          "ticks": 166368,
          "time": 162.46875,
          "velocity": 0.3937007874015748
        },
        {
          "duration": 0.09375,
          "durationTicks": 96,
          "midi": 60,
          "name": "C4",
          "ticks": 166464,
          "time": 162.5625,
          "velocity": 0.3937007874015748
        },
        {
          "duration": 0.09375,
          "durationTicks": 96,
          "midi": 64,
          "name": "E4",
          "ticks": 166560,
          "time": 162.65625,
          "velocity": 0.3937007874015748
        },
        {
          "duration": 0.09375,
          "durationTicks": 96,
          "midi": 69,
          "name": "A4",
          "ticks": 166656,
          "time": 162.75,
          "velocity": 0.3937007874015748
        },
        {
          "duration": 0.09375,
          "durationTicks": 96,
          "midi": 64,
          "name": "E4",
          "ticks": 166752,
          "time": 162.84375,
          "velocity": 0.3937007874015748
        },
        {
          "duration": 0.09375,
          "durationTicks": 96,
          "midi": 60,
          "name": "C4",
          "ticks": 166848,
          "time": 162.9375,
          "velocity": 0.3937007874015748
        },
        {
          "duration": 0.09375,
          "durationTicks": 96,
          "midi": 57,
          "name": "A3",
          "ticks": 166944,
          "time": 163.03125,
          "velocity": 0.3937007874015748
        },
        {
          "duration": 0.09375,
          "durationTicks": 96,
          "midi": 52,
          "name": "E3",
          "ticks": 167040,
          "time": 163.125,
          "velocity": 0.3937007874015748
        },
        {
          "duration": 0.09375,
          "durationTicks": 96,
          "midi": 48,
          "name": "C3",
          "ticks": 167136,
          "time": 163.21875,
          "velocity": 0.3937007874015748
        },
        {
          "duration": 0.09375,
          "durationTicks": 96,
          "midi": 45,
          "name": "A2",
          "ticks": 167232,
          "time": 163.3125,
          "velocity": 0.3937007874015748
        },
        {
          "duration": 0.09375,
          "durationTicks": 96,
          "midi": 40,
          "name": "E2",
          "ticks": 167328,
          "time": 163.40625,
          "velocity": 0.3937007874015748
        },
        {
          "duration": 0.09375,
          "durationTicks": 96,
          "midi": 35,
          "name": "B1",
          "ticks": 167424,
          "time": 163.5,
          "velocity": 0.3937007874015748
        },
        {
          "duration": 0.09375,
          "durationTicks": 96,
          "midi": 39,
          "name": "D#2",
          "ticks": 167520,
          "time": 163.59375,
          "velocity": 0.3937007874015748
        },
        {
          "duration": 0.09375,
          "durationTicks": 96,
          "midi": 42,
          "name": "F#2",
          "ticks": 167616,
          "time": 163.6875,
          "velocity": 0.3937007874015748
        },
        {
          "duration": 0.09375,
          "durationTicks": 96,
          "midi": 47,
          "name": "B2",
          "ticks": 167712,
          "time": 163.78125,
          "velocity": 0.3937007874015748
        },
        {
          "duration": 0.09375,
          "durationTicks": 96,
          "midi": 51,
          "name": "D#3",
          "ticks": 167808,
          "time": 163.875,
          "velocity": 0.3937007874015748
        },
        {
          "duration": 0.09375,
          "durationTicks": 96,
          "midi": 54,
          "name": "F#3",
          "ticks": 167904,
          "time": 163.96875,
          "velocity": 0.3937007874015748
        },
        {
          "duration": 0.09375,
          "durationTicks": 96,
          "midi": 59,
          "name": "B3",
          "ticks": 168000,
          "time": 164.0625,
          "velocity": 0.3937007874015748
        },
        {
          "duration": 0.09375,
          "durationTicks": 96,
          "midi": 63,
          "name": "D#4",
          "ticks": 168096,
          "time": 164.15625,
          "velocity": 0.3937007874015748
        },
        {
          "duration": 0.09375,
          "durationTicks": 96,
          "midi": 66,
          "name": "F#4",
          "ticks": 168192,
          "time": 164.25,
          "velocity": 0.3937007874015748
        },
        {
          "duration": 0.09375,
          "durationTicks": 96,
          "midi": 63,
          "name": "D#4",
          "ticks": 168288,
          "time": 164.34375,
          "velocity": 0.3937007874015748
        },
        {
          "duration": 0.09375,
          "durationTicks": 96,
          "midi": 59,
          "name": "B3",
          "ticks": 168384,
          "time": 164.4375,
          "velocity": 0.3937007874015748
        },
        {
          "duration": 0.09375,
          "durationTicks": 96,
          "midi": 54,
          "name": "F#3",
          "ticks": 168480,
          "time": 164.53125,
          "velocity": 0.3937007874015748
        },
        {
          "duration": 0.09375,
          "durationTicks": 96,
          "midi": 51,
          "name": "D#3",
          "ticks": 168576,
          "time": 164.625,
          "velocity": 0.3937007874015748
        },
        {
          "duration": 0.09375,
          "durationTicks": 96,
          "midi": 47,
          "name": "B2",
          "ticks": 168672,
          "time": 164.71875,
          "velocity": 0.3937007874015748
        },
        {
          "duration": 0.09375,
          "durationTicks": 96,
          "midi": 42,
          "name": "F#2",
          "ticks": 168768,
          "time": 164.8125,
          "velocity": 0.3937007874015748
        },
        {
          "duration": 0.09375,
          "durationTicks": 96,
          "midi": 39,
          "name": "D#2",
          "ticks": 168864,
          "time": 164.90625,
          "velocity": 0.3937007874015748
        },
        {
          "duration": 0.09375,
          "durationTicks": 96,
          "midi": 39,
          "name": "D#2",
          "ticks": 168864,
          "time": 164.90625,
          "velocity": 0.3937007874015748
        },
        {
          "duration": 0.09375,
          "durationTicks": 96,
          "midi": 29,
          "name": "F1",
          "ticks": 168960,
          "time": 165,
          "velocity": 0.3937007874015748
        },
        {
          "duration": 0.09375,
          "durationTicks": 96,
          "midi": 29,
          "name": "F1",
          "ticks": 168960,
          "time": 165,
          "velocity": 0.3937007874015748
        },
        {
          "duration": 0.09375,
          "durationTicks": 96,
          "midi": 41,
          "name": "F2",
          "ticks": 168960,
          "time": 165,
          "velocity": 0.3937007874015748
        },
        {
          "duration": 0.09375,
          "durationTicks": 96,
          "midi": 45,
          "name": "A2",
          "ticks": 169056,
          "time": 165.09375,
          "velocity": 0.3937007874015748
        },
        {
          "duration": 0.09375,
          "durationTicks": 96,
          "midi": 48,
          "name": "C3",
          "ticks": 169152,
          "time": 165.1875,
          "velocity": 0.3937007874015748
        },
        {
          "duration": 0.09375,
          "durationTicks": 96,
          "midi": 53,
          "name": "F3",
          "ticks": 169248,
          "time": 165.28125,
          "velocity": 0.3937007874015748
        },
        {
          "duration": 0.09375,
          "durationTicks": 96,
          "midi": 57,
          "name": "A3",
          "ticks": 169344,
          "time": 165.375,
          "velocity": 0.3937007874015748
        },
        {
          "duration": 0.09375,
          "durationTicks": 96,
          "midi": 60,
          "name": "C4",
          "ticks": 169440,
          "time": 165.46875,
          "velocity": 0.3937007874015748
        },
        {
          "duration": 0.09375,
          "durationTicks": 96,
          "midi": 65,
          "name": "F4",
          "ticks": 169536,
          "time": 165.5625,
          "velocity": 0.3937007874015748
        },
        {
          "duration": 0.09375,
          "durationTicks": 96,
          "midi": 69,
          "name": "A4",
          "ticks": 169632,
          "time": 165.65625,
          "velocity": 0.3937007874015748
        },
        {
          "duration": 0.09375,
          "durationTicks": 96,
          "midi": 72,
          "name": "C5",
          "ticks": 169728,
          "time": 165.75,
          "velocity": 0.3937007874015748
        },
        {
          "duration": 0.09375,
          "durationTicks": 96,
          "midi": 69,
          "name": "A4",
          "ticks": 169824,
          "time": 165.84375,
          "velocity": 0.3937007874015748
        },
        {
          "duration": 0.09375,
          "durationTicks": 96,
          "midi": 65,
          "name": "F4",
          "ticks": 169920,
          "time": 165.9375,
          "velocity": 0.3937007874015748
        },
        {
          "duration": 0.09375,
          "durationTicks": 96,
          "midi": 60,
          "name": "C4",
          "ticks": 170016,
          "time": 166.03125,
          "velocity": 0.3937007874015748
        },
        {
          "duration": 0.09375,
          "durationTicks": 96,
          "midi": 57,
          "name": "A3",
          "ticks": 170112,
          "time": 166.125,
          "velocity": 0.3937007874015748
        },
        {
          "duration": 0.09375,
          "durationTicks": 96,
          "midi": 53,
          "name": "F3",
          "ticks": 170208,
          "time": 166.21875,
          "velocity": 0.3937007874015748
        },
        {
          "duration": 0.09375,
          "durationTicks": 96,
          "midi": 48,
          "name": "C3",
          "ticks": 170304,
          "time": 166.3125,
          "velocity": 0.3937007874015748
        },
        {
          "duration": 0.09375,
          "durationTicks": 96,
          "midi": 45,
          "name": "A2",
          "ticks": 170400,
          "time": 166.40625,
          "velocity": 0.3937007874015748
        },
        {
          "duration": 0.09375,
          "durationTicks": 96,
          "midi": 39,
          "name": "D#2",
          "ticks": 170496,
          "time": 166.5,
          "velocity": 0.3937007874015748
        },
        {
          "duration": 0.09375,
          "durationTicks": 96,
          "midi": 25,
          "name": "C#1",
          "ticks": 170496,
          "time": 166.5,
          "velocity": 0.3937007874015748
        },
        {
          "duration": 0.09375,
          "durationTicks": 96,
          "midi": 42,
          "name": "F#2",
          "ticks": 170592,
          "time": 166.59375,
          "velocity": 0.3937007874015748
        },
        {
          "duration": 0.09375,
          "durationTicks": 96,
          "midi": 47,
          "name": "B2",
          "ticks": 170688,
          "time": 166.6875,
          "velocity": 0.3937007874015748
        },
        {
          "duration": 0.09375,
          "durationTicks": 96,
          "midi": 51,
          "name": "D#3",
          "ticks": 170784,
          "time": 166.78125,
          "velocity": 0.3937007874015748
        },
        {
          "duration": 0.09375,
          "durationTicks": 96,
          "midi": 54,
          "name": "F#3",
          "ticks": 170880,
          "time": 166.875,
          "velocity": 0.3937007874015748
        },
        {
          "duration": 0.09375,
          "durationTicks": 96,
          "midi": 59,
          "name": "B3",
          "ticks": 170976,
          "time": 166.96875,
          "velocity": 0.3937007874015748
        },
        {
          "duration": 0.09375,
          "durationTicks": 96,
          "midi": 63,
          "name": "D#4",
          "ticks": 171072,
          "time": 167.0625,
          "velocity": 0.3937007874015748
        },
        {
          "duration": 0.09375,
          "durationTicks": 96,
          "midi": 66,
          "name": "F#4",
          "ticks": 171168,
          "time": 167.15625,
          "velocity": 0.3937007874015748
        },
        {
          "duration": 0.09375,
          "durationTicks": 96,
          "midi": 71,
          "name": "B4",
          "ticks": 171264,
          "time": 167.25,
          "velocity": 0.3937007874015748
        },
        {
          "duration": 0.09375,
          "durationTicks": 96,
          "midi": 66,
          "name": "F#4",
          "ticks": 171360,
          "time": 167.34375,
          "velocity": 0.3937007874015748
        },
        {
          "duration": 0.09375,
          "durationTicks": 96,
          "midi": 63,
          "name": "D#4",
          "ticks": 171456,
          "time": 167.4375,
          "velocity": 0.3937007874015748
        },
        {
          "duration": 0.09375,
          "durationTicks": 96,
          "midi": 59,
          "name": "B3",
          "ticks": 171552,
          "time": 167.53125,
          "velocity": 0.3937007874015748
        },
        {
          "duration": 0.09375,
          "durationTicks": 96,
          "midi": 54,
          "name": "F#3",
          "ticks": 171648,
          "time": 167.625,
          "velocity": 0.3937007874015748
        },
        {
          "duration": 0.09375,
          "durationTicks": 96,
          "midi": 51,
          "name": "D#3",
          "ticks": 171744,
          "time": 167.71875,
          "velocity": 0.3937007874015748
        },
        {
          "duration": 0.09375,
          "durationTicks": 96,
          "midi": 47,
          "name": "B2",
          "ticks": 171840,
          "time": 167.8125,
          "velocity": 0.3937007874015748
        },
        {
          "duration": 0.09375,
          "durationTicks": 96,
          "midi": 42,
          "name": "F#2",
          "ticks": 171936,
          "time": 167.90625,
          "velocity": 0.3937007874015748
        },
        {
          "duration": 0.09375,
          "durationTicks": 96,
          "midi": 28,
          "name": "E1",
          "ticks": 172032,
          "time": 168,
          "velocity": 0.3937007874015748
        },
        {
          "duration": 0.09375,
          "durationTicks": 96,
          "midi": 40,
          "name": "E2",
          "ticks": 172032,
          "time": 168,
          "velocity": 0.3937007874015748
        },
        {
          "duration": 0.09375,
          "durationTicks": 96,
          "midi": 43,
          "name": "G2",
          "ticks": 172128,
          "time": 168.09375,
          "velocity": 0.3937007874015748
        },
        {
          "duration": 0.09375,
          "durationTicks": 96,
          "midi": 47,
          "name": "B2",
          "ticks": 172224,
          "time": 168.1875,
          "velocity": 0.3937007874015748
        },
        {
          "duration": 0.09375,
          "durationTicks": 96,
          "midi": 52,
          "name": "E3",
          "ticks": 172320,
          "time": 168.28125,
          "velocity": 0.3937007874015748
        },
        {
          "duration": 0.09375,
          "durationTicks": 96,
          "midi": 55,
          "name": "G3",
          "ticks": 172416,
          "time": 168.375,
          "velocity": 0.3937007874015748
        },
        {
          "duration": 0.09375,
          "durationTicks": 96,
          "midi": 59,
          "name": "B3",
          "ticks": 172512,
          "time": 168.46875,
          "velocity": 0.3937007874015748
        },
        {
          "duration": 0.09375,
          "durationTicks": 96,
          "midi": 64,
          "name": "E4",
          "ticks": 172608,
          "time": 168.5625,
          "velocity": 0.3937007874015748
        },
        {
          "duration": 0.09375,
          "durationTicks": 96,
          "midi": 67,
          "name": "G4",
          "ticks": 172704,
          "time": 168.65625,
          "velocity": 0.3937007874015748
        },
        {
          "duration": 0.09375,
          "durationTicks": 96,
          "midi": 71,
          "name": "B4",
          "ticks": 172800,
          "time": 168.75,
          "velocity": 0.3937007874015748
        },
        {
          "duration": 0.09375,
          "durationTicks": 96,
          "midi": 67,
          "name": "G4",
          "ticks": 172896,
          "time": 168.84375,
          "velocity": 0.3937007874015748
        },
        {
          "duration": 0.09375,
          "durationTicks": 96,
          "midi": 64,
          "name": "E4",
          "ticks": 172992,
          "time": 168.9375,
          "velocity": 0.3937007874015748
        },
        {
          "duration": 0.09375,
          "durationTicks": 96,
          "midi": 59,
          "name": "B3",
          "ticks": 173088,
          "time": 169.03125,
          "velocity": 0.3937007874015748
        },
        {
          "duration": 0.09375,
          "durationTicks": 96,
          "midi": 55,
          "name": "G3",
          "ticks": 173184,
          "time": 169.125,
          "velocity": 0.3937007874015748
        },
        {
          "duration": 0.09375,
          "durationTicks": 96,
          "midi": 52,
          "name": "E3",
          "ticks": 173280,
          "time": 169.21875,
          "velocity": 0.3937007874015748
        },
        {
          "duration": 0.09375,
          "durationTicks": 96,
          "midi": 47,
          "name": "B2",
          "ticks": 173376,
          "time": 169.3125,
          "velocity": 0.3937007874015748
        },
        {
          "duration": 0.09375,
          "durationTicks": 96,
          "midi": 43,
          "name": "G2",
          "ticks": 173472,
          "time": 169.40625,
          "velocity": 0.3937007874015748
        },
        {
          "duration": 0.09375,
          "durationTicks": 96,
          "midi": 27,
          "name": "D#1",
          "ticks": 173568,
          "time": 169.5,
          "velocity": 0.3937007874015748
        },
        {
          "duration": 0.09375,
          "durationTicks": 96,
          "midi": 39,
          "name": "D#2",
          "ticks": 173568,
          "time": 169.5,
          "velocity": 0.3937007874015748
        },
        {
          "duration": 0.09375,
          "durationTicks": 96,
          "midi": 42,
          "name": "F#2",
          "ticks": 173664,
          "time": 169.59375,
          "velocity": 0.3937007874015748
        },
        {
          "duration": 0.09375,
          "durationTicks": 96,
          "midi": 47,
          "name": "B2",
          "ticks": 173760,
          "time": 169.6875,
          "velocity": 0.3937007874015748
        },
        {
          "duration": 0.09375,
          "durationTicks": 96,
          "midi": 51,
          "name": "D#3",
          "ticks": 173856,
          "time": 169.78125,
          "velocity": 0.3937007874015748
        },
        {
          "duration": 0.09375,
          "durationTicks": 96,
          "midi": 54,
          "name": "F#3",
          "ticks": 173952,
          "time": 169.875,
          "velocity": 0.3937007874015748
        },
        {
          "duration": 0.09375,
          "durationTicks": 96,
          "midi": 59,
          "name": "B3",
          "ticks": 174048,
          "time": 169.96875,
          "velocity": 0.3937007874015748
        },
        {
          "duration": 0.09375,
          "durationTicks": 96,
          "midi": 63,
          "name": "D#4",
          "ticks": 174144,
          "time": 170.0625,
          "velocity": 0.3937007874015748
        },
        {
          "duration": 0.09375,
          "durationTicks": 96,
          "midi": 66,
          "name": "F#4",
          "ticks": 174240,
          "time": 170.15625,
          "velocity": 0.3937007874015748
        },
        {
          "duration": 0.09375,
          "durationTicks": 96,
          "midi": 71,
          "name": "B4",
          "ticks": 174336,
          "time": 170.25,
          "velocity": 0.3937007874015748
        },
        {
          "duration": 0.09375,
          "durationTicks": 96,
          "midi": 66,
          "name": "F#4",
          "ticks": 174432,
          "time": 170.34375,
          "velocity": 0.3937007874015748
        },
        {
          "duration": 0.09375,
          "durationTicks": 96,
          "midi": 63,
          "name": "D#4",
          "ticks": 174528,
          "time": 170.4375,
          "velocity": 0.3937007874015748
        },
        {
          "duration": 0.09375,
          "durationTicks": 96,
          "midi": 59,
          "name": "B3",
          "ticks": 174624,
          "time": 170.53125,
          "velocity": 0.3937007874015748
        },
        {
          "duration": 0.09375,
          "durationTicks": 96,
          "midi": 54,
          "name": "F#3",
          "ticks": 174720,
          "time": 170.625,
          "velocity": 0.3937007874015748
        },
        {
          "duration": 0.09375,
          "durationTicks": 96,
          "midi": 51,
          "name": "D#3",
          "ticks": 174816,
          "time": 170.71875,
          "velocity": 0.3937007874015748
        },
        {
          "duration": 0.09375,
          "durationTicks": 96,
          "midi": 47,
          "name": "B2",
          "ticks": 174912,
          "time": 170.8125,
          "velocity": 0.3937007874015748
        },
        {
          "duration": 0.09375,
          "durationTicks": 96,
          "midi": 42,
          "name": "F#2",
          "ticks": 175008,
          "time": 170.90625,
          "velocity": 0.3937007874015748
        },
        {
          "duration": 0.09375,
          "durationTicks": 96,
          "midi": 26,
          "name": "D1",
          "ticks": 175104,
          "time": 171,
          "velocity": 0.3937007874015748
        },
        {
          "duration": 0.09375,
          "durationTicks": 96,
          "midi": 38,
          "name": "D2",
          "ticks": 175104,
          "time": 171,
          "velocity": 0.3937007874015748
        },
        {
          "duration": 0.09375,
          "durationTicks": 96,
          "midi": 42,
          "name": "F#2",
          "ticks": 175200,
          "time": 171.09375,
          "velocity": 0.3937007874015748
        },
        {
          "duration": 0.09375,
          "durationTicks": 96,
          "midi": 47,
          "name": "B2",
          "ticks": 175296,
          "time": 171.1875,
          "velocity": 0.3937007874015748
        },
        {
          "duration": 0.09375,
          "durationTicks": 96,
          "midi": 50,
          "name": "D3",
          "ticks": 175392,
          "time": 171.28125,
          "velocity": 0.3937007874015748
        },
        {
          "duration": 0.09375,
          "durationTicks": 96,
          "midi": 54,
          "name": "F#3",
          "ticks": 175488,
          "time": 171.375,
          "velocity": 0.3937007874015748
        },
        {
          "duration": 0.09375,
          "durationTicks": 96,
          "midi": 59,
          "name": "B3",
          "ticks": 175584,
          "time": 171.46875,
          "velocity": 0.3937007874015748
        },
        {
          "duration": 0.09375,
          "durationTicks": 96,
          "midi": 62,
          "name": "D4",
          "ticks": 175680,
          "time": 171.5625,
          "velocity": 0.3937007874015748
        },
        {
          "duration": 0.09375,
          "durationTicks": 96,
          "midi": 66,
          "name": "F#4",
          "ticks": 175776,
          "time": 171.65625,
          "velocity": 0.3937007874015748
        },
        {
          "duration": 0.09375,
          "durationTicks": 96,
          "midi": 71,
          "name": "B4",
          "ticks": 175872,
          "time": 171.75,
          "velocity": 0.3937007874015748
        },
        {
          "duration": 0.09375,
          "durationTicks": 96,
          "midi": 66,
          "name": "F#4",
          "ticks": 175968,
          "time": 171.84375,
          "velocity": 0.3937007874015748
        },
        {
          "duration": 0.09375,
          "durationTicks": 96,
          "midi": 62,
          "name": "D4",
          "ticks": 176064,
          "time": 171.9375,
          "velocity": 0.3937007874015748
        },
        {
          "duration": 0.09375,
          "durationTicks": 96,
          "midi": 59,
          "name": "B3",
          "ticks": 176160,
          "time": 172.03125,
          "velocity": 0.3937007874015748
        },
        {
          "duration": 0.09375,
          "durationTicks": 96,
          "midi": 54,
          "name": "F#3",
          "ticks": 176256,
          "time": 172.125,
          "velocity": 0.3937007874015748
        },
        {
          "duration": 0.09375,
          "durationTicks": 96,
          "midi": 50,
          "name": "D3",
          "ticks": 176352,
          "time": 172.21875,
          "velocity": 0.3937007874015748
        },
        {
          "duration": 0.09375,
          "durationTicks": 96,
          "midi": 47,
          "name": "B2",
          "ticks": 176448,
          "time": 172.3125,
          "velocity": 0.3937007874015748
        },
        {
          "duration": 0.09375,
          "durationTicks": 96,
          "midi": 42,
          "name": "F#2",
          "ticks": 176544,
          "time": 172.40625,
          "velocity": 0.3937007874015748
        },
        {
          "duration": 0.09375,
          "durationTicks": 96,
          "midi": 25,
          "name": "C#1",
          "ticks": 176640,
          "time": 172.5,
          "velocity": 0.3937007874015748
        },
        {
          "duration": 0.09375,
          "durationTicks": 96,
          "midi": 37,
          "name": "C#2",
          "ticks": 176640,
          "time": 172.5,
          "velocity": 0.3937007874015748
        },
        {
          "duration": 0.09375,
          "durationTicks": 96,
          "midi": 42,
          "name": "F#2",
          "ticks": 176736,
          "time": 172.59375,
          "velocity": 0.3937007874015748
        },
        {
          "duration": 0.09375,
          "durationTicks": 96,
          "midi": 46,
          "name": "A#2",
          "ticks": 176832,
          "time": 172.6875,
          "velocity": 0.3937007874015748
        },
        {
          "duration": 0.09375,
          "durationTicks": 96,
          "midi": 49,
          "name": "C#3",
          "ticks": 176928,
          "time": 172.78125,
          "velocity": 0.3937007874015748
        },
        {
          "duration": 0.09375,
          "durationTicks": 96,
          "midi": 54,
          "name": "F#3",
          "ticks": 177024,
          "time": 172.875,
          "velocity": 0.3937007874015748
        },
        {
          "duration": 0.09375,
          "durationTicks": 96,
          "midi": 58,
          "name": "A#3",
          "ticks": 177120,
          "time": 172.96875,
          "velocity": 0.3937007874015748
        },
        {
          "duration": 0.09375,
          "durationTicks": 96,
          "midi": 61,
          "name": "C#4",
          "ticks": 177216,
          "time": 173.0625,
          "velocity": 0.3937007874015748
        },
        {
          "duration": 0.09375,
          "durationTicks": 96,
          "midi": 66,
          "name": "F#4",
          "ticks": 177312,
          "time": 173.15625,
          "velocity": 0.3937007874015748
        },
        {
          "duration": 0.09375,
          "durationTicks": 96,
          "midi": 70,
          "name": "A#4",
          "ticks": 177408,
          "time": 173.25,
          "velocity": 0.3937007874015748
        },
        {
          "duration": 0.09375,
          "durationTicks": 96,
          "midi": 66,
          "name": "F#4",
          "ticks": 177504,
          "time": 173.34375,
          "velocity": 0.3937007874015748
        },
        {
          "duration": 0.09375,
          "durationTicks": 96,
          "midi": 61,
          "name": "C#4",
          "ticks": 177600,
          "time": 173.4375,
          "velocity": 0.3937007874015748
        },
        {
          "duration": 0.09375,
          "durationTicks": 96,
          "midi": 58,
          "name": "A#3",
          "ticks": 177696,
          "time": 173.53125,
          "velocity": 0.3937007874015748
        },
        {
          "duration": 0.09375,
          "durationTicks": 96,
          "midi": 54,
          "name": "F#3",
          "ticks": 177792,
          "time": 173.625,
          "velocity": 0.3937007874015748
        },
        {
          "duration": 0.09375,
          "durationTicks": 96,
          "midi": 49,
          "name": "C#3",
          "ticks": 177888,
          "time": 173.71875,
          "velocity": 0.3937007874015748
        },
        {
          "duration": 0.09375,
          "durationTicks": 96,
          "midi": 46,
          "name": "A#2",
          "ticks": 177984,
          "time": 173.8125,
          "velocity": 0.3937007874015748
        },
        {
          "duration": 0.09375,
          "durationTicks": 96,
          "midi": 42,
          "name": "F#2",
          "ticks": 178080,
          "time": 173.90625,
          "velocity": 0.3937007874015748
        },
        {
          "duration": 0.09375,
          "durationTicks": 96,
          "midi": 36,
          "name": "C2",
          "ticks": 178176,
          "time": 174,
          "velocity": 0.3937007874015748
        },
        {
          "duration": 0.09375,
          "durationTicks": 96,
          "midi": 24,
          "name": "C1",
          "ticks": 178176,
          "time": 174,
          "velocity": 0.3937007874015748
        },
        {
          "duration": 0.09375,
          "durationTicks": 96,
          "midi": 40,
          "name": "E2",
          "ticks": 178272,
          "time": 174.09375,
          "velocity": 0.3937007874015748
        },
        {
          "duration": 0.09375,
          "durationTicks": 96,
          "midi": 45,
          "name": "A2",
          "ticks": 178368,
          "time": 174.1875,
          "velocity": 0.3937007874015748
        },
        {
          "duration": 0.09375,
          "durationTicks": 96,
          "midi": 48,
          "name": "C3",
          "ticks": 178464,
          "time": 174.28125,
          "velocity": 0.3937007874015748
        },
        {
          "duration": 0.09375,
          "durationTicks": 96,
          "midi": 52,
          "name": "E3",
          "ticks": 178560,
          "time": 174.375,
          "velocity": 0.3937007874015748
        },
        {
          "duration": 0.28125,
          "durationTicks": 288,
          "midi": 52,
          "name": "E3",
          "ticks": 178560,
          "time": 174.375,
          "velocity": 0.3937007874015748
        },
        {
          "duration": 0.09375,
          "durationTicks": 96,
          "midi": 57,
          "name": "A3",
          "ticks": 178656,
          "time": 174.46875,
          "velocity": 0.3937007874015748
        },
        {
          "duration": 0.09375,
          "durationTicks": 96,
          "midi": 60,
          "name": "C4",
          "ticks": 178752,
          "time": 174.5625,
          "velocity": 0.3937007874015748
        },
        {
          "duration": 0.09375,
          "durationTicks": 96,
          "midi": 64,
          "name": "E4",
          "ticks": 178848,
          "time": 174.65625,
          "velocity": 0.3937007874015748
        },
        {
          "duration": 0.09375,
          "durationTicks": 96,
          "midi": 69,
          "name": "A4",
          "ticks": 178944,
          "time": 174.75,
          "velocity": 0.3937007874015748
        },
        {
          "duration": 0.09375,
          "durationTicks": 96,
          "midi": 64,
          "name": "E4",
          "ticks": 179040,
          "time": 174.84375,
          "velocity": 0.3937007874015748
        },
        {
          "duration": 0.09375,
          "durationTicks": 96,
          "midi": 60,
          "name": "C4",
          "ticks": 179136,
          "time": 174.9375,
          "velocity": 0.3937007874015748
        },
        {
          "duration": 0.09375,
          "durationTicks": 96,
          "midi": 57,
          "name": "A3",
          "ticks": 179232,
          "time": 175.03125,
          "velocity": 0.3937007874015748
        },
        {
          "duration": 0.09375,
          "durationTicks": 96,
          "midi": 52,
          "name": "E3",
          "ticks": 179328,
          "time": 175.125,
          "velocity": 0.3937007874015748
        },
        {
          "duration": 0.09375,
          "durationTicks": 96,
          "midi": 48,
          "name": "C3",
          "ticks": 179424,
          "time": 175.21875,
          "velocity": 0.3937007874015748
        },
        {
          "duration": 0.09375,
          "durationTicks": 96,
          "midi": 45,
          "name": "A2",
          "ticks": 179520,
          "time": 175.3125,
          "velocity": 0.3937007874015748
        },
        {
          "duration": 0.09375,
          "durationTicks": 96,
          "midi": 40,
          "name": "E2",
          "ticks": 179616,
          "time": 175.40625,
          "velocity": 0.3937007874015748
        },
        {
          "duration": 0.09375,
          "durationTicks": 96,
          "midi": 25,
          "name": "C#1",
          "ticks": 179712,
          "time": 175.5,
          "velocity": 0.3937007874015748
        },
        {
          "duration": 0.09375,
          "durationTicks": 96,
          "midi": 39,
          "name": "D#2",
          "ticks": 179712,
          "time": 175.5,
          "velocity": 0.3937007874015748
        },
        {
          "duration": 0.09375,
          "durationTicks": 96,
          "midi": 42,
          "name": "F#2",
          "ticks": 179808,
          "time": 175.59375,
          "velocity": 0.3937007874015748
        },
        {
          "duration": 0.09375,
          "durationTicks": 96,
          "midi": 47,
          "name": "B2",
          "ticks": 179904,
          "time": 175.6875,
          "velocity": 0.3937007874015748
        },
        {
          "duration": 0.09375,
          "durationTicks": 96,
          "midi": 51,
          "name": "D#3",
          "ticks": 180000,
          "time": 175.78125,
          "velocity": 0.3937007874015748
        },
        {
          "duration": 0.09375,
          "durationTicks": 96,
          "midi": 54,
          "name": "F#3",
          "ticks": 180096,
          "time": 175.875,
          "velocity": 0.3937007874015748
        },
        {
          "duration": 0.09375,
          "durationTicks": 96,
          "midi": 59,
          "name": "B3",
          "ticks": 180192,
          "time": 175.96875,
          "velocity": 0.3937007874015748
        },
        {
          "duration": 0.09375,
          "durationTicks": 96,
          "midi": 66,
          "name": "F#4",
          "ticks": 180384,
          "time": 176.15625,
          "velocity": 0.3937007874015748
        },
        {
          "duration": 0.09375,
          "durationTicks": 96,
          "midi": 71,
          "name": "B4",
          "ticks": 180480,
          "time": 176.25,
          "velocity": 0.3937007874015748
        },
        {
          "duration": 0.09375,
          "durationTicks": 96,
          "midi": 66,
          "name": "F#4",
          "ticks": 180576,
          "time": 176.34375,
          "velocity": 0.3937007874015748
        },
        {
          "duration": 0.09375,
          "durationTicks": 96,
          "midi": 63,
          "name": "D#4",
          "ticks": 180672,
          "time": 176.4375,
          "velocity": 0.3937007874015748
        },
        {
          "duration": 0.09375,
          "durationTicks": 96,
          "midi": 59,
          "name": "B3",
          "ticks": 180768,
          "time": 176.53125,
          "velocity": 0.3937007874015748
        },
        {
          "duration": 0.09375,
          "durationTicks": 96,
          "midi": 54,
          "name": "F#3",
          "ticks": 180864,
          "time": 176.625,
          "velocity": 0.3937007874015748
        },
        {
          "duration": 0.09375,
          "durationTicks": 96,
          "midi": 51,
          "name": "D#3",
          "ticks": 180960,
          "time": 176.71875,
          "velocity": 0.3937007874015748
        },
        {
          "duration": 0.09375,
          "durationTicks": 96,
          "midi": 47,
          "name": "B2",
          "ticks": 181056,
          "time": 176.8125,
          "velocity": 0.3937007874015748
        },
        {
          "duration": 0.09375,
          "durationTicks": 96,
          "midi": 42,
          "name": "F#2",
          "ticks": 181152,
          "time": 176.90625,
          "velocity": 0.3937007874015748
        },
        {
          "duration": 0.09375,
          "durationTicks": 96,
          "midi": 29,
          "name": "F1",
          "ticks": 193536,
          "time": 189,
          "velocity": 0.3937007874015748
        },
        {
          "duration": 0.09375,
          "durationTicks": 96,
          "midi": 41,
          "name": "F2",
          "ticks": 193536,
          "time": 189,
          "velocity": 0.3937007874015748
        },
        {
          "duration": 0.09375,
          "durationTicks": 96,
          "midi": 44,
          "name": "G#2",
          "ticks": 193632,
          "time": 189.09375,
          "velocity": 0.3937007874015748
        },
        {
          "duration": 0.09375,
          "durationTicks": 96,
          "midi": 48,
          "name": "C3",
          "ticks": 193728,
          "time": 189.1875,
          "velocity": 0.3937007874015748
        },
        {
          "duration": 0.09375,
          "durationTicks": 96,
          "midi": 53,
          "name": "F3",
          "ticks": 193824,
          "time": 189.28125,
          "velocity": 0.3937007874015748
        },
        {
          "duration": 0.09375,
          "durationTicks": 96,
          "midi": 56,
          "name": "G#3",
          "ticks": 193920,
          "time": 189.375,
          "velocity": 0.3937007874015748
        },
        {
          "duration": 0.09375,
          "durationTicks": 96,
          "midi": 60,
          "name": "C4",
          "ticks": 194016,
          "time": 189.46875,
          "velocity": 0.3937007874015748
        },
        {
          "duration": 0.09375,
          "durationTicks": 96,
          "midi": 65,
          "name": "F4",
          "ticks": 194112,
          "time": 189.5625,
          "velocity": 0.3937007874015748
        },
        {
          "duration": 0.09375,
          "durationTicks": 96,
          "midi": 68,
          "name": "G#4",
          "ticks": 194208,
          "time": 189.65625,
          "velocity": 0.3937007874015748
        },
        {
          "duration": 0.09375,
          "durationTicks": 96,
          "midi": 72,
          "name": "C5",
          "ticks": 194304,
          "time": 189.75,
          "velocity": 0.3937007874015748
        },
        {
          "duration": 0.09375,
          "durationTicks": 96,
          "midi": 68,
          "name": "G#4",
          "ticks": 194400,
          "time": 189.84375,
          "velocity": 0.3937007874015748
        },
        {
          "duration": 0.09375,
          "durationTicks": 96,
          "midi": 65,
          "name": "F4",
          "ticks": 194496,
          "time": 189.9375,
          "velocity": 0.3937007874015748
        },
        {
          "duration": 0.09375,
          "durationTicks": 96,
          "midi": 60,
          "name": "C4",
          "ticks": 194592,
          "time": 190.03125,
          "velocity": 0.3937007874015748
        },
        {
          "duration": 0.09375,
          "durationTicks": 96,
          "midi": 56,
          "name": "G#3",
          "ticks": 194688,
          "time": 190.125,
          "velocity": 0.3937007874015748
        },
        {
          "duration": 0.09375,
          "durationTicks": 96,
          "midi": 53,
          "name": "F3",
          "ticks": 194784,
          "time": 190.21875,
          "velocity": 0.3937007874015748
        },
        {
          "duration": 0.09375,
          "durationTicks": 96,
          "midi": 48,
          "name": "C3",
          "ticks": 194880,
          "time": 190.3125,
          "velocity": 0.3937007874015748
        },
        {
          "duration": 0.09375,
          "durationTicks": 96,
          "midi": 44,
          "name": "G#2",
          "ticks": 194976,
          "time": 190.40625,
          "velocity": 0.3937007874015748
        },
        {
          "duration": 0.09375,
          "durationTicks": 96,
          "midi": 40,
          "name": "E2",
          "ticks": 195072,
          "time": 190.5,
          "velocity": 0.3937007874015748
        },
        {
          "duration": 0.09375,
          "durationTicks": 96,
          "midi": 28,
          "name": "E1",
          "ticks": 195072,
          "time": 190.5,
          "velocity": 0.3937007874015748
        },
        {
          "duration": 0.09375,
          "durationTicks": 96,
          "midi": 43,
          "name": "G2",
          "ticks": 195168,
          "time": 190.59375,
          "velocity": 0.3937007874015748
        },
        {
          "duration": 0.09375,
          "durationTicks": 96,
          "midi": 48,
          "name": "C3",
          "ticks": 195264,
          "time": 190.6875,
          "velocity": 0.3937007874015748
        },
        {
          "duration": 0.09375,
          "durationTicks": 96,
          "midi": 52,
          "name": "E3",
          "ticks": 195360,
          "time": 190.78125,
          "velocity": 0.3937007874015748
        },
        {
          "duration": 0.09375,
          "durationTicks": 96,
          "midi": 55,
          "name": "G3",
          "ticks": 195456,
          "time": 190.875,
          "velocity": 0.3937007874015748
        },
        {
          "duration": 0.09375,
          "durationTicks": 96,
          "midi": 60,
          "name": "C4",
          "ticks": 195552,
          "time": 190.96875,
          "velocity": 0.3937007874015748
        },
        {
          "duration": 0.09375,
          "durationTicks": 96,
          "midi": 64,
          "name": "E4",
          "ticks": 195648,
          "time": 191.0625,
          "velocity": 0.3937007874015748
        },
        {
          "duration": 0.09375,
          "durationTicks": 96,
          "midi": 67,
          "name": "G4",
          "ticks": 195744,
          "time": 191.15625,
          "velocity": 0.3937007874015748
        },
        {
          "duration": 0.09375,
          "durationTicks": 96,
          "midi": 72,
          "name": "C5",
          "ticks": 195840,
          "time": 191.25,
          "velocity": 0.3937007874015748
        },
        {
          "duration": 0.09375,
          "durationTicks": 96,
          "midi": 67,
          "name": "G4",
          "ticks": 195936,
          "time": 191.34375,
          "velocity": 0.3937007874015748
        },
        {
          "duration": 0.09375,
          "durationTicks": 96,
          "midi": 64,
          "name": "E4",
          "ticks": 196032,
          "time": 191.4375,
          "velocity": 0.3937007874015748
        },
        {
          "duration": 0.09375,
          "durationTicks": 96,
          "midi": 60,
          "name": "C4",
          "ticks": 196128,
          "time": 191.53125,
          "velocity": 0.3937007874015748
        },
        {
          "duration": 0.09375,
          "durationTicks": 96,
          "midi": 55,
          "name": "G3",
          "ticks": 196224,
          "time": 191.625,
          "velocity": 0.3937007874015748
        },
        {
          "duration": 0.09375,
          "durationTicks": 96,
          "midi": 52,
          "name": "E3",
          "ticks": 196320,
          "time": 191.71875,
          "velocity": 0.3937007874015748
        },
        {
          "duration": 0.09375,
          "durationTicks": 96,
          "midi": 48,
          "name": "C3",
          "ticks": 196416,
          "time": 191.8125,
          "velocity": 0.3937007874015748
        },
        {
          "duration": 0.09375,
          "durationTicks": 96,
          "midi": 43,
          "name": "G2",
          "ticks": 196512,
          "time": 191.90625,
          "velocity": 0.3937007874015748
        },
        {
          "duration": 0.09375,
          "durationTicks": 96,
          "midi": 27,
          "name": "D#1",
          "ticks": 196608,
          "time": 192,
          "velocity": 0.3937007874015748
        },
        {
          "duration": 0.09375,
          "durationTicks": 96,
          "midi": 39,
          "name": "D#2",
          "ticks": 196608,
          "time": 192,
          "velocity": 0.3937007874015748
        },
        {
          "duration": 0.09375,
          "durationTicks": 96,
          "midi": 43,
          "name": "G2",
          "ticks": 196704,
          "time": 192.09375,
          "velocity": 0.3937007874015748
        },
        {
          "duration": 0.09375,
          "durationTicks": 96,
          "midi": 48,
          "name": "C3",
          "ticks": 196800,
          "time": 192.1875,
          "velocity": 0.3937007874015748
        },
        {
          "duration": 0.09375,
          "durationTicks": 96,
          "midi": 51,
          "name": "D#3",
          "ticks": 196896,
          "time": 192.28125,
          "velocity": 0.3937007874015748
        },
        {
          "duration": 0.09375,
          "durationTicks": 96,
          "midi": 55,
          "name": "G3",
          "ticks": 196992,
          "time": 192.375,
          "velocity": 0.3937007874015748
        },
        {
          "duration": 0.09375,
          "durationTicks": 96,
          "midi": 60,
          "name": "C4",
          "ticks": 197088,
          "time": 192.46875,
          "velocity": 0.3937007874015748
        },
        {
          "duration": 0.09375,
          "durationTicks": 96,
          "midi": 63,
          "name": "D#4",
          "ticks": 197184,
          "time": 192.5625,
          "velocity": 0.3937007874015748
        },
        {
          "duration": 0.09375,
          "durationTicks": 96,
          "midi": 67,
          "name": "G4",
          "ticks": 197280,
          "time": 192.65625,
          "velocity": 0.3937007874015748
        },
        {
          "duration": 0.09375,
          "durationTicks": 96,
          "midi": 72,
          "name": "C5",
          "ticks": 197376,
          "time": 192.75,
          "velocity": 0.3937007874015748
        },
        {
          "duration": 0.09375,
          "durationTicks": 96,
          "midi": 67,
          "name": "G4",
          "ticks": 197472,
          "time": 192.84375,
          "velocity": 0.3937007874015748
        },
        {
          "duration": 0.09375,
          "durationTicks": 96,
          "midi": 63,
          "name": "D#4",
          "ticks": 197568,
          "time": 192.9375,
          "velocity": 0.3937007874015748
        },
        {
          "duration": 0.09375,
          "durationTicks": 96,
          "midi": 60,
          "name": "C4",
          "ticks": 197664,
          "time": 193.03125,
          "velocity": 0.3937007874015748
        },
        {
          "duration": 0.09375,
          "durationTicks": 96,
          "midi": 55,
          "name": "G3",
          "ticks": 197760,
          "time": 193.125,
          "velocity": 0.3937007874015748
        },
        {
          "duration": 0.09375,
          "durationTicks": 96,
          "midi": 51,
          "name": "D#3",
          "ticks": 197856,
          "time": 193.21875,
          "velocity": 0.3937007874015748
        },
        {
          "duration": 0.09375,
          "durationTicks": 96,
          "midi": 48,
          "name": "C3",
          "ticks": 197952,
          "time": 193.3125,
          "velocity": 0.3937007874015748
        },
        {
          "duration": 0.09375,
          "durationTicks": 96,
          "midi": 43,
          "name": "G2",
          "ticks": 198048,
          "time": 193.40625,
          "velocity": 0.3937007874015748
        },
        {
          "duration": 0.09375,
          "durationTicks": 96,
          "midi": 38,
          "name": "D2",
          "ticks": 198144,
          "time": 193.5,
          "velocity": 0.3937007874015748
        },
        {
          "duration": 0.09375,
          "durationTicks": 96,
          "midi": 26,
          "name": "D1",
          "ticks": 198144,
          "time": 193.5,
          "velocity": 0.3937007874015748
        },
        {
          "duration": 0.09375,
          "durationTicks": 96,
          "midi": 43,
          "name": "G2",
          "ticks": 198240,
          "time": 193.59375,
          "velocity": 0.3937007874015748
        },
        {
          "duration": 0.09375,
          "durationTicks": 96,
          "midi": 47,
          "name": "B2",
          "ticks": 198336,
          "time": 193.6875,
          "velocity": 0.3937007874015748
        },
        {
          "duration": 0.09375,
          "durationTicks": 96,
          "midi": 50,
          "name": "D3",
          "ticks": 198432,
          "time": 193.78125,
          "velocity": 0.3937007874015748
        },
        {
          "duration": 0.09375,
          "durationTicks": 96,
          "midi": 55,
          "name": "G3",
          "ticks": 198528,
          "time": 193.875,
          "velocity": 0.3937007874015748
        },
        {
          "duration": 0.09375,
          "durationTicks": 96,
          "midi": 59,
          "name": "B3",
          "ticks": 198624,
          "time": 193.96875,
          "velocity": 0.3937007874015748
        },
        {
          "duration": 0.09375,
          "durationTicks": 96,
          "midi": 62,
          "name": "D4",
          "ticks": 198720,
          "time": 194.0625,
          "velocity": 0.3937007874015748
        },
        {
          "duration": 0.09375,
          "durationTicks": 96,
          "midi": 67,
          "name": "G4",
          "ticks": 198816,
          "time": 194.15625,
          "velocity": 0.3937007874015748
        },
        {
          "duration": 0.09375,
          "durationTicks": 96,
          "midi": 71,
          "name": "B4",
          "ticks": 198912,
          "time": 194.25,
          "velocity": 0.3937007874015748
        },
        {
          "duration": 0.09375,
          "durationTicks": 96,
          "midi": 67,
          "name": "G4",
          "ticks": 199008,
          "time": 194.34375,
          "velocity": 0.3937007874015748
        },
        {
          "duration": 0.09375,
          "durationTicks": 96,
          "midi": 62,
          "name": "D4",
          "ticks": 199104,
          "time": 194.4375,
          "velocity": 0.3937007874015748
        },
        {
          "duration": 0.09375,
          "durationTicks": 96,
          "midi": 59,
          "name": "B3",
          "ticks": 199200,
          "time": 194.53125,
          "velocity": 0.3937007874015748
        },
        {
          "duration": 0.09375,
          "durationTicks": 96,
          "midi": 55,
          "name": "G3",
          "ticks": 199296,
          "time": 194.625,
          "velocity": 0.3937007874015748
        },
        {
          "duration": 0.09375,
          "durationTicks": 96,
          "midi": 50,
          "name": "D3",
          "ticks": 199392,
          "time": 194.71875,
          "velocity": 0.3937007874015748
        },
        {
          "duration": 0.09375,
          "durationTicks": 96,
          "midi": 47,
          "name": "B2",
          "ticks": 199488,
          "time": 194.8125,
          "velocity": 0.3937007874015748
        },
        {
          "duration": 0.09375,
          "durationTicks": 96,
          "midi": 43,
          "name": "G2",
          "ticks": 199584,
          "time": 194.90625,
          "velocity": 0.3937007874015748
        },
        {
          "duration": 0.09375,
          "durationTicks": 96,
          "midi": 37,
          "name": "C#2",
          "ticks": 199680,
          "time": 195,
          "velocity": 0.3937007874015748
        },
        {
          "duration": 0.09375,
          "durationTicks": 96,
          "midi": 25,
          "name": "C#1",
          "ticks": 199680,
          "time": 195,
          "velocity": 0.3937007874015748
        },
        {
          "duration": 0.09375,
          "durationTicks": 96,
          "midi": 37,
          "name": "C#2",
          "ticks": 199680,
          "time": 195,
          "velocity": 0.3937007874015748
        },
        {
          "duration": 0.09375,
          "durationTicks": 96,
          "midi": 41,
          "name": "F2",
          "ticks": 199776,
          "time": 195.09375,
          "velocity": 0.3937007874015748
        },
        {
          "duration": 0.09375,
          "durationTicks": 96,
          "midi": 46,
          "name": "A#2",
          "ticks": 199872,
          "time": 195.1875,
          "velocity": 0.3937007874015748
        },
        {
          "duration": 0.09375,
          "durationTicks": 96,
          "midi": 49,
          "name": "C#3",
          "ticks": 199968,
          "time": 195.28125,
          "velocity": 0.3937007874015748
        },
        {
          "duration": 0.09375,
          "durationTicks": 96,
          "midi": 53,
          "name": "F3",
          "ticks": 200064,
          "time": 195.375,
          "velocity": 0.3937007874015748
        },
        {
          "duration": 0.09375,
          "durationTicks": 96,
          "midi": 58,
          "name": "A#3",
          "ticks": 200160,
          "time": 195.46875,
          "velocity": 0.3937007874015748
        },
        {
          "duration": 0.09375,
          "durationTicks": 96,
          "midi": 61,
          "name": "C#4",
          "ticks": 200256,
          "time": 195.5625,
          "velocity": 0.3937007874015748
        },
        {
          "duration": 0.09375,
          "durationTicks": 96,
          "midi": 65,
          "name": "F4",
          "ticks": 200352,
          "time": 195.65625,
          "velocity": 0.3937007874015748
        },
        {
          "duration": 0.09375,
          "durationTicks": 96,
          "midi": 70,
          "name": "A#4",
          "ticks": 200448,
          "time": 195.75,
          "velocity": 0.3937007874015748
        },
        {
          "duration": 0.09375,
          "durationTicks": 96,
          "midi": 65,
          "name": "F4",
          "ticks": 200544,
          "time": 195.84375,
          "velocity": 0.3937007874015748
        },
        {
          "duration": 0.09375,
          "durationTicks": 96,
          "midi": 61,
          "name": "C#4",
          "ticks": 200640,
          "time": 195.9375,
          "velocity": 0.3937007874015748
        },
        {
          "duration": 0.09375,
          "durationTicks": 96,
          "midi": 58,
          "name": "A#3",
          "ticks": 200736,
          "time": 196.03125,
          "velocity": 0.3937007874015748
        },
        {
          "duration": 0.09375,
          "durationTicks": 96,
          "midi": 53,
          "name": "F3",
          "ticks": 200832,
          "time": 196.125,
          "velocity": 0.3937007874015748
        },
        {
          "duration": 0.09375,
          "durationTicks": 96,
          "midi": 49,
          "name": "C#3",
          "ticks": 200928,
          "time": 196.21875,
          "velocity": 0.3937007874015748
        },
        {
          "duration": 0.09375,
          "durationTicks": 96,
          "midi": 46,
          "name": "A#2",
          "ticks": 201024,
          "time": 196.3125,
          "velocity": 0.3937007874015748
        },
        {
          "duration": 0.09375,
          "durationTicks": 96,
          "midi": 41,
          "name": "F2",
          "ticks": 201120,
          "time": 196.40625,
          "velocity": 0.3937007874015748
        },
        {
          "duration": 0.09375,
          "durationTicks": 96,
          "midi": 24,
          "name": "C1",
          "ticks": 201216,
          "time": 196.5,
          "velocity": 0.3937007874015748
        },
        {
          "duration": 0.09375,
          "durationTicks": 96,
          "midi": 36,
          "name": "C2",
          "ticks": 201216,
          "time": 196.5,
          "velocity": 0.3937007874015748
        },
        {
          "duration": 0.09375,
          "durationTicks": 96,
          "midi": 40,
          "name": "E2",
          "ticks": 201312,
          "time": 196.59375,
          "velocity": 0.3937007874015748
        },
        {
          "duration": 0.09375,
          "durationTicks": 96,
          "midi": 43,
          "name": "G2",
          "ticks": 201408,
          "time": 196.6875,
          "velocity": 0.3937007874015748
        },
        {
          "duration": 0.09375,
          "durationTicks": 96,
          "midi": 48,
          "name": "C3",
          "ticks": 201504,
          "time": 196.78125,
          "velocity": 0.3937007874015748
        },
        {
          "duration": 0.09375,
          "durationTicks": 96,
          "midi": 52,
          "name": "E3",
          "ticks": 201600,
          "time": 196.875,
          "velocity": 0.3937007874015748
        },
        {
          "duration": 0.09375,
          "durationTicks": 96,
          "midi": 55,
          "name": "G3",
          "ticks": 201696,
          "time": 196.96875,
          "velocity": 0.3937007874015748
        },
        {
          "duration": 0.09375,
          "durationTicks": 96,
          "midi": 60,
          "name": "C4",
          "ticks": 201792,
          "time": 197.0625,
          "velocity": 0.3937007874015748
        },
        {
          "duration": 0.09375,
          "durationTicks": 96,
          "midi": 64,
          "name": "E4",
          "ticks": 201888,
          "time": 197.15625,
          "velocity": 0.3937007874015748
        },
        {
          "duration": 0.09375,
          "durationTicks": 96,
          "midi": 67,
          "name": "G4",
          "ticks": 201984,
          "time": 197.25,
          "velocity": 0.3937007874015748
        },
        {
          "duration": 0.09375,
          "durationTicks": 96,
          "midi": 64,
          "name": "E4",
          "ticks": 202080,
          "time": 197.34375,
          "velocity": 0.3937007874015748
        },
        {
          "duration": 0.09375,
          "durationTicks": 96,
          "midi": 60,
          "name": "C4",
          "ticks": 202176,
          "time": 197.4375,
          "velocity": 0.3937007874015748
        },
        {
          "duration": 0.09375,
          "durationTicks": 96,
          "midi": 55,
          "name": "G3",
          "ticks": 202272,
          "time": 197.53125,
          "velocity": 0.3937007874015748
        },
        {
          "duration": 0.09375,
          "durationTicks": 96,
          "midi": 52,
          "name": "E3",
          "ticks": 202368,
          "time": 197.625,
          "velocity": 0.3937007874015748
        },
        {
          "duration": 0.09375,
          "durationTicks": 96,
          "midi": 48,
          "name": "C3",
          "ticks": 202464,
          "time": 197.71875,
          "velocity": 0.3937007874015748
        },
        {
          "duration": 0.09375,
          "durationTicks": 96,
          "midi": 43,
          "name": "G2",
          "ticks": 202560,
          "time": 197.8125,
          "velocity": 0.3937007874015748
        },
        {
          "duration": 0.09375,
          "durationTicks": 96,
          "midi": 40,
          "name": "E2",
          "ticks": 202656,
          "time": 197.90625,
          "velocity": 0.3937007874015748
        },
        {
          "duration": 0.09375,
          "durationTicks": 96,
          "midi": 40,
          "name": "E2",
          "ticks": 202656,
          "time": 197.90625,
          "velocity": 0.3937007874015748
        },
        {
          "duration": 0.09375,
          "durationTicks": 96,
          "midi": 30,
          "name": "F#1",
          "ticks": 202752,
          "time": 198,
          "velocity": 0.3937007874015748
        },
        {
          "duration": 0.09375,
          "durationTicks": 96,
          "midi": 42,
          "name": "F#2",
          "ticks": 202752,
          "time": 198,
          "velocity": 0.3937007874015748
        },
        {
          "duration": 0.09375,
          "durationTicks": 96,
          "midi": 30,
          "name": "F#1",
          "ticks": 202752,
          "time": 198,
          "velocity": 0.3937007874015748
        },
        {
          "duration": 0.09375,
          "durationTicks": 96,
          "midi": 46,
          "name": "A#2",
          "ticks": 202848,
          "time": 198.09375,
          "velocity": 0.3937007874015748
        },
        {
          "duration": 0.09375,
          "durationTicks": 96,
          "midi": 49,
          "name": "C#3",
          "ticks": 202944,
          "time": 198.1875,
          "velocity": 0.3937007874015748
        },
        {
          "duration": 0.09375,
          "durationTicks": 96,
          "midi": 54,
          "name": "F#3",
          "ticks": 203040,
          "time": 198.28125,
          "velocity": 0.3937007874015748
        },
        {
          "duration": 0.09375,
          "durationTicks": 96,
          "midi": 58,
          "name": "A#3",
          "ticks": 203136,
          "time": 198.375,
          "velocity": 0.3937007874015748
        },
        {
          "duration": 0.09375,
          "durationTicks": 96,
          "midi": 61,
          "name": "C#4",
          "ticks": 203232,
          "time": 198.46875,
          "velocity": 0.3937007874015748
        },
        {
          "duration": 0.09375,
          "durationTicks": 96,
          "midi": 66,
          "name": "F#4",
          "ticks": 203328,
          "time": 198.5625,
          "velocity": 0.3937007874015748
        },
        {
          "duration": 0.09375,
          "durationTicks": 96,
          "midi": 70,
          "name": "A#4",
          "ticks": 203424,
          "time": 198.65625,
          "velocity": 0.3937007874015748
        },
        {
          "duration": 0.09375,
          "durationTicks": 96,
          "midi": 73,
          "name": "C#5",
          "ticks": 203520,
          "time": 198.75,
          "velocity": 0.3937007874015748
        },
        {
          "duration": 0.09375,
          "durationTicks": 96,
          "midi": 70,
          "name": "A#4",
          "ticks": 203616,
          "time": 198.84375,
          "velocity": 0.3937007874015748
        },
        {
          "duration": 0.09375,
          "durationTicks": 96,
          "midi": 66,
          "name": "F#4",
          "ticks": 203712,
          "time": 198.9375,
          "velocity": 0.3937007874015748
        },
        {
          "duration": 0.09375,
          "durationTicks": 96,
          "midi": 61,
          "name": "C#4",
          "ticks": 203808,
          "time": 199.03125,
          "velocity": 0.3937007874015748
        },
        {
          "duration": 0.09375,
          "durationTicks": 96,
          "midi": 58,
          "name": "A#3",
          "ticks": 203904,
          "time": 199.125,
          "velocity": 0.3937007874015748
        },
        {
          "duration": 0.09375,
          "durationTicks": 96,
          "midi": 54,
          "name": "F#3",
          "ticks": 204000,
          "time": 199.21875,
          "velocity": 0.3937007874015748
        },
        {
          "duration": 0.09375,
          "durationTicks": 96,
          "midi": 49,
          "name": "C#3",
          "ticks": 204096,
          "time": 199.3125,
          "velocity": 0.3937007874015748
        },
        {
          "duration": 0.09375,
          "durationTicks": 96,
          "midi": 46,
          "name": "A#2",
          "ticks": 204192,
          "time": 199.40625,
          "velocity": 0.3937007874015748
        },
        {
          "duration": 0.09375,
          "durationTicks": 96,
          "midi": 40,
          "name": "E2",
          "ticks": 204288,
          "time": 199.5,
          "velocity": 0.3937007874015748
        },
        {
          "duration": 0.09375,
          "durationTicks": 96,
          "midi": 26,
          "name": "D1",
          "ticks": 204288,
          "time": 199.5,
          "velocity": 0.3937007874015748
        },
        {
          "duration": 0.09375,
          "durationTicks": 96,
          "midi": 43,
          "name": "G2",
          "ticks": 204384,
          "time": 199.59375,
          "velocity": 0.3937007874015748
        },
        {
          "duration": 0.09375,
          "durationTicks": 96,
          "midi": 48,
          "name": "C3",
          "ticks": 204480,
          "time": 199.6875,
          "velocity": 0.3937007874015748
        },
        {
          "duration": 0.09375,
          "durationTicks": 96,
          "midi": 52,
          "name": "E3",
          "ticks": 204576,
          "time": 199.78125,
          "velocity": 0.3937007874015748
        },
        {
          "duration": 0.09375,
          "durationTicks": 96,
          "midi": 55,
          "name": "G3",
          "ticks": 204672,
          "time": 199.875,
          "velocity": 0.3937007874015748
        },
        {
          "duration": 0.09375,
          "durationTicks": 96,
          "midi": 60,
          "name": "C4",
          "ticks": 204768,
          "time": 199.96875,
          "velocity": 0.3937007874015748
        },
        {
          "duration": 0.09375,
          "durationTicks": 96,
          "midi": 64,
          "name": "E4",
          "ticks": 204864,
          "time": 200.0625,
          "velocity": 0.3937007874015748
        },
        {
          "duration": 0.09375,
          "durationTicks": 96,
          "midi": 67,
          "name": "G4",
          "ticks": 204960,
          "time": 200.15625,
          "velocity": 0.3937007874015748
        },
        {
          "duration": 0.09375,
          "durationTicks": 96,
          "midi": 72,
          "name": "C5",
          "ticks": 205056,
          "time": 200.25,
          "velocity": 0.3937007874015748
        },
        {
          "duration": 0.09375,
          "durationTicks": 96,
          "midi": 67,
          "name": "G4",
          "ticks": 205152,
          "time": 200.34375,
          "velocity": 0.3937007874015748
        },
        {
          "duration": 0.09375,
          "durationTicks": 96,
          "midi": 64,
          "name": "E4",
          "ticks": 205248,
          "time": 200.4375,
          "velocity": 0.3937007874015748
        },
        {
          "duration": 0.09375,
          "durationTicks": 96,
          "midi": 60,
          "name": "C4",
          "ticks": 205344,
          "time": 200.53125,
          "velocity": 0.3937007874015748
        },
        {
          "duration": 0.09375,
          "durationTicks": 96,
          "midi": 55,
          "name": "G3",
          "ticks": 205440,
          "time": 200.625,
          "velocity": 0.3937007874015748
        },
        {
          "duration": 0.09375,
          "durationTicks": 96,
          "midi": 52,
          "name": "E3",
          "ticks": 205536,
          "time": 200.71875,
          "velocity": 0.3937007874015748
        },
        {
          "duration": 0.09375,
          "durationTicks": 96,
          "midi": 48,
          "name": "C3",
          "ticks": 205632,
          "time": 200.8125,
          "velocity": 0.3937007874015748
        },
        {
          "duration": 0.09375,
          "durationTicks": 96,
          "midi": 43,
          "name": "G2",
          "ticks": 205728,
          "time": 200.90625,
          "velocity": 0.3937007874015748
        },
        {
          "duration": 0.09375,
          "durationTicks": 96,
          "midi": 29,
          "name": "F1",
          "ticks": 205824,
          "time": 201,
          "velocity": 0.3937007874015748
        },
        {
          "duration": 0.09375,
          "durationTicks": 96,
          "midi": 41,
          "name": "F2",
          "ticks": 205824,
          "time": 201,
          "velocity": 0.3937007874015748
        },
        {
          "duration": 0.09375,
          "durationTicks": 96,
          "midi": 44,
          "name": "G#2",
          "ticks": 205920,
          "time": 201.09375,
          "velocity": 0.3937007874015748
        },
        {
          "duration": 0.09375,
          "durationTicks": 96,
          "midi": 48,
          "name": "C3",
          "ticks": 206016,
          "time": 201.1875,
          "velocity": 0.3937007874015748
        },
        {
          "duration": 0.09375,
          "durationTicks": 96,
          "midi": 53,
          "name": "F3",
          "ticks": 206112,
          "time": 201.28125,
          "velocity": 0.3937007874015748
        },
        {
          "duration": 0.09375,
          "durationTicks": 96,
          "midi": 56,
          "name": "G#3",
          "ticks": 206208,
          "time": 201.375,
          "velocity": 0.3937007874015748
        },
        {
          "duration": 0.09375,
          "durationTicks": 96,
          "midi": 60,
          "name": "C4",
          "ticks": 206304,
          "time": 201.46875,
          "velocity": 0.3937007874015748
        },
        {
          "duration": 0.09375,
          "durationTicks": 96,
          "midi": 65,
          "name": "F4",
          "ticks": 206400,
          "time": 201.5625,
          "velocity": 0.3937007874015748
        },
        {
          "duration": 0.09375,
          "durationTicks": 96,
          "midi": 68,
          "name": "G#4",
          "ticks": 206496,
          "time": 201.65625,
          "velocity": 0.3937007874015748
        },
        {
          "duration": 0.09375,
          "durationTicks": 96,
          "midi": 72,
          "name": "C5",
          "ticks": 206592,
          "time": 201.75,
          "velocity": 0.3937007874015748
        },
        {
          "duration": 0.09375,
          "durationTicks": 96,
          "midi": 68,
          "name": "G#4",
          "ticks": 206688,
          "time": 201.84375,
          "velocity": 0.3937007874015748
        },
        {
          "duration": 0.09375,
          "durationTicks": 96,
          "midi": 65,
          "name": "F4",
          "ticks": 206784,
          "time": 201.9375,
          "velocity": 0.3937007874015748
        },
        {
          "duration": 0.09375,
          "durationTicks": 96,
          "midi": 60,
          "name": "C4",
          "ticks": 206880,
          "time": 202.03125,
          "velocity": 0.3937007874015748
        },
        {
          "duration": 0.09375,
          "durationTicks": 96,
          "midi": 56,
          "name": "G#3",
          "ticks": 206976,
          "time": 202.125,
          "velocity": 0.3937007874015748
        },
        {
          "duration": 0.09375,
          "durationTicks": 96,
          "midi": 53,
          "name": "F3",
          "ticks": 207072,
          "time": 202.21875,
          "velocity": 0.3937007874015748
        },
        {
          "duration": 0.09375,
          "durationTicks": 96,
          "midi": 48,
          "name": "C3",
          "ticks": 207168,
          "time": 202.3125,
          "velocity": 0.3937007874015748
        },
        {
          "duration": 0.09375,
          "durationTicks": 96,
          "midi": 44,
          "name": "G#2",
          "ticks": 207264,
          "time": 202.40625,
          "velocity": 0.3937007874015748
        },
        {
          "duration": 0.09375,
          "durationTicks": 96,
          "midi": 40,
          "name": "E2",
          "ticks": 207360,
          "time": 202.5,
          "velocity": 0.3937007874015748
        },
        {
          "duration": 0.09375,
          "durationTicks": 96,
          "midi": 28,
          "name": "E1",
          "ticks": 207360,
          "time": 202.5,
          "velocity": 0.3937007874015748
        },
        {
          "duration": 0.09375,
          "durationTicks": 96,
          "midi": 43,
          "name": "G2",
          "ticks": 207456,
          "time": 202.59375,
          "velocity": 0.3937007874015748
        },
        {
          "duration": 0.09375,
          "durationTicks": 96,
          "midi": 48,
          "name": "C3",
          "ticks": 207552,
          "time": 202.6875,
          "velocity": 0.3937007874015748
        },
        {
          "duration": 0.09375,
          "durationTicks": 96,
          "midi": 52,
          "name": "E3",
          "ticks": 207648,
          "time": 202.78125,
          "velocity": 0.3937007874015748
        },
        {
          "duration": 0.09375,
          "durationTicks": 96,
          "midi": 55,
          "name": "G3",
          "ticks": 207744,
          "time": 202.875,
          "velocity": 0.3937007874015748
        },
        {
          "duration": 0.09375,
          "durationTicks": 96,
          "midi": 60,
          "name": "C4",
          "ticks": 207840,
          "time": 202.96875,
          "velocity": 0.3937007874015748
        },
        {
          "duration": 0.09375,
          "durationTicks": 96,
          "midi": 64,
          "name": "E4",
          "ticks": 207936,
          "time": 203.0625,
          "velocity": 0.3937007874015748
        },
        {
          "duration": 0.09375,
          "durationTicks": 96,
          "midi": 67,
          "name": "G4",
          "ticks": 208032,
          "time": 203.15625,
          "velocity": 0.3937007874015748
        },
        {
          "duration": 0.09375,
          "durationTicks": 96,
          "midi": 72,
          "name": "C5",
          "ticks": 208128,
          "time": 203.25,
          "velocity": 0.3937007874015748
        },
        {
          "duration": 0.09375,
          "durationTicks": 96,
          "midi": 67,
          "name": "G4",
          "ticks": 208224,
          "time": 203.34375,
          "velocity": 0.3937007874015748
        },
        {
          "duration": 0.09375,
          "durationTicks": 96,
          "midi": 64,
          "name": "E4",
          "ticks": 208320,
          "time": 203.4375,
          "velocity": 0.3937007874015748
        },
        {
          "duration": 0.09375,
          "durationTicks": 96,
          "midi": 60,
          "name": "C4",
          "ticks": 208416,
          "time": 203.53125,
          "velocity": 0.3937007874015748
        },
        {
          "duration": 0.09375,
          "durationTicks": 96,
          "midi": 55,
          "name": "G3",
          "ticks": 208512,
          "time": 203.625,
          "velocity": 0.3937007874015748
        },
        {
          "duration": 0.09375,
          "durationTicks": 96,
          "midi": 52,
          "name": "E3",
          "ticks": 208608,
          "time": 203.71875,
          "velocity": 0.3937007874015748
        },
        {
          "duration": 0.09375,
          "durationTicks": 96,
          "midi": 48,
          "name": "C3",
          "ticks": 208704,
          "time": 203.8125,
          "velocity": 0.3937007874015748
        },
        {
          "duration": 0.09375,
          "durationTicks": 96,
          "midi": 43,
          "name": "G2",
          "ticks": 208800,
          "time": 203.90625,
          "velocity": 0.3937007874015748
        },
        {
          "duration": 0.09375,
          "durationTicks": 96,
          "midi": 39,
          "name": "D#2",
          "ticks": 208896,
          "time": 204,
          "velocity": 0.3937007874015748
        },
        {
          "duration": 0.09375,
          "durationTicks": 96,
          "midi": 27,
          "name": "D#1",
          "ticks": 208896,
          "time": 204,
          "velocity": 0.3937007874015748
        },
        {
          "duration": 0.09375,
          "durationTicks": 96,
          "midi": 43,
          "name": "G2",
          "ticks": 208992,
          "time": 204.09375,
          "velocity": 0.3937007874015748
        },
        {
          "duration": 0.09375,
          "durationTicks": 96,
          "midi": 48,
          "name": "C3",
          "ticks": 209088,
          "time": 204.1875,
          "velocity": 0.3937007874015748
        },
        {
          "duration": 0.09375,
          "durationTicks": 96,
          "midi": 51,
          "name": "D#3",
          "ticks": 209184,
          "time": 204.28125,
          "velocity": 0.3937007874015748
        },
        {
          "duration": 0.09375,
          "durationTicks": 96,
          "midi": 55,
          "name": "G3",
          "ticks": 209280,
          "time": 204.375,
          "velocity": 0.3937007874015748
        },
        {
          "duration": 0.09375,
          "durationTicks": 96,
          "midi": 60,
          "name": "C4",
          "ticks": 209376,
          "time": 204.46875,
          "velocity": 0.3937007874015748
        },
        {
          "duration": 0.09375,
          "durationTicks": 96,
          "midi": 63,
          "name": "D#4",
          "ticks": 209472,
          "time": 204.5625,
          "velocity": 0.3937007874015748
        },
        {
          "duration": 0.09375,
          "durationTicks": 96,
          "midi": 67,
          "name": "G4",
          "ticks": 209568,
          "time": 204.65625,
          "velocity": 0.3937007874015748
        },
        {
          "duration": 0.09375,
          "durationTicks": 96,
          "midi": 72,
          "name": "C5",
          "ticks": 209664,
          "time": 204.75,
          "velocity": 0.3937007874015748
        },
        {
          "duration": 0.09375,
          "durationTicks": 96,
          "midi": 67,
          "name": "G4",
          "ticks": 209760,
          "time": 204.84375,
          "velocity": 0.3937007874015748
        },
        {
          "duration": 0.09375,
          "durationTicks": 96,
          "midi": 63,
          "name": "D#4",
          "ticks": 209856,
          "time": 204.9375,
          "velocity": 0.3937007874015748
        },
        {
          "duration": 0.09375,
          "durationTicks": 96,
          "midi": 60,
          "name": "C4",
          "ticks": 209952,
          "time": 205.03125,
          "velocity": 0.3937007874015748
        },
        {
          "duration": 0.09375,
          "durationTicks": 96,
          "midi": 55,
          "name": "G3",
          "ticks": 210048,
          "time": 205.125,
          "velocity": 0.3937007874015748
        },
        {
          "duration": 0.09375,
          "durationTicks": 96,
          "midi": 51,
          "name": "D#3",
          "ticks": 210144,
          "time": 205.21875,
          "velocity": 0.3937007874015748
        },
        {
          "duration": 0.09375,
          "durationTicks": 96,
          "midi": 48,
          "name": "C3",
          "ticks": 210240,
          "time": 205.3125,
          "velocity": 0.3937007874015748
        },
        {
          "duration": 0.09375,
          "durationTicks": 96,
          "midi": 43,
          "name": "G2",
          "ticks": 210336,
          "time": 205.40625,
          "velocity": 0.3937007874015748
        },
        {
          "duration": 0.09375,
          "durationTicks": 96,
          "midi": 26,
          "name": "D1",
          "ticks": 210432,
          "time": 205.5,
          "velocity": 0.3937007874015748
        },
        {
          "duration": 0.09375,
          "durationTicks": 96,
          "midi": 38,
          "name": "D2",
          "ticks": 210432,
          "time": 205.5,
          "velocity": 0.3937007874015748
        },
        {
          "duration": 0.09375,
          "durationTicks": 96,
          "midi": 43,
          "name": "G2",
          "ticks": 210528,
          "time": 205.59375,
          "velocity": 0.3937007874015748
        },
        {
          "duration": 0.09375,
          "durationTicks": 96,
          "midi": 47,
          "name": "B2",
          "ticks": 210624,
          "time": 205.6875,
          "velocity": 0.3937007874015748
        },
        {
          "duration": 0.09375,
          "durationTicks": 96,
          "midi": 50,
          "name": "D3",
          "ticks": 210720,
          "time": 205.78125,
          "velocity": 0.3937007874015748
        },
        {
          "duration": 0.09375,
          "durationTicks": 96,
          "midi": 55,
          "name": "G3",
          "ticks": 210816,
          "time": 205.875,
          "velocity": 0.3937007874015748
        },
        {
          "duration": 0.09375,
          "durationTicks": 96,
          "midi": 59,
          "name": "B3",
          "ticks": 210912,
          "time": 205.96875,
          "velocity": 0.3937007874015748
        },
        {
          "duration": 0.09375,
          "durationTicks": 96,
          "midi": 62,
          "name": "D4",
          "ticks": 211008,
          "time": 206.0625,
          "velocity": 0.3937007874015748
        },
        {
          "duration": 0.09375,
          "durationTicks": 96,
          "midi": 67,
          "name": "G4",
          "ticks": 211104,
          "time": 206.15625,
          "velocity": 0.3937007874015748
        },
        {
          "duration": 0.09375,
          "durationTicks": 96,
          "midi": 71,
          "name": "B4",
          "ticks": 211200,
          "time": 206.25,
          "velocity": 0.3937007874015748
        },
        {
          "duration": 0.09375,
          "durationTicks": 96,
          "midi": 67,
          "name": "G4",
          "ticks": 211296,
          "time": 206.34375,
          "velocity": 0.3937007874015748
        },
        {
          "duration": 0.09375,
          "durationTicks": 96,
          "midi": 62,
          "name": "D4",
          "ticks": 211392,
          "time": 206.4375,
          "velocity": 0.3937007874015748
        },
        {
          "duration": 0.09375,
          "durationTicks": 96,
          "midi": 59,
          "name": "B3",
          "ticks": 211488,
          "time": 206.53125,
          "velocity": 0.3937007874015748
        },
        {
          "duration": 0.09375,
          "durationTicks": 96,
          "midi": 55,
          "name": "G3",
          "ticks": 211584,
          "time": 206.625,
          "velocity": 0.3937007874015748
        },
        {
          "duration": 0.09375,
          "durationTicks": 96,
          "midi": 50,
          "name": "D3",
          "ticks": 211680,
          "time": 206.71875,
          "velocity": 0.3937007874015748
        },
        {
          "duration": 0.09375,
          "durationTicks": 96,
          "midi": 47,
          "name": "B2",
          "ticks": 211776,
          "time": 206.8125,
          "velocity": 0.3937007874015748
        },
        {
          "duration": 0.09375,
          "durationTicks": 96,
          "midi": 43,
          "name": "G2",
          "ticks": 211872,
          "time": 206.90625,
          "velocity": 0.3937007874015748
        },
        {
          "duration": 0.09375,
          "durationTicks": 96,
          "midi": 37,
          "name": "C#2",
          "ticks": 211968,
          "time": 207,
          "velocity": 0.3937007874015748
        },
        {
          "duration": 0.09375,
          "durationTicks": 96,
          "midi": 25,
          "name": "C#1",
          "ticks": 211968,
          "time": 207,
          "velocity": 0.3937007874015748
        },
        {
          "duration": 0.09375,
          "durationTicks": 96,
          "midi": 41,
          "name": "F2",
          "ticks": 212064,
          "time": 207.09375,
          "velocity": 0.3937007874015748
        },
        {
          "duration": 0.09375,
          "durationTicks": 96,
          "midi": 46,
          "name": "A#2",
          "ticks": 212160,
          "time": 207.1875,
          "velocity": 0.3937007874015748
        },
        {
          "duration": 0.09375,
          "durationTicks": 96,
          "midi": 49,
          "name": "C#3",
          "ticks": 212256,
          "time": 207.28125,
          "velocity": 0.3937007874015748
        },
        {
          "duration": 0.09375,
          "durationTicks": 96,
          "midi": 53,
          "name": "F3",
          "ticks": 212352,
          "time": 207.375,
          "velocity": 0.3937007874015748
        },
        {
          "duration": 0.28125,
          "durationTicks": 288,
          "midi": 53,
          "name": "F3",
          "ticks": 212352,
          "time": 207.375,
          "velocity": 0.3937007874015748
        },
        {
          "duration": 0.09375,
          "durationTicks": 96,
          "midi": 58,
          "name": "A#3",
          "ticks": 212448,
          "time": 207.46875,
          "velocity": 0.3937007874015748
        },
        {
          "duration": 0.09375,
          "durationTicks": 96,
          "midi": 61,
          "name": "C#4",
          "ticks": 212544,
          "time": 207.5625,
          "velocity": 0.3937007874015748
        },
        {
          "duration": 0.09375,
          "durationTicks": 96,
          "midi": 65,
          "name": "F4",
          "ticks": 212640,
          "time": 207.65625,
          "velocity": 0.3937007874015748
        },
        {
          "duration": 0.09375,
          "durationTicks": 96,
          "midi": 70,
          "name": "A#4",
          "ticks": 212736,
          "time": 207.75,
          "velocity": 0.3937007874015748
        },
        {
          "duration": 0.09375,
          "durationTicks": 96,
          "midi": 65,
          "name": "F4",
          "ticks": 212832,
          "time": 207.84375,
          "velocity": 0.3937007874015748
        },
        {
          "duration": 0.09375,
          "durationTicks": 96,
          "midi": 61,
          "name": "C#4",
          "ticks": 212928,
          "time": 207.9375,
          "velocity": 0.3937007874015748
        },
        {
          "duration": 0.09375,
          "durationTicks": 96,
          "midi": 58,
          "name": "A#3",
          "ticks": 213024,
          "time": 208.03125,
          "velocity": 0.3937007874015748
        },
        {
          "duration": 0.09375,
          "durationTicks": 96,
          "midi": 53,
          "name": "F3",
          "ticks": 213120,
          "time": 208.125,
          "velocity": 0.3937007874015748
        },
        {
          "duration": 0.09375,
          "durationTicks": 96,
          "midi": 49,
          "name": "C#3",
          "ticks": 213216,
          "time": 208.21875,
          "velocity": 0.3937007874015748
        },
        {
          "duration": 0.09375,
          "durationTicks": 96,
          "midi": 46,
          "name": "A#2",
          "ticks": 213312,
          "time": 208.3125,
          "velocity": 0.3937007874015748
        },
        {
          "duration": 0.09375,
          "durationTicks": 96,
          "midi": 41,
          "name": "F2",
          "ticks": 213408,
          "time": 208.40625,
          "velocity": 0.3937007874015748
        },
        {
          "duration": 0.09375,
          "durationTicks": 96,
          "midi": 26,
          "name": "D1",
          "ticks": 213504,
          "time": 208.5,
          "velocity": 0.3937007874015748
        },
        {
          "duration": 0.09375,
          "durationTicks": 96,
          "midi": 40,
          "name": "E2",
          "ticks": 213504,
          "time": 208.5,
          "velocity": 0.3937007874015748
        },
        {
          "duration": 0.09375,
          "durationTicks": 96,
          "midi": 43,
          "name": "G2",
          "ticks": 213600,
          "time": 208.59375,
          "velocity": 0.3937007874015748
        },
        {
          "duration": 0.09375,
          "durationTicks": 96,
          "midi": 48,
          "name": "C3",
          "ticks": 213696,
          "time": 208.6875,
          "velocity": 0.3937007874015748
        },
        {
          "duration": 0.09375,
          "durationTicks": 96,
          "midi": 52,
          "name": "E3",
          "ticks": 213792,
          "time": 208.78125,
          "velocity": 0.3937007874015748
        },
        {
          "duration": 0.09375,
          "durationTicks": 96,
          "midi": 55,
          "name": "G3",
          "ticks": 213888,
          "time": 208.875,
          "velocity": 0.3937007874015748
        },
        {
          "duration": 0.09375,
          "durationTicks": 96,
          "midi": 60,
          "name": "C4",
          "ticks": 213984,
          "time": 208.96875,
          "velocity": 0.3937007874015748
        },
        {
          "duration": 0.09375,
          "durationTicks": 96,
          "midi": 67,
          "name": "G4",
          "ticks": 214176,
          "time": 209.15625,
          "velocity": 0.3937007874015748
        },
        {
          "duration": 0.09375,
          "durationTicks": 96,
          "midi": 72,
          "name": "C5",
          "ticks": 214272,
          "time": 209.25,
          "velocity": 0.3937007874015748
        },
        {
          "duration": 0.09375,
          "durationTicks": 96,
          "midi": 67,
          "name": "G4",
          "ticks": 214368,
          "time": 209.34375,
          "velocity": 0.3937007874015748
        },
        {
          "duration": 0.09375,
          "durationTicks": 96,
          "midi": 64,
          "name": "E4",
          "ticks": 214464,
          "time": 209.4375,
          "velocity": 0.3937007874015748
        },
        {
          "duration": 0.09375,
          "durationTicks": 96,
          "midi": 60,
          "name": "C4",
          "ticks": 214560,
          "time": 209.53125,
          "velocity": 0.3937007874015748
        },
        {
          "duration": 0.09375,
          "durationTicks": 96,
          "midi": 55,
          "name": "G3",
          "ticks": 214656,
          "time": 209.625,
          "velocity": 0.3937007874015748
        },
        {
          "duration": 0.09375,
          "durationTicks": 96,
          "midi": 52,
          "name": "E3",
          "ticks": 214752,
          "time": 209.71875,
          "velocity": 0.3937007874015748
        },
        {
          "duration": 0.09375,
          "durationTicks": 96,
          "midi": 48,
          "name": "C3",
          "ticks": 214848,
          "time": 209.8125,
          "velocity": 0.3937007874015748
        },
        {
          "duration": 0.09375,
          "durationTicks": 96,
          "midi": 43,
          "name": "G2",
          "ticks": 214944,
          "time": 209.90625,
          "velocity": 0.3937007874015748
        }
      ],
      "endOfTrackTicks": 215040
    },
    {
      "channel": 1,
      "controlChanges": {},
      "pitchBends": [],
      "instrument": {
        "family": "guitar",
        "number": 29,
        "name": "overdriven guitar"
      },
      "name": "Electric Guitar",
      "notes": [
        {
          "duration": 0.1875,
          "durationTicks": 192,
          "midi": 71,
          "name": "B4",
          "ticks": 0,
          "time": 0,
          "velocity": 0.3937007874015748
        },
        {
          "duration": 0.1875,
          "durationTicks": 192,
          "midi": 59,
          "name": "B3",
          "ticks": 0,
          "time": 0,
          "velocity": 0.3937007874015748
        },
        {
          "duration": 0.1875,
          "durationTicks": 192,
          "midi": 67,
          "name": "G4",
          "ticks": 192,
          "time": 0.1875,
          "velocity": 0.3937007874015748
        },
        {
          "duration": 0.1875,
          "durationTicks": 192,
          "midi": 55,
          "name": "G3",
          "ticks": 192,
          "time": 0.1875,
          "velocity": 0.3937007874015748
        },
        {
          "duration": 0.1875,
          "durationTicks": 192,
          "midi": 52,
          "name": "E3",
          "ticks": 384,
          "time": 0.375,
          "velocity": 0.3937007874015748
        },
        {
          "duration": 0.1875,
          "durationTicks": 192,
          "midi": 64,
          "name": "E4",
          "ticks": 384,
          "time": 0.375,
          "velocity": 0.3937007874015748
        },
        {
          "duration": 0.1875,
          "durationTicks": 192,
          "midi": 70,
          "name": "A#4",
          "ticks": 576,
          "time": 0.5625,
          "velocity": 0.3937007874015748
        },
        {
          "duration": 0.1875,
          "durationTicks": 192,
          "midi": 58,
          "name": "A#3",
          "ticks": 576,
          "time": 0.5625,
          "velocity": 0.3937007874015748
        },
        {
          "duration": 0.1875,
          "durationTicks": 192,
          "midi": 55,
          "name": "G3",
          "ticks": 768,
          "time": 0.75,
          "velocity": 0.3937007874015748
        },
        {
          "duration": 0.1875,
          "durationTicks": 192,
          "midi": 67,
          "name": "G4",
          "ticks": 768,
          "time": 0.75,
          "velocity": 0.3937007874015748
        },
        {
          "duration": 0.1875,
          "durationTicks": 192,
          "midi": 64,
          "name": "E4",
          "ticks": 960,
          "time": 0.9375,
          "velocity": 0.3937007874015748
        },
        {
          "duration": 0.1875,
          "durationTicks": 192,
          "midi": 52,
          "name": "E3",
          "ticks": 960,
          "time": 0.9375,
          "velocity": 0.3937007874015748
        },
        {
          "duration": 0.1875,
          "durationTicks": 192,
          "midi": 58,
          "name": "A#3",
          "ticks": 1152,
          "time": 1.125,
          "velocity": 0.3937007874015748
        },
        {
          "duration": 0.1875,
          "durationTicks": 192,
          "midi": 70,
          "name": "A#4",
          "ticks": 1152,
          "time": 1.125,
          "velocity": 0.3937007874015748
        },
        {
          "duration": 0.1875,
          "durationTicks": 192,
          "midi": 67,
          "name": "G4",
          "ticks": 1344,
          "time": 1.3125,
          "velocity": 0.3937007874015748
        },
        {
          "duration": 0.1875,
          "durationTicks": 192,
          "midi": 55,
          "name": "G3",
          "ticks": 1344,
          "time": 1.3125,
          "velocity": 0.3937007874015748
        },
        {
          "duration": 0.1875,
          "durationTicks": 192,
          "midi": 59,
          "name": "B3",
          "ticks": 1536,
          "time": 1.5,
          "velocity": 0.3937007874015748
        },
        {
          "duration": 0.1875,
          "durationTicks": 192,
          "midi": 71,
          "name": "B4",
          "ticks": 1536,
          "time": 1.5,
          "velocity": 0.3937007874015748
        },
        {
          "duration": 0.1875,
          "durationTicks": 192,
          "midi": 55,
          "name": "G3",
          "ticks": 1728,
          "time": 1.6875,
          "velocity": 0.3937007874015748
        },
        {
          "duration": 0.1875,
          "durationTicks": 192,
          "midi": 67,
          "name": "G4",
          "ticks": 1728,
          "time": 1.6875,
          "velocity": 0.3937007874015748
        },
        {
          "duration": 0.1875,
          "durationTicks": 192,
          "midi": 52,
          "name": "E3",
          "ticks": 1920,
          "time": 1.875,
          "velocity": 0.3937007874015748
        },
        {
          "duration": 0.1875,
          "durationTicks": 192,
          "midi": 64,
          "name": "E4",
          "ticks": 1920,
          "time": 1.875,
          "velocity": 0.3937007874015748
        },
        {
          "duration": 0.1875,
          "durationTicks": 192,
          "midi": 58,
          "name": "A#3",
          "ticks": 2112,
          "time": 2.0625,
          "velocity": 0.3937007874015748
        },
        {
          "duration": 0.1875,
          "durationTicks": 192,
          "midi": 70,
          "name": "A#4",
          "ticks": 2112,
          "time": 2.0625,
          "velocity": 0.3937007874015748
        },
        {
          "duration": 0.1875,
          "durationTicks": 192,
          "midi": 67,
          "name": "G4",
          "ticks": 2304,
          "time": 2.25,
          "velocity": 0.3937007874015748
        },
        {
          "duration": 0.1875,
          "durationTicks": 192,
          "midi": 55,
          "name": "G3",
          "ticks": 2304,
          "time": 2.25,
          "velocity": 0.3937007874015748
        },
        {
          "duration": 0.1875,
          "durationTicks": 192,
          "midi": 64,
          "name": "E4",
          "ticks": 2496,
          "time": 2.4375,
          "velocity": 0.3937007874015748
        },
        {
          "duration": 0.1875,
          "durationTicks": 192,
          "midi": 52,
          "name": "E3",
          "ticks": 2496,
          "time": 2.4375,
          "velocity": 0.3937007874015748
        },
        {
          "duration": 0.1875,
          "durationTicks": 192,
          "midi": 72,
          "name": "C5",
          "ticks": 2688,
          "time": 2.625,
          "velocity": 0.3937007874015748
        },
        {
          "duration": 0.1875,
          "durationTicks": 192,
          "midi": 60,
          "name": "C4",
          "ticks": 2688,
          "time": 2.625,
          "velocity": 0.3937007874015748
        },
        {
          "duration": 0.1875,
          "durationTicks": 192,
          "midi": 70,
          "name": "A#4",
          "ticks": 2880,
          "time": 2.8125,
          "velocity": 0.3937007874015748
        },
        {
          "duration": 0.1875,
          "durationTicks": 192,
          "midi": 58,
          "name": "A#3",
          "ticks": 2880,
          "time": 2.8125,
          "velocity": 0.3937007874015748
        },
        {
          "duration": 0.1875,
          "durationTicks": 192,
          "midi": 59,
          "name": "B3",
          "ticks": 3072,
          "time": 3,
          "velocity": 0.3937007874015748
        },
        {
          "duration": 0.1875,
          "durationTicks": 192,
          "midi": 71,
          "name": "B4",
          "ticks": 3072,
          "time": 3,
          "velocity": 0.3937007874015748
        },
        {
          "duration": 0.1875,
          "durationTicks": 192,
          "midi": 67,
          "name": "G4",
          "ticks": 3264,
          "time": 3.1875,
          "velocity": 0.3937007874015748
        },
        {
          "duration": 0.1875,
          "durationTicks": 192,
          "midi": 55,
          "name": "G3",
          "ticks": 3264,
          "time": 3.1875,
          "velocity": 0.3937007874015748
        },
        {
          "duration": 0.1875,
          "durationTicks": 192,
          "midi": 52,
          "name": "E3",
          "ticks": 3456,
          "time": 3.375,
          "velocity": 0.3937007874015748
        },
        {
          "duration": 0.1875,
          "durationTicks": 192,
          "midi": 64,
          "name": "E4",
          "ticks": 3456,
          "time": 3.375,
          "velocity": 0.3937007874015748
        },
        {
          "duration": 0.1875,
          "durationTicks": 192,
          "midi": 58,
          "name": "A#3",
          "ticks": 3648,
          "time": 3.5625,
          "velocity": 0.3937007874015748
        },
        {
          "duration": 0.1875,
          "durationTicks": 192,
          "midi": 70,
          "name": "A#4",
          "ticks": 3648,
          "time": 3.5625,
          "velocity": 0.3937007874015748
        },
        {
          "duration": 0.1875,
          "durationTicks": 192,
          "midi": 67,
          "name": "G4",
          "ticks": 3840,
          "time": 3.75,
          "velocity": 0.3937007874015748
        },
        {
          "duration": 0.1875,
          "durationTicks": 192,
          "midi": 55,
          "name": "G3",
          "ticks": 3840,
          "time": 3.75,
          "velocity": 0.3937007874015748
        },
        {
          "duration": 0.1875,
          "durationTicks": 192,
          "midi": 64,
          "name": "E4",
          "ticks": 4032,
          "time": 3.9375,
          "velocity": 0.3937007874015748
        },
        {
          "duration": 0.1875,
          "durationTicks": 192,
          "midi": 52,
          "name": "E3",
          "ticks": 4032,
          "time": 3.9375,
          "velocity": 0.3937007874015748
        },
        {
          "duration": 0.1875,
          "durationTicks": 192,
          "midi": 58,
          "name": "A#3",
          "ticks": 4224,
          "time": 4.125,
          "velocity": 0.3937007874015748
        },
        {
          "duration": 0.1875,
          "durationTicks": 192,
          "midi": 70,
          "name": "A#4",
          "ticks": 4224,
          "time": 4.125,
          "velocity": 0.3937007874015748
        },
        {
          "duration": 0.1875,
          "durationTicks": 192,
          "midi": 67,
          "name": "G4",
          "ticks": 4416,
          "time": 4.3125,
          "velocity": 0.3937007874015748
        },
        {
          "duration": 0.1875,
          "durationTicks": 192,
          "midi": 55,
          "name": "G3",
          "ticks": 4416,
          "time": 4.3125,
          "velocity": 0.3937007874015748
        },
        {
          "duration": 0.1875,
          "durationTicks": 192,
          "midi": 71,
          "name": "B4",
          "ticks": 4608,
          "time": 4.5,
          "velocity": 0.3937007874015748
        },
        {
          "duration": 0.1875,
          "durationTicks": 192,
          "midi": 59,
          "name": "B3",
          "ticks": 4608,
          "time": 4.5,
          "velocity": 0.3937007874015748
        },
        {
          "duration": 0.1875,
          "durationTicks": 192,
          "midi": 67,
          "name": "G4",
          "ticks": 4800,
          "time": 4.6875,
          "velocity": 0.3937007874015748
        },
        {
          "duration": 0.1875,
          "durationTicks": 192,
          "midi": 55,
          "name": "G3",
          "ticks": 4800,
          "time": 4.6875,
          "velocity": 0.3937007874015748
        },
        {
          "duration": 0.1875,
          "durationTicks": 192,
          "midi": 64,
          "name": "E4",
          "ticks": 4992,
          "time": 4.875,
          "velocity": 0.3937007874015748
        },
        {
          "duration": 0.1875,
          "durationTicks": 192,
          "midi": 52,
          "name": "E3",
          "ticks": 4992,
          "time": 4.875,
          "velocity": 0.3937007874015748
        },
        {
          "duration": 0.9375,
          "durationTicks": 960,
          "midi": 60,
          "name": "C4",
          "ticks": 5184,
          "time": 5.0625,
          "velocity": 0.3937007874015748
        },
        {
          "duration": 0.9375,
          "durationTicks": 960,
          "midi": 48,
          "name": "C3",
          "ticks": 5184,
          "time": 5.0625,
          "velocity": 0.3937007874015748
        },
        {
          "duration": 0.0234375,
          "durationTicks": 24,
          "midi": 57,
          "name": "A3",
          "ticks": 6144,
          "time": 6,
          "velocity": 0.3937007874015748
        },
        {
          "duration": 0.1875,
          "durationTicks": 192,
          "midi": 71,
          "name": "B4",
          "ticks": 6144,
          "time": 6,
          "velocity": 0.3937007874015748
        },
        {
          "duration": 0.1875,
          "durationTicks": 192,
          "midi": 59,
          "name": "B3",
          "ticks": 6144,
          "time": 6,
          "velocity": 0.3937007874015748
        },
        {
          "duration": 0.1875,
          "durationTicks": 192,
          "midi": 55,
          "name": "G3",
          "ticks": 6336,
          "time": 6.1875,
          "velocity": 0.3937007874015748
        },
        {
          "duration": 0.1875,
          "durationTicks": 192,
          "midi": 67,
          "name": "G4",
          "ticks": 6336,
          "time": 6.1875,
          "velocity": 0.3937007874015748
        },
        {
          "duration": 0.1875,
          "durationTicks": 192,
          "midi": 64,
          "name": "E4",
          "ticks": 6528,
          "time": 6.375,
          "velocity": 0.3937007874015748
        },
        {
          "duration": 0.1875,
          "durationTicks": 192,
          "midi": 52,
          "name": "E3",
          "ticks": 6528,
          "time": 6.375,
          "velocity": 0.3937007874015748
        },
        {
          "duration": 0.1875,
          "durationTicks": 192,
          "midi": 58,
          "name": "A#3",
          "ticks": 6720,
          "time": 6.5625,
          "velocity": 0.3937007874015748
        },
        {
          "duration": 0.1875,
          "durationTicks": 192,
          "midi": 70,
          "name": "A#4",
          "ticks": 6720,
          "time": 6.5625,
          "velocity": 0.3937007874015748
        },
        {
          "duration": 0.1875,
          "durationTicks": 192,
          "midi": 67,
          "name": "G4",
          "ticks": 6912,
          "time": 6.75,
          "velocity": 0.3937007874015748
        },
        {
          "duration": 0.1875,
          "durationTicks": 192,
          "midi": 55,
          "name": "G3",
          "ticks": 6912,
          "time": 6.75,
          "velocity": 0.3937007874015748
        },
        {
          "duration": 0.1875,
          "durationTicks": 192,
          "midi": 64,
          "name": "E4",
          "ticks": 7104,
          "time": 6.9375,
          "velocity": 0.3937007874015748
        },
        {
          "duration": 0.1875,
          "durationTicks": 192,
          "midi": 52,
          "name": "E3",
          "ticks": 7104,
          "time": 6.9375,
          "velocity": 0.3937007874015748
        },
        {
          "duration": 0.1875,
          "durationTicks": 192,
          "midi": 58,
          "name": "A#3",
          "ticks": 7296,
          "time": 7.125,
          "velocity": 0.3937007874015748
        },
        {
          "duration": 0.1875,
          "durationTicks": 192,
          "midi": 70,
          "name": "A#4",
          "ticks": 7296,
          "time": 7.125,
          "velocity": 0.3937007874015748
        },
        {
          "duration": 0.1875,
          "durationTicks": 192,
          "midi": 67,
          "name": "G4",
          "ticks": 7488,
          "time": 7.3125,
          "velocity": 0.3937007874015748
        },
        {
          "duration": 0.1875,
          "durationTicks": 192,
          "midi": 55,
          "name": "G3",
          "ticks": 7488,
          "time": 7.3125,
          "velocity": 0.3937007874015748
        },
        {
          "duration": 0.1875,
          "durationTicks": 192,
          "midi": 71,
          "name": "B4",
          "ticks": 7680,
          "time": 7.5,
          "velocity": 0.3937007874015748
        },
        {
          "duration": 0.1875,
          "durationTicks": 192,
          "midi": 59,
          "name": "B3",
          "ticks": 7680,
          "time": 7.5,
          "velocity": 0.3937007874015748
        },
        {
          "duration": 0.1875,
          "durationTicks": 192,
          "midi": 67,
          "name": "G4",
          "ticks": 7872,
          "time": 7.6875,
          "velocity": 0.3937007874015748
        },
        {
          "duration": 0.1875,
          "durationTicks": 192,
          "midi": 55,
          "name": "G3",
          "ticks": 7872,
          "time": 7.6875,
          "velocity": 0.3937007874015748
        },
        {
          "duration": 0.1875,
          "durationTicks": 192,
          "midi": 64,
          "name": "E4",
          "ticks": 8064,
          "time": 7.875,
          "velocity": 0.3937007874015748
        },
        {
          "duration": 0.1875,
          "durationTicks": 192,
          "midi": 52,
          "name": "E3",
          "ticks": 8064,
          "time": 7.875,
          "velocity": 0.3937007874015748
        },
        {
          "duration": 0.1875,
          "durationTicks": 192,
          "midi": 58,
          "name": "A#3",
          "ticks": 8256,
          "time": 8.0625,
          "velocity": 0.3937007874015748
        },
        {
          "duration": 0.1875,
          "durationTicks": 192,
          "midi": 70,
          "name": "A#4",
          "ticks": 8256,
          "time": 8.0625,
          "velocity": 0.3937007874015748
        },
        {
          "duration": 0.1875,
          "durationTicks": 192,
          "midi": 67,
          "name": "G4",
          "ticks": 8448,
          "time": 8.25,
          "velocity": 0.3937007874015748
        },
        {
          "duration": 0.1875,
          "durationTicks": 192,
          "midi": 55,
          "name": "G3",
          "ticks": 8448,
          "time": 8.25,
          "velocity": 0.3937007874015748
        },
        {
          "duration": 0.1875,
          "durationTicks": 192,
          "midi": 64,
          "name": "E4",
          "ticks": 8640,
          "time": 8.4375,
          "velocity": 0.3937007874015748
        },
        {
          "duration": 0.1875,
          "durationTicks": 192,
          "midi": 52,
          "name": "E3",
          "ticks": 8640,
          "time": 8.4375,
          "velocity": 0.3937007874015748
        },
        {
          "duration": 0.1875,
          "durationTicks": 192,
          "midi": 60,
          "name": "C4",
          "ticks": 8832,
          "time": 8.625,
          "velocity": 0.3937007874015748
        },
        {
          "duration": 0.1875,
          "durationTicks": 192,
          "midi": 72,
          "name": "C5",
          "ticks": 8832,
          "time": 8.625,
          "velocity": 0.3937007874015748
        },
        {
          "duration": 0.1875,
          "durationTicks": 192,
          "midi": 70,
          "name": "A#4",
          "ticks": 9024,
          "time": 8.8125,
          "velocity": 0.3937007874015748
        },
        {
          "duration": 0.1875,
          "durationTicks": 192,
          "midi": 58,
          "name": "A#3",
          "ticks": 9024,
          "time": 8.8125,
          "velocity": 0.3937007874015748
        },
        {
          "duration": 0.1875,
          "durationTicks": 192,
          "midi": 59,
          "name": "B3",
          "ticks": 9216,
          "time": 9,
          "velocity": 0.3937007874015748
        },
        {
          "duration": 0.1875,
          "durationTicks": 192,
          "midi": 71,
          "name": "B4",
          "ticks": 9216,
          "time": 9,
          "velocity": 0.3937007874015748
        },
        {
          "duration": 0.1875,
          "durationTicks": 192,
          "midi": 67,
          "name": "G4",
          "ticks": 9408,
          "time": 9.1875,
          "velocity": 0.3937007874015748
        },
        {
          "duration": 0.1875,
          "durationTicks": 192,
          "midi": 55,
          "name": "G3",
          "ticks": 9408,
          "time": 9.1875,
          "velocity": 0.3937007874015748
        },
        {
          "duration": 0.1875,
          "durationTicks": 192,
          "midi": 64,
          "name": "E4",
          "ticks": 9600,
          "time": 9.375,
          "velocity": 0.3937007874015748
        },
        {
          "duration": 0.1875,
          "durationTicks": 192,
          "midi": 52,
          "name": "E3",
          "ticks": 9600,
          "time": 9.375,
          "velocity": 0.3937007874015748
        },
        {
          "duration": 0.1875,
          "durationTicks": 192,
          "midi": 58,
          "name": "A#3",
          "ticks": 9792,
          "time": 9.5625,
          "velocity": 0.3937007874015748
        },
        {
          "duration": 0.1875,
          "durationTicks": 192,
          "midi": 70,
          "name": "A#4",
          "ticks": 9792,
          "time": 9.5625,
          "velocity": 0.3937007874015748
        },
        {
          "duration": 0.1875,
          "durationTicks": 192,
          "midi": 67,
          "name": "G4",
          "ticks": 9984,
          "time": 9.75,
          "velocity": 0.3937007874015748
        },
        {
          "duration": 0.1875,
          "durationTicks": 192,
          "midi": 55,
          "name": "G3",
          "ticks": 9984,
          "time": 9.75,
          "velocity": 0.3937007874015748
        },
        {
          "duration": 0.1875,
          "durationTicks": 192,
          "midi": 64,
          "name": "E4",
          "ticks": 10176,
          "time": 9.9375,
          "velocity": 0.3937007874015748
        },
        {
          "duration": 0.1875,
          "durationTicks": 192,
          "midi": 52,
          "name": "E3",
          "ticks": 10176,
          "time": 9.9375,
          "velocity": 0.3937007874015748
        },
        {
          "duration": 0.1875,
          "durationTicks": 192,
          "midi": 60,
          "name": "C4",
          "ticks": 10368,
          "time": 10.125,
          "velocity": 0.3937007874015748
        },
        {
          "duration": 0.1875,
          "durationTicks": 192,
          "midi": 72,
          "name": "C5",
          "ticks": 10368,
          "time": 10.125,
          "velocity": 0.3937007874015748
        },
        {
          "duration": 0.1875,
          "durationTicks": 192,
          "midi": 70,
          "name": "A#4",
          "ticks": 10560,
          "time": 10.3125,
          "velocity": 0.3937007874015748
        },
        {
          "duration": 0.1875,
          "durationTicks": 192,
          "midi": 58,
          "name": "A#3",
          "ticks": 10560,
          "time": 10.3125,
          "velocity": 0.3937007874015748
        },
        {
          "duration": 0.1875,
          "durationTicks": 192,
          "midi": 71,
          "name": "B4",
          "ticks": 12288,
          "time": 12,
          "velocity": 0.3937007874015748
        },
        {
          "duration": 0.1875,
          "durationTicks": 192,
          "midi": 59,
          "name": "B3",
          "ticks": 12288,
          "time": 12,
          "velocity": 0.3937007874015748
        },
        {
          "duration": 0.1875,
          "durationTicks": 192,
          "midi": 55,
          "name": "G3",
          "ticks": 12480,
          "time": 12.1875,
          "velocity": 0.3937007874015748
        },
        {
          "duration": 0.1875,
          "durationTicks": 192,
          "midi": 67,
          "name": "G4",
          "ticks": 12480,
          "time": 12.1875,
          "velocity": 0.3937007874015748
        },
        {
          "duration": 0.1875,
          "durationTicks": 192,
          "midi": 64,
          "name": "E4",
          "ticks": 12672,
          "time": 12.375,
          "velocity": 0.3937007874015748
        },
        {
          "duration": 0.1875,
          "durationTicks": 192,
          "midi": 52,
          "name": "E3",
          "ticks": 12672,
          "time": 12.375,
          "velocity": 0.3937007874015748
        },
        {
          "duration": 0.1875,
          "durationTicks": 192,
          "midi": 58,
          "name": "A#3",
          "ticks": 12864,
          "time": 12.5625,
          "velocity": 0.3937007874015748
        },
        {
          "duration": 0.1875,
          "durationTicks": 192,
          "midi": 70,
          "name": "A#4",
          "ticks": 12864,
          "time": 12.5625,
          "velocity": 0.3937007874015748
        },
        {
          "duration": 0.1875,
          "durationTicks": 192,
          "midi": 55,
          "name": "G3",
          "ticks": 13056,
          "time": 12.75,
          "velocity": 0.3937007874015748
        },
        {
          "duration": 0.1875,
          "durationTicks": 192,
          "midi": 67,
          "name": "G4",
          "ticks": 13056,
          "time": 12.75,
          "velocity": 0.3937007874015748
        },
        {
          "duration": 0.1875,
          "durationTicks": 192,
          "midi": 64,
          "name": "E4",
          "ticks": 13248,
          "time": 12.9375,
          "velocity": 0.3937007874015748
        },
        {
          "duration": 0.1875,
          "durationTicks": 192,
          "midi": 52,
          "name": "E3",
          "ticks": 13248,
          "time": 12.9375,
          "velocity": 0.3937007874015748
        },
        {
          "duration": 0.1875,
          "durationTicks": 192,
          "midi": 70,
          "name": "A#4",
          "ticks": 13440,
          "time": 13.125,
          "velocity": 0.3937007874015748
        },
        {
          "duration": 0.1875,
          "durationTicks": 192,
          "midi": 58,
          "name": "A#3",
          "ticks": 13440,
          "time": 13.125,
          "velocity": 0.3937007874015748
        },
        {
          "duration": 0.1875,
          "durationTicks": 192,
          "midi": 55,
          "name": "G3",
          "ticks": 13632,
          "time": 13.3125,
          "velocity": 0.3937007874015748
        },
        {
          "duration": 0.1875,
          "durationTicks": 192,
          "midi": 67,
          "name": "G4",
          "ticks": 13632,
          "time": 13.3125,
          "velocity": 0.3937007874015748
        },
        {
          "duration": 0.1875,
          "durationTicks": 192,
          "midi": 71,
          "name": "B4",
          "ticks": 13824,
          "time": 13.5,
          "velocity": 0.3937007874015748
        },
        {
          "duration": 0.1875,
          "durationTicks": 192,
          "midi": 59,
          "name": "B3",
          "ticks": 13824,
          "time": 13.5,
          "velocity": 0.3937007874015748
        },
        {
          "duration": 0.1875,
          "durationTicks": 192,
          "midi": 67,
          "name": "G4",
          "ticks": 14016,
          "time": 13.6875,
          "velocity": 0.3937007874015748
        },
        {
          "duration": 0.1875,
          "durationTicks": 192,
          "midi": 55,
          "name": "G3",
          "ticks": 14016,
          "time": 13.6875,
          "velocity": 0.3937007874015748
        },
        {
          "duration": 0.1875,
          "durationTicks": 192,
          "midi": 52,
          "name": "E3",
          "ticks": 14208,
          "time": 13.875,
          "velocity": 0.3937007874015748
        },
        {
          "duration": 0.1875,
          "durationTicks": 192,
          "midi": 64,
          "name": "E4",
          "ticks": 14208,
          "time": 13.875,
          "velocity": 0.3937007874015748
        },
        {
          "duration": 0.1875,
          "durationTicks": 192,
          "midi": 70,
          "name": "A#4",
          "ticks": 14400,
          "time": 14.0625,
          "velocity": 0.3937007874015748
        },
        {
          "duration": 0.1875,
          "durationTicks": 192,
          "midi": 58,
          "name": "A#3",
          "ticks": 14400,
          "time": 14.0625,
          "velocity": 0.3937007874015748
        },
        {
          "duration": 0.1875,
          "durationTicks": 192,
          "midi": 55,
          "name": "G3",
          "ticks": 14592,
          "time": 14.25,
          "velocity": 0.3937007874015748
        },
        {
          "duration": 0.1875,
          "durationTicks": 192,
          "midi": 67,
          "name": "G4",
          "ticks": 14592,
          "time": 14.25,
          "velocity": 0.3937007874015748
        },
        {
          "duration": 0.1875,
          "durationTicks": 192,
          "midi": 52,
          "name": "E3",
          "ticks": 14784,
          "time": 14.4375,
          "velocity": 0.3937007874015748
        },
        {
          "duration": 0.1875,
          "durationTicks": 192,
          "midi": 64,
          "name": "E4",
          "ticks": 14784,
          "time": 14.4375,
          "velocity": 0.3937007874015748
        },
        {
          "duration": 0.1875,
          "durationTicks": 192,
          "midi": 72,
          "name": "C5",
          "ticks": 14976,
          "time": 14.625,
          "velocity": 0.3937007874015748
        },
        {
          "duration": 0.1875,
          "durationTicks": 192,
          "midi": 60,
          "name": "C4",
          "ticks": 14976,
          "time": 14.625,
          "velocity": 0.3937007874015748
        },
        {
          "duration": 0.1875,
          "durationTicks": 192,
          "midi": 58,
          "name": "A#3",
          "ticks": 15168,
          "time": 14.8125,
          "velocity": 0.3937007874015748
        },
        {
          "duration": 0.1875,
          "durationTicks": 192,
          "midi": 70,
          "name": "A#4",
          "ticks": 15168,
          "time": 14.8125,
          "velocity": 0.3937007874015748
        },
        {
          "duration": 0.1875,
          "durationTicks": 192,
          "midi": 59,
          "name": "B3",
          "ticks": 15360,
          "time": 15,
          "velocity": 0.3937007874015748
        },
        {
          "duration": 0.1875,
          "durationTicks": 192,
          "midi": 71,
          "name": "B4",
          "ticks": 15360,
          "time": 15,
          "velocity": 0.3937007874015748
        },
        {
          "duration": 0.1875,
          "durationTicks": 192,
          "midi": 55,
          "name": "G3",
          "ticks": 15552,
          "time": 15.1875,
          "velocity": 0.3937007874015748
        },
        {
          "duration": 0.1875,
          "durationTicks": 192,
          "midi": 67,
          "name": "G4",
          "ticks": 15552,
          "time": 15.1875,
          "velocity": 0.3937007874015748
        },
        {
          "duration": 0.1875,
          "durationTicks": 192,
          "midi": 64,
          "name": "E4",
          "ticks": 15744,
          "time": 15.375,
          "velocity": 0.3937007874015748
        },
        {
          "duration": 0.1875,
          "durationTicks": 192,
          "midi": 52,
          "name": "E3",
          "ticks": 15744,
          "time": 15.375,
          "velocity": 0.3937007874015748
        },
        {
          "duration": 0.1875,
          "durationTicks": 192,
          "midi": 58,
          "name": "A#3",
          "ticks": 15936,
          "time": 15.5625,
          "velocity": 0.3937007874015748
        },
        {
          "duration": 0.1875,
          "durationTicks": 192,
          "midi": 70,
          "name": "A#4",
          "ticks": 15936,
          "time": 15.5625,
          "velocity": 0.3937007874015748
        },
        {
          "duration": 0.1875,
          "durationTicks": 192,
          "midi": 67,
          "name": "G4",
          "ticks": 16128,
          "time": 15.75,
          "velocity": 0.3937007874015748
        },
        {
          "duration": 0.1875,
          "durationTicks": 192,
          "midi": 55,
          "name": "G3",
          "ticks": 16128,
          "time": 15.75,
          "velocity": 0.3937007874015748
        },
        {
          "duration": 0.1875,
          "durationTicks": 192,
          "midi": 64,
          "name": "E4",
          "ticks": 16320,
          "time": 15.9375,
          "velocity": 0.3937007874015748
        },
        {
          "duration": 0.1875,
          "durationTicks": 192,
          "midi": 52,
          "name": "E3",
          "ticks": 16320,
          "time": 15.9375,
          "velocity": 0.3937007874015748
        },
        {
          "duration": 0.1875,
          "durationTicks": 192,
          "midi": 58,
          "name": "A#3",
          "ticks": 16512,
          "time": 16.125,
          "velocity": 0.3937007874015748
        },
        {
          "duration": 0.1875,
          "durationTicks": 192,
          "midi": 70,
          "name": "A#4",
          "ticks": 16512,
          "time": 16.125,
          "velocity": 0.3937007874015748
        },
        {
          "duration": 0.1875,
          "durationTicks": 192,
          "midi": 67,
          "name": "G4",
          "ticks": 16704,
          "time": 16.3125,
          "velocity": 0.3937007874015748
        },
        {
          "duration": 0.1875,
          "durationTicks": 192,
          "midi": 55,
          "name": "G3",
          "ticks": 16704,
          "time": 16.3125,
          "velocity": 0.3937007874015748
        },
        {
          "duration": 0.1875,
          "durationTicks": 192,
          "midi": 71,
          "name": "B4",
          "ticks": 16896,
          "time": 16.5,
          "velocity": 0.3937007874015748
        },
        {
          "duration": 0.1875,
          "durationTicks": 192,
          "midi": 59,
          "name": "B3",
          "ticks": 16896,
          "time": 16.5,
          "velocity": 0.3937007874015748
        },
        {
          "duration": 0.1875,
          "durationTicks": 192,
          "midi": 67,
          "name": "G4",
          "ticks": 17088,
          "time": 16.6875,
          "velocity": 0.3937007874015748
        },
        {
          "duration": 0.1875,
          "durationTicks": 192,
          "midi": 55,
          "name": "G3",
          "ticks": 17088,
          "time": 16.6875,
          "velocity": 0.3937007874015748
        },
        {
          "duration": 0.1875,
          "durationTicks": 192,
          "midi": 52,
          "name": "E3",
          "ticks": 17280,
          "time": 16.875,
          "velocity": 0.3937007874015748
        },
        {
          "duration": 0.1875,
          "durationTicks": 192,
          "midi": 64,
          "name": "E4",
          "ticks": 17280,
          "time": 16.875,
          "velocity": 0.3937007874015748
        },
        {
          "duration": 0.9375,
          "durationTicks": 960,
          "midi": 60,
          "name": "C4",
          "ticks": 17472,
          "time": 17.0625,
          "velocity": 0.3937007874015748
        },
        {
          "duration": 0.9375,
          "durationTicks": 960,
          "midi": 48,
          "name": "C3",
          "ticks": 17472,
          "time": 17.0625,
          "velocity": 0.3937007874015748
        },
        {
          "duration": 0.1875,
          "durationTicks": 192,
          "midi": 71,
          "name": "B4",
          "ticks": 18432,
          "time": 18,
          "velocity": 0.3937007874015748
        },
        {
          "duration": 0.1875,
          "durationTicks": 192,
          "midi": 59,
          "name": "B3",
          "ticks": 18432,
          "time": 18,
          "velocity": 0.3937007874015748
        },
        {
          "duration": 0.1875,
          "durationTicks": 192,
          "midi": 67,
          "name": "G4",
          "ticks": 18624,
          "time": 18.1875,
          "velocity": 0.3937007874015748
        },
        {
          "duration": 0.1875,
          "durationTicks": 192,
          "midi": 55,
          "name": "G3",
          "ticks": 18624,
          "time": 18.1875,
          "velocity": 0.3937007874015748
        },
        {
          "duration": 0.1875,
          "durationTicks": 192,
          "midi": 52,
          "name": "E3",
          "ticks": 18816,
          "time": 18.375,
          "velocity": 0.3937007874015748
        },
        {
          "duration": 0.1875,
          "durationTicks": 192,
          "midi": 64,
          "name": "E4",
          "ticks": 18816,
          "time": 18.375,
          "velocity": 0.3937007874015748
        },
        {
          "duration": 0.1875,
          "durationTicks": 192,
          "midi": 58,
          "name": "A#3",
          "ticks": 19008,
          "time": 18.5625,
          "velocity": 0.3937007874015748
        },
        {
          "duration": 0.1875,
          "durationTicks": 192,
          "midi": 70,
          "name": "A#4",
          "ticks": 19008,
          "time": 18.5625,
          "velocity": 0.3937007874015748
        },
        {
          "duration": 0.1875,
          "durationTicks": 192,
          "midi": 55,
          "name": "G3",
          "ticks": 19200,
          "time": 18.75,
          "velocity": 0.3937007874015748
        },
        {
          "duration": 0.1875,
          "durationTicks": 192,
          "midi": 67,
          "name": "G4",
          "ticks": 19200,
          "time": 18.75,
          "velocity": 0.3937007874015748
        },
        {
          "duration": 0.1875,
          "durationTicks": 192,
          "midi": 64,
          "name": "E4",
          "ticks": 19392,
          "time": 18.9375,
          "velocity": 0.3937007874015748
        },
        {
          "duration": 0.1875,
          "durationTicks": 192,
          "midi": 52,
          "name": "E3",
          "ticks": 19392,
          "time": 18.9375,
          "velocity": 0.3937007874015748
        },
        {
          "duration": 0.1875,
          "durationTicks": 192,
          "midi": 70,
          "name": "A#4",
          "ticks": 19584,
          "time": 19.125,
          "velocity": 0.3937007874015748
        },
        {
          "duration": 0.1875,
          "durationTicks": 192,
          "midi": 58,
          "name": "A#3",
          "ticks": 19584,
          "time": 19.125,
          "velocity": 0.3937007874015748
        },
        {
          "duration": 0.1875,
          "durationTicks": 192,
          "midi": 67,
          "name": "G4",
          "ticks": 19776,
          "time": 19.3125,
          "velocity": 0.3937007874015748
        },
        {
          "duration": 0.1875,
          "durationTicks": 192,
          "midi": 55,
          "name": "G3",
          "ticks": 19776,
          "time": 19.3125,
          "velocity": 0.3937007874015748
        },
        {
          "duration": 0.1875,
          "durationTicks": 192,
          "midi": 71,
          "name": "B4",
          "ticks": 19968,
          "time": 19.5,
          "velocity": 0.3937007874015748
        },
        {
          "duration": 0.1875,
          "durationTicks": 192,
          "midi": 59,
          "name": "B3",
          "ticks": 19968,
          "time": 19.5,
          "velocity": 0.3937007874015748
        },
        {
          "duration": 0.1875,
          "durationTicks": 192,
          "midi": 67,
          "name": "G4",
          "ticks": 20160,
          "time": 19.6875,
          "velocity": 0.3937007874015748
        },
        {
          "duration": 0.1875,
          "durationTicks": 192,
          "midi": 55,
          "name": "G3",
          "ticks": 20160,
          "time": 19.6875,
          "velocity": 0.3937007874015748
        },
        {
          "duration": 0.1875,
          "durationTicks": 192,
          "midi": 64,
          "name": "E4",
          "ticks": 20352,
          "time": 19.875,
          "velocity": 0.3937007874015748
        },
        {
          "duration": 0.1875,
          "durationTicks": 192,
          "midi": 52,
          "name": "E3",
          "ticks": 20352,
          "time": 19.875,
          "velocity": 0.3937007874015748
        },
        {
          "duration": 0.1875,
          "durationTicks": 192,
          "midi": 58,
          "name": "A#3",
          "ticks": 20544,
          "time": 20.0625,
          "velocity": 0.3937007874015748
        },
        {
          "duration": 0.1875,
          "durationTicks": 192,
          "midi": 70,
          "name": "A#4",
          "ticks": 20544,
          "time": 20.0625,
          "velocity": 0.3937007874015748
        },
        {
          "duration": 0.1875,
          "durationTicks": 192,
          "midi": 55,
          "name": "G3",
          "ticks": 20736,
          "time": 20.25,
          "velocity": 0.3937007874015748
        },
        {
          "duration": 0.1875,
          "durationTicks": 192,
          "midi": 67,
          "name": "G4",
          "ticks": 20736,
          "time": 20.25,
          "velocity": 0.3937007874015748
        },
        {
          "duration": 0.1875,
          "durationTicks": 192,
          "midi": 64,
          "name": "E4",
          "ticks": 20928,
          "time": 20.4375,
          "velocity": 0.3937007874015748
        },
        {
          "duration": 0.1875,
          "durationTicks": 192,
          "midi": 52,
          "name": "E3",
          "ticks": 20928,
          "time": 20.4375,
          "velocity": 0.3937007874015748
        },
        {
          "duration": 0.1875,
          "durationTicks": 192,
          "midi": 60,
          "name": "C4",
          "ticks": 21120,
          "time": 20.625,
          "velocity": 0.3937007874015748
        },
        {
          "duration": 0.1875,
          "durationTicks": 192,
          "midi": 72,
          "name": "C5",
          "ticks": 21120,
          "time": 20.625,
          "velocity": 0.3937007874015748
        },
        {
          "duration": 0.1875,
          "durationTicks": 192,
          "midi": 58,
          "name": "A#3",
          "ticks": 21312,
          "time": 20.8125,
          "velocity": 0.3937007874015748
        },
        {
          "duration": 0.1875,
          "durationTicks": 192,
          "midi": 70,
          "name": "A#4",
          "ticks": 21312,
          "time": 20.8125,
          "velocity": 0.3937007874015748
        },
        {
          "duration": 0.1875,
          "durationTicks": 192,
          "midi": 71,
          "name": "B4",
          "ticks": 21504,
          "time": 21,
          "velocity": 0.3937007874015748
        },
        {
          "duration": 0.1875,
          "durationTicks": 192,
          "midi": 59,
          "name": "B3",
          "ticks": 21504,
          "time": 21,
          "velocity": 0.3937007874015748
        },
        {
          "duration": 0.1875,
          "durationTicks": 192,
          "midi": 67,
          "name": "G4",
          "ticks": 21696,
          "time": 21.1875,
          "velocity": 0.3937007874015748
        },
        {
          "duration": 0.1875,
          "durationTicks": 192,
          "midi": 55,
          "name": "G3",
          "ticks": 21696,
          "time": 21.1875,
          "velocity": 0.3937007874015748
        },
        {
          "duration": 0.1875,
          "durationTicks": 192,
          "midi": 64,
          "name": "E4",
          "ticks": 21888,
          "time": 21.375,
          "velocity": 0.3937007874015748
        },
        {
          "duration": 0.1875,
          "durationTicks": 192,
          "midi": 52,
          "name": "E3",
          "ticks": 21888,
          "time": 21.375,
          "velocity": 0.3937007874015748
        },
        {
          "duration": 0.1875,
          "durationTicks": 192,
          "midi": 70,
          "name": "A#4",
          "ticks": 22080,
          "time": 21.5625,
          "velocity": 0.3937007874015748
        },
        {
          "duration": 0.1875,
          "durationTicks": 192,
          "midi": 58,
          "name": "A#3",
          "ticks": 22080,
          "time": 21.5625,
          "velocity": 0.3937007874015748
        },
        {
          "duration": 0.1875,
          "durationTicks": 192,
          "midi": 67,
          "name": "G4",
          "ticks": 22272,
          "time": 21.75,
          "velocity": 0.3937007874015748
        },
        {
          "duration": 0.1875,
          "durationTicks": 192,
          "midi": 55,
          "name": "G3",
          "ticks": 22272,
          "time": 21.75,
          "velocity": 0.3937007874015748
        },
        {
          "duration": 0.1875,
          "durationTicks": 192,
          "midi": 52,
          "name": "E3",
          "ticks": 22464,
          "time": 21.9375,
          "velocity": 0.3937007874015748
        },
        {
          "duration": 0.1875,
          "durationTicks": 192,
          "midi": 64,
          "name": "E4",
          "ticks": 22464,
          "time": 21.9375,
          "velocity": 0.3937007874015748
        },
        {
          "duration": 0.1875,
          "durationTicks": 192,
          "midi": 60,
          "name": "C4",
          "ticks": 22656,
          "time": 22.125,
          "velocity": 0.3937007874015748
        },
        {
          "duration": 0.1875,
          "durationTicks": 192,
          "midi": 72,
          "name": "C5",
          "ticks": 22656,
          "time": 22.125,
          "velocity": 0.3937007874015748
        },
        {
          "duration": 0.1875,
          "durationTicks": 192,
          "midi": 70,
          "name": "A#4",
          "ticks": 22848,
          "time": 22.3125,
          "velocity": 0.3937007874015748
        },
        {
          "duration": 0.1875,
          "durationTicks": 192,
          "midi": 58,
          "name": "A#3",
          "ticks": 22848,
          "time": 22.3125,
          "velocity": 0.3937007874015748
        },
        {
          "duration": 0.9375,
          "durationTicks": 960,
          "midi": 71,
          "name": "B4",
          "ticks": 23040,
          "time": 22.5,
          "velocity": 0.3937007874015748
        },
        {
          "duration": 0.9375,
          "durationTicks": 960,
          "midi": 47,
          "name": "B2",
          "ticks": 23040,
          "time": 22.5,
          "velocity": 0.3937007874015748
        },
        {
          "duration": 0.9375,
          "durationTicks": 960,
          "midi": 59,
          "name": "B3",
          "ticks": 23040,
          "time": 22.5,
          "velocity": 0.3937007874015748
        },
        {
          "duration": 0.9375,
          "durationTicks": 960,
          "midi": 47,
          "name": "B2",
          "ticks": 23040,
          "time": 22.5,
          "velocity": 0.3937007874015748
        },
        {
          "duration": 0.9375,
          "durationTicks": 960,
          "midi": 59,
          "name": "B3",
          "ticks": 23040,
          "time": 22.5,
          "velocity": 0.3937007874015748
        },
        {
          "duration": 0.9375,
          "durationTicks": 960,
          "midi": 71,
          "name": "B4",
          "ticks": 23040,
          "time": 22.5,
          "velocity": 0.3937007874015748
        },
        {
          "duration": 0.1875,
          "durationTicks": 192,
          "midi": 52,
          "name": "E3",
          "ticks": 30720,
          "time": 30,
          "velocity": 0.3937007874015748
        },
        {
          "duration": 0.1875,
          "durationTicks": 192,
          "midi": 55,
          "name": "G3",
          "ticks": 30912,
          "time": 30.1875,
          "velocity": 0.3937007874015748
        },
        {
          "duration": 0.1875,
          "durationTicks": 192,
          "midi": 59,
          "name": "B3",
          "ticks": 31104,
          "time": 30.375,
          "velocity": 0.3937007874015748
        },
        {
          "duration": 0.1875,
          "durationTicks": 192,
          "midi": 64,
          "name": "E4",
          "ticks": 31296,
          "time": 30.5625,
          "velocity": 0.3937007874015748
        },
        {
          "duration": 0.1875,
          "durationTicks": 192,
          "midi": 63,
          "name": "D#4",
          "ticks": 31488,
          "time": 30.75,
          "velocity": 0.3937007874015748
        },
        {
          "duration": 0.1875,
          "durationTicks": 192,
          "midi": 59,
          "name": "B3",
          "ticks": 31776,
          "time": 31.03125,
          "velocity": 0.3937007874015748
        },
        {
          "duration": 0.1875,
          "durationTicks": 192,
          "midi": 63,
          "name": "D#4",
          "ticks": 32064,
          "time": 31.3125,
          "velocity": 0.3937007874015748
        },
        {
          "duration": 0.1875,
          "durationTicks": 192,
          "midi": 62,
          "name": "D4",
          "ticks": 32256,
          "time": 31.5,
          "velocity": 0.3937007874015748
        },
        {
          "duration": 0.1875,
          "durationTicks": 192,
          "midi": 59,
          "name": "B3",
          "ticks": 32544,
          "time": 31.78125,
          "velocity": 0.3937007874015748
        },
        {
          "duration": 0.1875,
          "durationTicks": 192,
          "midi": 62,
          "name": "D4",
          "ticks": 32832,
          "time": 32.0625,
          "velocity": 0.3937007874015748
        },
        {
          "duration": 0.1875,
          "durationTicks": 192,
          "midi": 61,
          "name": "C#4",
          "ticks": 33024,
          "time": 32.25,
          "velocity": 0.3937007874015748
        },
        {
          "duration": 0.1875,
          "durationTicks": 192,
          "midi": 58,
          "name": "A#3",
          "ticks": 33312,
          "time": 32.53125,
          "velocity": 0.3937007874015748
        },
        {
          "duration": 0.1875,
          "durationTicks": 192,
          "midi": 55,
          "name": "G3",
          "ticks": 33600,
          "time": 32.8125,
          "velocity": 0.3937007874015748
        },
        {
          "duration": 0.1875,
          "durationTicks": 192,
          "midi": 52,
          "name": "E3",
          "ticks": 36864,
          "time": 36,
          "velocity": 0.3937007874015748
        },
        {
          "duration": 0.1875,
          "durationTicks": 192,
          "midi": 55,
          "name": "G3",
          "ticks": 37056,
          "time": 36.1875,
          "velocity": 0.3937007874015748
        },
        {
          "duration": 0.1875,
          "durationTicks": 192,
          "midi": 59,
          "name": "B3",
          "ticks": 37248,
          "time": 36.375,
          "velocity": 0.3937007874015748
        },
        {
          "duration": 0.1875,
          "durationTicks": 192,
          "midi": 63,
          "name": "D#4",
          "ticks": 37632,
          "time": 36.75,
          "velocity": 0.3937007874015748
        },
        {
          "duration": 0.1875,
          "durationTicks": 192,
          "midi": 59,
          "name": "B3",
          "ticks": 37920,
          "time": 37.03125,
          "velocity": 0.3937007874015748
        },
        {
          "duration": 0.1875,
          "durationTicks": 192,
          "midi": 63,
          "name": "D#4",
          "ticks": 38208,
          "time": 37.3125,
          "velocity": 0.3937007874015748
        },
        {
          "duration": 0.1875,
          "durationTicks": 192,
          "midi": 62,
          "name": "D4",
          "ticks": 38400,
          "time": 37.5,
          "velocity": 0.3937007874015748
        },
        {
          "duration": 0.1875,
          "durationTicks": 192,
          "midi": 59,
          "name": "B3",
          "ticks": 38688,
          "time": 37.78125,
          "velocity": 0.3937007874015748
        },
        {
          "duration": 0.1875,
          "durationTicks": 192,
          "midi": 62,
          "name": "D4",
          "ticks": 38976,
          "time": 38.0625,
          "velocity": 0.3937007874015748
        },
        {
          "duration": 0.1875,
          "durationTicks": 192,
          "midi": 61,
          "name": "C#4",
          "ticks": 39168,
          "time": 38.25,
          "velocity": 0.3937007874015748
        },
        {
          "duration": 0.1875,
          "durationTicks": 192,
          "midi": 58,
          "name": "A#3",
          "ticks": 39456,
          "time": 38.53125,
          "velocity": 0.3937007874015748
        },
        {
          "duration": 0.1875,
          "durationTicks": 192,
          "midi": 55,
          "name": "G3",
          "ticks": 39744,
          "time": 38.8125,
          "velocity": 0.3937007874015748
        },
        {
          "duration": 0.1875,
          "durationTicks": 192,
          "midi": 52,
          "name": "E3",
          "ticks": 43008,
          "time": 42,
          "velocity": 0.3937007874015748
        },
        {
          "duration": 0.1875,
          "durationTicks": 192,
          "midi": 55,
          "name": "G3",
          "ticks": 43200,
          "time": 42.1875,
          "velocity": 0.3937007874015748
        },
        {
          "duration": 0.1875,
          "durationTicks": 192,
          "midi": 59,
          "name": "B3",
          "ticks": 43392,
          "time": 42.375,
          "velocity": 0.3937007874015748
        },
        {
          "duration": 0.1875,
          "durationTicks": 192,
          "midi": 63,
          "name": "D#4",
          "ticks": 43776,
          "time": 42.75,
          "velocity": 0.3937007874015748
        },
        {
          "duration": 0.1875,
          "durationTicks": 192,
          "midi": 59,
          "name": "B3",
          "ticks": 44064,
          "time": 43.03125,
          "velocity": 0.3937007874015748
        },
        {
          "duration": 0.1875,
          "durationTicks": 192,
          "midi": 63,
          "name": "D#4",
          "ticks": 44352,
          "time": 43.3125,
          "velocity": 0.3937007874015748
        },
        {
          "duration": 0.1875,
          "durationTicks": 192,
          "midi": 62,
          "name": "D4",
          "ticks": 44544,
          "time": 43.5,
          "velocity": 0.3937007874015748
        },
        {
          "duration": 0.1875,
          "durationTicks": 192,
          "midi": 59,
          "name": "B3",
          "ticks": 44832,
          "time": 43.78125,
          "velocity": 0.3937007874015748
        },
        {
          "duration": 0.1875,
          "durationTicks": 192,
          "midi": 62,
          "name": "D4",
          "ticks": 45120,
          "time": 44.0625,
          "velocity": 0.3937007874015748
        },
        {
          "duration": 0.1875,
          "durationTicks": 192,
          "midi": 61,
          "name": "C#4",
          "ticks": 45312,
          "time": 44.25,
          "velocity": 0.3937007874015748
        },
        {
          "duration": 0.1875,
          "durationTicks": 192,
          "midi": 58,
          "name": "A#3",
          "ticks": 45600,
          "time": 44.53125,
          "velocity": 0.3937007874015748
        },
        {
          "duration": 0.1875,
          "durationTicks": 192,
          "midi": 55,
          "name": "G3",
          "ticks": 45888,
          "time": 44.8125,
          "velocity": 0.3937007874015748
        },
        {
          "duration": 0.1875,
          "durationTicks": 192,
          "midi": 52,
          "name": "E3",
          "ticks": 49152,
          "time": 48,
          "velocity": 0.3937007874015748
        },
        {
          "duration": 0.1875,
          "durationTicks": 192,
          "midi": 55,
          "name": "G3",
          "ticks": 49344,
          "time": 48.1875,
          "velocity": 0.3937007874015748
        },
        {
          "duration": 0.1875,
          "durationTicks": 192,
          "midi": 59,
          "name": "B3",
          "ticks": 49536,
          "time": 48.375,
          "velocity": 0.3937007874015748
        },
        {
          "duration": 0.1875,
          "durationTicks": 192,
          "midi": 63,
          "name": "D#4",
          "ticks": 49920,
          "time": 48.75,
          "velocity": 0.3937007874015748
        },
        {
          "duration": 0.1875,
          "durationTicks": 192,
          "midi": 59,
          "name": "B3",
          "ticks": 50208,
          "time": 49.03125,
          "velocity": 0.3937007874015748
        },
        {
          "duration": 0.1875,
          "durationTicks": 192,
          "midi": 63,
          "name": "D#4",
          "ticks": 50496,
          "time": 49.3125,
          "velocity": 0.3937007874015748
        },
        {
          "duration": 0.1875,
          "durationTicks": 192,
          "midi": 62,
          "name": "D4",
          "ticks": 50688,
          "time": 49.5,
          "velocity": 0.3937007874015748
        },
        {
          "duration": 0.1875,
          "durationTicks": 192,
          "midi": 59,
          "name": "B3",
          "ticks": 50976,
          "time": 49.78125,
          "velocity": 0.3937007874015748
        },
        {
          "duration": 0.1875,
          "durationTicks": 192,
          "midi": 62,
          "name": "D4",
          "ticks": 51264,
          "time": 50.0625,
          "velocity": 0.3937007874015748
        },
        {
          "duration": 0.1875,
          "durationTicks": 192,
          "midi": 61,
          "name": "C#4",
          "ticks": 51456,
          "time": 50.25,
          "velocity": 0.3937007874015748
        },
        {
          "duration": 0.1875,
          "durationTicks": 192,
          "midi": 58,
          "name": "A#3",
          "ticks": 51744,
          "time": 50.53125,
          "velocity": 0.3937007874015748
        },
        {
          "duration": 0.1875,
          "durationTicks": 192,
          "midi": 55,
          "name": "G3",
          "ticks": 52032,
          "time": 50.8125,
          "velocity": 0.3937007874015748
        },
        {
          "duration": 0.1875,
          "durationTicks": 192,
          "midi": 71,
          "name": "B4",
          "ticks": 96768,
          "time": 94.5,
          "velocity": 0.3937007874015748
        },
        {
          "duration": 0.1875,
          "durationTicks": 192,
          "midi": 59,
          "name": "B3",
          "ticks": 96768,
          "time": 94.5,
          "velocity": 0.3937007874015748
        },
        {
          "duration": 0.1875,
          "durationTicks": 192,
          "midi": 55,
          "name": "G3",
          "ticks": 96960,
          "time": 94.6875,
          "velocity": 0.3937007874015748
        },
        {
          "duration": 0.1875,
          "durationTicks": 192,
          "midi": 67,
          "name": "G4",
          "ticks": 96960,
          "time": 94.6875,
          "velocity": 0.3937007874015748
        },
        {
          "duration": 0.1875,
          "durationTicks": 192,
          "midi": 52,
          "name": "E3",
          "ticks": 97152,
          "time": 94.875,
          "velocity": 0.3937007874015748
        },
        {
          "duration": 0.1875,
          "durationTicks": 192,
          "midi": 64,
          "name": "E4",
          "ticks": 97152,
          "time": 94.875,
          "velocity": 0.3937007874015748
        },
        {
          "duration": 0.1875,
          "durationTicks": 192,
          "midi": 58,
          "name": "A#3",
          "ticks": 97344,
          "time": 95.0625,
          "velocity": 0.3937007874015748
        },
        {
          "duration": 0.1875,
          "durationTicks": 192,
          "midi": 70,
          "name": "A#4",
          "ticks": 97344,
          "time": 95.0625,
          "velocity": 0.3937007874015748
        },
        {
          "duration": 0.1875,
          "durationTicks": 192,
          "midi": 67,
          "name": "G4",
          "ticks": 97536,
          "time": 95.25,
          "velocity": 0.3937007874015748
        },
        {
          "duration": 0.1875,
          "durationTicks": 192,
          "midi": 55,
          "name": "G3",
          "ticks": 97536,
          "time": 95.25,
          "velocity": 0.3937007874015748
        },
        {
          "duration": 0.1875,
          "durationTicks": 192,
          "midi": 64,
          "name": "E4",
          "ticks": 97728,
          "time": 95.4375,
          "velocity": 0.3937007874015748
        },
        {
          "duration": 0.1875,
          "durationTicks": 192,
          "midi": 52,
          "name": "E3",
          "ticks": 97728,
          "time": 95.4375,
          "velocity": 0.3937007874015748
        },
        {
          "duration": 0.1875,
          "durationTicks": 192,
          "midi": 70,
          "name": "A#4",
          "ticks": 97920,
          "time": 95.625,
          "velocity": 0.3937007874015748
        },
        {
          "duration": 0.1875,
          "durationTicks": 192,
          "midi": 58,
          "name": "A#3",
          "ticks": 97920,
          "time": 95.625,
          "velocity": 0.3937007874015748
        },
        {
          "duration": 0.1875,
          "durationTicks": 192,
          "midi": 55,
          "name": "G3",
          "ticks": 98112,
          "time": 95.8125,
          "velocity": 0.3937007874015748
        },
        {
          "duration": 0.1875,
          "durationTicks": 192,
          "midi": 67,
          "name": "G4",
          "ticks": 98112,
          "time": 95.8125,
          "velocity": 0.3937007874015748
        },
        {
          "duration": 0.1875,
          "durationTicks": 192,
          "midi": 71,
          "name": "B4",
          "ticks": 98304,
          "time": 96,
          "velocity": 0.3937007874015748
        },
        {
          "duration": 0.1875,
          "durationTicks": 192,
          "midi": 59,
          "name": "B3",
          "ticks": 98304,
          "time": 96,
          "velocity": 0.3937007874015748
        },
        {
          "duration": 0.1875,
          "durationTicks": 192,
          "midi": 55,
          "name": "G3",
          "ticks": 98496,
          "time": 96.1875,
          "velocity": 0.3937007874015748
        },
        {
          "duration": 0.1875,
          "durationTicks": 192,
          "midi": 67,
          "name": "G4",
          "ticks": 98496,
          "time": 96.1875,
          "velocity": 0.3937007874015748
        },
        {
          "duration": 0.1875,
          "durationTicks": 192,
          "midi": 64,
          "name": "E4",
          "ticks": 98688,
          "time": 96.375,
          "velocity": 0.3937007874015748
        },
        {
          "duration": 0.1875,
          "durationTicks": 192,
          "midi": 52,
          "name": "E3",
          "ticks": 98688,
          "time": 96.375,
          "velocity": 0.3937007874015748
        },
        {
          "duration": 0.1875,
          "durationTicks": 192,
          "midi": 58,
          "name": "A#3",
          "ticks": 98880,
          "time": 96.5625,
          "velocity": 0.3937007874015748
        },
        {
          "duration": 0.1875,
          "durationTicks": 192,
          "midi": 70,
          "name": "A#4",
          "ticks": 98880,
          "time": 96.5625,
          "velocity": 0.3937007874015748
        },
        {
          "duration": 0.1875,
          "durationTicks": 192,
          "midi": 55,
          "name": "G3",
          "ticks": 99072,
          "time": 96.75,
          "velocity": 0.3937007874015748
        },
        {
          "duration": 0.1875,
          "durationTicks": 192,
          "midi": 67,
          "name": "G4",
          "ticks": 99072,
          "time": 96.75,
          "velocity": 0.3937007874015748
        },
        {
          "duration": 0.1875,
          "durationTicks": 192,
          "midi": 52,
          "name": "E3",
          "ticks": 99264,
          "time": 96.9375,
          "velocity": 0.3937007874015748
        },
        {
          "duration": 0.1875,
          "durationTicks": 192,
          "midi": 64,
          "name": "E4",
          "ticks": 99264,
          "time": 96.9375,
          "velocity": 0.3937007874015748
        },
        {
          "duration": 0.1875,
          "durationTicks": 192,
          "midi": 60,
          "name": "C4",
          "ticks": 99456,
          "time": 97.125,
          "velocity": 0.3937007874015748
        },
        {
          "duration": 0.1875,
          "durationTicks": 192,
          "midi": 58,
          "name": "A#3",
          "ticks": 99648,
          "time": 97.3125,
          "velocity": 0.3937007874015748
        },
        {
          "duration": 0.1875,
          "durationTicks": 192,
          "midi": 70,
          "name": "A#4",
          "ticks": 99648,
          "time": 97.3125,
          "velocity": 0.3937007874015748
        },
        {
          "duration": 0.1875,
          "durationTicks": 192,
          "midi": 71,
          "name": "B4",
          "ticks": 99840,
          "time": 97.5,
          "velocity": 0.3937007874015748
        },
        {
          "duration": 0.1875,
          "durationTicks": 192,
          "midi": 59,
          "name": "B3",
          "ticks": 99840,
          "time": 97.5,
          "velocity": 0.3937007874015748
        },
        {
          "duration": 0.1875,
          "durationTicks": 192,
          "midi": 55,
          "name": "G3",
          "ticks": 100032,
          "time": 97.6875,
          "velocity": 0.3937007874015748
        },
        {
          "duration": 0.1875,
          "durationTicks": 192,
          "midi": 67,
          "name": "G4",
          "ticks": 100032,
          "time": 97.6875,
          "velocity": 0.3937007874015748
        },
        {
          "duration": 0.1875,
          "durationTicks": 192,
          "midi": 64,
          "name": "E4",
          "ticks": 100224,
          "time": 97.875,
          "velocity": 0.3937007874015748
        },
        {
          "duration": 0.1875,
          "durationTicks": 192,
          "midi": 52,
          "name": "E3",
          "ticks": 100224,
          "time": 97.875,
          "velocity": 0.3937007874015748
        },
        {
          "duration": 0.1875,
          "durationTicks": 192,
          "midi": 58,
          "name": "A#3",
          "ticks": 100416,
          "time": 98.0625,
          "velocity": 0.3937007874015748
        },
        {
          "duration": 0.1875,
          "durationTicks": 192,
          "midi": 70,
          "name": "A#4",
          "ticks": 100416,
          "time": 98.0625,
          "velocity": 0.3937007874015748
        },
        {
          "duration": 0.1875,
          "durationTicks": 192,
          "midi": 67,
          "name": "G4",
          "ticks": 100608,
          "time": 98.25,
          "velocity": 0.3937007874015748
        },
        {
          "duration": 0.1875,
          "durationTicks": 192,
          "midi": 55,
          "name": "G3",
          "ticks": 100608,
          "time": 98.25,
          "velocity": 0.3937007874015748
        },
        {
          "duration": 0.1875,
          "durationTicks": 192,
          "midi": 52,
          "name": "E3",
          "ticks": 100800,
          "time": 98.4375,
          "velocity": 0.3937007874015748
        },
        {
          "duration": 0.1875,
          "durationTicks": 192,
          "midi": 64,
          "name": "E4",
          "ticks": 100800,
          "time": 98.4375,
          "velocity": 0.3937007874015748
        },
        {
          "duration": 0.1875,
          "durationTicks": 192,
          "midi": 58,
          "name": "A#3",
          "ticks": 100992,
          "time": 98.625,
          "velocity": 0.3937007874015748
        },
        {
          "duration": 0.1875,
          "durationTicks": 192,
          "midi": 70,
          "name": "A#4",
          "ticks": 100992,
          "time": 98.625,
          "velocity": 0.3937007874015748
        },
        {
          "duration": 0.1875,
          "durationTicks": 192,
          "midi": 55,
          "name": "G3",
          "ticks": 101184,
          "time": 98.8125,
          "velocity": 0.3937007874015748
        },
        {
          "duration": 0.1875,
          "durationTicks": 192,
          "midi": 67,
          "name": "G4",
          "ticks": 101184,
          "time": 98.8125,
          "velocity": 0.3937007874015748
        },
        {
          "duration": 0.1875,
          "durationTicks": 192,
          "midi": 59,
          "name": "B3",
          "ticks": 101376,
          "time": 99,
          "velocity": 0.3937007874015748
        },
        {
          "duration": 0.1875,
          "durationTicks": 192,
          "midi": 71,
          "name": "B4",
          "ticks": 101376,
          "time": 99,
          "velocity": 0.3937007874015748
        },
        {
          "duration": 0.1875,
          "durationTicks": 192,
          "midi": 55,
          "name": "G3",
          "ticks": 101568,
          "time": 99.1875,
          "velocity": 0.3937007874015748
        },
        {
          "duration": 0.1875,
          "durationTicks": 192,
          "midi": 67,
          "name": "G4",
          "ticks": 101568,
          "time": 99.1875,
          "velocity": 0.3937007874015748
        },
        {
          "duration": 0.1875,
          "durationTicks": 192,
          "midi": 64,
          "name": "E4",
          "ticks": 101760,
          "time": 99.375,
          "velocity": 0.3937007874015748
        },
        {
          "duration": 0.1875,
          "durationTicks": 192,
          "midi": 52,
          "name": "E3",
          "ticks": 101760,
          "time": 99.375,
          "velocity": 0.3937007874015748
        },
        {
          "duration": 0.9375,
          "durationTicks": 960,
          "midi": 60,
          "name": "C4",
          "ticks": 101952,
          "time": 99.5625,
          "velocity": 0.3937007874015748
        },
        {
          "duration": 0.9375,
          "durationTicks": 960,
          "midi": 48,
          "name": "C3",
          "ticks": 101952,
          "time": 99.5625,
          "velocity": 0.3937007874015748
        },
        {
          "duration": 0.1875,
          "durationTicks": 192,
          "midi": 59,
          "name": "B3",
          "ticks": 102912,
          "time": 100.5,
          "velocity": 0.3937007874015748
        },
        {
          "duration": 0.1875,
          "durationTicks": 192,
          "midi": 71,
          "name": "B4",
          "ticks": 102912,
          "time": 100.5,
          "velocity": 0.3937007874015748
        },
        {
          "duration": 0.1875,
          "durationTicks": 192,
          "midi": 67,
          "name": "G4",
          "ticks": 103104,
          "time": 100.6875,
          "velocity": 0.3937007874015748
        },
        {
          "duration": 0.1875,
          "durationTicks": 192,
          "midi": 55,
          "name": "G3",
          "ticks": 103104,
          "time": 100.6875,
          "velocity": 0.3937007874015748
        },
        {
          "duration": 0.1875,
          "durationTicks": 192,
          "midi": 64,
          "name": "E4",
          "ticks": 103296,
          "time": 100.875,
          "velocity": 0.3937007874015748
        },
        {
          "duration": 0.1875,
          "durationTicks": 192,
          "midi": 52,
          "name": "E3",
          "ticks": 103296,
          "time": 100.875,
          "velocity": 0.3937007874015748
        },
        {
          "duration": 0.1875,
          "durationTicks": 192,
          "midi": 70,
          "name": "A#4",
          "ticks": 103488,
          "time": 101.0625,
          "velocity": 0.3937007874015748
        },
        {
          "duration": 0.1875,
          "durationTicks": 192,
          "midi": 58,
          "name": "A#3",
          "ticks": 103488,
          "time": 101.0625,
          "velocity": 0.3937007874015748
        },
        {
          "duration": 0.1875,
          "durationTicks": 192,
          "midi": 67,
          "name": "G4",
          "ticks": 103680,
          "time": 101.25,
          "velocity": 0.3937007874015748
        },
        {
          "duration": 0.1875,
          "durationTicks": 192,
          "midi": 55,
          "name": "G3",
          "ticks": 103680,
          "time": 101.25,
          "velocity": 0.3937007874015748
        },
        {
          "duration": 0.1875,
          "durationTicks": 192,
          "midi": 52,
          "name": "E3",
          "ticks": 103872,
          "time": 101.4375,
          "velocity": 0.3937007874015748
        },
        {
          "duration": 0.1875,
          "durationTicks": 192,
          "midi": 64,
          "name": "E4",
          "ticks": 103872,
          "time": 101.4375,
          "velocity": 0.3937007874015748
        },
        {
          "duration": 0.1875,
          "durationTicks": 192,
          "midi": 58,
          "name": "A#3",
          "ticks": 104064,
          "time": 101.625,
          "velocity": 0.3937007874015748
        },
        {
          "duration": 0.1875,
          "durationTicks": 192,
          "midi": 70,
          "name": "A#4",
          "ticks": 104064,
          "time": 101.625,
          "velocity": 0.3937007874015748
        },
        {
          "duration": 0.1875,
          "durationTicks": 192,
          "midi": 55,
          "name": "G3",
          "ticks": 104256,
          "time": 101.8125,
          "velocity": 0.3937007874015748
        },
        {
          "duration": 0.1875,
          "durationTicks": 192,
          "midi": 67,
          "name": "G4",
          "ticks": 104256,
          "time": 101.8125,
          "velocity": 0.3937007874015748
        },
        {
          "duration": 0.1875,
          "durationTicks": 192,
          "midi": 71,
          "name": "B4",
          "ticks": 104448,
          "time": 102,
          "velocity": 0.3937007874015748
        },
        {
          "duration": 0.1875,
          "durationTicks": 192,
          "midi": 59,
          "name": "B3",
          "ticks": 104448,
          "time": 102,
          "velocity": 0.3937007874015748
        },
        {
          "duration": 0.1875,
          "durationTicks": 192,
          "midi": 67,
          "name": "G4",
          "ticks": 104640,
          "time": 102.1875,
          "velocity": 0.3937007874015748
        },
        {
          "duration": 0.1875,
          "durationTicks": 192,
          "midi": 55,
          "name": "G3",
          "ticks": 104640,
          "time": 102.1875,
          "velocity": 0.3937007874015748
        },
        {
          "duration": 0.1875,
          "durationTicks": 192,
          "midi": 52,
          "name": "E3",
          "ticks": 104832,
          "time": 102.375,
          "velocity": 0.3937007874015748
        },
        {
          "duration": 0.1875,
          "durationTicks": 192,
          "midi": 64,
          "name": "E4",
          "ticks": 104832,
          "time": 102.375,
          "velocity": 0.3937007874015748
        },
        {
          "duration": 0.1875,
          "durationTicks": 192,
          "midi": 58,
          "name": "A#3",
          "ticks": 105024,
          "time": 102.5625,
          "velocity": 0.3937007874015748
        },
        {
          "duration": 0.1875,
          "durationTicks": 192,
          "midi": 70,
          "name": "A#4",
          "ticks": 105024,
          "time": 102.5625,
          "velocity": 0.3937007874015748
        },
        {
          "duration": 0.1875,
          "durationTicks": 192,
          "midi": 67,
          "name": "G4",
          "ticks": 105216,
          "time": 102.75,
          "velocity": 0.3937007874015748
        },
        {
          "duration": 0.1875,
          "durationTicks": 192,
          "midi": 55,
          "name": "G3",
          "ticks": 105216,
          "time": 102.75,
          "velocity": 0.3937007874015748
        },
        {
          "duration": 0.1875,
          "durationTicks": 192,
          "midi": 52,
          "name": "E3",
          "ticks": 105408,
          "time": 102.9375,
          "velocity": 0.3937007874015748
        },
        {
          "duration": 0.1875,
          "durationTicks": 192,
          "midi": 64,
          "name": "E4",
          "ticks": 105408,
          "time": 102.9375,
          "velocity": 0.3937007874015748
        },
        {
          "duration": 0.1875,
          "durationTicks": 192,
          "midi": 60,
          "name": "C4",
          "ticks": 105600,
          "time": 103.125,
          "velocity": 0.3937007874015748
        },
        {
          "duration": 0.1875,
          "durationTicks": 192,
          "midi": 72,
          "name": "C5",
          "ticks": 105600,
          "time": 103.125,
          "velocity": 0.3937007874015748
        },
        {
          "duration": 0.1875,
          "durationTicks": 192,
          "midi": 58,
          "name": "A#3",
          "ticks": 105792,
          "time": 103.3125,
          "velocity": 0.3937007874015748
        },
        {
          "duration": 0.1875,
          "durationTicks": 192,
          "midi": 70,
          "name": "A#4",
          "ticks": 105792,
          "time": 103.3125,
          "velocity": 0.3937007874015748
        },
        {
          "duration": 0.1875,
          "durationTicks": 192,
          "midi": 59,
          "name": "B3",
          "ticks": 105984,
          "time": 103.5,
          "velocity": 0.3937007874015748
        },
        {
          "duration": 0.1875,
          "durationTicks": 192,
          "midi": 71,
          "name": "B4",
          "ticks": 105984,
          "time": 103.5,
          "velocity": 0.3937007874015748
        },
        {
          "duration": 0.1875,
          "durationTicks": 192,
          "midi": 67,
          "name": "G4",
          "ticks": 106176,
          "time": 103.6875,
          "velocity": 0.3937007874015748
        },
        {
          "duration": 0.1875,
          "durationTicks": 192,
          "midi": 55,
          "name": "G3",
          "ticks": 106176,
          "time": 103.6875,
          "velocity": 0.3937007874015748
        },
        {
          "duration": 0.1875,
          "durationTicks": 192,
          "midi": 52,
          "name": "E3",
          "ticks": 106368,
          "time": 103.875,
          "velocity": 0.3937007874015748
        },
        {
          "duration": 0.1875,
          "durationTicks": 192,
          "midi": 64,
          "name": "E4",
          "ticks": 106368,
          "time": 103.875,
          "velocity": 0.3937007874015748
        },
        {
          "duration": 0.1875,
          "durationTicks": 192,
          "midi": 70,
          "name": "A#4",
          "ticks": 106560,
          "time": 104.0625,
          "velocity": 0.3937007874015748
        },
        {
          "duration": 0.1875,
          "durationTicks": 192,
          "midi": 58,
          "name": "A#3",
          "ticks": 106560,
          "time": 104.0625,
          "velocity": 0.3937007874015748
        },
        {
          "duration": 0.1875,
          "durationTicks": 192,
          "midi": 67,
          "name": "G4",
          "ticks": 106752,
          "time": 104.25,
          "velocity": 0.3937007874015748
        },
        {
          "duration": 0.1875,
          "durationTicks": 192,
          "midi": 55,
          "name": "G3",
          "ticks": 106752,
          "time": 104.25,
          "velocity": 0.3937007874015748
        },
        {
          "duration": 0.1875,
          "durationTicks": 192,
          "midi": 52,
          "name": "E3",
          "ticks": 106944,
          "time": 104.4375,
          "velocity": 0.3937007874015748
        },
        {
          "duration": 0.1875,
          "durationTicks": 192,
          "midi": 64,
          "name": "E4",
          "ticks": 106944,
          "time": 104.4375,
          "velocity": 0.3937007874015748
        },
        {
          "duration": 0.1875,
          "durationTicks": 192,
          "midi": 60,
          "name": "C4",
          "ticks": 107136,
          "time": 104.625,
          "velocity": 0.3937007874015748
        },
        {
          "duration": 0.1875,
          "durationTicks": 192,
          "midi": 72,
          "name": "C5",
          "ticks": 107136,
          "time": 104.625,
          "velocity": 0.3937007874015748
        },
        {
          "duration": 0.1875,
          "durationTicks": 192,
          "midi": 70,
          "name": "A#4",
          "ticks": 107328,
          "time": 104.8125,
          "velocity": 0.3937007874015748
        },
        {
          "duration": 0.1875,
          "durationTicks": 192,
          "midi": 58,
          "name": "A#3",
          "ticks": 107328,
          "time": 104.8125,
          "velocity": 0.3937007874015748
        },
        {
          "duration": 0.9375,
          "durationTicks": 960,
          "midi": 47,
          "name": "B2",
          "ticks": 107520,
          "time": 105,
          "velocity": 0.3937007874015748
        },
        {
          "duration": 0.9375,
          "durationTicks": 960,
          "midi": 71,
          "name": "B4",
          "ticks": 107520,
          "time": 105,
          "velocity": 0.3937007874015748
        },
        {
          "duration": 0.9375,
          "durationTicks": 960,
          "midi": 47,
          "name": "B2",
          "ticks": 107520,
          "time": 105,
          "velocity": 0.3937007874015748
        },
        {
          "duration": 0.9375,
          "durationTicks": 960,
          "midi": 71,
          "name": "B4",
          "ticks": 107520,
          "time": 105,
          "velocity": 0.3937007874015748
        },
        {
          "duration": 0.9375,
          "durationTicks": 960,
          "midi": 59,
          "name": "B3",
          "ticks": 107520,
          "time": 105,
          "velocity": 0.3937007874015748
        },
        {
          "duration": 0.9375,
          "durationTicks": 960,
          "midi": 59,
          "name": "B3",
          "ticks": 107520,
          "time": 105,
          "velocity": 0.3937007874015748
        },
        {
          "duration": 0.1875,
          "durationTicks": 192,
          "midi": 52,
          "name": "E3",
          "ticks": 115200,
          "time": 112.5,
          "velocity": 0.3937007874015748
        },
        {
          "duration": 0.1875,
          "durationTicks": 192,
          "midi": 55,
          "name": "G3",
          "ticks": 115392,
          "time": 112.6875,
          "velocity": 0.3937007874015748
        },
        {
          "duration": 0.1875,
          "durationTicks": 192,
          "midi": 59,
          "name": "B3",
          "ticks": 115584,
          "time": 112.875,
          "velocity": 0.3937007874015748
        },
        {
          "duration": 0.1875,
          "durationTicks": 192,
          "midi": 64,
          "name": "E4",
          "ticks": 115776,
          "time": 113.0625,
          "velocity": 0.3937007874015748
        },
        {
          "duration": 0.1875,
          "durationTicks": 192,
          "midi": 63,
          "name": "D#4",
          "ticks": 115968,
          "time": 113.25,
          "velocity": 0.3937007874015748
        },
        {
          "duration": 0.1875,
          "durationTicks": 192,
          "midi": 59,
          "name": "B3",
          "ticks": 116256,
          "time": 113.53125,
          "velocity": 0.3937007874015748
        },
        {
          "duration": 0.1875,
          "durationTicks": 192,
          "midi": 63,
          "name": "D#4",
          "ticks": 116544,
          "time": 113.8125,
          "velocity": 0.3937007874015748
        },
        {
          "duration": 0.1875,
          "durationTicks": 192,
          "midi": 62,
          "name": "D4",
          "ticks": 116736,
          "time": 114,
          "velocity": 0.3937007874015748
        },
        {
          "duration": 0.1875,
          "durationTicks": 192,
          "midi": 59,
          "name": "B3",
          "ticks": 117024,
          "time": 114.28125,
          "velocity": 0.3937007874015748
        },
        {
          "duration": 0.1875,
          "durationTicks": 192,
          "midi": 62,
          "name": "D4",
          "ticks": 117312,
          "time": 114.5625,
          "velocity": 0.3937007874015748
        },
        {
          "duration": 0.1875,
          "durationTicks": 192,
          "midi": 61,
          "name": "C#4",
          "ticks": 117504,
          "time": 114.75,
          "velocity": 0.3937007874015748
        },
        {
          "duration": 0.1875,
          "durationTicks": 192,
          "midi": 58,
          "name": "A#3",
          "ticks": 117792,
          "time": 115.03125,
          "velocity": 0.3937007874015748
        },
        {
          "duration": 0.1875,
          "durationTicks": 192,
          "midi": 55,
          "name": "G3",
          "ticks": 118080,
          "time": 115.3125,
          "velocity": 0.3937007874015748
        },
        {
          "duration": 0.1875,
          "durationTicks": 192,
          "midi": 52,
          "name": "E3",
          "ticks": 121344,
          "time": 118.5,
          "velocity": 0.3937007874015748
        },
        {
          "duration": 0.1875,
          "durationTicks": 192,
          "midi": 55,
          "name": "G3",
          "ticks": 121536,
          "time": 118.6875,
          "velocity": 0.3937007874015748
        },
        {
          "duration": 0.1875,
          "durationTicks": 192,
          "midi": 59,
          "name": "B3",
          "ticks": 121728,
          "time": 118.875,
          "velocity": 0.3937007874015748
        },
        {
          "duration": 0.1875,
          "durationTicks": 192,
          "midi": 63,
          "name": "D#4",
          "ticks": 122112,
          "time": 119.25,
          "velocity": 0.3937007874015748
        },
        {
          "duration": 0.1875,
          "durationTicks": 192,
          "midi": 59,
          "name": "B3",
          "ticks": 122400,
          "time": 119.53125,
          "velocity": 0.3937007874015748
        },
        {
          "duration": 0.1875,
          "durationTicks": 192,
          "midi": 63,
          "name": "D#4",
          "ticks": 122688,
          "time": 119.8125,
          "velocity": 0.3937007874015748
        },
        {
          "duration": 0.1875,
          "durationTicks": 192,
          "midi": 62,
          "name": "D4",
          "ticks": 122880,
          "time": 120,
          "velocity": 0.3937007874015748
        },
        {
          "duration": 0.1875,
          "durationTicks": 192,
          "midi": 59,
          "name": "B3",
          "ticks": 123168,
          "time": 120.28125,
          "velocity": 0.3937007874015748
        },
        {
          "duration": 0.1875,
          "durationTicks": 192,
          "midi": 62,
          "name": "D4",
          "ticks": 123456,
          "time": 120.5625,
          "velocity": 0.3937007874015748
        },
        {
          "duration": 0.1875,
          "durationTicks": 192,
          "midi": 61,
          "name": "C#4",
          "ticks": 123648,
          "time": 120.75,
          "velocity": 0.3937007874015748
        },
        {
          "duration": 0.1875,
          "durationTicks": 192,
          "midi": 58,
          "name": "A#3",
          "ticks": 123936,
          "time": 121.03125,
          "velocity": 0.3937007874015748
        },
        {
          "duration": 0.1875,
          "durationTicks": 192,
          "midi": 55,
          "name": "G3",
          "ticks": 124224,
          "time": 121.3125,
          "velocity": 0.3937007874015748
        },
        {
          "duration": 0.1875,
          "durationTicks": 192,
          "midi": 52,
          "name": "E3",
          "ticks": 127488,
          "time": 124.5,
          "velocity": 0.3937007874015748
        },
        {
          "duration": 0.1875,
          "durationTicks": 192,
          "midi": 55,
          "name": "G3",
          "ticks": 127680,
          "time": 124.6875,
          "velocity": 0.3937007874015748
        },
        {
          "duration": 0.1875,
          "durationTicks": 192,
          "midi": 59,
          "name": "B3",
          "ticks": 127872,
          "time": 124.875,
          "velocity": 0.3937007874015748
        },
        {
          "duration": 0.1875,
          "durationTicks": 192,
          "midi": 63,
          "name": "D#4",
          "ticks": 128256,
          "time": 125.25,
          "velocity": 0.3937007874015748
        },
        {
          "duration": 0.1875,
          "durationTicks": 192,
          "midi": 59,
          "name": "B3",
          "ticks": 128544,
          "time": 125.53125,
          "velocity": 0.3937007874015748
        },
        {
          "duration": 0.1875,
          "durationTicks": 192,
          "midi": 63,
          "name": "D#4",
          "ticks": 128832,
          "time": 125.8125,
          "velocity": 0.3937007874015748
        },
        {
          "duration": 0.1875,
          "durationTicks": 192,
          "midi": 62,
          "name": "D4",
          "ticks": 129024,
          "time": 126,
          "velocity": 0.3937007874015748
        },
        {
          "duration": 0.1875,
          "durationTicks": 192,
          "midi": 59,
          "name": "B3",
          "ticks": 129312,
          "time": 126.28125,
          "velocity": 0.3937007874015748
        },
        {
          "duration": 0.1875,
          "durationTicks": 192,
          "midi": 62,
          "name": "D4",
          "ticks": 129600,
          "time": 126.5625,
          "velocity": 0.3937007874015748
        },
        {
          "duration": 0.1875,
          "durationTicks": 192,
          "midi": 61,
          "name": "C#4",
          "ticks": 129792,
          "time": 126.75,
          "velocity": 0.3937007874015748
        },
        {
          "duration": 0.1875,
          "durationTicks": 192,
          "midi": 58,
          "name": "A#3",
          "ticks": 130080,
          "time": 127.03125,
          "velocity": 0.3937007874015748
        },
        {
          "duration": 0.1875,
          "durationTicks": 192,
          "midi": 55,
          "name": "G3",
          "ticks": 130368,
          "time": 127.3125,
          "velocity": 0.3937007874015748
        },
        {
          "duration": 0.1875,
          "durationTicks": 192,
          "midi": 52,
          "name": "E3",
          "ticks": 133632,
          "time": 130.5,
          "velocity": 0.3937007874015748
        },
        {
          "duration": 0.1875,
          "durationTicks": 192,
          "midi": 55,
          "name": "G3",
          "ticks": 133824,
          "time": 130.6875,
          "velocity": 0.3937007874015748
        },
        {
          "duration": 0.1875,
          "durationTicks": 192,
          "midi": 59,
          "name": "B3",
          "ticks": 134016,
          "time": 130.875,
          "velocity": 0.3937007874015748
        },
        {
          "duration": 0.1875,
          "durationTicks": 192,
          "midi": 63,
          "name": "D#4",
          "ticks": 134400,
          "time": 131.25,
          "velocity": 0.3937007874015748
        },
        {
          "duration": 0.1875,
          "durationTicks": 192,
          "midi": 59,
          "name": "B3",
          "ticks": 134688,
          "time": 131.53125,
          "velocity": 0.3937007874015748
        },
        {
          "duration": 0.1875,
          "durationTicks": 192,
          "midi": 63,
          "name": "D#4",
          "ticks": 134976,
          "time": 131.8125,
          "velocity": 0.3937007874015748
        },
        {
          "duration": 0.1875,
          "durationTicks": 192,
          "midi": 62,
          "name": "D4",
          "ticks": 135168,
          "time": 132,
          "velocity": 0.3937007874015748
        },
        {
          "duration": 0.1875,
          "durationTicks": 192,
          "midi": 59,
          "name": "B3",
          "ticks": 135456,
          "time": 132.28125,
          "velocity": 0.3937007874015748
        },
        {
          "duration": 0.1875,
          "durationTicks": 192,
          "midi": 62,
          "name": "D4",
          "ticks": 135744,
          "time": 132.5625,
          "velocity": 0.3937007874015748
        },
        {
          "duration": 0.1875,
          "durationTicks": 192,
          "midi": 61,
          "name": "C#4",
          "ticks": 135936,
          "time": 132.75,
          "velocity": 0.3937007874015748
        },
        {
          "duration": 0.1875,
          "durationTicks": 192,
          "midi": 58,
          "name": "A#3",
          "ticks": 136224,
          "time": 133.03125,
          "velocity": 0.3937007874015748
        },
        {
          "duration": 0.1875,
          "durationTicks": 192,
          "midi": 55,
          "name": "G3",
          "ticks": 136512,
          "time": 133.3125,
          "velocity": 0.3937007874015748
        },
        {
          "duration": 0.1875,
          "durationTicks": 192,
          "midi": 71,
          "name": "B4",
          "ticks": 181248,
          "time": 177,
          "velocity": 0.3937007874015748
        },
        {
          "duration": 0.1875,
          "durationTicks": 192,
          "midi": 59,
          "name": "B3",
          "ticks": 181248,
          "time": 177,
          "velocity": 0.3937007874015748
        },
        {
          "duration": 0.1875,
          "durationTicks": 192,
          "midi": 55,
          "name": "G3",
          "ticks": 181440,
          "time": 177.1875,
          "velocity": 0.3937007874015748
        },
        {
          "duration": 0.1875,
          "durationTicks": 192,
          "midi": 67,
          "name": "G4",
          "ticks": 181440,
          "time": 177.1875,
          "velocity": 0.3937007874015748
        },
        {
          "duration": 0.1875,
          "durationTicks": 192,
          "midi": 64,
          "name": "E4",
          "ticks": 181632,
          "time": 177.375,
          "velocity": 0.3937007874015748
        },
        {
          "duration": 0.1875,
          "durationTicks": 192,
          "midi": 52,
          "name": "E3",
          "ticks": 181632,
          "time": 177.375,
          "velocity": 0.3937007874015748
        },
        {
          "duration": 0.1875,
          "durationTicks": 192,
          "midi": 58,
          "name": "A#3",
          "ticks": 181824,
          "time": 177.5625,
          "velocity": 0.3937007874015748
        },
        {
          "duration": 0.1875,
          "durationTicks": 192,
          "midi": 70,
          "name": "A#4",
          "ticks": 181824,
          "time": 177.5625,
          "velocity": 0.3937007874015748
        },
        {
          "duration": 0.1875,
          "durationTicks": 192,
          "midi": 67,
          "name": "G4",
          "ticks": 182016,
          "time": 177.75,
          "velocity": 0.3937007874015748
        },
        {
          "duration": 0.1875,
          "durationTicks": 192,
          "midi": 55,
          "name": "G3",
          "ticks": 182016,
          "time": 177.75,
          "velocity": 0.3937007874015748
        },
        {
          "duration": 0.1875,
          "durationTicks": 192,
          "midi": 52,
          "name": "E3",
          "ticks": 182208,
          "time": 177.9375,
          "velocity": 0.3937007874015748
        },
        {
          "duration": 0.1875,
          "durationTicks": 192,
          "midi": 64,
          "name": "E4",
          "ticks": 182208,
          "time": 177.9375,
          "velocity": 0.3937007874015748
        },
        {
          "duration": 0.1875,
          "durationTicks": 192,
          "midi": 70,
          "name": "A#4",
          "ticks": 182400,
          "time": 178.125,
          "velocity": 0.3937007874015748
        },
        {
          "duration": 0.1875,
          "durationTicks": 192,
          "midi": 58,
          "name": "A#3",
          "ticks": 182400,
          "time": 178.125,
          "velocity": 0.3937007874015748
        },
        {
          "duration": 0.1875,
          "durationTicks": 192,
          "midi": 67,
          "name": "G4",
          "ticks": 182592,
          "time": 178.3125,
          "velocity": 0.3937007874015748
        },
        {
          "duration": 0.1875,
          "durationTicks": 192,
          "midi": 55,
          "name": "G3",
          "ticks": 182592,
          "time": 178.3125,
          "velocity": 0.3937007874015748
        },
        {
          "duration": 0.1875,
          "durationTicks": 192,
          "midi": 71,
          "name": "B4",
          "ticks": 182784,
          "time": 178.5,
          "velocity": 0.3937007874015748
        },
        {
          "duration": 0.1875,
          "durationTicks": 192,
          "midi": 59,
          "name": "B3",
          "ticks": 182784,
          "time": 178.5,
          "velocity": 0.3937007874015748
        },
        {
          "duration": 0.1875,
          "durationTicks": 192,
          "midi": 67,
          "name": "G4",
          "ticks": 182976,
          "time": 178.6875,
          "velocity": 0.3937007874015748
        },
        {
          "duration": 0.1875,
          "durationTicks": 192,
          "midi": 55,
          "name": "G3",
          "ticks": 182976,
          "time": 178.6875,
          "velocity": 0.3937007874015748
        },
        {
          "duration": 0.1875,
          "durationTicks": 192,
          "midi": 52,
          "name": "E3",
          "ticks": 183168,
          "time": 178.875,
          "velocity": 0.3937007874015748
        },
        {
          "duration": 0.1875,
          "durationTicks": 192,
          "midi": 64,
          "name": "E4",
          "ticks": 183168,
          "time": 178.875,
          "velocity": 0.3937007874015748
        },
        {
          "duration": 0.1875,
          "durationTicks": 192,
          "midi": 58,
          "name": "A#3",
          "ticks": 183360,
          "time": 179.0625,
          "velocity": 0.3937007874015748
        },
        {
          "duration": 0.1875,
          "durationTicks": 192,
          "midi": 70,
          "name": "A#4",
          "ticks": 183360,
          "time": 179.0625,
          "velocity": 0.3937007874015748
        },
        {
          "duration": 0.1875,
          "durationTicks": 192,
          "midi": 67,
          "name": "G4",
          "ticks": 183552,
          "time": 179.25,
          "velocity": 0.3937007874015748
        },
        {
          "duration": 0.1875,
          "durationTicks": 192,
          "midi": 55,
          "name": "G3",
          "ticks": 183552,
          "time": 179.25,
          "velocity": 0.3937007874015748
        },
        {
          "duration": 0.1875,
          "durationTicks": 192,
          "midi": 52,
          "name": "E3",
          "ticks": 183744,
          "time": 179.4375,
          "velocity": 0.3937007874015748
        },
        {
          "duration": 0.1875,
          "durationTicks": 192,
          "midi": 64,
          "name": "E4",
          "ticks": 183744,
          "time": 179.4375,
          "velocity": 0.3937007874015748
        },
        {
          "duration": 0.1875,
          "durationTicks": 192,
          "midi": 60,
          "name": "C4",
          "ticks": 183936,
          "time": 179.625,
          "velocity": 0.3937007874015748
        },
        {
          "duration": 0.1875,
          "durationTicks": 192,
          "midi": 70,
          "name": "A#4",
          "ticks": 184128,
          "time": 179.8125,
          "velocity": 0.3937007874015748
        },
        {
          "duration": 0.1875,
          "durationTicks": 192,
          "midi": 58,
          "name": "A#3",
          "ticks": 184128,
          "time": 179.8125,
          "velocity": 0.3937007874015748
        },
        {
          "duration": 0.1875,
          "durationTicks": 192,
          "midi": 59,
          "name": "B3",
          "ticks": 184320,
          "time": 180,
          "velocity": 0.3937007874015748
        },
        {
          "duration": 0.1875,
          "durationTicks": 192,
          "midi": 71,
          "name": "B4",
          "ticks": 184320,
          "time": 180,
          "velocity": 0.3937007874015748
        },
        {
          "duration": 0.1875,
          "durationTicks": 192,
          "midi": 55,
          "name": "G3",
          "ticks": 184512,
          "time": 180.1875,
          "velocity": 0.3937007874015748
        },
        {
          "duration": 0.1875,
          "durationTicks": 192,
          "midi": 67,
          "name": "G4",
          "ticks": 184512,
          "time": 180.1875,
          "velocity": 0.3937007874015748
        },
        {
          "duration": 0.1875,
          "durationTicks": 192,
          "midi": 52,
          "name": "E3",
          "ticks": 184704,
          "time": 180.375,
          "velocity": 0.3937007874015748
        },
        {
          "duration": 0.1875,
          "durationTicks": 192,
          "midi": 64,
          "name": "E4",
          "ticks": 184704,
          "time": 180.375,
          "velocity": 0.3937007874015748
        },
        {
          "duration": 0.1875,
          "durationTicks": 192,
          "midi": 70,
          "name": "A#4",
          "ticks": 184896,
          "time": 180.5625,
          "velocity": 0.3937007874015748
        },
        {
          "duration": 0.1875,
          "durationTicks": 192,
          "midi": 58,
          "name": "A#3",
          "ticks": 184896,
          "time": 180.5625,
          "velocity": 0.3937007874015748
        },
        {
          "duration": 0.1875,
          "durationTicks": 192,
          "midi": 55,
          "name": "G3",
          "ticks": 185088,
          "time": 180.75,
          "velocity": 0.3937007874015748
        },
        {
          "duration": 0.1875,
          "durationTicks": 192,
          "midi": 67,
          "name": "G4",
          "ticks": 185088,
          "time": 180.75,
          "velocity": 0.3937007874015748
        },
        {
          "duration": 0.1875,
          "durationTicks": 192,
          "midi": 64,
          "name": "E4",
          "ticks": 185280,
          "time": 180.9375,
          "velocity": 0.3937007874015748
        },
        {
          "duration": 0.1875,
          "durationTicks": 192,
          "midi": 52,
          "name": "E3",
          "ticks": 185280,
          "time": 180.9375,
          "velocity": 0.3937007874015748
        },
        {
          "duration": 0.1875,
          "durationTicks": 192,
          "midi": 70,
          "name": "A#4",
          "ticks": 185472,
          "time": 181.125,
          "velocity": 0.3937007874015748
        },
        {
          "duration": 0.1875,
          "durationTicks": 192,
          "midi": 58,
          "name": "A#3",
          "ticks": 185472,
          "time": 181.125,
          "velocity": 0.3937007874015748
        },
        {
          "duration": 0.1875,
          "durationTicks": 192,
          "midi": 55,
          "name": "G3",
          "ticks": 185664,
          "time": 181.3125,
          "velocity": 0.3937007874015748
        },
        {
          "duration": 0.1875,
          "durationTicks": 192,
          "midi": 67,
          "name": "G4",
          "ticks": 185664,
          "time": 181.3125,
          "velocity": 0.3937007874015748
        },
        {
          "duration": 0.1875,
          "durationTicks": 192,
          "midi": 71,
          "name": "B4",
          "ticks": 185856,
          "time": 181.5,
          "velocity": 0.3937007874015748
        },
        {
          "duration": 0.1875,
          "durationTicks": 192,
          "midi": 59,
          "name": "B3",
          "ticks": 185856,
          "time": 181.5,
          "velocity": 0.3937007874015748
        },
        {
          "duration": 0.1875,
          "durationTicks": 192,
          "midi": 55,
          "name": "G3",
          "ticks": 186048,
          "time": 181.6875,
          "velocity": 0.3937007874015748
        },
        {
          "duration": 0.1875,
          "durationTicks": 192,
          "midi": 67,
          "name": "G4",
          "ticks": 186048,
          "time": 181.6875,
          "velocity": 0.3937007874015748
        },
        {
          "duration": 0.1875,
          "durationTicks": 192,
          "midi": 52,
          "name": "E3",
          "ticks": 186240,
          "time": 181.875,
          "velocity": 0.3937007874015748
        },
        {
          "duration": 0.1875,
          "durationTicks": 192,
          "midi": 64,
          "name": "E4",
          "ticks": 186240,
          "time": 181.875,
          "velocity": 0.3937007874015748
        },
        {
          "duration": 0.9375,
          "durationTicks": 960,
          "midi": 60,
          "name": "C4",
          "ticks": 186432,
          "time": 182.0625,
          "velocity": 0.3937007874015748
        },
        {
          "duration": 0.9375,
          "durationTicks": 960,
          "midi": 48,
          "name": "C3",
          "ticks": 186432,
          "time": 182.0625,
          "velocity": 0.3937007874015748
        },
        {
          "duration": 0.1875,
          "durationTicks": 192,
          "midi": 59,
          "name": "B3",
          "ticks": 187392,
          "time": 183,
          "velocity": 0.3937007874015748
        },
        {
          "duration": 0.1875,
          "durationTicks": 192,
          "midi": 71,
          "name": "B4",
          "ticks": 187392,
          "time": 183,
          "velocity": 0.3937007874015748
        },
        {
          "duration": 0.1875,
          "durationTicks": 192,
          "midi": 55,
          "name": "G3",
          "ticks": 187584,
          "time": 183.1875,
          "velocity": 0.3937007874015748
        },
        {
          "duration": 0.1875,
          "durationTicks": 192,
          "midi": 67,
          "name": "G4",
          "ticks": 187584,
          "time": 183.1875,
          "velocity": 0.3937007874015748
        },
        {
          "duration": 0.1875,
          "durationTicks": 192,
          "midi": 52,
          "name": "E3",
          "ticks": 187776,
          "time": 183.375,
          "velocity": 0.3937007874015748
        },
        {
          "duration": 0.1875,
          "durationTicks": 192,
          "midi": 64,
          "name": "E4",
          "ticks": 187776,
          "time": 183.375,
          "velocity": 0.3937007874015748
        },
        {
          "duration": 0.1875,
          "durationTicks": 192,
          "midi": 58,
          "name": "A#3",
          "ticks": 187968,
          "time": 183.5625,
          "velocity": 0.3937007874015748
        },
        {
          "duration": 0.1875,
          "durationTicks": 192,
          "midi": 70,
          "name": "A#4",
          "ticks": 187968,
          "time": 183.5625,
          "velocity": 0.3937007874015748
        },
        {
          "duration": 0.1875,
          "durationTicks": 192,
          "midi": 67,
          "name": "G4",
          "ticks": 188160,
          "time": 183.75,
          "velocity": 0.3937007874015748
        },
        {
          "duration": 0.1875,
          "durationTicks": 192,
          "midi": 55,
          "name": "G3",
          "ticks": 188160,
          "time": 183.75,
          "velocity": 0.3937007874015748
        },
        {
          "duration": 0.1875,
          "durationTicks": 192,
          "midi": 52,
          "name": "E3",
          "ticks": 188352,
          "time": 183.9375,
          "velocity": 0.3937007874015748
        },
        {
          "duration": 0.1875,
          "durationTicks": 192,
          "midi": 64,
          "name": "E4",
          "ticks": 188352,
          "time": 183.9375,
          "velocity": 0.3937007874015748
        },
        {
          "duration": 0.1875,
          "durationTicks": 192,
          "midi": 70,
          "name": "A#4",
          "ticks": 188544,
          "time": 184.125,
          "velocity": 0.3937007874015748
        },
        {
          "duration": 0.1875,
          "durationTicks": 192,
          "midi": 58,
          "name": "A#3",
          "ticks": 188544,
          "time": 184.125,
          "velocity": 0.3937007874015748
        },
        {
          "duration": 0.1875,
          "durationTicks": 192,
          "midi": 55,
          "name": "G3",
          "ticks": 188736,
          "time": 184.3125,
          "velocity": 0.3937007874015748
        },
        {
          "duration": 0.1875,
          "durationTicks": 192,
          "midi": 67,
          "name": "G4",
          "ticks": 188736,
          "time": 184.3125,
          "velocity": 0.3937007874015748
        },
        {
          "duration": 0.1875,
          "durationTicks": 192,
          "midi": 59,
          "name": "B3",
          "ticks": 188928,
          "time": 184.5,
          "velocity": 0.3937007874015748
        },
        {
          "duration": 0.1875,
          "durationTicks": 192,
          "midi": 71,
          "name": "B4",
          "ticks": 188928,
          "time": 184.5,
          "velocity": 0.3937007874015748
        },
        {
          "duration": 0.1875,
          "durationTicks": 192,
          "midi": 67,
          "name": "G4",
          "ticks": 189120,
          "time": 184.6875,
          "velocity": 0.3937007874015748
        },
        {
          "duration": 0.1875,
          "durationTicks": 192,
          "midi": 55,
          "name": "G3",
          "ticks": 189120,
          "time": 184.6875,
          "velocity": 0.3937007874015748
        },
        {
          "duration": 0.1875,
          "durationTicks": 192,
          "midi": 64,
          "name": "E4",
          "ticks": 189312,
          "time": 184.875,
          "velocity": 0.3937007874015748
        },
        {
          "duration": 0.1875,
          "durationTicks": 192,
          "midi": 52,
          "name": "E3",
          "ticks": 189312,
          "time": 184.875,
          "velocity": 0.3937007874015748
        },
        {
          "duration": 0.1875,
          "durationTicks": 192,
          "midi": 70,
          "name": "A#4",
          "ticks": 189504,
          "time": 185.0625,
          "velocity": 0.3937007874015748
        },
        {
          "duration": 0.1875,
          "durationTicks": 192,
          "midi": 58,
          "name": "A#3",
          "ticks": 189504,
          "time": 185.0625,
          "velocity": 0.3937007874015748
        },
        {
          "duration": 0.1875,
          "durationTicks": 192,
          "midi": 55,
          "name": "G3",
          "ticks": 189696,
          "time": 185.25,
          "velocity": 0.3937007874015748
        },
        {
          "duration": 0.1875,
          "durationTicks": 192,
          "midi": 67,
          "name": "G4",
          "ticks": 189696,
          "time": 185.25,
          "velocity": 0.3937007874015748
        },
        {
          "duration": 0.1875,
          "durationTicks": 192,
          "midi": 64,
          "name": "E4",
          "ticks": 189888,
          "time": 185.4375,
          "velocity": 0.3937007874015748
        },
        {
          "duration": 0.1875,
          "durationTicks": 192,
          "midi": 52,
          "name": "E3",
          "ticks": 189888,
          "time": 185.4375,
          "velocity": 0.3937007874015748
        },
        {
          "duration": 0.1875,
          "durationTicks": 192,
          "midi": 60,
          "name": "C4",
          "ticks": 190080,
          "time": 185.625,
          "velocity": 0.3937007874015748
        },
        {
          "duration": 0.1875,
          "durationTicks": 192,
          "midi": 72,
          "name": "C5",
          "ticks": 190080,
          "time": 185.625,
          "velocity": 0.3937007874015748
        },
        {
          "duration": 0.1875,
          "durationTicks": 192,
          "midi": 70,
          "name": "A#4",
          "ticks": 190272,
          "time": 185.8125,
          "velocity": 0.3937007874015748
        },
        {
          "duration": 0.1875,
          "durationTicks": 192,
          "midi": 58,
          "name": "A#3",
          "ticks": 190272,
          "time": 185.8125,
          "velocity": 0.3937007874015748
        },
        {
          "duration": 0.1875,
          "durationTicks": 192,
          "midi": 71,
          "name": "B4",
          "ticks": 190464,
          "time": 186,
          "velocity": 0.3937007874015748
        },
        {
          "duration": 0.1875,
          "durationTicks": 192,
          "midi": 59,
          "name": "B3",
          "ticks": 190464,
          "time": 186,
          "velocity": 0.3937007874015748
        },
        {
          "duration": 0.1875,
          "durationTicks": 192,
          "midi": 67,
          "name": "G4",
          "ticks": 190656,
          "time": 186.1875,
          "velocity": 0.3937007874015748
        },
        {
          "duration": 0.1875,
          "durationTicks": 192,
          "midi": 55,
          "name": "G3",
          "ticks": 190656,
          "time": 186.1875,
          "velocity": 0.3937007874015748
        },
        {
          "duration": 0.1875,
          "durationTicks": 192,
          "midi": 64,
          "name": "E4",
          "ticks": 190848,
          "time": 186.375,
          "velocity": 0.3937007874015748
        },
        {
          "duration": 0.1875,
          "durationTicks": 192,
          "midi": 52,
          "name": "E3",
          "ticks": 190848,
          "time": 186.375,
          "velocity": 0.3937007874015748
        },
        {
          "duration": 0.1875,
          "durationTicks": 192,
          "midi": 58,
          "name": "A#3",
          "ticks": 191040,
          "time": 186.5625,
          "velocity": 0.3937007874015748
        },
        {
          "duration": 0.1875,
          "durationTicks": 192,
          "midi": 70,
          "name": "A#4",
          "ticks": 191040,
          "time": 186.5625,
          "velocity": 0.3937007874015748
        },
        {
          "duration": 0.1875,
          "durationTicks": 192,
          "midi": 55,
          "name": "G3",
          "ticks": 191232,
          "time": 186.75,
          "velocity": 0.3937007874015748
        },
        {
          "duration": 0.1875,
          "durationTicks": 192,
          "midi": 67,
          "name": "G4",
          "ticks": 191232,
          "time": 186.75,
          "velocity": 0.3937007874015748
        },
        {
          "duration": 0.1875,
          "durationTicks": 192,
          "midi": 64,
          "name": "E4",
          "ticks": 191424,
          "time": 186.9375,
          "velocity": 0.3937007874015748
        },
        {
          "duration": 0.1875,
          "durationTicks": 192,
          "midi": 52,
          "name": "E3",
          "ticks": 191424,
          "time": 186.9375,
          "velocity": 0.3937007874015748
        },
        {
          "duration": 0.1875,
          "durationTicks": 192,
          "midi": 72,
          "name": "C5",
          "ticks": 191616,
          "time": 187.125,
          "velocity": 0.3937007874015748
        },
        {
          "duration": 0.1875,
          "durationTicks": 192,
          "midi": 60,
          "name": "C4",
          "ticks": 191616,
          "time": 187.125,
          "velocity": 0.3937007874015748
        },
        {
          "duration": 0.1875,
          "durationTicks": 192,
          "midi": 58,
          "name": "A#3",
          "ticks": 191808,
          "time": 187.3125,
          "velocity": 0.3937007874015748
        },
        {
          "duration": 0.1875,
          "durationTicks": 192,
          "midi": 70,
          "name": "A#4",
          "ticks": 191808,
          "time": 187.3125,
          "velocity": 0.3937007874015748
        },
        {
          "duration": 0.9375,
          "durationTicks": 960,
          "midi": 59,
          "name": "B3",
          "ticks": 192000,
          "time": 187.5,
          "velocity": 0.3937007874015748
        },
        {
          "duration": 0.9375,
          "durationTicks": 960,
          "midi": 71,
          "name": "B4",
          "ticks": 192000,
          "time": 187.5,
          "velocity": 0.3937007874015748
        },
        {
          "duration": 0.9375,
          "durationTicks": 960,
          "midi": 47,
          "name": "B2",
          "ticks": 192000,
          "time": 187.5,
          "velocity": 0.3937007874015748
        },
        {
          "duration": 0.1875,
          "durationTicks": 192,
          "midi": 72,
          "name": "C5",
          "ticks": 215040,
          "time": 210,
          "velocity": 0.3937007874015748
        },
        {
          "duration": 0.1875,
          "durationTicks": 192,
          "midi": 60,
          "name": "C4",
          "ticks": 215040,
          "time": 210,
          "velocity": 0.3937007874015748
        },
        {
          "duration": 0.1875,
          "durationTicks": 192,
          "midi": 68,
          "name": "G#4",
          "ticks": 215232,
          "time": 210.1875,
          "velocity": 0.3937007874015748
        },
        {
          "duration": 0.1875,
          "durationTicks": 192,
          "midi": 56,
          "name": "G#3",
          "ticks": 215232,
          "time": 210.1875,
          "velocity": 0.3937007874015748
        },
        {
          "duration": 0.1875,
          "durationTicks": 192,
          "midi": 53,
          "name": "F3",
          "ticks": 215424,
          "time": 210.375,
          "velocity": 0.3937007874015748
        },
        {
          "duration": 0.1875,
          "durationTicks": 192,
          "midi": 65,
          "name": "F4",
          "ticks": 215424,
          "time": 210.375,
          "velocity": 0.3937007874015748
        },
        {
          "duration": 0.1875,
          "durationTicks": 192,
          "midi": 71,
          "name": "B4",
          "ticks": 215616,
          "time": 210.5625,
          "velocity": 0.3937007874015748
        },
        {
          "duration": 0.1875,
          "durationTicks": 192,
          "midi": 59,
          "name": "B3",
          "ticks": 215616,
          "time": 210.5625,
          "velocity": 0.3937007874015748
        },
        {
          "duration": 0.1875,
          "durationTicks": 192,
          "midi": 68,
          "name": "G#4",
          "ticks": 215808,
          "time": 210.75,
          "velocity": 0.3937007874015748
        },
        {
          "duration": 0.1875,
          "durationTicks": 192,
          "midi": 56,
          "name": "G#3",
          "ticks": 215808,
          "time": 210.75,
          "velocity": 0.3937007874015748
        },
        {
          "duration": 0.1875,
          "durationTicks": 192,
          "midi": 53,
          "name": "F3",
          "ticks": 216000,
          "time": 210.9375,
          "velocity": 0.3937007874015748
        },
        {
          "duration": 0.1875,
          "durationTicks": 192,
          "midi": 65,
          "name": "F4",
          "ticks": 216000,
          "time": 210.9375,
          "velocity": 0.3937007874015748
        },
        {
          "duration": 0.1875,
          "durationTicks": 192,
          "midi": 59,
          "name": "B3",
          "ticks": 216192,
          "time": 211.125,
          "velocity": 0.3937007874015748
        },
        {
          "duration": 0.1875,
          "durationTicks": 192,
          "midi": 71,
          "name": "B4",
          "ticks": 216192,
          "time": 211.125,
          "velocity": 0.3937007874015748
        },
        {
          "duration": 0.1875,
          "durationTicks": 192,
          "midi": 56,
          "name": "G#3",
          "ticks": 216384,
          "time": 211.3125,
          "velocity": 0.3937007874015748
        },
        {
          "duration": 0.1875,
          "durationTicks": 192,
          "midi": 68,
          "name": "G#4",
          "ticks": 216384,
          "time": 211.3125,
          "velocity": 0.3937007874015748
        },
        {
          "duration": 0.1875,
          "durationTicks": 192,
          "midi": 60,
          "name": "C4",
          "ticks": 216576,
          "time": 211.5,
          "velocity": 0.3937007874015748
        },
        {
          "duration": 0.1875,
          "durationTicks": 192,
          "midi": 72,
          "name": "C5",
          "ticks": 216576,
          "time": 211.5,
          "velocity": 0.3937007874015748
        },
        {
          "duration": 0.1875,
          "durationTicks": 192,
          "midi": 56,
          "name": "G#3",
          "ticks": 216768,
          "time": 211.6875,
          "velocity": 0.3937007874015748
        },
        {
          "duration": 0.1875,
          "durationTicks": 192,
          "midi": 68,
          "name": "G#4",
          "ticks": 216768,
          "time": 211.6875,
          "velocity": 0.3937007874015748
        },
        {
          "duration": 0.1875,
          "durationTicks": 192,
          "midi": 65,
          "name": "F4",
          "ticks": 216960,
          "time": 211.875,
          "velocity": 0.3937007874015748
        },
        {
          "duration": 0.1875,
          "durationTicks": 192,
          "midi": 53,
          "name": "F3",
          "ticks": 216960,
          "time": 211.875,
          "velocity": 0.3937007874015748
        },
        {
          "duration": 0.1875,
          "durationTicks": 192,
          "midi": 59,
          "name": "B3",
          "ticks": 217152,
          "time": 212.0625,
          "velocity": 0.3937007874015748
        },
        {
          "duration": 0.1875,
          "durationTicks": 192,
          "midi": 71,
          "name": "B4",
          "ticks": 217152,
          "time": 212.0625,
          "velocity": 0.3937007874015748
        },
        {
          "duration": 0.1875,
          "durationTicks": 192,
          "midi": 56,
          "name": "G#3",
          "ticks": 217344,
          "time": 212.25,
          "velocity": 0.3937007874015748
        },
        {
          "duration": 0.1875,
          "durationTicks": 192,
          "midi": 68,
          "name": "G#4",
          "ticks": 217344,
          "time": 212.25,
          "velocity": 0.3937007874015748
        },
        {
          "duration": 0.1875,
          "durationTicks": 192,
          "midi": 65,
          "name": "F4",
          "ticks": 217536,
          "time": 212.4375,
          "velocity": 0.3937007874015748
        },
        {
          "duration": 0.1875,
          "durationTicks": 192,
          "midi": 53,
          "name": "F3",
          "ticks": 217536,
          "time": 212.4375,
          "velocity": 0.3937007874015748
        },
        {
          "duration": 0.1875,
          "durationTicks": 192,
          "midi": 61,
          "name": "C#4",
          "ticks": 217728,
          "time": 212.625,
          "velocity": 0.3937007874015748
        },
        {
          "duration": 0.1875,
          "durationTicks": 192,
          "midi": 59,
          "name": "B3",
          "ticks": 217920,
          "time": 212.8125,
          "velocity": 0.3937007874015748
        },
        {
          "duration": 0.1875,
          "durationTicks": 192,
          "midi": 71,
          "name": "B4",
          "ticks": 217920,
          "time": 212.8125,
          "velocity": 0.3937007874015748
        },
        {
          "duration": 0.1875,
          "durationTicks": 192,
          "midi": 60,
          "name": "C4",
          "ticks": 218112,
          "time": 213,
          "velocity": 0.3937007874015748
        },
        {
          "duration": 0.1875,
          "durationTicks": 192,
          "midi": 72,
          "name": "C5",
          "ticks": 218112,
          "time": 213,
          "velocity": 0.3937007874015748
        },
        {
          "duration": 0.1875,
          "durationTicks": 192,
          "midi": 68,
          "name": "G#4",
          "ticks": 218304,
          "time": 213.1875,
          "velocity": 0.3937007874015748
        },
        {
          "duration": 0.1875,
          "durationTicks": 192,
          "midi": 56,
          "name": "G#3",
          "ticks": 218304,
          "time": 213.1875,
          "velocity": 0.3937007874015748
        },
        {
          "duration": 0.1875,
          "durationTicks": 192,
          "midi": 53,
          "name": "F3",
          "ticks": 218496,
          "time": 213.375,
          "velocity": 0.3937007874015748
        },
        {
          "duration": 0.1875,
          "durationTicks": 192,
          "midi": 65,
          "name": "F4",
          "ticks": 218496,
          "time": 213.375,
          "velocity": 0.3937007874015748
        },
        {
          "duration": 0.1875,
          "durationTicks": 192,
          "midi": 71,
          "name": "B4",
          "ticks": 218688,
          "time": 213.5625,
          "velocity": 0.3937007874015748
        },
        {
          "duration": 0.1875,
          "durationTicks": 192,
          "midi": 59,
          "name": "B3",
          "ticks": 218688,
          "time": 213.5625,
          "velocity": 0.3937007874015748
        },
        {
          "duration": 0.1875,
          "durationTicks": 192,
          "midi": 68,
          "name": "G#4",
          "ticks": 218880,
          "time": 213.75,
          "velocity": 0.3937007874015748
        },
        {
          "duration": 0.1875,
          "durationTicks": 192,
          "midi": 56,
          "name": "G#3",
          "ticks": 218880,
          "time": 213.75,
          "velocity": 0.3937007874015748
        },
        {
          "duration": 0.1875,
          "durationTicks": 192,
          "midi": 65,
          "name": "F4",
          "ticks": 219072,
          "time": 213.9375,
          "velocity": 0.3937007874015748
        },
        {
          "duration": 0.1875,
          "durationTicks": 192,
          "midi": 53,
          "name": "F3",
          "ticks": 219072,
          "time": 213.9375,
          "velocity": 0.3937007874015748
        },
        {
          "duration": 0.1875,
          "durationTicks": 192,
          "midi": 71,
          "name": "B4",
          "ticks": 219264,
          "time": 214.125,
          "velocity": 0.3937007874015748
        },
        {
          "duration": 0.1875,
          "durationTicks": 192,
          "midi": 59,
          "name": "B3",
          "ticks": 219264,
          "time": 214.125,
          "velocity": 0.3937007874015748
        },
        {
          "duration": 0.1875,
          "durationTicks": 192,
          "midi": 68,
          "name": "G#4",
          "ticks": 219456,
          "time": 214.3125,
          "velocity": 0.3937007874015748
        },
        {
          "duration": 0.1875,
          "durationTicks": 192,
          "midi": 56,
          "name": "G#3",
          "ticks": 219456,
          "time": 214.3125,
          "velocity": 0.3937007874015748
        },
        {
          "duration": 0.1875,
          "durationTicks": 192,
          "midi": 60,
          "name": "C4",
          "ticks": 219648,
          "time": 214.5,
          "velocity": 0.3937007874015748
        },
        {
          "duration": 0.1875,
          "durationTicks": 192,
          "midi": 72,
          "name": "C5",
          "ticks": 219648,
          "time": 214.5,
          "velocity": 0.3937007874015748
        },
        {
          "duration": 0.1875,
          "durationTicks": 192,
          "midi": 56,
          "name": "G#3",
          "ticks": 219840,
          "time": 214.6875,
          "velocity": 0.3937007874015748
        },
        {
          "duration": 0.1875,
          "durationTicks": 192,
          "midi": 68,
          "name": "G#4",
          "ticks": 219840,
          "time": 214.6875,
          "velocity": 0.3937007874015748
        },
        {
          "duration": 0.1875,
          "durationTicks": 192,
          "midi": 53,
          "name": "F3",
          "ticks": 220032,
          "time": 214.875,
          "velocity": 0.3937007874015748
        },
        {
          "duration": 0.1875,
          "durationTicks": 192,
          "midi": 65,
          "name": "F4",
          "ticks": 220032,
          "time": 214.875,
          "velocity": 0.3937007874015748
        },
        {
          "duration": 0.9375,
          "durationTicks": 960,
          "midi": 49,
          "name": "C#3",
          "ticks": 220224,
          "time": 215.0625,
          "velocity": 0.3937007874015748
        },
        {
          "duration": 0.9375,
          "durationTicks": 960,
          "midi": 61,
          "name": "C#4",
          "ticks": 220224,
          "time": 215.0625,
          "velocity": 0.3937007874015748
        },
        {
          "duration": 0.1875,
          "durationTicks": 192,
          "midi": 71,
          "name": "B4",
          "ticks": 221184,
          "time": 216,
          "velocity": 0.3937007874015748
        },
        {
          "duration": 0.1875,
          "durationTicks": 192,
          "midi": 59,
          "name": "B3",
          "ticks": 221184,
          "time": 216,
          "velocity": 0.3937007874015748
        },
        {
          "duration": 0.1875,
          "durationTicks": 192,
          "midi": 55,
          "name": "G3",
          "ticks": 221376,
          "time": 216.1875,
          "velocity": 0.3937007874015748
        },
        {
          "duration": 0.1875,
          "durationTicks": 192,
          "midi": 67,
          "name": "G4",
          "ticks": 221376,
          "time": 216.1875,
          "velocity": 0.3937007874015748
        },
        {
          "duration": 0.1875,
          "durationTicks": 192,
          "midi": 64,
          "name": "E4",
          "ticks": 221568,
          "time": 216.375,
          "velocity": 0.3937007874015748
        },
        {
          "duration": 0.1875,
          "durationTicks": 192,
          "midi": 52,
          "name": "E3",
          "ticks": 221568,
          "time": 216.375,
          "velocity": 0.3937007874015748
        },
        {
          "duration": 0.1875,
          "durationTicks": 192,
          "midi": 70,
          "name": "A#4",
          "ticks": 221760,
          "time": 216.5625,
          "velocity": 0.3937007874015748
        },
        {
          "duration": 0.1875,
          "durationTicks": 192,
          "midi": 58,
          "name": "A#3",
          "ticks": 221760,
          "time": 216.5625,
          "velocity": 0.3937007874015748
        },
        {
          "duration": 0.1875,
          "durationTicks": 192,
          "midi": 55,
          "name": "G3",
          "ticks": 221952,
          "time": 216.75,
          "velocity": 0.3937007874015748
        },
        {
          "duration": 0.1875,
          "durationTicks": 192,
          "midi": 67,
          "name": "G4",
          "ticks": 221952,
          "time": 216.75,
          "velocity": 0.3937007874015748
        },
        {
          "duration": 0.1875,
          "durationTicks": 192,
          "midi": 52,
          "name": "E3",
          "ticks": 222144,
          "time": 216.9375,
          "velocity": 0.3937007874015748
        },
        {
          "duration": 0.1875,
          "durationTicks": 192,
          "midi": 64,
          "name": "E4",
          "ticks": 222144,
          "time": 216.9375,
          "velocity": 0.3937007874015748
        },
        {
          "duration": 0.1875,
          "durationTicks": 192,
          "midi": 70,
          "name": "A#4",
          "ticks": 222336,
          "time": 217.125,
          "velocity": 0.3937007874015748
        },
        {
          "duration": 0.1875,
          "durationTicks": 192,
          "midi": 58,
          "name": "A#3",
          "ticks": 222336,
          "time": 217.125,
          "velocity": 0.3937007874015748
        },
        {
          "duration": 0.1875,
          "durationTicks": 192,
          "midi": 67,
          "name": "G4",
          "ticks": 222528,
          "time": 217.3125,
          "velocity": 0.3937007874015748
        },
        {
          "duration": 0.1875,
          "durationTicks": 192,
          "midi": 55,
          "name": "G3",
          "ticks": 222528,
          "time": 217.3125,
          "velocity": 0.3937007874015748
        },
        {
          "duration": 0.1875,
          "durationTicks": 192,
          "midi": 71,
          "name": "B4",
          "ticks": 222720,
          "time": 217.5,
          "velocity": 0.3937007874015748
        },
        {
          "duration": 0.1875,
          "durationTicks": 192,
          "midi": 59,
          "name": "B3",
          "ticks": 222720,
          "time": 217.5,
          "velocity": 0.3937007874015748
        },
        {
          "duration": 0.1875,
          "durationTicks": 192,
          "midi": 67,
          "name": "G4",
          "ticks": 222912,
          "time": 217.6875,
          "velocity": 0.3937007874015748
        },
        {
          "duration": 0.1875,
          "durationTicks": 192,
          "midi": 55,
          "name": "G3",
          "ticks": 222912,
          "time": 217.6875,
          "velocity": 0.3937007874015748
        },
        {
          "duration": 0.1875,
          "durationTicks": 192,
          "midi": 52,
          "name": "E3",
          "ticks": 223104,
          "time": 217.875,
          "velocity": 0.3937007874015748
        },
        {
          "duration": 0.1875,
          "durationTicks": 192,
          "midi": 64,
          "name": "E4",
          "ticks": 223104,
          "time": 217.875,
          "velocity": 0.3937007874015748
        },
        {
          "duration": 0.1875,
          "durationTicks": 192,
          "midi": 70,
          "name": "A#4",
          "ticks": 223296,
          "time": 218.0625,
          "velocity": 0.3937007874015748
        },
        {
          "duration": 0.1875,
          "durationTicks": 192,
          "midi": 58,
          "name": "A#3",
          "ticks": 223296,
          "time": 218.0625,
          "velocity": 0.3937007874015748
        },
        {
          "duration": 0.1875,
          "durationTicks": 192,
          "midi": 55,
          "name": "G3",
          "ticks": 223488,
          "time": 218.25,
          "velocity": 0.3937007874015748
        },
        {
          "duration": 0.1875,
          "durationTicks": 192,
          "midi": 67,
          "name": "G4",
          "ticks": 223488,
          "time": 218.25,
          "velocity": 0.3937007874015748
        },
        {
          "duration": 0.1875,
          "durationTicks": 192,
          "midi": 64,
          "name": "E4",
          "ticks": 223680,
          "time": 218.4375,
          "velocity": 0.3937007874015748
        },
        {
          "duration": 0.1875,
          "durationTicks": 192,
          "midi": 52,
          "name": "E3",
          "ticks": 223680,
          "time": 218.4375,
          "velocity": 0.3937007874015748
        },
        {
          "duration": 0.1875,
          "durationTicks": 192,
          "midi": 60,
          "name": "C4",
          "ticks": 223872,
          "time": 218.625,
          "velocity": 0.3937007874015748
        },
        {
          "duration": 0.1875,
          "durationTicks": 192,
          "midi": 70,
          "name": "A#4",
          "ticks": 224064,
          "time": 218.8125,
          "velocity": 0.3937007874015748
        },
        {
          "duration": 0.1875,
          "durationTicks": 192,
          "midi": 58,
          "name": "A#3",
          "ticks": 224064,
          "time": 218.8125,
          "velocity": 0.3937007874015748
        },
        {
          "duration": 0.1875,
          "durationTicks": 192,
          "midi": 59,
          "name": "B3",
          "ticks": 224256,
          "time": 219,
          "velocity": 0.3937007874015748
        },
        {
          "duration": 0.1875,
          "durationTicks": 192,
          "midi": 71,
          "name": "B4",
          "ticks": 224256,
          "time": 219,
          "velocity": 0.3937007874015748
        },
        {
          "duration": 0.1875,
          "durationTicks": 192,
          "midi": 67,
          "name": "G4",
          "ticks": 224448,
          "time": 219.1875,
          "velocity": 0.3937007874015748
        },
        {
          "duration": 0.1875,
          "durationTicks": 192,
          "midi": 55,
          "name": "G3",
          "ticks": 224448,
          "time": 219.1875,
          "velocity": 0.3937007874015748
        },
        {
          "duration": 0.1875,
          "durationTicks": 192,
          "midi": 64,
          "name": "E4",
          "ticks": 224640,
          "time": 219.375,
          "velocity": 0.3937007874015748
        },
        {
          "duration": 0.1875,
          "durationTicks": 192,
          "midi": 52,
          "name": "E3",
          "ticks": 224640,
          "time": 219.375,
          "velocity": 0.3937007874015748
        },
        {
          "duration": 0.1875,
          "durationTicks": 192,
          "midi": 70,
          "name": "A#4",
          "ticks": 224832,
          "time": 219.5625,
          "velocity": 0.3937007874015748
        },
        {
          "duration": 0.1875,
          "durationTicks": 192,
          "midi": 58,
          "name": "A#3",
          "ticks": 224832,
          "time": 219.5625,
          "velocity": 0.3937007874015748
        },
        {
          "duration": 0.1875,
          "durationTicks": 192,
          "midi": 67,
          "name": "G4",
          "ticks": 225024,
          "time": 219.75,
          "velocity": 0.3937007874015748
        },
        {
          "duration": 0.1875,
          "durationTicks": 192,
          "midi": 55,
          "name": "G3",
          "ticks": 225024,
          "time": 219.75,
          "velocity": 0.3937007874015748
        },
        {
          "duration": 0.1875,
          "durationTicks": 192,
          "midi": 52,
          "name": "E3",
          "ticks": 225216,
          "time": 219.9375,
          "velocity": 0.3937007874015748
        },
        {
          "duration": 0.1875,
          "durationTicks": 192,
          "midi": 64,
          "name": "E4",
          "ticks": 225216,
          "time": 219.9375,
          "velocity": 0.3937007874015748
        },
        {
          "duration": 0.1875,
          "durationTicks": 192,
          "midi": 58,
          "name": "A#3",
          "ticks": 225408,
          "time": 220.125,
          "velocity": 0.3937007874015748
        },
        {
          "duration": 0.1875,
          "durationTicks": 192,
          "midi": 70,
          "name": "A#4",
          "ticks": 225408,
          "time": 220.125,
          "velocity": 0.3937007874015748
        },
        {
          "duration": 0.1875,
          "durationTicks": 192,
          "midi": 67,
          "name": "G4",
          "ticks": 225600,
          "time": 220.3125,
          "velocity": 0.3937007874015748
        },
        {
          "duration": 0.1875,
          "durationTicks": 192,
          "midi": 55,
          "name": "G3",
          "ticks": 225600,
          "time": 220.3125,
          "velocity": 0.3937007874015748
        },
        {
          "duration": 0.1875,
          "durationTicks": 192,
          "midi": 71,
          "name": "B4",
          "ticks": 225792,
          "time": 220.5,
          "velocity": 0.3937007874015748
        },
        {
          "duration": 0.1875,
          "durationTicks": 192,
          "midi": 59,
          "name": "B3",
          "ticks": 225792,
          "time": 220.5,
          "velocity": 0.3937007874015748
        },
        {
          "duration": 0.1875,
          "durationTicks": 192,
          "midi": 67,
          "name": "G4",
          "ticks": 225984,
          "time": 220.6875,
          "velocity": 0.3937007874015748
        },
        {
          "duration": 0.1875,
          "durationTicks": 192,
          "midi": 55,
          "name": "G3",
          "ticks": 225984,
          "time": 220.6875,
          "velocity": 0.3937007874015748
        },
        {
          "duration": 0.1875,
          "durationTicks": 192,
          "midi": 64,
          "name": "E4",
          "ticks": 226176,
          "time": 220.875,
          "velocity": 0.3937007874015748
        },
        {
          "duration": 0.1875,
          "durationTicks": 192,
          "midi": 52,
          "name": "E3",
          "ticks": 226176,
          "time": 220.875,
          "velocity": 0.3937007874015748
        },
        {
          "duration": 0.9375,
          "durationTicks": 960,
          "midi": 48,
          "name": "C3",
          "ticks": 226368,
          "time": 221.0625,
          "velocity": 0.3937007874015748
        },
        {
          "duration": 0.9375,
          "durationTicks": 960,
          "midi": 60,
          "name": "C4",
          "ticks": 226368,
          "time": 221.0625,
          "velocity": 0.3937007874015748
        },
        {
          "duration": 0.1875,
          "durationTicks": 192,
          "midi": 59,
          "name": "B3",
          "ticks": 227328,
          "time": 222,
          "velocity": 0.3937007874015748
        },
        {
          "duration": 0.1875,
          "durationTicks": 192,
          "midi": 71,
          "name": "B4",
          "ticks": 227328,
          "time": 222,
          "velocity": 0.3937007874015748
        },
        {
          "duration": 0.1875,
          "durationTicks": 192,
          "midi": 55,
          "name": "G3",
          "ticks": 227520,
          "time": 222.1875,
          "velocity": 0.3937007874015748
        },
        {
          "duration": 0.1875,
          "durationTicks": 192,
          "midi": 67,
          "name": "G4",
          "ticks": 227520,
          "time": 222.1875,
          "velocity": 0.3937007874015748
        },
        {
          "duration": 0.1875,
          "durationTicks": 192,
          "midi": 52,
          "name": "E3",
          "ticks": 227712,
          "time": 222.375,
          "velocity": 0.3937007874015748
        },
        {
          "duration": 0.1875,
          "durationTicks": 192,
          "midi": 64,
          "name": "E4",
          "ticks": 227712,
          "time": 222.375,
          "velocity": 0.3937007874015748
        },
        {
          "duration": 0.1875,
          "durationTicks": 192,
          "midi": 58,
          "name": "A#3",
          "ticks": 227904,
          "time": 222.5625,
          "velocity": 0.3937007874015748
        },
        {
          "duration": 0.1875,
          "durationTicks": 192,
          "midi": 70,
          "name": "A#4",
          "ticks": 227904,
          "time": 222.5625,
          "velocity": 0.3937007874015748
        },
        {
          "duration": 0.1875,
          "durationTicks": 192,
          "midi": 55,
          "name": "G3",
          "ticks": 228096,
          "time": 222.75,
          "velocity": 0.3937007874015748
        },
        {
          "duration": 0.1875,
          "durationTicks": 192,
          "midi": 67,
          "name": "G4",
          "ticks": 228096,
          "time": 222.75,
          "velocity": 0.3937007874015748
        },
        {
          "duration": 0.1875,
          "durationTicks": 192,
          "midi": 52,
          "name": "E3",
          "ticks": 228288,
          "time": 222.9375,
          "velocity": 0.3937007874015748
        },
        {
          "duration": 0.1875,
          "durationTicks": 192,
          "midi": 64,
          "name": "E4",
          "ticks": 228288,
          "time": 222.9375,
          "velocity": 0.3937007874015748
        },
        {
          "duration": 0.1875,
          "durationTicks": 192,
          "midi": 58,
          "name": "A#3",
          "ticks": 228480,
          "time": 223.125,
          "velocity": 0.3937007874015748
        },
        {
          "duration": 0.1875,
          "durationTicks": 192,
          "midi": 70,
          "name": "A#4",
          "ticks": 228480,
          "time": 223.125,
          "velocity": 0.3937007874015748
        },
        {
          "duration": 0.1875,
          "durationTicks": 192,
          "midi": 55,
          "name": "G3",
          "ticks": 228672,
          "time": 223.3125,
          "velocity": 0.3937007874015748
        },
        {
          "duration": 0.1875,
          "durationTicks": 192,
          "midi": 67,
          "name": "G4",
          "ticks": 228672,
          "time": 223.3125,
          "velocity": 0.3937007874015748
        },
        {
          "duration": 0.1875,
          "durationTicks": 192,
          "midi": 71,
          "name": "B4",
          "ticks": 228864,
          "time": 223.5,
          "velocity": 0.3937007874015748
        },
        {
          "duration": 0.1875,
          "durationTicks": 192,
          "midi": 59,
          "name": "B3",
          "ticks": 228864,
          "time": 223.5,
          "velocity": 0.3937007874015748
        },
        {
          "duration": 0.1875,
          "durationTicks": 192,
          "midi": 55,
          "name": "G3",
          "ticks": 229056,
          "time": 223.6875,
          "velocity": 0.3937007874015748
        },
        {
          "duration": 0.1875,
          "durationTicks": 192,
          "midi": 67,
          "name": "G4",
          "ticks": 229056,
          "time": 223.6875,
          "velocity": 0.3937007874015748
        },
        {
          "duration": 0.1875,
          "durationTicks": 192,
          "midi": 64,
          "name": "E4",
          "ticks": 229248,
          "time": 223.875,
          "velocity": 0.3937007874015748
        },
        {
          "duration": 0.1875,
          "durationTicks": 192,
          "midi": 52,
          "name": "E3",
          "ticks": 229248,
          "time": 223.875,
          "velocity": 0.3937007874015748
        },
        {
          "duration": 0.1875,
          "durationTicks": 192,
          "midi": 70,
          "name": "A#4",
          "ticks": 229440,
          "time": 224.0625,
          "velocity": 0.3937007874015748
        },
        {
          "duration": 0.1875,
          "durationTicks": 192,
          "midi": 58,
          "name": "A#3",
          "ticks": 229440,
          "time": 224.0625,
          "velocity": 0.3937007874015748
        },
        {
          "duration": 0.1875,
          "durationTicks": 192,
          "midi": 55,
          "name": "G3",
          "ticks": 229632,
          "time": 224.25,
          "velocity": 0.3937007874015748
        },
        {
          "duration": 0.1875,
          "durationTicks": 192,
          "midi": 67,
          "name": "G4",
          "ticks": 229632,
          "time": 224.25,
          "velocity": 0.3937007874015748
        },
        {
          "duration": 0.1875,
          "durationTicks": 192,
          "midi": 52,
          "name": "E3",
          "ticks": 229824,
          "time": 224.4375,
          "velocity": 0.3937007874015748
        },
        {
          "duration": 0.1875,
          "durationTicks": 192,
          "midi": 64,
          "name": "E4",
          "ticks": 229824,
          "time": 224.4375,
          "velocity": 0.3937007874015748
        },
        {
          "duration": 0.1875,
          "durationTicks": 192,
          "midi": 60,
          "name": "C4",
          "ticks": 230016,
          "time": 224.625,
          "velocity": 0.3937007874015748
        },
        {
          "duration": 0.1875,
          "durationTicks": 192,
          "midi": 58,
          "name": "A#3",
          "ticks": 230208,
          "time": 224.8125,
          "velocity": 0.3937007874015748
        },
        {
          "duration": 0.1875,
          "durationTicks": 192,
          "midi": 70,
          "name": "A#4",
          "ticks": 230208,
          "time": 224.8125,
          "velocity": 0.3937007874015748
        },
        {
          "duration": 0.1875,
          "durationTicks": 192,
          "midi": 71,
          "name": "B4",
          "ticks": 230400,
          "time": 225,
          "velocity": 0.3937007874015748
        },
        {
          "duration": 0.1875,
          "durationTicks": 192,
          "midi": 59,
          "name": "B3",
          "ticks": 230400,
          "time": 225,
          "velocity": 0.3937007874015748
        },
        {
          "duration": 0.1875,
          "durationTicks": 192,
          "midi": 67,
          "name": "G4",
          "ticks": 230592,
          "time": 225.1875,
          "velocity": 0.3937007874015748
        },
        {
          "duration": 0.1875,
          "durationTicks": 192,
          "midi": 55,
          "name": "G3",
          "ticks": 230592,
          "time": 225.1875,
          "velocity": 0.3937007874015748
        },
        {
          "duration": 0.1875,
          "durationTicks": 192,
          "midi": 64,
          "name": "E4",
          "ticks": 230784,
          "time": 225.375,
          "velocity": 0.3937007874015748
        },
        {
          "duration": 0.1875,
          "durationTicks": 192,
          "midi": 52,
          "name": "E3",
          "ticks": 230784,
          "time": 225.375,
          "velocity": 0.3937007874015748
        },
        {
          "duration": 0.1875,
          "durationTicks": 192,
          "midi": 70,
          "name": "A#4",
          "ticks": 230976,
          "time": 225.5625,
          "velocity": 0.3937007874015748
        },
        {
          "duration": 0.1875,
          "durationTicks": 192,
          "midi": 58,
          "name": "A#3",
          "ticks": 230976,
          "time": 225.5625,
          "velocity": 0.3937007874015748
        },
        {
          "duration": 0.1875,
          "durationTicks": 192,
          "midi": 67,
          "name": "G4",
          "ticks": 231168,
          "time": 225.75,
          "velocity": 0.3937007874015748
        },
        {
          "duration": 0.1875,
          "durationTicks": 192,
          "midi": 55,
          "name": "G3",
          "ticks": 231168,
          "time": 225.75,
          "velocity": 0.3937007874015748
        },
        {
          "duration": 0.1875,
          "durationTicks": 192,
          "midi": 64,
          "name": "E4",
          "ticks": 231360,
          "time": 225.9375,
          "velocity": 0.3937007874015748
        },
        {
          "duration": 0.1875,
          "durationTicks": 192,
          "midi": 52,
          "name": "E3",
          "ticks": 231360,
          "time": 225.9375,
          "velocity": 0.3937007874015748
        },
        {
          "duration": 0.1875,
          "durationTicks": 192,
          "midi": 58,
          "name": "A#3",
          "ticks": 231552,
          "time": 226.125,
          "velocity": 0.3937007874015748
        },
        {
          "duration": 0.1875,
          "durationTicks": 192,
          "midi": 70,
          "name": "A#4",
          "ticks": 231552,
          "time": 226.125,
          "velocity": 0.3937007874015748
        },
        {
          "duration": 0.1875,
          "durationTicks": 192,
          "midi": 55,
          "name": "G3",
          "ticks": 231744,
          "time": 226.3125,
          "velocity": 0.3937007874015748
        },
        {
          "duration": 0.1875,
          "durationTicks": 192,
          "midi": 67,
          "name": "G4",
          "ticks": 231744,
          "time": 226.3125,
          "velocity": 0.3937007874015748
        },
        {
          "duration": 0.1875,
          "durationTicks": 192,
          "midi": 71,
          "name": "B4",
          "ticks": 231936,
          "time": 226.5,
          "velocity": 0.3937007874015748
        },
        {
          "duration": 0.1875,
          "durationTicks": 192,
          "midi": 59,
          "name": "B3",
          "ticks": 231936,
          "time": 226.5,
          "velocity": 0.3937007874015748
        },
        {
          "duration": 0.1875,
          "durationTicks": 192,
          "midi": 67,
          "name": "G4",
          "ticks": 232128,
          "time": 226.6875,
          "velocity": 0.3937007874015748
        },
        {
          "duration": 0.1875,
          "durationTicks": 192,
          "midi": 55,
          "name": "G3",
          "ticks": 232128,
          "time": 226.6875,
          "velocity": 0.3937007874015748
        },
        {
          "duration": 0.1875,
          "durationTicks": 192,
          "midi": 64,
          "name": "E4",
          "ticks": 232320,
          "time": 226.875,
          "velocity": 0.3937007874015748
        },
        {
          "duration": 0.1875,
          "durationTicks": 192,
          "midi": 52,
          "name": "E3",
          "ticks": 232320,
          "time": 226.875,
          "velocity": 0.3937007874015748
        },
        {
          "duration": 0.9375,
          "durationTicks": 960,
          "midi": 60,
          "name": "C4",
          "ticks": 232512,
          "time": 227.0625,
          "velocity": 0.3937007874015748
        },
        {
          "duration": 0.9375,
          "durationTicks": 960,
          "midi": 48,
          "name": "C3",
          "ticks": 232512,
          "time": 227.0625,
          "velocity": 0.3937007874015748
        },
        {
          "duration": 0.1875,
          "durationTicks": 192,
          "midi": 71,
          "name": "B4",
          "ticks": 233472,
          "time": 228,
          "velocity": 0.3937007874015748
        },
        {
          "duration": 0.1875,
          "durationTicks": 192,
          "midi": 59,
          "name": "B3",
          "ticks": 233472,
          "time": 228,
          "velocity": 0.3937007874015748
        },
        {
          "duration": 0.1875,
          "durationTicks": 192,
          "midi": 67,
          "name": "G4",
          "ticks": 233664,
          "time": 228.1875,
          "velocity": 0.3937007874015748
        },
        {
          "duration": 0.1875,
          "durationTicks": 192,
          "midi": 55,
          "name": "G3",
          "ticks": 233664,
          "time": 228.1875,
          "velocity": 0.3937007874015748
        },
        {
          "duration": 0.1875,
          "durationTicks": 192,
          "midi": 52,
          "name": "E3",
          "ticks": 233856,
          "time": 228.375,
          "velocity": 0.3937007874015748
        },
        {
          "duration": 0.1875,
          "durationTicks": 192,
          "midi": 64,
          "name": "E4",
          "ticks": 233856,
          "time": 228.375,
          "velocity": 0.3937007874015748
        },
        {
          "duration": 0.1875,
          "durationTicks": 192,
          "midi": 70,
          "name": "A#4",
          "ticks": 234048,
          "time": 228.5625,
          "velocity": 0.3937007874015748
        },
        {
          "duration": 0.1875,
          "durationTicks": 192,
          "midi": 58,
          "name": "A#3",
          "ticks": 234048,
          "time": 228.5625,
          "velocity": 0.3937007874015748
        },
        {
          "duration": 0.1875,
          "durationTicks": 192,
          "midi": 67,
          "name": "G4",
          "ticks": 234240,
          "time": 228.75,
          "velocity": 0.3937007874015748
        },
        {
          "duration": 0.1875,
          "durationTicks": 192,
          "midi": 55,
          "name": "G3",
          "ticks": 234240,
          "time": 228.75,
          "velocity": 0.3937007874015748
        },
        {
          "duration": 0.1875,
          "durationTicks": 192,
          "midi": 52,
          "name": "E3",
          "ticks": 234432,
          "time": 228.9375,
          "velocity": 0.3937007874015748
        },
        {
          "duration": 0.1875,
          "durationTicks": 192,
          "midi": 64,
          "name": "E4",
          "ticks": 234432,
          "time": 228.9375,
          "velocity": 0.3937007874015748
        },
        {
          "duration": 0.1875,
          "durationTicks": 192,
          "midi": 58,
          "name": "A#3",
          "ticks": 234624,
          "time": 229.125,
          "velocity": 0.3937007874015748
        },
        {
          "duration": 0.1875,
          "durationTicks": 192,
          "midi": 70,
          "name": "A#4",
          "ticks": 234624,
          "time": 229.125,
          "velocity": 0.3937007874015748
        },
        {
          "duration": 0.1875,
          "durationTicks": 192,
          "midi": 55,
          "name": "G3",
          "ticks": 234816,
          "time": 229.3125,
          "velocity": 0.3937007874015748
        },
        {
          "duration": 0.1875,
          "durationTicks": 192,
          "midi": 67,
          "name": "G4",
          "ticks": 234816,
          "time": 229.3125,
          "velocity": 0.3937007874015748
        },
        {
          "duration": 0.1875,
          "durationTicks": 192,
          "midi": 71,
          "name": "B4",
          "ticks": 235008,
          "time": 229.5,
          "velocity": 0.3937007874015748
        },
        {
          "duration": 0.1875,
          "durationTicks": 192,
          "midi": 59,
          "name": "B3",
          "ticks": 235008,
          "time": 229.5,
          "velocity": 0.3937007874015748
        },
        {
          "duration": 0.1875,
          "durationTicks": 192,
          "midi": 55,
          "name": "G3",
          "ticks": 235200,
          "time": 229.6875,
          "velocity": 0.3937007874015748
        },
        {
          "duration": 0.1875,
          "durationTicks": 192,
          "midi": 67,
          "name": "G4",
          "ticks": 235200,
          "time": 229.6875,
          "velocity": 0.3937007874015748
        },
        {
          "duration": 0.1875,
          "durationTicks": 192,
          "midi": 64,
          "name": "E4",
          "ticks": 235392,
          "time": 229.875,
          "velocity": 0.3937007874015748
        },
        {
          "duration": 0.1875,
          "durationTicks": 192,
          "midi": 52,
          "name": "E3",
          "ticks": 235392,
          "time": 229.875,
          "velocity": 0.3937007874015748
        },
        {
          "duration": 0.1875,
          "durationTicks": 192,
          "midi": 70,
          "name": "A#4",
          "ticks": 235584,
          "time": 230.0625,
          "velocity": 0.3937007874015748
        },
        {
          "duration": 0.1875,
          "durationTicks": 192,
          "midi": 58,
          "name": "A#3",
          "ticks": 235584,
          "time": 230.0625,
          "velocity": 0.3937007874015748
        },
        {
          "duration": 0.1875,
          "durationTicks": 192,
          "midi": 55,
          "name": "G3",
          "ticks": 235776,
          "time": 230.25,
          "velocity": 0.3937007874015748
        },
        {
          "duration": 0.1875,
          "durationTicks": 192,
          "midi": 67,
          "name": "G4",
          "ticks": 235776,
          "time": 230.25,
          "velocity": 0.3937007874015748
        },
        {
          "duration": 0.1875,
          "durationTicks": 192,
          "midi": 52,
          "name": "E3",
          "ticks": 235968,
          "time": 230.4375,
          "velocity": 0.3937007874015748
        },
        {
          "duration": 0.1875,
          "durationTicks": 192,
          "midi": 64,
          "name": "E4",
          "ticks": 235968,
          "time": 230.4375,
          "velocity": 0.3937007874015748
        },
        {
          "duration": 0.1875,
          "durationTicks": 192,
          "midi": 60,
          "name": "C4",
          "ticks": 236160,
          "time": 230.625,
          "velocity": 0.3937007874015748
        },
        {
          "duration": 0.1875,
          "durationTicks": 192,
          "midi": 58,
          "name": "A#3",
          "ticks": 236352,
          "time": 230.8125,
          "velocity": 0.3937007874015748
        },
        {
          "duration": 0.1875,
          "durationTicks": 192,
          "midi": 70,
          "name": "A#4",
          "ticks": 236352,
          "time": 230.8125,
          "velocity": 0.3937007874015748
        },
        {
          "duration": 0.1875,
          "durationTicks": 192,
          "midi": 71,
          "name": "B4",
          "ticks": 236544,
          "time": 231,
          "velocity": 0.3937007874015748
        },
        {
          "duration": 0.1875,
          "durationTicks": 192,
          "midi": 59,
          "name": "B3",
          "ticks": 236544,
          "time": 231,
          "velocity": 0.3937007874015748
        },
        {
          "duration": 0.1875,
          "durationTicks": 192,
          "midi": 67,
          "name": "G4",
          "ticks": 236736,
          "time": 231.1875,
          "velocity": 0.3937007874015748
        },
        {
          "duration": 0.1875,
          "durationTicks": 192,
          "midi": 55,
          "name": "G3",
          "ticks": 236736,
          "time": 231.1875,
          "velocity": 0.3937007874015748
        },
        {
          "duration": 0.1875,
          "durationTicks": 192,
          "midi": 64,
          "name": "E4",
          "ticks": 236928,
          "time": 231.375,
          "velocity": 0.3937007874015748
        },
        {
          "duration": 0.1875,
          "durationTicks": 192,
          "midi": 52,
          "name": "E3",
          "ticks": 236928,
          "time": 231.375,
          "velocity": 0.3937007874015748
        },
        {
          "duration": 0.1875,
          "durationTicks": 192,
          "midi": 58,
          "name": "A#3",
          "ticks": 237120,
          "time": 231.5625,
          "velocity": 0.3937007874015748
        },
        {
          "duration": 0.1875,
          "durationTicks": 192,
          "midi": 70,
          "name": "A#4",
          "ticks": 237120,
          "time": 231.5625,
          "velocity": 0.3937007874015748
        },
        {
          "duration": 0.1875,
          "durationTicks": 192,
          "midi": 55,
          "name": "G3",
          "ticks": 237312,
          "time": 231.75,
          "velocity": 0.3937007874015748
        },
        {
          "duration": 0.1875,
          "durationTicks": 192,
          "midi": 67,
          "name": "G4",
          "ticks": 237312,
          "time": 231.75,
          "velocity": 0.3937007874015748
        },
        {
          "duration": 0.1875,
          "durationTicks": 192,
          "midi": 64,
          "name": "E4",
          "ticks": 237504,
          "time": 231.9375,
          "velocity": 0.3937007874015748
        },
        {
          "duration": 0.1875,
          "durationTicks": 192,
          "midi": 52,
          "name": "E3",
          "ticks": 237504,
          "time": 231.9375,
          "velocity": 0.3937007874015748
        },
        {
          "duration": 0.1875,
          "durationTicks": 192,
          "midi": 58,
          "name": "A#3",
          "ticks": 237696,
          "time": 232.125,
          "velocity": 0.3937007874015748
        },
        {
          "duration": 0.1875,
          "durationTicks": 192,
          "midi": 70,
          "name": "A#4",
          "ticks": 237696,
          "time": 232.125,
          "velocity": 0.3937007874015748
        },
        {
          "duration": 0.1875,
          "durationTicks": 192,
          "midi": 67,
          "name": "G4",
          "ticks": 237888,
          "time": 232.3125,
          "velocity": 0.3937007874015748
        },
        {
          "duration": 0.1875,
          "durationTicks": 192,
          "midi": 55,
          "name": "G3",
          "ticks": 237888,
          "time": 232.3125,
          "velocity": 0.3937007874015748
        },
        {
          "duration": 0.1875,
          "durationTicks": 192,
          "midi": 59,
          "name": "B3",
          "ticks": 238080,
          "time": 232.5,
          "velocity": 0.3937007874015748
        },
        {
          "duration": 0.1875,
          "durationTicks": 192,
          "midi": 71,
          "name": "B4",
          "ticks": 238080,
          "time": 232.5,
          "velocity": 0.3937007874015748
        },
        {
          "duration": 0.1875,
          "durationTicks": 192,
          "midi": 55,
          "name": "G3",
          "ticks": 238272,
          "time": 232.6875,
          "velocity": 0.3937007874015748
        },
        {
          "duration": 0.1875,
          "durationTicks": 192,
          "midi": 67,
          "name": "G4",
          "ticks": 238272,
          "time": 232.6875,
          "velocity": 0.3937007874015748
        },
        {
          "duration": 0.1875,
          "durationTicks": 192,
          "midi": 52,
          "name": "E3",
          "ticks": 238464,
          "time": 232.875,
          "velocity": 0.3937007874015748
        },
        {
          "duration": 0.1875,
          "durationTicks": 192,
          "midi": 64,
          "name": "E4",
          "ticks": 238464,
          "time": 232.875,
          "velocity": 0.3937007874015748
        },
        {
          "duration": 0.9375,
          "durationTicks": 960,
          "midi": 64,
          "name": "E4",
          "ticks": 239616,
          "time": 234,
          "velocity": 0.3937007874015748
        }
      ],
      "endOfTrackTicks": 240576
    },
    {
      "channel": 2,
      "controlChanges": {},
      "pitchBends": [],
      "instrument": {
        "family": "bass",
        "number": 32,
        "name": "acoustic bass"
      },
      "name": "Bass",
      "notes": [
        {
          "duration": 0.09375,
          "durationTicks": 96,
          "midi": 28,
          "name": "E1",
          "ticks": 24576,
          "time": 24,
          "velocity": 0.3937007874015748
        },
        {
          "duration": 0.09375,
          "durationTicks": 96,
          "midi": 30,
          "name": "F#1",
          "ticks": 24768,
          "time": 24.1875,
          "velocity": 0.3937007874015748
        },
        {
          "duration": 0.09375,
          "durationTicks": 96,
          "midi": 31,
          "name": "G1",
          "ticks": 24960,
          "time": 24.375,
          "velocity": 0.3937007874015748
        },
        {
          "duration": 0.09375,
          "durationTicks": 96,
          "midi": 33,
          "name": "A1",
          "ticks": 25152,
          "time": 24.5625,
          "velocity": 0.3937007874015748
        },
        {
          "duration": 0.09375,
          "durationTicks": 96,
          "midi": 35,
          "name": "B1",
          "ticks": 25344,
          "time": 24.75,
          "velocity": 0.3937007874015748
        },
        {
          "duration": 0.09375,
          "durationTicks": 96,
          "midi": 33,
          "name": "A1",
          "ticks": 25536,
          "time": 24.9375,
          "velocity": 0.3937007874015748
        },
        {
          "duration": 0.09375,
          "durationTicks": 96,
          "midi": 31,
          "name": "G1",
          "ticks": 25728,
          "time": 25.125,
          "velocity": 0.3937007874015748
        },
        {
          "duration": 0.09375,
          "durationTicks": 96,
          "midi": 30,
          "name": "F#1",
          "ticks": 25920,
          "time": 25.3125,
          "velocity": 0.3937007874015748
        },
        {
          "duration": 0.09375,
          "durationTicks": 96,
          "midi": 28,
          "name": "E1",
          "ticks": 26112,
          "time": 25.5,
          "velocity": 0.3937007874015748
        },
        {
          "duration": 0.09375,
          "durationTicks": 96,
          "midi": 30,
          "name": "F#1",
          "ticks": 26304,
          "time": 25.6875,
          "velocity": 0.3937007874015748
        },
        {
          "duration": 0.09375,
          "durationTicks": 96,
          "midi": 31,
          "name": "G1",
          "ticks": 26496,
          "time": 25.875,
          "velocity": 0.3937007874015748
        },
        {
          "duration": 0.09375,
          "durationTicks": 96,
          "midi": 33,
          "name": "A1",
          "ticks": 26688,
          "time": 26.0625,
          "velocity": 0.3937007874015748
        },
        {
          "duration": 0.09375,
          "durationTicks": 96,
          "midi": 35,
          "name": "B1",
          "ticks": 26880,
          "time": 26.25,
          "velocity": 0.3937007874015748
        },
        {
          "duration": 0.09375,
          "durationTicks": 96,
          "midi": 33,
          "name": "A1",
          "ticks": 27072,
          "time": 26.4375,
          "velocity": 0.3937007874015748
        },
        {
          "duration": 0.09375,
          "durationTicks": 96,
          "midi": 31,
          "name": "G1",
          "ticks": 27264,
          "time": 26.625,
          "velocity": 0.3937007874015748
        },
        {
          "duration": 0.09375,
          "durationTicks": 96,
          "midi": 30,
          "name": "F#1",
          "ticks": 27456,
          "time": 26.8125,
          "velocity": 0.3937007874015748
        },
        {
          "duration": 0.09375,
          "durationTicks": 96,
          "midi": 28,
          "name": "E1",
          "ticks": 27648,
          "time": 27,
          "velocity": 0.3937007874015748
        },
        {
          "duration": 0.09375,
          "durationTicks": 96,
          "midi": 30,
          "name": "F#1",
          "ticks": 27840,
          "time": 27.1875,
          "velocity": 0.3937007874015748
        },
        {
          "duration": 0.09375,
          "durationTicks": 96,
          "midi": 31,
          "name": "G1",
          "ticks": 28032,
          "time": 27.375,
          "velocity": 0.3937007874015748
        },
        {
          "duration": 0.09375,
          "durationTicks": 96,
          "midi": 33,
          "name": "A1",
          "ticks": 28224,
          "time": 27.5625,
          "velocity": 0.3937007874015748
        },
        {
          "duration": 0.09375,
          "durationTicks": 96,
          "midi": 35,
          "name": "B1",
          "ticks": 28416,
          "time": 27.75,
          "velocity": 0.3937007874015748
        },
        {
          "duration": 0.09375,
          "durationTicks": 96,
          "midi": 33,
          "name": "A1",
          "ticks": 28608,
          "time": 27.9375,
          "velocity": 0.3937007874015748
        },
        {
          "duration": 0.09375,
          "durationTicks": 96,
          "midi": 31,
          "name": "G1",
          "ticks": 28800,
          "time": 28.125,
          "velocity": 0.3937007874015748
        },
        {
          "duration": 0.09375,
          "durationTicks": 96,
          "midi": 30,
          "name": "F#1",
          "ticks": 28992,
          "time": 28.3125,
          "velocity": 0.3937007874015748
        },
        {
          "duration": 0.09375,
          "durationTicks": 96,
          "midi": 28,
          "name": "E1",
          "ticks": 29184,
          "time": 28.5,
          "velocity": 0.3937007874015748
        },
        {
          "duration": 0.09375,
          "durationTicks": 96,
          "midi": 30,
          "name": "F#1",
          "ticks": 29376,
          "time": 28.6875,
          "velocity": 0.3937007874015748
        },
        {
          "duration": 0.09375,
          "durationTicks": 96,
          "midi": 31,
          "name": "G1",
          "ticks": 29568,
          "time": 28.875,
          "velocity": 0.3937007874015748
        },
        {
          "duration": 0.09375,
          "durationTicks": 96,
          "midi": 33,
          "name": "A1",
          "ticks": 29760,
          "time": 29.0625,
          "velocity": 0.3937007874015748
        },
        {
          "duration": 0.09375,
          "durationTicks": 96,
          "midi": 35,
          "name": "B1",
          "ticks": 29952,
          "time": 29.25,
          "velocity": 0.3937007874015748
        },
        {
          "duration": 0.09375,
          "durationTicks": 96,
          "midi": 33,
          "name": "A1",
          "ticks": 30144,
          "time": 29.4375,
          "velocity": 0.3937007874015748
        },
        {
          "duration": 0.09375,
          "durationTicks": 96,
          "midi": 31,
          "name": "G1",
          "ticks": 30336,
          "time": 29.625,
          "velocity": 0.3937007874015748
        },
        {
          "duration": 0.09375,
          "durationTicks": 96,
          "midi": 30,
          "name": "F#1",
          "ticks": 30528,
          "time": 29.8125,
          "velocity": 0.3937007874015748
        },
        {
          "duration": 0.09375,
          "durationTicks": 96,
          "midi": 28,
          "name": "E1",
          "ticks": 30720,
          "time": 30,
          "velocity": 0.3937007874015748
        },
        {
          "duration": 0.09375,
          "durationTicks": 96,
          "midi": 30,
          "name": "F#1",
          "ticks": 30912,
          "time": 30.1875,
          "velocity": 0.3937007874015748
        },
        {
          "duration": 0.09375,
          "durationTicks": 96,
          "midi": 31,
          "name": "G1",
          "ticks": 31104,
          "time": 30.375,
          "velocity": 0.3937007874015748
        },
        {
          "duration": 0.09375,
          "durationTicks": 96,
          "midi": 33,
          "name": "A1",
          "ticks": 31296,
          "time": 30.5625,
          "velocity": 0.3937007874015748
        },
        {
          "duration": 0.09375,
          "durationTicks": 96,
          "midi": 35,
          "name": "B1",
          "ticks": 31488,
          "time": 30.75,
          "velocity": 0.3937007874015748
        },
        {
          "duration": 0.09375,
          "durationTicks": 96,
          "midi": 33,
          "name": "A1",
          "ticks": 31680,
          "time": 30.9375,
          "velocity": 0.3937007874015748
        },
        {
          "duration": 0.09375,
          "durationTicks": 96,
          "midi": 31,
          "name": "G1",
          "ticks": 31872,
          "time": 31.125,
          "velocity": 0.3937007874015748
        },
        {
          "duration": 0.09375,
          "durationTicks": 96,
          "midi": 30,
          "name": "F#1",
          "ticks": 32064,
          "time": 31.3125,
          "velocity": 0.3937007874015748
        },
        {
          "duration": 0.09375,
          "durationTicks": 96,
          "midi": 28,
          "name": "E1",
          "ticks": 32256,
          "time": 31.5,
          "velocity": 0.3937007874015748
        },
        {
          "duration": 0.09375,
          "durationTicks": 96,
          "midi": 30,
          "name": "F#1",
          "ticks": 32448,
          "time": 31.6875,
          "velocity": 0.3937007874015748
        },
        {
          "duration": 0.09375,
          "durationTicks": 96,
          "midi": 31,
          "name": "G1",
          "ticks": 32640,
          "time": 31.875,
          "velocity": 0.3937007874015748
        },
        {
          "duration": 0.09375,
          "durationTicks": 96,
          "midi": 33,
          "name": "A1",
          "ticks": 32832,
          "time": 32.0625,
          "velocity": 0.3937007874015748
        },
        {
          "duration": 0.09375,
          "durationTicks": 96,
          "midi": 35,
          "name": "B1",
          "ticks": 33024,
          "time": 32.25,
          "velocity": 0.3937007874015748
        },
        {
          "duration": 0.09375,
          "durationTicks": 96,
          "midi": 33,
          "name": "A1",
          "ticks": 33216,
          "time": 32.4375,
          "velocity": 0.3937007874015748
        },
        {
          "duration": 0.09375,
          "durationTicks": 96,
          "midi": 31,
          "name": "G1",
          "ticks": 33408,
          "time": 32.625,
          "velocity": 0.3937007874015748
        },
        {
          "duration": 0.09375,
          "durationTicks": 96,
          "midi": 30,
          "name": "F#1",
          "ticks": 33600,
          "time": 32.8125,
          "velocity": 0.3937007874015748
        },
        {
          "duration": 0.09375,
          "durationTicks": 96,
          "midi": 28,
          "name": "E1",
          "ticks": 33792,
          "time": 33,
          "velocity": 0.3937007874015748
        },
        {
          "duration": 0.09375,
          "durationTicks": 96,
          "midi": 30,
          "name": "F#1",
          "ticks": 33984,
          "time": 33.1875,
          "velocity": 0.3937007874015748
        },
        {
          "duration": 0.09375,
          "durationTicks": 96,
          "midi": 31,
          "name": "G1",
          "ticks": 34176,
          "time": 33.375,
          "velocity": 0.3937007874015748
        },
        {
          "duration": 0.09375,
          "durationTicks": 96,
          "midi": 33,
          "name": "A1",
          "ticks": 34368,
          "time": 33.5625,
          "velocity": 0.3937007874015748
        },
        {
          "duration": 0.09375,
          "durationTicks": 96,
          "midi": 35,
          "name": "B1",
          "ticks": 34560,
          "time": 33.75,
          "velocity": 0.3937007874015748
        },
        {
          "duration": 0.09375,
          "durationTicks": 96,
          "midi": 33,
          "name": "A1",
          "ticks": 34752,
          "time": 33.9375,
          "velocity": 0.3937007874015748
        },
        {
          "duration": 0.09375,
          "durationTicks": 96,
          "midi": 31,
          "name": "G1",
          "ticks": 34944,
          "time": 34.125,
          "velocity": 0.3937007874015748
        },
        {
          "duration": 0.09375,
          "durationTicks": 96,
          "midi": 30,
          "name": "F#1",
          "ticks": 35136,
          "time": 34.3125,
          "velocity": 0.3937007874015748
        },
        {
          "duration": 0.09375,
          "durationTicks": 96,
          "midi": 28,
          "name": "E1",
          "ticks": 35328,
          "time": 34.5,
          "velocity": 0.3937007874015748
        },
        {
          "duration": 0.09375,
          "durationTicks": 96,
          "midi": 30,
          "name": "F#1",
          "ticks": 35520,
          "time": 34.6875,
          "velocity": 0.3937007874015748
        },
        {
          "duration": 0.09375,
          "durationTicks": 96,
          "midi": 31,
          "name": "G1",
          "ticks": 35712,
          "time": 34.875,
          "velocity": 0.3937007874015748
        },
        {
          "duration": 0.09375,
          "durationTicks": 96,
          "midi": 33,
          "name": "A1",
          "ticks": 35904,
          "time": 35.0625,
          "velocity": 0.3937007874015748
        },
        {
          "duration": 0.09375,
          "durationTicks": 96,
          "midi": 35,
          "name": "B1",
          "ticks": 36096,
          "time": 35.25,
          "velocity": 0.3937007874015748
        },
        {
          "duration": 0.09375,
          "durationTicks": 96,
          "midi": 33,
          "name": "A1",
          "ticks": 36288,
          "time": 35.4375,
          "velocity": 0.3937007874015748
        },
        {
          "duration": 0.09375,
          "durationTicks": 96,
          "midi": 31,
          "name": "G1",
          "ticks": 36480,
          "time": 35.625,
          "velocity": 0.3937007874015748
        },
        {
          "duration": 0.09375,
          "durationTicks": 96,
          "midi": 30,
          "name": "F#1",
          "ticks": 36672,
          "time": 35.8125,
          "velocity": 0.3937007874015748
        },
        {
          "duration": 0.09375,
          "durationTicks": 96,
          "midi": 28,
          "name": "E1",
          "ticks": 36864,
          "time": 36,
          "velocity": 0.3937007874015748
        },
        {
          "duration": 0.09375,
          "durationTicks": 96,
          "midi": 30,
          "name": "F#1",
          "ticks": 37056,
          "time": 36.1875,
          "velocity": 0.3937007874015748
        },
        {
          "duration": 0.09375,
          "durationTicks": 96,
          "midi": 31,
          "name": "G1",
          "ticks": 37248,
          "time": 36.375,
          "velocity": 0.3937007874015748
        },
        {
          "duration": 0.09375,
          "durationTicks": 96,
          "midi": 33,
          "name": "A1",
          "ticks": 37440,
          "time": 36.5625,
          "velocity": 0.3937007874015748
        },
        {
          "duration": 0.09375,
          "durationTicks": 96,
          "midi": 35,
          "name": "B1",
          "ticks": 37632,
          "time": 36.75,
          "velocity": 0.3937007874015748
        },
        {
          "duration": 0.09375,
          "durationTicks": 96,
          "midi": 33,
          "name": "A1",
          "ticks": 37824,
          "time": 36.9375,
          "velocity": 0.3937007874015748
        },
        {
          "duration": 0.09375,
          "durationTicks": 96,
          "midi": 31,
          "name": "G1",
          "ticks": 38016,
          "time": 37.125,
          "velocity": 0.3937007874015748
        },
        {
          "duration": 0.09375,
          "durationTicks": 96,
          "midi": 30,
          "name": "F#1",
          "ticks": 38208,
          "time": 37.3125,
          "velocity": 0.3937007874015748
        },
        {
          "duration": 0.09375,
          "durationTicks": 96,
          "midi": 28,
          "name": "E1",
          "ticks": 38400,
          "time": 37.5,
          "velocity": 0.3937007874015748
        },
        {
          "duration": 0.09375,
          "durationTicks": 96,
          "midi": 30,
          "name": "F#1",
          "ticks": 38592,
          "time": 37.6875,
          "velocity": 0.3937007874015748
        },
        {
          "duration": 0.09375,
          "durationTicks": 96,
          "midi": 31,
          "name": "G1",
          "ticks": 38784,
          "time": 37.875,
          "velocity": 0.3937007874015748
        },
        {
          "duration": 0.09375,
          "durationTicks": 96,
          "midi": 33,
          "name": "A1",
          "ticks": 38976,
          "time": 38.0625,
          "velocity": 0.3937007874015748
        },
        {
          "duration": 0.09375,
          "durationTicks": 96,
          "midi": 35,
          "name": "B1",
          "ticks": 39168,
          "time": 38.25,
          "velocity": 0.3937007874015748
        },
        {
          "duration": 0.09375,
          "durationTicks": 96,
          "midi": 33,
          "name": "A1",
          "ticks": 39360,
          "time": 38.4375,
          "velocity": 0.3937007874015748
        },
        {
          "duration": 0.09375,
          "durationTicks": 96,
          "midi": 31,
          "name": "G1",
          "ticks": 39552,
          "time": 38.625,
          "velocity": 0.3937007874015748
        },
        {
          "duration": 0.09375,
          "durationTicks": 96,
          "midi": 30,
          "name": "F#1",
          "ticks": 39744,
          "time": 38.8125,
          "velocity": 0.3937007874015748
        },
        {
          "duration": 0.09375,
          "durationTicks": 96,
          "midi": 28,
          "name": "E1",
          "ticks": 39936,
          "time": 39,
          "velocity": 0.3937007874015748
        },
        {
          "duration": 0.09375,
          "durationTicks": 96,
          "midi": 30,
          "name": "F#1",
          "ticks": 40128,
          "time": 39.1875,
          "velocity": 0.3937007874015748
        },
        {
          "duration": 0.09375,
          "durationTicks": 96,
          "midi": 31,
          "name": "G1",
          "ticks": 40320,
          "time": 39.375,
          "velocity": 0.3937007874015748
        },
        {
          "duration": 0.09375,
          "durationTicks": 96,
          "midi": 33,
          "name": "A1",
          "ticks": 40512,
          "time": 39.5625,
          "velocity": 0.3937007874015748
        },
        {
          "duration": 0.09375,
          "durationTicks": 96,
          "midi": 35,
          "name": "B1",
          "ticks": 40704,
          "time": 39.75,
          "velocity": 0.3937007874015748
        },
        {
          "duration": 0.09375,
          "durationTicks": 96,
          "midi": 33,
          "name": "A1",
          "ticks": 40896,
          "time": 39.9375,
          "velocity": 0.3937007874015748
        },
        {
          "duration": 0.09375,
          "durationTicks": 96,
          "midi": 31,
          "name": "G1",
          "ticks": 41088,
          "time": 40.125,
          "velocity": 0.3937007874015748
        },
        {
          "duration": 0.09375,
          "durationTicks": 96,
          "midi": 30,
          "name": "F#1",
          "ticks": 41280,
          "time": 40.3125,
          "velocity": 0.3937007874015748
        },
        {
          "duration": 0.09375,
          "durationTicks": 96,
          "midi": 28,
          "name": "E1",
          "ticks": 41472,
          "time": 40.5,
          "velocity": 0.3937007874015748
        },
        {
          "duration": 0.09375,
          "durationTicks": 96,
          "midi": 30,
          "name": "F#1",
          "ticks": 41664,
          "time": 40.6875,
          "velocity": 0.3937007874015748
        },
        {
          "duration": 0.09375,
          "durationTicks": 96,
          "midi": 31,
          "name": "G1",
          "ticks": 41856,
          "time": 40.875,
          "velocity": 0.3937007874015748
        },
        {
          "duration": 0.09375,
          "durationTicks": 96,
          "midi": 33,
          "name": "A1",
          "ticks": 42048,
          "time": 41.0625,
          "velocity": 0.3937007874015748
        },
        {
          "duration": 0.09375,
          "durationTicks": 96,
          "midi": 35,
          "name": "B1",
          "ticks": 42240,
          "time": 41.25,
          "velocity": 0.3937007874015748
        },
        {
          "duration": 0.09375,
          "durationTicks": 96,
          "midi": 33,
          "name": "A1",
          "ticks": 42432,
          "time": 41.4375,
          "velocity": 0.3937007874015748
        },
        {
          "duration": 0.09375,
          "durationTicks": 96,
          "midi": 31,
          "name": "G1",
          "ticks": 42624,
          "time": 41.625,
          "velocity": 0.3937007874015748
        },
        {
          "duration": 0.09375,
          "durationTicks": 96,
          "midi": 30,
          "name": "F#1",
          "ticks": 42816,
          "time": 41.8125,
          "velocity": 0.3937007874015748
        },
        {
          "duration": 0.09375,
          "durationTicks": 96,
          "midi": 28,
          "name": "E1",
          "ticks": 43008,
          "time": 42,
          "velocity": 0.3937007874015748
        },
        {
          "duration": 0.09375,
          "durationTicks": 96,
          "midi": 30,
          "name": "F#1",
          "ticks": 43200,
          "time": 42.1875,
          "velocity": 0.3937007874015748
        },
        {
          "duration": 0.09375,
          "durationTicks": 96,
          "midi": 31,
          "name": "G1",
          "ticks": 43392,
          "time": 42.375,
          "velocity": 0.3937007874015748
        },
        {
          "duration": 0.09375,
          "durationTicks": 96,
          "midi": 33,
          "name": "A1",
          "ticks": 43584,
          "time": 42.5625,
          "velocity": 0.3937007874015748
        },
        {
          "duration": 0.09375,
          "durationTicks": 96,
          "midi": 35,
          "name": "B1",
          "ticks": 43776,
          "time": 42.75,
          "velocity": 0.3937007874015748
        },
        {
          "duration": 0.09375,
          "durationTicks": 96,
          "midi": 33,
          "name": "A1",
          "ticks": 43968,
          "time": 42.9375,
          "velocity": 0.3937007874015748
        },
        {
          "duration": 0.09375,
          "durationTicks": 96,
          "midi": 31,
          "name": "G1",
          "ticks": 44160,
          "time": 43.125,
          "velocity": 0.3937007874015748
        },
        {
          "duration": 0.09375,
          "durationTicks": 96,
          "midi": 30,
          "name": "F#1",
          "ticks": 44352,
          "time": 43.3125,
          "velocity": 0.3937007874015748
        },
        {
          "duration": 0.09375,
          "durationTicks": 96,
          "midi": 28,
          "name": "E1",
          "ticks": 44544,
          "time": 43.5,
          "velocity": 0.3937007874015748
        },
        {
          "duration": 0.09375,
          "durationTicks": 96,
          "midi": 30,
          "name": "F#1",
          "ticks": 44736,
          "time": 43.6875,
          "velocity": 0.3937007874015748
        },
        {
          "duration": 0.09375,
          "durationTicks": 96,
          "midi": 31,
          "name": "G1",
          "ticks": 44928,
          "time": 43.875,
          "velocity": 0.3937007874015748
        },
        {
          "duration": 0.09375,
          "durationTicks": 96,
          "midi": 33,
          "name": "A1",
          "ticks": 45120,
          "time": 44.0625,
          "velocity": 0.3937007874015748
        },
        {
          "duration": 0.09375,
          "durationTicks": 96,
          "midi": 35,
          "name": "B1",
          "ticks": 45312,
          "time": 44.25,
          "velocity": 0.3937007874015748
        },
        {
          "duration": 0.09375,
          "durationTicks": 96,
          "midi": 33,
          "name": "A1",
          "ticks": 45504,
          "time": 44.4375,
          "velocity": 0.3937007874015748
        },
        {
          "duration": 0.09375,
          "durationTicks": 96,
          "midi": 31,
          "name": "G1",
          "ticks": 45696,
          "time": 44.625,
          "velocity": 0.3937007874015748
        },
        {
          "duration": 0.09375,
          "durationTicks": 96,
          "midi": 30,
          "name": "F#1",
          "ticks": 45888,
          "time": 44.8125,
          "velocity": 0.3937007874015748
        },
        {
          "duration": 0.09375,
          "durationTicks": 96,
          "midi": 28,
          "name": "E1",
          "ticks": 46080,
          "time": 45,
          "velocity": 0.3937007874015748
        },
        {
          "duration": 0.09375,
          "durationTicks": 96,
          "midi": 30,
          "name": "F#1",
          "ticks": 46272,
          "time": 45.1875,
          "velocity": 0.3937007874015748
        },
        {
          "duration": 0.09375,
          "durationTicks": 96,
          "midi": 31,
          "name": "G1",
          "ticks": 46464,
          "time": 45.375,
          "velocity": 0.3937007874015748
        },
        {
          "duration": 0.09375,
          "durationTicks": 96,
          "midi": 33,
          "name": "A1",
          "ticks": 46656,
          "time": 45.5625,
          "velocity": 0.3937007874015748
        },
        {
          "duration": 0.09375,
          "durationTicks": 96,
          "midi": 35,
          "name": "B1",
          "ticks": 46848,
          "time": 45.75,
          "velocity": 0.3937007874015748
        },
        {
          "duration": 0.09375,
          "durationTicks": 96,
          "midi": 33,
          "name": "A1",
          "ticks": 47040,
          "time": 45.9375,
          "velocity": 0.3937007874015748
        },
        {
          "duration": 0.09375,
          "durationTicks": 96,
          "midi": 31,
          "name": "G1",
          "ticks": 47232,
          "time": 46.125,
          "velocity": 0.3937007874015748
        },
        {
          "duration": 0.09375,
          "durationTicks": 96,
          "midi": 30,
          "name": "F#1",
          "ticks": 47424,
          "time": 46.3125,
          "velocity": 0.3937007874015748
        },
        {
          "duration": 0.09375,
          "durationTicks": 96,
          "midi": 28,
          "name": "E1",
          "ticks": 47616,
          "time": 46.5,
          "velocity": 0.3937007874015748
        },
        {
          "duration": 0.09375,
          "durationTicks": 96,
          "midi": 30,
          "name": "F#1",
          "ticks": 47808,
          "time": 46.6875,
          "velocity": 0.3937007874015748
        },
        {
          "duration": 0.09375,
          "durationTicks": 96,
          "midi": 31,
          "name": "G1",
          "ticks": 48000,
          "time": 46.875,
          "velocity": 0.3937007874015748
        },
        {
          "duration": 0.09375,
          "durationTicks": 96,
          "midi": 33,
          "name": "A1",
          "ticks": 48192,
          "time": 47.0625,
          "velocity": 0.3937007874015748
        },
        {
          "duration": 0.09375,
          "durationTicks": 96,
          "midi": 35,
          "name": "B1",
          "ticks": 48384,
          "time": 47.25,
          "velocity": 0.3937007874015748
        },
        {
          "duration": 0.09375,
          "durationTicks": 96,
          "midi": 33,
          "name": "A1",
          "ticks": 48576,
          "time": 47.4375,
          "velocity": 0.3937007874015748
        },
        {
          "duration": 0.09375,
          "durationTicks": 96,
          "midi": 31,
          "name": "G1",
          "ticks": 48768,
          "time": 47.625,
          "velocity": 0.3937007874015748
        },
        {
          "duration": 0.09375,
          "durationTicks": 96,
          "midi": 30,
          "name": "F#1",
          "ticks": 48960,
          "time": 47.8125,
          "velocity": 0.3937007874015748
        },
        {
          "duration": 0.09375,
          "durationTicks": 96,
          "midi": 28,
          "name": "E1",
          "ticks": 49152,
          "time": 48,
          "velocity": 0.3937007874015748
        },
        {
          "duration": 0.09375,
          "durationTicks": 96,
          "midi": 30,
          "name": "F#1",
          "ticks": 49344,
          "time": 48.1875,
          "velocity": 0.3937007874015748
        },
        {
          "duration": 0.09375,
          "durationTicks": 96,
          "midi": 31,
          "name": "G1",
          "ticks": 49536,
          "time": 48.375,
          "velocity": 0.3937007874015748
        },
        {
          "duration": 0.09375,
          "durationTicks": 96,
          "midi": 33,
          "name": "A1",
          "ticks": 49728,
          "time": 48.5625,
          "velocity": 0.3937007874015748
        },
        {
          "duration": 0.09375,
          "durationTicks": 96,
          "midi": 35,
          "name": "B1",
          "ticks": 49920,
          "time": 48.75,
          "velocity": 0.3937007874015748
        },
        {
          "duration": 0.09375,
          "durationTicks": 96,
          "midi": 33,
          "name": "A1",
          "ticks": 50112,
          "time": 48.9375,
          "velocity": 0.3937007874015748
        },
        {
          "duration": 0.09375,
          "durationTicks": 96,
          "midi": 31,
          "name": "G1",
          "ticks": 50304,
          "time": 49.125,
          "velocity": 0.3937007874015748
        },
        {
          "duration": 0.09375,
          "durationTicks": 96,
          "midi": 30,
          "name": "F#1",
          "ticks": 50496,
          "time": 49.3125,
          "velocity": 0.3937007874015748
        },
        {
          "duration": 0.09375,
          "durationTicks": 96,
          "midi": 28,
          "name": "E1",
          "ticks": 50688,
          "time": 49.5,
          "velocity": 0.3937007874015748
        },
        {
          "duration": 0.09375,
          "durationTicks": 96,
          "midi": 30,
          "name": "F#1",
          "ticks": 50880,
          "time": 49.6875,
          "velocity": 0.3937007874015748
        },
        {
          "duration": 0.09375,
          "durationTicks": 96,
          "midi": 31,
          "name": "G1",
          "ticks": 51072,
          "time": 49.875,
          "velocity": 0.3937007874015748
        },
        {
          "duration": 0.09375,
          "durationTicks": 96,
          "midi": 33,
          "name": "A1",
          "ticks": 51264,
          "time": 50.0625,
          "velocity": 0.3937007874015748
        },
        {
          "duration": 0.09375,
          "durationTicks": 96,
          "midi": 35,
          "name": "B1",
          "ticks": 51456,
          "time": 50.25,
          "velocity": 0.3937007874015748
        },
        {
          "duration": 0.09375,
          "durationTicks": 96,
          "midi": 33,
          "name": "A1",
          "ticks": 51648,
          "time": 50.4375,
          "velocity": 0.3937007874015748
        },
        {
          "duration": 0.09375,
          "durationTicks": 96,
          "midi": 31,
          "name": "G1",
          "ticks": 51840,
          "time": 50.625,
          "velocity": 0.3937007874015748
        },
        {
          "duration": 0.09375,
          "durationTicks": 96,
          "midi": 30,
          "name": "F#1",
          "ticks": 52032,
          "time": 50.8125,
          "velocity": 0.3937007874015748
        },
        {
          "duration": 0.09375,
          "durationTicks": 96,
          "midi": 28,
          "name": "E1",
          "ticks": 52224,
          "time": 51,
          "velocity": 0.3937007874015748
        },
        {
          "duration": 0.09375,
          "durationTicks": 96,
          "midi": 30,
          "name": "F#1",
          "ticks": 52416,
          "time": 51.1875,
          "velocity": 0.3937007874015748
        },
        {
          "duration": 0.09375,
          "durationTicks": 96,
          "midi": 31,
          "name": "G1",
          "ticks": 52608,
          "time": 51.375,
          "velocity": 0.3937007874015748
        },
        {
          "duration": 0.09375,
          "durationTicks": 96,
          "midi": 33,
          "name": "A1",
          "ticks": 52800,
          "time": 51.5625,
          "velocity": 0.3937007874015748
        },
        {
          "duration": 0.09375,
          "durationTicks": 96,
          "midi": 35,
          "name": "B1",
          "ticks": 52992,
          "time": 51.75,
          "velocity": 0.3937007874015748
        },
        {
          "duration": 0.09375,
          "durationTicks": 96,
          "midi": 33,
          "name": "A1",
          "ticks": 53184,
          "time": 51.9375,
          "velocity": 0.3937007874015748
        },
        {
          "duration": 0.09375,
          "durationTicks": 96,
          "midi": 31,
          "name": "G1",
          "ticks": 53376,
          "time": 52.125,
          "velocity": 0.3937007874015748
        },
        {
          "duration": 0.09375,
          "durationTicks": 96,
          "midi": 30,
          "name": "F#1",
          "ticks": 53568,
          "time": 52.3125,
          "velocity": 0.3937007874015748
        },
        {
          "duration": 0.09375,
          "durationTicks": 96,
          "midi": 40,
          "name": "E2",
          "ticks": 53760,
          "time": 52.5,
          "velocity": 0.3937007874015748
        },
        {
          "duration": 0.09375,
          "durationTicks": 96,
          "midi": 38,
          "name": "D2",
          "ticks": 54048,
          "time": 52.78125,
          "velocity": 0.3937007874015748
        },
        {
          "duration": 0.09375,
          "durationTicks": 96,
          "midi": 36,
          "name": "C2",
          "ticks": 54336,
          "time": 53.0625,
          "velocity": 0.3937007874015748
        },
        {
          "duration": 0.125,
          "durationTicks": 128,
          "midi": 35,
          "name": "B1",
          "ticks": 54528,
          "time": 53.25,
          "velocity": 0.3937007874015748
        },
        {
          "duration": 0.125,
          "durationTicks": 128,
          "midi": 36,
          "name": "C2",
          "ticks": 54656,
          "time": 53.375,
          "velocity": 0.3937007874015748
        },
        {
          "duration": 0.125,
          "durationTicks": 128,
          "midi": 35,
          "name": "B1",
          "ticks": 54784,
          "time": 53.5,
          "velocity": 0.3937007874015748
        },
        {
          "duration": 0.125,
          "durationTicks": 128,
          "midi": 33,
          "name": "A1",
          "ticks": 54912,
          "time": 53.625,
          "velocity": 0.3937007874015748
        },
        {
          "duration": 0.125,
          "durationTicks": 128,
          "midi": 31,
          "name": "G1",
          "ticks": 55040,
          "time": 53.75,
          "velocity": 0.3937007874015748
        },
        {
          "duration": 0.125,
          "durationTicks": 128,
          "midi": 30,
          "name": "F#1",
          "ticks": 55168,
          "time": 53.875,
          "velocity": 0.3937007874015748
        },
        {
          "duration": 0.09375,
          "durationTicks": 96,
          "midi": 28,
          "name": "E1",
          "ticks": 109056,
          "time": 106.5,
          "velocity": 0.3937007874015748
        },
        {
          "duration": 0.09375,
          "durationTicks": 96,
          "midi": 30,
          "name": "F#1",
          "ticks": 109248,
          "time": 106.6875,
          "velocity": 0.3937007874015748
        },
        {
          "duration": 0.09375,
          "durationTicks": 96,
          "midi": 31,
          "name": "G1",
          "ticks": 109440,
          "time": 106.875,
          "velocity": 0.3937007874015748
        },
        {
          "duration": 0.09375,
          "durationTicks": 96,
          "midi": 33,
          "name": "A1",
          "ticks": 109632,
          "time": 107.0625,
          "velocity": 0.3937007874015748
        },
        {
          "duration": 0.09375,
          "durationTicks": 96,
          "midi": 35,
          "name": "B1",
          "ticks": 109824,
          "time": 107.25,
          "velocity": 0.3937007874015748
        },
        {
          "duration": 0.09375,
          "durationTicks": 96,
          "midi": 33,
          "name": "A1",
          "ticks": 110016,
          "time": 107.4375,
          "velocity": 0.3937007874015748
        },
        {
          "duration": 0.09375,
          "durationTicks": 96,
          "midi": 31,
          "name": "G1",
          "ticks": 110208,
          "time": 107.625,
          "velocity": 0.3937007874015748
        },
        {
          "duration": 0.09375,
          "durationTicks": 96,
          "midi": 30,
          "name": "F#1",
          "ticks": 110400,
          "time": 107.8125,
          "velocity": 0.3937007874015748
        },
        {
          "duration": 0.09375,
          "durationTicks": 96,
          "midi": 28,
          "name": "E1",
          "ticks": 110592,
          "time": 108,
          "velocity": 0.3937007874015748
        },
        {
          "duration": 0.09375,
          "durationTicks": 96,
          "midi": 30,
          "name": "F#1",
          "ticks": 110784,
          "time": 108.1875,
          "velocity": 0.3937007874015748
        },
        {
          "duration": 0.09375,
          "durationTicks": 96,
          "midi": 31,
          "name": "G1",
          "ticks": 110976,
          "time": 108.375,
          "velocity": 0.3937007874015748
        },
        {
          "duration": 0.09375,
          "durationTicks": 96,
          "midi": 33,
          "name": "A1",
          "ticks": 111168,
          "time": 108.5625,
          "velocity": 0.3937007874015748
        },
        {
          "duration": 0.09375,
          "durationTicks": 96,
          "midi": 35,
          "name": "B1",
          "ticks": 111360,
          "time": 108.75,
          "velocity": 0.3937007874015748
        },
        {
          "duration": 0.09375,
          "durationTicks": 96,
          "midi": 33,
          "name": "A1",
          "ticks": 111552,
          "time": 108.9375,
          "velocity": 0.3937007874015748
        },
        {
          "duration": 0.09375,
          "durationTicks": 96,
          "midi": 31,
          "name": "G1",
          "ticks": 111744,
          "time": 109.125,
          "velocity": 0.3937007874015748
        },
        {
          "duration": 0.09375,
          "durationTicks": 96,
          "midi": 30,
          "name": "F#1",
          "ticks": 111936,
          "time": 109.3125,
          "velocity": 0.3937007874015748
        },
        {
          "duration": 0.09375,
          "durationTicks": 96,
          "midi": 28,
          "name": "E1",
          "ticks": 112128,
          "time": 109.5,
          "velocity": 0.3937007874015748
        },
        {
          "duration": 0.09375,
          "durationTicks": 96,
          "midi": 30,
          "name": "F#1",
          "ticks": 112320,
          "time": 109.6875,
          "velocity": 0.3937007874015748
        },
        {
          "duration": 0.09375,
          "durationTicks": 96,
          "midi": 31,
          "name": "G1",
          "ticks": 112512,
          "time": 109.875,
          "velocity": 0.3937007874015748
        },
        {
          "duration": 0.09375,
          "durationTicks": 96,
          "midi": 33,
          "name": "A1",
          "ticks": 112704,
          "time": 110.0625,
          "velocity": 0.3937007874015748
        },
        {
          "duration": 0.09375,
          "durationTicks": 96,
          "midi": 35,
          "name": "B1",
          "ticks": 112896,
          "time": 110.25,
          "velocity": 0.3937007874015748
        },
        {
          "duration": 0.09375,
          "durationTicks": 96,
          "midi": 33,
          "name": "A1",
          "ticks": 113088,
          "time": 110.4375,
          "velocity": 0.3937007874015748
        },
        {
          "duration": 0.09375,
          "durationTicks": 96,
          "midi": 31,
          "name": "G1",
          "ticks": 113280,
          "time": 110.625,
          "velocity": 0.3937007874015748
        },
        {
          "duration": 0.09375,
          "durationTicks": 96,
          "midi": 30,
          "name": "F#1",
          "ticks": 113472,
          "time": 110.8125,
          "velocity": 0.3937007874015748
        },
        {
          "duration": 0.09375,
          "durationTicks": 96,
          "midi": 28,
          "name": "E1",
          "ticks": 113664,
          "time": 111,
          "velocity": 0.3937007874015748
        },
        {
          "duration": 0.09375,
          "durationTicks": 96,
          "midi": 30,
          "name": "F#1",
          "ticks": 113856,
          "time": 111.1875,
          "velocity": 0.3937007874015748
        },
        {
          "duration": 0.09375,
          "durationTicks": 96,
          "midi": 31,
          "name": "G1",
          "ticks": 114048,
          "time": 111.375,
          "velocity": 0.3937007874015748
        },
        {
          "duration": 0.09375,
          "durationTicks": 96,
          "midi": 33,
          "name": "A1",
          "ticks": 114240,
          "time": 111.5625,
          "velocity": 0.3937007874015748
        },
        {
          "duration": 0.09375,
          "durationTicks": 96,
          "midi": 35,
          "name": "B1",
          "ticks": 114432,
          "time": 111.75,
          "velocity": 0.3937007874015748
        },
        {
          "duration": 0.09375,
          "durationTicks": 96,
          "midi": 33,
          "name": "A1",
          "ticks": 114624,
          "time": 111.9375,
          "velocity": 0.3937007874015748
        },
        {
          "duration": 0.09375,
          "durationTicks": 96,
          "midi": 31,
          "name": "G1",
          "ticks": 114816,
          "time": 112.125,
          "velocity": 0.3937007874015748
        },
        {
          "duration": 0.09375,
          "durationTicks": 96,
          "midi": 30,
          "name": "F#1",
          "ticks": 115008,
          "time": 112.3125,
          "velocity": 0.3937007874015748
        },
        {
          "duration": 0.09375,
          "durationTicks": 96,
          "midi": 28,
          "name": "E1",
          "ticks": 115200,
          "time": 112.5,
          "velocity": 0.3937007874015748
        },
        {
          "duration": 0.09375,
          "durationTicks": 96,
          "midi": 30,
          "name": "F#1",
          "ticks": 115392,
          "time": 112.6875,
          "velocity": 0.3937007874015748
        },
        {
          "duration": 0.09375,
          "durationTicks": 96,
          "midi": 31,
          "name": "G1",
          "ticks": 115584,
          "time": 112.875,
          "velocity": 0.3937007874015748
        },
        {
          "duration": 0.09375,
          "durationTicks": 96,
          "midi": 33,
          "name": "A1",
          "ticks": 115776,
          "time": 113.0625,
          "velocity": 0.3937007874015748
        },
        {
          "duration": 0.09375,
          "durationTicks": 96,
          "midi": 35,
          "name": "B1",
          "ticks": 115968,
          "time": 113.25,
          "velocity": 0.3937007874015748
        },
        {
          "duration": 0.09375,
          "durationTicks": 96,
          "midi": 33,
          "name": "A1",
          "ticks": 116160,
          "time": 113.4375,
          "velocity": 0.3937007874015748
        },
        {
          "duration": 0.09375,
          "durationTicks": 96,
          "midi": 31,
          "name": "G1",
          "ticks": 116352,
          "time": 113.625,
          "velocity": 0.3937007874015748
        },
        {
          "duration": 0.09375,
          "durationTicks": 96,
          "midi": 30,
          "name": "F#1",
          "ticks": 116544,
          "time": 113.8125,
          "velocity": 0.3937007874015748
        },
        {
          "duration": 0.09375,
          "durationTicks": 96,
          "midi": 28,
          "name": "E1",
          "ticks": 116736,
          "time": 114,
          "velocity": 0.3937007874015748
        },
        {
          "duration": 0.09375,
          "durationTicks": 96,
          "midi": 30,
          "name": "F#1",
          "ticks": 116928,
          "time": 114.1875,
          "velocity": 0.3937007874015748
        },
        {
          "duration": 0.09375,
          "durationTicks": 96,
          "midi": 31,
          "name": "G1",
          "ticks": 117120,
          "time": 114.375,
          "velocity": 0.3937007874015748
        },
        {
          "duration": 0.09375,
          "durationTicks": 96,
          "midi": 33,
          "name": "A1",
          "ticks": 117312,
          "time": 114.5625,
          "velocity": 0.3937007874015748
        },
        {
          "duration": 0.09375,
          "durationTicks": 96,
          "midi": 35,
          "name": "B1",
          "ticks": 117504,
          "time": 114.75,
          "velocity": 0.3937007874015748
        },
        {
          "duration": 0.09375,
          "durationTicks": 96,
          "midi": 33,
          "name": "A1",
          "ticks": 117696,
          "time": 114.9375,
          "velocity": 0.3937007874015748
        },
        {
          "duration": 0.09375,
          "durationTicks": 96,
          "midi": 31,
          "name": "G1",
          "ticks": 117888,
          "time": 115.125,
          "velocity": 0.3937007874015748
        },
        {
          "duration": 0.09375,
          "durationTicks": 96,
          "midi": 30,
          "name": "F#1",
          "ticks": 118080,
          "time": 115.3125,
          "velocity": 0.3937007874015748
        },
        {
          "duration": 0.09375,
          "durationTicks": 96,
          "midi": 28,
          "name": "E1",
          "ticks": 118272,
          "time": 115.5,
          "velocity": 0.3937007874015748
        },
        {
          "duration": 0.09375,
          "durationTicks": 96,
          "midi": 30,
          "name": "F#1",
          "ticks": 118464,
          "time": 115.6875,
          "velocity": 0.3937007874015748
        },
        {
          "duration": 0.09375,
          "durationTicks": 96,
          "midi": 31,
          "name": "G1",
          "ticks": 118656,
          "time": 115.875,
          "velocity": 0.3937007874015748
        },
        {
          "duration": 0.09375,
          "durationTicks": 96,
          "midi": 33,
          "name": "A1",
          "ticks": 118848,
          "time": 116.0625,
          "velocity": 0.3937007874015748
        },
        {
          "duration": 0.09375,
          "durationTicks": 96,
          "midi": 35,
          "name": "B1",
          "ticks": 119040,
          "time": 116.25,
          "velocity": 0.3937007874015748
        },
        {
          "duration": 0.09375,
          "durationTicks": 96,
          "midi": 33,
          "name": "A1",
          "ticks": 119232,
          "time": 116.4375,
          "velocity": 0.3937007874015748
        },
        {
          "duration": 0.09375,
          "durationTicks": 96,
          "midi": 31,
          "name": "G1",
          "ticks": 119424,
          "time": 116.625,
          "velocity": 0.3937007874015748
        },
        {
          "duration": 0.09375,
          "durationTicks": 96,
          "midi": 30,
          "name": "F#1",
          "ticks": 119616,
          "time": 116.8125,
          "velocity": 0.3937007874015748
        },
        {
          "duration": 0.09375,
          "durationTicks": 96,
          "midi": 28,
          "name": "E1",
          "ticks": 119808,
          "time": 117,
          "velocity": 0.3937007874015748
        },
        {
          "duration": 0.09375,
          "durationTicks": 96,
          "midi": 30,
          "name": "F#1",
          "ticks": 120000,
          "time": 117.1875,
          "velocity": 0.3937007874015748
        },
        {
          "duration": 0.09375,
          "durationTicks": 96,
          "midi": 31,
          "name": "G1",
          "ticks": 120192,
          "time": 117.375,
          "velocity": 0.3937007874015748
        },
        {
          "duration": 0.09375,
          "durationTicks": 96,
          "midi": 33,
          "name": "A1",
          "ticks": 120384,
          "time": 117.5625,
          "velocity": 0.3937007874015748
        },
        {
          "duration": 0.09375,
          "durationTicks": 96,
          "midi": 35,
          "name": "B1",
          "ticks": 120576,
          "time": 117.75,
          "velocity": 0.3937007874015748
        },
        {
          "duration": 0.09375,
          "durationTicks": 96,
          "midi": 33,
          "name": "A1",
          "ticks": 120768,
          "time": 117.9375,
          "velocity": 0.3937007874015748
        },
        {
          "duration": 0.09375,
          "durationTicks": 96,
          "midi": 31,
          "name": "G1",
          "ticks": 120960,
          "time": 118.125,
          "velocity": 0.3937007874015748
        },
        {
          "duration": 0.09375,
          "durationTicks": 96,
          "midi": 30,
          "name": "F#1",
          "ticks": 121152,
          "time": 118.3125,
          "velocity": 0.3937007874015748
        },
        {
          "duration": 0.09375,
          "durationTicks": 96,
          "midi": 28,
          "name": "E1",
          "ticks": 121344,
          "time": 118.5,
          "velocity": 0.3937007874015748
        },
        {
          "duration": 0.09375,
          "durationTicks": 96,
          "midi": 30,
          "name": "F#1",
          "ticks": 121536,
          "time": 118.6875,
          "velocity": 0.3937007874015748
        },
        {
          "duration": 0.09375,
          "durationTicks": 96,
          "midi": 31,
          "name": "G1",
          "ticks": 121728,
          "time": 118.875,
          "velocity": 0.3937007874015748
        },
        {
          "duration": 0.09375,
          "durationTicks": 96,
          "midi": 33,
          "name": "A1",
          "ticks": 121920,
          "time": 119.0625,
          "velocity": 0.3937007874015748
        },
        {
          "duration": 0.09375,
          "durationTicks": 96,
          "midi": 35,
          "name": "B1",
          "ticks": 122112,
          "time": 119.25,
          "velocity": 0.3937007874015748
        },
        {
          "duration": 0.09375,
          "durationTicks": 96,
          "midi": 33,
          "name": "A1",
          "ticks": 122304,
          "time": 119.4375,
          "velocity": 0.3937007874015748
        },
        {
          "duration": 0.09375,
          "durationTicks": 96,
          "midi": 31,
          "name": "G1",
          "ticks": 122496,
          "time": 119.625,
          "velocity": 0.3937007874015748
        },
        {
          "duration": 0.09375,
          "durationTicks": 96,
          "midi": 30,
          "name": "F#1",
          "ticks": 122688,
          "time": 119.8125,
          "velocity": 0.3937007874015748
        },
        {
          "duration": 0.09375,
          "durationTicks": 96,
          "midi": 28,
          "name": "E1",
          "ticks": 122880,
          "time": 120,
          "velocity": 0.3937007874015748
        },
        {
          "duration": 0.09375,
          "durationTicks": 96,
          "midi": 30,
          "name": "F#1",
          "ticks": 123072,
          "time": 120.1875,
          "velocity": 0.3937007874015748
        },
        {
          "duration": 0.09375,
          "durationTicks": 96,
          "midi": 31,
          "name": "G1",
          "ticks": 123264,
          "time": 120.375,
          "velocity": 0.3937007874015748
        },
        {
          "duration": 0.09375,
          "durationTicks": 96,
          "midi": 33,
          "name": "A1",
          "ticks": 123456,
          "time": 120.5625,
          "velocity": 0.3937007874015748
        },
        {
          "duration": 0.09375,
          "durationTicks": 96,
          "midi": 35,
          "name": "B1",
          "ticks": 123648,
          "time": 120.75,
          "velocity": 0.3937007874015748
        },
        {
          "duration": 0.09375,
          "durationTicks": 96,
          "midi": 33,
          "name": "A1",
          "ticks": 123840,
          "time": 120.9375,
          "velocity": 0.3937007874015748
        },
        {
          "duration": 0.09375,
          "durationTicks": 96,
          "midi": 31,
          "name": "G1",
          "ticks": 124032,
          "time": 121.125,
          "velocity": 0.3937007874015748
        },
        {
          "duration": 0.09375,
          "durationTicks": 96,
          "midi": 30,
          "name": "F#1",
          "ticks": 124224,
          "time": 121.3125,
          "velocity": 0.3937007874015748
        },
        {
          "duration": 0.09375,
          "durationTicks": 96,
          "midi": 28,
          "name": "E1",
          "ticks": 124416,
          "time": 121.5,
          "velocity": 0.3937007874015748
        },
        {
          "duration": 0.09375,
          "durationTicks": 96,
          "midi": 30,
          "name": "F#1",
          "ticks": 124608,
          "time": 121.6875,
          "velocity": 0.3937007874015748
        },
        {
          "duration": 0.09375,
          "durationTicks": 96,
          "midi": 31,
          "name": "G1",
          "ticks": 124800,
          "time": 121.875,
          "velocity": 0.3937007874015748
        },
        {
          "duration": 0.09375,
          "durationTicks": 96,
          "midi": 33,
          "name": "A1",
          "ticks": 124992,
          "time": 122.0625,
          "velocity": 0.3937007874015748
        },
        {
          "duration": 0.09375,
          "durationTicks": 96,
          "midi": 35,
          "name": "B1",
          "ticks": 125184,
          "time": 122.25,
          "velocity": 0.3937007874015748
        },
        {
          "duration": 0.09375,
          "durationTicks": 96,
          "midi": 33,
          "name": "A1",
          "ticks": 125376,
          "time": 122.4375,
          "velocity": 0.3937007874015748
        },
        {
          "duration": 0.09375,
          "durationTicks": 96,
          "midi": 31,
          "name": "G1",
          "ticks": 125568,
          "time": 122.625,
          "velocity": 0.3937007874015748
        },
        {
          "duration": 0.09375,
          "durationTicks": 96,
          "midi": 30,
          "name": "F#1",
          "ticks": 125760,
          "time": 122.8125,
          "velocity": 0.3937007874015748
        },
        {
          "duration": 0.09375,
          "durationTicks": 96,
          "midi": 28,
          "name": "E1",
          "ticks": 125952,
          "time": 123,
          "velocity": 0.3937007874015748
        },
        {
          "duration": 0.09375,
          "durationTicks": 96,
          "midi": 30,
          "name": "F#1",
          "ticks": 126144,
          "time": 123.1875,
          "velocity": 0.3937007874015748
        },
        {
          "duration": 0.09375,
          "durationTicks": 96,
          "midi": 31,
          "name": "G1",
          "ticks": 126336,
          "time": 123.375,
          "velocity": 0.3937007874015748
        },
        {
          "duration": 0.09375,
          "durationTicks": 96,
          "midi": 33,
          "name": "A1",
          "ticks": 126528,
          "time": 123.5625,
          "velocity": 0.3937007874015748
        },
        {
          "duration": 0.09375,
          "durationTicks": 96,
          "midi": 35,
          "name": "B1",
          "ticks": 126720,
          "time": 123.75,
          "velocity": 0.3937007874015748
        },
        {
          "duration": 0.09375,
          "durationTicks": 96,
          "midi": 33,
          "name": "A1",
          "ticks": 126912,
          "time": 123.9375,
          "velocity": 0.3937007874015748
        },
        {
          "duration": 0.09375,
          "durationTicks": 96,
          "midi": 31,
          "name": "G1",
          "ticks": 127104,
          "time": 124.125,
          "velocity": 0.3937007874015748
        },
        {
          "duration": 0.09375,
          "durationTicks": 96,
          "midi": 30,
          "name": "F#1",
          "ticks": 127296,
          "time": 124.3125,
          "velocity": 0.3937007874015748
        },
        {
          "duration": 0.09375,
          "durationTicks": 96,
          "midi": 28,
          "name": "E1",
          "ticks": 127488,
          "time": 124.5,
          "velocity": 0.3937007874015748
        },
        {
          "duration": 0.09375,
          "durationTicks": 96,
          "midi": 30,
          "name": "F#1",
          "ticks": 127680,
          "time": 124.6875,
          "velocity": 0.3937007874015748
        },
        {
          "duration": 0.09375,
          "durationTicks": 96,
          "midi": 31,
          "name": "G1",
          "ticks": 127872,
          "time": 124.875,
          "velocity": 0.3937007874015748
        },
        {
          "duration": 0.09375,
          "durationTicks": 96,
          "midi": 33,
          "name": "A1",
          "ticks": 128064,
          "time": 125.0625,
          "velocity": 0.3937007874015748
        },
        {
          "duration": 0.09375,
          "durationTicks": 96,
          "midi": 35,
          "name": "B1",
          "ticks": 128256,
          "time": 125.25,
          "velocity": 0.3937007874015748
        },
        {
          "duration": 0.09375,
          "durationTicks": 96,
          "midi": 33,
          "name": "A1",
          "ticks": 128448,
          "time": 125.4375,
          "velocity": 0.3937007874015748
        },
        {
          "duration": 0.09375,
          "durationTicks": 96,
          "midi": 31,
          "name": "G1",
          "ticks": 128640,
          "time": 125.625,
          "velocity": 0.3937007874015748
        },
        {
          "duration": 0.09375,
          "durationTicks": 96,
          "midi": 30,
          "name": "F#1",
          "ticks": 128832,
          "time": 125.8125,
          "velocity": 0.3937007874015748
        },
        {
          "duration": 0.09375,
          "durationTicks": 96,
          "midi": 28,
          "name": "E1",
          "ticks": 129024,
          "time": 126,
          "velocity": 0.3937007874015748
        },
        {
          "duration": 0.09375,
          "durationTicks": 96,
          "midi": 30,
          "name": "F#1",
          "ticks": 129216,
          "time": 126.1875,
          "velocity": 0.3937007874015748
        },
        {
          "duration": 0.09375,
          "durationTicks": 96,
          "midi": 31,
          "name": "G1",
          "ticks": 129408,
          "time": 126.375,
          "velocity": 0.3937007874015748
        },
        {
          "duration": 0.09375,
          "durationTicks": 96,
          "midi": 33,
          "name": "A1",
          "ticks": 129600,
          "time": 126.5625,
          "velocity": 0.3937007874015748
        },
        {
          "duration": 0.09375,
          "durationTicks": 96,
          "midi": 35,
          "name": "B1",
          "ticks": 129792,
          "time": 126.75,
          "velocity": 0.3937007874015748
        },
        {
          "duration": 0.09375,
          "durationTicks": 96,
          "midi": 33,
          "name": "A1",
          "ticks": 129984,
          "time": 126.9375,
          "velocity": 0.3937007874015748
        },
        {
          "duration": 0.09375,
          "durationTicks": 96,
          "midi": 31,
          "name": "G1",
          "ticks": 130176,
          "time": 127.125,
          "velocity": 0.3937007874015748
        },
        {
          "duration": 0.09375,
          "durationTicks": 96,
          "midi": 30,
          "name": "F#1",
          "ticks": 130368,
          "time": 127.3125,
          "velocity": 0.3937007874015748
        },
        {
          "duration": 0.09375,
          "durationTicks": 96,
          "midi": 28,
          "name": "E1",
          "ticks": 130560,
          "time": 127.5,
          "velocity": 0.3937007874015748
        },
        {
          "duration": 0.09375,
          "durationTicks": 96,
          "midi": 30,
          "name": "F#1",
          "ticks": 130752,
          "time": 127.6875,
          "velocity": 0.3937007874015748
        },
        {
          "duration": 0.09375,
          "durationTicks": 96,
          "midi": 31,
          "name": "G1",
          "ticks": 130944,
          "time": 127.875,
          "velocity": 0.3937007874015748
        },
        {
          "duration": 0.09375,
          "durationTicks": 96,
          "midi": 33,
          "name": "A1",
          "ticks": 131136,
          "time": 128.0625,
          "velocity": 0.3937007874015748
        },
        {
          "duration": 0.09375,
          "durationTicks": 96,
          "midi": 35,
          "name": "B1",
          "ticks": 131328,
          "time": 128.25,
          "velocity": 0.3937007874015748
        },
        {
          "duration": 0.09375,
          "durationTicks": 96,
          "midi": 33,
          "name": "A1",
          "ticks": 131520,
          "time": 128.4375,
          "velocity": 0.3937007874015748
        },
        {
          "duration": 0.09375,
          "durationTicks": 96,
          "midi": 31,
          "name": "G1",
          "ticks": 131712,
          "time": 128.625,
          "velocity": 0.3937007874015748
        },
        {
          "duration": 0.09375,
          "durationTicks": 96,
          "midi": 30,
          "name": "F#1",
          "ticks": 131904,
          "time": 128.8125,
          "velocity": 0.3937007874015748
        },
        {
          "duration": 0.09375,
          "durationTicks": 96,
          "midi": 28,
          "name": "E1",
          "ticks": 132096,
          "time": 129,
          "velocity": 0.3937007874015748
        },
        {
          "duration": 0.09375,
          "durationTicks": 96,
          "midi": 30,
          "name": "F#1",
          "ticks": 132288,
          "time": 129.1875,
          "velocity": 0.3937007874015748
        },
        {
          "duration": 0.09375,
          "durationTicks": 96,
          "midi": 31,
          "name": "G1",
          "ticks": 132480,
          "time": 129.375,
          "velocity": 0.3937007874015748
        },
        {
          "duration": 0.09375,
          "durationTicks": 96,
          "midi": 33,
          "name": "A1",
          "ticks": 132672,
          "time": 129.5625,
          "velocity": 0.3937007874015748
        },
        {
          "duration": 0.09375,
          "durationTicks": 96,
          "midi": 35,
          "name": "B1",
          "ticks": 132864,
          "time": 129.75,
          "velocity": 0.3937007874015748
        },
        {
          "duration": 0.09375,
          "durationTicks": 96,
          "midi": 33,
          "name": "A1",
          "ticks": 133056,
          "time": 129.9375,
          "velocity": 0.3937007874015748
        },
        {
          "duration": 0.09375,
          "durationTicks": 96,
          "midi": 31,
          "name": "G1",
          "ticks": 133248,
          "time": 130.125,
          "velocity": 0.3937007874015748
        },
        {
          "duration": 0.09375,
          "durationTicks": 96,
          "midi": 30,
          "name": "F#1",
          "ticks": 133440,
          "time": 130.3125,
          "velocity": 0.3937007874015748
        },
        {
          "duration": 0.09375,
          "durationTicks": 96,
          "midi": 28,
          "name": "E1",
          "ticks": 133632,
          "time": 130.5,
          "velocity": 0.3937007874015748
        },
        {
          "duration": 0.09375,
          "durationTicks": 96,
          "midi": 30,
          "name": "F#1",
          "ticks": 133824,
          "time": 130.6875,
          "velocity": 0.3937007874015748
        },
        {
          "duration": 0.09375,
          "durationTicks": 96,
          "midi": 31,
          "name": "G1",
          "ticks": 134016,
          "time": 130.875,
          "velocity": 0.3937007874015748
        },
        {
          "duration": 0.09375,
          "durationTicks": 96,
          "midi": 33,
          "name": "A1",
          "ticks": 134208,
          "time": 131.0625,
          "velocity": 0.3937007874015748
        },
        {
          "duration": 0.09375,
          "durationTicks": 96,
          "midi": 35,
          "name": "B1",
          "ticks": 134400,
          "time": 131.25,
          "velocity": 0.3937007874015748
        },
        {
          "duration": 0.09375,
          "durationTicks": 96,
          "midi": 33,
          "name": "A1",
          "ticks": 134592,
          "time": 131.4375,
          "velocity": 0.3937007874015748
        },
        {
          "duration": 0.09375,
          "durationTicks": 96,
          "midi": 31,
          "name": "G1",
          "ticks": 134784,
          "time": 131.625,
          "velocity": 0.3937007874015748
        },
        {
          "duration": 0.09375,
          "durationTicks": 96,
          "midi": 30,
          "name": "F#1",
          "ticks": 134976,
          "time": 131.8125,
          "velocity": 0.3937007874015748
        },
        {
          "duration": 0.09375,
          "durationTicks": 96,
          "midi": 28,
          "name": "E1",
          "ticks": 135168,
          "time": 132,
          "velocity": 0.3937007874015748
        },
        {
          "duration": 0.09375,
          "durationTicks": 96,
          "midi": 30,
          "name": "F#1",
          "ticks": 135360,
          "time": 132.1875,
          "velocity": 0.3937007874015748
        },
        {
          "duration": 0.09375,
          "durationTicks": 96,
          "midi": 31,
          "name": "G1",
          "ticks": 135552,
          "time": 132.375,
          "velocity": 0.3937007874015748
        },
        {
          "duration": 0.09375,
          "durationTicks": 96,
          "midi": 33,
          "name": "A1",
          "ticks": 135744,
          "time": 132.5625,
          "velocity": 0.3937007874015748
        },
        {
          "duration": 0.09375,
          "durationTicks": 96,
          "midi": 35,
          "name": "B1",
          "ticks": 135936,
          "time": 132.75,
          "velocity": 0.3937007874015748
        },
        {
          "duration": 0.09375,
          "durationTicks": 96,
          "midi": 33,
          "name": "A1",
          "ticks": 136128,
          "time": 132.9375,
          "velocity": 0.3937007874015748
        },
        {
          "duration": 0.09375,
          "durationTicks": 96,
          "midi": 31,
          "name": "G1",
          "ticks": 136320,
          "time": 133.125,
          "velocity": 0.3937007874015748
        },
        {
          "duration": 0.09375,
          "durationTicks": 96,
          "midi": 30,
          "name": "F#1",
          "ticks": 136512,
          "time": 133.3125,
          "velocity": 0.3937007874015748
        },
        {
          "duration": 0.09375,
          "durationTicks": 96,
          "midi": 28,
          "name": "E1",
          "ticks": 136704,
          "time": 133.5,
          "velocity": 0.3937007874015748
        },
        {
          "duration": 0.09375,
          "durationTicks": 96,
          "midi": 30,
          "name": "F#1",
          "ticks": 136896,
          "time": 133.6875,
          "velocity": 0.3937007874015748
        },
        {
          "duration": 0.09375,
          "durationTicks": 96,
          "midi": 31,
          "name": "G1",
          "ticks": 137088,
          "time": 133.875,
          "velocity": 0.3937007874015748
        },
        {
          "duration": 0.09375,
          "durationTicks": 96,
          "midi": 33,
          "name": "A1",
          "ticks": 137280,
          "time": 134.0625,
          "velocity": 0.3937007874015748
        },
        {
          "duration": 0.09375,
          "durationTicks": 96,
          "midi": 35,
          "name": "B1",
          "ticks": 137472,
          "time": 134.25,
          "velocity": 0.3937007874015748
        },
        {
          "duration": 0.09375,
          "durationTicks": 96,
          "midi": 33,
          "name": "A1",
          "ticks": 137664,
          "time": 134.4375,
          "velocity": 0.3937007874015748
        },
        {
          "duration": 0.09375,
          "durationTicks": 96,
          "midi": 31,
          "name": "G1",
          "ticks": 137856,
          "time": 134.625,
          "velocity": 0.3937007874015748
        },
        {
          "duration": 0.09375,
          "durationTicks": 96,
          "midi": 30,
          "name": "F#1",
          "ticks": 138048,
          "time": 134.8125,
          "velocity": 0.3937007874015748
        },
        {
          "duration": 0.09375,
          "durationTicks": 96,
          "midi": 40,
          "name": "E2",
          "ticks": 138240,
          "time": 135,
          "velocity": 0.3937007874015748
        },
        {
          "duration": 0.09375,
          "durationTicks": 96,
          "midi": 38,
          "name": "D2",
          "ticks": 138528,
          "time": 135.28125,
          "velocity": 0.3937007874015748
        },
        {
          "duration": 0.09375,
          "durationTicks": 96,
          "midi": 36,
          "name": "C2",
          "ticks": 138816,
          "time": 135.5625,
          "velocity": 0.3937007874015748
        },
        {
          "duration": 0.125,
          "durationTicks": 128,
          "midi": 35,
          "name": "B1",
          "ticks": 139008,
          "time": 135.75,
          "velocity": 0.3937007874015748
        },
        {
          "duration": 0.125,
          "durationTicks": 128,
          "midi": 36,
          "name": "C2",
          "ticks": 139136,
          "time": 135.875,
          "velocity": 0.3937007874015748
        },
        {
          "duration": 0.125,
          "durationTicks": 128,
          "midi": 35,
          "name": "B1",
          "ticks": 139264,
          "time": 136,
          "velocity": 0.3937007874015748
        },
        {
          "duration": 0.125,
          "durationTicks": 128,
          "midi": 33,
          "name": "A1",
          "ticks": 139392,
          "time": 136.125,
          "velocity": 0.3937007874015748
        },
        {
          "duration": 0.125,
          "durationTicks": 128,
          "midi": 31,
          "name": "G1",
          "ticks": 139520,
          "time": 136.25,
          "velocity": 0.3937007874015748
        },
        {
          "duration": 0.125,
          "durationTicks": 128,
          "midi": 30,
          "name": "F#1",
          "ticks": 139648,
          "time": 136.375,
          "velocity": 0.3937007874015748
        }
      ],
      "endOfTrackTicks": 139776
    },
    {
      "channel": 3,
      "controlChanges": {},
      "pitchBends": [],
      "instrument": {
        "family": "brass",
        "number": 60,
        "name": "french horn"
      },
      "name": "French Horn",
      "notes": [
        {
          "duration": 0.09375,
          "durationTicks": 96,
          "midi": 54,
          "name": "F#3",
          "ticks": 154368,
          "time": 150.75,
          "velocity": 0.3937007874015748
        },
        {
          "duration": 0.09375,
          "durationTicks": 96,
          "midi": 55,
          "name": "G3",
          "ticks": 154464,
          "time": 150.84375,
          "velocity": 0.3937007874015748
        },
        {
          "duration": 0.09375,
          "durationTicks": 96,
          "midi": 56,
          "name": "G#3",
          "ticks": 154560,
          "time": 150.9375,
          "velocity": 0.3937007874015748
        },
        {
          "duration": 0.09375,
          "durationTicks": 96,
          "midi": 57,
          "name": "A3",
          "ticks": 154656,
          "time": 151.03125,
          "velocity": 0.3937007874015748
        },
        {
          "duration": 0.09375,
          "durationTicks": 96,
          "midi": 58,
          "name": "A#3",
          "ticks": 154752,
          "time": 151.125,
          "velocity": 0.3937007874015748
        },
        {
          "duration": 0.09375,
          "durationTicks": 96,
          "midi": 59,
          "name": "B3",
          "ticks": 154848,
          "time": 151.21875,
          "velocity": 0.3937007874015748
        },
        {
          "duration": 0.09375,
          "durationTicks": 96,
          "midi": 59,
          "name": "B3",
          "ticks": 154848,
          "time": 151.21875,
          "velocity": 0.3937007874015748
        },
        {
          "duration": 0.09375,
          "durationTicks": 96,
          "midi": 59,
          "name": "B3",
          "ticks": 154848,
          "time": 151.21875,
          "velocity": 0.3937007874015748
        },
        {
          "duration": 0.09375,
          "durationTicks": 96,
          "midi": 60,
          "name": "C4",
          "ticks": 154944,
          "time": 151.3125,
          "velocity": 0.3937007874015748
        },
        {
          "duration": 0.09375,
          "durationTicks": 96,
          "midi": 61,
          "name": "C#4",
          "ticks": 155040,
          "time": 151.40625,
          "velocity": 0.3937007874015748
        }
      ],
      "endOfTrackTicks": 155136
    },
    {
      "channel": 4,
      "controlChanges": {},
      "pitchBends": [],
      "instrument": {
        "family": "brass",
        "number": 57,
        "name": "trombone"
      },
      "name": "Trombone",
      "notes": [
        {
          "duration": 0.09375,
          "durationTicks": 96,
          "midi": 64,
          "name": "E4",
          "ticks": 30720,
          "time": 30,
          "velocity": 0.3937007874015748
        },
        {
          "duration": 0.09375,
          "durationTicks": 96,
          "midi": 67,
          "name": "G4",
          "ticks": 30912,
          "time": 30.1875,
          "velocity": 0.3937007874015748
        },
        {
          "duration": 0.09375,
          "durationTicks": 96,
          "midi": 71,
          "name": "B4",
          "ticks": 31104,
          "time": 30.375,
          "velocity": 0.3937007874015748
        },
        {
          "duration": 0.09375,
          "durationTicks": 96,
          "midi": 76,
          "name": "E5",
          "ticks": 31296,
          "time": 30.5625,
          "velocity": 0.3937007874015748
        },
        {
          "duration": 0.09375,
          "durationTicks": 96,
          "midi": 75,
          "name": "D#5",
          "ticks": 31488,
          "time": 30.75,
          "velocity": 0.3937007874015748
        },
        {
          "duration": 0.09375,
          "durationTicks": 96,
          "midi": 71,
          "name": "B4",
          "ticks": 31776,
          "time": 31.03125,
          "velocity": 0.3937007874015748
        },
        {
          "duration": 0.09375,
          "durationTicks": 96,
          "midi": 75,
          "name": "D#5",
          "ticks": 32064,
          "time": 31.3125,
          "velocity": 0.3937007874015748
        },
        {
          "duration": 0.09375,
          "durationTicks": 96,
          "midi": 74,
          "name": "D5",
          "ticks": 32256,
          "time": 31.5,
          "velocity": 0.3937007874015748
        },
        {
          "duration": 0.09375,
          "durationTicks": 96,
          "midi": 71,
          "name": "B4",
          "ticks": 32544,
          "time": 31.78125,
          "velocity": 0.3937007874015748
        },
        {
          "duration": 0.09375,
          "durationTicks": 96,
          "midi": 74,
          "name": "D5",
          "ticks": 32832,
          "time": 32.0625,
          "velocity": 0.3937007874015748
        },
        {
          "duration": 0.09375,
          "durationTicks": 96,
          "midi": 73,
          "name": "C#5",
          "ticks": 33024,
          "time": 32.25,
          "velocity": 0.3937007874015748
        },
        {
          "duration": 0.09375,
          "durationTicks": 96,
          "midi": 70,
          "name": "A#4",
          "ticks": 33312,
          "time": 32.53125,
          "velocity": 0.3937007874015748
        },
        {
          "duration": 0.09375,
          "durationTicks": 96,
          "midi": 67,
          "name": "G4",
          "ticks": 33600,
          "time": 32.8125,
          "velocity": 0.3937007874015748
        },
        {
          "duration": 0.09375,
          "durationTicks": 96,
          "midi": 64,
          "name": "E4",
          "ticks": 36864,
          "time": 36,
          "velocity": 0.3937007874015748
        },
        {
          "duration": 0.09375,
          "durationTicks": 96,
          "midi": 67,
          "name": "G4",
          "ticks": 37056,
          "time": 36.1875,
          "velocity": 0.3937007874015748
        },
        {
          "duration": 0.09375,
          "durationTicks": 96,
          "midi": 71,
          "name": "B4",
          "ticks": 37248,
          "time": 36.375,
          "velocity": 0.3937007874015748
        },
        {
          "duration": 0.09375,
          "durationTicks": 96,
          "midi": 76,
          "name": "E5",
          "ticks": 37440,
          "time": 36.5625,
          "velocity": 0.3937007874015748
        },
        {
          "duration": 0.09375,
          "durationTicks": 96,
          "midi": 75,
          "name": "D#5",
          "ticks": 37632,
          "time": 36.75,
          "velocity": 0.3937007874015748
        },
        {
          "duration": 0.09375,
          "durationTicks": 96,
          "midi": 71,
          "name": "B4",
          "ticks": 37920,
          "time": 37.03125,
          "velocity": 0.3937007874015748
        },
        {
          "duration": 0.09375,
          "durationTicks": 96,
          "midi": 75,
          "name": "D#5",
          "ticks": 38208,
          "time": 37.3125,
          "velocity": 0.3937007874015748
        },
        {
          "duration": 0.09375,
          "durationTicks": 96,
          "midi": 74,
          "name": "D5",
          "ticks": 38400,
          "time": 37.5,
          "velocity": 0.3937007874015748
        },
        {
          "duration": 0.09375,
          "durationTicks": 96,
          "midi": 71,
          "name": "B4",
          "ticks": 38688,
          "time": 37.78125,
          "velocity": 0.3937007874015748
        },
        {
          "duration": 0.09375,
          "durationTicks": 96,
          "midi": 74,
          "name": "D5",
          "ticks": 38976,
          "time": 38.0625,
          "velocity": 0.3937007874015748
        },
        {
          "duration": 0.09375,
          "durationTicks": 96,
          "midi": 73,
          "name": "C#5",
          "ticks": 39168,
          "time": 38.25,
          "velocity": 0.3937007874015748
        },
        {
          "duration": 0.09375,
          "durationTicks": 96,
          "midi": 82,
          "name": "A#5",
          "ticks": 39456,
          "time": 38.53125,
          "velocity": 0.3937007874015748
        },
        {
          "duration": 0.09375,
          "durationTicks": 96,
          "midi": 79,
          "name": "G5",
          "ticks": 39744,
          "time": 38.8125,
          "velocity": 0.3937007874015748
        },
        {
          "duration": 0.09375,
          "durationTicks": 96,
          "midi": 64,
          "name": "E4",
          "ticks": 43008,
          "time": 42,
          "velocity": 0.3937007874015748
        },
        {
          "duration": 0.09375,
          "durationTicks": 96,
          "midi": 67,
          "name": "G4",
          "ticks": 43200,
          "time": 42.1875,
          "velocity": 0.3937007874015748
        },
        {
          "duration": 0.09375,
          "durationTicks": 96,
          "midi": 71,
          "name": "B4",
          "ticks": 43392,
          "time": 42.375,
          "velocity": 0.3937007874015748
        },
        {
          "duration": 0.09375,
          "durationTicks": 96,
          "midi": 76,
          "name": "E5",
          "ticks": 43584,
          "time": 42.5625,
          "velocity": 0.3937007874015748
        },
        {
          "duration": 0.09375,
          "durationTicks": 96,
          "midi": 75,
          "name": "D#5",
          "ticks": 43776,
          "time": 42.75,
          "velocity": 0.3937007874015748
        },
        {
          "duration": 0.09375,
          "durationTicks": 96,
          "midi": 71,
          "name": "B4",
          "ticks": 44064,
          "time": 43.03125,
          "velocity": 0.3937007874015748
        },
        {
          "duration": 0.09375,
          "durationTicks": 96,
          "midi": 75,
          "name": "D#5",
          "ticks": 44352,
          "time": 43.3125,
          "velocity": 0.3937007874015748
        },
        {
          "duration": 0.09375,
          "durationTicks": 96,
          "midi": 74,
          "name": "D5",
          "ticks": 44544,
          "time": 43.5,
          "velocity": 0.3937007874015748
        },
        {
          "duration": 0.09375,
          "durationTicks": 96,
          "midi": 71,
          "name": "B4",
          "ticks": 44832,
          "time": 43.78125,
          "velocity": 0.3937007874015748
        },
        {
          "duration": 0.09375,
          "durationTicks": 96,
          "midi": 74,
          "name": "D5",
          "ticks": 45120,
          "time": 44.0625,
          "velocity": 0.3937007874015748
        },
        {
          "duration": 0.09375,
          "durationTicks": 96,
          "midi": 73,
          "name": "C#5",
          "ticks": 45312,
          "time": 44.25,
          "velocity": 0.3937007874015748
        },
        {
          "duration": 0.09375,
          "durationTicks": 96,
          "midi": 82,
          "name": "A#5",
          "ticks": 45600,
          "time": 44.53125,
          "velocity": 0.3937007874015748
        },
        {
          "duration": 0.09375,
          "durationTicks": 96,
          "midi": 79,
          "name": "G5",
          "ticks": 45888,
          "time": 44.8125,
          "velocity": 0.3937007874015748
        },
        {
          "duration": 0.09375,
          "durationTicks": 96,
          "midi": 64,
          "name": "E4",
          "ticks": 49152,
          "time": 48,
          "velocity": 0.3937007874015748
        },
        {
          "duration": 0.09375,
          "durationTicks": 96,
          "midi": 67,
          "name": "G4",
          "ticks": 49344,
          "time": 48.1875,
          "velocity": 0.3937007874015748
        },
        {
          "duration": 0.09375,
          "durationTicks": 96,
          "midi": 71,
          "name": "B4",
          "ticks": 49536,
          "time": 48.375,
          "velocity": 0.3937007874015748
        },
        {
          "duration": 0.09375,
          "durationTicks": 96,
          "midi": 76,
          "name": "E5",
          "ticks": 49728,
          "time": 48.5625,
          "velocity": 0.3937007874015748
        },
        {
          "duration": 0.09375,
          "durationTicks": 96,
          "midi": 75,
          "name": "D#5",
          "ticks": 49920,
          "time": 48.75,
          "velocity": 0.3937007874015748
        },
        {
          "duration": 0.09375,
          "durationTicks": 96,
          "midi": 71,
          "name": "B4",
          "ticks": 50208,
          "time": 49.03125,
          "velocity": 0.3937007874015748
        },
        {
          "duration": 0.09375,
          "durationTicks": 96,
          "midi": 75,
          "name": "D#5",
          "ticks": 50496,
          "time": 49.3125,
          "velocity": 0.3937007874015748
        },
        {
          "duration": 0.09375,
          "durationTicks": 96,
          "midi": 74,
          "name": "D5",
          "ticks": 50688,
          "time": 49.5,
          "velocity": 0.3937007874015748
        },
        {
          "duration": 0.09375,
          "durationTicks": 96,
          "midi": 71,
          "name": "B4",
          "ticks": 50976,
          "time": 49.78125,
          "velocity": 0.3937007874015748
        },
        {
          "duration": 0.09375,
          "durationTicks": 96,
          "midi": 74,
          "name": "D5",
          "ticks": 51264,
          "time": 50.0625,
          "velocity": 0.3937007874015748
        },
        {
          "duration": 0.09375,
          "durationTicks": 96,
          "midi": 73,
          "name": "C#5",
          "ticks": 51456,
          "time": 50.25,
          "velocity": 0.3937007874015748
        },
        {
          "duration": 0.09375,
          "durationTicks": 96,
          "midi": 82,
          "name": "A#5",
          "ticks": 51744,
          "time": 50.53125,
          "velocity": 0.3937007874015748
        },
        {
          "duration": 0.09375,
          "durationTicks": 96,
          "midi": 79,
          "name": "G5",
          "ticks": 52032,
          "time": 50.8125,
          "velocity": 0.3937007874015748
        },
        {
          "duration": 0.09375,
          "durationTicks": 96,
          "midi": 64,
          "name": "E4",
          "ticks": 115200,
          "time": 112.5,
          "velocity": 0.3937007874015748
        },
        {
          "duration": 0.09375,
          "durationTicks": 96,
          "midi": 67,
          "name": "G4",
          "ticks": 115392,
          "time": 112.6875,
          "velocity": 0.3937007874015748
        },
        {
          "duration": 0.09375,
          "durationTicks": 96,
          "midi": 71,
          "name": "B4",
          "ticks": 115584,
          "time": 112.875,
          "velocity": 0.3937007874015748
        },
        {
          "duration": 0.09375,
          "durationTicks": 96,
          "midi": 76,
          "name": "E5",
          "ticks": 115776,
          "time": 113.0625,
          "velocity": 0.3937007874015748
        },
        {
          "duration": 0.09375,
          "durationTicks": 96,
          "midi": 75,
          "name": "D#5",
          "ticks": 115968,
          "time": 113.25,
          "velocity": 0.3937007874015748
        },
        {
          "duration": 0.09375,
          "durationTicks": 96,
          "midi": 71,
          "name": "B4",
          "ticks": 116256,
          "time": 113.53125,
          "velocity": 0.3937007874015748
        },
        {
          "duration": 0.09375,
          "durationTicks": 96,
          "midi": 75,
          "name": "D#5",
          "ticks": 116544,
          "time": 113.8125,
          "velocity": 0.3937007874015748
        },
        {
          "duration": 0.09375,
          "durationTicks": 96,
          "midi": 74,
          "name": "D5",
          "ticks": 116736,
          "time": 114,
          "velocity": 0.3937007874015748
        },
        {
          "duration": 0.09375,
          "durationTicks": 96,
          "midi": 71,
          "name": "B4",
          "ticks": 117024,
          "time": 114.28125,
          "velocity": 0.3937007874015748
        },
        {
          "duration": 0.09375,
          "durationTicks": 96,
          "midi": 74,
          "name": "D5",
          "ticks": 117312,
          "time": 114.5625,
          "velocity": 0.3937007874015748
        },
        {
          "duration": 0.09375,
          "durationTicks": 96,
          "midi": 73,
          "name": "C#5",
          "ticks": 117504,
          "time": 114.75,
          "velocity": 0.3937007874015748
        },
        {
          "duration": 0.09375,
          "durationTicks": 96,
          "midi": 70,
          "name": "A#4",
          "ticks": 117792,
          "time": 115.03125,
          "velocity": 0.3937007874015748
        },
        {
          "duration": 0.09375,
          "durationTicks": 96,
          "midi": 67,
          "name": "G4",
          "ticks": 118080,
          "time": 115.3125,
          "velocity": 0.3937007874015748
        },
        {
          "duration": 0.09375,
          "durationTicks": 96,
          "midi": 64,
          "name": "E4",
          "ticks": 121344,
          "time": 118.5,
          "velocity": 0.3937007874015748
        },
        {
          "duration": 0.09375,
          "durationTicks": 96,
          "midi": 67,
          "name": "G4",
          "ticks": 121536,
          "time": 118.6875,
          "velocity": 0.3937007874015748
        },
        {
          "duration": 0.09375,
          "durationTicks": 96,
          "midi": 71,
          "name": "B4",
          "ticks": 121728,
          "time": 118.875,
          "velocity": 0.3937007874015748
        },
        {
          "duration": 0.09375,
          "durationTicks": 96,
          "midi": 76,
          "name": "E5",
          "ticks": 121920,
          "time": 119.0625,
          "velocity": 0.3937007874015748
        },
        {
          "duration": 0.09375,
          "durationTicks": 96,
          "midi": 75,
          "name": "D#5",
          "ticks": 122112,
          "time": 119.25,
          "velocity": 0.3937007874015748
        },
        {
          "duration": 0.09375,
          "durationTicks": 96,
          "midi": 71,
          "name": "B4",
          "ticks": 122400,
          "time": 119.53125,
          "velocity": 0.3937007874015748
        },
        {
          "duration": 0.09375,
          "durationTicks": 96,
          "midi": 75,
          "name": "D#5",
          "ticks": 122688,
          "time": 119.8125,
          "velocity": 0.3937007874015748
        },
        {
          "duration": 0.09375,
          "durationTicks": 96,
          "midi": 74,
          "name": "D5",
          "ticks": 122880,
          "time": 120,
          "velocity": 0.3937007874015748
        },
        {
          "duration": 0.09375,
          "durationTicks": 96,
          "midi": 71,
          "name": "B4",
          "ticks": 123168,
          "time": 120.28125,
          "velocity": 0.3937007874015748
        },
        {
          "duration": 0.09375,
          "durationTicks": 96,
          "midi": 74,
          "name": "D5",
          "ticks": 123456,
          "time": 120.5625,
          "velocity": 0.3937007874015748
        },
        {
          "duration": 0.09375,
          "durationTicks": 96,
          "midi": 73,
          "name": "C#5",
          "ticks": 123648,
          "time": 120.75,
          "velocity": 0.3937007874015748
        },
        {
          "duration": 0.09375,
          "durationTicks": 96,
          "midi": 82,
          "name": "A#5",
          "ticks": 123936,
          "time": 121.03125,
          "velocity": 0.3937007874015748
        },
        {
          "duration": 0.09375,
          "durationTicks": 96,
          "midi": 79,
          "name": "G5",
          "ticks": 124224,
          "time": 121.3125,
          "velocity": 0.3937007874015748
        },
        {
          "duration": 0.09375,
          "durationTicks": 96,
          "midi": 64,
          "name": "E4",
          "ticks": 127488,
          "time": 124.5,
          "velocity": 0.3937007874015748
        },
        {
          "duration": 0.09375,
          "durationTicks": 96,
          "midi": 67,
          "name": "G4",
          "ticks": 127680,
          "time": 124.6875,
          "velocity": 0.3937007874015748
        },
        {
          "duration": 0.09375,
          "durationTicks": 96,
          "midi": 71,
          "name": "B4",
          "ticks": 127872,
          "time": 124.875,
          "velocity": 0.3937007874015748
        },
        {
          "duration": 0.09375,
          "durationTicks": 96,
          "midi": 76,
          "name": "E5",
          "ticks": 128064,
          "time": 125.0625,
          "velocity": 0.3937007874015748
        },
        {
          "duration": 0.09375,
          "durationTicks": 96,
          "midi": 75,
          "name": "D#5",
          "ticks": 128256,
          "time": 125.25,
          "velocity": 0.3937007874015748
        },
        {
          "duration": 0.09375,
          "durationTicks": 96,
          "midi": 71,
          "name": "B4",
          "ticks": 128544,
          "time": 125.53125,
          "velocity": 0.3937007874015748
        },
        {
          "duration": 0.09375,
          "durationTicks": 96,
          "midi": 75,
          "name": "D#5",
          "ticks": 128832,
          "time": 125.8125,
          "velocity": 0.3937007874015748
        },
        {
          "duration": 0.09375,
          "durationTicks": 96,
          "midi": 74,
          "name": "D5",
          "ticks": 129024,
          "time": 126,
          "velocity": 0.3937007874015748
        },
        {
          "duration": 0.09375,
          "durationTicks": 96,
          "midi": 71,
          "name": "B4",
          "ticks": 129312,
          "time": 126.28125,
          "velocity": 0.3937007874015748
        },
        {
          "duration": 0.09375,
          "durationTicks": 96,
          "midi": 74,
          "name": "D5",
          "ticks": 129600,
          "time": 126.5625,
          "velocity": 0.3937007874015748
        },
        {
          "duration": 0.09375,
          "durationTicks": 96,
          "midi": 73,
          "name": "C#5",
          "ticks": 129792,
          "time": 126.75,
          "velocity": 0.3937007874015748
        },
        {
          "duration": 0.09375,
          "durationTicks": 96,
          "midi": 82,
          "name": "A#5",
          "ticks": 130080,
          "time": 127.03125,
          "velocity": 0.3937007874015748
        },
        {
          "duration": 0.09375,
          "durationTicks": 96,
          "midi": 79,
          "name": "G5",
          "ticks": 130368,
          "time": 127.3125,
          "velocity": 0.3937007874015748
        },
        {
          "duration": 0.09375,
          "durationTicks": 96,
          "midi": 64,
          "name": "E4",
          "ticks": 133632,
          "time": 130.5,
          "velocity": 0.3937007874015748
        },
        {
          "duration": 0.09375,
          "durationTicks": 96,
          "midi": 67,
          "name": "G4",
          "ticks": 133824,
          "time": 130.6875,
          "velocity": 0.3937007874015748
        },
        {
          "duration": 0.09375,
          "durationTicks": 96,
          "midi": 71,
          "name": "B4",
          "ticks": 134016,
          "time": 130.875,
          "velocity": 0.3937007874015748
        },
        {
          "duration": 0.09375,
          "durationTicks": 96,
          "midi": 76,
          "name": "E5",
          "ticks": 134208,
          "time": 131.0625,
          "velocity": 0.3937007874015748
        },
        {
          "duration": 0.09375,
          "durationTicks": 96,
          "midi": 75,
          "name": "D#5",
          "ticks": 134400,
          "time": 131.25,
          "velocity": 0.3937007874015748
        },
        {
          "duration": 0.09375,
          "durationTicks": 96,
          "midi": 71,
          "name": "B4",
          "ticks": 134688,
          "time": 131.53125,
          "velocity": 0.3937007874015748
        },
        {
          "duration": 0.09375,
          "durationTicks": 96,
          "midi": 75,
          "name": "D#5",
          "ticks": 134976,
          "time": 131.8125,
          "velocity": 0.3937007874015748
        },
        {
          "duration": 0.09375,
          "durationTicks": 96,
          "midi": 74,
          "name": "D5",
          "ticks": 135168,
          "time": 132,
          "velocity": 0.3937007874015748
        },
        {
          "duration": 0.09375,
          "durationTicks": 96,
          "midi": 71,
          "name": "B4",
          "ticks": 135456,
          "time": 132.28125,
          "velocity": 0.3937007874015748
        },
        {
          "duration": 0.09375,
          "durationTicks": 96,
          "midi": 74,
          "name": "D5",
          "ticks": 135744,
          "time": 132.5625,
          "velocity": 0.3937007874015748
        },
        {
          "duration": 0.09375,
          "durationTicks": 96,
          "midi": 73,
          "name": "C#5",
          "ticks": 135936,
          "time": 132.75,
          "velocity": 0.3937007874015748
        },
        {
          "duration": 0.09375,
          "durationTicks": 96,
          "midi": 82,
          "name": "A#5",
          "ticks": 136224,
          "time": 133.03125,
          "velocity": 0.3937007874015748
        },
        {
          "duration": 0.09375,
          "durationTicks": 96,
          "midi": 79,
          "name": "G5",
          "ticks": 136512,
          "time": 133.3125,
          "velocity": 0.3937007874015748
        },
        {
          "duration": 0.09375,
          "durationTicks": 96,
          "midi": 47,
          "name": "B2",
          "ticks": 152064,
          "time": 148.5,
          "velocity": 0.3937007874015748
        },
        {
          "duration": 0.09375,
          "durationTicks": 96,
          "midi": 47,
          "name": "B2",
          "ticks": 152256,
          "time": 148.6875,
          "velocity": 0.3937007874015748
        },
        {
          "duration": 0.09375,
          "durationTicks": 96,
          "midi": 48,
          "name": "C3",
          "ticks": 152640,
          "time": 149.0625,
          "velocity": 0.3937007874015748
        },
        {
          "duration": 0.09375,
          "durationTicks": 96,
          "midi": 48,
          "name": "C3",
          "ticks": 152832,
          "time": 149.25,
          "velocity": 0.3937007874015748
        },
        {
          "duration": 0.09375,
          "durationTicks": 96,
          "midi": 47,
          "name": "B2",
          "ticks": 153216,
          "time": 149.625,
          "velocity": 0.3937007874015748
        },
        {
          "duration": 0.09375,
          "durationTicks": 96,
          "midi": 47,
          "name": "B2",
          "ticks": 153408,
          "time": 149.8125,
          "velocity": 0.3937007874015748
        },
        {
          "duration": 0.09375,
          "durationTicks": 96,
          "midi": 42,
          "name": "F#2",
          "ticks": 153792,
          "time": 150.1875,
          "velocity": 0.3937007874015748
        },
        {
          "duration": 0.09375,
          "durationTicks": 96,
          "midi": 42,
          "name": "F#2",
          "ticks": 153984,
          "time": 150.375,
          "velocity": 0.3937007874015748
        },
        {
          "duration": 0.09375,
          "durationTicks": 96,
          "midi": 42,
          "name": "F#2",
          "ticks": 154368,
          "time": 150.75,
          "velocity": 0.3937007874015748
        },
        {
          "duration": 0.09375,
          "durationTicks": 96,
          "midi": 43,
          "name": "G2",
          "ticks": 154464,
          "time": 150.84375,
          "velocity": 0.3937007874015748
        },
        {
          "duration": 0.09375,
          "durationTicks": 96,
          "midi": 44,
          "name": "G#2",
          "ticks": 154560,
          "time": 150.9375,
          "velocity": 0.3937007874015748
        },
        {
          "duration": 0.09375,
          "durationTicks": 96,
          "midi": 45,
          "name": "A2",
          "ticks": 154656,
          "time": 151.03125,
          "velocity": 0.3937007874015748
        },
        {
          "duration": 0.09375,
          "durationTicks": 96,
          "midi": 46,
          "name": "A#2",
          "ticks": 154752,
          "time": 151.125,
          "velocity": 0.3937007874015748
        },
        {
          "duration": 0.09375,
          "durationTicks": 96,
          "midi": 47,
          "name": "B2",
          "ticks": 154848,
          "time": 151.21875,
          "velocity": 0.3937007874015748
        },
        {
          "duration": 0.09375,
          "durationTicks": 96,
          "midi": 48,
          "name": "C3",
          "ticks": 154944,
          "time": 151.3125,
          "velocity": 0.3937007874015748
        },
        {
          "duration": 0.09375,
          "durationTicks": 96,
          "midi": 49,
          "name": "C#3",
          "ticks": 155040,
          "time": 151.40625,
          "velocity": 0.3937007874015748
        },
        {
          "duration": 0.09375,
          "durationTicks": 96,
          "midi": 47,
          "name": "B2",
          "ticks": 155136,
          "time": 151.5,
          "velocity": 0.3937007874015748
        },
        {
          "duration": 0.09375,
          "durationTicks": 96,
          "midi": 47,
          "name": "B2",
          "ticks": 155328,
          "time": 151.6875,
          "velocity": 0.3937007874015748
        },
        {
          "duration": 0.09375,
          "durationTicks": 96,
          "midi": 48,
          "name": "C3",
          "ticks": 155712,
          "time": 152.0625,
          "velocity": 0.3937007874015748
        },
        {
          "duration": 0.09375,
          "durationTicks": 96,
          "midi": 48,
          "name": "C3",
          "ticks": 155904,
          "time": 152.25,
          "velocity": 0.3937007874015748
        },
        {
          "duration": 0.09375,
          "durationTicks": 96,
          "midi": 47,
          "name": "B2",
          "ticks": 156288,
          "time": 152.625,
          "velocity": 0.3937007874015748
        },
        {
          "duration": 0.09375,
          "durationTicks": 96,
          "midi": 47,
          "name": "B2",
          "ticks": 156480,
          "time": 152.8125,
          "velocity": 0.3937007874015748
        },
        {
          "duration": 0.09375,
          "durationTicks": 96,
          "midi": 47,
          "name": "B2",
          "ticks": 156864,
          "time": 153.1875,
          "velocity": 0.3937007874015748
        },
        {
          "duration": 0.09375,
          "durationTicks": 96,
          "midi": 47,
          "name": "B2",
          "ticks": 157056,
          "time": 153.375,
          "velocity": 0.3937007874015748
        }
      ],
      "endOfTrackTicks": 157152
    },
    {
      "channel": 5,
      "controlChanges": {},
      "pitchBends": [],
      "instrument": {
        "family": "strings",
        "number": 40,
        "name": "violin"
      },
      "name": "Violin",
      "notes": [
        {
          "duration": 0.1875,
          "durationTicks": 192,
          "midi": 83,
          "name": "B5",
          "ticks": 12288,
          "time": 12,
          "velocity": 0.3937007874015748
        },
        {
          "duration": 0.1875,
          "durationTicks": 192,
          "midi": 79,
          "name": "G5",
          "ticks": 12480,
          "time": 12.1875,
          "velocity": 0.3937007874015748
        },
        {
          "duration": 0.1875,
          "durationTicks": 192,
          "midi": 76,
          "name": "E5",
          "ticks": 12672,
          "time": 12.375,
          "velocity": 0.3937007874015748
        },
        {
          "duration": 0.1875,
          "durationTicks": 192,
          "midi": 82,
          "name": "A#5",
          "ticks": 12864,
          "time": 12.5625,
          "velocity": 0.3937007874015748
        },
        {
          "duration": 0.1875,
          "durationTicks": 192,
          "midi": 79,
          "name": "G5",
          "ticks": 13056,
          "time": 12.75,
          "velocity": 0.3937007874015748
        },
        {
          "duration": 0.1875,
          "durationTicks": 192,
          "midi": 76,
          "name": "E5",
          "ticks": 13248,
          "time": 12.9375,
          "velocity": 0.3937007874015748
        },
        {
          "duration": 0.1875,
          "durationTicks": 192,
          "midi": 82,
          "name": "A#5",
          "ticks": 13440,
          "time": 13.125,
          "velocity": 0.3937007874015748
        },
        {
          "duration": 0.1875,
          "durationTicks": 192,
          "midi": 79,
          "name": "G5",
          "ticks": 13632,
          "time": 13.3125,
          "velocity": 0.3937007874015748
        },
        {
          "duration": 0.1875,
          "durationTicks": 192,
          "midi": 83,
          "name": "B5",
          "ticks": 13824,
          "time": 13.5,
          "velocity": 0.3937007874015748
        },
        {
          "duration": 0.1875,
          "durationTicks": 192,
          "midi": 79,
          "name": "G5",
          "ticks": 14016,
          "time": 13.6875,
          "velocity": 0.3937007874015748
        },
        {
          "duration": 0.1875,
          "durationTicks": 192,
          "midi": 76,
          "name": "E5",
          "ticks": 14208,
          "time": 13.875,
          "velocity": 0.3937007874015748
        },
        {
          "duration": 0.1875,
          "durationTicks": 192,
          "midi": 82,
          "name": "A#5",
          "ticks": 14400,
          "time": 14.0625,
          "velocity": 0.3937007874015748
        },
        {
          "duration": 0.1875,
          "durationTicks": 192,
          "midi": 79,
          "name": "G5",
          "ticks": 14592,
          "time": 14.25,
          "velocity": 0.3937007874015748
        },
        {
          "duration": 0.1875,
          "durationTicks": 192,
          "midi": 76,
          "name": "E5",
          "ticks": 14784,
          "time": 14.4375,
          "velocity": 0.3937007874015748
        },
        {
          "duration": 0.1875,
          "durationTicks": 192,
          "midi": 84,
          "name": "C6",
          "ticks": 14976,
          "time": 14.625,
          "velocity": 0.3937007874015748
        },
        {
          "duration": 0.1875,
          "durationTicks": 192,
          "midi": 82,
          "name": "A#5",
          "ticks": 15168,
          "time": 14.8125,
          "velocity": 0.3937007874015748
        },
        {
          "duration": 0.1875,
          "durationTicks": 192,
          "midi": 83,
          "name": "B5",
          "ticks": 15360,
          "time": 15,
          "velocity": 0.3937007874015748
        },
        {
          "duration": 0.1875,
          "durationTicks": 192,
          "midi": 79,
          "name": "G5",
          "ticks": 15552,
          "time": 15.1875,
          "velocity": 0.3937007874015748
        },
        {
          "duration": 0.1875,
          "durationTicks": 192,
          "midi": 76,
          "name": "E5",
          "ticks": 15744,
          "time": 15.375,
          "velocity": 0.3937007874015748
        },
        {
          "duration": 0.1875,
          "durationTicks": 192,
          "midi": 82,
          "name": "A#5",
          "ticks": 15936,
          "time": 15.5625,
          "velocity": 0.3937007874015748
        },
        {
          "duration": 0.1875,
          "durationTicks": 192,
          "midi": 79,
          "name": "G5",
          "ticks": 16128,
          "time": 15.75,
          "velocity": 0.3937007874015748
        },
        {
          "duration": 0.1875,
          "durationTicks": 192,
          "midi": 76,
          "name": "E5",
          "ticks": 16320,
          "time": 15.9375,
          "velocity": 0.3937007874015748
        },
        {
          "duration": 0.1875,
          "durationTicks": 192,
          "midi": 82,
          "name": "A#5",
          "ticks": 16512,
          "time": 16.125,
          "velocity": 0.3937007874015748
        },
        {
          "duration": 0.1875,
          "durationTicks": 192,
          "midi": 79,
          "name": "G5",
          "ticks": 16704,
          "time": 16.3125,
          "velocity": 0.3937007874015748
        },
        {
          "duration": 0.1875,
          "durationTicks": 192,
          "midi": 83,
          "name": "B5",
          "ticks": 16896,
          "time": 16.5,
          "velocity": 0.3937007874015748
        },
        {
          "duration": 0.1875,
          "durationTicks": 192,
          "midi": 79,
          "name": "G5",
          "ticks": 17088,
          "time": 16.6875,
          "velocity": 0.3937007874015748
        },
        {
          "duration": 0.1875,
          "durationTicks": 192,
          "midi": 76,
          "name": "E5",
          "ticks": 17280,
          "time": 16.875,
          "velocity": 0.3937007874015748
        },
        {
          "duration": 0.9375,
          "durationTicks": 960,
          "midi": 72,
          "name": "C5",
          "ticks": 17472,
          "time": 17.0625,
          "velocity": 0.3937007874015748
        },
        {
          "duration": 0.1875,
          "durationTicks": 192,
          "midi": 83,
          "name": "B5",
          "ticks": 18432,
          "time": 18,
          "velocity": 0.3937007874015748
        },
        {
          "duration": 0.1875,
          "durationTicks": 192,
          "midi": 79,
          "name": "G5",
          "ticks": 18624,
          "time": 18.1875,
          "velocity": 0.3937007874015748
        },
        {
          "duration": 0.1875,
          "durationTicks": 192,
          "midi": 76,
          "name": "E5",
          "ticks": 18816,
          "time": 18.375,
          "velocity": 0.3937007874015748
        },
        {
          "duration": 0.1875,
          "durationTicks": 192,
          "midi": 82,
          "name": "A#5",
          "ticks": 19008,
          "time": 18.5625,
          "velocity": 0.3937007874015748
        },
        {
          "duration": 0.1875,
          "durationTicks": 192,
          "midi": 79,
          "name": "G5",
          "ticks": 19200,
          "time": 18.75,
          "velocity": 0.3937007874015748
        },
        {
          "duration": 0.1875,
          "durationTicks": 192,
          "midi": 76,
          "name": "E5",
          "ticks": 19392,
          "time": 18.9375,
          "velocity": 0.3937007874015748
        },
        {
          "duration": 0.1875,
          "durationTicks": 192,
          "midi": 82,
          "name": "A#5",
          "ticks": 19584,
          "time": 19.125,
          "velocity": 0.3937007874015748
        },
        {
          "duration": 0.1875,
          "durationTicks": 192,
          "midi": 79,
          "name": "G5",
          "ticks": 19776,
          "time": 19.3125,
          "velocity": 0.3937007874015748
        },
        {
          "duration": 0.1875,
          "durationTicks": 192,
          "midi": 83,
          "name": "B5",
          "ticks": 19968,
          "time": 19.5,
          "velocity": 0.3937007874015748
        },
        {
          "duration": 0.1875,
          "durationTicks": 192,
          "midi": 79,
          "name": "G5",
          "ticks": 20160,
          "time": 19.6875,
          "velocity": 0.3937007874015748
        },
        {
          "duration": 0.1875,
          "durationTicks": 192,
          "midi": 76,
          "name": "E5",
          "ticks": 20352,
          "time": 19.875,
          "velocity": 0.3937007874015748
        },
        {
          "duration": 0.1875,
          "durationTicks": 192,
          "midi": 82,
          "name": "A#5",
          "ticks": 20544,
          "time": 20.0625,
          "velocity": 0.3937007874015748
        },
        {
          "duration": 0.1875,
          "durationTicks": 192,
          "midi": 79,
          "name": "G5",
          "ticks": 20736,
          "time": 20.25,
          "velocity": 0.3937007874015748
        },
        {
          "duration": 0.1875,
          "durationTicks": 192,
          "midi": 76,
          "name": "E5",
          "ticks": 20928,
          "time": 20.4375,
          "velocity": 0.3937007874015748
        },
        {
          "duration": 0.1875,
          "durationTicks": 192,
          "midi": 84,
          "name": "C6",
          "ticks": 21120,
          "time": 20.625,
          "velocity": 0.3937007874015748
        },
        {
          "duration": 0.1875,
          "durationTicks": 192,
          "midi": 82,
          "name": "A#5",
          "ticks": 21312,
          "time": 20.8125,
          "velocity": 0.3937007874015748
        },
        {
          "duration": 0.1875,
          "durationTicks": 192,
          "midi": 83,
          "name": "B5",
          "ticks": 21504,
          "time": 21,
          "velocity": 0.3937007874015748
        },
        {
          "duration": 0.1875,
          "durationTicks": 192,
          "midi": 79,
          "name": "G5",
          "ticks": 21696,
          "time": 21.1875,
          "velocity": 0.3937007874015748
        },
        {
          "duration": 0.1875,
          "durationTicks": 192,
          "midi": 76,
          "name": "E5",
          "ticks": 21888,
          "time": 21.375,
          "velocity": 0.3937007874015748
        },
        {
          "duration": 0.1875,
          "durationTicks": 192,
          "midi": 82,
          "name": "A#5",
          "ticks": 22080,
          "time": 21.5625,
          "velocity": 0.3937007874015748
        },
        {
          "duration": 0.1875,
          "durationTicks": 192,
          "midi": 79,
          "name": "G5",
          "ticks": 22272,
          "time": 21.75,
          "velocity": 0.3937007874015748
        },
        {
          "duration": 0.1875,
          "durationTicks": 192,
          "midi": 76,
          "name": "E5",
          "ticks": 22464,
          "time": 21.9375,
          "velocity": 0.3937007874015748
        },
        {
          "duration": 0.1875,
          "durationTicks": 192,
          "midi": 84,
          "name": "C6",
          "ticks": 22656,
          "time": 22.125,
          "velocity": 0.3937007874015748
        },
        {
          "duration": 0.1875,
          "durationTicks": 192,
          "midi": 82,
          "name": "A#5",
          "ticks": 22848,
          "time": 22.3125,
          "velocity": 0.3937007874015748
        },
        {
          "duration": 0.09375,
          "durationTicks": 96,
          "midi": 64,
          "name": "E4",
          "ticks": 30720,
          "time": 30,
          "velocity": 0.3937007874015748
        },
        {
          "duration": 0.09375,
          "durationTicks": 96,
          "midi": 76,
          "name": "E5",
          "ticks": 30720,
          "time": 30,
          "velocity": 0.3937007874015748
        },
        {
          "duration": 0.09375,
          "durationTicks": 96,
          "midi": 67,
          "name": "G4",
          "ticks": 30912,
          "time": 30.1875,
          "velocity": 0.3937007874015748
        },
        {
          "duration": 0.09375,
          "durationTicks": 96,
          "midi": 79,
          "name": "G5",
          "ticks": 30912,
          "time": 30.1875,
          "velocity": 0.3937007874015748
        },
        {
          "duration": 0.09375,
          "durationTicks": 96,
          "midi": 83,
          "name": "B5",
          "ticks": 31104,
          "time": 30.375,
          "velocity": 0.3937007874015748
        },
        {
          "duration": 0.09375,
          "durationTicks": 96,
          "midi": 71,
          "name": "B4",
          "ticks": 31104,
          "time": 30.375,
          "velocity": 0.3937007874015748
        },
        {
          "duration": 0.09375,
          "durationTicks": 96,
          "midi": 76,
          "name": "E5",
          "ticks": 31296,
          "time": 30.5625,
          "velocity": 0.3937007874015748
        },
        {
          "duration": 0.09375,
          "durationTicks": 96,
          "midi": 88,
          "name": "E6",
          "ticks": 31296,
          "time": 30.5625,
          "velocity": 0.3937007874015748
        },
        {
          "duration": 0.09375,
          "durationTicks": 96,
          "midi": 75,
          "name": "D#5",
          "ticks": 31488,
          "time": 30.75,
          "velocity": 0.3937007874015748
        },
        {
          "duration": 0.09375,
          "durationTicks": 96,
          "midi": 87,
          "name": "D#6",
          "ticks": 31488,
          "time": 30.75,
          "velocity": 0.3937007874015748
        },
        {
          "duration": 0.1875,
          "durationTicks": 192,
          "midi": 83,
          "name": "B5",
          "ticks": 31776,
          "time": 31.03125,
          "velocity": 0.3937007874015748
        },
        {
          "duration": 0.1875,
          "durationTicks": 192,
          "midi": 71,
          "name": "B4",
          "ticks": 31776,
          "time": 31.03125,
          "velocity": 0.3937007874015748
        },
        {
          "duration": 0.1875,
          "durationTicks": 192,
          "midi": 75,
          "name": "D#5",
          "ticks": 32064,
          "time": 31.3125,
          "velocity": 0.3937007874015748
        },
        {
          "duration": 0.1875,
          "durationTicks": 192,
          "midi": 87,
          "name": "D#6",
          "ticks": 32064,
          "time": 31.3125,
          "velocity": 0.3937007874015748
        },
        {
          "duration": 0.1875,
          "durationTicks": 192,
          "midi": 74,
          "name": "D5",
          "ticks": 32256,
          "time": 31.5,
          "velocity": 0.3937007874015748
        },
        {
          "duration": 0.1875,
          "durationTicks": 192,
          "midi": 86,
          "name": "D6",
          "ticks": 32256,
          "time": 31.5,
          "velocity": 0.3937007874015748
        },
        {
          "duration": 0.1875,
          "durationTicks": 192,
          "midi": 71,
          "name": "B4",
          "ticks": 32544,
          "time": 31.78125,
          "velocity": 0.3937007874015748
        },
        {
          "duration": 0.1875,
          "durationTicks": 192,
          "midi": 83,
          "name": "B5",
          "ticks": 32544,
          "time": 31.78125,
          "velocity": 0.3937007874015748
        },
        {
          "duration": 0.1875,
          "durationTicks": 192,
          "midi": 74,
          "name": "D5",
          "ticks": 32832,
          "time": 32.0625,
          "velocity": 0.3937007874015748
        },
        {
          "duration": 0.1875,
          "durationTicks": 192,
          "midi": 86,
          "name": "D6",
          "ticks": 32832,
          "time": 32.0625,
          "velocity": 0.3937007874015748
        },
        {
          "duration": 0.1875,
          "durationTicks": 192,
          "midi": 73,
          "name": "C#5",
          "ticks": 33024,
          "time": 32.25,
          "velocity": 0.3937007874015748
        },
        {
          "duration": 0.1875,
          "durationTicks": 192,
          "midi": 85,
          "name": "C#6",
          "ticks": 33024,
          "time": 32.25,
          "velocity": 0.3937007874015748
        },
        {
          "duration": 0.1875,
          "durationTicks": 192,
          "midi": 82,
          "name": "A#5",
          "ticks": 33312,
          "time": 32.53125,
          "velocity": 0.3937007874015748
        },
        {
          "duration": 0.1875,
          "durationTicks": 192,
          "midi": 70,
          "name": "A#4",
          "ticks": 33312,
          "time": 32.53125,
          "velocity": 0.3937007874015748
        },
        {
          "duration": 0.1875,
          "durationTicks": 192,
          "midi": 79,
          "name": "G5",
          "ticks": 33600,
          "time": 32.8125,
          "velocity": 0.3937007874015748
        },
        {
          "duration": 0.1875,
          "durationTicks": 192,
          "midi": 67,
          "name": "G4",
          "ticks": 33600,
          "time": 32.8125,
          "velocity": 0.3937007874015748
        },
        {
          "duration": 0.09375,
          "durationTicks": 96,
          "midi": 76,
          "name": "E5",
          "ticks": 36864,
          "time": 36,
          "velocity": 0.3937007874015748
        },
        {
          "duration": 0.09375,
          "durationTicks": 96,
          "midi": 64,
          "name": "E4",
          "ticks": 36864,
          "time": 36,
          "velocity": 0.3937007874015748
        },
        {
          "duration": 0.09375,
          "durationTicks": 96,
          "midi": 67,
          "name": "G4",
          "ticks": 37056,
          "time": 36.1875,
          "velocity": 0.3937007874015748
        },
        {
          "duration": 0.09375,
          "durationTicks": 96,
          "midi": 79,
          "name": "G5",
          "ticks": 37056,
          "time": 36.1875,
          "velocity": 0.3937007874015748
        },
        {
          "duration": 0.09375,
          "durationTicks": 96,
          "midi": 83,
          "name": "B5",
          "ticks": 37248,
          "time": 36.375,
          "velocity": 0.3937007874015748
        },
        {
          "duration": 0.09375,
          "durationTicks": 96,
          "midi": 71,
          "name": "B4",
          "ticks": 37248,
          "time": 36.375,
          "velocity": 0.3937007874015748
        },
        {
          "duration": 0.09375,
          "durationTicks": 96,
          "midi": 76,
          "name": "E5",
          "ticks": 37440,
          "time": 36.5625,
          "velocity": 0.3937007874015748
        },
        {
          "duration": 0.09375,
          "durationTicks": 96,
          "midi": 88,
          "name": "E6",
          "ticks": 37440,
          "time": 36.5625,
          "velocity": 0.3937007874015748
        },
        {
          "duration": 0.09375,
          "durationTicks": 96,
          "midi": 87,
          "name": "D#6",
          "ticks": 37632,
          "time": 36.75,
          "velocity": 0.3937007874015748
        },
        {
          "duration": 0.09375,
          "durationTicks": 96,
          "midi": 75,
          "name": "D#5",
          "ticks": 37632,
          "time": 36.75,
          "velocity": 0.3937007874015748
        },
        {
          "duration": 0.1875,
          "durationTicks": 192,
          "midi": 71,
          "name": "B4",
          "ticks": 37920,
          "time": 37.03125,
          "velocity": 0.3937007874015748
        },
        {
          "duration": 0.1875,
          "durationTicks": 192,
          "midi": 83,
          "name": "B5",
          "ticks": 37920,
          "time": 37.03125,
          "velocity": 0.3937007874015748
        },
        {
          "duration": 0.1875,
          "durationTicks": 192,
          "midi": 87,
          "name": "D#6",
          "ticks": 38208,
          "time": 37.3125,
          "velocity": 0.3937007874015748
        },
        {
          "duration": 0.1875,
          "durationTicks": 192,
          "midi": 75,
          "name": "D#5",
          "ticks": 38208,
          "time": 37.3125,
          "velocity": 0.3937007874015748
        },
        {
          "duration": 0.1875,
          "durationTicks": 192,
          "midi": 74,
          "name": "D5",
          "ticks": 38400,
          "time": 37.5,
          "velocity": 0.3937007874015748
        },
        {
          "duration": 0.1875,
          "durationTicks": 192,
          "midi": 86,
          "name": "D6",
          "ticks": 38400,
          "time": 37.5,
          "velocity": 0.3937007874015748
        },
        {
          "duration": 0.1875,
          "durationTicks": 192,
          "midi": 83,
          "name": "B5",
          "ticks": 38688,
          "time": 37.78125,
          "velocity": 0.3937007874015748
        },
        {
          "duration": 0.1875,
          "durationTicks": 192,
          "midi": 71,
          "name": "B4",
          "ticks": 38688,
          "time": 37.78125,
          "velocity": 0.3937007874015748
        },
        {
          "duration": 0.1875,
          "durationTicks": 192,
          "midi": 86,
          "name": "D6",
          "ticks": 38976,
          "time": 38.0625,
          "velocity": 0.3937007874015748
        },
        {
          "duration": 0.1875,
          "durationTicks": 192,
          "midi": 74,
          "name": "D5",
          "ticks": 38976,
          "time": 38.0625,
          "velocity": 0.3937007874015748
        },
        {
          "duration": 0.1875,
          "durationTicks": 192,
          "midi": 73,
          "name": "C#5",
          "ticks": 39168,
          "time": 38.25,
          "velocity": 0.3937007874015748
        },
        {
          "duration": 0.1875,
          "durationTicks": 192,
          "midi": 85,
          "name": "C#6",
          "ticks": 39168,
          "time": 38.25,
          "velocity": 0.3937007874015748
        },
        {
          "duration": 0.1875,
          "durationTicks": 192,
          "midi": 94,
          "name": "A#6",
          "ticks": 39456,
          "time": 38.53125,
          "velocity": 0.3937007874015748
        },
        {
          "duration": 0.1875,
          "durationTicks": 192,
          "midi": 82,
          "name": "A#5",
          "ticks": 39456,
          "time": 38.53125,
          "velocity": 0.3937007874015748
        },
        {
          "duration": 0.1875,
          "durationTicks": 192,
          "midi": 91,
          "name": "G6",
          "ticks": 39744,
          "time": 38.8125,
          "velocity": 0.3937007874015748
        },
        {
          "duration": 0.1875,
          "durationTicks": 192,
          "midi": 79,
          "name": "G5",
          "ticks": 39744,
          "time": 38.8125,
          "velocity": 0.3937007874015748
        },
        {
          "duration": 0.09375,
          "durationTicks": 96,
          "midi": 64,
          "name": "E4",
          "ticks": 43008,
          "time": 42,
          "velocity": 0.3937007874015748
        },
        {
          "duration": 0.09375,
          "durationTicks": 96,
          "midi": 76,
          "name": "E5",
          "ticks": 43008,
          "time": 42,
          "velocity": 0.3937007874015748
        },
        {
          "duration": 0.09375,
          "durationTicks": 96,
          "midi": 67,
          "name": "G4",
          "ticks": 43200,
          "time": 42.1875,
          "velocity": 0.3937007874015748
        },
        {
          "duration": 0.09375,
          "durationTicks": 96,
          "midi": 79,
          "name": "G5",
          "ticks": 43200,
          "time": 42.1875,
          "velocity": 0.3937007874015748
        },
        {
          "duration": 0.09375,
          "durationTicks": 96,
          "midi": 83,
          "name": "B5",
          "ticks": 43392,
          "time": 42.375,
          "velocity": 0.3937007874015748
        },
        {
          "duration": 0.09375,
          "durationTicks": 96,
          "midi": 71,
          "name": "B4",
          "ticks": 43392,
          "time": 42.375,
          "velocity": 0.3937007874015748
        },
        {
          "duration": 0.09375,
          "durationTicks": 96,
          "midi": 88,
          "name": "E6",
          "ticks": 43584,
          "time": 42.5625,
          "velocity": 0.3937007874015748
        },
        {
          "duration": 0.09375,
          "durationTicks": 96,
          "midi": 76,
          "name": "E5",
          "ticks": 43584,
          "time": 42.5625,
          "velocity": 0.3937007874015748
        },
        {
          "duration": 0.09375,
          "durationTicks": 96,
          "midi": 87,
          "name": "D#6",
          "ticks": 43776,
          "time": 42.75,
          "velocity": 0.3937007874015748
        },
        {
          "duration": 0.09375,
          "durationTicks": 96,
          "midi": 75,
          "name": "D#5",
          "ticks": 43776,
          "time": 42.75,
          "velocity": 0.3937007874015748
        },
        {
          "duration": 0.1875,
          "durationTicks": 192,
          "midi": 83,
          "name": "B5",
          "ticks": 44064,
          "time": 43.03125,
          "velocity": 0.3937007874015748
        },
        {
          "duration": 0.1875,
          "durationTicks": 192,
          "midi": 71,
          "name": "B4",
          "ticks": 44064,
          "time": 43.03125,
          "velocity": 0.3937007874015748
        },
        {
          "duration": 0.1875,
          "durationTicks": 192,
          "midi": 87,
          "name": "D#6",
          "ticks": 44352,
          "time": 43.3125,
          "velocity": 0.3937007874015748
        },
        {
          "duration": 0.1875,
          "durationTicks": 192,
          "midi": 75,
          "name": "D#5",
          "ticks": 44352,
          "time": 43.3125,
          "velocity": 0.3937007874015748
        },
        {
          "duration": 0.1875,
          "durationTicks": 192,
          "midi": 74,
          "name": "D5",
          "ticks": 44544,
          "time": 43.5,
          "velocity": 0.3937007874015748
        },
        {
          "duration": 0.1875,
          "durationTicks": 192,
          "midi": 86,
          "name": "D6",
          "ticks": 44544,
          "time": 43.5,
          "velocity": 0.3937007874015748
        },
        {
          "duration": 0.1875,
          "durationTicks": 192,
          "midi": 83,
          "name": "B5",
          "ticks": 44832,
          "time": 43.78125,
          "velocity": 0.3937007874015748
        },
        {
          "duration": 0.1875,
          "durationTicks": 192,
          "midi": 71,
          "name": "B4",
          "ticks": 44832,
          "time": 43.78125,
          "velocity": 0.3937007874015748
        },
        {
          "duration": 0.1875,
          "durationTicks": 192,
          "midi": 74,
          "name": "D5",
          "ticks": 45120,
          "time": 44.0625,
          "velocity": 0.3937007874015748
        },
        {
          "duration": 0.1875,
          "durationTicks": 192,
          "midi": 86,
          "name": "D6",
          "ticks": 45120,
          "time": 44.0625,
          "velocity": 0.3937007874015748
        },
        {
          "duration": 0.1875,
          "durationTicks": 192,
          "midi": 73,
          "name": "C#5",
          "ticks": 45312,
          "time": 44.25,
          "velocity": 0.3937007874015748
        },
        {
          "duration": 0.1875,
          "durationTicks": 192,
          "midi": 85,
          "name": "C#6",
          "ticks": 45312,
          "time": 44.25,
          "velocity": 0.3937007874015748
        },
        {
          "duration": 0.1875,
          "durationTicks": 192,
          "midi": 94,
          "name": "A#6",
          "ticks": 45600,
          "time": 44.53125,
          "velocity": 0.3937007874015748
        },
        {
          "duration": 0.1875,
          "durationTicks": 192,
          "midi": 82,
          "name": "A#5",
          "ticks": 45600,
          "time": 44.53125,
          "velocity": 0.3937007874015748
        },
        {
          "duration": 0.1875,
          "durationTicks": 192,
          "midi": 91,
          "name": "G6",
          "ticks": 45888,
          "time": 44.8125,
          "velocity": 0.3937007874015748
        },
        {
          "duration": 0.1875,
          "durationTicks": 192,
          "midi": 79,
          "name": "G5",
          "ticks": 45888,
          "time": 44.8125,
          "velocity": 0.3937007874015748
        },
        {
          "duration": 0.09375,
          "durationTicks": 96,
          "midi": 64,
          "name": "E4",
          "ticks": 49152,
          "time": 48,
          "velocity": 0.3937007874015748
        },
        {
          "duration": 0.09375,
          "durationTicks": 96,
          "midi": 76,
          "name": "E5",
          "ticks": 49152,
          "time": 48,
          "velocity": 0.3937007874015748
        },
        {
          "duration": 0.09375,
          "durationTicks": 96,
          "midi": 67,
          "name": "G4",
          "ticks": 49344,
          "time": 48.1875,
          "velocity": 0.3937007874015748
        },
        {
          "duration": 0.09375,
          "durationTicks": 96,
          "midi": 79,
          "name": "G5",
          "ticks": 49344,
          "time": 48.1875,
          "velocity": 0.3937007874015748
        },
        {
          "duration": 0.09375,
          "durationTicks": 96,
          "midi": 83,
          "name": "B5",
          "ticks": 49536,
          "time": 48.375,
          "velocity": 0.3937007874015748
        },
        {
          "duration": 0.09375,
          "durationTicks": 96,
          "midi": 71,
          "name": "B4",
          "ticks": 49536,
          "time": 48.375,
          "velocity": 0.3937007874015748
        },
        {
          "duration": 0.09375,
          "durationTicks": 96,
          "midi": 76,
          "name": "E5",
          "ticks": 49728,
          "time": 48.5625,
          "velocity": 0.3937007874015748
        },
        {
          "duration": 0.09375,
          "durationTicks": 96,
          "midi": 88,
          "name": "E6",
          "ticks": 49728,
          "time": 48.5625,
          "velocity": 0.3937007874015748
        },
        {
          "duration": 0.09375,
          "durationTicks": 96,
          "midi": 75,
          "name": "D#5",
          "ticks": 49920,
          "time": 48.75,
          "velocity": 0.3937007874015748
        },
        {
          "duration": 0.09375,
          "durationTicks": 96,
          "midi": 87,
          "name": "D#6",
          "ticks": 49920,
          "time": 48.75,
          "velocity": 0.3937007874015748
        },
        {
          "duration": 0.1875,
          "durationTicks": 192,
          "midi": 71,
          "name": "B4",
          "ticks": 50208,
          "time": 49.03125,
          "velocity": 0.3937007874015748
        },
        {
          "duration": 0.1875,
          "durationTicks": 192,
          "midi": 83,
          "name": "B5",
          "ticks": 50208,
          "time": 49.03125,
          "velocity": 0.3937007874015748
        },
        {
          "duration": 0.1875,
          "durationTicks": 192,
          "midi": 87,
          "name": "D#6",
          "ticks": 50496,
          "time": 49.3125,
          "velocity": 0.3937007874015748
        },
        {
          "duration": 0.1875,
          "durationTicks": 192,
          "midi": 75,
          "name": "D#5",
          "ticks": 50496,
          "time": 49.3125,
          "velocity": 0.3937007874015748
        },
        {
          "duration": 0.1875,
          "durationTicks": 192,
          "midi": 86,
          "name": "D6",
          "ticks": 50688,
          "time": 49.5,
          "velocity": 0.3937007874015748
        },
        {
          "duration": 0.1875,
          "durationTicks": 192,
          "midi": 74,
          "name": "D5",
          "ticks": 50688,
          "time": 49.5,
          "velocity": 0.3937007874015748
        },
        {
          "duration": 0.1875,
          "durationTicks": 192,
          "midi": 83,
          "name": "B5",
          "ticks": 50976,
          "time": 49.78125,
          "velocity": 0.3937007874015748
        },
        {
          "duration": 0.1875,
          "durationTicks": 192,
          "midi": 71,
          "name": "B4",
          "ticks": 50976,
          "time": 49.78125,
          "velocity": 0.3937007874015748
        },
        {
          "duration": 0.1875,
          "durationTicks": 192,
          "midi": 74,
          "name": "D5",
          "ticks": 51264,
          "time": 50.0625,
          "velocity": 0.3937007874015748
        },
        {
          "duration": 0.1875,
          "durationTicks": 192,
          "midi": 86,
          "name": "D6",
          "ticks": 51264,
          "time": 50.0625,
          "velocity": 0.3937007874015748
        },
        {
          "duration": 0.1875,
          "durationTicks": 192,
          "midi": 73,
          "name": "C#5",
          "ticks": 51456,
          "time": 50.25,
          "velocity": 0.3937007874015748
        },
        {
          "duration": 0.1875,
          "durationTicks": 192,
          "midi": 85,
          "name": "C#6",
          "ticks": 51456,
          "time": 50.25,
          "velocity": 0.3937007874015748
        },
        {
          "duration": 0.1875,
          "durationTicks": 192,
          "midi": 94,
          "name": "A#6",
          "ticks": 51744,
          "time": 50.53125,
          "velocity": 0.3937007874015748
        },
        {
          "duration": 0.1875,
          "durationTicks": 192,
          "midi": 82,
          "name": "A#5",
          "ticks": 51744,
          "time": 50.53125,
          "velocity": 0.3937007874015748
        },
        {
          "duration": 0.1875,
          "durationTicks": 192,
          "midi": 79,
          "name": "G5",
          "ticks": 52032,
          "time": 50.8125,
          "velocity": 0.3937007874015748
        },
        {
          "duration": 0.1875,
          "durationTicks": 192,
          "midi": 91,
          "name": "G6",
          "ticks": 52032,
          "time": 50.8125,
          "velocity": 0.3937007874015748
        },
        {
          "duration": 0.09375,
          "durationTicks": 96,
          "midi": 64,
          "name": "E4",
          "ticks": 53760,
          "time": 52.5,
          "velocity": 0.3937007874015748
        },
        {
          "duration": 0.09375,
          "durationTicks": 96,
          "midi": 76,
          "name": "E5",
          "ticks": 53760,
          "time": 52.5,
          "velocity": 0.3937007874015748
        },
        {
          "duration": 0.09375,
          "durationTicks": 96,
          "midi": 76,
          "name": "E5",
          "ticks": 53760,
          "time": 52.5,
          "velocity": 0.3937007874015748
        },
        {
          "duration": 0.09375,
          "durationTicks": 96,
          "midi": 64,
          "name": "E4",
          "ticks": 53760,
          "time": 52.5,
          "velocity": 0.3937007874015748
        },
        {
          "duration": 0.09375,
          "durationTicks": 96,
          "midi": 62,
          "name": "D4",
          "ticks": 54048,
          "time": 52.78125,
          "velocity": 0.3937007874015748
        },
        {
          "duration": 0.09375,
          "durationTicks": 96,
          "midi": 74,
          "name": "D5",
          "ticks": 54048,
          "time": 52.78125,
          "velocity": 0.3937007874015748
        },
        {
          "duration": 0.09375,
          "durationTicks": 96,
          "midi": 74,
          "name": "D5",
          "ticks": 54048,
          "time": 52.78125,
          "velocity": 0.3937007874015748
        },
        {
          "duration": 0.09375,
          "durationTicks": 96,
          "midi": 62,
          "name": "D4",
          "ticks": 54048,
          "time": 52.78125,
          "velocity": 0.3937007874015748
        },
        {
          "duration": 0.09375,
          "durationTicks": 96,
          "midi": 72,
          "name": "C5",
          "ticks": 54336,
          "time": 53.0625,
          "velocity": 0.3937007874015748
        },
        {
          "duration": 0.09375,
          "durationTicks": 96,
          "midi": 60,
          "name": "C4",
          "ticks": 54336,
          "time": 53.0625,
          "velocity": 0.3937007874015748
        },
        {
          "duration": 0.09375,
          "durationTicks": 96,
          "midi": 60,
          "name": "C4",
          "ticks": 54336,
          "time": 53.0625,
          "velocity": 0.3937007874015748
        },
        {
          "duration": 0.09375,
          "durationTicks": 96,
          "midi": 72,
          "name": "C5",
          "ticks": 54336,
          "time": 53.0625,
          "velocity": 0.3937007874015748
        },
        {
          "duration": 0.125,
          "durationTicks": 128,
          "midi": 59,
          "name": "B3",
          "ticks": 54528,
          "time": 53.25,
          "velocity": 0.3937007874015748
        },
        {
          "duration": 0.125,
          "durationTicks": 128,
          "midi": 71,
          "name": "B4",
          "ticks": 54528,
          "time": 53.25,
          "velocity": 0.3937007874015748
        },
        {
          "duration": 0.125,
          "durationTicks": 128,
          "midi": 71,
          "name": "B4",
          "ticks": 54528,
          "time": 53.25,
          "velocity": 0.3937007874015748
        },
        {
          "duration": 0.125,
          "durationTicks": 128,
          "midi": 59,
          "name": "B3",
          "ticks": 54528,
          "time": 53.25,
          "velocity": 0.3937007874015748
        },
        {
          "duration": 0.125,
          "durationTicks": 128,
          "midi": 60,
          "name": "C4",
          "ticks": 54656,
          "time": 53.375,
          "velocity": 0.3937007874015748
        },
        {
          "duration": 0.125,
          "durationTicks": 128,
          "midi": 60,
          "name": "C4",
          "ticks": 54656,
          "time": 53.375,
          "velocity": 0.3937007874015748
        },
        {
          "duration": 0.125,
          "durationTicks": 128,
          "midi": 72,
          "name": "C5",
          "ticks": 54656,
          "time": 53.375,
          "velocity": 0.3937007874015748
        },
        {
          "duration": 0.125,
          "durationTicks": 128,
          "midi": 72,
          "name": "C5",
          "ticks": 54656,
          "time": 53.375,
          "velocity": 0.3937007874015748
        },
        {
          "duration": 0.125,
          "durationTicks": 128,
          "midi": 59,
          "name": "B3",
          "ticks": 54784,
          "time": 53.5,
          "velocity": 0.3937007874015748
        },
        {
          "duration": 0.125,
          "durationTicks": 128,
          "midi": 71,
          "name": "B4",
          "ticks": 54784,
          "time": 53.5,
          "velocity": 0.3937007874015748
        },
        {
          "duration": 0.125,
          "durationTicks": 128,
          "midi": 71,
          "name": "B4",
          "ticks": 54784,
          "time": 53.5,
          "velocity": 0.3937007874015748
        },
        {
          "duration": 0.125,
          "durationTicks": 128,
          "midi": 59,
          "name": "B3",
          "ticks": 54784,
          "time": 53.5,
          "velocity": 0.3937007874015748
        },
        {
          "duration": 0.125,
          "durationTicks": 128,
          "midi": 57,
          "name": "A3",
          "ticks": 54912,
          "time": 53.625,
          "velocity": 0.3937007874015748
        },
        {
          "duration": 0.125,
          "durationTicks": 128,
          "midi": 57,
          "name": "A3",
          "ticks": 54912,
          "time": 53.625,
          "velocity": 0.3937007874015748
        },
        {
          "duration": 0.125,
          "durationTicks": 128,
          "midi": 69,
          "name": "A4",
          "ticks": 54912,
          "time": 53.625,
          "velocity": 0.3937007874015748
        },
        {
          "duration": 0.125,
          "durationTicks": 128,
          "midi": 69,
          "name": "A4",
          "ticks": 54912,
          "time": 53.625,
          "velocity": 0.3937007874015748
        },
        {
          "duration": 0.125,
          "durationTicks": 128,
          "midi": 55,
          "name": "G3",
          "ticks": 55040,
          "time": 53.75,
          "velocity": 0.3937007874015748
        },
        {
          "duration": 0.125,
          "durationTicks": 128,
          "midi": 67,
          "name": "G4",
          "ticks": 55040,
          "time": 53.75,
          "velocity": 0.3937007874015748
        },
        {
          "duration": 0.125,
          "durationTicks": 128,
          "midi": 55,
          "name": "G3",
          "ticks": 55040,
          "time": 53.75,
          "velocity": 0.3937007874015748
        },
        {
          "duration": 0.125,
          "durationTicks": 128,
          "midi": 67,
          "name": "G4",
          "ticks": 55040,
          "time": 53.75,
          "velocity": 0.3937007874015748
        },
        {
          "duration": 0.125,
          "durationTicks": 128,
          "midi": 54,
          "name": "F#3",
          "ticks": 55168,
          "time": 53.875,
          "velocity": 0.3937007874015748
        },
        {
          "duration": 0.125,
          "durationTicks": 128,
          "midi": 54,
          "name": "F#3",
          "ticks": 55168,
          "time": 53.875,
          "velocity": 0.3937007874015748
        },
        {
          "duration": 0.125,
          "durationTicks": 128,
          "midi": 66,
          "name": "F#4",
          "ticks": 55168,
          "time": 53.875,
          "velocity": 0.3937007874015748
        },
        {
          "duration": 0.125,
          "durationTicks": 128,
          "midi": 66,
          "name": "F#4",
          "ticks": 55168,
          "time": 53.875,
          "velocity": 0.3937007874015748
        },
        {
          "duration": 0.09375,
          "durationTicks": 96,
          "midi": 64,
          "name": "E4",
          "ticks": 55296,
          "time": 54,
          "velocity": 0.3937007874015748
        },
        {
          "duration": 0.09375,
          "durationTicks": 96,
          "midi": 76,
          "name": "E5",
          "ticks": 55296,
          "time": 54,
          "velocity": 0.3937007874015748
        },
        {
          "duration": 0.09375,
          "durationTicks": 96,
          "midi": 67,
          "name": "G4",
          "ticks": 55488,
          "time": 54.1875,
          "velocity": 0.3937007874015748
        },
        {
          "duration": 0.09375,
          "durationTicks": 96,
          "midi": 79,
          "name": "G5",
          "ticks": 55488,
          "time": 54.1875,
          "velocity": 0.3937007874015748
        },
        {
          "duration": 0.09375,
          "durationTicks": 96,
          "midi": 83,
          "name": "B5",
          "ticks": 55680,
          "time": 54.375,
          "velocity": 0.3937007874015748
        },
        {
          "duration": 0.09375,
          "durationTicks": 96,
          "midi": 71,
          "name": "B4",
          "ticks": 55680,
          "time": 54.375,
          "velocity": 0.3937007874015748
        },
        {
          "duration": 0.0625,
          "durationTicks": 64,
          "midi": 82,
          "name": "A#5",
          "ticks": 55872,
          "time": 54.5625,
          "velocity": 0.3937007874015748
        },
        {
          "duration": 0.0625,
          "durationTicks": 64,
          "midi": 70,
          "name": "A#4",
          "ticks": 55872,
          "time": 54.5625,
          "velocity": 0.3937007874015748
        },
        {
          "duration": 0.0625,
          "durationTicks": 64,
          "midi": 70,
          "name": "A#4",
          "ticks": 55936,
          "time": 54.625,
          "velocity": 0.3937007874015748
        },
        {
          "duration": 0.0625,
          "durationTicks": 64,
          "midi": 82,
          "name": "A#5",
          "ticks": 55936,
          "time": 54.625,
          "velocity": 0.3937007874015748
        },
        {
          "duration": 0.0625,
          "durationTicks": 64,
          "midi": 70,
          "name": "A#4",
          "ticks": 56000,
          "time": 54.6875,
          "velocity": 0.3937007874015748
        },
        {
          "duration": 0.0625,
          "durationTicks": 64,
          "midi": 82,
          "name": "A#5",
          "ticks": 56000,
          "time": 54.6875,
          "velocity": 0.3937007874015748
        },
        {
          "duration": 0.0625,
          "durationTicks": 64,
          "midi": 82,
          "name": "A#5",
          "ticks": 56064,
          "time": 54.75,
          "velocity": 0.3937007874015748
        },
        {
          "duration": 0.0625,
          "durationTicks": 64,
          "midi": 70,
          "name": "A#4",
          "ticks": 56064,
          "time": 54.75,
          "velocity": 0.3937007874015748
        },
        {
          "duration": 0.0625,
          "durationTicks": 64,
          "midi": 70,
          "name": "A#4",
          "ticks": 56128,
          "time": 54.8125,
          "velocity": 0.3937007874015748
        },
        {
          "duration": 0.0625,
          "durationTicks": 64,
          "midi": 82,
          "name": "A#5",
          "ticks": 56128,
          "time": 54.8125,
          "velocity": 0.3937007874015748
        },
        {
          "duration": 0.09375,
          "durationTicks": 96,
          "midi": 83,
          "name": "B5",
          "ticks": 56256,
          "time": 54.9375,
          "velocity": 0.3937007874015748
        },
        {
          "duration": 0.09375,
          "durationTicks": 96,
          "midi": 71,
          "name": "B4",
          "ticks": 56256,
          "time": 54.9375,
          "velocity": 0.3937007874015748
        },
        {
          "duration": 0.09375,
          "durationTicks": 96,
          "midi": 79,
          "name": "G5",
          "ticks": 56448,
          "time": 55.125,
          "velocity": 0.3937007874015748
        },
        {
          "duration": 0.09375,
          "durationTicks": 96,
          "midi": 67,
          "name": "G4",
          "ticks": 56448,
          "time": 55.125,
          "velocity": 0.3937007874015748
        },
        {
          "duration": 0.09375,
          "durationTicks": 96,
          "midi": 64,
          "name": "E4",
          "ticks": 56640,
          "time": 55.3125,
          "velocity": 0.3937007874015748
        },
        {
          "duration": 0.09375,
          "durationTicks": 96,
          "midi": 76,
          "name": "E5",
          "ticks": 56640,
          "time": 55.3125,
          "velocity": 0.3937007874015748
        },
        {
          "duration": 0.09375,
          "durationTicks": 96,
          "midi": 60,
          "name": "C4",
          "ticks": 56832,
          "time": 55.5,
          "velocity": 0.3937007874015748
        },
        {
          "duration": 0.09375,
          "durationTicks": 96,
          "midi": 72,
          "name": "C5",
          "ticks": 56832,
          "time": 55.5,
          "velocity": 0.3937007874015748
        },
        {
          "duration": 0.09375,
          "durationTicks": 96,
          "midi": 71,
          "name": "B4",
          "ticks": 57024,
          "time": 55.6875,
          "velocity": 0.3937007874015748
        },
        {
          "duration": 0.09375,
          "durationTicks": 96,
          "midi": 59,
          "name": "B3",
          "ticks": 57024,
          "time": 55.6875,
          "velocity": 0.3937007874015748
        },
        {
          "duration": 0.09375,
          "durationTicks": 96,
          "midi": 72,
          "name": "C5",
          "ticks": 57216,
          "time": 55.875,
          "velocity": 0.3937007874015748
        },
        {
          "duration": 0.09375,
          "durationTicks": 96,
          "midi": 60,
          "name": "C4",
          "ticks": 57216,
          "time": 55.875,
          "velocity": 0.3937007874015748
        },
        {
          "duration": 0.09375,
          "durationTicks": 96,
          "midi": 61,
          "name": "C#4",
          "ticks": 57408,
          "time": 56.0625,
          "velocity": 0.3937007874015748
        },
        {
          "duration": 0.09375,
          "durationTicks": 96,
          "midi": 73,
          "name": "C#5",
          "ticks": 57408,
          "time": 56.0625,
          "velocity": 0.3937007874015748
        },
        {
          "duration": 0.09375,
          "durationTicks": 96,
          "midi": 62,
          "name": "D4",
          "ticks": 57600,
          "time": 56.25,
          "velocity": 0.3937007874015748
        },
        {
          "duration": 0.09375,
          "durationTicks": 96,
          "midi": 74,
          "name": "D5",
          "ticks": 57600,
          "time": 56.25,
          "velocity": 0.3937007874015748
        },
        {
          "duration": 0.09375,
          "durationTicks": 96,
          "midi": 75,
          "name": "D#5",
          "ticks": 57792,
          "time": 56.4375,
          "velocity": 0.3937007874015748
        },
        {
          "duration": 0.09375,
          "durationTicks": 96,
          "midi": 63,
          "name": "D#4",
          "ticks": 57792,
          "time": 56.4375,
          "velocity": 0.3937007874015748
        },
        {
          "duration": 0.09375,
          "durationTicks": 96,
          "midi": 64,
          "name": "E4",
          "ticks": 57984,
          "time": 56.625,
          "velocity": 0.3937007874015748
        },
        {
          "duration": 0.09375,
          "durationTicks": 96,
          "midi": 76,
          "name": "E5",
          "ticks": 57984,
          "time": 56.625,
          "velocity": 0.3937007874015748
        },
        {
          "duration": 0.09375,
          "durationTicks": 96,
          "midi": 66,
          "name": "F#4",
          "ticks": 58176,
          "time": 56.8125,
          "velocity": 0.3937007874015748
        },
        {
          "duration": 0.09375,
          "durationTicks": 96,
          "midi": 78,
          "name": "F#5",
          "ticks": 58176,
          "time": 56.8125,
          "velocity": 0.3937007874015748
        },
        {
          "duration": 0.09375,
          "durationTicks": 96,
          "midi": 79,
          "name": "G5",
          "ticks": 58368,
          "time": 57,
          "velocity": 0.3937007874015748
        },
        {
          "duration": 0.09375,
          "durationTicks": 96,
          "midi": 67,
          "name": "G4",
          "ticks": 58368,
          "time": 57,
          "velocity": 0.3937007874015748
        },
        {
          "duration": 0.09375,
          "durationTicks": 96,
          "midi": 66,
          "name": "F#4",
          "ticks": 58560,
          "time": 57.1875,
          "velocity": 0.3937007874015748
        },
        {
          "duration": 0.09375,
          "durationTicks": 96,
          "midi": 78,
          "name": "F#5",
          "ticks": 58560,
          "time": 57.1875,
          "velocity": 0.3937007874015748
        },
        {
          "duration": 0.09375,
          "durationTicks": 96,
          "midi": 67,
          "name": "G4",
          "ticks": 58752,
          "time": 57.375,
          "velocity": 0.3937007874015748
        },
        {
          "duration": 0.09375,
          "durationTicks": 96,
          "midi": 79,
          "name": "G5",
          "ticks": 58752,
          "time": 57.375,
          "velocity": 0.3937007874015748
        },
        {
          "duration": 0.09375,
          "durationTicks": 96,
          "midi": 81,
          "name": "A5",
          "ticks": 58944,
          "time": 57.5625,
          "velocity": 0.3937007874015748
        },
        {
          "duration": 0.09375,
          "durationTicks": 96,
          "midi": 69,
          "name": "A4",
          "ticks": 58944,
          "time": 57.5625,
          "velocity": 0.3937007874015748
        },
        {
          "duration": 0.09375,
          "durationTicks": 96,
          "midi": 67,
          "name": "G4",
          "ticks": 59136,
          "time": 57.75,
          "velocity": 0.3937007874015748
        },
        {
          "duration": 0.09375,
          "durationTicks": 96,
          "midi": 79,
          "name": "G5",
          "ticks": 59136,
          "time": 57.75,
          "velocity": 0.3937007874015748
        },
        {
          "duration": 0.09375,
          "durationTicks": 96,
          "midi": 66,
          "name": "F#4",
          "ticks": 59328,
          "time": 57.9375,
          "velocity": 0.3937007874015748
        },
        {
          "duration": 0.09375,
          "durationTicks": 96,
          "midi": 78,
          "name": "F#5",
          "ticks": 59328,
          "time": 57.9375,
          "velocity": 0.3937007874015748
        },
        {
          "duration": 0.09375,
          "durationTicks": 96,
          "midi": 67,
          "name": "G4",
          "ticks": 59520,
          "time": 58.125,
          "velocity": 0.3937007874015748
        },
        {
          "duration": 0.09375,
          "durationTicks": 96,
          "midi": 79,
          "name": "G5",
          "ticks": 59520,
          "time": 58.125,
          "velocity": 0.3937007874015748
        },
        {
          "duration": 0.09375,
          "durationTicks": 96,
          "midi": 69,
          "name": "A4",
          "ticks": 59712,
          "time": 58.3125,
          "velocity": 0.3937007874015748
        },
        {
          "duration": 0.09375,
          "durationTicks": 96,
          "midi": 81,
          "name": "A5",
          "ticks": 59712,
          "time": 58.3125,
          "velocity": 0.3937007874015748
        },
        {
          "duration": 0.09375,
          "durationTicks": 96,
          "midi": 83,
          "name": "B5",
          "ticks": 59904,
          "time": 58.5,
          "velocity": 0.3937007874015748
        },
        {
          "duration": 0.09375,
          "durationTicks": 96,
          "midi": 71,
          "name": "B4",
          "ticks": 59904,
          "time": 58.5,
          "velocity": 0.3937007874015748
        },
        {
          "duration": 0.09375,
          "durationTicks": 96,
          "midi": 82,
          "name": "A#5",
          "ticks": 60096,
          "time": 58.6875,
          "velocity": 0.3937007874015748
        },
        {
          "duration": 0.09375,
          "durationTicks": 96,
          "midi": 70,
          "name": "A#4",
          "ticks": 60096,
          "time": 58.6875,
          "velocity": 0.3937007874015748
        },
        {
          "duration": 0.09375,
          "durationTicks": 96,
          "midi": 83,
          "name": "B5",
          "ticks": 60288,
          "time": 58.875,
          "velocity": 0.3937007874015748
        },
        {
          "duration": 0.09375,
          "durationTicks": 96,
          "midi": 71,
          "name": "B4",
          "ticks": 60288,
          "time": 58.875,
          "velocity": 0.3937007874015748
        },
        {
          "duration": 0.09375,
          "durationTicks": 96,
          "midi": 84,
          "name": "C6",
          "ticks": 60480,
          "time": 59.0625,
          "velocity": 0.3937007874015748
        },
        {
          "duration": 0.09375,
          "durationTicks": 96,
          "midi": 72,
          "name": "C5",
          "ticks": 60480,
          "time": 59.0625,
          "velocity": 0.3937007874015748
        },
        {
          "duration": 0.09375,
          "durationTicks": 96,
          "midi": 71,
          "name": "B4",
          "ticks": 60672,
          "time": 59.25,
          "velocity": 0.3937007874015748
        },
        {
          "duration": 0.09375,
          "durationTicks": 96,
          "midi": 83,
          "name": "B5",
          "ticks": 60672,
          "time": 59.25,
          "velocity": 0.3937007874015748
        },
        {
          "duration": 0.09375,
          "durationTicks": 96,
          "midi": 69,
          "name": "A4",
          "ticks": 60864,
          "time": 59.4375,
          "velocity": 0.3937007874015748
        },
        {
          "duration": 0.09375,
          "durationTicks": 96,
          "midi": 81,
          "name": "A5",
          "ticks": 60864,
          "time": 59.4375,
          "velocity": 0.3937007874015748
        },
        {
          "duration": 0.09375,
          "durationTicks": 96,
          "midi": 67,
          "name": "G4",
          "ticks": 61056,
          "time": 59.625,
          "velocity": 0.3937007874015748
        },
        {
          "duration": 0.09375,
          "durationTicks": 96,
          "midi": 79,
          "name": "G5",
          "ticks": 61056,
          "time": 59.625,
          "velocity": 0.3937007874015748
        },
        {
          "duration": 0.09375,
          "durationTicks": 96,
          "midi": 66,
          "name": "F#4",
          "ticks": 61248,
          "time": 59.8125,
          "velocity": 0.3937007874015748
        },
        {
          "duration": 0.09375,
          "durationTicks": 96,
          "midi": 78,
          "name": "F#5",
          "ticks": 61248,
          "time": 59.8125,
          "velocity": 0.3937007874015748
        },
        {
          "duration": 0.09375,
          "durationTicks": 96,
          "midi": 76,
          "name": "E5",
          "ticks": 61440,
          "time": 60,
          "velocity": 0.3937007874015748
        },
        {
          "duration": 0.09375,
          "durationTicks": 96,
          "midi": 64,
          "name": "E4",
          "ticks": 61440,
          "time": 60,
          "velocity": 0.3937007874015748
        },
        {
          "duration": 0.09375,
          "durationTicks": 96,
          "midi": 79,
          "name": "G5",
          "ticks": 61632,
          "time": 60.1875,
          "velocity": 0.3937007874015748
        },
        {
          "duration": 0.09375,
          "durationTicks": 96,
          "midi": 67,
          "name": "G4",
          "ticks": 61632,
          "time": 60.1875,
          "velocity": 0.3937007874015748
        },
        {
          "duration": 0.09375,
          "durationTicks": 96,
          "midi": 83,
          "name": "B5",
          "ticks": 61824,
          "time": 60.375,
          "velocity": 0.3937007874015748
        },
        {
          "duration": 0.09375,
          "durationTicks": 96,
          "midi": 71,
          "name": "B4",
          "ticks": 61824,
          "time": 60.375,
          "velocity": 0.3937007874015748
        },
        {
          "duration": 0.0625,
          "durationTicks": 64,
          "midi": 70,
          "name": "A#4",
          "ticks": 62016,
          "time": 60.5625,
          "velocity": 0.3937007874015748
        },
        {
          "duration": 0.0625,
          "durationTicks": 64,
          "midi": 82,
          "name": "A#5",
          "ticks": 62016,
          "time": 60.5625,
          "velocity": 0.3937007874015748
        },
        {
          "duration": 0.0625,
          "durationTicks": 64,
          "midi": 82,
          "name": "A#5",
          "ticks": 62080,
          "time": 60.625,
          "velocity": 0.3937007874015748
        },
        {
          "duration": 0.0625,
          "durationTicks": 64,
          "midi": 70,
          "name": "A#4",
          "ticks": 62080,
          "time": 60.625,
          "velocity": 0.3937007874015748
        },
        {
          "duration": 0.0625,
          "durationTicks": 64,
          "midi": 70,
          "name": "A#4",
          "ticks": 62144,
          "time": 60.6875,
          "velocity": 0.3937007874015748
        },
        {
          "duration": 0.0625,
          "durationTicks": 64,
          "midi": 82,
          "name": "A#5",
          "ticks": 62144,
          "time": 60.6875,
          "velocity": 0.3937007874015748
        },
        {
          "duration": 0.0625,
          "durationTicks": 64,
          "midi": 70,
          "name": "A#4",
          "ticks": 62208,
          "time": 60.75,
          "velocity": 0.3937007874015748
        },
        {
          "duration": 0.0625,
          "durationTicks": 64,
          "midi": 82,
          "name": "A#5",
          "ticks": 62208,
          "time": 60.75,
          "velocity": 0.3937007874015748
        },
        {
          "duration": 0.0625,
          "durationTicks": 64,
          "midi": 82,
          "name": "A#5",
          "ticks": 62272,
          "time": 60.8125,
          "velocity": 0.3937007874015748
        },
        {
          "duration": 0.0625,
          "durationTicks": 64,
          "midi": 70,
          "name": "A#4",
          "ticks": 62272,
          "time": 60.8125,
          "velocity": 0.3937007874015748
        },
        {
          "duration": 0.09375,
          "durationTicks": 96,
          "midi": 71,
          "name": "B4",
          "ticks": 62400,
          "time": 60.9375,
          "velocity": 0.3937007874015748
        },
        {
          "duration": 0.09375,
          "durationTicks": 96,
          "midi": 83,
          "name": "B5",
          "ticks": 62400,
          "time": 60.9375,
          "velocity": 0.3937007874015748
        },
        {
          "duration": 0.09375,
          "durationTicks": 96,
          "midi": 67,
          "name": "G4",
          "ticks": 62592,
          "time": 61.125,
          "velocity": 0.3937007874015748
        },
        {
          "duration": 0.09375,
          "durationTicks": 96,
          "midi": 79,
          "name": "G5",
          "ticks": 62592,
          "time": 61.125,
          "velocity": 0.3937007874015748
        },
        {
          "duration": 0.09375,
          "durationTicks": 96,
          "midi": 76,
          "name": "E5",
          "ticks": 62784,
          "time": 61.3125,
          "velocity": 0.3937007874015748
        },
        {
          "duration": 0.09375,
          "durationTicks": 96,
          "midi": 64,
          "name": "E4",
          "ticks": 62784,
          "time": 61.3125,
          "velocity": 0.3937007874015748
        },
        {
          "duration": 0.09375,
          "durationTicks": 96,
          "midi": 72,
          "name": "C5",
          "ticks": 62976,
          "time": 61.5,
          "velocity": 0.3937007874015748
        },
        {
          "duration": 0.09375,
          "durationTicks": 96,
          "midi": 60,
          "name": "C4",
          "ticks": 62976,
          "time": 61.5,
          "velocity": 0.3937007874015748
        },
        {
          "duration": 0.09375,
          "durationTicks": 96,
          "midi": 59,
          "name": "B3",
          "ticks": 63168,
          "time": 61.6875,
          "velocity": 0.3937007874015748
        },
        {
          "duration": 0.09375,
          "durationTicks": 96,
          "midi": 71,
          "name": "B4",
          "ticks": 63168,
          "time": 61.6875,
          "velocity": 0.3937007874015748
        },
        {
          "duration": 0.09375,
          "durationTicks": 96,
          "midi": 72,
          "name": "C5",
          "ticks": 63360,
          "time": 61.875,
          "velocity": 0.3937007874015748
        },
        {
          "duration": 0.09375,
          "durationTicks": 96,
          "midi": 60,
          "name": "C4",
          "ticks": 63360,
          "time": 61.875,
          "velocity": 0.3937007874015748
        },
        {
          "duration": 0.09375,
          "durationTicks": 96,
          "midi": 73,
          "name": "C#5",
          "ticks": 63552,
          "time": 62.0625,
          "velocity": 0.3937007874015748
        },
        {
          "duration": 0.09375,
          "durationTicks": 96,
          "midi": 61,
          "name": "C#4",
          "ticks": 63552,
          "time": 62.0625,
          "velocity": 0.3937007874015748
        },
        {
          "duration": 0.09375,
          "durationTicks": 96,
          "midi": 62,
          "name": "D4",
          "ticks": 63744,
          "time": 62.25,
          "velocity": 0.3937007874015748
        },
        {
          "duration": 0.09375,
          "durationTicks": 96,
          "midi": 74,
          "name": "D5",
          "ticks": 63744,
          "time": 62.25,
          "velocity": 0.3937007874015748
        },
        {
          "duration": 0.09375,
          "durationTicks": 96,
          "midi": 75,
          "name": "D#5",
          "ticks": 63936,
          "time": 62.4375,
          "velocity": 0.3937007874015748
        },
        {
          "duration": 0.09375,
          "durationTicks": 96,
          "midi": 63,
          "name": "D#4",
          "ticks": 63936,
          "time": 62.4375,
          "velocity": 0.3937007874015748
        },
        {
          "duration": 0.09375,
          "durationTicks": 96,
          "midi": 64,
          "name": "E4",
          "ticks": 64128,
          "time": 62.625,
          "velocity": 0.3937007874015748
        },
        {
          "duration": 0.09375,
          "durationTicks": 96,
          "midi": 76,
          "name": "E5",
          "ticks": 64128,
          "time": 62.625,
          "velocity": 0.3937007874015748
        },
        {
          "duration": 0.09375,
          "durationTicks": 96,
          "midi": 66,
          "name": "F#4",
          "ticks": 64320,
          "time": 62.8125,
          "velocity": 0.3937007874015748
        },
        {
          "duration": 0.09375,
          "durationTicks": 96,
          "midi": 78,
          "name": "F#5",
          "ticks": 64320,
          "time": 62.8125,
          "velocity": 0.3937007874015748
        },
        {
          "duration": 0.09375,
          "durationTicks": 96,
          "midi": 79,
          "name": "G5",
          "ticks": 64512,
          "time": 63,
          "velocity": 0.3937007874015748
        },
        {
          "duration": 0.09375,
          "durationTicks": 96,
          "midi": 67,
          "name": "G4",
          "ticks": 64512,
          "time": 63,
          "velocity": 0.3937007874015748
        },
        {
          "duration": 0.09375,
          "durationTicks": 96,
          "midi": 66,
          "name": "F#4",
          "ticks": 64704,
          "time": 63.1875,
          "velocity": 0.3937007874015748
        },
        {
          "duration": 0.09375,
          "durationTicks": 96,
          "midi": 78,
          "name": "F#5",
          "ticks": 64704,
          "time": 63.1875,
          "velocity": 0.3937007874015748
        },
        {
          "duration": 0.09375,
          "durationTicks": 96,
          "midi": 67,
          "name": "G4",
          "ticks": 64896,
          "time": 63.375,
          "velocity": 0.3937007874015748
        },
        {
          "duration": 0.09375,
          "durationTicks": 96,
          "midi": 79,
          "name": "G5",
          "ticks": 64896,
          "time": 63.375,
          "velocity": 0.3937007874015748
        },
        {
          "duration": 0.09375,
          "durationTicks": 96,
          "midi": 81,
          "name": "A5",
          "ticks": 65088,
          "time": 63.5625,
          "velocity": 0.3937007874015748
        },
        {
          "duration": 0.09375,
          "durationTicks": 96,
          "midi": 69,
          "name": "A4",
          "ticks": 65088,
          "time": 63.5625,
          "velocity": 0.3937007874015748
        },
        {
          "duration": 0.09375,
          "durationTicks": 96,
          "midi": 79,
          "name": "G5",
          "ticks": 65280,
          "time": 63.75,
          "velocity": 0.3937007874015748
        },
        {
          "duration": 0.09375,
          "durationTicks": 96,
          "midi": 67,
          "name": "G4",
          "ticks": 65280,
          "time": 63.75,
          "velocity": 0.3937007874015748
        },
        {
          "duration": 0.09375,
          "durationTicks": 96,
          "midi": 66,
          "name": "F#4",
          "ticks": 65472,
          "time": 63.9375,
          "velocity": 0.3937007874015748
        },
        {
          "duration": 0.09375,
          "durationTicks": 96,
          "midi": 78,
          "name": "F#5",
          "ticks": 65472,
          "time": 63.9375,
          "velocity": 0.3937007874015748
        },
        {
          "duration": 0.09375,
          "durationTicks": 96,
          "midi": 67,
          "name": "G4",
          "ticks": 65664,
          "time": 64.125,
          "velocity": 0.3937007874015748
        },
        {
          "duration": 0.09375,
          "durationTicks": 96,
          "midi": 79,
          "name": "G5",
          "ticks": 65664,
          "time": 64.125,
          "velocity": 0.3937007874015748
        },
        {
          "duration": 0.09375,
          "durationTicks": 96,
          "midi": 69,
          "name": "A4",
          "ticks": 65856,
          "time": 64.3125,
          "velocity": 0.3937007874015748
        },
        {
          "duration": 0.09375,
          "durationTicks": 96,
          "midi": 81,
          "name": "A5",
          "ticks": 65856,
          "time": 64.3125,
          "velocity": 0.3937007874015748
        },
        {
          "duration": 0.09375,
          "durationTicks": 96,
          "midi": 71,
          "name": "B4",
          "ticks": 66048,
          "time": 64.5,
          "velocity": 0.3937007874015748
        },
        {
          "duration": 0.09375,
          "durationTicks": 96,
          "midi": 83,
          "name": "B5",
          "ticks": 66048,
          "time": 64.5,
          "velocity": 0.3937007874015748
        },
        {
          "duration": 0.09375,
          "durationTicks": 96,
          "midi": 82,
          "name": "A#5",
          "ticks": 66240,
          "time": 64.6875,
          "velocity": 0.3937007874015748
        },
        {
          "duration": 0.09375,
          "durationTicks": 96,
          "midi": 70,
          "name": "A#4",
          "ticks": 66240,
          "time": 64.6875,
          "velocity": 0.3937007874015748
        },
        {
          "duration": 0.09375,
          "durationTicks": 96,
          "midi": 83,
          "name": "B5",
          "ticks": 66432,
          "time": 64.875,
          "velocity": 0.3937007874015748
        },
        {
          "duration": 0.09375,
          "durationTicks": 96,
          "midi": 71,
          "name": "B4",
          "ticks": 66432,
          "time": 64.875,
          "velocity": 0.3937007874015748
        },
        {
          "duration": 0.09375,
          "durationTicks": 96,
          "midi": 76,
          "name": "E5",
          "ticks": 66624,
          "time": 65.0625,
          "velocity": 0.3937007874015748
        },
        {
          "duration": 0.09375,
          "durationTicks": 96,
          "midi": 88,
          "name": "E6",
          "ticks": 66624,
          "time": 65.0625,
          "velocity": 0.3937007874015748
        },
        {
          "duration": 0.09375,
          "durationTicks": 96,
          "midi": 87,
          "name": "D#6",
          "ticks": 66816,
          "time": 65.25,
          "velocity": 0.3937007874015748
        },
        {
          "duration": 0.09375,
          "durationTicks": 96,
          "midi": 75,
          "name": "D#5",
          "ticks": 66816,
          "time": 65.25,
          "velocity": 0.3937007874015748
        },
        {
          "duration": 0.09375,
          "durationTicks": 96,
          "midi": 84,
          "name": "C6",
          "ticks": 67008,
          "time": 65.4375,
          "velocity": 0.3937007874015748
        },
        {
          "duration": 0.09375,
          "durationTicks": 96,
          "midi": 72,
          "name": "C5",
          "ticks": 67008,
          "time": 65.4375,
          "velocity": 0.3937007874015748
        },
        {
          "duration": 0.09375,
          "durationTicks": 96,
          "midi": 71,
          "name": "B4",
          "ticks": 67200,
          "time": 65.625,
          "velocity": 0.3937007874015748
        },
        {
          "duration": 0.09375,
          "durationTicks": 96,
          "midi": 83,
          "name": "B5",
          "ticks": 67200,
          "time": 65.625,
          "velocity": 0.3937007874015748
        },
        {
          "duration": 0.09375,
          "durationTicks": 96,
          "midi": 81,
          "name": "A5",
          "ticks": 67392,
          "time": 65.8125,
          "velocity": 0.3937007874015748
        },
        {
          "duration": 0.09375,
          "durationTicks": 96,
          "midi": 69,
          "name": "A4",
          "ticks": 67392,
          "time": 65.8125,
          "velocity": 0.3937007874015748
        },
        {
          "duration": 0.09375,
          "durationTicks": 96,
          "midi": 71,
          "name": "B4",
          "ticks": 67584,
          "time": 66,
          "velocity": 0.3937007874015748
        },
        {
          "duration": 0.09375,
          "durationTicks": 96,
          "midi": 59,
          "name": "B3",
          "ticks": 67584,
          "time": 66,
          "velocity": 0.3937007874015748
        },
        {
          "duration": 0.09375,
          "durationTicks": 96,
          "midi": 71,
          "name": "B4",
          "ticks": 67776,
          "time": 66.1875,
          "velocity": 0.3937007874015748
        },
        {
          "duration": 0.09375,
          "durationTicks": 96,
          "midi": 59,
          "name": "B3",
          "ticks": 67776,
          "time": 66.1875,
          "velocity": 0.3937007874015748
        },
        {
          "duration": 0.09375,
          "durationTicks": 96,
          "midi": 60,
          "name": "C4",
          "ticks": 68160,
          "time": 66.5625,
          "velocity": 0.3937007874015748
        },
        {
          "duration": 0.09375,
          "durationTicks": 96,
          "midi": 72,
          "name": "C5",
          "ticks": 68160,
          "time": 66.5625,
          "velocity": 0.3937007874015748
        },
        {
          "duration": 0.09375,
          "durationTicks": 96,
          "midi": 72,
          "name": "C5",
          "ticks": 68352,
          "time": 66.75,
          "velocity": 0.3937007874015748
        },
        {
          "duration": 0.09375,
          "durationTicks": 96,
          "midi": 60,
          "name": "C4",
          "ticks": 68352,
          "time": 66.75,
          "velocity": 0.3937007874015748
        },
        {
          "duration": 0.09375,
          "durationTicks": 96,
          "midi": 71,
          "name": "B4",
          "ticks": 68736,
          "time": 67.125,
          "velocity": 0.3937007874015748
        },
        {
          "duration": 0.09375,
          "durationTicks": 96,
          "midi": 59,
          "name": "B3",
          "ticks": 68736,
          "time": 67.125,
          "velocity": 0.3937007874015748
        },
        {
          "duration": 0.09375,
          "durationTicks": 96,
          "midi": 71,
          "name": "B4",
          "ticks": 68928,
          "time": 67.3125,
          "velocity": 0.3937007874015748
        },
        {
          "duration": 0.09375,
          "durationTicks": 96,
          "midi": 59,
          "name": "B3",
          "ticks": 68928,
          "time": 67.3125,
          "velocity": 0.3937007874015748
        },
        {
          "duration": 0.09375,
          "durationTicks": 96,
          "midi": 54,
          "name": "F#3",
          "ticks": 69312,
          "time": 67.6875,
          "velocity": 0.3937007874015748
        },
        {
          "duration": 0.09375,
          "durationTicks": 96,
          "midi": 66,
          "name": "F#4",
          "ticks": 69312,
          "time": 67.6875,
          "velocity": 0.3937007874015748
        },
        {
          "duration": 0.09375,
          "durationTicks": 96,
          "midi": 66,
          "name": "F#4",
          "ticks": 69504,
          "time": 67.875,
          "velocity": 0.3937007874015748
        },
        {
          "duration": 0.09375,
          "durationTicks": 96,
          "midi": 54,
          "name": "F#3",
          "ticks": 69504,
          "time": 67.875,
          "velocity": 0.3937007874015748
        },
        {
          "duration": 0.09375,
          "durationTicks": 96,
          "midi": 71,
          "name": "B4",
          "ticks": 70656,
          "time": 69,
          "velocity": 0.3937007874015748
        },
        {
          "duration": 0.09375,
          "durationTicks": 96,
          "midi": 59,
          "name": "B3",
          "ticks": 70656,
          "time": 69,
          "velocity": 0.3937007874015748
        },
        {
          "duration": 0.09375,
          "durationTicks": 96,
          "midi": 59,
          "name": "B3",
          "ticks": 70848,
          "time": 69.1875,
          "velocity": 0.3937007874015748
        },
        {
          "duration": 0.09375,
          "durationTicks": 96,
          "midi": 71,
          "name": "B4",
          "ticks": 70848,
          "time": 69.1875,
          "velocity": 0.3937007874015748
        },
        {
          "duration": 0.09375,
          "durationTicks": 96,
          "midi": 72,
          "name": "C5",
          "ticks": 71232,
          "time": 69.5625,
          "velocity": 0.3937007874015748
        },
        {
          "duration": 0.09375,
          "durationTicks": 96,
          "midi": 60,
          "name": "C4",
          "ticks": 71232,
          "time": 69.5625,
          "velocity": 0.3937007874015748
        },
        {
          "duration": 0.09375,
          "durationTicks": 96,
          "midi": 60,
          "name": "C4",
          "ticks": 71424,
          "time": 69.75,
          "velocity": 0.3937007874015748
        },
        {
          "duration": 0.09375,
          "durationTicks": 96,
          "midi": 72,
          "name": "C5",
          "ticks": 71424,
          "time": 69.75,
          "velocity": 0.3937007874015748
        },
        {
          "duration": 0.09375,
          "durationTicks": 96,
          "midi": 71,
          "name": "B4",
          "ticks": 71808,
          "time": 70.125,
          "velocity": 0.3937007874015748
        },
        {
          "duration": 0.09375,
          "durationTicks": 96,
          "midi": 59,
          "name": "B3",
          "ticks": 71808,
          "time": 70.125,
          "velocity": 0.3937007874015748
        },
        {
          "duration": 0.09375,
          "durationTicks": 96,
          "midi": 71,
          "name": "B4",
          "ticks": 72000,
          "time": 70.3125,
          "velocity": 0.3937007874015748
        },
        {
          "duration": 0.09375,
          "durationTicks": 96,
          "midi": 59,
          "name": "B3",
          "ticks": 72000,
          "time": 70.3125,
          "velocity": 0.3937007874015748
        },
        {
          "duration": 0.09375,
          "durationTicks": 96,
          "midi": 59,
          "name": "B3",
          "ticks": 72384,
          "time": 70.6875,
          "velocity": 0.3937007874015748
        },
        {
          "duration": 0.09375,
          "durationTicks": 96,
          "midi": 71,
          "name": "B4",
          "ticks": 72384,
          "time": 70.6875,
          "velocity": 0.3937007874015748
        },
        {
          "duration": 0.09375,
          "durationTicks": 96,
          "midi": 81,
          "name": "A5",
          "ticks": 74880,
          "time": 73.125,
          "velocity": 0.3937007874015748
        },
        {
          "duration": 0.09375,
          "durationTicks": 96,
          "midi": 69,
          "name": "A4",
          "ticks": 74880,
          "time": 73.125,
          "velocity": 0.3937007874015748
        },
        {
          "duration": 0.09375,
          "durationTicks": 96,
          "midi": 71,
          "name": "B4",
          "ticks": 74976,
          "time": 73.21875,
          "velocity": 0.3937007874015748
        },
        {
          "duration": 0.09375,
          "durationTicks": 96,
          "midi": 83,
          "name": "B5",
          "ticks": 74976,
          "time": 73.21875,
          "velocity": 0.3937007874015748
        },
        {
          "duration": 0.09375,
          "durationTicks": 96,
          "midi": 84,
          "name": "C6",
          "ticks": 75072,
          "time": 73.3125,
          "velocity": 0.3937007874015748
        },
        {
          "duration": 0.09375,
          "durationTicks": 96,
          "midi": 72,
          "name": "C5",
          "ticks": 75072,
          "time": 73.3125,
          "velocity": 0.3937007874015748
        },
        {
          "duration": 0.09375,
          "durationTicks": 96,
          "midi": 86,
          "name": "D6",
          "ticks": 75168,
          "time": 73.40625,
          "velocity": 0.3937007874015748
        },
        {
          "duration": 0.09375,
          "durationTicks": 96,
          "midi": 74,
          "name": "D5",
          "ticks": 75168,
          "time": 73.40625,
          "velocity": 0.3937007874015748
        },
        {
          "duration": 0.09375,
          "durationTicks": 96,
          "midi": 76,
          "name": "E5",
          "ticks": 75264,
          "time": 73.5,
          "velocity": 0.3937007874015748
        },
        {
          "duration": 0.09375,
          "durationTicks": 96,
          "midi": 83,
          "name": "B5",
          "ticks": 75264,
          "time": 73.5,
          "velocity": 0.3937007874015748
        },
        {
          "duration": 0.09375,
          "durationTicks": 96,
          "midi": 79,
          "name": "G5",
          "ticks": 75264,
          "time": 73.5,
          "velocity": 0.3937007874015748
        },
        {
          "duration": 0.09375,
          "durationTicks": 96,
          "midi": 88,
          "name": "E6",
          "ticks": 75264,
          "time": 73.5,
          "velocity": 0.3937007874015748
        },
        {
          "duration": 0.09375,
          "durationTicks": 96,
          "midi": 71,
          "name": "B4",
          "ticks": 75840,
          "time": 74.0625,
          "velocity": 0.3937007874015748
        },
        {
          "duration": 0.09375,
          "durationTicks": 96,
          "midi": 76,
          "name": "E5",
          "ticks": 75840,
          "time": 74.0625,
          "velocity": 0.3937007874015748
        },
        {
          "duration": 0.09375,
          "durationTicks": 96,
          "midi": 79,
          "name": "G5",
          "ticks": 75840,
          "time": 74.0625,
          "velocity": 0.3937007874015748
        },
        {
          "duration": 0.09375,
          "durationTicks": 96,
          "midi": 83,
          "name": "B5",
          "ticks": 75840,
          "time": 74.0625,
          "velocity": 0.3937007874015748
        },
        {
          "duration": 0.09375,
          "durationTicks": 96,
          "midi": 76,
          "name": "E5",
          "ticks": 76416,
          "time": 74.625,
          "velocity": 0.3937007874015748
        },
        {
          "duration": 0.09375,
          "durationTicks": 96,
          "midi": 83,
          "name": "B5",
          "ticks": 76416,
          "time": 74.625,
          "velocity": 0.3937007874015748
        },
        {
          "duration": 0.09375,
          "durationTicks": 96,
          "midi": 79,
          "name": "G5",
          "ticks": 76416,
          "time": 74.625,
          "velocity": 0.3937007874015748
        },
        {
          "duration": 0.09375,
          "durationTicks": 96,
          "midi": 88,
          "name": "E6",
          "ticks": 76416,
          "time": 74.625,
          "velocity": 0.3937007874015748
        },
        {
          "duration": 0.09375,
          "durationTicks": 96,
          "midi": 78,
          "name": "F#5",
          "ticks": 76800,
          "time": 75,
          "velocity": 0.3937007874015748
        },
        {
          "duration": 0.09375,
          "durationTicks": 96,
          "midi": 83,
          "name": "B5",
          "ticks": 76800,
          "time": 75,
          "velocity": 0.3937007874015748
        },
        {
          "duration": 0.09375,
          "durationTicks": 96,
          "midi": 75,
          "name": "D#5",
          "ticks": 76800,
          "time": 75,
          "velocity": 0.3937007874015748
        },
        {
          "duration": 0.09375,
          "durationTicks": 96,
          "midi": 87,
          "name": "D#6",
          "ticks": 76800,
          "time": 75,
          "velocity": 0.3937007874015748
        },
        {
          "duration": 0.09375,
          "durationTicks": 96,
          "midi": 83,
          "name": "B5",
          "ticks": 77376,
          "time": 75.5625,
          "velocity": 0.3937007874015748
        },
        {
          "duration": 0.09375,
          "durationTicks": 96,
          "midi": 71,
          "name": "B4",
          "ticks": 77376,
          "time": 75.5625,
          "velocity": 0.3937007874015748
        },
        {
          "duration": 0.09375,
          "durationTicks": 96,
          "midi": 75,
          "name": "D#5",
          "ticks": 77376,
          "time": 75.5625,
          "velocity": 0.3937007874015748
        },
        {
          "duration": 0.09375,
          "durationTicks": 96,
          "midi": 78,
          "name": "F#5",
          "ticks": 77376,
          "time": 75.5625,
          "velocity": 0.3937007874015748
        },
        {
          "duration": 0.09375,
          "durationTicks": 96,
          "midi": 78,
          "name": "F#5",
          "ticks": 78336,
          "time": 76.5,
          "velocity": 0.3937007874015748
        },
        {
          "duration": 0.09375,
          "durationTicks": 96,
          "midi": 74,
          "name": "D5",
          "ticks": 78336,
          "time": 76.5,
          "velocity": 0.3937007874015748
        },
        {
          "duration": 0.09375,
          "durationTicks": 96,
          "midi": 86,
          "name": "D6",
          "ticks": 78336,
          "time": 76.5,
          "velocity": 0.3937007874015748
        },
        {
          "duration": 0.09375,
          "durationTicks": 96,
          "midi": 83,
          "name": "B5",
          "ticks": 78336,
          "time": 76.5,
          "velocity": 0.3937007874015748
        },
        {
          "duration": 0.09375,
          "durationTicks": 96,
          "midi": 88,
          "name": "E6",
          "ticks": 78912,
          "time": 77.0625,
          "velocity": 0.3937007874015748
        },
        {
          "duration": 0.09375,
          "durationTicks": 96,
          "midi": 76,
          "name": "E5",
          "ticks": 78912,
          "time": 77.0625,
          "velocity": 0.3937007874015748
        },
        {
          "duration": 0.09375,
          "durationTicks": 96,
          "midi": 86,
          "name": "D6",
          "ticks": 79488,
          "time": 77.625,
          "velocity": 0.3937007874015748
        },
        {
          "duration": 0.09375,
          "durationTicks": 96,
          "midi": 74,
          "name": "D5",
          "ticks": 79488,
          "time": 77.625,
          "velocity": 0.3937007874015748
        },
        {
          "duration": 0.09375,
          "durationTicks": 96,
          "midi": 73,
          "name": "C#5",
          "ticks": 79872,
          "time": 78,
          "velocity": 0.3937007874015748
        },
        {
          "duration": 0.09375,
          "durationTicks": 96,
          "midi": 82,
          "name": "A#5",
          "ticks": 79872,
          "time": 78,
          "velocity": 0.3937007874015748
        },
        {
          "duration": 0.09375,
          "durationTicks": 96,
          "midi": 85,
          "name": "C#6",
          "ticks": 79872,
          "time": 78,
          "velocity": 0.3937007874015748
        },
        {
          "duration": 0.09375,
          "durationTicks": 96,
          "midi": 78,
          "name": "F#5",
          "ticks": 79872,
          "time": 78,
          "velocity": 0.3937007874015748
        },
        {
          "duration": 0.09375,
          "durationTicks": 96,
          "midi": 83,
          "name": "B5",
          "ticks": 80160,
          "time": 78.28125,
          "velocity": 0.3937007874015748
        },
        {
          "duration": 0.09375,
          "durationTicks": 96,
          "midi": 71,
          "name": "B4",
          "ticks": 80160,
          "time": 78.28125,
          "velocity": 0.3937007874015748
        },
        {
          "duration": 0.09375,
          "durationTicks": 96,
          "midi": 81,
          "name": "A5",
          "ticks": 80448,
          "time": 78.5625,
          "velocity": 0.3937007874015748
        },
        {
          "duration": 0.09375,
          "durationTicks": 96,
          "midi": 69,
          "name": "A4",
          "ticks": 80448,
          "time": 78.5625,
          "velocity": 0.3937007874015748
        },
        {
          "duration": 0.09375,
          "durationTicks": 96,
          "midi": 69,
          "name": "A4",
          "ticks": 81024,
          "time": 79.125,
          "velocity": 0.3937007874015748
        },
        {
          "duration": 0.09375,
          "durationTicks": 96,
          "midi": 81,
          "name": "A5",
          "ticks": 81024,
          "time": 79.125,
          "velocity": 0.3937007874015748
        },
        {
          "duration": 0.09375,
          "durationTicks": 96,
          "midi": 83,
          "name": "B5",
          "ticks": 81216,
          "time": 79.3125,
          "velocity": 0.3937007874015748
        },
        {
          "duration": 0.09375,
          "durationTicks": 96,
          "midi": 71,
          "name": "B4",
          "ticks": 81216,
          "time": 79.3125,
          "velocity": 0.3937007874015748
        },
        {
          "duration": 0.09375,
          "durationTicks": 96,
          "midi": 84,
          "name": "C6",
          "ticks": 81408,
          "time": 79.5,
          "velocity": 0.3937007874015748
        },
        {
          "duration": 0.09375,
          "durationTicks": 96,
          "midi": 72,
          "name": "C5",
          "ticks": 81408,
          "time": 79.5,
          "velocity": 0.3937007874015748
        },
        {
          "duration": 0.09375,
          "durationTicks": 96,
          "midi": 74,
          "name": "D5",
          "ticks": 81696,
          "time": 79.78125,
          "velocity": 0.3937007874015748
        },
        {
          "duration": 0.09375,
          "durationTicks": 96,
          "midi": 86,
          "name": "D6",
          "ticks": 81696,
          "time": 79.78125,
          "velocity": 0.3937007874015748
        },
        {
          "duration": 0.09375,
          "durationTicks": 96,
          "midi": 75,
          "name": "D#5",
          "ticks": 81984,
          "time": 80.0625,
          "velocity": 0.3937007874015748
        },
        {
          "duration": 0.09375,
          "durationTicks": 96,
          "midi": 87,
          "name": "D#6",
          "ticks": 81984,
          "time": 80.0625,
          "velocity": 0.3937007874015748
        },
        {
          "duration": 0.09375,
          "durationTicks": 96,
          "midi": 88,
          "name": "E6",
          "ticks": 82176,
          "time": 80.25,
          "velocity": 0.3937007874015748
        },
        {
          "duration": 0.09375,
          "durationTicks": 96,
          "midi": 76,
          "name": "E5",
          "ticks": 82176,
          "time": 80.25,
          "velocity": 0.3937007874015748
        },
        {
          "duration": 0.09375,
          "durationTicks": 96,
          "midi": 71,
          "name": "B4",
          "ticks": 82464,
          "time": 80.53125,
          "velocity": 0.3937007874015748
        },
        {
          "duration": 0.09375,
          "durationTicks": 96,
          "midi": 83,
          "name": "B5",
          "ticks": 82464,
          "time": 80.53125,
          "velocity": 0.3937007874015748
        },
        {
          "duration": 0.09375,
          "durationTicks": 96,
          "midi": 79,
          "name": "G5",
          "ticks": 82752,
          "time": 80.8125,
          "velocity": 0.3937007874015748
        },
        {
          "duration": 0.09375,
          "durationTicks": 96,
          "midi": 67,
          "name": "G4",
          "ticks": 82752,
          "time": 80.8125,
          "velocity": 0.3937007874015748
        },
        {
          "duration": 0.09375,
          "durationTicks": 96,
          "midi": 78,
          "name": "F#5",
          "ticks": 82944,
          "time": 81,
          "velocity": 0.3937007874015748
        },
        {
          "duration": 0.09375,
          "durationTicks": 96,
          "midi": 81,
          "name": "A5",
          "ticks": 82944,
          "time": 81,
          "velocity": 0.3937007874015748
        },
        {
          "duration": 0.09375,
          "durationTicks": 96,
          "midi": 75,
          "name": "D#5",
          "ticks": 82944,
          "time": 81,
          "velocity": 0.3937007874015748
        },
        {
          "duration": 0.09375,
          "durationTicks": 96,
          "midi": 69,
          "name": "A4",
          "ticks": 82944,
          "time": 81,
          "velocity": 0.3937007874015748
        },
        {
          "duration": 0.09375,
          "durationTicks": 96,
          "midi": 83,
          "name": "B5",
          "ticks": 83232,
          "time": 81.28125,
          "velocity": 0.3937007874015748
        },
        {
          "duration": 0.09375,
          "durationTicks": 96,
          "midi": 71,
          "name": "B4",
          "ticks": 83232,
          "time": 81.28125,
          "velocity": 0.3937007874015748
        },
        {
          "duration": 0.09375,
          "durationTicks": 96,
          "midi": 84,
          "name": "C6",
          "ticks": 83520,
          "time": 81.5625,
          "velocity": 0.3937007874015748
        },
        {
          "duration": 0.09375,
          "durationTicks": 96,
          "midi": 72,
          "name": "C5",
          "ticks": 83520,
          "time": 81.5625,
          "velocity": 0.3937007874015748
        },
        {
          "duration": 0.09375,
          "durationTicks": 96,
          "midi": 71,
          "name": "B4",
          "ticks": 83712,
          "time": 81.75,
          "velocity": 0.3937007874015748
        },
        {
          "duration": 0.09375,
          "durationTicks": 96,
          "midi": 83,
          "name": "B5",
          "ticks": 83712,
          "time": 81.75,
          "velocity": 0.3937007874015748
        },
        {
          "duration": 0.09375,
          "durationTicks": 96,
          "midi": 79,
          "name": "G5",
          "ticks": 83712,
          "time": 81.75,
          "velocity": 0.3937007874015748
        },
        {
          "duration": 0.09375,
          "durationTicks": 96,
          "midi": 76,
          "name": "E5",
          "ticks": 83712,
          "time": 81.75,
          "velocity": 0.3937007874015748
        },
        {
          "duration": 0.09375,
          "durationTicks": 96,
          "midi": 81,
          "name": "A5",
          "ticks": 84000,
          "time": 82.03125,
          "velocity": 0.3937007874015748
        },
        {
          "duration": 0.09375,
          "durationTicks": 96,
          "midi": 69,
          "name": "A4",
          "ticks": 84000,
          "time": 82.03125,
          "velocity": 0.3937007874015748
        },
        {
          "duration": 0.09375,
          "durationTicks": 96,
          "midi": 79,
          "name": "G5",
          "ticks": 84288,
          "time": 82.3125,
          "velocity": 0.3937007874015748
        },
        {
          "duration": 0.09375,
          "durationTicks": 96,
          "midi": 67,
          "name": "G4",
          "ticks": 84288,
          "time": 82.3125,
          "velocity": 0.3937007874015748
        },
        {
          "duration": 0.09375,
          "durationTicks": 96,
          "midi": 69,
          "name": "A4",
          "ticks": 84480,
          "time": 82.5,
          "velocity": 0.3937007874015748
        },
        {
          "duration": 0.09375,
          "durationTicks": 96,
          "midi": 72,
          "name": "C5",
          "ticks": 84480,
          "time": 82.5,
          "velocity": 0.3937007874015748
        },
        {
          "duration": 0.09375,
          "durationTicks": 96,
          "midi": 65,
          "name": "F4",
          "ticks": 84480,
          "time": 82.5,
          "velocity": 0.3937007874015748
        },
        {
          "duration": 0.09375,
          "durationTicks": 96,
          "midi": 77,
          "name": "F5",
          "ticks": 84480,
          "time": 82.5,
          "velocity": 0.3937007874015748
        },
        {
          "duration": 0.09375,
          "durationTicks": 96,
          "midi": 80,
          "name": "G#5",
          "ticks": 85200,
          "time": 83.203125,
          "velocity": 0.3937007874015748
        },
        {
          "duration": 0.09375,
          "durationTicks": 96,
          "midi": 69,
          "name": "A4",
          "ticks": 85248,
          "time": 83.25,
          "velocity": 0.3937007874015748
        },
        {
          "duration": 0.09375,
          "durationTicks": 96,
          "midi": 81,
          "name": "A5",
          "ticks": 85248,
          "time": 83.25,
          "velocity": 0.3937007874015748
        },
        {
          "duration": 0.09375,
          "durationTicks": 96,
          "midi": 84,
          "name": "C6",
          "ticks": 85536,
          "time": 83.53125,
          "velocity": 0.3937007874015748
        },
        {
          "duration": 0.09375,
          "durationTicks": 96,
          "midi": 72,
          "name": "C5",
          "ticks": 85536,
          "time": 83.53125,
          "velocity": 0.3937007874015748
        },
        {
          "duration": 0.09375,
          "durationTicks": 96,
          "midi": 81,
          "name": "A5",
          "ticks": 85824,
          "time": 83.8125,
          "velocity": 0.3937007874015748
        },
        {
          "duration": 0.09375,
          "durationTicks": 96,
          "midi": 69,
          "name": "A4",
          "ticks": 85824,
          "time": 83.8125,
          "velocity": 0.3937007874015748
        },
        {
          "duration": 0.09375,
          "durationTicks": 96,
          "midi": 78,
          "name": "F#5",
          "ticks": 86016,
          "time": 84,
          "velocity": 0.3937007874015748
        },
        {
          "duration": 0.09375,
          "durationTicks": 96,
          "midi": 83,
          "name": "B5",
          "ticks": 86016,
          "time": 84,
          "velocity": 0.3937007874015748
        },
        {
          "duration": 0.09375,
          "durationTicks": 96,
          "midi": 71,
          "name": "B4",
          "ticks": 86016,
          "time": 84,
          "velocity": 0.3937007874015748
        },
        {
          "duration": 0.09375,
          "durationTicks": 96,
          "midi": 75,
          "name": "D#5",
          "ticks": 86016,
          "time": 84,
          "velocity": 0.3937007874015748
        },
        {
          "duration": 0.09375,
          "durationTicks": 96,
          "midi": 81,
          "name": "A5",
          "ticks": 87168,
          "time": 85.125,
          "velocity": 0.3937007874015748
        },
        {
          "duration": 0.09375,
          "durationTicks": 96,
          "midi": 69,
          "name": "A4",
          "ticks": 87168,
          "time": 85.125,
          "velocity": 0.3937007874015748
        },
        {
          "duration": 0.09375,
          "durationTicks": 96,
          "midi": 71,
          "name": "B4",
          "ticks": 87264,
          "time": 85.21875,
          "velocity": 0.3937007874015748
        },
        {
          "duration": 0.09375,
          "durationTicks": 96,
          "midi": 83,
          "name": "B5",
          "ticks": 87264,
          "time": 85.21875,
          "velocity": 0.3937007874015748
        },
        {
          "duration": 0.09375,
          "durationTicks": 96,
          "midi": 84,
          "name": "C6",
          "ticks": 87360,
          "time": 85.3125,
          "velocity": 0.3937007874015748
        },
        {
          "duration": 0.09375,
          "durationTicks": 96,
          "midi": 72,
          "name": "C5",
          "ticks": 87360,
          "time": 85.3125,
          "velocity": 0.3937007874015748
        },
        {
          "duration": 0.09375,
          "durationTicks": 96,
          "midi": 86,
          "name": "D6",
          "ticks": 87456,
          "time": 85.40625,
          "velocity": 0.3937007874015748
        },
        {
          "duration": 0.09375,
          "durationTicks": 96,
          "midi": 74,
          "name": "D5",
          "ticks": 87456,
          "time": 85.40625,
          "velocity": 0.3937007874015748
        },
        {
          "duration": 0.09375,
          "durationTicks": 96,
          "midi": 88,
          "name": "E6",
          "ticks": 87552,
          "time": 85.5,
          "velocity": 0.3937007874015748
        },
        {
          "duration": 0.09375,
          "durationTicks": 96,
          "midi": 76,
          "name": "E5",
          "ticks": 87552,
          "time": 85.5,
          "velocity": 0.3937007874015748
        },
        {
          "duration": 0.09375,
          "durationTicks": 96,
          "midi": 83,
          "name": "B5",
          "ticks": 87552,
          "time": 85.5,
          "velocity": 0.3937007874015748
        },
        {
          "duration": 0.09375,
          "durationTicks": 96,
          "midi": 79,
          "name": "G5",
          "ticks": 87552,
          "time": 85.5,
          "velocity": 0.3937007874015748
        },
        {
          "duration": 0.09375,
          "durationTicks": 96,
          "midi": 83,
          "name": "B5",
          "ticks": 88128,
          "time": 86.0625,
          "velocity": 0.3937007874015748
        },
        {
          "duration": 0.09375,
          "durationTicks": 96,
          "midi": 71,
          "name": "B4",
          "ticks": 88128,
          "time": 86.0625,
          "velocity": 0.3937007874015748
        },
        {
          "duration": 0.09375,
          "durationTicks": 96,
          "midi": 79,
          "name": "G5",
          "ticks": 88128,
          "time": 86.0625,
          "velocity": 0.3937007874015748
        },
        {
          "duration": 0.09375,
          "durationTicks": 96,
          "midi": 76,
          "name": "E5",
          "ticks": 88128,
          "time": 86.0625,
          "velocity": 0.3937007874015748
        },
        {
          "duration": 0.09375,
          "durationTicks": 96,
          "midi": 83,
          "name": "B5",
          "ticks": 88704,
          "time": 86.625,
          "velocity": 0.3937007874015748
        },
        {
          "duration": 0.09375,
          "durationTicks": 96,
          "midi": 88,
          "name": "E6",
          "ticks": 88704,
          "time": 86.625,
          "velocity": 0.3937007874015748
        },
        {
          "duration": 0.09375,
          "durationTicks": 96,
          "midi": 79,
          "name": "G5",
          "ticks": 88704,
          "time": 86.625,
          "velocity": 0.3937007874015748
        },
        {
          "duration": 0.09375,
          "durationTicks": 96,
          "midi": 76,
          "name": "E5",
          "ticks": 88704,
          "time": 86.625,
          "velocity": 0.3937007874015748
        },
        {
          "duration": 0.09375,
          "durationTicks": 96,
          "midi": 75,
          "name": "D#5",
          "ticks": 89088,
          "time": 87,
          "velocity": 0.3937007874015748
        },
        {
          "duration": 0.09375,
          "durationTicks": 96,
          "midi": 78,
          "name": "F#5",
          "ticks": 89088,
          "time": 87,
          "velocity": 0.3937007874015748
        },
        {
          "duration": 0.09375,
          "durationTicks": 96,
          "midi": 83,
          "name": "B5",
          "ticks": 89088,
          "time": 87,
          "velocity": 0.3937007874015748
        },
        {
          "duration": 0.09375,
          "durationTicks": 96,
          "midi": 87,
          "name": "D#6",
          "ticks": 89088,
          "time": 87,
          "velocity": 0.3937007874015748
        },
        {
          "duration": 0.09375,
          "durationTicks": 96,
          "midi": 83,
          "name": "B5",
          "ticks": 89664,
          "time": 87.5625,
          "velocity": 0.3937007874015748
        },
        {
          "duration": 0.09375,
          "durationTicks": 96,
          "midi": 78,
          "name": "F#5",
          "ticks": 89664,
          "time": 87.5625,
          "velocity": 0.3937007874015748
        },
        {
          "duration": 0.09375,
          "durationTicks": 96,
          "midi": 71,
          "name": "B4",
          "ticks": 89664,
          "time": 87.5625,
          "velocity": 0.3937007874015748
        },
        {
          "duration": 0.09375,
          "durationTicks": 96,
          "midi": 75,
          "name": "D#5",
          "ticks": 89664,
          "time": 87.5625,
          "velocity": 0.3937007874015748
        },
        {
          "duration": 0.09375,
          "durationTicks": 96,
          "midi": 86,
          "name": "D6",
          "ticks": 90624,
          "time": 88.5,
          "velocity": 0.3937007874015748
        },
        {
          "duration": 0.09375,
          "durationTicks": 96,
          "midi": 74,
          "name": "D5",
          "ticks": 90624,
          "time": 88.5,
          "velocity": 0.3937007874015748
        },
        {
          "duration": 0.09375,
          "durationTicks": 96,
          "midi": 78,
          "name": "F#5",
          "ticks": 90624,
          "time": 88.5,
          "velocity": 0.3937007874015748
        },
        {
          "duration": 0.09375,
          "durationTicks": 96,
          "midi": 83,
          "name": "B5",
          "ticks": 90624,
          "time": 88.5,
          "velocity": 0.3937007874015748
        },
        {
          "duration": 0.09375,
          "durationTicks": 96,
          "midi": 88,
          "name": "E6",
          "ticks": 91200,
          "time": 89.0625,
          "velocity": 0.3937007874015748
        },
        {
          "duration": 0.09375,
          "durationTicks": 96,
          "midi": 76,
          "name": "E5",
          "ticks": 91200,
          "time": 89.0625,
          "velocity": 0.3937007874015748
        },
        {
          "duration": 0.09375,
          "durationTicks": 96,
          "midi": 78,
          "name": "F#5",
          "ticks": 91776,
          "time": 89.625,
          "velocity": 0.3937007874015748
        },
        {
          "duration": 0.09375,
          "durationTicks": 96,
          "midi": 90,
          "name": "F#6",
          "ticks": 91776,
          "time": 89.625,
          "velocity": 0.3937007874015748
        },
        {
          "duration": 0.09375,
          "durationTicks": 96,
          "midi": 76,
          "name": "E5",
          "ticks": 92160,
          "time": 90,
          "velocity": 0.3937007874015748
        },
        {
          "duration": 0.09375,
          "durationTicks": 96,
          "midi": 85,
          "name": "C#6",
          "ticks": 92160,
          "time": 90,
          "velocity": 0.3937007874015748
        },
        {
          "duration": 0.09375,
          "durationTicks": 96,
          "midi": 88,
          "name": "E6",
          "ticks": 92160,
          "time": 90,
          "velocity": 0.3937007874015748
        },
        {
          "duration": 0.09375,
          "durationTicks": 96,
          "midi": 81,
          "name": "A5",
          "ticks": 92160,
          "time": 90,
          "velocity": 0.3937007874015748
        },
        {
          "duration": 0.09375,
          "durationTicks": 96,
          "midi": 69,
          "name": "A4",
          "ticks": 92448,
          "time": 90.28125,
          "velocity": 0.3937007874015748
        },
        {
          "duration": 0.09375,
          "durationTicks": 96,
          "midi": 81,
          "name": "A5",
          "ticks": 92448,
          "time": 90.28125,
          "velocity": 0.3937007874015748
        },
        {
          "duration": 0.09375,
          "durationTicks": 96,
          "midi": 88,
          "name": "E6",
          "ticks": 92736,
          "time": 90.5625,
          "velocity": 0.3937007874015748
        },
        {
          "duration": 0.09375,
          "durationTicks": 96,
          "midi": 93,
          "name": "A6",
          "ticks": 92736,
          "time": 90.5625,
          "velocity": 0.3937007874015748
        },
        {
          "duration": 0.09375,
          "durationTicks": 96,
          "midi": 81,
          "name": "A5",
          "ticks": 92736,
          "time": 90.5625,
          "velocity": 0.3937007874015748
        },
        {
          "duration": 0.09375,
          "durationTicks": 96,
          "midi": 85,
          "name": "C#6",
          "ticks": 92736,
          "time": 90.5625,
          "velocity": 0.3937007874015748
        },
        {
          "duration": 0.09375,
          "durationTicks": 96,
          "midi": 79,
          "name": "G5",
          "ticks": 93312,
          "time": 91.125,
          "velocity": 0.3937007874015748
        },
        {
          "duration": 0.09375,
          "durationTicks": 96,
          "midi": 91,
          "name": "G6",
          "ticks": 93312,
          "time": 91.125,
          "velocity": 0.3937007874015748
        },
        {
          "duration": 0.09375,
          "durationTicks": 96,
          "midi": 93,
          "name": "A6",
          "ticks": 93504,
          "time": 91.3125,
          "velocity": 0.3937007874015748
        },
        {
          "duration": 0.09375,
          "durationTicks": 96,
          "midi": 81,
          "name": "A5",
          "ticks": 93504,
          "time": 91.3125,
          "velocity": 0.3937007874015748
        },
        {
          "duration": 0.09375,
          "durationTicks": 96,
          "midi": 91,
          "name": "G6",
          "ticks": 93696,
          "time": 91.5,
          "velocity": 0.3937007874015748
        },
        {
          "duration": 0.09375,
          "durationTicks": 96,
          "midi": 83,
          "name": "B5",
          "ticks": 93696,
          "time": 91.5,
          "velocity": 0.3937007874015748
        },
        {
          "duration": 0.09375,
          "durationTicks": 96,
          "midi": 95,
          "name": "B6",
          "ticks": 93696,
          "time": 91.5,
          "velocity": 0.3937007874015748
        },
        {
          "duration": 0.09375,
          "durationTicks": 96,
          "midi": 88,
          "name": "E6",
          "ticks": 93696,
          "time": 91.5,
          "velocity": 0.3937007874015748
        },
        {
          "duration": 0.09375,
          "durationTicks": 96,
          "midi": 82,
          "name": "A#5",
          "ticks": 93984,
          "time": 91.78125,
          "velocity": 0.3937007874015748
        },
        {
          "duration": 0.09375,
          "durationTicks": 96,
          "midi": 94,
          "name": "A#6",
          "ticks": 93984,
          "time": 91.78125,
          "velocity": 0.3937007874015748
        },
        {
          "duration": 0.09375,
          "durationTicks": 96,
          "midi": 81,
          "name": "A5",
          "ticks": 94272,
          "time": 92.0625,
          "velocity": 0.3937007874015748
        },
        {
          "duration": 0.09375,
          "durationTicks": 96,
          "midi": 93,
          "name": "A6",
          "ticks": 94272,
          "time": 92.0625,
          "velocity": 0.3937007874015748
        },
        {
          "duration": 0.09375,
          "durationTicks": 96,
          "midi": 76,
          "name": "E5",
          "ticks": 94464,
          "time": 92.25,
          "velocity": 0.3937007874015748
        },
        {
          "duration": 0.09375,
          "durationTicks": 96,
          "midi": 71,
          "name": "B4",
          "ticks": 94464,
          "time": 92.25,
          "velocity": 0.3937007874015748
        },
        {
          "duration": 0.09375,
          "durationTicks": 96,
          "midi": 83,
          "name": "B5",
          "ticks": 94464,
          "time": 92.25,
          "velocity": 0.3937007874015748
        },
        {
          "duration": 0.09375,
          "durationTicks": 96,
          "midi": 79,
          "name": "G5",
          "ticks": 94464,
          "time": 92.25,
          "velocity": 0.3937007874015748
        },
        {
          "duration": 0.09375,
          "durationTicks": 96,
          "midi": 82,
          "name": "A#5",
          "ticks": 94752,
          "time": 92.53125,
          "velocity": 0.3937007874015748
        },
        {
          "duration": 0.09375,
          "durationTicks": 96,
          "midi": 70,
          "name": "A#4",
          "ticks": 94752,
          "time": 92.53125,
          "velocity": 0.3937007874015748
        },
        {
          "duration": 0.09375,
          "durationTicks": 96,
          "midi": 69,
          "name": "A4",
          "ticks": 95040,
          "time": 92.8125,
          "velocity": 0.3937007874015748
        },
        {
          "duration": 0.09375,
          "durationTicks": 96,
          "midi": 81,
          "name": "A5",
          "ticks": 95040,
          "time": 92.8125,
          "velocity": 0.3937007874015748
        },
        {
          "duration": 0.09375,
          "durationTicks": 96,
          "midi": 79,
          "name": "G5",
          "ticks": 95232,
          "time": 93,
          "velocity": 0.3937007874015748
        },
        {
          "duration": 0.09375,
          "durationTicks": 96,
          "midi": 67,
          "name": "G4",
          "ticks": 95232,
          "time": 93,
          "velocity": 0.3937007874015748
        },
        {
          "duration": 0.09375,
          "durationTicks": 96,
          "midi": 71,
          "name": "B4",
          "ticks": 95232,
          "time": 93,
          "velocity": 0.3937007874015748
        },
        {
          "duration": 0.09375,
          "durationTicks": 96,
          "midi": 75,
          "name": "D#5",
          "ticks": 95232,
          "time": 93,
          "velocity": 0.3937007874015748
        },
        {
          "duration": 0.09375,
          "durationTicks": 96,
          "midi": 71,
          "name": "B4",
          "ticks": 95424,
          "time": 93.1875,
          "velocity": 0.3937007874015748
        },
        {
          "duration": 0.09375,
          "durationTicks": 96,
          "midi": 75,
          "name": "D#5",
          "ticks": 95520,
          "time": 93.28125,
          "velocity": 0.3937007874015748
        },
        {
          "duration": 0.09375,
          "durationTicks": 96,
          "midi": 78,
          "name": "F#5",
          "ticks": 95616,
          "time": 93.375,
          "velocity": 0.3937007874015748
        },
        {
          "duration": 0.09375,
          "durationTicks": 96,
          "midi": 83,
          "name": "B5",
          "ticks": 95712,
          "time": 93.46875,
          "velocity": 0.3937007874015748
        },
        {
          "duration": 0.09375,
          "durationTicks": 96,
          "midi": 78,
          "name": "F#5",
          "ticks": 95808,
          "time": 93.5625,
          "velocity": 0.3937007874015748
        },
        {
          "duration": 0.09375,
          "durationTicks": 96,
          "midi": 83,
          "name": "B5",
          "ticks": 95808,
          "time": 93.5625,
          "velocity": 0.3937007874015748
        },
        {
          "duration": 0.09375,
          "durationTicks": 96,
          "midi": 87,
          "name": "D#6",
          "ticks": 95808,
          "time": 93.5625,
          "velocity": 0.3937007874015748
        },
        {
          "duration": 0.09375,
          "durationTicks": 96,
          "midi": 75,
          "name": "D#5",
          "ticks": 95808,
          "time": 93.5625,
          "velocity": 0.3937007874015748
        },
        {
          "duration": 0.09375,
          "durationTicks": 96,
          "midi": 70,
          "name": "A#4",
          "ticks": 96384,
          "time": 94.125,
          "velocity": 0.3937007874015748
        },
        {
          "duration": 0.09375,
          "durationTicks": 96,
          "midi": 82,
          "name": "A#5",
          "ticks": 96384,
          "time": 94.125,
          "velocity": 0.3937007874015748
        },
        {
          "duration": 0.09375,
          "durationTicks": 96,
          "midi": 81,
          "name": "A5",
          "ticks": 96480,
          "time": 94.21875,
          "velocity": 0.3937007874015748
        },
        {
          "duration": 0.09375,
          "durationTicks": 96,
          "midi": 69,
          "name": "A4",
          "ticks": 96480,
          "time": 94.21875,
          "velocity": 0.3937007874015748
        },
        {
          "duration": 0.09375,
          "durationTicks": 96,
          "midi": 79,
          "name": "G5",
          "ticks": 96576,
          "time": 94.3125,
          "velocity": 0.3937007874015748
        },
        {
          "duration": 0.09375,
          "durationTicks": 96,
          "midi": 67,
          "name": "G4",
          "ticks": 96576,
          "time": 94.3125,
          "velocity": 0.3937007874015748
        },
        {
          "duration": 0.09375,
          "durationTicks": 96,
          "midi": 76,
          "name": "E5",
          "ticks": 96768,
          "time": 94.5,
          "velocity": 0.3937007874015748
        },
        {
          "duration": 0.09375,
          "durationTicks": 96,
          "midi": 71,
          "name": "B4",
          "ticks": 96768,
          "time": 94.5,
          "velocity": 0.3937007874015748
        },
        {
          "duration": 0.09375,
          "durationTicks": 96,
          "midi": 64,
          "name": "E4",
          "ticks": 96768,
          "time": 94.5,
          "velocity": 0.3937007874015748
        },
        {
          "duration": 0.09375,
          "durationTicks": 96,
          "midi": 67,
          "name": "G4",
          "ticks": 96768,
          "time": 94.5,
          "velocity": 0.3937007874015748
        },
        {
          "duration": 0.09375,
          "durationTicks": 96,
          "midi": 71,
          "name": "B4",
          "ticks": 96768,
          "time": 94.5,
          "velocity": 0.3937007874015748
        },
        {
          "duration": 0.09375,
          "durationTicks": 96,
          "midi": 69,
          "name": "A4",
          "ticks": 102528,
          "time": 100.125,
          "velocity": 0.3937007874015748
        },
        {
          "duration": 0.09375,
          "durationTicks": 96,
          "midi": 81,
          "name": "A5",
          "ticks": 102528,
          "time": 100.125,
          "velocity": 0.3937007874015748
        },
        {
          "duration": 0.09375,
          "durationTicks": 96,
          "midi": 83,
          "name": "B5",
          "ticks": 102624,
          "time": 100.21875,
          "velocity": 0.3937007874015748
        },
        {
          "duration": 0.09375,
          "durationTicks": 96,
          "midi": 71,
          "name": "B4",
          "ticks": 102624,
          "time": 100.21875,
          "velocity": 0.3937007874015748
        },
        {
          "duration": 0.09375,
          "durationTicks": 96,
          "midi": 84,
          "name": "C6",
          "ticks": 102720,
          "time": 100.3125,
          "velocity": 0.3937007874015748
        },
        {
          "duration": 0.09375,
          "durationTicks": 96,
          "midi": 72,
          "name": "C5",
          "ticks": 102720,
          "time": 100.3125,
          "velocity": 0.3937007874015748
        },
        {
          "duration": 0.09375,
          "durationTicks": 96,
          "midi": 86,
          "name": "D6",
          "ticks": 102816,
          "time": 100.40625,
          "velocity": 0.3937007874015748
        },
        {
          "duration": 0.09375,
          "durationTicks": 96,
          "midi": 74,
          "name": "D5",
          "ticks": 102816,
          "time": 100.40625,
          "velocity": 0.3937007874015748
        },
        {
          "duration": 0.09375,
          "durationTicks": 96,
          "midi": 88,
          "name": "E6",
          "ticks": 102912,
          "time": 100.5,
          "velocity": 0.3937007874015748
        },
        {
          "duration": 0.09375,
          "durationTicks": 96,
          "midi": 76,
          "name": "E5",
          "ticks": 102912,
          "time": 100.5,
          "velocity": 0.3937007874015748
        },
        {
          "duration": 0.09375,
          "durationTicks": 96,
          "midi": 88,
          "name": "E6",
          "ticks": 103008,
          "time": 100.59375,
          "velocity": 0.3937007874015748
        },
        {
          "duration": 0.09375,
          "durationTicks": 96,
          "midi": 76,
          "name": "E5",
          "ticks": 103008,
          "time": 100.59375,
          "velocity": 0.3937007874015748
        },
        {
          "duration": 0.09375,
          "durationTicks": 96,
          "midi": 88,
          "name": "E6",
          "ticks": 103104,
          "time": 100.6875,
          "velocity": 0.3937007874015748
        },
        {
          "duration": 0.09375,
          "durationTicks": 96,
          "midi": 76,
          "name": "E5",
          "ticks": 103104,
          "time": 100.6875,
          "velocity": 0.3937007874015748
        },
        {
          "duration": 0.09375,
          "durationTicks": 96,
          "midi": 76,
          "name": "E5",
          "ticks": 103200,
          "time": 100.78125,
          "velocity": 0.3937007874015748
        },
        {
          "duration": 0.09375,
          "durationTicks": 96,
          "midi": 88,
          "name": "E6",
          "ticks": 103200,
          "time": 100.78125,
          "velocity": 0.3937007874015748
        },
        {
          "duration": 0.09375,
          "durationTicks": 96,
          "midi": 88,
          "name": "E6",
          "ticks": 103296,
          "time": 100.875,
          "velocity": 0.3937007874015748
        },
        {
          "duration": 0.09375,
          "durationTicks": 96,
          "midi": 76,
          "name": "E5",
          "ticks": 103296,
          "time": 100.875,
          "velocity": 0.3937007874015748
        },
        {
          "duration": 0.09375,
          "durationTicks": 96,
          "midi": 88,
          "name": "E6",
          "ticks": 103392,
          "time": 100.96875,
          "velocity": 0.3937007874015748
        },
        {
          "duration": 0.09375,
          "durationTicks": 96,
          "midi": 76,
          "name": "E5",
          "ticks": 103392,
          "time": 100.96875,
          "velocity": 0.3937007874015748
        },
        {
          "duration": 0.09375,
          "durationTicks": 96,
          "midi": 76,
          "name": "E5",
          "ticks": 103488,
          "time": 101.0625,
          "velocity": 0.3937007874015748
        },
        {
          "duration": 0.09375,
          "durationTicks": 96,
          "midi": 88,
          "name": "E6",
          "ticks": 103488,
          "time": 101.0625,
          "velocity": 0.3937007874015748
        },
        {
          "duration": 0.09375,
          "durationTicks": 96,
          "midi": 76,
          "name": "E5",
          "ticks": 103584,
          "time": 101.15625,
          "velocity": 0.3937007874015748
        },
        {
          "duration": 0.09375,
          "durationTicks": 96,
          "midi": 88,
          "name": "E6",
          "ticks": 103584,
          "time": 101.15625,
          "velocity": 0.3937007874015748
        },
        {
          "duration": 0.09375,
          "durationTicks": 96,
          "midi": 88,
          "name": "E6",
          "ticks": 103680,
          "time": 101.25,
          "velocity": 0.3937007874015748
        },
        {
          "duration": 0.09375,
          "durationTicks": 96,
          "midi": 76,
          "name": "E5",
          "ticks": 103680,
          "time": 101.25,
          "velocity": 0.3937007874015748
        },
        {
          "duration": 0.09375,
          "durationTicks": 96,
          "midi": 76,
          "name": "E5",
          "ticks": 103776,
          "time": 101.34375,
          "velocity": 0.3937007874015748
        },
        {
          "duration": 0.09375,
          "durationTicks": 96,
          "midi": 88,
          "name": "E6",
          "ticks": 103776,
          "time": 101.34375,
          "velocity": 0.3937007874015748
        },
        {
          "duration": 0.09375,
          "durationTicks": 96,
          "midi": 88,
          "name": "E6",
          "ticks": 103872,
          "time": 101.4375,
          "velocity": 0.3937007874015748
        },
        {
          "duration": 0.09375,
          "durationTicks": 96,
          "midi": 76,
          "name": "E5",
          "ticks": 103872,
          "time": 101.4375,
          "velocity": 0.3937007874015748
        },
        {
          "duration": 0.09375,
          "durationTicks": 96,
          "midi": 76,
          "name": "E5",
          "ticks": 103968,
          "time": 101.53125,
          "velocity": 0.3937007874015748
        },
        {
          "duration": 0.09375,
          "durationTicks": 96,
          "midi": 88,
          "name": "E6",
          "ticks": 103968,
          "time": 101.53125,
          "velocity": 0.3937007874015748
        },
        {
          "duration": 0.09375,
          "durationTicks": 96,
          "midi": 88,
          "name": "E6",
          "ticks": 104064,
          "time": 101.625,
          "velocity": 0.3937007874015748
        },
        {
          "duration": 0.09375,
          "durationTicks": 96,
          "midi": 76,
          "name": "E5",
          "ticks": 104064,
          "time": 101.625,
          "velocity": 0.3937007874015748
        },
        {
          "duration": 0.09375,
          "durationTicks": 96,
          "midi": 76,
          "name": "E5",
          "ticks": 104160,
          "time": 101.71875,
          "velocity": 0.3937007874015748
        },
        {
          "duration": 0.09375,
          "durationTicks": 96,
          "midi": 88,
          "name": "E6",
          "ticks": 104160,
          "time": 101.71875,
          "velocity": 0.3937007874015748
        },
        {
          "duration": 0.09375,
          "durationTicks": 96,
          "midi": 88,
          "name": "E6",
          "ticks": 104256,
          "time": 101.8125,
          "velocity": 0.3937007874015748
        },
        {
          "duration": 0.09375,
          "durationTicks": 96,
          "midi": 76,
          "name": "E5",
          "ticks": 104256,
          "time": 101.8125,
          "velocity": 0.3937007874015748
        },
        {
          "duration": 0.09375,
          "durationTicks": 96,
          "midi": 76,
          "name": "E5",
          "ticks": 104352,
          "time": 101.90625,
          "velocity": 0.3937007874015748
        },
        {
          "duration": 0.09375,
          "durationTicks": 96,
          "midi": 88,
          "name": "E6",
          "ticks": 104352,
          "time": 101.90625,
          "velocity": 0.3937007874015748
        },
        {
          "duration": 0.09375,
          "durationTicks": 96,
          "midi": 76,
          "name": "E5",
          "ticks": 104448,
          "time": 102,
          "velocity": 0.3937007874015748
        },
        {
          "duration": 0.09375,
          "durationTicks": 96,
          "midi": 88,
          "name": "E6",
          "ticks": 104448,
          "time": 102,
          "velocity": 0.3937007874015748
        },
        {
          "duration": 0.09375,
          "durationTicks": 96,
          "midi": 76,
          "name": "E5",
          "ticks": 104544,
          "time": 102.09375,
          "velocity": 0.3937007874015748
        },
        {
          "duration": 0.09375,
          "durationTicks": 96,
          "midi": 88,
          "name": "E6",
          "ticks": 104544,
          "time": 102.09375,
          "velocity": 0.3937007874015748
        },
        {
          "duration": 0.09375,
          "durationTicks": 96,
          "midi": 88,
          "name": "E6",
          "ticks": 104640,
          "time": 102.1875,
          "velocity": 0.3937007874015748
        },
        {
          "duration": 0.09375,
          "durationTicks": 96,
          "midi": 76,
          "name": "E5",
          "ticks": 104640,
          "time": 102.1875,
          "velocity": 0.3937007874015748
        },
        {
          "duration": 0.09375,
          "durationTicks": 96,
          "midi": 76,
          "name": "E5",
          "ticks": 104736,
          "time": 102.28125,
          "velocity": 0.3937007874015748
        },
        {
          "duration": 0.09375,
          "durationTicks": 96,
          "midi": 88,
          "name": "E6",
          "ticks": 104736,
          "time": 102.28125,
          "velocity": 0.3937007874015748
        },
        {
          "duration": 0.09375,
          "durationTicks": 96,
          "midi": 88,
          "name": "E6",
          "ticks": 104832,
          "time": 102.375,
          "velocity": 0.3937007874015748
        },
        {
          "duration": 0.09375,
          "durationTicks": 96,
          "midi": 76,
          "name": "E5",
          "ticks": 104832,
          "time": 102.375,
          "velocity": 0.3937007874015748
        },
        {
          "duration": 0.09375,
          "durationTicks": 96,
          "midi": 76,
          "name": "E5",
          "ticks": 104928,
          "time": 102.46875,
          "velocity": 0.3937007874015748
        },
        {
          "duration": 0.09375,
          "durationTicks": 96,
          "midi": 88,
          "name": "E6",
          "ticks": 104928,
          "time": 102.46875,
          "velocity": 0.3937007874015748
        },
        {
          "duration": 0.09375,
          "durationTicks": 96,
          "midi": 88,
          "name": "E6",
          "ticks": 105024,
          "time": 102.5625,
          "velocity": 0.3937007874015748
        },
        {
          "duration": 0.09375,
          "durationTicks": 96,
          "midi": 76,
          "name": "E5",
          "ticks": 105024,
          "time": 102.5625,
          "velocity": 0.3937007874015748
        },
        {
          "duration": 0.09375,
          "durationTicks": 96,
          "midi": 88,
          "name": "E6",
          "ticks": 105120,
          "time": 102.65625,
          "velocity": 0.3937007874015748
        },
        {
          "duration": 0.09375,
          "durationTicks": 96,
          "midi": 76,
          "name": "E5",
          "ticks": 105120,
          "time": 102.65625,
          "velocity": 0.3937007874015748
        },
        {
          "duration": 0.09375,
          "durationTicks": 96,
          "midi": 88,
          "name": "E6",
          "ticks": 105216,
          "time": 102.75,
          "velocity": 0.3937007874015748
        },
        {
          "duration": 0.09375,
          "durationTicks": 96,
          "midi": 76,
          "name": "E5",
          "ticks": 105216,
          "time": 102.75,
          "velocity": 0.3937007874015748
        },
        {
          "duration": 0.09375,
          "durationTicks": 96,
          "midi": 76,
          "name": "E5",
          "ticks": 105312,
          "time": 102.84375,
          "velocity": 0.3937007874015748
        },
        {
          "duration": 0.09375,
          "durationTicks": 96,
          "midi": 88,
          "name": "E6",
          "ticks": 105312,
          "time": 102.84375,
          "velocity": 0.3937007874015748
        },
        {
          "duration": 0.09375,
          "durationTicks": 96,
          "midi": 88,
          "name": "E6",
          "ticks": 105408,
          "time": 102.9375,
          "velocity": 0.3937007874015748
        },
        {
          "duration": 0.09375,
          "durationTicks": 96,
          "midi": 76,
          "name": "E5",
          "ticks": 105408,
          "time": 102.9375,
          "velocity": 0.3937007874015748
        },
        {
          "duration": 0.09375,
          "durationTicks": 96,
          "midi": 76,
          "name": "E5",
          "ticks": 105504,
          "time": 103.03125,
          "velocity": 0.3937007874015748
        },
        {
          "duration": 0.09375,
          "durationTicks": 96,
          "midi": 88,
          "name": "E6",
          "ticks": 105504,
          "time": 103.03125,
          "velocity": 0.3937007874015748
        },
        {
          "duration": 0.09375,
          "durationTicks": 96,
          "midi": 76,
          "name": "E5",
          "ticks": 105600,
          "time": 103.125,
          "velocity": 0.3937007874015748
        },
        {
          "duration": 0.09375,
          "durationTicks": 96,
          "midi": 88,
          "name": "E6",
          "ticks": 105600,
          "time": 103.125,
          "velocity": 0.3937007874015748
        },
        {
          "duration": 0.09375,
          "durationTicks": 96,
          "midi": 76,
          "name": "E5",
          "ticks": 105696,
          "time": 103.21875,
          "velocity": 0.3937007874015748
        },
        {
          "duration": 0.09375,
          "durationTicks": 96,
          "midi": 88,
          "name": "E6",
          "ticks": 105696,
          "time": 103.21875,
          "velocity": 0.3937007874015748
        },
        {
          "duration": 0.09375,
          "durationTicks": 96,
          "midi": 88,
          "name": "E6",
          "ticks": 105792,
          "time": 103.3125,
          "velocity": 0.3937007874015748
        },
        {
          "duration": 0.09375,
          "durationTicks": 96,
          "midi": 76,
          "name": "E5",
          "ticks": 105792,
          "time": 103.3125,
          "velocity": 0.3937007874015748
        },
        {
          "duration": 0.09375,
          "durationTicks": 96,
          "midi": 76,
          "name": "E5",
          "ticks": 105888,
          "time": 103.40625,
          "velocity": 0.3937007874015748
        },
        {
          "duration": 0.09375,
          "durationTicks": 96,
          "midi": 88,
          "name": "E6",
          "ticks": 105888,
          "time": 103.40625,
          "velocity": 0.3937007874015748
        },
        {
          "duration": 0.09375,
          "durationTicks": 96,
          "midi": 76,
          "name": "E5",
          "ticks": 105984,
          "time": 103.5,
          "velocity": 0.3937007874015748
        },
        {
          "duration": 0.09375,
          "durationTicks": 96,
          "midi": 88,
          "name": "E6",
          "ticks": 105984,
          "time": 103.5,
          "velocity": 0.3937007874015748
        },
        {
          "duration": 0.09375,
          "durationTicks": 96,
          "midi": 76,
          "name": "E5",
          "ticks": 106080,
          "time": 103.59375,
          "velocity": 0.3937007874015748
        },
        {
          "duration": 0.09375,
          "durationTicks": 96,
          "midi": 88,
          "name": "E6",
          "ticks": 106080,
          "time": 103.59375,
          "velocity": 0.3937007874015748
        },
        {
          "duration": 0.09375,
          "durationTicks": 96,
          "midi": 88,
          "name": "E6",
          "ticks": 106176,
          "time": 103.6875,
          "velocity": 0.3937007874015748
        },
        {
          "duration": 0.09375,
          "durationTicks": 96,
          "midi": 76,
          "name": "E5",
          "ticks": 106176,
          "time": 103.6875,
          "velocity": 0.3937007874015748
        },
        {
          "duration": 0.09375,
          "durationTicks": 96,
          "midi": 88,
          "name": "E6",
          "ticks": 106272,
          "time": 103.78125,
          "velocity": 0.3937007874015748
        },
        {
          "duration": 0.09375,
          "durationTicks": 96,
          "midi": 76,
          "name": "E5",
          "ticks": 106272,
          "time": 103.78125,
          "velocity": 0.3937007874015748
        },
        {
          "duration": 0.09375,
          "durationTicks": 96,
          "midi": 88,
          "name": "E6",
          "ticks": 106368,
          "time": 103.875,
          "velocity": 0.3937007874015748
        },
        {
          "duration": 0.09375,
          "durationTicks": 96,
          "midi": 76,
          "name": "E5",
          "ticks": 106368,
          "time": 103.875,
          "velocity": 0.3937007874015748
        },
        {
          "duration": 0.09375,
          "durationTicks": 96,
          "midi": 76,
          "name": "E5",
          "ticks": 106464,
          "time": 103.96875,
          "velocity": 0.3937007874015748
        },
        {
          "duration": 0.09375,
          "durationTicks": 96,
          "midi": 88,
          "name": "E6",
          "ticks": 106464,
          "time": 103.96875,
          "velocity": 0.3937007874015748
        },
        {
          "duration": 0.09375,
          "durationTicks": 96,
          "midi": 76,
          "name": "E5",
          "ticks": 106560,
          "time": 104.0625,
          "velocity": 0.3937007874015748
        },
        {
          "duration": 0.09375,
          "durationTicks": 96,
          "midi": 88,
          "name": "E6",
          "ticks": 106560,
          "time": 104.0625,
          "velocity": 0.3937007874015748
        },
        {
          "duration": 0.09375,
          "durationTicks": 96,
          "midi": 88,
          "name": "E6",
          "ticks": 106656,
          "time": 104.15625,
          "velocity": 0.3937007874015748
        },
        {
          "duration": 0.09375,
          "durationTicks": 96,
          "midi": 76,
          "name": "E5",
          "ticks": 106656,
          "time": 104.15625,
          "velocity": 0.3937007874015748
        },
        {
          "duration": 0.09375,
          "durationTicks": 96,
          "midi": 76,
          "name": "E5",
          "ticks": 106752,
          "time": 104.25,
          "velocity": 0.3937007874015748
        },
        {
          "duration": 0.09375,
          "durationTicks": 96,
          "midi": 88,
          "name": "E6",
          "ticks": 106752,
          "time": 104.25,
          "velocity": 0.3937007874015748
        },
        {
          "duration": 0.09375,
          "durationTicks": 96,
          "midi": 88,
          "name": "E6",
          "ticks": 106848,
          "time": 104.34375,
          "velocity": 0.3937007874015748
        },
        {
          "duration": 0.09375,
          "durationTicks": 96,
          "midi": 76,
          "name": "E5",
          "ticks": 106848,
          "time": 104.34375,
          "velocity": 0.3937007874015748
        },
        {
          "duration": 0.09375,
          "durationTicks": 96,
          "midi": 76,
          "name": "E5",
          "ticks": 106944,
          "time": 104.4375,
          "velocity": 0.3937007874015748
        },
        {
          "duration": 0.09375,
          "durationTicks": 96,
          "midi": 88,
          "name": "E6",
          "ticks": 106944,
          "time": 104.4375,
          "velocity": 0.3937007874015748
        },
        {
          "duration": 0.09375,
          "durationTicks": 96,
          "midi": 88,
          "name": "E6",
          "ticks": 107040,
          "time": 104.53125,
          "velocity": 0.3937007874015748
        },
        {
          "duration": 0.09375,
          "durationTicks": 96,
          "midi": 76,
          "name": "E5",
          "ticks": 107040,
          "time": 104.53125,
          "velocity": 0.3937007874015748
        },
        {
          "duration": 0.09375,
          "durationTicks": 96,
          "midi": 88,
          "name": "E6",
          "ticks": 107136,
          "time": 104.625,
          "velocity": 0.3937007874015748
        },
        {
          "duration": 0.09375,
          "durationTicks": 96,
          "midi": 76,
          "name": "E5",
          "ticks": 107136,
          "time": 104.625,
          "velocity": 0.3937007874015748
        },
        {
          "duration": 0.09375,
          "durationTicks": 96,
          "midi": 76,
          "name": "E5",
          "ticks": 107232,
          "time": 104.71875,
          "velocity": 0.3937007874015748
        },
        {
          "duration": 0.09375,
          "durationTicks": 96,
          "midi": 88,
          "name": "E6",
          "ticks": 107232,
          "time": 104.71875,
          "velocity": 0.3937007874015748
        },
        {
          "duration": 0.09375,
          "durationTicks": 96,
          "midi": 76,
          "name": "E5",
          "ticks": 107328,
          "time": 104.8125,
          "velocity": 0.3937007874015748
        },
        {
          "duration": 0.09375,
          "durationTicks": 96,
          "midi": 88,
          "name": "E6",
          "ticks": 107328,
          "time": 104.8125,
          "velocity": 0.3937007874015748
        },
        {
          "duration": 0.09375,
          "durationTicks": 96,
          "midi": 76,
          "name": "E5",
          "ticks": 107424,
          "time": 104.90625,
          "velocity": 0.3937007874015748
        },
        {
          "duration": 0.09375,
          "durationTicks": 96,
          "midi": 88,
          "name": "E6",
          "ticks": 107424,
          "time": 104.90625,
          "velocity": 0.3937007874015748
        },
        {
          "duration": 0.09375,
          "durationTicks": 96,
          "midi": 64,
          "name": "E4",
          "ticks": 115200,
          "time": 112.5,
          "velocity": 0.3937007874015748
        },
        {
          "duration": 0.09375,
          "durationTicks": 96,
          "midi": 76,
          "name": "E5",
          "ticks": 115200,
          "time": 112.5,
          "velocity": 0.3937007874015748
        },
        {
          "duration": 0.09375,
          "durationTicks": 96,
          "midi": 67,
          "name": "G4",
          "ticks": 115392,
          "time": 112.6875,
          "velocity": 0.3937007874015748
        },
        {
          "duration": 0.09375,
          "durationTicks": 96,
          "midi": 79,
          "name": "G5",
          "ticks": 115392,
          "time": 112.6875,
          "velocity": 0.3937007874015748
        },
        {
          "duration": 0.09375,
          "durationTicks": 96,
          "midi": 71,
          "name": "B4",
          "ticks": 115584,
          "time": 112.875,
          "velocity": 0.3937007874015748
        },
        {
          "duration": 0.09375,
          "durationTicks": 96,
          "midi": 83,
          "name": "B5",
          "ticks": 115584,
          "time": 112.875,
          "velocity": 0.3937007874015748
        },
        {
          "duration": 0.09375,
          "durationTicks": 96,
          "midi": 76,
          "name": "E5",
          "ticks": 115776,
          "time": 113.0625,
          "velocity": 0.3937007874015748
        },
        {
          "duration": 0.09375,
          "durationTicks": 96,
          "midi": 88,
          "name": "E6",
          "ticks": 115776,
          "time": 113.0625,
          "velocity": 0.3937007874015748
        },
        {
          "duration": 0.09375,
          "durationTicks": 96,
          "midi": 75,
          "name": "D#5",
          "ticks": 115968,
          "time": 113.25,
          "velocity": 0.3937007874015748
        },
        {
          "duration": 0.09375,
          "durationTicks": 96,
          "midi": 87,
          "name": "D#6",
          "ticks": 115968,
          "time": 113.25,
          "velocity": 0.3937007874015748
        },
        {
          "duration": 0.1875,
          "durationTicks": 192,
          "midi": 71,
          "name": "B4",
          "ticks": 116256,
          "time": 113.53125,
          "velocity": 0.3937007874015748
        },
        {
          "duration": 0.1875,
          "durationTicks": 192,
          "midi": 83,
          "name": "B5",
          "ticks": 116256,
          "time": 113.53125,
          "velocity": 0.3937007874015748
        },
        {
          "duration": 0.1875,
          "durationTicks": 192,
          "midi": 75,
          "name": "D#5",
          "ticks": 116544,
          "time": 113.8125,
          "velocity": 0.3937007874015748
        },
        {
          "duration": 0.1875,
          "durationTicks": 192,
          "midi": 87,
          "name": "D#6",
          "ticks": 116544,
          "time": 113.8125,
          "velocity": 0.3937007874015748
        },
        {
          "duration": 0.1875,
          "durationTicks": 192,
          "midi": 86,
          "name": "D6",
          "ticks": 116736,
          "time": 114,
          "velocity": 0.3937007874015748
        },
        {
          "duration": 0.1875,
          "durationTicks": 192,
          "midi": 74,
          "name": "D5",
          "ticks": 116736,
          "time": 114,
          "velocity": 0.3937007874015748
        },
        {
          "duration": 0.1875,
          "durationTicks": 192,
          "midi": 71,
          "name": "B4",
          "ticks": 117024,
          "time": 114.28125,
          "velocity": 0.3937007874015748
        },
        {
          "duration": 0.1875,
          "durationTicks": 192,
          "midi": 83,
          "name": "B5",
          "ticks": 117024,
          "time": 114.28125,
          "velocity": 0.3937007874015748
        },
        {
          "duration": 0.1875,
          "durationTicks": 192,
          "midi": 74,
          "name": "D5",
          "ticks": 117312,
          "time": 114.5625,
          "velocity": 0.3937007874015748
        },
        {
          "duration": 0.1875,
          "durationTicks": 192,
          "midi": 86,
          "name": "D6",
          "ticks": 117312,
          "time": 114.5625,
          "velocity": 0.3937007874015748
        },
        {
          "duration": 0.1875,
          "durationTicks": 192,
          "midi": 85,
          "name": "C#6",
          "ticks": 117504,
          "time": 114.75,
          "velocity": 0.3937007874015748
        },
        {
          "duration": 0.1875,
          "durationTicks": 192,
          "midi": 73,
          "name": "C#5",
          "ticks": 117504,
          "time": 114.75,
          "velocity": 0.3937007874015748
        },
        {
          "duration": 0.1875,
          "durationTicks": 192,
          "midi": 82,
          "name": "A#5",
          "ticks": 117792,
          "time": 115.03125,
          "velocity": 0.3937007874015748
        },
        {
          "duration": 0.1875,
          "durationTicks": 192,
          "midi": 70,
          "name": "A#4",
          "ticks": 117792,
          "time": 115.03125,
          "velocity": 0.3937007874015748
        },
        {
          "duration": 0.1875,
          "durationTicks": 192,
          "midi": 67,
          "name": "G4",
          "ticks": 118080,
          "time": 115.3125,
          "velocity": 0.3937007874015748
        },
        {
          "duration": 0.1875,
          "durationTicks": 192,
          "midi": 79,
          "name": "G5",
          "ticks": 118080,
          "time": 115.3125,
          "velocity": 0.3937007874015748
        },
        {
          "duration": 0.09375,
          "durationTicks": 96,
          "midi": 64,
          "name": "E4",
          "ticks": 121344,
          "time": 118.5,
          "velocity": 0.3937007874015748
        },
        {
          "duration": 0.09375,
          "durationTicks": 96,
          "midi": 76,
          "name": "E5",
          "ticks": 121344,
          "time": 118.5,
          "velocity": 0.3937007874015748
        },
        {
          "duration": 0.09375,
          "durationTicks": 96,
          "midi": 67,
          "name": "G4",
          "ticks": 121536,
          "time": 118.6875,
          "velocity": 0.3937007874015748
        },
        {
          "duration": 0.09375,
          "durationTicks": 96,
          "midi": 79,
          "name": "G5",
          "ticks": 121536,
          "time": 118.6875,
          "velocity": 0.3937007874015748
        },
        {
          "duration": 0.09375,
          "durationTicks": 96,
          "midi": 71,
          "name": "B4",
          "ticks": 121728,
          "time": 118.875,
          "velocity": 0.3937007874015748
        },
        {
          "duration": 0.09375,
          "durationTicks": 96,
          "midi": 83,
          "name": "B5",
          "ticks": 121728,
          "time": 118.875,
          "velocity": 0.3937007874015748
        },
        {
          "duration": 0.09375,
          "durationTicks": 96,
          "midi": 88,
          "name": "E6",
          "ticks": 121920,
          "time": 119.0625,
          "velocity": 0.3937007874015748
        },
        {
          "duration": 0.09375,
          "durationTicks": 96,
          "midi": 76,
          "name": "E5",
          "ticks": 121920,
          "time": 119.0625,
          "velocity": 0.3937007874015748
        },
        {
          "duration": 0.09375,
          "durationTicks": 96,
          "midi": 75,
          "name": "D#5",
          "ticks": 122112,
          "time": 119.25,
          "velocity": 0.3937007874015748
        },
        {
          "duration": 0.09375,
          "durationTicks": 96,
          "midi": 87,
          "name": "D#6",
          "ticks": 122112,
          "time": 119.25,
          "velocity": 0.3937007874015748
        },
        {
          "duration": 0.1875,
          "durationTicks": 192,
          "midi": 83,
          "name": "B5",
          "ticks": 122400,
          "time": 119.53125,
          "velocity": 0.3937007874015748
        },
        {
          "duration": 0.1875,
          "durationTicks": 192,
          "midi": 71,
          "name": "B4",
          "ticks": 122400,
          "time": 119.53125,
          "velocity": 0.3937007874015748
        },
        {
          "duration": 0.1875,
          "durationTicks": 192,
          "midi": 75,
          "name": "D#5",
          "ticks": 122688,
          "time": 119.8125,
          "velocity": 0.3937007874015748
        },
        {
          "duration": 0.1875,
          "durationTicks": 192,
          "midi": 87,
          "name": "D#6",
          "ticks": 122688,
          "time": 119.8125,
          "velocity": 0.3937007874015748
        },
        {
          "duration": 0.1875,
          "durationTicks": 192,
          "midi": 74,
          "name": "D5",
          "ticks": 122880,
          "time": 120,
          "velocity": 0.3937007874015748
        },
        {
          "duration": 0.1875,
          "durationTicks": 192,
          "midi": 86,
          "name": "D6",
          "ticks": 122880,
          "time": 120,
          "velocity": 0.3937007874015748
        },
        {
          "duration": 0.1875,
          "durationTicks": 192,
          "midi": 83,
          "name": "B5",
          "ticks": 123168,
          "time": 120.28125,
          "velocity": 0.3937007874015748
        },
        {
          "duration": 0.1875,
          "durationTicks": 192,
          "midi": 71,
          "name": "B4",
          "ticks": 123168,
          "time": 120.28125,
          "velocity": 0.3937007874015748
        },
        {
          "duration": 0.1875,
          "durationTicks": 192,
          "midi": 74,
          "name": "D5",
          "ticks": 123456,
          "time": 120.5625,
          "velocity": 0.3937007874015748
        },
        {
          "duration": 0.1875,
          "durationTicks": 192,
          "midi": 86,
          "name": "D6",
          "ticks": 123456,
          "time": 120.5625,
          "velocity": 0.3937007874015748
        },
        {
          "duration": 0.1875,
          "durationTicks": 192,
          "midi": 85,
          "name": "C#6",
          "ticks": 123648,
          "time": 120.75,
          "velocity": 0.3937007874015748
        },
        {
          "duration": 0.1875,
          "durationTicks": 192,
          "midi": 73,
          "name": "C#5",
          "ticks": 123648,
          "time": 120.75,
          "velocity": 0.3937007874015748
        },
        {
          "duration": 0.1875,
          "durationTicks": 192,
          "midi": 82,
          "name": "A#5",
          "ticks": 123936,
          "time": 121.03125,
          "velocity": 0.3937007874015748
        },
        {
          "duration": 0.1875,
          "durationTicks": 192,
          "midi": 94,
          "name": "A#6",
          "ticks": 123936,
          "time": 121.03125,
          "velocity": 0.3937007874015748
        },
        {
          "duration": 0.1875,
          "durationTicks": 192,
          "midi": 91,
          "name": "G6",
          "ticks": 124224,
          "time": 121.3125,
          "velocity": 0.3937007874015748
        },
        {
          "duration": 0.1875,
          "durationTicks": 192,
          "midi": 79,
          "name": "G5",
          "ticks": 124224,
          "time": 121.3125,
          "velocity": 0.3937007874015748
        },
        {
          "duration": 0.09375,
          "durationTicks": 96,
          "midi": 76,
          "name": "E5",
          "ticks": 127488,
          "time": 124.5,
          "velocity": 0.3937007874015748
        },
        {
          "duration": 0.09375,
          "durationTicks": 96,
          "midi": 64,
          "name": "E4",
          "ticks": 127488,
          "time": 124.5,
          "velocity": 0.3937007874015748
        },
        {
          "duration": 0.09375,
          "durationTicks": 96,
          "midi": 79,
          "name": "G5",
          "ticks": 127680,
          "time": 124.6875,
          "velocity": 0.3937007874015748
        },
        {
          "duration": 0.09375,
          "durationTicks": 96,
          "midi": 67,
          "name": "G4",
          "ticks": 127680,
          "time": 124.6875,
          "velocity": 0.3937007874015748
        },
        {
          "duration": 0.09375,
          "durationTicks": 96,
          "midi": 83,
          "name": "B5",
          "ticks": 127872,
          "time": 124.875,
          "velocity": 0.3937007874015748
        },
        {
          "duration": 0.09375,
          "durationTicks": 96,
          "midi": 71,
          "name": "B4",
          "ticks": 127872,
          "time": 124.875,
          "velocity": 0.3937007874015748
        },
        {
          "duration": 0.09375,
          "durationTicks": 96,
          "midi": 88,
          "name": "E6",
          "ticks": 128064,
          "time": 125.0625,
          "velocity": 0.3937007874015748
        },
        {
          "duration": 0.09375,
          "durationTicks": 96,
          "midi": 76,
          "name": "E5",
          "ticks": 128064,
          "time": 125.0625,
          "velocity": 0.3937007874015748
        },
        {
          "duration": 0.09375,
          "durationTicks": 96,
          "midi": 75,
          "name": "D#5",
          "ticks": 128256,
          "time": 125.25,
          "velocity": 0.3937007874015748
        },
        {
          "duration": 0.09375,
          "durationTicks": 96,
          "midi": 87,
          "name": "D#6",
          "ticks": 128256,
          "time": 125.25,
          "velocity": 0.3937007874015748
        },
        {
          "duration": 0.1875,
          "durationTicks": 192,
          "midi": 83,
          "name": "B5",
          "ticks": 128544,
          "time": 125.53125,
          "velocity": 0.3937007874015748
        },
        {
          "duration": 0.1875,
          "durationTicks": 192,
          "midi": 71,
          "name": "B4",
          "ticks": 128544,
          "time": 125.53125,
          "velocity": 0.3937007874015748
        },
        {
          "duration": 0.1875,
          "durationTicks": 192,
          "midi": 75,
          "name": "D#5",
          "ticks": 128832,
          "time": 125.8125,
          "velocity": 0.3937007874015748
        },
        {
          "duration": 0.1875,
          "durationTicks": 192,
          "midi": 87,
          "name": "D#6",
          "ticks": 128832,
          "time": 125.8125,
          "velocity": 0.3937007874015748
        },
        {
          "duration": 0.1875,
          "durationTicks": 192,
          "midi": 86,
          "name": "D6",
          "ticks": 129024,
          "time": 126,
          "velocity": 0.3937007874015748
        },
        {
          "duration": 0.1875,
          "durationTicks": 192,
          "midi": 74,
          "name": "D5",
          "ticks": 129024,
          "time": 126,
          "velocity": 0.3937007874015748
        },
        {
          "duration": 0.1875,
          "durationTicks": 192,
          "midi": 83,
          "name": "B5",
          "ticks": 129312,
          "time": 126.28125,
          "velocity": 0.3937007874015748
        },
        {
          "duration": 0.1875,
          "durationTicks": 192,
          "midi": 71,
          "name": "B4",
          "ticks": 129312,
          "time": 126.28125,
          "velocity": 0.3937007874015748
        },
        {
          "duration": 0.1875,
          "durationTicks": 192,
          "midi": 86,
          "name": "D6",
          "ticks": 129600,
          "time": 126.5625,
          "velocity": 0.3937007874015748
        },
        {
          "duration": 0.1875,
          "durationTicks": 192,
          "midi": 74,
          "name": "D5",
          "ticks": 129600,
          "time": 126.5625,
          "velocity": 0.3937007874015748
        },
        {
          "duration": 0.1875,
          "durationTicks": 192,
          "midi": 85,
          "name": "C#6",
          "ticks": 129792,
          "time": 126.75,
          "velocity": 0.3937007874015748
        },
        {
          "duration": 0.1875,
          "durationTicks": 192,
          "midi": 73,
          "name": "C#5",
          "ticks": 129792,
          "time": 126.75,
          "velocity": 0.3937007874015748
        },
        {
          "duration": 0.1875,
          "durationTicks": 192,
          "midi": 94,
          "name": "A#6",
          "ticks": 130080,
          "time": 127.03125,
          "velocity": 0.3937007874015748
        },
        {
          "duration": 0.1875,
          "durationTicks": 192,
          "midi": 82,
          "name": "A#5",
          "ticks": 130080,
          "time": 127.03125,
          "velocity": 0.3937007874015748
        },
        {
          "duration": 0.1875,
          "durationTicks": 192,
          "midi": 91,
          "name": "G6",
          "ticks": 130368,
          "time": 127.3125,
          "velocity": 0.3937007874015748
        },
        {
          "duration": 0.1875,
          "durationTicks": 192,
          "midi": 79,
          "name": "G5",
          "ticks": 130368,
          "time": 127.3125,
          "velocity": 0.3937007874015748
        },
        {
          "duration": 0.09375,
          "durationTicks": 96,
          "midi": 76,
          "name": "E5",
          "ticks": 133632,
          "time": 130.5,
          "velocity": 0.3937007874015748
        },
        {
          "duration": 0.09375,
          "durationTicks": 96,
          "midi": 64,
          "name": "E4",
          "ticks": 133632,
          "time": 130.5,
          "velocity": 0.3937007874015748
        },
        {
          "duration": 0.09375,
          "durationTicks": 96,
          "midi": 79,
          "name": "G5",
          "ticks": 133824,
          "time": 130.6875,
          "velocity": 0.3937007874015748
        },
        {
          "duration": 0.09375,
          "durationTicks": 96,
          "midi": 67,
          "name": "G4",
          "ticks": 133824,
          "time": 130.6875,
          "velocity": 0.3937007874015748
        },
        {
          "duration": 0.09375,
          "durationTicks": 96,
          "midi": 83,
          "name": "B5",
          "ticks": 134016,
          "time": 130.875,
          "velocity": 0.3937007874015748
        },
        {
          "duration": 0.09375,
          "durationTicks": 96,
          "midi": 71,
          "name": "B4",
          "ticks": 134016,
          "time": 130.875,
          "velocity": 0.3937007874015748
        },
        {
          "duration": 0.09375,
          "durationTicks": 96,
          "midi": 76,
          "name": "E5",
          "ticks": 134208,
          "time": 131.0625,
          "velocity": 0.3937007874015748
        },
        {
          "duration": 0.09375,
          "durationTicks": 96,
          "midi": 88,
          "name": "E6",
          "ticks": 134208,
          "time": 131.0625,
          "velocity": 0.3937007874015748
        },
        {
          "duration": 0.09375,
          "durationTicks": 96,
          "midi": 75,
          "name": "D#5",
          "ticks": 134400,
          "time": 131.25,
          "velocity": 0.3937007874015748
        },
        {
          "duration": 0.09375,
          "durationTicks": 96,
          "midi": 87,
          "name": "D#6",
          "ticks": 134400,
          "time": 131.25,
          "velocity": 0.3937007874015748
        },
        {
          "duration": 0.1875,
          "durationTicks": 192,
          "midi": 71,
          "name": "B4",
          "ticks": 134688,
          "time": 131.53125,
          "velocity": 0.3937007874015748
        },
        {
          "duration": 0.1875,
          "durationTicks": 192,
          "midi": 83,
          "name": "B5",
          "ticks": 134688,
          "time": 131.53125,
          "velocity": 0.3937007874015748
        },
        {
          "duration": 0.1875,
          "durationTicks": 192,
          "midi": 87,
          "name": "D#6",
          "ticks": 134976,
          "time": 131.8125,
          "velocity": 0.3937007874015748
        },
        {
          "duration": 0.1875,
          "durationTicks": 192,
          "midi": 75,
          "name": "D#5",
          "ticks": 134976,
          "time": 131.8125,
          "velocity": 0.3937007874015748
        },
        {
          "duration": 0.1875,
          "durationTicks": 192,
          "midi": 86,
          "name": "D6",
          "ticks": 135168,
          "time": 132,
          "velocity": 0.3937007874015748
        },
        {
          "duration": 0.1875,
          "durationTicks": 192,
          "midi": 74,
          "name": "D5",
          "ticks": 135168,
          "time": 132,
          "velocity": 0.3937007874015748
        },
        {
          "duration": 0.1875,
          "durationTicks": 192,
          "midi": 71,
          "name": "B4",
          "ticks": 135456,
          "time": 132.28125,
          "velocity": 0.3937007874015748
        },
        {
          "duration": 0.1875,
          "durationTicks": 192,
          "midi": 83,
          "name": "B5",
          "ticks": 135456,
          "time": 132.28125,
          "velocity": 0.3937007874015748
        },
        {
          "duration": 0.1875,
          "durationTicks": 192,
          "midi": 86,
          "name": "D6",
          "ticks": 135744,
          "time": 132.5625,
          "velocity": 0.3937007874015748
        },
        {
          "duration": 0.1875,
          "durationTicks": 192,
          "midi": 74,
          "name": "D5",
          "ticks": 135744,
          "time": 132.5625,
          "velocity": 0.3937007874015748
        },
        {
          "duration": 0.1875,
          "durationTicks": 192,
          "midi": 85,
          "name": "C#6",
          "ticks": 135936,
          "time": 132.75,
          "velocity": 0.3937007874015748
        },
        {
          "duration": 0.1875,
          "durationTicks": 192,
          "midi": 73,
          "name": "C#5",
          "ticks": 135936,
          "time": 132.75,
          "velocity": 0.3937007874015748
        },
        {
          "duration": 0.1875,
          "durationTicks": 192,
          "midi": 94,
          "name": "A#6",
          "ticks": 136224,
          "time": 133.03125,
          "velocity": 0.3937007874015748
        },
        {
          "duration": 0.1875,
          "durationTicks": 192,
          "midi": 82,
          "name": "A#5",
          "ticks": 136224,
          "time": 133.03125,
          "velocity": 0.3937007874015748
        },
        {
          "duration": 0.1875,
          "durationTicks": 192,
          "midi": 91,
          "name": "G6",
          "ticks": 136512,
          "time": 133.3125,
          "velocity": 0.3937007874015748
        },
        {
          "duration": 0.1875,
          "durationTicks": 192,
          "midi": 79,
          "name": "G5",
          "ticks": 136512,
          "time": 133.3125,
          "velocity": 0.3937007874015748
        },
        {
          "duration": 0.09375,
          "durationTicks": 96,
          "midi": 64,
          "name": "E4",
          "ticks": 138240,
          "time": 135,
          "velocity": 0.3937007874015748
        },
        {
          "duration": 0.09375,
          "durationTicks": 96,
          "midi": 76,
          "name": "E5",
          "ticks": 138240,
          "time": 135,
          "velocity": 0.3937007874015748
        },
        {
          "duration": 0.09375,
          "durationTicks": 96,
          "midi": 76,
          "name": "E5",
          "ticks": 138240,
          "time": 135,
          "velocity": 0.3937007874015748
        },
        {
          "duration": 0.09375,
          "durationTicks": 96,
          "midi": 64,
          "name": "E4",
          "ticks": 138240,
          "time": 135,
          "velocity": 0.3937007874015748
        },
        {
          "duration": 0.09375,
          "durationTicks": 96,
          "midi": 62,
          "name": "D4",
          "ticks": 138528,
          "time": 135.28125,
          "velocity": 0.3937007874015748
        },
        {
          "duration": 0.09375,
          "durationTicks": 96,
          "midi": 74,
          "name": "D5",
          "ticks": 138528,
          "time": 135.28125,
          "velocity": 0.3937007874015748
        },
        {
          "duration": 0.09375,
          "durationTicks": 96,
          "midi": 62,
          "name": "D4",
          "ticks": 138528,
          "time": 135.28125,
          "velocity": 0.3937007874015748
        },
        {
          "duration": 0.09375,
          "durationTicks": 96,
          "midi": 74,
          "name": "D5",
          "ticks": 138528,
          "time": 135.28125,
          "velocity": 0.3937007874015748
        },
        {
          "duration": 0.09375,
          "durationTicks": 96,
          "midi": 72,
          "name": "C5",
          "ticks": 138816,
          "time": 135.5625,
          "velocity": 0.3937007874015748
        },
        {
          "duration": 0.09375,
          "durationTicks": 96,
          "midi": 72,
          "name": "C5",
          "ticks": 138816,
          "time": 135.5625,
          "velocity": 0.3937007874015748
        },
        {
          "duration": 0.09375,
          "durationTicks": 96,
          "midi": 60,
          "name": "C4",
          "ticks": 138816,
          "time": 135.5625,
          "velocity": 0.3937007874015748
        },
        {
          "duration": 0.09375,
          "durationTicks": 96,
          "midi": 60,
          "name": "C4",
          "ticks": 138816,
          "time": 135.5625,
          "velocity": 0.3937007874015748
        },
        {
          "duration": 0.125,
          "durationTicks": 128,
          "midi": 71,
          "name": "B4",
          "ticks": 139008,
          "time": 135.75,
          "velocity": 0.3937007874015748
        },
        {
          "duration": 0.125,
          "durationTicks": 128,
          "midi": 59,
          "name": "B3",
          "ticks": 139008,
          "time": 135.75,
          "velocity": 0.3937007874015748
        },
        {
          "duration": 0.125,
          "durationTicks": 128,
          "midi": 71,
          "name": "B4",
          "ticks": 139008,
          "time": 135.75,
          "velocity": 0.3937007874015748
        },
        {
          "duration": 0.125,
          "durationTicks": 128,
          "midi": 59,
          "name": "B3",
          "ticks": 139008,
          "time": 135.75,
          "velocity": 0.3937007874015748
        },
        {
          "duration": 0.125,
          "durationTicks": 128,
          "midi": 60,
          "name": "C4",
          "ticks": 139136,
          "time": 135.875,
          "velocity": 0.3937007874015748
        },
        {
          "duration": 0.125,
          "durationTicks": 128,
          "midi": 72,
          "name": "C5",
          "ticks": 139136,
          "time": 135.875,
          "velocity": 0.3937007874015748
        },
        {
          "duration": 0.125,
          "durationTicks": 128,
          "midi": 60,
          "name": "C4",
          "ticks": 139136,
          "time": 135.875,
          "velocity": 0.3937007874015748
        },
        {
          "duration": 0.125,
          "durationTicks": 128,
          "midi": 72,
          "name": "C5",
          "ticks": 139136,
          "time": 135.875,
          "velocity": 0.3937007874015748
        },
        {
          "duration": 0.125,
          "durationTicks": 128,
          "midi": 59,
          "name": "B3",
          "ticks": 139264,
          "time": 136,
          "velocity": 0.3937007874015748
        },
        {
          "duration": 0.125,
          "durationTicks": 128,
          "midi": 71,
          "name": "B4",
          "ticks": 139264,
          "time": 136,
          "velocity": 0.3937007874015748
        },
        {
          "duration": 0.125,
          "durationTicks": 128,
          "midi": 59,
          "name": "B3",
          "ticks": 139264,
          "time": 136,
          "velocity": 0.3937007874015748
        },
        {
          "duration": 0.125,
          "durationTicks": 128,
          "midi": 71,
          "name": "B4",
          "ticks": 139264,
          "time": 136,
          "velocity": 0.3937007874015748
        },
        {
          "duration": 0.125,
          "durationTicks": 128,
          "midi": 57,
          "name": "A3",
          "ticks": 139392,
          "time": 136.125,
          "velocity": 0.3937007874015748
        },
        {
          "duration": 0.125,
          "durationTicks": 128,
          "midi": 57,
          "name": "A3",
          "ticks": 139392,
          "time": 136.125,
          "velocity": 0.3937007874015748
        },
        {
          "duration": 0.125,
          "durationTicks": 128,
          "midi": 69,
          "name": "A4",
          "ticks": 139392,
          "time": 136.125,
          "velocity": 0.3937007874015748
        },
        {
          "duration": 0.125,
          "durationTicks": 128,
          "midi": 69,
          "name": "A4",
          "ticks": 139392,
          "time": 136.125,
          "velocity": 0.3937007874015748
        },
        {
          "duration": 0.125,
          "durationTicks": 128,
          "midi": 67,
          "name": "G4",
          "ticks": 139520,
          "time": 136.25,
          "velocity": 0.3937007874015748
        },
        {
          "duration": 0.125,
          "durationTicks": 128,
          "midi": 67,
          "name": "G4",
          "ticks": 139520,
          "time": 136.25,
          "velocity": 0.3937007874015748
        },
        {
          "duration": 0.125,
          "durationTicks": 128,
          "midi": 55,
          "name": "G3",
          "ticks": 139520,
          "time": 136.25,
          "velocity": 0.3937007874015748
        },
        {
          "duration": 0.125,
          "durationTicks": 128,
          "midi": 55,
          "name": "G3",
          "ticks": 139520,
          "time": 136.25,
          "velocity": 0.3937007874015748
        },
        {
          "duration": 0.125,
          "durationTicks": 128,
          "midi": 54,
          "name": "F#3",
          "ticks": 139648,
          "time": 136.375,
          "velocity": 0.3937007874015748
        },
        {
          "duration": 0.125,
          "durationTicks": 128,
          "midi": 54,
          "name": "F#3",
          "ticks": 139648,
          "time": 136.375,
          "velocity": 0.3937007874015748
        },
        {
          "duration": 0.125,
          "durationTicks": 128,
          "midi": 66,
          "name": "F#4",
          "ticks": 139648,
          "time": 136.375,
          "velocity": 0.3937007874015748
        },
        {
          "duration": 0.125,
          "durationTicks": 128,
          "midi": 66,
          "name": "F#4",
          "ticks": 139648,
          "time": 136.375,
          "velocity": 0.3937007874015748
        },
        {
          "duration": 0.09375,
          "durationTicks": 96,
          "midi": 71,
          "name": "B4",
          "ticks": 152064,
          "time": 148.5,
          "velocity": 0.3937007874015748
        },
        {
          "duration": 0.09375,
          "durationTicks": 96,
          "midi": 59,
          "name": "B3",
          "ticks": 152064,
          "time": 148.5,
          "velocity": 0.3937007874015748
        },
        {
          "duration": 0.09375,
          "durationTicks": 96,
          "midi": 71,
          "name": "B4",
          "ticks": 152256,
          "time": 148.6875,
          "velocity": 0.3937007874015748
        },
        {
          "duration": 0.09375,
          "durationTicks": 96,
          "midi": 59,
          "name": "B3",
          "ticks": 152256,
          "time": 148.6875,
          "velocity": 0.3937007874015748
        },
        {
          "duration": 0.09375,
          "durationTicks": 96,
          "midi": 72,
          "name": "C5",
          "ticks": 152640,
          "time": 149.0625,
          "velocity": 0.3937007874015748
        },
        {
          "duration": 0.09375,
          "durationTicks": 96,
          "midi": 60,
          "name": "C4",
          "ticks": 152640,
          "time": 149.0625,
          "velocity": 0.3937007874015748
        },
        {
          "duration": 0.09375,
          "durationTicks": 96,
          "midi": 60,
          "name": "C4",
          "ticks": 152832,
          "time": 149.25,
          "velocity": 0.3937007874015748
        },
        {
          "duration": 0.09375,
          "durationTicks": 96,
          "midi": 72,
          "name": "C5",
          "ticks": 152832,
          "time": 149.25,
          "velocity": 0.3937007874015748
        },
        {
          "duration": 0.09375,
          "durationTicks": 96,
          "midi": 71,
          "name": "B4",
          "ticks": 153216,
          "time": 149.625,
          "velocity": 0.3937007874015748
        },
        {
          "duration": 0.09375,
          "durationTicks": 96,
          "midi": 59,
          "name": "B3",
          "ticks": 153216,
          "time": 149.625,
          "velocity": 0.3937007874015748
        },
        {
          "duration": 0.09375,
          "durationTicks": 96,
          "midi": 71,
          "name": "B4",
          "ticks": 153408,
          "time": 149.8125,
          "velocity": 0.3937007874015748
        },
        {
          "duration": 0.09375,
          "durationTicks": 96,
          "midi": 59,
          "name": "B3",
          "ticks": 153408,
          "time": 149.8125,
          "velocity": 0.3937007874015748
        },
        {
          "duration": 0.09375,
          "durationTicks": 96,
          "midi": 66,
          "name": "F#4",
          "ticks": 153792,
          "time": 150.1875,
          "velocity": 0.3937007874015748
        },
        {
          "duration": 0.09375,
          "durationTicks": 96,
          "midi": 54,
          "name": "F#3",
          "ticks": 153792,
          "time": 150.1875,
          "velocity": 0.3937007874015748
        },
        {
          "duration": 0.09375,
          "durationTicks": 96,
          "midi": 66,
          "name": "F#4",
          "ticks": 153984,
          "time": 150.375,
          "velocity": 0.3937007874015748
        },
        {
          "duration": 0.09375,
          "durationTicks": 96,
          "midi": 54,
          "name": "F#3",
          "ticks": 153984,
          "time": 150.375,
          "velocity": 0.3937007874015748
        },
        {
          "duration": 0.09375,
          "durationTicks": 96,
          "midi": 59,
          "name": "B3",
          "ticks": 155136,
          "time": 151.5,
          "velocity": 0.3937007874015748
        },
        {
          "duration": 0.09375,
          "durationTicks": 96,
          "midi": 71,
          "name": "B4",
          "ticks": 155136,
          "time": 151.5,
          "velocity": 0.3937007874015748
        },
        {
          "duration": 0.09375,
          "durationTicks": 96,
          "midi": 71,
          "name": "B4",
          "ticks": 155328,
          "time": 151.6875,
          "velocity": 0.3937007874015748
        },
        {
          "duration": 0.09375,
          "durationTicks": 96,
          "midi": 59,
          "name": "B3",
          "ticks": 155328,
          "time": 151.6875,
          "velocity": 0.3937007874015748
        },
        {
          "duration": 0.09375,
          "durationTicks": 96,
          "midi": 72,
          "name": "C5",
          "ticks": 155712,
          "time": 152.0625,
          "velocity": 0.3937007874015748
        },
        {
          "duration": 0.09375,
          "durationTicks": 96,
          "midi": 60,
          "name": "C4",
          "ticks": 155712,
          "time": 152.0625,
          "velocity": 0.3937007874015748
        },
        {
          "duration": 0.09375,
          "durationTicks": 96,
          "midi": 60,
          "name": "C4",
          "ticks": 155904,
          "time": 152.25,
          "velocity": 0.3937007874015748
        },
        {
          "duration": 0.09375,
          "durationTicks": 96,
          "midi": 72,
          "name": "C5",
          "ticks": 155904,
          "time": 152.25,
          "velocity": 0.3937007874015748
        },
        {
          "duration": 0.09375,
          "durationTicks": 96,
          "midi": 71,
          "name": "B4",
          "ticks": 156288,
          "time": 152.625,
          "velocity": 0.3937007874015748
        },
        {
          "duration": 0.09375,
          "durationTicks": 96,
          "midi": 59,
          "name": "B3",
          "ticks": 156288,
          "time": 152.625,
          "velocity": 0.3937007874015748
        },
        {
          "duration": 0.09375,
          "durationTicks": 96,
          "midi": 71,
          "name": "B4",
          "ticks": 156480,
          "time": 152.8125,
          "velocity": 0.3937007874015748
        },
        {
          "duration": 0.09375,
          "durationTicks": 96,
          "midi": 59,
          "name": "B3",
          "ticks": 156480,
          "time": 152.8125,
          "velocity": 0.3937007874015748
        },
        {
          "duration": 0.09375,
          "durationTicks": 96,
          "midi": 71,
          "name": "B4",
          "ticks": 156864,
          "time": 153.1875,
          "velocity": 0.3937007874015748
        },
        {
          "duration": 0.09375,
          "durationTicks": 96,
          "midi": 59,
          "name": "B3",
          "ticks": 156864,
          "time": 153.1875,
          "velocity": 0.3937007874015748
        },
        {
          "duration": 0.09375,
          "durationTicks": 96,
          "midi": 69,
          "name": "A4",
          "ticks": 159360,
          "time": 155.625,
          "velocity": 0.3937007874015748
        },
        {
          "duration": 0.09375,
          "durationTicks": 96,
          "midi": 81,
          "name": "A5",
          "ticks": 159360,
          "time": 155.625,
          "velocity": 0.3937007874015748
        },
        {
          "duration": 0.09375,
          "durationTicks": 96,
          "midi": 83,
          "name": "B5",
          "ticks": 159456,
          "time": 155.71875,
          "velocity": 0.3937007874015748
        },
        {
          "duration": 0.09375,
          "durationTicks": 96,
          "midi": 71,
          "name": "B4",
          "ticks": 159456,
          "time": 155.71875,
          "velocity": 0.3937007874015748
        },
        {
          "duration": 0.09375,
          "durationTicks": 96,
          "midi": 84,
          "name": "C6",
          "ticks": 159552,
          "time": 155.8125,
          "velocity": 0.3937007874015748
        },
        {
          "duration": 0.09375,
          "durationTicks": 96,
          "midi": 72,
          "name": "C5",
          "ticks": 159552,
          "time": 155.8125,
          "velocity": 0.3937007874015748
        },
        {
          "duration": 0.09375,
          "durationTicks": 96,
          "midi": 74,
          "name": "D5",
          "ticks": 159648,
          "time": 155.90625,
          "velocity": 0.3937007874015748
        },
        {
          "duration": 0.09375,
          "durationTicks": 96,
          "midi": 86,
          "name": "D6",
          "ticks": 159648,
          "time": 155.90625,
          "velocity": 0.3937007874015748
        },
        {
          "duration": 0.09375,
          "durationTicks": 96,
          "midi": 88,
          "name": "E6",
          "ticks": 159744,
          "time": 156,
          "velocity": 0.3937007874015748
        },
        {
          "duration": 0.09375,
          "durationTicks": 96,
          "midi": 76,
          "name": "E5",
          "ticks": 159744,
          "time": 156,
          "velocity": 0.3937007874015748
        },
        {
          "duration": 0.09375,
          "durationTicks": 96,
          "midi": 83,
          "name": "B5",
          "ticks": 159744,
          "time": 156,
          "velocity": 0.3937007874015748
        },
        {
          "duration": 0.09375,
          "durationTicks": 96,
          "midi": 79,
          "name": "G5",
          "ticks": 159744,
          "time": 156,
          "velocity": 0.3937007874015748
        },
        {
          "duration": 0.09375,
          "durationTicks": 96,
          "midi": 83,
          "name": "B5",
          "ticks": 160320,
          "time": 156.5625,
          "velocity": 0.3937007874015748
        },
        {
          "duration": 0.09375,
          "durationTicks": 96,
          "midi": 76,
          "name": "E5",
          "ticks": 160320,
          "time": 156.5625,
          "velocity": 0.3937007874015748
        },
        {
          "duration": 0.09375,
          "durationTicks": 96,
          "midi": 79,
          "name": "G5",
          "ticks": 160320,
          "time": 156.5625,
          "velocity": 0.3937007874015748
        },
        {
          "duration": 0.09375,
          "durationTicks": 96,
          "midi": 71,
          "name": "B4",
          "ticks": 160320,
          "time": 156.5625,
          "velocity": 0.3937007874015748
        },
        {
          "duration": 0.09375,
          "durationTicks": 96,
          "midi": 76,
          "name": "E5",
          "ticks": 160896,
          "time": 157.125,
          "velocity": 0.3937007874015748
        },
        {
          "duration": 0.09375,
          "durationTicks": 96,
          "midi": 79,
          "name": "G5",
          "ticks": 160896,
          "time": 157.125,
          "velocity": 0.3937007874015748
        },
        {
          "duration": 0.09375,
          "durationTicks": 96,
          "midi": 88,
          "name": "E6",
          "ticks": 160896,
          "time": 157.125,
          "velocity": 0.3937007874015748
        },
        {
          "duration": 0.09375,
          "durationTicks": 96,
          "midi": 83,
          "name": "B5",
          "ticks": 160896,
          "time": 157.125,
          "velocity": 0.3937007874015748
        },
        {
          "duration": 0.09375,
          "durationTicks": 96,
          "midi": 83,
          "name": "B5",
          "ticks": 161280,
          "time": 157.5,
          "velocity": 0.3937007874015748
        },
        {
          "duration": 0.09375,
          "durationTicks": 96,
          "midi": 87,
          "name": "D#6",
          "ticks": 161280,
          "time": 157.5,
          "velocity": 0.3937007874015748
        },
        {
          "duration": 0.09375,
          "durationTicks": 96,
          "midi": 78,
          "name": "F#5",
          "ticks": 161280,
          "time": 157.5,
          "velocity": 0.3937007874015748
        },
        {
          "duration": 0.09375,
          "durationTicks": 96,
          "midi": 75,
          "name": "D#5",
          "ticks": 161280,
          "time": 157.5,
          "velocity": 0.3937007874015748
        },
        {
          "duration": 0.09375,
          "durationTicks": 96,
          "midi": 75,
          "name": "D#5",
          "ticks": 161856,
          "time": 158.0625,
          "velocity": 0.3937007874015748
        },
        {
          "duration": 0.09375,
          "durationTicks": 96,
          "midi": 83,
          "name": "B5",
          "ticks": 161856,
          "time": 158.0625,
          "velocity": 0.3937007874015748
        },
        {
          "duration": 0.09375,
          "durationTicks": 96,
          "midi": 71,
          "name": "B4",
          "ticks": 161856,
          "time": 158.0625,
          "velocity": 0.3937007874015748
        },
        {
          "duration": 0.09375,
          "durationTicks": 96,
          "midi": 78,
          "name": "F#5",
          "ticks": 161856,
          "time": 158.0625,
          "velocity": 0.3937007874015748
        },
        {
          "duration": 0.09375,
          "durationTicks": 96,
          "midi": 78,
          "name": "F#5",
          "ticks": 162816,
          "time": 159,
          "velocity": 0.3937007874015748
        },
        {
          "duration": 0.09375,
          "durationTicks": 96,
          "midi": 74,
          "name": "D5",
          "ticks": 162816,
          "time": 159,
          "velocity": 0.3937007874015748
        },
        {
          "duration": 0.09375,
          "durationTicks": 96,
          "midi": 83,
          "name": "B5",
          "ticks": 162816,
          "time": 159,
          "velocity": 0.3937007874015748
        },
        {
          "duration": 0.09375,
          "durationTicks": 96,
          "midi": 86,
          "name": "D6",
          "ticks": 162816,
          "time": 159,
          "velocity": 0.3937007874015748
        },
        {
          "duration": 0.09375,
          "durationTicks": 96,
          "midi": 88,
          "name": "E6",
          "ticks": 163392,
          "time": 159.5625,
          "velocity": 0.3937007874015748
        },
        {
          "duration": 0.09375,
          "durationTicks": 96,
          "midi": 76,
          "name": "E5",
          "ticks": 163392,
          "time": 159.5625,
          "velocity": 0.3937007874015748
        },
        {
          "duration": 0.09375,
          "durationTicks": 96,
          "midi": 86,
          "name": "D6",
          "ticks": 163968,
          "time": 160.125,
          "velocity": 0.3937007874015748
        },
        {
          "duration": 0.09375,
          "durationTicks": 96,
          "midi": 74,
          "name": "D5",
          "ticks": 163968,
          "time": 160.125,
          "velocity": 0.3937007874015748
        },
        {
          "duration": 0.09375,
          "durationTicks": 96,
          "midi": 82,
          "name": "A#5",
          "ticks": 164352,
          "time": 160.5,
          "velocity": 0.3937007874015748
        },
        {
          "duration": 0.09375,
          "durationTicks": 96,
          "midi": 85,
          "name": "C#6",
          "ticks": 164352,
          "time": 160.5,
          "velocity": 0.3937007874015748
        },
        {
          "duration": 0.09375,
          "durationTicks": 96,
          "midi": 78,
          "name": "F#5",
          "ticks": 164352,
          "time": 160.5,
          "velocity": 0.3937007874015748
        },
        {
          "duration": 0.09375,
          "durationTicks": 96,
          "midi": 73,
          "name": "C#5",
          "ticks": 164352,
          "time": 160.5,
          "velocity": 0.3937007874015748
        },
        {
          "duration": 0.09375,
          "durationTicks": 96,
          "midi": 71,
          "name": "B4",
          "ticks": 164640,
          "time": 160.78125,
          "velocity": 0.3937007874015748
        },
        {
          "duration": 0.09375,
          "durationTicks": 96,
          "midi": 83,
          "name": "B5",
          "ticks": 164640,
          "time": 160.78125,
          "velocity": 0.3937007874015748
        },
        {
          "duration": 0.09375,
          "durationTicks": 96,
          "midi": 69,
          "name": "A4",
          "ticks": 164928,
          "time": 161.0625,
          "velocity": 0.3937007874015748
        },
        {
          "duration": 0.09375,
          "durationTicks": 96,
          "midi": 81,
          "name": "A5",
          "ticks": 164928,
          "time": 161.0625,
          "velocity": 0.3937007874015748
        },
        {
          "duration": 0.09375,
          "durationTicks": 96,
          "midi": 81,
          "name": "A5",
          "ticks": 165504,
          "time": 161.625,
          "velocity": 0.3937007874015748
        },
        {
          "duration": 0.09375,
          "durationTicks": 96,
          "midi": 69,
          "name": "A4",
          "ticks": 165504,
          "time": 161.625,
          "velocity": 0.3937007874015748
        },
        {
          "duration": 0.09375,
          "durationTicks": 96,
          "midi": 83,
          "name": "B5",
          "ticks": 165696,
          "time": 161.8125,
          "velocity": 0.3937007874015748
        },
        {
          "duration": 0.09375,
          "durationTicks": 96,
          "midi": 71,
          "name": "B4",
          "ticks": 165696,
          "time": 161.8125,
          "velocity": 0.3937007874015748
        },
        {
          "duration": 0.09375,
          "durationTicks": 96,
          "midi": 84,
          "name": "C6",
          "ticks": 165888,
          "time": 162,
          "velocity": 0.3937007874015748
        },
        {
          "duration": 0.09375,
          "durationTicks": 96,
          "midi": 72,
          "name": "C5",
          "ticks": 165888,
          "time": 162,
          "velocity": 0.3937007874015748
        },
        {
          "duration": 0.09375,
          "durationTicks": 96,
          "midi": 74,
          "name": "D5",
          "ticks": 166176,
          "time": 162.28125,
          "velocity": 0.3937007874015748
        },
        {
          "duration": 0.09375,
          "durationTicks": 96,
          "midi": 86,
          "name": "D6",
          "ticks": 166176,
          "time": 162.28125,
          "velocity": 0.3937007874015748
        },
        {
          "duration": 0.09375,
          "durationTicks": 96,
          "midi": 75,
          "name": "D#5",
          "ticks": 166464,
          "time": 162.5625,
          "velocity": 0.3937007874015748
        },
        {
          "duration": 0.09375,
          "durationTicks": 96,
          "midi": 87,
          "name": "D#6",
          "ticks": 166464,
          "time": 162.5625,
          "velocity": 0.3937007874015748
        },
        {
          "duration": 0.09375,
          "durationTicks": 96,
          "midi": 88,
          "name": "E6",
          "ticks": 166656,
          "time": 162.75,
          "velocity": 0.3937007874015748
        },
        {
          "duration": 0.09375,
          "durationTicks": 96,
          "midi": 76,
          "name": "E5",
          "ticks": 166656,
          "time": 162.75,
          "velocity": 0.3937007874015748
        },
        {
          "duration": 0.09375,
          "durationTicks": 96,
          "midi": 83,
          "name": "B5",
          "ticks": 166944,
          "time": 163.03125,
          "velocity": 0.3937007874015748
        },
        {
          "duration": 0.09375,
          "durationTicks": 96,
          "midi": 71,
          "name": "B4",
          "ticks": 166944,
          "time": 163.03125,
          "velocity": 0.3937007874015748
        },
        {
          "duration": 0.09375,
          "durationTicks": 96,
          "midi": 79,
          "name": "G5",
          "ticks": 167232,
          "time": 163.3125,
          "velocity": 0.3937007874015748
        },
        {
          "duration": 0.09375,
          "durationTicks": 96,
          "midi": 67,
          "name": "G4",
          "ticks": 167232,
          "time": 163.3125,
          "velocity": 0.3937007874015748
        },
        {
          "duration": 0.09375,
          "durationTicks": 96,
          "midi": 81,
          "name": "A5",
          "ticks": 167424,
          "time": 163.5,
          "velocity": 0.3937007874015748
        },
        {
          "duration": 0.09375,
          "durationTicks": 96,
          "midi": 78,
          "name": "F#5",
          "ticks": 167424,
          "time": 163.5,
          "velocity": 0.3937007874015748
        },
        {
          "duration": 0.09375,
          "durationTicks": 96,
          "midi": 75,
          "name": "D#5",
          "ticks": 167424,
          "time": 163.5,
          "velocity": 0.3937007874015748
        },
        {
          "duration": 0.09375,
          "durationTicks": 96,
          "midi": 69,
          "name": "A4",
          "ticks": 167424,
          "time": 163.5,
          "velocity": 0.3937007874015748
        },
        {
          "duration": 0.09375,
          "durationTicks": 96,
          "midi": 71,
          "name": "B4",
          "ticks": 167712,
          "time": 163.78125,
          "velocity": 0.3937007874015748
        },
        {
          "duration": 0.09375,
          "durationTicks": 96,
          "midi": 83,
          "name": "B5",
          "ticks": 167712,
          "time": 163.78125,
          "velocity": 0.3937007874015748
        },
        {
          "duration": 0.09375,
          "durationTicks": 96,
          "midi": 72,
          "name": "C5",
          "ticks": 168000,
          "time": 164.0625,
          "velocity": 0.3937007874015748
        },
        {
          "duration": 0.09375,
          "durationTicks": 96,
          "midi": 84,
          "name": "C6",
          "ticks": 168000,
          "time": 164.0625,
          "velocity": 0.3937007874015748
        },
        {
          "duration": 0.09375,
          "durationTicks": 96,
          "midi": 83,
          "name": "B5",
          "ticks": 168192,
          "time": 164.25,
          "velocity": 0.3937007874015748
        },
        {
          "duration": 0.09375,
          "durationTicks": 96,
          "midi": 71,
          "name": "B4",
          "ticks": 168192,
          "time": 164.25,
          "velocity": 0.3937007874015748
        },
        {
          "duration": 0.09375,
          "durationTicks": 96,
          "midi": 76,
          "name": "E5",
          "ticks": 168192,
          "time": 164.25,
          "velocity": 0.3937007874015748
        },
        {
          "duration": 0.09375,
          "durationTicks": 96,
          "midi": 79,
          "name": "G5",
          "ticks": 168192,
          "time": 164.25,
          "velocity": 0.3937007874015748
        },
        {
          "duration": 0.09375,
          "durationTicks": 96,
          "midi": 81,
          "name": "A5",
          "ticks": 168480,
          "time": 164.53125,
          "velocity": 0.3937007874015748
        },
        {
          "duration": 0.09375,
          "durationTicks": 96,
          "midi": 69,
          "name": "A4",
          "ticks": 168480,
          "time": 164.53125,
          "velocity": 0.3937007874015748
        },
        {
          "duration": 0.09375,
          "durationTicks": 96,
          "midi": 79,
          "name": "G5",
          "ticks": 168768,
          "time": 164.8125,
          "velocity": 0.3937007874015748
        },
        {
          "duration": 0.09375,
          "durationTicks": 96,
          "midi": 67,
          "name": "G4",
          "ticks": 168768,
          "time": 164.8125,
          "velocity": 0.3937007874015748
        },
        {
          "duration": 0.09375,
          "durationTicks": 96,
          "midi": 69,
          "name": "A4",
          "ticks": 168960,
          "time": 165,
          "velocity": 0.3937007874015748
        },
        {
          "duration": 0.09375,
          "durationTicks": 96,
          "midi": 77,
          "name": "F5",
          "ticks": 168960,
          "time": 165,
          "velocity": 0.3937007874015748
        },
        {
          "duration": 0.09375,
          "durationTicks": 96,
          "midi": 65,
          "name": "F4",
          "ticks": 168960,
          "time": 165,
          "velocity": 0.3937007874015748
        },
        {
          "duration": 0.09375,
          "durationTicks": 96,
          "midi": 72,
          "name": "C5",
          "ticks": 168960,
          "time": 165,
          "velocity": 0.3937007874015748
        },
        {
          "duration": 0.09375,
          "durationTicks": 96,
          "midi": 80,
          "name": "G#5",
          "ticks": 169680,
          "time": 165.703125,
          "velocity": 0.3937007874015748
        },
        {
          "duration": 0.09375,
          "durationTicks": 96,
          "midi": 69,
          "name": "A4",
          "ticks": 169728,
          "time": 165.75,
          "velocity": 0.3937007874015748
        },
        {
          "duration": 0.09375,
          "durationTicks": 96,
          "midi": 81,
          "name": "A5",
          "ticks": 169728,
          "time": 165.75,
          "velocity": 0.3937007874015748
        },
        {
          "duration": 0.09375,
          "durationTicks": 96,
          "midi": 84,
          "name": "C6",
          "ticks": 170016,
          "time": 166.03125,
          "velocity": 0.3937007874015748
        },
        {
          "duration": 0.09375,
          "durationTicks": 96,
          "midi": 72,
          "name": "C5",
          "ticks": 170016,
          "time": 166.03125,
          "velocity": 0.3937007874015748
        },
        {
          "duration": 0.09375,
          "durationTicks": 96,
          "midi": 81,
          "name": "A5",
          "ticks": 170304,
          "time": 166.3125,
          "velocity": 0.3937007874015748
        },
        {
          "duration": 0.09375,
          "durationTicks": 96,
          "midi": 69,
          "name": "A4",
          "ticks": 170304,
          "time": 166.3125,
          "velocity": 0.3937007874015748
        },
        {
          "duration": 0.09375,
          "durationTicks": 96,
          "midi": 83,
          "name": "B5",
          "ticks": 170496,
          "time": 166.5,
          "velocity": 0.3937007874015748
        },
        {
          "duration": 0.09375,
          "durationTicks": 96,
          "midi": 75,
          "name": "D#5",
          "ticks": 170496,
          "time": 166.5,
          "velocity": 0.3937007874015748
        },
        {
          "duration": 0.09375,
          "durationTicks": 96,
          "midi": 78,
          "name": "F#5",
          "ticks": 170496,
          "time": 166.5,
          "velocity": 0.3937007874015748
        },
        {
          "duration": 0.09375,
          "durationTicks": 96,
          "midi": 71,
          "name": "B4",
          "ticks": 170496,
          "time": 166.5,
          "velocity": 0.3937007874015748
        },
        {
          "duration": 0.09375,
          "durationTicks": 96,
          "midi": 69,
          "name": "A4",
          "ticks": 171648,
          "time": 167.625,
          "velocity": 0.3937007874015748
        },
        {
          "duration": 0.09375,
          "durationTicks": 96,
          "midi": 81,
          "name": "A5",
          "ticks": 171648,
          "time": 167.625,
          "velocity": 0.3937007874015748
        },
        {
          "duration": 0.09375,
          "durationTicks": 96,
          "midi": 83,
          "name": "B5",
          "ticks": 171744,
          "time": 167.71875,
          "velocity": 0.3937007874015748
        },
        {
          "duration": 0.09375,
          "durationTicks": 96,
          "midi": 71,
          "name": "B4",
          "ticks": 171744,
          "time": 167.71875,
          "velocity": 0.3937007874015748
        },
        {
          "duration": 0.09375,
          "durationTicks": 96,
          "midi": 84,
          "name": "C6",
          "ticks": 171840,
          "time": 167.8125,
          "velocity": 0.3937007874015748
        },
        {
          "duration": 0.09375,
          "durationTicks": 96,
          "midi": 72,
          "name": "C5",
          "ticks": 171840,
          "time": 167.8125,
          "velocity": 0.3937007874015748
        },
        {
          "duration": 0.09375,
          "durationTicks": 96,
          "midi": 74,
          "name": "D5",
          "ticks": 171936,
          "time": 167.90625,
          "velocity": 0.3937007874015748
        },
        {
          "duration": 0.09375,
          "durationTicks": 96,
          "midi": 86,
          "name": "D6",
          "ticks": 171936,
          "time": 167.90625,
          "velocity": 0.3937007874015748
        },
        {
          "duration": 0.09375,
          "durationTicks": 96,
          "midi": 88,
          "name": "E6",
          "ticks": 172032,
          "time": 168,
          "velocity": 0.3937007874015748
        },
        {
          "duration": 0.09375,
          "durationTicks": 96,
          "midi": 83,
          "name": "B5",
          "ticks": 172032,
          "time": 168,
          "velocity": 0.3937007874015748
        },
        {
          "duration": 0.09375,
          "durationTicks": 96,
          "midi": 76,
          "name": "E5",
          "ticks": 172032,
          "time": 168,
          "velocity": 0.3937007874015748
        },
        {
          "duration": 0.09375,
          "durationTicks": 96,
          "midi": 79,
          "name": "G5",
          "ticks": 172032,
          "time": 168,
          "velocity": 0.3937007874015748
        },
        {
          "duration": 0.09375,
          "durationTicks": 96,
          "midi": 83,
          "name": "B5",
          "ticks": 172608,
          "time": 168.5625,
          "velocity": 0.3937007874015748
        },
        {
          "duration": 0.09375,
          "durationTicks": 96,
          "midi": 76,
          "name": "E5",
          "ticks": 172608,
          "time": 168.5625,
          "velocity": 0.3937007874015748
        },
        {
          "duration": 0.09375,
          "durationTicks": 96,
          "midi": 79,
          "name": "G5",
          "ticks": 172608,
          "time": 168.5625,
          "velocity": 0.3937007874015748
        },
        {
          "duration": 0.09375,
          "durationTicks": 96,
          "midi": 71,
          "name": "B4",
          "ticks": 172608,
          "time": 168.5625,
          "velocity": 0.3937007874015748
        },
        {
          "duration": 0.09375,
          "durationTicks": 96,
          "midi": 83,
          "name": "B5",
          "ticks": 173184,
          "time": 169.125,
          "velocity": 0.3937007874015748
        },
        {
          "duration": 0.09375,
          "durationTicks": 96,
          "midi": 79,
          "name": "G5",
          "ticks": 173184,
          "time": 169.125,
          "velocity": 0.3937007874015748
        },
        {
          "duration": 0.09375,
          "durationTicks": 96,
          "midi": 88,
          "name": "E6",
          "ticks": 173184,
          "time": 169.125,
          "velocity": 0.3937007874015748
        },
        {
          "duration": 0.09375,
          "durationTicks": 96,
          "midi": 76,
          "name": "E5",
          "ticks": 173184,
          "time": 169.125,
          "velocity": 0.3937007874015748
        },
        {
          "duration": 0.09375,
          "durationTicks": 96,
          "midi": 75,
          "name": "D#5",
          "ticks": 173568,
          "time": 169.5,
          "velocity": 0.3937007874015748
        },
        {
          "duration": 0.09375,
          "durationTicks": 96,
          "midi": 78,
          "name": "F#5",
          "ticks": 173568,
          "time": 169.5,
          "velocity": 0.3937007874015748
        },
        {
          "duration": 0.09375,
          "durationTicks": 96,
          "midi": 83,
          "name": "B5",
          "ticks": 173568,
          "time": 169.5,
          "velocity": 0.3937007874015748
        },
        {
          "duration": 0.09375,
          "durationTicks": 96,
          "midi": 87,
          "name": "D#6",
          "ticks": 173568,
          "time": 169.5,
          "velocity": 0.3937007874015748
        },
        {
          "duration": 0.09375,
          "durationTicks": 96,
          "midi": 75,
          "name": "D#5",
          "ticks": 174144,
          "time": 170.0625,
          "velocity": 0.3937007874015748
        },
        {
          "duration": 0.09375,
          "durationTicks": 96,
          "midi": 83,
          "name": "B5",
          "ticks": 174144,
          "time": 170.0625,
          "velocity": 0.3937007874015748
        },
        {
          "duration": 0.09375,
          "durationTicks": 96,
          "midi": 78,
          "name": "F#5",
          "ticks": 174144,
          "time": 170.0625,
          "velocity": 0.3937007874015748
        },
        {
          "duration": 0.09375,
          "durationTicks": 96,
          "midi": 71,
          "name": "B4",
          "ticks": 174144,
          "time": 170.0625,
          "velocity": 0.3937007874015748
        },
        {
          "duration": 0.09375,
          "durationTicks": 96,
          "midi": 78,
          "name": "F#5",
          "ticks": 175104,
          "time": 171,
          "velocity": 0.3937007874015748
        },
        {
          "duration": 0.09375,
          "durationTicks": 96,
          "midi": 74,
          "name": "D5",
          "ticks": 175104,
          "time": 171,
          "velocity": 0.3937007874015748
        },
        {
          "duration": 0.09375,
          "durationTicks": 96,
          "midi": 83,
          "name": "B5",
          "ticks": 175104,
          "time": 171,
          "velocity": 0.3937007874015748
        },
        {
          "duration": 0.09375,
          "durationTicks": 96,
          "midi": 86,
          "name": "D6",
          "ticks": 175104,
          "time": 171,
          "velocity": 0.3937007874015748
        },
        {
          "duration": 0.09375,
          "durationTicks": 96,
          "midi": 76,
          "name": "E5",
          "ticks": 175680,
          "time": 171.5625,
          "velocity": 0.3937007874015748
        },
        {
          "duration": 0.09375,
          "durationTicks": 96,
          "midi": 88,
          "name": "E6",
          "ticks": 175680,
          "time": 171.5625,
          "velocity": 0.3937007874015748
        },
        {
          "duration": 0.09375,
          "durationTicks": 96,
          "midi": 78,
          "name": "F#5",
          "ticks": 176256,
          "time": 172.125,
          "velocity": 0.3937007874015748
        },
        {
          "duration": 0.09375,
          "durationTicks": 96,
          "midi": 90,
          "name": "F#6",
          "ticks": 176256,
          "time": 172.125,
          "velocity": 0.3937007874015748
        },
        {
          "duration": 0.09375,
          "durationTicks": 96,
          "midi": 85,
          "name": "C#6",
          "ticks": 176640,
          "time": 172.5,
          "velocity": 0.3937007874015748
        },
        {
          "duration": 0.09375,
          "durationTicks": 96,
          "midi": 76,
          "name": "E5",
          "ticks": 176640,
          "time": 172.5,
          "velocity": 0.3937007874015748
        },
        {
          "duration": 0.09375,
          "durationTicks": 96,
          "midi": 81,
          "name": "A5",
          "ticks": 176640,
          "time": 172.5,
          "velocity": 0.3937007874015748
        },
        {
          "duration": 0.09375,
          "durationTicks": 96,
          "midi": 88,
          "name": "E6",
          "ticks": 176640,
          "time": 172.5,
          "velocity": 0.3937007874015748
        },
        {
          "duration": 0.09375,
          "durationTicks": 96,
          "midi": 69,
          "name": "A4",
          "ticks": 176928,
          "time": 172.78125,
          "velocity": 0.3937007874015748
        },
        {
          "duration": 0.09375,
          "durationTicks": 96,
          "midi": 81,
          "name": "A5",
          "ticks": 176928,
          "time": 172.78125,
          "velocity": 0.3937007874015748
        },
        {
          "duration": 0.09375,
          "durationTicks": 96,
          "midi": 93,
          "name": "A6",
          "ticks": 177216,
          "time": 173.0625,
          "velocity": 0.3937007874015748
        },
        {
          "duration": 0.09375,
          "durationTicks": 96,
          "midi": 81,
          "name": "A5",
          "ticks": 177216,
          "time": 173.0625,
          "velocity": 0.3937007874015748
        },
        {
          "duration": 0.09375,
          "durationTicks": 96,
          "midi": 85,
          "name": "C#6",
          "ticks": 177216,
          "time": 173.0625,
          "velocity": 0.3937007874015748
        },
        {
          "duration": 0.09375,
          "durationTicks": 96,
          "midi": 88,
          "name": "E6",
          "ticks": 177216,
          "time": 173.0625,
          "velocity": 0.3937007874015748
        },
        {
          "duration": 0.09375,
          "durationTicks": 96,
          "midi": 79,
          "name": "G5",
          "ticks": 177792,
          "time": 173.625,
          "velocity": 0.3937007874015748
        },
        {
          "duration": 0.09375,
          "durationTicks": 96,
          "midi": 91,
          "name": "G6",
          "ticks": 177792,
          "time": 173.625,
          "velocity": 0.3937007874015748
        },
        {
          "duration": 0.09375,
          "durationTicks": 96,
          "midi": 93,
          "name": "A6",
          "ticks": 177984,
          "time": 173.8125,
          "velocity": 0.3937007874015748
        },
        {
          "duration": 0.09375,
          "durationTicks": 96,
          "midi": 81,
          "name": "A5",
          "ticks": 177984,
          "time": 173.8125,
          "velocity": 0.3937007874015748
        },
        {
          "duration": 0.09375,
          "durationTicks": 96,
          "midi": 95,
          "name": "B6",
          "ticks": 178176,
          "time": 174,
          "velocity": 0.3937007874015748
        },
        {
          "duration": 0.09375,
          "durationTicks": 96,
          "midi": 83,
          "name": "B5",
          "ticks": 178176,
          "time": 174,
          "velocity": 0.3937007874015748
        },
        {
          "duration": 0.09375,
          "durationTicks": 96,
          "midi": 88,
          "name": "E6",
          "ticks": 178176,
          "time": 174,
          "velocity": 0.3937007874015748
        },
        {
          "duration": 0.09375,
          "durationTicks": 96,
          "midi": 91,
          "name": "G6",
          "ticks": 178176,
          "time": 174,
          "velocity": 0.3937007874015748
        },
        {
          "duration": 0.09375,
          "durationTicks": 96,
          "midi": 94,
          "name": "A#6",
          "ticks": 178464,
          "time": 174.28125,
          "velocity": 0.3937007874015748
        },
        {
          "duration": 0.09375,
          "durationTicks": 96,
          "midi": 82,
          "name": "A#5",
          "ticks": 178464,
          "time": 174.28125,
          "velocity": 0.3937007874015748
        },
        {
          "duration": 0.09375,
          "durationTicks": 96,
          "midi": 81,
          "name": "A5",
          "ticks": 178752,
          "time": 174.5625,
          "velocity": 0.3937007874015748
        },
        {
          "duration": 0.09375,
          "durationTicks": 96,
          "midi": 93,
          "name": "A6",
          "ticks": 178752,
          "time": 174.5625,
          "velocity": 0.3937007874015748
        },
        {
          "duration": 0.09375,
          "durationTicks": 96,
          "midi": 79,
          "name": "G5",
          "ticks": 178944,
          "time": 174.75,
          "velocity": 0.3937007874015748
        },
        {
          "duration": 0.09375,
          "durationTicks": 96,
          "midi": 76,
          "name": "E5",
          "ticks": 178944,
          "time": 174.75,
          "velocity": 0.3937007874015748
        },
        {
          "duration": 0.09375,
          "durationTicks": 96,
          "midi": 71,
          "name": "B4",
          "ticks": 178944,
          "time": 174.75,
          "velocity": 0.3937007874015748
        },
        {
          "duration": 0.09375,
          "durationTicks": 96,
          "midi": 83,
          "name": "B5",
          "ticks": 178944,
          "time": 174.75,
          "velocity": 0.3937007874015748
        },
        {
          "duration": 0.09375,
          "durationTicks": 96,
          "midi": 82,
          "name": "A#5",
          "ticks": 179232,
          "time": 175.03125,
          "velocity": 0.3937007874015748
        },
        {
          "duration": 0.09375,
          "durationTicks": 96,
          "midi": 70,
          "name": "A#4",
          "ticks": 179232,
          "time": 175.03125,
          "velocity": 0.3937007874015748
        },
        {
          "duration": 0.09375,
          "durationTicks": 96,
          "midi": 69,
          "name": "A4",
          "ticks": 179520,
          "time": 175.3125,
          "velocity": 0.3937007874015748
        },
        {
          "duration": 0.09375,
          "durationTicks": 96,
          "midi": 81,
          "name": "A5",
          "ticks": 179520,
          "time": 175.3125,
          "velocity": 0.3937007874015748
        },
        {
          "duration": 0.09375,
          "durationTicks": 96,
          "midi": 67,
          "name": "G4",
          "ticks": 179712,
          "time": 175.5,
          "velocity": 0.3937007874015748
        },
        {
          "duration": 0.09375,
          "durationTicks": 96,
          "midi": 79,
          "name": "G5",
          "ticks": 179712,
          "time": 175.5,
          "velocity": 0.3937007874015748
        },
        {
          "duration": 0.09375,
          "durationTicks": 96,
          "midi": 75,
          "name": "D#5",
          "ticks": 179712,
          "time": 175.5,
          "velocity": 0.3937007874015748
        },
        {
          "duration": 0.09375,
          "durationTicks": 96,
          "midi": 71,
          "name": "B4",
          "ticks": 179712,
          "time": 175.5,
          "velocity": 0.3937007874015748
        },
        {
          "duration": 0.09375,
          "durationTicks": 96,
          "midi": 71,
          "name": "B4",
          "ticks": 179904,
          "time": 175.6875,
          "velocity": 0.3937007874015748
        },
        {
          "duration": 0.09375,
          "durationTicks": 96,
          "midi": 75,
          "name": "D#5",
          "ticks": 180000,
          "time": 175.78125,
          "velocity": 0.3937007874015748
        },
        {
          "duration": 0.09375,
          "durationTicks": 96,
          "midi": 78,
          "name": "F#5",
          "ticks": 180096,
          "time": 175.875,
          "velocity": 0.3937007874015748
        },
        {
          "duration": 0.09375,
          "durationTicks": 96,
          "midi": 83,
          "name": "B5",
          "ticks": 180192,
          "time": 175.96875,
          "velocity": 0.3937007874015748
        },
        {
          "duration": 0.09375,
          "durationTicks": 96,
          "midi": 83,
          "name": "B5",
          "ticks": 180288,
          "time": 176.0625,
          "velocity": 0.3937007874015748
        },
        {
          "duration": 0.09375,
          "durationTicks": 96,
          "midi": 87,
          "name": "D#6",
          "ticks": 180288,
          "time": 176.0625,
          "velocity": 0.3937007874015748
        },
        {
          "duration": 0.09375,
          "durationTicks": 96,
          "midi": 75,
          "name": "D#5",
          "ticks": 180288,
          "time": 176.0625,
          "velocity": 0.3937007874015748
        },
        {
          "duration": 0.09375,
          "durationTicks": 96,
          "midi": 78,
          "name": "F#5",
          "ticks": 180288,
          "time": 176.0625,
          "velocity": 0.3937007874015748
        },
        {
          "duration": 0.09375,
          "durationTicks": 96,
          "midi": 82,
          "name": "A#5",
          "ticks": 180864,
          "time": 176.625,
          "velocity": 0.3937007874015748
        },
        {
          "duration": 0.09375,
          "durationTicks": 96,
          "midi": 70,
          "name": "A#4",
          "ticks": 180864,
          "time": 176.625,
          "velocity": 0.3937007874015748
        },
        {
          "duration": 0.09375,
          "durationTicks": 96,
          "midi": 69,
          "name": "A4",
          "ticks": 180960,
          "time": 176.71875,
          "velocity": 0.3937007874015748
        },
        {
          "duration": 0.09375,
          "durationTicks": 96,
          "midi": 81,
          "name": "A5",
          "ticks": 180960,
          "time": 176.71875,
          "velocity": 0.3937007874015748
        },
        {
          "duration": 0.09375,
          "durationTicks": 96,
          "midi": 67,
          "name": "G4",
          "ticks": 181056,
          "time": 176.8125,
          "velocity": 0.3937007874015748
        },
        {
          "duration": 0.09375,
          "durationTicks": 96,
          "midi": 79,
          "name": "G5",
          "ticks": 181056,
          "time": 176.8125,
          "velocity": 0.3937007874015748
        },
        {
          "duration": 0.09375,
          "durationTicks": 96,
          "midi": 67,
          "name": "G4",
          "ticks": 181248,
          "time": 177,
          "velocity": 0.3937007874015748
        },
        {
          "duration": 0.09375,
          "durationTicks": 96,
          "midi": 71,
          "name": "B4",
          "ticks": 181248,
          "time": 177,
          "velocity": 0.3937007874015748
        },
        {
          "duration": 0.09375,
          "durationTicks": 96,
          "midi": 71,
          "name": "B4",
          "ticks": 181248,
          "time": 177,
          "velocity": 0.3937007874015748
        },
        {
          "duration": 0.09375,
          "durationTicks": 96,
          "midi": 76,
          "name": "E5",
          "ticks": 181248,
          "time": 177,
          "velocity": 0.3937007874015748
        },
        {
          "duration": 0.09375,
          "durationTicks": 96,
          "midi": 64,
          "name": "E4",
          "ticks": 181248,
          "time": 177,
          "velocity": 0.3937007874015748
        },
        {
          "duration": 0.09375,
          "durationTicks": 96,
          "midi": 70,
          "name": "A#4",
          "ticks": 193152,
          "time": 188.625,
          "velocity": 0.3937007874015748
        },
        {
          "duration": 0.09375,
          "durationTicks": 96,
          "midi": 82,
          "name": "A#5",
          "ticks": 193152,
          "time": 188.625,
          "velocity": 0.3937007874015748
        },
        {
          "duration": 0.09375,
          "durationTicks": 96,
          "midi": 84,
          "name": "C6",
          "ticks": 193248,
          "time": 188.71875,
          "velocity": 0.3937007874015748
        },
        {
          "duration": 0.09375,
          "durationTicks": 96,
          "midi": 72,
          "name": "C5",
          "ticks": 193248,
          "time": 188.71875,
          "velocity": 0.3937007874015748
        },
        {
          "duration": 0.09375,
          "durationTicks": 96,
          "midi": 85,
          "name": "C#6",
          "ticks": 193344,
          "time": 188.8125,
          "velocity": 0.3937007874015748
        },
        {
          "duration": 0.09375,
          "durationTicks": 96,
          "midi": 73,
          "name": "C#5",
          "ticks": 193344,
          "time": 188.8125,
          "velocity": 0.3937007874015748
        },
        {
          "duration": 0.09375,
          "durationTicks": 96,
          "midi": 87,
          "name": "D#6",
          "ticks": 193440,
          "time": 188.90625,
          "velocity": 0.3937007874015748
        },
        {
          "duration": 0.09375,
          "durationTicks": 96,
          "midi": 75,
          "name": "D#5",
          "ticks": 193440,
          "time": 188.90625,
          "velocity": 0.3937007874015748
        },
        {
          "duration": 0.09375,
          "durationTicks": 96,
          "midi": 80,
          "name": "G#5",
          "ticks": 193536,
          "time": 189,
          "velocity": 0.3937007874015748
        },
        {
          "duration": 0.09375,
          "durationTicks": 96,
          "midi": 89,
          "name": "F6",
          "ticks": 193536,
          "time": 189,
          "velocity": 0.3937007874015748
        },
        {
          "duration": 0.09375,
          "durationTicks": 96,
          "midi": 77,
          "name": "F5",
          "ticks": 193536,
          "time": 189,
          "velocity": 0.3937007874015748
        },
        {
          "duration": 0.09375,
          "durationTicks": 96,
          "midi": 84,
          "name": "C6",
          "ticks": 193536,
          "time": 189,
          "velocity": 0.3937007874015748
        },
        {
          "duration": 0.09375,
          "durationTicks": 96,
          "midi": 72,
          "name": "C5",
          "ticks": 194112,
          "time": 189.5625,
          "velocity": 0.3937007874015748
        },
        {
          "duration": 0.09375,
          "durationTicks": 96,
          "midi": 77,
          "name": "F5",
          "ticks": 194112,
          "time": 189.5625,
          "velocity": 0.3937007874015748
        },
        {
          "duration": 0.09375,
          "durationTicks": 96,
          "midi": 84,
          "name": "C6",
          "ticks": 194112,
          "time": 189.5625,
          "velocity": 0.3937007874015748
        },
        {
          "duration": 0.09375,
          "durationTicks": 96,
          "midi": 80,
          "name": "G#5",
          "ticks": 194112,
          "time": 189.5625,
          "velocity": 0.3937007874015748
        },
        {
          "duration": 0.09375,
          "durationTicks": 96,
          "midi": 84,
          "name": "C6",
          "ticks": 194688,
          "time": 190.125,
          "velocity": 0.3937007874015748
        },
        {
          "duration": 0.09375,
          "durationTicks": 96,
          "midi": 77,
          "name": "F5",
          "ticks": 194688,
          "time": 190.125,
          "velocity": 0.3937007874015748
        },
        {
          "duration": 0.09375,
          "durationTicks": 96,
          "midi": 89,
          "name": "F6",
          "ticks": 194688,
          "time": 190.125,
          "velocity": 0.3937007874015748
        },
        {
          "duration": 0.09375,
          "durationTicks": 96,
          "midi": 80,
          "name": "G#5",
          "ticks": 194688,
          "time": 190.125,
          "velocity": 0.3937007874015748
        },
        {
          "duration": 0.09375,
          "durationTicks": 96,
          "midi": 88,
          "name": "E6",
          "ticks": 195072,
          "time": 190.5,
          "velocity": 0.3937007874015748
        },
        {
          "duration": 0.09375,
          "durationTicks": 96,
          "midi": 84,
          "name": "C6",
          "ticks": 195072,
          "time": 190.5,
          "velocity": 0.3937007874015748
        },
        {
          "duration": 0.09375,
          "durationTicks": 96,
          "midi": 79,
          "name": "G5",
          "ticks": 195072,
          "time": 190.5,
          "velocity": 0.3937007874015748
        },
        {
          "duration": 0.09375,
          "durationTicks": 96,
          "midi": 76,
          "name": "E5",
          "ticks": 195072,
          "time": 190.5,
          "velocity": 0.3937007874015748
        },
        {
          "duration": 0.09375,
          "durationTicks": 96,
          "midi": 79,
          "name": "G5",
          "ticks": 195648,
          "time": 191.0625,
          "velocity": 0.3937007874015748
        },
        {
          "duration": 0.09375,
          "durationTicks": 96,
          "midi": 84,
          "name": "C6",
          "ticks": 195648,
          "time": 191.0625,
          "velocity": 0.3937007874015748
        },
        {
          "duration": 0.09375,
          "durationTicks": 96,
          "midi": 72,
          "name": "C5",
          "ticks": 195648,
          "time": 191.0625,
          "velocity": 0.3937007874015748
        },
        {
          "duration": 0.09375,
          "durationTicks": 96,
          "midi": 76,
          "name": "E5",
          "ticks": 195648,
          "time": 191.0625,
          "velocity": 0.3937007874015748
        },
        {
          "duration": 0.09375,
          "durationTicks": 96,
          "midi": 79,
          "name": "G5",
          "ticks": 196608,
          "time": 192,
          "velocity": 0.3937007874015748
        },
        {
          "duration": 0.09375,
          "durationTicks": 96,
          "midi": 75,
          "name": "D#5",
          "ticks": 196608,
          "time": 192,
          "velocity": 0.3937007874015748
        },
        {
          "duration": 0.09375,
          "durationTicks": 96,
          "midi": 87,
          "name": "D#6",
          "ticks": 196608,
          "time": 192,
          "velocity": 0.3937007874015748
        },
        {
          "duration": 0.09375,
          "durationTicks": 96,
          "midi": 84,
          "name": "C6",
          "ticks": 196608,
          "time": 192,
          "velocity": 0.3937007874015748
        },
        {
          "duration": 0.09375,
          "durationTicks": 96,
          "midi": 77,
          "name": "F5",
          "ticks": 197184,
          "time": 192.5625,
          "velocity": 0.3937007874015748
        },
        {
          "duration": 0.09375,
          "durationTicks": 96,
          "midi": 89,
          "name": "F6",
          "ticks": 197184,
          "time": 192.5625,
          "velocity": 0.3937007874015748
        },
        {
          "duration": 0.09375,
          "durationTicks": 96,
          "midi": 87,
          "name": "D#6",
          "ticks": 197760,
          "time": 193.125,
          "velocity": 0.3937007874015748
        },
        {
          "duration": 0.09375,
          "durationTicks": 96,
          "midi": 75,
          "name": "D#5",
          "ticks": 197760,
          "time": 193.125,
          "velocity": 0.3937007874015748
        },
        {
          "duration": 0.09375,
          "durationTicks": 96,
          "midi": 83,
          "name": "B5",
          "ticks": 198144,
          "time": 193.5,
          "velocity": 0.3937007874015748
        },
        {
          "duration": 0.09375,
          "durationTicks": 96,
          "midi": 79,
          "name": "G5",
          "ticks": 198144,
          "time": 193.5,
          "velocity": 0.3937007874015748
        },
        {
          "duration": 0.09375,
          "durationTicks": 96,
          "midi": 86,
          "name": "D6",
          "ticks": 198144,
          "time": 193.5,
          "velocity": 0.3937007874015748
        },
        {
          "duration": 0.09375,
          "durationTicks": 96,
          "midi": 74,
          "name": "D5",
          "ticks": 198144,
          "time": 193.5,
          "velocity": 0.3937007874015748
        },
        {
          "duration": 0.09375,
          "durationTicks": 96,
          "midi": 84,
          "name": "C6",
          "ticks": 198432,
          "time": 193.78125,
          "velocity": 0.3937007874015748
        },
        {
          "duration": 0.09375,
          "durationTicks": 96,
          "midi": 72,
          "name": "C5",
          "ticks": 198432,
          "time": 193.78125,
          "velocity": 0.3937007874015748
        },
        {
          "duration": 0.09375,
          "durationTicks": 96,
          "midi": 70,
          "name": "A#4",
          "ticks": 198720,
          "time": 194.0625,
          "velocity": 0.3937007874015748
        },
        {
          "duration": 0.09375,
          "durationTicks": 96,
          "midi": 82,
          "name": "A#5",
          "ticks": 198720,
          "time": 194.0625,
          "velocity": 0.3937007874015748
        },
        {
          "duration": 0.09375,
          "durationTicks": 96,
          "midi": 70,
          "name": "A#4",
          "ticks": 199296,
          "time": 194.625,
          "velocity": 0.3937007874015748
        },
        {
          "duration": 0.09375,
          "durationTicks": 96,
          "midi": 82,
          "name": "A#5",
          "ticks": 199296,
          "time": 194.625,
          "velocity": 0.3937007874015748
        },
        {
          "duration": 0.09375,
          "durationTicks": 96,
          "midi": 84,
          "name": "C6",
          "ticks": 199488,
          "time": 194.8125,
          "velocity": 0.3937007874015748
        },
        {
          "duration": 0.09375,
          "durationTicks": 96,
          "midi": 72,
          "name": "C5",
          "ticks": 199488,
          "time": 194.8125,
          "velocity": 0.3937007874015748
        },
        {
          "duration": 0.09375,
          "durationTicks": 96,
          "midi": 73,
          "name": "C#5",
          "ticks": 199680,
          "time": 195,
          "velocity": 0.3937007874015748
        },
        {
          "duration": 0.09375,
          "durationTicks": 96,
          "midi": 85,
          "name": "C#6",
          "ticks": 199680,
          "time": 195,
          "velocity": 0.3937007874015748
        },
        {
          "duration": 0.09375,
          "durationTicks": 96,
          "midi": 75,
          "name": "D#5",
          "ticks": 199968,
          "time": 195.28125,
          "velocity": 0.3937007874015748
        },
        {
          "duration": 0.09375,
          "durationTicks": 96,
          "midi": 87,
          "name": "D#6",
          "ticks": 199968,
          "time": 195.28125,
          "velocity": 0.3937007874015748
        },
        {
          "duration": 0.09375,
          "durationTicks": 96,
          "midi": 88,
          "name": "E6",
          "ticks": 200256,
          "time": 195.5625,
          "velocity": 0.3937007874015748
        },
        {
          "duration": 0.09375,
          "durationTicks": 96,
          "midi": 76,
          "name": "E5",
          "ticks": 200256,
          "time": 195.5625,
          "velocity": 0.3937007874015748
        },
        {
          "duration": 0.09375,
          "durationTicks": 96,
          "midi": 77,
          "name": "F5",
          "ticks": 200448,
          "time": 195.75,
          "velocity": 0.3937007874015748
        },
        {
          "duration": 0.09375,
          "durationTicks": 96,
          "midi": 89,
          "name": "F6",
          "ticks": 200448,
          "time": 195.75,
          "velocity": 0.3937007874015748
        },
        {
          "duration": 0.09375,
          "durationTicks": 96,
          "midi": 84,
          "name": "C6",
          "ticks": 200736,
          "time": 196.03125,
          "velocity": 0.3937007874015748
        },
        {
          "duration": 0.09375,
          "durationTicks": 96,
          "midi": 72,
          "name": "C5",
          "ticks": 200736,
          "time": 196.03125,
          "velocity": 0.3937007874015748
        },
        {
          "duration": 0.09375,
          "durationTicks": 96,
          "midi": 68,
          "name": "G#4",
          "ticks": 201024,
          "time": 196.3125,
          "velocity": 0.3937007874015748
        },
        {
          "duration": 0.09375,
          "durationTicks": 96,
          "midi": 80,
          "name": "G#5",
          "ticks": 201024,
          "time": 196.3125,
          "velocity": 0.3937007874015748
        },
        {
          "duration": 0.09375,
          "durationTicks": 96,
          "midi": 70,
          "name": "A#4",
          "ticks": 201216,
          "time": 196.5,
          "velocity": 0.3937007874015748
        },
        {
          "duration": 0.09375,
          "durationTicks": 96,
          "midi": 82,
          "name": "A#5",
          "ticks": 201216,
          "time": 196.5,
          "velocity": 0.3937007874015748
        },
        {
          "duration": 0.09375,
          "durationTicks": 96,
          "midi": 79,
          "name": "G5",
          "ticks": 201216,
          "time": 196.5,
          "velocity": 0.3937007874015748
        },
        {
          "duration": 0.09375,
          "durationTicks": 96,
          "midi": 76,
          "name": "E5",
          "ticks": 201216,
          "time": 196.5,
          "velocity": 0.3937007874015748
        },
        {
          "duration": 0.09375,
          "durationTicks": 96,
          "midi": 84,
          "name": "C6",
          "ticks": 201504,
          "time": 196.78125,
          "velocity": 0.3937007874015748
        },
        {
          "duration": 0.09375,
          "durationTicks": 96,
          "midi": 72,
          "name": "C5",
          "ticks": 201504,
          "time": 196.78125,
          "velocity": 0.3937007874015748
        },
        {
          "duration": 0.09375,
          "durationTicks": 96,
          "midi": 85,
          "name": "C#6",
          "ticks": 201792,
          "time": 197.0625,
          "velocity": 0.3937007874015748
        },
        {
          "duration": 0.09375,
          "durationTicks": 96,
          "midi": 73,
          "name": "C#5",
          "ticks": 201792,
          "time": 197.0625,
          "velocity": 0.3937007874015748
        },
        {
          "duration": 0.09375,
          "durationTicks": 96,
          "midi": 77,
          "name": "F5",
          "ticks": 201984,
          "time": 197.25,
          "velocity": 0.3937007874015748
        },
        {
          "duration": 0.09375,
          "durationTicks": 96,
          "midi": 80,
          "name": "G#5",
          "ticks": 201984,
          "time": 197.25,
          "velocity": 0.3937007874015748
        },
        {
          "duration": 0.09375,
          "durationTicks": 96,
          "midi": 84,
          "name": "C6",
          "ticks": 201984,
          "time": 197.25,
          "velocity": 0.3937007874015748
        },
        {
          "duration": 0.09375,
          "durationTicks": 96,
          "midi": 72,
          "name": "C5",
          "ticks": 201984,
          "time": 197.25,
          "velocity": 0.3937007874015748
        },
        {
          "duration": 0.09375,
          "durationTicks": 96,
          "midi": 70,
          "name": "A#4",
          "ticks": 202272,
          "time": 197.53125,
          "velocity": 0.3937007874015748
        },
        {
          "duration": 0.09375,
          "durationTicks": 96,
          "midi": 82,
          "name": "A#5",
          "ticks": 202272,
          "time": 197.53125,
          "velocity": 0.3937007874015748
        },
        {
          "duration": 0.09375,
          "durationTicks": 96,
          "midi": 80,
          "name": "G#5",
          "ticks": 202560,
          "time": 197.8125,
          "velocity": 0.3937007874015748
        },
        {
          "duration": 0.09375,
          "durationTicks": 96,
          "midi": 68,
          "name": "G#4",
          "ticks": 202560,
          "time": 197.8125,
          "velocity": 0.3937007874015748
        },
        {
          "duration": 0.09375,
          "durationTicks": 96,
          "midi": 66,
          "name": "F#4",
          "ticks": 202752,
          "time": 198,
          "velocity": 0.3937007874015748
        },
        {
          "duration": 0.09375,
          "durationTicks": 96,
          "midi": 70,
          "name": "A#4",
          "ticks": 202752,
          "time": 198,
          "velocity": 0.3937007874015748
        },
        {
          "duration": 0.09375,
          "durationTicks": 96,
          "midi": 78,
          "name": "F#5",
          "ticks": 202752,
          "time": 198,
          "velocity": 0.3937007874015748
        },
        {
          "duration": 0.09375,
          "durationTicks": 96,
          "midi": 73,
          "name": "C#5",
          "ticks": 202752,
          "time": 198,
          "velocity": 0.3937007874015748
        },
        {
          "duration": 0.09375,
          "durationTicks": 96,
          "midi": 81,
          "name": "A5",
          "ticks": 203472,
          "time": 198.703125,
          "velocity": 0.3937007874015748
        },
        {
          "duration": 0.09375,
          "durationTicks": 96,
          "midi": 82,
          "name": "A#5",
          "ticks": 203520,
          "time": 198.75,
          "velocity": 0.3937007874015748
        },
        {
          "duration": 0.09375,
          "durationTicks": 96,
          "midi": 70,
          "name": "A#4",
          "ticks": 203520,
          "time": 198.75,
          "velocity": 0.3937007874015748
        },
        {
          "duration": 0.09375,
          "durationTicks": 96,
          "midi": 73,
          "name": "C#5",
          "ticks": 203808,
          "time": 199.03125,
          "velocity": 0.3937007874015748
        },
        {
          "duration": 0.09375,
          "durationTicks": 96,
          "midi": 85,
          "name": "C#6",
          "ticks": 203808,
          "time": 199.03125,
          "velocity": 0.3937007874015748
        },
        {
          "duration": 0.09375,
          "durationTicks": 96,
          "midi": 70,
          "name": "A#4",
          "ticks": 204096,
          "time": 199.3125,
          "velocity": 0.3937007874015748
        },
        {
          "duration": 0.09375,
          "durationTicks": 96,
          "midi": 82,
          "name": "A#5",
          "ticks": 204096,
          "time": 199.3125,
          "velocity": 0.3937007874015748
        },
        {
          "duration": 0.09375,
          "durationTicks": 96,
          "midi": 72,
          "name": "C5",
          "ticks": 204288,
          "time": 199.5,
          "velocity": 0.3937007874015748
        },
        {
          "duration": 0.09375,
          "durationTicks": 96,
          "midi": 76,
          "name": "E5",
          "ticks": 204288,
          "time": 199.5,
          "velocity": 0.3937007874015748
        },
        {
          "duration": 0.09375,
          "durationTicks": 96,
          "midi": 79,
          "name": "G5",
          "ticks": 204288,
          "time": 199.5,
          "velocity": 0.3937007874015748
        },
        {
          "duration": 0.09375,
          "durationTicks": 96,
          "midi": 84,
          "name": "C6",
          "ticks": 204288,
          "time": 199.5,
          "velocity": 0.3937007874015748
        },
        {
          "duration": 0.09375,
          "durationTicks": 96,
          "midi": 82,
          "name": "A#5",
          "ticks": 205440,
          "time": 200.625,
          "velocity": 0.3937007874015748
        },
        {
          "duration": 0.09375,
          "durationTicks": 96,
          "midi": 70,
          "name": "A#4",
          "ticks": 205440,
          "time": 200.625,
          "velocity": 0.3937007874015748
        },
        {
          "duration": 0.09375,
          "durationTicks": 96,
          "midi": 72,
          "name": "C5",
          "ticks": 205536,
          "time": 200.71875,
          "velocity": 0.3937007874015748
        },
        {
          "duration": 0.09375,
          "durationTicks": 96,
          "midi": 84,
          "name": "C6",
          "ticks": 205536,
          "time": 200.71875,
          "velocity": 0.3937007874015748
        },
        {
          "duration": 0.09375,
          "durationTicks": 96,
          "midi": 85,
          "name": "C#6",
          "ticks": 205632,
          "time": 200.8125,
          "velocity": 0.3937007874015748
        },
        {
          "duration": 0.09375,
          "durationTicks": 96,
          "midi": 73,
          "name": "C#5",
          "ticks": 205632,
          "time": 200.8125,
          "velocity": 0.3937007874015748
        },
        {
          "duration": 0.09375,
          "durationTicks": 96,
          "midi": 75,
          "name": "D#5",
          "ticks": 205728,
          "time": 200.90625,
          "velocity": 0.3937007874015748
        },
        {
          "duration": 0.09375,
          "durationTicks": 96,
          "midi": 87,
          "name": "D#6",
          "ticks": 205728,
          "time": 200.90625,
          "velocity": 0.3937007874015748
        },
        {
          "duration": 0.09375,
          "durationTicks": 96,
          "midi": 84,
          "name": "C6",
          "ticks": 205824,
          "time": 201,
          "velocity": 0.3937007874015748
        },
        {
          "duration": 0.09375,
          "durationTicks": 96,
          "midi": 77,
          "name": "F5",
          "ticks": 205824,
          "time": 201,
          "velocity": 0.3937007874015748
        },
        {
          "duration": 0.09375,
          "durationTicks": 96,
          "midi": 89,
          "name": "F6",
          "ticks": 205824,
          "time": 201,
          "velocity": 0.3937007874015748
        },
        {
          "duration": 0.09375,
          "durationTicks": 96,
          "midi": 80,
          "name": "G#5",
          "ticks": 205824,
          "time": 201,
          "velocity": 0.3937007874015748
        },
        {
          "duration": 0.09375,
          "durationTicks": 96,
          "midi": 80,
          "name": "G#5",
          "ticks": 206400,
          "time": 201.5625,
          "velocity": 0.3937007874015748
        },
        {
          "duration": 0.09375,
          "durationTicks": 96,
          "midi": 77,
          "name": "F5",
          "ticks": 206400,
          "time": 201.5625,
          "velocity": 0.3937007874015748
        },
        {
          "duration": 0.09375,
          "durationTicks": 96,
          "midi": 72,
          "name": "C5",
          "ticks": 206400,
          "time": 201.5625,
          "velocity": 0.3937007874015748
        },
        {
          "duration": 0.09375,
          "durationTicks": 96,
          "midi": 84,
          "name": "C6",
          "ticks": 206400,
          "time": 201.5625,
          "velocity": 0.3937007874015748
        },
        {
          "duration": 0.09375,
          "durationTicks": 96,
          "midi": 80,
          "name": "G#5",
          "ticks": 206976,
          "time": 202.125,
          "velocity": 0.3937007874015748
        },
        {
          "duration": 0.09375,
          "durationTicks": 96,
          "midi": 77,
          "name": "F5",
          "ticks": 206976,
          "time": 202.125,
          "velocity": 0.3937007874015748
        },
        {
          "duration": 0.09375,
          "durationTicks": 96,
          "midi": 89,
          "name": "F6",
          "ticks": 206976,
          "time": 202.125,
          "velocity": 0.3937007874015748
        },
        {
          "duration": 0.09375,
          "durationTicks": 96,
          "midi": 84,
          "name": "C6",
          "ticks": 206976,
          "time": 202.125,
          "velocity": 0.3937007874015748
        },
        {
          "duration": 0.09375,
          "durationTicks": 96,
          "midi": 88,
          "name": "E6",
          "ticks": 207360,
          "time": 202.5,
          "velocity": 0.3937007874015748
        },
        {
          "duration": 0.09375,
          "durationTicks": 96,
          "midi": 79,
          "name": "G5",
          "ticks": 207360,
          "time": 202.5,
          "velocity": 0.3937007874015748
        },
        {
          "duration": 0.09375,
          "durationTicks": 96,
          "midi": 84,
          "name": "C6",
          "ticks": 207360,
          "time": 202.5,
          "velocity": 0.3937007874015748
        },
        {
          "duration": 0.09375,
          "durationTicks": 96,
          "midi": 76,
          "name": "E5",
          "ticks": 207360,
          "time": 202.5,
          "velocity": 0.3937007874015748
        },
        {
          "duration": 0.09375,
          "durationTicks": 96,
          "midi": 79,
          "name": "G5",
          "ticks": 207936,
          "time": 203.0625,
          "velocity": 0.3937007874015748
        },
        {
          "duration": 0.09375,
          "durationTicks": 96,
          "midi": 72,
          "name": "C5",
          "ticks": 207936,
          "time": 203.0625,
          "velocity": 0.3937007874015748
        },
        {
          "duration": 0.09375,
          "durationTicks": 96,
          "midi": 84,
          "name": "C6",
          "ticks": 207936,
          "time": 203.0625,
          "velocity": 0.3937007874015748
        },
        {
          "duration": 0.09375,
          "durationTicks": 96,
          "midi": 76,
          "name": "E5",
          "ticks": 207936,
          "time": 203.0625,
          "velocity": 0.3937007874015748
        },
        {
          "duration": 0.09375,
          "durationTicks": 96,
          "midi": 79,
          "name": "G5",
          "ticks": 208896,
          "time": 204,
          "velocity": 0.3937007874015748
        },
        {
          "duration": 0.09375,
          "durationTicks": 96,
          "midi": 75,
          "name": "D#5",
          "ticks": 208896,
          "time": 204,
          "velocity": 0.3937007874015748
        },
        {
          "duration": 0.09375,
          "durationTicks": 96,
          "midi": 84,
          "name": "C6",
          "ticks": 208896,
          "time": 204,
          "velocity": 0.3937007874015748
        },
        {
          "duration": 0.09375,
          "durationTicks": 96,
          "midi": 87,
          "name": "D#6",
          "ticks": 208896,
          "time": 204,
          "velocity": 0.3937007874015748
        },
        {
          "duration": 0.09375,
          "durationTicks": 96,
          "midi": 77,
          "name": "F5",
          "ticks": 209472,
          "time": 204.5625,
          "velocity": 0.3937007874015748
        },
        {
          "duration": 0.09375,
          "durationTicks": 96,
          "midi": 89,
          "name": "F6",
          "ticks": 209472,
          "time": 204.5625,
          "velocity": 0.3937007874015748
        },
        {
          "duration": 0.09375,
          "durationTicks": 96,
          "midi": 79,
          "name": "G5",
          "ticks": 210048,
          "time": 205.125,
          "velocity": 0.3937007874015748
        },
        {
          "duration": 0.09375,
          "durationTicks": 96,
          "midi": 91,
          "name": "G6",
          "ticks": 210048,
          "time": 205.125,
          "velocity": 0.3937007874015748
        },
        {
          "duration": 0.09375,
          "durationTicks": 96,
          "midi": 86,
          "name": "D6",
          "ticks": 210432,
          "time": 205.5,
          "velocity": 0.3937007874015748
        },
        {
          "duration": 0.09375,
          "durationTicks": 96,
          "midi": 77,
          "name": "F5",
          "ticks": 210432,
          "time": 205.5,
          "velocity": 0.3937007874015748
        },
        {
          "duration": 0.09375,
          "durationTicks": 96,
          "midi": 89,
          "name": "F6",
          "ticks": 210432,
          "time": 205.5,
          "velocity": 0.3937007874015748
        },
        {
          "duration": 0.09375,
          "durationTicks": 96,
          "midi": 82,
          "name": "A#5",
          "ticks": 210432,
          "time": 205.5,
          "velocity": 0.3937007874015748
        },
        {
          "duration": 0.09375,
          "durationTicks": 96,
          "midi": 70,
          "name": "A#4",
          "ticks": 210720,
          "time": 205.78125,
          "velocity": 0.3937007874015748
        },
        {
          "duration": 0.09375,
          "durationTicks": 96,
          "midi": 82,
          "name": "A#5",
          "ticks": 210720,
          "time": 205.78125,
          "velocity": 0.3937007874015748
        },
        {
          "duration": 0.09375,
          "durationTicks": 96,
          "midi": 94,
          "name": "A#6",
          "ticks": 211008,
          "time": 206.0625,
          "velocity": 0.3937007874015748
        },
        {
          "duration": 0.09375,
          "durationTicks": 96,
          "midi": 82,
          "name": "A#5",
          "ticks": 211008,
          "time": 206.0625,
          "velocity": 0.3937007874015748
        },
        {
          "duration": 0.09375,
          "durationTicks": 96,
          "midi": 86,
          "name": "D6",
          "ticks": 211008,
          "time": 206.0625,
          "velocity": 0.3937007874015748
        },
        {
          "duration": 0.09375,
          "durationTicks": 96,
          "midi": 89,
          "name": "F6",
          "ticks": 211008,
          "time": 206.0625,
          "velocity": 0.3937007874015748
        },
        {
          "duration": 0.09375,
          "durationTicks": 96,
          "midi": 92,
          "name": "G#6",
          "ticks": 211584,
          "time": 206.625,
          "velocity": 0.3937007874015748
        },
        {
          "duration": 0.09375,
          "durationTicks": 96,
          "midi": 80,
          "name": "G#5",
          "ticks": 211584,
          "time": 206.625,
          "velocity": 0.3937007874015748
        },
        {
          "duration": 0.09375,
          "durationTicks": 96,
          "midi": 82,
          "name": "A#5",
          "ticks": 211776,
          "time": 206.8125,
          "velocity": 0.3937007874015748
        },
        {
          "duration": 0.09375,
          "durationTicks": 96,
          "midi": 94,
          "name": "A#6",
          "ticks": 211776,
          "time": 206.8125,
          "velocity": 0.3937007874015748
        },
        {
          "duration": 0.09375,
          "durationTicks": 96,
          "midi": 89,
          "name": "F6",
          "ticks": 211968,
          "time": 207,
          "velocity": 0.3937007874015748
        },
        {
          "duration": 0.09375,
          "durationTicks": 96,
          "midi": 95,
          "name": "B6",
          "ticks": 211968,
          "time": 207,
          "velocity": 0.3937007874015748
        },
        {
          "duration": 0.09375,
          "durationTicks": 96,
          "midi": 84,
          "name": "C6",
          "ticks": 211968,
          "time": 207,
          "velocity": 0.3937007874015748
        },
        {
          "duration": 0.09375,
          "durationTicks": 96,
          "midi": 92,
          "name": "G#6",
          "ticks": 211968,
          "time": 207,
          "velocity": 0.3937007874015748
        },
        {
          "duration": 0.09375,
          "durationTicks": 96,
          "midi": 83,
          "name": "B5",
          "ticks": 212256,
          "time": 207.28125,
          "velocity": 0.3937007874015748
        },
        {
          "duration": 0.09375,
          "durationTicks": 96,
          "midi": 95,
          "name": "B6",
          "ticks": 212256,
          "time": 207.28125,
          "velocity": 0.3937007874015748
        },
        {
          "duration": 0.09375,
          "durationTicks": 96,
          "midi": 94,
          "name": "A#6",
          "ticks": 212544,
          "time": 207.5625,
          "velocity": 0.3937007874015748
        },
        {
          "duration": 0.09375,
          "durationTicks": 96,
          "midi": 82,
          "name": "A#5",
          "ticks": 212544,
          "time": 207.5625,
          "velocity": 0.3937007874015748
        },
        {
          "duration": 0.09375,
          "durationTicks": 96,
          "midi": 72,
          "name": "C5",
          "ticks": 212736,
          "time": 207.75,
          "velocity": 0.3937007874015748
        },
        {
          "duration": 0.09375,
          "durationTicks": 96,
          "midi": 80,
          "name": "G#5",
          "ticks": 212736,
          "time": 207.75,
          "velocity": 0.3937007874015748
        },
        {
          "duration": 0.09375,
          "durationTicks": 96,
          "midi": 84,
          "name": "C6",
          "ticks": 212736,
          "time": 207.75,
          "velocity": 0.3937007874015748
        },
        {
          "duration": 0.09375,
          "durationTicks": 96,
          "midi": 77,
          "name": "F5",
          "ticks": 212736,
          "time": 207.75,
          "velocity": 0.3937007874015748
        },
        {
          "duration": 0.09375,
          "durationTicks": 96,
          "midi": 83,
          "name": "B5",
          "ticks": 213024,
          "time": 208.03125,
          "velocity": 0.3937007874015748
        },
        {
          "duration": 0.09375,
          "durationTicks": 96,
          "midi": 71,
          "name": "B4",
          "ticks": 213024,
          "time": 208.03125,
          "velocity": 0.3937007874015748
        },
        {
          "duration": 0.09375,
          "durationTicks": 96,
          "midi": 82,
          "name": "A#5",
          "ticks": 213312,
          "time": 208.3125,
          "velocity": 0.3937007874015748
        },
        {
          "duration": 0.09375,
          "durationTicks": 96,
          "midi": 70,
          "name": "A#4",
          "ticks": 213312,
          "time": 208.3125,
          "velocity": 0.3937007874015748
        },
        {
          "duration": 0.09375,
          "durationTicks": 96,
          "midi": 68,
          "name": "G#4",
          "ticks": 213504,
          "time": 208.5,
          "velocity": 0.3937007874015748
        },
        {
          "duration": 0.09375,
          "durationTicks": 96,
          "midi": 72,
          "name": "C5",
          "ticks": 213504,
          "time": 208.5,
          "velocity": 0.3937007874015748
        },
        {
          "duration": 0.09375,
          "durationTicks": 96,
          "midi": 80,
          "name": "G#5",
          "ticks": 213504,
          "time": 208.5,
          "velocity": 0.3937007874015748
        },
        {
          "duration": 0.09375,
          "durationTicks": 96,
          "midi": 76,
          "name": "E5",
          "ticks": 213504,
          "time": 208.5,
          "velocity": 0.3937007874015748
        },
        {
          "duration": 0.09375,
          "durationTicks": 96,
          "midi": 72,
          "name": "C5",
          "ticks": 213696,
          "time": 208.6875,
          "velocity": 0.3937007874015748
        },
        {
          "duration": 0.09375,
          "durationTicks": 96,
          "midi": 76,
          "name": "E5",
          "ticks": 213792,
          "time": 208.78125,
          "velocity": 0.3937007874015748
        },
        {
          "duration": 0.09375,
          "durationTicks": 96,
          "midi": 79,
          "name": "G5",
          "ticks": 213888,
          "time": 208.875,
          "velocity": 0.3937007874015748
        },
        {
          "duration": 0.09375,
          "durationTicks": 96,
          "midi": 84,
          "name": "C6",
          "ticks": 213984,
          "time": 208.96875,
          "velocity": 0.3937007874015748
        },
        {
          "duration": 0.09375,
          "durationTicks": 96,
          "midi": 76,
          "name": "E5",
          "ticks": 214080,
          "time": 209.0625,
          "velocity": 0.3937007874015748
        },
        {
          "duration": 0.09375,
          "durationTicks": 96,
          "midi": 88,
          "name": "E6",
          "ticks": 214080,
          "time": 209.0625,
          "velocity": 0.3937007874015748
        },
        {
          "duration": 0.09375,
          "durationTicks": 96,
          "midi": 79,
          "name": "G5",
          "ticks": 214080,
          "time": 209.0625,
          "velocity": 0.3937007874015748
        },
        {
          "duration": 0.09375,
          "durationTicks": 96,
          "midi": 84,
          "name": "C6",
          "ticks": 214080,
          "time": 209.0625,
          "velocity": 0.3937007874015748
        },
        {
          "duration": 0.09375,
          "durationTicks": 96,
          "midi": 71,
          "name": "B4",
          "ticks": 214656,
          "time": 209.625,
          "velocity": 0.3937007874015748
        },
        {
          "duration": 0.09375,
          "durationTicks": 96,
          "midi": 83,
          "name": "B5",
          "ticks": 214656,
          "time": 209.625,
          "velocity": 0.3937007874015748
        },
        {
          "duration": 0.09375,
          "durationTicks": 96,
          "midi": 70,
          "name": "A#4",
          "ticks": 214752,
          "time": 209.71875,
          "velocity": 0.3937007874015748
        },
        {
          "duration": 0.09375,
          "durationTicks": 96,
          "midi": 82,
          "name": "A#5",
          "ticks": 214752,
          "time": 209.71875,
          "velocity": 0.3937007874015748
        },
        {
          "duration": 0.09375,
          "durationTicks": 96,
          "midi": 80,
          "name": "G#5",
          "ticks": 214848,
          "time": 209.8125,
          "velocity": 0.3937007874015748
        },
        {
          "duration": 0.09375,
          "durationTicks": 96,
          "midi": 68,
          "name": "G#4",
          "ticks": 214848,
          "time": 209.8125,
          "velocity": 0.3937007874015748
        },
        {
          "duration": 0.09375,
          "durationTicks": 96,
          "midi": 68,
          "name": "G#4",
          "ticks": 215040,
          "time": 210,
          "velocity": 0.3937007874015748
        },
        {
          "duration": 0.09375,
          "durationTicks": 96,
          "midi": 72,
          "name": "C5",
          "ticks": 215040,
          "time": 210,
          "velocity": 0.3937007874015748
        },
        {
          "duration": 0.09375,
          "durationTicks": 96,
          "midi": 65,
          "name": "F4",
          "ticks": 215040,
          "time": 210,
          "velocity": 0.3937007874015748
        },
        {
          "duration": 0.09375,
          "durationTicks": 96,
          "midi": 77,
          "name": "F5",
          "ticks": 215040,
          "time": 210,
          "velocity": 0.3937007874015748
        },
        {
          "duration": 0.09375,
          "durationTicks": 96,
          "midi": 72,
          "name": "C5",
          "ticks": 215040,
          "time": 210,
          "velocity": 0.3937007874015748
        },
        {
          "duration": 0.09375,
          "durationTicks": 96,
          "midi": 69,
          "name": "A4",
          "ticks": 220800,
          "time": 215.625,
          "velocity": 0.3937007874015748
        },
        {
          "duration": 0.09375,
          "durationTicks": 96,
          "midi": 81,
          "name": "A5",
          "ticks": 220800,
          "time": 215.625,
          "velocity": 0.3937007874015748
        },
        {
          "duration": 0.09375,
          "durationTicks": 96,
          "midi": 71,
          "name": "B4",
          "ticks": 220896,
          "time": 215.71875,
          "velocity": 0.3937007874015748
        },
        {
          "duration": 0.09375,
          "durationTicks": 96,
          "midi": 83,
          "name": "B5",
          "ticks": 220896,
          "time": 215.71875,
          "velocity": 0.3937007874015748
        },
        {
          "duration": 0.09375,
          "durationTicks": 96,
          "midi": 84,
          "name": "C6",
          "ticks": 220992,
          "time": 215.8125,
          "velocity": 0.3937007874015748
        },
        {
          "duration": 0.09375,
          "durationTicks": 96,
          "midi": 72,
          "name": "C5",
          "ticks": 220992,
          "time": 215.8125,
          "velocity": 0.3937007874015748
        },
        {
          "duration": 0.09375,
          "durationTicks": 96,
          "midi": 74,
          "name": "D5",
          "ticks": 221088,
          "time": 215.90625,
          "velocity": 0.3937007874015748
        },
        {
          "duration": 0.09375,
          "durationTicks": 96,
          "midi": 86,
          "name": "D6",
          "ticks": 221088,
          "time": 215.90625,
          "velocity": 0.3937007874015748
        },
        {
          "duration": 0.09375,
          "durationTicks": 96,
          "midi": 88,
          "name": "E6",
          "ticks": 221184,
          "time": 216,
          "velocity": 0.3937007874015748
        },
        {
          "duration": 0.09375,
          "durationTicks": 96,
          "midi": 76,
          "name": "E5",
          "ticks": 221184,
          "time": 216,
          "velocity": 0.3937007874015748
        },
        {
          "duration": 0.09375,
          "durationTicks": 96,
          "midi": 88,
          "name": "E6",
          "ticks": 221280,
          "time": 216.09375,
          "velocity": 0.3937007874015748
        },
        {
          "duration": 0.09375,
          "durationTicks": 96,
          "midi": 76,
          "name": "E5",
          "ticks": 221280,
          "time": 216.09375,
          "velocity": 0.3937007874015748
        },
        {
          "duration": 0.09375,
          "durationTicks": 96,
          "midi": 76,
          "name": "E5",
          "ticks": 221376,
          "time": 216.1875,
          "velocity": 0.3937007874015748
        },
        {
          "duration": 0.09375,
          "durationTicks": 96,
          "midi": 88,
          "name": "E6",
          "ticks": 221376,
          "time": 216.1875,
          "velocity": 0.3937007874015748
        },
        {
          "duration": 0.09375,
          "durationTicks": 96,
          "midi": 76,
          "name": "E5",
          "ticks": 221472,
          "time": 216.28125,
          "velocity": 0.3937007874015748
        },
        {
          "duration": 0.09375,
          "durationTicks": 96,
          "midi": 88,
          "name": "E6",
          "ticks": 221472,
          "time": 216.28125,
          "velocity": 0.3937007874015748
        },
        {
          "duration": 0.09375,
          "durationTicks": 96,
          "midi": 76,
          "name": "E5",
          "ticks": 221568,
          "time": 216.375,
          "velocity": 0.3937007874015748
        },
        {
          "duration": 0.09375,
          "durationTicks": 96,
          "midi": 88,
          "name": "E6",
          "ticks": 221568,
          "time": 216.375,
          "velocity": 0.3937007874015748
        },
        {
          "duration": 0.09375,
          "durationTicks": 96,
          "midi": 76,
          "name": "E5",
          "ticks": 221664,
          "time": 216.46875,
          "velocity": 0.3937007874015748
        },
        {
          "duration": 0.09375,
          "durationTicks": 96,
          "midi": 88,
          "name": "E6",
          "ticks": 221664,
          "time": 216.46875,
          "velocity": 0.3937007874015748
        },
        {
          "duration": 0.09375,
          "durationTicks": 96,
          "midi": 88,
          "name": "E6",
          "ticks": 221760,
          "time": 216.5625,
          "velocity": 0.3937007874015748
        },
        {
          "duration": 0.09375,
          "durationTicks": 96,
          "midi": 76,
          "name": "E5",
          "ticks": 221760,
          "time": 216.5625,
          "velocity": 0.3937007874015748
        },
        {
          "duration": 0.09375,
          "durationTicks": 96,
          "midi": 88,
          "name": "E6",
          "ticks": 221856,
          "time": 216.65625,
          "velocity": 0.3937007874015748
        },
        {
          "duration": 0.09375,
          "durationTicks": 96,
          "midi": 76,
          "name": "E5",
          "ticks": 221856,
          "time": 216.65625,
          "velocity": 0.3937007874015748
        },
        {
          "duration": 0.09375,
          "durationTicks": 96,
          "midi": 88,
          "name": "E6",
          "ticks": 221952,
          "time": 216.75,
          "velocity": 0.3937007874015748
        },
        {
          "duration": 0.09375,
          "durationTicks": 96,
          "midi": 76,
          "name": "E5",
          "ticks": 221952,
          "time": 216.75,
          "velocity": 0.3937007874015748
        },
        {
          "duration": 0.09375,
          "durationTicks": 96,
          "midi": 76,
          "name": "E5",
          "ticks": 222048,
          "time": 216.84375,
          "velocity": 0.3937007874015748
        },
        {
          "duration": 0.09375,
          "durationTicks": 96,
          "midi": 88,
          "name": "E6",
          "ticks": 222048,
          "time": 216.84375,
          "velocity": 0.3937007874015748
        },
        {
          "duration": 0.09375,
          "durationTicks": 96,
          "midi": 88,
          "name": "E6",
          "ticks": 222144,
          "time": 216.9375,
          "velocity": 0.3937007874015748
        },
        {
          "duration": 0.09375,
          "durationTicks": 96,
          "midi": 76,
          "name": "E5",
          "ticks": 222144,
          "time": 216.9375,
          "velocity": 0.3937007874015748
        },
        {
          "duration": 0.09375,
          "durationTicks": 96,
          "midi": 76,
          "name": "E5",
          "ticks": 222240,
          "time": 217.03125,
          "velocity": 0.3937007874015748
        },
        {
          "duration": 0.09375,
          "durationTicks": 96,
          "midi": 88,
          "name": "E6",
          "ticks": 222240,
          "time": 217.03125,
          "velocity": 0.3937007874015748
        },
        {
          "duration": 0.09375,
          "durationTicks": 96,
          "midi": 88,
          "name": "E6",
          "ticks": 222336,
          "time": 217.125,
          "velocity": 0.3937007874015748
        },
        {
          "duration": 0.09375,
          "durationTicks": 96,
          "midi": 76,
          "name": "E5",
          "ticks": 222336,
          "time": 217.125,
          "velocity": 0.3937007874015748
        },
        {
          "duration": 0.09375,
          "durationTicks": 96,
          "midi": 88,
          "name": "E6",
          "ticks": 222432,
          "time": 217.21875,
          "velocity": 0.3937007874015748
        },
        {
          "duration": 0.09375,
          "durationTicks": 96,
          "midi": 76,
          "name": "E5",
          "ticks": 222432,
          "time": 217.21875,
          "velocity": 0.3937007874015748
        },
        {
          "duration": 0.09375,
          "durationTicks": 96,
          "midi": 76,
          "name": "E5",
          "ticks": 222528,
          "time": 217.3125,
          "velocity": 0.3937007874015748
        },
        {
          "duration": 0.09375,
          "durationTicks": 96,
          "midi": 88,
          "name": "E6",
          "ticks": 222528,
          "time": 217.3125,
          "velocity": 0.3937007874015748
        },
        {
          "duration": 0.09375,
          "durationTicks": 96,
          "midi": 76,
          "name": "E5",
          "ticks": 222624,
          "time": 217.40625,
          "velocity": 0.3937007874015748
        },
        {
          "duration": 0.09375,
          "durationTicks": 96,
          "midi": 88,
          "name": "E6",
          "ticks": 222624,
          "time": 217.40625,
          "velocity": 0.3937007874015748
        },
        {
          "duration": 0.09375,
          "durationTicks": 96,
          "midi": 88,
          "name": "E6",
          "ticks": 222720,
          "time": 217.5,
          "velocity": 0.3937007874015748
        },
        {
          "duration": 0.09375,
          "durationTicks": 96,
          "midi": 76,
          "name": "E5",
          "ticks": 222720,
          "time": 217.5,
          "velocity": 0.3937007874015748
        },
        {
          "duration": 0.09375,
          "durationTicks": 96,
          "midi": 76,
          "name": "E5",
          "ticks": 222816,
          "time": 217.59375,
          "velocity": 0.3937007874015748
        },
        {
          "duration": 0.09375,
          "durationTicks": 96,
          "midi": 88,
          "name": "E6",
          "ticks": 222816,
          "time": 217.59375,
          "velocity": 0.3937007874015748
        },
        {
          "duration": 0.09375,
          "durationTicks": 96,
          "midi": 76,
          "name": "E5",
          "ticks": 222912,
          "time": 217.6875,
          "velocity": 0.3937007874015748
        },
        {
          "duration": 0.09375,
          "durationTicks": 96,
          "midi": 88,
          "name": "E6",
          "ticks": 222912,
          "time": 217.6875,
          "velocity": 0.3937007874015748
        },
        {
          "duration": 0.09375,
          "durationTicks": 96,
          "midi": 88,
          "name": "E6",
          "ticks": 223008,
          "time": 217.78125,
          "velocity": 0.3937007874015748
        },
        {
          "duration": 0.09375,
          "durationTicks": 96,
          "midi": 76,
          "name": "E5",
          "ticks": 223008,
          "time": 217.78125,
          "velocity": 0.3937007874015748
        },
        {
          "duration": 0.09375,
          "durationTicks": 96,
          "midi": 76,
          "name": "E5",
          "ticks": 223104,
          "time": 217.875,
          "velocity": 0.3937007874015748
        },
        {
          "duration": 0.09375,
          "durationTicks": 96,
          "midi": 88,
          "name": "E6",
          "ticks": 223104,
          "time": 217.875,
          "velocity": 0.3937007874015748
        },
        {
          "duration": 0.09375,
          "durationTicks": 96,
          "midi": 88,
          "name": "E6",
          "ticks": 223200,
          "time": 217.96875,
          "velocity": 0.3937007874015748
        },
        {
          "duration": 0.09375,
          "durationTicks": 96,
          "midi": 76,
          "name": "E5",
          "ticks": 223200,
          "time": 217.96875,
          "velocity": 0.3937007874015748
        },
        {
          "duration": 0.09375,
          "durationTicks": 96,
          "midi": 76,
          "name": "E5",
          "ticks": 223296,
          "time": 218.0625,
          "velocity": 0.3937007874015748
        },
        {
          "duration": 0.09375,
          "durationTicks": 96,
          "midi": 88,
          "name": "E6",
          "ticks": 223296,
          "time": 218.0625,
          "velocity": 0.3937007874015748
        },
        {
          "duration": 0.09375,
          "durationTicks": 96,
          "midi": 76,
          "name": "E5",
          "ticks": 223392,
          "time": 218.15625,
          "velocity": 0.3937007874015748
        },
        {
          "duration": 0.09375,
          "durationTicks": 96,
          "midi": 88,
          "name": "E6",
          "ticks": 223392,
          "time": 218.15625,
          "velocity": 0.3937007874015748
        },
        {
          "duration": 0.09375,
          "durationTicks": 96,
          "midi": 88,
          "name": "E6",
          "ticks": 223488,
          "time": 218.25,
          "velocity": 0.3937007874015748
        },
        {
          "duration": 0.09375,
          "durationTicks": 96,
          "midi": 76,
          "name": "E5",
          "ticks": 223488,
          "time": 218.25,
          "velocity": 0.3937007874015748
        },
        {
          "duration": 0.09375,
          "durationTicks": 96,
          "midi": 88,
          "name": "E6",
          "ticks": 223584,
          "time": 218.34375,
          "velocity": 0.3937007874015748
        },
        {
          "duration": 0.09375,
          "durationTicks": 96,
          "midi": 76,
          "name": "E5",
          "ticks": 223584,
          "time": 218.34375,
          "velocity": 0.3937007874015748
        },
        {
          "duration": 0.09375,
          "durationTicks": 96,
          "midi": 88,
          "name": "E6",
          "ticks": 223680,
          "time": 218.4375,
          "velocity": 0.3937007874015748
        },
        {
          "duration": 0.09375,
          "durationTicks": 96,
          "midi": 76,
          "name": "E5",
          "ticks": 223680,
          "time": 218.4375,
          "velocity": 0.3937007874015748
        },
        {
          "duration": 0.09375,
          "durationTicks": 96,
          "midi": 88,
          "name": "E6",
          "ticks": 223776,
          "time": 218.53125,
          "velocity": 0.3937007874015748
        },
        {
          "duration": 0.09375,
          "durationTicks": 96,
          "midi": 76,
          "name": "E5",
          "ticks": 223776,
          "time": 218.53125,
          "velocity": 0.3937007874015748
        },
        {
          "duration": 0.09375,
          "durationTicks": 96,
          "midi": 88,
          "name": "E6",
          "ticks": 223872,
          "time": 218.625,
          "velocity": 0.3937007874015748
        },
        {
          "duration": 0.09375,
          "durationTicks": 96,
          "midi": 76,
          "name": "E5",
          "ticks": 223872,
          "time": 218.625,
          "velocity": 0.3937007874015748
        },
        {
          "duration": 0.09375,
          "durationTicks": 96,
          "midi": 88,
          "name": "E6",
          "ticks": 223968,
          "time": 218.71875,
          "velocity": 0.3937007874015748
        },
        {
          "duration": 0.09375,
          "durationTicks": 96,
          "midi": 76,
          "name": "E5",
          "ticks": 223968,
          "time": 218.71875,
          "velocity": 0.3937007874015748
        },
        {
          "duration": 0.09375,
          "durationTicks": 96,
          "midi": 76,
          "name": "E5",
          "ticks": 224064,
          "time": 218.8125,
          "velocity": 0.3937007874015748
        },
        {
          "duration": 0.09375,
          "durationTicks": 96,
          "midi": 88,
          "name": "E6",
          "ticks": 224064,
          "time": 218.8125,
          "velocity": 0.3937007874015748
        },
        {
          "duration": 0.09375,
          "durationTicks": 96,
          "midi": 76,
          "name": "E5",
          "ticks": 224160,
          "time": 218.90625,
          "velocity": 0.3937007874015748
        },
        {
          "duration": 0.09375,
          "durationTicks": 96,
          "midi": 88,
          "name": "E6",
          "ticks": 224160,
          "time": 218.90625,
          "velocity": 0.3937007874015748
        },
        {
          "duration": 0.09375,
          "durationTicks": 96,
          "midi": 88,
          "name": "E6",
          "ticks": 224256,
          "time": 219,
          "velocity": 0.3937007874015748
        },
        {
          "duration": 0.09375,
          "durationTicks": 96,
          "midi": 76,
          "name": "E5",
          "ticks": 224256,
          "time": 219,
          "velocity": 0.3937007874015748
        },
        {
          "duration": 0.09375,
          "durationTicks": 96,
          "midi": 88,
          "name": "E6",
          "ticks": 224352,
          "time": 219.09375,
          "velocity": 0.3937007874015748
        },
        {
          "duration": 0.09375,
          "durationTicks": 96,
          "midi": 76,
          "name": "E5",
          "ticks": 224352,
          "time": 219.09375,
          "velocity": 0.3937007874015748
        },
        {
          "duration": 0.09375,
          "durationTicks": 96,
          "midi": 88,
          "name": "E6",
          "ticks": 224448,
          "time": 219.1875,
          "velocity": 0.3937007874015748
        },
        {
          "duration": 0.09375,
          "durationTicks": 96,
          "midi": 76,
          "name": "E5",
          "ticks": 224448,
          "time": 219.1875,
          "velocity": 0.3937007874015748
        },
        {
          "duration": 0.09375,
          "durationTicks": 96,
          "midi": 88,
          "name": "E6",
          "ticks": 224544,
          "time": 219.28125,
          "velocity": 0.3937007874015748
        },
        {
          "duration": 0.09375,
          "durationTicks": 96,
          "midi": 76,
          "name": "E5",
          "ticks": 224544,
          "time": 219.28125,
          "velocity": 0.3937007874015748
        },
        {
          "duration": 0.09375,
          "durationTicks": 96,
          "midi": 76,
          "name": "E5",
          "ticks": 224640,
          "time": 219.375,
          "velocity": 0.3937007874015748
        },
        {
          "duration": 0.09375,
          "durationTicks": 96,
          "midi": 88,
          "name": "E6",
          "ticks": 224640,
          "time": 219.375,
          "velocity": 0.3937007874015748
        },
        {
          "duration": 0.09375,
          "durationTicks": 96,
          "midi": 88,
          "name": "E6",
          "ticks": 224736,
          "time": 219.46875,
          "velocity": 0.3937007874015748
        },
        {
          "duration": 0.09375,
          "durationTicks": 96,
          "midi": 76,
          "name": "E5",
          "ticks": 224736,
          "time": 219.46875,
          "velocity": 0.3937007874015748
        },
        {
          "duration": 0.09375,
          "durationTicks": 96,
          "midi": 76,
          "name": "E5",
          "ticks": 224832,
          "time": 219.5625,
          "velocity": 0.3937007874015748
        },
        {
          "duration": 0.09375,
          "durationTicks": 96,
          "midi": 88,
          "name": "E6",
          "ticks": 224832,
          "time": 219.5625,
          "velocity": 0.3937007874015748
        },
        {
          "duration": 0.09375,
          "durationTicks": 96,
          "midi": 88,
          "name": "E6",
          "ticks": 224928,
          "time": 219.65625,
          "velocity": 0.3937007874015748
        },
        {
          "duration": 0.09375,
          "durationTicks": 96,
          "midi": 76,
          "name": "E5",
          "ticks": 224928,
          "time": 219.65625,
          "velocity": 0.3937007874015748
        },
        {
          "duration": 0.09375,
          "durationTicks": 96,
          "midi": 88,
          "name": "E6",
          "ticks": 225024,
          "time": 219.75,
          "velocity": 0.3937007874015748
        },
        {
          "duration": 0.09375,
          "durationTicks": 96,
          "midi": 76,
          "name": "E5",
          "ticks": 225024,
          "time": 219.75,
          "velocity": 0.3937007874015748
        },
        {
          "duration": 0.09375,
          "durationTicks": 96,
          "midi": 76,
          "name": "E5",
          "ticks": 225120,
          "time": 219.84375,
          "velocity": 0.3937007874015748
        },
        {
          "duration": 0.09375,
          "durationTicks": 96,
          "midi": 88,
          "name": "E6",
          "ticks": 225120,
          "time": 219.84375,
          "velocity": 0.3937007874015748
        },
        {
          "duration": 0.09375,
          "durationTicks": 96,
          "midi": 88,
          "name": "E6",
          "ticks": 225216,
          "time": 219.9375,
          "velocity": 0.3937007874015748
        },
        {
          "duration": 0.09375,
          "durationTicks": 96,
          "midi": 76,
          "name": "E5",
          "ticks": 225216,
          "time": 219.9375,
          "velocity": 0.3937007874015748
        },
        {
          "duration": 0.09375,
          "durationTicks": 96,
          "midi": 76,
          "name": "E5",
          "ticks": 225312,
          "time": 220.03125,
          "velocity": 0.3937007874015748
        },
        {
          "duration": 0.09375,
          "durationTicks": 96,
          "midi": 88,
          "name": "E6",
          "ticks": 225312,
          "time": 220.03125,
          "velocity": 0.3937007874015748
        },
        {
          "duration": 0.09375,
          "durationTicks": 96,
          "midi": 88,
          "name": "E6",
          "ticks": 225408,
          "time": 220.125,
          "velocity": 0.3937007874015748
        },
        {
          "duration": 0.09375,
          "durationTicks": 96,
          "midi": 76,
          "name": "E5",
          "ticks": 225408,
          "time": 220.125,
          "velocity": 0.3937007874015748
        },
        {
          "duration": 0.09375,
          "durationTicks": 96,
          "midi": 88,
          "name": "E6",
          "ticks": 225504,
          "time": 220.21875,
          "velocity": 0.3937007874015748
        },
        {
          "duration": 0.09375,
          "durationTicks": 96,
          "midi": 76,
          "name": "E5",
          "ticks": 225504,
          "time": 220.21875,
          "velocity": 0.3937007874015748
        },
        {
          "duration": 0.09375,
          "durationTicks": 96,
          "midi": 76,
          "name": "E5",
          "ticks": 225600,
          "time": 220.3125,
          "velocity": 0.3937007874015748
        },
        {
          "duration": 0.09375,
          "durationTicks": 96,
          "midi": 88,
          "name": "E6",
          "ticks": 225600,
          "time": 220.3125,
          "velocity": 0.3937007874015748
        },
        {
          "duration": 0.09375,
          "durationTicks": 96,
          "midi": 88,
          "name": "E6",
          "ticks": 225696,
          "time": 220.40625,
          "velocity": 0.3937007874015748
        },
        {
          "duration": 0.09375,
          "durationTicks": 96,
          "midi": 76,
          "name": "E5",
          "ticks": 225696,
          "time": 220.40625,
          "velocity": 0.3937007874015748
        },
        {
          "duration": 0.1875,
          "durationTicks": 192,
          "midi": 83,
          "name": "B5",
          "ticks": 227328,
          "time": 222,
          "velocity": 0.3937007874015748
        },
        {
          "duration": 0.1875,
          "durationTicks": 192,
          "midi": 79,
          "name": "G5",
          "ticks": 227520,
          "time": 222.1875,
          "velocity": 0.3937007874015748
        },
        {
          "duration": 0.1875,
          "durationTicks": 192,
          "midi": 76,
          "name": "E5",
          "ticks": 227712,
          "time": 222.375,
          "velocity": 0.3937007874015748
        },
        {
          "duration": 0.1875,
          "durationTicks": 192,
          "midi": 82,
          "name": "A#5",
          "ticks": 227904,
          "time": 222.5625,
          "velocity": 0.3937007874015748
        },
        {
          "duration": 0.1875,
          "durationTicks": 192,
          "midi": 79,
          "name": "G5",
          "ticks": 228096,
          "time": 222.75,
          "velocity": 0.3937007874015748
        },
        {
          "duration": 0.1875,
          "durationTicks": 192,
          "midi": 76,
          "name": "E5",
          "ticks": 228288,
          "time": 222.9375,
          "velocity": 0.3937007874015748
        },
        {
          "duration": 0.1875,
          "durationTicks": 192,
          "midi": 82,
          "name": "A#5",
          "ticks": 228480,
          "time": 223.125,
          "velocity": 0.3937007874015748
        },
        {
          "duration": 0.1875,
          "durationTicks": 192,
          "midi": 79,
          "name": "G5",
          "ticks": 228672,
          "time": 223.3125,
          "velocity": 0.3937007874015748
        },
        {
          "duration": 0.1875,
          "durationTicks": 192,
          "midi": 83,
          "name": "B5",
          "ticks": 228864,
          "time": 223.5,
          "velocity": 0.3937007874015748
        },
        {
          "duration": 0.1875,
          "durationTicks": 192,
          "midi": 79,
          "name": "G5",
          "ticks": 229056,
          "time": 223.6875,
          "velocity": 0.3937007874015748
        },
        {
          "duration": 0.1875,
          "durationTicks": 192,
          "midi": 76,
          "name": "E5",
          "ticks": 229248,
          "time": 223.875,
          "velocity": 0.3937007874015748
        },
        {
          "duration": 0.1875,
          "durationTicks": 192,
          "midi": 82,
          "name": "A#5",
          "ticks": 229440,
          "time": 224.0625,
          "velocity": 0.3937007874015748
        },
        {
          "duration": 0.1875,
          "durationTicks": 192,
          "midi": 79,
          "name": "G5",
          "ticks": 229632,
          "time": 224.25,
          "velocity": 0.3937007874015748
        },
        {
          "duration": 0.1875,
          "durationTicks": 192,
          "midi": 76,
          "name": "E5",
          "ticks": 229824,
          "time": 224.4375,
          "velocity": 0.3937007874015748
        },
        {
          "duration": 0.1875,
          "durationTicks": 192,
          "midi": 84,
          "name": "C6",
          "ticks": 230016,
          "time": 224.625,
          "velocity": 0.3937007874015748
        },
        {
          "duration": 0.1875,
          "durationTicks": 192,
          "midi": 82,
          "name": "A#5",
          "ticks": 230208,
          "time": 224.8125,
          "velocity": 0.3937007874015748
        },
        {
          "duration": 0.1875,
          "durationTicks": 192,
          "midi": 83,
          "name": "B5",
          "ticks": 230400,
          "time": 225,
          "velocity": 0.3937007874015748
        },
        {
          "duration": 0.1875,
          "durationTicks": 192,
          "midi": 79,
          "name": "G5",
          "ticks": 230592,
          "time": 225.1875,
          "velocity": 0.3937007874015748
        },
        {
          "duration": 0.1875,
          "durationTicks": 192,
          "midi": 76,
          "name": "E5",
          "ticks": 230784,
          "time": 225.375,
          "velocity": 0.3937007874015748
        },
        {
          "duration": 0.1875,
          "durationTicks": 192,
          "midi": 82,
          "name": "A#5",
          "ticks": 230976,
          "time": 225.5625,
          "velocity": 0.3937007874015748
        },
        {
          "duration": 0.1875,
          "durationTicks": 192,
          "midi": 79,
          "name": "G5",
          "ticks": 231168,
          "time": 225.75,
          "velocity": 0.3937007874015748
        },
        {
          "duration": 0.1875,
          "durationTicks": 192,
          "midi": 76,
          "name": "E5",
          "ticks": 231360,
          "time": 225.9375,
          "velocity": 0.3937007874015748
        },
        {
          "duration": 0.1875,
          "durationTicks": 192,
          "midi": 82,
          "name": "A#5",
          "ticks": 231552,
          "time": 226.125,
          "velocity": 0.3937007874015748
        },
        {
          "duration": 0.1875,
          "durationTicks": 192,
          "midi": 79,
          "name": "G5",
          "ticks": 231744,
          "time": 226.3125,
          "velocity": 0.3937007874015748
        },
        {
          "duration": 0.1875,
          "durationTicks": 192,
          "midi": 83,
          "name": "B5",
          "ticks": 231936,
          "time": 226.5,
          "velocity": 0.3937007874015748
        },
        {
          "duration": 0.1875,
          "durationTicks": 192,
          "midi": 79,
          "name": "G5",
          "ticks": 232128,
          "time": 226.6875,
          "velocity": 0.3937007874015748
        },
        {
          "duration": 0.1875,
          "durationTicks": 192,
          "midi": 76,
          "name": "E5",
          "ticks": 232320,
          "time": 226.875,
          "velocity": 0.3937007874015748
        },
        {
          "duration": 0.1875,
          "durationTicks": 192,
          "midi": 72,
          "name": "C5",
          "ticks": 232512,
          "time": 227.0625,
          "velocity": 0.3937007874015748
        },
        {
          "duration": 0.1875,
          "durationTicks": 192,
          "midi": 83,
          "name": "B5",
          "ticks": 233472,
          "time": 228,
          "velocity": 0.3937007874015748
        },
        {
          "duration": 0.1875,
          "durationTicks": 192,
          "midi": 79,
          "name": "G5",
          "ticks": 233664,
          "time": 228.1875,
          "velocity": 0.3937007874015748
        },
        {
          "duration": 0.1875,
          "durationTicks": 192,
          "midi": 76,
          "name": "E5",
          "ticks": 233856,
          "time": 228.375,
          "velocity": 0.3937007874015748
        },
        {
          "duration": 0.1875,
          "durationTicks": 192,
          "midi": 82,
          "name": "A#5",
          "ticks": 234048,
          "time": 228.5625,
          "velocity": 0.3937007874015748
        },
        {
          "duration": 0.1875,
          "durationTicks": 192,
          "midi": 79,
          "name": "G5",
          "ticks": 234240,
          "time": 228.75,
          "velocity": 0.3937007874015748
        },
        {
          "duration": 0.1875,
          "durationTicks": 192,
          "midi": 76,
          "name": "E5",
          "ticks": 234432,
          "time": 228.9375,
          "velocity": 0.3937007874015748
        },
        {
          "duration": 0.1875,
          "durationTicks": 192,
          "midi": 82,
          "name": "A#5",
          "ticks": 234624,
          "time": 229.125,
          "velocity": 0.3937007874015748
        },
        {
          "duration": 0.1875,
          "durationTicks": 192,
          "midi": 79,
          "name": "G5",
          "ticks": 234816,
          "time": 229.3125,
          "velocity": 0.3937007874015748
        },
        {
          "duration": 0.1875,
          "durationTicks": 192,
          "midi": 83,
          "name": "B5",
          "ticks": 235008,
          "time": 229.5,
          "velocity": 0.3937007874015748
        },
        {
          "duration": 0.1875,
          "durationTicks": 192,
          "midi": 79,
          "name": "G5",
          "ticks": 235200,
          "time": 229.6875,
          "velocity": 0.3937007874015748
        },
        {
          "duration": 0.1875,
          "durationTicks": 192,
          "midi": 76,
          "name": "E5",
          "ticks": 235392,
          "time": 229.875,
          "velocity": 0.3937007874015748
        },
        {
          "duration": 0.1875,
          "durationTicks": 192,
          "midi": 82,
          "name": "A#5",
          "ticks": 235584,
          "time": 230.0625,
          "velocity": 0.3937007874015748
        },
        {
          "duration": 0.1875,
          "durationTicks": 192,
          "midi": 79,
          "name": "G5",
          "ticks": 235776,
          "time": 230.25,
          "velocity": 0.3937007874015748
        },
        {
          "duration": 0.1875,
          "durationTicks": 192,
          "midi": 76,
          "name": "E5",
          "ticks": 235968,
          "time": 230.4375,
          "velocity": 0.3937007874015748
        },
        {
          "duration": 0.1875,
          "durationTicks": 192,
          "midi": 84,
          "name": "C6",
          "ticks": 236160,
          "time": 230.625,
          "velocity": 0.3937007874015748
        },
        {
          "duration": 0.1875,
          "durationTicks": 192,
          "midi": 82,
          "name": "A#5",
          "ticks": 236352,
          "time": 230.8125,
          "velocity": 0.3937007874015748
        },
        {
          "duration": 0.1875,
          "durationTicks": 192,
          "midi": 83,
          "name": "B5",
          "ticks": 236544,
          "time": 231,
          "velocity": 0.3937007874015748
        },
        {
          "duration": 0.1875,
          "durationTicks": 192,
          "midi": 79,
          "name": "G5",
          "ticks": 236736,
          "time": 231.1875,
          "velocity": 0.3937007874015748
        },
        {
          "duration": 0.1875,
          "durationTicks": 192,
          "midi": 76,
          "name": "E5",
          "ticks": 236928,
          "time": 231.375,
          "velocity": 0.3937007874015748
        },
        {
          "duration": 0.1875,
          "durationTicks": 192,
          "midi": 82,
          "name": "A#5",
          "ticks": 237120,
          "time": 231.5625,
          "velocity": 0.3937007874015748
        },
        {
          "duration": 0.1875,
          "durationTicks": 192,
          "midi": 79,
          "name": "G5",
          "ticks": 237312,
          "time": 231.75,
          "velocity": 0.3937007874015748
        },
        {
          "duration": 0.1875,
          "durationTicks": 192,
          "midi": 76,
          "name": "E5",
          "ticks": 237504,
          "time": 231.9375,
          "velocity": 0.3937007874015748
        },
        {
          "duration": 0.1875,
          "durationTicks": 192,
          "midi": 82,
          "name": "A#5",
          "ticks": 237696,
          "time": 232.125,
          "velocity": 0.3937007874015748
        },
        {
          "duration": 0.1875,
          "durationTicks": 192,
          "midi": 79,
          "name": "G5",
          "ticks": 237888,
          "time": 232.3125,
          "velocity": 0.3937007874015748
        },
        {
          "duration": 0.1875,
          "durationTicks": 192,
          "midi": 83,
          "name": "B5",
          "ticks": 238080,
          "time": 232.5,
          "velocity": 0.3937007874015748
        },
        {
          "duration": 0.1875,
          "durationTicks": 192,
          "midi": 79,
          "name": "G5",
          "ticks": 238272,
          "time": 232.6875,
          "velocity": 0.3937007874015748
        },
        {
          "duration": 0.1875,
          "durationTicks": 192,
          "midi": 76,
          "name": "E5",
          "ticks": 238464,
          "time": 232.875,
          "velocity": 0.3937007874015748
        },
        {
          "duration": 0.1875,
          "durationTicks": 192,
          "midi": 71,
          "name": "B4",
          "ticks": 238656,
          "time": 233.0625,
          "velocity": 0.3937007874015748
        }
      ],
      "endOfTrackTicks": 238848
    },
    {
      "channel": 6,
      "controlChanges": {},
      "pitchBends": [],
      "instrument": {
        "family": "strings",
        "number": 42,
        "name": "cello"
      },
      "name": "Cello",
      "notes": [
        {
          "duration": 0.09375,
          "durationTicks": 96,
          "midi": 40,
          "name": "E2",
          "ticks": 55296,
          "time": 54,
          "velocity": 0.3937007874015748
        },
        {
          "duration": 0.09375,
          "durationTicks": 96,
          "midi": 47,
          "name": "B2",
          "ticks": 55296,
          "time": 54,
          "velocity": 0.3937007874015748
        },
        {
          "duration": 0.09375,
          "durationTicks": 96,
          "midi": 47,
          "name": "B2",
          "ticks": 55872,
          "time": 54.5625,
          "velocity": 0.3937007874015748
        },
        {
          "duration": 0.09375,
          "durationTicks": 96,
          "midi": 40,
          "name": "E2",
          "ticks": 55872,
          "time": 54.5625,
          "velocity": 0.3937007874015748
        },
        {
          "duration": 0.09375,
          "durationTicks": 96,
          "midi": 52,
          "name": "E3",
          "ticks": 55872,
          "time": 54.5625,
          "velocity": 0.3937007874015748
        },
        {
          "duration": 0.09375,
          "durationTicks": 96,
          "midi": 47,
          "name": "B2",
          "ticks": 56448,
          "time": 55.125,
          "velocity": 0.3937007874015748
        },
        {
          "duration": 0.09375,
          "durationTicks": 96,
          "midi": 40,
          "name": "E2",
          "ticks": 56448,
          "time": 55.125,
          "velocity": 0.3937007874015748
        },
        {
          "duration": 0.09375,
          "durationTicks": 96,
          "midi": 52,
          "name": "E3",
          "ticks": 56448,
          "time": 55.125,
          "velocity": 0.3937007874015748
        },
        {
          "duration": 0.09375,
          "durationTicks": 96,
          "midi": 40,
          "name": "E2",
          "ticks": 56832,
          "time": 55.5,
          "velocity": 0.3937007874015748
        },
        {
          "duration": 0.09375,
          "durationTicks": 96,
          "midi": 47,
          "name": "B2",
          "ticks": 56832,
          "time": 55.5,
          "velocity": 0.3937007874015748
        },
        {
          "duration": 0.09375,
          "durationTicks": 96,
          "midi": 52,
          "name": "E3",
          "ticks": 56832,
          "time": 55.5,
          "velocity": 0.3937007874015748
        },
        {
          "duration": 0.09375,
          "durationTicks": 96,
          "midi": 47,
          "name": "B2",
          "ticks": 57408,
          "time": 56.0625,
          "velocity": 0.3937007874015748
        },
        {
          "duration": 0.09375,
          "durationTicks": 96,
          "midi": 40,
          "name": "E2",
          "ticks": 57408,
          "time": 56.0625,
          "velocity": 0.3937007874015748
        },
        {
          "duration": 0.09375,
          "durationTicks": 96,
          "midi": 52,
          "name": "E3",
          "ticks": 57408,
          "time": 56.0625,
          "velocity": 0.3937007874015748
        },
        {
          "duration": 0.09375,
          "durationTicks": 96,
          "midi": 40,
          "name": "E2",
          "ticks": 57984,
          "time": 56.625,
          "velocity": 0.3937007874015748
        },
        {
          "duration": 0.09375,
          "durationTicks": 96,
          "midi": 52,
          "name": "E3",
          "ticks": 57984,
          "time": 56.625,
          "velocity": 0.3937007874015748
        },
        {
          "duration": 0.09375,
          "durationTicks": 96,
          "midi": 47,
          "name": "B2",
          "ticks": 57984,
          "time": 56.625,
          "velocity": 0.3937007874015748
        },
        {
          "duration": 0.09375,
          "durationTicks": 96,
          "midi": 52,
          "name": "E3",
          "ticks": 58368,
          "time": 57,
          "velocity": 0.3937007874015748
        },
        {
          "duration": 0.09375,
          "durationTicks": 96,
          "midi": 47,
          "name": "B2",
          "ticks": 58368,
          "time": 57,
          "velocity": 0.3937007874015748
        },
        {
          "duration": 0.09375,
          "durationTicks": 96,
          "midi": 40,
          "name": "E2",
          "ticks": 58368,
          "time": 57,
          "velocity": 0.3937007874015748
        },
        {
          "duration": 0.09375,
          "durationTicks": 96,
          "midi": 40,
          "name": "E2",
          "ticks": 58944,
          "time": 57.5625,
          "velocity": 0.3937007874015748
        },
        {
          "duration": 0.09375,
          "durationTicks": 96,
          "midi": 52,
          "name": "E3",
          "ticks": 58944,
          "time": 57.5625,
          "velocity": 0.3937007874015748
        },
        {
          "duration": 0.09375,
          "durationTicks": 96,
          "midi": 47,
          "name": "B2",
          "ticks": 58944,
          "time": 57.5625,
          "velocity": 0.3937007874015748
        },
        {
          "duration": 0.09375,
          "durationTicks": 96,
          "midi": 40,
          "name": "E2",
          "ticks": 59520,
          "time": 58.125,
          "velocity": 0.3937007874015748
        },
        {
          "duration": 0.09375,
          "durationTicks": 96,
          "midi": 52,
          "name": "E3",
          "ticks": 59520,
          "time": 58.125,
          "velocity": 0.3937007874015748
        },
        {
          "duration": 0.09375,
          "durationTicks": 96,
          "midi": 47,
          "name": "B2",
          "ticks": 59520,
          "time": 58.125,
          "velocity": 0.3937007874015748
        },
        {
          "duration": 0.09375,
          "durationTicks": 96,
          "midi": 47,
          "name": "B2",
          "ticks": 59904,
          "time": 58.5,
          "velocity": 0.3937007874015748
        },
        {
          "duration": 0.09375,
          "durationTicks": 96,
          "midi": 52,
          "name": "E3",
          "ticks": 59904,
          "time": 58.5,
          "velocity": 0.3937007874015748
        },
        {
          "duration": 0.09375,
          "durationTicks": 96,
          "midi": 40,
          "name": "E2",
          "ticks": 59904,
          "time": 58.5,
          "velocity": 0.3937007874015748
        },
        {
          "duration": 0.09375,
          "durationTicks": 96,
          "midi": 51,
          "name": "D#3",
          "ticks": 60480,
          "time": 59.0625,
          "velocity": 0.3937007874015748
        },
        {
          "duration": 0.09375,
          "durationTicks": 96,
          "midi": 46,
          "name": "A#2",
          "ticks": 60480,
          "time": 59.0625,
          "velocity": 0.3937007874015748
        },
        {
          "duration": 0.09375,
          "durationTicks": 96,
          "midi": 39,
          "name": "D#2",
          "ticks": 60480,
          "time": 59.0625,
          "velocity": 0.3937007874015748
        },
        {
          "duration": 0.09375,
          "durationTicks": 96,
          "midi": 39,
          "name": "D#2",
          "ticks": 60576,
          "time": 59.15625,
          "velocity": 0.3937007874015748
        },
        {
          "duration": 0.09375,
          "durationTicks": 96,
          "midi": 51,
          "name": "D#3",
          "ticks": 60576,
          "time": 59.15625,
          "velocity": 0.3937007874015748
        },
        {
          "duration": 0.09375,
          "durationTicks": 96,
          "midi": 46,
          "name": "A#2",
          "ticks": 60576,
          "time": 59.15625,
          "velocity": 0.3937007874015748
        },
        {
          "duration": 0.09375,
          "durationTicks": 96,
          "midi": 39,
          "name": "D#2",
          "ticks": 60672,
          "time": 59.25,
          "velocity": 0.3937007874015748
        },
        {
          "duration": 0.09375,
          "durationTicks": 96,
          "midi": 46,
          "name": "A#2",
          "ticks": 60672,
          "time": 59.25,
          "velocity": 0.3937007874015748
        },
        {
          "duration": 0.09375,
          "durationTicks": 96,
          "midi": 51,
          "name": "D#3",
          "ticks": 60672,
          "time": 59.25,
          "velocity": 0.3937007874015748
        },
        {
          "duration": 0.09375,
          "durationTicks": 96,
          "midi": 39,
          "name": "D#2",
          "ticks": 60768,
          "time": 59.34375,
          "velocity": 0.3937007874015748
        },
        {
          "duration": 0.09375,
          "durationTicks": 96,
          "midi": 51,
          "name": "D#3",
          "ticks": 60768,
          "time": 59.34375,
          "velocity": 0.3937007874015748
        },
        {
          "duration": 0.09375,
          "durationTicks": 96,
          "midi": 46,
          "name": "A#2",
          "ticks": 60768,
          "time": 59.34375,
          "velocity": 0.3937007874015748
        },
        {
          "duration": 0.09375,
          "durationTicks": 96,
          "midi": 46,
          "name": "A#2",
          "ticks": 60864,
          "time": 59.4375,
          "velocity": 0.3937007874015748
        },
        {
          "duration": 0.09375,
          "durationTicks": 96,
          "midi": 39,
          "name": "D#2",
          "ticks": 60864,
          "time": 59.4375,
          "velocity": 0.3937007874015748
        },
        {
          "duration": 0.09375,
          "durationTicks": 96,
          "midi": 51,
          "name": "D#3",
          "ticks": 60864,
          "time": 59.4375,
          "velocity": 0.3937007874015748
        },
        {
          "duration": 0.09375,
          "durationTicks": 96,
          "midi": 51,
          "name": "D#3",
          "ticks": 60960,
          "time": 59.53125,
          "velocity": 0.3937007874015748
        },
        {
          "duration": 0.09375,
          "durationTicks": 96,
          "midi": 39,
          "name": "D#2",
          "ticks": 60960,
          "time": 59.53125,
          "velocity": 0.3937007874015748
        },
        {
          "duration": 0.09375,
          "durationTicks": 96,
          "midi": 46,
          "name": "A#2",
          "ticks": 60960,
          "time": 59.53125,
          "velocity": 0.3937007874015748
        },
        {
          "duration": 0.09375,
          "durationTicks": 96,
          "midi": 46,
          "name": "A#2",
          "ticks": 61056,
          "time": 59.625,
          "velocity": 0.3937007874015748
        },
        {
          "duration": 0.09375,
          "durationTicks": 96,
          "midi": 51,
          "name": "D#3",
          "ticks": 61056,
          "time": 59.625,
          "velocity": 0.3937007874015748
        },
        {
          "duration": 0.09375,
          "durationTicks": 96,
          "midi": 39,
          "name": "D#2",
          "ticks": 61056,
          "time": 59.625,
          "velocity": 0.3937007874015748
        },
        {
          "duration": 0.09375,
          "durationTicks": 96,
          "midi": 40,
          "name": "E2",
          "ticks": 61440,
          "time": 60,
          "velocity": 0.3937007874015748
        },
        {
          "duration": 0.09375,
          "durationTicks": 96,
          "midi": 47,
          "name": "B2",
          "ticks": 61440,
          "time": 60,
          "velocity": 0.3937007874015748
        },
        {
          "duration": 0.09375,
          "durationTicks": 96,
          "midi": 52,
          "name": "E3",
          "ticks": 61440,
          "time": 60,
          "velocity": 0.3937007874015748
        },
        {
          "duration": 0.09375,
          "durationTicks": 96,
          "midi": 47,
          "name": "B2",
          "ticks": 62016,
          "time": 60.5625,
          "velocity": 0.3937007874015748
        },
        {
          "duration": 0.09375,
          "durationTicks": 96,
          "midi": 52,
          "name": "E3",
          "ticks": 62016,
          "time": 60.5625,
          "velocity": 0.3937007874015748
        },
        {
          "duration": 0.09375,
          "durationTicks": 96,
          "midi": 40,
          "name": "E2",
          "ticks": 62016,
          "time": 60.5625,
          "velocity": 0.3937007874015748
        },
        {
          "duration": 0.09375,
          "durationTicks": 96,
          "midi": 47,
          "name": "B2",
          "ticks": 62592,
          "time": 61.125,
          "velocity": 0.3937007874015748
        },
        {
          "duration": 0.09375,
          "durationTicks": 96,
          "midi": 52,
          "name": "E3",
          "ticks": 62592,
          "time": 61.125,
          "velocity": 0.3937007874015748
        },
        {
          "duration": 0.09375,
          "durationTicks": 96,
          "midi": 40,
          "name": "E2",
          "ticks": 62592,
          "time": 61.125,
          "velocity": 0.3937007874015748
        },
        {
          "duration": 0.09375,
          "durationTicks": 96,
          "midi": 52,
          "name": "E3",
          "ticks": 62976,
          "time": 61.5,
          "velocity": 0.3937007874015748
        },
        {
          "duration": 0.09375,
          "durationTicks": 96,
          "midi": 40,
          "name": "E2",
          "ticks": 62976,
          "time": 61.5,
          "velocity": 0.3937007874015748
        },
        {
          "duration": 0.09375,
          "durationTicks": 96,
          "midi": 47,
          "name": "B2",
          "ticks": 62976,
          "time": 61.5,
          "velocity": 0.3937007874015748
        },
        {
          "duration": 0.09375,
          "durationTicks": 96,
          "midi": 40,
          "name": "E2",
          "ticks": 63552,
          "time": 62.0625,
          "velocity": 0.3937007874015748
        },
        {
          "duration": 0.09375,
          "durationTicks": 96,
          "midi": 47,
          "name": "B2",
          "ticks": 63552,
          "time": 62.0625,
          "velocity": 0.3937007874015748
        },
        {
          "duration": 0.09375,
          "durationTicks": 96,
          "midi": 52,
          "name": "E3",
          "ticks": 63552,
          "time": 62.0625,
          "velocity": 0.3937007874015748
        },
        {
          "duration": 0.09375,
          "durationTicks": 96,
          "midi": 52,
          "name": "E3",
          "ticks": 64128,
          "time": 62.625,
          "velocity": 0.3937007874015748
        },
        {
          "duration": 0.09375,
          "durationTicks": 96,
          "midi": 40,
          "name": "E2",
          "ticks": 64128,
          "time": 62.625,
          "velocity": 0.3937007874015748
        },
        {
          "duration": 0.09375,
          "durationTicks": 96,
          "midi": 47,
          "name": "B2",
          "ticks": 64128,
          "time": 62.625,
          "velocity": 0.3937007874015748
        },
        {
          "duration": 0.09375,
          "durationTicks": 96,
          "midi": 40,
          "name": "E2",
          "ticks": 64512,
          "time": 63,
          "velocity": 0.3937007874015748
        },
        {
          "duration": 0.09375,
          "durationTicks": 96,
          "midi": 52,
          "name": "E3",
          "ticks": 64512,
          "time": 63,
          "velocity": 0.3937007874015748
        },
        {
          "duration": 0.09375,
          "durationTicks": 96,
          "midi": 47,
          "name": "B2",
          "ticks": 64512,
          "time": 63,
          "velocity": 0.3937007874015748
        },
        {
          "duration": 0.09375,
          "durationTicks": 96,
          "midi": 40,
          "name": "E2",
          "ticks": 65088,
          "time": 63.5625,
          "velocity": 0.3937007874015748
        },
        {
          "duration": 0.09375,
          "durationTicks": 96,
          "midi": 52,
          "name": "E3",
          "ticks": 65088,
          "time": 63.5625,
          "velocity": 0.3937007874015748
        },
        {
          "duration": 0.09375,
          "durationTicks": 96,
          "midi": 47,
          "name": "B2",
          "ticks": 65088,
          "time": 63.5625,
          "velocity": 0.3937007874015748
        },
        {
          "duration": 0.09375,
          "durationTicks": 96,
          "midi": 40,
          "name": "E2",
          "ticks": 65664,
          "time": 64.125,
          "velocity": 0.3937007874015748
        },
        {
          "duration": 0.09375,
          "durationTicks": 96,
          "midi": 52,
          "name": "E3",
          "ticks": 65664,
          "time": 64.125,
          "velocity": 0.3937007874015748
        },
        {
          "duration": 0.09375,
          "durationTicks": 96,
          "midi": 47,
          "name": "B2",
          "ticks": 65664,
          "time": 64.125,
          "velocity": 0.3937007874015748
        },
        {
          "duration": 0.09375,
          "durationTicks": 96,
          "midi": 40,
          "name": "E2",
          "ticks": 66048,
          "time": 64.5,
          "velocity": 0.3937007874015748
        },
        {
          "duration": 0.09375,
          "durationTicks": 96,
          "midi": 52,
          "name": "E3",
          "ticks": 66048,
          "time": 64.5,
          "velocity": 0.3937007874015748
        },
        {
          "duration": 0.09375,
          "durationTicks": 96,
          "midi": 47,
          "name": "B2",
          "ticks": 66048,
          "time": 64.5,
          "velocity": 0.3937007874015748
        },
        {
          "duration": 0.09375,
          "durationTicks": 96,
          "midi": 47,
          "name": "B2",
          "ticks": 66624,
          "time": 65.0625,
          "velocity": 0.3937007874015748
        },
        {
          "duration": 0.09375,
          "durationTicks": 96,
          "midi": 52,
          "name": "E3",
          "ticks": 66624,
          "time": 65.0625,
          "velocity": 0.3937007874015748
        },
        {
          "duration": 0.09375,
          "durationTicks": 96,
          "midi": 40,
          "name": "E2",
          "ticks": 66624,
          "time": 65.0625,
          "velocity": 0.3937007874015748
        },
        {
          "duration": 0.09375,
          "durationTicks": 96,
          "midi": 40,
          "name": "E2",
          "ticks": 67200,
          "time": 65.625,
          "velocity": 0.3937007874015748
        },
        {
          "duration": 0.09375,
          "durationTicks": 96,
          "midi": 47,
          "name": "B2",
          "ticks": 67200,
          "time": 65.625,
          "velocity": 0.3937007874015748
        },
        {
          "duration": 0.09375,
          "durationTicks": 96,
          "midi": 52,
          "name": "E3",
          "ticks": 67200,
          "time": 65.625,
          "velocity": 0.3937007874015748
        },
        {
          "duration": 0.09375,
          "durationTicks": 96,
          "midi": 59,
          "name": "B3",
          "ticks": 67584,
          "time": 66,
          "velocity": 0.3937007874015748
        },
        {
          "duration": 0.09375,
          "durationTicks": 96,
          "midi": 47,
          "name": "B2",
          "ticks": 67584,
          "time": 66,
          "velocity": 0.3937007874015748
        },
        {
          "duration": 0.09375,
          "durationTicks": 96,
          "midi": 47,
          "name": "B2",
          "ticks": 67776,
          "time": 66.1875,
          "velocity": 0.3937007874015748
        },
        {
          "duration": 0.09375,
          "durationTicks": 96,
          "midi": 59,
          "name": "B3",
          "ticks": 67776,
          "time": 66.1875,
          "velocity": 0.3937007874015748
        },
        {
          "duration": 0.09375,
          "durationTicks": 96,
          "midi": 60,
          "name": "C4",
          "ticks": 68160,
          "time": 66.5625,
          "velocity": 0.3937007874015748
        },
        {
          "duration": 0.09375,
          "durationTicks": 96,
          "midi": 48,
          "name": "C3",
          "ticks": 68160,
          "time": 66.5625,
          "velocity": 0.3937007874015748
        },
        {
          "duration": 0.09375,
          "durationTicks": 96,
          "midi": 60,
          "name": "C4",
          "ticks": 68352,
          "time": 66.75,
          "velocity": 0.3937007874015748
        },
        {
          "duration": 0.09375,
          "durationTicks": 96,
          "midi": 48,
          "name": "C3",
          "ticks": 68352,
          "time": 66.75,
          "velocity": 0.3937007874015748
        },
        {
          "duration": 0.09375,
          "durationTicks": 96,
          "midi": 47,
          "name": "B2",
          "ticks": 68736,
          "time": 67.125,
          "velocity": 0.3937007874015748
        },
        {
          "duration": 0.09375,
          "durationTicks": 96,
          "midi": 59,
          "name": "B3",
          "ticks": 68736,
          "time": 67.125,
          "velocity": 0.3937007874015748
        },
        {
          "duration": 0.09375,
          "durationTicks": 96,
          "midi": 59,
          "name": "B3",
          "ticks": 68928,
          "time": 67.3125,
          "velocity": 0.3937007874015748
        },
        {
          "duration": 0.09375,
          "durationTicks": 96,
          "midi": 47,
          "name": "B2",
          "ticks": 68928,
          "time": 67.3125,
          "velocity": 0.3937007874015748
        },
        {
          "duration": 0.09375,
          "durationTicks": 96,
          "midi": 42,
          "name": "F#2",
          "ticks": 69312,
          "time": 67.6875,
          "velocity": 0.3937007874015748
        },
        {
          "duration": 0.09375,
          "durationTicks": 96,
          "midi": 54,
          "name": "F#3",
          "ticks": 69312,
          "time": 67.6875,
          "velocity": 0.3937007874015748
        },
        {
          "duration": 0.09375,
          "durationTicks": 96,
          "midi": 54,
          "name": "F#3",
          "ticks": 69504,
          "time": 67.875,
          "velocity": 0.3937007874015748
        },
        {
          "duration": 0.09375,
          "durationTicks": 96,
          "midi": 42,
          "name": "F#2",
          "ticks": 69504,
          "time": 67.875,
          "velocity": 0.3937007874015748
        },
        {
          "duration": 0.09375,
          "durationTicks": 96,
          "midi": 39,
          "name": "D#2",
          "ticks": 69888,
          "time": 68.25,
          "velocity": 0.3937007874015748
        },
        {
          "duration": 0.09375,
          "durationTicks": 96,
          "midi": 40,
          "name": "E2",
          "ticks": 69984,
          "time": 68.34375,
          "velocity": 0.3937007874015748
        },
        {
          "duration": 0.09375,
          "durationTicks": 96,
          "midi": 41,
          "name": "F2",
          "ticks": 70080,
          "time": 68.4375,
          "velocity": 0.3937007874015748
        },
        {
          "duration": 0.09375,
          "durationTicks": 96,
          "midi": 42,
          "name": "F#2",
          "ticks": 70176,
          "time": 68.53125,
          "velocity": 0.3937007874015748
        },
        {
          "duration": 0.09375,
          "durationTicks": 96,
          "midi": 43,
          "name": "G2",
          "ticks": 70272,
          "time": 68.625,
          "velocity": 0.3937007874015748
        },
        {
          "duration": 0.09375,
          "durationTicks": 96,
          "midi": 44,
          "name": "G#2",
          "ticks": 70368,
          "time": 68.71875,
          "velocity": 0.3937007874015748
        },
        {
          "duration": 0.09375,
          "durationTicks": 96,
          "midi": 45,
          "name": "A2",
          "ticks": 70464,
          "time": 68.8125,
          "velocity": 0.3937007874015748
        },
        {
          "duration": 0.09375,
          "durationTicks": 96,
          "midi": 46,
          "name": "A#2",
          "ticks": 70560,
          "time": 68.90625,
          "velocity": 0.3937007874015748
        },
        {
          "duration": 0.09375,
          "durationTicks": 96,
          "midi": 47,
          "name": "B2",
          "ticks": 70656,
          "time": 69,
          "velocity": 0.3937007874015748
        },
        {
          "duration": 0.09375,
          "durationTicks": 96,
          "midi": 59,
          "name": "B3",
          "ticks": 70656,
          "time": 69,
          "velocity": 0.3937007874015748
        },
        {
          "duration": 0.09375,
          "durationTicks": 96,
          "midi": 59,
          "name": "B3",
          "ticks": 70848,
          "time": 69.1875,
          "velocity": 0.3937007874015748
        },
        {
          "duration": 0.09375,
          "durationTicks": 96,
          "midi": 47,
          "name": "B2",
          "ticks": 70848,
          "time": 69.1875,
          "velocity": 0.3937007874015748
        },
        {
          "duration": 0.09375,
          "durationTicks": 96,
          "midi": 60,
          "name": "C4",
          "ticks": 71232,
          "time": 69.5625,
          "velocity": 0.3937007874015748
        },
        {
          "duration": 0.09375,
          "durationTicks": 96,
          "midi": 48,
          "name": "C3",
          "ticks": 71232,
          "time": 69.5625,
          "velocity": 0.3937007874015748
        },
        {
          "duration": 0.09375,
          "durationTicks": 96,
          "midi": 48,
          "name": "C3",
          "ticks": 71424,
          "time": 69.75,
          "velocity": 0.3937007874015748
        },
        {
          "duration": 0.09375,
          "durationTicks": 96,
          "midi": 60,
          "name": "C4",
          "ticks": 71424,
          "time": 69.75,
          "velocity": 0.3937007874015748
        },
        {
          "duration": 0.09375,
          "durationTicks": 96,
          "midi": 59,
          "name": "B3",
          "ticks": 71808,
          "time": 70.125,
          "velocity": 0.3937007874015748
        },
        {
          "duration": 0.09375,
          "durationTicks": 96,
          "midi": 47,
          "name": "B2",
          "ticks": 71808,
          "time": 70.125,
          "velocity": 0.3937007874015748
        },
        {
          "duration": 0.09375,
          "durationTicks": 96,
          "midi": 59,
          "name": "B3",
          "ticks": 72000,
          "time": 70.3125,
          "velocity": 0.3937007874015748
        },
        {
          "duration": 0.09375,
          "durationTicks": 96,
          "midi": 47,
          "name": "B2",
          "ticks": 72000,
          "time": 70.3125,
          "velocity": 0.3937007874015748
        },
        {
          "duration": 0.09375,
          "durationTicks": 96,
          "midi": 47,
          "name": "B2",
          "ticks": 72384,
          "time": 70.6875,
          "velocity": 0.3937007874015748
        },
        {
          "duration": 0.09375,
          "durationTicks": 96,
          "midi": 59,
          "name": "B3",
          "ticks": 72384,
          "time": 70.6875,
          "velocity": 0.3937007874015748
        },
        {
          "duration": 0.09375,
          "durationTicks": 96,
          "midi": 59,
          "name": "B3",
          "ticks": 72576,
          "time": 70.875,
          "velocity": 0.3937007874015748
        },
        {
          "duration": 0.09375,
          "durationTicks": 96,
          "midi": 47,
          "name": "B2",
          "ticks": 72576,
          "time": 70.875,
          "velocity": 0.3937007874015748
        },
        {
          "duration": 0.09375,
          "durationTicks": 96,
          "midi": 47,
          "name": "B2",
          "ticks": 72672,
          "time": 70.96875,
          "velocity": 0.3937007874015748
        },
        {
          "duration": 0.09375,
          "durationTicks": 96,
          "midi": 59,
          "name": "B3",
          "ticks": 72672,
          "time": 70.96875,
          "velocity": 0.3937007874015748
        },
        {
          "duration": 0.09375,
          "durationTicks": 96,
          "midi": 47,
          "name": "B2",
          "ticks": 72768,
          "time": 71.0625,
          "velocity": 0.3937007874015748
        },
        {
          "duration": 0.09375,
          "durationTicks": 96,
          "midi": 59,
          "name": "B3",
          "ticks": 72768,
          "time": 71.0625,
          "velocity": 0.3937007874015748
        },
        {
          "duration": 0.09375,
          "durationTicks": 96,
          "midi": 59,
          "name": "B3",
          "ticks": 72864,
          "time": 71.15625,
          "velocity": 0.3937007874015748
        },
        {
          "duration": 0.09375,
          "durationTicks": 96,
          "midi": 47,
          "name": "B2",
          "ticks": 72864,
          "time": 71.15625,
          "velocity": 0.3937007874015748
        },
        {
          "duration": 0.09375,
          "durationTicks": 96,
          "midi": 59,
          "name": "B3",
          "ticks": 72960,
          "time": 71.25,
          "velocity": 0.3937007874015748
        },
        {
          "duration": 0.09375,
          "durationTicks": 96,
          "midi": 47,
          "name": "B2",
          "ticks": 72960,
          "time": 71.25,
          "velocity": 0.3937007874015748
        },
        {
          "duration": 0.09375,
          "durationTicks": 96,
          "midi": 59,
          "name": "B3",
          "ticks": 73056,
          "time": 71.34375,
          "velocity": 0.3937007874015748
        },
        {
          "duration": 0.09375,
          "durationTicks": 96,
          "midi": 47,
          "name": "B2",
          "ticks": 73056,
          "time": 71.34375,
          "velocity": 0.3937007874015748
        },
        {
          "duration": 0.09375,
          "durationTicks": 96,
          "midi": 59,
          "name": "B3",
          "ticks": 73152,
          "time": 71.4375,
          "velocity": 0.3937007874015748
        },
        {
          "duration": 0.09375,
          "durationTicks": 96,
          "midi": 47,
          "name": "B2",
          "ticks": 73152,
          "time": 71.4375,
          "velocity": 0.3937007874015748
        },
        {
          "duration": 0.09375,
          "durationTicks": 96,
          "midi": 47,
          "name": "B2",
          "ticks": 73248,
          "time": 71.53125,
          "velocity": 0.3937007874015748
        },
        {
          "duration": 0.09375,
          "durationTicks": 96,
          "midi": 59,
          "name": "B3",
          "ticks": 73248,
          "time": 71.53125,
          "velocity": 0.3937007874015748
        },
        {
          "duration": 0.09375,
          "durationTicks": 96,
          "midi": 59,
          "name": "B3",
          "ticks": 73344,
          "time": 71.625,
          "velocity": 0.3937007874015748
        },
        {
          "duration": 0.09375,
          "durationTicks": 96,
          "midi": 47,
          "name": "B2",
          "ticks": 73344,
          "time": 71.625,
          "velocity": 0.3937007874015748
        },
        {
          "duration": 0.09375,
          "durationTicks": 96,
          "midi": 47,
          "name": "B2",
          "ticks": 73440,
          "time": 71.71875,
          "velocity": 0.3937007874015748
        },
        {
          "duration": 0.09375,
          "durationTicks": 96,
          "midi": 59,
          "name": "B3",
          "ticks": 73440,
          "time": 71.71875,
          "velocity": 0.3937007874015748
        },
        {
          "duration": 0.09375,
          "durationTicks": 96,
          "midi": 59,
          "name": "B3",
          "ticks": 73536,
          "time": 71.8125,
          "velocity": 0.3937007874015748
        },
        {
          "duration": 0.09375,
          "durationTicks": 96,
          "midi": 47,
          "name": "B2",
          "ticks": 73536,
          "time": 71.8125,
          "velocity": 0.3937007874015748
        },
        {
          "duration": 0.09375,
          "durationTicks": 96,
          "midi": 59,
          "name": "B3",
          "ticks": 73632,
          "time": 71.90625,
          "velocity": 0.3937007874015748
        },
        {
          "duration": 0.09375,
          "durationTicks": 96,
          "midi": 47,
          "name": "B2",
          "ticks": 73632,
          "time": 71.90625,
          "velocity": 0.3937007874015748
        },
        {
          "duration": 0.09375,
          "durationTicks": 96,
          "midi": 47,
          "name": "B2",
          "ticks": 73728,
          "time": 72,
          "velocity": 0.3937007874015748
        },
        {
          "duration": 0.09375,
          "durationTicks": 96,
          "midi": 59,
          "name": "B3",
          "ticks": 73728,
          "time": 72,
          "velocity": 0.3937007874015748
        },
        {
          "duration": 0.09375,
          "durationTicks": 96,
          "midi": 47,
          "name": "B2",
          "ticks": 73824,
          "time": 72.09375,
          "velocity": 0.3937007874015748
        },
        {
          "duration": 0.09375,
          "durationTicks": 96,
          "midi": 59,
          "name": "B3",
          "ticks": 73824,
          "time": 72.09375,
          "velocity": 0.3937007874015748
        },
        {
          "duration": 0.09375,
          "durationTicks": 96,
          "midi": 47,
          "name": "B2",
          "ticks": 73920,
          "time": 72.1875,
          "velocity": 0.3937007874015748
        },
        {
          "duration": 0.09375,
          "durationTicks": 96,
          "midi": 59,
          "name": "B3",
          "ticks": 73920,
          "time": 72.1875,
          "velocity": 0.3937007874015748
        },
        {
          "duration": 0.09375,
          "durationTicks": 96,
          "midi": 59,
          "name": "B3",
          "ticks": 74016,
          "time": 72.28125,
          "velocity": 0.3937007874015748
        },
        {
          "duration": 0.09375,
          "durationTicks": 96,
          "midi": 47,
          "name": "B2",
          "ticks": 74016,
          "time": 72.28125,
          "velocity": 0.3937007874015748
        },
        {
          "duration": 0.09375,
          "durationTicks": 96,
          "midi": 47,
          "name": "B2",
          "ticks": 74112,
          "time": 72.375,
          "velocity": 0.3937007874015748
        },
        {
          "duration": 0.09375,
          "durationTicks": 96,
          "midi": 59,
          "name": "B3",
          "ticks": 74112,
          "time": 72.375,
          "velocity": 0.3937007874015748
        },
        {
          "duration": 0.09375,
          "durationTicks": 96,
          "midi": 59,
          "name": "B3",
          "ticks": 74208,
          "time": 72.46875,
          "velocity": 0.3937007874015748
        },
        {
          "duration": 0.09375,
          "durationTicks": 96,
          "midi": 47,
          "name": "B2",
          "ticks": 74208,
          "time": 72.46875,
          "velocity": 0.3937007874015748
        },
        {
          "duration": 0.09375,
          "durationTicks": 96,
          "midi": 59,
          "name": "B3",
          "ticks": 74304,
          "time": 72.5625,
          "velocity": 0.3937007874015748
        },
        {
          "duration": 0.09375,
          "durationTicks": 96,
          "midi": 47,
          "name": "B2",
          "ticks": 74304,
          "time": 72.5625,
          "velocity": 0.3937007874015748
        },
        {
          "duration": 0.09375,
          "durationTicks": 96,
          "midi": 59,
          "name": "B3",
          "ticks": 74400,
          "time": 72.65625,
          "velocity": 0.3937007874015748
        },
        {
          "duration": 0.09375,
          "durationTicks": 96,
          "midi": 47,
          "name": "B2",
          "ticks": 74400,
          "time": 72.65625,
          "velocity": 0.3937007874015748
        },
        {
          "duration": 0.09375,
          "durationTicks": 96,
          "midi": 64,
          "name": "E4",
          "ticks": 75264,
          "time": 73.5,
          "velocity": 0.3937007874015748
        },
        {
          "duration": 0.09375,
          "durationTicks": 96,
          "midi": 59,
          "name": "B3",
          "ticks": 75264,
          "time": 73.5,
          "velocity": 0.3937007874015748
        },
        {
          "duration": 0.09375,
          "durationTicks": 96,
          "midi": 55,
          "name": "G3",
          "ticks": 75264,
          "time": 73.5,
          "velocity": 0.3937007874015748
        },
        {
          "duration": 0.09375,
          "durationTicks": 96,
          "midi": 55,
          "name": "G3",
          "ticks": 75360,
          "time": 73.59375,
          "velocity": 0.3937007874015748
        },
        {
          "duration": 0.09375,
          "durationTicks": 96,
          "midi": 59,
          "name": "B3",
          "ticks": 75360,
          "time": 73.59375,
          "velocity": 0.3937007874015748
        },
        {
          "duration": 0.09375,
          "durationTicks": 96,
          "midi": 64,
          "name": "E4",
          "ticks": 75360,
          "time": 73.59375,
          "velocity": 0.3937007874015748
        },
        {
          "duration": 0.09375,
          "durationTicks": 96,
          "midi": 64,
          "name": "E4",
          "ticks": 75456,
          "time": 73.6875,
          "velocity": 0.3937007874015748
        },
        {
          "duration": 0.09375,
          "durationTicks": 96,
          "midi": 59,
          "name": "B3",
          "ticks": 75456,
          "time": 73.6875,
          "velocity": 0.3937007874015748
        },
        {
          "duration": 0.09375,
          "durationTicks": 96,
          "midi": 55,
          "name": "G3",
          "ticks": 75456,
          "time": 73.6875,
          "velocity": 0.3937007874015748
        },
        {
          "duration": 0.09375,
          "durationTicks": 96,
          "midi": 55,
          "name": "G3",
          "ticks": 75552,
          "time": 73.78125,
          "velocity": 0.3937007874015748
        },
        {
          "duration": 0.09375,
          "durationTicks": 96,
          "midi": 64,
          "name": "E4",
          "ticks": 75552,
          "time": 73.78125,
          "velocity": 0.3937007874015748
        },
        {
          "duration": 0.09375,
          "durationTicks": 96,
          "midi": 59,
          "name": "B3",
          "ticks": 75552,
          "time": 73.78125,
          "velocity": 0.3937007874015748
        },
        {
          "duration": 0.09375,
          "durationTicks": 96,
          "midi": 59,
          "name": "B3",
          "ticks": 75648,
          "time": 73.875,
          "velocity": 0.3937007874015748
        },
        {
          "duration": 0.09375,
          "durationTicks": 96,
          "midi": 55,
          "name": "G3",
          "ticks": 75648,
          "time": 73.875,
          "velocity": 0.3937007874015748
        },
        {
          "duration": 0.09375,
          "durationTicks": 96,
          "midi": 64,
          "name": "E4",
          "ticks": 75648,
          "time": 73.875,
          "velocity": 0.3937007874015748
        },
        {
          "duration": 0.09375,
          "durationTicks": 96,
          "midi": 64,
          "name": "E4",
          "ticks": 75744,
          "time": 73.96875,
          "velocity": 0.3937007874015748
        },
        {
          "duration": 0.09375,
          "durationTicks": 96,
          "midi": 55,
          "name": "G3",
          "ticks": 75744,
          "time": 73.96875,
          "velocity": 0.3937007874015748
        },
        {
          "duration": 0.09375,
          "durationTicks": 96,
          "midi": 59,
          "name": "B3",
          "ticks": 75744,
          "time": 73.96875,
          "velocity": 0.3937007874015748
        },
        {
          "duration": 0.09375,
          "durationTicks": 96,
          "midi": 59,
          "name": "B3",
          "ticks": 75840,
          "time": 74.0625,
          "velocity": 0.3937007874015748
        },
        {
          "duration": 0.09375,
          "durationTicks": 96,
          "midi": 64,
          "name": "E4",
          "ticks": 75840,
          "time": 74.0625,
          "velocity": 0.3937007874015748
        },
        {
          "duration": 0.09375,
          "durationTicks": 96,
          "midi": 55,
          "name": "G3",
          "ticks": 75840,
          "time": 74.0625,
          "velocity": 0.3937007874015748
        },
        {
          "duration": 0.09375,
          "durationTicks": 96,
          "midi": 59,
          "name": "B3",
          "ticks": 75936,
          "time": 74.15625,
          "velocity": 0.3937007874015748
        },
        {
          "duration": 0.09375,
          "durationTicks": 96,
          "midi": 64,
          "name": "E4",
          "ticks": 75936,
          "time": 74.15625,
          "velocity": 0.3937007874015748
        },
        {
          "duration": 0.09375,
          "durationTicks": 96,
          "midi": 55,
          "name": "G3",
          "ticks": 75936,
          "time": 74.15625,
          "velocity": 0.3937007874015748
        },
        {
          "duration": 0.09375,
          "durationTicks": 96,
          "midi": 64,
          "name": "E4",
          "ticks": 76032,
          "time": 74.25,
          "velocity": 0.3937007874015748
        },
        {
          "duration": 0.09375,
          "durationTicks": 96,
          "midi": 59,
          "name": "B3",
          "ticks": 76032,
          "time": 74.25,
          "velocity": 0.3937007874015748
        },
        {
          "duration": 0.09375,
          "durationTicks": 96,
          "midi": 55,
          "name": "G3",
          "ticks": 76032,
          "time": 74.25,
          "velocity": 0.3937007874015748
        },
        {
          "duration": 0.09375,
          "durationTicks": 96,
          "midi": 55,
          "name": "G3",
          "ticks": 76128,
          "time": 74.34375,
          "velocity": 0.3937007874015748
        },
        {
          "duration": 0.09375,
          "durationTicks": 96,
          "midi": 59,
          "name": "B3",
          "ticks": 76128,
          "time": 74.34375,
          "velocity": 0.3937007874015748
        },
        {
          "duration": 0.09375,
          "durationTicks": 96,
          "midi": 64,
          "name": "E4",
          "ticks": 76128,
          "time": 74.34375,
          "velocity": 0.3937007874015748
        },
        {
          "duration": 0.09375,
          "durationTicks": 96,
          "midi": 64,
          "name": "E4",
          "ticks": 76224,
          "time": 74.4375,
          "velocity": 0.3937007874015748
        },
        {
          "duration": 0.09375,
          "durationTicks": 96,
          "midi": 55,
          "name": "G3",
          "ticks": 76224,
          "time": 74.4375,
          "velocity": 0.3937007874015748
        },
        {
          "duration": 0.09375,
          "durationTicks": 96,
          "midi": 59,
          "name": "B3",
          "ticks": 76224,
          "time": 74.4375,
          "velocity": 0.3937007874015748
        },
        {
          "duration": 0.09375,
          "durationTicks": 96,
          "midi": 55,
          "name": "G3",
          "ticks": 76320,
          "time": 74.53125,
          "velocity": 0.3937007874015748
        },
        {
          "duration": 0.09375,
          "durationTicks": 96,
          "midi": 59,
          "name": "B3",
          "ticks": 76320,
          "time": 74.53125,
          "velocity": 0.3937007874015748
        },
        {
          "duration": 0.09375,
          "durationTicks": 96,
          "midi": 64,
          "name": "E4",
          "ticks": 76320,
          "time": 74.53125,
          "velocity": 0.3937007874015748
        },
        {
          "duration": 0.09375,
          "durationTicks": 96,
          "midi": 64,
          "name": "E4",
          "ticks": 76416,
          "time": 74.625,
          "velocity": 0.3937007874015748
        },
        {
          "duration": 0.09375,
          "durationTicks": 96,
          "midi": 59,
          "name": "B3",
          "ticks": 76416,
          "time": 74.625,
          "velocity": 0.3937007874015748
        },
        {
          "duration": 0.09375,
          "durationTicks": 96,
          "midi": 55,
          "name": "G3",
          "ticks": 76416,
          "time": 74.625,
          "velocity": 0.3937007874015748
        },
        {
          "duration": 0.09375,
          "durationTicks": 96,
          "midi": 64,
          "name": "E4",
          "ticks": 76512,
          "time": 74.71875,
          "velocity": 0.3937007874015748
        },
        {
          "duration": 0.09375,
          "durationTicks": 96,
          "midi": 59,
          "name": "B3",
          "ticks": 76512,
          "time": 74.71875,
          "velocity": 0.3937007874015748
        },
        {
          "duration": 0.09375,
          "durationTicks": 96,
          "midi": 55,
          "name": "G3",
          "ticks": 76512,
          "time": 74.71875,
          "velocity": 0.3937007874015748
        },
        {
          "duration": 0.09375,
          "durationTicks": 96,
          "midi": 59,
          "name": "B3",
          "ticks": 76608,
          "time": 74.8125,
          "velocity": 0.3937007874015748
        },
        {
          "duration": 0.09375,
          "durationTicks": 96,
          "midi": 55,
          "name": "G3",
          "ticks": 76608,
          "time": 74.8125,
          "velocity": 0.3937007874015748
        },
        {
          "duration": 0.09375,
          "durationTicks": 96,
          "midi": 64,
          "name": "E4",
          "ticks": 76608,
          "time": 74.8125,
          "velocity": 0.3937007874015748
        },
        {
          "duration": 0.09375,
          "durationTicks": 96,
          "midi": 55,
          "name": "G3",
          "ticks": 76704,
          "time": 74.90625,
          "velocity": 0.3937007874015748
        },
        {
          "duration": 0.09375,
          "durationTicks": 96,
          "midi": 59,
          "name": "B3",
          "ticks": 76704,
          "time": 74.90625,
          "velocity": 0.3937007874015748
        },
        {
          "duration": 0.09375,
          "durationTicks": 96,
          "midi": 64,
          "name": "E4",
          "ticks": 76704,
          "time": 74.90625,
          "velocity": 0.3937007874015748
        },
        {
          "duration": 0.09375,
          "durationTicks": 96,
          "midi": 59,
          "name": "B3",
          "ticks": 76800,
          "time": 75,
          "velocity": 0.3937007874015748
        },
        {
          "duration": 0.09375,
          "durationTicks": 96,
          "midi": 54,
          "name": "F#3",
          "ticks": 76800,
          "time": 75,
          "velocity": 0.3937007874015748
        },
        {
          "duration": 0.09375,
          "durationTicks": 96,
          "midi": 63,
          "name": "D#4",
          "ticks": 76800,
          "time": 75,
          "velocity": 0.3937007874015748
        },
        {
          "duration": 0.09375,
          "durationTicks": 96,
          "midi": 59,
          "name": "B3",
          "ticks": 76896,
          "time": 75.09375,
          "velocity": 0.3937007874015748
        },
        {
          "duration": 0.09375,
          "durationTicks": 96,
          "midi": 63,
          "name": "D#4",
          "ticks": 76896,
          "time": 75.09375,
          "velocity": 0.3937007874015748
        },
        {
          "duration": 0.09375,
          "durationTicks": 96,
          "midi": 54,
          "name": "F#3",
          "ticks": 76896,
          "time": 75.09375,
          "velocity": 0.3937007874015748
        },
        {
          "duration": 0.09375,
          "durationTicks": 96,
          "midi": 63,
          "name": "D#4",
          "ticks": 76992,
          "time": 75.1875,
          "velocity": 0.3937007874015748
        },
        {
          "duration": 0.09375,
          "durationTicks": 96,
          "midi": 54,
          "name": "F#3",
          "ticks": 76992,
          "time": 75.1875,
          "velocity": 0.3937007874015748
        },
        {
          "duration": 0.09375,
          "durationTicks": 96,
          "midi": 59,
          "name": "B3",
          "ticks": 76992,
          "time": 75.1875,
          "velocity": 0.3937007874015748
        },
        {
          "duration": 0.09375,
          "durationTicks": 96,
          "midi": 59,
          "name": "B3",
          "ticks": 77088,
          "time": 75.28125,
          "velocity": 0.3937007874015748
        },
        {
          "duration": 0.09375,
          "durationTicks": 96,
          "midi": 54,
          "name": "F#3",
          "ticks": 77088,
          "time": 75.28125,
          "velocity": 0.3937007874015748
        },
        {
          "duration": 0.09375,
          "durationTicks": 96,
          "midi": 63,
          "name": "D#4",
          "ticks": 77088,
          "time": 75.28125,
          "velocity": 0.3937007874015748
        },
        {
          "duration": 0.09375,
          "durationTicks": 96,
          "midi": 63,
          "name": "D#4",
          "ticks": 77184,
          "time": 75.375,
          "velocity": 0.3937007874015748
        },
        {
          "duration": 0.09375,
          "durationTicks": 96,
          "midi": 59,
          "name": "B3",
          "ticks": 77184,
          "time": 75.375,
          "velocity": 0.3937007874015748
        },
        {
          "duration": 0.09375,
          "durationTicks": 96,
          "midi": 54,
          "name": "F#3",
          "ticks": 77184,
          "time": 75.375,
          "velocity": 0.3937007874015748
        },
        {
          "duration": 0.09375,
          "durationTicks": 96,
          "midi": 54,
          "name": "F#3",
          "ticks": 77280,
          "time": 75.46875,
          "velocity": 0.3937007874015748
        },
        {
          "duration": 0.09375,
          "durationTicks": 96,
          "midi": 59,
          "name": "B3",
          "ticks": 77280,
          "time": 75.46875,
          "velocity": 0.3937007874015748
        },
        {
          "duration": 0.09375,
          "durationTicks": 96,
          "midi": 63,
          "name": "D#4",
          "ticks": 77280,
          "time": 75.46875,
          "velocity": 0.3937007874015748
        },
        {
          "duration": 0.09375,
          "durationTicks": 96,
          "midi": 63,
          "name": "D#4",
          "ticks": 77376,
          "time": 75.5625,
          "velocity": 0.3937007874015748
        },
        {
          "duration": 0.09375,
          "durationTicks": 96,
          "midi": 59,
          "name": "B3",
          "ticks": 77376,
          "time": 75.5625,
          "velocity": 0.3937007874015748
        },
        {
          "duration": 0.09375,
          "durationTicks": 96,
          "midi": 54,
          "name": "F#3",
          "ticks": 77376,
          "time": 75.5625,
          "velocity": 0.3937007874015748
        },
        {
          "duration": 0.09375,
          "durationTicks": 96,
          "midi": 59,
          "name": "B3",
          "ticks": 77472,
          "time": 75.65625,
          "velocity": 0.3937007874015748
        },
        {
          "duration": 0.09375,
          "durationTicks": 96,
          "midi": 63,
          "name": "D#4",
          "ticks": 77472,
          "time": 75.65625,
          "velocity": 0.3937007874015748
        },
        {
          "duration": 0.09375,
          "durationTicks": 96,
          "midi": 54,
          "name": "F#3",
          "ticks": 77472,
          "time": 75.65625,
          "velocity": 0.3937007874015748
        },
        {
          "duration": 0.09375,
          "durationTicks": 96,
          "midi": 59,
          "name": "B3",
          "ticks": 77568,
          "time": 75.75,
          "velocity": 0.3937007874015748
        },
        {
          "duration": 0.09375,
          "durationTicks": 96,
          "midi": 54,
          "name": "F#3",
          "ticks": 77568,
          "time": 75.75,
          "velocity": 0.3937007874015748
        },
        {
          "duration": 0.09375,
          "durationTicks": 96,
          "midi": 63,
          "name": "D#4",
          "ticks": 77568,
          "time": 75.75,
          "velocity": 0.3937007874015748
        },
        {
          "duration": 0.09375,
          "durationTicks": 96,
          "midi": 59,
          "name": "B3",
          "ticks": 77664,
          "time": 75.84375,
          "velocity": 0.3937007874015748
        },
        {
          "duration": 0.09375,
          "durationTicks": 96,
          "midi": 54,
          "name": "F#3",
          "ticks": 77664,
          "time": 75.84375,
          "velocity": 0.3937007874015748
        },
        {
          "duration": 0.09375,
          "durationTicks": 96,
          "midi": 63,
          "name": "D#4",
          "ticks": 77664,
          "time": 75.84375,
          "velocity": 0.3937007874015748
        },
        {
          "duration": 0.09375,
          "durationTicks": 96,
          "midi": 63,
          "name": "D#4",
          "ticks": 77760,
          "time": 75.9375,
          "velocity": 0.3937007874015748
        },
        {
          "duration": 0.09375,
          "durationTicks": 96,
          "midi": 59,
          "name": "B3",
          "ticks": 77760,
          "time": 75.9375,
          "velocity": 0.3937007874015748
        },
        {
          "duration": 0.09375,
          "durationTicks": 96,
          "midi": 54,
          "name": "F#3",
          "ticks": 77760,
          "time": 75.9375,
          "velocity": 0.3937007874015748
        },
        {
          "duration": 0.09375,
          "durationTicks": 96,
          "midi": 63,
          "name": "D#4",
          "ticks": 77856,
          "time": 76.03125,
          "velocity": 0.3937007874015748
        },
        {
          "duration": 0.09375,
          "durationTicks": 96,
          "midi": 54,
          "name": "F#3",
          "ticks": 77856,
          "time": 76.03125,
          "velocity": 0.3937007874015748
        },
        {
          "duration": 0.09375,
          "durationTicks": 96,
          "midi": 59,
          "name": "B3",
          "ticks": 77856,
          "time": 76.03125,
          "velocity": 0.3937007874015748
        },
        {
          "duration": 0.09375,
          "durationTicks": 96,
          "midi": 59,
          "name": "B3",
          "ticks": 77952,
          "time": 76.125,
          "velocity": 0.3937007874015748
        },
        {
          "duration": 0.09375,
          "durationTicks": 96,
          "midi": 54,
          "name": "F#3",
          "ticks": 77952,
          "time": 76.125,
          "velocity": 0.3937007874015748
        },
        {
          "duration": 0.09375,
          "durationTicks": 96,
          "midi": 63,
          "name": "D#4",
          "ticks": 77952,
          "time": 76.125,
          "velocity": 0.3937007874015748
        },
        {
          "duration": 0.09375,
          "durationTicks": 96,
          "midi": 59,
          "name": "B3",
          "ticks": 78048,
          "time": 76.21875,
          "velocity": 0.3937007874015748
        },
        {
          "duration": 0.09375,
          "durationTicks": 96,
          "midi": 54,
          "name": "F#3",
          "ticks": 78048,
          "time": 76.21875,
          "velocity": 0.3937007874015748
        },
        {
          "duration": 0.09375,
          "durationTicks": 96,
          "midi": 63,
          "name": "D#4",
          "ticks": 78048,
          "time": 76.21875,
          "velocity": 0.3937007874015748
        },
        {
          "duration": 0.09375,
          "durationTicks": 96,
          "midi": 63,
          "name": "D#4",
          "ticks": 78144,
          "time": 76.3125,
          "velocity": 0.3937007874015748
        },
        {
          "duration": 0.09375,
          "durationTicks": 96,
          "midi": 59,
          "name": "B3",
          "ticks": 78144,
          "time": 76.3125,
          "velocity": 0.3937007874015748
        },
        {
          "duration": 0.09375,
          "durationTicks": 96,
          "midi": 54,
          "name": "F#3",
          "ticks": 78144,
          "time": 76.3125,
          "velocity": 0.3937007874015748
        },
        {
          "duration": 0.09375,
          "durationTicks": 96,
          "midi": 59,
          "name": "B3",
          "ticks": 78240,
          "time": 76.40625,
          "velocity": 0.3937007874015748
        },
        {
          "duration": 0.09375,
          "durationTicks": 96,
          "midi": 63,
          "name": "D#4",
          "ticks": 78240,
          "time": 76.40625,
          "velocity": 0.3937007874015748
        },
        {
          "duration": 0.09375,
          "durationTicks": 96,
          "midi": 54,
          "name": "F#3",
          "ticks": 78240,
          "time": 76.40625,
          "velocity": 0.3937007874015748
        },
        {
          "duration": 0.09375,
          "durationTicks": 96,
          "midi": 62,
          "name": "D4",
          "ticks": 78336,
          "time": 76.5,
          "velocity": 0.3937007874015748
        },
        {
          "duration": 0.09375,
          "durationTicks": 96,
          "midi": 59,
          "name": "B3",
          "ticks": 78336,
          "time": 76.5,
          "velocity": 0.3937007874015748
        },
        {
          "duration": 0.09375,
          "durationTicks": 96,
          "midi": 54,
          "name": "F#3",
          "ticks": 78336,
          "time": 76.5,
          "velocity": 0.3937007874015748
        },
        {
          "duration": 0.09375,
          "durationTicks": 96,
          "midi": 54,
          "name": "F#3",
          "ticks": 78432,
          "time": 76.59375,
          "velocity": 0.3937007874015748
        },
        {
          "duration": 0.09375,
          "durationTicks": 96,
          "midi": 59,
          "name": "B3",
          "ticks": 78432,
          "time": 76.59375,
          "velocity": 0.3937007874015748
        },
        {
          "duration": 0.09375,
          "durationTicks": 96,
          "midi": 62,
          "name": "D4",
          "ticks": 78432,
          "time": 76.59375,
          "velocity": 0.3937007874015748
        },
        {
          "duration": 0.09375,
          "durationTicks": 96,
          "midi": 62,
          "name": "D4",
          "ticks": 78528,
          "time": 76.6875,
          "velocity": 0.3937007874015748
        },
        {
          "duration": 0.09375,
          "durationTicks": 96,
          "midi": 59,
          "name": "B3",
          "ticks": 78528,
          "time": 76.6875,
          "velocity": 0.3937007874015748
        },
        {
          "duration": 0.09375,
          "durationTicks": 96,
          "midi": 54,
          "name": "F#3",
          "ticks": 78528,
          "time": 76.6875,
          "velocity": 0.3937007874015748
        },
        {
          "duration": 0.09375,
          "durationTicks": 96,
          "midi": 59,
          "name": "B3",
          "ticks": 78624,
          "time": 76.78125,
          "velocity": 0.3937007874015748
        },
        {
          "duration": 0.09375,
          "durationTicks": 96,
          "midi": 54,
          "name": "F#3",
          "ticks": 78624,
          "time": 76.78125,
          "velocity": 0.3937007874015748
        },
        {
          "duration": 0.09375,
          "durationTicks": 96,
          "midi": 62,
          "name": "D4",
          "ticks": 78624,
          "time": 76.78125,
          "velocity": 0.3937007874015748
        },
        {
          "duration": 0.09375,
          "durationTicks": 96,
          "midi": 59,
          "name": "B3",
          "ticks": 78720,
          "time": 76.875,
          "velocity": 0.3937007874015748
        },
        {
          "duration": 0.09375,
          "durationTicks": 96,
          "midi": 62,
          "name": "D4",
          "ticks": 78720,
          "time": 76.875,
          "velocity": 0.3937007874015748
        },
        {
          "duration": 0.09375,
          "durationTicks": 96,
          "midi": 54,
          "name": "F#3",
          "ticks": 78720,
          "time": 76.875,
          "velocity": 0.3937007874015748
        },
        {
          "duration": 0.09375,
          "durationTicks": 96,
          "midi": 59,
          "name": "B3",
          "ticks": 78816,
          "time": 76.96875,
          "velocity": 0.3937007874015748
        },
        {
          "duration": 0.09375,
          "durationTicks": 96,
          "midi": 54,
          "name": "F#3",
          "ticks": 78816,
          "time": 76.96875,
          "velocity": 0.3937007874015748
        },
        {
          "duration": 0.09375,
          "durationTicks": 96,
          "midi": 62,
          "name": "D4",
          "ticks": 78816,
          "time": 76.96875,
          "velocity": 0.3937007874015748
        },
        {
          "duration": 0.09375,
          "durationTicks": 96,
          "midi": 54,
          "name": "F#3",
          "ticks": 78912,
          "time": 77.0625,
          "velocity": 0.3937007874015748
        },
        {
          "duration": 0.09375,
          "durationTicks": 96,
          "midi": 62,
          "name": "D4",
          "ticks": 78912,
          "time": 77.0625,
          "velocity": 0.3937007874015748
        },
        {
          "duration": 0.09375,
          "durationTicks": 96,
          "midi": 59,
          "name": "B3",
          "ticks": 78912,
          "time": 77.0625,
          "velocity": 0.3937007874015748
        },
        {
          "duration": 0.09375,
          "durationTicks": 96,
          "midi": 59,
          "name": "B3",
          "ticks": 79008,
          "time": 77.15625,
          "velocity": 0.3937007874015748
        },
        {
          "duration": 0.09375,
          "durationTicks": 96,
          "midi": 62,
          "name": "D4",
          "ticks": 79008,
          "time": 77.15625,
          "velocity": 0.3937007874015748
        },
        {
          "duration": 0.09375,
          "durationTicks": 96,
          "midi": 54,
          "name": "F#3",
          "ticks": 79008,
          "time": 77.15625,
          "velocity": 0.3937007874015748
        },
        {
          "duration": 0.09375,
          "durationTicks": 96,
          "midi": 59,
          "name": "B3",
          "ticks": 79104,
          "time": 77.25,
          "velocity": 0.3937007874015748
        },
        {
          "duration": 0.09375,
          "durationTicks": 96,
          "midi": 54,
          "name": "F#3",
          "ticks": 79104,
          "time": 77.25,
          "velocity": 0.3937007874015748
        },
        {
          "duration": 0.09375,
          "durationTicks": 96,
          "midi": 62,
          "name": "D4",
          "ticks": 79104,
          "time": 77.25,
          "velocity": 0.3937007874015748
        },
        {
          "duration": 0.09375,
          "durationTicks": 96,
          "midi": 54,
          "name": "F#3",
          "ticks": 79200,
          "time": 77.34375,
          "velocity": 0.3937007874015748
        },
        {
          "duration": 0.09375,
          "durationTicks": 96,
          "midi": 59,
          "name": "B3",
          "ticks": 79200,
          "time": 77.34375,
          "velocity": 0.3937007874015748
        },
        {
          "duration": 0.09375,
          "durationTicks": 96,
          "midi": 62,
          "name": "D4",
          "ticks": 79200,
          "time": 77.34375,
          "velocity": 0.3937007874015748
        },
        {
          "duration": 0.09375,
          "durationTicks": 96,
          "midi": 54,
          "name": "F#3",
          "ticks": 79296,
          "time": 77.4375,
          "velocity": 0.3937007874015748
        },
        {
          "duration": 0.09375,
          "durationTicks": 96,
          "midi": 62,
          "name": "D4",
          "ticks": 79296,
          "time": 77.4375,
          "velocity": 0.3937007874015748
        },
        {
          "duration": 0.09375,
          "durationTicks": 96,
          "midi": 59,
          "name": "B3",
          "ticks": 79296,
          "time": 77.4375,
          "velocity": 0.3937007874015748
        },
        {
          "duration": 0.09375,
          "durationTicks": 96,
          "midi": 59,
          "name": "B3",
          "ticks": 79392,
          "time": 77.53125,
          "velocity": 0.3937007874015748
        },
        {
          "duration": 0.09375,
          "durationTicks": 96,
          "midi": 62,
          "name": "D4",
          "ticks": 79392,
          "time": 77.53125,
          "velocity": 0.3937007874015748
        },
        {
          "duration": 0.09375,
          "durationTicks": 96,
          "midi": 54,
          "name": "F#3",
          "ticks": 79392,
          "time": 77.53125,
          "velocity": 0.3937007874015748
        },
        {
          "duration": 0.09375,
          "durationTicks": 96,
          "midi": 54,
          "name": "F#3",
          "ticks": 79488,
          "time": 77.625,
          "velocity": 0.3937007874015748
        },
        {
          "duration": 0.09375,
          "durationTicks": 96,
          "midi": 59,
          "name": "B3",
          "ticks": 79488,
          "time": 77.625,
          "velocity": 0.3937007874015748
        },
        {
          "duration": 0.09375,
          "durationTicks": 96,
          "midi": 62,
          "name": "D4",
          "ticks": 79488,
          "time": 77.625,
          "velocity": 0.3937007874015748
        },
        {
          "duration": 0.09375,
          "durationTicks": 96,
          "midi": 59,
          "name": "B3",
          "ticks": 79584,
          "time": 77.71875,
          "velocity": 0.3937007874015748
        },
        {
          "duration": 0.09375,
          "durationTicks": 96,
          "midi": 62,
          "name": "D4",
          "ticks": 79584,
          "time": 77.71875,
          "velocity": 0.3937007874015748
        },
        {
          "duration": 0.09375,
          "durationTicks": 96,
          "midi": 54,
          "name": "F#3",
          "ticks": 79584,
          "time": 77.71875,
          "velocity": 0.3937007874015748
        },
        {
          "duration": 0.09375,
          "durationTicks": 96,
          "midi": 62,
          "name": "D4",
          "ticks": 79680,
          "time": 77.8125,
          "velocity": 0.3937007874015748
        },
        {
          "duration": 0.09375,
          "durationTicks": 96,
          "midi": 59,
          "name": "B3",
          "ticks": 79680,
          "time": 77.8125,
          "velocity": 0.3937007874015748
        },
        {
          "duration": 0.09375,
          "durationTicks": 96,
          "midi": 54,
          "name": "F#3",
          "ticks": 79680,
          "time": 77.8125,
          "velocity": 0.3937007874015748
        },
        {
          "duration": 0.09375,
          "durationTicks": 96,
          "midi": 59,
          "name": "B3",
          "ticks": 79776,
          "time": 77.90625,
          "velocity": 0.3937007874015748
        },
        {
          "duration": 0.09375,
          "durationTicks": 96,
          "midi": 54,
          "name": "F#3",
          "ticks": 79776,
          "time": 77.90625,
          "velocity": 0.3937007874015748
        },
        {
          "duration": 0.09375,
          "durationTicks": 96,
          "midi": 62,
          "name": "D4",
          "ticks": 79776,
          "time": 77.90625,
          "velocity": 0.3937007874015748
        },
        {
          "duration": 0.09375,
          "durationTicks": 96,
          "midi": 54,
          "name": "F#3",
          "ticks": 79872,
          "time": 78,
          "velocity": 0.3937007874015748
        },
        {
          "duration": 0.09375,
          "durationTicks": 96,
          "midi": 58,
          "name": "A#3",
          "ticks": 79872,
          "time": 78,
          "velocity": 0.3937007874015748
        },
        {
          "duration": 0.09375,
          "durationTicks": 96,
          "midi": 61,
          "name": "C#4",
          "ticks": 79872,
          "time": 78,
          "velocity": 0.3937007874015748
        },
        {
          "duration": 0.09375,
          "durationTicks": 96,
          "midi": 58,
          "name": "A#3",
          "ticks": 79968,
          "time": 78.09375,
          "velocity": 0.3937007874015748
        },
        {
          "duration": 0.09375,
          "durationTicks": 96,
          "midi": 61,
          "name": "C#4",
          "ticks": 79968,
          "time": 78.09375,
          "velocity": 0.3937007874015748
        },
        {
          "duration": 0.09375,
          "durationTicks": 96,
          "midi": 54,
          "name": "F#3",
          "ticks": 79968,
          "time": 78.09375,
          "velocity": 0.3937007874015748
        },
        {
          "duration": 0.09375,
          "durationTicks": 96,
          "midi": 61,
          "name": "C#4",
          "ticks": 80064,
          "time": 78.1875,
          "velocity": 0.3937007874015748
        },
        {
          "duration": 0.09375,
          "durationTicks": 96,
          "midi": 54,
          "name": "F#3",
          "ticks": 80064,
          "time": 78.1875,
          "velocity": 0.3937007874015748
        },
        {
          "duration": 0.09375,
          "durationTicks": 96,
          "midi": 58,
          "name": "A#3",
          "ticks": 80064,
          "time": 78.1875,
          "velocity": 0.3937007874015748
        },
        {
          "duration": 0.09375,
          "durationTicks": 96,
          "midi": 61,
          "name": "C#4",
          "ticks": 80160,
          "time": 78.28125,
          "velocity": 0.3937007874015748
        },
        {
          "duration": 0.09375,
          "durationTicks": 96,
          "midi": 58,
          "name": "A#3",
          "ticks": 80160,
          "time": 78.28125,
          "velocity": 0.3937007874015748
        },
        {
          "duration": 0.09375,
          "durationTicks": 96,
          "midi": 54,
          "name": "F#3",
          "ticks": 80160,
          "time": 78.28125,
          "velocity": 0.3937007874015748
        },
        {
          "duration": 0.09375,
          "durationTicks": 96,
          "midi": 54,
          "name": "F#3",
          "ticks": 80256,
          "time": 78.375,
          "velocity": 0.3937007874015748
        },
        {
          "duration": 0.09375,
          "durationTicks": 96,
          "midi": 61,
          "name": "C#4",
          "ticks": 80256,
          "time": 78.375,
          "velocity": 0.3937007874015748
        },
        {
          "duration": 0.09375,
          "durationTicks": 96,
          "midi": 58,
          "name": "A#3",
          "ticks": 80256,
          "time": 78.375,
          "velocity": 0.3937007874015748
        },
        {
          "duration": 0.09375,
          "durationTicks": 96,
          "midi": 58,
          "name": "A#3",
          "ticks": 80352,
          "time": 78.46875,
          "velocity": 0.3937007874015748
        },
        {
          "duration": 0.09375,
          "durationTicks": 96,
          "midi": 61,
          "name": "C#4",
          "ticks": 80352,
          "time": 78.46875,
          "velocity": 0.3937007874015748
        },
        {
          "duration": 0.09375,
          "durationTicks": 96,
          "midi": 54,
          "name": "F#3",
          "ticks": 80352,
          "time": 78.46875,
          "velocity": 0.3937007874015748
        },
        {
          "duration": 0.09375,
          "durationTicks": 96,
          "midi": 61,
          "name": "C#4",
          "ticks": 80448,
          "time": 78.5625,
          "velocity": 0.3937007874015748
        },
        {
          "duration": 0.09375,
          "durationTicks": 96,
          "midi": 54,
          "name": "F#3",
          "ticks": 80448,
          "time": 78.5625,
          "velocity": 0.3937007874015748
        },
        {
          "duration": 0.09375,
          "durationTicks": 96,
          "midi": 58,
          "name": "A#3",
          "ticks": 80448,
          "time": 78.5625,
          "velocity": 0.3937007874015748
        },
        {
          "duration": 0.09375,
          "durationTicks": 96,
          "midi": 58,
          "name": "A#3",
          "ticks": 80544,
          "time": 78.65625,
          "velocity": 0.3937007874015748
        },
        {
          "duration": 0.09375,
          "durationTicks": 96,
          "midi": 54,
          "name": "F#3",
          "ticks": 80544,
          "time": 78.65625,
          "velocity": 0.3937007874015748
        },
        {
          "duration": 0.09375,
          "durationTicks": 96,
          "midi": 61,
          "name": "C#4",
          "ticks": 80544,
          "time": 78.65625,
          "velocity": 0.3937007874015748
        },
        {
          "duration": 0.09375,
          "durationTicks": 96,
          "midi": 58,
          "name": "A#3",
          "ticks": 80640,
          "time": 78.75,
          "velocity": 0.3937007874015748
        },
        {
          "duration": 0.09375,
          "durationTicks": 96,
          "midi": 54,
          "name": "F#3",
          "ticks": 80640,
          "time": 78.75,
          "velocity": 0.3937007874015748
        },
        {
          "duration": 0.09375,
          "durationTicks": 96,
          "midi": 61,
          "name": "C#4",
          "ticks": 80640,
          "time": 78.75,
          "velocity": 0.3937007874015748
        },
        {
          "duration": 0.09375,
          "durationTicks": 96,
          "midi": 54,
          "name": "F#3",
          "ticks": 80736,
          "time": 78.84375,
          "velocity": 0.3937007874015748
        },
        {
          "duration": 0.09375,
          "durationTicks": 96,
          "midi": 61,
          "name": "C#4",
          "ticks": 80736,
          "time": 78.84375,
          "velocity": 0.3937007874015748
        },
        {
          "duration": 0.09375,
          "durationTicks": 96,
          "midi": 58,
          "name": "A#3",
          "ticks": 80736,
          "time": 78.84375,
          "velocity": 0.3937007874015748
        },
        {
          "duration": 0.09375,
          "durationTicks": 96,
          "midi": 54,
          "name": "F#3",
          "ticks": 80832,
          "time": 78.9375,
          "velocity": 0.3937007874015748
        },
        {
          "duration": 0.09375,
          "durationTicks": 96,
          "midi": 61,
          "name": "C#4",
          "ticks": 80832,
          "time": 78.9375,
          "velocity": 0.3937007874015748
        },
        {
          "duration": 0.09375,
          "durationTicks": 96,
          "midi": 58,
          "name": "A#3",
          "ticks": 80832,
          "time": 78.9375,
          "velocity": 0.3937007874015748
        },
        {
          "duration": 0.09375,
          "durationTicks": 96,
          "midi": 54,
          "name": "F#3",
          "ticks": 80928,
          "time": 79.03125,
          "velocity": 0.3937007874015748
        },
        {
          "duration": 0.09375,
          "durationTicks": 96,
          "midi": 58,
          "name": "A#3",
          "ticks": 80928,
          "time": 79.03125,
          "velocity": 0.3937007874015748
        },
        {
          "duration": 0.09375,
          "durationTicks": 96,
          "midi": 61,
          "name": "C#4",
          "ticks": 80928,
          "time": 79.03125,
          "velocity": 0.3937007874015748
        },
        {
          "duration": 0.09375,
          "durationTicks": 96,
          "midi": 58,
          "name": "A#3",
          "ticks": 81024,
          "time": 79.125,
          "velocity": 0.3937007874015748
        },
        {
          "duration": 0.09375,
          "durationTicks": 96,
          "midi": 61,
          "name": "C#4",
          "ticks": 81024,
          "time": 79.125,
          "velocity": 0.3937007874015748
        },
        {
          "duration": 0.09375,
          "durationTicks": 96,
          "midi": 54,
          "name": "F#3",
          "ticks": 81024,
          "time": 79.125,
          "velocity": 0.3937007874015748
        },
        {
          "duration": 0.09375,
          "durationTicks": 96,
          "midi": 58,
          "name": "A#3",
          "ticks": 81120,
          "time": 79.21875,
          "velocity": 0.3937007874015748
        },
        {
          "duration": 0.09375,
          "durationTicks": 96,
          "midi": 54,
          "name": "F#3",
          "ticks": 81120,
          "time": 79.21875,
          "velocity": 0.3937007874015748
        },
        {
          "duration": 0.09375,
          "durationTicks": 96,
          "midi": 61,
          "name": "C#4",
          "ticks": 81120,
          "time": 79.21875,
          "velocity": 0.3937007874015748
        },
        {
          "duration": 0.09375,
          "durationTicks": 96,
          "midi": 61,
          "name": "C#4",
          "ticks": 81216,
          "time": 79.3125,
          "velocity": 0.3937007874015748
        },
        {
          "duration": 0.09375,
          "durationTicks": 96,
          "midi": 58,
          "name": "A#3",
          "ticks": 81216,
          "time": 79.3125,
          "velocity": 0.3937007874015748
        },
        {
          "duration": 0.09375,
          "durationTicks": 96,
          "midi": 54,
          "name": "F#3",
          "ticks": 81216,
          "time": 79.3125,
          "velocity": 0.3937007874015748
        },
        {
          "duration": 0.09375,
          "durationTicks": 96,
          "midi": 61,
          "name": "C#4",
          "ticks": 81312,
          "time": 79.40625,
          "velocity": 0.3937007874015748
        },
        {
          "duration": 0.09375,
          "durationTicks": 96,
          "midi": 54,
          "name": "F#3",
          "ticks": 81312,
          "time": 79.40625,
          "velocity": 0.3937007874015748
        },
        {
          "duration": 0.09375,
          "durationTicks": 96,
          "midi": 58,
          "name": "A#3",
          "ticks": 81312,
          "time": 79.40625,
          "velocity": 0.3937007874015748
        },
        {
          "duration": 0.09375,
          "durationTicks": 96,
          "midi": 52,
          "name": "E3",
          "ticks": 81408,
          "time": 79.5,
          "velocity": 0.3937007874015748
        },
        {
          "duration": 0.09375,
          "durationTicks": 96,
          "midi": 60,
          "name": "C4",
          "ticks": 81408,
          "time": 79.5,
          "velocity": 0.3937007874015748
        },
        {
          "duration": 0.09375,
          "durationTicks": 96,
          "midi": 57,
          "name": "A3",
          "ticks": 81408,
          "time": 79.5,
          "velocity": 0.3937007874015748
        },
        {
          "duration": 0.09375,
          "durationTicks": 96,
          "midi": 60,
          "name": "C4",
          "ticks": 81504,
          "time": 79.59375,
          "velocity": 0.3937007874015748
        },
        {
          "duration": 0.09375,
          "durationTicks": 96,
          "midi": 52,
          "name": "E3",
          "ticks": 81504,
          "time": 79.59375,
          "velocity": 0.3937007874015748
        },
        {
          "duration": 0.09375,
          "durationTicks": 96,
          "midi": 57,
          "name": "A3",
          "ticks": 81504,
          "time": 79.59375,
          "velocity": 0.3937007874015748
        },
        {
          "duration": 0.09375,
          "durationTicks": 96,
          "midi": 57,
          "name": "A3",
          "ticks": 81600,
          "time": 79.6875,
          "velocity": 0.3937007874015748
        },
        {
          "duration": 0.09375,
          "durationTicks": 96,
          "midi": 60,
          "name": "C4",
          "ticks": 81600,
          "time": 79.6875,
          "velocity": 0.3937007874015748
        },
        {
          "duration": 0.09375,
          "durationTicks": 96,
          "midi": 52,
          "name": "E3",
          "ticks": 81600,
          "time": 79.6875,
          "velocity": 0.3937007874015748
        },
        {
          "duration": 0.09375,
          "durationTicks": 96,
          "midi": 52,
          "name": "E3",
          "ticks": 81696,
          "time": 79.78125,
          "velocity": 0.3937007874015748
        },
        {
          "duration": 0.09375,
          "durationTicks": 96,
          "midi": 57,
          "name": "A3",
          "ticks": 81696,
          "time": 79.78125,
          "velocity": 0.3937007874015748
        },
        {
          "duration": 0.09375,
          "durationTicks": 96,
          "midi": 60,
          "name": "C4",
          "ticks": 81696,
          "time": 79.78125,
          "velocity": 0.3937007874015748
        },
        {
          "duration": 0.09375,
          "durationTicks": 96,
          "midi": 57,
          "name": "A3",
          "ticks": 81792,
          "time": 79.875,
          "velocity": 0.3937007874015748
        },
        {
          "duration": 0.09375,
          "durationTicks": 96,
          "midi": 52,
          "name": "E3",
          "ticks": 81792,
          "time": 79.875,
          "velocity": 0.3937007874015748
        },
        {
          "duration": 0.09375,
          "durationTicks": 96,
          "midi": 60,
          "name": "C4",
          "ticks": 81792,
          "time": 79.875,
          "velocity": 0.3937007874015748
        },
        {
          "duration": 0.09375,
          "durationTicks": 96,
          "midi": 52,
          "name": "E3",
          "ticks": 81888,
          "time": 79.96875,
          "velocity": 0.3937007874015748
        },
        {
          "duration": 0.09375,
          "durationTicks": 96,
          "midi": 57,
          "name": "A3",
          "ticks": 81888,
          "time": 79.96875,
          "velocity": 0.3937007874015748
        },
        {
          "duration": 0.09375,
          "durationTicks": 96,
          "midi": 60,
          "name": "C4",
          "ticks": 81888,
          "time": 79.96875,
          "velocity": 0.3937007874015748
        },
        {
          "duration": 0.09375,
          "durationTicks": 96,
          "midi": 60,
          "name": "C4",
          "ticks": 81984,
          "time": 80.0625,
          "velocity": 0.3937007874015748
        },
        {
          "duration": 0.09375,
          "durationTicks": 96,
          "midi": 57,
          "name": "A3",
          "ticks": 81984,
          "time": 80.0625,
          "velocity": 0.3937007874015748
        },
        {
          "duration": 0.09375,
          "durationTicks": 96,
          "midi": 52,
          "name": "E3",
          "ticks": 81984,
          "time": 80.0625,
          "velocity": 0.3937007874015748
        },
        {
          "duration": 0.09375,
          "durationTicks": 96,
          "midi": 57,
          "name": "A3",
          "ticks": 82080,
          "time": 80.15625,
          "velocity": 0.3937007874015748
        },
        {
          "duration": 0.09375,
          "durationTicks": 96,
          "midi": 52,
          "name": "E3",
          "ticks": 82080,
          "time": 80.15625,
          "velocity": 0.3937007874015748
        },
        {
          "duration": 0.09375,
          "durationTicks": 96,
          "midi": 60,
          "name": "C4",
          "ticks": 82080,
          "time": 80.15625,
          "velocity": 0.3937007874015748
        },
        {
          "duration": 0.09375,
          "durationTicks": 96,
          "midi": 52,
          "name": "E3",
          "ticks": 82176,
          "time": 80.25,
          "velocity": 0.3937007874015748
        },
        {
          "duration": 0.09375,
          "durationTicks": 96,
          "midi": 60,
          "name": "C4",
          "ticks": 82176,
          "time": 80.25,
          "velocity": 0.3937007874015748
        },
        {
          "duration": 0.09375,
          "durationTicks": 96,
          "midi": 57,
          "name": "A3",
          "ticks": 82176,
          "time": 80.25,
          "velocity": 0.3937007874015748
        },
        {
          "duration": 0.09375,
          "durationTicks": 96,
          "midi": 60,
          "name": "C4",
          "ticks": 82272,
          "time": 80.34375,
          "velocity": 0.3937007874015748
        },
        {
          "duration": 0.09375,
          "durationTicks": 96,
          "midi": 52,
          "name": "E3",
          "ticks": 82272,
          "time": 80.34375,
          "velocity": 0.3937007874015748
        },
        {
          "duration": 0.09375,
          "durationTicks": 96,
          "midi": 57,
          "name": "A3",
          "ticks": 82272,
          "time": 80.34375,
          "velocity": 0.3937007874015748
        },
        {
          "duration": 0.09375,
          "durationTicks": 96,
          "midi": 52,
          "name": "E3",
          "ticks": 82368,
          "time": 80.4375,
          "velocity": 0.3937007874015748
        },
        {
          "duration": 0.09375,
          "durationTicks": 96,
          "midi": 60,
          "name": "C4",
          "ticks": 82368,
          "time": 80.4375,
          "velocity": 0.3937007874015748
        },
        {
          "duration": 0.09375,
          "durationTicks": 96,
          "midi": 57,
          "name": "A3",
          "ticks": 82368,
          "time": 80.4375,
          "velocity": 0.3937007874015748
        },
        {
          "duration": 0.09375,
          "durationTicks": 96,
          "midi": 60,
          "name": "C4",
          "ticks": 82464,
          "time": 80.53125,
          "velocity": 0.3937007874015748
        },
        {
          "duration": 0.09375,
          "durationTicks": 96,
          "midi": 57,
          "name": "A3",
          "ticks": 82464,
          "time": 80.53125,
          "velocity": 0.3937007874015748
        },
        {
          "duration": 0.09375,
          "durationTicks": 96,
          "midi": 52,
          "name": "E3",
          "ticks": 82464,
          "time": 80.53125,
          "velocity": 0.3937007874015748
        },
        {
          "duration": 0.09375,
          "durationTicks": 96,
          "midi": 60,
          "name": "C4",
          "ticks": 82560,
          "time": 80.625,
          "velocity": 0.3937007874015748
        },
        {
          "duration": 0.09375,
          "durationTicks": 96,
          "midi": 57,
          "name": "A3",
          "ticks": 82560,
          "time": 80.625,
          "velocity": 0.3937007874015748
        },
        {
          "duration": 0.09375,
          "durationTicks": 96,
          "midi": 52,
          "name": "E3",
          "ticks": 82560,
          "time": 80.625,
          "velocity": 0.3937007874015748
        },
        {
          "duration": 0.09375,
          "durationTicks": 96,
          "midi": 60,
          "name": "C4",
          "ticks": 82656,
          "time": 80.71875,
          "velocity": 0.3937007874015748
        },
        {
          "duration": 0.09375,
          "durationTicks": 96,
          "midi": 52,
          "name": "E3",
          "ticks": 82656,
          "time": 80.71875,
          "velocity": 0.3937007874015748
        },
        {
          "duration": 0.09375,
          "durationTicks": 96,
          "midi": 57,
          "name": "A3",
          "ticks": 82656,
          "time": 80.71875,
          "velocity": 0.3937007874015748
        },
        {
          "duration": 0.09375,
          "durationTicks": 96,
          "midi": 57,
          "name": "A3",
          "ticks": 82752,
          "time": 80.8125,
          "velocity": 0.3937007874015748
        },
        {
          "duration": 0.09375,
          "durationTicks": 96,
          "midi": 60,
          "name": "C4",
          "ticks": 82752,
          "time": 80.8125,
          "velocity": 0.3937007874015748
        },
        {
          "duration": 0.09375,
          "durationTicks": 96,
          "midi": 52,
          "name": "E3",
          "ticks": 82752,
          "time": 80.8125,
          "velocity": 0.3937007874015748
        },
        {
          "duration": 0.09375,
          "durationTicks": 96,
          "midi": 52,
          "name": "E3",
          "ticks": 82848,
          "time": 80.90625,
          "velocity": 0.3937007874015748
        },
        {
          "duration": 0.09375,
          "durationTicks": 96,
          "midi": 57,
          "name": "A3",
          "ticks": 82848,
          "time": 80.90625,
          "velocity": 0.3937007874015748
        },
        {
          "duration": 0.09375,
          "durationTicks": 96,
          "midi": 60,
          "name": "C4",
          "ticks": 82848,
          "time": 80.90625,
          "velocity": 0.3937007874015748
        },
        {
          "duration": 0.09375,
          "durationTicks": 96,
          "midi": 51,
          "name": "D#3",
          "ticks": 82944,
          "time": 81,
          "velocity": 0.3937007874015748
        },
        {
          "duration": 0.09375,
          "durationTicks": 96,
          "midi": 54,
          "name": "F#3",
          "ticks": 82944,
          "time": 81,
          "velocity": 0.3937007874015748
        },
        {
          "duration": 0.09375,
          "durationTicks": 96,
          "midi": 57,
          "name": "A3",
          "ticks": 82944,
          "time": 81,
          "velocity": 0.3937007874015748
        },
        {
          "duration": 0.09375,
          "durationTicks": 96,
          "midi": 57,
          "name": "A3",
          "ticks": 83040,
          "time": 81.09375,
          "velocity": 0.3937007874015748
        },
        {
          "duration": 0.09375,
          "durationTicks": 96,
          "midi": 54,
          "name": "F#3",
          "ticks": 83040,
          "time": 81.09375,
          "velocity": 0.3937007874015748
        },
        {
          "duration": 0.09375,
          "durationTicks": 96,
          "midi": 51,
          "name": "D#3",
          "ticks": 83040,
          "time": 81.09375,
          "velocity": 0.3937007874015748
        },
        {
          "duration": 0.09375,
          "durationTicks": 96,
          "midi": 57,
          "name": "A3",
          "ticks": 83136,
          "time": 81.1875,
          "velocity": 0.3937007874015748
        },
        {
          "duration": 0.09375,
          "durationTicks": 96,
          "midi": 51,
          "name": "D#3",
          "ticks": 83136,
          "time": 81.1875,
          "velocity": 0.3937007874015748
        },
        {
          "duration": 0.09375,
          "durationTicks": 96,
          "midi": 54,
          "name": "F#3",
          "ticks": 83136,
          "time": 81.1875,
          "velocity": 0.3937007874015748
        },
        {
          "duration": 0.09375,
          "durationTicks": 96,
          "midi": 57,
          "name": "A3",
          "ticks": 83232,
          "time": 81.28125,
          "velocity": 0.3937007874015748
        },
        {
          "duration": 0.09375,
          "durationTicks": 96,
          "midi": 54,
          "name": "F#3",
          "ticks": 83232,
          "time": 81.28125,
          "velocity": 0.3937007874015748
        },
        {
          "duration": 0.09375,
          "durationTicks": 96,
          "midi": 51,
          "name": "D#3",
          "ticks": 83232,
          "time": 81.28125,
          "velocity": 0.3937007874015748
        },
        {
          "duration": 0.09375,
          "durationTicks": 96,
          "midi": 54,
          "name": "F#3",
          "ticks": 83328,
          "time": 81.375,
          "velocity": 0.3937007874015748
        },
        {
          "duration": 0.09375,
          "durationTicks": 96,
          "midi": 57,
          "name": "A3",
          "ticks": 83328,
          "time": 81.375,
          "velocity": 0.3937007874015748
        },
        {
          "duration": 0.09375,
          "durationTicks": 96,
          "midi": 51,
          "name": "D#3",
          "ticks": 83328,
          "time": 81.375,
          "velocity": 0.3937007874015748
        },
        {
          "duration": 0.09375,
          "durationTicks": 96,
          "midi": 57,
          "name": "A3",
          "ticks": 83424,
          "time": 81.46875,
          "velocity": 0.3937007874015748
        },
        {
          "duration": 0.09375,
          "durationTicks": 96,
          "midi": 54,
          "name": "F#3",
          "ticks": 83424,
          "time": 81.46875,
          "velocity": 0.3937007874015748
        },
        {
          "duration": 0.09375,
          "durationTicks": 96,
          "midi": 51,
          "name": "D#3",
          "ticks": 83424,
          "time": 81.46875,
          "velocity": 0.3937007874015748
        },
        {
          "duration": 0.09375,
          "durationTicks": 96,
          "midi": 54,
          "name": "F#3",
          "ticks": 83520,
          "time": 81.5625,
          "velocity": 0.3937007874015748
        },
        {
          "duration": 0.09375,
          "durationTicks": 96,
          "midi": 57,
          "name": "A3",
          "ticks": 83520,
          "time": 81.5625,
          "velocity": 0.3937007874015748
        },
        {
          "duration": 0.09375,
          "durationTicks": 96,
          "midi": 51,
          "name": "D#3",
          "ticks": 83520,
          "time": 81.5625,
          "velocity": 0.3937007874015748
        },
        {
          "duration": 0.09375,
          "durationTicks": 96,
          "midi": 54,
          "name": "F#3",
          "ticks": 83616,
          "time": 81.65625,
          "velocity": 0.3937007874015748
        },
        {
          "duration": 0.09375,
          "durationTicks": 96,
          "midi": 57,
          "name": "A3",
          "ticks": 83616,
          "time": 81.65625,
          "velocity": 0.3937007874015748
        },
        {
          "duration": 0.09375,
          "durationTicks": 96,
          "midi": 51,
          "name": "D#3",
          "ticks": 83616,
          "time": 81.65625,
          "velocity": 0.3937007874015748
        },
        {
          "duration": 0.09375,
          "durationTicks": 96,
          "midi": 57,
          "name": "A3",
          "ticks": 83712,
          "time": 81.75,
          "velocity": 0.3937007874015748
        },
        {
          "duration": 0.09375,
          "durationTicks": 96,
          "midi": 54,
          "name": "F#3",
          "ticks": 83712,
          "time": 81.75,
          "velocity": 0.3937007874015748
        },
        {
          "duration": 0.09375,
          "durationTicks": 96,
          "midi": 51,
          "name": "D#3",
          "ticks": 83712,
          "time": 81.75,
          "velocity": 0.3937007874015748
        },
        {
          "duration": 0.09375,
          "durationTicks": 96,
          "midi": 54,
          "name": "F#3",
          "ticks": 83808,
          "time": 81.84375,
          "velocity": 0.3937007874015748
        },
        {
          "duration": 0.09375,
          "durationTicks": 96,
          "midi": 57,
          "name": "A3",
          "ticks": 83808,
          "time": 81.84375,
          "velocity": 0.3937007874015748
        },
        {
          "duration": 0.09375,
          "durationTicks": 96,
          "midi": 51,
          "name": "D#3",
          "ticks": 83808,
          "time": 81.84375,
          "velocity": 0.3937007874015748
        },
        {
          "duration": 0.09375,
          "durationTicks": 96,
          "midi": 51,
          "name": "D#3",
          "ticks": 83904,
          "time": 81.9375,
          "velocity": 0.3937007874015748
        },
        {
          "duration": 0.09375,
          "durationTicks": 96,
          "midi": 54,
          "name": "F#3",
          "ticks": 83904,
          "time": 81.9375,
          "velocity": 0.3937007874015748
        },
        {
          "duration": 0.09375,
          "durationTicks": 96,
          "midi": 57,
          "name": "A3",
          "ticks": 83904,
          "time": 81.9375,
          "velocity": 0.3937007874015748
        },
        {
          "duration": 0.09375,
          "durationTicks": 96,
          "midi": 54,
          "name": "F#3",
          "ticks": 84000,
          "time": 82.03125,
          "velocity": 0.3937007874015748
        },
        {
          "duration": 0.09375,
          "durationTicks": 96,
          "midi": 51,
          "name": "D#3",
          "ticks": 84000,
          "time": 82.03125,
          "velocity": 0.3937007874015748
        },
        {
          "duration": 0.09375,
          "durationTicks": 96,
          "midi": 57,
          "name": "A3",
          "ticks": 84000,
          "time": 82.03125,
          "velocity": 0.3937007874015748
        },
        {
          "duration": 0.09375,
          "durationTicks": 96,
          "midi": 54,
          "name": "F#3",
          "ticks": 84096,
          "time": 82.125,
          "velocity": 0.3937007874015748
        },
        {
          "duration": 0.09375,
          "durationTicks": 96,
          "midi": 51,
          "name": "D#3",
          "ticks": 84096,
          "time": 82.125,
          "velocity": 0.3937007874015748
        },
        {
          "duration": 0.09375,
          "durationTicks": 96,
          "midi": 57,
          "name": "A3",
          "ticks": 84096,
          "time": 82.125,
          "velocity": 0.3937007874015748
        },
        {
          "duration": 0.09375,
          "durationTicks": 96,
          "midi": 54,
          "name": "F#3",
          "ticks": 84192,
          "time": 82.21875,
          "velocity": 0.3937007874015748
        },
        {
          "duration": 0.09375,
          "durationTicks": 96,
          "midi": 51,
          "name": "D#3",
          "ticks": 84192,
          "time": 82.21875,
          "velocity": 0.3937007874015748
        },
        {
          "duration": 0.09375,
          "durationTicks": 96,
          "midi": 57,
          "name": "A3",
          "ticks": 84192,
          "time": 82.21875,
          "velocity": 0.3937007874015748
        },
        {
          "duration": 0.09375,
          "durationTicks": 96,
          "midi": 51,
          "name": "D#3",
          "ticks": 84288,
          "time": 82.3125,
          "velocity": 0.3937007874015748
        },
        {
          "duration": 0.09375,
          "durationTicks": 96,
          "midi": 57,
          "name": "A3",
          "ticks": 84288,
          "time": 82.3125,
          "velocity": 0.3937007874015748
        },
        {
          "duration": 0.09375,
          "durationTicks": 96,
          "midi": 54,
          "name": "F#3",
          "ticks": 84288,
          "time": 82.3125,
          "velocity": 0.3937007874015748
        },
        {
          "duration": 0.09375,
          "durationTicks": 96,
          "midi": 51,
          "name": "D#3",
          "ticks": 84384,
          "time": 82.40625,
          "velocity": 0.3937007874015748
        },
        {
          "duration": 0.09375,
          "durationTicks": 96,
          "midi": 57,
          "name": "A3",
          "ticks": 84384,
          "time": 82.40625,
          "velocity": 0.3937007874015748
        },
        {
          "duration": 0.09375,
          "durationTicks": 96,
          "midi": 54,
          "name": "F#3",
          "ticks": 84384,
          "time": 82.40625,
          "velocity": 0.3937007874015748
        },
        {
          "duration": 0.09375,
          "durationTicks": 96,
          "midi": 53,
          "name": "F3",
          "ticks": 84480,
          "time": 82.5,
          "velocity": 0.3937007874015748
        },
        {
          "duration": 0.09375,
          "durationTicks": 96,
          "midi": 48,
          "name": "C3",
          "ticks": 84480,
          "time": 82.5,
          "velocity": 0.3937007874015748
        },
        {
          "duration": 0.09375,
          "durationTicks": 96,
          "midi": 45,
          "name": "A2",
          "ticks": 84480,
          "time": 82.5,
          "velocity": 0.3937007874015748
        },
        {
          "duration": 0.09375,
          "durationTicks": 96,
          "midi": 45,
          "name": "A2",
          "ticks": 84576,
          "time": 82.59375,
          "velocity": 0.3937007874015748
        },
        {
          "duration": 0.09375,
          "durationTicks": 96,
          "midi": 53,
          "name": "F3",
          "ticks": 84576,
          "time": 82.59375,
          "velocity": 0.3937007874015748
        },
        {
          "duration": 0.09375,
          "durationTicks": 96,
          "midi": 48,
          "name": "C3",
          "ticks": 84576,
          "time": 82.59375,
          "velocity": 0.3937007874015748
        },
        {
          "duration": 0.09375,
          "durationTicks": 96,
          "midi": 53,
          "name": "F3",
          "ticks": 84672,
          "time": 82.6875,
          "velocity": 0.3937007874015748
        },
        {
          "duration": 0.09375,
          "durationTicks": 96,
          "midi": 48,
          "name": "C3",
          "ticks": 84672,
          "time": 82.6875,
          "velocity": 0.3937007874015748
        },
        {
          "duration": 0.09375,
          "durationTicks": 96,
          "midi": 45,
          "name": "A2",
          "ticks": 84672,
          "time": 82.6875,
          "velocity": 0.3937007874015748
        },
        {
          "duration": 0.09375,
          "durationTicks": 96,
          "midi": 48,
          "name": "C3",
          "ticks": 84768,
          "time": 82.78125,
          "velocity": 0.3937007874015748
        },
        {
          "duration": 0.09375,
          "durationTicks": 96,
          "midi": 45,
          "name": "A2",
          "ticks": 84768,
          "time": 82.78125,
          "velocity": 0.3937007874015748
        },
        {
          "duration": 0.09375,
          "durationTicks": 96,
          "midi": 53,
          "name": "F3",
          "ticks": 84768,
          "time": 82.78125,
          "velocity": 0.3937007874015748
        },
        {
          "duration": 0.09375,
          "durationTicks": 96,
          "midi": 48,
          "name": "C3",
          "ticks": 84864,
          "time": 82.875,
          "velocity": 0.3937007874015748
        },
        {
          "duration": 0.09375,
          "durationTicks": 96,
          "midi": 45,
          "name": "A2",
          "ticks": 84864,
          "time": 82.875,
          "velocity": 0.3937007874015748
        },
        {
          "duration": 0.09375,
          "durationTicks": 96,
          "midi": 53,
          "name": "F3",
          "ticks": 84864,
          "time": 82.875,
          "velocity": 0.3937007874015748
        },
        {
          "duration": 0.09375,
          "durationTicks": 96,
          "midi": 45,
          "name": "A2",
          "ticks": 84960,
          "time": 82.96875,
          "velocity": 0.3937007874015748
        },
        {
          "duration": 0.09375,
          "durationTicks": 96,
          "midi": 48,
          "name": "C3",
          "ticks": 84960,
          "time": 82.96875,
          "velocity": 0.3937007874015748
        },
        {
          "duration": 0.09375,
          "durationTicks": 96,
          "midi": 53,
          "name": "F3",
          "ticks": 84960,
          "time": 82.96875,
          "velocity": 0.3937007874015748
        },
        {
          "duration": 0.09375,
          "durationTicks": 96,
          "midi": 45,
          "name": "A2",
          "ticks": 85056,
          "time": 83.0625,
          "velocity": 0.3937007874015748
        },
        {
          "duration": 0.09375,
          "durationTicks": 96,
          "midi": 48,
          "name": "C3",
          "ticks": 85056,
          "time": 83.0625,
          "velocity": 0.3937007874015748
        },
        {
          "duration": 0.09375,
          "durationTicks": 96,
          "midi": 53,
          "name": "F3",
          "ticks": 85056,
          "time": 83.0625,
          "velocity": 0.3937007874015748
        },
        {
          "duration": 0.09375,
          "durationTicks": 96,
          "midi": 48,
          "name": "C3",
          "ticks": 85152,
          "time": 83.15625,
          "velocity": 0.3937007874015748
        },
        {
          "duration": 0.09375,
          "durationTicks": 96,
          "midi": 53,
          "name": "F3",
          "ticks": 85152,
          "time": 83.15625,
          "velocity": 0.3937007874015748
        },
        {
          "duration": 0.09375,
          "durationTicks": 96,
          "midi": 45,
          "name": "A2",
          "ticks": 85152,
          "time": 83.15625,
          "velocity": 0.3937007874015748
        },
        {
          "duration": 0.09375,
          "durationTicks": 96,
          "midi": 48,
          "name": "C3",
          "ticks": 85248,
          "time": 83.25,
          "velocity": 0.3937007874015748
        },
        {
          "duration": 0.09375,
          "durationTicks": 96,
          "midi": 53,
          "name": "F3",
          "ticks": 85248,
          "time": 83.25,
          "velocity": 0.3937007874015748
        },
        {
          "duration": 0.09375,
          "durationTicks": 96,
          "midi": 45,
          "name": "A2",
          "ticks": 85248,
          "time": 83.25,
          "velocity": 0.3937007874015748
        },
        {
          "duration": 0.09375,
          "durationTicks": 96,
          "midi": 53,
          "name": "F3",
          "ticks": 85344,
          "time": 83.34375,
          "velocity": 0.3937007874015748
        },
        {
          "duration": 0.09375,
          "durationTicks": 96,
          "midi": 48,
          "name": "C3",
          "ticks": 85344,
          "time": 83.34375,
          "velocity": 0.3937007874015748
        },
        {
          "duration": 0.09375,
          "durationTicks": 96,
          "midi": 45,
          "name": "A2",
          "ticks": 85344,
          "time": 83.34375,
          "velocity": 0.3937007874015748
        },
        {
          "duration": 0.09375,
          "durationTicks": 96,
          "midi": 48,
          "name": "C3",
          "ticks": 85440,
          "time": 83.4375,
          "velocity": 0.3937007874015748
        },
        {
          "duration": 0.09375,
          "durationTicks": 96,
          "midi": 53,
          "name": "F3",
          "ticks": 85440,
          "time": 83.4375,
          "velocity": 0.3937007874015748
        },
        {
          "duration": 0.09375,
          "durationTicks": 96,
          "midi": 45,
          "name": "A2",
          "ticks": 85440,
          "time": 83.4375,
          "velocity": 0.3937007874015748
        },
        {
          "duration": 0.09375,
          "durationTicks": 96,
          "midi": 45,
          "name": "A2",
          "ticks": 85536,
          "time": 83.53125,
          "velocity": 0.3937007874015748
        },
        {
          "duration": 0.09375,
          "durationTicks": 96,
          "midi": 48,
          "name": "C3",
          "ticks": 85536,
          "time": 83.53125,
          "velocity": 0.3937007874015748
        },
        {
          "duration": 0.09375,
          "durationTicks": 96,
          "midi": 53,
          "name": "F3",
          "ticks": 85536,
          "time": 83.53125,
          "velocity": 0.3937007874015748
        },
        {
          "duration": 0.09375,
          "durationTicks": 96,
          "midi": 45,
          "name": "A2",
          "ticks": 85632,
          "time": 83.625,
          "velocity": 0.3937007874015748
        },
        {
          "duration": 0.09375,
          "durationTicks": 96,
          "midi": 48,
          "name": "C3",
          "ticks": 85632,
          "time": 83.625,
          "velocity": 0.3937007874015748
        },
        {
          "duration": 0.09375,
          "durationTicks": 96,
          "midi": 53,
          "name": "F3",
          "ticks": 85632,
          "time": 83.625,
          "velocity": 0.3937007874015748
        },
        {
          "duration": 0.09375,
          "durationTicks": 96,
          "midi": 45,
          "name": "A2",
          "ticks": 85728,
          "time": 83.71875,
          "velocity": 0.3937007874015748
        },
        {
          "duration": 0.09375,
          "durationTicks": 96,
          "midi": 53,
          "name": "F3",
          "ticks": 85728,
          "time": 83.71875,
          "velocity": 0.3937007874015748
        },
        {
          "duration": 0.09375,
          "durationTicks": 96,
          "midi": 48,
          "name": "C3",
          "ticks": 85728,
          "time": 83.71875,
          "velocity": 0.3937007874015748
        },
        {
          "duration": 0.09375,
          "durationTicks": 96,
          "midi": 53,
          "name": "F3",
          "ticks": 85824,
          "time": 83.8125,
          "velocity": 0.3937007874015748
        },
        {
          "duration": 0.09375,
          "durationTicks": 96,
          "midi": 48,
          "name": "C3",
          "ticks": 85824,
          "time": 83.8125,
          "velocity": 0.3937007874015748
        },
        {
          "duration": 0.09375,
          "durationTicks": 96,
          "midi": 45,
          "name": "A2",
          "ticks": 85824,
          "time": 83.8125,
          "velocity": 0.3937007874015748
        },
        {
          "duration": 0.09375,
          "durationTicks": 96,
          "midi": 45,
          "name": "A2",
          "ticks": 85920,
          "time": 83.90625,
          "velocity": 0.3937007874015748
        },
        {
          "duration": 0.09375,
          "durationTicks": 96,
          "midi": 53,
          "name": "F3",
          "ticks": 85920,
          "time": 83.90625,
          "velocity": 0.3937007874015748
        },
        {
          "duration": 0.09375,
          "durationTicks": 96,
          "midi": 48,
          "name": "C3",
          "ticks": 85920,
          "time": 83.90625,
          "velocity": 0.3937007874015748
        },
        {
          "duration": 0.09375,
          "durationTicks": 96,
          "midi": 54,
          "name": "F#3",
          "ticks": 86016,
          "time": 84,
          "velocity": 0.3937007874015748
        },
        {
          "duration": 0.09375,
          "durationTicks": 96,
          "midi": 51,
          "name": "D#3",
          "ticks": 86016,
          "time": 84,
          "velocity": 0.3937007874015748
        },
        {
          "duration": 0.09375,
          "durationTicks": 96,
          "midi": 59,
          "name": "B3",
          "ticks": 86016,
          "time": 84,
          "velocity": 0.3937007874015748
        },
        {
          "duration": 0.09375,
          "durationTicks": 96,
          "midi": 54,
          "name": "F#3",
          "ticks": 86112,
          "time": 84.09375,
          "velocity": 0.3937007874015748
        },
        {
          "duration": 0.09375,
          "durationTicks": 96,
          "midi": 51,
          "name": "D#3",
          "ticks": 86112,
          "time": 84.09375,
          "velocity": 0.3937007874015748
        },
        {
          "duration": 0.09375,
          "durationTicks": 96,
          "midi": 59,
          "name": "B3",
          "ticks": 86112,
          "time": 84.09375,
          "velocity": 0.3937007874015748
        },
        {
          "duration": 0.09375,
          "durationTicks": 96,
          "midi": 51,
          "name": "D#3",
          "ticks": 86208,
          "time": 84.1875,
          "velocity": 0.3937007874015748
        },
        {
          "duration": 0.09375,
          "durationTicks": 96,
          "midi": 59,
          "name": "B3",
          "ticks": 86208,
          "time": 84.1875,
          "velocity": 0.3937007874015748
        },
        {
          "duration": 0.09375,
          "durationTicks": 96,
          "midi": 54,
          "name": "F#3",
          "ticks": 86208,
          "time": 84.1875,
          "velocity": 0.3937007874015748
        },
        {
          "duration": 0.09375,
          "durationTicks": 96,
          "midi": 51,
          "name": "D#3",
          "ticks": 86304,
          "time": 84.28125,
          "velocity": 0.3937007874015748
        },
        {
          "duration": 0.09375,
          "durationTicks": 96,
          "midi": 54,
          "name": "F#3",
          "ticks": 86304,
          "time": 84.28125,
          "velocity": 0.3937007874015748
        },
        {
          "duration": 0.09375,
          "durationTicks": 96,
          "midi": 59,
          "name": "B3",
          "ticks": 86304,
          "time": 84.28125,
          "velocity": 0.3937007874015748
        },
        {
          "duration": 0.09375,
          "durationTicks": 96,
          "midi": 54,
          "name": "F#3",
          "ticks": 86400,
          "time": 84.375,
          "velocity": 0.3937007874015748
        },
        {
          "duration": 0.09375,
          "durationTicks": 96,
          "midi": 51,
          "name": "D#3",
          "ticks": 86400,
          "time": 84.375,
          "velocity": 0.3937007874015748
        },
        {
          "duration": 0.09375,
          "durationTicks": 96,
          "midi": 59,
          "name": "B3",
          "ticks": 86400,
          "time": 84.375,
          "velocity": 0.3937007874015748
        },
        {
          "duration": 0.09375,
          "durationTicks": 96,
          "midi": 54,
          "name": "F#3",
          "ticks": 86496,
          "time": 84.46875,
          "velocity": 0.3937007874015748
        },
        {
          "duration": 0.09375,
          "durationTicks": 96,
          "midi": 59,
          "name": "B3",
          "ticks": 86496,
          "time": 84.46875,
          "velocity": 0.3937007874015748
        },
        {
          "duration": 0.09375,
          "durationTicks": 96,
          "midi": 51,
          "name": "D#3",
          "ticks": 86496,
          "time": 84.46875,
          "velocity": 0.3937007874015748
        },
        {
          "duration": 0.09375,
          "durationTicks": 96,
          "midi": 54,
          "name": "F#3",
          "ticks": 86592,
          "time": 84.5625,
          "velocity": 0.3937007874015748
        },
        {
          "duration": 0.09375,
          "durationTicks": 96,
          "midi": 51,
          "name": "D#3",
          "ticks": 86592,
          "time": 84.5625,
          "velocity": 0.3937007874015748
        },
        {
          "duration": 0.09375,
          "durationTicks": 96,
          "midi": 59,
          "name": "B3",
          "ticks": 86592,
          "time": 84.5625,
          "velocity": 0.3937007874015748
        },
        {
          "duration": 0.09375,
          "durationTicks": 96,
          "midi": 59,
          "name": "B3",
          "ticks": 86688,
          "time": 84.65625,
          "velocity": 0.3937007874015748
        },
        {
          "duration": 0.09375,
          "durationTicks": 96,
          "midi": 54,
          "name": "F#3",
          "ticks": 86688,
          "time": 84.65625,
          "velocity": 0.3937007874015748
        },
        {
          "duration": 0.09375,
          "durationTicks": 96,
          "midi": 51,
          "name": "D#3",
          "ticks": 86688,
          "time": 84.65625,
          "velocity": 0.3937007874015748
        },
        {
          "duration": 0.09375,
          "durationTicks": 96,
          "midi": 51,
          "name": "D#3",
          "ticks": 86784,
          "time": 84.75,
          "velocity": 0.3937007874015748
        },
        {
          "duration": 0.09375,
          "durationTicks": 96,
          "midi": 59,
          "name": "B3",
          "ticks": 86784,
          "time": 84.75,
          "velocity": 0.3937007874015748
        },
        {
          "duration": 0.09375,
          "durationTicks": 96,
          "midi": 54,
          "name": "F#3",
          "ticks": 86784,
          "time": 84.75,
          "velocity": 0.3937007874015748
        },
        {
          "duration": 0.09375,
          "durationTicks": 96,
          "midi": 51,
          "name": "D#3",
          "ticks": 86880,
          "time": 84.84375,
          "velocity": 0.3937007874015748
        },
        {
          "duration": 0.09375,
          "durationTicks": 96,
          "midi": 54,
          "name": "F#3",
          "ticks": 86880,
          "time": 84.84375,
          "velocity": 0.3937007874015748
        },
        {
          "duration": 0.09375,
          "durationTicks": 96,
          "midi": 59,
          "name": "B3",
          "ticks": 86880,
          "time": 84.84375,
          "velocity": 0.3937007874015748
        },
        {
          "duration": 0.09375,
          "durationTicks": 96,
          "midi": 54,
          "name": "F#3",
          "ticks": 86976,
          "time": 84.9375,
          "velocity": 0.3937007874015748
        },
        {
          "duration": 0.09375,
          "durationTicks": 96,
          "midi": 59,
          "name": "B3",
          "ticks": 86976,
          "time": 84.9375,
          "velocity": 0.3937007874015748
        },
        {
          "duration": 0.09375,
          "durationTicks": 96,
          "midi": 51,
          "name": "D#3",
          "ticks": 86976,
          "time": 84.9375,
          "velocity": 0.3937007874015748
        },
        {
          "duration": 0.09375,
          "durationTicks": 96,
          "midi": 54,
          "name": "F#3",
          "ticks": 87072,
          "time": 85.03125,
          "velocity": 0.3937007874015748
        },
        {
          "duration": 0.09375,
          "durationTicks": 96,
          "midi": 59,
          "name": "B3",
          "ticks": 87072,
          "time": 85.03125,
          "velocity": 0.3937007874015748
        },
        {
          "duration": 0.09375,
          "durationTicks": 96,
          "midi": 51,
          "name": "D#3",
          "ticks": 87072,
          "time": 85.03125,
          "velocity": 0.3937007874015748
        },
        {
          "duration": 0.09375,
          "durationTicks": 96,
          "midi": 59,
          "name": "B3",
          "ticks": 87168,
          "time": 85.125,
          "velocity": 0.3937007874015748
        },
        {
          "duration": 0.09375,
          "durationTicks": 96,
          "midi": 54,
          "name": "F#3",
          "ticks": 87168,
          "time": 85.125,
          "velocity": 0.3937007874015748
        },
        {
          "duration": 0.09375,
          "durationTicks": 96,
          "midi": 51,
          "name": "D#3",
          "ticks": 87168,
          "time": 85.125,
          "velocity": 0.3937007874015748
        },
        {
          "duration": 0.09375,
          "durationTicks": 96,
          "midi": 51,
          "name": "D#3",
          "ticks": 87264,
          "time": 85.21875,
          "velocity": 0.3937007874015748
        },
        {
          "duration": 0.09375,
          "durationTicks": 96,
          "midi": 54,
          "name": "F#3",
          "ticks": 87264,
          "time": 85.21875,
          "velocity": 0.3937007874015748
        },
        {
          "duration": 0.09375,
          "durationTicks": 96,
          "midi": 59,
          "name": "B3",
          "ticks": 87264,
          "time": 85.21875,
          "velocity": 0.3937007874015748
        },
        {
          "duration": 0.09375,
          "durationTicks": 96,
          "midi": 59,
          "name": "B3",
          "ticks": 87360,
          "time": 85.3125,
          "velocity": 0.3937007874015748
        },
        {
          "duration": 0.09375,
          "durationTicks": 96,
          "midi": 54,
          "name": "F#3",
          "ticks": 87360,
          "time": 85.3125,
          "velocity": 0.3937007874015748
        },
        {
          "duration": 0.09375,
          "durationTicks": 96,
          "midi": 51,
          "name": "D#3",
          "ticks": 87360,
          "time": 85.3125,
          "velocity": 0.3937007874015748
        },
        {
          "duration": 0.09375,
          "durationTicks": 96,
          "midi": 54,
          "name": "F#3",
          "ticks": 87456,
          "time": 85.40625,
          "velocity": 0.3937007874015748
        },
        {
          "duration": 0.09375,
          "durationTicks": 96,
          "midi": 59,
          "name": "B3",
          "ticks": 87456,
          "time": 85.40625,
          "velocity": 0.3937007874015748
        },
        {
          "duration": 0.09375,
          "durationTicks": 96,
          "midi": 51,
          "name": "D#3",
          "ticks": 87456,
          "time": 85.40625,
          "velocity": 0.3937007874015748
        },
        {
          "duration": 0.09375,
          "durationTicks": 96,
          "midi": 64,
          "name": "E4",
          "ticks": 87552,
          "time": 85.5,
          "velocity": 0.3937007874015748
        },
        {
          "duration": 0.09375,
          "durationTicks": 96,
          "midi": 59,
          "name": "B3",
          "ticks": 87552,
          "time": 85.5,
          "velocity": 0.3937007874015748
        },
        {
          "duration": 0.09375,
          "durationTicks": 96,
          "midi": 55,
          "name": "G3",
          "ticks": 87552,
          "time": 85.5,
          "velocity": 0.3937007874015748
        },
        {
          "duration": 0.09375,
          "durationTicks": 96,
          "midi": 55,
          "name": "G3",
          "ticks": 87648,
          "time": 85.59375,
          "velocity": 0.3937007874015748
        },
        {
          "duration": 0.09375,
          "durationTicks": 96,
          "midi": 64,
          "name": "E4",
          "ticks": 87648,
          "time": 85.59375,
          "velocity": 0.3937007874015748
        },
        {
          "duration": 0.09375,
          "durationTicks": 96,
          "midi": 59,
          "name": "B3",
          "ticks": 87648,
          "time": 85.59375,
          "velocity": 0.3937007874015748
        },
        {
          "duration": 0.09375,
          "durationTicks": 96,
          "midi": 55,
          "name": "G3",
          "ticks": 87744,
          "time": 85.6875,
          "velocity": 0.3937007874015748
        },
        {
          "duration": 0.09375,
          "durationTicks": 96,
          "midi": 64,
          "name": "E4",
          "ticks": 87744,
          "time": 85.6875,
          "velocity": 0.3937007874015748
        },
        {
          "duration": 0.09375,
          "durationTicks": 96,
          "midi": 59,
          "name": "B3",
          "ticks": 87744,
          "time": 85.6875,
          "velocity": 0.3937007874015748
        },
        {
          "duration": 0.09375,
          "durationTicks": 96,
          "midi": 64,
          "name": "E4",
          "ticks": 87840,
          "time": 85.78125,
          "velocity": 0.3937007874015748
        },
        {
          "duration": 0.09375,
          "durationTicks": 96,
          "midi": 59,
          "name": "B3",
          "ticks": 87840,
          "time": 85.78125,
          "velocity": 0.3937007874015748
        },
        {
          "duration": 0.09375,
          "durationTicks": 96,
          "midi": 55,
          "name": "G3",
          "ticks": 87840,
          "time": 85.78125,
          "velocity": 0.3937007874015748
        },
        {
          "duration": 0.09375,
          "durationTicks": 96,
          "midi": 55,
          "name": "G3",
          "ticks": 87936,
          "time": 85.875,
          "velocity": 0.3937007874015748
        },
        {
          "duration": 0.09375,
          "durationTicks": 96,
          "midi": 64,
          "name": "E4",
          "ticks": 87936,
          "time": 85.875,
          "velocity": 0.3937007874015748
        },
        {
          "duration": 0.09375,
          "durationTicks": 96,
          "midi": 59,
          "name": "B3",
          "ticks": 87936,
          "time": 85.875,
          "velocity": 0.3937007874015748
        },
        {
          "duration": 0.09375,
          "durationTicks": 96,
          "midi": 59,
          "name": "B3",
          "ticks": 88032,
          "time": 85.96875,
          "velocity": 0.3937007874015748
        },
        {
          "duration": 0.09375,
          "durationTicks": 96,
          "midi": 64,
          "name": "E4",
          "ticks": 88032,
          "time": 85.96875,
          "velocity": 0.3937007874015748
        },
        {
          "duration": 0.09375,
          "durationTicks": 96,
          "midi": 55,
          "name": "G3",
          "ticks": 88032,
          "time": 85.96875,
          "velocity": 0.3937007874015748
        },
        {
          "duration": 0.09375,
          "durationTicks": 96,
          "midi": 64,
          "name": "E4",
          "ticks": 88128,
          "time": 86.0625,
          "velocity": 0.3937007874015748
        },
        {
          "duration": 0.09375,
          "durationTicks": 96,
          "midi": 55,
          "name": "G3",
          "ticks": 88128,
          "time": 86.0625,
          "velocity": 0.3937007874015748
        },
        {
          "duration": 0.09375,
          "durationTicks": 96,
          "midi": 59,
          "name": "B3",
          "ticks": 88128,
          "time": 86.0625,
          "velocity": 0.3937007874015748
        },
        {
          "duration": 0.09375,
          "durationTicks": 96,
          "midi": 59,
          "name": "B3",
          "ticks": 88224,
          "time": 86.15625,
          "velocity": 0.3937007874015748
        },
        {
          "duration": 0.09375,
          "durationTicks": 96,
          "midi": 55,
          "name": "G3",
          "ticks": 88224,
          "time": 86.15625,
          "velocity": 0.3937007874015748
        },
        {
          "duration": 0.09375,
          "durationTicks": 96,
          "midi": 64,
          "name": "E4",
          "ticks": 88224,
          "time": 86.15625,
          "velocity": 0.3937007874015748
        },
        {
          "duration": 0.09375,
          "durationTicks": 96,
          "midi": 64,
          "name": "E4",
          "ticks": 88320,
          "time": 86.25,
          "velocity": 0.3937007874015748
        },
        {
          "duration": 0.09375,
          "durationTicks": 96,
          "midi": 59,
          "name": "B3",
          "ticks": 88320,
          "time": 86.25,
          "velocity": 0.3937007874015748
        },
        {
          "duration": 0.09375,
          "durationTicks": 96,
          "midi": 55,
          "name": "G3",
          "ticks": 88320,
          "time": 86.25,
          "velocity": 0.3937007874015748
        },
        {
          "duration": 0.09375,
          "durationTicks": 96,
          "midi": 64,
          "name": "E4",
          "ticks": 88416,
          "time": 86.34375,
          "velocity": 0.3937007874015748
        },
        {
          "duration": 0.09375,
          "durationTicks": 96,
          "midi": 55,
          "name": "G3",
          "ticks": 88416,
          "time": 86.34375,
          "velocity": 0.3937007874015748
        },
        {
          "duration": 0.09375,
          "durationTicks": 96,
          "midi": 59,
          "name": "B3",
          "ticks": 88416,
          "time": 86.34375,
          "velocity": 0.3937007874015748
        },
        {
          "duration": 0.09375,
          "durationTicks": 96,
          "midi": 55,
          "name": "G3",
          "ticks": 88512,
          "time": 86.4375,
          "velocity": 0.3937007874015748
        },
        {
          "duration": 0.09375,
          "durationTicks": 96,
          "midi": 64,
          "name": "E4",
          "ticks": 88512,
          "time": 86.4375,
          "velocity": 0.3937007874015748
        },
        {
          "duration": 0.09375,
          "durationTicks": 96,
          "midi": 59,
          "name": "B3",
          "ticks": 88512,
          "time": 86.4375,
          "velocity": 0.3937007874015748
        },
        {
          "duration": 0.09375,
          "durationTicks": 96,
          "midi": 64,
          "name": "E4",
          "ticks": 88608,
          "time": 86.53125,
          "velocity": 0.3937007874015748
        },
        {
          "duration": 0.09375,
          "durationTicks": 96,
          "midi": 59,
          "name": "B3",
          "ticks": 88608,
          "time": 86.53125,
          "velocity": 0.3937007874015748
        },
        {
          "duration": 0.09375,
          "durationTicks": 96,
          "midi": 55,
          "name": "G3",
          "ticks": 88608,
          "time": 86.53125,
          "velocity": 0.3937007874015748
        },
        {
          "duration": 0.09375,
          "durationTicks": 96,
          "midi": 64,
          "name": "E4",
          "ticks": 88704,
          "time": 86.625,
          "velocity": 0.3937007874015748
        },
        {
          "duration": 0.09375,
          "durationTicks": 96,
          "midi": 59,
          "name": "B3",
          "ticks": 88704,
          "time": 86.625,
          "velocity": 0.3937007874015748
        },
        {
          "duration": 0.09375,
          "durationTicks": 96,
          "midi": 55,
          "name": "G3",
          "ticks": 88704,
          "time": 86.625,
          "velocity": 0.3937007874015748
        },
        {
          "duration": 0.09375,
          "durationTicks": 96,
          "midi": 64,
          "name": "E4",
          "ticks": 88800,
          "time": 86.71875,
          "velocity": 0.3937007874015748
        },
        {
          "duration": 0.09375,
          "durationTicks": 96,
          "midi": 55,
          "name": "G3",
          "ticks": 88800,
          "time": 86.71875,
          "velocity": 0.3937007874015748
        },
        {
          "duration": 0.09375,
          "durationTicks": 96,
          "midi": 59,
          "name": "B3",
          "ticks": 88800,
          "time": 86.71875,
          "velocity": 0.3937007874015748
        },
        {
          "duration": 0.09375,
          "durationTicks": 96,
          "midi": 64,
          "name": "E4",
          "ticks": 88896,
          "time": 86.8125,
          "velocity": 0.3937007874015748
        },
        {
          "duration": 0.09375,
          "durationTicks": 96,
          "midi": 55,
          "name": "G3",
          "ticks": 88896,
          "time": 86.8125,
          "velocity": 0.3937007874015748
        },
        {
          "duration": 0.09375,
          "durationTicks": 96,
          "midi": 59,
          "name": "B3",
          "ticks": 88896,
          "time": 86.8125,
          "velocity": 0.3937007874015748
        },
        {
          "duration": 0.09375,
          "durationTicks": 96,
          "midi": 55,
          "name": "G3",
          "ticks": 88992,
          "time": 86.90625,
          "velocity": 0.3937007874015748
        },
        {
          "duration": 0.09375,
          "durationTicks": 96,
          "midi": 64,
          "name": "E4",
          "ticks": 88992,
          "time": 86.90625,
          "velocity": 0.3937007874015748
        },
        {
          "duration": 0.09375,
          "durationTicks": 96,
          "midi": 59,
          "name": "B3",
          "ticks": 88992,
          "time": 86.90625,
          "velocity": 0.3937007874015748
        },
        {
          "duration": 0.09375,
          "durationTicks": 96,
          "midi": 59,
          "name": "B3",
          "ticks": 89088,
          "time": 87,
          "velocity": 0.3937007874015748
        },
        {
          "duration": 0.09375,
          "durationTicks": 96,
          "midi": 63,
          "name": "D#4",
          "ticks": 89088,
          "time": 87,
          "velocity": 0.3937007874015748
        },
        {
          "duration": 0.09375,
          "durationTicks": 96,
          "midi": 54,
          "name": "F#3",
          "ticks": 89088,
          "time": 87,
          "velocity": 0.3937007874015748
        },
        {
          "duration": 0.09375,
          "durationTicks": 96,
          "midi": 54,
          "name": "F#3",
          "ticks": 89184,
          "time": 87.09375,
          "velocity": 0.3937007874015748
        },
        {
          "duration": 0.09375,
          "durationTicks": 96,
          "midi": 59,
          "name": "B3",
          "ticks": 89184,
          "time": 87.09375,
          "velocity": 0.3937007874015748
        },
        {
          "duration": 0.09375,
          "durationTicks": 96,
          "midi": 63,
          "name": "D#4",
          "ticks": 89184,
          "time": 87.09375,
          "velocity": 0.3937007874015748
        },
        {
          "duration": 0.09375,
          "durationTicks": 96,
          "midi": 63,
          "name": "D#4",
          "ticks": 89280,
          "time": 87.1875,
          "velocity": 0.3937007874015748
        },
        {
          "duration": 0.09375,
          "durationTicks": 96,
          "midi": 59,
          "name": "B3",
          "ticks": 89280,
          "time": 87.1875,
          "velocity": 0.3937007874015748
        },
        {
          "duration": 0.09375,
          "durationTicks": 96,
          "midi": 54,
          "name": "F#3",
          "ticks": 89280,
          "time": 87.1875,
          "velocity": 0.3937007874015748
        },
        {
          "duration": 0.09375,
          "durationTicks": 96,
          "midi": 59,
          "name": "B3",
          "ticks": 89376,
          "time": 87.28125,
          "velocity": 0.3937007874015748
        },
        {
          "duration": 0.09375,
          "durationTicks": 96,
          "midi": 63,
          "name": "D#4",
          "ticks": 89376,
          "time": 87.28125,
          "velocity": 0.3937007874015748
        },
        {
          "duration": 0.09375,
          "durationTicks": 96,
          "midi": 54,
          "name": "F#3",
          "ticks": 89376,
          "time": 87.28125,
          "velocity": 0.3937007874015748
        },
        {
          "duration": 0.09375,
          "durationTicks": 96,
          "midi": 59,
          "name": "B3",
          "ticks": 89472,
          "time": 87.375,
          "velocity": 0.3937007874015748
        },
        {
          "duration": 0.09375,
          "durationTicks": 96,
          "midi": 54,
          "name": "F#3",
          "ticks": 89472,
          "time": 87.375,
          "velocity": 0.3937007874015748
        },
        {
          "duration": 0.09375,
          "durationTicks": 96,
          "midi": 63,
          "name": "D#4",
          "ticks": 89472,
          "time": 87.375,
          "velocity": 0.3937007874015748
        },
        {
          "duration": 0.09375,
          "durationTicks": 96,
          "midi": 59,
          "name": "B3",
          "ticks": 89568,
          "time": 87.46875,
          "velocity": 0.3937007874015748
        },
        {
          "duration": 0.09375,
          "durationTicks": 96,
          "midi": 54,
          "name": "F#3",
          "ticks": 89568,
          "time": 87.46875,
          "velocity": 0.3937007874015748
        },
        {
          "duration": 0.09375,
          "durationTicks": 96,
          "midi": 63,
          "name": "D#4",
          "ticks": 89568,
          "time": 87.46875,
          "velocity": 0.3937007874015748
        },
        {
          "duration": 0.09375,
          "durationTicks": 96,
          "midi": 59,
          "name": "B3",
          "ticks": 89664,
          "time": 87.5625,
          "velocity": 0.3937007874015748
        },
        {
          "duration": 0.09375,
          "durationTicks": 96,
          "midi": 63,
          "name": "D#4",
          "ticks": 89664,
          "time": 87.5625,
          "velocity": 0.3937007874015748
        },
        {
          "duration": 0.09375,
          "durationTicks": 96,
          "midi": 54,
          "name": "F#3",
          "ticks": 89664,
          "time": 87.5625,
          "velocity": 0.3937007874015748
        },
        {
          "duration": 0.09375,
          "durationTicks": 96,
          "midi": 63,
          "name": "D#4",
          "ticks": 89760,
          "time": 87.65625,
          "velocity": 0.3937007874015748
        },
        {
          "duration": 0.09375,
          "durationTicks": 96,
          "midi": 59,
          "name": "B3",
          "ticks": 89760,
          "time": 87.65625,
          "velocity": 0.3937007874015748
        },
        {
          "duration": 0.09375,
          "durationTicks": 96,
          "midi": 54,
          "name": "F#3",
          "ticks": 89760,
          "time": 87.65625,
          "velocity": 0.3937007874015748
        },
        {
          "duration": 0.09375,
          "durationTicks": 96,
          "midi": 63,
          "name": "D#4",
          "ticks": 89856,
          "time": 87.75,
          "velocity": 0.3937007874015748
        },
        {
          "duration": 0.09375,
          "durationTicks": 96,
          "midi": 59,
          "name": "B3",
          "ticks": 89856,
          "time": 87.75,
          "velocity": 0.3937007874015748
        },
        {
          "duration": 0.09375,
          "durationTicks": 96,
          "midi": 54,
          "name": "F#3",
          "ticks": 89856,
          "time": 87.75,
          "velocity": 0.3937007874015748
        },
        {
          "duration": 0.09375,
          "durationTicks": 96,
          "midi": 54,
          "name": "F#3",
          "ticks": 89952,
          "time": 87.84375,
          "velocity": 0.3937007874015748
        },
        {
          "duration": 0.09375,
          "durationTicks": 96,
          "midi": 59,
          "name": "B3",
          "ticks": 89952,
          "time": 87.84375,
          "velocity": 0.3937007874015748
        },
        {
          "duration": 0.09375,
          "durationTicks": 96,
          "midi": 63,
          "name": "D#4",
          "ticks": 89952,
          "time": 87.84375,
          "velocity": 0.3937007874015748
        },
        {
          "duration": 0.09375,
          "durationTicks": 96,
          "midi": 54,
          "name": "F#3",
          "ticks": 90048,
          "time": 87.9375,
          "velocity": 0.3937007874015748
        },
        {
          "duration": 0.09375,
          "durationTicks": 96,
          "midi": 63,
          "name": "D#4",
          "ticks": 90048,
          "time": 87.9375,
          "velocity": 0.3937007874015748
        },
        {
          "duration": 0.09375,
          "durationTicks": 96,
          "midi": 59,
          "name": "B3",
          "ticks": 90048,
          "time": 87.9375,
          "velocity": 0.3937007874015748
        },
        {
          "duration": 0.09375,
          "durationTicks": 96,
          "midi": 63,
          "name": "D#4",
          "ticks": 90144,
          "time": 88.03125,
          "velocity": 0.3937007874015748
        },
        {
          "duration": 0.09375,
          "durationTicks": 96,
          "midi": 59,
          "name": "B3",
          "ticks": 90144,
          "time": 88.03125,
          "velocity": 0.3937007874015748
        },
        {
          "duration": 0.09375,
          "durationTicks": 96,
          "midi": 54,
          "name": "F#3",
          "ticks": 90144,
          "time": 88.03125,
          "velocity": 0.3937007874015748
        },
        {
          "duration": 0.09375,
          "durationTicks": 96,
          "midi": 54,
          "name": "F#3",
          "ticks": 90240,
          "time": 88.125,
          "velocity": 0.3937007874015748
        },
        {
          "duration": 0.09375,
          "durationTicks": 96,
          "midi": 59,
          "name": "B3",
          "ticks": 90240,
          "time": 88.125,
          "velocity": 0.3937007874015748
        },
        {
          "duration": 0.09375,
          "durationTicks": 96,
          "midi": 63,
          "name": "D#4",
          "ticks": 90240,
          "time": 88.125,
          "velocity": 0.3937007874015748
        },
        {
          "duration": 0.09375,
          "durationTicks": 96,
          "midi": 54,
          "name": "F#3",
          "ticks": 90336,
          "time": 88.21875,
          "velocity": 0.3937007874015748
        },
        {
          "duration": 0.09375,
          "durationTicks": 96,
          "midi": 63,
          "name": "D#4",
          "ticks": 90336,
          "time": 88.21875,
          "velocity": 0.3937007874015748
        },
        {
          "duration": 0.09375,
          "durationTicks": 96,
          "midi": 59,
          "name": "B3",
          "ticks": 90336,
          "time": 88.21875,
          "velocity": 0.3937007874015748
        },
        {
          "duration": 0.09375,
          "durationTicks": 96,
          "midi": 59,
          "name": "B3",
          "ticks": 90432,
          "time": 88.3125,
          "velocity": 0.3937007874015748
        },
        {
          "duration": 0.09375,
          "durationTicks": 96,
          "midi": 63,
          "name": "D#4",
          "ticks": 90432,
          "time": 88.3125,
          "velocity": 0.3937007874015748
        },
        {
          "duration": 0.09375,
          "durationTicks": 96,
          "midi": 54,
          "name": "F#3",
          "ticks": 90432,
          "time": 88.3125,
          "velocity": 0.3937007874015748
        },
        {
          "duration": 0.09375,
          "durationTicks": 96,
          "midi": 63,
          "name": "D#4",
          "ticks": 90528,
          "time": 88.40625,
          "velocity": 0.3937007874015748
        },
        {
          "duration": 0.09375,
          "durationTicks": 96,
          "midi": 59,
          "name": "B3",
          "ticks": 90528,
          "time": 88.40625,
          "velocity": 0.3937007874015748
        },
        {
          "duration": 0.09375,
          "durationTicks": 96,
          "midi": 54,
          "name": "F#3",
          "ticks": 90528,
          "time": 88.40625,
          "velocity": 0.3937007874015748
        },
        {
          "duration": 0.09375,
          "durationTicks": 96,
          "midi": 59,
          "name": "B3",
          "ticks": 90624,
          "time": 88.5,
          "velocity": 0.3937007874015748
        },
        {
          "duration": 0.09375,
          "durationTicks": 96,
          "midi": 54,
          "name": "F#3",
          "ticks": 90624,
          "time": 88.5,
          "velocity": 0.3937007874015748
        },
        {
          "duration": 0.09375,
          "durationTicks": 96,
          "midi": 62,
          "name": "D4",
          "ticks": 90624,
          "time": 88.5,
          "velocity": 0.3937007874015748
        },
        {
          "duration": 0.09375,
          "durationTicks": 96,
          "midi": 54,
          "name": "F#3",
          "ticks": 90720,
          "time": 88.59375,
          "velocity": 0.3937007874015748
        },
        {
          "duration": 0.09375,
          "durationTicks": 96,
          "midi": 62,
          "name": "D4",
          "ticks": 90720,
          "time": 88.59375,
          "velocity": 0.3937007874015748
        },
        {
          "duration": 0.09375,
          "durationTicks": 96,
          "midi": 59,
          "name": "B3",
          "ticks": 90720,
          "time": 88.59375,
          "velocity": 0.3937007874015748
        },
        {
          "duration": 0.09375,
          "durationTicks": 96,
          "midi": 54,
          "name": "F#3",
          "ticks": 90816,
          "time": 88.6875,
          "velocity": 0.3937007874015748
        },
        {
          "duration": 0.09375,
          "durationTicks": 96,
          "midi": 62,
          "name": "D4",
          "ticks": 90816,
          "time": 88.6875,
          "velocity": 0.3937007874015748
        },
        {
          "duration": 0.09375,
          "durationTicks": 96,
          "midi": 59,
          "name": "B3",
          "ticks": 90816,
          "time": 88.6875,
          "velocity": 0.3937007874015748
        },
        {
          "duration": 0.09375,
          "durationTicks": 96,
          "midi": 59,
          "name": "B3",
          "ticks": 90912,
          "time": 88.78125,
          "velocity": 0.3937007874015748
        },
        {
          "duration": 0.09375,
          "durationTicks": 96,
          "midi": 62,
          "name": "D4",
          "ticks": 90912,
          "time": 88.78125,
          "velocity": 0.3937007874015748
        },
        {
          "duration": 0.09375,
          "durationTicks": 96,
          "midi": 54,
          "name": "F#3",
          "ticks": 90912,
          "time": 88.78125,
          "velocity": 0.3937007874015748
        },
        {
          "duration": 0.09375,
          "durationTicks": 96,
          "midi": 54,
          "name": "F#3",
          "ticks": 91008,
          "time": 88.875,
          "velocity": 0.3937007874015748
        },
        {
          "duration": 0.09375,
          "durationTicks": 96,
          "midi": 62,
          "name": "D4",
          "ticks": 91008,
          "time": 88.875,
          "velocity": 0.3937007874015748
        },
        {
          "duration": 0.09375,
          "durationTicks": 96,
          "midi": 59,
          "name": "B3",
          "ticks": 91008,
          "time": 88.875,
          "velocity": 0.3937007874015748
        },
        {
          "duration": 0.09375,
          "durationTicks": 96,
          "midi": 54,
          "name": "F#3",
          "ticks": 91104,
          "time": 88.96875,
          "velocity": 0.3937007874015748
        },
        {
          "duration": 0.09375,
          "durationTicks": 96,
          "midi": 62,
          "name": "D4",
          "ticks": 91104,
          "time": 88.96875,
          "velocity": 0.3937007874015748
        },
        {
          "duration": 0.09375,
          "durationTicks": 96,
          "midi": 59,
          "name": "B3",
          "ticks": 91104,
          "time": 88.96875,
          "velocity": 0.3937007874015748
        },
        {
          "duration": 0.09375,
          "durationTicks": 96,
          "midi": 54,
          "name": "F#3",
          "ticks": 91200,
          "time": 89.0625,
          "velocity": 0.3937007874015748
        },
        {
          "duration": 0.09375,
          "durationTicks": 96,
          "midi": 59,
          "name": "B3",
          "ticks": 91200,
          "time": 89.0625,
          "velocity": 0.3937007874015748
        },
        {
          "duration": 0.09375,
          "durationTicks": 96,
          "midi": 62,
          "name": "D4",
          "ticks": 91200,
          "time": 89.0625,
          "velocity": 0.3937007874015748
        },
        {
          "duration": 0.09375,
          "durationTicks": 96,
          "midi": 62,
          "name": "D4",
          "ticks": 91296,
          "time": 89.15625,
          "velocity": 0.3937007874015748
        },
        {
          "duration": 0.09375,
          "durationTicks": 96,
          "midi": 59,
          "name": "B3",
          "ticks": 91296,
          "time": 89.15625,
          "velocity": 0.3937007874015748
        },
        {
          "duration": 0.09375,
          "durationTicks": 96,
          "midi": 54,
          "name": "F#3",
          "ticks": 91296,
          "time": 89.15625,
          "velocity": 0.3937007874015748
        },
        {
          "duration": 0.09375,
          "durationTicks": 96,
          "midi": 54,
          "name": "F#3",
          "ticks": 91392,
          "time": 89.25,
          "velocity": 0.3937007874015748
        },
        {
          "duration": 0.09375,
          "durationTicks": 96,
          "midi": 59,
          "name": "B3",
          "ticks": 91392,
          "time": 89.25,
          "velocity": 0.3937007874015748
        },
        {
          "duration": 0.09375,
          "durationTicks": 96,
          "midi": 62,
          "name": "D4",
          "ticks": 91392,
          "time": 89.25,
          "velocity": 0.3937007874015748
        },
        {
          "duration": 0.09375,
          "durationTicks": 96,
          "midi": 54,
          "name": "F#3",
          "ticks": 91488,
          "time": 89.34375,
          "velocity": 0.3937007874015748
        },
        {
          "duration": 0.09375,
          "durationTicks": 96,
          "midi": 62,
          "name": "D4",
          "ticks": 91488,
          "time": 89.34375,
          "velocity": 0.3937007874015748
        },
        {
          "duration": 0.09375,
          "durationTicks": 96,
          "midi": 59,
          "name": "B3",
          "ticks": 91488,
          "time": 89.34375,
          "velocity": 0.3937007874015748
        },
        {
          "duration": 0.09375,
          "durationTicks": 96,
          "midi": 62,
          "name": "D4",
          "ticks": 91584,
          "time": 89.4375,
          "velocity": 0.3937007874015748
        },
        {
          "duration": 0.09375,
          "durationTicks": 96,
          "midi": 54,
          "name": "F#3",
          "ticks": 91584,
          "time": 89.4375,
          "velocity": 0.3937007874015748
        },
        {
          "duration": 0.09375,
          "durationTicks": 96,
          "midi": 59,
          "name": "B3",
          "ticks": 91584,
          "time": 89.4375,
          "velocity": 0.3937007874015748
        },
        {
          "duration": 0.09375,
          "durationTicks": 96,
          "midi": 59,
          "name": "B3",
          "ticks": 91680,
          "time": 89.53125,
          "velocity": 0.3937007874015748
        },
        {
          "duration": 0.09375,
          "durationTicks": 96,
          "midi": 54,
          "name": "F#3",
          "ticks": 91680,
          "time": 89.53125,
          "velocity": 0.3937007874015748
        },
        {
          "duration": 0.09375,
          "durationTicks": 96,
          "midi": 62,
          "name": "D4",
          "ticks": 91680,
          "time": 89.53125,
          "velocity": 0.3937007874015748
        },
        {
          "duration": 0.09375,
          "durationTicks": 96,
          "midi": 54,
          "name": "F#3",
          "ticks": 91776,
          "time": 89.625,
          "velocity": 0.3937007874015748
        },
        {
          "duration": 0.09375,
          "durationTicks": 96,
          "midi": 62,
          "name": "D4",
          "ticks": 91776,
          "time": 89.625,
          "velocity": 0.3937007874015748
        },
        {
          "duration": 0.09375,
          "durationTicks": 96,
          "midi": 59,
          "name": "B3",
          "ticks": 91776,
          "time": 89.625,
          "velocity": 0.3937007874015748
        },
        {
          "duration": 0.09375,
          "durationTicks": 96,
          "midi": 62,
          "name": "D4",
          "ticks": 91872,
          "time": 89.71875,
          "velocity": 0.3937007874015748
        },
        {
          "duration": 0.09375,
          "durationTicks": 96,
          "midi": 59,
          "name": "B3",
          "ticks": 91872,
          "time": 89.71875,
          "velocity": 0.3937007874015748
        },
        {
          "duration": 0.09375,
          "durationTicks": 96,
          "midi": 54,
          "name": "F#3",
          "ticks": 91872,
          "time": 89.71875,
          "velocity": 0.3937007874015748
        },
        {
          "duration": 0.09375,
          "durationTicks": 96,
          "midi": 59,
          "name": "B3",
          "ticks": 91968,
          "time": 89.8125,
          "velocity": 0.3937007874015748
        },
        {
          "duration": 0.09375,
          "durationTicks": 96,
          "midi": 62,
          "name": "D4",
          "ticks": 91968,
          "time": 89.8125,
          "velocity": 0.3937007874015748
        },
        {
          "duration": 0.09375,
          "durationTicks": 96,
          "midi": 54,
          "name": "F#3",
          "ticks": 91968,
          "time": 89.8125,
          "velocity": 0.3937007874015748
        },
        {
          "duration": 0.09375,
          "durationTicks": 96,
          "midi": 54,
          "name": "F#3",
          "ticks": 92064,
          "time": 89.90625,
          "velocity": 0.3937007874015748
        },
        {
          "duration": 0.09375,
          "durationTicks": 96,
          "midi": 59,
          "name": "B3",
          "ticks": 92064,
          "time": 89.90625,
          "velocity": 0.3937007874015748
        },
        {
          "duration": 0.09375,
          "durationTicks": 96,
          "midi": 62,
          "name": "D4",
          "ticks": 92064,
          "time": 89.90625,
          "velocity": 0.3937007874015748
        },
        {
          "duration": 0.09375,
          "durationTicks": 96,
          "midi": 58,
          "name": "A#3",
          "ticks": 92160,
          "time": 90,
          "velocity": 0.3937007874015748
        },
        {
          "duration": 0.09375,
          "durationTicks": 96,
          "midi": 54,
          "name": "F#3",
          "ticks": 92160,
          "time": 90,
          "velocity": 0.3937007874015748
        },
        {
          "duration": 0.09375,
          "durationTicks": 96,
          "midi": 61,
          "name": "C#4",
          "ticks": 92160,
          "time": 90,
          "velocity": 0.3937007874015748
        },
        {
          "duration": 0.09375,
          "durationTicks": 96,
          "midi": 58,
          "name": "A#3",
          "ticks": 92256,
          "time": 90.09375,
          "velocity": 0.3937007874015748
        },
        {
          "duration": 0.09375,
          "durationTicks": 96,
          "midi": 54,
          "name": "F#3",
          "ticks": 92256,
          "time": 90.09375,
          "velocity": 0.3937007874015748
        },
        {
          "duration": 0.09375,
          "durationTicks": 96,
          "midi": 61,
          "name": "C#4",
          "ticks": 92256,
          "time": 90.09375,
          "velocity": 0.3937007874015748
        },
        {
          "duration": 0.09375,
          "durationTicks": 96,
          "midi": 54,
          "name": "F#3",
          "ticks": 92352,
          "time": 90.1875,
          "velocity": 0.3937007874015748
        },
        {
          "duration": 0.09375,
          "durationTicks": 96,
          "midi": 58,
          "name": "A#3",
          "ticks": 92352,
          "time": 90.1875,
          "velocity": 0.3937007874015748
        },
        {
          "duration": 0.09375,
          "durationTicks": 96,
          "midi": 61,
          "name": "C#4",
          "ticks": 92352,
          "time": 90.1875,
          "velocity": 0.3937007874015748
        },
        {
          "duration": 0.09375,
          "durationTicks": 96,
          "midi": 58,
          "name": "A#3",
          "ticks": 92448,
          "time": 90.28125,
          "velocity": 0.3937007874015748
        },
        {
          "duration": 0.09375,
          "durationTicks": 96,
          "midi": 54,
          "name": "F#3",
          "ticks": 92448,
          "time": 90.28125,
          "velocity": 0.3937007874015748
        },
        {
          "duration": 0.09375,
          "durationTicks": 96,
          "midi": 61,
          "name": "C#4",
          "ticks": 92448,
          "time": 90.28125,
          "velocity": 0.3937007874015748
        },
        {
          "duration": 0.09375,
          "durationTicks": 96,
          "midi": 61,
          "name": "C#4",
          "ticks": 92544,
          "time": 90.375,
          "velocity": 0.3937007874015748
        },
        {
          "duration": 0.09375,
          "durationTicks": 96,
          "midi": 58,
          "name": "A#3",
          "ticks": 92544,
          "time": 90.375,
          "velocity": 0.3937007874015748
        },
        {
          "duration": 0.09375,
          "durationTicks": 96,
          "midi": 54,
          "name": "F#3",
          "ticks": 92544,
          "time": 90.375,
          "velocity": 0.3937007874015748
        },
        {
          "duration": 0.09375,
          "durationTicks": 96,
          "midi": 61,
          "name": "C#4",
          "ticks": 92640,
          "time": 90.46875,
          "velocity": 0.3937007874015748
        },
        {
          "duration": 0.09375,
          "durationTicks": 96,
          "midi": 58,
          "name": "A#3",
          "ticks": 92640,
          "time": 90.46875,
          "velocity": 0.3937007874015748
        },
        {
          "duration": 0.09375,
          "durationTicks": 96,
          "midi": 54,
          "name": "F#3",
          "ticks": 92640,
          "time": 90.46875,
          "velocity": 0.3937007874015748
        },
        {
          "duration": 0.09375,
          "durationTicks": 96,
          "midi": 61,
          "name": "C#4",
          "ticks": 92736,
          "time": 90.5625,
          "velocity": 0.3937007874015748
        },
        {
          "duration": 0.09375,
          "durationTicks": 96,
          "midi": 54,
          "name": "F#3",
          "ticks": 92736,
          "time": 90.5625,
          "velocity": 0.3937007874015748
        },
        {
          "duration": 0.09375,
          "durationTicks": 96,
          "midi": 58,
          "name": "A#3",
          "ticks": 92736,
          "time": 90.5625,
          "velocity": 0.3937007874015748
        },
        {
          "duration": 0.09375,
          "durationTicks": 96,
          "midi": 58,
          "name": "A#3",
          "ticks": 92832,
          "time": 90.65625,
          "velocity": 0.3937007874015748
        },
        {
          "duration": 0.09375,
          "durationTicks": 96,
          "midi": 54,
          "name": "F#3",
          "ticks": 92832,
          "time": 90.65625,
          "velocity": 0.3937007874015748
        },
        {
          "duration": 0.09375,
          "durationTicks": 96,
          "midi": 61,
          "name": "C#4",
          "ticks": 92832,
          "time": 90.65625,
          "velocity": 0.3937007874015748
        },
        {
          "duration": 0.09375,
          "durationTicks": 96,
          "midi": 54,
          "name": "F#3",
          "ticks": 92928,
          "time": 90.75,
          "velocity": 0.3937007874015748
        },
        {
          "duration": 0.09375,
          "durationTicks": 96,
          "midi": 61,
          "name": "C#4",
          "ticks": 92928,
          "time": 90.75,
          "velocity": 0.3937007874015748
        },
        {
          "duration": 0.09375,
          "durationTicks": 96,
          "midi": 58,
          "name": "A#3",
          "ticks": 92928,
          "time": 90.75,
          "velocity": 0.3937007874015748
        },
        {
          "duration": 0.09375,
          "durationTicks": 96,
          "midi": 54,
          "name": "F#3",
          "ticks": 93024,
          "time": 90.84375,
          "velocity": 0.3937007874015748
        },
        {
          "duration": 0.09375,
          "durationTicks": 96,
          "midi": 61,
          "name": "C#4",
          "ticks": 93024,
          "time": 90.84375,
          "velocity": 0.3937007874015748
        },
        {
          "duration": 0.09375,
          "durationTicks": 96,
          "midi": 58,
          "name": "A#3",
          "ticks": 93024,
          "time": 90.84375,
          "velocity": 0.3937007874015748
        },
        {
          "duration": 0.09375,
          "durationTicks": 96,
          "midi": 54,
          "name": "F#3",
          "ticks": 93120,
          "time": 90.9375,
          "velocity": 0.3937007874015748
        },
        {
          "duration": 0.09375,
          "durationTicks": 96,
          "midi": 58,
          "name": "A#3",
          "ticks": 93120,
          "time": 90.9375,
          "velocity": 0.3937007874015748
        },
        {
          "duration": 0.09375,
          "durationTicks": 96,
          "midi": 61,
          "name": "C#4",
          "ticks": 93120,
          "time": 90.9375,
          "velocity": 0.3937007874015748
        },
        {
          "duration": 0.09375,
          "durationTicks": 96,
          "midi": 58,
          "name": "A#3",
          "ticks": 93216,
          "time": 91.03125,
          "velocity": 0.3937007874015748
        },
        {
          "duration": 0.09375,
          "durationTicks": 96,
          "midi": 61,
          "name": "C#4",
          "ticks": 93216,
          "time": 91.03125,
          "velocity": 0.3937007874015748
        },
        {
          "duration": 0.09375,
          "durationTicks": 96,
          "midi": 54,
          "name": "F#3",
          "ticks": 93216,
          "time": 91.03125,
          "velocity": 0.3937007874015748
        },
        {
          "duration": 0.09375,
          "durationTicks": 96,
          "midi": 54,
          "name": "F#3",
          "ticks": 93312,
          "time": 91.125,
          "velocity": 0.3937007874015748
        },
        {
          "duration": 0.09375,
          "durationTicks": 96,
          "midi": 58,
          "name": "A#3",
          "ticks": 93312,
          "time": 91.125,
          "velocity": 0.3937007874015748
        },
        {
          "duration": 0.09375,
          "durationTicks": 96,
          "midi": 61,
          "name": "C#4",
          "ticks": 93312,
          "time": 91.125,
          "velocity": 0.3937007874015748
        },
        {
          "duration": 0.09375,
          "durationTicks": 96,
          "midi": 61,
          "name": "C#4",
          "ticks": 93408,
          "time": 91.21875,
          "velocity": 0.3937007874015748
        },
        {
          "duration": 0.09375,
          "durationTicks": 96,
          "midi": 58,
          "name": "A#3",
          "ticks": 93408,
          "time": 91.21875,
          "velocity": 0.3937007874015748
        },
        {
          "duration": 0.09375,
          "durationTicks": 96,
          "midi": 54,
          "name": "F#3",
          "ticks": 93408,
          "time": 91.21875,
          "velocity": 0.3937007874015748
        },
        {
          "duration": 0.09375,
          "durationTicks": 96,
          "midi": 54,
          "name": "F#3",
          "ticks": 93504,
          "time": 91.3125,
          "velocity": 0.3937007874015748
        },
        {
          "duration": 0.09375,
          "durationTicks": 96,
          "midi": 61,
          "name": "C#4",
          "ticks": 93504,
          "time": 91.3125,
          "velocity": 0.3937007874015748
        },
        {
          "duration": 0.09375,
          "durationTicks": 96,
          "midi": 58,
          "name": "A#3",
          "ticks": 93504,
          "time": 91.3125,
          "velocity": 0.3937007874015748
        },
        {
          "duration": 0.09375,
          "durationTicks": 96,
          "midi": 54,
          "name": "F#3",
          "ticks": 93600,
          "time": 91.40625,
          "velocity": 0.3937007874015748
        },
        {
          "duration": 0.09375,
          "durationTicks": 96,
          "midi": 61,
          "name": "C#4",
          "ticks": 93600,
          "time": 91.40625,
          "velocity": 0.3937007874015748
        },
        {
          "duration": 0.09375,
          "durationTicks": 96,
          "midi": 58,
          "name": "A#3",
          "ticks": 93600,
          "time": 91.40625,
          "velocity": 0.3937007874015748
        },
        {
          "duration": 0.09375,
          "durationTicks": 96,
          "midi": 52,
          "name": "E3",
          "ticks": 93696,
          "time": 91.5,
          "velocity": 0.3937007874015748
        },
        {
          "duration": 0.09375,
          "durationTicks": 96,
          "midi": 57,
          "name": "A3",
          "ticks": 93696,
          "time": 91.5,
          "velocity": 0.3937007874015748
        },
        {
          "duration": 0.09375,
          "durationTicks": 96,
          "midi": 60,
          "name": "C4",
          "ticks": 93696,
          "time": 91.5,
          "velocity": 0.3937007874015748
        },
        {
          "duration": 0.09375,
          "durationTicks": 96,
          "midi": 52,
          "name": "E3",
          "ticks": 93792,
          "time": 91.59375,
          "velocity": 0.3937007874015748
        },
        {
          "duration": 0.09375,
          "durationTicks": 96,
          "midi": 60,
          "name": "C4",
          "ticks": 93792,
          "time": 91.59375,
          "velocity": 0.3937007874015748
        },
        {
          "duration": 0.09375,
          "durationTicks": 96,
          "midi": 57,
          "name": "A3",
          "ticks": 93792,
          "time": 91.59375,
          "velocity": 0.3937007874015748
        },
        {
          "duration": 0.09375,
          "durationTicks": 96,
          "midi": 60,
          "name": "C4",
          "ticks": 93888,
          "time": 91.6875,
          "velocity": 0.3937007874015748
        },
        {
          "duration": 0.09375,
          "durationTicks": 96,
          "midi": 57,
          "name": "A3",
          "ticks": 93888,
          "time": 91.6875,
          "velocity": 0.3937007874015748
        },
        {
          "duration": 0.09375,
          "durationTicks": 96,
          "midi": 52,
          "name": "E3",
          "ticks": 93888,
          "time": 91.6875,
          "velocity": 0.3937007874015748
        },
        {
          "duration": 0.09375,
          "durationTicks": 96,
          "midi": 52,
          "name": "E3",
          "ticks": 93984,
          "time": 91.78125,
          "velocity": 0.3937007874015748
        },
        {
          "duration": 0.09375,
          "durationTicks": 96,
          "midi": 60,
          "name": "C4",
          "ticks": 93984,
          "time": 91.78125,
          "velocity": 0.3937007874015748
        },
        {
          "duration": 0.09375,
          "durationTicks": 96,
          "midi": 57,
          "name": "A3",
          "ticks": 93984,
          "time": 91.78125,
          "velocity": 0.3937007874015748
        },
        {
          "duration": 0.09375,
          "durationTicks": 96,
          "midi": 52,
          "name": "E3",
          "ticks": 94080,
          "time": 91.875,
          "velocity": 0.3937007874015748
        },
        {
          "duration": 0.09375,
          "durationTicks": 96,
          "midi": 60,
          "name": "C4",
          "ticks": 94080,
          "time": 91.875,
          "velocity": 0.3937007874015748
        },
        {
          "duration": 0.09375,
          "durationTicks": 96,
          "midi": 57,
          "name": "A3",
          "ticks": 94080,
          "time": 91.875,
          "velocity": 0.3937007874015748
        },
        {
          "duration": 0.09375,
          "durationTicks": 96,
          "midi": 60,
          "name": "C4",
          "ticks": 94176,
          "time": 91.96875,
          "velocity": 0.3937007874015748
        },
        {
          "duration": 0.09375,
          "durationTicks": 96,
          "midi": 57,
          "name": "A3",
          "ticks": 94176,
          "time": 91.96875,
          "velocity": 0.3937007874015748
        },
        {
          "duration": 0.09375,
          "durationTicks": 96,
          "midi": 52,
          "name": "E3",
          "ticks": 94176,
          "time": 91.96875,
          "velocity": 0.3937007874015748
        },
        {
          "duration": 0.09375,
          "durationTicks": 96,
          "midi": 60,
          "name": "C4",
          "ticks": 94272,
          "time": 92.0625,
          "velocity": 0.3937007874015748
        },
        {
          "duration": 0.09375,
          "durationTicks": 96,
          "midi": 57,
          "name": "A3",
          "ticks": 94272,
          "time": 92.0625,
          "velocity": 0.3937007874015748
        },
        {
          "duration": 0.09375,
          "durationTicks": 96,
          "midi": 52,
          "name": "E3",
          "ticks": 94272,
          "time": 92.0625,
          "velocity": 0.3937007874015748
        },
        {
          "duration": 0.09375,
          "durationTicks": 96,
          "midi": 52,
          "name": "E3",
          "ticks": 94368,
          "time": 92.15625,
          "velocity": 0.3937007874015748
        },
        {
          "duration": 0.09375,
          "durationTicks": 96,
          "midi": 57,
          "name": "A3",
          "ticks": 94368,
          "time": 92.15625,
          "velocity": 0.3937007874015748
        },
        {
          "duration": 0.09375,
          "durationTicks": 96,
          "midi": 60,
          "name": "C4",
          "ticks": 94368,
          "time": 92.15625,
          "velocity": 0.3937007874015748
        },
        {
          "duration": 0.09375,
          "durationTicks": 96,
          "midi": 57,
          "name": "A3",
          "ticks": 94464,
          "time": 92.25,
          "velocity": 0.3937007874015748
        },
        {
          "duration": 0.09375,
          "durationTicks": 96,
          "midi": 52,
          "name": "E3",
          "ticks": 94464,
          "time": 92.25,
          "velocity": 0.3937007874015748
        },
        {
          "duration": 0.09375,
          "durationTicks": 96,
          "midi": 60,
          "name": "C4",
          "ticks": 94464,
          "time": 92.25,
          "velocity": 0.3937007874015748
        },
        {
          "duration": 0.09375,
          "durationTicks": 96,
          "midi": 57,
          "name": "A3",
          "ticks": 94560,
          "time": 92.34375,
          "velocity": 0.3937007874015748
        },
        {
          "duration": 0.09375,
          "durationTicks": 96,
          "midi": 52,
          "name": "E3",
          "ticks": 94560,
          "time": 92.34375,
          "velocity": 0.3937007874015748
        },
        {
          "duration": 0.09375,
          "durationTicks": 96,
          "midi": 60,
          "name": "C4",
          "ticks": 94560,
          "time": 92.34375,
          "velocity": 0.3937007874015748
        },
        {
          "duration": 0.09375,
          "durationTicks": 96,
          "midi": 57,
          "name": "A3",
          "ticks": 94656,
          "time": 92.4375,
          "velocity": 0.3937007874015748
        },
        {
          "duration": 0.09375,
          "durationTicks": 96,
          "midi": 52,
          "name": "E3",
          "ticks": 94656,
          "time": 92.4375,
          "velocity": 0.3937007874015748
        },
        {
          "duration": 0.09375,
          "durationTicks": 96,
          "midi": 60,
          "name": "C4",
          "ticks": 94656,
          "time": 92.4375,
          "velocity": 0.3937007874015748
        },
        {
          "duration": 0.09375,
          "durationTicks": 96,
          "midi": 57,
          "name": "A3",
          "ticks": 94752,
          "time": 92.53125,
          "velocity": 0.3937007874015748
        },
        {
          "duration": 0.09375,
          "durationTicks": 96,
          "midi": 60,
          "name": "C4",
          "ticks": 94752,
          "time": 92.53125,
          "velocity": 0.3937007874015748
        },
        {
          "duration": 0.09375,
          "durationTicks": 96,
          "midi": 52,
          "name": "E3",
          "ticks": 94752,
          "time": 92.53125,
          "velocity": 0.3937007874015748
        },
        {
          "duration": 0.09375,
          "durationTicks": 96,
          "midi": 60,
          "name": "C4",
          "ticks": 94848,
          "time": 92.625,
          "velocity": 0.3937007874015748
        },
        {
          "duration": 0.09375,
          "durationTicks": 96,
          "midi": 57,
          "name": "A3",
          "ticks": 94848,
          "time": 92.625,
          "velocity": 0.3937007874015748
        },
        {
          "duration": 0.09375,
          "durationTicks": 96,
          "midi": 52,
          "name": "E3",
          "ticks": 94848,
          "time": 92.625,
          "velocity": 0.3937007874015748
        },
        {
          "duration": 0.09375,
          "durationTicks": 96,
          "midi": 57,
          "name": "A3",
          "ticks": 94944,
          "time": 92.71875,
          "velocity": 0.3937007874015748
        },
        {
          "duration": 0.09375,
          "durationTicks": 96,
          "midi": 52,
          "name": "E3",
          "ticks": 94944,
          "time": 92.71875,
          "velocity": 0.3937007874015748
        },
        {
          "duration": 0.09375,
          "durationTicks": 96,
          "midi": 60,
          "name": "C4",
          "ticks": 94944,
          "time": 92.71875,
          "velocity": 0.3937007874015748
        },
        {
          "duration": 0.09375,
          "durationTicks": 96,
          "midi": 57,
          "name": "A3",
          "ticks": 95040,
          "time": 92.8125,
          "velocity": 0.3937007874015748
        },
        {
          "duration": 0.09375,
          "durationTicks": 96,
          "midi": 60,
          "name": "C4",
          "ticks": 95040,
          "time": 92.8125,
          "velocity": 0.3937007874015748
        },
        {
          "duration": 0.09375,
          "durationTicks": 96,
          "midi": 52,
          "name": "E3",
          "ticks": 95040,
          "time": 92.8125,
          "velocity": 0.3937007874015748
        },
        {
          "duration": 0.09375,
          "durationTicks": 96,
          "midi": 52,
          "name": "E3",
          "ticks": 95136,
          "time": 92.90625,
          "velocity": 0.3937007874015748
        },
        {
          "duration": 0.09375,
          "durationTicks": 96,
          "midi": 60,
          "name": "C4",
          "ticks": 95136,
          "time": 92.90625,
          "velocity": 0.3937007874015748
        },
        {
          "duration": 0.09375,
          "durationTicks": 96,
          "midi": 57,
          "name": "A3",
          "ticks": 95136,
          "time": 92.90625,
          "velocity": 0.3937007874015748
        },
        {
          "duration": 0.09375,
          "durationTicks": 96,
          "midi": 51,
          "name": "D#3",
          "ticks": 95232,
          "time": 93,
          "velocity": 0.3937007874015748
        },
        {
          "duration": 0.09375,
          "durationTicks": 96,
          "midi": 54,
          "name": "F#3",
          "ticks": 95232,
          "time": 93,
          "velocity": 0.3937007874015748
        },
        {
          "duration": 0.09375,
          "durationTicks": 96,
          "midi": 59,
          "name": "B3",
          "ticks": 95232,
          "time": 93,
          "velocity": 0.3937007874015748
        },
        {
          "duration": 0.09375,
          "durationTicks": 96,
          "midi": 59,
          "name": "B3",
          "ticks": 95328,
          "time": 93.09375,
          "velocity": 0.3937007874015748
        },
        {
          "duration": 0.09375,
          "durationTicks": 96,
          "midi": 54,
          "name": "F#3",
          "ticks": 95328,
          "time": 93.09375,
          "velocity": 0.3937007874015748
        },
        {
          "duration": 0.09375,
          "durationTicks": 96,
          "midi": 51,
          "name": "D#3",
          "ticks": 95328,
          "time": 93.09375,
          "velocity": 0.3937007874015748
        },
        {
          "duration": 0.09375,
          "durationTicks": 96,
          "midi": 54,
          "name": "F#3",
          "ticks": 95424,
          "time": 93.1875,
          "velocity": 0.3937007874015748
        },
        {
          "duration": 0.09375,
          "durationTicks": 96,
          "midi": 51,
          "name": "D#3",
          "ticks": 95424,
          "time": 93.1875,
          "velocity": 0.3937007874015748
        },
        {
          "duration": 0.09375,
          "durationTicks": 96,
          "midi": 59,
          "name": "B3",
          "ticks": 95424,
          "time": 93.1875,
          "velocity": 0.3937007874015748
        },
        {
          "duration": 0.09375,
          "durationTicks": 96,
          "midi": 59,
          "name": "B3",
          "ticks": 95520,
          "time": 93.28125,
          "velocity": 0.3937007874015748
        },
        {
          "duration": 0.09375,
          "durationTicks": 96,
          "midi": 51,
          "name": "D#3",
          "ticks": 95520,
          "time": 93.28125,
          "velocity": 0.3937007874015748
        },
        {
          "duration": 0.09375,
          "durationTicks": 96,
          "midi": 54,
          "name": "F#3",
          "ticks": 95520,
          "time": 93.28125,
          "velocity": 0.3937007874015748
        },
        {
          "duration": 0.09375,
          "durationTicks": 96,
          "midi": 59,
          "name": "B3",
          "ticks": 95616,
          "time": 93.375,
          "velocity": 0.3937007874015748
        },
        {
          "duration": 0.09375,
          "durationTicks": 96,
          "midi": 54,
          "name": "F#3",
          "ticks": 95616,
          "time": 93.375,
          "velocity": 0.3937007874015748
        },
        {
          "duration": 0.09375,
          "durationTicks": 96,
          "midi": 51,
          "name": "D#3",
          "ticks": 95616,
          "time": 93.375,
          "velocity": 0.3937007874015748
        },
        {
          "duration": 0.09375,
          "durationTicks": 96,
          "midi": 51,
          "name": "D#3",
          "ticks": 95712,
          "time": 93.46875,
          "velocity": 0.3937007874015748
        },
        {
          "duration": 0.09375,
          "durationTicks": 96,
          "midi": 59,
          "name": "B3",
          "ticks": 95712,
          "time": 93.46875,
          "velocity": 0.3937007874015748
        },
        {
          "duration": 0.09375,
          "durationTicks": 96,
          "midi": 54,
          "name": "F#3",
          "ticks": 95712,
          "time": 93.46875,
          "velocity": 0.3937007874015748
        },
        {
          "duration": 0.09375,
          "durationTicks": 96,
          "midi": 59,
          "name": "B3",
          "ticks": 95808,
          "time": 93.5625,
          "velocity": 0.3937007874015748
        },
        {
          "duration": 0.09375,
          "durationTicks": 96,
          "midi": 54,
          "name": "F#3",
          "ticks": 95808,
          "time": 93.5625,
          "velocity": 0.3937007874015748
        },
        {
          "duration": 0.09375,
          "durationTicks": 96,
          "midi": 51,
          "name": "D#3",
          "ticks": 95808,
          "time": 93.5625,
          "velocity": 0.3937007874015748
        },
        {
          "duration": 0.09375,
          "durationTicks": 96,
          "midi": 59,
          "name": "B3",
          "ticks": 95904,
          "time": 93.65625,
          "velocity": 0.3937007874015748
        },
        {
          "duration": 0.09375,
          "durationTicks": 96,
          "midi": 54,
          "name": "F#3",
          "ticks": 95904,
          "time": 93.65625,
          "velocity": 0.3937007874015748
        },
        {
          "duration": 0.09375,
          "durationTicks": 96,
          "midi": 51,
          "name": "D#3",
          "ticks": 95904,
          "time": 93.65625,
          "velocity": 0.3937007874015748
        },
        {
          "duration": 0.09375,
          "durationTicks": 96,
          "midi": 51,
          "name": "D#3",
          "ticks": 96000,
          "time": 93.75,
          "velocity": 0.3937007874015748
        },
        {
          "duration": 0.09375,
          "durationTicks": 96,
          "midi": 54,
          "name": "F#3",
          "ticks": 96000,
          "time": 93.75,
          "velocity": 0.3937007874015748
        },
        {
          "duration": 0.09375,
          "durationTicks": 96,
          "midi": 59,
          "name": "B3",
          "ticks": 96000,
          "time": 93.75,
          "velocity": 0.3937007874015748
        },
        {
          "duration": 0.09375,
          "durationTicks": 96,
          "midi": 51,
          "name": "D#3",
          "ticks": 96096,
          "time": 93.84375,
          "velocity": 0.3937007874015748
        },
        {
          "duration": 0.09375,
          "durationTicks": 96,
          "midi": 54,
          "name": "F#3",
          "ticks": 96096,
          "time": 93.84375,
          "velocity": 0.3937007874015748
        },
        {
          "duration": 0.09375,
          "durationTicks": 96,
          "midi": 59,
          "name": "B3",
          "ticks": 96096,
          "time": 93.84375,
          "velocity": 0.3937007874015748
        },
        {
          "duration": 0.09375,
          "durationTicks": 96,
          "midi": 54,
          "name": "F#3",
          "ticks": 96192,
          "time": 93.9375,
          "velocity": 0.3937007874015748
        },
        {
          "duration": 0.09375,
          "durationTicks": 96,
          "midi": 59,
          "name": "B3",
          "ticks": 96192,
          "time": 93.9375,
          "velocity": 0.3937007874015748
        },
        {
          "duration": 0.09375,
          "durationTicks": 96,
          "midi": 51,
          "name": "D#3",
          "ticks": 96192,
          "time": 93.9375,
          "velocity": 0.3937007874015748
        },
        {
          "duration": 0.09375,
          "durationTicks": 96,
          "midi": 54,
          "name": "F#3",
          "ticks": 96288,
          "time": 94.03125,
          "velocity": 0.3937007874015748
        },
        {
          "duration": 0.09375,
          "durationTicks": 96,
          "midi": 51,
          "name": "D#3",
          "ticks": 96288,
          "time": 94.03125,
          "velocity": 0.3937007874015748
        },
        {
          "duration": 0.09375,
          "durationTicks": 96,
          "midi": 59,
          "name": "B3",
          "ticks": 96288,
          "time": 94.03125,
          "velocity": 0.3937007874015748
        },
        {
          "duration": 0.09375,
          "durationTicks": 96,
          "midi": 51,
          "name": "D#3",
          "ticks": 96384,
          "time": 94.125,
          "velocity": 0.3937007874015748
        },
        {
          "duration": 0.09375,
          "durationTicks": 96,
          "midi": 54,
          "name": "F#3",
          "ticks": 96384,
          "time": 94.125,
          "velocity": 0.3937007874015748
        },
        {
          "duration": 0.09375,
          "durationTicks": 96,
          "midi": 59,
          "name": "B3",
          "ticks": 96384,
          "time": 94.125,
          "velocity": 0.3937007874015748
        },
        {
          "duration": 0.09375,
          "durationTicks": 96,
          "midi": 54,
          "name": "F#3",
          "ticks": 96480,
          "time": 94.21875,
          "velocity": 0.3937007874015748
        },
        {
          "duration": 0.09375,
          "durationTicks": 96,
          "midi": 59,
          "name": "B3",
          "ticks": 96480,
          "time": 94.21875,
          "velocity": 0.3937007874015748
        },
        {
          "duration": 0.09375,
          "durationTicks": 96,
          "midi": 51,
          "name": "D#3",
          "ticks": 96480,
          "time": 94.21875,
          "velocity": 0.3937007874015748
        },
        {
          "duration": 0.09375,
          "durationTicks": 96,
          "midi": 59,
          "name": "B3",
          "ticks": 96576,
          "time": 94.3125,
          "velocity": 0.3937007874015748
        },
        {
          "duration": 0.09375,
          "durationTicks": 96,
          "midi": 54,
          "name": "F#3",
          "ticks": 96576,
          "time": 94.3125,
          "velocity": 0.3937007874015748
        },
        {
          "duration": 0.09375,
          "durationTicks": 96,
          "midi": 51,
          "name": "D#3",
          "ticks": 96576,
          "time": 94.3125,
          "velocity": 0.3937007874015748
        },
        {
          "duration": 0.09375,
          "durationTicks": 96,
          "midi": 51,
          "name": "D#3",
          "ticks": 96672,
          "time": 94.40625,
          "velocity": 0.3937007874015748
        },
        {
          "duration": 0.09375,
          "durationTicks": 96,
          "midi": 54,
          "name": "F#3",
          "ticks": 96672,
          "time": 94.40625,
          "velocity": 0.3937007874015748
        },
        {
          "duration": 0.09375,
          "durationTicks": 96,
          "midi": 59,
          "name": "B3",
          "ticks": 96672,
          "time": 94.40625,
          "velocity": 0.3937007874015748
        },
        {
          "duration": 0.09375,
          "durationTicks": 96,
          "midi": 52,
          "name": "E3",
          "ticks": 139776,
          "time": 136.5,
          "velocity": 0.3937007874015748
        },
        {
          "duration": 0.09375,
          "durationTicks": 96,
          "midi": 47,
          "name": "B2",
          "ticks": 139776,
          "time": 136.5,
          "velocity": 0.3937007874015748
        },
        {
          "duration": 0.09375,
          "durationTicks": 96,
          "midi": 40,
          "name": "E2",
          "ticks": 139776,
          "time": 136.5,
          "velocity": 0.3937007874015748
        },
        {
          "duration": 0.09375,
          "durationTicks": 96,
          "midi": 40,
          "name": "E2",
          "ticks": 140352,
          "time": 137.0625,
          "velocity": 0.3937007874015748
        },
        {
          "duration": 0.09375,
          "durationTicks": 96,
          "midi": 52,
          "name": "E3",
          "ticks": 140352,
          "time": 137.0625,
          "velocity": 0.3937007874015748
        },
        {
          "duration": 0.09375,
          "durationTicks": 96,
          "midi": 47,
          "name": "B2",
          "ticks": 140352,
          "time": 137.0625,
          "velocity": 0.3937007874015748
        },
        {
          "duration": 0.09375,
          "durationTicks": 96,
          "midi": 52,
          "name": "E3",
          "ticks": 140928,
          "time": 137.625,
          "velocity": 0.3937007874015748
        },
        {
          "duration": 0.09375,
          "durationTicks": 96,
          "midi": 47,
          "name": "B2",
          "ticks": 140928,
          "time": 137.625,
          "velocity": 0.3937007874015748
        },
        {
          "duration": 0.09375,
          "durationTicks": 96,
          "midi": 40,
          "name": "E2",
          "ticks": 140928,
          "time": 137.625,
          "velocity": 0.3937007874015748
        },
        {
          "duration": 0.09375,
          "durationTicks": 96,
          "midi": 47,
          "name": "B2",
          "ticks": 141312,
          "time": 138,
          "velocity": 0.3937007874015748
        },
        {
          "duration": 0.09375,
          "durationTicks": 96,
          "midi": 40,
          "name": "E2",
          "ticks": 141312,
          "time": 138,
          "velocity": 0.3937007874015748
        },
        {
          "duration": 0.09375,
          "durationTicks": 96,
          "midi": 52,
          "name": "E3",
          "ticks": 141312,
          "time": 138,
          "velocity": 0.3937007874015748
        },
        {
          "duration": 0.09375,
          "durationTicks": 96,
          "midi": 40,
          "name": "E2",
          "ticks": 141888,
          "time": 138.5625,
          "velocity": 0.3937007874015748
        },
        {
          "duration": 0.09375,
          "durationTicks": 96,
          "midi": 52,
          "name": "E3",
          "ticks": 141888,
          "time": 138.5625,
          "velocity": 0.3937007874015748
        },
        {
          "duration": 0.09375,
          "durationTicks": 96,
          "midi": 47,
          "name": "B2",
          "ticks": 141888,
          "time": 138.5625,
          "velocity": 0.3937007874015748
        },
        {
          "duration": 0.09375,
          "durationTicks": 96,
          "midi": 40,
          "name": "E2",
          "ticks": 142464,
          "time": 139.125,
          "velocity": 0.3937007874015748
        },
        {
          "duration": 0.09375,
          "durationTicks": 96,
          "midi": 52,
          "name": "E3",
          "ticks": 142464,
          "time": 139.125,
          "velocity": 0.3937007874015748
        },
        {
          "duration": 0.09375,
          "durationTicks": 96,
          "midi": 47,
          "name": "B2",
          "ticks": 142464,
          "time": 139.125,
          "velocity": 0.3937007874015748
        },
        {
          "duration": 0.09375,
          "durationTicks": 96,
          "midi": 52,
          "name": "E3",
          "ticks": 142848,
          "time": 139.5,
          "velocity": 0.3937007874015748
        },
        {
          "duration": 0.09375,
          "durationTicks": 96,
          "midi": 40,
          "name": "E2",
          "ticks": 142848,
          "time": 139.5,
          "velocity": 0.3937007874015748
        },
        {
          "duration": 0.09375,
          "durationTicks": 96,
          "midi": 47,
          "name": "B2",
          "ticks": 142848,
          "time": 139.5,
          "velocity": 0.3937007874015748
        },
        {
          "duration": 0.09375,
          "durationTicks": 96,
          "midi": 52,
          "name": "E3",
          "ticks": 143424,
          "time": 140.0625,
          "velocity": 0.3937007874015748
        },
        {
          "duration": 0.09375,
          "durationTicks": 96,
          "midi": 47,
          "name": "B2",
          "ticks": 143424,
          "time": 140.0625,
          "velocity": 0.3937007874015748
        },
        {
          "duration": 0.09375,
          "durationTicks": 96,
          "midi": 40,
          "name": "E2",
          "ticks": 143424,
          "time": 140.0625,
          "velocity": 0.3937007874015748
        },
        {
          "duration": 0.09375,
          "durationTicks": 96,
          "midi": 40,
          "name": "E2",
          "ticks": 144000,
          "time": 140.625,
          "velocity": 0.3937007874015748
        },
        {
          "duration": 0.09375,
          "durationTicks": 96,
          "midi": 52,
          "name": "E3",
          "ticks": 144000,
          "time": 140.625,
          "velocity": 0.3937007874015748
        },
        {
          "duration": 0.09375,
          "durationTicks": 96,
          "midi": 47,
          "name": "B2",
          "ticks": 144000,
          "time": 140.625,
          "velocity": 0.3937007874015748
        },
        {
          "duration": 0.09375,
          "durationTicks": 96,
          "midi": 52,
          "name": "E3",
          "ticks": 144384,
          "time": 141,
          "velocity": 0.3937007874015748
        },
        {
          "duration": 0.09375,
          "durationTicks": 96,
          "midi": 47,
          "name": "B2",
          "ticks": 144384,
          "time": 141,
          "velocity": 0.3937007874015748
        },
        {
          "duration": 0.09375,
          "durationTicks": 96,
          "midi": 40,
          "name": "E2",
          "ticks": 144384,
          "time": 141,
          "velocity": 0.3937007874015748
        },
        {
          "duration": 0.09375,
          "durationTicks": 96,
          "midi": 39,
          "name": "D#2",
          "ticks": 144960,
          "time": 141.5625,
          "velocity": 0.3937007874015748
        },
        {
          "duration": 0.09375,
          "durationTicks": 96,
          "midi": 51,
          "name": "D#3",
          "ticks": 144960,
          "time": 141.5625,
          "velocity": 0.3937007874015748
        },
        {
          "duration": 0.09375,
          "durationTicks": 96,
          "midi": 46,
          "name": "A#2",
          "ticks": 144960,
          "time": 141.5625,
          "velocity": 0.3937007874015748
        },
        {
          "duration": 0.09375,
          "durationTicks": 96,
          "midi": 39,
          "name": "D#2",
          "ticks": 145056,
          "time": 141.65625,
          "velocity": 0.3937007874015748
        },
        {
          "duration": 0.09375,
          "durationTicks": 96,
          "midi": 51,
          "name": "D#3",
          "ticks": 145056,
          "time": 141.65625,
          "velocity": 0.3937007874015748
        },
        {
          "duration": 0.09375,
          "durationTicks": 96,
          "midi": 46,
          "name": "A#2",
          "ticks": 145056,
          "time": 141.65625,
          "velocity": 0.3937007874015748
        },
        {
          "duration": 0.09375,
          "durationTicks": 96,
          "midi": 51,
          "name": "D#3",
          "ticks": 145152,
          "time": 141.75,
          "velocity": 0.3937007874015748
        },
        {
          "duration": 0.09375,
          "durationTicks": 96,
          "midi": 39,
          "name": "D#2",
          "ticks": 145152,
          "time": 141.75,
          "velocity": 0.3937007874015748
        },
        {
          "duration": 0.09375,
          "durationTicks": 96,
          "midi": 46,
          "name": "A#2",
          "ticks": 145152,
          "time": 141.75,
          "velocity": 0.3937007874015748
        },
        {
          "duration": 0.09375,
          "durationTicks": 96,
          "midi": 51,
          "name": "D#3",
          "ticks": 145248,
          "time": 141.84375,
          "velocity": 0.3937007874015748
        },
        {
          "duration": 0.09375,
          "durationTicks": 96,
          "midi": 39,
          "name": "D#2",
          "ticks": 145248,
          "time": 141.84375,
          "velocity": 0.3937007874015748
        },
        {
          "duration": 0.09375,
          "durationTicks": 96,
          "midi": 46,
          "name": "A#2",
          "ticks": 145248,
          "time": 141.84375,
          "velocity": 0.3937007874015748
        },
        {
          "duration": 0.09375,
          "durationTicks": 96,
          "midi": 51,
          "name": "D#3",
          "ticks": 145344,
          "time": 141.9375,
          "velocity": 0.3937007874015748
        },
        {
          "duration": 0.09375,
          "durationTicks": 96,
          "midi": 46,
          "name": "A#2",
          "ticks": 145344,
          "time": 141.9375,
          "velocity": 0.3937007874015748
        },
        {
          "duration": 0.09375,
          "durationTicks": 96,
          "midi": 39,
          "name": "D#2",
          "ticks": 145344,
          "time": 141.9375,
          "velocity": 0.3937007874015748
        },
        {
          "duration": 0.09375,
          "durationTicks": 96,
          "midi": 39,
          "name": "D#2",
          "ticks": 145440,
          "time": 142.03125,
          "velocity": 0.3937007874015748
        },
        {
          "duration": 0.09375,
          "durationTicks": 96,
          "midi": 51,
          "name": "D#3",
          "ticks": 145440,
          "time": 142.03125,
          "velocity": 0.3937007874015748
        },
        {
          "duration": 0.09375,
          "durationTicks": 96,
          "midi": 46,
          "name": "A#2",
          "ticks": 145440,
          "time": 142.03125,
          "velocity": 0.3937007874015748
        },
        {
          "duration": 0.09375,
          "durationTicks": 96,
          "midi": 46,
          "name": "A#2",
          "ticks": 145536,
          "time": 142.125,
          "velocity": 0.3937007874015748
        },
        {
          "duration": 0.09375,
          "durationTicks": 96,
          "midi": 39,
          "name": "D#2",
          "ticks": 145536,
          "time": 142.125,
          "velocity": 0.3937007874015748
        },
        {
          "duration": 0.09375,
          "durationTicks": 96,
          "midi": 51,
          "name": "D#3",
          "ticks": 145536,
          "time": 142.125,
          "velocity": 0.3937007874015748
        },
        {
          "duration": 0.09375,
          "durationTicks": 96,
          "midi": 47,
          "name": "B2",
          "ticks": 145920,
          "time": 142.5,
          "velocity": 0.3937007874015748
        },
        {
          "duration": 0.09375,
          "durationTicks": 96,
          "midi": 40,
          "name": "E2",
          "ticks": 145920,
          "time": 142.5,
          "velocity": 0.3937007874015748
        },
        {
          "duration": 0.09375,
          "durationTicks": 96,
          "midi": 52,
          "name": "E3",
          "ticks": 146496,
          "time": 143.0625,
          "velocity": 0.3937007874015748
        },
        {
          "duration": 0.09375,
          "durationTicks": 96,
          "midi": 47,
          "name": "B2",
          "ticks": 146496,
          "time": 143.0625,
          "velocity": 0.3937007874015748
        },
        {
          "duration": 0.09375,
          "durationTicks": 96,
          "midi": 40,
          "name": "E2",
          "ticks": 146496,
          "time": 143.0625,
          "velocity": 0.3937007874015748
        },
        {
          "duration": 0.09375,
          "durationTicks": 96,
          "midi": 52,
          "name": "E3",
          "ticks": 147072,
          "time": 143.625,
          "velocity": 0.3937007874015748
        },
        {
          "duration": 0.09375,
          "durationTicks": 96,
          "midi": 40,
          "name": "E2",
          "ticks": 147072,
          "time": 143.625,
          "velocity": 0.3937007874015748
        },
        {
          "duration": 0.09375,
          "durationTicks": 96,
          "midi": 47,
          "name": "B2",
          "ticks": 147072,
          "time": 143.625,
          "velocity": 0.3937007874015748
        },
        {
          "duration": 0.09375,
          "durationTicks": 96,
          "midi": 40,
          "name": "E2",
          "ticks": 147456,
          "time": 144,
          "velocity": 0.3937007874015748
        },
        {
          "duration": 0.09375,
          "durationTicks": 96,
          "midi": 47,
          "name": "B2",
          "ticks": 147456,
          "time": 144,
          "velocity": 0.3937007874015748
        },
        {
          "duration": 0.09375,
          "durationTicks": 96,
          "midi": 52,
          "name": "E3",
          "ticks": 147456,
          "time": 144,
          "velocity": 0.3937007874015748
        },
        {
          "duration": 0.09375,
          "durationTicks": 96,
          "midi": 52,
          "name": "E3",
          "ticks": 148032,
          "time": 144.5625,
          "velocity": 0.3937007874015748
        },
        {
          "duration": 0.09375,
          "durationTicks": 96,
          "midi": 47,
          "name": "B2",
          "ticks": 148032,
          "time": 144.5625,
          "velocity": 0.3937007874015748
        },
        {
          "duration": 0.09375,
          "durationTicks": 96,
          "midi": 40,
          "name": "E2",
          "ticks": 148032,
          "time": 144.5625,
          "velocity": 0.3937007874015748
        },
        {
          "duration": 0.09375,
          "durationTicks": 96,
          "midi": 40,
          "name": "E2",
          "ticks": 148416,
          "time": 144.9375,
          "velocity": 0.3937007874015748
        },
        {
          "duration": 0.09375,
          "durationTicks": 96,
          "midi": 52,
          "name": "E3",
          "ticks": 148608,
          "time": 145.125,
          "velocity": 0.3937007874015748
        },
        {
          "duration": 0.09375,
          "durationTicks": 96,
          "midi": 47,
          "name": "B2",
          "ticks": 148608,
          "time": 145.125,
          "velocity": 0.3937007874015748
        },
        {
          "duration": 0.09375,
          "durationTicks": 96,
          "midi": 40,
          "name": "E2",
          "ticks": 148800,
          "time": 145.3125,
          "velocity": 0.3937007874015748
        },
        {
          "duration": 0.09375,
          "durationTicks": 96,
          "midi": 47,
          "name": "B2",
          "ticks": 148992,
          "time": 145.5,
          "velocity": 0.3937007874015748
        },
        {
          "duration": 0.09375,
          "durationTicks": 96,
          "midi": 40,
          "name": "E2",
          "ticks": 148992,
          "time": 145.5,
          "velocity": 0.3937007874015748
        },
        {
          "duration": 0.09375,
          "durationTicks": 96,
          "midi": 52,
          "name": "E3",
          "ticks": 148992,
          "time": 145.5,
          "velocity": 0.3937007874015748
        },
        {
          "duration": 0.09375,
          "durationTicks": 96,
          "midi": 47,
          "name": "B2",
          "ticks": 149568,
          "time": 146.0625,
          "velocity": 0.3937007874015748
        },
        {
          "duration": 0.09375,
          "durationTicks": 96,
          "midi": 40,
          "name": "E2",
          "ticks": 149568,
          "time": 146.0625,
          "velocity": 0.3937007874015748
        },
        {
          "duration": 0.09375,
          "durationTicks": 96,
          "midi": 52,
          "name": "E3",
          "ticks": 149568,
          "time": 146.0625,
          "velocity": 0.3937007874015748
        },
        {
          "duration": 0.09375,
          "durationTicks": 96,
          "midi": 40,
          "name": "E2",
          "ticks": 150144,
          "time": 146.625,
          "velocity": 0.3937007874015748
        },
        {
          "duration": 0.09375,
          "durationTicks": 96,
          "midi": 52,
          "name": "E3",
          "ticks": 150144,
          "time": 146.625,
          "velocity": 0.3937007874015748
        },
        {
          "duration": 0.09375,
          "durationTicks": 96,
          "midi": 47,
          "name": "B2",
          "ticks": 150144,
          "time": 146.625,
          "velocity": 0.3937007874015748
        },
        {
          "duration": 0.09375,
          "durationTicks": 96,
          "midi": 52,
          "name": "E3",
          "ticks": 150528,
          "time": 147,
          "velocity": 0.3937007874015748
        },
        {
          "duration": 0.09375,
          "durationTicks": 96,
          "midi": 47,
          "name": "B2",
          "ticks": 150528,
          "time": 147,
          "velocity": 0.3937007874015748
        },
        {
          "duration": 0.09375,
          "durationTicks": 96,
          "midi": 40,
          "name": "E2",
          "ticks": 150528,
          "time": 147,
          "velocity": 0.3937007874015748
        },
        {
          "duration": 0.09375,
          "durationTicks": 96,
          "midi": 46,
          "name": "A#2",
          "ticks": 151104,
          "time": 147.5625,
          "velocity": 0.3937007874015748
        },
        {
          "duration": 0.09375,
          "durationTicks": 96,
          "midi": 39,
          "name": "D#2",
          "ticks": 151104,
          "time": 147.5625,
          "velocity": 0.3937007874015748
        },
        {
          "duration": 0.09375,
          "durationTicks": 96,
          "midi": 51,
          "name": "D#3",
          "ticks": 151104,
          "time": 147.5625,
          "velocity": 0.3937007874015748
        },
        {
          "duration": 0.09375,
          "durationTicks": 96,
          "midi": 39,
          "name": "D#2",
          "ticks": 151200,
          "time": 147.65625,
          "velocity": 0.3937007874015748
        },
        {
          "duration": 0.09375,
          "durationTicks": 96,
          "midi": 51,
          "name": "D#3",
          "ticks": 151200,
          "time": 147.65625,
          "velocity": 0.3937007874015748
        },
        {
          "duration": 0.09375,
          "durationTicks": 96,
          "midi": 46,
          "name": "A#2",
          "ticks": 151200,
          "time": 147.65625,
          "velocity": 0.3937007874015748
        },
        {
          "duration": 0.09375,
          "durationTicks": 96,
          "midi": 51,
          "name": "D#3",
          "ticks": 151296,
          "time": 147.75,
          "velocity": 0.3937007874015748
        },
        {
          "duration": 0.09375,
          "durationTicks": 96,
          "midi": 39,
          "name": "D#2",
          "ticks": 151296,
          "time": 147.75,
          "velocity": 0.3937007874015748
        },
        {
          "duration": 0.09375,
          "durationTicks": 96,
          "midi": 46,
          "name": "A#2",
          "ticks": 151296,
          "time": 147.75,
          "velocity": 0.3937007874015748
        },
        {
          "duration": 0.09375,
          "durationTicks": 96,
          "midi": 39,
          "name": "D#2",
          "ticks": 151392,
          "time": 147.84375,
          "velocity": 0.3937007874015748
        },
        {
          "duration": 0.09375,
          "durationTicks": 96,
          "midi": 51,
          "name": "D#3",
          "ticks": 151392,
          "time": 147.84375,
          "velocity": 0.3937007874015748
        },
        {
          "duration": 0.09375,
          "durationTicks": 96,
          "midi": 46,
          "name": "A#2",
          "ticks": 151392,
          "time": 147.84375,
          "velocity": 0.3937007874015748
        },
        {
          "duration": 0.09375,
          "durationTicks": 96,
          "midi": 39,
          "name": "D#2",
          "ticks": 151488,
          "time": 147.9375,
          "velocity": 0.3937007874015748
        },
        {
          "duration": 0.09375,
          "durationTicks": 96,
          "midi": 51,
          "name": "D#3",
          "ticks": 151488,
          "time": 147.9375,
          "velocity": 0.3937007874015748
        },
        {
          "duration": 0.09375,
          "durationTicks": 96,
          "midi": 46,
          "name": "A#2",
          "ticks": 151488,
          "time": 147.9375,
          "velocity": 0.3937007874015748
        },
        {
          "duration": 0.09375,
          "durationTicks": 96,
          "midi": 51,
          "name": "D#3",
          "ticks": 151584,
          "time": 148.03125,
          "velocity": 0.3937007874015748
        },
        {
          "duration": 0.09375,
          "durationTicks": 96,
          "midi": 46,
          "name": "A#2",
          "ticks": 151584,
          "time": 148.03125,
          "velocity": 0.3937007874015748
        },
        {
          "duration": 0.09375,
          "durationTicks": 96,
          "midi": 39,
          "name": "D#2",
          "ticks": 151584,
          "time": 148.03125,
          "velocity": 0.3937007874015748
        },
        {
          "duration": 0.09375,
          "durationTicks": 96,
          "midi": 51,
          "name": "D#3",
          "ticks": 151680,
          "time": 148.125,
          "velocity": 0.3937007874015748
        },
        {
          "duration": 0.09375,
          "durationTicks": 96,
          "midi": 46,
          "name": "A#2",
          "ticks": 151680,
          "time": 148.125,
          "velocity": 0.3937007874015748
        },
        {
          "duration": 0.09375,
          "durationTicks": 96,
          "midi": 39,
          "name": "D#2",
          "ticks": 151680,
          "time": 148.125,
          "velocity": 0.3937007874015748
        },
        {
          "duration": 0.09375,
          "durationTicks": 96,
          "midi": 47,
          "name": "B2",
          "ticks": 152064,
          "time": 148.5,
          "velocity": 0.3937007874015748
        },
        {
          "duration": 0.09375,
          "durationTicks": 96,
          "midi": 59,
          "name": "B3",
          "ticks": 152064,
          "time": 148.5,
          "velocity": 0.3937007874015748
        },
        {
          "duration": 0.09375,
          "durationTicks": 96,
          "midi": 47,
          "name": "B2",
          "ticks": 152256,
          "time": 148.6875,
          "velocity": 0.3937007874015748
        },
        {
          "duration": 0.09375,
          "durationTicks": 96,
          "midi": 59,
          "name": "B3",
          "ticks": 152256,
          "time": 148.6875,
          "velocity": 0.3937007874015748
        },
        {
          "duration": 0.09375,
          "durationTicks": 96,
          "midi": 60,
          "name": "C4",
          "ticks": 152640,
          "time": 149.0625,
          "velocity": 0.3937007874015748
        },
        {
          "duration": 0.09375,
          "durationTicks": 96,
          "midi": 48,
          "name": "C3",
          "ticks": 152640,
          "time": 149.0625,
          "velocity": 0.3937007874015748
        },
        {
          "duration": 0.09375,
          "durationTicks": 96,
          "midi": 60,
          "name": "C4",
          "ticks": 152832,
          "time": 149.25,
          "velocity": 0.3937007874015748
        },
        {
          "duration": 0.09375,
          "durationTicks": 96,
          "midi": 48,
          "name": "C3",
          "ticks": 152832,
          "time": 149.25,
          "velocity": 0.3937007874015748
        },
        {
          "duration": 0.09375,
          "durationTicks": 96,
          "midi": 59,
          "name": "B3",
          "ticks": 153216,
          "time": 149.625,
          "velocity": 0.3937007874015748
        },
        {
          "duration": 0.09375,
          "durationTicks": 96,
          "midi": 47,
          "name": "B2",
          "ticks": 153216,
          "time": 149.625,
          "velocity": 0.3937007874015748
        },
        {
          "duration": 0.09375,
          "durationTicks": 96,
          "midi": 47,
          "name": "B2",
          "ticks": 153408,
          "time": 149.8125,
          "velocity": 0.3937007874015748
        },
        {
          "duration": 0.09375,
          "durationTicks": 96,
          "midi": 59,
          "name": "B3",
          "ticks": 153408,
          "time": 149.8125,
          "velocity": 0.3937007874015748
        },
        {
          "duration": 0.09375,
          "durationTicks": 96,
          "midi": 54,
          "name": "F#3",
          "ticks": 153792,
          "time": 150.1875,
          "velocity": 0.3937007874015748
        },
        {
          "duration": 0.09375,
          "durationTicks": 96,
          "midi": 42,
          "name": "F#2",
          "ticks": 153792,
          "time": 150.1875,
          "velocity": 0.3937007874015748
        },
        {
          "duration": 0.09375,
          "durationTicks": 96,
          "midi": 42,
          "name": "F#2",
          "ticks": 153984,
          "time": 150.375,
          "velocity": 0.3937007874015748
        },
        {
          "duration": 0.09375,
          "durationTicks": 96,
          "midi": 54,
          "name": "F#3",
          "ticks": 153984,
          "time": 150.375,
          "velocity": 0.3937007874015748
        },
        {
          "duration": 0.09375,
          "durationTicks": 96,
          "midi": 47,
          "name": "B2",
          "ticks": 155136,
          "time": 151.5,
          "velocity": 0.3937007874015748
        },
        {
          "duration": 0.09375,
          "durationTicks": 96,
          "midi": 59,
          "name": "B3",
          "ticks": 155136,
          "time": 151.5,
          "velocity": 0.3937007874015748
        },
        {
          "duration": 0.09375,
          "durationTicks": 96,
          "midi": 47,
          "name": "B2",
          "ticks": 155328,
          "time": 151.6875,
          "velocity": 0.3937007874015748
        },
        {
          "duration": 0.09375,
          "durationTicks": 96,
          "midi": 59,
          "name": "B3",
          "ticks": 155328,
          "time": 151.6875,
          "velocity": 0.3937007874015748
        },
        {
          "duration": 0.09375,
          "durationTicks": 96,
          "midi": 48,
          "name": "C3",
          "ticks": 155712,
          "time": 152.0625,
          "velocity": 0.3937007874015748
        },
        {
          "duration": 0.09375,
          "durationTicks": 96,
          "midi": 60,
          "name": "C4",
          "ticks": 155712,
          "time": 152.0625,
          "velocity": 0.3937007874015748
        },
        {
          "duration": 0.09375,
          "durationTicks": 96,
          "midi": 60,
          "name": "C4",
          "ticks": 155904,
          "time": 152.25,
          "velocity": 0.3937007874015748
        },
        {
          "duration": 0.09375,
          "durationTicks": 96,
          "midi": 48,
          "name": "C3",
          "ticks": 155904,
          "time": 152.25,
          "velocity": 0.3937007874015748
        },
        {
          "duration": 0.09375,
          "durationTicks": 96,
          "midi": 47,
          "name": "B2",
          "ticks": 156288,
          "time": 152.625,
          "velocity": 0.3937007874015748
        },
        {
          "duration": 0.09375,
          "durationTicks": 96,
          "midi": 59,
          "name": "B3",
          "ticks": 156288,
          "time": 152.625,
          "velocity": 0.3937007874015748
        },
        {
          "duration": 0.09375,
          "durationTicks": 96,
          "midi": 47,
          "name": "B2",
          "ticks": 156480,
          "time": 152.8125,
          "velocity": 0.3937007874015748
        },
        {
          "duration": 0.09375,
          "durationTicks": 96,
          "midi": 59,
          "name": "B3",
          "ticks": 156480,
          "time": 152.8125,
          "velocity": 0.3937007874015748
        },
        {
          "duration": 0.09375,
          "durationTicks": 96,
          "midi": 47,
          "name": "B2",
          "ticks": 156864,
          "time": 153.1875,
          "velocity": 0.3937007874015748
        },
        {
          "duration": 0.09375,
          "durationTicks": 96,
          "midi": 59,
          "name": "B3",
          "ticks": 156864,
          "time": 153.1875,
          "velocity": 0.3937007874015748
        },
        {
          "duration": 0.09375,
          "durationTicks": 96,
          "midi": 47,
          "name": "B2",
          "ticks": 157056,
          "time": 153.375,
          "velocity": 0.3937007874015748
        },
        {
          "duration": 0.09375,
          "durationTicks": 96,
          "midi": 59,
          "name": "B3",
          "ticks": 157056,
          "time": 153.375,
          "velocity": 0.3937007874015748
        },
        {
          "duration": 0.09375,
          "durationTicks": 96,
          "midi": 47,
          "name": "B2",
          "ticks": 157056,
          "time": 153.375,
          "velocity": 0.3937007874015748
        },
        {
          "duration": 0.09375,
          "durationTicks": 96,
          "midi": 47,
          "name": "B2",
          "ticks": 157152,
          "time": 153.46875,
          "velocity": 0.3937007874015748
        },
        {
          "duration": 0.09375,
          "durationTicks": 96,
          "midi": 47,
          "name": "B2",
          "ticks": 157248,
          "time": 153.5625,
          "velocity": 0.3937007874015748
        },
        {
          "duration": 0.09375,
          "durationTicks": 96,
          "midi": 47,
          "name": "B2",
          "ticks": 157344,
          "time": 153.65625,
          "velocity": 0.3937007874015748
        },
        {
          "duration": 0.09375,
          "durationTicks": 96,
          "midi": 47,
          "name": "B2",
          "ticks": 157440,
          "time": 153.75,
          "velocity": 0.3937007874015748
        },
        {
          "duration": 0.09375,
          "durationTicks": 96,
          "midi": 47,
          "name": "B2",
          "ticks": 157536,
          "time": 153.84375,
          "velocity": 0.3937007874015748
        },
        {
          "duration": 0.09375,
          "durationTicks": 96,
          "midi": 47,
          "name": "B2",
          "ticks": 157632,
          "time": 153.9375,
          "velocity": 0.3937007874015748
        },
        {
          "duration": 0.09375,
          "durationTicks": 96,
          "midi": 47,
          "name": "B2",
          "ticks": 157728,
          "time": 154.03125,
          "velocity": 0.3937007874015748
        },
        {
          "duration": 0.09375,
          "durationTicks": 96,
          "midi": 47,
          "name": "B2",
          "ticks": 157824,
          "time": 154.125,
          "velocity": 0.3937007874015748
        },
        {
          "duration": 0.09375,
          "durationTicks": 96,
          "midi": 47,
          "name": "B2",
          "ticks": 157920,
          "time": 154.21875,
          "velocity": 0.3937007874015748
        },
        {
          "duration": 0.09375,
          "durationTicks": 96,
          "midi": 47,
          "name": "B2",
          "ticks": 158016,
          "time": 154.3125,
          "velocity": 0.3937007874015748
        },
        {
          "duration": 0.09375,
          "durationTicks": 96,
          "midi": 47,
          "name": "B2",
          "ticks": 158112,
          "time": 154.40625,
          "velocity": 0.3937007874015748
        },
        {
          "duration": 0.09375,
          "durationTicks": 96,
          "midi": 47,
          "name": "B2",
          "ticks": 158208,
          "time": 154.5,
          "velocity": 0.3937007874015748
        },
        {
          "duration": 0.09375,
          "durationTicks": 96,
          "midi": 47,
          "name": "B2",
          "ticks": 158304,
          "time": 154.59375,
          "velocity": 0.3937007874015748
        },
        {
          "duration": 0.09375,
          "durationTicks": 96,
          "midi": 47,
          "name": "B2",
          "ticks": 158400,
          "time": 154.6875,
          "velocity": 0.3937007874015748
        },
        {
          "duration": 0.09375,
          "durationTicks": 96,
          "midi": 47,
          "name": "B2",
          "ticks": 158496,
          "time": 154.78125,
          "velocity": 0.3937007874015748
        },
        {
          "duration": 0.09375,
          "durationTicks": 96,
          "midi": 47,
          "name": "B2",
          "ticks": 158592,
          "time": 154.875,
          "velocity": 0.3937007874015748
        },
        {
          "duration": 0.09375,
          "durationTicks": 96,
          "midi": 47,
          "name": "B2",
          "ticks": 158688,
          "time": 154.96875,
          "velocity": 0.3937007874015748
        },
        {
          "duration": 0.09375,
          "durationTicks": 96,
          "midi": 47,
          "name": "B2",
          "ticks": 158784,
          "time": 155.0625,
          "velocity": 0.3937007874015748
        },
        {
          "duration": 0.09375,
          "durationTicks": 96,
          "midi": 47,
          "name": "B2",
          "ticks": 158880,
          "time": 155.15625,
          "velocity": 0.3937007874015748
        },
        {
          "duration": 0.09375,
          "durationTicks": 96,
          "midi": 59,
          "name": "B3",
          "ticks": 159744,
          "time": 156,
          "velocity": 0.3937007874015748
        },
        {
          "duration": 0.09375,
          "durationTicks": 96,
          "midi": 55,
          "name": "G3",
          "ticks": 159744,
          "time": 156,
          "velocity": 0.3937007874015748
        },
        {
          "duration": 0.09375,
          "durationTicks": 96,
          "midi": 64,
          "name": "E4",
          "ticks": 159744,
          "time": 156,
          "velocity": 0.3937007874015748
        },
        {
          "duration": 0.09375,
          "durationTicks": 96,
          "midi": 64,
          "name": "E4",
          "ticks": 159840,
          "time": 156.09375,
          "velocity": 0.3937007874015748
        },
        {
          "duration": 0.09375,
          "durationTicks": 96,
          "midi": 59,
          "name": "B3",
          "ticks": 159840,
          "time": 156.09375,
          "velocity": 0.3937007874015748
        },
        {
          "duration": 0.09375,
          "durationTicks": 96,
          "midi": 55,
          "name": "G3",
          "ticks": 159840,
          "time": 156.09375,
          "velocity": 0.3937007874015748
        },
        {
          "duration": 0.09375,
          "durationTicks": 96,
          "midi": 55,
          "name": "G3",
          "ticks": 159936,
          "time": 156.1875,
          "velocity": 0.3937007874015748
        },
        {
          "duration": 0.09375,
          "durationTicks": 96,
          "midi": 64,
          "name": "E4",
          "ticks": 159936,
          "time": 156.1875,
          "velocity": 0.3937007874015748
        },
        {
          "duration": 0.09375,
          "durationTicks": 96,
          "midi": 59,
          "name": "B3",
          "ticks": 159936,
          "time": 156.1875,
          "velocity": 0.3937007874015748
        },
        {
          "duration": 0.09375,
          "durationTicks": 96,
          "midi": 55,
          "name": "G3",
          "ticks": 160032,
          "time": 156.28125,
          "velocity": 0.3937007874015748
        },
        {
          "duration": 0.09375,
          "durationTicks": 96,
          "midi": 64,
          "name": "E4",
          "ticks": 160032,
          "time": 156.28125,
          "velocity": 0.3937007874015748
        },
        {
          "duration": 0.09375,
          "durationTicks": 96,
          "midi": 59,
          "name": "B3",
          "ticks": 160032,
          "time": 156.28125,
          "velocity": 0.3937007874015748
        },
        {
          "duration": 0.09375,
          "durationTicks": 96,
          "midi": 64,
          "name": "E4",
          "ticks": 160128,
          "time": 156.375,
          "velocity": 0.3937007874015748
        },
        {
          "duration": 0.09375,
          "durationTicks": 96,
          "midi": 55,
          "name": "G3",
          "ticks": 160128,
          "time": 156.375,
          "velocity": 0.3937007874015748
        },
        {
          "duration": 0.09375,
          "durationTicks": 96,
          "midi": 59,
          "name": "B3",
          "ticks": 160128,
          "time": 156.375,
          "velocity": 0.3937007874015748
        },
        {
          "duration": 0.09375,
          "durationTicks": 96,
          "midi": 59,
          "name": "B3",
          "ticks": 160224,
          "time": 156.46875,
          "velocity": 0.3937007874015748
        },
        {
          "duration": 0.09375,
          "durationTicks": 96,
          "midi": 55,
          "name": "G3",
          "ticks": 160224,
          "time": 156.46875,
          "velocity": 0.3937007874015748
        },
        {
          "duration": 0.09375,
          "durationTicks": 96,
          "midi": 64,
          "name": "E4",
          "ticks": 160224,
          "time": 156.46875,
          "velocity": 0.3937007874015748
        },
        {
          "duration": 0.09375,
          "durationTicks": 96,
          "midi": 55,
          "name": "G3",
          "ticks": 160320,
          "time": 156.5625,
          "velocity": 0.3937007874015748
        },
        {
          "duration": 0.09375,
          "durationTicks": 96,
          "midi": 59,
          "name": "B3",
          "ticks": 160320,
          "time": 156.5625,
          "velocity": 0.3937007874015748
        },
        {
          "duration": 0.09375,
          "durationTicks": 96,
          "midi": 64,
          "name": "E4",
          "ticks": 160320,
          "time": 156.5625,
          "velocity": 0.3937007874015748
        },
        {
          "duration": 0.09375,
          "durationTicks": 96,
          "midi": 64,
          "name": "E4",
          "ticks": 160416,
          "time": 156.65625,
          "velocity": 0.3937007874015748
        },
        {
          "duration": 0.09375,
          "durationTicks": 96,
          "midi": 55,
          "name": "G3",
          "ticks": 160416,
          "time": 156.65625,
          "velocity": 0.3937007874015748
        },
        {
          "duration": 0.09375,
          "durationTicks": 96,
          "midi": 59,
          "name": "B3",
          "ticks": 160416,
          "time": 156.65625,
          "velocity": 0.3937007874015748
        },
        {
          "duration": 0.09375,
          "durationTicks": 96,
          "midi": 55,
          "name": "G3",
          "ticks": 160512,
          "time": 156.75,
          "velocity": 0.3937007874015748
        },
        {
          "duration": 0.09375,
          "durationTicks": 96,
          "midi": 64,
          "name": "E4",
          "ticks": 160512,
          "time": 156.75,
          "velocity": 0.3937007874015748
        },
        {
          "duration": 0.09375,
          "durationTicks": 96,
          "midi": 59,
          "name": "B3",
          "ticks": 160512,
          "time": 156.75,
          "velocity": 0.3937007874015748
        },
        {
          "duration": 0.09375,
          "durationTicks": 96,
          "midi": 59,
          "name": "B3",
          "ticks": 160608,
          "time": 156.84375,
          "velocity": 0.3937007874015748
        },
        {
          "duration": 0.09375,
          "durationTicks": 96,
          "midi": 55,
          "name": "G3",
          "ticks": 160608,
          "time": 156.84375,
          "velocity": 0.3937007874015748
        },
        {
          "duration": 0.09375,
          "durationTicks": 96,
          "midi": 64,
          "name": "E4",
          "ticks": 160608,
          "time": 156.84375,
          "velocity": 0.3937007874015748
        },
        {
          "duration": 0.09375,
          "durationTicks": 96,
          "midi": 59,
          "name": "B3",
          "ticks": 160704,
          "time": 156.9375,
          "velocity": 0.3937007874015748
        },
        {
          "duration": 0.09375,
          "durationTicks": 96,
          "midi": 64,
          "name": "E4",
          "ticks": 160704,
          "time": 156.9375,
          "velocity": 0.3937007874015748
        },
        {
          "duration": 0.09375,
          "durationTicks": 96,
          "midi": 55,
          "name": "G3",
          "ticks": 160704,
          "time": 156.9375,
          "velocity": 0.3937007874015748
        },
        {
          "duration": 0.09375,
          "durationTicks": 96,
          "midi": 55,
          "name": "G3",
          "ticks": 160800,
          "time": 157.03125,
          "velocity": 0.3937007874015748
        },
        {
          "duration": 0.09375,
          "durationTicks": 96,
          "midi": 64,
          "name": "E4",
          "ticks": 160800,
          "time": 157.03125,
          "velocity": 0.3937007874015748
        },
        {
          "duration": 0.09375,
          "durationTicks": 96,
          "midi": 59,
          "name": "B3",
          "ticks": 160800,
          "time": 157.03125,
          "velocity": 0.3937007874015748
        },
        {
          "duration": 0.09375,
          "durationTicks": 96,
          "midi": 64,
          "name": "E4",
          "ticks": 160896,
          "time": 157.125,
          "velocity": 0.3937007874015748
        },
        {
          "duration": 0.09375,
          "durationTicks": 96,
          "midi": 59,
          "name": "B3",
          "ticks": 160896,
          "time": 157.125,
          "velocity": 0.3937007874015748
        },
        {
          "duration": 0.09375,
          "durationTicks": 96,
          "midi": 55,
          "name": "G3",
          "ticks": 160896,
          "time": 157.125,
          "velocity": 0.3937007874015748
        },
        {
          "duration": 0.09375,
          "durationTicks": 96,
          "midi": 59,
          "name": "B3",
          "ticks": 160992,
          "time": 157.21875,
          "velocity": 0.3937007874015748
        },
        {
          "duration": 0.09375,
          "durationTicks": 96,
          "midi": 55,
          "name": "G3",
          "ticks": 160992,
          "time": 157.21875,
          "velocity": 0.3937007874015748
        },
        {
          "duration": 0.09375,
          "durationTicks": 96,
          "midi": 64,
          "name": "E4",
          "ticks": 160992,
          "time": 157.21875,
          "velocity": 0.3937007874015748
        },
        {
          "duration": 0.09375,
          "durationTicks": 96,
          "midi": 59,
          "name": "B3",
          "ticks": 161088,
          "time": 157.3125,
          "velocity": 0.3937007874015748
        },
        {
          "duration": 0.09375,
          "durationTicks": 96,
          "midi": 64,
          "name": "E4",
          "ticks": 161088,
          "time": 157.3125,
          "velocity": 0.3937007874015748
        },
        {
          "duration": 0.09375,
          "durationTicks": 96,
          "midi": 55,
          "name": "G3",
          "ticks": 161088,
          "time": 157.3125,
          "velocity": 0.3937007874015748
        },
        {
          "duration": 0.09375,
          "durationTicks": 96,
          "midi": 64,
          "name": "E4",
          "ticks": 161184,
          "time": 157.40625,
          "velocity": 0.3937007874015748
        },
        {
          "duration": 0.09375,
          "durationTicks": 96,
          "midi": 59,
          "name": "B3",
          "ticks": 161184,
          "time": 157.40625,
          "velocity": 0.3937007874015748
        },
        {
          "duration": 0.09375,
          "durationTicks": 96,
          "midi": 55,
          "name": "G3",
          "ticks": 161184,
          "time": 157.40625,
          "velocity": 0.3937007874015748
        },
        {
          "duration": 0.09375,
          "durationTicks": 96,
          "midi": 59,
          "name": "B3",
          "ticks": 161280,
          "time": 157.5,
          "velocity": 0.3937007874015748
        },
        {
          "duration": 0.09375,
          "durationTicks": 96,
          "midi": 63,
          "name": "D#4",
          "ticks": 161280,
          "time": 157.5,
          "velocity": 0.3937007874015748
        },
        {
          "duration": 0.09375,
          "durationTicks": 96,
          "midi": 54,
          "name": "F#3",
          "ticks": 161280,
          "time": 157.5,
          "velocity": 0.3937007874015748
        },
        {
          "duration": 0.09375,
          "durationTicks": 96,
          "midi": 54,
          "name": "F#3",
          "ticks": 161376,
          "time": 157.59375,
          "velocity": 0.3937007874015748
        },
        {
          "duration": 0.09375,
          "durationTicks": 96,
          "midi": 63,
          "name": "D#4",
          "ticks": 161376,
          "time": 157.59375,
          "velocity": 0.3937007874015748
        },
        {
          "duration": 0.09375,
          "durationTicks": 96,
          "midi": 59,
          "name": "B3",
          "ticks": 161376,
          "time": 157.59375,
          "velocity": 0.3937007874015748
        },
        {
          "duration": 0.09375,
          "durationTicks": 96,
          "midi": 63,
          "name": "D#4",
          "ticks": 161472,
          "time": 157.6875,
          "velocity": 0.3937007874015748
        },
        {
          "duration": 0.09375,
          "durationTicks": 96,
          "midi": 59,
          "name": "B3",
          "ticks": 161472,
          "time": 157.6875,
          "velocity": 0.3937007874015748
        },
        {
          "duration": 0.09375,
          "durationTicks": 96,
          "midi": 54,
          "name": "F#3",
          "ticks": 161472,
          "time": 157.6875,
          "velocity": 0.3937007874015748
        },
        {
          "duration": 0.09375,
          "durationTicks": 96,
          "midi": 54,
          "name": "F#3",
          "ticks": 161568,
          "time": 157.78125,
          "velocity": 0.3937007874015748
        },
        {
          "duration": 0.09375,
          "durationTicks": 96,
          "midi": 59,
          "name": "B3",
          "ticks": 161568,
          "time": 157.78125,
          "velocity": 0.3937007874015748
        },
        {
          "duration": 0.09375,
          "durationTicks": 96,
          "midi": 63,
          "name": "D#4",
          "ticks": 161568,
          "time": 157.78125,
          "velocity": 0.3937007874015748
        },
        {
          "duration": 0.09375,
          "durationTicks": 96,
          "midi": 54,
          "name": "F#3",
          "ticks": 161664,
          "time": 157.875,
          "velocity": 0.3937007874015748
        },
        {
          "duration": 0.09375,
          "durationTicks": 96,
          "midi": 63,
          "name": "D#4",
          "ticks": 161664,
          "time": 157.875,
          "velocity": 0.3937007874015748
        },
        {
          "duration": 0.09375,
          "durationTicks": 96,
          "midi": 59,
          "name": "B3",
          "ticks": 161664,
          "time": 157.875,
          "velocity": 0.3937007874015748
        },
        {
          "duration": 0.09375,
          "durationTicks": 96,
          "midi": 59,
          "name": "B3",
          "ticks": 161760,
          "time": 157.96875,
          "velocity": 0.3937007874015748
        },
        {
          "duration": 0.09375,
          "durationTicks": 96,
          "midi": 54,
          "name": "F#3",
          "ticks": 161760,
          "time": 157.96875,
          "velocity": 0.3937007874015748
        },
        {
          "duration": 0.09375,
          "durationTicks": 96,
          "midi": 63,
          "name": "D#4",
          "ticks": 161760,
          "time": 157.96875,
          "velocity": 0.3937007874015748
        },
        {
          "duration": 0.09375,
          "durationTicks": 96,
          "midi": 54,
          "name": "F#3",
          "ticks": 161856,
          "time": 158.0625,
          "velocity": 0.3937007874015748
        },
        {
          "duration": 0.09375,
          "durationTicks": 96,
          "midi": 59,
          "name": "B3",
          "ticks": 161856,
          "time": 158.0625,
          "velocity": 0.3937007874015748
        },
        {
          "duration": 0.09375,
          "durationTicks": 96,
          "midi": 63,
          "name": "D#4",
          "ticks": 161856,
          "time": 158.0625,
          "velocity": 0.3937007874015748
        },
        {
          "duration": 0.09375,
          "durationTicks": 96,
          "midi": 54,
          "name": "F#3",
          "ticks": 161952,
          "time": 158.15625,
          "velocity": 0.3937007874015748
        },
        {
          "duration": 0.09375,
          "durationTicks": 96,
          "midi": 59,
          "name": "B3",
          "ticks": 161952,
          "time": 158.15625,
          "velocity": 0.3937007874015748
        },
        {
          "duration": 0.09375,
          "durationTicks": 96,
          "midi": 63,
          "name": "D#4",
          "ticks": 161952,
          "time": 158.15625,
          "velocity": 0.3937007874015748
        },
        {
          "duration": 0.09375,
          "durationTicks": 96,
          "midi": 54,
          "name": "F#3",
          "ticks": 162048,
          "time": 158.25,
          "velocity": 0.3937007874015748
        },
        {
          "duration": 0.09375,
          "durationTicks": 96,
          "midi": 63,
          "name": "D#4",
          "ticks": 162048,
          "time": 158.25,
          "velocity": 0.3937007874015748
        },
        {
          "duration": 0.09375,
          "durationTicks": 96,
          "midi": 59,
          "name": "B3",
          "ticks": 162048,
          "time": 158.25,
          "velocity": 0.3937007874015748
        },
        {
          "duration": 0.09375,
          "durationTicks": 96,
          "midi": 59,
          "name": "B3",
          "ticks": 162144,
          "time": 158.34375,
          "velocity": 0.3937007874015748
        },
        {
          "duration": 0.09375,
          "durationTicks": 96,
          "midi": 54,
          "name": "F#3",
          "ticks": 162144,
          "time": 158.34375,
          "velocity": 0.3937007874015748
        },
        {
          "duration": 0.09375,
          "durationTicks": 96,
          "midi": 63,
          "name": "D#4",
          "ticks": 162144,
          "time": 158.34375,
          "velocity": 0.3937007874015748
        },
        {
          "duration": 0.09375,
          "durationTicks": 96,
          "midi": 54,
          "name": "F#3",
          "ticks": 162240,
          "time": 158.4375,
          "velocity": 0.3937007874015748
        },
        {
          "duration": 0.09375,
          "durationTicks": 96,
          "midi": 63,
          "name": "D#4",
          "ticks": 162240,
          "time": 158.4375,
          "velocity": 0.3937007874015748
        },
        {
          "duration": 0.09375,
          "durationTicks": 96,
          "midi": 59,
          "name": "B3",
          "ticks": 162240,
          "time": 158.4375,
          "velocity": 0.3937007874015748
        },
        {
          "duration": 0.09375,
          "durationTicks": 96,
          "midi": 63,
          "name": "D#4",
          "ticks": 162336,
          "time": 158.53125,
          "velocity": 0.3937007874015748
        },
        {
          "duration": 0.09375,
          "durationTicks": 96,
          "midi": 59,
          "name": "B3",
          "ticks": 162336,
          "time": 158.53125,
          "velocity": 0.3937007874015748
        },
        {
          "duration": 0.09375,
          "durationTicks": 96,
          "midi": 54,
          "name": "F#3",
          "ticks": 162336,
          "time": 158.53125,
          "velocity": 0.3937007874015748
        },
        {
          "duration": 0.09375,
          "durationTicks": 96,
          "midi": 63,
          "name": "D#4",
          "ticks": 162432,
          "time": 158.625,
          "velocity": 0.3937007874015748
        },
        {
          "duration": 0.09375,
          "durationTicks": 96,
          "midi": 59,
          "name": "B3",
          "ticks": 162432,
          "time": 158.625,
          "velocity": 0.3937007874015748
        },
        {
          "duration": 0.09375,
          "durationTicks": 96,
          "midi": 54,
          "name": "F#3",
          "ticks": 162432,
          "time": 158.625,
          "velocity": 0.3937007874015748
        },
        {
          "duration": 0.09375,
          "durationTicks": 96,
          "midi": 59,
          "name": "B3",
          "ticks": 162528,
          "time": 158.71875,
          "velocity": 0.3937007874015748
        },
        {
          "duration": 0.09375,
          "durationTicks": 96,
          "midi": 54,
          "name": "F#3",
          "ticks": 162528,
          "time": 158.71875,
          "velocity": 0.3937007874015748
        },
        {
          "duration": 0.09375,
          "durationTicks": 96,
          "midi": 63,
          "name": "D#4",
          "ticks": 162528,
          "time": 158.71875,
          "velocity": 0.3937007874015748
        },
        {
          "duration": 0.09375,
          "durationTicks": 96,
          "midi": 54,
          "name": "F#3",
          "ticks": 162624,
          "time": 158.8125,
          "velocity": 0.3937007874015748
        },
        {
          "duration": 0.09375,
          "durationTicks": 96,
          "midi": 59,
          "name": "B3",
          "ticks": 162624,
          "time": 158.8125,
          "velocity": 0.3937007874015748
        },
        {
          "duration": 0.09375,
          "durationTicks": 96,
          "midi": 63,
          "name": "D#4",
          "ticks": 162624,
          "time": 158.8125,
          "velocity": 0.3937007874015748
        },
        {
          "duration": 0.09375,
          "durationTicks": 96,
          "midi": 59,
          "name": "B3",
          "ticks": 162720,
          "time": 158.90625,
          "velocity": 0.3937007874015748
        },
        {
          "duration": 0.09375,
          "durationTicks": 96,
          "midi": 63,
          "name": "D#4",
          "ticks": 162720,
          "time": 158.90625,
          "velocity": 0.3937007874015748
        },
        {
          "duration": 0.09375,
          "durationTicks": 96,
          "midi": 54,
          "name": "F#3",
          "ticks": 162720,
          "time": 158.90625,
          "velocity": 0.3937007874015748
        },
        {
          "duration": 0.09375,
          "durationTicks": 96,
          "midi": 62,
          "name": "D4",
          "ticks": 162816,
          "time": 159,
          "velocity": 0.3937007874015748
        },
        {
          "duration": 0.09375,
          "durationTicks": 96,
          "midi": 54,
          "name": "F#3",
          "ticks": 162816,
          "time": 159,
          "velocity": 0.3937007874015748
        },
        {
          "duration": 0.09375,
          "durationTicks": 96,
          "midi": 59,
          "name": "B3",
          "ticks": 162816,
          "time": 159,
          "velocity": 0.3937007874015748
        },
        {
          "duration": 0.09375,
          "durationTicks": 96,
          "midi": 54,
          "name": "F#3",
          "ticks": 162912,
          "time": 159.09375,
          "velocity": 0.3937007874015748
        },
        {
          "duration": 0.09375,
          "durationTicks": 96,
          "midi": 59,
          "name": "B3",
          "ticks": 162912,
          "time": 159.09375,
          "velocity": 0.3937007874015748
        },
        {
          "duration": 0.09375,
          "durationTicks": 96,
          "midi": 62,
          "name": "D4",
          "ticks": 162912,
          "time": 159.09375,
          "velocity": 0.3937007874015748
        },
        {
          "duration": 0.09375,
          "durationTicks": 96,
          "midi": 59,
          "name": "B3",
          "ticks": 163008,
          "time": 159.1875,
          "velocity": 0.3937007874015748
        },
        {
          "duration": 0.09375,
          "durationTicks": 96,
          "midi": 54,
          "name": "F#3",
          "ticks": 163008,
          "time": 159.1875,
          "velocity": 0.3937007874015748
        },
        {
          "duration": 0.09375,
          "durationTicks": 96,
          "midi": 62,
          "name": "D4",
          "ticks": 163008,
          "time": 159.1875,
          "velocity": 0.3937007874015748
        },
        {
          "duration": 0.09375,
          "durationTicks": 96,
          "midi": 59,
          "name": "B3",
          "ticks": 163104,
          "time": 159.28125,
          "velocity": 0.3937007874015748
        },
        {
          "duration": 0.09375,
          "durationTicks": 96,
          "midi": 54,
          "name": "F#3",
          "ticks": 163104,
          "time": 159.28125,
          "velocity": 0.3937007874015748
        },
        {
          "duration": 0.09375,
          "durationTicks": 96,
          "midi": 62,
          "name": "D4",
          "ticks": 163104,
          "time": 159.28125,
          "velocity": 0.3937007874015748
        },
        {
          "duration": 0.09375,
          "durationTicks": 96,
          "midi": 54,
          "name": "F#3",
          "ticks": 163200,
          "time": 159.375,
          "velocity": 0.3937007874015748
        },
        {
          "duration": 0.09375,
          "durationTicks": 96,
          "midi": 59,
          "name": "B3",
          "ticks": 163200,
          "time": 159.375,
          "velocity": 0.3937007874015748
        },
        {
          "duration": 0.09375,
          "durationTicks": 96,
          "midi": 62,
          "name": "D4",
          "ticks": 163200,
          "time": 159.375,
          "velocity": 0.3937007874015748
        },
        {
          "duration": 0.09375,
          "durationTicks": 96,
          "midi": 62,
          "name": "D4",
          "ticks": 163296,
          "time": 159.46875,
          "velocity": 0.3937007874015748
        },
        {
          "duration": 0.09375,
          "durationTicks": 96,
          "midi": 54,
          "name": "F#3",
          "ticks": 163296,
          "time": 159.46875,
          "velocity": 0.3937007874015748
        },
        {
          "duration": 0.09375,
          "durationTicks": 96,
          "midi": 59,
          "name": "B3",
          "ticks": 163296,
          "time": 159.46875,
          "velocity": 0.3937007874015748
        },
        {
          "duration": 0.09375,
          "durationTicks": 96,
          "midi": 54,
          "name": "F#3",
          "ticks": 163392,
          "time": 159.5625,
          "velocity": 0.3937007874015748
        },
        {
          "duration": 0.09375,
          "durationTicks": 96,
          "midi": 62,
          "name": "D4",
          "ticks": 163392,
          "time": 159.5625,
          "velocity": 0.3937007874015748
        },
        {
          "duration": 0.09375,
          "durationTicks": 96,
          "midi": 59,
          "name": "B3",
          "ticks": 163392,
          "time": 159.5625,
          "velocity": 0.3937007874015748
        },
        {
          "duration": 0.09375,
          "durationTicks": 96,
          "midi": 54,
          "name": "F#3",
          "ticks": 163488,
          "time": 159.65625,
          "velocity": 0.3937007874015748
        },
        {
          "duration": 0.09375,
          "durationTicks": 96,
          "midi": 59,
          "name": "B3",
          "ticks": 163488,
          "time": 159.65625,
          "velocity": 0.3937007874015748
        },
        {
          "duration": 0.09375,
          "durationTicks": 96,
          "midi": 62,
          "name": "D4",
          "ticks": 163488,
          "time": 159.65625,
          "velocity": 0.3937007874015748
        },
        {
          "duration": 0.09375,
          "durationTicks": 96,
          "midi": 62,
          "name": "D4",
          "ticks": 163584,
          "time": 159.75,
          "velocity": 0.3937007874015748
        },
        {
          "duration": 0.09375,
          "durationTicks": 96,
          "midi": 59,
          "name": "B3",
          "ticks": 163584,
          "time": 159.75,
          "velocity": 0.3937007874015748
        },
        {
          "duration": 0.09375,
          "durationTicks": 96,
          "midi": 54,
          "name": "F#3",
          "ticks": 163584,
          "time": 159.75,
          "velocity": 0.3937007874015748
        },
        {
          "duration": 0.09375,
          "durationTicks": 96,
          "midi": 59,
          "name": "B3",
          "ticks": 163680,
          "time": 159.84375,
          "velocity": 0.3937007874015748
        },
        {
          "duration": 0.09375,
          "durationTicks": 96,
          "midi": 62,
          "name": "D4",
          "ticks": 163680,
          "time": 159.84375,
          "velocity": 0.3937007874015748
        },
        {
          "duration": 0.09375,
          "durationTicks": 96,
          "midi": 54,
          "name": "F#3",
          "ticks": 163680,
          "time": 159.84375,
          "velocity": 0.3937007874015748
        },
        {
          "duration": 0.09375,
          "durationTicks": 96,
          "midi": 59,
          "name": "B3",
          "ticks": 163776,
          "time": 159.9375,
          "velocity": 0.3937007874015748
        },
        {
          "duration": 0.09375,
          "durationTicks": 96,
          "midi": 62,
          "name": "D4",
          "ticks": 163776,
          "time": 159.9375,
          "velocity": 0.3937007874015748
        },
        {
          "duration": 0.09375,
          "durationTicks": 96,
          "midi": 54,
          "name": "F#3",
          "ticks": 163776,
          "time": 159.9375,
          "velocity": 0.3937007874015748
        },
        {
          "duration": 0.09375,
          "durationTicks": 96,
          "midi": 59,
          "name": "B3",
          "ticks": 163872,
          "time": 160.03125,
          "velocity": 0.3937007874015748
        },
        {
          "duration": 0.09375,
          "durationTicks": 96,
          "midi": 54,
          "name": "F#3",
          "ticks": 163872,
          "time": 160.03125,
          "velocity": 0.3937007874015748
        },
        {
          "duration": 0.09375,
          "durationTicks": 96,
          "midi": 62,
          "name": "D4",
          "ticks": 163872,
          "time": 160.03125,
          "velocity": 0.3937007874015748
        },
        {
          "duration": 0.09375,
          "durationTicks": 96,
          "midi": 62,
          "name": "D4",
          "ticks": 163968,
          "time": 160.125,
          "velocity": 0.3937007874015748
        },
        {
          "duration": 0.09375,
          "durationTicks": 96,
          "midi": 54,
          "name": "F#3",
          "ticks": 163968,
          "time": 160.125,
          "velocity": 0.3937007874015748
        },
        {
          "duration": 0.09375,
          "durationTicks": 96,
          "midi": 59,
          "name": "B3",
          "ticks": 163968,
          "time": 160.125,
          "velocity": 0.3937007874015748
        },
        {
          "duration": 0.09375,
          "durationTicks": 96,
          "midi": 54,
          "name": "F#3",
          "ticks": 164064,
          "time": 160.21875,
          "velocity": 0.3937007874015748
        },
        {
          "duration": 0.09375,
          "durationTicks": 96,
          "midi": 62,
          "name": "D4",
          "ticks": 164064,
          "time": 160.21875,
          "velocity": 0.3937007874015748
        },
        {
          "duration": 0.09375,
          "durationTicks": 96,
          "midi": 59,
          "name": "B3",
          "ticks": 164064,
          "time": 160.21875,
          "velocity": 0.3937007874015748
        },
        {
          "duration": 0.09375,
          "durationTicks": 96,
          "midi": 62,
          "name": "D4",
          "ticks": 164160,
          "time": 160.3125,
          "velocity": 0.3937007874015748
        },
        {
          "duration": 0.09375,
          "durationTicks": 96,
          "midi": 54,
          "name": "F#3",
          "ticks": 164160,
          "time": 160.3125,
          "velocity": 0.3937007874015748
        },
        {
          "duration": 0.09375,
          "durationTicks": 96,
          "midi": 59,
          "name": "B3",
          "ticks": 164160,
          "time": 160.3125,
          "velocity": 0.3937007874015748
        },
        {
          "duration": 0.09375,
          "durationTicks": 96,
          "midi": 62,
          "name": "D4",
          "ticks": 164256,
          "time": 160.40625,
          "velocity": 0.3937007874015748
        },
        {
          "duration": 0.09375,
          "durationTicks": 96,
          "midi": 59,
          "name": "B3",
          "ticks": 164256,
          "time": 160.40625,
          "velocity": 0.3937007874015748
        },
        {
          "duration": 0.09375,
          "durationTicks": 96,
          "midi": 54,
          "name": "F#3",
          "ticks": 164256,
          "time": 160.40625,
          "velocity": 0.3937007874015748
        },
        {
          "duration": 0.09375,
          "durationTicks": 96,
          "midi": 58,
          "name": "A#3",
          "ticks": 164352,
          "time": 160.5,
          "velocity": 0.3937007874015748
        },
        {
          "duration": 0.09375,
          "durationTicks": 96,
          "midi": 54,
          "name": "F#3",
          "ticks": 164352,
          "time": 160.5,
          "velocity": 0.3937007874015748
        },
        {
          "duration": 0.09375,
          "durationTicks": 96,
          "midi": 61,
          "name": "C#4",
          "ticks": 164352,
          "time": 160.5,
          "velocity": 0.3937007874015748
        },
        {
          "duration": 0.09375,
          "durationTicks": 96,
          "midi": 61,
          "name": "C#4",
          "ticks": 164448,
          "time": 160.59375,
          "velocity": 0.3937007874015748
        },
        {
          "duration": 0.09375,
          "durationTicks": 96,
          "midi": 54,
          "name": "F#3",
          "ticks": 164448,
          "time": 160.59375,
          "velocity": 0.3937007874015748
        },
        {
          "duration": 0.09375,
          "durationTicks": 96,
          "midi": 58,
          "name": "A#3",
          "ticks": 164448,
          "time": 160.59375,
          "velocity": 0.3937007874015748
        },
        {
          "duration": 0.09375,
          "durationTicks": 96,
          "midi": 61,
          "name": "C#4",
          "ticks": 164544,
          "time": 160.6875,
          "velocity": 0.3937007874015748
        },
        {
          "duration": 0.09375,
          "durationTicks": 96,
          "midi": 58,
          "name": "A#3",
          "ticks": 164544,
          "time": 160.6875,
          "velocity": 0.3937007874015748
        },
        {
          "duration": 0.09375,
          "durationTicks": 96,
          "midi": 54,
          "name": "F#3",
          "ticks": 164544,
          "time": 160.6875,
          "velocity": 0.3937007874015748
        },
        {
          "duration": 0.09375,
          "durationTicks": 96,
          "midi": 54,
          "name": "F#3",
          "ticks": 164640,
          "time": 160.78125,
          "velocity": 0.3937007874015748
        },
        {
          "duration": 0.09375,
          "durationTicks": 96,
          "midi": 61,
          "name": "C#4",
          "ticks": 164640,
          "time": 160.78125,
          "velocity": 0.3937007874015748
        },
        {
          "duration": 0.09375,
          "durationTicks": 96,
          "midi": 58,
          "name": "A#3",
          "ticks": 164640,
          "time": 160.78125,
          "velocity": 0.3937007874015748
        },
        {
          "duration": 0.09375,
          "durationTicks": 96,
          "midi": 61,
          "name": "C#4",
          "ticks": 164736,
          "time": 160.875,
          "velocity": 0.3937007874015748
        },
        {
          "duration": 0.09375,
          "durationTicks": 96,
          "midi": 58,
          "name": "A#3",
          "ticks": 164736,
          "time": 160.875,
          "velocity": 0.3937007874015748
        },
        {
          "duration": 0.09375,
          "durationTicks": 96,
          "midi": 54,
          "name": "F#3",
          "ticks": 164736,
          "time": 160.875,
          "velocity": 0.3937007874015748
        },
        {
          "duration": 0.09375,
          "durationTicks": 96,
          "midi": 61,
          "name": "C#4",
          "ticks": 164832,
          "time": 160.96875,
          "velocity": 0.3937007874015748
        },
        {
          "duration": 0.09375,
          "durationTicks": 96,
          "midi": 58,
          "name": "A#3",
          "ticks": 164832,
          "time": 160.96875,
          "velocity": 0.3937007874015748
        },
        {
          "duration": 0.09375,
          "durationTicks": 96,
          "midi": 54,
          "name": "F#3",
          "ticks": 164832,
          "time": 160.96875,
          "velocity": 0.3937007874015748
        },
        {
          "duration": 0.09375,
          "durationTicks": 96,
          "midi": 54,
          "name": "F#3",
          "ticks": 164928,
          "time": 161.0625,
          "velocity": 0.3937007874015748
        },
        {
          "duration": 0.09375,
          "durationTicks": 96,
          "midi": 58,
          "name": "A#3",
          "ticks": 164928,
          "time": 161.0625,
          "velocity": 0.3937007874015748
        },
        {
          "duration": 0.09375,
          "durationTicks": 96,
          "midi": 61,
          "name": "C#4",
          "ticks": 164928,
          "time": 161.0625,
          "velocity": 0.3937007874015748
        },
        {
          "duration": 0.09375,
          "durationTicks": 96,
          "midi": 54,
          "name": "F#3",
          "ticks": 165024,
          "time": 161.15625,
          "velocity": 0.3937007874015748
        },
        {
          "duration": 0.09375,
          "durationTicks": 96,
          "midi": 58,
          "name": "A#3",
          "ticks": 165024,
          "time": 161.15625,
          "velocity": 0.3937007874015748
        },
        {
          "duration": 0.09375,
          "durationTicks": 96,
          "midi": 61,
          "name": "C#4",
          "ticks": 165024,
          "time": 161.15625,
          "velocity": 0.3937007874015748
        },
        {
          "duration": 0.09375,
          "durationTicks": 96,
          "midi": 61,
          "name": "C#4",
          "ticks": 165120,
          "time": 161.25,
          "velocity": 0.3937007874015748
        },
        {
          "duration": 0.09375,
          "durationTicks": 96,
          "midi": 54,
          "name": "F#3",
          "ticks": 165120,
          "time": 161.25,
          "velocity": 0.3937007874015748
        },
        {
          "duration": 0.09375,
          "durationTicks": 96,
          "midi": 58,
          "name": "A#3",
          "ticks": 165120,
          "time": 161.25,
          "velocity": 0.3937007874015748
        },
        {
          "duration": 0.09375,
          "durationTicks": 96,
          "midi": 61,
          "name": "C#4",
          "ticks": 165216,
          "time": 161.34375,
          "velocity": 0.3937007874015748
        },
        {
          "duration": 0.09375,
          "durationTicks": 96,
          "midi": 58,
          "name": "A#3",
          "ticks": 165216,
          "time": 161.34375,
          "velocity": 0.3937007874015748
        },
        {
          "duration": 0.09375,
          "durationTicks": 96,
          "midi": 54,
          "name": "F#3",
          "ticks": 165216,
          "time": 161.34375,
          "velocity": 0.3937007874015748
        },
        {
          "duration": 0.09375,
          "durationTicks": 96,
          "midi": 58,
          "name": "A#3",
          "ticks": 165312,
          "time": 161.4375,
          "velocity": 0.3937007874015748
        },
        {
          "duration": 0.09375,
          "durationTicks": 96,
          "midi": 54,
          "name": "F#3",
          "ticks": 165312,
          "time": 161.4375,
          "velocity": 0.3937007874015748
        },
        {
          "duration": 0.09375,
          "durationTicks": 96,
          "midi": 61,
          "name": "C#4",
          "ticks": 165312,
          "time": 161.4375,
          "velocity": 0.3937007874015748
        },
        {
          "duration": 0.09375,
          "durationTicks": 96,
          "midi": 58,
          "name": "A#3",
          "ticks": 165408,
          "time": 161.53125,
          "velocity": 0.3937007874015748
        },
        {
          "duration": 0.09375,
          "durationTicks": 96,
          "midi": 61,
          "name": "C#4",
          "ticks": 165408,
          "time": 161.53125,
          "velocity": 0.3937007874015748
        },
        {
          "duration": 0.09375,
          "durationTicks": 96,
          "midi": 54,
          "name": "F#3",
          "ticks": 165408,
          "time": 161.53125,
          "velocity": 0.3937007874015748
        },
        {
          "duration": 0.09375,
          "durationTicks": 96,
          "midi": 61,
          "name": "C#4",
          "ticks": 165504,
          "time": 161.625,
          "velocity": 0.3937007874015748
        },
        {
          "duration": 0.09375,
          "durationTicks": 96,
          "midi": 54,
          "name": "F#3",
          "ticks": 165504,
          "time": 161.625,
          "velocity": 0.3937007874015748
        },
        {
          "duration": 0.09375,
          "durationTicks": 96,
          "midi": 58,
          "name": "A#3",
          "ticks": 165504,
          "time": 161.625,
          "velocity": 0.3937007874015748
        },
        {
          "duration": 0.09375,
          "durationTicks": 96,
          "midi": 61,
          "name": "C#4",
          "ticks": 165600,
          "time": 161.71875,
          "velocity": 0.3937007874015748
        },
        {
          "duration": 0.09375,
          "durationTicks": 96,
          "midi": 58,
          "name": "A#3",
          "ticks": 165600,
          "time": 161.71875,
          "velocity": 0.3937007874015748
        },
        {
          "duration": 0.09375,
          "durationTicks": 96,
          "midi": 54,
          "name": "F#3",
          "ticks": 165600,
          "time": 161.71875,
          "velocity": 0.3937007874015748
        },
        {
          "duration": 0.09375,
          "durationTicks": 96,
          "midi": 61,
          "name": "C#4",
          "ticks": 165696,
          "time": 161.8125,
          "velocity": 0.3937007874015748
        },
        {
          "duration": 0.09375,
          "durationTicks": 96,
          "midi": 54,
          "name": "F#3",
          "ticks": 165696,
          "time": 161.8125,
          "velocity": 0.3937007874015748
        },
        {
          "duration": 0.09375,
          "durationTicks": 96,
          "midi": 58,
          "name": "A#3",
          "ticks": 165696,
          "time": 161.8125,
          "velocity": 0.3937007874015748
        },
        {
          "duration": 0.09375,
          "durationTicks": 96,
          "midi": 54,
          "name": "F#3",
          "ticks": 165792,
          "time": 161.90625,
          "velocity": 0.3937007874015748
        },
        {
          "duration": 0.09375,
          "durationTicks": 96,
          "midi": 61,
          "name": "C#4",
          "ticks": 165792,
          "time": 161.90625,
          "velocity": 0.3937007874015748
        },
        {
          "duration": 0.09375,
          "durationTicks": 96,
          "midi": 58,
          "name": "A#3",
          "ticks": 165792,
          "time": 161.90625,
          "velocity": 0.3937007874015748
        },
        {
          "duration": 0.09375,
          "durationTicks": 96,
          "midi": 52,
          "name": "E3",
          "ticks": 165888,
          "time": 162,
          "velocity": 0.3937007874015748
        },
        {
          "duration": 0.09375,
          "durationTicks": 96,
          "midi": 60,
          "name": "C4",
          "ticks": 165888,
          "time": 162,
          "velocity": 0.3937007874015748
        },
        {
          "duration": 0.09375,
          "durationTicks": 96,
          "midi": 57,
          "name": "A3",
          "ticks": 165888,
          "time": 162,
          "velocity": 0.3937007874015748
        },
        {
          "duration": 0.09375,
          "durationTicks": 96,
          "midi": 57,
          "name": "A3",
          "ticks": 165984,
          "time": 162.09375,
          "velocity": 0.3937007874015748
        },
        {
          "duration": 0.09375,
          "durationTicks": 96,
          "midi": 52,
          "name": "E3",
          "ticks": 165984,
          "time": 162.09375,
          "velocity": 0.3937007874015748
        },
        {
          "duration": 0.09375,
          "durationTicks": 96,
          "midi": 60,
          "name": "C4",
          "ticks": 165984,
          "time": 162.09375,
          "velocity": 0.3937007874015748
        },
        {
          "duration": 0.09375,
          "durationTicks": 96,
          "midi": 57,
          "name": "A3",
          "ticks": 166080,
          "time": 162.1875,
          "velocity": 0.3937007874015748
        },
        {
          "duration": 0.09375,
          "durationTicks": 96,
          "midi": 52,
          "name": "E3",
          "ticks": 166080,
          "time": 162.1875,
          "velocity": 0.3937007874015748
        },
        {
          "duration": 0.09375,
          "durationTicks": 96,
          "midi": 60,
          "name": "C4",
          "ticks": 166080,
          "time": 162.1875,
          "velocity": 0.3937007874015748
        },
        {
          "duration": 0.09375,
          "durationTicks": 96,
          "midi": 60,
          "name": "C4",
          "ticks": 166176,
          "time": 162.28125,
          "velocity": 0.3937007874015748
        },
        {
          "duration": 0.09375,
          "durationTicks": 96,
          "midi": 52,
          "name": "E3",
          "ticks": 166176,
          "time": 162.28125,
          "velocity": 0.3937007874015748
        },
        {
          "duration": 0.09375,
          "durationTicks": 96,
          "midi": 57,
          "name": "A3",
          "ticks": 166176,
          "time": 162.28125,
          "velocity": 0.3937007874015748
        },
        {
          "duration": 0.09375,
          "durationTicks": 96,
          "midi": 57,
          "name": "A3",
          "ticks": 166272,
          "time": 162.375,
          "velocity": 0.3937007874015748
        },
        {
          "duration": 0.09375,
          "durationTicks": 96,
          "midi": 60,
          "name": "C4",
          "ticks": 166272,
          "time": 162.375,
          "velocity": 0.3937007874015748
        },
        {
          "duration": 0.09375,
          "durationTicks": 96,
          "midi": 52,
          "name": "E3",
          "ticks": 166272,
          "time": 162.375,
          "velocity": 0.3937007874015748
        },
        {
          "duration": 0.09375,
          "durationTicks": 96,
          "midi": 57,
          "name": "A3",
          "ticks": 166368,
          "time": 162.46875,
          "velocity": 0.3937007874015748
        },
        {
          "duration": 0.09375,
          "durationTicks": 96,
          "midi": 52,
          "name": "E3",
          "ticks": 166368,
          "time": 162.46875,
          "velocity": 0.3937007874015748
        },
        {
          "duration": 0.09375,
          "durationTicks": 96,
          "midi": 60,
          "name": "C4",
          "ticks": 166368,
          "time": 162.46875,
          "velocity": 0.3937007874015748
        },
        {
          "duration": 0.09375,
          "durationTicks": 96,
          "midi": 57,
          "name": "A3",
          "ticks": 166464,
          "time": 162.5625,
          "velocity": 0.3937007874015748
        },
        {
          "duration": 0.09375,
          "durationTicks": 96,
          "midi": 60,
          "name": "C4",
          "ticks": 166464,
          "time": 162.5625,
          "velocity": 0.3937007874015748
        },
        {
          "duration": 0.09375,
          "durationTicks": 96,
          "midi": 52,
          "name": "E3",
          "ticks": 166464,
          "time": 162.5625,
          "velocity": 0.3937007874015748
        },
        {
          "duration": 0.09375,
          "durationTicks": 96,
          "midi": 52,
          "name": "E3",
          "ticks": 166560,
          "time": 162.65625,
          "velocity": 0.3937007874015748
        },
        {
          "duration": 0.09375,
          "durationTicks": 96,
          "midi": 60,
          "name": "C4",
          "ticks": 166560,
          "time": 162.65625,
          "velocity": 0.3937007874015748
        },
        {
          "duration": 0.09375,
          "durationTicks": 96,
          "midi": 57,
          "name": "A3",
          "ticks": 166560,
          "time": 162.65625,
          "velocity": 0.3937007874015748
        },
        {
          "duration": 0.09375,
          "durationTicks": 96,
          "midi": 57,
          "name": "A3",
          "ticks": 166656,
          "time": 162.75,
          "velocity": 0.3937007874015748
        },
        {
          "duration": 0.09375,
          "durationTicks": 96,
          "midi": 60,
          "name": "C4",
          "ticks": 166656,
          "time": 162.75,
          "velocity": 0.3937007874015748
        },
        {
          "duration": 0.09375,
          "durationTicks": 96,
          "midi": 52,
          "name": "E3",
          "ticks": 166656,
          "time": 162.75,
          "velocity": 0.3937007874015748
        },
        {
          "duration": 0.09375,
          "durationTicks": 96,
          "midi": 60,
          "name": "C4",
          "ticks": 166752,
          "time": 162.84375,
          "velocity": 0.3937007874015748
        },
        {
          "duration": 0.09375,
          "durationTicks": 96,
          "midi": 57,
          "name": "A3",
          "ticks": 166752,
          "time": 162.84375,
          "velocity": 0.3937007874015748
        },
        {
          "duration": 0.09375,
          "durationTicks": 96,
          "midi": 52,
          "name": "E3",
          "ticks": 166752,
          "time": 162.84375,
          "velocity": 0.3937007874015748
        },
        {
          "duration": 0.09375,
          "durationTicks": 96,
          "midi": 60,
          "name": "C4",
          "ticks": 166848,
          "time": 162.9375,
          "velocity": 0.3937007874015748
        },
        {
          "duration": 0.09375,
          "durationTicks": 96,
          "midi": 57,
          "name": "A3",
          "ticks": 166848,
          "time": 162.9375,
          "velocity": 0.3937007874015748
        },
        {
          "duration": 0.09375,
          "durationTicks": 96,
          "midi": 52,
          "name": "E3",
          "ticks": 166848,
          "time": 162.9375,
          "velocity": 0.3937007874015748
        },
        {
          "duration": 0.09375,
          "durationTicks": 96,
          "midi": 57,
          "name": "A3",
          "ticks": 166944,
          "time": 163.03125,
          "velocity": 0.3937007874015748
        },
        {
          "duration": 0.09375,
          "durationTicks": 96,
          "midi": 60,
          "name": "C4",
          "ticks": 166944,
          "time": 163.03125,
          "velocity": 0.3937007874015748
        },
        {
          "duration": 0.09375,
          "durationTicks": 96,
          "midi": 52,
          "name": "E3",
          "ticks": 166944,
          "time": 163.03125,
          "velocity": 0.3937007874015748
        },
        {
          "duration": 0.09375,
          "durationTicks": 96,
          "midi": 52,
          "name": "E3",
          "ticks": 167040,
          "time": 163.125,
          "velocity": 0.3937007874015748
        },
        {
          "duration": 0.09375,
          "durationTicks": 96,
          "midi": 57,
          "name": "A3",
          "ticks": 167040,
          "time": 163.125,
          "velocity": 0.3937007874015748
        },
        {
          "duration": 0.09375,
          "durationTicks": 96,
          "midi": 60,
          "name": "C4",
          "ticks": 167040,
          "time": 163.125,
          "velocity": 0.3937007874015748
        },
        {
          "duration": 0.09375,
          "durationTicks": 96,
          "midi": 60,
          "name": "C4",
          "ticks": 167136,
          "time": 163.21875,
          "velocity": 0.3937007874015748
        },
        {
          "duration": 0.09375,
          "durationTicks": 96,
          "midi": 52,
          "name": "E3",
          "ticks": 167136,
          "time": 163.21875,
          "velocity": 0.3937007874015748
        },
        {
          "duration": 0.09375,
          "durationTicks": 96,
          "midi": 57,
          "name": "A3",
          "ticks": 167136,
          "time": 163.21875,
          "velocity": 0.3937007874015748
        },
        {
          "duration": 0.09375,
          "durationTicks": 96,
          "midi": 57,
          "name": "A3",
          "ticks": 167232,
          "time": 163.3125,
          "velocity": 0.3937007874015748
        },
        {
          "duration": 0.09375,
          "durationTicks": 96,
          "midi": 60,
          "name": "C4",
          "ticks": 167232,
          "time": 163.3125,
          "velocity": 0.3937007874015748
        },
        {
          "duration": 0.09375,
          "durationTicks": 96,
          "midi": 52,
          "name": "E3",
          "ticks": 167232,
          "time": 163.3125,
          "velocity": 0.3937007874015748
        },
        {
          "duration": 0.09375,
          "durationTicks": 96,
          "midi": 57,
          "name": "A3",
          "ticks": 167328,
          "time": 163.40625,
          "velocity": 0.3937007874015748
        },
        {
          "duration": 0.09375,
          "durationTicks": 96,
          "midi": 60,
          "name": "C4",
          "ticks": 167328,
          "time": 163.40625,
          "velocity": 0.3937007874015748
        },
        {
          "duration": 0.09375,
          "durationTicks": 96,
          "midi": 52,
          "name": "E3",
          "ticks": 167328,
          "time": 163.40625,
          "velocity": 0.3937007874015748
        },
        {
          "duration": 0.09375,
          "durationTicks": 96,
          "midi": 54,
          "name": "F#3",
          "ticks": 167424,
          "time": 163.5,
          "velocity": 0.3937007874015748
        },
        {
          "duration": 0.09375,
          "durationTicks": 96,
          "midi": 51,
          "name": "D#3",
          "ticks": 167424,
          "time": 163.5,
          "velocity": 0.3937007874015748
        },
        {
          "duration": 0.09375,
          "durationTicks": 96,
          "midi": 57,
          "name": "A3",
          "ticks": 167424,
          "time": 163.5,
          "velocity": 0.3937007874015748
        },
        {
          "duration": 0.09375,
          "durationTicks": 96,
          "midi": 51,
          "name": "D#3",
          "ticks": 167520,
          "time": 163.59375,
          "velocity": 0.3937007874015748
        },
        {
          "duration": 0.09375,
          "durationTicks": 96,
          "midi": 57,
          "name": "A3",
          "ticks": 167520,
          "time": 163.59375,
          "velocity": 0.3937007874015748
        },
        {
          "duration": 0.09375,
          "durationTicks": 96,
          "midi": 54,
          "name": "F#3",
          "ticks": 167520,
          "time": 163.59375,
          "velocity": 0.3937007874015748
        },
        {
          "duration": 0.09375,
          "durationTicks": 96,
          "midi": 51,
          "name": "D#3",
          "ticks": 167616,
          "time": 163.6875,
          "velocity": 0.3937007874015748
        },
        {
          "duration": 0.09375,
          "durationTicks": 96,
          "midi": 57,
          "name": "A3",
          "ticks": 167616,
          "time": 163.6875,
          "velocity": 0.3937007874015748
        },
        {
          "duration": 0.09375,
          "durationTicks": 96,
          "midi": 54,
          "name": "F#3",
          "ticks": 167616,
          "time": 163.6875,
          "velocity": 0.3937007874015748
        },
        {
          "duration": 0.09375,
          "durationTicks": 96,
          "midi": 54,
          "name": "F#3",
          "ticks": 167712,
          "time": 163.78125,
          "velocity": 0.3937007874015748
        },
        {
          "duration": 0.09375,
          "durationTicks": 96,
          "midi": 51,
          "name": "D#3",
          "ticks": 167712,
          "time": 163.78125,
          "velocity": 0.3937007874015748
        },
        {
          "duration": 0.09375,
          "durationTicks": 96,
          "midi": 57,
          "name": "A3",
          "ticks": 167712,
          "time": 163.78125,
          "velocity": 0.3937007874015748
        },
        {
          "duration": 0.09375,
          "durationTicks": 96,
          "midi": 57,
          "name": "A3",
          "ticks": 167808,
          "time": 163.875,
          "velocity": 0.3937007874015748
        },
        {
          "duration": 0.09375,
          "durationTicks": 96,
          "midi": 54,
          "name": "F#3",
          "ticks": 167808,
          "time": 163.875,
          "velocity": 0.3937007874015748
        },
        {
          "duration": 0.09375,
          "durationTicks": 96,
          "midi": 51,
          "name": "D#3",
          "ticks": 167808,
          "time": 163.875,
          "velocity": 0.3937007874015748
        },
        {
          "duration": 0.09375,
          "durationTicks": 96,
          "midi": 51,
          "name": "D#3",
          "ticks": 167904,
          "time": 163.96875,
          "velocity": 0.3937007874015748
        },
        {
          "duration": 0.09375,
          "durationTicks": 96,
          "midi": 54,
          "name": "F#3",
          "ticks": 167904,
          "time": 163.96875,
          "velocity": 0.3937007874015748
        },
        {
          "duration": 0.09375,
          "durationTicks": 96,
          "midi": 57,
          "name": "A3",
          "ticks": 167904,
          "time": 163.96875,
          "velocity": 0.3937007874015748
        },
        {
          "duration": 0.09375,
          "durationTicks": 96,
          "midi": 51,
          "name": "D#3",
          "ticks": 168000,
          "time": 164.0625,
          "velocity": 0.3937007874015748
        },
        {
          "duration": 0.09375,
          "durationTicks": 96,
          "midi": 57,
          "name": "A3",
          "ticks": 168000,
          "time": 164.0625,
          "velocity": 0.3937007874015748
        },
        {
          "duration": 0.09375,
          "durationTicks": 96,
          "midi": 54,
          "name": "F#3",
          "ticks": 168000,
          "time": 164.0625,
          "velocity": 0.3937007874015748
        },
        {
          "duration": 0.09375,
          "durationTicks": 96,
          "midi": 57,
          "name": "A3",
          "ticks": 168096,
          "time": 164.15625,
          "velocity": 0.3937007874015748
        },
        {
          "duration": 0.09375,
          "durationTicks": 96,
          "midi": 51,
          "name": "D#3",
          "ticks": 168096,
          "time": 164.15625,
          "velocity": 0.3937007874015748
        },
        {
          "duration": 0.09375,
          "durationTicks": 96,
          "midi": 54,
          "name": "F#3",
          "ticks": 168096,
          "time": 164.15625,
          "velocity": 0.3937007874015748
        },
        {
          "duration": 0.09375,
          "durationTicks": 96,
          "midi": 54,
          "name": "F#3",
          "ticks": 168192,
          "time": 164.25,
          "velocity": 0.3937007874015748
        },
        {
          "duration": 0.09375,
          "durationTicks": 96,
          "midi": 51,
          "name": "D#3",
          "ticks": 168192,
          "time": 164.25,
          "velocity": 0.3937007874015748
        },
        {
          "duration": 0.09375,
          "durationTicks": 96,
          "midi": 57,
          "name": "A3",
          "ticks": 168192,
          "time": 164.25,
          "velocity": 0.3937007874015748
        },
        {
          "duration": 0.09375,
          "durationTicks": 96,
          "midi": 57,
          "name": "A3",
          "ticks": 168288,
          "time": 164.34375,
          "velocity": 0.3937007874015748
        },
        {
          "duration": 0.09375,
          "durationTicks": 96,
          "midi": 51,
          "name": "D#3",
          "ticks": 168288,
          "time": 164.34375,
          "velocity": 0.3937007874015748
        },
        {
          "duration": 0.09375,
          "durationTicks": 96,
          "midi": 54,
          "name": "F#3",
          "ticks": 168288,
          "time": 164.34375,
          "velocity": 0.3937007874015748
        },
        {
          "duration": 0.09375,
          "durationTicks": 96,
          "midi": 51,
          "name": "D#3",
          "ticks": 168384,
          "time": 164.4375,
          "velocity": 0.3937007874015748
        },
        {
          "duration": 0.09375,
          "durationTicks": 96,
          "midi": 57,
          "name": "A3",
          "ticks": 168384,
          "time": 164.4375,
          "velocity": 0.3937007874015748
        },
        {
          "duration": 0.09375,
          "durationTicks": 96,
          "midi": 54,
          "name": "F#3",
          "ticks": 168384,
          "time": 164.4375,
          "velocity": 0.3937007874015748
        },
        {
          "duration": 0.09375,
          "durationTicks": 96,
          "midi": 51,
          "name": "D#3",
          "ticks": 168480,
          "time": 164.53125,
          "velocity": 0.3937007874015748
        },
        {
          "duration": 0.09375,
          "durationTicks": 96,
          "midi": 54,
          "name": "F#3",
          "ticks": 168480,
          "time": 164.53125,
          "velocity": 0.3937007874015748
        },
        {
          "duration": 0.09375,
          "durationTicks": 96,
          "midi": 57,
          "name": "A3",
          "ticks": 168480,
          "time": 164.53125,
          "velocity": 0.3937007874015748
        },
        {
          "duration": 0.09375,
          "durationTicks": 96,
          "midi": 57,
          "name": "A3",
          "ticks": 168576,
          "time": 164.625,
          "velocity": 0.3937007874015748
        },
        {
          "duration": 0.09375,
          "durationTicks": 96,
          "midi": 51,
          "name": "D#3",
          "ticks": 168576,
          "time": 164.625,
          "velocity": 0.3937007874015748
        },
        {
          "duration": 0.09375,
          "durationTicks": 96,
          "midi": 54,
          "name": "F#3",
          "ticks": 168576,
          "time": 164.625,
          "velocity": 0.3937007874015748
        },
        {
          "duration": 0.09375,
          "durationTicks": 96,
          "midi": 57,
          "name": "A3",
          "ticks": 168672,
          "time": 164.71875,
          "velocity": 0.3937007874015748
        },
        {
          "duration": 0.09375,
          "durationTicks": 96,
          "midi": 51,
          "name": "D#3",
          "ticks": 168672,
          "time": 164.71875,
          "velocity": 0.3937007874015748
        },
        {
          "duration": 0.09375,
          "durationTicks": 96,
          "midi": 54,
          "name": "F#3",
          "ticks": 168672,
          "time": 164.71875,
          "velocity": 0.3937007874015748
        },
        {
          "duration": 0.09375,
          "durationTicks": 96,
          "midi": 57,
          "name": "A3",
          "ticks": 168768,
          "time": 164.8125,
          "velocity": 0.3937007874015748
        },
        {
          "duration": 0.09375,
          "durationTicks": 96,
          "midi": 54,
          "name": "F#3",
          "ticks": 168768,
          "time": 164.8125,
          "velocity": 0.3937007874015748
        },
        {
          "duration": 0.09375,
          "durationTicks": 96,
          "midi": 51,
          "name": "D#3",
          "ticks": 168768,
          "time": 164.8125,
          "velocity": 0.3937007874015748
        },
        {
          "duration": 0.09375,
          "durationTicks": 96,
          "midi": 57,
          "name": "A3",
          "ticks": 168864,
          "time": 164.90625,
          "velocity": 0.3937007874015748
        },
        {
          "duration": 0.09375,
          "durationTicks": 96,
          "midi": 54,
          "name": "F#3",
          "ticks": 168864,
          "time": 164.90625,
          "velocity": 0.3937007874015748
        },
        {
          "duration": 0.09375,
          "durationTicks": 96,
          "midi": 51,
          "name": "D#3",
          "ticks": 168864,
          "time": 164.90625,
          "velocity": 0.3937007874015748
        },
        {
          "duration": 0.09375,
          "durationTicks": 96,
          "midi": 45,
          "name": "A2",
          "ticks": 168960,
          "time": 165,
          "velocity": 0.3937007874015748
        },
        {
          "duration": 0.09375,
          "durationTicks": 96,
          "midi": 53,
          "name": "F3",
          "ticks": 168960,
          "time": 165,
          "velocity": 0.3937007874015748
        },
        {
          "duration": 0.09375,
          "durationTicks": 96,
          "midi": 48,
          "name": "C3",
          "ticks": 168960,
          "time": 165,
          "velocity": 0.3937007874015748
        },
        {
          "duration": 0.09375,
          "durationTicks": 96,
          "midi": 48,
          "name": "C3",
          "ticks": 169056,
          "time": 165.09375,
          "velocity": 0.3937007874015748
        },
        {
          "duration": 0.09375,
          "durationTicks": 96,
          "midi": 45,
          "name": "A2",
          "ticks": 169056,
          "time": 165.09375,
          "velocity": 0.3937007874015748
        },
        {
          "duration": 0.09375,
          "durationTicks": 96,
          "midi": 53,
          "name": "F3",
          "ticks": 169056,
          "time": 165.09375,
          "velocity": 0.3937007874015748
        },
        {
          "duration": 0.09375,
          "durationTicks": 96,
          "midi": 48,
          "name": "C3",
          "ticks": 169152,
          "time": 165.1875,
          "velocity": 0.3937007874015748
        },
        {
          "duration": 0.09375,
          "durationTicks": 96,
          "midi": 53,
          "name": "F3",
          "ticks": 169152,
          "time": 165.1875,
          "velocity": 0.3937007874015748
        },
        {
          "duration": 0.09375,
          "durationTicks": 96,
          "midi": 45,
          "name": "A2",
          "ticks": 169152,
          "time": 165.1875,
          "velocity": 0.3937007874015748
        },
        {
          "duration": 0.09375,
          "durationTicks": 96,
          "midi": 48,
          "name": "C3",
          "ticks": 169248,
          "time": 165.28125,
          "velocity": 0.3937007874015748
        },
        {
          "duration": 0.09375,
          "durationTicks": 96,
          "midi": 45,
          "name": "A2",
          "ticks": 169248,
          "time": 165.28125,
          "velocity": 0.3937007874015748
        },
        {
          "duration": 0.09375,
          "durationTicks": 96,
          "midi": 53,
          "name": "F3",
          "ticks": 169248,
          "time": 165.28125,
          "velocity": 0.3937007874015748
        },
        {
          "duration": 0.09375,
          "durationTicks": 96,
          "midi": 53,
          "name": "F3",
          "ticks": 169344,
          "time": 165.375,
          "velocity": 0.3937007874015748
        },
        {
          "duration": 0.09375,
          "durationTicks": 96,
          "midi": 45,
          "name": "A2",
          "ticks": 169344,
          "time": 165.375,
          "velocity": 0.3937007874015748
        },
        {
          "duration": 0.09375,
          "durationTicks": 96,
          "midi": 48,
          "name": "C3",
          "ticks": 169344,
          "time": 165.375,
          "velocity": 0.3937007874015748
        },
        {
          "duration": 0.09375,
          "durationTicks": 96,
          "midi": 45,
          "name": "A2",
          "ticks": 169440,
          "time": 165.46875,
          "velocity": 0.3937007874015748
        },
        {
          "duration": 0.09375,
          "durationTicks": 96,
          "midi": 53,
          "name": "F3",
          "ticks": 169440,
          "time": 165.46875,
          "velocity": 0.3937007874015748
        },
        {
          "duration": 0.09375,
          "durationTicks": 96,
          "midi": 48,
          "name": "C3",
          "ticks": 169440,
          "time": 165.46875,
          "velocity": 0.3937007874015748
        },
        {
          "duration": 0.09375,
          "durationTicks": 96,
          "midi": 48,
          "name": "C3",
          "ticks": 169536,
          "time": 165.5625,
          "velocity": 0.3937007874015748
        },
        {
          "duration": 0.09375,
          "durationTicks": 96,
          "midi": 45,
          "name": "A2",
          "ticks": 169536,
          "time": 165.5625,
          "velocity": 0.3937007874015748
        },
        {
          "duration": 0.09375,
          "durationTicks": 96,
          "midi": 53,
          "name": "F3",
          "ticks": 169536,
          "time": 165.5625,
          "velocity": 0.3937007874015748
        },
        {
          "duration": 0.09375,
          "durationTicks": 96,
          "midi": 48,
          "name": "C3",
          "ticks": 169632,
          "time": 165.65625,
          "velocity": 0.3937007874015748
        },
        {
          "duration": 0.09375,
          "durationTicks": 96,
          "midi": 45,
          "name": "A2",
          "ticks": 169632,
          "time": 165.65625,
          "velocity": 0.3937007874015748
        },
        {
          "duration": 0.09375,
          "durationTicks": 96,
          "midi": 53,
          "name": "F3",
          "ticks": 169632,
          "time": 165.65625,
          "velocity": 0.3937007874015748
        },
        {
          "duration": 0.09375,
          "durationTicks": 96,
          "midi": 48,
          "name": "C3",
          "ticks": 169728,
          "time": 165.75,
          "velocity": 0.3937007874015748
        },
        {
          "duration": 0.09375,
          "durationTicks": 96,
          "midi": 45,
          "name": "A2",
          "ticks": 169728,
          "time": 165.75,
          "velocity": 0.3937007874015748
        },
        {
          "duration": 0.09375,
          "durationTicks": 96,
          "midi": 53,
          "name": "F3",
          "ticks": 169728,
          "time": 165.75,
          "velocity": 0.3937007874015748
        },
        {
          "duration": 0.09375,
          "durationTicks": 96,
          "midi": 53,
          "name": "F3",
          "ticks": 169824,
          "time": 165.84375,
          "velocity": 0.3937007874015748
        },
        {
          "duration": 0.09375,
          "durationTicks": 96,
          "midi": 48,
          "name": "C3",
          "ticks": 169824,
          "time": 165.84375,
          "velocity": 0.3937007874015748
        },
        {
          "duration": 0.09375,
          "durationTicks": 96,
          "midi": 45,
          "name": "A2",
          "ticks": 169824,
          "time": 165.84375,
          "velocity": 0.3937007874015748
        },
        {
          "duration": 0.09375,
          "durationTicks": 96,
          "midi": 53,
          "name": "F3",
          "ticks": 169920,
          "time": 165.9375,
          "velocity": 0.3937007874015748
        },
        {
          "duration": 0.09375,
          "durationTicks": 96,
          "midi": 48,
          "name": "C3",
          "ticks": 169920,
          "time": 165.9375,
          "velocity": 0.3937007874015748
        },
        {
          "duration": 0.09375,
          "durationTicks": 96,
          "midi": 45,
          "name": "A2",
          "ticks": 169920,
          "time": 165.9375,
          "velocity": 0.3937007874015748
        },
        {
          "duration": 0.09375,
          "durationTicks": 96,
          "midi": 45,
          "name": "A2",
          "ticks": 170016,
          "time": 166.03125,
          "velocity": 0.3937007874015748
        },
        {
          "duration": 0.09375,
          "durationTicks": 96,
          "midi": 48,
          "name": "C3",
          "ticks": 170016,
          "time": 166.03125,
          "velocity": 0.3937007874015748
        },
        {
          "duration": 0.09375,
          "durationTicks": 96,
          "midi": 53,
          "name": "F3",
          "ticks": 170016,
          "time": 166.03125,
          "velocity": 0.3937007874015748
        },
        {
          "duration": 0.09375,
          "durationTicks": 96,
          "midi": 48,
          "name": "C3",
          "ticks": 170112,
          "time": 166.125,
          "velocity": 0.3937007874015748
        },
        {
          "duration": 0.09375,
          "durationTicks": 96,
          "midi": 53,
          "name": "F3",
          "ticks": 170112,
          "time": 166.125,
          "velocity": 0.3937007874015748
        },
        {
          "duration": 0.09375,
          "durationTicks": 96,
          "midi": 45,
          "name": "A2",
          "ticks": 170112,
          "time": 166.125,
          "velocity": 0.3937007874015748
        },
        {
          "duration": 0.09375,
          "durationTicks": 96,
          "midi": 53,
          "name": "F3",
          "ticks": 170208,
          "time": 166.21875,
          "velocity": 0.3937007874015748
        },
        {
          "duration": 0.09375,
          "durationTicks": 96,
          "midi": 45,
          "name": "A2",
          "ticks": 170208,
          "time": 166.21875,
          "velocity": 0.3937007874015748
        },
        {
          "duration": 0.09375,
          "durationTicks": 96,
          "midi": 48,
          "name": "C3",
          "ticks": 170208,
          "time": 166.21875,
          "velocity": 0.3937007874015748
        },
        {
          "duration": 0.09375,
          "durationTicks": 96,
          "midi": 53,
          "name": "F3",
          "ticks": 170304,
          "time": 166.3125,
          "velocity": 0.3937007874015748
        },
        {
          "duration": 0.09375,
          "durationTicks": 96,
          "midi": 48,
          "name": "C3",
          "ticks": 170304,
          "time": 166.3125,
          "velocity": 0.3937007874015748
        },
        {
          "duration": 0.09375,
          "durationTicks": 96,
          "midi": 45,
          "name": "A2",
          "ticks": 170304,
          "time": 166.3125,
          "velocity": 0.3937007874015748
        },
        {
          "duration": 0.09375,
          "durationTicks": 96,
          "midi": 48,
          "name": "C3",
          "ticks": 170400,
          "time": 166.40625,
          "velocity": 0.3937007874015748
        },
        {
          "duration": 0.09375,
          "durationTicks": 96,
          "midi": 53,
          "name": "F3",
          "ticks": 170400,
          "time": 166.40625,
          "velocity": 0.3937007874015748
        },
        {
          "duration": 0.09375,
          "durationTicks": 96,
          "midi": 45,
          "name": "A2",
          "ticks": 170400,
          "time": 166.40625,
          "velocity": 0.3937007874015748
        },
        {
          "duration": 0.09375,
          "durationTicks": 96,
          "midi": 51,
          "name": "D#3",
          "ticks": 170496,
          "time": 166.5,
          "velocity": 0.3937007874015748
        },
        {
          "duration": 0.09375,
          "durationTicks": 96,
          "midi": 54,
          "name": "F#3",
          "ticks": 170496,
          "time": 166.5,
          "velocity": 0.3937007874015748
        },
        {
          "duration": 0.09375,
          "durationTicks": 96,
          "midi": 59,
          "name": "B3",
          "ticks": 170496,
          "time": 166.5,
          "velocity": 0.3937007874015748
        },
        {
          "duration": 0.09375,
          "durationTicks": 96,
          "midi": 51,
          "name": "D#3",
          "ticks": 170592,
          "time": 166.59375,
          "velocity": 0.3937007874015748
        },
        {
          "duration": 0.09375,
          "durationTicks": 96,
          "midi": 59,
          "name": "B3",
          "ticks": 170592,
          "time": 166.59375,
          "velocity": 0.3937007874015748
        },
        {
          "duration": 0.09375,
          "durationTicks": 96,
          "midi": 54,
          "name": "F#3",
          "ticks": 170592,
          "time": 166.59375,
          "velocity": 0.3937007874015748
        },
        {
          "duration": 0.09375,
          "durationTicks": 96,
          "midi": 59,
          "name": "B3",
          "ticks": 170688,
          "time": 166.6875,
          "velocity": 0.3937007874015748
        },
        {
          "duration": 0.09375,
          "durationTicks": 96,
          "midi": 54,
          "name": "F#3",
          "ticks": 170688,
          "time": 166.6875,
          "velocity": 0.3937007874015748
        },
        {
          "duration": 0.09375,
          "durationTicks": 96,
          "midi": 51,
          "name": "D#3",
          "ticks": 170688,
          "time": 166.6875,
          "velocity": 0.3937007874015748
        },
        {
          "duration": 0.09375,
          "durationTicks": 96,
          "midi": 59,
          "name": "B3",
          "ticks": 170784,
          "time": 166.78125,
          "velocity": 0.3937007874015748
        },
        {
          "duration": 0.09375,
          "durationTicks": 96,
          "midi": 54,
          "name": "F#3",
          "ticks": 170784,
          "time": 166.78125,
          "velocity": 0.3937007874015748
        },
        {
          "duration": 0.09375,
          "durationTicks": 96,
          "midi": 51,
          "name": "D#3",
          "ticks": 170784,
          "time": 166.78125,
          "velocity": 0.3937007874015748
        },
        {
          "duration": 0.09375,
          "durationTicks": 96,
          "midi": 59,
          "name": "B3",
          "ticks": 170880,
          "time": 166.875,
          "velocity": 0.3937007874015748
        },
        {
          "duration": 0.09375,
          "durationTicks": 96,
          "midi": 51,
          "name": "D#3",
          "ticks": 170880,
          "time": 166.875,
          "velocity": 0.3937007874015748
        },
        {
          "duration": 0.09375,
          "durationTicks": 96,
          "midi": 54,
          "name": "F#3",
          "ticks": 170880,
          "time": 166.875,
          "velocity": 0.3937007874015748
        },
        {
          "duration": 0.09375,
          "durationTicks": 96,
          "midi": 59,
          "name": "B3",
          "ticks": 170976,
          "time": 166.96875,
          "velocity": 0.3937007874015748
        },
        {
          "duration": 0.09375,
          "durationTicks": 96,
          "midi": 51,
          "name": "D#3",
          "ticks": 170976,
          "time": 166.96875,
          "velocity": 0.3937007874015748
        },
        {
          "duration": 0.09375,
          "durationTicks": 96,
          "midi": 54,
          "name": "F#3",
          "ticks": 170976,
          "time": 166.96875,
          "velocity": 0.3937007874015748
        },
        {
          "duration": 0.09375,
          "durationTicks": 96,
          "midi": 54,
          "name": "F#3",
          "ticks": 171072,
          "time": 167.0625,
          "velocity": 0.3937007874015748
        },
        {
          "duration": 0.09375,
          "durationTicks": 96,
          "midi": 51,
          "name": "D#3",
          "ticks": 171072,
          "time": 167.0625,
          "velocity": 0.3937007874015748
        },
        {
          "duration": 0.09375,
          "durationTicks": 96,
          "midi": 59,
          "name": "B3",
          "ticks": 171072,
          "time": 167.0625,
          "velocity": 0.3937007874015748
        },
        {
          "duration": 0.09375,
          "durationTicks": 96,
          "midi": 51,
          "name": "D#3",
          "ticks": 171168,
          "time": 167.15625,
          "velocity": 0.3937007874015748
        },
        {
          "duration": 0.09375,
          "durationTicks": 96,
          "midi": 59,
          "name": "B3",
          "ticks": 171168,
          "time": 167.15625,
          "velocity": 0.3937007874015748
        },
        {
          "duration": 0.09375,
          "durationTicks": 96,
          "midi": 54,
          "name": "F#3",
          "ticks": 171168,
          "time": 167.15625,
          "velocity": 0.3937007874015748
        },
        {
          "duration": 0.09375,
          "durationTicks": 96,
          "midi": 51,
          "name": "D#3",
          "ticks": 171264,
          "time": 167.25,
          "velocity": 0.3937007874015748
        },
        {
          "duration": 0.09375,
          "durationTicks": 96,
          "midi": 59,
          "name": "B3",
          "ticks": 171264,
          "time": 167.25,
          "velocity": 0.3937007874015748
        },
        {
          "duration": 0.09375,
          "durationTicks": 96,
          "midi": 54,
          "name": "F#3",
          "ticks": 171264,
          "time": 167.25,
          "velocity": 0.3937007874015748
        },
        {
          "duration": 0.09375,
          "durationTicks": 96,
          "midi": 51,
          "name": "D#3",
          "ticks": 171360,
          "time": 167.34375,
          "velocity": 0.3937007874015748
        },
        {
          "duration": 0.09375,
          "durationTicks": 96,
          "midi": 54,
          "name": "F#3",
          "ticks": 171360,
          "time": 167.34375,
          "velocity": 0.3937007874015748
        },
        {
          "duration": 0.09375,
          "durationTicks": 96,
          "midi": 59,
          "name": "B3",
          "ticks": 171360,
          "time": 167.34375,
          "velocity": 0.3937007874015748
        },
        {
          "duration": 0.09375,
          "durationTicks": 96,
          "midi": 51,
          "name": "D#3",
          "ticks": 171456,
          "time": 167.4375,
          "velocity": 0.3937007874015748
        },
        {
          "duration": 0.09375,
          "durationTicks": 96,
          "midi": 59,
          "name": "B3",
          "ticks": 171456,
          "time": 167.4375,
          "velocity": 0.3937007874015748
        },
        {
          "duration": 0.09375,
          "durationTicks": 96,
          "midi": 54,
          "name": "F#3",
          "ticks": 171456,
          "time": 167.4375,
          "velocity": 0.3937007874015748
        },
        {
          "duration": 0.09375,
          "durationTicks": 96,
          "midi": 54,
          "name": "F#3",
          "ticks": 171552,
          "time": 167.53125,
          "velocity": 0.3937007874015748
        },
        {
          "duration": 0.09375,
          "durationTicks": 96,
          "midi": 59,
          "name": "B3",
          "ticks": 171552,
          "time": 167.53125,
          "velocity": 0.3937007874015748
        },
        {
          "duration": 0.09375,
          "durationTicks": 96,
          "midi": 51,
          "name": "D#3",
          "ticks": 171552,
          "time": 167.53125,
          "velocity": 0.3937007874015748
        },
        {
          "duration": 0.09375,
          "durationTicks": 96,
          "midi": 54,
          "name": "F#3",
          "ticks": 171648,
          "time": 167.625,
          "velocity": 0.3937007874015748
        },
        {
          "duration": 0.09375,
          "durationTicks": 96,
          "midi": 51,
          "name": "D#3",
          "ticks": 171648,
          "time": 167.625,
          "velocity": 0.3937007874015748
        },
        {
          "duration": 0.09375,
          "durationTicks": 96,
          "midi": 59,
          "name": "B3",
          "ticks": 171648,
          "time": 167.625,
          "velocity": 0.3937007874015748
        },
        {
          "duration": 0.09375,
          "durationTicks": 96,
          "midi": 51,
          "name": "D#3",
          "ticks": 171744,
          "time": 167.71875,
          "velocity": 0.3937007874015748
        },
        {
          "duration": 0.09375,
          "durationTicks": 96,
          "midi": 59,
          "name": "B3",
          "ticks": 171744,
          "time": 167.71875,
          "velocity": 0.3937007874015748
        },
        {
          "duration": 0.09375,
          "durationTicks": 96,
          "midi": 54,
          "name": "F#3",
          "ticks": 171744,
          "time": 167.71875,
          "velocity": 0.3937007874015748
        },
        {
          "duration": 0.09375,
          "durationTicks": 96,
          "midi": 59,
          "name": "B3",
          "ticks": 171840,
          "time": 167.8125,
          "velocity": 0.3937007874015748
        },
        {
          "duration": 0.09375,
          "durationTicks": 96,
          "midi": 54,
          "name": "F#3",
          "ticks": 171840,
          "time": 167.8125,
          "velocity": 0.3937007874015748
        },
        {
          "duration": 0.09375,
          "durationTicks": 96,
          "midi": 51,
          "name": "D#3",
          "ticks": 171840,
          "time": 167.8125,
          "velocity": 0.3937007874015748
        },
        {
          "duration": 0.09375,
          "durationTicks": 96,
          "midi": 59,
          "name": "B3",
          "ticks": 171936,
          "time": 167.90625,
          "velocity": 0.3937007874015748
        },
        {
          "duration": 0.09375,
          "durationTicks": 96,
          "midi": 51,
          "name": "D#3",
          "ticks": 171936,
          "time": 167.90625,
          "velocity": 0.3937007874015748
        },
        {
          "duration": 0.09375,
          "durationTicks": 96,
          "midi": 54,
          "name": "F#3",
          "ticks": 171936,
          "time": 167.90625,
          "velocity": 0.3937007874015748
        },
        {
          "duration": 0.09375,
          "durationTicks": 96,
          "midi": 59,
          "name": "B3",
          "ticks": 172032,
          "time": 168,
          "velocity": 0.3937007874015748
        },
        {
          "duration": 0.09375,
          "durationTicks": 96,
          "midi": 55,
          "name": "G3",
          "ticks": 172032,
          "time": 168,
          "velocity": 0.3937007874015748
        },
        {
          "duration": 0.09375,
          "durationTicks": 96,
          "midi": 64,
          "name": "E4",
          "ticks": 172032,
          "time": 168,
          "velocity": 0.3937007874015748
        },
        {
          "duration": 0.09375,
          "durationTicks": 96,
          "midi": 59,
          "name": "B3",
          "ticks": 172128,
          "time": 168.09375,
          "velocity": 0.3937007874015748
        },
        {
          "duration": 0.09375,
          "durationTicks": 96,
          "midi": 55,
          "name": "G3",
          "ticks": 172128,
          "time": 168.09375,
          "velocity": 0.3937007874015748
        },
        {
          "duration": 0.09375,
          "durationTicks": 96,
          "midi": 64,
          "name": "E4",
          "ticks": 172128,
          "time": 168.09375,
          "velocity": 0.3937007874015748
        },
        {
          "duration": 0.09375,
          "durationTicks": 96,
          "midi": 59,
          "name": "B3",
          "ticks": 172224,
          "time": 168.1875,
          "velocity": 0.3937007874015748
        },
        {
          "duration": 0.09375,
          "durationTicks": 96,
          "midi": 55,
          "name": "G3",
          "ticks": 172224,
          "time": 168.1875,
          "velocity": 0.3937007874015748
        },
        {
          "duration": 0.09375,
          "durationTicks": 96,
          "midi": 64,
          "name": "E4",
          "ticks": 172224,
          "time": 168.1875,
          "velocity": 0.3937007874015748
        },
        {
          "duration": 0.09375,
          "durationTicks": 96,
          "midi": 64,
          "name": "E4",
          "ticks": 172320,
          "time": 168.28125,
          "velocity": 0.3937007874015748
        },
        {
          "duration": 0.09375,
          "durationTicks": 96,
          "midi": 59,
          "name": "B3",
          "ticks": 172320,
          "time": 168.28125,
          "velocity": 0.3937007874015748
        },
        {
          "duration": 0.09375,
          "durationTicks": 96,
          "midi": 55,
          "name": "G3",
          "ticks": 172320,
          "time": 168.28125,
          "velocity": 0.3937007874015748
        },
        {
          "duration": 0.09375,
          "durationTicks": 96,
          "midi": 64,
          "name": "E4",
          "ticks": 172416,
          "time": 168.375,
          "velocity": 0.3937007874015748
        },
        {
          "duration": 0.09375,
          "durationTicks": 96,
          "midi": 59,
          "name": "B3",
          "ticks": 172416,
          "time": 168.375,
          "velocity": 0.3937007874015748
        },
        {
          "duration": 0.09375,
          "durationTicks": 96,
          "midi": 55,
          "name": "G3",
          "ticks": 172416,
          "time": 168.375,
          "velocity": 0.3937007874015748
        },
        {
          "duration": 0.09375,
          "durationTicks": 96,
          "midi": 59,
          "name": "B3",
          "ticks": 172512,
          "time": 168.46875,
          "velocity": 0.3937007874015748
        },
        {
          "duration": 0.09375,
          "durationTicks": 96,
          "midi": 64,
          "name": "E4",
          "ticks": 172512,
          "time": 168.46875,
          "velocity": 0.3937007874015748
        },
        {
          "duration": 0.09375,
          "durationTicks": 96,
          "midi": 55,
          "name": "G3",
          "ticks": 172512,
          "time": 168.46875,
          "velocity": 0.3937007874015748
        },
        {
          "duration": 0.09375,
          "durationTicks": 96,
          "midi": 64,
          "name": "E4",
          "ticks": 172608,
          "time": 168.5625,
          "velocity": 0.3937007874015748
        },
        {
          "duration": 0.09375,
          "durationTicks": 96,
          "midi": 59,
          "name": "B3",
          "ticks": 172608,
          "time": 168.5625,
          "velocity": 0.3937007874015748
        },
        {
          "duration": 0.09375,
          "durationTicks": 96,
          "midi": 55,
          "name": "G3",
          "ticks": 172608,
          "time": 168.5625,
          "velocity": 0.3937007874015748
        },
        {
          "duration": 0.09375,
          "durationTicks": 96,
          "midi": 55,
          "name": "G3",
          "ticks": 172704,
          "time": 168.65625,
          "velocity": 0.3937007874015748
        },
        {
          "duration": 0.09375,
          "durationTicks": 96,
          "midi": 64,
          "name": "E4",
          "ticks": 172704,
          "time": 168.65625,
          "velocity": 0.3937007874015748
        },
        {
          "duration": 0.09375,
          "durationTicks": 96,
          "midi": 59,
          "name": "B3",
          "ticks": 172704,
          "time": 168.65625,
          "velocity": 0.3937007874015748
        },
        {
          "duration": 0.09375,
          "durationTicks": 96,
          "midi": 55,
          "name": "G3",
          "ticks": 172800,
          "time": 168.75,
          "velocity": 0.3937007874015748
        },
        {
          "duration": 0.09375,
          "durationTicks": 96,
          "midi": 59,
          "name": "B3",
          "ticks": 172800,
          "time": 168.75,
          "velocity": 0.3937007874015748
        },
        {
          "duration": 0.09375,
          "durationTicks": 96,
          "midi": 64,
          "name": "E4",
          "ticks": 172800,
          "time": 168.75,
          "velocity": 0.3937007874015748
        },
        {
          "duration": 0.09375,
          "durationTicks": 96,
          "midi": 64,
          "name": "E4",
          "ticks": 172896,
          "time": 168.84375,
          "velocity": 0.3937007874015748
        },
        {
          "duration": 0.09375,
          "durationTicks": 96,
          "midi": 55,
          "name": "G3",
          "ticks": 172896,
          "time": 168.84375,
          "velocity": 0.3937007874015748
        },
        {
          "duration": 0.09375,
          "durationTicks": 96,
          "midi": 59,
          "name": "B3",
          "ticks": 172896,
          "time": 168.84375,
          "velocity": 0.3937007874015748
        },
        {
          "duration": 0.09375,
          "durationTicks": 96,
          "midi": 59,
          "name": "B3",
          "ticks": 172992,
          "time": 168.9375,
          "velocity": 0.3937007874015748
        },
        {
          "duration": 0.09375,
          "durationTicks": 96,
          "midi": 55,
          "name": "G3",
          "ticks": 172992,
          "time": 168.9375,
          "velocity": 0.3937007874015748
        },
        {
          "duration": 0.09375,
          "durationTicks": 96,
          "midi": 64,
          "name": "E4",
          "ticks": 172992,
          "time": 168.9375,
          "velocity": 0.3937007874015748
        },
        {
          "duration": 0.09375,
          "durationTicks": 96,
          "midi": 59,
          "name": "B3",
          "ticks": 173088,
          "time": 169.03125,
          "velocity": 0.3937007874015748
        },
        {
          "duration": 0.09375,
          "durationTicks": 96,
          "midi": 64,
          "name": "E4",
          "ticks": 173088,
          "time": 169.03125,
          "velocity": 0.3937007874015748
        },
        {
          "duration": 0.09375,
          "durationTicks": 96,
          "midi": 55,
          "name": "G3",
          "ticks": 173088,
          "time": 169.03125,
          "velocity": 0.3937007874015748
        },
        {
          "duration": 0.09375,
          "durationTicks": 96,
          "midi": 64,
          "name": "E4",
          "ticks": 173184,
          "time": 169.125,
          "velocity": 0.3937007874015748
        },
        {
          "duration": 0.09375,
          "durationTicks": 96,
          "midi": 55,
          "name": "G3",
          "ticks": 173184,
          "time": 169.125,
          "velocity": 0.3937007874015748
        },
        {
          "duration": 0.09375,
          "durationTicks": 96,
          "midi": 59,
          "name": "B3",
          "ticks": 173184,
          "time": 169.125,
          "velocity": 0.3937007874015748
        },
        {
          "duration": 0.09375,
          "durationTicks": 96,
          "midi": 55,
          "name": "G3",
          "ticks": 173280,
          "time": 169.21875,
          "velocity": 0.3937007874015748
        },
        {
          "duration": 0.09375,
          "durationTicks": 96,
          "midi": 64,
          "name": "E4",
          "ticks": 173280,
          "time": 169.21875,
          "velocity": 0.3937007874015748
        },
        {
          "duration": 0.09375,
          "durationTicks": 96,
          "midi": 59,
          "name": "B3",
          "ticks": 173280,
          "time": 169.21875,
          "velocity": 0.3937007874015748
        },
        {
          "duration": 0.09375,
          "durationTicks": 96,
          "midi": 59,
          "name": "B3",
          "ticks": 173376,
          "time": 169.3125,
          "velocity": 0.3937007874015748
        },
        {
          "duration": 0.09375,
          "durationTicks": 96,
          "midi": 55,
          "name": "G3",
          "ticks": 173376,
          "time": 169.3125,
          "velocity": 0.3937007874015748
        },
        {
          "duration": 0.09375,
          "durationTicks": 96,
          "midi": 64,
          "name": "E4",
          "ticks": 173376,
          "time": 169.3125,
          "velocity": 0.3937007874015748
        },
        {
          "duration": 0.09375,
          "durationTicks": 96,
          "midi": 55,
          "name": "G3",
          "ticks": 173472,
          "time": 169.40625,
          "velocity": 0.3937007874015748
        },
        {
          "duration": 0.09375,
          "durationTicks": 96,
          "midi": 64,
          "name": "E4",
          "ticks": 173472,
          "time": 169.40625,
          "velocity": 0.3937007874015748
        },
        {
          "duration": 0.09375,
          "durationTicks": 96,
          "midi": 59,
          "name": "B3",
          "ticks": 173472,
          "time": 169.40625,
          "velocity": 0.3937007874015748
        },
        {
          "duration": 0.09375,
          "durationTicks": 96,
          "midi": 63,
          "name": "D#4",
          "ticks": 173568,
          "time": 169.5,
          "velocity": 0.3937007874015748
        },
        {
          "duration": 0.09375,
          "durationTicks": 96,
          "midi": 59,
          "name": "B3",
          "ticks": 173568,
          "time": 169.5,
          "velocity": 0.3937007874015748
        },
        {
          "duration": 0.09375,
          "durationTicks": 96,
          "midi": 54,
          "name": "F#3",
          "ticks": 173568,
          "time": 169.5,
          "velocity": 0.3937007874015748
        },
        {
          "duration": 0.09375,
          "durationTicks": 96,
          "midi": 63,
          "name": "D#4",
          "ticks": 173664,
          "time": 169.59375,
          "velocity": 0.3937007874015748
        },
        {
          "duration": 0.09375,
          "durationTicks": 96,
          "midi": 59,
          "name": "B3",
          "ticks": 173664,
          "time": 169.59375,
          "velocity": 0.3937007874015748
        },
        {
          "duration": 0.09375,
          "durationTicks": 96,
          "midi": 54,
          "name": "F#3",
          "ticks": 173664,
          "time": 169.59375,
          "velocity": 0.3937007874015748
        },
        {
          "duration": 0.09375,
          "durationTicks": 96,
          "midi": 59,
          "name": "B3",
          "ticks": 173760,
          "time": 169.6875,
          "velocity": 0.3937007874015748
        },
        {
          "duration": 0.09375,
          "durationTicks": 96,
          "midi": 54,
          "name": "F#3",
          "ticks": 173760,
          "time": 169.6875,
          "velocity": 0.3937007874015748
        },
        {
          "duration": 0.09375,
          "durationTicks": 96,
          "midi": 63,
          "name": "D#4",
          "ticks": 173760,
          "time": 169.6875,
          "velocity": 0.3937007874015748
        },
        {
          "duration": 0.09375,
          "durationTicks": 96,
          "midi": 63,
          "name": "D#4",
          "ticks": 173856,
          "time": 169.78125,
          "velocity": 0.3937007874015748
        },
        {
          "duration": 0.09375,
          "durationTicks": 96,
          "midi": 59,
          "name": "B3",
          "ticks": 173856,
          "time": 169.78125,
          "velocity": 0.3937007874015748
        },
        {
          "duration": 0.09375,
          "durationTicks": 96,
          "midi": 54,
          "name": "F#3",
          "ticks": 173856,
          "time": 169.78125,
          "velocity": 0.3937007874015748
        },
        {
          "duration": 0.09375,
          "durationTicks": 96,
          "midi": 63,
          "name": "D#4",
          "ticks": 173952,
          "time": 169.875,
          "velocity": 0.3937007874015748
        },
        {
          "duration": 0.09375,
          "durationTicks": 96,
          "midi": 54,
          "name": "F#3",
          "ticks": 173952,
          "time": 169.875,
          "velocity": 0.3937007874015748
        },
        {
          "duration": 0.09375,
          "durationTicks": 96,
          "midi": 59,
          "name": "B3",
          "ticks": 173952,
          "time": 169.875,
          "velocity": 0.3937007874015748
        },
        {
          "duration": 0.09375,
          "durationTicks": 96,
          "midi": 54,
          "name": "F#3",
          "ticks": 174048,
          "time": 169.96875,
          "velocity": 0.3937007874015748
        },
        {
          "duration": 0.09375,
          "durationTicks": 96,
          "midi": 63,
          "name": "D#4",
          "ticks": 174048,
          "time": 169.96875,
          "velocity": 0.3937007874015748
        },
        {
          "duration": 0.09375,
          "durationTicks": 96,
          "midi": 59,
          "name": "B3",
          "ticks": 174048,
          "time": 169.96875,
          "velocity": 0.3937007874015748
        },
        {
          "duration": 0.09375,
          "durationTicks": 96,
          "midi": 59,
          "name": "B3",
          "ticks": 174144,
          "time": 170.0625,
          "velocity": 0.3937007874015748
        },
        {
          "duration": 0.09375,
          "durationTicks": 96,
          "midi": 54,
          "name": "F#3",
          "ticks": 174144,
          "time": 170.0625,
          "velocity": 0.3937007874015748
        },
        {
          "duration": 0.09375,
          "durationTicks": 96,
          "midi": 63,
          "name": "D#4",
          "ticks": 174144,
          "time": 170.0625,
          "velocity": 0.3937007874015748
        },
        {
          "duration": 0.09375,
          "durationTicks": 96,
          "midi": 63,
          "name": "D#4",
          "ticks": 174240,
          "time": 170.15625,
          "velocity": 0.3937007874015748
        },
        {
          "duration": 0.09375,
          "durationTicks": 96,
          "midi": 54,
          "name": "F#3",
          "ticks": 174240,
          "time": 170.15625,
          "velocity": 0.3937007874015748
        },
        {
          "duration": 0.09375,
          "durationTicks": 96,
          "midi": 59,
          "name": "B3",
          "ticks": 174240,
          "time": 170.15625,
          "velocity": 0.3937007874015748
        },
        {
          "duration": 0.09375,
          "durationTicks": 96,
          "midi": 63,
          "name": "D#4",
          "ticks": 174336,
          "time": 170.25,
          "velocity": 0.3937007874015748
        },
        {
          "duration": 0.09375,
          "durationTicks": 96,
          "midi": 59,
          "name": "B3",
          "ticks": 174336,
          "time": 170.25,
          "velocity": 0.3937007874015748
        },
        {
          "duration": 0.09375,
          "durationTicks": 96,
          "midi": 54,
          "name": "F#3",
          "ticks": 174336,
          "time": 170.25,
          "velocity": 0.3937007874015748
        },
        {
          "duration": 0.09375,
          "durationTicks": 96,
          "midi": 59,
          "name": "B3",
          "ticks": 174432,
          "time": 170.34375,
          "velocity": 0.3937007874015748
        },
        {
          "duration": 0.09375,
          "durationTicks": 96,
          "midi": 54,
          "name": "F#3",
          "ticks": 174432,
          "time": 170.34375,
          "velocity": 0.3937007874015748
        },
        {
          "duration": 0.09375,
          "durationTicks": 96,
          "midi": 63,
          "name": "D#4",
          "ticks": 174432,
          "time": 170.34375,
          "velocity": 0.3937007874015748
        },
        {
          "duration": 0.09375,
          "durationTicks": 96,
          "midi": 54,
          "name": "F#3",
          "ticks": 174528,
          "time": 170.4375,
          "velocity": 0.3937007874015748
        },
        {
          "duration": 0.09375,
          "durationTicks": 96,
          "midi": 59,
          "name": "B3",
          "ticks": 174528,
          "time": 170.4375,
          "velocity": 0.3937007874015748
        },
        {
          "duration": 0.09375,
          "durationTicks": 96,
          "midi": 63,
          "name": "D#4",
          "ticks": 174528,
          "time": 170.4375,
          "velocity": 0.3937007874015748
        },
        {
          "duration": 0.09375,
          "durationTicks": 96,
          "midi": 59,
          "name": "B3",
          "ticks": 174624,
          "time": 170.53125,
          "velocity": 0.3937007874015748
        },
        {
          "duration": 0.09375,
          "durationTicks": 96,
          "midi": 63,
          "name": "D#4",
          "ticks": 174624,
          "time": 170.53125,
          "velocity": 0.3937007874015748
        },
        {
          "duration": 0.09375,
          "durationTicks": 96,
          "midi": 54,
          "name": "F#3",
          "ticks": 174624,
          "time": 170.53125,
          "velocity": 0.3937007874015748
        },
        {
          "duration": 0.09375,
          "durationTicks": 96,
          "midi": 54,
          "name": "F#3",
          "ticks": 174720,
          "time": 170.625,
          "velocity": 0.3937007874015748
        },
        {
          "duration": 0.09375,
          "durationTicks": 96,
          "midi": 59,
          "name": "B3",
          "ticks": 174720,
          "time": 170.625,
          "velocity": 0.3937007874015748
        },
        {
          "duration": 0.09375,
          "durationTicks": 96,
          "midi": 63,
          "name": "D#4",
          "ticks": 174720,
          "time": 170.625,
          "velocity": 0.3937007874015748
        },
        {
          "duration": 0.09375,
          "durationTicks": 96,
          "midi": 59,
          "name": "B3",
          "ticks": 174816,
          "time": 170.71875,
          "velocity": 0.3937007874015748
        },
        {
          "duration": 0.09375,
          "durationTicks": 96,
          "midi": 63,
          "name": "D#4",
          "ticks": 174816,
          "time": 170.71875,
          "velocity": 0.3937007874015748
        },
        {
          "duration": 0.09375,
          "durationTicks": 96,
          "midi": 54,
          "name": "F#3",
          "ticks": 174816,
          "time": 170.71875,
          "velocity": 0.3937007874015748
        },
        {
          "duration": 0.09375,
          "durationTicks": 96,
          "midi": 63,
          "name": "D#4",
          "ticks": 174912,
          "time": 170.8125,
          "velocity": 0.3937007874015748
        },
        {
          "duration": 0.09375,
          "durationTicks": 96,
          "midi": 54,
          "name": "F#3",
          "ticks": 174912,
          "time": 170.8125,
          "velocity": 0.3937007874015748
        },
        {
          "duration": 0.09375,
          "durationTicks": 96,
          "midi": 59,
          "name": "B3",
          "ticks": 174912,
          "time": 170.8125,
          "velocity": 0.3937007874015748
        },
        {
          "duration": 0.09375,
          "durationTicks": 96,
          "midi": 59,
          "name": "B3",
          "ticks": 175008,
          "time": 170.90625,
          "velocity": 0.3937007874015748
        },
        {
          "duration": 0.09375,
          "durationTicks": 96,
          "midi": 63,
          "name": "D#4",
          "ticks": 175008,
          "time": 170.90625,
          "velocity": 0.3937007874015748
        },
        {
          "duration": 0.09375,
          "durationTicks": 96,
          "midi": 54,
          "name": "F#3",
          "ticks": 175008,
          "time": 170.90625,
          "velocity": 0.3937007874015748
        },
        {
          "duration": 0.09375,
          "durationTicks": 96,
          "midi": 59,
          "name": "B3",
          "ticks": 175104,
          "time": 171,
          "velocity": 0.3937007874015748
        },
        {
          "duration": 0.09375,
          "durationTicks": 96,
          "midi": 62,
          "name": "D4",
          "ticks": 175104,
          "time": 171,
          "velocity": 0.3937007874015748
        },
        {
          "duration": 0.09375,
          "durationTicks": 96,
          "midi": 54,
          "name": "F#3",
          "ticks": 175104,
          "time": 171,
          "velocity": 0.3937007874015748
        },
        {
          "duration": 0.09375,
          "durationTicks": 96,
          "midi": 59,
          "name": "B3",
          "ticks": 175200,
          "time": 171.09375,
          "velocity": 0.3937007874015748
        },
        {
          "duration": 0.09375,
          "durationTicks": 96,
          "midi": 54,
          "name": "F#3",
          "ticks": 175200,
          "time": 171.09375,
          "velocity": 0.3937007874015748
        },
        {
          "duration": 0.09375,
          "durationTicks": 96,
          "midi": 62,
          "name": "D4",
          "ticks": 175200,
          "time": 171.09375,
          "velocity": 0.3937007874015748
        },
        {
          "duration": 0.09375,
          "durationTicks": 96,
          "midi": 54,
          "name": "F#3",
          "ticks": 175296,
          "time": 171.1875,
          "velocity": 0.3937007874015748
        },
        {
          "duration": 0.09375,
          "durationTicks": 96,
          "midi": 62,
          "name": "D4",
          "ticks": 175296,
          "time": 171.1875,
          "velocity": 0.3937007874015748
        },
        {
          "duration": 0.09375,
          "durationTicks": 96,
          "midi": 59,
          "name": "B3",
          "ticks": 175296,
          "time": 171.1875,
          "velocity": 0.3937007874015748
        },
        {
          "duration": 0.09375,
          "durationTicks": 96,
          "midi": 62,
          "name": "D4",
          "ticks": 175392,
          "time": 171.28125,
          "velocity": 0.3937007874015748
        },
        {
          "duration": 0.09375,
          "durationTicks": 96,
          "midi": 59,
          "name": "B3",
          "ticks": 175392,
          "time": 171.28125,
          "velocity": 0.3937007874015748
        },
        {
          "duration": 0.09375,
          "durationTicks": 96,
          "midi": 54,
          "name": "F#3",
          "ticks": 175392,
          "time": 171.28125,
          "velocity": 0.3937007874015748
        },
        {
          "duration": 0.09375,
          "durationTicks": 96,
          "midi": 59,
          "name": "B3",
          "ticks": 175488,
          "time": 171.375,
          "velocity": 0.3937007874015748
        },
        {
          "duration": 0.09375,
          "durationTicks": 96,
          "midi": 54,
          "name": "F#3",
          "ticks": 175488,
          "time": 171.375,
          "velocity": 0.3937007874015748
        },
        {
          "duration": 0.09375,
          "durationTicks": 96,
          "midi": 62,
          "name": "D4",
          "ticks": 175488,
          "time": 171.375,
          "velocity": 0.3937007874015748
        },
        {
          "duration": 0.09375,
          "durationTicks": 96,
          "midi": 62,
          "name": "D4",
          "ticks": 175584,
          "time": 171.46875,
          "velocity": 0.3937007874015748
        },
        {
          "duration": 0.09375,
          "durationTicks": 96,
          "midi": 54,
          "name": "F#3",
          "ticks": 175584,
          "time": 171.46875,
          "velocity": 0.3937007874015748
        },
        {
          "duration": 0.09375,
          "durationTicks": 96,
          "midi": 59,
          "name": "B3",
          "ticks": 175584,
          "time": 171.46875,
          "velocity": 0.3937007874015748
        },
        {
          "duration": 0.09375,
          "durationTicks": 96,
          "midi": 62,
          "name": "D4",
          "ticks": 175680,
          "time": 171.5625,
          "velocity": 0.3937007874015748
        },
        {
          "duration": 0.09375,
          "durationTicks": 96,
          "midi": 54,
          "name": "F#3",
          "ticks": 175680,
          "time": 171.5625,
          "velocity": 0.3937007874015748
        },
        {
          "duration": 0.09375,
          "durationTicks": 96,
          "midi": 59,
          "name": "B3",
          "ticks": 175680,
          "time": 171.5625,
          "velocity": 0.3937007874015748
        },
        {
          "duration": 0.09375,
          "durationTicks": 96,
          "midi": 62,
          "name": "D4",
          "ticks": 175776,
          "time": 171.65625,
          "velocity": 0.3937007874015748
        },
        {
          "duration": 0.09375,
          "durationTicks": 96,
          "midi": 54,
          "name": "F#3",
          "ticks": 175776,
          "time": 171.65625,
          "velocity": 0.3937007874015748
        },
        {
          "duration": 0.09375,
          "durationTicks": 96,
          "midi": 59,
          "name": "B3",
          "ticks": 175776,
          "time": 171.65625,
          "velocity": 0.3937007874015748
        },
        {
          "duration": 0.09375,
          "durationTicks": 96,
          "midi": 62,
          "name": "D4",
          "ticks": 175872,
          "time": 171.75,
          "velocity": 0.3937007874015748
        },
        {
          "duration": 0.09375,
          "durationTicks": 96,
          "midi": 59,
          "name": "B3",
          "ticks": 175872,
          "time": 171.75,
          "velocity": 0.3937007874015748
        },
        {
          "duration": 0.09375,
          "durationTicks": 96,
          "midi": 54,
          "name": "F#3",
          "ticks": 175872,
          "time": 171.75,
          "velocity": 0.3937007874015748
        },
        {
          "duration": 0.09375,
          "durationTicks": 96,
          "midi": 62,
          "name": "D4",
          "ticks": 175968,
          "time": 171.84375,
          "velocity": 0.3937007874015748
        },
        {
          "duration": 0.09375,
          "durationTicks": 96,
          "midi": 54,
          "name": "F#3",
          "ticks": 175968,
          "time": 171.84375,
          "velocity": 0.3937007874015748
        },
        {
          "duration": 0.09375,
          "durationTicks": 96,
          "midi": 59,
          "name": "B3",
          "ticks": 175968,
          "time": 171.84375,
          "velocity": 0.3937007874015748
        },
        {
          "duration": 0.09375,
          "durationTicks": 96,
          "midi": 54,
          "name": "F#3",
          "ticks": 176064,
          "time": 171.9375,
          "velocity": 0.3937007874015748
        },
        {
          "duration": 0.09375,
          "durationTicks": 96,
          "midi": 59,
          "name": "B3",
          "ticks": 176064,
          "time": 171.9375,
          "velocity": 0.3937007874015748
        },
        {
          "duration": 0.09375,
          "durationTicks": 96,
          "midi": 62,
          "name": "D4",
          "ticks": 176064,
          "time": 171.9375,
          "velocity": 0.3937007874015748
        },
        {
          "duration": 0.09375,
          "durationTicks": 96,
          "midi": 59,
          "name": "B3",
          "ticks": 176160,
          "time": 172.03125,
          "velocity": 0.3937007874015748
        },
        {
          "duration": 0.09375,
          "durationTicks": 96,
          "midi": 54,
          "name": "F#3",
          "ticks": 176160,
          "time": 172.03125,
          "velocity": 0.3937007874015748
        },
        {
          "duration": 0.09375,
          "durationTicks": 96,
          "midi": 62,
          "name": "D4",
          "ticks": 176160,
          "time": 172.03125,
          "velocity": 0.3937007874015748
        },
        {
          "duration": 0.09375,
          "durationTicks": 96,
          "midi": 62,
          "name": "D4",
          "ticks": 176256,
          "time": 172.125,
          "velocity": 0.3937007874015748
        },
        {
          "duration": 0.09375,
          "durationTicks": 96,
          "midi": 54,
          "name": "F#3",
          "ticks": 176256,
          "time": 172.125,
          "velocity": 0.3937007874015748
        },
        {
          "duration": 0.09375,
          "durationTicks": 96,
          "midi": 59,
          "name": "B3",
          "ticks": 176256,
          "time": 172.125,
          "velocity": 0.3937007874015748
        },
        {
          "duration": 0.09375,
          "durationTicks": 96,
          "midi": 54,
          "name": "F#3",
          "ticks": 176352,
          "time": 172.21875,
          "velocity": 0.3937007874015748
        },
        {
          "duration": 0.09375,
          "durationTicks": 96,
          "midi": 59,
          "name": "B3",
          "ticks": 176352,
          "time": 172.21875,
          "velocity": 0.3937007874015748
        },
        {
          "duration": 0.09375,
          "durationTicks": 96,
          "midi": 62,
          "name": "D4",
          "ticks": 176352,
          "time": 172.21875,
          "velocity": 0.3937007874015748
        },
        {
          "duration": 0.09375,
          "durationTicks": 96,
          "midi": 54,
          "name": "F#3",
          "ticks": 176448,
          "time": 172.3125,
          "velocity": 0.3937007874015748
        },
        {
          "duration": 0.09375,
          "durationTicks": 96,
          "midi": 59,
          "name": "B3",
          "ticks": 176448,
          "time": 172.3125,
          "velocity": 0.3937007874015748
        },
        {
          "duration": 0.09375,
          "durationTicks": 96,
          "midi": 62,
          "name": "D4",
          "ticks": 176448,
          "time": 172.3125,
          "velocity": 0.3937007874015748
        },
        {
          "duration": 0.09375,
          "durationTicks": 96,
          "midi": 54,
          "name": "F#3",
          "ticks": 176544,
          "time": 172.40625,
          "velocity": 0.3937007874015748
        },
        {
          "duration": 0.09375,
          "durationTicks": 96,
          "midi": 62,
          "name": "D4",
          "ticks": 176544,
          "time": 172.40625,
          "velocity": 0.3937007874015748
        },
        {
          "duration": 0.09375,
          "durationTicks": 96,
          "midi": 59,
          "name": "B3",
          "ticks": 176544,
          "time": 172.40625,
          "velocity": 0.3937007874015748
        },
        {
          "duration": 0.09375,
          "durationTicks": 96,
          "midi": 58,
          "name": "A#3",
          "ticks": 176640,
          "time": 172.5,
          "velocity": 0.3937007874015748
        },
        {
          "duration": 0.09375,
          "durationTicks": 96,
          "midi": 61,
          "name": "C#4",
          "ticks": 176640,
          "time": 172.5,
          "velocity": 0.3937007874015748
        },
        {
          "duration": 0.09375,
          "durationTicks": 96,
          "midi": 54,
          "name": "F#3",
          "ticks": 176640,
          "time": 172.5,
          "velocity": 0.3937007874015748
        },
        {
          "duration": 0.09375,
          "durationTicks": 96,
          "midi": 61,
          "name": "C#4",
          "ticks": 176736,
          "time": 172.59375,
          "velocity": 0.3937007874015748
        },
        {
          "duration": 0.09375,
          "durationTicks": 96,
          "midi": 58,
          "name": "A#3",
          "ticks": 176736,
          "time": 172.59375,
          "velocity": 0.3937007874015748
        },
        {
          "duration": 0.09375,
          "durationTicks": 96,
          "midi": 54,
          "name": "F#3",
          "ticks": 176736,
          "time": 172.59375,
          "velocity": 0.3937007874015748
        },
        {
          "duration": 0.09375,
          "durationTicks": 96,
          "midi": 54,
          "name": "F#3",
          "ticks": 176832,
          "time": 172.6875,
          "velocity": 0.3937007874015748
        },
        {
          "duration": 0.09375,
          "durationTicks": 96,
          "midi": 58,
          "name": "A#3",
          "ticks": 176832,
          "time": 172.6875,
          "velocity": 0.3937007874015748
        },
        {
          "duration": 0.09375,
          "durationTicks": 96,
          "midi": 61,
          "name": "C#4",
          "ticks": 176832,
          "time": 172.6875,
          "velocity": 0.3937007874015748
        },
        {
          "duration": 0.09375,
          "durationTicks": 96,
          "midi": 61,
          "name": "C#4",
          "ticks": 176928,
          "time": 172.78125,
          "velocity": 0.3937007874015748
        },
        {
          "duration": 0.09375,
          "durationTicks": 96,
          "midi": 58,
          "name": "A#3",
          "ticks": 176928,
          "time": 172.78125,
          "velocity": 0.3937007874015748
        },
        {
          "duration": 0.09375,
          "durationTicks": 96,
          "midi": 54,
          "name": "F#3",
          "ticks": 176928,
          "time": 172.78125,
          "velocity": 0.3937007874015748
        },
        {
          "duration": 0.09375,
          "durationTicks": 96,
          "midi": 54,
          "name": "F#3",
          "ticks": 177024,
          "time": 172.875,
          "velocity": 0.3937007874015748
        },
        {
          "duration": 0.09375,
          "durationTicks": 96,
          "midi": 61,
          "name": "C#4",
          "ticks": 177024,
          "time": 172.875,
          "velocity": 0.3937007874015748
        },
        {
          "duration": 0.09375,
          "durationTicks": 96,
          "midi": 58,
          "name": "A#3",
          "ticks": 177024,
          "time": 172.875,
          "velocity": 0.3937007874015748
        },
        {
          "duration": 0.09375,
          "durationTicks": 96,
          "midi": 61,
          "name": "C#4",
          "ticks": 177120,
          "time": 172.96875,
          "velocity": 0.3937007874015748
        },
        {
          "duration": 0.09375,
          "durationTicks": 96,
          "midi": 58,
          "name": "A#3",
          "ticks": 177120,
          "time": 172.96875,
          "velocity": 0.3937007874015748
        },
        {
          "duration": 0.09375,
          "durationTicks": 96,
          "midi": 54,
          "name": "F#3",
          "ticks": 177120,
          "time": 172.96875,
          "velocity": 0.3937007874015748
        },
        {
          "duration": 0.09375,
          "durationTicks": 96,
          "midi": 58,
          "name": "A#3",
          "ticks": 177216,
          "time": 173.0625,
          "velocity": 0.3937007874015748
        },
        {
          "duration": 0.09375,
          "durationTicks": 96,
          "midi": 54,
          "name": "F#3",
          "ticks": 177216,
          "time": 173.0625,
          "velocity": 0.3937007874015748
        },
        {
          "duration": 0.09375,
          "durationTicks": 96,
          "midi": 61,
          "name": "C#4",
          "ticks": 177216,
          "time": 173.0625,
          "velocity": 0.3937007874015748
        },
        {
          "duration": 0.09375,
          "durationTicks": 96,
          "midi": 54,
          "name": "F#3",
          "ticks": 177312,
          "time": 173.15625,
          "velocity": 0.3937007874015748
        },
        {
          "duration": 0.09375,
          "durationTicks": 96,
          "midi": 58,
          "name": "A#3",
          "ticks": 177312,
          "time": 173.15625,
          "velocity": 0.3937007874015748
        },
        {
          "duration": 0.09375,
          "durationTicks": 96,
          "midi": 61,
          "name": "C#4",
          "ticks": 177312,
          "time": 173.15625,
          "velocity": 0.3937007874015748
        },
        {
          "duration": 0.09375,
          "durationTicks": 96,
          "midi": 61,
          "name": "C#4",
          "ticks": 177408,
          "time": 173.25,
          "velocity": 0.3937007874015748
        },
        {
          "duration": 0.09375,
          "durationTicks": 96,
          "midi": 58,
          "name": "A#3",
          "ticks": 177408,
          "time": 173.25,
          "velocity": 0.3937007874015748
        },
        {
          "duration": 0.09375,
          "durationTicks": 96,
          "midi": 54,
          "name": "F#3",
          "ticks": 177408,
          "time": 173.25,
          "velocity": 0.3937007874015748
        },
        {
          "duration": 0.09375,
          "durationTicks": 96,
          "midi": 61,
          "name": "C#4",
          "ticks": 177504,
          "time": 173.34375,
          "velocity": 0.3937007874015748
        },
        {
          "duration": 0.09375,
          "durationTicks": 96,
          "midi": 58,
          "name": "A#3",
          "ticks": 177504,
          "time": 173.34375,
          "velocity": 0.3937007874015748
        },
        {
          "duration": 0.09375,
          "durationTicks": 96,
          "midi": 54,
          "name": "F#3",
          "ticks": 177504,
          "time": 173.34375,
          "velocity": 0.3937007874015748
        },
        {
          "duration": 0.09375,
          "durationTicks": 96,
          "midi": 58,
          "name": "A#3",
          "ticks": 177600,
          "time": 173.4375,
          "velocity": 0.3937007874015748
        },
        {
          "duration": 0.09375,
          "durationTicks": 96,
          "midi": 54,
          "name": "F#3",
          "ticks": 177600,
          "time": 173.4375,
          "velocity": 0.3937007874015748
        },
        {
          "duration": 0.09375,
          "durationTicks": 96,
          "midi": 61,
          "name": "C#4",
          "ticks": 177600,
          "time": 173.4375,
          "velocity": 0.3937007874015748
        },
        {
          "duration": 0.09375,
          "durationTicks": 96,
          "midi": 58,
          "name": "A#3",
          "ticks": 177696,
          "time": 173.53125,
          "velocity": 0.3937007874015748
        },
        {
          "duration": 0.09375,
          "durationTicks": 96,
          "midi": 61,
          "name": "C#4",
          "ticks": 177696,
          "time": 173.53125,
          "velocity": 0.3937007874015748
        },
        {
          "duration": 0.09375,
          "durationTicks": 96,
          "midi": 54,
          "name": "F#3",
          "ticks": 177696,
          "time": 173.53125,
          "velocity": 0.3937007874015748
        },
        {
          "duration": 0.09375,
          "durationTicks": 96,
          "midi": 61,
          "name": "C#4",
          "ticks": 177792,
          "time": 173.625,
          "velocity": 0.3937007874015748
        },
        {
          "duration": 0.09375,
          "durationTicks": 96,
          "midi": 54,
          "name": "F#3",
          "ticks": 177792,
          "time": 173.625,
          "velocity": 0.3937007874015748
        },
        {
          "duration": 0.09375,
          "durationTicks": 96,
          "midi": 58,
          "name": "A#3",
          "ticks": 177792,
          "time": 173.625,
          "velocity": 0.3937007874015748
        },
        {
          "duration": 0.09375,
          "durationTicks": 96,
          "midi": 58,
          "name": "A#3",
          "ticks": 177888,
          "time": 173.71875,
          "velocity": 0.3937007874015748
        },
        {
          "duration": 0.09375,
          "durationTicks": 96,
          "midi": 54,
          "name": "F#3",
          "ticks": 177888,
          "time": 173.71875,
          "velocity": 0.3937007874015748
        },
        {
          "duration": 0.09375,
          "durationTicks": 96,
          "midi": 61,
          "name": "C#4",
          "ticks": 177888,
          "time": 173.71875,
          "velocity": 0.3937007874015748
        },
        {
          "duration": 0.09375,
          "durationTicks": 96,
          "midi": 61,
          "name": "C#4",
          "ticks": 177984,
          "time": 173.8125,
          "velocity": 0.3937007874015748
        },
        {
          "duration": 0.09375,
          "durationTicks": 96,
          "midi": 54,
          "name": "F#3",
          "ticks": 177984,
          "time": 173.8125,
          "velocity": 0.3937007874015748
        },
        {
          "duration": 0.09375,
          "durationTicks": 96,
          "midi": 58,
          "name": "A#3",
          "ticks": 177984,
          "time": 173.8125,
          "velocity": 0.3937007874015748
        },
        {
          "duration": 0.09375,
          "durationTicks": 96,
          "midi": 61,
          "name": "C#4",
          "ticks": 178080,
          "time": 173.90625,
          "velocity": 0.3937007874015748
        },
        {
          "duration": 0.09375,
          "durationTicks": 96,
          "midi": 58,
          "name": "A#3",
          "ticks": 178080,
          "time": 173.90625,
          "velocity": 0.3937007874015748
        },
        {
          "duration": 0.09375,
          "durationTicks": 96,
          "midi": 54,
          "name": "F#3",
          "ticks": 178080,
          "time": 173.90625,
          "velocity": 0.3937007874015748
        },
        {
          "duration": 0.09375,
          "durationTicks": 96,
          "midi": 57,
          "name": "A3",
          "ticks": 178176,
          "time": 174,
          "velocity": 0.3937007874015748
        },
        {
          "duration": 0.09375,
          "durationTicks": 96,
          "midi": 52,
          "name": "E3",
          "ticks": 178176,
          "time": 174,
          "velocity": 0.3937007874015748
        },
        {
          "duration": 0.09375,
          "durationTicks": 96,
          "midi": 60,
          "name": "C4",
          "ticks": 178176,
          "time": 174,
          "velocity": 0.3937007874015748
        },
        {
          "duration": 0.09375,
          "durationTicks": 96,
          "midi": 57,
          "name": "A3",
          "ticks": 178272,
          "time": 174.09375,
          "velocity": 0.3937007874015748
        },
        {
          "duration": 0.09375,
          "durationTicks": 96,
          "midi": 60,
          "name": "C4",
          "ticks": 178272,
          "time": 174.09375,
          "velocity": 0.3937007874015748
        },
        {
          "duration": 0.09375,
          "durationTicks": 96,
          "midi": 52,
          "name": "E3",
          "ticks": 178272,
          "time": 174.09375,
          "velocity": 0.3937007874015748
        },
        {
          "duration": 0.09375,
          "durationTicks": 96,
          "midi": 60,
          "name": "C4",
          "ticks": 178368,
          "time": 174.1875,
          "velocity": 0.3937007874015748
        },
        {
          "duration": 0.09375,
          "durationTicks": 96,
          "midi": 52,
          "name": "E3",
          "ticks": 178368,
          "time": 174.1875,
          "velocity": 0.3937007874015748
        },
        {
          "duration": 0.09375,
          "durationTicks": 96,
          "midi": 57,
          "name": "A3",
          "ticks": 178368,
          "time": 174.1875,
          "velocity": 0.3937007874015748
        },
        {
          "duration": 0.09375,
          "durationTicks": 96,
          "midi": 60,
          "name": "C4",
          "ticks": 178464,
          "time": 174.28125,
          "velocity": 0.3937007874015748
        },
        {
          "duration": 0.09375,
          "durationTicks": 96,
          "midi": 57,
          "name": "A3",
          "ticks": 178464,
          "time": 174.28125,
          "velocity": 0.3937007874015748
        },
        {
          "duration": 0.09375,
          "durationTicks": 96,
          "midi": 52,
          "name": "E3",
          "ticks": 178464,
          "time": 174.28125,
          "velocity": 0.3937007874015748
        },
        {
          "duration": 0.09375,
          "durationTicks": 96,
          "midi": 60,
          "name": "C4",
          "ticks": 178560,
          "time": 174.375,
          "velocity": 0.3937007874015748
        },
        {
          "duration": 0.09375,
          "durationTicks": 96,
          "midi": 52,
          "name": "E3",
          "ticks": 178560,
          "time": 174.375,
          "velocity": 0.3937007874015748
        },
        {
          "duration": 0.09375,
          "durationTicks": 96,
          "midi": 57,
          "name": "A3",
          "ticks": 178560,
          "time": 174.375,
          "velocity": 0.3937007874015748
        },
        {
          "duration": 0.09375,
          "durationTicks": 96,
          "midi": 57,
          "name": "A3",
          "ticks": 178656,
          "time": 174.46875,
          "velocity": 0.3937007874015748
        },
        {
          "duration": 0.09375,
          "durationTicks": 96,
          "midi": 60,
          "name": "C4",
          "ticks": 178656,
          "time": 174.46875,
          "velocity": 0.3937007874015748
        },
        {
          "duration": 0.09375,
          "durationTicks": 96,
          "midi": 52,
          "name": "E3",
          "ticks": 178656,
          "time": 174.46875,
          "velocity": 0.3937007874015748
        },
        {
          "duration": 0.09375,
          "durationTicks": 96,
          "midi": 57,
          "name": "A3",
          "ticks": 178752,
          "time": 174.5625,
          "velocity": 0.3937007874015748
        },
        {
          "duration": 0.09375,
          "durationTicks": 96,
          "midi": 52,
          "name": "E3",
          "ticks": 178752,
          "time": 174.5625,
          "velocity": 0.3937007874015748
        },
        {
          "duration": 0.09375,
          "durationTicks": 96,
          "midi": 60,
          "name": "C4",
          "ticks": 178752,
          "time": 174.5625,
          "velocity": 0.3937007874015748
        },
        {
          "duration": 0.09375,
          "durationTicks": 96,
          "midi": 57,
          "name": "A3",
          "ticks": 178848,
          "time": 174.65625,
          "velocity": 0.3937007874015748
        },
        {
          "duration": 0.09375,
          "durationTicks": 96,
          "midi": 60,
          "name": "C4",
          "ticks": 178848,
          "time": 174.65625,
          "velocity": 0.3937007874015748
        },
        {
          "duration": 0.09375,
          "durationTicks": 96,
          "midi": 52,
          "name": "E3",
          "ticks": 178848,
          "time": 174.65625,
          "velocity": 0.3937007874015748
        },
        {
          "duration": 0.09375,
          "durationTicks": 96,
          "midi": 60,
          "name": "C4",
          "ticks": 178944,
          "time": 174.75,
          "velocity": 0.3937007874015748
        },
        {
          "duration": 0.09375,
          "durationTicks": 96,
          "midi": 57,
          "name": "A3",
          "ticks": 178944,
          "time": 174.75,
          "velocity": 0.3937007874015748
        },
        {
          "duration": 0.09375,
          "durationTicks": 96,
          "midi": 52,
          "name": "E3",
          "ticks": 178944,
          "time": 174.75,
          "velocity": 0.3937007874015748
        },
        {
          "duration": 0.09375,
          "durationTicks": 96,
          "midi": 52,
          "name": "E3",
          "ticks": 179040,
          "time": 174.84375,
          "velocity": 0.3937007874015748
        },
        {
          "duration": 0.09375,
          "durationTicks": 96,
          "midi": 57,
          "name": "A3",
          "ticks": 179040,
          "time": 174.84375,
          "velocity": 0.3937007874015748
        },
        {
          "duration": 0.09375,
          "durationTicks": 96,
          "midi": 60,
          "name": "C4",
          "ticks": 179040,
          "time": 174.84375,
          "velocity": 0.3937007874015748
        },
        {
          "duration": 0.09375,
          "durationTicks": 96,
          "midi": 52,
          "name": "E3",
          "ticks": 179136,
          "time": 174.9375,
          "velocity": 0.3937007874015748
        },
        {
          "duration": 0.09375,
          "durationTicks": 96,
          "midi": 60,
          "name": "C4",
          "ticks": 179136,
          "time": 174.9375,
          "velocity": 0.3937007874015748
        },
        {
          "duration": 0.09375,
          "durationTicks": 96,
          "midi": 57,
          "name": "A3",
          "ticks": 179136,
          "time": 174.9375,
          "velocity": 0.3937007874015748
        },
        {
          "duration": 0.09375,
          "durationTicks": 96,
          "midi": 52,
          "name": "E3",
          "ticks": 179232,
          "time": 175.03125,
          "velocity": 0.3937007874015748
        },
        {
          "duration": 0.09375,
          "durationTicks": 96,
          "midi": 60,
          "name": "C4",
          "ticks": 179232,
          "time": 175.03125,
          "velocity": 0.3937007874015748
        },
        {
          "duration": 0.09375,
          "durationTicks": 96,
          "midi": 57,
          "name": "A3",
          "ticks": 179232,
          "time": 175.03125,
          "velocity": 0.3937007874015748
        },
        {
          "duration": 0.09375,
          "durationTicks": 96,
          "midi": 60,
          "name": "C4",
          "ticks": 179328,
          "time": 175.125,
          "velocity": 0.3937007874015748
        },
        {
          "duration": 0.09375,
          "durationTicks": 96,
          "midi": 52,
          "name": "E3",
          "ticks": 179328,
          "time": 175.125,
          "velocity": 0.3937007874015748
        },
        {
          "duration": 0.09375,
          "durationTicks": 96,
          "midi": 57,
          "name": "A3",
          "ticks": 179328,
          "time": 175.125,
          "velocity": 0.3937007874015748
        },
        {
          "duration": 0.09375,
          "durationTicks": 96,
          "midi": 52,
          "name": "E3",
          "ticks": 179424,
          "time": 175.21875,
          "velocity": 0.3937007874015748
        },
        {
          "duration": 0.09375,
          "durationTicks": 96,
          "midi": 57,
          "name": "A3",
          "ticks": 179424,
          "time": 175.21875,
          "velocity": 0.3937007874015748
        },
        {
          "duration": 0.09375,
          "durationTicks": 96,
          "midi": 60,
          "name": "C4",
          "ticks": 179424,
          "time": 175.21875,
          "velocity": 0.3937007874015748
        },
        {
          "duration": 0.09375,
          "durationTicks": 96,
          "midi": 57,
          "name": "A3",
          "ticks": 179520,
          "time": 175.3125,
          "velocity": 0.3937007874015748
        },
        {
          "duration": 0.09375,
          "durationTicks": 96,
          "midi": 52,
          "name": "E3",
          "ticks": 179520,
          "time": 175.3125,
          "velocity": 0.3937007874015748
        },
        {
          "duration": 0.09375,
          "durationTicks": 96,
          "midi": 60,
          "name": "C4",
          "ticks": 179520,
          "time": 175.3125,
          "velocity": 0.3937007874015748
        },
        {
          "duration": 0.09375,
          "durationTicks": 96,
          "midi": 57,
          "name": "A3",
          "ticks": 179616,
          "time": 175.40625,
          "velocity": 0.3937007874015748
        },
        {
          "duration": 0.09375,
          "durationTicks": 96,
          "midi": 52,
          "name": "E3",
          "ticks": 179616,
          "time": 175.40625,
          "velocity": 0.3937007874015748
        },
        {
          "duration": 0.09375,
          "durationTicks": 96,
          "midi": 60,
          "name": "C4",
          "ticks": 179616,
          "time": 175.40625,
          "velocity": 0.3937007874015748
        },
        {
          "duration": 0.09375,
          "durationTicks": 96,
          "midi": 51,
          "name": "D#3",
          "ticks": 179712,
          "time": 175.5,
          "velocity": 0.3937007874015748
        },
        {
          "duration": 0.09375,
          "durationTicks": 96,
          "midi": 54,
          "name": "F#3",
          "ticks": 179712,
          "time": 175.5,
          "velocity": 0.3937007874015748
        },
        {
          "duration": 0.09375,
          "durationTicks": 96,
          "midi": 59,
          "name": "B3",
          "ticks": 179712,
          "time": 175.5,
          "velocity": 0.3937007874015748
        },
        {
          "duration": 0.09375,
          "durationTicks": 96,
          "midi": 51,
          "name": "D#3",
          "ticks": 179808,
          "time": 175.59375,
          "velocity": 0.3937007874015748
        },
        {
          "duration": 0.09375,
          "durationTicks": 96,
          "midi": 54,
          "name": "F#3",
          "ticks": 179808,
          "time": 175.59375,
          "velocity": 0.3937007874015748
        },
        {
          "duration": 0.09375,
          "durationTicks": 96,
          "midi": 59,
          "name": "B3",
          "ticks": 179808,
          "time": 175.59375,
          "velocity": 0.3937007874015748
        },
        {
          "duration": 0.09375,
          "durationTicks": 96,
          "midi": 59,
          "name": "B3",
          "ticks": 179904,
          "time": 175.6875,
          "velocity": 0.3937007874015748
        },
        {
          "duration": 0.09375,
          "durationTicks": 96,
          "midi": 54,
          "name": "F#3",
          "ticks": 179904,
          "time": 175.6875,
          "velocity": 0.3937007874015748
        },
        {
          "duration": 0.09375,
          "durationTicks": 96,
          "midi": 51,
          "name": "D#3",
          "ticks": 179904,
          "time": 175.6875,
          "velocity": 0.3937007874015748
        },
        {
          "duration": 0.09375,
          "durationTicks": 96,
          "midi": 51,
          "name": "D#3",
          "ticks": 180000,
          "time": 175.78125,
          "velocity": 0.3937007874015748
        },
        {
          "duration": 0.09375,
          "durationTicks": 96,
          "midi": 59,
          "name": "B3",
          "ticks": 180000,
          "time": 175.78125,
          "velocity": 0.3937007874015748
        },
        {
          "duration": 0.09375,
          "durationTicks": 96,
          "midi": 54,
          "name": "F#3",
          "ticks": 180000,
          "time": 175.78125,
          "velocity": 0.3937007874015748
        },
        {
          "duration": 0.09375,
          "durationTicks": 96,
          "midi": 51,
          "name": "D#3",
          "ticks": 180096,
          "time": 175.875,
          "velocity": 0.3937007874015748
        },
        {
          "duration": 0.09375,
          "durationTicks": 96,
          "midi": 54,
          "name": "F#3",
          "ticks": 180096,
          "time": 175.875,
          "velocity": 0.3937007874015748
        },
        {
          "duration": 0.09375,
          "durationTicks": 96,
          "midi": 59,
          "name": "B3",
          "ticks": 180096,
          "time": 175.875,
          "velocity": 0.3937007874015748
        },
        {
          "duration": 0.09375,
          "durationTicks": 96,
          "midi": 59,
          "name": "B3",
          "ticks": 180192,
          "time": 175.96875,
          "velocity": 0.3937007874015748
        },
        {
          "duration": 0.09375,
          "durationTicks": 96,
          "midi": 54,
          "name": "F#3",
          "ticks": 180192,
          "time": 175.96875,
          "velocity": 0.3937007874015748
        },
        {
          "duration": 0.09375,
          "durationTicks": 96,
          "midi": 51,
          "name": "D#3",
          "ticks": 180192,
          "time": 175.96875,
          "velocity": 0.3937007874015748
        },
        {
          "duration": 0.09375,
          "durationTicks": 96,
          "midi": 54,
          "name": "F#3",
          "ticks": 180288,
          "time": 176.0625,
          "velocity": 0.3937007874015748
        },
        {
          "duration": 0.09375,
          "durationTicks": 96,
          "midi": 51,
          "name": "D#3",
          "ticks": 180288,
          "time": 176.0625,
          "velocity": 0.3937007874015748
        },
        {
          "duration": 0.09375,
          "durationTicks": 96,
          "midi": 59,
          "name": "B3",
          "ticks": 180288,
          "time": 176.0625,
          "velocity": 0.3937007874015748
        },
        {
          "duration": 0.09375,
          "durationTicks": 96,
          "midi": 51,
          "name": "D#3",
          "ticks": 180384,
          "time": 176.15625,
          "velocity": 0.3937007874015748
        },
        {
          "duration": 0.09375,
          "durationTicks": 96,
          "midi": 59,
          "name": "B3",
          "ticks": 180384,
          "time": 176.15625,
          "velocity": 0.3937007874015748
        },
        {
          "duration": 0.09375,
          "durationTicks": 96,
          "midi": 54,
          "name": "F#3",
          "ticks": 180384,
          "time": 176.15625,
          "velocity": 0.3937007874015748
        },
        {
          "duration": 0.09375,
          "durationTicks": 96,
          "midi": 59,
          "name": "B3",
          "ticks": 180480,
          "time": 176.25,
          "velocity": 0.3937007874015748
        },
        {
          "duration": 0.09375,
          "durationTicks": 96,
          "midi": 54,
          "name": "F#3",
          "ticks": 180480,
          "time": 176.25,
          "velocity": 0.3937007874015748
        },
        {
          "duration": 0.09375,
          "durationTicks": 96,
          "midi": 51,
          "name": "D#3",
          "ticks": 180480,
          "time": 176.25,
          "velocity": 0.3937007874015748
        },
        {
          "duration": 0.09375,
          "durationTicks": 96,
          "midi": 51,
          "name": "D#3",
          "ticks": 180576,
          "time": 176.34375,
          "velocity": 0.3937007874015748
        },
        {
          "duration": 0.09375,
          "durationTicks": 96,
          "midi": 54,
          "name": "F#3",
          "ticks": 180576,
          "time": 176.34375,
          "velocity": 0.3937007874015748
        },
        {
          "duration": 0.09375,
          "durationTicks": 96,
          "midi": 59,
          "name": "B3",
          "ticks": 180576,
          "time": 176.34375,
          "velocity": 0.3937007874015748
        },
        {
          "duration": 0.09375,
          "durationTicks": 96,
          "midi": 51,
          "name": "D#3",
          "ticks": 180672,
          "time": 176.4375,
          "velocity": 0.3937007874015748
        },
        {
          "duration": 0.09375,
          "durationTicks": 96,
          "midi": 59,
          "name": "B3",
          "ticks": 180672,
          "time": 176.4375,
          "velocity": 0.3937007874015748
        },
        {
          "duration": 0.09375,
          "durationTicks": 96,
          "midi": 54,
          "name": "F#3",
          "ticks": 180672,
          "time": 176.4375,
          "velocity": 0.3937007874015748
        },
        {
          "duration": 0.09375,
          "durationTicks": 96,
          "midi": 51,
          "name": "D#3",
          "ticks": 180768,
          "time": 176.53125,
          "velocity": 0.3937007874015748
        },
        {
          "duration": 0.09375,
          "durationTicks": 96,
          "midi": 54,
          "name": "F#3",
          "ticks": 180768,
          "time": 176.53125,
          "velocity": 0.3937007874015748
        },
        {
          "duration": 0.09375,
          "durationTicks": 96,
          "midi": 59,
          "name": "B3",
          "ticks": 180768,
          "time": 176.53125,
          "velocity": 0.3937007874015748
        },
        {
          "duration": 0.09375,
          "durationTicks": 96,
          "midi": 54,
          "name": "F#3",
          "ticks": 180864,
          "time": 176.625,
          "velocity": 0.3937007874015748
        },
        {
          "duration": 0.09375,
          "durationTicks": 96,
          "midi": 59,
          "name": "B3",
          "ticks": 180864,
          "time": 176.625,
          "velocity": 0.3937007874015748
        },
        {
          "duration": 0.09375,
          "durationTicks": 96,
          "midi": 51,
          "name": "D#3",
          "ticks": 180864,
          "time": 176.625,
          "velocity": 0.3937007874015748
        },
        {
          "duration": 0.09375,
          "durationTicks": 96,
          "midi": 59,
          "name": "B3",
          "ticks": 180960,
          "time": 176.71875,
          "velocity": 0.3937007874015748
        },
        {
          "duration": 0.09375,
          "durationTicks": 96,
          "midi": 51,
          "name": "D#3",
          "ticks": 180960,
          "time": 176.71875,
          "velocity": 0.3937007874015748
        },
        {
          "duration": 0.09375,
          "durationTicks": 96,
          "midi": 54,
          "name": "F#3",
          "ticks": 180960,
          "time": 176.71875,
          "velocity": 0.3937007874015748
        },
        {
          "duration": 0.09375,
          "durationTicks": 96,
          "midi": 59,
          "name": "B3",
          "ticks": 181056,
          "time": 176.8125,
          "velocity": 0.3937007874015748
        },
        {
          "duration": 0.09375,
          "durationTicks": 96,
          "midi": 54,
          "name": "F#3",
          "ticks": 181056,
          "time": 176.8125,
          "velocity": 0.3937007874015748
        },
        {
          "duration": 0.09375,
          "durationTicks": 96,
          "midi": 51,
          "name": "D#3",
          "ticks": 181056,
          "time": 176.8125,
          "velocity": 0.3937007874015748
        },
        {
          "duration": 0.09375,
          "durationTicks": 96,
          "midi": 59,
          "name": "B3",
          "ticks": 181152,
          "time": 176.90625,
          "velocity": 0.3937007874015748
        },
        {
          "duration": 0.09375,
          "durationTicks": 96,
          "midi": 51,
          "name": "D#3",
          "ticks": 181152,
          "time": 176.90625,
          "velocity": 0.3937007874015748
        },
        {
          "duration": 0.09375,
          "durationTicks": 96,
          "midi": 54,
          "name": "F#3",
          "ticks": 181152,
          "time": 176.90625,
          "velocity": 0.3937007874015748
        },
        {
          "duration": 0.09375,
          "durationTicks": 96,
          "midi": 65,
          "name": "F4",
          "ticks": 193536,
          "time": 189,
          "velocity": 0.3937007874015748
        },
        {
          "duration": 0.09375,
          "durationTicks": 96,
          "midi": 60,
          "name": "C4",
          "ticks": 193536,
          "time": 189,
          "velocity": 0.3937007874015748
        },
        {
          "duration": 0.09375,
          "durationTicks": 96,
          "midi": 56,
          "name": "G#3",
          "ticks": 193536,
          "time": 189,
          "velocity": 0.3937007874015748
        },
        {
          "duration": 0.09375,
          "durationTicks": 96,
          "midi": 60,
          "name": "C4",
          "ticks": 193632,
          "time": 189.09375,
          "velocity": 0.3937007874015748
        },
        {
          "duration": 0.09375,
          "durationTicks": 96,
          "midi": 56,
          "name": "G#3",
          "ticks": 193632,
          "time": 189.09375,
          "velocity": 0.3937007874015748
        },
        {
          "duration": 0.09375,
          "durationTicks": 96,
          "midi": 65,
          "name": "F4",
          "ticks": 193632,
          "time": 189.09375,
          "velocity": 0.3937007874015748
        },
        {
          "duration": 0.09375,
          "durationTicks": 96,
          "midi": 60,
          "name": "C4",
          "ticks": 193728,
          "time": 189.1875,
          "velocity": 0.3937007874015748
        },
        {
          "duration": 0.09375,
          "durationTicks": 96,
          "midi": 56,
          "name": "G#3",
          "ticks": 193728,
          "time": 189.1875,
          "velocity": 0.3937007874015748
        },
        {
          "duration": 0.09375,
          "durationTicks": 96,
          "midi": 65,
          "name": "F4",
          "ticks": 193728,
          "time": 189.1875,
          "velocity": 0.3937007874015748
        },
        {
          "duration": 0.09375,
          "durationTicks": 96,
          "midi": 60,
          "name": "C4",
          "ticks": 193824,
          "time": 189.28125,
          "velocity": 0.3937007874015748
        },
        {
          "duration": 0.09375,
          "durationTicks": 96,
          "midi": 65,
          "name": "F4",
          "ticks": 193824,
          "time": 189.28125,
          "velocity": 0.3937007874015748
        },
        {
          "duration": 0.09375,
          "durationTicks": 96,
          "midi": 56,
          "name": "G#3",
          "ticks": 193824,
          "time": 189.28125,
          "velocity": 0.3937007874015748
        },
        {
          "duration": 0.09375,
          "durationTicks": 96,
          "midi": 65,
          "name": "F4",
          "ticks": 193920,
          "time": 189.375,
          "velocity": 0.3937007874015748
        },
        {
          "duration": 0.09375,
          "durationTicks": 96,
          "midi": 60,
          "name": "C4",
          "ticks": 193920,
          "time": 189.375,
          "velocity": 0.3937007874015748
        },
        {
          "duration": 0.09375,
          "durationTicks": 96,
          "midi": 56,
          "name": "G#3",
          "ticks": 193920,
          "time": 189.375,
          "velocity": 0.3937007874015748
        },
        {
          "duration": 0.09375,
          "durationTicks": 96,
          "midi": 65,
          "name": "F4",
          "ticks": 194016,
          "time": 189.46875,
          "velocity": 0.3937007874015748
        },
        {
          "duration": 0.09375,
          "durationTicks": 96,
          "midi": 56,
          "name": "G#3",
          "ticks": 194016,
          "time": 189.46875,
          "velocity": 0.3937007874015748
        },
        {
          "duration": 0.09375,
          "durationTicks": 96,
          "midi": 60,
          "name": "C4",
          "ticks": 194016,
          "time": 189.46875,
          "velocity": 0.3937007874015748
        },
        {
          "duration": 0.09375,
          "durationTicks": 96,
          "midi": 56,
          "name": "G#3",
          "ticks": 194112,
          "time": 189.5625,
          "velocity": 0.3937007874015748
        },
        {
          "duration": 0.09375,
          "durationTicks": 96,
          "midi": 60,
          "name": "C4",
          "ticks": 194112,
          "time": 189.5625,
          "velocity": 0.3937007874015748
        },
        {
          "duration": 0.09375,
          "durationTicks": 96,
          "midi": 65,
          "name": "F4",
          "ticks": 194112,
          "time": 189.5625,
          "velocity": 0.3937007874015748
        },
        {
          "duration": 0.09375,
          "durationTicks": 96,
          "midi": 60,
          "name": "C4",
          "ticks": 194208,
          "time": 189.65625,
          "velocity": 0.3937007874015748
        },
        {
          "duration": 0.09375,
          "durationTicks": 96,
          "midi": 56,
          "name": "G#3",
          "ticks": 194208,
          "time": 189.65625,
          "velocity": 0.3937007874015748
        },
        {
          "duration": 0.09375,
          "durationTicks": 96,
          "midi": 65,
          "name": "F4",
          "ticks": 194208,
          "time": 189.65625,
          "velocity": 0.3937007874015748
        },
        {
          "duration": 0.09375,
          "durationTicks": 96,
          "midi": 60,
          "name": "C4",
          "ticks": 194304,
          "time": 189.75,
          "velocity": 0.3937007874015748
        },
        {
          "duration": 0.09375,
          "durationTicks": 96,
          "midi": 56,
          "name": "G#3",
          "ticks": 194304,
          "time": 189.75,
          "velocity": 0.3937007874015748
        },
        {
          "duration": 0.09375,
          "durationTicks": 96,
          "midi": 65,
          "name": "F4",
          "ticks": 194304,
          "time": 189.75,
          "velocity": 0.3937007874015748
        },
        {
          "duration": 0.09375,
          "durationTicks": 96,
          "midi": 56,
          "name": "G#3",
          "ticks": 194400,
          "time": 189.84375,
          "velocity": 0.3937007874015748
        },
        {
          "duration": 0.09375,
          "durationTicks": 96,
          "midi": 60,
          "name": "C4",
          "ticks": 194400,
          "time": 189.84375,
          "velocity": 0.3937007874015748
        },
        {
          "duration": 0.09375,
          "durationTicks": 96,
          "midi": 65,
          "name": "F4",
          "ticks": 194400,
          "time": 189.84375,
          "velocity": 0.3937007874015748
        },
        {
          "duration": 0.09375,
          "durationTicks": 96,
          "midi": 60,
          "name": "C4",
          "ticks": 194496,
          "time": 189.9375,
          "velocity": 0.3937007874015748
        },
        {
          "duration": 0.09375,
          "durationTicks": 96,
          "midi": 56,
          "name": "G#3",
          "ticks": 194496,
          "time": 189.9375,
          "velocity": 0.3937007874015748
        },
        {
          "duration": 0.09375,
          "durationTicks": 96,
          "midi": 65,
          "name": "F4",
          "ticks": 194496,
          "time": 189.9375,
          "velocity": 0.3937007874015748
        },
        {
          "duration": 0.09375,
          "durationTicks": 96,
          "midi": 60,
          "name": "C4",
          "ticks": 194592,
          "time": 190.03125,
          "velocity": 0.3937007874015748
        },
        {
          "duration": 0.09375,
          "durationTicks": 96,
          "midi": 65,
          "name": "F4",
          "ticks": 194592,
          "time": 190.03125,
          "velocity": 0.3937007874015748
        },
        {
          "duration": 0.09375,
          "durationTicks": 96,
          "midi": 56,
          "name": "G#3",
          "ticks": 194592,
          "time": 190.03125,
          "velocity": 0.3937007874015748
        },
        {
          "duration": 0.09375,
          "durationTicks": 96,
          "midi": 65,
          "name": "F4",
          "ticks": 194688,
          "time": 190.125,
          "velocity": 0.3937007874015748
        },
        {
          "duration": 0.09375,
          "durationTicks": 96,
          "midi": 56,
          "name": "G#3",
          "ticks": 194688,
          "time": 190.125,
          "velocity": 0.3937007874015748
        },
        {
          "duration": 0.09375,
          "durationTicks": 96,
          "midi": 60,
          "name": "C4",
          "ticks": 194688,
          "time": 190.125,
          "velocity": 0.3937007874015748
        },
        {
          "duration": 0.09375,
          "durationTicks": 96,
          "midi": 65,
          "name": "F4",
          "ticks": 194784,
          "time": 190.21875,
          "velocity": 0.3937007874015748
        },
        {
          "duration": 0.09375,
          "durationTicks": 96,
          "midi": 60,
          "name": "C4",
          "ticks": 194784,
          "time": 190.21875,
          "velocity": 0.3937007874015748
        },
        {
          "duration": 0.09375,
          "durationTicks": 96,
          "midi": 56,
          "name": "G#3",
          "ticks": 194784,
          "time": 190.21875,
          "velocity": 0.3937007874015748
        },
        {
          "duration": 0.09375,
          "durationTicks": 96,
          "midi": 56,
          "name": "G#3",
          "ticks": 194880,
          "time": 190.3125,
          "velocity": 0.3937007874015748
        },
        {
          "duration": 0.09375,
          "durationTicks": 96,
          "midi": 65,
          "name": "F4",
          "ticks": 194880,
          "time": 190.3125,
          "velocity": 0.3937007874015748
        },
        {
          "duration": 0.09375,
          "durationTicks": 96,
          "midi": 60,
          "name": "C4",
          "ticks": 194880,
          "time": 190.3125,
          "velocity": 0.3937007874015748
        },
        {
          "duration": 0.09375,
          "durationTicks": 96,
          "midi": 56,
          "name": "G#3",
          "ticks": 194976,
          "time": 190.40625,
          "velocity": 0.3937007874015748
        },
        {
          "duration": 0.09375,
          "durationTicks": 96,
          "midi": 60,
          "name": "C4",
          "ticks": 194976,
          "time": 190.40625,
          "velocity": 0.3937007874015748
        },
        {
          "duration": 0.09375,
          "durationTicks": 96,
          "midi": 65,
          "name": "F4",
          "ticks": 194976,
          "time": 190.40625,
          "velocity": 0.3937007874015748
        },
        {
          "duration": 0.09375,
          "durationTicks": 96,
          "midi": 64,
          "name": "E4",
          "ticks": 195072,
          "time": 190.5,
          "velocity": 0.3937007874015748
        },
        {
          "duration": 0.09375,
          "durationTicks": 96,
          "midi": 60,
          "name": "C4",
          "ticks": 195072,
          "time": 190.5,
          "velocity": 0.3937007874015748
        },
        {
          "duration": 0.09375,
          "durationTicks": 96,
          "midi": 55,
          "name": "G3",
          "ticks": 195072,
          "time": 190.5,
          "velocity": 0.3937007874015748
        },
        {
          "duration": 0.09375,
          "durationTicks": 96,
          "midi": 64,
          "name": "E4",
          "ticks": 195168,
          "time": 190.59375,
          "velocity": 0.3937007874015748
        },
        {
          "duration": 0.09375,
          "durationTicks": 96,
          "midi": 55,
          "name": "G3",
          "ticks": 195168,
          "time": 190.59375,
          "velocity": 0.3937007874015748
        },
        {
          "duration": 0.09375,
          "durationTicks": 96,
          "midi": 60,
          "name": "C4",
          "ticks": 195168,
          "time": 190.59375,
          "velocity": 0.3937007874015748
        },
        {
          "duration": 0.09375,
          "durationTicks": 96,
          "midi": 64,
          "name": "E4",
          "ticks": 195264,
          "time": 190.6875,
          "velocity": 0.3937007874015748
        },
        {
          "duration": 0.09375,
          "durationTicks": 96,
          "midi": 55,
          "name": "G3",
          "ticks": 195264,
          "time": 190.6875,
          "velocity": 0.3937007874015748
        },
        {
          "duration": 0.09375,
          "durationTicks": 96,
          "midi": 60,
          "name": "C4",
          "ticks": 195264,
          "time": 190.6875,
          "velocity": 0.3937007874015748
        },
        {
          "duration": 0.09375,
          "durationTicks": 96,
          "midi": 60,
          "name": "C4",
          "ticks": 195360,
          "time": 190.78125,
          "velocity": 0.3937007874015748
        },
        {
          "duration": 0.09375,
          "durationTicks": 96,
          "midi": 64,
          "name": "E4",
          "ticks": 195360,
          "time": 190.78125,
          "velocity": 0.3937007874015748
        },
        {
          "duration": 0.09375,
          "durationTicks": 96,
          "midi": 55,
          "name": "G3",
          "ticks": 195360,
          "time": 190.78125,
          "velocity": 0.3937007874015748
        },
        {
          "duration": 0.09375,
          "durationTicks": 96,
          "midi": 55,
          "name": "G3",
          "ticks": 195456,
          "time": 190.875,
          "velocity": 0.3937007874015748
        },
        {
          "duration": 0.09375,
          "durationTicks": 96,
          "midi": 60,
          "name": "C4",
          "ticks": 195456,
          "time": 190.875,
          "velocity": 0.3937007874015748
        },
        {
          "duration": 0.09375,
          "durationTicks": 96,
          "midi": 64,
          "name": "E4",
          "ticks": 195456,
          "time": 190.875,
          "velocity": 0.3937007874015748
        },
        {
          "duration": 0.09375,
          "durationTicks": 96,
          "midi": 64,
          "name": "E4",
          "ticks": 195552,
          "time": 190.96875,
          "velocity": 0.3937007874015748
        },
        {
          "duration": 0.09375,
          "durationTicks": 96,
          "midi": 55,
          "name": "G3",
          "ticks": 195552,
          "time": 190.96875,
          "velocity": 0.3937007874015748
        },
        {
          "duration": 0.09375,
          "durationTicks": 96,
          "midi": 60,
          "name": "C4",
          "ticks": 195552,
          "time": 190.96875,
          "velocity": 0.3937007874015748
        },
        {
          "duration": 0.09375,
          "durationTicks": 96,
          "midi": 64,
          "name": "E4",
          "ticks": 195648,
          "time": 191.0625,
          "velocity": 0.3937007874015748
        },
        {
          "duration": 0.09375,
          "durationTicks": 96,
          "midi": 60,
          "name": "C4",
          "ticks": 195648,
          "time": 191.0625,
          "velocity": 0.3937007874015748
        },
        {
          "duration": 0.09375,
          "durationTicks": 96,
          "midi": 55,
          "name": "G3",
          "ticks": 195648,
          "time": 191.0625,
          "velocity": 0.3937007874015748
        },
        {
          "duration": 0.09375,
          "durationTicks": 96,
          "midi": 64,
          "name": "E4",
          "ticks": 195744,
          "time": 191.15625,
          "velocity": 0.3937007874015748
        },
        {
          "duration": 0.09375,
          "durationTicks": 96,
          "midi": 55,
          "name": "G3",
          "ticks": 195744,
          "time": 191.15625,
          "velocity": 0.3937007874015748
        },
        {
          "duration": 0.09375,
          "durationTicks": 96,
          "midi": 60,
          "name": "C4",
          "ticks": 195744,
          "time": 191.15625,
          "velocity": 0.3937007874015748
        },
        {
          "duration": 0.09375,
          "durationTicks": 96,
          "midi": 64,
          "name": "E4",
          "ticks": 195840,
          "time": 191.25,
          "velocity": 0.3937007874015748
        },
        {
          "duration": 0.09375,
          "durationTicks": 96,
          "midi": 60,
          "name": "C4",
          "ticks": 195840,
          "time": 191.25,
          "velocity": 0.3937007874015748
        },
        {
          "duration": 0.09375,
          "durationTicks": 96,
          "midi": 55,
          "name": "G3",
          "ticks": 195840,
          "time": 191.25,
          "velocity": 0.3937007874015748
        },
        {
          "duration": 0.09375,
          "durationTicks": 96,
          "midi": 55,
          "name": "G3",
          "ticks": 195936,
          "time": 191.34375,
          "velocity": 0.3937007874015748
        },
        {
          "duration": 0.09375,
          "durationTicks": 96,
          "midi": 60,
          "name": "C4",
          "ticks": 195936,
          "time": 191.34375,
          "velocity": 0.3937007874015748
        },
        {
          "duration": 0.09375,
          "durationTicks": 96,
          "midi": 64,
          "name": "E4",
          "ticks": 195936,
          "time": 191.34375,
          "velocity": 0.3937007874015748
        },
        {
          "duration": 0.09375,
          "durationTicks": 96,
          "midi": 64,
          "name": "E4",
          "ticks": 196032,
          "time": 191.4375,
          "velocity": 0.3937007874015748
        },
        {
          "duration": 0.09375,
          "durationTicks": 96,
          "midi": 60,
          "name": "C4",
          "ticks": 196032,
          "time": 191.4375,
          "velocity": 0.3937007874015748
        },
        {
          "duration": 0.09375,
          "durationTicks": 96,
          "midi": 55,
          "name": "G3",
          "ticks": 196032,
          "time": 191.4375,
          "velocity": 0.3937007874015748
        },
        {
          "duration": 0.09375,
          "durationTicks": 96,
          "midi": 64,
          "name": "E4",
          "ticks": 196128,
          "time": 191.53125,
          "velocity": 0.3937007874015748
        },
        {
          "duration": 0.09375,
          "durationTicks": 96,
          "midi": 60,
          "name": "C4",
          "ticks": 196128,
          "time": 191.53125,
          "velocity": 0.3937007874015748
        },
        {
          "duration": 0.09375,
          "durationTicks": 96,
          "midi": 55,
          "name": "G3",
          "ticks": 196128,
          "time": 191.53125,
          "velocity": 0.3937007874015748
        },
        {
          "duration": 0.09375,
          "durationTicks": 96,
          "midi": 64,
          "name": "E4",
          "ticks": 196224,
          "time": 191.625,
          "velocity": 0.3937007874015748
        },
        {
          "duration": 0.09375,
          "durationTicks": 96,
          "midi": 60,
          "name": "C4",
          "ticks": 196224,
          "time": 191.625,
          "velocity": 0.3937007874015748
        },
        {
          "duration": 0.09375,
          "durationTicks": 96,
          "midi": 55,
          "name": "G3",
          "ticks": 196224,
          "time": 191.625,
          "velocity": 0.3937007874015748
        },
        {
          "duration": 0.09375,
          "durationTicks": 96,
          "midi": 60,
          "name": "C4",
          "ticks": 196320,
          "time": 191.71875,
          "velocity": 0.3937007874015748
        },
        {
          "duration": 0.09375,
          "durationTicks": 96,
          "midi": 55,
          "name": "G3",
          "ticks": 196320,
          "time": 191.71875,
          "velocity": 0.3937007874015748
        },
        {
          "duration": 0.09375,
          "durationTicks": 96,
          "midi": 64,
          "name": "E4",
          "ticks": 196320,
          "time": 191.71875,
          "velocity": 0.3937007874015748
        },
        {
          "duration": 0.09375,
          "durationTicks": 96,
          "midi": 60,
          "name": "C4",
          "ticks": 196416,
          "time": 191.8125,
          "velocity": 0.3937007874015748
        },
        {
          "duration": 0.09375,
          "durationTicks": 96,
          "midi": 55,
          "name": "G3",
          "ticks": 196416,
          "time": 191.8125,
          "velocity": 0.3937007874015748
        },
        {
          "duration": 0.09375,
          "durationTicks": 96,
          "midi": 64,
          "name": "E4",
          "ticks": 196416,
          "time": 191.8125,
          "velocity": 0.3937007874015748
        },
        {
          "duration": 0.09375,
          "durationTicks": 96,
          "midi": 55,
          "name": "G3",
          "ticks": 196512,
          "time": 191.90625,
          "velocity": 0.3937007874015748
        },
        {
          "duration": 0.09375,
          "durationTicks": 96,
          "midi": 64,
          "name": "E4",
          "ticks": 196512,
          "time": 191.90625,
          "velocity": 0.3937007874015748
        },
        {
          "duration": 0.09375,
          "durationTicks": 96,
          "midi": 60,
          "name": "C4",
          "ticks": 196512,
          "time": 191.90625,
          "velocity": 0.3937007874015748
        },
        {
          "duration": 0.09375,
          "durationTicks": 96,
          "midi": 60,
          "name": "C4",
          "ticks": 196608,
          "time": 192,
          "velocity": 0.3937007874015748
        },
        {
          "duration": 0.09375,
          "durationTicks": 96,
          "midi": 55,
          "name": "G3",
          "ticks": 196608,
          "time": 192,
          "velocity": 0.3937007874015748
        },
        {
          "duration": 0.09375,
          "durationTicks": 96,
          "midi": 63,
          "name": "D#4",
          "ticks": 196608,
          "time": 192,
          "velocity": 0.3937007874015748
        },
        {
          "duration": 0.09375,
          "durationTicks": 96,
          "midi": 63,
          "name": "D#4",
          "ticks": 196704,
          "time": 192.09375,
          "velocity": 0.3937007874015748
        },
        {
          "duration": 0.09375,
          "durationTicks": 96,
          "midi": 55,
          "name": "G3",
          "ticks": 196704,
          "time": 192.09375,
          "velocity": 0.3937007874015748
        },
        {
          "duration": 0.09375,
          "durationTicks": 96,
          "midi": 60,
          "name": "C4",
          "ticks": 196704,
          "time": 192.09375,
          "velocity": 0.3937007874015748
        },
        {
          "duration": 0.09375,
          "durationTicks": 96,
          "midi": 60,
          "name": "C4",
          "ticks": 196800,
          "time": 192.1875,
          "velocity": 0.3937007874015748
        },
        {
          "duration": 0.09375,
          "durationTicks": 96,
          "midi": 63,
          "name": "D#4",
          "ticks": 196800,
          "time": 192.1875,
          "velocity": 0.3937007874015748
        },
        {
          "duration": 0.09375,
          "durationTicks": 96,
          "midi": 55,
          "name": "G3",
          "ticks": 196800,
          "time": 192.1875,
          "velocity": 0.3937007874015748
        },
        {
          "duration": 0.09375,
          "durationTicks": 96,
          "midi": 63,
          "name": "D#4",
          "ticks": 196896,
          "time": 192.28125,
          "velocity": 0.3937007874015748
        },
        {
          "duration": 0.09375,
          "durationTicks": 96,
          "midi": 60,
          "name": "C4",
          "ticks": 196896,
          "time": 192.28125,
          "velocity": 0.3937007874015748
        },
        {
          "duration": 0.09375,
          "durationTicks": 96,
          "midi": 55,
          "name": "G3",
          "ticks": 196896,
          "time": 192.28125,
          "velocity": 0.3937007874015748
        },
        {
          "duration": 0.09375,
          "durationTicks": 96,
          "midi": 63,
          "name": "D#4",
          "ticks": 196992,
          "time": 192.375,
          "velocity": 0.3937007874015748
        },
        {
          "duration": 0.09375,
          "durationTicks": 96,
          "midi": 60,
          "name": "C4",
          "ticks": 196992,
          "time": 192.375,
          "velocity": 0.3937007874015748
        },
        {
          "duration": 0.09375,
          "durationTicks": 96,
          "midi": 55,
          "name": "G3",
          "ticks": 196992,
          "time": 192.375,
          "velocity": 0.3937007874015748
        },
        {
          "duration": 0.09375,
          "durationTicks": 96,
          "midi": 63,
          "name": "D#4",
          "ticks": 197088,
          "time": 192.46875,
          "velocity": 0.3937007874015748
        },
        {
          "duration": 0.09375,
          "durationTicks": 96,
          "midi": 55,
          "name": "G3",
          "ticks": 197088,
          "time": 192.46875,
          "velocity": 0.3937007874015748
        },
        {
          "duration": 0.09375,
          "durationTicks": 96,
          "midi": 60,
          "name": "C4",
          "ticks": 197088,
          "time": 192.46875,
          "velocity": 0.3937007874015748
        },
        {
          "duration": 0.09375,
          "durationTicks": 96,
          "midi": 60,
          "name": "C4",
          "ticks": 197184,
          "time": 192.5625,
          "velocity": 0.3937007874015748
        },
        {
          "duration": 0.09375,
          "durationTicks": 96,
          "midi": 55,
          "name": "G3",
          "ticks": 197184,
          "time": 192.5625,
          "velocity": 0.3937007874015748
        },
        {
          "duration": 0.09375,
          "durationTicks": 96,
          "midi": 63,
          "name": "D#4",
          "ticks": 197184,
          "time": 192.5625,
          "velocity": 0.3937007874015748
        },
        {
          "duration": 0.09375,
          "durationTicks": 96,
          "midi": 55,
          "name": "G3",
          "ticks": 197280,
          "time": 192.65625,
          "velocity": 0.3937007874015748
        },
        {
          "duration": 0.09375,
          "durationTicks": 96,
          "midi": 63,
          "name": "D#4",
          "ticks": 197280,
          "time": 192.65625,
          "velocity": 0.3937007874015748
        },
        {
          "duration": 0.09375,
          "durationTicks": 96,
          "midi": 60,
          "name": "C4",
          "ticks": 197280,
          "time": 192.65625,
          "velocity": 0.3937007874015748
        },
        {
          "duration": 0.09375,
          "durationTicks": 96,
          "midi": 60,
          "name": "C4",
          "ticks": 197376,
          "time": 192.75,
          "velocity": 0.3937007874015748
        },
        {
          "duration": 0.09375,
          "durationTicks": 96,
          "midi": 63,
          "name": "D#4",
          "ticks": 197376,
          "time": 192.75,
          "velocity": 0.3937007874015748
        },
        {
          "duration": 0.09375,
          "durationTicks": 96,
          "midi": 55,
          "name": "G3",
          "ticks": 197376,
          "time": 192.75,
          "velocity": 0.3937007874015748
        },
        {
          "duration": 0.09375,
          "durationTicks": 96,
          "midi": 60,
          "name": "C4",
          "ticks": 197472,
          "time": 192.84375,
          "velocity": 0.3937007874015748
        },
        {
          "duration": 0.09375,
          "durationTicks": 96,
          "midi": 55,
          "name": "G3",
          "ticks": 197472,
          "time": 192.84375,
          "velocity": 0.3937007874015748
        },
        {
          "duration": 0.09375,
          "durationTicks": 96,
          "midi": 63,
          "name": "D#4",
          "ticks": 197472,
          "time": 192.84375,
          "velocity": 0.3937007874015748
        },
        {
          "duration": 0.09375,
          "durationTicks": 96,
          "midi": 63,
          "name": "D#4",
          "ticks": 197568,
          "time": 192.9375,
          "velocity": 0.3937007874015748
        },
        {
          "duration": 0.09375,
          "durationTicks": 96,
          "midi": 60,
          "name": "C4",
          "ticks": 197568,
          "time": 192.9375,
          "velocity": 0.3937007874015748
        },
        {
          "duration": 0.09375,
          "durationTicks": 96,
          "midi": 55,
          "name": "G3",
          "ticks": 197568,
          "time": 192.9375,
          "velocity": 0.3937007874015748
        },
        {
          "duration": 0.09375,
          "durationTicks": 96,
          "midi": 63,
          "name": "D#4",
          "ticks": 197664,
          "time": 193.03125,
          "velocity": 0.3937007874015748
        },
        {
          "duration": 0.09375,
          "durationTicks": 96,
          "midi": 60,
          "name": "C4",
          "ticks": 197664,
          "time": 193.03125,
          "velocity": 0.3937007874015748
        },
        {
          "duration": 0.09375,
          "durationTicks": 96,
          "midi": 55,
          "name": "G3",
          "ticks": 197664,
          "time": 193.03125,
          "velocity": 0.3937007874015748
        },
        {
          "duration": 0.09375,
          "durationTicks": 96,
          "midi": 60,
          "name": "C4",
          "ticks": 197760,
          "time": 193.125,
          "velocity": 0.3937007874015748
        },
        {
          "duration": 0.09375,
          "durationTicks": 96,
          "midi": 55,
          "name": "G3",
          "ticks": 197760,
          "time": 193.125,
          "velocity": 0.3937007874015748
        },
        {
          "duration": 0.09375,
          "durationTicks": 96,
          "midi": 63,
          "name": "D#4",
          "ticks": 197760,
          "time": 193.125,
          "velocity": 0.3937007874015748
        },
        {
          "duration": 0.09375,
          "durationTicks": 96,
          "midi": 60,
          "name": "C4",
          "ticks": 197856,
          "time": 193.21875,
          "velocity": 0.3937007874015748
        },
        {
          "duration": 0.09375,
          "durationTicks": 96,
          "midi": 55,
          "name": "G3",
          "ticks": 197856,
          "time": 193.21875,
          "velocity": 0.3937007874015748
        },
        {
          "duration": 0.09375,
          "durationTicks": 96,
          "midi": 63,
          "name": "D#4",
          "ticks": 197856,
          "time": 193.21875,
          "velocity": 0.3937007874015748
        },
        {
          "duration": 0.09375,
          "durationTicks": 96,
          "midi": 55,
          "name": "G3",
          "ticks": 197952,
          "time": 193.3125,
          "velocity": 0.3937007874015748
        },
        {
          "duration": 0.09375,
          "durationTicks": 96,
          "midi": 60,
          "name": "C4",
          "ticks": 197952,
          "time": 193.3125,
          "velocity": 0.3937007874015748
        },
        {
          "duration": 0.09375,
          "durationTicks": 96,
          "midi": 63,
          "name": "D#4",
          "ticks": 197952,
          "time": 193.3125,
          "velocity": 0.3937007874015748
        },
        {
          "duration": 0.09375,
          "durationTicks": 96,
          "midi": 60,
          "name": "C4",
          "ticks": 198048,
          "time": 193.40625,
          "velocity": 0.3937007874015748
        },
        {
          "duration": 0.09375,
          "durationTicks": 96,
          "midi": 63,
          "name": "D#4",
          "ticks": 198048,
          "time": 193.40625,
          "velocity": 0.3937007874015748
        },
        {
          "duration": 0.09375,
          "durationTicks": 96,
          "midi": 55,
          "name": "G3",
          "ticks": 198048,
          "time": 193.40625,
          "velocity": 0.3937007874015748
        },
        {
          "duration": 0.09375,
          "durationTicks": 96,
          "midi": 59,
          "name": "B3",
          "ticks": 198144,
          "time": 193.5,
          "velocity": 0.3937007874015748
        },
        {
          "duration": 0.09375,
          "durationTicks": 96,
          "midi": 55,
          "name": "G3",
          "ticks": 198144,
          "time": 193.5,
          "velocity": 0.3937007874015748
        },
        {
          "duration": 0.09375,
          "durationTicks": 96,
          "midi": 62,
          "name": "D4",
          "ticks": 198144,
          "time": 193.5,
          "velocity": 0.3937007874015748
        },
        {
          "duration": 0.09375,
          "durationTicks": 96,
          "midi": 59,
          "name": "B3",
          "ticks": 198240,
          "time": 193.59375,
          "velocity": 0.3937007874015748
        },
        {
          "duration": 0.09375,
          "durationTicks": 96,
          "midi": 55,
          "name": "G3",
          "ticks": 198240,
          "time": 193.59375,
          "velocity": 0.3937007874015748
        },
        {
          "duration": 0.09375,
          "durationTicks": 96,
          "midi": 62,
          "name": "D4",
          "ticks": 198240,
          "time": 193.59375,
          "velocity": 0.3937007874015748
        },
        {
          "duration": 0.09375,
          "durationTicks": 96,
          "midi": 62,
          "name": "D4",
          "ticks": 198336,
          "time": 193.6875,
          "velocity": 0.3937007874015748
        },
        {
          "duration": 0.09375,
          "durationTicks": 96,
          "midi": 55,
          "name": "G3",
          "ticks": 198336,
          "time": 193.6875,
          "velocity": 0.3937007874015748
        },
        {
          "duration": 0.09375,
          "durationTicks": 96,
          "midi": 59,
          "name": "B3",
          "ticks": 198336,
          "time": 193.6875,
          "velocity": 0.3937007874015748
        },
        {
          "duration": 0.09375,
          "durationTicks": 96,
          "midi": 62,
          "name": "D4",
          "ticks": 198432,
          "time": 193.78125,
          "velocity": 0.3937007874015748
        },
        {
          "duration": 0.09375,
          "durationTicks": 96,
          "midi": 55,
          "name": "G3",
          "ticks": 198432,
          "time": 193.78125,
          "velocity": 0.3937007874015748
        },
        {
          "duration": 0.09375,
          "durationTicks": 96,
          "midi": 59,
          "name": "B3",
          "ticks": 198432,
          "time": 193.78125,
          "velocity": 0.3937007874015748
        },
        {
          "duration": 0.09375,
          "durationTicks": 96,
          "midi": 62,
          "name": "D4",
          "ticks": 198528,
          "time": 193.875,
          "velocity": 0.3937007874015748
        },
        {
          "duration": 0.09375,
          "durationTicks": 96,
          "midi": 59,
          "name": "B3",
          "ticks": 198528,
          "time": 193.875,
          "velocity": 0.3937007874015748
        },
        {
          "duration": 0.09375,
          "durationTicks": 96,
          "midi": 55,
          "name": "G3",
          "ticks": 198528,
          "time": 193.875,
          "velocity": 0.3937007874015748
        },
        {
          "duration": 0.09375,
          "durationTicks": 96,
          "midi": 55,
          "name": "G3",
          "ticks": 198624,
          "time": 193.96875,
          "velocity": 0.3937007874015748
        },
        {
          "duration": 0.09375,
          "durationTicks": 96,
          "midi": 62,
          "name": "D4",
          "ticks": 198624,
          "time": 193.96875,
          "velocity": 0.3937007874015748
        },
        {
          "duration": 0.09375,
          "durationTicks": 96,
          "midi": 59,
          "name": "B3",
          "ticks": 198624,
          "time": 193.96875,
          "velocity": 0.3937007874015748
        },
        {
          "duration": 0.09375,
          "durationTicks": 96,
          "midi": 62,
          "name": "D4",
          "ticks": 198720,
          "time": 194.0625,
          "velocity": 0.3937007874015748
        },
        {
          "duration": 0.09375,
          "durationTicks": 96,
          "midi": 59,
          "name": "B3",
          "ticks": 198720,
          "time": 194.0625,
          "velocity": 0.3937007874015748
        },
        {
          "duration": 0.09375,
          "durationTicks": 96,
          "midi": 55,
          "name": "G3",
          "ticks": 198720,
          "time": 194.0625,
          "velocity": 0.3937007874015748
        },
        {
          "duration": 0.09375,
          "durationTicks": 96,
          "midi": 55,
          "name": "G3",
          "ticks": 198816,
          "time": 194.15625,
          "velocity": 0.3937007874015748
        },
        {
          "duration": 0.09375,
          "durationTicks": 96,
          "midi": 59,
          "name": "B3",
          "ticks": 198816,
          "time": 194.15625,
          "velocity": 0.3937007874015748
        },
        {
          "duration": 0.09375,
          "durationTicks": 96,
          "midi": 62,
          "name": "D4",
          "ticks": 198816,
          "time": 194.15625,
          "velocity": 0.3937007874015748
        },
        {
          "duration": 0.09375,
          "durationTicks": 96,
          "midi": 59,
          "name": "B3",
          "ticks": 198912,
          "time": 194.25,
          "velocity": 0.3937007874015748
        },
        {
          "duration": 0.09375,
          "durationTicks": 96,
          "midi": 62,
          "name": "D4",
          "ticks": 198912,
          "time": 194.25,
          "velocity": 0.3937007874015748
        },
        {
          "duration": 0.09375,
          "durationTicks": 96,
          "midi": 55,
          "name": "G3",
          "ticks": 198912,
          "time": 194.25,
          "velocity": 0.3937007874015748
        },
        {
          "duration": 0.09375,
          "durationTicks": 96,
          "midi": 55,
          "name": "G3",
          "ticks": 199008,
          "time": 194.34375,
          "velocity": 0.3937007874015748
        },
        {
          "duration": 0.09375,
          "durationTicks": 96,
          "midi": 62,
          "name": "D4",
          "ticks": 199008,
          "time": 194.34375,
          "velocity": 0.3937007874015748
        },
        {
          "duration": 0.09375,
          "durationTicks": 96,
          "midi": 59,
          "name": "B3",
          "ticks": 199008,
          "time": 194.34375,
          "velocity": 0.3937007874015748
        },
        {
          "duration": 0.09375,
          "durationTicks": 96,
          "midi": 62,
          "name": "D4",
          "ticks": 199104,
          "time": 194.4375,
          "velocity": 0.3937007874015748
        },
        {
          "duration": 0.09375,
          "durationTicks": 96,
          "midi": 55,
          "name": "G3",
          "ticks": 199104,
          "time": 194.4375,
          "velocity": 0.3937007874015748
        },
        {
          "duration": 0.09375,
          "durationTicks": 96,
          "midi": 59,
          "name": "B3",
          "ticks": 199104,
          "time": 194.4375,
          "velocity": 0.3937007874015748
        },
        {
          "duration": 0.09375,
          "durationTicks": 96,
          "midi": 55,
          "name": "G3",
          "ticks": 199200,
          "time": 194.53125,
          "velocity": 0.3937007874015748
        },
        {
          "duration": 0.09375,
          "durationTicks": 96,
          "midi": 59,
          "name": "B3",
          "ticks": 199200,
          "time": 194.53125,
          "velocity": 0.3937007874015748
        },
        {
          "duration": 0.09375,
          "durationTicks": 96,
          "midi": 62,
          "name": "D4",
          "ticks": 199200,
          "time": 194.53125,
          "velocity": 0.3937007874015748
        },
        {
          "duration": 0.09375,
          "durationTicks": 96,
          "midi": 59,
          "name": "B3",
          "ticks": 199296,
          "time": 194.625,
          "velocity": 0.3937007874015748
        },
        {
          "duration": 0.09375,
          "durationTicks": 96,
          "midi": 55,
          "name": "G3",
          "ticks": 199296,
          "time": 194.625,
          "velocity": 0.3937007874015748
        },
        {
          "duration": 0.09375,
          "durationTicks": 96,
          "midi": 62,
          "name": "D4",
          "ticks": 199296,
          "time": 194.625,
          "velocity": 0.3937007874015748
        },
        {
          "duration": 0.09375,
          "durationTicks": 96,
          "midi": 59,
          "name": "B3",
          "ticks": 199392,
          "time": 194.71875,
          "velocity": 0.3937007874015748
        },
        {
          "duration": 0.09375,
          "durationTicks": 96,
          "midi": 62,
          "name": "D4",
          "ticks": 199392,
          "time": 194.71875,
          "velocity": 0.3937007874015748
        },
        {
          "duration": 0.09375,
          "durationTicks": 96,
          "midi": 55,
          "name": "G3",
          "ticks": 199392,
          "time": 194.71875,
          "velocity": 0.3937007874015748
        },
        {
          "duration": 0.09375,
          "durationTicks": 96,
          "midi": 62,
          "name": "D4",
          "ticks": 199488,
          "time": 194.8125,
          "velocity": 0.3937007874015748
        },
        {
          "duration": 0.09375,
          "durationTicks": 96,
          "midi": 59,
          "name": "B3",
          "ticks": 199488,
          "time": 194.8125,
          "velocity": 0.3937007874015748
        },
        {
          "duration": 0.09375,
          "durationTicks": 96,
          "midi": 55,
          "name": "G3",
          "ticks": 199488,
          "time": 194.8125,
          "velocity": 0.3937007874015748
        },
        {
          "duration": 0.09375,
          "durationTicks": 96,
          "midi": 62,
          "name": "D4",
          "ticks": 199584,
          "time": 194.90625,
          "velocity": 0.3937007874015748
        },
        {
          "duration": 0.09375,
          "durationTicks": 96,
          "midi": 55,
          "name": "G3",
          "ticks": 199584,
          "time": 194.90625,
          "velocity": 0.3937007874015748
        },
        {
          "duration": 0.09375,
          "durationTicks": 96,
          "midi": 59,
          "name": "B3",
          "ticks": 199584,
          "time": 194.90625,
          "velocity": 0.3937007874015748
        },
        {
          "duration": 0.09375,
          "durationTicks": 96,
          "midi": 58,
          "name": "A#3",
          "ticks": 199680,
          "time": 195,
          "velocity": 0.3937007874015748
        },
        {
          "duration": 0.09375,
          "durationTicks": 96,
          "midi": 53,
          "name": "F3",
          "ticks": 199680,
          "time": 195,
          "velocity": 0.3937007874015748
        },
        {
          "duration": 0.09375,
          "durationTicks": 96,
          "midi": 61,
          "name": "C#4",
          "ticks": 199680,
          "time": 195,
          "velocity": 0.3937007874015748
        },
        {
          "duration": 0.09375,
          "durationTicks": 96,
          "midi": 58,
          "name": "A#3",
          "ticks": 199776,
          "time": 195.09375,
          "velocity": 0.3937007874015748
        },
        {
          "duration": 0.09375,
          "durationTicks": 96,
          "midi": 53,
          "name": "F3",
          "ticks": 199776,
          "time": 195.09375,
          "velocity": 0.3937007874015748
        },
        {
          "duration": 0.09375,
          "durationTicks": 96,
          "midi": 61,
          "name": "C#4",
          "ticks": 199776,
          "time": 195.09375,
          "velocity": 0.3937007874015748
        },
        {
          "duration": 0.09375,
          "durationTicks": 96,
          "midi": 61,
          "name": "C#4",
          "ticks": 199872,
          "time": 195.1875,
          "velocity": 0.3937007874015748
        },
        {
          "duration": 0.09375,
          "durationTicks": 96,
          "midi": 58,
          "name": "A#3",
          "ticks": 199872,
          "time": 195.1875,
          "velocity": 0.3937007874015748
        },
        {
          "duration": 0.09375,
          "durationTicks": 96,
          "midi": 53,
          "name": "F3",
          "ticks": 199872,
          "time": 195.1875,
          "velocity": 0.3937007874015748
        },
        {
          "duration": 0.09375,
          "durationTicks": 96,
          "midi": 53,
          "name": "F3",
          "ticks": 199968,
          "time": 195.28125,
          "velocity": 0.3937007874015748
        },
        {
          "duration": 0.09375,
          "durationTicks": 96,
          "midi": 58,
          "name": "A#3",
          "ticks": 199968,
          "time": 195.28125,
          "velocity": 0.3937007874015748
        },
        {
          "duration": 0.09375,
          "durationTicks": 96,
          "midi": 61,
          "name": "C#4",
          "ticks": 199968,
          "time": 195.28125,
          "velocity": 0.3937007874015748
        },
        {
          "duration": 0.09375,
          "durationTicks": 96,
          "midi": 53,
          "name": "F3",
          "ticks": 200064,
          "time": 195.375,
          "velocity": 0.3937007874015748
        },
        {
          "duration": 0.09375,
          "durationTicks": 96,
          "midi": 61,
          "name": "C#4",
          "ticks": 200064,
          "time": 195.375,
          "velocity": 0.3937007874015748
        },
        {
          "duration": 0.09375,
          "durationTicks": 96,
          "midi": 58,
          "name": "A#3",
          "ticks": 200064,
          "time": 195.375,
          "velocity": 0.3937007874015748
        },
        {
          "duration": 0.09375,
          "durationTicks": 96,
          "midi": 58,
          "name": "A#3",
          "ticks": 200160,
          "time": 195.46875,
          "velocity": 0.3937007874015748
        },
        {
          "duration": 0.09375,
          "durationTicks": 96,
          "midi": 53,
          "name": "F3",
          "ticks": 200160,
          "time": 195.46875,
          "velocity": 0.3937007874015748
        },
        {
          "duration": 0.09375,
          "durationTicks": 96,
          "midi": 61,
          "name": "C#4",
          "ticks": 200160,
          "time": 195.46875,
          "velocity": 0.3937007874015748
        },
        {
          "duration": 0.09375,
          "durationTicks": 96,
          "midi": 53,
          "name": "F3",
          "ticks": 200256,
          "time": 195.5625,
          "velocity": 0.3937007874015748
        },
        {
          "duration": 0.09375,
          "durationTicks": 96,
          "midi": 58,
          "name": "A#3",
          "ticks": 200256,
          "time": 195.5625,
          "velocity": 0.3937007874015748
        },
        {
          "duration": 0.09375,
          "durationTicks": 96,
          "midi": 61,
          "name": "C#4",
          "ticks": 200256,
          "time": 195.5625,
          "velocity": 0.3937007874015748
        },
        {
          "duration": 0.09375,
          "durationTicks": 96,
          "midi": 58,
          "name": "A#3",
          "ticks": 200352,
          "time": 195.65625,
          "velocity": 0.3937007874015748
        },
        {
          "duration": 0.09375,
          "durationTicks": 96,
          "midi": 53,
          "name": "F3",
          "ticks": 200352,
          "time": 195.65625,
          "velocity": 0.3937007874015748
        },
        {
          "duration": 0.09375,
          "durationTicks": 96,
          "midi": 61,
          "name": "C#4",
          "ticks": 200352,
          "time": 195.65625,
          "velocity": 0.3937007874015748
        },
        {
          "duration": 0.09375,
          "durationTicks": 96,
          "midi": 58,
          "name": "A#3",
          "ticks": 200448,
          "time": 195.75,
          "velocity": 0.3937007874015748
        },
        {
          "duration": 0.09375,
          "durationTicks": 96,
          "midi": 53,
          "name": "F3",
          "ticks": 200448,
          "time": 195.75,
          "velocity": 0.3937007874015748
        },
        {
          "duration": 0.09375,
          "durationTicks": 96,
          "midi": 61,
          "name": "C#4",
          "ticks": 200448,
          "time": 195.75,
          "velocity": 0.3937007874015748
        },
        {
          "duration": 0.09375,
          "durationTicks": 96,
          "midi": 53,
          "name": "F3",
          "ticks": 200544,
          "time": 195.84375,
          "velocity": 0.3937007874015748
        },
        {
          "duration": 0.09375,
          "durationTicks": 96,
          "midi": 61,
          "name": "C#4",
          "ticks": 200544,
          "time": 195.84375,
          "velocity": 0.3937007874015748
        },
        {
          "duration": 0.09375,
          "durationTicks": 96,
          "midi": 58,
          "name": "A#3",
          "ticks": 200544,
          "time": 195.84375,
          "velocity": 0.3937007874015748
        },
        {
          "duration": 0.09375,
          "durationTicks": 96,
          "midi": 61,
          "name": "C#4",
          "ticks": 200640,
          "time": 195.9375,
          "velocity": 0.3937007874015748
        },
        {
          "duration": 0.09375,
          "durationTicks": 96,
          "midi": 58,
          "name": "A#3",
          "ticks": 200640,
          "time": 195.9375,
          "velocity": 0.3937007874015748
        },
        {
          "duration": 0.09375,
          "durationTicks": 96,
          "midi": 53,
          "name": "F3",
          "ticks": 200640,
          "time": 195.9375,
          "velocity": 0.3937007874015748
        },
        {
          "duration": 0.09375,
          "durationTicks": 96,
          "midi": 61,
          "name": "C#4",
          "ticks": 200736,
          "time": 196.03125,
          "velocity": 0.3937007874015748
        },
        {
          "duration": 0.09375,
          "durationTicks": 96,
          "midi": 58,
          "name": "A#3",
          "ticks": 200736,
          "time": 196.03125,
          "velocity": 0.3937007874015748
        },
        {
          "duration": 0.09375,
          "durationTicks": 96,
          "midi": 53,
          "name": "F3",
          "ticks": 200736,
          "time": 196.03125,
          "velocity": 0.3937007874015748
        },
        {
          "duration": 0.09375,
          "durationTicks": 96,
          "midi": 61,
          "name": "C#4",
          "ticks": 200832,
          "time": 196.125,
          "velocity": 0.3937007874015748
        },
        {
          "duration": 0.09375,
          "durationTicks": 96,
          "midi": 58,
          "name": "A#3",
          "ticks": 200832,
          "time": 196.125,
          "velocity": 0.3937007874015748
        },
        {
          "duration": 0.09375,
          "durationTicks": 96,
          "midi": 53,
          "name": "F3",
          "ticks": 200832,
          "time": 196.125,
          "velocity": 0.3937007874015748
        },
        {
          "duration": 0.09375,
          "durationTicks": 96,
          "midi": 53,
          "name": "F3",
          "ticks": 200928,
          "time": 196.21875,
          "velocity": 0.3937007874015748
        },
        {
          "duration": 0.09375,
          "durationTicks": 96,
          "midi": 61,
          "name": "C#4",
          "ticks": 200928,
          "time": 196.21875,
          "velocity": 0.3937007874015748
        },
        {
          "duration": 0.09375,
          "durationTicks": 96,
          "midi": 58,
          "name": "A#3",
          "ticks": 200928,
          "time": 196.21875,
          "velocity": 0.3937007874015748
        },
        {
          "duration": 0.09375,
          "durationTicks": 96,
          "midi": 61,
          "name": "C#4",
          "ticks": 201024,
          "time": 196.3125,
          "velocity": 0.3937007874015748
        },
        {
          "duration": 0.09375,
          "durationTicks": 96,
          "midi": 58,
          "name": "A#3",
          "ticks": 201024,
          "time": 196.3125,
          "velocity": 0.3937007874015748
        },
        {
          "duration": 0.09375,
          "durationTicks": 96,
          "midi": 53,
          "name": "F3",
          "ticks": 201024,
          "time": 196.3125,
          "velocity": 0.3937007874015748
        },
        {
          "duration": 0.09375,
          "durationTicks": 96,
          "midi": 58,
          "name": "A#3",
          "ticks": 201120,
          "time": 196.40625,
          "velocity": 0.3937007874015748
        },
        {
          "duration": 0.09375,
          "durationTicks": 96,
          "midi": 53,
          "name": "F3",
          "ticks": 201120,
          "time": 196.40625,
          "velocity": 0.3937007874015748
        },
        {
          "duration": 0.09375,
          "durationTicks": 96,
          "midi": 61,
          "name": "C#4",
          "ticks": 201120,
          "time": 196.40625,
          "velocity": 0.3937007874015748
        },
        {
          "duration": 0.09375,
          "durationTicks": 96,
          "midi": 58,
          "name": "A#3",
          "ticks": 201216,
          "time": 196.5,
          "velocity": 0.3937007874015748
        },
        {
          "duration": 0.09375,
          "durationTicks": 96,
          "midi": 55,
          "name": "G3",
          "ticks": 201216,
          "time": 196.5,
          "velocity": 0.3937007874015748
        },
        {
          "duration": 0.09375,
          "durationTicks": 96,
          "midi": 52,
          "name": "E3",
          "ticks": 201216,
          "time": 196.5,
          "velocity": 0.3937007874015748
        },
        {
          "duration": 0.09375,
          "durationTicks": 96,
          "midi": 55,
          "name": "G3",
          "ticks": 201312,
          "time": 196.59375,
          "velocity": 0.3937007874015748
        },
        {
          "duration": 0.09375,
          "durationTicks": 96,
          "midi": 52,
          "name": "E3",
          "ticks": 201312,
          "time": 196.59375,
          "velocity": 0.3937007874015748
        },
        {
          "duration": 0.09375,
          "durationTicks": 96,
          "midi": 58,
          "name": "A#3",
          "ticks": 201312,
          "time": 196.59375,
          "velocity": 0.3937007874015748
        },
        {
          "duration": 0.09375,
          "durationTicks": 96,
          "midi": 52,
          "name": "E3",
          "ticks": 201408,
          "time": 196.6875,
          "velocity": 0.3937007874015748
        },
        {
          "duration": 0.09375,
          "durationTicks": 96,
          "midi": 58,
          "name": "A#3",
          "ticks": 201408,
          "time": 196.6875,
          "velocity": 0.3937007874015748
        },
        {
          "duration": 0.09375,
          "durationTicks": 96,
          "midi": 55,
          "name": "G3",
          "ticks": 201408,
          "time": 196.6875,
          "velocity": 0.3937007874015748
        },
        {
          "duration": 0.09375,
          "durationTicks": 96,
          "midi": 55,
          "name": "G3",
          "ticks": 201504,
          "time": 196.78125,
          "velocity": 0.3937007874015748
        },
        {
          "duration": 0.09375,
          "durationTicks": 96,
          "midi": 52,
          "name": "E3",
          "ticks": 201504,
          "time": 196.78125,
          "velocity": 0.3937007874015748
        },
        {
          "duration": 0.09375,
          "durationTicks": 96,
          "midi": 58,
          "name": "A#3",
          "ticks": 201504,
          "time": 196.78125,
          "velocity": 0.3937007874015748
        },
        {
          "duration": 0.09375,
          "durationTicks": 96,
          "midi": 52,
          "name": "E3",
          "ticks": 201600,
          "time": 196.875,
          "velocity": 0.3937007874015748
        },
        {
          "duration": 0.09375,
          "durationTicks": 96,
          "midi": 58,
          "name": "A#3",
          "ticks": 201600,
          "time": 196.875,
          "velocity": 0.3937007874015748
        },
        {
          "duration": 0.09375,
          "durationTicks": 96,
          "midi": 55,
          "name": "G3",
          "ticks": 201600,
          "time": 196.875,
          "velocity": 0.3937007874015748
        },
        {
          "duration": 0.09375,
          "durationTicks": 96,
          "midi": 58,
          "name": "A#3",
          "ticks": 201696,
          "time": 196.96875,
          "velocity": 0.3937007874015748
        },
        {
          "duration": 0.09375,
          "durationTicks": 96,
          "midi": 52,
          "name": "E3",
          "ticks": 201696,
          "time": 196.96875,
          "velocity": 0.3937007874015748
        },
        {
          "duration": 0.09375,
          "durationTicks": 96,
          "midi": 55,
          "name": "G3",
          "ticks": 201696,
          "time": 196.96875,
          "velocity": 0.3937007874015748
        },
        {
          "duration": 0.09375,
          "durationTicks": 96,
          "midi": 52,
          "name": "E3",
          "ticks": 201792,
          "time": 197.0625,
          "velocity": 0.3937007874015748
        },
        {
          "duration": 0.09375,
          "durationTicks": 96,
          "midi": 58,
          "name": "A#3",
          "ticks": 201792,
          "time": 197.0625,
          "velocity": 0.3937007874015748
        },
        {
          "duration": 0.09375,
          "durationTicks": 96,
          "midi": 55,
          "name": "G3",
          "ticks": 201792,
          "time": 197.0625,
          "velocity": 0.3937007874015748
        },
        {
          "duration": 0.09375,
          "durationTicks": 96,
          "midi": 52,
          "name": "E3",
          "ticks": 201888,
          "time": 197.15625,
          "velocity": 0.3937007874015748
        },
        {
          "duration": 0.09375,
          "durationTicks": 96,
          "midi": 55,
          "name": "G3",
          "ticks": 201888,
          "time": 197.15625,
          "velocity": 0.3937007874015748
        },
        {
          "duration": 0.09375,
          "durationTicks": 96,
          "midi": 58,
          "name": "A#3",
          "ticks": 201888,
          "time": 197.15625,
          "velocity": 0.3937007874015748
        },
        {
          "duration": 0.09375,
          "durationTicks": 96,
          "midi": 58,
          "name": "A#3",
          "ticks": 201984,
          "time": 197.25,
          "velocity": 0.3937007874015748
        },
        {
          "duration": 0.09375,
          "durationTicks": 96,
          "midi": 52,
          "name": "E3",
          "ticks": 201984,
          "time": 197.25,
          "velocity": 0.3937007874015748
        },
        {
          "duration": 0.09375,
          "durationTicks": 96,
          "midi": 55,
          "name": "G3",
          "ticks": 201984,
          "time": 197.25,
          "velocity": 0.3937007874015748
        },
        {
          "duration": 0.09375,
          "durationTicks": 96,
          "midi": 55,
          "name": "G3",
          "ticks": 202080,
          "time": 197.34375,
          "velocity": 0.3937007874015748
        },
        {
          "duration": 0.09375,
          "durationTicks": 96,
          "midi": 58,
          "name": "A#3",
          "ticks": 202080,
          "time": 197.34375,
          "velocity": 0.3937007874015748
        },
        {
          "duration": 0.09375,
          "durationTicks": 96,
          "midi": 52,
          "name": "E3",
          "ticks": 202080,
          "time": 197.34375,
          "velocity": 0.3937007874015748
        },
        {
          "duration": 0.09375,
          "durationTicks": 96,
          "midi": 58,
          "name": "A#3",
          "ticks": 202176,
          "time": 197.4375,
          "velocity": 0.3937007874015748
        },
        {
          "duration": 0.09375,
          "durationTicks": 96,
          "midi": 55,
          "name": "G3",
          "ticks": 202176,
          "time": 197.4375,
          "velocity": 0.3937007874015748
        },
        {
          "duration": 0.09375,
          "durationTicks": 96,
          "midi": 52,
          "name": "E3",
          "ticks": 202176,
          "time": 197.4375,
          "velocity": 0.3937007874015748
        },
        {
          "duration": 0.09375,
          "durationTicks": 96,
          "midi": 52,
          "name": "E3",
          "ticks": 202272,
          "time": 197.53125,
          "velocity": 0.3937007874015748
        },
        {
          "duration": 0.09375,
          "durationTicks": 96,
          "midi": 55,
          "name": "G3",
          "ticks": 202272,
          "time": 197.53125,
          "velocity": 0.3937007874015748
        },
        {
          "duration": 0.09375,
          "durationTicks": 96,
          "midi": 58,
          "name": "A#3",
          "ticks": 202272,
          "time": 197.53125,
          "velocity": 0.3937007874015748
        },
        {
          "duration": 0.09375,
          "durationTicks": 96,
          "midi": 55,
          "name": "G3",
          "ticks": 202368,
          "time": 197.625,
          "velocity": 0.3937007874015748
        },
        {
          "duration": 0.09375,
          "durationTicks": 96,
          "midi": 52,
          "name": "E3",
          "ticks": 202368,
          "time": 197.625,
          "velocity": 0.3937007874015748
        },
        {
          "duration": 0.09375,
          "durationTicks": 96,
          "midi": 58,
          "name": "A#3",
          "ticks": 202368,
          "time": 197.625,
          "velocity": 0.3937007874015748
        },
        {
          "duration": 0.09375,
          "durationTicks": 96,
          "midi": 58,
          "name": "A#3",
          "ticks": 202464,
          "time": 197.71875,
          "velocity": 0.3937007874015748
        },
        {
          "duration": 0.09375,
          "durationTicks": 96,
          "midi": 55,
          "name": "G3",
          "ticks": 202464,
          "time": 197.71875,
          "velocity": 0.3937007874015748
        },
        {
          "duration": 0.09375,
          "durationTicks": 96,
          "midi": 52,
          "name": "E3",
          "ticks": 202464,
          "time": 197.71875,
          "velocity": 0.3937007874015748
        },
        {
          "duration": 0.09375,
          "durationTicks": 96,
          "midi": 52,
          "name": "E3",
          "ticks": 202560,
          "time": 197.8125,
          "velocity": 0.3937007874015748
        },
        {
          "duration": 0.09375,
          "durationTicks": 96,
          "midi": 58,
          "name": "A#3",
          "ticks": 202560,
          "time": 197.8125,
          "velocity": 0.3937007874015748
        },
        {
          "duration": 0.09375,
          "durationTicks": 96,
          "midi": 55,
          "name": "G3",
          "ticks": 202560,
          "time": 197.8125,
          "velocity": 0.3937007874015748
        },
        {
          "duration": 0.09375,
          "durationTicks": 96,
          "midi": 52,
          "name": "E3",
          "ticks": 202656,
          "time": 197.90625,
          "velocity": 0.3937007874015748
        },
        {
          "duration": 0.09375,
          "durationTicks": 96,
          "midi": 58,
          "name": "A#3",
          "ticks": 202656,
          "time": 197.90625,
          "velocity": 0.3937007874015748
        },
        {
          "duration": 0.09375,
          "durationTicks": 96,
          "midi": 55,
          "name": "G3",
          "ticks": 202656,
          "time": 197.90625,
          "velocity": 0.3937007874015748
        },
        {
          "duration": 0.09375,
          "durationTicks": 96,
          "midi": 54,
          "name": "F#3",
          "ticks": 202752,
          "time": 198,
          "velocity": 0.3937007874015748
        },
        {
          "duration": 0.09375,
          "durationTicks": 96,
          "midi": 46,
          "name": "A#2",
          "ticks": 202752,
          "time": 198,
          "velocity": 0.3937007874015748
        },
        {
          "duration": 0.09375,
          "durationTicks": 96,
          "midi": 49,
          "name": "C#3",
          "ticks": 202752,
          "time": 198,
          "velocity": 0.3937007874015748
        },
        {
          "duration": 0.09375,
          "durationTicks": 96,
          "midi": 46,
          "name": "A#2",
          "ticks": 202848,
          "time": 198.09375,
          "velocity": 0.3937007874015748
        },
        {
          "duration": 0.09375,
          "durationTicks": 96,
          "midi": 54,
          "name": "F#3",
          "ticks": 202848,
          "time": 198.09375,
          "velocity": 0.3937007874015748
        },
        {
          "duration": 0.09375,
          "durationTicks": 96,
          "midi": 49,
          "name": "C#3",
          "ticks": 202848,
          "time": 198.09375,
          "velocity": 0.3937007874015748
        },
        {
          "duration": 0.09375,
          "durationTicks": 96,
          "midi": 54,
          "name": "F#3",
          "ticks": 202944,
          "time": 198.1875,
          "velocity": 0.3937007874015748
        },
        {
          "duration": 0.09375,
          "durationTicks": 96,
          "midi": 46,
          "name": "A#2",
          "ticks": 202944,
          "time": 198.1875,
          "velocity": 0.3937007874015748
        },
        {
          "duration": 0.09375,
          "durationTicks": 96,
          "midi": 49,
          "name": "C#3",
          "ticks": 202944,
          "time": 198.1875,
          "velocity": 0.3937007874015748
        },
        {
          "duration": 0.09375,
          "durationTicks": 96,
          "midi": 49,
          "name": "C#3",
          "ticks": 203040,
          "time": 198.28125,
          "velocity": 0.3937007874015748
        },
        {
          "duration": 0.09375,
          "durationTicks": 96,
          "midi": 54,
          "name": "F#3",
          "ticks": 203040,
          "time": 198.28125,
          "velocity": 0.3937007874015748
        },
        {
          "duration": 0.09375,
          "durationTicks": 96,
          "midi": 46,
          "name": "A#2",
          "ticks": 203040,
          "time": 198.28125,
          "velocity": 0.3937007874015748
        },
        {
          "duration": 0.09375,
          "durationTicks": 96,
          "midi": 54,
          "name": "F#3",
          "ticks": 203136,
          "time": 198.375,
          "velocity": 0.3937007874015748
        },
        {
          "duration": 0.09375,
          "durationTicks": 96,
          "midi": 46,
          "name": "A#2",
          "ticks": 203136,
          "time": 198.375,
          "velocity": 0.3937007874015748
        },
        {
          "duration": 0.09375,
          "durationTicks": 96,
          "midi": 49,
          "name": "C#3",
          "ticks": 203136,
          "time": 198.375,
          "velocity": 0.3937007874015748
        },
        {
          "duration": 0.09375,
          "durationTicks": 96,
          "midi": 54,
          "name": "F#3",
          "ticks": 203232,
          "time": 198.46875,
          "velocity": 0.3937007874015748
        },
        {
          "duration": 0.09375,
          "durationTicks": 96,
          "midi": 46,
          "name": "A#2",
          "ticks": 203232,
          "time": 198.46875,
          "velocity": 0.3937007874015748
        },
        {
          "duration": 0.09375,
          "durationTicks": 96,
          "midi": 49,
          "name": "C#3",
          "ticks": 203232,
          "time": 198.46875,
          "velocity": 0.3937007874015748
        },
        {
          "duration": 0.09375,
          "durationTicks": 96,
          "midi": 54,
          "name": "F#3",
          "ticks": 203328,
          "time": 198.5625,
          "velocity": 0.3937007874015748
        },
        {
          "duration": 0.09375,
          "durationTicks": 96,
          "midi": 46,
          "name": "A#2",
          "ticks": 203328,
          "time": 198.5625,
          "velocity": 0.3937007874015748
        },
        {
          "duration": 0.09375,
          "durationTicks": 96,
          "midi": 49,
          "name": "C#3",
          "ticks": 203328,
          "time": 198.5625,
          "velocity": 0.3937007874015748
        },
        {
          "duration": 0.09375,
          "durationTicks": 96,
          "midi": 54,
          "name": "F#3",
          "ticks": 203424,
          "time": 198.65625,
          "velocity": 0.3937007874015748
        },
        {
          "duration": 0.09375,
          "durationTicks": 96,
          "midi": 46,
          "name": "A#2",
          "ticks": 203424,
          "time": 198.65625,
          "velocity": 0.3937007874015748
        },
        {
          "duration": 0.09375,
          "durationTicks": 96,
          "midi": 49,
          "name": "C#3",
          "ticks": 203424,
          "time": 198.65625,
          "velocity": 0.3937007874015748
        },
        {
          "duration": 0.09375,
          "durationTicks": 96,
          "midi": 54,
          "name": "F#3",
          "ticks": 203520,
          "time": 198.75,
          "velocity": 0.3937007874015748
        },
        {
          "duration": 0.09375,
          "durationTicks": 96,
          "midi": 49,
          "name": "C#3",
          "ticks": 203520,
          "time": 198.75,
          "velocity": 0.3937007874015748
        },
        {
          "duration": 0.09375,
          "durationTicks": 96,
          "midi": 46,
          "name": "A#2",
          "ticks": 203520,
          "time": 198.75,
          "velocity": 0.3937007874015748
        },
        {
          "duration": 0.09375,
          "durationTicks": 96,
          "midi": 46,
          "name": "A#2",
          "ticks": 203616,
          "time": 198.84375,
          "velocity": 0.3937007874015748
        },
        {
          "duration": 0.09375,
          "durationTicks": 96,
          "midi": 49,
          "name": "C#3",
          "ticks": 203616,
          "time": 198.84375,
          "velocity": 0.3937007874015748
        },
        {
          "duration": 0.09375,
          "durationTicks": 96,
          "midi": 54,
          "name": "F#3",
          "ticks": 203616,
          "time": 198.84375,
          "velocity": 0.3937007874015748
        },
        {
          "duration": 0.09375,
          "durationTicks": 96,
          "midi": 54,
          "name": "F#3",
          "ticks": 203712,
          "time": 198.9375,
          "velocity": 0.3937007874015748
        },
        {
          "duration": 0.09375,
          "durationTicks": 96,
          "midi": 49,
          "name": "C#3",
          "ticks": 203712,
          "time": 198.9375,
          "velocity": 0.3937007874015748
        },
        {
          "duration": 0.09375,
          "durationTicks": 96,
          "midi": 46,
          "name": "A#2",
          "ticks": 203712,
          "time": 198.9375,
          "velocity": 0.3937007874015748
        },
        {
          "duration": 0.09375,
          "durationTicks": 96,
          "midi": 49,
          "name": "C#3",
          "ticks": 203808,
          "time": 199.03125,
          "velocity": 0.3937007874015748
        },
        {
          "duration": 0.09375,
          "durationTicks": 96,
          "midi": 54,
          "name": "F#3",
          "ticks": 203808,
          "time": 199.03125,
          "velocity": 0.3937007874015748
        },
        {
          "duration": 0.09375,
          "durationTicks": 96,
          "midi": 46,
          "name": "A#2",
          "ticks": 203808,
          "time": 199.03125,
          "velocity": 0.3937007874015748
        },
        {
          "duration": 0.09375,
          "durationTicks": 96,
          "midi": 46,
          "name": "A#2",
          "ticks": 203904,
          "time": 199.125,
          "velocity": 0.3937007874015748
        },
        {
          "duration": 0.09375,
          "durationTicks": 96,
          "midi": 54,
          "name": "F#3",
          "ticks": 203904,
          "time": 199.125,
          "velocity": 0.3937007874015748
        },
        {
          "duration": 0.09375,
          "durationTicks": 96,
          "midi": 49,
          "name": "C#3",
          "ticks": 203904,
          "time": 199.125,
          "velocity": 0.3937007874015748
        },
        {
          "duration": 0.09375,
          "durationTicks": 96,
          "midi": 49,
          "name": "C#3",
          "ticks": 204000,
          "time": 199.21875,
          "velocity": 0.3937007874015748
        },
        {
          "duration": 0.09375,
          "durationTicks": 96,
          "midi": 46,
          "name": "A#2",
          "ticks": 204000,
          "time": 199.21875,
          "velocity": 0.3937007874015748
        },
        {
          "duration": 0.09375,
          "durationTicks": 96,
          "midi": 54,
          "name": "F#3",
          "ticks": 204000,
          "time": 199.21875,
          "velocity": 0.3937007874015748
        },
        {
          "duration": 0.09375,
          "durationTicks": 96,
          "midi": 49,
          "name": "C#3",
          "ticks": 204096,
          "time": 199.3125,
          "velocity": 0.3937007874015748
        },
        {
          "duration": 0.09375,
          "durationTicks": 96,
          "midi": 54,
          "name": "F#3",
          "ticks": 204096,
          "time": 199.3125,
          "velocity": 0.3937007874015748
        },
        {
          "duration": 0.09375,
          "durationTicks": 96,
          "midi": 46,
          "name": "A#2",
          "ticks": 204096,
          "time": 199.3125,
          "velocity": 0.3937007874015748
        },
        {
          "duration": 0.09375,
          "durationTicks": 96,
          "midi": 46,
          "name": "A#2",
          "ticks": 204192,
          "time": 199.40625,
          "velocity": 0.3937007874015748
        },
        {
          "duration": 0.09375,
          "durationTicks": 96,
          "midi": 54,
          "name": "F#3",
          "ticks": 204192,
          "time": 199.40625,
          "velocity": 0.3937007874015748
        },
        {
          "duration": 0.09375,
          "durationTicks": 96,
          "midi": 49,
          "name": "C#3",
          "ticks": 204192,
          "time": 199.40625,
          "velocity": 0.3937007874015748
        },
        {
          "duration": 0.09375,
          "durationTicks": 96,
          "midi": 52,
          "name": "E3",
          "ticks": 204288,
          "time": 199.5,
          "velocity": 0.3937007874015748
        },
        {
          "duration": 0.09375,
          "durationTicks": 96,
          "midi": 55,
          "name": "G3",
          "ticks": 204288,
          "time": 199.5,
          "velocity": 0.3937007874015748
        },
        {
          "duration": 0.09375,
          "durationTicks": 96,
          "midi": 60,
          "name": "C4",
          "ticks": 204288,
          "time": 199.5,
          "velocity": 0.3937007874015748
        },
        {
          "duration": 0.09375,
          "durationTicks": 96,
          "midi": 52,
          "name": "E3",
          "ticks": 204384,
          "time": 199.59375,
          "velocity": 0.3937007874015748
        },
        {
          "duration": 0.09375,
          "durationTicks": 96,
          "midi": 55,
          "name": "G3",
          "ticks": 204384,
          "time": 199.59375,
          "velocity": 0.3937007874015748
        },
        {
          "duration": 0.09375,
          "durationTicks": 96,
          "midi": 60,
          "name": "C4",
          "ticks": 204384,
          "time": 199.59375,
          "velocity": 0.3937007874015748
        },
        {
          "duration": 0.09375,
          "durationTicks": 96,
          "midi": 55,
          "name": "G3",
          "ticks": 204480,
          "time": 199.6875,
          "velocity": 0.3937007874015748
        },
        {
          "duration": 0.09375,
          "durationTicks": 96,
          "midi": 60,
          "name": "C4",
          "ticks": 204480,
          "time": 199.6875,
          "velocity": 0.3937007874015748
        },
        {
          "duration": 0.09375,
          "durationTicks": 96,
          "midi": 52,
          "name": "E3",
          "ticks": 204480,
          "time": 199.6875,
          "velocity": 0.3937007874015748
        },
        {
          "duration": 0.09375,
          "durationTicks": 96,
          "midi": 60,
          "name": "C4",
          "ticks": 204576,
          "time": 199.78125,
          "velocity": 0.3937007874015748
        },
        {
          "duration": 0.09375,
          "durationTicks": 96,
          "midi": 52,
          "name": "E3",
          "ticks": 204576,
          "time": 199.78125,
          "velocity": 0.3937007874015748
        },
        {
          "duration": 0.09375,
          "durationTicks": 96,
          "midi": 55,
          "name": "G3",
          "ticks": 204576,
          "time": 199.78125,
          "velocity": 0.3937007874015748
        },
        {
          "duration": 0.09375,
          "durationTicks": 96,
          "midi": 60,
          "name": "C4",
          "ticks": 204672,
          "time": 199.875,
          "velocity": 0.3937007874015748
        },
        {
          "duration": 0.09375,
          "durationTicks": 96,
          "midi": 52,
          "name": "E3",
          "ticks": 204672,
          "time": 199.875,
          "velocity": 0.3937007874015748
        },
        {
          "duration": 0.09375,
          "durationTicks": 96,
          "midi": 55,
          "name": "G3",
          "ticks": 204672,
          "time": 199.875,
          "velocity": 0.3937007874015748
        },
        {
          "duration": 0.09375,
          "durationTicks": 96,
          "midi": 60,
          "name": "C4",
          "ticks": 204768,
          "time": 199.96875,
          "velocity": 0.3937007874015748
        },
        {
          "duration": 0.09375,
          "durationTicks": 96,
          "midi": 52,
          "name": "E3",
          "ticks": 204768,
          "time": 199.96875,
          "velocity": 0.3937007874015748
        },
        {
          "duration": 0.09375,
          "durationTicks": 96,
          "midi": 55,
          "name": "G3",
          "ticks": 204768,
          "time": 199.96875,
          "velocity": 0.3937007874015748
        },
        {
          "duration": 0.09375,
          "durationTicks": 96,
          "midi": 60,
          "name": "C4",
          "ticks": 204864,
          "time": 200.0625,
          "velocity": 0.3937007874015748
        },
        {
          "duration": 0.09375,
          "durationTicks": 96,
          "midi": 52,
          "name": "E3",
          "ticks": 204864,
          "time": 200.0625,
          "velocity": 0.3937007874015748
        },
        {
          "duration": 0.09375,
          "durationTicks": 96,
          "midi": 55,
          "name": "G3",
          "ticks": 204864,
          "time": 200.0625,
          "velocity": 0.3937007874015748
        },
        {
          "duration": 0.09375,
          "durationTicks": 96,
          "midi": 60,
          "name": "C4",
          "ticks": 204960,
          "time": 200.15625,
          "velocity": 0.3937007874015748
        },
        {
          "duration": 0.09375,
          "durationTicks": 96,
          "midi": 55,
          "name": "G3",
          "ticks": 204960,
          "time": 200.15625,
          "velocity": 0.3937007874015748
        },
        {
          "duration": 0.09375,
          "durationTicks": 96,
          "midi": 52,
          "name": "E3",
          "ticks": 204960,
          "time": 200.15625,
          "velocity": 0.3937007874015748
        },
        {
          "duration": 0.09375,
          "durationTicks": 96,
          "midi": 52,
          "name": "E3",
          "ticks": 205056,
          "time": 200.25,
          "velocity": 0.3937007874015748
        },
        {
          "duration": 0.09375,
          "durationTicks": 96,
          "midi": 60,
          "name": "C4",
          "ticks": 205056,
          "time": 200.25,
          "velocity": 0.3937007874015748
        },
        {
          "duration": 0.09375,
          "durationTicks": 96,
          "midi": 55,
          "name": "G3",
          "ticks": 205056,
          "time": 200.25,
          "velocity": 0.3937007874015748
        },
        {
          "duration": 0.09375,
          "durationTicks": 96,
          "midi": 52,
          "name": "E3",
          "ticks": 205152,
          "time": 200.34375,
          "velocity": 0.3937007874015748
        },
        {
          "duration": 0.09375,
          "durationTicks": 96,
          "midi": 60,
          "name": "C4",
          "ticks": 205152,
          "time": 200.34375,
          "velocity": 0.3937007874015748
        },
        {
          "duration": 0.09375,
          "durationTicks": 96,
          "midi": 55,
          "name": "G3",
          "ticks": 205152,
          "time": 200.34375,
          "velocity": 0.3937007874015748
        },
        {
          "duration": 0.09375,
          "durationTicks": 96,
          "midi": 55,
          "name": "G3",
          "ticks": 205248,
          "time": 200.4375,
          "velocity": 0.3937007874015748
        },
        {
          "duration": 0.09375,
          "durationTicks": 96,
          "midi": 60,
          "name": "C4",
          "ticks": 205248,
          "time": 200.4375,
          "velocity": 0.3937007874015748
        },
        {
          "duration": 0.09375,
          "durationTicks": 96,
          "midi": 52,
          "name": "E3",
          "ticks": 205248,
          "time": 200.4375,
          "velocity": 0.3937007874015748
        },
        {
          "duration": 0.09375,
          "durationTicks": 96,
          "midi": 55,
          "name": "G3",
          "ticks": 205344,
          "time": 200.53125,
          "velocity": 0.3937007874015748
        },
        {
          "duration": 0.09375,
          "durationTicks": 96,
          "midi": 60,
          "name": "C4",
          "ticks": 205344,
          "time": 200.53125,
          "velocity": 0.3937007874015748
        },
        {
          "duration": 0.09375,
          "durationTicks": 96,
          "midi": 52,
          "name": "E3",
          "ticks": 205344,
          "time": 200.53125,
          "velocity": 0.3937007874015748
        },
        {
          "duration": 0.09375,
          "durationTicks": 96,
          "midi": 55,
          "name": "G3",
          "ticks": 205440,
          "time": 200.625,
          "velocity": 0.3937007874015748
        },
        {
          "duration": 0.09375,
          "durationTicks": 96,
          "midi": 60,
          "name": "C4",
          "ticks": 205440,
          "time": 200.625,
          "velocity": 0.3937007874015748
        },
        {
          "duration": 0.09375,
          "durationTicks": 96,
          "midi": 52,
          "name": "E3",
          "ticks": 205440,
          "time": 200.625,
          "velocity": 0.3937007874015748
        },
        {
          "duration": 0.09375,
          "durationTicks": 96,
          "midi": 60,
          "name": "C4",
          "ticks": 205536,
          "time": 200.71875,
          "velocity": 0.3937007874015748
        },
        {
          "duration": 0.09375,
          "durationTicks": 96,
          "midi": 55,
          "name": "G3",
          "ticks": 205536,
          "time": 200.71875,
          "velocity": 0.3937007874015748
        },
        {
          "duration": 0.09375,
          "durationTicks": 96,
          "midi": 52,
          "name": "E3",
          "ticks": 205536,
          "time": 200.71875,
          "velocity": 0.3937007874015748
        },
        {
          "duration": 0.09375,
          "durationTicks": 96,
          "midi": 52,
          "name": "E3",
          "ticks": 205632,
          "time": 200.8125,
          "velocity": 0.3937007874015748
        },
        {
          "duration": 0.09375,
          "durationTicks": 96,
          "midi": 60,
          "name": "C4",
          "ticks": 205632,
          "time": 200.8125,
          "velocity": 0.3937007874015748
        },
        {
          "duration": 0.09375,
          "durationTicks": 96,
          "midi": 55,
          "name": "G3",
          "ticks": 205632,
          "time": 200.8125,
          "velocity": 0.3937007874015748
        },
        {
          "duration": 0.09375,
          "durationTicks": 96,
          "midi": 60,
          "name": "C4",
          "ticks": 205728,
          "time": 200.90625,
          "velocity": 0.3937007874015748
        },
        {
          "duration": 0.09375,
          "durationTicks": 96,
          "midi": 55,
          "name": "G3",
          "ticks": 205728,
          "time": 200.90625,
          "velocity": 0.3937007874015748
        },
        {
          "duration": 0.09375,
          "durationTicks": 96,
          "midi": 52,
          "name": "E3",
          "ticks": 205728,
          "time": 200.90625,
          "velocity": 0.3937007874015748
        },
        {
          "duration": 0.09375,
          "durationTicks": 96,
          "midi": 65,
          "name": "F4",
          "ticks": 205824,
          "time": 201,
          "velocity": 0.3937007874015748
        },
        {
          "duration": 0.09375,
          "durationTicks": 96,
          "midi": 60,
          "name": "C4",
          "ticks": 205824,
          "time": 201,
          "velocity": 0.3937007874015748
        },
        {
          "duration": 0.09375,
          "durationTicks": 96,
          "midi": 56,
          "name": "G#3",
          "ticks": 205824,
          "time": 201,
          "velocity": 0.3937007874015748
        },
        {
          "duration": 0.09375,
          "durationTicks": 96,
          "midi": 60,
          "name": "C4",
          "ticks": 205920,
          "time": 201.09375,
          "velocity": 0.3937007874015748
        },
        {
          "duration": 0.09375,
          "durationTicks": 96,
          "midi": 56,
          "name": "G#3",
          "ticks": 205920,
          "time": 201.09375,
          "velocity": 0.3937007874015748
        },
        {
          "duration": 0.09375,
          "durationTicks": 96,
          "midi": 65,
          "name": "F4",
          "ticks": 205920,
          "time": 201.09375,
          "velocity": 0.3937007874015748
        },
        {
          "duration": 0.09375,
          "durationTicks": 96,
          "midi": 56,
          "name": "G#3",
          "ticks": 206016,
          "time": 201.1875,
          "velocity": 0.3937007874015748
        },
        {
          "duration": 0.09375,
          "durationTicks": 96,
          "midi": 60,
          "name": "C4",
          "ticks": 206016,
          "time": 201.1875,
          "velocity": 0.3937007874015748
        },
        {
          "duration": 0.09375,
          "durationTicks": 96,
          "midi": 65,
          "name": "F4",
          "ticks": 206016,
          "time": 201.1875,
          "velocity": 0.3937007874015748
        },
        {
          "duration": 0.09375,
          "durationTicks": 96,
          "midi": 60,
          "name": "C4",
          "ticks": 206112,
          "time": 201.28125,
          "velocity": 0.3937007874015748
        },
        {
          "duration": 0.09375,
          "durationTicks": 96,
          "midi": 56,
          "name": "G#3",
          "ticks": 206112,
          "time": 201.28125,
          "velocity": 0.3937007874015748
        },
        {
          "duration": 0.09375,
          "durationTicks": 96,
          "midi": 65,
          "name": "F4",
          "ticks": 206112,
          "time": 201.28125,
          "velocity": 0.3937007874015748
        },
        {
          "duration": 0.09375,
          "durationTicks": 96,
          "midi": 65,
          "name": "F4",
          "ticks": 206208,
          "time": 201.375,
          "velocity": 0.3937007874015748
        },
        {
          "duration": 0.09375,
          "durationTicks": 96,
          "midi": 60,
          "name": "C4",
          "ticks": 206208,
          "time": 201.375,
          "velocity": 0.3937007874015748
        },
        {
          "duration": 0.09375,
          "durationTicks": 96,
          "midi": 56,
          "name": "G#3",
          "ticks": 206208,
          "time": 201.375,
          "velocity": 0.3937007874015748
        },
        {
          "duration": 0.09375,
          "durationTicks": 96,
          "midi": 56,
          "name": "G#3",
          "ticks": 206304,
          "time": 201.46875,
          "velocity": 0.3937007874015748
        },
        {
          "duration": 0.09375,
          "durationTicks": 96,
          "midi": 65,
          "name": "F4",
          "ticks": 206304,
          "time": 201.46875,
          "velocity": 0.3937007874015748
        },
        {
          "duration": 0.09375,
          "durationTicks": 96,
          "midi": 60,
          "name": "C4",
          "ticks": 206304,
          "time": 201.46875,
          "velocity": 0.3937007874015748
        },
        {
          "duration": 0.09375,
          "durationTicks": 96,
          "midi": 65,
          "name": "F4",
          "ticks": 206400,
          "time": 201.5625,
          "velocity": 0.3937007874015748
        },
        {
          "duration": 0.09375,
          "durationTicks": 96,
          "midi": 56,
          "name": "G#3",
          "ticks": 206400,
          "time": 201.5625,
          "velocity": 0.3937007874015748
        },
        {
          "duration": 0.09375,
          "durationTicks": 96,
          "midi": 60,
          "name": "C4",
          "ticks": 206400,
          "time": 201.5625,
          "velocity": 0.3937007874015748
        },
        {
          "duration": 0.09375,
          "durationTicks": 96,
          "midi": 65,
          "name": "F4",
          "ticks": 206496,
          "time": 201.65625,
          "velocity": 0.3937007874015748
        },
        {
          "duration": 0.09375,
          "durationTicks": 96,
          "midi": 56,
          "name": "G#3",
          "ticks": 206496,
          "time": 201.65625,
          "velocity": 0.3937007874015748
        },
        {
          "duration": 0.09375,
          "durationTicks": 96,
          "midi": 60,
          "name": "C4",
          "ticks": 206496,
          "time": 201.65625,
          "velocity": 0.3937007874015748
        },
        {
          "duration": 0.09375,
          "durationTicks": 96,
          "midi": 56,
          "name": "G#3",
          "ticks": 206592,
          "time": 201.75,
          "velocity": 0.3937007874015748
        },
        {
          "duration": 0.09375,
          "durationTicks": 96,
          "midi": 65,
          "name": "F4",
          "ticks": 206592,
          "time": 201.75,
          "velocity": 0.3937007874015748
        },
        {
          "duration": 0.09375,
          "durationTicks": 96,
          "midi": 60,
          "name": "C4",
          "ticks": 206592,
          "time": 201.75,
          "velocity": 0.3937007874015748
        },
        {
          "duration": 0.09375,
          "durationTicks": 96,
          "midi": 60,
          "name": "C4",
          "ticks": 206688,
          "time": 201.84375,
          "velocity": 0.3937007874015748
        },
        {
          "duration": 0.09375,
          "durationTicks": 96,
          "midi": 56,
          "name": "G#3",
          "ticks": 206688,
          "time": 201.84375,
          "velocity": 0.3937007874015748
        },
        {
          "duration": 0.09375,
          "durationTicks": 96,
          "midi": 65,
          "name": "F4",
          "ticks": 206688,
          "time": 201.84375,
          "velocity": 0.3937007874015748
        },
        {
          "duration": 0.09375,
          "durationTicks": 96,
          "midi": 65,
          "name": "F4",
          "ticks": 206784,
          "time": 201.9375,
          "velocity": 0.3937007874015748
        },
        {
          "duration": 0.09375,
          "durationTicks": 96,
          "midi": 60,
          "name": "C4",
          "ticks": 206784,
          "time": 201.9375,
          "velocity": 0.3937007874015748
        },
        {
          "duration": 0.09375,
          "durationTicks": 96,
          "midi": 56,
          "name": "G#3",
          "ticks": 206784,
          "time": 201.9375,
          "velocity": 0.3937007874015748
        },
        {
          "duration": 0.09375,
          "durationTicks": 96,
          "midi": 60,
          "name": "C4",
          "ticks": 206880,
          "time": 202.03125,
          "velocity": 0.3937007874015748
        },
        {
          "duration": 0.09375,
          "durationTicks": 96,
          "midi": 56,
          "name": "G#3",
          "ticks": 206880,
          "time": 202.03125,
          "velocity": 0.3937007874015748
        },
        {
          "duration": 0.09375,
          "durationTicks": 96,
          "midi": 65,
          "name": "F4",
          "ticks": 206880,
          "time": 202.03125,
          "velocity": 0.3937007874015748
        },
        {
          "duration": 0.09375,
          "durationTicks": 96,
          "midi": 56,
          "name": "G#3",
          "ticks": 206976,
          "time": 202.125,
          "velocity": 0.3937007874015748
        },
        {
          "duration": 0.09375,
          "durationTicks": 96,
          "midi": 65,
          "name": "F4",
          "ticks": 206976,
          "time": 202.125,
          "velocity": 0.3937007874015748
        },
        {
          "duration": 0.09375,
          "durationTicks": 96,
          "midi": 60,
          "name": "C4",
          "ticks": 206976,
          "time": 202.125,
          "velocity": 0.3937007874015748
        },
        {
          "duration": 0.09375,
          "durationTicks": 96,
          "midi": 60,
          "name": "C4",
          "ticks": 207072,
          "time": 202.21875,
          "velocity": 0.3937007874015748
        },
        {
          "duration": 0.09375,
          "durationTicks": 96,
          "midi": 65,
          "name": "F4",
          "ticks": 207072,
          "time": 202.21875,
          "velocity": 0.3937007874015748
        },
        {
          "duration": 0.09375,
          "durationTicks": 96,
          "midi": 56,
          "name": "G#3",
          "ticks": 207072,
          "time": 202.21875,
          "velocity": 0.3937007874015748
        },
        {
          "duration": 0.09375,
          "durationTicks": 96,
          "midi": 56,
          "name": "G#3",
          "ticks": 207168,
          "time": 202.3125,
          "velocity": 0.3937007874015748
        },
        {
          "duration": 0.09375,
          "durationTicks": 96,
          "midi": 65,
          "name": "F4",
          "ticks": 207168,
          "time": 202.3125,
          "velocity": 0.3937007874015748
        },
        {
          "duration": 0.09375,
          "durationTicks": 96,
          "midi": 60,
          "name": "C4",
          "ticks": 207168,
          "time": 202.3125,
          "velocity": 0.3937007874015748
        },
        {
          "duration": 0.09375,
          "durationTicks": 96,
          "midi": 60,
          "name": "C4",
          "ticks": 207264,
          "time": 202.40625,
          "velocity": 0.3937007874015748
        },
        {
          "duration": 0.09375,
          "durationTicks": 96,
          "midi": 56,
          "name": "G#3",
          "ticks": 207264,
          "time": 202.40625,
          "velocity": 0.3937007874015748
        },
        {
          "duration": 0.09375,
          "durationTicks": 96,
          "midi": 65,
          "name": "F4",
          "ticks": 207264,
          "time": 202.40625,
          "velocity": 0.3937007874015748
        },
        {
          "duration": 0.09375,
          "durationTicks": 96,
          "midi": 64,
          "name": "E4",
          "ticks": 207360,
          "time": 202.5,
          "velocity": 0.3937007874015748
        },
        {
          "duration": 0.09375,
          "durationTicks": 96,
          "midi": 55,
          "name": "G3",
          "ticks": 207360,
          "time": 202.5,
          "velocity": 0.3937007874015748
        },
        {
          "duration": 0.09375,
          "durationTicks": 96,
          "midi": 60,
          "name": "C4",
          "ticks": 207360,
          "time": 202.5,
          "velocity": 0.3937007874015748
        },
        {
          "duration": 0.09375,
          "durationTicks": 96,
          "midi": 60,
          "name": "C4",
          "ticks": 207456,
          "time": 202.59375,
          "velocity": 0.3937007874015748
        },
        {
          "duration": 0.09375,
          "durationTicks": 96,
          "midi": 64,
          "name": "E4",
          "ticks": 207456,
          "time": 202.59375,
          "velocity": 0.3937007874015748
        },
        {
          "duration": 0.09375,
          "durationTicks": 96,
          "midi": 55,
          "name": "G3",
          "ticks": 207456,
          "time": 202.59375,
          "velocity": 0.3937007874015748
        },
        {
          "duration": 0.09375,
          "durationTicks": 96,
          "midi": 55,
          "name": "G3",
          "ticks": 207552,
          "time": 202.6875,
          "velocity": 0.3937007874015748
        },
        {
          "duration": 0.09375,
          "durationTicks": 96,
          "midi": 60,
          "name": "C4",
          "ticks": 207552,
          "time": 202.6875,
          "velocity": 0.3937007874015748
        },
        {
          "duration": 0.09375,
          "durationTicks": 96,
          "midi": 64,
          "name": "E4",
          "ticks": 207552,
          "time": 202.6875,
          "velocity": 0.3937007874015748
        },
        {
          "duration": 0.09375,
          "durationTicks": 96,
          "midi": 64,
          "name": "E4",
          "ticks": 207648,
          "time": 202.78125,
          "velocity": 0.3937007874015748
        },
        {
          "duration": 0.09375,
          "durationTicks": 96,
          "midi": 60,
          "name": "C4",
          "ticks": 207648,
          "time": 202.78125,
          "velocity": 0.3937007874015748
        },
        {
          "duration": 0.09375,
          "durationTicks": 96,
          "midi": 55,
          "name": "G3",
          "ticks": 207648,
          "time": 202.78125,
          "velocity": 0.3937007874015748
        },
        {
          "duration": 0.09375,
          "durationTicks": 96,
          "midi": 55,
          "name": "G3",
          "ticks": 207744,
          "time": 202.875,
          "velocity": 0.3937007874015748
        },
        {
          "duration": 0.09375,
          "durationTicks": 96,
          "midi": 60,
          "name": "C4",
          "ticks": 207744,
          "time": 202.875,
          "velocity": 0.3937007874015748
        },
        {
          "duration": 0.09375,
          "durationTicks": 96,
          "midi": 64,
          "name": "E4",
          "ticks": 207744,
          "time": 202.875,
          "velocity": 0.3937007874015748
        },
        {
          "duration": 0.09375,
          "durationTicks": 96,
          "midi": 55,
          "name": "G3",
          "ticks": 207840,
          "time": 202.96875,
          "velocity": 0.3937007874015748
        },
        {
          "duration": 0.09375,
          "durationTicks": 96,
          "midi": 64,
          "name": "E4",
          "ticks": 207840,
          "time": 202.96875,
          "velocity": 0.3937007874015748
        },
        {
          "duration": 0.09375,
          "durationTicks": 96,
          "midi": 60,
          "name": "C4",
          "ticks": 207840,
          "time": 202.96875,
          "velocity": 0.3937007874015748
        },
        {
          "duration": 0.09375,
          "durationTicks": 96,
          "midi": 55,
          "name": "G3",
          "ticks": 207936,
          "time": 203.0625,
          "velocity": 0.3937007874015748
        },
        {
          "duration": 0.09375,
          "durationTicks": 96,
          "midi": 64,
          "name": "E4",
          "ticks": 207936,
          "time": 203.0625,
          "velocity": 0.3937007874015748
        },
        {
          "duration": 0.09375,
          "durationTicks": 96,
          "midi": 60,
          "name": "C4",
          "ticks": 207936,
          "time": 203.0625,
          "velocity": 0.3937007874015748
        },
        {
          "duration": 0.09375,
          "durationTicks": 96,
          "midi": 55,
          "name": "G3",
          "ticks": 208032,
          "time": 203.15625,
          "velocity": 0.3937007874015748
        },
        {
          "duration": 0.09375,
          "durationTicks": 96,
          "midi": 60,
          "name": "C4",
          "ticks": 208032,
          "time": 203.15625,
          "velocity": 0.3937007874015748
        },
        {
          "duration": 0.09375,
          "durationTicks": 96,
          "midi": 64,
          "name": "E4",
          "ticks": 208032,
          "time": 203.15625,
          "velocity": 0.3937007874015748
        },
        {
          "duration": 0.09375,
          "durationTicks": 96,
          "midi": 60,
          "name": "C4",
          "ticks": 208128,
          "time": 203.25,
          "velocity": 0.3937007874015748
        },
        {
          "duration": 0.09375,
          "durationTicks": 96,
          "midi": 64,
          "name": "E4",
          "ticks": 208128,
          "time": 203.25,
          "velocity": 0.3937007874015748
        },
        {
          "duration": 0.09375,
          "durationTicks": 96,
          "midi": 55,
          "name": "G3",
          "ticks": 208128,
          "time": 203.25,
          "velocity": 0.3937007874015748
        },
        {
          "duration": 0.09375,
          "durationTicks": 96,
          "midi": 64,
          "name": "E4",
          "ticks": 208224,
          "time": 203.34375,
          "velocity": 0.3937007874015748
        },
        {
          "duration": 0.09375,
          "durationTicks": 96,
          "midi": 55,
          "name": "G3",
          "ticks": 208224,
          "time": 203.34375,
          "velocity": 0.3937007874015748
        },
        {
          "duration": 0.09375,
          "durationTicks": 96,
          "midi": 60,
          "name": "C4",
          "ticks": 208224,
          "time": 203.34375,
          "velocity": 0.3937007874015748
        },
        {
          "duration": 0.09375,
          "durationTicks": 96,
          "midi": 64,
          "name": "E4",
          "ticks": 208320,
          "time": 203.4375,
          "velocity": 0.3937007874015748
        },
        {
          "duration": 0.09375,
          "durationTicks": 96,
          "midi": 55,
          "name": "G3",
          "ticks": 208320,
          "time": 203.4375,
          "velocity": 0.3937007874015748
        },
        {
          "duration": 0.09375,
          "durationTicks": 96,
          "midi": 60,
          "name": "C4",
          "ticks": 208320,
          "time": 203.4375,
          "velocity": 0.3937007874015748
        },
        {
          "duration": 0.09375,
          "durationTicks": 96,
          "midi": 55,
          "name": "G3",
          "ticks": 208416,
          "time": 203.53125,
          "velocity": 0.3937007874015748
        },
        {
          "duration": 0.09375,
          "durationTicks": 96,
          "midi": 60,
          "name": "C4",
          "ticks": 208416,
          "time": 203.53125,
          "velocity": 0.3937007874015748
        },
        {
          "duration": 0.09375,
          "durationTicks": 96,
          "midi": 64,
          "name": "E4",
          "ticks": 208416,
          "time": 203.53125,
          "velocity": 0.3937007874015748
        },
        {
          "duration": 0.09375,
          "durationTicks": 96,
          "midi": 64,
          "name": "E4",
          "ticks": 208512,
          "time": 203.625,
          "velocity": 0.3937007874015748
        },
        {
          "duration": 0.09375,
          "durationTicks": 96,
          "midi": 55,
          "name": "G3",
          "ticks": 208512,
          "time": 203.625,
          "velocity": 0.3937007874015748
        },
        {
          "duration": 0.09375,
          "durationTicks": 96,
          "midi": 60,
          "name": "C4",
          "ticks": 208512,
          "time": 203.625,
          "velocity": 0.3937007874015748
        },
        {
          "duration": 0.09375,
          "durationTicks": 96,
          "midi": 60,
          "name": "C4",
          "ticks": 208608,
          "time": 203.71875,
          "velocity": 0.3937007874015748
        },
        {
          "duration": 0.09375,
          "durationTicks": 96,
          "midi": 64,
          "name": "E4",
          "ticks": 208608,
          "time": 203.71875,
          "velocity": 0.3937007874015748
        },
        {
          "duration": 0.09375,
          "durationTicks": 96,
          "midi": 55,
          "name": "G3",
          "ticks": 208608,
          "time": 203.71875,
          "velocity": 0.3937007874015748
        },
        {
          "duration": 0.09375,
          "durationTicks": 96,
          "midi": 55,
          "name": "G3",
          "ticks": 208704,
          "time": 203.8125,
          "velocity": 0.3937007874015748
        },
        {
          "duration": 0.09375,
          "durationTicks": 96,
          "midi": 60,
          "name": "C4",
          "ticks": 208704,
          "time": 203.8125,
          "velocity": 0.3937007874015748
        },
        {
          "duration": 0.09375,
          "durationTicks": 96,
          "midi": 64,
          "name": "E4",
          "ticks": 208704,
          "time": 203.8125,
          "velocity": 0.3937007874015748
        },
        {
          "duration": 0.09375,
          "durationTicks": 96,
          "midi": 60,
          "name": "C4",
          "ticks": 208800,
          "time": 203.90625,
          "velocity": 0.3937007874015748
        },
        {
          "duration": 0.09375,
          "durationTicks": 96,
          "midi": 64,
          "name": "E4",
          "ticks": 208800,
          "time": 203.90625,
          "velocity": 0.3937007874015748
        },
        {
          "duration": 0.09375,
          "durationTicks": 96,
          "midi": 55,
          "name": "G3",
          "ticks": 208800,
          "time": 203.90625,
          "velocity": 0.3937007874015748
        },
        {
          "duration": 0.09375,
          "durationTicks": 96,
          "midi": 55,
          "name": "G3",
          "ticks": 208896,
          "time": 204,
          "velocity": 0.3937007874015748
        },
        {
          "duration": 0.09375,
          "durationTicks": 96,
          "midi": 60,
          "name": "C4",
          "ticks": 208896,
          "time": 204,
          "velocity": 0.3937007874015748
        },
        {
          "duration": 0.09375,
          "durationTicks": 96,
          "midi": 63,
          "name": "D#4",
          "ticks": 208896,
          "time": 204,
          "velocity": 0.3937007874015748
        },
        {
          "duration": 0.09375,
          "durationTicks": 96,
          "midi": 55,
          "name": "G3",
          "ticks": 208992,
          "time": 204.09375,
          "velocity": 0.3937007874015748
        },
        {
          "duration": 0.09375,
          "durationTicks": 96,
          "midi": 63,
          "name": "D#4",
          "ticks": 208992,
          "time": 204.09375,
          "velocity": 0.3937007874015748
        },
        {
          "duration": 0.09375,
          "durationTicks": 96,
          "midi": 60,
          "name": "C4",
          "ticks": 208992,
          "time": 204.09375,
          "velocity": 0.3937007874015748
        },
        {
          "duration": 0.09375,
          "durationTicks": 96,
          "midi": 60,
          "name": "C4",
          "ticks": 209088,
          "time": 204.1875,
          "velocity": 0.3937007874015748
        },
        {
          "duration": 0.09375,
          "durationTicks": 96,
          "midi": 63,
          "name": "D#4",
          "ticks": 209088,
          "time": 204.1875,
          "velocity": 0.3937007874015748
        },
        {
          "duration": 0.09375,
          "durationTicks": 96,
          "midi": 55,
          "name": "G3",
          "ticks": 209088,
          "time": 204.1875,
          "velocity": 0.3937007874015748
        },
        {
          "duration": 0.09375,
          "durationTicks": 96,
          "midi": 55,
          "name": "G3",
          "ticks": 209184,
          "time": 204.28125,
          "velocity": 0.3937007874015748
        },
        {
          "duration": 0.09375,
          "durationTicks": 96,
          "midi": 60,
          "name": "C4",
          "ticks": 209184,
          "time": 204.28125,
          "velocity": 0.3937007874015748
        },
        {
          "duration": 0.09375,
          "durationTicks": 96,
          "midi": 63,
          "name": "D#4",
          "ticks": 209184,
          "time": 204.28125,
          "velocity": 0.3937007874015748
        },
        {
          "duration": 0.09375,
          "durationTicks": 96,
          "midi": 63,
          "name": "D#4",
          "ticks": 209280,
          "time": 204.375,
          "velocity": 0.3937007874015748
        },
        {
          "duration": 0.09375,
          "durationTicks": 96,
          "midi": 55,
          "name": "G3",
          "ticks": 209280,
          "time": 204.375,
          "velocity": 0.3937007874015748
        },
        {
          "duration": 0.09375,
          "durationTicks": 96,
          "midi": 60,
          "name": "C4",
          "ticks": 209280,
          "time": 204.375,
          "velocity": 0.3937007874015748
        },
        {
          "duration": 0.09375,
          "durationTicks": 96,
          "midi": 55,
          "name": "G3",
          "ticks": 209376,
          "time": 204.46875,
          "velocity": 0.3937007874015748
        },
        {
          "duration": 0.09375,
          "durationTicks": 96,
          "midi": 60,
          "name": "C4",
          "ticks": 209376,
          "time": 204.46875,
          "velocity": 0.3937007874015748
        },
        {
          "duration": 0.09375,
          "durationTicks": 96,
          "midi": 63,
          "name": "D#4",
          "ticks": 209376,
          "time": 204.46875,
          "velocity": 0.3937007874015748
        },
        {
          "duration": 0.09375,
          "durationTicks": 96,
          "midi": 55,
          "name": "G3",
          "ticks": 209472,
          "time": 204.5625,
          "velocity": 0.3937007874015748
        },
        {
          "duration": 0.09375,
          "durationTicks": 96,
          "midi": 60,
          "name": "C4",
          "ticks": 209472,
          "time": 204.5625,
          "velocity": 0.3937007874015748
        },
        {
          "duration": 0.09375,
          "durationTicks": 96,
          "midi": 63,
          "name": "D#4",
          "ticks": 209472,
          "time": 204.5625,
          "velocity": 0.3937007874015748
        },
        {
          "duration": 0.09375,
          "durationTicks": 96,
          "midi": 60,
          "name": "C4",
          "ticks": 209568,
          "time": 204.65625,
          "velocity": 0.3937007874015748
        },
        {
          "duration": 0.09375,
          "durationTicks": 96,
          "midi": 63,
          "name": "D#4",
          "ticks": 209568,
          "time": 204.65625,
          "velocity": 0.3937007874015748
        },
        {
          "duration": 0.09375,
          "durationTicks": 96,
          "midi": 55,
          "name": "G3",
          "ticks": 209568,
          "time": 204.65625,
          "velocity": 0.3937007874015748
        },
        {
          "duration": 0.09375,
          "durationTicks": 96,
          "midi": 60,
          "name": "C4",
          "ticks": 209664,
          "time": 204.75,
          "velocity": 0.3937007874015748
        },
        {
          "duration": 0.09375,
          "durationTicks": 96,
          "midi": 55,
          "name": "G3",
          "ticks": 209664,
          "time": 204.75,
          "velocity": 0.3937007874015748
        },
        {
          "duration": 0.09375,
          "durationTicks": 96,
          "midi": 63,
          "name": "D#4",
          "ticks": 209664,
          "time": 204.75,
          "velocity": 0.3937007874015748
        },
        {
          "duration": 0.09375,
          "durationTicks": 96,
          "midi": 63,
          "name": "D#4",
          "ticks": 209760,
          "time": 204.84375,
          "velocity": 0.3937007874015748
        },
        {
          "duration": 0.09375,
          "durationTicks": 96,
          "midi": 60,
          "name": "C4",
          "ticks": 209760,
          "time": 204.84375,
          "velocity": 0.3937007874015748
        },
        {
          "duration": 0.09375,
          "durationTicks": 96,
          "midi": 55,
          "name": "G3",
          "ticks": 209760,
          "time": 204.84375,
          "velocity": 0.3937007874015748
        },
        {
          "duration": 0.09375,
          "durationTicks": 96,
          "midi": 55,
          "name": "G3",
          "ticks": 209856,
          "time": 204.9375,
          "velocity": 0.3937007874015748
        },
        {
          "duration": 0.09375,
          "durationTicks": 96,
          "midi": 60,
          "name": "C4",
          "ticks": 209856,
          "time": 204.9375,
          "velocity": 0.3937007874015748
        },
        {
          "duration": 0.09375,
          "durationTicks": 96,
          "midi": 63,
          "name": "D#4",
          "ticks": 209856,
          "time": 204.9375,
          "velocity": 0.3937007874015748
        },
        {
          "duration": 0.09375,
          "durationTicks": 96,
          "midi": 60,
          "name": "C4",
          "ticks": 209952,
          "time": 205.03125,
          "velocity": 0.3937007874015748
        },
        {
          "duration": 0.09375,
          "durationTicks": 96,
          "midi": 55,
          "name": "G3",
          "ticks": 209952,
          "time": 205.03125,
          "velocity": 0.3937007874015748
        },
        {
          "duration": 0.09375,
          "durationTicks": 96,
          "midi": 63,
          "name": "D#4",
          "ticks": 209952,
          "time": 205.03125,
          "velocity": 0.3937007874015748
        },
        {
          "duration": 0.09375,
          "durationTicks": 96,
          "midi": 63,
          "name": "D#4",
          "ticks": 210048,
          "time": 205.125,
          "velocity": 0.3937007874015748
        },
        {
          "duration": 0.09375,
          "durationTicks": 96,
          "midi": 60,
          "name": "C4",
          "ticks": 210048,
          "time": 205.125,
          "velocity": 0.3937007874015748
        },
        {
          "duration": 0.09375,
          "durationTicks": 96,
          "midi": 55,
          "name": "G3",
          "ticks": 210048,
          "time": 205.125,
          "velocity": 0.3937007874015748
        },
        {
          "duration": 0.09375,
          "durationTicks": 96,
          "midi": 60,
          "name": "C4",
          "ticks": 210144,
          "time": 205.21875,
          "velocity": 0.3937007874015748
        },
        {
          "duration": 0.09375,
          "durationTicks": 96,
          "midi": 55,
          "name": "G3",
          "ticks": 210144,
          "time": 205.21875,
          "velocity": 0.3937007874015748
        },
        {
          "duration": 0.09375,
          "durationTicks": 96,
          "midi": 63,
          "name": "D#4",
          "ticks": 210144,
          "time": 205.21875,
          "velocity": 0.3937007874015748
        },
        {
          "duration": 0.09375,
          "durationTicks": 96,
          "midi": 60,
          "name": "C4",
          "ticks": 210240,
          "time": 205.3125,
          "velocity": 0.3937007874015748
        },
        {
          "duration": 0.09375,
          "durationTicks": 96,
          "midi": 55,
          "name": "G3",
          "ticks": 210240,
          "time": 205.3125,
          "velocity": 0.3937007874015748
        },
        {
          "duration": 0.09375,
          "durationTicks": 96,
          "midi": 63,
          "name": "D#4",
          "ticks": 210240,
          "time": 205.3125,
          "velocity": 0.3937007874015748
        },
        {
          "duration": 0.09375,
          "durationTicks": 96,
          "midi": 63,
          "name": "D#4",
          "ticks": 210336,
          "time": 205.40625,
          "velocity": 0.3937007874015748
        },
        {
          "duration": 0.09375,
          "durationTicks": 96,
          "midi": 55,
          "name": "G3",
          "ticks": 210336,
          "time": 205.40625,
          "velocity": 0.3937007874015748
        },
        {
          "duration": 0.09375,
          "durationTicks": 96,
          "midi": 60,
          "name": "C4",
          "ticks": 210336,
          "time": 205.40625,
          "velocity": 0.3937007874015748
        },
        {
          "duration": 0.09375,
          "durationTicks": 96,
          "midi": 62,
          "name": "D4",
          "ticks": 210432,
          "time": 205.5,
          "velocity": 0.3937007874015748
        },
        {
          "duration": 0.09375,
          "durationTicks": 96,
          "midi": 59,
          "name": "B3",
          "ticks": 210432,
          "time": 205.5,
          "velocity": 0.3937007874015748
        },
        {
          "duration": 0.09375,
          "durationTicks": 96,
          "midi": 55,
          "name": "G3",
          "ticks": 210432,
          "time": 205.5,
          "velocity": 0.3937007874015748
        },
        {
          "duration": 0.09375,
          "durationTicks": 96,
          "midi": 59,
          "name": "B3",
          "ticks": 210528,
          "time": 205.59375,
          "velocity": 0.3937007874015748
        },
        {
          "duration": 0.09375,
          "durationTicks": 96,
          "midi": 55,
          "name": "G3",
          "ticks": 210528,
          "time": 205.59375,
          "velocity": 0.3937007874015748
        },
        {
          "duration": 0.09375,
          "durationTicks": 96,
          "midi": 62,
          "name": "D4",
          "ticks": 210528,
          "time": 205.59375,
          "velocity": 0.3937007874015748
        },
        {
          "duration": 0.09375,
          "durationTicks": 96,
          "midi": 55,
          "name": "G3",
          "ticks": 210624,
          "time": 205.6875,
          "velocity": 0.3937007874015748
        },
        {
          "duration": 0.09375,
          "durationTicks": 96,
          "midi": 59,
          "name": "B3",
          "ticks": 210624,
          "time": 205.6875,
          "velocity": 0.3937007874015748
        },
        {
          "duration": 0.09375,
          "durationTicks": 96,
          "midi": 62,
          "name": "D4",
          "ticks": 210624,
          "time": 205.6875,
          "velocity": 0.3937007874015748
        },
        {
          "duration": 0.09375,
          "durationTicks": 96,
          "midi": 55,
          "name": "G3",
          "ticks": 210720,
          "time": 205.78125,
          "velocity": 0.3937007874015748
        },
        {
          "duration": 0.09375,
          "durationTicks": 96,
          "midi": 62,
          "name": "D4",
          "ticks": 210720,
          "time": 205.78125,
          "velocity": 0.3937007874015748
        },
        {
          "duration": 0.09375,
          "durationTicks": 96,
          "midi": 59,
          "name": "B3",
          "ticks": 210720,
          "time": 205.78125,
          "velocity": 0.3937007874015748
        },
        {
          "duration": 0.09375,
          "durationTicks": 96,
          "midi": 62,
          "name": "D4",
          "ticks": 210816,
          "time": 205.875,
          "velocity": 0.3937007874015748
        },
        {
          "duration": 0.09375,
          "durationTicks": 96,
          "midi": 55,
          "name": "G3",
          "ticks": 210816,
          "time": 205.875,
          "velocity": 0.3937007874015748
        },
        {
          "duration": 0.09375,
          "durationTicks": 96,
          "midi": 59,
          "name": "B3",
          "ticks": 210816,
          "time": 205.875,
          "velocity": 0.3937007874015748
        },
        {
          "duration": 0.09375,
          "durationTicks": 96,
          "midi": 62,
          "name": "D4",
          "ticks": 210912,
          "time": 205.96875,
          "velocity": 0.3937007874015748
        },
        {
          "duration": 0.09375,
          "durationTicks": 96,
          "midi": 59,
          "name": "B3",
          "ticks": 210912,
          "time": 205.96875,
          "velocity": 0.3937007874015748
        },
        {
          "duration": 0.09375,
          "durationTicks": 96,
          "midi": 55,
          "name": "G3",
          "ticks": 210912,
          "time": 205.96875,
          "velocity": 0.3937007874015748
        },
        {
          "duration": 0.09375,
          "durationTicks": 96,
          "midi": 55,
          "name": "G3",
          "ticks": 211008,
          "time": 206.0625,
          "velocity": 0.3937007874015748
        },
        {
          "duration": 0.09375,
          "durationTicks": 96,
          "midi": 59,
          "name": "B3",
          "ticks": 211008,
          "time": 206.0625,
          "velocity": 0.3937007874015748
        },
        {
          "duration": 0.09375,
          "durationTicks": 96,
          "midi": 62,
          "name": "D4",
          "ticks": 211008,
          "time": 206.0625,
          "velocity": 0.3937007874015748
        },
        {
          "duration": 0.09375,
          "durationTicks": 96,
          "midi": 62,
          "name": "D4",
          "ticks": 211104,
          "time": 206.15625,
          "velocity": 0.3937007874015748
        },
        {
          "duration": 0.09375,
          "durationTicks": 96,
          "midi": 59,
          "name": "B3",
          "ticks": 211104,
          "time": 206.15625,
          "velocity": 0.3937007874015748
        },
        {
          "duration": 0.09375,
          "durationTicks": 96,
          "midi": 55,
          "name": "G3",
          "ticks": 211104,
          "time": 206.15625,
          "velocity": 0.3937007874015748
        },
        {
          "duration": 0.09375,
          "durationTicks": 96,
          "midi": 55,
          "name": "G3",
          "ticks": 211200,
          "time": 206.25,
          "velocity": 0.3937007874015748
        },
        {
          "duration": 0.09375,
          "durationTicks": 96,
          "midi": 62,
          "name": "D4",
          "ticks": 211200,
          "time": 206.25,
          "velocity": 0.3937007874015748
        },
        {
          "duration": 0.09375,
          "durationTicks": 96,
          "midi": 59,
          "name": "B3",
          "ticks": 211200,
          "time": 206.25,
          "velocity": 0.3937007874015748
        },
        {
          "duration": 0.09375,
          "durationTicks": 96,
          "midi": 55,
          "name": "G3",
          "ticks": 211296,
          "time": 206.34375,
          "velocity": 0.3937007874015748
        },
        {
          "duration": 0.09375,
          "durationTicks": 96,
          "midi": 62,
          "name": "D4",
          "ticks": 211296,
          "time": 206.34375,
          "velocity": 0.3937007874015748
        },
        {
          "duration": 0.09375,
          "durationTicks": 96,
          "midi": 59,
          "name": "B3",
          "ticks": 211296,
          "time": 206.34375,
          "velocity": 0.3937007874015748
        },
        {
          "duration": 0.09375,
          "durationTicks": 96,
          "midi": 62,
          "name": "D4",
          "ticks": 211392,
          "time": 206.4375,
          "velocity": 0.3937007874015748
        },
        {
          "duration": 0.09375,
          "durationTicks": 96,
          "midi": 59,
          "name": "B3",
          "ticks": 211392,
          "time": 206.4375,
          "velocity": 0.3937007874015748
        },
        {
          "duration": 0.09375,
          "durationTicks": 96,
          "midi": 55,
          "name": "G3",
          "ticks": 211392,
          "time": 206.4375,
          "velocity": 0.3937007874015748
        },
        {
          "duration": 0.09375,
          "durationTicks": 96,
          "midi": 59,
          "name": "B3",
          "ticks": 211488,
          "time": 206.53125,
          "velocity": 0.3937007874015748
        },
        {
          "duration": 0.09375,
          "durationTicks": 96,
          "midi": 55,
          "name": "G3",
          "ticks": 211488,
          "time": 206.53125,
          "velocity": 0.3937007874015748
        },
        {
          "duration": 0.09375,
          "durationTicks": 96,
          "midi": 62,
          "name": "D4",
          "ticks": 211488,
          "time": 206.53125,
          "velocity": 0.3937007874015748
        },
        {
          "duration": 0.09375,
          "durationTicks": 96,
          "midi": 59,
          "name": "B3",
          "ticks": 211584,
          "time": 206.625,
          "velocity": 0.3937007874015748
        },
        {
          "duration": 0.09375,
          "durationTicks": 96,
          "midi": 55,
          "name": "G3",
          "ticks": 211584,
          "time": 206.625,
          "velocity": 0.3937007874015748
        },
        {
          "duration": 0.09375,
          "durationTicks": 96,
          "midi": 62,
          "name": "D4",
          "ticks": 211584,
          "time": 206.625,
          "velocity": 0.3937007874015748
        },
        {
          "duration": 0.09375,
          "durationTicks": 96,
          "midi": 59,
          "name": "B3",
          "ticks": 211680,
          "time": 206.71875,
          "velocity": 0.3937007874015748
        },
        {
          "duration": 0.09375,
          "durationTicks": 96,
          "midi": 62,
          "name": "D4",
          "ticks": 211680,
          "time": 206.71875,
          "velocity": 0.3937007874015748
        },
        {
          "duration": 0.09375,
          "durationTicks": 96,
          "midi": 55,
          "name": "G3",
          "ticks": 211680,
          "time": 206.71875,
          "velocity": 0.3937007874015748
        },
        {
          "duration": 0.09375,
          "durationTicks": 96,
          "midi": 55,
          "name": "G3",
          "ticks": 211776,
          "time": 206.8125,
          "velocity": 0.3937007874015748
        },
        {
          "duration": 0.09375,
          "durationTicks": 96,
          "midi": 62,
          "name": "D4",
          "ticks": 211776,
          "time": 206.8125,
          "velocity": 0.3937007874015748
        },
        {
          "duration": 0.09375,
          "durationTicks": 96,
          "midi": 59,
          "name": "B3",
          "ticks": 211776,
          "time": 206.8125,
          "velocity": 0.3937007874015748
        },
        {
          "duration": 0.09375,
          "durationTicks": 96,
          "midi": 62,
          "name": "D4",
          "ticks": 211872,
          "time": 206.90625,
          "velocity": 0.3937007874015748
        },
        {
          "duration": 0.09375,
          "durationTicks": 96,
          "midi": 55,
          "name": "G3",
          "ticks": 211872,
          "time": 206.90625,
          "velocity": 0.3937007874015748
        },
        {
          "duration": 0.09375,
          "durationTicks": 96,
          "midi": 59,
          "name": "B3",
          "ticks": 211872,
          "time": 206.90625,
          "velocity": 0.3937007874015748
        },
        {
          "duration": 0.09375,
          "durationTicks": 96,
          "midi": 58,
          "name": "A#3",
          "ticks": 211968,
          "time": 207,
          "velocity": 0.3937007874015748
        },
        {
          "duration": 0.09375,
          "durationTicks": 96,
          "midi": 53,
          "name": "F3",
          "ticks": 211968,
          "time": 207,
          "velocity": 0.3937007874015748
        },
        {
          "duration": 0.09375,
          "durationTicks": 96,
          "midi": 61,
          "name": "C#4",
          "ticks": 211968,
          "time": 207,
          "velocity": 0.3937007874015748
        },
        {
          "duration": 0.09375,
          "durationTicks": 96,
          "midi": 58,
          "name": "A#3",
          "ticks": 212064,
          "time": 207.09375,
          "velocity": 0.3937007874015748
        },
        {
          "duration": 0.09375,
          "durationTicks": 96,
          "midi": 61,
          "name": "C#4",
          "ticks": 212064,
          "time": 207.09375,
          "velocity": 0.3937007874015748
        },
        {
          "duration": 0.09375,
          "durationTicks": 96,
          "midi": 53,
          "name": "F3",
          "ticks": 212064,
          "time": 207.09375,
          "velocity": 0.3937007874015748
        },
        {
          "duration": 0.09375,
          "durationTicks": 96,
          "midi": 61,
          "name": "C#4",
          "ticks": 212160,
          "time": 207.1875,
          "velocity": 0.3937007874015748
        },
        {
          "duration": 0.09375,
          "durationTicks": 96,
          "midi": 58,
          "name": "A#3",
          "ticks": 212160,
          "time": 207.1875,
          "velocity": 0.3937007874015748
        },
        {
          "duration": 0.09375,
          "durationTicks": 96,
          "midi": 53,
          "name": "F3",
          "ticks": 212160,
          "time": 207.1875,
          "velocity": 0.3937007874015748
        },
        {
          "duration": 0.09375,
          "durationTicks": 96,
          "midi": 61,
          "name": "C#4",
          "ticks": 212256,
          "time": 207.28125,
          "velocity": 0.3937007874015748
        },
        {
          "duration": 0.09375,
          "durationTicks": 96,
          "midi": 53,
          "name": "F3",
          "ticks": 212256,
          "time": 207.28125,
          "velocity": 0.3937007874015748
        },
        {
          "duration": 0.09375,
          "durationTicks": 96,
          "midi": 58,
          "name": "A#3",
          "ticks": 212256,
          "time": 207.28125,
          "velocity": 0.3937007874015748
        },
        {
          "duration": 0.09375,
          "durationTicks": 96,
          "midi": 61,
          "name": "C#4",
          "ticks": 212352,
          "time": 207.375,
          "velocity": 0.3937007874015748
        },
        {
          "duration": 0.09375,
          "durationTicks": 96,
          "midi": 58,
          "name": "A#3",
          "ticks": 212352,
          "time": 207.375,
          "velocity": 0.3937007874015748
        },
        {
          "duration": 0.09375,
          "durationTicks": 96,
          "midi": 53,
          "name": "F3",
          "ticks": 212352,
          "time": 207.375,
          "velocity": 0.3937007874015748
        },
        {
          "duration": 0.09375,
          "durationTicks": 96,
          "midi": 53,
          "name": "F3",
          "ticks": 212448,
          "time": 207.46875,
          "velocity": 0.3937007874015748
        },
        {
          "duration": 0.09375,
          "durationTicks": 96,
          "midi": 61,
          "name": "C#4",
          "ticks": 212448,
          "time": 207.46875,
          "velocity": 0.3937007874015748
        },
        {
          "duration": 0.09375,
          "durationTicks": 96,
          "midi": 58,
          "name": "A#3",
          "ticks": 212448,
          "time": 207.46875,
          "velocity": 0.3937007874015748
        },
        {
          "duration": 0.09375,
          "durationTicks": 96,
          "midi": 53,
          "name": "F3",
          "ticks": 212544,
          "time": 207.5625,
          "velocity": 0.3937007874015748
        },
        {
          "duration": 0.09375,
          "durationTicks": 96,
          "midi": 61,
          "name": "C#4",
          "ticks": 212544,
          "time": 207.5625,
          "velocity": 0.3937007874015748
        },
        {
          "duration": 0.09375,
          "durationTicks": 96,
          "midi": 58,
          "name": "A#3",
          "ticks": 212544,
          "time": 207.5625,
          "velocity": 0.3937007874015748
        },
        {
          "duration": 0.09375,
          "durationTicks": 96,
          "midi": 58,
          "name": "A#3",
          "ticks": 212640,
          "time": 207.65625,
          "velocity": 0.3937007874015748
        },
        {
          "duration": 0.09375,
          "durationTicks": 96,
          "midi": 61,
          "name": "C#4",
          "ticks": 212640,
          "time": 207.65625,
          "velocity": 0.3937007874015748
        },
        {
          "duration": 0.09375,
          "durationTicks": 96,
          "midi": 53,
          "name": "F3",
          "ticks": 212640,
          "time": 207.65625,
          "velocity": 0.3937007874015748
        },
        {
          "duration": 0.09375,
          "durationTicks": 96,
          "midi": 61,
          "name": "C#4",
          "ticks": 212736,
          "time": 207.75,
          "velocity": 0.3937007874015748
        },
        {
          "duration": 0.09375,
          "durationTicks": 96,
          "midi": 53,
          "name": "F3",
          "ticks": 212736,
          "time": 207.75,
          "velocity": 0.3937007874015748
        },
        {
          "duration": 0.09375,
          "durationTicks": 96,
          "midi": 58,
          "name": "A#3",
          "ticks": 212736,
          "time": 207.75,
          "velocity": 0.3937007874015748
        },
        {
          "duration": 0.09375,
          "durationTicks": 96,
          "midi": 58,
          "name": "A#3",
          "ticks": 212832,
          "time": 207.84375,
          "velocity": 0.3937007874015748
        },
        {
          "duration": 0.09375,
          "durationTicks": 96,
          "midi": 53,
          "name": "F3",
          "ticks": 212832,
          "time": 207.84375,
          "velocity": 0.3937007874015748
        },
        {
          "duration": 0.09375,
          "durationTicks": 96,
          "midi": 61,
          "name": "C#4",
          "ticks": 212832,
          "time": 207.84375,
          "velocity": 0.3937007874015748
        },
        {
          "duration": 0.09375,
          "durationTicks": 96,
          "midi": 58,
          "name": "A#3",
          "ticks": 212928,
          "time": 207.9375,
          "velocity": 0.3937007874015748
        },
        {
          "duration": 0.09375,
          "durationTicks": 96,
          "midi": 53,
          "name": "F3",
          "ticks": 212928,
          "time": 207.9375,
          "velocity": 0.3937007874015748
        },
        {
          "duration": 0.09375,
          "durationTicks": 96,
          "midi": 61,
          "name": "C#4",
          "ticks": 212928,
          "time": 207.9375,
          "velocity": 0.3937007874015748
        },
        {
          "duration": 0.09375,
          "durationTicks": 96,
          "midi": 61,
          "name": "C#4",
          "ticks": 213024,
          "time": 208.03125,
          "velocity": 0.3937007874015748
        },
        {
          "duration": 0.09375,
          "durationTicks": 96,
          "midi": 58,
          "name": "A#3",
          "ticks": 213024,
          "time": 208.03125,
          "velocity": 0.3937007874015748
        },
        {
          "duration": 0.09375,
          "durationTicks": 96,
          "midi": 53,
          "name": "F3",
          "ticks": 213024,
          "time": 208.03125,
          "velocity": 0.3937007874015748
        },
        {
          "duration": 0.09375,
          "durationTicks": 96,
          "midi": 58,
          "name": "A#3",
          "ticks": 213120,
          "time": 208.125,
          "velocity": 0.3937007874015748
        },
        {
          "duration": 0.09375,
          "durationTicks": 96,
          "midi": 61,
          "name": "C#4",
          "ticks": 213120,
          "time": 208.125,
          "velocity": 0.3937007874015748
        },
        {
          "duration": 0.09375,
          "durationTicks": 96,
          "midi": 53,
          "name": "F3",
          "ticks": 213120,
          "time": 208.125,
          "velocity": 0.3937007874015748
        },
        {
          "duration": 0.09375,
          "durationTicks": 96,
          "midi": 53,
          "name": "F3",
          "ticks": 213216,
          "time": 208.21875,
          "velocity": 0.3937007874015748
        },
        {
          "duration": 0.09375,
          "durationTicks": 96,
          "midi": 61,
          "name": "C#4",
          "ticks": 213216,
          "time": 208.21875,
          "velocity": 0.3937007874015748
        },
        {
          "duration": 0.09375,
          "durationTicks": 96,
          "midi": 58,
          "name": "A#3",
          "ticks": 213216,
          "time": 208.21875,
          "velocity": 0.3937007874015748
        },
        {
          "duration": 0.09375,
          "durationTicks": 96,
          "midi": 58,
          "name": "A#3",
          "ticks": 213312,
          "time": 208.3125,
          "velocity": 0.3937007874015748
        },
        {
          "duration": 0.09375,
          "durationTicks": 96,
          "midi": 53,
          "name": "F3",
          "ticks": 213312,
          "time": 208.3125,
          "velocity": 0.3937007874015748
        },
        {
          "duration": 0.09375,
          "durationTicks": 96,
          "midi": 61,
          "name": "C#4",
          "ticks": 213312,
          "time": 208.3125,
          "velocity": 0.3937007874015748
        },
        {
          "duration": 0.09375,
          "durationTicks": 96,
          "midi": 53,
          "name": "F3",
          "ticks": 213408,
          "time": 208.40625,
          "velocity": 0.3937007874015748
        },
        {
          "duration": 0.09375,
          "durationTicks": 96,
          "midi": 58,
          "name": "A#3",
          "ticks": 213408,
          "time": 208.40625,
          "velocity": 0.3937007874015748
        },
        {
          "duration": 0.09375,
          "durationTicks": 96,
          "midi": 61,
          "name": "C#4",
          "ticks": 213408,
          "time": 208.40625,
          "velocity": 0.3937007874015748
        },
        {
          "duration": 0.09375,
          "durationTicks": 96,
          "midi": 60,
          "name": "C4",
          "ticks": 213504,
          "time": 208.5,
          "velocity": 0.3937007874015748
        },
        {
          "duration": 0.09375,
          "durationTicks": 96,
          "midi": 52,
          "name": "E3",
          "ticks": 213504,
          "time": 208.5,
          "velocity": 0.3937007874015748
        },
        {
          "duration": 0.09375,
          "durationTicks": 96,
          "midi": 55,
          "name": "G3",
          "ticks": 213504,
          "time": 208.5,
          "velocity": 0.3937007874015748
        },
        {
          "duration": 0.09375,
          "durationTicks": 96,
          "midi": 52,
          "name": "E3",
          "ticks": 213600,
          "time": 208.59375,
          "velocity": 0.3937007874015748
        },
        {
          "duration": 0.09375,
          "durationTicks": 96,
          "midi": 55,
          "name": "G3",
          "ticks": 213600,
          "time": 208.59375,
          "velocity": 0.3937007874015748
        },
        {
          "duration": 0.09375,
          "durationTicks": 96,
          "midi": 60,
          "name": "C4",
          "ticks": 213600,
          "time": 208.59375,
          "velocity": 0.3937007874015748
        },
        {
          "duration": 0.09375,
          "durationTicks": 96,
          "midi": 55,
          "name": "G3",
          "ticks": 213696,
          "time": 208.6875,
          "velocity": 0.3937007874015748
        },
        {
          "duration": 0.09375,
          "durationTicks": 96,
          "midi": 60,
          "name": "C4",
          "ticks": 213696,
          "time": 208.6875,
          "velocity": 0.3937007874015748
        },
        {
          "duration": 0.09375,
          "durationTicks": 96,
          "midi": 52,
          "name": "E3",
          "ticks": 213696,
          "time": 208.6875,
          "velocity": 0.3937007874015748
        },
        {
          "duration": 0.09375,
          "durationTicks": 96,
          "midi": 60,
          "name": "C4",
          "ticks": 213792,
          "time": 208.78125,
          "velocity": 0.3937007874015748
        },
        {
          "duration": 0.09375,
          "durationTicks": 96,
          "midi": 52,
          "name": "E3",
          "ticks": 213792,
          "time": 208.78125,
          "velocity": 0.3937007874015748
        },
        {
          "duration": 0.09375,
          "durationTicks": 96,
          "midi": 55,
          "name": "G3",
          "ticks": 213792,
          "time": 208.78125,
          "velocity": 0.3937007874015748
        },
        {
          "duration": 0.09375,
          "durationTicks": 96,
          "midi": 55,
          "name": "G3",
          "ticks": 213888,
          "time": 208.875,
          "velocity": 0.3937007874015748
        },
        {
          "duration": 0.09375,
          "durationTicks": 96,
          "midi": 60,
          "name": "C4",
          "ticks": 213888,
          "time": 208.875,
          "velocity": 0.3937007874015748
        },
        {
          "duration": 0.09375,
          "durationTicks": 96,
          "midi": 52,
          "name": "E3",
          "ticks": 213888,
          "time": 208.875,
          "velocity": 0.3937007874015748
        },
        {
          "duration": 0.09375,
          "durationTicks": 96,
          "midi": 55,
          "name": "G3",
          "ticks": 213984,
          "time": 208.96875,
          "velocity": 0.3937007874015748
        },
        {
          "duration": 0.09375,
          "durationTicks": 96,
          "midi": 60,
          "name": "C4",
          "ticks": 213984,
          "time": 208.96875,
          "velocity": 0.3937007874015748
        },
        {
          "duration": 0.09375,
          "durationTicks": 96,
          "midi": 52,
          "name": "E3",
          "ticks": 213984,
          "time": 208.96875,
          "velocity": 0.3937007874015748
        },
        {
          "duration": 0.09375,
          "durationTicks": 96,
          "midi": 60,
          "name": "C4",
          "ticks": 214080,
          "time": 209.0625,
          "velocity": 0.3937007874015748
        },
        {
          "duration": 0.09375,
          "durationTicks": 96,
          "midi": 55,
          "name": "G3",
          "ticks": 214080,
          "time": 209.0625,
          "velocity": 0.3937007874015748
        },
        {
          "duration": 0.09375,
          "durationTicks": 96,
          "midi": 52,
          "name": "E3",
          "ticks": 214080,
          "time": 209.0625,
          "velocity": 0.3937007874015748
        },
        {
          "duration": 0.09375,
          "durationTicks": 96,
          "midi": 52,
          "name": "E3",
          "ticks": 214176,
          "time": 209.15625,
          "velocity": 0.3937007874015748
        },
        {
          "duration": 0.09375,
          "durationTicks": 96,
          "midi": 55,
          "name": "G3",
          "ticks": 214176,
          "time": 209.15625,
          "velocity": 0.3937007874015748
        },
        {
          "duration": 0.09375,
          "durationTicks": 96,
          "midi": 60,
          "name": "C4",
          "ticks": 214176,
          "time": 209.15625,
          "velocity": 0.3937007874015748
        },
        {
          "duration": 0.09375,
          "durationTicks": 96,
          "midi": 60,
          "name": "C4",
          "ticks": 214272,
          "time": 209.25,
          "velocity": 0.3937007874015748
        },
        {
          "duration": 0.09375,
          "durationTicks": 96,
          "midi": 52,
          "name": "E3",
          "ticks": 214272,
          "time": 209.25,
          "velocity": 0.3937007874015748
        },
        {
          "duration": 0.09375,
          "durationTicks": 96,
          "midi": 55,
          "name": "G3",
          "ticks": 214272,
          "time": 209.25,
          "velocity": 0.3937007874015748
        },
        {
          "duration": 0.09375,
          "durationTicks": 96,
          "midi": 55,
          "name": "G3",
          "ticks": 214368,
          "time": 209.34375,
          "velocity": 0.3937007874015748
        },
        {
          "duration": 0.09375,
          "durationTicks": 96,
          "midi": 52,
          "name": "E3",
          "ticks": 214368,
          "time": 209.34375,
          "velocity": 0.3937007874015748
        },
        {
          "duration": 0.09375,
          "durationTicks": 96,
          "midi": 60,
          "name": "C4",
          "ticks": 214368,
          "time": 209.34375,
          "velocity": 0.3937007874015748
        },
        {
          "duration": 0.09375,
          "durationTicks": 96,
          "midi": 52,
          "name": "E3",
          "ticks": 214464,
          "time": 209.4375,
          "velocity": 0.3937007874015748
        },
        {
          "duration": 0.09375,
          "durationTicks": 96,
          "midi": 55,
          "name": "G3",
          "ticks": 214464,
          "time": 209.4375,
          "velocity": 0.3937007874015748
        },
        {
          "duration": 0.09375,
          "durationTicks": 96,
          "midi": 60,
          "name": "C4",
          "ticks": 214464,
          "time": 209.4375,
          "velocity": 0.3937007874015748
        },
        {
          "duration": 0.09375,
          "durationTicks": 96,
          "midi": 52,
          "name": "E3",
          "ticks": 214560,
          "time": 209.53125,
          "velocity": 0.3937007874015748
        },
        {
          "duration": 0.09375,
          "durationTicks": 96,
          "midi": 60,
          "name": "C4",
          "ticks": 214560,
          "time": 209.53125,
          "velocity": 0.3937007874015748
        },
        {
          "duration": 0.09375,
          "durationTicks": 96,
          "midi": 55,
          "name": "G3",
          "ticks": 214560,
          "time": 209.53125,
          "velocity": 0.3937007874015748
        },
        {
          "duration": 0.09375,
          "durationTicks": 96,
          "midi": 55,
          "name": "G3",
          "ticks": 214656,
          "time": 209.625,
          "velocity": 0.3937007874015748
        },
        {
          "duration": 0.09375,
          "durationTicks": 96,
          "midi": 60,
          "name": "C4",
          "ticks": 214656,
          "time": 209.625,
          "velocity": 0.3937007874015748
        },
        {
          "duration": 0.09375,
          "durationTicks": 96,
          "midi": 52,
          "name": "E3",
          "ticks": 214656,
          "time": 209.625,
          "velocity": 0.3937007874015748
        },
        {
          "duration": 0.09375,
          "durationTicks": 96,
          "midi": 60,
          "name": "C4",
          "ticks": 214752,
          "time": 209.71875,
          "velocity": 0.3937007874015748
        },
        {
          "duration": 0.09375,
          "durationTicks": 96,
          "midi": 55,
          "name": "G3",
          "ticks": 214752,
          "time": 209.71875,
          "velocity": 0.3937007874015748
        },
        {
          "duration": 0.09375,
          "durationTicks": 96,
          "midi": 52,
          "name": "E3",
          "ticks": 214752,
          "time": 209.71875,
          "velocity": 0.3937007874015748
        },
        {
          "duration": 0.09375,
          "durationTicks": 96,
          "midi": 60,
          "name": "C4",
          "ticks": 214848,
          "time": 209.8125,
          "velocity": 0.3937007874015748
        },
        {
          "duration": 0.09375,
          "durationTicks": 96,
          "midi": 55,
          "name": "G3",
          "ticks": 214848,
          "time": 209.8125,
          "velocity": 0.3937007874015748
        },
        {
          "duration": 0.09375,
          "durationTicks": 96,
          "midi": 52,
          "name": "E3",
          "ticks": 214848,
          "time": 209.8125,
          "velocity": 0.3937007874015748
        },
        {
          "duration": 0.09375,
          "durationTicks": 96,
          "midi": 52,
          "name": "E3",
          "ticks": 214944,
          "time": 209.90625,
          "velocity": 0.3937007874015748
        },
        {
          "duration": 0.09375,
          "durationTicks": 96,
          "midi": 60,
          "name": "C4",
          "ticks": 214944,
          "time": 209.90625,
          "velocity": 0.3937007874015748
        },
        {
          "duration": 0.09375,
          "durationTicks": 96,
          "midi": 55,
          "name": "G3",
          "ticks": 214944,
          "time": 209.90625,
          "velocity": 0.3937007874015748
        },
        {
          "duration": 0.09375,
          "durationTicks": 96,
          "midi": 52,
          "name": "E3",
          "ticks": 239616,
          "time": 234,
          "velocity": 0.3937007874015748
        },
        {
          "duration": 0.09375,
          "durationTicks": 96,
          "midi": 47,
          "name": "B2",
          "ticks": 239616,
          "time": 234,
          "velocity": 0.3937007874015748
        },
        {
          "duration": 0.09375,
          "durationTicks": 96,
          "midi": 40,
          "name": "E2",
          "ticks": 239616,
          "time": 234,
          "velocity": 0.3937007874015748
        },
        {
          "duration": 0.09375,
          "durationTicks": 96,
          "midi": 52,
          "name": "E3",
          "ticks": 239712,
          "time": 234.09375,
          "velocity": 0.3937007874015748
        },
        {
          "duration": 0.09375,
          "durationTicks": 96,
          "midi": 40,
          "name": "E2",
          "ticks": 239712,
          "time": 234.09375,
          "velocity": 0.3937007874015748
        },
        {
          "duration": 0.09375,
          "durationTicks": 96,
          "midi": 47,
          "name": "B2",
          "ticks": 239712,
          "time": 234.09375,
          "velocity": 0.3937007874015748
        },
        {
          "duration": 0.09375,
          "durationTicks": 96,
          "midi": 47,
          "name": "B2",
          "ticks": 239808,
          "time": 234.1875,
          "velocity": 0.3937007874015748
        },
        {
          "duration": 0.09375,
          "durationTicks": 96,
          "midi": 52,
          "name": "E3",
          "ticks": 239808,
          "time": 234.1875,
          "velocity": 0.3937007874015748
        },
        {
          "duration": 0.09375,
          "durationTicks": 96,
          "midi": 40,
          "name": "E2",
          "ticks": 239808,
          "time": 234.1875,
          "velocity": 0.3937007874015748
        },
        {
          "duration": 0.09375,
          "durationTicks": 96,
          "midi": 52,
          "name": "E3",
          "ticks": 239904,
          "time": 234.28125,
          "velocity": 0.3937007874015748
        },
        {
          "duration": 0.09375,
          "durationTicks": 96,
          "midi": 40,
          "name": "E2",
          "ticks": 239904,
          "time": 234.28125,
          "velocity": 0.3937007874015748
        },
        {
          "duration": 0.09375,
          "durationTicks": 96,
          "midi": 47,
          "name": "B2",
          "ticks": 239904,
          "time": 234.28125,
          "velocity": 0.3937007874015748
        },
        {
          "duration": 0.09375,
          "durationTicks": 96,
          "midi": 52,
          "name": "E3",
          "ticks": 240000,
          "time": 234.375,
          "velocity": 0.3937007874015748
        },
        {
          "duration": 0.09375,
          "durationTicks": 96,
          "midi": 40,
          "name": "E2",
          "ticks": 240000,
          "time": 234.375,
          "velocity": 0.3937007874015748
        },
        {
          "duration": 0.09375,
          "durationTicks": 96,
          "midi": 47,
          "name": "B2",
          "ticks": 240000,
          "time": 234.375,
          "velocity": 0.3937007874015748
        },
        {
          "duration": 0.09375,
          "durationTicks": 96,
          "midi": 47,
          "name": "B2",
          "ticks": 240096,
          "time": 234.46875,
          "velocity": 0.3937007874015748
        },
        {
          "duration": 0.09375,
          "durationTicks": 96,
          "midi": 52,
          "name": "E3",
          "ticks": 240096,
          "time": 234.46875,
          "velocity": 0.3937007874015748
        },
        {
          "duration": 0.09375,
          "durationTicks": 96,
          "midi": 40,
          "name": "E2",
          "ticks": 240096,
          "time": 234.46875,
          "velocity": 0.3937007874015748
        },
        {
          "duration": 0.09375,
          "durationTicks": 96,
          "midi": 47,
          "name": "B2",
          "ticks": 240192,
          "time": 234.5625,
          "velocity": 0.3937007874015748
        },
        {
          "duration": 0.09375,
          "durationTicks": 96,
          "midi": 40,
          "name": "E2",
          "ticks": 240192,
          "time": 234.5625,
          "velocity": 0.3937007874015748
        },
        {
          "duration": 0.09375,
          "durationTicks": 96,
          "midi": 52,
          "name": "E3",
          "ticks": 240192,
          "time": 234.5625,
          "velocity": 0.3937007874015748
        },
        {
          "duration": 0.09375,
          "durationTicks": 96,
          "midi": 52,
          "name": "E3",
          "ticks": 240288,
          "time": 234.65625,
          "velocity": 0.3937007874015748
        },
        {
          "duration": 0.09375,
          "durationTicks": 96,
          "midi": 47,
          "name": "B2",
          "ticks": 240288,
          "time": 234.65625,
          "velocity": 0.3937007874015748
        },
        {
          "duration": 0.09375,
          "durationTicks": 96,
          "midi": 40,
          "name": "E2",
          "ticks": 240288,
          "time": 234.65625,
          "velocity": 0.3937007874015748
        }
      ],
      "endOfTrackTicks": 240384
    },
    {
      "channel": 7,
      "controlChanges": {},
      "pitchBends": [],
      "instrument": {
        "family": "strings",
        "number": 45,
        "name": "pizzicato strings"
      },
      "name": "Pizzicato",
      "notes": [
        {
          "duration": 0.09375,
          "durationTicks": 96,
          "midi": 88,
          "name": "E6",
          "ticks": 227328,
          "time": 222,
          "velocity": 0.3937007874015748
        },
        {
          "duration": 0.09375,
          "durationTicks": 96,
          "midi": 87,
          "name": "D#6",
          "ticks": 227904,
          "time": 222.5625,
          "velocity": 0.3937007874015748
        },
        {
          "duration": 0.09375,
          "durationTicks": 96,
          "midi": 87,
          "name": "D#6",
          "ticks": 228480,
          "time": 223.125,
          "velocity": 0.3937007874015748
        },
        {
          "duration": 0.09375,
          "durationTicks": 96,
          "midi": 88,
          "name": "E6",
          "ticks": 228864,
          "time": 223.5,
          "velocity": 0.3937007874015748
        },
        {
          "duration": 0.09375,
          "durationTicks": 96,
          "midi": 87,
          "name": "D#6",
          "ticks": 229440,
          "time": 224.0625,
          "velocity": 0.3937007874015748
        },
        {
          "duration": 0.09375,
          "durationTicks": 96,
          "midi": 87,
          "name": "D#6",
          "ticks": 230016,
          "time": 224.625,
          "velocity": 0.3937007874015748
        },
        {
          "duration": 0.09375,
          "durationTicks": 96,
          "midi": 88,
          "name": "E6",
          "ticks": 230400,
          "time": 225,
          "velocity": 0.3937007874015748
        },
        {
          "duration": 0.09375,
          "durationTicks": 96,
          "midi": 87,
          "name": "D#6",
          "ticks": 230976,
          "time": 225.5625,
          "velocity": 0.3937007874015748
        },
        {
          "duration": 0.09375,
          "durationTicks": 96,
          "midi": 87,
          "name": "D#6",
          "ticks": 231552,
          "time": 226.125,
          "velocity": 0.3937007874015748
        },
        {
          "duration": 0.09375,
          "durationTicks": 96,
          "midi": 88,
          "name": "E6",
          "ticks": 233472,
          "time": 228,
          "velocity": 0.3937007874015748
        },
        {
          "duration": 0.09375,
          "durationTicks": 96,
          "midi": 87,
          "name": "D#6",
          "ticks": 234048,
          "time": 228.5625,
          "velocity": 0.3937007874015748
        },
        {
          "duration": 0.09375,
          "durationTicks": 96,
          "midi": 87,
          "name": "D#6",
          "ticks": 234624,
          "time": 229.125,
          "velocity": 0.3937007874015748
        },
        {
          "duration": 0.09375,
          "durationTicks": 96,
          "midi": 88,
          "name": "E6",
          "ticks": 235008,
          "time": 229.5,
          "velocity": 0.3937007874015748
        },
        {
          "duration": 0.09375,
          "durationTicks": 96,
          "midi": 87,
          "name": "D#6",
          "ticks": 235584,
          "time": 230.0625,
          "velocity": 0.3937007874015748
        },
        {
          "duration": 0.09375,
          "durationTicks": 96,
          "midi": 87,
          "name": "D#6",
          "ticks": 236160,
          "time": 230.625,
          "velocity": 0.3937007874015748
        },
        {
          "duration": 0.09375,
          "durationTicks": 96,
          "midi": 88,
          "name": "E6",
          "ticks": 236544,
          "time": 231,
          "velocity": 0.3937007874015748
        },
        {
          "duration": 0.09375,
          "durationTicks": 96,
          "midi": 87,
          "name": "D#6",
          "ticks": 237120,
          "time": 231.5625,
          "velocity": 0.3937007874015748
        },
        {
          "duration": 0.09375,
          "durationTicks": 96,
          "midi": 87,
          "name": "D#6",
          "ticks": 237696,
          "time": 232.125,
          "velocity": 0.3937007874015748
        }
      ],
      "endOfTrackTicks": 237792
    },
    {
      "channel": 8,
      "controlChanges": {},
      "pitchBends": [],
      "instrument": {
        "family": "pipe",
        "number": 73,
        "name": "flute"
      },
      "name": "Flute",
      "notes": [
        {
          "duration": 0.375,
          "durationTicks": 384,
          "midi": 64,
          "name": "E4",
          "ticks": 12288,
          "time": 12,
          "velocity": 0.3937007874015748
        },
        {
          "duration": 0.375,
          "durationTicks": 384,
          "midi": 71,
          "name": "B4",
          "ticks": 12288,
          "time": 12,
          "velocity": 0.3937007874015748
        },
        {
          "duration": 0.375,
          "durationTicks": 384,
          "midi": 70,
          "name": "A#4",
          "ticks": 12864,
          "time": 12.5625,
          "velocity": 0.3937007874015748
        },
        {
          "duration": 0.375,
          "durationTicks": 384,
          "midi": 64,
          "name": "E4",
          "ticks": 12864,
          "time": 12.5625,
          "velocity": 0.3937007874015748
        },
        {
          "duration": 0.375,
          "durationTicks": 384,
          "midi": 64,
          "name": "E4",
          "ticks": 13440,
          "time": 13.125,
          "velocity": 0.3937007874015748
        },
        {
          "duration": 0.375,
          "durationTicks": 384,
          "midi": 70,
          "name": "A#4",
          "ticks": 13440,
          "time": 13.125,
          "velocity": 0.3937007874015748
        },
        {
          "duration": 0.375,
          "durationTicks": 384,
          "midi": 71,
          "name": "B4",
          "ticks": 13824,
          "time": 13.5,
          "velocity": 0.3937007874015748
        },
        {
          "duration": 0.375,
          "durationTicks": 384,
          "midi": 64,
          "name": "E4",
          "ticks": 13824,
          "time": 13.5,
          "velocity": 0.3937007874015748
        },
        {
          "duration": 0.375,
          "durationTicks": 384,
          "midi": 64,
          "name": "E4",
          "ticks": 14400,
          "time": 14.0625,
          "velocity": 0.3937007874015748
        },
        {
          "duration": 0.375,
          "durationTicks": 384,
          "midi": 70,
          "name": "A#4",
          "ticks": 14400,
          "time": 14.0625,
          "velocity": 0.3937007874015748
        },
        {
          "duration": 0.375,
          "durationTicks": 384,
          "midi": 64,
          "name": "E4",
          "ticks": 14976,
          "time": 14.625,
          "velocity": 0.3937007874015748
        },
        {
          "duration": 0.375,
          "durationTicks": 384,
          "midi": 72,
          "name": "C5",
          "ticks": 14976,
          "time": 14.625,
          "velocity": 0.3937007874015748
        },
        {
          "duration": 0.375,
          "durationTicks": 384,
          "midi": 71,
          "name": "B4",
          "ticks": 15360,
          "time": 15,
          "velocity": 0.3937007874015748
        },
        {
          "duration": 0.375,
          "durationTicks": 384,
          "midi": 64,
          "name": "E4",
          "ticks": 15360,
          "time": 15,
          "velocity": 0.3937007874015748
        },
        {
          "duration": 0.375,
          "durationTicks": 384,
          "midi": 64,
          "name": "E4",
          "ticks": 15936,
          "time": 15.5625,
          "velocity": 0.3937007874015748
        },
        {
          "duration": 0.375,
          "durationTicks": 384,
          "midi": 70,
          "name": "A#4",
          "ticks": 15936,
          "time": 15.5625,
          "velocity": 0.3937007874015748
        },
        {
          "duration": 0.375,
          "durationTicks": 384,
          "midi": 64,
          "name": "E4",
          "ticks": 16512,
          "time": 16.125,
          "velocity": 0.3937007874015748
        },
        {
          "duration": 0.375,
          "durationTicks": 384,
          "midi": 70,
          "name": "A#4",
          "ticks": 16512,
          "time": 16.125,
          "velocity": 0.3937007874015748
        },
        {
          "duration": 0.375,
          "durationTicks": 384,
          "midi": 64,
          "name": "E4",
          "ticks": 16896,
          "time": 16.5,
          "velocity": 0.3937007874015748
        },
        {
          "duration": 0.375,
          "durationTicks": 384,
          "midi": 71,
          "name": "B4",
          "ticks": 16896,
          "time": 16.5,
          "velocity": 0.3937007874015748
        },
        {
          "duration": 0.375,
          "durationTicks": 384,
          "midi": 64,
          "name": "E4",
          "ticks": 17472,
          "time": 17.0625,
          "velocity": 0.3937007874015748
        },
        {
          "duration": 0.375,
          "durationTicks": 384,
          "midi": 60,
          "name": "C4",
          "ticks": 17472,
          "time": 17.0625,
          "velocity": 0.3937007874015748
        },
        {
          "duration": 0.375,
          "durationTicks": 384,
          "midi": 64,
          "name": "E4",
          "ticks": 18432,
          "time": 18,
          "velocity": 0.3937007874015748
        },
        {
          "duration": 0.375,
          "durationTicks": 384,
          "midi": 71,
          "name": "B4",
          "ticks": 18432,
          "time": 18,
          "velocity": 0.3937007874015748
        },
        {
          "duration": 0.375,
          "durationTicks": 384,
          "midi": 70,
          "name": "A#4",
          "ticks": 19008,
          "time": 18.5625,
          "velocity": 0.3937007874015748
        },
        {
          "duration": 0.375,
          "durationTicks": 384,
          "midi": 64,
          "name": "E4",
          "ticks": 19008,
          "time": 18.5625,
          "velocity": 0.3937007874015748
        },
        {
          "duration": 0.375,
          "durationTicks": 384,
          "midi": 64,
          "name": "E4",
          "ticks": 19584,
          "time": 19.125,
          "velocity": 0.3937007874015748
        },
        {
          "duration": 0.375,
          "durationTicks": 384,
          "midi": 70,
          "name": "A#4",
          "ticks": 19584,
          "time": 19.125,
          "velocity": 0.3937007874015748
        },
        {
          "duration": 0.375,
          "durationTicks": 384,
          "midi": 71,
          "name": "B4",
          "ticks": 19968,
          "time": 19.5,
          "velocity": 0.3937007874015748
        },
        {
          "duration": 0.375,
          "durationTicks": 384,
          "midi": 64,
          "name": "E4",
          "ticks": 19968,
          "time": 19.5,
          "velocity": 0.3937007874015748
        },
        {
          "duration": 0.375,
          "durationTicks": 384,
          "midi": 70,
          "name": "A#4",
          "ticks": 20544,
          "time": 20.0625,
          "velocity": 0.3937007874015748
        },
        {
          "duration": 0.375,
          "durationTicks": 384,
          "midi": 64,
          "name": "E4",
          "ticks": 20544,
          "time": 20.0625,
          "velocity": 0.3937007874015748
        },
        {
          "duration": 0.375,
          "durationTicks": 384,
          "midi": 72,
          "name": "C5",
          "ticks": 21120,
          "time": 20.625,
          "velocity": 0.3937007874015748
        },
        {
          "duration": 0.375,
          "durationTicks": 384,
          "midi": 64,
          "name": "E4",
          "ticks": 21120,
          "time": 20.625,
          "velocity": 0.3937007874015748
        },
        {
          "duration": 0.375,
          "durationTicks": 384,
          "midi": 64,
          "name": "E4",
          "ticks": 21504,
          "time": 21,
          "velocity": 0.3937007874015748
        },
        {
          "duration": 0.375,
          "durationTicks": 384,
          "midi": 71,
          "name": "B4",
          "ticks": 21504,
          "time": 21,
          "velocity": 0.3937007874015748
        },
        {
          "duration": 0.375,
          "durationTicks": 384,
          "midi": 70,
          "name": "A#4",
          "ticks": 22080,
          "time": 21.5625,
          "velocity": 0.3937007874015748
        },
        {
          "duration": 0.375,
          "durationTicks": 384,
          "midi": 64,
          "name": "E4",
          "ticks": 22080,
          "time": 21.5625,
          "velocity": 0.3937007874015748
        },
        {
          "duration": 0.375,
          "durationTicks": 384,
          "midi": 64,
          "name": "E4",
          "ticks": 22656,
          "time": 22.125,
          "velocity": 0.3937007874015748
        },
        {
          "duration": 0.375,
          "durationTicks": 384,
          "midi": 70,
          "name": "A#4",
          "ticks": 22656,
          "time": 22.125,
          "velocity": 0.3937007874015748
        },
        {
          "duration": 0.09375,
          "durationTicks": 96,
          "midi": 71,
          "name": "B4",
          "ticks": 152064,
          "time": 148.5,
          "velocity": 0.3937007874015748
        },
        {
          "duration": 0.09375,
          "durationTicks": 96,
          "midi": 71,
          "name": "B4",
          "ticks": 152256,
          "time": 148.6875,
          "velocity": 0.3937007874015748
        },
        {
          "duration": 0.09375,
          "durationTicks": 96,
          "midi": 72,
          "name": "C5",
          "ticks": 152640,
          "time": 149.0625,
          "velocity": 0.3937007874015748
        },
        {
          "duration": 0.09375,
          "durationTicks": 96,
          "midi": 72,
          "name": "C5",
          "ticks": 152832,
          "time": 149.25,
          "velocity": 0.3937007874015748
        },
        {
          "duration": 0.09375,
          "durationTicks": 96,
          "midi": 71,
          "name": "B4",
          "ticks": 153216,
          "time": 149.625,
          "velocity": 0.3937007874015748
        },
        {
          "duration": 0.09375,
          "durationTicks": 96,
          "midi": 71,
          "name": "B4",
          "ticks": 153408,
          "time": 149.8125,
          "velocity": 0.3937007874015748
        },
        {
          "duration": 0.09375,
          "durationTicks": 96,
          "midi": 66,
          "name": "F#4",
          "ticks": 153792,
          "time": 150.1875,
          "velocity": 0.3937007874015748
        },
        {
          "duration": 0.09375,
          "durationTicks": 96,
          "midi": 66,
          "name": "F#4",
          "ticks": 153984,
          "time": 150.375,
          "velocity": 0.3937007874015748
        },
        {
          "duration": 0.09375,
          "durationTicks": 96,
          "midi": 71,
          "name": "B4",
          "ticks": 155136,
          "time": 151.5,
          "velocity": 0.3937007874015748
        },
        {
          "duration": 0.09375,
          "durationTicks": 96,
          "midi": 71,
          "name": "B4",
          "ticks": 155328,
          "time": 151.6875,
          "velocity": 0.3937007874015748
        },
        {
          "duration": 0.09375,
          "durationTicks": 96,
          "midi": 72,
          "name": "C5",
          "ticks": 155712,
          "time": 152.0625,
          "velocity": 0.3937007874015748
        },
        {
          "duration": 0.09375,
          "durationTicks": 96,
          "midi": 72,
          "name": "C5",
          "ticks": 155904,
          "time": 152.25,
          "velocity": 0.3937007874015748
        },
        {
          "duration": 0.09375,
          "durationTicks": 96,
          "midi": 71,
          "name": "B4",
          "ticks": 156288,
          "time": 152.625,
          "velocity": 0.3937007874015748
        },
        {
          "duration": 0.09375,
          "durationTicks": 96,
          "midi": 71,
          "name": "B4",
          "ticks": 156480,
          "time": 152.8125,
          "velocity": 0.3937007874015748
        },
        {
          "duration": 0.09375,
          "durationTicks": 96,
          "midi": 71,
          "name": "B4",
          "ticks": 156864,
          "time": 153.1875,
          "velocity": 0.3937007874015748
        },
        {
          "duration": 0.375,
          "durationTicks": 384,
          "midi": 64,
          "name": "E4",
          "ticks": 227328,
          "time": 222,
          "velocity": 0.3937007874015748
        },
        {
          "duration": 0.375,
          "durationTicks": 384,
          "midi": 71,
          "name": "B4",
          "ticks": 227328,
          "time": 222,
          "velocity": 0.3937007874015748
        },
        {
          "duration": 0.375,
          "durationTicks": 384,
          "midi": 64,
          "name": "E4",
          "ticks": 227904,
          "time": 222.5625,
          "velocity": 0.3937007874015748
        },
        {
          "duration": 0.375,
          "durationTicks": 384,
          "midi": 70,
          "name": "A#4",
          "ticks": 227904,
          "time": 222.5625,
          "velocity": 0.3937007874015748
        },
        {
          "duration": 0.375,
          "durationTicks": 384,
          "midi": 64,
          "name": "E4",
          "ticks": 228480,
          "time": 223.125,
          "velocity": 0.3937007874015748
        },
        {
          "duration": 0.375,
          "durationTicks": 384,
          "midi": 70,
          "name": "A#4",
          "ticks": 228480,
          "time": 223.125,
          "velocity": 0.3937007874015748
        },
        {
          "duration": 0.375,
          "durationTicks": 384,
          "midi": 71,
          "name": "B4",
          "ticks": 228864,
          "time": 223.5,
          "velocity": 0.3937007874015748
        },
        {
          "duration": 0.375,
          "durationTicks": 384,
          "midi": 64,
          "name": "E4",
          "ticks": 228864,
          "time": 223.5,
          "velocity": 0.3937007874015748
        },
        {
          "duration": 0.375,
          "durationTicks": 384,
          "midi": 70,
          "name": "A#4",
          "ticks": 229440,
          "time": 224.0625,
          "velocity": 0.3937007874015748
        },
        {
          "duration": 0.375,
          "durationTicks": 384,
          "midi": 64,
          "name": "E4",
          "ticks": 229440,
          "time": 224.0625,
          "velocity": 0.3937007874015748
        },
        {
          "duration": 0.375,
          "durationTicks": 384,
          "midi": 64,
          "name": "E4",
          "ticks": 230016,
          "time": 224.625,
          "velocity": 0.3937007874015748
        },
        {
          "duration": 0.375,
          "durationTicks": 384,
          "midi": 72,
          "name": "C5",
          "ticks": 230016,
          "time": 224.625,
          "velocity": 0.3937007874015748
        },
        {
          "duration": 0.375,
          "durationTicks": 384,
          "midi": 64,
          "name": "E4",
          "ticks": 230400,
          "time": 225,
          "velocity": 0.3937007874015748
        },
        {
          "duration": 0.375,
          "durationTicks": 384,
          "midi": 71,
          "name": "B4",
          "ticks": 230400,
          "time": 225,
          "velocity": 0.3937007874015748
        },
        {
          "duration": 0.375,
          "durationTicks": 384,
          "midi": 70,
          "name": "A#4",
          "ticks": 230976,
          "time": 225.5625,
          "velocity": 0.3937007874015748
        },
        {
          "duration": 0.375,
          "durationTicks": 384,
          "midi": 64,
          "name": "E4",
          "ticks": 230976,
          "time": 225.5625,
          "velocity": 0.3937007874015748
        },
        {
          "duration": 0.375,
          "durationTicks": 384,
          "midi": 70,
          "name": "A#4",
          "ticks": 231552,
          "time": 226.125,
          "velocity": 0.3937007874015748
        },
        {
          "duration": 0.375,
          "durationTicks": 384,
          "midi": 64,
          "name": "E4",
          "ticks": 231552,
          "time": 226.125,
          "velocity": 0.3937007874015748
        },
        {
          "duration": 0.375,
          "durationTicks": 384,
          "midi": 71,
          "name": "B4",
          "ticks": 231936,
          "time": 226.5,
          "velocity": 0.3937007874015748
        },
        {
          "duration": 0.375,
          "durationTicks": 384,
          "midi": 64,
          "name": "E4",
          "ticks": 231936,
          "time": 226.5,
          "velocity": 0.3937007874015748
        },
        {
          "duration": 0.375,
          "durationTicks": 384,
          "midi": 60,
          "name": "C4",
          "ticks": 232512,
          "time": 227.0625,
          "velocity": 0.3937007874015748
        },
        {
          "duration": 0.375,
          "durationTicks": 384,
          "midi": 64,
          "name": "E4",
          "ticks": 232512,
          "time": 227.0625,
          "velocity": 0.3937007874015748
        },
        {
          "duration": 0.375,
          "durationTicks": 384,
          "midi": 71,
          "name": "B4",
          "ticks": 233472,
          "time": 228,
          "velocity": 0.3937007874015748
        },
        {
          "duration": 0.375,
          "durationTicks": 384,
          "midi": 64,
          "name": "E4",
          "ticks": 233472,
          "time": 228,
          "velocity": 0.3937007874015748
        },
        {
          "duration": 0.375,
          "durationTicks": 384,
          "midi": 64,
          "name": "E4",
          "ticks": 234048,
          "time": 228.5625,
          "velocity": 0.3937007874015748
        },
        {
          "duration": 0.375,
          "durationTicks": 384,
          "midi": 70,
          "name": "A#4",
          "ticks": 234048,
          "time": 228.5625,
          "velocity": 0.3937007874015748
        },
        {
          "duration": 0.375,
          "durationTicks": 384,
          "midi": 70,
          "name": "A#4",
          "ticks": 234624,
          "time": 229.125,
          "velocity": 0.3937007874015748
        },
        {
          "duration": 0.375,
          "durationTicks": 384,
          "midi": 64,
          "name": "E4",
          "ticks": 234624,
          "time": 229.125,
          "velocity": 0.3937007874015748
        },
        {
          "duration": 0.375,
          "durationTicks": 384,
          "midi": 71,
          "name": "B4",
          "ticks": 235008,
          "time": 229.5,
          "velocity": 0.3937007874015748
        },
        {
          "duration": 0.375,
          "durationTicks": 384,
          "midi": 64,
          "name": "E4",
          "ticks": 235008,
          "time": 229.5,
          "velocity": 0.3937007874015748
        },
        {
          "duration": 0.375,
          "durationTicks": 384,
          "midi": 64,
          "name": "E4",
          "ticks": 235584,
          "time": 230.0625,
          "velocity": 0.3937007874015748
        },
        {
          "duration": 0.375,
          "durationTicks": 384,
          "midi": 70,
          "name": "A#4",
          "ticks": 235584,
          "time": 230.0625,
          "velocity": 0.3937007874015748
        },
        {
          "duration": 0.375,
          "durationTicks": 384,
          "midi": 64,
          "name": "E4",
          "ticks": 236160,
          "time": 230.625,
          "velocity": 0.3937007874015748
        },
        {
          "duration": 0.375,
          "durationTicks": 384,
          "midi": 72,
          "name": "C5",
          "ticks": 236160,
          "time": 230.625,
          "velocity": 0.3937007874015748
        },
        {
          "duration": 0.375,
          "durationTicks": 384,
          "midi": 64,
          "name": "E4",
          "ticks": 236544,
          "time": 231,
          "velocity": 0.3937007874015748
        },
        {
          "duration": 0.375,
          "durationTicks": 384,
          "midi": 71,
          "name": "B4",
          "ticks": 236544,
          "time": 231,
          "velocity": 0.3937007874015748
        },
        {
          "duration": 0.375,
          "durationTicks": 384,
          "midi": 70,
          "name": "A#4",
          "ticks": 237120,
          "time": 231.5625,
          "velocity": 0.3937007874015748
        },
        {
          "duration": 0.375,
          "durationTicks": 384,
          "midi": 64,
          "name": "E4",
          "ticks": 237120,
          "time": 231.5625,
          "velocity": 0.3937007874015748
        },
        {
          "duration": 0.375,
          "durationTicks": 384,
          "midi": 64,
          "name": "E4",
          "ticks": 237696,
          "time": 232.125,
          "velocity": 0.3937007874015748
        },
        {
          "duration": 0.375,
          "durationTicks": 384,
          "midi": 70,
          "name": "A#4",
          "ticks": 237696,
          "time": 232.125,
          "velocity": 0.3937007874015748
        },
        {
          "duration": 0.375,
          "durationTicks": 384,
          "midi": 64,
          "name": "E4",
          "ticks": 238080,
          "time": 232.5,
          "velocity": 0.3937007874015748
        },
        {
          "duration": 0.375,
          "durationTicks": 384,
          "midi": 71,
          "name": "B4",
          "ticks": 238080,
          "time": 232.5,
          "velocity": 0.3937007874015748
        }
      ],
      "endOfTrackTicks": 238464
    },
    {
      "channel": 10,
      "controlChanges": {},
      "pitchBends": [],
      "instrument": {
        "family": "reed",
        "number": 64,
        "name": "soprano sax"
      },
      "name": "Saxophone",
      "notes": [
        {
          "duration": 0.09375,
          "durationTicks": 96,
          "midi": 64,
          "name": "E4",
          "ticks": 30720,
          "time": 30,
          "velocity": 0.3937007874015748
        },
        {
          "duration": 0.09375,
          "durationTicks": 96,
          "midi": 67,
          "name": "G4",
          "ticks": 30912,
          "time": 30.1875,
          "velocity": 0.3937007874015748
        },
        {
          "duration": 0.09375,
          "durationTicks": 96,
          "midi": 71,
          "name": "B4",
          "ticks": 31104,
          "time": 30.375,
          "velocity": 0.3937007874015748
        },
        {
          "duration": 0.09375,
          "durationTicks": 96,
          "midi": 76,
          "name": "E5",
          "ticks": 31296,
          "time": 30.5625,
          "velocity": 0.3937007874015748
        },
        {
          "duration": 0.09375,
          "durationTicks": 96,
          "midi": 75,
          "name": "D#5",
          "ticks": 31488,
          "time": 30.75,
          "velocity": 0.3937007874015748
        },
        {
          "duration": 0.09375,
          "durationTicks": 96,
          "midi": 71,
          "name": "B4",
          "ticks": 31776,
          "time": 31.03125,
          "velocity": 0.3937007874015748
        },
        {
          "duration": 0.09375,
          "durationTicks": 96,
          "midi": 75,
          "name": "D#5",
          "ticks": 32064,
          "time": 31.3125,
          "velocity": 0.3937007874015748
        },
        {
          "duration": 0.09375,
          "durationTicks": 96,
          "midi": 74,
          "name": "D5",
          "ticks": 32256,
          "time": 31.5,
          "velocity": 0.3937007874015748
        },
        {
          "duration": 0.09375,
          "durationTicks": 96,
          "midi": 71,
          "name": "B4",
          "ticks": 32544,
          "time": 31.78125,
          "velocity": 0.3937007874015748
        },
        {
          "duration": 0.09375,
          "durationTicks": 96,
          "midi": 74,
          "name": "D5",
          "ticks": 32832,
          "time": 32.0625,
          "velocity": 0.3937007874015748
        },
        {
          "duration": 0.09375,
          "durationTicks": 96,
          "midi": 73,
          "name": "C#5",
          "ticks": 33024,
          "time": 32.25,
          "velocity": 0.3937007874015748
        },
        {
          "duration": 0.09375,
          "durationTicks": 96,
          "midi": 70,
          "name": "A#4",
          "ticks": 33312,
          "time": 32.53125,
          "velocity": 0.3937007874015748
        },
        {
          "duration": 0.09375,
          "durationTicks": 96,
          "midi": 67,
          "name": "G4",
          "ticks": 33600,
          "time": 32.8125,
          "velocity": 0.3937007874015748
        },
        {
          "duration": 0.09375,
          "durationTicks": 96,
          "midi": 64,
          "name": "E4",
          "ticks": 36864,
          "time": 36,
          "velocity": 0.3937007874015748
        },
        {
          "duration": 0.09375,
          "durationTicks": 96,
          "midi": 67,
          "name": "G4",
          "ticks": 37056,
          "time": 36.1875,
          "velocity": 0.3937007874015748
        },
        {
          "duration": 0.09375,
          "durationTicks": 96,
          "midi": 71,
          "name": "B4",
          "ticks": 37248,
          "time": 36.375,
          "velocity": 0.3937007874015748
        },
        {
          "duration": 0.09375,
          "durationTicks": 96,
          "midi": 76,
          "name": "E5",
          "ticks": 37440,
          "time": 36.5625,
          "velocity": 0.3937007874015748
        },
        {
          "duration": 0.09375,
          "durationTicks": 96,
          "midi": 75,
          "name": "D#5",
          "ticks": 37632,
          "time": 36.75,
          "velocity": 0.3937007874015748
        },
        {
          "duration": 0.09375,
          "durationTicks": 96,
          "midi": 71,
          "name": "B4",
          "ticks": 37920,
          "time": 37.03125,
          "velocity": 0.3937007874015748
        },
        {
          "duration": 0.09375,
          "durationTicks": 96,
          "midi": 75,
          "name": "D#5",
          "ticks": 38208,
          "time": 37.3125,
          "velocity": 0.3937007874015748
        },
        {
          "duration": 0.09375,
          "durationTicks": 96,
          "midi": 74,
          "name": "D5",
          "ticks": 38400,
          "time": 37.5,
          "velocity": 0.3937007874015748
        },
        {
          "duration": 0.09375,
          "durationTicks": 96,
          "midi": 71,
          "name": "B4",
          "ticks": 38688,
          "time": 37.78125,
          "velocity": 0.3937007874015748
        },
        {
          "duration": 0.09375,
          "durationTicks": 96,
          "midi": 74,
          "name": "D5",
          "ticks": 38976,
          "time": 38.0625,
          "velocity": 0.3937007874015748
        },
        {
          "duration": 0.09375,
          "durationTicks": 96,
          "midi": 73,
          "name": "C#5",
          "ticks": 39168,
          "time": 38.25,
          "velocity": 0.3937007874015748
        },
        {
          "duration": 0.09375,
          "durationTicks": 96,
          "midi": 82,
          "name": "A#5",
          "ticks": 39456,
          "time": 38.53125,
          "velocity": 0.3937007874015748
        },
        {
          "duration": 0.09375,
          "durationTicks": 96,
          "midi": 79,
          "name": "G5",
          "ticks": 39744,
          "time": 38.8125,
          "velocity": 0.3937007874015748
        },
        {
          "duration": 0.09375,
          "durationTicks": 96,
          "midi": 64,
          "name": "E4",
          "ticks": 43008,
          "time": 42,
          "velocity": 0.3937007874015748
        },
        {
          "duration": 0.09375,
          "durationTicks": 96,
          "midi": 67,
          "name": "G4",
          "ticks": 43200,
          "time": 42.1875,
          "velocity": 0.3937007874015748
        },
        {
          "duration": 0.09375,
          "durationTicks": 96,
          "midi": 71,
          "name": "B4",
          "ticks": 43392,
          "time": 42.375,
          "velocity": 0.3937007874015748
        },
        {
          "duration": 0.09375,
          "durationTicks": 96,
          "midi": 76,
          "name": "E5",
          "ticks": 43584,
          "time": 42.5625,
          "velocity": 0.3937007874015748
        },
        {
          "duration": 0.09375,
          "durationTicks": 96,
          "midi": 75,
          "name": "D#5",
          "ticks": 43776,
          "time": 42.75,
          "velocity": 0.3937007874015748
        },
        {
          "duration": 0.09375,
          "durationTicks": 96,
          "midi": 71,
          "name": "B4",
          "ticks": 44064,
          "time": 43.03125,
          "velocity": 0.3937007874015748
        },
        {
          "duration": 0.09375,
          "durationTicks": 96,
          "midi": 75,
          "name": "D#5",
          "ticks": 44352,
          "time": 43.3125,
          "velocity": 0.3937007874015748
        },
        {
          "duration": 0.09375,
          "durationTicks": 96,
          "midi": 74,
          "name": "D5",
          "ticks": 44544,
          "time": 43.5,
          "velocity": 0.3937007874015748
        },
        {
          "duration": 0.09375,
          "durationTicks": 96,
          "midi": 71,
          "name": "B4",
          "ticks": 44832,
          "time": 43.78125,
          "velocity": 0.3937007874015748
        },
        {
          "duration": 0.09375,
          "durationTicks": 96,
          "midi": 74,
          "name": "D5",
          "ticks": 45120,
          "time": 44.0625,
          "velocity": 0.3937007874015748
        },
        {
          "duration": 0.09375,
          "durationTicks": 96,
          "midi": 73,
          "name": "C#5",
          "ticks": 45312,
          "time": 44.25,
          "velocity": 0.3937007874015748
        },
        {
          "duration": 0.09375,
          "durationTicks": 96,
          "midi": 82,
          "name": "A#5",
          "ticks": 45600,
          "time": 44.53125,
          "velocity": 0.3937007874015748
        },
        {
          "duration": 0.09375,
          "durationTicks": 96,
          "midi": 79,
          "name": "G5",
          "ticks": 45888,
          "time": 44.8125,
          "velocity": 0.3937007874015748
        },
        {
          "duration": 0.09375,
          "durationTicks": 96,
          "midi": 64,
          "name": "E4",
          "ticks": 49152,
          "time": 48,
          "velocity": 0.3937007874015748
        },
        {
          "duration": 0.09375,
          "durationTicks": 96,
          "midi": 67,
          "name": "G4",
          "ticks": 49344,
          "time": 48.1875,
          "velocity": 0.3937007874015748
        },
        {
          "duration": 0.09375,
          "durationTicks": 96,
          "midi": 71,
          "name": "B4",
          "ticks": 49536,
          "time": 48.375,
          "velocity": 0.3937007874015748
        },
        {
          "duration": 0.09375,
          "durationTicks": 96,
          "midi": 76,
          "name": "E5",
          "ticks": 49728,
          "time": 48.5625,
          "velocity": 0.3937007874015748
        },
        {
          "duration": 0.09375,
          "durationTicks": 96,
          "midi": 75,
          "name": "D#5",
          "ticks": 49920,
          "time": 48.75,
          "velocity": 0.3937007874015748
        },
        {
          "duration": 0.09375,
          "durationTicks": 96,
          "midi": 71,
          "name": "B4",
          "ticks": 50208,
          "time": 49.03125,
          "velocity": 0.3937007874015748
        },
        {
          "duration": 0.09375,
          "durationTicks": 96,
          "midi": 75,
          "name": "D#5",
          "ticks": 50496,
          "time": 49.3125,
          "velocity": 0.3937007874015748
        },
        {
          "duration": 0.09375,
          "durationTicks": 96,
          "midi": 74,
          "name": "D5",
          "ticks": 50688,
          "time": 49.5,
          "velocity": 0.3937007874015748
        },
        {
          "duration": 0.09375,
          "durationTicks": 96,
          "midi": 71,
          "name": "B4",
          "ticks": 50976,
          "time": 49.78125,
          "velocity": 0.3937007874015748
        },
        {
          "duration": 0.09375,
          "durationTicks": 96,
          "midi": 74,
          "name": "D5",
          "ticks": 51264,
          "time": 50.0625,
          "velocity": 0.3937007874015748
        },
        {
          "duration": 0.09375,
          "durationTicks": 96,
          "midi": 73,
          "name": "C#5",
          "ticks": 51456,
          "time": 50.25,
          "velocity": 0.3937007874015748
        },
        {
          "duration": 0.09375,
          "durationTicks": 96,
          "midi": 82,
          "name": "A#5",
          "ticks": 51744,
          "time": 50.53125,
          "velocity": 0.3937007874015748
        },
        {
          "duration": 0.09375,
          "durationTicks": 96,
          "midi": 79,
          "name": "G5",
          "ticks": 52032,
          "time": 50.8125,
          "velocity": 0.3937007874015748
        },
        {
          "duration": 0.09375,
          "durationTicks": 96,
          "midi": 64,
          "name": "E4",
          "ticks": 75264,
          "time": 73.5,
          "velocity": 0.3937007874015748
        },
        {
          "duration": 0.09375,
          "durationTicks": 96,
          "midi": 76,
          "name": "E5",
          "ticks": 75264,
          "time": 73.5,
          "velocity": 0.3937007874015748
        },
        {
          "duration": 0.09375,
          "durationTicks": 96,
          "midi": 64,
          "name": "E4",
          "ticks": 75360,
          "time": 73.59375,
          "velocity": 0.3937007874015748
        },
        {
          "duration": 0.09375,
          "durationTicks": 96,
          "midi": 76,
          "name": "E5",
          "ticks": 75360,
          "time": 73.59375,
          "velocity": 0.3937007874015748
        },
        {
          "duration": 0.09375,
          "durationTicks": 96,
          "midi": 64,
          "name": "E4",
          "ticks": 75456,
          "time": 73.6875,
          "velocity": 0.3937007874015748
        },
        {
          "duration": 0.09375,
          "durationTicks": 96,
          "midi": 76,
          "name": "E5",
          "ticks": 75456,
          "time": 73.6875,
          "velocity": 0.3937007874015748
        },
        {
          "duration": 0.09375,
          "durationTicks": 96,
          "midi": 76,
          "name": "E5",
          "ticks": 75552,
          "time": 73.78125,
          "velocity": 0.3937007874015748
        },
        {
          "duration": 0.09375,
          "durationTicks": 96,
          "midi": 64,
          "name": "E4",
          "ticks": 75552,
          "time": 73.78125,
          "velocity": 0.3937007874015748
        },
        {
          "duration": 0.09375,
          "durationTicks": 96,
          "midi": 59,
          "name": "B3",
          "ticks": 75840,
          "time": 74.0625,
          "velocity": 0.3937007874015748
        },
        {
          "duration": 0.09375,
          "durationTicks": 96,
          "midi": 71,
          "name": "B4",
          "ticks": 75840,
          "time": 74.0625,
          "velocity": 0.3937007874015748
        },
        {
          "duration": 0.09375,
          "durationTicks": 96,
          "midi": 71,
          "name": "B4",
          "ticks": 75936,
          "time": 74.15625,
          "velocity": 0.3937007874015748
        },
        {
          "duration": 0.09375,
          "durationTicks": 96,
          "midi": 59,
          "name": "B3",
          "ticks": 75936,
          "time": 74.15625,
          "velocity": 0.3937007874015748
        },
        {
          "duration": 0.09375,
          "durationTicks": 96,
          "midi": 71,
          "name": "B4",
          "ticks": 76032,
          "time": 74.25,
          "velocity": 0.3937007874015748
        },
        {
          "duration": 0.09375,
          "durationTicks": 96,
          "midi": 59,
          "name": "B3",
          "ticks": 76032,
          "time": 74.25,
          "velocity": 0.3937007874015748
        },
        {
          "duration": 0.09375,
          "durationTicks": 96,
          "midi": 59,
          "name": "B3",
          "ticks": 76128,
          "time": 74.34375,
          "velocity": 0.3937007874015748
        },
        {
          "duration": 0.09375,
          "durationTicks": 96,
          "midi": 71,
          "name": "B4",
          "ticks": 76128,
          "time": 74.34375,
          "velocity": 0.3937007874015748
        },
        {
          "duration": 0.09375,
          "durationTicks": 96,
          "midi": 64,
          "name": "E4",
          "ticks": 76416,
          "time": 74.625,
          "velocity": 0.3937007874015748
        },
        {
          "duration": 0.09375,
          "durationTicks": 96,
          "midi": 76,
          "name": "E5",
          "ticks": 76416,
          "time": 74.625,
          "velocity": 0.3937007874015748
        },
        {
          "duration": 0.09375,
          "durationTicks": 96,
          "midi": 76,
          "name": "E5",
          "ticks": 76512,
          "time": 74.71875,
          "velocity": 0.3937007874015748
        },
        {
          "duration": 0.09375,
          "durationTicks": 96,
          "midi": 64,
          "name": "E4",
          "ticks": 76512,
          "time": 74.71875,
          "velocity": 0.3937007874015748
        },
        {
          "duration": 0.09375,
          "durationTicks": 96,
          "midi": 64,
          "name": "E4",
          "ticks": 76608,
          "time": 74.8125,
          "velocity": 0.3937007874015748
        },
        {
          "duration": 0.09375,
          "durationTicks": 96,
          "midi": 76,
          "name": "E5",
          "ticks": 76608,
          "time": 74.8125,
          "velocity": 0.3937007874015748
        },
        {
          "duration": 0.09375,
          "durationTicks": 96,
          "midi": 75,
          "name": "D#5",
          "ticks": 76800,
          "time": 75,
          "velocity": 0.3937007874015748
        },
        {
          "duration": 0.09375,
          "durationTicks": 96,
          "midi": 63,
          "name": "D#4",
          "ticks": 76800,
          "time": 75,
          "velocity": 0.3937007874015748
        },
        {
          "duration": 0.09375,
          "durationTicks": 96,
          "midi": 63,
          "name": "D#4",
          "ticks": 76896,
          "time": 75.09375,
          "velocity": 0.3937007874015748
        },
        {
          "duration": 0.09375,
          "durationTicks": 96,
          "midi": 75,
          "name": "D#5",
          "ticks": 76896,
          "time": 75.09375,
          "velocity": 0.3937007874015748
        },
        {
          "duration": 0.09375,
          "durationTicks": 96,
          "midi": 63,
          "name": "D#4",
          "ticks": 76992,
          "time": 75.1875,
          "velocity": 0.3937007874015748
        },
        {
          "duration": 0.09375,
          "durationTicks": 96,
          "midi": 75,
          "name": "D#5",
          "ticks": 76992,
          "time": 75.1875,
          "velocity": 0.3937007874015748
        },
        {
          "duration": 0.09375,
          "durationTicks": 96,
          "midi": 75,
          "name": "D#5",
          "ticks": 77088,
          "time": 75.28125,
          "velocity": 0.3937007874015748
        },
        {
          "duration": 0.09375,
          "durationTicks": 96,
          "midi": 63,
          "name": "D#4",
          "ticks": 77088,
          "time": 75.28125,
          "velocity": 0.3937007874015748
        },
        {
          "duration": 0.09375,
          "durationTicks": 96,
          "midi": 59,
          "name": "B3",
          "ticks": 77376,
          "time": 75.5625,
          "velocity": 0.3937007874015748
        },
        {
          "duration": 0.09375,
          "durationTicks": 96,
          "midi": 71,
          "name": "B4",
          "ticks": 77376,
          "time": 75.5625,
          "velocity": 0.3937007874015748
        },
        {
          "duration": 0.09375,
          "durationTicks": 96,
          "midi": 71,
          "name": "B4",
          "ticks": 77472,
          "time": 75.65625,
          "velocity": 0.3937007874015748
        },
        {
          "duration": 0.09375,
          "durationTicks": 96,
          "midi": 59,
          "name": "B3",
          "ticks": 77472,
          "time": 75.65625,
          "velocity": 0.3937007874015748
        },
        {
          "duration": 0.09375,
          "durationTicks": 96,
          "midi": 71,
          "name": "B4",
          "ticks": 77568,
          "time": 75.75,
          "velocity": 0.3937007874015748
        },
        {
          "duration": 0.09375,
          "durationTicks": 96,
          "midi": 59,
          "name": "B3",
          "ticks": 77568,
          "time": 75.75,
          "velocity": 0.3937007874015748
        },
        {
          "duration": 0.09375,
          "durationTicks": 96,
          "midi": 59,
          "name": "B3",
          "ticks": 77664,
          "time": 75.84375,
          "velocity": 0.3937007874015748
        },
        {
          "duration": 0.09375,
          "durationTicks": 96,
          "midi": 71,
          "name": "B4",
          "ticks": 77664,
          "time": 75.84375,
          "velocity": 0.3937007874015748
        },
        {
          "duration": 0.09375,
          "durationTicks": 96,
          "midi": 59,
          "name": "B3",
          "ticks": 77760,
          "time": 75.9375,
          "velocity": 0.3937007874015748
        },
        {
          "duration": 0.09375,
          "durationTicks": 96,
          "midi": 71,
          "name": "B4",
          "ticks": 77760,
          "time": 75.9375,
          "velocity": 0.3937007874015748
        },
        {
          "duration": 0.09375,
          "durationTicks": 96,
          "midi": 59,
          "name": "B3",
          "ticks": 77856,
          "time": 76.03125,
          "velocity": 0.3937007874015748
        },
        {
          "duration": 0.09375,
          "durationTicks": 96,
          "midi": 71,
          "name": "B4",
          "ticks": 77856,
          "time": 76.03125,
          "velocity": 0.3937007874015748
        },
        {
          "duration": 0.09375,
          "durationTicks": 96,
          "midi": 74,
          "name": "D5",
          "ticks": 78336,
          "time": 76.5,
          "velocity": 0.3937007874015748
        },
        {
          "duration": 0.09375,
          "durationTicks": 96,
          "midi": 62,
          "name": "D4",
          "ticks": 78336,
          "time": 76.5,
          "velocity": 0.3937007874015748
        },
        {
          "duration": 0.09375,
          "durationTicks": 96,
          "midi": 74,
          "name": "D5",
          "ticks": 78432,
          "time": 76.59375,
          "velocity": 0.3937007874015748
        },
        {
          "duration": 0.09375,
          "durationTicks": 96,
          "midi": 62,
          "name": "D4",
          "ticks": 78432,
          "time": 76.59375,
          "velocity": 0.3937007874015748
        },
        {
          "duration": 0.09375,
          "durationTicks": 96,
          "midi": 62,
          "name": "D4",
          "ticks": 78528,
          "time": 76.6875,
          "velocity": 0.3937007874015748
        },
        {
          "duration": 0.09375,
          "durationTicks": 96,
          "midi": 74,
          "name": "D5",
          "ticks": 78528,
          "time": 76.6875,
          "velocity": 0.3937007874015748
        },
        {
          "duration": 0.09375,
          "durationTicks": 96,
          "midi": 74,
          "name": "D5",
          "ticks": 78624,
          "time": 76.78125,
          "velocity": 0.3937007874015748
        },
        {
          "duration": 0.09375,
          "durationTicks": 96,
          "midi": 62,
          "name": "D4",
          "ticks": 78624,
          "time": 76.78125,
          "velocity": 0.3937007874015748
        },
        {
          "duration": 0.09375,
          "durationTicks": 96,
          "midi": 62,
          "name": "D4",
          "ticks": 78720,
          "time": 76.875,
          "velocity": 0.3937007874015748
        },
        {
          "duration": 0.09375,
          "durationTicks": 96,
          "midi": 74,
          "name": "D5",
          "ticks": 78720,
          "time": 76.875,
          "velocity": 0.3937007874015748
        },
        {
          "duration": 0.09375,
          "durationTicks": 96,
          "midi": 62,
          "name": "D4",
          "ticks": 78816,
          "time": 76.96875,
          "velocity": 0.3937007874015748
        },
        {
          "duration": 0.09375,
          "durationTicks": 96,
          "midi": 74,
          "name": "D5",
          "ticks": 78816,
          "time": 76.96875,
          "velocity": 0.3937007874015748
        },
        {
          "duration": 0.09375,
          "durationTicks": 96,
          "midi": 62,
          "name": "D4",
          "ticks": 78912,
          "time": 77.0625,
          "velocity": 0.3937007874015748
        },
        {
          "duration": 0.09375,
          "durationTicks": 96,
          "midi": 74,
          "name": "D5",
          "ticks": 78912,
          "time": 77.0625,
          "velocity": 0.3937007874015748
        },
        {
          "duration": 0.09375,
          "durationTicks": 96,
          "midi": 62,
          "name": "D4",
          "ticks": 79008,
          "time": 77.15625,
          "velocity": 0.3937007874015748
        },
        {
          "duration": 0.09375,
          "durationTicks": 96,
          "midi": 74,
          "name": "D5",
          "ticks": 79008,
          "time": 77.15625,
          "velocity": 0.3937007874015748
        },
        {
          "duration": 0.09375,
          "durationTicks": 96,
          "midi": 74,
          "name": "D5",
          "ticks": 79104,
          "time": 77.25,
          "velocity": 0.3937007874015748
        },
        {
          "duration": 0.09375,
          "durationTicks": 96,
          "midi": 62,
          "name": "D4",
          "ticks": 79104,
          "time": 77.25,
          "velocity": 0.3937007874015748
        },
        {
          "duration": 0.09375,
          "durationTicks": 96,
          "midi": 74,
          "name": "D5",
          "ticks": 79200,
          "time": 77.34375,
          "velocity": 0.3937007874015748
        },
        {
          "duration": 0.09375,
          "durationTicks": 96,
          "midi": 62,
          "name": "D4",
          "ticks": 79200,
          "time": 77.34375,
          "velocity": 0.3937007874015748
        },
        {
          "duration": 0.09375,
          "durationTicks": 96,
          "midi": 62,
          "name": "D4",
          "ticks": 79296,
          "time": 77.4375,
          "velocity": 0.3937007874015748
        },
        {
          "duration": 0.09375,
          "durationTicks": 96,
          "midi": 74,
          "name": "D5",
          "ticks": 79296,
          "time": 77.4375,
          "velocity": 0.3937007874015748
        },
        {
          "duration": 0.09375,
          "durationTicks": 96,
          "midi": 74,
          "name": "D5",
          "ticks": 79392,
          "time": 77.53125,
          "velocity": 0.3937007874015748
        },
        {
          "duration": 0.09375,
          "durationTicks": 96,
          "midi": 74,
          "name": "D5",
          "ticks": 79488,
          "time": 77.625,
          "velocity": 0.3937007874015748
        },
        {
          "duration": 0.09375,
          "durationTicks": 96,
          "midi": 74,
          "name": "D5",
          "ticks": 79584,
          "time": 77.71875,
          "velocity": 0.3937007874015748
        },
        {
          "duration": 0.09375,
          "durationTicks": 96,
          "midi": 73,
          "name": "C#5",
          "ticks": 79872,
          "time": 78,
          "velocity": 0.3937007874015748
        },
        {
          "duration": 0.09375,
          "durationTicks": 96,
          "midi": 61,
          "name": "C#4",
          "ticks": 79872,
          "time": 78,
          "velocity": 0.3937007874015748
        },
        {
          "duration": 0.09375,
          "durationTicks": 96,
          "midi": 73,
          "name": "C#5",
          "ticks": 79968,
          "time": 78.09375,
          "velocity": 0.3937007874015748
        },
        {
          "duration": 0.09375,
          "durationTicks": 96,
          "midi": 61,
          "name": "C#4",
          "ticks": 79968,
          "time": 78.09375,
          "velocity": 0.3937007874015748
        },
        {
          "duration": 0.09375,
          "durationTicks": 96,
          "midi": 73,
          "name": "C#5",
          "ticks": 80064,
          "time": 78.1875,
          "velocity": 0.3937007874015748
        },
        {
          "duration": 0.09375,
          "durationTicks": 96,
          "midi": 61,
          "name": "C#4",
          "ticks": 80064,
          "time": 78.1875,
          "velocity": 0.3937007874015748
        },
        {
          "duration": 0.09375,
          "durationTicks": 96,
          "midi": 61,
          "name": "C#4",
          "ticks": 80160,
          "time": 78.28125,
          "velocity": 0.3937007874015748
        },
        {
          "duration": 0.09375,
          "durationTicks": 96,
          "midi": 73,
          "name": "C#5",
          "ticks": 80160,
          "time": 78.28125,
          "velocity": 0.3937007874015748
        },
        {
          "duration": 0.09375,
          "durationTicks": 96,
          "midi": 61,
          "name": "C#4",
          "ticks": 80256,
          "time": 78.375,
          "velocity": 0.3937007874015748
        },
        {
          "duration": 0.09375,
          "durationTicks": 96,
          "midi": 73,
          "name": "C#5",
          "ticks": 80256,
          "time": 78.375,
          "velocity": 0.3937007874015748
        },
        {
          "duration": 0.09375,
          "durationTicks": 96,
          "midi": 61,
          "name": "C#4",
          "ticks": 80352,
          "time": 78.46875,
          "velocity": 0.3937007874015748
        },
        {
          "duration": 0.09375,
          "durationTicks": 96,
          "midi": 73,
          "name": "C#5",
          "ticks": 80352,
          "time": 78.46875,
          "velocity": 0.3937007874015748
        },
        {
          "duration": 0.09375,
          "durationTicks": 96,
          "midi": 61,
          "name": "C#4",
          "ticks": 80448,
          "time": 78.5625,
          "velocity": 0.3937007874015748
        },
        {
          "duration": 0.09375,
          "durationTicks": 96,
          "midi": 73,
          "name": "C#5",
          "ticks": 80448,
          "time": 78.5625,
          "velocity": 0.3937007874015748
        },
        {
          "duration": 0.09375,
          "durationTicks": 96,
          "midi": 73,
          "name": "C#5",
          "ticks": 80544,
          "time": 78.65625,
          "velocity": 0.3937007874015748
        },
        {
          "duration": 0.09375,
          "durationTicks": 96,
          "midi": 61,
          "name": "C#4",
          "ticks": 80544,
          "time": 78.65625,
          "velocity": 0.3937007874015748
        },
        {
          "duration": 0.09375,
          "durationTicks": 96,
          "midi": 73,
          "name": "C#5",
          "ticks": 80640,
          "time": 78.75,
          "velocity": 0.3937007874015748
        },
        {
          "duration": 0.09375,
          "durationTicks": 96,
          "midi": 61,
          "name": "C#4",
          "ticks": 80640,
          "time": 78.75,
          "velocity": 0.3937007874015748
        },
        {
          "duration": 0.09375,
          "durationTicks": 96,
          "midi": 61,
          "name": "C#4",
          "ticks": 80736,
          "time": 78.84375,
          "velocity": 0.3937007874015748
        },
        {
          "duration": 0.09375,
          "durationTicks": 96,
          "midi": 73,
          "name": "C#5",
          "ticks": 80736,
          "time": 78.84375,
          "velocity": 0.3937007874015748
        },
        {
          "duration": 0.09375,
          "durationTicks": 96,
          "midi": 61,
          "name": "C#4",
          "ticks": 80832,
          "time": 78.9375,
          "velocity": 0.3937007874015748
        },
        {
          "duration": 0.09375,
          "durationTicks": 96,
          "midi": 73,
          "name": "C#5",
          "ticks": 80832,
          "time": 78.9375,
          "velocity": 0.3937007874015748
        },
        {
          "duration": 0.09375,
          "durationTicks": 96,
          "midi": 73,
          "name": "C#5",
          "ticks": 80928,
          "time": 79.03125,
          "velocity": 0.3937007874015748
        },
        {
          "duration": 0.09375,
          "durationTicks": 96,
          "midi": 73,
          "name": "C#5",
          "ticks": 81024,
          "time": 79.125,
          "velocity": 0.3937007874015748
        },
        {
          "duration": 0.09375,
          "durationTicks": 96,
          "midi": 73,
          "name": "C#5",
          "ticks": 81120,
          "time": 79.21875,
          "velocity": 0.3937007874015748
        },
        {
          "duration": 0.09375,
          "durationTicks": 96,
          "midi": 64,
          "name": "E4",
          "ticks": 86016,
          "time": 84,
          "velocity": 0.3937007874015748
        },
        {
          "duration": 0.09375,
          "durationTicks": 96,
          "midi": 76,
          "name": "E5",
          "ticks": 86016,
          "time": 84,
          "velocity": 0.3937007874015748
        },
        {
          "duration": 0.09375,
          "durationTicks": 96,
          "midi": 76,
          "name": "E5",
          "ticks": 86112,
          "time": 84.09375,
          "velocity": 0.3937007874015748
        },
        {
          "duration": 0.09375,
          "durationTicks": 96,
          "midi": 64,
          "name": "E4",
          "ticks": 86112,
          "time": 84.09375,
          "velocity": 0.3937007874015748
        },
        {
          "duration": 0.09375,
          "durationTicks": 96,
          "midi": 76,
          "name": "E5",
          "ticks": 86208,
          "time": 84.1875,
          "velocity": 0.3937007874015748
        },
        {
          "duration": 0.09375,
          "durationTicks": 96,
          "midi": 64,
          "name": "E4",
          "ticks": 86208,
          "time": 84.1875,
          "velocity": 0.3937007874015748
        },
        {
          "duration": 0.09375,
          "durationTicks": 96,
          "midi": 64,
          "name": "E4",
          "ticks": 86304,
          "time": 84.28125,
          "velocity": 0.3937007874015748
        },
        {
          "duration": 0.09375,
          "durationTicks": 96,
          "midi": 76,
          "name": "E5",
          "ticks": 86304,
          "time": 84.28125,
          "velocity": 0.3937007874015748
        },
        {
          "duration": 0.09375,
          "durationTicks": 96,
          "midi": 75,
          "name": "D#5",
          "ticks": 86592,
          "time": 84.5625,
          "velocity": 0.3937007874015748
        },
        {
          "duration": 0.09375,
          "durationTicks": 96,
          "midi": 63,
          "name": "D#4",
          "ticks": 86592,
          "time": 84.5625,
          "velocity": 0.3937007874015748
        },
        {
          "duration": 0.09375,
          "durationTicks": 96,
          "midi": 75,
          "name": "D#5",
          "ticks": 86688,
          "time": 84.65625,
          "velocity": 0.3937007874015748
        },
        {
          "duration": 0.09375,
          "durationTicks": 96,
          "midi": 63,
          "name": "D#4",
          "ticks": 86688,
          "time": 84.65625,
          "velocity": 0.3937007874015748
        },
        {
          "duration": 0.09375,
          "durationTicks": 96,
          "midi": 63,
          "name": "D#4",
          "ticks": 86784,
          "time": 84.75,
          "velocity": 0.3937007874015748
        },
        {
          "duration": 0.09375,
          "durationTicks": 96,
          "midi": 75,
          "name": "D#5",
          "ticks": 86784,
          "time": 84.75,
          "velocity": 0.3937007874015748
        },
        {
          "duration": 0.09375,
          "durationTicks": 96,
          "midi": 63,
          "name": "D#4",
          "ticks": 86880,
          "time": 84.84375,
          "velocity": 0.3937007874015748
        },
        {
          "duration": 0.09375,
          "durationTicks": 96,
          "midi": 75,
          "name": "D#5",
          "ticks": 86880,
          "time": 84.84375,
          "velocity": 0.3937007874015748
        },
        {
          "duration": 0.09375,
          "durationTicks": 96,
          "midi": 64,
          "name": "E4",
          "ticks": 87552,
          "time": 85.5,
          "velocity": 0.3937007874015748
        },
        {
          "duration": 0.09375,
          "durationTicks": 96,
          "midi": 76,
          "name": "E5",
          "ticks": 87552,
          "time": 85.5,
          "velocity": 0.3937007874015748
        },
        {
          "duration": 0.09375,
          "durationTicks": 96,
          "midi": 76,
          "name": "E5",
          "ticks": 87648,
          "time": 85.59375,
          "velocity": 0.3937007874015748
        },
        {
          "duration": 0.09375,
          "durationTicks": 96,
          "midi": 64,
          "name": "E4",
          "ticks": 87648,
          "time": 85.59375,
          "velocity": 0.3937007874015748
        },
        {
          "duration": 0.09375,
          "durationTicks": 96,
          "midi": 64,
          "name": "E4",
          "ticks": 87744,
          "time": 85.6875,
          "velocity": 0.3937007874015748
        },
        {
          "duration": 0.09375,
          "durationTicks": 96,
          "midi": 76,
          "name": "E5",
          "ticks": 87744,
          "time": 85.6875,
          "velocity": 0.3937007874015748
        },
        {
          "duration": 0.09375,
          "durationTicks": 96,
          "midi": 76,
          "name": "E5",
          "ticks": 87840,
          "time": 85.78125,
          "velocity": 0.3937007874015748
        },
        {
          "duration": 0.09375,
          "durationTicks": 96,
          "midi": 64,
          "name": "E4",
          "ticks": 87840,
          "time": 85.78125,
          "velocity": 0.3937007874015748
        },
        {
          "duration": 0.09375,
          "durationTicks": 96,
          "midi": 71,
          "name": "B4",
          "ticks": 88128,
          "time": 86.0625,
          "velocity": 0.3937007874015748
        },
        {
          "duration": 0.09375,
          "durationTicks": 96,
          "midi": 59,
          "name": "B3",
          "ticks": 88128,
          "time": 86.0625,
          "velocity": 0.3937007874015748
        },
        {
          "duration": 0.09375,
          "durationTicks": 96,
          "midi": 59,
          "name": "B3",
          "ticks": 88224,
          "time": 86.15625,
          "velocity": 0.3937007874015748
        },
        {
          "duration": 0.09375,
          "durationTicks": 96,
          "midi": 71,
          "name": "B4",
          "ticks": 88224,
          "time": 86.15625,
          "velocity": 0.3937007874015748
        },
        {
          "duration": 0.09375,
          "durationTicks": 96,
          "midi": 59,
          "name": "B3",
          "ticks": 88320,
          "time": 86.25,
          "velocity": 0.3937007874015748
        },
        {
          "duration": 0.09375,
          "durationTicks": 96,
          "midi": 71,
          "name": "B4",
          "ticks": 88320,
          "time": 86.25,
          "velocity": 0.3937007874015748
        },
        {
          "duration": 0.09375,
          "durationTicks": 96,
          "midi": 71,
          "name": "B4",
          "ticks": 88416,
          "time": 86.34375,
          "velocity": 0.3937007874015748
        },
        {
          "duration": 0.09375,
          "durationTicks": 96,
          "midi": 59,
          "name": "B3",
          "ticks": 88416,
          "time": 86.34375,
          "velocity": 0.3937007874015748
        },
        {
          "duration": 0.09375,
          "durationTicks": 96,
          "midi": 64,
          "name": "E4",
          "ticks": 88704,
          "time": 86.625,
          "velocity": 0.3937007874015748
        },
        {
          "duration": 0.09375,
          "durationTicks": 96,
          "midi": 76,
          "name": "E5",
          "ticks": 88704,
          "time": 86.625,
          "velocity": 0.3937007874015748
        },
        {
          "duration": 0.09375,
          "durationTicks": 96,
          "midi": 76,
          "name": "E5",
          "ticks": 88800,
          "time": 86.71875,
          "velocity": 0.3937007874015748
        },
        {
          "duration": 0.09375,
          "durationTicks": 96,
          "midi": 64,
          "name": "E4",
          "ticks": 88800,
          "time": 86.71875,
          "velocity": 0.3937007874015748
        },
        {
          "duration": 0.09375,
          "durationTicks": 96,
          "midi": 64,
          "name": "E4",
          "ticks": 88896,
          "time": 86.8125,
          "velocity": 0.3937007874015748
        },
        {
          "duration": 0.09375,
          "durationTicks": 96,
          "midi": 76,
          "name": "E5",
          "ticks": 88896,
          "time": 86.8125,
          "velocity": 0.3937007874015748
        },
        {
          "duration": 0.09375,
          "durationTicks": 96,
          "midi": 75,
          "name": "D#5",
          "ticks": 89088,
          "time": 87,
          "velocity": 0.3937007874015748
        },
        {
          "duration": 0.09375,
          "durationTicks": 96,
          "midi": 63,
          "name": "D#4",
          "ticks": 89088,
          "time": 87,
          "velocity": 0.3937007874015748
        },
        {
          "duration": 0.09375,
          "durationTicks": 96,
          "midi": 75,
          "name": "D#5",
          "ticks": 89184,
          "time": 87.09375,
          "velocity": 0.3937007874015748
        },
        {
          "duration": 0.09375,
          "durationTicks": 96,
          "midi": 63,
          "name": "D#4",
          "ticks": 89184,
          "time": 87.09375,
          "velocity": 0.3937007874015748
        },
        {
          "duration": 0.09375,
          "durationTicks": 96,
          "midi": 63,
          "name": "D#4",
          "ticks": 89280,
          "time": 87.1875,
          "velocity": 0.3937007874015748
        },
        {
          "duration": 0.09375,
          "durationTicks": 96,
          "midi": 75,
          "name": "D#5",
          "ticks": 89280,
          "time": 87.1875,
          "velocity": 0.3937007874015748
        },
        {
          "duration": 0.09375,
          "durationTicks": 96,
          "midi": 75,
          "name": "D#5",
          "ticks": 89376,
          "time": 87.28125,
          "velocity": 0.3937007874015748
        },
        {
          "duration": 0.09375,
          "durationTicks": 96,
          "midi": 63,
          "name": "D#4",
          "ticks": 89376,
          "time": 87.28125,
          "velocity": 0.3937007874015748
        },
        {
          "duration": 0.09375,
          "durationTicks": 96,
          "midi": 59,
          "name": "B3",
          "ticks": 89664,
          "time": 87.5625,
          "velocity": 0.3937007874015748
        },
        {
          "duration": 0.09375,
          "durationTicks": 96,
          "midi": 71,
          "name": "B4",
          "ticks": 89664,
          "time": 87.5625,
          "velocity": 0.3937007874015748
        },
        {
          "duration": 0.09375,
          "durationTicks": 96,
          "midi": 71,
          "name": "B4",
          "ticks": 89760,
          "time": 87.65625,
          "velocity": 0.3937007874015748
        },
        {
          "duration": 0.09375,
          "durationTicks": 96,
          "midi": 59,
          "name": "B3",
          "ticks": 89760,
          "time": 87.65625,
          "velocity": 0.3937007874015748
        },
        {
          "duration": 0.09375,
          "durationTicks": 96,
          "midi": 71,
          "name": "B4",
          "ticks": 89856,
          "time": 87.75,
          "velocity": 0.3937007874015748
        },
        {
          "duration": 0.09375,
          "durationTicks": 96,
          "midi": 59,
          "name": "B3",
          "ticks": 89856,
          "time": 87.75,
          "velocity": 0.3937007874015748
        },
        {
          "duration": 0.09375,
          "durationTicks": 96,
          "midi": 59,
          "name": "B3",
          "ticks": 89952,
          "time": 87.84375,
          "velocity": 0.3937007874015748
        },
        {
          "duration": 0.09375,
          "durationTicks": 96,
          "midi": 71,
          "name": "B4",
          "ticks": 89952,
          "time": 87.84375,
          "velocity": 0.3937007874015748
        },
        {
          "duration": 0.09375,
          "durationTicks": 96,
          "midi": 59,
          "name": "B3",
          "ticks": 90048,
          "time": 87.9375,
          "velocity": 0.3937007874015748
        },
        {
          "duration": 0.09375,
          "durationTicks": 96,
          "midi": 71,
          "name": "B4",
          "ticks": 90048,
          "time": 87.9375,
          "velocity": 0.3937007874015748
        },
        {
          "duration": 0.09375,
          "durationTicks": 96,
          "midi": 71,
          "name": "B4",
          "ticks": 90144,
          "time": 88.03125,
          "velocity": 0.3937007874015748
        },
        {
          "duration": 0.09375,
          "durationTicks": 96,
          "midi": 59,
          "name": "B3",
          "ticks": 90144,
          "time": 88.03125,
          "velocity": 0.3937007874015748
        },
        {
          "duration": 0.09375,
          "durationTicks": 96,
          "midi": 74,
          "name": "D5",
          "ticks": 90624,
          "time": 88.5,
          "velocity": 0.3937007874015748
        },
        {
          "duration": 0.09375,
          "durationTicks": 96,
          "midi": 62,
          "name": "D4",
          "ticks": 90624,
          "time": 88.5,
          "velocity": 0.3937007874015748
        },
        {
          "duration": 0.09375,
          "durationTicks": 96,
          "midi": 62,
          "name": "D4",
          "ticks": 90720,
          "time": 88.59375,
          "velocity": 0.3937007874015748
        },
        {
          "duration": 0.09375,
          "durationTicks": 96,
          "midi": 74,
          "name": "D5",
          "ticks": 90720,
          "time": 88.59375,
          "velocity": 0.3937007874015748
        },
        {
          "duration": 0.09375,
          "durationTicks": 96,
          "midi": 74,
          "name": "D5",
          "ticks": 90816,
          "time": 88.6875,
          "velocity": 0.3937007874015748
        },
        {
          "duration": 0.09375,
          "durationTicks": 96,
          "midi": 62,
          "name": "D4",
          "ticks": 90816,
          "time": 88.6875,
          "velocity": 0.3937007874015748
        },
        {
          "duration": 0.09375,
          "durationTicks": 96,
          "midi": 74,
          "name": "D5",
          "ticks": 90912,
          "time": 88.78125,
          "velocity": 0.3937007874015748
        },
        {
          "duration": 0.09375,
          "durationTicks": 96,
          "midi": 62,
          "name": "D4",
          "ticks": 90912,
          "time": 88.78125,
          "velocity": 0.3937007874015748
        },
        {
          "duration": 0.09375,
          "durationTicks": 96,
          "midi": 74,
          "name": "D5",
          "ticks": 91008,
          "time": 88.875,
          "velocity": 0.3937007874015748
        },
        {
          "duration": 0.09375,
          "durationTicks": 96,
          "midi": 62,
          "name": "D4",
          "ticks": 91008,
          "time": 88.875,
          "velocity": 0.3937007874015748
        },
        {
          "duration": 0.09375,
          "durationTicks": 96,
          "midi": 74,
          "name": "D5",
          "ticks": 91104,
          "time": 88.96875,
          "velocity": 0.3937007874015748
        },
        {
          "duration": 0.09375,
          "durationTicks": 96,
          "midi": 62,
          "name": "D4",
          "ticks": 91104,
          "time": 88.96875,
          "velocity": 0.3937007874015748
        },
        {
          "duration": 0.09375,
          "durationTicks": 96,
          "midi": 74,
          "name": "D5",
          "ticks": 91200,
          "time": 89.0625,
          "velocity": 0.3937007874015748
        },
        {
          "duration": 0.09375,
          "durationTicks": 96,
          "midi": 62,
          "name": "D4",
          "ticks": 91200,
          "time": 89.0625,
          "velocity": 0.3937007874015748
        },
        {
          "duration": 0.09375,
          "durationTicks": 96,
          "midi": 62,
          "name": "D4",
          "ticks": 91296,
          "time": 89.15625,
          "velocity": 0.3937007874015748
        },
        {
          "duration": 0.09375,
          "durationTicks": 96,
          "midi": 74,
          "name": "D5",
          "ticks": 91296,
          "time": 89.15625,
          "velocity": 0.3937007874015748
        },
        {
          "duration": 0.09375,
          "durationTicks": 96,
          "midi": 74,
          "name": "D5",
          "ticks": 91392,
          "time": 89.25,
          "velocity": 0.3937007874015748
        },
        {
          "duration": 0.09375,
          "durationTicks": 96,
          "midi": 62,
          "name": "D4",
          "ticks": 91392,
          "time": 89.25,
          "velocity": 0.3937007874015748
        },
        {
          "duration": 0.09375,
          "durationTicks": 96,
          "midi": 74,
          "name": "D5",
          "ticks": 91488,
          "time": 89.34375,
          "velocity": 0.3937007874015748
        },
        {
          "duration": 0.09375,
          "durationTicks": 96,
          "midi": 62,
          "name": "D4",
          "ticks": 91488,
          "time": 89.34375,
          "velocity": 0.3937007874015748
        },
        {
          "duration": 0.09375,
          "durationTicks": 96,
          "midi": 62,
          "name": "D4",
          "ticks": 91584,
          "time": 89.4375,
          "velocity": 0.3937007874015748
        },
        {
          "duration": 0.09375,
          "durationTicks": 96,
          "midi": 74,
          "name": "D5",
          "ticks": 91584,
          "time": 89.4375,
          "velocity": 0.3937007874015748
        },
        {
          "duration": 0.09375,
          "durationTicks": 96,
          "midi": 61,
          "name": "C#4",
          "ticks": 92160,
          "time": 90,
          "velocity": 0.3937007874015748
        },
        {
          "duration": 0.09375,
          "durationTicks": 96,
          "midi": 61,
          "name": "C#4",
          "ticks": 92256,
          "time": 90.09375,
          "velocity": 0.3937007874015748
        },
        {
          "duration": 0.09375,
          "durationTicks": 96,
          "midi": 61,
          "name": "C#4",
          "ticks": 92352,
          "time": 90.1875,
          "velocity": 0.3937007874015748
        },
        {
          "duration": 0.09375,
          "durationTicks": 96,
          "midi": 61,
          "name": "C#4",
          "ticks": 92448,
          "time": 90.28125,
          "velocity": 0.3937007874015748
        },
        {
          "duration": 0.09375,
          "durationTicks": 96,
          "midi": 61,
          "name": "C#4",
          "ticks": 92544,
          "time": 90.375,
          "velocity": 0.3937007874015748
        },
        {
          "duration": 0.09375,
          "durationTicks": 96,
          "midi": 61,
          "name": "C#4",
          "ticks": 92640,
          "time": 90.46875,
          "velocity": 0.3937007874015748
        },
        {
          "duration": 0.09375,
          "durationTicks": 96,
          "midi": 61,
          "name": "C#4",
          "ticks": 92736,
          "time": 90.5625,
          "velocity": 0.3937007874015748
        },
        {
          "duration": 0.09375,
          "durationTicks": 96,
          "midi": 61,
          "name": "C#4",
          "ticks": 92832,
          "time": 90.65625,
          "velocity": 0.3937007874015748
        },
        {
          "duration": 0.09375,
          "durationTicks": 96,
          "midi": 61,
          "name": "C#4",
          "ticks": 92928,
          "time": 90.75,
          "velocity": 0.3937007874015748
        },
        {
          "duration": 0.09375,
          "durationTicks": 96,
          "midi": 61,
          "name": "C#4",
          "ticks": 93024,
          "time": 90.84375,
          "velocity": 0.3937007874015748
        },
        {
          "duration": 0.09375,
          "durationTicks": 96,
          "midi": 61,
          "name": "C#4",
          "ticks": 93120,
          "time": 90.9375,
          "velocity": 0.3937007874015748
        },
        {
          "duration": 0.09375,
          "durationTicks": 96,
          "midi": 64,
          "name": "E4",
          "ticks": 115200,
          "time": 112.5,
          "velocity": 0.3937007874015748
        },
        {
          "duration": 0.09375,
          "durationTicks": 96,
          "midi": 67,
          "name": "G4",
          "ticks": 115392,
          "time": 112.6875,
          "velocity": 0.3937007874015748
        },
        {
          "duration": 0.09375,
          "durationTicks": 96,
          "midi": 71,
          "name": "B4",
          "ticks": 115584,
          "time": 112.875,
          "velocity": 0.3937007874015748
        },
        {
          "duration": 0.09375,
          "durationTicks": 96,
          "midi": 76,
          "name": "E5",
          "ticks": 115776,
          "time": 113.0625,
          "velocity": 0.3937007874015748
        },
        {
          "duration": 0.09375,
          "durationTicks": 96,
          "midi": 75,
          "name": "D#5",
          "ticks": 115968,
          "time": 113.25,
          "velocity": 0.3937007874015748
        },
        {
          "duration": 0.09375,
          "durationTicks": 96,
          "midi": 71,
          "name": "B4",
          "ticks": 116256,
          "time": 113.53125,
          "velocity": 0.3937007874015748
        },
        {
          "duration": 0.09375,
          "durationTicks": 96,
          "midi": 75,
          "name": "D#5",
          "ticks": 116544,
          "time": 113.8125,
          "velocity": 0.3937007874015748
        },
        {
          "duration": 0.09375,
          "durationTicks": 96,
          "midi": 74,
          "name": "D5",
          "ticks": 116736,
          "time": 114,
          "velocity": 0.3937007874015748
        },
        {
          "duration": 0.09375,
          "durationTicks": 96,
          "midi": 71,
          "name": "B4",
          "ticks": 117024,
          "time": 114.28125,
          "velocity": 0.3937007874015748
        },
        {
          "duration": 0.09375,
          "durationTicks": 96,
          "midi": 74,
          "name": "D5",
          "ticks": 117312,
          "time": 114.5625,
          "velocity": 0.3937007874015748
        },
        {
          "duration": 0.09375,
          "durationTicks": 96,
          "midi": 73,
          "name": "C#5",
          "ticks": 117504,
          "time": 114.75,
          "velocity": 0.3937007874015748
        },
        {
          "duration": 0.09375,
          "durationTicks": 96,
          "midi": 70,
          "name": "A#4",
          "ticks": 117792,
          "time": 115.03125,
          "velocity": 0.3937007874015748
        },
        {
          "duration": 0.09375,
          "durationTicks": 96,
          "midi": 67,
          "name": "G4",
          "ticks": 118080,
          "time": 115.3125,
          "velocity": 0.3937007874015748
        },
        {
          "duration": 0.09375,
          "durationTicks": 96,
          "midi": 64,
          "name": "E4",
          "ticks": 121344,
          "time": 118.5,
          "velocity": 0.3937007874015748
        },
        {
          "duration": 0.09375,
          "durationTicks": 96,
          "midi": 67,
          "name": "G4",
          "ticks": 121536,
          "time": 118.6875,
          "velocity": 0.3937007874015748
        },
        {
          "duration": 0.09375,
          "durationTicks": 96,
          "midi": 71,
          "name": "B4",
          "ticks": 121728,
          "time": 118.875,
          "velocity": 0.3937007874015748
        },
        {
          "duration": 0.09375,
          "durationTicks": 96,
          "midi": 76,
          "name": "E5",
          "ticks": 121920,
          "time": 119.0625,
          "velocity": 0.3937007874015748
        },
        {
          "duration": 0.09375,
          "durationTicks": 96,
          "midi": 75,
          "name": "D#5",
          "ticks": 122112,
          "time": 119.25,
          "velocity": 0.3937007874015748
        },
        {
          "duration": 0.09375,
          "durationTicks": 96,
          "midi": 71,
          "name": "B4",
          "ticks": 122400,
          "time": 119.53125,
          "velocity": 0.3937007874015748
        },
        {
          "duration": 0.09375,
          "durationTicks": 96,
          "midi": 75,
          "name": "D#5",
          "ticks": 122688,
          "time": 119.8125,
          "velocity": 0.3937007874015748
        },
        {
          "duration": 0.09375,
          "durationTicks": 96,
          "midi": 74,
          "name": "D5",
          "ticks": 122880,
          "time": 120,
          "velocity": 0.3937007874015748
        },
        {
          "duration": 0.09375,
          "durationTicks": 96,
          "midi": 71,
          "name": "B4",
          "ticks": 123168,
          "time": 120.28125,
          "velocity": 0.3937007874015748
        },
        {
          "duration": 0.09375,
          "durationTicks": 96,
          "midi": 74,
          "name": "D5",
          "ticks": 123456,
          "time": 120.5625,
          "velocity": 0.3937007874015748
        },
        {
          "duration": 0.09375,
          "durationTicks": 96,
          "midi": 73,
          "name": "C#5",
          "ticks": 123648,
          "time": 120.75,
          "velocity": 0.3937007874015748
        },
        {
          "duration": 0.09375,
          "durationTicks": 96,
          "midi": 82,
          "name": "A#5",
          "ticks": 123936,
          "time": 121.03125,
          "velocity": 0.3937007874015748
        },
        {
          "duration": 0.09375,
          "durationTicks": 96,
          "midi": 79,
          "name": "G5",
          "ticks": 124224,
          "time": 121.3125,
          "velocity": 0.3937007874015748
        },
        {
          "duration": 0.09375,
          "durationTicks": 96,
          "midi": 64,
          "name": "E4",
          "ticks": 127488,
          "time": 124.5,
          "velocity": 0.3937007874015748
        },
        {
          "duration": 0.09375,
          "durationTicks": 96,
          "midi": 67,
          "name": "G4",
          "ticks": 127680,
          "time": 124.6875,
          "velocity": 0.3937007874015748
        },
        {
          "duration": 0.09375,
          "durationTicks": 96,
          "midi": 71,
          "name": "B4",
          "ticks": 127872,
          "time": 124.875,
          "velocity": 0.3937007874015748
        },
        {
          "duration": 0.09375,
          "durationTicks": 96,
          "midi": 76,
          "name": "E5",
          "ticks": 128064,
          "time": 125.0625,
          "velocity": 0.3937007874015748
        },
        {
          "duration": 0.09375,
          "durationTicks": 96,
          "midi": 75,
          "name": "D#5",
          "ticks": 128256,
          "time": 125.25,
          "velocity": 0.3937007874015748
        },
        {
          "duration": 0.09375,
          "durationTicks": 96,
          "midi": 71,
          "name": "B4",
          "ticks": 128544,
          "time": 125.53125,
          "velocity": 0.3937007874015748
        },
        {
          "duration": 0.09375,
          "durationTicks": 96,
          "midi": 75,
          "name": "D#5",
          "ticks": 128832,
          "time": 125.8125,
          "velocity": 0.3937007874015748
        },
        {
          "duration": 0.09375,
          "durationTicks": 96,
          "midi": 74,
          "name": "D5",
          "ticks": 129024,
          "time": 126,
          "velocity": 0.3937007874015748
        },
        {
          "duration": 0.09375,
          "durationTicks": 96,
          "midi": 71,
          "name": "B4",
          "ticks": 129312,
          "time": 126.28125,
          "velocity": 0.3937007874015748
        },
        {
          "duration": 0.09375,
          "durationTicks": 96,
          "midi": 74,
          "name": "D5",
          "ticks": 129600,
          "time": 126.5625,
          "velocity": 0.3937007874015748
        },
        {
          "duration": 0.09375,
          "durationTicks": 96,
          "midi": 73,
          "name": "C#5",
          "ticks": 129792,
          "time": 126.75,
          "velocity": 0.3937007874015748
        },
        {
          "duration": 0.09375,
          "durationTicks": 96,
          "midi": 82,
          "name": "A#5",
          "ticks": 130080,
          "time": 127.03125,
          "velocity": 0.3937007874015748
        },
        {
          "duration": 0.09375,
          "durationTicks": 96,
          "midi": 79,
          "name": "G5",
          "ticks": 130368,
          "time": 127.3125,
          "velocity": 0.3937007874015748
        },
        {
          "duration": 0.09375,
          "durationTicks": 96,
          "midi": 64,
          "name": "E4",
          "ticks": 133632,
          "time": 130.5,
          "velocity": 0.3937007874015748
        },
        {
          "duration": 0.09375,
          "durationTicks": 96,
          "midi": 67,
          "name": "G4",
          "ticks": 133824,
          "time": 130.6875,
          "velocity": 0.3937007874015748
        },
        {
          "duration": 0.09375,
          "durationTicks": 96,
          "midi": 71,
          "name": "B4",
          "ticks": 134016,
          "time": 130.875,
          "velocity": 0.3937007874015748
        },
        {
          "duration": 0.09375,
          "durationTicks": 96,
          "midi": 76,
          "name": "E5",
          "ticks": 134208,
          "time": 131.0625,
          "velocity": 0.3937007874015748
        },
        {
          "duration": 0.09375,
          "durationTicks": 96,
          "midi": 75,
          "name": "D#5",
          "ticks": 134400,
          "time": 131.25,
          "velocity": 0.3937007874015748
        },
        {
          "duration": 0.09375,
          "durationTicks": 96,
          "midi": 71,
          "name": "B4",
          "ticks": 134688,
          "time": 131.53125,
          "velocity": 0.3937007874015748
        },
        {
          "duration": 0.09375,
          "durationTicks": 96,
          "midi": 75,
          "name": "D#5",
          "ticks": 134976,
          "time": 131.8125,
          "velocity": 0.3937007874015748
        },
        {
          "duration": 0.09375,
          "durationTicks": 96,
          "midi": 74,
          "name": "D5",
          "ticks": 135168,
          "time": 132,
          "velocity": 0.3937007874015748
        },
        {
          "duration": 0.09375,
          "durationTicks": 96,
          "midi": 71,
          "name": "B4",
          "ticks": 135456,
          "time": 132.28125,
          "velocity": 0.3937007874015748
        },
        {
          "duration": 0.09375,
          "durationTicks": 96,
          "midi": 74,
          "name": "D5",
          "ticks": 135744,
          "time": 132.5625,
          "velocity": 0.3937007874015748
        },
        {
          "duration": 0.09375,
          "durationTicks": 96,
          "midi": 73,
          "name": "C#5",
          "ticks": 135936,
          "time": 132.75,
          "velocity": 0.3937007874015748
        },
        {
          "duration": 0.09375,
          "durationTicks": 96,
          "midi": 82,
          "name": "A#5",
          "ticks": 136224,
          "time": 133.03125,
          "velocity": 0.3937007874015748
        },
        {
          "duration": 0.09375,
          "durationTicks": 96,
          "midi": 79,
          "name": "G5",
          "ticks": 136512,
          "time": 133.3125,
          "velocity": 0.3937007874015748
        },
        {
          "duration": 0.09375,
          "durationTicks": 96,
          "midi": 35,
          "name": "B1",
          "ticks": 157056,
          "time": 153.375,
          "velocity": 0.3937007874015748
        },
        {
          "duration": 0.09375,
          "durationTicks": 96,
          "midi": 47,
          "name": "B2",
          "ticks": 157056,
          "time": 153.375,
          "velocity": 0.3937007874015748
        },
        {
          "duration": 0.09375,
          "durationTicks": 96,
          "midi": 35,
          "name": "B1",
          "ticks": 157152,
          "time": 153.46875,
          "velocity": 0.3937007874015748
        },
        {
          "duration": 0.09375,
          "durationTicks": 96,
          "midi": 47,
          "name": "B2",
          "ticks": 157152,
          "time": 153.46875,
          "velocity": 0.3937007874015748
        },
        {
          "duration": 0.09375,
          "durationTicks": 96,
          "midi": 35,
          "name": "B1",
          "ticks": 157248,
          "time": 153.5625,
          "velocity": 0.3937007874015748
        },
        {
          "duration": 0.09375,
          "durationTicks": 96,
          "midi": 47,
          "name": "B2",
          "ticks": 157248,
          "time": 153.5625,
          "velocity": 0.3937007874015748
        },
        {
          "duration": 0.09375,
          "durationTicks": 96,
          "midi": 47,
          "name": "B2",
          "ticks": 157344,
          "time": 153.65625,
          "velocity": 0.3937007874015748
        },
        {
          "duration": 0.09375,
          "durationTicks": 96,
          "midi": 35,
          "name": "B1",
          "ticks": 157344,
          "time": 153.65625,
          "velocity": 0.3937007874015748
        },
        {
          "duration": 0.09375,
          "durationTicks": 96,
          "midi": 35,
          "name": "B1",
          "ticks": 157440,
          "time": 153.75,
          "velocity": 0.3937007874015748
        },
        {
          "duration": 0.09375,
          "durationTicks": 96,
          "midi": 47,
          "name": "B2",
          "ticks": 157440,
          "time": 153.75,
          "velocity": 0.3937007874015748
        },
        {
          "duration": 0.09375,
          "durationTicks": 96,
          "midi": 47,
          "name": "B2",
          "ticks": 157536,
          "time": 153.84375,
          "velocity": 0.3937007874015748
        },
        {
          "duration": 0.09375,
          "durationTicks": 96,
          "midi": 35,
          "name": "B1",
          "ticks": 157536,
          "time": 153.84375,
          "velocity": 0.3937007874015748
        },
        {
          "duration": 0.09375,
          "durationTicks": 96,
          "midi": 47,
          "name": "B2",
          "ticks": 157632,
          "time": 153.9375,
          "velocity": 0.3937007874015748
        },
        {
          "duration": 0.09375,
          "durationTicks": 96,
          "midi": 35,
          "name": "B1",
          "ticks": 157632,
          "time": 153.9375,
          "velocity": 0.3937007874015748
        },
        {
          "duration": 0.09375,
          "durationTicks": 96,
          "midi": 47,
          "name": "B2",
          "ticks": 157728,
          "time": 154.03125,
          "velocity": 0.3937007874015748
        },
        {
          "duration": 0.09375,
          "durationTicks": 96,
          "midi": 35,
          "name": "B1",
          "ticks": 157728,
          "time": 154.03125,
          "velocity": 0.3937007874015748
        },
        {
          "duration": 0.09375,
          "durationTicks": 96,
          "midi": 35,
          "name": "B1",
          "ticks": 157824,
          "time": 154.125,
          "velocity": 0.3937007874015748
        },
        {
          "duration": 0.09375,
          "durationTicks": 96,
          "midi": 47,
          "name": "B2",
          "ticks": 157824,
          "time": 154.125,
          "velocity": 0.3937007874015748
        },
        {
          "duration": 0.09375,
          "durationTicks": 96,
          "midi": 35,
          "name": "B1",
          "ticks": 157920,
          "time": 154.21875,
          "velocity": 0.3937007874015748
        },
        {
          "duration": 0.09375,
          "durationTicks": 96,
          "midi": 47,
          "name": "B2",
          "ticks": 157920,
          "time": 154.21875,
          "velocity": 0.3937007874015748
        },
        {
          "duration": 0.09375,
          "durationTicks": 96,
          "midi": 47,
          "name": "B2",
          "ticks": 158016,
          "time": 154.3125,
          "velocity": 0.3937007874015748
        },
        {
          "duration": 0.09375,
          "durationTicks": 96,
          "midi": 35,
          "name": "B1",
          "ticks": 158016,
          "time": 154.3125,
          "velocity": 0.3937007874015748
        },
        {
          "duration": 0.09375,
          "durationTicks": 96,
          "midi": 47,
          "name": "B2",
          "ticks": 158112,
          "time": 154.40625,
          "velocity": 0.3937007874015748
        },
        {
          "duration": 0.09375,
          "durationTicks": 96,
          "midi": 35,
          "name": "B1",
          "ticks": 158112,
          "time": 154.40625,
          "velocity": 0.3937007874015748
        },
        {
          "duration": 0.09375,
          "durationTicks": 96,
          "midi": 47,
          "name": "B2",
          "ticks": 158208,
          "time": 154.5,
          "velocity": 0.3937007874015748
        },
        {
          "duration": 0.09375,
          "durationTicks": 96,
          "midi": 35,
          "name": "B1",
          "ticks": 158208,
          "time": 154.5,
          "velocity": 0.3937007874015748
        },
        {
          "duration": 0.09375,
          "durationTicks": 96,
          "midi": 35,
          "name": "B1",
          "ticks": 158304,
          "time": 154.59375,
          "velocity": 0.3937007874015748
        },
        {
          "duration": 0.09375,
          "durationTicks": 96,
          "midi": 47,
          "name": "B2",
          "ticks": 158304,
          "time": 154.59375,
          "velocity": 0.3937007874015748
        },
        {
          "duration": 0.09375,
          "durationTicks": 96,
          "midi": 35,
          "name": "B1",
          "ticks": 158400,
          "time": 154.6875,
          "velocity": 0.3937007874015748
        },
        {
          "duration": 0.09375,
          "durationTicks": 96,
          "midi": 47,
          "name": "B2",
          "ticks": 158400,
          "time": 154.6875,
          "velocity": 0.3937007874015748
        },
        {
          "duration": 0.09375,
          "durationTicks": 96,
          "midi": 47,
          "name": "B2",
          "ticks": 158496,
          "time": 154.78125,
          "velocity": 0.3937007874015748
        },
        {
          "duration": 0.09375,
          "durationTicks": 96,
          "midi": 35,
          "name": "B1",
          "ticks": 158496,
          "time": 154.78125,
          "velocity": 0.3937007874015748
        },
        {
          "duration": 0.09375,
          "durationTicks": 96,
          "midi": 47,
          "name": "B2",
          "ticks": 158592,
          "time": 154.875,
          "velocity": 0.3937007874015748
        },
        {
          "duration": 0.09375,
          "durationTicks": 96,
          "midi": 35,
          "name": "B1",
          "ticks": 158592,
          "time": 154.875,
          "velocity": 0.3937007874015748
        },
        {
          "duration": 0.09375,
          "durationTicks": 96,
          "midi": 35,
          "name": "B1",
          "ticks": 158688,
          "time": 154.96875,
          "velocity": 0.3937007874015748
        },
        {
          "duration": 0.09375,
          "durationTicks": 96,
          "midi": 47,
          "name": "B2",
          "ticks": 158688,
          "time": 154.96875,
          "velocity": 0.3937007874015748
        },
        {
          "duration": 0.09375,
          "durationTicks": 96,
          "midi": 35,
          "name": "B1",
          "ticks": 158784,
          "time": 155.0625,
          "velocity": 0.3937007874015748
        },
        {
          "duration": 0.09375,
          "durationTicks": 96,
          "midi": 47,
          "name": "B2",
          "ticks": 158784,
          "time": 155.0625,
          "velocity": 0.3937007874015748
        },
        {
          "duration": 0.09375,
          "durationTicks": 96,
          "midi": 35,
          "name": "B1",
          "ticks": 158880,
          "time": 155.15625,
          "velocity": 0.3937007874015748
        },
        {
          "duration": 0.09375,
          "durationTicks": 96,
          "midi": 47,
          "name": "B2",
          "ticks": 158880,
          "time": 155.15625,
          "velocity": 0.3937007874015748
        },
        {
          "duration": 0.09375,
          "durationTicks": 96,
          "midi": 64,
          "name": "E4",
          "ticks": 159744,
          "time": 156,
          "velocity": 0.3937007874015748
        },
        {
          "duration": 0.09375,
          "durationTicks": 96,
          "midi": 76,
          "name": "E5",
          "ticks": 159744,
          "time": 156,
          "velocity": 0.3937007874015748
        },
        {
          "duration": 0.09375,
          "durationTicks": 96,
          "midi": 76,
          "name": "E5",
          "ticks": 159840,
          "time": 156.09375,
          "velocity": 0.3937007874015748
        },
        {
          "duration": 0.09375,
          "durationTicks": 96,
          "midi": 64,
          "name": "E4",
          "ticks": 159840,
          "time": 156.09375,
          "velocity": 0.3937007874015748
        },
        {
          "duration": 0.09375,
          "durationTicks": 96,
          "midi": 76,
          "name": "E5",
          "ticks": 159936,
          "time": 156.1875,
          "velocity": 0.3937007874015748
        },
        {
          "duration": 0.09375,
          "durationTicks": 96,
          "midi": 64,
          "name": "E4",
          "ticks": 159936,
          "time": 156.1875,
          "velocity": 0.3937007874015748
        },
        {
          "duration": 0.09375,
          "durationTicks": 96,
          "midi": 76,
          "name": "E5",
          "ticks": 160032,
          "time": 156.28125,
          "velocity": 0.3937007874015748
        },
        {
          "duration": 0.09375,
          "durationTicks": 96,
          "midi": 64,
          "name": "E4",
          "ticks": 160032,
          "time": 156.28125,
          "velocity": 0.3937007874015748
        },
        {
          "duration": 0.09375,
          "durationTicks": 96,
          "midi": 59,
          "name": "B3",
          "ticks": 160320,
          "time": 156.5625,
          "velocity": 0.3937007874015748
        },
        {
          "duration": 0.09375,
          "durationTicks": 96,
          "midi": 71,
          "name": "B4",
          "ticks": 160320,
          "time": 156.5625,
          "velocity": 0.3937007874015748
        },
        {
          "duration": 0.09375,
          "durationTicks": 96,
          "midi": 59,
          "name": "B3",
          "ticks": 160416,
          "time": 156.65625,
          "velocity": 0.3937007874015748
        },
        {
          "duration": 0.09375,
          "durationTicks": 96,
          "midi": 71,
          "name": "B4",
          "ticks": 160416,
          "time": 156.65625,
          "velocity": 0.3937007874015748
        },
        {
          "duration": 0.09375,
          "durationTicks": 96,
          "midi": 71,
          "name": "B4",
          "ticks": 160512,
          "time": 156.75,
          "velocity": 0.3937007874015748
        },
        {
          "duration": 0.09375,
          "durationTicks": 96,
          "midi": 59,
          "name": "B3",
          "ticks": 160512,
          "time": 156.75,
          "velocity": 0.3937007874015748
        },
        {
          "duration": 0.09375,
          "durationTicks": 96,
          "midi": 59,
          "name": "B3",
          "ticks": 160608,
          "time": 156.84375,
          "velocity": 0.3937007874015748
        },
        {
          "duration": 0.09375,
          "durationTicks": 96,
          "midi": 71,
          "name": "B4",
          "ticks": 160608,
          "time": 156.84375,
          "velocity": 0.3937007874015748
        },
        {
          "duration": 0.09375,
          "durationTicks": 96,
          "midi": 64,
          "name": "E4",
          "ticks": 160896,
          "time": 157.125,
          "velocity": 0.3937007874015748
        },
        {
          "duration": 0.09375,
          "durationTicks": 96,
          "midi": 76,
          "name": "E5",
          "ticks": 160896,
          "time": 157.125,
          "velocity": 0.3937007874015748
        },
        {
          "duration": 0.09375,
          "durationTicks": 96,
          "midi": 76,
          "name": "E5",
          "ticks": 160992,
          "time": 157.21875,
          "velocity": 0.3937007874015748
        },
        {
          "duration": 0.09375,
          "durationTicks": 96,
          "midi": 64,
          "name": "E4",
          "ticks": 160992,
          "time": 157.21875,
          "velocity": 0.3937007874015748
        },
        {
          "duration": 0.09375,
          "durationTicks": 96,
          "midi": 76,
          "name": "E5",
          "ticks": 161088,
          "time": 157.3125,
          "velocity": 0.3937007874015748
        },
        {
          "duration": 0.09375,
          "durationTicks": 96,
          "midi": 64,
          "name": "E4",
          "ticks": 161088,
          "time": 157.3125,
          "velocity": 0.3937007874015748
        },
        {
          "duration": 0.09375,
          "durationTicks": 96,
          "midi": 75,
          "name": "D#5",
          "ticks": 161280,
          "time": 157.5,
          "velocity": 0.3937007874015748
        },
        {
          "duration": 0.09375,
          "durationTicks": 96,
          "midi": 63,
          "name": "D#4",
          "ticks": 161280,
          "time": 157.5,
          "velocity": 0.3937007874015748
        },
        {
          "duration": 0.09375,
          "durationTicks": 96,
          "midi": 75,
          "name": "D#5",
          "ticks": 161376,
          "time": 157.59375,
          "velocity": 0.3937007874015748
        },
        {
          "duration": 0.09375,
          "durationTicks": 96,
          "midi": 63,
          "name": "D#4",
          "ticks": 161376,
          "time": 157.59375,
          "velocity": 0.3937007874015748
        },
        {
          "duration": 0.09375,
          "durationTicks": 96,
          "midi": 63,
          "name": "D#4",
          "ticks": 161472,
          "time": 157.6875,
          "velocity": 0.3937007874015748
        },
        {
          "duration": 0.09375,
          "durationTicks": 96,
          "midi": 75,
          "name": "D#5",
          "ticks": 161472,
          "time": 157.6875,
          "velocity": 0.3937007874015748
        },
        {
          "duration": 0.09375,
          "durationTicks": 96,
          "midi": 75,
          "name": "D#5",
          "ticks": 161568,
          "time": 157.78125,
          "velocity": 0.3937007874015748
        },
        {
          "duration": 0.09375,
          "durationTicks": 96,
          "midi": 63,
          "name": "D#4",
          "ticks": 161568,
          "time": 157.78125,
          "velocity": 0.3937007874015748
        },
        {
          "duration": 0.09375,
          "durationTicks": 96,
          "midi": 59,
          "name": "B3",
          "ticks": 161856,
          "time": 158.0625,
          "velocity": 0.3937007874015748
        },
        {
          "duration": 0.09375,
          "durationTicks": 96,
          "midi": 71,
          "name": "B4",
          "ticks": 161856,
          "time": 158.0625,
          "velocity": 0.3937007874015748
        },
        {
          "duration": 0.09375,
          "durationTicks": 96,
          "midi": 59,
          "name": "B3",
          "ticks": 161952,
          "time": 158.15625,
          "velocity": 0.3937007874015748
        },
        {
          "duration": 0.09375,
          "durationTicks": 96,
          "midi": 71,
          "name": "B4",
          "ticks": 161952,
          "time": 158.15625,
          "velocity": 0.3937007874015748
        },
        {
          "duration": 0.09375,
          "durationTicks": 96,
          "midi": 59,
          "name": "B3",
          "ticks": 162048,
          "time": 158.25,
          "velocity": 0.3937007874015748
        },
        {
          "duration": 0.09375,
          "durationTicks": 96,
          "midi": 71,
          "name": "B4",
          "ticks": 162048,
          "time": 158.25,
          "velocity": 0.3937007874015748
        },
        {
          "duration": 0.09375,
          "durationTicks": 96,
          "midi": 59,
          "name": "B3",
          "ticks": 162144,
          "time": 158.34375,
          "velocity": 0.3937007874015748
        },
        {
          "duration": 0.09375,
          "durationTicks": 96,
          "midi": 71,
          "name": "B4",
          "ticks": 162144,
          "time": 158.34375,
          "velocity": 0.3937007874015748
        },
        {
          "duration": 0.09375,
          "durationTicks": 96,
          "midi": 59,
          "name": "B3",
          "ticks": 162240,
          "time": 158.4375,
          "velocity": 0.3937007874015748
        },
        {
          "duration": 0.09375,
          "durationTicks": 96,
          "midi": 71,
          "name": "B4",
          "ticks": 162240,
          "time": 158.4375,
          "velocity": 0.3937007874015748
        },
        {
          "duration": 0.09375,
          "durationTicks": 96,
          "midi": 59,
          "name": "B3",
          "ticks": 162336,
          "time": 158.53125,
          "velocity": 0.3937007874015748
        },
        {
          "duration": 0.09375,
          "durationTicks": 96,
          "midi": 71,
          "name": "B4",
          "ticks": 162336,
          "time": 158.53125,
          "velocity": 0.3937007874015748
        },
        {
          "duration": 0.09375,
          "durationTicks": 96,
          "midi": 74,
          "name": "D5",
          "ticks": 162816,
          "time": 159,
          "velocity": 0.3937007874015748
        },
        {
          "duration": 0.09375,
          "durationTicks": 96,
          "midi": 62,
          "name": "D4",
          "ticks": 162816,
          "time": 159,
          "velocity": 0.3937007874015748
        },
        {
          "duration": 0.09375,
          "durationTicks": 96,
          "midi": 62,
          "name": "D4",
          "ticks": 162912,
          "time": 159.09375,
          "velocity": 0.3937007874015748
        },
        {
          "duration": 0.09375,
          "durationTicks": 96,
          "midi": 74,
          "name": "D5",
          "ticks": 162912,
          "time": 159.09375,
          "velocity": 0.3937007874015748
        },
        {
          "duration": 0.09375,
          "durationTicks": 96,
          "midi": 74,
          "name": "D5",
          "ticks": 163008,
          "time": 159.1875,
          "velocity": 0.3937007874015748
        },
        {
          "duration": 0.09375,
          "durationTicks": 96,
          "midi": 62,
          "name": "D4",
          "ticks": 163008,
          "time": 159.1875,
          "velocity": 0.3937007874015748
        },
        {
          "duration": 0.09375,
          "durationTicks": 96,
          "midi": 62,
          "name": "D4",
          "ticks": 163104,
          "time": 159.28125,
          "velocity": 0.3937007874015748
        },
        {
          "duration": 0.09375,
          "durationTicks": 96,
          "midi": 74,
          "name": "D5",
          "ticks": 163104,
          "time": 159.28125,
          "velocity": 0.3937007874015748
        },
        {
          "duration": 0.09375,
          "durationTicks": 96,
          "midi": 74,
          "name": "D5",
          "ticks": 163200,
          "time": 159.375,
          "velocity": 0.3937007874015748
        },
        {
          "duration": 0.09375,
          "durationTicks": 96,
          "midi": 62,
          "name": "D4",
          "ticks": 163200,
          "time": 159.375,
          "velocity": 0.3937007874015748
        },
        {
          "duration": 0.09375,
          "durationTicks": 96,
          "midi": 74,
          "name": "D5",
          "ticks": 163296,
          "time": 159.46875,
          "velocity": 0.3937007874015748
        },
        {
          "duration": 0.09375,
          "durationTicks": 96,
          "midi": 62,
          "name": "D4",
          "ticks": 163296,
          "time": 159.46875,
          "velocity": 0.3937007874015748
        },
        {
          "duration": 0.09375,
          "durationTicks": 96,
          "midi": 62,
          "name": "D4",
          "ticks": 163392,
          "time": 159.5625,
          "velocity": 0.3937007874015748
        },
        {
          "duration": 0.09375,
          "durationTicks": 96,
          "midi": 74,
          "name": "D5",
          "ticks": 163392,
          "time": 159.5625,
          "velocity": 0.3937007874015748
        },
        {
          "duration": 0.09375,
          "durationTicks": 96,
          "midi": 62,
          "name": "D4",
          "ticks": 163488,
          "time": 159.65625,
          "velocity": 0.3937007874015748
        },
        {
          "duration": 0.09375,
          "durationTicks": 96,
          "midi": 74,
          "name": "D5",
          "ticks": 163488,
          "time": 159.65625,
          "velocity": 0.3937007874015748
        },
        {
          "duration": 0.09375,
          "durationTicks": 96,
          "midi": 74,
          "name": "D5",
          "ticks": 163584,
          "time": 159.75,
          "velocity": 0.3937007874015748
        },
        {
          "duration": 0.09375,
          "durationTicks": 96,
          "midi": 62,
          "name": "D4",
          "ticks": 163584,
          "time": 159.75,
          "velocity": 0.3937007874015748
        },
        {
          "duration": 0.09375,
          "durationTicks": 96,
          "midi": 74,
          "name": "D5",
          "ticks": 163680,
          "time": 159.84375,
          "velocity": 0.3937007874015748
        },
        {
          "duration": 0.09375,
          "durationTicks": 96,
          "midi": 62,
          "name": "D4",
          "ticks": 163680,
          "time": 159.84375,
          "velocity": 0.3937007874015748
        },
        {
          "duration": 0.09375,
          "durationTicks": 96,
          "midi": 62,
          "name": "D4",
          "ticks": 163776,
          "time": 159.9375,
          "velocity": 0.3937007874015748
        },
        {
          "duration": 0.09375,
          "durationTicks": 96,
          "midi": 74,
          "name": "D5",
          "ticks": 163776,
          "time": 159.9375,
          "velocity": 0.3937007874015748
        },
        {
          "duration": 0.09375,
          "durationTicks": 96,
          "midi": 74,
          "name": "D5",
          "ticks": 163872,
          "time": 160.03125,
          "velocity": 0.3937007874015748
        },
        {
          "duration": 0.09375,
          "durationTicks": 96,
          "midi": 74,
          "name": "D5",
          "ticks": 163968,
          "time": 160.125,
          "velocity": 0.3937007874015748
        },
        {
          "duration": 0.09375,
          "durationTicks": 96,
          "midi": 74,
          "name": "D5",
          "ticks": 164064,
          "time": 160.21875,
          "velocity": 0.3937007874015748
        },
        {
          "duration": 0.09375,
          "durationTicks": 96,
          "midi": 61,
          "name": "C#4",
          "ticks": 164352,
          "time": 160.5,
          "velocity": 0.3937007874015748
        },
        {
          "duration": 0.09375,
          "durationTicks": 96,
          "midi": 73,
          "name": "C#5",
          "ticks": 164352,
          "time": 160.5,
          "velocity": 0.3937007874015748
        },
        {
          "duration": 0.09375,
          "durationTicks": 96,
          "midi": 73,
          "name": "C#5",
          "ticks": 164448,
          "time": 160.59375,
          "velocity": 0.3937007874015748
        },
        {
          "duration": 0.09375,
          "durationTicks": 96,
          "midi": 61,
          "name": "C#4",
          "ticks": 164448,
          "time": 160.59375,
          "velocity": 0.3937007874015748
        },
        {
          "duration": 0.09375,
          "durationTicks": 96,
          "midi": 73,
          "name": "C#5",
          "ticks": 164544,
          "time": 160.6875,
          "velocity": 0.3937007874015748
        },
        {
          "duration": 0.09375,
          "durationTicks": 96,
          "midi": 61,
          "name": "C#4",
          "ticks": 164544,
          "time": 160.6875,
          "velocity": 0.3937007874015748
        },
        {
          "duration": 0.09375,
          "durationTicks": 96,
          "midi": 61,
          "name": "C#4",
          "ticks": 164640,
          "time": 160.78125,
          "velocity": 0.3937007874015748
        },
        {
          "duration": 0.09375,
          "durationTicks": 96,
          "midi": 73,
          "name": "C#5",
          "ticks": 164640,
          "time": 160.78125,
          "velocity": 0.3937007874015748
        },
        {
          "duration": 0.09375,
          "durationTicks": 96,
          "midi": 73,
          "name": "C#5",
          "ticks": 164736,
          "time": 160.875,
          "velocity": 0.3937007874015748
        },
        {
          "duration": 0.09375,
          "durationTicks": 96,
          "midi": 61,
          "name": "C#4",
          "ticks": 164736,
          "time": 160.875,
          "velocity": 0.3937007874015748
        },
        {
          "duration": 0.09375,
          "durationTicks": 96,
          "midi": 73,
          "name": "C#5",
          "ticks": 164832,
          "time": 160.96875,
          "velocity": 0.3937007874015748
        },
        {
          "duration": 0.09375,
          "durationTicks": 96,
          "midi": 61,
          "name": "C#4",
          "ticks": 164832,
          "time": 160.96875,
          "velocity": 0.3937007874015748
        },
        {
          "duration": 0.09375,
          "durationTicks": 96,
          "midi": 73,
          "name": "C#5",
          "ticks": 164928,
          "time": 161.0625,
          "velocity": 0.3937007874015748
        },
        {
          "duration": 0.09375,
          "durationTicks": 96,
          "midi": 61,
          "name": "C#4",
          "ticks": 164928,
          "time": 161.0625,
          "velocity": 0.3937007874015748
        },
        {
          "duration": 0.09375,
          "durationTicks": 96,
          "midi": 61,
          "name": "C#4",
          "ticks": 165024,
          "time": 161.15625,
          "velocity": 0.3937007874015748
        },
        {
          "duration": 0.09375,
          "durationTicks": 96,
          "midi": 73,
          "name": "C#5",
          "ticks": 165024,
          "time": 161.15625,
          "velocity": 0.3937007874015748
        },
        {
          "duration": 0.09375,
          "durationTicks": 96,
          "midi": 73,
          "name": "C#5",
          "ticks": 165120,
          "time": 161.25,
          "velocity": 0.3937007874015748
        },
        {
          "duration": 0.09375,
          "durationTicks": 96,
          "midi": 61,
          "name": "C#4",
          "ticks": 165120,
          "time": 161.25,
          "velocity": 0.3937007874015748
        },
        {
          "duration": 0.09375,
          "durationTicks": 96,
          "midi": 73,
          "name": "C#5",
          "ticks": 165216,
          "time": 161.34375,
          "velocity": 0.3937007874015748
        },
        {
          "duration": 0.09375,
          "durationTicks": 96,
          "midi": 61,
          "name": "C#4",
          "ticks": 165216,
          "time": 161.34375,
          "velocity": 0.3937007874015748
        },
        {
          "duration": 0.09375,
          "durationTicks": 96,
          "midi": 73,
          "name": "C#5",
          "ticks": 165312,
          "time": 161.4375,
          "velocity": 0.3937007874015748
        },
        {
          "duration": 0.09375,
          "durationTicks": 96,
          "midi": 61,
          "name": "C#4",
          "ticks": 165312,
          "time": 161.4375,
          "velocity": 0.3937007874015748
        },
        {
          "duration": 0.09375,
          "durationTicks": 96,
          "midi": 73,
          "name": "C#5",
          "ticks": 165408,
          "time": 161.53125,
          "velocity": 0.3937007874015748
        },
        {
          "duration": 0.09375,
          "durationTicks": 96,
          "midi": 73,
          "name": "C#5",
          "ticks": 165504,
          "time": 161.625,
          "velocity": 0.3937007874015748
        },
        {
          "duration": 0.09375,
          "durationTicks": 96,
          "midi": 73,
          "name": "C#5",
          "ticks": 165600,
          "time": 161.71875,
          "velocity": 0.3937007874015748
        },
        {
          "duration": 0.09375,
          "durationTicks": 96,
          "midi": 64,
          "name": "E4",
          "ticks": 170496,
          "time": 166.5,
          "velocity": 0.3937007874015748
        },
        {
          "duration": 0.09375,
          "durationTicks": 96,
          "midi": 76,
          "name": "E5",
          "ticks": 170496,
          "time": 166.5,
          "velocity": 0.3937007874015748
        },
        {
          "duration": 0.09375,
          "durationTicks": 96,
          "midi": 76,
          "name": "E5",
          "ticks": 170592,
          "time": 166.59375,
          "velocity": 0.3937007874015748
        },
        {
          "duration": 0.09375,
          "durationTicks": 96,
          "midi": 64,
          "name": "E4",
          "ticks": 170592,
          "time": 166.59375,
          "velocity": 0.3937007874015748
        },
        {
          "duration": 0.09375,
          "durationTicks": 96,
          "midi": 64,
          "name": "E4",
          "ticks": 170688,
          "time": 166.6875,
          "velocity": 0.3937007874015748
        },
        {
          "duration": 0.09375,
          "durationTicks": 96,
          "midi": 76,
          "name": "E5",
          "ticks": 170688,
          "time": 166.6875,
          "velocity": 0.3937007874015748
        },
        {
          "duration": 0.09375,
          "durationTicks": 96,
          "midi": 76,
          "name": "E5",
          "ticks": 170784,
          "time": 166.78125,
          "velocity": 0.3937007874015748
        },
        {
          "duration": 0.09375,
          "durationTicks": 96,
          "midi": 64,
          "name": "E4",
          "ticks": 170784,
          "time": 166.78125,
          "velocity": 0.3937007874015748
        },
        {
          "duration": 0.09375,
          "durationTicks": 96,
          "midi": 63,
          "name": "D#4",
          "ticks": 171072,
          "time": 167.0625,
          "velocity": 0.3937007874015748
        },
        {
          "duration": 0.09375,
          "durationTicks": 96,
          "midi": 75,
          "name": "D#5",
          "ticks": 171072,
          "time": 167.0625,
          "velocity": 0.3937007874015748
        },
        {
          "duration": 0.09375,
          "durationTicks": 96,
          "midi": 75,
          "name": "D#5",
          "ticks": 171168,
          "time": 167.15625,
          "velocity": 0.3937007874015748
        },
        {
          "duration": 0.09375,
          "durationTicks": 96,
          "midi": 63,
          "name": "D#4",
          "ticks": 171168,
          "time": 167.15625,
          "velocity": 0.3937007874015748
        },
        {
          "duration": 0.09375,
          "durationTicks": 96,
          "midi": 75,
          "name": "D#5",
          "ticks": 171264,
          "time": 167.25,
          "velocity": 0.3937007874015748
        },
        {
          "duration": 0.09375,
          "durationTicks": 96,
          "midi": 63,
          "name": "D#4",
          "ticks": 171264,
          "time": 167.25,
          "velocity": 0.3937007874015748
        },
        {
          "duration": 0.09375,
          "durationTicks": 96,
          "midi": 63,
          "name": "D#4",
          "ticks": 171360,
          "time": 167.34375,
          "velocity": 0.3937007874015748
        },
        {
          "duration": 0.09375,
          "durationTicks": 96,
          "midi": 75,
          "name": "D#5",
          "ticks": 171360,
          "time": 167.34375,
          "velocity": 0.3937007874015748
        },
        {
          "duration": 0.09375,
          "durationTicks": 96,
          "midi": 64,
          "name": "E4",
          "ticks": 172032,
          "time": 168,
          "velocity": 0.3937007874015748
        },
        {
          "duration": 0.09375,
          "durationTicks": 96,
          "midi": 76,
          "name": "E5",
          "ticks": 172032,
          "time": 168,
          "velocity": 0.3937007874015748
        },
        {
          "duration": 0.09375,
          "durationTicks": 96,
          "midi": 76,
          "name": "E5",
          "ticks": 172128,
          "time": 168.09375,
          "velocity": 0.3937007874015748
        },
        {
          "duration": 0.09375,
          "durationTicks": 96,
          "midi": 64,
          "name": "E4",
          "ticks": 172128,
          "time": 168.09375,
          "velocity": 0.3937007874015748
        },
        {
          "duration": 0.09375,
          "durationTicks": 96,
          "midi": 76,
          "name": "E5",
          "ticks": 172224,
          "time": 168.1875,
          "velocity": 0.3937007874015748
        },
        {
          "duration": 0.09375,
          "durationTicks": 96,
          "midi": 64,
          "name": "E4",
          "ticks": 172224,
          "time": 168.1875,
          "velocity": 0.3937007874015748
        },
        {
          "duration": 0.09375,
          "durationTicks": 96,
          "midi": 76,
          "name": "E5",
          "ticks": 172320,
          "time": 168.28125,
          "velocity": 0.3937007874015748
        },
        {
          "duration": 0.09375,
          "durationTicks": 96,
          "midi": 64,
          "name": "E4",
          "ticks": 172320,
          "time": 168.28125,
          "velocity": 0.3937007874015748
        },
        {
          "duration": 0.09375,
          "durationTicks": 96,
          "midi": 59,
          "name": "B3",
          "ticks": 172608,
          "time": 168.5625,
          "velocity": 0.3937007874015748
        },
        {
          "duration": 0.09375,
          "durationTicks": 96,
          "midi": 71,
          "name": "B4",
          "ticks": 172608,
          "time": 168.5625,
          "velocity": 0.3937007874015748
        },
        {
          "duration": 0.09375,
          "durationTicks": 96,
          "midi": 71,
          "name": "B4",
          "ticks": 172704,
          "time": 168.65625,
          "velocity": 0.3937007874015748
        },
        {
          "duration": 0.09375,
          "durationTicks": 96,
          "midi": 59,
          "name": "B3",
          "ticks": 172704,
          "time": 168.65625,
          "velocity": 0.3937007874015748
        },
        {
          "duration": 0.09375,
          "durationTicks": 96,
          "midi": 71,
          "name": "B4",
          "ticks": 172800,
          "time": 168.75,
          "velocity": 0.3937007874015748
        },
        {
          "duration": 0.09375,
          "durationTicks": 96,
          "midi": 59,
          "name": "B3",
          "ticks": 172800,
          "time": 168.75,
          "velocity": 0.3937007874015748
        },
        {
          "duration": 0.09375,
          "durationTicks": 96,
          "midi": 59,
          "name": "B3",
          "ticks": 172896,
          "time": 168.84375,
          "velocity": 0.3937007874015748
        },
        {
          "duration": 0.09375,
          "durationTicks": 96,
          "midi": 71,
          "name": "B4",
          "ticks": 172896,
          "time": 168.84375,
          "velocity": 0.3937007874015748
        },
        {
          "duration": 0.09375,
          "durationTicks": 96,
          "midi": 76,
          "name": "E5",
          "ticks": 173184,
          "time": 169.125,
          "velocity": 0.3937007874015748
        },
        {
          "duration": 0.09375,
          "durationTicks": 96,
          "midi": 64,
          "name": "E4",
          "ticks": 173184,
          "time": 169.125,
          "velocity": 0.3937007874015748
        },
        {
          "duration": 0.09375,
          "durationTicks": 96,
          "midi": 64,
          "name": "E4",
          "ticks": 173280,
          "time": 169.21875,
          "velocity": 0.3937007874015748
        },
        {
          "duration": 0.09375,
          "durationTicks": 96,
          "midi": 76,
          "name": "E5",
          "ticks": 173280,
          "time": 169.21875,
          "velocity": 0.3937007874015748
        },
        {
          "duration": 0.09375,
          "durationTicks": 96,
          "midi": 76,
          "name": "E5",
          "ticks": 173376,
          "time": 169.3125,
          "velocity": 0.3937007874015748
        },
        {
          "duration": 0.09375,
          "durationTicks": 96,
          "midi": 64,
          "name": "E4",
          "ticks": 173376,
          "time": 169.3125,
          "velocity": 0.3937007874015748
        },
        {
          "duration": 0.09375,
          "durationTicks": 96,
          "midi": 75,
          "name": "D#5",
          "ticks": 173568,
          "time": 169.5,
          "velocity": 0.3937007874015748
        },
        {
          "duration": 0.09375,
          "durationTicks": 96,
          "midi": 63,
          "name": "D#4",
          "ticks": 173568,
          "time": 169.5,
          "velocity": 0.3937007874015748
        },
        {
          "duration": 0.09375,
          "durationTicks": 96,
          "midi": 63,
          "name": "D#4",
          "ticks": 173664,
          "time": 169.59375,
          "velocity": 0.3937007874015748
        },
        {
          "duration": 0.09375,
          "durationTicks": 96,
          "midi": 75,
          "name": "D#5",
          "ticks": 173664,
          "time": 169.59375,
          "velocity": 0.3937007874015748
        },
        {
          "duration": 0.09375,
          "durationTicks": 96,
          "midi": 75,
          "name": "D#5",
          "ticks": 173760,
          "time": 169.6875,
          "velocity": 0.3937007874015748
        },
        {
          "duration": 0.09375,
          "durationTicks": 96,
          "midi": 63,
          "name": "D#4",
          "ticks": 173760,
          "time": 169.6875,
          "velocity": 0.3937007874015748
        },
        {
          "duration": 0.09375,
          "durationTicks": 96,
          "midi": 75,
          "name": "D#5",
          "ticks": 173856,
          "time": 169.78125,
          "velocity": 0.3937007874015748
        },
        {
          "duration": 0.09375,
          "durationTicks": 96,
          "midi": 63,
          "name": "D#4",
          "ticks": 173856,
          "time": 169.78125,
          "velocity": 0.3937007874015748
        },
        {
          "duration": 0.09375,
          "durationTicks": 96,
          "midi": 59,
          "name": "B3",
          "ticks": 174144,
          "time": 170.0625,
          "velocity": 0.3937007874015748
        },
        {
          "duration": 0.09375,
          "durationTicks": 96,
          "midi": 71,
          "name": "B4",
          "ticks": 174144,
          "time": 170.0625,
          "velocity": 0.3937007874015748
        },
        {
          "duration": 0.09375,
          "durationTicks": 96,
          "midi": 71,
          "name": "B4",
          "ticks": 174240,
          "time": 170.15625,
          "velocity": 0.3937007874015748
        },
        {
          "duration": 0.09375,
          "durationTicks": 96,
          "midi": 59,
          "name": "B3",
          "ticks": 174240,
          "time": 170.15625,
          "velocity": 0.3937007874015748
        },
        {
          "duration": 0.09375,
          "durationTicks": 96,
          "midi": 59,
          "name": "B3",
          "ticks": 174336,
          "time": 170.25,
          "velocity": 0.3937007874015748
        },
        {
          "duration": 0.09375,
          "durationTicks": 96,
          "midi": 71,
          "name": "B4",
          "ticks": 174336,
          "time": 170.25,
          "velocity": 0.3937007874015748
        },
        {
          "duration": 0.09375,
          "durationTicks": 96,
          "midi": 59,
          "name": "B3",
          "ticks": 174432,
          "time": 170.34375,
          "velocity": 0.3937007874015748
        },
        {
          "duration": 0.09375,
          "durationTicks": 96,
          "midi": 71,
          "name": "B4",
          "ticks": 174432,
          "time": 170.34375,
          "velocity": 0.3937007874015748
        },
        {
          "duration": 0.09375,
          "durationTicks": 96,
          "midi": 71,
          "name": "B4",
          "ticks": 174528,
          "time": 170.4375,
          "velocity": 0.3937007874015748
        },
        {
          "duration": 0.09375,
          "durationTicks": 96,
          "midi": 59,
          "name": "B3",
          "ticks": 174528,
          "time": 170.4375,
          "velocity": 0.3937007874015748
        },
        {
          "duration": 0.09375,
          "durationTicks": 96,
          "midi": 71,
          "name": "B4",
          "ticks": 174624,
          "time": 170.53125,
          "velocity": 0.3937007874015748
        },
        {
          "duration": 0.09375,
          "durationTicks": 96,
          "midi": 59,
          "name": "B3",
          "ticks": 174624,
          "time": 170.53125,
          "velocity": 0.3937007874015748
        },
        {
          "duration": 0.09375,
          "durationTicks": 96,
          "midi": 74,
          "name": "D5",
          "ticks": 175104,
          "time": 171,
          "velocity": 0.3937007874015748
        },
        {
          "duration": 0.09375,
          "durationTicks": 96,
          "midi": 62,
          "name": "D4",
          "ticks": 175104,
          "time": 171,
          "velocity": 0.3937007874015748
        },
        {
          "duration": 0.09375,
          "durationTicks": 96,
          "midi": 74,
          "name": "D5",
          "ticks": 175200,
          "time": 171.09375,
          "velocity": 0.3937007874015748
        },
        {
          "duration": 0.09375,
          "durationTicks": 96,
          "midi": 62,
          "name": "D4",
          "ticks": 175200,
          "time": 171.09375,
          "velocity": 0.3937007874015748
        },
        {
          "duration": 0.09375,
          "durationTicks": 96,
          "midi": 74,
          "name": "D5",
          "ticks": 175296,
          "time": 171.1875,
          "velocity": 0.3937007874015748
        },
        {
          "duration": 0.09375,
          "durationTicks": 96,
          "midi": 62,
          "name": "D4",
          "ticks": 175296,
          "time": 171.1875,
          "velocity": 0.3937007874015748
        },
        {
          "duration": 0.09375,
          "durationTicks": 96,
          "midi": 62,
          "name": "D4",
          "ticks": 175392,
          "time": 171.28125,
          "velocity": 0.3937007874015748
        },
        {
          "duration": 0.09375,
          "durationTicks": 96,
          "midi": 74,
          "name": "D5",
          "ticks": 175392,
          "time": 171.28125,
          "velocity": 0.3937007874015748
        },
        {
          "duration": 0.09375,
          "durationTicks": 96,
          "midi": 74,
          "name": "D5",
          "ticks": 175488,
          "time": 171.375,
          "velocity": 0.3937007874015748
        },
        {
          "duration": 0.09375,
          "durationTicks": 96,
          "midi": 62,
          "name": "D4",
          "ticks": 175488,
          "time": 171.375,
          "velocity": 0.3937007874015748
        },
        {
          "duration": 0.09375,
          "durationTicks": 96,
          "midi": 62,
          "name": "D4",
          "ticks": 175584,
          "time": 171.46875,
          "velocity": 0.3937007874015748
        },
        {
          "duration": 0.09375,
          "durationTicks": 96,
          "midi": 74,
          "name": "D5",
          "ticks": 175584,
          "time": 171.46875,
          "velocity": 0.3937007874015748
        },
        {
          "duration": 0.09375,
          "durationTicks": 96,
          "midi": 74,
          "name": "D5",
          "ticks": 175680,
          "time": 171.5625,
          "velocity": 0.3937007874015748
        },
        {
          "duration": 0.09375,
          "durationTicks": 96,
          "midi": 62,
          "name": "D4",
          "ticks": 175680,
          "time": 171.5625,
          "velocity": 0.3937007874015748
        },
        {
          "duration": 0.09375,
          "durationTicks": 96,
          "midi": 62,
          "name": "D4",
          "ticks": 175776,
          "time": 171.65625,
          "velocity": 0.3937007874015748
        },
        {
          "duration": 0.09375,
          "durationTicks": 96,
          "midi": 74,
          "name": "D5",
          "ticks": 175776,
          "time": 171.65625,
          "velocity": 0.3937007874015748
        },
        {
          "duration": 0.09375,
          "durationTicks": 96,
          "midi": 74,
          "name": "D5",
          "ticks": 175872,
          "time": 171.75,
          "velocity": 0.3937007874015748
        },
        {
          "duration": 0.09375,
          "durationTicks": 96,
          "midi": 62,
          "name": "D4",
          "ticks": 175872,
          "time": 171.75,
          "velocity": 0.3937007874015748
        },
        {
          "duration": 0.09375,
          "durationTicks": 96,
          "midi": 74,
          "name": "D5",
          "ticks": 175968,
          "time": 171.84375,
          "velocity": 0.3937007874015748
        },
        {
          "duration": 0.09375,
          "durationTicks": 96,
          "midi": 62,
          "name": "D4",
          "ticks": 175968,
          "time": 171.84375,
          "velocity": 0.3937007874015748
        },
        {
          "duration": 0.09375,
          "durationTicks": 96,
          "midi": 62,
          "name": "D4",
          "ticks": 176064,
          "time": 171.9375,
          "velocity": 0.3937007874015748
        },
        {
          "duration": 0.09375,
          "durationTicks": 96,
          "midi": 74,
          "name": "D5",
          "ticks": 176064,
          "time": 171.9375,
          "velocity": 0.3937007874015748
        },
        {
          "duration": 0.09375,
          "durationTicks": 96,
          "midi": 61,
          "name": "C#4",
          "ticks": 176640,
          "time": 172.5,
          "velocity": 0.3937007874015748
        },
        {
          "duration": 0.09375,
          "durationTicks": 96,
          "midi": 61,
          "name": "C#4",
          "ticks": 176736,
          "time": 172.59375,
          "velocity": 0.3937007874015748
        },
        {
          "duration": 0.09375,
          "durationTicks": 96,
          "midi": 61,
          "name": "C#4",
          "ticks": 176832,
          "time": 172.6875,
          "velocity": 0.3937007874015748
        },
        {
          "duration": 0.09375,
          "durationTicks": 96,
          "midi": 61,
          "name": "C#4",
          "ticks": 176928,
          "time": 172.78125,
          "velocity": 0.3937007874015748
        },
        {
          "duration": 0.09375,
          "durationTicks": 96,
          "midi": 61,
          "name": "C#4",
          "ticks": 177024,
          "time": 172.875,
          "velocity": 0.3937007874015748
        },
        {
          "duration": 0.09375,
          "durationTicks": 96,
          "midi": 61,
          "name": "C#4",
          "ticks": 177120,
          "time": 172.96875,
          "velocity": 0.3937007874015748
        },
        {
          "duration": 0.09375,
          "durationTicks": 96,
          "midi": 61,
          "name": "C#4",
          "ticks": 177216,
          "time": 173.0625,
          "velocity": 0.3937007874015748
        },
        {
          "duration": 0.09375,
          "durationTicks": 96,
          "midi": 61,
          "name": "C#4",
          "ticks": 177312,
          "time": 173.15625,
          "velocity": 0.3937007874015748
        },
        {
          "duration": 0.09375,
          "durationTicks": 96,
          "midi": 61,
          "name": "C#4",
          "ticks": 177408,
          "time": 173.25,
          "velocity": 0.3937007874015748
        },
        {
          "duration": 0.09375,
          "durationTicks": 96,
          "midi": 61,
          "name": "C#4",
          "ticks": 177504,
          "time": 173.34375,
          "velocity": 0.3937007874015748
        },
        {
          "duration": 0.09375,
          "durationTicks": 96,
          "midi": 61,
          "name": "C#4",
          "ticks": 177600,
          "time": 173.4375,
          "velocity": 0.3937007874015748
        },
        {
          "duration": 0.09375,
          "durationTicks": 96,
          "midi": 65,
          "name": "F4",
          "ticks": 193536,
          "time": 189,
          "velocity": 0.3937007874015748
        },
        {
          "duration": 0.09375,
          "durationTicks": 96,
          "midi": 77,
          "name": "F5",
          "ticks": 193536,
          "time": 189,
          "velocity": 0.3937007874015748
        },
        {
          "duration": 0.09375,
          "durationTicks": 96,
          "midi": 65,
          "name": "F4",
          "ticks": 193632,
          "time": 189.09375,
          "velocity": 0.3937007874015748
        },
        {
          "duration": 0.09375,
          "durationTicks": 96,
          "midi": 77,
          "name": "F5",
          "ticks": 193632,
          "time": 189.09375,
          "velocity": 0.3937007874015748
        },
        {
          "duration": 0.09375,
          "durationTicks": 96,
          "midi": 77,
          "name": "F5",
          "ticks": 193728,
          "time": 189.1875,
          "velocity": 0.3937007874015748
        },
        {
          "duration": 0.09375,
          "durationTicks": 96,
          "midi": 65,
          "name": "F4",
          "ticks": 193728,
          "time": 189.1875,
          "velocity": 0.3937007874015748
        },
        {
          "duration": 0.09375,
          "durationTicks": 96,
          "midi": 65,
          "name": "F4",
          "ticks": 193824,
          "time": 189.28125,
          "velocity": 0.3937007874015748
        },
        {
          "duration": 0.09375,
          "durationTicks": 96,
          "midi": 77,
          "name": "F5",
          "ticks": 193824,
          "time": 189.28125,
          "velocity": 0.3937007874015748
        },
        {
          "duration": 0.09375,
          "durationTicks": 96,
          "midi": 60,
          "name": "C4",
          "ticks": 194112,
          "time": 189.5625,
          "velocity": 0.3937007874015748
        },
        {
          "duration": 0.09375,
          "durationTicks": 96,
          "midi": 72,
          "name": "C5",
          "ticks": 194112,
          "time": 189.5625,
          "velocity": 0.3937007874015748
        },
        {
          "duration": 0.09375,
          "durationTicks": 96,
          "midi": 60,
          "name": "C4",
          "ticks": 194208,
          "time": 189.65625,
          "velocity": 0.3937007874015748
        },
        {
          "duration": 0.09375,
          "durationTicks": 96,
          "midi": 72,
          "name": "C5",
          "ticks": 194208,
          "time": 189.65625,
          "velocity": 0.3937007874015748
        },
        {
          "duration": 0.09375,
          "durationTicks": 96,
          "midi": 60,
          "name": "C4",
          "ticks": 194304,
          "time": 189.75,
          "velocity": 0.3937007874015748
        },
        {
          "duration": 0.09375,
          "durationTicks": 96,
          "midi": 72,
          "name": "C5",
          "ticks": 194304,
          "time": 189.75,
          "velocity": 0.3937007874015748
        },
        {
          "duration": 0.09375,
          "durationTicks": 96,
          "midi": 72,
          "name": "C5",
          "ticks": 194400,
          "time": 189.84375,
          "velocity": 0.3937007874015748
        },
        {
          "duration": 0.09375,
          "durationTicks": 96,
          "midi": 60,
          "name": "C4",
          "ticks": 194400,
          "time": 189.84375,
          "velocity": 0.3937007874015748
        },
        {
          "duration": 0.09375,
          "durationTicks": 96,
          "midi": 77,
          "name": "F5",
          "ticks": 194688,
          "time": 190.125,
          "velocity": 0.3937007874015748
        },
        {
          "duration": 0.09375,
          "durationTicks": 96,
          "midi": 65,
          "name": "F4",
          "ticks": 194688,
          "time": 190.125,
          "velocity": 0.3937007874015748
        },
        {
          "duration": 0.09375,
          "durationTicks": 96,
          "midi": 77,
          "name": "F5",
          "ticks": 194784,
          "time": 190.21875,
          "velocity": 0.3937007874015748
        },
        {
          "duration": 0.09375,
          "durationTicks": 96,
          "midi": 65,
          "name": "F4",
          "ticks": 194784,
          "time": 190.21875,
          "velocity": 0.3937007874015748
        },
        {
          "duration": 0.09375,
          "durationTicks": 96,
          "midi": 77,
          "name": "F5",
          "ticks": 194880,
          "time": 190.3125,
          "velocity": 0.3937007874015748
        },
        {
          "duration": 0.09375,
          "durationTicks": 96,
          "midi": 65,
          "name": "F4",
          "ticks": 194880,
          "time": 190.3125,
          "velocity": 0.3937007874015748
        },
        {
          "duration": 0.09375,
          "durationTicks": 96,
          "midi": 64,
          "name": "E4",
          "ticks": 195072,
          "time": 190.5,
          "velocity": 0.3937007874015748
        },
        {
          "duration": 0.09375,
          "durationTicks": 96,
          "midi": 76,
          "name": "E5",
          "ticks": 195072,
          "time": 190.5,
          "velocity": 0.3937007874015748
        },
        {
          "duration": 0.09375,
          "durationTicks": 96,
          "midi": 64,
          "name": "E4",
          "ticks": 195168,
          "time": 190.59375,
          "velocity": 0.3937007874015748
        },
        {
          "duration": 0.09375,
          "durationTicks": 96,
          "midi": 76,
          "name": "E5",
          "ticks": 195168,
          "time": 190.59375,
          "velocity": 0.3937007874015748
        },
        {
          "duration": 0.09375,
          "durationTicks": 96,
          "midi": 76,
          "name": "E5",
          "ticks": 195264,
          "time": 190.6875,
          "velocity": 0.3937007874015748
        },
        {
          "duration": 0.09375,
          "durationTicks": 96,
          "midi": 64,
          "name": "E4",
          "ticks": 195264,
          "time": 190.6875,
          "velocity": 0.3937007874015748
        },
        {
          "duration": 0.09375,
          "durationTicks": 96,
          "midi": 76,
          "name": "E5",
          "ticks": 195360,
          "time": 190.78125,
          "velocity": 0.3937007874015748
        },
        {
          "duration": 0.09375,
          "durationTicks": 96,
          "midi": 64,
          "name": "E4",
          "ticks": 195360,
          "time": 190.78125,
          "velocity": 0.3937007874015748
        },
        {
          "duration": 0.09375,
          "durationTicks": 96,
          "midi": 72,
          "name": "C5",
          "ticks": 195648,
          "time": 191.0625,
          "velocity": 0.3937007874015748
        },
        {
          "duration": 0.09375,
          "durationTicks": 96,
          "midi": 60,
          "name": "C4",
          "ticks": 195648,
          "time": 191.0625,
          "velocity": 0.3937007874015748
        },
        {
          "duration": 0.09375,
          "durationTicks": 96,
          "midi": 60,
          "name": "C4",
          "ticks": 195744,
          "time": 191.15625,
          "velocity": 0.3937007874015748
        },
        {
          "duration": 0.09375,
          "durationTicks": 96,
          "midi": 72,
          "name": "C5",
          "ticks": 195744,
          "time": 191.15625,
          "velocity": 0.3937007874015748
        },
        {
          "duration": 0.09375,
          "durationTicks": 96,
          "midi": 72,
          "name": "C5",
          "ticks": 195840,
          "time": 191.25,
          "velocity": 0.3937007874015748
        },
        {
          "duration": 0.09375,
          "durationTicks": 96,
          "midi": 60,
          "name": "C4",
          "ticks": 195840,
          "time": 191.25,
          "velocity": 0.3937007874015748
        },
        {
          "duration": 0.09375,
          "durationTicks": 96,
          "midi": 60,
          "name": "C4",
          "ticks": 195936,
          "time": 191.34375,
          "velocity": 0.3937007874015748
        },
        {
          "duration": 0.09375,
          "durationTicks": 96,
          "midi": 72,
          "name": "C5",
          "ticks": 195936,
          "time": 191.34375,
          "velocity": 0.3937007874015748
        },
        {
          "duration": 0.09375,
          "durationTicks": 96,
          "midi": 72,
          "name": "C5",
          "ticks": 196032,
          "time": 191.4375,
          "velocity": 0.3937007874015748
        },
        {
          "duration": 0.09375,
          "durationTicks": 96,
          "midi": 60,
          "name": "C4",
          "ticks": 196032,
          "time": 191.4375,
          "velocity": 0.3937007874015748
        },
        {
          "duration": 0.09375,
          "durationTicks": 96,
          "midi": 60,
          "name": "C4",
          "ticks": 196128,
          "time": 191.53125,
          "velocity": 0.3937007874015748
        },
        {
          "duration": 0.09375,
          "durationTicks": 96,
          "midi": 72,
          "name": "C5",
          "ticks": 196128,
          "time": 191.53125,
          "velocity": 0.3937007874015748
        },
        {
          "duration": 0.09375,
          "durationTicks": 96,
          "midi": 75,
          "name": "D#5",
          "ticks": 196608,
          "time": 192,
          "velocity": 0.3937007874015748
        },
        {
          "duration": 0.09375,
          "durationTicks": 96,
          "midi": 63,
          "name": "D#4",
          "ticks": 196608,
          "time": 192,
          "velocity": 0.3937007874015748
        },
        {
          "duration": 0.09375,
          "durationTicks": 96,
          "midi": 63,
          "name": "D#4",
          "ticks": 196704,
          "time": 192.09375,
          "velocity": 0.3937007874015748
        },
        {
          "duration": 0.09375,
          "durationTicks": 96,
          "midi": 75,
          "name": "D#5",
          "ticks": 196704,
          "time": 192.09375,
          "velocity": 0.3937007874015748
        },
        {
          "duration": 0.09375,
          "durationTicks": 96,
          "midi": 75,
          "name": "D#5",
          "ticks": 196800,
          "time": 192.1875,
          "velocity": 0.3937007874015748
        },
        {
          "duration": 0.09375,
          "durationTicks": 96,
          "midi": 63,
          "name": "D#4",
          "ticks": 196800,
          "time": 192.1875,
          "velocity": 0.3937007874015748
        },
        {
          "duration": 0.09375,
          "durationTicks": 96,
          "midi": 63,
          "name": "D#4",
          "ticks": 196896,
          "time": 192.28125,
          "velocity": 0.3937007874015748
        },
        {
          "duration": 0.09375,
          "durationTicks": 96,
          "midi": 75,
          "name": "D#5",
          "ticks": 196896,
          "time": 192.28125,
          "velocity": 0.3937007874015748
        },
        {
          "duration": 0.09375,
          "durationTicks": 96,
          "midi": 63,
          "name": "D#4",
          "ticks": 196992,
          "time": 192.375,
          "velocity": 0.3937007874015748
        },
        {
          "duration": 0.09375,
          "durationTicks": 96,
          "midi": 75,
          "name": "D#5",
          "ticks": 196992,
          "time": 192.375,
          "velocity": 0.3937007874015748
        },
        {
          "duration": 0.09375,
          "durationTicks": 96,
          "midi": 63,
          "name": "D#4",
          "ticks": 197088,
          "time": 192.46875,
          "velocity": 0.3937007874015748
        },
        {
          "duration": 0.09375,
          "durationTicks": 96,
          "midi": 75,
          "name": "D#5",
          "ticks": 197088,
          "time": 192.46875,
          "velocity": 0.3937007874015748
        },
        {
          "duration": 0.09375,
          "durationTicks": 96,
          "midi": 75,
          "name": "D#5",
          "ticks": 197184,
          "time": 192.5625,
          "velocity": 0.3937007874015748
        },
        {
          "duration": 0.09375,
          "durationTicks": 96,
          "midi": 63,
          "name": "D#4",
          "ticks": 197184,
          "time": 192.5625,
          "velocity": 0.3937007874015748
        },
        {
          "duration": 0.09375,
          "durationTicks": 96,
          "midi": 63,
          "name": "D#4",
          "ticks": 197280,
          "time": 192.65625,
          "velocity": 0.3937007874015748
        },
        {
          "duration": 0.09375,
          "durationTicks": 96,
          "midi": 75,
          "name": "D#5",
          "ticks": 197280,
          "time": 192.65625,
          "velocity": 0.3937007874015748
        },
        {
          "duration": 0.09375,
          "durationTicks": 96,
          "midi": 63,
          "name": "D#4",
          "ticks": 197376,
          "time": 192.75,
          "velocity": 0.3937007874015748
        },
        {
          "duration": 0.09375,
          "durationTicks": 96,
          "midi": 75,
          "name": "D#5",
          "ticks": 197376,
          "time": 192.75,
          "velocity": 0.3937007874015748
        },
        {
          "duration": 0.09375,
          "durationTicks": 96,
          "midi": 75,
          "name": "D#5",
          "ticks": 197472,
          "time": 192.84375,
          "velocity": 0.3937007874015748
        },
        {
          "duration": 0.09375,
          "durationTicks": 96,
          "midi": 63,
          "name": "D#4",
          "ticks": 197472,
          "time": 192.84375,
          "velocity": 0.3937007874015748
        },
        {
          "duration": 0.09375,
          "durationTicks": 96,
          "midi": 63,
          "name": "D#4",
          "ticks": 197568,
          "time": 192.9375,
          "velocity": 0.3937007874015748
        },
        {
          "duration": 0.09375,
          "durationTicks": 96,
          "midi": 75,
          "name": "D#5",
          "ticks": 197568,
          "time": 192.9375,
          "velocity": 0.3937007874015748
        },
        {
          "duration": 0.09375,
          "durationTicks": 96,
          "midi": 75,
          "name": "D#5",
          "ticks": 197664,
          "time": 193.03125,
          "velocity": 0.3937007874015748
        },
        {
          "duration": 0.09375,
          "durationTicks": 96,
          "midi": 75,
          "name": "D#5",
          "ticks": 197760,
          "time": 193.125,
          "velocity": 0.3937007874015748
        },
        {
          "duration": 0.09375,
          "durationTicks": 96,
          "midi": 75,
          "name": "D#5",
          "ticks": 197856,
          "time": 193.21875,
          "velocity": 0.3937007874015748
        },
        {
          "duration": 0.09375,
          "durationTicks": 96,
          "midi": 62,
          "name": "D4",
          "ticks": 198144,
          "time": 193.5,
          "velocity": 0.3937007874015748
        },
        {
          "duration": 0.09375,
          "durationTicks": 96,
          "midi": 74,
          "name": "D5",
          "ticks": 198144,
          "time": 193.5,
          "velocity": 0.3937007874015748
        },
        {
          "duration": 0.09375,
          "durationTicks": 96,
          "midi": 74,
          "name": "D5",
          "ticks": 198240,
          "time": 193.59375,
          "velocity": 0.3937007874015748
        },
        {
          "duration": 0.09375,
          "durationTicks": 96,
          "midi": 62,
          "name": "D4",
          "ticks": 198240,
          "time": 193.59375,
          "velocity": 0.3937007874015748
        },
        {
          "duration": 0.09375,
          "durationTicks": 96,
          "midi": 74,
          "name": "D5",
          "ticks": 198336,
          "time": 193.6875,
          "velocity": 0.3937007874015748
        },
        {
          "duration": 0.09375,
          "durationTicks": 96,
          "midi": 62,
          "name": "D4",
          "ticks": 198336,
          "time": 193.6875,
          "velocity": 0.3937007874015748
        },
        {
          "duration": 0.09375,
          "durationTicks": 96,
          "midi": 74,
          "name": "D5",
          "ticks": 198432,
          "time": 193.78125,
          "velocity": 0.3937007874015748
        },
        {
          "duration": 0.09375,
          "durationTicks": 96,
          "midi": 62,
          "name": "D4",
          "ticks": 198432,
          "time": 193.78125,
          "velocity": 0.3937007874015748
        },
        {
          "duration": 0.09375,
          "durationTicks": 96,
          "midi": 74,
          "name": "D5",
          "ticks": 198528,
          "time": 193.875,
          "velocity": 0.3937007874015748
        },
        {
          "duration": 0.09375,
          "durationTicks": 96,
          "midi": 62,
          "name": "D4",
          "ticks": 198528,
          "time": 193.875,
          "velocity": 0.3937007874015748
        },
        {
          "duration": 0.09375,
          "durationTicks": 96,
          "midi": 74,
          "name": "D5",
          "ticks": 198624,
          "time": 193.96875,
          "velocity": 0.3937007874015748
        },
        {
          "duration": 0.09375,
          "durationTicks": 96,
          "midi": 62,
          "name": "D4",
          "ticks": 198624,
          "time": 193.96875,
          "velocity": 0.3937007874015748
        },
        {
          "duration": 0.09375,
          "durationTicks": 96,
          "midi": 74,
          "name": "D5",
          "ticks": 198720,
          "time": 194.0625,
          "velocity": 0.3937007874015748
        },
        {
          "duration": 0.09375,
          "durationTicks": 96,
          "midi": 62,
          "name": "D4",
          "ticks": 198720,
          "time": 194.0625,
          "velocity": 0.3937007874015748
        },
        {
          "duration": 0.09375,
          "durationTicks": 96,
          "midi": 74,
          "name": "D5",
          "ticks": 198816,
          "time": 194.15625,
          "velocity": 0.3937007874015748
        },
        {
          "duration": 0.09375,
          "durationTicks": 96,
          "midi": 62,
          "name": "D4",
          "ticks": 198816,
          "time": 194.15625,
          "velocity": 0.3937007874015748
        },
        {
          "duration": 0.09375,
          "durationTicks": 96,
          "midi": 74,
          "name": "D5",
          "ticks": 198912,
          "time": 194.25,
          "velocity": 0.3937007874015748
        },
        {
          "duration": 0.09375,
          "durationTicks": 96,
          "midi": 62,
          "name": "D4",
          "ticks": 198912,
          "time": 194.25,
          "velocity": 0.3937007874015748
        },
        {
          "duration": 0.09375,
          "durationTicks": 96,
          "midi": 62,
          "name": "D4",
          "ticks": 199008,
          "time": 194.34375,
          "velocity": 0.3937007874015748
        },
        {
          "duration": 0.09375,
          "durationTicks": 96,
          "midi": 74,
          "name": "D5",
          "ticks": 199008,
          "time": 194.34375,
          "velocity": 0.3937007874015748
        },
        {
          "duration": 0.09375,
          "durationTicks": 96,
          "midi": 74,
          "name": "D5",
          "ticks": 199104,
          "time": 194.4375,
          "velocity": 0.3937007874015748
        },
        {
          "duration": 0.09375,
          "durationTicks": 96,
          "midi": 62,
          "name": "D4",
          "ticks": 199104,
          "time": 194.4375,
          "velocity": 0.3937007874015748
        },
        {
          "duration": 0.09375,
          "durationTicks": 96,
          "midi": 74,
          "name": "D5",
          "ticks": 199200,
          "time": 194.53125,
          "velocity": 0.3937007874015748
        },
        {
          "duration": 0.09375,
          "durationTicks": 96,
          "midi": 74,
          "name": "D5",
          "ticks": 199296,
          "time": 194.625,
          "velocity": 0.3937007874015748
        },
        {
          "duration": 0.09375,
          "durationTicks": 96,
          "midi": 74,
          "name": "D5",
          "ticks": 199392,
          "time": 194.71875,
          "velocity": 0.3937007874015748
        },
        {
          "duration": 0.09375,
          "durationTicks": 96,
          "midi": 65,
          "name": "F4",
          "ticks": 204288,
          "time": 199.5,
          "velocity": 0.3937007874015748
        },
        {
          "duration": 0.09375,
          "durationTicks": 96,
          "midi": 77,
          "name": "F5",
          "ticks": 204288,
          "time": 199.5,
          "velocity": 0.3937007874015748
        },
        {
          "duration": 0.09375,
          "durationTicks": 96,
          "midi": 77,
          "name": "F5",
          "ticks": 204384,
          "time": 199.59375,
          "velocity": 0.3937007874015748
        },
        {
          "duration": 0.09375,
          "durationTicks": 96,
          "midi": 65,
          "name": "F4",
          "ticks": 204384,
          "time": 199.59375,
          "velocity": 0.3937007874015748
        },
        {
          "duration": 0.09375,
          "durationTicks": 96,
          "midi": 65,
          "name": "F4",
          "ticks": 204480,
          "time": 199.6875,
          "velocity": 0.3937007874015748
        },
        {
          "duration": 0.09375,
          "durationTicks": 96,
          "midi": 77,
          "name": "F5",
          "ticks": 204480,
          "time": 199.6875,
          "velocity": 0.3937007874015748
        },
        {
          "duration": 0.09375,
          "durationTicks": 96,
          "midi": 65,
          "name": "F4",
          "ticks": 204576,
          "time": 199.78125,
          "velocity": 0.3937007874015748
        },
        {
          "duration": 0.09375,
          "durationTicks": 96,
          "midi": 77,
          "name": "F5",
          "ticks": 204576,
          "time": 199.78125,
          "velocity": 0.3937007874015748
        },
        {
          "duration": 0.09375,
          "durationTicks": 96,
          "midi": 76,
          "name": "E5",
          "ticks": 204864,
          "time": 200.0625,
          "velocity": 0.3937007874015748
        },
        {
          "duration": 0.09375,
          "durationTicks": 96,
          "midi": 64,
          "name": "E4",
          "ticks": 204864,
          "time": 200.0625,
          "velocity": 0.3937007874015748
        },
        {
          "duration": 0.09375,
          "durationTicks": 96,
          "midi": 76,
          "name": "E5",
          "ticks": 204960,
          "time": 200.15625,
          "velocity": 0.3937007874015748
        },
        {
          "duration": 0.09375,
          "durationTicks": 96,
          "midi": 64,
          "name": "E4",
          "ticks": 204960,
          "time": 200.15625,
          "velocity": 0.3937007874015748
        },
        {
          "duration": 0.09375,
          "durationTicks": 96,
          "midi": 76,
          "name": "E5",
          "ticks": 205056,
          "time": 200.25,
          "velocity": 0.3937007874015748
        },
        {
          "duration": 0.09375,
          "durationTicks": 96,
          "midi": 64,
          "name": "E4",
          "ticks": 205056,
          "time": 200.25,
          "velocity": 0.3937007874015748
        },
        {
          "duration": 0.09375,
          "durationTicks": 96,
          "midi": 76,
          "name": "E5",
          "ticks": 205152,
          "time": 200.34375,
          "velocity": 0.3937007874015748
        },
        {
          "duration": 0.09375,
          "durationTicks": 96,
          "midi": 64,
          "name": "E4",
          "ticks": 205152,
          "time": 200.34375,
          "velocity": 0.3937007874015748
        },
        {
          "duration": 0.09375,
          "durationTicks": 96,
          "midi": 65,
          "name": "F4",
          "ticks": 205824,
          "time": 201,
          "velocity": 0.3937007874015748
        },
        {
          "duration": 0.09375,
          "durationTicks": 96,
          "midi": 77,
          "name": "F5",
          "ticks": 205824,
          "time": 201,
          "velocity": 0.3937007874015748
        },
        {
          "duration": 0.09375,
          "durationTicks": 96,
          "midi": 77,
          "name": "F5",
          "ticks": 205920,
          "time": 201.09375,
          "velocity": 0.3937007874015748
        },
        {
          "duration": 0.09375,
          "durationTicks": 96,
          "midi": 65,
          "name": "F4",
          "ticks": 205920,
          "time": 201.09375,
          "velocity": 0.3937007874015748
        },
        {
          "duration": 0.09375,
          "durationTicks": 96,
          "midi": 77,
          "name": "F5",
          "ticks": 206016,
          "time": 201.1875,
          "velocity": 0.3937007874015748
        },
        {
          "duration": 0.09375,
          "durationTicks": 96,
          "midi": 65,
          "name": "F4",
          "ticks": 206016,
          "time": 201.1875,
          "velocity": 0.3937007874015748
        },
        {
          "duration": 0.09375,
          "durationTicks": 96,
          "midi": 77,
          "name": "F5",
          "ticks": 206112,
          "time": 201.28125,
          "velocity": 0.3937007874015748
        },
        {
          "duration": 0.09375,
          "durationTicks": 96,
          "midi": 65,
          "name": "F4",
          "ticks": 206112,
          "time": 201.28125,
          "velocity": 0.3937007874015748
        },
        {
          "duration": 0.09375,
          "durationTicks": 96,
          "midi": 60,
          "name": "C4",
          "ticks": 206400,
          "time": 201.5625,
          "velocity": 0.3937007874015748
        },
        {
          "duration": 0.09375,
          "durationTicks": 96,
          "midi": 72,
          "name": "C5",
          "ticks": 206400,
          "time": 201.5625,
          "velocity": 0.3937007874015748
        },
        {
          "duration": 0.09375,
          "durationTicks": 96,
          "midi": 60,
          "name": "C4",
          "ticks": 206496,
          "time": 201.65625,
          "velocity": 0.3937007874015748
        },
        {
          "duration": 0.09375,
          "durationTicks": 96,
          "midi": 72,
          "name": "C5",
          "ticks": 206496,
          "time": 201.65625,
          "velocity": 0.3937007874015748
        },
        {
          "duration": 0.09375,
          "durationTicks": 96,
          "midi": 72,
          "name": "C5",
          "ticks": 206592,
          "time": 201.75,
          "velocity": 0.3937007874015748
        },
        {
          "duration": 0.09375,
          "durationTicks": 96,
          "midi": 60,
          "name": "C4",
          "ticks": 206592,
          "time": 201.75,
          "velocity": 0.3937007874015748
        },
        {
          "duration": 0.09375,
          "durationTicks": 96,
          "midi": 60,
          "name": "C4",
          "ticks": 206688,
          "time": 201.84375,
          "velocity": 0.3937007874015748
        },
        {
          "duration": 0.09375,
          "durationTicks": 96,
          "midi": 72,
          "name": "C5",
          "ticks": 206688,
          "time": 201.84375,
          "velocity": 0.3937007874015748
        },
        {
          "duration": 0.09375,
          "durationTicks": 96,
          "midi": 77,
          "name": "F5",
          "ticks": 206976,
          "time": 202.125,
          "velocity": 0.3937007874015748
        },
        {
          "duration": 0.09375,
          "durationTicks": 96,
          "midi": 65,
          "name": "F4",
          "ticks": 206976,
          "time": 202.125,
          "velocity": 0.3937007874015748
        },
        {
          "duration": 0.09375,
          "durationTicks": 96,
          "midi": 77,
          "name": "F5",
          "ticks": 207072,
          "time": 202.21875,
          "velocity": 0.3937007874015748
        },
        {
          "duration": 0.09375,
          "durationTicks": 96,
          "midi": 65,
          "name": "F4",
          "ticks": 207072,
          "time": 202.21875,
          "velocity": 0.3937007874015748
        },
        {
          "duration": 0.09375,
          "durationTicks": 96,
          "midi": 77,
          "name": "F5",
          "ticks": 207168,
          "time": 202.3125,
          "velocity": 0.3937007874015748
        },
        {
          "duration": 0.09375,
          "durationTicks": 96,
          "midi": 65,
          "name": "F4",
          "ticks": 207168,
          "time": 202.3125,
          "velocity": 0.3937007874015748
        },
        {
          "duration": 0.09375,
          "durationTicks": 96,
          "midi": 64,
          "name": "E4",
          "ticks": 207360,
          "time": 202.5,
          "velocity": 0.3937007874015748
        },
        {
          "duration": 0.09375,
          "durationTicks": 96,
          "midi": 76,
          "name": "E5",
          "ticks": 207360,
          "time": 202.5,
          "velocity": 0.3937007874015748
        },
        {
          "duration": 0.09375,
          "durationTicks": 96,
          "midi": 76,
          "name": "E5",
          "ticks": 207456,
          "time": 202.59375,
          "velocity": 0.3937007874015748
        },
        {
          "duration": 0.09375,
          "durationTicks": 96,
          "midi": 64,
          "name": "E4",
          "ticks": 207456,
          "time": 202.59375,
          "velocity": 0.3937007874015748
        },
        {
          "duration": 0.09375,
          "durationTicks": 96,
          "midi": 64,
          "name": "E4",
          "ticks": 207552,
          "time": 202.6875,
          "velocity": 0.3937007874015748
        },
        {
          "duration": 0.09375,
          "durationTicks": 96,
          "midi": 76,
          "name": "E5",
          "ticks": 207552,
          "time": 202.6875,
          "velocity": 0.3937007874015748
        },
        {
          "duration": 0.09375,
          "durationTicks": 96,
          "midi": 76,
          "name": "E5",
          "ticks": 207648,
          "time": 202.78125,
          "velocity": 0.3937007874015748
        },
        {
          "duration": 0.09375,
          "durationTicks": 96,
          "midi": 64,
          "name": "E4",
          "ticks": 207648,
          "time": 202.78125,
          "velocity": 0.3937007874015748
        },
        {
          "duration": 0.09375,
          "durationTicks": 96,
          "midi": 60,
          "name": "C4",
          "ticks": 207936,
          "time": 203.0625,
          "velocity": 0.3937007874015748
        },
        {
          "duration": 0.09375,
          "durationTicks": 96,
          "midi": 72,
          "name": "C5",
          "ticks": 207936,
          "time": 203.0625,
          "velocity": 0.3937007874015748
        },
        {
          "duration": 0.09375,
          "durationTicks": 96,
          "midi": 60,
          "name": "C4",
          "ticks": 208032,
          "time": 203.15625,
          "velocity": 0.3937007874015748
        },
        {
          "duration": 0.09375,
          "durationTicks": 96,
          "midi": 72,
          "name": "C5",
          "ticks": 208032,
          "time": 203.15625,
          "velocity": 0.3937007874015748
        },
        {
          "duration": 0.09375,
          "durationTicks": 96,
          "midi": 60,
          "name": "C4",
          "ticks": 208128,
          "time": 203.25,
          "velocity": 0.3937007874015748
        },
        {
          "duration": 0.09375,
          "durationTicks": 96,
          "midi": 72,
          "name": "C5",
          "ticks": 208128,
          "time": 203.25,
          "velocity": 0.3937007874015748
        },
        {
          "duration": 0.09375,
          "durationTicks": 96,
          "midi": 60,
          "name": "C4",
          "ticks": 208224,
          "time": 203.34375,
          "velocity": 0.3937007874015748
        },
        {
          "duration": 0.09375,
          "durationTicks": 96,
          "midi": 72,
          "name": "C5",
          "ticks": 208224,
          "time": 203.34375,
          "velocity": 0.3937007874015748
        },
        {
          "duration": 0.09375,
          "durationTicks": 96,
          "midi": 72,
          "name": "C5",
          "ticks": 208320,
          "time": 203.4375,
          "velocity": 0.3937007874015748
        },
        {
          "duration": 0.09375,
          "durationTicks": 96,
          "midi": 60,
          "name": "C4",
          "ticks": 208320,
          "time": 203.4375,
          "velocity": 0.3937007874015748
        },
        {
          "duration": 0.09375,
          "durationTicks": 96,
          "midi": 72,
          "name": "C5",
          "ticks": 208416,
          "time": 203.53125,
          "velocity": 0.3937007874015748
        },
        {
          "duration": 0.09375,
          "durationTicks": 96,
          "midi": 60,
          "name": "C4",
          "ticks": 208416,
          "time": 203.53125,
          "velocity": 0.3937007874015748
        },
        {
          "duration": 0.09375,
          "durationTicks": 96,
          "midi": 63,
          "name": "D#4",
          "ticks": 208896,
          "time": 204,
          "velocity": 0.3937007874015748
        },
        {
          "duration": 0.09375,
          "durationTicks": 96,
          "midi": 75,
          "name": "D#5",
          "ticks": 208896,
          "time": 204,
          "velocity": 0.3937007874015748
        },
        {
          "duration": 0.09375,
          "durationTicks": 96,
          "midi": 63,
          "name": "D#4",
          "ticks": 208992,
          "time": 204.09375,
          "velocity": 0.3937007874015748
        },
        {
          "duration": 0.09375,
          "durationTicks": 96,
          "midi": 75,
          "name": "D#5",
          "ticks": 208992,
          "time": 204.09375,
          "velocity": 0.3937007874015748
        },
        {
          "duration": 0.09375,
          "durationTicks": 96,
          "midi": 75,
          "name": "D#5",
          "ticks": 209088,
          "time": 204.1875,
          "velocity": 0.3937007874015748
        },
        {
          "duration": 0.09375,
          "durationTicks": 96,
          "midi": 63,
          "name": "D#4",
          "ticks": 209088,
          "time": 204.1875,
          "velocity": 0.3937007874015748
        },
        {
          "duration": 0.09375,
          "durationTicks": 96,
          "midi": 63,
          "name": "D#4",
          "ticks": 209184,
          "time": 204.28125,
          "velocity": 0.3937007874015748
        },
        {
          "duration": 0.09375,
          "durationTicks": 96,
          "midi": 75,
          "name": "D#5",
          "ticks": 209184,
          "time": 204.28125,
          "velocity": 0.3937007874015748
        },
        {
          "duration": 0.09375,
          "durationTicks": 96,
          "midi": 63,
          "name": "D#4",
          "ticks": 209280,
          "time": 204.375,
          "velocity": 0.3937007874015748
        },
        {
          "duration": 0.09375,
          "durationTicks": 96,
          "midi": 75,
          "name": "D#5",
          "ticks": 209280,
          "time": 204.375,
          "velocity": 0.3937007874015748
        },
        {
          "duration": 0.09375,
          "durationTicks": 96,
          "midi": 75,
          "name": "D#5",
          "ticks": 209376,
          "time": 204.46875,
          "velocity": 0.3937007874015748
        },
        {
          "duration": 0.09375,
          "durationTicks": 96,
          "midi": 63,
          "name": "D#4",
          "ticks": 209376,
          "time": 204.46875,
          "velocity": 0.3937007874015748
        },
        {
          "duration": 0.09375,
          "durationTicks": 96,
          "midi": 63,
          "name": "D#4",
          "ticks": 209472,
          "time": 204.5625,
          "velocity": 0.3937007874015748
        },
        {
          "duration": 0.09375,
          "durationTicks": 96,
          "midi": 75,
          "name": "D#5",
          "ticks": 209472,
          "time": 204.5625,
          "velocity": 0.3937007874015748
        },
        {
          "duration": 0.09375,
          "durationTicks": 96,
          "midi": 75,
          "name": "D#5",
          "ticks": 209568,
          "time": 204.65625,
          "velocity": 0.3937007874015748
        },
        {
          "duration": 0.09375,
          "durationTicks": 96,
          "midi": 63,
          "name": "D#4",
          "ticks": 209568,
          "time": 204.65625,
          "velocity": 0.3937007874015748
        },
        {
          "duration": 0.09375,
          "durationTicks": 96,
          "midi": 63,
          "name": "D#4",
          "ticks": 209664,
          "time": 204.75,
          "velocity": 0.3937007874015748
        },
        {
          "duration": 0.09375,
          "durationTicks": 96,
          "midi": 75,
          "name": "D#5",
          "ticks": 209664,
          "time": 204.75,
          "velocity": 0.3937007874015748
        },
        {
          "duration": 0.09375,
          "durationTicks": 96,
          "midi": 63,
          "name": "D#4",
          "ticks": 209760,
          "time": 204.84375,
          "velocity": 0.3937007874015748
        },
        {
          "duration": 0.09375,
          "durationTicks": 96,
          "midi": 75,
          "name": "D#5",
          "ticks": 209760,
          "time": 204.84375,
          "velocity": 0.3937007874015748
        },
        {
          "duration": 0.09375,
          "durationTicks": 96,
          "midi": 63,
          "name": "D#4",
          "ticks": 209856,
          "time": 204.9375,
          "velocity": 0.3937007874015748
        },
        {
          "duration": 0.09375,
          "durationTicks": 96,
          "midi": 75,
          "name": "D#5",
          "ticks": 209856,
          "time": 204.9375,
          "velocity": 0.3937007874015748
        },
        {
          "duration": 0.09375,
          "durationTicks": 96,
          "midi": 62,
          "name": "D4",
          "ticks": 210432,
          "time": 205.5,
          "velocity": 0.3937007874015748
        },
        {
          "duration": 0.09375,
          "durationTicks": 96,
          "midi": 62,
          "name": "D4",
          "ticks": 210528,
          "time": 205.59375,
          "velocity": 0.3937007874015748
        },
        {
          "duration": 0.09375,
          "durationTicks": 96,
          "midi": 62,
          "name": "D4",
          "ticks": 210624,
          "time": 205.6875,
          "velocity": 0.3937007874015748
        },
        {
          "duration": 0.09375,
          "durationTicks": 96,
          "midi": 62,
          "name": "D4",
          "ticks": 210720,
          "time": 205.78125,
          "velocity": 0.3937007874015748
        },
        {
          "duration": 0.09375,
          "durationTicks": 96,
          "midi": 62,
          "name": "D4",
          "ticks": 210816,
          "time": 205.875,
          "velocity": 0.3937007874015748
        },
        {
          "duration": 0.09375,
          "durationTicks": 96,
          "midi": 62,
          "name": "D4",
          "ticks": 210912,
          "time": 205.96875,
          "velocity": 0.3937007874015748
        },
        {
          "duration": 0.09375,
          "durationTicks": 96,
          "midi": 62,
          "name": "D4",
          "ticks": 211008,
          "time": 206.0625,
          "velocity": 0.3937007874015748
        },
        {
          "duration": 0.09375,
          "durationTicks": 96,
          "midi": 62,
          "name": "D4",
          "ticks": 211104,
          "time": 206.15625,
          "velocity": 0.3937007874015748
        },
        {
          "duration": 0.09375,
          "durationTicks": 96,
          "midi": 62,
          "name": "D4",
          "ticks": 211200,
          "time": 206.25,
          "velocity": 0.3937007874015748
        },
        {
          "duration": 0.09375,
          "durationTicks": 96,
          "midi": 62,
          "name": "D4",
          "ticks": 211296,
          "time": 206.34375,
          "velocity": 0.3937007874015748
        },
        {
          "duration": 0.09375,
          "durationTicks": 96,
          "midi": 62,
          "name": "D4",
          "ticks": 211392,
          "time": 206.4375,
          "velocity": 0.3937007874015748
        }
      ],
      "endOfTrackTicks": 211488
    },
    {
      "channel": 9,
      "controlChanges": {},
      "pitchBends": [],
      "instrument": {
        "family": "drums",
        "number": 0,
        "name": "standard kit"
      },
      "name": "Electric Drum Kit",
      "notes": [
        {
          "duration": 0.1875,
          "durationTicks": 192,
          "midi": 57,
          "name": "A3",
          "ticks": 0,
          "time": 0,
          "velocity": 0.3937007874015748
        },
        {
          "duration": 0.1875,
          "durationTicks": 192,
          "midi": 36,
          "name": "C2",
          "ticks": 0,
          "time": 0,
          "velocity": 0.3937007874015748
        },
        {
          "duration": 0.1875,
          "durationTicks": 192,
          "midi": 52,
          "name": "E3",
          "ticks": 0,
          "time": 0,
          "velocity": 0.3937007874015748
        },
        {
          "duration": 0.1875,
          "durationTicks": 192,
          "midi": 35,
          "name": "B1",
          "ticks": 0,
          "time": 0,
          "velocity": 0.3937007874015748
        },
        {
          "duration": 0.1875,
          "durationTicks": 192,
          "midi": 36,
          "name": "C2",
          "ticks": 576,
          "time": 0.5625,
          "velocity": 0.3937007874015748
        },
        {
          "duration": 0.1875,
          "durationTicks": 192,
          "midi": 35,
          "name": "B1",
          "ticks": 576,
          "time": 0.5625,
          "velocity": 0.3937007874015748
        },
        {
          "duration": 0.1875,
          "durationTicks": 192,
          "midi": 35,
          "name": "B1",
          "ticks": 1152,
          "time": 1.125,
          "velocity": 0.3937007874015748
        },
        {
          "duration": 0.1875,
          "durationTicks": 192,
          "midi": 36,
          "name": "C2",
          "ticks": 1152,
          "time": 1.125,
          "velocity": 0.3937007874015748
        },
        {
          "duration": 0.1875,
          "durationTicks": 192,
          "midi": 36,
          "name": "C2",
          "ticks": 1536,
          "time": 1.5,
          "velocity": 0.3937007874015748
        },
        {
          "duration": 0.1875,
          "durationTicks": 192,
          "midi": 35,
          "name": "B1",
          "ticks": 1536,
          "time": 1.5,
          "velocity": 0.3937007874015748
        },
        {
          "duration": 0.1875,
          "durationTicks": 192,
          "midi": 36,
          "name": "C2",
          "ticks": 2112,
          "time": 2.0625,
          "velocity": 0.3937007874015748
        },
        {
          "duration": 0.1875,
          "durationTicks": 192,
          "midi": 35,
          "name": "B1",
          "ticks": 2112,
          "time": 2.0625,
          "velocity": 0.3937007874015748
        },
        {
          "duration": 0.1875,
          "durationTicks": 192,
          "midi": 36,
          "name": "C2",
          "ticks": 2688,
          "time": 2.625,
          "velocity": 0.3937007874015748
        },
        {
          "duration": 0.1875,
          "durationTicks": 192,
          "midi": 35,
          "name": "B1",
          "ticks": 2688,
          "time": 2.625,
          "velocity": 0.3937007874015748
        },
        {
          "duration": 0.1875,
          "durationTicks": 192,
          "midi": 36,
          "name": "C2",
          "ticks": 3072,
          "time": 3,
          "velocity": 0.3937007874015748
        },
        {
          "duration": 0.1875,
          "durationTicks": 192,
          "midi": 35,
          "name": "B1",
          "ticks": 3072,
          "time": 3,
          "velocity": 0.3937007874015748
        },
        {
          "duration": 0.1875,
          "durationTicks": 192,
          "midi": 36,
          "name": "C2",
          "ticks": 3648,
          "time": 3.5625,
          "velocity": 0.3937007874015748
        },
        {
          "duration": 0.1875,
          "durationTicks": 192,
          "midi": 35,
          "name": "B1",
          "ticks": 3648,
          "time": 3.5625,
          "velocity": 0.3937007874015748
        },
        {
          "duration": 0.1875,
          "durationTicks": 192,
          "midi": 35,
          "name": "B1",
          "ticks": 4224,
          "time": 4.125,
          "velocity": 0.3937007874015748
        },
        {
          "duration": 0.1875,
          "durationTicks": 192,
          "midi": 36,
          "name": "C2",
          "ticks": 4224,
          "time": 4.125,
          "velocity": 0.3937007874015748
        },
        {
          "duration": 0.1875,
          "durationTicks": 192,
          "midi": 35,
          "name": "B1",
          "ticks": 4608,
          "time": 4.5,
          "velocity": 0.3937007874015748
        },
        {
          "duration": 0.1875,
          "durationTicks": 192,
          "midi": 36,
          "name": "C2",
          "ticks": 4608,
          "time": 4.5,
          "velocity": 0.3937007874015748
        },
        {
          "duration": 0.1875,
          "durationTicks": 192,
          "midi": 35,
          "name": "B1",
          "ticks": 5184,
          "time": 5.0625,
          "velocity": 0.3937007874015748
        },
        {
          "duration": 0.1875,
          "durationTicks": 192,
          "midi": 36,
          "name": "C2",
          "ticks": 5184,
          "time": 5.0625,
          "velocity": 0.3937007874015748
        },
        {
          "duration": 0.1875,
          "durationTicks": 192,
          "midi": 36,
          "name": "C2",
          "ticks": 5760,
          "time": 5.625,
          "velocity": 0.3937007874015748
        },
        {
          "duration": 0.1875,
          "durationTicks": 192,
          "midi": 35,
          "name": "B1",
          "ticks": 5760,
          "time": 5.625,
          "velocity": 0.3937007874015748
        },
        {
          "duration": 0.09375,
          "durationTicks": 96,
          "midi": 38,
          "name": "D2",
          "ticks": 5952,
          "time": 5.8125,
          "velocity": 0.3937007874015748
        },
        {
          "duration": 0.09375,
          "durationTicks": 96,
          "midi": 40,
          "name": "E2",
          "ticks": 5952,
          "time": 5.8125,
          "velocity": 0.3937007874015748
        },
        {
          "duration": 0.09375,
          "durationTicks": 96,
          "midi": 38,
          "name": "D2",
          "ticks": 6048,
          "time": 5.90625,
          "velocity": 0.3937007874015748
        },
        {
          "duration": 0.09375,
          "durationTicks": 96,
          "midi": 40,
          "name": "E2",
          "ticks": 6048,
          "time": 5.90625,
          "velocity": 0.3937007874015748
        },
        {
          "duration": 0.1875,
          "durationTicks": 192,
          "midi": 57,
          "name": "A3",
          "ticks": 6144,
          "time": 6,
          "velocity": 0.3937007874015748
        },
        {
          "duration": 0.1875,
          "durationTicks": 192,
          "midi": 52,
          "name": "E3",
          "ticks": 6144,
          "time": 6,
          "velocity": 0.3937007874015748
        },
        {
          "duration": 0.1875,
          "durationTicks": 192,
          "midi": 36,
          "name": "C2",
          "ticks": 6144,
          "time": 6,
          "velocity": 0.3937007874015748
        },
        {
          "duration": 0.1875,
          "durationTicks": 192,
          "midi": 35,
          "name": "B1",
          "ticks": 6144,
          "time": 6,
          "velocity": 0.3937007874015748
        },
        {
          "duration": 0.1875,
          "durationTicks": 192,
          "midi": 36,
          "name": "C2",
          "ticks": 6720,
          "time": 6.5625,
          "velocity": 0.3937007874015748
        },
        {
          "duration": 0.1875,
          "durationTicks": 192,
          "midi": 35,
          "name": "B1",
          "ticks": 6720,
          "time": 6.5625,
          "velocity": 0.3937007874015748
        },
        {
          "duration": 0.1875,
          "durationTicks": 192,
          "midi": 35,
          "name": "B1",
          "ticks": 7296,
          "time": 7.125,
          "velocity": 0.3937007874015748
        },
        {
          "duration": 0.1875,
          "durationTicks": 192,
          "midi": 36,
          "name": "C2",
          "ticks": 7296,
          "time": 7.125,
          "velocity": 0.3937007874015748
        },
        {
          "duration": 0.1875,
          "durationTicks": 192,
          "midi": 35,
          "name": "B1",
          "ticks": 7680,
          "time": 7.5,
          "velocity": 0.3937007874015748
        },
        {
          "duration": 0.1875,
          "durationTicks": 192,
          "midi": 36,
          "name": "C2",
          "ticks": 7680,
          "time": 7.5,
          "velocity": 0.3937007874015748
        },
        {
          "duration": 0.1875,
          "durationTicks": 192,
          "midi": 36,
          "name": "C2",
          "ticks": 8256,
          "time": 8.0625,
          "velocity": 0.3937007874015748
        },
        {
          "duration": 0.1875,
          "durationTicks": 192,
          "midi": 35,
          "name": "B1",
          "ticks": 8256,
          "time": 8.0625,
          "velocity": 0.3937007874015748
        },
        {
          "duration": 0.1875,
          "durationTicks": 192,
          "midi": 35,
          "name": "B1",
          "ticks": 8832,
          "time": 8.625,
          "velocity": 0.3937007874015748
        },
        {
          "duration": 0.1875,
          "durationTicks": 192,
          "midi": 36,
          "name": "C2",
          "ticks": 8832,
          "time": 8.625,
          "velocity": 0.3937007874015748
        },
        {
          "duration": 0.09375,
          "durationTicks": 96,
          "midi": 44,
          "name": "G#2",
          "ticks": 9120,
          "time": 8.90625,
          "velocity": 0.3937007874015748
        },
        {
          "duration": 0.09375,
          "durationTicks": 96,
          "midi": 38,
          "name": "D2",
          "ticks": 9216,
          "time": 9,
          "velocity": 0.3937007874015748
        },
        {
          "duration": 0.1875,
          "durationTicks": 192,
          "midi": 35,
          "name": "B1",
          "ticks": 9216,
          "time": 9,
          "velocity": 0.3937007874015748
        },
        {
          "duration": 0.1875,
          "durationTicks": 192,
          "midi": 36,
          "name": "C2",
          "ticks": 9216,
          "time": 9,
          "velocity": 0.3937007874015748
        },
        {
          "duration": 0.1875,
          "durationTicks": 192,
          "midi": 35,
          "name": "B1",
          "ticks": 9792,
          "time": 9.5625,
          "velocity": 0.3937007874015748
        },
        {
          "duration": 0.1875,
          "durationTicks": 192,
          "midi": 36,
          "name": "C2",
          "ticks": 9792,
          "time": 9.5625,
          "velocity": 0.3937007874015748
        },
        {
          "duration": 0.1875,
          "durationTicks": 192,
          "midi": 36,
          "name": "C2",
          "ticks": 10368,
          "time": 10.125,
          "velocity": 0.3937007874015748
        },
        {
          "duration": 0.1875,
          "durationTicks": 192,
          "midi": 35,
          "name": "B1",
          "ticks": 10368,
          "time": 10.125,
          "velocity": 0.3937007874015748
        },
        {
          "duration": 0.1875,
          "durationTicks": 192,
          "midi": 36,
          "name": "C2",
          "ticks": 10752,
          "time": 10.5,
          "velocity": 0.3937007874015748
        },
        {
          "duration": 0.1875,
          "durationTicks": 192,
          "midi": 35,
          "name": "B1",
          "ticks": 10752,
          "time": 10.5,
          "velocity": 0.3937007874015748
        },
        {
          "duration": 0.09375,
          "durationTicks": 96,
          "midi": 35,
          "name": "B1",
          "ticks": 11904,
          "time": 11.625,
          "velocity": 0.3937007874015748
        },
        {
          "duration": 0.09375,
          "durationTicks": 96,
          "midi": 35,
          "name": "B1",
          "ticks": 12000,
          "time": 11.71875,
          "velocity": 0.3937007874015748
        },
        {
          "duration": 0.09375,
          "durationTicks": 96,
          "midi": 38,
          "name": "D2",
          "ticks": 12096,
          "time": 11.8125,
          "velocity": 0.3937007874015748
        },
        {
          "duration": 0.09375,
          "durationTicks": 96,
          "midi": 35,
          "name": "B1",
          "ticks": 12096,
          "time": 11.8125,
          "velocity": 0.3937007874015748
        },
        {
          "duration": 0.09375,
          "durationTicks": 96,
          "midi": 38,
          "name": "D2",
          "ticks": 12192,
          "time": 11.90625,
          "velocity": 0.3937007874015748
        },
        {
          "duration": 0.09375,
          "durationTicks": 96,
          "midi": 35,
          "name": "B1",
          "ticks": 12192,
          "time": 11.90625,
          "velocity": 0.3937007874015748
        },
        {
          "duration": 0.1875,
          "durationTicks": 192,
          "midi": 57,
          "name": "A3",
          "ticks": 12288,
          "time": 12,
          "velocity": 0.3937007874015748
        },
        {
          "duration": 0.1875,
          "durationTicks": 192,
          "midi": 36,
          "name": "C2",
          "ticks": 12288,
          "time": 12,
          "velocity": 0.3937007874015748
        },
        {
          "duration": 0.1875,
          "durationTicks": 192,
          "midi": 52,
          "name": "E3",
          "ticks": 12288,
          "time": 12,
          "velocity": 0.3937007874015748
        },
        {
          "duration": 0.1875,
          "durationTicks": 192,
          "midi": 35,
          "name": "B1",
          "ticks": 12288,
          "time": 12,
          "velocity": 0.3937007874015748
        },
        {
          "duration": 0.1875,
          "durationTicks": 192,
          "midi": 35,
          "name": "B1",
          "ticks": 12864,
          "time": 12.5625,
          "velocity": 0.3937007874015748
        },
        {
          "duration": 0.1875,
          "durationTicks": 192,
          "midi": 36,
          "name": "C2",
          "ticks": 12864,
          "time": 12.5625,
          "velocity": 0.3937007874015748
        },
        {
          "duration": 0.1875,
          "durationTicks": 192,
          "midi": 36,
          "name": "C2",
          "ticks": 13440,
          "time": 13.125,
          "velocity": 0.3937007874015748
        },
        {
          "duration": 0.1875,
          "durationTicks": 192,
          "midi": 35,
          "name": "B1",
          "ticks": 13440,
          "time": 13.125,
          "velocity": 0.3937007874015748
        },
        {
          "duration": 0.1875,
          "durationTicks": 192,
          "midi": 36,
          "name": "C2",
          "ticks": 13824,
          "time": 13.5,
          "velocity": 0.3937007874015748
        },
        {
          "duration": 0.1875,
          "durationTicks": 192,
          "midi": 35,
          "name": "B1",
          "ticks": 13824,
          "time": 13.5,
          "velocity": 0.3937007874015748
        },
        {
          "duration": 0.1875,
          "durationTicks": 192,
          "midi": 35,
          "name": "B1",
          "ticks": 14400,
          "time": 14.0625,
          "velocity": 0.3937007874015748
        },
        {
          "duration": 0.1875,
          "durationTicks": 192,
          "midi": 36,
          "name": "C2",
          "ticks": 14400,
          "time": 14.0625,
          "velocity": 0.3937007874015748
        },
        {
          "duration": 0.1875,
          "durationTicks": 192,
          "midi": 35,
          "name": "B1",
          "ticks": 14976,
          "time": 14.625,
          "velocity": 0.3937007874015748
        },
        {
          "duration": 0.1875,
          "durationTicks": 192,
          "midi": 36,
          "name": "C2",
          "ticks": 14976,
          "time": 14.625,
          "velocity": 0.3937007874015748
        },
        {
          "duration": 0.1875,
          "durationTicks": 192,
          "midi": 36,
          "name": "C2",
          "ticks": 15360,
          "time": 15,
          "velocity": 0.3937007874015748
        },
        {
          "duration": 0.1875,
          "durationTicks": 192,
          "midi": 35,
          "name": "B1",
          "ticks": 15360,
          "time": 15,
          "velocity": 0.3937007874015748
        },
        {
          "duration": 0.1875,
          "durationTicks": 192,
          "midi": 36,
          "name": "C2",
          "ticks": 15936,
          "time": 15.5625,
          "velocity": 0.3937007874015748
        },
        {
          "duration": 0.1875,
          "durationTicks": 192,
          "midi": 35,
          "name": "B1",
          "ticks": 15936,
          "time": 15.5625,
          "velocity": 0.3937007874015748
        },
        {
          "duration": 0.1875,
          "durationTicks": 192,
          "midi": 36,
          "name": "C2",
          "ticks": 16512,
          "time": 16.125,
          "velocity": 0.3937007874015748
        },
        {
          "duration": 0.1875,
          "durationTicks": 192,
          "midi": 35,
          "name": "B1",
          "ticks": 16512,
          "time": 16.125,
          "velocity": 0.3937007874015748
        },
        {
          "duration": 0.1875,
          "durationTicks": 192,
          "midi": 36,
          "name": "C2",
          "ticks": 16896,
          "time": 16.5,
          "velocity": 0.3937007874015748
        },
        {
          "duration": 0.1875,
          "durationTicks": 192,
          "midi": 35,
          "name": "B1",
          "ticks": 16896,
          "time": 16.5,
          "velocity": 0.3937007874015748
        },
        {
          "duration": 0.09375,
          "durationTicks": 96,
          "midi": 38,
          "name": "D2",
          "ticks": 17280,
          "time": 16.875,
          "velocity": 0.3937007874015748
        },
        {
          "duration": 0.1875,
          "durationTicks": 192,
          "midi": 36,
          "name": "C2",
          "ticks": 17472,
          "time": 17.0625,
          "velocity": 0.3937007874015748
        },
        {
          "duration": 0.1875,
          "durationTicks": 192,
          "midi": 35,
          "name": "B1",
          "ticks": 17472,
          "time": 17.0625,
          "velocity": 0.3937007874015748
        },
        {
          "duration": 0.09375,
          "durationTicks": 96,
          "midi": 40,
          "name": "E2",
          "ticks": 17856,
          "time": 17.4375,
          "velocity": 0.3937007874015748
        },
        {
          "duration": 0.1875,
          "durationTicks": 192,
          "midi": 35,
          "name": "B1",
          "ticks": 18048,
          "time": 17.625,
          "velocity": 0.3937007874015748
        },
        {
          "duration": 0.1875,
          "durationTicks": 192,
          "midi": 36,
          "name": "C2",
          "ticks": 18048,
          "time": 17.625,
          "velocity": 0.3937007874015748
        },
        {
          "duration": 0.09375,
          "durationTicks": 96,
          "midi": 38,
          "name": "D2",
          "ticks": 18240,
          "time": 17.8125,
          "velocity": 0.3937007874015748
        },
        {
          "duration": 0.09375,
          "durationTicks": 96,
          "midi": 40,
          "name": "E2",
          "ticks": 18240,
          "time": 17.8125,
          "velocity": 0.3937007874015748
        },
        {
          "duration": 0.09375,
          "durationTicks": 96,
          "midi": 38,
          "name": "D2",
          "ticks": 18336,
          "time": 17.90625,
          "velocity": 0.3937007874015748
        },
        {
          "duration": 0.09375,
          "durationTicks": 96,
          "midi": 40,
          "name": "E2",
          "ticks": 18336,
          "time": 17.90625,
          "velocity": 0.3937007874015748
        },
        {
          "duration": 0.1875,
          "durationTicks": 192,
          "midi": 57,
          "name": "A3",
          "ticks": 18432,
          "time": 18,
          "velocity": 0.3937007874015748
        },
        {
          "duration": 0.1875,
          "durationTicks": 192,
          "midi": 52,
          "name": "E3",
          "ticks": 18432,
          "time": 18,
          "velocity": 0.3937007874015748
        },
        {
          "duration": 0.1875,
          "durationTicks": 192,
          "midi": 36,
          "name": "C2",
          "ticks": 18432,
          "time": 18,
          "velocity": 0.3937007874015748
        },
        {
          "duration": 0.1875,
          "durationTicks": 192,
          "midi": 35,
          "name": "B1",
          "ticks": 18432,
          "time": 18,
          "velocity": 0.3937007874015748
        },
        {
          "duration": 0.1875,
          "durationTicks": 192,
          "midi": 36,
          "name": "C2",
          "ticks": 18816,
          "time": 18.375,
          "velocity": 0.3937007874015748
        },
        {
          "duration": 0.1875,
          "durationTicks": 192,
          "midi": 57,
          "name": "A3",
          "ticks": 18816,
          "time": 18.375,
          "velocity": 0.3937007874015748
        },
        {
          "duration": 0.1875,
          "durationTicks": 192,
          "midi": 35,
          "name": "B1",
          "ticks": 18816,
          "time": 18.375,
          "velocity": 0.3937007874015748
        },
        {
          "duration": 0.09375,
          "durationTicks": 96,
          "midi": 38,
          "name": "D2",
          "ticks": 18816,
          "time": 18.375,
          "velocity": 0.3937007874015748
        },
        {
          "duration": 0.09375,
          "durationTicks": 96,
          "midi": 40,
          "name": "E2",
          "ticks": 18816,
          "time": 18.375,
          "velocity": 0.3937007874015748
        },
        {
          "duration": 0.1875,
          "durationTicks": 192,
          "midi": 35,
          "name": "B1",
          "ticks": 19200,
          "time": 18.75,
          "velocity": 0.3937007874015748
        },
        {
          "duration": 0.1875,
          "durationTicks": 192,
          "midi": 57,
          "name": "A3",
          "ticks": 19200,
          "time": 18.75,
          "velocity": 0.3937007874015748
        },
        {
          "duration": 0.1875,
          "durationTicks": 192,
          "midi": 36,
          "name": "C2",
          "ticks": 19200,
          "time": 18.75,
          "velocity": 0.3937007874015748
        },
        {
          "duration": 0.1875,
          "durationTicks": 192,
          "midi": 35,
          "name": "B1",
          "ticks": 19584,
          "time": 19.125,
          "velocity": 0.3937007874015748
        },
        {
          "duration": 0.1875,
          "durationTicks": 192,
          "midi": 57,
          "name": "A3",
          "ticks": 19584,
          "time": 19.125,
          "velocity": 0.3937007874015748
        },
        {
          "duration": 0.1875,
          "durationTicks": 192,
          "midi": 36,
          "name": "C2",
          "ticks": 19584,
          "time": 19.125,
          "velocity": 0.3937007874015748
        },
        {
          "duration": 0.09375,
          "durationTicks": 96,
          "midi": 38,
          "name": "D2",
          "ticks": 19584,
          "time": 19.125,
          "velocity": 0.3937007874015748
        },
        {
          "duration": 0.09375,
          "durationTicks": 96,
          "midi": 40,
          "name": "E2",
          "ticks": 19584,
          "time": 19.125,
          "velocity": 0.3937007874015748
        },
        {
          "duration": 0.1875,
          "durationTicks": 192,
          "midi": 57,
          "name": "A3",
          "ticks": 19968,
          "time": 19.5,
          "velocity": 0.3937007874015748
        },
        {
          "duration": 0.1875,
          "durationTicks": 192,
          "midi": 35,
          "name": "B1",
          "ticks": 19968,
          "time": 19.5,
          "velocity": 0.3937007874015748
        },
        {
          "duration": 0.1875,
          "durationTicks": 192,
          "midi": 36,
          "name": "C2",
          "ticks": 19968,
          "time": 19.5,
          "velocity": 0.3937007874015748
        },
        {
          "duration": 0.1875,
          "durationTicks": 192,
          "midi": 52,
          "name": "E3",
          "ticks": 19968,
          "time": 19.5,
          "velocity": 0.3937007874015748
        },
        {
          "duration": 0.1875,
          "durationTicks": 192,
          "midi": 36,
          "name": "C2",
          "ticks": 20352,
          "time": 19.875,
          "velocity": 0.3937007874015748
        },
        {
          "duration": 0.09375,
          "durationTicks": 96,
          "midi": 38,
          "name": "D2",
          "ticks": 20352,
          "time": 19.875,
          "velocity": 0.3937007874015748
        },
        {
          "duration": 0.1875,
          "durationTicks": 192,
          "midi": 35,
          "name": "B1",
          "ticks": 20352,
          "time": 19.875,
          "velocity": 0.3937007874015748
        },
        {
          "duration": 0.1875,
          "durationTicks": 192,
          "midi": 57,
          "name": "A3",
          "ticks": 20352,
          "time": 19.875,
          "velocity": 0.3937007874015748
        },
        {
          "duration": 0.09375,
          "durationTicks": 96,
          "midi": 40,
          "name": "E2",
          "ticks": 20352,
          "time": 19.875,
          "velocity": 0.3937007874015748
        },
        {
          "duration": 0.1875,
          "durationTicks": 192,
          "midi": 57,
          "name": "A3",
          "ticks": 20736,
          "time": 20.25,
          "velocity": 0.3937007874015748
        },
        {
          "duration": 0.1875,
          "durationTicks": 192,
          "midi": 36,
          "name": "C2",
          "ticks": 20736,
          "time": 20.25,
          "velocity": 0.3937007874015748
        },
        {
          "duration": 0.1875,
          "durationTicks": 192,
          "midi": 35,
          "name": "B1",
          "ticks": 20736,
          "time": 20.25,
          "velocity": 0.3937007874015748
        },
        {
          "duration": 0.1875,
          "durationTicks": 192,
          "midi": 36,
          "name": "C2",
          "ticks": 21120,
          "time": 20.625,
          "velocity": 0.3937007874015748
        },
        {
          "duration": 0.1875,
          "durationTicks": 192,
          "midi": 57,
          "name": "A3",
          "ticks": 21120,
          "time": 20.625,
          "velocity": 0.3937007874015748
        },
        {
          "duration": 0.1875,
          "durationTicks": 192,
          "midi": 35,
          "name": "B1",
          "ticks": 21120,
          "time": 20.625,
          "velocity": 0.3937007874015748
        },
        {
          "duration": 0.09375,
          "durationTicks": 96,
          "midi": 38,
          "name": "D2",
          "ticks": 21120,
          "time": 20.625,
          "velocity": 0.3937007874015748
        },
        {
          "duration": 0.09375,
          "durationTicks": 96,
          "midi": 40,
          "name": "E2",
          "ticks": 21120,
          "time": 20.625,
          "velocity": 0.3937007874015748
        },
        {
          "duration": 0.1875,
          "durationTicks": 192,
          "midi": 35,
          "name": "B1",
          "ticks": 21504,
          "time": 21,
          "velocity": 0.3937007874015748
        },
        {
          "duration": 0.1875,
          "durationTicks": 192,
          "midi": 36,
          "name": "C2",
          "ticks": 21504,
          "time": 21,
          "velocity": 0.3937007874015748
        },
        {
          "duration": 0.1875,
          "durationTicks": 192,
          "midi": 52,
          "name": "E3",
          "ticks": 21504,
          "time": 21,
          "velocity": 0.3937007874015748
        },
        {
          "duration": 0.1875,
          "durationTicks": 192,
          "midi": 57,
          "name": "A3",
          "ticks": 21504,
          "time": 21,
          "velocity": 0.3937007874015748
        },
        {
          "duration": 0.1875,
          "durationTicks": 192,
          "midi": 35,
          "name": "B1",
          "ticks": 21888,
          "time": 21.375,
          "velocity": 0.3937007874015748
        },
        {
          "duration": 0.1875,
          "durationTicks": 192,
          "midi": 57,
          "name": "A3",
          "ticks": 21888,
          "time": 21.375,
          "velocity": 0.3937007874015748
        },
        {
          "duration": 0.09375,
          "durationTicks": 96,
          "midi": 40,
          "name": "E2",
          "ticks": 21888,
          "time": 21.375,
          "velocity": 0.3937007874015748
        },
        {
          "duration": 0.09375,
          "durationTicks": 96,
          "midi": 38,
          "name": "D2",
          "ticks": 21888,
          "time": 21.375,
          "velocity": 0.3937007874015748
        },
        {
          "duration": 0.1875,
          "durationTicks": 192,
          "midi": 36,
          "name": "C2",
          "ticks": 21888,
          "time": 21.375,
          "velocity": 0.3937007874015748
        },
        {
          "duration": 0.1875,
          "durationTicks": 192,
          "midi": 57,
          "name": "A3",
          "ticks": 22272,
          "time": 21.75,
          "velocity": 0.3937007874015748
        },
        {
          "duration": 0.1875,
          "durationTicks": 192,
          "midi": 35,
          "name": "B1",
          "ticks": 22272,
          "time": 21.75,
          "velocity": 0.3937007874015748
        },
        {
          "duration": 0.1875,
          "durationTicks": 192,
          "midi": 36,
          "name": "C2",
          "ticks": 22272,
          "time": 21.75,
          "velocity": 0.3937007874015748
        },
        {
          "duration": 0.1875,
          "durationTicks": 192,
          "midi": 36,
          "name": "C2",
          "ticks": 22656,
          "time": 22.125,
          "velocity": 0.3937007874015748
        },
        {
          "duration": 0.09375,
          "durationTicks": 96,
          "midi": 38,
          "name": "D2",
          "ticks": 22656,
          "time": 22.125,
          "velocity": 0.3937007874015748
        },
        {
          "duration": 0.1875,
          "durationTicks": 192,
          "midi": 57,
          "name": "A3",
          "ticks": 22656,
          "time": 22.125,
          "velocity": 0.3937007874015748
        },
        {
          "duration": 0.09375,
          "durationTicks": 96,
          "midi": 40,
          "name": "E2",
          "ticks": 22656,
          "time": 22.125,
          "velocity": 0.3937007874015748
        },
        {
          "duration": 0.1875,
          "durationTicks": 192,
          "midi": 35,
          "name": "B1",
          "ticks": 22656,
          "time": 22.125,
          "velocity": 0.3937007874015748
        },
        {
          "duration": 0.1875,
          "durationTicks": 192,
          "midi": 57,
          "name": "A3",
          "ticks": 23040,
          "time": 22.5,
          "velocity": 0.3937007874015748
        },
        {
          "duration": 0.1875,
          "durationTicks": 192,
          "midi": 52,
          "name": "E3",
          "ticks": 23040,
          "time": 22.5,
          "velocity": 0.3937007874015748
        },
        {
          "duration": 0.1875,
          "durationTicks": 192,
          "midi": 36,
          "name": "C2",
          "ticks": 23040,
          "time": 22.5,
          "velocity": 0.3937007874015748
        },
        {
          "duration": 0.1875,
          "durationTicks": 192,
          "midi": 35,
          "name": "B1",
          "ticks": 23040,
          "time": 22.5,
          "velocity": 0.3937007874015748
        },
        {
          "duration": 0.09375,
          "durationTicks": 96,
          "midi": 49,
          "name": "C#3",
          "ticks": 24576,
          "time": 24,
          "velocity": 0.3937007874015748
        },
        {
          "duration": 0.09375,
          "durationTicks": 96,
          "midi": 53,
          "name": "F3",
          "ticks": 24576,
          "time": 24,
          "velocity": 0.3937007874015748
        },
        {
          "duration": 0.09375,
          "durationTicks": 96,
          "midi": 49,
          "name": "C#3",
          "ticks": 24576,
          "time": 24,
          "velocity": 0.3937007874015748
        },
        {
          "duration": 0.09375,
          "durationTicks": 96,
          "midi": 53,
          "name": "F3",
          "ticks": 24576,
          "time": 24,
          "velocity": 0.3937007874015748
        },
        {
          "duration": 0.09375,
          "durationTicks": 96,
          "midi": 49,
          "name": "C#3",
          "ticks": 24576,
          "time": 24,
          "velocity": 0.3937007874015748
        },
        {
          "duration": 0.09375,
          "durationTicks": 96,
          "midi": 51,
          "name": "D#3",
          "ticks": 24960,
          "time": 24.375,
          "velocity": 0.3937007874015748
        },
        {
          "duration": 0.09375,
          "durationTicks": 96,
          "midi": 44,
          "name": "G#2",
          "ticks": 24960,
          "time": 24.375,
          "velocity": 0.3937007874015748
        },
        {
          "duration": 0.09375,
          "durationTicks": 96,
          "midi": 51,
          "name": "D#3",
          "ticks": 25344,
          "time": 24.75,
          "velocity": 0.3937007874015748
        },
        {
          "duration": 0.09375,
          "durationTicks": 96,
          "midi": 44,
          "name": "G#2",
          "ticks": 25344,
          "time": 24.75,
          "velocity": 0.3937007874015748
        },
        {
          "duration": 0.09375,
          "durationTicks": 96,
          "midi": 51,
          "name": "D#3",
          "ticks": 25728,
          "time": 25.125,
          "velocity": 0.3937007874015748
        },
        {
          "duration": 0.09375,
          "durationTicks": 96,
          "midi": 44,
          "name": "G#2",
          "ticks": 25728,
          "time": 25.125,
          "velocity": 0.3937007874015748
        },
        {
          "duration": 0.09375,
          "durationTicks": 96,
          "midi": 44,
          "name": "G#2",
          "ticks": 26112,
          "time": 25.5,
          "velocity": 0.3937007874015748
        },
        {
          "duration": 0.09375,
          "durationTicks": 96,
          "midi": 51,
          "name": "D#3",
          "ticks": 26112,
          "time": 25.5,
          "velocity": 0.3937007874015748
        },
        {
          "duration": 0.09375,
          "durationTicks": 96,
          "midi": 51,
          "name": "D#3",
          "ticks": 26496,
          "time": 25.875,
          "velocity": 0.3937007874015748
        },
        {
          "duration": 0.09375,
          "durationTicks": 96,
          "midi": 44,
          "name": "G#2",
          "ticks": 26496,
          "time": 25.875,
          "velocity": 0.3937007874015748
        },
        {
          "duration": 0.09375,
          "durationTicks": 96,
          "midi": 44,
          "name": "G#2",
          "ticks": 26880,
          "time": 26.25,
          "velocity": 0.3937007874015748
        },
        {
          "duration": 0.09375,
          "durationTicks": 96,
          "midi": 51,
          "name": "D#3",
          "ticks": 26880,
          "time": 26.25,
          "velocity": 0.3937007874015748
        },
        {
          "duration": 0.09375,
          "durationTicks": 96,
          "midi": 44,
          "name": "G#2",
          "ticks": 27264,
          "time": 26.625,
          "velocity": 0.3937007874015748
        },
        {
          "duration": 0.09375,
          "durationTicks": 96,
          "midi": 51,
          "name": "D#3",
          "ticks": 27264,
          "time": 26.625,
          "velocity": 0.3937007874015748
        },
        {
          "duration": 0.09375,
          "durationTicks": 96,
          "midi": 44,
          "name": "G#2",
          "ticks": 27648,
          "time": 27,
          "velocity": 0.3937007874015748
        },
        {
          "duration": 0.09375,
          "durationTicks": 96,
          "midi": 51,
          "name": "D#3",
          "ticks": 27648,
          "time": 27,
          "velocity": 0.3937007874015748
        },
        {
          "duration": 0.09375,
          "durationTicks": 96,
          "midi": 44,
          "name": "G#2",
          "ticks": 28032,
          "time": 27.375,
          "velocity": 0.3937007874015748
        },
        {
          "duration": 0.09375,
          "durationTicks": 96,
          "midi": 51,
          "name": "D#3",
          "ticks": 28032,
          "time": 27.375,
          "velocity": 0.3937007874015748
        },
        {
          "duration": 0.09375,
          "durationTicks": 96,
          "midi": 44,
          "name": "G#2",
          "ticks": 28416,
          "time": 27.75,
          "velocity": 0.3937007874015748
        },
        {
          "duration": 0.09375,
          "durationTicks": 96,
          "midi": 51,
          "name": "D#3",
          "ticks": 28416,
          "time": 27.75,
          "velocity": 0.3937007874015748
        },
        {
          "duration": 0.09375,
          "durationTicks": 96,
          "midi": 44,
          "name": "G#2",
          "ticks": 28800,
          "time": 28.125,
          "velocity": 0.3937007874015748
        },
        {
          "duration": 0.09375,
          "durationTicks": 96,
          "midi": 51,
          "name": "D#3",
          "ticks": 28800,
          "time": 28.125,
          "velocity": 0.3937007874015748
        },
        {
          "duration": 0.09375,
          "durationTicks": 96,
          "midi": 44,
          "name": "G#2",
          "ticks": 29184,
          "time": 28.5,
          "velocity": 0.3937007874015748
        },
        {
          "duration": 0.09375,
          "durationTicks": 96,
          "midi": 51,
          "name": "D#3",
          "ticks": 29184,
          "time": 28.5,
          "velocity": 0.3937007874015748
        },
        {
          "duration": 0.1875,
          "durationTicks": 192,
          "midi": 38,
          "name": "D2",
          "ticks": 29376,
          "time": 28.6875,
          "velocity": 0.3937007874015748
        },
        {
          "duration": 0.1875,
          "durationTicks": 192,
          "midi": 35,
          "name": "B1",
          "ticks": 29376,
          "time": 28.6875,
          "velocity": 0.3937007874015748
        },
        {
          "duration": 0.09375,
          "durationTicks": 96,
          "midi": 44,
          "name": "G#2",
          "ticks": 29568,
          "time": 28.875,
          "velocity": 0.3937007874015748
        },
        {
          "duration": 0.09375,
          "durationTicks": 96,
          "midi": 51,
          "name": "D#3",
          "ticks": 29568,
          "time": 28.875,
          "velocity": 0.3937007874015748
        },
        {
          "duration": 0.1875,
          "durationTicks": 192,
          "midi": 35,
          "name": "B1",
          "ticks": 29664,
          "time": 28.96875,
          "velocity": 0.3937007874015748
        },
        {
          "duration": 0.1875,
          "durationTicks": 192,
          "midi": 38,
          "name": "D2",
          "ticks": 29664,
          "time": 28.96875,
          "velocity": 0.3937007874015748
        },
        {
          "duration": 0.09375,
          "durationTicks": 96,
          "midi": 51,
          "name": "D#3",
          "ticks": 29952,
          "time": 29.25,
          "velocity": 0.3937007874015748
        },
        {
          "duration": 0.09375,
          "durationTicks": 96,
          "midi": 44,
          "name": "G#2",
          "ticks": 29952,
          "time": 29.25,
          "velocity": 0.3937007874015748
        },
        {
          "duration": 0.1875,
          "durationTicks": 192,
          "midi": 35,
          "name": "B1",
          "ticks": 29952,
          "time": 29.25,
          "velocity": 0.3937007874015748
        },
        {
          "duration": 0.1875,
          "durationTicks": 192,
          "midi": 38,
          "name": "D2",
          "ticks": 29952,
          "time": 29.25,
          "velocity": 0.3937007874015748
        },
        {
          "duration": 0.09375,
          "durationTicks": 96,
          "midi": 44,
          "name": "G#2",
          "ticks": 30336,
          "time": 29.625,
          "velocity": 0.3937007874015748
        },
        {
          "duration": 0.09375,
          "durationTicks": 96,
          "midi": 51,
          "name": "D#3",
          "ticks": 30336,
          "time": 29.625,
          "velocity": 0.3937007874015748
        },
        {
          "duration": 0.09375,
          "durationTicks": 96,
          "midi": 38,
          "name": "D2",
          "ticks": 30720,
          "time": 30,
          "velocity": 0.3937007874015748
        },
        {
          "duration": 0.09375,
          "durationTicks": 96,
          "midi": 44,
          "name": "G#2",
          "ticks": 30720,
          "time": 30,
          "velocity": 0.3937007874015748
        },
        {
          "duration": 0.09375,
          "durationTicks": 96,
          "midi": 38,
          "name": "D2",
          "ticks": 30720,
          "time": 30,
          "velocity": 0.3937007874015748
        },
        {
          "duration": 0.09375,
          "durationTicks": 96,
          "midi": 44,
          "name": "G#2",
          "ticks": 30720,
          "time": 30,
          "velocity": 0.3937007874015748
        },
        {
          "duration": 0.09375,
          "durationTicks": 96,
          "midi": 51,
          "name": "D#3",
          "ticks": 30720,
          "time": 30,
          "velocity": 0.3937007874015748
        },
        {
          "duration": 0.09375,
          "durationTicks": 96,
          "midi": 38,
          "name": "D2",
          "ticks": 30720,
          "time": 30,
          "velocity": 0.3937007874015748
        },
        {
          "duration": 0.09375,
          "durationTicks": 96,
          "midi": 44,
          "name": "G#2",
          "ticks": 30720,
          "time": 30,
          "velocity": 0.3937007874015748
        },
        {
          "duration": 0.09375,
          "durationTicks": 96,
          "midi": 51,
          "name": "D#3",
          "ticks": 31104,
          "time": 30.375,
          "velocity": 0.3937007874015748
        },
        {
          "duration": 0.09375,
          "durationTicks": 96,
          "midi": 44,
          "name": "G#2",
          "ticks": 31104,
          "time": 30.375,
          "velocity": 0.3937007874015748
        },
        {
          "duration": 0.09375,
          "durationTicks": 96,
          "midi": 44,
          "name": "G#2",
          "ticks": 31488,
          "time": 30.75,
          "velocity": 0.3937007874015748
        },
        {
          "duration": 0.09375,
          "durationTicks": 96,
          "midi": 51,
          "name": "D#3",
          "ticks": 31488,
          "time": 30.75,
          "velocity": 0.3937007874015748
        },
        {
          "duration": 0.09375,
          "durationTicks": 96,
          "midi": 51,
          "name": "D#3",
          "ticks": 31872,
          "time": 31.125,
          "velocity": 0.3937007874015748
        },
        {
          "duration": 0.09375,
          "durationTicks": 96,
          "midi": 44,
          "name": "G#2",
          "ticks": 31872,
          "time": 31.125,
          "velocity": 0.3937007874015748
        },
        {
          "duration": 0.09375,
          "durationTicks": 96,
          "midi": 44,
          "name": "G#2",
          "ticks": 32256,
          "time": 31.5,
          "velocity": 0.3937007874015748
        },
        {
          "duration": 0.09375,
          "durationTicks": 96,
          "midi": 51,
          "name": "D#3",
          "ticks": 32256,
          "time": 31.5,
          "velocity": 0.3937007874015748
        },
        {
          "duration": 0.09375,
          "durationTicks": 96,
          "midi": 51,
          "name": "D#3",
          "ticks": 32640,
          "time": 31.875,
          "velocity": 0.3937007874015748
        },
        {
          "duration": 0.09375,
          "durationTicks": 96,
          "midi": 44,
          "name": "G#2",
          "ticks": 32640,
          "time": 31.875,
          "velocity": 0.3937007874015748
        },
        {
          "duration": 0.09375,
          "durationTicks": 96,
          "midi": 51,
          "name": "D#3",
          "ticks": 33024,
          "time": 32.25,
          "velocity": 0.3937007874015748
        },
        {
          "duration": 0.09375,
          "durationTicks": 96,
          "midi": 44,
          "name": "G#2",
          "ticks": 33024,
          "time": 32.25,
          "velocity": 0.3937007874015748
        },
        {
          "duration": 0.09375,
          "durationTicks": 96,
          "midi": 44,
          "name": "G#2",
          "ticks": 33408,
          "time": 32.625,
          "velocity": 0.3937007874015748
        },
        {
          "duration": 0.09375,
          "durationTicks": 96,
          "midi": 51,
          "name": "D#3",
          "ticks": 33408,
          "time": 32.625,
          "velocity": 0.3937007874015748
        },
        {
          "duration": 0.09375,
          "durationTicks": 96,
          "midi": 44,
          "name": "G#2",
          "ticks": 33792,
          "time": 33,
          "velocity": 0.3937007874015748
        },
        {
          "duration": 0.09375,
          "durationTicks": 96,
          "midi": 51,
          "name": "D#3",
          "ticks": 33792,
          "time": 33,
          "velocity": 0.3937007874015748
        },
        {
          "duration": 0.09375,
          "durationTicks": 96,
          "midi": 44,
          "name": "G#2",
          "ticks": 34176,
          "time": 33.375,
          "velocity": 0.3937007874015748
        },
        {
          "duration": 0.09375,
          "durationTicks": 96,
          "midi": 51,
          "name": "D#3",
          "ticks": 34176,
          "time": 33.375,
          "velocity": 0.3937007874015748
        },
        {
          "duration": 0.09375,
          "durationTicks": 96,
          "midi": 44,
          "name": "G#2",
          "ticks": 34560,
          "time": 33.75,
          "velocity": 0.3937007874015748
        },
        {
          "duration": 0.09375,
          "durationTicks": 96,
          "midi": 51,
          "name": "D#3",
          "ticks": 34560,
          "time": 33.75,
          "velocity": 0.3937007874015748
        },
        {
          "duration": 0.09375,
          "durationTicks": 96,
          "midi": 44,
          "name": "G#2",
          "ticks": 34944,
          "time": 34.125,
          "velocity": 0.3937007874015748
        },
        {
          "duration": 0.09375,
          "durationTicks": 96,
          "midi": 51,
          "name": "D#3",
          "ticks": 34944,
          "time": 34.125,
          "velocity": 0.3937007874015748
        },
        {
          "duration": 0.09375,
          "durationTicks": 96,
          "midi": 44,
          "name": "G#2",
          "ticks": 35328,
          "time": 34.5,
          "velocity": 0.3937007874015748
        },
        {
          "duration": 0.09375,
          "durationTicks": 96,
          "midi": 51,
          "name": "D#3",
          "ticks": 35328,
          "time": 34.5,
          "velocity": 0.3937007874015748
        },
        {
          "duration": 0.09375,
          "durationTicks": 96,
          "midi": 44,
          "name": "G#2",
          "ticks": 35712,
          "time": 34.875,
          "velocity": 0.3937007874015748
        },
        {
          "duration": 0.09375,
          "durationTicks": 96,
          "midi": 51,
          "name": "D#3",
          "ticks": 35712,
          "time": 34.875,
          "velocity": 0.3937007874015748
        },
        {
          "duration": 0.09375,
          "durationTicks": 96,
          "midi": 44,
          "name": "G#2",
          "ticks": 36096,
          "time": 35.25,
          "velocity": 0.3937007874015748
        },
        {
          "duration": 0.09375,
          "durationTicks": 96,
          "midi": 51,
          "name": "D#3",
          "ticks": 36096,
          "time": 35.25,
          "velocity": 0.3937007874015748
        },
        {
          "duration": 0.09375,
          "durationTicks": 96,
          "midi": 44,
          "name": "G#2",
          "ticks": 36480,
          "time": 35.625,
          "velocity": 0.3937007874015748
        },
        {
          "duration": 0.09375,
          "durationTicks": 96,
          "midi": 51,
          "name": "D#3",
          "ticks": 36480,
          "time": 35.625,
          "velocity": 0.3937007874015748
        },
        {
          "duration": 0.09375,
          "durationTicks": 96,
          "midi": 43,
          "name": "G2",
          "ticks": 36864,
          "time": 36,
          "velocity": 0.3937007874015748
        },
        {
          "duration": 0.09375,
          "durationTicks": 96,
          "midi": 38,
          "name": "D2",
          "ticks": 36864,
          "time": 36,
          "velocity": 0.3937007874015748
        },
        {
          "duration": 0.09375,
          "durationTicks": 96,
          "midi": 43,
          "name": "G2",
          "ticks": 36864,
          "time": 36,
          "velocity": 0.3937007874015748
        },
        {
          "duration": 0.09375,
          "durationTicks": 96,
          "midi": 38,
          "name": "D2",
          "ticks": 36864,
          "time": 36,
          "velocity": 0.3937007874015748
        },
        {
          "duration": 0.09375,
          "durationTicks": 96,
          "midi": 51,
          "name": "D#3",
          "ticks": 36864,
          "time": 36,
          "velocity": 0.3937007874015748
        },
        {
          "duration": 0.09375,
          "durationTicks": 96,
          "midi": 38,
          "name": "D2",
          "ticks": 36864,
          "time": 36,
          "velocity": 0.3937007874015748
        },
        {
          "duration": 0.09375,
          "durationTicks": 96,
          "midi": 43,
          "name": "G2",
          "ticks": 36864,
          "time": 36,
          "velocity": 0.3937007874015748
        },
        {
          "duration": 0.09375,
          "durationTicks": 96,
          "midi": 51,
          "name": "D#3",
          "ticks": 37248,
          "time": 36.375,
          "velocity": 0.3937007874015748
        },
        {
          "duration": 0.09375,
          "durationTicks": 96,
          "midi": 44,
          "name": "G#2",
          "ticks": 37248,
          "time": 36.375,
          "velocity": 0.3937007874015748
        },
        {
          "duration": 0.09375,
          "durationTicks": 96,
          "midi": 51,
          "name": "D#3",
          "ticks": 37632,
          "time": 36.75,
          "velocity": 0.3937007874015748
        },
        {
          "duration": 0.09375,
          "durationTicks": 96,
          "midi": 44,
          "name": "G#2",
          "ticks": 37632,
          "time": 36.75,
          "velocity": 0.3937007874015748
        },
        {
          "duration": 0.09375,
          "durationTicks": 96,
          "midi": 51,
          "name": "D#3",
          "ticks": 38016,
          "time": 37.125,
          "velocity": 0.3937007874015748
        },
        {
          "duration": 0.09375,
          "durationTicks": 96,
          "midi": 44,
          "name": "G#2",
          "ticks": 38016,
          "time": 37.125,
          "velocity": 0.3937007874015748
        },
        {
          "duration": 0.09375,
          "durationTicks": 96,
          "midi": 44,
          "name": "G#2",
          "ticks": 38400,
          "time": 37.5,
          "velocity": 0.3937007874015748
        },
        {
          "duration": 0.09375,
          "durationTicks": 96,
          "midi": 51,
          "name": "D#3",
          "ticks": 38400,
          "time": 37.5,
          "velocity": 0.3937007874015748
        },
        {
          "duration": 0.09375,
          "durationTicks": 96,
          "midi": 44,
          "name": "G#2",
          "ticks": 38784,
          "time": 37.875,
          "velocity": 0.3937007874015748
        },
        {
          "duration": 0.09375,
          "durationTicks": 96,
          "midi": 51,
          "name": "D#3",
          "ticks": 38784,
          "time": 37.875,
          "velocity": 0.3937007874015748
        },
        {
          "duration": 0.09375,
          "durationTicks": 96,
          "midi": 51,
          "name": "D#3",
          "ticks": 39168,
          "time": 38.25,
          "velocity": 0.3937007874015748
        },
        {
          "duration": 0.09375,
          "durationTicks": 96,
          "midi": 44,
          "name": "G#2",
          "ticks": 39168,
          "time": 38.25,
          "velocity": 0.3937007874015748
        },
        {
          "duration": 0.09375,
          "durationTicks": 96,
          "midi": 51,
          "name": "D#3",
          "ticks": 39552,
          "time": 38.625,
          "velocity": 0.3937007874015748
        },
        {
          "duration": 0.09375,
          "durationTicks": 96,
          "midi": 44,
          "name": "G#2",
          "ticks": 39552,
          "time": 38.625,
          "velocity": 0.3937007874015748
        },
        {
          "duration": 0.09375,
          "durationTicks": 96,
          "midi": 44,
          "name": "G#2",
          "ticks": 39936,
          "time": 39,
          "velocity": 0.3937007874015748
        },
        {
          "duration": 0.09375,
          "durationTicks": 96,
          "midi": 51,
          "name": "D#3",
          "ticks": 39936,
          "time": 39,
          "velocity": 0.3937007874015748
        },
        {
          "duration": 0.09375,
          "durationTicks": 96,
          "midi": 51,
          "name": "D#3",
          "ticks": 40320,
          "time": 39.375,
          "velocity": 0.3937007874015748
        },
        {
          "duration": 0.09375,
          "durationTicks": 96,
          "midi": 44,
          "name": "G#2",
          "ticks": 40320,
          "time": 39.375,
          "velocity": 0.3937007874015748
        },
        {
          "duration": 0.09375,
          "durationTicks": 96,
          "midi": 51,
          "name": "D#3",
          "ticks": 40704,
          "time": 39.75,
          "velocity": 0.3937007874015748
        },
        {
          "duration": 0.09375,
          "durationTicks": 96,
          "midi": 44,
          "name": "G#2",
          "ticks": 40704,
          "time": 39.75,
          "velocity": 0.3937007874015748
        },
        {
          "duration": 0.09375,
          "durationTicks": 96,
          "midi": 51,
          "name": "D#3",
          "ticks": 41088,
          "time": 40.125,
          "velocity": 0.3937007874015748
        },
        {
          "duration": 0.09375,
          "durationTicks": 96,
          "midi": 44,
          "name": "G#2",
          "ticks": 41088,
          "time": 40.125,
          "velocity": 0.3937007874015748
        },
        {
          "duration": 0.09375,
          "durationTicks": 96,
          "midi": 51,
          "name": "D#3",
          "ticks": 41472,
          "time": 40.5,
          "velocity": 0.3937007874015748
        },
        {
          "duration": 0.09375,
          "durationTicks": 96,
          "midi": 44,
          "name": "G#2",
          "ticks": 41472,
          "time": 40.5,
          "velocity": 0.3937007874015748
        },
        {
          "duration": 0.09375,
          "durationTicks": 96,
          "midi": 44,
          "name": "G#2",
          "ticks": 41856,
          "time": 40.875,
          "velocity": 0.3937007874015748
        },
        {
          "duration": 0.09375,
          "durationTicks": 96,
          "midi": 44,
          "name": "G#2",
          "ticks": 42240,
          "time": 41.25,
          "velocity": 0.3937007874015748
        },
        {
          "duration": 0.09375,
          "durationTicks": 96,
          "midi": 51,
          "name": "D#3",
          "ticks": 42240,
          "time": 41.25,
          "velocity": 0.3937007874015748
        },
        {
          "duration": 0.09375,
          "durationTicks": 96,
          "midi": 51,
          "name": "D#3",
          "ticks": 42624,
          "time": 41.625,
          "velocity": 0.3937007874015748
        },
        {
          "duration": 0.09375,
          "durationTicks": 96,
          "midi": 44,
          "name": "G#2",
          "ticks": 42624,
          "time": 41.625,
          "velocity": 0.3937007874015748
        },
        {
          "duration": 0.09375,
          "durationTicks": 96,
          "midi": 38,
          "name": "D2",
          "ticks": 43008,
          "time": 42,
          "velocity": 0.3937007874015748
        },
        {
          "duration": 0.09375,
          "durationTicks": 96,
          "midi": 43,
          "name": "G2",
          "ticks": 43008,
          "time": 42,
          "velocity": 0.3937007874015748
        },
        {
          "duration": 0.09375,
          "durationTicks": 96,
          "midi": 38,
          "name": "D2",
          "ticks": 43008,
          "time": 42,
          "velocity": 0.3937007874015748
        },
        {
          "duration": 0.09375,
          "durationTicks": 96,
          "midi": 38,
          "name": "D2",
          "ticks": 43008,
          "time": 42,
          "velocity": 0.3937007874015748
        },
        {
          "duration": 0.09375,
          "durationTicks": 96,
          "midi": 43,
          "name": "G2",
          "ticks": 43008,
          "time": 42,
          "velocity": 0.3937007874015748
        },
        {
          "duration": 0.09375,
          "durationTicks": 96,
          "midi": 43,
          "name": "G2",
          "ticks": 43008,
          "time": 42,
          "velocity": 0.3937007874015748
        },
        {
          "duration": 0.09375,
          "durationTicks": 96,
          "midi": 51,
          "name": "D#3",
          "ticks": 43008,
          "time": 42,
          "velocity": 0.3937007874015748
        },
        {
          "duration": 0.09375,
          "durationTicks": 96,
          "midi": 44,
          "name": "G#2",
          "ticks": 43392,
          "time": 42.375,
          "velocity": 0.3937007874015748
        },
        {
          "duration": 0.09375,
          "durationTicks": 96,
          "midi": 51,
          "name": "D#3",
          "ticks": 43392,
          "time": 42.375,
          "velocity": 0.3937007874015748
        },
        {
          "duration": 0.09375,
          "durationTicks": 96,
          "midi": 51,
          "name": "D#3",
          "ticks": 43776,
          "time": 42.75,
          "velocity": 0.3937007874015748
        },
        {
          "duration": 0.09375,
          "durationTicks": 96,
          "midi": 44,
          "name": "G#2",
          "ticks": 43776,
          "time": 42.75,
          "velocity": 0.3937007874015748
        },
        {
          "duration": 0.09375,
          "durationTicks": 96,
          "midi": 51,
          "name": "D#3",
          "ticks": 44160,
          "time": 43.125,
          "velocity": 0.3937007874015748
        },
        {
          "duration": 0.09375,
          "durationTicks": 96,
          "midi": 44,
          "name": "G#2",
          "ticks": 44160,
          "time": 43.125,
          "velocity": 0.3937007874015748
        },
        {
          "duration": 0.09375,
          "durationTicks": 96,
          "midi": 44,
          "name": "G#2",
          "ticks": 44544,
          "time": 43.5,
          "velocity": 0.3937007874015748
        },
        {
          "duration": 0.09375,
          "durationTicks": 96,
          "midi": 51,
          "name": "D#3",
          "ticks": 44544,
          "time": 43.5,
          "velocity": 0.3937007874015748
        },
        {
          "duration": 0.09375,
          "durationTicks": 96,
          "midi": 51,
          "name": "D#3",
          "ticks": 44928,
          "time": 43.875,
          "velocity": 0.3937007874015748
        },
        {
          "duration": 0.09375,
          "durationTicks": 96,
          "midi": 44,
          "name": "G#2",
          "ticks": 44928,
          "time": 43.875,
          "velocity": 0.3937007874015748
        },
        {
          "duration": 0.09375,
          "durationTicks": 96,
          "midi": 51,
          "name": "D#3",
          "ticks": 45312,
          "time": 44.25,
          "velocity": 0.3937007874015748
        },
        {
          "duration": 0.09375,
          "durationTicks": 96,
          "midi": 44,
          "name": "G#2",
          "ticks": 45312,
          "time": 44.25,
          "velocity": 0.3937007874015748
        },
        {
          "duration": 0.09375,
          "durationTicks": 96,
          "midi": 44,
          "name": "G#2",
          "ticks": 45696,
          "time": 44.625,
          "velocity": 0.3937007874015748
        },
        {
          "duration": 0.09375,
          "durationTicks": 96,
          "midi": 51,
          "name": "D#3",
          "ticks": 45696,
          "time": 44.625,
          "velocity": 0.3937007874015748
        },
        {
          "duration": 0.09375,
          "durationTicks": 96,
          "midi": 44,
          "name": "G#2",
          "ticks": 46080,
          "time": 45,
          "velocity": 0.3937007874015748
        },
        {
          "duration": 0.09375,
          "durationTicks": 96,
          "midi": 51,
          "name": "D#3",
          "ticks": 46080,
          "time": 45,
          "velocity": 0.3937007874015748
        },
        {
          "duration": 0.09375,
          "durationTicks": 96,
          "midi": 44,
          "name": "G#2",
          "ticks": 46464,
          "time": 45.375,
          "velocity": 0.3937007874015748
        },
        {
          "duration": 0.09375,
          "durationTicks": 96,
          "midi": 51,
          "name": "D#3",
          "ticks": 46464,
          "time": 45.375,
          "velocity": 0.3937007874015748
        },
        {
          "duration": 0.09375,
          "durationTicks": 96,
          "midi": 51,
          "name": "D#3",
          "ticks": 46848,
          "time": 45.75,
          "velocity": 0.3937007874015748
        },
        {
          "duration": 0.09375,
          "durationTicks": 96,
          "midi": 44,
          "name": "G#2",
          "ticks": 46848,
          "time": 45.75,
          "velocity": 0.3937007874015748
        },
        {
          "duration": 0.09375,
          "durationTicks": 96,
          "midi": 44,
          "name": "G#2",
          "ticks": 47232,
          "time": 46.125,
          "velocity": 0.3937007874015748
        },
        {
          "duration": 0.09375,
          "durationTicks": 96,
          "midi": 51,
          "name": "D#3",
          "ticks": 47232,
          "time": 46.125,
          "velocity": 0.3937007874015748
        },
        {
          "duration": 0.09375,
          "durationTicks": 96,
          "midi": 51,
          "name": "D#3",
          "ticks": 47616,
          "time": 46.5,
          "velocity": 0.3937007874015748
        },
        {
          "duration": 0.09375,
          "durationTicks": 96,
          "midi": 44,
          "name": "G#2",
          "ticks": 47616,
          "time": 46.5,
          "velocity": 0.3937007874015748
        },
        {
          "duration": 0.09375,
          "durationTicks": 96,
          "midi": 44,
          "name": "G#2",
          "ticks": 48000,
          "time": 46.875,
          "velocity": 0.3937007874015748
        },
        {
          "duration": 0.09375,
          "durationTicks": 96,
          "midi": 51,
          "name": "D#3",
          "ticks": 48000,
          "time": 46.875,
          "velocity": 0.3937007874015748
        },
        {
          "duration": 0.09375,
          "durationTicks": 96,
          "midi": 44,
          "name": "G#2",
          "ticks": 48384,
          "time": 47.25,
          "velocity": 0.3937007874015748
        },
        {
          "duration": 0.09375,
          "durationTicks": 96,
          "midi": 51,
          "name": "D#3",
          "ticks": 48384,
          "time": 47.25,
          "velocity": 0.3937007874015748
        },
        {
          "duration": 0.09375,
          "durationTicks": 96,
          "midi": 51,
          "name": "D#3",
          "ticks": 48768,
          "time": 47.625,
          "velocity": 0.3937007874015748
        },
        {
          "duration": 0.09375,
          "durationTicks": 96,
          "midi": 44,
          "name": "G#2",
          "ticks": 48768,
          "time": 47.625,
          "velocity": 0.3937007874015748
        },
        {
          "duration": 0.09375,
          "durationTicks": 96,
          "midi": 43,
          "name": "G2",
          "ticks": 49152,
          "time": 48,
          "velocity": 0.3937007874015748
        },
        {
          "duration": 0.09375,
          "durationTicks": 96,
          "midi": 38,
          "name": "D2",
          "ticks": 49152,
          "time": 48,
          "velocity": 0.3937007874015748
        },
        {
          "duration": 0.09375,
          "durationTicks": 96,
          "midi": 43,
          "name": "G2",
          "ticks": 49152,
          "time": 48,
          "velocity": 0.3937007874015748
        },
        {
          "duration": 0.09375,
          "durationTicks": 96,
          "midi": 43,
          "name": "G2",
          "ticks": 49152,
          "time": 48,
          "velocity": 0.3937007874015748
        },
        {
          "duration": 0.09375,
          "durationTicks": 96,
          "midi": 51,
          "name": "D#3",
          "ticks": 49152,
          "time": 48,
          "velocity": 0.3937007874015748
        },
        {
          "duration": 0.09375,
          "durationTicks": 96,
          "midi": 38,
          "name": "D2",
          "ticks": 49152,
          "time": 48,
          "velocity": 0.3937007874015748
        },
        {
          "duration": 0.09375,
          "durationTicks": 96,
          "midi": 38,
          "name": "D2",
          "ticks": 49152,
          "time": 48,
          "velocity": 0.3937007874015748
        },
        {
          "duration": 0.09375,
          "durationTicks": 96,
          "midi": 51,
          "name": "D#3",
          "ticks": 49536,
          "time": 48.375,
          "velocity": 0.3937007874015748
        },
        {
          "duration": 0.09375,
          "durationTicks": 96,
          "midi": 44,
          "name": "G#2",
          "ticks": 49536,
          "time": 48.375,
          "velocity": 0.3937007874015748
        },
        {
          "duration": 0.09375,
          "durationTicks": 96,
          "midi": 51,
          "name": "D#3",
          "ticks": 49920,
          "time": 48.75,
          "velocity": 0.3937007874015748
        },
        {
          "duration": 0.09375,
          "durationTicks": 96,
          "midi": 44,
          "name": "G#2",
          "ticks": 49920,
          "time": 48.75,
          "velocity": 0.3937007874015748
        },
        {
          "duration": 0.09375,
          "durationTicks": 96,
          "midi": 44,
          "name": "G#2",
          "ticks": 50304,
          "time": 49.125,
          "velocity": 0.3937007874015748
        },
        {
          "duration": 0.09375,
          "durationTicks": 96,
          "midi": 51,
          "name": "D#3",
          "ticks": 50304,
          "time": 49.125,
          "velocity": 0.3937007874015748
        },
        {
          "duration": 0.09375,
          "durationTicks": 96,
          "midi": 51,
          "name": "D#3",
          "ticks": 50688,
          "time": 49.5,
          "velocity": 0.3937007874015748
        },
        {
          "duration": 0.09375,
          "durationTicks": 96,
          "midi": 44,
          "name": "G#2",
          "ticks": 50688,
          "time": 49.5,
          "velocity": 0.3937007874015748
        },
        {
          "duration": 0.09375,
          "durationTicks": 96,
          "midi": 44,
          "name": "G#2",
          "ticks": 51072,
          "time": 49.875,
          "velocity": 0.3937007874015748
        },
        {
          "duration": 0.09375,
          "durationTicks": 96,
          "midi": 51,
          "name": "D#3",
          "ticks": 51072,
          "time": 49.875,
          "velocity": 0.3937007874015748
        },
        {
          "duration": 0.09375,
          "durationTicks": 96,
          "midi": 44,
          "name": "G#2",
          "ticks": 51456,
          "time": 50.25,
          "velocity": 0.3937007874015748
        },
        {
          "duration": 0.09375,
          "durationTicks": 96,
          "midi": 51,
          "name": "D#3",
          "ticks": 51456,
          "time": 50.25,
          "velocity": 0.3937007874015748
        },
        {
          "duration": 0.09375,
          "durationTicks": 96,
          "midi": 44,
          "name": "G#2",
          "ticks": 51840,
          "time": 50.625,
          "velocity": 0.3937007874015748
        },
        {
          "duration": 0.09375,
          "durationTicks": 96,
          "midi": 51,
          "name": "D#3",
          "ticks": 51840,
          "time": 50.625,
          "velocity": 0.3937007874015748
        },
        {
          "duration": 0.09375,
          "durationTicks": 96,
          "midi": 51,
          "name": "D#3",
          "ticks": 52224,
          "time": 51,
          "velocity": 0.3937007874015748
        },
        {
          "duration": 0.09375,
          "durationTicks": 96,
          "midi": 44,
          "name": "G#2",
          "ticks": 52224,
          "time": 51,
          "velocity": 0.3937007874015748
        },
        {
          "duration": 0.09375,
          "durationTicks": 96,
          "midi": 44,
          "name": "G#2",
          "ticks": 52608,
          "time": 51.375,
          "velocity": 0.3937007874015748
        },
        {
          "duration": 0.09375,
          "durationTicks": 96,
          "midi": 51,
          "name": "D#3",
          "ticks": 52608,
          "time": 51.375,
          "velocity": 0.3937007874015748
        },
        {
          "duration": 0.09375,
          "durationTicks": 96,
          "midi": 44,
          "name": "G#2",
          "ticks": 52992,
          "time": 51.75,
          "velocity": 0.3937007874015748
        },
        {
          "duration": 0.09375,
          "durationTicks": 96,
          "midi": 51,
          "name": "D#3",
          "ticks": 52992,
          "time": 51.75,
          "velocity": 0.3937007874015748
        },
        {
          "duration": 0.09375,
          "durationTicks": 96,
          "midi": 51,
          "name": "D#3",
          "ticks": 53376,
          "time": 52.125,
          "velocity": 0.3937007874015748
        },
        {
          "duration": 0.09375,
          "durationTicks": 96,
          "midi": 44,
          "name": "G#2",
          "ticks": 53376,
          "time": 52.125,
          "velocity": 0.3937007874015748
        },
        {
          "duration": 0.09375,
          "durationTicks": 96,
          "midi": 52,
          "name": "E3",
          "ticks": 53760,
          "time": 52.5,
          "velocity": 0.3937007874015748
        },
        {
          "duration": 0.09375,
          "durationTicks": 96,
          "midi": 35,
          "name": "B1",
          "ticks": 53760,
          "time": 52.5,
          "velocity": 0.3937007874015748
        },
        {
          "duration": 0.09375,
          "durationTicks": 96,
          "midi": 36,
          "name": "C2",
          "ticks": 53760,
          "time": 52.5,
          "velocity": 0.3937007874015748
        },
        {
          "duration": 0.09375,
          "durationTicks": 96,
          "midi": 40,
          "name": "E2",
          "ticks": 53760,
          "time": 52.5,
          "velocity": 0.3937007874015748
        },
        {
          "duration": 0.09375,
          "durationTicks": 96,
          "midi": 43,
          "name": "G2",
          "ticks": 54048,
          "time": 52.78125,
          "velocity": 0.3937007874015748
        },
        {
          "duration": 0.09375,
          "durationTicks": 96,
          "midi": 36,
          "name": "C2",
          "ticks": 54048,
          "time": 52.78125,
          "velocity": 0.3937007874015748
        },
        {
          "duration": 0.09375,
          "durationTicks": 96,
          "midi": 35,
          "name": "B1",
          "ticks": 54048,
          "time": 52.78125,
          "velocity": 0.3937007874015748
        },
        {
          "duration": 0.09375,
          "durationTicks": 96,
          "midi": 35,
          "name": "B1",
          "ticks": 54336,
          "time": 53.0625,
          "velocity": 0.3937007874015748
        },
        {
          "duration": 0.09375,
          "durationTicks": 96,
          "midi": 43,
          "name": "G2",
          "ticks": 54336,
          "time": 53.0625,
          "velocity": 0.3937007874015748
        },
        {
          "duration": 0.09375,
          "durationTicks": 96,
          "midi": 36,
          "name": "C2",
          "ticks": 54336,
          "time": 53.0625,
          "velocity": 0.3937007874015748
        },
        {
          "duration": 0.125,
          "durationTicks": 128,
          "midi": 38,
          "name": "D2",
          "ticks": 54528,
          "time": 53.25,
          "velocity": 0.3937007874015748
        },
        {
          "duration": 0.125,
          "durationTicks": 128,
          "midi": 38,
          "name": "D2",
          "ticks": 54656,
          "time": 53.375,
          "velocity": 0.3937007874015748
        },
        {
          "duration": 0.125,
          "durationTicks": 128,
          "midi": 38,
          "name": "D2",
          "ticks": 54784,
          "time": 53.5,
          "velocity": 0.3937007874015748
        },
        {
          "duration": 0.125,
          "durationTicks": 128,
          "midi": 35,
          "name": "B1",
          "ticks": 54912,
          "time": 53.625,
          "velocity": 0.3937007874015748
        },
        {
          "duration": 0.125,
          "durationTicks": 128,
          "midi": 35,
          "name": "B1",
          "ticks": 55040,
          "time": 53.75,
          "velocity": 0.3937007874015748
        },
        {
          "duration": 0.125,
          "durationTicks": 128,
          "midi": 35,
          "name": "B1",
          "ticks": 55168,
          "time": 53.875,
          "velocity": 0.3937007874015748
        },
        {
          "duration": 0.1875,
          "durationTicks": 192,
          "midi": 49,
          "name": "C#3",
          "ticks": 55296,
          "time": 54,
          "velocity": 0.3937007874015748
        },
        {
          "duration": 0.1875,
          "durationTicks": 192,
          "midi": 57,
          "name": "A3",
          "ticks": 55296,
          "time": 54,
          "velocity": 0.3937007874015748
        },
        {
          "duration": 0.1875,
          "durationTicks": 192,
          "midi": 57,
          "name": "A3",
          "ticks": 55296,
          "time": 54,
          "velocity": 0.3937007874015748
        },
        {
          "duration": 0.1875,
          "durationTicks": 192,
          "midi": 49,
          "name": "C#3",
          "ticks": 55296,
          "time": 54,
          "velocity": 0.3937007874015748
        },
        {
          "duration": 0.1875,
          "durationTicks": 192,
          "midi": 35,
          "name": "B1",
          "ticks": 55296,
          "time": 54,
          "velocity": 0.3937007874015748
        },
        {
          "duration": 0.1875,
          "durationTicks": 192,
          "midi": 36,
          "name": "C2",
          "ticks": 55296,
          "time": 54,
          "velocity": 0.3937007874015748
        },
        {
          "duration": 0.09375,
          "durationTicks": 96,
          "midi": 42,
          "name": "F#2",
          "ticks": 55680,
          "time": 54.375,
          "velocity": 0.3937007874015748
        },
        {
          "duration": 0.09375,
          "durationTicks": 96,
          "midi": 42,
          "name": "F#2",
          "ticks": 55776,
          "time": 54.46875,
          "velocity": 0.3937007874015748
        },
        {
          "duration": 0.1875,
          "durationTicks": 192,
          "midi": 35,
          "name": "B1",
          "ticks": 55872,
          "time": 54.5625,
          "velocity": 0.3937007874015748
        },
        {
          "duration": 0.1875,
          "durationTicks": 192,
          "midi": 36,
          "name": "C2",
          "ticks": 55872,
          "time": 54.5625,
          "velocity": 0.3937007874015748
        },
        {
          "duration": 0.09375,
          "durationTicks": 96,
          "midi": 42,
          "name": "F#2",
          "ticks": 56256,
          "time": 54.9375,
          "velocity": 0.3937007874015748
        },
        {
          "duration": 0.09375,
          "durationTicks": 96,
          "midi": 42,
          "name": "F#2",
          "ticks": 56352,
          "time": 55.03125,
          "velocity": 0.3937007874015748
        },
        {
          "duration": 0.1875,
          "durationTicks": 192,
          "midi": 35,
          "name": "B1",
          "ticks": 56448,
          "time": 55.125,
          "velocity": 0.3937007874015748
        },
        {
          "duration": 0.1875,
          "durationTicks": 192,
          "midi": 36,
          "name": "C2",
          "ticks": 56448,
          "time": 55.125,
          "velocity": 0.3937007874015748
        },
        {
          "duration": 0.09375,
          "durationTicks": 96,
          "midi": 42,
          "name": "F#2",
          "ticks": 56640,
          "time": 55.3125,
          "velocity": 0.3937007874015748
        },
        {
          "duration": 0.09375,
          "durationTicks": 96,
          "midi": 42,
          "name": "F#2",
          "ticks": 56736,
          "time": 55.40625,
          "velocity": 0.3937007874015748
        },
        {
          "duration": 0.1875,
          "durationTicks": 192,
          "midi": 36,
          "name": "C2",
          "ticks": 56832,
          "time": 55.5,
          "velocity": 0.3937007874015748
        },
        {
          "duration": 0.1875,
          "durationTicks": 192,
          "midi": 35,
          "name": "B1",
          "ticks": 56832,
          "time": 55.5,
          "velocity": 0.3937007874015748
        },
        {
          "duration": 0.09375,
          "durationTicks": 96,
          "midi": 42,
          "name": "F#2",
          "ticks": 57216,
          "time": 55.875,
          "velocity": 0.3937007874015748
        },
        {
          "duration": 0.09375,
          "durationTicks": 96,
          "midi": 42,
          "name": "F#2",
          "ticks": 57312,
          "time": 55.96875,
          "velocity": 0.3937007874015748
        },
        {
          "duration": 0.1875,
          "durationTicks": 192,
          "midi": 35,
          "name": "B1",
          "ticks": 57408,
          "time": 56.0625,
          "velocity": 0.3937007874015748
        },
        {
          "duration": 0.1875,
          "durationTicks": 192,
          "midi": 36,
          "name": "C2",
          "ticks": 57408,
          "time": 56.0625,
          "velocity": 0.3937007874015748
        },
        {
          "duration": 0.09375,
          "durationTicks": 96,
          "midi": 42,
          "name": "F#2",
          "ticks": 57792,
          "time": 56.4375,
          "velocity": 0.3937007874015748
        },
        {
          "duration": 0.09375,
          "durationTicks": 96,
          "midi": 42,
          "name": "F#2",
          "ticks": 57888,
          "time": 56.53125,
          "velocity": 0.3937007874015748
        },
        {
          "duration": 0.1875,
          "durationTicks": 192,
          "midi": 35,
          "name": "B1",
          "ticks": 57984,
          "time": 56.625,
          "velocity": 0.3937007874015748
        },
        {
          "duration": 0.1875,
          "durationTicks": 192,
          "midi": 36,
          "name": "C2",
          "ticks": 57984,
          "time": 56.625,
          "velocity": 0.3937007874015748
        },
        {
          "duration": 0.09375,
          "durationTicks": 96,
          "midi": 42,
          "name": "F#2",
          "ticks": 58176,
          "time": 56.8125,
          "velocity": 0.3937007874015748
        },
        {
          "duration": 0.09375,
          "durationTicks": 96,
          "midi": 42,
          "name": "F#2",
          "ticks": 58272,
          "time": 56.90625,
          "velocity": 0.3937007874015748
        },
        {
          "duration": 0.1875,
          "durationTicks": 192,
          "midi": 36,
          "name": "C2",
          "ticks": 58368,
          "time": 57,
          "velocity": 0.3937007874015748
        },
        {
          "duration": 0.1875,
          "durationTicks": 192,
          "midi": 35,
          "name": "B1",
          "ticks": 58368,
          "time": 57,
          "velocity": 0.3937007874015748
        },
        {
          "duration": 0.09375,
          "durationTicks": 96,
          "midi": 42,
          "name": "F#2",
          "ticks": 58752,
          "time": 57.375,
          "velocity": 0.3937007874015748
        },
        {
          "duration": 0.09375,
          "durationTicks": 96,
          "midi": 42,
          "name": "F#2",
          "ticks": 58848,
          "time": 57.46875,
          "velocity": 0.3937007874015748
        },
        {
          "duration": 0.1875,
          "durationTicks": 192,
          "midi": 35,
          "name": "B1",
          "ticks": 58944,
          "time": 57.5625,
          "velocity": 0.3937007874015748
        },
        {
          "duration": 0.1875,
          "durationTicks": 192,
          "midi": 36,
          "name": "C2",
          "ticks": 58944,
          "time": 57.5625,
          "velocity": 0.3937007874015748
        },
        {
          "duration": 0.09375,
          "durationTicks": 96,
          "midi": 42,
          "name": "F#2",
          "ticks": 59328,
          "time": 57.9375,
          "velocity": 0.3937007874015748
        },
        {
          "duration": 0.09375,
          "durationTicks": 96,
          "midi": 42,
          "name": "F#2",
          "ticks": 59424,
          "time": 58.03125,
          "velocity": 0.3937007874015748
        },
        {
          "duration": 0.1875,
          "durationTicks": 192,
          "midi": 36,
          "name": "C2",
          "ticks": 59520,
          "time": 58.125,
          "velocity": 0.3937007874015748
        },
        {
          "duration": 0.1875,
          "durationTicks": 192,
          "midi": 35,
          "name": "B1",
          "ticks": 59520,
          "time": 58.125,
          "velocity": 0.3937007874015748
        },
        {
          "duration": 0.09375,
          "durationTicks": 96,
          "midi": 42,
          "name": "F#2",
          "ticks": 59712,
          "time": 58.3125,
          "velocity": 0.3937007874015748
        },
        {
          "duration": 0.09375,
          "durationTicks": 96,
          "midi": 42,
          "name": "F#2",
          "ticks": 59808,
          "time": 58.40625,
          "velocity": 0.3937007874015748
        },
        {
          "duration": 0.1875,
          "durationTicks": 192,
          "midi": 35,
          "name": "B1",
          "ticks": 59904,
          "time": 58.5,
          "velocity": 0.3937007874015748
        },
        {
          "duration": 0.1875,
          "durationTicks": 192,
          "midi": 36,
          "name": "C2",
          "ticks": 59904,
          "time": 58.5,
          "velocity": 0.3937007874015748
        },
        {
          "duration": 0.09375,
          "durationTicks": 96,
          "midi": 42,
          "name": "F#2",
          "ticks": 60288,
          "time": 58.875,
          "velocity": 0.3937007874015748
        },
        {
          "duration": 0.09375,
          "durationTicks": 96,
          "midi": 42,
          "name": "F#2",
          "ticks": 60384,
          "time": 58.96875,
          "velocity": 0.3937007874015748
        },
        {
          "duration": 0.1875,
          "durationTicks": 192,
          "midi": 35,
          "name": "B1",
          "ticks": 60480,
          "time": 59.0625,
          "velocity": 0.3937007874015748
        },
        {
          "duration": 0.1875,
          "durationTicks": 192,
          "midi": 36,
          "name": "C2",
          "ticks": 60480,
          "time": 59.0625,
          "velocity": 0.3937007874015748
        },
        {
          "duration": 0.09375,
          "durationTicks": 96,
          "midi": 42,
          "name": "F#2",
          "ticks": 60864,
          "time": 59.4375,
          "velocity": 0.3937007874015748
        },
        {
          "duration": 0.09375,
          "durationTicks": 96,
          "midi": 42,
          "name": "F#2",
          "ticks": 60960,
          "time": 59.53125,
          "velocity": 0.3937007874015748
        },
        {
          "duration": 0.1875,
          "durationTicks": 192,
          "midi": 36,
          "name": "C2",
          "ticks": 61056,
          "time": 59.625,
          "velocity": 0.3937007874015748
        },
        {
          "duration": 0.1875,
          "durationTicks": 192,
          "midi": 35,
          "name": "B1",
          "ticks": 61056,
          "time": 59.625,
          "velocity": 0.3937007874015748
        },
        {
          "duration": 0.1875,
          "durationTicks": 192,
          "midi": 35,
          "name": "B1",
          "ticks": 61440,
          "time": 60,
          "velocity": 0.3937007874015748
        },
        {
          "duration": 0.1875,
          "durationTicks": 192,
          "midi": 57,
          "name": "A3",
          "ticks": 61440,
          "time": 60,
          "velocity": 0.3937007874015748
        },
        {
          "duration": 0.1875,
          "durationTicks": 192,
          "midi": 49,
          "name": "C#3",
          "ticks": 61440,
          "time": 60,
          "velocity": 0.3937007874015748
        },
        {
          "duration": 0.1875,
          "durationTicks": 192,
          "midi": 36,
          "name": "C2",
          "ticks": 61440,
          "time": 60,
          "velocity": 0.3937007874015748
        },
        {
          "duration": 0.1875,
          "durationTicks": 192,
          "midi": 57,
          "name": "A3",
          "ticks": 61440,
          "time": 60,
          "velocity": 0.3937007874015748
        },
        {
          "duration": 0.1875,
          "durationTicks": 192,
          "midi": 49,
          "name": "C#3",
          "ticks": 61440,
          "time": 60,
          "velocity": 0.3937007874015748
        },
        {
          "duration": 0.09375,
          "durationTicks": 96,
          "midi": 38,
          "name": "D2",
          "ticks": 61824,
          "time": 60.375,
          "velocity": 0.3937007874015748
        },
        {
          "duration": 0.09375,
          "durationTicks": 96,
          "midi": 40,
          "name": "E2",
          "ticks": 61824,
          "time": 60.375,
          "velocity": 0.3937007874015748
        },
        {
          "duration": 0.09375,
          "durationTicks": 96,
          "midi": 42,
          "name": "F#2",
          "ticks": 61824,
          "time": 60.375,
          "velocity": 0.3937007874015748
        },
        {
          "duration": 0.09375,
          "durationTicks": 96,
          "midi": 42,
          "name": "F#2",
          "ticks": 61920,
          "time": 60.46875,
          "velocity": 0.3937007874015748
        },
        {
          "duration": 0.1875,
          "durationTicks": 192,
          "midi": 35,
          "name": "B1",
          "ticks": 62208,
          "time": 60.75,
          "velocity": 0.3937007874015748
        },
        {
          "duration": 0.1875,
          "durationTicks": 192,
          "midi": 36,
          "name": "C2",
          "ticks": 62208,
          "time": 60.75,
          "velocity": 0.3937007874015748
        },
        {
          "duration": 0.09375,
          "durationTicks": 96,
          "midi": 42,
          "name": "F#2",
          "ticks": 62400,
          "time": 60.9375,
          "velocity": 0.3937007874015748
        },
        {
          "duration": 0.09375,
          "durationTicks": 96,
          "midi": 42,
          "name": "F#2",
          "ticks": 62496,
          "time": 61.03125,
          "velocity": 0.3937007874015748
        },
        {
          "duration": 0.09375,
          "durationTicks": 96,
          "midi": 40,
          "name": "E2",
          "ticks": 62592,
          "time": 61.125,
          "velocity": 0.3937007874015748
        },
        {
          "duration": 0.09375,
          "durationTicks": 96,
          "midi": 38,
          "name": "D2",
          "ticks": 62592,
          "time": 61.125,
          "velocity": 0.3937007874015748
        },
        {
          "duration": 0.09375,
          "durationTicks": 96,
          "midi": 42,
          "name": "F#2",
          "ticks": 62784,
          "time": 61.3125,
          "velocity": 0.3937007874015748
        },
        {
          "duration": 0.09375,
          "durationTicks": 96,
          "midi": 42,
          "name": "F#2",
          "ticks": 62880,
          "time": 61.40625,
          "velocity": 0.3937007874015748
        },
        {
          "duration": 0.1875,
          "durationTicks": 192,
          "midi": 36,
          "name": "C2",
          "ticks": 62976,
          "time": 61.5,
          "velocity": 0.3937007874015748
        },
        {
          "duration": 0.1875,
          "durationTicks": 192,
          "midi": 35,
          "name": "B1",
          "ticks": 62976,
          "time": 61.5,
          "velocity": 0.3937007874015748
        },
        {
          "duration": 0.09375,
          "durationTicks": 96,
          "midi": 36,
          "name": "C2",
          "ticks": 63168,
          "time": 61.6875,
          "velocity": 0.3937007874015748
        },
        {
          "duration": 0.09375,
          "durationTicks": 96,
          "midi": 38,
          "name": "D2",
          "ticks": 63360,
          "time": 61.875,
          "velocity": 0.3937007874015748
        },
        {
          "duration": 0.09375,
          "durationTicks": 96,
          "midi": 40,
          "name": "E2",
          "ticks": 63360,
          "time": 61.875,
          "velocity": 0.3937007874015748
        },
        {
          "duration": 0.09375,
          "durationTicks": 96,
          "midi": 42,
          "name": "F#2",
          "ticks": 63360,
          "time": 61.875,
          "velocity": 0.3937007874015748
        },
        {
          "duration": 0.09375,
          "durationTicks": 96,
          "midi": 42,
          "name": "F#2",
          "ticks": 63456,
          "time": 61.96875,
          "velocity": 0.3937007874015748
        },
        {
          "duration": 0.09375,
          "durationTicks": 96,
          "midi": 36,
          "name": "C2",
          "ticks": 63552,
          "time": 62.0625,
          "velocity": 0.3937007874015748
        },
        {
          "duration": 0.09375,
          "durationTicks": 96,
          "midi": 38,
          "name": "D2",
          "ticks": 63648,
          "time": 62.15625,
          "velocity": 0.3937007874015748
        },
        {
          "duration": 0.09375,
          "durationTicks": 96,
          "midi": 35,
          "name": "B1",
          "ticks": 63648,
          "time": 62.15625,
          "velocity": 0.3937007874015748
        },
        {
          "duration": 0.09375,
          "durationTicks": 96,
          "midi": 40,
          "name": "E2",
          "ticks": 63648,
          "time": 62.15625,
          "velocity": 0.3937007874015748
        },
        {
          "duration": 0.1875,
          "durationTicks": 192,
          "midi": 36,
          "name": "C2",
          "ticks": 63744,
          "time": 62.25,
          "velocity": 0.3937007874015748
        },
        {
          "duration": 0.1875,
          "durationTicks": 192,
          "midi": 35,
          "name": "B1",
          "ticks": 63744,
          "time": 62.25,
          "velocity": 0.3937007874015748
        },
        {
          "duration": 0.09375,
          "durationTicks": 96,
          "midi": 42,
          "name": "F#2",
          "ticks": 63936,
          "time": 62.4375,
          "velocity": 0.3937007874015748
        },
        {
          "duration": 0.09375,
          "durationTicks": 96,
          "midi": 35,
          "name": "B1",
          "ticks": 64032,
          "time": 62.53125,
          "velocity": 0.3937007874015748
        },
        {
          "duration": 0.09375,
          "durationTicks": 96,
          "midi": 42,
          "name": "F#2",
          "ticks": 64032,
          "time": 62.53125,
          "velocity": 0.3937007874015748
        },
        {
          "duration": 0.09375,
          "durationTicks": 96,
          "midi": 40,
          "name": "E2",
          "ticks": 64128,
          "time": 62.625,
          "velocity": 0.3937007874015748
        },
        {
          "duration": 0.09375,
          "durationTicks": 96,
          "midi": 38,
          "name": "D2",
          "ticks": 64128,
          "time": 62.625,
          "velocity": 0.3937007874015748
        },
        {
          "duration": 0.09375,
          "durationTicks": 96,
          "midi": 35,
          "name": "B1",
          "ticks": 64320,
          "time": 62.8125,
          "velocity": 0.3937007874015748
        },
        {
          "duration": 0.09375,
          "durationTicks": 96,
          "midi": 42,
          "name": "F#2",
          "ticks": 64320,
          "time": 62.8125,
          "velocity": 0.3937007874015748
        },
        {
          "duration": 0.09375,
          "durationTicks": 96,
          "midi": 42,
          "name": "F#2",
          "ticks": 64416,
          "time": 62.90625,
          "velocity": 0.3937007874015748
        },
        {
          "duration": 0.1875,
          "durationTicks": 192,
          "midi": 35,
          "name": "B1",
          "ticks": 64512,
          "time": 63,
          "velocity": 0.3937007874015748
        },
        {
          "duration": 0.1875,
          "durationTicks": 192,
          "midi": 36,
          "name": "C2",
          "ticks": 64512,
          "time": 63,
          "velocity": 0.3937007874015748
        },
        {
          "duration": 0.09375,
          "durationTicks": 96,
          "midi": 36,
          "name": "C2",
          "ticks": 64704,
          "time": 63.1875,
          "velocity": 0.3937007874015748
        },
        {
          "duration": 0.09375,
          "durationTicks": 96,
          "midi": 38,
          "name": "D2",
          "ticks": 64896,
          "time": 63.375,
          "velocity": 0.3937007874015748
        },
        {
          "duration": 0.09375,
          "durationTicks": 96,
          "midi": 42,
          "name": "F#2",
          "ticks": 64896,
          "time": 63.375,
          "velocity": 0.3937007874015748
        },
        {
          "duration": 0.09375,
          "durationTicks": 96,
          "midi": 40,
          "name": "E2",
          "ticks": 64896,
          "time": 63.375,
          "velocity": 0.3937007874015748
        },
        {
          "duration": 0.09375,
          "durationTicks": 96,
          "midi": 42,
          "name": "F#2",
          "ticks": 64992,
          "time": 63.46875,
          "velocity": 0.3937007874015748
        },
        {
          "duration": 0.09375,
          "durationTicks": 96,
          "midi": 36,
          "name": "C2",
          "ticks": 65088,
          "time": 63.5625,
          "velocity": 0.3937007874015748
        },
        {
          "duration": 0.1875,
          "durationTicks": 192,
          "midi": 35,
          "name": "B1",
          "ticks": 65280,
          "time": 63.75,
          "velocity": 0.3937007874015748
        },
        {
          "duration": 0.1875,
          "durationTicks": 192,
          "midi": 36,
          "name": "C2",
          "ticks": 65280,
          "time": 63.75,
          "velocity": 0.3937007874015748
        },
        {
          "duration": 0.09375,
          "durationTicks": 96,
          "midi": 42,
          "name": "F#2",
          "ticks": 65472,
          "time": 63.9375,
          "velocity": 0.3937007874015748
        },
        {
          "duration": 0.09375,
          "durationTicks": 96,
          "midi": 36,
          "name": "C2",
          "ticks": 65472,
          "time": 63.9375,
          "velocity": 0.3937007874015748
        },
        {
          "duration": 0.09375,
          "durationTicks": 96,
          "midi": 42,
          "name": "F#2",
          "ticks": 65568,
          "time": 64.03125,
          "velocity": 0.3937007874015748
        },
        {
          "duration": 0.09375,
          "durationTicks": 96,
          "midi": 40,
          "name": "E2",
          "ticks": 65664,
          "time": 64.125,
          "velocity": 0.3937007874015748
        },
        {
          "duration": 0.09375,
          "durationTicks": 96,
          "midi": 38,
          "name": "D2",
          "ticks": 65664,
          "time": 64.125,
          "velocity": 0.3937007874015748
        },
        {
          "duration": 0.09375,
          "durationTicks": 96,
          "midi": 42,
          "name": "F#2",
          "ticks": 65856,
          "time": 64.3125,
          "velocity": 0.3937007874015748
        },
        {
          "duration": 0.09375,
          "durationTicks": 96,
          "midi": 36,
          "name": "C2",
          "ticks": 65856,
          "time": 64.3125,
          "velocity": 0.3937007874015748
        },
        {
          "duration": 0.09375,
          "durationTicks": 96,
          "midi": 42,
          "name": "F#2",
          "ticks": 65952,
          "time": 64.40625,
          "velocity": 0.3937007874015748
        },
        {
          "duration": 0.1875,
          "durationTicks": 192,
          "midi": 36,
          "name": "C2",
          "ticks": 66048,
          "time": 64.5,
          "velocity": 0.3937007874015748
        },
        {
          "duration": 0.1875,
          "durationTicks": 192,
          "midi": 35,
          "name": "B1",
          "ticks": 66048,
          "time": 64.5,
          "velocity": 0.3937007874015748
        },
        {
          "duration": 0.09375,
          "durationTicks": 96,
          "midi": 38,
          "name": "D2",
          "ticks": 66240,
          "time": 64.6875,
          "velocity": 0.3937007874015748
        },
        {
          "duration": 0.09375,
          "durationTicks": 96,
          "midi": 40,
          "name": "E2",
          "ticks": 66240,
          "time": 64.6875,
          "velocity": 0.3937007874015748
        },
        {
          "duration": 0.09375,
          "durationTicks": 96,
          "midi": 38,
          "name": "D2",
          "ticks": 66336,
          "time": 64.78125,
          "velocity": 0.3937007874015748
        },
        {
          "duration": 0.09375,
          "durationTicks": 96,
          "midi": 40,
          "name": "E2",
          "ticks": 66336,
          "time": 64.78125,
          "velocity": 0.3937007874015748
        },
        {
          "duration": 0.09375,
          "durationTicks": 96,
          "midi": 36,
          "name": "C2",
          "ticks": 66432,
          "time": 64.875,
          "velocity": 0.3937007874015748
        },
        {
          "duration": 0.09375,
          "durationTicks": 96,
          "midi": 35,
          "name": "B1",
          "ticks": 66432,
          "time": 64.875,
          "velocity": 0.3937007874015748
        },
        {
          "duration": 0.09375,
          "durationTicks": 96,
          "midi": 42,
          "name": "F#2",
          "ticks": 66432,
          "time": 64.875,
          "velocity": 0.3937007874015748
        },
        {
          "duration": 0.09375,
          "durationTicks": 96,
          "midi": 40,
          "name": "E2",
          "ticks": 66528,
          "time": 64.96875,
          "velocity": 0.3937007874015748
        },
        {
          "duration": 0.09375,
          "durationTicks": 96,
          "midi": 38,
          "name": "D2",
          "ticks": 66528,
          "time": 64.96875,
          "velocity": 0.3937007874015748
        },
        {
          "duration": 0.09375,
          "durationTicks": 96,
          "midi": 42,
          "name": "F#2",
          "ticks": 66528,
          "time": 64.96875,
          "velocity": 0.3937007874015748
        },
        {
          "duration": 0.09375,
          "durationTicks": 96,
          "midi": 40,
          "name": "E2",
          "ticks": 66624,
          "time": 65.0625,
          "velocity": 0.3937007874015748
        },
        {
          "duration": 0.09375,
          "durationTicks": 96,
          "midi": 38,
          "name": "D2",
          "ticks": 66624,
          "time": 65.0625,
          "velocity": 0.3937007874015748
        },
        {
          "duration": 0.09375,
          "durationTicks": 96,
          "midi": 38,
          "name": "D2",
          "ticks": 66720,
          "time": 65.15625,
          "velocity": 0.3937007874015748
        },
        {
          "duration": 0.09375,
          "durationTicks": 96,
          "midi": 40,
          "name": "E2",
          "ticks": 66720,
          "time": 65.15625,
          "velocity": 0.3937007874015748
        },
        {
          "duration": 0.1875,
          "durationTicks": 192,
          "midi": 35,
          "name": "B1",
          "ticks": 66816,
          "time": 65.25,
          "velocity": 0.3937007874015748
        },
        {
          "duration": 0.1875,
          "durationTicks": 192,
          "midi": 36,
          "name": "C2",
          "ticks": 66816,
          "time": 65.25,
          "velocity": 0.3937007874015748
        },
        {
          "duration": 0.09375,
          "durationTicks": 96,
          "midi": 42,
          "name": "F#2",
          "ticks": 67008,
          "time": 65.4375,
          "velocity": 0.3937007874015748
        },
        {
          "duration": 0.09375,
          "durationTicks": 96,
          "midi": 38,
          "name": "D2",
          "ticks": 67008,
          "time": 65.4375,
          "velocity": 0.3937007874015748
        },
        {
          "duration": 0.09375,
          "durationTicks": 96,
          "midi": 42,
          "name": "F#2",
          "ticks": 67104,
          "time": 65.53125,
          "velocity": 0.3937007874015748
        },
        {
          "duration": 0.09375,
          "durationTicks": 96,
          "midi": 38,
          "name": "D2",
          "ticks": 67200,
          "time": 65.625,
          "velocity": 0.3937007874015748
        },
        {
          "duration": 0.09375,
          "durationTicks": 96,
          "midi": 36,
          "name": "C2",
          "ticks": 67200,
          "time": 65.625,
          "velocity": 0.3937007874015748
        },
        {
          "duration": 0.09375,
          "durationTicks": 96,
          "midi": 35,
          "name": "B1",
          "ticks": 67200,
          "time": 65.625,
          "velocity": 0.3937007874015748
        },
        {
          "duration": 0.09375,
          "durationTicks": 96,
          "midi": 35,
          "name": "B1",
          "ticks": 67392,
          "time": 65.8125,
          "velocity": 0.3937007874015748
        },
        {
          "duration": 0.09375,
          "durationTicks": 96,
          "midi": 36,
          "name": "C2",
          "ticks": 67392,
          "time": 65.8125,
          "velocity": 0.3937007874015748
        },
        {
          "duration": 0.09375,
          "durationTicks": 96,
          "midi": 42,
          "name": "F#2",
          "ticks": 67392,
          "time": 65.8125,
          "velocity": 0.3937007874015748
        },
        {
          "duration": 0.09375,
          "durationTicks": 96,
          "midi": 42,
          "name": "F#2",
          "ticks": 67488,
          "time": 65.90625,
          "velocity": 0.3937007874015748
        },
        {
          "duration": 0.09375,
          "durationTicks": 96,
          "midi": 40,
          "name": "E2",
          "ticks": 67584,
          "time": 66,
          "velocity": 0.3937007874015748
        },
        {
          "duration": 0.09375,
          "durationTicks": 96,
          "midi": 38,
          "name": "D2",
          "ticks": 67584,
          "time": 66,
          "velocity": 0.3937007874015748
        },
        {
          "duration": 0.09375,
          "durationTicks": 96,
          "midi": 36,
          "name": "C2",
          "ticks": 67584,
          "time": 66,
          "velocity": 0.3937007874015748
        },
        {
          "duration": 0.09375,
          "durationTicks": 96,
          "midi": 52,
          "name": "E3",
          "ticks": 67584,
          "time": 66,
          "velocity": 0.3937007874015748
        },
        {
          "duration": 0.09375,
          "durationTicks": 96,
          "midi": 40,
          "name": "E2",
          "ticks": 67776,
          "time": 66.1875,
          "velocity": 0.3937007874015748
        },
        {
          "duration": 0.09375,
          "durationTicks": 96,
          "midi": 38,
          "name": "D2",
          "ticks": 67776,
          "time": 66.1875,
          "velocity": 0.3937007874015748
        },
        {
          "duration": 0.09375,
          "durationTicks": 96,
          "midi": 36,
          "name": "C2",
          "ticks": 67776,
          "time": 66.1875,
          "velocity": 0.3937007874015748
        },
        {
          "duration": 0.09375,
          "durationTicks": 96,
          "midi": 52,
          "name": "E3",
          "ticks": 67776,
          "time": 66.1875,
          "velocity": 0.3937007874015748
        },
        {
          "duration": 0.09375,
          "durationTicks": 96,
          "midi": 38,
          "name": "D2",
          "ticks": 68160,
          "time": 66.5625,
          "velocity": 0.3937007874015748
        },
        {
          "duration": 0.09375,
          "durationTicks": 96,
          "midi": 40,
          "name": "E2",
          "ticks": 68160,
          "time": 66.5625,
          "velocity": 0.3937007874015748
        },
        {
          "duration": 0.09375,
          "durationTicks": 96,
          "midi": 52,
          "name": "E3",
          "ticks": 68160,
          "time": 66.5625,
          "velocity": 0.3937007874015748
        },
        {
          "duration": 0.09375,
          "durationTicks": 96,
          "midi": 36,
          "name": "C2",
          "ticks": 68160,
          "time": 66.5625,
          "velocity": 0.3937007874015748
        },
        {
          "duration": 0.09375,
          "durationTicks": 96,
          "midi": 40,
          "name": "E2",
          "ticks": 68352,
          "time": 66.75,
          "velocity": 0.3937007874015748
        },
        {
          "duration": 0.09375,
          "durationTicks": 96,
          "midi": 38,
          "name": "D2",
          "ticks": 68352,
          "time": 66.75,
          "velocity": 0.3937007874015748
        },
        {
          "duration": 0.09375,
          "durationTicks": 96,
          "midi": 36,
          "name": "C2",
          "ticks": 68352,
          "time": 66.75,
          "velocity": 0.3937007874015748
        },
        {
          "duration": 0.09375,
          "durationTicks": 96,
          "midi": 52,
          "name": "E3",
          "ticks": 68352,
          "time": 66.75,
          "velocity": 0.3937007874015748
        },
        {
          "duration": 0.09375,
          "durationTicks": 96,
          "midi": 52,
          "name": "E3",
          "ticks": 68736,
          "time": 67.125,
          "velocity": 0.3937007874015748
        },
        {
          "duration": 0.09375,
          "durationTicks": 96,
          "midi": 40,
          "name": "E2",
          "ticks": 68736,
          "time": 67.125,
          "velocity": 0.3937007874015748
        },
        {
          "duration": 0.09375,
          "durationTicks": 96,
          "midi": 38,
          "name": "D2",
          "ticks": 68736,
          "time": 67.125,
          "velocity": 0.3937007874015748
        },
        {
          "duration": 0.09375,
          "durationTicks": 96,
          "midi": 36,
          "name": "C2",
          "ticks": 68736,
          "time": 67.125,
          "velocity": 0.3937007874015748
        },
        {
          "duration": 0.09375,
          "durationTicks": 96,
          "midi": 38,
          "name": "D2",
          "ticks": 68928,
          "time": 67.3125,
          "velocity": 0.3937007874015748
        },
        {
          "duration": 0.09375,
          "durationTicks": 96,
          "midi": 40,
          "name": "E2",
          "ticks": 68928,
          "time": 67.3125,
          "velocity": 0.3937007874015748
        },
        {
          "duration": 0.09375,
          "durationTicks": 96,
          "midi": 52,
          "name": "E3",
          "ticks": 68928,
          "time": 67.3125,
          "velocity": 0.3937007874015748
        },
        {
          "duration": 0.09375,
          "durationTicks": 96,
          "midi": 36,
          "name": "C2",
          "ticks": 68928,
          "time": 67.3125,
          "velocity": 0.3937007874015748
        },
        {
          "duration": 0.09375,
          "durationTicks": 96,
          "midi": 52,
          "name": "E3",
          "ticks": 69312,
          "time": 67.6875,
          "velocity": 0.3937007874015748
        },
        {
          "duration": 0.09375,
          "durationTicks": 96,
          "midi": 36,
          "name": "C2",
          "ticks": 69312,
          "time": 67.6875,
          "velocity": 0.3937007874015748
        },
        {
          "duration": 0.09375,
          "durationTicks": 96,
          "midi": 40,
          "name": "E2",
          "ticks": 69312,
          "time": 67.6875,
          "velocity": 0.3937007874015748
        },
        {
          "duration": 0.09375,
          "durationTicks": 96,
          "midi": 38,
          "name": "D2",
          "ticks": 69312,
          "time": 67.6875,
          "velocity": 0.3937007874015748
        },
        {
          "duration": 0.09375,
          "durationTicks": 96,
          "midi": 36,
          "name": "C2",
          "ticks": 69504,
          "time": 67.875,
          "velocity": 0.3937007874015748
        },
        {
          "duration": 0.09375,
          "durationTicks": 96,
          "midi": 52,
          "name": "E3",
          "ticks": 69504,
          "time": 67.875,
          "velocity": 0.3937007874015748
        },
        {
          "duration": 0.09375,
          "durationTicks": 96,
          "midi": 38,
          "name": "D2",
          "ticks": 69504,
          "time": 67.875,
          "velocity": 0.3937007874015748
        },
        {
          "duration": 0.09375,
          "durationTicks": 96,
          "midi": 40,
          "name": "E2",
          "ticks": 69504,
          "time": 67.875,
          "velocity": 0.3937007874015748
        },
        {
          "duration": 0.09375,
          "durationTicks": 96,
          "midi": 52,
          "name": "E3",
          "ticks": 70656,
          "time": 69,
          "velocity": 0.3937007874015748
        },
        {
          "duration": 0.09375,
          "durationTicks": 96,
          "midi": 36,
          "name": "C2",
          "ticks": 70656,
          "time": 69,
          "velocity": 0.3937007874015748
        },
        {
          "duration": 0.09375,
          "durationTicks": 96,
          "midi": 38,
          "name": "D2",
          "ticks": 70656,
          "time": 69,
          "velocity": 0.3937007874015748
        },
        {
          "duration": 0.09375,
          "durationTicks": 96,
          "midi": 40,
          "name": "E2",
          "ticks": 70656,
          "time": 69,
          "velocity": 0.3937007874015748
        },
        {
          "duration": 0.09375,
          "durationTicks": 96,
          "midi": 40,
          "name": "E2",
          "ticks": 70848,
          "time": 69.1875,
          "velocity": 0.3937007874015748
        },
        {
          "duration": 0.09375,
          "durationTicks": 96,
          "midi": 36,
          "name": "C2",
          "ticks": 70848,
          "time": 69.1875,
          "velocity": 0.3937007874015748
        },
        {
          "duration": 0.09375,
          "durationTicks": 96,
          "midi": 52,
          "name": "E3",
          "ticks": 70848,
          "time": 69.1875,
          "velocity": 0.3937007874015748
        },
        {
          "duration": 0.09375,
          "durationTicks": 96,
          "midi": 38,
          "name": "D2",
          "ticks": 70848,
          "time": 69.1875,
          "velocity": 0.3937007874015748
        },
        {
          "duration": 0.09375,
          "durationTicks": 96,
          "midi": 40,
          "name": "E2",
          "ticks": 71232,
          "time": 69.5625,
          "velocity": 0.3937007874015748
        },
        {
          "duration": 0.09375,
          "durationTicks": 96,
          "midi": 52,
          "name": "E3",
          "ticks": 71232,
          "time": 69.5625,
          "velocity": 0.3937007874015748
        },
        {
          "duration": 0.09375,
          "durationTicks": 96,
          "midi": 36,
          "name": "C2",
          "ticks": 71232,
          "time": 69.5625,
          "velocity": 0.3937007874015748
        },
        {
          "duration": 0.09375,
          "durationTicks": 96,
          "midi": 38,
          "name": "D2",
          "ticks": 71232,
          "time": 69.5625,
          "velocity": 0.3937007874015748
        },
        {
          "duration": 0.09375,
          "durationTicks": 96,
          "midi": 52,
          "name": "E3",
          "ticks": 71424,
          "time": 69.75,
          "velocity": 0.3937007874015748
        },
        {
          "duration": 0.09375,
          "durationTicks": 96,
          "midi": 38,
          "name": "D2",
          "ticks": 71424,
          "time": 69.75,
          "velocity": 0.3937007874015748
        },
        {
          "duration": 0.09375,
          "durationTicks": 96,
          "midi": 40,
          "name": "E2",
          "ticks": 71424,
          "time": 69.75,
          "velocity": 0.3937007874015748
        },
        {
          "duration": 0.09375,
          "durationTicks": 96,
          "midi": 36,
          "name": "C2",
          "ticks": 71424,
          "time": 69.75,
          "velocity": 0.3937007874015748
        },
        {
          "duration": 0.09375,
          "durationTicks": 96,
          "midi": 38,
          "name": "D2",
          "ticks": 71808,
          "time": 70.125,
          "velocity": 0.3937007874015748
        },
        {
          "duration": 0.09375,
          "durationTicks": 96,
          "midi": 52,
          "name": "E3",
          "ticks": 71808,
          "time": 70.125,
          "velocity": 0.3937007874015748
        },
        {
          "duration": 0.09375,
          "durationTicks": 96,
          "midi": 36,
          "name": "C2",
          "ticks": 71808,
          "time": 70.125,
          "velocity": 0.3937007874015748
        },
        {
          "duration": 0.09375,
          "durationTicks": 96,
          "midi": 40,
          "name": "E2",
          "ticks": 71808,
          "time": 70.125,
          "velocity": 0.3937007874015748
        },
        {
          "duration": 0.09375,
          "durationTicks": 96,
          "midi": 52,
          "name": "E3",
          "ticks": 72000,
          "time": 70.3125,
          "velocity": 0.3937007874015748
        },
        {
          "duration": 0.09375,
          "durationTicks": 96,
          "midi": 36,
          "name": "C2",
          "ticks": 72000,
          "time": 70.3125,
          "velocity": 0.3937007874015748
        },
        {
          "duration": 0.09375,
          "durationTicks": 96,
          "midi": 40,
          "name": "E2",
          "ticks": 72000,
          "time": 70.3125,
          "velocity": 0.3937007874015748
        },
        {
          "duration": 0.09375,
          "durationTicks": 96,
          "midi": 38,
          "name": "D2",
          "ticks": 72000,
          "time": 70.3125,
          "velocity": 0.3937007874015748
        },
        {
          "duration": 0.09375,
          "durationTicks": 96,
          "midi": 36,
          "name": "C2",
          "ticks": 72384,
          "time": 70.6875,
          "velocity": 0.3937007874015748
        },
        {
          "duration": 0.09375,
          "durationTicks": 96,
          "midi": 52,
          "name": "E3",
          "ticks": 72384,
          "time": 70.6875,
          "velocity": 0.3937007874015748
        },
        {
          "duration": 0.09375,
          "durationTicks": 96,
          "midi": 38,
          "name": "D2",
          "ticks": 72384,
          "time": 70.6875,
          "velocity": 0.3937007874015748
        },
        {
          "duration": 0.09375,
          "durationTicks": 96,
          "midi": 40,
          "name": "E2",
          "ticks": 72384,
          "time": 70.6875,
          "velocity": 0.3937007874015748
        },
        {
          "duration": 0.09375,
          "durationTicks": 96,
          "midi": 40,
          "name": "E2",
          "ticks": 72576,
          "time": 70.875,
          "velocity": 0.3937007874015748
        },
        {
          "duration": 0.09375,
          "durationTicks": 96,
          "midi": 38,
          "name": "D2",
          "ticks": 72576,
          "time": 70.875,
          "velocity": 0.3937007874015748
        },
        {
          "duration": 0.09375,
          "durationTicks": 96,
          "midi": 36,
          "name": "C2",
          "ticks": 72576,
          "time": 70.875,
          "velocity": 0.3937007874015748
        },
        {
          "duration": 0.09375,
          "durationTicks": 96,
          "midi": 52,
          "name": "E3",
          "ticks": 72576,
          "time": 70.875,
          "velocity": 0.3937007874015748
        },
        {
          "duration": 0.09375,
          "durationTicks": 96,
          "midi": 38,
          "name": "D2",
          "ticks": 74496,
          "time": 72.75,
          "velocity": 0.3937007874015748
        },
        {
          "duration": 0.09375,
          "durationTicks": 96,
          "midi": 40,
          "name": "E2",
          "ticks": 74496,
          "time": 72.75,
          "velocity": 0.3937007874015748
        },
        {
          "duration": 0.09375,
          "durationTicks": 96,
          "midi": 38,
          "name": "D2",
          "ticks": 74592,
          "time": 72.84375,
          "velocity": 0.3937007874015748
        },
        {
          "duration": 0.09375,
          "durationTicks": 96,
          "midi": 36,
          "name": "C2",
          "ticks": 74688,
          "time": 72.9375,
          "velocity": 0.3937007874015748
        },
        {
          "duration": 0.09375,
          "durationTicks": 96,
          "midi": 35,
          "name": "B1",
          "ticks": 74688,
          "time": 72.9375,
          "velocity": 0.3937007874015748
        },
        {
          "duration": 0.09375,
          "durationTicks": 96,
          "midi": 35,
          "name": "B1",
          "ticks": 74784,
          "time": 73.03125,
          "velocity": 0.3937007874015748
        },
        {
          "duration": 0.09375,
          "durationTicks": 96,
          "midi": 36,
          "name": "C2",
          "ticks": 74784,
          "time": 73.03125,
          "velocity": 0.3937007874015748
        },
        {
          "duration": 0.09375,
          "durationTicks": 96,
          "midi": 40,
          "name": "E2",
          "ticks": 74880,
          "time": 73.125,
          "velocity": 0.3937007874015748
        },
        {
          "duration": 0.09375,
          "durationTicks": 96,
          "midi": 38,
          "name": "D2",
          "ticks": 74880,
          "time": 73.125,
          "velocity": 0.3937007874015748
        },
        {
          "duration": 0.09375,
          "durationTicks": 96,
          "midi": 38,
          "name": "D2",
          "ticks": 74976,
          "time": 73.21875,
          "velocity": 0.3937007874015748
        },
        {
          "duration": 0.09375,
          "durationTicks": 96,
          "midi": 36,
          "name": "C2",
          "ticks": 75072,
          "time": 73.3125,
          "velocity": 0.3937007874015748
        },
        {
          "duration": 0.09375,
          "durationTicks": 96,
          "midi": 35,
          "name": "B1",
          "ticks": 75072,
          "time": 73.3125,
          "velocity": 0.3937007874015748
        },
        {
          "duration": 0.09375,
          "durationTicks": 96,
          "midi": 36,
          "name": "C2",
          "ticks": 75168,
          "time": 73.40625,
          "velocity": 0.3937007874015748
        },
        {
          "duration": 0.09375,
          "durationTicks": 96,
          "midi": 35,
          "name": "B1",
          "ticks": 75168,
          "time": 73.40625,
          "velocity": 0.3937007874015748
        },
        {
          "duration": 0.1875,
          "durationTicks": 192,
          "midi": 36,
          "name": "C2",
          "ticks": 75264,
          "time": 73.5,
          "velocity": 0.3937007874015748
        },
        {
          "duration": 0.1875,
          "durationTicks": 192,
          "midi": 57,
          "name": "A3",
          "ticks": 75264,
          "time": 73.5,
          "velocity": 0.3937007874015748
        },
        {
          "duration": 0.09375,
          "durationTicks": 96,
          "midi": 46,
          "name": "A#2",
          "ticks": 75264,
          "time": 73.5,
          "velocity": 0.3937007874015748
        },
        {
          "duration": 0.09375,
          "durationTicks": 96,
          "midi": 52,
          "name": "E3",
          "ticks": 75264,
          "time": 73.5,
          "velocity": 0.3937007874015748
        },
        {
          "duration": 0.1875,
          "durationTicks": 192,
          "midi": 44,
          "name": "G#2",
          "ticks": 75264,
          "time": 73.5,
          "velocity": 0.3937007874015748
        },
        {
          "duration": 0.09375,
          "durationTicks": 96,
          "midi": 46,
          "name": "A#2",
          "ticks": 75264,
          "time": 73.5,
          "velocity": 0.3937007874015748
        },
        {
          "duration": 0.1875,
          "durationTicks": 192,
          "midi": 44,
          "name": "G#2",
          "ticks": 75264,
          "time": 73.5,
          "velocity": 0.3937007874015748
        },
        {
          "duration": 0.1875,
          "durationTicks": 192,
          "midi": 35,
          "name": "B1",
          "ticks": 75264,
          "time": 73.5,
          "velocity": 0.3937007874015748
        },
        {
          "duration": 0.1875,
          "durationTicks": 192,
          "midi": 44,
          "name": "G#2",
          "ticks": 75456,
          "time": 73.6875,
          "velocity": 0.3937007874015748
        },
        {
          "duration": 0.09375,
          "durationTicks": 96,
          "midi": 36,
          "name": "C2",
          "ticks": 75456,
          "time": 73.6875,
          "velocity": 0.3937007874015748
        },
        {
          "duration": 0.1875,
          "durationTicks": 192,
          "midi": 44,
          "name": "G#2",
          "ticks": 75648,
          "time": 73.875,
          "velocity": 0.3937007874015748
        },
        {
          "duration": 0.1875,
          "durationTicks": 192,
          "midi": 57,
          "name": "A3",
          "ticks": 75648,
          "time": 73.875,
          "velocity": 0.3937007874015748
        },
        {
          "duration": 0.1875,
          "durationTicks": 192,
          "midi": 36,
          "name": "C2",
          "ticks": 75648,
          "time": 73.875,
          "velocity": 0.3937007874015748
        },
        {
          "duration": 0.1875,
          "durationTicks": 192,
          "midi": 44,
          "name": "G#2",
          "ticks": 75648,
          "time": 73.875,
          "velocity": 0.3937007874015748
        },
        {
          "duration": 0.1875,
          "durationTicks": 192,
          "midi": 35,
          "name": "B1",
          "ticks": 75648,
          "time": 73.875,
          "velocity": 0.3937007874015748
        },
        {
          "duration": 0.09375,
          "durationTicks": 96,
          "midi": 38,
          "name": "D2",
          "ticks": 75648,
          "time": 73.875,
          "velocity": 0.3937007874015748
        },
        {
          "duration": 0.09375,
          "durationTicks": 96,
          "midi": 40,
          "name": "E2",
          "ticks": 75648,
          "time": 73.875,
          "velocity": 0.3937007874015748
        },
        {
          "duration": 0.09375,
          "durationTicks": 96,
          "midi": 36,
          "name": "C2",
          "ticks": 75840,
          "time": 74.0625,
          "velocity": 0.3937007874015748
        },
        {
          "duration": 0.1875,
          "durationTicks": 192,
          "midi": 44,
          "name": "G#2",
          "ticks": 75840,
          "time": 74.0625,
          "velocity": 0.3937007874015748
        },
        {
          "duration": 0.1875,
          "durationTicks": 192,
          "midi": 35,
          "name": "B1",
          "ticks": 76032,
          "time": 74.25,
          "velocity": 0.3937007874015748
        },
        {
          "duration": 0.1875,
          "durationTicks": 192,
          "midi": 57,
          "name": "A3",
          "ticks": 76032,
          "time": 74.25,
          "velocity": 0.3937007874015748
        },
        {
          "duration": 0.1875,
          "durationTicks": 192,
          "midi": 44,
          "name": "G#2",
          "ticks": 76032,
          "time": 74.25,
          "velocity": 0.3937007874015748
        },
        {
          "duration": 0.1875,
          "durationTicks": 192,
          "midi": 36,
          "name": "C2",
          "ticks": 76032,
          "time": 74.25,
          "velocity": 0.3937007874015748
        },
        {
          "duration": 0.1875,
          "durationTicks": 192,
          "midi": 44,
          "name": "G#2",
          "ticks": 76032,
          "time": 74.25,
          "velocity": 0.3937007874015748
        },
        {
          "duration": 0.1875,
          "durationTicks": 192,
          "midi": 44,
          "name": "G#2",
          "ticks": 76224,
          "time": 74.4375,
          "velocity": 0.3937007874015748
        },
        {
          "duration": 0.09375,
          "durationTicks": 96,
          "midi": 36,
          "name": "C2",
          "ticks": 76224,
          "time": 74.4375,
          "velocity": 0.3937007874015748
        },
        {
          "duration": 0.1875,
          "durationTicks": 192,
          "midi": 57,
          "name": "A3",
          "ticks": 76416,
          "time": 74.625,
          "velocity": 0.3937007874015748
        },
        {
          "duration": 0.1875,
          "durationTicks": 192,
          "midi": 44,
          "name": "G#2",
          "ticks": 76416,
          "time": 74.625,
          "velocity": 0.3937007874015748
        },
        {
          "duration": 0.1875,
          "durationTicks": 192,
          "midi": 36,
          "name": "C2",
          "ticks": 76416,
          "time": 74.625,
          "velocity": 0.3937007874015748
        },
        {
          "duration": 0.09375,
          "durationTicks": 96,
          "midi": 40,
          "name": "E2",
          "ticks": 76416,
          "time": 74.625,
          "velocity": 0.3937007874015748
        },
        {
          "duration": 0.1875,
          "durationTicks": 192,
          "midi": 44,
          "name": "G#2",
          "ticks": 76416,
          "time": 74.625,
          "velocity": 0.3937007874015748
        },
        {
          "duration": 0.09375,
          "durationTicks": 96,
          "midi": 38,
          "name": "D2",
          "ticks": 76416,
          "time": 74.625,
          "velocity": 0.3937007874015748
        },
        {
          "duration": 0.1875,
          "durationTicks": 192,
          "midi": 35,
          "name": "B1",
          "ticks": 76416,
          "time": 74.625,
          "velocity": 0.3937007874015748
        },
        {
          "duration": 0.1875,
          "durationTicks": 192,
          "midi": 44,
          "name": "G#2",
          "ticks": 76608,
          "time": 74.8125,
          "velocity": 0.3937007874015748
        },
        {
          "duration": 0.09375,
          "durationTicks": 96,
          "midi": 36,
          "name": "C2",
          "ticks": 76608,
          "time": 74.8125,
          "velocity": 0.3937007874015748
        },
        {
          "duration": 0.1875,
          "durationTicks": 192,
          "midi": 44,
          "name": "G#2",
          "ticks": 76800,
          "time": 75,
          "velocity": 0.3937007874015748
        },
        {
          "duration": 0.09375,
          "durationTicks": 96,
          "midi": 52,
          "name": "E3",
          "ticks": 76800,
          "time": 75,
          "velocity": 0.3937007874015748
        },
        {
          "duration": 0.1875,
          "durationTicks": 192,
          "midi": 57,
          "name": "A3",
          "ticks": 76800,
          "time": 75,
          "velocity": 0.3937007874015748
        },
        {
          "duration": 0.1875,
          "durationTicks": 192,
          "midi": 44,
          "name": "G#2",
          "ticks": 76800,
          "time": 75,
          "velocity": 0.3937007874015748
        },
        {
          "duration": 0.1875,
          "durationTicks": 192,
          "midi": 35,
          "name": "B1",
          "ticks": 76800,
          "time": 75,
          "velocity": 0.3937007874015748
        },
        {
          "duration": 0.1875,
          "durationTicks": 192,
          "midi": 36,
          "name": "C2",
          "ticks": 76800,
          "time": 75,
          "velocity": 0.3937007874015748
        },
        {
          "duration": 0.09375,
          "durationTicks": 96,
          "midi": 46,
          "name": "A#2",
          "ticks": 76800,
          "time": 75,
          "velocity": 0.3937007874015748
        },
        {
          "duration": 0.09375,
          "durationTicks": 96,
          "midi": 46,
          "name": "A#2",
          "ticks": 76800,
          "time": 75,
          "velocity": 0.3937007874015748
        },
        {
          "duration": 0.09375,
          "durationTicks": 96,
          "midi": 36,
          "name": "C2",
          "ticks": 76992,
          "time": 75.1875,
          "velocity": 0.3937007874015748
        },
        {
          "duration": 0.1875,
          "durationTicks": 192,
          "midi": 44,
          "name": "G#2",
          "ticks": 76992,
          "time": 75.1875,
          "velocity": 0.3937007874015748
        },
        {
          "duration": 0.1875,
          "durationTicks": 192,
          "midi": 57,
          "name": "A3",
          "ticks": 77184,
          "time": 75.375,
          "velocity": 0.3937007874015748
        },
        {
          "duration": 0.09375,
          "durationTicks": 96,
          "midi": 40,
          "name": "E2",
          "ticks": 77184,
          "time": 75.375,
          "velocity": 0.3937007874015748
        },
        {
          "duration": 0.1875,
          "durationTicks": 192,
          "midi": 35,
          "name": "B1",
          "ticks": 77184,
          "time": 75.375,
          "velocity": 0.3937007874015748
        },
        {
          "duration": 0.1875,
          "durationTicks": 192,
          "midi": 44,
          "name": "G#2",
          "ticks": 77184,
          "time": 75.375,
          "velocity": 0.3937007874015748
        },
        {
          "duration": 0.1875,
          "durationTicks": 192,
          "midi": 44,
          "name": "G#2",
          "ticks": 77184,
          "time": 75.375,
          "velocity": 0.3937007874015748
        },
        {
          "duration": 0.09375,
          "durationTicks": 96,
          "midi": 38,
          "name": "D2",
          "ticks": 77184,
          "time": 75.375,
          "velocity": 0.3937007874015748
        },
        {
          "duration": 0.1875,
          "durationTicks": 192,
          "midi": 36,
          "name": "C2",
          "ticks": 77184,
          "time": 75.375,
          "velocity": 0.3937007874015748
        },
        {
          "duration": 0.1875,
          "durationTicks": 192,
          "midi": 44,
          "name": "G#2",
          "ticks": 77376,
          "time": 75.5625,
          "velocity": 0.3937007874015748
        },
        {
          "duration": 0.09375,
          "durationTicks": 96,
          "midi": 36,
          "name": "C2",
          "ticks": 77376,
          "time": 75.5625,
          "velocity": 0.3937007874015748
        },
        {
          "duration": 0.09375,
          "durationTicks": 96,
          "midi": 38,
          "name": "D2",
          "ticks": 77472,
          "time": 75.65625,
          "velocity": 0.3937007874015748
        },
        {
          "duration": 0.1875,
          "durationTicks": 192,
          "midi": 35,
          "name": "B1",
          "ticks": 77568,
          "time": 75.75,
          "velocity": 0.3937007874015748
        },
        {
          "duration": 0.1875,
          "durationTicks": 192,
          "midi": 57,
          "name": "A3",
          "ticks": 77568,
          "time": 75.75,
          "velocity": 0.3937007874015748
        },
        {
          "duration": 0.1875,
          "durationTicks": 192,
          "midi": 36,
          "name": "C2",
          "ticks": 77568,
          "time": 75.75,
          "velocity": 0.3937007874015748
        },
        {
          "duration": 0.1875,
          "durationTicks": 192,
          "midi": 44,
          "name": "G#2",
          "ticks": 77568,
          "time": 75.75,
          "velocity": 0.3937007874015748
        },
        {
          "duration": 0.1875,
          "durationTicks": 192,
          "midi": 44,
          "name": "G#2",
          "ticks": 77568,
          "time": 75.75,
          "velocity": 0.3937007874015748
        },
        {
          "duration": 0.09375,
          "durationTicks": 96,
          "midi": 38,
          "name": "D2",
          "ticks": 77664,
          "time": 75.84375,
          "velocity": 0.3937007874015748
        },
        {
          "duration": 0.1875,
          "durationTicks": 192,
          "midi": 44,
          "name": "G#2",
          "ticks": 77760,
          "time": 75.9375,
          "velocity": 0.3937007874015748
        },
        {
          "duration": 0.09375,
          "durationTicks": 96,
          "midi": 38,
          "name": "D2",
          "ticks": 77856,
          "time": 76.03125,
          "velocity": 0.3937007874015748
        },
        {
          "duration": 0.1875,
          "durationTicks": 192,
          "midi": 44,
          "name": "G#2",
          "ticks": 77952,
          "time": 76.125,
          "velocity": 0.3937007874015748
        },
        {
          "duration": 0.1875,
          "durationTicks": 192,
          "midi": 35,
          "name": "B1",
          "ticks": 77952,
          "time": 76.125,
          "velocity": 0.3937007874015748
        },
        {
          "duration": 0.09375,
          "durationTicks": 96,
          "midi": 38,
          "name": "D2",
          "ticks": 77952,
          "time": 76.125,
          "velocity": 0.3937007874015748
        },
        {
          "duration": 0.1875,
          "durationTicks": 192,
          "midi": 36,
          "name": "C2",
          "ticks": 77952,
          "time": 76.125,
          "velocity": 0.3937007874015748
        },
        {
          "duration": 0.1875,
          "durationTicks": 192,
          "midi": 44,
          "name": "G#2",
          "ticks": 77952,
          "time": 76.125,
          "velocity": 0.3937007874015748
        },
        {
          "duration": 0.1875,
          "durationTicks": 192,
          "midi": 57,
          "name": "A3",
          "ticks": 77952,
          "time": 76.125,
          "velocity": 0.3937007874015748
        },
        {
          "duration": 0.09375,
          "durationTicks": 96,
          "midi": 40,
          "name": "E2",
          "ticks": 77952,
          "time": 76.125,
          "velocity": 0.3937007874015748
        },
        {
          "duration": 0.1875,
          "durationTicks": 192,
          "midi": 44,
          "name": "G#2",
          "ticks": 78144,
          "time": 76.3125,
          "velocity": 0.3937007874015748
        },
        {
          "duration": 0.09375,
          "durationTicks": 96,
          "midi": 38,
          "name": "D2",
          "ticks": 78144,
          "time": 76.3125,
          "velocity": 0.3937007874015748
        },
        {
          "duration": 0.09375,
          "durationTicks": 96,
          "midi": 46,
          "name": "A#2",
          "ticks": 78336,
          "time": 76.5,
          "velocity": 0.3937007874015748
        },
        {
          "duration": 0.1875,
          "durationTicks": 192,
          "midi": 44,
          "name": "G#2",
          "ticks": 78336,
          "time": 76.5,
          "velocity": 0.3937007874015748
        },
        {
          "duration": 0.1875,
          "durationTicks": 192,
          "midi": 57,
          "name": "A3",
          "ticks": 78336,
          "time": 76.5,
          "velocity": 0.3937007874015748
        },
        {
          "duration": 0.1875,
          "durationTicks": 192,
          "midi": 36,
          "name": "C2",
          "ticks": 78336,
          "time": 76.5,
          "velocity": 0.3937007874015748
        },
        {
          "duration": 0.1875,
          "durationTicks": 192,
          "midi": 44,
          "name": "G#2",
          "ticks": 78336,
          "time": 76.5,
          "velocity": 0.3937007874015748
        },
        {
          "duration": 0.1875,
          "durationTicks": 192,
          "midi": 35,
          "name": "B1",
          "ticks": 78336,
          "time": 76.5,
          "velocity": 0.3937007874015748
        },
        {
          "duration": 0.09375,
          "durationTicks": 96,
          "midi": 52,
          "name": "E3",
          "ticks": 78336,
          "time": 76.5,
          "velocity": 0.3937007874015748
        },
        {
          "duration": 0.09375,
          "durationTicks": 96,
          "midi": 46,
          "name": "A#2",
          "ticks": 78336,
          "time": 76.5,
          "velocity": 0.3937007874015748
        },
        {
          "duration": 0.1875,
          "durationTicks": 192,
          "midi": 44,
          "name": "G#2",
          "ticks": 78528,
          "time": 76.6875,
          "velocity": 0.3937007874015748
        },
        {
          "duration": 0.09375,
          "durationTicks": 96,
          "midi": 36,
          "name": "C2",
          "ticks": 78528,
          "time": 76.6875,
          "velocity": 0.3937007874015748
        },
        {
          "duration": 0.09375,
          "durationTicks": 96,
          "midi": 38,
          "name": "D2",
          "ticks": 78720,
          "time": 76.875,
          "velocity": 0.3937007874015748
        },
        {
          "duration": 0.1875,
          "durationTicks": 192,
          "midi": 44,
          "name": "G#2",
          "ticks": 78720,
          "time": 76.875,
          "velocity": 0.3937007874015748
        },
        {
          "duration": 0.1875,
          "durationTicks": 192,
          "midi": 36,
          "name": "C2",
          "ticks": 78720,
          "time": 76.875,
          "velocity": 0.3937007874015748
        },
        {
          "duration": 0.1875,
          "durationTicks": 192,
          "midi": 57,
          "name": "A3",
          "ticks": 78720,
          "time": 76.875,
          "velocity": 0.3937007874015748
        },
        {
          "duration": 0.1875,
          "durationTicks": 192,
          "midi": 35,
          "name": "B1",
          "ticks": 78720,
          "time": 76.875,
          "velocity": 0.3937007874015748
        },
        {
          "duration": 0.1875,
          "durationTicks": 192,
          "midi": 44,
          "name": "G#2",
          "ticks": 78720,
          "time": 76.875,
          "velocity": 0.3937007874015748
        },
        {
          "duration": 0.09375,
          "durationTicks": 96,
          "midi": 40,
          "name": "E2",
          "ticks": 78720,
          "time": 76.875,
          "velocity": 0.3937007874015748
        },
        {
          "duration": 0.1875,
          "durationTicks": 192,
          "midi": 44,
          "name": "G#2",
          "ticks": 78912,
          "time": 77.0625,
          "velocity": 0.3937007874015748
        },
        {
          "duration": 0.09375,
          "durationTicks": 96,
          "midi": 36,
          "name": "C2",
          "ticks": 78912,
          "time": 77.0625,
          "velocity": 0.3937007874015748
        },
        {
          "duration": 0.1875,
          "durationTicks": 192,
          "midi": 57,
          "name": "A3",
          "ticks": 79104,
          "time": 77.25,
          "velocity": 0.3937007874015748
        },
        {
          "duration": 0.1875,
          "durationTicks": 192,
          "midi": 44,
          "name": "G#2",
          "ticks": 79104,
          "time": 77.25,
          "velocity": 0.3937007874015748
        },
        {
          "duration": 0.1875,
          "durationTicks": 192,
          "midi": 35,
          "name": "B1",
          "ticks": 79104,
          "time": 77.25,
          "velocity": 0.3937007874015748
        },
        {
          "duration": 0.1875,
          "durationTicks": 192,
          "midi": 36,
          "name": "C2",
          "ticks": 79104,
          "time": 77.25,
          "velocity": 0.3937007874015748
        },
        {
          "duration": 0.1875,
          "durationTicks": 192,
          "midi": 44,
          "name": "G#2",
          "ticks": 79104,
          "time": 77.25,
          "velocity": 0.3937007874015748
        },
        {
          "duration": 0.1875,
          "durationTicks": 192,
          "midi": 44,
          "name": "G#2",
          "ticks": 79296,
          "time": 77.4375,
          "velocity": 0.3937007874015748
        },
        {
          "duration": 0.09375,
          "durationTicks": 96,
          "midi": 36,
          "name": "C2",
          "ticks": 79296,
          "time": 77.4375,
          "velocity": 0.3937007874015748
        },
        {
          "duration": 0.09375,
          "durationTicks": 96,
          "midi": 38,
          "name": "D2",
          "ticks": 79488,
          "time": 77.625,
          "velocity": 0.3937007874015748
        },
        {
          "duration": 0.1875,
          "durationTicks": 192,
          "midi": 44,
          "name": "G#2",
          "ticks": 79488,
          "time": 77.625,
          "velocity": 0.3937007874015748
        },
        {
          "duration": 0.1875,
          "durationTicks": 192,
          "midi": 35,
          "name": "B1",
          "ticks": 79488,
          "time": 77.625,
          "velocity": 0.3937007874015748
        },
        {
          "duration": 0.09375,
          "durationTicks": 96,
          "midi": 40,
          "name": "E2",
          "ticks": 79488,
          "time": 77.625,
          "velocity": 0.3937007874015748
        },
        {
          "duration": 0.1875,
          "durationTicks": 192,
          "midi": 36,
          "name": "C2",
          "ticks": 79488,
          "time": 77.625,
          "velocity": 0.3937007874015748
        },
        {
          "duration": 0.1875,
          "durationTicks": 192,
          "midi": 57,
          "name": "A3",
          "ticks": 79488,
          "time": 77.625,
          "velocity": 0.3937007874015748
        },
        {
          "duration": 0.1875,
          "durationTicks": 192,
          "midi": 44,
          "name": "G#2",
          "ticks": 79488,
          "time": 77.625,
          "velocity": 0.3937007874015748
        },
        {
          "duration": 0.1875,
          "durationTicks": 192,
          "midi": 44,
          "name": "G#2",
          "ticks": 79680,
          "time": 77.8125,
          "velocity": 0.3937007874015748
        },
        {
          "duration": 0.09375,
          "durationTicks": 96,
          "midi": 36,
          "name": "C2",
          "ticks": 79680,
          "time": 77.8125,
          "velocity": 0.3937007874015748
        },
        {
          "duration": 0.1875,
          "durationTicks": 192,
          "midi": 44,
          "name": "G#2",
          "ticks": 79872,
          "time": 78,
          "velocity": 0.3937007874015748
        },
        {
          "duration": 0.1875,
          "durationTicks": 192,
          "midi": 36,
          "name": "C2",
          "ticks": 79872,
          "time": 78,
          "velocity": 0.3937007874015748
        },
        {
          "duration": 0.09375,
          "durationTicks": 96,
          "midi": 46,
          "name": "A#2",
          "ticks": 79872,
          "time": 78,
          "velocity": 0.3937007874015748
        },
        {
          "duration": 0.1875,
          "durationTicks": 192,
          "midi": 35,
          "name": "B1",
          "ticks": 79872,
          "time": 78,
          "velocity": 0.3937007874015748
        },
        {
          "duration": 0.09375,
          "durationTicks": 96,
          "midi": 52,
          "name": "E3",
          "ticks": 79872,
          "time": 78,
          "velocity": 0.3937007874015748
        },
        {
          "duration": 0.1875,
          "durationTicks": 192,
          "midi": 57,
          "name": "A3",
          "ticks": 79872,
          "time": 78,
          "velocity": 0.3937007874015748
        },
        {
          "duration": 0.1875,
          "durationTicks": 192,
          "midi": 44,
          "name": "G#2",
          "ticks": 79872,
          "time": 78,
          "velocity": 0.3937007874015748
        },
        {
          "duration": 0.09375,
          "durationTicks": 96,
          "midi": 36,
          "name": "C2",
          "ticks": 80064,
          "time": 78.1875,
          "velocity": 0.3937007874015748
        },
        {
          "duration": 0.1875,
          "durationTicks": 192,
          "midi": 44,
          "name": "G#2",
          "ticks": 80064,
          "time": 78.1875,
          "velocity": 0.3937007874015748
        },
        {
          "duration": 0.1875,
          "durationTicks": 192,
          "midi": 35,
          "name": "B1",
          "ticks": 80256,
          "time": 78.375,
          "velocity": 0.3937007874015748
        },
        {
          "duration": 0.1875,
          "durationTicks": 192,
          "midi": 44,
          "name": "G#2",
          "ticks": 80256,
          "time": 78.375,
          "velocity": 0.3937007874015748
        },
        {
          "duration": 0.1875,
          "durationTicks": 192,
          "midi": 36,
          "name": "C2",
          "ticks": 80256,
          "time": 78.375,
          "velocity": 0.3937007874015748
        },
        {
          "duration": 0.09375,
          "durationTicks": 96,
          "midi": 40,
          "name": "E2",
          "ticks": 80256,
          "time": 78.375,
          "velocity": 0.3937007874015748
        },
        {
          "duration": 0.09375,
          "durationTicks": 96,
          "midi": 38,
          "name": "D2",
          "ticks": 80256,
          "time": 78.375,
          "velocity": 0.3937007874015748
        },
        {
          "duration": 0.1875,
          "durationTicks": 192,
          "midi": 57,
          "name": "A3",
          "ticks": 80256,
          "time": 78.375,
          "velocity": 0.3937007874015748
        },
        {
          "duration": 0.1875,
          "durationTicks": 192,
          "midi": 44,
          "name": "G#2",
          "ticks": 80256,
          "time": 78.375,
          "velocity": 0.3937007874015748
        },
        {
          "duration": 0.1875,
          "durationTicks": 192,
          "midi": 44,
          "name": "G#2",
          "ticks": 80448,
          "time": 78.5625,
          "velocity": 0.3937007874015748
        },
        {
          "duration": 0.09375,
          "durationTicks": 96,
          "midi": 36,
          "name": "C2",
          "ticks": 80448,
          "time": 78.5625,
          "velocity": 0.3937007874015748
        },
        {
          "duration": 0.09375,
          "durationTicks": 96,
          "midi": 38,
          "name": "D2",
          "ticks": 80544,
          "time": 78.65625,
          "velocity": 0.3937007874015748
        },
        {
          "duration": 0.1875,
          "durationTicks": 192,
          "midi": 44,
          "name": "G#2",
          "ticks": 80640,
          "time": 78.75,
          "velocity": 0.3937007874015748
        },
        {
          "duration": 0.1875,
          "durationTicks": 192,
          "midi": 36,
          "name": "C2",
          "ticks": 80640,
          "time": 78.75,
          "velocity": 0.3937007874015748
        },
        {
          "duration": 0.1875,
          "durationTicks": 192,
          "midi": 57,
          "name": "A3",
          "ticks": 80640,
          "time": 78.75,
          "velocity": 0.3937007874015748
        },
        {
          "duration": 0.1875,
          "durationTicks": 192,
          "midi": 44,
          "name": "G#2",
          "ticks": 80640,
          "time": 78.75,
          "velocity": 0.3937007874015748
        },
        {
          "duration": 0.1875,
          "durationTicks": 192,
          "midi": 35,
          "name": "B1",
          "ticks": 80640,
          "time": 78.75,
          "velocity": 0.3937007874015748
        },
        {
          "duration": 0.09375,
          "durationTicks": 96,
          "midi": 38,
          "name": "D2",
          "ticks": 80736,
          "time": 78.84375,
          "velocity": 0.3937007874015748
        },
        {
          "duration": 0.1875,
          "durationTicks": 192,
          "midi": 44,
          "name": "G#2",
          "ticks": 80832,
          "time": 78.9375,
          "velocity": 0.3937007874015748
        },
        {
          "duration": 0.09375,
          "durationTicks": 96,
          "midi": 38,
          "name": "D2",
          "ticks": 80928,
          "time": 79.03125,
          "velocity": 0.3937007874015748
        },
        {
          "duration": 0.1875,
          "durationTicks": 192,
          "midi": 35,
          "name": "B1",
          "ticks": 81024,
          "time": 79.125,
          "velocity": 0.3937007874015748
        },
        {
          "duration": 0.1875,
          "durationTicks": 192,
          "midi": 36,
          "name": "C2",
          "ticks": 81024,
          "time": 79.125,
          "velocity": 0.3937007874015748
        },
        {
          "duration": 0.1875,
          "durationTicks": 192,
          "midi": 44,
          "name": "G#2",
          "ticks": 81024,
          "time": 79.125,
          "velocity": 0.3937007874015748
        },
        {
          "duration": 0.09375,
          "durationTicks": 96,
          "midi": 38,
          "name": "D2",
          "ticks": 81024,
          "time": 79.125,
          "velocity": 0.3937007874015748
        },
        {
          "duration": 0.09375,
          "durationTicks": 96,
          "midi": 40,
          "name": "E2",
          "ticks": 81024,
          "time": 79.125,
          "velocity": 0.3937007874015748
        },
        {
          "duration": 0.1875,
          "durationTicks": 192,
          "midi": 44,
          "name": "G#2",
          "ticks": 81024,
          "time": 79.125,
          "velocity": 0.3937007874015748
        },
        {
          "duration": 0.1875,
          "durationTicks": 192,
          "midi": 57,
          "name": "A3",
          "ticks": 81024,
          "time": 79.125,
          "velocity": 0.3937007874015748
        },
        {
          "duration": 0.09375,
          "durationTicks": 96,
          "midi": 38,
          "name": "D2",
          "ticks": 81216,
          "time": 79.3125,
          "velocity": 0.3937007874015748
        },
        {
          "duration": 0.1875,
          "durationTicks": 192,
          "midi": 44,
          "name": "G#2",
          "ticks": 81216,
          "time": 79.3125,
          "velocity": 0.3937007874015748
        },
        {
          "duration": 0.09375,
          "durationTicks": 96,
          "midi": 52,
          "name": "E3",
          "ticks": 81408,
          "time": 79.5,
          "velocity": 0.3937007874015748
        },
        {
          "duration": 0.1875,
          "durationTicks": 192,
          "midi": 44,
          "name": "G#2",
          "ticks": 81408,
          "time": 79.5,
          "velocity": 0.3937007874015748
        },
        {
          "duration": 0.09375,
          "durationTicks": 96,
          "midi": 46,
          "name": "A#2",
          "ticks": 81408,
          "time": 79.5,
          "velocity": 0.3937007874015748
        },
        {
          "duration": 0.1875,
          "durationTicks": 192,
          "midi": 44,
          "name": "G#2",
          "ticks": 81408,
          "time": 79.5,
          "velocity": 0.3937007874015748
        },
        {
          "duration": 0.1875,
          "durationTicks": 192,
          "midi": 57,
          "name": "A3",
          "ticks": 81408,
          "time": 79.5,
          "velocity": 0.3937007874015748
        },
        {
          "duration": 0.1875,
          "durationTicks": 192,
          "midi": 35,
          "name": "B1",
          "ticks": 81408,
          "time": 79.5,
          "velocity": 0.3937007874015748
        },
        {
          "duration": 0.1875,
          "durationTicks": 192,
          "midi": 36,
          "name": "C2",
          "ticks": 81408,
          "time": 79.5,
          "velocity": 0.3937007874015748
        },
        {
          "duration": 0.09375,
          "durationTicks": 96,
          "midi": 46,
          "name": "A#2",
          "ticks": 81408,
          "time": 79.5,
          "velocity": 0.3937007874015748
        },
        {
          "duration": 0.1875,
          "durationTicks": 192,
          "midi": 44,
          "name": "G#2",
          "ticks": 81600,
          "time": 79.6875,
          "velocity": 0.3937007874015748
        },
        {
          "duration": 0.09375,
          "durationTicks": 96,
          "midi": 36,
          "name": "C2",
          "ticks": 81600,
          "time": 79.6875,
          "velocity": 0.3937007874015748
        },
        {
          "duration": 0.1875,
          "durationTicks": 192,
          "midi": 35,
          "name": "B1",
          "ticks": 81792,
          "time": 79.875,
          "velocity": 0.3937007874015748
        },
        {
          "duration": 0.09375,
          "durationTicks": 96,
          "midi": 40,
          "name": "E2",
          "ticks": 81792,
          "time": 79.875,
          "velocity": 0.3937007874015748
        },
        {
          "duration": 0.1875,
          "durationTicks": 192,
          "midi": 44,
          "name": "G#2",
          "ticks": 81792,
          "time": 79.875,
          "velocity": 0.3937007874015748
        },
        {
          "duration": 0.1875,
          "durationTicks": 192,
          "midi": 57,
          "name": "A3",
          "ticks": 81792,
          "time": 79.875,
          "velocity": 0.3937007874015748
        },
        {
          "duration": 0.1875,
          "durationTicks": 192,
          "midi": 44,
          "name": "G#2",
          "ticks": 81792,
          "time": 79.875,
          "velocity": 0.3937007874015748
        },
        {
          "duration": 0.1875,
          "durationTicks": 192,
          "midi": 36,
          "name": "C2",
          "ticks": 81792,
          "time": 79.875,
          "velocity": 0.3937007874015748
        },
        {
          "duration": 0.09375,
          "durationTicks": 96,
          "midi": 38,
          "name": "D2",
          "ticks": 81792,
          "time": 79.875,
          "velocity": 0.3937007874015748
        },
        {
          "duration": 0.09375,
          "durationTicks": 96,
          "midi": 36,
          "name": "C2",
          "ticks": 81984,
          "time": 80.0625,
          "velocity": 0.3937007874015748
        },
        {
          "duration": 0.1875,
          "durationTicks": 192,
          "midi": 44,
          "name": "G#2",
          "ticks": 81984,
          "time": 80.0625,
          "velocity": 0.3937007874015748
        },
        {
          "duration": 0.1875,
          "durationTicks": 192,
          "midi": 44,
          "name": "G#2",
          "ticks": 82176,
          "time": 80.25,
          "velocity": 0.3937007874015748
        },
        {
          "duration": 0.1875,
          "durationTicks": 192,
          "midi": 35,
          "name": "B1",
          "ticks": 82176,
          "time": 80.25,
          "velocity": 0.3937007874015748
        },
        {
          "duration": 0.1875,
          "durationTicks": 192,
          "midi": 44,
          "name": "G#2",
          "ticks": 82176,
          "time": 80.25,
          "velocity": 0.3937007874015748
        },
        {
          "duration": 0.1875,
          "durationTicks": 192,
          "midi": 57,
          "name": "A3",
          "ticks": 82176,
          "time": 80.25,
          "velocity": 0.3937007874015748
        },
        {
          "duration": 0.1875,
          "durationTicks": 192,
          "midi": 36,
          "name": "C2",
          "ticks": 82176,
          "time": 80.25,
          "velocity": 0.3937007874015748
        },
        {
          "duration": 0.1875,
          "durationTicks": 192,
          "midi": 44,
          "name": "G#2",
          "ticks": 82368,
          "time": 80.4375,
          "velocity": 0.3937007874015748
        },
        {
          "duration": 0.09375,
          "durationTicks": 96,
          "midi": 36,
          "name": "C2",
          "ticks": 82368,
          "time": 80.4375,
          "velocity": 0.3937007874015748
        },
        {
          "duration": 0.1875,
          "durationTicks": 192,
          "midi": 36,
          "name": "C2",
          "ticks": 82560,
          "time": 80.625,
          "velocity": 0.3937007874015748
        },
        {
          "duration": 0.1875,
          "durationTicks": 192,
          "midi": 57,
          "name": "A3",
          "ticks": 82560,
          "time": 80.625,
          "velocity": 0.3937007874015748
        },
        {
          "duration": 0.09375,
          "durationTicks": 96,
          "midi": 38,
          "name": "D2",
          "ticks": 82560,
          "time": 80.625,
          "velocity": 0.3937007874015748
        },
        {
          "duration": 0.1875,
          "durationTicks": 192,
          "midi": 44,
          "name": "G#2",
          "ticks": 82560,
          "time": 80.625,
          "velocity": 0.3937007874015748
        },
        {
          "duration": 0.1875,
          "durationTicks": 192,
          "midi": 44,
          "name": "G#2",
          "ticks": 82560,
          "time": 80.625,
          "velocity": 0.3937007874015748
        },
        {
          "duration": 0.09375,
          "durationTicks": 96,
          "midi": 40,
          "name": "E2",
          "ticks": 82560,
          "time": 80.625,
          "velocity": 0.3937007874015748
        },
        {
          "duration": 0.1875,
          "durationTicks": 192,
          "midi": 35,
          "name": "B1",
          "ticks": 82560,
          "time": 80.625,
          "velocity": 0.3937007874015748
        },
        {
          "duration": 0.09375,
          "durationTicks": 96,
          "midi": 36,
          "name": "C2",
          "ticks": 82752,
          "time": 80.8125,
          "velocity": 0.3937007874015748
        },
        {
          "duration": 0.1875,
          "durationTicks": 192,
          "midi": 44,
          "name": "G#2",
          "ticks": 82752,
          "time": 80.8125,
          "velocity": 0.3937007874015748
        },
        {
          "duration": 0.1875,
          "durationTicks": 192,
          "midi": 44,
          "name": "G#2",
          "ticks": 82944,
          "time": 81,
          "velocity": 0.3937007874015748
        },
        {
          "duration": 0.1875,
          "durationTicks": 192,
          "midi": 57,
          "name": "A3",
          "ticks": 82944,
          "time": 81,
          "velocity": 0.3937007874015748
        },
        {
          "duration": 0.1875,
          "durationTicks": 192,
          "midi": 36,
          "name": "C2",
          "ticks": 82944,
          "time": 81,
          "velocity": 0.3937007874015748
        },
        {
          "duration": 0.1875,
          "durationTicks": 192,
          "midi": 35,
          "name": "B1",
          "ticks": 82944,
          "time": 81,
          "velocity": 0.3937007874015748
        },
        {
          "duration": 0.1875,
          "durationTicks": 192,
          "midi": 44,
          "name": "G#2",
          "ticks": 82944,
          "time": 81,
          "velocity": 0.3937007874015748
        },
        {
          "duration": 0.09375,
          "durationTicks": 96,
          "midi": 52,
          "name": "E3",
          "ticks": 82944,
          "time": 81,
          "velocity": 0.3937007874015748
        },
        {
          "duration": 0.09375,
          "durationTicks": 96,
          "midi": 46,
          "name": "A#2",
          "ticks": 82944,
          "time": 81,
          "velocity": 0.3937007874015748
        },
        {
          "duration": 0.09375,
          "durationTicks": 96,
          "midi": 36,
          "name": "C2",
          "ticks": 83136,
          "time": 81.1875,
          "velocity": 0.3937007874015748
        },
        {
          "duration": 0.1875,
          "durationTicks": 192,
          "midi": 44,
          "name": "G#2",
          "ticks": 83136,
          "time": 81.1875,
          "velocity": 0.3937007874015748
        },
        {
          "duration": 0.1875,
          "durationTicks": 192,
          "midi": 44,
          "name": "G#2",
          "ticks": 83328,
          "time": 81.375,
          "velocity": 0.3937007874015748
        },
        {
          "duration": 0.1875,
          "durationTicks": 192,
          "midi": 57,
          "name": "A3",
          "ticks": 83328,
          "time": 81.375,
          "velocity": 0.3937007874015748
        },
        {
          "duration": 0.1875,
          "durationTicks": 192,
          "midi": 35,
          "name": "B1",
          "ticks": 83328,
          "time": 81.375,
          "velocity": 0.3937007874015748
        },
        {
          "duration": 0.09375,
          "durationTicks": 96,
          "midi": 40,
          "name": "E2",
          "ticks": 83328,
          "time": 81.375,
          "velocity": 0.3937007874015748
        },
        {
          "duration": 0.09375,
          "durationTicks": 96,
          "midi": 38,
          "name": "D2",
          "ticks": 83328,
          "time": 81.375,
          "velocity": 0.3937007874015748
        },
        {
          "duration": 0.1875,
          "durationTicks": 192,
          "midi": 36,
          "name": "C2",
          "ticks": 83328,
          "time": 81.375,
          "velocity": 0.3937007874015748
        },
        {
          "duration": 0.1875,
          "durationTicks": 192,
          "midi": 44,
          "name": "G#2",
          "ticks": 83328,
          "time": 81.375,
          "velocity": 0.3937007874015748
        },
        {
          "duration": 0.09375,
          "durationTicks": 96,
          "midi": 36,
          "name": "C2",
          "ticks": 83520,
          "time": 81.5625,
          "velocity": 0.3937007874015748
        },
        {
          "duration": 0.1875,
          "durationTicks": 192,
          "midi": 44,
          "name": "G#2",
          "ticks": 83520,
          "time": 81.5625,
          "velocity": 0.3937007874015748
        },
        {
          "duration": 0.09375,
          "durationTicks": 96,
          "midi": 38,
          "name": "D2",
          "ticks": 83616,
          "time": 81.65625,
          "velocity": 0.3937007874015748
        },
        {
          "duration": 0.1875,
          "durationTicks": 192,
          "midi": 44,
          "name": "G#2",
          "ticks": 83712,
          "time": 81.75,
          "velocity": 0.3937007874015748
        },
        {
          "duration": 0.1875,
          "durationTicks": 192,
          "midi": 44,
          "name": "G#2",
          "ticks": 83712,
          "time": 81.75,
          "velocity": 0.3937007874015748
        },
        {
          "duration": 0.1875,
          "durationTicks": 192,
          "midi": 36,
          "name": "C2",
          "ticks": 83712,
          "time": 81.75,
          "velocity": 0.3937007874015748
        },
        {
          "duration": 0.1875,
          "durationTicks": 192,
          "midi": 35,
          "name": "B1",
          "ticks": 83712,
          "time": 81.75,
          "velocity": 0.3937007874015748
        },
        {
          "duration": 0.1875,
          "durationTicks": 192,
          "midi": 57,
          "name": "A3",
          "ticks": 83712,
          "time": 81.75,
          "velocity": 0.3937007874015748
        },
        {
          "duration": 0.09375,
          "durationTicks": 96,
          "midi": 38,
          "name": "D2",
          "ticks": 83808,
          "time": 81.84375,
          "velocity": 0.3937007874015748
        },
        {
          "duration": 0.1875,
          "durationTicks": 192,
          "midi": 44,
          "name": "G#2",
          "ticks": 83904,
          "time": 81.9375,
          "velocity": 0.3937007874015748
        },
        {
          "duration": 0.09375,
          "durationTicks": 96,
          "midi": 38,
          "name": "D2",
          "ticks": 84000,
          "time": 82.03125,
          "velocity": 0.3937007874015748
        },
        {
          "duration": 0.1875,
          "durationTicks": 192,
          "midi": 44,
          "name": "G#2",
          "ticks": 84096,
          "time": 82.125,
          "velocity": 0.3937007874015748
        },
        {
          "duration": 0.09375,
          "durationTicks": 96,
          "midi": 38,
          "name": "D2",
          "ticks": 84096,
          "time": 82.125,
          "velocity": 0.3937007874015748
        },
        {
          "duration": 0.1875,
          "durationTicks": 192,
          "midi": 35,
          "name": "B1",
          "ticks": 84096,
          "time": 82.125,
          "velocity": 0.3937007874015748
        },
        {
          "duration": 0.1875,
          "durationTicks": 192,
          "midi": 36,
          "name": "C2",
          "ticks": 84096,
          "time": 82.125,
          "velocity": 0.3937007874015748
        },
        {
          "duration": 0.1875,
          "durationTicks": 192,
          "midi": 44,
          "name": "G#2",
          "ticks": 84096,
          "time": 82.125,
          "velocity": 0.3937007874015748
        },
        {
          "duration": 0.09375,
          "durationTicks": 96,
          "midi": 40,
          "name": "E2",
          "ticks": 84096,
          "time": 82.125,
          "velocity": 0.3937007874015748
        },
        {
          "duration": 0.1875,
          "durationTicks": 192,
          "midi": 57,
          "name": "A3",
          "ticks": 84096,
          "time": 82.125,
          "velocity": 0.3937007874015748
        },
        {
          "duration": 0.1875,
          "durationTicks": 192,
          "midi": 44,
          "name": "G#2",
          "ticks": 84288,
          "time": 82.3125,
          "velocity": 0.3937007874015748
        },
        {
          "duration": 0.09375,
          "durationTicks": 96,
          "midi": 38,
          "name": "D2",
          "ticks": 84288,
          "time": 82.3125,
          "velocity": 0.3937007874015748
        },
        {
          "duration": 0.09375,
          "durationTicks": 96,
          "midi": 46,
          "name": "A#2",
          "ticks": 84480,
          "time": 82.5,
          "velocity": 0.3937007874015748
        },
        {
          "duration": 0.1875,
          "durationTicks": 192,
          "midi": 36,
          "name": "C2",
          "ticks": 84480,
          "time": 82.5,
          "velocity": 0.3937007874015748
        },
        {
          "duration": 0.09375,
          "durationTicks": 96,
          "midi": 46,
          "name": "A#2",
          "ticks": 84480,
          "time": 82.5,
          "velocity": 0.3937007874015748
        },
        {
          "duration": 0.1875,
          "durationTicks": 192,
          "midi": 57,
          "name": "A3",
          "ticks": 84480,
          "time": 82.5,
          "velocity": 0.3937007874015748
        },
        {
          "duration": 0.1875,
          "durationTicks": 192,
          "midi": 44,
          "name": "G#2",
          "ticks": 84480,
          "time": 82.5,
          "velocity": 0.3937007874015748
        },
        {
          "duration": 0.1875,
          "durationTicks": 192,
          "midi": 35,
          "name": "B1",
          "ticks": 84480,
          "time": 82.5,
          "velocity": 0.3937007874015748
        },
        {
          "duration": 0.09375,
          "durationTicks": 96,
          "midi": 52,
          "name": "E3",
          "ticks": 84480,
          "time": 82.5,
          "velocity": 0.3937007874015748
        },
        {
          "duration": 0.1875,
          "durationTicks": 192,
          "midi": 44,
          "name": "G#2",
          "ticks": 84480,
          "time": 82.5,
          "velocity": 0.3937007874015748
        },
        {
          "duration": 0.09375,
          "durationTicks": 96,
          "midi": 36,
          "name": "C2",
          "ticks": 84672,
          "time": 82.6875,
          "velocity": 0.3937007874015748
        },
        {
          "duration": 0.1875,
          "durationTicks": 192,
          "midi": 44,
          "name": "G#2",
          "ticks": 84672,
          "time": 82.6875,
          "velocity": 0.3937007874015748
        },
        {
          "duration": 0.09375,
          "durationTicks": 96,
          "midi": 38,
          "name": "D2",
          "ticks": 84864,
          "time": 82.875,
          "velocity": 0.3937007874015748
        },
        {
          "duration": 0.1875,
          "durationTicks": 192,
          "midi": 36,
          "name": "C2",
          "ticks": 84864,
          "time": 82.875,
          "velocity": 0.3937007874015748
        },
        {
          "duration": 0.1875,
          "durationTicks": 192,
          "midi": 57,
          "name": "A3",
          "ticks": 84864,
          "time": 82.875,
          "velocity": 0.3937007874015748
        },
        {
          "duration": 0.1875,
          "durationTicks": 192,
          "midi": 35,
          "name": "B1",
          "ticks": 84864,
          "time": 82.875,
          "velocity": 0.3937007874015748
        },
        {
          "duration": 0.1875,
          "durationTicks": 192,
          "midi": 44,
          "name": "G#2",
          "ticks": 84864,
          "time": 82.875,
          "velocity": 0.3937007874015748
        },
        {
          "duration": 0.1875,
          "durationTicks": 192,
          "midi": 44,
          "name": "G#2",
          "ticks": 84864,
          "time": 82.875,
          "velocity": 0.3937007874015748
        },
        {
          "duration": 0.09375,
          "durationTicks": 96,
          "midi": 40,
          "name": "E2",
          "ticks": 84864,
          "time": 82.875,
          "velocity": 0.3937007874015748
        },
        {
          "duration": 0.1875,
          "durationTicks": 192,
          "midi": 44,
          "name": "G#2",
          "ticks": 85056,
          "time": 83.0625,
          "velocity": 0.3937007874015748
        },
        {
          "duration": 0.09375,
          "durationTicks": 96,
          "midi": 36,
          "name": "C2",
          "ticks": 85056,
          "time": 83.0625,
          "velocity": 0.3937007874015748
        },
        {
          "duration": 0.1875,
          "durationTicks": 192,
          "midi": 36,
          "name": "C2",
          "ticks": 85248,
          "time": 83.25,
          "velocity": 0.3937007874015748
        },
        {
          "duration": 0.1875,
          "durationTicks": 192,
          "midi": 57,
          "name": "A3",
          "ticks": 85248,
          "time": 83.25,
          "velocity": 0.3937007874015748
        },
        {
          "duration": 0.1875,
          "durationTicks": 192,
          "midi": 44,
          "name": "G#2",
          "ticks": 85248,
          "time": 83.25,
          "velocity": 0.3937007874015748
        },
        {
          "duration": 0.1875,
          "durationTicks": 192,
          "midi": 44,
          "name": "G#2",
          "ticks": 85248,
          "time": 83.25,
          "velocity": 0.3937007874015748
        },
        {
          "duration": 0.1875,
          "durationTicks": 192,
          "midi": 35,
          "name": "B1",
          "ticks": 85248,
          "time": 83.25,
          "velocity": 0.3937007874015748
        },
        {
          "duration": 0.1875,
          "durationTicks": 192,
          "midi": 44,
          "name": "G#2",
          "ticks": 85440,
          "time": 83.4375,
          "velocity": 0.3937007874015748
        },
        {
          "duration": 0.09375,
          "durationTicks": 96,
          "midi": 36,
          "name": "C2",
          "ticks": 85440,
          "time": 83.4375,
          "velocity": 0.3937007874015748
        },
        {
          "duration": 0.1875,
          "durationTicks": 192,
          "midi": 35,
          "name": "B1",
          "ticks": 85632,
          "time": 83.625,
          "velocity": 0.3937007874015748
        },
        {
          "duration": 0.1875,
          "durationTicks": 192,
          "midi": 44,
          "name": "G#2",
          "ticks": 85632,
          "time": 83.625,
          "velocity": 0.3937007874015748
        },
        {
          "duration": 0.1875,
          "durationTicks": 192,
          "midi": 36,
          "name": "C2",
          "ticks": 85632,
          "time": 83.625,
          "velocity": 0.3937007874015748
        },
        {
          "duration": 0.09375,
          "durationTicks": 96,
          "midi": 40,
          "name": "E2",
          "ticks": 85632,
          "time": 83.625,
          "velocity": 0.3937007874015748
        },
        {
          "duration": 0.1875,
          "durationTicks": 192,
          "midi": 44,
          "name": "G#2",
          "ticks": 85632,
          "time": 83.625,
          "velocity": 0.3937007874015748
        },
        {
          "duration": 0.1875,
          "durationTicks": 192,
          "midi": 57,
          "name": "A3",
          "ticks": 85632,
          "time": 83.625,
          "velocity": 0.3937007874015748
        },
        {
          "duration": 0.09375,
          "durationTicks": 96,
          "midi": 38,
          "name": "D2",
          "ticks": 85632,
          "time": 83.625,
          "velocity": 0.3937007874015748
        },
        {
          "duration": 0.1875,
          "durationTicks": 192,
          "midi": 44,
          "name": "G#2",
          "ticks": 85824,
          "time": 83.8125,
          "velocity": 0.3937007874015748
        },
        {
          "duration": 0.09375,
          "durationTicks": 96,
          "midi": 36,
          "name": "C2",
          "ticks": 85824,
          "time": 83.8125,
          "velocity": 0.3937007874015748
        },
        {
          "duration": 0.09375,
          "durationTicks": 96,
          "midi": 36,
          "name": "C2",
          "ticks": 86016,
          "time": 84,
          "velocity": 0.3937007874015748
        },
        {
          "duration": 0.09375,
          "durationTicks": 96,
          "midi": 42,
          "name": "F#2",
          "ticks": 86016,
          "time": 84,
          "velocity": 0.3937007874015748
        },
        {
          "duration": 0.09375,
          "durationTicks": 96,
          "midi": 40,
          "name": "E2",
          "ticks": 86016,
          "time": 84,
          "velocity": 0.3937007874015748
        },
        {
          "duration": 0.09375,
          "durationTicks": 96,
          "midi": 40,
          "name": "E2",
          "ticks": 86112,
          "time": 84.09375,
          "velocity": 0.3937007874015748
        },
        {
          "duration": 0.09375,
          "durationTicks": 96,
          "midi": 36,
          "name": "C2",
          "ticks": 86112,
          "time": 84.09375,
          "velocity": 0.3937007874015748
        },
        {
          "duration": 0.09375,
          "durationTicks": 96,
          "midi": 35,
          "name": "B1",
          "ticks": 86208,
          "time": 84.1875,
          "velocity": 0.3937007874015748
        },
        {
          "duration": 0.09375,
          "durationTicks": 96,
          "midi": 40,
          "name": "E2",
          "ticks": 86208,
          "time": 84.1875,
          "velocity": 0.3937007874015748
        },
        {
          "duration": 0.09375,
          "durationTicks": 96,
          "midi": 35,
          "name": "B1",
          "ticks": 86304,
          "time": 84.28125,
          "velocity": 0.3937007874015748
        },
        {
          "duration": 0.09375,
          "durationTicks": 96,
          "midi": 40,
          "name": "E2",
          "ticks": 86304,
          "time": 84.28125,
          "velocity": 0.3937007874015748
        },
        {
          "duration": 0.09375,
          "durationTicks": 96,
          "midi": 36,
          "name": "C2",
          "ticks": 86400,
          "time": 84.375,
          "velocity": 0.3937007874015748
        },
        {
          "duration": 0.09375,
          "durationTicks": 96,
          "midi": 42,
          "name": "F#2",
          "ticks": 86400,
          "time": 84.375,
          "velocity": 0.3937007874015748
        },
        {
          "duration": 0.09375,
          "durationTicks": 96,
          "midi": 38,
          "name": "D2",
          "ticks": 86400,
          "time": 84.375,
          "velocity": 0.3937007874015748
        },
        {
          "duration": 0.09375,
          "durationTicks": 96,
          "midi": 36,
          "name": "C2",
          "ticks": 86496,
          "time": 84.46875,
          "velocity": 0.3937007874015748
        },
        {
          "duration": 0.09375,
          "durationTicks": 96,
          "midi": 38,
          "name": "D2",
          "ticks": 86496,
          "time": 84.46875,
          "velocity": 0.3937007874015748
        },
        {
          "duration": 0.09375,
          "durationTicks": 96,
          "midi": 35,
          "name": "B1",
          "ticks": 86592,
          "time": 84.5625,
          "velocity": 0.3937007874015748
        },
        {
          "duration": 0.09375,
          "durationTicks": 96,
          "midi": 35,
          "name": "B1",
          "ticks": 86688,
          "time": 84.65625,
          "velocity": 0.3937007874015748
        },
        {
          "duration": 0.09375,
          "durationTicks": 96,
          "midi": 36,
          "name": "C2",
          "ticks": 86784,
          "time": 84.75,
          "velocity": 0.3937007874015748
        },
        {
          "duration": 0.09375,
          "durationTicks": 96,
          "midi": 40,
          "name": "E2",
          "ticks": 86784,
          "time": 84.75,
          "velocity": 0.3937007874015748
        },
        {
          "duration": 0.09375,
          "durationTicks": 96,
          "midi": 38,
          "name": "D2",
          "ticks": 86784,
          "time": 84.75,
          "velocity": 0.3937007874015748
        },
        {
          "duration": 0.09375,
          "durationTicks": 96,
          "midi": 42,
          "name": "F#2",
          "ticks": 86784,
          "time": 84.75,
          "velocity": 0.3937007874015748
        },
        {
          "duration": 0.09375,
          "durationTicks": 96,
          "midi": 36,
          "name": "C2",
          "ticks": 86880,
          "time": 84.84375,
          "velocity": 0.3937007874015748
        },
        {
          "duration": 0.09375,
          "durationTicks": 96,
          "midi": 42,
          "name": "F#2",
          "ticks": 86976,
          "time": 84.9375,
          "velocity": 0.3937007874015748
        },
        {
          "duration": 0.09375,
          "durationTicks": 96,
          "midi": 35,
          "name": "B1",
          "ticks": 86976,
          "time": 84.9375,
          "velocity": 0.3937007874015748
        },
        {
          "duration": 0.09375,
          "durationTicks": 96,
          "midi": 40,
          "name": "E2",
          "ticks": 87072,
          "time": 85.03125,
          "velocity": 0.3937007874015748
        },
        {
          "duration": 0.09375,
          "durationTicks": 96,
          "midi": 38,
          "name": "D2",
          "ticks": 87072,
          "time": 85.03125,
          "velocity": 0.3937007874015748
        },
        {
          "duration": 0.09375,
          "durationTicks": 96,
          "midi": 35,
          "name": "B1",
          "ticks": 87072,
          "time": 85.03125,
          "velocity": 0.3937007874015748
        },
        {
          "duration": 0.09375,
          "durationTicks": 96,
          "midi": 42,
          "name": "F#2",
          "ticks": 87168,
          "time": 85.125,
          "velocity": 0.3937007874015748
        },
        {
          "duration": 0.09375,
          "durationTicks": 96,
          "midi": 36,
          "name": "C2",
          "ticks": 87168,
          "time": 85.125,
          "velocity": 0.3937007874015748
        },
        {
          "duration": 0.09375,
          "durationTicks": 96,
          "midi": 36,
          "name": "C2",
          "ticks": 87264,
          "time": 85.21875,
          "velocity": 0.3937007874015748
        },
        {
          "duration": 0.09375,
          "durationTicks": 96,
          "midi": 38,
          "name": "D2",
          "ticks": 87360,
          "time": 85.3125,
          "velocity": 0.3937007874015748
        },
        {
          "duration": 0.09375,
          "durationTicks": 96,
          "midi": 42,
          "name": "F#2",
          "ticks": 87360,
          "time": 85.3125,
          "velocity": 0.3937007874015748
        },
        {
          "duration": 0.09375,
          "durationTicks": 96,
          "midi": 35,
          "name": "B1",
          "ticks": 87360,
          "time": 85.3125,
          "velocity": 0.3937007874015748
        },
        {
          "duration": 0.09375,
          "durationTicks": 96,
          "midi": 35,
          "name": "B1",
          "ticks": 87456,
          "time": 85.40625,
          "velocity": 0.3937007874015748
        },
        {
          "duration": 0.09375,
          "durationTicks": 96,
          "midi": 46,
          "name": "A#2",
          "ticks": 87552,
          "time": 85.5,
          "velocity": 0.3937007874015748
        },
        {
          "duration": 0.09375,
          "durationTicks": 96,
          "midi": 52,
          "name": "E3",
          "ticks": 87552,
          "time": 85.5,
          "velocity": 0.3937007874015748
        },
        {
          "duration": 0.1875,
          "durationTicks": 192,
          "midi": 35,
          "name": "B1",
          "ticks": 87552,
          "time": 85.5,
          "velocity": 0.3937007874015748
        },
        {
          "duration": 0.1875,
          "durationTicks": 192,
          "midi": 44,
          "name": "G#2",
          "ticks": 87552,
          "time": 85.5,
          "velocity": 0.3937007874015748
        },
        {
          "duration": 0.1875,
          "durationTicks": 192,
          "midi": 36,
          "name": "C2",
          "ticks": 87552,
          "time": 85.5,
          "velocity": 0.3937007874015748
        },
        {
          "duration": 0.09375,
          "durationTicks": 96,
          "midi": 46,
          "name": "A#2",
          "ticks": 87552,
          "time": 85.5,
          "velocity": 0.3937007874015748
        },
        {
          "duration": 0.1875,
          "durationTicks": 192,
          "midi": 57,
          "name": "A3",
          "ticks": 87552,
          "time": 85.5,
          "velocity": 0.3937007874015748
        },
        {
          "duration": 0.1875,
          "durationTicks": 192,
          "midi": 44,
          "name": "G#2",
          "ticks": 87552,
          "time": 85.5,
          "velocity": 0.3937007874015748
        },
        {
          "duration": 0.1875,
          "durationTicks": 192,
          "midi": 44,
          "name": "G#2",
          "ticks": 87744,
          "time": 85.6875,
          "velocity": 0.3937007874015748
        },
        {
          "duration": 0.09375,
          "durationTicks": 96,
          "midi": 36,
          "name": "C2",
          "ticks": 87744,
          "time": 85.6875,
          "velocity": 0.3937007874015748
        },
        {
          "duration": 0.1875,
          "durationTicks": 192,
          "midi": 44,
          "name": "G#2",
          "ticks": 87936,
          "time": 85.875,
          "velocity": 0.3937007874015748
        },
        {
          "duration": 0.09375,
          "durationTicks": 96,
          "midi": 40,
          "name": "E2",
          "ticks": 87936,
          "time": 85.875,
          "velocity": 0.3937007874015748
        },
        {
          "duration": 0.09375,
          "durationTicks": 96,
          "midi": 38,
          "name": "D2",
          "ticks": 87936,
          "time": 85.875,
          "velocity": 0.3937007874015748
        },
        {
          "duration": 0.1875,
          "durationTicks": 192,
          "midi": 44,
          "name": "G#2",
          "ticks": 87936,
          "time": 85.875,
          "velocity": 0.3937007874015748
        },
        {
          "duration": 0.1875,
          "durationTicks": 192,
          "midi": 35,
          "name": "B1",
          "ticks": 87936,
          "time": 85.875,
          "velocity": 0.3937007874015748
        },
        {
          "duration": 0.1875,
          "durationTicks": 192,
          "midi": 57,
          "name": "A3",
          "ticks": 87936,
          "time": 85.875,
          "velocity": 0.3937007874015748
        },
        {
          "duration": 0.1875,
          "durationTicks": 192,
          "midi": 36,
          "name": "C2",
          "ticks": 87936,
          "time": 85.875,
          "velocity": 0.3937007874015748
        },
        {
          "duration": 0.1875,
          "durationTicks": 192,
          "midi": 44,
          "name": "G#2",
          "ticks": 88128,
          "time": 86.0625,
          "velocity": 0.3937007874015748
        },
        {
          "duration": 0.09375,
          "durationTicks": 96,
          "midi": 36,
          "name": "C2",
          "ticks": 88128,
          "time": 86.0625,
          "velocity": 0.3937007874015748
        },
        {
          "duration": 0.1875,
          "durationTicks": 192,
          "midi": 57,
          "name": "A3",
          "ticks": 88320,
          "time": 86.25,
          "velocity": 0.3937007874015748
        },
        {
          "duration": 0.1875,
          "durationTicks": 192,
          "midi": 36,
          "name": "C2",
          "ticks": 88320,
          "time": 86.25,
          "velocity": 0.3937007874015748
        },
        {
          "duration": 0.1875,
          "durationTicks": 192,
          "midi": 44,
          "name": "G#2",
          "ticks": 88320,
          "time": 86.25,
          "velocity": 0.3937007874015748
        },
        {
          "duration": 0.1875,
          "durationTicks": 192,
          "midi": 35,
          "name": "B1",
          "ticks": 88320,
          "time": 86.25,
          "velocity": 0.3937007874015748
        },
        {
          "duration": 0.1875,
          "durationTicks": 192,
          "midi": 44,
          "name": "G#2",
          "ticks": 88320,
          "time": 86.25,
          "velocity": 0.3937007874015748
        },
        {
          "duration": 0.09375,
          "durationTicks": 96,
          "midi": 36,
          "name": "C2",
          "ticks": 88512,
          "time": 86.4375,
          "velocity": 0.3937007874015748
        },
        {
          "duration": 0.1875,
          "durationTicks": 192,
          "midi": 44,
          "name": "G#2",
          "ticks": 88512,
          "time": 86.4375,
          "velocity": 0.3937007874015748
        },
        {
          "duration": 0.1875,
          "durationTicks": 192,
          "midi": 44,
          "name": "G#2",
          "ticks": 88704,
          "time": 86.625,
          "velocity": 0.3937007874015748
        },
        {
          "duration": 0.1875,
          "durationTicks": 192,
          "midi": 36,
          "name": "C2",
          "ticks": 88704,
          "time": 86.625,
          "velocity": 0.3937007874015748
        },
        {
          "duration": 0.1875,
          "durationTicks": 192,
          "midi": 44,
          "name": "G#2",
          "ticks": 88704,
          "time": 86.625,
          "velocity": 0.3937007874015748
        },
        {
          "duration": 0.1875,
          "durationTicks": 192,
          "midi": 35,
          "name": "B1",
          "ticks": 88704,
          "time": 86.625,
          "velocity": 0.3937007874015748
        },
        {
          "duration": 0.09375,
          "durationTicks": 96,
          "midi": 40,
          "name": "E2",
          "ticks": 88704,
          "time": 86.625,
          "velocity": 0.3937007874015748
        },
        {
          "duration": 0.09375,
          "durationTicks": 96,
          "midi": 38,
          "name": "D2",
          "ticks": 88704,
          "time": 86.625,
          "velocity": 0.3937007874015748
        },
        {
          "duration": 0.1875,
          "durationTicks": 192,
          "midi": 57,
          "name": "A3",
          "ticks": 88704,
          "time": 86.625,
          "velocity": 0.3937007874015748
        },
        {
          "duration": 0.1875,
          "durationTicks": 192,
          "midi": 44,
          "name": "G#2",
          "ticks": 88896,
          "time": 86.8125,
          "velocity": 0.3937007874015748
        },
        {
          "duration": 0.09375,
          "durationTicks": 96,
          "midi": 36,
          "name": "C2",
          "ticks": 88896,
          "time": 86.8125,
          "velocity": 0.3937007874015748
        },
        {
          "duration": 0.09375,
          "durationTicks": 96,
          "midi": 46,
          "name": "A#2",
          "ticks": 89088,
          "time": 87,
          "velocity": 0.3937007874015748
        },
        {
          "duration": 0.09375,
          "durationTicks": 96,
          "midi": 46,
          "name": "A#2",
          "ticks": 89088,
          "time": 87,
          "velocity": 0.3937007874015748
        },
        {
          "duration": 0.1875,
          "durationTicks": 192,
          "midi": 35,
          "name": "B1",
          "ticks": 89088,
          "time": 87,
          "velocity": 0.3937007874015748
        },
        {
          "duration": 0.1875,
          "durationTicks": 192,
          "midi": 36,
          "name": "C2",
          "ticks": 89088,
          "time": 87,
          "velocity": 0.3937007874015748
        },
        {
          "duration": 0.1875,
          "durationTicks": 192,
          "midi": 44,
          "name": "G#2",
          "ticks": 89088,
          "time": 87,
          "velocity": 0.3937007874015748
        },
        {
          "duration": 0.1875,
          "durationTicks": 192,
          "midi": 44,
          "name": "G#2",
          "ticks": 89088,
          "time": 87,
          "velocity": 0.3937007874015748
        },
        {
          "duration": 0.09375,
          "durationTicks": 96,
          "midi": 52,
          "name": "E3",
          "ticks": 89088,
          "time": 87,
          "velocity": 0.3937007874015748
        },
        {
          "duration": 0.1875,
          "durationTicks": 192,
          "midi": 57,
          "name": "A3",
          "ticks": 89088,
          "time": 87,
          "velocity": 0.3937007874015748
        },
        {
          "duration": 0.1875,
          "durationTicks": 192,
          "midi": 44,
          "name": "G#2",
          "ticks": 89280,
          "time": 87.1875,
          "velocity": 0.3937007874015748
        },
        {
          "duration": 0.09375,
          "durationTicks": 96,
          "midi": 36,
          "name": "C2",
          "ticks": 89280,
          "time": 87.1875,
          "velocity": 0.3937007874015748
        },
        {
          "duration": 0.1875,
          "durationTicks": 192,
          "midi": 44,
          "name": "G#2",
          "ticks": 89472,
          "time": 87.375,
          "velocity": 0.3937007874015748
        },
        {
          "duration": 0.1875,
          "durationTicks": 192,
          "midi": 57,
          "name": "A3",
          "ticks": 89472,
          "time": 87.375,
          "velocity": 0.3937007874015748
        },
        {
          "duration": 0.1875,
          "durationTicks": 192,
          "midi": 44,
          "name": "G#2",
          "ticks": 89472,
          "time": 87.375,
          "velocity": 0.3937007874015748
        },
        {
          "duration": 0.1875,
          "durationTicks": 192,
          "midi": 35,
          "name": "B1",
          "ticks": 89472,
          "time": 87.375,
          "velocity": 0.3937007874015748
        },
        {
          "duration": 0.1875,
          "durationTicks": 192,
          "midi": 36,
          "name": "C2",
          "ticks": 89472,
          "time": 87.375,
          "velocity": 0.3937007874015748
        },
        {
          "duration": 0.09375,
          "durationTicks": 96,
          "midi": 40,
          "name": "E2",
          "ticks": 89472,
          "time": 87.375,
          "velocity": 0.3937007874015748
        },
        {
          "duration": 0.09375,
          "durationTicks": 96,
          "midi": 38,
          "name": "D2",
          "ticks": 89472,
          "time": 87.375,
          "velocity": 0.3937007874015748
        },
        {
          "duration": 0.1875,
          "durationTicks": 192,
          "midi": 44,
          "name": "G#2",
          "ticks": 89664,
          "time": 87.5625,
          "velocity": 0.3937007874015748
        },
        {
          "duration": 0.09375,
          "durationTicks": 96,
          "midi": 36,
          "name": "C2",
          "ticks": 89664,
          "time": 87.5625,
          "velocity": 0.3937007874015748
        },
        {
          "duration": 0.09375,
          "durationTicks": 96,
          "midi": 38,
          "name": "D2",
          "ticks": 89760,
          "time": 87.65625,
          "velocity": 0.3937007874015748
        },
        {
          "duration": 0.1875,
          "durationTicks": 192,
          "midi": 36,
          "name": "C2",
          "ticks": 89856,
          "time": 87.75,
          "velocity": 0.3937007874015748
        },
        {
          "duration": 0.1875,
          "durationTicks": 192,
          "midi": 35,
          "name": "B1",
          "ticks": 89856,
          "time": 87.75,
          "velocity": 0.3937007874015748
        },
        {
          "duration": 0.1875,
          "durationTicks": 192,
          "midi": 44,
          "name": "G#2",
          "ticks": 89856,
          "time": 87.75,
          "velocity": 0.3937007874015748
        },
        {
          "duration": 0.1875,
          "durationTicks": 192,
          "midi": 57,
          "name": "A3",
          "ticks": 89856,
          "time": 87.75,
          "velocity": 0.3937007874015748
        },
        {
          "duration": 0.1875,
          "durationTicks": 192,
          "midi": 44,
          "name": "G#2",
          "ticks": 89856,
          "time": 87.75,
          "velocity": 0.3937007874015748
        },
        {
          "duration": 0.09375,
          "durationTicks": 96,
          "midi": 38,
          "name": "D2",
          "ticks": 89952,
          "time": 87.84375,
          "velocity": 0.3937007874015748
        },
        {
          "duration": 0.1875,
          "durationTicks": 192,
          "midi": 44,
          "name": "G#2",
          "ticks": 90048,
          "time": 87.9375,
          "velocity": 0.3937007874015748
        },
        {
          "duration": 0.09375,
          "durationTicks": 96,
          "midi": 38,
          "name": "D2",
          "ticks": 90144,
          "time": 88.03125,
          "velocity": 0.3937007874015748
        },
        {
          "duration": 0.1875,
          "durationTicks": 192,
          "midi": 36,
          "name": "C2",
          "ticks": 90240,
          "time": 88.125,
          "velocity": 0.3937007874015748
        },
        {
          "duration": 0.09375,
          "durationTicks": 96,
          "midi": 40,
          "name": "E2",
          "ticks": 90240,
          "time": 88.125,
          "velocity": 0.3937007874015748
        },
        {
          "duration": 0.1875,
          "durationTicks": 192,
          "midi": 57,
          "name": "A3",
          "ticks": 90240,
          "time": 88.125,
          "velocity": 0.3937007874015748
        },
        {
          "duration": 0.1875,
          "durationTicks": 192,
          "midi": 44,
          "name": "G#2",
          "ticks": 90240,
          "time": 88.125,
          "velocity": 0.3937007874015748
        },
        {
          "duration": 0.1875,
          "durationTicks": 192,
          "midi": 44,
          "name": "G#2",
          "ticks": 90240,
          "time": 88.125,
          "velocity": 0.3937007874015748
        },
        {
          "duration": 0.1875,
          "durationTicks": 192,
          "midi": 35,
          "name": "B1",
          "ticks": 90240,
          "time": 88.125,
          "velocity": 0.3937007874015748
        },
        {
          "duration": 0.09375,
          "durationTicks": 96,
          "midi": 38,
          "name": "D2",
          "ticks": 90240,
          "time": 88.125,
          "velocity": 0.3937007874015748
        },
        {
          "duration": 0.1875,
          "durationTicks": 192,
          "midi": 44,
          "name": "G#2",
          "ticks": 90432,
          "time": 88.3125,
          "velocity": 0.3937007874015748
        },
        {
          "duration": 0.09375,
          "durationTicks": 96,
          "midi": 38,
          "name": "D2",
          "ticks": 90432,
          "time": 88.3125,
          "velocity": 0.3937007874015748
        },
        {
          "duration": 0.1875,
          "durationTicks": 192,
          "midi": 44,
          "name": "G#2",
          "ticks": 90624,
          "time": 88.5,
          "velocity": 0.3937007874015748
        },
        {
          "duration": 0.1875,
          "durationTicks": 192,
          "midi": 35,
          "name": "B1",
          "ticks": 90624,
          "time": 88.5,
          "velocity": 0.3937007874015748
        },
        {
          "duration": 0.1875,
          "durationTicks": 192,
          "midi": 44,
          "name": "G#2",
          "ticks": 90624,
          "time": 88.5,
          "velocity": 0.3937007874015748
        },
        {
          "duration": 0.09375,
          "durationTicks": 96,
          "midi": 46,
          "name": "A#2",
          "ticks": 90624,
          "time": 88.5,
          "velocity": 0.3937007874015748
        },
        {
          "duration": 0.1875,
          "durationTicks": 192,
          "midi": 57,
          "name": "A3",
          "ticks": 90624,
          "time": 88.5,
          "velocity": 0.3937007874015748
        },
        {
          "duration": 0.09375,
          "durationTicks": 96,
          "midi": 46,
          "name": "A#2",
          "ticks": 90624,
          "time": 88.5,
          "velocity": 0.3937007874015748
        },
        {
          "duration": 0.1875,
          "durationTicks": 192,
          "midi": 36,
          "name": "C2",
          "ticks": 90624,
          "time": 88.5,
          "velocity": 0.3937007874015748
        },
        {
          "duration": 0.09375,
          "durationTicks": 96,
          "midi": 52,
          "name": "E3",
          "ticks": 90624,
          "time": 88.5,
          "velocity": 0.3937007874015748
        },
        {
          "duration": 0.1875,
          "durationTicks": 192,
          "midi": 44,
          "name": "G#2",
          "ticks": 90816,
          "time": 88.6875,
          "velocity": 0.3937007874015748
        },
        {
          "duration": 0.09375,
          "durationTicks": 96,
          "midi": 36,
          "name": "C2",
          "ticks": 90816,
          "time": 88.6875,
          "velocity": 0.3937007874015748
        },
        {
          "duration": 0.09375,
          "durationTicks": 96,
          "midi": 38,
          "name": "D2",
          "ticks": 91008,
          "time": 88.875,
          "velocity": 0.3937007874015748
        },
        {
          "duration": 0.1875,
          "durationTicks": 192,
          "midi": 36,
          "name": "C2",
          "ticks": 91008,
          "time": 88.875,
          "velocity": 0.3937007874015748
        },
        {
          "duration": 0.1875,
          "durationTicks": 192,
          "midi": 35,
          "name": "B1",
          "ticks": 91008,
          "time": 88.875,
          "velocity": 0.3937007874015748
        },
        {
          "duration": 0.09375,
          "durationTicks": 96,
          "midi": 40,
          "name": "E2",
          "ticks": 91008,
          "time": 88.875,
          "velocity": 0.3937007874015748
        },
        {
          "duration": 0.1875,
          "durationTicks": 192,
          "midi": 57,
          "name": "A3",
          "ticks": 91008,
          "time": 88.875,
          "velocity": 0.3937007874015748
        },
        {
          "duration": 0.1875,
          "durationTicks": 192,
          "midi": 44,
          "name": "G#2",
          "ticks": 91008,
          "time": 88.875,
          "velocity": 0.3937007874015748
        },
        {
          "duration": 0.1875,
          "durationTicks": 192,
          "midi": 44,
          "name": "G#2",
          "ticks": 91008,
          "time": 88.875,
          "velocity": 0.3937007874015748
        },
        {
          "duration": 0.1875,
          "durationTicks": 192,
          "midi": 44,
          "name": "G#2",
          "ticks": 91200,
          "time": 89.0625,
          "velocity": 0.3937007874015748
        },
        {
          "duration": 0.09375,
          "durationTicks": 96,
          "midi": 36,
          "name": "C2",
          "ticks": 91200,
          "time": 89.0625,
          "velocity": 0.3937007874015748
        },
        {
          "duration": 0.1875,
          "durationTicks": 192,
          "midi": 35,
          "name": "B1",
          "ticks": 91392,
          "time": 89.25,
          "velocity": 0.3937007874015748
        },
        {
          "duration": 0.1875,
          "durationTicks": 192,
          "midi": 44,
          "name": "G#2",
          "ticks": 91392,
          "time": 89.25,
          "velocity": 0.3937007874015748
        },
        {
          "duration": 0.1875,
          "durationTicks": 192,
          "midi": 36,
          "name": "C2",
          "ticks": 91392,
          "time": 89.25,
          "velocity": 0.3937007874015748
        },
        {
          "duration": 0.1875,
          "durationTicks": 192,
          "midi": 44,
          "name": "G#2",
          "ticks": 91392,
          "time": 89.25,
          "velocity": 0.3937007874015748
        },
        {
          "duration": 0.1875,
          "durationTicks": 192,
          "midi": 57,
          "name": "A3",
          "ticks": 91392,
          "time": 89.25,
          "velocity": 0.3937007874015748
        },
        {
          "duration": 0.09375,
          "durationTicks": 96,
          "midi": 36,
          "name": "C2",
          "ticks": 91584,
          "time": 89.4375,
          "velocity": 0.3937007874015748
        },
        {
          "duration": 0.1875,
          "durationTicks": 192,
          "midi": 44,
          "name": "G#2",
          "ticks": 91584,
          "time": 89.4375,
          "velocity": 0.3937007874015748
        },
        {
          "duration": 0.09375,
          "durationTicks": 96,
          "midi": 40,
          "name": "E2",
          "ticks": 91776,
          "time": 89.625,
          "velocity": 0.3937007874015748
        },
        {
          "duration": 0.09375,
          "durationTicks": 96,
          "midi": 38,
          "name": "D2",
          "ticks": 91776,
          "time": 89.625,
          "velocity": 0.3937007874015748
        },
        {
          "duration": 0.1875,
          "durationTicks": 192,
          "midi": 44,
          "name": "G#2",
          "ticks": 91776,
          "time": 89.625,
          "velocity": 0.3937007874015748
        },
        {
          "duration": 0.1875,
          "durationTicks": 192,
          "midi": 35,
          "name": "B1",
          "ticks": 91776,
          "time": 89.625,
          "velocity": 0.3937007874015748
        },
        {
          "duration": 0.1875,
          "durationTicks": 192,
          "midi": 57,
          "name": "A3",
          "ticks": 91776,
          "time": 89.625,
          "velocity": 0.3937007874015748
        },
        {
          "duration": 0.1875,
          "durationTicks": 192,
          "midi": 44,
          "name": "G#2",
          "ticks": 91776,
          "time": 89.625,
          "velocity": 0.3937007874015748
        },
        {
          "duration": 0.1875,
          "durationTicks": 192,
          "midi": 36,
          "name": "C2",
          "ticks": 91776,
          "time": 89.625,
          "velocity": 0.3937007874015748
        },
        {
          "duration": 0.1875,
          "durationTicks": 192,
          "midi": 44,
          "name": "G#2",
          "ticks": 91968,
          "time": 89.8125,
          "velocity": 0.3937007874015748
        },
        {
          "duration": 0.09375,
          "durationTicks": 96,
          "midi": 36,
          "name": "C2",
          "ticks": 91968,
          "time": 89.8125,
          "velocity": 0.3937007874015748
        },
        {
          "duration": 0.1875,
          "durationTicks": 192,
          "midi": 44,
          "name": "G#2",
          "ticks": 92160,
          "time": 90,
          "velocity": 0.3937007874015748
        },
        {
          "duration": 0.1875,
          "durationTicks": 192,
          "midi": 57,
          "name": "A3",
          "ticks": 92160,
          "time": 90,
          "velocity": 0.3937007874015748
        },
        {
          "duration": 0.09375,
          "durationTicks": 96,
          "midi": 46,
          "name": "A#2",
          "ticks": 92160,
          "time": 90,
          "velocity": 0.3937007874015748
        },
        {
          "duration": 0.09375,
          "durationTicks": 96,
          "midi": 52,
          "name": "E3",
          "ticks": 92160,
          "time": 90,
          "velocity": 0.3937007874015748
        },
        {
          "duration": 0.1875,
          "durationTicks": 192,
          "midi": 36,
          "name": "C2",
          "ticks": 92160,
          "time": 90,
          "velocity": 0.3937007874015748
        },
        {
          "duration": 0.1875,
          "durationTicks": 192,
          "midi": 35,
          "name": "B1",
          "ticks": 92160,
          "time": 90,
          "velocity": 0.3937007874015748
        },
        {
          "duration": 0.1875,
          "durationTicks": 192,
          "midi": 44,
          "name": "G#2",
          "ticks": 92160,
          "time": 90,
          "velocity": 0.3937007874015748
        },
        {
          "duration": 0.09375,
          "durationTicks": 96,
          "midi": 36,
          "name": "C2",
          "ticks": 92352,
          "time": 90.1875,
          "velocity": 0.3937007874015748
        },
        {
          "duration": 0.1875,
          "durationTicks": 192,
          "midi": 44,
          "name": "G#2",
          "ticks": 92352,
          "time": 90.1875,
          "velocity": 0.3937007874015748
        },
        {
          "duration": 0.09375,
          "durationTicks": 96,
          "midi": 38,
          "name": "D2",
          "ticks": 92544,
          "time": 90.375,
          "velocity": 0.3937007874015748
        },
        {
          "duration": 0.09375,
          "durationTicks": 96,
          "midi": 40,
          "name": "E2",
          "ticks": 92544,
          "time": 90.375,
          "velocity": 0.3937007874015748
        },
        {
          "duration": 0.1875,
          "durationTicks": 192,
          "midi": 44,
          "name": "G#2",
          "ticks": 92544,
          "time": 90.375,
          "velocity": 0.3937007874015748
        },
        {
          "duration": 0.1875,
          "durationTicks": 192,
          "midi": 44,
          "name": "G#2",
          "ticks": 92544,
          "time": 90.375,
          "velocity": 0.3937007874015748
        },
        {
          "duration": 0.1875,
          "durationTicks": 192,
          "midi": 36,
          "name": "C2",
          "ticks": 92544,
          "time": 90.375,
          "velocity": 0.3937007874015748
        },
        {
          "duration": 0.1875,
          "durationTicks": 192,
          "midi": 57,
          "name": "A3",
          "ticks": 92544,
          "time": 90.375,
          "velocity": 0.3937007874015748
        },
        {
          "duration": 0.1875,
          "durationTicks": 192,
          "midi": 35,
          "name": "B1",
          "ticks": 92544,
          "time": 90.375,
          "velocity": 0.3937007874015748
        },
        {
          "duration": 0.09375,
          "durationTicks": 96,
          "midi": 36,
          "name": "C2",
          "ticks": 92736,
          "time": 90.5625,
          "velocity": 0.3937007874015748
        },
        {
          "duration": 0.1875,
          "durationTicks": 192,
          "midi": 44,
          "name": "G#2",
          "ticks": 92736,
          "time": 90.5625,
          "velocity": 0.3937007874015748
        },
        {
          "duration": 0.09375,
          "durationTicks": 96,
          "midi": 38,
          "name": "D2",
          "ticks": 92832,
          "time": 90.65625,
          "velocity": 0.3937007874015748
        },
        {
          "duration": 0.1875,
          "durationTicks": 192,
          "midi": 36,
          "name": "C2",
          "ticks": 92928,
          "time": 90.75,
          "velocity": 0.3937007874015748
        },
        {
          "duration": 0.1875,
          "durationTicks": 192,
          "midi": 44,
          "name": "G#2",
          "ticks": 92928,
          "time": 90.75,
          "velocity": 0.3937007874015748
        },
        {
          "duration": 0.1875,
          "durationTicks": 192,
          "midi": 35,
          "name": "B1",
          "ticks": 92928,
          "time": 90.75,
          "velocity": 0.3937007874015748
        },
        {
          "duration": 0.1875,
          "durationTicks": 192,
          "midi": 44,
          "name": "G#2",
          "ticks": 92928,
          "time": 90.75,
          "velocity": 0.3937007874015748
        },
        {
          "duration": 0.1875,
          "durationTicks": 192,
          "midi": 57,
          "name": "A3",
          "ticks": 92928,
          "time": 90.75,
          "velocity": 0.3937007874015748
        },
        {
          "duration": 0.09375,
          "durationTicks": 96,
          "midi": 38,
          "name": "D2",
          "ticks": 93024,
          "time": 90.84375,
          "velocity": 0.3937007874015748
        },
        {
          "duration": 0.1875,
          "durationTicks": 192,
          "midi": 44,
          "name": "G#2",
          "ticks": 93120,
          "time": 90.9375,
          "velocity": 0.3937007874015748
        },
        {
          "duration": 0.09375,
          "durationTicks": 96,
          "midi": 38,
          "name": "D2",
          "ticks": 93216,
          "time": 91.03125,
          "velocity": 0.3937007874015748
        },
        {
          "duration": 0.1875,
          "durationTicks": 192,
          "midi": 36,
          "name": "C2",
          "ticks": 93312,
          "time": 91.125,
          "velocity": 0.3937007874015748
        },
        {
          "duration": 0.09375,
          "durationTicks": 96,
          "midi": 38,
          "name": "D2",
          "ticks": 93312,
          "time": 91.125,
          "velocity": 0.3937007874015748
        },
        {
          "duration": 0.1875,
          "durationTicks": 192,
          "midi": 44,
          "name": "G#2",
          "ticks": 93312,
          "time": 91.125,
          "velocity": 0.3937007874015748
        },
        {
          "duration": 0.09375,
          "durationTicks": 96,
          "midi": 40,
          "name": "E2",
          "ticks": 93312,
          "time": 91.125,
          "velocity": 0.3937007874015748
        },
        {
          "duration": 0.1875,
          "durationTicks": 192,
          "midi": 57,
          "name": "A3",
          "ticks": 93312,
          "time": 91.125,
          "velocity": 0.3937007874015748
        },
        {
          "duration": 0.1875,
          "durationTicks": 192,
          "midi": 44,
          "name": "G#2",
          "ticks": 93312,
          "time": 91.125,
          "velocity": 0.3937007874015748
        },
        {
          "duration": 0.1875,
          "durationTicks": 192,
          "midi": 35,
          "name": "B1",
          "ticks": 93312,
          "time": 91.125,
          "velocity": 0.3937007874015748
        },
        {
          "duration": 0.09375,
          "durationTicks": 96,
          "midi": 38,
          "name": "D2",
          "ticks": 93504,
          "time": 91.3125,
          "velocity": 0.3937007874015748
        },
        {
          "duration": 0.1875,
          "durationTicks": 192,
          "midi": 44,
          "name": "G#2",
          "ticks": 93504,
          "time": 91.3125,
          "velocity": 0.3937007874015748
        },
        {
          "duration": 0.09375,
          "durationTicks": 96,
          "midi": 46,
          "name": "A#2",
          "ticks": 93696,
          "time": 91.5,
          "velocity": 0.3937007874015748
        },
        {
          "duration": 0.1875,
          "durationTicks": 192,
          "midi": 57,
          "name": "A3",
          "ticks": 93696,
          "time": 91.5,
          "velocity": 0.3937007874015748
        },
        {
          "duration": 0.09375,
          "durationTicks": 96,
          "midi": 46,
          "name": "A#2",
          "ticks": 93696,
          "time": 91.5,
          "velocity": 0.3937007874015748
        },
        {
          "duration": 0.1875,
          "durationTicks": 192,
          "midi": 35,
          "name": "B1",
          "ticks": 93696,
          "time": 91.5,
          "velocity": 0.3937007874015748
        },
        {
          "duration": 0.09375,
          "durationTicks": 96,
          "midi": 52,
          "name": "E3",
          "ticks": 93696,
          "time": 91.5,
          "velocity": 0.3937007874015748
        },
        {
          "duration": 0.1875,
          "durationTicks": 192,
          "midi": 36,
          "name": "C2",
          "ticks": 93696,
          "time": 91.5,
          "velocity": 0.3937007874015748
        },
        {
          "duration": 0.09375,
          "durationTicks": 96,
          "midi": 35,
          "name": "B1",
          "ticks": 93888,
          "time": 91.6875,
          "velocity": 0.3937007874015748
        },
        {
          "duration": 0.09375,
          "durationTicks": 96,
          "midi": 36,
          "name": "C2",
          "ticks": 93888,
          "time": 91.6875,
          "velocity": 0.3937007874015748
        },
        {
          "duration": 0.1875,
          "durationTicks": 192,
          "midi": 36,
          "name": "C2",
          "ticks": 94080,
          "time": 91.875,
          "velocity": 0.3937007874015748
        },
        {
          "duration": 0.09375,
          "durationTicks": 96,
          "midi": 38,
          "name": "D2",
          "ticks": 94080,
          "time": 91.875,
          "velocity": 0.3937007874015748
        },
        {
          "duration": 0.1875,
          "durationTicks": 192,
          "midi": 35,
          "name": "B1",
          "ticks": 94080,
          "time": 91.875,
          "velocity": 0.3937007874015748
        },
        {
          "duration": 0.1875,
          "durationTicks": 192,
          "midi": 57,
          "name": "A3",
          "ticks": 94080,
          "time": 91.875,
          "velocity": 0.3937007874015748
        },
        {
          "duration": 0.09375,
          "durationTicks": 96,
          "midi": 36,
          "name": "C2",
          "ticks": 94272,
          "time": 92.0625,
          "velocity": 0.3937007874015748
        },
        {
          "duration": 0.09375,
          "durationTicks": 96,
          "midi": 35,
          "name": "B1",
          "ticks": 94272,
          "time": 92.0625,
          "velocity": 0.3937007874015748
        },
        {
          "duration": 0.1875,
          "durationTicks": 192,
          "midi": 57,
          "name": "A3",
          "ticks": 94464,
          "time": 92.25,
          "velocity": 0.3937007874015748
        },
        {
          "duration": 0.1875,
          "durationTicks": 192,
          "midi": 35,
          "name": "B1",
          "ticks": 94464,
          "time": 92.25,
          "velocity": 0.3937007874015748
        },
        {
          "duration": 0.1875,
          "durationTicks": 192,
          "midi": 36,
          "name": "C2",
          "ticks": 94464,
          "time": 92.25,
          "velocity": 0.3937007874015748
        },
        {
          "duration": 0.09375,
          "durationTicks": 96,
          "midi": 36,
          "name": "C2",
          "ticks": 94656,
          "time": 92.4375,
          "velocity": 0.3937007874015748
        },
        {
          "duration": 0.1875,
          "durationTicks": 192,
          "midi": 36,
          "name": "C2",
          "ticks": 94848,
          "time": 92.625,
          "velocity": 0.3937007874015748
        },
        {
          "duration": 0.1875,
          "durationTicks": 192,
          "midi": 35,
          "name": "B1",
          "ticks": 94848,
          "time": 92.625,
          "velocity": 0.3937007874015748
        },
        {
          "duration": 0.09375,
          "durationTicks": 96,
          "midi": 38,
          "name": "D2",
          "ticks": 94848,
          "time": 92.625,
          "velocity": 0.3937007874015748
        },
        {
          "duration": 0.1875,
          "durationTicks": 192,
          "midi": 57,
          "name": "A3",
          "ticks": 94848,
          "time": 92.625,
          "velocity": 0.3937007874015748
        },
        {
          "duration": 0.09375,
          "durationTicks": 96,
          "midi": 36,
          "name": "C2",
          "ticks": 95040,
          "time": 92.8125,
          "velocity": 0.3937007874015748
        },
        {
          "duration": 0.09375,
          "durationTicks": 96,
          "midi": 40,
          "name": "E2",
          "ticks": 95232,
          "time": 93,
          "velocity": 0.3937007874015748
        },
        {
          "duration": 0.09375,
          "durationTicks": 96,
          "midi": 36,
          "name": "C2",
          "ticks": 95232,
          "time": 93,
          "velocity": 0.3937007874015748
        },
        {
          "duration": 0.09375,
          "durationTicks": 96,
          "midi": 40,
          "name": "E2",
          "ticks": 95328,
          "time": 93.09375,
          "velocity": 0.3937007874015748
        },
        {
          "duration": 0.09375,
          "durationTicks": 96,
          "midi": 36,
          "name": "C2",
          "ticks": 95328,
          "time": 93.09375,
          "velocity": 0.3937007874015748
        },
        {
          "duration": 0.09375,
          "durationTicks": 96,
          "midi": 38,
          "name": "D2",
          "ticks": 95424,
          "time": 93.1875,
          "velocity": 0.3937007874015748
        },
        {
          "duration": 0.09375,
          "durationTicks": 96,
          "midi": 35,
          "name": "B1",
          "ticks": 95424,
          "time": 93.1875,
          "velocity": 0.3937007874015748
        },
        {
          "duration": 0.09375,
          "durationTicks": 96,
          "midi": 35,
          "name": "B1",
          "ticks": 95520,
          "time": 93.28125,
          "velocity": 0.3937007874015748
        },
        {
          "duration": 0.09375,
          "durationTicks": 96,
          "midi": 38,
          "name": "D2",
          "ticks": 95520,
          "time": 93.28125,
          "velocity": 0.3937007874015748
        },
        {
          "duration": 0.09375,
          "durationTicks": 96,
          "midi": 36,
          "name": "C2",
          "ticks": 95616,
          "time": 93.375,
          "velocity": 0.3937007874015748
        },
        {
          "duration": 0.09375,
          "durationTicks": 96,
          "midi": 36,
          "name": "C2",
          "ticks": 95712,
          "time": 93.46875,
          "velocity": 0.3937007874015748
        },
        {
          "duration": 0.09375,
          "durationTicks": 96,
          "midi": 38,
          "name": "D2",
          "ticks": 95712,
          "time": 93.46875,
          "velocity": 0.3937007874015748
        },
        {
          "duration": 0.09375,
          "durationTicks": 96,
          "midi": 35,
          "name": "B1",
          "ticks": 95808,
          "time": 93.5625,
          "velocity": 0.3937007874015748
        },
        {
          "duration": 0.09375,
          "durationTicks": 96,
          "midi": 35,
          "name": "B1",
          "ticks": 95904,
          "time": 93.65625,
          "velocity": 0.3937007874015748
        },
        {
          "duration": 0.09375,
          "durationTicks": 96,
          "midi": 40,
          "name": "E2",
          "ticks": 96000,
          "time": 93.75,
          "velocity": 0.3937007874015748
        },
        {
          "duration": 0.09375,
          "durationTicks": 96,
          "midi": 36,
          "name": "C2",
          "ticks": 96000,
          "time": 93.75,
          "velocity": 0.3937007874015748
        },
        {
          "duration": 0.09375,
          "durationTicks": 96,
          "midi": 38,
          "name": "D2",
          "ticks": 96000,
          "time": 93.75,
          "velocity": 0.3937007874015748
        },
        {
          "duration": 0.09375,
          "durationTicks": 96,
          "midi": 36,
          "name": "C2",
          "ticks": 96096,
          "time": 93.84375,
          "velocity": 0.3937007874015748
        },
        {
          "duration": 0.09375,
          "durationTicks": 96,
          "midi": 35,
          "name": "B1",
          "ticks": 96192,
          "time": 93.9375,
          "velocity": 0.3937007874015748
        },
        {
          "duration": 0.09375,
          "durationTicks": 96,
          "midi": 35,
          "name": "B1",
          "ticks": 96288,
          "time": 94.03125,
          "velocity": 0.3937007874015748
        },
        {
          "duration": 0.09375,
          "durationTicks": 96,
          "midi": 36,
          "name": "C2",
          "ticks": 96384,
          "time": 94.125,
          "velocity": 0.3937007874015748
        },
        {
          "duration": 0.09375,
          "durationTicks": 96,
          "midi": 36,
          "name": "C2",
          "ticks": 96480,
          "time": 94.21875,
          "velocity": 0.3937007874015748
        },
        {
          "duration": 0.09375,
          "durationTicks": 96,
          "midi": 35,
          "name": "B1",
          "ticks": 96576,
          "time": 94.3125,
          "velocity": 0.3937007874015748
        },
        {
          "duration": 0.09375,
          "durationTicks": 96,
          "midi": 35,
          "name": "B1",
          "ticks": 96672,
          "time": 94.40625,
          "velocity": 0.3937007874015748
        },
        {
          "duration": 0.1875,
          "durationTicks": 192,
          "midi": 52,
          "name": "E3",
          "ticks": 96768,
          "time": 94.5,
          "velocity": 0.3937007874015748
        },
        {
          "duration": 0.1875,
          "durationTicks": 192,
          "midi": 57,
          "name": "A3",
          "ticks": 96768,
          "time": 94.5,
          "velocity": 0.3937007874015748
        },
        {
          "duration": 0.1875,
          "durationTicks": 192,
          "midi": 35,
          "name": "B1",
          "ticks": 96768,
          "time": 94.5,
          "velocity": 0.3937007874015748
        },
        {
          "duration": 0.1875,
          "durationTicks": 192,
          "midi": 44,
          "name": "G#2",
          "ticks": 96768,
          "time": 94.5,
          "velocity": 0.3937007874015748
        },
        {
          "duration": 0.1875,
          "durationTicks": 192,
          "midi": 44,
          "name": "G#2",
          "ticks": 96768,
          "time": 94.5,
          "velocity": 0.3937007874015748
        },
        {
          "duration": 0.1875,
          "durationTicks": 192,
          "midi": 36,
          "name": "C2",
          "ticks": 96768,
          "time": 94.5,
          "velocity": 0.3937007874015748
        },
        {
          "duration": 0.1875,
          "durationTicks": 192,
          "midi": 36,
          "name": "C2",
          "ticks": 97152,
          "time": 94.875,
          "velocity": 0.3937007874015748
        },
        {
          "duration": 0.1875,
          "durationTicks": 192,
          "midi": 44,
          "name": "G#2",
          "ticks": 97152,
          "time": 94.875,
          "velocity": 0.3937007874015748
        },
        {
          "duration": 0.09375,
          "durationTicks": 96,
          "midi": 38,
          "name": "D2",
          "ticks": 97152,
          "time": 94.875,
          "velocity": 0.3937007874015748
        },
        {
          "duration": 0.1875,
          "durationTicks": 192,
          "midi": 35,
          "name": "B1",
          "ticks": 97152,
          "time": 94.875,
          "velocity": 0.3937007874015748
        },
        {
          "duration": 0.1875,
          "durationTicks": 192,
          "midi": 44,
          "name": "G#2",
          "ticks": 97152,
          "time": 94.875,
          "velocity": 0.3937007874015748
        },
        {
          "duration": 0.1875,
          "durationTicks": 192,
          "midi": 57,
          "name": "A3",
          "ticks": 97152,
          "time": 94.875,
          "velocity": 0.3937007874015748
        },
        {
          "duration": 0.09375,
          "durationTicks": 96,
          "midi": 40,
          "name": "E2",
          "ticks": 97152,
          "time": 94.875,
          "velocity": 0.3937007874015748
        },
        {
          "duration": 0.1875,
          "durationTicks": 192,
          "midi": 35,
          "name": "B1",
          "ticks": 97536,
          "time": 95.25,
          "velocity": 0.3937007874015748
        },
        {
          "duration": 0.1875,
          "durationTicks": 192,
          "midi": 44,
          "name": "G#2",
          "ticks": 97536,
          "time": 95.25,
          "velocity": 0.3937007874015748
        },
        {
          "duration": 0.1875,
          "durationTicks": 192,
          "midi": 44,
          "name": "G#2",
          "ticks": 97536,
          "time": 95.25,
          "velocity": 0.3937007874015748
        },
        {
          "duration": 0.1875,
          "durationTicks": 192,
          "midi": 57,
          "name": "A3",
          "ticks": 97536,
          "time": 95.25,
          "velocity": 0.3937007874015748
        },
        {
          "duration": 0.1875,
          "durationTicks": 192,
          "midi": 36,
          "name": "C2",
          "ticks": 97536,
          "time": 95.25,
          "velocity": 0.3937007874015748
        },
        {
          "duration": 0.1875,
          "durationTicks": 192,
          "midi": 35,
          "name": "B1",
          "ticks": 97920,
          "time": 95.625,
          "velocity": 0.3937007874015748
        },
        {
          "duration": 0.1875,
          "durationTicks": 192,
          "midi": 44,
          "name": "G#2",
          "ticks": 97920,
          "time": 95.625,
          "velocity": 0.3937007874015748
        },
        {
          "duration": 0.1875,
          "durationTicks": 192,
          "midi": 57,
          "name": "A3",
          "ticks": 97920,
          "time": 95.625,
          "velocity": 0.3937007874015748
        },
        {
          "duration": 0.1875,
          "durationTicks": 192,
          "midi": 36,
          "name": "C2",
          "ticks": 97920,
          "time": 95.625,
          "velocity": 0.3937007874015748
        },
        {
          "duration": 0.09375,
          "durationTicks": 96,
          "midi": 40,
          "name": "E2",
          "ticks": 97920,
          "time": 95.625,
          "velocity": 0.3937007874015748
        },
        {
          "duration": 0.09375,
          "durationTicks": 96,
          "midi": 38,
          "name": "D2",
          "ticks": 97920,
          "time": 95.625,
          "velocity": 0.3937007874015748
        },
        {
          "duration": 0.1875,
          "durationTicks": 192,
          "midi": 44,
          "name": "G#2",
          "ticks": 97920,
          "time": 95.625,
          "velocity": 0.3937007874015748
        },
        {
          "duration": 0.1875,
          "durationTicks": 192,
          "midi": 36,
          "name": "C2",
          "ticks": 98304,
          "time": 96,
          "velocity": 0.3937007874015748
        },
        {
          "duration": 0.1875,
          "durationTicks": 192,
          "midi": 44,
          "name": "G#2",
          "ticks": 98304,
          "time": 96,
          "velocity": 0.3937007874015748
        },
        {
          "duration": 0.1875,
          "durationTicks": 192,
          "midi": 35,
          "name": "B1",
          "ticks": 98304,
          "time": 96,
          "velocity": 0.3937007874015748
        },
        {
          "duration": 0.1875,
          "durationTicks": 192,
          "midi": 44,
          "name": "G#2",
          "ticks": 98304,
          "time": 96,
          "velocity": 0.3937007874015748
        },
        {
          "duration": 0.1875,
          "durationTicks": 192,
          "midi": 57,
          "name": "A3",
          "ticks": 98304,
          "time": 96,
          "velocity": 0.3937007874015748
        },
        {
          "duration": 0.1875,
          "durationTicks": 192,
          "midi": 52,
          "name": "E3",
          "ticks": 98304,
          "time": 96,
          "velocity": 0.3937007874015748
        },
        {
          "duration": 0.1875,
          "durationTicks": 192,
          "midi": 44,
          "name": "G#2",
          "ticks": 98688,
          "time": 96.375,
          "velocity": 0.3937007874015748
        },
        {
          "duration": 0.1875,
          "durationTicks": 192,
          "midi": 44,
          "name": "G#2",
          "ticks": 98688,
          "time": 96.375,
          "velocity": 0.3937007874015748
        },
        {
          "duration": 0.09375,
          "durationTicks": 96,
          "midi": 38,
          "name": "D2",
          "ticks": 98688,
          "time": 96.375,
          "velocity": 0.3937007874015748
        },
        {
          "duration": 0.1875,
          "durationTicks": 192,
          "midi": 35,
          "name": "B1",
          "ticks": 98688,
          "time": 96.375,
          "velocity": 0.3937007874015748
        },
        {
          "duration": 0.1875,
          "durationTicks": 192,
          "midi": 57,
          "name": "A3",
          "ticks": 98688,
          "time": 96.375,
          "velocity": 0.3937007874015748
        },
        {
          "duration": 0.09375,
          "durationTicks": 96,
          "midi": 40,
          "name": "E2",
          "ticks": 98688,
          "time": 96.375,
          "velocity": 0.3937007874015748
        },
        {
          "duration": 0.1875,
          "durationTicks": 192,
          "midi": 36,
          "name": "C2",
          "ticks": 98688,
          "time": 96.375,
          "velocity": 0.3937007874015748
        },
        {
          "duration": 0.1875,
          "durationTicks": 192,
          "midi": 57,
          "name": "A3",
          "ticks": 99072,
          "time": 96.75,
          "velocity": 0.3937007874015748
        },
        {
          "duration": 0.1875,
          "durationTicks": 192,
          "midi": 35,
          "name": "B1",
          "ticks": 99072,
          "time": 96.75,
          "velocity": 0.3937007874015748
        },
        {
          "duration": 0.1875,
          "durationTicks": 192,
          "midi": 44,
          "name": "G#2",
          "ticks": 99072,
          "time": 96.75,
          "velocity": 0.3937007874015748
        },
        {
          "duration": 0.1875,
          "durationTicks": 192,
          "midi": 36,
          "name": "C2",
          "ticks": 99072,
          "time": 96.75,
          "velocity": 0.3937007874015748
        },
        {
          "duration": 0.1875,
          "durationTicks": 192,
          "midi": 44,
          "name": "G#2",
          "ticks": 99072,
          "time": 96.75,
          "velocity": 0.3937007874015748
        },
        {
          "duration": 0.1875,
          "durationTicks": 192,
          "midi": 44,
          "name": "G#2",
          "ticks": 99456,
          "time": 97.125,
          "velocity": 0.3937007874015748
        },
        {
          "duration": 0.1875,
          "durationTicks": 192,
          "midi": 35,
          "name": "B1",
          "ticks": 99456,
          "time": 97.125,
          "velocity": 0.3937007874015748
        },
        {
          "duration": 0.1875,
          "durationTicks": 192,
          "midi": 36,
          "name": "C2",
          "ticks": 99456,
          "time": 97.125,
          "velocity": 0.3937007874015748
        },
        {
          "duration": 0.1875,
          "durationTicks": 192,
          "midi": 44,
          "name": "G#2",
          "ticks": 99456,
          "time": 97.125,
          "velocity": 0.3937007874015748
        },
        {
          "duration": 0.09375,
          "durationTicks": 96,
          "midi": 38,
          "name": "D2",
          "ticks": 99456,
          "time": 97.125,
          "velocity": 0.3937007874015748
        },
        {
          "duration": 0.09375,
          "durationTicks": 96,
          "midi": 40,
          "name": "E2",
          "ticks": 99456,
          "time": 97.125,
          "velocity": 0.3937007874015748
        },
        {
          "duration": 0.1875,
          "durationTicks": 192,
          "midi": 57,
          "name": "A3",
          "ticks": 99456,
          "time": 97.125,
          "velocity": 0.3937007874015748
        },
        {
          "duration": 0.1875,
          "durationTicks": 192,
          "midi": 44,
          "name": "G#2",
          "ticks": 99840,
          "time": 97.5,
          "velocity": 0.3937007874015748
        },
        {
          "duration": 0.1875,
          "durationTicks": 192,
          "midi": 44,
          "name": "G#2",
          "ticks": 99840,
          "time": 97.5,
          "velocity": 0.3937007874015748
        },
        {
          "duration": 0.1875,
          "durationTicks": 192,
          "midi": 57,
          "name": "A3",
          "ticks": 99840,
          "time": 97.5,
          "velocity": 0.3937007874015748
        },
        {
          "duration": 0.1875,
          "durationTicks": 192,
          "midi": 35,
          "name": "B1",
          "ticks": 99840,
          "time": 97.5,
          "velocity": 0.3937007874015748
        },
        {
          "duration": 0.1875,
          "durationTicks": 192,
          "midi": 52,
          "name": "E3",
          "ticks": 99840,
          "time": 97.5,
          "velocity": 0.3937007874015748
        },
        {
          "duration": 0.1875,
          "durationTicks": 192,
          "midi": 36,
          "name": "C2",
          "ticks": 99840,
          "time": 97.5,
          "velocity": 0.3937007874015748
        },
        {
          "duration": 0.1875,
          "durationTicks": 192,
          "midi": 57,
          "name": "A3",
          "ticks": 100224,
          "time": 97.875,
          "velocity": 0.3937007874015748
        },
        {
          "duration": 0.09375,
          "durationTicks": 96,
          "midi": 38,
          "name": "D2",
          "ticks": 100224,
          "time": 97.875,
          "velocity": 0.3937007874015748
        },
        {
          "duration": 0.1875,
          "durationTicks": 192,
          "midi": 35,
          "name": "B1",
          "ticks": 100224,
          "time": 97.875,
          "velocity": 0.3937007874015748
        },
        {
          "duration": 0.1875,
          "durationTicks": 192,
          "midi": 44,
          "name": "G#2",
          "ticks": 100224,
          "time": 97.875,
          "velocity": 0.3937007874015748
        },
        {
          "duration": 0.09375,
          "durationTicks": 96,
          "midi": 40,
          "name": "E2",
          "ticks": 100224,
          "time": 97.875,
          "velocity": 0.3937007874015748
        },
        {
          "duration": 0.1875,
          "durationTicks": 192,
          "midi": 36,
          "name": "C2",
          "ticks": 100224,
          "time": 97.875,
          "velocity": 0.3937007874015748
        },
        {
          "duration": 0.1875,
          "durationTicks": 192,
          "midi": 44,
          "name": "G#2",
          "ticks": 100224,
          "time": 97.875,
          "velocity": 0.3937007874015748
        },
        {
          "duration": 0.1875,
          "durationTicks": 192,
          "midi": 44,
          "name": "G#2",
          "ticks": 100608,
          "time": 98.25,
          "velocity": 0.3937007874015748
        },
        {
          "duration": 0.1875,
          "durationTicks": 192,
          "midi": 35,
          "name": "B1",
          "ticks": 100608,
          "time": 98.25,
          "velocity": 0.3937007874015748
        },
        {
          "duration": 0.1875,
          "durationTicks": 192,
          "midi": 36,
          "name": "C2",
          "ticks": 100608,
          "time": 98.25,
          "velocity": 0.3937007874015748
        },
        {
          "duration": 0.1875,
          "durationTicks": 192,
          "midi": 57,
          "name": "A3",
          "ticks": 100608,
          "time": 98.25,
          "velocity": 0.3937007874015748
        },
        {
          "duration": 0.1875,
          "durationTicks": 192,
          "midi": 44,
          "name": "G#2",
          "ticks": 100608,
          "time": 98.25,
          "velocity": 0.3937007874015748
        },
        {
          "duration": 0.1875,
          "durationTicks": 192,
          "midi": 44,
          "name": "G#2",
          "ticks": 100992,
          "time": 98.625,
          "velocity": 0.3937007874015748
        },
        {
          "duration": 0.1875,
          "durationTicks": 192,
          "midi": 44,
          "name": "G#2",
          "ticks": 100992,
          "time": 98.625,
          "velocity": 0.3937007874015748
        },
        {
          "duration": 0.1875,
          "durationTicks": 192,
          "midi": 57,
          "name": "A3",
          "ticks": 100992,
          "time": 98.625,
          "velocity": 0.3937007874015748
        },
        {
          "duration": 0.09375,
          "durationTicks": 96,
          "midi": 38,
          "name": "D2",
          "ticks": 100992,
          "time": 98.625,
          "velocity": 0.3937007874015748
        },
        {
          "duration": 0.1875,
          "durationTicks": 192,
          "midi": 35,
          "name": "B1",
          "ticks": 100992,
          "time": 98.625,
          "velocity": 0.3937007874015748
        },
        {
          "duration": 0.1875,
          "durationTicks": 192,
          "midi": 36,
          "name": "C2",
          "ticks": 100992,
          "time": 98.625,
          "velocity": 0.3937007874015748
        },
        {
          "duration": 0.09375,
          "durationTicks": 96,
          "midi": 40,
          "name": "E2",
          "ticks": 100992,
          "time": 98.625,
          "velocity": 0.3937007874015748
        },
        {
          "duration": 0.1875,
          "durationTicks": 192,
          "midi": 52,
          "name": "E3",
          "ticks": 101376,
          "time": 99,
          "velocity": 0.3937007874015748
        },
        {
          "duration": 0.1875,
          "durationTicks": 192,
          "midi": 35,
          "name": "B1",
          "ticks": 101376,
          "time": 99,
          "velocity": 0.3937007874015748
        },
        {
          "duration": 0.1875,
          "durationTicks": 192,
          "midi": 44,
          "name": "G#2",
          "ticks": 101376,
          "time": 99,
          "velocity": 0.3937007874015748
        },
        {
          "duration": 0.1875,
          "durationTicks": 192,
          "midi": 44,
          "name": "G#2",
          "ticks": 101376,
          "time": 99,
          "velocity": 0.3937007874015748
        },
        {
          "duration": 0.1875,
          "durationTicks": 192,
          "midi": 57,
          "name": "A3",
          "ticks": 101376,
          "time": 99,
          "velocity": 0.3937007874015748
        },
        {
          "duration": 0.1875,
          "durationTicks": 192,
          "midi": 36,
          "name": "C2",
          "ticks": 101376,
          "time": 99,
          "velocity": 0.3937007874015748
        },
        {
          "duration": 0.09375,
          "durationTicks": 96,
          "midi": 38,
          "name": "D2",
          "ticks": 101760,
          "time": 99.375,
          "velocity": 0.3937007874015748
        },
        {
          "duration": 0.1875,
          "durationTicks": 192,
          "midi": 35,
          "name": "B1",
          "ticks": 101760,
          "time": 99.375,
          "velocity": 0.3937007874015748
        },
        {
          "duration": 0.1875,
          "durationTicks": 192,
          "midi": 57,
          "name": "A3",
          "ticks": 101760,
          "time": 99.375,
          "velocity": 0.3937007874015748
        },
        {
          "duration": 0.1875,
          "durationTicks": 192,
          "midi": 36,
          "name": "C2",
          "ticks": 101760,
          "time": 99.375,
          "velocity": 0.3937007874015748
        },
        {
          "duration": 0.1875,
          "durationTicks": 192,
          "midi": 44,
          "name": "G#2",
          "ticks": 101760,
          "time": 99.375,
          "velocity": 0.3937007874015748
        },
        {
          "duration": 0.1875,
          "durationTicks": 192,
          "midi": 44,
          "name": "G#2",
          "ticks": 101760,
          "time": 99.375,
          "velocity": 0.3937007874015748
        },
        {
          "duration": 0.09375,
          "durationTicks": 96,
          "midi": 40,
          "name": "E2",
          "ticks": 101760,
          "time": 99.375,
          "velocity": 0.3937007874015748
        },
        {
          "duration": 0.1875,
          "durationTicks": 192,
          "midi": 44,
          "name": "G#2",
          "ticks": 102144,
          "time": 99.75,
          "velocity": 0.3937007874015748
        },
        {
          "duration": 0.1875,
          "durationTicks": 192,
          "midi": 35,
          "name": "B1",
          "ticks": 102144,
          "time": 99.75,
          "velocity": 0.3937007874015748
        },
        {
          "duration": 0.1875,
          "durationTicks": 192,
          "midi": 36,
          "name": "C2",
          "ticks": 102144,
          "time": 99.75,
          "velocity": 0.3937007874015748
        },
        {
          "duration": 0.1875,
          "durationTicks": 192,
          "midi": 57,
          "name": "A3",
          "ticks": 102144,
          "time": 99.75,
          "velocity": 0.3937007874015748
        },
        {
          "duration": 0.1875,
          "durationTicks": 192,
          "midi": 44,
          "name": "G#2",
          "ticks": 102144,
          "time": 99.75,
          "velocity": 0.3937007874015748
        },
        {
          "duration": 0.1875,
          "durationTicks": 192,
          "midi": 36,
          "name": "C2",
          "ticks": 102336,
          "time": 99.9375,
          "velocity": 0.3937007874015748
        },
        {
          "duration": 0.1875,
          "durationTicks": 192,
          "midi": 35,
          "name": "B1",
          "ticks": 102336,
          "time": 99.9375,
          "velocity": 0.3937007874015748
        },
        {
          "duration": 0.09375,
          "durationTicks": 96,
          "midi": 38,
          "name": "D2",
          "ticks": 102432,
          "time": 100.03125,
          "velocity": 0.3937007874015748
        },
        {
          "duration": 0.09375,
          "durationTicks": 96,
          "midi": 40,
          "name": "E2",
          "ticks": 102432,
          "time": 100.03125,
          "velocity": 0.3937007874015748
        },
        {
          "duration": 0.09375,
          "durationTicks": 96,
          "midi": 40,
          "name": "E2",
          "ticks": 102528,
          "time": 100.125,
          "velocity": 0.3937007874015748
        },
        {
          "duration": 0.1875,
          "durationTicks": 192,
          "midi": 57,
          "name": "A3",
          "ticks": 102528,
          "time": 100.125,
          "velocity": 0.3937007874015748
        },
        {
          "duration": 0.1875,
          "durationTicks": 192,
          "midi": 44,
          "name": "G#2",
          "ticks": 102528,
          "time": 100.125,
          "velocity": 0.3937007874015748
        },
        {
          "duration": 0.1875,
          "durationTicks": 192,
          "midi": 44,
          "name": "G#2",
          "ticks": 102528,
          "time": 100.125,
          "velocity": 0.3937007874015748
        },
        {
          "duration": 0.09375,
          "durationTicks": 96,
          "midi": 38,
          "name": "D2",
          "ticks": 102528,
          "time": 100.125,
          "velocity": 0.3937007874015748
        },
        {
          "duration": 0.09375,
          "durationTicks": 96,
          "midi": 40,
          "name": "E2",
          "ticks": 102720,
          "time": 100.3125,
          "velocity": 0.3937007874015748
        },
        {
          "duration": 0.09375,
          "durationTicks": 96,
          "midi": 38,
          "name": "D2",
          "ticks": 102720,
          "time": 100.3125,
          "velocity": 0.3937007874015748
        },
        {
          "duration": 0.1875,
          "durationTicks": 192,
          "midi": 35,
          "name": "B1",
          "ticks": 102912,
          "time": 100.5,
          "velocity": 0.3937007874015748
        },
        {
          "duration": 0.1875,
          "durationTicks": 192,
          "midi": 44,
          "name": "G#2",
          "ticks": 102912,
          "time": 100.5,
          "velocity": 0.3937007874015748
        },
        {
          "duration": 0.1875,
          "durationTicks": 192,
          "midi": 44,
          "name": "G#2",
          "ticks": 102912,
          "time": 100.5,
          "velocity": 0.3937007874015748
        },
        {
          "duration": 0.1875,
          "durationTicks": 192,
          "midi": 57,
          "name": "A3",
          "ticks": 102912,
          "time": 100.5,
          "velocity": 0.3937007874015748
        },
        {
          "duration": 0.1875,
          "durationTicks": 192,
          "midi": 36,
          "name": "C2",
          "ticks": 102912,
          "time": 100.5,
          "velocity": 0.3937007874015748
        },
        {
          "duration": 0.1875,
          "durationTicks": 192,
          "midi": 52,
          "name": "E3",
          "ticks": 102912,
          "time": 100.5,
          "velocity": 0.3937007874015748
        },
        {
          "duration": 0.09375,
          "durationTicks": 96,
          "midi": 40,
          "name": "E2",
          "ticks": 103296,
          "time": 100.875,
          "velocity": 0.3937007874015748
        },
        {
          "duration": 0.1875,
          "durationTicks": 192,
          "midi": 44,
          "name": "G#2",
          "ticks": 103296,
          "time": 100.875,
          "velocity": 0.3937007874015748
        },
        {
          "duration": 0.09375,
          "durationTicks": 96,
          "midi": 38,
          "name": "D2",
          "ticks": 103296,
          "time": 100.875,
          "velocity": 0.3937007874015748
        },
        {
          "duration": 0.1875,
          "durationTicks": 192,
          "midi": 35,
          "name": "B1",
          "ticks": 103296,
          "time": 100.875,
          "velocity": 0.3937007874015748
        },
        {
          "duration": 0.1875,
          "durationTicks": 192,
          "midi": 57,
          "name": "A3",
          "ticks": 103296,
          "time": 100.875,
          "velocity": 0.3937007874015748
        },
        {
          "duration": 0.1875,
          "durationTicks": 192,
          "midi": 36,
          "name": "C2",
          "ticks": 103296,
          "time": 100.875,
          "velocity": 0.3937007874015748
        },
        {
          "duration": 0.1875,
          "durationTicks": 192,
          "midi": 44,
          "name": "G#2",
          "ticks": 103296,
          "time": 100.875,
          "velocity": 0.3937007874015748
        },
        {
          "duration": 0.1875,
          "durationTicks": 192,
          "midi": 57,
          "name": "A3",
          "ticks": 103680,
          "time": 101.25,
          "velocity": 0.3937007874015748
        },
        {
          "duration": 0.1875,
          "durationTicks": 192,
          "midi": 44,
          "name": "G#2",
          "ticks": 103680,
          "time": 101.25,
          "velocity": 0.3937007874015748
        },
        {
          "duration": 0.1875,
          "durationTicks": 192,
          "midi": 36,
          "name": "C2",
          "ticks": 103680,
          "time": 101.25,
          "velocity": 0.3937007874015748
        },
        {
          "duration": 0.1875,
          "durationTicks": 192,
          "midi": 35,
          "name": "B1",
          "ticks": 103680,
          "time": 101.25,
          "velocity": 0.3937007874015748
        },
        {
          "duration": 0.1875,
          "durationTicks": 192,
          "midi": 44,
          "name": "G#2",
          "ticks": 103680,
          "time": 101.25,
          "velocity": 0.3937007874015748
        },
        {
          "duration": 0.09375,
          "durationTicks": 96,
          "midi": 40,
          "name": "E2",
          "ticks": 104064,
          "time": 101.625,
          "velocity": 0.3937007874015748
        },
        {
          "duration": 0.1875,
          "durationTicks": 192,
          "midi": 35,
          "name": "B1",
          "ticks": 104064,
          "time": 101.625,
          "velocity": 0.3937007874015748
        },
        {
          "duration": 0.1875,
          "durationTicks": 192,
          "midi": 44,
          "name": "G#2",
          "ticks": 104064,
          "time": 101.625,
          "velocity": 0.3937007874015748
        },
        {
          "duration": 0.09375,
          "durationTicks": 96,
          "midi": 38,
          "name": "D2",
          "ticks": 104064,
          "time": 101.625,
          "velocity": 0.3937007874015748
        },
        {
          "duration": 0.1875,
          "durationTicks": 192,
          "midi": 57,
          "name": "A3",
          "ticks": 104064,
          "time": 101.625,
          "velocity": 0.3937007874015748
        },
        {
          "duration": 0.1875,
          "durationTicks": 192,
          "midi": 44,
          "name": "G#2",
          "ticks": 104064,
          "time": 101.625,
          "velocity": 0.3937007874015748
        },
        {
          "duration": 0.1875,
          "durationTicks": 192,
          "midi": 36,
          "name": "C2",
          "ticks": 104064,
          "time": 101.625,
          "velocity": 0.3937007874015748
        },
        {
          "duration": 0.1875,
          "durationTicks": 192,
          "midi": 57,
          "name": "A3",
          "ticks": 104448,
          "time": 102,
          "velocity": 0.3937007874015748
        },
        {
          "duration": 0.1875,
          "durationTicks": 192,
          "midi": 44,
          "name": "G#2",
          "ticks": 104448,
          "time": 102,
          "velocity": 0.3937007874015748
        },
        {
          "duration": 0.1875,
          "durationTicks": 192,
          "midi": 35,
          "name": "B1",
          "ticks": 104448,
          "time": 102,
          "velocity": 0.3937007874015748
        },
        {
          "duration": 0.1875,
          "durationTicks": 192,
          "midi": 36,
          "name": "C2",
          "ticks": 104448,
          "time": 102,
          "velocity": 0.3937007874015748
        },
        {
          "duration": 0.1875,
          "durationTicks": 192,
          "midi": 52,
          "name": "E3",
          "ticks": 104448,
          "time": 102,
          "velocity": 0.3937007874015748
        },
        {
          "duration": 0.1875,
          "durationTicks": 192,
          "midi": 44,
          "name": "G#2",
          "ticks": 104448,
          "time": 102,
          "velocity": 0.3937007874015748
        },
        {
          "duration": 0.1875,
          "durationTicks": 192,
          "midi": 44,
          "name": "G#2",
          "ticks": 104832,
          "time": 102.375,
          "velocity": 0.3937007874015748
        },
        {
          "duration": 0.1875,
          "durationTicks": 192,
          "midi": 44,
          "name": "G#2",
          "ticks": 104832,
          "time": 102.375,
          "velocity": 0.3937007874015748
        },
        {
          "duration": 0.1875,
          "durationTicks": 192,
          "midi": 35,
          "name": "B1",
          "ticks": 104832,
          "time": 102.375,
          "velocity": 0.3937007874015748
        },
        {
          "duration": 0.09375,
          "durationTicks": 96,
          "midi": 40,
          "name": "E2",
          "ticks": 104832,
          "time": 102.375,
          "velocity": 0.3937007874015748
        },
        {
          "duration": 0.1875,
          "durationTicks": 192,
          "midi": 36,
          "name": "C2",
          "ticks": 104832,
          "time": 102.375,
          "velocity": 0.3937007874015748
        },
        {
          "duration": 0.1875,
          "durationTicks": 192,
          "midi": 57,
          "name": "A3",
          "ticks": 104832,
          "time": 102.375,
          "velocity": 0.3937007874015748
        },
        {
          "duration": 0.09375,
          "durationTicks": 96,
          "midi": 38,
          "name": "D2",
          "ticks": 104832,
          "time": 102.375,
          "velocity": 0.3937007874015748
        },
        {
          "duration": 0.1875,
          "durationTicks": 192,
          "midi": 57,
          "name": "A3",
          "ticks": 105216,
          "time": 102.75,
          "velocity": 0.3937007874015748
        },
        {
          "duration": 0.1875,
          "durationTicks": 192,
          "midi": 35,
          "name": "B1",
          "ticks": 105216,
          "time": 102.75,
          "velocity": 0.3937007874015748
        },
        {
          "duration": 0.1875,
          "durationTicks": 192,
          "midi": 44,
          "name": "G#2",
          "ticks": 105216,
          "time": 102.75,
          "velocity": 0.3937007874015748
        },
        {
          "duration": 0.1875,
          "durationTicks": 192,
          "midi": 36,
          "name": "C2",
          "ticks": 105216,
          "time": 102.75,
          "velocity": 0.3937007874015748
        },
        {
          "duration": 0.1875,
          "durationTicks": 192,
          "midi": 44,
          "name": "G#2",
          "ticks": 105216,
          "time": 102.75,
          "velocity": 0.3937007874015748
        },
        {
          "duration": 0.1875,
          "durationTicks": 192,
          "midi": 44,
          "name": "G#2",
          "ticks": 105600,
          "time": 103.125,
          "velocity": 0.3937007874015748
        },
        {
          "duration": 0.09375,
          "durationTicks": 96,
          "midi": 40,
          "name": "E2",
          "ticks": 105600,
          "time": 103.125,
          "velocity": 0.3937007874015748
        },
        {
          "duration": 0.1875,
          "durationTicks": 192,
          "midi": 57,
          "name": "A3",
          "ticks": 105600,
          "time": 103.125,
          "velocity": 0.3937007874015748
        },
        {
          "duration": 0.09375,
          "durationTicks": 96,
          "midi": 38,
          "name": "D2",
          "ticks": 105600,
          "time": 103.125,
          "velocity": 0.3937007874015748
        },
        {
          "duration": 0.1875,
          "durationTicks": 192,
          "midi": 36,
          "name": "C2",
          "ticks": 105600,
          "time": 103.125,
          "velocity": 0.3937007874015748
        },
        {
          "duration": 0.1875,
          "durationTicks": 192,
          "midi": 35,
          "name": "B1",
          "ticks": 105600,
          "time": 103.125,
          "velocity": 0.3937007874015748
        },
        {
          "duration": 0.1875,
          "durationTicks": 192,
          "midi": 44,
          "name": "G#2",
          "ticks": 105600,
          "time": 103.125,
          "velocity": 0.3937007874015748
        },
        {
          "duration": 0.1875,
          "durationTicks": 192,
          "midi": 57,
          "name": "A3",
          "ticks": 105984,
          "time": 103.5,
          "velocity": 0.3937007874015748
        },
        {
          "duration": 0.1875,
          "durationTicks": 192,
          "midi": 52,
          "name": "E3",
          "ticks": 105984,
          "time": 103.5,
          "velocity": 0.3937007874015748
        },
        {
          "duration": 0.1875,
          "durationTicks": 192,
          "midi": 44,
          "name": "G#2",
          "ticks": 105984,
          "time": 103.5,
          "velocity": 0.3937007874015748
        },
        {
          "duration": 0.1875,
          "durationTicks": 192,
          "midi": 36,
          "name": "C2",
          "ticks": 105984,
          "time": 103.5,
          "velocity": 0.3937007874015748
        },
        {
          "duration": 0.1875,
          "durationTicks": 192,
          "midi": 35,
          "name": "B1",
          "ticks": 105984,
          "time": 103.5,
          "velocity": 0.3937007874015748
        },
        {
          "duration": 0.1875,
          "durationTicks": 192,
          "midi": 44,
          "name": "G#2",
          "ticks": 105984,
          "time": 103.5,
          "velocity": 0.3937007874015748
        },
        {
          "duration": 0.1875,
          "durationTicks": 192,
          "midi": 57,
          "name": "A3",
          "ticks": 106368,
          "time": 103.875,
          "velocity": 0.3937007874015748
        },
        {
          "duration": 0.1875,
          "durationTicks": 192,
          "midi": 35,
          "name": "B1",
          "ticks": 106368,
          "time": 103.875,
          "velocity": 0.3937007874015748
        },
        {
          "duration": 0.1875,
          "durationTicks": 192,
          "midi": 44,
          "name": "G#2",
          "ticks": 106368,
          "time": 103.875,
          "velocity": 0.3937007874015748
        },
        {
          "duration": 0.1875,
          "durationTicks": 192,
          "midi": 36,
          "name": "C2",
          "ticks": 106368,
          "time": 103.875,
          "velocity": 0.3937007874015748
        },
        {
          "duration": 0.09375,
          "durationTicks": 96,
          "midi": 38,
          "name": "D2",
          "ticks": 106368,
          "time": 103.875,
          "velocity": 0.3937007874015748
        },
        {
          "duration": 0.09375,
          "durationTicks": 96,
          "midi": 40,
          "name": "E2",
          "ticks": 106368,
          "time": 103.875,
          "velocity": 0.3937007874015748
        },
        {
          "duration": 0.1875,
          "durationTicks": 192,
          "midi": 44,
          "name": "G#2",
          "ticks": 106368,
          "time": 103.875,
          "velocity": 0.3937007874015748
        },
        {
          "duration": 0.1875,
          "durationTicks": 192,
          "midi": 57,
          "name": "A3",
          "ticks": 106752,
          "time": 104.25,
          "velocity": 0.3937007874015748
        },
        {
          "duration": 0.1875,
          "durationTicks": 192,
          "midi": 44,
          "name": "G#2",
          "ticks": 106752,
          "time": 104.25,
          "velocity": 0.3937007874015748
        },
        {
          "duration": 0.1875,
          "durationTicks": 192,
          "midi": 35,
          "name": "B1",
          "ticks": 106752,
          "time": 104.25,
          "velocity": 0.3937007874015748
        },
        {
          "duration": 0.1875,
          "durationTicks": 192,
          "midi": 36,
          "name": "C2",
          "ticks": 106752,
          "time": 104.25,
          "velocity": 0.3937007874015748
        },
        {
          "duration": 0.1875,
          "durationTicks": 192,
          "midi": 44,
          "name": "G#2",
          "ticks": 106752,
          "time": 104.25,
          "velocity": 0.3937007874015748
        },
        {
          "duration": 0.1875,
          "durationTicks": 192,
          "midi": 44,
          "name": "G#2",
          "ticks": 107136,
          "time": 104.625,
          "velocity": 0.3937007874015748
        },
        {
          "duration": 0.09375,
          "durationTicks": 96,
          "midi": 40,
          "name": "E2",
          "ticks": 107136,
          "time": 104.625,
          "velocity": 0.3937007874015748
        },
        {
          "duration": 0.1875,
          "durationTicks": 192,
          "midi": 35,
          "name": "B1",
          "ticks": 107136,
          "time": 104.625,
          "velocity": 0.3937007874015748
        },
        {
          "duration": 0.09375,
          "durationTicks": 96,
          "midi": 38,
          "name": "D2",
          "ticks": 107136,
          "time": 104.625,
          "velocity": 0.3937007874015748
        },
        {
          "duration": 0.1875,
          "durationTicks": 192,
          "midi": 44,
          "name": "G#2",
          "ticks": 107136,
          "time": 104.625,
          "velocity": 0.3937007874015748
        },
        {
          "duration": 0.1875,
          "durationTicks": 192,
          "midi": 36,
          "name": "C2",
          "ticks": 107136,
          "time": 104.625,
          "velocity": 0.3937007874015748
        },
        {
          "duration": 0.1875,
          "durationTicks": 192,
          "midi": 57,
          "name": "A3",
          "ticks": 107136,
          "time": 104.625,
          "velocity": 0.3937007874015748
        },
        {
          "duration": 0.1875,
          "durationTicks": 192,
          "midi": 57,
          "name": "A3",
          "ticks": 107520,
          "time": 105,
          "velocity": 0.3937007874015748
        },
        {
          "duration": 0.1875,
          "durationTicks": 192,
          "midi": 52,
          "name": "E3",
          "ticks": 107520,
          "time": 105,
          "velocity": 0.3937007874015748
        },
        {
          "duration": 0.1875,
          "durationTicks": 192,
          "midi": 44,
          "name": "G#2",
          "ticks": 107520,
          "time": 105,
          "velocity": 0.3937007874015748
        },
        {
          "duration": 0.1875,
          "durationTicks": 192,
          "midi": 36,
          "name": "C2",
          "ticks": 107520,
          "time": 105,
          "velocity": 0.3937007874015748
        },
        {
          "duration": 0.1875,
          "durationTicks": 192,
          "midi": 35,
          "name": "B1",
          "ticks": 107520,
          "time": 105,
          "velocity": 0.3937007874015748
        },
        {
          "duration": 0.1875,
          "durationTicks": 192,
          "midi": 44,
          "name": "G#2",
          "ticks": 107520,
          "time": 105,
          "velocity": 0.3937007874015748
        },
        {
          "duration": 0.09375,
          "durationTicks": 96,
          "midi": 53,
          "name": "F3",
          "ticks": 109056,
          "time": 106.5,
          "velocity": 0.3937007874015748
        },
        {
          "duration": 0.09375,
          "durationTicks": 96,
          "midi": 49,
          "name": "C#3",
          "ticks": 109056,
          "time": 106.5,
          "velocity": 0.3937007874015748
        },
        {
          "duration": 0.09375,
          "durationTicks": 96,
          "midi": 49,
          "name": "C#3",
          "ticks": 109056,
          "time": 106.5,
          "velocity": 0.3937007874015748
        },
        {
          "duration": 0.09375,
          "durationTicks": 96,
          "midi": 49,
          "name": "C#3",
          "ticks": 109056,
          "time": 106.5,
          "velocity": 0.3937007874015748
        },
        {
          "duration": 0.09375,
          "durationTicks": 96,
          "midi": 53,
          "name": "F3",
          "ticks": 109056,
          "time": 106.5,
          "velocity": 0.3937007874015748
        },
        {
          "duration": 0.09375,
          "durationTicks": 96,
          "midi": 44,
          "name": "G#2",
          "ticks": 109440,
          "time": 106.875,
          "velocity": 0.3937007874015748
        },
        {
          "duration": 0.09375,
          "durationTicks": 96,
          "midi": 51,
          "name": "D#3",
          "ticks": 109440,
          "time": 106.875,
          "velocity": 0.3937007874015748
        },
        {
          "duration": 0.09375,
          "durationTicks": 96,
          "midi": 51,
          "name": "D#3",
          "ticks": 109824,
          "time": 107.25,
          "velocity": 0.3937007874015748
        },
        {
          "duration": 0.09375,
          "durationTicks": 96,
          "midi": 44,
          "name": "G#2",
          "ticks": 109824,
          "time": 107.25,
          "velocity": 0.3937007874015748
        },
        {
          "duration": 0.09375,
          "durationTicks": 96,
          "midi": 44,
          "name": "G#2",
          "ticks": 110208,
          "time": 107.625,
          "velocity": 0.3937007874015748
        },
        {
          "duration": 0.09375,
          "durationTicks": 96,
          "midi": 51,
          "name": "D#3",
          "ticks": 110208,
          "time": 107.625,
          "velocity": 0.3937007874015748
        },
        {
          "duration": 0.09375,
          "durationTicks": 96,
          "midi": 44,
          "name": "G#2",
          "ticks": 110592,
          "time": 108,
          "velocity": 0.3937007874015748
        },
        {
          "duration": 0.09375,
          "durationTicks": 96,
          "midi": 51,
          "name": "D#3",
          "ticks": 110592,
          "time": 108,
          "velocity": 0.3937007874015748
        },
        {
          "duration": 0.09375,
          "durationTicks": 96,
          "midi": 51,
          "name": "D#3",
          "ticks": 110976,
          "time": 108.375,
          "velocity": 0.3937007874015748
        },
        {
          "duration": 0.09375,
          "durationTicks": 96,
          "midi": 44,
          "name": "G#2",
          "ticks": 110976,
          "time": 108.375,
          "velocity": 0.3937007874015748
        },
        {
          "duration": 0.09375,
          "durationTicks": 96,
          "midi": 44,
          "name": "G#2",
          "ticks": 111360,
          "time": 108.75,
          "velocity": 0.3937007874015748
        },
        {
          "duration": 0.09375,
          "durationTicks": 96,
          "midi": 51,
          "name": "D#3",
          "ticks": 111360,
          "time": 108.75,
          "velocity": 0.3937007874015748
        },
        {
          "duration": 0.09375,
          "durationTicks": 96,
          "midi": 51,
          "name": "D#3",
          "ticks": 111744,
          "time": 109.125,
          "velocity": 0.3937007874015748
        },
        {
          "duration": 0.09375,
          "durationTicks": 96,
          "midi": 44,
          "name": "G#2",
          "ticks": 111744,
          "time": 109.125,
          "velocity": 0.3937007874015748
        },
        {
          "duration": 0.09375,
          "durationTicks": 96,
          "midi": 51,
          "name": "D#3",
          "ticks": 112128,
          "time": 109.5,
          "velocity": 0.3937007874015748
        },
        {
          "duration": 0.09375,
          "durationTicks": 96,
          "midi": 44,
          "name": "G#2",
          "ticks": 112128,
          "time": 109.5,
          "velocity": 0.3937007874015748
        },
        {
          "duration": 0.09375,
          "durationTicks": 96,
          "midi": 44,
          "name": "G#2",
          "ticks": 112512,
          "time": 109.875,
          "velocity": 0.3937007874015748
        },
        {
          "duration": 0.09375,
          "durationTicks": 96,
          "midi": 51,
          "name": "D#3",
          "ticks": 112512,
          "time": 109.875,
          "velocity": 0.3937007874015748
        },
        {
          "duration": 0.09375,
          "durationTicks": 96,
          "midi": 51,
          "name": "D#3",
          "ticks": 112896,
          "time": 110.25,
          "velocity": 0.3937007874015748
        },
        {
          "duration": 0.09375,
          "durationTicks": 96,
          "midi": 44,
          "name": "G#2",
          "ticks": 112896,
          "time": 110.25,
          "velocity": 0.3937007874015748
        },
        {
          "duration": 0.09375,
          "durationTicks": 96,
          "midi": 51,
          "name": "D#3",
          "ticks": 113280,
          "time": 110.625,
          "velocity": 0.3937007874015748
        },
        {
          "duration": 0.09375,
          "durationTicks": 96,
          "midi": 44,
          "name": "G#2",
          "ticks": 113280,
          "time": 110.625,
          "velocity": 0.3937007874015748
        },
        {
          "duration": 0.09375,
          "durationTicks": 96,
          "midi": 51,
          "name": "D#3",
          "ticks": 113664,
          "time": 111,
          "velocity": 0.3937007874015748
        },
        {
          "duration": 0.09375,
          "durationTicks": 96,
          "midi": 44,
          "name": "G#2",
          "ticks": 113664,
          "time": 111,
          "velocity": 0.3937007874015748
        },
        {
          "duration": 0.1875,
          "durationTicks": 192,
          "midi": 38,
          "name": "D2",
          "ticks": 113856,
          "time": 111.1875,
          "velocity": 0.3937007874015748
        },
        {
          "duration": 0.1875,
          "durationTicks": 192,
          "midi": 35,
          "name": "B1",
          "ticks": 113856,
          "time": 111.1875,
          "velocity": 0.3937007874015748
        },
        {
          "duration": 0.09375,
          "durationTicks": 96,
          "midi": 44,
          "name": "G#2",
          "ticks": 114048,
          "time": 111.375,
          "velocity": 0.3937007874015748
        },
        {
          "duration": 0.09375,
          "durationTicks": 96,
          "midi": 51,
          "name": "D#3",
          "ticks": 114048,
          "time": 111.375,
          "velocity": 0.3937007874015748
        },
        {
          "duration": 0.1875,
          "durationTicks": 192,
          "midi": 38,
          "name": "D2",
          "ticks": 114144,
          "time": 111.46875,
          "velocity": 0.3937007874015748
        },
        {
          "duration": 0.1875,
          "durationTicks": 192,
          "midi": 35,
          "name": "B1",
          "ticks": 114144,
          "time": 111.46875,
          "velocity": 0.3937007874015748
        },
        {
          "duration": 0.09375,
          "durationTicks": 96,
          "midi": 44,
          "name": "G#2",
          "ticks": 114432,
          "time": 111.75,
          "velocity": 0.3937007874015748
        },
        {
          "duration": 0.09375,
          "durationTicks": 96,
          "midi": 51,
          "name": "D#3",
          "ticks": 114432,
          "time": 111.75,
          "velocity": 0.3937007874015748
        },
        {
          "duration": 0.1875,
          "durationTicks": 192,
          "midi": 38,
          "name": "D2",
          "ticks": 114432,
          "time": 111.75,
          "velocity": 0.3937007874015748
        },
        {
          "duration": 0.1875,
          "durationTicks": 192,
          "midi": 35,
          "name": "B1",
          "ticks": 114432,
          "time": 111.75,
          "velocity": 0.3937007874015748
        },
        {
          "duration": 0.09375,
          "durationTicks": 96,
          "midi": 44,
          "name": "G#2",
          "ticks": 114816,
          "time": 112.125,
          "velocity": 0.3937007874015748
        },
        {
          "duration": 0.09375,
          "durationTicks": 96,
          "midi": 51,
          "name": "D#3",
          "ticks": 114816,
          "time": 112.125,
          "velocity": 0.3937007874015748
        },
        {
          "duration": 0.09375,
          "durationTicks": 96,
          "midi": 38,
          "name": "D2",
          "ticks": 115200,
          "time": 112.5,
          "velocity": 0.3937007874015748
        },
        {
          "duration": 0.09375,
          "durationTicks": 96,
          "midi": 44,
          "name": "G#2",
          "ticks": 115200,
          "time": 112.5,
          "velocity": 0.3937007874015748
        },
        {
          "duration": 0.09375,
          "durationTicks": 96,
          "midi": 51,
          "name": "D#3",
          "ticks": 115200,
          "time": 112.5,
          "velocity": 0.3937007874015748
        },
        {
          "duration": 0.09375,
          "durationTicks": 96,
          "midi": 38,
          "name": "D2",
          "ticks": 115200,
          "time": 112.5,
          "velocity": 0.3937007874015748
        },
        {
          "duration": 0.09375,
          "durationTicks": 96,
          "midi": 38,
          "name": "D2",
          "ticks": 115200,
          "time": 112.5,
          "velocity": 0.3937007874015748
        },
        {
          "duration": 0.09375,
          "durationTicks": 96,
          "midi": 44,
          "name": "G#2",
          "ticks": 115200,
          "time": 112.5,
          "velocity": 0.3937007874015748
        },
        {
          "duration": 0.09375,
          "durationTicks": 96,
          "midi": 44,
          "name": "G#2",
          "ticks": 115200,
          "time": 112.5,
          "velocity": 0.3937007874015748
        },
        {
          "duration": 0.09375,
          "durationTicks": 96,
          "midi": 51,
          "name": "D#3",
          "ticks": 115584,
          "time": 112.875,
          "velocity": 0.3937007874015748
        },
        {
          "duration": 0.09375,
          "durationTicks": 96,
          "midi": 44,
          "name": "G#2",
          "ticks": 115584,
          "time": 112.875,
          "velocity": 0.3937007874015748
        },
        {
          "duration": 0.09375,
          "durationTicks": 96,
          "midi": 44,
          "name": "G#2",
          "ticks": 115968,
          "time": 113.25,
          "velocity": 0.3937007874015748
        },
        {
          "duration": 0.09375,
          "durationTicks": 96,
          "midi": 51,
          "name": "D#3",
          "ticks": 115968,
          "time": 113.25,
          "velocity": 0.3937007874015748
        },
        {
          "duration": 0.09375,
          "durationTicks": 96,
          "midi": 44,
          "name": "G#2",
          "ticks": 116352,
          "time": 113.625,
          "velocity": 0.3937007874015748
        },
        {
          "duration": 0.09375,
          "durationTicks": 96,
          "midi": 51,
          "name": "D#3",
          "ticks": 116352,
          "time": 113.625,
          "velocity": 0.3937007874015748
        },
        {
          "duration": 0.09375,
          "durationTicks": 96,
          "midi": 44,
          "name": "G#2",
          "ticks": 116736,
          "time": 114,
          "velocity": 0.3937007874015748
        },
        {
          "duration": 0.09375,
          "durationTicks": 96,
          "midi": 51,
          "name": "D#3",
          "ticks": 116736,
          "time": 114,
          "velocity": 0.3937007874015748
        },
        {
          "duration": 0.09375,
          "durationTicks": 96,
          "midi": 44,
          "name": "G#2",
          "ticks": 117120,
          "time": 114.375,
          "velocity": 0.3937007874015748
        },
        {
          "duration": 0.09375,
          "durationTicks": 96,
          "midi": 51,
          "name": "D#3",
          "ticks": 117120,
          "time": 114.375,
          "velocity": 0.3937007874015748
        },
        {
          "duration": 0.09375,
          "durationTicks": 96,
          "midi": 44,
          "name": "G#2",
          "ticks": 117504,
          "time": 114.75,
          "velocity": 0.3937007874015748
        },
        {
          "duration": 0.09375,
          "durationTicks": 96,
          "midi": 51,
          "name": "D#3",
          "ticks": 117504,
          "time": 114.75,
          "velocity": 0.3937007874015748
        },
        {
          "duration": 0.09375,
          "durationTicks": 96,
          "midi": 44,
          "name": "G#2",
          "ticks": 117888,
          "time": 115.125,
          "velocity": 0.3937007874015748
        },
        {
          "duration": 0.09375,
          "durationTicks": 96,
          "midi": 51,
          "name": "D#3",
          "ticks": 117888,
          "time": 115.125,
          "velocity": 0.3937007874015748
        },
        {
          "duration": 0.09375,
          "durationTicks": 96,
          "midi": 44,
          "name": "G#2",
          "ticks": 118272,
          "time": 115.5,
          "velocity": 0.3937007874015748
        },
        {
          "duration": 0.09375,
          "durationTicks": 96,
          "midi": 51,
          "name": "D#3",
          "ticks": 118272,
          "time": 115.5,
          "velocity": 0.3937007874015748
        },
        {
          "duration": 0.09375,
          "durationTicks": 96,
          "midi": 51,
          "name": "D#3",
          "ticks": 118656,
          "time": 115.875,
          "velocity": 0.3937007874015748
        },
        {
          "duration": 0.09375,
          "durationTicks": 96,
          "midi": 44,
          "name": "G#2",
          "ticks": 118656,
          "time": 115.875,
          "velocity": 0.3937007874015748
        },
        {
          "duration": 0.09375,
          "durationTicks": 96,
          "midi": 51,
          "name": "D#3",
          "ticks": 119040,
          "time": 116.25,
          "velocity": 0.3937007874015748
        },
        {
          "duration": 0.09375,
          "durationTicks": 96,
          "midi": 44,
          "name": "G#2",
          "ticks": 119040,
          "time": 116.25,
          "velocity": 0.3937007874015748
        },
        {
          "duration": 0.09375,
          "durationTicks": 96,
          "midi": 44,
          "name": "G#2",
          "ticks": 119424,
          "time": 116.625,
          "velocity": 0.3937007874015748
        },
        {
          "duration": 0.09375,
          "durationTicks": 96,
          "midi": 51,
          "name": "D#3",
          "ticks": 119424,
          "time": 116.625,
          "velocity": 0.3937007874015748
        },
        {
          "duration": 0.09375,
          "durationTicks": 96,
          "midi": 51,
          "name": "D#3",
          "ticks": 119808,
          "time": 117,
          "velocity": 0.3937007874015748
        },
        {
          "duration": 0.09375,
          "durationTicks": 96,
          "midi": 44,
          "name": "G#2",
          "ticks": 119808,
          "time": 117,
          "velocity": 0.3937007874015748
        },
        {
          "duration": 0.09375,
          "durationTicks": 96,
          "midi": 44,
          "name": "G#2",
          "ticks": 120192,
          "time": 117.375,
          "velocity": 0.3937007874015748
        },
        {
          "duration": 0.09375,
          "durationTicks": 96,
          "midi": 51,
          "name": "D#3",
          "ticks": 120192,
          "time": 117.375,
          "velocity": 0.3937007874015748
        },
        {
          "duration": 0.09375,
          "durationTicks": 96,
          "midi": 44,
          "name": "G#2",
          "ticks": 120576,
          "time": 117.75,
          "velocity": 0.3937007874015748
        },
        {
          "duration": 0.09375,
          "durationTicks": 96,
          "midi": 51,
          "name": "D#3",
          "ticks": 120576,
          "time": 117.75,
          "velocity": 0.3937007874015748
        },
        {
          "duration": 0.09375,
          "durationTicks": 96,
          "midi": 51,
          "name": "D#3",
          "ticks": 120960,
          "time": 118.125,
          "velocity": 0.3937007874015748
        },
        {
          "duration": 0.09375,
          "durationTicks": 96,
          "midi": 44,
          "name": "G#2",
          "ticks": 120960,
          "time": 118.125,
          "velocity": 0.3937007874015748
        },
        {
          "duration": 0.09375,
          "durationTicks": 96,
          "midi": 43,
          "name": "G2",
          "ticks": 121344,
          "time": 118.5,
          "velocity": 0.3937007874015748
        },
        {
          "duration": 0.09375,
          "durationTicks": 96,
          "midi": 38,
          "name": "D2",
          "ticks": 121344,
          "time": 118.5,
          "velocity": 0.3937007874015748
        },
        {
          "duration": 0.09375,
          "durationTicks": 96,
          "midi": 43,
          "name": "G2",
          "ticks": 121344,
          "time": 118.5,
          "velocity": 0.3937007874015748
        },
        {
          "duration": 0.09375,
          "durationTicks": 96,
          "midi": 51,
          "name": "D#3",
          "ticks": 121344,
          "time": 118.5,
          "velocity": 0.3937007874015748
        },
        {
          "duration": 0.09375,
          "durationTicks": 96,
          "midi": 43,
          "name": "G2",
          "ticks": 121344,
          "time": 118.5,
          "velocity": 0.3937007874015748
        },
        {
          "duration": 0.09375,
          "durationTicks": 96,
          "midi": 38,
          "name": "D2",
          "ticks": 121344,
          "time": 118.5,
          "velocity": 0.3937007874015748
        },
        {
          "duration": 0.09375,
          "durationTicks": 96,
          "midi": 38,
          "name": "D2",
          "ticks": 121344,
          "time": 118.5,
          "velocity": 0.3937007874015748
        },
        {
          "duration": 0.09375,
          "durationTicks": 96,
          "midi": 44,
          "name": "G#2",
          "ticks": 121728,
          "time": 118.875,
          "velocity": 0.3937007874015748
        },
        {
          "duration": 0.09375,
          "durationTicks": 96,
          "midi": 51,
          "name": "D#3",
          "ticks": 121728,
          "time": 118.875,
          "velocity": 0.3937007874015748
        },
        {
          "duration": 0.09375,
          "durationTicks": 96,
          "midi": 51,
          "name": "D#3",
          "ticks": 122112,
          "time": 119.25,
          "velocity": 0.3937007874015748
        },
        {
          "duration": 0.09375,
          "durationTicks": 96,
          "midi": 44,
          "name": "G#2",
          "ticks": 122112,
          "time": 119.25,
          "velocity": 0.3937007874015748
        },
        {
          "duration": 0.09375,
          "durationTicks": 96,
          "midi": 51,
          "name": "D#3",
          "ticks": 122496,
          "time": 119.625,
          "velocity": 0.3937007874015748
        },
        {
          "duration": 0.09375,
          "durationTicks": 96,
          "midi": 44,
          "name": "G#2",
          "ticks": 122496,
          "time": 119.625,
          "velocity": 0.3937007874015748
        },
        {
          "duration": 0.09375,
          "durationTicks": 96,
          "midi": 44,
          "name": "G#2",
          "ticks": 122880,
          "time": 120,
          "velocity": 0.3937007874015748
        },
        {
          "duration": 0.09375,
          "durationTicks": 96,
          "midi": 51,
          "name": "D#3",
          "ticks": 122880,
          "time": 120,
          "velocity": 0.3937007874015748
        },
        {
          "duration": 0.09375,
          "durationTicks": 96,
          "midi": 51,
          "name": "D#3",
          "ticks": 123264,
          "time": 120.375,
          "velocity": 0.3937007874015748
        },
        {
          "duration": 0.09375,
          "durationTicks": 96,
          "midi": 44,
          "name": "G#2",
          "ticks": 123264,
          "time": 120.375,
          "velocity": 0.3937007874015748
        },
        {
          "duration": 0.09375,
          "durationTicks": 96,
          "midi": 51,
          "name": "D#3",
          "ticks": 123648,
          "time": 120.75,
          "velocity": 0.3937007874015748
        },
        {
          "duration": 0.09375,
          "durationTicks": 96,
          "midi": 44,
          "name": "G#2",
          "ticks": 123648,
          "time": 120.75,
          "velocity": 0.3937007874015748
        },
        {
          "duration": 0.09375,
          "durationTicks": 96,
          "midi": 44,
          "name": "G#2",
          "ticks": 124032,
          "time": 121.125,
          "velocity": 0.3937007874015748
        },
        {
          "duration": 0.09375,
          "durationTicks": 96,
          "midi": 51,
          "name": "D#3",
          "ticks": 124032,
          "time": 121.125,
          "velocity": 0.3937007874015748
        },
        {
          "duration": 0.09375,
          "durationTicks": 96,
          "midi": 51,
          "name": "D#3",
          "ticks": 124416,
          "time": 121.5,
          "velocity": 0.3937007874015748
        },
        {
          "duration": 0.09375,
          "durationTicks": 96,
          "midi": 44,
          "name": "G#2",
          "ticks": 124416,
          "time": 121.5,
          "velocity": 0.3937007874015748
        },
        {
          "duration": 0.09375,
          "durationTicks": 96,
          "midi": 51,
          "name": "D#3",
          "ticks": 124800,
          "time": 121.875,
          "velocity": 0.3937007874015748
        },
        {
          "duration": 0.09375,
          "durationTicks": 96,
          "midi": 44,
          "name": "G#2",
          "ticks": 124800,
          "time": 121.875,
          "velocity": 0.3937007874015748
        },
        {
          "duration": 0.09375,
          "durationTicks": 96,
          "midi": 51,
          "name": "D#3",
          "ticks": 125184,
          "time": 122.25,
          "velocity": 0.3937007874015748
        },
        {
          "duration": 0.09375,
          "durationTicks": 96,
          "midi": 44,
          "name": "G#2",
          "ticks": 125184,
          "time": 122.25,
          "velocity": 0.3937007874015748
        },
        {
          "duration": 0.09375,
          "durationTicks": 96,
          "midi": 51,
          "name": "D#3",
          "ticks": 125568,
          "time": 122.625,
          "velocity": 0.3937007874015748
        },
        {
          "duration": 0.09375,
          "durationTicks": 96,
          "midi": 44,
          "name": "G#2",
          "ticks": 125568,
          "time": 122.625,
          "velocity": 0.3937007874015748
        },
        {
          "duration": 0.09375,
          "durationTicks": 96,
          "midi": 51,
          "name": "D#3",
          "ticks": 125952,
          "time": 123,
          "velocity": 0.3937007874015748
        },
        {
          "duration": 0.09375,
          "durationTicks": 96,
          "midi": 44,
          "name": "G#2",
          "ticks": 125952,
          "time": 123,
          "velocity": 0.3937007874015748
        },
        {
          "duration": 0.09375,
          "durationTicks": 96,
          "midi": 44,
          "name": "G#2",
          "ticks": 126336,
          "time": 123.375,
          "velocity": 0.3937007874015748
        },
        {
          "duration": 0.09375,
          "durationTicks": 96,
          "midi": 51,
          "name": "D#3",
          "ticks": 126720,
          "time": 123.75,
          "velocity": 0.3937007874015748
        },
        {
          "duration": 0.09375,
          "durationTicks": 96,
          "midi": 44,
          "name": "G#2",
          "ticks": 126720,
          "time": 123.75,
          "velocity": 0.3937007874015748
        },
        {
          "duration": 0.09375,
          "durationTicks": 96,
          "midi": 44,
          "name": "G#2",
          "ticks": 127104,
          "time": 124.125,
          "velocity": 0.3937007874015748
        },
        {
          "duration": 0.09375,
          "durationTicks": 96,
          "midi": 51,
          "name": "D#3",
          "ticks": 127104,
          "time": 124.125,
          "velocity": 0.3937007874015748
        },
        {
          "duration": 0.09375,
          "durationTicks": 96,
          "midi": 43,
          "name": "G2",
          "ticks": 127488,
          "time": 124.5,
          "velocity": 0.3937007874015748
        },
        {
          "duration": 0.09375,
          "durationTicks": 96,
          "midi": 43,
          "name": "G2",
          "ticks": 127488,
          "time": 124.5,
          "velocity": 0.3937007874015748
        },
        {
          "duration": 0.09375,
          "durationTicks": 96,
          "midi": 38,
          "name": "D2",
          "ticks": 127488,
          "time": 124.5,
          "velocity": 0.3937007874015748
        },
        {
          "duration": 0.09375,
          "durationTicks": 96,
          "midi": 51,
          "name": "D#3",
          "ticks": 127488,
          "time": 124.5,
          "velocity": 0.3937007874015748
        },
        {
          "duration": 0.09375,
          "durationTicks": 96,
          "midi": 43,
          "name": "G2",
          "ticks": 127488,
          "time": 124.5,
          "velocity": 0.3937007874015748
        },
        {
          "duration": 0.09375,
          "durationTicks": 96,
          "midi": 38,
          "name": "D2",
          "ticks": 127488,
          "time": 124.5,
          "velocity": 0.3937007874015748
        },
        {
          "duration": 0.09375,
          "durationTicks": 96,
          "midi": 38,
          "name": "D2",
          "ticks": 127488,
          "time": 124.5,
          "velocity": 0.3937007874015748
        },
        {
          "duration": 0.09375,
          "durationTicks": 96,
          "midi": 44,
          "name": "G#2",
          "ticks": 127872,
          "time": 124.875,
          "velocity": 0.3937007874015748
        },
        {
          "duration": 0.09375,
          "durationTicks": 96,
          "midi": 51,
          "name": "D#3",
          "ticks": 127872,
          "time": 124.875,
          "velocity": 0.3937007874015748
        },
        {
          "duration": 0.09375,
          "durationTicks": 96,
          "midi": 51,
          "name": "D#3",
          "ticks": 128256,
          "time": 125.25,
          "velocity": 0.3937007874015748
        },
        {
          "duration": 0.09375,
          "durationTicks": 96,
          "midi": 44,
          "name": "G#2",
          "ticks": 128256,
          "time": 125.25,
          "velocity": 0.3937007874015748
        },
        {
          "duration": 0.09375,
          "durationTicks": 96,
          "midi": 51,
          "name": "D#3",
          "ticks": 128640,
          "time": 125.625,
          "velocity": 0.3937007874015748
        },
        {
          "duration": 0.09375,
          "durationTicks": 96,
          "midi": 44,
          "name": "G#2",
          "ticks": 128640,
          "time": 125.625,
          "velocity": 0.3937007874015748
        },
        {
          "duration": 0.09375,
          "durationTicks": 96,
          "midi": 51,
          "name": "D#3",
          "ticks": 129024,
          "time": 126,
          "velocity": 0.3937007874015748
        },
        {
          "duration": 0.09375,
          "durationTicks": 96,
          "midi": 44,
          "name": "G#2",
          "ticks": 129024,
          "time": 126,
          "velocity": 0.3937007874015748
        },
        {
          "duration": 0.09375,
          "durationTicks": 96,
          "midi": 44,
          "name": "G#2",
          "ticks": 129408,
          "time": 126.375,
          "velocity": 0.3937007874015748
        },
        {
          "duration": 0.09375,
          "durationTicks": 96,
          "midi": 51,
          "name": "D#3",
          "ticks": 129408,
          "time": 126.375,
          "velocity": 0.3937007874015748
        },
        {
          "duration": 0.09375,
          "durationTicks": 96,
          "midi": 51,
          "name": "D#3",
          "ticks": 129792,
          "time": 126.75,
          "velocity": 0.3937007874015748
        },
        {
          "duration": 0.09375,
          "durationTicks": 96,
          "midi": 44,
          "name": "G#2",
          "ticks": 129792,
          "time": 126.75,
          "velocity": 0.3937007874015748
        },
        {
          "duration": 0.09375,
          "durationTicks": 96,
          "midi": 51,
          "name": "D#3",
          "ticks": 130176,
          "time": 127.125,
          "velocity": 0.3937007874015748
        },
        {
          "duration": 0.09375,
          "durationTicks": 96,
          "midi": 44,
          "name": "G#2",
          "ticks": 130176,
          "time": 127.125,
          "velocity": 0.3937007874015748
        },
        {
          "duration": 0.09375,
          "durationTicks": 96,
          "midi": 51,
          "name": "D#3",
          "ticks": 130560,
          "time": 127.5,
          "velocity": 0.3937007874015748
        },
        {
          "duration": 0.09375,
          "durationTicks": 96,
          "midi": 44,
          "name": "G#2",
          "ticks": 130560,
          "time": 127.5,
          "velocity": 0.3937007874015748
        },
        {
          "duration": 0.09375,
          "durationTicks": 96,
          "midi": 44,
          "name": "G#2",
          "ticks": 130944,
          "time": 127.875,
          "velocity": 0.3937007874015748
        },
        {
          "duration": 0.09375,
          "durationTicks": 96,
          "midi": 51,
          "name": "D#3",
          "ticks": 130944,
          "time": 127.875,
          "velocity": 0.3937007874015748
        },
        {
          "duration": 0.09375,
          "durationTicks": 96,
          "midi": 44,
          "name": "G#2",
          "ticks": 131328,
          "time": 128.25,
          "velocity": 0.3937007874015748
        },
        {
          "duration": 0.09375,
          "durationTicks": 96,
          "midi": 51,
          "name": "D#3",
          "ticks": 131328,
          "time": 128.25,
          "velocity": 0.3937007874015748
        },
        {
          "duration": 0.09375,
          "durationTicks": 96,
          "midi": 44,
          "name": "G#2",
          "ticks": 131712,
          "time": 128.625,
          "velocity": 0.3937007874015748
        },
        {
          "duration": 0.09375,
          "durationTicks": 96,
          "midi": 51,
          "name": "D#3",
          "ticks": 131712,
          "time": 128.625,
          "velocity": 0.3937007874015748
        },
        {
          "duration": 0.09375,
          "durationTicks": 96,
          "midi": 51,
          "name": "D#3",
          "ticks": 132096,
          "time": 129,
          "velocity": 0.3937007874015748
        },
        {
          "duration": 0.09375,
          "durationTicks": 96,
          "midi": 44,
          "name": "G#2",
          "ticks": 132096,
          "time": 129,
          "velocity": 0.3937007874015748
        },
        {
          "duration": 0.09375,
          "durationTicks": 96,
          "midi": 51,
          "name": "D#3",
          "ticks": 132480,
          "time": 129.375,
          "velocity": 0.3937007874015748
        },
        {
          "duration": 0.09375,
          "durationTicks": 96,
          "midi": 44,
          "name": "G#2",
          "ticks": 132480,
          "time": 129.375,
          "velocity": 0.3937007874015748
        },
        {
          "duration": 0.09375,
          "durationTicks": 96,
          "midi": 44,
          "name": "G#2",
          "ticks": 132864,
          "time": 129.75,
          "velocity": 0.3937007874015748
        },
        {
          "duration": 0.09375,
          "durationTicks": 96,
          "midi": 51,
          "name": "D#3",
          "ticks": 132864,
          "time": 129.75,
          "velocity": 0.3937007874015748
        },
        {
          "duration": 0.09375,
          "durationTicks": 96,
          "midi": 51,
          "name": "D#3",
          "ticks": 133248,
          "time": 130.125,
          "velocity": 0.3937007874015748
        },
        {
          "duration": 0.09375,
          "durationTicks": 96,
          "midi": 44,
          "name": "G#2",
          "ticks": 133248,
          "time": 130.125,
          "velocity": 0.3937007874015748
        },
        {
          "duration": 0.09375,
          "durationTicks": 96,
          "midi": 51,
          "name": "D#3",
          "ticks": 133632,
          "time": 130.5,
          "velocity": 0.3937007874015748
        },
        {
          "duration": 0.09375,
          "durationTicks": 96,
          "midi": 43,
          "name": "G2",
          "ticks": 133632,
          "time": 130.5,
          "velocity": 0.3937007874015748
        },
        {
          "duration": 0.09375,
          "durationTicks": 96,
          "midi": 38,
          "name": "D2",
          "ticks": 133632,
          "time": 130.5,
          "velocity": 0.3937007874015748
        },
        {
          "duration": 0.09375,
          "durationTicks": 96,
          "midi": 38,
          "name": "D2",
          "ticks": 133632,
          "time": 130.5,
          "velocity": 0.3937007874015748
        },
        {
          "duration": 0.09375,
          "durationTicks": 96,
          "midi": 38,
          "name": "D2",
          "ticks": 133632,
          "time": 130.5,
          "velocity": 0.3937007874015748
        },
        {
          "duration": 0.09375,
          "durationTicks": 96,
          "midi": 43,
          "name": "G2",
          "ticks": 133632,
          "time": 130.5,
          "velocity": 0.3937007874015748
        },
        {
          "duration": 0.09375,
          "durationTicks": 96,
          "midi": 43,
          "name": "G2",
          "ticks": 133632,
          "time": 130.5,
          "velocity": 0.3937007874015748
        },
        {
          "duration": 0.09375,
          "durationTicks": 96,
          "midi": 51,
          "name": "D#3",
          "ticks": 134016,
          "time": 130.875,
          "velocity": 0.3937007874015748
        },
        {
          "duration": 0.09375,
          "durationTicks": 96,
          "midi": 44,
          "name": "G#2",
          "ticks": 134016,
          "time": 130.875,
          "velocity": 0.3937007874015748
        },
        {
          "duration": 0.09375,
          "durationTicks": 96,
          "midi": 44,
          "name": "G#2",
          "ticks": 134400,
          "time": 131.25,
          "velocity": 0.3937007874015748
        },
        {
          "duration": 0.09375,
          "durationTicks": 96,
          "midi": 51,
          "name": "D#3",
          "ticks": 134400,
          "time": 131.25,
          "velocity": 0.3937007874015748
        },
        {
          "duration": 0.09375,
          "durationTicks": 96,
          "midi": 51,
          "name": "D#3",
          "ticks": 134784,
          "time": 131.625,
          "velocity": 0.3937007874015748
        },
        {
          "duration": 0.09375,
          "durationTicks": 96,
          "midi": 44,
          "name": "G#2",
          "ticks": 134784,
          "time": 131.625,
          "velocity": 0.3937007874015748
        },
        {
          "duration": 0.09375,
          "durationTicks": 96,
          "midi": 51,
          "name": "D#3",
          "ticks": 135168,
          "time": 132,
          "velocity": 0.3937007874015748
        },
        {
          "duration": 0.09375,
          "durationTicks": 96,
          "midi": 44,
          "name": "G#2",
          "ticks": 135168,
          "time": 132,
          "velocity": 0.3937007874015748
        },
        {
          "duration": 0.09375,
          "durationTicks": 96,
          "midi": 51,
          "name": "D#3",
          "ticks": 135552,
          "time": 132.375,
          "velocity": 0.3937007874015748
        },
        {
          "duration": 0.09375,
          "durationTicks": 96,
          "midi": 44,
          "name": "G#2",
          "ticks": 135552,
          "time": 132.375,
          "velocity": 0.3937007874015748
        },
        {
          "duration": 0.09375,
          "durationTicks": 96,
          "midi": 51,
          "name": "D#3",
          "ticks": 135936,
          "time": 132.75,
          "velocity": 0.3937007874015748
        },
        {
          "duration": 0.09375,
          "durationTicks": 96,
          "midi": 44,
          "name": "G#2",
          "ticks": 135936,
          "time": 132.75,
          "velocity": 0.3937007874015748
        },
        {
          "duration": 0.09375,
          "durationTicks": 96,
          "midi": 44,
          "name": "G#2",
          "ticks": 136320,
          "time": 133.125,
          "velocity": 0.3937007874015748
        },
        {
          "duration": 0.09375,
          "durationTicks": 96,
          "midi": 51,
          "name": "D#3",
          "ticks": 136320,
          "time": 133.125,
          "velocity": 0.3937007874015748
        },
        {
          "duration": 0.09375,
          "durationTicks": 96,
          "midi": 44,
          "name": "G#2",
          "ticks": 136704,
          "time": 133.5,
          "velocity": 0.3937007874015748
        },
        {
          "duration": 0.09375,
          "durationTicks": 96,
          "midi": 51,
          "name": "D#3",
          "ticks": 136704,
          "time": 133.5,
          "velocity": 0.3937007874015748
        },
        {
          "duration": 0.09375,
          "durationTicks": 96,
          "midi": 51,
          "name": "D#3",
          "ticks": 137088,
          "time": 133.875,
          "velocity": 0.3937007874015748
        },
        {
          "duration": 0.09375,
          "durationTicks": 96,
          "midi": 44,
          "name": "G#2",
          "ticks": 137088,
          "time": 133.875,
          "velocity": 0.3937007874015748
        },
        {
          "duration": 0.09375,
          "durationTicks": 96,
          "midi": 44,
          "name": "G#2",
          "ticks": 137472,
          "time": 134.25,
          "velocity": 0.3937007874015748
        },
        {
          "duration": 0.09375,
          "durationTicks": 96,
          "midi": 51,
          "name": "D#3",
          "ticks": 137472,
          "time": 134.25,
          "velocity": 0.3937007874015748
        },
        {
          "duration": 0.09375,
          "durationTicks": 96,
          "midi": 44,
          "name": "G#2",
          "ticks": 137856,
          "time": 134.625,
          "velocity": 0.3937007874015748
        },
        {
          "duration": 0.09375,
          "durationTicks": 96,
          "midi": 51,
          "name": "D#3",
          "ticks": 137856,
          "time": 134.625,
          "velocity": 0.3937007874015748
        },
        {
          "duration": 0.09375,
          "durationTicks": 96,
          "midi": 36,
          "name": "C2",
          "ticks": 138240,
          "time": 135,
          "velocity": 0.3937007874015748
        },
        {
          "duration": 0.09375,
          "durationTicks": 96,
          "midi": 40,
          "name": "E2",
          "ticks": 138240,
          "time": 135,
          "velocity": 0.3937007874015748
        },
        {
          "duration": 0.09375,
          "durationTicks": 96,
          "midi": 52,
          "name": "E3",
          "ticks": 138240,
          "time": 135,
          "velocity": 0.3937007874015748
        },
        {
          "duration": 0.09375,
          "durationTicks": 96,
          "midi": 35,
          "name": "B1",
          "ticks": 138240,
          "time": 135,
          "velocity": 0.3937007874015748
        },
        {
          "duration": 0.09375,
          "durationTicks": 96,
          "midi": 36,
          "name": "C2",
          "ticks": 138528,
          "time": 135.28125,
          "velocity": 0.3937007874015748
        },
        {
          "duration": 0.09375,
          "durationTicks": 96,
          "midi": 35,
          "name": "B1",
          "ticks": 138528,
          "time": 135.28125,
          "velocity": 0.3937007874015748
        },
        {
          "duration": 0.09375,
          "durationTicks": 96,
          "midi": 43,
          "name": "G2",
          "ticks": 138528,
          "time": 135.28125,
          "velocity": 0.3937007874015748
        },
        {
          "duration": 0.09375,
          "durationTicks": 96,
          "midi": 36,
          "name": "C2",
          "ticks": 138816,
          "time": 135.5625,
          "velocity": 0.3937007874015748
        },
        {
          "duration": 0.09375,
          "durationTicks": 96,
          "midi": 35,
          "name": "B1",
          "ticks": 138816,
          "time": 135.5625,
          "velocity": 0.3937007874015748
        },
        {
          "duration": 0.09375,
          "durationTicks": 96,
          "midi": 43,
          "name": "G2",
          "ticks": 138816,
          "time": 135.5625,
          "velocity": 0.3937007874015748
        },
        {
          "duration": 0.125,
          "durationTicks": 128,
          "midi": 38,
          "name": "D2",
          "ticks": 139008,
          "time": 135.75,
          "velocity": 0.3937007874015748
        },
        {
          "duration": 0.125,
          "durationTicks": 128,
          "midi": 38,
          "name": "D2",
          "ticks": 139136,
          "time": 135.875,
          "velocity": 0.3937007874015748
        },
        {
          "duration": 0.125,
          "durationTicks": 128,
          "midi": 38,
          "name": "D2",
          "ticks": 139264,
          "time": 136,
          "velocity": 0.3937007874015748
        },
        {
          "duration": 0.125,
          "durationTicks": 128,
          "midi": 35,
          "name": "B1",
          "ticks": 139392,
          "time": 136.125,
          "velocity": 0.3937007874015748
        },
        {
          "duration": 0.125,
          "durationTicks": 128,
          "midi": 35,
          "name": "B1",
          "ticks": 139520,
          "time": 136.25,
          "velocity": 0.3937007874015748
        },
        {
          "duration": 0.125,
          "durationTicks": 128,
          "midi": 35,
          "name": "B1",
          "ticks": 139648,
          "time": 136.375,
          "velocity": 0.3937007874015748
        },
        {
          "duration": 0.1875,
          "durationTicks": 192,
          "midi": 36,
          "name": "C2",
          "ticks": 139776,
          "time": 136.5,
          "velocity": 0.3937007874015748
        },
        {
          "duration": 0.1875,
          "durationTicks": 192,
          "midi": 57,
          "name": "A3",
          "ticks": 139776,
          "time": 136.5,
          "velocity": 0.3937007874015748
        },
        {
          "duration": 0.1875,
          "durationTicks": 192,
          "midi": 49,
          "name": "C#3",
          "ticks": 139776,
          "time": 136.5,
          "velocity": 0.3937007874015748
        },
        {
          "duration": 0.1875,
          "durationTicks": 192,
          "midi": 57,
          "name": "A3",
          "ticks": 139776,
          "time": 136.5,
          "velocity": 0.3937007874015748
        },
        {
          "duration": 0.1875,
          "durationTicks": 192,
          "midi": 49,
          "name": "C#3",
          "ticks": 139776,
          "time": 136.5,
          "velocity": 0.3937007874015748
        },
        {
          "duration": 0.1875,
          "durationTicks": 192,
          "midi": 35,
          "name": "B1",
          "ticks": 139776,
          "time": 136.5,
          "velocity": 0.3937007874015748
        },
        {
          "duration": 0.09375,
          "durationTicks": 96,
          "midi": 42,
          "name": "F#2",
          "ticks": 140160,
          "time": 136.875,
          "velocity": 0.3937007874015748
        },
        {
          "duration": 0.09375,
          "durationTicks": 96,
          "midi": 42,
          "name": "F#2",
          "ticks": 140256,
          "time": 136.96875,
          "velocity": 0.3937007874015748
        },
        {
          "duration": 0.1875,
          "durationTicks": 192,
          "midi": 36,
          "name": "C2",
          "ticks": 140352,
          "time": 137.0625,
          "velocity": 0.3937007874015748
        },
        {
          "duration": 0.1875,
          "durationTicks": 192,
          "midi": 35,
          "name": "B1",
          "ticks": 140352,
          "time": 137.0625,
          "velocity": 0.3937007874015748
        },
        {
          "duration": 0.09375,
          "durationTicks": 96,
          "midi": 42,
          "name": "F#2",
          "ticks": 140736,
          "time": 137.4375,
          "velocity": 0.3937007874015748
        },
        {
          "duration": 0.09375,
          "durationTicks": 96,
          "midi": 42,
          "name": "F#2",
          "ticks": 140832,
          "time": 137.53125,
          "velocity": 0.3937007874015748
        },
        {
          "duration": 0.1875,
          "durationTicks": 192,
          "midi": 36,
          "name": "C2",
          "ticks": 140928,
          "time": 137.625,
          "velocity": 0.3937007874015748
        },
        {
          "duration": 0.1875,
          "durationTicks": 192,
          "midi": 35,
          "name": "B1",
          "ticks": 140928,
          "time": 137.625,
          "velocity": 0.3937007874015748
        },
        {
          "duration": 0.09375,
          "durationTicks": 96,
          "midi": 42,
          "name": "F#2",
          "ticks": 141120,
          "time": 137.8125,
          "velocity": 0.3937007874015748
        },
        {
          "duration": 0.09375,
          "durationTicks": 96,
          "midi": 42,
          "name": "F#2",
          "ticks": 141216,
          "time": 137.90625,
          "velocity": 0.3937007874015748
        },
        {
          "duration": 0.1875,
          "durationTicks": 192,
          "midi": 35,
          "name": "B1",
          "ticks": 141312,
          "time": 138,
          "velocity": 0.3937007874015748
        },
        {
          "duration": 0.1875,
          "durationTicks": 192,
          "midi": 36,
          "name": "C2",
          "ticks": 141312,
          "time": 138,
          "velocity": 0.3937007874015748
        },
        {
          "duration": 0.09375,
          "durationTicks": 96,
          "midi": 42,
          "name": "F#2",
          "ticks": 141696,
          "time": 138.375,
          "velocity": 0.3937007874015748
        },
        {
          "duration": 0.09375,
          "durationTicks": 96,
          "midi": 42,
          "name": "F#2",
          "ticks": 141792,
          "time": 138.46875,
          "velocity": 0.3937007874015748
        },
        {
          "duration": 0.1875,
          "durationTicks": 192,
          "midi": 35,
          "name": "B1",
          "ticks": 141888,
          "time": 138.5625,
          "velocity": 0.3937007874015748
        },
        {
          "duration": 0.1875,
          "durationTicks": 192,
          "midi": 36,
          "name": "C2",
          "ticks": 141888,
          "time": 138.5625,
          "velocity": 0.3937007874015748
        },
        {
          "duration": 0.09375,
          "durationTicks": 96,
          "midi": 42,
          "name": "F#2",
          "ticks": 142272,
          "time": 138.9375,
          "velocity": 0.3937007874015748
        },
        {
          "duration": 0.09375,
          "durationTicks": 96,
          "midi": 42,
          "name": "F#2",
          "ticks": 142368,
          "time": 139.03125,
          "velocity": 0.3937007874015748
        },
        {
          "duration": 0.1875,
          "durationTicks": 192,
          "midi": 35,
          "name": "B1",
          "ticks": 142464,
          "time": 139.125,
          "velocity": 0.3937007874015748
        },
        {
          "duration": 0.1875,
          "durationTicks": 192,
          "midi": 36,
          "name": "C2",
          "ticks": 142464,
          "time": 139.125,
          "velocity": 0.3937007874015748
        },
        {
          "duration": 0.09375,
          "durationTicks": 96,
          "midi": 42,
          "name": "F#2",
          "ticks": 142656,
          "time": 139.3125,
          "velocity": 0.3937007874015748
        },
        {
          "duration": 0.09375,
          "durationTicks": 96,
          "midi": 42,
          "name": "F#2",
          "ticks": 142752,
          "time": 139.40625,
          "velocity": 0.3937007874015748
        },
        {
          "duration": 0.1875,
          "durationTicks": 192,
          "midi": 35,
          "name": "B1",
          "ticks": 142848,
          "time": 139.5,
          "velocity": 0.3937007874015748
        },
        {
          "duration": 0.1875,
          "durationTicks": 192,
          "midi": 36,
          "name": "C2",
          "ticks": 142848,
          "time": 139.5,
          "velocity": 0.3937007874015748
        },
        {
          "duration": 0.09375,
          "durationTicks": 96,
          "midi": 42,
          "name": "F#2",
          "ticks": 143232,
          "time": 139.875,
          "velocity": 0.3937007874015748
        },
        {
          "duration": 0.09375,
          "durationTicks": 96,
          "midi": 42,
          "name": "F#2",
          "ticks": 143328,
          "time": 139.96875,
          "velocity": 0.3937007874015748
        },
        {
          "duration": 0.1875,
          "durationTicks": 192,
          "midi": 36,
          "name": "C2",
          "ticks": 143424,
          "time": 140.0625,
          "velocity": 0.3937007874015748
        },
        {
          "duration": 0.1875,
          "durationTicks": 192,
          "midi": 35,
          "name": "B1",
          "ticks": 143424,
          "time": 140.0625,
          "velocity": 0.3937007874015748
        },
        {
          "duration": 0.09375,
          "durationTicks": 96,
          "midi": 42,
          "name": "F#2",
          "ticks": 143808,
          "time": 140.4375,
          "velocity": 0.3937007874015748
        },
        {
          "duration": 0.09375,
          "durationTicks": 96,
          "midi": 42,
          "name": "F#2",
          "ticks": 143904,
          "time": 140.53125,
          "velocity": 0.3937007874015748
        },
        {
          "duration": 0.1875,
          "durationTicks": 192,
          "midi": 35,
          "name": "B1",
          "ticks": 144000,
          "time": 140.625,
          "velocity": 0.3937007874015748
        },
        {
          "duration": 0.1875,
          "durationTicks": 192,
          "midi": 36,
          "name": "C2",
          "ticks": 144000,
          "time": 140.625,
          "velocity": 0.3937007874015748
        },
        {
          "duration": 0.09375,
          "durationTicks": 96,
          "midi": 42,
          "name": "F#2",
          "ticks": 144192,
          "time": 140.8125,
          "velocity": 0.3937007874015748
        },
        {
          "duration": 0.09375,
          "durationTicks": 96,
          "midi": 42,
          "name": "F#2",
          "ticks": 144288,
          "time": 140.90625,
          "velocity": 0.3937007874015748
        },
        {
          "duration": 0.1875,
          "durationTicks": 192,
          "midi": 35,
          "name": "B1",
          "ticks": 144384,
          "time": 141,
          "velocity": 0.3937007874015748
        },
        {
          "duration": 0.1875,
          "durationTicks": 192,
          "midi": 36,
          "name": "C2",
          "ticks": 144384,
          "time": 141,
          "velocity": 0.3937007874015748
        },
        {
          "duration": 0.09375,
          "durationTicks": 96,
          "midi": 42,
          "name": "F#2",
          "ticks": 144768,
          "time": 141.375,
          "velocity": 0.3937007874015748
        },
        {
          "duration": 0.09375,
          "durationTicks": 96,
          "midi": 42,
          "name": "F#2",
          "ticks": 144864,
          "time": 141.46875,
          "velocity": 0.3937007874015748
        },
        {
          "duration": 0.1875,
          "durationTicks": 192,
          "midi": 36,
          "name": "C2",
          "ticks": 144960,
          "time": 141.5625,
          "velocity": 0.3937007874015748
        },
        {
          "duration": 0.1875,
          "durationTicks": 192,
          "midi": 35,
          "name": "B1",
          "ticks": 144960,
          "time": 141.5625,
          "velocity": 0.3937007874015748
        },
        {
          "duration": 0.09375,
          "durationTicks": 96,
          "midi": 42,
          "name": "F#2",
          "ticks": 145344,
          "time": 141.9375,
          "velocity": 0.3937007874015748
        },
        {
          "duration": 0.1875,
          "durationTicks": 192,
          "midi": 49,
          "name": "C#3",
          "ticks": 145344,
          "time": 141.9375,
          "velocity": 0.3937007874015748
        },
        {
          "duration": 0.09375,
          "durationTicks": 96,
          "midi": 42,
          "name": "F#2",
          "ticks": 145440,
          "time": 142.03125,
          "velocity": 0.3937007874015748
        },
        {
          "duration": 0.1875,
          "durationTicks": 192,
          "midi": 35,
          "name": "B1",
          "ticks": 145536,
          "time": 142.125,
          "velocity": 0.3937007874015748
        },
        {
          "duration": 0.1875,
          "durationTicks": 192,
          "midi": 36,
          "name": "C2",
          "ticks": 145536,
          "time": 142.125,
          "velocity": 0.3937007874015748
        },
        {
          "duration": 0.1875,
          "durationTicks": 192,
          "midi": 49,
          "name": "C#3",
          "ticks": 145728,
          "time": 142.3125,
          "velocity": 0.3937007874015748
        },
        {
          "duration": 0.1875,
          "durationTicks": 192,
          "midi": 36,
          "name": "C2",
          "ticks": 145920,
          "time": 142.5,
          "velocity": 0.3937007874015748
        },
        {
          "duration": 0.1875,
          "durationTicks": 192,
          "midi": 49,
          "name": "C#3",
          "ticks": 145920,
          "time": 142.5,
          "velocity": 0.3937007874015748
        },
        {
          "duration": 0.1875,
          "durationTicks": 192,
          "midi": 35,
          "name": "B1",
          "ticks": 145920,
          "time": 142.5,
          "velocity": 0.3937007874015748
        },
        {
          "duration": 0.1875,
          "durationTicks": 192,
          "midi": 57,
          "name": "A3",
          "ticks": 145920,
          "time": 142.5,
          "velocity": 0.3937007874015748
        },
        {
          "duration": 0.1875,
          "durationTicks": 192,
          "midi": 57,
          "name": "A3",
          "ticks": 145920,
          "time": 142.5,
          "velocity": 0.3937007874015748
        },
        {
          "duration": 0.1875,
          "durationTicks": 192,
          "midi": 49,
          "name": "C#3",
          "ticks": 146112,
          "time": 142.6875,
          "velocity": 0.3937007874015748
        },
        {
          "duration": 0.09375,
          "durationTicks": 96,
          "midi": 40,
          "name": "E2",
          "ticks": 146304,
          "time": 142.875,
          "velocity": 0.3937007874015748
        },
        {
          "duration": 0.1875,
          "durationTicks": 192,
          "midi": 35,
          "name": "B1",
          "ticks": 146304,
          "time": 142.875,
          "velocity": 0.3937007874015748
        },
        {
          "duration": 0.1875,
          "durationTicks": 192,
          "midi": 36,
          "name": "C2",
          "ticks": 146304,
          "time": 142.875,
          "velocity": 0.3937007874015748
        },
        {
          "duration": 0.09375,
          "durationTicks": 96,
          "midi": 38,
          "name": "D2",
          "ticks": 146304,
          "time": 142.875,
          "velocity": 0.3937007874015748
        },
        {
          "duration": 0.09375,
          "durationTicks": 96,
          "midi": 42,
          "name": "F#2",
          "ticks": 146304,
          "time": 142.875,
          "velocity": 0.3937007874015748
        },
        {
          "duration": 0.09375,
          "durationTicks": 96,
          "midi": 42,
          "name": "F#2",
          "ticks": 146400,
          "time": 142.96875,
          "velocity": 0.3937007874015748
        },
        {
          "duration": 0.1875,
          "durationTicks": 192,
          "midi": 49,
          "name": "C#3",
          "ticks": 146496,
          "time": 143.0625,
          "velocity": 0.3937007874015748
        },
        {
          "duration": 0.1875,
          "durationTicks": 192,
          "midi": 36,
          "name": "C2",
          "ticks": 146688,
          "time": 143.25,
          "velocity": 0.3937007874015748
        },
        {
          "duration": 0.1875,
          "durationTicks": 192,
          "midi": 35,
          "name": "B1",
          "ticks": 146688,
          "time": 143.25,
          "velocity": 0.3937007874015748
        },
        {
          "duration": 0.09375,
          "durationTicks": 96,
          "midi": 42,
          "name": "F#2",
          "ticks": 146880,
          "time": 143.4375,
          "velocity": 0.3937007874015748
        },
        {
          "duration": 0.09375,
          "durationTicks": 96,
          "midi": 36,
          "name": "C2",
          "ticks": 146880,
          "time": 143.4375,
          "velocity": 0.3937007874015748
        },
        {
          "duration": 0.09375,
          "durationTicks": 96,
          "midi": 42,
          "name": "F#2",
          "ticks": 146976,
          "time": 143.53125,
          "velocity": 0.3937007874015748
        },
        {
          "duration": 0.1875,
          "durationTicks": 192,
          "midi": 36,
          "name": "C2",
          "ticks": 147072,
          "time": 143.625,
          "velocity": 0.3937007874015748
        },
        {
          "duration": 0.09375,
          "durationTicks": 96,
          "midi": 38,
          "name": "D2",
          "ticks": 147072,
          "time": 143.625,
          "velocity": 0.3937007874015748
        },
        {
          "duration": 0.1875,
          "durationTicks": 192,
          "midi": 35,
          "name": "B1",
          "ticks": 147072,
          "time": 143.625,
          "velocity": 0.3937007874015748
        },
        {
          "duration": 0.09375,
          "durationTicks": 96,
          "midi": 40,
          "name": "E2",
          "ticks": 147072,
          "time": 143.625,
          "velocity": 0.3937007874015748
        },
        {
          "duration": 0.09375,
          "durationTicks": 96,
          "midi": 42,
          "name": "F#2",
          "ticks": 147264,
          "time": 143.8125,
          "velocity": 0.3937007874015748
        },
        {
          "duration": 0.09375,
          "durationTicks": 96,
          "midi": 36,
          "name": "C2",
          "ticks": 147264,
          "time": 143.8125,
          "velocity": 0.3937007874015748
        },
        {
          "duration": 0.09375,
          "durationTicks": 96,
          "midi": 42,
          "name": "F#2",
          "ticks": 147360,
          "time": 143.90625,
          "velocity": 0.3937007874015748
        },
        {
          "duration": 0.1875,
          "durationTicks": 192,
          "midi": 35,
          "name": "B1",
          "ticks": 147456,
          "time": 144,
          "velocity": 0.3937007874015748
        },
        {
          "duration": 0.1875,
          "durationTicks": 192,
          "midi": 36,
          "name": "C2",
          "ticks": 147456,
          "time": 144,
          "velocity": 0.3937007874015748
        },
        {
          "duration": 0.09375,
          "durationTicks": 96,
          "midi": 40,
          "name": "E2",
          "ticks": 147840,
          "time": 144.375,
          "velocity": 0.3937007874015748
        },
        {
          "duration": 0.09375,
          "durationTicks": 96,
          "midi": 38,
          "name": "D2",
          "ticks": 147840,
          "time": 144.375,
          "velocity": 0.3937007874015748
        },
        {
          "duration": 0.1875,
          "durationTicks": 192,
          "midi": 36,
          "name": "C2",
          "ticks": 147840,
          "time": 144.375,
          "velocity": 0.3937007874015748
        },
        {
          "duration": 0.09375,
          "durationTicks": 96,
          "midi": 42,
          "name": "F#2",
          "ticks": 147840,
          "time": 144.375,
          "velocity": 0.3937007874015748
        },
        {
          "duration": 0.1875,
          "durationTicks": 192,
          "midi": 35,
          "name": "B1",
          "ticks": 147840,
          "time": 144.375,
          "velocity": 0.3937007874015748
        },
        {
          "duration": 0.09375,
          "durationTicks": 96,
          "midi": 42,
          "name": "F#2",
          "ticks": 147936,
          "time": 144.46875,
          "velocity": 0.3937007874015748
        },
        {
          "duration": 0.09375,
          "durationTicks": 96,
          "midi": 40,
          "name": "E2",
          "ticks": 148128,
          "time": 144.65625,
          "velocity": 0.3937007874015748
        },
        {
          "duration": 0.09375,
          "durationTicks": 96,
          "midi": 38,
          "name": "D2",
          "ticks": 148128,
          "time": 144.65625,
          "velocity": 0.3937007874015748
        },
        {
          "duration": 0.1875,
          "durationTicks": 192,
          "midi": 35,
          "name": "B1",
          "ticks": 148224,
          "time": 144.75,
          "velocity": 0.3937007874015748
        },
        {
          "duration": 0.1875,
          "durationTicks": 192,
          "midi": 36,
          "name": "C2",
          "ticks": 148224,
          "time": 144.75,
          "velocity": 0.3937007874015748
        },
        {
          "duration": 0.09375,
          "durationTicks": 96,
          "midi": 42,
          "name": "F#2",
          "ticks": 148512,
          "time": 145.03125,
          "velocity": 0.3937007874015748
        },
        {
          "duration": 0.09375,
          "durationTicks": 96,
          "midi": 38,
          "name": "D2",
          "ticks": 148608,
          "time": 145.125,
          "velocity": 0.3937007874015748
        },
        {
          "duration": 0.09375,
          "durationTicks": 96,
          "midi": 40,
          "name": "E2",
          "ticks": 148608,
          "time": 145.125,
          "velocity": 0.3937007874015748
        },
        {
          "duration": 0.1875,
          "durationTicks": 192,
          "midi": 36,
          "name": "C2",
          "ticks": 148608,
          "time": 145.125,
          "velocity": 0.3937007874015748
        },
        {
          "duration": 0.1875,
          "durationTicks": 192,
          "midi": 35,
          "name": "B1",
          "ticks": 148608,
          "time": 145.125,
          "velocity": 0.3937007874015748
        },
        {
          "duration": 0.09375,
          "durationTicks": 96,
          "midi": 42,
          "name": "F#2",
          "ticks": 148800,
          "time": 145.3125,
          "velocity": 0.3937007874015748
        },
        {
          "duration": 0.09375,
          "durationTicks": 96,
          "midi": 42,
          "name": "F#2",
          "ticks": 148896,
          "time": 145.40625,
          "velocity": 0.3937007874015748
        },
        {
          "duration": 0.1875,
          "durationTicks": 192,
          "midi": 35,
          "name": "B1",
          "ticks": 148992,
          "time": 145.5,
          "velocity": 0.3937007874015748
        },
        {
          "duration": 0.1875,
          "durationTicks": 192,
          "midi": 36,
          "name": "C2",
          "ticks": 148992,
          "time": 145.5,
          "velocity": 0.3937007874015748
        },
        {
          "duration": 0.09375,
          "durationTicks": 96,
          "midi": 40,
          "name": "E2",
          "ticks": 149376,
          "time": 145.875,
          "velocity": 0.3937007874015748
        },
        {
          "duration": 0.09375,
          "durationTicks": 96,
          "midi": 38,
          "name": "D2",
          "ticks": 149376,
          "time": 145.875,
          "velocity": 0.3937007874015748
        },
        {
          "duration": 0.09375,
          "durationTicks": 96,
          "midi": 42,
          "name": "F#2",
          "ticks": 149376,
          "time": 145.875,
          "velocity": 0.3937007874015748
        },
        {
          "duration": 0.1875,
          "durationTicks": 192,
          "midi": 36,
          "name": "C2",
          "ticks": 149376,
          "time": 145.875,
          "velocity": 0.3937007874015748
        },
        {
          "duration": 0.1875,
          "durationTicks": 192,
          "midi": 35,
          "name": "B1",
          "ticks": 149376,
          "time": 145.875,
          "velocity": 0.3937007874015748
        },
        {
          "duration": 0.09375,
          "durationTicks": 96,
          "midi": 42,
          "name": "F#2",
          "ticks": 149472,
          "time": 145.96875,
          "velocity": 0.3937007874015748
        },
        {
          "duration": 0.1875,
          "durationTicks": 192,
          "midi": 35,
          "name": "B1",
          "ticks": 149760,
          "time": 146.25,
          "velocity": 0.3937007874015748
        },
        {
          "duration": 0.1875,
          "durationTicks": 192,
          "midi": 36,
          "name": "C2",
          "ticks": 149760,
          "time": 146.25,
          "velocity": 0.3937007874015748
        },
        {
          "duration": 0.09375,
          "durationTicks": 96,
          "midi": 36,
          "name": "C2",
          "ticks": 149952,
          "time": 146.4375,
          "velocity": 0.3937007874015748
        },
        {
          "duration": 0.09375,
          "durationTicks": 96,
          "midi": 42,
          "name": "F#2",
          "ticks": 149952,
          "time": 146.4375,
          "velocity": 0.3937007874015748
        },
        {
          "duration": 0.09375,
          "durationTicks": 96,
          "midi": 42,
          "name": "F#2",
          "ticks": 150048,
          "time": 146.53125,
          "velocity": 0.3937007874015748
        },
        {
          "duration": 0.1875,
          "durationTicks": 192,
          "midi": 35,
          "name": "B1",
          "ticks": 150144,
          "time": 146.625,
          "velocity": 0.3937007874015748
        },
        {
          "duration": 0.09375,
          "durationTicks": 96,
          "midi": 40,
          "name": "E2",
          "ticks": 150144,
          "time": 146.625,
          "velocity": 0.3937007874015748
        },
        {
          "duration": 0.1875,
          "durationTicks": 192,
          "midi": 36,
          "name": "C2",
          "ticks": 150144,
          "time": 146.625,
          "velocity": 0.3937007874015748
        },
        {
          "duration": 0.09375,
          "durationTicks": 96,
          "midi": 38,
          "name": "D2",
          "ticks": 150144,
          "time": 146.625,
          "velocity": 0.3937007874015748
        },
        {
          "duration": 0.09375,
          "durationTicks": 96,
          "midi": 36,
          "name": "C2",
          "ticks": 150336,
          "time": 146.8125,
          "velocity": 0.3937007874015748
        },
        {
          "duration": 0.09375,
          "durationTicks": 96,
          "midi": 42,
          "name": "F#2",
          "ticks": 150336,
          "time": 146.8125,
          "velocity": 0.3937007874015748
        },
        {
          "duration": 0.09375,
          "durationTicks": 96,
          "midi": 42,
          "name": "F#2",
          "ticks": 150432,
          "time": 146.90625,
          "velocity": 0.3937007874015748
        },
        {
          "duration": 0.1875,
          "durationTicks": 192,
          "midi": 36,
          "name": "C2",
          "ticks": 150528,
          "time": 147,
          "velocity": 0.3937007874015748
        },
        {
          "duration": 0.1875,
          "durationTicks": 192,
          "midi": 35,
          "name": "B1",
          "ticks": 150528,
          "time": 147,
          "velocity": 0.3937007874015748
        },
        {
          "duration": 0.09375,
          "durationTicks": 96,
          "midi": 42,
          "name": "F#2",
          "ticks": 150528,
          "time": 147,
          "velocity": 0.3937007874015748
        },
        {
          "duration": 0.09375,
          "durationTicks": 96,
          "midi": 36,
          "name": "C2",
          "ticks": 150624,
          "time": 147.09375,
          "velocity": 0.3937007874015748
        },
        {
          "duration": 0.09375,
          "durationTicks": 96,
          "midi": 42,
          "name": "F#2",
          "ticks": 150624,
          "time": 147.09375,
          "velocity": 0.3937007874015748
        },
        {
          "duration": 0.09375,
          "durationTicks": 96,
          "midi": 35,
          "name": "B1",
          "ticks": 150624,
          "time": 147.09375,
          "velocity": 0.3937007874015748
        },
        {
          "duration": 0.09375,
          "durationTicks": 96,
          "midi": 35,
          "name": "B1",
          "ticks": 150720,
          "time": 147.1875,
          "velocity": 0.3937007874015748
        },
        {
          "duration": 0.09375,
          "durationTicks": 96,
          "midi": 36,
          "name": "C2",
          "ticks": 150720,
          "time": 147.1875,
          "velocity": 0.3937007874015748
        },
        {
          "duration": 0.09375,
          "durationTicks": 96,
          "midi": 42,
          "name": "F#2",
          "ticks": 150720,
          "time": 147.1875,
          "velocity": 0.3937007874015748
        },
        {
          "duration": 0.09375,
          "durationTicks": 96,
          "midi": 38,
          "name": "D2",
          "ticks": 150816,
          "time": 147.28125,
          "velocity": 0.3937007874015748
        },
        {
          "duration": 0.09375,
          "durationTicks": 96,
          "midi": 42,
          "name": "F#2",
          "ticks": 150816,
          "time": 147.28125,
          "velocity": 0.3937007874015748
        },
        {
          "duration": 0.09375,
          "durationTicks": 96,
          "midi": 40,
          "name": "E2",
          "ticks": 150816,
          "time": 147.28125,
          "velocity": 0.3937007874015748
        },
        {
          "duration": 0.09375,
          "durationTicks": 96,
          "midi": 35,
          "name": "B1",
          "ticks": 150816,
          "time": 147.28125,
          "velocity": 0.3937007874015748
        },
        {
          "duration": 0.09375,
          "durationTicks": 96,
          "midi": 36,
          "name": "C2",
          "ticks": 150816,
          "time": 147.28125,
          "velocity": 0.3937007874015748
        },
        {
          "duration": 0.09375,
          "durationTicks": 96,
          "midi": 38,
          "name": "D2",
          "ticks": 150912,
          "time": 147.375,
          "velocity": 0.3937007874015748
        },
        {
          "duration": 0.09375,
          "durationTicks": 96,
          "midi": 40,
          "name": "E2",
          "ticks": 150912,
          "time": 147.375,
          "velocity": 0.3937007874015748
        },
        {
          "duration": 0.09375,
          "durationTicks": 96,
          "midi": 42,
          "name": "F#2",
          "ticks": 150912,
          "time": 147.375,
          "velocity": 0.3937007874015748
        },
        {
          "duration": 0.1875,
          "durationTicks": 192,
          "midi": 36,
          "name": "C2",
          "ticks": 151104,
          "time": 147.5625,
          "velocity": 0.3937007874015748
        },
        {
          "duration": 0.1875,
          "durationTicks": 192,
          "midi": 35,
          "name": "B1",
          "ticks": 151104,
          "time": 147.5625,
          "velocity": 0.3937007874015748
        },
        {
          "duration": 0.09375,
          "durationTicks": 96,
          "midi": 36,
          "name": "C2",
          "ticks": 151296,
          "time": 147.75,
          "velocity": 0.3937007874015748
        },
        {
          "duration": 0.09375,
          "durationTicks": 96,
          "midi": 42,
          "name": "F#2",
          "ticks": 151296,
          "time": 147.75,
          "velocity": 0.3937007874015748
        },
        {
          "duration": 0.09375,
          "durationTicks": 96,
          "midi": 38,
          "name": "D2",
          "ticks": 151296,
          "time": 147.75,
          "velocity": 0.3937007874015748
        },
        {
          "duration": 0.09375,
          "durationTicks": 96,
          "midi": 35,
          "name": "B1",
          "ticks": 151296,
          "time": 147.75,
          "velocity": 0.3937007874015748
        },
        {
          "duration": 0.09375,
          "durationTicks": 96,
          "midi": 40,
          "name": "E2",
          "ticks": 151296,
          "time": 147.75,
          "velocity": 0.3937007874015748
        },
        {
          "duration": 0.09375,
          "durationTicks": 96,
          "midi": 35,
          "name": "B1",
          "ticks": 151392,
          "time": 147.84375,
          "velocity": 0.3937007874015748
        },
        {
          "duration": 0.09375,
          "durationTicks": 96,
          "midi": 42,
          "name": "F#2",
          "ticks": 151392,
          "time": 147.84375,
          "velocity": 0.3937007874015748
        },
        {
          "duration": 0.09375,
          "durationTicks": 96,
          "midi": 36,
          "name": "C2",
          "ticks": 151392,
          "time": 147.84375,
          "velocity": 0.3937007874015748
        },
        {
          "duration": 0.1875,
          "durationTicks": 192,
          "midi": 36,
          "name": "C2",
          "ticks": 151488,
          "time": 147.9375,
          "velocity": 0.3937007874015748
        },
        {
          "duration": 0.1875,
          "durationTicks": 192,
          "midi": 35,
          "name": "B1",
          "ticks": 151488,
          "time": 147.9375,
          "velocity": 0.3937007874015748
        },
        {
          "duration": 0.09375,
          "durationTicks": 96,
          "midi": 42,
          "name": "F#2",
          "ticks": 151488,
          "time": 147.9375,
          "velocity": 0.3937007874015748
        },
        {
          "duration": 0.09375,
          "durationTicks": 96,
          "midi": 42,
          "name": "F#2",
          "ticks": 151584,
          "time": 148.03125,
          "velocity": 0.3937007874015748
        },
        {
          "duration": 0.1875,
          "durationTicks": 192,
          "midi": 35,
          "name": "B1",
          "ticks": 151680,
          "time": 148.125,
          "velocity": 0.3937007874015748
        },
        {
          "duration": 0.1875,
          "durationTicks": 192,
          "midi": 35,
          "name": "B1",
          "ticks": 151872,
          "time": 148.3125,
          "velocity": 0.3937007874015748
        },
        {
          "duration": 0.09375,
          "durationTicks": 96,
          "midi": 38,
          "name": "D2",
          "ticks": 152064,
          "time": 148.5,
          "velocity": 0.3937007874015748
        },
        {
          "duration": 0.09375,
          "durationTicks": 96,
          "midi": 52,
          "name": "E3",
          "ticks": 152064,
          "time": 148.5,
          "velocity": 0.3937007874015748
        },
        {
          "duration": 0.09375,
          "durationTicks": 96,
          "midi": 40,
          "name": "E2",
          "ticks": 152064,
          "time": 148.5,
          "velocity": 0.3937007874015748
        },
        {
          "duration": 0.09375,
          "durationTicks": 96,
          "midi": 36,
          "name": "C2",
          "ticks": 152064,
          "time": 148.5,
          "velocity": 0.3937007874015748
        },
        {
          "duration": 0.09375,
          "durationTicks": 96,
          "midi": 38,
          "name": "D2",
          "ticks": 152256,
          "time": 148.6875,
          "velocity": 0.3937007874015748
        },
        {
          "duration": 0.09375,
          "durationTicks": 96,
          "midi": 40,
          "name": "E2",
          "ticks": 152256,
          "time": 148.6875,
          "velocity": 0.3937007874015748
        },
        {
          "duration": 0.09375,
          "durationTicks": 96,
          "midi": 36,
          "name": "C2",
          "ticks": 152256,
          "time": 148.6875,
          "velocity": 0.3937007874015748
        },
        {
          "duration": 0.09375,
          "durationTicks": 96,
          "midi": 52,
          "name": "E3",
          "ticks": 152256,
          "time": 148.6875,
          "velocity": 0.3937007874015748
        },
        {
          "duration": 0.09375,
          "durationTicks": 96,
          "midi": 40,
          "name": "E2",
          "ticks": 152640,
          "time": 149.0625,
          "velocity": 0.3937007874015748
        },
        {
          "duration": 0.09375,
          "durationTicks": 96,
          "midi": 36,
          "name": "C2",
          "ticks": 152640,
          "time": 149.0625,
          "velocity": 0.3937007874015748
        },
        {
          "duration": 0.09375,
          "durationTicks": 96,
          "midi": 38,
          "name": "D2",
          "ticks": 152640,
          "time": 149.0625,
          "velocity": 0.3937007874015748
        },
        {
          "duration": 0.09375,
          "durationTicks": 96,
          "midi": 52,
          "name": "E3",
          "ticks": 152640,
          "time": 149.0625,
          "velocity": 0.3937007874015748
        },
        {
          "duration": 0.09375,
          "durationTicks": 96,
          "midi": 40,
          "name": "E2",
          "ticks": 152832,
          "time": 149.25,
          "velocity": 0.3937007874015748
        },
        {
          "duration": 0.09375,
          "durationTicks": 96,
          "midi": 38,
          "name": "D2",
          "ticks": 152832,
          "time": 149.25,
          "velocity": 0.3937007874015748
        },
        {
          "duration": 0.09375,
          "durationTicks": 96,
          "midi": 52,
          "name": "E3",
          "ticks": 152832,
          "time": 149.25,
          "velocity": 0.3937007874015748
        },
        {
          "duration": 0.09375,
          "durationTicks": 96,
          "midi": 36,
          "name": "C2",
          "ticks": 152832,
          "time": 149.25,
          "velocity": 0.3937007874015748
        },
        {
          "duration": 0.09375,
          "durationTicks": 96,
          "midi": 38,
          "name": "D2",
          "ticks": 153216,
          "time": 149.625,
          "velocity": 0.3937007874015748
        },
        {
          "duration": 0.09375,
          "durationTicks": 96,
          "midi": 52,
          "name": "E3",
          "ticks": 153216,
          "time": 149.625,
          "velocity": 0.3937007874015748
        },
        {
          "duration": 0.09375,
          "durationTicks": 96,
          "midi": 40,
          "name": "E2",
          "ticks": 153216,
          "time": 149.625,
          "velocity": 0.3937007874015748
        },
        {
          "duration": 0.09375,
          "durationTicks": 96,
          "midi": 36,
          "name": "C2",
          "ticks": 153216,
          "time": 149.625,
          "velocity": 0.3937007874015748
        },
        {
          "duration": 0.09375,
          "durationTicks": 96,
          "midi": 38,
          "name": "D2",
          "ticks": 153408,
          "time": 149.8125,
          "velocity": 0.3937007874015748
        },
        {
          "duration": 0.09375,
          "durationTicks": 96,
          "midi": 40,
          "name": "E2",
          "ticks": 153408,
          "time": 149.8125,
          "velocity": 0.3937007874015748
        },
        {
          "duration": 0.09375,
          "durationTicks": 96,
          "midi": 36,
          "name": "C2",
          "ticks": 153408,
          "time": 149.8125,
          "velocity": 0.3937007874015748
        },
        {
          "duration": 0.09375,
          "durationTicks": 96,
          "midi": 52,
          "name": "E3",
          "ticks": 153408,
          "time": 149.8125,
          "velocity": 0.3937007874015748
        },
        {
          "duration": 0.09375,
          "durationTicks": 96,
          "midi": 38,
          "name": "D2",
          "ticks": 153792,
          "time": 150.1875,
          "velocity": 0.3937007874015748
        },
        {
          "duration": 0.09375,
          "durationTicks": 96,
          "midi": 40,
          "name": "E2",
          "ticks": 153792,
          "time": 150.1875,
          "velocity": 0.3937007874015748
        },
        {
          "duration": 0.09375,
          "durationTicks": 96,
          "midi": 36,
          "name": "C2",
          "ticks": 153792,
          "time": 150.1875,
          "velocity": 0.3937007874015748
        },
        {
          "duration": 0.09375,
          "durationTicks": 96,
          "midi": 52,
          "name": "E3",
          "ticks": 153792,
          "time": 150.1875,
          "velocity": 0.3937007874015748
        },
        {
          "duration": 0.09375,
          "durationTicks": 96,
          "midi": 38,
          "name": "D2",
          "ticks": 153984,
          "time": 150.375,
          "velocity": 0.3937007874015748
        },
        {
          "duration": 0.09375,
          "durationTicks": 96,
          "midi": 40,
          "name": "E2",
          "ticks": 153984,
          "time": 150.375,
          "velocity": 0.3937007874015748
        },
        {
          "duration": 0.09375,
          "durationTicks": 96,
          "midi": 36,
          "name": "C2",
          "ticks": 153984,
          "time": 150.375,
          "velocity": 0.3937007874015748
        },
        {
          "duration": 0.09375,
          "durationTicks": 96,
          "midi": 52,
          "name": "E3",
          "ticks": 153984,
          "time": 150.375,
          "velocity": 0.3937007874015748
        },
        {
          "duration": 0.09375,
          "durationTicks": 96,
          "midi": 38,
          "name": "D2",
          "ticks": 155136,
          "time": 151.5,
          "velocity": 0.3937007874015748
        },
        {
          "duration": 0.09375,
          "durationTicks": 96,
          "midi": 40,
          "name": "E2",
          "ticks": 155136,
          "time": 151.5,
          "velocity": 0.3937007874015748
        },
        {
          "duration": 0.09375,
          "durationTicks": 96,
          "midi": 52,
          "name": "E3",
          "ticks": 155136,
          "time": 151.5,
          "velocity": 0.3937007874015748
        },
        {
          "duration": 0.09375,
          "durationTicks": 96,
          "midi": 36,
          "name": "C2",
          "ticks": 155136,
          "time": 151.5,
          "velocity": 0.3937007874015748
        },
        {
          "duration": 0.09375,
          "durationTicks": 96,
          "midi": 40,
          "name": "E2",
          "ticks": 155328,
          "time": 151.6875,
          "velocity": 0.3937007874015748
        },
        {
          "duration": 0.09375,
          "durationTicks": 96,
          "midi": 36,
          "name": "C2",
          "ticks": 155328,
          "time": 151.6875,
          "velocity": 0.3937007874015748
        },
        {
          "duration": 0.09375,
          "durationTicks": 96,
          "midi": 38,
          "name": "D2",
          "ticks": 155328,
          "time": 151.6875,
          "velocity": 0.3937007874015748
        },
        {
          "duration": 0.09375,
          "durationTicks": 96,
          "midi": 52,
          "name": "E3",
          "ticks": 155328,
          "time": 151.6875,
          "velocity": 0.3937007874015748
        },
        {
          "duration": 0.09375,
          "durationTicks": 96,
          "midi": 40,
          "name": "E2",
          "ticks": 155712,
          "time": 152.0625,
          "velocity": 0.3937007874015748
        },
        {
          "duration": 0.09375,
          "durationTicks": 96,
          "midi": 38,
          "name": "D2",
          "ticks": 155712,
          "time": 152.0625,
          "velocity": 0.3937007874015748
        },
        {
          "duration": 0.09375,
          "durationTicks": 96,
          "midi": 52,
          "name": "E3",
          "ticks": 155712,
          "time": 152.0625,
          "velocity": 0.3937007874015748
        },
        {
          "duration": 0.09375,
          "durationTicks": 96,
          "midi": 36,
          "name": "C2",
          "ticks": 155712,
          "time": 152.0625,
          "velocity": 0.3937007874015748
        },
        {
          "duration": 0.09375,
          "durationTicks": 96,
          "midi": 36,
          "name": "C2",
          "ticks": 155904,
          "time": 152.25,
          "velocity": 0.3937007874015748
        },
        {
          "duration": 0.09375,
          "durationTicks": 96,
          "midi": 38,
          "name": "D2",
          "ticks": 155904,
          "time": 152.25,
          "velocity": 0.3937007874015748
        },
        {
          "duration": 0.09375,
          "durationTicks": 96,
          "midi": 40,
          "name": "E2",
          "ticks": 155904,
          "time": 152.25,
          "velocity": 0.3937007874015748
        },
        {
          "duration": 0.09375,
          "durationTicks": 96,
          "midi": 52,
          "name": "E3",
          "ticks": 155904,
          "time": 152.25,
          "velocity": 0.3937007874015748
        },
        {
          "duration": 0.09375,
          "durationTicks": 96,
          "midi": 52,
          "name": "E3",
          "ticks": 156288,
          "time": 152.625,
          "velocity": 0.3937007874015748
        },
        {
          "duration": 0.09375,
          "durationTicks": 96,
          "midi": 38,
          "name": "D2",
          "ticks": 156288,
          "time": 152.625,
          "velocity": 0.3937007874015748
        },
        {
          "duration": 0.09375,
          "durationTicks": 96,
          "midi": 40,
          "name": "E2",
          "ticks": 156288,
          "time": 152.625,
          "velocity": 0.3937007874015748
        },
        {
          "duration": 0.09375,
          "durationTicks": 96,
          "midi": 36,
          "name": "C2",
          "ticks": 156288,
          "time": 152.625,
          "velocity": 0.3937007874015748
        },
        {
          "duration": 0.09375,
          "durationTicks": 96,
          "midi": 40,
          "name": "E2",
          "ticks": 156480,
          "time": 152.8125,
          "velocity": 0.3937007874015748
        },
        {
          "duration": 0.09375,
          "durationTicks": 96,
          "midi": 38,
          "name": "D2",
          "ticks": 156480,
          "time": 152.8125,
          "velocity": 0.3937007874015748
        },
        {
          "duration": 0.09375,
          "durationTicks": 96,
          "midi": 36,
          "name": "C2",
          "ticks": 156480,
          "time": 152.8125,
          "velocity": 0.3937007874015748
        },
        {
          "duration": 0.09375,
          "durationTicks": 96,
          "midi": 52,
          "name": "E3",
          "ticks": 156480,
          "time": 152.8125,
          "velocity": 0.3937007874015748
        },
        {
          "duration": 0.09375,
          "durationTicks": 96,
          "midi": 38,
          "name": "D2",
          "ticks": 156864,
          "time": 153.1875,
          "velocity": 0.3937007874015748
        },
        {
          "duration": 0.09375,
          "durationTicks": 96,
          "midi": 36,
          "name": "C2",
          "ticks": 156864,
          "time": 153.1875,
          "velocity": 0.3937007874015748
        },
        {
          "duration": 0.09375,
          "durationTicks": 96,
          "midi": 52,
          "name": "E3",
          "ticks": 156864,
          "time": 153.1875,
          "velocity": 0.3937007874015748
        },
        {
          "duration": 0.09375,
          "durationTicks": 96,
          "midi": 40,
          "name": "E2",
          "ticks": 156864,
          "time": 153.1875,
          "velocity": 0.3937007874015748
        },
        {
          "duration": 0.09375,
          "durationTicks": 96,
          "midi": 52,
          "name": "E3",
          "ticks": 157056,
          "time": 153.375,
          "velocity": 0.3937007874015748
        },
        {
          "duration": 0.09375,
          "durationTicks": 96,
          "midi": 38,
          "name": "D2",
          "ticks": 157056,
          "time": 153.375,
          "velocity": 0.3937007874015748
        },
        {
          "duration": 0.09375,
          "durationTicks": 96,
          "midi": 40,
          "name": "E2",
          "ticks": 157056,
          "time": 153.375,
          "velocity": 0.3937007874015748
        },
        {
          "duration": 0.09375,
          "durationTicks": 96,
          "midi": 36,
          "name": "C2",
          "ticks": 157056,
          "time": 153.375,
          "velocity": 0.3937007874015748
        },
        {
          "duration": 0.09375,
          "durationTicks": 96,
          "midi": 38,
          "name": "D2",
          "ticks": 158976,
          "time": 155.25,
          "velocity": 0.3937007874015748
        },
        {
          "duration": 0.09375,
          "durationTicks": 96,
          "midi": 40,
          "name": "E2",
          "ticks": 158976,
          "time": 155.25,
          "velocity": 0.3937007874015748
        },
        {
          "duration": 0.09375,
          "durationTicks": 96,
          "midi": 38,
          "name": "D2",
          "ticks": 159072,
          "time": 155.34375,
          "velocity": 0.3937007874015748
        },
        {
          "duration": 0.09375,
          "durationTicks": 96,
          "midi": 36,
          "name": "C2",
          "ticks": 159168,
          "time": 155.4375,
          "velocity": 0.3937007874015748
        },
        {
          "duration": 0.09375,
          "durationTicks": 96,
          "midi": 35,
          "name": "B1",
          "ticks": 159168,
          "time": 155.4375,
          "velocity": 0.3937007874015748
        },
        {
          "duration": 0.09375,
          "durationTicks": 96,
          "midi": 36,
          "name": "C2",
          "ticks": 159264,
          "time": 155.53125,
          "velocity": 0.3937007874015748
        },
        {
          "duration": 0.09375,
          "durationTicks": 96,
          "midi": 35,
          "name": "B1",
          "ticks": 159264,
          "time": 155.53125,
          "velocity": 0.3937007874015748
        },
        {
          "duration": 0.09375,
          "durationTicks": 96,
          "midi": 40,
          "name": "E2",
          "ticks": 159360,
          "time": 155.625,
          "velocity": 0.3937007874015748
        },
        {
          "duration": 0.09375,
          "durationTicks": 96,
          "midi": 38,
          "name": "D2",
          "ticks": 159360,
          "time": 155.625,
          "velocity": 0.3937007874015748
        },
        {
          "duration": 0.09375,
          "durationTicks": 96,
          "midi": 38,
          "name": "D2",
          "ticks": 159456,
          "time": 155.71875,
          "velocity": 0.3937007874015748
        },
        {
          "duration": 0.09375,
          "durationTicks": 96,
          "midi": 36,
          "name": "C2",
          "ticks": 159552,
          "time": 155.8125,
          "velocity": 0.3937007874015748
        },
        {
          "duration": 0.09375,
          "durationTicks": 96,
          "midi": 35,
          "name": "B1",
          "ticks": 159552,
          "time": 155.8125,
          "velocity": 0.3937007874015748
        },
        {
          "duration": 0.09375,
          "durationTicks": 96,
          "midi": 35,
          "name": "B1",
          "ticks": 159648,
          "time": 155.90625,
          "velocity": 0.3937007874015748
        },
        {
          "duration": 0.09375,
          "durationTicks": 96,
          "midi": 36,
          "name": "C2",
          "ticks": 159648,
          "time": 155.90625,
          "velocity": 0.3937007874015748
        },
        {
          "duration": 0.1875,
          "durationTicks": 192,
          "midi": 36,
          "name": "C2",
          "ticks": 159744,
          "time": 156,
          "velocity": 0.3937007874015748
        },
        {
          "duration": 0.09375,
          "durationTicks": 96,
          "midi": 46,
          "name": "A#2",
          "ticks": 159744,
          "time": 156,
          "velocity": 0.3937007874015748
        },
        {
          "duration": 0.1875,
          "durationTicks": 192,
          "midi": 35,
          "name": "B1",
          "ticks": 159744,
          "time": 156,
          "velocity": 0.3937007874015748
        },
        {
          "duration": 0.09375,
          "durationTicks": 96,
          "midi": 46,
          "name": "A#2",
          "ticks": 159744,
          "time": 156,
          "velocity": 0.3937007874015748
        },
        {
          "duration": 0.1875,
          "durationTicks": 192,
          "midi": 57,
          "name": "A3",
          "ticks": 159744,
          "time": 156,
          "velocity": 0.3937007874015748
        },
        {
          "duration": 0.1875,
          "durationTicks": 192,
          "midi": 44,
          "name": "G#2",
          "ticks": 159744,
          "time": 156,
          "velocity": 0.3937007874015748
        },
        {
          "duration": 0.1875,
          "durationTicks": 192,
          "midi": 44,
          "name": "G#2",
          "ticks": 159744,
          "time": 156,
          "velocity": 0.3937007874015748
        },
        {
          "duration": 0.09375,
          "durationTicks": 96,
          "midi": 52,
          "name": "E3",
          "ticks": 159744,
          "time": 156,
          "velocity": 0.3937007874015748
        },
        {
          "duration": 0.09375,
          "durationTicks": 96,
          "midi": 36,
          "name": "C2",
          "ticks": 159936,
          "time": 156.1875,
          "velocity": 0.3937007874015748
        },
        {
          "duration": 0.1875,
          "durationTicks": 192,
          "midi": 44,
          "name": "G#2",
          "ticks": 159936,
          "time": 156.1875,
          "velocity": 0.3937007874015748
        },
        {
          "duration": 0.09375,
          "durationTicks": 96,
          "midi": 38,
          "name": "D2",
          "ticks": 160128,
          "time": 156.375,
          "velocity": 0.3937007874015748
        },
        {
          "duration": 0.1875,
          "durationTicks": 192,
          "midi": 44,
          "name": "G#2",
          "ticks": 160128,
          "time": 156.375,
          "velocity": 0.3937007874015748
        },
        {
          "duration": 0.1875,
          "durationTicks": 192,
          "midi": 57,
          "name": "A3",
          "ticks": 160128,
          "time": 156.375,
          "velocity": 0.3937007874015748
        },
        {
          "duration": 0.1875,
          "durationTicks": 192,
          "midi": 35,
          "name": "B1",
          "ticks": 160128,
          "time": 156.375,
          "velocity": 0.3937007874015748
        },
        {
          "duration": 0.1875,
          "durationTicks": 192,
          "midi": 36,
          "name": "C2",
          "ticks": 160128,
          "time": 156.375,
          "velocity": 0.3937007874015748
        },
        {
          "duration": 0.09375,
          "durationTicks": 96,
          "midi": 40,
          "name": "E2",
          "ticks": 160128,
          "time": 156.375,
          "velocity": 0.3937007874015748
        },
        {
          "duration": 0.1875,
          "durationTicks": 192,
          "midi": 44,
          "name": "G#2",
          "ticks": 160128,
          "time": 156.375,
          "velocity": 0.3937007874015748
        },
        {
          "duration": 0.09375,
          "durationTicks": 96,
          "midi": 36,
          "name": "C2",
          "ticks": 160320,
          "time": 156.5625,
          "velocity": 0.3937007874015748
        },
        {
          "duration": 0.1875,
          "durationTicks": 192,
          "midi": 44,
          "name": "G#2",
          "ticks": 160320,
          "time": 156.5625,
          "velocity": 0.3937007874015748
        },
        {
          "duration": 0.1875,
          "durationTicks": 192,
          "midi": 44,
          "name": "G#2",
          "ticks": 160512,
          "time": 156.75,
          "velocity": 0.3937007874015748
        },
        {
          "duration": 0.1875,
          "durationTicks": 192,
          "midi": 36,
          "name": "C2",
          "ticks": 160512,
          "time": 156.75,
          "velocity": 0.3937007874015748
        },
        {
          "duration": 0.1875,
          "durationTicks": 192,
          "midi": 35,
          "name": "B1",
          "ticks": 160512,
          "time": 156.75,
          "velocity": 0.3937007874015748
        },
        {
          "duration": 0.1875,
          "durationTicks": 192,
          "midi": 44,
          "name": "G#2",
          "ticks": 160512,
          "time": 156.75,
          "velocity": 0.3937007874015748
        },
        {
          "duration": 0.1875,
          "durationTicks": 192,
          "midi": 57,
          "name": "A3",
          "ticks": 160512,
          "time": 156.75,
          "velocity": 0.3937007874015748
        },
        {
          "duration": 0.09375,
          "durationTicks": 96,
          "midi": 36,
          "name": "C2",
          "ticks": 160704,
          "time": 156.9375,
          "velocity": 0.3937007874015748
        },
        {
          "duration": 0.1875,
          "durationTicks": 192,
          "midi": 44,
          "name": "G#2",
          "ticks": 160704,
          "time": 156.9375,
          "velocity": 0.3937007874015748
        },
        {
          "duration": 0.1875,
          "durationTicks": 192,
          "midi": 36,
          "name": "C2",
          "ticks": 160896,
          "time": 157.125,
          "velocity": 0.3937007874015748
        },
        {
          "duration": 0.09375,
          "durationTicks": 96,
          "midi": 40,
          "name": "E2",
          "ticks": 160896,
          "time": 157.125,
          "velocity": 0.3937007874015748
        },
        {
          "duration": 0.1875,
          "durationTicks": 192,
          "midi": 44,
          "name": "G#2",
          "ticks": 160896,
          "time": 157.125,
          "velocity": 0.3937007874015748
        },
        {
          "duration": 0.1875,
          "durationTicks": 192,
          "midi": 57,
          "name": "A3",
          "ticks": 160896,
          "time": 157.125,
          "velocity": 0.3937007874015748
        },
        {
          "duration": 0.1875,
          "durationTicks": 192,
          "midi": 44,
          "name": "G#2",
          "ticks": 160896,
          "time": 157.125,
          "velocity": 0.3937007874015748
        },
        {
          "duration": 0.09375,
          "durationTicks": 96,
          "midi": 38,
          "name": "D2",
          "ticks": 160896,
          "time": 157.125,
          "velocity": 0.3937007874015748
        },
        {
          "duration": 0.1875,
          "durationTicks": 192,
          "midi": 35,
          "name": "B1",
          "ticks": 160896,
          "time": 157.125,
          "velocity": 0.3937007874015748
        },
        {
          "duration": 0.09375,
          "durationTicks": 96,
          "midi": 36,
          "name": "C2",
          "ticks": 161088,
          "time": 157.3125,
          "velocity": 0.3937007874015748
        },
        {
          "duration": 0.1875,
          "durationTicks": 192,
          "midi": 44,
          "name": "G#2",
          "ticks": 161088,
          "time": 157.3125,
          "velocity": 0.3937007874015748
        },
        {
          "duration": 0.09375,
          "durationTicks": 96,
          "midi": 52,
          "name": "E3",
          "ticks": 161280,
          "time": 157.5,
          "velocity": 0.3937007874015748
        },
        {
          "duration": 0.1875,
          "durationTicks": 192,
          "midi": 44,
          "name": "G#2",
          "ticks": 161280,
          "time": 157.5,
          "velocity": 0.3937007874015748
        },
        {
          "duration": 0.1875,
          "durationTicks": 192,
          "midi": 36,
          "name": "C2",
          "ticks": 161280,
          "time": 157.5,
          "velocity": 0.3937007874015748
        },
        {
          "duration": 0.1875,
          "durationTicks": 192,
          "midi": 35,
          "name": "B1",
          "ticks": 161280,
          "time": 157.5,
          "velocity": 0.3937007874015748
        },
        {
          "duration": 0.1875,
          "durationTicks": 192,
          "midi": 44,
          "name": "G#2",
          "ticks": 161280,
          "time": 157.5,
          "velocity": 0.3937007874015748
        },
        {
          "duration": 0.09375,
          "durationTicks": 96,
          "midi": 46,
          "name": "A#2",
          "ticks": 161280,
          "time": 157.5,
          "velocity": 0.3937007874015748
        },
        {
          "duration": 0.09375,
          "durationTicks": 96,
          "midi": 46,
          "name": "A#2",
          "ticks": 161280,
          "time": 157.5,
          "velocity": 0.3937007874015748
        },
        {
          "duration": 0.1875,
          "durationTicks": 192,
          "midi": 57,
          "name": "A3",
          "ticks": 161280,
          "time": 157.5,
          "velocity": 0.3937007874015748
        },
        {
          "duration": 0.1875,
          "durationTicks": 192,
          "midi": 44,
          "name": "G#2",
          "ticks": 161472,
          "time": 157.6875,
          "velocity": 0.3937007874015748
        },
        {
          "duration": 0.09375,
          "durationTicks": 96,
          "midi": 36,
          "name": "C2",
          "ticks": 161472,
          "time": 157.6875,
          "velocity": 0.3937007874015748
        },
        {
          "duration": 0.09375,
          "durationTicks": 96,
          "midi": 38,
          "name": "D2",
          "ticks": 161664,
          "time": 157.875,
          "velocity": 0.3937007874015748
        },
        {
          "duration": 0.09375,
          "durationTicks": 96,
          "midi": 40,
          "name": "E2",
          "ticks": 161664,
          "time": 157.875,
          "velocity": 0.3937007874015748
        },
        {
          "duration": 0.1875,
          "durationTicks": 192,
          "midi": 44,
          "name": "G#2",
          "ticks": 161664,
          "time": 157.875,
          "velocity": 0.3937007874015748
        },
        {
          "duration": 0.1875,
          "durationTicks": 192,
          "midi": 35,
          "name": "B1",
          "ticks": 161664,
          "time": 157.875,
          "velocity": 0.3937007874015748
        },
        {
          "duration": 0.1875,
          "durationTicks": 192,
          "midi": 36,
          "name": "C2",
          "ticks": 161664,
          "time": 157.875,
          "velocity": 0.3937007874015748
        },
        {
          "duration": 0.1875,
          "durationTicks": 192,
          "midi": 57,
          "name": "A3",
          "ticks": 161664,
          "time": 157.875,
          "velocity": 0.3937007874015748
        },
        {
          "duration": 0.1875,
          "durationTicks": 192,
          "midi": 44,
          "name": "G#2",
          "ticks": 161664,
          "time": 157.875,
          "velocity": 0.3937007874015748
        },
        {
          "duration": 0.1875,
          "durationTicks": 192,
          "midi": 44,
          "name": "G#2",
          "ticks": 161856,
          "time": 158.0625,
          "velocity": 0.3937007874015748
        },
        {
          "duration": 0.09375,
          "durationTicks": 96,
          "midi": 36,
          "name": "C2",
          "ticks": 161856,
          "time": 158.0625,
          "velocity": 0.3937007874015748
        },
        {
          "duration": 0.09375,
          "durationTicks": 96,
          "midi": 38,
          "name": "D2",
          "ticks": 161952,
          "time": 158.15625,
          "velocity": 0.3937007874015748
        },
        {
          "duration": 0.1875,
          "durationTicks": 192,
          "midi": 35,
          "name": "B1",
          "ticks": 162048,
          "time": 158.25,
          "velocity": 0.3937007874015748
        },
        {
          "duration": 0.1875,
          "durationTicks": 192,
          "midi": 57,
          "name": "A3",
          "ticks": 162048,
          "time": 158.25,
          "velocity": 0.3937007874015748
        },
        {
          "duration": 0.1875,
          "durationTicks": 192,
          "midi": 36,
          "name": "C2",
          "ticks": 162048,
          "time": 158.25,
          "velocity": 0.3937007874015748
        },
        {
          "duration": 0.1875,
          "durationTicks": 192,
          "midi": 44,
          "name": "G#2",
          "ticks": 162048,
          "time": 158.25,
          "velocity": 0.3937007874015748
        },
        {
          "duration": 0.1875,
          "durationTicks": 192,
          "midi": 44,
          "name": "G#2",
          "ticks": 162048,
          "time": 158.25,
          "velocity": 0.3937007874015748
        },
        {
          "duration": 0.09375,
          "durationTicks": 96,
          "midi": 38,
          "name": "D2",
          "ticks": 162144,
          "time": 158.34375,
          "velocity": 0.3937007874015748
        },
        {
          "duration": 0.1875,
          "durationTicks": 192,
          "midi": 44,
          "name": "G#2",
          "ticks": 162240,
          "time": 158.4375,
          "velocity": 0.3937007874015748
        },
        {
          "duration": 0.09375,
          "durationTicks": 96,
          "midi": 38,
          "name": "D2",
          "ticks": 162336,
          "time": 158.53125,
          "velocity": 0.3937007874015748
        },
        {
          "duration": 0.1875,
          "durationTicks": 192,
          "midi": 44,
          "name": "G#2",
          "ticks": 162432,
          "time": 158.625,
          "velocity": 0.3937007874015748
        },
        {
          "duration": 0.09375,
          "durationTicks": 96,
          "midi": 38,
          "name": "D2",
          "ticks": 162432,
          "time": 158.625,
          "velocity": 0.3937007874015748
        },
        {
          "duration": 0.1875,
          "durationTicks": 192,
          "midi": 57,
          "name": "A3",
          "ticks": 162432,
          "time": 158.625,
          "velocity": 0.3937007874015748
        },
        {
          "duration": 0.1875,
          "durationTicks": 192,
          "midi": 36,
          "name": "C2",
          "ticks": 162432,
          "time": 158.625,
          "velocity": 0.3937007874015748
        },
        {
          "duration": 0.09375,
          "durationTicks": 96,
          "midi": 40,
          "name": "E2",
          "ticks": 162432,
          "time": 158.625,
          "velocity": 0.3937007874015748
        },
        {
          "duration": 0.1875,
          "durationTicks": 192,
          "midi": 44,
          "name": "G#2",
          "ticks": 162432,
          "time": 158.625,
          "velocity": 0.3937007874015748
        },
        {
          "duration": 0.1875,
          "durationTicks": 192,
          "midi": 35,
          "name": "B1",
          "ticks": 162432,
          "time": 158.625,
          "velocity": 0.3937007874015748
        },
        {
          "duration": 0.1875,
          "durationTicks": 192,
          "midi": 44,
          "name": "G#2",
          "ticks": 162624,
          "time": 158.8125,
          "velocity": 0.3937007874015748
        },
        {
          "duration": 0.09375,
          "durationTicks": 96,
          "midi": 38,
          "name": "D2",
          "ticks": 162624,
          "time": 158.8125,
          "velocity": 0.3937007874015748
        },
        {
          "duration": 0.1875,
          "durationTicks": 192,
          "midi": 44,
          "name": "G#2",
          "ticks": 162816,
          "time": 159,
          "velocity": 0.3937007874015748
        },
        {
          "duration": 0.1875,
          "durationTicks": 192,
          "midi": 44,
          "name": "G#2",
          "ticks": 162816,
          "time": 159,
          "velocity": 0.3937007874015748
        },
        {
          "duration": 0.09375,
          "durationTicks": 96,
          "midi": 46,
          "name": "A#2",
          "ticks": 162816,
          "time": 159,
          "velocity": 0.3937007874015748
        },
        {
          "duration": 0.09375,
          "durationTicks": 96,
          "midi": 46,
          "name": "A#2",
          "ticks": 162816,
          "time": 159,
          "velocity": 0.3937007874015748
        },
        {
          "duration": 0.1875,
          "durationTicks": 192,
          "midi": 36,
          "name": "C2",
          "ticks": 162816,
          "time": 159,
          "velocity": 0.3937007874015748
        },
        {
          "duration": 0.1875,
          "durationTicks": 192,
          "midi": 57,
          "name": "A3",
          "ticks": 162816,
          "time": 159,
          "velocity": 0.3937007874015748
        },
        {
          "duration": 0.1875,
          "durationTicks": 192,
          "midi": 35,
          "name": "B1",
          "ticks": 162816,
          "time": 159,
          "velocity": 0.3937007874015748
        },
        {
          "duration": 0.09375,
          "durationTicks": 96,
          "midi": 52,
          "name": "E3",
          "ticks": 162816,
          "time": 159,
          "velocity": 0.3937007874015748
        },
        {
          "duration": 0.1875,
          "durationTicks": 192,
          "midi": 44,
          "name": "G#2",
          "ticks": 163008,
          "time": 159.1875,
          "velocity": 0.3937007874015748
        },
        {
          "duration": 0.09375,
          "durationTicks": 96,
          "midi": 36,
          "name": "C2",
          "ticks": 163008,
          "time": 159.1875,
          "velocity": 0.3937007874015748
        },
        {
          "duration": 0.1875,
          "durationTicks": 192,
          "midi": 36,
          "name": "C2",
          "ticks": 163200,
          "time": 159.375,
          "velocity": 0.3937007874015748
        },
        {
          "duration": 0.1875,
          "durationTicks": 192,
          "midi": 57,
          "name": "A3",
          "ticks": 163200,
          "time": 159.375,
          "velocity": 0.3937007874015748
        },
        {
          "duration": 0.1875,
          "durationTicks": 192,
          "midi": 35,
          "name": "B1",
          "ticks": 163200,
          "time": 159.375,
          "velocity": 0.3937007874015748
        },
        {
          "duration": 0.09375,
          "durationTicks": 96,
          "midi": 40,
          "name": "E2",
          "ticks": 163200,
          "time": 159.375,
          "velocity": 0.3937007874015748
        },
        {
          "duration": 0.1875,
          "durationTicks": 192,
          "midi": 44,
          "name": "G#2",
          "ticks": 163200,
          "time": 159.375,
          "velocity": 0.3937007874015748
        },
        {
          "duration": 0.1875,
          "durationTicks": 192,
          "midi": 44,
          "name": "G#2",
          "ticks": 163200,
          "time": 159.375,
          "velocity": 0.3937007874015748
        },
        {
          "duration": 0.09375,
          "durationTicks": 96,
          "midi": 38,
          "name": "D2",
          "ticks": 163200,
          "time": 159.375,
          "velocity": 0.3937007874015748
        },
        {
          "duration": 0.09375,
          "durationTicks": 96,
          "midi": 36,
          "name": "C2",
          "ticks": 163392,
          "time": 159.5625,
          "velocity": 0.3937007874015748
        },
        {
          "duration": 0.1875,
          "durationTicks": 192,
          "midi": 44,
          "name": "G#2",
          "ticks": 163392,
          "time": 159.5625,
          "velocity": 0.3937007874015748
        },
        {
          "duration": 0.1875,
          "durationTicks": 192,
          "midi": 44,
          "name": "G#2",
          "ticks": 163584,
          "time": 159.75,
          "velocity": 0.3937007874015748
        },
        {
          "duration": 0.1875,
          "durationTicks": 192,
          "midi": 57,
          "name": "A3",
          "ticks": 163584,
          "time": 159.75,
          "velocity": 0.3937007874015748
        },
        {
          "duration": 0.1875,
          "durationTicks": 192,
          "midi": 36,
          "name": "C2",
          "ticks": 163584,
          "time": 159.75,
          "velocity": 0.3937007874015748
        },
        {
          "duration": 0.1875,
          "durationTicks": 192,
          "midi": 35,
          "name": "B1",
          "ticks": 163584,
          "time": 159.75,
          "velocity": 0.3937007874015748
        },
        {
          "duration": 0.1875,
          "durationTicks": 192,
          "midi": 44,
          "name": "G#2",
          "ticks": 163584,
          "time": 159.75,
          "velocity": 0.3937007874015748
        },
        {
          "duration": 0.09375,
          "durationTicks": 96,
          "midi": 36,
          "name": "C2",
          "ticks": 163776,
          "time": 159.9375,
          "velocity": 0.3937007874015748
        },
        {
          "duration": 0.1875,
          "durationTicks": 192,
          "midi": 44,
          "name": "G#2",
          "ticks": 163776,
          "time": 159.9375,
          "velocity": 0.3937007874015748
        },
        {
          "duration": 0.1875,
          "durationTicks": 192,
          "midi": 44,
          "name": "G#2",
          "ticks": 163968,
          "time": 160.125,
          "velocity": 0.3937007874015748
        },
        {
          "duration": 0.1875,
          "durationTicks": 192,
          "midi": 44,
          "name": "G#2",
          "ticks": 163968,
          "time": 160.125,
          "velocity": 0.3937007874015748
        },
        {
          "duration": 0.09375,
          "durationTicks": 96,
          "midi": 38,
          "name": "D2",
          "ticks": 163968,
          "time": 160.125,
          "velocity": 0.3937007874015748
        },
        {
          "duration": 0.1875,
          "durationTicks": 192,
          "midi": 36,
          "name": "C2",
          "ticks": 163968,
          "time": 160.125,
          "velocity": 0.3937007874015748
        },
        {
          "duration": 0.1875,
          "durationTicks": 192,
          "midi": 57,
          "name": "A3",
          "ticks": 163968,
          "time": 160.125,
          "velocity": 0.3937007874015748
        },
        {
          "duration": 0.1875,
          "durationTicks": 192,
          "midi": 35,
          "name": "B1",
          "ticks": 163968,
          "time": 160.125,
          "velocity": 0.3937007874015748
        },
        {
          "duration": 0.09375,
          "durationTicks": 96,
          "midi": 40,
          "name": "E2",
          "ticks": 163968,
          "time": 160.125,
          "velocity": 0.3937007874015748
        },
        {
          "duration": 0.09375,
          "durationTicks": 96,
          "midi": 36,
          "name": "C2",
          "ticks": 164160,
          "time": 160.3125,
          "velocity": 0.3937007874015748
        },
        {
          "duration": 0.1875,
          "durationTicks": 192,
          "midi": 44,
          "name": "G#2",
          "ticks": 164160,
          "time": 160.3125,
          "velocity": 0.3937007874015748
        },
        {
          "duration": 0.1875,
          "durationTicks": 192,
          "midi": 35,
          "name": "B1",
          "ticks": 164352,
          "time": 160.5,
          "velocity": 0.3937007874015748
        },
        {
          "duration": 0.09375,
          "durationTicks": 96,
          "midi": 52,
          "name": "E3",
          "ticks": 164352,
          "time": 160.5,
          "velocity": 0.3937007874015748
        },
        {
          "duration": 0.1875,
          "durationTicks": 192,
          "midi": 44,
          "name": "G#2",
          "ticks": 164352,
          "time": 160.5,
          "velocity": 0.3937007874015748
        },
        {
          "duration": 0.09375,
          "durationTicks": 96,
          "midi": 46,
          "name": "A#2",
          "ticks": 164352,
          "time": 160.5,
          "velocity": 0.3937007874015748
        },
        {
          "duration": 0.1875,
          "durationTicks": 192,
          "midi": 36,
          "name": "C2",
          "ticks": 164352,
          "time": 160.5,
          "velocity": 0.3937007874015748
        },
        {
          "duration": 0.1875,
          "durationTicks": 192,
          "midi": 57,
          "name": "A3",
          "ticks": 164352,
          "time": 160.5,
          "velocity": 0.3937007874015748
        },
        {
          "duration": 0.1875,
          "durationTicks": 192,
          "midi": 44,
          "name": "G#2",
          "ticks": 164352,
          "time": 160.5,
          "velocity": 0.3937007874015748
        },
        {
          "duration": 0.09375,
          "durationTicks": 96,
          "midi": 36,
          "name": "C2",
          "ticks": 164544,
          "time": 160.6875,
          "velocity": 0.3937007874015748
        },
        {
          "duration": 0.1875,
          "durationTicks": 192,
          "midi": 44,
          "name": "G#2",
          "ticks": 164544,
          "time": 160.6875,
          "velocity": 0.3937007874015748
        },
        {
          "duration": 0.09375,
          "durationTicks": 96,
          "midi": 38,
          "name": "D2",
          "ticks": 164736,
          "time": 160.875,
          "velocity": 0.3937007874015748
        },
        {
          "duration": 0.1875,
          "durationTicks": 192,
          "midi": 57,
          "name": "A3",
          "ticks": 164736,
          "time": 160.875,
          "velocity": 0.3937007874015748
        },
        {
          "duration": 0.09375,
          "durationTicks": 96,
          "midi": 40,
          "name": "E2",
          "ticks": 164736,
          "time": 160.875,
          "velocity": 0.3937007874015748
        },
        {
          "duration": 0.1875,
          "durationTicks": 192,
          "midi": 44,
          "name": "G#2",
          "ticks": 164736,
          "time": 160.875,
          "velocity": 0.3937007874015748
        },
        {
          "duration": 0.1875,
          "durationTicks": 192,
          "midi": 44,
          "name": "G#2",
          "ticks": 164736,
          "time": 160.875,
          "velocity": 0.3937007874015748
        },
        {
          "duration": 0.1875,
          "durationTicks": 192,
          "midi": 36,
          "name": "C2",
          "ticks": 164736,
          "time": 160.875,
          "velocity": 0.3937007874015748
        },
        {
          "duration": 0.1875,
          "durationTicks": 192,
          "midi": 35,
          "name": "B1",
          "ticks": 164736,
          "time": 160.875,
          "velocity": 0.3937007874015748
        },
        {
          "duration": 0.1875,
          "durationTicks": 192,
          "midi": 44,
          "name": "G#2",
          "ticks": 164928,
          "time": 161.0625,
          "velocity": 0.3937007874015748
        },
        {
          "duration": 0.09375,
          "durationTicks": 96,
          "midi": 36,
          "name": "C2",
          "ticks": 164928,
          "time": 161.0625,
          "velocity": 0.3937007874015748
        },
        {
          "duration": 0.09375,
          "durationTicks": 96,
          "midi": 38,
          "name": "D2",
          "ticks": 165024,
          "time": 161.15625,
          "velocity": 0.3937007874015748
        },
        {
          "duration": 0.1875,
          "durationTicks": 192,
          "midi": 57,
          "name": "A3",
          "ticks": 165120,
          "time": 161.25,
          "velocity": 0.3937007874015748
        },
        {
          "duration": 0.1875,
          "durationTicks": 192,
          "midi": 44,
          "name": "G#2",
          "ticks": 165120,
          "time": 161.25,
          "velocity": 0.3937007874015748
        },
        {
          "duration": 0.1875,
          "durationTicks": 192,
          "midi": 44,
          "name": "G#2",
          "ticks": 165120,
          "time": 161.25,
          "velocity": 0.3937007874015748
        },
        {
          "duration": 0.1875,
          "durationTicks": 192,
          "midi": 35,
          "name": "B1",
          "ticks": 165120,
          "time": 161.25,
          "velocity": 0.3937007874015748
        },
        {
          "duration": 0.1875,
          "durationTicks": 192,
          "midi": 36,
          "name": "C2",
          "ticks": 165120,
          "time": 161.25,
          "velocity": 0.3937007874015748
        },
        {
          "duration": 0.09375,
          "durationTicks": 96,
          "midi": 38,
          "name": "D2",
          "ticks": 165216,
          "time": 161.34375,
          "velocity": 0.3937007874015748
        },
        {
          "duration": 0.1875,
          "durationTicks": 192,
          "midi": 44,
          "name": "G#2",
          "ticks": 165312,
          "time": 161.4375,
          "velocity": 0.3937007874015748
        },
        {
          "duration": 0.09375,
          "durationTicks": 96,
          "midi": 38,
          "name": "D2",
          "ticks": 165408,
          "time": 161.53125,
          "velocity": 0.3937007874015748
        },
        {
          "duration": 0.1875,
          "durationTicks": 192,
          "midi": 44,
          "name": "G#2",
          "ticks": 165504,
          "time": 161.625,
          "velocity": 0.3937007874015748
        },
        {
          "duration": 0.09375,
          "durationTicks": 96,
          "midi": 38,
          "name": "D2",
          "ticks": 165504,
          "time": 161.625,
          "velocity": 0.3937007874015748
        },
        {
          "duration": 0.09375,
          "durationTicks": 96,
          "midi": 40,
          "name": "E2",
          "ticks": 165504,
          "time": 161.625,
          "velocity": 0.3937007874015748
        },
        {
          "duration": 0.1875,
          "durationTicks": 192,
          "midi": 36,
          "name": "C2",
          "ticks": 165504,
          "time": 161.625,
          "velocity": 0.3937007874015748
        },
        {
          "duration": 0.1875,
          "durationTicks": 192,
          "midi": 35,
          "name": "B1",
          "ticks": 165504,
          "time": 161.625,
          "velocity": 0.3937007874015748
        },
        {
          "duration": 0.1875,
          "durationTicks": 192,
          "midi": 57,
          "name": "A3",
          "ticks": 165504,
          "time": 161.625,
          "velocity": 0.3937007874015748
        },
        {
          "duration": 0.1875,
          "durationTicks": 192,
          "midi": 44,
          "name": "G#2",
          "ticks": 165504,
          "time": 161.625,
          "velocity": 0.3937007874015748
        },
        {
          "duration": 0.09375,
          "durationTicks": 96,
          "midi": 38,
          "name": "D2",
          "ticks": 165696,
          "time": 161.8125,
          "velocity": 0.3937007874015748
        },
        {
          "duration": 0.1875,
          "durationTicks": 192,
          "midi": 44,
          "name": "G#2",
          "ticks": 165696,
          "time": 161.8125,
          "velocity": 0.3937007874015748
        },
        {
          "duration": 0.09375,
          "durationTicks": 96,
          "midi": 46,
          "name": "A#2",
          "ticks": 165888,
          "time": 162,
          "velocity": 0.3937007874015748
        },
        {
          "duration": 0.1875,
          "durationTicks": 192,
          "midi": 44,
          "name": "G#2",
          "ticks": 165888,
          "time": 162,
          "velocity": 0.3937007874015748
        },
        {
          "duration": 0.09375,
          "durationTicks": 96,
          "midi": 46,
          "name": "A#2",
          "ticks": 165888,
          "time": 162,
          "velocity": 0.3937007874015748
        },
        {
          "duration": 0.1875,
          "durationTicks": 192,
          "midi": 35,
          "name": "B1",
          "ticks": 165888,
          "time": 162,
          "velocity": 0.3937007874015748
        },
        {
          "duration": 0.1875,
          "durationTicks": 192,
          "midi": 44,
          "name": "G#2",
          "ticks": 165888,
          "time": 162,
          "velocity": 0.3937007874015748
        },
        {
          "duration": 0.09375,
          "durationTicks": 96,
          "midi": 52,
          "name": "E3",
          "ticks": 165888,
          "time": 162,
          "velocity": 0.3937007874015748
        },
        {
          "duration": 0.1875,
          "durationTicks": 192,
          "midi": 57,
          "name": "A3",
          "ticks": 165888,
          "time": 162,
          "velocity": 0.3937007874015748
        },
        {
          "duration": 0.1875,
          "durationTicks": 192,
          "midi": 36,
          "name": "C2",
          "ticks": 165888,
          "time": 162,
          "velocity": 0.3937007874015748
        },
        {
          "duration": 0.1875,
          "durationTicks": 192,
          "midi": 44,
          "name": "G#2",
          "ticks": 166080,
          "time": 162.1875,
          "velocity": 0.3937007874015748
        },
        {
          "duration": 0.09375,
          "durationTicks": 96,
          "midi": 36,
          "name": "C2",
          "ticks": 166080,
          "time": 162.1875,
          "velocity": 0.3937007874015748
        },
        {
          "duration": 0.09375,
          "durationTicks": 96,
          "midi": 38,
          "name": "D2",
          "ticks": 166272,
          "time": 162.375,
          "velocity": 0.3937007874015748
        },
        {
          "duration": 0.1875,
          "durationTicks": 192,
          "midi": 36,
          "name": "C2",
          "ticks": 166272,
          "time": 162.375,
          "velocity": 0.3937007874015748
        },
        {
          "duration": 0.1875,
          "durationTicks": 192,
          "midi": 35,
          "name": "B1",
          "ticks": 166272,
          "time": 162.375,
          "velocity": 0.3937007874015748
        },
        {
          "duration": 0.1875,
          "durationTicks": 192,
          "midi": 44,
          "name": "G#2",
          "ticks": 166272,
          "time": 162.375,
          "velocity": 0.3937007874015748
        },
        {
          "duration": 0.1875,
          "durationTicks": 192,
          "midi": 57,
          "name": "A3",
          "ticks": 166272,
          "time": 162.375,
          "velocity": 0.3937007874015748
        },
        {
          "duration": 0.1875,
          "durationTicks": 192,
          "midi": 44,
          "name": "G#2",
          "ticks": 166272,
          "time": 162.375,
          "velocity": 0.3937007874015748
        },
        {
          "duration": 0.09375,
          "durationTicks": 96,
          "midi": 40,
          "name": "E2",
          "ticks": 166272,
          "time": 162.375,
          "velocity": 0.3937007874015748
        },
        {
          "duration": 0.09375,
          "durationTicks": 96,
          "midi": 36,
          "name": "C2",
          "ticks": 166464,
          "time": 162.5625,
          "velocity": 0.3937007874015748
        },
        {
          "duration": 0.1875,
          "durationTicks": 192,
          "midi": 44,
          "name": "G#2",
          "ticks": 166464,
          "time": 162.5625,
          "velocity": 0.3937007874015748
        },
        {
          "duration": 0.1875,
          "durationTicks": 192,
          "midi": 35,
          "name": "B1",
          "ticks": 166656,
          "time": 162.75,
          "velocity": 0.3937007874015748
        },
        {
          "duration": 0.1875,
          "durationTicks": 192,
          "midi": 44,
          "name": "G#2",
          "ticks": 166656,
          "time": 162.75,
          "velocity": 0.3937007874015748
        },
        {
          "duration": 0.1875,
          "durationTicks": 192,
          "midi": 57,
          "name": "A3",
          "ticks": 166656,
          "time": 162.75,
          "velocity": 0.3937007874015748
        },
        {
          "duration": 0.1875,
          "durationTicks": 192,
          "midi": 44,
          "name": "G#2",
          "ticks": 166656,
          "time": 162.75,
          "velocity": 0.3937007874015748
        },
        {
          "duration": 0.1875,
          "durationTicks": 192,
          "midi": 36,
          "name": "C2",
          "ticks": 166656,
          "time": 162.75,
          "velocity": 0.3937007874015748
        },
        {
          "duration": 0.09375,
          "durationTicks": 96,
          "midi": 36,
          "name": "C2",
          "ticks": 166848,
          "time": 162.9375,
          "velocity": 0.3937007874015748
        },
        {
          "duration": 0.1875,
          "durationTicks": 192,
          "midi": 44,
          "name": "G#2",
          "ticks": 166848,
          "time": 162.9375,
          "velocity": 0.3937007874015748
        },
        {
          "duration": 0.1875,
          "durationTicks": 192,
          "midi": 44,
          "name": "G#2",
          "ticks": 167040,
          "time": 163.125,
          "velocity": 0.3937007874015748
        },
        {
          "duration": 0.1875,
          "durationTicks": 192,
          "midi": 44,
          "name": "G#2",
          "ticks": 167040,
          "time": 163.125,
          "velocity": 0.3937007874015748
        },
        {
          "duration": 0.09375,
          "durationTicks": 96,
          "midi": 40,
          "name": "E2",
          "ticks": 167040,
          "time": 163.125,
          "velocity": 0.3937007874015748
        },
        {
          "duration": 0.1875,
          "durationTicks": 192,
          "midi": 57,
          "name": "A3",
          "ticks": 167040,
          "time": 163.125,
          "velocity": 0.3937007874015748
        },
        {
          "duration": 0.1875,
          "durationTicks": 192,
          "midi": 35,
          "name": "B1",
          "ticks": 167040,
          "time": 163.125,
          "velocity": 0.3937007874015748
        },
        {
          "duration": 0.1875,
          "durationTicks": 192,
          "midi": 36,
          "name": "C2",
          "ticks": 167040,
          "time": 163.125,
          "velocity": 0.3937007874015748
        },
        {
          "duration": 0.09375,
          "durationTicks": 96,
          "midi": 38,
          "name": "D2",
          "ticks": 167040,
          "time": 163.125,
          "velocity": 0.3937007874015748
        },
        {
          "duration": 0.09375,
          "durationTicks": 96,
          "midi": 36,
          "name": "C2",
          "ticks": 167232,
          "time": 163.3125,
          "velocity": 0.3937007874015748
        },
        {
          "duration": 0.1875,
          "durationTicks": 192,
          "midi": 44,
          "name": "G#2",
          "ticks": 167232,
          "time": 163.3125,
          "velocity": 0.3937007874015748
        },
        {
          "duration": 0.09375,
          "durationTicks": 96,
          "midi": 46,
          "name": "A#2",
          "ticks": 167424,
          "time": 163.5,
          "velocity": 0.3937007874015748
        },
        {
          "duration": 0.1875,
          "durationTicks": 192,
          "midi": 36,
          "name": "C2",
          "ticks": 167424,
          "time": 163.5,
          "velocity": 0.3937007874015748
        },
        {
          "duration": 0.1875,
          "durationTicks": 192,
          "midi": 44,
          "name": "G#2",
          "ticks": 167424,
          "time": 163.5,
          "velocity": 0.3937007874015748
        },
        {
          "duration": 0.1875,
          "durationTicks": 192,
          "midi": 35,
          "name": "B1",
          "ticks": 167424,
          "time": 163.5,
          "velocity": 0.3937007874015748
        },
        {
          "duration": 0.1875,
          "durationTicks": 192,
          "midi": 44,
          "name": "G#2",
          "ticks": 167424,
          "time": 163.5,
          "velocity": 0.3937007874015748
        },
        {
          "duration": 0.1875,
          "durationTicks": 192,
          "midi": 57,
          "name": "A3",
          "ticks": 167424,
          "time": 163.5,
          "velocity": 0.3937007874015748
        },
        {
          "duration": 0.09375,
          "durationTicks": 96,
          "midi": 52,
          "name": "E3",
          "ticks": 167424,
          "time": 163.5,
          "velocity": 0.3937007874015748
        },
        {
          "duration": 0.09375,
          "durationTicks": 96,
          "midi": 36,
          "name": "C2",
          "ticks": 167616,
          "time": 163.6875,
          "velocity": 0.3937007874015748
        },
        {
          "duration": 0.1875,
          "durationTicks": 192,
          "midi": 44,
          "name": "G#2",
          "ticks": 167616,
          "time": 163.6875,
          "velocity": 0.3937007874015748
        },
        {
          "duration": 0.09375,
          "durationTicks": 96,
          "midi": 38,
          "name": "D2",
          "ticks": 167808,
          "time": 163.875,
          "velocity": 0.3937007874015748
        },
        {
          "duration": 0.1875,
          "durationTicks": 192,
          "midi": 57,
          "name": "A3",
          "ticks": 167808,
          "time": 163.875,
          "velocity": 0.3937007874015748
        },
        {
          "duration": 0.1875,
          "durationTicks": 192,
          "midi": 44,
          "name": "G#2",
          "ticks": 167808,
          "time": 163.875,
          "velocity": 0.3937007874015748
        },
        {
          "duration": 0.1875,
          "durationTicks": 192,
          "midi": 36,
          "name": "C2",
          "ticks": 167808,
          "time": 163.875,
          "velocity": 0.3937007874015748
        },
        {
          "duration": 0.09375,
          "durationTicks": 96,
          "midi": 40,
          "name": "E2",
          "ticks": 167808,
          "time": 163.875,
          "velocity": 0.3937007874015748
        },
        {
          "duration": 0.1875,
          "durationTicks": 192,
          "midi": 44,
          "name": "G#2",
          "ticks": 167808,
          "time": 163.875,
          "velocity": 0.3937007874015748
        },
        {
          "duration": 0.1875,
          "durationTicks": 192,
          "midi": 35,
          "name": "B1",
          "ticks": 167808,
          "time": 163.875,
          "velocity": 0.3937007874015748
        },
        {
          "duration": 0.1875,
          "durationTicks": 192,
          "midi": 44,
          "name": "G#2",
          "ticks": 168000,
          "time": 164.0625,
          "velocity": 0.3937007874015748
        },
        {
          "duration": 0.09375,
          "durationTicks": 96,
          "midi": 36,
          "name": "C2",
          "ticks": 168000,
          "time": 164.0625,
          "velocity": 0.3937007874015748
        },
        {
          "duration": 0.09375,
          "durationTicks": 96,
          "midi": 38,
          "name": "D2",
          "ticks": 168096,
          "time": 164.15625,
          "velocity": 0.3937007874015748
        },
        {
          "duration": 0.1875,
          "durationTicks": 192,
          "midi": 35,
          "name": "B1",
          "ticks": 168192,
          "time": 164.25,
          "velocity": 0.3937007874015748
        },
        {
          "duration": 0.1875,
          "durationTicks": 192,
          "midi": 36,
          "name": "C2",
          "ticks": 168192,
          "time": 164.25,
          "velocity": 0.3937007874015748
        },
        {
          "duration": 0.1875,
          "durationTicks": 192,
          "midi": 44,
          "name": "G#2",
          "ticks": 168192,
          "time": 164.25,
          "velocity": 0.3937007874015748
        },
        {
          "duration": 0.1875,
          "durationTicks": 192,
          "midi": 57,
          "name": "A3",
          "ticks": 168192,
          "time": 164.25,
          "velocity": 0.3937007874015748
        },
        {
          "duration": 0.1875,
          "durationTicks": 192,
          "midi": 44,
          "name": "G#2",
          "ticks": 168192,
          "time": 164.25,
          "velocity": 0.3937007874015748
        },
        {
          "duration": 0.09375,
          "durationTicks": 96,
          "midi": 38,
          "name": "D2",
          "ticks": 168288,
          "time": 164.34375,
          "velocity": 0.3937007874015748
        },
        {
          "duration": 0.1875,
          "durationTicks": 192,
          "midi": 44,
          "name": "G#2",
          "ticks": 168384,
          "time": 164.4375,
          "velocity": 0.3937007874015748
        },
        {
          "duration": 0.09375,
          "durationTicks": 96,
          "midi": 38,
          "name": "D2",
          "ticks": 168480,
          "time": 164.53125,
          "velocity": 0.3937007874015748
        },
        {
          "duration": 0.1875,
          "durationTicks": 192,
          "midi": 44,
          "name": "G#2",
          "ticks": 168576,
          "time": 164.625,
          "velocity": 0.3937007874015748
        },
        {
          "duration": 0.09375,
          "durationTicks": 96,
          "midi": 38,
          "name": "D2",
          "ticks": 168576,
          "time": 164.625,
          "velocity": 0.3937007874015748
        },
        {
          "duration": 0.1875,
          "durationTicks": 192,
          "midi": 35,
          "name": "B1",
          "ticks": 168576,
          "time": 164.625,
          "velocity": 0.3937007874015748
        },
        {
          "duration": 0.1875,
          "durationTicks": 192,
          "midi": 44,
          "name": "G#2",
          "ticks": 168576,
          "time": 164.625,
          "velocity": 0.3937007874015748
        },
        {
          "duration": 0.1875,
          "durationTicks": 192,
          "midi": 36,
          "name": "C2",
          "ticks": 168576,
          "time": 164.625,
          "velocity": 0.3937007874015748
        },
        {
          "duration": 0.09375,
          "durationTicks": 96,
          "midi": 40,
          "name": "E2",
          "ticks": 168576,
          "time": 164.625,
          "velocity": 0.3937007874015748
        },
        {
          "duration": 0.1875,
          "durationTicks": 192,
          "midi": 57,
          "name": "A3",
          "ticks": 168576,
          "time": 164.625,
          "velocity": 0.3937007874015748
        },
        {
          "duration": 0.09375,
          "durationTicks": 96,
          "midi": 38,
          "name": "D2",
          "ticks": 168768,
          "time": 164.8125,
          "velocity": 0.3937007874015748
        },
        {
          "duration": 0.1875,
          "durationTicks": 192,
          "midi": 44,
          "name": "G#2",
          "ticks": 168768,
          "time": 164.8125,
          "velocity": 0.3937007874015748
        },
        {
          "duration": 0.1875,
          "durationTicks": 192,
          "midi": 35,
          "name": "B1",
          "ticks": 168960,
          "time": 165,
          "velocity": 0.3937007874015748
        },
        {
          "duration": 0.09375,
          "durationTicks": 96,
          "midi": 52,
          "name": "E3",
          "ticks": 168960,
          "time": 165,
          "velocity": 0.3937007874015748
        },
        {
          "duration": 0.1875,
          "durationTicks": 192,
          "midi": 57,
          "name": "A3",
          "ticks": 168960,
          "time": 165,
          "velocity": 0.3937007874015748
        },
        {
          "duration": 0.09375,
          "durationTicks": 96,
          "midi": 46,
          "name": "A#2",
          "ticks": 168960,
          "time": 165,
          "velocity": 0.3937007874015748
        },
        {
          "duration": 0.1875,
          "durationTicks": 192,
          "midi": 36,
          "name": "C2",
          "ticks": 168960,
          "time": 165,
          "velocity": 0.3937007874015748
        },
        {
          "duration": 0.1875,
          "durationTicks": 192,
          "midi": 44,
          "name": "G#2",
          "ticks": 168960,
          "time": 165,
          "velocity": 0.3937007874015748
        },
        {
          "duration": 0.1875,
          "durationTicks": 192,
          "midi": 44,
          "name": "G#2",
          "ticks": 168960,
          "time": 165,
          "velocity": 0.3937007874015748
        },
        {
          "duration": 0.09375,
          "durationTicks": 96,
          "midi": 46,
          "name": "A#2",
          "ticks": 168960,
          "time": 165,
          "velocity": 0.3937007874015748
        },
        {
          "duration": 0.09375,
          "durationTicks": 96,
          "midi": 36,
          "name": "C2",
          "ticks": 169152,
          "time": 165.1875,
          "velocity": 0.3937007874015748
        },
        {
          "duration": 0.1875,
          "durationTicks": 192,
          "midi": 44,
          "name": "G#2",
          "ticks": 169152,
          "time": 165.1875,
          "velocity": 0.3937007874015748
        },
        {
          "duration": 0.1875,
          "durationTicks": 192,
          "midi": 44,
          "name": "G#2",
          "ticks": 169344,
          "time": 165.375,
          "velocity": 0.3937007874015748
        },
        {
          "duration": 0.09375,
          "durationTicks": 96,
          "midi": 38,
          "name": "D2",
          "ticks": 169344,
          "time": 165.375,
          "velocity": 0.3937007874015748
        },
        {
          "duration": 0.09375,
          "durationTicks": 96,
          "midi": 40,
          "name": "E2",
          "ticks": 169344,
          "time": 165.375,
          "velocity": 0.3937007874015748
        },
        {
          "duration": 0.1875,
          "durationTicks": 192,
          "midi": 57,
          "name": "A3",
          "ticks": 169344,
          "time": 165.375,
          "velocity": 0.3937007874015748
        },
        {
          "duration": 0.1875,
          "durationTicks": 192,
          "midi": 44,
          "name": "G#2",
          "ticks": 169344,
          "time": 165.375,
          "velocity": 0.3937007874015748
        },
        {
          "duration": 0.1875,
          "durationTicks": 192,
          "midi": 35,
          "name": "B1",
          "ticks": 169344,
          "time": 165.375,
          "velocity": 0.3937007874015748
        },
        {
          "duration": 0.1875,
          "durationTicks": 192,
          "midi": 36,
          "name": "C2",
          "ticks": 169344,
          "time": 165.375,
          "velocity": 0.3937007874015748
        },
        {
          "duration": 0.09375,
          "durationTicks": 96,
          "midi": 36,
          "name": "C2",
          "ticks": 169536,
          "time": 165.5625,
          "velocity": 0.3937007874015748
        },
        {
          "duration": 0.1875,
          "durationTicks": 192,
          "midi": 44,
          "name": "G#2",
          "ticks": 169536,
          "time": 165.5625,
          "velocity": 0.3937007874015748
        },
        {
          "duration": 0.1875,
          "durationTicks": 192,
          "midi": 57,
          "name": "A3",
          "ticks": 169728,
          "time": 165.75,
          "velocity": 0.3937007874015748
        },
        {
          "duration": 0.1875,
          "durationTicks": 192,
          "midi": 44,
          "name": "G#2",
          "ticks": 169728,
          "time": 165.75,
          "velocity": 0.3937007874015748
        },
        {
          "duration": 0.1875,
          "durationTicks": 192,
          "midi": 35,
          "name": "B1",
          "ticks": 169728,
          "time": 165.75,
          "velocity": 0.3937007874015748
        },
        {
          "duration": 0.1875,
          "durationTicks": 192,
          "midi": 44,
          "name": "G#2",
          "ticks": 169728,
          "time": 165.75,
          "velocity": 0.3937007874015748
        },
        {
          "duration": 0.1875,
          "durationTicks": 192,
          "midi": 36,
          "name": "C2",
          "ticks": 169728,
          "time": 165.75,
          "velocity": 0.3937007874015748
        },
        {
          "duration": 0.09375,
          "durationTicks": 96,
          "midi": 36,
          "name": "C2",
          "ticks": 169920,
          "time": 165.9375,
          "velocity": 0.3937007874015748
        },
        {
          "duration": 0.1875,
          "durationTicks": 192,
          "midi": 44,
          "name": "G#2",
          "ticks": 169920,
          "time": 165.9375,
          "velocity": 0.3937007874015748
        },
        {
          "duration": 0.09375,
          "durationTicks": 96,
          "midi": 40,
          "name": "E2",
          "ticks": 170112,
          "time": 166.125,
          "velocity": 0.3937007874015748
        },
        {
          "duration": 0.1875,
          "durationTicks": 192,
          "midi": 36,
          "name": "C2",
          "ticks": 170112,
          "time": 166.125,
          "velocity": 0.3937007874015748
        },
        {
          "duration": 0.1875,
          "durationTicks": 192,
          "midi": 44,
          "name": "G#2",
          "ticks": 170112,
          "time": 166.125,
          "velocity": 0.3937007874015748
        },
        {
          "duration": 0.09375,
          "durationTicks": 96,
          "midi": 38,
          "name": "D2",
          "ticks": 170112,
          "time": 166.125,
          "velocity": 0.3937007874015748
        },
        {
          "duration": 0.1875,
          "durationTicks": 192,
          "midi": 57,
          "name": "A3",
          "ticks": 170112,
          "time": 166.125,
          "velocity": 0.3937007874015748
        },
        {
          "duration": 0.1875,
          "durationTicks": 192,
          "midi": 44,
          "name": "G#2",
          "ticks": 170112,
          "time": 166.125,
          "velocity": 0.3937007874015748
        },
        {
          "duration": 0.1875,
          "durationTicks": 192,
          "midi": 35,
          "name": "B1",
          "ticks": 170112,
          "time": 166.125,
          "velocity": 0.3937007874015748
        },
        {
          "duration": 0.09375,
          "durationTicks": 96,
          "midi": 36,
          "name": "C2",
          "ticks": 170304,
          "time": 166.3125,
          "velocity": 0.3937007874015748
        },
        {
          "duration": 0.1875,
          "durationTicks": 192,
          "midi": 44,
          "name": "G#2",
          "ticks": 170304,
          "time": 166.3125,
          "velocity": 0.3937007874015748
        },
        {
          "duration": 0.09375,
          "durationTicks": 96,
          "midi": 36,
          "name": "C2",
          "ticks": 170496,
          "time": 166.5,
          "velocity": 0.3937007874015748
        },
        {
          "duration": 0.09375,
          "durationTicks": 96,
          "midi": 42,
          "name": "F#2",
          "ticks": 170496,
          "time": 166.5,
          "velocity": 0.3937007874015748
        },
        {
          "duration": 0.09375,
          "durationTicks": 96,
          "midi": 40,
          "name": "E2",
          "ticks": 170496,
          "time": 166.5,
          "velocity": 0.3937007874015748
        },
        {
          "duration": 0.09375,
          "durationTicks": 96,
          "midi": 40,
          "name": "E2",
          "ticks": 170592,
          "time": 166.59375,
          "velocity": 0.3937007874015748
        },
        {
          "duration": 0.09375,
          "durationTicks": 96,
          "midi": 36,
          "name": "C2",
          "ticks": 170592,
          "time": 166.59375,
          "velocity": 0.3937007874015748
        },
        {
          "duration": 0.09375,
          "durationTicks": 96,
          "midi": 35,
          "name": "B1",
          "ticks": 170688,
          "time": 166.6875,
          "velocity": 0.3937007874015748
        },
        {
          "duration": 0.09375,
          "durationTicks": 96,
          "midi": 40,
          "name": "E2",
          "ticks": 170688,
          "time": 166.6875,
          "velocity": 0.3937007874015748
        },
        {
          "duration": 0.09375,
          "durationTicks": 96,
          "midi": 40,
          "name": "E2",
          "ticks": 170784,
          "time": 166.78125,
          "velocity": 0.3937007874015748
        },
        {
          "duration": 0.09375,
          "durationTicks": 96,
          "midi": 35,
          "name": "B1",
          "ticks": 170784,
          "time": 166.78125,
          "velocity": 0.3937007874015748
        },
        {
          "duration": 0.09375,
          "durationTicks": 96,
          "midi": 36,
          "name": "C2",
          "ticks": 170880,
          "time": 166.875,
          "velocity": 0.3937007874015748
        },
        {
          "duration": 0.09375,
          "durationTicks": 96,
          "midi": 38,
          "name": "D2",
          "ticks": 170880,
          "time": 166.875,
          "velocity": 0.3937007874015748
        },
        {
          "duration": 0.09375,
          "durationTicks": 96,
          "midi": 42,
          "name": "F#2",
          "ticks": 170880,
          "time": 166.875,
          "velocity": 0.3937007874015748
        },
        {
          "duration": 0.09375,
          "durationTicks": 96,
          "midi": 36,
          "name": "C2",
          "ticks": 170976,
          "time": 166.96875,
          "velocity": 0.3937007874015748
        },
        {
          "duration": 0.09375,
          "durationTicks": 96,
          "midi": 38,
          "name": "D2",
          "ticks": 170976,
          "time": 166.96875,
          "velocity": 0.3937007874015748
        },
        {
          "duration": 0.09375,
          "durationTicks": 96,
          "midi": 35,
          "name": "B1",
          "ticks": 171072,
          "time": 167.0625,
          "velocity": 0.3937007874015748
        },
        {
          "duration": 0.09375,
          "durationTicks": 96,
          "midi": 35,
          "name": "B1",
          "ticks": 171168,
          "time": 167.15625,
          "velocity": 0.3937007874015748
        },
        {
          "duration": 0.09375,
          "durationTicks": 96,
          "midi": 36,
          "name": "C2",
          "ticks": 171264,
          "time": 167.25,
          "velocity": 0.3937007874015748
        },
        {
          "duration": 0.09375,
          "durationTicks": 96,
          "midi": 38,
          "name": "D2",
          "ticks": 171264,
          "time": 167.25,
          "velocity": 0.3937007874015748
        },
        {
          "duration": 0.09375,
          "durationTicks": 96,
          "midi": 40,
          "name": "E2",
          "ticks": 171264,
          "time": 167.25,
          "velocity": 0.3937007874015748
        },
        {
          "duration": 0.09375,
          "durationTicks": 96,
          "midi": 42,
          "name": "F#2",
          "ticks": 171264,
          "time": 167.25,
          "velocity": 0.3937007874015748
        },
        {
          "duration": 0.09375,
          "durationTicks": 96,
          "midi": 36,
          "name": "C2",
          "ticks": 171360,
          "time": 167.34375,
          "velocity": 0.3937007874015748
        },
        {
          "duration": 0.09375,
          "durationTicks": 96,
          "midi": 42,
          "name": "F#2",
          "ticks": 171456,
          "time": 167.4375,
          "velocity": 0.3937007874015748
        },
        {
          "duration": 0.09375,
          "durationTicks": 96,
          "midi": 35,
          "name": "B1",
          "ticks": 171456,
          "time": 167.4375,
          "velocity": 0.3937007874015748
        },
        {
          "duration": 0.09375,
          "durationTicks": 96,
          "midi": 38,
          "name": "D2",
          "ticks": 171552,
          "time": 167.53125,
          "velocity": 0.3937007874015748
        },
        {
          "duration": 0.09375,
          "durationTicks": 96,
          "midi": 35,
          "name": "B1",
          "ticks": 171552,
          "time": 167.53125,
          "velocity": 0.3937007874015748
        },
        {
          "duration": 0.09375,
          "durationTicks": 96,
          "midi": 40,
          "name": "E2",
          "ticks": 171552,
          "time": 167.53125,
          "velocity": 0.3937007874015748
        },
        {
          "duration": 0.09375,
          "durationTicks": 96,
          "midi": 42,
          "name": "F#2",
          "ticks": 171648,
          "time": 167.625,
          "velocity": 0.3937007874015748
        },
        {
          "duration": 0.09375,
          "durationTicks": 96,
          "midi": 36,
          "name": "C2",
          "ticks": 171648,
          "time": 167.625,
          "velocity": 0.3937007874015748
        },
        {
          "duration": 0.09375,
          "durationTicks": 96,
          "midi": 36,
          "name": "C2",
          "ticks": 171744,
          "time": 167.71875,
          "velocity": 0.3937007874015748
        },
        {
          "duration": 0.09375,
          "durationTicks": 96,
          "midi": 38,
          "name": "D2",
          "ticks": 171840,
          "time": 167.8125,
          "velocity": 0.3937007874015748
        },
        {
          "duration": 0.09375,
          "durationTicks": 96,
          "midi": 35,
          "name": "B1",
          "ticks": 171840,
          "time": 167.8125,
          "velocity": 0.3937007874015748
        },
        {
          "duration": 0.09375,
          "durationTicks": 96,
          "midi": 42,
          "name": "F#2",
          "ticks": 171840,
          "time": 167.8125,
          "velocity": 0.3937007874015748
        },
        {
          "duration": 0.09375,
          "durationTicks": 96,
          "midi": 35,
          "name": "B1",
          "ticks": 171936,
          "time": 167.90625,
          "velocity": 0.3937007874015748
        },
        {
          "duration": 0.1875,
          "durationTicks": 192,
          "midi": 57,
          "name": "A3",
          "ticks": 172032,
          "time": 168,
          "velocity": 0.3937007874015748
        },
        {
          "duration": 0.1875,
          "durationTicks": 192,
          "midi": 35,
          "name": "B1",
          "ticks": 172032,
          "time": 168,
          "velocity": 0.3937007874015748
        },
        {
          "duration": 0.09375,
          "durationTicks": 96,
          "midi": 52,
          "name": "E3",
          "ticks": 172032,
          "time": 168,
          "velocity": 0.3937007874015748
        },
        {
          "duration": 0.09375,
          "durationTicks": 96,
          "midi": 46,
          "name": "A#2",
          "ticks": 172032,
          "time": 168,
          "velocity": 0.3937007874015748
        },
        {
          "duration": 0.1875,
          "durationTicks": 192,
          "midi": 36,
          "name": "C2",
          "ticks": 172032,
          "time": 168,
          "velocity": 0.3937007874015748
        },
        {
          "duration": 0.1875,
          "durationTicks": 192,
          "midi": 44,
          "name": "G#2",
          "ticks": 172032,
          "time": 168,
          "velocity": 0.3937007874015748
        },
        {
          "duration": 0.09375,
          "durationTicks": 96,
          "midi": 46,
          "name": "A#2",
          "ticks": 172032,
          "time": 168,
          "velocity": 0.3937007874015748
        },
        {
          "duration": 0.1875,
          "durationTicks": 192,
          "midi": 44,
          "name": "G#2",
          "ticks": 172032,
          "time": 168,
          "velocity": 0.3937007874015748
        },
        {
          "duration": 0.09375,
          "durationTicks": 96,
          "midi": 36,
          "name": "C2",
          "ticks": 172224,
          "time": 168.1875,
          "velocity": 0.3937007874015748
        },
        {
          "duration": 0.1875,
          "durationTicks": 192,
          "midi": 44,
          "name": "G#2",
          "ticks": 172224,
          "time": 168.1875,
          "velocity": 0.3937007874015748
        },
        {
          "duration": 0.1875,
          "durationTicks": 192,
          "midi": 57,
          "name": "A3",
          "ticks": 172416,
          "time": 168.375,
          "velocity": 0.3937007874015748
        },
        {
          "duration": 0.09375,
          "durationTicks": 96,
          "midi": 38,
          "name": "D2",
          "ticks": 172416,
          "time": 168.375,
          "velocity": 0.3937007874015748
        },
        {
          "duration": 0.1875,
          "durationTicks": 192,
          "midi": 44,
          "name": "G#2",
          "ticks": 172416,
          "time": 168.375,
          "velocity": 0.3937007874015748
        },
        {
          "duration": 0.1875,
          "durationTicks": 192,
          "midi": 44,
          "name": "G#2",
          "ticks": 172416,
          "time": 168.375,
          "velocity": 0.3937007874015748
        },
        {
          "duration": 0.1875,
          "durationTicks": 192,
          "midi": 36,
          "name": "C2",
          "ticks": 172416,
          "time": 168.375,
          "velocity": 0.3937007874015748
        },
        {
          "duration": 0.09375,
          "durationTicks": 96,
          "midi": 40,
          "name": "E2",
          "ticks": 172416,
          "time": 168.375,
          "velocity": 0.3937007874015748
        },
        {
          "duration": 0.1875,
          "durationTicks": 192,
          "midi": 35,
          "name": "B1",
          "ticks": 172416,
          "time": 168.375,
          "velocity": 0.3937007874015748
        },
        {
          "duration": 0.09375,
          "durationTicks": 96,
          "midi": 36,
          "name": "C2",
          "ticks": 172608,
          "time": 168.5625,
          "velocity": 0.3937007874015748
        },
        {
          "duration": 0.1875,
          "durationTicks": 192,
          "midi": 44,
          "name": "G#2",
          "ticks": 172608,
          "time": 168.5625,
          "velocity": 0.3937007874015748
        },
        {
          "duration": 0.1875,
          "durationTicks": 192,
          "midi": 36,
          "name": "C2",
          "ticks": 172800,
          "time": 168.75,
          "velocity": 0.3937007874015748
        },
        {
          "duration": 0.1875,
          "durationTicks": 192,
          "midi": 44,
          "name": "G#2",
          "ticks": 172800,
          "time": 168.75,
          "velocity": 0.3937007874015748
        },
        {
          "duration": 0.1875,
          "durationTicks": 192,
          "midi": 44,
          "name": "G#2",
          "ticks": 172800,
          "time": 168.75,
          "velocity": 0.3937007874015748
        },
        {
          "duration": 0.1875,
          "durationTicks": 192,
          "midi": 35,
          "name": "B1",
          "ticks": 172800,
          "time": 168.75,
          "velocity": 0.3937007874015748
        },
        {
          "duration": 0.1875,
          "durationTicks": 192,
          "midi": 57,
          "name": "A3",
          "ticks": 172800,
          "time": 168.75,
          "velocity": 0.3937007874015748
        },
        {
          "duration": 0.1875,
          "durationTicks": 192,
          "midi": 44,
          "name": "G#2",
          "ticks": 172992,
          "time": 168.9375,
          "velocity": 0.3937007874015748
        },
        {
          "duration": 0.09375,
          "durationTicks": 96,
          "midi": 36,
          "name": "C2",
          "ticks": 172992,
          "time": 168.9375,
          "velocity": 0.3937007874015748
        },
        {
          "duration": 0.1875,
          "durationTicks": 192,
          "midi": 57,
          "name": "A3",
          "ticks": 173184,
          "time": 169.125,
          "velocity": 0.3937007874015748
        },
        {
          "duration": 0.1875,
          "durationTicks": 192,
          "midi": 44,
          "name": "G#2",
          "ticks": 173184,
          "time": 169.125,
          "velocity": 0.3937007874015748
        },
        {
          "duration": 0.09375,
          "durationTicks": 96,
          "midi": 40,
          "name": "E2",
          "ticks": 173184,
          "time": 169.125,
          "velocity": 0.3937007874015748
        },
        {
          "duration": 0.09375,
          "durationTicks": 96,
          "midi": 38,
          "name": "D2",
          "ticks": 173184,
          "time": 169.125,
          "velocity": 0.3937007874015748
        },
        {
          "duration": 0.1875,
          "durationTicks": 192,
          "midi": 44,
          "name": "G#2",
          "ticks": 173184,
          "time": 169.125,
          "velocity": 0.3937007874015748
        },
        {
          "duration": 0.1875,
          "durationTicks": 192,
          "midi": 35,
          "name": "B1",
          "ticks": 173184,
          "time": 169.125,
          "velocity": 0.3937007874015748
        },
        {
          "duration": 0.1875,
          "durationTicks": 192,
          "midi": 36,
          "name": "C2",
          "ticks": 173184,
          "time": 169.125,
          "velocity": 0.3937007874015748
        },
        {
          "duration": 0.1875,
          "durationTicks": 192,
          "midi": 44,
          "name": "G#2",
          "ticks": 173376,
          "time": 169.3125,
          "velocity": 0.3937007874015748
        },
        {
          "duration": 0.09375,
          "durationTicks": 96,
          "midi": 36,
          "name": "C2",
          "ticks": 173376,
          "time": 169.3125,
          "velocity": 0.3937007874015748
        },
        {
          "duration": 0.1875,
          "durationTicks": 192,
          "midi": 36,
          "name": "C2",
          "ticks": 173568,
          "time": 169.5,
          "velocity": 0.3937007874015748
        },
        {
          "duration": 0.09375,
          "durationTicks": 96,
          "midi": 52,
          "name": "E3",
          "ticks": 173568,
          "time": 169.5,
          "velocity": 0.3937007874015748
        },
        {
          "duration": 0.1875,
          "durationTicks": 192,
          "midi": 57,
          "name": "A3",
          "ticks": 173568,
          "time": 169.5,
          "velocity": 0.3937007874015748
        },
        {
          "duration": 0.1875,
          "durationTicks": 192,
          "midi": 35,
          "name": "B1",
          "ticks": 173568,
          "time": 169.5,
          "velocity": 0.3937007874015748
        },
        {
          "duration": 0.1875,
          "durationTicks": 192,
          "midi": 44,
          "name": "G#2",
          "ticks": 173568,
          "time": 169.5,
          "velocity": 0.3937007874015748
        },
        {
          "duration": 0.09375,
          "durationTicks": 96,
          "midi": 46,
          "name": "A#2",
          "ticks": 173568,
          "time": 169.5,
          "velocity": 0.3937007874015748
        },
        {
          "duration": 0.09375,
          "durationTicks": 96,
          "midi": 46,
          "name": "A#2",
          "ticks": 173568,
          "time": 169.5,
          "velocity": 0.3937007874015748
        },
        {
          "duration": 0.1875,
          "durationTicks": 192,
          "midi": 44,
          "name": "G#2",
          "ticks": 173568,
          "time": 169.5,
          "velocity": 0.3937007874015748
        },
        {
          "duration": 0.1875,
          "durationTicks": 192,
          "midi": 44,
          "name": "G#2",
          "ticks": 173760,
          "time": 169.6875,
          "velocity": 0.3937007874015748
        },
        {
          "duration": 0.09375,
          "durationTicks": 96,
          "midi": 36,
          "name": "C2",
          "ticks": 173760,
          "time": 169.6875,
          "velocity": 0.3937007874015748
        },
        {
          "duration": 0.1875,
          "durationTicks": 192,
          "midi": 36,
          "name": "C2",
          "ticks": 173952,
          "time": 169.875,
          "velocity": 0.3937007874015748
        },
        {
          "duration": 0.1875,
          "durationTicks": 192,
          "midi": 57,
          "name": "A3",
          "ticks": 173952,
          "time": 169.875,
          "velocity": 0.3937007874015748
        },
        {
          "duration": 0.09375,
          "durationTicks": 96,
          "midi": 40,
          "name": "E2",
          "ticks": 173952,
          "time": 169.875,
          "velocity": 0.3937007874015748
        },
        {
          "duration": 0.1875,
          "durationTicks": 192,
          "midi": 35,
          "name": "B1",
          "ticks": 173952,
          "time": 169.875,
          "velocity": 0.3937007874015748
        },
        {
          "duration": 0.1875,
          "durationTicks": 192,
          "midi": 44,
          "name": "G#2",
          "ticks": 173952,
          "time": 169.875,
          "velocity": 0.3937007874015748
        },
        {
          "duration": 0.09375,
          "durationTicks": 96,
          "midi": 38,
          "name": "D2",
          "ticks": 173952,
          "time": 169.875,
          "velocity": 0.3937007874015748
        },
        {
          "duration": 0.1875,
          "durationTicks": 192,
          "midi": 44,
          "name": "G#2",
          "ticks": 173952,
          "time": 169.875,
          "velocity": 0.3937007874015748
        },
        {
          "duration": 0.1875,
          "durationTicks": 192,
          "midi": 44,
          "name": "G#2",
          "ticks": 174144,
          "time": 170.0625,
          "velocity": 0.3937007874015748
        },
        {
          "duration": 0.09375,
          "durationTicks": 96,
          "midi": 36,
          "name": "C2",
          "ticks": 174144,
          "time": 170.0625,
          "velocity": 0.3937007874015748
        },
        {
          "duration": 0.09375,
          "durationTicks": 96,
          "midi": 38,
          "name": "D2",
          "ticks": 174240,
          "time": 170.15625,
          "velocity": 0.3937007874015748
        },
        {
          "duration": 0.1875,
          "durationTicks": 192,
          "midi": 35,
          "name": "B1",
          "ticks": 174336,
          "time": 170.25,
          "velocity": 0.3937007874015748
        },
        {
          "duration": 0.1875,
          "durationTicks": 192,
          "midi": 57,
          "name": "A3",
          "ticks": 174336,
          "time": 170.25,
          "velocity": 0.3937007874015748
        },
        {
          "duration": 0.1875,
          "durationTicks": 192,
          "midi": 36,
          "name": "C2",
          "ticks": 174336,
          "time": 170.25,
          "velocity": 0.3937007874015748
        },
        {
          "duration": 0.1875,
          "durationTicks": 192,
          "midi": 44,
          "name": "G#2",
          "ticks": 174336,
          "time": 170.25,
          "velocity": 0.3937007874015748
        },
        {
          "duration": 0.1875,
          "durationTicks": 192,
          "midi": 44,
          "name": "G#2",
          "ticks": 174336,
          "time": 170.25,
          "velocity": 0.3937007874015748
        },
        {
          "duration": 0.09375,
          "durationTicks": 96,
          "midi": 38,
          "name": "D2",
          "ticks": 174432,
          "time": 170.34375,
          "velocity": 0.3937007874015748
        },
        {
          "duration": 0.1875,
          "durationTicks": 192,
          "midi": 44,
          "name": "G#2",
          "ticks": 174528,
          "time": 170.4375,
          "velocity": 0.3937007874015748
        },
        {
          "duration": 0.09375,
          "durationTicks": 96,
          "midi": 38,
          "name": "D2",
          "ticks": 174624,
          "time": 170.53125,
          "velocity": 0.3937007874015748
        },
        {
          "duration": 0.1875,
          "durationTicks": 192,
          "midi": 35,
          "name": "B1",
          "ticks": 174720,
          "time": 170.625,
          "velocity": 0.3937007874015748
        },
        {
          "duration": 0.1875,
          "durationTicks": 192,
          "midi": 36,
          "name": "C2",
          "ticks": 174720,
          "time": 170.625,
          "velocity": 0.3937007874015748
        },
        {
          "duration": 0.1875,
          "durationTicks": 192,
          "midi": 44,
          "name": "G#2",
          "ticks": 174720,
          "time": 170.625,
          "velocity": 0.3937007874015748
        },
        {
          "duration": 0.1875,
          "durationTicks": 192,
          "midi": 44,
          "name": "G#2",
          "ticks": 174720,
          "time": 170.625,
          "velocity": 0.3937007874015748
        },
        {
          "duration": 0.1875,
          "durationTicks": 192,
          "midi": 57,
          "name": "A3",
          "ticks": 174720,
          "time": 170.625,
          "velocity": 0.3937007874015748
        },
        {
          "duration": 0.09375,
          "durationTicks": 96,
          "midi": 40,
          "name": "E2",
          "ticks": 174720,
          "time": 170.625,
          "velocity": 0.3937007874015748
        },
        {
          "duration": 0.09375,
          "durationTicks": 96,
          "midi": 38,
          "name": "D2",
          "ticks": 174720,
          "time": 170.625,
          "velocity": 0.3937007874015748
        },
        {
          "duration": 0.09375,
          "durationTicks": 96,
          "midi": 38,
          "name": "D2",
          "ticks": 174912,
          "time": 170.8125,
          "velocity": 0.3937007874015748
        },
        {
          "duration": 0.1875,
          "durationTicks": 192,
          "midi": 44,
          "name": "G#2",
          "ticks": 174912,
          "time": 170.8125,
          "velocity": 0.3937007874015748
        },
        {
          "duration": 0.09375,
          "durationTicks": 96,
          "midi": 46,
          "name": "A#2",
          "ticks": 175104,
          "time": 171,
          "velocity": 0.3937007874015748
        },
        {
          "duration": 0.1875,
          "durationTicks": 192,
          "midi": 36,
          "name": "C2",
          "ticks": 175104,
          "time": 171,
          "velocity": 0.3937007874015748
        },
        {
          "duration": 0.09375,
          "durationTicks": 96,
          "midi": 46,
          "name": "A#2",
          "ticks": 175104,
          "time": 171,
          "velocity": 0.3937007874015748
        },
        {
          "duration": 0.1875,
          "durationTicks": 192,
          "midi": 44,
          "name": "G#2",
          "ticks": 175104,
          "time": 171,
          "velocity": 0.3937007874015748
        },
        {
          "duration": 0.1875,
          "durationTicks": 192,
          "midi": 35,
          "name": "B1",
          "ticks": 175104,
          "time": 171,
          "velocity": 0.3937007874015748
        },
        {
          "duration": 0.1875,
          "durationTicks": 192,
          "midi": 57,
          "name": "A3",
          "ticks": 175104,
          "time": 171,
          "velocity": 0.3937007874015748
        },
        {
          "duration": 0.1875,
          "durationTicks": 192,
          "midi": 44,
          "name": "G#2",
          "ticks": 175104,
          "time": 171,
          "velocity": 0.3937007874015748
        },
        {
          "duration": 0.09375,
          "durationTicks": 96,
          "midi": 52,
          "name": "E3",
          "ticks": 175104,
          "time": 171,
          "velocity": 0.3937007874015748
        },
        {
          "duration": 0.1875,
          "durationTicks": 192,
          "midi": 44,
          "name": "G#2",
          "ticks": 175296,
          "time": 171.1875,
          "velocity": 0.3937007874015748
        },
        {
          "duration": 0.09375,
          "durationTicks": 96,
          "midi": 36,
          "name": "C2",
          "ticks": 175296,
          "time": 171.1875,
          "velocity": 0.3937007874015748
        },
        {
          "duration": 0.09375,
          "durationTicks": 96,
          "midi": 40,
          "name": "E2",
          "ticks": 175488,
          "time": 171.375,
          "velocity": 0.3937007874015748
        },
        {
          "duration": 0.1875,
          "durationTicks": 192,
          "midi": 57,
          "name": "A3",
          "ticks": 175488,
          "time": 171.375,
          "velocity": 0.3937007874015748
        },
        {
          "duration": 0.1875,
          "durationTicks": 192,
          "midi": 44,
          "name": "G#2",
          "ticks": 175488,
          "time": 171.375,
          "velocity": 0.3937007874015748
        },
        {
          "duration": 0.1875,
          "durationTicks": 192,
          "midi": 35,
          "name": "B1",
          "ticks": 175488,
          "time": 171.375,
          "velocity": 0.3937007874015748
        },
        {
          "duration": 0.09375,
          "durationTicks": 96,
          "midi": 38,
          "name": "D2",
          "ticks": 175488,
          "time": 171.375,
          "velocity": 0.3937007874015748
        },
        {
          "duration": 0.1875,
          "durationTicks": 192,
          "midi": 44,
          "name": "G#2",
          "ticks": 175488,
          "time": 171.375,
          "velocity": 0.3937007874015748
        },
        {
          "duration": 0.1875,
          "durationTicks": 192,
          "midi": 36,
          "name": "C2",
          "ticks": 175488,
          "time": 171.375,
          "velocity": 0.3937007874015748
        },
        {
          "duration": 0.09375,
          "durationTicks": 96,
          "midi": 36,
          "name": "C2",
          "ticks": 175680,
          "time": 171.5625,
          "velocity": 0.3937007874015748
        },
        {
          "duration": 0.1875,
          "durationTicks": 192,
          "midi": 44,
          "name": "G#2",
          "ticks": 175680,
          "time": 171.5625,
          "velocity": 0.3937007874015748
        },
        {
          "duration": 0.1875,
          "durationTicks": 192,
          "midi": 36,
          "name": "C2",
          "ticks": 175872,
          "time": 171.75,
          "velocity": 0.3937007874015748
        },
        {
          "duration": 0.1875,
          "durationTicks": 192,
          "midi": 44,
          "name": "G#2",
          "ticks": 175872,
          "time": 171.75,
          "velocity": 0.3937007874015748
        },
        {
          "duration": 0.1875,
          "durationTicks": 192,
          "midi": 44,
          "name": "G#2",
          "ticks": 175872,
          "time": 171.75,
          "velocity": 0.3937007874015748
        },
        {
          "duration": 0.1875,
          "durationTicks": 192,
          "midi": 35,
          "name": "B1",
          "ticks": 175872,
          "time": 171.75,
          "velocity": 0.3937007874015748
        },
        {
          "duration": 0.1875,
          "durationTicks": 192,
          "midi": 57,
          "name": "A3",
          "ticks": 175872,
          "time": 171.75,
          "velocity": 0.3937007874015748
        },
        {
          "duration": 0.09375,
          "durationTicks": 96,
          "midi": 36,
          "name": "C2",
          "ticks": 176064,
          "time": 171.9375,
          "velocity": 0.3937007874015748
        },
        {
          "duration": 0.1875,
          "durationTicks": 192,
          "midi": 44,
          "name": "G#2",
          "ticks": 176064,
          "time": 171.9375,
          "velocity": 0.3937007874015748
        },
        {
          "duration": 0.09375,
          "durationTicks": 96,
          "midi": 38,
          "name": "D2",
          "ticks": 176256,
          "time": 172.125,
          "velocity": 0.3937007874015748
        },
        {
          "duration": 0.1875,
          "durationTicks": 192,
          "midi": 36,
          "name": "C2",
          "ticks": 176256,
          "time": 172.125,
          "velocity": 0.3937007874015748
        },
        {
          "duration": 0.1875,
          "durationTicks": 192,
          "midi": 44,
          "name": "G#2",
          "ticks": 176256,
          "time": 172.125,
          "velocity": 0.3937007874015748
        },
        {
          "duration": 0.1875,
          "durationTicks": 192,
          "midi": 44,
          "name": "G#2",
          "ticks": 176256,
          "time": 172.125,
          "velocity": 0.3937007874015748
        },
        {
          "duration": 0.1875,
          "durationTicks": 192,
          "midi": 35,
          "name": "B1",
          "ticks": 176256,
          "time": 172.125,
          "velocity": 0.3937007874015748
        },
        {
          "duration": 0.1875,
          "durationTicks": 192,
          "midi": 57,
          "name": "A3",
          "ticks": 176256,
          "time": 172.125,
          "velocity": 0.3937007874015748
        },
        {
          "duration": 0.09375,
          "durationTicks": 96,
          "midi": 40,
          "name": "E2",
          "ticks": 176256,
          "time": 172.125,
          "velocity": 0.3937007874015748
        },
        {
          "duration": 0.09375,
          "durationTicks": 96,
          "midi": 36,
          "name": "C2",
          "ticks": 176448,
          "time": 172.3125,
          "velocity": 0.3937007874015748
        },
        {
          "duration": 0.1875,
          "durationTicks": 192,
          "midi": 44,
          "name": "G#2",
          "ticks": 176448,
          "time": 172.3125,
          "velocity": 0.3937007874015748
        },
        {
          "duration": 0.09375,
          "durationTicks": 96,
          "midi": 52,
          "name": "E3",
          "ticks": 176640,
          "time": 172.5,
          "velocity": 0.3937007874015748
        },
        {
          "duration": 0.09375,
          "durationTicks": 96,
          "midi": 46,
          "name": "A#2",
          "ticks": 176640,
          "time": 172.5,
          "velocity": 0.3937007874015748
        },
        {
          "duration": 0.1875,
          "durationTicks": 192,
          "midi": 57,
          "name": "A3",
          "ticks": 176640,
          "time": 172.5,
          "velocity": 0.3937007874015748
        },
        {
          "duration": 0.1875,
          "durationTicks": 192,
          "midi": 35,
          "name": "B1",
          "ticks": 176640,
          "time": 172.5,
          "velocity": 0.3937007874015748
        },
        {
          "duration": 0.1875,
          "durationTicks": 192,
          "midi": 44,
          "name": "G#2",
          "ticks": 176640,
          "time": 172.5,
          "velocity": 0.3937007874015748
        },
        {
          "duration": 0.1875,
          "durationTicks": 192,
          "midi": 36,
          "name": "C2",
          "ticks": 176640,
          "time": 172.5,
          "velocity": 0.3937007874015748
        },
        {
          "duration": 0.1875,
          "durationTicks": 192,
          "midi": 44,
          "name": "G#2",
          "ticks": 176640,
          "time": 172.5,
          "velocity": 0.3937007874015748
        },
        {
          "duration": 0.09375,
          "durationTicks": 96,
          "midi": 36,
          "name": "C2",
          "ticks": 176832,
          "time": 172.6875,
          "velocity": 0.3937007874015748
        },
        {
          "duration": 0.1875,
          "durationTicks": 192,
          "midi": 44,
          "name": "G#2",
          "ticks": 176832,
          "time": 172.6875,
          "velocity": 0.3937007874015748
        },
        {
          "duration": 0.1875,
          "durationTicks": 192,
          "midi": 44,
          "name": "G#2",
          "ticks": 177024,
          "time": 172.875,
          "velocity": 0.3937007874015748
        },
        {
          "duration": 0.1875,
          "durationTicks": 192,
          "midi": 44,
          "name": "G#2",
          "ticks": 177024,
          "time": 172.875,
          "velocity": 0.3937007874015748
        },
        {
          "duration": 0.09375,
          "durationTicks": 96,
          "midi": 38,
          "name": "D2",
          "ticks": 177024,
          "time": 172.875,
          "velocity": 0.3937007874015748
        },
        {
          "duration": 0.09375,
          "durationTicks": 96,
          "midi": 40,
          "name": "E2",
          "ticks": 177024,
          "time": 172.875,
          "velocity": 0.3937007874015748
        },
        {
          "duration": 0.1875,
          "durationTicks": 192,
          "midi": 35,
          "name": "B1",
          "ticks": 177024,
          "time": 172.875,
          "velocity": 0.3937007874015748
        },
        {
          "duration": 0.1875,
          "durationTicks": 192,
          "midi": 36,
          "name": "C2",
          "ticks": 177024,
          "time": 172.875,
          "velocity": 0.3937007874015748
        },
        {
          "duration": 0.1875,
          "durationTicks": 192,
          "midi": 57,
          "name": "A3",
          "ticks": 177024,
          "time": 172.875,
          "velocity": 0.3937007874015748
        },
        {
          "duration": 0.1875,
          "durationTicks": 192,
          "midi": 44,
          "name": "G#2",
          "ticks": 177216,
          "time": 173.0625,
          "velocity": 0.3937007874015748
        },
        {
          "duration": 0.09375,
          "durationTicks": 96,
          "midi": 36,
          "name": "C2",
          "ticks": 177216,
          "time": 173.0625,
          "velocity": 0.3937007874015748
        },
        {
          "duration": 0.09375,
          "durationTicks": 96,
          "midi": 38,
          "name": "D2",
          "ticks": 177312,
          "time": 173.15625,
          "velocity": 0.3937007874015748
        },
        {
          "duration": 0.1875,
          "durationTicks": 192,
          "midi": 44,
          "name": "G#2",
          "ticks": 177408,
          "time": 173.25,
          "velocity": 0.3937007874015748
        },
        {
          "duration": 0.1875,
          "durationTicks": 192,
          "midi": 44,
          "name": "G#2",
          "ticks": 177408,
          "time": 173.25,
          "velocity": 0.3937007874015748
        },
        {
          "duration": 0.1875,
          "durationTicks": 192,
          "midi": 36,
          "name": "C2",
          "ticks": 177408,
          "time": 173.25,
          "velocity": 0.3937007874015748
        },
        {
          "duration": 0.1875,
          "durationTicks": 192,
          "midi": 35,
          "name": "B1",
          "ticks": 177408,
          "time": 173.25,
          "velocity": 0.3937007874015748
        },
        {
          "duration": 0.1875,
          "durationTicks": 192,
          "midi": 57,
          "name": "A3",
          "ticks": 177408,
          "time": 173.25,
          "velocity": 0.3937007874015748
        },
        {
          "duration": 0.09375,
          "durationTicks": 96,
          "midi": 38,
          "name": "D2",
          "ticks": 177504,
          "time": 173.34375,
          "velocity": 0.3937007874015748
        },
        {
          "duration": 0.1875,
          "durationTicks": 192,
          "midi": 44,
          "name": "G#2",
          "ticks": 177600,
          "time": 173.4375,
          "velocity": 0.3937007874015748
        },
        {
          "duration": 0.09375,
          "durationTicks": 96,
          "midi": 38,
          "name": "D2",
          "ticks": 177696,
          "time": 173.53125,
          "velocity": 0.3937007874015748
        },
        {
          "duration": 0.1875,
          "durationTicks": 192,
          "midi": 44,
          "name": "G#2",
          "ticks": 177792,
          "time": 173.625,
          "velocity": 0.3937007874015748
        },
        {
          "duration": 0.09375,
          "durationTicks": 96,
          "midi": 38,
          "name": "D2",
          "ticks": 177792,
          "time": 173.625,
          "velocity": 0.3937007874015748
        },
        {
          "duration": 0.1875,
          "durationTicks": 192,
          "midi": 57,
          "name": "A3",
          "ticks": 177792,
          "time": 173.625,
          "velocity": 0.3937007874015748
        },
        {
          "duration": 0.1875,
          "durationTicks": 192,
          "midi": 35,
          "name": "B1",
          "ticks": 177792,
          "time": 173.625,
          "velocity": 0.3937007874015748
        },
        {
          "duration": 0.1875,
          "durationTicks": 192,
          "midi": 44,
          "name": "G#2",
          "ticks": 177792,
          "time": 173.625,
          "velocity": 0.3937007874015748
        },
        {
          "duration": 0.09375,
          "durationTicks": 96,
          "midi": 40,
          "name": "E2",
          "ticks": 177792,
          "time": 173.625,
          "velocity": 0.3937007874015748
        },
        {
          "duration": 0.1875,
          "durationTicks": 192,
          "midi": 36,
          "name": "C2",
          "ticks": 177792,
          "time": 173.625,
          "velocity": 0.3937007874015748
        },
        {
          "duration": 0.1875,
          "durationTicks": 192,
          "midi": 44,
          "name": "G#2",
          "ticks": 177984,
          "time": 173.8125,
          "velocity": 0.3937007874015748
        },
        {
          "duration": 0.09375,
          "durationTicks": 96,
          "midi": 38,
          "name": "D2",
          "ticks": 177984,
          "time": 173.8125,
          "velocity": 0.3937007874015748
        },
        {
          "duration": 0.1875,
          "durationTicks": 192,
          "midi": 36,
          "name": "C2",
          "ticks": 178176,
          "time": 174,
          "velocity": 0.3937007874015748
        },
        {
          "duration": 0.1875,
          "durationTicks": 192,
          "midi": 35,
          "name": "B1",
          "ticks": 178176,
          "time": 174,
          "velocity": 0.3937007874015748
        },
        {
          "duration": 0.09375,
          "durationTicks": 96,
          "midi": 52,
          "name": "E3",
          "ticks": 178176,
          "time": 174,
          "velocity": 0.3937007874015748
        },
        {
          "duration": 0.1875,
          "durationTicks": 192,
          "midi": 57,
          "name": "A3",
          "ticks": 178176,
          "time": 174,
          "velocity": 0.3937007874015748
        },
        {
          "duration": 0.09375,
          "durationTicks": 96,
          "midi": 46,
          "name": "A#2",
          "ticks": 178176,
          "time": 174,
          "velocity": 0.3937007874015748
        },
        {
          "duration": 0.09375,
          "durationTicks": 96,
          "midi": 46,
          "name": "A#2",
          "ticks": 178176,
          "time": 174,
          "velocity": 0.3937007874015748
        },
        {
          "duration": 0.09375,
          "durationTicks": 96,
          "midi": 36,
          "name": "C2",
          "ticks": 178368,
          "time": 174.1875,
          "velocity": 0.3937007874015748
        },
        {
          "duration": 0.09375,
          "durationTicks": 96,
          "midi": 35,
          "name": "B1",
          "ticks": 178368,
          "time": 174.1875,
          "velocity": 0.3937007874015748
        },
        {
          "duration": 0.1875,
          "durationTicks": 192,
          "midi": 57,
          "name": "A3",
          "ticks": 178560,
          "time": 174.375,
          "velocity": 0.3937007874015748
        },
        {
          "duration": 0.09375,
          "durationTicks": 96,
          "midi": 38,
          "name": "D2",
          "ticks": 178560,
          "time": 174.375,
          "velocity": 0.3937007874015748
        },
        {
          "duration": 0.1875,
          "durationTicks": 192,
          "midi": 36,
          "name": "C2",
          "ticks": 178560,
          "time": 174.375,
          "velocity": 0.3937007874015748
        },
        {
          "duration": 0.1875,
          "durationTicks": 192,
          "midi": 35,
          "name": "B1",
          "ticks": 178560,
          "time": 174.375,
          "velocity": 0.3937007874015748
        },
        {
          "duration": 0.09375,
          "durationTicks": 96,
          "midi": 35,
          "name": "B1",
          "ticks": 178752,
          "time": 174.5625,
          "velocity": 0.3937007874015748
        },
        {
          "duration": 0.09375,
          "durationTicks": 96,
          "midi": 36,
          "name": "C2",
          "ticks": 178752,
          "time": 174.5625,
          "velocity": 0.3937007874015748
        },
        {
          "duration": 0.1875,
          "durationTicks": 192,
          "midi": 36,
          "name": "C2",
          "ticks": 178944,
          "time": 174.75,
          "velocity": 0.3937007874015748
        },
        {
          "duration": 0.1875,
          "durationTicks": 192,
          "midi": 57,
          "name": "A3",
          "ticks": 178944,
          "time": 174.75,
          "velocity": 0.3937007874015748
        },
        {
          "duration": 0.1875,
          "durationTicks": 192,
          "midi": 35,
          "name": "B1",
          "ticks": 178944,
          "time": 174.75,
          "velocity": 0.3937007874015748
        },
        {
          "duration": 0.09375,
          "durationTicks": 96,
          "midi": 36,
          "name": "C2",
          "ticks": 179136,
          "time": 174.9375,
          "velocity": 0.3937007874015748
        },
        {
          "duration": 0.1875,
          "durationTicks": 192,
          "midi": 35,
          "name": "B1",
          "ticks": 179328,
          "time": 175.125,
          "velocity": 0.3937007874015748
        },
        {
          "duration": 0.1875,
          "durationTicks": 192,
          "midi": 57,
          "name": "A3",
          "ticks": 179328,
          "time": 175.125,
          "velocity": 0.3937007874015748
        },
        {
          "duration": 0.1875,
          "durationTicks": 192,
          "midi": 36,
          "name": "C2",
          "ticks": 179328,
          "time": 175.125,
          "velocity": 0.3937007874015748
        },
        {
          "duration": 0.09375,
          "durationTicks": 96,
          "midi": 38,
          "name": "D2",
          "ticks": 179328,
          "time": 175.125,
          "velocity": 0.3937007874015748
        },
        {
          "duration": 0.09375,
          "durationTicks": 96,
          "midi": 36,
          "name": "C2",
          "ticks": 179520,
          "time": 175.3125,
          "velocity": 0.3937007874015748
        },
        {
          "duration": 0.09375,
          "durationTicks": 96,
          "midi": 36,
          "name": "C2",
          "ticks": 179712,
          "time": 175.5,
          "velocity": 0.3937007874015748
        },
        {
          "duration": 0.09375,
          "durationTicks": 96,
          "midi": 40,
          "name": "E2",
          "ticks": 179712,
          "time": 175.5,
          "velocity": 0.3937007874015748
        },
        {
          "duration": 0.09375,
          "durationTicks": 96,
          "midi": 40,
          "name": "E2",
          "ticks": 179808,
          "time": 175.59375,
          "velocity": 0.3937007874015748
        },
        {
          "duration": 0.09375,
          "durationTicks": 96,
          "midi": 36,
          "name": "C2",
          "ticks": 179808,
          "time": 175.59375,
          "velocity": 0.3937007874015748
        },
        {
          "duration": 0.09375,
          "durationTicks": 96,
          "midi": 38,
          "name": "D2",
          "ticks": 179904,
          "time": 175.6875,
          "velocity": 0.3937007874015748
        },
        {
          "duration": 0.09375,
          "durationTicks": 96,
          "midi": 35,
          "name": "B1",
          "ticks": 179904,
          "time": 175.6875,
          "velocity": 0.3937007874015748
        },
        {
          "duration": 0.09375,
          "durationTicks": 96,
          "midi": 35,
          "name": "B1",
          "ticks": 180000,
          "time": 175.78125,
          "velocity": 0.3937007874015748
        },
        {
          "duration": 0.09375,
          "durationTicks": 96,
          "midi": 38,
          "name": "D2",
          "ticks": 180000,
          "time": 175.78125,
          "velocity": 0.3937007874015748
        },
        {
          "duration": 0.09375,
          "durationTicks": 96,
          "midi": 36,
          "name": "C2",
          "ticks": 180096,
          "time": 175.875,
          "velocity": 0.3937007874015748
        },
        {
          "duration": 0.09375,
          "durationTicks": 96,
          "midi": 36,
          "name": "C2",
          "ticks": 180192,
          "time": 175.96875,
          "velocity": 0.3937007874015748
        },
        {
          "duration": 0.09375,
          "durationTicks": 96,
          "midi": 38,
          "name": "D2",
          "ticks": 180192,
          "time": 175.96875,
          "velocity": 0.3937007874015748
        },
        {
          "duration": 0.09375,
          "durationTicks": 96,
          "midi": 35,
          "name": "B1",
          "ticks": 180288,
          "time": 176.0625,
          "velocity": 0.3937007874015748
        },
        {
          "duration": 0.09375,
          "durationTicks": 96,
          "midi": 35,
          "name": "B1",
          "ticks": 180384,
          "time": 176.15625,
          "velocity": 0.3937007874015748
        },
        {
          "duration": 0.09375,
          "durationTicks": 96,
          "midi": 40,
          "name": "E2",
          "ticks": 180480,
          "time": 176.25,
          "velocity": 0.3937007874015748
        },
        {
          "duration": 0.09375,
          "durationTicks": 96,
          "midi": 36,
          "name": "C2",
          "ticks": 180480,
          "time": 176.25,
          "velocity": 0.3937007874015748
        },
        {
          "duration": 0.09375,
          "durationTicks": 96,
          "midi": 38,
          "name": "D2",
          "ticks": 180480,
          "time": 176.25,
          "velocity": 0.3937007874015748
        },
        {
          "duration": 0.09375,
          "durationTicks": 96,
          "midi": 36,
          "name": "C2",
          "ticks": 180576,
          "time": 176.34375,
          "velocity": 0.3937007874015748
        },
        {
          "duration": 0.09375,
          "durationTicks": 96,
          "midi": 35,
          "name": "B1",
          "ticks": 180672,
          "time": 176.4375,
          "velocity": 0.3937007874015748
        },
        {
          "duration": 0.09375,
          "durationTicks": 96,
          "midi": 35,
          "name": "B1",
          "ticks": 180768,
          "time": 176.53125,
          "velocity": 0.3937007874015748
        },
        {
          "duration": 0.09375,
          "durationTicks": 96,
          "midi": 36,
          "name": "C2",
          "ticks": 180864,
          "time": 176.625,
          "velocity": 0.3937007874015748
        },
        {
          "duration": 0.09375,
          "durationTicks": 96,
          "midi": 36,
          "name": "C2",
          "ticks": 180960,
          "time": 176.71875,
          "velocity": 0.3937007874015748
        },
        {
          "duration": 0.09375,
          "durationTicks": 96,
          "midi": 35,
          "name": "B1",
          "ticks": 181056,
          "time": 176.8125,
          "velocity": 0.3937007874015748
        },
        {
          "duration": 0.09375,
          "durationTicks": 96,
          "midi": 35,
          "name": "B1",
          "ticks": 181152,
          "time": 176.90625,
          "velocity": 0.3937007874015748
        },
        {
          "duration": 0.1875,
          "durationTicks": 192,
          "midi": 57,
          "name": "A3",
          "ticks": 181248,
          "time": 177,
          "velocity": 0.3937007874015748
        },
        {
          "duration": 0.1875,
          "durationTicks": 192,
          "midi": 36,
          "name": "C2",
          "ticks": 181248,
          "time": 177,
          "velocity": 0.3937007874015748
        },
        {
          "duration": 0.1875,
          "durationTicks": 192,
          "midi": 52,
          "name": "E3",
          "ticks": 181248,
          "time": 177,
          "velocity": 0.3937007874015748
        },
        {
          "duration": 0.1875,
          "durationTicks": 192,
          "midi": 44,
          "name": "G#2",
          "ticks": 181248,
          "time": 177,
          "velocity": 0.3937007874015748
        },
        {
          "duration": 0.1875,
          "durationTicks": 192,
          "midi": 44,
          "name": "G#2",
          "ticks": 181248,
          "time": 177,
          "velocity": 0.3937007874015748
        },
        {
          "duration": 0.1875,
          "durationTicks": 192,
          "midi": 35,
          "name": "B1",
          "ticks": 181248,
          "time": 177,
          "velocity": 0.3937007874015748
        },
        {
          "duration": 0.1875,
          "durationTicks": 192,
          "midi": 36,
          "name": "C2",
          "ticks": 181632,
          "time": 177.375,
          "velocity": 0.3937007874015748
        },
        {
          "duration": 0.1875,
          "durationTicks": 192,
          "midi": 35,
          "name": "B1",
          "ticks": 181632,
          "time": 177.375,
          "velocity": 0.3937007874015748
        },
        {
          "duration": 0.1875,
          "durationTicks": 192,
          "midi": 44,
          "name": "G#2",
          "ticks": 181632,
          "time": 177.375,
          "velocity": 0.3937007874015748
        },
        {
          "duration": 0.1875,
          "durationTicks": 192,
          "midi": 57,
          "name": "A3",
          "ticks": 181632,
          "time": 177.375,
          "velocity": 0.3937007874015748
        },
        {
          "duration": 0.1875,
          "durationTicks": 192,
          "midi": 44,
          "name": "G#2",
          "ticks": 181632,
          "time": 177.375,
          "velocity": 0.3937007874015748
        },
        {
          "duration": 0.09375,
          "durationTicks": 96,
          "midi": 38,
          "name": "D2",
          "ticks": 181632,
          "time": 177.375,
          "velocity": 0.3937007874015748
        },
        {
          "duration": 0.09375,
          "durationTicks": 96,
          "midi": 40,
          "name": "E2",
          "ticks": 181632,
          "time": 177.375,
          "velocity": 0.3937007874015748
        },
        {
          "duration": 0.1875,
          "durationTicks": 192,
          "midi": 44,
          "name": "G#2",
          "ticks": 182016,
          "time": 177.75,
          "velocity": 0.3937007874015748
        },
        {
          "duration": 0.1875,
          "durationTicks": 192,
          "midi": 36,
          "name": "C2",
          "ticks": 182016,
          "time": 177.75,
          "velocity": 0.3937007874015748
        },
        {
          "duration": 0.1875,
          "durationTicks": 192,
          "midi": 35,
          "name": "B1",
          "ticks": 182016,
          "time": 177.75,
          "velocity": 0.3937007874015748
        },
        {
          "duration": 0.1875,
          "durationTicks": 192,
          "midi": 44,
          "name": "G#2",
          "ticks": 182016,
          "time": 177.75,
          "velocity": 0.3937007874015748
        },
        {
          "duration": 0.1875,
          "durationTicks": 192,
          "midi": 57,
          "name": "A3",
          "ticks": 182016,
          "time": 177.75,
          "velocity": 0.3937007874015748
        },
        {
          "duration": 0.1875,
          "durationTicks": 192,
          "midi": 35,
          "name": "B1",
          "ticks": 182400,
          "time": 178.125,
          "velocity": 0.3937007874015748
        },
        {
          "duration": 0.1875,
          "durationTicks": 192,
          "midi": 36,
          "name": "C2",
          "ticks": 182400,
          "time": 178.125,
          "velocity": 0.3937007874015748
        },
        {
          "duration": 0.09375,
          "durationTicks": 96,
          "midi": 40,
          "name": "E2",
          "ticks": 182400,
          "time": 178.125,
          "velocity": 0.3937007874015748
        },
        {
          "duration": 0.1875,
          "durationTicks": 192,
          "midi": 57,
          "name": "A3",
          "ticks": 182400,
          "time": 178.125,
          "velocity": 0.3937007874015748
        },
        {
          "duration": 0.1875,
          "durationTicks": 192,
          "midi": 44,
          "name": "G#2",
          "ticks": 182400,
          "time": 178.125,
          "velocity": 0.3937007874015748
        },
        {
          "duration": 0.1875,
          "durationTicks": 192,
          "midi": 44,
          "name": "G#2",
          "ticks": 182400,
          "time": 178.125,
          "velocity": 0.3937007874015748
        },
        {
          "duration": 0.09375,
          "durationTicks": 96,
          "midi": 38,
          "name": "D2",
          "ticks": 182400,
          "time": 178.125,
          "velocity": 0.3937007874015748
        },
        {
          "duration": 0.1875,
          "durationTicks": 192,
          "midi": 44,
          "name": "G#2",
          "ticks": 182784,
          "time": 178.5,
          "velocity": 0.3937007874015748
        },
        {
          "duration": 0.1875,
          "durationTicks": 192,
          "midi": 57,
          "name": "A3",
          "ticks": 182784,
          "time": 178.5,
          "velocity": 0.3937007874015748
        },
        {
          "duration": 0.1875,
          "durationTicks": 192,
          "midi": 44,
          "name": "G#2",
          "ticks": 182784,
          "time": 178.5,
          "velocity": 0.3937007874015748
        },
        {
          "duration": 0.1875,
          "durationTicks": 192,
          "midi": 35,
          "name": "B1",
          "ticks": 182784,
          "time": 178.5,
          "velocity": 0.3937007874015748
        },
        {
          "duration": 0.1875,
          "durationTicks": 192,
          "midi": 52,
          "name": "E3",
          "ticks": 182784,
          "time": 178.5,
          "velocity": 0.3937007874015748
        },
        {
          "duration": 0.1875,
          "durationTicks": 192,
          "midi": 36,
          "name": "C2",
          "ticks": 182784,
          "time": 178.5,
          "velocity": 0.3937007874015748
        },
        {
          "duration": 0.09375,
          "durationTicks": 96,
          "midi": 38,
          "name": "D2",
          "ticks": 183168,
          "time": 178.875,
          "velocity": 0.3937007874015748
        },
        {
          "duration": 0.1875,
          "durationTicks": 192,
          "midi": 44,
          "name": "G#2",
          "ticks": 183168,
          "time": 178.875,
          "velocity": 0.3937007874015748
        },
        {
          "duration": 0.1875,
          "durationTicks": 192,
          "midi": 57,
          "name": "A3",
          "ticks": 183168,
          "time": 178.875,
          "velocity": 0.3937007874015748
        },
        {
          "duration": 0.09375,
          "durationTicks": 96,
          "midi": 40,
          "name": "E2",
          "ticks": 183168,
          "time": 178.875,
          "velocity": 0.3937007874015748
        },
        {
          "duration": 0.1875,
          "durationTicks": 192,
          "midi": 35,
          "name": "B1",
          "ticks": 183168,
          "time": 178.875,
          "velocity": 0.3937007874015748
        },
        {
          "duration": 0.1875,
          "durationTicks": 192,
          "midi": 44,
          "name": "G#2",
          "ticks": 183168,
          "time": 178.875,
          "velocity": 0.3937007874015748
        },
        {
          "duration": 0.1875,
          "durationTicks": 192,
          "midi": 36,
          "name": "C2",
          "ticks": 183168,
          "time": 178.875,
          "velocity": 0.3937007874015748
        },
        {
          "duration": 0.1875,
          "durationTicks": 192,
          "midi": 35,
          "name": "B1",
          "ticks": 183552,
          "time": 179.25,
          "velocity": 0.3937007874015748
        },
        {
          "duration": 0.1875,
          "durationTicks": 192,
          "midi": 57,
          "name": "A3",
          "ticks": 183552,
          "time": 179.25,
          "velocity": 0.3937007874015748
        },
        {
          "duration": 0.1875,
          "durationTicks": 192,
          "midi": 36,
          "name": "C2",
          "ticks": 183552,
          "time": 179.25,
          "velocity": 0.3937007874015748
        },
        {
          "duration": 0.1875,
          "durationTicks": 192,
          "midi": 44,
          "name": "G#2",
          "ticks": 183552,
          "time": 179.25,
          "velocity": 0.3937007874015748
        },
        {
          "duration": 0.1875,
          "durationTicks": 192,
          "midi": 44,
          "name": "G#2",
          "ticks": 183552,
          "time": 179.25,
          "velocity": 0.3937007874015748
        },
        {
          "duration": 0.1875,
          "durationTicks": 192,
          "midi": 35,
          "name": "B1",
          "ticks": 183936,
          "time": 179.625,
          "velocity": 0.3937007874015748
        },
        {
          "duration": 0.1875,
          "durationTicks": 192,
          "midi": 57,
          "name": "A3",
          "ticks": 183936,
          "time": 179.625,
          "velocity": 0.3937007874015748
        },
        {
          "duration": 0.1875,
          "durationTicks": 192,
          "midi": 36,
          "name": "C2",
          "ticks": 183936,
          "time": 179.625,
          "velocity": 0.3937007874015748
        },
        {
          "duration": 0.1875,
          "durationTicks": 192,
          "midi": 44,
          "name": "G#2",
          "ticks": 183936,
          "time": 179.625,
          "velocity": 0.3937007874015748
        },
        {
          "duration": 0.1875,
          "durationTicks": 192,
          "midi": 44,
          "name": "G#2",
          "ticks": 183936,
          "time": 179.625,
          "velocity": 0.3937007874015748
        },
        {
          "duration": 0.09375,
          "durationTicks": 96,
          "midi": 38,
          "name": "D2",
          "ticks": 183936,
          "time": 179.625,
          "velocity": 0.3937007874015748
        },
        {
          "duration": 0.09375,
          "durationTicks": 96,
          "midi": 40,
          "name": "E2",
          "ticks": 183936,
          "time": 179.625,
          "velocity": 0.3937007874015748
        },
        {
          "duration": 0.1875,
          "durationTicks": 192,
          "midi": 36,
          "name": "C2",
          "ticks": 184320,
          "time": 180,
          "velocity": 0.3937007874015748
        },
        {
          "duration": 0.1875,
          "durationTicks": 192,
          "midi": 44,
          "name": "G#2",
          "ticks": 184320,
          "time": 180,
          "velocity": 0.3937007874015748
        },
        {
          "duration": 0.1875,
          "durationTicks": 192,
          "midi": 57,
          "name": "A3",
          "ticks": 184320,
          "time": 180,
          "velocity": 0.3937007874015748
        },
        {
          "duration": 0.1875,
          "durationTicks": 192,
          "midi": 44,
          "name": "G#2",
          "ticks": 184320,
          "time": 180,
          "velocity": 0.3937007874015748
        },
        {
          "duration": 0.1875,
          "durationTicks": 192,
          "midi": 35,
          "name": "B1",
          "ticks": 184320,
          "time": 180,
          "velocity": 0.3937007874015748
        },
        {
          "duration": 0.1875,
          "durationTicks": 192,
          "midi": 52,
          "name": "E3",
          "ticks": 184320,
          "time": 180,
          "velocity": 0.3937007874015748
        },
        {
          "duration": 0.1875,
          "durationTicks": 192,
          "midi": 44,
          "name": "G#2",
          "ticks": 184704,
          "time": 180.375,
          "velocity": 0.3937007874015748
        },
        {
          "duration": 0.09375,
          "durationTicks": 96,
          "midi": 38,
          "name": "D2",
          "ticks": 184704,
          "time": 180.375,
          "velocity": 0.3937007874015748
        },
        {
          "duration": 0.1875,
          "durationTicks": 192,
          "midi": 44,
          "name": "G#2",
          "ticks": 184704,
          "time": 180.375,
          "velocity": 0.3937007874015748
        },
        {
          "duration": 0.1875,
          "durationTicks": 192,
          "midi": 35,
          "name": "B1",
          "ticks": 184704,
          "time": 180.375,
          "velocity": 0.3937007874015748
        },
        {
          "duration": 0.09375,
          "durationTicks": 96,
          "midi": 40,
          "name": "E2",
          "ticks": 184704,
          "time": 180.375,
          "velocity": 0.3937007874015748
        },
        {
          "duration": 0.1875,
          "durationTicks": 192,
          "midi": 57,
          "name": "A3",
          "ticks": 184704,
          "time": 180.375,
          "velocity": 0.3937007874015748
        },
        {
          "duration": 0.1875,
          "durationTicks": 192,
          "midi": 36,
          "name": "C2",
          "ticks": 184704,
          "time": 180.375,
          "velocity": 0.3937007874015748
        },
        {
          "duration": 0.1875,
          "durationTicks": 192,
          "midi": 35,
          "name": "B1",
          "ticks": 185088,
          "time": 180.75,
          "velocity": 0.3937007874015748
        },
        {
          "duration": 0.1875,
          "durationTicks": 192,
          "midi": 36,
          "name": "C2",
          "ticks": 185088,
          "time": 180.75,
          "velocity": 0.3937007874015748
        },
        {
          "duration": 0.1875,
          "durationTicks": 192,
          "midi": 44,
          "name": "G#2",
          "ticks": 185088,
          "time": 180.75,
          "velocity": 0.3937007874015748
        },
        {
          "duration": 0.1875,
          "durationTicks": 192,
          "midi": 44,
          "name": "G#2",
          "ticks": 185088,
          "time": 180.75,
          "velocity": 0.3937007874015748
        },
        {
          "duration": 0.1875,
          "durationTicks": 192,
          "midi": 57,
          "name": "A3",
          "ticks": 185088,
          "time": 180.75,
          "velocity": 0.3937007874015748
        },
        {
          "duration": 0.1875,
          "durationTicks": 192,
          "midi": 35,
          "name": "B1",
          "ticks": 185472,
          "time": 181.125,
          "velocity": 0.3937007874015748
        },
        {
          "duration": 0.1875,
          "durationTicks": 192,
          "midi": 36,
          "name": "C2",
          "ticks": 185472,
          "time": 181.125,
          "velocity": 0.3937007874015748
        },
        {
          "duration": 0.1875,
          "durationTicks": 192,
          "midi": 57,
          "name": "A3",
          "ticks": 185472,
          "time": 181.125,
          "velocity": 0.3937007874015748
        },
        {
          "duration": 0.09375,
          "durationTicks": 96,
          "midi": 38,
          "name": "D2",
          "ticks": 185472,
          "time": 181.125,
          "velocity": 0.3937007874015748
        },
        {
          "duration": 0.1875,
          "durationTicks": 192,
          "midi": 44,
          "name": "G#2",
          "ticks": 185472,
          "time": 181.125,
          "velocity": 0.3937007874015748
        },
        {
          "duration": 0.09375,
          "durationTicks": 96,
          "midi": 40,
          "name": "E2",
          "ticks": 185472,
          "time": 181.125,
          "velocity": 0.3937007874015748
        },
        {
          "duration": 0.1875,
          "durationTicks": 192,
          "midi": 44,
          "name": "G#2",
          "ticks": 185472,
          "time": 181.125,
          "velocity": 0.3937007874015748
        },
        {
          "duration": 0.1875,
          "durationTicks": 192,
          "midi": 57,
          "name": "A3",
          "ticks": 185856,
          "time": 181.5,
          "velocity": 0.3937007874015748
        },
        {
          "duration": 0.1875,
          "durationTicks": 192,
          "midi": 35,
          "name": "B1",
          "ticks": 185856,
          "time": 181.5,
          "velocity": 0.3937007874015748
        },
        {
          "duration": 0.1875,
          "durationTicks": 192,
          "midi": 52,
          "name": "E3",
          "ticks": 185856,
          "time": 181.5,
          "velocity": 0.3937007874015748
        },
        {
          "duration": 0.1875,
          "durationTicks": 192,
          "midi": 36,
          "name": "C2",
          "ticks": 185856,
          "time": 181.5,
          "velocity": 0.3937007874015748
        },
        {
          "duration": 0.1875,
          "durationTicks": 192,
          "midi": 44,
          "name": "G#2",
          "ticks": 185856,
          "time": 181.5,
          "velocity": 0.3937007874015748
        },
        {
          "duration": 0.1875,
          "durationTicks": 192,
          "midi": 44,
          "name": "G#2",
          "ticks": 185856,
          "time": 181.5,
          "velocity": 0.3937007874015748
        },
        {
          "duration": 0.1875,
          "durationTicks": 192,
          "midi": 44,
          "name": "G#2",
          "ticks": 186240,
          "time": 181.875,
          "velocity": 0.3937007874015748
        },
        {
          "duration": 0.1875,
          "durationTicks": 192,
          "midi": 44,
          "name": "G#2",
          "ticks": 186240,
          "time": 181.875,
          "velocity": 0.3937007874015748
        },
        {
          "duration": 0.09375,
          "durationTicks": 96,
          "midi": 38,
          "name": "D2",
          "ticks": 186240,
          "time": 181.875,
          "velocity": 0.3937007874015748
        },
        {
          "duration": 0.1875,
          "durationTicks": 192,
          "midi": 35,
          "name": "B1",
          "ticks": 186240,
          "time": 181.875,
          "velocity": 0.3937007874015748
        },
        {
          "duration": 0.1875,
          "durationTicks": 192,
          "midi": 36,
          "name": "C2",
          "ticks": 186240,
          "time": 181.875,
          "velocity": 0.3937007874015748
        },
        {
          "duration": 0.09375,
          "durationTicks": 96,
          "midi": 40,
          "name": "E2",
          "ticks": 186240,
          "time": 181.875,
          "velocity": 0.3937007874015748
        },
        {
          "duration": 0.1875,
          "durationTicks": 192,
          "midi": 57,
          "name": "A3",
          "ticks": 186240,
          "time": 181.875,
          "velocity": 0.3937007874015748
        },
        {
          "duration": 0.1875,
          "durationTicks": 192,
          "midi": 44,
          "name": "G#2",
          "ticks": 186624,
          "time": 182.25,
          "velocity": 0.3937007874015748
        },
        {
          "duration": 0.1875,
          "durationTicks": 192,
          "midi": 36,
          "name": "C2",
          "ticks": 186624,
          "time": 182.25,
          "velocity": 0.3937007874015748
        },
        {
          "duration": 0.1875,
          "durationTicks": 192,
          "midi": 44,
          "name": "G#2",
          "ticks": 186624,
          "time": 182.25,
          "velocity": 0.3937007874015748
        },
        {
          "duration": 0.1875,
          "durationTicks": 192,
          "midi": 57,
          "name": "A3",
          "ticks": 186624,
          "time": 182.25,
          "velocity": 0.3937007874015748
        },
        {
          "duration": 0.1875,
          "durationTicks": 192,
          "midi": 35,
          "name": "B1",
          "ticks": 186624,
          "time": 182.25,
          "velocity": 0.3937007874015748
        },
        {
          "duration": 0.1875,
          "durationTicks": 192,
          "midi": 36,
          "name": "C2",
          "ticks": 186816,
          "time": 182.4375,
          "velocity": 0.3937007874015748
        },
        {
          "duration": 0.1875,
          "durationTicks": 192,
          "midi": 35,
          "name": "B1",
          "ticks": 186816,
          "time": 182.4375,
          "velocity": 0.3937007874015748
        },
        {
          "duration": 0.09375,
          "durationTicks": 96,
          "midi": 40,
          "name": "E2",
          "ticks": 186912,
          "time": 182.53125,
          "velocity": 0.3937007874015748
        },
        {
          "duration": 0.09375,
          "durationTicks": 96,
          "midi": 38,
          "name": "D2",
          "ticks": 186912,
          "time": 182.53125,
          "velocity": 0.3937007874015748
        },
        {
          "duration": 0.09375,
          "durationTicks": 96,
          "midi": 38,
          "name": "D2",
          "ticks": 187008,
          "time": 182.625,
          "velocity": 0.3937007874015748
        },
        {
          "duration": 0.1875,
          "durationTicks": 192,
          "midi": 57,
          "name": "A3",
          "ticks": 187008,
          "time": 182.625,
          "velocity": 0.3937007874015748
        },
        {
          "duration": 0.1875,
          "durationTicks": 192,
          "midi": 44,
          "name": "G#2",
          "ticks": 187008,
          "time": 182.625,
          "velocity": 0.3937007874015748
        },
        {
          "duration": 0.09375,
          "durationTicks": 96,
          "midi": 40,
          "name": "E2",
          "ticks": 187008,
          "time": 182.625,
          "velocity": 0.3937007874015748
        },
        {
          "duration": 0.1875,
          "durationTicks": 192,
          "midi": 44,
          "name": "G#2",
          "ticks": 187008,
          "time": 182.625,
          "velocity": 0.3937007874015748
        },
        {
          "duration": 0.09375,
          "durationTicks": 96,
          "midi": 38,
          "name": "D2",
          "ticks": 187200,
          "time": 182.8125,
          "velocity": 0.3937007874015748
        },
        {
          "duration": 0.09375,
          "durationTicks": 96,
          "midi": 40,
          "name": "E2",
          "ticks": 187200,
          "time": 182.8125,
          "velocity": 0.3937007874015748
        },
        {
          "duration": 0.1875,
          "durationTicks": 192,
          "midi": 35,
          "name": "B1",
          "ticks": 187392,
          "time": 183,
          "velocity": 0.3937007874015748
        },
        {
          "duration": 0.1875,
          "durationTicks": 192,
          "midi": 52,
          "name": "E3",
          "ticks": 187392,
          "time": 183,
          "velocity": 0.3937007874015748
        },
        {
          "duration": 0.1875,
          "durationTicks": 192,
          "midi": 36,
          "name": "C2",
          "ticks": 187392,
          "time": 183,
          "velocity": 0.3937007874015748
        },
        {
          "duration": 0.1875,
          "durationTicks": 192,
          "midi": 57,
          "name": "A3",
          "ticks": 187392,
          "time": 183,
          "velocity": 0.3937007874015748
        },
        {
          "duration": 0.1875,
          "durationTicks": 192,
          "midi": 44,
          "name": "G#2",
          "ticks": 187392,
          "time": 183,
          "velocity": 0.3937007874015748
        },
        {
          "duration": 0.1875,
          "durationTicks": 192,
          "midi": 44,
          "name": "G#2",
          "ticks": 187392,
          "time": 183,
          "velocity": 0.3937007874015748
        },
        {
          "duration": 0.1875,
          "durationTicks": 192,
          "midi": 57,
          "name": "A3",
          "ticks": 187776,
          "time": 183.375,
          "velocity": 0.3937007874015748
        },
        {
          "duration": 0.1875,
          "durationTicks": 192,
          "midi": 44,
          "name": "G#2",
          "ticks": 187776,
          "time": 183.375,
          "velocity": 0.3937007874015748
        },
        {
          "duration": 0.1875,
          "durationTicks": 192,
          "midi": 35,
          "name": "B1",
          "ticks": 187776,
          "time": 183.375,
          "velocity": 0.3937007874015748
        },
        {
          "duration": 0.1875,
          "durationTicks": 192,
          "midi": 36,
          "name": "C2",
          "ticks": 187776,
          "time": 183.375,
          "velocity": 0.3937007874015748
        },
        {
          "duration": 0.09375,
          "durationTicks": 96,
          "midi": 38,
          "name": "D2",
          "ticks": 187776,
          "time": 183.375,
          "velocity": 0.3937007874015748
        },
        {
          "duration": 0.09375,
          "durationTicks": 96,
          "midi": 40,
          "name": "E2",
          "ticks": 187776,
          "time": 183.375,
          "velocity": 0.3937007874015748
        },
        {
          "duration": 0.1875,
          "durationTicks": 192,
          "midi": 44,
          "name": "G#2",
          "ticks": 187776,
          "time": 183.375,
          "velocity": 0.3937007874015748
        },
        {
          "duration": 0.1875,
          "durationTicks": 192,
          "midi": 35,
          "name": "B1",
          "ticks": 188160,
          "time": 183.75,
          "velocity": 0.3937007874015748
        },
        {
          "duration": 0.1875,
          "durationTicks": 192,
          "midi": 44,
          "name": "G#2",
          "ticks": 188160,
          "time": 183.75,
          "velocity": 0.3937007874015748
        },
        {
          "duration": 0.1875,
          "durationTicks": 192,
          "midi": 36,
          "name": "C2",
          "ticks": 188160,
          "time": 183.75,
          "velocity": 0.3937007874015748
        },
        {
          "duration": 0.1875,
          "durationTicks": 192,
          "midi": 44,
          "name": "G#2",
          "ticks": 188160,
          "time": 183.75,
          "velocity": 0.3937007874015748
        },
        {
          "duration": 0.1875,
          "durationTicks": 192,
          "midi": 57,
          "name": "A3",
          "ticks": 188160,
          "time": 183.75,
          "velocity": 0.3937007874015748
        },
        {
          "duration": 0.09375,
          "durationTicks": 96,
          "midi": 38,
          "name": "D2",
          "ticks": 188544,
          "time": 184.125,
          "velocity": 0.3937007874015748
        },
        {
          "duration": 0.1875,
          "durationTicks": 192,
          "midi": 57,
          "name": "A3",
          "ticks": 188544,
          "time": 184.125,
          "velocity": 0.3937007874015748
        },
        {
          "duration": 0.1875,
          "durationTicks": 192,
          "midi": 36,
          "name": "C2",
          "ticks": 188544,
          "time": 184.125,
          "velocity": 0.3937007874015748
        },
        {
          "duration": 0.1875,
          "durationTicks": 192,
          "midi": 35,
          "name": "B1",
          "ticks": 188544,
          "time": 184.125,
          "velocity": 0.3937007874015748
        },
        {
          "duration": 0.09375,
          "durationTicks": 96,
          "midi": 40,
          "name": "E2",
          "ticks": 188544,
          "time": 184.125,
          "velocity": 0.3937007874015748
        },
        {
          "duration": 0.1875,
          "durationTicks": 192,
          "midi": 44,
          "name": "G#2",
          "ticks": 188544,
          "time": 184.125,
          "velocity": 0.3937007874015748
        },
        {
          "duration": 0.1875,
          "durationTicks": 192,
          "midi": 44,
          "name": "G#2",
          "ticks": 188544,
          "time": 184.125,
          "velocity": 0.3937007874015748
        },
        {
          "duration": 0.1875,
          "durationTicks": 192,
          "midi": 57,
          "name": "A3",
          "ticks": 188928,
          "time": 184.5,
          "velocity": 0.3937007874015748
        },
        {
          "duration": 0.1875,
          "durationTicks": 192,
          "midi": 36,
          "name": "C2",
          "ticks": 188928,
          "time": 184.5,
          "velocity": 0.3937007874015748
        },
        {
          "duration": 0.1875,
          "durationTicks": 192,
          "midi": 52,
          "name": "E3",
          "ticks": 188928,
          "time": 184.5,
          "velocity": 0.3937007874015748
        },
        {
          "duration": 0.1875,
          "durationTicks": 192,
          "midi": 44,
          "name": "G#2",
          "ticks": 188928,
          "time": 184.5,
          "velocity": 0.3937007874015748
        },
        {
          "duration": 0.1875,
          "durationTicks": 192,
          "midi": 44,
          "name": "G#2",
          "ticks": 188928,
          "time": 184.5,
          "velocity": 0.3937007874015748
        },
        {
          "duration": 0.1875,
          "durationTicks": 192,
          "midi": 35,
          "name": "B1",
          "ticks": 188928,
          "time": 184.5,
          "velocity": 0.3937007874015748
        },
        {
          "duration": 0.1875,
          "durationTicks": 192,
          "midi": 35,
          "name": "B1",
          "ticks": 189312,
          "time": 184.875,
          "velocity": 0.3937007874015748
        },
        {
          "duration": 0.09375,
          "durationTicks": 96,
          "midi": 38,
          "name": "D2",
          "ticks": 189312,
          "time": 184.875,
          "velocity": 0.3937007874015748
        },
        {
          "duration": 0.1875,
          "durationTicks": 192,
          "midi": 44,
          "name": "G#2",
          "ticks": 189312,
          "time": 184.875,
          "velocity": 0.3937007874015748
        },
        {
          "duration": 0.1875,
          "durationTicks": 192,
          "midi": 36,
          "name": "C2",
          "ticks": 189312,
          "time": 184.875,
          "velocity": 0.3937007874015748
        },
        {
          "duration": 0.09375,
          "durationTicks": 96,
          "midi": 40,
          "name": "E2",
          "ticks": 189312,
          "time": 184.875,
          "velocity": 0.3937007874015748
        },
        {
          "duration": 0.1875,
          "durationTicks": 192,
          "midi": 57,
          "name": "A3",
          "ticks": 189312,
          "time": 184.875,
          "velocity": 0.3937007874015748
        },
        {
          "duration": 0.1875,
          "durationTicks": 192,
          "midi": 44,
          "name": "G#2",
          "ticks": 189312,
          "time": 184.875,
          "velocity": 0.3937007874015748
        },
        {
          "duration": 0.1875,
          "durationTicks": 192,
          "midi": 44,
          "name": "G#2",
          "ticks": 189696,
          "time": 185.25,
          "velocity": 0.3937007874015748
        },
        {
          "duration": 0.1875,
          "durationTicks": 192,
          "midi": 36,
          "name": "C2",
          "ticks": 189696,
          "time": 185.25,
          "velocity": 0.3937007874015748
        },
        {
          "duration": 0.1875,
          "durationTicks": 192,
          "midi": 35,
          "name": "B1",
          "ticks": 189696,
          "time": 185.25,
          "velocity": 0.3937007874015748
        },
        {
          "duration": 0.1875,
          "durationTicks": 192,
          "midi": 57,
          "name": "A3",
          "ticks": 189696,
          "time": 185.25,
          "velocity": 0.3937007874015748
        },
        {
          "duration": 0.1875,
          "durationTicks": 192,
          "midi": 44,
          "name": "G#2",
          "ticks": 189696,
          "time": 185.25,
          "velocity": 0.3937007874015748
        },
        {
          "duration": 0.1875,
          "durationTicks": 192,
          "midi": 44,
          "name": "G#2",
          "ticks": 190080,
          "time": 185.625,
          "velocity": 0.3937007874015748
        },
        {
          "duration": 0.1875,
          "durationTicks": 192,
          "midi": 35,
          "name": "B1",
          "ticks": 190080,
          "time": 185.625,
          "velocity": 0.3937007874015748
        },
        {
          "duration": 0.09375,
          "durationTicks": 96,
          "midi": 38,
          "name": "D2",
          "ticks": 190080,
          "time": 185.625,
          "velocity": 0.3937007874015748
        },
        {
          "duration": 0.1875,
          "durationTicks": 192,
          "midi": 44,
          "name": "G#2",
          "ticks": 190080,
          "time": 185.625,
          "velocity": 0.3937007874015748
        },
        {
          "duration": 0.1875,
          "durationTicks": 192,
          "midi": 57,
          "name": "A3",
          "ticks": 190080,
          "time": 185.625,
          "velocity": 0.3937007874015748
        },
        {
          "duration": 0.1875,
          "durationTicks": 192,
          "midi": 36,
          "name": "C2",
          "ticks": 190080,
          "time": 185.625,
          "velocity": 0.3937007874015748
        },
        {
          "duration": 0.09375,
          "durationTicks": 96,
          "midi": 40,
          "name": "E2",
          "ticks": 190080,
          "time": 185.625,
          "velocity": 0.3937007874015748
        },
        {
          "duration": 0.1875,
          "durationTicks": 192,
          "midi": 35,
          "name": "B1",
          "ticks": 190464,
          "time": 186,
          "velocity": 0.3937007874015748
        },
        {
          "duration": 0.1875,
          "durationTicks": 192,
          "midi": 36,
          "name": "C2",
          "ticks": 190464,
          "time": 186,
          "velocity": 0.3937007874015748
        },
        {
          "duration": 0.1875,
          "durationTicks": 192,
          "midi": 44,
          "name": "G#2",
          "ticks": 190464,
          "time": 186,
          "velocity": 0.3937007874015748
        },
        {
          "duration": 0.1875,
          "durationTicks": 192,
          "midi": 52,
          "name": "E3",
          "ticks": 190464,
          "time": 186,
          "velocity": 0.3937007874015748
        },
        {
          "duration": 0.1875,
          "durationTicks": 192,
          "midi": 44,
          "name": "G#2",
          "ticks": 190464,
          "time": 186,
          "velocity": 0.3937007874015748
        },
        {
          "duration": 0.1875,
          "durationTicks": 192,
          "midi": 57,
          "name": "A3",
          "ticks": 190464,
          "time": 186,
          "velocity": 0.3937007874015748
        },
        {
          "duration": 0.09375,
          "durationTicks": 96,
          "midi": 38,
          "name": "D2",
          "ticks": 190848,
          "time": 186.375,
          "velocity": 0.3937007874015748
        },
        {
          "duration": 0.1875,
          "durationTicks": 192,
          "midi": 57,
          "name": "A3",
          "ticks": 190848,
          "time": 186.375,
          "velocity": 0.3937007874015748
        },
        {
          "duration": 0.1875,
          "durationTicks": 192,
          "midi": 44,
          "name": "G#2",
          "ticks": 190848,
          "time": 186.375,
          "velocity": 0.3937007874015748
        },
        {
          "duration": 0.09375,
          "durationTicks": 96,
          "midi": 40,
          "name": "E2",
          "ticks": 190848,
          "time": 186.375,
          "velocity": 0.3937007874015748
        },
        {
          "duration": 0.1875,
          "durationTicks": 192,
          "midi": 36,
          "name": "C2",
          "ticks": 190848,
          "time": 186.375,
          "velocity": 0.3937007874015748
        },
        {
          "duration": 0.1875,
          "durationTicks": 192,
          "midi": 35,
          "name": "B1",
          "ticks": 190848,
          "time": 186.375,
          "velocity": 0.3937007874015748
        },
        {
          "duration": 0.1875,
          "durationTicks": 192,
          "midi": 44,
          "name": "G#2",
          "ticks": 190848,
          "time": 186.375,
          "velocity": 0.3937007874015748
        },
        {
          "duration": 0.1875,
          "durationTicks": 192,
          "midi": 36,
          "name": "C2",
          "ticks": 191232,
          "time": 186.75,
          "velocity": 0.3937007874015748
        },
        {
          "duration": 0.1875,
          "durationTicks": 192,
          "midi": 44,
          "name": "G#2",
          "ticks": 191232,
          "time": 186.75,
          "velocity": 0.3937007874015748
        },
        {
          "duration": 0.1875,
          "durationTicks": 192,
          "midi": 35,
          "name": "B1",
          "ticks": 191232,
          "time": 186.75,
          "velocity": 0.3937007874015748
        },
        {
          "duration": 0.1875,
          "durationTicks": 192,
          "midi": 44,
          "name": "G#2",
          "ticks": 191232,
          "time": 186.75,
          "velocity": 0.3937007874015748
        },
        {
          "duration": 0.1875,
          "durationTicks": 192,
          "midi": 57,
          "name": "A3",
          "ticks": 191232,
          "time": 186.75,
          "velocity": 0.3937007874015748
        },
        {
          "duration": 0.1875,
          "durationTicks": 192,
          "midi": 44,
          "name": "G#2",
          "ticks": 191616,
          "time": 187.125,
          "velocity": 0.3937007874015748
        },
        {
          "duration": 0.1875,
          "durationTicks": 192,
          "midi": 57,
          "name": "A3",
          "ticks": 191616,
          "time": 187.125,
          "velocity": 0.3937007874015748
        },
        {
          "duration": 0.1875,
          "durationTicks": 192,
          "midi": 36,
          "name": "C2",
          "ticks": 191616,
          "time": 187.125,
          "velocity": 0.3937007874015748
        },
        {
          "duration": 0.1875,
          "durationTicks": 192,
          "midi": 35,
          "name": "B1",
          "ticks": 191616,
          "time": 187.125,
          "velocity": 0.3937007874015748
        },
        {
          "duration": 0.09375,
          "durationTicks": 96,
          "midi": 40,
          "name": "E2",
          "ticks": 191616,
          "time": 187.125,
          "velocity": 0.3937007874015748
        },
        {
          "duration": 0.09375,
          "durationTicks": 96,
          "midi": 38,
          "name": "D2",
          "ticks": 191616,
          "time": 187.125,
          "velocity": 0.3937007874015748
        },
        {
          "duration": 0.1875,
          "durationTicks": 192,
          "midi": 44,
          "name": "G#2",
          "ticks": 191616,
          "time": 187.125,
          "velocity": 0.3937007874015748
        },
        {
          "duration": 0.1875,
          "durationTicks": 192,
          "midi": 44,
          "name": "G#2",
          "ticks": 192000,
          "time": 187.5,
          "velocity": 0.3937007874015748
        },
        {
          "duration": 0.1875,
          "durationTicks": 192,
          "midi": 52,
          "name": "E3",
          "ticks": 192000,
          "time": 187.5,
          "velocity": 0.3937007874015748
        },
        {
          "duration": 0.1875,
          "durationTicks": 192,
          "midi": 35,
          "name": "B1",
          "ticks": 192000,
          "time": 187.5,
          "velocity": 0.3937007874015748
        },
        {
          "duration": 0.1875,
          "durationTicks": 192,
          "midi": 57,
          "name": "A3",
          "ticks": 192000,
          "time": 187.5,
          "velocity": 0.3937007874015748
        },
        {
          "duration": 0.1875,
          "durationTicks": 192,
          "midi": 36,
          "name": "C2",
          "ticks": 192000,
          "time": 187.5,
          "velocity": 0.3937007874015748
        },
        {
          "duration": 0.1875,
          "durationTicks": 192,
          "midi": 44,
          "name": "G#2",
          "ticks": 192000,
          "time": 187.5,
          "velocity": 0.3937007874015748
        },
        {
          "duration": 0.09375,
          "durationTicks": 96,
          "midi": 40,
          "name": "E2",
          "ticks": 192768,
          "time": 188.25,
          "velocity": 0.3937007874015748
        },
        {
          "duration": 0.09375,
          "durationTicks": 96,
          "midi": 38,
          "name": "D2",
          "ticks": 192768,
          "time": 188.25,
          "velocity": 0.3937007874015748
        },
        {
          "duration": 0.09375,
          "durationTicks": 96,
          "midi": 38,
          "name": "D2",
          "ticks": 192864,
          "time": 188.34375,
          "velocity": 0.3937007874015748
        },
        {
          "duration": 0.09375,
          "durationTicks": 96,
          "midi": 35,
          "name": "B1",
          "ticks": 192960,
          "time": 188.4375,
          "velocity": 0.3937007874015748
        },
        {
          "duration": 0.09375,
          "durationTicks": 96,
          "midi": 36,
          "name": "C2",
          "ticks": 192960,
          "time": 188.4375,
          "velocity": 0.3937007874015748
        },
        {
          "duration": 0.09375,
          "durationTicks": 96,
          "midi": 35,
          "name": "B1",
          "ticks": 193056,
          "time": 188.53125,
          "velocity": 0.3937007874015748
        },
        {
          "duration": 0.09375,
          "durationTicks": 96,
          "midi": 36,
          "name": "C2",
          "ticks": 193056,
          "time": 188.53125,
          "velocity": 0.3937007874015748
        },
        {
          "duration": 0.09375,
          "durationTicks": 96,
          "midi": 40,
          "name": "E2",
          "ticks": 193152,
          "time": 188.625,
          "velocity": 0.3937007874015748
        },
        {
          "duration": 0.09375,
          "durationTicks": 96,
          "midi": 38,
          "name": "D2",
          "ticks": 193152,
          "time": 188.625,
          "velocity": 0.3937007874015748
        },
        {
          "duration": 0.09375,
          "durationTicks": 96,
          "midi": 38,
          "name": "D2",
          "ticks": 193248,
          "time": 188.71875,
          "velocity": 0.3937007874015748
        },
        {
          "duration": 0.09375,
          "durationTicks": 96,
          "midi": 36,
          "name": "C2",
          "ticks": 193344,
          "time": 188.8125,
          "velocity": 0.3937007874015748
        },
        {
          "duration": 0.09375,
          "durationTicks": 96,
          "midi": 35,
          "name": "B1",
          "ticks": 193344,
          "time": 188.8125,
          "velocity": 0.3937007874015748
        },
        {
          "duration": 0.09375,
          "durationTicks": 96,
          "midi": 35,
          "name": "B1",
          "ticks": 193440,
          "time": 188.90625,
          "velocity": 0.3937007874015748
        },
        {
          "duration": 0.09375,
          "durationTicks": 96,
          "midi": 36,
          "name": "C2",
          "ticks": 193440,
          "time": 188.90625,
          "velocity": 0.3937007874015748
        },
        {
          "duration": 0.09375,
          "durationTicks": 96,
          "midi": 52,
          "name": "E3",
          "ticks": 193536,
          "time": 189,
          "velocity": 0.3937007874015748
        },
        {
          "duration": 0.09375,
          "durationTicks": 96,
          "midi": 46,
          "name": "A#2",
          "ticks": 193536,
          "time": 189,
          "velocity": 0.3937007874015748
        },
        {
          "duration": 0.1875,
          "durationTicks": 192,
          "midi": 57,
          "name": "A3",
          "ticks": 193536,
          "time": 189,
          "velocity": 0.3937007874015748
        },
        {
          "duration": 0.1875,
          "durationTicks": 192,
          "midi": 44,
          "name": "G#2",
          "ticks": 193536,
          "time": 189,
          "velocity": 0.3937007874015748
        },
        {
          "duration": 0.09375,
          "durationTicks": 96,
          "midi": 46,
          "name": "A#2",
          "ticks": 193536,
          "time": 189,
          "velocity": 0.3937007874015748
        },
        {
          "duration": 0.1875,
          "durationTicks": 192,
          "midi": 35,
          "name": "B1",
          "ticks": 193536,
          "time": 189,
          "velocity": 0.3937007874015748
        },
        {
          "duration": 0.1875,
          "durationTicks": 192,
          "midi": 44,
          "name": "G#2",
          "ticks": 193536,
          "time": 189,
          "velocity": 0.3937007874015748
        },
        {
          "duration": 0.1875,
          "durationTicks": 192,
          "midi": 36,
          "name": "C2",
          "ticks": 193536,
          "time": 189,
          "velocity": 0.3937007874015748
        },
        {
          "duration": 0.09375,
          "durationTicks": 96,
          "midi": 36,
          "name": "C2",
          "ticks": 193728,
          "time": 189.1875,
          "velocity": 0.3937007874015748
        },
        {
          "duration": 0.1875,
          "durationTicks": 192,
          "midi": 44,
          "name": "G#2",
          "ticks": 193728,
          "time": 189.1875,
          "velocity": 0.3937007874015748
        },
        {
          "duration": 0.09375,
          "durationTicks": 96,
          "midi": 38,
          "name": "D2",
          "ticks": 193920,
          "time": 189.375,
          "velocity": 0.3937007874015748
        },
        {
          "duration": 0.1875,
          "durationTicks": 192,
          "midi": 35,
          "name": "B1",
          "ticks": 193920,
          "time": 189.375,
          "velocity": 0.3937007874015748
        },
        {
          "duration": 0.1875,
          "durationTicks": 192,
          "midi": 57,
          "name": "A3",
          "ticks": 193920,
          "time": 189.375,
          "velocity": 0.3937007874015748
        },
        {
          "duration": 0.1875,
          "durationTicks": 192,
          "midi": 44,
          "name": "G#2",
          "ticks": 193920,
          "time": 189.375,
          "velocity": 0.3937007874015748
        },
        {
          "duration": 0.09375,
          "durationTicks": 96,
          "midi": 40,
          "name": "E2",
          "ticks": 193920,
          "time": 189.375,
          "velocity": 0.3937007874015748
        },
        {
          "duration": 0.1875,
          "durationTicks": 192,
          "midi": 36,
          "name": "C2",
          "ticks": 193920,
          "time": 189.375,
          "velocity": 0.3937007874015748
        },
        {
          "duration": 0.1875,
          "durationTicks": 192,
          "midi": 44,
          "name": "G#2",
          "ticks": 193920,
          "time": 189.375,
          "velocity": 0.3937007874015748
        },
        {
          "duration": 0.09375,
          "durationTicks": 96,
          "midi": 36,
          "name": "C2",
          "ticks": 194112,
          "time": 189.5625,
          "velocity": 0.3937007874015748
        },
        {
          "duration": 0.1875,
          "durationTicks": 192,
          "midi": 44,
          "name": "G#2",
          "ticks": 194112,
          "time": 189.5625,
          "velocity": 0.3937007874015748
        },
        {
          "duration": 0.1875,
          "durationTicks": 192,
          "midi": 35,
          "name": "B1",
          "ticks": 194304,
          "time": 189.75,
          "velocity": 0.3937007874015748
        },
        {
          "duration": 0.1875,
          "durationTicks": 192,
          "midi": 44,
          "name": "G#2",
          "ticks": 194304,
          "time": 189.75,
          "velocity": 0.3937007874015748
        },
        {
          "duration": 0.1875,
          "durationTicks": 192,
          "midi": 44,
          "name": "G#2",
          "ticks": 194304,
          "time": 189.75,
          "velocity": 0.3937007874015748
        },
        {
          "duration": 0.1875,
          "durationTicks": 192,
          "midi": 36,
          "name": "C2",
          "ticks": 194304,
          "time": 189.75,
          "velocity": 0.3937007874015748
        },
        {
          "duration": 0.1875,
          "durationTicks": 192,
          "midi": 57,
          "name": "A3",
          "ticks": 194304,
          "time": 189.75,
          "velocity": 0.3937007874015748
        },
        {
          "duration": 0.09375,
          "durationTicks": 96,
          "midi": 36,
          "name": "C2",
          "ticks": 194496,
          "time": 189.9375,
          "velocity": 0.3937007874015748
        },
        {
          "duration": 0.1875,
          "durationTicks": 192,
          "midi": 44,
          "name": "G#2",
          "ticks": 194496,
          "time": 189.9375,
          "velocity": 0.3937007874015748
        },
        {
          "duration": 0.09375,
          "durationTicks": 96,
          "midi": 40,
          "name": "E2",
          "ticks": 194688,
          "time": 190.125,
          "velocity": 0.3937007874015748
        },
        {
          "duration": 0.1875,
          "durationTicks": 192,
          "midi": 36,
          "name": "C2",
          "ticks": 194688,
          "time": 190.125,
          "velocity": 0.3937007874015748
        },
        {
          "duration": 0.09375,
          "durationTicks": 96,
          "midi": 38,
          "name": "D2",
          "ticks": 194688,
          "time": 190.125,
          "velocity": 0.3937007874015748
        },
        {
          "duration": 0.1875,
          "durationTicks": 192,
          "midi": 35,
          "name": "B1",
          "ticks": 194688,
          "time": 190.125,
          "velocity": 0.3937007874015748
        },
        {
          "duration": 0.1875,
          "durationTicks": 192,
          "midi": 57,
          "name": "A3",
          "ticks": 194688,
          "time": 190.125,
          "velocity": 0.3937007874015748
        },
        {
          "duration": 0.1875,
          "durationTicks": 192,
          "midi": 44,
          "name": "G#2",
          "ticks": 194688,
          "time": 190.125,
          "velocity": 0.3937007874015748
        },
        {
          "duration": 0.1875,
          "durationTicks": 192,
          "midi": 44,
          "name": "G#2",
          "ticks": 194688,
          "time": 190.125,
          "velocity": 0.3937007874015748
        },
        {
          "duration": 0.1875,
          "durationTicks": 192,
          "midi": 44,
          "name": "G#2",
          "ticks": 194880,
          "time": 190.3125,
          "velocity": 0.3937007874015748
        },
        {
          "duration": 0.09375,
          "durationTicks": 96,
          "midi": 36,
          "name": "C2",
          "ticks": 194880,
          "time": 190.3125,
          "velocity": 0.3937007874015748
        },
        {
          "duration": 0.09375,
          "durationTicks": 96,
          "midi": 46,
          "name": "A#2",
          "ticks": 195072,
          "time": 190.5,
          "velocity": 0.3937007874015748
        },
        {
          "duration": 0.1875,
          "durationTicks": 192,
          "midi": 44,
          "name": "G#2",
          "ticks": 195072,
          "time": 190.5,
          "velocity": 0.3937007874015748
        },
        {
          "duration": 0.1875,
          "durationTicks": 192,
          "midi": 36,
          "name": "C2",
          "ticks": 195072,
          "time": 190.5,
          "velocity": 0.3937007874015748
        },
        {
          "duration": 0.09375,
          "durationTicks": 96,
          "midi": 52,
          "name": "E3",
          "ticks": 195072,
          "time": 190.5,
          "velocity": 0.3937007874015748
        },
        {
          "duration": 0.1875,
          "durationTicks": 192,
          "midi": 57,
          "name": "A3",
          "ticks": 195072,
          "time": 190.5,
          "velocity": 0.3937007874015748
        },
        {
          "duration": 0.1875,
          "durationTicks": 192,
          "midi": 44,
          "name": "G#2",
          "ticks": 195072,
          "time": 190.5,
          "velocity": 0.3937007874015748
        },
        {
          "duration": 0.1875,
          "durationTicks": 192,
          "midi": 35,
          "name": "B1",
          "ticks": 195072,
          "time": 190.5,
          "velocity": 0.3937007874015748
        },
        {
          "duration": 0.09375,
          "durationTicks": 96,
          "midi": 46,
          "name": "A#2",
          "ticks": 195072,
          "time": 190.5,
          "velocity": 0.3937007874015748
        },
        {
          "duration": 0.1875,
          "durationTicks": 192,
          "midi": 44,
          "name": "G#2",
          "ticks": 195264,
          "time": 190.6875,
          "velocity": 0.3937007874015748
        },
        {
          "duration": 0.09375,
          "durationTicks": 96,
          "midi": 36,
          "name": "C2",
          "ticks": 195264,
          "time": 190.6875,
          "velocity": 0.3937007874015748
        },
        {
          "duration": 0.09375,
          "durationTicks": 96,
          "midi": 38,
          "name": "D2",
          "ticks": 195456,
          "time": 190.875,
          "velocity": 0.3937007874015748
        },
        {
          "duration": 0.1875,
          "durationTicks": 192,
          "midi": 35,
          "name": "B1",
          "ticks": 195456,
          "time": 190.875,
          "velocity": 0.3937007874015748
        },
        {
          "duration": 0.09375,
          "durationTicks": 96,
          "midi": 40,
          "name": "E2",
          "ticks": 195456,
          "time": 190.875,
          "velocity": 0.3937007874015748
        },
        {
          "duration": 0.1875,
          "durationTicks": 192,
          "midi": 57,
          "name": "A3",
          "ticks": 195456,
          "time": 190.875,
          "velocity": 0.3937007874015748
        },
        {
          "duration": 0.1875,
          "durationTicks": 192,
          "midi": 36,
          "name": "C2",
          "ticks": 195456,
          "time": 190.875,
          "velocity": 0.3937007874015748
        },
        {
          "duration": 0.1875,
          "durationTicks": 192,
          "midi": 44,
          "name": "G#2",
          "ticks": 195456,
          "time": 190.875,
          "velocity": 0.3937007874015748
        },
        {
          "duration": 0.1875,
          "durationTicks": 192,
          "midi": 44,
          "name": "G#2",
          "ticks": 195456,
          "time": 190.875,
          "velocity": 0.3937007874015748
        },
        {
          "duration": 0.09375,
          "durationTicks": 96,
          "midi": 36,
          "name": "C2",
          "ticks": 195648,
          "time": 191.0625,
          "velocity": 0.3937007874015748
        },
        {
          "duration": 0.1875,
          "durationTicks": 192,
          "midi": 44,
          "name": "G#2",
          "ticks": 195648,
          "time": 191.0625,
          "velocity": 0.3937007874015748
        },
        {
          "duration": 0.09375,
          "durationTicks": 96,
          "midi": 38,
          "name": "D2",
          "ticks": 195744,
          "time": 191.15625,
          "velocity": 0.3937007874015748
        },
        {
          "duration": 0.1875,
          "durationTicks": 192,
          "midi": 57,
          "name": "A3",
          "ticks": 195840,
          "time": 191.25,
          "velocity": 0.3937007874015748
        },
        {
          "duration": 0.1875,
          "durationTicks": 192,
          "midi": 36,
          "name": "C2",
          "ticks": 195840,
          "time": 191.25,
          "velocity": 0.3937007874015748
        },
        {
          "duration": 0.1875,
          "durationTicks": 192,
          "midi": 44,
          "name": "G#2",
          "ticks": 195840,
          "time": 191.25,
          "velocity": 0.3937007874015748
        },
        {
          "duration": 0.1875,
          "durationTicks": 192,
          "midi": 44,
          "name": "G#2",
          "ticks": 195840,
          "time": 191.25,
          "velocity": 0.3937007874015748
        },
        {
          "duration": 0.1875,
          "durationTicks": 192,
          "midi": 35,
          "name": "B1",
          "ticks": 195840,
          "time": 191.25,
          "velocity": 0.3937007874015748
        },
        {
          "duration": 0.09375,
          "durationTicks": 96,
          "midi": 38,
          "name": "D2",
          "ticks": 195936,
          "time": 191.34375,
          "velocity": 0.3937007874015748
        },
        {
          "duration": 0.1875,
          "durationTicks": 192,
          "midi": 44,
          "name": "G#2",
          "ticks": 196032,
          "time": 191.4375,
          "velocity": 0.3937007874015748
        },
        {
          "duration": 0.09375,
          "durationTicks": 96,
          "midi": 38,
          "name": "D2",
          "ticks": 196128,
          "time": 191.53125,
          "velocity": 0.3937007874015748
        },
        {
          "duration": 0.09375,
          "durationTicks": 96,
          "midi": 38,
          "name": "D2",
          "ticks": 196224,
          "time": 191.625,
          "velocity": 0.3937007874015748
        },
        {
          "duration": 0.1875,
          "durationTicks": 192,
          "midi": 44,
          "name": "G#2",
          "ticks": 196224,
          "time": 191.625,
          "velocity": 0.3937007874015748
        },
        {
          "duration": 0.1875,
          "durationTicks": 192,
          "midi": 36,
          "name": "C2",
          "ticks": 196224,
          "time": 191.625,
          "velocity": 0.3937007874015748
        },
        {
          "duration": 0.09375,
          "durationTicks": 96,
          "midi": 40,
          "name": "E2",
          "ticks": 196224,
          "time": 191.625,
          "velocity": 0.3937007874015748
        },
        {
          "duration": 0.1875,
          "durationTicks": 192,
          "midi": 57,
          "name": "A3",
          "ticks": 196224,
          "time": 191.625,
          "velocity": 0.3937007874015748
        },
        {
          "duration": 0.1875,
          "durationTicks": 192,
          "midi": 35,
          "name": "B1",
          "ticks": 196224,
          "time": 191.625,
          "velocity": 0.3937007874015748
        },
        {
          "duration": 0.1875,
          "durationTicks": 192,
          "midi": 44,
          "name": "G#2",
          "ticks": 196224,
          "time": 191.625,
          "velocity": 0.3937007874015748
        },
        {
          "duration": 0.1875,
          "durationTicks": 192,
          "midi": 44,
          "name": "G#2",
          "ticks": 196416,
          "time": 191.8125,
          "velocity": 0.3937007874015748
        },
        {
          "duration": 0.09375,
          "durationTicks": 96,
          "midi": 38,
          "name": "D2",
          "ticks": 196416,
          "time": 191.8125,
          "velocity": 0.3937007874015748
        },
        {
          "duration": 0.1875,
          "durationTicks": 192,
          "midi": 44,
          "name": "G#2",
          "ticks": 196608,
          "time": 192,
          "velocity": 0.3937007874015748
        },
        {
          "duration": 0.1875,
          "durationTicks": 192,
          "midi": 36,
          "name": "C2",
          "ticks": 196608,
          "time": 192,
          "velocity": 0.3937007874015748
        },
        {
          "duration": 0.09375,
          "durationTicks": 96,
          "midi": 52,
          "name": "E3",
          "ticks": 196608,
          "time": 192,
          "velocity": 0.3937007874015748
        },
        {
          "duration": 0.1875,
          "durationTicks": 192,
          "midi": 57,
          "name": "A3",
          "ticks": 196608,
          "time": 192,
          "velocity": 0.3937007874015748
        },
        {
          "duration": 0.09375,
          "durationTicks": 96,
          "midi": 46,
          "name": "A#2",
          "ticks": 196608,
          "time": 192,
          "velocity": 0.3937007874015748
        },
        {
          "duration": 0.09375,
          "durationTicks": 96,
          "midi": 46,
          "name": "A#2",
          "ticks": 196608,
          "time": 192,
          "velocity": 0.3937007874015748
        },
        {
          "duration": 0.1875,
          "durationTicks": 192,
          "midi": 44,
          "name": "G#2",
          "ticks": 196608,
          "time": 192,
          "velocity": 0.3937007874015748
        },
        {
          "duration": 0.1875,
          "durationTicks": 192,
          "midi": 35,
          "name": "B1",
          "ticks": 196608,
          "time": 192,
          "velocity": 0.3937007874015748
        },
        {
          "duration": 0.1875,
          "durationTicks": 192,
          "midi": 44,
          "name": "G#2",
          "ticks": 196800,
          "time": 192.1875,
          "velocity": 0.3937007874015748
        },
        {
          "duration": 0.09375,
          "durationTicks": 96,
          "midi": 36,
          "name": "C2",
          "ticks": 196800,
          "time": 192.1875,
          "velocity": 0.3937007874015748
        },
        {
          "duration": 0.1875,
          "durationTicks": 192,
          "midi": 57,
          "name": "A3",
          "ticks": 196992,
          "time": 192.375,
          "velocity": 0.3937007874015748
        },
        {
          "duration": 0.09375,
          "durationTicks": 96,
          "midi": 40,
          "name": "E2",
          "ticks": 196992,
          "time": 192.375,
          "velocity": 0.3937007874015748
        },
        {
          "duration": 0.1875,
          "durationTicks": 192,
          "midi": 35,
          "name": "B1",
          "ticks": 196992,
          "time": 192.375,
          "velocity": 0.3937007874015748
        },
        {
          "duration": 0.1875,
          "durationTicks": 192,
          "midi": 36,
          "name": "C2",
          "ticks": 196992,
          "time": 192.375,
          "velocity": 0.3937007874015748
        },
        {
          "duration": 0.1875,
          "durationTicks": 192,
          "midi": 44,
          "name": "G#2",
          "ticks": 196992,
          "time": 192.375,
          "velocity": 0.3937007874015748
        },
        {
          "duration": 0.09375,
          "durationTicks": 96,
          "midi": 38,
          "name": "D2",
          "ticks": 196992,
          "time": 192.375,
          "velocity": 0.3937007874015748
        },
        {
          "duration": 0.1875,
          "durationTicks": 192,
          "midi": 44,
          "name": "G#2",
          "ticks": 196992,
          "time": 192.375,
          "velocity": 0.3937007874015748
        },
        {
          "duration": 0.09375,
          "durationTicks": 96,
          "midi": 36,
          "name": "C2",
          "ticks": 197184,
          "time": 192.5625,
          "velocity": 0.3937007874015748
        },
        {
          "duration": 0.1875,
          "durationTicks": 192,
          "midi": 44,
          "name": "G#2",
          "ticks": 197184,
          "time": 192.5625,
          "velocity": 0.3937007874015748
        },
        {
          "duration": 0.1875,
          "durationTicks": 192,
          "midi": 35,
          "name": "B1",
          "ticks": 197376,
          "time": 192.75,
          "velocity": 0.3937007874015748
        },
        {
          "duration": 0.1875,
          "durationTicks": 192,
          "midi": 44,
          "name": "G#2",
          "ticks": 197376,
          "time": 192.75,
          "velocity": 0.3937007874015748
        },
        {
          "duration": 0.1875,
          "durationTicks": 192,
          "midi": 36,
          "name": "C2",
          "ticks": 197376,
          "time": 192.75,
          "velocity": 0.3937007874015748
        },
        {
          "duration": 0.1875,
          "durationTicks": 192,
          "midi": 44,
          "name": "G#2",
          "ticks": 197376,
          "time": 192.75,
          "velocity": 0.3937007874015748
        },
        {
          "duration": 0.1875,
          "durationTicks": 192,
          "midi": 57,
          "name": "A3",
          "ticks": 197376,
          "time": 192.75,
          "velocity": 0.3937007874015748
        },
        {
          "duration": 0.1875,
          "durationTicks": 192,
          "midi": 44,
          "name": "G#2",
          "ticks": 197568,
          "time": 192.9375,
          "velocity": 0.3937007874015748
        },
        {
          "duration": 0.09375,
          "durationTicks": 96,
          "midi": 36,
          "name": "C2",
          "ticks": 197568,
          "time": 192.9375,
          "velocity": 0.3937007874015748
        },
        {
          "duration": 0.1875,
          "durationTicks": 192,
          "midi": 36,
          "name": "C2",
          "ticks": 197760,
          "time": 193.125,
          "velocity": 0.3937007874015748
        },
        {
          "duration": 0.1875,
          "durationTicks": 192,
          "midi": 44,
          "name": "G#2",
          "ticks": 197760,
          "time": 193.125,
          "velocity": 0.3937007874015748
        },
        {
          "duration": 0.09375,
          "durationTicks": 96,
          "midi": 40,
          "name": "E2",
          "ticks": 197760,
          "time": 193.125,
          "velocity": 0.3937007874015748
        },
        {
          "duration": 0.1875,
          "durationTicks": 192,
          "midi": 44,
          "name": "G#2",
          "ticks": 197760,
          "time": 193.125,
          "velocity": 0.3937007874015748
        },
        {
          "duration": 0.1875,
          "durationTicks": 192,
          "midi": 35,
          "name": "B1",
          "ticks": 197760,
          "time": 193.125,
          "velocity": 0.3937007874015748
        },
        {
          "duration": 0.1875,
          "durationTicks": 192,
          "midi": 57,
          "name": "A3",
          "ticks": 197760,
          "time": 193.125,
          "velocity": 0.3937007874015748
        },
        {
          "duration": 0.09375,
          "durationTicks": 96,
          "midi": 38,
          "name": "D2",
          "ticks": 197760,
          "time": 193.125,
          "velocity": 0.3937007874015748
        },
        {
          "duration": 0.1875,
          "durationTicks": 192,
          "midi": 44,
          "name": "G#2",
          "ticks": 197952,
          "time": 193.3125,
          "velocity": 0.3937007874015748
        },
        {
          "duration": 0.09375,
          "durationTicks": 96,
          "midi": 36,
          "name": "C2",
          "ticks": 197952,
          "time": 193.3125,
          "velocity": 0.3937007874015748
        },
        {
          "duration": 0.09375,
          "durationTicks": 96,
          "midi": 46,
          "name": "A#2",
          "ticks": 198144,
          "time": 193.5,
          "velocity": 0.3937007874015748
        },
        {
          "duration": 0.1875,
          "durationTicks": 192,
          "midi": 35,
          "name": "B1",
          "ticks": 198144,
          "time": 193.5,
          "velocity": 0.3937007874015748
        },
        {
          "duration": 0.09375,
          "durationTicks": 96,
          "midi": 52,
          "name": "E3",
          "ticks": 198144,
          "time": 193.5,
          "velocity": 0.3937007874015748
        },
        {
          "duration": 0.1875,
          "durationTicks": 192,
          "midi": 44,
          "name": "G#2",
          "ticks": 198144,
          "time": 193.5,
          "velocity": 0.3937007874015748
        },
        {
          "duration": 0.1875,
          "durationTicks": 192,
          "midi": 57,
          "name": "A3",
          "ticks": 198144,
          "time": 193.5,
          "velocity": 0.3937007874015748
        },
        {
          "duration": 0.1875,
          "durationTicks": 192,
          "midi": 36,
          "name": "C2",
          "ticks": 198144,
          "time": 193.5,
          "velocity": 0.3937007874015748
        },
        {
          "duration": 0.1875,
          "durationTicks": 192,
          "midi": 44,
          "name": "G#2",
          "ticks": 198144,
          "time": 193.5,
          "velocity": 0.3937007874015748
        },
        {
          "duration": 0.1875,
          "durationTicks": 192,
          "midi": 44,
          "name": "G#2",
          "ticks": 198336,
          "time": 193.6875,
          "velocity": 0.3937007874015748
        },
        {
          "duration": 0.09375,
          "durationTicks": 96,
          "midi": 36,
          "name": "C2",
          "ticks": 198336,
          "time": 193.6875,
          "velocity": 0.3937007874015748
        },
        {
          "duration": 0.09375,
          "durationTicks": 96,
          "midi": 40,
          "name": "E2",
          "ticks": 198528,
          "time": 193.875,
          "velocity": 0.3937007874015748
        },
        {
          "duration": 0.1875,
          "durationTicks": 192,
          "midi": 35,
          "name": "B1",
          "ticks": 198528,
          "time": 193.875,
          "velocity": 0.3937007874015748
        },
        {
          "duration": 0.1875,
          "durationTicks": 192,
          "midi": 44,
          "name": "G#2",
          "ticks": 198528,
          "time": 193.875,
          "velocity": 0.3937007874015748
        },
        {
          "duration": 0.09375,
          "durationTicks": 96,
          "midi": 38,
          "name": "D2",
          "ticks": 198528,
          "time": 193.875,
          "velocity": 0.3937007874015748
        },
        {
          "duration": 0.1875,
          "durationTicks": 192,
          "midi": 44,
          "name": "G#2",
          "ticks": 198528,
          "time": 193.875,
          "velocity": 0.3937007874015748
        },
        {
          "duration": 0.1875,
          "durationTicks": 192,
          "midi": 57,
          "name": "A3",
          "ticks": 198528,
          "time": 193.875,
          "velocity": 0.3937007874015748
        },
        {
          "duration": 0.1875,
          "durationTicks": 192,
          "midi": 36,
          "name": "C2",
          "ticks": 198528,
          "time": 193.875,
          "velocity": 0.3937007874015748
        },
        {
          "duration": 0.09375,
          "durationTicks": 96,
          "midi": 36,
          "name": "C2",
          "ticks": 198720,
          "time": 194.0625,
          "velocity": 0.3937007874015748
        },
        {
          "duration": 0.1875,
          "durationTicks": 192,
          "midi": 44,
          "name": "G#2",
          "ticks": 198720,
          "time": 194.0625,
          "velocity": 0.3937007874015748
        },
        {
          "duration": 0.09375,
          "durationTicks": 96,
          "midi": 38,
          "name": "D2",
          "ticks": 198816,
          "time": 194.15625,
          "velocity": 0.3937007874015748
        },
        {
          "duration": 0.1875,
          "durationTicks": 192,
          "midi": 36,
          "name": "C2",
          "ticks": 198912,
          "time": 194.25,
          "velocity": 0.3937007874015748
        },
        {
          "duration": 0.1875,
          "durationTicks": 192,
          "midi": 35,
          "name": "B1",
          "ticks": 198912,
          "time": 194.25,
          "velocity": 0.3937007874015748
        },
        {
          "duration": 0.1875,
          "durationTicks": 192,
          "midi": 44,
          "name": "G#2",
          "ticks": 198912,
          "time": 194.25,
          "velocity": 0.3937007874015748
        },
        {
          "duration": 0.1875,
          "durationTicks": 192,
          "midi": 44,
          "name": "G#2",
          "ticks": 198912,
          "time": 194.25,
          "velocity": 0.3937007874015748
        },
        {
          "duration": 0.1875,
          "durationTicks": 192,
          "midi": 57,
          "name": "A3",
          "ticks": 198912,
          "time": 194.25,
          "velocity": 0.3937007874015748
        },
        {
          "duration": 0.09375,
          "durationTicks": 96,
          "midi": 38,
          "name": "D2",
          "ticks": 199008,
          "time": 194.34375,
          "velocity": 0.3937007874015748
        },
        {
          "duration": 0.1875,
          "durationTicks": 192,
          "midi": 44,
          "name": "G#2",
          "ticks": 199104,
          "time": 194.4375,
          "velocity": 0.3937007874015748
        },
        {
          "duration": 0.09375,
          "durationTicks": 96,
          "midi": 38,
          "name": "D2",
          "ticks": 199200,
          "time": 194.53125,
          "velocity": 0.3937007874015748
        },
        {
          "duration": 0.1875,
          "durationTicks": 192,
          "midi": 44,
          "name": "G#2",
          "ticks": 199296,
          "time": 194.625,
          "velocity": 0.3937007874015748
        },
        {
          "duration": 0.1875,
          "durationTicks": 192,
          "midi": 36,
          "name": "C2",
          "ticks": 199296,
          "time": 194.625,
          "velocity": 0.3937007874015748
        },
        {
          "duration": 0.1875,
          "durationTicks": 192,
          "midi": 35,
          "name": "B1",
          "ticks": 199296,
          "time": 194.625,
          "velocity": 0.3937007874015748
        },
        {
          "duration": 0.1875,
          "durationTicks": 192,
          "midi": 44,
          "name": "G#2",
          "ticks": 199296,
          "time": 194.625,
          "velocity": 0.3937007874015748
        },
        {
          "duration": 0.1875,
          "durationTicks": 192,
          "midi": 57,
          "name": "A3",
          "ticks": 199296,
          "time": 194.625,
          "velocity": 0.3937007874015748
        },
        {
          "duration": 0.09375,
          "durationTicks": 96,
          "midi": 38,
          "name": "D2",
          "ticks": 199296,
          "time": 194.625,
          "velocity": 0.3937007874015748
        },
        {
          "duration": 0.09375,
          "durationTicks": 96,
          "midi": 40,
          "name": "E2",
          "ticks": 199296,
          "time": 194.625,
          "velocity": 0.3937007874015748
        },
        {
          "duration": 0.1875,
          "durationTicks": 192,
          "midi": 44,
          "name": "G#2",
          "ticks": 199488,
          "time": 194.8125,
          "velocity": 0.3937007874015748
        },
        {
          "duration": 0.09375,
          "durationTicks": 96,
          "midi": 38,
          "name": "D2",
          "ticks": 199488,
          "time": 194.8125,
          "velocity": 0.3937007874015748
        },
        {
          "duration": 0.09375,
          "durationTicks": 96,
          "midi": 46,
          "name": "A#2",
          "ticks": 199680,
          "time": 195,
          "velocity": 0.3937007874015748
        },
        {
          "duration": 0.09375,
          "durationTicks": 96,
          "midi": 52,
          "name": "E3",
          "ticks": 199680,
          "time": 195,
          "velocity": 0.3937007874015748
        },
        {
          "duration": 0.1875,
          "durationTicks": 192,
          "midi": 44,
          "name": "G#2",
          "ticks": 199680,
          "time": 195,
          "velocity": 0.3937007874015748
        },
        {
          "duration": 0.1875,
          "durationTicks": 192,
          "midi": 36,
          "name": "C2",
          "ticks": 199680,
          "time": 195,
          "velocity": 0.3937007874015748
        },
        {
          "duration": 0.1875,
          "durationTicks": 192,
          "midi": 44,
          "name": "G#2",
          "ticks": 199680,
          "time": 195,
          "velocity": 0.3937007874015748
        },
        {
          "duration": 0.09375,
          "durationTicks": 96,
          "midi": 46,
          "name": "A#2",
          "ticks": 199680,
          "time": 195,
          "velocity": 0.3937007874015748
        },
        {
          "duration": 0.1875,
          "durationTicks": 192,
          "midi": 57,
          "name": "A3",
          "ticks": 199680,
          "time": 195,
          "velocity": 0.3937007874015748
        },
        {
          "duration": 0.1875,
          "durationTicks": 192,
          "midi": 35,
          "name": "B1",
          "ticks": 199680,
          "time": 195,
          "velocity": 0.3937007874015748
        },
        {
          "duration": 0.09375,
          "durationTicks": 96,
          "midi": 36,
          "name": "C2",
          "ticks": 199872,
          "time": 195.1875,
          "velocity": 0.3937007874015748
        },
        {
          "duration": 0.1875,
          "durationTicks": 192,
          "midi": 44,
          "name": "G#2",
          "ticks": 199872,
          "time": 195.1875,
          "velocity": 0.3937007874015748
        },
        {
          "duration": 0.1875,
          "durationTicks": 192,
          "midi": 35,
          "name": "B1",
          "ticks": 200064,
          "time": 195.375,
          "velocity": 0.3937007874015748
        },
        {
          "duration": 0.1875,
          "durationTicks": 192,
          "midi": 36,
          "name": "C2",
          "ticks": 200064,
          "time": 195.375,
          "velocity": 0.3937007874015748
        },
        {
          "duration": 0.09375,
          "durationTicks": 96,
          "midi": 38,
          "name": "D2",
          "ticks": 200064,
          "time": 195.375,
          "velocity": 0.3937007874015748
        },
        {
          "duration": 0.1875,
          "durationTicks": 192,
          "midi": 44,
          "name": "G#2",
          "ticks": 200064,
          "time": 195.375,
          "velocity": 0.3937007874015748
        },
        {
          "duration": 0.1875,
          "durationTicks": 192,
          "midi": 44,
          "name": "G#2",
          "ticks": 200064,
          "time": 195.375,
          "velocity": 0.3937007874015748
        },
        {
          "duration": 0.09375,
          "durationTicks": 96,
          "midi": 40,
          "name": "E2",
          "ticks": 200064,
          "time": 195.375,
          "velocity": 0.3937007874015748
        },
        {
          "duration": 0.1875,
          "durationTicks": 192,
          "midi": 57,
          "name": "A3",
          "ticks": 200064,
          "time": 195.375,
          "velocity": 0.3937007874015748
        },
        {
          "duration": 0.09375,
          "durationTicks": 96,
          "midi": 36,
          "name": "C2",
          "ticks": 200256,
          "time": 195.5625,
          "velocity": 0.3937007874015748
        },
        {
          "duration": 0.1875,
          "durationTicks": 192,
          "midi": 44,
          "name": "G#2",
          "ticks": 200256,
          "time": 195.5625,
          "velocity": 0.3937007874015748
        },
        {
          "duration": 0.1875,
          "durationTicks": 192,
          "midi": 44,
          "name": "G#2",
          "ticks": 200448,
          "time": 195.75,
          "velocity": 0.3937007874015748
        },
        {
          "duration": 0.1875,
          "durationTicks": 192,
          "midi": 36,
          "name": "C2",
          "ticks": 200448,
          "time": 195.75,
          "velocity": 0.3937007874015748
        },
        {
          "duration": 0.1875,
          "durationTicks": 192,
          "midi": 35,
          "name": "B1",
          "ticks": 200448,
          "time": 195.75,
          "velocity": 0.3937007874015748
        },
        {
          "duration": 0.1875,
          "durationTicks": 192,
          "midi": 44,
          "name": "G#2",
          "ticks": 200448,
          "time": 195.75,
          "velocity": 0.3937007874015748
        },
        {
          "duration": 0.1875,
          "durationTicks": 192,
          "midi": 57,
          "name": "A3",
          "ticks": 200448,
          "time": 195.75,
          "velocity": 0.3937007874015748
        },
        {
          "duration": 0.1875,
          "durationTicks": 192,
          "midi": 44,
          "name": "G#2",
          "ticks": 200640,
          "time": 195.9375,
          "velocity": 0.3937007874015748
        },
        {
          "duration": 0.09375,
          "durationTicks": 96,
          "midi": 36,
          "name": "C2",
          "ticks": 200640,
          "time": 195.9375,
          "velocity": 0.3937007874015748
        },
        {
          "duration": 0.1875,
          "durationTicks": 192,
          "midi": 36,
          "name": "C2",
          "ticks": 200832,
          "time": 196.125,
          "velocity": 0.3937007874015748
        },
        {
          "duration": 0.09375,
          "durationTicks": 96,
          "midi": 40,
          "name": "E2",
          "ticks": 200832,
          "time": 196.125,
          "velocity": 0.3937007874015748
        },
        {
          "duration": 0.1875,
          "durationTicks": 192,
          "midi": 44,
          "name": "G#2",
          "ticks": 200832,
          "time": 196.125,
          "velocity": 0.3937007874015748
        },
        {
          "duration": 0.1875,
          "durationTicks": 192,
          "midi": 44,
          "name": "G#2",
          "ticks": 200832,
          "time": 196.125,
          "velocity": 0.3937007874015748
        },
        {
          "duration": 0.1875,
          "durationTicks": 192,
          "midi": 57,
          "name": "A3",
          "ticks": 200832,
          "time": 196.125,
          "velocity": 0.3937007874015748
        },
        {
          "duration": 0.09375,
          "durationTicks": 96,
          "midi": 38,
          "name": "D2",
          "ticks": 200832,
          "time": 196.125,
          "velocity": 0.3937007874015748
        },
        {
          "duration": 0.1875,
          "durationTicks": 192,
          "midi": 35,
          "name": "B1",
          "ticks": 200832,
          "time": 196.125,
          "velocity": 0.3937007874015748
        },
        {
          "duration": 0.09375,
          "durationTicks": 96,
          "midi": 36,
          "name": "C2",
          "ticks": 201024,
          "time": 196.3125,
          "velocity": 0.3937007874015748
        },
        {
          "duration": 0.1875,
          "durationTicks": 192,
          "midi": 44,
          "name": "G#2",
          "ticks": 201024,
          "time": 196.3125,
          "velocity": 0.3937007874015748
        },
        {
          "duration": 0.1875,
          "durationTicks": 192,
          "midi": 44,
          "name": "G#2",
          "ticks": 201216,
          "time": 196.5,
          "velocity": 0.3937007874015748
        },
        {
          "duration": 0.1875,
          "durationTicks": 192,
          "midi": 44,
          "name": "G#2",
          "ticks": 201216,
          "time": 196.5,
          "velocity": 0.3937007874015748
        },
        {
          "duration": 0.1875,
          "durationTicks": 192,
          "midi": 36,
          "name": "C2",
          "ticks": 201216,
          "time": 196.5,
          "velocity": 0.3937007874015748
        },
        {
          "duration": 0.1875,
          "durationTicks": 192,
          "midi": 57,
          "name": "A3",
          "ticks": 201216,
          "time": 196.5,
          "velocity": 0.3937007874015748
        },
        {
          "duration": 0.09375,
          "durationTicks": 96,
          "midi": 52,
          "name": "E3",
          "ticks": 201216,
          "time": 196.5,
          "velocity": 0.3937007874015748
        },
        {
          "duration": 0.1875,
          "durationTicks": 192,
          "midi": 35,
          "name": "B1",
          "ticks": 201216,
          "time": 196.5,
          "velocity": 0.3937007874015748
        },
        {
          "duration": 0.09375,
          "durationTicks": 96,
          "midi": 46,
          "name": "A#2",
          "ticks": 201216,
          "time": 196.5,
          "velocity": 0.3937007874015748
        },
        {
          "duration": 0.09375,
          "durationTicks": 96,
          "midi": 36,
          "name": "C2",
          "ticks": 201408,
          "time": 196.6875,
          "velocity": 0.3937007874015748
        },
        {
          "duration": 0.1875,
          "durationTicks": 192,
          "midi": 44,
          "name": "G#2",
          "ticks": 201408,
          "time": 196.6875,
          "velocity": 0.3937007874015748
        },
        {
          "duration": 0.1875,
          "durationTicks": 192,
          "midi": 44,
          "name": "G#2",
          "ticks": 201600,
          "time": 196.875,
          "velocity": 0.3937007874015748
        },
        {
          "duration": 0.1875,
          "durationTicks": 192,
          "midi": 35,
          "name": "B1",
          "ticks": 201600,
          "time": 196.875,
          "velocity": 0.3937007874015748
        },
        {
          "duration": 0.1875,
          "durationTicks": 192,
          "midi": 44,
          "name": "G#2",
          "ticks": 201600,
          "time": 196.875,
          "velocity": 0.3937007874015748
        },
        {
          "duration": 0.09375,
          "durationTicks": 96,
          "midi": 40,
          "name": "E2",
          "ticks": 201600,
          "time": 196.875,
          "velocity": 0.3937007874015748
        },
        {
          "duration": 0.1875,
          "durationTicks": 192,
          "midi": 57,
          "name": "A3",
          "ticks": 201600,
          "time": 196.875,
          "velocity": 0.3937007874015748
        },
        {
          "duration": 0.1875,
          "durationTicks": 192,
          "midi": 36,
          "name": "C2",
          "ticks": 201600,
          "time": 196.875,
          "velocity": 0.3937007874015748
        },
        {
          "duration": 0.09375,
          "durationTicks": 96,
          "midi": 38,
          "name": "D2",
          "ticks": 201600,
          "time": 196.875,
          "velocity": 0.3937007874015748
        },
        {
          "duration": 0.09375,
          "durationTicks": 96,
          "midi": 36,
          "name": "C2",
          "ticks": 201792,
          "time": 197.0625,
          "velocity": 0.3937007874015748
        },
        {
          "duration": 0.1875,
          "durationTicks": 192,
          "midi": 44,
          "name": "G#2",
          "ticks": 201792,
          "time": 197.0625,
          "velocity": 0.3937007874015748
        },
        {
          "duration": 0.09375,
          "durationTicks": 96,
          "midi": 38,
          "name": "D2",
          "ticks": 201888,
          "time": 197.15625,
          "velocity": 0.3937007874015748
        },
        {
          "duration": 0.1875,
          "durationTicks": 192,
          "midi": 44,
          "name": "G#2",
          "ticks": 201984,
          "time": 197.25,
          "velocity": 0.3937007874015748
        },
        {
          "duration": 0.1875,
          "durationTicks": 192,
          "midi": 57,
          "name": "A3",
          "ticks": 201984,
          "time": 197.25,
          "velocity": 0.3937007874015748
        },
        {
          "duration": 0.1875,
          "durationTicks": 192,
          "midi": 44,
          "name": "G#2",
          "ticks": 201984,
          "time": 197.25,
          "velocity": 0.3937007874015748
        },
        {
          "duration": 0.1875,
          "durationTicks": 192,
          "midi": 35,
          "name": "B1",
          "ticks": 201984,
          "time": 197.25,
          "velocity": 0.3937007874015748
        },
        {
          "duration": 0.1875,
          "durationTicks": 192,
          "midi": 36,
          "name": "C2",
          "ticks": 201984,
          "time": 197.25,
          "velocity": 0.3937007874015748
        },
        {
          "duration": 0.09375,
          "durationTicks": 96,
          "midi": 38,
          "name": "D2",
          "ticks": 202080,
          "time": 197.34375,
          "velocity": 0.3937007874015748
        },
        {
          "duration": 0.1875,
          "durationTicks": 192,
          "midi": 44,
          "name": "G#2",
          "ticks": 202176,
          "time": 197.4375,
          "velocity": 0.3937007874015748
        },
        {
          "duration": 0.09375,
          "durationTicks": 96,
          "midi": 38,
          "name": "D2",
          "ticks": 202272,
          "time": 197.53125,
          "velocity": 0.3937007874015748
        },
        {
          "duration": 0.09375,
          "durationTicks": 96,
          "midi": 38,
          "name": "D2",
          "ticks": 202368,
          "time": 197.625,
          "velocity": 0.3937007874015748
        },
        {
          "duration": 0.1875,
          "durationTicks": 192,
          "midi": 35,
          "name": "B1",
          "ticks": 202368,
          "time": 197.625,
          "velocity": 0.3937007874015748
        },
        {
          "duration": 0.1875,
          "durationTicks": 192,
          "midi": 36,
          "name": "C2",
          "ticks": 202368,
          "time": 197.625,
          "velocity": 0.3937007874015748
        },
        {
          "duration": 0.1875,
          "durationTicks": 192,
          "midi": 57,
          "name": "A3",
          "ticks": 202368,
          "time": 197.625,
          "velocity": 0.3937007874015748
        },
        {
          "duration": 0.1875,
          "durationTicks": 192,
          "midi": 44,
          "name": "G#2",
          "ticks": 202368,
          "time": 197.625,
          "velocity": 0.3937007874015748
        },
        {
          "duration": 0.09375,
          "durationTicks": 96,
          "midi": 40,
          "name": "E2",
          "ticks": 202368,
          "time": 197.625,
          "velocity": 0.3937007874015748
        },
        {
          "duration": 0.1875,
          "durationTicks": 192,
          "midi": 44,
          "name": "G#2",
          "ticks": 202368,
          "time": 197.625,
          "velocity": 0.3937007874015748
        },
        {
          "duration": 0.09375,
          "durationTicks": 96,
          "midi": 38,
          "name": "D2",
          "ticks": 202560,
          "time": 197.8125,
          "velocity": 0.3937007874015748
        },
        {
          "duration": 0.1875,
          "durationTicks": 192,
          "midi": 44,
          "name": "G#2",
          "ticks": 202560,
          "time": 197.8125,
          "velocity": 0.3937007874015748
        },
        {
          "duration": 0.09375,
          "durationTicks": 96,
          "midi": 46,
          "name": "A#2",
          "ticks": 202752,
          "time": 198,
          "velocity": 0.3937007874015748
        },
        {
          "duration": 0.1875,
          "durationTicks": 192,
          "midi": 44,
          "name": "G#2",
          "ticks": 202752,
          "time": 198,
          "velocity": 0.3937007874015748
        },
        {
          "duration": 0.1875,
          "durationTicks": 192,
          "midi": 44,
          "name": "G#2",
          "ticks": 202752,
          "time": 198,
          "velocity": 0.3937007874015748
        },
        {
          "duration": 0.1875,
          "durationTicks": 192,
          "midi": 57,
          "name": "A3",
          "ticks": 202752,
          "time": 198,
          "velocity": 0.3937007874015748
        },
        {
          "duration": 0.1875,
          "durationTicks": 192,
          "midi": 36,
          "name": "C2",
          "ticks": 202752,
          "time": 198,
          "velocity": 0.3937007874015748
        },
        {
          "duration": 0.1875,
          "durationTicks": 192,
          "midi": 35,
          "name": "B1",
          "ticks": 202752,
          "time": 198,
          "velocity": 0.3937007874015748
        },
        {
          "duration": 0.09375,
          "durationTicks": 96,
          "midi": 52,
          "name": "E3",
          "ticks": 202752,
          "time": 198,
          "velocity": 0.3937007874015748
        },
        {
          "duration": 0.09375,
          "durationTicks": 96,
          "midi": 46,
          "name": "A#2",
          "ticks": 202752,
          "time": 198,
          "velocity": 0.3937007874015748
        },
        {
          "duration": 0.09375,
          "durationTicks": 96,
          "midi": 36,
          "name": "C2",
          "ticks": 202944,
          "time": 198.1875,
          "velocity": 0.3937007874015748
        },
        {
          "duration": 0.1875,
          "durationTicks": 192,
          "midi": 44,
          "name": "G#2",
          "ticks": 202944,
          "time": 198.1875,
          "velocity": 0.3937007874015748
        },
        {
          "duration": 0.1875,
          "durationTicks": 192,
          "midi": 44,
          "name": "G#2",
          "ticks": 203136,
          "time": 198.375,
          "velocity": 0.3937007874015748
        },
        {
          "duration": 0.1875,
          "durationTicks": 192,
          "midi": 57,
          "name": "A3",
          "ticks": 203136,
          "time": 198.375,
          "velocity": 0.3937007874015748
        },
        {
          "duration": 0.09375,
          "durationTicks": 96,
          "midi": 40,
          "name": "E2",
          "ticks": 203136,
          "time": 198.375,
          "velocity": 0.3937007874015748
        },
        {
          "duration": 0.09375,
          "durationTicks": 96,
          "midi": 38,
          "name": "D2",
          "ticks": 203136,
          "time": 198.375,
          "velocity": 0.3937007874015748
        },
        {
          "duration": 0.1875,
          "durationTicks": 192,
          "midi": 44,
          "name": "G#2",
          "ticks": 203136,
          "time": 198.375,
          "velocity": 0.3937007874015748
        },
        {
          "duration": 0.1875,
          "durationTicks": 192,
          "midi": 35,
          "name": "B1",
          "ticks": 203136,
          "time": 198.375,
          "velocity": 0.3937007874015748
        },
        {
          "duration": 0.1875,
          "durationTicks": 192,
          "midi": 36,
          "name": "C2",
          "ticks": 203136,
          "time": 198.375,
          "velocity": 0.3937007874015748
        },
        {
          "duration": 0.09375,
          "durationTicks": 96,
          "midi": 36,
          "name": "C2",
          "ticks": 203328,
          "time": 198.5625,
          "velocity": 0.3937007874015748
        },
        {
          "duration": 0.1875,
          "durationTicks": 192,
          "midi": 44,
          "name": "G#2",
          "ticks": 203328,
          "time": 198.5625,
          "velocity": 0.3937007874015748
        },
        {
          "duration": 0.1875,
          "durationTicks": 192,
          "midi": 36,
          "name": "C2",
          "ticks": 203520,
          "time": 198.75,
          "velocity": 0.3937007874015748
        },
        {
          "duration": 0.1875,
          "durationTicks": 192,
          "midi": 57,
          "name": "A3",
          "ticks": 203520,
          "time": 198.75,
          "velocity": 0.3937007874015748
        },
        {
          "duration": 0.1875,
          "durationTicks": 192,
          "midi": 44,
          "name": "G#2",
          "ticks": 203520,
          "time": 198.75,
          "velocity": 0.3937007874015748
        },
        {
          "duration": 0.1875,
          "durationTicks": 192,
          "midi": 44,
          "name": "G#2",
          "ticks": 203520,
          "time": 198.75,
          "velocity": 0.3937007874015748
        },
        {
          "duration": 0.1875,
          "durationTicks": 192,
          "midi": 35,
          "name": "B1",
          "ticks": 203520,
          "time": 198.75,
          "velocity": 0.3937007874015748
        },
        {
          "duration": 0.1875,
          "durationTicks": 192,
          "midi": 44,
          "name": "G#2",
          "ticks": 203712,
          "time": 198.9375,
          "velocity": 0.3937007874015748
        },
        {
          "duration": 0.09375,
          "durationTicks": 96,
          "midi": 36,
          "name": "C2",
          "ticks": 203712,
          "time": 198.9375,
          "velocity": 0.3937007874015748
        },
        {
          "duration": 0.09375,
          "durationTicks": 96,
          "midi": 38,
          "name": "D2",
          "ticks": 203904,
          "time": 199.125,
          "velocity": 0.3937007874015748
        },
        {
          "duration": 0.1875,
          "durationTicks": 192,
          "midi": 44,
          "name": "G#2",
          "ticks": 203904,
          "time": 199.125,
          "velocity": 0.3937007874015748
        },
        {
          "duration": 0.1875,
          "durationTicks": 192,
          "midi": 44,
          "name": "G#2",
          "ticks": 203904,
          "time": 199.125,
          "velocity": 0.3937007874015748
        },
        {
          "duration": 0.1875,
          "durationTicks": 192,
          "midi": 35,
          "name": "B1",
          "ticks": 203904,
          "time": 199.125,
          "velocity": 0.3937007874015748
        },
        {
          "duration": 0.09375,
          "durationTicks": 96,
          "midi": 40,
          "name": "E2",
          "ticks": 203904,
          "time": 199.125,
          "velocity": 0.3937007874015748
        },
        {
          "duration": 0.1875,
          "durationTicks": 192,
          "midi": 36,
          "name": "C2",
          "ticks": 203904,
          "time": 199.125,
          "velocity": 0.3937007874015748
        },
        {
          "duration": 0.1875,
          "durationTicks": 192,
          "midi": 57,
          "name": "A3",
          "ticks": 203904,
          "time": 199.125,
          "velocity": 0.3937007874015748
        },
        {
          "duration": 0.1875,
          "durationTicks": 192,
          "midi": 44,
          "name": "G#2",
          "ticks": 204096,
          "time": 199.3125,
          "velocity": 0.3937007874015748
        },
        {
          "duration": 0.09375,
          "durationTicks": 96,
          "midi": 36,
          "name": "C2",
          "ticks": 204096,
          "time": 199.3125,
          "velocity": 0.3937007874015748
        },
        {
          "duration": 0.09375,
          "durationTicks": 96,
          "midi": 40,
          "name": "E2",
          "ticks": 204288,
          "time": 199.5,
          "velocity": 0.3937007874015748
        },
        {
          "duration": 0.09375,
          "durationTicks": 96,
          "midi": 36,
          "name": "C2",
          "ticks": 204288,
          "time": 199.5,
          "velocity": 0.3937007874015748
        },
        {
          "duration": 0.09375,
          "durationTicks": 96,
          "midi": 42,
          "name": "F#2",
          "ticks": 204288,
          "time": 199.5,
          "velocity": 0.3937007874015748
        },
        {
          "duration": 0.09375,
          "durationTicks": 96,
          "midi": 36,
          "name": "C2",
          "ticks": 204384,
          "time": 199.59375,
          "velocity": 0.3937007874015748
        },
        {
          "duration": 0.09375,
          "durationTicks": 96,
          "midi": 40,
          "name": "E2",
          "ticks": 204384,
          "time": 199.59375,
          "velocity": 0.3937007874015748
        },
        {
          "duration": 0.09375,
          "durationTicks": 96,
          "midi": 40,
          "name": "E2",
          "ticks": 204480,
          "time": 199.6875,
          "velocity": 0.3937007874015748
        },
        {
          "duration": 0.09375,
          "durationTicks": 96,
          "midi": 35,
          "name": "B1",
          "ticks": 204480,
          "time": 199.6875,
          "velocity": 0.3937007874015748
        },
        {
          "duration": 0.09375,
          "durationTicks": 96,
          "midi": 35,
          "name": "B1",
          "ticks": 204576,
          "time": 199.78125,
          "velocity": 0.3937007874015748
        },
        {
          "duration": 0.09375,
          "durationTicks": 96,
          "midi": 40,
          "name": "E2",
          "ticks": 204576,
          "time": 199.78125,
          "velocity": 0.3937007874015748
        },
        {
          "duration": 0.09375,
          "durationTicks": 96,
          "midi": 36,
          "name": "C2",
          "ticks": 204672,
          "time": 199.875,
          "velocity": 0.3937007874015748
        },
        {
          "duration": 0.09375,
          "durationTicks": 96,
          "midi": 38,
          "name": "D2",
          "ticks": 204672,
          "time": 199.875,
          "velocity": 0.3937007874015748
        },
        {
          "duration": 0.09375,
          "durationTicks": 96,
          "midi": 42,
          "name": "F#2",
          "ticks": 204672,
          "time": 199.875,
          "velocity": 0.3937007874015748
        },
        {
          "duration": 0.09375,
          "durationTicks": 96,
          "midi": 36,
          "name": "C2",
          "ticks": 204768,
          "time": 199.96875,
          "velocity": 0.3937007874015748
        },
        {
          "duration": 0.09375,
          "durationTicks": 96,
          "midi": 38,
          "name": "D2",
          "ticks": 204768,
          "time": 199.96875,
          "velocity": 0.3937007874015748
        },
        {
          "duration": 0.09375,
          "durationTicks": 96,
          "midi": 35,
          "name": "B1",
          "ticks": 204864,
          "time": 200.0625,
          "velocity": 0.3937007874015748
        },
        {
          "duration": 0.09375,
          "durationTicks": 96,
          "midi": 35,
          "name": "B1",
          "ticks": 204960,
          "time": 200.15625,
          "velocity": 0.3937007874015748
        },
        {
          "duration": 0.09375,
          "durationTicks": 96,
          "midi": 38,
          "name": "D2",
          "ticks": 205056,
          "time": 200.25,
          "velocity": 0.3937007874015748
        },
        {
          "duration": 0.09375,
          "durationTicks": 96,
          "midi": 36,
          "name": "C2",
          "ticks": 205056,
          "time": 200.25,
          "velocity": 0.3937007874015748
        },
        {
          "duration": 0.09375,
          "durationTicks": 96,
          "midi": 42,
          "name": "F#2",
          "ticks": 205056,
          "time": 200.25,
          "velocity": 0.3937007874015748
        },
        {
          "duration": 0.09375,
          "durationTicks": 96,
          "midi": 40,
          "name": "E2",
          "ticks": 205056,
          "time": 200.25,
          "velocity": 0.3937007874015748
        },
        {
          "duration": 0.09375,
          "durationTicks": 96,
          "midi": 36,
          "name": "C2",
          "ticks": 205152,
          "time": 200.34375,
          "velocity": 0.3937007874015748
        },
        {
          "duration": 0.09375,
          "durationTicks": 96,
          "midi": 35,
          "name": "B1",
          "ticks": 205248,
          "time": 200.4375,
          "velocity": 0.3937007874015748
        },
        {
          "duration": 0.09375,
          "durationTicks": 96,
          "midi": 42,
          "name": "F#2",
          "ticks": 205248,
          "time": 200.4375,
          "velocity": 0.3937007874015748
        },
        {
          "duration": 0.09375,
          "durationTicks": 96,
          "midi": 35,
          "name": "B1",
          "ticks": 205344,
          "time": 200.53125,
          "velocity": 0.3937007874015748
        },
        {
          "duration": 0.09375,
          "durationTicks": 96,
          "midi": 38,
          "name": "D2",
          "ticks": 205344,
          "time": 200.53125,
          "velocity": 0.3937007874015748
        },
        {
          "duration": 0.09375,
          "durationTicks": 96,
          "midi": 40,
          "name": "E2",
          "ticks": 205344,
          "time": 200.53125,
          "velocity": 0.3937007874015748
        },
        {
          "duration": 0.09375,
          "durationTicks": 96,
          "midi": 42,
          "name": "F#2",
          "ticks": 205440,
          "time": 200.625,
          "velocity": 0.3937007874015748
        },
        {
          "duration": 0.09375,
          "durationTicks": 96,
          "midi": 36,
          "name": "C2",
          "ticks": 205440,
          "time": 200.625,
          "velocity": 0.3937007874015748
        },
        {
          "duration": 0.09375,
          "durationTicks": 96,
          "midi": 36,
          "name": "C2",
          "ticks": 205536,
          "time": 200.71875,
          "velocity": 0.3937007874015748
        },
        {
          "duration": 0.09375,
          "durationTicks": 96,
          "midi": 38,
          "name": "D2",
          "ticks": 205632,
          "time": 200.8125,
          "velocity": 0.3937007874015748
        },
        {
          "duration": 0.09375,
          "durationTicks": 96,
          "midi": 42,
          "name": "F#2",
          "ticks": 205632,
          "time": 200.8125,
          "velocity": 0.3937007874015748
        },
        {
          "duration": 0.09375,
          "durationTicks": 96,
          "midi": 35,
          "name": "B1",
          "ticks": 205632,
          "time": 200.8125,
          "velocity": 0.3937007874015748
        },
        {
          "duration": 0.09375,
          "durationTicks": 96,
          "midi": 35,
          "name": "B1",
          "ticks": 205728,
          "time": 200.90625,
          "velocity": 0.3937007874015748
        },
        {
          "duration": 0.1875,
          "durationTicks": 192,
          "midi": 35,
          "name": "B1",
          "ticks": 205824,
          "time": 201,
          "velocity": 0.3937007874015748
        },
        {
          "duration": 0.09375,
          "durationTicks": 96,
          "midi": 46,
          "name": "A#2",
          "ticks": 205824,
          "time": 201,
          "velocity": 0.3937007874015748
        },
        {
          "duration": 0.09375,
          "durationTicks": 96,
          "midi": 46,
          "name": "A#2",
          "ticks": 205824,
          "time": 201,
          "velocity": 0.3937007874015748
        },
        {
          "duration": 0.1875,
          "durationTicks": 192,
          "midi": 57,
          "name": "A3",
          "ticks": 205824,
          "time": 201,
          "velocity": 0.3937007874015748
        },
        {
          "duration": 0.09375,
          "durationTicks": 96,
          "midi": 52,
          "name": "E3",
          "ticks": 205824,
          "time": 201,
          "velocity": 0.3937007874015748
        },
        {
          "duration": 0.1875,
          "durationTicks": 192,
          "midi": 44,
          "name": "G#2",
          "ticks": 205824,
          "time": 201,
          "velocity": 0.3937007874015748
        },
        {
          "duration": 0.1875,
          "durationTicks": 192,
          "midi": 36,
          "name": "C2",
          "ticks": 205824,
          "time": 201,
          "velocity": 0.3937007874015748
        },
        {
          "duration": 0.1875,
          "durationTicks": 192,
          "midi": 44,
          "name": "G#2",
          "ticks": 205824,
          "time": 201,
          "velocity": 0.3937007874015748
        },
        {
          "duration": 0.1875,
          "durationTicks": 192,
          "midi": 44,
          "name": "G#2",
          "ticks": 206016,
          "time": 201.1875,
          "velocity": 0.3937007874015748
        },
        {
          "duration": 0.09375,
          "durationTicks": 96,
          "midi": 36,
          "name": "C2",
          "ticks": 206016,
          "time": 201.1875,
          "velocity": 0.3937007874015748
        },
        {
          "duration": 0.1875,
          "durationTicks": 192,
          "midi": 36,
          "name": "C2",
          "ticks": 206208,
          "time": 201.375,
          "velocity": 0.3937007874015748
        },
        {
          "duration": 0.1875,
          "durationTicks": 192,
          "midi": 44,
          "name": "G#2",
          "ticks": 206208,
          "time": 201.375,
          "velocity": 0.3937007874015748
        },
        {
          "duration": 0.09375,
          "durationTicks": 96,
          "midi": 38,
          "name": "D2",
          "ticks": 206208,
          "time": 201.375,
          "velocity": 0.3937007874015748
        },
        {
          "duration": 0.09375,
          "durationTicks": 96,
          "midi": 40,
          "name": "E2",
          "ticks": 206208,
          "time": 201.375,
          "velocity": 0.3937007874015748
        },
        {
          "duration": 0.1875,
          "durationTicks": 192,
          "midi": 44,
          "name": "G#2",
          "ticks": 206208,
          "time": 201.375,
          "velocity": 0.3937007874015748
        },
        {
          "duration": 0.1875,
          "durationTicks": 192,
          "midi": 35,
          "name": "B1",
          "ticks": 206208,
          "time": 201.375,
          "velocity": 0.3937007874015748
        },
        {
          "duration": 0.1875,
          "durationTicks": 192,
          "midi": 57,
          "name": "A3",
          "ticks": 206208,
          "time": 201.375,
          "velocity": 0.3937007874015748
        },
        {
          "duration": 0.1875,
          "durationTicks": 192,
          "midi": 44,
          "name": "G#2",
          "ticks": 206400,
          "time": 201.5625,
          "velocity": 0.3937007874015748
        },
        {
          "duration": 0.09375,
          "durationTicks": 96,
          "midi": 36,
          "name": "C2",
          "ticks": 206400,
          "time": 201.5625,
          "velocity": 0.3937007874015748
        },
        {
          "duration": 0.1875,
          "durationTicks": 192,
          "midi": 35,
          "name": "B1",
          "ticks": 206592,
          "time": 201.75,
          "velocity": 0.3937007874015748
        },
        {
          "duration": 0.1875,
          "durationTicks": 192,
          "midi": 36,
          "name": "C2",
          "ticks": 206592,
          "time": 201.75,
          "velocity": 0.3937007874015748
        },
        {
          "duration": 0.1875,
          "durationTicks": 192,
          "midi": 57,
          "name": "A3",
          "ticks": 206592,
          "time": 201.75,
          "velocity": 0.3937007874015748
        },
        {
          "duration": 0.1875,
          "durationTicks": 192,
          "midi": 44,
          "name": "G#2",
          "ticks": 206592,
          "time": 201.75,
          "velocity": 0.3937007874015748
        },
        {
          "duration": 0.1875,
          "durationTicks": 192,
          "midi": 44,
          "name": "G#2",
          "ticks": 206592,
          "time": 201.75,
          "velocity": 0.3937007874015748
        },
        {
          "duration": 0.1875,
          "durationTicks": 192,
          "midi": 44,
          "name": "G#2",
          "ticks": 206784,
          "time": 201.9375,
          "velocity": 0.3937007874015748
        },
        {
          "duration": 0.09375,
          "durationTicks": 96,
          "midi": 36,
          "name": "C2",
          "ticks": 206784,
          "time": 201.9375,
          "velocity": 0.3937007874015748
        },
        {
          "duration": 0.1875,
          "durationTicks": 192,
          "midi": 35,
          "name": "B1",
          "ticks": 206976,
          "time": 202.125,
          "velocity": 0.3937007874015748
        },
        {
          "duration": 0.1875,
          "durationTicks": 192,
          "midi": 57,
          "name": "A3",
          "ticks": 206976,
          "time": 202.125,
          "velocity": 0.3937007874015748
        },
        {
          "duration": 0.1875,
          "durationTicks": 192,
          "midi": 44,
          "name": "G#2",
          "ticks": 206976,
          "time": 202.125,
          "velocity": 0.3937007874015748
        },
        {
          "duration": 0.1875,
          "durationTicks": 192,
          "midi": 44,
          "name": "G#2",
          "ticks": 206976,
          "time": 202.125,
          "velocity": 0.3937007874015748
        },
        {
          "duration": 0.1875,
          "durationTicks": 192,
          "midi": 36,
          "name": "C2",
          "ticks": 206976,
          "time": 202.125,
          "velocity": 0.3937007874015748
        },
        {
          "duration": 0.09375,
          "durationTicks": 96,
          "midi": 40,
          "name": "E2",
          "ticks": 206976,
          "time": 202.125,
          "velocity": 0.3937007874015748
        },
        {
          "duration": 0.09375,
          "durationTicks": 96,
          "midi": 38,
          "name": "D2",
          "ticks": 206976,
          "time": 202.125,
          "velocity": 0.3937007874015748
        },
        {
          "duration": 0.09375,
          "durationTicks": 96,
          "midi": 36,
          "name": "C2",
          "ticks": 207168,
          "time": 202.3125,
          "velocity": 0.3937007874015748
        },
        {
          "duration": 0.1875,
          "durationTicks": 192,
          "midi": 44,
          "name": "G#2",
          "ticks": 207168,
          "time": 202.3125,
          "velocity": 0.3937007874015748
        },
        {
          "duration": 0.09375,
          "durationTicks": 96,
          "midi": 46,
          "name": "A#2",
          "ticks": 207360,
          "time": 202.5,
          "velocity": 0.3937007874015748
        },
        {
          "duration": 0.1875,
          "durationTicks": 192,
          "midi": 35,
          "name": "B1",
          "ticks": 207360,
          "time": 202.5,
          "velocity": 0.3937007874015748
        },
        {
          "duration": 0.09375,
          "durationTicks": 96,
          "midi": 46,
          "name": "A#2",
          "ticks": 207360,
          "time": 202.5,
          "velocity": 0.3937007874015748
        },
        {
          "duration": 0.1875,
          "durationTicks": 192,
          "midi": 44,
          "name": "G#2",
          "ticks": 207360,
          "time": 202.5,
          "velocity": 0.3937007874015748
        },
        {
          "duration": 0.1875,
          "durationTicks": 192,
          "midi": 36,
          "name": "C2",
          "ticks": 207360,
          "time": 202.5,
          "velocity": 0.3937007874015748
        },
        {
          "duration": 0.1875,
          "durationTicks": 192,
          "midi": 44,
          "name": "G#2",
          "ticks": 207360,
          "time": 202.5,
          "velocity": 0.3937007874015748
        },
        {
          "duration": 0.1875,
          "durationTicks": 192,
          "midi": 57,
          "name": "A3",
          "ticks": 207360,
          "time": 202.5,
          "velocity": 0.3937007874015748
        },
        {
          "duration": 0.09375,
          "durationTicks": 96,
          "midi": 52,
          "name": "E3",
          "ticks": 207360,
          "time": 202.5,
          "velocity": 0.3937007874015748
        },
        {
          "duration": 0.09375,
          "durationTicks": 96,
          "midi": 36,
          "name": "C2",
          "ticks": 207552,
          "time": 202.6875,
          "velocity": 0.3937007874015748
        },
        {
          "duration": 0.1875,
          "durationTicks": 192,
          "midi": 44,
          "name": "G#2",
          "ticks": 207552,
          "time": 202.6875,
          "velocity": 0.3937007874015748
        },
        {
          "duration": 0.09375,
          "durationTicks": 96,
          "midi": 40,
          "name": "E2",
          "ticks": 207744,
          "time": 202.875,
          "velocity": 0.3937007874015748
        },
        {
          "duration": 0.1875,
          "durationTicks": 192,
          "midi": 57,
          "name": "A3",
          "ticks": 207744,
          "time": 202.875,
          "velocity": 0.3937007874015748
        },
        {
          "duration": 0.1875,
          "durationTicks": 192,
          "midi": 44,
          "name": "G#2",
          "ticks": 207744,
          "time": 202.875,
          "velocity": 0.3937007874015748
        },
        {
          "duration": 0.1875,
          "durationTicks": 192,
          "midi": 36,
          "name": "C2",
          "ticks": 207744,
          "time": 202.875,
          "velocity": 0.3937007874015748
        },
        {
          "duration": 0.09375,
          "durationTicks": 96,
          "midi": 38,
          "name": "D2",
          "ticks": 207744,
          "time": 202.875,
          "velocity": 0.3937007874015748
        },
        {
          "duration": 0.1875,
          "durationTicks": 192,
          "midi": 44,
          "name": "G#2",
          "ticks": 207744,
          "time": 202.875,
          "velocity": 0.3937007874015748
        },
        {
          "duration": 0.1875,
          "durationTicks": 192,
          "midi": 35,
          "name": "B1",
          "ticks": 207744,
          "time": 202.875,
          "velocity": 0.3937007874015748
        },
        {
          "duration": 0.09375,
          "durationTicks": 96,
          "midi": 36,
          "name": "C2",
          "ticks": 207936,
          "time": 203.0625,
          "velocity": 0.3937007874015748
        },
        {
          "duration": 0.1875,
          "durationTicks": 192,
          "midi": 44,
          "name": "G#2",
          "ticks": 207936,
          "time": 203.0625,
          "velocity": 0.3937007874015748
        },
        {
          "duration": 0.09375,
          "durationTicks": 96,
          "midi": 38,
          "name": "D2",
          "ticks": 208032,
          "time": 203.15625,
          "velocity": 0.3937007874015748
        },
        {
          "duration": 0.1875,
          "durationTicks": 192,
          "midi": 35,
          "name": "B1",
          "ticks": 208128,
          "time": 203.25,
          "velocity": 0.3937007874015748
        },
        {
          "duration": 0.1875,
          "durationTicks": 192,
          "midi": 44,
          "name": "G#2",
          "ticks": 208128,
          "time": 203.25,
          "velocity": 0.3937007874015748
        },
        {
          "duration": 0.1875,
          "durationTicks": 192,
          "midi": 57,
          "name": "A3",
          "ticks": 208128,
          "time": 203.25,
          "velocity": 0.3937007874015748
        },
        {
          "duration": 0.1875,
          "durationTicks": 192,
          "midi": 44,
          "name": "G#2",
          "ticks": 208128,
          "time": 203.25,
          "velocity": 0.3937007874015748
        },
        {
          "duration": 0.1875,
          "durationTicks": 192,
          "midi": 36,
          "name": "C2",
          "ticks": 208128,
          "time": 203.25,
          "velocity": 0.3937007874015748
        },
        {
          "duration": 0.09375,
          "durationTicks": 96,
          "midi": 38,
          "name": "D2",
          "ticks": 208224,
          "time": 203.34375,
          "velocity": 0.3937007874015748
        },
        {
          "duration": 0.1875,
          "durationTicks": 192,
          "midi": 44,
          "name": "G#2",
          "ticks": 208320,
          "time": 203.4375,
          "velocity": 0.3937007874015748
        },
        {
          "duration": 0.09375,
          "durationTicks": 96,
          "midi": 38,
          "name": "D2",
          "ticks": 208416,
          "time": 203.53125,
          "velocity": 0.3937007874015748
        },
        {
          "duration": 0.1875,
          "durationTicks": 192,
          "midi": 35,
          "name": "B1",
          "ticks": 208512,
          "time": 203.625,
          "velocity": 0.3937007874015748
        },
        {
          "duration": 0.1875,
          "durationTicks": 192,
          "midi": 57,
          "name": "A3",
          "ticks": 208512,
          "time": 203.625,
          "velocity": 0.3937007874015748
        },
        {
          "duration": 0.09375,
          "durationTicks": 96,
          "midi": 40,
          "name": "E2",
          "ticks": 208512,
          "time": 203.625,
          "velocity": 0.3937007874015748
        },
        {
          "duration": 0.1875,
          "durationTicks": 192,
          "midi": 44,
          "name": "G#2",
          "ticks": 208512,
          "time": 203.625,
          "velocity": 0.3937007874015748
        },
        {
          "duration": 0.09375,
          "durationTicks": 96,
          "midi": 38,
          "name": "D2",
          "ticks": 208512,
          "time": 203.625,
          "velocity": 0.3937007874015748
        },
        {
          "duration": 0.1875,
          "durationTicks": 192,
          "midi": 36,
          "name": "C2",
          "ticks": 208512,
          "time": 203.625,
          "velocity": 0.3937007874015748
        },
        {
          "duration": 0.1875,
          "durationTicks": 192,
          "midi": 44,
          "name": "G#2",
          "ticks": 208512,
          "time": 203.625,
          "velocity": 0.3937007874015748
        },
        {
          "duration": 0.09375,
          "durationTicks": 96,
          "midi": 38,
          "name": "D2",
          "ticks": 208704,
          "time": 203.8125,
          "velocity": 0.3937007874015748
        },
        {
          "duration": 0.1875,
          "durationTicks": 192,
          "midi": 44,
          "name": "G#2",
          "ticks": 208704,
          "time": 203.8125,
          "velocity": 0.3937007874015748
        },
        {
          "duration": 0.1875,
          "durationTicks": 192,
          "midi": 44,
          "name": "G#2",
          "ticks": 208896,
          "time": 204,
          "velocity": 0.3937007874015748
        },
        {
          "duration": 0.09375,
          "durationTicks": 96,
          "midi": 52,
          "name": "E3",
          "ticks": 208896,
          "time": 204,
          "velocity": 0.3937007874015748
        },
        {
          "duration": 0.1875,
          "durationTicks": 192,
          "midi": 44,
          "name": "G#2",
          "ticks": 208896,
          "time": 204,
          "velocity": 0.3937007874015748
        },
        {
          "duration": 0.09375,
          "durationTicks": 96,
          "midi": 46,
          "name": "A#2",
          "ticks": 208896,
          "time": 204,
          "velocity": 0.3937007874015748
        },
        {
          "duration": 0.1875,
          "durationTicks": 192,
          "midi": 35,
          "name": "B1",
          "ticks": 208896,
          "time": 204,
          "velocity": 0.3937007874015748
        },
        {
          "duration": 0.1875,
          "durationTicks": 192,
          "midi": 36,
          "name": "C2",
          "ticks": 208896,
          "time": 204,
          "velocity": 0.3937007874015748
        },
        {
          "duration": 0.09375,
          "durationTicks": 96,
          "midi": 46,
          "name": "A#2",
          "ticks": 208896,
          "time": 204,
          "velocity": 0.3937007874015748
        },
        {
          "duration": 0.1875,
          "durationTicks": 192,
          "midi": 57,
          "name": "A3",
          "ticks": 208896,
          "time": 204,
          "velocity": 0.3937007874015748
        },
        {
          "duration": 0.1875,
          "durationTicks": 192,
          "midi": 44,
          "name": "G#2",
          "ticks": 209088,
          "time": 204.1875,
          "velocity": 0.3937007874015748
        },
        {
          "duration": 0.09375,
          "durationTicks": 96,
          "midi": 36,
          "name": "C2",
          "ticks": 209088,
          "time": 204.1875,
          "velocity": 0.3937007874015748
        },
        {
          "duration": 0.09375,
          "durationTicks": 96,
          "midi": 38,
          "name": "D2",
          "ticks": 209280,
          "time": 204.375,
          "velocity": 0.3937007874015748
        },
        {
          "duration": 0.09375,
          "durationTicks": 96,
          "midi": 40,
          "name": "E2",
          "ticks": 209280,
          "time": 204.375,
          "velocity": 0.3937007874015748
        },
        {
          "duration": 0.1875,
          "durationTicks": 192,
          "midi": 35,
          "name": "B1",
          "ticks": 209280,
          "time": 204.375,
          "velocity": 0.3937007874015748
        },
        {
          "duration": 0.1875,
          "durationTicks": 192,
          "midi": 57,
          "name": "A3",
          "ticks": 209280,
          "time": 204.375,
          "velocity": 0.3937007874015748
        },
        {
          "duration": 0.1875,
          "durationTicks": 192,
          "midi": 44,
          "name": "G#2",
          "ticks": 209280,
          "time": 204.375,
          "velocity": 0.3937007874015748
        },
        {
          "duration": 0.1875,
          "durationTicks": 192,
          "midi": 44,
          "name": "G#2",
          "ticks": 209280,
          "time": 204.375,
          "velocity": 0.3937007874015748
        },
        {
          "duration": 0.1875,
          "durationTicks": 192,
          "midi": 36,
          "name": "C2",
          "ticks": 209280,
          "time": 204.375,
          "velocity": 0.3937007874015748
        },
        {
          "duration": 0.09375,
          "durationTicks": 96,
          "midi": 36,
          "name": "C2",
          "ticks": 209472,
          "time": 204.5625,
          "velocity": 0.3937007874015748
        },
        {
          "duration": 0.1875,
          "durationTicks": 192,
          "midi": 44,
          "name": "G#2",
          "ticks": 209472,
          "time": 204.5625,
          "velocity": 0.3937007874015748
        },
        {
          "duration": 0.1875,
          "durationTicks": 192,
          "midi": 44,
          "name": "G#2",
          "ticks": 209664,
          "time": 204.75,
          "velocity": 0.3937007874015748
        },
        {
          "duration": 0.1875,
          "durationTicks": 192,
          "midi": 35,
          "name": "B1",
          "ticks": 209664,
          "time": 204.75,
          "velocity": 0.3937007874015748
        },
        {
          "duration": 0.1875,
          "durationTicks": 192,
          "midi": 36,
          "name": "C2",
          "ticks": 209664,
          "time": 204.75,
          "velocity": 0.3937007874015748
        },
        {
          "duration": 0.1875,
          "durationTicks": 192,
          "midi": 57,
          "name": "A3",
          "ticks": 209664,
          "time": 204.75,
          "velocity": 0.3937007874015748
        },
        {
          "duration": 0.1875,
          "durationTicks": 192,
          "midi": 44,
          "name": "G#2",
          "ticks": 209664,
          "time": 204.75,
          "velocity": 0.3937007874015748
        },
        {
          "duration": 0.1875,
          "durationTicks": 192,
          "midi": 44,
          "name": "G#2",
          "ticks": 209856,
          "time": 204.9375,
          "velocity": 0.3937007874015748
        },
        {
          "duration": 0.09375,
          "durationTicks": 96,
          "midi": 36,
          "name": "C2",
          "ticks": 209856,
          "time": 204.9375,
          "velocity": 0.3937007874015748
        },
        {
          "duration": 0.1875,
          "durationTicks": 192,
          "midi": 57,
          "name": "A3",
          "ticks": 210048,
          "time": 205.125,
          "velocity": 0.3937007874015748
        },
        {
          "duration": 0.09375,
          "durationTicks": 96,
          "midi": 40,
          "name": "E2",
          "ticks": 210048,
          "time": 205.125,
          "velocity": 0.3937007874015748
        },
        {
          "duration": 0.1875,
          "durationTicks": 192,
          "midi": 44,
          "name": "G#2",
          "ticks": 210048,
          "time": 205.125,
          "velocity": 0.3937007874015748
        },
        {
          "duration": 0.1875,
          "durationTicks": 192,
          "midi": 44,
          "name": "G#2",
          "ticks": 210048,
          "time": 205.125,
          "velocity": 0.3937007874015748
        },
        {
          "duration": 0.1875,
          "durationTicks": 192,
          "midi": 36,
          "name": "C2",
          "ticks": 210048,
          "time": 205.125,
          "velocity": 0.3937007874015748
        },
        {
          "duration": 0.1875,
          "durationTicks": 192,
          "midi": 35,
          "name": "B1",
          "ticks": 210048,
          "time": 205.125,
          "velocity": 0.3937007874015748
        },
        {
          "duration": 0.09375,
          "durationTicks": 96,
          "midi": 38,
          "name": "D2",
          "ticks": 210048,
          "time": 205.125,
          "velocity": 0.3937007874015748
        },
        {
          "duration": 0.1875,
          "durationTicks": 192,
          "midi": 44,
          "name": "G#2",
          "ticks": 210240,
          "time": 205.3125,
          "velocity": 0.3937007874015748
        },
        {
          "duration": 0.09375,
          "durationTicks": 96,
          "midi": 36,
          "name": "C2",
          "ticks": 210240,
          "time": 205.3125,
          "velocity": 0.3937007874015748
        },
        {
          "duration": 0.09375,
          "durationTicks": 96,
          "midi": 52,
          "name": "E3",
          "ticks": 210432,
          "time": 205.5,
          "velocity": 0.3937007874015748
        },
        {
          "duration": 0.1875,
          "durationTicks": 192,
          "midi": 44,
          "name": "G#2",
          "ticks": 210432,
          "time": 205.5,
          "velocity": 0.3937007874015748
        },
        {
          "duration": 0.09375,
          "durationTicks": 96,
          "midi": 46,
          "name": "A#2",
          "ticks": 210432,
          "time": 205.5,
          "velocity": 0.3937007874015748
        },
        {
          "duration": 0.1875,
          "durationTicks": 192,
          "midi": 57,
          "name": "A3",
          "ticks": 210432,
          "time": 205.5,
          "velocity": 0.3937007874015748
        },
        {
          "duration": 0.1875,
          "durationTicks": 192,
          "midi": 44,
          "name": "G#2",
          "ticks": 210432,
          "time": 205.5,
          "velocity": 0.3937007874015748
        },
        {
          "duration": 0.1875,
          "durationTicks": 192,
          "midi": 36,
          "name": "C2",
          "ticks": 210432,
          "time": 205.5,
          "velocity": 0.3937007874015748
        },
        {
          "duration": 0.1875,
          "durationTicks": 192,
          "midi": 35,
          "name": "B1",
          "ticks": 210432,
          "time": 205.5,
          "velocity": 0.3937007874015748
        },
        {
          "duration": 0.09375,
          "durationTicks": 96,
          "midi": 36,
          "name": "C2",
          "ticks": 210624,
          "time": 205.6875,
          "velocity": 0.3937007874015748
        },
        {
          "duration": 0.1875,
          "durationTicks": 192,
          "midi": 44,
          "name": "G#2",
          "ticks": 210624,
          "time": 205.6875,
          "velocity": 0.3937007874015748
        },
        {
          "duration": 0.1875,
          "durationTicks": 192,
          "midi": 44,
          "name": "G#2",
          "ticks": 210816,
          "time": 205.875,
          "velocity": 0.3937007874015748
        },
        {
          "duration": 0.09375,
          "durationTicks": 96,
          "midi": 38,
          "name": "D2",
          "ticks": 210816,
          "time": 205.875,
          "velocity": 0.3937007874015748
        },
        {
          "duration": 0.1875,
          "durationTicks": 192,
          "midi": 36,
          "name": "C2",
          "ticks": 210816,
          "time": 205.875,
          "velocity": 0.3937007874015748
        },
        {
          "duration": 0.1875,
          "durationTicks": 192,
          "midi": 35,
          "name": "B1",
          "ticks": 210816,
          "time": 205.875,
          "velocity": 0.3937007874015748
        },
        {
          "duration": 0.09375,
          "durationTicks": 96,
          "midi": 40,
          "name": "E2",
          "ticks": 210816,
          "time": 205.875,
          "velocity": 0.3937007874015748
        },
        {
          "duration": 0.1875,
          "durationTicks": 192,
          "midi": 57,
          "name": "A3",
          "ticks": 210816,
          "time": 205.875,
          "velocity": 0.3937007874015748
        },
        {
          "duration": 0.1875,
          "durationTicks": 192,
          "midi": 44,
          "name": "G#2",
          "ticks": 210816,
          "time": 205.875,
          "velocity": 0.3937007874015748
        },
        {
          "duration": 0.1875,
          "durationTicks": 192,
          "midi": 44,
          "name": "G#2",
          "ticks": 211008,
          "time": 206.0625,
          "velocity": 0.3937007874015748
        },
        {
          "duration": 0.09375,
          "durationTicks": 96,
          "midi": 36,
          "name": "C2",
          "ticks": 211008,
          "time": 206.0625,
          "velocity": 0.3937007874015748
        },
        {
          "duration": 0.09375,
          "durationTicks": 96,
          "midi": 38,
          "name": "D2",
          "ticks": 211104,
          "time": 206.15625,
          "velocity": 0.3937007874015748
        },
        {
          "duration": 0.1875,
          "durationTicks": 192,
          "midi": 57,
          "name": "A3",
          "ticks": 211200,
          "time": 206.25,
          "velocity": 0.3937007874015748
        },
        {
          "duration": 0.1875,
          "durationTicks": 192,
          "midi": 44,
          "name": "G#2",
          "ticks": 211200,
          "time": 206.25,
          "velocity": 0.3937007874015748
        },
        {
          "duration": 0.1875,
          "durationTicks": 192,
          "midi": 44,
          "name": "G#2",
          "ticks": 211200,
          "time": 206.25,
          "velocity": 0.3937007874015748
        },
        {
          "duration": 0.1875,
          "durationTicks": 192,
          "midi": 35,
          "name": "B1",
          "ticks": 211200,
          "time": 206.25,
          "velocity": 0.3937007874015748
        },
        {
          "duration": 0.1875,
          "durationTicks": 192,
          "midi": 36,
          "name": "C2",
          "ticks": 211200,
          "time": 206.25,
          "velocity": 0.3937007874015748
        },
        {
          "duration": 0.09375,
          "durationTicks": 96,
          "midi": 38,
          "name": "D2",
          "ticks": 211296,
          "time": 206.34375,
          "velocity": 0.3937007874015748
        },
        {
          "duration": 0.1875,
          "durationTicks": 192,
          "midi": 44,
          "name": "G#2",
          "ticks": 211392,
          "time": 206.4375,
          "velocity": 0.3937007874015748
        },
        {
          "duration": 0.09375,
          "durationTicks": 96,
          "midi": 38,
          "name": "D2",
          "ticks": 211488,
          "time": 206.53125,
          "velocity": 0.3937007874015748
        },
        {
          "duration": 0.1875,
          "durationTicks": 192,
          "midi": 44,
          "name": "G#2",
          "ticks": 211584,
          "time": 206.625,
          "velocity": 0.3937007874015748
        },
        {
          "duration": 0.09375,
          "durationTicks": 96,
          "midi": 38,
          "name": "D2",
          "ticks": 211584,
          "time": 206.625,
          "velocity": 0.3937007874015748
        },
        {
          "duration": 0.09375,
          "durationTicks": 96,
          "midi": 40,
          "name": "E2",
          "ticks": 211584,
          "time": 206.625,
          "velocity": 0.3937007874015748
        },
        {
          "duration": 0.1875,
          "durationTicks": 192,
          "midi": 44,
          "name": "G#2",
          "ticks": 211584,
          "time": 206.625,
          "velocity": 0.3937007874015748
        },
        {
          "duration": 0.1875,
          "durationTicks": 192,
          "midi": 36,
          "name": "C2",
          "ticks": 211584,
          "time": 206.625,
          "velocity": 0.3937007874015748
        },
        {
          "duration": 0.1875,
          "durationTicks": 192,
          "midi": 35,
          "name": "B1",
          "ticks": 211584,
          "time": 206.625,
          "velocity": 0.3937007874015748
        },
        {
          "duration": 0.1875,
          "durationTicks": 192,
          "midi": 57,
          "name": "A3",
          "ticks": 211584,
          "time": 206.625,
          "velocity": 0.3937007874015748
        },
        {
          "duration": 0.1875,
          "durationTicks": 192,
          "midi": 44,
          "name": "G#2",
          "ticks": 211776,
          "time": 206.8125,
          "velocity": 0.3937007874015748
        },
        {
          "duration": 0.09375,
          "durationTicks": 96,
          "midi": 38,
          "name": "D2",
          "ticks": 211776,
          "time": 206.8125,
          "velocity": 0.3937007874015748
        },
        {
          "duration": 0.09375,
          "durationTicks": 96,
          "midi": 46,
          "name": "A#2",
          "ticks": 211968,
          "time": 207,
          "velocity": 0.3937007874015748
        },
        {
          "duration": 0.1875,
          "durationTicks": 192,
          "midi": 57,
          "name": "A3",
          "ticks": 211968,
          "time": 207,
          "velocity": 0.3937007874015748
        },
        {
          "duration": 0.1875,
          "durationTicks": 192,
          "midi": 36,
          "name": "C2",
          "ticks": 211968,
          "time": 207,
          "velocity": 0.3937007874015748
        },
        {
          "duration": 0.09375,
          "durationTicks": 96,
          "midi": 46,
          "name": "A#2",
          "ticks": 211968,
          "time": 207,
          "velocity": 0.3937007874015748
        },
        {
          "duration": 0.09375,
          "durationTicks": 96,
          "midi": 52,
          "name": "E3",
          "ticks": 211968,
          "time": 207,
          "velocity": 0.3937007874015748
        },
        {
          "duration": 0.1875,
          "durationTicks": 192,
          "midi": 35,
          "name": "B1",
          "ticks": 211968,
          "time": 207,
          "velocity": 0.3937007874015748
        },
        {
          "duration": 0.09375,
          "durationTicks": 96,
          "midi": 36,
          "name": "C2",
          "ticks": 212160,
          "time": 207.1875,
          "velocity": 0.3937007874015748
        },
        {
          "duration": 0.09375,
          "durationTicks": 96,
          "midi": 35,
          "name": "B1",
          "ticks": 212160,
          "time": 207.1875,
          "velocity": 0.3937007874015748
        },
        {
          "duration": 0.09375,
          "durationTicks": 96,
          "midi": 38,
          "name": "D2",
          "ticks": 212352,
          "time": 207.375,
          "velocity": 0.3937007874015748
        },
        {
          "duration": 0.1875,
          "durationTicks": 192,
          "midi": 35,
          "name": "B1",
          "ticks": 212352,
          "time": 207.375,
          "velocity": 0.3937007874015748
        },
        {
          "duration": 0.1875,
          "durationTicks": 192,
          "midi": 36,
          "name": "C2",
          "ticks": 212352,
          "time": 207.375,
          "velocity": 0.3937007874015748
        },
        {
          "duration": 0.1875,
          "durationTicks": 192,
          "midi": 57,
          "name": "A3",
          "ticks": 212352,
          "time": 207.375,
          "velocity": 0.3937007874015748
        },
        {
          "duration": 0.09375,
          "durationTicks": 96,
          "midi": 36,
          "name": "C2",
          "ticks": 212544,
          "time": 207.5625,
          "velocity": 0.3937007874015748
        },
        {
          "duration": 0.09375,
          "durationTicks": 96,
          "midi": 35,
          "name": "B1",
          "ticks": 212544,
          "time": 207.5625,
          "velocity": 0.3937007874015748
        },
        {
          "duration": 0.1875,
          "durationTicks": 192,
          "midi": 36,
          "name": "C2",
          "ticks": 212736,
          "time": 207.75,
          "velocity": 0.3937007874015748
        },
        {
          "duration": 0.1875,
          "durationTicks": 192,
          "midi": 35,
          "name": "B1",
          "ticks": 212736,
          "time": 207.75,
          "velocity": 0.3937007874015748
        },
        {
          "duration": 0.1875,
          "durationTicks": 192,
          "midi": 57,
          "name": "A3",
          "ticks": 212736,
          "time": 207.75,
          "velocity": 0.3937007874015748
        },
        {
          "duration": 0.09375,
          "durationTicks": 96,
          "midi": 36,
          "name": "C2",
          "ticks": 212928,
          "time": 207.9375,
          "velocity": 0.3937007874015748
        },
        {
          "duration": 0.09375,
          "durationTicks": 96,
          "midi": 38,
          "name": "D2",
          "ticks": 213120,
          "time": 208.125,
          "velocity": 0.3937007874015748
        },
        {
          "duration": 0.1875,
          "durationTicks": 192,
          "midi": 36,
          "name": "C2",
          "ticks": 213120,
          "time": 208.125,
          "velocity": 0.3937007874015748
        },
        {
          "duration": 0.1875,
          "durationTicks": 192,
          "midi": 57,
          "name": "A3",
          "ticks": 213120,
          "time": 208.125,
          "velocity": 0.3937007874015748
        },
        {
          "duration": 0.1875,
          "durationTicks": 192,
          "midi": 35,
          "name": "B1",
          "ticks": 213120,
          "time": 208.125,
          "velocity": 0.3937007874015748
        },
        {
          "duration": 0.09375,
          "durationTicks": 96,
          "midi": 36,
          "name": "C2",
          "ticks": 213312,
          "time": 208.3125,
          "velocity": 0.3937007874015748
        },
        {
          "duration": 0.09375,
          "durationTicks": 96,
          "midi": 36,
          "name": "C2",
          "ticks": 213504,
          "time": 208.5,
          "velocity": 0.3937007874015748
        },
        {
          "duration": 0.09375,
          "durationTicks": 96,
          "midi": 40,
          "name": "E2",
          "ticks": 213504,
          "time": 208.5,
          "velocity": 0.3937007874015748
        },
        {
          "duration": 0.09375,
          "durationTicks": 96,
          "midi": 36,
          "name": "C2",
          "ticks": 213600,
          "time": 208.59375,
          "velocity": 0.3937007874015748
        },
        {
          "duration": 0.09375,
          "durationTicks": 96,
          "midi": 40,
          "name": "E2",
          "ticks": 213600,
          "time": 208.59375,
          "velocity": 0.3937007874015748
        },
        {
          "duration": 0.09375,
          "durationTicks": 96,
          "midi": 38,
          "name": "D2",
          "ticks": 213696,
          "time": 208.6875,
          "velocity": 0.3937007874015748
        },
        {
          "duration": 0.09375,
          "durationTicks": 96,
          "midi": 35,
          "name": "B1",
          "ticks": 213696,
          "time": 208.6875,
          "velocity": 0.3937007874015748
        },
        {
          "duration": 0.09375,
          "durationTicks": 96,
          "midi": 38,
          "name": "D2",
          "ticks": 213792,
          "time": 208.78125,
          "velocity": 0.3937007874015748
        },
        {
          "duration": 0.09375,
          "durationTicks": 96,
          "midi": 35,
          "name": "B1",
          "ticks": 213792,
          "time": 208.78125,
          "velocity": 0.3937007874015748
        },
        {
          "duration": 0.09375,
          "durationTicks": 96,
          "midi": 36,
          "name": "C2",
          "ticks": 213888,
          "time": 208.875,
          "velocity": 0.3937007874015748
        },
        {
          "duration": 0.09375,
          "durationTicks": 96,
          "midi": 36,
          "name": "C2",
          "ticks": 213984,
          "time": 208.96875,
          "velocity": 0.3937007874015748
        },
        {
          "duration": 0.09375,
          "durationTicks": 96,
          "midi": 38,
          "name": "D2",
          "ticks": 213984,
          "time": 208.96875,
          "velocity": 0.3937007874015748
        },
        {
          "duration": 0.09375,
          "durationTicks": 96,
          "midi": 35,
          "name": "B1",
          "ticks": 214080,
          "time": 209.0625,
          "velocity": 0.3937007874015748
        },
        {
          "duration": 0.09375,
          "durationTicks": 96,
          "midi": 35,
          "name": "B1",
          "ticks": 214176,
          "time": 209.15625,
          "velocity": 0.3937007874015748
        },
        {
          "duration": 0.09375,
          "durationTicks": 96,
          "midi": 38,
          "name": "D2",
          "ticks": 214272,
          "time": 209.25,
          "velocity": 0.3937007874015748
        },
        {
          "duration": 0.09375,
          "durationTicks": 96,
          "midi": 40,
          "name": "E2",
          "ticks": 214272,
          "time": 209.25,
          "velocity": 0.3937007874015748
        },
        {
          "duration": 0.09375,
          "durationTicks": 96,
          "midi": 36,
          "name": "C2",
          "ticks": 214272,
          "time": 209.25,
          "velocity": 0.3937007874015748
        },
        {
          "duration": 0.09375,
          "durationTicks": 96,
          "midi": 36,
          "name": "C2",
          "ticks": 214368,
          "time": 209.34375,
          "velocity": 0.3937007874015748
        },
        {
          "duration": 0.09375,
          "durationTicks": 96,
          "midi": 35,
          "name": "B1",
          "ticks": 214464,
          "time": 209.4375,
          "velocity": 0.3937007874015748
        },
        {
          "duration": 0.09375,
          "durationTicks": 96,
          "midi": 35,
          "name": "B1",
          "ticks": 214560,
          "time": 209.53125,
          "velocity": 0.3937007874015748
        },
        {
          "duration": 0.09375,
          "durationTicks": 96,
          "midi": 36,
          "name": "C2",
          "ticks": 214656,
          "time": 209.625,
          "velocity": 0.3937007874015748
        },
        {
          "duration": 0.09375,
          "durationTicks": 96,
          "midi": 36,
          "name": "C2",
          "ticks": 214752,
          "time": 209.71875,
          "velocity": 0.3937007874015748
        },
        {
          "duration": 0.09375,
          "durationTicks": 96,
          "midi": 35,
          "name": "B1",
          "ticks": 214848,
          "time": 209.8125,
          "velocity": 0.3937007874015748
        },
        {
          "duration": 0.09375,
          "durationTicks": 96,
          "midi": 35,
          "name": "B1",
          "ticks": 214944,
          "time": 209.90625,
          "velocity": 0.3937007874015748
        },
        {
          "duration": 0.1875,
          "durationTicks": 192,
          "midi": 35,
          "name": "B1",
          "ticks": 215040,
          "time": 210,
          "velocity": 0.3937007874015748
        },
        {
          "duration": 0.1875,
          "durationTicks": 192,
          "midi": 44,
          "name": "G#2",
          "ticks": 215040,
          "time": 210,
          "velocity": 0.3937007874015748
        },
        {
          "duration": 0.1875,
          "durationTicks": 192,
          "midi": 52,
          "name": "E3",
          "ticks": 215040,
          "time": 210,
          "velocity": 0.3937007874015748
        },
        {
          "duration": 0.1875,
          "durationTicks": 192,
          "midi": 44,
          "name": "G#2",
          "ticks": 215040,
          "time": 210,
          "velocity": 0.3937007874015748
        },
        {
          "duration": 0.1875,
          "durationTicks": 192,
          "midi": 36,
          "name": "C2",
          "ticks": 215040,
          "time": 210,
          "velocity": 0.3937007874015748
        },
        {
          "duration": 0.1875,
          "durationTicks": 192,
          "midi": 57,
          "name": "A3",
          "ticks": 215040,
          "time": 210,
          "velocity": 0.3937007874015748
        },
        {
          "duration": 0.1875,
          "durationTicks": 192,
          "midi": 44,
          "name": "G#2",
          "ticks": 215424,
          "time": 210.375,
          "velocity": 0.3937007874015748
        },
        {
          "duration": 0.09375,
          "durationTicks": 96,
          "midi": 38,
          "name": "D2",
          "ticks": 215424,
          "time": 210.375,
          "velocity": 0.3937007874015748
        },
        {
          "duration": 0.1875,
          "durationTicks": 192,
          "midi": 57,
          "name": "A3",
          "ticks": 215424,
          "time": 210.375,
          "velocity": 0.3937007874015748
        },
        {
          "duration": 0.1875,
          "durationTicks": 192,
          "midi": 36,
          "name": "C2",
          "ticks": 215424,
          "time": 210.375,
          "velocity": 0.3937007874015748
        },
        {
          "duration": 0.09375,
          "durationTicks": 96,
          "midi": 40,
          "name": "E2",
          "ticks": 215424,
          "time": 210.375,
          "velocity": 0.3937007874015748
        },
        {
          "duration": 0.1875,
          "durationTicks": 192,
          "midi": 35,
          "name": "B1",
          "ticks": 215424,
          "time": 210.375,
          "velocity": 0.3937007874015748
        },
        {
          "duration": 0.1875,
          "durationTicks": 192,
          "midi": 44,
          "name": "G#2",
          "ticks": 215424,
          "time": 210.375,
          "velocity": 0.3937007874015748
        },
        {
          "duration": 0.1875,
          "durationTicks": 192,
          "midi": 44,
          "name": "G#2",
          "ticks": 215808,
          "time": 210.75,
          "velocity": 0.3937007874015748
        },
        {
          "duration": 0.1875,
          "durationTicks": 192,
          "midi": 35,
          "name": "B1",
          "ticks": 215808,
          "time": 210.75,
          "velocity": 0.3937007874015748
        },
        {
          "duration": 0.1875,
          "durationTicks": 192,
          "midi": 57,
          "name": "A3",
          "ticks": 215808,
          "time": 210.75,
          "velocity": 0.3937007874015748
        },
        {
          "duration": 0.1875,
          "durationTicks": 192,
          "midi": 36,
          "name": "C2",
          "ticks": 215808,
          "time": 210.75,
          "velocity": 0.3937007874015748
        },
        {
          "duration": 0.1875,
          "durationTicks": 192,
          "midi": 44,
          "name": "G#2",
          "ticks": 215808,
          "time": 210.75,
          "velocity": 0.3937007874015748
        },
        {
          "duration": 0.1875,
          "durationTicks": 192,
          "midi": 44,
          "name": "G#2",
          "ticks": 216192,
          "time": 211.125,
          "velocity": 0.3937007874015748
        },
        {
          "duration": 0.1875,
          "durationTicks": 192,
          "midi": 44,
          "name": "G#2",
          "ticks": 216192,
          "time": 211.125,
          "velocity": 0.3937007874015748
        },
        {
          "duration": 0.1875,
          "durationTicks": 192,
          "midi": 35,
          "name": "B1",
          "ticks": 216192,
          "time": 211.125,
          "velocity": 0.3937007874015748
        },
        {
          "duration": 0.1875,
          "durationTicks": 192,
          "midi": 36,
          "name": "C2",
          "ticks": 216192,
          "time": 211.125,
          "velocity": 0.3937007874015748
        },
        {
          "duration": 0.09375,
          "durationTicks": 96,
          "midi": 38,
          "name": "D2",
          "ticks": 216192,
          "time": 211.125,
          "velocity": 0.3937007874015748
        },
        {
          "duration": 0.09375,
          "durationTicks": 96,
          "midi": 40,
          "name": "E2",
          "ticks": 216192,
          "time": 211.125,
          "velocity": 0.3937007874015748
        },
        {
          "duration": 0.1875,
          "durationTicks": 192,
          "midi": 57,
          "name": "A3",
          "ticks": 216192,
          "time": 211.125,
          "velocity": 0.3937007874015748
        },
        {
          "duration": 0.1875,
          "durationTicks": 192,
          "midi": 52,
          "name": "E3",
          "ticks": 216576,
          "time": 211.5,
          "velocity": 0.3937007874015748
        },
        {
          "duration": 0.1875,
          "durationTicks": 192,
          "midi": 36,
          "name": "C2",
          "ticks": 216576,
          "time": 211.5,
          "velocity": 0.3937007874015748
        },
        {
          "duration": 0.1875,
          "durationTicks": 192,
          "midi": 44,
          "name": "G#2",
          "ticks": 216576,
          "time": 211.5,
          "velocity": 0.3937007874015748
        },
        {
          "duration": 0.1875,
          "durationTicks": 192,
          "midi": 44,
          "name": "G#2",
          "ticks": 216576,
          "time": 211.5,
          "velocity": 0.3937007874015748
        },
        {
          "duration": 0.1875,
          "durationTicks": 192,
          "midi": 57,
          "name": "A3",
          "ticks": 216576,
          "time": 211.5,
          "velocity": 0.3937007874015748
        },
        {
          "duration": 0.1875,
          "durationTicks": 192,
          "midi": 35,
          "name": "B1",
          "ticks": 216576,
          "time": 211.5,
          "velocity": 0.3937007874015748
        },
        {
          "duration": 0.1875,
          "durationTicks": 192,
          "midi": 57,
          "name": "A3",
          "ticks": 216960,
          "time": 211.875,
          "velocity": 0.3937007874015748
        },
        {
          "duration": 0.09375,
          "durationTicks": 96,
          "midi": 38,
          "name": "D2",
          "ticks": 216960,
          "time": 211.875,
          "velocity": 0.3937007874015748
        },
        {
          "duration": 0.1875,
          "durationTicks": 192,
          "midi": 44,
          "name": "G#2",
          "ticks": 216960,
          "time": 211.875,
          "velocity": 0.3937007874015748
        },
        {
          "duration": 0.09375,
          "durationTicks": 96,
          "midi": 40,
          "name": "E2",
          "ticks": 216960,
          "time": 211.875,
          "velocity": 0.3937007874015748
        },
        {
          "duration": 0.1875,
          "durationTicks": 192,
          "midi": 44,
          "name": "G#2",
          "ticks": 216960,
          "time": 211.875,
          "velocity": 0.3937007874015748
        },
        {
          "duration": 0.1875,
          "durationTicks": 192,
          "midi": 36,
          "name": "C2",
          "ticks": 216960,
          "time": 211.875,
          "velocity": 0.3937007874015748
        },
        {
          "duration": 0.1875,
          "durationTicks": 192,
          "midi": 35,
          "name": "B1",
          "ticks": 216960,
          "time": 211.875,
          "velocity": 0.3937007874015748
        },
        {
          "duration": 0.1875,
          "durationTicks": 192,
          "midi": 36,
          "name": "C2",
          "ticks": 217344,
          "time": 212.25,
          "velocity": 0.3937007874015748
        },
        {
          "duration": 0.1875,
          "durationTicks": 192,
          "midi": 44,
          "name": "G#2",
          "ticks": 217344,
          "time": 212.25,
          "velocity": 0.3937007874015748
        },
        {
          "duration": 0.1875,
          "durationTicks": 192,
          "midi": 57,
          "name": "A3",
          "ticks": 217344,
          "time": 212.25,
          "velocity": 0.3937007874015748
        },
        {
          "duration": 0.1875,
          "durationTicks": 192,
          "midi": 35,
          "name": "B1",
          "ticks": 217344,
          "time": 212.25,
          "velocity": 0.3937007874015748
        },
        {
          "duration": 0.1875,
          "durationTicks": 192,
          "midi": 44,
          "name": "G#2",
          "ticks": 217344,
          "time": 212.25,
          "velocity": 0.3937007874015748
        },
        {
          "duration": 0.1875,
          "durationTicks": 192,
          "midi": 57,
          "name": "A3",
          "ticks": 217728,
          "time": 212.625,
          "velocity": 0.3937007874015748
        },
        {
          "duration": 0.09375,
          "durationTicks": 96,
          "midi": 40,
          "name": "E2",
          "ticks": 217728,
          "time": 212.625,
          "velocity": 0.3937007874015748
        },
        {
          "duration": 0.09375,
          "durationTicks": 96,
          "midi": 38,
          "name": "D2",
          "ticks": 217728,
          "time": 212.625,
          "velocity": 0.3937007874015748
        },
        {
          "duration": 0.1875,
          "durationTicks": 192,
          "midi": 44,
          "name": "G#2",
          "ticks": 217728,
          "time": 212.625,
          "velocity": 0.3937007874015748
        },
        {
          "duration": 0.1875,
          "durationTicks": 192,
          "midi": 35,
          "name": "B1",
          "ticks": 217728,
          "time": 212.625,
          "velocity": 0.3937007874015748
        },
        {
          "duration": 0.1875,
          "durationTicks": 192,
          "midi": 36,
          "name": "C2",
          "ticks": 217728,
          "time": 212.625,
          "velocity": 0.3937007874015748
        },
        {
          "duration": 0.1875,
          "durationTicks": 192,
          "midi": 44,
          "name": "G#2",
          "ticks": 217728,
          "time": 212.625,
          "velocity": 0.3937007874015748
        },
        {
          "duration": 0.1875,
          "durationTicks": 192,
          "midi": 36,
          "name": "C2",
          "ticks": 218112,
          "time": 213,
          "velocity": 0.3937007874015748
        },
        {
          "duration": 0.1875,
          "durationTicks": 192,
          "midi": 52,
          "name": "E3",
          "ticks": 218112,
          "time": 213,
          "velocity": 0.3937007874015748
        },
        {
          "duration": 0.1875,
          "durationTicks": 192,
          "midi": 57,
          "name": "A3",
          "ticks": 218112,
          "time": 213,
          "velocity": 0.3937007874015748
        },
        {
          "duration": 0.1875,
          "durationTicks": 192,
          "midi": 44,
          "name": "G#2",
          "ticks": 218112,
          "time": 213,
          "velocity": 0.3937007874015748
        },
        {
          "duration": 0.1875,
          "durationTicks": 192,
          "midi": 44,
          "name": "G#2",
          "ticks": 218112,
          "time": 213,
          "velocity": 0.3937007874015748
        },
        {
          "duration": 0.1875,
          "durationTicks": 192,
          "midi": 35,
          "name": "B1",
          "ticks": 218112,
          "time": 213,
          "velocity": 0.3937007874015748
        },
        {
          "duration": 0.1875,
          "durationTicks": 192,
          "midi": 36,
          "name": "C2",
          "ticks": 218496,
          "time": 213.375,
          "velocity": 0.3937007874015748
        },
        {
          "duration": 0.1875,
          "durationTicks": 192,
          "midi": 44,
          "name": "G#2",
          "ticks": 218496,
          "time": 213.375,
          "velocity": 0.3937007874015748
        },
        {
          "duration": 0.09375,
          "durationTicks": 96,
          "midi": 40,
          "name": "E2",
          "ticks": 218496,
          "time": 213.375,
          "velocity": 0.3937007874015748
        },
        {
          "duration": 0.1875,
          "durationTicks": 192,
          "midi": 35,
          "name": "B1",
          "ticks": 218496,
          "time": 213.375,
          "velocity": 0.3937007874015748
        },
        {
          "duration": 0.1875,
          "durationTicks": 192,
          "midi": 44,
          "name": "G#2",
          "ticks": 218496,
          "time": 213.375,
          "velocity": 0.3937007874015748
        },
        {
          "duration": 0.09375,
          "durationTicks": 96,
          "midi": 38,
          "name": "D2",
          "ticks": 218496,
          "time": 213.375,
          "velocity": 0.3937007874015748
        },
        {
          "duration": 0.1875,
          "durationTicks": 192,
          "midi": 57,
          "name": "A3",
          "ticks": 218496,
          "time": 213.375,
          "velocity": 0.3937007874015748
        },
        {
          "duration": 0.1875,
          "durationTicks": 192,
          "midi": 35,
          "name": "B1",
          "ticks": 218880,
          "time": 213.75,
          "velocity": 0.3937007874015748
        },
        {
          "duration": 0.1875,
          "durationTicks": 192,
          "midi": 36,
          "name": "C2",
          "ticks": 218880,
          "time": 213.75,
          "velocity": 0.3937007874015748
        },
        {
          "duration": 0.1875,
          "durationTicks": 192,
          "midi": 44,
          "name": "G#2",
          "ticks": 218880,
          "time": 213.75,
          "velocity": 0.3937007874015748
        },
        {
          "duration": 0.1875,
          "durationTicks": 192,
          "midi": 44,
          "name": "G#2",
          "ticks": 218880,
          "time": 213.75,
          "velocity": 0.3937007874015748
        },
        {
          "duration": 0.1875,
          "durationTicks": 192,
          "midi": 57,
          "name": "A3",
          "ticks": 218880,
          "time": 213.75,
          "velocity": 0.3937007874015748
        },
        {
          "duration": 0.1875,
          "durationTicks": 192,
          "midi": 35,
          "name": "B1",
          "ticks": 219264,
          "time": 214.125,
          "velocity": 0.3937007874015748
        },
        {
          "duration": 0.09375,
          "durationTicks": 96,
          "midi": 38,
          "name": "D2",
          "ticks": 219264,
          "time": 214.125,
          "velocity": 0.3937007874015748
        },
        {
          "duration": 0.1875,
          "durationTicks": 192,
          "midi": 44,
          "name": "G#2",
          "ticks": 219264,
          "time": 214.125,
          "velocity": 0.3937007874015748
        },
        {
          "duration": 0.1875,
          "durationTicks": 192,
          "midi": 44,
          "name": "G#2",
          "ticks": 219264,
          "time": 214.125,
          "velocity": 0.3937007874015748
        },
        {
          "duration": 0.1875,
          "durationTicks": 192,
          "midi": 57,
          "name": "A3",
          "ticks": 219264,
          "time": 214.125,
          "velocity": 0.3937007874015748
        },
        {
          "duration": 0.1875,
          "durationTicks": 192,
          "midi": 36,
          "name": "C2",
          "ticks": 219264,
          "time": 214.125,
          "velocity": 0.3937007874015748
        },
        {
          "duration": 0.09375,
          "durationTicks": 96,
          "midi": 40,
          "name": "E2",
          "ticks": 219264,
          "time": 214.125,
          "velocity": 0.3937007874015748
        },
        {
          "duration": 0.1875,
          "durationTicks": 192,
          "midi": 44,
          "name": "G#2",
          "ticks": 219648,
          "time": 214.5,
          "velocity": 0.3937007874015748
        },
        {
          "duration": 0.1875,
          "durationTicks": 192,
          "midi": 35,
          "name": "B1",
          "ticks": 219648,
          "time": 214.5,
          "velocity": 0.3937007874015748
        },
        {
          "duration": 0.1875,
          "durationTicks": 192,
          "midi": 52,
          "name": "E3",
          "ticks": 219648,
          "time": 214.5,
          "velocity": 0.3937007874015748
        },
        {
          "duration": 0.1875,
          "durationTicks": 192,
          "midi": 57,
          "name": "A3",
          "ticks": 219648,
          "time": 214.5,
          "velocity": 0.3937007874015748
        },
        {
          "duration": 0.1875,
          "durationTicks": 192,
          "midi": 36,
          "name": "C2",
          "ticks": 219648,
          "time": 214.5,
          "velocity": 0.3937007874015748
        },
        {
          "duration": 0.1875,
          "durationTicks": 192,
          "midi": 44,
          "name": "G#2",
          "ticks": 219648,
          "time": 214.5,
          "velocity": 0.3937007874015748
        },
        {
          "duration": 0.09375,
          "durationTicks": 96,
          "midi": 40,
          "name": "E2",
          "ticks": 220032,
          "time": 214.875,
          "velocity": 0.3937007874015748
        },
        {
          "duration": 0.1875,
          "durationTicks": 192,
          "midi": 44,
          "name": "G#2",
          "ticks": 220032,
          "time": 214.875,
          "velocity": 0.3937007874015748
        },
        {
          "duration": 0.1875,
          "durationTicks": 192,
          "midi": 35,
          "name": "B1",
          "ticks": 220032,
          "time": 214.875,
          "velocity": 0.3937007874015748
        },
        {
          "duration": 0.1875,
          "durationTicks": 192,
          "midi": 36,
          "name": "C2",
          "ticks": 220032,
          "time": 214.875,
          "velocity": 0.3937007874015748
        },
        {
          "duration": 0.09375,
          "durationTicks": 96,
          "midi": 38,
          "name": "D2",
          "ticks": 220032,
          "time": 214.875,
          "velocity": 0.3937007874015748
        },
        {
          "duration": 0.1875,
          "durationTicks": 192,
          "midi": 57,
          "name": "A3",
          "ticks": 220032,
          "time": 214.875,
          "velocity": 0.3937007874015748
        },
        {
          "duration": 0.1875,
          "durationTicks": 192,
          "midi": 44,
          "name": "G#2",
          "ticks": 220032,
          "time": 214.875,
          "velocity": 0.3937007874015748
        },
        {
          "duration": 0.1875,
          "durationTicks": 192,
          "midi": 35,
          "name": "B1",
          "ticks": 220416,
          "time": 215.25,
          "velocity": 0.3937007874015748
        },
        {
          "duration": 0.1875,
          "durationTicks": 192,
          "midi": 57,
          "name": "A3",
          "ticks": 220416,
          "time": 215.25,
          "velocity": 0.3937007874015748
        },
        {
          "duration": 0.1875,
          "durationTicks": 192,
          "midi": 44,
          "name": "G#2",
          "ticks": 220416,
          "time": 215.25,
          "velocity": 0.3937007874015748
        },
        {
          "duration": 0.1875,
          "durationTicks": 192,
          "midi": 36,
          "name": "C2",
          "ticks": 220416,
          "time": 215.25,
          "velocity": 0.3937007874015748
        },
        {
          "duration": 0.1875,
          "durationTicks": 192,
          "midi": 44,
          "name": "G#2",
          "ticks": 220416,
          "time": 215.25,
          "velocity": 0.3937007874015748
        },
        {
          "duration": 0.1875,
          "durationTicks": 192,
          "midi": 35,
          "name": "B1",
          "ticks": 220608,
          "time": 215.4375,
          "velocity": 0.3937007874015748
        },
        {
          "duration": 0.1875,
          "durationTicks": 192,
          "midi": 36,
          "name": "C2",
          "ticks": 220608,
          "time": 215.4375,
          "velocity": 0.3937007874015748
        },
        {
          "duration": 0.09375,
          "durationTicks": 96,
          "midi": 40,
          "name": "E2",
          "ticks": 220704,
          "time": 215.53125,
          "velocity": 0.3937007874015748
        },
        {
          "duration": 0.09375,
          "durationTicks": 96,
          "midi": 38,
          "name": "D2",
          "ticks": 220704,
          "time": 215.53125,
          "velocity": 0.3937007874015748
        },
        {
          "duration": 0.09375,
          "durationTicks": 96,
          "midi": 38,
          "name": "D2",
          "ticks": 220800,
          "time": 215.625,
          "velocity": 0.3937007874015748
        },
        {
          "duration": 0.1875,
          "durationTicks": 192,
          "midi": 57,
          "name": "A3",
          "ticks": 220800,
          "time": 215.625,
          "velocity": 0.3937007874015748
        },
        {
          "duration": 0.09375,
          "durationTicks": 96,
          "midi": 40,
          "name": "E2",
          "ticks": 220800,
          "time": 215.625,
          "velocity": 0.3937007874015748
        },
        {
          "duration": 0.1875,
          "durationTicks": 192,
          "midi": 44,
          "name": "G#2",
          "ticks": 220800,
          "time": 215.625,
          "velocity": 0.3937007874015748
        },
        {
          "duration": 0.1875,
          "durationTicks": 192,
          "midi": 44,
          "name": "G#2",
          "ticks": 220800,
          "time": 215.625,
          "velocity": 0.3937007874015748
        },
        {
          "duration": 0.09375,
          "durationTicks": 96,
          "midi": 40,
          "name": "E2",
          "ticks": 220992,
          "time": 215.8125,
          "velocity": 0.3937007874015748
        },
        {
          "duration": 0.09375,
          "durationTicks": 96,
          "midi": 38,
          "name": "D2",
          "ticks": 220992,
          "time": 215.8125,
          "velocity": 0.3937007874015748
        },
        {
          "duration": 0.1875,
          "durationTicks": 192,
          "midi": 52,
          "name": "E3",
          "ticks": 221184,
          "time": 216,
          "velocity": 0.3937007874015748
        },
        {
          "duration": 0.1875,
          "durationTicks": 192,
          "midi": 57,
          "name": "A3",
          "ticks": 221184,
          "time": 216,
          "velocity": 0.3937007874015748
        },
        {
          "duration": 0.1875,
          "durationTicks": 192,
          "midi": 44,
          "name": "G#2",
          "ticks": 221184,
          "time": 216,
          "velocity": 0.3937007874015748
        },
        {
          "duration": 0.1875,
          "durationTicks": 192,
          "midi": 44,
          "name": "G#2",
          "ticks": 221184,
          "time": 216,
          "velocity": 0.3937007874015748
        },
        {
          "duration": 0.1875,
          "durationTicks": 192,
          "midi": 35,
          "name": "B1",
          "ticks": 221184,
          "time": 216,
          "velocity": 0.3937007874015748
        },
        {
          "duration": 0.1875,
          "durationTicks": 192,
          "midi": 36,
          "name": "C2",
          "ticks": 221184,
          "time": 216,
          "velocity": 0.3937007874015748
        },
        {
          "duration": 0.1875,
          "durationTicks": 192,
          "midi": 35,
          "name": "B1",
          "ticks": 221568,
          "time": 216.375,
          "velocity": 0.3937007874015748
        },
        {
          "duration": 0.1875,
          "durationTicks": 192,
          "midi": 44,
          "name": "G#2",
          "ticks": 221568,
          "time": 216.375,
          "velocity": 0.3937007874015748
        },
        {
          "duration": 0.09375,
          "durationTicks": 96,
          "midi": 40,
          "name": "E2",
          "ticks": 221568,
          "time": 216.375,
          "velocity": 0.3937007874015748
        },
        {
          "duration": 0.1875,
          "durationTicks": 192,
          "midi": 44,
          "name": "G#2",
          "ticks": 221568,
          "time": 216.375,
          "velocity": 0.3937007874015748
        },
        {
          "duration": 0.09375,
          "durationTicks": 96,
          "midi": 38,
          "name": "D2",
          "ticks": 221568,
          "time": 216.375,
          "velocity": 0.3937007874015748
        },
        {
          "duration": 0.1875,
          "durationTicks": 192,
          "midi": 36,
          "name": "C2",
          "ticks": 221568,
          "time": 216.375,
          "velocity": 0.3937007874015748
        },
        {
          "duration": 0.1875,
          "durationTicks": 192,
          "midi": 57,
          "name": "A3",
          "ticks": 221568,
          "time": 216.375,
          "velocity": 0.3937007874015748
        },
        {
          "duration": 0.1875,
          "durationTicks": 192,
          "midi": 44,
          "name": "G#2",
          "ticks": 221952,
          "time": 216.75,
          "velocity": 0.3937007874015748
        },
        {
          "duration": 0.1875,
          "durationTicks": 192,
          "midi": 57,
          "name": "A3",
          "ticks": 221952,
          "time": 216.75,
          "velocity": 0.3937007874015748
        },
        {
          "duration": 0.1875,
          "durationTicks": 192,
          "midi": 35,
          "name": "B1",
          "ticks": 221952,
          "time": 216.75,
          "velocity": 0.3937007874015748
        },
        {
          "duration": 0.1875,
          "durationTicks": 192,
          "midi": 44,
          "name": "G#2",
          "ticks": 221952,
          "time": 216.75,
          "velocity": 0.3937007874015748
        },
        {
          "duration": 0.1875,
          "durationTicks": 192,
          "midi": 36,
          "name": "C2",
          "ticks": 221952,
          "time": 216.75,
          "velocity": 0.3937007874015748
        },
        {
          "duration": 0.1875,
          "durationTicks": 192,
          "midi": 44,
          "name": "G#2",
          "ticks": 222336,
          "time": 217.125,
          "velocity": 0.3937007874015748
        },
        {
          "duration": 0.1875,
          "durationTicks": 192,
          "midi": 35,
          "name": "B1",
          "ticks": 222336,
          "time": 217.125,
          "velocity": 0.3937007874015748
        },
        {
          "duration": 0.09375,
          "durationTicks": 96,
          "midi": 40,
          "name": "E2",
          "ticks": 222336,
          "time": 217.125,
          "velocity": 0.3937007874015748
        },
        {
          "duration": 0.1875,
          "durationTicks": 192,
          "midi": 57,
          "name": "A3",
          "ticks": 222336,
          "time": 217.125,
          "velocity": 0.3937007874015748
        },
        {
          "duration": 0.1875,
          "durationTicks": 192,
          "midi": 44,
          "name": "G#2",
          "ticks": 222336,
          "time": 217.125,
          "velocity": 0.3937007874015748
        },
        {
          "duration": 0.1875,
          "durationTicks": 192,
          "midi": 36,
          "name": "C2",
          "ticks": 222336,
          "time": 217.125,
          "velocity": 0.3937007874015748
        },
        {
          "duration": 0.09375,
          "durationTicks": 96,
          "midi": 38,
          "name": "D2",
          "ticks": 222336,
          "time": 217.125,
          "velocity": 0.3937007874015748
        },
        {
          "duration": 0.1875,
          "durationTicks": 192,
          "midi": 35,
          "name": "B1",
          "ticks": 222720,
          "time": 217.5,
          "velocity": 0.3937007874015748
        },
        {
          "duration": 0.1875,
          "durationTicks": 192,
          "midi": 36,
          "name": "C2",
          "ticks": 222720,
          "time": 217.5,
          "velocity": 0.3937007874015748
        },
        {
          "duration": 0.1875,
          "durationTicks": 192,
          "midi": 52,
          "name": "E3",
          "ticks": 222720,
          "time": 217.5,
          "velocity": 0.3937007874015748
        },
        {
          "duration": 0.1875,
          "durationTicks": 192,
          "midi": 44,
          "name": "G#2",
          "ticks": 222720,
          "time": 217.5,
          "velocity": 0.3937007874015748
        },
        {
          "duration": 0.1875,
          "durationTicks": 192,
          "midi": 44,
          "name": "G#2",
          "ticks": 222720,
          "time": 217.5,
          "velocity": 0.3937007874015748
        },
        {
          "duration": 0.1875,
          "durationTicks": 192,
          "midi": 57,
          "name": "A3",
          "ticks": 222720,
          "time": 217.5,
          "velocity": 0.3937007874015748
        },
        {
          "duration": 0.1875,
          "durationTicks": 192,
          "midi": 36,
          "name": "C2",
          "ticks": 223104,
          "time": 217.875,
          "velocity": 0.3937007874015748
        },
        {
          "duration": 0.1875,
          "durationTicks": 192,
          "midi": 44,
          "name": "G#2",
          "ticks": 223104,
          "time": 217.875,
          "velocity": 0.3937007874015748
        },
        {
          "duration": 0.1875,
          "durationTicks": 192,
          "midi": 35,
          "name": "B1",
          "ticks": 223104,
          "time": 217.875,
          "velocity": 0.3937007874015748
        },
        {
          "duration": 0.09375,
          "durationTicks": 96,
          "midi": 38,
          "name": "D2",
          "ticks": 223104,
          "time": 217.875,
          "velocity": 0.3937007874015748
        },
        {
          "duration": 0.1875,
          "durationTicks": 192,
          "midi": 57,
          "name": "A3",
          "ticks": 223104,
          "time": 217.875,
          "velocity": 0.3937007874015748
        },
        {
          "duration": 0.09375,
          "durationTicks": 96,
          "midi": 40,
          "name": "E2",
          "ticks": 223104,
          "time": 217.875,
          "velocity": 0.3937007874015748
        },
        {
          "duration": 0.1875,
          "durationTicks": 192,
          "midi": 44,
          "name": "G#2",
          "ticks": 223104,
          "time": 217.875,
          "velocity": 0.3937007874015748
        },
        {
          "duration": 0.1875,
          "durationTicks": 192,
          "midi": 44,
          "name": "G#2",
          "ticks": 223488,
          "time": 218.25,
          "velocity": 0.3937007874015748
        },
        {
          "duration": 0.1875,
          "durationTicks": 192,
          "midi": 57,
          "name": "A3",
          "ticks": 223488,
          "time": 218.25,
          "velocity": 0.3937007874015748
        },
        {
          "duration": 0.1875,
          "durationTicks": 192,
          "midi": 44,
          "name": "G#2",
          "ticks": 223488,
          "time": 218.25,
          "velocity": 0.3937007874015748
        },
        {
          "duration": 0.1875,
          "durationTicks": 192,
          "midi": 36,
          "name": "C2",
          "ticks": 223488,
          "time": 218.25,
          "velocity": 0.3937007874015748
        },
        {
          "duration": 0.1875,
          "durationTicks": 192,
          "midi": 35,
          "name": "B1",
          "ticks": 223488,
          "time": 218.25,
          "velocity": 0.3937007874015748
        },
        {
          "duration": 0.1875,
          "durationTicks": 192,
          "midi": 36,
          "name": "C2",
          "ticks": 223872,
          "time": 218.625,
          "velocity": 0.3937007874015748
        },
        {
          "duration": 0.09375,
          "durationTicks": 96,
          "midi": 38,
          "name": "D2",
          "ticks": 223872,
          "time": 218.625,
          "velocity": 0.3937007874015748
        },
        {
          "duration": 0.09375,
          "durationTicks": 96,
          "midi": 40,
          "name": "E2",
          "ticks": 223872,
          "time": 218.625,
          "velocity": 0.3937007874015748
        },
        {
          "duration": 0.1875,
          "durationTicks": 192,
          "midi": 44,
          "name": "G#2",
          "ticks": 223872,
          "time": 218.625,
          "velocity": 0.3937007874015748
        },
        {
          "duration": 0.1875,
          "durationTicks": 192,
          "midi": 44,
          "name": "G#2",
          "ticks": 223872,
          "time": 218.625,
          "velocity": 0.3937007874015748
        },
        {
          "duration": 0.1875,
          "durationTicks": 192,
          "midi": 57,
          "name": "A3",
          "ticks": 223872,
          "time": 218.625,
          "velocity": 0.3937007874015748
        },
        {
          "duration": 0.1875,
          "durationTicks": 192,
          "midi": 35,
          "name": "B1",
          "ticks": 223872,
          "time": 218.625,
          "velocity": 0.3937007874015748
        },
        {
          "duration": 0.1875,
          "durationTicks": 192,
          "midi": 36,
          "name": "C2",
          "ticks": 224256,
          "time": 219,
          "velocity": 0.3937007874015748
        },
        {
          "duration": 0.1875,
          "durationTicks": 192,
          "midi": 57,
          "name": "A3",
          "ticks": 224256,
          "time": 219,
          "velocity": 0.3937007874015748
        },
        {
          "duration": 0.1875,
          "durationTicks": 192,
          "midi": 52,
          "name": "E3",
          "ticks": 224256,
          "time": 219,
          "velocity": 0.3937007874015748
        },
        {
          "duration": 0.1875,
          "durationTicks": 192,
          "midi": 44,
          "name": "G#2",
          "ticks": 224256,
          "time": 219,
          "velocity": 0.3937007874015748
        },
        {
          "duration": 0.1875,
          "durationTicks": 192,
          "midi": 44,
          "name": "G#2",
          "ticks": 224256,
          "time": 219,
          "velocity": 0.3937007874015748
        },
        {
          "duration": 0.1875,
          "durationTicks": 192,
          "midi": 35,
          "name": "B1",
          "ticks": 224256,
          "time": 219,
          "velocity": 0.3937007874015748
        },
        {
          "duration": 0.1875,
          "durationTicks": 192,
          "midi": 35,
          "name": "B1",
          "ticks": 224640,
          "time": 219.375,
          "velocity": 0.3937007874015748
        },
        {
          "duration": 0.1875,
          "durationTicks": 192,
          "midi": 44,
          "name": "G#2",
          "ticks": 224640,
          "time": 219.375,
          "velocity": 0.3937007874015748
        },
        {
          "duration": 0.09375,
          "durationTicks": 96,
          "midi": 38,
          "name": "D2",
          "ticks": 224640,
          "time": 219.375,
          "velocity": 0.3937007874015748
        },
        {
          "duration": 0.09375,
          "durationTicks": 96,
          "midi": 40,
          "name": "E2",
          "ticks": 224640,
          "time": 219.375,
          "velocity": 0.3937007874015748
        },
        {
          "duration": 0.1875,
          "durationTicks": 192,
          "midi": 36,
          "name": "C2",
          "ticks": 224640,
          "time": 219.375,
          "velocity": 0.3937007874015748
        },
        {
          "duration": 0.1875,
          "durationTicks": 192,
          "midi": 57,
          "name": "A3",
          "ticks": 224640,
          "time": 219.375,
          "velocity": 0.3937007874015748
        },
        {
          "duration": 0.1875,
          "durationTicks": 192,
          "midi": 44,
          "name": "G#2",
          "ticks": 224640,
          "time": 219.375,
          "velocity": 0.3937007874015748
        },
        {
          "duration": 0.1875,
          "durationTicks": 192,
          "midi": 35,
          "name": "B1",
          "ticks": 225024,
          "time": 219.75,
          "velocity": 0.3937007874015748
        },
        {
          "duration": 0.1875,
          "durationTicks": 192,
          "midi": 44,
          "name": "G#2",
          "ticks": 225024,
          "time": 219.75,
          "velocity": 0.3937007874015748
        },
        {
          "duration": 0.1875,
          "durationTicks": 192,
          "midi": 36,
          "name": "C2",
          "ticks": 225024,
          "time": 219.75,
          "velocity": 0.3937007874015748
        },
        {
          "duration": 0.1875,
          "durationTicks": 192,
          "midi": 44,
          "name": "G#2",
          "ticks": 225024,
          "time": 219.75,
          "velocity": 0.3937007874015748
        },
        {
          "duration": 0.1875,
          "durationTicks": 192,
          "midi": 57,
          "name": "A3",
          "ticks": 225024,
          "time": 219.75,
          "velocity": 0.3937007874015748
        },
        {
          "duration": 0.1875,
          "durationTicks": 192,
          "midi": 44,
          "name": "G#2",
          "ticks": 225408,
          "time": 220.125,
          "velocity": 0.3937007874015748
        },
        {
          "duration": 0.1875,
          "durationTicks": 192,
          "midi": 44,
          "name": "G#2",
          "ticks": 225408,
          "time": 220.125,
          "velocity": 0.3937007874015748
        },
        {
          "duration": 0.1875,
          "durationTicks": 192,
          "midi": 36,
          "name": "C2",
          "ticks": 225408,
          "time": 220.125,
          "velocity": 0.3937007874015748
        },
        {
          "duration": 0.1875,
          "durationTicks": 192,
          "midi": 57,
          "name": "A3",
          "ticks": 225408,
          "time": 220.125,
          "velocity": 0.3937007874015748
        },
        {
          "duration": 0.09375,
          "durationTicks": 96,
          "midi": 38,
          "name": "D2",
          "ticks": 225408,
          "time": 220.125,
          "velocity": 0.3937007874015748
        },
        {
          "duration": 0.09375,
          "durationTicks": 96,
          "midi": 40,
          "name": "E2",
          "ticks": 225408,
          "time": 220.125,
          "velocity": 0.3937007874015748
        },
        {
          "duration": 0.1875,
          "durationTicks": 192,
          "midi": 35,
          "name": "B1",
          "ticks": 225408,
          "time": 220.125,
          "velocity": 0.3937007874015748
        },
        {
          "duration": 0.1875,
          "durationTicks": 192,
          "midi": 36,
          "name": "C2",
          "ticks": 225792,
          "time": 220.5,
          "velocity": 0.3937007874015748
        },
        {
          "duration": 0.1875,
          "durationTicks": 192,
          "midi": 44,
          "name": "G#2",
          "ticks": 225792,
          "time": 220.5,
          "velocity": 0.3937007874015748
        },
        {
          "duration": 0.1875,
          "durationTicks": 192,
          "midi": 35,
          "name": "B1",
          "ticks": 225792,
          "time": 220.5,
          "velocity": 0.3937007874015748
        },
        {
          "duration": 0.1875,
          "durationTicks": 192,
          "midi": 57,
          "name": "A3",
          "ticks": 225792,
          "time": 220.5,
          "velocity": 0.3937007874015748
        },
        {
          "duration": 0.1875,
          "durationTicks": 192,
          "midi": 44,
          "name": "G#2",
          "ticks": 225792,
          "time": 220.5,
          "velocity": 0.3937007874015748
        },
        {
          "duration": 0.1875,
          "durationTicks": 192,
          "midi": 52,
          "name": "E3",
          "ticks": 225792,
          "time": 220.5,
          "velocity": 0.3937007874015748
        },
        {
          "duration": 0.1875,
          "durationTicks": 192,
          "midi": 36,
          "name": "C2",
          "ticks": 226176,
          "time": 220.875,
          "velocity": 0.3937007874015748
        },
        {
          "duration": 0.1875,
          "durationTicks": 192,
          "midi": 44,
          "name": "G#2",
          "ticks": 226176,
          "time": 220.875,
          "velocity": 0.3937007874015748
        },
        {
          "duration": 0.09375,
          "durationTicks": 96,
          "midi": 38,
          "name": "D2",
          "ticks": 226176,
          "time": 220.875,
          "velocity": 0.3937007874015748
        },
        {
          "duration": 0.09375,
          "durationTicks": 96,
          "midi": 40,
          "name": "E2",
          "ticks": 226176,
          "time": 220.875,
          "velocity": 0.3937007874015748
        },
        {
          "duration": 0.1875,
          "durationTicks": 192,
          "midi": 35,
          "name": "B1",
          "ticks": 226176,
          "time": 220.875,
          "velocity": 0.3937007874015748
        },
        {
          "duration": 0.1875,
          "durationTicks": 192,
          "midi": 57,
          "name": "A3",
          "ticks": 226176,
          "time": 220.875,
          "velocity": 0.3937007874015748
        },
        {
          "duration": 0.1875,
          "durationTicks": 192,
          "midi": 44,
          "name": "G#2",
          "ticks": 226176,
          "time": 220.875,
          "velocity": 0.3937007874015748
        },
        {
          "duration": 0.1875,
          "durationTicks": 192,
          "midi": 57,
          "name": "A3",
          "ticks": 226560,
          "time": 221.25,
          "velocity": 0.3937007874015748
        },
        {
          "duration": 0.1875,
          "durationTicks": 192,
          "midi": 44,
          "name": "G#2",
          "ticks": 226560,
          "time": 221.25,
          "velocity": 0.3937007874015748
        },
        {
          "duration": 0.1875,
          "durationTicks": 192,
          "midi": 35,
          "name": "B1",
          "ticks": 226560,
          "time": 221.25,
          "velocity": 0.3937007874015748
        },
        {
          "duration": 0.1875,
          "durationTicks": 192,
          "midi": 44,
          "name": "G#2",
          "ticks": 226560,
          "time": 221.25,
          "velocity": 0.3937007874015748
        },
        {
          "duration": 0.1875,
          "durationTicks": 192,
          "midi": 36,
          "name": "C2",
          "ticks": 226560,
          "time": 221.25,
          "velocity": 0.3937007874015748
        },
        {
          "duration": 0.1875,
          "durationTicks": 192,
          "midi": 36,
          "name": "C2",
          "ticks": 226752,
          "time": 221.4375,
          "velocity": 0.3937007874015748
        },
        {
          "duration": 0.1875,
          "durationTicks": 192,
          "midi": 35,
          "name": "B1",
          "ticks": 226752,
          "time": 221.4375,
          "velocity": 0.3937007874015748
        },
        {
          "duration": 0.09375,
          "durationTicks": 96,
          "midi": 40,
          "name": "E2",
          "ticks": 226848,
          "time": 221.53125,
          "velocity": 0.3937007874015748
        },
        {
          "duration": 0.09375,
          "durationTicks": 96,
          "midi": 38,
          "name": "D2",
          "ticks": 226848,
          "time": 221.53125,
          "velocity": 0.3937007874015748
        },
        {
          "duration": 0.09375,
          "durationTicks": 96,
          "midi": 40,
          "name": "E2",
          "ticks": 226944,
          "time": 221.625,
          "velocity": 0.3937007874015748
        },
        {
          "duration": 0.1875,
          "durationTicks": 192,
          "midi": 44,
          "name": "G#2",
          "ticks": 226944,
          "time": 221.625,
          "velocity": 0.3937007874015748
        },
        {
          "duration": 0.1875,
          "durationTicks": 192,
          "midi": 44,
          "name": "G#2",
          "ticks": 226944,
          "time": 221.625,
          "velocity": 0.3937007874015748
        },
        {
          "duration": 0.09375,
          "durationTicks": 96,
          "midi": 38,
          "name": "D2",
          "ticks": 226944,
          "time": 221.625,
          "velocity": 0.3937007874015748
        },
        {
          "duration": 0.1875,
          "durationTicks": 192,
          "midi": 57,
          "name": "A3",
          "ticks": 226944,
          "time": 221.625,
          "velocity": 0.3937007874015748
        },
        {
          "duration": 0.09375,
          "durationTicks": 96,
          "midi": 40,
          "name": "E2",
          "ticks": 227136,
          "time": 221.8125,
          "velocity": 0.3937007874015748
        },
        {
          "duration": 0.09375,
          "durationTicks": 96,
          "midi": 38,
          "name": "D2",
          "ticks": 227136,
          "time": 221.8125,
          "velocity": 0.3937007874015748
        },
        {
          "duration": 0.1875,
          "durationTicks": 192,
          "midi": 52,
          "name": "E3",
          "ticks": 227328,
          "time": 222,
          "velocity": 0.3937007874015748
        },
        {
          "duration": 0.1875,
          "durationTicks": 192,
          "midi": 44,
          "name": "G#2",
          "ticks": 227328,
          "time": 222,
          "velocity": 0.3937007874015748
        },
        {
          "duration": 0.1875,
          "durationTicks": 192,
          "midi": 36,
          "name": "C2",
          "ticks": 227328,
          "time": 222,
          "velocity": 0.3937007874015748
        },
        {
          "duration": 0.1875,
          "durationTicks": 192,
          "midi": 44,
          "name": "G#2",
          "ticks": 227328,
          "time": 222,
          "velocity": 0.3937007874015748
        },
        {
          "duration": 0.1875,
          "durationTicks": 192,
          "midi": 35,
          "name": "B1",
          "ticks": 227328,
          "time": 222,
          "velocity": 0.3937007874015748
        },
        {
          "duration": 0.1875,
          "durationTicks": 192,
          "midi": 57,
          "name": "A3",
          "ticks": 227328,
          "time": 222,
          "velocity": 0.3937007874015748
        },
        {
          "duration": 0.1875,
          "durationTicks": 192,
          "midi": 44,
          "name": "G#2",
          "ticks": 227712,
          "time": 222.375,
          "velocity": 0.3937007874015748
        },
        {
          "duration": 0.1875,
          "durationTicks": 192,
          "midi": 44,
          "name": "G#2",
          "ticks": 227712,
          "time": 222.375,
          "velocity": 0.3937007874015748
        },
        {
          "duration": 0.09375,
          "durationTicks": 96,
          "midi": 40,
          "name": "E2",
          "ticks": 227712,
          "time": 222.375,
          "velocity": 0.3937007874015748
        },
        {
          "duration": 0.09375,
          "durationTicks": 96,
          "midi": 38,
          "name": "D2",
          "ticks": 227712,
          "time": 222.375,
          "velocity": 0.3937007874015748
        },
        {
          "duration": 0.1875,
          "durationTicks": 192,
          "midi": 36,
          "name": "C2",
          "ticks": 227712,
          "time": 222.375,
          "velocity": 0.3937007874015748
        },
        {
          "duration": 0.1875,
          "durationTicks": 192,
          "midi": 35,
          "name": "B1",
          "ticks": 227712,
          "time": 222.375,
          "velocity": 0.3937007874015748
        },
        {
          "duration": 0.1875,
          "durationTicks": 192,
          "midi": 57,
          "name": "A3",
          "ticks": 227712,
          "time": 222.375,
          "velocity": 0.3937007874015748
        },
        {
          "duration": 0.1875,
          "durationTicks": 192,
          "midi": 35,
          "name": "B1",
          "ticks": 228096,
          "time": 222.75,
          "velocity": 0.3937007874015748
        },
        {
          "duration": 0.1875,
          "durationTicks": 192,
          "midi": 36,
          "name": "C2",
          "ticks": 228096,
          "time": 222.75,
          "velocity": 0.3937007874015748
        },
        {
          "duration": 0.1875,
          "durationTicks": 192,
          "midi": 57,
          "name": "A3",
          "ticks": 228096,
          "time": 222.75,
          "velocity": 0.3937007874015748
        },
        {
          "duration": 0.1875,
          "durationTicks": 192,
          "midi": 44,
          "name": "G#2",
          "ticks": 228096,
          "time": 222.75,
          "velocity": 0.3937007874015748
        },
        {
          "duration": 0.1875,
          "durationTicks": 192,
          "midi": 44,
          "name": "G#2",
          "ticks": 228096,
          "time": 222.75,
          "velocity": 0.3937007874015748
        },
        {
          "duration": 0.1875,
          "durationTicks": 192,
          "midi": 44,
          "name": "G#2",
          "ticks": 228480,
          "time": 223.125,
          "velocity": 0.3937007874015748
        },
        {
          "duration": 0.1875,
          "durationTicks": 192,
          "midi": 36,
          "name": "C2",
          "ticks": 228480,
          "time": 223.125,
          "velocity": 0.3937007874015748
        },
        {
          "duration": 0.1875,
          "durationTicks": 192,
          "midi": 35,
          "name": "B1",
          "ticks": 228480,
          "time": 223.125,
          "velocity": 0.3937007874015748
        },
        {
          "duration": 0.09375,
          "durationTicks": 96,
          "midi": 40,
          "name": "E2",
          "ticks": 228480,
          "time": 223.125,
          "velocity": 0.3937007874015748
        },
        {
          "duration": 0.1875,
          "durationTicks": 192,
          "midi": 57,
          "name": "A3",
          "ticks": 228480,
          "time": 223.125,
          "velocity": 0.3937007874015748
        },
        {
          "duration": 0.09375,
          "durationTicks": 96,
          "midi": 38,
          "name": "D2",
          "ticks": 228480,
          "time": 223.125,
          "velocity": 0.3937007874015748
        },
        {
          "duration": 0.1875,
          "durationTicks": 192,
          "midi": 44,
          "name": "G#2",
          "ticks": 228480,
          "time": 223.125,
          "velocity": 0.3937007874015748
        },
        {
          "duration": 0.1875,
          "durationTicks": 192,
          "midi": 57,
          "name": "A3",
          "ticks": 228864,
          "time": 223.5,
          "velocity": 0.3937007874015748
        },
        {
          "duration": 0.1875,
          "durationTicks": 192,
          "midi": 44,
          "name": "G#2",
          "ticks": 228864,
          "time": 223.5,
          "velocity": 0.3937007874015748
        },
        {
          "duration": 0.1875,
          "durationTicks": 192,
          "midi": 44,
          "name": "G#2",
          "ticks": 228864,
          "time": 223.5,
          "velocity": 0.3937007874015748
        },
        {
          "duration": 0.1875,
          "durationTicks": 192,
          "midi": 52,
          "name": "E3",
          "ticks": 228864,
          "time": 223.5,
          "velocity": 0.3937007874015748
        },
        {
          "duration": 0.1875,
          "durationTicks": 192,
          "midi": 36,
          "name": "C2",
          "ticks": 228864,
          "time": 223.5,
          "velocity": 0.3937007874015748
        },
        {
          "duration": 0.1875,
          "durationTicks": 192,
          "midi": 35,
          "name": "B1",
          "ticks": 228864,
          "time": 223.5,
          "velocity": 0.3937007874015748
        },
        {
          "duration": 0.1875,
          "durationTicks": 192,
          "midi": 36,
          "name": "C2",
          "ticks": 229248,
          "time": 223.875,
          "velocity": 0.3937007874015748
        },
        {
          "duration": 0.09375,
          "durationTicks": 96,
          "midi": 40,
          "name": "E2",
          "ticks": 229248,
          "time": 223.875,
          "velocity": 0.3937007874015748
        },
        {
          "duration": 0.1875,
          "durationTicks": 192,
          "midi": 35,
          "name": "B1",
          "ticks": 229248,
          "time": 223.875,
          "velocity": 0.3937007874015748
        },
        {
          "duration": 0.1875,
          "durationTicks": 192,
          "midi": 44,
          "name": "G#2",
          "ticks": 229248,
          "time": 223.875,
          "velocity": 0.3937007874015748
        },
        {
          "duration": 0.1875,
          "durationTicks": 192,
          "midi": 57,
          "name": "A3",
          "ticks": 229248,
          "time": 223.875,
          "velocity": 0.3937007874015748
        },
        {
          "duration": 0.1875,
          "durationTicks": 192,
          "midi": 44,
          "name": "G#2",
          "ticks": 229248,
          "time": 223.875,
          "velocity": 0.3937007874015748
        },
        {
          "duration": 0.09375,
          "durationTicks": 96,
          "midi": 38,
          "name": "D2",
          "ticks": 229248,
          "time": 223.875,
          "velocity": 0.3937007874015748
        },
        {
          "duration": 0.1875,
          "durationTicks": 192,
          "midi": 44,
          "name": "G#2",
          "ticks": 229632,
          "time": 224.25,
          "velocity": 0.3937007874015748
        },
        {
          "duration": 0.1875,
          "durationTicks": 192,
          "midi": 44,
          "name": "G#2",
          "ticks": 229632,
          "time": 224.25,
          "velocity": 0.3937007874015748
        },
        {
          "duration": 0.1875,
          "durationTicks": 192,
          "midi": 57,
          "name": "A3",
          "ticks": 229632,
          "time": 224.25,
          "velocity": 0.3937007874015748
        },
        {
          "duration": 0.1875,
          "durationTicks": 192,
          "midi": 35,
          "name": "B1",
          "ticks": 229632,
          "time": 224.25,
          "velocity": 0.3937007874015748
        },
        {
          "duration": 0.1875,
          "durationTicks": 192,
          "midi": 36,
          "name": "C2",
          "ticks": 229632,
          "time": 224.25,
          "velocity": 0.3937007874015748
        },
        {
          "duration": 0.1875,
          "durationTicks": 192,
          "midi": 44,
          "name": "G#2",
          "ticks": 230016,
          "time": 224.625,
          "velocity": 0.3937007874015748
        },
        {
          "duration": 0.09375,
          "durationTicks": 96,
          "midi": 40,
          "name": "E2",
          "ticks": 230016,
          "time": 224.625,
          "velocity": 0.3937007874015748
        },
        {
          "duration": 0.1875,
          "durationTicks": 192,
          "midi": 35,
          "name": "B1",
          "ticks": 230016,
          "time": 224.625,
          "velocity": 0.3937007874015748
        },
        {
          "duration": 0.09375,
          "durationTicks": 96,
          "midi": 38,
          "name": "D2",
          "ticks": 230016,
          "time": 224.625,
          "velocity": 0.3937007874015748
        },
        {
          "duration": 0.1875,
          "durationTicks": 192,
          "midi": 57,
          "name": "A3",
          "ticks": 230016,
          "time": 224.625,
          "velocity": 0.3937007874015748
        },
        {
          "duration": 0.1875,
          "durationTicks": 192,
          "midi": 36,
          "name": "C2",
          "ticks": 230016,
          "time": 224.625,
          "velocity": 0.3937007874015748
        },
        {
          "duration": 0.1875,
          "durationTicks": 192,
          "midi": 44,
          "name": "G#2",
          "ticks": 230016,
          "time": 224.625,
          "velocity": 0.3937007874015748
        },
        {
          "duration": 0.1875,
          "durationTicks": 192,
          "midi": 52,
          "name": "E3",
          "ticks": 230400,
          "time": 225,
          "velocity": 0.3937007874015748
        },
        {
          "duration": 0.1875,
          "durationTicks": 192,
          "midi": 44,
          "name": "G#2",
          "ticks": 230400,
          "time": 225,
          "velocity": 0.3937007874015748
        },
        {
          "duration": 0.1875,
          "durationTicks": 192,
          "midi": 44,
          "name": "G#2",
          "ticks": 230400,
          "time": 225,
          "velocity": 0.3937007874015748
        },
        {
          "duration": 0.1875,
          "durationTicks": 192,
          "midi": 57,
          "name": "A3",
          "ticks": 230400,
          "time": 225,
          "velocity": 0.3937007874015748
        },
        {
          "duration": 0.1875,
          "durationTicks": 192,
          "midi": 35,
          "name": "B1",
          "ticks": 230400,
          "time": 225,
          "velocity": 0.3937007874015748
        },
        {
          "duration": 0.1875,
          "durationTicks": 192,
          "midi": 36,
          "name": "C2",
          "ticks": 230400,
          "time": 225,
          "velocity": 0.3937007874015748
        },
        {
          "duration": 0.1875,
          "durationTicks": 192,
          "midi": 44,
          "name": "G#2",
          "ticks": 230784,
          "time": 225.375,
          "velocity": 0.3937007874015748
        },
        {
          "duration": 0.09375,
          "durationTicks": 96,
          "midi": 38,
          "name": "D2",
          "ticks": 230784,
          "time": 225.375,
          "velocity": 0.3937007874015748
        },
        {
          "duration": 0.1875,
          "durationTicks": 192,
          "midi": 35,
          "name": "B1",
          "ticks": 230784,
          "time": 225.375,
          "velocity": 0.3937007874015748
        },
        {
          "duration": 0.1875,
          "durationTicks": 192,
          "midi": 57,
          "name": "A3",
          "ticks": 230784,
          "time": 225.375,
          "velocity": 0.3937007874015748
        },
        {
          "duration": 0.09375,
          "durationTicks": 96,
          "midi": 40,
          "name": "E2",
          "ticks": 230784,
          "time": 225.375,
          "velocity": 0.3937007874015748
        },
        {
          "duration": 0.1875,
          "durationTicks": 192,
          "midi": 36,
          "name": "C2",
          "ticks": 230784,
          "time": 225.375,
          "velocity": 0.3937007874015748
        },
        {
          "duration": 0.1875,
          "durationTicks": 192,
          "midi": 44,
          "name": "G#2",
          "ticks": 230784,
          "time": 225.375,
          "velocity": 0.3937007874015748
        },
        {
          "duration": 0.1875,
          "durationTicks": 192,
          "midi": 44,
          "name": "G#2",
          "ticks": 231168,
          "time": 225.75,
          "velocity": 0.3937007874015748
        },
        {
          "duration": 0.1875,
          "durationTicks": 192,
          "midi": 36,
          "name": "C2",
          "ticks": 231168,
          "time": 225.75,
          "velocity": 0.3937007874015748
        },
        {
          "duration": 0.1875,
          "durationTicks": 192,
          "midi": 35,
          "name": "B1",
          "ticks": 231168,
          "time": 225.75,
          "velocity": 0.3937007874015748
        },
        {
          "duration": 0.1875,
          "durationTicks": 192,
          "midi": 44,
          "name": "G#2",
          "ticks": 231168,
          "time": 225.75,
          "velocity": 0.3937007874015748
        },
        {
          "duration": 0.1875,
          "durationTicks": 192,
          "midi": 57,
          "name": "A3",
          "ticks": 231168,
          "time": 225.75,
          "velocity": 0.3937007874015748
        },
        {
          "duration": 0.1875,
          "durationTicks": 192,
          "midi": 44,
          "name": "G#2",
          "ticks": 231552,
          "time": 226.125,
          "velocity": 0.3937007874015748
        },
        {
          "duration": 0.09375,
          "durationTicks": 96,
          "midi": 40,
          "name": "E2",
          "ticks": 231552,
          "time": 226.125,
          "velocity": 0.3937007874015748
        },
        {
          "duration": 0.09375,
          "durationTicks": 96,
          "midi": 38,
          "name": "D2",
          "ticks": 231552,
          "time": 226.125,
          "velocity": 0.3937007874015748
        },
        {
          "duration": 0.1875,
          "durationTicks": 192,
          "midi": 44,
          "name": "G#2",
          "ticks": 231552,
          "time": 226.125,
          "velocity": 0.3937007874015748
        },
        {
          "duration": 0.1875,
          "durationTicks": 192,
          "midi": 36,
          "name": "C2",
          "ticks": 231552,
          "time": 226.125,
          "velocity": 0.3937007874015748
        },
        {
          "duration": 0.1875,
          "durationTicks": 192,
          "midi": 35,
          "name": "B1",
          "ticks": 231552,
          "time": 226.125,
          "velocity": 0.3937007874015748
        },
        {
          "duration": 0.1875,
          "durationTicks": 192,
          "midi": 57,
          "name": "A3",
          "ticks": 231552,
          "time": 226.125,
          "velocity": 0.3937007874015748
        },
        {
          "duration": 0.1875,
          "durationTicks": 192,
          "midi": 36,
          "name": "C2",
          "ticks": 231936,
          "time": 226.5,
          "velocity": 0.3937007874015748
        },
        {
          "duration": 0.1875,
          "durationTicks": 192,
          "midi": 35,
          "name": "B1",
          "ticks": 231936,
          "time": 226.5,
          "velocity": 0.3937007874015748
        },
        {
          "duration": 0.1875,
          "durationTicks": 192,
          "midi": 44,
          "name": "G#2",
          "ticks": 231936,
          "time": 226.5,
          "velocity": 0.3937007874015748
        },
        {
          "duration": 0.1875,
          "durationTicks": 192,
          "midi": 57,
          "name": "A3",
          "ticks": 231936,
          "time": 226.5,
          "velocity": 0.3937007874015748
        },
        {
          "duration": 0.1875,
          "durationTicks": 192,
          "midi": 44,
          "name": "G#2",
          "ticks": 231936,
          "time": 226.5,
          "velocity": 0.3937007874015748
        },
        {
          "duration": 0.1875,
          "durationTicks": 192,
          "midi": 52,
          "name": "E3",
          "ticks": 231936,
          "time": 226.5,
          "velocity": 0.3937007874015748
        },
        {
          "duration": 0.1875,
          "durationTicks": 192,
          "midi": 57,
          "name": "A3",
          "ticks": 232320,
          "time": 226.875,
          "velocity": 0.3937007874015748
        },
        {
          "duration": 0.1875,
          "durationTicks": 192,
          "midi": 44,
          "name": "G#2",
          "ticks": 232320,
          "time": 226.875,
          "velocity": 0.3937007874015748
        },
        {
          "duration": 0.09375,
          "durationTicks": 96,
          "midi": 38,
          "name": "D2",
          "ticks": 232320,
          "time": 226.875,
          "velocity": 0.3937007874015748
        },
        {
          "duration": 0.1875,
          "durationTicks": 192,
          "midi": 44,
          "name": "G#2",
          "ticks": 232320,
          "time": 226.875,
          "velocity": 0.3937007874015748
        },
        {
          "duration": 0.1875,
          "durationTicks": 192,
          "midi": 36,
          "name": "C2",
          "ticks": 232320,
          "time": 226.875,
          "velocity": 0.3937007874015748
        },
        {
          "duration": 0.1875,
          "durationTicks": 192,
          "midi": 35,
          "name": "B1",
          "ticks": 232320,
          "time": 226.875,
          "velocity": 0.3937007874015748
        },
        {
          "duration": 0.09375,
          "durationTicks": 96,
          "midi": 40,
          "name": "E2",
          "ticks": 232320,
          "time": 226.875,
          "velocity": 0.3937007874015748
        },
        {
          "duration": 0.1875,
          "durationTicks": 192,
          "midi": 57,
          "name": "A3",
          "ticks": 232704,
          "time": 227.25,
          "velocity": 0.3937007874015748
        },
        {
          "duration": 0.1875,
          "durationTicks": 192,
          "midi": 35,
          "name": "B1",
          "ticks": 232704,
          "time": 227.25,
          "velocity": 0.3937007874015748
        },
        {
          "duration": 0.1875,
          "durationTicks": 192,
          "midi": 44,
          "name": "G#2",
          "ticks": 232704,
          "time": 227.25,
          "velocity": 0.3937007874015748
        },
        {
          "duration": 0.1875,
          "durationTicks": 192,
          "midi": 44,
          "name": "G#2",
          "ticks": 232704,
          "time": 227.25,
          "velocity": 0.3937007874015748
        },
        {
          "duration": 0.1875,
          "durationTicks": 192,
          "midi": 36,
          "name": "C2",
          "ticks": 232704,
          "time": 227.25,
          "velocity": 0.3937007874015748
        },
        {
          "duration": 0.1875,
          "durationTicks": 192,
          "midi": 35,
          "name": "B1",
          "ticks": 232896,
          "time": 227.4375,
          "velocity": 0.3937007874015748
        },
        {
          "duration": 0.1875,
          "durationTicks": 192,
          "midi": 36,
          "name": "C2",
          "ticks": 232896,
          "time": 227.4375,
          "velocity": 0.3937007874015748
        },
        {
          "duration": 0.09375,
          "durationTicks": 96,
          "midi": 40,
          "name": "E2",
          "ticks": 232992,
          "time": 227.53125,
          "velocity": 0.3937007874015748
        },
        {
          "duration": 0.09375,
          "durationTicks": 96,
          "midi": 38,
          "name": "D2",
          "ticks": 232992,
          "time": 227.53125,
          "velocity": 0.3937007874015748
        },
        {
          "duration": 0.1875,
          "durationTicks": 192,
          "midi": 57,
          "name": "A3",
          "ticks": 233088,
          "time": 227.625,
          "velocity": 0.3937007874015748
        },
        {
          "duration": 0.09375,
          "durationTicks": 96,
          "midi": 38,
          "name": "D2",
          "ticks": 233088,
          "time": 227.625,
          "velocity": 0.3937007874015748
        },
        {
          "duration": 0.09375,
          "durationTicks": 96,
          "midi": 40,
          "name": "E2",
          "ticks": 233088,
          "time": 227.625,
          "velocity": 0.3937007874015748
        },
        {
          "duration": 0.1875,
          "durationTicks": 192,
          "midi": 44,
          "name": "G#2",
          "ticks": 233088,
          "time": 227.625,
          "velocity": 0.3937007874015748
        },
        {
          "duration": 0.1875,
          "durationTicks": 192,
          "midi": 44,
          "name": "G#2",
          "ticks": 233088,
          "time": 227.625,
          "velocity": 0.3937007874015748
        },
        {
          "duration": 0.09375,
          "durationTicks": 96,
          "midi": 40,
          "name": "E2",
          "ticks": 233280,
          "time": 227.8125,
          "velocity": 0.3937007874015748
        },
        {
          "duration": 0.09375,
          "durationTicks": 96,
          "midi": 38,
          "name": "D2",
          "ticks": 233280,
          "time": 227.8125,
          "velocity": 0.3937007874015748
        },
        {
          "duration": 0.1875,
          "durationTicks": 192,
          "midi": 52,
          "name": "E3",
          "ticks": 233472,
          "time": 228,
          "velocity": 0.3937007874015748
        },
        {
          "duration": 0.1875,
          "durationTicks": 192,
          "midi": 57,
          "name": "A3",
          "ticks": 233472,
          "time": 228,
          "velocity": 0.3937007874015748
        },
        {
          "duration": 0.1875,
          "durationTicks": 192,
          "midi": 35,
          "name": "B1",
          "ticks": 233472,
          "time": 228,
          "velocity": 0.3937007874015748
        },
        {
          "duration": 0.1875,
          "durationTicks": 192,
          "midi": 44,
          "name": "G#2",
          "ticks": 233472,
          "time": 228,
          "velocity": 0.3937007874015748
        },
        {
          "duration": 0.1875,
          "durationTicks": 192,
          "midi": 36,
          "name": "C2",
          "ticks": 233472,
          "time": 228,
          "velocity": 0.3937007874015748
        },
        {
          "duration": 0.1875,
          "durationTicks": 192,
          "midi": 44,
          "name": "G#2",
          "ticks": 233472,
          "time": 228,
          "velocity": 0.3937007874015748
        },
        {
          "duration": 0.09375,
          "durationTicks": 96,
          "midi": 40,
          "name": "E2",
          "ticks": 233856,
          "time": 228.375,
          "velocity": 0.3937007874015748
        },
        {
          "duration": 0.1875,
          "durationTicks": 192,
          "midi": 35,
          "name": "B1",
          "ticks": 233856,
          "time": 228.375,
          "velocity": 0.3937007874015748
        },
        {
          "duration": 0.1875,
          "durationTicks": 192,
          "midi": 36,
          "name": "C2",
          "ticks": 233856,
          "time": 228.375,
          "velocity": 0.3937007874015748
        },
        {
          "duration": 0.1875,
          "durationTicks": 192,
          "midi": 44,
          "name": "G#2",
          "ticks": 233856,
          "time": 228.375,
          "velocity": 0.3937007874015748
        },
        {
          "duration": 0.1875,
          "durationTicks": 192,
          "midi": 57,
          "name": "A3",
          "ticks": 233856,
          "time": 228.375,
          "velocity": 0.3937007874015748
        },
        {
          "duration": 0.09375,
          "durationTicks": 96,
          "midi": 38,
          "name": "D2",
          "ticks": 233856,
          "time": 228.375,
          "velocity": 0.3937007874015748
        },
        {
          "duration": 0.1875,
          "durationTicks": 192,
          "midi": 44,
          "name": "G#2",
          "ticks": 233856,
          "time": 228.375,
          "velocity": 0.3937007874015748
        },
        {
          "duration": 0.1875,
          "durationTicks": 192,
          "midi": 44,
          "name": "G#2",
          "ticks": 234240,
          "time": 228.75,
          "velocity": 0.3937007874015748
        },
        {
          "duration": 0.1875,
          "durationTicks": 192,
          "midi": 44,
          "name": "G#2",
          "ticks": 234240,
          "time": 228.75,
          "velocity": 0.3937007874015748
        },
        {
          "duration": 0.1875,
          "durationTicks": 192,
          "midi": 36,
          "name": "C2",
          "ticks": 234240,
          "time": 228.75,
          "velocity": 0.3937007874015748
        },
        {
          "duration": 0.1875,
          "durationTicks": 192,
          "midi": 35,
          "name": "B1",
          "ticks": 234240,
          "time": 228.75,
          "velocity": 0.3937007874015748
        },
        {
          "duration": 0.1875,
          "durationTicks": 192,
          "midi": 57,
          "name": "A3",
          "ticks": 234240,
          "time": 228.75,
          "velocity": 0.3937007874015748
        },
        {
          "duration": 0.1875,
          "durationTicks": 192,
          "midi": 44,
          "name": "G#2",
          "ticks": 234624,
          "time": 229.125,
          "velocity": 0.3937007874015748
        },
        {
          "duration": 0.1875,
          "durationTicks": 192,
          "midi": 44,
          "name": "G#2",
          "ticks": 234624,
          "time": 229.125,
          "velocity": 0.3937007874015748
        },
        {
          "duration": 0.1875,
          "durationTicks": 192,
          "midi": 36,
          "name": "C2",
          "ticks": 234624,
          "time": 229.125,
          "velocity": 0.3937007874015748
        },
        {
          "duration": 0.1875,
          "durationTicks": 192,
          "midi": 57,
          "name": "A3",
          "ticks": 234624,
          "time": 229.125,
          "velocity": 0.3937007874015748
        },
        {
          "duration": 0.1875,
          "durationTicks": 192,
          "midi": 35,
          "name": "B1",
          "ticks": 234624,
          "time": 229.125,
          "velocity": 0.3937007874015748
        },
        {
          "duration": 0.09375,
          "durationTicks": 96,
          "midi": 40,
          "name": "E2",
          "ticks": 234624,
          "time": 229.125,
          "velocity": 0.3937007874015748
        },
        {
          "duration": 0.09375,
          "durationTicks": 96,
          "midi": 38,
          "name": "D2",
          "ticks": 234624,
          "time": 229.125,
          "velocity": 0.3937007874015748
        },
        {
          "duration": 0.1875,
          "durationTicks": 192,
          "midi": 35,
          "name": "B1",
          "ticks": 235008,
          "time": 229.5,
          "velocity": 0.3937007874015748
        },
        {
          "duration": 0.1875,
          "durationTicks": 192,
          "midi": 44,
          "name": "G#2",
          "ticks": 235008,
          "time": 229.5,
          "velocity": 0.3937007874015748
        },
        {
          "duration": 0.1875,
          "durationTicks": 192,
          "midi": 44,
          "name": "G#2",
          "ticks": 235008,
          "time": 229.5,
          "velocity": 0.3937007874015748
        },
        {
          "duration": 0.1875,
          "durationTicks": 192,
          "midi": 57,
          "name": "A3",
          "ticks": 235008,
          "time": 229.5,
          "velocity": 0.3937007874015748
        },
        {
          "duration": 0.1875,
          "durationTicks": 192,
          "midi": 52,
          "name": "E3",
          "ticks": 235008,
          "time": 229.5,
          "velocity": 0.3937007874015748
        },
        {
          "duration": 0.1875,
          "durationTicks": 192,
          "midi": 36,
          "name": "C2",
          "ticks": 235008,
          "time": 229.5,
          "velocity": 0.3937007874015748
        },
        {
          "duration": 0.1875,
          "durationTicks": 192,
          "midi": 44,
          "name": "G#2",
          "ticks": 235392,
          "time": 229.875,
          "velocity": 0.3937007874015748
        },
        {
          "duration": 0.1875,
          "durationTicks": 192,
          "midi": 44,
          "name": "G#2",
          "ticks": 235392,
          "time": 229.875,
          "velocity": 0.3937007874015748
        },
        {
          "duration": 0.09375,
          "durationTicks": 96,
          "midi": 38,
          "name": "D2",
          "ticks": 235392,
          "time": 229.875,
          "velocity": 0.3937007874015748
        },
        {
          "duration": 0.1875,
          "durationTicks": 192,
          "midi": 35,
          "name": "B1",
          "ticks": 235392,
          "time": 229.875,
          "velocity": 0.3937007874015748
        },
        {
          "duration": 0.1875,
          "durationTicks": 192,
          "midi": 57,
          "name": "A3",
          "ticks": 235392,
          "time": 229.875,
          "velocity": 0.3937007874015748
        },
        {
          "duration": 0.1875,
          "durationTicks": 192,
          "midi": 36,
          "name": "C2",
          "ticks": 235392,
          "time": 229.875,
          "velocity": 0.3937007874015748
        },
        {
          "duration": 0.09375,
          "durationTicks": 96,
          "midi": 40,
          "name": "E2",
          "ticks": 235392,
          "time": 229.875,
          "velocity": 0.3937007874015748
        },
        {
          "duration": 0.1875,
          "durationTicks": 192,
          "midi": 44,
          "name": "G#2",
          "ticks": 235776,
          "time": 230.25,
          "velocity": 0.3937007874015748
        },
        {
          "duration": 0.1875,
          "durationTicks": 192,
          "midi": 35,
          "name": "B1",
          "ticks": 235776,
          "time": 230.25,
          "velocity": 0.3937007874015748
        },
        {
          "duration": 0.1875,
          "durationTicks": 192,
          "midi": 57,
          "name": "A3",
          "ticks": 235776,
          "time": 230.25,
          "velocity": 0.3937007874015748
        },
        {
          "duration": 0.1875,
          "durationTicks": 192,
          "midi": 36,
          "name": "C2",
          "ticks": 235776,
          "time": 230.25,
          "velocity": 0.3937007874015748
        },
        {
          "duration": 0.1875,
          "durationTicks": 192,
          "midi": 44,
          "name": "G#2",
          "ticks": 235776,
          "time": 230.25,
          "velocity": 0.3937007874015748
        },
        {
          "duration": 0.09375,
          "durationTicks": 96,
          "midi": 38,
          "name": "D2",
          "ticks": 236160,
          "time": 230.625,
          "velocity": 0.3937007874015748
        },
        {
          "duration": 0.1875,
          "durationTicks": 192,
          "midi": 35,
          "name": "B1",
          "ticks": 236160,
          "time": 230.625,
          "velocity": 0.3937007874015748
        },
        {
          "duration": 0.1875,
          "durationTicks": 192,
          "midi": 44,
          "name": "G#2",
          "ticks": 236160,
          "time": 230.625,
          "velocity": 0.3937007874015748
        },
        {
          "duration": 0.1875,
          "durationTicks": 192,
          "midi": 44,
          "name": "G#2",
          "ticks": 236160,
          "time": 230.625,
          "velocity": 0.3937007874015748
        },
        {
          "duration": 0.1875,
          "durationTicks": 192,
          "midi": 57,
          "name": "A3",
          "ticks": 236160,
          "time": 230.625,
          "velocity": 0.3937007874015748
        },
        {
          "duration": 0.1875,
          "durationTicks": 192,
          "midi": 36,
          "name": "C2",
          "ticks": 236160,
          "time": 230.625,
          "velocity": 0.3937007874015748
        },
        {
          "duration": 0.09375,
          "durationTicks": 96,
          "midi": 40,
          "name": "E2",
          "ticks": 236160,
          "time": 230.625,
          "velocity": 0.3937007874015748
        },
        {
          "duration": 0.1875,
          "durationTicks": 192,
          "midi": 36,
          "name": "C2",
          "ticks": 236544,
          "time": 231,
          "velocity": 0.3937007874015748
        },
        {
          "duration": 0.1875,
          "durationTicks": 192,
          "midi": 44,
          "name": "G#2",
          "ticks": 236544,
          "time": 231,
          "velocity": 0.3937007874015748
        },
        {
          "duration": 0.1875,
          "durationTicks": 192,
          "midi": 44,
          "name": "G#2",
          "ticks": 236544,
          "time": 231,
          "velocity": 0.3937007874015748
        },
        {
          "duration": 0.1875,
          "durationTicks": 192,
          "midi": 52,
          "name": "E3",
          "ticks": 236544,
          "time": 231,
          "velocity": 0.3937007874015748
        },
        {
          "duration": 0.1875,
          "durationTicks": 192,
          "midi": 35,
          "name": "B1",
          "ticks": 236544,
          "time": 231,
          "velocity": 0.3937007874015748
        },
        {
          "duration": 0.1875,
          "durationTicks": 192,
          "midi": 57,
          "name": "A3",
          "ticks": 236544,
          "time": 231,
          "velocity": 0.3937007874015748
        },
        {
          "duration": 0.09375,
          "durationTicks": 96,
          "midi": 40,
          "name": "E2",
          "ticks": 236928,
          "time": 231.375,
          "velocity": 0.3937007874015748
        },
        {
          "duration": 0.1875,
          "durationTicks": 192,
          "midi": 44,
          "name": "G#2",
          "ticks": 236928,
          "time": 231.375,
          "velocity": 0.3937007874015748
        },
        {
          "duration": 0.1875,
          "durationTicks": 192,
          "midi": 57,
          "name": "A3",
          "ticks": 236928,
          "time": 231.375,
          "velocity": 0.3937007874015748
        },
        {
          "duration": 0.09375,
          "durationTicks": 96,
          "midi": 38,
          "name": "D2",
          "ticks": 236928,
          "time": 231.375,
          "velocity": 0.3937007874015748
        },
        {
          "duration": 0.1875,
          "durationTicks": 192,
          "midi": 44,
          "name": "G#2",
          "ticks": 236928,
          "time": 231.375,
          "velocity": 0.3937007874015748
        },
        {
          "duration": 0.1875,
          "durationTicks": 192,
          "midi": 36,
          "name": "C2",
          "ticks": 236928,
          "time": 231.375,
          "velocity": 0.3937007874015748
        },
        {
          "duration": 0.1875,
          "durationTicks": 192,
          "midi": 35,
          "name": "B1",
          "ticks": 236928,
          "time": 231.375,
          "velocity": 0.3937007874015748
        },
        {
          "duration": 0.1875,
          "durationTicks": 192,
          "midi": 36,
          "name": "C2",
          "ticks": 237312,
          "time": 231.75,
          "velocity": 0.3937007874015748
        },
        {
          "duration": 0.1875,
          "durationTicks": 192,
          "midi": 35,
          "name": "B1",
          "ticks": 237312,
          "time": 231.75,
          "velocity": 0.3937007874015748
        },
        {
          "duration": 0.1875,
          "durationTicks": 192,
          "midi": 44,
          "name": "G#2",
          "ticks": 237312,
          "time": 231.75,
          "velocity": 0.3937007874015748
        },
        {
          "duration": 0.1875,
          "durationTicks": 192,
          "midi": 44,
          "name": "G#2",
          "ticks": 237312,
          "time": 231.75,
          "velocity": 0.3937007874015748
        },
        {
          "duration": 0.1875,
          "durationTicks": 192,
          "midi": 57,
          "name": "A3",
          "ticks": 237312,
          "time": 231.75,
          "velocity": 0.3937007874015748
        },
        {
          "duration": 0.09375,
          "durationTicks": 96,
          "midi": 38,
          "name": "D2",
          "ticks": 237696,
          "time": 232.125,
          "velocity": 0.3937007874015748
        },
        {
          "duration": 0.1875,
          "durationTicks": 192,
          "midi": 35,
          "name": "B1",
          "ticks": 237696,
          "time": 232.125,
          "velocity": 0.3937007874015748
        },
        {
          "duration": 0.09375,
          "durationTicks": 96,
          "midi": 40,
          "name": "E2",
          "ticks": 237696,
          "time": 232.125,
          "velocity": 0.3937007874015748
        },
        {
          "duration": 0.1875,
          "durationTicks": 192,
          "midi": 44,
          "name": "G#2",
          "ticks": 237696,
          "time": 232.125,
          "velocity": 0.3937007874015748
        },
        {
          "duration": 0.1875,
          "durationTicks": 192,
          "midi": 36,
          "name": "C2",
          "ticks": 237696,
          "time": 232.125,
          "velocity": 0.3937007874015748
        },
        {
          "duration": 0.1875,
          "durationTicks": 192,
          "midi": 44,
          "name": "G#2",
          "ticks": 237696,
          "time": 232.125,
          "velocity": 0.3937007874015748
        },
        {
          "duration": 0.1875,
          "durationTicks": 192,
          "midi": 57,
          "name": "A3",
          "ticks": 237696,
          "time": 232.125,
          "velocity": 0.3937007874015748
        },
        {
          "duration": 0.1875,
          "durationTicks": 192,
          "midi": 36,
          "name": "C2",
          "ticks": 238080,
          "time": 232.5,
          "velocity": 0.3937007874015748
        },
        {
          "duration": 0.1875,
          "durationTicks": 192,
          "midi": 44,
          "name": "G#2",
          "ticks": 238080,
          "time": 232.5,
          "velocity": 0.3937007874015748
        },
        {
          "duration": 0.1875,
          "durationTicks": 192,
          "midi": 35,
          "name": "B1",
          "ticks": 238080,
          "time": 232.5,
          "velocity": 0.3937007874015748
        },
        {
          "duration": 0.1875,
          "durationTicks": 192,
          "midi": 44,
          "name": "G#2",
          "ticks": 238080,
          "time": 232.5,
          "velocity": 0.3937007874015748
        },
        {
          "duration": 0.1875,
          "durationTicks": 192,
          "midi": 52,
          "name": "E3",
          "ticks": 238080,
          "time": 232.5,
          "velocity": 0.3937007874015748
        },
        {
          "duration": 0.1875,
          "durationTicks": 192,
          "midi": 57,
          "name": "A3",
          "ticks": 238080,
          "time": 232.5,
          "velocity": 0.3937007874015748
        },
        {
          "duration": 0.1875,
          "durationTicks": 192,
          "midi": 44,
          "name": "G#2",
          "ticks": 238464,
          "time": 232.875,
          "velocity": 0.3937007874015748
        },
        {
          "duration": 0.1875,
          "durationTicks": 192,
          "midi": 36,
          "name": "C2",
          "ticks": 238464,
          "time": 232.875,
          "velocity": 0.3937007874015748
        },
        {
          "duration": 0.09375,
          "durationTicks": 96,
          "midi": 38,
          "name": "D2",
          "ticks": 238464,
          "time": 232.875,
          "velocity": 0.3937007874015748
        },
        {
          "duration": 0.09375,
          "durationTicks": 96,
          "midi": 40,
          "name": "E2",
          "ticks": 238464,
          "time": 232.875,
          "velocity": 0.3937007874015748
        },
        {
          "duration": 0.1875,
          "durationTicks": 192,
          "midi": 35,
          "name": "B1",
          "ticks": 238464,
          "time": 232.875,
          "velocity": 0.3937007874015748
        },
        {
          "duration": 0.1875,
          "durationTicks": 192,
          "midi": 57,
          "name": "A3",
          "ticks": 238464,
          "time": 232.875,
          "velocity": 0.3937007874015748
        },
        {
          "duration": 0.1875,
          "durationTicks": 192,
          "midi": 44,
          "name": "G#2",
          "ticks": 238464,
          "time": 232.875,
          "velocity": 0.3937007874015748
        },
        {
          "duration": 0.1875,
          "durationTicks": 192,
          "midi": 57,
          "name": "A3",
          "ticks": 239616,
          "time": 234,
          "velocity": 0.3937007874015748
        },
        {
          "duration": 0.1875,
          "durationTicks": 192,
          "midi": 52,
          "name": "E3",
          "ticks": 239616,
          "time": 234,
          "velocity": 0.3937007874015748
        },
        {
          "duration": 0.1875,
          "durationTicks": 192,
          "midi": 49,
          "name": "C#3",
          "ticks": 239616,
          "time": 234,
          "velocity": 0.3937007874015748
        },
        {
          "duration": 0.1875,
          "durationTicks": 192,
          "midi": 52,
          "name": "E3",
          "ticks": 239616,
          "time": 234,
          "velocity": 0.3937007874015748
        },
        {
          "duration": 0.1875,
          "durationTicks": 192,
          "midi": 57,
          "name": "A3",
          "ticks": 239616,
          "time": 234,
          "velocity": 0.3937007874015748
        },
        {
          "duration": 0.1875,
          "durationTicks": 192,
          "midi": 49,
          "name": "C#3",
          "ticks": 239616,
          "time": 234,
          "velocity": 0.3937007874015748
        }
      ],
      "endOfTrackTicks": 239808
    },
    {
      "channel": 11,
      "controlChanges": {},
      "pitchBends": [],
      "instrument": {
        "family": "guitar",
        "number": 28,
        "name": "electric guitar (muted)"
      },
      "name": "Muted E-Guitar",
      "notes": [
        {
          "duration": 0.1875,
          "durationTicks": 192,
          "midi": 40,
          "name": "E2",
          "ticks": 0,
          "time": 0,
          "velocity": 0.3937007874015748
        },
        {
          "duration": 0.1875,
          "durationTicks": 192,
          "midi": 59,
          "name": "B3",
          "ticks": 0,
          "time": 0,
          "velocity": 0.3937007874015748
        },
        {
          "duration": 0.1875,
          "durationTicks": 192,
          "midi": 55,
          "name": "G3",
          "ticks": 192,
          "time": 0.1875,
          "velocity": 0.3937007874015748
        },
        {
          "duration": 0.1875,
          "durationTicks": 192,
          "midi": 52,
          "name": "E3",
          "ticks": 384,
          "time": 0.375,
          "velocity": 0.3937007874015748
        },
        {
          "duration": 0.1875,
          "durationTicks": 192,
          "midi": 58,
          "name": "A#3",
          "ticks": 576,
          "time": 0.5625,
          "velocity": 0.3937007874015748
        },
        {
          "duration": 0.1875,
          "durationTicks": 192,
          "midi": 39,
          "name": "D#2",
          "ticks": 576,
          "time": 0.5625,
          "velocity": 0.3937007874015748
        },
        {
          "duration": 0.1875,
          "durationTicks": 192,
          "midi": 55,
          "name": "G3",
          "ticks": 768,
          "time": 0.75,
          "velocity": 0.3937007874015748
        },
        {
          "duration": 0.1875,
          "durationTicks": 192,
          "midi": 52,
          "name": "E3",
          "ticks": 960,
          "time": 0.9375,
          "velocity": 0.3937007874015748
        },
        {
          "duration": 0.1875,
          "durationTicks": 192,
          "midi": 39,
          "name": "D#2",
          "ticks": 1152,
          "time": 1.125,
          "velocity": 0.3937007874015748
        },
        {
          "duration": 0.1875,
          "durationTicks": 192,
          "midi": 58,
          "name": "A#3",
          "ticks": 1152,
          "time": 1.125,
          "velocity": 0.3937007874015748
        },
        {
          "duration": 0.1875,
          "durationTicks": 192,
          "midi": 55,
          "name": "G3",
          "ticks": 1344,
          "time": 1.3125,
          "velocity": 0.3937007874015748
        },
        {
          "duration": 0.1875,
          "durationTicks": 192,
          "midi": 59,
          "name": "B3",
          "ticks": 1536,
          "time": 1.5,
          "velocity": 0.3937007874015748
        },
        {
          "duration": 0.1875,
          "durationTicks": 192,
          "midi": 40,
          "name": "E2",
          "ticks": 1536,
          "time": 1.5,
          "velocity": 0.3937007874015748
        },
        {
          "duration": 0.1875,
          "durationTicks": 192,
          "midi": 55,
          "name": "G3",
          "ticks": 1728,
          "time": 1.6875,
          "velocity": 0.3937007874015748
        },
        {
          "duration": 0.1875,
          "durationTicks": 192,
          "midi": 52,
          "name": "E3",
          "ticks": 1920,
          "time": 1.875,
          "velocity": 0.3937007874015748
        },
        {
          "duration": 0.1875,
          "durationTicks": 192,
          "midi": 39,
          "name": "D#2",
          "ticks": 2112,
          "time": 2.0625,
          "velocity": 0.3937007874015748
        },
        {
          "duration": 0.1875,
          "durationTicks": 192,
          "midi": 58,
          "name": "A#3",
          "ticks": 2112,
          "time": 2.0625,
          "velocity": 0.3937007874015748
        },
        {
          "duration": 0.1875,
          "durationTicks": 192,
          "midi": 55,
          "name": "G3",
          "ticks": 2304,
          "time": 2.25,
          "velocity": 0.3937007874015748
        },
        {
          "duration": 0.1875,
          "durationTicks": 192,
          "midi": 52,
          "name": "E3",
          "ticks": 2496,
          "time": 2.4375,
          "velocity": 0.3937007874015748
        },
        {
          "duration": 0.1875,
          "durationTicks": 192,
          "midi": 39,
          "name": "D#2",
          "ticks": 2688,
          "time": 2.625,
          "velocity": 0.3937007874015748
        },
        {
          "duration": 0.1875,
          "durationTicks": 192,
          "midi": 60,
          "name": "C4",
          "ticks": 2688,
          "time": 2.625,
          "velocity": 0.3937007874015748
        },
        {
          "duration": 0.1875,
          "durationTicks": 192,
          "midi": 58,
          "name": "A#3",
          "ticks": 2880,
          "time": 2.8125,
          "velocity": 0.3937007874015748
        },
        {
          "duration": 0.1875,
          "durationTicks": 192,
          "midi": 40,
          "name": "E2",
          "ticks": 3072,
          "time": 3,
          "velocity": 0.3937007874015748
        },
        {
          "duration": 0.1875,
          "durationTicks": 192,
          "midi": 59,
          "name": "B3",
          "ticks": 3072,
          "time": 3,
          "velocity": 0.3937007874015748
        },
        {
          "duration": 0.1875,
          "durationTicks": 192,
          "midi": 55,
          "name": "G3",
          "ticks": 3264,
          "time": 3.1875,
          "velocity": 0.3937007874015748
        },
        {
          "duration": 0.1875,
          "durationTicks": 192,
          "midi": 52,
          "name": "E3",
          "ticks": 3456,
          "time": 3.375,
          "velocity": 0.3937007874015748
        },
        {
          "duration": 0.1875,
          "durationTicks": 192,
          "midi": 39,
          "name": "D#2",
          "ticks": 3648,
          "time": 3.5625,
          "velocity": 0.3937007874015748
        },
        {
          "duration": 0.1875,
          "durationTicks": 192,
          "midi": 58,
          "name": "A#3",
          "ticks": 3648,
          "time": 3.5625,
          "velocity": 0.3937007874015748
        },
        {
          "duration": 0.1875,
          "durationTicks": 192,
          "midi": 55,
          "name": "G3",
          "ticks": 3840,
          "time": 3.75,
          "velocity": 0.3937007874015748
        },
        {
          "duration": 0.1875,
          "durationTicks": 192,
          "midi": 52,
          "name": "E3",
          "ticks": 4032,
          "time": 3.9375,
          "velocity": 0.3937007874015748
        },
        {
          "duration": 0.1875,
          "durationTicks": 192,
          "midi": 39,
          "name": "D#2",
          "ticks": 4224,
          "time": 4.125,
          "velocity": 0.3937007874015748
        },
        {
          "duration": 0.1875,
          "durationTicks": 192,
          "midi": 58,
          "name": "A#3",
          "ticks": 4224,
          "time": 4.125,
          "velocity": 0.3937007874015748
        },
        {
          "duration": 0.1875,
          "durationTicks": 192,
          "midi": 55,
          "name": "G3",
          "ticks": 4416,
          "time": 4.3125,
          "velocity": 0.3937007874015748
        },
        {
          "duration": 0.1875,
          "durationTicks": 192,
          "midi": 59,
          "name": "B3",
          "ticks": 4608,
          "time": 4.5,
          "velocity": 0.3937007874015748
        },
        {
          "duration": 0.1875,
          "durationTicks": 192,
          "midi": 40,
          "name": "E2",
          "ticks": 4608,
          "time": 4.5,
          "velocity": 0.3937007874015748
        },
        {
          "duration": 0.1875,
          "durationTicks": 192,
          "midi": 55,
          "name": "G3",
          "ticks": 4800,
          "time": 4.6875,
          "velocity": 0.3937007874015748
        },
        {
          "duration": 0.1875,
          "durationTicks": 192,
          "midi": 52,
          "name": "E3",
          "ticks": 4992,
          "time": 4.875,
          "velocity": 0.3937007874015748
        },
        {
          "duration": 0.1875,
          "durationTicks": 192,
          "midi": 39,
          "name": "D#2",
          "ticks": 5184,
          "time": 5.0625,
          "velocity": 0.3937007874015748
        },
        {
          "duration": 0.9375,
          "durationTicks": 960,
          "midi": 48,
          "name": "C3",
          "ticks": 5184,
          "time": 5.0625,
          "velocity": 0.3937007874015748
        },
        {
          "duration": 0.1875,
          "durationTicks": 192,
          "midi": 39,
          "name": "D#2",
          "ticks": 5760,
          "time": 5.625,
          "velocity": 0.3937007874015748
        },
        {
          "duration": 0.1875,
          "durationTicks": 192,
          "midi": 59,
          "name": "B3",
          "ticks": 6144,
          "time": 6,
          "velocity": 0.3937007874015748
        },
        {
          "duration": 0.1875,
          "durationTicks": 192,
          "midi": 40,
          "name": "E2",
          "ticks": 6144,
          "time": 6,
          "velocity": 0.3937007874015748
        },
        {
          "duration": 0.1875,
          "durationTicks": 192,
          "midi": 55,
          "name": "G3",
          "ticks": 6336,
          "time": 6.1875,
          "velocity": 0.3937007874015748
        },
        {
          "duration": 0.1875,
          "durationTicks": 192,
          "midi": 52,
          "name": "E3",
          "ticks": 6528,
          "time": 6.375,
          "velocity": 0.3937007874015748
        },
        {
          "duration": 0.1875,
          "durationTicks": 192,
          "midi": 39,
          "name": "D#2",
          "ticks": 6720,
          "time": 6.5625,
          "velocity": 0.3937007874015748
        },
        {
          "duration": 0.1875,
          "durationTicks": 192,
          "midi": 58,
          "name": "A#3",
          "ticks": 6720,
          "time": 6.5625,
          "velocity": 0.3937007874015748
        },
        {
          "duration": 0.1875,
          "durationTicks": 192,
          "midi": 55,
          "name": "G3",
          "ticks": 6912,
          "time": 6.75,
          "velocity": 0.3937007874015748
        },
        {
          "duration": 0.1875,
          "durationTicks": 192,
          "midi": 52,
          "name": "E3",
          "ticks": 7104,
          "time": 6.9375,
          "velocity": 0.3937007874015748
        },
        {
          "duration": 0.1875,
          "durationTicks": 192,
          "midi": 58,
          "name": "A#3",
          "ticks": 7296,
          "time": 7.125,
          "velocity": 0.3937007874015748
        },
        {
          "duration": 0.1875,
          "durationTicks": 192,
          "midi": 39,
          "name": "D#2",
          "ticks": 7296,
          "time": 7.125,
          "velocity": 0.3937007874015748
        },
        {
          "duration": 0.1875,
          "durationTicks": 192,
          "midi": 55,
          "name": "G3",
          "ticks": 7488,
          "time": 7.3125,
          "velocity": 0.3937007874015748
        },
        {
          "duration": 0.1875,
          "durationTicks": 192,
          "midi": 59,
          "name": "B3",
          "ticks": 7680,
          "time": 7.5,
          "velocity": 0.3937007874015748
        },
        {
          "duration": 0.1875,
          "durationTicks": 192,
          "midi": 40,
          "name": "E2",
          "ticks": 7680,
          "time": 7.5,
          "velocity": 0.3937007874015748
        },
        {
          "duration": 0.1875,
          "durationTicks": 192,
          "midi": 55,
          "name": "G3",
          "ticks": 7872,
          "time": 7.6875,
          "velocity": 0.3937007874015748
        },
        {
          "duration": 0.1875,
          "durationTicks": 192,
          "midi": 52,
          "name": "E3",
          "ticks": 8064,
          "time": 7.875,
          "velocity": 0.3937007874015748
        },
        {
          "duration": 0.1875,
          "durationTicks": 192,
          "midi": 58,
          "name": "A#3",
          "ticks": 8256,
          "time": 8.0625,
          "velocity": 0.3937007874015748
        },
        {
          "duration": 0.1875,
          "durationTicks": 192,
          "midi": 39,
          "name": "D#2",
          "ticks": 8256,
          "time": 8.0625,
          "velocity": 0.3937007874015748
        },
        {
          "duration": 0.1875,
          "durationTicks": 192,
          "midi": 55,
          "name": "G3",
          "ticks": 8448,
          "time": 8.25,
          "velocity": 0.3937007874015748
        },
        {
          "duration": 0.1875,
          "durationTicks": 192,
          "midi": 52,
          "name": "E3",
          "ticks": 8640,
          "time": 8.4375,
          "velocity": 0.3937007874015748
        },
        {
          "duration": 0.1875,
          "durationTicks": 192,
          "midi": 39,
          "name": "D#2",
          "ticks": 8832,
          "time": 8.625,
          "velocity": 0.3937007874015748
        },
        {
          "duration": 0.1875,
          "durationTicks": 192,
          "midi": 60,
          "name": "C4",
          "ticks": 8832,
          "time": 8.625,
          "velocity": 0.3937007874015748
        },
        {
          "duration": 0.1875,
          "durationTicks": 192,
          "midi": 58,
          "name": "A#3",
          "ticks": 9024,
          "time": 8.8125,
          "velocity": 0.3937007874015748
        },
        {
          "duration": 0.1875,
          "durationTicks": 192,
          "midi": 40,
          "name": "E2",
          "ticks": 9216,
          "time": 9,
          "velocity": 0.3937007874015748
        },
        {
          "duration": 0.1875,
          "durationTicks": 192,
          "midi": 59,
          "name": "B3",
          "ticks": 9216,
          "time": 9,
          "velocity": 0.3937007874015748
        },
        {
          "duration": 0.1875,
          "durationTicks": 192,
          "midi": 55,
          "name": "G3",
          "ticks": 9408,
          "time": 9.1875,
          "velocity": 0.3937007874015748
        },
        {
          "duration": 0.1875,
          "durationTicks": 192,
          "midi": 52,
          "name": "E3",
          "ticks": 9600,
          "time": 9.375,
          "velocity": 0.3937007874015748
        },
        {
          "duration": 0.1875,
          "durationTicks": 192,
          "midi": 39,
          "name": "D#2",
          "ticks": 9792,
          "time": 9.5625,
          "velocity": 0.3937007874015748
        },
        {
          "duration": 0.1875,
          "durationTicks": 192,
          "midi": 58,
          "name": "A#3",
          "ticks": 9792,
          "time": 9.5625,
          "velocity": 0.3937007874015748
        },
        {
          "duration": 0.1875,
          "durationTicks": 192,
          "midi": 55,
          "name": "G3",
          "ticks": 9984,
          "time": 9.75,
          "velocity": 0.3937007874015748
        },
        {
          "duration": 0.1875,
          "durationTicks": 192,
          "midi": 52,
          "name": "E3",
          "ticks": 10176,
          "time": 9.9375,
          "velocity": 0.3937007874015748
        },
        {
          "duration": 0.1875,
          "durationTicks": 192,
          "midi": 39,
          "name": "D#2",
          "ticks": 10368,
          "time": 10.125,
          "velocity": 0.3937007874015748
        },
        {
          "duration": 0.1875,
          "durationTicks": 192,
          "midi": 60,
          "name": "C4",
          "ticks": 10368,
          "time": 10.125,
          "velocity": 0.3937007874015748
        },
        {
          "duration": 0.1875,
          "durationTicks": 192,
          "midi": 58,
          "name": "A#3",
          "ticks": 10560,
          "time": 10.3125,
          "velocity": 0.3937007874015748
        },
        {
          "duration": 0.1875,
          "durationTicks": 192,
          "midi": 59,
          "name": "B3",
          "ticks": 12288,
          "time": 12,
          "velocity": 0.3937007874015748
        },
        {
          "duration": 0.1875,
          "durationTicks": 192,
          "midi": 40,
          "name": "E2",
          "ticks": 12288,
          "time": 12,
          "velocity": 0.3937007874015748
        },
        {
          "duration": 0.1875,
          "durationTicks": 192,
          "midi": 55,
          "name": "G3",
          "ticks": 12480,
          "time": 12.1875,
          "velocity": 0.3937007874015748
        },
        {
          "duration": 0.1875,
          "durationTicks": 192,
          "midi": 52,
          "name": "E3",
          "ticks": 12672,
          "time": 12.375,
          "velocity": 0.3937007874015748
        },
        {
          "duration": 0.1875,
          "durationTicks": 192,
          "midi": 39,
          "name": "D#2",
          "ticks": 12864,
          "time": 12.5625,
          "velocity": 0.3937007874015748
        },
        {
          "duration": 0.1875,
          "durationTicks": 192,
          "midi": 58,
          "name": "A#3",
          "ticks": 12864,
          "time": 12.5625,
          "velocity": 0.3937007874015748
        },
        {
          "duration": 0.1875,
          "durationTicks": 192,
          "midi": 55,
          "name": "G3",
          "ticks": 13056,
          "time": 12.75,
          "velocity": 0.3937007874015748
        },
        {
          "duration": 0.1875,
          "durationTicks": 192,
          "midi": 52,
          "name": "E3",
          "ticks": 13248,
          "time": 12.9375,
          "velocity": 0.3937007874015748
        },
        {
          "duration": 0.1875,
          "durationTicks": 192,
          "midi": 39,
          "name": "D#2",
          "ticks": 13440,
          "time": 13.125,
          "velocity": 0.3937007874015748
        },
        {
          "duration": 0.1875,
          "durationTicks": 192,
          "midi": 58,
          "name": "A#3",
          "ticks": 13440,
          "time": 13.125,
          "velocity": 0.3937007874015748
        },
        {
          "duration": 0.1875,
          "durationTicks": 192,
          "midi": 55,
          "name": "G3",
          "ticks": 13632,
          "time": 13.3125,
          "velocity": 0.3937007874015748
        },
        {
          "duration": 0.1875,
          "durationTicks": 192,
          "midi": 59,
          "name": "B3",
          "ticks": 13824,
          "time": 13.5,
          "velocity": 0.3937007874015748
        },
        {
          "duration": 0.1875,
          "durationTicks": 192,
          "midi": 40,
          "name": "E2",
          "ticks": 13824,
          "time": 13.5,
          "velocity": 0.3937007874015748
        },
        {
          "duration": 0.1875,
          "durationTicks": 192,
          "midi": 55,
          "name": "G3",
          "ticks": 14016,
          "time": 13.6875,
          "velocity": 0.3937007874015748
        },
        {
          "duration": 0.1875,
          "durationTicks": 192,
          "midi": 52,
          "name": "E3",
          "ticks": 14208,
          "time": 13.875,
          "velocity": 0.3937007874015748
        },
        {
          "duration": 0.1875,
          "durationTicks": 192,
          "midi": 58,
          "name": "A#3",
          "ticks": 14400,
          "time": 14.0625,
          "velocity": 0.3937007874015748
        },
        {
          "duration": 0.1875,
          "durationTicks": 192,
          "midi": 39,
          "name": "D#2",
          "ticks": 14400,
          "time": 14.0625,
          "velocity": 0.3937007874015748
        },
        {
          "duration": 0.1875,
          "durationTicks": 192,
          "midi": 55,
          "name": "G3",
          "ticks": 14592,
          "time": 14.25,
          "velocity": 0.3937007874015748
        },
        {
          "duration": 0.1875,
          "durationTicks": 192,
          "midi": 52,
          "name": "E3",
          "ticks": 14784,
          "time": 14.4375,
          "velocity": 0.3937007874015748
        },
        {
          "duration": 0.1875,
          "durationTicks": 192,
          "midi": 60,
          "name": "C4",
          "ticks": 14976,
          "time": 14.625,
          "velocity": 0.3937007874015748
        },
        {
          "duration": 0.1875,
          "durationTicks": 192,
          "midi": 39,
          "name": "D#2",
          "ticks": 14976,
          "time": 14.625,
          "velocity": 0.3937007874015748
        },
        {
          "duration": 0.1875,
          "durationTicks": 192,
          "midi": 58,
          "name": "A#3",
          "ticks": 15168,
          "time": 14.8125,
          "velocity": 0.3937007874015748
        },
        {
          "duration": 0.1875,
          "durationTicks": 192,
          "midi": 59,
          "name": "B3",
          "ticks": 15360,
          "time": 15,
          "velocity": 0.3937007874015748
        },
        {
          "duration": 0.1875,
          "durationTicks": 192,
          "midi": 40,
          "name": "E2",
          "ticks": 15360,
          "time": 15,
          "velocity": 0.3937007874015748
        },
        {
          "duration": 0.1875,
          "durationTicks": 192,
          "midi": 55,
          "name": "G3",
          "ticks": 15552,
          "time": 15.1875,
          "velocity": 0.3937007874015748
        },
        {
          "duration": 0.1875,
          "durationTicks": 192,
          "midi": 52,
          "name": "E3",
          "ticks": 15744,
          "time": 15.375,
          "velocity": 0.3937007874015748
        },
        {
          "duration": 0.1875,
          "durationTicks": 192,
          "midi": 39,
          "name": "D#2",
          "ticks": 15936,
          "time": 15.5625,
          "velocity": 0.3937007874015748
        },
        {
          "duration": 0.1875,
          "durationTicks": 192,
          "midi": 58,
          "name": "A#3",
          "ticks": 15936,
          "time": 15.5625,
          "velocity": 0.3937007874015748
        },
        {
          "duration": 0.1875,
          "durationTicks": 192,
          "midi": 55,
          "name": "G3",
          "ticks": 16128,
          "time": 15.75,
          "velocity": 0.3937007874015748
        },
        {
          "duration": 0.1875,
          "durationTicks": 192,
          "midi": 52,
          "name": "E3",
          "ticks": 16320,
          "time": 15.9375,
          "velocity": 0.3937007874015748
        },
        {
          "duration": 0.1875,
          "durationTicks": 192,
          "midi": 58,
          "name": "A#3",
          "ticks": 16512,
          "time": 16.125,
          "velocity": 0.3937007874015748
        },
        {
          "duration": 0.1875,
          "durationTicks": 192,
          "midi": 39,
          "name": "D#2",
          "ticks": 16512,
          "time": 16.125,
          "velocity": 0.3937007874015748
        },
        {
          "duration": 0.1875,
          "durationTicks": 192,
          "midi": 55,
          "name": "G3",
          "ticks": 16704,
          "time": 16.3125,
          "velocity": 0.3937007874015748
        },
        {
          "duration": 0.1875,
          "durationTicks": 192,
          "midi": 40,
          "name": "E2",
          "ticks": 16896,
          "time": 16.5,
          "velocity": 0.3937007874015748
        },
        {
          "duration": 0.1875,
          "durationTicks": 192,
          "midi": 59,
          "name": "B3",
          "ticks": 16896,
          "time": 16.5,
          "velocity": 0.3937007874015748
        },
        {
          "duration": 0.1875,
          "durationTicks": 192,
          "midi": 55,
          "name": "G3",
          "ticks": 17088,
          "time": 16.6875,
          "velocity": 0.3937007874015748
        },
        {
          "duration": 0.1875,
          "durationTicks": 192,
          "midi": 52,
          "name": "E3",
          "ticks": 17280,
          "time": 16.875,
          "velocity": 0.3937007874015748
        },
        {
          "duration": 0.1875,
          "durationTicks": 192,
          "midi": 40,
          "name": "E2",
          "ticks": 17472,
          "time": 17.0625,
          "velocity": 0.3937007874015748
        },
        {
          "duration": 0.9375,
          "durationTicks": 960,
          "midi": 48,
          "name": "C3",
          "ticks": 17472,
          "time": 17.0625,
          "velocity": 0.3937007874015748
        },
        {
          "duration": 0.1875,
          "durationTicks": 192,
          "midi": 40,
          "name": "E2",
          "ticks": 18048,
          "time": 17.625,
          "velocity": 0.3937007874015748
        },
        {
          "duration": 0.1875,
          "durationTicks": 192,
          "midi": 59,
          "name": "B3",
          "ticks": 18432,
          "time": 18,
          "velocity": 0.3937007874015748
        },
        {
          "duration": 0.1875,
          "durationTicks": 192,
          "midi": 40,
          "name": "E2",
          "ticks": 18432,
          "time": 18,
          "velocity": 0.3937007874015748
        },
        {
          "duration": 0.1875,
          "durationTicks": 192,
          "midi": 55,
          "name": "G3",
          "ticks": 18624,
          "time": 18.1875,
          "velocity": 0.3937007874015748
        },
        {
          "duration": 0.1875,
          "durationTicks": 192,
          "midi": 52,
          "name": "E3",
          "ticks": 18816,
          "time": 18.375,
          "velocity": 0.3937007874015748
        },
        {
          "duration": 0.1875,
          "durationTicks": 192,
          "midi": 39,
          "name": "D#2",
          "ticks": 19008,
          "time": 18.5625,
          "velocity": 0.3937007874015748
        },
        {
          "duration": 0.1875,
          "durationTicks": 192,
          "midi": 58,
          "name": "A#3",
          "ticks": 19008,
          "time": 18.5625,
          "velocity": 0.3937007874015748
        },
        {
          "duration": 0.1875,
          "durationTicks": 192,
          "midi": 55,
          "name": "G3",
          "ticks": 19200,
          "time": 18.75,
          "velocity": 0.3937007874015748
        },
        {
          "duration": 0.1875,
          "durationTicks": 192,
          "midi": 52,
          "name": "E3",
          "ticks": 19392,
          "time": 18.9375,
          "velocity": 0.3937007874015748
        },
        {
          "duration": 0.1875,
          "durationTicks": 192,
          "midi": 58,
          "name": "A#3",
          "ticks": 19584,
          "time": 19.125,
          "velocity": 0.3937007874015748
        },
        {
          "duration": 0.1875,
          "durationTicks": 192,
          "midi": 39,
          "name": "D#2",
          "ticks": 19584,
          "time": 19.125,
          "velocity": 0.3937007874015748
        },
        {
          "duration": 0.1875,
          "durationTicks": 192,
          "midi": 55,
          "name": "G3",
          "ticks": 19776,
          "time": 19.3125,
          "velocity": 0.3937007874015748
        },
        {
          "duration": 0.1875,
          "durationTicks": 192,
          "midi": 59,
          "name": "B3",
          "ticks": 19968,
          "time": 19.5,
          "velocity": 0.3937007874015748
        },
        {
          "duration": 0.1875,
          "durationTicks": 192,
          "midi": 40,
          "name": "E2",
          "ticks": 19968,
          "time": 19.5,
          "velocity": 0.3937007874015748
        },
        {
          "duration": 0.1875,
          "durationTicks": 192,
          "midi": 55,
          "name": "G3",
          "ticks": 20160,
          "time": 19.6875,
          "velocity": 0.3937007874015748
        },
        {
          "duration": 0.1875,
          "durationTicks": 192,
          "midi": 52,
          "name": "E3",
          "ticks": 20352,
          "time": 19.875,
          "velocity": 0.3937007874015748
        },
        {
          "duration": 0.1875,
          "durationTicks": 192,
          "midi": 58,
          "name": "A#3",
          "ticks": 20544,
          "time": 20.0625,
          "velocity": 0.3937007874015748
        },
        {
          "duration": 0.1875,
          "durationTicks": 192,
          "midi": 39,
          "name": "D#2",
          "ticks": 20544,
          "time": 20.0625,
          "velocity": 0.3937007874015748
        },
        {
          "duration": 0.1875,
          "durationTicks": 192,
          "midi": 55,
          "name": "G3",
          "ticks": 20736,
          "time": 20.25,
          "velocity": 0.3937007874015748
        },
        {
          "duration": 0.1875,
          "durationTicks": 192,
          "midi": 52,
          "name": "E3",
          "ticks": 20928,
          "time": 20.4375,
          "velocity": 0.3937007874015748
        },
        {
          "duration": 0.1875,
          "durationTicks": 192,
          "midi": 39,
          "name": "D#2",
          "ticks": 21120,
          "time": 20.625,
          "velocity": 0.3937007874015748
        },
        {
          "duration": 0.1875,
          "durationTicks": 192,
          "midi": 60,
          "name": "C4",
          "ticks": 21120,
          "time": 20.625,
          "velocity": 0.3937007874015748
        },
        {
          "duration": 0.1875,
          "durationTicks": 192,
          "midi": 58,
          "name": "A#3",
          "ticks": 21312,
          "time": 20.8125,
          "velocity": 0.3937007874015748
        },
        {
          "duration": 0.1875,
          "durationTicks": 192,
          "midi": 59,
          "name": "B3",
          "ticks": 21504,
          "time": 21,
          "velocity": 0.3937007874015748
        },
        {
          "duration": 0.1875,
          "durationTicks": 192,
          "midi": 40,
          "name": "E2",
          "ticks": 21504,
          "time": 21,
          "velocity": 0.3937007874015748
        },
        {
          "duration": 0.1875,
          "durationTicks": 192,
          "midi": 55,
          "name": "G3",
          "ticks": 21696,
          "time": 21.1875,
          "velocity": 0.3937007874015748
        },
        {
          "duration": 0.1875,
          "durationTicks": 192,
          "midi": 52,
          "name": "E3",
          "ticks": 21888,
          "time": 21.375,
          "velocity": 0.3937007874015748
        },
        {
          "duration": 0.1875,
          "durationTicks": 192,
          "midi": 39,
          "name": "D#2",
          "ticks": 22080,
          "time": 21.5625,
          "velocity": 0.3937007874015748
        },
        {
          "duration": 0.1875,
          "durationTicks": 192,
          "midi": 58,
          "name": "A#3",
          "ticks": 22080,
          "time": 21.5625,
          "velocity": 0.3937007874015748
        },
        {
          "duration": 0.1875,
          "durationTicks": 192,
          "midi": 55,
          "name": "G3",
          "ticks": 22272,
          "time": 21.75,
          "velocity": 0.3937007874015748
        },
        {
          "duration": 0.1875,
          "durationTicks": 192,
          "midi": 52,
          "name": "E3",
          "ticks": 22464,
          "time": 21.9375,
          "velocity": 0.3937007874015748
        },
        {
          "duration": 0.1875,
          "durationTicks": 192,
          "midi": 39,
          "name": "D#2",
          "ticks": 22656,
          "time": 22.125,
          "velocity": 0.3937007874015748
        },
        {
          "duration": 0.1875,
          "durationTicks": 192,
          "midi": 60,
          "name": "C4",
          "ticks": 22656,
          "time": 22.125,
          "velocity": 0.3937007874015748
        },
        {
          "duration": 0.1875,
          "durationTicks": 192,
          "midi": 58,
          "name": "A#3",
          "ticks": 22848,
          "time": 22.3125,
          "velocity": 0.3937007874015748
        },
        {
          "duration": 0.9375,
          "durationTicks": 960,
          "midi": 47,
          "name": "B2",
          "ticks": 23040,
          "time": 22.5,
          "velocity": 0.3937007874015748
        },
        {
          "duration": 0.9375,
          "durationTicks": 960,
          "midi": 47,
          "name": "B2",
          "ticks": 23040,
          "time": 22.5,
          "velocity": 0.3937007874015748
        },
        {
          "duration": 0.1875,
          "durationTicks": 192,
          "midi": 52,
          "name": "E3",
          "ticks": 30720,
          "time": 30,
          "velocity": 0.3937007874015748
        },
        {
          "duration": 0.1875,
          "durationTicks": 192,
          "midi": 55,
          "name": "G3",
          "ticks": 30912,
          "time": 30.1875,
          "velocity": 0.3937007874015748
        },
        {
          "duration": 0.1875,
          "durationTicks": 192,
          "midi": 59,
          "name": "B3",
          "ticks": 31104,
          "time": 30.375,
          "velocity": 0.3937007874015748
        },
        {
          "duration": 0.1875,
          "durationTicks": 192,
          "midi": 64,
          "name": "E4",
          "ticks": 31296,
          "time": 30.5625,
          "velocity": 0.3937007874015748
        },
        {
          "duration": 0.1875,
          "durationTicks": 192,
          "midi": 63,
          "name": "D#4",
          "ticks": 31488,
          "time": 30.75,
          "velocity": 0.3937007874015748
        },
        {
          "duration": 0.1875,
          "durationTicks": 192,
          "midi": 59,
          "name": "B3",
          "ticks": 31776,
          "time": 31.03125,
          "velocity": 0.3937007874015748
        },
        {
          "duration": 0.1875,
          "durationTicks": 192,
          "midi": 63,
          "name": "D#4",
          "ticks": 32064,
          "time": 31.3125,
          "velocity": 0.3937007874015748
        },
        {
          "duration": 0.1875,
          "durationTicks": 192,
          "midi": 62,
          "name": "D4",
          "ticks": 32256,
          "time": 31.5,
          "velocity": 0.3937007874015748
        },
        {
          "duration": 0.1875,
          "durationTicks": 192,
          "midi": 59,
          "name": "B3",
          "ticks": 32544,
          "time": 31.78125,
          "velocity": 0.3937007874015748
        },
        {
          "duration": 0.1875,
          "durationTicks": 192,
          "midi": 62,
          "name": "D4",
          "ticks": 32832,
          "time": 32.0625,
          "velocity": 0.3937007874015748
        },
        {
          "duration": 0.1875,
          "durationTicks": 192,
          "midi": 61,
          "name": "C#4",
          "ticks": 33024,
          "time": 32.25,
          "velocity": 0.3937007874015748
        },
        {
          "duration": 0.1875,
          "durationTicks": 192,
          "midi": 58,
          "name": "A#3",
          "ticks": 33312,
          "time": 32.53125,
          "velocity": 0.3937007874015748
        },
        {
          "duration": 0.1875,
          "durationTicks": 192,
          "midi": 55,
          "name": "G3",
          "ticks": 33600,
          "time": 32.8125,
          "velocity": 0.3937007874015748
        },
        {
          "duration": 0.1875,
          "durationTicks": 192,
          "midi": 52,
          "name": "E3",
          "ticks": 36864,
          "time": 36,
          "velocity": 0.3937007874015748
        },
        {
          "duration": 0.1875,
          "durationTicks": 192,
          "midi": 55,
          "name": "G3",
          "ticks": 37056,
          "time": 36.1875,
          "velocity": 0.3937007874015748
        },
        {
          "duration": 0.1875,
          "durationTicks": 192,
          "midi": 59,
          "name": "B3",
          "ticks": 37248,
          "time": 36.375,
          "velocity": 0.3937007874015748
        },
        {
          "duration": 0.1875,
          "durationTicks": 192,
          "midi": 64,
          "name": "E4",
          "ticks": 37440,
          "time": 36.5625,
          "velocity": 0.3937007874015748
        },
        {
          "duration": 0.1875,
          "durationTicks": 192,
          "midi": 63,
          "name": "D#4",
          "ticks": 37632,
          "time": 36.75,
          "velocity": 0.3937007874015748
        },
        {
          "duration": 0.1875,
          "durationTicks": 192,
          "midi": 59,
          "name": "B3",
          "ticks": 37920,
          "time": 37.03125,
          "velocity": 0.3937007874015748
        },
        {
          "duration": 0.1875,
          "durationTicks": 192,
          "midi": 63,
          "name": "D#4",
          "ticks": 38208,
          "time": 37.3125,
          "velocity": 0.3937007874015748
        },
        {
          "duration": 0.1875,
          "durationTicks": 192,
          "midi": 62,
          "name": "D4",
          "ticks": 38400,
          "time": 37.5,
          "velocity": 0.3937007874015748
        },
        {
          "duration": 0.1875,
          "durationTicks": 192,
          "midi": 59,
          "name": "B3",
          "ticks": 38688,
          "time": 37.78125,
          "velocity": 0.3937007874015748
        },
        {
          "duration": 0.1875,
          "durationTicks": 192,
          "midi": 62,
          "name": "D4",
          "ticks": 38976,
          "time": 38.0625,
          "velocity": 0.3937007874015748
        },
        {
          "duration": 0.1875,
          "durationTicks": 192,
          "midi": 61,
          "name": "C#4",
          "ticks": 39168,
          "time": 38.25,
          "velocity": 0.3937007874015748
        },
        {
          "duration": 0.1875,
          "durationTicks": 192,
          "midi": 58,
          "name": "A#3",
          "ticks": 39456,
          "time": 38.53125,
          "velocity": 0.3937007874015748
        },
        {
          "duration": 0.1875,
          "durationTicks": 192,
          "midi": 55,
          "name": "G3",
          "ticks": 39744,
          "time": 38.8125,
          "velocity": 0.3937007874015748
        },
        {
          "duration": 0.1875,
          "durationTicks": 192,
          "midi": 52,
          "name": "E3",
          "ticks": 43008,
          "time": 42,
          "velocity": 0.3937007874015748
        },
        {
          "duration": 0.1875,
          "durationTicks": 192,
          "midi": 55,
          "name": "G3",
          "ticks": 43200,
          "time": 42.1875,
          "velocity": 0.3937007874015748
        },
        {
          "duration": 0.1875,
          "durationTicks": 192,
          "midi": 59,
          "name": "B3",
          "ticks": 43392,
          "time": 42.375,
          "velocity": 0.3937007874015748
        },
        {
          "duration": 0.1875,
          "durationTicks": 192,
          "midi": 64,
          "name": "E4",
          "ticks": 43584,
          "time": 42.5625,
          "velocity": 0.3937007874015748
        },
        {
          "duration": 0.1875,
          "durationTicks": 192,
          "midi": 63,
          "name": "D#4",
          "ticks": 43776,
          "time": 42.75,
          "velocity": 0.3937007874015748
        },
        {
          "duration": 0.1875,
          "durationTicks": 192,
          "midi": 59,
          "name": "B3",
          "ticks": 44064,
          "time": 43.03125,
          "velocity": 0.3937007874015748
        },
        {
          "duration": 0.1875,
          "durationTicks": 192,
          "midi": 63,
          "name": "D#4",
          "ticks": 44352,
          "time": 43.3125,
          "velocity": 0.3937007874015748
        },
        {
          "duration": 0.1875,
          "durationTicks": 192,
          "midi": 62,
          "name": "D4",
          "ticks": 44544,
          "time": 43.5,
          "velocity": 0.3937007874015748
        },
        {
          "duration": 0.1875,
          "durationTicks": 192,
          "midi": 59,
          "name": "B3",
          "ticks": 44832,
          "time": 43.78125,
          "velocity": 0.3937007874015748
        },
        {
          "duration": 0.1875,
          "durationTicks": 192,
          "midi": 62,
          "name": "D4",
          "ticks": 45120,
          "time": 44.0625,
          "velocity": 0.3937007874015748
        },
        {
          "duration": 0.1875,
          "durationTicks": 192,
          "midi": 61,
          "name": "C#4",
          "ticks": 45312,
          "time": 44.25,
          "velocity": 0.3937007874015748
        },
        {
          "duration": 0.1875,
          "durationTicks": 192,
          "midi": 58,
          "name": "A#3",
          "ticks": 45600,
          "time": 44.53125,
          "velocity": 0.3937007874015748
        },
        {
          "duration": 0.1875,
          "durationTicks": 192,
          "midi": 55,
          "name": "G3",
          "ticks": 45888,
          "time": 44.8125,
          "velocity": 0.3937007874015748
        },
        {
          "duration": 0.1875,
          "durationTicks": 192,
          "midi": 52,
          "name": "E3",
          "ticks": 49152,
          "time": 48,
          "velocity": 0.3937007874015748
        },
        {
          "duration": 0.1875,
          "durationTicks": 192,
          "midi": 55,
          "name": "G3",
          "ticks": 49344,
          "time": 48.1875,
          "velocity": 0.3937007874015748
        },
        {
          "duration": 0.1875,
          "durationTicks": 192,
          "midi": 59,
          "name": "B3",
          "ticks": 49536,
          "time": 48.375,
          "velocity": 0.3937007874015748
        },
        {
          "duration": 0.1875,
          "durationTicks": 192,
          "midi": 64,
          "name": "E4",
          "ticks": 49728,
          "time": 48.5625,
          "velocity": 0.3937007874015748
        },
        {
          "duration": 0.1875,
          "durationTicks": 192,
          "midi": 63,
          "name": "D#4",
          "ticks": 49920,
          "time": 48.75,
          "velocity": 0.3937007874015748
        },
        {
          "duration": 0.1875,
          "durationTicks": 192,
          "midi": 59,
          "name": "B3",
          "ticks": 50208,
          "time": 49.03125,
          "velocity": 0.3937007874015748
        },
        {
          "duration": 0.1875,
          "durationTicks": 192,
          "midi": 63,
          "name": "D#4",
          "ticks": 50496,
          "time": 49.3125,
          "velocity": 0.3937007874015748
        },
        {
          "duration": 0.1875,
          "durationTicks": 192,
          "midi": 62,
          "name": "D4",
          "ticks": 50688,
          "time": 49.5,
          "velocity": 0.3937007874015748
        },
        {
          "duration": 0.1875,
          "durationTicks": 192,
          "midi": 59,
          "name": "B3",
          "ticks": 50976,
          "time": 49.78125,
          "velocity": 0.3937007874015748
        },
        {
          "duration": 0.1875,
          "durationTicks": 192,
          "midi": 62,
          "name": "D4",
          "ticks": 51264,
          "time": 50.0625,
          "velocity": 0.3937007874015748
        },
        {
          "duration": 0.1875,
          "durationTicks": 192,
          "midi": 61,
          "name": "C#4",
          "ticks": 51456,
          "time": 50.25,
          "velocity": 0.3937007874015748
        },
        {
          "duration": 0.1875,
          "durationTicks": 192,
          "midi": 58,
          "name": "A#3",
          "ticks": 51744,
          "time": 50.53125,
          "velocity": 0.3937007874015748
        },
        {
          "duration": 0.1875,
          "durationTicks": 192,
          "midi": 55,
          "name": "G3",
          "ticks": 52032,
          "time": 50.8125,
          "velocity": 0.3937007874015748
        },
        {
          "duration": 0.1875,
          "durationTicks": 192,
          "midi": 40,
          "name": "E2",
          "ticks": 96768,
          "time": 94.5,
          "velocity": 0.3937007874015748
        },
        {
          "duration": 0.1875,
          "durationTicks": 192,
          "midi": 59,
          "name": "B3",
          "ticks": 96768,
          "time": 94.5,
          "velocity": 0.3937007874015748
        },
        {
          "duration": 0.1875,
          "durationTicks": 192,
          "midi": 55,
          "name": "G3",
          "ticks": 96960,
          "time": 94.6875,
          "velocity": 0.3937007874015748
        },
        {
          "duration": 0.1875,
          "durationTicks": 192,
          "midi": 52,
          "name": "E3",
          "ticks": 97152,
          "time": 94.875,
          "velocity": 0.3937007874015748
        },
        {
          "duration": 0.1875,
          "durationTicks": 192,
          "midi": 39,
          "name": "D#2",
          "ticks": 97344,
          "time": 95.0625,
          "velocity": 0.3937007874015748
        },
        {
          "duration": 0.1875,
          "durationTicks": 192,
          "midi": 58,
          "name": "A#3",
          "ticks": 97344,
          "time": 95.0625,
          "velocity": 0.3937007874015748
        },
        {
          "duration": 0.1875,
          "durationTicks": 192,
          "midi": 55,
          "name": "G3",
          "ticks": 97536,
          "time": 95.25,
          "velocity": 0.3937007874015748
        },
        {
          "duration": 0.1875,
          "durationTicks": 192,
          "midi": 52,
          "name": "E3",
          "ticks": 97728,
          "time": 95.4375,
          "velocity": 0.3937007874015748
        },
        {
          "duration": 0.1875,
          "durationTicks": 192,
          "midi": 58,
          "name": "A#3",
          "ticks": 97920,
          "time": 95.625,
          "velocity": 0.3937007874015748
        },
        {
          "duration": 0.1875,
          "durationTicks": 192,
          "midi": 39,
          "name": "D#2",
          "ticks": 97920,
          "time": 95.625,
          "velocity": 0.3937007874015748
        },
        {
          "duration": 0.1875,
          "durationTicks": 192,
          "midi": 55,
          "name": "G3",
          "ticks": 98112,
          "time": 95.8125,
          "velocity": 0.3937007874015748
        },
        {
          "duration": 0.1875,
          "durationTicks": 192,
          "midi": 59,
          "name": "B3",
          "ticks": 98304,
          "time": 96,
          "velocity": 0.3937007874015748
        },
        {
          "duration": 0.1875,
          "durationTicks": 192,
          "midi": 40,
          "name": "E2",
          "ticks": 98304,
          "time": 96,
          "velocity": 0.3937007874015748
        },
        {
          "duration": 0.1875,
          "durationTicks": 192,
          "midi": 55,
          "name": "G3",
          "ticks": 98496,
          "time": 96.1875,
          "velocity": 0.3937007874015748
        },
        {
          "duration": 0.1875,
          "durationTicks": 192,
          "midi": 52,
          "name": "E3",
          "ticks": 98688,
          "time": 96.375,
          "velocity": 0.3937007874015748
        },
        {
          "duration": 0.1875,
          "durationTicks": 192,
          "midi": 39,
          "name": "D#2",
          "ticks": 98880,
          "time": 96.5625,
          "velocity": 0.3937007874015748
        },
        {
          "duration": 0.1875,
          "durationTicks": 192,
          "midi": 58,
          "name": "A#3",
          "ticks": 98880,
          "time": 96.5625,
          "velocity": 0.3937007874015748
        },
        {
          "duration": 0.1875,
          "durationTicks": 192,
          "midi": 55,
          "name": "G3",
          "ticks": 99072,
          "time": 96.75,
          "velocity": 0.3937007874015748
        },
        {
          "duration": 0.1875,
          "durationTicks": 192,
          "midi": 52,
          "name": "E3",
          "ticks": 99264,
          "time": 96.9375,
          "velocity": 0.3937007874015748
        },
        {
          "duration": 0.1875,
          "durationTicks": 192,
          "midi": 60,
          "name": "C4",
          "ticks": 99456,
          "time": 97.125,
          "velocity": 0.3937007874015748
        },
        {
          "duration": 0.1875,
          "durationTicks": 192,
          "midi": 39,
          "name": "D#2",
          "ticks": 99456,
          "time": 97.125,
          "velocity": 0.3937007874015748
        },
        {
          "duration": 0.1875,
          "durationTicks": 192,
          "midi": 58,
          "name": "A#3",
          "ticks": 99648,
          "time": 97.3125,
          "velocity": 0.3937007874015748
        },
        {
          "duration": 0.1875,
          "durationTicks": 192,
          "midi": 59,
          "name": "B3",
          "ticks": 99840,
          "time": 97.5,
          "velocity": 0.3937007874015748
        },
        {
          "duration": 0.1875,
          "durationTicks": 192,
          "midi": 40,
          "name": "E2",
          "ticks": 99840,
          "time": 97.5,
          "velocity": 0.3937007874015748
        },
        {
          "duration": 0.1875,
          "durationTicks": 192,
          "midi": 55,
          "name": "G3",
          "ticks": 100032,
          "time": 97.6875,
          "velocity": 0.3937007874015748
        },
        {
          "duration": 0.1875,
          "durationTicks": 192,
          "midi": 52,
          "name": "E3",
          "ticks": 100224,
          "time": 97.875,
          "velocity": 0.3937007874015748
        },
        {
          "duration": 0.1875,
          "durationTicks": 192,
          "midi": 39,
          "name": "D#2",
          "ticks": 100416,
          "time": 98.0625,
          "velocity": 0.3937007874015748
        },
        {
          "duration": 0.1875,
          "durationTicks": 192,
          "midi": 58,
          "name": "A#3",
          "ticks": 100416,
          "time": 98.0625,
          "velocity": 0.3937007874015748
        },
        {
          "duration": 0.1875,
          "durationTicks": 192,
          "midi": 55,
          "name": "G3",
          "ticks": 100608,
          "time": 98.25,
          "velocity": 0.3937007874015748
        },
        {
          "duration": 0.1875,
          "durationTicks": 192,
          "midi": 52,
          "name": "E3",
          "ticks": 100800,
          "time": 98.4375,
          "velocity": 0.3937007874015748
        },
        {
          "duration": 0.1875,
          "durationTicks": 192,
          "midi": 39,
          "name": "D#2",
          "ticks": 100992,
          "time": 98.625,
          "velocity": 0.3937007874015748
        },
        {
          "duration": 0.1875,
          "durationTicks": 192,
          "midi": 58,
          "name": "A#3",
          "ticks": 100992,
          "time": 98.625,
          "velocity": 0.3937007874015748
        },
        {
          "duration": 0.1875,
          "durationTicks": 192,
          "midi": 55,
          "name": "G3",
          "ticks": 101184,
          "time": 98.8125,
          "velocity": 0.3937007874015748
        },
        {
          "duration": 0.1875,
          "durationTicks": 192,
          "midi": 40,
          "name": "E2",
          "ticks": 101376,
          "time": 99,
          "velocity": 0.3937007874015748
        },
        {
          "duration": 0.1875,
          "durationTicks": 192,
          "midi": 59,
          "name": "B3",
          "ticks": 101376,
          "time": 99,
          "velocity": 0.3937007874015748
        },
        {
          "duration": 0.1875,
          "durationTicks": 192,
          "midi": 55,
          "name": "G3",
          "ticks": 101568,
          "time": 99.1875,
          "velocity": 0.3937007874015748
        },
        {
          "duration": 0.1875,
          "durationTicks": 192,
          "midi": 52,
          "name": "E3",
          "ticks": 101760,
          "time": 99.375,
          "velocity": 0.3937007874015748
        },
        {
          "duration": 0.1875,
          "durationTicks": 192,
          "midi": 40,
          "name": "E2",
          "ticks": 101952,
          "time": 99.5625,
          "velocity": 0.3937007874015748
        },
        {
          "duration": 0.9375,
          "durationTicks": 960,
          "midi": 48,
          "name": "C3",
          "ticks": 101952,
          "time": 99.5625,
          "velocity": 0.3937007874015748
        },
        {
          "duration": 0.1875,
          "durationTicks": 192,
          "midi": 40,
          "name": "E2",
          "ticks": 102528,
          "time": 100.125,
          "velocity": 0.3937007874015748
        },
        {
          "duration": 0.1875,
          "durationTicks": 192,
          "midi": 40,
          "name": "E2",
          "ticks": 102912,
          "time": 100.5,
          "velocity": 0.3937007874015748
        },
        {
          "duration": 0.1875,
          "durationTicks": 192,
          "midi": 59,
          "name": "B3",
          "ticks": 102912,
          "time": 100.5,
          "velocity": 0.3937007874015748
        },
        {
          "duration": 0.1875,
          "durationTicks": 192,
          "midi": 55,
          "name": "G3",
          "ticks": 103104,
          "time": 100.6875,
          "velocity": 0.3937007874015748
        },
        {
          "duration": 0.1875,
          "durationTicks": 192,
          "midi": 52,
          "name": "E3",
          "ticks": 103296,
          "time": 100.875,
          "velocity": 0.3937007874015748
        },
        {
          "duration": 0.1875,
          "durationTicks": 192,
          "midi": 39,
          "name": "D#2",
          "ticks": 103488,
          "time": 101.0625,
          "velocity": 0.3937007874015748
        },
        {
          "duration": 0.1875,
          "durationTicks": 192,
          "midi": 58,
          "name": "A#3",
          "ticks": 103488,
          "time": 101.0625,
          "velocity": 0.3937007874015748
        },
        {
          "duration": 0.1875,
          "durationTicks": 192,
          "midi": 55,
          "name": "G3",
          "ticks": 103680,
          "time": 101.25,
          "velocity": 0.3937007874015748
        },
        {
          "duration": 0.1875,
          "durationTicks": 192,
          "midi": 52,
          "name": "E3",
          "ticks": 103872,
          "time": 101.4375,
          "velocity": 0.3937007874015748
        },
        {
          "duration": 0.1875,
          "durationTicks": 192,
          "midi": 39,
          "name": "D#2",
          "ticks": 104064,
          "time": 101.625,
          "velocity": 0.3937007874015748
        },
        {
          "duration": 0.1875,
          "durationTicks": 192,
          "midi": 58,
          "name": "A#3",
          "ticks": 104064,
          "time": 101.625,
          "velocity": 0.3937007874015748
        },
        {
          "duration": 0.1875,
          "durationTicks": 192,
          "midi": 55,
          "name": "G3",
          "ticks": 104256,
          "time": 101.8125,
          "velocity": 0.3937007874015748
        },
        {
          "duration": 0.1875,
          "durationTicks": 192,
          "midi": 59,
          "name": "B3",
          "ticks": 104448,
          "time": 102,
          "velocity": 0.3937007874015748
        },
        {
          "duration": 0.1875,
          "durationTicks": 192,
          "midi": 40,
          "name": "E2",
          "ticks": 104448,
          "time": 102,
          "velocity": 0.3937007874015748
        },
        {
          "duration": 0.1875,
          "durationTicks": 192,
          "midi": 55,
          "name": "G3",
          "ticks": 104640,
          "time": 102.1875,
          "velocity": 0.3937007874015748
        },
        {
          "duration": 0.1875,
          "durationTicks": 192,
          "midi": 52,
          "name": "E3",
          "ticks": 104832,
          "time": 102.375,
          "velocity": 0.3937007874015748
        },
        {
          "duration": 0.1875,
          "durationTicks": 192,
          "midi": 39,
          "name": "D#2",
          "ticks": 105024,
          "time": 102.5625,
          "velocity": 0.3937007874015748
        },
        {
          "duration": 0.1875,
          "durationTicks": 192,
          "midi": 58,
          "name": "A#3",
          "ticks": 105024,
          "time": 102.5625,
          "velocity": 0.3937007874015748
        },
        {
          "duration": 0.1875,
          "durationTicks": 192,
          "midi": 55,
          "name": "G3",
          "ticks": 105216,
          "time": 102.75,
          "velocity": 0.3937007874015748
        },
        {
          "duration": 0.1875,
          "durationTicks": 192,
          "midi": 52,
          "name": "E3",
          "ticks": 105408,
          "time": 102.9375,
          "velocity": 0.3937007874015748
        },
        {
          "duration": 0.1875,
          "durationTicks": 192,
          "midi": 60,
          "name": "C4",
          "ticks": 105600,
          "time": 103.125,
          "velocity": 0.3937007874015748
        },
        {
          "duration": 0.1875,
          "durationTicks": 192,
          "midi": 39,
          "name": "D#2",
          "ticks": 105600,
          "time": 103.125,
          "velocity": 0.3937007874015748
        },
        {
          "duration": 0.1875,
          "durationTicks": 192,
          "midi": 58,
          "name": "A#3",
          "ticks": 105792,
          "time": 103.3125,
          "velocity": 0.3937007874015748
        },
        {
          "duration": 0.1875,
          "durationTicks": 192,
          "midi": 59,
          "name": "B3",
          "ticks": 105984,
          "time": 103.5,
          "velocity": 0.3937007874015748
        },
        {
          "duration": 0.1875,
          "durationTicks": 192,
          "midi": 40,
          "name": "E2",
          "ticks": 105984,
          "time": 103.5,
          "velocity": 0.3937007874015748
        },
        {
          "duration": 0.1875,
          "durationTicks": 192,
          "midi": 55,
          "name": "G3",
          "ticks": 106176,
          "time": 103.6875,
          "velocity": 0.3937007874015748
        },
        {
          "duration": 0.1875,
          "durationTicks": 192,
          "midi": 52,
          "name": "E3",
          "ticks": 106368,
          "time": 103.875,
          "velocity": 0.3937007874015748
        },
        {
          "duration": 0.1875,
          "durationTicks": 192,
          "midi": 39,
          "name": "D#2",
          "ticks": 106560,
          "time": 104.0625,
          "velocity": 0.3937007874015748
        },
        {
          "duration": 0.1875,
          "durationTicks": 192,
          "midi": 58,
          "name": "A#3",
          "ticks": 106560,
          "time": 104.0625,
          "velocity": 0.3937007874015748
        },
        {
          "duration": 0.1875,
          "durationTicks": 192,
          "midi": 55,
          "name": "G3",
          "ticks": 106752,
          "time": 104.25,
          "velocity": 0.3937007874015748
        },
        {
          "duration": 0.1875,
          "durationTicks": 192,
          "midi": 52,
          "name": "E3",
          "ticks": 106944,
          "time": 104.4375,
          "velocity": 0.3937007874015748
        },
        {
          "duration": 0.1875,
          "durationTicks": 192,
          "midi": 60,
          "name": "C4",
          "ticks": 107136,
          "time": 104.625,
          "velocity": 0.3937007874015748
        },
        {
          "duration": 0.1875,
          "durationTicks": 192,
          "midi": 39,
          "name": "D#2",
          "ticks": 107136,
          "time": 104.625,
          "velocity": 0.3937007874015748
        },
        {
          "duration": 0.1875,
          "durationTicks": 192,
          "midi": 58,
          "name": "A#3",
          "ticks": 107328,
          "time": 104.8125,
          "velocity": 0.3937007874015748
        },
        {
          "duration": 0.9375,
          "durationTicks": 960,
          "midi": 47,
          "name": "B2",
          "ticks": 107520,
          "time": 105,
          "velocity": 0.3937007874015748
        },
        {
          "duration": 0.9375,
          "durationTicks": 960,
          "midi": 47,
          "name": "B2",
          "ticks": 107520,
          "time": 105,
          "velocity": 0.3937007874015748
        },
        {
          "duration": 0.1875,
          "durationTicks": 192,
          "midi": 52,
          "name": "E3",
          "ticks": 115200,
          "time": 112.5,
          "velocity": 0.3937007874015748
        },
        {
          "duration": 0.1875,
          "durationTicks": 192,
          "midi": 55,
          "name": "G3",
          "ticks": 115392,
          "time": 112.6875,
          "velocity": 0.3937007874015748
        },
        {
          "duration": 0.1875,
          "durationTicks": 192,
          "midi": 59,
          "name": "B3",
          "ticks": 115584,
          "time": 112.875,
          "velocity": 0.3937007874015748
        },
        {
          "duration": 0.1875,
          "durationTicks": 192,
          "midi": 64,
          "name": "E4",
          "ticks": 115776,
          "time": 113.0625,
          "velocity": 0.3937007874015748
        },
        {
          "duration": 0.1875,
          "durationTicks": 192,
          "midi": 63,
          "name": "D#4",
          "ticks": 115968,
          "time": 113.25,
          "velocity": 0.3937007874015748
        },
        {
          "duration": 0.1875,
          "durationTicks": 192,
          "midi": 59,
          "name": "B3",
          "ticks": 116256,
          "time": 113.53125,
          "velocity": 0.3937007874015748
        },
        {
          "duration": 0.1875,
          "durationTicks": 192,
          "midi": 63,
          "name": "D#4",
          "ticks": 116544,
          "time": 113.8125,
          "velocity": 0.3937007874015748
        },
        {
          "duration": 0.1875,
          "durationTicks": 192,
          "midi": 62,
          "name": "D4",
          "ticks": 116736,
          "time": 114,
          "velocity": 0.3937007874015748
        },
        {
          "duration": 0.1875,
          "durationTicks": 192,
          "midi": 59,
          "name": "B3",
          "ticks": 117024,
          "time": 114.28125,
          "velocity": 0.3937007874015748
        },
        {
          "duration": 0.1875,
          "durationTicks": 192,
          "midi": 62,
          "name": "D4",
          "ticks": 117312,
          "time": 114.5625,
          "velocity": 0.3937007874015748
        },
        {
          "duration": 0.1875,
          "durationTicks": 192,
          "midi": 61,
          "name": "C#4",
          "ticks": 117504,
          "time": 114.75,
          "velocity": 0.3937007874015748
        },
        {
          "duration": 0.1875,
          "durationTicks": 192,
          "midi": 58,
          "name": "A#3",
          "ticks": 117792,
          "time": 115.03125,
          "velocity": 0.3937007874015748
        },
        {
          "duration": 0.1875,
          "durationTicks": 192,
          "midi": 55,
          "name": "G3",
          "ticks": 118080,
          "time": 115.3125,
          "velocity": 0.3937007874015748
        },
        {
          "duration": 0.1875,
          "durationTicks": 192,
          "midi": 52,
          "name": "E3",
          "ticks": 121344,
          "time": 118.5,
          "velocity": 0.3937007874015748
        },
        {
          "duration": 0.1875,
          "durationTicks": 192,
          "midi": 55,
          "name": "G3",
          "ticks": 121536,
          "time": 118.6875,
          "velocity": 0.3937007874015748
        },
        {
          "duration": 0.1875,
          "durationTicks": 192,
          "midi": 59,
          "name": "B3",
          "ticks": 121728,
          "time": 118.875,
          "velocity": 0.3937007874015748
        },
        {
          "duration": 0.1875,
          "durationTicks": 192,
          "midi": 64,
          "name": "E4",
          "ticks": 121920,
          "time": 119.0625,
          "velocity": 0.3937007874015748
        },
        {
          "duration": 0.1875,
          "durationTicks": 192,
          "midi": 63,
          "name": "D#4",
          "ticks": 122112,
          "time": 119.25,
          "velocity": 0.3937007874015748
        },
        {
          "duration": 0.1875,
          "durationTicks": 192,
          "midi": 59,
          "name": "B3",
          "ticks": 122400,
          "time": 119.53125,
          "velocity": 0.3937007874015748
        },
        {
          "duration": 0.1875,
          "durationTicks": 192,
          "midi": 63,
          "name": "D#4",
          "ticks": 122688,
          "time": 119.8125,
          "velocity": 0.3937007874015748
        },
        {
          "duration": 0.1875,
          "durationTicks": 192,
          "midi": 62,
          "name": "D4",
          "ticks": 122880,
          "time": 120,
          "velocity": 0.3937007874015748
        },
        {
          "duration": 0.1875,
          "durationTicks": 192,
          "midi": 59,
          "name": "B3",
          "ticks": 123168,
          "time": 120.28125,
          "velocity": 0.3937007874015748
        },
        {
          "duration": 0.1875,
          "durationTicks": 192,
          "midi": 62,
          "name": "D4",
          "ticks": 123456,
          "time": 120.5625,
          "velocity": 0.3937007874015748
        },
        {
          "duration": 0.1875,
          "durationTicks": 192,
          "midi": 61,
          "name": "C#4",
          "ticks": 123648,
          "time": 120.75,
          "velocity": 0.3937007874015748
        },
        {
          "duration": 0.1875,
          "durationTicks": 192,
          "midi": 58,
          "name": "A#3",
          "ticks": 123936,
          "time": 121.03125,
          "velocity": 0.3937007874015748
        },
        {
          "duration": 0.1875,
          "durationTicks": 192,
          "midi": 55,
          "name": "G3",
          "ticks": 124224,
          "time": 121.3125,
          "velocity": 0.3937007874015748
        },
        {
          "duration": 0.1875,
          "durationTicks": 192,
          "midi": 52,
          "name": "E3",
          "ticks": 127488,
          "time": 124.5,
          "velocity": 0.3937007874015748
        },
        {
          "duration": 0.1875,
          "durationTicks": 192,
          "midi": 55,
          "name": "G3",
          "ticks": 127680,
          "time": 124.6875,
          "velocity": 0.3937007874015748
        },
        {
          "duration": 0.1875,
          "durationTicks": 192,
          "midi": 59,
          "name": "B3",
          "ticks": 127872,
          "time": 124.875,
          "velocity": 0.3937007874015748
        },
        {
          "duration": 0.1875,
          "durationTicks": 192,
          "midi": 64,
          "name": "E4",
          "ticks": 128064,
          "time": 125.0625,
          "velocity": 0.3937007874015748
        },
        {
          "duration": 0.1875,
          "durationTicks": 192,
          "midi": 63,
          "name": "D#4",
          "ticks": 128256,
          "time": 125.25,
          "velocity": 0.3937007874015748
        },
        {
          "duration": 0.1875,
          "durationTicks": 192,
          "midi": 59,
          "name": "B3",
          "ticks": 128544,
          "time": 125.53125,
          "velocity": 0.3937007874015748
        },
        {
          "duration": 0.1875,
          "durationTicks": 192,
          "midi": 63,
          "name": "D#4",
          "ticks": 128832,
          "time": 125.8125,
          "velocity": 0.3937007874015748
        },
        {
          "duration": 0.1875,
          "durationTicks": 192,
          "midi": 62,
          "name": "D4",
          "ticks": 129024,
          "time": 126,
          "velocity": 0.3937007874015748
        },
        {
          "duration": 0.1875,
          "durationTicks": 192,
          "midi": 59,
          "name": "B3",
          "ticks": 129312,
          "time": 126.28125,
          "velocity": 0.3937007874015748
        },
        {
          "duration": 0.1875,
          "durationTicks": 192,
          "midi": 62,
          "name": "D4",
          "ticks": 129600,
          "time": 126.5625,
          "velocity": 0.3937007874015748
        },
        {
          "duration": 0.1875,
          "durationTicks": 192,
          "midi": 61,
          "name": "C#4",
          "ticks": 129792,
          "time": 126.75,
          "velocity": 0.3937007874015748
        },
        {
          "duration": 0.1875,
          "durationTicks": 192,
          "midi": 58,
          "name": "A#3",
          "ticks": 130080,
          "time": 127.03125,
          "velocity": 0.3937007874015748
        },
        {
          "duration": 0.1875,
          "durationTicks": 192,
          "midi": 55,
          "name": "G3",
          "ticks": 130368,
          "time": 127.3125,
          "velocity": 0.3937007874015748
        },
        {
          "duration": 0.1875,
          "durationTicks": 192,
          "midi": 52,
          "name": "E3",
          "ticks": 133632,
          "time": 130.5,
          "velocity": 0.3937007874015748
        },
        {
          "duration": 0.1875,
          "durationTicks": 192,
          "midi": 55,
          "name": "G3",
          "ticks": 133824,
          "time": 130.6875,
          "velocity": 0.3937007874015748
        },
        {
          "duration": 0.1875,
          "durationTicks": 192,
          "midi": 59,
          "name": "B3",
          "ticks": 134016,
          "time": 130.875,
          "velocity": 0.3937007874015748
        },
        {
          "duration": 0.1875,
          "durationTicks": 192,
          "midi": 64,
          "name": "E4",
          "ticks": 134208,
          "time": 131.0625,
          "velocity": 0.3937007874015748
        },
        {
          "duration": 0.1875,
          "durationTicks": 192,
          "midi": 63,
          "name": "D#4",
          "ticks": 134400,
          "time": 131.25,
          "velocity": 0.3937007874015748
        },
        {
          "duration": 0.1875,
          "durationTicks": 192,
          "midi": 59,
          "name": "B3",
          "ticks": 134688,
          "time": 131.53125,
          "velocity": 0.3937007874015748
        },
        {
          "duration": 0.1875,
          "durationTicks": 192,
          "midi": 63,
          "name": "D#4",
          "ticks": 134976,
          "time": 131.8125,
          "velocity": 0.3937007874015748
        },
        {
          "duration": 0.1875,
          "durationTicks": 192,
          "midi": 62,
          "name": "D4",
          "ticks": 135168,
          "time": 132,
          "velocity": 0.3937007874015748
        },
        {
          "duration": 0.1875,
          "durationTicks": 192,
          "midi": 59,
          "name": "B3",
          "ticks": 135456,
          "time": 132.28125,
          "velocity": 0.3937007874015748
        },
        {
          "duration": 0.1875,
          "durationTicks": 192,
          "midi": 62,
          "name": "D4",
          "ticks": 135744,
          "time": 132.5625,
          "velocity": 0.3937007874015748
        },
        {
          "duration": 0.1875,
          "durationTicks": 192,
          "midi": 61,
          "name": "C#4",
          "ticks": 135936,
          "time": 132.75,
          "velocity": 0.3937007874015748
        },
        {
          "duration": 0.1875,
          "durationTicks": 192,
          "midi": 58,
          "name": "A#3",
          "ticks": 136224,
          "time": 133.03125,
          "velocity": 0.3937007874015748
        },
        {
          "duration": 0.1875,
          "durationTicks": 192,
          "midi": 55,
          "name": "G3",
          "ticks": 136512,
          "time": 133.3125,
          "velocity": 0.3937007874015748
        },
        {
          "duration": 1.5,
          "durationTicks": 1536,
          "midi": 52,
          "name": "E3",
          "ticks": 139776,
          "time": 136.5,
          "velocity": 0.3937007874015748
        },
        {
          "duration": 0.5625,
          "durationTicks": 576,
          "midi": 55,
          "name": "G3",
          "ticks": 141312,
          "time": 138,
          "velocity": 0.3937007874015748
        },
        {
          "duration": 0.5625,
          "durationTicks": 576,
          "midi": 59,
          "name": "B3",
          "ticks": 141888,
          "time": 138.5625,
          "velocity": 0.3937007874015748
        },
        {
          "duration": 0.375,
          "durationTicks": 384,
          "midi": 64,
          "name": "E4",
          "ticks": 142464,
          "time": 139.125,
          "velocity": 0.3937007874015748
        },
        {
          "duration": 1.125,
          "durationTicks": 1152,
          "midi": 66,
          "name": "F#4",
          "ticks": 142848,
          "time": 139.5,
          "velocity": 0.3937007874015748
        },
        {
          "duration": 0.75,
          "durationTicks": 768,
          "midi": 67,
          "name": "G4",
          "ticks": 143808,
          "time": 140.4375,
          "velocity": 0.3937007874015748
        },
        {
          "duration": 0.09375,
          "durationTicks": 96,
          "midi": 64,
          "name": "E4",
          "ticks": 144192,
          "time": 140.8125,
          "velocity": 0.3937007874015748
        },
        {
          "duration": 0.09375,
          "durationTicks": 96,
          "midi": 62,
          "name": "D4",
          "ticks": 144288,
          "time": 140.90625,
          "velocity": 0.3937007874015748
        },
        {
          "duration": 0.1875,
          "durationTicks": 192,
          "midi": 64,
          "name": "E4",
          "ticks": 144384,
          "time": 141,
          "velocity": 0.3937007874015748
        },
        {
          "duration": 1.03125,
          "durationTicks": 1056,
          "midi": 64,
          "name": "E4",
          "ticks": 144576,
          "time": 141.1875,
          "velocity": 0.3937007874015748
        },
        {
          "duration": 0.09375,
          "durationTicks": 96,
          "midi": 67,
          "name": "G4",
          "ticks": 145728,
          "time": 142.3125,
          "velocity": 0.3937007874015748
        },
        {
          "duration": 0.09375,
          "durationTicks": 96,
          "midi": 67,
          "name": "G4",
          "ticks": 145824,
          "time": 142.40625,
          "velocity": 0.3937007874015748
        },
        {
          "duration": 0.09375,
          "durationTicks": 96,
          "midi": 64,
          "name": "E4",
          "ticks": 145920,
          "time": 142.5,
          "velocity": 0.3937007874015748
        },
        {
          "duration": 0.09375,
          "durationTicks": 96,
          "midi": 64,
          "name": "E4",
          "ticks": 146016,
          "time": 142.59375,
          "velocity": 0.3937007874015748
        },
        {
          "duration": 0.09375,
          "durationTicks": 96,
          "midi": 64,
          "name": "E4",
          "ticks": 146112,
          "time": 142.6875,
          "velocity": 0.3937007874015748
        },
        {
          "duration": 0.09375,
          "durationTicks": 96,
          "midi": 64,
          "name": "E4",
          "ticks": 146208,
          "time": 142.78125,
          "velocity": 0.3937007874015748
        },
        {
          "duration": 0.09375,
          "durationTicks": 96,
          "midi": 64,
          "name": "E4",
          "ticks": 146304,
          "time": 142.875,
          "velocity": 0.3937007874015748
        },
        {
          "duration": 0.09375,
          "durationTicks": 96,
          "midi": 64,
          "name": "E4",
          "ticks": 146400,
          "time": 142.96875,
          "velocity": 0.3937007874015748
        },
        {
          "duration": 0.09375,
          "durationTicks": 96,
          "midi": 64,
          "name": "E4",
          "ticks": 146496,
          "time": 143.0625,
          "velocity": 0.3937007874015748
        },
        {
          "duration": 0.09375,
          "durationTicks": 96,
          "midi": 64,
          "name": "E4",
          "ticks": 146592,
          "time": 143.15625,
          "velocity": 0.3937007874015748
        },
        {
          "duration": 0.09375,
          "durationTicks": 96,
          "midi": 64,
          "name": "E4",
          "ticks": 146688,
          "time": 143.25,
          "velocity": 0.3937007874015748
        },
        {
          "duration": 0.09375,
          "durationTicks": 96,
          "midi": 64,
          "name": "E4",
          "ticks": 146784,
          "time": 143.34375,
          "velocity": 0.3937007874015748
        },
        {
          "duration": 0.09375,
          "durationTicks": 96,
          "midi": 64,
          "name": "E4",
          "ticks": 146880,
          "time": 143.4375,
          "velocity": 0.3937007874015748
        },
        {
          "duration": 0.09375,
          "durationTicks": 96,
          "midi": 64,
          "name": "E4",
          "ticks": 146976,
          "time": 143.53125,
          "velocity": 0.3937007874015748
        },
        {
          "duration": 0.09375,
          "durationTicks": 96,
          "midi": 67,
          "name": "G4",
          "ticks": 147072,
          "time": 143.625,
          "velocity": 0.3937007874015748
        },
        {
          "duration": 0.09375,
          "durationTicks": 96,
          "midi": 67,
          "name": "G4",
          "ticks": 147168,
          "time": 143.71875,
          "velocity": 0.3937007874015748
        },
        {
          "duration": 0.09375,
          "durationTicks": 96,
          "midi": 67,
          "name": "G4",
          "ticks": 147264,
          "time": 143.8125,
          "velocity": 0.3937007874015748
        },
        {
          "duration": 0.09375,
          "durationTicks": 96,
          "midi": 67,
          "name": "G4",
          "ticks": 147360,
          "time": 143.90625,
          "velocity": 0.3937007874015748
        },
        {
          "duration": 0.09375,
          "durationTicks": 96,
          "midi": 66,
          "name": "F#4",
          "ticks": 147456,
          "time": 144,
          "velocity": 0.3937007874015748
        },
        {
          "duration": 0.09375,
          "durationTicks": 96,
          "midi": 66,
          "name": "F#4",
          "ticks": 147552,
          "time": 144.09375,
          "velocity": 0.3937007874015748
        },
        {
          "duration": 0.09375,
          "durationTicks": 96,
          "midi": 66,
          "name": "F#4",
          "ticks": 147648,
          "time": 144.1875,
          "velocity": 0.3937007874015748
        },
        {
          "duration": 0.09375,
          "durationTicks": 96,
          "midi": 66,
          "name": "F#4",
          "ticks": 147744,
          "time": 144.28125,
          "velocity": 0.3937007874015748
        },
        {
          "duration": 0.09375,
          "durationTicks": 96,
          "midi": 66,
          "name": "F#4",
          "ticks": 147840,
          "time": 144.375,
          "velocity": 0.3937007874015748
        },
        {
          "duration": 0.09375,
          "durationTicks": 96,
          "midi": 66,
          "name": "F#4",
          "ticks": 147936,
          "time": 144.46875,
          "velocity": 0.3937007874015748
        },
        {
          "duration": 0.09375,
          "durationTicks": 96,
          "midi": 66,
          "name": "F#4",
          "ticks": 148032,
          "time": 144.5625,
          "velocity": 0.3937007874015748
        },
        {
          "duration": 0.09375,
          "durationTicks": 96,
          "midi": 66,
          "name": "F#4",
          "ticks": 148128,
          "time": 144.65625,
          "velocity": 0.3937007874015748
        },
        {
          "duration": 0.09375,
          "durationTicks": 96,
          "midi": 66,
          "name": "F#4",
          "ticks": 148224,
          "time": 144.75,
          "velocity": 0.3937007874015748
        },
        {
          "duration": 0.09375,
          "durationTicks": 96,
          "midi": 66,
          "name": "F#4",
          "ticks": 148320,
          "time": 144.84375,
          "velocity": 0.3937007874015748
        },
        {
          "duration": 0.09375,
          "durationTicks": 96,
          "midi": 66,
          "name": "F#4",
          "ticks": 148416,
          "time": 144.9375,
          "velocity": 0.3937007874015748
        },
        {
          "duration": 0.09375,
          "durationTicks": 96,
          "midi": 66,
          "name": "F#4",
          "ticks": 148512,
          "time": 145.03125,
          "velocity": 0.3937007874015748
        },
        {
          "duration": 0.09375,
          "durationTicks": 96,
          "midi": 66,
          "name": "F#4",
          "ticks": 148608,
          "time": 145.125,
          "velocity": 0.3937007874015748
        },
        {
          "duration": 0.09375,
          "durationTicks": 96,
          "midi": 66,
          "name": "F#4",
          "ticks": 148704,
          "time": 145.21875,
          "velocity": 0.3937007874015748
        },
        {
          "duration": 0.09375,
          "durationTicks": 96,
          "midi": 66,
          "name": "F#4",
          "ticks": 148800,
          "time": 145.3125,
          "velocity": 0.3937007874015748
        },
        {
          "duration": 0.09375,
          "durationTicks": 96,
          "midi": 66,
          "name": "F#4",
          "ticks": 148896,
          "time": 145.40625,
          "velocity": 0.3937007874015748
        },
        {
          "duration": 0.09375,
          "durationTicks": 96,
          "midi": 71,
          "name": "B4",
          "ticks": 148992,
          "time": 145.5,
          "velocity": 0.3937007874015748
        },
        {
          "duration": 0.09375,
          "durationTicks": 96,
          "midi": 71,
          "name": "B4",
          "ticks": 149088,
          "time": 145.59375,
          "velocity": 0.3937007874015748
        },
        {
          "duration": 0.09375,
          "durationTicks": 96,
          "midi": 71,
          "name": "B4",
          "ticks": 149184,
          "time": 145.6875,
          "velocity": 0.3937007874015748
        },
        {
          "duration": 0.09375,
          "durationTicks": 96,
          "midi": 71,
          "name": "B4",
          "ticks": 149280,
          "time": 145.78125,
          "velocity": 0.3937007874015748
        },
        {
          "duration": 0.09375,
          "durationTicks": 96,
          "midi": 71,
          "name": "B4",
          "ticks": 149376,
          "time": 145.875,
          "velocity": 0.3937007874015748
        },
        {
          "duration": 0.09375,
          "durationTicks": 96,
          "midi": 71,
          "name": "B4",
          "ticks": 149472,
          "time": 145.96875,
          "velocity": 0.3937007874015748
        },
        {
          "duration": 0.09375,
          "durationTicks": 96,
          "midi": 71,
          "name": "B4",
          "ticks": 149568,
          "time": 146.0625,
          "velocity": 0.3937007874015748
        },
        {
          "duration": 0.09375,
          "durationTicks": 96,
          "midi": 71,
          "name": "B4",
          "ticks": 149664,
          "time": 146.15625,
          "velocity": 0.3937007874015748
        },
        {
          "duration": 0.09375,
          "durationTicks": 96,
          "midi": 71,
          "name": "B4",
          "ticks": 149760,
          "time": 146.25,
          "velocity": 0.3937007874015748
        },
        {
          "duration": 0.09375,
          "durationTicks": 96,
          "midi": 71,
          "name": "B4",
          "ticks": 149856,
          "time": 146.34375,
          "velocity": 0.3937007874015748
        },
        {
          "duration": 0.09375,
          "durationTicks": 96,
          "midi": 71,
          "name": "B4",
          "ticks": 149952,
          "time": 146.4375,
          "velocity": 0.3937007874015748
        },
        {
          "duration": 0.09375,
          "durationTicks": 96,
          "midi": 71,
          "name": "B4",
          "ticks": 150048,
          "time": 146.53125,
          "velocity": 0.3937007874015748
        },
        {
          "duration": 0.09375,
          "durationTicks": 96,
          "midi": 71,
          "name": "B4",
          "ticks": 150144,
          "time": 146.625,
          "velocity": 0.3937007874015748
        },
        {
          "duration": 0.09375,
          "durationTicks": 96,
          "midi": 71,
          "name": "B4",
          "ticks": 150240,
          "time": 146.71875,
          "velocity": 0.3937007874015748
        },
        {
          "duration": 0.09375,
          "durationTicks": 96,
          "midi": 71,
          "name": "B4",
          "ticks": 150336,
          "time": 146.8125,
          "velocity": 0.3937007874015748
        },
        {
          "duration": 0.09375,
          "durationTicks": 96,
          "midi": 71,
          "name": "B4",
          "ticks": 150432,
          "time": 146.90625,
          "velocity": 0.3937007874015748
        },
        {
          "duration": 0.09375,
          "durationTicks": 96,
          "midi": 72,
          "name": "C5",
          "ticks": 150528,
          "time": 147,
          "velocity": 0.3937007874015748
        },
        {
          "duration": 0.09375,
          "durationTicks": 96,
          "midi": 72,
          "name": "C5",
          "ticks": 150624,
          "time": 147.09375,
          "velocity": 0.3937007874015748
        },
        {
          "duration": 0.09375,
          "durationTicks": 96,
          "midi": 72,
          "name": "C5",
          "ticks": 150720,
          "time": 147.1875,
          "velocity": 0.3937007874015748
        },
        {
          "duration": 0.09375,
          "durationTicks": 96,
          "midi": 72,
          "name": "C5",
          "ticks": 150816,
          "time": 147.28125,
          "velocity": 0.3937007874015748
        },
        {
          "duration": 0.09375,
          "durationTicks": 96,
          "midi": 72,
          "name": "C5",
          "ticks": 150912,
          "time": 147.375,
          "velocity": 0.3937007874015748
        },
        {
          "duration": 0.09375,
          "durationTicks": 96,
          "midi": 72,
          "name": "C5",
          "ticks": 151008,
          "time": 147.46875,
          "velocity": 0.3937007874015748
        },
        {
          "duration": 0.09375,
          "durationTicks": 96,
          "midi": 72,
          "name": "C5",
          "ticks": 151104,
          "time": 147.5625,
          "velocity": 0.3937007874015748
        },
        {
          "duration": 0.09375,
          "durationTicks": 96,
          "midi": 72,
          "name": "C5",
          "ticks": 151200,
          "time": 147.65625,
          "velocity": 0.3937007874015748
        },
        {
          "duration": 0.09375,
          "durationTicks": 96,
          "midi": 72,
          "name": "C5",
          "ticks": 151296,
          "time": 147.75,
          "velocity": 0.3937007874015748
        },
        {
          "duration": 0.09375,
          "durationTicks": 96,
          "midi": 72,
          "name": "C5",
          "ticks": 151392,
          "time": 147.84375,
          "velocity": 0.3937007874015748
        },
        {
          "duration": 0.09375,
          "durationTicks": 96,
          "midi": 72,
          "name": "C5",
          "ticks": 151488,
          "time": 147.9375,
          "velocity": 0.3937007874015748
        },
        {
          "duration": 0.09375,
          "durationTicks": 96,
          "midi": 72,
          "name": "C5",
          "ticks": 151584,
          "time": 148.03125,
          "velocity": 0.3937007874015748
        },
        {
          "duration": 0.09375,
          "durationTicks": 96,
          "midi": 72,
          "name": "C5",
          "ticks": 151680,
          "time": 148.125,
          "velocity": 0.3937007874015748
        },
        {
          "duration": 0.09375,
          "durationTicks": 96,
          "midi": 72,
          "name": "C5",
          "ticks": 151776,
          "time": 148.21875,
          "velocity": 0.3937007874015748
        },
        {
          "duration": 0.09375,
          "durationTicks": 96,
          "midi": 72,
          "name": "C5",
          "ticks": 151872,
          "time": 148.3125,
          "velocity": 0.3937007874015748
        },
        {
          "duration": 0.09375,
          "durationTicks": 96,
          "midi": 72,
          "name": "C5",
          "ticks": 151968,
          "time": 148.40625,
          "velocity": 0.3937007874015748
        },
        {
          "duration": 0.1875,
          "durationTicks": 192,
          "midi": 40,
          "name": "E2",
          "ticks": 181248,
          "time": 177,
          "velocity": 0.3937007874015748
        },
        {
          "duration": 0.1875,
          "durationTicks": 192,
          "midi": 59,
          "name": "B3",
          "ticks": 181248,
          "time": 177,
          "velocity": 0.3937007874015748
        },
        {
          "duration": 0.1875,
          "durationTicks": 192,
          "midi": 55,
          "name": "G3",
          "ticks": 181440,
          "time": 177.1875,
          "velocity": 0.3937007874015748
        },
        {
          "duration": 0.1875,
          "durationTicks": 192,
          "midi": 52,
          "name": "E3",
          "ticks": 181632,
          "time": 177.375,
          "velocity": 0.3937007874015748
        },
        {
          "duration": 0.1875,
          "durationTicks": 192,
          "midi": 39,
          "name": "D#2",
          "ticks": 181824,
          "time": 177.5625,
          "velocity": 0.3937007874015748
        },
        {
          "duration": 0.1875,
          "durationTicks": 192,
          "midi": 58,
          "name": "A#3",
          "ticks": 181824,
          "time": 177.5625,
          "velocity": 0.3937007874015748
        },
        {
          "duration": 0.1875,
          "durationTicks": 192,
          "midi": 55,
          "name": "G3",
          "ticks": 182016,
          "time": 177.75,
          "velocity": 0.3937007874015748
        },
        {
          "duration": 0.1875,
          "durationTicks": 192,
          "midi": 52,
          "name": "E3",
          "ticks": 182208,
          "time": 177.9375,
          "velocity": 0.3937007874015748
        },
        {
          "duration": 0.1875,
          "durationTicks": 192,
          "midi": 39,
          "name": "D#2",
          "ticks": 182400,
          "time": 178.125,
          "velocity": 0.3937007874015748
        },
        {
          "duration": 0.1875,
          "durationTicks": 192,
          "midi": 58,
          "name": "A#3",
          "ticks": 182400,
          "time": 178.125,
          "velocity": 0.3937007874015748
        },
        {
          "duration": 0.1875,
          "durationTicks": 192,
          "midi": 55,
          "name": "G3",
          "ticks": 182592,
          "time": 178.3125,
          "velocity": 0.3937007874015748
        },
        {
          "duration": 0.1875,
          "durationTicks": 192,
          "midi": 40,
          "name": "E2",
          "ticks": 182784,
          "time": 178.5,
          "velocity": 0.3937007874015748
        },
        {
          "duration": 0.1875,
          "durationTicks": 192,
          "midi": 59,
          "name": "B3",
          "ticks": 182784,
          "time": 178.5,
          "velocity": 0.3937007874015748
        },
        {
          "duration": 0.1875,
          "durationTicks": 192,
          "midi": 55,
          "name": "G3",
          "ticks": 182976,
          "time": 178.6875,
          "velocity": 0.3937007874015748
        },
        {
          "duration": 0.1875,
          "durationTicks": 192,
          "midi": 52,
          "name": "E3",
          "ticks": 183168,
          "time": 178.875,
          "velocity": 0.3937007874015748
        },
        {
          "duration": 0.1875,
          "durationTicks": 192,
          "midi": 58,
          "name": "A#3",
          "ticks": 183360,
          "time": 179.0625,
          "velocity": 0.3937007874015748
        },
        {
          "duration": 0.1875,
          "durationTicks": 192,
          "midi": 39,
          "name": "D#2",
          "ticks": 183360,
          "time": 179.0625,
          "velocity": 0.3937007874015748
        },
        {
          "duration": 0.1875,
          "durationTicks": 192,
          "midi": 55,
          "name": "G3",
          "ticks": 183552,
          "time": 179.25,
          "velocity": 0.3937007874015748
        },
        {
          "duration": 0.1875,
          "durationTicks": 192,
          "midi": 52,
          "name": "E3",
          "ticks": 183744,
          "time": 179.4375,
          "velocity": 0.3937007874015748
        },
        {
          "duration": 0.1875,
          "durationTicks": 192,
          "midi": 39,
          "name": "D#2",
          "ticks": 183936,
          "time": 179.625,
          "velocity": 0.3937007874015748
        },
        {
          "duration": 0.1875,
          "durationTicks": 192,
          "midi": 60,
          "name": "C4",
          "ticks": 183936,
          "time": 179.625,
          "velocity": 0.3937007874015748
        },
        {
          "duration": 0.1875,
          "durationTicks": 192,
          "midi": 58,
          "name": "A#3",
          "ticks": 184128,
          "time": 179.8125,
          "velocity": 0.3937007874015748
        },
        {
          "duration": 0.1875,
          "durationTicks": 192,
          "midi": 40,
          "name": "E2",
          "ticks": 184320,
          "time": 180,
          "velocity": 0.3937007874015748
        },
        {
          "duration": 0.1875,
          "durationTicks": 192,
          "midi": 59,
          "name": "B3",
          "ticks": 184320,
          "time": 180,
          "velocity": 0.3937007874015748
        },
        {
          "duration": 0.1875,
          "durationTicks": 192,
          "midi": 55,
          "name": "G3",
          "ticks": 184512,
          "time": 180.1875,
          "velocity": 0.3937007874015748
        },
        {
          "duration": 0.1875,
          "durationTicks": 192,
          "midi": 52,
          "name": "E3",
          "ticks": 184704,
          "time": 180.375,
          "velocity": 0.3937007874015748
        },
        {
          "duration": 0.1875,
          "durationTicks": 192,
          "midi": 58,
          "name": "A#3",
          "ticks": 184896,
          "time": 180.5625,
          "velocity": 0.3937007874015748
        },
        {
          "duration": 0.1875,
          "durationTicks": 192,
          "midi": 39,
          "name": "D#2",
          "ticks": 184896,
          "time": 180.5625,
          "velocity": 0.3937007874015748
        },
        {
          "duration": 0.1875,
          "durationTicks": 192,
          "midi": 55,
          "name": "G3",
          "ticks": 185088,
          "time": 180.75,
          "velocity": 0.3937007874015748
        },
        {
          "duration": 0.1875,
          "durationTicks": 192,
          "midi": 52,
          "name": "E3",
          "ticks": 185280,
          "time": 180.9375,
          "velocity": 0.3937007874015748
        },
        {
          "duration": 0.1875,
          "durationTicks": 192,
          "midi": 58,
          "name": "A#3",
          "ticks": 185472,
          "time": 181.125,
          "velocity": 0.3937007874015748
        },
        {
          "duration": 0.1875,
          "durationTicks": 192,
          "midi": 39,
          "name": "D#2",
          "ticks": 185472,
          "time": 181.125,
          "velocity": 0.3937007874015748
        },
        {
          "duration": 0.1875,
          "durationTicks": 192,
          "midi": 55,
          "name": "G3",
          "ticks": 185664,
          "time": 181.3125,
          "velocity": 0.3937007874015748
        },
        {
          "duration": 0.1875,
          "durationTicks": 192,
          "midi": 40,
          "name": "E2",
          "ticks": 185856,
          "time": 181.5,
          "velocity": 0.3937007874015748
        },
        {
          "duration": 0.1875,
          "durationTicks": 192,
          "midi": 59,
          "name": "B3",
          "ticks": 185856,
          "time": 181.5,
          "velocity": 0.3937007874015748
        },
        {
          "duration": 0.1875,
          "durationTicks": 192,
          "midi": 55,
          "name": "G3",
          "ticks": 186048,
          "time": 181.6875,
          "velocity": 0.3937007874015748
        },
        {
          "duration": 0.1875,
          "durationTicks": 192,
          "midi": 52,
          "name": "E3",
          "ticks": 186240,
          "time": 181.875,
          "velocity": 0.3937007874015748
        },
        {
          "duration": 0.1875,
          "durationTicks": 192,
          "midi": 40,
          "name": "E2",
          "ticks": 186432,
          "time": 182.0625,
          "velocity": 0.3937007874015748
        },
        {
          "duration": 0.9375,
          "durationTicks": 960,
          "midi": 48,
          "name": "C3",
          "ticks": 186432,
          "time": 182.0625,
          "velocity": 0.3937007874015748
        },
        {
          "duration": 0.1875,
          "durationTicks": 192,
          "midi": 40,
          "name": "E2",
          "ticks": 187008,
          "time": 182.625,
          "velocity": 0.3937007874015748
        },
        {
          "duration": 0.1875,
          "durationTicks": 192,
          "midi": 40,
          "name": "E2",
          "ticks": 187392,
          "time": 183,
          "velocity": 0.3937007874015748
        },
        {
          "duration": 0.1875,
          "durationTicks": 192,
          "midi": 59,
          "name": "B3",
          "ticks": 187392,
          "time": 183,
          "velocity": 0.3937007874015748
        },
        {
          "duration": 0.1875,
          "durationTicks": 192,
          "midi": 55,
          "name": "G3",
          "ticks": 187584,
          "time": 183.1875,
          "velocity": 0.3937007874015748
        },
        {
          "duration": 0.1875,
          "durationTicks": 192,
          "midi": 52,
          "name": "E3",
          "ticks": 187776,
          "time": 183.375,
          "velocity": 0.3937007874015748
        },
        {
          "duration": 0.1875,
          "durationTicks": 192,
          "midi": 39,
          "name": "D#2",
          "ticks": 187968,
          "time": 183.5625,
          "velocity": 0.3937007874015748
        },
        {
          "duration": 0.1875,
          "durationTicks": 192,
          "midi": 58,
          "name": "A#3",
          "ticks": 187968,
          "time": 183.5625,
          "velocity": 0.3937007874015748
        },
        {
          "duration": 0.1875,
          "durationTicks": 192,
          "midi": 55,
          "name": "G3",
          "ticks": 188160,
          "time": 183.75,
          "velocity": 0.3937007874015748
        },
        {
          "duration": 0.1875,
          "durationTicks": 192,
          "midi": 52,
          "name": "E3",
          "ticks": 188352,
          "time": 183.9375,
          "velocity": 0.3937007874015748
        },
        {
          "duration": 0.1875,
          "durationTicks": 192,
          "midi": 39,
          "name": "D#2",
          "ticks": 188544,
          "time": 184.125,
          "velocity": 0.3937007874015748
        },
        {
          "duration": 0.1875,
          "durationTicks": 192,
          "midi": 58,
          "name": "A#3",
          "ticks": 188544,
          "time": 184.125,
          "velocity": 0.3937007874015748
        },
        {
          "duration": 0.1875,
          "durationTicks": 192,
          "midi": 55,
          "name": "G3",
          "ticks": 188736,
          "time": 184.3125,
          "velocity": 0.3937007874015748
        },
        {
          "duration": 0.1875,
          "durationTicks": 192,
          "midi": 59,
          "name": "B3",
          "ticks": 188928,
          "time": 184.5,
          "velocity": 0.3937007874015748
        },
        {
          "duration": 0.1875,
          "durationTicks": 192,
          "midi": 40,
          "name": "E2",
          "ticks": 188928,
          "time": 184.5,
          "velocity": 0.3937007874015748
        },
        {
          "duration": 0.1875,
          "durationTicks": 192,
          "midi": 55,
          "name": "G3",
          "ticks": 189120,
          "time": 184.6875,
          "velocity": 0.3937007874015748
        },
        {
          "duration": 0.1875,
          "durationTicks": 192,
          "midi": 52,
          "name": "E3",
          "ticks": 189312,
          "time": 184.875,
          "velocity": 0.3937007874015748
        },
        {
          "duration": 0.1875,
          "durationTicks": 192,
          "midi": 58,
          "name": "A#3",
          "ticks": 189504,
          "time": 185.0625,
          "velocity": 0.3937007874015748
        },
        {
          "duration": 0.1875,
          "durationTicks": 192,
          "midi": 39,
          "name": "D#2",
          "ticks": 189504,
          "time": 185.0625,
          "velocity": 0.3937007874015748
        },
        {
          "duration": 0.1875,
          "durationTicks": 192,
          "midi": 55,
          "name": "G3",
          "ticks": 189696,
          "time": 185.25,
          "velocity": 0.3937007874015748
        },
        {
          "duration": 0.1875,
          "durationTicks": 192,
          "midi": 52,
          "name": "E3",
          "ticks": 189888,
          "time": 185.4375,
          "velocity": 0.3937007874015748
        },
        {
          "duration": 0.1875,
          "durationTicks": 192,
          "midi": 39,
          "name": "D#2",
          "ticks": 190080,
          "time": 185.625,
          "velocity": 0.3937007874015748
        },
        {
          "duration": 0.1875,
          "durationTicks": 192,
          "midi": 60,
          "name": "C4",
          "ticks": 190080,
          "time": 185.625,
          "velocity": 0.3937007874015748
        },
        {
          "duration": 0.1875,
          "durationTicks": 192,
          "midi": 58,
          "name": "A#3",
          "ticks": 190272,
          "time": 185.8125,
          "velocity": 0.3937007874015748
        },
        {
          "duration": 0.1875,
          "durationTicks": 192,
          "midi": 40,
          "name": "E2",
          "ticks": 190464,
          "time": 186,
          "velocity": 0.3937007874015748
        },
        {
          "duration": 0.1875,
          "durationTicks": 192,
          "midi": 59,
          "name": "B3",
          "ticks": 190464,
          "time": 186,
          "velocity": 0.3937007874015748
        },
        {
          "duration": 0.1875,
          "durationTicks": 192,
          "midi": 55,
          "name": "G3",
          "ticks": 190656,
          "time": 186.1875,
          "velocity": 0.3937007874015748
        },
        {
          "duration": 0.1875,
          "durationTicks": 192,
          "midi": 52,
          "name": "E3",
          "ticks": 190848,
          "time": 186.375,
          "velocity": 0.3937007874015748
        },
        {
          "duration": 0.1875,
          "durationTicks": 192,
          "midi": 58,
          "name": "A#3",
          "ticks": 191040,
          "time": 186.5625,
          "velocity": 0.3937007874015748
        },
        {
          "duration": 0.1875,
          "durationTicks": 192,
          "midi": 39,
          "name": "D#2",
          "ticks": 191040,
          "time": 186.5625,
          "velocity": 0.3937007874015748
        },
        {
          "duration": 0.1875,
          "durationTicks": 192,
          "midi": 55,
          "name": "G3",
          "ticks": 191232,
          "time": 186.75,
          "velocity": 0.3937007874015748
        },
        {
          "duration": 0.1875,
          "durationTicks": 192,
          "midi": 52,
          "name": "E3",
          "ticks": 191424,
          "time": 186.9375,
          "velocity": 0.3937007874015748
        },
        {
          "duration": 0.1875,
          "durationTicks": 192,
          "midi": 60,
          "name": "C4",
          "ticks": 191616,
          "time": 187.125,
          "velocity": 0.3937007874015748
        },
        {
          "duration": 0.1875,
          "durationTicks": 192,
          "midi": 39,
          "name": "D#2",
          "ticks": 191616,
          "time": 187.125,
          "velocity": 0.3937007874015748
        },
        {
          "duration": 0.1875,
          "durationTicks": 192,
          "midi": 58,
          "name": "A#3",
          "ticks": 191808,
          "time": 187.3125,
          "velocity": 0.3937007874015748
        },
        {
          "duration": 0.9375,
          "durationTicks": 960,
          "midi": 47,
          "name": "B2",
          "ticks": 192000,
          "time": 187.5,
          "velocity": 0.3937007874015748
        },
        {
          "duration": 0.1875,
          "durationTicks": 192,
          "midi": 60,
          "name": "C4",
          "ticks": 215040,
          "time": 210,
          "velocity": 0.3937007874015748
        },
        {
          "duration": 0.1875,
          "durationTicks": 192,
          "midi": 41,
          "name": "F2",
          "ticks": 215040,
          "time": 210,
          "velocity": 0.3937007874015748
        },
        {
          "duration": 0.1875,
          "durationTicks": 192,
          "midi": 56,
          "name": "G#3",
          "ticks": 215232,
          "time": 210.1875,
          "velocity": 0.3937007874015748
        },
        {
          "duration": 0.1875,
          "durationTicks": 192,
          "midi": 53,
          "name": "F3",
          "ticks": 215424,
          "time": 210.375,
          "velocity": 0.3937007874015748
        },
        {
          "duration": 0.1875,
          "durationTicks": 192,
          "midi": 59,
          "name": "B3",
          "ticks": 215616,
          "time": 210.5625,
          "velocity": 0.3937007874015748
        },
        {
          "duration": 0.1875,
          "durationTicks": 192,
          "midi": 40,
          "name": "E2",
          "ticks": 215616,
          "time": 210.5625,
          "velocity": 0.3937007874015748
        },
        {
          "duration": 0.1875,
          "durationTicks": 192,
          "midi": 56,
          "name": "G#3",
          "ticks": 215808,
          "time": 210.75,
          "velocity": 0.3937007874015748
        },
        {
          "duration": 0.1875,
          "durationTicks": 192,
          "midi": 53,
          "name": "F3",
          "ticks": 216000,
          "time": 210.9375,
          "velocity": 0.3937007874015748
        },
        {
          "duration": 0.1875,
          "durationTicks": 192,
          "midi": 59,
          "name": "B3",
          "ticks": 216192,
          "time": 211.125,
          "velocity": 0.3937007874015748
        },
        {
          "duration": 0.1875,
          "durationTicks": 192,
          "midi": 40,
          "name": "E2",
          "ticks": 216192,
          "time": 211.125,
          "velocity": 0.3937007874015748
        },
        {
          "duration": 0.1875,
          "durationTicks": 192,
          "midi": 56,
          "name": "G#3",
          "ticks": 216384,
          "time": 211.3125,
          "velocity": 0.3937007874015748
        },
        {
          "duration": 0.1875,
          "durationTicks": 192,
          "midi": 41,
          "name": "F2",
          "ticks": 216576,
          "time": 211.5,
          "velocity": 0.3937007874015748
        },
        {
          "duration": 0.1875,
          "durationTicks": 192,
          "midi": 60,
          "name": "C4",
          "ticks": 216576,
          "time": 211.5,
          "velocity": 0.3937007874015748
        },
        {
          "duration": 0.1875,
          "durationTicks": 192,
          "midi": 56,
          "name": "G#3",
          "ticks": 216768,
          "time": 211.6875,
          "velocity": 0.3937007874015748
        },
        {
          "duration": 0.1875,
          "durationTicks": 192,
          "midi": 53,
          "name": "F3",
          "ticks": 216960,
          "time": 211.875,
          "velocity": 0.3937007874015748
        },
        {
          "duration": 0.1875,
          "durationTicks": 192,
          "midi": 40,
          "name": "E2",
          "ticks": 217152,
          "time": 212.0625,
          "velocity": 0.3937007874015748
        },
        {
          "duration": 0.1875,
          "durationTicks": 192,
          "midi": 59,
          "name": "B3",
          "ticks": 217152,
          "time": 212.0625,
          "velocity": 0.3937007874015748
        },
        {
          "duration": 0.1875,
          "durationTicks": 192,
          "midi": 56,
          "name": "G#3",
          "ticks": 217344,
          "time": 212.25,
          "velocity": 0.3937007874015748
        },
        {
          "duration": 0.1875,
          "durationTicks": 192,
          "midi": 53,
          "name": "F3",
          "ticks": 217536,
          "time": 212.4375,
          "velocity": 0.3937007874015748
        },
        {
          "duration": 0.1875,
          "durationTicks": 192,
          "midi": 40,
          "name": "E2",
          "ticks": 217728,
          "time": 212.625,
          "velocity": 0.3937007874015748
        },
        {
          "duration": 0.1875,
          "durationTicks": 192,
          "midi": 61,
          "name": "C#4",
          "ticks": 217728,
          "time": 212.625,
          "velocity": 0.3937007874015748
        },
        {
          "duration": 0.1875,
          "durationTicks": 192,
          "midi": 59,
          "name": "B3",
          "ticks": 217920,
          "time": 212.8125,
          "velocity": 0.3937007874015748
        },
        {
          "duration": 0.1875,
          "durationTicks": 192,
          "midi": 60,
          "name": "C4",
          "ticks": 218112,
          "time": 213,
          "velocity": 0.3937007874015748
        },
        {
          "duration": 0.1875,
          "durationTicks": 192,
          "midi": 41,
          "name": "F2",
          "ticks": 218112,
          "time": 213,
          "velocity": 0.3937007874015748
        },
        {
          "duration": 0.1875,
          "durationTicks": 192,
          "midi": 56,
          "name": "G#3",
          "ticks": 218304,
          "time": 213.1875,
          "velocity": 0.3937007874015748
        },
        {
          "duration": 0.1875,
          "durationTicks": 192,
          "midi": 53,
          "name": "F3",
          "ticks": 218496,
          "time": 213.375,
          "velocity": 0.3937007874015748
        },
        {
          "duration": 0.1875,
          "durationTicks": 192,
          "midi": 40,
          "name": "E2",
          "ticks": 218688,
          "time": 213.5625,
          "velocity": 0.3937007874015748
        },
        {
          "duration": 0.1875,
          "durationTicks": 192,
          "midi": 59,
          "name": "B3",
          "ticks": 218688,
          "time": 213.5625,
          "velocity": 0.3937007874015748
        },
        {
          "duration": 0.1875,
          "durationTicks": 192,
          "midi": 56,
          "name": "G#3",
          "ticks": 218880,
          "time": 213.75,
          "velocity": 0.3937007874015748
        },
        {
          "duration": 0.1875,
          "durationTicks": 192,
          "midi": 53,
          "name": "F3",
          "ticks": 219072,
          "time": 213.9375,
          "velocity": 0.3937007874015748
        },
        {
          "duration": 0.1875,
          "durationTicks": 192,
          "midi": 59,
          "name": "B3",
          "ticks": 219264,
          "time": 214.125,
          "velocity": 0.3937007874015748
        },
        {
          "duration": 0.1875,
          "durationTicks": 192,
          "midi": 40,
          "name": "E2",
          "ticks": 219264,
          "time": 214.125,
          "velocity": 0.3937007874015748
        },
        {
          "duration": 0.1875,
          "durationTicks": 192,
          "midi": 56,
          "name": "G#3",
          "ticks": 219456,
          "time": 214.3125,
          "velocity": 0.3937007874015748
        },
        {
          "duration": 0.1875,
          "durationTicks": 192,
          "midi": 41,
          "name": "F2",
          "ticks": 219648,
          "time": 214.5,
          "velocity": 0.3937007874015748
        },
        {
          "duration": 0.1875,
          "durationTicks": 192,
          "midi": 60,
          "name": "C4",
          "ticks": 219648,
          "time": 214.5,
          "velocity": 0.3937007874015748
        },
        {
          "duration": 0.1875,
          "durationTicks": 192,
          "midi": 56,
          "name": "G#3",
          "ticks": 219840,
          "time": 214.6875,
          "velocity": 0.3937007874015748
        },
        {
          "duration": 0.1875,
          "durationTicks": 192,
          "midi": 53,
          "name": "F3",
          "ticks": 220032,
          "time": 214.875,
          "velocity": 0.3937007874015748
        },
        {
          "duration": 0.9375,
          "durationTicks": 960,
          "midi": 49,
          "name": "C#3",
          "ticks": 220224,
          "time": 215.0625,
          "velocity": 0.3937007874015748
        },
        {
          "duration": 0.1875,
          "durationTicks": 192,
          "midi": 41,
          "name": "F2",
          "ticks": 220224,
          "time": 215.0625,
          "velocity": 0.3937007874015748
        },
        {
          "duration": 0.1875,
          "durationTicks": 192,
          "midi": 41,
          "name": "F2",
          "ticks": 220800,
          "time": 215.625,
          "velocity": 0.3937007874015748
        },
        {
          "duration": 0.1875,
          "durationTicks": 192,
          "midi": 59,
          "name": "B3",
          "ticks": 221184,
          "time": 216,
          "velocity": 0.3937007874015748
        },
        {
          "duration": 0.1875,
          "durationTicks": 192,
          "midi": 40,
          "name": "E2",
          "ticks": 221184,
          "time": 216,
          "velocity": 0.3937007874015748
        },
        {
          "duration": 0.1875,
          "durationTicks": 192,
          "midi": 55,
          "name": "G3",
          "ticks": 221376,
          "time": 216.1875,
          "velocity": 0.3937007874015748
        },
        {
          "duration": 0.1875,
          "durationTicks": 192,
          "midi": 52,
          "name": "E3",
          "ticks": 221568,
          "time": 216.375,
          "velocity": 0.3937007874015748
        },
        {
          "duration": 0.1875,
          "durationTicks": 192,
          "midi": 58,
          "name": "A#3",
          "ticks": 221760,
          "time": 216.5625,
          "velocity": 0.3937007874015748
        },
        {
          "duration": 0.1875,
          "durationTicks": 192,
          "midi": 39,
          "name": "D#2",
          "ticks": 221760,
          "time": 216.5625,
          "velocity": 0.3937007874015748
        },
        {
          "duration": 0.1875,
          "durationTicks": 192,
          "midi": 55,
          "name": "G3",
          "ticks": 221952,
          "time": 216.75,
          "velocity": 0.3937007874015748
        },
        {
          "duration": 0.1875,
          "durationTicks": 192,
          "midi": 52,
          "name": "E3",
          "ticks": 222144,
          "time": 216.9375,
          "velocity": 0.3937007874015748
        },
        {
          "duration": 0.1875,
          "durationTicks": 192,
          "midi": 39,
          "name": "D#2",
          "ticks": 222336,
          "time": 217.125,
          "velocity": 0.3937007874015748
        },
        {
          "duration": 0.1875,
          "durationTicks": 192,
          "midi": 58,
          "name": "A#3",
          "ticks": 222336,
          "time": 217.125,
          "velocity": 0.3937007874015748
        },
        {
          "duration": 0.1875,
          "durationTicks": 192,
          "midi": 55,
          "name": "G3",
          "ticks": 222528,
          "time": 217.3125,
          "velocity": 0.3937007874015748
        },
        {
          "duration": 0.1875,
          "durationTicks": 192,
          "midi": 59,
          "name": "B3",
          "ticks": 222720,
          "time": 217.5,
          "velocity": 0.3937007874015748
        },
        {
          "duration": 0.1875,
          "durationTicks": 192,
          "midi": 40,
          "name": "E2",
          "ticks": 222720,
          "time": 217.5,
          "velocity": 0.3937007874015748
        },
        {
          "duration": 0.1875,
          "durationTicks": 192,
          "midi": 55,
          "name": "G3",
          "ticks": 222912,
          "time": 217.6875,
          "velocity": 0.3937007874015748
        },
        {
          "duration": 0.1875,
          "durationTicks": 192,
          "midi": 52,
          "name": "E3",
          "ticks": 223104,
          "time": 217.875,
          "velocity": 0.3937007874015748
        },
        {
          "duration": 0.1875,
          "durationTicks": 192,
          "midi": 39,
          "name": "D#2",
          "ticks": 223296,
          "time": 218.0625,
          "velocity": 0.3937007874015748
        },
        {
          "duration": 0.1875,
          "durationTicks": 192,
          "midi": 58,
          "name": "A#3",
          "ticks": 223296,
          "time": 218.0625,
          "velocity": 0.3937007874015748
        },
        {
          "duration": 0.1875,
          "durationTicks": 192,
          "midi": 55,
          "name": "G3",
          "ticks": 223488,
          "time": 218.25,
          "velocity": 0.3937007874015748
        },
        {
          "duration": 0.1875,
          "durationTicks": 192,
          "midi": 52,
          "name": "E3",
          "ticks": 223680,
          "time": 218.4375,
          "velocity": 0.3937007874015748
        },
        {
          "duration": 0.1875,
          "durationTicks": 192,
          "midi": 60,
          "name": "C4",
          "ticks": 223872,
          "time": 218.625,
          "velocity": 0.3937007874015748
        },
        {
          "duration": 0.1875,
          "durationTicks": 192,
          "midi": 39,
          "name": "D#2",
          "ticks": 223872,
          "time": 218.625,
          "velocity": 0.3937007874015748
        },
        {
          "duration": 0.1875,
          "durationTicks": 192,
          "midi": 58,
          "name": "A#3",
          "ticks": 224064,
          "time": 218.8125,
          "velocity": 0.3937007874015748
        },
        {
          "duration": 0.1875,
          "durationTicks": 192,
          "midi": 40,
          "name": "E2",
          "ticks": 224256,
          "time": 219,
          "velocity": 0.3937007874015748
        },
        {
          "duration": 0.1875,
          "durationTicks": 192,
          "midi": 59,
          "name": "B3",
          "ticks": 224256,
          "time": 219,
          "velocity": 0.3937007874015748
        },
        {
          "duration": 0.1875,
          "durationTicks": 192,
          "midi": 55,
          "name": "G3",
          "ticks": 224448,
          "time": 219.1875,
          "velocity": 0.3937007874015748
        },
        {
          "duration": 0.1875,
          "durationTicks": 192,
          "midi": 52,
          "name": "E3",
          "ticks": 224640,
          "time": 219.375,
          "velocity": 0.3937007874015748
        },
        {
          "duration": 0.1875,
          "durationTicks": 192,
          "midi": 39,
          "name": "D#2",
          "ticks": 224832,
          "time": 219.5625,
          "velocity": 0.3937007874015748
        },
        {
          "duration": 0.1875,
          "durationTicks": 192,
          "midi": 58,
          "name": "A#3",
          "ticks": 224832,
          "time": 219.5625,
          "velocity": 0.3937007874015748
        },
        {
          "duration": 0.1875,
          "durationTicks": 192,
          "midi": 55,
          "name": "G3",
          "ticks": 225024,
          "time": 219.75,
          "velocity": 0.3937007874015748
        },
        {
          "duration": 0.1875,
          "durationTicks": 192,
          "midi": 52,
          "name": "E3",
          "ticks": 225216,
          "time": 219.9375,
          "velocity": 0.3937007874015748
        },
        {
          "duration": 0.1875,
          "durationTicks": 192,
          "midi": 58,
          "name": "A#3",
          "ticks": 225408,
          "time": 220.125,
          "velocity": 0.3937007874015748
        },
        {
          "duration": 0.1875,
          "durationTicks": 192,
          "midi": 39,
          "name": "D#2",
          "ticks": 225408,
          "time": 220.125,
          "velocity": 0.3937007874015748
        },
        {
          "duration": 0.1875,
          "durationTicks": 192,
          "midi": 55,
          "name": "G3",
          "ticks": 225600,
          "time": 220.3125,
          "velocity": 0.3937007874015748
        },
        {
          "duration": 0.1875,
          "durationTicks": 192,
          "midi": 40,
          "name": "E2",
          "ticks": 225792,
          "time": 220.5,
          "velocity": 0.3937007874015748
        },
        {
          "duration": 0.1875,
          "durationTicks": 192,
          "midi": 59,
          "name": "B3",
          "ticks": 225792,
          "time": 220.5,
          "velocity": 0.3937007874015748
        },
        {
          "duration": 0.1875,
          "durationTicks": 192,
          "midi": 55,
          "name": "G3",
          "ticks": 225984,
          "time": 220.6875,
          "velocity": 0.3937007874015748
        },
        {
          "duration": 0.1875,
          "durationTicks": 192,
          "midi": 52,
          "name": "E3",
          "ticks": 226176,
          "time": 220.875,
          "velocity": 0.3937007874015748
        },
        {
          "duration": 0.1875,
          "durationTicks": 192,
          "midi": 40,
          "name": "E2",
          "ticks": 226368,
          "time": 221.0625,
          "velocity": 0.3937007874015748
        },
        {
          "duration": 0.9375,
          "durationTicks": 960,
          "midi": 48,
          "name": "C3",
          "ticks": 226368,
          "time": 221.0625,
          "velocity": 0.3937007874015748
        },
        {
          "duration": 0.1875,
          "durationTicks": 192,
          "midi": 40,
          "name": "E2",
          "ticks": 226944,
          "time": 221.625,
          "velocity": 0.3937007874015748
        },
        {
          "duration": 0.1875,
          "durationTicks": 192,
          "midi": 59,
          "name": "B3",
          "ticks": 227328,
          "time": 222,
          "velocity": 0.3937007874015748
        },
        {
          "duration": 0.1875,
          "durationTicks": 192,
          "midi": 40,
          "name": "E2",
          "ticks": 227328,
          "time": 222,
          "velocity": 0.3937007874015748
        },
        {
          "duration": 0.1875,
          "durationTicks": 192,
          "midi": 55,
          "name": "G3",
          "ticks": 227520,
          "time": 222.1875,
          "velocity": 0.3937007874015748
        },
        {
          "duration": 0.1875,
          "durationTicks": 192,
          "midi": 52,
          "name": "E3",
          "ticks": 227712,
          "time": 222.375,
          "velocity": 0.3937007874015748
        },
        {
          "duration": 0.1875,
          "durationTicks": 192,
          "midi": 58,
          "name": "A#3",
          "ticks": 227904,
          "time": 222.5625,
          "velocity": 0.3937007874015748
        },
        {
          "duration": 0.1875,
          "durationTicks": 192,
          "midi": 39,
          "name": "D#2",
          "ticks": 227904,
          "time": 222.5625,
          "velocity": 0.3937007874015748
        },
        {
          "duration": 0.1875,
          "durationTicks": 192,
          "midi": 55,
          "name": "G3",
          "ticks": 228096,
          "time": 222.75,
          "velocity": 0.3937007874015748
        },
        {
          "duration": 0.1875,
          "durationTicks": 192,
          "midi": 52,
          "name": "E3",
          "ticks": 228288,
          "time": 222.9375,
          "velocity": 0.3937007874015748
        },
        {
          "duration": 0.1875,
          "durationTicks": 192,
          "midi": 39,
          "name": "D#2",
          "ticks": 228480,
          "time": 223.125,
          "velocity": 0.3937007874015748
        },
        {
          "duration": 0.1875,
          "durationTicks": 192,
          "midi": 58,
          "name": "A#3",
          "ticks": 228480,
          "time": 223.125,
          "velocity": 0.3937007874015748
        },
        {
          "duration": 0.1875,
          "durationTicks": 192,
          "midi": 55,
          "name": "G3",
          "ticks": 228672,
          "time": 223.3125,
          "velocity": 0.3937007874015748
        },
        {
          "duration": 0.1875,
          "durationTicks": 192,
          "midi": 40,
          "name": "E2",
          "ticks": 228864,
          "time": 223.5,
          "velocity": 0.3937007874015748
        },
        {
          "duration": 0.1875,
          "durationTicks": 192,
          "midi": 59,
          "name": "B3",
          "ticks": 228864,
          "time": 223.5,
          "velocity": 0.3937007874015748
        },
        {
          "duration": 0.1875,
          "durationTicks": 192,
          "midi": 55,
          "name": "G3",
          "ticks": 229056,
          "time": 223.6875,
          "velocity": 0.3937007874015748
        },
        {
          "duration": 0.1875,
          "durationTicks": 192,
          "midi": 52,
          "name": "E3",
          "ticks": 229248,
          "time": 223.875,
          "velocity": 0.3937007874015748
        },
        {
          "duration": 0.1875,
          "durationTicks": 192,
          "midi": 58,
          "name": "A#3",
          "ticks": 229440,
          "time": 224.0625,
          "velocity": 0.3937007874015748
        },
        {
          "duration": 0.1875,
          "durationTicks": 192,
          "midi": 39,
          "name": "D#2",
          "ticks": 229440,
          "time": 224.0625,
          "velocity": 0.3937007874015748
        },
        {
          "duration": 0.1875,
          "durationTicks": 192,
          "midi": 55,
          "name": "G3",
          "ticks": 229632,
          "time": 224.25,
          "velocity": 0.3937007874015748
        },
        {
          "duration": 0.1875,
          "durationTicks": 192,
          "midi": 52,
          "name": "E3",
          "ticks": 229824,
          "time": 224.4375,
          "velocity": 0.3937007874015748
        },
        {
          "duration": 0.1875,
          "durationTicks": 192,
          "midi": 60,
          "name": "C4",
          "ticks": 230016,
          "time": 224.625,
          "velocity": 0.3937007874015748
        },
        {
          "duration": 0.1875,
          "durationTicks": 192,
          "midi": 39,
          "name": "D#2",
          "ticks": 230016,
          "time": 224.625,
          "velocity": 0.3937007874015748
        },
        {
          "duration": 0.1875,
          "durationTicks": 192,
          "midi": 58,
          "name": "A#3",
          "ticks": 230208,
          "time": 224.8125,
          "velocity": 0.3937007874015748
        },
        {
          "duration": 0.1875,
          "durationTicks": 192,
          "midi": 40,
          "name": "E2",
          "ticks": 230400,
          "time": 225,
          "velocity": 0.3937007874015748
        },
        {
          "duration": 0.1875,
          "durationTicks": 192,
          "midi": 59,
          "name": "B3",
          "ticks": 230400,
          "time": 225,
          "velocity": 0.3937007874015748
        },
        {
          "duration": 0.1875,
          "durationTicks": 192,
          "midi": 55,
          "name": "G3",
          "ticks": 230592,
          "time": 225.1875,
          "velocity": 0.3937007874015748
        },
        {
          "duration": 0.1875,
          "durationTicks": 192,
          "midi": 52,
          "name": "E3",
          "ticks": 230784,
          "time": 225.375,
          "velocity": 0.3937007874015748
        },
        {
          "duration": 0.1875,
          "durationTicks": 192,
          "midi": 39,
          "name": "D#2",
          "ticks": 230976,
          "time": 225.5625,
          "velocity": 0.3937007874015748
        },
        {
          "duration": 0.1875,
          "durationTicks": 192,
          "midi": 58,
          "name": "A#3",
          "ticks": 230976,
          "time": 225.5625,
          "velocity": 0.3937007874015748
        },
        {
          "duration": 0.1875,
          "durationTicks": 192,
          "midi": 55,
          "name": "G3",
          "ticks": 231168,
          "time": 225.75,
          "velocity": 0.3937007874015748
        },
        {
          "duration": 0.1875,
          "durationTicks": 192,
          "midi": 52,
          "name": "E3",
          "ticks": 231360,
          "time": 225.9375,
          "velocity": 0.3937007874015748
        },
        {
          "duration": 0.1875,
          "durationTicks": 192,
          "midi": 58,
          "name": "A#3",
          "ticks": 231552,
          "time": 226.125,
          "velocity": 0.3937007874015748
        },
        {
          "duration": 0.1875,
          "durationTicks": 192,
          "midi": 39,
          "name": "D#2",
          "ticks": 231552,
          "time": 226.125,
          "velocity": 0.3937007874015748
        },
        {
          "duration": 0.1875,
          "durationTicks": 192,
          "midi": 55,
          "name": "G3",
          "ticks": 231744,
          "time": 226.3125,
          "velocity": 0.3937007874015748
        },
        {
          "duration": 0.1875,
          "durationTicks": 192,
          "midi": 59,
          "name": "B3",
          "ticks": 231936,
          "time": 226.5,
          "velocity": 0.3937007874015748
        },
        {
          "duration": 0.1875,
          "durationTicks": 192,
          "midi": 40,
          "name": "E2",
          "ticks": 231936,
          "time": 226.5,
          "velocity": 0.3937007874015748
        },
        {
          "duration": 0.1875,
          "durationTicks": 192,
          "midi": 55,
          "name": "G3",
          "ticks": 232128,
          "time": 226.6875,
          "velocity": 0.3937007874015748
        },
        {
          "duration": 0.1875,
          "durationTicks": 192,
          "midi": 52,
          "name": "E3",
          "ticks": 232320,
          "time": 226.875,
          "velocity": 0.3937007874015748
        },
        {
          "duration": 0.9375,
          "durationTicks": 960,
          "midi": 48,
          "name": "C3",
          "ticks": 232512,
          "time": 227.0625,
          "velocity": 0.3937007874015748
        },
        {
          "duration": 0.1875,
          "durationTicks": 192,
          "midi": 40,
          "name": "E2",
          "ticks": 232512,
          "time": 227.0625,
          "velocity": 0.3937007874015748
        },
        {
          "duration": 0.1875,
          "durationTicks": 192,
          "midi": 40,
          "name": "E2",
          "ticks": 233088,
          "time": 227.625,
          "velocity": 0.3937007874015748
        },
        {
          "duration": 0.1875,
          "durationTicks": 192,
          "midi": 40,
          "name": "E2",
          "ticks": 233472,
          "time": 228,
          "velocity": 0.3937007874015748
        },
        {
          "duration": 0.1875,
          "durationTicks": 192,
          "midi": 59,
          "name": "B3",
          "ticks": 233472,
          "time": 228,
          "velocity": 0.3937007874015748
        },
        {
          "duration": 0.1875,
          "durationTicks": 192,
          "midi": 55,
          "name": "G3",
          "ticks": 233664,
          "time": 228.1875,
          "velocity": 0.3937007874015748
        },
        {
          "duration": 0.1875,
          "durationTicks": 192,
          "midi": 52,
          "name": "E3",
          "ticks": 233856,
          "time": 228.375,
          "velocity": 0.3937007874015748
        },
        {
          "duration": 0.1875,
          "durationTicks": 192,
          "midi": 39,
          "name": "D#2",
          "ticks": 234048,
          "time": 228.5625,
          "velocity": 0.3937007874015748
        },
        {
          "duration": 0.1875,
          "durationTicks": 192,
          "midi": 58,
          "name": "A#3",
          "ticks": 234048,
          "time": 228.5625,
          "velocity": 0.3937007874015748
        },
        {
          "duration": 0.1875,
          "durationTicks": 192,
          "midi": 55,
          "name": "G3",
          "ticks": 234240,
          "time": 228.75,
          "velocity": 0.3937007874015748
        },
        {
          "duration": 0.1875,
          "durationTicks": 192,
          "midi": 52,
          "name": "E3",
          "ticks": 234432,
          "time": 228.9375,
          "velocity": 0.3937007874015748
        },
        {
          "duration": 0.1875,
          "durationTicks": 192,
          "midi": 39,
          "name": "D#2",
          "ticks": 234624,
          "time": 229.125,
          "velocity": 0.3937007874015748
        },
        {
          "duration": 0.1875,
          "durationTicks": 192,
          "midi": 58,
          "name": "A#3",
          "ticks": 234624,
          "time": 229.125,
          "velocity": 0.3937007874015748
        },
        {
          "duration": 0.1875,
          "durationTicks": 192,
          "midi": 55,
          "name": "G3",
          "ticks": 234816,
          "time": 229.3125,
          "velocity": 0.3937007874015748
        },
        {
          "duration": 0.1875,
          "durationTicks": 192,
          "midi": 40,
          "name": "E2",
          "ticks": 235008,
          "time": 229.5,
          "velocity": 0.3937007874015748
        },
        {
          "duration": 0.1875,
          "durationTicks": 192,
          "midi": 59,
          "name": "B3",
          "ticks": 235008,
          "time": 229.5,
          "velocity": 0.3937007874015748
        },
        {
          "duration": 0.1875,
          "durationTicks": 192,
          "midi": 55,
          "name": "G3",
          "ticks": 235200,
          "time": 229.6875,
          "velocity": 0.3937007874015748
        },
        {
          "duration": 0.1875,
          "durationTicks": 192,
          "midi": 52,
          "name": "E3",
          "ticks": 235392,
          "time": 229.875,
          "velocity": 0.3937007874015748
        },
        {
          "duration": 0.1875,
          "durationTicks": 192,
          "midi": 58,
          "name": "A#3",
          "ticks": 235584,
          "time": 230.0625,
          "velocity": 0.3937007874015748
        },
        {
          "duration": 0.1875,
          "durationTicks": 192,
          "midi": 39,
          "name": "D#2",
          "ticks": 235584,
          "time": 230.0625,
          "velocity": 0.3937007874015748
        },
        {
          "duration": 0.1875,
          "durationTicks": 192,
          "midi": 55,
          "name": "G3",
          "ticks": 235776,
          "time": 230.25,
          "velocity": 0.3937007874015748
        },
        {
          "duration": 0.1875,
          "durationTicks": 192,
          "midi": 52,
          "name": "E3",
          "ticks": 235968,
          "time": 230.4375,
          "velocity": 0.3937007874015748
        },
        {
          "duration": 0.1875,
          "durationTicks": 192,
          "midi": 39,
          "name": "D#2",
          "ticks": 236160,
          "time": 230.625,
          "velocity": 0.3937007874015748
        },
        {
          "duration": 0.1875,
          "durationTicks": 192,
          "midi": 60,
          "name": "C4",
          "ticks": 236160,
          "time": 230.625,
          "velocity": 0.3937007874015748
        },
        {
          "duration": 0.1875,
          "durationTicks": 192,
          "midi": 58,
          "name": "A#3",
          "ticks": 236352,
          "time": 230.8125,
          "velocity": 0.3937007874015748
        },
        {
          "duration": 0.1875,
          "durationTicks": 192,
          "midi": 59,
          "name": "B3",
          "ticks": 236544,
          "time": 231,
          "velocity": 0.3937007874015748
        },
        {
          "duration": 0.1875,
          "durationTicks": 192,
          "midi": 40,
          "name": "E2",
          "ticks": 236544,
          "time": 231,
          "velocity": 0.3937007874015748
        },
        {
          "duration": 0.1875,
          "durationTicks": 192,
          "midi": 55,
          "name": "G3",
          "ticks": 236736,
          "time": 231.1875,
          "velocity": 0.3937007874015748
        },
        {
          "duration": 0.1875,
          "durationTicks": 192,
          "midi": 52,
          "name": "E3",
          "ticks": 236928,
          "time": 231.375,
          "velocity": 0.3937007874015748
        },
        {
          "duration": 0.1875,
          "durationTicks": 192,
          "midi": 39,
          "name": "D#2",
          "ticks": 237120,
          "time": 231.5625,
          "velocity": 0.3937007874015748
        },
        {
          "duration": 0.1875,
          "durationTicks": 192,
          "midi": 58,
          "name": "A#3",
          "ticks": 237120,
          "time": 231.5625,
          "velocity": 0.3937007874015748
        },
        {
          "duration": 0.1875,
          "durationTicks": 192,
          "midi": 55,
          "name": "G3",
          "ticks": 237312,
          "time": 231.75,
          "velocity": 0.3937007874015748
        },
        {
          "duration": 0.1875,
          "durationTicks": 192,
          "midi": 52,
          "name": "E3",
          "ticks": 237504,
          "time": 231.9375,
          "velocity": 0.3937007874015748
        },
        {
          "duration": 0.1875,
          "durationTicks": 192,
          "midi": 58,
          "name": "A#3",
          "ticks": 237696,
          "time": 232.125,
          "velocity": 0.3937007874015748
        },
        {
          "duration": 0.1875,
          "durationTicks": 192,
          "midi": 39,
          "name": "D#2",
          "ticks": 237696,
          "time": 232.125,
          "velocity": 0.3937007874015748
        },
        {
          "duration": 0.1875,
          "durationTicks": 192,
          "midi": 55,
          "name": "G3",
          "ticks": 237888,
          "time": 232.3125,
          "velocity": 0.3937007874015748
        },
        {
          "duration": 0.1875,
          "durationTicks": 192,
          "midi": 40,
          "name": "E2",
          "ticks": 238080,
          "time": 232.5,
          "velocity": 0.3937007874015748
        },
        {
          "duration": 0.1875,
          "durationTicks": 192,
          "midi": 59,
          "name": "B3",
          "ticks": 238080,
          "time": 232.5,
          "velocity": 0.3937007874015748
        },
        {
          "duration": 0.1875,
          "durationTicks": 192,
          "midi": 55,
          "name": "G3",
          "ticks": 238272,
          "time": 232.6875,
          "velocity": 0.3937007874015748
        },
        {
          "duration": 0.1875,
          "durationTicks": 192,
          "midi": 52,
          "name": "E3",
          "ticks": 238464,
          "time": 232.875,
          "velocity": 0.3937007874015748
        },
        {
          "duration": 0.9375,
          "durationTicks": 960,
          "midi": 47,
          "name": "B2",
          "ticks": 238656,
          "time": 233.0625,
          "velocity": 0.3937007874015748
        },
        {
          "duration": 0.9375,
          "durationTicks": 960,
          "midi": 52,
          "name": "E3",
          "ticks": 239616,
          "time": 234,
          "velocity": 0.3937007874015748
        }
      ],
      "endOfTrackTicks": 240576
    },
    {
      "channel": 12,
      "controlChanges": {},
      "pitchBends": [],
      "instrument": {
        "family": "piano",
        "number": 0,
        "name": "acoustic grand piano"
      },
      "name": "808 Bass",
      "notes": [
        {
          "duration": 0.09375,
          "durationTicks": 96,
          "midi": 40,
          "name": "E2",
          "ticks": 10752,
          "time": 10.5,
          "velocity": 0.3937007874015748
        },
        {
          "duration": 0.09375,
          "durationTicks": 96,
          "midi": 47,
          "name": "B2",
          "ticks": 10752,
          "time": 10.5,
          "velocity": 0.3937007874015748
        }
      ],
      "endOfTrackTicks": 10848
    },
    {
      "channel": 13,
      "controlChanges": {},
      "pitchBends": [],
      "instrument": {
        "family": "guitar",
        "number": 30,
        "name": "distortion guitar"
      },
      "name": "Distortion Guitar",
      "notes": [
        {
          "duration": 0.1875,
          "durationTicks": 192,
          "midi": 47,
          "name": "B2",
          "ticks": 0,
          "time": 0,
          "velocity": 0.3937007874015748
        },
        {
          "duration": 0.1875,
          "durationTicks": 192,
          "midi": 40,
          "name": "E2",
          "ticks": 0,
          "time": 0,
          "velocity": 0.3937007874015748
        },
        {
          "duration": 0.1875,
          "durationTicks": 192,
          "midi": 47,
          "name": "B2",
          "ticks": 576,
          "time": 0.5625,
          "velocity": 0.3937007874015748
        },
        {
          "duration": 0.1875,
          "durationTicks": 192,
          "midi": 39,
          "name": "D#2",
          "ticks": 576,
          "time": 0.5625,
          "velocity": 0.3937007874015748
        },
        {
          "duration": 0.1875,
          "durationTicks": 192,
          "midi": 47,
          "name": "B2",
          "ticks": 1152,
          "time": 1.125,
          "velocity": 0.3937007874015748
        },
        {
          "duration": 0.1875,
          "durationTicks": 192,
          "midi": 39,
          "name": "D#2",
          "ticks": 1152,
          "time": 1.125,
          "velocity": 0.3937007874015748
        },
        {
          "duration": 0.1875,
          "durationTicks": 192,
          "midi": 47,
          "name": "B2",
          "ticks": 1536,
          "time": 1.5,
          "velocity": 0.3937007874015748
        },
        {
          "duration": 0.1875,
          "durationTicks": 192,
          "midi": 40,
          "name": "E2",
          "ticks": 1536,
          "time": 1.5,
          "velocity": 0.3937007874015748
        },
        {
          "duration": 0.1875,
          "durationTicks": 192,
          "midi": 39,
          "name": "D#2",
          "ticks": 2112,
          "time": 2.0625,
          "velocity": 0.3937007874015748
        },
        {
          "duration": 0.1875,
          "durationTicks": 192,
          "midi": 47,
          "name": "B2",
          "ticks": 2112,
          "time": 2.0625,
          "velocity": 0.3937007874015748
        },
        {
          "duration": 0.1875,
          "durationTicks": 192,
          "midi": 47,
          "name": "B2",
          "ticks": 2688,
          "time": 2.625,
          "velocity": 0.3937007874015748
        },
        {
          "duration": 0.1875,
          "durationTicks": 192,
          "midi": 39,
          "name": "D#2",
          "ticks": 2688,
          "time": 2.625,
          "velocity": 0.3937007874015748
        },
        {
          "duration": 0.1875,
          "durationTicks": 192,
          "midi": 40,
          "name": "E2",
          "ticks": 3072,
          "time": 3,
          "velocity": 0.3937007874015748
        },
        {
          "duration": 0.1875,
          "durationTicks": 192,
          "midi": 47,
          "name": "B2",
          "ticks": 3072,
          "time": 3,
          "velocity": 0.3937007874015748
        },
        {
          "duration": 0.1875,
          "durationTicks": 192,
          "midi": 39,
          "name": "D#2",
          "ticks": 3648,
          "time": 3.5625,
          "velocity": 0.3937007874015748
        },
        {
          "duration": 0.1875,
          "durationTicks": 192,
          "midi": 47,
          "name": "B2",
          "ticks": 3648,
          "time": 3.5625,
          "velocity": 0.3937007874015748
        },
        {
          "duration": 0.1875,
          "durationTicks": 192,
          "midi": 39,
          "name": "D#2",
          "ticks": 4224,
          "time": 4.125,
          "velocity": 0.3937007874015748
        },
        {
          "duration": 0.1875,
          "durationTicks": 192,
          "midi": 47,
          "name": "B2",
          "ticks": 4224,
          "time": 4.125,
          "velocity": 0.3937007874015748
        },
        {
          "duration": 0.1875,
          "durationTicks": 192,
          "midi": 47,
          "name": "B2",
          "ticks": 4608,
          "time": 4.5,
          "velocity": 0.3937007874015748
        },
        {
          "duration": 0.1875,
          "durationTicks": 192,
          "midi": 40,
          "name": "E2",
          "ticks": 4608,
          "time": 4.5,
          "velocity": 0.3937007874015748
        },
        {
          "duration": 0.1875,
          "durationTicks": 192,
          "midi": 47,
          "name": "B2",
          "ticks": 5184,
          "time": 5.0625,
          "velocity": 0.3937007874015748
        },
        {
          "duration": 0.1875,
          "durationTicks": 192,
          "midi": 39,
          "name": "D#2",
          "ticks": 5184,
          "time": 5.0625,
          "velocity": 0.3937007874015748
        },
        {
          "duration": 0.1875,
          "durationTicks": 192,
          "midi": 39,
          "name": "D#2",
          "ticks": 5760,
          "time": 5.625,
          "velocity": 0.3937007874015748
        },
        {
          "duration": 0.1875,
          "durationTicks": 192,
          "midi": 47,
          "name": "B2",
          "ticks": 5760,
          "time": 5.625,
          "velocity": 0.3937007874015748
        },
        {
          "duration": 0.1875,
          "durationTicks": 192,
          "midi": 47,
          "name": "B2",
          "ticks": 6144,
          "time": 6,
          "velocity": 0.3937007874015748
        },
        {
          "duration": 0.1875,
          "durationTicks": 192,
          "midi": 40,
          "name": "E2",
          "ticks": 6144,
          "time": 6,
          "velocity": 0.3937007874015748
        },
        {
          "duration": 0.1875,
          "durationTicks": 192,
          "midi": 39,
          "name": "D#2",
          "ticks": 6720,
          "time": 6.5625,
          "velocity": 0.3937007874015748
        },
        {
          "duration": 0.1875,
          "durationTicks": 192,
          "midi": 47,
          "name": "B2",
          "ticks": 6720,
          "time": 6.5625,
          "velocity": 0.3937007874015748
        },
        {
          "duration": 0.1875,
          "durationTicks": 192,
          "midi": 39,
          "name": "D#2",
          "ticks": 7296,
          "time": 7.125,
          "velocity": 0.3937007874015748
        },
        {
          "duration": 0.1875,
          "durationTicks": 192,
          "midi": 47,
          "name": "B2",
          "ticks": 7296,
          "time": 7.125,
          "velocity": 0.3937007874015748
        },
        {
          "duration": 0.1875,
          "durationTicks": 192,
          "midi": 47,
          "name": "B2",
          "ticks": 7680,
          "time": 7.5,
          "velocity": 0.3937007874015748
        },
        {
          "duration": 0.1875,
          "durationTicks": 192,
          "midi": 40,
          "name": "E2",
          "ticks": 7680,
          "time": 7.5,
          "velocity": 0.3937007874015748
        },
        {
          "duration": 0.1875,
          "durationTicks": 192,
          "midi": 39,
          "name": "D#2",
          "ticks": 8256,
          "time": 8.0625,
          "velocity": 0.3937007874015748
        },
        {
          "duration": 0.1875,
          "durationTicks": 192,
          "midi": 47,
          "name": "B2",
          "ticks": 8256,
          "time": 8.0625,
          "velocity": 0.3937007874015748
        },
        {
          "duration": 0.1875,
          "durationTicks": 192,
          "midi": 39,
          "name": "D#2",
          "ticks": 8832,
          "time": 8.625,
          "velocity": 0.3937007874015748
        },
        {
          "duration": 0.1875,
          "durationTicks": 192,
          "midi": 47,
          "name": "B2",
          "ticks": 8832,
          "time": 8.625,
          "velocity": 0.3937007874015748
        },
        {
          "duration": 0.1875,
          "durationTicks": 192,
          "midi": 47,
          "name": "B2",
          "ticks": 9216,
          "time": 9,
          "velocity": 0.3937007874015748
        },
        {
          "duration": 0.1875,
          "durationTicks": 192,
          "midi": 40,
          "name": "E2",
          "ticks": 9216,
          "time": 9,
          "velocity": 0.3937007874015748
        },
        {
          "duration": 0.1875,
          "durationTicks": 192,
          "midi": 39,
          "name": "D#2",
          "ticks": 9792,
          "time": 9.5625,
          "velocity": 0.3937007874015748
        },
        {
          "duration": 0.1875,
          "durationTicks": 192,
          "midi": 47,
          "name": "B2",
          "ticks": 9792,
          "time": 9.5625,
          "velocity": 0.3937007874015748
        },
        {
          "duration": 0.1875,
          "durationTicks": 192,
          "midi": 39,
          "name": "D#2",
          "ticks": 10368,
          "time": 10.125,
          "velocity": 0.3937007874015748
        },
        {
          "duration": 0.1875,
          "durationTicks": 192,
          "midi": 47,
          "name": "B2",
          "ticks": 10368,
          "time": 10.125,
          "velocity": 0.3937007874015748
        },
        {
          "duration": 0.1875,
          "durationTicks": 192,
          "midi": 40,
          "name": "E2",
          "ticks": 12288,
          "time": 12,
          "velocity": 0.3937007874015748
        },
        {
          "duration": 0.1875,
          "durationTicks": 192,
          "midi": 47,
          "name": "B2",
          "ticks": 12288,
          "time": 12,
          "velocity": 0.3937007874015748
        },
        {
          "duration": 0.1875,
          "durationTicks": 192,
          "midi": 39,
          "name": "D#2",
          "ticks": 12864,
          "time": 12.5625,
          "velocity": 0.3937007874015748
        },
        {
          "duration": 0.1875,
          "durationTicks": 192,
          "midi": 47,
          "name": "B2",
          "ticks": 12864,
          "time": 12.5625,
          "velocity": 0.3937007874015748
        },
        {
          "duration": 0.1875,
          "durationTicks": 192,
          "midi": 39,
          "name": "D#2",
          "ticks": 13440,
          "time": 13.125,
          "velocity": 0.3937007874015748
        },
        {
          "duration": 0.1875,
          "durationTicks": 192,
          "midi": 47,
          "name": "B2",
          "ticks": 13440,
          "time": 13.125,
          "velocity": 0.3937007874015748
        },
        {
          "duration": 0.1875,
          "durationTicks": 192,
          "midi": 47,
          "name": "B2",
          "ticks": 13824,
          "time": 13.5,
          "velocity": 0.3937007874015748
        },
        {
          "duration": 0.1875,
          "durationTicks": 192,
          "midi": 40,
          "name": "E2",
          "ticks": 13824,
          "time": 13.5,
          "velocity": 0.3937007874015748
        },
        {
          "duration": 0.1875,
          "durationTicks": 192,
          "midi": 39,
          "name": "D#2",
          "ticks": 14400,
          "time": 14.0625,
          "velocity": 0.3937007874015748
        },
        {
          "duration": 0.1875,
          "durationTicks": 192,
          "midi": 47,
          "name": "B2",
          "ticks": 14400,
          "time": 14.0625,
          "velocity": 0.3937007874015748
        },
        {
          "duration": 0.1875,
          "durationTicks": 192,
          "midi": 47,
          "name": "B2",
          "ticks": 14976,
          "time": 14.625,
          "velocity": 0.3937007874015748
        },
        {
          "duration": 0.1875,
          "durationTicks": 192,
          "midi": 39,
          "name": "D#2",
          "ticks": 14976,
          "time": 14.625,
          "velocity": 0.3937007874015748
        },
        {
          "duration": 0.1875,
          "durationTicks": 192,
          "midi": 40,
          "name": "E2",
          "ticks": 15360,
          "time": 15,
          "velocity": 0.3937007874015748
        },
        {
          "duration": 0.1875,
          "durationTicks": 192,
          "midi": 47,
          "name": "B2",
          "ticks": 15360,
          "time": 15,
          "velocity": 0.3937007874015748
        },
        {
          "duration": 0.1875,
          "durationTicks": 192,
          "midi": 39,
          "name": "D#2",
          "ticks": 15936,
          "time": 15.5625,
          "velocity": 0.3937007874015748
        },
        {
          "duration": 0.1875,
          "durationTicks": 192,
          "midi": 47,
          "name": "B2",
          "ticks": 15936,
          "time": 15.5625,
          "velocity": 0.3937007874015748
        },
        {
          "duration": 0.1875,
          "durationTicks": 192,
          "midi": 47,
          "name": "B2",
          "ticks": 16512,
          "time": 16.125,
          "velocity": 0.3937007874015748
        },
        {
          "duration": 0.1875,
          "durationTicks": 192,
          "midi": 39,
          "name": "D#2",
          "ticks": 16512,
          "time": 16.125,
          "velocity": 0.3937007874015748
        },
        {
          "duration": 0.1875,
          "durationTicks": 192,
          "midi": 40,
          "name": "E2",
          "ticks": 16896,
          "time": 16.5,
          "velocity": 0.3937007874015748
        },
        {
          "duration": 0.1875,
          "durationTicks": 192,
          "midi": 47,
          "name": "B2",
          "ticks": 16896,
          "time": 16.5,
          "velocity": 0.3937007874015748
        },
        {
          "duration": 0.1875,
          "durationTicks": 192,
          "midi": 47,
          "name": "B2",
          "ticks": 17472,
          "time": 17.0625,
          "velocity": 0.3937007874015748
        },
        {
          "duration": 0.1875,
          "durationTicks": 192,
          "midi": 40,
          "name": "E2",
          "ticks": 17472,
          "time": 17.0625,
          "velocity": 0.3937007874015748
        },
        {
          "duration": 0.1875,
          "durationTicks": 192,
          "midi": 40,
          "name": "E2",
          "ticks": 18048,
          "time": 17.625,
          "velocity": 0.3937007874015748
        },
        {
          "duration": 0.1875,
          "durationTicks": 192,
          "midi": 47,
          "name": "B2",
          "ticks": 18048,
          "time": 17.625,
          "velocity": 0.3937007874015748
        },
        {
          "duration": 0.1875,
          "durationTicks": 192,
          "midi": 40,
          "name": "E2",
          "ticks": 18432,
          "time": 18,
          "velocity": 0.3937007874015748
        },
        {
          "duration": 0.1875,
          "durationTicks": 192,
          "midi": 47,
          "name": "B2",
          "ticks": 18432,
          "time": 18,
          "velocity": 0.3937007874015748
        },
        {
          "duration": 0.1875,
          "durationTicks": 192,
          "midi": 39,
          "name": "D#2",
          "ticks": 19008,
          "time": 18.5625,
          "velocity": 0.3937007874015748
        },
        {
          "duration": 0.1875,
          "durationTicks": 192,
          "midi": 47,
          "name": "B2",
          "ticks": 19008,
          "time": 18.5625,
          "velocity": 0.3937007874015748
        },
        {
          "duration": 0.1875,
          "durationTicks": 192,
          "midi": 39,
          "name": "D#2",
          "ticks": 19584,
          "time": 19.125,
          "velocity": 0.3937007874015748
        },
        {
          "duration": 0.1875,
          "durationTicks": 192,
          "midi": 47,
          "name": "B2",
          "ticks": 19584,
          "time": 19.125,
          "velocity": 0.3937007874015748
        },
        {
          "duration": 0.1875,
          "durationTicks": 192,
          "midi": 40,
          "name": "E2",
          "ticks": 19968,
          "time": 19.5,
          "velocity": 0.3937007874015748
        },
        {
          "duration": 0.1875,
          "durationTicks": 192,
          "midi": 47,
          "name": "B2",
          "ticks": 19968,
          "time": 19.5,
          "velocity": 0.3937007874015748
        },
        {
          "duration": 0.1875,
          "durationTicks": 192,
          "midi": 47,
          "name": "B2",
          "ticks": 20544,
          "time": 20.0625,
          "velocity": 0.3937007874015748
        },
        {
          "duration": 0.1875,
          "durationTicks": 192,
          "midi": 39,
          "name": "D#2",
          "ticks": 20544,
          "time": 20.0625,
          "velocity": 0.3937007874015748
        },
        {
          "duration": 0.1875,
          "durationTicks": 192,
          "midi": 47,
          "name": "B2",
          "ticks": 21120,
          "time": 20.625,
          "velocity": 0.3937007874015748
        },
        {
          "duration": 0.1875,
          "durationTicks": 192,
          "midi": 39,
          "name": "D#2",
          "ticks": 21120,
          "time": 20.625,
          "velocity": 0.3937007874015748
        },
        {
          "duration": 0.1875,
          "durationTicks": 192,
          "midi": 40,
          "name": "E2",
          "ticks": 21504,
          "time": 21,
          "velocity": 0.3937007874015748
        },
        {
          "duration": 0.1875,
          "durationTicks": 192,
          "midi": 47,
          "name": "B2",
          "ticks": 21504,
          "time": 21,
          "velocity": 0.3937007874015748
        },
        {
          "duration": 0.1875,
          "durationTicks": 192,
          "midi": 47,
          "name": "B2",
          "ticks": 22080,
          "time": 21.5625,
          "velocity": 0.3937007874015748
        },
        {
          "duration": 0.1875,
          "durationTicks": 192,
          "midi": 39,
          "name": "D#2",
          "ticks": 22080,
          "time": 21.5625,
          "velocity": 0.3937007874015748
        },
        {
          "duration": 0.1875,
          "durationTicks": 192,
          "midi": 39,
          "name": "D#2",
          "ticks": 22656,
          "time": 22.125,
          "velocity": 0.3937007874015748
        },
        {
          "duration": 0.1875,
          "durationTicks": 192,
          "midi": 47,
          "name": "B2",
          "ticks": 22656,
          "time": 22.125,
          "velocity": 0.3937007874015748
        },
        {
          "duration": 0.1875,
          "durationTicks": 192,
          "midi": 47,
          "name": "B2",
          "ticks": 23040,
          "time": 22.5,
          "velocity": 0.3937007874015748
        },
        {
          "duration": 0.1875,
          "durationTicks": 192,
          "midi": 47,
          "name": "B2",
          "ticks": 23040,
          "time": 22.5,
          "velocity": 0.3937007874015748
        },
        {
          "duration": 0.1875,
          "durationTicks": 192,
          "midi": 47,
          "name": "B2",
          "ticks": 96768,
          "time": 94.5,
          "velocity": 0.3937007874015748
        },
        {
          "duration": 0.1875,
          "durationTicks": 192,
          "midi": 40,
          "name": "E2",
          "ticks": 96768,
          "time": 94.5,
          "velocity": 0.3937007874015748
        },
        {
          "duration": 0.1875,
          "durationTicks": 192,
          "midi": 47,
          "name": "B2",
          "ticks": 97344,
          "time": 95.0625,
          "velocity": 0.3937007874015748
        },
        {
          "duration": 0.1875,
          "durationTicks": 192,
          "midi": 39,
          "name": "D#2",
          "ticks": 97344,
          "time": 95.0625,
          "velocity": 0.3937007874015748
        },
        {
          "duration": 0.1875,
          "durationTicks": 192,
          "midi": 47,
          "name": "B2",
          "ticks": 97920,
          "time": 95.625,
          "velocity": 0.3937007874015748
        },
        {
          "duration": 0.1875,
          "durationTicks": 192,
          "midi": 39,
          "name": "D#2",
          "ticks": 97920,
          "time": 95.625,
          "velocity": 0.3937007874015748
        },
        {
          "duration": 0.1875,
          "durationTicks": 192,
          "midi": 47,
          "name": "B2",
          "ticks": 98304,
          "time": 96,
          "velocity": 0.3937007874015748
        },
        {
          "duration": 0.1875,
          "durationTicks": 192,
          "midi": 40,
          "name": "E2",
          "ticks": 98304,
          "time": 96,
          "velocity": 0.3937007874015748
        },
        {
          "duration": 0.1875,
          "durationTicks": 192,
          "midi": 39,
          "name": "D#2",
          "ticks": 98880,
          "time": 96.5625,
          "velocity": 0.3937007874015748
        },
        {
          "duration": 0.1875,
          "durationTicks": 192,
          "midi": 47,
          "name": "B2",
          "ticks": 98880,
          "time": 96.5625,
          "velocity": 0.3937007874015748
        },
        {
          "duration": 0.1875,
          "durationTicks": 192,
          "midi": 47,
          "name": "B2",
          "ticks": 99456,
          "time": 97.125,
          "velocity": 0.3937007874015748
        },
        {
          "duration": 0.1875,
          "durationTicks": 192,
          "midi": 39,
          "name": "D#2",
          "ticks": 99456,
          "time": 97.125,
          "velocity": 0.3937007874015748
        },
        {
          "duration": 0.1875,
          "durationTicks": 192,
          "midi": 40,
          "name": "E2",
          "ticks": 99840,
          "time": 97.5,
          "velocity": 0.3937007874015748
        },
        {
          "duration": 0.1875,
          "durationTicks": 192,
          "midi": 47,
          "name": "B2",
          "ticks": 99840,
          "time": 97.5,
          "velocity": 0.3937007874015748
        },
        {
          "duration": 0.1875,
          "durationTicks": 192,
          "midi": 47,
          "name": "B2",
          "ticks": 100416,
          "time": 98.0625,
          "velocity": 0.3937007874015748
        },
        {
          "duration": 0.1875,
          "durationTicks": 192,
          "midi": 39,
          "name": "D#2",
          "ticks": 100416,
          "time": 98.0625,
          "velocity": 0.3937007874015748
        },
        {
          "duration": 0.1875,
          "durationTicks": 192,
          "midi": 47,
          "name": "B2",
          "ticks": 100992,
          "time": 98.625,
          "velocity": 0.3937007874015748
        },
        {
          "duration": 0.1875,
          "durationTicks": 192,
          "midi": 39,
          "name": "D#2",
          "ticks": 100992,
          "time": 98.625,
          "velocity": 0.3937007874015748
        },
        {
          "duration": 0.1875,
          "durationTicks": 192,
          "midi": 40,
          "name": "E2",
          "ticks": 101376,
          "time": 99,
          "velocity": 0.3937007874015748
        },
        {
          "duration": 0.1875,
          "durationTicks": 192,
          "midi": 47,
          "name": "B2",
          "ticks": 101376,
          "time": 99,
          "velocity": 0.3937007874015748
        },
        {
          "duration": 0.1875,
          "durationTicks": 192,
          "midi": 47,
          "name": "B2",
          "ticks": 101952,
          "time": 99.5625,
          "velocity": 0.3937007874015748
        },
        {
          "duration": 0.1875,
          "durationTicks": 192,
          "midi": 40,
          "name": "E2",
          "ticks": 101952,
          "time": 99.5625,
          "velocity": 0.3937007874015748
        },
        {
          "duration": 0.1875,
          "durationTicks": 192,
          "midi": 40,
          "name": "E2",
          "ticks": 102528,
          "time": 100.125,
          "velocity": 0.3937007874015748
        },
        {
          "duration": 0.1875,
          "durationTicks": 192,
          "midi": 47,
          "name": "B2",
          "ticks": 102528,
          "time": 100.125,
          "velocity": 0.3937007874015748
        },
        {
          "duration": 0.1875,
          "durationTicks": 192,
          "midi": 47,
          "name": "B2",
          "ticks": 102912,
          "time": 100.5,
          "velocity": 0.3937007874015748
        },
        {
          "duration": 0.1875,
          "durationTicks": 192,
          "midi": 40,
          "name": "E2",
          "ticks": 102912,
          "time": 100.5,
          "velocity": 0.3937007874015748
        },
        {
          "duration": 0.1875,
          "durationTicks": 192,
          "midi": 47,
          "name": "B2",
          "ticks": 103488,
          "time": 101.0625,
          "velocity": 0.3937007874015748
        },
        {
          "duration": 0.1875,
          "durationTicks": 192,
          "midi": 39,
          "name": "D#2",
          "ticks": 103488,
          "time": 101.0625,
          "velocity": 0.3937007874015748
        },
        {
          "duration": 0.1875,
          "durationTicks": 192,
          "midi": 39,
          "name": "D#2",
          "ticks": 104064,
          "time": 101.625,
          "velocity": 0.3937007874015748
        },
        {
          "duration": 0.1875,
          "durationTicks": 192,
          "midi": 47,
          "name": "B2",
          "ticks": 104064,
          "time": 101.625,
          "velocity": 0.3937007874015748
        },
        {
          "duration": 0.1875,
          "durationTicks": 192,
          "midi": 40,
          "name": "E2",
          "ticks": 104448,
          "time": 102,
          "velocity": 0.3937007874015748
        },
        {
          "duration": 0.1875,
          "durationTicks": 192,
          "midi": 47,
          "name": "B2",
          "ticks": 104448,
          "time": 102,
          "velocity": 0.3937007874015748
        },
        {
          "duration": 0.1875,
          "durationTicks": 192,
          "midi": 47,
          "name": "B2",
          "ticks": 105024,
          "time": 102.5625,
          "velocity": 0.3937007874015748
        },
        {
          "duration": 0.1875,
          "durationTicks": 192,
          "midi": 39,
          "name": "D#2",
          "ticks": 105024,
          "time": 102.5625,
          "velocity": 0.3937007874015748
        },
        {
          "duration": 0.1875,
          "durationTicks": 192,
          "midi": 39,
          "name": "D#2",
          "ticks": 105600,
          "time": 103.125,
          "velocity": 0.3937007874015748
        },
        {
          "duration": 0.1875,
          "durationTicks": 192,
          "midi": 47,
          "name": "B2",
          "ticks": 105600,
          "time": 103.125,
          "velocity": 0.3937007874015748
        },
        {
          "duration": 0.1875,
          "durationTicks": 192,
          "midi": 47,
          "name": "B2",
          "ticks": 105984,
          "time": 103.5,
          "velocity": 0.3937007874015748
        },
        {
          "duration": 0.1875,
          "durationTicks": 192,
          "midi": 40,
          "name": "E2",
          "ticks": 105984,
          "time": 103.5,
          "velocity": 0.3937007874015748
        },
        {
          "duration": 0.1875,
          "durationTicks": 192,
          "midi": 39,
          "name": "D#2",
          "ticks": 106560,
          "time": 104.0625,
          "velocity": 0.3937007874015748
        },
        {
          "duration": 0.1875,
          "durationTicks": 192,
          "midi": 47,
          "name": "B2",
          "ticks": 106560,
          "time": 104.0625,
          "velocity": 0.3937007874015748
        },
        {
          "duration": 0.1875,
          "durationTicks": 192,
          "midi": 39,
          "name": "D#2",
          "ticks": 107136,
          "time": 104.625,
          "velocity": 0.3937007874015748
        },
        {
          "duration": 0.1875,
          "durationTicks": 192,
          "midi": 47,
          "name": "B2",
          "ticks": 107136,
          "time": 104.625,
          "velocity": 0.3937007874015748
        },
        {
          "duration": 0.1875,
          "durationTicks": 192,
          "midi": 47,
          "name": "B2",
          "ticks": 107520,
          "time": 105,
          "velocity": 0.3937007874015748
        },
        {
          "duration": 0.1875,
          "durationTicks": 192,
          "midi": 47,
          "name": "B2",
          "ticks": 107520,
          "time": 105,
          "velocity": 0.3937007874015748
        },
        {
          "duration": 1.5,
          "durationTicks": 1536,
          "midi": 52,
          "name": "E3",
          "ticks": 139776,
          "time": 136.5,
          "velocity": 0.3937007874015748
        },
        {
          "duration": 0.5625,
          "durationTicks": 576,
          "midi": 55,
          "name": "G3",
          "ticks": 141312,
          "time": 138,
          "velocity": 0.3937007874015748
        },
        {
          "duration": 0.5625,
          "durationTicks": 576,
          "midi": 59,
          "name": "B3",
          "ticks": 141888,
          "time": 138.5625,
          "velocity": 0.3937007874015748
        },
        {
          "duration": 0.375,
          "durationTicks": 384,
          "midi": 64,
          "name": "E4",
          "ticks": 142464,
          "time": 139.125,
          "velocity": 0.3937007874015748
        },
        {
          "duration": 1.125,
          "durationTicks": 1152,
          "midi": 66,
          "name": "F#4",
          "ticks": 142848,
          "time": 139.5,
          "velocity": 0.3937007874015748
        },
        {
          "duration": 0.75,
          "durationTicks": 768,
          "midi": 67,
          "name": "G4",
          "ticks": 143808,
          "time": 140.4375,
          "velocity": 0.3937007874015748
        },
        {
          "duration": 0.09375,
          "durationTicks": 96,
          "midi": 64,
          "name": "E4",
          "ticks": 144192,
          "time": 140.8125,
          "velocity": 0.3937007874015748
        },
        {
          "duration": 0.09375,
          "durationTicks": 96,
          "midi": 62,
          "name": "D4",
          "ticks": 144288,
          "time": 140.90625,
          "velocity": 0.3937007874015748
        },
        {
          "duration": 0.1875,
          "durationTicks": 192,
          "midi": 64,
          "name": "E4",
          "ticks": 144384,
          "time": 141,
          "velocity": 0.3937007874015748
        },
        {
          "duration": 1.03125,
          "durationTicks": 1056,
          "midi": 64,
          "name": "E4",
          "ticks": 144576,
          "time": 141.1875,
          "velocity": 0.3937007874015748
        },
        {
          "duration": 0.09375,
          "durationTicks": 96,
          "midi": 67,
          "name": "G4",
          "ticks": 145728,
          "time": 142.3125,
          "velocity": 0.3937007874015748
        },
        {
          "duration": 0.09375,
          "durationTicks": 96,
          "midi": 67,
          "name": "G4",
          "ticks": 145824,
          "time": 142.40625,
          "velocity": 0.3937007874015748
        },
        {
          "duration": 0.09375,
          "durationTicks": 96,
          "midi": 64,
          "name": "E4",
          "ticks": 145920,
          "time": 142.5,
          "velocity": 0.3937007874015748
        },
        {
          "duration": 0.09375,
          "durationTicks": 96,
          "midi": 64,
          "name": "E4",
          "ticks": 146016,
          "time": 142.59375,
          "velocity": 0.3937007874015748
        },
        {
          "duration": 0.09375,
          "durationTicks": 96,
          "midi": 64,
          "name": "E4",
          "ticks": 146112,
          "time": 142.6875,
          "velocity": 0.3937007874015748
        },
        {
          "duration": 0.09375,
          "durationTicks": 96,
          "midi": 64,
          "name": "E4",
          "ticks": 146208,
          "time": 142.78125,
          "velocity": 0.3937007874015748
        },
        {
          "duration": 0.09375,
          "durationTicks": 96,
          "midi": 64,
          "name": "E4",
          "ticks": 146304,
          "time": 142.875,
          "velocity": 0.3937007874015748
        },
        {
          "duration": 0.09375,
          "durationTicks": 96,
          "midi": 64,
          "name": "E4",
          "ticks": 146400,
          "time": 142.96875,
          "velocity": 0.3937007874015748
        },
        {
          "duration": 0.09375,
          "durationTicks": 96,
          "midi": 64,
          "name": "E4",
          "ticks": 146496,
          "time": 143.0625,
          "velocity": 0.3937007874015748
        },
        {
          "duration": 0.09375,
          "durationTicks": 96,
          "midi": 64,
          "name": "E4",
          "ticks": 146592,
          "time": 143.15625,
          "velocity": 0.3937007874015748
        },
        {
          "duration": 0.09375,
          "durationTicks": 96,
          "midi": 64,
          "name": "E4",
          "ticks": 146688,
          "time": 143.25,
          "velocity": 0.3937007874015748
        },
        {
          "duration": 0.09375,
          "durationTicks": 96,
          "midi": 64,
          "name": "E4",
          "ticks": 146784,
          "time": 143.34375,
          "velocity": 0.3937007874015748
        },
        {
          "duration": 0.09375,
          "durationTicks": 96,
          "midi": 64,
          "name": "E4",
          "ticks": 146880,
          "time": 143.4375,
          "velocity": 0.3937007874015748
        },
        {
          "duration": 0.09375,
          "durationTicks": 96,
          "midi": 64,
          "name": "E4",
          "ticks": 146976,
          "time": 143.53125,
          "velocity": 0.3937007874015748
        },
        {
          "duration": 0.09375,
          "durationTicks": 96,
          "midi": 67,
          "name": "G4",
          "ticks": 147072,
          "time": 143.625,
          "velocity": 0.3937007874015748
        },
        {
          "duration": 0.09375,
          "durationTicks": 96,
          "midi": 67,
          "name": "G4",
          "ticks": 147168,
          "time": 143.71875,
          "velocity": 0.3937007874015748
        },
        {
          "duration": 0.09375,
          "durationTicks": 96,
          "midi": 67,
          "name": "G4",
          "ticks": 147264,
          "time": 143.8125,
          "velocity": 0.3937007874015748
        },
        {
          "duration": 0.09375,
          "durationTicks": 96,
          "midi": 67,
          "name": "G4",
          "ticks": 147360,
          "time": 143.90625,
          "velocity": 0.3937007874015748
        },
        {
          "duration": 0.09375,
          "durationTicks": 96,
          "midi": 66,
          "name": "F#4",
          "ticks": 147456,
          "time": 144,
          "velocity": 0.3937007874015748
        },
        {
          "duration": 0.09375,
          "durationTicks": 96,
          "midi": 66,
          "name": "F#4",
          "ticks": 147552,
          "time": 144.09375,
          "velocity": 0.3937007874015748
        },
        {
          "duration": 0.09375,
          "durationTicks": 96,
          "midi": 66,
          "name": "F#4",
          "ticks": 147648,
          "time": 144.1875,
          "velocity": 0.3937007874015748
        },
        {
          "duration": 0.09375,
          "durationTicks": 96,
          "midi": 66,
          "name": "F#4",
          "ticks": 147744,
          "time": 144.28125,
          "velocity": 0.3937007874015748
        },
        {
          "duration": 0.09375,
          "durationTicks": 96,
          "midi": 66,
          "name": "F#4",
          "ticks": 147840,
          "time": 144.375,
          "velocity": 0.3937007874015748
        },
        {
          "duration": 0.09375,
          "durationTicks": 96,
          "midi": 66,
          "name": "F#4",
          "ticks": 147936,
          "time": 144.46875,
          "velocity": 0.3937007874015748
        },
        {
          "duration": 0.09375,
          "durationTicks": 96,
          "midi": 66,
          "name": "F#4",
          "ticks": 148032,
          "time": 144.5625,
          "velocity": 0.3937007874015748
        },
        {
          "duration": 0.09375,
          "durationTicks": 96,
          "midi": 66,
          "name": "F#4",
          "ticks": 148128,
          "time": 144.65625,
          "velocity": 0.3937007874015748
        },
        {
          "duration": 0.09375,
          "durationTicks": 96,
          "midi": 66,
          "name": "F#4",
          "ticks": 148224,
          "time": 144.75,
          "velocity": 0.3937007874015748
        },
        {
          "duration": 0.09375,
          "durationTicks": 96,
          "midi": 66,
          "name": "F#4",
          "ticks": 148320,
          "time": 144.84375,
          "velocity": 0.3937007874015748
        },
        {
          "duration": 0.09375,
          "durationTicks": 96,
          "midi": 66,
          "name": "F#4",
          "ticks": 148416,
          "time": 144.9375,
          "velocity": 0.3937007874015748
        },
        {
          "duration": 0.09375,
          "durationTicks": 96,
          "midi": 66,
          "name": "F#4",
          "ticks": 148512,
          "time": 145.03125,
          "velocity": 0.3937007874015748
        },
        {
          "duration": 0.09375,
          "durationTicks": 96,
          "midi": 66,
          "name": "F#4",
          "ticks": 148608,
          "time": 145.125,
          "velocity": 0.3937007874015748
        },
        {
          "duration": 0.09375,
          "durationTicks": 96,
          "midi": 66,
          "name": "F#4",
          "ticks": 148704,
          "time": 145.21875,
          "velocity": 0.3937007874015748
        },
        {
          "duration": 0.09375,
          "durationTicks": 96,
          "midi": 66,
          "name": "F#4",
          "ticks": 148800,
          "time": 145.3125,
          "velocity": 0.3937007874015748
        },
        {
          "duration": 0.09375,
          "durationTicks": 96,
          "midi": 66,
          "name": "F#4",
          "ticks": 148896,
          "time": 145.40625,
          "velocity": 0.3937007874015748
        },
        {
          "duration": 0.09375,
          "durationTicks": 96,
          "midi": 71,
          "name": "B4",
          "ticks": 148992,
          "time": 145.5,
          "velocity": 0.3937007874015748
        },
        {
          "duration": 0.09375,
          "durationTicks": 96,
          "midi": 71,
          "name": "B4",
          "ticks": 149088,
          "time": 145.59375,
          "velocity": 0.3937007874015748
        },
        {
          "duration": 0.09375,
          "durationTicks": 96,
          "midi": 71,
          "name": "B4",
          "ticks": 149184,
          "time": 145.6875,
          "velocity": 0.3937007874015748
        },
        {
          "duration": 0.09375,
          "durationTicks": 96,
          "midi": 71,
          "name": "B4",
          "ticks": 149280,
          "time": 145.78125,
          "velocity": 0.3937007874015748
        },
        {
          "duration": 0.09375,
          "durationTicks": 96,
          "midi": 71,
          "name": "B4",
          "ticks": 149376,
          "time": 145.875,
          "velocity": 0.3937007874015748
        },
        {
          "duration": 0.09375,
          "durationTicks": 96,
          "midi": 71,
          "name": "B4",
          "ticks": 149472,
          "time": 145.96875,
          "velocity": 0.3937007874015748
        },
        {
          "duration": 0.09375,
          "durationTicks": 96,
          "midi": 71,
          "name": "B4",
          "ticks": 149568,
          "time": 146.0625,
          "velocity": 0.3937007874015748
        },
        {
          "duration": 0.09375,
          "durationTicks": 96,
          "midi": 71,
          "name": "B4",
          "ticks": 149664,
          "time": 146.15625,
          "velocity": 0.3937007874015748
        },
        {
          "duration": 0.09375,
          "durationTicks": 96,
          "midi": 71,
          "name": "B4",
          "ticks": 149760,
          "time": 146.25,
          "velocity": 0.3937007874015748
        },
        {
          "duration": 0.09375,
          "durationTicks": 96,
          "midi": 71,
          "name": "B4",
          "ticks": 149856,
          "time": 146.34375,
          "velocity": 0.3937007874015748
        },
        {
          "duration": 0.09375,
          "durationTicks": 96,
          "midi": 71,
          "name": "B4",
          "ticks": 149952,
          "time": 146.4375,
          "velocity": 0.3937007874015748
        },
        {
          "duration": 0.09375,
          "durationTicks": 96,
          "midi": 71,
          "name": "B4",
          "ticks": 150048,
          "time": 146.53125,
          "velocity": 0.3937007874015748
        },
        {
          "duration": 0.09375,
          "durationTicks": 96,
          "midi": 71,
          "name": "B4",
          "ticks": 150144,
          "time": 146.625,
          "velocity": 0.3937007874015748
        },
        {
          "duration": 0.09375,
          "durationTicks": 96,
          "midi": 71,
          "name": "B4",
          "ticks": 150240,
          "time": 146.71875,
          "velocity": 0.3937007874015748
        },
        {
          "duration": 0.09375,
          "durationTicks": 96,
          "midi": 71,
          "name": "B4",
          "ticks": 150336,
          "time": 146.8125,
          "velocity": 0.3937007874015748
        },
        {
          "duration": 0.09375,
          "durationTicks": 96,
          "midi": 71,
          "name": "B4",
          "ticks": 150432,
          "time": 146.90625,
          "velocity": 0.3937007874015748
        },
        {
          "duration": 0.09375,
          "durationTicks": 96,
          "midi": 72,
          "name": "C5",
          "ticks": 150528,
          "time": 147,
          "velocity": 0.3937007874015748
        },
        {
          "duration": 0.09375,
          "durationTicks": 96,
          "midi": 72,
          "name": "C5",
          "ticks": 150624,
          "time": 147.09375,
          "velocity": 0.3937007874015748
        },
        {
          "duration": 0.09375,
          "durationTicks": 96,
          "midi": 72,
          "name": "C5",
          "ticks": 150720,
          "time": 147.1875,
          "velocity": 0.3937007874015748
        },
        {
          "duration": 0.09375,
          "durationTicks": 96,
          "midi": 72,
          "name": "C5",
          "ticks": 150816,
          "time": 147.28125,
          "velocity": 0.3937007874015748
        },
        {
          "duration": 0.09375,
          "durationTicks": 96,
          "midi": 72,
          "name": "C5",
          "ticks": 150912,
          "time": 147.375,
          "velocity": 0.3937007874015748
        },
        {
          "duration": 0.09375,
          "durationTicks": 96,
          "midi": 72,
          "name": "C5",
          "ticks": 151008,
          "time": 147.46875,
          "velocity": 0.3937007874015748
        },
        {
          "duration": 0.09375,
          "durationTicks": 96,
          "midi": 72,
          "name": "C5",
          "ticks": 151104,
          "time": 147.5625,
          "velocity": 0.3937007874015748
        },
        {
          "duration": 0.09375,
          "durationTicks": 96,
          "midi": 72,
          "name": "C5",
          "ticks": 151200,
          "time": 147.65625,
          "velocity": 0.3937007874015748
        },
        {
          "duration": 0.09375,
          "durationTicks": 96,
          "midi": 72,
          "name": "C5",
          "ticks": 151296,
          "time": 147.75,
          "velocity": 0.3937007874015748
        },
        {
          "duration": 0.09375,
          "durationTicks": 96,
          "midi": 72,
          "name": "C5",
          "ticks": 151392,
          "time": 147.84375,
          "velocity": 0.3937007874015748
        },
        {
          "duration": 0.09375,
          "durationTicks": 96,
          "midi": 72,
          "name": "C5",
          "ticks": 151488,
          "time": 147.9375,
          "velocity": 0.3937007874015748
        },
        {
          "duration": 0.09375,
          "durationTicks": 96,
          "midi": 72,
          "name": "C5",
          "ticks": 151584,
          "time": 148.03125,
          "velocity": 0.3937007874015748
        },
        {
          "duration": 0.09375,
          "durationTicks": 96,
          "midi": 72,
          "name": "C5",
          "ticks": 151680,
          "time": 148.125,
          "velocity": 0.3937007874015748
        },
        {
          "duration": 0.09375,
          "durationTicks": 96,
          "midi": 72,
          "name": "C5",
          "ticks": 151776,
          "time": 148.21875,
          "velocity": 0.3937007874015748
        },
        {
          "duration": 0.09375,
          "durationTicks": 96,
          "midi": 72,
          "name": "C5",
          "ticks": 151872,
          "time": 148.3125,
          "velocity": 0.3937007874015748
        },
        {
          "duration": 0.09375,
          "durationTicks": 96,
          "midi": 72,
          "name": "C5",
          "ticks": 151968,
          "time": 148.40625,
          "velocity": 0.3937007874015748
        },
        {
          "duration": 0.1875,
          "durationTicks": 192,
          "midi": 47,
          "name": "B2",
          "ticks": 181248,
          "time": 177,
          "velocity": 0.3937007874015748
        },
        {
          "duration": 0.1875,
          "durationTicks": 192,
          "midi": 40,
          "name": "E2",
          "ticks": 181248,
          "time": 177,
          "velocity": 0.3937007874015748
        },
        {
          "duration": 0.1875,
          "durationTicks": 192,
          "midi": 47,
          "name": "B2",
          "ticks": 181824,
          "time": 177.5625,
          "velocity": 0.3937007874015748
        },
        {
          "duration": 0.1875,
          "durationTicks": 192,
          "midi": 39,
          "name": "D#2",
          "ticks": 181824,
          "time": 177.5625,
          "velocity": 0.3937007874015748
        },
        {
          "duration": 0.1875,
          "durationTicks": 192,
          "midi": 39,
          "name": "D#2",
          "ticks": 182400,
          "time": 178.125,
          "velocity": 0.3937007874015748
        },
        {
          "duration": 0.1875,
          "durationTicks": 192,
          "midi": 47,
          "name": "B2",
          "ticks": 182400,
          "time": 178.125,
          "velocity": 0.3937007874015748
        },
        {
          "duration": 0.1875,
          "durationTicks": 192,
          "midi": 40,
          "name": "E2",
          "ticks": 182784,
          "time": 178.5,
          "velocity": 0.3937007874015748
        },
        {
          "duration": 0.1875,
          "durationTicks": 192,
          "midi": 47,
          "name": "B2",
          "ticks": 182784,
          "time": 178.5,
          "velocity": 0.3937007874015748
        },
        {
          "duration": 0.1875,
          "durationTicks": 192,
          "midi": 47,
          "name": "B2",
          "ticks": 183360,
          "time": 179.0625,
          "velocity": 0.3937007874015748
        },
        {
          "duration": 0.1875,
          "durationTicks": 192,
          "midi": 39,
          "name": "D#2",
          "ticks": 183360,
          "time": 179.0625,
          "velocity": 0.3937007874015748
        },
        {
          "duration": 0.1875,
          "durationTicks": 192,
          "midi": 47,
          "name": "B2",
          "ticks": 183936,
          "time": 179.625,
          "velocity": 0.3937007874015748
        },
        {
          "duration": 0.1875,
          "durationTicks": 192,
          "midi": 39,
          "name": "D#2",
          "ticks": 183936,
          "time": 179.625,
          "velocity": 0.3937007874015748
        },
        {
          "duration": 0.1875,
          "durationTicks": 192,
          "midi": 47,
          "name": "B2",
          "ticks": 184320,
          "time": 180,
          "velocity": 0.3937007874015748
        },
        {
          "duration": 0.1875,
          "durationTicks": 192,
          "midi": 40,
          "name": "E2",
          "ticks": 184320,
          "time": 180,
          "velocity": 0.3937007874015748
        },
        {
          "duration": 0.1875,
          "durationTicks": 192,
          "midi": 39,
          "name": "D#2",
          "ticks": 184896,
          "time": 180.5625,
          "velocity": 0.3937007874015748
        },
        {
          "duration": 0.1875,
          "durationTicks": 192,
          "midi": 47,
          "name": "B2",
          "ticks": 184896,
          "time": 180.5625,
          "velocity": 0.3937007874015748
        },
        {
          "duration": 0.1875,
          "durationTicks": 192,
          "midi": 47,
          "name": "B2",
          "ticks": 185472,
          "time": 181.125,
          "velocity": 0.3937007874015748
        },
        {
          "duration": 0.1875,
          "durationTicks": 192,
          "midi": 39,
          "name": "D#2",
          "ticks": 185472,
          "time": 181.125,
          "velocity": 0.3937007874015748
        },
        {
          "duration": 0.1875,
          "durationTicks": 192,
          "midi": 40,
          "name": "E2",
          "ticks": 185856,
          "time": 181.5,
          "velocity": 0.3937007874015748
        },
        {
          "duration": 0.1875,
          "durationTicks": 192,
          "midi": 47,
          "name": "B2",
          "ticks": 185856,
          "time": 181.5,
          "velocity": 0.3937007874015748
        },
        {
          "duration": 0.1875,
          "durationTicks": 192,
          "midi": 40,
          "name": "E2",
          "ticks": 186432,
          "time": 182.0625,
          "velocity": 0.3937007874015748
        },
        {
          "duration": 0.1875,
          "durationTicks": 192,
          "midi": 47,
          "name": "B2",
          "ticks": 186432,
          "time": 182.0625,
          "velocity": 0.3937007874015748
        },
        {
          "duration": 0.1875,
          "durationTicks": 192,
          "midi": 47,
          "name": "B2",
          "ticks": 187008,
          "time": 182.625,
          "velocity": 0.3937007874015748
        },
        {
          "duration": 0.1875,
          "durationTicks": 192,
          "midi": 40,
          "name": "E2",
          "ticks": 187008,
          "time": 182.625,
          "velocity": 0.3937007874015748
        },
        {
          "duration": 0.1875,
          "durationTicks": 192,
          "midi": 47,
          "name": "B2",
          "ticks": 187392,
          "time": 183,
          "velocity": 0.3937007874015748
        },
        {
          "duration": 0.1875,
          "durationTicks": 192,
          "midi": 40,
          "name": "E2",
          "ticks": 187392,
          "time": 183,
          "velocity": 0.3937007874015748
        },
        {
          "duration": 0.1875,
          "durationTicks": 192,
          "midi": 47,
          "name": "B2",
          "ticks": 187968,
          "time": 183.5625,
          "velocity": 0.3937007874015748
        },
        {
          "duration": 0.1875,
          "durationTicks": 192,
          "midi": 39,
          "name": "D#2",
          "ticks": 187968,
          "time": 183.5625,
          "velocity": 0.3937007874015748
        },
        {
          "duration": 0.1875,
          "durationTicks": 192,
          "midi": 39,
          "name": "D#2",
          "ticks": 188544,
          "time": 184.125,
          "velocity": 0.3937007874015748
        },
        {
          "duration": 0.1875,
          "durationTicks": 192,
          "midi": 47,
          "name": "B2",
          "ticks": 188544,
          "time": 184.125,
          "velocity": 0.3937007874015748
        },
        {
          "duration": 0.1875,
          "durationTicks": 192,
          "midi": 47,
          "name": "B2",
          "ticks": 188928,
          "time": 184.5,
          "velocity": 0.3937007874015748
        },
        {
          "duration": 0.1875,
          "durationTicks": 192,
          "midi": 40,
          "name": "E2",
          "ticks": 188928,
          "time": 184.5,
          "velocity": 0.3937007874015748
        },
        {
          "duration": 0.1875,
          "durationTicks": 192,
          "midi": 47,
          "name": "B2",
          "ticks": 189504,
          "time": 185.0625,
          "velocity": 0.3937007874015748
        },
        {
          "duration": 0.1875,
          "durationTicks": 192,
          "midi": 39,
          "name": "D#2",
          "ticks": 189504,
          "time": 185.0625,
          "velocity": 0.3937007874015748
        },
        {
          "duration": 0.1875,
          "durationTicks": 192,
          "midi": 47,
          "name": "B2",
          "ticks": 190080,
          "time": 185.625,
          "velocity": 0.3937007874015748
        },
        {
          "duration": 0.1875,
          "durationTicks": 192,
          "midi": 39,
          "name": "D#2",
          "ticks": 190080,
          "time": 185.625,
          "velocity": 0.3937007874015748
        },
        {
          "duration": 0.1875,
          "durationTicks": 192,
          "midi": 40,
          "name": "E2",
          "ticks": 190464,
          "time": 186,
          "velocity": 0.3937007874015748
        },
        {
          "duration": 0.1875,
          "durationTicks": 192,
          "midi": 47,
          "name": "B2",
          "ticks": 190464,
          "time": 186,
          "velocity": 0.3937007874015748
        },
        {
          "duration": 0.1875,
          "durationTicks": 192,
          "midi": 39,
          "name": "D#2",
          "ticks": 191040,
          "time": 186.5625,
          "velocity": 0.3937007874015748
        },
        {
          "duration": 0.1875,
          "durationTicks": 192,
          "midi": 47,
          "name": "B2",
          "ticks": 191040,
          "time": 186.5625,
          "velocity": 0.3937007874015748
        },
        {
          "duration": 0.1875,
          "durationTicks": 192,
          "midi": 47,
          "name": "B2",
          "ticks": 191616,
          "time": 187.125,
          "velocity": 0.3937007874015748
        },
        {
          "duration": 0.1875,
          "durationTicks": 192,
          "midi": 39,
          "name": "D#2",
          "ticks": 191616,
          "time": 187.125,
          "velocity": 0.3937007874015748
        },
        {
          "duration": 0.1875,
          "durationTicks": 192,
          "midi": 47,
          "name": "B2",
          "ticks": 192000,
          "time": 187.5,
          "velocity": 0.3937007874015748
        },
        {
          "duration": 0.1875,
          "durationTicks": 192,
          "midi": 48,
          "name": "C3",
          "ticks": 215040,
          "time": 210,
          "velocity": 0.3937007874015748
        },
        {
          "duration": 0.1875,
          "durationTicks": 192,
          "midi": 41,
          "name": "F2",
          "ticks": 215040,
          "time": 210,
          "velocity": 0.3937007874015748
        },
        {
          "duration": 0.1875,
          "durationTicks": 192,
          "midi": 40,
          "name": "E2",
          "ticks": 215616,
          "time": 210.5625,
          "velocity": 0.3937007874015748
        },
        {
          "duration": 0.1875,
          "durationTicks": 192,
          "midi": 48,
          "name": "C3",
          "ticks": 215616,
          "time": 210.5625,
          "velocity": 0.3937007874015748
        },
        {
          "duration": 0.1875,
          "durationTicks": 192,
          "midi": 48,
          "name": "C3",
          "ticks": 216192,
          "time": 211.125,
          "velocity": 0.3937007874015748
        },
        {
          "duration": 0.1875,
          "durationTicks": 192,
          "midi": 40,
          "name": "E2",
          "ticks": 216192,
          "time": 211.125,
          "velocity": 0.3937007874015748
        },
        {
          "duration": 0.1875,
          "durationTicks": 192,
          "midi": 41,
          "name": "F2",
          "ticks": 216576,
          "time": 211.5,
          "velocity": 0.3937007874015748
        },
        {
          "duration": 0.1875,
          "durationTicks": 192,
          "midi": 48,
          "name": "C3",
          "ticks": 216576,
          "time": 211.5,
          "velocity": 0.3937007874015748
        },
        {
          "duration": 0.1875,
          "durationTicks": 192,
          "midi": 48,
          "name": "C3",
          "ticks": 217152,
          "time": 212.0625,
          "velocity": 0.3937007874015748
        },
        {
          "duration": 0.1875,
          "durationTicks": 192,
          "midi": 40,
          "name": "E2",
          "ticks": 217152,
          "time": 212.0625,
          "velocity": 0.3937007874015748
        },
        {
          "duration": 0.1875,
          "durationTicks": 192,
          "midi": 40,
          "name": "E2",
          "ticks": 217728,
          "time": 212.625,
          "velocity": 0.3937007874015748
        },
        {
          "duration": 0.1875,
          "durationTicks": 192,
          "midi": 48,
          "name": "C3",
          "ticks": 217728,
          "time": 212.625,
          "velocity": 0.3937007874015748
        },
        {
          "duration": 0.1875,
          "durationTicks": 192,
          "midi": 48,
          "name": "C3",
          "ticks": 218112,
          "time": 213,
          "velocity": 0.3937007874015748
        },
        {
          "duration": 0.1875,
          "durationTicks": 192,
          "midi": 41,
          "name": "F2",
          "ticks": 218112,
          "time": 213,
          "velocity": 0.3937007874015748
        },
        {
          "duration": 0.1875,
          "durationTicks": 192,
          "midi": 40,
          "name": "E2",
          "ticks": 218688,
          "time": 213.5625,
          "velocity": 0.3937007874015748
        },
        {
          "duration": 0.1875,
          "durationTicks": 192,
          "midi": 48,
          "name": "C3",
          "ticks": 218688,
          "time": 213.5625,
          "velocity": 0.3937007874015748
        },
        {
          "duration": 0.1875,
          "durationTicks": 192,
          "midi": 48,
          "name": "C3",
          "ticks": 219264,
          "time": 214.125,
          "velocity": 0.3937007874015748
        },
        {
          "duration": 0.1875,
          "durationTicks": 192,
          "midi": 40,
          "name": "E2",
          "ticks": 219264,
          "time": 214.125,
          "velocity": 0.3937007874015748
        },
        {
          "duration": 0.1875,
          "durationTicks": 192,
          "midi": 41,
          "name": "F2",
          "ticks": 219648,
          "time": 214.5,
          "velocity": 0.3937007874015748
        },
        {
          "duration": 0.1875,
          "durationTicks": 192,
          "midi": 48,
          "name": "C3",
          "ticks": 219648,
          "time": 214.5,
          "velocity": 0.3937007874015748
        },
        {
          "duration": 0.1875,
          "durationTicks": 192,
          "midi": 48,
          "name": "C3",
          "ticks": 220224,
          "time": 215.0625,
          "velocity": 0.3937007874015748
        },
        {
          "duration": 0.1875,
          "durationTicks": 192,
          "midi": 41,
          "name": "F2",
          "ticks": 220224,
          "time": 215.0625,
          "velocity": 0.3937007874015748
        },
        {
          "duration": 0.1875,
          "durationTicks": 192,
          "midi": 48,
          "name": "C3",
          "ticks": 220800,
          "time": 215.625,
          "velocity": 0.3937007874015748
        },
        {
          "duration": 0.1875,
          "durationTicks": 192,
          "midi": 41,
          "name": "F2",
          "ticks": 220800,
          "time": 215.625,
          "velocity": 0.3937007874015748
        },
        {
          "duration": 0.1875,
          "durationTicks": 192,
          "midi": 40,
          "name": "E2",
          "ticks": 221184,
          "time": 216,
          "velocity": 0.3937007874015748
        },
        {
          "duration": 0.1875,
          "durationTicks": 192,
          "midi": 47,
          "name": "B2",
          "ticks": 221184,
          "time": 216,
          "velocity": 0.3937007874015748
        },
        {
          "duration": 0.1875,
          "durationTicks": 192,
          "midi": 47,
          "name": "B2",
          "ticks": 221760,
          "time": 216.5625,
          "velocity": 0.3937007874015748
        },
        {
          "duration": 0.1875,
          "durationTicks": 192,
          "midi": 39,
          "name": "D#2",
          "ticks": 221760,
          "time": 216.5625,
          "velocity": 0.3937007874015748
        },
        {
          "duration": 0.1875,
          "durationTicks": 192,
          "midi": 39,
          "name": "D#2",
          "ticks": 222336,
          "time": 217.125,
          "velocity": 0.3937007874015748
        },
        {
          "duration": 0.1875,
          "durationTicks": 192,
          "midi": 47,
          "name": "B2",
          "ticks": 222336,
          "time": 217.125,
          "velocity": 0.3937007874015748
        },
        {
          "duration": 0.1875,
          "durationTicks": 192,
          "midi": 40,
          "name": "E2",
          "ticks": 222720,
          "time": 217.5,
          "velocity": 0.3937007874015748
        },
        {
          "duration": 0.1875,
          "durationTicks": 192,
          "midi": 47,
          "name": "B2",
          "ticks": 222720,
          "time": 217.5,
          "velocity": 0.3937007874015748
        },
        {
          "duration": 0.1875,
          "durationTicks": 192,
          "midi": 39,
          "name": "D#2",
          "ticks": 223296,
          "time": 218.0625,
          "velocity": 0.3937007874015748
        },
        {
          "duration": 0.1875,
          "durationTicks": 192,
          "midi": 47,
          "name": "B2",
          "ticks": 223296,
          "time": 218.0625,
          "velocity": 0.3937007874015748
        },
        {
          "duration": 0.1875,
          "durationTicks": 192,
          "midi": 39,
          "name": "D#2",
          "ticks": 223872,
          "time": 218.625,
          "velocity": 0.3937007874015748
        },
        {
          "duration": 0.1875,
          "durationTicks": 192,
          "midi": 47,
          "name": "B2",
          "ticks": 223872,
          "time": 218.625,
          "velocity": 0.3937007874015748
        },
        {
          "duration": 0.1875,
          "durationTicks": 192,
          "midi": 40,
          "name": "E2",
          "ticks": 224256,
          "time": 219,
          "velocity": 0.3937007874015748
        },
        {
          "duration": 0.1875,
          "durationTicks": 192,
          "midi": 47,
          "name": "B2",
          "ticks": 224256,
          "time": 219,
          "velocity": 0.3937007874015748
        },
        {
          "duration": 0.1875,
          "durationTicks": 192,
          "midi": 47,
          "name": "B2",
          "ticks": 224832,
          "time": 219.5625,
          "velocity": 0.3937007874015748
        },
        {
          "duration": 0.1875,
          "durationTicks": 192,
          "midi": 39,
          "name": "D#2",
          "ticks": 224832,
          "time": 219.5625,
          "velocity": 0.3937007874015748
        },
        {
          "duration": 0.1875,
          "durationTicks": 192,
          "midi": 39,
          "name": "D#2",
          "ticks": 225408,
          "time": 220.125,
          "velocity": 0.3937007874015748
        },
        {
          "duration": 0.1875,
          "durationTicks": 192,
          "midi": 47,
          "name": "B2",
          "ticks": 225408,
          "time": 220.125,
          "velocity": 0.3937007874015748
        },
        {
          "duration": 0.1875,
          "durationTicks": 192,
          "midi": 47,
          "name": "B2",
          "ticks": 225792,
          "time": 220.5,
          "velocity": 0.3937007874015748
        },
        {
          "duration": 0.1875,
          "durationTicks": 192,
          "midi": 40,
          "name": "E2",
          "ticks": 225792,
          "time": 220.5,
          "velocity": 0.3937007874015748
        },
        {
          "duration": 0.1875,
          "durationTicks": 192,
          "midi": 40,
          "name": "E2",
          "ticks": 226368,
          "time": 221.0625,
          "velocity": 0.3937007874015748
        },
        {
          "duration": 0.1875,
          "durationTicks": 192,
          "midi": 47,
          "name": "B2",
          "ticks": 226368,
          "time": 221.0625,
          "velocity": 0.3937007874015748
        },
        {
          "duration": 0.1875,
          "durationTicks": 192,
          "midi": 40,
          "name": "E2",
          "ticks": 226944,
          "time": 221.625,
          "velocity": 0.3937007874015748
        },
        {
          "duration": 0.1875,
          "durationTicks": 192,
          "midi": 47,
          "name": "B2",
          "ticks": 226944,
          "time": 221.625,
          "velocity": 0.3937007874015748
        },
        {
          "duration": 0.1875,
          "durationTicks": 192,
          "midi": 47,
          "name": "B2",
          "ticks": 227328,
          "time": 222,
          "velocity": 0.3937007874015748
        },
        {
          "duration": 0.1875,
          "durationTicks": 192,
          "midi": 40,
          "name": "E2",
          "ticks": 227328,
          "time": 222,
          "velocity": 0.3937007874015748
        },
        {
          "duration": 0.1875,
          "durationTicks": 192,
          "midi": 47,
          "name": "B2",
          "ticks": 227904,
          "time": 222.5625,
          "velocity": 0.3937007874015748
        },
        {
          "duration": 0.1875,
          "durationTicks": 192,
          "midi": 39,
          "name": "D#2",
          "ticks": 227904,
          "time": 222.5625,
          "velocity": 0.3937007874015748
        },
        {
          "duration": 0.1875,
          "durationTicks": 192,
          "midi": 47,
          "name": "B2",
          "ticks": 228480,
          "time": 223.125,
          "velocity": 0.3937007874015748
        },
        {
          "duration": 0.1875,
          "durationTicks": 192,
          "midi": 39,
          "name": "D#2",
          "ticks": 228480,
          "time": 223.125,
          "velocity": 0.3937007874015748
        },
        {
          "duration": 0.1875,
          "durationTicks": 192,
          "midi": 40,
          "name": "E2",
          "ticks": 228864,
          "time": 223.5,
          "velocity": 0.3937007874015748
        },
        {
          "duration": 0.1875,
          "durationTicks": 192,
          "midi": 47,
          "name": "B2",
          "ticks": 228864,
          "time": 223.5,
          "velocity": 0.3937007874015748
        },
        {
          "duration": 0.1875,
          "durationTicks": 192,
          "midi": 47,
          "name": "B2",
          "ticks": 229440,
          "time": 224.0625,
          "velocity": 0.3937007874015748
        },
        {
          "duration": 0.1875,
          "durationTicks": 192,
          "midi": 39,
          "name": "D#2",
          "ticks": 229440,
          "time": 224.0625,
          "velocity": 0.3937007874015748
        },
        {
          "duration": 0.1875,
          "durationTicks": 192,
          "midi": 47,
          "name": "B2",
          "ticks": 230016,
          "time": 224.625,
          "velocity": 0.3937007874015748
        },
        {
          "duration": 0.1875,
          "durationTicks": 192,
          "midi": 39,
          "name": "D#2",
          "ticks": 230016,
          "time": 224.625,
          "velocity": 0.3937007874015748
        },
        {
          "duration": 0.1875,
          "durationTicks": 192,
          "midi": 47,
          "name": "B2",
          "ticks": 230400,
          "time": 225,
          "velocity": 0.3937007874015748
        },
        {
          "duration": 0.1875,
          "durationTicks": 192,
          "midi": 40,
          "name": "E2",
          "ticks": 230400,
          "time": 225,
          "velocity": 0.3937007874015748
        },
        {
          "duration": 0.1875,
          "durationTicks": 192,
          "midi": 39,
          "name": "D#2",
          "ticks": 230976,
          "time": 225.5625,
          "velocity": 0.3937007874015748
        },
        {
          "duration": 0.1875,
          "durationTicks": 192,
          "midi": 47,
          "name": "B2",
          "ticks": 230976,
          "time": 225.5625,
          "velocity": 0.3937007874015748
        },
        {
          "duration": 0.1875,
          "durationTicks": 192,
          "midi": 47,
          "name": "B2",
          "ticks": 231552,
          "time": 226.125,
          "velocity": 0.3937007874015748
        },
        {
          "duration": 0.1875,
          "durationTicks": 192,
          "midi": 39,
          "name": "D#2",
          "ticks": 231552,
          "time": 226.125,
          "velocity": 0.3937007874015748
        },
        {
          "duration": 0.1875,
          "durationTicks": 192,
          "midi": 40,
          "name": "E2",
          "ticks": 231936,
          "time": 226.5,
          "velocity": 0.3937007874015748
        },
        {
          "duration": 0.1875,
          "durationTicks": 192,
          "midi": 47,
          "name": "B2",
          "ticks": 231936,
          "time": 226.5,
          "velocity": 0.3937007874015748
        },
        {
          "duration": 0.1875,
          "durationTicks": 192,
          "midi": 47,
          "name": "B2",
          "ticks": 232512,
          "time": 227.0625,
          "velocity": 0.3937007874015748
        },
        {
          "duration": 0.1875,
          "durationTicks": 192,
          "midi": 40,
          "name": "E2",
          "ticks": 232512,
          "time": 227.0625,
          "velocity": 0.3937007874015748
        },
        {
          "duration": 0.1875,
          "durationTicks": 192,
          "midi": 40,
          "name": "E2",
          "ticks": 233088,
          "time": 227.625,
          "velocity": 0.3937007874015748
        },
        {
          "duration": 0.1875,
          "durationTicks": 192,
          "midi": 47,
          "name": "B2",
          "ticks": 233088,
          "time": 227.625,
          "velocity": 0.3937007874015748
        },
        {
          "duration": 0.1875,
          "durationTicks": 192,
          "midi": 40,
          "name": "E2",
          "ticks": 233472,
          "time": 228,
          "velocity": 0.3937007874015748
        },
        {
          "duration": 0.1875,
          "durationTicks": 192,
          "midi": 47,
          "name": "B2",
          "ticks": 233472,
          "time": 228,
          "velocity": 0.3937007874015748
        },
        {
          "duration": 0.1875,
          "durationTicks": 192,
          "midi": 47,
          "name": "B2",
          "ticks": 234048,
          "time": 228.5625,
          "velocity": 0.3937007874015748
        },
        {
          "duration": 0.1875,
          "durationTicks": 192,
          "midi": 39,
          "name": "D#2",
          "ticks": 234048,
          "time": 228.5625,
          "velocity": 0.3937007874015748
        },
        {
          "duration": 0.1875,
          "durationTicks": 192,
          "midi": 39,
          "name": "D#2",
          "ticks": 234624,
          "time": 229.125,
          "velocity": 0.3937007874015748
        },
        {
          "duration": 0.1875,
          "durationTicks": 192,
          "midi": 47,
          "name": "B2",
          "ticks": 234624,
          "time": 229.125,
          "velocity": 0.3937007874015748
        },
        {
          "duration": 0.1875,
          "durationTicks": 192,
          "midi": 47,
          "name": "B2",
          "ticks": 235008,
          "time": 229.5,
          "velocity": 0.3937007874015748
        },
        {
          "duration": 0.1875,
          "durationTicks": 192,
          "midi": 40,
          "name": "E2",
          "ticks": 235008,
          "time": 229.5,
          "velocity": 0.3937007874015748
        },
        {
          "duration": 0.1875,
          "durationTicks": 192,
          "midi": 47,
          "name": "B2",
          "ticks": 235584,
          "time": 230.0625,
          "velocity": 0.3937007874015748
        },
        {
          "duration": 0.1875,
          "durationTicks": 192,
          "midi": 39,
          "name": "D#2",
          "ticks": 235584,
          "time": 230.0625,
          "velocity": 0.3937007874015748
        },
        {
          "duration": 0.1875,
          "durationTicks": 192,
          "midi": 47,
          "name": "B2",
          "ticks": 236160,
          "time": 230.625,
          "velocity": 0.3937007874015748
        },
        {
          "duration": 0.1875,
          "durationTicks": 192,
          "midi": 39,
          "name": "D#2",
          "ticks": 236160,
          "time": 230.625,
          "velocity": 0.3937007874015748
        },
        {
          "duration": 0.1875,
          "durationTicks": 192,
          "midi": 47,
          "name": "B2",
          "ticks": 236544,
          "time": 231,
          "velocity": 0.3937007874015748
        },
        {
          "duration": 0.1875,
          "durationTicks": 192,
          "midi": 40,
          "name": "E2",
          "ticks": 236544,
          "time": 231,
          "velocity": 0.3937007874015748
        },
        {
          "duration": 0.1875,
          "durationTicks": 192,
          "midi": 47,
          "name": "B2",
          "ticks": 237120,
          "time": 231.5625,
          "velocity": 0.3937007874015748
        },
        {
          "duration": 0.1875,
          "durationTicks": 192,
          "midi": 39,
          "name": "D#2",
          "ticks": 237120,
          "time": 231.5625,
          "velocity": 0.3937007874015748
        },
        {
          "duration": 0.1875,
          "durationTicks": 192,
          "midi": 47,
          "name": "B2",
          "ticks": 237696,
          "time": 232.125,
          "velocity": 0.3937007874015748
        },
        {
          "duration": 0.1875,
          "durationTicks": 192,
          "midi": 39,
          "name": "D#2",
          "ticks": 237696,
          "time": 232.125,
          "velocity": 0.3937007874015748
        },
        {
          "duration": 0.1875,
          "durationTicks": 192,
          "midi": 47,
          "name": "B2",
          "ticks": 238080,
          "time": 232.5,
          "velocity": 0.3937007874015748
        },
        {
          "duration": 0.1875,
          "durationTicks": 192,
          "midi": 40,
          "name": "E2",
          "ticks": 238080,
          "time": 232.5,
          "velocity": 0.3937007874015748
        },
        {
          "duration": 0.1875,
          "durationTicks": 192,
          "midi": 47,
          "name": "B2",
          "ticks": 238656,
          "time": 233.0625,
          "velocity": 0.3937007874015748
        },
        {
          "duration": 0.1875,
          "durationTicks": 192,
          "midi": 40,
          "name": "E2",
          "ticks": 239616,
          "time": 234,
          "velocity": 0.3937007874015748
        },
        {
          "duration": 0.1875,
          "durationTicks": 192,
          "midi": 52,
          "name": "E3",
          "ticks": 239616,
          "time": 234,
          "velocity": 0.3937007874015748
        }
      ],
      "endOfTrackTicks": 239808
    },
    {
      "channel": 14,
      "controlChanges": {},
      "pitchBends": [],
      "instrument": {
        "family": "piano",
        "number": 0,
        "name": "acoustic grand piano"
      },
      "name": "Grand Piano",
      "notes": [
        {
          "duration": 0.09375,
          "durationTicks": 96,
          "midi": 64,
          "name": "E4",
          "ticks": 30720,
          "time": 30,
          "velocity": 0.3937007874015748
        },
        {
          "duration": 0.09375,
          "durationTicks": 96,
          "midi": 76,
          "name": "E5",
          "ticks": 30720,
          "time": 30,
          "velocity": 0.3937007874015748
        },
        {
          "duration": 0.09375,
          "durationTicks": 96,
          "midi": 79,
          "name": "G5",
          "ticks": 30912,
          "time": 30.1875,
          "velocity": 0.3937007874015748
        },
        {
          "duration": 0.09375,
          "durationTicks": 96,
          "midi": 67,
          "name": "G4",
          "ticks": 30912,
          "time": 30.1875,
          "velocity": 0.3937007874015748
        },
        {
          "duration": 0.09375,
          "durationTicks": 96,
          "midi": 83,
          "name": "B5",
          "ticks": 31104,
          "time": 30.375,
          "velocity": 0.3937007874015748
        },
        {
          "duration": 0.09375,
          "durationTicks": 96,
          "midi": 71,
          "name": "B4",
          "ticks": 31104,
          "time": 30.375,
          "velocity": 0.3937007874015748
        },
        {
          "duration": 0.09375,
          "durationTicks": 96,
          "midi": 88,
          "name": "E6",
          "ticks": 31296,
          "time": 30.5625,
          "velocity": 0.3937007874015748
        },
        {
          "duration": 0.09375,
          "durationTicks": 96,
          "midi": 76,
          "name": "E5",
          "ticks": 31296,
          "time": 30.5625,
          "velocity": 0.3937007874015748
        },
        {
          "duration": 0.1875,
          "durationTicks": 192,
          "midi": 75,
          "name": "D#5",
          "ticks": 31488,
          "time": 30.75,
          "velocity": 0.3937007874015748
        },
        {
          "duration": 0.1875,
          "durationTicks": 192,
          "midi": 87,
          "name": "D#6",
          "ticks": 31488,
          "time": 30.75,
          "velocity": 0.3937007874015748
        },
        {
          "duration": 0.1875,
          "durationTicks": 192,
          "midi": 83,
          "name": "B5",
          "ticks": 31776,
          "time": 31.03125,
          "velocity": 0.3937007874015748
        },
        {
          "duration": 0.1875,
          "durationTicks": 192,
          "midi": 71,
          "name": "B4",
          "ticks": 31776,
          "time": 31.03125,
          "velocity": 0.3937007874015748
        },
        {
          "duration": 0.1875,
          "durationTicks": 192,
          "midi": 87,
          "name": "D#6",
          "ticks": 32064,
          "time": 31.3125,
          "velocity": 0.3937007874015748
        },
        {
          "duration": 0.1875,
          "durationTicks": 192,
          "midi": 75,
          "name": "D#5",
          "ticks": 32064,
          "time": 31.3125,
          "velocity": 0.3937007874015748
        },
        {
          "duration": 0.1875,
          "durationTicks": 192,
          "midi": 74,
          "name": "D5",
          "ticks": 32256,
          "time": 31.5,
          "velocity": 0.3937007874015748
        },
        {
          "duration": 0.1875,
          "durationTicks": 192,
          "midi": 86,
          "name": "D6",
          "ticks": 32256,
          "time": 31.5,
          "velocity": 0.3937007874015748
        },
        {
          "duration": 0.1875,
          "durationTicks": 192,
          "midi": 71,
          "name": "B4",
          "ticks": 32544,
          "time": 31.78125,
          "velocity": 0.3937007874015748
        },
        {
          "duration": 0.1875,
          "durationTicks": 192,
          "midi": 83,
          "name": "B5",
          "ticks": 32544,
          "time": 31.78125,
          "velocity": 0.3937007874015748
        },
        {
          "duration": 0.1875,
          "durationTicks": 192,
          "midi": 86,
          "name": "D6",
          "ticks": 32832,
          "time": 32.0625,
          "velocity": 0.3937007874015748
        },
        {
          "duration": 0.1875,
          "durationTicks": 192,
          "midi": 74,
          "name": "D5",
          "ticks": 32832,
          "time": 32.0625,
          "velocity": 0.3937007874015748
        },
        {
          "duration": 0.1875,
          "durationTicks": 192,
          "midi": 73,
          "name": "C#5",
          "ticks": 33024,
          "time": 32.25,
          "velocity": 0.3937007874015748
        },
        {
          "duration": 0.1875,
          "durationTicks": 192,
          "midi": 85,
          "name": "C#6",
          "ticks": 33024,
          "time": 32.25,
          "velocity": 0.3937007874015748
        },
        {
          "duration": 0.1875,
          "durationTicks": 192,
          "midi": 70,
          "name": "A#4",
          "ticks": 33312,
          "time": 32.53125,
          "velocity": 0.3937007874015748
        },
        {
          "duration": 0.1875,
          "durationTicks": 192,
          "midi": 82,
          "name": "A#5",
          "ticks": 33312,
          "time": 32.53125,
          "velocity": 0.3937007874015748
        },
        {
          "duration": 0.1875,
          "durationTicks": 192,
          "midi": 79,
          "name": "G5",
          "ticks": 33600,
          "time": 32.8125,
          "velocity": 0.3937007874015748
        },
        {
          "duration": 0.1875,
          "durationTicks": 192,
          "midi": 67,
          "name": "G4",
          "ticks": 33600,
          "time": 32.8125,
          "velocity": 0.3937007874015748
        },
        {
          "duration": 0.09375,
          "durationTicks": 96,
          "midi": 64,
          "name": "E4",
          "ticks": 33984,
          "time": 33.1875,
          "velocity": 0.3937007874015748
        },
        {
          "duration": 0.09375,
          "durationTicks": 96,
          "midi": 71,
          "name": "B4",
          "ticks": 33984,
          "time": 33.1875,
          "velocity": 0.3937007874015748
        },
        {
          "duration": 0.09375,
          "durationTicks": 96,
          "midi": 76,
          "name": "E5",
          "ticks": 33984,
          "time": 33.1875,
          "velocity": 0.3937007874015748
        },
        {
          "duration": 0.09375,
          "durationTicks": 96,
          "midi": 71,
          "name": "B4",
          "ticks": 34176,
          "time": 33.375,
          "velocity": 0.3937007874015748
        },
        {
          "duration": 0.09375,
          "durationTicks": 96,
          "midi": 64,
          "name": "E4",
          "ticks": 34176,
          "time": 33.375,
          "velocity": 0.3937007874015748
        },
        {
          "duration": 0.09375,
          "durationTicks": 96,
          "midi": 76,
          "name": "E5",
          "ticks": 34176,
          "time": 33.375,
          "velocity": 0.3937007874015748
        },
        {
          "duration": 0.09375,
          "durationTicks": 96,
          "midi": 76,
          "name": "E5",
          "ticks": 34368,
          "time": 33.5625,
          "velocity": 0.3937007874015748
        },
        {
          "duration": 0.09375,
          "durationTicks": 96,
          "midi": 64,
          "name": "E4",
          "ticks": 34368,
          "time": 33.5625,
          "velocity": 0.3937007874015748
        },
        {
          "duration": 0.09375,
          "durationTicks": 96,
          "midi": 71,
          "name": "B4",
          "ticks": 34368,
          "time": 33.5625,
          "velocity": 0.3937007874015748
        },
        {
          "duration": 0.1875,
          "durationTicks": 192,
          "midi": 71,
          "name": "B4",
          "ticks": 34560,
          "time": 33.75,
          "velocity": 0.3937007874015748
        },
        {
          "duration": 0.1875,
          "durationTicks": 192,
          "midi": 64,
          "name": "E4",
          "ticks": 34560,
          "time": 33.75,
          "velocity": 0.3937007874015748
        },
        {
          "duration": 0.1875,
          "durationTicks": 192,
          "midi": 76,
          "name": "E5",
          "ticks": 34560,
          "time": 33.75,
          "velocity": 0.3937007874015748
        },
        {
          "duration": 0.28125,
          "durationTicks": 288,
          "midi": 64,
          "name": "E4",
          "ticks": 34848,
          "time": 34.03125,
          "velocity": 0.3937007874015748
        },
        {
          "duration": 0.28125,
          "durationTicks": 288,
          "midi": 71,
          "name": "B4",
          "ticks": 34848,
          "time": 34.03125,
          "velocity": 0.3937007874015748
        },
        {
          "duration": 0.28125,
          "durationTicks": 288,
          "midi": 76,
          "name": "E5",
          "ticks": 34848,
          "time": 34.03125,
          "velocity": 0.3937007874015748
        },
        {
          "duration": 0.28125,
          "durationTicks": 288,
          "midi": 67,
          "name": "G4",
          "ticks": 35136,
          "time": 34.3125,
          "velocity": 0.3937007874015748
        },
        {
          "duration": 0.28125,
          "durationTicks": 288,
          "midi": 79,
          "name": "G5",
          "ticks": 35136,
          "time": 34.3125,
          "velocity": 0.3937007874015748
        },
        {
          "duration": 0.28125,
          "durationTicks": 288,
          "midi": 74,
          "name": "D5",
          "ticks": 35136,
          "time": 34.3125,
          "velocity": 0.3937007874015748
        },
        {
          "duration": 0.09375,
          "durationTicks": 96,
          "midi": 64,
          "name": "E4",
          "ticks": 35520,
          "time": 34.6875,
          "velocity": 0.3937007874015748
        },
        {
          "duration": 0.09375,
          "durationTicks": 96,
          "midi": 71,
          "name": "B4",
          "ticks": 35520,
          "time": 34.6875,
          "velocity": 0.3937007874015748
        },
        {
          "duration": 0.09375,
          "durationTicks": 96,
          "midi": 76,
          "name": "E5",
          "ticks": 35520,
          "time": 34.6875,
          "velocity": 0.3937007874015748
        },
        {
          "duration": 0.09375,
          "durationTicks": 96,
          "midi": 76,
          "name": "E5",
          "ticks": 35712,
          "time": 34.875,
          "velocity": 0.3937007874015748
        },
        {
          "duration": 0.09375,
          "durationTicks": 96,
          "midi": 71,
          "name": "B4",
          "ticks": 35712,
          "time": 34.875,
          "velocity": 0.3937007874015748
        },
        {
          "duration": 0.09375,
          "durationTicks": 96,
          "midi": 64,
          "name": "E4",
          "ticks": 35712,
          "time": 34.875,
          "velocity": 0.3937007874015748
        },
        {
          "duration": 0.09375,
          "durationTicks": 96,
          "midi": 74,
          "name": "D5",
          "ticks": 35904,
          "time": 35.0625,
          "velocity": 0.3937007874015748
        },
        {
          "duration": 0.09375,
          "durationTicks": 96,
          "midi": 67,
          "name": "G4",
          "ticks": 35904,
          "time": 35.0625,
          "velocity": 0.3937007874015748
        },
        {
          "duration": 0.09375,
          "durationTicks": 96,
          "midi": 79,
          "name": "G5",
          "ticks": 35904,
          "time": 35.0625,
          "velocity": 0.3937007874015748
        },
        {
          "duration": 0.1875,
          "durationTicks": 192,
          "midi": 76,
          "name": "E5",
          "ticks": 36096,
          "time": 35.25,
          "velocity": 0.3937007874015748
        },
        {
          "duration": 0.1875,
          "durationTicks": 192,
          "midi": 69,
          "name": "A4",
          "ticks": 36096,
          "time": 35.25,
          "velocity": 0.3937007874015748
        },
        {
          "duration": 0.1875,
          "durationTicks": 192,
          "midi": 81,
          "name": "A5",
          "ticks": 36096,
          "time": 35.25,
          "velocity": 0.3937007874015748
        },
        {
          "duration": 0.1875,
          "durationTicks": 192,
          "midi": 68,
          "name": "G#4",
          "ticks": 36384,
          "time": 35.53125,
          "velocity": 0.3937007874015748
        },
        {
          "duration": 0.1875,
          "durationTicks": 192,
          "midi": 80,
          "name": "G#5",
          "ticks": 36384,
          "time": 35.53125,
          "velocity": 0.3937007874015748
        },
        {
          "duration": 0.1875,
          "durationTicks": 192,
          "midi": 75,
          "name": "D#5",
          "ticks": 36384,
          "time": 35.53125,
          "velocity": 0.3937007874015748
        },
        {
          "duration": 0.1875,
          "durationTicks": 192,
          "midi": 67,
          "name": "G4",
          "ticks": 36672,
          "time": 35.8125,
          "velocity": 0.3937007874015748
        },
        {
          "duration": 0.1875,
          "durationTicks": 192,
          "midi": 74,
          "name": "D5",
          "ticks": 36672,
          "time": 35.8125,
          "velocity": 0.3937007874015748
        },
        {
          "duration": 0.1875,
          "durationTicks": 192,
          "midi": 79,
          "name": "G5",
          "ticks": 36672,
          "time": 35.8125,
          "velocity": 0.3937007874015748
        },
        {
          "duration": 0.09375,
          "durationTicks": 96,
          "midi": 64,
          "name": "E4",
          "ticks": 36864,
          "time": 36,
          "velocity": 0.3937007874015748
        },
        {
          "duration": 0.09375,
          "durationTicks": 96,
          "midi": 76,
          "name": "E5",
          "ticks": 36864,
          "time": 36,
          "velocity": 0.3937007874015748
        },
        {
          "duration": 0.09375,
          "durationTicks": 96,
          "midi": 79,
          "name": "G5",
          "ticks": 37056,
          "time": 36.1875,
          "velocity": 0.3937007874015748
        },
        {
          "duration": 0.09375,
          "durationTicks": 96,
          "midi": 67,
          "name": "G4",
          "ticks": 37056,
          "time": 36.1875,
          "velocity": 0.3937007874015748
        },
        {
          "duration": 0.09375,
          "durationTicks": 96,
          "midi": 71,
          "name": "B4",
          "ticks": 37248,
          "time": 36.375,
          "velocity": 0.3937007874015748
        },
        {
          "duration": 0.09375,
          "durationTicks": 96,
          "midi": 83,
          "name": "B5",
          "ticks": 37248,
          "time": 36.375,
          "velocity": 0.3937007874015748
        },
        {
          "duration": 0.09375,
          "durationTicks": 96,
          "midi": 88,
          "name": "E6",
          "ticks": 37440,
          "time": 36.5625,
          "velocity": 0.3937007874015748
        },
        {
          "duration": 0.09375,
          "durationTicks": 96,
          "midi": 76,
          "name": "E5",
          "ticks": 37440,
          "time": 36.5625,
          "velocity": 0.3937007874015748
        },
        {
          "duration": 0.1875,
          "durationTicks": 192,
          "midi": 87,
          "name": "D#6",
          "ticks": 37632,
          "time": 36.75,
          "velocity": 0.3937007874015748
        },
        {
          "duration": 0.1875,
          "durationTicks": 192,
          "midi": 75,
          "name": "D#5",
          "ticks": 37632,
          "time": 36.75,
          "velocity": 0.3937007874015748
        },
        {
          "duration": 0.1875,
          "durationTicks": 192,
          "midi": 71,
          "name": "B4",
          "ticks": 37920,
          "time": 37.03125,
          "velocity": 0.3937007874015748
        },
        {
          "duration": 0.1875,
          "durationTicks": 192,
          "midi": 83,
          "name": "B5",
          "ticks": 37920,
          "time": 37.03125,
          "velocity": 0.3937007874015748
        },
        {
          "duration": 0.1875,
          "durationTicks": 192,
          "midi": 87,
          "name": "D#6",
          "ticks": 38208,
          "time": 37.3125,
          "velocity": 0.3937007874015748
        },
        {
          "duration": 0.1875,
          "durationTicks": 192,
          "midi": 75,
          "name": "D#5",
          "ticks": 38208,
          "time": 37.3125,
          "velocity": 0.3937007874015748
        },
        {
          "duration": 0.1875,
          "durationTicks": 192,
          "midi": 74,
          "name": "D5",
          "ticks": 38400,
          "time": 37.5,
          "velocity": 0.3937007874015748
        },
        {
          "duration": 0.1875,
          "durationTicks": 192,
          "midi": 86,
          "name": "D6",
          "ticks": 38400,
          "time": 37.5,
          "velocity": 0.3937007874015748
        },
        {
          "duration": 0.1875,
          "durationTicks": 192,
          "midi": 71,
          "name": "B4",
          "ticks": 38688,
          "time": 37.78125,
          "velocity": 0.3937007874015748
        },
        {
          "duration": 0.1875,
          "durationTicks": 192,
          "midi": 83,
          "name": "B5",
          "ticks": 38688,
          "time": 37.78125,
          "velocity": 0.3937007874015748
        },
        {
          "duration": 0.1875,
          "durationTicks": 192,
          "midi": 74,
          "name": "D5",
          "ticks": 38976,
          "time": 38.0625,
          "velocity": 0.3937007874015748
        },
        {
          "duration": 0.1875,
          "durationTicks": 192,
          "midi": 86,
          "name": "D6",
          "ticks": 38976,
          "time": 38.0625,
          "velocity": 0.3937007874015748
        },
        {
          "duration": 0.1875,
          "durationTicks": 192,
          "midi": 73,
          "name": "C#5",
          "ticks": 39168,
          "time": 38.25,
          "velocity": 0.3937007874015748
        },
        {
          "duration": 0.1875,
          "durationTicks": 192,
          "midi": 85,
          "name": "C#6",
          "ticks": 39168,
          "time": 38.25,
          "velocity": 0.3937007874015748
        },
        {
          "duration": 0.1875,
          "durationTicks": 192,
          "midi": 94,
          "name": "A#6",
          "ticks": 39456,
          "time": 38.53125,
          "velocity": 0.3937007874015748
        },
        {
          "duration": 0.1875,
          "durationTicks": 192,
          "midi": 82,
          "name": "A#5",
          "ticks": 39456,
          "time": 38.53125,
          "velocity": 0.3937007874015748
        },
        {
          "duration": 0.1875,
          "durationTicks": 192,
          "midi": 79,
          "name": "G5",
          "ticks": 39744,
          "time": 38.8125,
          "velocity": 0.3937007874015748
        },
        {
          "duration": 0.1875,
          "durationTicks": 192,
          "midi": 91,
          "name": "G6",
          "ticks": 39744,
          "time": 38.8125,
          "velocity": 0.3937007874015748
        },
        {
          "duration": 0.234375,
          "durationTicks": 240,
          "midi": 71,
          "name": "B4",
          "ticks": 39936,
          "time": 39,
          "velocity": 0.3937007874015748
        },
        {
          "duration": 0.234375,
          "durationTicks": 240,
          "midi": 76,
          "name": "E5",
          "ticks": 39936,
          "time": 39,
          "velocity": 0.3937007874015748
        },
        {
          "duration": 0.234375,
          "durationTicks": 240,
          "midi": 64,
          "name": "E4",
          "ticks": 39936,
          "time": 39,
          "velocity": 0.3937007874015748
        },
        {
          "duration": 0.140625,
          "durationTicks": 144,
          "midi": 52,
          "name": "E3",
          "ticks": 40128,
          "time": 39.1875,
          "velocity": 0.3937007874015748
        },
        {
          "duration": 0.234375,
          "durationTicks": 240,
          "midi": 75,
          "name": "D#5",
          "ticks": 40224,
          "time": 39.28125,
          "velocity": 0.3937007874015748
        },
        {
          "duration": 0.234375,
          "durationTicks": 240,
          "midi": 70,
          "name": "A#4",
          "ticks": 40224,
          "time": 39.28125,
          "velocity": 0.3937007874015748
        },
        {
          "duration": 0.234375,
          "durationTicks": 240,
          "midi": 63,
          "name": "D#4",
          "ticks": 40224,
          "time": 39.28125,
          "velocity": 0.3937007874015748
        },
        {
          "duration": 0.140625,
          "durationTicks": 144,
          "midi": 52,
          "name": "E3",
          "ticks": 40416,
          "time": 39.46875,
          "velocity": 0.3937007874015748
        },
        {
          "duration": 0.140625,
          "durationTicks": 144,
          "midi": 76,
          "name": "E5",
          "ticks": 40608,
          "time": 39.65625,
          "velocity": 0.3937007874015748
        },
        {
          "duration": 0.140625,
          "durationTicks": 144,
          "midi": 64,
          "name": "E4",
          "ticks": 40608,
          "time": 39.65625,
          "velocity": 0.3937007874015748
        },
        {
          "duration": 0.140625,
          "durationTicks": 144,
          "midi": 71,
          "name": "B4",
          "ticks": 40608,
          "time": 39.65625,
          "velocity": 0.3937007874015748
        },
        {
          "duration": 0.140625,
          "durationTicks": 144,
          "midi": 64,
          "name": "E4",
          "ticks": 40800,
          "time": 39.84375,
          "velocity": 0.3937007874015748
        },
        {
          "duration": 0.140625,
          "durationTicks": 144,
          "midi": 71,
          "name": "B4",
          "ticks": 40800,
          "time": 39.84375,
          "velocity": 0.3937007874015748
        },
        {
          "duration": 0.140625,
          "durationTicks": 144,
          "midi": 76,
          "name": "E5",
          "ticks": 40800,
          "time": 39.84375,
          "velocity": 0.3937007874015748
        },
        {
          "duration": 0.140625,
          "durationTicks": 144,
          "midi": 52,
          "name": "E3",
          "ticks": 40992,
          "time": 40.03125,
          "velocity": 0.3937007874015748
        },
        {
          "duration": 0.234375,
          "durationTicks": 240,
          "midi": 75,
          "name": "D#5",
          "ticks": 41088,
          "time": 40.125,
          "velocity": 0.3937007874015748
        },
        {
          "duration": 0.234375,
          "durationTicks": 240,
          "midi": 70,
          "name": "A#4",
          "ticks": 41088,
          "time": 40.125,
          "velocity": 0.3937007874015748
        },
        {
          "duration": 0.234375,
          "durationTicks": 240,
          "midi": 63,
          "name": "D#4",
          "ticks": 41088,
          "time": 40.125,
          "velocity": 0.3937007874015748
        },
        {
          "duration": 0.140625,
          "durationTicks": 144,
          "midi": 52,
          "name": "E3",
          "ticks": 41280,
          "time": 40.3125,
          "velocity": 0.3937007874015748
        },
        {
          "duration": 0.234375,
          "durationTicks": 240,
          "midi": 76,
          "name": "E5",
          "ticks": 41472,
          "time": 40.5,
          "velocity": 0.3937007874015748
        },
        {
          "duration": 0.234375,
          "durationTicks": 240,
          "midi": 71,
          "name": "B4",
          "ticks": 41472,
          "time": 40.5,
          "velocity": 0.3937007874015748
        },
        {
          "duration": 0.234375,
          "durationTicks": 240,
          "midi": 64,
          "name": "E4",
          "ticks": 41472,
          "time": 40.5,
          "velocity": 0.3937007874015748
        },
        {
          "duration": 0.140625,
          "durationTicks": 144,
          "midi": 52,
          "name": "E3",
          "ticks": 41664,
          "time": 40.6875,
          "velocity": 0.3937007874015748
        },
        {
          "duration": 0.234375,
          "durationTicks": 240,
          "midi": 70,
          "name": "A#4",
          "ticks": 41760,
          "time": 40.78125,
          "velocity": 0.3937007874015748
        },
        {
          "duration": 0.234375,
          "durationTicks": 240,
          "midi": 75,
          "name": "D#5",
          "ticks": 41760,
          "time": 40.78125,
          "velocity": 0.3937007874015748
        },
        {
          "duration": 0.234375,
          "durationTicks": 240,
          "midi": 63,
          "name": "D#4",
          "ticks": 41760,
          "time": 40.78125,
          "velocity": 0.3937007874015748
        },
        {
          "duration": 0.140625,
          "durationTicks": 144,
          "midi": 52,
          "name": "E3",
          "ticks": 41952,
          "time": 40.96875,
          "velocity": 0.3937007874015748
        },
        {
          "duration": 0.140625,
          "durationTicks": 144,
          "midi": 71,
          "name": "B4",
          "ticks": 42144,
          "time": 41.15625,
          "velocity": 0.3937007874015748
        },
        {
          "duration": 0.140625,
          "durationTicks": 144,
          "midi": 76,
          "name": "E5",
          "ticks": 42144,
          "time": 41.15625,
          "velocity": 0.3937007874015748
        },
        {
          "duration": 0.140625,
          "durationTicks": 144,
          "midi": 64,
          "name": "E4",
          "ticks": 42144,
          "time": 41.15625,
          "velocity": 0.3937007874015748
        },
        {
          "duration": 0.140625,
          "durationTicks": 144,
          "midi": 76,
          "name": "E5",
          "ticks": 42336,
          "time": 41.34375,
          "velocity": 0.3937007874015748
        },
        {
          "duration": 0.140625,
          "durationTicks": 144,
          "midi": 71,
          "name": "B4",
          "ticks": 42336,
          "time": 41.34375,
          "velocity": 0.3937007874015748
        },
        {
          "duration": 0.140625,
          "durationTicks": 144,
          "midi": 64,
          "name": "E4",
          "ticks": 42336,
          "time": 41.34375,
          "velocity": 0.3937007874015748
        },
        {
          "duration": 0.140625,
          "durationTicks": 144,
          "midi": 52,
          "name": "E3",
          "ticks": 42528,
          "time": 41.53125,
          "velocity": 0.3937007874015748
        },
        {
          "duration": 0.234375,
          "durationTicks": 240,
          "midi": 70,
          "name": "A#4",
          "ticks": 42624,
          "time": 41.625,
          "velocity": 0.3937007874015748
        },
        {
          "duration": 0.234375,
          "durationTicks": 240,
          "midi": 63,
          "name": "D#4",
          "ticks": 42624,
          "time": 41.625,
          "velocity": 0.3937007874015748
        },
        {
          "duration": 0.234375,
          "durationTicks": 240,
          "midi": 75,
          "name": "D#5",
          "ticks": 42624,
          "time": 41.625,
          "velocity": 0.3937007874015748
        },
        {
          "duration": 0.140625,
          "durationTicks": 144,
          "midi": 52,
          "name": "E3",
          "ticks": 42816,
          "time": 41.8125,
          "velocity": 0.3937007874015748
        },
        {
          "duration": 0.09375,
          "durationTicks": 96,
          "midi": 64,
          "name": "E4",
          "ticks": 43008,
          "time": 42,
          "velocity": 0.3937007874015748
        },
        {
          "duration": 0.09375,
          "durationTicks": 96,
          "midi": 76,
          "name": "E5",
          "ticks": 43008,
          "time": 42,
          "velocity": 0.3937007874015748
        },
        {
          "duration": 0.09375,
          "durationTicks": 96,
          "midi": 67,
          "name": "G4",
          "ticks": 43200,
          "time": 42.1875,
          "velocity": 0.3937007874015748
        },
        {
          "duration": 0.09375,
          "durationTicks": 96,
          "midi": 79,
          "name": "G5",
          "ticks": 43200,
          "time": 42.1875,
          "velocity": 0.3937007874015748
        },
        {
          "duration": 0.09375,
          "durationTicks": 96,
          "midi": 71,
          "name": "B4",
          "ticks": 43392,
          "time": 42.375,
          "velocity": 0.3937007874015748
        },
        {
          "duration": 0.09375,
          "durationTicks": 96,
          "midi": 83,
          "name": "B5",
          "ticks": 43392,
          "time": 42.375,
          "velocity": 0.3937007874015748
        },
        {
          "duration": 0.09375,
          "durationTicks": 96,
          "midi": 88,
          "name": "E6",
          "ticks": 43584,
          "time": 42.5625,
          "velocity": 0.3937007874015748
        },
        {
          "duration": 0.09375,
          "durationTicks": 96,
          "midi": 76,
          "name": "E5",
          "ticks": 43584,
          "time": 42.5625,
          "velocity": 0.3937007874015748
        },
        {
          "duration": 0.1875,
          "durationTicks": 192,
          "midi": 75,
          "name": "D#5",
          "ticks": 43776,
          "time": 42.75,
          "velocity": 0.3937007874015748
        },
        {
          "duration": 0.1875,
          "durationTicks": 192,
          "midi": 87,
          "name": "D#6",
          "ticks": 43776,
          "time": 42.75,
          "velocity": 0.3937007874015748
        },
        {
          "duration": 0.1875,
          "durationTicks": 192,
          "midi": 83,
          "name": "B5",
          "ticks": 44064,
          "time": 43.03125,
          "velocity": 0.3937007874015748
        },
        {
          "duration": 0.1875,
          "durationTicks": 192,
          "midi": 71,
          "name": "B4",
          "ticks": 44064,
          "time": 43.03125,
          "velocity": 0.3937007874015748
        },
        {
          "duration": 0.1875,
          "durationTicks": 192,
          "midi": 87,
          "name": "D#6",
          "ticks": 44352,
          "time": 43.3125,
          "velocity": 0.3937007874015748
        },
        {
          "duration": 0.1875,
          "durationTicks": 192,
          "midi": 75,
          "name": "D#5",
          "ticks": 44352,
          "time": 43.3125,
          "velocity": 0.3937007874015748
        },
        {
          "duration": 0.1875,
          "durationTicks": 192,
          "midi": 86,
          "name": "D6",
          "ticks": 44544,
          "time": 43.5,
          "velocity": 0.3937007874015748
        },
        {
          "duration": 0.1875,
          "durationTicks": 192,
          "midi": 74,
          "name": "D5",
          "ticks": 44544,
          "time": 43.5,
          "velocity": 0.3937007874015748
        },
        {
          "duration": 0.1875,
          "durationTicks": 192,
          "midi": 83,
          "name": "B5",
          "ticks": 44832,
          "time": 43.78125,
          "velocity": 0.3937007874015748
        },
        {
          "duration": 0.1875,
          "durationTicks": 192,
          "midi": 71,
          "name": "B4",
          "ticks": 44832,
          "time": 43.78125,
          "velocity": 0.3937007874015748
        },
        {
          "duration": 0.1875,
          "durationTicks": 192,
          "midi": 86,
          "name": "D6",
          "ticks": 45120,
          "time": 44.0625,
          "velocity": 0.3937007874015748
        },
        {
          "duration": 0.1875,
          "durationTicks": 192,
          "midi": 74,
          "name": "D5",
          "ticks": 45120,
          "time": 44.0625,
          "velocity": 0.3937007874015748
        },
        {
          "duration": 0.1875,
          "durationTicks": 192,
          "midi": 85,
          "name": "C#6",
          "ticks": 45312,
          "time": 44.25,
          "velocity": 0.3937007874015748
        },
        {
          "duration": 0.1875,
          "durationTicks": 192,
          "midi": 73,
          "name": "C#5",
          "ticks": 45312,
          "time": 44.25,
          "velocity": 0.3937007874015748
        },
        {
          "duration": 0.1875,
          "durationTicks": 192,
          "midi": 94,
          "name": "A#6",
          "ticks": 45600,
          "time": 44.53125,
          "velocity": 0.3937007874015748
        },
        {
          "duration": 0.1875,
          "durationTicks": 192,
          "midi": 82,
          "name": "A#5",
          "ticks": 45600,
          "time": 44.53125,
          "velocity": 0.3937007874015748
        },
        {
          "duration": 0.1875,
          "durationTicks": 192,
          "midi": 79,
          "name": "G5",
          "ticks": 45888,
          "time": 44.8125,
          "velocity": 0.3937007874015748
        },
        {
          "duration": 0.1875,
          "durationTicks": 192,
          "midi": 91,
          "name": "G6",
          "ticks": 45888,
          "time": 44.8125,
          "velocity": 0.3937007874015748
        },
        {
          "duration": 0.09375,
          "durationTicks": 96,
          "midi": 76,
          "name": "E5",
          "ticks": 46272,
          "time": 45.1875,
          "velocity": 0.3937007874015748
        },
        {
          "duration": 0.09375,
          "durationTicks": 96,
          "midi": 88,
          "name": "E6",
          "ticks": 46272,
          "time": 45.1875,
          "velocity": 0.3937007874015748
        },
        {
          "duration": 0.09375,
          "durationTicks": 96,
          "midi": 83,
          "name": "B5",
          "ticks": 46272,
          "time": 45.1875,
          "velocity": 0.3937007874015748
        },
        {
          "duration": 0.09375,
          "durationTicks": 96,
          "midi": 88,
          "name": "E6",
          "ticks": 46464,
          "time": 45.375,
          "velocity": 0.3937007874015748
        },
        {
          "duration": 0.09375,
          "durationTicks": 96,
          "midi": 83,
          "name": "B5",
          "ticks": 46464,
          "time": 45.375,
          "velocity": 0.3937007874015748
        },
        {
          "duration": 0.09375,
          "durationTicks": 96,
          "midi": 76,
          "name": "E5",
          "ticks": 46464,
          "time": 45.375,
          "velocity": 0.3937007874015748
        },
        {
          "duration": 0.09375,
          "durationTicks": 96,
          "midi": 83,
          "name": "B5",
          "ticks": 46656,
          "time": 45.5625,
          "velocity": 0.3937007874015748
        },
        {
          "duration": 0.09375,
          "durationTicks": 96,
          "midi": 76,
          "name": "E5",
          "ticks": 46656,
          "time": 45.5625,
          "velocity": 0.3937007874015748
        },
        {
          "duration": 0.09375,
          "durationTicks": 96,
          "midi": 88,
          "name": "E6",
          "ticks": 46656,
          "time": 45.5625,
          "velocity": 0.3937007874015748
        },
        {
          "duration": 0.1875,
          "durationTicks": 192,
          "midi": 83,
          "name": "B5",
          "ticks": 46848,
          "time": 45.75,
          "velocity": 0.3937007874015748
        },
        {
          "duration": 0.1875,
          "durationTicks": 192,
          "midi": 88,
          "name": "E6",
          "ticks": 46848,
          "time": 45.75,
          "velocity": 0.3937007874015748
        },
        {
          "duration": 0.1875,
          "durationTicks": 192,
          "midi": 76,
          "name": "E5",
          "ticks": 46848,
          "time": 45.75,
          "velocity": 0.3937007874015748
        },
        {
          "duration": 0.28125,
          "durationTicks": 288,
          "midi": 76,
          "name": "E5",
          "ticks": 47136,
          "time": 46.03125,
          "velocity": 0.3937007874015748
        },
        {
          "duration": 0.28125,
          "durationTicks": 288,
          "midi": 83,
          "name": "B5",
          "ticks": 47136,
          "time": 46.03125,
          "velocity": 0.3937007874015748
        },
        {
          "duration": 0.28125,
          "durationTicks": 288,
          "midi": 88,
          "name": "E6",
          "ticks": 47136,
          "time": 46.03125,
          "velocity": 0.3937007874015748
        },
        {
          "duration": 0.28125,
          "durationTicks": 288,
          "midi": 91,
          "name": "G6",
          "ticks": 47424,
          "time": 46.3125,
          "velocity": 0.3937007874015748
        },
        {
          "duration": 0.28125,
          "durationTicks": 288,
          "midi": 86,
          "name": "D6",
          "ticks": 47424,
          "time": 46.3125,
          "velocity": 0.3937007874015748
        },
        {
          "duration": 0.28125,
          "durationTicks": 288,
          "midi": 79,
          "name": "G5",
          "ticks": 47424,
          "time": 46.3125,
          "velocity": 0.3937007874015748
        },
        {
          "duration": 0.09375,
          "durationTicks": 96,
          "midi": 76,
          "name": "E5",
          "ticks": 47808,
          "time": 46.6875,
          "velocity": 0.3937007874015748
        },
        {
          "duration": 0.09375,
          "durationTicks": 96,
          "midi": 83,
          "name": "B5",
          "ticks": 47808,
          "time": 46.6875,
          "velocity": 0.3937007874015748
        },
        {
          "duration": 0.09375,
          "durationTicks": 96,
          "midi": 88,
          "name": "E6",
          "ticks": 47808,
          "time": 46.6875,
          "velocity": 0.3937007874015748
        },
        {
          "duration": 0.09375,
          "durationTicks": 96,
          "midi": 94,
          "name": "A#6",
          "ticks": 48000,
          "time": 46.875,
          "velocity": 0.3937007874015748
        },
        {
          "duration": 0.09375,
          "durationTicks": 96,
          "midi": 88,
          "name": "E6",
          "ticks": 48000,
          "time": 46.875,
          "velocity": 0.3937007874015748
        },
        {
          "duration": 0.09375,
          "durationTicks": 96,
          "midi": 82,
          "name": "A#5",
          "ticks": 48000,
          "time": 46.875,
          "velocity": 0.3937007874015748
        },
        {
          "duration": 0.09375,
          "durationTicks": 96,
          "midi": 76,
          "name": "E5",
          "ticks": 48192,
          "time": 47.0625,
          "velocity": 0.3937007874015748
        },
        {
          "duration": 0.09375,
          "durationTicks": 96,
          "midi": 83,
          "name": "B5",
          "ticks": 48192,
          "time": 47.0625,
          "velocity": 0.3937007874015748
        },
        {
          "duration": 0.09375,
          "durationTicks": 96,
          "midi": 88,
          "name": "E6",
          "ticks": 48192,
          "time": 47.0625,
          "velocity": 0.3937007874015748
        },
        {
          "duration": 0.1875,
          "durationTicks": 192,
          "midi": 93,
          "name": "A6",
          "ticks": 48384,
          "time": 47.25,
          "velocity": 0.3937007874015748
        },
        {
          "duration": 0.1875,
          "durationTicks": 192,
          "midi": 81,
          "name": "A5",
          "ticks": 48384,
          "time": 47.25,
          "velocity": 0.3937007874015748
        },
        {
          "duration": 0.1875,
          "durationTicks": 192,
          "midi": 88,
          "name": "E6",
          "ticks": 48384,
          "time": 47.25,
          "velocity": 0.3937007874015748
        },
        {
          "duration": 0.1875,
          "durationTicks": 192,
          "midi": 80,
          "name": "G#5",
          "ticks": 48672,
          "time": 47.53125,
          "velocity": 0.3937007874015748
        },
        {
          "duration": 0.1875,
          "durationTicks": 192,
          "midi": 92,
          "name": "G#6",
          "ticks": 48672,
          "time": 47.53125,
          "velocity": 0.3937007874015748
        },
        {
          "duration": 0.1875,
          "durationTicks": 192,
          "midi": 87,
          "name": "D#6",
          "ticks": 48672,
          "time": 47.53125,
          "velocity": 0.3937007874015748
        },
        {
          "duration": 0.1875,
          "durationTicks": 192,
          "midi": 91,
          "name": "G6",
          "ticks": 48960,
          "time": 47.8125,
          "velocity": 0.3937007874015748
        },
        {
          "duration": 0.1875,
          "durationTicks": 192,
          "midi": 86,
          "name": "D6",
          "ticks": 48960,
          "time": 47.8125,
          "velocity": 0.3937007874015748
        },
        {
          "duration": 0.1875,
          "durationTicks": 192,
          "midi": 79,
          "name": "G5",
          "ticks": 48960,
          "time": 47.8125,
          "velocity": 0.3937007874015748
        },
        {
          "duration": 0.09375,
          "durationTicks": 96,
          "midi": 64,
          "name": "E4",
          "ticks": 49152,
          "time": 48,
          "velocity": 0.3937007874015748
        },
        {
          "duration": 0.09375,
          "durationTicks": 96,
          "midi": 76,
          "name": "E5",
          "ticks": 49152,
          "time": 48,
          "velocity": 0.3937007874015748
        },
        {
          "duration": 0.09375,
          "durationTicks": 96,
          "midi": 67,
          "name": "G4",
          "ticks": 49344,
          "time": 48.1875,
          "velocity": 0.3937007874015748
        },
        {
          "duration": 0.09375,
          "durationTicks": 96,
          "midi": 79,
          "name": "G5",
          "ticks": 49344,
          "time": 48.1875,
          "velocity": 0.3937007874015748
        },
        {
          "duration": 0.09375,
          "durationTicks": 96,
          "midi": 71,
          "name": "B4",
          "ticks": 49536,
          "time": 48.375,
          "velocity": 0.3937007874015748
        },
        {
          "duration": 0.09375,
          "durationTicks": 96,
          "midi": 83,
          "name": "B5",
          "ticks": 49536,
          "time": 48.375,
          "velocity": 0.3937007874015748
        },
        {
          "duration": 0.09375,
          "durationTicks": 96,
          "midi": 88,
          "name": "E6",
          "ticks": 49728,
          "time": 48.5625,
          "velocity": 0.3937007874015748
        },
        {
          "duration": 0.09375,
          "durationTicks": 96,
          "midi": 76,
          "name": "E5",
          "ticks": 49728,
          "time": 48.5625,
          "velocity": 0.3937007874015748
        },
        {
          "duration": 0.1875,
          "durationTicks": 192,
          "midi": 75,
          "name": "D#5",
          "ticks": 49920,
          "time": 48.75,
          "velocity": 0.3937007874015748
        },
        {
          "duration": 0.1875,
          "durationTicks": 192,
          "midi": 87,
          "name": "D#6",
          "ticks": 49920,
          "time": 48.75,
          "velocity": 0.3937007874015748
        },
        {
          "duration": 0.1875,
          "durationTicks": 192,
          "midi": 83,
          "name": "B5",
          "ticks": 50208,
          "time": 49.03125,
          "velocity": 0.3937007874015748
        },
        {
          "duration": 0.1875,
          "durationTicks": 192,
          "midi": 71,
          "name": "B4",
          "ticks": 50208,
          "time": 49.03125,
          "velocity": 0.3937007874015748
        },
        {
          "duration": 0.1875,
          "durationTicks": 192,
          "midi": 75,
          "name": "D#5",
          "ticks": 50496,
          "time": 49.3125,
          "velocity": 0.3937007874015748
        },
        {
          "duration": 0.1875,
          "durationTicks": 192,
          "midi": 87,
          "name": "D#6",
          "ticks": 50496,
          "time": 49.3125,
          "velocity": 0.3937007874015748
        },
        {
          "duration": 0.1875,
          "durationTicks": 192,
          "midi": 74,
          "name": "D5",
          "ticks": 50688,
          "time": 49.5,
          "velocity": 0.3937007874015748
        },
        {
          "duration": 0.1875,
          "durationTicks": 192,
          "midi": 86,
          "name": "D6",
          "ticks": 50688,
          "time": 49.5,
          "velocity": 0.3937007874015748
        },
        {
          "duration": 0.1875,
          "durationTicks": 192,
          "midi": 71,
          "name": "B4",
          "ticks": 50976,
          "time": 49.78125,
          "velocity": 0.3937007874015748
        },
        {
          "duration": 0.1875,
          "durationTicks": 192,
          "midi": 83,
          "name": "B5",
          "ticks": 50976,
          "time": 49.78125,
          "velocity": 0.3937007874015748
        },
        {
          "duration": 0.1875,
          "durationTicks": 192,
          "midi": 74,
          "name": "D5",
          "ticks": 51264,
          "time": 50.0625,
          "velocity": 0.3937007874015748
        },
        {
          "duration": 0.1875,
          "durationTicks": 192,
          "midi": 86,
          "name": "D6",
          "ticks": 51264,
          "time": 50.0625,
          "velocity": 0.3937007874015748
        },
        {
          "duration": 0.1875,
          "durationTicks": 192,
          "midi": 85,
          "name": "C#6",
          "ticks": 51456,
          "time": 50.25,
          "velocity": 0.3937007874015748
        },
        {
          "duration": 0.1875,
          "durationTicks": 192,
          "midi": 73,
          "name": "C#5",
          "ticks": 51456,
          "time": 50.25,
          "velocity": 0.3937007874015748
        },
        {
          "duration": 0.1875,
          "durationTicks": 192,
          "midi": 94,
          "name": "A#6",
          "ticks": 51744,
          "time": 50.53125,
          "velocity": 0.3937007874015748
        },
        {
          "duration": 0.1875,
          "durationTicks": 192,
          "midi": 82,
          "name": "A#5",
          "ticks": 51744,
          "time": 50.53125,
          "velocity": 0.3937007874015748
        },
        {
          "duration": 0.1875,
          "durationTicks": 192,
          "midi": 91,
          "name": "G6",
          "ticks": 52032,
          "time": 50.8125,
          "velocity": 0.3937007874015748
        },
        {
          "duration": 0.1875,
          "durationTicks": 192,
          "midi": 79,
          "name": "G5",
          "ticks": 52032,
          "time": 50.8125,
          "velocity": 0.3937007874015748
        },
        {
          "duration": 0.234375,
          "durationTicks": 240,
          "midi": 64,
          "name": "E4",
          "ticks": 52224,
          "time": 51,
          "velocity": 0.3937007874015748
        },
        {
          "duration": 0.234375,
          "durationTicks": 240,
          "midi": 76,
          "name": "E5",
          "ticks": 52224,
          "time": 51,
          "velocity": 0.3937007874015748
        },
        {
          "duration": 0.234375,
          "durationTicks": 240,
          "midi": 71,
          "name": "B4",
          "ticks": 52224,
          "time": 51,
          "velocity": 0.3937007874015748
        },
        {
          "duration": 0.140625,
          "durationTicks": 144,
          "midi": 52,
          "name": "E3",
          "ticks": 52416,
          "time": 51.1875,
          "velocity": 0.3937007874015748
        },
        {
          "duration": 0.234375,
          "durationTicks": 240,
          "midi": 75,
          "name": "D#5",
          "ticks": 52512,
          "time": 51.28125,
          "velocity": 0.3937007874015748
        },
        {
          "duration": 0.234375,
          "durationTicks": 240,
          "midi": 63,
          "name": "D#4",
          "ticks": 52512,
          "time": 51.28125,
          "velocity": 0.3937007874015748
        },
        {
          "duration": 0.234375,
          "durationTicks": 240,
          "midi": 70,
          "name": "A#4",
          "ticks": 52512,
          "time": 51.28125,
          "velocity": 0.3937007874015748
        },
        {
          "duration": 0.140625,
          "durationTicks": 144,
          "midi": 52,
          "name": "E3",
          "ticks": 52704,
          "time": 51.46875,
          "velocity": 0.3937007874015748
        },
        {
          "duration": 0.140625,
          "durationTicks": 144,
          "midi": 64,
          "name": "E4",
          "ticks": 52896,
          "time": 51.65625,
          "velocity": 0.3937007874015748
        },
        {
          "duration": 0.140625,
          "durationTicks": 144,
          "midi": 76,
          "name": "E5",
          "ticks": 52896,
          "time": 51.65625,
          "velocity": 0.3937007874015748
        },
        {
          "duration": 0.140625,
          "durationTicks": 144,
          "midi": 71,
          "name": "B4",
          "ticks": 52896,
          "time": 51.65625,
          "velocity": 0.3937007874015748
        },
        {
          "duration": 0.140625,
          "durationTicks": 144,
          "midi": 71,
          "name": "B4",
          "ticks": 53088,
          "time": 51.84375,
          "velocity": 0.3937007874015748
        },
        {
          "duration": 0.140625,
          "durationTicks": 144,
          "midi": 76,
          "name": "E5",
          "ticks": 53088,
          "time": 51.84375,
          "velocity": 0.3937007874015748
        },
        {
          "duration": 0.140625,
          "durationTicks": 144,
          "midi": 64,
          "name": "E4",
          "ticks": 53088,
          "time": 51.84375,
          "velocity": 0.3937007874015748
        },
        {
          "duration": 0.140625,
          "durationTicks": 144,
          "midi": 52,
          "name": "E3",
          "ticks": 53280,
          "time": 52.03125,
          "velocity": 0.3937007874015748
        },
        {
          "duration": 0.234375,
          "durationTicks": 240,
          "midi": 75,
          "name": "D#5",
          "ticks": 53376,
          "time": 52.125,
          "velocity": 0.3937007874015748
        },
        {
          "duration": 0.234375,
          "durationTicks": 240,
          "midi": 70,
          "name": "A#4",
          "ticks": 53376,
          "time": 52.125,
          "velocity": 0.3937007874015748
        },
        {
          "duration": 0.234375,
          "durationTicks": 240,
          "midi": 63,
          "name": "D#4",
          "ticks": 53376,
          "time": 52.125,
          "velocity": 0.3937007874015748
        },
        {
          "duration": 0.140625,
          "durationTicks": 144,
          "midi": 52,
          "name": "E3",
          "ticks": 53568,
          "time": 52.3125,
          "velocity": 0.3937007874015748
        },
        {
          "duration": 0.09375,
          "durationTicks": 96,
          "midi": 52,
          "name": "E3",
          "ticks": 53760,
          "time": 52.5,
          "velocity": 0.3937007874015748
        },
        {
          "duration": 0.09375,
          "durationTicks": 96,
          "midi": 50,
          "name": "D3",
          "ticks": 54048,
          "time": 52.78125,
          "velocity": 0.3937007874015748
        },
        {
          "duration": 0.09375,
          "durationTicks": 96,
          "midi": 48,
          "name": "C3",
          "ticks": 54336,
          "time": 53.0625,
          "velocity": 0.3937007874015748
        },
        {
          "duration": 0.125,
          "durationTicks": 128,
          "midi": 47,
          "name": "B2",
          "ticks": 54528,
          "time": 53.25,
          "velocity": 0.3937007874015748
        },
        {
          "duration": 0.125,
          "durationTicks": 128,
          "midi": 48,
          "name": "C3",
          "ticks": 54656,
          "time": 53.375,
          "velocity": 0.3937007874015748
        },
        {
          "duration": 0.125,
          "durationTicks": 128,
          "midi": 47,
          "name": "B2",
          "ticks": 54784,
          "time": 53.5,
          "velocity": 0.3937007874015748
        },
        {
          "duration": 0.125,
          "durationTicks": 128,
          "midi": 45,
          "name": "A2",
          "ticks": 54912,
          "time": 53.625,
          "velocity": 0.3937007874015748
        },
        {
          "duration": 0.125,
          "durationTicks": 128,
          "midi": 43,
          "name": "G2",
          "ticks": 55040,
          "time": 53.75,
          "velocity": 0.3937007874015748
        },
        {
          "duration": 0.125,
          "durationTicks": 128,
          "midi": 42,
          "name": "F#2",
          "ticks": 55168,
          "time": 53.875,
          "velocity": 0.3937007874015748
        },
        {
          "duration": 0.28125,
          "durationTicks": 288,
          "midi": 40,
          "name": "E2",
          "ticks": 75264,
          "time": 73.5,
          "velocity": 0.3937007874015748
        },
        {
          "duration": 0.28125,
          "durationTicks": 288,
          "midi": 43,
          "name": "G2",
          "ticks": 75360,
          "time": 73.59375,
          "velocity": 0.3937007874015748
        },
        {
          "duration": 0.28125,
          "durationTicks": 288,
          "midi": 47,
          "name": "B2",
          "ticks": 75456,
          "time": 73.6875,
          "velocity": 0.3937007874015748
        },
        {
          "duration": 0.28125,
          "durationTicks": 288,
          "midi": 52,
          "name": "E3",
          "ticks": 75552,
          "time": 73.78125,
          "velocity": 0.3937007874015748
        },
        {
          "duration": 0.28125,
          "durationTicks": 288,
          "midi": 55,
          "name": "G3",
          "ticks": 75648,
          "time": 73.875,
          "velocity": 0.3937007874015748
        },
        {
          "duration": 0.28125,
          "durationTicks": 288,
          "midi": 59,
          "name": "B3",
          "ticks": 75744,
          "time": 73.96875,
          "velocity": 0.3937007874015748
        },
        {
          "duration": 0.28125,
          "durationTicks": 288,
          "midi": 64,
          "name": "E4",
          "ticks": 75840,
          "time": 74.0625,
          "velocity": 0.3937007874015748
        },
        {
          "duration": 0.28125,
          "durationTicks": 288,
          "midi": 67,
          "name": "G4",
          "ticks": 75936,
          "time": 74.15625,
          "velocity": 0.3937007874015748
        },
        {
          "duration": 0.28125,
          "durationTicks": 288,
          "midi": 71,
          "name": "B4",
          "ticks": 76032,
          "time": 74.25,
          "velocity": 0.3937007874015748
        },
        {
          "duration": 0.28125,
          "durationTicks": 288,
          "midi": 67,
          "name": "G4",
          "ticks": 76128,
          "time": 74.34375,
          "velocity": 0.3937007874015748
        },
        {
          "duration": 0.28125,
          "durationTicks": 288,
          "midi": 64,
          "name": "E4",
          "ticks": 76224,
          "time": 74.4375,
          "velocity": 0.3937007874015748
        },
        {
          "duration": 0.28125,
          "durationTicks": 288,
          "midi": 59,
          "name": "B3",
          "ticks": 76320,
          "time": 74.53125,
          "velocity": 0.3937007874015748
        },
        {
          "duration": 0.28125,
          "durationTicks": 288,
          "midi": 55,
          "name": "G3",
          "ticks": 76416,
          "time": 74.625,
          "velocity": 0.3937007874015748
        },
        {
          "duration": 0.28125,
          "durationTicks": 288,
          "midi": 52,
          "name": "E3",
          "ticks": 76512,
          "time": 74.71875,
          "velocity": 0.3937007874015748
        },
        {
          "duration": 0.28125,
          "durationTicks": 288,
          "midi": 47,
          "name": "B2",
          "ticks": 76608,
          "time": 74.8125,
          "velocity": 0.3937007874015748
        },
        {
          "duration": 0.28125,
          "durationTicks": 288,
          "midi": 43,
          "name": "G2",
          "ticks": 76704,
          "time": 74.90625,
          "velocity": 0.3937007874015748
        },
        {
          "duration": 0.28125,
          "durationTicks": 288,
          "midi": 39,
          "name": "D#2",
          "ticks": 76800,
          "time": 75,
          "velocity": 0.3937007874015748
        },
        {
          "duration": 0.28125,
          "durationTicks": 288,
          "midi": 42,
          "name": "F#2",
          "ticks": 76896,
          "time": 75.09375,
          "velocity": 0.3937007874015748
        },
        {
          "duration": 0.28125,
          "durationTicks": 288,
          "midi": 47,
          "name": "B2",
          "ticks": 76992,
          "time": 75.1875,
          "velocity": 0.3937007874015748
        },
        {
          "duration": 0.28125,
          "durationTicks": 288,
          "midi": 51,
          "name": "D#3",
          "ticks": 77088,
          "time": 75.28125,
          "velocity": 0.3937007874015748
        },
        {
          "duration": 0.28125,
          "durationTicks": 288,
          "midi": 54,
          "name": "F#3",
          "ticks": 77184,
          "time": 75.375,
          "velocity": 0.3937007874015748
        },
        {
          "duration": 0.28125,
          "durationTicks": 288,
          "midi": 59,
          "name": "B3",
          "ticks": 77280,
          "time": 75.46875,
          "velocity": 0.3937007874015748
        },
        {
          "duration": 0.28125,
          "durationTicks": 288,
          "midi": 63,
          "name": "D#4",
          "ticks": 77376,
          "time": 75.5625,
          "velocity": 0.3937007874015748
        },
        {
          "duration": 0.28125,
          "durationTicks": 288,
          "midi": 66,
          "name": "F#4",
          "ticks": 77472,
          "time": 75.65625,
          "velocity": 0.3937007874015748
        },
        {
          "duration": 0.28125,
          "durationTicks": 288,
          "midi": 71,
          "name": "B4",
          "ticks": 77568,
          "time": 75.75,
          "velocity": 0.3937007874015748
        },
        {
          "duration": 0.28125,
          "durationTicks": 288,
          "midi": 66,
          "name": "F#4",
          "ticks": 77664,
          "time": 75.84375,
          "velocity": 0.3937007874015748
        },
        {
          "duration": 0.28125,
          "durationTicks": 288,
          "midi": 63,
          "name": "D#4",
          "ticks": 77760,
          "time": 75.9375,
          "velocity": 0.3937007874015748
        },
        {
          "duration": 0.28125,
          "durationTicks": 288,
          "midi": 59,
          "name": "B3",
          "ticks": 77856,
          "time": 76.03125,
          "velocity": 0.3937007874015748
        },
        {
          "duration": 0.28125,
          "durationTicks": 288,
          "midi": 54,
          "name": "F#3",
          "ticks": 77952,
          "time": 76.125,
          "velocity": 0.3937007874015748
        },
        {
          "duration": 0.28125,
          "durationTicks": 288,
          "midi": 51,
          "name": "D#3",
          "ticks": 78048,
          "time": 76.21875,
          "velocity": 0.3937007874015748
        },
        {
          "duration": 0.28125,
          "durationTicks": 288,
          "midi": 47,
          "name": "B2",
          "ticks": 78144,
          "time": 76.3125,
          "velocity": 0.3937007874015748
        },
        {
          "duration": 0.28125,
          "durationTicks": 288,
          "midi": 42,
          "name": "F#2",
          "ticks": 78240,
          "time": 76.40625,
          "velocity": 0.3937007874015748
        },
        {
          "duration": 0.28125,
          "durationTicks": 288,
          "midi": 38,
          "name": "D2",
          "ticks": 78336,
          "time": 76.5,
          "velocity": 0.3937007874015748
        },
        {
          "duration": 0.28125,
          "durationTicks": 288,
          "midi": 42,
          "name": "F#2",
          "ticks": 78432,
          "time": 76.59375,
          "velocity": 0.3937007874015748
        },
        {
          "duration": 0.28125,
          "durationTicks": 288,
          "midi": 47,
          "name": "B2",
          "ticks": 78528,
          "time": 76.6875,
          "velocity": 0.3937007874015748
        },
        {
          "duration": 0.28125,
          "durationTicks": 288,
          "midi": 50,
          "name": "D3",
          "ticks": 78624,
          "time": 76.78125,
          "velocity": 0.3937007874015748
        },
        {
          "duration": 0.28125,
          "durationTicks": 288,
          "midi": 54,
          "name": "F#3",
          "ticks": 78720,
          "time": 76.875,
          "velocity": 0.3937007874015748
        },
        {
          "duration": 0.28125,
          "durationTicks": 288,
          "midi": 59,
          "name": "B3",
          "ticks": 78816,
          "time": 76.96875,
          "velocity": 0.3937007874015748
        },
        {
          "duration": 0.28125,
          "durationTicks": 288,
          "midi": 62,
          "name": "D4",
          "ticks": 78912,
          "time": 77.0625,
          "velocity": 0.3937007874015748
        },
        {
          "duration": 0.28125,
          "durationTicks": 288,
          "midi": 66,
          "name": "F#4",
          "ticks": 79008,
          "time": 77.15625,
          "velocity": 0.3937007874015748
        },
        {
          "duration": 0.28125,
          "durationTicks": 288,
          "midi": 71,
          "name": "B4",
          "ticks": 79104,
          "time": 77.25,
          "velocity": 0.3937007874015748
        },
        {
          "duration": 0.28125,
          "durationTicks": 288,
          "midi": 66,
          "name": "F#4",
          "ticks": 79200,
          "time": 77.34375,
          "velocity": 0.3937007874015748
        },
        {
          "duration": 0.28125,
          "durationTicks": 288,
          "midi": 62,
          "name": "D4",
          "ticks": 79296,
          "time": 77.4375,
          "velocity": 0.3937007874015748
        },
        {
          "duration": 0.28125,
          "durationTicks": 288,
          "midi": 59,
          "name": "B3",
          "ticks": 79392,
          "time": 77.53125,
          "velocity": 0.3937007874015748
        },
        {
          "duration": 0.28125,
          "durationTicks": 288,
          "midi": 54,
          "name": "F#3",
          "ticks": 79488,
          "time": 77.625,
          "velocity": 0.3937007874015748
        },
        {
          "duration": 0.28125,
          "durationTicks": 288,
          "midi": 50,
          "name": "D3",
          "ticks": 79584,
          "time": 77.71875,
          "velocity": 0.3937007874015748
        },
        {
          "duration": 0.28125,
          "durationTicks": 288,
          "midi": 47,
          "name": "B2",
          "ticks": 79680,
          "time": 77.8125,
          "velocity": 0.3937007874015748
        },
        {
          "duration": 0.28125,
          "durationTicks": 288,
          "midi": 42,
          "name": "F#2",
          "ticks": 79776,
          "time": 77.90625,
          "velocity": 0.3937007874015748
        },
        {
          "duration": 0.28125,
          "durationTicks": 288,
          "midi": 37,
          "name": "C#2",
          "ticks": 79872,
          "time": 78,
          "velocity": 0.3937007874015748
        },
        {
          "duration": 0.28125,
          "durationTicks": 288,
          "midi": 42,
          "name": "F#2",
          "ticks": 79968,
          "time": 78.09375,
          "velocity": 0.3937007874015748
        },
        {
          "duration": 0.28125,
          "durationTicks": 288,
          "midi": 46,
          "name": "A#2",
          "ticks": 80064,
          "time": 78.1875,
          "velocity": 0.3937007874015748
        },
        {
          "duration": 0.28125,
          "durationTicks": 288,
          "midi": 49,
          "name": "C#3",
          "ticks": 80160,
          "time": 78.28125,
          "velocity": 0.3937007874015748
        },
        {
          "duration": 0.28125,
          "durationTicks": 288,
          "midi": 54,
          "name": "F#3",
          "ticks": 80256,
          "time": 78.375,
          "velocity": 0.3937007874015748
        },
        {
          "duration": 0.28125,
          "durationTicks": 288,
          "midi": 58,
          "name": "A#3",
          "ticks": 80352,
          "time": 78.46875,
          "velocity": 0.3937007874015748
        },
        {
          "duration": 0.28125,
          "durationTicks": 288,
          "midi": 61,
          "name": "C#4",
          "ticks": 80448,
          "time": 78.5625,
          "velocity": 0.3937007874015748
        },
        {
          "duration": 0.28125,
          "durationTicks": 288,
          "midi": 66,
          "name": "F#4",
          "ticks": 80544,
          "time": 78.65625,
          "velocity": 0.3937007874015748
        },
        {
          "duration": 0.28125,
          "durationTicks": 288,
          "midi": 70,
          "name": "A#4",
          "ticks": 80640,
          "time": 78.75,
          "velocity": 0.3937007874015748
        },
        {
          "duration": 0.28125,
          "durationTicks": 288,
          "midi": 66,
          "name": "F#4",
          "ticks": 80736,
          "time": 78.84375,
          "velocity": 0.3937007874015748
        },
        {
          "duration": 0.28125,
          "durationTicks": 288,
          "midi": 61,
          "name": "C#4",
          "ticks": 80832,
          "time": 78.9375,
          "velocity": 0.3937007874015748
        },
        {
          "duration": 0.28125,
          "durationTicks": 288,
          "midi": 58,
          "name": "A#3",
          "ticks": 80928,
          "time": 79.03125,
          "velocity": 0.3937007874015748
        },
        {
          "duration": 0.28125,
          "durationTicks": 288,
          "midi": 54,
          "name": "F#3",
          "ticks": 81024,
          "time": 79.125,
          "velocity": 0.3937007874015748
        },
        {
          "duration": 0.28125,
          "durationTicks": 288,
          "midi": 49,
          "name": "C#3",
          "ticks": 81120,
          "time": 79.21875,
          "velocity": 0.3937007874015748
        },
        {
          "duration": 0.28125,
          "durationTicks": 288,
          "midi": 46,
          "name": "A#2",
          "ticks": 81216,
          "time": 79.3125,
          "velocity": 0.3937007874015748
        },
        {
          "duration": 0.28125,
          "durationTicks": 288,
          "midi": 42,
          "name": "F#2",
          "ticks": 81312,
          "time": 79.40625,
          "velocity": 0.3937007874015748
        },
        {
          "duration": 0.28125,
          "durationTicks": 288,
          "midi": 36,
          "name": "C2",
          "ticks": 81408,
          "time": 79.5,
          "velocity": 0.3937007874015748
        },
        {
          "duration": 0.28125,
          "durationTicks": 288,
          "midi": 40,
          "name": "E2",
          "ticks": 81504,
          "time": 79.59375,
          "velocity": 0.3937007874015748
        },
        {
          "duration": 0.28125,
          "durationTicks": 288,
          "midi": 45,
          "name": "A2",
          "ticks": 81600,
          "time": 79.6875,
          "velocity": 0.3937007874015748
        },
        {
          "duration": 0.28125,
          "durationTicks": 288,
          "midi": 48,
          "name": "C3",
          "ticks": 81696,
          "time": 79.78125,
          "velocity": 0.3937007874015748
        },
        {
          "duration": 0.28125,
          "durationTicks": 288,
          "midi": 52,
          "name": "E3",
          "ticks": 81792,
          "time": 79.875,
          "velocity": 0.3937007874015748
        },
        {
          "duration": 0.28125,
          "durationTicks": 288,
          "midi": 57,
          "name": "A3",
          "ticks": 81888,
          "time": 79.96875,
          "velocity": 0.3937007874015748
        },
        {
          "duration": 0.28125,
          "durationTicks": 288,
          "midi": 60,
          "name": "C4",
          "ticks": 81984,
          "time": 80.0625,
          "velocity": 0.3937007874015748
        },
        {
          "duration": 0.28125,
          "durationTicks": 288,
          "midi": 64,
          "name": "E4",
          "ticks": 82080,
          "time": 80.15625,
          "velocity": 0.3937007874015748
        },
        {
          "duration": 0.28125,
          "durationTicks": 288,
          "midi": 69,
          "name": "A4",
          "ticks": 82176,
          "time": 80.25,
          "velocity": 0.3937007874015748
        },
        {
          "duration": 0.28125,
          "durationTicks": 288,
          "midi": 64,
          "name": "E4",
          "ticks": 82272,
          "time": 80.34375,
          "velocity": 0.3937007874015748
        },
        {
          "duration": 0.28125,
          "durationTicks": 288,
          "midi": 60,
          "name": "C4",
          "ticks": 82368,
          "time": 80.4375,
          "velocity": 0.3937007874015748
        },
        {
          "duration": 0.28125,
          "durationTicks": 288,
          "midi": 57,
          "name": "A3",
          "ticks": 82464,
          "time": 80.53125,
          "velocity": 0.3937007874015748
        },
        {
          "duration": 0.28125,
          "durationTicks": 288,
          "midi": 52,
          "name": "E3",
          "ticks": 82560,
          "time": 80.625,
          "velocity": 0.3937007874015748
        },
        {
          "duration": 0.28125,
          "durationTicks": 288,
          "midi": 48,
          "name": "C3",
          "ticks": 82656,
          "time": 80.71875,
          "velocity": 0.3937007874015748
        },
        {
          "duration": 0.28125,
          "durationTicks": 288,
          "midi": 45,
          "name": "A2",
          "ticks": 82752,
          "time": 80.8125,
          "velocity": 0.3937007874015748
        },
        {
          "duration": 0.28125,
          "durationTicks": 288,
          "midi": 40,
          "name": "E2",
          "ticks": 82848,
          "time": 80.90625,
          "velocity": 0.3937007874015748
        },
        {
          "duration": 0.28125,
          "durationTicks": 288,
          "midi": 35,
          "name": "B1",
          "ticks": 82944,
          "time": 81,
          "velocity": 0.3937007874015748
        },
        {
          "duration": 0.28125,
          "durationTicks": 288,
          "midi": 39,
          "name": "D#2",
          "ticks": 83040,
          "time": 81.09375,
          "velocity": 0.3937007874015748
        },
        {
          "duration": 0.28125,
          "durationTicks": 288,
          "midi": 42,
          "name": "F#2",
          "ticks": 83136,
          "time": 81.1875,
          "velocity": 0.3937007874015748
        },
        {
          "duration": 0.28125,
          "durationTicks": 288,
          "midi": 47,
          "name": "B2",
          "ticks": 83232,
          "time": 81.28125,
          "velocity": 0.3937007874015748
        },
        {
          "duration": 0.28125,
          "durationTicks": 288,
          "midi": 51,
          "name": "D#3",
          "ticks": 83328,
          "time": 81.375,
          "velocity": 0.3937007874015748
        },
        {
          "duration": 0.28125,
          "durationTicks": 288,
          "midi": 54,
          "name": "F#3",
          "ticks": 83424,
          "time": 81.46875,
          "velocity": 0.3937007874015748
        },
        {
          "duration": 0.28125,
          "durationTicks": 288,
          "midi": 59,
          "name": "B3",
          "ticks": 83520,
          "time": 81.5625,
          "velocity": 0.3937007874015748
        },
        {
          "duration": 0.28125,
          "durationTicks": 288,
          "midi": 63,
          "name": "D#4",
          "ticks": 83616,
          "time": 81.65625,
          "velocity": 0.3937007874015748
        },
        {
          "duration": 0.28125,
          "durationTicks": 288,
          "midi": 66,
          "name": "F#4",
          "ticks": 83712,
          "time": 81.75,
          "velocity": 0.3937007874015748
        },
        {
          "duration": 0.28125,
          "durationTicks": 288,
          "midi": 63,
          "name": "D#4",
          "ticks": 83808,
          "time": 81.84375,
          "velocity": 0.3937007874015748
        },
        {
          "duration": 0.28125,
          "durationTicks": 288,
          "midi": 59,
          "name": "B3",
          "ticks": 83904,
          "time": 81.9375,
          "velocity": 0.3937007874015748
        },
        {
          "duration": 0.28125,
          "durationTicks": 288,
          "midi": 54,
          "name": "F#3",
          "ticks": 84000,
          "time": 82.03125,
          "velocity": 0.3937007874015748
        },
        {
          "duration": 0.28125,
          "durationTicks": 288,
          "midi": 51,
          "name": "D#3",
          "ticks": 84096,
          "time": 82.125,
          "velocity": 0.3937007874015748
        },
        {
          "duration": 0.28125,
          "durationTicks": 288,
          "midi": 47,
          "name": "B2",
          "ticks": 84192,
          "time": 82.21875,
          "velocity": 0.3937007874015748
        },
        {
          "duration": 0.28125,
          "durationTicks": 288,
          "midi": 42,
          "name": "F#2",
          "ticks": 84288,
          "time": 82.3125,
          "velocity": 0.3937007874015748
        },
        {
          "duration": 0.28125,
          "durationTicks": 288,
          "midi": 39,
          "name": "D#2",
          "ticks": 84384,
          "time": 82.40625,
          "velocity": 0.3937007874015748
        },
        {
          "duration": 0.28125,
          "durationTicks": 288,
          "midi": 39,
          "name": "D#2",
          "ticks": 84384,
          "time": 82.40625,
          "velocity": 0.3937007874015748
        },
        {
          "duration": 0.28125,
          "durationTicks": 288,
          "midi": 41,
          "name": "F2",
          "ticks": 84480,
          "time": 82.5,
          "velocity": 0.3937007874015748
        },
        {
          "duration": 0.28125,
          "durationTicks": 288,
          "midi": 45,
          "name": "A2",
          "ticks": 84576,
          "time": 82.59375,
          "velocity": 0.3937007874015748
        },
        {
          "duration": 0.28125,
          "durationTicks": 288,
          "midi": 48,
          "name": "C3",
          "ticks": 84672,
          "time": 82.6875,
          "velocity": 0.3937007874015748
        },
        {
          "duration": 0.28125,
          "durationTicks": 288,
          "midi": 53,
          "name": "F3",
          "ticks": 84768,
          "time": 82.78125,
          "velocity": 0.3937007874015748
        },
        {
          "duration": 0.28125,
          "durationTicks": 288,
          "midi": 57,
          "name": "A3",
          "ticks": 84864,
          "time": 82.875,
          "velocity": 0.3937007874015748
        },
        {
          "duration": 0.28125,
          "durationTicks": 288,
          "midi": 60,
          "name": "C4",
          "ticks": 84960,
          "time": 82.96875,
          "velocity": 0.3937007874015748
        },
        {
          "duration": 0.28125,
          "durationTicks": 288,
          "midi": 65,
          "name": "F4",
          "ticks": 85056,
          "time": 83.0625,
          "velocity": 0.3937007874015748
        },
        {
          "duration": 0.28125,
          "durationTicks": 288,
          "midi": 69,
          "name": "A4",
          "ticks": 85152,
          "time": 83.15625,
          "velocity": 0.3937007874015748
        },
        {
          "duration": 0.28125,
          "durationTicks": 288,
          "midi": 72,
          "name": "C5",
          "ticks": 85248,
          "time": 83.25,
          "velocity": 0.3937007874015748
        },
        {
          "duration": 0.28125,
          "durationTicks": 288,
          "midi": 69,
          "name": "A4",
          "ticks": 85344,
          "time": 83.34375,
          "velocity": 0.3937007874015748
        },
        {
          "duration": 0.28125,
          "durationTicks": 288,
          "midi": 65,
          "name": "F4",
          "ticks": 85440,
          "time": 83.4375,
          "velocity": 0.3937007874015748
        },
        {
          "duration": 0.28125,
          "durationTicks": 288,
          "midi": 60,
          "name": "C4",
          "ticks": 85536,
          "time": 83.53125,
          "velocity": 0.3937007874015748
        },
        {
          "duration": 0.28125,
          "durationTicks": 288,
          "midi": 57,
          "name": "A3",
          "ticks": 85632,
          "time": 83.625,
          "velocity": 0.3937007874015748
        },
        {
          "duration": 0.28125,
          "durationTicks": 288,
          "midi": 53,
          "name": "F3",
          "ticks": 85728,
          "time": 83.71875,
          "velocity": 0.3937007874015748
        },
        {
          "duration": 0.28125,
          "durationTicks": 288,
          "midi": 48,
          "name": "C3",
          "ticks": 85824,
          "time": 83.8125,
          "velocity": 0.3937007874015748
        },
        {
          "duration": 0.28125,
          "durationTicks": 288,
          "midi": 45,
          "name": "A2",
          "ticks": 85920,
          "time": 83.90625,
          "velocity": 0.3937007874015748
        },
        {
          "duration": 0.28125,
          "durationTicks": 288,
          "midi": 39,
          "name": "D#2",
          "ticks": 86016,
          "time": 84,
          "velocity": 0.3937007874015748
        },
        {
          "duration": 0.28125,
          "durationTicks": 288,
          "midi": 42,
          "name": "F#2",
          "ticks": 86112,
          "time": 84.09375,
          "velocity": 0.3937007874015748
        },
        {
          "duration": 0.28125,
          "durationTicks": 288,
          "midi": 47,
          "name": "B2",
          "ticks": 86208,
          "time": 84.1875,
          "velocity": 0.3937007874015748
        },
        {
          "duration": 0.28125,
          "durationTicks": 288,
          "midi": 51,
          "name": "D#3",
          "ticks": 86304,
          "time": 84.28125,
          "velocity": 0.3937007874015748
        },
        {
          "duration": 0.28125,
          "durationTicks": 288,
          "midi": 54,
          "name": "F#3",
          "ticks": 86400,
          "time": 84.375,
          "velocity": 0.3937007874015748
        },
        {
          "duration": 0.28125,
          "durationTicks": 288,
          "midi": 59,
          "name": "B3",
          "ticks": 86496,
          "time": 84.46875,
          "velocity": 0.3937007874015748
        },
        {
          "duration": 0.28125,
          "durationTicks": 288,
          "midi": 63,
          "name": "D#4",
          "ticks": 86592,
          "time": 84.5625,
          "velocity": 0.3937007874015748
        },
        {
          "duration": 0.28125,
          "durationTicks": 288,
          "midi": 66,
          "name": "F#4",
          "ticks": 86688,
          "time": 84.65625,
          "velocity": 0.3937007874015748
        },
        {
          "duration": 0.28125,
          "durationTicks": 288,
          "midi": 71,
          "name": "B4",
          "ticks": 86784,
          "time": 84.75,
          "velocity": 0.3937007874015748
        },
        {
          "duration": 0.28125,
          "durationTicks": 288,
          "midi": 66,
          "name": "F#4",
          "ticks": 86880,
          "time": 84.84375,
          "velocity": 0.3937007874015748
        },
        {
          "duration": 0.28125,
          "durationTicks": 288,
          "midi": 63,
          "name": "D#4",
          "ticks": 86976,
          "time": 84.9375,
          "velocity": 0.3937007874015748
        },
        {
          "duration": 0.28125,
          "durationTicks": 288,
          "midi": 59,
          "name": "B3",
          "ticks": 87072,
          "time": 85.03125,
          "velocity": 0.3937007874015748
        },
        {
          "duration": 0.28125,
          "durationTicks": 288,
          "midi": 54,
          "name": "F#3",
          "ticks": 87168,
          "time": 85.125,
          "velocity": 0.3937007874015748
        },
        {
          "duration": 0.28125,
          "durationTicks": 288,
          "midi": 51,
          "name": "D#3",
          "ticks": 87264,
          "time": 85.21875,
          "velocity": 0.3937007874015748
        },
        {
          "duration": 0.28125,
          "durationTicks": 288,
          "midi": 47,
          "name": "B2",
          "ticks": 87360,
          "time": 85.3125,
          "velocity": 0.3937007874015748
        },
        {
          "duration": 0.28125,
          "durationTicks": 288,
          "midi": 42,
          "name": "F#2",
          "ticks": 87456,
          "time": 85.40625,
          "velocity": 0.3937007874015748
        },
        {
          "duration": 0.28125,
          "durationTicks": 288,
          "midi": 40,
          "name": "E2",
          "ticks": 87552,
          "time": 85.5,
          "velocity": 0.3937007874015748
        },
        {
          "duration": 0.28125,
          "durationTicks": 288,
          "midi": 43,
          "name": "G2",
          "ticks": 87648,
          "time": 85.59375,
          "velocity": 0.3937007874015748
        },
        {
          "duration": 0.28125,
          "durationTicks": 288,
          "midi": 47,
          "name": "B2",
          "ticks": 87744,
          "time": 85.6875,
          "velocity": 0.3937007874015748
        },
        {
          "duration": 0.28125,
          "durationTicks": 288,
          "midi": 52,
          "name": "E3",
          "ticks": 87840,
          "time": 85.78125,
          "velocity": 0.3937007874015748
        },
        {
          "duration": 0.28125,
          "durationTicks": 288,
          "midi": 55,
          "name": "G3",
          "ticks": 87936,
          "time": 85.875,
          "velocity": 0.3937007874015748
        },
        {
          "duration": 0.28125,
          "durationTicks": 288,
          "midi": 59,
          "name": "B3",
          "ticks": 88032,
          "time": 85.96875,
          "velocity": 0.3937007874015748
        },
        {
          "duration": 0.28125,
          "durationTicks": 288,
          "midi": 64,
          "name": "E4",
          "ticks": 88128,
          "time": 86.0625,
          "velocity": 0.3937007874015748
        },
        {
          "duration": 0.28125,
          "durationTicks": 288,
          "midi": 67,
          "name": "G4",
          "ticks": 88224,
          "time": 86.15625,
          "velocity": 0.3937007874015748
        },
        {
          "duration": 0.28125,
          "durationTicks": 288,
          "midi": 71,
          "name": "B4",
          "ticks": 88320,
          "time": 86.25,
          "velocity": 0.3937007874015748
        },
        {
          "duration": 0.28125,
          "durationTicks": 288,
          "midi": 67,
          "name": "G4",
          "ticks": 88416,
          "time": 86.34375,
          "velocity": 0.3937007874015748
        },
        {
          "duration": 0.28125,
          "durationTicks": 288,
          "midi": 64,
          "name": "E4",
          "ticks": 88512,
          "time": 86.4375,
          "velocity": 0.3937007874015748
        },
        {
          "duration": 0.28125,
          "durationTicks": 288,
          "midi": 59,
          "name": "B3",
          "ticks": 88608,
          "time": 86.53125,
          "velocity": 0.3937007874015748
        },
        {
          "duration": 0.28125,
          "durationTicks": 288,
          "midi": 55,
          "name": "G3",
          "ticks": 88704,
          "time": 86.625,
          "velocity": 0.3937007874015748
        },
        {
          "duration": 0.28125,
          "durationTicks": 288,
          "midi": 52,
          "name": "E3",
          "ticks": 88800,
          "time": 86.71875,
          "velocity": 0.3937007874015748
        },
        {
          "duration": 0.28125,
          "durationTicks": 288,
          "midi": 47,
          "name": "B2",
          "ticks": 88896,
          "time": 86.8125,
          "velocity": 0.3937007874015748
        },
        {
          "duration": 0.28125,
          "durationTicks": 288,
          "midi": 43,
          "name": "G2",
          "ticks": 88992,
          "time": 86.90625,
          "velocity": 0.3937007874015748
        },
        {
          "duration": 0.28125,
          "durationTicks": 288,
          "midi": 39,
          "name": "D#2",
          "ticks": 89088,
          "time": 87,
          "velocity": 0.3937007874015748
        },
        {
          "duration": 0.28125,
          "durationTicks": 288,
          "midi": 42,
          "name": "F#2",
          "ticks": 89184,
          "time": 87.09375,
          "velocity": 0.3937007874015748
        },
        {
          "duration": 0.28125,
          "durationTicks": 288,
          "midi": 47,
          "name": "B2",
          "ticks": 89280,
          "time": 87.1875,
          "velocity": 0.3937007874015748
        },
        {
          "duration": 0.28125,
          "durationTicks": 288,
          "midi": 51,
          "name": "D#3",
          "ticks": 89376,
          "time": 87.28125,
          "velocity": 0.3937007874015748
        },
        {
          "duration": 0.28125,
          "durationTicks": 288,
          "midi": 54,
          "name": "F#3",
          "ticks": 89472,
          "time": 87.375,
          "velocity": 0.3937007874015748
        },
        {
          "duration": 0.28125,
          "durationTicks": 288,
          "midi": 59,
          "name": "B3",
          "ticks": 89568,
          "time": 87.46875,
          "velocity": 0.3937007874015748
        },
        {
          "duration": 0.28125,
          "durationTicks": 288,
          "midi": 63,
          "name": "D#4",
          "ticks": 89664,
          "time": 87.5625,
          "velocity": 0.3937007874015748
        },
        {
          "duration": 0.28125,
          "durationTicks": 288,
          "midi": 66,
          "name": "F#4",
          "ticks": 89760,
          "time": 87.65625,
          "velocity": 0.3937007874015748
        },
        {
          "duration": 0.28125,
          "durationTicks": 288,
          "midi": 71,
          "name": "B4",
          "ticks": 89856,
          "time": 87.75,
          "velocity": 0.3937007874015748
        },
        {
          "duration": 0.28125,
          "durationTicks": 288,
          "midi": 66,
          "name": "F#4",
          "ticks": 89952,
          "time": 87.84375,
          "velocity": 0.3937007874015748
        },
        {
          "duration": 0.28125,
          "durationTicks": 288,
          "midi": 63,
          "name": "D#4",
          "ticks": 90048,
          "time": 87.9375,
          "velocity": 0.3937007874015748
        },
        {
          "duration": 0.28125,
          "durationTicks": 288,
          "midi": 59,
          "name": "B3",
          "ticks": 90144,
          "time": 88.03125,
          "velocity": 0.3937007874015748
        },
        {
          "duration": 0.28125,
          "durationTicks": 288,
          "midi": 54,
          "name": "F#3",
          "ticks": 90240,
          "time": 88.125,
          "velocity": 0.3937007874015748
        },
        {
          "duration": 0.28125,
          "durationTicks": 288,
          "midi": 51,
          "name": "D#3",
          "ticks": 90336,
          "time": 88.21875,
          "velocity": 0.3937007874015748
        },
        {
          "duration": 0.28125,
          "durationTicks": 288,
          "midi": 47,
          "name": "B2",
          "ticks": 90432,
          "time": 88.3125,
          "velocity": 0.3937007874015748
        },
        {
          "duration": 0.28125,
          "durationTicks": 288,
          "midi": 42,
          "name": "F#2",
          "ticks": 90528,
          "time": 88.40625,
          "velocity": 0.3937007874015748
        },
        {
          "duration": 0.28125,
          "durationTicks": 288,
          "midi": 38,
          "name": "D2",
          "ticks": 90624,
          "time": 88.5,
          "velocity": 0.3937007874015748
        },
        {
          "duration": 0.28125,
          "durationTicks": 288,
          "midi": 42,
          "name": "F#2",
          "ticks": 90720,
          "time": 88.59375,
          "velocity": 0.3937007874015748
        },
        {
          "duration": 0.28125,
          "durationTicks": 288,
          "midi": 47,
          "name": "B2",
          "ticks": 90816,
          "time": 88.6875,
          "velocity": 0.3937007874015748
        },
        {
          "duration": 0.28125,
          "durationTicks": 288,
          "midi": 50,
          "name": "D3",
          "ticks": 90912,
          "time": 88.78125,
          "velocity": 0.3937007874015748
        },
        {
          "duration": 0.28125,
          "durationTicks": 288,
          "midi": 54,
          "name": "F#3",
          "ticks": 91008,
          "time": 88.875,
          "velocity": 0.3937007874015748
        },
        {
          "duration": 0.28125,
          "durationTicks": 288,
          "midi": 59,
          "name": "B3",
          "ticks": 91104,
          "time": 88.96875,
          "velocity": 0.3937007874015748
        },
        {
          "duration": 0.28125,
          "durationTicks": 288,
          "midi": 62,
          "name": "D4",
          "ticks": 91200,
          "time": 89.0625,
          "velocity": 0.3937007874015748
        },
        {
          "duration": 0.28125,
          "durationTicks": 288,
          "midi": 66,
          "name": "F#4",
          "ticks": 91296,
          "time": 89.15625,
          "velocity": 0.3937007874015748
        },
        {
          "duration": 0.28125,
          "durationTicks": 288,
          "midi": 71,
          "name": "B4",
          "ticks": 91392,
          "time": 89.25,
          "velocity": 0.3937007874015748
        },
        {
          "duration": 0.28125,
          "durationTicks": 288,
          "midi": 66,
          "name": "F#4",
          "ticks": 91488,
          "time": 89.34375,
          "velocity": 0.3937007874015748
        },
        {
          "duration": 0.28125,
          "durationTicks": 288,
          "midi": 62,
          "name": "D4",
          "ticks": 91584,
          "time": 89.4375,
          "velocity": 0.3937007874015748
        },
        {
          "duration": 0.28125,
          "durationTicks": 288,
          "midi": 59,
          "name": "B3",
          "ticks": 91680,
          "time": 89.53125,
          "velocity": 0.3937007874015748
        },
        {
          "duration": 0.28125,
          "durationTicks": 288,
          "midi": 54,
          "name": "F#3",
          "ticks": 91776,
          "time": 89.625,
          "velocity": 0.3937007874015748
        },
        {
          "duration": 0.28125,
          "durationTicks": 288,
          "midi": 50,
          "name": "D3",
          "ticks": 91872,
          "time": 89.71875,
          "velocity": 0.3937007874015748
        },
        {
          "duration": 0.28125,
          "durationTicks": 288,
          "midi": 47,
          "name": "B2",
          "ticks": 91968,
          "time": 89.8125,
          "velocity": 0.3937007874015748
        },
        {
          "duration": 0.28125,
          "durationTicks": 288,
          "midi": 42,
          "name": "F#2",
          "ticks": 92064,
          "time": 89.90625,
          "velocity": 0.3937007874015748
        },
        {
          "duration": 0.28125,
          "durationTicks": 288,
          "midi": 37,
          "name": "C#2",
          "ticks": 92160,
          "time": 90,
          "velocity": 0.3937007874015748
        },
        {
          "duration": 0.28125,
          "durationTicks": 288,
          "midi": 42,
          "name": "F#2",
          "ticks": 92256,
          "time": 90.09375,
          "velocity": 0.3937007874015748
        },
        {
          "duration": 0.28125,
          "durationTicks": 288,
          "midi": 46,
          "name": "A#2",
          "ticks": 92352,
          "time": 90.1875,
          "velocity": 0.3937007874015748
        },
        {
          "duration": 0.28125,
          "durationTicks": 288,
          "midi": 49,
          "name": "C#3",
          "ticks": 92448,
          "time": 90.28125,
          "velocity": 0.3937007874015748
        },
        {
          "duration": 0.28125,
          "durationTicks": 288,
          "midi": 54,
          "name": "F#3",
          "ticks": 92544,
          "time": 90.375,
          "velocity": 0.3937007874015748
        },
        {
          "duration": 0.28125,
          "durationTicks": 288,
          "midi": 58,
          "name": "A#3",
          "ticks": 92640,
          "time": 90.46875,
          "velocity": 0.3937007874015748
        },
        {
          "duration": 0.28125,
          "durationTicks": 288,
          "midi": 61,
          "name": "C#4",
          "ticks": 92736,
          "time": 90.5625,
          "velocity": 0.3937007874015748
        },
        {
          "duration": 0.28125,
          "durationTicks": 288,
          "midi": 66,
          "name": "F#4",
          "ticks": 92832,
          "time": 90.65625,
          "velocity": 0.3937007874015748
        },
        {
          "duration": 0.28125,
          "durationTicks": 288,
          "midi": 70,
          "name": "A#4",
          "ticks": 92928,
          "time": 90.75,
          "velocity": 0.3937007874015748
        },
        {
          "duration": 0.28125,
          "durationTicks": 288,
          "midi": 66,
          "name": "F#4",
          "ticks": 93024,
          "time": 90.84375,
          "velocity": 0.3937007874015748
        },
        {
          "duration": 0.28125,
          "durationTicks": 288,
          "midi": 61,
          "name": "C#4",
          "ticks": 93120,
          "time": 90.9375,
          "velocity": 0.3937007874015748
        },
        {
          "duration": 0.28125,
          "durationTicks": 288,
          "midi": 58,
          "name": "A#3",
          "ticks": 93216,
          "time": 91.03125,
          "velocity": 0.3937007874015748
        },
        {
          "duration": 0.28125,
          "durationTicks": 288,
          "midi": 54,
          "name": "F#3",
          "ticks": 93312,
          "time": 91.125,
          "velocity": 0.3937007874015748
        },
        {
          "duration": 0.28125,
          "durationTicks": 288,
          "midi": 49,
          "name": "C#3",
          "ticks": 93408,
          "time": 91.21875,
          "velocity": 0.3937007874015748
        },
        {
          "duration": 0.28125,
          "durationTicks": 288,
          "midi": 46,
          "name": "A#2",
          "ticks": 93504,
          "time": 91.3125,
          "velocity": 0.3937007874015748
        },
        {
          "duration": 0.28125,
          "durationTicks": 288,
          "midi": 42,
          "name": "F#2",
          "ticks": 93600,
          "time": 91.40625,
          "velocity": 0.3937007874015748
        },
        {
          "duration": 0.28125,
          "durationTicks": 288,
          "midi": 36,
          "name": "C2",
          "ticks": 93696,
          "time": 91.5,
          "velocity": 0.3937007874015748
        },
        {
          "duration": 0.28125,
          "durationTicks": 288,
          "midi": 40,
          "name": "E2",
          "ticks": 93792,
          "time": 91.59375,
          "velocity": 0.3937007874015748
        },
        {
          "duration": 0.28125,
          "durationTicks": 288,
          "midi": 45,
          "name": "A2",
          "ticks": 93888,
          "time": 91.6875,
          "velocity": 0.3937007874015748
        },
        {
          "duration": 0.28125,
          "durationTicks": 288,
          "midi": 48,
          "name": "C3",
          "ticks": 93984,
          "time": 91.78125,
          "velocity": 0.3937007874015748
        },
        {
          "duration": 0.28125,
          "durationTicks": 288,
          "midi": 57,
          "name": "A3",
          "ticks": 94176,
          "time": 91.96875,
          "velocity": 0.3937007874015748
        },
        {
          "duration": 0.28125,
          "durationTicks": 288,
          "midi": 60,
          "name": "C4",
          "ticks": 94272,
          "time": 92.0625,
          "velocity": 0.3937007874015748
        },
        {
          "duration": 0.28125,
          "durationTicks": 288,
          "midi": 64,
          "name": "E4",
          "ticks": 94368,
          "time": 92.15625,
          "velocity": 0.3937007874015748
        },
        {
          "duration": 0.28125,
          "durationTicks": 288,
          "midi": 69,
          "name": "A4",
          "ticks": 94464,
          "time": 92.25,
          "velocity": 0.3937007874015748
        },
        {
          "duration": 0.28125,
          "durationTicks": 288,
          "midi": 64,
          "name": "E4",
          "ticks": 94560,
          "time": 92.34375,
          "velocity": 0.3937007874015748
        },
        {
          "duration": 0.28125,
          "durationTicks": 288,
          "midi": 60,
          "name": "C4",
          "ticks": 94656,
          "time": 92.4375,
          "velocity": 0.3937007874015748
        },
        {
          "duration": 0.28125,
          "durationTicks": 288,
          "midi": 57,
          "name": "A3",
          "ticks": 94752,
          "time": 92.53125,
          "velocity": 0.3937007874015748
        },
        {
          "duration": 0.28125,
          "durationTicks": 288,
          "midi": 52,
          "name": "E3",
          "ticks": 94848,
          "time": 92.625,
          "velocity": 0.3937007874015748
        },
        {
          "duration": 0.28125,
          "durationTicks": 288,
          "midi": 48,
          "name": "C3",
          "ticks": 94944,
          "time": 92.71875,
          "velocity": 0.3937007874015748
        },
        {
          "duration": 0.28125,
          "durationTicks": 288,
          "midi": 45,
          "name": "A2",
          "ticks": 95040,
          "time": 92.8125,
          "velocity": 0.3937007874015748
        },
        {
          "duration": 0.28125,
          "durationTicks": 288,
          "midi": 40,
          "name": "E2",
          "ticks": 95136,
          "time": 92.90625,
          "velocity": 0.3937007874015748
        },
        {
          "duration": 0.28125,
          "durationTicks": 288,
          "midi": 39,
          "name": "D#2",
          "ticks": 95232,
          "time": 93,
          "velocity": 0.3937007874015748
        },
        {
          "duration": 0.28125,
          "durationTicks": 288,
          "midi": 42,
          "name": "F#2",
          "ticks": 95328,
          "time": 93.09375,
          "velocity": 0.3937007874015748
        },
        {
          "duration": 0.28125,
          "durationTicks": 288,
          "midi": 47,
          "name": "B2",
          "ticks": 95424,
          "time": 93.1875,
          "velocity": 0.3937007874015748
        },
        {
          "duration": 0.28125,
          "durationTicks": 288,
          "midi": 51,
          "name": "D#3",
          "ticks": 95520,
          "time": 93.28125,
          "velocity": 0.3937007874015748
        },
        {
          "duration": 0.28125,
          "durationTicks": 288,
          "midi": 54,
          "name": "F#3",
          "ticks": 95616,
          "time": 93.375,
          "velocity": 0.3937007874015748
        },
        {
          "duration": 0.28125,
          "durationTicks": 288,
          "midi": 59,
          "name": "B3",
          "ticks": 95712,
          "time": 93.46875,
          "velocity": 0.3937007874015748
        },
        {
          "duration": 0.28125,
          "durationTicks": 288,
          "midi": 66,
          "name": "F#4",
          "ticks": 95904,
          "time": 93.65625,
          "velocity": 0.3937007874015748
        },
        {
          "duration": 0.28125,
          "durationTicks": 288,
          "midi": 71,
          "name": "B4",
          "ticks": 96000,
          "time": 93.75,
          "velocity": 0.3937007874015748
        },
        {
          "duration": 0.28125,
          "durationTicks": 288,
          "midi": 66,
          "name": "F#4",
          "ticks": 96096,
          "time": 93.84375,
          "velocity": 0.3937007874015748
        },
        {
          "duration": 0.28125,
          "durationTicks": 288,
          "midi": 63,
          "name": "D#4",
          "ticks": 96192,
          "time": 93.9375,
          "velocity": 0.3937007874015748
        },
        {
          "duration": 0.28125,
          "durationTicks": 288,
          "midi": 59,
          "name": "B3",
          "ticks": 96288,
          "time": 94.03125,
          "velocity": 0.3937007874015748
        },
        {
          "duration": 0.28125,
          "durationTicks": 288,
          "midi": 54,
          "name": "F#3",
          "ticks": 96384,
          "time": 94.125,
          "velocity": 0.3937007874015748
        },
        {
          "duration": 0.28125,
          "durationTicks": 288,
          "midi": 51,
          "name": "D#3",
          "ticks": 96480,
          "time": 94.21875,
          "velocity": 0.3937007874015748
        },
        {
          "duration": 0.28125,
          "durationTicks": 288,
          "midi": 47,
          "name": "B2",
          "ticks": 96576,
          "time": 94.3125,
          "velocity": 0.3937007874015748
        },
        {
          "duration": 0.28125,
          "durationTicks": 288,
          "midi": 42,
          "name": "F#2",
          "ticks": 96672,
          "time": 94.40625,
          "velocity": 0.3937007874015748
        },
        {
          "duration": 0.09375,
          "durationTicks": 96,
          "midi": 72,
          "name": "C5",
          "ticks": 112128,
          "time": 109.5,
          "velocity": 0.3937007874015748
        },
        {
          "duration": 0.09375,
          "durationTicks": 96,
          "midi": 75,
          "name": "D#5",
          "ticks": 112224,
          "time": 109.59375,
          "velocity": 0.3937007874015748
        },
        {
          "duration": 0.09375,
          "durationTicks": 96,
          "midi": 81,
          "name": "A5",
          "ticks": 112320,
          "time": 109.6875,
          "velocity": 0.3937007874015748
        },
        {
          "duration": 0.09375,
          "durationTicks": 96,
          "midi": 79,
          "name": "G5",
          "ticks": 112416,
          "time": 109.78125,
          "velocity": 0.3937007874015748
        },
        {
          "duration": 0.09375,
          "durationTicks": 96,
          "midi": 78,
          "name": "F#5",
          "ticks": 112512,
          "time": 109.875,
          "velocity": 0.3937007874015748
        },
        {
          "duration": 0.09375,
          "durationTicks": 96,
          "midi": 76,
          "name": "E5",
          "ticks": 112608,
          "time": 109.96875,
          "velocity": 0.3937007874015748
        },
        {
          "duration": 0.09375,
          "durationTicks": 96,
          "midi": 71,
          "name": "B4",
          "ticks": 112704,
          "time": 110.0625,
          "velocity": 0.3937007874015748
        },
        {
          "duration": 0.09375,
          "durationTicks": 96,
          "midi": 75,
          "name": "D#5",
          "ticks": 112800,
          "time": 110.15625,
          "velocity": 0.3937007874015748
        },
        {
          "duration": 0.09375,
          "durationTicks": 96,
          "midi": 73,
          "name": "C#5",
          "ticks": 112896,
          "time": 110.25,
          "velocity": 0.3937007874015748
        },
        {
          "duration": 0.09375,
          "durationTicks": 96,
          "midi": 76,
          "name": "E5",
          "ticks": 112992,
          "time": 110.34375,
          "velocity": 0.3937007874015748
        },
        {
          "duration": 0.09375,
          "durationTicks": 96,
          "midi": 75,
          "name": "D#5",
          "ticks": 113088,
          "time": 110.4375,
          "velocity": 0.3937007874015748
        },
        {
          "duration": 0.09375,
          "durationTicks": 96,
          "midi": 72,
          "name": "C5",
          "ticks": 113184,
          "time": 110.53125,
          "velocity": 0.3937007874015748
        },
        {
          "duration": 0.09375,
          "durationTicks": 96,
          "midi": 71,
          "name": "B4",
          "ticks": 113280,
          "time": 110.625,
          "velocity": 0.3937007874015748
        },
        {
          "duration": 0.09375,
          "durationTicks": 96,
          "midi": 67,
          "name": "G4",
          "ticks": 113376,
          "time": 110.71875,
          "velocity": 0.3937007874015748
        },
        {
          "duration": 0.09375,
          "durationTicks": 96,
          "midi": 69,
          "name": "A4",
          "ticks": 113472,
          "time": 110.8125,
          "velocity": 0.3937007874015748
        },
        {
          "duration": 0.09375,
          "durationTicks": 96,
          "midi": 66,
          "name": "F#4",
          "ticks": 113568,
          "time": 110.90625,
          "velocity": 0.3937007874015748
        },
        {
          "duration": 0.0625,
          "durationTicks": 64,
          "midi": 64,
          "name": "E4",
          "ticks": 113664,
          "time": 111,
          "velocity": 0.3937007874015748
        },
        {
          "duration": 0.0625,
          "durationTicks": 64,
          "midi": 67,
          "name": "G4",
          "ticks": 113728,
          "time": 111.0625,
          "velocity": 0.3937007874015748
        },
        {
          "duration": 0.0625,
          "durationTicks": 64,
          "midi": 71,
          "name": "B4",
          "ticks": 113792,
          "time": 111.125,
          "velocity": 0.3937007874015748
        },
        {
          "duration": 0.09375,
          "durationTicks": 96,
          "midi": 74,
          "name": "D5",
          "ticks": 113856,
          "time": 111.1875,
          "velocity": 0.3937007874015748
        },
        {
          "duration": 0.09375,
          "durationTicks": 96,
          "midi": 71,
          "name": "B4",
          "ticks": 113952,
          "time": 111.28125,
          "velocity": 0.3937007874015748
        },
        {
          "duration": 0.28125,
          "durationTicks": 288,
          "midi": 73,
          "name": "C#5",
          "ticks": 114048,
          "time": 111.375,
          "velocity": 0.3937007874015748
        },
        {
          "duration": 0.09375,
          "durationTicks": 96,
          "midi": 69,
          "name": "A4",
          "ticks": 114240,
          "time": 111.5625,
          "velocity": 0.3937007874015748
        },
        {
          "duration": 0.28125,
          "durationTicks": 288,
          "midi": 71,
          "name": "B4",
          "ticks": 114336,
          "time": 111.65625,
          "velocity": 0.3937007874015748
        },
        {
          "duration": 0.09375,
          "durationTicks": 96,
          "midi": 67,
          "name": "G4",
          "ticks": 114528,
          "time": 111.84375,
          "velocity": 0.3937007874015748
        },
        {
          "duration": 0.28125,
          "durationTicks": 288,
          "midi": 69,
          "name": "A4",
          "ticks": 114624,
          "time": 111.9375,
          "velocity": 0.3937007874015748
        },
        {
          "duration": 0.09375,
          "durationTicks": 96,
          "midi": 66,
          "name": "F#4",
          "ticks": 114816,
          "time": 112.125,
          "velocity": 0.3937007874015748
        },
        {
          "duration": 0.09375,
          "durationTicks": 96,
          "midi": 67,
          "name": "G4",
          "ticks": 114912,
          "time": 112.21875,
          "velocity": 0.3937007874015748
        },
        {
          "duration": 0.09375,
          "durationTicks": 96,
          "midi": 64,
          "name": "E4",
          "ticks": 115008,
          "time": 112.3125,
          "velocity": 0.3937007874015748
        },
        {
          "duration": 0.09375,
          "durationTicks": 96,
          "midi": 59,
          "name": "B3",
          "ticks": 115104,
          "time": 112.40625,
          "velocity": 0.3937007874015748
        },
        {
          "duration": 0.09375,
          "durationTicks": 96,
          "midi": 64,
          "name": "E4",
          "ticks": 115200,
          "time": 112.5,
          "velocity": 0.3937007874015748
        },
        {
          "duration": 0.09375,
          "durationTicks": 96,
          "midi": 76,
          "name": "E5",
          "ticks": 115200,
          "time": 112.5,
          "velocity": 0.3937007874015748
        },
        {
          "duration": 0.09375,
          "durationTicks": 96,
          "midi": 67,
          "name": "G4",
          "ticks": 115392,
          "time": 112.6875,
          "velocity": 0.3937007874015748
        },
        {
          "duration": 0.09375,
          "durationTicks": 96,
          "midi": 79,
          "name": "G5",
          "ticks": 115392,
          "time": 112.6875,
          "velocity": 0.3937007874015748
        },
        {
          "duration": 0.09375,
          "durationTicks": 96,
          "midi": 71,
          "name": "B4",
          "ticks": 115584,
          "time": 112.875,
          "velocity": 0.3937007874015748
        },
        {
          "duration": 0.09375,
          "durationTicks": 96,
          "midi": 83,
          "name": "B5",
          "ticks": 115584,
          "time": 112.875,
          "velocity": 0.3937007874015748
        },
        {
          "duration": 0.09375,
          "durationTicks": 96,
          "midi": 76,
          "name": "E5",
          "ticks": 115776,
          "time": 113.0625,
          "velocity": 0.3937007874015748
        },
        {
          "duration": 0.09375,
          "durationTicks": 96,
          "midi": 88,
          "name": "E6",
          "ticks": 115776,
          "time": 113.0625,
          "velocity": 0.3937007874015748
        },
        {
          "duration": 0.1875,
          "durationTicks": 192,
          "midi": 75,
          "name": "D#5",
          "ticks": 115968,
          "time": 113.25,
          "velocity": 0.3937007874015748
        },
        {
          "duration": 0.1875,
          "durationTicks": 192,
          "midi": 87,
          "name": "D#6",
          "ticks": 115968,
          "time": 113.25,
          "velocity": 0.3937007874015748
        },
        {
          "duration": 0.1875,
          "durationTicks": 192,
          "midi": 83,
          "name": "B5",
          "ticks": 116256,
          "time": 113.53125,
          "velocity": 0.3937007874015748
        },
        {
          "duration": 0.1875,
          "durationTicks": 192,
          "midi": 71,
          "name": "B4",
          "ticks": 116256,
          "time": 113.53125,
          "velocity": 0.3937007874015748
        },
        {
          "duration": 0.1875,
          "durationTicks": 192,
          "midi": 75,
          "name": "D#5",
          "ticks": 116544,
          "time": 113.8125,
          "velocity": 0.3937007874015748
        },
        {
          "duration": 0.1875,
          "durationTicks": 192,
          "midi": 87,
          "name": "D#6",
          "ticks": 116544,
          "time": 113.8125,
          "velocity": 0.3937007874015748
        },
        {
          "duration": 0.1875,
          "durationTicks": 192,
          "midi": 74,
          "name": "D5",
          "ticks": 116736,
          "time": 114,
          "velocity": 0.3937007874015748
        },
        {
          "duration": 0.1875,
          "durationTicks": 192,
          "midi": 86,
          "name": "D6",
          "ticks": 116736,
          "time": 114,
          "velocity": 0.3937007874015748
        },
        {
          "duration": 0.1875,
          "durationTicks": 192,
          "midi": 83,
          "name": "B5",
          "ticks": 117024,
          "time": 114.28125,
          "velocity": 0.3937007874015748
        },
        {
          "duration": 0.1875,
          "durationTicks": 192,
          "midi": 71,
          "name": "B4",
          "ticks": 117024,
          "time": 114.28125,
          "velocity": 0.3937007874015748
        },
        {
          "duration": 0.1875,
          "durationTicks": 192,
          "midi": 86,
          "name": "D6",
          "ticks": 117312,
          "time": 114.5625,
          "velocity": 0.3937007874015748
        },
        {
          "duration": 0.1875,
          "durationTicks": 192,
          "midi": 74,
          "name": "D5",
          "ticks": 117312,
          "time": 114.5625,
          "velocity": 0.3937007874015748
        },
        {
          "duration": 0.1875,
          "durationTicks": 192,
          "midi": 85,
          "name": "C#6",
          "ticks": 117504,
          "time": 114.75,
          "velocity": 0.3937007874015748
        },
        {
          "duration": 0.1875,
          "durationTicks": 192,
          "midi": 73,
          "name": "C#5",
          "ticks": 117504,
          "time": 114.75,
          "velocity": 0.3937007874015748
        },
        {
          "duration": 0.1875,
          "durationTicks": 192,
          "midi": 70,
          "name": "A#4",
          "ticks": 117792,
          "time": 115.03125,
          "velocity": 0.3937007874015748
        },
        {
          "duration": 0.1875,
          "durationTicks": 192,
          "midi": 82,
          "name": "A#5",
          "ticks": 117792,
          "time": 115.03125,
          "velocity": 0.3937007874015748
        },
        {
          "duration": 0.1875,
          "durationTicks": 192,
          "midi": 67,
          "name": "G4",
          "ticks": 118080,
          "time": 115.3125,
          "velocity": 0.3937007874015748
        },
        {
          "duration": 0.1875,
          "durationTicks": 192,
          "midi": 79,
          "name": "G5",
          "ticks": 118080,
          "time": 115.3125,
          "velocity": 0.3937007874015748
        },
        {
          "duration": 0.09375,
          "durationTicks": 96,
          "midi": 76,
          "name": "E5",
          "ticks": 118464,
          "time": 115.6875,
          "velocity": 0.3937007874015748
        },
        {
          "duration": 0.09375,
          "durationTicks": 96,
          "midi": 64,
          "name": "E4",
          "ticks": 118464,
          "time": 115.6875,
          "velocity": 0.3937007874015748
        },
        {
          "duration": 0.09375,
          "durationTicks": 96,
          "midi": 71,
          "name": "B4",
          "ticks": 118464,
          "time": 115.6875,
          "velocity": 0.3937007874015748
        },
        {
          "duration": 0.09375,
          "durationTicks": 96,
          "midi": 71,
          "name": "B4",
          "ticks": 118656,
          "time": 115.875,
          "velocity": 0.3937007874015748
        },
        {
          "duration": 0.09375,
          "durationTicks": 96,
          "midi": 76,
          "name": "E5",
          "ticks": 118656,
          "time": 115.875,
          "velocity": 0.3937007874015748
        },
        {
          "duration": 0.09375,
          "durationTicks": 96,
          "midi": 64,
          "name": "E4",
          "ticks": 118656,
          "time": 115.875,
          "velocity": 0.3937007874015748
        },
        {
          "duration": 0.09375,
          "durationTicks": 96,
          "midi": 71,
          "name": "B4",
          "ticks": 118848,
          "time": 116.0625,
          "velocity": 0.3937007874015748
        },
        {
          "duration": 0.09375,
          "durationTicks": 96,
          "midi": 64,
          "name": "E4",
          "ticks": 118848,
          "time": 116.0625,
          "velocity": 0.3937007874015748
        },
        {
          "duration": 0.09375,
          "durationTicks": 96,
          "midi": 76,
          "name": "E5",
          "ticks": 118848,
          "time": 116.0625,
          "velocity": 0.3937007874015748
        },
        {
          "duration": 0.1875,
          "durationTicks": 192,
          "midi": 76,
          "name": "E5",
          "ticks": 119040,
          "time": 116.25,
          "velocity": 0.3937007874015748
        },
        {
          "duration": 0.1875,
          "durationTicks": 192,
          "midi": 71,
          "name": "B4",
          "ticks": 119040,
          "time": 116.25,
          "velocity": 0.3937007874015748
        },
        {
          "duration": 0.1875,
          "durationTicks": 192,
          "midi": 64,
          "name": "E4",
          "ticks": 119040,
          "time": 116.25,
          "velocity": 0.3937007874015748
        },
        {
          "duration": 0.28125,
          "durationTicks": 288,
          "midi": 71,
          "name": "B4",
          "ticks": 119328,
          "time": 116.53125,
          "velocity": 0.3937007874015748
        },
        {
          "duration": 0.28125,
          "durationTicks": 288,
          "midi": 76,
          "name": "E5",
          "ticks": 119328,
          "time": 116.53125,
          "velocity": 0.3937007874015748
        },
        {
          "duration": 0.28125,
          "durationTicks": 288,
          "midi": 64,
          "name": "E4",
          "ticks": 119328,
          "time": 116.53125,
          "velocity": 0.3937007874015748
        },
        {
          "duration": 0.28125,
          "durationTicks": 288,
          "midi": 79,
          "name": "G5",
          "ticks": 119616,
          "time": 116.8125,
          "velocity": 0.3937007874015748
        },
        {
          "duration": 0.28125,
          "durationTicks": 288,
          "midi": 74,
          "name": "D5",
          "ticks": 119616,
          "time": 116.8125,
          "velocity": 0.3937007874015748
        },
        {
          "duration": 0.28125,
          "durationTicks": 288,
          "midi": 67,
          "name": "G4",
          "ticks": 119616,
          "time": 116.8125,
          "velocity": 0.3937007874015748
        },
        {
          "duration": 0.09375,
          "durationTicks": 96,
          "midi": 64,
          "name": "E4",
          "ticks": 120000,
          "time": 117.1875,
          "velocity": 0.3937007874015748
        },
        {
          "duration": 0.09375,
          "durationTicks": 96,
          "midi": 76,
          "name": "E5",
          "ticks": 120000,
          "time": 117.1875,
          "velocity": 0.3937007874015748
        },
        {
          "duration": 0.09375,
          "durationTicks": 96,
          "midi": 71,
          "name": "B4",
          "ticks": 120000,
          "time": 117.1875,
          "velocity": 0.3937007874015748
        },
        {
          "duration": 0.09375,
          "durationTicks": 96,
          "midi": 71,
          "name": "B4",
          "ticks": 120192,
          "time": 117.375,
          "velocity": 0.3937007874015748
        },
        {
          "duration": 0.09375,
          "durationTicks": 96,
          "midi": 64,
          "name": "E4",
          "ticks": 120192,
          "time": 117.375,
          "velocity": 0.3937007874015748
        },
        {
          "duration": 0.09375,
          "durationTicks": 96,
          "midi": 76,
          "name": "E5",
          "ticks": 120192,
          "time": 117.375,
          "velocity": 0.3937007874015748
        },
        {
          "duration": 0.09375,
          "durationTicks": 96,
          "midi": 74,
          "name": "D5",
          "ticks": 120384,
          "time": 117.5625,
          "velocity": 0.3937007874015748
        },
        {
          "duration": 0.09375,
          "durationTicks": 96,
          "midi": 79,
          "name": "G5",
          "ticks": 120384,
          "time": 117.5625,
          "velocity": 0.3937007874015748
        },
        {
          "duration": 0.09375,
          "durationTicks": 96,
          "midi": 67,
          "name": "G4",
          "ticks": 120384,
          "time": 117.5625,
          "velocity": 0.3937007874015748
        },
        {
          "duration": 0.1875,
          "durationTicks": 192,
          "midi": 76,
          "name": "E5",
          "ticks": 120576,
          "time": 117.75,
          "velocity": 0.3937007874015748
        },
        {
          "duration": 0.1875,
          "durationTicks": 192,
          "midi": 81,
          "name": "A5",
          "ticks": 120576,
          "time": 117.75,
          "velocity": 0.3937007874015748
        },
        {
          "duration": 0.1875,
          "durationTicks": 192,
          "midi": 69,
          "name": "A4",
          "ticks": 120576,
          "time": 117.75,
          "velocity": 0.3937007874015748
        },
        {
          "duration": 0.1875,
          "durationTicks": 192,
          "midi": 68,
          "name": "G#4",
          "ticks": 120864,
          "time": 118.03125,
          "velocity": 0.3937007874015748
        },
        {
          "duration": 0.1875,
          "durationTicks": 192,
          "midi": 75,
          "name": "D#5",
          "ticks": 120864,
          "time": 118.03125,
          "velocity": 0.3937007874015748
        },
        {
          "duration": 0.1875,
          "durationTicks": 192,
          "midi": 80,
          "name": "G#5",
          "ticks": 120864,
          "time": 118.03125,
          "velocity": 0.3937007874015748
        },
        {
          "duration": 0.1875,
          "durationTicks": 192,
          "midi": 79,
          "name": "G5",
          "ticks": 121152,
          "time": 118.3125,
          "velocity": 0.3937007874015748
        },
        {
          "duration": 0.1875,
          "durationTicks": 192,
          "midi": 67,
          "name": "G4",
          "ticks": 121152,
          "time": 118.3125,
          "velocity": 0.3937007874015748
        },
        {
          "duration": 0.1875,
          "durationTicks": 192,
          "midi": 74,
          "name": "D5",
          "ticks": 121152,
          "time": 118.3125,
          "velocity": 0.3937007874015748
        },
        {
          "duration": 0.09375,
          "durationTicks": 96,
          "midi": 76,
          "name": "E5",
          "ticks": 121344,
          "time": 118.5,
          "velocity": 0.3937007874015748
        },
        {
          "duration": 0.09375,
          "durationTicks": 96,
          "midi": 64,
          "name": "E4",
          "ticks": 121344,
          "time": 118.5,
          "velocity": 0.3937007874015748
        },
        {
          "duration": 0.09375,
          "durationTicks": 96,
          "midi": 67,
          "name": "G4",
          "ticks": 121536,
          "time": 118.6875,
          "velocity": 0.3937007874015748
        },
        {
          "duration": 0.09375,
          "durationTicks": 96,
          "midi": 79,
          "name": "G5",
          "ticks": 121536,
          "time": 118.6875,
          "velocity": 0.3937007874015748
        },
        {
          "duration": 0.09375,
          "durationTicks": 96,
          "midi": 71,
          "name": "B4",
          "ticks": 121728,
          "time": 118.875,
          "velocity": 0.3937007874015748
        },
        {
          "duration": 0.09375,
          "durationTicks": 96,
          "midi": 83,
          "name": "B5",
          "ticks": 121728,
          "time": 118.875,
          "velocity": 0.3937007874015748
        },
        {
          "duration": 0.09375,
          "durationTicks": 96,
          "midi": 88,
          "name": "E6",
          "ticks": 121920,
          "time": 119.0625,
          "velocity": 0.3937007874015748
        },
        {
          "duration": 0.09375,
          "durationTicks": 96,
          "midi": 76,
          "name": "E5",
          "ticks": 121920,
          "time": 119.0625,
          "velocity": 0.3937007874015748
        },
        {
          "duration": 0.1875,
          "durationTicks": 192,
          "midi": 75,
          "name": "D#5",
          "ticks": 122112,
          "time": 119.25,
          "velocity": 0.3937007874015748
        },
        {
          "duration": 0.1875,
          "durationTicks": 192,
          "midi": 87,
          "name": "D#6",
          "ticks": 122112,
          "time": 119.25,
          "velocity": 0.3937007874015748
        },
        {
          "duration": 0.1875,
          "durationTicks": 192,
          "midi": 83,
          "name": "B5",
          "ticks": 122400,
          "time": 119.53125,
          "velocity": 0.3937007874015748
        },
        {
          "duration": 0.1875,
          "durationTicks": 192,
          "midi": 71,
          "name": "B4",
          "ticks": 122400,
          "time": 119.53125,
          "velocity": 0.3937007874015748
        },
        {
          "duration": 0.1875,
          "durationTicks": 192,
          "midi": 75,
          "name": "D#5",
          "ticks": 122688,
          "time": 119.8125,
          "velocity": 0.3937007874015748
        },
        {
          "duration": 0.1875,
          "durationTicks": 192,
          "midi": 87,
          "name": "D#6",
          "ticks": 122688,
          "time": 119.8125,
          "velocity": 0.3937007874015748
        },
        {
          "duration": 0.1875,
          "durationTicks": 192,
          "midi": 86,
          "name": "D6",
          "ticks": 122880,
          "time": 120,
          "velocity": 0.3937007874015748
        },
        {
          "duration": 0.1875,
          "durationTicks": 192,
          "midi": 74,
          "name": "D5",
          "ticks": 122880,
          "time": 120,
          "velocity": 0.3937007874015748
        },
        {
          "duration": 0.1875,
          "durationTicks": 192,
          "midi": 71,
          "name": "B4",
          "ticks": 123168,
          "time": 120.28125,
          "velocity": 0.3937007874015748
        },
        {
          "duration": 0.1875,
          "durationTicks": 192,
          "midi": 83,
          "name": "B5",
          "ticks": 123168,
          "time": 120.28125,
          "velocity": 0.3937007874015748
        },
        {
          "duration": 0.1875,
          "durationTicks": 192,
          "midi": 74,
          "name": "D5",
          "ticks": 123456,
          "time": 120.5625,
          "velocity": 0.3937007874015748
        },
        {
          "duration": 0.1875,
          "durationTicks": 192,
          "midi": 86,
          "name": "D6",
          "ticks": 123456,
          "time": 120.5625,
          "velocity": 0.3937007874015748
        },
        {
          "duration": 0.1875,
          "durationTicks": 192,
          "midi": 73,
          "name": "C#5",
          "ticks": 123648,
          "time": 120.75,
          "velocity": 0.3937007874015748
        },
        {
          "duration": 0.1875,
          "durationTicks": 192,
          "midi": 85,
          "name": "C#6",
          "ticks": 123648,
          "time": 120.75,
          "velocity": 0.3937007874015748
        },
        {
          "duration": 0.1875,
          "durationTicks": 192,
          "midi": 94,
          "name": "A#6",
          "ticks": 123936,
          "time": 121.03125,
          "velocity": 0.3937007874015748
        },
        {
          "duration": 0.1875,
          "durationTicks": 192,
          "midi": 82,
          "name": "A#5",
          "ticks": 123936,
          "time": 121.03125,
          "velocity": 0.3937007874015748
        },
        {
          "duration": 0.1875,
          "durationTicks": 192,
          "midi": 91,
          "name": "G6",
          "ticks": 124224,
          "time": 121.3125,
          "velocity": 0.3937007874015748
        },
        {
          "duration": 0.1875,
          "durationTicks": 192,
          "midi": 79,
          "name": "G5",
          "ticks": 124224,
          "time": 121.3125,
          "velocity": 0.3937007874015748
        },
        {
          "duration": 0.234375,
          "durationTicks": 240,
          "midi": 71,
          "name": "B4",
          "ticks": 124416,
          "time": 121.5,
          "velocity": 0.3937007874015748
        },
        {
          "duration": 0.234375,
          "durationTicks": 240,
          "midi": 64,
          "name": "E4",
          "ticks": 124416,
          "time": 121.5,
          "velocity": 0.3937007874015748
        },
        {
          "duration": 0.234375,
          "durationTicks": 240,
          "midi": 76,
          "name": "E5",
          "ticks": 124416,
          "time": 121.5,
          "velocity": 0.3937007874015748
        },
        {
          "duration": 0.140625,
          "durationTicks": 144,
          "midi": 52,
          "name": "E3",
          "ticks": 124608,
          "time": 121.6875,
          "velocity": 0.3937007874015748
        },
        {
          "duration": 0.234375,
          "durationTicks": 240,
          "midi": 75,
          "name": "D#5",
          "ticks": 124704,
          "time": 121.78125,
          "velocity": 0.3937007874015748
        },
        {
          "duration": 0.234375,
          "durationTicks": 240,
          "midi": 70,
          "name": "A#4",
          "ticks": 124704,
          "time": 121.78125,
          "velocity": 0.3937007874015748
        },
        {
          "duration": 0.234375,
          "durationTicks": 240,
          "midi": 63,
          "name": "D#4",
          "ticks": 124704,
          "time": 121.78125,
          "velocity": 0.3937007874015748
        },
        {
          "duration": 0.140625,
          "durationTicks": 144,
          "midi": 52,
          "name": "E3",
          "ticks": 124896,
          "time": 121.96875,
          "velocity": 0.3937007874015748
        },
        {
          "duration": 0.140625,
          "durationTicks": 144,
          "midi": 76,
          "name": "E5",
          "ticks": 125088,
          "time": 122.15625,
          "velocity": 0.3937007874015748
        },
        {
          "duration": 0.140625,
          "durationTicks": 144,
          "midi": 71,
          "name": "B4",
          "ticks": 125088,
          "time": 122.15625,
          "velocity": 0.3937007874015748
        },
        {
          "duration": 0.140625,
          "durationTicks": 144,
          "midi": 64,
          "name": "E4",
          "ticks": 125088,
          "time": 122.15625,
          "velocity": 0.3937007874015748
        },
        {
          "duration": 0.140625,
          "durationTicks": 144,
          "midi": 71,
          "name": "B4",
          "ticks": 125280,
          "time": 122.34375,
          "velocity": 0.3937007874015748
        },
        {
          "duration": 0.140625,
          "durationTicks": 144,
          "midi": 64,
          "name": "E4",
          "ticks": 125280,
          "time": 122.34375,
          "velocity": 0.3937007874015748
        },
        {
          "duration": 0.140625,
          "durationTicks": 144,
          "midi": 76,
          "name": "E5",
          "ticks": 125280,
          "time": 122.34375,
          "velocity": 0.3937007874015748
        },
        {
          "duration": 0.140625,
          "durationTicks": 144,
          "midi": 52,
          "name": "E3",
          "ticks": 125472,
          "time": 122.53125,
          "velocity": 0.3937007874015748
        },
        {
          "duration": 0.234375,
          "durationTicks": 240,
          "midi": 70,
          "name": "A#4",
          "ticks": 125568,
          "time": 122.625,
          "velocity": 0.3937007874015748
        },
        {
          "duration": 0.234375,
          "durationTicks": 240,
          "midi": 75,
          "name": "D#5",
          "ticks": 125568,
          "time": 122.625,
          "velocity": 0.3937007874015748
        },
        {
          "duration": 0.234375,
          "durationTicks": 240,
          "midi": 63,
          "name": "D#4",
          "ticks": 125568,
          "time": 122.625,
          "velocity": 0.3937007874015748
        },
        {
          "duration": 0.140625,
          "durationTicks": 144,
          "midi": 52,
          "name": "E3",
          "ticks": 125760,
          "time": 122.8125,
          "velocity": 0.3937007874015748
        },
        {
          "duration": 0.234375,
          "durationTicks": 240,
          "midi": 64,
          "name": "E4",
          "ticks": 125952,
          "time": 123,
          "velocity": 0.3937007874015748
        },
        {
          "duration": 0.234375,
          "durationTicks": 240,
          "midi": 76,
          "name": "E5",
          "ticks": 125952,
          "time": 123,
          "velocity": 0.3937007874015748
        },
        {
          "duration": 0.234375,
          "durationTicks": 240,
          "midi": 71,
          "name": "B4",
          "ticks": 125952,
          "time": 123,
          "velocity": 0.3937007874015748
        },
        {
          "duration": 0.140625,
          "durationTicks": 144,
          "midi": 52,
          "name": "E3",
          "ticks": 126144,
          "time": 123.1875,
          "velocity": 0.3937007874015748
        },
        {
          "duration": 0.234375,
          "durationTicks": 240,
          "midi": 75,
          "name": "D#5",
          "ticks": 126240,
          "time": 123.28125,
          "velocity": 0.3937007874015748
        },
        {
          "duration": 0.234375,
          "durationTicks": 240,
          "midi": 70,
          "name": "A#4",
          "ticks": 126240,
          "time": 123.28125,
          "velocity": 0.3937007874015748
        },
        {
          "duration": 0.234375,
          "durationTicks": 240,
          "midi": 63,
          "name": "D#4",
          "ticks": 126240,
          "time": 123.28125,
          "velocity": 0.3937007874015748
        },
        {
          "duration": 0.140625,
          "durationTicks": 144,
          "midi": 52,
          "name": "E3",
          "ticks": 126432,
          "time": 123.46875,
          "velocity": 0.3937007874015748
        },
        {
          "duration": 0.140625,
          "durationTicks": 144,
          "midi": 71,
          "name": "B4",
          "ticks": 126624,
          "time": 123.65625,
          "velocity": 0.3937007874015748
        },
        {
          "duration": 0.140625,
          "durationTicks": 144,
          "midi": 76,
          "name": "E5",
          "ticks": 126624,
          "time": 123.65625,
          "velocity": 0.3937007874015748
        },
        {
          "duration": 0.140625,
          "durationTicks": 144,
          "midi": 64,
          "name": "E4",
          "ticks": 126624,
          "time": 123.65625,
          "velocity": 0.3937007874015748
        },
        {
          "duration": 0.140625,
          "durationTicks": 144,
          "midi": 71,
          "name": "B4",
          "ticks": 126816,
          "time": 123.84375,
          "velocity": 0.3937007874015748
        },
        {
          "duration": 0.140625,
          "durationTicks": 144,
          "midi": 64,
          "name": "E4",
          "ticks": 126816,
          "time": 123.84375,
          "velocity": 0.3937007874015748
        },
        {
          "duration": 0.140625,
          "durationTicks": 144,
          "midi": 76,
          "name": "E5",
          "ticks": 126816,
          "time": 123.84375,
          "velocity": 0.3937007874015748
        },
        {
          "duration": 0.140625,
          "durationTicks": 144,
          "midi": 52,
          "name": "E3",
          "ticks": 127008,
          "time": 124.03125,
          "velocity": 0.3937007874015748
        },
        {
          "duration": 0.234375,
          "durationTicks": 240,
          "midi": 63,
          "name": "D#4",
          "ticks": 127104,
          "time": 124.125,
          "velocity": 0.3937007874015748
        },
        {
          "duration": 0.234375,
          "durationTicks": 240,
          "midi": 75,
          "name": "D#5",
          "ticks": 127104,
          "time": 124.125,
          "velocity": 0.3937007874015748
        },
        {
          "duration": 0.234375,
          "durationTicks": 240,
          "midi": 70,
          "name": "A#4",
          "ticks": 127104,
          "time": 124.125,
          "velocity": 0.3937007874015748
        },
        {
          "duration": 0.140625,
          "durationTicks": 144,
          "midi": 52,
          "name": "E3",
          "ticks": 127296,
          "time": 124.3125,
          "velocity": 0.3937007874015748
        },
        {
          "duration": 0.09375,
          "durationTicks": 96,
          "midi": 64,
          "name": "E4",
          "ticks": 127488,
          "time": 124.5,
          "velocity": 0.3937007874015748
        },
        {
          "duration": 0.09375,
          "durationTicks": 96,
          "midi": 76,
          "name": "E5",
          "ticks": 127488,
          "time": 124.5,
          "velocity": 0.3937007874015748
        },
        {
          "duration": 0.09375,
          "durationTicks": 96,
          "midi": 79,
          "name": "G5",
          "ticks": 127680,
          "time": 124.6875,
          "velocity": 0.3937007874015748
        },
        {
          "duration": 0.09375,
          "durationTicks": 96,
          "midi": 67,
          "name": "G4",
          "ticks": 127680,
          "time": 124.6875,
          "velocity": 0.3937007874015748
        },
        {
          "duration": 0.09375,
          "durationTicks": 96,
          "midi": 71,
          "name": "B4",
          "ticks": 127872,
          "time": 124.875,
          "velocity": 0.3937007874015748
        },
        {
          "duration": 0.09375,
          "durationTicks": 96,
          "midi": 83,
          "name": "B5",
          "ticks": 127872,
          "time": 124.875,
          "velocity": 0.3937007874015748
        },
        {
          "duration": 0.09375,
          "durationTicks": 96,
          "midi": 76,
          "name": "E5",
          "ticks": 128064,
          "time": 125.0625,
          "velocity": 0.3937007874015748
        },
        {
          "duration": 0.09375,
          "durationTicks": 96,
          "midi": 88,
          "name": "E6",
          "ticks": 128064,
          "time": 125.0625,
          "velocity": 0.3937007874015748
        },
        {
          "duration": 0.1875,
          "durationTicks": 192,
          "midi": 87,
          "name": "D#6",
          "ticks": 128256,
          "time": 125.25,
          "velocity": 0.3937007874015748
        },
        {
          "duration": 0.1875,
          "durationTicks": 192,
          "midi": 75,
          "name": "D#5",
          "ticks": 128256,
          "time": 125.25,
          "velocity": 0.3937007874015748
        },
        {
          "duration": 0.1875,
          "durationTicks": 192,
          "midi": 71,
          "name": "B4",
          "ticks": 128544,
          "time": 125.53125,
          "velocity": 0.3937007874015748
        },
        {
          "duration": 0.1875,
          "durationTicks": 192,
          "midi": 83,
          "name": "B5",
          "ticks": 128544,
          "time": 125.53125,
          "velocity": 0.3937007874015748
        },
        {
          "duration": 0.1875,
          "durationTicks": 192,
          "midi": 75,
          "name": "D#5",
          "ticks": 128832,
          "time": 125.8125,
          "velocity": 0.3937007874015748
        },
        {
          "duration": 0.1875,
          "durationTicks": 192,
          "midi": 87,
          "name": "D#6",
          "ticks": 128832,
          "time": 125.8125,
          "velocity": 0.3937007874015748
        },
        {
          "duration": 0.1875,
          "durationTicks": 192,
          "midi": 74,
          "name": "D5",
          "ticks": 129024,
          "time": 126,
          "velocity": 0.3937007874015748
        },
        {
          "duration": 0.1875,
          "durationTicks": 192,
          "midi": 86,
          "name": "D6",
          "ticks": 129024,
          "time": 126,
          "velocity": 0.3937007874015748
        },
        {
          "duration": 0.1875,
          "durationTicks": 192,
          "midi": 71,
          "name": "B4",
          "ticks": 129312,
          "time": 126.28125,
          "velocity": 0.3937007874015748
        },
        {
          "duration": 0.1875,
          "durationTicks": 192,
          "midi": 83,
          "name": "B5",
          "ticks": 129312,
          "time": 126.28125,
          "velocity": 0.3937007874015748
        },
        {
          "duration": 0.1875,
          "durationTicks": 192,
          "midi": 74,
          "name": "D5",
          "ticks": 129600,
          "time": 126.5625,
          "velocity": 0.3937007874015748
        },
        {
          "duration": 0.1875,
          "durationTicks": 192,
          "midi": 86,
          "name": "D6",
          "ticks": 129600,
          "time": 126.5625,
          "velocity": 0.3937007874015748
        },
        {
          "duration": 0.1875,
          "durationTicks": 192,
          "midi": 73,
          "name": "C#5",
          "ticks": 129792,
          "time": 126.75,
          "velocity": 0.3937007874015748
        },
        {
          "duration": 0.1875,
          "durationTicks": 192,
          "midi": 85,
          "name": "C#6",
          "ticks": 129792,
          "time": 126.75,
          "velocity": 0.3937007874015748
        },
        {
          "duration": 0.1875,
          "durationTicks": 192,
          "midi": 94,
          "name": "A#6",
          "ticks": 130080,
          "time": 127.03125,
          "velocity": 0.3937007874015748
        },
        {
          "duration": 0.1875,
          "durationTicks": 192,
          "midi": 82,
          "name": "A#5",
          "ticks": 130080,
          "time": 127.03125,
          "velocity": 0.3937007874015748
        },
        {
          "duration": 0.1875,
          "durationTicks": 192,
          "midi": 79,
          "name": "G5",
          "ticks": 130368,
          "time": 127.3125,
          "velocity": 0.3937007874015748
        },
        {
          "duration": 0.1875,
          "durationTicks": 192,
          "midi": 91,
          "name": "G6",
          "ticks": 130368,
          "time": 127.3125,
          "velocity": 0.3937007874015748
        },
        {
          "duration": 0.09375,
          "durationTicks": 96,
          "midi": 76,
          "name": "E5",
          "ticks": 130752,
          "time": 127.6875,
          "velocity": 0.3937007874015748
        },
        {
          "duration": 0.09375,
          "durationTicks": 96,
          "midi": 88,
          "name": "E6",
          "ticks": 130752,
          "time": 127.6875,
          "velocity": 0.3937007874015748
        },
        {
          "duration": 0.09375,
          "durationTicks": 96,
          "midi": 83,
          "name": "B5",
          "ticks": 130752,
          "time": 127.6875,
          "velocity": 0.3937007874015748
        },
        {
          "duration": 0.09375,
          "durationTicks": 96,
          "midi": 88,
          "name": "E6",
          "ticks": 130944,
          "time": 127.875,
          "velocity": 0.3937007874015748
        },
        {
          "duration": 0.09375,
          "durationTicks": 96,
          "midi": 83,
          "name": "B5",
          "ticks": 130944,
          "time": 127.875,
          "velocity": 0.3937007874015748
        },
        {
          "duration": 0.09375,
          "durationTicks": 96,
          "midi": 76,
          "name": "E5",
          "ticks": 130944,
          "time": 127.875,
          "velocity": 0.3937007874015748
        },
        {
          "duration": 0.09375,
          "durationTicks": 96,
          "midi": 83,
          "name": "B5",
          "ticks": 131136,
          "time": 128.0625,
          "velocity": 0.3937007874015748
        },
        {
          "duration": 0.09375,
          "durationTicks": 96,
          "midi": 76,
          "name": "E5",
          "ticks": 131136,
          "time": 128.0625,
          "velocity": 0.3937007874015748
        },
        {
          "duration": 0.09375,
          "durationTicks": 96,
          "midi": 88,
          "name": "E6",
          "ticks": 131136,
          "time": 128.0625,
          "velocity": 0.3937007874015748
        },
        {
          "duration": 0.1875,
          "durationTicks": 192,
          "midi": 83,
          "name": "B5",
          "ticks": 131328,
          "time": 128.25,
          "velocity": 0.3937007874015748
        },
        {
          "duration": 0.1875,
          "durationTicks": 192,
          "midi": 88,
          "name": "E6",
          "ticks": 131328,
          "time": 128.25,
          "velocity": 0.3937007874015748
        },
        {
          "duration": 0.1875,
          "durationTicks": 192,
          "midi": 76,
          "name": "E5",
          "ticks": 131328,
          "time": 128.25,
          "velocity": 0.3937007874015748
        },
        {
          "duration": 0.28125,
          "durationTicks": 288,
          "midi": 76,
          "name": "E5",
          "ticks": 131616,
          "time": 128.53125,
          "velocity": 0.3937007874015748
        },
        {
          "duration": 0.28125,
          "durationTicks": 288,
          "midi": 83,
          "name": "B5",
          "ticks": 131616,
          "time": 128.53125,
          "velocity": 0.3937007874015748
        },
        {
          "duration": 0.28125,
          "durationTicks": 288,
          "midi": 88,
          "name": "E6",
          "ticks": 131616,
          "time": 128.53125,
          "velocity": 0.3937007874015748
        },
        {
          "duration": 0.28125,
          "durationTicks": 288,
          "midi": 79,
          "name": "G5",
          "ticks": 131904,
          "time": 128.8125,
          "velocity": 0.3937007874015748
        },
        {
          "duration": 0.28125,
          "durationTicks": 288,
          "midi": 86,
          "name": "D6",
          "ticks": 131904,
          "time": 128.8125,
          "velocity": 0.3937007874015748
        },
        {
          "duration": 0.28125,
          "durationTicks": 288,
          "midi": 91,
          "name": "G6",
          "ticks": 131904,
          "time": 128.8125,
          "velocity": 0.3937007874015748
        },
        {
          "duration": 0.09375,
          "durationTicks": 96,
          "midi": 76,
          "name": "E5",
          "ticks": 132288,
          "time": 129.1875,
          "velocity": 0.3937007874015748
        },
        {
          "duration": 0.09375,
          "durationTicks": 96,
          "midi": 88,
          "name": "E6",
          "ticks": 132288,
          "time": 129.1875,
          "velocity": 0.3937007874015748
        },
        {
          "duration": 0.09375,
          "durationTicks": 96,
          "midi": 83,
          "name": "B5",
          "ticks": 132288,
          "time": 129.1875,
          "velocity": 0.3937007874015748
        },
        {
          "duration": 0.09375,
          "durationTicks": 96,
          "midi": 82,
          "name": "A#5",
          "ticks": 132480,
          "time": 129.375,
          "velocity": 0.3937007874015748
        },
        {
          "duration": 0.09375,
          "durationTicks": 96,
          "midi": 94,
          "name": "A#6",
          "ticks": 132480,
          "time": 129.375,
          "velocity": 0.3937007874015748
        },
        {
          "duration": 0.09375,
          "durationTicks": 96,
          "midi": 88,
          "name": "E6",
          "ticks": 132480,
          "time": 129.375,
          "velocity": 0.3937007874015748
        },
        {
          "duration": 0.09375,
          "durationTicks": 96,
          "midi": 76,
          "name": "E5",
          "ticks": 132672,
          "time": 129.5625,
          "velocity": 0.3937007874015748
        },
        {
          "duration": 0.09375,
          "durationTicks": 96,
          "midi": 88,
          "name": "E6",
          "ticks": 132672,
          "time": 129.5625,
          "velocity": 0.3937007874015748
        },
        {
          "duration": 0.09375,
          "durationTicks": 96,
          "midi": 83,
          "name": "B5",
          "ticks": 132672,
          "time": 129.5625,
          "velocity": 0.3937007874015748
        },
        {
          "duration": 0.1875,
          "durationTicks": 192,
          "midi": 81,
          "name": "A5",
          "ticks": 132864,
          "time": 129.75,
          "velocity": 0.3937007874015748
        },
        {
          "duration": 0.1875,
          "durationTicks": 192,
          "midi": 93,
          "name": "A6",
          "ticks": 132864,
          "time": 129.75,
          "velocity": 0.3937007874015748
        },
        {
          "duration": 0.1875,
          "durationTicks": 192,
          "midi": 88,
          "name": "E6",
          "ticks": 132864,
          "time": 129.75,
          "velocity": 0.3937007874015748
        },
        {
          "duration": 0.1875,
          "durationTicks": 192,
          "midi": 92,
          "name": "G#6",
          "ticks": 133152,
          "time": 130.03125,
          "velocity": 0.3937007874015748
        },
        {
          "duration": 0.1875,
          "durationTicks": 192,
          "midi": 87,
          "name": "D#6",
          "ticks": 133152,
          "time": 130.03125,
          "velocity": 0.3937007874015748
        },
        {
          "duration": 0.1875,
          "durationTicks": 192,
          "midi": 80,
          "name": "G#5",
          "ticks": 133152,
          "time": 130.03125,
          "velocity": 0.3937007874015748
        },
        {
          "duration": 0.1875,
          "durationTicks": 192,
          "midi": 79,
          "name": "G5",
          "ticks": 133440,
          "time": 130.3125,
          "velocity": 0.3937007874015748
        },
        {
          "duration": 0.1875,
          "durationTicks": 192,
          "midi": 86,
          "name": "D6",
          "ticks": 133440,
          "time": 130.3125,
          "velocity": 0.3937007874015748
        },
        {
          "duration": 0.1875,
          "durationTicks": 192,
          "midi": 91,
          "name": "G6",
          "ticks": 133440,
          "time": 130.3125,
          "velocity": 0.3937007874015748
        },
        {
          "duration": 0.09375,
          "durationTicks": 96,
          "midi": 76,
          "name": "E5",
          "ticks": 133632,
          "time": 130.5,
          "velocity": 0.3937007874015748
        },
        {
          "duration": 0.09375,
          "durationTicks": 96,
          "midi": 64,
          "name": "E4",
          "ticks": 133632,
          "time": 130.5,
          "velocity": 0.3937007874015748
        },
        {
          "duration": 0.09375,
          "durationTicks": 96,
          "midi": 79,
          "name": "G5",
          "ticks": 133824,
          "time": 130.6875,
          "velocity": 0.3937007874015748
        },
        {
          "duration": 0.09375,
          "durationTicks": 96,
          "midi": 67,
          "name": "G4",
          "ticks": 133824,
          "time": 130.6875,
          "velocity": 0.3937007874015748
        },
        {
          "duration": 0.09375,
          "durationTicks": 96,
          "midi": 71,
          "name": "B4",
          "ticks": 134016,
          "time": 130.875,
          "velocity": 0.3937007874015748
        },
        {
          "duration": 0.09375,
          "durationTicks": 96,
          "midi": 83,
          "name": "B5",
          "ticks": 134016,
          "time": 130.875,
          "velocity": 0.3937007874015748
        },
        {
          "duration": 0.09375,
          "durationTicks": 96,
          "midi": 88,
          "name": "E6",
          "ticks": 134208,
          "time": 131.0625,
          "velocity": 0.3937007874015748
        },
        {
          "duration": 0.09375,
          "durationTicks": 96,
          "midi": 76,
          "name": "E5",
          "ticks": 134208,
          "time": 131.0625,
          "velocity": 0.3937007874015748
        },
        {
          "duration": 0.1875,
          "durationTicks": 192,
          "midi": 87,
          "name": "D#6",
          "ticks": 134400,
          "time": 131.25,
          "velocity": 0.3937007874015748
        },
        {
          "duration": 0.1875,
          "durationTicks": 192,
          "midi": 75,
          "name": "D#5",
          "ticks": 134400,
          "time": 131.25,
          "velocity": 0.3937007874015748
        },
        {
          "duration": 0.1875,
          "durationTicks": 192,
          "midi": 83,
          "name": "B5",
          "ticks": 134688,
          "time": 131.53125,
          "velocity": 0.3937007874015748
        },
        {
          "duration": 0.1875,
          "durationTicks": 192,
          "midi": 71,
          "name": "B4",
          "ticks": 134688,
          "time": 131.53125,
          "velocity": 0.3937007874015748
        },
        {
          "duration": 0.1875,
          "durationTicks": 192,
          "midi": 87,
          "name": "D#6",
          "ticks": 134976,
          "time": 131.8125,
          "velocity": 0.3937007874015748
        },
        {
          "duration": 0.1875,
          "durationTicks": 192,
          "midi": 75,
          "name": "D#5",
          "ticks": 134976,
          "time": 131.8125,
          "velocity": 0.3937007874015748
        },
        {
          "duration": 0.1875,
          "durationTicks": 192,
          "midi": 74,
          "name": "D5",
          "ticks": 135168,
          "time": 132,
          "velocity": 0.3937007874015748
        },
        {
          "duration": 0.1875,
          "durationTicks": 192,
          "midi": 86,
          "name": "D6",
          "ticks": 135168,
          "time": 132,
          "velocity": 0.3937007874015748
        },
        {
          "duration": 0.1875,
          "durationTicks": 192,
          "midi": 71,
          "name": "B4",
          "ticks": 135456,
          "time": 132.28125,
          "velocity": 0.3937007874015748
        },
        {
          "duration": 0.1875,
          "durationTicks": 192,
          "midi": 83,
          "name": "B5",
          "ticks": 135456,
          "time": 132.28125,
          "velocity": 0.3937007874015748
        },
        {
          "duration": 0.1875,
          "durationTicks": 192,
          "midi": 74,
          "name": "D5",
          "ticks": 135744,
          "time": 132.5625,
          "velocity": 0.3937007874015748
        },
        {
          "duration": 0.1875,
          "durationTicks": 192,
          "midi": 86,
          "name": "D6",
          "ticks": 135744,
          "time": 132.5625,
          "velocity": 0.3937007874015748
        },
        {
          "duration": 0.1875,
          "durationTicks": 192,
          "midi": 73,
          "name": "C#5",
          "ticks": 135936,
          "time": 132.75,
          "velocity": 0.3937007874015748
        },
        {
          "duration": 0.1875,
          "durationTicks": 192,
          "midi": 85,
          "name": "C#6",
          "ticks": 135936,
          "time": 132.75,
          "velocity": 0.3937007874015748
        },
        {
          "duration": 0.1875,
          "durationTicks": 192,
          "midi": 94,
          "name": "A#6",
          "ticks": 136224,
          "time": 133.03125,
          "velocity": 0.3937007874015748
        },
        {
          "duration": 0.1875,
          "durationTicks": 192,
          "midi": 82,
          "name": "A#5",
          "ticks": 136224,
          "time": 133.03125,
          "velocity": 0.3937007874015748
        },
        {
          "duration": 0.1875,
          "durationTicks": 192,
          "midi": 91,
          "name": "G6",
          "ticks": 136512,
          "time": 133.3125,
          "velocity": 0.3937007874015748
        },
        {
          "duration": 0.1875,
          "durationTicks": 192,
          "midi": 79,
          "name": "G5",
          "ticks": 136512,
          "time": 133.3125,
          "velocity": 0.3937007874015748
        },
        {
          "duration": 0.234375,
          "durationTicks": 240,
          "midi": 76,
          "name": "E5",
          "ticks": 136704,
          "time": 133.5,
          "velocity": 0.3937007874015748
        },
        {
          "duration": 0.234375,
          "durationTicks": 240,
          "midi": 71,
          "name": "B4",
          "ticks": 136704,
          "time": 133.5,
          "velocity": 0.3937007874015748
        },
        {
          "duration": 0.234375,
          "durationTicks": 240,
          "midi": 64,
          "name": "E4",
          "ticks": 136704,
          "time": 133.5,
          "velocity": 0.3937007874015748
        },
        {
          "duration": 0.140625,
          "durationTicks": 144,
          "midi": 52,
          "name": "E3",
          "ticks": 136896,
          "time": 133.6875,
          "velocity": 0.3937007874015748
        },
        {
          "duration": 0.234375,
          "durationTicks": 240,
          "midi": 63,
          "name": "D#4",
          "ticks": 136992,
          "time": 133.78125,
          "velocity": 0.3937007874015748
        },
        {
          "duration": 0.234375,
          "durationTicks": 240,
          "midi": 70,
          "name": "A#4",
          "ticks": 136992,
          "time": 133.78125,
          "velocity": 0.3937007874015748
        },
        {
          "duration": 0.234375,
          "durationTicks": 240,
          "midi": 75,
          "name": "D#5",
          "ticks": 136992,
          "time": 133.78125,
          "velocity": 0.3937007874015748
        },
        {
          "duration": 0.140625,
          "durationTicks": 144,
          "midi": 52,
          "name": "E3",
          "ticks": 137184,
          "time": 133.96875,
          "velocity": 0.3937007874015748
        },
        {
          "duration": 0.140625,
          "durationTicks": 144,
          "midi": 64,
          "name": "E4",
          "ticks": 137376,
          "time": 134.15625,
          "velocity": 0.3937007874015748
        },
        {
          "duration": 0.140625,
          "durationTicks": 144,
          "midi": 76,
          "name": "E5",
          "ticks": 137376,
          "time": 134.15625,
          "velocity": 0.3937007874015748
        },
        {
          "duration": 0.140625,
          "durationTicks": 144,
          "midi": 71,
          "name": "B4",
          "ticks": 137376,
          "time": 134.15625,
          "velocity": 0.3937007874015748
        },
        {
          "duration": 0.140625,
          "durationTicks": 144,
          "midi": 64,
          "name": "E4",
          "ticks": 137568,
          "time": 134.34375,
          "velocity": 0.3937007874015748
        },
        {
          "duration": 0.140625,
          "durationTicks": 144,
          "midi": 71,
          "name": "B4",
          "ticks": 137568,
          "time": 134.34375,
          "velocity": 0.3937007874015748
        },
        {
          "duration": 0.140625,
          "durationTicks": 144,
          "midi": 76,
          "name": "E5",
          "ticks": 137568,
          "time": 134.34375,
          "velocity": 0.3937007874015748
        },
        {
          "duration": 0.140625,
          "durationTicks": 144,
          "midi": 52,
          "name": "E3",
          "ticks": 137760,
          "time": 134.53125,
          "velocity": 0.3937007874015748
        },
        {
          "duration": 0.234375,
          "durationTicks": 240,
          "midi": 70,
          "name": "A#4",
          "ticks": 137856,
          "time": 134.625,
          "velocity": 0.3937007874015748
        },
        {
          "duration": 0.234375,
          "durationTicks": 240,
          "midi": 75,
          "name": "D#5",
          "ticks": 137856,
          "time": 134.625,
          "velocity": 0.3937007874015748
        },
        {
          "duration": 0.234375,
          "durationTicks": 240,
          "midi": 63,
          "name": "D#4",
          "ticks": 137856,
          "time": 134.625,
          "velocity": 0.3937007874015748
        },
        {
          "duration": 0.140625,
          "durationTicks": 144,
          "midi": 52,
          "name": "E3",
          "ticks": 138048,
          "time": 134.8125,
          "velocity": 0.3937007874015748
        },
        {
          "duration": 0.09375,
          "durationTicks": 96,
          "midi": 52,
          "name": "E3",
          "ticks": 138240,
          "time": 135,
          "velocity": 0.3937007874015748
        },
        {
          "duration": 0.09375,
          "durationTicks": 96,
          "midi": 50,
          "name": "D3",
          "ticks": 138528,
          "time": 135.28125,
          "velocity": 0.3937007874015748
        },
        {
          "duration": 0.09375,
          "durationTicks": 96,
          "midi": 48,
          "name": "C3",
          "ticks": 138816,
          "time": 135.5625,
          "velocity": 0.3937007874015748
        },
        {
          "duration": 0.125,
          "durationTicks": 128,
          "midi": 47,
          "name": "B2",
          "ticks": 139008,
          "time": 135.75,
          "velocity": 0.3937007874015748
        },
        {
          "duration": 0.125,
          "durationTicks": 128,
          "midi": 48,
          "name": "C3",
          "ticks": 139136,
          "time": 135.875,
          "velocity": 0.3937007874015748
        },
        {
          "duration": 0.125,
          "durationTicks": 128,
          "midi": 47,
          "name": "B2",
          "ticks": 139264,
          "time": 136,
          "velocity": 0.3937007874015748
        },
        {
          "duration": 0.125,
          "durationTicks": 128,
          "midi": 45,
          "name": "A2",
          "ticks": 139392,
          "time": 136.125,
          "velocity": 0.3937007874015748
        },
        {
          "duration": 0.125,
          "durationTicks": 128,
          "midi": 43,
          "name": "G2",
          "ticks": 139520,
          "time": 136.25,
          "velocity": 0.3937007874015748
        },
        {
          "duration": 0.125,
          "durationTicks": 128,
          "midi": 42,
          "name": "F#2",
          "ticks": 139648,
          "time": 136.375,
          "velocity": 0.3937007874015748
        },
        {
          "duration": 0.28125,
          "durationTicks": 288,
          "midi": 40,
          "name": "E2",
          "ticks": 159744,
          "time": 156,
          "velocity": 0.3937007874015748
        },
        {
          "duration": 0.28125,
          "durationTicks": 288,
          "midi": 43,
          "name": "G2",
          "ticks": 159840,
          "time": 156.09375,
          "velocity": 0.3937007874015748
        },
        {
          "duration": 0.28125,
          "durationTicks": 288,
          "midi": 47,
          "name": "B2",
          "ticks": 159936,
          "time": 156.1875,
          "velocity": 0.3937007874015748
        },
        {
          "duration": 0.28125,
          "durationTicks": 288,
          "midi": 52,
          "name": "E3",
          "ticks": 160032,
          "time": 156.28125,
          "velocity": 0.3937007874015748
        },
        {
          "duration": 0.28125,
          "durationTicks": 288,
          "midi": 55,
          "name": "G3",
          "ticks": 160128,
          "time": 156.375,
          "velocity": 0.3937007874015748
        },
        {
          "duration": 0.28125,
          "durationTicks": 288,
          "midi": 59,
          "name": "B3",
          "ticks": 160224,
          "time": 156.46875,
          "velocity": 0.3937007874015748
        },
        {
          "duration": 0.28125,
          "durationTicks": 288,
          "midi": 64,
          "name": "E4",
          "ticks": 160320,
          "time": 156.5625,
          "velocity": 0.3937007874015748
        },
        {
          "duration": 0.28125,
          "durationTicks": 288,
          "midi": 67,
          "name": "G4",
          "ticks": 160416,
          "time": 156.65625,
          "velocity": 0.3937007874015748
        },
        {
          "duration": 0.28125,
          "durationTicks": 288,
          "midi": 71,
          "name": "B4",
          "ticks": 160512,
          "time": 156.75,
          "velocity": 0.3937007874015748
        },
        {
          "duration": 0.28125,
          "durationTicks": 288,
          "midi": 67,
          "name": "G4",
          "ticks": 160608,
          "time": 156.84375,
          "velocity": 0.3937007874015748
        },
        {
          "duration": 0.28125,
          "durationTicks": 288,
          "midi": 64,
          "name": "E4",
          "ticks": 160704,
          "time": 156.9375,
          "velocity": 0.3937007874015748
        },
        {
          "duration": 0.28125,
          "durationTicks": 288,
          "midi": 59,
          "name": "B3",
          "ticks": 160800,
          "time": 157.03125,
          "velocity": 0.3937007874015748
        },
        {
          "duration": 0.28125,
          "durationTicks": 288,
          "midi": 55,
          "name": "G3",
          "ticks": 160896,
          "time": 157.125,
          "velocity": 0.3937007874015748
        },
        {
          "duration": 0.28125,
          "durationTicks": 288,
          "midi": 52,
          "name": "E3",
          "ticks": 160992,
          "time": 157.21875,
          "velocity": 0.3937007874015748
        },
        {
          "duration": 0.28125,
          "durationTicks": 288,
          "midi": 47,
          "name": "B2",
          "ticks": 161088,
          "time": 157.3125,
          "velocity": 0.3937007874015748
        },
        {
          "duration": 0.28125,
          "durationTicks": 288,
          "midi": 43,
          "name": "G2",
          "ticks": 161184,
          "time": 157.40625,
          "velocity": 0.3937007874015748
        },
        {
          "duration": 0.28125,
          "durationTicks": 288,
          "midi": 39,
          "name": "D#2",
          "ticks": 161280,
          "time": 157.5,
          "velocity": 0.3937007874015748
        },
        {
          "duration": 0.28125,
          "durationTicks": 288,
          "midi": 42,
          "name": "F#2",
          "ticks": 161376,
          "time": 157.59375,
          "velocity": 0.3937007874015748
        },
        {
          "duration": 0.28125,
          "durationTicks": 288,
          "midi": 47,
          "name": "B2",
          "ticks": 161472,
          "time": 157.6875,
          "velocity": 0.3937007874015748
        },
        {
          "duration": 0.28125,
          "durationTicks": 288,
          "midi": 51,
          "name": "D#3",
          "ticks": 161568,
          "time": 157.78125,
          "velocity": 0.3937007874015748
        },
        {
          "duration": 0.28125,
          "durationTicks": 288,
          "midi": 54,
          "name": "F#3",
          "ticks": 161664,
          "time": 157.875,
          "velocity": 0.3937007874015748
        },
        {
          "duration": 0.28125,
          "durationTicks": 288,
          "midi": 59,
          "name": "B3",
          "ticks": 161760,
          "time": 157.96875,
          "velocity": 0.3937007874015748
        },
        {
          "duration": 0.28125,
          "durationTicks": 288,
          "midi": 63,
          "name": "D#4",
          "ticks": 161856,
          "time": 158.0625,
          "velocity": 0.3937007874015748
        },
        {
          "duration": 0.28125,
          "durationTicks": 288,
          "midi": 66,
          "name": "F#4",
          "ticks": 161952,
          "time": 158.15625,
          "velocity": 0.3937007874015748
        },
        {
          "duration": 0.28125,
          "durationTicks": 288,
          "midi": 71,
          "name": "B4",
          "ticks": 162048,
          "time": 158.25,
          "velocity": 0.3937007874015748
        },
        {
          "duration": 0.28125,
          "durationTicks": 288,
          "midi": 66,
          "name": "F#4",
          "ticks": 162144,
          "time": 158.34375,
          "velocity": 0.3937007874015748
        },
        {
          "duration": 0.28125,
          "durationTicks": 288,
          "midi": 63,
          "name": "D#4",
          "ticks": 162240,
          "time": 158.4375,
          "velocity": 0.3937007874015748
        },
        {
          "duration": 0.28125,
          "durationTicks": 288,
          "midi": 59,
          "name": "B3",
          "ticks": 162336,
          "time": 158.53125,
          "velocity": 0.3937007874015748
        },
        {
          "duration": 0.28125,
          "durationTicks": 288,
          "midi": 54,
          "name": "F#3",
          "ticks": 162432,
          "time": 158.625,
          "velocity": 0.3937007874015748
        },
        {
          "duration": 0.28125,
          "durationTicks": 288,
          "midi": 51,
          "name": "D#3",
          "ticks": 162528,
          "time": 158.71875,
          "velocity": 0.3937007874015748
        },
        {
          "duration": 0.28125,
          "durationTicks": 288,
          "midi": 47,
          "name": "B2",
          "ticks": 162624,
          "time": 158.8125,
          "velocity": 0.3937007874015748
        },
        {
          "duration": 0.28125,
          "durationTicks": 288,
          "midi": 42,
          "name": "F#2",
          "ticks": 162720,
          "time": 158.90625,
          "velocity": 0.3937007874015748
        },
        {
          "duration": 0.28125,
          "durationTicks": 288,
          "midi": 38,
          "name": "D2",
          "ticks": 162816,
          "time": 159,
          "velocity": 0.3937007874015748
        },
        {
          "duration": 0.28125,
          "durationTicks": 288,
          "midi": 42,
          "name": "F#2",
          "ticks": 162912,
          "time": 159.09375,
          "velocity": 0.3937007874015748
        },
        {
          "duration": 0.28125,
          "durationTicks": 288,
          "midi": 47,
          "name": "B2",
          "ticks": 163008,
          "time": 159.1875,
          "velocity": 0.3937007874015748
        },
        {
          "duration": 0.28125,
          "durationTicks": 288,
          "midi": 50,
          "name": "D3",
          "ticks": 163104,
          "time": 159.28125,
          "velocity": 0.3937007874015748
        },
        {
          "duration": 0.28125,
          "durationTicks": 288,
          "midi": 54,
          "name": "F#3",
          "ticks": 163200,
          "time": 159.375,
          "velocity": 0.3937007874015748
        },
        {
          "duration": 0.28125,
          "durationTicks": 288,
          "midi": 59,
          "name": "B3",
          "ticks": 163296,
          "time": 159.46875,
          "velocity": 0.3937007874015748
        },
        {
          "duration": 0.28125,
          "durationTicks": 288,
          "midi": 62,
          "name": "D4",
          "ticks": 163392,
          "time": 159.5625,
          "velocity": 0.3937007874015748
        },
        {
          "duration": 0.28125,
          "durationTicks": 288,
          "midi": 66,
          "name": "F#4",
          "ticks": 163488,
          "time": 159.65625,
          "velocity": 0.3937007874015748
        },
        {
          "duration": 0.28125,
          "durationTicks": 288,
          "midi": 71,
          "name": "B4",
          "ticks": 163584,
          "time": 159.75,
          "velocity": 0.3937007874015748
        },
        {
          "duration": 0.28125,
          "durationTicks": 288,
          "midi": 66,
          "name": "F#4",
          "ticks": 163680,
          "time": 159.84375,
          "velocity": 0.3937007874015748
        },
        {
          "duration": 0.28125,
          "durationTicks": 288,
          "midi": 62,
          "name": "D4",
          "ticks": 163776,
          "time": 159.9375,
          "velocity": 0.3937007874015748
        },
        {
          "duration": 0.28125,
          "durationTicks": 288,
          "midi": 59,
          "name": "B3",
          "ticks": 163872,
          "time": 160.03125,
          "velocity": 0.3937007874015748
        },
        {
          "duration": 0.28125,
          "durationTicks": 288,
          "midi": 54,
          "name": "F#3",
          "ticks": 163968,
          "time": 160.125,
          "velocity": 0.3937007874015748
        },
        {
          "duration": 0.28125,
          "durationTicks": 288,
          "midi": 50,
          "name": "D3",
          "ticks": 164064,
          "time": 160.21875,
          "velocity": 0.3937007874015748
        },
        {
          "duration": 0.28125,
          "durationTicks": 288,
          "midi": 47,
          "name": "B2",
          "ticks": 164160,
          "time": 160.3125,
          "velocity": 0.3937007874015748
        },
        {
          "duration": 0.28125,
          "durationTicks": 288,
          "midi": 42,
          "name": "F#2",
          "ticks": 164256,
          "time": 160.40625,
          "velocity": 0.3937007874015748
        },
        {
          "duration": 0.28125,
          "durationTicks": 288,
          "midi": 37,
          "name": "C#2",
          "ticks": 164352,
          "time": 160.5,
          "velocity": 0.3937007874015748
        },
        {
          "duration": 0.28125,
          "durationTicks": 288,
          "midi": 42,
          "name": "F#2",
          "ticks": 164448,
          "time": 160.59375,
          "velocity": 0.3937007874015748
        },
        {
          "duration": 0.28125,
          "durationTicks": 288,
          "midi": 46,
          "name": "A#2",
          "ticks": 164544,
          "time": 160.6875,
          "velocity": 0.3937007874015748
        },
        {
          "duration": 0.28125,
          "durationTicks": 288,
          "midi": 49,
          "name": "C#3",
          "ticks": 164640,
          "time": 160.78125,
          "velocity": 0.3937007874015748
        },
        {
          "duration": 0.28125,
          "durationTicks": 288,
          "midi": 54,
          "name": "F#3",
          "ticks": 164736,
          "time": 160.875,
          "velocity": 0.3937007874015748
        },
        {
          "duration": 0.28125,
          "durationTicks": 288,
          "midi": 58,
          "name": "A#3",
          "ticks": 164832,
          "time": 160.96875,
          "velocity": 0.3937007874015748
        },
        {
          "duration": 0.28125,
          "durationTicks": 288,
          "midi": 61,
          "name": "C#4",
          "ticks": 164928,
          "time": 161.0625,
          "velocity": 0.3937007874015748
        },
        {
          "duration": 0.28125,
          "durationTicks": 288,
          "midi": 66,
          "name": "F#4",
          "ticks": 165024,
          "time": 161.15625,
          "velocity": 0.3937007874015748
        },
        {
          "duration": 0.28125,
          "durationTicks": 288,
          "midi": 70,
          "name": "A#4",
          "ticks": 165120,
          "time": 161.25,
          "velocity": 0.3937007874015748
        },
        {
          "duration": 0.28125,
          "durationTicks": 288,
          "midi": 66,
          "name": "F#4",
          "ticks": 165216,
          "time": 161.34375,
          "velocity": 0.3937007874015748
        },
        {
          "duration": 0.28125,
          "durationTicks": 288,
          "midi": 61,
          "name": "C#4",
          "ticks": 165312,
          "time": 161.4375,
          "velocity": 0.3937007874015748
        },
        {
          "duration": 0.28125,
          "durationTicks": 288,
          "midi": 58,
          "name": "A#3",
          "ticks": 165408,
          "time": 161.53125,
          "velocity": 0.3937007874015748
        },
        {
          "duration": 0.28125,
          "durationTicks": 288,
          "midi": 54,
          "name": "F#3",
          "ticks": 165504,
          "time": 161.625,
          "velocity": 0.3937007874015748
        },
        {
          "duration": 0.28125,
          "durationTicks": 288,
          "midi": 49,
          "name": "C#3",
          "ticks": 165600,
          "time": 161.71875,
          "velocity": 0.3937007874015748
        },
        {
          "duration": 0.28125,
          "durationTicks": 288,
          "midi": 46,
          "name": "A#2",
          "ticks": 165696,
          "time": 161.8125,
          "velocity": 0.3937007874015748
        },
        {
          "duration": 0.28125,
          "durationTicks": 288,
          "midi": 42,
          "name": "F#2",
          "ticks": 165792,
          "time": 161.90625,
          "velocity": 0.3937007874015748
        },
        {
          "duration": 0.28125,
          "durationTicks": 288,
          "midi": 36,
          "name": "C2",
          "ticks": 165888,
          "time": 162,
          "velocity": 0.3937007874015748
        },
        {
          "duration": 0.28125,
          "durationTicks": 288,
          "midi": 40,
          "name": "E2",
          "ticks": 165984,
          "time": 162.09375,
          "velocity": 0.3937007874015748
        },
        {
          "duration": 0.28125,
          "durationTicks": 288,
          "midi": 45,
          "name": "A2",
          "ticks": 166080,
          "time": 162.1875,
          "velocity": 0.3937007874015748
        },
        {
          "duration": 0.28125,
          "durationTicks": 288,
          "midi": 48,
          "name": "C3",
          "ticks": 166176,
          "time": 162.28125,
          "velocity": 0.3937007874015748
        },
        {
          "duration": 0.28125,
          "durationTicks": 288,
          "midi": 52,
          "name": "E3",
          "ticks": 166272,
          "time": 162.375,
          "velocity": 0.3937007874015748
        },
        {
          "duration": 0.28125,
          "durationTicks": 288,
          "midi": 57,
          "name": "A3",
          "ticks": 166368,
          "time": 162.46875,
          "velocity": 0.3937007874015748
        },
        {
          "duration": 0.28125,
          "durationTicks": 288,
          "midi": 60,
          "name": "C4",
          "ticks": 166464,
          "time": 162.5625,
          "velocity": 0.3937007874015748
        },
        {
          "duration": 0.28125,
          "durationTicks": 288,
          "midi": 64,
          "name": "E4",
          "ticks": 166560,
          "time": 162.65625,
          "velocity": 0.3937007874015748
        },
        {
          "duration": 0.28125,
          "durationTicks": 288,
          "midi": 69,
          "name": "A4",
          "ticks": 166656,
          "time": 162.75,
          "velocity": 0.3937007874015748
        },
        {
          "duration": 0.28125,
          "durationTicks": 288,
          "midi": 64,
          "name": "E4",
          "ticks": 166752,
          "time": 162.84375,
          "velocity": 0.3937007874015748
        },
        {
          "duration": 0.28125,
          "durationTicks": 288,
          "midi": 60,
          "name": "C4",
          "ticks": 166848,
          "time": 162.9375,
          "velocity": 0.3937007874015748
        },
        {
          "duration": 0.28125,
          "durationTicks": 288,
          "midi": 57,
          "name": "A3",
          "ticks": 166944,
          "time": 163.03125,
          "velocity": 0.3937007874015748
        },
        {
          "duration": 0.28125,
          "durationTicks": 288,
          "midi": 52,
          "name": "E3",
          "ticks": 167040,
          "time": 163.125,
          "velocity": 0.3937007874015748
        },
        {
          "duration": 0.28125,
          "durationTicks": 288,
          "midi": 48,
          "name": "C3",
          "ticks": 167136,
          "time": 163.21875,
          "velocity": 0.3937007874015748
        },
        {
          "duration": 0.28125,
          "durationTicks": 288,
          "midi": 45,
          "name": "A2",
          "ticks": 167232,
          "time": 163.3125,
          "velocity": 0.3937007874015748
        },
        {
          "duration": 0.28125,
          "durationTicks": 288,
          "midi": 40,
          "name": "E2",
          "ticks": 167328,
          "time": 163.40625,
          "velocity": 0.3937007874015748
        },
        {
          "duration": 0.28125,
          "durationTicks": 288,
          "midi": 35,
          "name": "B1",
          "ticks": 167424,
          "time": 163.5,
          "velocity": 0.3937007874015748
        },
        {
          "duration": 0.28125,
          "durationTicks": 288,
          "midi": 39,
          "name": "D#2",
          "ticks": 167520,
          "time": 163.59375,
          "velocity": 0.3937007874015748
        },
        {
          "duration": 0.28125,
          "durationTicks": 288,
          "midi": 42,
          "name": "F#2",
          "ticks": 167616,
          "time": 163.6875,
          "velocity": 0.3937007874015748
        },
        {
          "duration": 0.28125,
          "durationTicks": 288,
          "midi": 47,
          "name": "B2",
          "ticks": 167712,
          "time": 163.78125,
          "velocity": 0.3937007874015748
        },
        {
          "duration": 0.28125,
          "durationTicks": 288,
          "midi": 51,
          "name": "D#3",
          "ticks": 167808,
          "time": 163.875,
          "velocity": 0.3937007874015748
        },
        {
          "duration": 0.28125,
          "durationTicks": 288,
          "midi": 54,
          "name": "F#3",
          "ticks": 167904,
          "time": 163.96875,
          "velocity": 0.3937007874015748
        },
        {
          "duration": 0.28125,
          "durationTicks": 288,
          "midi": 59,
          "name": "B3",
          "ticks": 168000,
          "time": 164.0625,
          "velocity": 0.3937007874015748
        },
        {
          "duration": 0.28125,
          "durationTicks": 288,
          "midi": 63,
          "name": "D#4",
          "ticks": 168096,
          "time": 164.15625,
          "velocity": 0.3937007874015748
        },
        {
          "duration": 0.28125,
          "durationTicks": 288,
          "midi": 66,
          "name": "F#4",
          "ticks": 168192,
          "time": 164.25,
          "velocity": 0.3937007874015748
        },
        {
          "duration": 0.28125,
          "durationTicks": 288,
          "midi": 63,
          "name": "D#4",
          "ticks": 168288,
          "time": 164.34375,
          "velocity": 0.3937007874015748
        },
        {
          "duration": 0.28125,
          "durationTicks": 288,
          "midi": 59,
          "name": "B3",
          "ticks": 168384,
          "time": 164.4375,
          "velocity": 0.3937007874015748
        },
        {
          "duration": 0.28125,
          "durationTicks": 288,
          "midi": 54,
          "name": "F#3",
          "ticks": 168480,
          "time": 164.53125,
          "velocity": 0.3937007874015748
        },
        {
          "duration": 0.28125,
          "durationTicks": 288,
          "midi": 51,
          "name": "D#3",
          "ticks": 168576,
          "time": 164.625,
          "velocity": 0.3937007874015748
        },
        {
          "duration": 0.28125,
          "durationTicks": 288,
          "midi": 47,
          "name": "B2",
          "ticks": 168672,
          "time": 164.71875,
          "velocity": 0.3937007874015748
        },
        {
          "duration": 0.28125,
          "durationTicks": 288,
          "midi": 42,
          "name": "F#2",
          "ticks": 168768,
          "time": 164.8125,
          "velocity": 0.3937007874015748
        },
        {
          "duration": 0.28125,
          "durationTicks": 288,
          "midi": 39,
          "name": "D#2",
          "ticks": 168864,
          "time": 164.90625,
          "velocity": 0.3937007874015748
        },
        {
          "duration": 0.28125,
          "durationTicks": 288,
          "midi": 39,
          "name": "D#2",
          "ticks": 168864,
          "time": 164.90625,
          "velocity": 0.3937007874015748
        },
        {
          "duration": 0.28125,
          "durationTicks": 288,
          "midi": 41,
          "name": "F2",
          "ticks": 168960,
          "time": 165,
          "velocity": 0.3937007874015748
        },
        {
          "duration": 0.28125,
          "durationTicks": 288,
          "midi": 45,
          "name": "A2",
          "ticks": 169056,
          "time": 165.09375,
          "velocity": 0.3937007874015748
        },
        {
          "duration": 0.28125,
          "durationTicks": 288,
          "midi": 48,
          "name": "C3",
          "ticks": 169152,
          "time": 165.1875,
          "velocity": 0.3937007874015748
        },
        {
          "duration": 0.28125,
          "durationTicks": 288,
          "midi": 53,
          "name": "F3",
          "ticks": 169248,
          "time": 165.28125,
          "velocity": 0.3937007874015748
        },
        {
          "duration": 0.28125,
          "durationTicks": 288,
          "midi": 57,
          "name": "A3",
          "ticks": 169344,
          "time": 165.375,
          "velocity": 0.3937007874015748
        },
        {
          "duration": 0.28125,
          "durationTicks": 288,
          "midi": 60,
          "name": "C4",
          "ticks": 169440,
          "time": 165.46875,
          "velocity": 0.3937007874015748
        },
        {
          "duration": 0.28125,
          "durationTicks": 288,
          "midi": 65,
          "name": "F4",
          "ticks": 169536,
          "time": 165.5625,
          "velocity": 0.3937007874015748
        },
        {
          "duration": 0.28125,
          "durationTicks": 288,
          "midi": 69,
          "name": "A4",
          "ticks": 169632,
          "time": 165.65625,
          "velocity": 0.3937007874015748
        },
        {
          "duration": 0.28125,
          "durationTicks": 288,
          "midi": 72,
          "name": "C5",
          "ticks": 169728,
          "time": 165.75,
          "velocity": 0.3937007874015748
        },
        {
          "duration": 0.28125,
          "durationTicks": 288,
          "midi": 69,
          "name": "A4",
          "ticks": 169824,
          "time": 165.84375,
          "velocity": 0.3937007874015748
        },
        {
          "duration": 0.28125,
          "durationTicks": 288,
          "midi": 65,
          "name": "F4",
          "ticks": 169920,
          "time": 165.9375,
          "velocity": 0.3937007874015748
        },
        {
          "duration": 0.28125,
          "durationTicks": 288,
          "midi": 60,
          "name": "C4",
          "ticks": 170016,
          "time": 166.03125,
          "velocity": 0.3937007874015748
        },
        {
          "duration": 0.28125,
          "durationTicks": 288,
          "midi": 57,
          "name": "A3",
          "ticks": 170112,
          "time": 166.125,
          "velocity": 0.3937007874015748
        },
        {
          "duration": 0.28125,
          "durationTicks": 288,
          "midi": 53,
          "name": "F3",
          "ticks": 170208,
          "time": 166.21875,
          "velocity": 0.3937007874015748
        },
        {
          "duration": 0.28125,
          "durationTicks": 288,
          "midi": 48,
          "name": "C3",
          "ticks": 170304,
          "time": 166.3125,
          "velocity": 0.3937007874015748
        },
        {
          "duration": 0.28125,
          "durationTicks": 288,
          "midi": 45,
          "name": "A2",
          "ticks": 170400,
          "time": 166.40625,
          "velocity": 0.3937007874015748
        },
        {
          "duration": 0.28125,
          "durationTicks": 288,
          "midi": 39,
          "name": "D#2",
          "ticks": 170496,
          "time": 166.5,
          "velocity": 0.3937007874015748
        },
        {
          "duration": 0.28125,
          "durationTicks": 288,
          "midi": 42,
          "name": "F#2",
          "ticks": 170592,
          "time": 166.59375,
          "velocity": 0.3937007874015748
        },
        {
          "duration": 0.28125,
          "durationTicks": 288,
          "midi": 47,
          "name": "B2",
          "ticks": 170688,
          "time": 166.6875,
          "velocity": 0.3937007874015748
        },
        {
          "duration": 0.28125,
          "durationTicks": 288,
          "midi": 51,
          "name": "D#3",
          "ticks": 170784,
          "time": 166.78125,
          "velocity": 0.3937007874015748
        },
        {
          "duration": 0.28125,
          "durationTicks": 288,
          "midi": 54,
          "name": "F#3",
          "ticks": 170880,
          "time": 166.875,
          "velocity": 0.3937007874015748
        },
        {
          "duration": 0.28125,
          "durationTicks": 288,
          "midi": 59,
          "name": "B3",
          "ticks": 170976,
          "time": 166.96875,
          "velocity": 0.3937007874015748
        },
        {
          "duration": 0.28125,
          "durationTicks": 288,
          "midi": 63,
          "name": "D#4",
          "ticks": 171072,
          "time": 167.0625,
          "velocity": 0.3937007874015748
        },
        {
          "duration": 0.28125,
          "durationTicks": 288,
          "midi": 66,
          "name": "F#4",
          "ticks": 171168,
          "time": 167.15625,
          "velocity": 0.3937007874015748
        },
        {
          "duration": 0.28125,
          "durationTicks": 288,
          "midi": 71,
          "name": "B4",
          "ticks": 171264,
          "time": 167.25,
          "velocity": 0.3937007874015748
        },
        {
          "duration": 0.28125,
          "durationTicks": 288,
          "midi": 66,
          "name": "F#4",
          "ticks": 171360,
          "time": 167.34375,
          "velocity": 0.3937007874015748
        },
        {
          "duration": 0.28125,
          "durationTicks": 288,
          "midi": 63,
          "name": "D#4",
          "ticks": 171456,
          "time": 167.4375,
          "velocity": 0.3937007874015748
        },
        {
          "duration": 0.28125,
          "durationTicks": 288,
          "midi": 59,
          "name": "B3",
          "ticks": 171552,
          "time": 167.53125,
          "velocity": 0.3937007874015748
        },
        {
          "duration": 0.28125,
          "durationTicks": 288,
          "midi": 54,
          "name": "F#3",
          "ticks": 171648,
          "time": 167.625,
          "velocity": 0.3937007874015748
        },
        {
          "duration": 0.28125,
          "durationTicks": 288,
          "midi": 51,
          "name": "D#3",
          "ticks": 171744,
          "time": 167.71875,
          "velocity": 0.3937007874015748
        },
        {
          "duration": 0.28125,
          "durationTicks": 288,
          "midi": 47,
          "name": "B2",
          "ticks": 171840,
          "time": 167.8125,
          "velocity": 0.3937007874015748
        },
        {
          "duration": 0.28125,
          "durationTicks": 288,
          "midi": 42,
          "name": "F#2",
          "ticks": 171936,
          "time": 167.90625,
          "velocity": 0.3937007874015748
        },
        {
          "duration": 0.28125,
          "durationTicks": 288,
          "midi": 40,
          "name": "E2",
          "ticks": 172032,
          "time": 168,
          "velocity": 0.3937007874015748
        },
        {
          "duration": 0.28125,
          "durationTicks": 288,
          "midi": 43,
          "name": "G2",
          "ticks": 172128,
          "time": 168.09375,
          "velocity": 0.3937007874015748
        },
        {
          "duration": 0.28125,
          "durationTicks": 288,
          "midi": 47,
          "name": "B2",
          "ticks": 172224,
          "time": 168.1875,
          "velocity": 0.3937007874015748
        },
        {
          "duration": 0.28125,
          "durationTicks": 288,
          "midi": 52,
          "name": "E3",
          "ticks": 172320,
          "time": 168.28125,
          "velocity": 0.3937007874015748
        },
        {
          "duration": 0.28125,
          "durationTicks": 288,
          "midi": 55,
          "name": "G3",
          "ticks": 172416,
          "time": 168.375,
          "velocity": 0.3937007874015748
        },
        {
          "duration": 0.28125,
          "durationTicks": 288,
          "midi": 59,
          "name": "B3",
          "ticks": 172512,
          "time": 168.46875,
          "velocity": 0.3937007874015748
        },
        {
          "duration": 0.28125,
          "durationTicks": 288,
          "midi": 64,
          "name": "E4",
          "ticks": 172608,
          "time": 168.5625,
          "velocity": 0.3937007874015748
        },
        {
          "duration": 0.28125,
          "durationTicks": 288,
          "midi": 67,
          "name": "G4",
          "ticks": 172704,
          "time": 168.65625,
          "velocity": 0.3937007874015748
        },
        {
          "duration": 0.28125,
          "durationTicks": 288,
          "midi": 71,
          "name": "B4",
          "ticks": 172800,
          "time": 168.75,
          "velocity": 0.3937007874015748
        },
        {
          "duration": 0.28125,
          "durationTicks": 288,
          "midi": 67,
          "name": "G4",
          "ticks": 172896,
          "time": 168.84375,
          "velocity": 0.3937007874015748
        },
        {
          "duration": 0.28125,
          "durationTicks": 288,
          "midi": 64,
          "name": "E4",
          "ticks": 172992,
          "time": 168.9375,
          "velocity": 0.3937007874015748
        },
        {
          "duration": 0.28125,
          "durationTicks": 288,
          "midi": 59,
          "name": "B3",
          "ticks": 173088,
          "time": 169.03125,
          "velocity": 0.3937007874015748
        },
        {
          "duration": 0.28125,
          "durationTicks": 288,
          "midi": 55,
          "name": "G3",
          "ticks": 173184,
          "time": 169.125,
          "velocity": 0.3937007874015748
        },
        {
          "duration": 0.28125,
          "durationTicks": 288,
          "midi": 52,
          "name": "E3",
          "ticks": 173280,
          "time": 169.21875,
          "velocity": 0.3937007874015748
        },
        {
          "duration": 0.28125,
          "durationTicks": 288,
          "midi": 47,
          "name": "B2",
          "ticks": 173376,
          "time": 169.3125,
          "velocity": 0.3937007874015748
        },
        {
          "duration": 0.28125,
          "durationTicks": 288,
          "midi": 43,
          "name": "G2",
          "ticks": 173472,
          "time": 169.40625,
          "velocity": 0.3937007874015748
        },
        {
          "duration": 0.28125,
          "durationTicks": 288,
          "midi": 39,
          "name": "D#2",
          "ticks": 173568,
          "time": 169.5,
          "velocity": 0.3937007874015748
        },
        {
          "duration": 0.28125,
          "durationTicks": 288,
          "midi": 42,
          "name": "F#2",
          "ticks": 173664,
          "time": 169.59375,
          "velocity": 0.3937007874015748
        },
        {
          "duration": 0.28125,
          "durationTicks": 288,
          "midi": 47,
          "name": "B2",
          "ticks": 173760,
          "time": 169.6875,
          "velocity": 0.3937007874015748
        },
        {
          "duration": 0.28125,
          "durationTicks": 288,
          "midi": 51,
          "name": "D#3",
          "ticks": 173856,
          "time": 169.78125,
          "velocity": 0.3937007874015748
        },
        {
          "duration": 0.28125,
          "durationTicks": 288,
          "midi": 54,
          "name": "F#3",
          "ticks": 173952,
          "time": 169.875,
          "velocity": 0.3937007874015748
        },
        {
          "duration": 0.28125,
          "durationTicks": 288,
          "midi": 59,
          "name": "B3",
          "ticks": 174048,
          "time": 169.96875,
          "velocity": 0.3937007874015748
        },
        {
          "duration": 0.28125,
          "durationTicks": 288,
          "midi": 63,
          "name": "D#4",
          "ticks": 174144,
          "time": 170.0625,
          "velocity": 0.3937007874015748
        },
        {
          "duration": 0.28125,
          "durationTicks": 288,
          "midi": 66,
          "name": "F#4",
          "ticks": 174240,
          "time": 170.15625,
          "velocity": 0.3937007874015748
        },
        {
          "duration": 0.28125,
          "durationTicks": 288,
          "midi": 71,
          "name": "B4",
          "ticks": 174336,
          "time": 170.25,
          "velocity": 0.3937007874015748
        },
        {
          "duration": 0.28125,
          "durationTicks": 288,
          "midi": 66,
          "name": "F#4",
          "ticks": 174432,
          "time": 170.34375,
          "velocity": 0.3937007874015748
        },
        {
          "duration": 0.28125,
          "durationTicks": 288,
          "midi": 63,
          "name": "D#4",
          "ticks": 174528,
          "time": 170.4375,
          "velocity": 0.3937007874015748
        },
        {
          "duration": 0.28125,
          "durationTicks": 288,
          "midi": 59,
          "name": "B3",
          "ticks": 174624,
          "time": 170.53125,
          "velocity": 0.3937007874015748
        },
        {
          "duration": 0.28125,
          "durationTicks": 288,
          "midi": 54,
          "name": "F#3",
          "ticks": 174720,
          "time": 170.625,
          "velocity": 0.3937007874015748
        },
        {
          "duration": 0.28125,
          "durationTicks": 288,
          "midi": 51,
          "name": "D#3",
          "ticks": 174816,
          "time": 170.71875,
          "velocity": 0.3937007874015748
        },
        {
          "duration": 0.28125,
          "durationTicks": 288,
          "midi": 47,
          "name": "B2",
          "ticks": 174912,
          "time": 170.8125,
          "velocity": 0.3937007874015748
        },
        {
          "duration": 0.28125,
          "durationTicks": 288,
          "midi": 42,
          "name": "F#2",
          "ticks": 175008,
          "time": 170.90625,
          "velocity": 0.3937007874015748
        },
        {
          "duration": 0.28125,
          "durationTicks": 288,
          "midi": 38,
          "name": "D2",
          "ticks": 175104,
          "time": 171,
          "velocity": 0.3937007874015748
        },
        {
          "duration": 0.28125,
          "durationTicks": 288,
          "midi": 42,
          "name": "F#2",
          "ticks": 175200,
          "time": 171.09375,
          "velocity": 0.3937007874015748
        },
        {
          "duration": 0.28125,
          "durationTicks": 288,
          "midi": 47,
          "name": "B2",
          "ticks": 175296,
          "time": 171.1875,
          "velocity": 0.3937007874015748
        },
        {
          "duration": 0.28125,
          "durationTicks": 288,
          "midi": 50,
          "name": "D3",
          "ticks": 175392,
          "time": 171.28125,
          "velocity": 0.3937007874015748
        },
        {
          "duration": 0.28125,
          "durationTicks": 288,
          "midi": 54,
          "name": "F#3",
          "ticks": 175488,
          "time": 171.375,
          "velocity": 0.3937007874015748
        },
        {
          "duration": 0.28125,
          "durationTicks": 288,
          "midi": 59,
          "name": "B3",
          "ticks": 175584,
          "time": 171.46875,
          "velocity": 0.3937007874015748
        },
        {
          "duration": 0.28125,
          "durationTicks": 288,
          "midi": 62,
          "name": "D4",
          "ticks": 175680,
          "time": 171.5625,
          "velocity": 0.3937007874015748
        },
        {
          "duration": 0.28125,
          "durationTicks": 288,
          "midi": 66,
          "name": "F#4",
          "ticks": 175776,
          "time": 171.65625,
          "velocity": 0.3937007874015748
        },
        {
          "duration": 0.28125,
          "durationTicks": 288,
          "midi": 71,
          "name": "B4",
          "ticks": 175872,
          "time": 171.75,
          "velocity": 0.3937007874015748
        },
        {
          "duration": 0.28125,
          "durationTicks": 288,
          "midi": 66,
          "name": "F#4",
          "ticks": 175968,
          "time": 171.84375,
          "velocity": 0.3937007874015748
        },
        {
          "duration": 0.28125,
          "durationTicks": 288,
          "midi": 62,
          "name": "D4",
          "ticks": 176064,
          "time": 171.9375,
          "velocity": 0.3937007874015748
        },
        {
          "duration": 0.28125,
          "durationTicks": 288,
          "midi": 59,
          "name": "B3",
          "ticks": 176160,
          "time": 172.03125,
          "velocity": 0.3937007874015748
        },
        {
          "duration": 0.28125,
          "durationTicks": 288,
          "midi": 54,
          "name": "F#3",
          "ticks": 176256,
          "time": 172.125,
          "velocity": 0.3937007874015748
        },
        {
          "duration": 0.28125,
          "durationTicks": 288,
          "midi": 50,
          "name": "D3",
          "ticks": 176352,
          "time": 172.21875,
          "velocity": 0.3937007874015748
        },
        {
          "duration": 0.28125,
          "durationTicks": 288,
          "midi": 47,
          "name": "B2",
          "ticks": 176448,
          "time": 172.3125,
          "velocity": 0.3937007874015748
        },
        {
          "duration": 0.28125,
          "durationTicks": 288,
          "midi": 42,
          "name": "F#2",
          "ticks": 176544,
          "time": 172.40625,
          "velocity": 0.3937007874015748
        },
        {
          "duration": 0.28125,
          "durationTicks": 288,
          "midi": 37,
          "name": "C#2",
          "ticks": 176640,
          "time": 172.5,
          "velocity": 0.3937007874015748
        },
        {
          "duration": 0.28125,
          "durationTicks": 288,
          "midi": 42,
          "name": "F#2",
          "ticks": 176736,
          "time": 172.59375,
          "velocity": 0.3937007874015748
        },
        {
          "duration": 0.28125,
          "durationTicks": 288,
          "midi": 46,
          "name": "A#2",
          "ticks": 176832,
          "time": 172.6875,
          "velocity": 0.3937007874015748
        },
        {
          "duration": 0.28125,
          "durationTicks": 288,
          "midi": 49,
          "name": "C#3",
          "ticks": 176928,
          "time": 172.78125,
          "velocity": 0.3937007874015748
        },
        {
          "duration": 0.28125,
          "durationTicks": 288,
          "midi": 54,
          "name": "F#3",
          "ticks": 177024,
          "time": 172.875,
          "velocity": 0.3937007874015748
        },
        {
          "duration": 0.28125,
          "durationTicks": 288,
          "midi": 58,
          "name": "A#3",
          "ticks": 177120,
          "time": 172.96875,
          "velocity": 0.3937007874015748
        },
        {
          "duration": 0.28125,
          "durationTicks": 288,
          "midi": 61,
          "name": "C#4",
          "ticks": 177216,
          "time": 173.0625,
          "velocity": 0.3937007874015748
        },
        {
          "duration": 0.28125,
          "durationTicks": 288,
          "midi": 66,
          "name": "F#4",
          "ticks": 177312,
          "time": 173.15625,
          "velocity": 0.3937007874015748
        },
        {
          "duration": 0.28125,
          "durationTicks": 288,
          "midi": 70,
          "name": "A#4",
          "ticks": 177408,
          "time": 173.25,
          "velocity": 0.3937007874015748
        },
        {
          "duration": 0.28125,
          "durationTicks": 288,
          "midi": 66,
          "name": "F#4",
          "ticks": 177504,
          "time": 173.34375,
          "velocity": 0.3937007874015748
        },
        {
          "duration": 0.28125,
          "durationTicks": 288,
          "midi": 61,
          "name": "C#4",
          "ticks": 177600,
          "time": 173.4375,
          "velocity": 0.3937007874015748
        },
        {
          "duration": 0.28125,
          "durationTicks": 288,
          "midi": 58,
          "name": "A#3",
          "ticks": 177696,
          "time": 173.53125,
          "velocity": 0.3937007874015748
        },
        {
          "duration": 0.28125,
          "durationTicks": 288,
          "midi": 54,
          "name": "F#3",
          "ticks": 177792,
          "time": 173.625,
          "velocity": 0.3937007874015748
        },
        {
          "duration": 0.28125,
          "durationTicks": 288,
          "midi": 49,
          "name": "C#3",
          "ticks": 177888,
          "time": 173.71875,
          "velocity": 0.3937007874015748
        },
        {
          "duration": 0.28125,
          "durationTicks": 288,
          "midi": 46,
          "name": "A#2",
          "ticks": 177984,
          "time": 173.8125,
          "velocity": 0.3937007874015748
        },
        {
          "duration": 0.28125,
          "durationTicks": 288,
          "midi": 42,
          "name": "F#2",
          "ticks": 178080,
          "time": 173.90625,
          "velocity": 0.3937007874015748
        },
        {
          "duration": 0.28125,
          "durationTicks": 288,
          "midi": 36,
          "name": "C2",
          "ticks": 178176,
          "time": 174,
          "velocity": 0.3937007874015748
        },
        {
          "duration": 0.28125,
          "durationTicks": 288,
          "midi": 40,
          "name": "E2",
          "ticks": 178272,
          "time": 174.09375,
          "velocity": 0.3937007874015748
        },
        {
          "duration": 0.28125,
          "durationTicks": 288,
          "midi": 45,
          "name": "A2",
          "ticks": 178368,
          "time": 174.1875,
          "velocity": 0.3937007874015748
        },
        {
          "duration": 0.28125,
          "durationTicks": 288,
          "midi": 48,
          "name": "C3",
          "ticks": 178464,
          "time": 174.28125,
          "velocity": 0.3937007874015748
        },
        {
          "duration": 0.28125,
          "durationTicks": 288,
          "midi": 57,
          "name": "A3",
          "ticks": 178656,
          "time": 174.46875,
          "velocity": 0.3937007874015748
        },
        {
          "duration": 0.28125,
          "durationTicks": 288,
          "midi": 60,
          "name": "C4",
          "ticks": 178752,
          "time": 174.5625,
          "velocity": 0.3937007874015748
        },
        {
          "duration": 0.28125,
          "durationTicks": 288,
          "midi": 64,
          "name": "E4",
          "ticks": 178848,
          "time": 174.65625,
          "velocity": 0.3937007874015748
        },
        {
          "duration": 0.28125,
          "durationTicks": 288,
          "midi": 69,
          "name": "A4",
          "ticks": 178944,
          "time": 174.75,
          "velocity": 0.3937007874015748
        },
        {
          "duration": 0.28125,
          "durationTicks": 288,
          "midi": 64,
          "name": "E4",
          "ticks": 179040,
          "time": 174.84375,
          "velocity": 0.3937007874015748
        },
        {
          "duration": 0.28125,
          "durationTicks": 288,
          "midi": 60,
          "name": "C4",
          "ticks": 179136,
          "time": 174.9375,
          "velocity": 0.3937007874015748
        },
        {
          "duration": 0.28125,
          "durationTicks": 288,
          "midi": 57,
          "name": "A3",
          "ticks": 179232,
          "time": 175.03125,
          "velocity": 0.3937007874015748
        },
        {
          "duration": 0.28125,
          "durationTicks": 288,
          "midi": 52,
          "name": "E3",
          "ticks": 179328,
          "time": 175.125,
          "velocity": 0.3937007874015748
        },
        {
          "duration": 0.28125,
          "durationTicks": 288,
          "midi": 48,
          "name": "C3",
          "ticks": 179424,
          "time": 175.21875,
          "velocity": 0.3937007874015748
        },
        {
          "duration": 0.28125,
          "durationTicks": 288,
          "midi": 45,
          "name": "A2",
          "ticks": 179520,
          "time": 175.3125,
          "velocity": 0.3937007874015748
        },
        {
          "duration": 0.28125,
          "durationTicks": 288,
          "midi": 40,
          "name": "E2",
          "ticks": 179616,
          "time": 175.40625,
          "velocity": 0.3937007874015748
        },
        {
          "duration": 0.28125,
          "durationTicks": 288,
          "midi": 39,
          "name": "D#2",
          "ticks": 179712,
          "time": 175.5,
          "velocity": 0.3937007874015748
        },
        {
          "duration": 0.28125,
          "durationTicks": 288,
          "midi": 42,
          "name": "F#2",
          "ticks": 179808,
          "time": 175.59375,
          "velocity": 0.3937007874015748
        },
        {
          "duration": 0.28125,
          "durationTicks": 288,
          "midi": 47,
          "name": "B2",
          "ticks": 179904,
          "time": 175.6875,
          "velocity": 0.3937007874015748
        },
        {
          "duration": 0.28125,
          "durationTicks": 288,
          "midi": 51,
          "name": "D#3",
          "ticks": 180000,
          "time": 175.78125,
          "velocity": 0.3937007874015748
        },
        {
          "duration": 0.28125,
          "durationTicks": 288,
          "midi": 54,
          "name": "F#3",
          "ticks": 180096,
          "time": 175.875,
          "velocity": 0.3937007874015748
        },
        {
          "duration": 0.28125,
          "durationTicks": 288,
          "midi": 59,
          "name": "B3",
          "ticks": 180192,
          "time": 175.96875,
          "velocity": 0.3937007874015748
        },
        {
          "duration": 0.28125,
          "durationTicks": 288,
          "midi": 66,
          "name": "F#4",
          "ticks": 180384,
          "time": 176.15625,
          "velocity": 0.3937007874015748
        },
        {
          "duration": 0.28125,
          "durationTicks": 288,
          "midi": 71,
          "name": "B4",
          "ticks": 180480,
          "time": 176.25,
          "velocity": 0.3937007874015748
        },
        {
          "duration": 0.28125,
          "durationTicks": 288,
          "midi": 66,
          "name": "F#4",
          "ticks": 180576,
          "time": 176.34375,
          "velocity": 0.3937007874015748
        },
        {
          "duration": 0.28125,
          "durationTicks": 288,
          "midi": 63,
          "name": "D#4",
          "ticks": 180672,
          "time": 176.4375,
          "velocity": 0.3937007874015748
        },
        {
          "duration": 0.28125,
          "durationTicks": 288,
          "midi": 59,
          "name": "B3",
          "ticks": 180768,
          "time": 176.53125,
          "velocity": 0.3937007874015748
        },
        {
          "duration": 0.28125,
          "durationTicks": 288,
          "midi": 54,
          "name": "F#3",
          "ticks": 180864,
          "time": 176.625,
          "velocity": 0.3937007874015748
        },
        {
          "duration": 0.28125,
          "durationTicks": 288,
          "midi": 51,
          "name": "D#3",
          "ticks": 180960,
          "time": 176.71875,
          "velocity": 0.3937007874015748
        },
        {
          "duration": 0.28125,
          "durationTicks": 288,
          "midi": 47,
          "name": "B2",
          "ticks": 181056,
          "time": 176.8125,
          "velocity": 0.3937007874015748
        },
        {
          "duration": 0.28125,
          "durationTicks": 288,
          "midi": 42,
          "name": "F#2",
          "ticks": 181152,
          "time": 176.90625,
          "velocity": 0.3937007874015748
        },
        {
          "duration": 0.28125,
          "durationTicks": 288,
          "midi": 41,
          "name": "F2",
          "ticks": 193536,
          "time": 189,
          "velocity": 0.3937007874015748
        },
        {
          "duration": 0.28125,
          "durationTicks": 288,
          "midi": 44,
          "name": "G#2",
          "ticks": 193632,
          "time": 189.09375,
          "velocity": 0.3937007874015748
        },
        {
          "duration": 0.28125,
          "durationTicks": 288,
          "midi": 48,
          "name": "C3",
          "ticks": 193728,
          "time": 189.1875,
          "velocity": 0.3937007874015748
        },
        {
          "duration": 0.28125,
          "durationTicks": 288,
          "midi": 53,
          "name": "F3",
          "ticks": 193824,
          "time": 189.28125,
          "velocity": 0.3937007874015748
        },
        {
          "duration": 0.28125,
          "durationTicks": 288,
          "midi": 56,
          "name": "G#3",
          "ticks": 193920,
          "time": 189.375,
          "velocity": 0.3937007874015748
        },
        {
          "duration": 0.28125,
          "durationTicks": 288,
          "midi": 60,
          "name": "C4",
          "ticks": 194016,
          "time": 189.46875,
          "velocity": 0.3937007874015748
        },
        {
          "duration": 0.28125,
          "durationTicks": 288,
          "midi": 65,
          "name": "F4",
          "ticks": 194112,
          "time": 189.5625,
          "velocity": 0.3937007874015748
        },
        {
          "duration": 0.28125,
          "durationTicks": 288,
          "midi": 68,
          "name": "G#4",
          "ticks": 194208,
          "time": 189.65625,
          "velocity": 0.3937007874015748
        },
        {
          "duration": 0.28125,
          "durationTicks": 288,
          "midi": 72,
          "name": "C5",
          "ticks": 194304,
          "time": 189.75,
          "velocity": 0.3937007874015748
        },
        {
          "duration": 0.28125,
          "durationTicks": 288,
          "midi": 68,
          "name": "G#4",
          "ticks": 194400,
          "time": 189.84375,
          "velocity": 0.3937007874015748
        },
        {
          "duration": 0.28125,
          "durationTicks": 288,
          "midi": 65,
          "name": "F4",
          "ticks": 194496,
          "time": 189.9375,
          "velocity": 0.3937007874015748
        },
        {
          "duration": 0.28125,
          "durationTicks": 288,
          "midi": 60,
          "name": "C4",
          "ticks": 194592,
          "time": 190.03125,
          "velocity": 0.3937007874015748
        },
        {
          "duration": 0.28125,
          "durationTicks": 288,
          "midi": 56,
          "name": "G#3",
          "ticks": 194688,
          "time": 190.125,
          "velocity": 0.3937007874015748
        },
        {
          "duration": 0.28125,
          "durationTicks": 288,
          "midi": 53,
          "name": "F3",
          "ticks": 194784,
          "time": 190.21875,
          "velocity": 0.3937007874015748
        },
        {
          "duration": 0.28125,
          "durationTicks": 288,
          "midi": 48,
          "name": "C3",
          "ticks": 194880,
          "time": 190.3125,
          "velocity": 0.3937007874015748
        },
        {
          "duration": 0.28125,
          "durationTicks": 288,
          "midi": 44,
          "name": "G#2",
          "ticks": 194976,
          "time": 190.40625,
          "velocity": 0.3937007874015748
        },
        {
          "duration": 0.28125,
          "durationTicks": 288,
          "midi": 40,
          "name": "E2",
          "ticks": 195072,
          "time": 190.5,
          "velocity": 0.3937007874015748
        },
        {
          "duration": 0.28125,
          "durationTicks": 288,
          "midi": 43,
          "name": "G2",
          "ticks": 195168,
          "time": 190.59375,
          "velocity": 0.3937007874015748
        },
        {
          "duration": 0.28125,
          "durationTicks": 288,
          "midi": 48,
          "name": "C3",
          "ticks": 195264,
          "time": 190.6875,
          "velocity": 0.3937007874015748
        },
        {
          "duration": 0.28125,
          "durationTicks": 288,
          "midi": 52,
          "name": "E3",
          "ticks": 195360,
          "time": 190.78125,
          "velocity": 0.3937007874015748
        },
        {
          "duration": 0.28125,
          "durationTicks": 288,
          "midi": 55,
          "name": "G3",
          "ticks": 195456,
          "time": 190.875,
          "velocity": 0.3937007874015748
        },
        {
          "duration": 0.28125,
          "durationTicks": 288,
          "midi": 60,
          "name": "C4",
          "ticks": 195552,
          "time": 190.96875,
          "velocity": 0.3937007874015748
        },
        {
          "duration": 0.28125,
          "durationTicks": 288,
          "midi": 64,
          "name": "E4",
          "ticks": 195648,
          "time": 191.0625,
          "velocity": 0.3937007874015748
        },
        {
          "duration": 0.28125,
          "durationTicks": 288,
          "midi": 67,
          "name": "G4",
          "ticks": 195744,
          "time": 191.15625,
          "velocity": 0.3937007874015748
        },
        {
          "duration": 0.28125,
          "durationTicks": 288,
          "midi": 72,
          "name": "C5",
          "ticks": 195840,
          "time": 191.25,
          "velocity": 0.3937007874015748
        },
        {
          "duration": 0.28125,
          "durationTicks": 288,
          "midi": 67,
          "name": "G4",
          "ticks": 195936,
          "time": 191.34375,
          "velocity": 0.3937007874015748
        },
        {
          "duration": 0.28125,
          "durationTicks": 288,
          "midi": 64,
          "name": "E4",
          "ticks": 196032,
          "time": 191.4375,
          "velocity": 0.3937007874015748
        },
        {
          "duration": 0.28125,
          "durationTicks": 288,
          "midi": 60,
          "name": "C4",
          "ticks": 196128,
          "time": 191.53125,
          "velocity": 0.3937007874015748
        },
        {
          "duration": 0.28125,
          "durationTicks": 288,
          "midi": 55,
          "name": "G3",
          "ticks": 196224,
          "time": 191.625,
          "velocity": 0.3937007874015748
        },
        {
          "duration": 0.28125,
          "durationTicks": 288,
          "midi": 52,
          "name": "E3",
          "ticks": 196320,
          "time": 191.71875,
          "velocity": 0.3937007874015748
        },
        {
          "duration": 0.28125,
          "durationTicks": 288,
          "midi": 48,
          "name": "C3",
          "ticks": 196416,
          "time": 191.8125,
          "velocity": 0.3937007874015748
        },
        {
          "duration": 0.28125,
          "durationTicks": 288,
          "midi": 43,
          "name": "G2",
          "ticks": 196512,
          "time": 191.90625,
          "velocity": 0.3937007874015748
        },
        {
          "duration": 0.28125,
          "durationTicks": 288,
          "midi": 39,
          "name": "D#2",
          "ticks": 196608,
          "time": 192,
          "velocity": 0.3937007874015748
        },
        {
          "duration": 0.28125,
          "durationTicks": 288,
          "midi": 43,
          "name": "G2",
          "ticks": 196704,
          "time": 192.09375,
          "velocity": 0.3937007874015748
        },
        {
          "duration": 0.28125,
          "durationTicks": 288,
          "midi": 48,
          "name": "C3",
          "ticks": 196800,
          "time": 192.1875,
          "velocity": 0.3937007874015748
        },
        {
          "duration": 0.28125,
          "durationTicks": 288,
          "midi": 51,
          "name": "D#3",
          "ticks": 196896,
          "time": 192.28125,
          "velocity": 0.3937007874015748
        },
        {
          "duration": 0.28125,
          "durationTicks": 288,
          "midi": 55,
          "name": "G3",
          "ticks": 196992,
          "time": 192.375,
          "velocity": 0.3937007874015748
        },
        {
          "duration": 0.28125,
          "durationTicks": 288,
          "midi": 60,
          "name": "C4",
          "ticks": 197088,
          "time": 192.46875,
          "velocity": 0.3937007874015748
        },
        {
          "duration": 0.28125,
          "durationTicks": 288,
          "midi": 63,
          "name": "D#4",
          "ticks": 197184,
          "time": 192.5625,
          "velocity": 0.3937007874015748
        },
        {
          "duration": 0.28125,
          "durationTicks": 288,
          "midi": 67,
          "name": "G4",
          "ticks": 197280,
          "time": 192.65625,
          "velocity": 0.3937007874015748
        },
        {
          "duration": 0.28125,
          "durationTicks": 288,
          "midi": 72,
          "name": "C5",
          "ticks": 197376,
          "time": 192.75,
          "velocity": 0.3937007874015748
        },
        {
          "duration": 0.28125,
          "durationTicks": 288,
          "midi": 67,
          "name": "G4",
          "ticks": 197472,
          "time": 192.84375,
          "velocity": 0.3937007874015748
        },
        {
          "duration": 0.28125,
          "durationTicks": 288,
          "midi": 63,
          "name": "D#4",
          "ticks": 197568,
          "time": 192.9375,
          "velocity": 0.3937007874015748
        },
        {
          "duration": 0.28125,
          "durationTicks": 288,
          "midi": 60,
          "name": "C4",
          "ticks": 197664,
          "time": 193.03125,
          "velocity": 0.3937007874015748
        },
        {
          "duration": 0.28125,
          "durationTicks": 288,
          "midi": 55,
          "name": "G3",
          "ticks": 197760,
          "time": 193.125,
          "velocity": 0.3937007874015748
        },
        {
          "duration": 0.28125,
          "durationTicks": 288,
          "midi": 51,
          "name": "D#3",
          "ticks": 197856,
          "time": 193.21875,
          "velocity": 0.3937007874015748
        },
        {
          "duration": 0.28125,
          "durationTicks": 288,
          "midi": 48,
          "name": "C3",
          "ticks": 197952,
          "time": 193.3125,
          "velocity": 0.3937007874015748
        },
        {
          "duration": 0.28125,
          "durationTicks": 288,
          "midi": 43,
          "name": "G2",
          "ticks": 198048,
          "time": 193.40625,
          "velocity": 0.3937007874015748
        },
        {
          "duration": 0.28125,
          "durationTicks": 288,
          "midi": 38,
          "name": "D2",
          "ticks": 198144,
          "time": 193.5,
          "velocity": 0.3937007874015748
        },
        {
          "duration": 0.28125,
          "durationTicks": 288,
          "midi": 43,
          "name": "G2",
          "ticks": 198240,
          "time": 193.59375,
          "velocity": 0.3937007874015748
        },
        {
          "duration": 0.28125,
          "durationTicks": 288,
          "midi": 47,
          "name": "B2",
          "ticks": 198336,
          "time": 193.6875,
          "velocity": 0.3937007874015748
        },
        {
          "duration": 0.28125,
          "durationTicks": 288,
          "midi": 50,
          "name": "D3",
          "ticks": 198432,
          "time": 193.78125,
          "velocity": 0.3937007874015748
        },
        {
          "duration": 0.28125,
          "durationTicks": 288,
          "midi": 55,
          "name": "G3",
          "ticks": 198528,
          "time": 193.875,
          "velocity": 0.3937007874015748
        },
        {
          "duration": 0.28125,
          "durationTicks": 288,
          "midi": 59,
          "name": "B3",
          "ticks": 198624,
          "time": 193.96875,
          "velocity": 0.3937007874015748
        },
        {
          "duration": 0.28125,
          "durationTicks": 288,
          "midi": 62,
          "name": "D4",
          "ticks": 198720,
          "time": 194.0625,
          "velocity": 0.3937007874015748
        },
        {
          "duration": 0.28125,
          "durationTicks": 288,
          "midi": 67,
          "name": "G4",
          "ticks": 198816,
          "time": 194.15625,
          "velocity": 0.3937007874015748
        },
        {
          "duration": 0.28125,
          "durationTicks": 288,
          "midi": 71,
          "name": "B4",
          "ticks": 198912,
          "time": 194.25,
          "velocity": 0.3937007874015748
        },
        {
          "duration": 0.28125,
          "durationTicks": 288,
          "midi": 67,
          "name": "G4",
          "ticks": 199008,
          "time": 194.34375,
          "velocity": 0.3937007874015748
        },
        {
          "duration": 0.28125,
          "durationTicks": 288,
          "midi": 62,
          "name": "D4",
          "ticks": 199104,
          "time": 194.4375,
          "velocity": 0.3937007874015748
        },
        {
          "duration": 0.28125,
          "durationTicks": 288,
          "midi": 59,
          "name": "B3",
          "ticks": 199200,
          "time": 194.53125,
          "velocity": 0.3937007874015748
        },
        {
          "duration": 0.28125,
          "durationTicks": 288,
          "midi": 55,
          "name": "G3",
          "ticks": 199296,
          "time": 194.625,
          "velocity": 0.3937007874015748
        },
        {
          "duration": 0.28125,
          "durationTicks": 288,
          "midi": 50,
          "name": "D3",
          "ticks": 199392,
          "time": 194.71875,
          "velocity": 0.3937007874015748
        },
        {
          "duration": 0.28125,
          "durationTicks": 288,
          "midi": 47,
          "name": "B2",
          "ticks": 199488,
          "time": 194.8125,
          "velocity": 0.3937007874015748
        },
        {
          "duration": 0.28125,
          "durationTicks": 288,
          "midi": 43,
          "name": "G2",
          "ticks": 199584,
          "time": 194.90625,
          "velocity": 0.3937007874015748
        },
        {
          "duration": 0.28125,
          "durationTicks": 288,
          "midi": 37,
          "name": "C#2",
          "ticks": 199680,
          "time": 195,
          "velocity": 0.3937007874015748
        },
        {
          "duration": 0.28125,
          "durationTicks": 288,
          "midi": 41,
          "name": "F2",
          "ticks": 199776,
          "time": 195.09375,
          "velocity": 0.3937007874015748
        },
        {
          "duration": 0.28125,
          "durationTicks": 288,
          "midi": 46,
          "name": "A#2",
          "ticks": 199872,
          "time": 195.1875,
          "velocity": 0.3937007874015748
        },
        {
          "duration": 0.28125,
          "durationTicks": 288,
          "midi": 49,
          "name": "C#3",
          "ticks": 199968,
          "time": 195.28125,
          "velocity": 0.3937007874015748
        },
        {
          "duration": 0.28125,
          "durationTicks": 288,
          "midi": 53,
          "name": "F3",
          "ticks": 200064,
          "time": 195.375,
          "velocity": 0.3937007874015748
        },
        {
          "duration": 0.28125,
          "durationTicks": 288,
          "midi": 58,
          "name": "A#3",
          "ticks": 200160,
          "time": 195.46875,
          "velocity": 0.3937007874015748
        },
        {
          "duration": 0.28125,
          "durationTicks": 288,
          "midi": 61,
          "name": "C#4",
          "ticks": 200256,
          "time": 195.5625,
          "velocity": 0.3937007874015748
        },
        {
          "duration": 0.28125,
          "durationTicks": 288,
          "midi": 65,
          "name": "F4",
          "ticks": 200352,
          "time": 195.65625,
          "velocity": 0.3937007874015748
        },
        {
          "duration": 0.28125,
          "durationTicks": 288,
          "midi": 70,
          "name": "A#4",
          "ticks": 200448,
          "time": 195.75,
          "velocity": 0.3937007874015748
        },
        {
          "duration": 0.28125,
          "durationTicks": 288,
          "midi": 65,
          "name": "F4",
          "ticks": 200544,
          "time": 195.84375,
          "velocity": 0.3937007874015748
        },
        {
          "duration": 0.28125,
          "durationTicks": 288,
          "midi": 61,
          "name": "C#4",
          "ticks": 200640,
          "time": 195.9375,
          "velocity": 0.3937007874015748
        },
        {
          "duration": 0.28125,
          "durationTicks": 288,
          "midi": 58,
          "name": "A#3",
          "ticks": 200736,
          "time": 196.03125,
          "velocity": 0.3937007874015748
        },
        {
          "duration": 0.28125,
          "durationTicks": 288,
          "midi": 53,
          "name": "F3",
          "ticks": 200832,
          "time": 196.125,
          "velocity": 0.3937007874015748
        },
        {
          "duration": 0.28125,
          "durationTicks": 288,
          "midi": 49,
          "name": "C#3",
          "ticks": 200928,
          "time": 196.21875,
          "velocity": 0.3937007874015748
        },
        {
          "duration": 0.28125,
          "durationTicks": 288,
          "midi": 46,
          "name": "A#2",
          "ticks": 201024,
          "time": 196.3125,
          "velocity": 0.3937007874015748
        },
        {
          "duration": 0.28125,
          "durationTicks": 288,
          "midi": 41,
          "name": "F2",
          "ticks": 201120,
          "time": 196.40625,
          "velocity": 0.3937007874015748
        },
        {
          "duration": 0.28125,
          "durationTicks": 288,
          "midi": 36,
          "name": "C2",
          "ticks": 201216,
          "time": 196.5,
          "velocity": 0.3937007874015748
        },
        {
          "duration": 0.28125,
          "durationTicks": 288,
          "midi": 40,
          "name": "E2",
          "ticks": 201312,
          "time": 196.59375,
          "velocity": 0.3937007874015748
        },
        {
          "duration": 0.28125,
          "durationTicks": 288,
          "midi": 43,
          "name": "G2",
          "ticks": 201408,
          "time": 196.6875,
          "velocity": 0.3937007874015748
        },
        {
          "duration": 0.28125,
          "durationTicks": 288,
          "midi": 48,
          "name": "C3",
          "ticks": 201504,
          "time": 196.78125,
          "velocity": 0.3937007874015748
        },
        {
          "duration": 0.28125,
          "durationTicks": 288,
          "midi": 52,
          "name": "E3",
          "ticks": 201600,
          "time": 196.875,
          "velocity": 0.3937007874015748
        },
        {
          "duration": 0.28125,
          "durationTicks": 288,
          "midi": 55,
          "name": "G3",
          "ticks": 201696,
          "time": 196.96875,
          "velocity": 0.3937007874015748
        },
        {
          "duration": 0.28125,
          "durationTicks": 288,
          "midi": 60,
          "name": "C4",
          "ticks": 201792,
          "time": 197.0625,
          "velocity": 0.3937007874015748
        },
        {
          "duration": 0.28125,
          "durationTicks": 288,
          "midi": 64,
          "name": "E4",
          "ticks": 201888,
          "time": 197.15625,
          "velocity": 0.3937007874015748
        },
        {
          "duration": 0.28125,
          "durationTicks": 288,
          "midi": 67,
          "name": "G4",
          "ticks": 201984,
          "time": 197.25,
          "velocity": 0.3937007874015748
        },
        {
          "duration": 0.28125,
          "durationTicks": 288,
          "midi": 64,
          "name": "E4",
          "ticks": 202080,
          "time": 197.34375,
          "velocity": 0.3937007874015748
        },
        {
          "duration": 0.28125,
          "durationTicks": 288,
          "midi": 60,
          "name": "C4",
          "ticks": 202176,
          "time": 197.4375,
          "velocity": 0.3937007874015748
        },
        {
          "duration": 0.28125,
          "durationTicks": 288,
          "midi": 55,
          "name": "G3",
          "ticks": 202272,
          "time": 197.53125,
          "velocity": 0.3937007874015748
        },
        {
          "duration": 0.28125,
          "durationTicks": 288,
          "midi": 52,
          "name": "E3",
          "ticks": 202368,
          "time": 197.625,
          "velocity": 0.3937007874015748
        },
        {
          "duration": 0.28125,
          "durationTicks": 288,
          "midi": 48,
          "name": "C3",
          "ticks": 202464,
          "time": 197.71875,
          "velocity": 0.3937007874015748
        },
        {
          "duration": 0.28125,
          "durationTicks": 288,
          "midi": 43,
          "name": "G2",
          "ticks": 202560,
          "time": 197.8125,
          "velocity": 0.3937007874015748
        },
        {
          "duration": 0.28125,
          "durationTicks": 288,
          "midi": 40,
          "name": "E2",
          "ticks": 202656,
          "time": 197.90625,
          "velocity": 0.3937007874015748
        },
        {
          "duration": 0.28125,
          "durationTicks": 288,
          "midi": 40,
          "name": "E2",
          "ticks": 202656,
          "time": 197.90625,
          "velocity": 0.3937007874015748
        },
        {
          "duration": 0.28125,
          "durationTicks": 288,
          "midi": 42,
          "name": "F#2",
          "ticks": 202752,
          "time": 198,
          "velocity": 0.3937007874015748
        },
        {
          "duration": 0.28125,
          "durationTicks": 288,
          "midi": 46,
          "name": "A#2",
          "ticks": 202848,
          "time": 198.09375,
          "velocity": 0.3937007874015748
        },
        {
          "duration": 0.28125,
          "durationTicks": 288,
          "midi": 49,
          "name": "C#3",
          "ticks": 202944,
          "time": 198.1875,
          "velocity": 0.3937007874015748
        },
        {
          "duration": 0.28125,
          "durationTicks": 288,
          "midi": 54,
          "name": "F#3",
          "ticks": 203040,
          "time": 198.28125,
          "velocity": 0.3937007874015748
        },
        {
          "duration": 0.28125,
          "durationTicks": 288,
          "midi": 58,
          "name": "A#3",
          "ticks": 203136,
          "time": 198.375,
          "velocity": 0.3937007874015748
        },
        {
          "duration": 0.28125,
          "durationTicks": 288,
          "midi": 61,
          "name": "C#4",
          "ticks": 203232,
          "time": 198.46875,
          "velocity": 0.3937007874015748
        },
        {
          "duration": 0.28125,
          "durationTicks": 288,
          "midi": 66,
          "name": "F#4",
          "ticks": 203328,
          "time": 198.5625,
          "velocity": 0.3937007874015748
        },
        {
          "duration": 0.28125,
          "durationTicks": 288,
          "midi": 70,
          "name": "A#4",
          "ticks": 203424,
          "time": 198.65625,
          "velocity": 0.3937007874015748
        },
        {
          "duration": 0.28125,
          "durationTicks": 288,
          "midi": 73,
          "name": "C#5",
          "ticks": 203520,
          "time": 198.75,
          "velocity": 0.3937007874015748
        },
        {
          "duration": 0.28125,
          "durationTicks": 288,
          "midi": 70,
          "name": "A#4",
          "ticks": 203616,
          "time": 198.84375,
          "velocity": 0.3937007874015748
        },
        {
          "duration": 0.28125,
          "durationTicks": 288,
          "midi": 66,
          "name": "F#4",
          "ticks": 203712,
          "time": 198.9375,
          "velocity": 0.3937007874015748
        },
        {
          "duration": 0.28125,
          "durationTicks": 288,
          "midi": 61,
          "name": "C#4",
          "ticks": 203808,
          "time": 199.03125,
          "velocity": 0.3937007874015748
        },
        {
          "duration": 0.28125,
          "durationTicks": 288,
          "midi": 58,
          "name": "A#3",
          "ticks": 203904,
          "time": 199.125,
          "velocity": 0.3937007874015748
        },
        {
          "duration": 0.28125,
          "durationTicks": 288,
          "midi": 54,
          "name": "F#3",
          "ticks": 204000,
          "time": 199.21875,
          "velocity": 0.3937007874015748
        },
        {
          "duration": 0.28125,
          "durationTicks": 288,
          "midi": 49,
          "name": "C#3",
          "ticks": 204096,
          "time": 199.3125,
          "velocity": 0.3937007874015748
        },
        {
          "duration": 0.28125,
          "durationTicks": 288,
          "midi": 46,
          "name": "A#2",
          "ticks": 204192,
          "time": 199.40625,
          "velocity": 0.3937007874015748
        },
        {
          "duration": 0.28125,
          "durationTicks": 288,
          "midi": 40,
          "name": "E2",
          "ticks": 204288,
          "time": 199.5,
          "velocity": 0.3937007874015748
        },
        {
          "duration": 0.28125,
          "durationTicks": 288,
          "midi": 43,
          "name": "G2",
          "ticks": 204384,
          "time": 199.59375,
          "velocity": 0.3937007874015748
        },
        {
          "duration": 0.28125,
          "durationTicks": 288,
          "midi": 48,
          "name": "C3",
          "ticks": 204480,
          "time": 199.6875,
          "velocity": 0.3937007874015748
        },
        {
          "duration": 0.28125,
          "durationTicks": 288,
          "midi": 52,
          "name": "E3",
          "ticks": 204576,
          "time": 199.78125,
          "velocity": 0.3937007874015748
        },
        {
          "duration": 0.28125,
          "durationTicks": 288,
          "midi": 55,
          "name": "G3",
          "ticks": 204672,
          "time": 199.875,
          "velocity": 0.3937007874015748
        },
        {
          "duration": 0.28125,
          "durationTicks": 288,
          "midi": 60,
          "name": "C4",
          "ticks": 204768,
          "time": 199.96875,
          "velocity": 0.3937007874015748
        },
        {
          "duration": 0.28125,
          "durationTicks": 288,
          "midi": 64,
          "name": "E4",
          "ticks": 204864,
          "time": 200.0625,
          "velocity": 0.3937007874015748
        },
        {
          "duration": 0.28125,
          "durationTicks": 288,
          "midi": 67,
          "name": "G4",
          "ticks": 204960,
          "time": 200.15625,
          "velocity": 0.3937007874015748
        },
        {
          "duration": 0.28125,
          "durationTicks": 288,
          "midi": 72,
          "name": "C5",
          "ticks": 205056,
          "time": 200.25,
          "velocity": 0.3937007874015748
        },
        {
          "duration": 0.28125,
          "durationTicks": 288,
          "midi": 67,
          "name": "G4",
          "ticks": 205152,
          "time": 200.34375,
          "velocity": 0.3937007874015748
        },
        {
          "duration": 0.28125,
          "durationTicks": 288,
          "midi": 64,
          "name": "E4",
          "ticks": 205248,
          "time": 200.4375,
          "velocity": 0.3937007874015748
        },
        {
          "duration": 0.28125,
          "durationTicks": 288,
          "midi": 60,
          "name": "C4",
          "ticks": 205344,
          "time": 200.53125,
          "velocity": 0.3937007874015748
        },
        {
          "duration": 0.28125,
          "durationTicks": 288,
          "midi": 55,
          "name": "G3",
          "ticks": 205440,
          "time": 200.625,
          "velocity": 0.3937007874015748
        },
        {
          "duration": 0.28125,
          "durationTicks": 288,
          "midi": 52,
          "name": "E3",
          "ticks": 205536,
          "time": 200.71875,
          "velocity": 0.3937007874015748
        },
        {
          "duration": 0.28125,
          "durationTicks": 288,
          "midi": 48,
          "name": "C3",
          "ticks": 205632,
          "time": 200.8125,
          "velocity": 0.3937007874015748
        },
        {
          "duration": 0.28125,
          "durationTicks": 288,
          "midi": 43,
          "name": "G2",
          "ticks": 205728,
          "time": 200.90625,
          "velocity": 0.3937007874015748
        },
        {
          "duration": 0.28125,
          "durationTicks": 288,
          "midi": 41,
          "name": "F2",
          "ticks": 205824,
          "time": 201,
          "velocity": 0.3937007874015748
        },
        {
          "duration": 0.28125,
          "durationTicks": 288,
          "midi": 44,
          "name": "G#2",
          "ticks": 205920,
          "time": 201.09375,
          "velocity": 0.3937007874015748
        },
        {
          "duration": 0.28125,
          "durationTicks": 288,
          "midi": 48,
          "name": "C3",
          "ticks": 206016,
          "time": 201.1875,
          "velocity": 0.3937007874015748
        },
        {
          "duration": 0.28125,
          "durationTicks": 288,
          "midi": 53,
          "name": "F3",
          "ticks": 206112,
          "time": 201.28125,
          "velocity": 0.3937007874015748
        },
        {
          "duration": 0.28125,
          "durationTicks": 288,
          "midi": 56,
          "name": "G#3",
          "ticks": 206208,
          "time": 201.375,
          "velocity": 0.3937007874015748
        },
        {
          "duration": 0.28125,
          "durationTicks": 288,
          "midi": 60,
          "name": "C4",
          "ticks": 206304,
          "time": 201.46875,
          "velocity": 0.3937007874015748
        },
        {
          "duration": 0.28125,
          "durationTicks": 288,
          "midi": 65,
          "name": "F4",
          "ticks": 206400,
          "time": 201.5625,
          "velocity": 0.3937007874015748
        },
        {
          "duration": 0.28125,
          "durationTicks": 288,
          "midi": 68,
          "name": "G#4",
          "ticks": 206496,
          "time": 201.65625,
          "velocity": 0.3937007874015748
        },
        {
          "duration": 0.28125,
          "durationTicks": 288,
          "midi": 72,
          "name": "C5",
          "ticks": 206592,
          "time": 201.75,
          "velocity": 0.3937007874015748
        },
        {
          "duration": 0.28125,
          "durationTicks": 288,
          "midi": 68,
          "name": "G#4",
          "ticks": 206688,
          "time": 201.84375,
          "velocity": 0.3937007874015748
        },
        {
          "duration": 0.28125,
          "durationTicks": 288,
          "midi": 65,
          "name": "F4",
          "ticks": 206784,
          "time": 201.9375,
          "velocity": 0.3937007874015748
        },
        {
          "duration": 0.28125,
          "durationTicks": 288,
          "midi": 60,
          "name": "C4",
          "ticks": 206880,
          "time": 202.03125,
          "velocity": 0.3937007874015748
        },
        {
          "duration": 0.28125,
          "durationTicks": 288,
          "midi": 56,
          "name": "G#3",
          "ticks": 206976,
          "time": 202.125,
          "velocity": 0.3937007874015748
        },
        {
          "duration": 0.28125,
          "durationTicks": 288,
          "midi": 53,
          "name": "F3",
          "ticks": 207072,
          "time": 202.21875,
          "velocity": 0.3937007874015748
        },
        {
          "duration": 0.28125,
          "durationTicks": 288,
          "midi": 48,
          "name": "C3",
          "ticks": 207168,
          "time": 202.3125,
          "velocity": 0.3937007874015748
        },
        {
          "duration": 0.28125,
          "durationTicks": 288,
          "midi": 44,
          "name": "G#2",
          "ticks": 207264,
          "time": 202.40625,
          "velocity": 0.3937007874015748
        },
        {
          "duration": 0.28125,
          "durationTicks": 288,
          "midi": 40,
          "name": "E2",
          "ticks": 207360,
          "time": 202.5,
          "velocity": 0.3937007874015748
        },
        {
          "duration": 0.28125,
          "durationTicks": 288,
          "midi": 43,
          "name": "G2",
          "ticks": 207456,
          "time": 202.59375,
          "velocity": 0.3937007874015748
        },
        {
          "duration": 0.28125,
          "durationTicks": 288,
          "midi": 48,
          "name": "C3",
          "ticks": 207552,
          "time": 202.6875,
          "velocity": 0.3937007874015748
        },
        {
          "duration": 0.28125,
          "durationTicks": 288,
          "midi": 52,
          "name": "E3",
          "ticks": 207648,
          "time": 202.78125,
          "velocity": 0.3937007874015748
        },
        {
          "duration": 0.28125,
          "durationTicks": 288,
          "midi": 55,
          "name": "G3",
          "ticks": 207744,
          "time": 202.875,
          "velocity": 0.3937007874015748
        },
        {
          "duration": 0.28125,
          "durationTicks": 288,
          "midi": 60,
          "name": "C4",
          "ticks": 207840,
          "time": 202.96875,
          "velocity": 0.3937007874015748
        },
        {
          "duration": 0.28125,
          "durationTicks": 288,
          "midi": 64,
          "name": "E4",
          "ticks": 207936,
          "time": 203.0625,
          "velocity": 0.3937007874015748
        },
        {
          "duration": 0.28125,
          "durationTicks": 288,
          "midi": 67,
          "name": "G4",
          "ticks": 208032,
          "time": 203.15625,
          "velocity": 0.3937007874015748
        },
        {
          "duration": 0.28125,
          "durationTicks": 288,
          "midi": 72,
          "name": "C5",
          "ticks": 208128,
          "time": 203.25,
          "velocity": 0.3937007874015748
        },
        {
          "duration": 0.28125,
          "durationTicks": 288,
          "midi": 67,
          "name": "G4",
          "ticks": 208224,
          "time": 203.34375,
          "velocity": 0.3937007874015748
        },
        {
          "duration": 0.28125,
          "durationTicks": 288,
          "midi": 64,
          "name": "E4",
          "ticks": 208320,
          "time": 203.4375,
          "velocity": 0.3937007874015748
        },
        {
          "duration": 0.28125,
          "durationTicks": 288,
          "midi": 60,
          "name": "C4",
          "ticks": 208416,
          "time": 203.53125,
          "velocity": 0.3937007874015748
        },
        {
          "duration": 0.28125,
          "durationTicks": 288,
          "midi": 55,
          "name": "G3",
          "ticks": 208512,
          "time": 203.625,
          "velocity": 0.3937007874015748
        },
        {
          "duration": 0.28125,
          "durationTicks": 288,
          "midi": 52,
          "name": "E3",
          "ticks": 208608,
          "time": 203.71875,
          "velocity": 0.3937007874015748
        },
        {
          "duration": 0.28125,
          "durationTicks": 288,
          "midi": 48,
          "name": "C3",
          "ticks": 208704,
          "time": 203.8125,
          "velocity": 0.3937007874015748
        },
        {
          "duration": 0.28125,
          "durationTicks": 288,
          "midi": 43,
          "name": "G2",
          "ticks": 208800,
          "time": 203.90625,
          "velocity": 0.3937007874015748
        },
        {
          "duration": 0.28125,
          "durationTicks": 288,
          "midi": 39,
          "name": "D#2",
          "ticks": 208896,
          "time": 204,
          "velocity": 0.3937007874015748
        },
        {
          "duration": 0.28125,
          "durationTicks": 288,
          "midi": 43,
          "name": "G2",
          "ticks": 208992,
          "time": 204.09375,
          "velocity": 0.3937007874015748
        },
        {
          "duration": 0.28125,
          "durationTicks": 288,
          "midi": 48,
          "name": "C3",
          "ticks": 209088,
          "time": 204.1875,
          "velocity": 0.3937007874015748
        },
        {
          "duration": 0.28125,
          "durationTicks": 288,
          "midi": 51,
          "name": "D#3",
          "ticks": 209184,
          "time": 204.28125,
          "velocity": 0.3937007874015748
        },
        {
          "duration": 0.28125,
          "durationTicks": 288,
          "midi": 55,
          "name": "G3",
          "ticks": 209280,
          "time": 204.375,
          "velocity": 0.3937007874015748
        },
        {
          "duration": 0.28125,
          "durationTicks": 288,
          "midi": 60,
          "name": "C4",
          "ticks": 209376,
          "time": 204.46875,
          "velocity": 0.3937007874015748
        },
        {
          "duration": 0.28125,
          "durationTicks": 288,
          "midi": 63,
          "name": "D#4",
          "ticks": 209472,
          "time": 204.5625,
          "velocity": 0.3937007874015748
        },
        {
          "duration": 0.28125,
          "durationTicks": 288,
          "midi": 67,
          "name": "G4",
          "ticks": 209568,
          "time": 204.65625,
          "velocity": 0.3937007874015748
        },
        {
          "duration": 0.28125,
          "durationTicks": 288,
          "midi": 72,
          "name": "C5",
          "ticks": 209664,
          "time": 204.75,
          "velocity": 0.3937007874015748
        },
        {
          "duration": 0.28125,
          "durationTicks": 288,
          "midi": 67,
          "name": "G4",
          "ticks": 209760,
          "time": 204.84375,
          "velocity": 0.3937007874015748
        },
        {
          "duration": 0.28125,
          "durationTicks": 288,
          "midi": 63,
          "name": "D#4",
          "ticks": 209856,
          "time": 204.9375,
          "velocity": 0.3937007874015748
        },
        {
          "duration": 0.28125,
          "durationTicks": 288,
          "midi": 60,
          "name": "C4",
          "ticks": 209952,
          "time": 205.03125,
          "velocity": 0.3937007874015748
        },
        {
          "duration": 0.28125,
          "durationTicks": 288,
          "midi": 55,
          "name": "G3",
          "ticks": 210048,
          "time": 205.125,
          "velocity": 0.3937007874015748
        },
        {
          "duration": 0.28125,
          "durationTicks": 288,
          "midi": 51,
          "name": "D#3",
          "ticks": 210144,
          "time": 205.21875,
          "velocity": 0.3937007874015748
        },
        {
          "duration": 0.28125,
          "durationTicks": 288,
          "midi": 48,
          "name": "C3",
          "ticks": 210240,
          "time": 205.3125,
          "velocity": 0.3937007874015748
        },
        {
          "duration": 0.28125,
          "durationTicks": 288,
          "midi": 43,
          "name": "G2",
          "ticks": 210336,
          "time": 205.40625,
          "velocity": 0.3937007874015748
        },
        {
          "duration": 0.28125,
          "durationTicks": 288,
          "midi": 38,
          "name": "D2",
          "ticks": 210432,
          "time": 205.5,
          "velocity": 0.3937007874015748
        },
        {
          "duration": 0.28125,
          "durationTicks": 288,
          "midi": 43,
          "name": "G2",
          "ticks": 210528,
          "time": 205.59375,
          "velocity": 0.3937007874015748
        },
        {
          "duration": 0.28125,
          "durationTicks": 288,
          "midi": 47,
          "name": "B2",
          "ticks": 210624,
          "time": 205.6875,
          "velocity": 0.3937007874015748
        },
        {
          "duration": 0.28125,
          "durationTicks": 288,
          "midi": 50,
          "name": "D3",
          "ticks": 210720,
          "time": 205.78125,
          "velocity": 0.3937007874015748
        },
        {
          "duration": 0.28125,
          "durationTicks": 288,
          "midi": 55,
          "name": "G3",
          "ticks": 210816,
          "time": 205.875,
          "velocity": 0.3937007874015748
        },
        {
          "duration": 0.28125,
          "durationTicks": 288,
          "midi": 59,
          "name": "B3",
          "ticks": 210912,
          "time": 205.96875,
          "velocity": 0.3937007874015748
        },
        {
          "duration": 0.28125,
          "durationTicks": 288,
          "midi": 62,
          "name": "D4",
          "ticks": 211008,
          "time": 206.0625,
          "velocity": 0.3937007874015748
        },
        {
          "duration": 0.28125,
          "durationTicks": 288,
          "midi": 67,
          "name": "G4",
          "ticks": 211104,
          "time": 206.15625,
          "velocity": 0.3937007874015748
        },
        {
          "duration": 0.28125,
          "durationTicks": 288,
          "midi": 71,
          "name": "B4",
          "ticks": 211200,
          "time": 206.25,
          "velocity": 0.3937007874015748
        },
        {
          "duration": 0.28125,
          "durationTicks": 288,
          "midi": 67,
          "name": "G4",
          "ticks": 211296,
          "time": 206.34375,
          "velocity": 0.3937007874015748
        },
        {
          "duration": 0.28125,
          "durationTicks": 288,
          "midi": 62,
          "name": "D4",
          "ticks": 211392,
          "time": 206.4375,
          "velocity": 0.3937007874015748
        },
        {
          "duration": 0.28125,
          "durationTicks": 288,
          "midi": 59,
          "name": "B3",
          "ticks": 211488,
          "time": 206.53125,
          "velocity": 0.3937007874015748
        },
        {
          "duration": 0.28125,
          "durationTicks": 288,
          "midi": 55,
          "name": "G3",
          "ticks": 211584,
          "time": 206.625,
          "velocity": 0.3937007874015748
        },
        {
          "duration": 0.28125,
          "durationTicks": 288,
          "midi": 50,
          "name": "D3",
          "ticks": 211680,
          "time": 206.71875,
          "velocity": 0.3937007874015748
        },
        {
          "duration": 0.28125,
          "durationTicks": 288,
          "midi": 47,
          "name": "B2",
          "ticks": 211776,
          "time": 206.8125,
          "velocity": 0.3937007874015748
        },
        {
          "duration": 0.28125,
          "durationTicks": 288,
          "midi": 43,
          "name": "G2",
          "ticks": 211872,
          "time": 206.90625,
          "velocity": 0.3937007874015748
        },
        {
          "duration": 0.28125,
          "durationTicks": 288,
          "midi": 37,
          "name": "C#2",
          "ticks": 211968,
          "time": 207,
          "velocity": 0.3937007874015748
        },
        {
          "duration": 0.28125,
          "durationTicks": 288,
          "midi": 41,
          "name": "F2",
          "ticks": 212064,
          "time": 207.09375,
          "velocity": 0.3937007874015748
        },
        {
          "duration": 0.28125,
          "durationTicks": 288,
          "midi": 46,
          "name": "A#2",
          "ticks": 212160,
          "time": 207.1875,
          "velocity": 0.3937007874015748
        },
        {
          "duration": 0.28125,
          "durationTicks": 288,
          "midi": 49,
          "name": "C#3",
          "ticks": 212256,
          "time": 207.28125,
          "velocity": 0.3937007874015748
        },
        {
          "duration": 0.28125,
          "durationTicks": 288,
          "midi": 58,
          "name": "A#3",
          "ticks": 212448,
          "time": 207.46875,
          "velocity": 0.3937007874015748
        },
        {
          "duration": 0.28125,
          "durationTicks": 288,
          "midi": 61,
          "name": "C#4",
          "ticks": 212544,
          "time": 207.5625,
          "velocity": 0.3937007874015748
        },
        {
          "duration": 0.28125,
          "durationTicks": 288,
          "midi": 65,
          "name": "F4",
          "ticks": 212640,
          "time": 207.65625,
          "velocity": 0.3937007874015748
        },
        {
          "duration": 0.28125,
          "durationTicks": 288,
          "midi": 70,
          "name": "A#4",
          "ticks": 212736,
          "time": 207.75,
          "velocity": 0.3937007874015748
        },
        {
          "duration": 0.28125,
          "durationTicks": 288,
          "midi": 65,
          "name": "F4",
          "ticks": 212832,
          "time": 207.84375,
          "velocity": 0.3937007874015748
        },
        {
          "duration": 0.28125,
          "durationTicks": 288,
          "midi": 61,
          "name": "C#4",
          "ticks": 212928,
          "time": 207.9375,
          "velocity": 0.3937007874015748
        },
        {
          "duration": 0.28125,
          "durationTicks": 288,
          "midi": 58,
          "name": "A#3",
          "ticks": 213024,
          "time": 208.03125,
          "velocity": 0.3937007874015748
        },
        {
          "duration": 0.28125,
          "durationTicks": 288,
          "midi": 53,
          "name": "F3",
          "ticks": 213120,
          "time": 208.125,
          "velocity": 0.3937007874015748
        },
        {
          "duration": 0.28125,
          "durationTicks": 288,
          "midi": 49,
          "name": "C#3",
          "ticks": 213216,
          "time": 208.21875,
          "velocity": 0.3937007874015748
        },
        {
          "duration": 0.28125,
          "durationTicks": 288,
          "midi": 46,
          "name": "A#2",
          "ticks": 213312,
          "time": 208.3125,
          "velocity": 0.3937007874015748
        },
        {
          "duration": 0.28125,
          "durationTicks": 288,
          "midi": 41,
          "name": "F2",
          "ticks": 213408,
          "time": 208.40625,
          "velocity": 0.3937007874015748
        },
        {
          "duration": 0.28125,
          "durationTicks": 288,
          "midi": 40,
          "name": "E2",
          "ticks": 213504,
          "time": 208.5,
          "velocity": 0.3937007874015748
        },
        {
          "duration": 0.28125,
          "durationTicks": 288,
          "midi": 43,
          "name": "G2",
          "ticks": 213600,
          "time": 208.59375,
          "velocity": 0.3937007874015748
        },
        {
          "duration": 0.28125,
          "durationTicks": 288,
          "midi": 48,
          "name": "C3",
          "ticks": 213696,
          "time": 208.6875,
          "velocity": 0.3937007874015748
        },
        {
          "duration": 0.28125,
          "durationTicks": 288,
          "midi": 52,
          "name": "E3",
          "ticks": 213792,
          "time": 208.78125,
          "velocity": 0.3937007874015748
        },
        {
          "duration": 0.28125,
          "durationTicks": 288,
          "midi": 55,
          "name": "G3",
          "ticks": 213888,
          "time": 208.875,
          "velocity": 0.3937007874015748
        },
        {
          "duration": 0.28125,
          "durationTicks": 288,
          "midi": 60,
          "name": "C4",
          "ticks": 213984,
          "time": 208.96875,
          "velocity": 0.3937007874015748
        },
        {
          "duration": 0.28125,
          "durationTicks": 288,
          "midi": 67,
          "name": "G4",
          "ticks": 214176,
          "time": 209.15625,
          "velocity": 0.3937007874015748
        },
        {
          "duration": 0.28125,
          "durationTicks": 288,
          "midi": 72,
          "name": "C5",
          "ticks": 214272,
          "time": 209.25,
          "velocity": 0.3937007874015748
        },
        {
          "duration": 0.28125,
          "durationTicks": 288,
          "midi": 67,
          "name": "G4",
          "ticks": 214368,
          "time": 209.34375,
          "velocity": 0.3937007874015748
        },
        {
          "duration": 0.28125,
          "durationTicks": 288,
          "midi": 64,
          "name": "E4",
          "ticks": 214464,
          "time": 209.4375,
          "velocity": 0.3937007874015748
        },
        {
          "duration": 0.28125,
          "durationTicks": 288,
          "midi": 60,
          "name": "C4",
          "ticks": 214560,
          "time": 209.53125,
          "velocity": 0.3937007874015748
        },
        {
          "duration": 0.28125,
          "durationTicks": 288,
          "midi": 55,
          "name": "G3",
          "ticks": 214656,
          "time": 209.625,
          "velocity": 0.3937007874015748
        },
        {
          "duration": 0.28125,
          "durationTicks": 288,
          "midi": 52,
          "name": "E3",
          "ticks": 214752,
          "time": 209.71875,
          "velocity": 0.3937007874015748
        },
        {
          "duration": 0.28125,
          "durationTicks": 288,
          "midi": 48,
          "name": "C3",
          "ticks": 214848,
          "time": 209.8125,
          "velocity": 0.3937007874015748
        },
        {
          "duration": 0.28125,
          "durationTicks": 288,
          "midi": 43,
          "name": "G2",
          "ticks": 214944,
          "time": 209.90625,
          "velocity": 0.3937007874015748
        }
      ],
      "endOfTrackTicks": 215232
    }
  ]
}