{
  "header": {
    "keySignatures": [],
    "meta": [],
    "name": "",
    "ppq": 384,
    "tempos": [
      {
        "bpm": 80,
        "ticks": 0
      }
    ],
    "timeSignatures": [
      {
        "ticks": 0,
        "timeSignature": [
          1,
          4
        ],
        "measures": 0
      }
    ]
  },
  "tracks": [
    {
      "channel": 0,
      "controlChanges": {},
      "pitchBends": [],
      "instrument": {
        "family": "piano",
        "number": 0,
        "name": "acoustic grand piano"
      },
      "name": "Grand Piano (Classic)",
      "notes": [
        {
          "duration": 0.1875,
          "durationTicks": 96,
          "midi": 75,
          "name": "D#5",
          "ticks": 0,
          "time": 0,
          "velocity": 0.3937007874015748
        },
        {
          "duration": 0.1875,
          "durationTicks": 96,
          "midi": 68,
          "name": "G#4",
          "ticks": 0,
          "time": 0,
          "velocity": 0.3937007874015748
        },
        {
          "duration": 0.1875,
          "durationTicks": 96,
          "midi": 71,
          "name": "B4",
          "ticks": 0,
          "time": 0,
          "velocity": 0.3937007874015748
        },
        {
          "duration": 0.1875,
          "durationTicks": 96,
          "midi": 68,
          "name": "G#4",
          "ticks": 384,
          "time": 0.75,
          "velocity": 0.3937007874015748
        },
        {
          "duration": 0.1875,
          "durationTicks": 96,
          "midi": 75,
          "name": "D#5",
          "ticks": 384,
          "time": 0.75,
          "velocity": 0.3937007874015748
        },
        {
          "duration": 0.1875,
          "durationTicks": 96,
          "midi": 71,
          "name": "B4",
          "ticks": 384,
          "time": 0.75,
          "velocity": 0.3937007874015748
        },
        {
          "duration": 0.1875,
          "durationTicks": 96,
          "midi": 75,
          "name": "D#5",
          "ticks": 768,
          "time": 1.5,
          "velocity": 0.3937007874015748
        },
        {
          "duration": 0.1875,
          "durationTicks": 96,
          "midi": 68,
          "name": "G#4",
          "ticks": 768,
          "time": 1.5,
          "velocity": 0.3937007874015748
        },
        {
          "duration": 0.1875,
          "durationTicks": 96,
          "midi": 70,
          "name": "A#4",
          "ticks": 768,
          "time": 1.5,
          "velocity": 0.3937007874015748
        },
        {
          "duration": 0.1875,
          "durationTicks": 96,
          "midi": 68,
          "name": "G#4",
          "ticks": 1152,
          "time": 2.25,
          "velocity": 0.3937007874015748
        },
        {
          "duration": 0.1875,
          "durationTicks": 96,
          "midi": 75,
          "name": "D#5",
          "ticks": 1152,
          "time": 2.25,
          "velocity": 0.3937007874015748
        },
        {
          "duration": 0.1875,
          "durationTicks": 96,
          "midi": 70,
          "name": "A#4",
          "ticks": 1152,
          "time": 2.25,
          "velocity": 0.3937007874015748
        },
        {
          "duration": 0.1875,
          "durationTicks": 96,
          "midi": 75,
          "name": "D#5",
          "ticks": 1536,
          "time": 3,
          "velocity": 0.3937007874015748
        },
        {
          "duration": 0.1875,
          "durationTicks": 96,
          "midi": 68,
          "name": "G#4",
          "ticks": 1536,
          "time": 3,
          "velocity": 0.3937007874015748
        },
        {
          "duration": 0.1875,
          "durationTicks": 96,
          "midi": 71,
          "name": "B4",
          "ticks": 1536,
          "time": 3,
          "velocity": 0.3937007874015748
        },
        {
          "duration": 0.1875,
          "durationTicks": 96,
          "midi": 68,
          "name": "G#4",
          "ticks": 1920,
          "time": 3.75,
          "velocity": 0.3937007874015748
        },
        {
          "duration": 0.1875,
          "durationTicks": 96,
          "midi": 70,
          "name": "A#4",
          "ticks": 1920,
          "time": 3.75,
          "velocity": 0.3937007874015748
        },
        {
          "duration": 0.1875,
          "durationTicks": 96,
          "midi": 75,
          "name": "D#5",
          "ticks": 1920,
          "time": 3.75,
          "velocity": 0.3937007874015748
        },
        {
          "duration": 0.1875,
          "durationTicks": 96,
          "midi": 71,
          "name": "B4",
          "ticks": 3072,
          "time": 6,
          "velocity": 0.3937007874015748
        },
        {
          "duration": 0.1875,
          "durationTicks": 96,
          "midi": 75,
          "name": "D#5",
          "ticks": 3072,
          "time": 6,
          "velocity": 0.3937007874015748
        },
        {
          "duration": 0.1875,
          "durationTicks": 96,
          "midi": 68,
          "name": "G#4",
          "ticks": 3072,
          "time": 6,
          "velocity": 0.3937007874015748
        },
        {
          "duration": 0.1875,
          "durationTicks": 96,
          "midi": 68,
          "name": "G#4",
          "ticks": 3456,
          "time": 6.75,
          "velocity": 0.3937007874015748
        },
        {
          "duration": 0.1875,
          "durationTicks": 96,
          "midi": 71,
          "name": "B4",
          "ticks": 3456,
          "time": 6.75,
          "velocity": 0.3937007874015748
        },
        {
          "duration": 0.1875,
          "durationTicks": 96,
          "midi": 75,
          "name": "D#5",
          "ticks": 3456,
          "time": 6.75,
          "velocity": 0.3937007874015748
        },
        {
          "duration": 0.1875,
          "durationTicks": 96,
          "midi": 67,
          "name": "G4",
          "ticks": 3840,
          "time": 7.5,
          "velocity": 0.3937007874015748
        },
        {
          "duration": 0.1875,
          "durationTicks": 96,
          "midi": 70,
          "name": "A#4",
          "ticks": 3840,
          "time": 7.5,
          "velocity": 0.3937007874015748
        },
        {
          "duration": 0.1875,
          "durationTicks": 96,
          "midi": 75,
          "name": "D#5",
          "ticks": 3840,
          "time": 7.5,
          "velocity": 0.3937007874015748
        },
        {
          "duration": 0.1875,
          "durationTicks": 96,
          "midi": 70,
          "name": "A#4",
          "ticks": 4224,
          "time": 8.25,
          "velocity": 0.3937007874015748
        },
        {
          "duration": 0.1875,
          "durationTicks": 96,
          "midi": 67,
          "name": "G4",
          "ticks": 4224,
          "time": 8.25,
          "velocity": 0.3937007874015748
        },
        {
          "duration": 0.1875,
          "durationTicks": 96,
          "midi": 75,
          "name": "D#5",
          "ticks": 4224,
          "time": 8.25,
          "velocity": 0.3937007874015748
        },
        {
          "duration": 0.1875,
          "durationTicks": 96,
          "midi": 75,
          "name": "D#5",
          "ticks": 4608,
          "time": 9,
          "velocity": 0.3937007874015748
        },
        {
          "duration": 0.1875,
          "durationTicks": 96,
          "midi": 68,
          "name": "G#4",
          "ticks": 4608,
          "time": 9,
          "velocity": 0.3937007874015748
        },
        {
          "duration": 0.1875,
          "durationTicks": 96,
          "midi": 71,
          "name": "B4",
          "ticks": 4608,
          "time": 9,
          "velocity": 0.3937007874015748
        },
        {
          "duration": 0.1875,
          "durationTicks": 96,
          "midi": 67,
          "name": "G4",
          "ticks": 4992,
          "time": 9.75,
          "velocity": 0.3937007874015748
        },
        {
          "duration": 0.1875,
          "durationTicks": 96,
          "midi": 70,
          "name": "A#4",
          "ticks": 4992,
          "time": 9.75,
          "velocity": 0.3937007874015748
        },
        {
          "duration": 0.1875,
          "durationTicks": 96,
          "midi": 75,
          "name": "D#5",
          "ticks": 4992,
          "time": 9.75,
          "velocity": 0.3937007874015748
        },
        {
          "duration": 0.1875,
          "durationTicks": 96,
          "midi": 75,
          "name": "D#5",
          "ticks": 6144,
          "time": 12,
          "velocity": 0.3937007874015748
        },
        {
          "duration": 0.1875,
          "durationTicks": 96,
          "midi": 68,
          "name": "G#4",
          "ticks": 6144,
          "time": 12,
          "velocity": 0.3937007874015748
        },
        {
          "duration": 0.1875,
          "durationTicks": 96,
          "midi": 71,
          "name": "B4",
          "ticks": 6144,
          "time": 12,
          "velocity": 0.3937007874015748
        },
        {
          "duration": 0.1875,
          "durationTicks": 96,
          "midi": 56,
          "name": "G#3",
          "ticks": 6528,
          "time": 12.75,
          "velocity": 0.3937007874015748
        },
        {
          "duration": 0.1875,
          "durationTicks": 96,
          "midi": 68,
          "name": "G#4",
          "ticks": 6528,
          "time": 12.75,
          "velocity": 0.3937007874015748
        },
        {
          "duration": 0.1875,
          "durationTicks": 96,
          "midi": 75,
          "name": "D#5",
          "ticks": 6528,
          "time": 12.75,
          "velocity": 0.3937007874015748
        },
        {
          "duration": 0.1875,
          "durationTicks": 96,
          "midi": 71,
          "name": "B4",
          "ticks": 6528,
          "time": 12.75,
          "velocity": 0.3937007874015748
        },
        {
          "duration": 0.1875,
          "durationTicks": 96,
          "midi": 68,
          "name": "G#4",
          "ticks": 6912,
          "time": 13.5,
          "velocity": 0.3937007874015748
        },
        {
          "duration": 0.1875,
          "durationTicks": 96,
          "midi": 71,
          "name": "B4",
          "ticks": 6912,
          "time": 13.5,
          "velocity": 0.3937007874015748
        },
        {
          "duration": 0.1875,
          "durationTicks": 96,
          "midi": 58,
          "name": "A#3",
          "ticks": 6912,
          "time": 13.5,
          "velocity": 0.3937007874015748
        },
        {
          "duration": 0.1875,
          "durationTicks": 96,
          "midi": 75,
          "name": "D#5",
          "ticks": 6912,
          "time": 13.5,
          "velocity": 0.3937007874015748
        },
        {
          "duration": 0.1875,
          "durationTicks": 96,
          "midi": 68,
          "name": "G#4",
          "ticks": 7296,
          "time": 14.25,
          "velocity": 0.3937007874015748
        },
        {
          "duration": 0.1875,
          "durationTicks": 96,
          "midi": 71,
          "name": "B4",
          "ticks": 7296,
          "time": 14.25,
          "velocity": 0.3937007874015748
        },
        {
          "duration": 0.1875,
          "durationTicks": 96,
          "midi": 59,
          "name": "B3",
          "ticks": 7296,
          "time": 14.25,
          "velocity": 0.3937007874015748
        },
        {
          "duration": 0.1875,
          "durationTicks": 96,
          "midi": 75,
          "name": "D#5",
          "ticks": 7296,
          "time": 14.25,
          "velocity": 0.3937007874015748
        },
        {
          "duration": 0.1875,
          "durationTicks": 96,
          "midi": 75,
          "name": "D#5",
          "ticks": 7488,
          "time": 14.625,
          "velocity": 0.3937007874015748
        },
        {
          "duration": 0.1875,
          "durationTicks": 96,
          "midi": 71,
          "name": "B4",
          "ticks": 7488,
          "time": 14.625,
          "velocity": 0.3937007874015748
        },
        {
          "duration": 0.1875,
          "durationTicks": 96,
          "midi": 68,
          "name": "G#4",
          "ticks": 7488,
          "time": 14.625,
          "velocity": 0.3937007874015748
        },
        {
          "duration": 0.1875,
          "durationTicks": 96,
          "midi": 65,
          "name": "F4",
          "ticks": 7680,
          "time": 15,
          "velocity": 0.3937007874015748
        },
        {
          "duration": 0.1875,
          "durationTicks": 96,
          "midi": 71,
          "name": "B4",
          "ticks": 7680,
          "time": 15,
          "velocity": 0.3937007874015748
        },
        {
          "duration": 0.1875,
          "durationTicks": 96,
          "midi": 68,
          "name": "G#4",
          "ticks": 7680,
          "time": 15,
          "velocity": 0.3937007874015748
        },
        {
          "duration": 0.1875,
          "durationTicks": 96,
          "midi": 75,
          "name": "D#5",
          "ticks": 7680,
          "time": 15,
          "velocity": 0.3937007874015748
        },
        {
          "duration": 0.1875,
          "durationTicks": 96,
          "midi": 66,
          "name": "F#4",
          "ticks": 8064,
          "time": 15.75,
          "velocity": 0.3937007874015748
        },
        {
          "duration": 0.1875,
          "durationTicks": 96,
          "midi": 68,
          "name": "G#4",
          "ticks": 8064,
          "time": 15.75,
          "velocity": 0.3937007874015748
        },
        {
          "duration": 0.1875,
          "durationTicks": 96,
          "midi": 71,
          "name": "B4",
          "ticks": 8064,
          "time": 15.75,
          "velocity": 0.3937007874015748
        },
        {
          "duration": 0.1875,
          "durationTicks": 96,
          "midi": 75,
          "name": "D#5",
          "ticks": 8064,
          "time": 15.75,
          "velocity": 0.3937007874015748
        },
        {
          "duration": 0.09375,
          "durationTicks": 48,
          "midi": 65,
          "name": "F4",
          "ticks": 8352,
          "time": 16.3125,
          "velocity": 0.3937007874015748
        },
        {
          "duration": 0.09375,
          "durationTicks": 48,
          "midi": 66,
          "name": "F#4",
          "ticks": 8400,
          "time": 16.40625,
          "velocity": 0.3937007874015748
        },
        {
          "duration": 0.1875,
          "durationTicks": 96,
          "midi": 65,
          "name": "F4",
          "ticks": 8448,
          "time": 16.5,
          "velocity": 0.3937007874015748
        },
        {
          "duration": 0.1875,
          "durationTicks": 96,
          "midi": 75,
          "name": "D#5",
          "ticks": 8448,
          "time": 16.5,
          "velocity": 0.3937007874015748
        },
        {
          "duration": 0.1875,
          "durationTicks": 96,
          "midi": 71,
          "name": "B4",
          "ticks": 8448,
          "time": 16.5,
          "velocity": 0.3937007874015748
        },
        {
          "duration": 0.1875,
          "durationTicks": 96,
          "midi": 68,
          "name": "G#4",
          "ticks": 8448,
          "time": 16.5,
          "velocity": 0.3937007874015748
        },
        {
          "duration": 0.1875,
          "durationTicks": 96,
          "midi": 63,
          "name": "D#4",
          "ticks": 8832,
          "time": 17.25,
          "velocity": 0.3937007874015748
        },
        {
          "duration": 0.1875,
          "durationTicks": 96,
          "midi": 68,
          "name": "G#4",
          "ticks": 8832,
          "time": 17.25,
          "velocity": 0.3937007874015748
        },
        {
          "duration": 0.1875,
          "durationTicks": 96,
          "midi": 71,
          "name": "B4",
          "ticks": 8832,
          "time": 17.25,
          "velocity": 0.3937007874015748
        },
        {
          "duration": 0.1875,
          "durationTicks": 96,
          "midi": 75,
          "name": "D#5",
          "ticks": 8832,
          "time": 17.25,
          "velocity": 0.3937007874015748
        },
        {
          "duration": 0.1875,
          "durationTicks": 96,
          "midi": 75,
          "name": "D#5",
          "ticks": 9024,
          "time": 17.625,
          "velocity": 0.3937007874015748
        },
        {
          "duration": 0.1875,
          "durationTicks": 96,
          "midi": 71,
          "name": "B4",
          "ticks": 9024,
          "time": 17.625,
          "velocity": 0.3937007874015748
        },
        {
          "duration": 0.1875,
          "durationTicks": 96,
          "midi": 68,
          "name": "G#4",
          "ticks": 9024,
          "time": 17.625,
          "velocity": 0.3937007874015748
        },
        {
          "duration": 0.1875,
          "durationTicks": 96,
          "midi": 67,
          "name": "G4",
          "ticks": 9216,
          "time": 18,
          "velocity": 0.3937007874015748
        },
        {
          "duration": 0.1875,
          "durationTicks": 96,
          "midi": 70,
          "name": "A#4",
          "ticks": 9216,
          "time": 18,
          "velocity": 0.3937007874015748
        },
        {
          "duration": 0.1875,
          "durationTicks": 96,
          "midi": 75,
          "name": "D#5",
          "ticks": 9216,
          "time": 18,
          "velocity": 0.3937007874015748
        },
        {
          "duration": 0.1875,
          "durationTicks": 96,
          "midi": 62,
          "name": "D4",
          "ticks": 9216,
          "time": 18,
          "velocity": 0.3937007874015748
        },
        {
          "duration": 0.1875,
          "durationTicks": 96,
          "midi": 75,
          "name": "D#5",
          "ticks": 9600,
          "time": 18.75,
          "velocity": 0.3937007874015748
        },
        {
          "duration": 0.1875,
          "durationTicks": 96,
          "midi": 67,
          "name": "G4",
          "ticks": 9600,
          "time": 18.75,
          "velocity": 0.3937007874015748
        },
        {
          "duration": 0.1875,
          "durationTicks": 96,
          "midi": 70,
          "name": "A#4",
          "ticks": 9600,
          "time": 18.75,
          "velocity": 0.3937007874015748
        },
        {
          "duration": 0.1875,
          "durationTicks": 96,
          "midi": 67,
          "name": "G4",
          "ticks": 9984,
          "time": 19.5,
          "velocity": 0.3937007874015748
        },
        {
          "duration": 0.1875,
          "durationTicks": 96,
          "midi": 75,
          "name": "D#5",
          "ticks": 9984,
          "time": 19.5,
          "velocity": 0.3937007874015748
        },
        {
          "duration": 0.1875,
          "durationTicks": 96,
          "midi": 70,
          "name": "A#4",
          "ticks": 9984,
          "time": 19.5,
          "velocity": 0.3937007874015748
        },
        {
          "duration": 0.1875,
          "durationTicks": 96,
          "midi": 70,
          "name": "A#4",
          "ticks": 10368,
          "time": 20.25,
          "velocity": 0.3937007874015748
        },
        {
          "duration": 0.1875,
          "durationTicks": 96,
          "midi": 63,
          "name": "D#4",
          "ticks": 10368,
          "time": 20.25,
          "velocity": 0.3937007874015748
        },
        {
          "duration": 0.1875,
          "durationTicks": 96,
          "midi": 67,
          "name": "G4",
          "ticks": 10368,
          "time": 20.25,
          "velocity": 0.3937007874015748
        },
        {
          "duration": 0.1875,
          "durationTicks": 96,
          "midi": 75,
          "name": "D#5",
          "ticks": 10368,
          "time": 20.25,
          "velocity": 0.3937007874015748
        },
        {
          "duration": 0.1875,
          "durationTicks": 96,
          "midi": 67,
          "name": "G4",
          "ticks": 10560,
          "time": 20.625,
          "velocity": 0.3937007874015748
        },
        {
          "duration": 0.1875,
          "durationTicks": 96,
          "midi": 75,
          "name": "D#5",
          "ticks": 10560,
          "time": 20.625,
          "velocity": 0.3937007874015748
        },
        {
          "duration": 0.1875,
          "durationTicks": 96,
          "midi": 70,
          "name": "A#4",
          "ticks": 10560,
          "time": 20.625,
          "velocity": 0.3937007874015748
        },
        {
          "duration": 0.09375,
          "durationTicks": 48,
          "midi": 59,
          "name": "B3",
          "ticks": 10704,
          "time": 20.90625,
          "velocity": 0.3937007874015748
        },
        {
          "duration": 0.1875,
          "durationTicks": 96,
          "midi": 58,
          "name": "A#3",
          "ticks": 10752,
          "time": 21,
          "velocity": 0.3937007874015748
        },
        {
          "duration": 0.1875,
          "durationTicks": 96,
          "midi": 67,
          "name": "G4",
          "ticks": 10752,
          "time": 21,
          "velocity": 0.3937007874015748
        },
        {
          "duration": 0.1875,
          "durationTicks": 96,
          "midi": 75,
          "name": "D#5",
          "ticks": 10752,
          "time": 21,
          "velocity": 0.3937007874015748
        },
        {
          "duration": 0.1875,
          "durationTicks": 96,
          "midi": 70,
          "name": "A#4",
          "ticks": 10752,
          "time": 21,
          "velocity": 0.3937007874015748
        },
        {
          "duration": 0.1875,
          "durationTicks": 96,
          "midi": 70,
          "name": "A#4",
          "ticks": 11136,
          "time": 21.75,
          "velocity": 0.3937007874015748
        },
        {
          "duration": 0.1875,
          "durationTicks": 96,
          "midi": 75,
          "name": "D#5",
          "ticks": 11136,
          "time": 21.75,
          "velocity": 0.3937007874015748
        },
        {
          "duration": 0.1875,
          "durationTicks": 96,
          "midi": 67,
          "name": "G4",
          "ticks": 11136,
          "time": 21.75,
          "velocity": 0.3937007874015748
        },
        {
          "duration": 0.1875,
          "durationTicks": 96,
          "midi": 75,
          "name": "D#5",
          "ticks": 11520,
          "time": 22.5,
          "velocity": 0.3937007874015748
        },
        {
          "duration": 0.1875,
          "durationTicks": 96,
          "midi": 70,
          "name": "A#4",
          "ticks": 11520,
          "time": 22.5,
          "velocity": 0.3937007874015748
        },
        {
          "duration": 0.1875,
          "durationTicks": 96,
          "midi": 67,
          "name": "G4",
          "ticks": 11520,
          "time": 22.5,
          "velocity": 0.3937007874015748
        },
        {
          "duration": 0.1875,
          "durationTicks": 96,
          "midi": 67,
          "name": "G4",
          "ticks": 11904,
          "time": 23.25,
          "velocity": 0.3937007874015748
        },
        {
          "duration": 0.1875,
          "durationTicks": 96,
          "midi": 70,
          "name": "A#4",
          "ticks": 11904,
          "time": 23.25,
          "velocity": 0.3937007874015748
        },
        {
          "duration": 0.1875,
          "durationTicks": 96,
          "midi": 75,
          "name": "D#5",
          "ticks": 11904,
          "time": 23.25,
          "velocity": 0.3937007874015748
        },
        {
          "duration": 0.1875,
          "durationTicks": 96,
          "midi": 70,
          "name": "A#4",
          "ticks": 12096,
          "time": 23.625,
          "velocity": 0.3937007874015748
        },
        {
          "duration": 0.1875,
          "durationTicks": 96,
          "midi": 75,
          "name": "D#5",
          "ticks": 12096,
          "time": 23.625,
          "velocity": 0.3937007874015748
        },
        {
          "duration": 0.1875,
          "durationTicks": 96,
          "midi": 67,
          "name": "G4",
          "ticks": 12096,
          "time": 23.625,
          "velocity": 0.3937007874015748
        },
        {
          "duration": 0.1875,
          "durationTicks": 96,
          "midi": 71,
          "name": "B4",
          "ticks": 12288,
          "time": 24,
          "velocity": 0.3937007874015748
        },
        {
          "duration": 0.1875,
          "durationTicks": 96,
          "midi": 75,
          "name": "D#5",
          "ticks": 12288,
          "time": 24,
          "velocity": 0.3937007874015748
        },
        {
          "duration": 0.1875,
          "durationTicks": 96,
          "midi": 68,
          "name": "G#4",
          "ticks": 12288,
          "time": 24,
          "velocity": 0.3937007874015748
        },
        {
          "duration": 0.1875,
          "durationTicks": 96,
          "midi": 75,
          "name": "D#5",
          "ticks": 12672,
          "time": 24.75,
          "velocity": 0.3937007874015748
        },
        {
          "duration": 0.1875,
          "durationTicks": 96,
          "midi": 71,
          "name": "B4",
          "ticks": 12672,
          "time": 24.75,
          "velocity": 0.3937007874015748
        },
        {
          "duration": 0.1875,
          "durationTicks": 96,
          "midi": 56,
          "name": "G#3",
          "ticks": 12672,
          "time": 24.75,
          "velocity": 0.3937007874015748
        },
        {
          "duration": 0.1875,
          "durationTicks": 96,
          "midi": 68,
          "name": "G#4",
          "ticks": 12672,
          "time": 24.75,
          "velocity": 0.3937007874015748
        },
        {
          "duration": 0.1875,
          "durationTicks": 96,
          "midi": 68,
          "name": "G#4",
          "ticks": 13056,
          "time": 25.5,
          "velocity": 0.3937007874015748
        },
        {
          "duration": 0.1875,
          "durationTicks": 96,
          "midi": 58,
          "name": "A#3",
          "ticks": 13056,
          "time": 25.5,
          "velocity": 0.3937007874015748
        },
        {
          "duration": 0.1875,
          "durationTicks": 96,
          "midi": 71,
          "name": "B4",
          "ticks": 13056,
          "time": 25.5,
          "velocity": 0.3937007874015748
        },
        {
          "duration": 0.1875,
          "durationTicks": 96,
          "midi": 75,
          "name": "D#5",
          "ticks": 13056,
          "time": 25.5,
          "velocity": 0.3937007874015748
        },
        {
          "duration": 0.1875,
          "durationTicks": 96,
          "midi": 75,
          "name": "D#5",
          "ticks": 13440,
          "time": 26.25,
          "velocity": 0.3937007874015748
        },
        {
          "duration": 0.1875,
          "durationTicks": 96,
          "midi": 71,
          "name": "B4",
          "ticks": 13440,
          "time": 26.25,
          "velocity": 0.3937007874015748
        },
        {
          "duration": 0.1875,
          "durationTicks": 96,
          "midi": 59,
          "name": "B3",
          "ticks": 13440,
          "time": 26.25,
          "velocity": 0.3937007874015748
        },
        {
          "duration": 0.1875,
          "durationTicks": 96,
          "midi": 68,
          "name": "G#4",
          "ticks": 13440,
          "time": 26.25,
          "velocity": 0.3937007874015748
        },
        {
          "duration": 0.1875,
          "durationTicks": 96,
          "midi": 68,
          "name": "G#4",
          "ticks": 13632,
          "time": 26.625,
          "velocity": 0.3937007874015748
        },
        {
          "duration": 0.1875,
          "durationTicks": 96,
          "midi": 71,
          "name": "B4",
          "ticks": 13632,
          "time": 26.625,
          "velocity": 0.3937007874015748
        },
        {
          "duration": 0.1875,
          "durationTicks": 96,
          "midi": 75,
          "name": "D#5",
          "ticks": 13632,
          "time": 26.625,
          "velocity": 0.3937007874015748
        },
        {
          "duration": 0.1875,
          "durationTicks": 96,
          "midi": 65,
          "name": "F4",
          "ticks": 13824,
          "time": 27,
          "velocity": 0.3937007874015748
        },
        {
          "duration": 0.1875,
          "durationTicks": 96,
          "midi": 68,
          "name": "G#4",
          "ticks": 13824,
          "time": 27,
          "velocity": 0.3937007874015748
        },
        {
          "duration": 0.1875,
          "durationTicks": 96,
          "midi": 75,
          "name": "D#5",
          "ticks": 13824,
          "time": 27,
          "velocity": 0.3937007874015748
        },
        {
          "duration": 0.1875,
          "durationTicks": 96,
          "midi": 71,
          "name": "B4",
          "ticks": 13824,
          "time": 27,
          "velocity": 0.3937007874015748
        },
        {
          "duration": 0.1875,
          "durationTicks": 96,
          "midi": 68,
          "name": "G#4",
          "ticks": 14208,
          "time": 27.75,
          "velocity": 0.3937007874015748
        },
        {
          "duration": 0.1875,
          "durationTicks": 96,
          "midi": 63,
          "name": "D#4",
          "ticks": 14208,
          "time": 27.75,
          "velocity": 0.3937007874015748
        },
        {
          "duration": 0.1875,
          "durationTicks": 96,
          "midi": 75,
          "name": "D#5",
          "ticks": 14208,
          "time": 27.75,
          "velocity": 0.3937007874015748
        },
        {
          "duration": 0.1875,
          "durationTicks": 96,
          "midi": 71,
          "name": "B4",
          "ticks": 14208,
          "time": 27.75,
          "velocity": 0.3937007874015748
        },
        {
          "duration": 0.1875,
          "durationTicks": 96,
          "midi": 71,
          "name": "B4",
          "ticks": 14592,
          "time": 28.5,
          "velocity": 0.3937007874015748
        },
        {
          "duration": 0.1875,
          "durationTicks": 96,
          "midi": 75,
          "name": "D#5",
          "ticks": 14592,
          "time": 28.5,
          "velocity": 0.3937007874015748
        },
        {
          "duration": 0.1875,
          "durationTicks": 96,
          "midi": 65,
          "name": "F4",
          "ticks": 14592,
          "time": 28.5,
          "velocity": 0.3937007874015748
        },
        {
          "duration": 0.1875,
          "durationTicks": 96,
          "midi": 68,
          "name": "G#4",
          "ticks": 14592,
          "time": 28.5,
          "velocity": 0.3937007874015748
        },
        {
          "duration": 0.1875,
          "durationTicks": 96,
          "midi": 66,
          "name": "F#4",
          "ticks": 14976,
          "time": 29.25,
          "velocity": 0.3937007874015748
        },
        {
          "duration": 0.1875,
          "durationTicks": 96,
          "midi": 71,
          "name": "B4",
          "ticks": 14976,
          "time": 29.25,
          "velocity": 0.3937007874015748
        },
        {
          "duration": 0.1875,
          "durationTicks": 96,
          "midi": 75,
          "name": "D#5",
          "ticks": 14976,
          "time": 29.25,
          "velocity": 0.3937007874015748
        },
        {
          "duration": 0.1875,
          "durationTicks": 96,
          "midi": 68,
          "name": "G#4",
          "ticks": 14976,
          "time": 29.25,
          "velocity": 0.3937007874015748
        },
        {
          "duration": 0.1875,
          "durationTicks": 96,
          "midi": 71,
          "name": "B4",
          "ticks": 15168,
          "time": 29.625,
          "velocity": 0.3937007874015748
        },
        {
          "duration": 0.1875,
          "durationTicks": 96,
          "midi": 68,
          "name": "G#4",
          "ticks": 15168,
          "time": 29.625,
          "velocity": 0.3937007874015748
        },
        {
          "duration": 0.1875,
          "durationTicks": 96,
          "midi": 75,
          "name": "D#5",
          "ticks": 15168,
          "time": 29.625,
          "velocity": 0.3937007874015748
        },
        {
          "duration": 0.1875,
          "durationTicks": 96,
          "midi": 70,
          "name": "A#4",
          "ticks": 15360,
          "time": 30,
          "velocity": 0.3937007874015748
        },
        {
          "duration": 0.1875,
          "durationTicks": 96,
          "midi": 75,
          "name": "D#5",
          "ticks": 15360,
          "time": 30,
          "velocity": 0.3937007874015748
        },
        {
          "duration": 0.1875,
          "durationTicks": 96,
          "midi": 67,
          "name": "G4",
          "ticks": 15360,
          "time": 30,
          "velocity": 0.3937007874015748
        },
        {
          "duration": 0.1875,
          "durationTicks": 96,
          "midi": 67,
          "name": "G4",
          "ticks": 15744,
          "time": 30.75,
          "velocity": 0.3937007874015748
        },
        {
          "duration": 0.1875,
          "durationTicks": 96,
          "midi": 75,
          "name": "D#5",
          "ticks": 15744,
          "time": 30.75,
          "velocity": 0.3937007874015748
        },
        {
          "duration": 0.1875,
          "durationTicks": 96,
          "midi": 70,
          "name": "A#4",
          "ticks": 15744,
          "time": 30.75,
          "velocity": 0.3937007874015748
        },
        {
          "duration": 0.1875,
          "durationTicks": 96,
          "midi": 70,
          "name": "A#4",
          "ticks": 16128,
          "time": 31.5,
          "velocity": 0.3937007874015748
        },
        {
          "duration": 0.1875,
          "durationTicks": 96,
          "midi": 75,
          "name": "D#5",
          "ticks": 16128,
          "time": 31.5,
          "velocity": 0.3937007874015748
        },
        {
          "duration": 0.1875,
          "durationTicks": 96,
          "midi": 67,
          "name": "G4",
          "ticks": 16128,
          "time": 31.5,
          "velocity": 0.3937007874015748
        },
        {
          "duration": 0.1875,
          "durationTicks": 96,
          "midi": 67,
          "name": "G4",
          "ticks": 16512,
          "time": 32.25,
          "velocity": 0.3937007874015748
        },
        {
          "duration": 0.1875,
          "durationTicks": 96,
          "midi": 75,
          "name": "D#5",
          "ticks": 16512,
          "time": 32.25,
          "velocity": 0.3937007874015748
        },
        {
          "duration": 0.1875,
          "durationTicks": 96,
          "midi": 70,
          "name": "A#4",
          "ticks": 16512,
          "time": 32.25,
          "velocity": 0.3937007874015748
        },
        {
          "duration": 0.1875,
          "durationTicks": 96,
          "midi": 67,
          "name": "G4",
          "ticks": 16704,
          "time": 32.625,
          "velocity": 0.3937007874015748
        },
        {
          "duration": 0.1875,
          "durationTicks": 96,
          "midi": 62,
          "name": "D4",
          "ticks": 16704,
          "time": 32.625,
          "velocity": 0.3937007874015748
        },
        {
          "duration": 0.1875,
          "durationTicks": 96,
          "midi": 75,
          "name": "D#5",
          "ticks": 16704,
          "time": 32.625,
          "velocity": 0.3937007874015748
        },
        {
          "duration": 0.1875,
          "durationTicks": 96,
          "midi": 70,
          "name": "A#4",
          "ticks": 16704,
          "time": 32.625,
          "velocity": 0.3937007874015748
        },
        {
          "duration": 0.09375,
          "durationTicks": 48,
          "midi": 63,
          "name": "D#4",
          "ticks": 16800,
          "time": 32.8125,
          "velocity": 0.3937007874015748
        },
        {
          "duration": 0.09375,
          "durationTicks": 48,
          "midi": 64,
          "name": "E4",
          "ticks": 16848,
          "time": 32.90625,
          "velocity": 0.3937007874015748
        },
        {
          "duration": 0.1875,
          "durationTicks": 96,
          "midi": 63,
          "name": "D#4",
          "ticks": 16896,
          "time": 33,
          "velocity": 0.3937007874015748
        },
        {
          "duration": 0.046875,
          "durationTicks": 24,
          "midi": 46,
          "name": "A#2",
          "ticks": 39936,
          "time": 78,
          "velocity": 0.3937007874015748
        },
        {
          "duration": 0.046875,
          "durationTicks": 24,
          "midi": 85,
          "name": "C#6",
          "ticks": 39936,
          "time": 78,
          "velocity": 0.3937007874015748
        },
        {
          "duration": 0.046875,
          "durationTicks": 24,
          "midi": 85,
          "name": "C#6",
          "ticks": 39936,
          "time": 78,
          "velocity": 0.3937007874015748
        },
        {
          "duration": 0.046875,
          "durationTicks": 24,
          "midi": 46,
          "name": "A#2",
          "ticks": 39936,
          "time": 78,
          "velocity": 0.3937007874015748
        },
        {
          "duration": 0.046875,
          "durationTicks": 24,
          "midi": 46,
          "name": "A#2",
          "ticks": 39936,
          "time": 78,
          "velocity": 0.3937007874015748
        },
        {
          "duration": 0.046875,
          "durationTicks": 24,
          "midi": 46,
          "name": "A#2",
          "ticks": 39936,
          "time": 78,
          "velocity": 0.3937007874015748
        },
        {
          "duration": 0.046875,
          "durationTicks": 24,
          "midi": 73,
          "name": "C#5",
          "ticks": 39936,
          "time": 78,
          "velocity": 0.3937007874015748
        },
        {
          "duration": 0.046875,
          "durationTicks": 24,
          "midi": 85,
          "name": "C#6",
          "ticks": 39936,
          "time": 78,
          "velocity": 0.3937007874015748
        },
        {
          "duration": 0.046875,
          "durationTicks": 24,
          "midi": 34,
          "name": "A#1",
          "ticks": 39936,
          "time": 78,
          "velocity": 0.3937007874015748
        },
        {
          "duration": 0.046875,
          "durationTicks": 24,
          "midi": 34,
          "name": "A#1",
          "ticks": 39936,
          "time": 78,
          "velocity": 0.3937007874015748
        },
        {
          "duration": 0.046875,
          "durationTicks": 24,
          "midi": 34,
          "name": "A#1",
          "ticks": 39936,
          "time": 78,
          "velocity": 0.3937007874015748
        },
        {
          "duration": 0.046875,
          "durationTicks": 24,
          "midi": 34,
          "name": "A#1",
          "ticks": 39936,
          "time": 78,
          "velocity": 0.3937007874015748
        },
        {
          "duration": 0.046875,
          "durationTicks": 24,
          "midi": 34,
          "name": "A#1",
          "ticks": 39936,
          "time": 78,
          "velocity": 0.3937007874015748
        },
        {
          "duration": 0.046875,
          "durationTicks": 24,
          "midi": 85,
          "name": "C#6",
          "ticks": 39936,
          "time": 78,
          "velocity": 0.3937007874015748
        },
        {
          "duration": 0.046875,
          "durationTicks": 24,
          "midi": 46,
          "name": "A#2",
          "ticks": 39936,
          "time": 78,
          "velocity": 0.3937007874015748
        },
        {
          "duration": 0.046875,
          "durationTicks": 24,
          "midi": 73,
          "name": "C#5",
          "ticks": 39936,
          "time": 78,
          "velocity": 0.3937007874015748
        },
        {
          "duration": 0.046875,
          "durationTicks": 24,
          "midi": 73,
          "name": "C#5",
          "ticks": 39936,
          "time": 78,
          "velocity": 0.3937007874015748
        },
        {
          "duration": 0.046875,
          "durationTicks": 24,
          "midi": 73,
          "name": "C#5",
          "ticks": 39936,
          "time": 78,
          "velocity": 0.3937007874015748
        },
        {
          "duration": 0.046875,
          "durationTicks": 24,
          "midi": 73,
          "name": "C#5",
          "ticks": 39936,
          "time": 78,
          "velocity": 0.3937007874015748
        },
        {
          "duration": 0.046875,
          "durationTicks": 24,
          "midi": 34,
          "name": "A#1",
          "ticks": 39936,
          "time": 78,
          "velocity": 0.3937007874015748
        },
        {
          "duration": 0.046875,
          "durationTicks": 24,
          "midi": 46,
          "name": "A#2",
          "ticks": 39936,
          "time": 78,
          "velocity": 0.3937007874015748
        },
        {
          "duration": 0.046875,
          "durationTicks": 24,
          "midi": 73,
          "name": "C#5",
          "ticks": 39936,
          "time": 78,
          "velocity": 0.3937007874015748
        },
        {
          "duration": 0.046875,
          "durationTicks": 24,
          "midi": 85,
          "name": "C#6",
          "ticks": 39936,
          "time": 78,
          "velocity": 0.3937007874015748
        },
        {
          "duration": 0.046875,
          "durationTicks": 24,
          "midi": 85,
          "name": "C#6",
          "ticks": 39936,
          "time": 78,
          "velocity": 0.3937007874015748
        },
        {
          "duration": 0.046875,
          "durationTicks": 24,
          "midi": 73,
          "name": "C#5",
          "ticks": 39960,
          "time": 78.046875,
          "velocity": 0.3937007874015748
        },
        {
          "duration": 0.046875,
          "durationTicks": 24,
          "midi": 85,
          "name": "C#6",
          "ticks": 39960,
          "time": 78.046875,
          "velocity": 0.3937007874015748
        },
        {
          "duration": 0.046875,
          "durationTicks": 24,
          "midi": 85,
          "name": "C#6",
          "ticks": 39960,
          "time": 78.046875,
          "velocity": 0.3937007874015748
        },
        {
          "duration": 0.046875,
          "durationTicks": 24,
          "midi": 73,
          "name": "C#5",
          "ticks": 39960,
          "time": 78.046875,
          "velocity": 0.3937007874015748
        },
        {
          "duration": 0.046875,
          "durationTicks": 24,
          "midi": 34,
          "name": "A#1",
          "ticks": 39960,
          "time": 78.046875,
          "velocity": 0.3937007874015748
        },
        {
          "duration": 0.046875,
          "durationTicks": 24,
          "midi": 34,
          "name": "A#1",
          "ticks": 39960,
          "time": 78.046875,
          "velocity": 0.3937007874015748
        },
        {
          "duration": 0.046875,
          "durationTicks": 24,
          "midi": 34,
          "name": "A#1",
          "ticks": 39960,
          "time": 78.046875,
          "velocity": 0.3937007874015748
        },
        {
          "duration": 0.046875,
          "durationTicks": 24,
          "midi": 46,
          "name": "A#2",
          "ticks": 39960,
          "time": 78.046875,
          "velocity": 0.3937007874015748
        },
        {
          "duration": 0.046875,
          "durationTicks": 24,
          "midi": 46,
          "name": "A#2",
          "ticks": 39960,
          "time": 78.046875,
          "velocity": 0.3937007874015748
        },
        {
          "duration": 0.046875,
          "durationTicks": 24,
          "midi": 46,
          "name": "A#2",
          "ticks": 39960,
          "time": 78.046875,
          "velocity": 0.3937007874015748
        },
        {
          "duration": 0.046875,
          "durationTicks": 24,
          "midi": 85,
          "name": "C#6",
          "ticks": 39960,
          "time": 78.046875,
          "velocity": 0.3937007874015748
        },
        {
          "duration": 0.046875,
          "durationTicks": 24,
          "midi": 34,
          "name": "A#1",
          "ticks": 39960,
          "time": 78.046875,
          "velocity": 0.3937007874015748
        },
        {
          "duration": 0.046875,
          "durationTicks": 24,
          "midi": 46,
          "name": "A#2",
          "ticks": 39960,
          "time": 78.046875,
          "velocity": 0.3937007874015748
        },
        {
          "duration": 0.046875,
          "durationTicks": 24,
          "midi": 34,
          "name": "A#1",
          "ticks": 39960,
          "time": 78.046875,
          "velocity": 0.3937007874015748
        },
        {
          "duration": 0.046875,
          "durationTicks": 24,
          "midi": 73,
          "name": "C#5",
          "ticks": 39960,
          "time": 78.046875,
          "velocity": 0.3937007874015748
        },
        {
          "duration": 0.046875,
          "durationTicks": 24,
          "midi": 85,
          "name": "C#6",
          "ticks": 39960,
          "time": 78.046875,
          "velocity": 0.3937007874015748
        },
        {
          "duration": 0.046875,
          "durationTicks": 24,
          "midi": 46,
          "name": "A#2",
          "ticks": 39960,
          "time": 78.046875,
          "velocity": 0.3937007874015748
        },
        {
          "duration": 0.046875,
          "durationTicks": 24,
          "midi": 73,
          "name": "C#5",
          "ticks": 39960,
          "time": 78.046875,
          "velocity": 0.3937007874015748
        },
        {
          "duration": 0.046875,
          "durationTicks": 24,
          "midi": 34,
          "name": "A#1",
          "ticks": 39960,
          "time": 78.046875,
          "velocity": 0.3937007874015748
        },
        {
          "duration": 0.046875,
          "durationTicks": 24,
          "midi": 85,
          "name": "C#6",
          "ticks": 39960,
          "time": 78.046875,
          "velocity": 0.3937007874015748
        },
        {
          "duration": 0.046875,
          "durationTicks": 24,
          "midi": 46,
          "name": "A#2",
          "ticks": 39960,
          "time": 78.046875,
          "velocity": 0.3937007874015748
        },
        {
          "duration": 0.046875,
          "durationTicks": 24,
          "midi": 73,
          "name": "C#5",
          "ticks": 39960,
          "time": 78.046875,
          "velocity": 0.3937007874015748
        },
        {
          "duration": 0.046875,
          "durationTicks": 24,
          "midi": 73,
          "name": "C#5",
          "ticks": 39960,
          "time": 78.046875,
          "velocity": 0.3937007874015748
        },
        {
          "duration": 0.046875,
          "durationTicks": 24,
          "midi": 85,
          "name": "C#6",
          "ticks": 39960,
          "time": 78.046875,
          "velocity": 0.3937007874015748
        },
        {
          "duration": 0.046875,
          "durationTicks": 24,
          "midi": 46,
          "name": "A#2",
          "ticks": 39984,
          "time": 78.09375,
          "velocity": 0.3937007874015748
        },
        {
          "duration": 0.046875,
          "durationTicks": 24,
          "midi": 34,
          "name": "A#1",
          "ticks": 39984,
          "time": 78.09375,
          "velocity": 0.3937007874015748
        },
        {
          "duration": 0.046875,
          "durationTicks": 24,
          "midi": 34,
          "name": "A#1",
          "ticks": 39984,
          "time": 78.09375,
          "velocity": 0.3937007874015748
        },
        {
          "duration": 0.046875,
          "durationTicks": 24,
          "midi": 46,
          "name": "A#2",
          "ticks": 39984,
          "time": 78.09375,
          "velocity": 0.3937007874015748
        },
        {
          "duration": 0.046875,
          "durationTicks": 24,
          "midi": 85,
          "name": "C#6",
          "ticks": 39984,
          "time": 78.09375,
          "velocity": 0.3937007874015748
        },
        {
          "duration": 0.046875,
          "durationTicks": 24,
          "midi": 46,
          "name": "A#2",
          "ticks": 39984,
          "time": 78.09375,
          "velocity": 0.3937007874015748
        },
        {
          "duration": 0.046875,
          "durationTicks": 24,
          "midi": 46,
          "name": "A#2",
          "ticks": 39984,
          "time": 78.09375,
          "velocity": 0.3937007874015748
        },
        {
          "duration": 0.046875,
          "durationTicks": 24,
          "midi": 73,
          "name": "C#5",
          "ticks": 39984,
          "time": 78.09375,
          "velocity": 0.3937007874015748
        },
        {
          "duration": 0.046875,
          "durationTicks": 24,
          "midi": 34,
          "name": "A#1",
          "ticks": 39984,
          "time": 78.09375,
          "velocity": 0.3937007874015748
        },
        {
          "duration": 0.046875,
          "durationTicks": 24,
          "midi": 85,
          "name": "C#6",
          "ticks": 39984,
          "time": 78.09375,
          "velocity": 0.3937007874015748
        },
        {
          "duration": 0.046875,
          "durationTicks": 24,
          "midi": 46,
          "name": "A#2",
          "ticks": 39984,
          "time": 78.09375,
          "velocity": 0.3937007874015748
        },
        {
          "duration": 0.046875,
          "durationTicks": 24,
          "midi": 73,
          "name": "C#5",
          "ticks": 39984,
          "time": 78.09375,
          "velocity": 0.3937007874015748
        },
        {
          "duration": 0.046875,
          "durationTicks": 24,
          "midi": 85,
          "name": "C#6",
          "ticks": 39984,
          "time": 78.09375,
          "velocity": 0.3937007874015748
        },
        {
          "duration": 0.046875,
          "durationTicks": 24,
          "midi": 46,
          "name": "A#2",
          "ticks": 39984,
          "time": 78.09375,
          "velocity": 0.3937007874015748
        },
        {
          "duration": 0.046875,
          "durationTicks": 24,
          "midi": 85,
          "name": "C#6",
          "ticks": 39984,
          "time": 78.09375,
          "velocity": 0.3937007874015748
        },
        {
          "duration": 0.046875,
          "durationTicks": 24,
          "midi": 73,
          "name": "C#5",
          "ticks": 39984,
          "time": 78.09375,
          "velocity": 0.3937007874015748
        },
        {
          "duration": 0.046875,
          "durationTicks": 24,
          "midi": 34,
          "name": "A#1",
          "ticks": 39984,
          "time": 78.09375,
          "velocity": 0.3937007874015748
        },
        {
          "duration": 0.046875,
          "durationTicks": 24,
          "midi": 73,
          "name": "C#5",
          "ticks": 39984,
          "time": 78.09375,
          "velocity": 0.3937007874015748
        },
        {
          "duration": 0.046875,
          "durationTicks": 24,
          "midi": 34,
          "name": "A#1",
          "ticks": 39984,
          "time": 78.09375,
          "velocity": 0.3937007874015748
        },
        {
          "duration": 0.046875,
          "durationTicks": 24,
          "midi": 34,
          "name": "A#1",
          "ticks": 39984,
          "time": 78.09375,
          "velocity": 0.3937007874015748
        },
        {
          "duration": 0.046875,
          "durationTicks": 24,
          "midi": 73,
          "name": "C#5",
          "ticks": 39984,
          "time": 78.09375,
          "velocity": 0.3937007874015748
        },
        {
          "duration": 0.046875,
          "durationTicks": 24,
          "midi": 85,
          "name": "C#6",
          "ticks": 39984,
          "time": 78.09375,
          "velocity": 0.3937007874015748
        },
        {
          "duration": 0.046875,
          "durationTicks": 24,
          "midi": 73,
          "name": "C#5",
          "ticks": 39984,
          "time": 78.09375,
          "velocity": 0.3937007874015748
        },
        {
          "duration": 0.046875,
          "durationTicks": 24,
          "midi": 85,
          "name": "C#6",
          "ticks": 39984,
          "time": 78.09375,
          "velocity": 0.3937007874015748
        },
        {
          "duration": 0.046875,
          "durationTicks": 24,
          "midi": 73,
          "name": "C#5",
          "ticks": 40008,
          "time": 78.140625,
          "velocity": 0.3937007874015748
        },
        {
          "duration": 0.046875,
          "durationTicks": 24,
          "midi": 85,
          "name": "C#6",
          "ticks": 40008,
          "time": 78.140625,
          "velocity": 0.3937007874015748
        },
        {
          "duration": 0.046875,
          "durationTicks": 24,
          "midi": 73,
          "name": "C#5",
          "ticks": 40008,
          "time": 78.140625,
          "velocity": 0.3937007874015748
        },
        {
          "duration": 0.046875,
          "durationTicks": 24,
          "midi": 46,
          "name": "A#2",
          "ticks": 40008,
          "time": 78.140625,
          "velocity": 0.3937007874015748
        },
        {
          "duration": 0.046875,
          "durationTicks": 24,
          "midi": 46,
          "name": "A#2",
          "ticks": 40008,
          "time": 78.140625,
          "velocity": 0.3937007874015748
        },
        {
          "duration": 0.046875,
          "durationTicks": 24,
          "midi": 85,
          "name": "C#6",
          "ticks": 40008,
          "time": 78.140625,
          "velocity": 0.3937007874015748
        },
        {
          "duration": 0.046875,
          "durationTicks": 24,
          "midi": 34,
          "name": "A#1",
          "ticks": 40008,
          "time": 78.140625,
          "velocity": 0.3937007874015748
        },
        {
          "duration": 0.046875,
          "durationTicks": 24,
          "midi": 85,
          "name": "C#6",
          "ticks": 40008,
          "time": 78.140625,
          "velocity": 0.3937007874015748
        },
        {
          "duration": 0.046875,
          "durationTicks": 24,
          "midi": 85,
          "name": "C#6",
          "ticks": 40008,
          "time": 78.140625,
          "velocity": 0.3937007874015748
        },
        {
          "duration": 0.046875,
          "durationTicks": 24,
          "midi": 46,
          "name": "A#2",
          "ticks": 40008,
          "time": 78.140625,
          "velocity": 0.3937007874015748
        },
        {
          "duration": 0.046875,
          "durationTicks": 24,
          "midi": 34,
          "name": "A#1",
          "ticks": 40008,
          "time": 78.140625,
          "velocity": 0.3937007874015748
        },
        {
          "duration": 0.046875,
          "durationTicks": 24,
          "midi": 73,
          "name": "C#5",
          "ticks": 40008,
          "time": 78.140625,
          "velocity": 0.3937007874015748
        },
        {
          "duration": 0.046875,
          "durationTicks": 24,
          "midi": 34,
          "name": "A#1",
          "ticks": 40008,
          "time": 78.140625,
          "velocity": 0.3937007874015748
        },
        {
          "duration": 0.046875,
          "durationTicks": 24,
          "midi": 34,
          "name": "A#1",
          "ticks": 40008,
          "time": 78.140625,
          "velocity": 0.3937007874015748
        },
        {
          "duration": 0.046875,
          "durationTicks": 24,
          "midi": 73,
          "name": "C#5",
          "ticks": 40008,
          "time": 78.140625,
          "velocity": 0.3937007874015748
        },
        {
          "duration": 0.046875,
          "durationTicks": 24,
          "midi": 73,
          "name": "C#5",
          "ticks": 40008,
          "time": 78.140625,
          "velocity": 0.3937007874015748
        },
        {
          "duration": 0.046875,
          "durationTicks": 24,
          "midi": 85,
          "name": "C#6",
          "ticks": 40008,
          "time": 78.140625,
          "velocity": 0.3937007874015748
        },
        {
          "duration": 0.046875,
          "durationTicks": 24,
          "midi": 85,
          "name": "C#6",
          "ticks": 40008,
          "time": 78.140625,
          "velocity": 0.3937007874015748
        },
        {
          "duration": 0.046875,
          "durationTicks": 24,
          "midi": 46,
          "name": "A#2",
          "ticks": 40008,
          "time": 78.140625,
          "velocity": 0.3937007874015748
        },
        {
          "duration": 0.046875,
          "durationTicks": 24,
          "midi": 73,
          "name": "C#5",
          "ticks": 40008,
          "time": 78.140625,
          "velocity": 0.3937007874015748
        },
        {
          "duration": 0.046875,
          "durationTicks": 24,
          "midi": 34,
          "name": "A#1",
          "ticks": 40008,
          "time": 78.140625,
          "velocity": 0.3937007874015748
        },
        {
          "duration": 0.046875,
          "durationTicks": 24,
          "midi": 46,
          "name": "A#2",
          "ticks": 40008,
          "time": 78.140625,
          "velocity": 0.3937007874015748
        },
        {
          "duration": 0.046875,
          "durationTicks": 24,
          "midi": 34,
          "name": "A#1",
          "ticks": 40008,
          "time": 78.140625,
          "velocity": 0.3937007874015748
        },
        {
          "duration": 0.046875,
          "durationTicks": 24,
          "midi": 46,
          "name": "A#2",
          "ticks": 40008,
          "time": 78.140625,
          "velocity": 0.3937007874015748
        },
        {
          "duration": 0.046875,
          "durationTicks": 24,
          "midi": 46,
          "name": "A#2",
          "ticks": 40032,
          "time": 78.1875,
          "velocity": 0.3937007874015748
        },
        {
          "duration": 0.046875,
          "durationTicks": 24,
          "midi": 85,
          "name": "C#6",
          "ticks": 40032,
          "time": 78.1875,
          "velocity": 0.3937007874015748
        },
        {
          "duration": 0.046875,
          "durationTicks": 24,
          "midi": 85,
          "name": "C#6",
          "ticks": 40032,
          "time": 78.1875,
          "velocity": 0.3937007874015748
        },
        {
          "duration": 0.046875,
          "durationTicks": 24,
          "midi": 73,
          "name": "C#5",
          "ticks": 40032,
          "time": 78.1875,
          "velocity": 0.3937007874015748
        },
        {
          "duration": 0.046875,
          "durationTicks": 24,
          "midi": 46,
          "name": "A#2",
          "ticks": 40032,
          "time": 78.1875,
          "velocity": 0.3937007874015748
        },
        {
          "duration": 0.046875,
          "durationTicks": 24,
          "midi": 34,
          "name": "A#1",
          "ticks": 40032,
          "time": 78.1875,
          "velocity": 0.3937007874015748
        },
        {
          "duration": 0.046875,
          "durationTicks": 24,
          "midi": 73,
          "name": "C#5",
          "ticks": 40032,
          "time": 78.1875,
          "velocity": 0.3937007874015748
        },
        {
          "duration": 0.046875,
          "durationTicks": 24,
          "midi": 46,
          "name": "A#2",
          "ticks": 40032,
          "time": 78.1875,
          "velocity": 0.3937007874015748
        },
        {
          "duration": 0.046875,
          "durationTicks": 24,
          "midi": 34,
          "name": "A#1",
          "ticks": 40032,
          "time": 78.1875,
          "velocity": 0.3937007874015748
        },
        {
          "duration": 0.046875,
          "durationTicks": 24,
          "midi": 73,
          "name": "C#5",
          "ticks": 40032,
          "time": 78.1875,
          "velocity": 0.3937007874015748
        },
        {
          "duration": 0.046875,
          "durationTicks": 24,
          "midi": 34,
          "name": "A#1",
          "ticks": 40032,
          "time": 78.1875,
          "velocity": 0.3937007874015748
        },
        {
          "duration": 0.046875,
          "durationTicks": 24,
          "midi": 46,
          "name": "A#2",
          "ticks": 40032,
          "time": 78.1875,
          "velocity": 0.3937007874015748
        },
        {
          "duration": 0.046875,
          "durationTicks": 24,
          "midi": 85,
          "name": "C#6",
          "ticks": 40032,
          "time": 78.1875,
          "velocity": 0.3937007874015748
        },
        {
          "duration": 0.046875,
          "durationTicks": 24,
          "midi": 85,
          "name": "C#6",
          "ticks": 40032,
          "time": 78.1875,
          "velocity": 0.3937007874015748
        },
        {
          "duration": 0.046875,
          "durationTicks": 24,
          "midi": 73,
          "name": "C#5",
          "ticks": 40032,
          "time": 78.1875,
          "velocity": 0.3937007874015748
        },
        {
          "duration": 0.046875,
          "durationTicks": 24,
          "midi": 34,
          "name": "A#1",
          "ticks": 40032,
          "time": 78.1875,
          "velocity": 0.3937007874015748
        },
        {
          "duration": 0.046875,
          "durationTicks": 24,
          "midi": 46,
          "name": "A#2",
          "ticks": 40056,
          "time": 78.234375,
          "velocity": 0.3937007874015748
        },
        {
          "duration": 0.046875,
          "durationTicks": 24,
          "midi": 46,
          "name": "A#2",
          "ticks": 40056,
          "time": 78.234375,
          "velocity": 0.3937007874015748
        },
        {
          "duration": 0.046875,
          "durationTicks": 24,
          "midi": 46,
          "name": "A#2",
          "ticks": 40056,
          "time": 78.234375,
          "velocity": 0.3937007874015748
        },
        {
          "duration": 0.046875,
          "durationTicks": 24,
          "midi": 34,
          "name": "A#1",
          "ticks": 40056,
          "time": 78.234375,
          "velocity": 0.3937007874015748
        },
        {
          "duration": 0.046875,
          "durationTicks": 24,
          "midi": 85,
          "name": "C#6",
          "ticks": 40056,
          "time": 78.234375,
          "velocity": 0.3937007874015748
        },
        {
          "duration": 0.046875,
          "durationTicks": 24,
          "midi": 73,
          "name": "C#5",
          "ticks": 40056,
          "time": 78.234375,
          "velocity": 0.3937007874015748
        },
        {
          "duration": 0.046875,
          "durationTicks": 24,
          "midi": 73,
          "name": "C#5",
          "ticks": 40056,
          "time": 78.234375,
          "velocity": 0.3937007874015748
        },
        {
          "duration": 0.046875,
          "durationTicks": 24,
          "midi": 73,
          "name": "C#5",
          "ticks": 40056,
          "time": 78.234375,
          "velocity": 0.3937007874015748
        },
        {
          "duration": 0.046875,
          "durationTicks": 24,
          "midi": 34,
          "name": "A#1",
          "ticks": 40056,
          "time": 78.234375,
          "velocity": 0.3937007874015748
        },
        {
          "duration": 0.046875,
          "durationTicks": 24,
          "midi": 85,
          "name": "C#6",
          "ticks": 40056,
          "time": 78.234375,
          "velocity": 0.3937007874015748
        },
        {
          "duration": 0.046875,
          "durationTicks": 24,
          "midi": 73,
          "name": "C#5",
          "ticks": 40056,
          "time": 78.234375,
          "velocity": 0.3937007874015748
        },
        {
          "duration": 0.046875,
          "durationTicks": 24,
          "midi": 34,
          "name": "A#1",
          "ticks": 40056,
          "time": 78.234375,
          "velocity": 0.3937007874015748
        },
        {
          "duration": 0.046875,
          "durationTicks": 24,
          "midi": 46,
          "name": "A#2",
          "ticks": 40056,
          "time": 78.234375,
          "velocity": 0.3937007874015748
        },
        {
          "duration": 0.046875,
          "durationTicks": 24,
          "midi": 85,
          "name": "C#6",
          "ticks": 40056,
          "time": 78.234375,
          "velocity": 0.3937007874015748
        },
        {
          "duration": 0.046875,
          "durationTicks": 24,
          "midi": 85,
          "name": "C#6",
          "ticks": 40056,
          "time": 78.234375,
          "velocity": 0.3937007874015748
        },
        {
          "duration": 0.046875,
          "durationTicks": 24,
          "midi": 34,
          "name": "A#1",
          "ticks": 40056,
          "time": 78.234375,
          "velocity": 0.3937007874015748
        },
        {
          "duration": 0.046875,
          "durationTicks": 24,
          "midi": 46,
          "name": "A#2",
          "ticks": 40080,
          "time": 78.28125,
          "velocity": 0.3937007874015748
        },
        {
          "duration": 0.046875,
          "durationTicks": 24,
          "midi": 34,
          "name": "A#1",
          "ticks": 40080,
          "time": 78.28125,
          "velocity": 0.3937007874015748
        },
        {
          "duration": 0.046875,
          "durationTicks": 24,
          "midi": 73,
          "name": "C#5",
          "ticks": 40080,
          "time": 78.28125,
          "velocity": 0.3937007874015748
        },
        {
          "duration": 0.046875,
          "durationTicks": 24,
          "midi": 85,
          "name": "C#6",
          "ticks": 40080,
          "time": 78.28125,
          "velocity": 0.3937007874015748
        },
        {
          "duration": 0.046875,
          "durationTicks": 24,
          "midi": 34,
          "name": "A#1",
          "ticks": 40080,
          "time": 78.28125,
          "velocity": 0.3937007874015748
        },
        {
          "duration": 0.046875,
          "durationTicks": 24,
          "midi": 46,
          "name": "A#2",
          "ticks": 40080,
          "time": 78.28125,
          "velocity": 0.3937007874015748
        },
        {
          "duration": 0.046875,
          "durationTicks": 24,
          "midi": 85,
          "name": "C#6",
          "ticks": 40080,
          "time": 78.28125,
          "velocity": 0.3937007874015748
        },
        {
          "duration": 0.046875,
          "durationTicks": 24,
          "midi": 46,
          "name": "A#2",
          "ticks": 40080,
          "time": 78.28125,
          "velocity": 0.3937007874015748
        },
        {
          "duration": 0.046875,
          "durationTicks": 24,
          "midi": 73,
          "name": "C#5",
          "ticks": 40080,
          "time": 78.28125,
          "velocity": 0.3937007874015748
        },
        {
          "duration": 0.046875,
          "durationTicks": 24,
          "midi": 34,
          "name": "A#1",
          "ticks": 40080,
          "time": 78.28125,
          "velocity": 0.3937007874015748
        },
        {
          "duration": 0.046875,
          "durationTicks": 24,
          "midi": 73,
          "name": "C#5",
          "ticks": 40080,
          "time": 78.28125,
          "velocity": 0.3937007874015748
        },
        {
          "duration": 0.046875,
          "durationTicks": 24,
          "midi": 73,
          "name": "C#5",
          "ticks": 40080,
          "time": 78.28125,
          "velocity": 0.3937007874015748
        },
        {
          "duration": 0.046875,
          "durationTicks": 24,
          "midi": 85,
          "name": "C#6",
          "ticks": 40080,
          "time": 78.28125,
          "velocity": 0.3937007874015748
        },
        {
          "duration": 0.046875,
          "durationTicks": 24,
          "midi": 46,
          "name": "A#2",
          "ticks": 40080,
          "time": 78.28125,
          "velocity": 0.3937007874015748
        },
        {
          "duration": 0.046875,
          "durationTicks": 24,
          "midi": 34,
          "name": "A#1",
          "ticks": 40080,
          "time": 78.28125,
          "velocity": 0.3937007874015748
        },
        {
          "duration": 0.046875,
          "durationTicks": 24,
          "midi": 85,
          "name": "C#6",
          "ticks": 40080,
          "time": 78.28125,
          "velocity": 0.3937007874015748
        },
        {
          "duration": 0.046875,
          "durationTicks": 24,
          "midi": 46,
          "name": "A#2",
          "ticks": 40104,
          "time": 78.328125,
          "velocity": 0.3937007874015748
        },
        {
          "duration": 0.046875,
          "durationTicks": 24,
          "midi": 85,
          "name": "C#6",
          "ticks": 40104,
          "time": 78.328125,
          "velocity": 0.3937007874015748
        },
        {
          "duration": 0.046875,
          "durationTicks": 24,
          "midi": 46,
          "name": "A#2",
          "ticks": 40104,
          "time": 78.328125,
          "velocity": 0.3937007874015748
        },
        {
          "duration": 0.046875,
          "durationTicks": 24,
          "midi": 34,
          "name": "A#1",
          "ticks": 40104,
          "time": 78.328125,
          "velocity": 0.3937007874015748
        },
        {
          "duration": 0.046875,
          "durationTicks": 24,
          "midi": 34,
          "name": "A#1",
          "ticks": 40104,
          "time": 78.328125,
          "velocity": 0.3937007874015748
        },
        {
          "duration": 0.046875,
          "durationTicks": 24,
          "midi": 85,
          "name": "C#6",
          "ticks": 40104,
          "time": 78.328125,
          "velocity": 0.3937007874015748
        },
        {
          "duration": 0.046875,
          "durationTicks": 24,
          "midi": 85,
          "name": "C#6",
          "ticks": 40104,
          "time": 78.328125,
          "velocity": 0.3937007874015748
        },
        {
          "duration": 0.046875,
          "durationTicks": 24,
          "midi": 73,
          "name": "C#5",
          "ticks": 40104,
          "time": 78.328125,
          "velocity": 0.3937007874015748
        },
        {
          "duration": 0.046875,
          "durationTicks": 24,
          "midi": 34,
          "name": "A#1",
          "ticks": 40104,
          "time": 78.328125,
          "velocity": 0.3937007874015748
        },
        {
          "duration": 0.046875,
          "durationTicks": 24,
          "midi": 85,
          "name": "C#6",
          "ticks": 40104,
          "time": 78.328125,
          "velocity": 0.3937007874015748
        },
        {
          "duration": 0.046875,
          "durationTicks": 24,
          "midi": 73,
          "name": "C#5",
          "ticks": 40104,
          "time": 78.328125,
          "velocity": 0.3937007874015748
        },
        {
          "duration": 0.046875,
          "durationTicks": 24,
          "midi": 46,
          "name": "A#2",
          "ticks": 40104,
          "time": 78.328125,
          "velocity": 0.3937007874015748
        },
        {
          "duration": 0.046875,
          "durationTicks": 24,
          "midi": 34,
          "name": "A#1",
          "ticks": 40104,
          "time": 78.328125,
          "velocity": 0.3937007874015748
        },
        {
          "duration": 0.046875,
          "durationTicks": 24,
          "midi": 73,
          "name": "C#5",
          "ticks": 40104,
          "time": 78.328125,
          "velocity": 0.3937007874015748
        },
        {
          "duration": 0.046875,
          "durationTicks": 24,
          "midi": 73,
          "name": "C#5",
          "ticks": 40104,
          "time": 78.328125,
          "velocity": 0.3937007874015748
        },
        {
          "duration": 0.046875,
          "durationTicks": 24,
          "midi": 46,
          "name": "A#2",
          "ticks": 40104,
          "time": 78.328125,
          "velocity": 0.3937007874015748
        },
        {
          "duration": 0.046875,
          "durationTicks": 24,
          "midi": 34,
          "name": "A#1",
          "ticks": 40128,
          "time": 78.375,
          "velocity": 0.3937007874015748
        },
        {
          "duration": 0.046875,
          "durationTicks": 24,
          "midi": 85,
          "name": "C#6",
          "ticks": 40128,
          "time": 78.375,
          "velocity": 0.3937007874015748
        },
        {
          "duration": 0.046875,
          "durationTicks": 24,
          "midi": 46,
          "name": "A#2",
          "ticks": 40128,
          "time": 78.375,
          "velocity": 0.3937007874015748
        },
        {
          "duration": 0.046875,
          "durationTicks": 24,
          "midi": 34,
          "name": "A#1",
          "ticks": 40128,
          "time": 78.375,
          "velocity": 0.3937007874015748
        },
        {
          "duration": 0.046875,
          "durationTicks": 24,
          "midi": 46,
          "name": "A#2",
          "ticks": 40128,
          "time": 78.375,
          "velocity": 0.3937007874015748
        },
        {
          "duration": 0.046875,
          "durationTicks": 24,
          "midi": 46,
          "name": "A#2",
          "ticks": 40128,
          "time": 78.375,
          "velocity": 0.3937007874015748
        },
        {
          "duration": 0.046875,
          "durationTicks": 24,
          "midi": 85,
          "name": "C#6",
          "ticks": 40128,
          "time": 78.375,
          "velocity": 0.3937007874015748
        },
        {
          "duration": 0.046875,
          "durationTicks": 24,
          "midi": 73,
          "name": "C#5",
          "ticks": 40128,
          "time": 78.375,
          "velocity": 0.3937007874015748
        },
        {
          "duration": 0.046875,
          "durationTicks": 24,
          "midi": 85,
          "name": "C#6",
          "ticks": 40128,
          "time": 78.375,
          "velocity": 0.3937007874015748
        },
        {
          "duration": 0.046875,
          "durationTicks": 24,
          "midi": 34,
          "name": "A#1",
          "ticks": 40128,
          "time": 78.375,
          "velocity": 0.3937007874015748
        },
        {
          "duration": 0.046875,
          "durationTicks": 24,
          "midi": 73,
          "name": "C#5",
          "ticks": 40128,
          "time": 78.375,
          "velocity": 0.3937007874015748
        },
        {
          "duration": 0.046875,
          "durationTicks": 24,
          "midi": 46,
          "name": "A#2",
          "ticks": 40128,
          "time": 78.375,
          "velocity": 0.3937007874015748
        },
        {
          "duration": 0.046875,
          "durationTicks": 24,
          "midi": 34,
          "name": "A#1",
          "ticks": 40128,
          "time": 78.375,
          "velocity": 0.3937007874015748
        },
        {
          "duration": 0.046875,
          "durationTicks": 24,
          "midi": 73,
          "name": "C#5",
          "ticks": 40128,
          "time": 78.375,
          "velocity": 0.3937007874015748
        },
        {
          "duration": 0.046875,
          "durationTicks": 24,
          "midi": 85,
          "name": "C#6",
          "ticks": 40128,
          "time": 78.375,
          "velocity": 0.3937007874015748
        },
        {
          "duration": 0.046875,
          "durationTicks": 24,
          "midi": 73,
          "name": "C#5",
          "ticks": 40128,
          "time": 78.375,
          "velocity": 0.3937007874015748
        },
        {
          "duration": 0.046875,
          "durationTicks": 24,
          "midi": 73,
          "name": "C#5",
          "ticks": 40152,
          "time": 78.421875,
          "velocity": 0.3937007874015748
        },
        {
          "duration": 0.046875,
          "durationTicks": 24,
          "midi": 46,
          "name": "A#2",
          "ticks": 40152,
          "time": 78.421875,
          "velocity": 0.3937007874015748
        },
        {
          "duration": 0.046875,
          "durationTicks": 24,
          "midi": 34,
          "name": "A#1",
          "ticks": 40152,
          "time": 78.421875,
          "velocity": 0.3937007874015748
        },
        {
          "duration": 0.046875,
          "durationTicks": 24,
          "midi": 85,
          "name": "C#6",
          "ticks": 40152,
          "time": 78.421875,
          "velocity": 0.3937007874015748
        },
        {
          "duration": 0.046875,
          "durationTicks": 24,
          "midi": 85,
          "name": "C#6",
          "ticks": 40152,
          "time": 78.421875,
          "velocity": 0.3937007874015748
        },
        {
          "duration": 0.046875,
          "durationTicks": 24,
          "midi": 85,
          "name": "C#6",
          "ticks": 40152,
          "time": 78.421875,
          "velocity": 0.3937007874015748
        },
        {
          "duration": 0.046875,
          "durationTicks": 24,
          "midi": 46,
          "name": "A#2",
          "ticks": 40152,
          "time": 78.421875,
          "velocity": 0.3937007874015748
        },
        {
          "duration": 0.046875,
          "durationTicks": 24,
          "midi": 85,
          "name": "C#6",
          "ticks": 40152,
          "time": 78.421875,
          "velocity": 0.3937007874015748
        },
        {
          "duration": 0.046875,
          "durationTicks": 24,
          "midi": 46,
          "name": "A#2",
          "ticks": 40152,
          "time": 78.421875,
          "velocity": 0.3937007874015748
        },
        {
          "duration": 0.046875,
          "durationTicks": 24,
          "midi": 34,
          "name": "A#1",
          "ticks": 40152,
          "time": 78.421875,
          "velocity": 0.3937007874015748
        },
        {
          "duration": 0.046875,
          "durationTicks": 24,
          "midi": 46,
          "name": "A#2",
          "ticks": 40152,
          "time": 78.421875,
          "velocity": 0.3937007874015748
        },
        {
          "duration": 0.046875,
          "durationTicks": 24,
          "midi": 73,
          "name": "C#5",
          "ticks": 40152,
          "time": 78.421875,
          "velocity": 0.3937007874015748
        },
        {
          "duration": 0.046875,
          "durationTicks": 24,
          "midi": 34,
          "name": "A#1",
          "ticks": 40152,
          "time": 78.421875,
          "velocity": 0.3937007874015748
        },
        {
          "duration": 0.046875,
          "durationTicks": 24,
          "midi": 73,
          "name": "C#5",
          "ticks": 40152,
          "time": 78.421875,
          "velocity": 0.3937007874015748
        },
        {
          "duration": 0.046875,
          "durationTicks": 24,
          "midi": 34,
          "name": "A#1",
          "ticks": 40152,
          "time": 78.421875,
          "velocity": 0.3937007874015748
        },
        {
          "duration": 0.046875,
          "durationTicks": 24,
          "midi": 73,
          "name": "C#5",
          "ticks": 40152,
          "time": 78.421875,
          "velocity": 0.3937007874015748
        },
        {
          "duration": 0.046875,
          "durationTicks": 24,
          "midi": 34,
          "name": "A#1",
          "ticks": 40176,
          "time": 78.46875,
          "velocity": 0.3937007874015748
        },
        {
          "duration": 0.046875,
          "durationTicks": 24,
          "midi": 46,
          "name": "A#2",
          "ticks": 40176,
          "time": 78.46875,
          "velocity": 0.3937007874015748
        },
        {
          "duration": 0.046875,
          "durationTicks": 24,
          "midi": 46,
          "name": "A#2",
          "ticks": 40176,
          "time": 78.46875,
          "velocity": 0.3937007874015748
        },
        {
          "duration": 0.046875,
          "durationTicks": 24,
          "midi": 85,
          "name": "C#6",
          "ticks": 40176,
          "time": 78.46875,
          "velocity": 0.3937007874015748
        },
        {
          "duration": 0.046875,
          "durationTicks": 24,
          "midi": 46,
          "name": "A#2",
          "ticks": 40176,
          "time": 78.46875,
          "velocity": 0.3937007874015748
        },
        {
          "duration": 0.046875,
          "durationTicks": 24,
          "midi": 46,
          "name": "A#2",
          "ticks": 40176,
          "time": 78.46875,
          "velocity": 0.3937007874015748
        },
        {
          "duration": 0.046875,
          "durationTicks": 24,
          "midi": 34,
          "name": "A#1",
          "ticks": 40176,
          "time": 78.46875,
          "velocity": 0.3937007874015748
        },
        {
          "duration": 0.046875,
          "durationTicks": 24,
          "midi": 73,
          "name": "C#5",
          "ticks": 40176,
          "time": 78.46875,
          "velocity": 0.3937007874015748
        },
        {
          "duration": 0.046875,
          "durationTicks": 24,
          "midi": 85,
          "name": "C#6",
          "ticks": 40176,
          "time": 78.46875,
          "velocity": 0.3937007874015748
        },
        {
          "duration": 0.046875,
          "durationTicks": 24,
          "midi": 34,
          "name": "A#1",
          "ticks": 40176,
          "time": 78.46875,
          "velocity": 0.3937007874015748
        },
        {
          "duration": 0.046875,
          "durationTicks": 24,
          "midi": 73,
          "name": "C#5",
          "ticks": 40176,
          "time": 78.46875,
          "velocity": 0.3937007874015748
        },
        {
          "duration": 0.046875,
          "durationTicks": 24,
          "midi": 73,
          "name": "C#5",
          "ticks": 40176,
          "time": 78.46875,
          "velocity": 0.3937007874015748
        },
        {
          "duration": 0.046875,
          "durationTicks": 24,
          "midi": 85,
          "name": "C#6",
          "ticks": 40176,
          "time": 78.46875,
          "velocity": 0.3937007874015748
        },
        {
          "duration": 0.046875,
          "durationTicks": 24,
          "midi": 34,
          "name": "A#1",
          "ticks": 40176,
          "time": 78.46875,
          "velocity": 0.3937007874015748
        },
        {
          "duration": 0.046875,
          "durationTicks": 24,
          "midi": 73,
          "name": "C#5",
          "ticks": 40176,
          "time": 78.46875,
          "velocity": 0.3937007874015748
        },
        {
          "duration": 0.046875,
          "durationTicks": 24,
          "midi": 85,
          "name": "C#6",
          "ticks": 40176,
          "time": 78.46875,
          "velocity": 0.3937007874015748
        },
        {
          "duration": 0.046875,
          "durationTicks": 24,
          "midi": 85,
          "name": "C#6",
          "ticks": 40200,
          "time": 78.515625,
          "velocity": 0.3937007874015748
        },
        {
          "duration": 0.046875,
          "durationTicks": 24,
          "midi": 85,
          "name": "C#6",
          "ticks": 40200,
          "time": 78.515625,
          "velocity": 0.3937007874015748
        },
        {
          "duration": 0.046875,
          "durationTicks": 24,
          "midi": 73,
          "name": "C#5",
          "ticks": 40200,
          "time": 78.515625,
          "velocity": 0.3937007874015748
        },
        {
          "duration": 0.046875,
          "durationTicks": 24,
          "midi": 46,
          "name": "A#2",
          "ticks": 40200,
          "time": 78.515625,
          "velocity": 0.3937007874015748
        },
        {
          "duration": 0.046875,
          "durationTicks": 24,
          "midi": 34,
          "name": "A#1",
          "ticks": 40200,
          "time": 78.515625,
          "velocity": 0.3937007874015748
        },
        {
          "duration": 0.046875,
          "durationTicks": 24,
          "midi": 34,
          "name": "A#1",
          "ticks": 40200,
          "time": 78.515625,
          "velocity": 0.3937007874015748
        },
        {
          "duration": 0.046875,
          "durationTicks": 24,
          "midi": 73,
          "name": "C#5",
          "ticks": 40200,
          "time": 78.515625,
          "velocity": 0.3937007874015748
        },
        {
          "duration": 0.046875,
          "durationTicks": 24,
          "midi": 46,
          "name": "A#2",
          "ticks": 40200,
          "time": 78.515625,
          "velocity": 0.3937007874015748
        },
        {
          "duration": 0.046875,
          "durationTicks": 24,
          "midi": 85,
          "name": "C#6",
          "ticks": 40200,
          "time": 78.515625,
          "velocity": 0.3937007874015748
        },
        {
          "duration": 0.046875,
          "durationTicks": 24,
          "midi": 73,
          "name": "C#5",
          "ticks": 40200,
          "time": 78.515625,
          "velocity": 0.3937007874015748
        },
        {
          "duration": 0.046875,
          "durationTicks": 24,
          "midi": 46,
          "name": "A#2",
          "ticks": 40200,
          "time": 78.515625,
          "velocity": 0.3937007874015748
        },
        {
          "duration": 0.046875,
          "durationTicks": 24,
          "midi": 73,
          "name": "C#5",
          "ticks": 40200,
          "time": 78.515625,
          "velocity": 0.3937007874015748
        },
        {
          "duration": 0.046875,
          "durationTicks": 24,
          "midi": 46,
          "name": "A#2",
          "ticks": 40200,
          "time": 78.515625,
          "velocity": 0.3937007874015748
        },
        {
          "duration": 0.046875,
          "durationTicks": 24,
          "midi": 34,
          "name": "A#1",
          "ticks": 40200,
          "time": 78.515625,
          "velocity": 0.3937007874015748
        },
        {
          "duration": 0.046875,
          "durationTicks": 24,
          "midi": 34,
          "name": "A#1",
          "ticks": 40200,
          "time": 78.515625,
          "velocity": 0.3937007874015748
        },
        {
          "duration": 0.046875,
          "durationTicks": 24,
          "midi": 85,
          "name": "C#6",
          "ticks": 40200,
          "time": 78.515625,
          "velocity": 0.3937007874015748
        },
        {
          "duration": 0.046875,
          "durationTicks": 24,
          "midi": 85,
          "name": "C#6",
          "ticks": 40224,
          "time": 78.5625,
          "velocity": 0.3937007874015748
        },
        {
          "duration": 0.046875,
          "durationTicks": 24,
          "midi": 34,
          "name": "A#1",
          "ticks": 40224,
          "time": 78.5625,
          "velocity": 0.3937007874015748
        },
        {
          "duration": 0.046875,
          "durationTicks": 24,
          "midi": 73,
          "name": "C#5",
          "ticks": 40224,
          "time": 78.5625,
          "velocity": 0.3937007874015748
        },
        {
          "duration": 0.046875,
          "durationTicks": 24,
          "midi": 73,
          "name": "C#5",
          "ticks": 40224,
          "time": 78.5625,
          "velocity": 0.3937007874015748
        },
        {
          "duration": 0.046875,
          "durationTicks": 24,
          "midi": 85,
          "name": "C#6",
          "ticks": 40224,
          "time": 78.5625,
          "velocity": 0.3937007874015748
        },
        {
          "duration": 0.046875,
          "durationTicks": 24,
          "midi": 46,
          "name": "A#2",
          "ticks": 40224,
          "time": 78.5625,
          "velocity": 0.3937007874015748
        },
        {
          "duration": 0.046875,
          "durationTicks": 24,
          "midi": 46,
          "name": "A#2",
          "ticks": 40224,
          "time": 78.5625,
          "velocity": 0.3937007874015748
        },
        {
          "duration": 0.046875,
          "durationTicks": 24,
          "midi": 34,
          "name": "A#1",
          "ticks": 40224,
          "time": 78.5625,
          "velocity": 0.3937007874015748
        },
        {
          "duration": 0.046875,
          "durationTicks": 24,
          "midi": 34,
          "name": "A#1",
          "ticks": 40248,
          "time": 78.609375,
          "velocity": 0.3937007874015748
        },
        {
          "duration": 0.046875,
          "durationTicks": 24,
          "midi": 46,
          "name": "A#2",
          "ticks": 40248,
          "time": 78.609375,
          "velocity": 0.3937007874015748
        },
        {
          "duration": 0.046875,
          "durationTicks": 24,
          "midi": 85,
          "name": "C#6",
          "ticks": 40248,
          "time": 78.609375,
          "velocity": 0.3937007874015748
        },
        {
          "duration": 0.046875,
          "durationTicks": 24,
          "midi": 34,
          "name": "A#1",
          "ticks": 40248,
          "time": 78.609375,
          "velocity": 0.3937007874015748
        },
        {
          "duration": 0.046875,
          "durationTicks": 24,
          "midi": 73,
          "name": "C#5",
          "ticks": 40248,
          "time": 78.609375,
          "velocity": 0.3937007874015748
        },
        {
          "duration": 0.046875,
          "durationTicks": 24,
          "midi": 85,
          "name": "C#6",
          "ticks": 40248,
          "time": 78.609375,
          "velocity": 0.3937007874015748
        },
        {
          "duration": 0.046875,
          "durationTicks": 24,
          "midi": 73,
          "name": "C#5",
          "ticks": 40248,
          "time": 78.609375,
          "velocity": 0.3937007874015748
        },
        {
          "duration": 0.046875,
          "durationTicks": 24,
          "midi": 46,
          "name": "A#2",
          "ticks": 40248,
          "time": 78.609375,
          "velocity": 0.3937007874015748
        },
        {
          "duration": 0.046875,
          "durationTicks": 24,
          "midi": 46,
          "name": "A#2",
          "ticks": 40272,
          "time": 78.65625,
          "velocity": 0.3937007874015748
        },
        {
          "duration": 0.046875,
          "durationTicks": 24,
          "midi": 46,
          "name": "A#2",
          "ticks": 40272,
          "time": 78.65625,
          "velocity": 0.3937007874015748
        },
        {
          "duration": 0.046875,
          "durationTicks": 24,
          "midi": 85,
          "name": "C#6",
          "ticks": 40272,
          "time": 78.65625,
          "velocity": 0.3937007874015748
        },
        {
          "duration": 0.046875,
          "durationTicks": 24,
          "midi": 34,
          "name": "A#1",
          "ticks": 40272,
          "time": 78.65625,
          "velocity": 0.3937007874015748
        },
        {
          "duration": 0.046875,
          "durationTicks": 24,
          "midi": 73,
          "name": "C#5",
          "ticks": 40272,
          "time": 78.65625,
          "velocity": 0.3937007874015748
        },
        {
          "duration": 0.046875,
          "durationTicks": 24,
          "midi": 34,
          "name": "A#1",
          "ticks": 40272,
          "time": 78.65625,
          "velocity": 0.3937007874015748
        },
        {
          "duration": 0.046875,
          "durationTicks": 24,
          "midi": 73,
          "name": "C#5",
          "ticks": 40272,
          "time": 78.65625,
          "velocity": 0.3937007874015748
        },
        {
          "duration": 0.046875,
          "durationTicks": 24,
          "midi": 85,
          "name": "C#6",
          "ticks": 40272,
          "time": 78.65625,
          "velocity": 0.3937007874015748
        },
        {
          "duration": 0.046875,
          "durationTicks": 24,
          "midi": 73,
          "name": "C#5",
          "ticks": 40296,
          "time": 78.703125,
          "velocity": 0.3937007874015748
        },
        {
          "duration": 0.046875,
          "durationTicks": 24,
          "midi": 34,
          "name": "A#1",
          "ticks": 40296,
          "time": 78.703125,
          "velocity": 0.3937007874015748
        },
        {
          "duration": 0.046875,
          "durationTicks": 24,
          "midi": 73,
          "name": "C#5",
          "ticks": 40296,
          "time": 78.703125,
          "velocity": 0.3937007874015748
        },
        {
          "duration": 0.046875,
          "durationTicks": 24,
          "midi": 46,
          "name": "A#2",
          "ticks": 40296,
          "time": 78.703125,
          "velocity": 0.3937007874015748
        },
        {
          "duration": 0.046875,
          "durationTicks": 24,
          "midi": 85,
          "name": "C#6",
          "ticks": 40296,
          "time": 78.703125,
          "velocity": 0.3937007874015748
        },
        {
          "duration": 0.046875,
          "durationTicks": 24,
          "midi": 85,
          "name": "C#6",
          "ticks": 40296,
          "time": 78.703125,
          "velocity": 0.3937007874015748
        },
        {
          "duration": 0.046875,
          "durationTicks": 24,
          "midi": 34,
          "name": "A#1",
          "ticks": 40296,
          "time": 78.703125,
          "velocity": 0.3937007874015748
        },
        {
          "duration": 0.046875,
          "durationTicks": 24,
          "midi": 46,
          "name": "A#2",
          "ticks": 40296,
          "time": 78.703125,
          "velocity": 0.3937007874015748
        },
        {
          "duration": 0.046875,
          "durationTicks": 24,
          "midi": 53,
          "name": "F3",
          "ticks": 40320,
          "time": 78.75,
          "velocity": 0.3937007874015748
        },
        {
          "duration": 0.046875,
          "durationTicks": 24,
          "midi": 53,
          "name": "F3",
          "ticks": 40320,
          "time": 78.75,
          "velocity": 0.3937007874015748
        },
        {
          "duration": 0.046875,
          "durationTicks": 24,
          "midi": 49,
          "name": "C#3",
          "ticks": 40320,
          "time": 78.75,
          "velocity": 0.3937007874015748
        },
        {
          "duration": 0.046875,
          "durationTicks": 24,
          "midi": 49,
          "name": "C#3",
          "ticks": 40320,
          "time": 78.75,
          "velocity": 0.3937007874015748
        },
        {
          "duration": 0.046875,
          "durationTicks": 24,
          "midi": 49,
          "name": "C#3",
          "ticks": 40320,
          "time": 78.75,
          "velocity": 0.3937007874015748
        },
        {
          "duration": 0.046875,
          "durationTicks": 24,
          "midi": 49,
          "name": "C#3",
          "ticks": 40320,
          "time": 78.75,
          "velocity": 0.3937007874015748
        },
        {
          "duration": 0.046875,
          "durationTicks": 24,
          "midi": 49,
          "name": "C#3",
          "ticks": 40320,
          "time": 78.75,
          "velocity": 0.3937007874015748
        },
        {
          "duration": 0.046875,
          "durationTicks": 24,
          "midi": 73,
          "name": "C#5",
          "ticks": 40320,
          "time": 78.75,
          "velocity": 0.3937007874015748
        },
        {
          "duration": 0.046875,
          "durationTicks": 24,
          "midi": 85,
          "name": "C#6",
          "ticks": 40320,
          "time": 78.75,
          "velocity": 0.3937007874015748
        },
        {
          "duration": 0.046875,
          "durationTicks": 24,
          "midi": 53,
          "name": "F3",
          "ticks": 40320,
          "time": 78.75,
          "velocity": 0.3937007874015748
        },
        {
          "duration": 0.046875,
          "durationTicks": 24,
          "midi": 53,
          "name": "F3",
          "ticks": 40320,
          "time": 78.75,
          "velocity": 0.3937007874015748
        },
        {
          "duration": 0.046875,
          "durationTicks": 24,
          "midi": 49,
          "name": "C#3",
          "ticks": 40320,
          "time": 78.75,
          "velocity": 0.3937007874015748
        },
        {
          "duration": 0.046875,
          "durationTicks": 24,
          "midi": 53,
          "name": "F3",
          "ticks": 40320,
          "time": 78.75,
          "velocity": 0.3937007874015748
        },
        {
          "duration": 0.046875,
          "durationTicks": 24,
          "midi": 85,
          "name": "C#6",
          "ticks": 40320,
          "time": 78.75,
          "velocity": 0.3937007874015748
        },
        {
          "duration": 0.046875,
          "durationTicks": 24,
          "midi": 53,
          "name": "F3",
          "ticks": 40320,
          "time": 78.75,
          "velocity": 0.3937007874015748
        },
        {
          "duration": 0.046875,
          "durationTicks": 24,
          "midi": 73,
          "name": "C#5",
          "ticks": 40320,
          "time": 78.75,
          "velocity": 0.3937007874015748
        },
        {
          "duration": 0.046875,
          "durationTicks": 24,
          "midi": 49,
          "name": "C#3",
          "ticks": 40344,
          "time": 78.796875,
          "velocity": 0.3937007874015748
        },
        {
          "duration": 0.046875,
          "durationTicks": 24,
          "midi": 53,
          "name": "F3",
          "ticks": 40344,
          "time": 78.796875,
          "velocity": 0.3937007874015748
        },
        {
          "duration": 0.046875,
          "durationTicks": 24,
          "midi": 49,
          "name": "C#3",
          "ticks": 40344,
          "time": 78.796875,
          "velocity": 0.3937007874015748
        },
        {
          "duration": 0.046875,
          "durationTicks": 24,
          "midi": 49,
          "name": "C#3",
          "ticks": 40344,
          "time": 78.796875,
          "velocity": 0.3937007874015748
        },
        {
          "duration": 0.046875,
          "durationTicks": 24,
          "midi": 53,
          "name": "F3",
          "ticks": 40344,
          "time": 78.796875,
          "velocity": 0.3937007874015748
        },
        {
          "duration": 0.046875,
          "durationTicks": 24,
          "midi": 49,
          "name": "C#3",
          "ticks": 40344,
          "time": 78.796875,
          "velocity": 0.3937007874015748
        },
        {
          "duration": 0.046875,
          "durationTicks": 24,
          "midi": 49,
          "name": "C#3",
          "ticks": 40344,
          "time": 78.796875,
          "velocity": 0.3937007874015748
        },
        {
          "duration": 0.046875,
          "durationTicks": 24,
          "midi": 53,
          "name": "F3",
          "ticks": 40344,
          "time": 78.796875,
          "velocity": 0.3937007874015748
        },
        {
          "duration": 0.046875,
          "durationTicks": 24,
          "midi": 73,
          "name": "C#5",
          "ticks": 40344,
          "time": 78.796875,
          "velocity": 0.3937007874015748
        },
        {
          "duration": 0.046875,
          "durationTicks": 24,
          "midi": 53,
          "name": "F3",
          "ticks": 40344,
          "time": 78.796875,
          "velocity": 0.3937007874015748
        },
        {
          "duration": 0.046875,
          "durationTicks": 24,
          "midi": 85,
          "name": "C#6",
          "ticks": 40344,
          "time": 78.796875,
          "velocity": 0.3937007874015748
        },
        {
          "duration": 0.046875,
          "durationTicks": 24,
          "midi": 49,
          "name": "C#3",
          "ticks": 40344,
          "time": 78.796875,
          "velocity": 0.3937007874015748
        },
        {
          "duration": 0.046875,
          "durationTicks": 24,
          "midi": 85,
          "name": "C#6",
          "ticks": 40344,
          "time": 78.796875,
          "velocity": 0.3937007874015748
        },
        {
          "duration": 0.046875,
          "durationTicks": 24,
          "midi": 53,
          "name": "F3",
          "ticks": 40344,
          "time": 78.796875,
          "velocity": 0.3937007874015748
        },
        {
          "duration": 0.046875,
          "durationTicks": 24,
          "midi": 53,
          "name": "F3",
          "ticks": 40344,
          "time": 78.796875,
          "velocity": 0.3937007874015748
        },
        {
          "duration": 0.046875,
          "durationTicks": 24,
          "midi": 73,
          "name": "C#5",
          "ticks": 40344,
          "time": 78.796875,
          "velocity": 0.3937007874015748
        },
        {
          "duration": 0.046875,
          "durationTicks": 24,
          "midi": 49,
          "name": "C#3",
          "ticks": 40368,
          "time": 78.84375,
          "velocity": 0.3937007874015748
        },
        {
          "duration": 0.046875,
          "durationTicks": 24,
          "midi": 49,
          "name": "C#3",
          "ticks": 40368,
          "time": 78.84375,
          "velocity": 0.3937007874015748
        },
        {
          "duration": 0.046875,
          "durationTicks": 24,
          "midi": 49,
          "name": "C#3",
          "ticks": 40368,
          "time": 78.84375,
          "velocity": 0.3937007874015748
        },
        {
          "duration": 0.046875,
          "durationTicks": 24,
          "midi": 49,
          "name": "C#3",
          "ticks": 40368,
          "time": 78.84375,
          "velocity": 0.3937007874015748
        },
        {
          "duration": 0.046875,
          "durationTicks": 24,
          "midi": 53,
          "name": "F3",
          "ticks": 40368,
          "time": 78.84375,
          "velocity": 0.3937007874015748
        },
        {
          "duration": 0.046875,
          "durationTicks": 24,
          "midi": 53,
          "name": "F3",
          "ticks": 40368,
          "time": 78.84375,
          "velocity": 0.3937007874015748
        },
        {
          "duration": 0.046875,
          "durationTicks": 24,
          "midi": 53,
          "name": "F3",
          "ticks": 40368,
          "time": 78.84375,
          "velocity": 0.3937007874015748
        },
        {
          "duration": 0.046875,
          "durationTicks": 24,
          "midi": 49,
          "name": "C#3",
          "ticks": 40368,
          "time": 78.84375,
          "velocity": 0.3937007874015748
        },
        {
          "duration": 0.046875,
          "durationTicks": 24,
          "midi": 49,
          "name": "C#3",
          "ticks": 40368,
          "time": 78.84375,
          "velocity": 0.3937007874015748
        },
        {
          "duration": 0.046875,
          "durationTicks": 24,
          "midi": 53,
          "name": "F3",
          "ticks": 40368,
          "time": 78.84375,
          "velocity": 0.3937007874015748
        },
        {
          "duration": 0.046875,
          "durationTicks": 24,
          "midi": 53,
          "name": "F3",
          "ticks": 40368,
          "time": 78.84375,
          "velocity": 0.3937007874015748
        },
        {
          "duration": 0.046875,
          "durationTicks": 24,
          "midi": 53,
          "name": "F3",
          "ticks": 40368,
          "time": 78.84375,
          "velocity": 0.3937007874015748
        },
        {
          "duration": 0.046875,
          "durationTicks": 24,
          "midi": 49,
          "name": "C#3",
          "ticks": 40392,
          "time": 78.890625,
          "velocity": 0.3937007874015748
        },
        {
          "duration": 0.046875,
          "durationTicks": 24,
          "midi": 53,
          "name": "F3",
          "ticks": 40392,
          "time": 78.890625,
          "velocity": 0.3937007874015748
        },
        {
          "duration": 0.046875,
          "durationTicks": 24,
          "midi": 49,
          "name": "C#3",
          "ticks": 40392,
          "time": 78.890625,
          "velocity": 0.3937007874015748
        },
        {
          "duration": 0.046875,
          "durationTicks": 24,
          "midi": 53,
          "name": "F3",
          "ticks": 40392,
          "time": 78.890625,
          "velocity": 0.3937007874015748
        },
        {
          "duration": 0.046875,
          "durationTicks": 24,
          "midi": 53,
          "name": "F3",
          "ticks": 40392,
          "time": 78.890625,
          "velocity": 0.3937007874015748
        },
        {
          "duration": 0.046875,
          "durationTicks": 24,
          "midi": 49,
          "name": "C#3",
          "ticks": 40392,
          "time": 78.890625,
          "velocity": 0.3937007874015748
        },
        {
          "duration": 0.046875,
          "durationTicks": 24,
          "midi": 49,
          "name": "C#3",
          "ticks": 40392,
          "time": 78.890625,
          "velocity": 0.3937007874015748
        },
        {
          "duration": 0.046875,
          "durationTicks": 24,
          "midi": 53,
          "name": "F3",
          "ticks": 40392,
          "time": 78.890625,
          "velocity": 0.3937007874015748
        },
        {
          "duration": 0.046875,
          "durationTicks": 24,
          "midi": 53,
          "name": "F3",
          "ticks": 40392,
          "time": 78.890625,
          "velocity": 0.3937007874015748
        },
        {
          "duration": 0.046875,
          "durationTicks": 24,
          "midi": 53,
          "name": "F3",
          "ticks": 40392,
          "time": 78.890625,
          "velocity": 0.3937007874015748
        },
        {
          "duration": 0.046875,
          "durationTicks": 24,
          "midi": 49,
          "name": "C#3",
          "ticks": 40392,
          "time": 78.890625,
          "velocity": 0.3937007874015748
        },
        {
          "duration": 0.046875,
          "durationTicks": 24,
          "midi": 49,
          "name": "C#3",
          "ticks": 40392,
          "time": 78.890625,
          "velocity": 0.3937007874015748
        },
        {
          "duration": 0.046875,
          "durationTicks": 24,
          "midi": 73,
          "name": "C#5",
          "ticks": 40416,
          "time": 78.9375,
          "velocity": 0.3937007874015748
        },
        {
          "duration": 0.046875,
          "durationTicks": 24,
          "midi": 73,
          "name": "C#5",
          "ticks": 40416,
          "time": 78.9375,
          "velocity": 0.3937007874015748
        },
        {
          "duration": 0.046875,
          "durationTicks": 24,
          "midi": 85,
          "name": "C#6",
          "ticks": 40416,
          "time": 78.9375,
          "velocity": 0.3937007874015748
        },
        {
          "duration": 0.046875,
          "durationTicks": 24,
          "midi": 53,
          "name": "F3",
          "ticks": 40416,
          "time": 78.9375,
          "velocity": 0.3937007874015748
        },
        {
          "duration": 0.046875,
          "durationTicks": 24,
          "midi": 53,
          "name": "F3",
          "ticks": 40416,
          "time": 78.9375,
          "velocity": 0.3937007874015748
        },
        {
          "duration": 0.046875,
          "durationTicks": 24,
          "midi": 49,
          "name": "C#3",
          "ticks": 40416,
          "time": 78.9375,
          "velocity": 0.3937007874015748
        },
        {
          "duration": 0.046875,
          "durationTicks": 24,
          "midi": 49,
          "name": "C#3",
          "ticks": 40416,
          "time": 78.9375,
          "velocity": 0.3937007874015748
        },
        {
          "duration": 0.046875,
          "durationTicks": 24,
          "midi": 53,
          "name": "F3",
          "ticks": 40416,
          "time": 78.9375,
          "velocity": 0.3937007874015748
        },
        {
          "duration": 0.046875,
          "durationTicks": 24,
          "midi": 85,
          "name": "C#6",
          "ticks": 40416,
          "time": 78.9375,
          "velocity": 0.3937007874015748
        },
        {
          "duration": 0.046875,
          "durationTicks": 24,
          "midi": 49,
          "name": "C#3",
          "ticks": 40416,
          "time": 78.9375,
          "velocity": 0.3937007874015748
        },
        {
          "duration": 0.046875,
          "durationTicks": 24,
          "midi": 49,
          "name": "C#3",
          "ticks": 40416,
          "time": 78.9375,
          "velocity": 0.3937007874015748
        },
        {
          "duration": 0.046875,
          "durationTicks": 24,
          "midi": 73,
          "name": "C#5",
          "ticks": 40416,
          "time": 78.9375,
          "velocity": 0.3937007874015748
        },
        {
          "duration": 0.046875,
          "durationTicks": 24,
          "midi": 53,
          "name": "F3",
          "ticks": 40416,
          "time": 78.9375,
          "velocity": 0.3937007874015748
        },
        {
          "duration": 0.046875,
          "durationTicks": 24,
          "midi": 85,
          "name": "C#6",
          "ticks": 40416,
          "time": 78.9375,
          "velocity": 0.3937007874015748
        },
        {
          "duration": 0.046875,
          "durationTicks": 24,
          "midi": 73,
          "name": "C#5",
          "ticks": 40416,
          "time": 78.9375,
          "velocity": 0.3937007874015748
        },
        {
          "duration": 0.046875,
          "durationTicks": 24,
          "midi": 85,
          "name": "C#6",
          "ticks": 40416,
          "time": 78.9375,
          "velocity": 0.3937007874015748
        },
        {
          "duration": 0.046875,
          "durationTicks": 24,
          "midi": 73,
          "name": "C#5",
          "ticks": 40440,
          "time": 78.984375,
          "velocity": 0.3937007874015748
        },
        {
          "duration": 0.046875,
          "durationTicks": 24,
          "midi": 49,
          "name": "C#3",
          "ticks": 40440,
          "time": 78.984375,
          "velocity": 0.3937007874015748
        },
        {
          "duration": 0.046875,
          "durationTicks": 24,
          "midi": 49,
          "name": "C#3",
          "ticks": 40440,
          "time": 78.984375,
          "velocity": 0.3937007874015748
        },
        {
          "duration": 0.046875,
          "durationTicks": 24,
          "midi": 85,
          "name": "C#6",
          "ticks": 40440,
          "time": 78.984375,
          "velocity": 0.3937007874015748
        },
        {
          "duration": 0.046875,
          "durationTicks": 24,
          "midi": 73,
          "name": "C#5",
          "ticks": 40440,
          "time": 78.984375,
          "velocity": 0.3937007874015748
        },
        {
          "duration": 0.046875,
          "durationTicks": 24,
          "midi": 49,
          "name": "C#3",
          "ticks": 40440,
          "time": 78.984375,
          "velocity": 0.3937007874015748
        },
        {
          "duration": 0.046875,
          "durationTicks": 24,
          "midi": 85,
          "name": "C#6",
          "ticks": 40440,
          "time": 78.984375,
          "velocity": 0.3937007874015748
        },
        {
          "duration": 0.046875,
          "durationTicks": 24,
          "midi": 73,
          "name": "C#5",
          "ticks": 40440,
          "time": 78.984375,
          "velocity": 0.3937007874015748
        },
        {
          "duration": 0.046875,
          "durationTicks": 24,
          "midi": 53,
          "name": "F3",
          "ticks": 40440,
          "time": 78.984375,
          "velocity": 0.3937007874015748
        },
        {
          "duration": 0.046875,
          "durationTicks": 24,
          "midi": 85,
          "name": "C#6",
          "ticks": 40440,
          "time": 78.984375,
          "velocity": 0.3937007874015748
        },
        {
          "duration": 0.046875,
          "durationTicks": 24,
          "midi": 73,
          "name": "C#5",
          "ticks": 40440,
          "time": 78.984375,
          "velocity": 0.3937007874015748
        },
        {
          "duration": 0.046875,
          "durationTicks": 24,
          "midi": 85,
          "name": "C#6",
          "ticks": 40440,
          "time": 78.984375,
          "velocity": 0.3937007874015748
        },
        {
          "duration": 0.046875,
          "durationTicks": 24,
          "midi": 53,
          "name": "F3",
          "ticks": 40440,
          "time": 78.984375,
          "velocity": 0.3937007874015748
        },
        {
          "duration": 0.046875,
          "durationTicks": 24,
          "midi": 53,
          "name": "F3",
          "ticks": 40440,
          "time": 78.984375,
          "velocity": 0.3937007874015748
        },
        {
          "duration": 0.046875,
          "durationTicks": 24,
          "midi": 53,
          "name": "F3",
          "ticks": 40440,
          "time": 78.984375,
          "velocity": 0.3937007874015748
        },
        {
          "duration": 0.046875,
          "durationTicks": 24,
          "midi": 49,
          "name": "C#3",
          "ticks": 40440,
          "time": 78.984375,
          "velocity": 0.3937007874015748
        },
        {
          "duration": 0.046875,
          "durationTicks": 24,
          "midi": 73,
          "name": "C#5",
          "ticks": 40464,
          "time": 79.03125,
          "velocity": 0.3937007874015748
        },
        {
          "duration": 0.046875,
          "durationTicks": 24,
          "midi": 85,
          "name": "C#6",
          "ticks": 40464,
          "time": 79.03125,
          "velocity": 0.3937007874015748
        },
        {
          "duration": 0.046875,
          "durationTicks": 24,
          "midi": 49,
          "name": "C#3",
          "ticks": 40464,
          "time": 79.03125,
          "velocity": 0.3937007874015748
        },
        {
          "duration": 0.046875,
          "durationTicks": 24,
          "midi": 53,
          "name": "F3",
          "ticks": 40464,
          "time": 79.03125,
          "velocity": 0.3937007874015748
        },
        {
          "duration": 0.046875,
          "durationTicks": 24,
          "midi": 53,
          "name": "F3",
          "ticks": 40464,
          "time": 79.03125,
          "velocity": 0.3937007874015748
        },
        {
          "duration": 0.046875,
          "durationTicks": 24,
          "midi": 53,
          "name": "F3",
          "ticks": 40464,
          "time": 79.03125,
          "velocity": 0.3937007874015748
        },
        {
          "duration": 0.046875,
          "durationTicks": 24,
          "midi": 85,
          "name": "C#6",
          "ticks": 40464,
          "time": 79.03125,
          "velocity": 0.3937007874015748
        },
        {
          "duration": 0.046875,
          "durationTicks": 24,
          "midi": 73,
          "name": "C#5",
          "ticks": 40464,
          "time": 79.03125,
          "velocity": 0.3937007874015748
        },
        {
          "duration": 0.046875,
          "durationTicks": 24,
          "midi": 49,
          "name": "C#3",
          "ticks": 40464,
          "time": 79.03125,
          "velocity": 0.3937007874015748
        },
        {
          "duration": 0.046875,
          "durationTicks": 24,
          "midi": 49,
          "name": "C#3",
          "ticks": 40464,
          "time": 79.03125,
          "velocity": 0.3937007874015748
        },
        {
          "duration": 0.046875,
          "durationTicks": 24,
          "midi": 49,
          "name": "C#3",
          "ticks": 40464,
          "time": 79.03125,
          "velocity": 0.3937007874015748
        },
        {
          "duration": 0.046875,
          "durationTicks": 24,
          "midi": 73,
          "name": "C#5",
          "ticks": 40464,
          "time": 79.03125,
          "velocity": 0.3937007874015748
        },
        {
          "duration": 0.046875,
          "durationTicks": 24,
          "midi": 85,
          "name": "C#6",
          "ticks": 40464,
          "time": 79.03125,
          "velocity": 0.3937007874015748
        },
        {
          "duration": 0.046875,
          "durationTicks": 24,
          "midi": 73,
          "name": "C#5",
          "ticks": 40464,
          "time": 79.03125,
          "velocity": 0.3937007874015748
        },
        {
          "duration": 0.046875,
          "durationTicks": 24,
          "midi": 53,
          "name": "F3",
          "ticks": 40464,
          "time": 79.03125,
          "velocity": 0.3937007874015748
        },
        {
          "duration": 0.046875,
          "durationTicks": 24,
          "midi": 85,
          "name": "C#6",
          "ticks": 40464,
          "time": 79.03125,
          "velocity": 0.3937007874015748
        },
        {
          "duration": 0.046875,
          "durationTicks": 24,
          "midi": 49,
          "name": "C#3",
          "ticks": 40488,
          "time": 79.078125,
          "velocity": 0.3937007874015748
        },
        {
          "duration": 0.046875,
          "durationTicks": 24,
          "midi": 53,
          "name": "F3",
          "ticks": 40488,
          "time": 79.078125,
          "velocity": 0.3937007874015748
        },
        {
          "duration": 0.046875,
          "durationTicks": 24,
          "midi": 53,
          "name": "F3",
          "ticks": 40488,
          "time": 79.078125,
          "velocity": 0.3937007874015748
        },
        {
          "duration": 0.046875,
          "durationTicks": 24,
          "midi": 53,
          "name": "F3",
          "ticks": 40488,
          "time": 79.078125,
          "velocity": 0.3937007874015748
        },
        {
          "duration": 0.046875,
          "durationTicks": 24,
          "midi": 49,
          "name": "C#3",
          "ticks": 40488,
          "time": 79.078125,
          "velocity": 0.3937007874015748
        },
        {
          "duration": 0.046875,
          "durationTicks": 24,
          "midi": 53,
          "name": "F3",
          "ticks": 40488,
          "time": 79.078125,
          "velocity": 0.3937007874015748
        },
        {
          "duration": 0.046875,
          "durationTicks": 24,
          "midi": 49,
          "name": "C#3",
          "ticks": 40488,
          "time": 79.078125,
          "velocity": 0.3937007874015748
        },
        {
          "duration": 0.046875,
          "durationTicks": 24,
          "midi": 49,
          "name": "C#3",
          "ticks": 40488,
          "time": 79.078125,
          "velocity": 0.3937007874015748
        },
        {
          "duration": 0.046875,
          "durationTicks": 24,
          "midi": 53,
          "name": "F3",
          "ticks": 40512,
          "time": 79.125,
          "velocity": 0.3937007874015748
        },
        {
          "duration": 0.046875,
          "durationTicks": 24,
          "midi": 49,
          "name": "C#3",
          "ticks": 40512,
          "time": 79.125,
          "velocity": 0.3937007874015748
        },
        {
          "duration": 0.046875,
          "durationTicks": 24,
          "midi": 53,
          "name": "F3",
          "ticks": 40512,
          "time": 79.125,
          "velocity": 0.3937007874015748
        },
        {
          "duration": 0.046875,
          "durationTicks": 24,
          "midi": 53,
          "name": "F3",
          "ticks": 40512,
          "time": 79.125,
          "velocity": 0.3937007874015748
        },
        {
          "duration": 0.046875,
          "durationTicks": 24,
          "midi": 49,
          "name": "C#3",
          "ticks": 40512,
          "time": 79.125,
          "velocity": 0.3937007874015748
        },
        {
          "duration": 0.046875,
          "durationTicks": 24,
          "midi": 49,
          "name": "C#3",
          "ticks": 40512,
          "time": 79.125,
          "velocity": 0.3937007874015748
        },
        {
          "duration": 0.046875,
          "durationTicks": 24,
          "midi": 53,
          "name": "F3",
          "ticks": 40512,
          "time": 79.125,
          "velocity": 0.3937007874015748
        },
        {
          "duration": 0.046875,
          "durationTicks": 24,
          "midi": 49,
          "name": "C#3",
          "ticks": 40512,
          "time": 79.125,
          "velocity": 0.3937007874015748
        },
        {
          "duration": 0.046875,
          "durationTicks": 24,
          "midi": 49,
          "name": "C#3",
          "ticks": 40536,
          "time": 79.171875,
          "velocity": 0.3937007874015748
        },
        {
          "duration": 0.046875,
          "durationTicks": 24,
          "midi": 53,
          "name": "F3",
          "ticks": 40536,
          "time": 79.171875,
          "velocity": 0.3937007874015748
        },
        {
          "duration": 0.046875,
          "durationTicks": 24,
          "midi": 49,
          "name": "C#3",
          "ticks": 40536,
          "time": 79.171875,
          "velocity": 0.3937007874015748
        },
        {
          "duration": 0.046875,
          "durationTicks": 24,
          "midi": 53,
          "name": "F3",
          "ticks": 40536,
          "time": 79.171875,
          "velocity": 0.3937007874015748
        },
        {
          "duration": 0.046875,
          "durationTicks": 24,
          "midi": 49,
          "name": "C#3",
          "ticks": 40536,
          "time": 79.171875,
          "velocity": 0.3937007874015748
        },
        {
          "duration": 0.046875,
          "durationTicks": 24,
          "midi": 53,
          "name": "F3",
          "ticks": 40536,
          "time": 79.171875,
          "velocity": 0.3937007874015748
        },
        {
          "duration": 0.046875,
          "durationTicks": 24,
          "midi": 53,
          "name": "F3",
          "ticks": 40536,
          "time": 79.171875,
          "velocity": 0.3937007874015748
        },
        {
          "duration": 0.046875,
          "durationTicks": 24,
          "midi": 49,
          "name": "C#3",
          "ticks": 40536,
          "time": 79.171875,
          "velocity": 0.3937007874015748
        },
        {
          "duration": 0.046875,
          "durationTicks": 24,
          "midi": 49,
          "name": "C#3",
          "ticks": 40560,
          "time": 79.21875,
          "velocity": 0.3937007874015748
        },
        {
          "duration": 0.046875,
          "durationTicks": 24,
          "midi": 85,
          "name": "C#6",
          "ticks": 40560,
          "time": 79.21875,
          "velocity": 0.3937007874015748
        },
        {
          "duration": 0.046875,
          "durationTicks": 24,
          "midi": 73,
          "name": "C#5",
          "ticks": 40560,
          "time": 79.21875,
          "velocity": 0.3937007874015748
        },
        {
          "duration": 0.046875,
          "durationTicks": 24,
          "midi": 73,
          "name": "C#5",
          "ticks": 40560,
          "time": 79.21875,
          "velocity": 0.3937007874015748
        },
        {
          "duration": 0.046875,
          "durationTicks": 24,
          "midi": 49,
          "name": "C#3",
          "ticks": 40560,
          "time": 79.21875,
          "velocity": 0.3937007874015748
        },
        {
          "duration": 0.046875,
          "durationTicks": 24,
          "midi": 49,
          "name": "C#3",
          "ticks": 40560,
          "time": 79.21875,
          "velocity": 0.3937007874015748
        },
        {
          "duration": 0.046875,
          "durationTicks": 24,
          "midi": 73,
          "name": "C#5",
          "ticks": 40560,
          "time": 79.21875,
          "velocity": 0.3937007874015748
        },
        {
          "duration": 0.046875,
          "durationTicks": 24,
          "midi": 73,
          "name": "C#5",
          "ticks": 40560,
          "time": 79.21875,
          "velocity": 0.3937007874015748
        },
        {
          "duration": 0.046875,
          "durationTicks": 24,
          "midi": 85,
          "name": "C#6",
          "ticks": 40560,
          "time": 79.21875,
          "velocity": 0.3937007874015748
        },
        {
          "duration": 0.046875,
          "durationTicks": 24,
          "midi": 49,
          "name": "C#3",
          "ticks": 40560,
          "time": 79.21875,
          "velocity": 0.3937007874015748
        },
        {
          "duration": 0.046875,
          "durationTicks": 24,
          "midi": 53,
          "name": "F3",
          "ticks": 40560,
          "time": 79.21875,
          "velocity": 0.3937007874015748
        },
        {
          "duration": 0.046875,
          "durationTicks": 24,
          "midi": 53,
          "name": "F3",
          "ticks": 40560,
          "time": 79.21875,
          "velocity": 0.3937007874015748
        },
        {
          "duration": 0.046875,
          "durationTicks": 24,
          "midi": 85,
          "name": "C#6",
          "ticks": 40560,
          "time": 79.21875,
          "velocity": 0.3937007874015748
        },
        {
          "duration": 0.046875,
          "durationTicks": 24,
          "midi": 53,
          "name": "F3",
          "ticks": 40560,
          "time": 79.21875,
          "velocity": 0.3937007874015748
        },
        {
          "duration": 0.046875,
          "durationTicks": 24,
          "midi": 53,
          "name": "F3",
          "ticks": 40560,
          "time": 79.21875,
          "velocity": 0.3937007874015748
        },
        {
          "duration": 0.046875,
          "durationTicks": 24,
          "midi": 85,
          "name": "C#6",
          "ticks": 40560,
          "time": 79.21875,
          "velocity": 0.3937007874015748
        },
        {
          "duration": 0.046875,
          "durationTicks": 24,
          "midi": 49,
          "name": "C#3",
          "ticks": 40584,
          "time": 79.265625,
          "velocity": 0.3937007874015748
        },
        {
          "duration": 0.046875,
          "durationTicks": 24,
          "midi": 85,
          "name": "C#6",
          "ticks": 40584,
          "time": 79.265625,
          "velocity": 0.3937007874015748
        },
        {
          "duration": 0.046875,
          "durationTicks": 24,
          "midi": 53,
          "name": "F3",
          "ticks": 40584,
          "time": 79.265625,
          "velocity": 0.3937007874015748
        },
        {
          "duration": 0.046875,
          "durationTicks": 24,
          "midi": 53,
          "name": "F3",
          "ticks": 40584,
          "time": 79.265625,
          "velocity": 0.3937007874015748
        },
        {
          "duration": 0.046875,
          "durationTicks": 24,
          "midi": 73,
          "name": "C#5",
          "ticks": 40584,
          "time": 79.265625,
          "velocity": 0.3937007874015748
        },
        {
          "duration": 0.046875,
          "durationTicks": 24,
          "midi": 85,
          "name": "C#6",
          "ticks": 40584,
          "time": 79.265625,
          "velocity": 0.3937007874015748
        },
        {
          "duration": 0.046875,
          "durationTicks": 24,
          "midi": 73,
          "name": "C#5",
          "ticks": 40584,
          "time": 79.265625,
          "velocity": 0.3937007874015748
        },
        {
          "duration": 0.046875,
          "durationTicks": 24,
          "midi": 85,
          "name": "C#6",
          "ticks": 40584,
          "time": 79.265625,
          "velocity": 0.3937007874015748
        },
        {
          "duration": 0.046875,
          "durationTicks": 24,
          "midi": 73,
          "name": "C#5",
          "ticks": 40584,
          "time": 79.265625,
          "velocity": 0.3937007874015748
        },
        {
          "duration": 0.046875,
          "durationTicks": 24,
          "midi": 49,
          "name": "C#3",
          "ticks": 40584,
          "time": 79.265625,
          "velocity": 0.3937007874015748
        },
        {
          "duration": 0.046875,
          "durationTicks": 24,
          "midi": 85,
          "name": "C#6",
          "ticks": 40584,
          "time": 79.265625,
          "velocity": 0.3937007874015748
        },
        {
          "duration": 0.046875,
          "durationTicks": 24,
          "midi": 49,
          "name": "C#3",
          "ticks": 40584,
          "time": 79.265625,
          "velocity": 0.3937007874015748
        },
        {
          "duration": 0.046875,
          "durationTicks": 24,
          "midi": 53,
          "name": "F3",
          "ticks": 40584,
          "time": 79.265625,
          "velocity": 0.3937007874015748
        },
        {
          "duration": 0.046875,
          "durationTicks": 24,
          "midi": 49,
          "name": "C#3",
          "ticks": 40584,
          "time": 79.265625,
          "velocity": 0.3937007874015748
        },
        {
          "duration": 0.046875,
          "durationTicks": 24,
          "midi": 53,
          "name": "F3",
          "ticks": 40584,
          "time": 79.265625,
          "velocity": 0.3937007874015748
        },
        {
          "duration": 0.046875,
          "durationTicks": 24,
          "midi": 73,
          "name": "C#5",
          "ticks": 40584,
          "time": 79.265625,
          "velocity": 0.3937007874015748
        },
        {
          "duration": 0.046875,
          "durationTicks": 24,
          "midi": 73,
          "name": "C#5",
          "ticks": 40608,
          "time": 79.3125,
          "velocity": 0.3937007874015748
        },
        {
          "duration": 0.046875,
          "durationTicks": 24,
          "midi": 85,
          "name": "C#6",
          "ticks": 40608,
          "time": 79.3125,
          "velocity": 0.3937007874015748
        },
        {
          "duration": 0.046875,
          "durationTicks": 24,
          "midi": 73,
          "name": "C#5",
          "ticks": 40608,
          "time": 79.3125,
          "velocity": 0.3937007874015748
        },
        {
          "duration": 0.046875,
          "durationTicks": 24,
          "midi": 85,
          "name": "C#6",
          "ticks": 40608,
          "time": 79.3125,
          "velocity": 0.3937007874015748
        },
        {
          "duration": 0.046875,
          "durationTicks": 24,
          "midi": 53,
          "name": "F3",
          "ticks": 40608,
          "time": 79.3125,
          "velocity": 0.3937007874015748
        },
        {
          "duration": 0.046875,
          "durationTicks": 24,
          "midi": 73,
          "name": "C#5",
          "ticks": 40608,
          "time": 79.3125,
          "velocity": 0.3937007874015748
        },
        {
          "duration": 0.046875,
          "durationTicks": 24,
          "midi": 49,
          "name": "C#3",
          "ticks": 40608,
          "time": 79.3125,
          "velocity": 0.3937007874015748
        },
        {
          "duration": 0.046875,
          "durationTicks": 24,
          "midi": 85,
          "name": "C#6",
          "ticks": 40608,
          "time": 79.3125,
          "velocity": 0.3937007874015748
        },
        {
          "duration": 0.046875,
          "durationTicks": 24,
          "midi": 73,
          "name": "C#5",
          "ticks": 40608,
          "time": 79.3125,
          "velocity": 0.3937007874015748
        },
        {
          "duration": 0.046875,
          "durationTicks": 24,
          "midi": 85,
          "name": "C#6",
          "ticks": 40608,
          "time": 79.3125,
          "velocity": 0.3937007874015748
        },
        {
          "duration": 0.046875,
          "durationTicks": 24,
          "midi": 49,
          "name": "C#3",
          "ticks": 40608,
          "time": 79.3125,
          "velocity": 0.3937007874015748
        },
        {
          "duration": 0.046875,
          "durationTicks": 24,
          "midi": 53,
          "name": "F3",
          "ticks": 40608,
          "time": 79.3125,
          "velocity": 0.3937007874015748
        },
        {
          "duration": 0.046875,
          "durationTicks": 24,
          "midi": 53,
          "name": "F3",
          "ticks": 40632,
          "time": 79.359375,
          "velocity": 0.3937007874015748
        },
        {
          "duration": 0.046875,
          "durationTicks": 24,
          "midi": 53,
          "name": "F3",
          "ticks": 40632,
          "time": 79.359375,
          "velocity": 0.3937007874015748
        },
        {
          "duration": 0.046875,
          "durationTicks": 24,
          "midi": 49,
          "name": "C#3",
          "ticks": 40632,
          "time": 79.359375,
          "velocity": 0.3937007874015748
        },
        {
          "duration": 0.046875,
          "durationTicks": 24,
          "midi": 49,
          "name": "C#3",
          "ticks": 40632,
          "time": 79.359375,
          "velocity": 0.3937007874015748
        },
        {
          "duration": 0.046875,
          "durationTicks": 24,
          "midi": 53,
          "name": "F3",
          "ticks": 40656,
          "time": 79.40625,
          "velocity": 0.3937007874015748
        },
        {
          "duration": 0.046875,
          "durationTicks": 24,
          "midi": 49,
          "name": "C#3",
          "ticks": 40656,
          "time": 79.40625,
          "velocity": 0.3937007874015748
        },
        {
          "duration": 0.046875,
          "durationTicks": 24,
          "midi": 53,
          "name": "F3",
          "ticks": 40656,
          "time": 79.40625,
          "velocity": 0.3937007874015748
        },
        {
          "duration": 0.046875,
          "durationTicks": 24,
          "midi": 49,
          "name": "C#3",
          "ticks": 40656,
          "time": 79.40625,
          "velocity": 0.3937007874015748
        },
        {
          "duration": 0.046875,
          "durationTicks": 24,
          "midi": 53,
          "name": "F3",
          "ticks": 40680,
          "time": 79.453125,
          "velocity": 0.3937007874015748
        },
        {
          "duration": 0.046875,
          "durationTicks": 24,
          "midi": 49,
          "name": "C#3",
          "ticks": 40680,
          "time": 79.453125,
          "velocity": 0.3937007874015748
        },
        {
          "duration": 0.046875,
          "durationTicks": 24,
          "midi": 49,
          "name": "C#3",
          "ticks": 40680,
          "time": 79.453125,
          "velocity": 0.3937007874015748
        },
        {
          "duration": 0.046875,
          "durationTicks": 24,
          "midi": 53,
          "name": "F3",
          "ticks": 40680,
          "time": 79.453125,
          "velocity": 0.3937007874015748
        },
        {
          "duration": 0.046875,
          "durationTicks": 24,
          "midi": 73,
          "name": "C#5",
          "ticks": 40704,
          "time": 79.5,
          "velocity": 0.3937007874015748
        },
        {
          "duration": 0.046875,
          "durationTicks": 24,
          "midi": 85,
          "name": "C#6",
          "ticks": 40704,
          "time": 79.5,
          "velocity": 0.3937007874015748
        },
        {
          "duration": 0.046875,
          "durationTicks": 24,
          "midi": 85,
          "name": "C#6",
          "ticks": 40704,
          "time": 79.5,
          "velocity": 0.3937007874015748
        },
        {
          "duration": 0.046875,
          "durationTicks": 24,
          "midi": 41,
          "name": "F2",
          "ticks": 40704,
          "time": 79.5,
          "velocity": 0.3937007874015748
        },
        {
          "duration": 0.046875,
          "durationTicks": 24,
          "midi": 85,
          "name": "C#6",
          "ticks": 40704,
          "time": 79.5,
          "velocity": 0.3937007874015748
        },
        {
          "duration": 0.046875,
          "durationTicks": 24,
          "midi": 41,
          "name": "F2",
          "ticks": 40704,
          "time": 79.5,
          "velocity": 0.3937007874015748
        },
        {
          "duration": 0.046875,
          "durationTicks": 24,
          "midi": 29,
          "name": "F1",
          "ticks": 40704,
          "time": 79.5,
          "velocity": 0.3937007874015748
        },
        {
          "duration": 0.046875,
          "durationTicks": 24,
          "midi": 73,
          "name": "C#5",
          "ticks": 40704,
          "time": 79.5,
          "velocity": 0.3937007874015748
        },
        {
          "duration": 0.046875,
          "durationTicks": 24,
          "midi": 85,
          "name": "C#6",
          "ticks": 40704,
          "time": 79.5,
          "velocity": 0.3937007874015748
        },
        {
          "duration": 0.046875,
          "durationTicks": 24,
          "midi": 85,
          "name": "C#6",
          "ticks": 40704,
          "time": 79.5,
          "velocity": 0.3937007874015748
        },
        {
          "duration": 0.046875,
          "durationTicks": 24,
          "midi": 73,
          "name": "C#5",
          "ticks": 40704,
          "time": 79.5,
          "velocity": 0.3937007874015748
        },
        {
          "duration": 0.046875,
          "durationTicks": 24,
          "midi": 41,
          "name": "F2",
          "ticks": 40704,
          "time": 79.5,
          "velocity": 0.3937007874015748
        },
        {
          "duration": 0.046875,
          "durationTicks": 24,
          "midi": 85,
          "name": "C#6",
          "ticks": 40704,
          "time": 79.5,
          "velocity": 0.3937007874015748
        },
        {
          "duration": 0.046875,
          "durationTicks": 24,
          "midi": 41,
          "name": "F2",
          "ticks": 40704,
          "time": 79.5,
          "velocity": 0.3937007874015748
        },
        {
          "duration": 0.046875,
          "durationTicks": 24,
          "midi": 73,
          "name": "C#5",
          "ticks": 40704,
          "time": 79.5,
          "velocity": 0.3937007874015748
        },
        {
          "duration": 0.046875,
          "durationTicks": 24,
          "midi": 41,
          "name": "F2",
          "ticks": 40704,
          "time": 79.5,
          "velocity": 0.3937007874015748
        },
        {
          "duration": 0.046875,
          "durationTicks": 24,
          "midi": 73,
          "name": "C#5",
          "ticks": 40704,
          "time": 79.5,
          "velocity": 0.3937007874015748
        },
        {
          "duration": 0.046875,
          "durationTicks": 24,
          "midi": 29,
          "name": "F1",
          "ticks": 40704,
          "time": 79.5,
          "velocity": 0.3937007874015748
        },
        {
          "duration": 0.046875,
          "durationTicks": 24,
          "midi": 73,
          "name": "C#5",
          "ticks": 40704,
          "time": 79.5,
          "velocity": 0.3937007874015748
        },
        {
          "duration": 0.046875,
          "durationTicks": 24,
          "midi": 29,
          "name": "F1",
          "ticks": 40704,
          "time": 79.5,
          "velocity": 0.3937007874015748
        },
        {
          "duration": 0.046875,
          "durationTicks": 24,
          "midi": 41,
          "name": "F2",
          "ticks": 40704,
          "time": 79.5,
          "velocity": 0.3937007874015748
        },
        {
          "duration": 0.046875,
          "durationTicks": 24,
          "midi": 29,
          "name": "F1",
          "ticks": 40704,
          "time": 79.5,
          "velocity": 0.3937007874015748
        },
        {
          "duration": 0.046875,
          "durationTicks": 24,
          "midi": 29,
          "name": "F1",
          "ticks": 40704,
          "time": 79.5,
          "velocity": 0.3937007874015748
        },
        {
          "duration": 0.046875,
          "durationTicks": 24,
          "midi": 29,
          "name": "F1",
          "ticks": 40704,
          "time": 79.5,
          "velocity": 0.3937007874015748
        },
        {
          "duration": 0.046875,
          "durationTicks": 24,
          "midi": 85,
          "name": "C#6",
          "ticks": 40728,
          "time": 79.546875,
          "velocity": 0.3937007874015748
        },
        {
          "duration": 0.046875,
          "durationTicks": 24,
          "midi": 73,
          "name": "C#5",
          "ticks": 40728,
          "time": 79.546875,
          "velocity": 0.3937007874015748
        },
        {
          "duration": 0.046875,
          "durationTicks": 24,
          "midi": 29,
          "name": "F1",
          "ticks": 40728,
          "time": 79.546875,
          "velocity": 0.3937007874015748
        },
        {
          "duration": 0.046875,
          "durationTicks": 24,
          "midi": 85,
          "name": "C#6",
          "ticks": 40728,
          "time": 79.546875,
          "velocity": 0.3937007874015748
        },
        {
          "duration": 0.046875,
          "durationTicks": 24,
          "midi": 41,
          "name": "F2",
          "ticks": 40728,
          "time": 79.546875,
          "velocity": 0.3937007874015748
        },
        {
          "duration": 0.046875,
          "durationTicks": 24,
          "midi": 73,
          "name": "C#5",
          "ticks": 40728,
          "time": 79.546875,
          "velocity": 0.3937007874015748
        },
        {
          "duration": 0.046875,
          "durationTicks": 24,
          "midi": 41,
          "name": "F2",
          "ticks": 40728,
          "time": 79.546875,
          "velocity": 0.3937007874015748
        },
        {
          "duration": 0.046875,
          "durationTicks": 24,
          "midi": 41,
          "name": "F2",
          "ticks": 40728,
          "time": 79.546875,
          "velocity": 0.3937007874015748
        },
        {
          "duration": 0.046875,
          "durationTicks": 24,
          "midi": 85,
          "name": "C#6",
          "ticks": 40728,
          "time": 79.546875,
          "velocity": 0.3937007874015748
        },
        {
          "duration": 0.046875,
          "durationTicks": 24,
          "midi": 73,
          "name": "C#5",
          "ticks": 40728,
          "time": 79.546875,
          "velocity": 0.3937007874015748
        },
        {
          "duration": 0.046875,
          "durationTicks": 24,
          "midi": 41,
          "name": "F2",
          "ticks": 40728,
          "time": 79.546875,
          "velocity": 0.3937007874015748
        },
        {
          "duration": 0.046875,
          "durationTicks": 24,
          "midi": 85,
          "name": "C#6",
          "ticks": 40728,
          "time": 79.546875,
          "velocity": 0.3937007874015748
        },
        {
          "duration": 0.046875,
          "durationTicks": 24,
          "midi": 73,
          "name": "C#5",
          "ticks": 40728,
          "time": 79.546875,
          "velocity": 0.3937007874015748
        },
        {
          "duration": 0.046875,
          "durationTicks": 24,
          "midi": 29,
          "name": "F1",
          "ticks": 40728,
          "time": 79.546875,
          "velocity": 0.3937007874015748
        },
        {
          "duration": 0.046875,
          "durationTicks": 24,
          "midi": 73,
          "name": "C#5",
          "ticks": 40728,
          "time": 79.546875,
          "velocity": 0.3937007874015748
        },
        {
          "duration": 0.046875,
          "durationTicks": 24,
          "midi": 29,
          "name": "F1",
          "ticks": 40728,
          "time": 79.546875,
          "velocity": 0.3937007874015748
        },
        {
          "duration": 0.046875,
          "durationTicks": 24,
          "midi": 41,
          "name": "F2",
          "ticks": 40728,
          "time": 79.546875,
          "velocity": 0.3937007874015748
        },
        {
          "duration": 0.046875,
          "durationTicks": 24,
          "midi": 29,
          "name": "F1",
          "ticks": 40728,
          "time": 79.546875,
          "velocity": 0.3937007874015748
        },
        {
          "duration": 0.046875,
          "durationTicks": 24,
          "midi": 85,
          "name": "C#6",
          "ticks": 40728,
          "time": 79.546875,
          "velocity": 0.3937007874015748
        },
        {
          "duration": 0.046875,
          "durationTicks": 24,
          "midi": 29,
          "name": "F1",
          "ticks": 40728,
          "time": 79.546875,
          "velocity": 0.3937007874015748
        },
        {
          "duration": 0.046875,
          "durationTicks": 24,
          "midi": 41,
          "name": "F2",
          "ticks": 40728,
          "time": 79.546875,
          "velocity": 0.3937007874015748
        },
        {
          "duration": 0.046875,
          "durationTicks": 24,
          "midi": 29,
          "name": "F1",
          "ticks": 40728,
          "time": 79.546875,
          "velocity": 0.3937007874015748
        },
        {
          "duration": 0.046875,
          "durationTicks": 24,
          "midi": 73,
          "name": "C#5",
          "ticks": 40728,
          "time": 79.546875,
          "velocity": 0.3937007874015748
        },
        {
          "duration": 0.046875,
          "durationTicks": 24,
          "midi": 85,
          "name": "C#6",
          "ticks": 40728,
          "time": 79.546875,
          "velocity": 0.3937007874015748
        },
        {
          "duration": 0.046875,
          "durationTicks": 24,
          "midi": 73,
          "name": "C#5",
          "ticks": 40752,
          "time": 79.59375,
          "velocity": 0.3937007874015748
        },
        {
          "duration": 0.046875,
          "durationTicks": 24,
          "midi": 73,
          "name": "C#5",
          "ticks": 40752,
          "time": 79.59375,
          "velocity": 0.3937007874015748
        },
        {
          "duration": 0.046875,
          "durationTicks": 24,
          "midi": 73,
          "name": "C#5",
          "ticks": 40752,
          "time": 79.59375,
          "velocity": 0.3937007874015748
        },
        {
          "duration": 0.046875,
          "durationTicks": 24,
          "midi": 29,
          "name": "F1",
          "ticks": 40752,
          "time": 79.59375,
          "velocity": 0.3937007874015748
        },
        {
          "duration": 0.046875,
          "durationTicks": 24,
          "midi": 29,
          "name": "F1",
          "ticks": 40752,
          "time": 79.59375,
          "velocity": 0.3937007874015748
        },
        {
          "duration": 0.046875,
          "durationTicks": 24,
          "midi": 41,
          "name": "F2",
          "ticks": 40752,
          "time": 79.59375,
          "velocity": 0.3937007874015748
        },
        {
          "duration": 0.046875,
          "durationTicks": 24,
          "midi": 29,
          "name": "F1",
          "ticks": 40752,
          "time": 79.59375,
          "velocity": 0.3937007874015748
        },
        {
          "duration": 0.046875,
          "durationTicks": 24,
          "midi": 85,
          "name": "C#6",
          "ticks": 40752,
          "time": 79.59375,
          "velocity": 0.3937007874015748
        },
        {
          "duration": 0.046875,
          "durationTicks": 24,
          "midi": 73,
          "name": "C#5",
          "ticks": 40752,
          "time": 79.59375,
          "velocity": 0.3937007874015748
        },
        {
          "duration": 0.046875,
          "durationTicks": 24,
          "midi": 29,
          "name": "F1",
          "ticks": 40752,
          "time": 79.59375,
          "velocity": 0.3937007874015748
        },
        {
          "duration": 0.046875,
          "durationTicks": 24,
          "midi": 73,
          "name": "C#5",
          "ticks": 40752,
          "time": 79.59375,
          "velocity": 0.3937007874015748
        },
        {
          "duration": 0.046875,
          "durationTicks": 24,
          "midi": 85,
          "name": "C#6",
          "ticks": 40752,
          "time": 79.59375,
          "velocity": 0.3937007874015748
        },
        {
          "duration": 0.046875,
          "durationTicks": 24,
          "midi": 85,
          "name": "C#6",
          "ticks": 40752,
          "time": 79.59375,
          "velocity": 0.3937007874015748
        },
        {
          "duration": 0.046875,
          "durationTicks": 24,
          "midi": 29,
          "name": "F1",
          "ticks": 40752,
          "time": 79.59375,
          "velocity": 0.3937007874015748
        },
        {
          "duration": 0.046875,
          "durationTicks": 24,
          "midi": 41,
          "name": "F2",
          "ticks": 40752,
          "time": 79.59375,
          "velocity": 0.3937007874015748
        },
        {
          "duration": 0.046875,
          "durationTicks": 24,
          "midi": 41,
          "name": "F2",
          "ticks": 40752,
          "time": 79.59375,
          "velocity": 0.3937007874015748
        },
        {
          "duration": 0.046875,
          "durationTicks": 24,
          "midi": 41,
          "name": "F2",
          "ticks": 40752,
          "time": 79.59375,
          "velocity": 0.3937007874015748
        },
        {
          "duration": 0.046875,
          "durationTicks": 24,
          "midi": 73,
          "name": "C#5",
          "ticks": 40752,
          "time": 79.59375,
          "velocity": 0.3937007874015748
        },
        {
          "duration": 0.046875,
          "durationTicks": 24,
          "midi": 29,
          "name": "F1",
          "ticks": 40752,
          "time": 79.59375,
          "velocity": 0.3937007874015748
        },
        {
          "duration": 0.046875,
          "durationTicks": 24,
          "midi": 85,
          "name": "C#6",
          "ticks": 40752,
          "time": 79.59375,
          "velocity": 0.3937007874015748
        },
        {
          "duration": 0.046875,
          "durationTicks": 24,
          "midi": 85,
          "name": "C#6",
          "ticks": 40752,
          "time": 79.59375,
          "velocity": 0.3937007874015748
        },
        {
          "duration": 0.046875,
          "durationTicks": 24,
          "midi": 85,
          "name": "C#6",
          "ticks": 40752,
          "time": 79.59375,
          "velocity": 0.3937007874015748
        },
        {
          "duration": 0.046875,
          "durationTicks": 24,
          "midi": 41,
          "name": "F2",
          "ticks": 40752,
          "time": 79.59375,
          "velocity": 0.3937007874015748
        },
        {
          "duration": 0.046875,
          "durationTicks": 24,
          "midi": 41,
          "name": "F2",
          "ticks": 40752,
          "time": 79.59375,
          "velocity": 0.3937007874015748
        },
        {
          "duration": 0.046875,
          "durationTicks": 24,
          "midi": 41,
          "name": "F2",
          "ticks": 40776,
          "time": 79.640625,
          "velocity": 0.3937007874015748
        },
        {
          "duration": 0.046875,
          "durationTicks": 24,
          "midi": 41,
          "name": "F2",
          "ticks": 40776,
          "time": 79.640625,
          "velocity": 0.3937007874015748
        },
        {
          "duration": 0.046875,
          "durationTicks": 24,
          "midi": 29,
          "name": "F1",
          "ticks": 40776,
          "time": 79.640625,
          "velocity": 0.3937007874015748
        },
        {
          "duration": 0.046875,
          "durationTicks": 24,
          "midi": 29,
          "name": "F1",
          "ticks": 40776,
          "time": 79.640625,
          "velocity": 0.3937007874015748
        },
        {
          "duration": 0.046875,
          "durationTicks": 24,
          "midi": 73,
          "name": "C#5",
          "ticks": 40776,
          "time": 79.640625,
          "velocity": 0.3937007874015748
        },
        {
          "duration": 0.046875,
          "durationTicks": 24,
          "midi": 73,
          "name": "C#5",
          "ticks": 40776,
          "time": 79.640625,
          "velocity": 0.3937007874015748
        },
        {
          "duration": 0.046875,
          "durationTicks": 24,
          "midi": 41,
          "name": "F2",
          "ticks": 40776,
          "time": 79.640625,
          "velocity": 0.3937007874015748
        },
        {
          "duration": 0.046875,
          "durationTicks": 24,
          "midi": 85,
          "name": "C#6",
          "ticks": 40776,
          "time": 79.640625,
          "velocity": 0.3937007874015748
        },
        {
          "duration": 0.046875,
          "durationTicks": 24,
          "midi": 85,
          "name": "C#6",
          "ticks": 40776,
          "time": 79.640625,
          "velocity": 0.3937007874015748
        },
        {
          "duration": 0.046875,
          "durationTicks": 24,
          "midi": 85,
          "name": "C#6",
          "ticks": 40776,
          "time": 79.640625,
          "velocity": 0.3937007874015748
        },
        {
          "duration": 0.046875,
          "durationTicks": 24,
          "midi": 73,
          "name": "C#5",
          "ticks": 40776,
          "time": 79.640625,
          "velocity": 0.3937007874015748
        },
        {
          "duration": 0.046875,
          "durationTicks": 24,
          "midi": 41,
          "name": "F2",
          "ticks": 40776,
          "time": 79.640625,
          "velocity": 0.3937007874015748
        },
        {
          "duration": 0.046875,
          "durationTicks": 24,
          "midi": 73,
          "name": "C#5",
          "ticks": 40776,
          "time": 79.640625,
          "velocity": 0.3937007874015748
        },
        {
          "duration": 0.046875,
          "durationTicks": 24,
          "midi": 29,
          "name": "F1",
          "ticks": 40776,
          "time": 79.640625,
          "velocity": 0.3937007874015748
        },
        {
          "duration": 0.046875,
          "durationTicks": 24,
          "midi": 73,
          "name": "C#5",
          "ticks": 40776,
          "time": 79.640625,
          "velocity": 0.3937007874015748
        },
        {
          "duration": 0.046875,
          "durationTicks": 24,
          "midi": 85,
          "name": "C#6",
          "ticks": 40776,
          "time": 79.640625,
          "velocity": 0.3937007874015748
        },
        {
          "duration": 0.046875,
          "durationTicks": 24,
          "midi": 29,
          "name": "F1",
          "ticks": 40776,
          "time": 79.640625,
          "velocity": 0.3937007874015748
        },
        {
          "duration": 0.046875,
          "durationTicks": 24,
          "midi": 29,
          "name": "F1",
          "ticks": 40776,
          "time": 79.640625,
          "velocity": 0.3937007874015748
        },
        {
          "duration": 0.046875,
          "durationTicks": 24,
          "midi": 85,
          "name": "C#6",
          "ticks": 40776,
          "time": 79.640625,
          "velocity": 0.3937007874015748
        },
        {
          "duration": 0.046875,
          "durationTicks": 24,
          "midi": 85,
          "name": "C#6",
          "ticks": 40776,
          "time": 79.640625,
          "velocity": 0.3937007874015748
        },
        {
          "duration": 0.046875,
          "durationTicks": 24,
          "midi": 41,
          "name": "F2",
          "ticks": 40776,
          "time": 79.640625,
          "velocity": 0.3937007874015748
        },
        {
          "duration": 0.046875,
          "durationTicks": 24,
          "midi": 29,
          "name": "F1",
          "ticks": 40776,
          "time": 79.640625,
          "velocity": 0.3937007874015748
        },
        {
          "duration": 0.046875,
          "durationTicks": 24,
          "midi": 73,
          "name": "C#5",
          "ticks": 40776,
          "time": 79.640625,
          "velocity": 0.3937007874015748
        },
        {
          "duration": 0.046875,
          "durationTicks": 24,
          "midi": 41,
          "name": "F2",
          "ticks": 40776,
          "time": 79.640625,
          "velocity": 0.3937007874015748
        },
        {
          "duration": 0.046875,
          "durationTicks": 24,
          "midi": 29,
          "name": "F1",
          "ticks": 40800,
          "time": 79.6875,
          "velocity": 0.3937007874015748
        },
        {
          "duration": 0.046875,
          "durationTicks": 24,
          "midi": 41,
          "name": "F2",
          "ticks": 40800,
          "time": 79.6875,
          "velocity": 0.3937007874015748
        },
        {
          "duration": 0.046875,
          "durationTicks": 24,
          "midi": 29,
          "name": "F1",
          "ticks": 40800,
          "time": 79.6875,
          "velocity": 0.3937007874015748
        },
        {
          "duration": 0.046875,
          "durationTicks": 24,
          "midi": 29,
          "name": "F1",
          "ticks": 40800,
          "time": 79.6875,
          "velocity": 0.3937007874015748
        },
        {
          "duration": 0.046875,
          "durationTicks": 24,
          "midi": 29,
          "name": "F1",
          "ticks": 40800,
          "time": 79.6875,
          "velocity": 0.3937007874015748
        },
        {
          "duration": 0.046875,
          "durationTicks": 24,
          "midi": 41,
          "name": "F2",
          "ticks": 40800,
          "time": 79.6875,
          "velocity": 0.3937007874015748
        },
        {
          "duration": 0.046875,
          "durationTicks": 24,
          "midi": 41,
          "name": "F2",
          "ticks": 40800,
          "time": 79.6875,
          "velocity": 0.3937007874015748
        },
        {
          "duration": 0.046875,
          "durationTicks": 24,
          "midi": 41,
          "name": "F2",
          "ticks": 40800,
          "time": 79.6875,
          "velocity": 0.3937007874015748
        },
        {
          "duration": 0.046875,
          "durationTicks": 24,
          "midi": 29,
          "name": "F1",
          "ticks": 40824,
          "time": 79.734375,
          "velocity": 0.3937007874015748
        },
        {
          "duration": 0.046875,
          "durationTicks": 24,
          "midi": 41,
          "name": "F2",
          "ticks": 40824,
          "time": 79.734375,
          "velocity": 0.3937007874015748
        },
        {
          "duration": 0.046875,
          "durationTicks": 24,
          "midi": 41,
          "name": "F2",
          "ticks": 40824,
          "time": 79.734375,
          "velocity": 0.3937007874015748
        },
        {
          "duration": 0.046875,
          "durationTicks": 24,
          "midi": 29,
          "name": "F1",
          "ticks": 40824,
          "time": 79.734375,
          "velocity": 0.3937007874015748
        },
        {
          "duration": 0.046875,
          "durationTicks": 24,
          "midi": 41,
          "name": "F2",
          "ticks": 40824,
          "time": 79.734375,
          "velocity": 0.3937007874015748
        },
        {
          "duration": 0.046875,
          "durationTicks": 24,
          "midi": 29,
          "name": "F1",
          "ticks": 40824,
          "time": 79.734375,
          "velocity": 0.3937007874015748
        },
        {
          "duration": 0.046875,
          "durationTicks": 24,
          "midi": 29,
          "name": "F1",
          "ticks": 40824,
          "time": 79.734375,
          "velocity": 0.3937007874015748
        },
        {
          "duration": 0.046875,
          "durationTicks": 24,
          "midi": 41,
          "name": "F2",
          "ticks": 40824,
          "time": 79.734375,
          "velocity": 0.3937007874015748
        },
        {
          "duration": 0.046875,
          "durationTicks": 24,
          "midi": 83,
          "name": "B5",
          "ticks": 40848,
          "time": 79.78125,
          "velocity": 0.3937007874015748
        },
        {
          "duration": 0.046875,
          "durationTicks": 24,
          "midi": 71,
          "name": "B4",
          "ticks": 40848,
          "time": 79.78125,
          "velocity": 0.3937007874015748
        },
        {
          "duration": 0.046875,
          "durationTicks": 24,
          "midi": 41,
          "name": "F2",
          "ticks": 40848,
          "time": 79.78125,
          "velocity": 0.3937007874015748
        },
        {
          "duration": 0.046875,
          "durationTicks": 24,
          "midi": 83,
          "name": "B5",
          "ticks": 40848,
          "time": 79.78125,
          "velocity": 0.3937007874015748
        },
        {
          "duration": 0.046875,
          "durationTicks": 24,
          "midi": 41,
          "name": "F2",
          "ticks": 40848,
          "time": 79.78125,
          "velocity": 0.3937007874015748
        },
        {
          "duration": 0.046875,
          "durationTicks": 24,
          "midi": 83,
          "name": "B5",
          "ticks": 40848,
          "time": 79.78125,
          "velocity": 0.3937007874015748
        },
        {
          "duration": 0.046875,
          "durationTicks": 24,
          "midi": 71,
          "name": "B4",
          "ticks": 40848,
          "time": 79.78125,
          "velocity": 0.3937007874015748
        },
        {
          "duration": 0.046875,
          "durationTicks": 24,
          "midi": 83,
          "name": "B5",
          "ticks": 40848,
          "time": 79.78125,
          "velocity": 0.3937007874015748
        },
        {
          "duration": 0.046875,
          "durationTicks": 24,
          "midi": 29,
          "name": "F1",
          "ticks": 40848,
          "time": 79.78125,
          "velocity": 0.3937007874015748
        },
        {
          "duration": 0.046875,
          "durationTicks": 24,
          "midi": 29,
          "name": "F1",
          "ticks": 40848,
          "time": 79.78125,
          "velocity": 0.3937007874015748
        },
        {
          "duration": 0.046875,
          "durationTicks": 24,
          "midi": 83,
          "name": "B5",
          "ticks": 40848,
          "time": 79.78125,
          "velocity": 0.3937007874015748
        },
        {
          "duration": 0.046875,
          "durationTicks": 24,
          "midi": 83,
          "name": "B5",
          "ticks": 40848,
          "time": 79.78125,
          "velocity": 0.3937007874015748
        },
        {
          "duration": 0.046875,
          "durationTicks": 24,
          "midi": 29,
          "name": "F1",
          "ticks": 40848,
          "time": 79.78125,
          "velocity": 0.3937007874015748
        },
        {
          "duration": 0.046875,
          "durationTicks": 24,
          "midi": 71,
          "name": "B4",
          "ticks": 40848,
          "time": 79.78125,
          "velocity": 0.3937007874015748
        },
        {
          "duration": 0.046875,
          "durationTicks": 24,
          "midi": 41,
          "name": "F2",
          "ticks": 40848,
          "time": 79.78125,
          "velocity": 0.3937007874015748
        },
        {
          "duration": 0.046875,
          "durationTicks": 24,
          "midi": 29,
          "name": "F1",
          "ticks": 40848,
          "time": 79.78125,
          "velocity": 0.3937007874015748
        },
        {
          "duration": 0.046875,
          "durationTicks": 24,
          "midi": 71,
          "name": "B4",
          "ticks": 40848,
          "time": 79.78125,
          "velocity": 0.3937007874015748
        },
        {
          "duration": 0.046875,
          "durationTicks": 24,
          "midi": 71,
          "name": "B4",
          "ticks": 40848,
          "time": 79.78125,
          "velocity": 0.3937007874015748
        },
        {
          "duration": 0.046875,
          "durationTicks": 24,
          "midi": 41,
          "name": "F2",
          "ticks": 40848,
          "time": 79.78125,
          "velocity": 0.3937007874015748
        },
        {
          "duration": 0.046875,
          "durationTicks": 24,
          "midi": 71,
          "name": "B4",
          "ticks": 40848,
          "time": 79.78125,
          "velocity": 0.3937007874015748
        },
        {
          "duration": 0.046875,
          "durationTicks": 24,
          "midi": 83,
          "name": "B5",
          "ticks": 40872,
          "time": 79.828125,
          "velocity": 0.3937007874015748
        },
        {
          "duration": 0.046875,
          "durationTicks": 24,
          "midi": 83,
          "name": "B5",
          "ticks": 40872,
          "time": 79.828125,
          "velocity": 0.3937007874015748
        },
        {
          "duration": 0.046875,
          "durationTicks": 24,
          "midi": 83,
          "name": "B5",
          "ticks": 40872,
          "time": 79.828125,
          "velocity": 0.3937007874015748
        },
        {
          "duration": 0.046875,
          "durationTicks": 24,
          "midi": 29,
          "name": "F1",
          "ticks": 40872,
          "time": 79.828125,
          "velocity": 0.3937007874015748
        },
        {
          "duration": 0.046875,
          "durationTicks": 24,
          "midi": 71,
          "name": "B4",
          "ticks": 40872,
          "time": 79.828125,
          "velocity": 0.3937007874015748
        },
        {
          "duration": 0.046875,
          "durationTicks": 24,
          "midi": 41,
          "name": "F2",
          "ticks": 40872,
          "time": 79.828125,
          "velocity": 0.3937007874015748
        },
        {
          "duration": 0.046875,
          "durationTicks": 24,
          "midi": 29,
          "name": "F1",
          "ticks": 40872,
          "time": 79.828125,
          "velocity": 0.3937007874015748
        },
        {
          "duration": 0.046875,
          "durationTicks": 24,
          "midi": 41,
          "name": "F2",
          "ticks": 40872,
          "time": 79.828125,
          "velocity": 0.3937007874015748
        },
        {
          "duration": 0.046875,
          "durationTicks": 24,
          "midi": 71,
          "name": "B4",
          "ticks": 40872,
          "time": 79.828125,
          "velocity": 0.3937007874015748
        },
        {
          "duration": 0.046875,
          "durationTicks": 24,
          "midi": 83,
          "name": "B5",
          "ticks": 40872,
          "time": 79.828125,
          "velocity": 0.3937007874015748
        },
        {
          "duration": 0.046875,
          "durationTicks": 24,
          "midi": 41,
          "name": "F2",
          "ticks": 40872,
          "time": 79.828125,
          "velocity": 0.3937007874015748
        },
        {
          "duration": 0.046875,
          "durationTicks": 24,
          "midi": 29,
          "name": "F1",
          "ticks": 40872,
          "time": 79.828125,
          "velocity": 0.3937007874015748
        },
        {
          "duration": 0.046875,
          "durationTicks": 24,
          "midi": 71,
          "name": "B4",
          "ticks": 40872,
          "time": 79.828125,
          "velocity": 0.3937007874015748
        },
        {
          "duration": 0.046875,
          "durationTicks": 24,
          "midi": 83,
          "name": "B5",
          "ticks": 40872,
          "time": 79.828125,
          "velocity": 0.3937007874015748
        },
        {
          "duration": 0.046875,
          "durationTicks": 24,
          "midi": 41,
          "name": "F2",
          "ticks": 40872,
          "time": 79.828125,
          "velocity": 0.3937007874015748
        },
        {
          "duration": 0.046875,
          "durationTicks": 24,
          "midi": 83,
          "name": "B5",
          "ticks": 40872,
          "time": 79.828125,
          "velocity": 0.3937007874015748
        },
        {
          "duration": 0.046875,
          "durationTicks": 24,
          "midi": 71,
          "name": "B4",
          "ticks": 40872,
          "time": 79.828125,
          "velocity": 0.3937007874015748
        },
        {
          "duration": 0.046875,
          "durationTicks": 24,
          "midi": 71,
          "name": "B4",
          "ticks": 40872,
          "time": 79.828125,
          "velocity": 0.3937007874015748
        },
        {
          "duration": 0.046875,
          "durationTicks": 24,
          "midi": 29,
          "name": "F1",
          "ticks": 40872,
          "time": 79.828125,
          "velocity": 0.3937007874015748
        },
        {
          "duration": 0.046875,
          "durationTicks": 24,
          "midi": 71,
          "name": "B4",
          "ticks": 40872,
          "time": 79.828125,
          "velocity": 0.3937007874015748
        },
        {
          "duration": 0.046875,
          "durationTicks": 24,
          "midi": 29,
          "name": "F1",
          "ticks": 40896,
          "time": 79.875,
          "velocity": 0.3937007874015748
        },
        {
          "duration": 0.046875,
          "durationTicks": 24,
          "midi": 71,
          "name": "B4",
          "ticks": 40896,
          "time": 79.875,
          "velocity": 0.3937007874015748
        },
        {
          "duration": 0.046875,
          "durationTicks": 24,
          "midi": 71,
          "name": "B4",
          "ticks": 40896,
          "time": 79.875,
          "velocity": 0.3937007874015748
        },
        {
          "duration": 0.046875,
          "durationTicks": 24,
          "midi": 83,
          "name": "B5",
          "ticks": 40896,
          "time": 79.875,
          "velocity": 0.3937007874015748
        },
        {
          "duration": 0.046875,
          "durationTicks": 24,
          "midi": 83,
          "name": "B5",
          "ticks": 40896,
          "time": 79.875,
          "velocity": 0.3937007874015748
        },
        {
          "duration": 0.046875,
          "durationTicks": 24,
          "midi": 41,
          "name": "F2",
          "ticks": 40896,
          "time": 79.875,
          "velocity": 0.3937007874015748
        },
        {
          "duration": 0.046875,
          "durationTicks": 24,
          "midi": 41,
          "name": "F2",
          "ticks": 40896,
          "time": 79.875,
          "velocity": 0.3937007874015748
        },
        {
          "duration": 0.046875,
          "durationTicks": 24,
          "midi": 71,
          "name": "B4",
          "ticks": 40896,
          "time": 79.875,
          "velocity": 0.3937007874015748
        },
        {
          "duration": 0.046875,
          "durationTicks": 24,
          "midi": 71,
          "name": "B4",
          "ticks": 40896,
          "time": 79.875,
          "velocity": 0.3937007874015748
        },
        {
          "duration": 0.046875,
          "durationTicks": 24,
          "midi": 41,
          "name": "F2",
          "ticks": 40896,
          "time": 79.875,
          "velocity": 0.3937007874015748
        },
        {
          "duration": 0.046875,
          "durationTicks": 24,
          "midi": 29,
          "name": "F1",
          "ticks": 40896,
          "time": 79.875,
          "velocity": 0.3937007874015748
        },
        {
          "duration": 0.046875,
          "durationTicks": 24,
          "midi": 29,
          "name": "F1",
          "ticks": 40896,
          "time": 79.875,
          "velocity": 0.3937007874015748
        },
        {
          "duration": 0.046875,
          "durationTicks": 24,
          "midi": 41,
          "name": "F2",
          "ticks": 40896,
          "time": 79.875,
          "velocity": 0.3937007874015748
        },
        {
          "duration": 0.046875,
          "durationTicks": 24,
          "midi": 83,
          "name": "B5",
          "ticks": 40896,
          "time": 79.875,
          "velocity": 0.3937007874015748
        },
        {
          "duration": 0.046875,
          "durationTicks": 24,
          "midi": 71,
          "name": "B4",
          "ticks": 40896,
          "time": 79.875,
          "velocity": 0.3937007874015748
        },
        {
          "duration": 0.046875,
          "durationTicks": 24,
          "midi": 83,
          "name": "B5",
          "ticks": 40896,
          "time": 79.875,
          "velocity": 0.3937007874015748
        },
        {
          "duration": 0.046875,
          "durationTicks": 24,
          "midi": 29,
          "name": "F1",
          "ticks": 40896,
          "time": 79.875,
          "velocity": 0.3937007874015748
        },
        {
          "duration": 0.046875,
          "durationTicks": 24,
          "midi": 83,
          "name": "B5",
          "ticks": 40896,
          "time": 79.875,
          "velocity": 0.3937007874015748
        },
        {
          "duration": 0.046875,
          "durationTicks": 24,
          "midi": 83,
          "name": "B5",
          "ticks": 40896,
          "time": 79.875,
          "velocity": 0.3937007874015748
        },
        {
          "duration": 0.046875,
          "durationTicks": 24,
          "midi": 71,
          "name": "B4",
          "ticks": 40896,
          "time": 79.875,
          "velocity": 0.3937007874015748
        },
        {
          "duration": 0.046875,
          "durationTicks": 24,
          "midi": 83,
          "name": "B5",
          "ticks": 40920,
          "time": 79.921875,
          "velocity": 0.3937007874015748
        },
        {
          "duration": 0.046875,
          "durationTicks": 24,
          "midi": 71,
          "name": "B4",
          "ticks": 40920,
          "time": 79.921875,
          "velocity": 0.3937007874015748
        },
        {
          "duration": 0.046875,
          "durationTicks": 24,
          "midi": 83,
          "name": "B5",
          "ticks": 40920,
          "time": 79.921875,
          "velocity": 0.3937007874015748
        },
        {
          "duration": 0.046875,
          "durationTicks": 24,
          "midi": 41,
          "name": "F2",
          "ticks": 40920,
          "time": 79.921875,
          "velocity": 0.3937007874015748
        },
        {
          "duration": 0.046875,
          "durationTicks": 24,
          "midi": 29,
          "name": "F1",
          "ticks": 40920,
          "time": 79.921875,
          "velocity": 0.3937007874015748
        },
        {
          "duration": 0.046875,
          "durationTicks": 24,
          "midi": 41,
          "name": "F2",
          "ticks": 40920,
          "time": 79.921875,
          "velocity": 0.3937007874015748
        },
        {
          "duration": 0.046875,
          "durationTicks": 24,
          "midi": 41,
          "name": "F2",
          "ticks": 40920,
          "time": 79.921875,
          "velocity": 0.3937007874015748
        },
        {
          "duration": 0.046875,
          "durationTicks": 24,
          "midi": 71,
          "name": "B4",
          "ticks": 40920,
          "time": 79.921875,
          "velocity": 0.3937007874015748
        },
        {
          "duration": 0.046875,
          "durationTicks": 24,
          "midi": 71,
          "name": "B4",
          "ticks": 40920,
          "time": 79.921875,
          "velocity": 0.3937007874015748
        },
        {
          "duration": 0.046875,
          "durationTicks": 24,
          "midi": 71,
          "name": "B4",
          "ticks": 40920,
          "time": 79.921875,
          "velocity": 0.3937007874015748
        },
        {
          "duration": 0.046875,
          "durationTicks": 24,
          "midi": 71,
          "name": "B4",
          "ticks": 40920,
          "time": 79.921875,
          "velocity": 0.3937007874015748
        },
        {
          "duration": 0.046875,
          "durationTicks": 24,
          "midi": 29,
          "name": "F1",
          "ticks": 40920,
          "time": 79.921875,
          "velocity": 0.3937007874015748
        },
        {
          "duration": 0.046875,
          "durationTicks": 24,
          "midi": 83,
          "name": "B5",
          "ticks": 40920,
          "time": 79.921875,
          "velocity": 0.3937007874015748
        },
        {
          "duration": 0.046875,
          "durationTicks": 24,
          "midi": 83,
          "name": "B5",
          "ticks": 40920,
          "time": 79.921875,
          "velocity": 0.3937007874015748
        },
        {
          "duration": 0.046875,
          "durationTicks": 24,
          "midi": 83,
          "name": "B5",
          "ticks": 40920,
          "time": 79.921875,
          "velocity": 0.3937007874015748
        },
        {
          "duration": 0.046875,
          "durationTicks": 24,
          "midi": 41,
          "name": "F2",
          "ticks": 40920,
          "time": 79.921875,
          "velocity": 0.3937007874015748
        },
        {
          "duration": 0.046875,
          "durationTicks": 24,
          "midi": 83,
          "name": "B5",
          "ticks": 40920,
          "time": 79.921875,
          "velocity": 0.3937007874015748
        },
        {
          "duration": 0.046875,
          "durationTicks": 24,
          "midi": 29,
          "name": "F1",
          "ticks": 40920,
          "time": 79.921875,
          "velocity": 0.3937007874015748
        },
        {
          "duration": 0.046875,
          "durationTicks": 24,
          "midi": 29,
          "name": "F1",
          "ticks": 40920,
          "time": 79.921875,
          "velocity": 0.3937007874015748
        },
        {
          "duration": 0.046875,
          "durationTicks": 24,
          "midi": 71,
          "name": "B4",
          "ticks": 40920,
          "time": 79.921875,
          "velocity": 0.3937007874015748
        },
        {
          "duration": 0.046875,
          "durationTicks": 24,
          "midi": 29,
          "name": "F1",
          "ticks": 40944,
          "time": 79.96875,
          "velocity": 0.3937007874015748
        },
        {
          "duration": 0.046875,
          "durationTicks": 24,
          "midi": 41,
          "name": "F2",
          "ticks": 40944,
          "time": 79.96875,
          "velocity": 0.3937007874015748
        },
        {
          "duration": 0.046875,
          "durationTicks": 24,
          "midi": 29,
          "name": "F1",
          "ticks": 40944,
          "time": 79.96875,
          "velocity": 0.3937007874015748
        },
        {
          "duration": 0.046875,
          "durationTicks": 24,
          "midi": 41,
          "name": "F2",
          "ticks": 40944,
          "time": 79.96875,
          "velocity": 0.3937007874015748
        },
        {
          "duration": 0.046875,
          "durationTicks": 24,
          "midi": 41,
          "name": "F2",
          "ticks": 40944,
          "time": 79.96875,
          "velocity": 0.3937007874015748
        },
        {
          "duration": 0.046875,
          "durationTicks": 24,
          "midi": 29,
          "name": "F1",
          "ticks": 40944,
          "time": 79.96875,
          "velocity": 0.3937007874015748
        },
        {
          "duration": 0.046875,
          "durationTicks": 24,
          "midi": 41,
          "name": "F2",
          "ticks": 40944,
          "time": 79.96875,
          "velocity": 0.3937007874015748
        },
        {
          "duration": 0.046875,
          "durationTicks": 24,
          "midi": 29,
          "name": "F1",
          "ticks": 40944,
          "time": 79.96875,
          "velocity": 0.3937007874015748
        },
        {
          "duration": 0.046875,
          "durationTicks": 24,
          "midi": 41,
          "name": "F2",
          "ticks": 40968,
          "time": 80.015625,
          "velocity": 0.3937007874015748
        },
        {
          "duration": 0.046875,
          "durationTicks": 24,
          "midi": 41,
          "name": "F2",
          "ticks": 40968,
          "time": 80.015625,
          "velocity": 0.3937007874015748
        },
        {
          "duration": 0.046875,
          "durationTicks": 24,
          "midi": 41,
          "name": "F2",
          "ticks": 40968,
          "time": 80.015625,
          "velocity": 0.3937007874015748
        },
        {
          "duration": 0.046875,
          "durationTicks": 24,
          "midi": 29,
          "name": "F1",
          "ticks": 40968,
          "time": 80.015625,
          "velocity": 0.3937007874015748
        },
        {
          "duration": 0.046875,
          "durationTicks": 24,
          "midi": 29,
          "name": "F1",
          "ticks": 40968,
          "time": 80.015625,
          "velocity": 0.3937007874015748
        },
        {
          "duration": 0.046875,
          "durationTicks": 24,
          "midi": 29,
          "name": "F1",
          "ticks": 40968,
          "time": 80.015625,
          "velocity": 0.3937007874015748
        },
        {
          "duration": 0.046875,
          "durationTicks": 24,
          "midi": 41,
          "name": "F2",
          "ticks": 40968,
          "time": 80.015625,
          "velocity": 0.3937007874015748
        },
        {
          "duration": 0.046875,
          "durationTicks": 24,
          "midi": 29,
          "name": "F1",
          "ticks": 40968,
          "time": 80.015625,
          "velocity": 0.3937007874015748
        },
        {
          "duration": 0.046875,
          "durationTicks": 24,
          "midi": 41,
          "name": "F2",
          "ticks": 40992,
          "time": 80.0625,
          "velocity": 0.3937007874015748
        },
        {
          "duration": 0.046875,
          "durationTicks": 24,
          "midi": 82,
          "name": "A#5",
          "ticks": 40992,
          "time": 80.0625,
          "velocity": 0.3937007874015748
        },
        {
          "duration": 0.046875,
          "durationTicks": 24,
          "midi": 82,
          "name": "A#5",
          "ticks": 40992,
          "time": 80.0625,
          "velocity": 0.3937007874015748
        },
        {
          "duration": 0.046875,
          "durationTicks": 24,
          "midi": 82,
          "name": "A#5",
          "ticks": 40992,
          "time": 80.0625,
          "velocity": 0.3937007874015748
        },
        {
          "duration": 0.046875,
          "durationTicks": 24,
          "midi": 82,
          "name": "A#5",
          "ticks": 40992,
          "time": 80.0625,
          "velocity": 0.3937007874015748
        },
        {
          "duration": 0.046875,
          "durationTicks": 24,
          "midi": 70,
          "name": "A#4",
          "ticks": 40992,
          "time": 80.0625,
          "velocity": 0.3937007874015748
        },
        {
          "duration": 0.046875,
          "durationTicks": 24,
          "midi": 41,
          "name": "F2",
          "ticks": 40992,
          "time": 80.0625,
          "velocity": 0.3937007874015748
        },
        {
          "duration": 0.046875,
          "durationTicks": 24,
          "midi": 70,
          "name": "A#4",
          "ticks": 40992,
          "time": 80.0625,
          "velocity": 0.3937007874015748
        },
        {
          "duration": 0.046875,
          "durationTicks": 24,
          "midi": 29,
          "name": "F1",
          "ticks": 40992,
          "time": 80.0625,
          "velocity": 0.3937007874015748
        },
        {
          "duration": 0.046875,
          "durationTicks": 24,
          "midi": 82,
          "name": "A#5",
          "ticks": 40992,
          "time": 80.0625,
          "velocity": 0.3937007874015748
        },
        {
          "duration": 0.046875,
          "durationTicks": 24,
          "midi": 70,
          "name": "A#4",
          "ticks": 40992,
          "time": 80.0625,
          "velocity": 0.3937007874015748
        },
        {
          "duration": 0.046875,
          "durationTicks": 24,
          "midi": 70,
          "name": "A#4",
          "ticks": 40992,
          "time": 80.0625,
          "velocity": 0.3937007874015748
        },
        {
          "duration": 0.046875,
          "durationTicks": 24,
          "midi": 70,
          "name": "A#4",
          "ticks": 40992,
          "time": 80.0625,
          "velocity": 0.3937007874015748
        },
        {
          "duration": 0.046875,
          "durationTicks": 24,
          "midi": 82,
          "name": "A#5",
          "ticks": 40992,
          "time": 80.0625,
          "velocity": 0.3937007874015748
        },
        {
          "duration": 0.046875,
          "durationTicks": 24,
          "midi": 29,
          "name": "F1",
          "ticks": 40992,
          "time": 80.0625,
          "velocity": 0.3937007874015748
        },
        {
          "duration": 0.046875,
          "durationTicks": 24,
          "midi": 70,
          "name": "A#4",
          "ticks": 40992,
          "time": 80.0625,
          "velocity": 0.3937007874015748
        },
        {
          "duration": 0.046875,
          "durationTicks": 24,
          "midi": 82,
          "name": "A#5",
          "ticks": 41016,
          "time": 80.109375,
          "velocity": 0.3937007874015748
        },
        {
          "duration": 0.046875,
          "durationTicks": 24,
          "midi": 82,
          "name": "A#5",
          "ticks": 41016,
          "time": 80.109375,
          "velocity": 0.3937007874015748
        },
        {
          "duration": 0.046875,
          "durationTicks": 24,
          "midi": 70,
          "name": "A#4",
          "ticks": 41016,
          "time": 80.109375,
          "velocity": 0.3937007874015748
        },
        {
          "duration": 0.046875,
          "durationTicks": 24,
          "midi": 70,
          "name": "A#4",
          "ticks": 41016,
          "time": 80.109375,
          "velocity": 0.3937007874015748
        },
        {
          "duration": 0.046875,
          "durationTicks": 24,
          "midi": 70,
          "name": "A#4",
          "ticks": 41016,
          "time": 80.109375,
          "velocity": 0.3937007874015748
        },
        {
          "duration": 0.046875,
          "durationTicks": 24,
          "midi": 70,
          "name": "A#4",
          "ticks": 41016,
          "time": 80.109375,
          "velocity": 0.3937007874015748
        },
        {
          "duration": 0.046875,
          "durationTicks": 24,
          "midi": 29,
          "name": "F1",
          "ticks": 41016,
          "time": 80.109375,
          "velocity": 0.3937007874015748
        },
        {
          "duration": 0.046875,
          "durationTicks": 24,
          "midi": 41,
          "name": "F2",
          "ticks": 41016,
          "time": 80.109375,
          "velocity": 0.3937007874015748
        },
        {
          "duration": 0.046875,
          "durationTicks": 24,
          "midi": 82,
          "name": "A#5",
          "ticks": 41016,
          "time": 80.109375,
          "velocity": 0.3937007874015748
        },
        {
          "duration": 0.046875,
          "durationTicks": 24,
          "midi": 82,
          "name": "A#5",
          "ticks": 41016,
          "time": 80.109375,
          "velocity": 0.3937007874015748
        },
        {
          "duration": 0.046875,
          "durationTicks": 24,
          "midi": 70,
          "name": "A#4",
          "ticks": 41016,
          "time": 80.109375,
          "velocity": 0.3937007874015748
        },
        {
          "duration": 0.046875,
          "durationTicks": 24,
          "midi": 70,
          "name": "A#4",
          "ticks": 41016,
          "time": 80.109375,
          "velocity": 0.3937007874015748
        },
        {
          "duration": 0.046875,
          "durationTicks": 24,
          "midi": 82,
          "name": "A#5",
          "ticks": 41016,
          "time": 80.109375,
          "velocity": 0.3937007874015748
        },
        {
          "duration": 0.046875,
          "durationTicks": 24,
          "midi": 82,
          "name": "A#5",
          "ticks": 41016,
          "time": 80.109375,
          "velocity": 0.3937007874015748
        },
        {
          "duration": 0.046875,
          "durationTicks": 24,
          "midi": 41,
          "name": "F2",
          "ticks": 41016,
          "time": 80.109375,
          "velocity": 0.3937007874015748
        },
        {
          "duration": 0.046875,
          "durationTicks": 24,
          "midi": 29,
          "name": "F1",
          "ticks": 41016,
          "time": 80.109375,
          "velocity": 0.3937007874015748
        },
        {
          "duration": 0.046875,
          "durationTicks": 24,
          "midi": 82,
          "name": "A#5",
          "ticks": 41040,
          "time": 80.15625,
          "velocity": 0.3937007874015748
        },
        {
          "duration": 0.046875,
          "durationTicks": 24,
          "midi": 70,
          "name": "A#4",
          "ticks": 41040,
          "time": 80.15625,
          "velocity": 0.3937007874015748
        },
        {
          "duration": 0.046875,
          "durationTicks": 24,
          "midi": 70,
          "name": "A#4",
          "ticks": 41040,
          "time": 80.15625,
          "velocity": 0.3937007874015748
        },
        {
          "duration": 0.046875,
          "durationTicks": 24,
          "midi": 29,
          "name": "F1",
          "ticks": 41040,
          "time": 80.15625,
          "velocity": 0.3937007874015748
        },
        {
          "duration": 0.046875,
          "durationTicks": 24,
          "midi": 70,
          "name": "A#4",
          "ticks": 41040,
          "time": 80.15625,
          "velocity": 0.3937007874015748
        },
        {
          "duration": 0.046875,
          "durationTicks": 24,
          "midi": 82,
          "name": "A#5",
          "ticks": 41040,
          "time": 80.15625,
          "velocity": 0.3937007874015748
        },
        {
          "duration": 0.046875,
          "durationTicks": 24,
          "midi": 29,
          "name": "F1",
          "ticks": 41040,
          "time": 80.15625,
          "velocity": 0.3937007874015748
        },
        {
          "duration": 0.046875,
          "durationTicks": 24,
          "midi": 41,
          "name": "F2",
          "ticks": 41040,
          "time": 80.15625,
          "velocity": 0.3937007874015748
        },
        {
          "duration": 0.046875,
          "durationTicks": 24,
          "midi": 82,
          "name": "A#5",
          "ticks": 41040,
          "time": 80.15625,
          "velocity": 0.3937007874015748
        },
        {
          "duration": 0.046875,
          "durationTicks": 24,
          "midi": 70,
          "name": "A#4",
          "ticks": 41040,
          "time": 80.15625,
          "velocity": 0.3937007874015748
        },
        {
          "duration": 0.046875,
          "durationTicks": 24,
          "midi": 82,
          "name": "A#5",
          "ticks": 41040,
          "time": 80.15625,
          "velocity": 0.3937007874015748
        },
        {
          "duration": 0.046875,
          "durationTicks": 24,
          "midi": 82,
          "name": "A#5",
          "ticks": 41040,
          "time": 80.15625,
          "velocity": 0.3937007874015748
        },
        {
          "duration": 0.046875,
          "durationTicks": 24,
          "midi": 70,
          "name": "A#4",
          "ticks": 41040,
          "time": 80.15625,
          "velocity": 0.3937007874015748
        },
        {
          "duration": 0.046875,
          "durationTicks": 24,
          "midi": 41,
          "name": "F2",
          "ticks": 41040,
          "time": 80.15625,
          "velocity": 0.3937007874015748
        },
        {
          "duration": 0.046875,
          "durationTicks": 24,
          "midi": 70,
          "name": "A#4",
          "ticks": 41040,
          "time": 80.15625,
          "velocity": 0.3937007874015748
        },
        {
          "duration": 0.046875,
          "durationTicks": 24,
          "midi": 82,
          "name": "A#5",
          "ticks": 41040,
          "time": 80.15625,
          "velocity": 0.3937007874015748
        },
        {
          "duration": 0.046875,
          "durationTicks": 24,
          "midi": 82,
          "name": "A#5",
          "ticks": 41064,
          "time": 80.203125,
          "velocity": 0.3937007874015748
        },
        {
          "duration": 0.046875,
          "durationTicks": 24,
          "midi": 70,
          "name": "A#4",
          "ticks": 41064,
          "time": 80.203125,
          "velocity": 0.3937007874015748
        },
        {
          "duration": 0.046875,
          "durationTicks": 24,
          "midi": 70,
          "name": "A#4",
          "ticks": 41064,
          "time": 80.203125,
          "velocity": 0.3937007874015748
        },
        {
          "duration": 0.046875,
          "durationTicks": 24,
          "midi": 70,
          "name": "A#4",
          "ticks": 41064,
          "time": 80.203125,
          "velocity": 0.3937007874015748
        },
        {
          "duration": 0.046875,
          "durationTicks": 24,
          "midi": 29,
          "name": "F1",
          "ticks": 41064,
          "time": 80.203125,
          "velocity": 0.3937007874015748
        },
        {
          "duration": 0.046875,
          "durationTicks": 24,
          "midi": 70,
          "name": "A#4",
          "ticks": 41064,
          "time": 80.203125,
          "velocity": 0.3937007874015748
        },
        {
          "duration": 0.046875,
          "durationTicks": 24,
          "midi": 82,
          "name": "A#5",
          "ticks": 41064,
          "time": 80.203125,
          "velocity": 0.3937007874015748
        },
        {
          "duration": 0.046875,
          "durationTicks": 24,
          "midi": 29,
          "name": "F1",
          "ticks": 41064,
          "time": 80.203125,
          "velocity": 0.3937007874015748
        },
        {
          "duration": 0.046875,
          "durationTicks": 24,
          "midi": 82,
          "name": "A#5",
          "ticks": 41064,
          "time": 80.203125,
          "velocity": 0.3937007874015748
        },
        {
          "duration": 0.046875,
          "durationTicks": 24,
          "midi": 41,
          "name": "F2",
          "ticks": 41064,
          "time": 80.203125,
          "velocity": 0.3937007874015748
        },
        {
          "duration": 0.046875,
          "durationTicks": 24,
          "midi": 82,
          "name": "A#5",
          "ticks": 41064,
          "time": 80.203125,
          "velocity": 0.3937007874015748
        },
        {
          "duration": 0.046875,
          "durationTicks": 24,
          "midi": 82,
          "name": "A#5",
          "ticks": 41064,
          "time": 80.203125,
          "velocity": 0.3937007874015748
        },
        {
          "duration": 0.046875,
          "durationTicks": 24,
          "midi": 41,
          "name": "F2",
          "ticks": 41064,
          "time": 80.203125,
          "velocity": 0.3937007874015748
        },
        {
          "duration": 0.046875,
          "durationTicks": 24,
          "midi": 82,
          "name": "A#5",
          "ticks": 41064,
          "time": 80.203125,
          "velocity": 0.3937007874015748
        },
        {
          "duration": 0.046875,
          "durationTicks": 24,
          "midi": 70,
          "name": "A#4",
          "ticks": 41064,
          "time": 80.203125,
          "velocity": 0.3937007874015748
        },
        {
          "duration": 0.046875,
          "durationTicks": 24,
          "midi": 70,
          "name": "A#4",
          "ticks": 41064,
          "time": 80.203125,
          "velocity": 0.3937007874015748
        },
        {
          "duration": 0.046875,
          "durationTicks": 24,
          "midi": 53,
          "name": "F3",
          "ticks": 41088,
          "time": 80.25,
          "velocity": 0.3937007874015748
        },
        {
          "duration": 0.046875,
          "durationTicks": 24,
          "midi": 53,
          "name": "F3",
          "ticks": 41088,
          "time": 80.25,
          "velocity": 0.3937007874015748
        },
        {
          "duration": 0.046875,
          "durationTicks": 24,
          "midi": 49,
          "name": "C#3",
          "ticks": 41088,
          "time": 80.25,
          "velocity": 0.3937007874015748
        },
        {
          "duration": 0.046875,
          "durationTicks": 24,
          "midi": 49,
          "name": "C#3",
          "ticks": 41088,
          "time": 80.25,
          "velocity": 0.3937007874015748
        },
        {
          "duration": 0.046875,
          "durationTicks": 24,
          "midi": 53,
          "name": "F3",
          "ticks": 41088,
          "time": 80.25,
          "velocity": 0.3937007874015748
        },
        {
          "duration": 0.046875,
          "durationTicks": 24,
          "midi": 49,
          "name": "C#3",
          "ticks": 41088,
          "time": 80.25,
          "velocity": 0.3937007874015748
        },
        {
          "duration": 0.046875,
          "durationTicks": 24,
          "midi": 53,
          "name": "F3",
          "ticks": 41088,
          "time": 80.25,
          "velocity": 0.3937007874015748
        },
        {
          "duration": 0.046875,
          "durationTicks": 24,
          "midi": 53,
          "name": "F3",
          "ticks": 41088,
          "time": 80.25,
          "velocity": 0.3937007874015748
        },
        {
          "duration": 0.046875,
          "durationTicks": 24,
          "midi": 49,
          "name": "C#3",
          "ticks": 41088,
          "time": 80.25,
          "velocity": 0.3937007874015748
        },
        {
          "duration": 0.046875,
          "durationTicks": 24,
          "midi": 49,
          "name": "C#3",
          "ticks": 41088,
          "time": 80.25,
          "velocity": 0.3937007874015748
        },
        {
          "duration": 0.046875,
          "durationTicks": 24,
          "midi": 49,
          "name": "C#3",
          "ticks": 41088,
          "time": 80.25,
          "velocity": 0.3937007874015748
        },
        {
          "duration": 0.046875,
          "durationTicks": 24,
          "midi": 53,
          "name": "F3",
          "ticks": 41088,
          "time": 80.25,
          "velocity": 0.3937007874015748
        },
        {
          "duration": 0.046875,
          "durationTicks": 24,
          "midi": 49,
          "name": "C#3",
          "ticks": 41112,
          "time": 80.296875,
          "velocity": 0.3937007874015748
        },
        {
          "duration": 0.046875,
          "durationTicks": 24,
          "midi": 73,
          "name": "C#5",
          "ticks": 41112,
          "time": 80.296875,
          "velocity": 0.3937007874015748
        },
        {
          "duration": 0.046875,
          "durationTicks": 24,
          "midi": 53,
          "name": "F3",
          "ticks": 41112,
          "time": 80.296875,
          "velocity": 0.3937007874015748
        },
        {
          "duration": 0.046875,
          "durationTicks": 24,
          "midi": 85,
          "name": "C#6",
          "ticks": 41112,
          "time": 80.296875,
          "velocity": 0.3937007874015748
        },
        {
          "duration": 0.046875,
          "durationTicks": 24,
          "midi": 53,
          "name": "F3",
          "ticks": 41112,
          "time": 80.296875,
          "velocity": 0.3937007874015748
        },
        {
          "duration": 0.046875,
          "durationTicks": 24,
          "midi": 73,
          "name": "C#5",
          "ticks": 41112,
          "time": 80.296875,
          "velocity": 0.3937007874015748
        },
        {
          "duration": 0.046875,
          "durationTicks": 24,
          "midi": 49,
          "name": "C#3",
          "ticks": 41112,
          "time": 80.296875,
          "velocity": 0.3937007874015748
        },
        {
          "duration": 0.046875,
          "durationTicks": 24,
          "midi": 53,
          "name": "F3",
          "ticks": 41112,
          "time": 80.296875,
          "velocity": 0.3937007874015748
        },
        {
          "duration": 0.046875,
          "durationTicks": 24,
          "midi": 49,
          "name": "C#3",
          "ticks": 41112,
          "time": 80.296875,
          "velocity": 0.3937007874015748
        },
        {
          "duration": 0.046875,
          "durationTicks": 24,
          "midi": 73,
          "name": "C#5",
          "ticks": 41112,
          "time": 80.296875,
          "velocity": 0.3937007874015748
        },
        {
          "duration": 0.046875,
          "durationTicks": 24,
          "midi": 85,
          "name": "C#6",
          "ticks": 41112,
          "time": 80.296875,
          "velocity": 0.3937007874015748
        },
        {
          "duration": 0.046875,
          "durationTicks": 24,
          "midi": 85,
          "name": "C#6",
          "ticks": 41112,
          "time": 80.296875,
          "velocity": 0.3937007874015748
        },
        {
          "duration": 0.046875,
          "durationTicks": 24,
          "midi": 73,
          "name": "C#5",
          "ticks": 41112,
          "time": 80.296875,
          "velocity": 0.3937007874015748
        },
        {
          "duration": 0.046875,
          "durationTicks": 24,
          "midi": 85,
          "name": "C#6",
          "ticks": 41112,
          "time": 80.296875,
          "velocity": 0.3937007874015748
        },
        {
          "duration": 0.046875,
          "durationTicks": 24,
          "midi": 49,
          "name": "C#3",
          "ticks": 41112,
          "time": 80.296875,
          "velocity": 0.3937007874015748
        },
        {
          "duration": 0.046875,
          "durationTicks": 24,
          "midi": 53,
          "name": "F3",
          "ticks": 41112,
          "time": 80.296875,
          "velocity": 0.3937007874015748
        },
        {
          "duration": 0.046875,
          "durationTicks": 24,
          "midi": 53,
          "name": "F3",
          "ticks": 41112,
          "time": 80.296875,
          "velocity": 0.3937007874015748
        },
        {
          "duration": 0.046875,
          "durationTicks": 24,
          "midi": 73,
          "name": "C#5",
          "ticks": 41112,
          "time": 80.296875,
          "velocity": 0.3937007874015748
        },
        {
          "duration": 0.046875,
          "durationTicks": 24,
          "midi": 49,
          "name": "C#3",
          "ticks": 41112,
          "time": 80.296875,
          "velocity": 0.3937007874015748
        },
        {
          "duration": 0.046875,
          "durationTicks": 24,
          "midi": 73,
          "name": "C#5",
          "ticks": 41112,
          "time": 80.296875,
          "velocity": 0.3937007874015748
        },
        {
          "duration": 0.046875,
          "durationTicks": 24,
          "midi": 49,
          "name": "C#3",
          "ticks": 41112,
          "time": 80.296875,
          "velocity": 0.3937007874015748
        },
        {
          "duration": 0.046875,
          "durationTicks": 24,
          "midi": 85,
          "name": "C#6",
          "ticks": 41112,
          "time": 80.296875,
          "velocity": 0.3937007874015748
        },
        {
          "duration": 0.046875,
          "durationTicks": 24,
          "midi": 53,
          "name": "F3",
          "ticks": 41112,
          "time": 80.296875,
          "velocity": 0.3937007874015748
        },
        {
          "duration": 0.046875,
          "durationTicks": 24,
          "midi": 85,
          "name": "C#6",
          "ticks": 41112,
          "time": 80.296875,
          "velocity": 0.3937007874015748
        },
        {
          "duration": 0.046875,
          "durationTicks": 24,
          "midi": 73,
          "name": "C#5",
          "ticks": 41136,
          "time": 80.34375,
          "velocity": 0.3937007874015748
        },
        {
          "duration": 0.046875,
          "durationTicks": 24,
          "midi": 85,
          "name": "C#6",
          "ticks": 41136,
          "time": 80.34375,
          "velocity": 0.3937007874015748
        },
        {
          "duration": 0.046875,
          "durationTicks": 24,
          "midi": 53,
          "name": "F3",
          "ticks": 41136,
          "time": 80.34375,
          "velocity": 0.3937007874015748
        },
        {
          "duration": 0.046875,
          "durationTicks": 24,
          "midi": 49,
          "name": "C#3",
          "ticks": 41136,
          "time": 80.34375,
          "velocity": 0.3937007874015748
        },
        {
          "duration": 0.046875,
          "durationTicks": 24,
          "midi": 49,
          "name": "C#3",
          "ticks": 41136,
          "time": 80.34375,
          "velocity": 0.3937007874015748
        },
        {
          "duration": 0.046875,
          "durationTicks": 24,
          "midi": 73,
          "name": "C#5",
          "ticks": 41136,
          "time": 80.34375,
          "velocity": 0.3937007874015748
        },
        {
          "duration": 0.046875,
          "durationTicks": 24,
          "midi": 53,
          "name": "F3",
          "ticks": 41136,
          "time": 80.34375,
          "velocity": 0.3937007874015748
        },
        {
          "duration": 0.046875,
          "durationTicks": 24,
          "midi": 49,
          "name": "C#3",
          "ticks": 41136,
          "time": 80.34375,
          "velocity": 0.3937007874015748
        },
        {
          "duration": 0.046875,
          "durationTicks": 24,
          "midi": 73,
          "name": "C#5",
          "ticks": 41136,
          "time": 80.34375,
          "velocity": 0.3937007874015748
        },
        {
          "duration": 0.046875,
          "durationTicks": 24,
          "midi": 85,
          "name": "C#6",
          "ticks": 41136,
          "time": 80.34375,
          "velocity": 0.3937007874015748
        },
        {
          "duration": 0.046875,
          "durationTicks": 24,
          "midi": 49,
          "name": "C#3",
          "ticks": 41136,
          "time": 80.34375,
          "velocity": 0.3937007874015748
        },
        {
          "duration": 0.046875,
          "durationTicks": 24,
          "midi": 73,
          "name": "C#5",
          "ticks": 41136,
          "time": 80.34375,
          "velocity": 0.3937007874015748
        },
        {
          "duration": 0.046875,
          "durationTicks": 24,
          "midi": 53,
          "name": "F3",
          "ticks": 41136,
          "time": 80.34375,
          "velocity": 0.3937007874015748
        },
        {
          "duration": 0.046875,
          "durationTicks": 24,
          "midi": 73,
          "name": "C#5",
          "ticks": 41136,
          "time": 80.34375,
          "velocity": 0.3937007874015748
        },
        {
          "duration": 0.046875,
          "durationTicks": 24,
          "midi": 53,
          "name": "F3",
          "ticks": 41136,
          "time": 80.34375,
          "velocity": 0.3937007874015748
        },
        {
          "duration": 0.046875,
          "durationTicks": 24,
          "midi": 49,
          "name": "C#3",
          "ticks": 41136,
          "time": 80.34375,
          "velocity": 0.3937007874015748
        },
        {
          "duration": 0.046875,
          "durationTicks": 24,
          "midi": 49,
          "name": "C#3",
          "ticks": 41136,
          "time": 80.34375,
          "velocity": 0.3937007874015748
        },
        {
          "duration": 0.046875,
          "durationTicks": 24,
          "midi": 73,
          "name": "C#5",
          "ticks": 41136,
          "time": 80.34375,
          "velocity": 0.3937007874015748
        },
        {
          "duration": 0.046875,
          "durationTicks": 24,
          "midi": 85,
          "name": "C#6",
          "ticks": 41136,
          "time": 80.34375,
          "velocity": 0.3937007874015748
        },
        {
          "duration": 0.046875,
          "durationTicks": 24,
          "midi": 85,
          "name": "C#6",
          "ticks": 41136,
          "time": 80.34375,
          "velocity": 0.3937007874015748
        },
        {
          "duration": 0.046875,
          "durationTicks": 24,
          "midi": 85,
          "name": "C#6",
          "ticks": 41136,
          "time": 80.34375,
          "velocity": 0.3937007874015748
        },
        {
          "duration": 0.046875,
          "durationTicks": 24,
          "midi": 53,
          "name": "F3",
          "ticks": 41136,
          "time": 80.34375,
          "velocity": 0.3937007874015748
        },
        {
          "duration": 0.046875,
          "durationTicks": 24,
          "midi": 53,
          "name": "F3",
          "ticks": 41136,
          "time": 80.34375,
          "velocity": 0.3937007874015748
        },
        {
          "duration": 0.046875,
          "durationTicks": 24,
          "midi": 85,
          "name": "C#6",
          "ticks": 41136,
          "time": 80.34375,
          "velocity": 0.3937007874015748
        },
        {
          "duration": 0.046875,
          "durationTicks": 24,
          "midi": 49,
          "name": "C#3",
          "ticks": 41160,
          "time": 80.390625,
          "velocity": 0.3937007874015748
        },
        {
          "duration": 0.046875,
          "durationTicks": 24,
          "midi": 85,
          "name": "C#6",
          "ticks": 41160,
          "time": 80.390625,
          "velocity": 0.3937007874015748
        },
        {
          "duration": 0.046875,
          "durationTicks": 24,
          "midi": 73,
          "name": "C#5",
          "ticks": 41160,
          "time": 80.390625,
          "velocity": 0.3937007874015748
        },
        {
          "duration": 0.046875,
          "durationTicks": 24,
          "midi": 49,
          "name": "C#3",
          "ticks": 41160,
          "time": 80.390625,
          "velocity": 0.3937007874015748
        },
        {
          "duration": 0.046875,
          "durationTicks": 24,
          "midi": 85,
          "name": "C#6",
          "ticks": 41160,
          "time": 80.390625,
          "velocity": 0.3937007874015748
        },
        {
          "duration": 0.046875,
          "durationTicks": 24,
          "midi": 73,
          "name": "C#5",
          "ticks": 41160,
          "time": 80.390625,
          "velocity": 0.3937007874015748
        },
        {
          "duration": 0.046875,
          "durationTicks": 24,
          "midi": 85,
          "name": "C#6",
          "ticks": 41160,
          "time": 80.390625,
          "velocity": 0.3937007874015748
        },
        {
          "duration": 0.046875,
          "durationTicks": 24,
          "midi": 53,
          "name": "F3",
          "ticks": 41160,
          "time": 80.390625,
          "velocity": 0.3937007874015748
        },
        {
          "duration": 0.046875,
          "durationTicks": 24,
          "midi": 85,
          "name": "C#6",
          "ticks": 41160,
          "time": 80.390625,
          "velocity": 0.3937007874015748
        },
        {
          "duration": 0.046875,
          "durationTicks": 24,
          "midi": 85,
          "name": "C#6",
          "ticks": 41160,
          "time": 80.390625,
          "velocity": 0.3937007874015748
        },
        {
          "duration": 0.046875,
          "durationTicks": 24,
          "midi": 49,
          "name": "C#3",
          "ticks": 41160,
          "time": 80.390625,
          "velocity": 0.3937007874015748
        },
        {
          "duration": 0.046875,
          "durationTicks": 24,
          "midi": 49,
          "name": "C#3",
          "ticks": 41160,
          "time": 80.390625,
          "velocity": 0.3937007874015748
        },
        {
          "duration": 0.046875,
          "durationTicks": 24,
          "midi": 73,
          "name": "C#5",
          "ticks": 41160,
          "time": 80.390625,
          "velocity": 0.3937007874015748
        },
        {
          "duration": 0.046875,
          "durationTicks": 24,
          "midi": 85,
          "name": "C#6",
          "ticks": 41160,
          "time": 80.390625,
          "velocity": 0.3937007874015748
        },
        {
          "duration": 0.046875,
          "durationTicks": 24,
          "midi": 53,
          "name": "F3",
          "ticks": 41160,
          "time": 80.390625,
          "velocity": 0.3937007874015748
        },
        {
          "duration": 0.046875,
          "durationTicks": 24,
          "midi": 73,
          "name": "C#5",
          "ticks": 41160,
          "time": 80.390625,
          "velocity": 0.3937007874015748
        },
        {
          "duration": 0.046875,
          "durationTicks": 24,
          "midi": 49,
          "name": "C#3",
          "ticks": 41160,
          "time": 80.390625,
          "velocity": 0.3937007874015748
        },
        {
          "duration": 0.046875,
          "durationTicks": 24,
          "midi": 73,
          "name": "C#5",
          "ticks": 41160,
          "time": 80.390625,
          "velocity": 0.3937007874015748
        },
        {
          "duration": 0.046875,
          "durationTicks": 24,
          "midi": 53,
          "name": "F3",
          "ticks": 41160,
          "time": 80.390625,
          "velocity": 0.3937007874015748
        },
        {
          "duration": 0.046875,
          "durationTicks": 24,
          "midi": 53,
          "name": "F3",
          "ticks": 41160,
          "time": 80.390625,
          "velocity": 0.3937007874015748
        },
        {
          "duration": 0.046875,
          "durationTicks": 24,
          "midi": 53,
          "name": "F3",
          "ticks": 41160,
          "time": 80.390625,
          "velocity": 0.3937007874015748
        },
        {
          "duration": 0.046875,
          "durationTicks": 24,
          "midi": 73,
          "name": "C#5",
          "ticks": 41160,
          "time": 80.390625,
          "velocity": 0.3937007874015748
        },
        {
          "duration": 0.046875,
          "durationTicks": 24,
          "midi": 53,
          "name": "F3",
          "ticks": 41160,
          "time": 80.390625,
          "velocity": 0.3937007874015748
        },
        {
          "duration": 0.046875,
          "durationTicks": 24,
          "midi": 49,
          "name": "C#3",
          "ticks": 41160,
          "time": 80.390625,
          "velocity": 0.3937007874015748
        },
        {
          "duration": 0.046875,
          "durationTicks": 24,
          "midi": 73,
          "name": "C#5",
          "ticks": 41184,
          "time": 80.4375,
          "velocity": 0.3937007874015748
        },
        {
          "duration": 0.046875,
          "durationTicks": 24,
          "midi": 85,
          "name": "C#6",
          "ticks": 41184,
          "time": 80.4375,
          "velocity": 0.3937007874015748
        },
        {
          "duration": 0.046875,
          "durationTicks": 24,
          "midi": 85,
          "name": "C#6",
          "ticks": 41184,
          "time": 80.4375,
          "velocity": 0.3937007874015748
        },
        {
          "duration": 0.046875,
          "durationTicks": 24,
          "midi": 73,
          "name": "C#5",
          "ticks": 41184,
          "time": 80.4375,
          "velocity": 0.3937007874015748
        },
        {
          "duration": 0.046875,
          "durationTicks": 24,
          "midi": 53,
          "name": "F3",
          "ticks": 41184,
          "time": 80.4375,
          "velocity": 0.3937007874015748
        },
        {
          "duration": 0.046875,
          "durationTicks": 24,
          "midi": 73,
          "name": "C#5",
          "ticks": 41184,
          "time": 80.4375,
          "velocity": 0.3937007874015748
        },
        {
          "duration": 0.046875,
          "durationTicks": 24,
          "midi": 85,
          "name": "C#6",
          "ticks": 41184,
          "time": 80.4375,
          "velocity": 0.3937007874015748
        },
        {
          "duration": 0.046875,
          "durationTicks": 24,
          "midi": 49,
          "name": "C#3",
          "ticks": 41184,
          "time": 80.4375,
          "velocity": 0.3937007874015748
        },
        {
          "duration": 0.046875,
          "durationTicks": 24,
          "midi": 73,
          "name": "C#5",
          "ticks": 41184,
          "time": 80.4375,
          "velocity": 0.3937007874015748
        },
        {
          "duration": 0.046875,
          "durationTicks": 24,
          "midi": 85,
          "name": "C#6",
          "ticks": 41184,
          "time": 80.4375,
          "velocity": 0.3937007874015748
        },
        {
          "duration": 0.046875,
          "durationTicks": 24,
          "midi": 53,
          "name": "F3",
          "ticks": 41184,
          "time": 80.4375,
          "velocity": 0.3937007874015748
        },
        {
          "duration": 0.046875,
          "durationTicks": 24,
          "midi": 53,
          "name": "F3",
          "ticks": 41184,
          "time": 80.4375,
          "velocity": 0.3937007874015748
        },
        {
          "duration": 0.046875,
          "durationTicks": 24,
          "midi": 53,
          "name": "F3",
          "ticks": 41184,
          "time": 80.4375,
          "velocity": 0.3937007874015748
        },
        {
          "duration": 0.046875,
          "durationTicks": 24,
          "midi": 49,
          "name": "C#3",
          "ticks": 41184,
          "time": 80.4375,
          "velocity": 0.3937007874015748
        },
        {
          "duration": 0.046875,
          "durationTicks": 24,
          "midi": 85,
          "name": "C#6",
          "ticks": 41184,
          "time": 80.4375,
          "velocity": 0.3937007874015748
        },
        {
          "duration": 0.046875,
          "durationTicks": 24,
          "midi": 73,
          "name": "C#5",
          "ticks": 41184,
          "time": 80.4375,
          "velocity": 0.3937007874015748
        },
        {
          "duration": 0.046875,
          "durationTicks": 24,
          "midi": 49,
          "name": "C#3",
          "ticks": 41184,
          "time": 80.4375,
          "velocity": 0.3937007874015748
        },
        {
          "duration": 0.046875,
          "durationTicks": 24,
          "midi": 73,
          "name": "C#5",
          "ticks": 41184,
          "time": 80.4375,
          "velocity": 0.3937007874015748
        },
        {
          "duration": 0.046875,
          "durationTicks": 24,
          "midi": 49,
          "name": "C#3",
          "ticks": 41184,
          "time": 80.4375,
          "velocity": 0.3937007874015748
        },
        {
          "duration": 0.046875,
          "durationTicks": 24,
          "midi": 85,
          "name": "C#6",
          "ticks": 41184,
          "time": 80.4375,
          "velocity": 0.3937007874015748
        },
        {
          "duration": 0.046875,
          "durationTicks": 24,
          "midi": 53,
          "name": "F3",
          "ticks": 41208,
          "time": 80.484375,
          "velocity": 0.3937007874015748
        },
        {
          "duration": 0.046875,
          "durationTicks": 24,
          "midi": 49,
          "name": "C#3",
          "ticks": 41208,
          "time": 80.484375,
          "velocity": 0.3937007874015748
        },
        {
          "duration": 0.046875,
          "durationTicks": 24,
          "midi": 49,
          "name": "C#3",
          "ticks": 41208,
          "time": 80.484375,
          "velocity": 0.3937007874015748
        },
        {
          "duration": 0.046875,
          "durationTicks": 24,
          "midi": 53,
          "name": "F3",
          "ticks": 41208,
          "time": 80.484375,
          "velocity": 0.3937007874015748
        },
        {
          "duration": 0.046875,
          "durationTicks": 24,
          "midi": 49,
          "name": "C#3",
          "ticks": 41208,
          "time": 80.484375,
          "velocity": 0.3937007874015748
        },
        {
          "duration": 0.046875,
          "durationTicks": 24,
          "midi": 49,
          "name": "C#3",
          "ticks": 41208,
          "time": 80.484375,
          "velocity": 0.3937007874015748
        },
        {
          "duration": 0.046875,
          "durationTicks": 24,
          "midi": 53,
          "name": "F3",
          "ticks": 41208,
          "time": 80.484375,
          "velocity": 0.3937007874015748
        },
        {
          "duration": 0.046875,
          "durationTicks": 24,
          "midi": 53,
          "name": "F3",
          "ticks": 41208,
          "time": 80.484375,
          "velocity": 0.3937007874015748
        },
        {
          "duration": 0.046875,
          "durationTicks": 24,
          "midi": 71,
          "name": "B4",
          "ticks": 41232,
          "time": 80.53125,
          "velocity": 0.3937007874015748
        },
        {
          "duration": 0.046875,
          "durationTicks": 24,
          "midi": 71,
          "name": "B4",
          "ticks": 41232,
          "time": 80.53125,
          "velocity": 0.3937007874015748
        },
        {
          "duration": 0.046875,
          "durationTicks": 24,
          "midi": 83,
          "name": "B5",
          "ticks": 41232,
          "time": 80.53125,
          "velocity": 0.3937007874015748
        },
        {
          "duration": 0.046875,
          "durationTicks": 24,
          "midi": 49,
          "name": "C#3",
          "ticks": 41232,
          "time": 80.53125,
          "velocity": 0.3937007874015748
        },
        {
          "duration": 0.046875,
          "durationTicks": 24,
          "midi": 49,
          "name": "C#3",
          "ticks": 41232,
          "time": 80.53125,
          "velocity": 0.3937007874015748
        },
        {
          "duration": 0.046875,
          "durationTicks": 24,
          "midi": 83,
          "name": "B5",
          "ticks": 41232,
          "time": 80.53125,
          "velocity": 0.3937007874015748
        },
        {
          "duration": 0.046875,
          "durationTicks": 24,
          "midi": 53,
          "name": "F3",
          "ticks": 41232,
          "time": 80.53125,
          "velocity": 0.3937007874015748
        },
        {
          "duration": 0.046875,
          "durationTicks": 24,
          "midi": 83,
          "name": "B5",
          "ticks": 41232,
          "time": 80.53125,
          "velocity": 0.3937007874015748
        },
        {
          "duration": 0.046875,
          "durationTicks": 24,
          "midi": 53,
          "name": "F3",
          "ticks": 41232,
          "time": 80.53125,
          "velocity": 0.3937007874015748
        },
        {
          "duration": 0.046875,
          "durationTicks": 24,
          "midi": 71,
          "name": "B4",
          "ticks": 41232,
          "time": 80.53125,
          "velocity": 0.3937007874015748
        },
        {
          "duration": 0.046875,
          "durationTicks": 24,
          "midi": 49,
          "name": "C#3",
          "ticks": 41232,
          "time": 80.53125,
          "velocity": 0.3937007874015748
        },
        {
          "duration": 0.046875,
          "durationTicks": 24,
          "midi": 83,
          "name": "B5",
          "ticks": 41232,
          "time": 80.53125,
          "velocity": 0.3937007874015748
        },
        {
          "duration": 0.046875,
          "durationTicks": 24,
          "midi": 71,
          "name": "B4",
          "ticks": 41232,
          "time": 80.53125,
          "velocity": 0.3937007874015748
        },
        {
          "duration": 0.046875,
          "durationTicks": 24,
          "midi": 83,
          "name": "B5",
          "ticks": 41232,
          "time": 80.53125,
          "velocity": 0.3937007874015748
        },
        {
          "duration": 0.046875,
          "durationTicks": 24,
          "midi": 71,
          "name": "B4",
          "ticks": 41232,
          "time": 80.53125,
          "velocity": 0.3937007874015748
        },
        {
          "duration": 0.046875,
          "durationTicks": 24,
          "midi": 53,
          "name": "F3",
          "ticks": 41232,
          "time": 80.53125,
          "velocity": 0.3937007874015748
        },
        {
          "duration": 0.046875,
          "durationTicks": 24,
          "midi": 53,
          "name": "F3",
          "ticks": 41232,
          "time": 80.53125,
          "velocity": 0.3937007874015748
        },
        {
          "duration": 0.046875,
          "durationTicks": 24,
          "midi": 71,
          "name": "B4",
          "ticks": 41232,
          "time": 80.53125,
          "velocity": 0.3937007874015748
        },
        {
          "duration": 0.046875,
          "durationTicks": 24,
          "midi": 83,
          "name": "B5",
          "ticks": 41232,
          "time": 80.53125,
          "velocity": 0.3937007874015748
        },
        {
          "duration": 0.046875,
          "durationTicks": 24,
          "midi": 49,
          "name": "C#3",
          "ticks": 41232,
          "time": 80.53125,
          "velocity": 0.3937007874015748
        },
        {
          "duration": 0.046875,
          "durationTicks": 24,
          "midi": 83,
          "name": "B5",
          "ticks": 41256,
          "time": 80.578125,
          "velocity": 0.3937007874015748
        },
        {
          "duration": 0.046875,
          "durationTicks": 24,
          "midi": 53,
          "name": "F3",
          "ticks": 41256,
          "time": 80.578125,
          "velocity": 0.3937007874015748
        },
        {
          "duration": 0.046875,
          "durationTicks": 24,
          "midi": 49,
          "name": "C#3",
          "ticks": 41256,
          "time": 80.578125,
          "velocity": 0.3937007874015748
        },
        {
          "duration": 0.046875,
          "durationTicks": 24,
          "midi": 71,
          "name": "B4",
          "ticks": 41256,
          "time": 80.578125,
          "velocity": 0.3937007874015748
        },
        {
          "duration": 0.046875,
          "durationTicks": 24,
          "midi": 83,
          "name": "B5",
          "ticks": 41256,
          "time": 80.578125,
          "velocity": 0.3937007874015748
        },
        {
          "duration": 0.046875,
          "durationTicks": 24,
          "midi": 71,
          "name": "B4",
          "ticks": 41256,
          "time": 80.578125,
          "velocity": 0.3937007874015748
        },
        {
          "duration": 0.046875,
          "durationTicks": 24,
          "midi": 71,
          "name": "B4",
          "ticks": 41256,
          "time": 80.578125,
          "velocity": 0.3937007874015748
        },
        {
          "duration": 0.046875,
          "durationTicks": 24,
          "midi": 83,
          "name": "B5",
          "ticks": 41256,
          "time": 80.578125,
          "velocity": 0.3937007874015748
        },
        {
          "duration": 0.046875,
          "durationTicks": 24,
          "midi": 53,
          "name": "F3",
          "ticks": 41256,
          "time": 80.578125,
          "velocity": 0.3937007874015748
        },
        {
          "duration": 0.046875,
          "durationTicks": 24,
          "midi": 49,
          "name": "C#3",
          "ticks": 41256,
          "time": 80.578125,
          "velocity": 0.3937007874015748
        },
        {
          "duration": 0.046875,
          "durationTicks": 24,
          "midi": 71,
          "name": "B4",
          "ticks": 41256,
          "time": 80.578125,
          "velocity": 0.3937007874015748
        },
        {
          "duration": 0.046875,
          "durationTicks": 24,
          "midi": 71,
          "name": "B4",
          "ticks": 41256,
          "time": 80.578125,
          "velocity": 0.3937007874015748
        },
        {
          "duration": 0.046875,
          "durationTicks": 24,
          "midi": 53,
          "name": "F3",
          "ticks": 41256,
          "time": 80.578125,
          "velocity": 0.3937007874015748
        },
        {
          "duration": 0.046875,
          "durationTicks": 24,
          "midi": 83,
          "name": "B5",
          "ticks": 41256,
          "time": 80.578125,
          "velocity": 0.3937007874015748
        },
        {
          "duration": 0.046875,
          "durationTicks": 24,
          "midi": 49,
          "name": "C#3",
          "ticks": 41256,
          "time": 80.578125,
          "velocity": 0.3937007874015748
        },
        {
          "duration": 0.046875,
          "durationTicks": 24,
          "midi": 83,
          "name": "B5",
          "ticks": 41256,
          "time": 80.578125,
          "velocity": 0.3937007874015748
        },
        {
          "duration": 0.046875,
          "durationTicks": 24,
          "midi": 83,
          "name": "B5",
          "ticks": 41256,
          "time": 80.578125,
          "velocity": 0.3937007874015748
        },
        {
          "duration": 0.046875,
          "durationTicks": 24,
          "midi": 71,
          "name": "B4",
          "ticks": 41256,
          "time": 80.578125,
          "velocity": 0.3937007874015748
        },
        {
          "duration": 0.046875,
          "durationTicks": 24,
          "midi": 49,
          "name": "C#3",
          "ticks": 41256,
          "time": 80.578125,
          "velocity": 0.3937007874015748
        },
        {
          "duration": 0.046875,
          "durationTicks": 24,
          "midi": 53,
          "name": "F3",
          "ticks": 41256,
          "time": 80.578125,
          "velocity": 0.3937007874015748
        },
        {
          "duration": 0.046875,
          "durationTicks": 24,
          "midi": 71,
          "name": "B4",
          "ticks": 41280,
          "time": 80.625,
          "velocity": 0.3937007874015748
        },
        {
          "duration": 0.046875,
          "durationTicks": 24,
          "midi": 71,
          "name": "B4",
          "ticks": 41280,
          "time": 80.625,
          "velocity": 0.3937007874015748
        },
        {
          "duration": 0.046875,
          "durationTicks": 24,
          "midi": 83,
          "name": "B5",
          "ticks": 41280,
          "time": 80.625,
          "velocity": 0.3937007874015748
        },
        {
          "duration": 0.046875,
          "durationTicks": 24,
          "midi": 49,
          "name": "C#3",
          "ticks": 41280,
          "time": 80.625,
          "velocity": 0.3937007874015748
        },
        {
          "duration": 0.046875,
          "durationTicks": 24,
          "midi": 83,
          "name": "B5",
          "ticks": 41280,
          "time": 80.625,
          "velocity": 0.3937007874015748
        },
        {
          "duration": 0.046875,
          "durationTicks": 24,
          "midi": 83,
          "name": "B5",
          "ticks": 41280,
          "time": 80.625,
          "velocity": 0.3937007874015748
        },
        {
          "duration": 0.046875,
          "durationTicks": 24,
          "midi": 53,
          "name": "F3",
          "ticks": 41280,
          "time": 80.625,
          "velocity": 0.3937007874015748
        },
        {
          "duration": 0.046875,
          "durationTicks": 24,
          "midi": 53,
          "name": "F3",
          "ticks": 41280,
          "time": 80.625,
          "velocity": 0.3937007874015748
        },
        {
          "duration": 0.046875,
          "durationTicks": 24,
          "midi": 83,
          "name": "B5",
          "ticks": 41280,
          "time": 80.625,
          "velocity": 0.3937007874015748
        },
        {
          "duration": 0.046875,
          "durationTicks": 24,
          "midi": 49,
          "name": "C#3",
          "ticks": 41280,
          "time": 80.625,
          "velocity": 0.3937007874015748
        },
        {
          "duration": 0.046875,
          "durationTicks": 24,
          "midi": 49,
          "name": "C#3",
          "ticks": 41280,
          "time": 80.625,
          "velocity": 0.3937007874015748
        },
        {
          "duration": 0.046875,
          "durationTicks": 24,
          "midi": 53,
          "name": "F3",
          "ticks": 41280,
          "time": 80.625,
          "velocity": 0.3937007874015748
        },
        {
          "duration": 0.046875,
          "durationTicks": 24,
          "midi": 83,
          "name": "B5",
          "ticks": 41280,
          "time": 80.625,
          "velocity": 0.3937007874015748
        },
        {
          "duration": 0.046875,
          "durationTicks": 24,
          "midi": 71,
          "name": "B4",
          "ticks": 41280,
          "time": 80.625,
          "velocity": 0.3937007874015748
        },
        {
          "duration": 0.046875,
          "durationTicks": 24,
          "midi": 53,
          "name": "F3",
          "ticks": 41280,
          "time": 80.625,
          "velocity": 0.3937007874015748
        },
        {
          "duration": 0.046875,
          "durationTicks": 24,
          "midi": 83,
          "name": "B5",
          "ticks": 41280,
          "time": 80.625,
          "velocity": 0.3937007874015748
        },
        {
          "duration": 0.046875,
          "durationTicks": 24,
          "midi": 71,
          "name": "B4",
          "ticks": 41280,
          "time": 80.625,
          "velocity": 0.3937007874015748
        },
        {
          "duration": 0.046875,
          "durationTicks": 24,
          "midi": 71,
          "name": "B4",
          "ticks": 41280,
          "time": 80.625,
          "velocity": 0.3937007874015748
        },
        {
          "duration": 0.046875,
          "durationTicks": 24,
          "midi": 71,
          "name": "B4",
          "ticks": 41280,
          "time": 80.625,
          "velocity": 0.3937007874015748
        },
        {
          "duration": 0.046875,
          "durationTicks": 24,
          "midi": 49,
          "name": "C#3",
          "ticks": 41280,
          "time": 80.625,
          "velocity": 0.3937007874015748
        },
        {
          "duration": 0.046875,
          "durationTicks": 24,
          "midi": 83,
          "name": "B5",
          "ticks": 41304,
          "time": 80.671875,
          "velocity": 0.3937007874015748
        },
        {
          "duration": 0.046875,
          "durationTicks": 24,
          "midi": 71,
          "name": "B4",
          "ticks": 41304,
          "time": 80.671875,
          "velocity": 0.3937007874015748
        },
        {
          "duration": 0.046875,
          "durationTicks": 24,
          "midi": 53,
          "name": "F3",
          "ticks": 41304,
          "time": 80.671875,
          "velocity": 0.3937007874015748
        },
        {
          "duration": 0.046875,
          "durationTicks": 24,
          "midi": 49,
          "name": "C#3",
          "ticks": 41304,
          "time": 80.671875,
          "velocity": 0.3937007874015748
        },
        {
          "duration": 0.046875,
          "durationTicks": 24,
          "midi": 49,
          "name": "C#3",
          "ticks": 41304,
          "time": 80.671875,
          "velocity": 0.3937007874015748
        },
        {
          "duration": 0.046875,
          "durationTicks": 24,
          "midi": 83,
          "name": "B5",
          "ticks": 41304,
          "time": 80.671875,
          "velocity": 0.3937007874015748
        },
        {
          "duration": 0.046875,
          "durationTicks": 24,
          "midi": 83,
          "name": "B5",
          "ticks": 41304,
          "time": 80.671875,
          "velocity": 0.3937007874015748
        },
        {
          "duration": 0.046875,
          "durationTicks": 24,
          "midi": 83,
          "name": "B5",
          "ticks": 41304,
          "time": 80.671875,
          "velocity": 0.3937007874015748
        },
        {
          "duration": 0.046875,
          "durationTicks": 24,
          "midi": 71,
          "name": "B4",
          "ticks": 41304,
          "time": 80.671875,
          "velocity": 0.3937007874015748
        },
        {
          "duration": 0.046875,
          "durationTicks": 24,
          "midi": 71,
          "name": "B4",
          "ticks": 41304,
          "time": 80.671875,
          "velocity": 0.3937007874015748
        },
        {
          "duration": 0.046875,
          "durationTicks": 24,
          "midi": 49,
          "name": "C#3",
          "ticks": 41304,
          "time": 80.671875,
          "velocity": 0.3937007874015748
        },
        {
          "duration": 0.046875,
          "durationTicks": 24,
          "midi": 71,
          "name": "B4",
          "ticks": 41304,
          "time": 80.671875,
          "velocity": 0.3937007874015748
        },
        {
          "duration": 0.046875,
          "durationTicks": 24,
          "midi": 71,
          "name": "B4",
          "ticks": 41304,
          "time": 80.671875,
          "velocity": 0.3937007874015748
        },
        {
          "duration": 0.046875,
          "durationTicks": 24,
          "midi": 71,
          "name": "B4",
          "ticks": 41304,
          "time": 80.671875,
          "velocity": 0.3937007874015748
        },
        {
          "duration": 0.046875,
          "durationTicks": 24,
          "midi": 49,
          "name": "C#3",
          "ticks": 41304,
          "time": 80.671875,
          "velocity": 0.3937007874015748
        },
        {
          "duration": 0.046875,
          "durationTicks": 24,
          "midi": 53,
          "name": "F3",
          "ticks": 41304,
          "time": 80.671875,
          "velocity": 0.3937007874015748
        },
        {
          "duration": 0.046875,
          "durationTicks": 24,
          "midi": 53,
          "name": "F3",
          "ticks": 41304,
          "time": 80.671875,
          "velocity": 0.3937007874015748
        },
        {
          "duration": 0.046875,
          "durationTicks": 24,
          "midi": 83,
          "name": "B5",
          "ticks": 41304,
          "time": 80.671875,
          "velocity": 0.3937007874015748
        },
        {
          "duration": 0.046875,
          "durationTicks": 24,
          "midi": 53,
          "name": "F3",
          "ticks": 41304,
          "time": 80.671875,
          "velocity": 0.3937007874015748
        },
        {
          "duration": 0.046875,
          "durationTicks": 24,
          "midi": 83,
          "name": "B5",
          "ticks": 41304,
          "time": 80.671875,
          "velocity": 0.3937007874015748
        },
        {
          "duration": 0.046875,
          "durationTicks": 24,
          "midi": 53,
          "name": "F3",
          "ticks": 41328,
          "time": 80.71875,
          "velocity": 0.3937007874015748
        },
        {
          "duration": 0.046875,
          "durationTicks": 24,
          "midi": 49,
          "name": "C#3",
          "ticks": 41328,
          "time": 80.71875,
          "velocity": 0.3937007874015748
        },
        {
          "duration": 0.046875,
          "durationTicks": 24,
          "midi": 53,
          "name": "F3",
          "ticks": 41328,
          "time": 80.71875,
          "velocity": 0.3937007874015748
        },
        {
          "duration": 0.046875,
          "durationTicks": 24,
          "midi": 49,
          "name": "C#3",
          "ticks": 41328,
          "time": 80.71875,
          "velocity": 0.3937007874015748
        },
        {
          "duration": 0.046875,
          "durationTicks": 24,
          "midi": 53,
          "name": "F3",
          "ticks": 41328,
          "time": 80.71875,
          "velocity": 0.3937007874015748
        },
        {
          "duration": 0.046875,
          "durationTicks": 24,
          "midi": 49,
          "name": "C#3",
          "ticks": 41328,
          "time": 80.71875,
          "velocity": 0.3937007874015748
        },
        {
          "duration": 0.046875,
          "durationTicks": 24,
          "midi": 53,
          "name": "F3",
          "ticks": 41328,
          "time": 80.71875,
          "velocity": 0.3937007874015748
        },
        {
          "duration": 0.046875,
          "durationTicks": 24,
          "midi": 49,
          "name": "C#3",
          "ticks": 41328,
          "time": 80.71875,
          "velocity": 0.3937007874015748
        },
        {
          "duration": 0.046875,
          "durationTicks": 24,
          "midi": 70,
          "name": "A#4",
          "ticks": 41352,
          "time": 80.765625,
          "velocity": 0.3937007874015748
        },
        {
          "duration": 0.046875,
          "durationTicks": 24,
          "midi": 70,
          "name": "A#4",
          "ticks": 41352,
          "time": 80.765625,
          "velocity": 0.3937007874015748
        },
        {
          "duration": 0.046875,
          "durationTicks": 24,
          "midi": 70,
          "name": "A#4",
          "ticks": 41352,
          "time": 80.765625,
          "velocity": 0.3937007874015748
        },
        {
          "duration": 0.046875,
          "durationTicks": 24,
          "midi": 70,
          "name": "A#4",
          "ticks": 41352,
          "time": 80.765625,
          "velocity": 0.3937007874015748
        },
        {
          "duration": 0.046875,
          "durationTicks": 24,
          "midi": 82,
          "name": "A#5",
          "ticks": 41352,
          "time": 80.765625,
          "velocity": 0.3937007874015748
        },
        {
          "duration": 0.046875,
          "durationTicks": 24,
          "midi": 82,
          "name": "A#5",
          "ticks": 41352,
          "time": 80.765625,
          "velocity": 0.3937007874015748
        },
        {
          "duration": 0.046875,
          "durationTicks": 24,
          "midi": 53,
          "name": "F3",
          "ticks": 41352,
          "time": 80.765625,
          "velocity": 0.3937007874015748
        },
        {
          "duration": 0.046875,
          "durationTicks": 24,
          "midi": 82,
          "name": "A#5",
          "ticks": 41352,
          "time": 80.765625,
          "velocity": 0.3937007874015748
        },
        {
          "duration": 0.046875,
          "durationTicks": 24,
          "midi": 49,
          "name": "C#3",
          "ticks": 41352,
          "time": 80.765625,
          "velocity": 0.3937007874015748
        },
        {
          "duration": 0.046875,
          "durationTicks": 24,
          "midi": 53,
          "name": "F3",
          "ticks": 41352,
          "time": 80.765625,
          "velocity": 0.3937007874015748
        },
        {
          "duration": 0.046875,
          "durationTicks": 24,
          "midi": 82,
          "name": "A#5",
          "ticks": 41352,
          "time": 80.765625,
          "velocity": 0.3937007874015748
        },
        {
          "duration": 0.046875,
          "durationTicks": 24,
          "midi": 53,
          "name": "F3",
          "ticks": 41352,
          "time": 80.765625,
          "velocity": 0.3937007874015748
        },
        {
          "duration": 0.046875,
          "durationTicks": 24,
          "midi": 49,
          "name": "C#3",
          "ticks": 41352,
          "time": 80.765625,
          "velocity": 0.3937007874015748
        },
        {
          "duration": 0.046875,
          "durationTicks": 24,
          "midi": 49,
          "name": "C#3",
          "ticks": 41352,
          "time": 80.765625,
          "velocity": 0.3937007874015748
        },
        {
          "duration": 0.046875,
          "durationTicks": 24,
          "midi": 82,
          "name": "A#5",
          "ticks": 41352,
          "time": 80.765625,
          "velocity": 0.3937007874015748
        },
        {
          "duration": 0.046875,
          "durationTicks": 24,
          "midi": 82,
          "name": "A#5",
          "ticks": 41352,
          "time": 80.765625,
          "velocity": 0.3937007874015748
        },
        {
          "duration": 0.046875,
          "durationTicks": 24,
          "midi": 53,
          "name": "F3",
          "ticks": 41352,
          "time": 80.765625,
          "velocity": 0.3937007874015748
        },
        {
          "duration": 0.046875,
          "durationTicks": 24,
          "midi": 49,
          "name": "C#3",
          "ticks": 41352,
          "time": 80.765625,
          "velocity": 0.3937007874015748
        },
        {
          "duration": 0.046875,
          "durationTicks": 24,
          "midi": 70,
          "name": "A#4",
          "ticks": 41352,
          "time": 80.765625,
          "velocity": 0.3937007874015748
        },
        {
          "duration": 0.046875,
          "durationTicks": 24,
          "midi": 70,
          "name": "A#4",
          "ticks": 41352,
          "time": 80.765625,
          "velocity": 0.3937007874015748
        },
        {
          "duration": 0.046875,
          "durationTicks": 24,
          "midi": 49,
          "name": "C#3",
          "ticks": 41376,
          "time": 80.8125,
          "velocity": 0.3937007874015748
        },
        {
          "duration": 0.046875,
          "durationTicks": 24,
          "midi": 70,
          "name": "A#4",
          "ticks": 41376,
          "time": 80.8125,
          "velocity": 0.3937007874015748
        },
        {
          "duration": 0.046875,
          "durationTicks": 24,
          "midi": 70,
          "name": "A#4",
          "ticks": 41376,
          "time": 80.8125,
          "velocity": 0.3937007874015748
        },
        {
          "duration": 0.046875,
          "durationTicks": 24,
          "midi": 82,
          "name": "A#5",
          "ticks": 41376,
          "time": 80.8125,
          "velocity": 0.3937007874015748
        },
        {
          "duration": 0.046875,
          "durationTicks": 24,
          "midi": 82,
          "name": "A#5",
          "ticks": 41376,
          "time": 80.8125,
          "velocity": 0.3937007874015748
        },
        {
          "duration": 0.046875,
          "durationTicks": 24,
          "midi": 82,
          "name": "A#5",
          "ticks": 41376,
          "time": 80.8125,
          "velocity": 0.3937007874015748
        },
        {
          "duration": 0.046875,
          "durationTicks": 24,
          "midi": 70,
          "name": "A#4",
          "ticks": 41376,
          "time": 80.8125,
          "velocity": 0.3937007874015748
        },
        {
          "duration": 0.046875,
          "durationTicks": 24,
          "midi": 53,
          "name": "F3",
          "ticks": 41376,
          "time": 80.8125,
          "velocity": 0.3937007874015748
        },
        {
          "duration": 0.046875,
          "durationTicks": 24,
          "midi": 70,
          "name": "A#4",
          "ticks": 41376,
          "time": 80.8125,
          "velocity": 0.3937007874015748
        },
        {
          "duration": 0.046875,
          "durationTicks": 24,
          "midi": 82,
          "name": "A#5",
          "ticks": 41376,
          "time": 80.8125,
          "velocity": 0.3937007874015748
        },
        {
          "duration": 0.046875,
          "durationTicks": 24,
          "midi": 70,
          "name": "A#4",
          "ticks": 41376,
          "time": 80.8125,
          "velocity": 0.3937007874015748
        },
        {
          "duration": 0.046875,
          "durationTicks": 24,
          "midi": 49,
          "name": "C#3",
          "ticks": 41376,
          "time": 80.8125,
          "velocity": 0.3937007874015748
        },
        {
          "duration": 0.046875,
          "durationTicks": 24,
          "midi": 82,
          "name": "A#5",
          "ticks": 41376,
          "time": 80.8125,
          "velocity": 0.3937007874015748
        },
        {
          "duration": 0.046875,
          "durationTicks": 24,
          "midi": 82,
          "name": "A#5",
          "ticks": 41376,
          "time": 80.8125,
          "velocity": 0.3937007874015748
        },
        {
          "duration": 0.046875,
          "durationTicks": 24,
          "midi": 53,
          "name": "F3",
          "ticks": 41376,
          "time": 80.8125,
          "velocity": 0.3937007874015748
        },
        {
          "duration": 0.046875,
          "durationTicks": 24,
          "midi": 70,
          "name": "A#4",
          "ticks": 41376,
          "time": 80.8125,
          "velocity": 0.3937007874015748
        },
        {
          "duration": 0.046875,
          "durationTicks": 24,
          "midi": 82,
          "name": "A#5",
          "ticks": 41400,
          "time": 80.859375,
          "velocity": 0.3937007874015748
        },
        {
          "duration": 0.046875,
          "durationTicks": 24,
          "midi": 53,
          "name": "F3",
          "ticks": 41400,
          "time": 80.859375,
          "velocity": 0.3937007874015748
        },
        {
          "duration": 0.046875,
          "durationTicks": 24,
          "midi": 82,
          "name": "A#5",
          "ticks": 41400,
          "time": 80.859375,
          "velocity": 0.3937007874015748
        },
        {
          "duration": 0.046875,
          "durationTicks": 24,
          "midi": 82,
          "name": "A#5",
          "ticks": 41400,
          "time": 80.859375,
          "velocity": 0.3937007874015748
        },
        {
          "duration": 0.046875,
          "durationTicks": 24,
          "midi": 82,
          "name": "A#5",
          "ticks": 41400,
          "time": 80.859375,
          "velocity": 0.3937007874015748
        },
        {
          "duration": 0.046875,
          "durationTicks": 24,
          "midi": 49,
          "name": "C#3",
          "ticks": 41400,
          "time": 80.859375,
          "velocity": 0.3937007874015748
        },
        {
          "duration": 0.046875,
          "durationTicks": 24,
          "midi": 82,
          "name": "A#5",
          "ticks": 41400,
          "time": 80.859375,
          "velocity": 0.3937007874015748
        },
        {
          "duration": 0.046875,
          "durationTicks": 24,
          "midi": 70,
          "name": "A#4",
          "ticks": 41400,
          "time": 80.859375,
          "velocity": 0.3937007874015748
        },
        {
          "duration": 0.046875,
          "durationTicks": 24,
          "midi": 70,
          "name": "A#4",
          "ticks": 41400,
          "time": 80.859375,
          "velocity": 0.3937007874015748
        },
        {
          "duration": 0.046875,
          "durationTicks": 24,
          "midi": 49,
          "name": "C#3",
          "ticks": 41400,
          "time": 80.859375,
          "velocity": 0.3937007874015748
        },
        {
          "duration": 0.046875,
          "durationTicks": 24,
          "midi": 53,
          "name": "F3",
          "ticks": 41400,
          "time": 80.859375,
          "velocity": 0.3937007874015748
        },
        {
          "duration": 0.046875,
          "durationTicks": 24,
          "midi": 70,
          "name": "A#4",
          "ticks": 41400,
          "time": 80.859375,
          "velocity": 0.3937007874015748
        },
        {
          "duration": 0.046875,
          "durationTicks": 24,
          "midi": 70,
          "name": "A#4",
          "ticks": 41400,
          "time": 80.859375,
          "velocity": 0.3937007874015748
        },
        {
          "duration": 0.046875,
          "durationTicks": 24,
          "midi": 82,
          "name": "A#5",
          "ticks": 41400,
          "time": 80.859375,
          "velocity": 0.3937007874015748
        },
        {
          "duration": 0.046875,
          "durationTicks": 24,
          "midi": 70,
          "name": "A#4",
          "ticks": 41400,
          "time": 80.859375,
          "velocity": 0.3937007874015748
        },
        {
          "duration": 0.046875,
          "durationTicks": 24,
          "midi": 70,
          "name": "A#4",
          "ticks": 41400,
          "time": 80.859375,
          "velocity": 0.3937007874015748
        },
        {
          "duration": 0.046875,
          "durationTicks": 24,
          "midi": 82,
          "name": "A#5",
          "ticks": 41424,
          "time": 80.90625,
          "velocity": 0.3937007874015748
        },
        {
          "duration": 0.046875,
          "durationTicks": 24,
          "midi": 82,
          "name": "A#5",
          "ticks": 41424,
          "time": 80.90625,
          "velocity": 0.3937007874015748
        },
        {
          "duration": 0.046875,
          "durationTicks": 24,
          "midi": 70,
          "name": "A#4",
          "ticks": 41424,
          "time": 80.90625,
          "velocity": 0.3937007874015748
        },
        {
          "duration": 0.046875,
          "durationTicks": 24,
          "midi": 70,
          "name": "A#4",
          "ticks": 41424,
          "time": 80.90625,
          "velocity": 0.3937007874015748
        },
        {
          "duration": 0.046875,
          "durationTicks": 24,
          "midi": 82,
          "name": "A#5",
          "ticks": 41424,
          "time": 80.90625,
          "velocity": 0.3937007874015748
        },
        {
          "duration": 0.046875,
          "durationTicks": 24,
          "midi": 70,
          "name": "A#4",
          "ticks": 41424,
          "time": 80.90625,
          "velocity": 0.3937007874015748
        },
        {
          "duration": 0.046875,
          "durationTicks": 24,
          "midi": 53,
          "name": "F3",
          "ticks": 41424,
          "time": 80.90625,
          "velocity": 0.3937007874015748
        },
        {
          "duration": 0.046875,
          "durationTicks": 24,
          "midi": 82,
          "name": "A#5",
          "ticks": 41424,
          "time": 80.90625,
          "velocity": 0.3937007874015748
        },
        {
          "duration": 0.046875,
          "durationTicks": 24,
          "midi": 53,
          "name": "F3",
          "ticks": 41424,
          "time": 80.90625,
          "velocity": 0.3937007874015748
        },
        {
          "duration": 0.046875,
          "durationTicks": 24,
          "midi": 70,
          "name": "A#4",
          "ticks": 41424,
          "time": 80.90625,
          "velocity": 0.3937007874015748
        },
        {
          "duration": 0.046875,
          "durationTicks": 24,
          "midi": 49,
          "name": "C#3",
          "ticks": 41424,
          "time": 80.90625,
          "velocity": 0.3937007874015748
        },
        {
          "duration": 0.046875,
          "durationTicks": 24,
          "midi": 70,
          "name": "A#4",
          "ticks": 41424,
          "time": 80.90625,
          "velocity": 0.3937007874015748
        },
        {
          "duration": 0.046875,
          "durationTicks": 24,
          "midi": 70,
          "name": "A#4",
          "ticks": 41424,
          "time": 80.90625,
          "velocity": 0.3937007874015748
        },
        {
          "duration": 0.046875,
          "durationTicks": 24,
          "midi": 82,
          "name": "A#5",
          "ticks": 41424,
          "time": 80.90625,
          "velocity": 0.3937007874015748
        },
        {
          "duration": 0.046875,
          "durationTicks": 24,
          "midi": 82,
          "name": "A#5",
          "ticks": 41424,
          "time": 80.90625,
          "velocity": 0.3937007874015748
        },
        {
          "duration": 0.046875,
          "durationTicks": 24,
          "midi": 49,
          "name": "C#3",
          "ticks": 41424,
          "time": 80.90625,
          "velocity": 0.3937007874015748
        },
        {
          "duration": 0.046875,
          "durationTicks": 24,
          "midi": 49,
          "name": "C#3",
          "ticks": 41448,
          "time": 80.953125,
          "velocity": 0.3937007874015748
        },
        {
          "duration": 0.046875,
          "durationTicks": 24,
          "midi": 53,
          "name": "F3",
          "ticks": 41448,
          "time": 80.953125,
          "velocity": 0.3937007874015748
        },
        {
          "duration": 0.046875,
          "durationTicks": 24,
          "midi": 49,
          "name": "C#3",
          "ticks": 41448,
          "time": 80.953125,
          "velocity": 0.3937007874015748
        },
        {
          "duration": 0.046875,
          "durationTicks": 24,
          "midi": 53,
          "name": "F3",
          "ticks": 41448,
          "time": 80.953125,
          "velocity": 0.3937007874015748
        },
        {
          "duration": 0.046875,
          "durationTicks": 24,
          "midi": 42,
          "name": "F#2",
          "ticks": 41472,
          "time": 81,
          "velocity": 0.3937007874015748
        },
        {
          "duration": 0.046875,
          "durationTicks": 24,
          "midi": 42,
          "name": "F#2",
          "ticks": 41472,
          "time": 81,
          "velocity": 0.3937007874015748
        },
        {
          "duration": 0.046875,
          "durationTicks": 24,
          "midi": 81,
          "name": "A5",
          "ticks": 41472,
          "time": 81,
          "velocity": 0.3937007874015748
        },
        {
          "duration": 0.046875,
          "durationTicks": 24,
          "midi": 81,
          "name": "A5",
          "ticks": 41472,
          "time": 81,
          "velocity": 0.3937007874015748
        },
        {
          "duration": 0.046875,
          "durationTicks": 24,
          "midi": 42,
          "name": "F#2",
          "ticks": 41472,
          "time": 81,
          "velocity": 0.3937007874015748
        },
        {
          "duration": 0.046875,
          "durationTicks": 24,
          "midi": 30,
          "name": "F#1",
          "ticks": 41472,
          "time": 81,
          "velocity": 0.3937007874015748
        },
        {
          "duration": 0.046875,
          "durationTicks": 24,
          "midi": 30,
          "name": "F#1",
          "ticks": 41472,
          "time": 81,
          "velocity": 0.3937007874015748
        },
        {
          "duration": 0.046875,
          "durationTicks": 24,
          "midi": 30,
          "name": "F#1",
          "ticks": 41472,
          "time": 81,
          "velocity": 0.3937007874015748
        },
        {
          "duration": 0.046875,
          "durationTicks": 24,
          "midi": 81,
          "name": "A5",
          "ticks": 41472,
          "time": 81,
          "velocity": 0.3937007874015748
        },
        {
          "duration": 0.046875,
          "durationTicks": 24,
          "midi": 42,
          "name": "F#2",
          "ticks": 41472,
          "time": 81,
          "velocity": 0.3937007874015748
        },
        {
          "duration": 0.046875,
          "durationTicks": 24,
          "midi": 42,
          "name": "F#2",
          "ticks": 41472,
          "time": 81,
          "velocity": 0.3937007874015748
        },
        {
          "duration": 0.046875,
          "durationTicks": 24,
          "midi": 30,
          "name": "F#1",
          "ticks": 41472,
          "time": 81,
          "velocity": 0.3937007874015748
        },
        {
          "duration": 0.046875,
          "durationTicks": 24,
          "midi": 30,
          "name": "F#1",
          "ticks": 41472,
          "time": 81,
          "velocity": 0.3937007874015748
        },
        {
          "duration": 0.046875,
          "durationTicks": 24,
          "midi": 69,
          "name": "A4",
          "ticks": 41472,
          "time": 81,
          "velocity": 0.3937007874015748
        },
        {
          "duration": 0.046875,
          "durationTicks": 24,
          "midi": 81,
          "name": "A5",
          "ticks": 41472,
          "time": 81,
          "velocity": 0.3937007874015748
        },
        {
          "duration": 0.046875,
          "durationTicks": 24,
          "midi": 69,
          "name": "A4",
          "ticks": 41472,
          "time": 81,
          "velocity": 0.3937007874015748
        },
        {
          "duration": 0.046875,
          "durationTicks": 24,
          "midi": 69,
          "name": "A4",
          "ticks": 41472,
          "time": 81,
          "velocity": 0.3937007874015748
        },
        {
          "duration": 0.046875,
          "durationTicks": 24,
          "midi": 69,
          "name": "A4",
          "ticks": 41472,
          "time": 81,
          "velocity": 0.3937007874015748
        },
        {
          "duration": 0.046875,
          "durationTicks": 24,
          "midi": 81,
          "name": "A5",
          "ticks": 41472,
          "time": 81,
          "velocity": 0.3937007874015748
        },
        {
          "duration": 0.046875,
          "durationTicks": 24,
          "midi": 30,
          "name": "F#1",
          "ticks": 41472,
          "time": 81,
          "velocity": 0.3937007874015748
        },
        {
          "duration": 0.046875,
          "durationTicks": 24,
          "midi": 69,
          "name": "A4",
          "ticks": 41472,
          "time": 81,
          "velocity": 0.3937007874015748
        },
        {
          "duration": 0.046875,
          "durationTicks": 24,
          "midi": 69,
          "name": "A4",
          "ticks": 41472,
          "time": 81,
          "velocity": 0.3937007874015748
        },
        {
          "duration": 0.046875,
          "durationTicks": 24,
          "midi": 81,
          "name": "A5",
          "ticks": 41472,
          "time": 81,
          "velocity": 0.3937007874015748
        },
        {
          "duration": 0.046875,
          "durationTicks": 24,
          "midi": 42,
          "name": "F#2",
          "ticks": 41472,
          "time": 81,
          "velocity": 0.3937007874015748
        },
        {
          "duration": 0.046875,
          "durationTicks": 24,
          "midi": 81,
          "name": "A5",
          "ticks": 41496,
          "time": 81.046875,
          "velocity": 0.3937007874015748
        },
        {
          "duration": 0.046875,
          "durationTicks": 24,
          "midi": 81,
          "name": "A5",
          "ticks": 41496,
          "time": 81.046875,
          "velocity": 0.3937007874015748
        },
        {
          "duration": 0.046875,
          "durationTicks": 24,
          "midi": 30,
          "name": "F#1",
          "ticks": 41496,
          "time": 81.046875,
          "velocity": 0.3937007874015748
        },
        {
          "duration": 0.046875,
          "durationTicks": 24,
          "midi": 42,
          "name": "F#2",
          "ticks": 41496,
          "time": 81.046875,
          "velocity": 0.3937007874015748
        },
        {
          "duration": 0.046875,
          "durationTicks": 24,
          "midi": 69,
          "name": "A4",
          "ticks": 41496,
          "time": 81.046875,
          "velocity": 0.3937007874015748
        },
        {
          "duration": 0.046875,
          "durationTicks": 24,
          "midi": 30,
          "name": "F#1",
          "ticks": 41496,
          "time": 81.046875,
          "velocity": 0.3937007874015748
        },
        {
          "duration": 0.046875,
          "durationTicks": 24,
          "midi": 69,
          "name": "A4",
          "ticks": 41496,
          "time": 81.046875,
          "velocity": 0.3937007874015748
        },
        {
          "duration": 0.046875,
          "durationTicks": 24,
          "midi": 42,
          "name": "F#2",
          "ticks": 41496,
          "time": 81.046875,
          "velocity": 0.3937007874015748
        },
        {
          "duration": 0.046875,
          "durationTicks": 24,
          "midi": 69,
          "name": "A4",
          "ticks": 41496,
          "time": 81.046875,
          "velocity": 0.3937007874015748
        },
        {
          "duration": 0.046875,
          "durationTicks": 24,
          "midi": 30,
          "name": "F#1",
          "ticks": 41496,
          "time": 81.046875,
          "velocity": 0.3937007874015748
        },
        {
          "duration": 0.046875,
          "durationTicks": 24,
          "midi": 69,
          "name": "A4",
          "ticks": 41496,
          "time": 81.046875,
          "velocity": 0.3937007874015748
        },
        {
          "duration": 0.046875,
          "durationTicks": 24,
          "midi": 30,
          "name": "F#1",
          "ticks": 41496,
          "time": 81.046875,
          "velocity": 0.3937007874015748
        },
        {
          "duration": 0.046875,
          "durationTicks": 24,
          "midi": 81,
          "name": "A5",
          "ticks": 41496,
          "time": 81.046875,
          "velocity": 0.3937007874015748
        },
        {
          "duration": 0.046875,
          "durationTicks": 24,
          "midi": 69,
          "name": "A4",
          "ticks": 41496,
          "time": 81.046875,
          "velocity": 0.3937007874015748
        },
        {
          "duration": 0.046875,
          "durationTicks": 24,
          "midi": 81,
          "name": "A5",
          "ticks": 41496,
          "time": 81.046875,
          "velocity": 0.3937007874015748
        },
        {
          "duration": 0.046875,
          "durationTicks": 24,
          "midi": 81,
          "name": "A5",
          "ticks": 41496,
          "time": 81.046875,
          "velocity": 0.3937007874015748
        },
        {
          "duration": 0.046875,
          "durationTicks": 24,
          "midi": 42,
          "name": "F#2",
          "ticks": 41496,
          "time": 81.046875,
          "velocity": 0.3937007874015748
        },
        {
          "duration": 0.046875,
          "durationTicks": 24,
          "midi": 42,
          "name": "F#2",
          "ticks": 41496,
          "time": 81.046875,
          "velocity": 0.3937007874015748
        },
        {
          "duration": 0.046875,
          "durationTicks": 24,
          "midi": 30,
          "name": "F#1",
          "ticks": 41496,
          "time": 81.046875,
          "velocity": 0.3937007874015748
        },
        {
          "duration": 0.046875,
          "durationTicks": 24,
          "midi": 69,
          "name": "A4",
          "ticks": 41496,
          "time": 81.046875,
          "velocity": 0.3937007874015748
        },
        {
          "duration": 0.046875,
          "durationTicks": 24,
          "midi": 30,
          "name": "F#1",
          "ticks": 41496,
          "time": 81.046875,
          "velocity": 0.3937007874015748
        },
        {
          "duration": 0.046875,
          "durationTicks": 24,
          "midi": 42,
          "name": "F#2",
          "ticks": 41496,
          "time": 81.046875,
          "velocity": 0.3937007874015748
        },
        {
          "duration": 0.046875,
          "durationTicks": 24,
          "midi": 42,
          "name": "F#2",
          "ticks": 41496,
          "time": 81.046875,
          "velocity": 0.3937007874015748
        },
        {
          "duration": 0.046875,
          "durationTicks": 24,
          "midi": 81,
          "name": "A5",
          "ticks": 41496,
          "time": 81.046875,
          "velocity": 0.3937007874015748
        },
        {
          "duration": 0.046875,
          "durationTicks": 24,
          "midi": 81,
          "name": "A5",
          "ticks": 41520,
          "time": 81.09375,
          "velocity": 0.3937007874015748
        },
        {
          "duration": 0.046875,
          "durationTicks": 24,
          "midi": 69,
          "name": "A4",
          "ticks": 41520,
          "time": 81.09375,
          "velocity": 0.3937007874015748
        },
        {
          "duration": 0.046875,
          "durationTicks": 24,
          "midi": 81,
          "name": "A5",
          "ticks": 41520,
          "time": 81.09375,
          "velocity": 0.3937007874015748
        },
        {
          "duration": 0.046875,
          "durationTicks": 24,
          "midi": 69,
          "name": "A4",
          "ticks": 41520,
          "time": 81.09375,
          "velocity": 0.3937007874015748
        },
        {
          "duration": 0.046875,
          "durationTicks": 24,
          "midi": 30,
          "name": "F#1",
          "ticks": 41520,
          "time": 81.09375,
          "velocity": 0.3937007874015748
        },
        {
          "duration": 0.046875,
          "durationTicks": 24,
          "midi": 81,
          "name": "A5",
          "ticks": 41520,
          "time": 81.09375,
          "velocity": 0.3937007874015748
        },
        {
          "duration": 0.046875,
          "durationTicks": 24,
          "midi": 81,
          "name": "A5",
          "ticks": 41520,
          "time": 81.09375,
          "velocity": 0.3937007874015748
        },
        {
          "duration": 0.046875,
          "durationTicks": 24,
          "midi": 42,
          "name": "F#2",
          "ticks": 41520,
          "time": 81.09375,
          "velocity": 0.3937007874015748
        },
        {
          "duration": 0.046875,
          "durationTicks": 24,
          "midi": 69,
          "name": "A4",
          "ticks": 41520,
          "time": 81.09375,
          "velocity": 0.3937007874015748
        },
        {
          "duration": 0.046875,
          "durationTicks": 24,
          "midi": 81,
          "name": "A5",
          "ticks": 41520,
          "time": 81.09375,
          "velocity": 0.3937007874015748
        },
        {
          "duration": 0.046875,
          "durationTicks": 24,
          "midi": 42,
          "name": "F#2",
          "ticks": 41520,
          "time": 81.09375,
          "velocity": 0.3937007874015748
        },
        {
          "duration": 0.046875,
          "durationTicks": 24,
          "midi": 69,
          "name": "A4",
          "ticks": 41520,
          "time": 81.09375,
          "velocity": 0.3937007874015748
        },
        {
          "duration": 0.046875,
          "durationTicks": 24,
          "midi": 30,
          "name": "F#1",
          "ticks": 41520,
          "time": 81.09375,
          "velocity": 0.3937007874015748
        },
        {
          "duration": 0.046875,
          "durationTicks": 24,
          "midi": 30,
          "name": "F#1",
          "ticks": 41520,
          "time": 81.09375,
          "velocity": 0.3937007874015748
        },
        {
          "duration": 0.046875,
          "durationTicks": 24,
          "midi": 30,
          "name": "F#1",
          "ticks": 41520,
          "time": 81.09375,
          "velocity": 0.3937007874015748
        },
        {
          "duration": 0.046875,
          "durationTicks": 24,
          "midi": 30,
          "name": "F#1",
          "ticks": 41520,
          "time": 81.09375,
          "velocity": 0.3937007874015748
        },
        {
          "duration": 0.046875,
          "durationTicks": 24,
          "midi": 81,
          "name": "A5",
          "ticks": 41520,
          "time": 81.09375,
          "velocity": 0.3937007874015748
        },
        {
          "duration": 0.046875,
          "durationTicks": 24,
          "midi": 42,
          "name": "F#2",
          "ticks": 41520,
          "time": 81.09375,
          "velocity": 0.3937007874015748
        },
        {
          "duration": 0.046875,
          "durationTicks": 24,
          "midi": 42,
          "name": "F#2",
          "ticks": 41520,
          "time": 81.09375,
          "velocity": 0.3937007874015748
        },
        {
          "duration": 0.046875,
          "durationTicks": 24,
          "midi": 42,
          "name": "F#2",
          "ticks": 41520,
          "time": 81.09375,
          "velocity": 0.3937007874015748
        },
        {
          "duration": 0.046875,
          "durationTicks": 24,
          "midi": 42,
          "name": "F#2",
          "ticks": 41520,
          "time": 81.09375,
          "velocity": 0.3937007874015748
        },
        {
          "duration": 0.046875,
          "durationTicks": 24,
          "midi": 30,
          "name": "F#1",
          "ticks": 41520,
          "time": 81.09375,
          "velocity": 0.3937007874015748
        },
        {
          "duration": 0.046875,
          "durationTicks": 24,
          "midi": 69,
          "name": "A4",
          "ticks": 41520,
          "time": 81.09375,
          "velocity": 0.3937007874015748
        },
        {
          "duration": 0.046875,
          "durationTicks": 24,
          "midi": 69,
          "name": "A4",
          "ticks": 41520,
          "time": 81.09375,
          "velocity": 0.3937007874015748
        },
        {
          "duration": 0.046875,
          "durationTicks": 24,
          "midi": 42,
          "name": "F#2",
          "ticks": 41544,
          "time": 81.140625,
          "velocity": 0.3937007874015748
        },
        {
          "duration": 0.046875,
          "durationTicks": 24,
          "midi": 30,
          "name": "F#1",
          "ticks": 41544,
          "time": 81.140625,
          "velocity": 0.3937007874015748
        },
        {
          "duration": 0.046875,
          "durationTicks": 24,
          "midi": 42,
          "name": "F#2",
          "ticks": 41544,
          "time": 81.140625,
          "velocity": 0.3937007874015748
        },
        {
          "duration": 0.046875,
          "durationTicks": 24,
          "midi": 42,
          "name": "F#2",
          "ticks": 41544,
          "time": 81.140625,
          "velocity": 0.3937007874015748
        },
        {
          "duration": 0.046875,
          "durationTicks": 24,
          "midi": 69,
          "name": "A4",
          "ticks": 41544,
          "time": 81.140625,
          "velocity": 0.3937007874015748
        },
        {
          "duration": 0.046875,
          "durationTicks": 24,
          "midi": 81,
          "name": "A5",
          "ticks": 41544,
          "time": 81.140625,
          "velocity": 0.3937007874015748
        },
        {
          "duration": 0.046875,
          "durationTicks": 24,
          "midi": 81,
          "name": "A5",
          "ticks": 41544,
          "time": 81.140625,
          "velocity": 0.3937007874015748
        },
        {
          "duration": 0.046875,
          "durationTicks": 24,
          "midi": 69,
          "name": "A4",
          "ticks": 41544,
          "time": 81.140625,
          "velocity": 0.3937007874015748
        },
        {
          "duration": 0.046875,
          "durationTicks": 24,
          "midi": 81,
          "name": "A5",
          "ticks": 41544,
          "time": 81.140625,
          "velocity": 0.3937007874015748
        },
        {
          "duration": 0.046875,
          "durationTicks": 24,
          "midi": 30,
          "name": "F#1",
          "ticks": 41544,
          "time": 81.140625,
          "velocity": 0.3937007874015748
        },
        {
          "duration": 0.046875,
          "durationTicks": 24,
          "midi": 81,
          "name": "A5",
          "ticks": 41544,
          "time": 81.140625,
          "velocity": 0.3937007874015748
        },
        {
          "duration": 0.046875,
          "durationTicks": 24,
          "midi": 30,
          "name": "F#1",
          "ticks": 41544,
          "time": 81.140625,
          "velocity": 0.3937007874015748
        },
        {
          "duration": 0.046875,
          "durationTicks": 24,
          "midi": 30,
          "name": "F#1",
          "ticks": 41544,
          "time": 81.140625,
          "velocity": 0.3937007874015748
        },
        {
          "duration": 0.046875,
          "durationTicks": 24,
          "midi": 81,
          "name": "A5",
          "ticks": 41544,
          "time": 81.140625,
          "velocity": 0.3937007874015748
        },
        {
          "duration": 0.046875,
          "durationTicks": 24,
          "midi": 30,
          "name": "F#1",
          "ticks": 41544,
          "time": 81.140625,
          "velocity": 0.3937007874015748
        },
        {
          "duration": 0.046875,
          "durationTicks": 24,
          "midi": 42,
          "name": "F#2",
          "ticks": 41544,
          "time": 81.140625,
          "velocity": 0.3937007874015748
        },
        {
          "duration": 0.046875,
          "durationTicks": 24,
          "midi": 69,
          "name": "A4",
          "ticks": 41544,
          "time": 81.140625,
          "velocity": 0.3937007874015748
        },
        {
          "duration": 0.046875,
          "durationTicks": 24,
          "midi": 69,
          "name": "A4",
          "ticks": 41544,
          "time": 81.140625,
          "velocity": 0.3937007874015748
        },
        {
          "duration": 0.046875,
          "durationTicks": 24,
          "midi": 81,
          "name": "A5",
          "ticks": 41544,
          "time": 81.140625,
          "velocity": 0.3937007874015748
        },
        {
          "duration": 0.046875,
          "durationTicks": 24,
          "midi": 69,
          "name": "A4",
          "ticks": 41544,
          "time": 81.140625,
          "velocity": 0.3937007874015748
        },
        {
          "duration": 0.046875,
          "durationTicks": 24,
          "midi": 42,
          "name": "F#2",
          "ticks": 41544,
          "time": 81.140625,
          "velocity": 0.3937007874015748
        },
        {
          "duration": 0.046875,
          "durationTicks": 24,
          "midi": 30,
          "name": "F#1",
          "ticks": 41544,
          "time": 81.140625,
          "velocity": 0.3937007874015748
        },
        {
          "duration": 0.046875,
          "durationTicks": 24,
          "midi": 42,
          "name": "F#2",
          "ticks": 41544,
          "time": 81.140625,
          "velocity": 0.3937007874015748
        },
        {
          "duration": 0.046875,
          "durationTicks": 24,
          "midi": 69,
          "name": "A4",
          "ticks": 41544,
          "time": 81.140625,
          "velocity": 0.3937007874015748
        },
        {
          "duration": 0.046875,
          "durationTicks": 24,
          "midi": 81,
          "name": "A5",
          "ticks": 41568,
          "time": 81.1875,
          "velocity": 0.3937007874015748
        },
        {
          "duration": 0.046875,
          "durationTicks": 24,
          "midi": 81,
          "name": "A5",
          "ticks": 41568,
          "time": 81.1875,
          "velocity": 0.3937007874015748
        },
        {
          "duration": 0.046875,
          "durationTicks": 24,
          "midi": 69,
          "name": "A4",
          "ticks": 41568,
          "time": 81.1875,
          "velocity": 0.3937007874015748
        },
        {
          "duration": 0.046875,
          "durationTicks": 24,
          "midi": 69,
          "name": "A4",
          "ticks": 41568,
          "time": 81.1875,
          "velocity": 0.3937007874015748
        },
        {
          "duration": 0.046875,
          "durationTicks": 24,
          "midi": 42,
          "name": "F#2",
          "ticks": 41568,
          "time": 81.1875,
          "velocity": 0.3937007874015748
        },
        {
          "duration": 0.046875,
          "durationTicks": 24,
          "midi": 30,
          "name": "F#1",
          "ticks": 41568,
          "time": 81.1875,
          "velocity": 0.3937007874015748
        },
        {
          "duration": 0.046875,
          "durationTicks": 24,
          "midi": 69,
          "name": "A4",
          "ticks": 41568,
          "time": 81.1875,
          "velocity": 0.3937007874015748
        },
        {
          "duration": 0.046875,
          "durationTicks": 24,
          "midi": 30,
          "name": "F#1",
          "ticks": 41568,
          "time": 81.1875,
          "velocity": 0.3937007874015748
        },
        {
          "duration": 0.046875,
          "durationTicks": 24,
          "midi": 81,
          "name": "A5",
          "ticks": 41568,
          "time": 81.1875,
          "velocity": 0.3937007874015748
        },
        {
          "duration": 0.046875,
          "durationTicks": 24,
          "midi": 42,
          "name": "F#2",
          "ticks": 41568,
          "time": 81.1875,
          "velocity": 0.3937007874015748
        },
        {
          "duration": 0.046875,
          "durationTicks": 24,
          "midi": 81,
          "name": "A5",
          "ticks": 41568,
          "time": 81.1875,
          "velocity": 0.3937007874015748
        },
        {
          "duration": 0.046875,
          "durationTicks": 24,
          "midi": 69,
          "name": "A4",
          "ticks": 41568,
          "time": 81.1875,
          "velocity": 0.3937007874015748
        },
        {
          "duration": 0.046875,
          "durationTicks": 24,
          "midi": 42,
          "name": "F#2",
          "ticks": 41568,
          "time": 81.1875,
          "velocity": 0.3937007874015748
        },
        {
          "duration": 0.046875,
          "durationTicks": 24,
          "midi": 30,
          "name": "F#1",
          "ticks": 41568,
          "time": 81.1875,
          "velocity": 0.3937007874015748
        },
        {
          "duration": 0.046875,
          "durationTicks": 24,
          "midi": 42,
          "name": "F#2",
          "ticks": 41568,
          "time": 81.1875,
          "velocity": 0.3937007874015748
        },
        {
          "duration": 0.046875,
          "durationTicks": 24,
          "midi": 30,
          "name": "F#1",
          "ticks": 41568,
          "time": 81.1875,
          "velocity": 0.3937007874015748
        },
        {
          "duration": 0.046875,
          "durationTicks": 24,
          "midi": 69,
          "name": "A4",
          "ticks": 41592,
          "time": 81.234375,
          "velocity": 0.3937007874015748
        },
        {
          "duration": 0.046875,
          "durationTicks": 24,
          "midi": 81,
          "name": "A5",
          "ticks": 41592,
          "time": 81.234375,
          "velocity": 0.3937007874015748
        },
        {
          "duration": 0.046875,
          "durationTicks": 24,
          "midi": 81,
          "name": "A5",
          "ticks": 41592,
          "time": 81.234375,
          "velocity": 0.3937007874015748
        },
        {
          "duration": 0.046875,
          "durationTicks": 24,
          "midi": 30,
          "name": "F#1",
          "ticks": 41592,
          "time": 81.234375,
          "velocity": 0.3937007874015748
        },
        {
          "duration": 0.046875,
          "durationTicks": 24,
          "midi": 30,
          "name": "F#1",
          "ticks": 41592,
          "time": 81.234375,
          "velocity": 0.3937007874015748
        },
        {
          "duration": 0.046875,
          "durationTicks": 24,
          "midi": 42,
          "name": "F#2",
          "ticks": 41592,
          "time": 81.234375,
          "velocity": 0.3937007874015748
        },
        {
          "duration": 0.046875,
          "durationTicks": 24,
          "midi": 81,
          "name": "A5",
          "ticks": 41592,
          "time": 81.234375,
          "velocity": 0.3937007874015748
        },
        {
          "duration": 0.046875,
          "durationTicks": 24,
          "midi": 30,
          "name": "F#1",
          "ticks": 41592,
          "time": 81.234375,
          "velocity": 0.3937007874015748
        },
        {
          "duration": 0.046875,
          "durationTicks": 24,
          "midi": 69,
          "name": "A4",
          "ticks": 41592,
          "time": 81.234375,
          "velocity": 0.3937007874015748
        },
        {
          "duration": 0.046875,
          "durationTicks": 24,
          "midi": 81,
          "name": "A5",
          "ticks": 41592,
          "time": 81.234375,
          "velocity": 0.3937007874015748
        },
        {
          "duration": 0.046875,
          "durationTicks": 24,
          "midi": 42,
          "name": "F#2",
          "ticks": 41592,
          "time": 81.234375,
          "velocity": 0.3937007874015748
        },
        {
          "duration": 0.046875,
          "durationTicks": 24,
          "midi": 69,
          "name": "A4",
          "ticks": 41592,
          "time": 81.234375,
          "velocity": 0.3937007874015748
        },
        {
          "duration": 0.046875,
          "durationTicks": 24,
          "midi": 69,
          "name": "A4",
          "ticks": 41592,
          "time": 81.234375,
          "velocity": 0.3937007874015748
        },
        {
          "duration": 0.046875,
          "durationTicks": 24,
          "midi": 42,
          "name": "F#2",
          "ticks": 41592,
          "time": 81.234375,
          "velocity": 0.3937007874015748
        },
        {
          "duration": 0.046875,
          "durationTicks": 24,
          "midi": 30,
          "name": "F#1",
          "ticks": 41592,
          "time": 81.234375,
          "velocity": 0.3937007874015748
        },
        {
          "duration": 0.046875,
          "durationTicks": 24,
          "midi": 42,
          "name": "F#2",
          "ticks": 41592,
          "time": 81.234375,
          "velocity": 0.3937007874015748
        },
        {
          "duration": 0.046875,
          "durationTicks": 24,
          "midi": 42,
          "name": "F#2",
          "ticks": 41616,
          "time": 81.28125,
          "velocity": 0.3937007874015748
        },
        {
          "duration": 0.046875,
          "durationTicks": 24,
          "midi": 42,
          "name": "F#2",
          "ticks": 41616,
          "time": 81.28125,
          "velocity": 0.3937007874015748
        },
        {
          "duration": 0.046875,
          "durationTicks": 24,
          "midi": 69,
          "name": "A4",
          "ticks": 41616,
          "time": 81.28125,
          "velocity": 0.3937007874015748
        },
        {
          "duration": 0.046875,
          "durationTicks": 24,
          "midi": 30,
          "name": "F#1",
          "ticks": 41616,
          "time": 81.28125,
          "velocity": 0.3937007874015748
        },
        {
          "duration": 0.046875,
          "durationTicks": 24,
          "midi": 30,
          "name": "F#1",
          "ticks": 41616,
          "time": 81.28125,
          "velocity": 0.3937007874015748
        },
        {
          "duration": 0.046875,
          "durationTicks": 24,
          "midi": 42,
          "name": "F#2",
          "ticks": 41616,
          "time": 81.28125,
          "velocity": 0.3937007874015748
        },
        {
          "duration": 0.046875,
          "durationTicks": 24,
          "midi": 30,
          "name": "F#1",
          "ticks": 41616,
          "time": 81.28125,
          "velocity": 0.3937007874015748
        },
        {
          "duration": 0.046875,
          "durationTicks": 24,
          "midi": 42,
          "name": "F#2",
          "ticks": 41616,
          "time": 81.28125,
          "velocity": 0.3937007874015748
        },
        {
          "duration": 0.046875,
          "durationTicks": 24,
          "midi": 81,
          "name": "A5",
          "ticks": 41616,
          "time": 81.28125,
          "velocity": 0.3937007874015748
        },
        {
          "duration": 0.046875,
          "durationTicks": 24,
          "midi": 81,
          "name": "A5",
          "ticks": 41616,
          "time": 81.28125,
          "velocity": 0.3937007874015748
        },
        {
          "duration": 0.046875,
          "durationTicks": 24,
          "midi": 81,
          "name": "A5",
          "ticks": 41616,
          "time": 81.28125,
          "velocity": 0.3937007874015748
        },
        {
          "duration": 0.046875,
          "durationTicks": 24,
          "midi": 69,
          "name": "A4",
          "ticks": 41616,
          "time": 81.28125,
          "velocity": 0.3937007874015748
        },
        {
          "duration": 0.046875,
          "durationTicks": 24,
          "midi": 69,
          "name": "A4",
          "ticks": 41616,
          "time": 81.28125,
          "velocity": 0.3937007874015748
        },
        {
          "duration": 0.046875,
          "durationTicks": 24,
          "midi": 81,
          "name": "A5",
          "ticks": 41616,
          "time": 81.28125,
          "velocity": 0.3937007874015748
        },
        {
          "duration": 0.046875,
          "durationTicks": 24,
          "midi": 30,
          "name": "F#1",
          "ticks": 41616,
          "time": 81.28125,
          "velocity": 0.3937007874015748
        },
        {
          "duration": 0.046875,
          "durationTicks": 24,
          "midi": 69,
          "name": "A4",
          "ticks": 41616,
          "time": 81.28125,
          "velocity": 0.3937007874015748
        },
        {
          "duration": 0.046875,
          "durationTicks": 24,
          "midi": 81,
          "name": "A5",
          "ticks": 41640,
          "time": 81.328125,
          "velocity": 0.3937007874015748
        },
        {
          "duration": 0.046875,
          "durationTicks": 24,
          "midi": 42,
          "name": "F#2",
          "ticks": 41640,
          "time": 81.328125,
          "velocity": 0.3937007874015748
        },
        {
          "duration": 0.046875,
          "durationTicks": 24,
          "midi": 42,
          "name": "F#2",
          "ticks": 41640,
          "time": 81.328125,
          "velocity": 0.3937007874015748
        },
        {
          "duration": 0.046875,
          "durationTicks": 24,
          "midi": 81,
          "name": "A5",
          "ticks": 41640,
          "time": 81.328125,
          "velocity": 0.3937007874015748
        },
        {
          "duration": 0.046875,
          "durationTicks": 24,
          "midi": 69,
          "name": "A4",
          "ticks": 41640,
          "time": 81.328125,
          "velocity": 0.3937007874015748
        },
        {
          "duration": 0.046875,
          "durationTicks": 24,
          "midi": 42,
          "name": "F#2",
          "ticks": 41640,
          "time": 81.328125,
          "velocity": 0.3937007874015748
        },
        {
          "duration": 0.046875,
          "durationTicks": 24,
          "midi": 30,
          "name": "F#1",
          "ticks": 41640,
          "time": 81.328125,
          "velocity": 0.3937007874015748
        },
        {
          "duration": 0.046875,
          "durationTicks": 24,
          "midi": 69,
          "name": "A4",
          "ticks": 41640,
          "time": 81.328125,
          "velocity": 0.3937007874015748
        },
        {
          "duration": 0.046875,
          "durationTicks": 24,
          "midi": 30,
          "name": "F#1",
          "ticks": 41640,
          "time": 81.328125,
          "velocity": 0.3937007874015748
        },
        {
          "duration": 0.046875,
          "durationTicks": 24,
          "midi": 69,
          "name": "A4",
          "ticks": 41640,
          "time": 81.328125,
          "velocity": 0.3937007874015748
        },
        {
          "duration": 0.046875,
          "durationTicks": 24,
          "midi": 69,
          "name": "A4",
          "ticks": 41640,
          "time": 81.328125,
          "velocity": 0.3937007874015748
        },
        {
          "duration": 0.046875,
          "durationTicks": 24,
          "midi": 30,
          "name": "F#1",
          "ticks": 41640,
          "time": 81.328125,
          "velocity": 0.3937007874015748
        },
        {
          "duration": 0.046875,
          "durationTicks": 24,
          "midi": 30,
          "name": "F#1",
          "ticks": 41640,
          "time": 81.328125,
          "velocity": 0.3937007874015748
        },
        {
          "duration": 0.046875,
          "durationTicks": 24,
          "midi": 81,
          "name": "A5",
          "ticks": 41640,
          "time": 81.328125,
          "velocity": 0.3937007874015748
        },
        {
          "duration": 0.046875,
          "durationTicks": 24,
          "midi": 42,
          "name": "F#2",
          "ticks": 41640,
          "time": 81.328125,
          "velocity": 0.3937007874015748
        },
        {
          "duration": 0.046875,
          "durationTicks": 24,
          "midi": 81,
          "name": "A5",
          "ticks": 41640,
          "time": 81.328125,
          "velocity": 0.3937007874015748
        },
        {
          "duration": 0.046875,
          "durationTicks": 24,
          "midi": 81,
          "name": "A5",
          "ticks": 41664,
          "time": 81.375,
          "velocity": 0.3937007874015748
        },
        {
          "duration": 0.046875,
          "durationTicks": 24,
          "midi": 30,
          "name": "F#1",
          "ticks": 41664,
          "time": 81.375,
          "velocity": 0.3937007874015748
        },
        {
          "duration": 0.046875,
          "durationTicks": 24,
          "midi": 30,
          "name": "F#1",
          "ticks": 41664,
          "time": 81.375,
          "velocity": 0.3937007874015748
        },
        {
          "duration": 0.046875,
          "durationTicks": 24,
          "midi": 69,
          "name": "A4",
          "ticks": 41664,
          "time": 81.375,
          "velocity": 0.3937007874015748
        },
        {
          "duration": 0.046875,
          "durationTicks": 24,
          "midi": 30,
          "name": "F#1",
          "ticks": 41664,
          "time": 81.375,
          "velocity": 0.3937007874015748
        },
        {
          "duration": 0.046875,
          "durationTicks": 24,
          "midi": 69,
          "name": "A4",
          "ticks": 41664,
          "time": 81.375,
          "velocity": 0.3937007874015748
        },
        {
          "duration": 0.046875,
          "durationTicks": 24,
          "midi": 42,
          "name": "F#2",
          "ticks": 41664,
          "time": 81.375,
          "velocity": 0.3937007874015748
        },
        {
          "duration": 0.046875,
          "durationTicks": 24,
          "midi": 42,
          "name": "F#2",
          "ticks": 41664,
          "time": 81.375,
          "velocity": 0.3937007874015748
        },
        {
          "duration": 0.046875,
          "durationTicks": 24,
          "midi": 81,
          "name": "A5",
          "ticks": 41664,
          "time": 81.375,
          "velocity": 0.3937007874015748
        },
        {
          "duration": 0.046875,
          "durationTicks": 24,
          "midi": 42,
          "name": "F#2",
          "ticks": 41664,
          "time": 81.375,
          "velocity": 0.3937007874015748
        },
        {
          "duration": 0.046875,
          "durationTicks": 24,
          "midi": 69,
          "name": "A4",
          "ticks": 41664,
          "time": 81.375,
          "velocity": 0.3937007874015748
        },
        {
          "duration": 0.046875,
          "durationTicks": 24,
          "midi": 69,
          "name": "A4",
          "ticks": 41664,
          "time": 81.375,
          "velocity": 0.3937007874015748
        },
        {
          "duration": 0.046875,
          "durationTicks": 24,
          "midi": 81,
          "name": "A5",
          "ticks": 41664,
          "time": 81.375,
          "velocity": 0.3937007874015748
        },
        {
          "duration": 0.046875,
          "durationTicks": 24,
          "midi": 81,
          "name": "A5",
          "ticks": 41664,
          "time": 81.375,
          "velocity": 0.3937007874015748
        },
        {
          "duration": 0.046875,
          "durationTicks": 24,
          "midi": 42,
          "name": "F#2",
          "ticks": 41664,
          "time": 81.375,
          "velocity": 0.3937007874015748
        },
        {
          "duration": 0.046875,
          "durationTicks": 24,
          "midi": 30,
          "name": "F#1",
          "ticks": 41664,
          "time": 81.375,
          "velocity": 0.3937007874015748
        },
        {
          "duration": 0.046875,
          "durationTicks": 24,
          "midi": 42,
          "name": "F#2",
          "ticks": 41688,
          "time": 81.421875,
          "velocity": 0.3937007874015748
        },
        {
          "duration": 0.046875,
          "durationTicks": 24,
          "midi": 69,
          "name": "A4",
          "ticks": 41688,
          "time": 81.421875,
          "velocity": 0.3937007874015748
        },
        {
          "duration": 0.046875,
          "durationTicks": 24,
          "midi": 42,
          "name": "F#2",
          "ticks": 41688,
          "time": 81.421875,
          "velocity": 0.3937007874015748
        },
        {
          "duration": 0.046875,
          "durationTicks": 24,
          "midi": 42,
          "name": "F#2",
          "ticks": 41688,
          "time": 81.421875,
          "velocity": 0.3937007874015748
        },
        {
          "duration": 0.046875,
          "durationTicks": 24,
          "midi": 81,
          "name": "A5",
          "ticks": 41688,
          "time": 81.421875,
          "velocity": 0.3937007874015748
        },
        {
          "duration": 0.046875,
          "durationTicks": 24,
          "midi": 42,
          "name": "F#2",
          "ticks": 41688,
          "time": 81.421875,
          "velocity": 0.3937007874015748
        },
        {
          "duration": 0.046875,
          "durationTicks": 24,
          "midi": 81,
          "name": "A5",
          "ticks": 41688,
          "time": 81.421875,
          "velocity": 0.3937007874015748
        },
        {
          "duration": 0.046875,
          "durationTicks": 24,
          "midi": 30,
          "name": "F#1",
          "ticks": 41688,
          "time": 81.421875,
          "velocity": 0.3937007874015748
        },
        {
          "duration": 0.046875,
          "durationTicks": 24,
          "midi": 69,
          "name": "A4",
          "ticks": 41688,
          "time": 81.421875,
          "velocity": 0.3937007874015748
        },
        {
          "duration": 0.046875,
          "durationTicks": 24,
          "midi": 69,
          "name": "A4",
          "ticks": 41688,
          "time": 81.421875,
          "velocity": 0.3937007874015748
        },
        {
          "duration": 0.046875,
          "durationTicks": 24,
          "midi": 69,
          "name": "A4",
          "ticks": 41688,
          "time": 81.421875,
          "velocity": 0.3937007874015748
        },
        {
          "duration": 0.046875,
          "durationTicks": 24,
          "midi": 81,
          "name": "A5",
          "ticks": 41688,
          "time": 81.421875,
          "velocity": 0.3937007874015748
        },
        {
          "duration": 0.046875,
          "durationTicks": 24,
          "midi": 30,
          "name": "F#1",
          "ticks": 41688,
          "time": 81.421875,
          "velocity": 0.3937007874015748
        },
        {
          "duration": 0.046875,
          "durationTicks": 24,
          "midi": 30,
          "name": "F#1",
          "ticks": 41688,
          "time": 81.421875,
          "velocity": 0.3937007874015748
        },
        {
          "duration": 0.046875,
          "durationTicks": 24,
          "midi": 30,
          "name": "F#1",
          "ticks": 41688,
          "time": 81.421875,
          "velocity": 0.3937007874015748
        },
        {
          "duration": 0.046875,
          "durationTicks": 24,
          "midi": 81,
          "name": "A5",
          "ticks": 41688,
          "time": 81.421875,
          "velocity": 0.3937007874015748
        },
        {
          "duration": 0.046875,
          "durationTicks": 24,
          "midi": 69,
          "name": "A4",
          "ticks": 41712,
          "time": 81.46875,
          "velocity": 0.3937007874015748
        },
        {
          "duration": 0.046875,
          "durationTicks": 24,
          "midi": 69,
          "name": "A4",
          "ticks": 41712,
          "time": 81.46875,
          "velocity": 0.3937007874015748
        },
        {
          "duration": 0.046875,
          "durationTicks": 24,
          "midi": 81,
          "name": "A5",
          "ticks": 41712,
          "time": 81.46875,
          "velocity": 0.3937007874015748
        },
        {
          "duration": 0.046875,
          "durationTicks": 24,
          "midi": 42,
          "name": "F#2",
          "ticks": 41712,
          "time": 81.46875,
          "velocity": 0.3937007874015748
        },
        {
          "duration": 0.046875,
          "durationTicks": 24,
          "midi": 42,
          "name": "F#2",
          "ticks": 41712,
          "time": 81.46875,
          "velocity": 0.3937007874015748
        },
        {
          "duration": 0.046875,
          "durationTicks": 24,
          "midi": 30,
          "name": "F#1",
          "ticks": 41712,
          "time": 81.46875,
          "velocity": 0.3937007874015748
        },
        {
          "duration": 0.046875,
          "durationTicks": 24,
          "midi": 69,
          "name": "A4",
          "ticks": 41712,
          "time": 81.46875,
          "velocity": 0.3937007874015748
        },
        {
          "duration": 0.046875,
          "durationTicks": 24,
          "midi": 42,
          "name": "F#2",
          "ticks": 41712,
          "time": 81.46875,
          "velocity": 0.3937007874015748
        },
        {
          "duration": 0.046875,
          "durationTicks": 24,
          "midi": 81,
          "name": "A5",
          "ticks": 41712,
          "time": 81.46875,
          "velocity": 0.3937007874015748
        },
        {
          "duration": 0.046875,
          "durationTicks": 24,
          "midi": 42,
          "name": "F#2",
          "ticks": 41712,
          "time": 81.46875,
          "velocity": 0.3937007874015748
        },
        {
          "duration": 0.046875,
          "durationTicks": 24,
          "midi": 69,
          "name": "A4",
          "ticks": 41712,
          "time": 81.46875,
          "velocity": 0.3937007874015748
        },
        {
          "duration": 0.046875,
          "durationTicks": 24,
          "midi": 30,
          "name": "F#1",
          "ticks": 41712,
          "time": 81.46875,
          "velocity": 0.3937007874015748
        },
        {
          "duration": 0.046875,
          "durationTicks": 24,
          "midi": 30,
          "name": "F#1",
          "ticks": 41712,
          "time": 81.46875,
          "velocity": 0.3937007874015748
        },
        {
          "duration": 0.046875,
          "durationTicks": 24,
          "midi": 81,
          "name": "A5",
          "ticks": 41712,
          "time": 81.46875,
          "velocity": 0.3937007874015748
        },
        {
          "duration": 0.046875,
          "durationTicks": 24,
          "midi": 30,
          "name": "F#1",
          "ticks": 41712,
          "time": 81.46875,
          "velocity": 0.3937007874015748
        },
        {
          "duration": 0.046875,
          "durationTicks": 24,
          "midi": 81,
          "name": "A5",
          "ticks": 41712,
          "time": 81.46875,
          "velocity": 0.3937007874015748
        },
        {
          "duration": 0.046875,
          "durationTicks": 24,
          "midi": 30,
          "name": "F#1",
          "ticks": 41736,
          "time": 81.515625,
          "velocity": 0.3937007874015748
        },
        {
          "duration": 0.046875,
          "durationTicks": 24,
          "midi": 42,
          "name": "F#2",
          "ticks": 41736,
          "time": 81.515625,
          "velocity": 0.3937007874015748
        },
        {
          "duration": 0.046875,
          "durationTicks": 24,
          "midi": 69,
          "name": "A4",
          "ticks": 41736,
          "time": 81.515625,
          "velocity": 0.3937007874015748
        },
        {
          "duration": 0.046875,
          "durationTicks": 24,
          "midi": 42,
          "name": "F#2",
          "ticks": 41736,
          "time": 81.515625,
          "velocity": 0.3937007874015748
        },
        {
          "duration": 0.046875,
          "durationTicks": 24,
          "midi": 42,
          "name": "F#2",
          "ticks": 41736,
          "time": 81.515625,
          "velocity": 0.3937007874015748
        },
        {
          "duration": 0.046875,
          "durationTicks": 24,
          "midi": 81,
          "name": "A5",
          "ticks": 41736,
          "time": 81.515625,
          "velocity": 0.3937007874015748
        },
        {
          "duration": 0.046875,
          "durationTicks": 24,
          "midi": 69,
          "name": "A4",
          "ticks": 41736,
          "time": 81.515625,
          "velocity": 0.3937007874015748
        },
        {
          "duration": 0.046875,
          "durationTicks": 24,
          "midi": 81,
          "name": "A5",
          "ticks": 41736,
          "time": 81.515625,
          "velocity": 0.3937007874015748
        },
        {
          "duration": 0.046875,
          "durationTicks": 24,
          "midi": 30,
          "name": "F#1",
          "ticks": 41736,
          "time": 81.515625,
          "velocity": 0.3937007874015748
        },
        {
          "duration": 0.046875,
          "durationTicks": 24,
          "midi": 42,
          "name": "F#2",
          "ticks": 41736,
          "time": 81.515625,
          "velocity": 0.3937007874015748
        },
        {
          "duration": 0.046875,
          "durationTicks": 24,
          "midi": 30,
          "name": "F#1",
          "ticks": 41736,
          "time": 81.515625,
          "velocity": 0.3937007874015748
        },
        {
          "duration": 0.046875,
          "durationTicks": 24,
          "midi": 69,
          "name": "A4",
          "ticks": 41736,
          "time": 81.515625,
          "velocity": 0.3937007874015748
        },
        {
          "duration": 0.046875,
          "durationTicks": 24,
          "midi": 30,
          "name": "F#1",
          "ticks": 41736,
          "time": 81.515625,
          "velocity": 0.3937007874015748
        },
        {
          "duration": 0.046875,
          "durationTicks": 24,
          "midi": 81,
          "name": "A5",
          "ticks": 41736,
          "time": 81.515625,
          "velocity": 0.3937007874015748
        },
        {
          "duration": 0.046875,
          "durationTicks": 24,
          "midi": 81,
          "name": "A5",
          "ticks": 41736,
          "time": 81.515625,
          "velocity": 0.3937007874015748
        },
        {
          "duration": 0.046875,
          "durationTicks": 24,
          "midi": 69,
          "name": "A4",
          "ticks": 41736,
          "time": 81.515625,
          "velocity": 0.3937007874015748
        },
        {
          "duration": 0.046875,
          "durationTicks": 24,
          "midi": 42,
          "name": "F#2",
          "ticks": 41760,
          "time": 81.5625,
          "velocity": 0.3937007874015748
        },
        {
          "duration": 0.046875,
          "durationTicks": 24,
          "midi": 30,
          "name": "F#1",
          "ticks": 41760,
          "time": 81.5625,
          "velocity": 0.3937007874015748
        },
        {
          "duration": 0.046875,
          "durationTicks": 24,
          "midi": 42,
          "name": "F#2",
          "ticks": 41760,
          "time": 81.5625,
          "velocity": 0.3937007874015748
        },
        {
          "duration": 0.046875,
          "durationTicks": 24,
          "midi": 69,
          "name": "A4",
          "ticks": 41760,
          "time": 81.5625,
          "velocity": 0.3937007874015748
        },
        {
          "duration": 0.046875,
          "durationTicks": 24,
          "midi": 81,
          "name": "A5",
          "ticks": 41760,
          "time": 81.5625,
          "velocity": 0.3937007874015748
        },
        {
          "duration": 0.046875,
          "durationTicks": 24,
          "midi": 69,
          "name": "A4",
          "ticks": 41760,
          "time": 81.5625,
          "velocity": 0.3937007874015748
        },
        {
          "duration": 0.046875,
          "durationTicks": 24,
          "midi": 81,
          "name": "A5",
          "ticks": 41760,
          "time": 81.5625,
          "velocity": 0.3937007874015748
        },
        {
          "duration": 0.046875,
          "durationTicks": 24,
          "midi": 30,
          "name": "F#1",
          "ticks": 41760,
          "time": 81.5625,
          "velocity": 0.3937007874015748
        },
        {
          "duration": 0.046875,
          "durationTicks": 24,
          "midi": 81,
          "name": "A5",
          "ticks": 41784,
          "time": 81.609375,
          "velocity": 0.3937007874015748
        },
        {
          "duration": 0.046875,
          "durationTicks": 24,
          "midi": 69,
          "name": "A4",
          "ticks": 41784,
          "time": 81.609375,
          "velocity": 0.3937007874015748
        },
        {
          "duration": 0.046875,
          "durationTicks": 24,
          "midi": 30,
          "name": "F#1",
          "ticks": 41784,
          "time": 81.609375,
          "velocity": 0.3937007874015748
        },
        {
          "duration": 0.046875,
          "durationTicks": 24,
          "midi": 81,
          "name": "A5",
          "ticks": 41784,
          "time": 81.609375,
          "velocity": 0.3937007874015748
        },
        {
          "duration": 0.046875,
          "durationTicks": 24,
          "midi": 69,
          "name": "A4",
          "ticks": 41784,
          "time": 81.609375,
          "velocity": 0.3937007874015748
        },
        {
          "duration": 0.046875,
          "durationTicks": 24,
          "midi": 30,
          "name": "F#1",
          "ticks": 41784,
          "time": 81.609375,
          "velocity": 0.3937007874015748
        },
        {
          "duration": 0.046875,
          "durationTicks": 24,
          "midi": 42,
          "name": "F#2",
          "ticks": 41784,
          "time": 81.609375,
          "velocity": 0.3937007874015748
        },
        {
          "duration": 0.046875,
          "durationTicks": 24,
          "midi": 42,
          "name": "F#2",
          "ticks": 41784,
          "time": 81.609375,
          "velocity": 0.3937007874015748
        },
        {
          "duration": 0.046875,
          "durationTicks": 24,
          "midi": 42,
          "name": "F#2",
          "ticks": 41808,
          "time": 81.65625,
          "velocity": 0.3937007874015748
        },
        {
          "duration": 0.046875,
          "durationTicks": 24,
          "midi": 42,
          "name": "F#2",
          "ticks": 41808,
          "time": 81.65625,
          "velocity": 0.3937007874015748
        },
        {
          "duration": 0.046875,
          "durationTicks": 24,
          "midi": 30,
          "name": "F#1",
          "ticks": 41808,
          "time": 81.65625,
          "velocity": 0.3937007874015748
        },
        {
          "duration": 0.046875,
          "durationTicks": 24,
          "midi": 69,
          "name": "A4",
          "ticks": 41808,
          "time": 81.65625,
          "velocity": 0.3937007874015748
        },
        {
          "duration": 0.046875,
          "durationTicks": 24,
          "midi": 81,
          "name": "A5",
          "ticks": 41808,
          "time": 81.65625,
          "velocity": 0.3937007874015748
        },
        {
          "duration": 0.046875,
          "durationTicks": 24,
          "midi": 30,
          "name": "F#1",
          "ticks": 41808,
          "time": 81.65625,
          "velocity": 0.3937007874015748
        },
        {
          "duration": 0.046875,
          "durationTicks": 24,
          "midi": 69,
          "name": "A4",
          "ticks": 41808,
          "time": 81.65625,
          "velocity": 0.3937007874015748
        },
        {
          "duration": 0.046875,
          "durationTicks": 24,
          "midi": 81,
          "name": "A5",
          "ticks": 41808,
          "time": 81.65625,
          "velocity": 0.3937007874015748
        },
        {
          "duration": 0.046875,
          "durationTicks": 24,
          "midi": 30,
          "name": "F#1",
          "ticks": 41832,
          "time": 81.703125,
          "velocity": 0.3937007874015748
        },
        {
          "duration": 0.046875,
          "durationTicks": 24,
          "midi": 42,
          "name": "F#2",
          "ticks": 41832,
          "time": 81.703125,
          "velocity": 0.3937007874015748
        },
        {
          "duration": 0.046875,
          "durationTicks": 24,
          "midi": 69,
          "name": "A4",
          "ticks": 41832,
          "time": 81.703125,
          "velocity": 0.3937007874015748
        },
        {
          "duration": 0.046875,
          "durationTicks": 24,
          "midi": 30,
          "name": "F#1",
          "ticks": 41832,
          "time": 81.703125,
          "velocity": 0.3937007874015748
        },
        {
          "duration": 0.046875,
          "durationTicks": 24,
          "midi": 69,
          "name": "A4",
          "ticks": 41832,
          "time": 81.703125,
          "velocity": 0.3937007874015748
        },
        {
          "duration": 0.046875,
          "durationTicks": 24,
          "midi": 42,
          "name": "F#2",
          "ticks": 41832,
          "time": 81.703125,
          "velocity": 0.3937007874015748
        },
        {
          "duration": 0.046875,
          "durationTicks": 24,
          "midi": 81,
          "name": "A5",
          "ticks": 41832,
          "time": 81.703125,
          "velocity": 0.3937007874015748
        },
        {
          "duration": 0.046875,
          "durationTicks": 24,
          "midi": 81,
          "name": "A5",
          "ticks": 41832,
          "time": 81.703125,
          "velocity": 0.3937007874015748
        },
        {
          "duration": 0.046875,
          "durationTicks": 24,
          "midi": 69,
          "name": "A4",
          "ticks": 41856,
          "time": 81.75,
          "velocity": 0.3937007874015748
        },
        {
          "duration": 0.046875,
          "durationTicks": 24,
          "midi": 81,
          "name": "A5",
          "ticks": 41856,
          "time": 81.75,
          "velocity": 0.3937007874015748
        },
        {
          "duration": 0.046875,
          "durationTicks": 24,
          "midi": 69,
          "name": "A4",
          "ticks": 41856,
          "time": 81.75,
          "velocity": 0.3937007874015748
        },
        {
          "duration": 0.046875,
          "durationTicks": 24,
          "midi": 49,
          "name": "C#3",
          "ticks": 41856,
          "time": 81.75,
          "velocity": 0.3937007874015748
        },
        {
          "duration": 0.046875,
          "durationTicks": 24,
          "midi": 54,
          "name": "F#3",
          "ticks": 41856,
          "time": 81.75,
          "velocity": 0.3937007874015748
        },
        {
          "duration": 0.046875,
          "durationTicks": 24,
          "midi": 54,
          "name": "F#3",
          "ticks": 41856,
          "time": 81.75,
          "velocity": 0.3937007874015748
        },
        {
          "duration": 0.046875,
          "durationTicks": 24,
          "midi": 54,
          "name": "F#3",
          "ticks": 41856,
          "time": 81.75,
          "velocity": 0.3937007874015748
        },
        {
          "duration": 0.046875,
          "durationTicks": 24,
          "midi": 54,
          "name": "F#3",
          "ticks": 41856,
          "time": 81.75,
          "velocity": 0.3937007874015748
        },
        {
          "duration": 0.046875,
          "durationTicks": 24,
          "midi": 81,
          "name": "A5",
          "ticks": 41856,
          "time": 81.75,
          "velocity": 0.3937007874015748
        },
        {
          "duration": 0.046875,
          "durationTicks": 24,
          "midi": 49,
          "name": "C#3",
          "ticks": 41856,
          "time": 81.75,
          "velocity": 0.3937007874015748
        },
        {
          "duration": 0.046875,
          "durationTicks": 24,
          "midi": 54,
          "name": "F#3",
          "ticks": 41856,
          "time": 81.75,
          "velocity": 0.3937007874015748
        },
        {
          "duration": 0.046875,
          "durationTicks": 24,
          "midi": 49,
          "name": "C#3",
          "ticks": 41856,
          "time": 81.75,
          "velocity": 0.3937007874015748
        },
        {
          "duration": 0.046875,
          "durationTicks": 24,
          "midi": 49,
          "name": "C#3",
          "ticks": 41856,
          "time": 81.75,
          "velocity": 0.3937007874015748
        },
        {
          "duration": 0.046875,
          "durationTicks": 24,
          "midi": 49,
          "name": "C#3",
          "ticks": 41856,
          "time": 81.75,
          "velocity": 0.3937007874015748
        },
        {
          "duration": 0.046875,
          "durationTicks": 24,
          "midi": 54,
          "name": "F#3",
          "ticks": 41856,
          "time": 81.75,
          "velocity": 0.3937007874015748
        },
        {
          "duration": 0.046875,
          "durationTicks": 24,
          "midi": 49,
          "name": "C#3",
          "ticks": 41856,
          "time": 81.75,
          "velocity": 0.3937007874015748
        },
        {
          "duration": 0.046875,
          "durationTicks": 24,
          "midi": 81,
          "name": "A5",
          "ticks": 41880,
          "time": 81.796875,
          "velocity": 0.3937007874015748
        },
        {
          "duration": 0.046875,
          "durationTicks": 24,
          "midi": 54,
          "name": "F#3",
          "ticks": 41880,
          "time": 81.796875,
          "velocity": 0.3937007874015748
        },
        {
          "duration": 0.046875,
          "durationTicks": 24,
          "midi": 69,
          "name": "A4",
          "ticks": 41880,
          "time": 81.796875,
          "velocity": 0.3937007874015748
        },
        {
          "duration": 0.046875,
          "durationTicks": 24,
          "midi": 54,
          "name": "F#3",
          "ticks": 41880,
          "time": 81.796875,
          "velocity": 0.3937007874015748
        },
        {
          "duration": 0.046875,
          "durationTicks": 24,
          "midi": 49,
          "name": "C#3",
          "ticks": 41880,
          "time": 81.796875,
          "velocity": 0.3937007874015748
        },
        {
          "duration": 0.046875,
          "durationTicks": 24,
          "midi": 49,
          "name": "C#3",
          "ticks": 41880,
          "time": 81.796875,
          "velocity": 0.3937007874015748
        },
        {
          "duration": 0.046875,
          "durationTicks": 24,
          "midi": 49,
          "name": "C#3",
          "ticks": 41880,
          "time": 81.796875,
          "velocity": 0.3937007874015748
        },
        {
          "duration": 0.046875,
          "durationTicks": 24,
          "midi": 49,
          "name": "C#3",
          "ticks": 41880,
          "time": 81.796875,
          "velocity": 0.3937007874015748
        },
        {
          "duration": 0.046875,
          "durationTicks": 24,
          "midi": 54,
          "name": "F#3",
          "ticks": 41880,
          "time": 81.796875,
          "velocity": 0.3937007874015748
        },
        {
          "duration": 0.046875,
          "durationTicks": 24,
          "midi": 69,
          "name": "A4",
          "ticks": 41880,
          "time": 81.796875,
          "velocity": 0.3937007874015748
        },
        {
          "duration": 0.046875,
          "durationTicks": 24,
          "midi": 54,
          "name": "F#3",
          "ticks": 41880,
          "time": 81.796875,
          "velocity": 0.3937007874015748
        },
        {
          "duration": 0.046875,
          "durationTicks": 24,
          "midi": 49,
          "name": "C#3",
          "ticks": 41880,
          "time": 81.796875,
          "velocity": 0.3937007874015748
        },
        {
          "duration": 0.046875,
          "durationTicks": 24,
          "midi": 81,
          "name": "A5",
          "ticks": 41880,
          "time": 81.796875,
          "velocity": 0.3937007874015748
        },
        {
          "duration": 0.046875,
          "durationTicks": 24,
          "midi": 54,
          "name": "F#3",
          "ticks": 41880,
          "time": 81.796875,
          "velocity": 0.3937007874015748
        },
        {
          "duration": 0.046875,
          "durationTicks": 24,
          "midi": 54,
          "name": "F#3",
          "ticks": 41880,
          "time": 81.796875,
          "velocity": 0.3937007874015748
        },
        {
          "duration": 0.046875,
          "durationTicks": 24,
          "midi": 49,
          "name": "C#3",
          "ticks": 41880,
          "time": 81.796875,
          "velocity": 0.3937007874015748
        },
        {
          "duration": 0.046875,
          "durationTicks": 24,
          "midi": 54,
          "name": "F#3",
          "ticks": 41904,
          "time": 81.84375,
          "velocity": 0.3937007874015748
        },
        {
          "duration": 0.046875,
          "durationTicks": 24,
          "midi": 49,
          "name": "C#3",
          "ticks": 41904,
          "time": 81.84375,
          "velocity": 0.3937007874015748
        },
        {
          "duration": 0.046875,
          "durationTicks": 24,
          "midi": 54,
          "name": "F#3",
          "ticks": 41904,
          "time": 81.84375,
          "velocity": 0.3937007874015748
        },
        {
          "duration": 0.046875,
          "durationTicks": 24,
          "midi": 54,
          "name": "F#3",
          "ticks": 41904,
          "time": 81.84375,
          "velocity": 0.3937007874015748
        },
        {
          "duration": 0.046875,
          "durationTicks": 24,
          "midi": 49,
          "name": "C#3",
          "ticks": 41904,
          "time": 81.84375,
          "velocity": 0.3937007874015748
        },
        {
          "duration": 0.046875,
          "durationTicks": 24,
          "midi": 54,
          "name": "F#3",
          "ticks": 41904,
          "time": 81.84375,
          "velocity": 0.3937007874015748
        },
        {
          "duration": 0.046875,
          "durationTicks": 24,
          "midi": 49,
          "name": "C#3",
          "ticks": 41904,
          "time": 81.84375,
          "velocity": 0.3937007874015748
        },
        {
          "duration": 0.046875,
          "durationTicks": 24,
          "midi": 49,
          "name": "C#3",
          "ticks": 41904,
          "time": 81.84375,
          "velocity": 0.3937007874015748
        },
        {
          "duration": 0.046875,
          "durationTicks": 24,
          "midi": 54,
          "name": "F#3",
          "ticks": 41904,
          "time": 81.84375,
          "velocity": 0.3937007874015748
        },
        {
          "duration": 0.046875,
          "durationTicks": 24,
          "midi": 54,
          "name": "F#3",
          "ticks": 41904,
          "time": 81.84375,
          "velocity": 0.3937007874015748
        },
        {
          "duration": 0.046875,
          "durationTicks": 24,
          "midi": 49,
          "name": "C#3",
          "ticks": 41904,
          "time": 81.84375,
          "velocity": 0.3937007874015748
        },
        {
          "duration": 0.046875,
          "durationTicks": 24,
          "midi": 49,
          "name": "C#3",
          "ticks": 41904,
          "time": 81.84375,
          "velocity": 0.3937007874015748
        },
        {
          "duration": 0.046875,
          "durationTicks": 24,
          "midi": 49,
          "name": "C#3",
          "ticks": 41928,
          "time": 81.890625,
          "velocity": 0.3937007874015748
        },
        {
          "duration": 0.046875,
          "durationTicks": 24,
          "midi": 54,
          "name": "F#3",
          "ticks": 41928,
          "time": 81.890625,
          "velocity": 0.3937007874015748
        },
        {
          "duration": 0.046875,
          "durationTicks": 24,
          "midi": 49,
          "name": "C#3",
          "ticks": 41928,
          "time": 81.890625,
          "velocity": 0.3937007874015748
        },
        {
          "duration": 0.046875,
          "durationTicks": 24,
          "midi": 49,
          "name": "C#3",
          "ticks": 41928,
          "time": 81.890625,
          "velocity": 0.3937007874015748
        },
        {
          "duration": 0.046875,
          "durationTicks": 24,
          "midi": 54,
          "name": "F#3",
          "ticks": 41928,
          "time": 81.890625,
          "velocity": 0.3937007874015748
        },
        {
          "duration": 0.046875,
          "durationTicks": 24,
          "midi": 49,
          "name": "C#3",
          "ticks": 41928,
          "time": 81.890625,
          "velocity": 0.3937007874015748
        },
        {
          "duration": 0.046875,
          "durationTicks": 24,
          "midi": 54,
          "name": "F#3",
          "ticks": 41928,
          "time": 81.890625,
          "velocity": 0.3937007874015748
        },
        {
          "duration": 0.046875,
          "durationTicks": 24,
          "midi": 54,
          "name": "F#3",
          "ticks": 41928,
          "time": 81.890625,
          "velocity": 0.3937007874015748
        },
        {
          "duration": 0.046875,
          "durationTicks": 24,
          "midi": 49,
          "name": "C#3",
          "ticks": 41928,
          "time": 81.890625,
          "velocity": 0.3937007874015748
        },
        {
          "duration": 0.046875,
          "durationTicks": 24,
          "midi": 54,
          "name": "F#3",
          "ticks": 41928,
          "time": 81.890625,
          "velocity": 0.3937007874015748
        },
        {
          "duration": 0.046875,
          "durationTicks": 24,
          "midi": 49,
          "name": "C#3",
          "ticks": 41928,
          "time": 81.890625,
          "velocity": 0.3937007874015748
        },
        {
          "duration": 0.046875,
          "durationTicks": 24,
          "midi": 54,
          "name": "F#3",
          "ticks": 41928,
          "time": 81.890625,
          "velocity": 0.3937007874015748
        },
        {
          "duration": 0.046875,
          "durationTicks": 24,
          "midi": 49,
          "name": "C#3",
          "ticks": 41952,
          "time": 81.9375,
          "velocity": 0.3937007874015748
        },
        {
          "duration": 0.046875,
          "durationTicks": 24,
          "midi": 81,
          "name": "A5",
          "ticks": 41952,
          "time": 81.9375,
          "velocity": 0.3937007874015748
        },
        {
          "duration": 0.046875,
          "durationTicks": 24,
          "midi": 81,
          "name": "A5",
          "ticks": 41952,
          "time": 81.9375,
          "velocity": 0.3937007874015748
        },
        {
          "duration": 0.046875,
          "durationTicks": 24,
          "midi": 69,
          "name": "A4",
          "ticks": 41952,
          "time": 81.9375,
          "velocity": 0.3937007874015748
        },
        {
          "duration": 0.046875,
          "durationTicks": 24,
          "midi": 54,
          "name": "F#3",
          "ticks": 41952,
          "time": 81.9375,
          "velocity": 0.3937007874015748
        },
        {
          "duration": 0.046875,
          "durationTicks": 24,
          "midi": 69,
          "name": "A4",
          "ticks": 41952,
          "time": 81.9375,
          "velocity": 0.3937007874015748
        },
        {
          "duration": 0.046875,
          "durationTicks": 24,
          "midi": 54,
          "name": "F#3",
          "ticks": 41952,
          "time": 81.9375,
          "velocity": 0.3937007874015748
        },
        {
          "duration": 0.046875,
          "durationTicks": 24,
          "midi": 69,
          "name": "A4",
          "ticks": 41952,
          "time": 81.9375,
          "velocity": 0.3937007874015748
        },
        {
          "duration": 0.046875,
          "durationTicks": 24,
          "midi": 54,
          "name": "F#3",
          "ticks": 41952,
          "time": 81.9375,
          "velocity": 0.3937007874015748
        },
        {
          "duration": 0.046875,
          "durationTicks": 24,
          "midi": 54,
          "name": "F#3",
          "ticks": 41952,
          "time": 81.9375,
          "velocity": 0.3937007874015748
        },
        {
          "duration": 0.046875,
          "durationTicks": 24,
          "midi": 49,
          "name": "C#3",
          "ticks": 41952,
          "time": 81.9375,
          "velocity": 0.3937007874015748
        },
        {
          "duration": 0.046875,
          "durationTicks": 24,
          "midi": 81,
          "name": "A5",
          "ticks": 41952,
          "time": 81.9375,
          "velocity": 0.3937007874015748
        },
        {
          "duration": 0.046875,
          "durationTicks": 24,
          "midi": 49,
          "name": "C#3",
          "ticks": 41952,
          "time": 81.9375,
          "velocity": 0.3937007874015748
        },
        {
          "duration": 0.046875,
          "durationTicks": 24,
          "midi": 81,
          "name": "A5",
          "ticks": 41952,
          "time": 81.9375,
          "velocity": 0.3937007874015748
        },
        {
          "duration": 0.046875,
          "durationTicks": 24,
          "midi": 49,
          "name": "C#3",
          "ticks": 41952,
          "time": 81.9375,
          "velocity": 0.3937007874015748
        },
        {
          "duration": 0.046875,
          "durationTicks": 24,
          "midi": 69,
          "name": "A4",
          "ticks": 41952,
          "time": 81.9375,
          "velocity": 0.3937007874015748
        },
        {
          "duration": 0.046875,
          "durationTicks": 24,
          "midi": 49,
          "name": "C#3",
          "ticks": 41976,
          "time": 81.984375,
          "velocity": 0.3937007874015748
        },
        {
          "duration": 0.046875,
          "durationTicks": 24,
          "midi": 81,
          "name": "A5",
          "ticks": 41976,
          "time": 81.984375,
          "velocity": 0.3937007874015748
        },
        {
          "duration": 0.046875,
          "durationTicks": 24,
          "midi": 54,
          "name": "F#3",
          "ticks": 41976,
          "time": 81.984375,
          "velocity": 0.3937007874015748
        },
        {
          "duration": 0.046875,
          "durationTicks": 24,
          "midi": 81,
          "name": "A5",
          "ticks": 41976,
          "time": 81.984375,
          "velocity": 0.3937007874015748
        },
        {
          "duration": 0.046875,
          "durationTicks": 24,
          "midi": 49,
          "name": "C#3",
          "ticks": 41976,
          "time": 81.984375,
          "velocity": 0.3937007874015748
        },
        {
          "duration": 0.046875,
          "durationTicks": 24,
          "midi": 54,
          "name": "F#3",
          "ticks": 41976,
          "time": 81.984375,
          "velocity": 0.3937007874015748
        },
        {
          "duration": 0.046875,
          "durationTicks": 24,
          "midi": 69,
          "name": "A4",
          "ticks": 41976,
          "time": 81.984375,
          "velocity": 0.3937007874015748
        },
        {
          "duration": 0.046875,
          "durationTicks": 24,
          "midi": 54,
          "name": "F#3",
          "ticks": 41976,
          "time": 81.984375,
          "velocity": 0.3937007874015748
        },
        {
          "duration": 0.046875,
          "durationTicks": 24,
          "midi": 69,
          "name": "A4",
          "ticks": 41976,
          "time": 81.984375,
          "velocity": 0.3937007874015748
        },
        {
          "duration": 0.046875,
          "durationTicks": 24,
          "midi": 69,
          "name": "A4",
          "ticks": 41976,
          "time": 81.984375,
          "velocity": 0.3937007874015748
        },
        {
          "duration": 0.046875,
          "durationTicks": 24,
          "midi": 81,
          "name": "A5",
          "ticks": 41976,
          "time": 81.984375,
          "velocity": 0.3937007874015748
        },
        {
          "duration": 0.046875,
          "durationTicks": 24,
          "midi": 49,
          "name": "C#3",
          "ticks": 41976,
          "time": 81.984375,
          "velocity": 0.3937007874015748
        },
        {
          "duration": 0.046875,
          "durationTicks": 24,
          "midi": 81,
          "name": "A5",
          "ticks": 41976,
          "time": 81.984375,
          "velocity": 0.3937007874015748
        },
        {
          "duration": 0.046875,
          "durationTicks": 24,
          "midi": 69,
          "name": "A4",
          "ticks": 41976,
          "time": 81.984375,
          "velocity": 0.3937007874015748
        },
        {
          "duration": 0.046875,
          "durationTicks": 24,
          "midi": 54,
          "name": "F#3",
          "ticks": 41976,
          "time": 81.984375,
          "velocity": 0.3937007874015748
        },
        {
          "duration": 0.046875,
          "durationTicks": 24,
          "midi": 49,
          "name": "C#3",
          "ticks": 41976,
          "time": 81.984375,
          "velocity": 0.3937007874015748
        },
        {
          "duration": 0.046875,
          "durationTicks": 24,
          "midi": 54,
          "name": "F#3",
          "ticks": 42000,
          "time": 82.03125,
          "velocity": 0.3937007874015748
        },
        {
          "duration": 0.046875,
          "durationTicks": 24,
          "midi": 49,
          "name": "C#3",
          "ticks": 42000,
          "time": 82.03125,
          "velocity": 0.3937007874015748
        },
        {
          "duration": 0.046875,
          "durationTicks": 24,
          "midi": 49,
          "name": "C#3",
          "ticks": 42000,
          "time": 82.03125,
          "velocity": 0.3937007874015748
        },
        {
          "duration": 0.046875,
          "durationTicks": 24,
          "midi": 49,
          "name": "C#3",
          "ticks": 42000,
          "time": 82.03125,
          "velocity": 0.3937007874015748
        },
        {
          "duration": 0.046875,
          "durationTicks": 24,
          "midi": 81,
          "name": "A5",
          "ticks": 42000,
          "time": 82.03125,
          "velocity": 0.3937007874015748
        },
        {
          "duration": 0.046875,
          "durationTicks": 24,
          "midi": 81,
          "name": "A5",
          "ticks": 42000,
          "time": 82.03125,
          "velocity": 0.3937007874015748
        },
        {
          "duration": 0.046875,
          "durationTicks": 24,
          "midi": 81,
          "name": "A5",
          "ticks": 42000,
          "time": 82.03125,
          "velocity": 0.3937007874015748
        },
        {
          "duration": 0.046875,
          "durationTicks": 24,
          "midi": 54,
          "name": "F#3",
          "ticks": 42000,
          "time": 82.03125,
          "velocity": 0.3937007874015748
        },
        {
          "duration": 0.046875,
          "durationTicks": 24,
          "midi": 69,
          "name": "A4",
          "ticks": 42000,
          "time": 82.03125,
          "velocity": 0.3937007874015748
        },
        {
          "duration": 0.046875,
          "durationTicks": 24,
          "midi": 81,
          "name": "A5",
          "ticks": 42000,
          "time": 82.03125,
          "velocity": 0.3937007874015748
        },
        {
          "duration": 0.046875,
          "durationTicks": 24,
          "midi": 69,
          "name": "A4",
          "ticks": 42000,
          "time": 82.03125,
          "velocity": 0.3937007874015748
        },
        {
          "duration": 0.046875,
          "durationTicks": 24,
          "midi": 49,
          "name": "C#3",
          "ticks": 42000,
          "time": 82.03125,
          "velocity": 0.3937007874015748
        },
        {
          "duration": 0.046875,
          "durationTicks": 24,
          "midi": 69,
          "name": "A4",
          "ticks": 42000,
          "time": 82.03125,
          "velocity": 0.3937007874015748
        },
        {
          "duration": 0.046875,
          "durationTicks": 24,
          "midi": 54,
          "name": "F#3",
          "ticks": 42000,
          "time": 82.03125,
          "velocity": 0.3937007874015748
        },
        {
          "duration": 0.046875,
          "durationTicks": 24,
          "midi": 54,
          "name": "F#3",
          "ticks": 42000,
          "time": 82.03125,
          "velocity": 0.3937007874015748
        },
        {
          "duration": 0.046875,
          "durationTicks": 24,
          "midi": 69,
          "name": "A4",
          "ticks": 42000,
          "time": 82.03125,
          "velocity": 0.3937007874015748
        },
        {
          "duration": 0.046875,
          "durationTicks": 24,
          "midi": 49,
          "name": "C#3",
          "ticks": 42024,
          "time": 82.078125,
          "velocity": 0.3937007874015748
        },
        {
          "duration": 0.046875,
          "durationTicks": 24,
          "midi": 49,
          "name": "C#3",
          "ticks": 42024,
          "time": 82.078125,
          "velocity": 0.3937007874015748
        },
        {
          "duration": 0.046875,
          "durationTicks": 24,
          "midi": 54,
          "name": "F#3",
          "ticks": 42024,
          "time": 82.078125,
          "velocity": 0.3937007874015748
        },
        {
          "duration": 0.046875,
          "durationTicks": 24,
          "midi": 54,
          "name": "F#3",
          "ticks": 42024,
          "time": 82.078125,
          "velocity": 0.3937007874015748
        },
        {
          "duration": 0.046875,
          "durationTicks": 24,
          "midi": 54,
          "name": "F#3",
          "ticks": 42024,
          "time": 82.078125,
          "velocity": 0.3937007874015748
        },
        {
          "duration": 0.046875,
          "durationTicks": 24,
          "midi": 54,
          "name": "F#3",
          "ticks": 42024,
          "time": 82.078125,
          "velocity": 0.3937007874015748
        },
        {
          "duration": 0.046875,
          "durationTicks": 24,
          "midi": 49,
          "name": "C#3",
          "ticks": 42024,
          "time": 82.078125,
          "velocity": 0.3937007874015748
        },
        {
          "duration": 0.046875,
          "durationTicks": 24,
          "midi": 49,
          "name": "C#3",
          "ticks": 42024,
          "time": 82.078125,
          "velocity": 0.3937007874015748
        },
        {
          "duration": 0.046875,
          "durationTicks": 24,
          "midi": 54,
          "name": "F#3",
          "ticks": 42048,
          "time": 82.125,
          "velocity": 0.3937007874015748
        },
        {
          "duration": 0.046875,
          "durationTicks": 24,
          "midi": 54,
          "name": "F#3",
          "ticks": 42048,
          "time": 82.125,
          "velocity": 0.3937007874015748
        },
        {
          "duration": 0.046875,
          "durationTicks": 24,
          "midi": 49,
          "name": "C#3",
          "ticks": 42048,
          "time": 82.125,
          "velocity": 0.3937007874015748
        },
        {
          "duration": 0.046875,
          "durationTicks": 24,
          "midi": 54,
          "name": "F#3",
          "ticks": 42048,
          "time": 82.125,
          "velocity": 0.3937007874015748
        },
        {
          "duration": 0.046875,
          "durationTicks": 24,
          "midi": 49,
          "name": "C#3",
          "ticks": 42048,
          "time": 82.125,
          "velocity": 0.3937007874015748
        },
        {
          "duration": 0.046875,
          "durationTicks": 24,
          "midi": 49,
          "name": "C#3",
          "ticks": 42048,
          "time": 82.125,
          "velocity": 0.3937007874015748
        },
        {
          "duration": 0.046875,
          "durationTicks": 24,
          "midi": 54,
          "name": "F#3",
          "ticks": 42048,
          "time": 82.125,
          "velocity": 0.3937007874015748
        },
        {
          "duration": 0.046875,
          "durationTicks": 24,
          "midi": 49,
          "name": "C#3",
          "ticks": 42048,
          "time": 82.125,
          "velocity": 0.3937007874015748
        },
        {
          "duration": 0.046875,
          "durationTicks": 24,
          "midi": 49,
          "name": "C#3",
          "ticks": 42072,
          "time": 82.171875,
          "velocity": 0.3937007874015748
        },
        {
          "duration": 0.046875,
          "durationTicks": 24,
          "midi": 49,
          "name": "C#3",
          "ticks": 42072,
          "time": 82.171875,
          "velocity": 0.3937007874015748
        },
        {
          "duration": 0.046875,
          "durationTicks": 24,
          "midi": 54,
          "name": "F#3",
          "ticks": 42072,
          "time": 82.171875,
          "velocity": 0.3937007874015748
        },
        {
          "duration": 0.046875,
          "durationTicks": 24,
          "midi": 49,
          "name": "C#3",
          "ticks": 42072,
          "time": 82.171875,
          "velocity": 0.3937007874015748
        },
        {
          "duration": 0.046875,
          "durationTicks": 24,
          "midi": 54,
          "name": "F#3",
          "ticks": 42072,
          "time": 82.171875,
          "velocity": 0.3937007874015748
        },
        {
          "duration": 0.046875,
          "durationTicks": 24,
          "midi": 54,
          "name": "F#3",
          "ticks": 42072,
          "time": 82.171875,
          "velocity": 0.3937007874015748
        },
        {
          "duration": 0.046875,
          "durationTicks": 24,
          "midi": 54,
          "name": "F#3",
          "ticks": 42072,
          "time": 82.171875,
          "velocity": 0.3937007874015748
        },
        {
          "duration": 0.046875,
          "durationTicks": 24,
          "midi": 49,
          "name": "C#3",
          "ticks": 42072,
          "time": 82.171875,
          "velocity": 0.3937007874015748
        },
        {
          "duration": 0.046875,
          "durationTicks": 24,
          "midi": 49,
          "name": "C#3",
          "ticks": 42096,
          "time": 82.21875,
          "velocity": 0.3937007874015748
        },
        {
          "duration": 0.046875,
          "durationTicks": 24,
          "midi": 81,
          "name": "A5",
          "ticks": 42096,
          "time": 82.21875,
          "velocity": 0.3937007874015748
        },
        {
          "duration": 0.046875,
          "durationTicks": 24,
          "midi": 69,
          "name": "A4",
          "ticks": 42096,
          "time": 82.21875,
          "velocity": 0.3937007874015748
        },
        {
          "duration": 0.046875,
          "durationTicks": 24,
          "midi": 54,
          "name": "F#3",
          "ticks": 42096,
          "time": 82.21875,
          "velocity": 0.3937007874015748
        },
        {
          "duration": 0.046875,
          "durationTicks": 24,
          "midi": 54,
          "name": "F#3",
          "ticks": 42096,
          "time": 82.21875,
          "velocity": 0.3937007874015748
        },
        {
          "duration": 0.046875,
          "durationTicks": 24,
          "midi": 69,
          "name": "A4",
          "ticks": 42096,
          "time": 82.21875,
          "velocity": 0.3937007874015748
        },
        {
          "duration": 0.046875,
          "durationTicks": 24,
          "midi": 54,
          "name": "F#3",
          "ticks": 42096,
          "time": 82.21875,
          "velocity": 0.3937007874015748
        },
        {
          "duration": 0.046875,
          "durationTicks": 24,
          "midi": 81,
          "name": "A5",
          "ticks": 42096,
          "time": 82.21875,
          "velocity": 0.3937007874015748
        },
        {
          "duration": 0.046875,
          "durationTicks": 24,
          "midi": 49,
          "name": "C#3",
          "ticks": 42096,
          "time": 82.21875,
          "velocity": 0.3937007874015748
        },
        {
          "duration": 0.046875,
          "durationTicks": 24,
          "midi": 81,
          "name": "A5",
          "ticks": 42096,
          "time": 82.21875,
          "velocity": 0.3937007874015748
        },
        {
          "duration": 0.046875,
          "durationTicks": 24,
          "midi": 69,
          "name": "A4",
          "ticks": 42096,
          "time": 82.21875,
          "velocity": 0.3937007874015748
        },
        {
          "duration": 0.046875,
          "durationTicks": 24,
          "midi": 54,
          "name": "F#3",
          "ticks": 42096,
          "time": 82.21875,
          "velocity": 0.3937007874015748
        },
        {
          "duration": 0.046875,
          "durationTicks": 24,
          "midi": 49,
          "name": "C#3",
          "ticks": 42096,
          "time": 82.21875,
          "velocity": 0.3937007874015748
        },
        {
          "duration": 0.046875,
          "durationTicks": 24,
          "midi": 81,
          "name": "A5",
          "ticks": 42096,
          "time": 82.21875,
          "velocity": 0.3937007874015748
        },
        {
          "duration": 0.046875,
          "durationTicks": 24,
          "midi": 69,
          "name": "A4",
          "ticks": 42096,
          "time": 82.21875,
          "velocity": 0.3937007874015748
        },
        {
          "duration": 0.046875,
          "durationTicks": 24,
          "midi": 49,
          "name": "C#3",
          "ticks": 42096,
          "time": 82.21875,
          "velocity": 0.3937007874015748
        },
        {
          "duration": 0.046875,
          "durationTicks": 24,
          "midi": 54,
          "name": "F#3",
          "ticks": 42120,
          "time": 82.265625,
          "velocity": 0.3937007874015748
        },
        {
          "duration": 0.046875,
          "durationTicks": 24,
          "midi": 49,
          "name": "C#3",
          "ticks": 42120,
          "time": 82.265625,
          "velocity": 0.3937007874015748
        },
        {
          "duration": 0.046875,
          "durationTicks": 24,
          "midi": 69,
          "name": "A4",
          "ticks": 42120,
          "time": 82.265625,
          "velocity": 0.3937007874015748
        },
        {
          "duration": 0.046875,
          "durationTicks": 24,
          "midi": 81,
          "name": "A5",
          "ticks": 42120,
          "time": 82.265625,
          "velocity": 0.3937007874015748
        },
        {
          "duration": 0.046875,
          "durationTicks": 24,
          "midi": 81,
          "name": "A5",
          "ticks": 42120,
          "time": 82.265625,
          "velocity": 0.3937007874015748
        },
        {
          "duration": 0.046875,
          "durationTicks": 24,
          "midi": 49,
          "name": "C#3",
          "ticks": 42120,
          "time": 82.265625,
          "velocity": 0.3937007874015748
        },
        {
          "duration": 0.046875,
          "durationTicks": 24,
          "midi": 54,
          "name": "F#3",
          "ticks": 42120,
          "time": 82.265625,
          "velocity": 0.3937007874015748
        },
        {
          "duration": 0.046875,
          "durationTicks": 24,
          "midi": 49,
          "name": "C#3",
          "ticks": 42120,
          "time": 82.265625,
          "velocity": 0.3937007874015748
        },
        {
          "duration": 0.046875,
          "durationTicks": 24,
          "midi": 54,
          "name": "F#3",
          "ticks": 42120,
          "time": 82.265625,
          "velocity": 0.3937007874015748
        },
        {
          "duration": 0.046875,
          "durationTicks": 24,
          "midi": 81,
          "name": "A5",
          "ticks": 42120,
          "time": 82.265625,
          "velocity": 0.3937007874015748
        },
        {
          "duration": 0.046875,
          "durationTicks": 24,
          "midi": 69,
          "name": "A4",
          "ticks": 42120,
          "time": 82.265625,
          "velocity": 0.3937007874015748
        },
        {
          "duration": 0.046875,
          "durationTicks": 24,
          "midi": 49,
          "name": "C#3",
          "ticks": 42120,
          "time": 82.265625,
          "velocity": 0.3937007874015748
        },
        {
          "duration": 0.046875,
          "durationTicks": 24,
          "midi": 69,
          "name": "A4",
          "ticks": 42120,
          "time": 82.265625,
          "velocity": 0.3937007874015748
        },
        {
          "duration": 0.046875,
          "durationTicks": 24,
          "midi": 69,
          "name": "A4",
          "ticks": 42120,
          "time": 82.265625,
          "velocity": 0.3937007874015748
        },
        {
          "duration": 0.046875,
          "durationTicks": 24,
          "midi": 81,
          "name": "A5",
          "ticks": 42120,
          "time": 82.265625,
          "velocity": 0.3937007874015748
        },
        {
          "duration": 0.046875,
          "durationTicks": 24,
          "midi": 54,
          "name": "F#3",
          "ticks": 42120,
          "time": 82.265625,
          "velocity": 0.3937007874015748
        },
        {
          "duration": 0.046875,
          "durationTicks": 24,
          "midi": 54,
          "name": "F#3",
          "ticks": 42144,
          "time": 82.3125,
          "velocity": 0.3937007874015748
        },
        {
          "duration": 0.046875,
          "durationTicks": 24,
          "midi": 54,
          "name": "F#3",
          "ticks": 42144,
          "time": 82.3125,
          "velocity": 0.3937007874015748
        },
        {
          "duration": 0.046875,
          "durationTicks": 24,
          "midi": 69,
          "name": "A4",
          "ticks": 42144,
          "time": 82.3125,
          "velocity": 0.3937007874015748
        },
        {
          "duration": 0.046875,
          "durationTicks": 24,
          "midi": 49,
          "name": "C#3",
          "ticks": 42144,
          "time": 82.3125,
          "velocity": 0.3937007874015748
        },
        {
          "duration": 0.046875,
          "durationTicks": 24,
          "midi": 81,
          "name": "A5",
          "ticks": 42144,
          "time": 82.3125,
          "velocity": 0.3937007874015748
        },
        {
          "duration": 0.046875,
          "durationTicks": 24,
          "midi": 81,
          "name": "A5",
          "ticks": 42144,
          "time": 82.3125,
          "velocity": 0.3937007874015748
        },
        {
          "duration": 0.046875,
          "durationTicks": 24,
          "midi": 81,
          "name": "A5",
          "ticks": 42144,
          "time": 82.3125,
          "velocity": 0.3937007874015748
        },
        {
          "duration": 0.046875,
          "durationTicks": 24,
          "midi": 49,
          "name": "C#3",
          "ticks": 42144,
          "time": 82.3125,
          "velocity": 0.3937007874015748
        },
        {
          "duration": 0.046875,
          "durationTicks": 24,
          "midi": 81,
          "name": "A5",
          "ticks": 42144,
          "time": 82.3125,
          "velocity": 0.3937007874015748
        },
        {
          "duration": 0.046875,
          "durationTicks": 24,
          "midi": 69,
          "name": "A4",
          "ticks": 42144,
          "time": 82.3125,
          "velocity": 0.3937007874015748
        },
        {
          "duration": 0.046875,
          "durationTicks": 24,
          "midi": 69,
          "name": "A4",
          "ticks": 42144,
          "time": 82.3125,
          "velocity": 0.3937007874015748
        },
        {
          "duration": 0.046875,
          "durationTicks": 24,
          "midi": 69,
          "name": "A4",
          "ticks": 42144,
          "time": 82.3125,
          "velocity": 0.3937007874015748
        },
        {
          "duration": 0.046875,
          "durationTicks": 24,
          "midi": 54,
          "name": "F#3",
          "ticks": 42168,
          "time": 82.359375,
          "velocity": 0.3937007874015748
        },
        {
          "duration": 0.046875,
          "durationTicks": 24,
          "midi": 49,
          "name": "C#3",
          "ticks": 42168,
          "time": 82.359375,
          "velocity": 0.3937007874015748
        },
        {
          "duration": 0.046875,
          "durationTicks": 24,
          "midi": 54,
          "name": "F#3",
          "ticks": 42168,
          "time": 82.359375,
          "velocity": 0.3937007874015748
        },
        {
          "duration": 0.046875,
          "durationTicks": 24,
          "midi": 49,
          "name": "C#3",
          "ticks": 42168,
          "time": 82.359375,
          "velocity": 0.3937007874015748
        },
        {
          "duration": 0.046875,
          "durationTicks": 24,
          "midi": 49,
          "name": "C#3",
          "ticks": 42192,
          "time": 82.40625,
          "velocity": 0.3937007874015748
        },
        {
          "duration": 0.046875,
          "durationTicks": 24,
          "midi": 54,
          "name": "F#3",
          "ticks": 42192,
          "time": 82.40625,
          "velocity": 0.3937007874015748
        },
        {
          "duration": 0.046875,
          "durationTicks": 24,
          "midi": 54,
          "name": "F#3",
          "ticks": 42192,
          "time": 82.40625,
          "velocity": 0.3937007874015748
        },
        {
          "duration": 0.046875,
          "durationTicks": 24,
          "midi": 49,
          "name": "C#3",
          "ticks": 42192,
          "time": 82.40625,
          "velocity": 0.3937007874015748
        },
        {
          "duration": 0.046875,
          "durationTicks": 24,
          "midi": 54,
          "name": "F#3",
          "ticks": 42216,
          "time": 82.453125,
          "velocity": 0.3937007874015748
        },
        {
          "duration": 0.046875,
          "durationTicks": 24,
          "midi": 54,
          "name": "F#3",
          "ticks": 42216,
          "time": 82.453125,
          "velocity": 0.3937007874015748
        },
        {
          "duration": 0.046875,
          "durationTicks": 24,
          "midi": 49,
          "name": "C#3",
          "ticks": 42216,
          "time": 82.453125,
          "velocity": 0.3937007874015748
        },
        {
          "duration": 0.046875,
          "durationTicks": 24,
          "midi": 49,
          "name": "C#3",
          "ticks": 42216,
          "time": 82.453125,
          "velocity": 0.3937007874015748
        },
        {
          "duration": 0.046875,
          "durationTicks": 24,
          "midi": 37,
          "name": "C#2",
          "ticks": 42240,
          "time": 82.5,
          "velocity": 0.3937007874015748
        },
        {
          "duration": 0.046875,
          "durationTicks": 24,
          "midi": 69,
          "name": "A4",
          "ticks": 42240,
          "time": 82.5,
          "velocity": 0.3937007874015748
        },
        {
          "duration": 0.046875,
          "durationTicks": 24,
          "midi": 81,
          "name": "A5",
          "ticks": 42240,
          "time": 82.5,
          "velocity": 0.3937007874015748
        },
        {
          "duration": 0.046875,
          "durationTicks": 24,
          "midi": 25,
          "name": "C#1",
          "ticks": 42240,
          "time": 82.5,
          "velocity": 0.3937007874015748
        },
        {
          "duration": 0.046875,
          "durationTicks": 24,
          "midi": 37,
          "name": "C#2",
          "ticks": 42240,
          "time": 82.5,
          "velocity": 0.3937007874015748
        },
        {
          "duration": 0.046875,
          "durationTicks": 24,
          "midi": 69,
          "name": "A4",
          "ticks": 42240,
          "time": 82.5,
          "velocity": 0.3937007874015748
        },
        {
          "duration": 0.046875,
          "durationTicks": 24,
          "midi": 81,
          "name": "A5",
          "ticks": 42240,
          "time": 82.5,
          "velocity": 0.3937007874015748
        },
        {
          "duration": 0.046875,
          "durationTicks": 24,
          "midi": 37,
          "name": "C#2",
          "ticks": 42240,
          "time": 82.5,
          "velocity": 0.3937007874015748
        },
        {
          "duration": 0.046875,
          "durationTicks": 24,
          "midi": 37,
          "name": "C#2",
          "ticks": 42240,
          "time": 82.5,
          "velocity": 0.3937007874015748
        },
        {
          "duration": 0.046875,
          "durationTicks": 24,
          "midi": 81,
          "name": "A5",
          "ticks": 42240,
          "time": 82.5,
          "velocity": 0.3937007874015748
        },
        {
          "duration": 0.046875,
          "durationTicks": 24,
          "midi": 37,
          "name": "C#2",
          "ticks": 42240,
          "time": 82.5,
          "velocity": 0.3937007874015748
        },
        {
          "duration": 0.046875,
          "durationTicks": 24,
          "midi": 69,
          "name": "A4",
          "ticks": 42240,
          "time": 82.5,
          "velocity": 0.3937007874015748
        },
        {
          "duration": 0.046875,
          "durationTicks": 24,
          "midi": 25,
          "name": "C#1",
          "ticks": 42240,
          "time": 82.5,
          "velocity": 0.3937007874015748
        },
        {
          "duration": 0.046875,
          "durationTicks": 24,
          "midi": 81,
          "name": "A5",
          "ticks": 42240,
          "time": 82.5,
          "velocity": 0.3937007874015748
        },
        {
          "duration": 0.046875,
          "durationTicks": 24,
          "midi": 69,
          "name": "A4",
          "ticks": 42240,
          "time": 82.5,
          "velocity": 0.3937007874015748
        },
        {
          "duration": 0.046875,
          "durationTicks": 24,
          "midi": 69,
          "name": "A4",
          "ticks": 42240,
          "time": 82.5,
          "velocity": 0.3937007874015748
        },
        {
          "duration": 0.046875,
          "durationTicks": 24,
          "midi": 81,
          "name": "A5",
          "ticks": 42240,
          "time": 82.5,
          "velocity": 0.3937007874015748
        },
        {
          "duration": 0.046875,
          "durationTicks": 24,
          "midi": 25,
          "name": "C#1",
          "ticks": 42240,
          "time": 82.5,
          "velocity": 0.3937007874015748
        },
        {
          "duration": 0.046875,
          "durationTicks": 24,
          "midi": 25,
          "name": "C#1",
          "ticks": 42240,
          "time": 82.5,
          "velocity": 0.3937007874015748
        },
        {
          "duration": 0.046875,
          "durationTicks": 24,
          "midi": 69,
          "name": "A4",
          "ticks": 42240,
          "time": 82.5,
          "velocity": 0.3937007874015748
        },
        {
          "duration": 0.046875,
          "durationTicks": 24,
          "midi": 37,
          "name": "C#2",
          "ticks": 42240,
          "time": 82.5,
          "velocity": 0.3937007874015748
        },
        {
          "duration": 0.046875,
          "durationTicks": 24,
          "midi": 25,
          "name": "C#1",
          "ticks": 42240,
          "time": 82.5,
          "velocity": 0.3937007874015748
        },
        {
          "duration": 0.046875,
          "durationTicks": 24,
          "midi": 81,
          "name": "A5",
          "ticks": 42240,
          "time": 82.5,
          "velocity": 0.3937007874015748
        },
        {
          "duration": 0.046875,
          "durationTicks": 24,
          "midi": 25,
          "name": "C#1",
          "ticks": 42240,
          "time": 82.5,
          "velocity": 0.3937007874015748
        },
        {
          "duration": 0.046875,
          "durationTicks": 24,
          "midi": 37,
          "name": "C#2",
          "ticks": 42264,
          "time": 82.546875,
          "velocity": 0.3937007874015748
        },
        {
          "duration": 0.046875,
          "durationTicks": 24,
          "midi": 69,
          "name": "A4",
          "ticks": 42264,
          "time": 82.546875,
          "velocity": 0.3937007874015748
        },
        {
          "duration": 0.046875,
          "durationTicks": 24,
          "midi": 69,
          "name": "A4",
          "ticks": 42264,
          "time": 82.546875,
          "velocity": 0.3937007874015748
        },
        {
          "duration": 0.046875,
          "durationTicks": 24,
          "midi": 81,
          "name": "A5",
          "ticks": 42264,
          "time": 82.546875,
          "velocity": 0.3937007874015748
        },
        {
          "duration": 0.046875,
          "durationTicks": 24,
          "midi": 81,
          "name": "A5",
          "ticks": 42264,
          "time": 82.546875,
          "velocity": 0.3937007874015748
        },
        {
          "duration": 0.046875,
          "durationTicks": 24,
          "midi": 81,
          "name": "A5",
          "ticks": 42264,
          "time": 82.546875,
          "velocity": 0.3937007874015748
        },
        {
          "duration": 0.046875,
          "durationTicks": 24,
          "midi": 25,
          "name": "C#1",
          "ticks": 42264,
          "time": 82.546875,
          "velocity": 0.3937007874015748
        },
        {
          "duration": 0.046875,
          "durationTicks": 24,
          "midi": 69,
          "name": "A4",
          "ticks": 42264,
          "time": 82.546875,
          "velocity": 0.3937007874015748
        },
        {
          "duration": 0.046875,
          "durationTicks": 24,
          "midi": 81,
          "name": "A5",
          "ticks": 42264,
          "time": 82.546875,
          "velocity": 0.3937007874015748
        },
        {
          "duration": 0.046875,
          "durationTicks": 24,
          "midi": 81,
          "name": "A5",
          "ticks": 42264,
          "time": 82.546875,
          "velocity": 0.3937007874015748
        },
        {
          "duration": 0.046875,
          "durationTicks": 24,
          "midi": 37,
          "name": "C#2",
          "ticks": 42264,
          "time": 82.546875,
          "velocity": 0.3937007874015748
        },
        {
          "duration": 0.046875,
          "durationTicks": 24,
          "midi": 37,
          "name": "C#2",
          "ticks": 42264,
          "time": 82.546875,
          "velocity": 0.3937007874015748
        },
        {
          "duration": 0.046875,
          "durationTicks": 24,
          "midi": 69,
          "name": "A4",
          "ticks": 42264,
          "time": 82.546875,
          "velocity": 0.3937007874015748
        },
        {
          "duration": 0.046875,
          "durationTicks": 24,
          "midi": 81,
          "name": "A5",
          "ticks": 42264,
          "time": 82.546875,
          "velocity": 0.3937007874015748
        },
        {
          "duration": 0.046875,
          "durationTicks": 24,
          "midi": 25,
          "name": "C#1",
          "ticks": 42264,
          "time": 82.546875,
          "velocity": 0.3937007874015748
        },
        {
          "duration": 0.046875,
          "durationTicks": 24,
          "midi": 25,
          "name": "C#1",
          "ticks": 42264,
          "time": 82.546875,
          "velocity": 0.3937007874015748
        },
        {
          "duration": 0.046875,
          "durationTicks": 24,
          "midi": 37,
          "name": "C#2",
          "ticks": 42264,
          "time": 82.546875,
          "velocity": 0.3937007874015748
        },
        {
          "duration": 0.046875,
          "durationTicks": 24,
          "midi": 69,
          "name": "A4",
          "ticks": 42264,
          "time": 82.546875,
          "velocity": 0.3937007874015748
        },
        {
          "duration": 0.046875,
          "durationTicks": 24,
          "midi": 37,
          "name": "C#2",
          "ticks": 42264,
          "time": 82.546875,
          "velocity": 0.3937007874015748
        },
        {
          "duration": 0.046875,
          "durationTicks": 24,
          "midi": 25,
          "name": "C#1",
          "ticks": 42264,
          "time": 82.546875,
          "velocity": 0.3937007874015748
        },
        {
          "duration": 0.046875,
          "durationTicks": 24,
          "midi": 25,
          "name": "C#1",
          "ticks": 42264,
          "time": 82.546875,
          "velocity": 0.3937007874015748
        },
        {
          "duration": 0.046875,
          "durationTicks": 24,
          "midi": 37,
          "name": "C#2",
          "ticks": 42264,
          "time": 82.546875,
          "velocity": 0.3937007874015748
        },
        {
          "duration": 0.046875,
          "durationTicks": 24,
          "midi": 69,
          "name": "A4",
          "ticks": 42264,
          "time": 82.546875,
          "velocity": 0.3937007874015748
        },
        {
          "duration": 0.046875,
          "durationTicks": 24,
          "midi": 25,
          "name": "C#1",
          "ticks": 42264,
          "time": 82.546875,
          "velocity": 0.3937007874015748
        },
        {
          "duration": 0.046875,
          "durationTicks": 24,
          "midi": 69,
          "name": "A4",
          "ticks": 42288,
          "time": 82.59375,
          "velocity": 0.3937007874015748
        },
        {
          "duration": 0.046875,
          "durationTicks": 24,
          "midi": 81,
          "name": "A5",
          "ticks": 42288,
          "time": 82.59375,
          "velocity": 0.3937007874015748
        },
        {
          "duration": 0.046875,
          "durationTicks": 24,
          "midi": 69,
          "name": "A4",
          "ticks": 42288,
          "time": 82.59375,
          "velocity": 0.3937007874015748
        },
        {
          "duration": 0.046875,
          "durationTicks": 24,
          "midi": 69,
          "name": "A4",
          "ticks": 42288,
          "time": 82.59375,
          "velocity": 0.3937007874015748
        },
        {
          "duration": 0.046875,
          "durationTicks": 24,
          "midi": 81,
          "name": "A5",
          "ticks": 42288,
          "time": 82.59375,
          "velocity": 0.3937007874015748
        },
        {
          "duration": 0.046875,
          "durationTicks": 24,
          "midi": 37,
          "name": "C#2",
          "ticks": 42288,
          "time": 82.59375,
          "velocity": 0.3937007874015748
        },
        {
          "duration": 0.046875,
          "durationTicks": 24,
          "midi": 81,
          "name": "A5",
          "ticks": 42288,
          "time": 82.59375,
          "velocity": 0.3937007874015748
        },
        {
          "duration": 0.046875,
          "durationTicks": 24,
          "midi": 81,
          "name": "A5",
          "ticks": 42288,
          "time": 82.59375,
          "velocity": 0.3937007874015748
        },
        {
          "duration": 0.046875,
          "durationTicks": 24,
          "midi": 25,
          "name": "C#1",
          "ticks": 42288,
          "time": 82.59375,
          "velocity": 0.3937007874015748
        },
        {
          "duration": 0.046875,
          "durationTicks": 24,
          "midi": 25,
          "name": "C#1",
          "ticks": 42288,
          "time": 82.59375,
          "velocity": 0.3937007874015748
        },
        {
          "duration": 0.046875,
          "durationTicks": 24,
          "midi": 81,
          "name": "A5",
          "ticks": 42288,
          "time": 82.59375,
          "velocity": 0.3937007874015748
        },
        {
          "duration": 0.046875,
          "durationTicks": 24,
          "midi": 81,
          "name": "A5",
          "ticks": 42288,
          "time": 82.59375,
          "velocity": 0.3937007874015748
        },
        {
          "duration": 0.046875,
          "durationTicks": 24,
          "midi": 37,
          "name": "C#2",
          "ticks": 42288,
          "time": 82.59375,
          "velocity": 0.3937007874015748
        },
        {
          "duration": 0.046875,
          "durationTicks": 24,
          "midi": 25,
          "name": "C#1",
          "ticks": 42288,
          "time": 82.59375,
          "velocity": 0.3937007874015748
        },
        {
          "duration": 0.046875,
          "durationTicks": 24,
          "midi": 69,
          "name": "A4",
          "ticks": 42288,
          "time": 82.59375,
          "velocity": 0.3937007874015748
        },
        {
          "duration": 0.046875,
          "durationTicks": 24,
          "midi": 37,
          "name": "C#2",
          "ticks": 42288,
          "time": 82.59375,
          "velocity": 0.3937007874015748
        },
        {
          "duration": 0.046875,
          "durationTicks": 24,
          "midi": 69,
          "name": "A4",
          "ticks": 42288,
          "time": 82.59375,
          "velocity": 0.3937007874015748
        },
        {
          "duration": 0.046875,
          "durationTicks": 24,
          "midi": 25,
          "name": "C#1",
          "ticks": 42288,
          "time": 82.59375,
          "velocity": 0.3937007874015748
        },
        {
          "duration": 0.046875,
          "durationTicks": 24,
          "midi": 37,
          "name": "C#2",
          "ticks": 42288,
          "time": 82.59375,
          "velocity": 0.3937007874015748
        },
        {
          "duration": 0.046875,
          "durationTicks": 24,
          "midi": 69,
          "name": "A4",
          "ticks": 42288,
          "time": 82.59375,
          "velocity": 0.3937007874015748
        },
        {
          "duration": 0.046875,
          "durationTicks": 24,
          "midi": 37,
          "name": "C#2",
          "ticks": 42288,
          "time": 82.59375,
          "velocity": 0.3937007874015748
        },
        {
          "duration": 0.046875,
          "durationTicks": 24,
          "midi": 25,
          "name": "C#1",
          "ticks": 42288,
          "time": 82.59375,
          "velocity": 0.3937007874015748
        },
        {
          "duration": 0.046875,
          "durationTicks": 24,
          "midi": 25,
          "name": "C#1",
          "ticks": 42288,
          "time": 82.59375,
          "velocity": 0.3937007874015748
        },
        {
          "duration": 0.046875,
          "durationTicks": 24,
          "midi": 37,
          "name": "C#2",
          "ticks": 42288,
          "time": 82.59375,
          "velocity": 0.3937007874015748
        },
        {
          "duration": 0.046875,
          "durationTicks": 24,
          "midi": 69,
          "name": "A4",
          "ticks": 42312,
          "time": 82.640625,
          "velocity": 0.3937007874015748
        },
        {
          "duration": 0.046875,
          "durationTicks": 24,
          "midi": 69,
          "name": "A4",
          "ticks": 42312,
          "time": 82.640625,
          "velocity": 0.3937007874015748
        },
        {
          "duration": 0.046875,
          "durationTicks": 24,
          "midi": 81,
          "name": "A5",
          "ticks": 42312,
          "time": 82.640625,
          "velocity": 0.3937007874015748
        },
        {
          "duration": 0.046875,
          "durationTicks": 24,
          "midi": 25,
          "name": "C#1",
          "ticks": 42312,
          "time": 82.640625,
          "velocity": 0.3937007874015748
        },
        {
          "duration": 0.046875,
          "durationTicks": 24,
          "midi": 25,
          "name": "C#1",
          "ticks": 42312,
          "time": 82.640625,
          "velocity": 0.3937007874015748
        },
        {
          "duration": 0.046875,
          "durationTicks": 24,
          "midi": 69,
          "name": "A4",
          "ticks": 42312,
          "time": 82.640625,
          "velocity": 0.3937007874015748
        },
        {
          "duration": 0.046875,
          "durationTicks": 24,
          "midi": 25,
          "name": "C#1",
          "ticks": 42312,
          "time": 82.640625,
          "velocity": 0.3937007874015748
        },
        {
          "duration": 0.046875,
          "durationTicks": 24,
          "midi": 69,
          "name": "A4",
          "ticks": 42312,
          "time": 82.640625,
          "velocity": 0.3937007874015748
        },
        {
          "duration": 0.046875,
          "durationTicks": 24,
          "midi": 37,
          "name": "C#2",
          "ticks": 42312,
          "time": 82.640625,
          "velocity": 0.3937007874015748
        },
        {
          "duration": 0.046875,
          "durationTicks": 24,
          "midi": 37,
          "name": "C#2",
          "ticks": 42312,
          "time": 82.640625,
          "velocity": 0.3937007874015748
        },
        {
          "duration": 0.046875,
          "durationTicks": 24,
          "midi": 81,
          "name": "A5",
          "ticks": 42312,
          "time": 82.640625,
          "velocity": 0.3937007874015748
        },
        {
          "duration": 0.046875,
          "durationTicks": 24,
          "midi": 69,
          "name": "A4",
          "ticks": 42312,
          "time": 82.640625,
          "velocity": 0.3937007874015748
        },
        {
          "duration": 0.046875,
          "durationTicks": 24,
          "midi": 81,
          "name": "A5",
          "ticks": 42312,
          "time": 82.640625,
          "velocity": 0.3937007874015748
        },
        {
          "duration": 0.046875,
          "durationTicks": 24,
          "midi": 69,
          "name": "A4",
          "ticks": 42312,
          "time": 82.640625,
          "velocity": 0.3937007874015748
        },
        {
          "duration": 0.046875,
          "durationTicks": 24,
          "midi": 37,
          "name": "C#2",
          "ticks": 42312,
          "time": 82.640625,
          "velocity": 0.3937007874015748
        },
        {
          "duration": 0.046875,
          "durationTicks": 24,
          "midi": 81,
          "name": "A5",
          "ticks": 42312,
          "time": 82.640625,
          "velocity": 0.3937007874015748
        },
        {
          "duration": 0.046875,
          "durationTicks": 24,
          "midi": 81,
          "name": "A5",
          "ticks": 42312,
          "time": 82.640625,
          "velocity": 0.3937007874015748
        },
        {
          "duration": 0.046875,
          "durationTicks": 24,
          "midi": 37,
          "name": "C#2",
          "ticks": 42312,
          "time": 82.640625,
          "velocity": 0.3937007874015748
        },
        {
          "duration": 0.046875,
          "durationTicks": 24,
          "midi": 25,
          "name": "C#1",
          "ticks": 42312,
          "time": 82.640625,
          "velocity": 0.3937007874015748
        },
        {
          "duration": 0.046875,
          "durationTicks": 24,
          "midi": 25,
          "name": "C#1",
          "ticks": 42312,
          "time": 82.640625,
          "velocity": 0.3937007874015748
        },
        {
          "duration": 0.046875,
          "durationTicks": 24,
          "midi": 37,
          "name": "C#2",
          "ticks": 42312,
          "time": 82.640625,
          "velocity": 0.3937007874015748
        },
        {
          "duration": 0.046875,
          "durationTicks": 24,
          "midi": 81,
          "name": "A5",
          "ticks": 42312,
          "time": 82.640625,
          "velocity": 0.3937007874015748
        },
        {
          "duration": 0.046875,
          "durationTicks": 24,
          "midi": 37,
          "name": "C#2",
          "ticks": 42312,
          "time": 82.640625,
          "velocity": 0.3937007874015748
        },
        {
          "duration": 0.046875,
          "durationTicks": 24,
          "midi": 25,
          "name": "C#1",
          "ticks": 42312,
          "time": 82.640625,
          "velocity": 0.3937007874015748
        },
        {
          "duration": 0.046875,
          "durationTicks": 24,
          "midi": 37,
          "name": "C#2",
          "ticks": 42336,
          "time": 82.6875,
          "velocity": 0.3937007874015748
        },
        {
          "duration": 0.046875,
          "durationTicks": 24,
          "midi": 37,
          "name": "C#2",
          "ticks": 42336,
          "time": 82.6875,
          "velocity": 0.3937007874015748
        },
        {
          "duration": 0.046875,
          "durationTicks": 24,
          "midi": 25,
          "name": "C#1",
          "ticks": 42336,
          "time": 82.6875,
          "velocity": 0.3937007874015748
        },
        {
          "duration": 0.046875,
          "durationTicks": 24,
          "midi": 37,
          "name": "C#2",
          "ticks": 42336,
          "time": 82.6875,
          "velocity": 0.3937007874015748
        },
        {
          "duration": 0.046875,
          "durationTicks": 24,
          "midi": 25,
          "name": "C#1",
          "ticks": 42336,
          "time": 82.6875,
          "velocity": 0.3937007874015748
        },
        {
          "duration": 0.046875,
          "durationTicks": 24,
          "midi": 37,
          "name": "C#2",
          "ticks": 42336,
          "time": 82.6875,
          "velocity": 0.3937007874015748
        },
        {
          "duration": 0.046875,
          "durationTicks": 24,
          "midi": 25,
          "name": "C#1",
          "ticks": 42336,
          "time": 82.6875,
          "velocity": 0.3937007874015748
        },
        {
          "duration": 0.046875,
          "durationTicks": 24,
          "midi": 25,
          "name": "C#1",
          "ticks": 42336,
          "time": 82.6875,
          "velocity": 0.3937007874015748
        },
        {
          "duration": 0.046875,
          "durationTicks": 24,
          "midi": 25,
          "name": "C#1",
          "ticks": 42360,
          "time": 82.734375,
          "velocity": 0.3937007874015748
        },
        {
          "duration": 0.046875,
          "durationTicks": 24,
          "midi": 37,
          "name": "C#2",
          "ticks": 42360,
          "time": 82.734375,
          "velocity": 0.3937007874015748
        },
        {
          "duration": 0.046875,
          "durationTicks": 24,
          "midi": 25,
          "name": "C#1",
          "ticks": 42360,
          "time": 82.734375,
          "velocity": 0.3937007874015748
        },
        {
          "duration": 0.046875,
          "durationTicks": 24,
          "midi": 37,
          "name": "C#2",
          "ticks": 42360,
          "time": 82.734375,
          "velocity": 0.3937007874015748
        },
        {
          "duration": 0.046875,
          "durationTicks": 24,
          "midi": 37,
          "name": "C#2",
          "ticks": 42360,
          "time": 82.734375,
          "velocity": 0.3937007874015748
        },
        {
          "duration": 0.046875,
          "durationTicks": 24,
          "midi": 25,
          "name": "C#1",
          "ticks": 42360,
          "time": 82.734375,
          "velocity": 0.3937007874015748
        },
        {
          "duration": 0.046875,
          "durationTicks": 24,
          "midi": 25,
          "name": "C#1",
          "ticks": 42360,
          "time": 82.734375,
          "velocity": 0.3937007874015748
        },
        {
          "duration": 0.046875,
          "durationTicks": 24,
          "midi": 37,
          "name": "C#2",
          "ticks": 42360,
          "time": 82.734375,
          "velocity": 0.3937007874015748
        },
        {
          "duration": 0.046875,
          "durationTicks": 24,
          "midi": 37,
          "name": "C#2",
          "ticks": 42384,
          "time": 82.78125,
          "velocity": 0.3937007874015748
        },
        {
          "duration": 0.046875,
          "durationTicks": 24,
          "midi": 25,
          "name": "C#1",
          "ticks": 42384,
          "time": 82.78125,
          "velocity": 0.3937007874015748
        },
        {
          "duration": 0.046875,
          "durationTicks": 24,
          "midi": 67,
          "name": "G4",
          "ticks": 42384,
          "time": 82.78125,
          "velocity": 0.3937007874015748
        },
        {
          "duration": 0.046875,
          "durationTicks": 24,
          "midi": 67,
          "name": "G4",
          "ticks": 42384,
          "time": 82.78125,
          "velocity": 0.3937007874015748
        },
        {
          "duration": 0.046875,
          "durationTicks": 24,
          "midi": 79,
          "name": "G5",
          "ticks": 42384,
          "time": 82.78125,
          "velocity": 0.3937007874015748
        },
        {
          "duration": 0.046875,
          "durationTicks": 24,
          "midi": 79,
          "name": "G5",
          "ticks": 42384,
          "time": 82.78125,
          "velocity": 0.3937007874015748
        },
        {
          "duration": 0.046875,
          "durationTicks": 24,
          "midi": 67,
          "name": "G4",
          "ticks": 42384,
          "time": 82.78125,
          "velocity": 0.3937007874015748
        },
        {
          "duration": 0.046875,
          "durationTicks": 24,
          "midi": 25,
          "name": "C#1",
          "ticks": 42384,
          "time": 82.78125,
          "velocity": 0.3937007874015748
        },
        {
          "duration": 0.046875,
          "durationTicks": 24,
          "midi": 79,
          "name": "G5",
          "ticks": 42384,
          "time": 82.78125,
          "velocity": 0.3937007874015748
        },
        {
          "duration": 0.046875,
          "durationTicks": 24,
          "midi": 79,
          "name": "G5",
          "ticks": 42384,
          "time": 82.78125,
          "velocity": 0.3937007874015748
        },
        {
          "duration": 0.046875,
          "durationTicks": 24,
          "midi": 25,
          "name": "C#1",
          "ticks": 42384,
          "time": 82.78125,
          "velocity": 0.3937007874015748
        },
        {
          "duration": 0.046875,
          "durationTicks": 24,
          "midi": 79,
          "name": "G5",
          "ticks": 42384,
          "time": 82.78125,
          "velocity": 0.3937007874015748
        },
        {
          "duration": 0.046875,
          "durationTicks": 24,
          "midi": 25,
          "name": "C#1",
          "ticks": 42384,
          "time": 82.78125,
          "velocity": 0.3937007874015748
        },
        {
          "duration": 0.046875,
          "durationTicks": 24,
          "midi": 37,
          "name": "C#2",
          "ticks": 42384,
          "time": 82.78125,
          "velocity": 0.3937007874015748
        },
        {
          "duration": 0.046875,
          "durationTicks": 24,
          "midi": 67,
          "name": "G4",
          "ticks": 42384,
          "time": 82.78125,
          "velocity": 0.3937007874015748
        },
        {
          "duration": 0.046875,
          "durationTicks": 24,
          "midi": 67,
          "name": "G4",
          "ticks": 42384,
          "time": 82.78125,
          "velocity": 0.3937007874015748
        },
        {
          "duration": 0.046875,
          "durationTicks": 24,
          "midi": 79,
          "name": "G5",
          "ticks": 42384,
          "time": 82.78125,
          "velocity": 0.3937007874015748
        },
        {
          "duration": 0.046875,
          "durationTicks": 24,
          "midi": 37,
          "name": "C#2",
          "ticks": 42384,
          "time": 82.78125,
          "velocity": 0.3937007874015748
        },
        {
          "duration": 0.046875,
          "durationTicks": 24,
          "midi": 37,
          "name": "C#2",
          "ticks": 42384,
          "time": 82.78125,
          "velocity": 0.3937007874015748
        },
        {
          "duration": 0.046875,
          "durationTicks": 24,
          "midi": 67,
          "name": "G4",
          "ticks": 42384,
          "time": 82.78125,
          "velocity": 0.3937007874015748
        },
        {
          "duration": 0.046875,
          "durationTicks": 24,
          "midi": 79,
          "name": "G5",
          "ticks": 42408,
          "time": 82.828125,
          "velocity": 0.3937007874015748
        },
        {
          "duration": 0.046875,
          "durationTicks": 24,
          "midi": 67,
          "name": "G4",
          "ticks": 42408,
          "time": 82.828125,
          "velocity": 0.3937007874015748
        },
        {
          "duration": 0.046875,
          "durationTicks": 24,
          "midi": 37,
          "name": "C#2",
          "ticks": 42408,
          "time": 82.828125,
          "velocity": 0.3937007874015748
        },
        {
          "duration": 0.046875,
          "durationTicks": 24,
          "midi": 79,
          "name": "G5",
          "ticks": 42408,
          "time": 82.828125,
          "velocity": 0.3937007874015748
        },
        {
          "duration": 0.046875,
          "durationTicks": 24,
          "midi": 25,
          "name": "C#1",
          "ticks": 42408,
          "time": 82.828125,
          "velocity": 0.3937007874015748
        },
        {
          "duration": 0.046875,
          "durationTicks": 24,
          "midi": 79,
          "name": "G5",
          "ticks": 42408,
          "time": 82.828125,
          "velocity": 0.3937007874015748
        },
        {
          "duration": 0.046875,
          "durationTicks": 24,
          "midi": 25,
          "name": "C#1",
          "ticks": 42408,
          "time": 82.828125,
          "velocity": 0.3937007874015748
        },
        {
          "duration": 0.046875,
          "durationTicks": 24,
          "midi": 67,
          "name": "G4",
          "ticks": 42408,
          "time": 82.828125,
          "velocity": 0.3937007874015748
        },
        {
          "duration": 0.046875,
          "durationTicks": 24,
          "midi": 79,
          "name": "G5",
          "ticks": 42408,
          "time": 82.828125,
          "velocity": 0.3937007874015748
        },
        {
          "duration": 0.046875,
          "durationTicks": 24,
          "midi": 79,
          "name": "G5",
          "ticks": 42408,
          "time": 82.828125,
          "velocity": 0.3937007874015748
        },
        {
          "duration": 0.046875,
          "durationTicks": 24,
          "midi": 67,
          "name": "G4",
          "ticks": 42408,
          "time": 82.828125,
          "velocity": 0.3937007874015748
        },
        {
          "duration": 0.046875,
          "durationTicks": 24,
          "midi": 79,
          "name": "G5",
          "ticks": 42408,
          "time": 82.828125,
          "velocity": 0.3937007874015748
        },
        {
          "duration": 0.046875,
          "durationTicks": 24,
          "midi": 25,
          "name": "C#1",
          "ticks": 42408,
          "time": 82.828125,
          "velocity": 0.3937007874015748
        },
        {
          "duration": 0.046875,
          "durationTicks": 24,
          "midi": 37,
          "name": "C#2",
          "ticks": 42408,
          "time": 82.828125,
          "velocity": 0.3937007874015748
        },
        {
          "duration": 0.046875,
          "durationTicks": 24,
          "midi": 67,
          "name": "G4",
          "ticks": 42408,
          "time": 82.828125,
          "velocity": 0.3937007874015748
        },
        {
          "duration": 0.046875,
          "durationTicks": 24,
          "midi": 37,
          "name": "C#2",
          "ticks": 42408,
          "time": 82.828125,
          "velocity": 0.3937007874015748
        },
        {
          "duration": 0.046875,
          "durationTicks": 24,
          "midi": 67,
          "name": "G4",
          "ticks": 42408,
          "time": 82.828125,
          "velocity": 0.3937007874015748
        },
        {
          "duration": 0.046875,
          "durationTicks": 24,
          "midi": 37,
          "name": "C#2",
          "ticks": 42408,
          "time": 82.828125,
          "velocity": 0.3937007874015748
        },
        {
          "duration": 0.046875,
          "durationTicks": 24,
          "midi": 25,
          "name": "C#1",
          "ticks": 42408,
          "time": 82.828125,
          "velocity": 0.3937007874015748
        },
        {
          "duration": 0.046875,
          "durationTicks": 24,
          "midi": 67,
          "name": "G4",
          "ticks": 42408,
          "time": 82.828125,
          "velocity": 0.3937007874015748
        },
        {
          "duration": 0.046875,
          "durationTicks": 24,
          "midi": 79,
          "name": "G5",
          "ticks": 42432,
          "time": 82.875,
          "velocity": 0.3937007874015748
        },
        {
          "duration": 0.046875,
          "durationTicks": 24,
          "midi": 79,
          "name": "G5",
          "ticks": 42432,
          "time": 82.875,
          "velocity": 0.3937007874015748
        },
        {
          "duration": 0.046875,
          "durationTicks": 24,
          "midi": 67,
          "name": "G4",
          "ticks": 42432,
          "time": 82.875,
          "velocity": 0.3937007874015748
        },
        {
          "duration": 0.046875,
          "durationTicks": 24,
          "midi": 37,
          "name": "C#2",
          "ticks": 42432,
          "time": 82.875,
          "velocity": 0.3937007874015748
        },
        {
          "duration": 0.046875,
          "durationTicks": 24,
          "midi": 67,
          "name": "G4",
          "ticks": 42432,
          "time": 82.875,
          "velocity": 0.3937007874015748
        },
        {
          "duration": 0.046875,
          "durationTicks": 24,
          "midi": 25,
          "name": "C#1",
          "ticks": 42432,
          "time": 82.875,
          "velocity": 0.3937007874015748
        },
        {
          "duration": 0.046875,
          "durationTicks": 24,
          "midi": 67,
          "name": "G4",
          "ticks": 42432,
          "time": 82.875,
          "velocity": 0.3937007874015748
        },
        {
          "duration": 0.046875,
          "durationTicks": 24,
          "midi": 67,
          "name": "G4",
          "ticks": 42432,
          "time": 82.875,
          "velocity": 0.3937007874015748
        },
        {
          "duration": 0.046875,
          "durationTicks": 24,
          "midi": 79,
          "name": "G5",
          "ticks": 42432,
          "time": 82.875,
          "velocity": 0.3937007874015748
        },
        {
          "duration": 0.046875,
          "durationTicks": 24,
          "midi": 37,
          "name": "C#2",
          "ticks": 42432,
          "time": 82.875,
          "velocity": 0.3937007874015748
        },
        {
          "duration": 0.046875,
          "durationTicks": 24,
          "midi": 79,
          "name": "G5",
          "ticks": 42432,
          "time": 82.875,
          "velocity": 0.3937007874015748
        },
        {
          "duration": 0.046875,
          "durationTicks": 24,
          "midi": 67,
          "name": "G4",
          "ticks": 42432,
          "time": 82.875,
          "velocity": 0.3937007874015748
        },
        {
          "duration": 0.046875,
          "durationTicks": 24,
          "midi": 67,
          "name": "G4",
          "ticks": 42432,
          "time": 82.875,
          "velocity": 0.3937007874015748
        },
        {
          "duration": 0.046875,
          "durationTicks": 24,
          "midi": 25,
          "name": "C#1",
          "ticks": 42432,
          "time": 82.875,
          "velocity": 0.3937007874015748
        },
        {
          "duration": 0.046875,
          "durationTicks": 24,
          "midi": 37,
          "name": "C#2",
          "ticks": 42432,
          "time": 82.875,
          "velocity": 0.3937007874015748
        },
        {
          "duration": 0.046875,
          "durationTicks": 24,
          "midi": 25,
          "name": "C#1",
          "ticks": 42432,
          "time": 82.875,
          "velocity": 0.3937007874015748
        },
        {
          "duration": 0.046875,
          "durationTicks": 24,
          "midi": 25,
          "name": "C#1",
          "ticks": 42432,
          "time": 82.875,
          "velocity": 0.3937007874015748
        },
        {
          "duration": 0.046875,
          "durationTicks": 24,
          "midi": 79,
          "name": "G5",
          "ticks": 42432,
          "time": 82.875,
          "velocity": 0.3937007874015748
        },
        {
          "duration": 0.046875,
          "durationTicks": 24,
          "midi": 79,
          "name": "G5",
          "ticks": 42432,
          "time": 82.875,
          "velocity": 0.3937007874015748
        },
        {
          "duration": 0.046875,
          "durationTicks": 24,
          "midi": 37,
          "name": "C#2",
          "ticks": 42432,
          "time": 82.875,
          "velocity": 0.3937007874015748
        },
        {
          "duration": 0.046875,
          "durationTicks": 24,
          "midi": 37,
          "name": "C#2",
          "ticks": 42456,
          "time": 82.921875,
          "velocity": 0.3937007874015748
        },
        {
          "duration": 0.046875,
          "durationTicks": 24,
          "midi": 79,
          "name": "G5",
          "ticks": 42456,
          "time": 82.921875,
          "velocity": 0.3937007874015748
        },
        {
          "duration": 0.046875,
          "durationTicks": 24,
          "midi": 67,
          "name": "G4",
          "ticks": 42456,
          "time": 82.921875,
          "velocity": 0.3937007874015748
        },
        {
          "duration": 0.046875,
          "durationTicks": 24,
          "midi": 67,
          "name": "G4",
          "ticks": 42456,
          "time": 82.921875,
          "velocity": 0.3937007874015748
        },
        {
          "duration": 0.046875,
          "durationTicks": 24,
          "midi": 67,
          "name": "G4",
          "ticks": 42456,
          "time": 82.921875,
          "velocity": 0.3937007874015748
        },
        {
          "duration": 0.046875,
          "durationTicks": 24,
          "midi": 79,
          "name": "G5",
          "ticks": 42456,
          "time": 82.921875,
          "velocity": 0.3937007874015748
        },
        {
          "duration": 0.046875,
          "durationTicks": 24,
          "midi": 67,
          "name": "G4",
          "ticks": 42456,
          "time": 82.921875,
          "velocity": 0.3937007874015748
        },
        {
          "duration": 0.046875,
          "durationTicks": 24,
          "midi": 79,
          "name": "G5",
          "ticks": 42456,
          "time": 82.921875,
          "velocity": 0.3937007874015748
        },
        {
          "duration": 0.046875,
          "durationTicks": 24,
          "midi": 25,
          "name": "C#1",
          "ticks": 42456,
          "time": 82.921875,
          "velocity": 0.3937007874015748
        },
        {
          "duration": 0.046875,
          "durationTicks": 24,
          "midi": 79,
          "name": "G5",
          "ticks": 42456,
          "time": 82.921875,
          "velocity": 0.3937007874015748
        },
        {
          "duration": 0.046875,
          "durationTicks": 24,
          "midi": 37,
          "name": "C#2",
          "ticks": 42456,
          "time": 82.921875,
          "velocity": 0.3937007874015748
        },
        {
          "duration": 0.046875,
          "durationTicks": 24,
          "midi": 37,
          "name": "C#2",
          "ticks": 42456,
          "time": 82.921875,
          "velocity": 0.3937007874015748
        },
        {
          "duration": 0.046875,
          "durationTicks": 24,
          "midi": 25,
          "name": "C#1",
          "ticks": 42456,
          "time": 82.921875,
          "velocity": 0.3937007874015748
        },
        {
          "duration": 0.046875,
          "durationTicks": 24,
          "midi": 25,
          "name": "C#1",
          "ticks": 42456,
          "time": 82.921875,
          "velocity": 0.3937007874015748
        },
        {
          "duration": 0.046875,
          "durationTicks": 24,
          "midi": 25,
          "name": "C#1",
          "ticks": 42456,
          "time": 82.921875,
          "velocity": 0.3937007874015748
        },
        {
          "duration": 0.046875,
          "durationTicks": 24,
          "midi": 79,
          "name": "G5",
          "ticks": 42456,
          "time": 82.921875,
          "velocity": 0.3937007874015748
        },
        {
          "duration": 0.046875,
          "durationTicks": 24,
          "midi": 79,
          "name": "G5",
          "ticks": 42456,
          "time": 82.921875,
          "velocity": 0.3937007874015748
        },
        {
          "duration": 0.046875,
          "durationTicks": 24,
          "midi": 67,
          "name": "G4",
          "ticks": 42456,
          "time": 82.921875,
          "velocity": 0.3937007874015748
        },
        {
          "duration": 0.046875,
          "durationTicks": 24,
          "midi": 67,
          "name": "G4",
          "ticks": 42456,
          "time": 82.921875,
          "velocity": 0.3937007874015748
        },
        {
          "duration": 0.046875,
          "durationTicks": 24,
          "midi": 37,
          "name": "C#2",
          "ticks": 42456,
          "time": 82.921875,
          "velocity": 0.3937007874015748
        },
        {
          "duration": 0.046875,
          "durationTicks": 24,
          "midi": 25,
          "name": "C#1",
          "ticks": 42480,
          "time": 82.96875,
          "velocity": 0.3937007874015748
        },
        {
          "duration": 0.046875,
          "durationTicks": 24,
          "midi": 37,
          "name": "C#2",
          "ticks": 42480,
          "time": 82.96875,
          "velocity": 0.3937007874015748
        },
        {
          "duration": 0.046875,
          "durationTicks": 24,
          "midi": 37,
          "name": "C#2",
          "ticks": 42480,
          "time": 82.96875,
          "velocity": 0.3937007874015748
        },
        {
          "duration": 0.046875,
          "durationTicks": 24,
          "midi": 37,
          "name": "C#2",
          "ticks": 42480,
          "time": 82.96875,
          "velocity": 0.3937007874015748
        },
        {
          "duration": 0.046875,
          "durationTicks": 24,
          "midi": 37,
          "name": "C#2",
          "ticks": 42480,
          "time": 82.96875,
          "velocity": 0.3937007874015748
        },
        {
          "duration": 0.046875,
          "durationTicks": 24,
          "midi": 25,
          "name": "C#1",
          "ticks": 42480,
          "time": 82.96875,
          "velocity": 0.3937007874015748
        },
        {
          "duration": 0.046875,
          "durationTicks": 24,
          "midi": 25,
          "name": "C#1",
          "ticks": 42480,
          "time": 82.96875,
          "velocity": 0.3937007874015748
        },
        {
          "duration": 0.046875,
          "durationTicks": 24,
          "midi": 25,
          "name": "C#1",
          "ticks": 42480,
          "time": 82.96875,
          "velocity": 0.3937007874015748
        },
        {
          "duration": 0.046875,
          "durationTicks": 24,
          "midi": 37,
          "name": "C#2",
          "ticks": 42504,
          "time": 83.015625,
          "velocity": 0.3937007874015748
        },
        {
          "duration": 0.046875,
          "durationTicks": 24,
          "midi": 25,
          "name": "C#1",
          "ticks": 42504,
          "time": 83.015625,
          "velocity": 0.3937007874015748
        },
        {
          "duration": 0.046875,
          "durationTicks": 24,
          "midi": 25,
          "name": "C#1",
          "ticks": 42504,
          "time": 83.015625,
          "velocity": 0.3937007874015748
        },
        {
          "duration": 0.046875,
          "durationTicks": 24,
          "midi": 37,
          "name": "C#2",
          "ticks": 42504,
          "time": 83.015625,
          "velocity": 0.3937007874015748
        },
        {
          "duration": 0.046875,
          "durationTicks": 24,
          "midi": 37,
          "name": "C#2",
          "ticks": 42504,
          "time": 83.015625,
          "velocity": 0.3937007874015748
        },
        {
          "duration": 0.046875,
          "durationTicks": 24,
          "midi": 37,
          "name": "C#2",
          "ticks": 42504,
          "time": 83.015625,
          "velocity": 0.3937007874015748
        },
        {
          "duration": 0.046875,
          "durationTicks": 24,
          "midi": 25,
          "name": "C#1",
          "ticks": 42504,
          "time": 83.015625,
          "velocity": 0.3937007874015748
        },
        {
          "duration": 0.046875,
          "durationTicks": 24,
          "midi": 25,
          "name": "C#1",
          "ticks": 42504,
          "time": 83.015625,
          "velocity": 0.3937007874015748
        },
        {
          "duration": 0.046875,
          "durationTicks": 24,
          "midi": 66,
          "name": "F#4",
          "ticks": 42528,
          "time": 83.0625,
          "velocity": 0.3937007874015748
        },
        {
          "duration": 0.046875,
          "durationTicks": 24,
          "midi": 78,
          "name": "F#5",
          "ticks": 42528,
          "time": 83.0625,
          "velocity": 0.3937007874015748
        },
        {
          "duration": 0.046875,
          "durationTicks": 24,
          "midi": 66,
          "name": "F#4",
          "ticks": 42528,
          "time": 83.0625,
          "velocity": 0.3937007874015748
        },
        {
          "duration": 0.046875,
          "durationTicks": 24,
          "midi": 66,
          "name": "F#4",
          "ticks": 42528,
          "time": 83.0625,
          "velocity": 0.3937007874015748
        },
        {
          "duration": 0.046875,
          "durationTicks": 24,
          "midi": 66,
          "name": "F#4",
          "ticks": 42528,
          "time": 83.0625,
          "velocity": 0.3937007874015748
        },
        {
          "duration": 0.046875,
          "durationTicks": 24,
          "midi": 66,
          "name": "F#4",
          "ticks": 42528,
          "time": 83.0625,
          "velocity": 0.3937007874015748
        },
        {
          "duration": 0.046875,
          "durationTicks": 24,
          "midi": 78,
          "name": "F#5",
          "ticks": 42528,
          "time": 83.0625,
          "velocity": 0.3937007874015748
        },
        {
          "duration": 0.046875,
          "durationTicks": 24,
          "midi": 37,
          "name": "C#2",
          "ticks": 42528,
          "time": 83.0625,
          "velocity": 0.3937007874015748
        },
        {
          "duration": 0.046875,
          "durationTicks": 24,
          "midi": 78,
          "name": "F#5",
          "ticks": 42528,
          "time": 83.0625,
          "velocity": 0.3937007874015748
        },
        {
          "duration": 0.046875,
          "durationTicks": 24,
          "midi": 78,
          "name": "F#5",
          "ticks": 42528,
          "time": 83.0625,
          "velocity": 0.3937007874015748
        },
        {
          "duration": 0.046875,
          "durationTicks": 24,
          "midi": 66,
          "name": "F#4",
          "ticks": 42528,
          "time": 83.0625,
          "velocity": 0.3937007874015748
        },
        {
          "duration": 0.046875,
          "durationTicks": 24,
          "midi": 25,
          "name": "C#1",
          "ticks": 42528,
          "time": 83.0625,
          "velocity": 0.3937007874015748
        },
        {
          "duration": 0.046875,
          "durationTicks": 24,
          "midi": 78,
          "name": "F#5",
          "ticks": 42528,
          "time": 83.0625,
          "velocity": 0.3937007874015748
        },
        {
          "duration": 0.046875,
          "durationTicks": 24,
          "midi": 25,
          "name": "C#1",
          "ticks": 42528,
          "time": 83.0625,
          "velocity": 0.3937007874015748
        },
        {
          "duration": 0.046875,
          "durationTicks": 24,
          "midi": 78,
          "name": "F#5",
          "ticks": 42528,
          "time": 83.0625,
          "velocity": 0.3937007874015748
        },
        {
          "duration": 0.046875,
          "durationTicks": 24,
          "midi": 37,
          "name": "C#2",
          "ticks": 42528,
          "time": 83.0625,
          "velocity": 0.3937007874015748
        },
        {
          "duration": 0.046875,
          "durationTicks": 24,
          "midi": 37,
          "name": "C#2",
          "ticks": 42552,
          "time": 83.109375,
          "velocity": 0.3937007874015748
        },
        {
          "duration": 0.046875,
          "durationTicks": 24,
          "midi": 66,
          "name": "F#4",
          "ticks": 42552,
          "time": 83.109375,
          "velocity": 0.3937007874015748
        },
        {
          "duration": 0.046875,
          "durationTicks": 24,
          "midi": 37,
          "name": "C#2",
          "ticks": 42552,
          "time": 83.109375,
          "velocity": 0.3937007874015748
        },
        {
          "duration": 0.046875,
          "durationTicks": 24,
          "midi": 78,
          "name": "F#5",
          "ticks": 42552,
          "time": 83.109375,
          "velocity": 0.3937007874015748
        },
        {
          "duration": 0.046875,
          "durationTicks": 24,
          "midi": 25,
          "name": "C#1",
          "ticks": 42552,
          "time": 83.109375,
          "velocity": 0.3937007874015748
        },
        {
          "duration": 0.046875,
          "durationTicks": 24,
          "midi": 25,
          "name": "C#1",
          "ticks": 42552,
          "time": 83.109375,
          "velocity": 0.3937007874015748
        },
        {
          "duration": 0.046875,
          "durationTicks": 24,
          "midi": 66,
          "name": "F#4",
          "ticks": 42552,
          "time": 83.109375,
          "velocity": 0.3937007874015748
        },
        {
          "duration": 0.046875,
          "durationTicks": 24,
          "midi": 66,
          "name": "F#4",
          "ticks": 42552,
          "time": 83.109375,
          "velocity": 0.3937007874015748
        },
        {
          "duration": 0.046875,
          "durationTicks": 24,
          "midi": 66,
          "name": "F#4",
          "ticks": 42552,
          "time": 83.109375,
          "velocity": 0.3937007874015748
        },
        {
          "duration": 0.046875,
          "durationTicks": 24,
          "midi": 66,
          "name": "F#4",
          "ticks": 42552,
          "time": 83.109375,
          "velocity": 0.3937007874015748
        },
        {
          "duration": 0.046875,
          "durationTicks": 24,
          "midi": 78,
          "name": "F#5",
          "ticks": 42552,
          "time": 83.109375,
          "velocity": 0.3937007874015748
        },
        {
          "duration": 0.046875,
          "durationTicks": 24,
          "midi": 78,
          "name": "F#5",
          "ticks": 42552,
          "time": 83.109375,
          "velocity": 0.3937007874015748
        },
        {
          "duration": 0.046875,
          "durationTicks": 24,
          "midi": 66,
          "name": "F#4",
          "ticks": 42552,
          "time": 83.109375,
          "velocity": 0.3937007874015748
        },
        {
          "duration": 0.046875,
          "durationTicks": 24,
          "midi": 78,
          "name": "F#5",
          "ticks": 42552,
          "time": 83.109375,
          "velocity": 0.3937007874015748
        },
        {
          "duration": 0.046875,
          "durationTicks": 24,
          "midi": 78,
          "name": "F#5",
          "ticks": 42552,
          "time": 83.109375,
          "velocity": 0.3937007874015748
        },
        {
          "duration": 0.046875,
          "durationTicks": 24,
          "midi": 78,
          "name": "F#5",
          "ticks": 42552,
          "time": 83.109375,
          "velocity": 0.3937007874015748
        },
        {
          "duration": 0.046875,
          "durationTicks": 24,
          "midi": 78,
          "name": "F#5",
          "ticks": 42576,
          "time": 83.15625,
          "velocity": 0.3937007874015748
        },
        {
          "duration": 0.046875,
          "durationTicks": 24,
          "midi": 66,
          "name": "F#4",
          "ticks": 42576,
          "time": 83.15625,
          "velocity": 0.3937007874015748
        },
        {
          "duration": 0.046875,
          "durationTicks": 24,
          "midi": 37,
          "name": "C#2",
          "ticks": 42576,
          "time": 83.15625,
          "velocity": 0.3937007874015748
        },
        {
          "duration": 0.046875,
          "durationTicks": 24,
          "midi": 78,
          "name": "F#5",
          "ticks": 42576,
          "time": 83.15625,
          "velocity": 0.3937007874015748
        },
        {
          "duration": 0.046875,
          "durationTicks": 24,
          "midi": 78,
          "name": "F#5",
          "ticks": 42576,
          "time": 83.15625,
          "velocity": 0.3937007874015748
        },
        {
          "duration": 0.046875,
          "durationTicks": 24,
          "midi": 25,
          "name": "C#1",
          "ticks": 42576,
          "time": 83.15625,
          "velocity": 0.3937007874015748
        },
        {
          "duration": 0.046875,
          "durationTicks": 24,
          "midi": 37,
          "name": "C#2",
          "ticks": 42576,
          "time": 83.15625,
          "velocity": 0.3937007874015748
        },
        {
          "duration": 0.046875,
          "durationTicks": 24,
          "midi": 66,
          "name": "F#4",
          "ticks": 42576,
          "time": 83.15625,
          "velocity": 0.3937007874015748
        },
        {
          "duration": 0.046875,
          "durationTicks": 24,
          "midi": 66,
          "name": "F#4",
          "ticks": 42576,
          "time": 83.15625,
          "velocity": 0.3937007874015748
        },
        {
          "duration": 0.046875,
          "durationTicks": 24,
          "midi": 66,
          "name": "F#4",
          "ticks": 42576,
          "time": 83.15625,
          "velocity": 0.3937007874015748
        },
        {
          "duration": 0.046875,
          "durationTicks": 24,
          "midi": 78,
          "name": "F#5",
          "ticks": 42576,
          "time": 83.15625,
          "velocity": 0.3937007874015748
        },
        {
          "duration": 0.046875,
          "durationTicks": 24,
          "midi": 25,
          "name": "C#1",
          "ticks": 42576,
          "time": 83.15625,
          "velocity": 0.3937007874015748
        },
        {
          "duration": 0.046875,
          "durationTicks": 24,
          "midi": 78,
          "name": "F#5",
          "ticks": 42576,
          "time": 83.15625,
          "velocity": 0.3937007874015748
        },
        {
          "duration": 0.046875,
          "durationTicks": 24,
          "midi": 66,
          "name": "F#4",
          "ticks": 42576,
          "time": 83.15625,
          "velocity": 0.3937007874015748
        },
        {
          "duration": 0.046875,
          "durationTicks": 24,
          "midi": 78,
          "name": "F#5",
          "ticks": 42576,
          "time": 83.15625,
          "velocity": 0.3937007874015748
        },
        {
          "duration": 0.046875,
          "durationTicks": 24,
          "midi": 66,
          "name": "F#4",
          "ticks": 42576,
          "time": 83.15625,
          "velocity": 0.3937007874015748
        },
        {
          "duration": 0.046875,
          "durationTicks": 24,
          "midi": 78,
          "name": "F#5",
          "ticks": 42600,
          "time": 83.203125,
          "velocity": 0.3937007874015748
        },
        {
          "duration": 0.046875,
          "durationTicks": 24,
          "midi": 66,
          "name": "F#4",
          "ticks": 42600,
          "time": 83.203125,
          "velocity": 0.3937007874015748
        },
        {
          "duration": 0.046875,
          "durationTicks": 24,
          "midi": 66,
          "name": "F#4",
          "ticks": 42600,
          "time": 83.203125,
          "velocity": 0.3937007874015748
        },
        {
          "duration": 0.046875,
          "durationTicks": 24,
          "midi": 25,
          "name": "C#1",
          "ticks": 42600,
          "time": 83.203125,
          "velocity": 0.3937007874015748
        },
        {
          "duration": 0.046875,
          "durationTicks": 24,
          "midi": 66,
          "name": "F#4",
          "ticks": 42600,
          "time": 83.203125,
          "velocity": 0.3937007874015748
        },
        {
          "duration": 0.046875,
          "durationTicks": 24,
          "midi": 37,
          "name": "C#2",
          "ticks": 42600,
          "time": 83.203125,
          "velocity": 0.3937007874015748
        },
        {
          "duration": 0.046875,
          "durationTicks": 24,
          "midi": 25,
          "name": "C#1",
          "ticks": 42600,
          "time": 83.203125,
          "velocity": 0.3937007874015748
        },
        {
          "duration": 0.046875,
          "durationTicks": 24,
          "midi": 66,
          "name": "F#4",
          "ticks": 42600,
          "time": 83.203125,
          "velocity": 0.3937007874015748
        },
        {
          "duration": 0.046875,
          "durationTicks": 24,
          "midi": 37,
          "name": "C#2",
          "ticks": 42600,
          "time": 83.203125,
          "velocity": 0.3937007874015748
        },
        {
          "duration": 0.046875,
          "durationTicks": 24,
          "midi": 78,
          "name": "F#5",
          "ticks": 42600,
          "time": 83.203125,
          "velocity": 0.3937007874015748
        },
        {
          "duration": 0.046875,
          "durationTicks": 24,
          "midi": 78,
          "name": "F#5",
          "ticks": 42600,
          "time": 83.203125,
          "velocity": 0.3937007874015748
        },
        {
          "duration": 0.046875,
          "durationTicks": 24,
          "midi": 66,
          "name": "F#4",
          "ticks": 42600,
          "time": 83.203125,
          "velocity": 0.3937007874015748
        },
        {
          "duration": 0.046875,
          "durationTicks": 24,
          "midi": 78,
          "name": "F#5",
          "ticks": 42600,
          "time": 83.203125,
          "velocity": 0.3937007874015748
        },
        {
          "duration": 0.046875,
          "durationTicks": 24,
          "midi": 78,
          "name": "F#5",
          "ticks": 42600,
          "time": 83.203125,
          "velocity": 0.3937007874015748
        },
        {
          "duration": 0.046875,
          "durationTicks": 24,
          "midi": 78,
          "name": "F#5",
          "ticks": 42600,
          "time": 83.203125,
          "velocity": 0.3937007874015748
        },
        {
          "duration": 0.046875,
          "durationTicks": 24,
          "midi": 66,
          "name": "F#4",
          "ticks": 42600,
          "time": 83.203125,
          "velocity": 0.3937007874015748
        },
        {
          "duration": 0.046875,
          "durationTicks": 24,
          "midi": 54,
          "name": "F#3",
          "ticks": 42624,
          "time": 83.25,
          "velocity": 0.3937007874015748
        },
        {
          "duration": 0.046875,
          "durationTicks": 24,
          "midi": 54,
          "name": "F#3",
          "ticks": 42624,
          "time": 83.25,
          "velocity": 0.3937007874015748
        },
        {
          "duration": 0.046875,
          "durationTicks": 24,
          "midi": 49,
          "name": "C#3",
          "ticks": 42624,
          "time": 83.25,
          "velocity": 0.3937007874015748
        },
        {
          "duration": 0.046875,
          "durationTicks": 24,
          "midi": 49,
          "name": "C#3",
          "ticks": 42624,
          "time": 83.25,
          "velocity": 0.3937007874015748
        },
        {
          "duration": 0.046875,
          "durationTicks": 24,
          "midi": 54,
          "name": "F#3",
          "ticks": 42624,
          "time": 83.25,
          "velocity": 0.3937007874015748
        },
        {
          "duration": 0.046875,
          "durationTicks": 24,
          "midi": 49,
          "name": "C#3",
          "ticks": 42624,
          "time": 83.25,
          "velocity": 0.3937007874015748
        },
        {
          "duration": 0.046875,
          "durationTicks": 24,
          "midi": 49,
          "name": "C#3",
          "ticks": 42624,
          "time": 83.25,
          "velocity": 0.3937007874015748
        },
        {
          "duration": 0.046875,
          "durationTicks": 24,
          "midi": 54,
          "name": "F#3",
          "ticks": 42624,
          "time": 83.25,
          "velocity": 0.3937007874015748
        },
        {
          "duration": 0.046875,
          "durationTicks": 24,
          "midi": 49,
          "name": "C#3",
          "ticks": 42624,
          "time": 83.25,
          "velocity": 0.3937007874015748
        },
        {
          "duration": 0.046875,
          "durationTicks": 24,
          "midi": 54,
          "name": "F#3",
          "ticks": 42624,
          "time": 83.25,
          "velocity": 0.3937007874015748
        },
        {
          "duration": 0.046875,
          "durationTicks": 24,
          "midi": 49,
          "name": "C#3",
          "ticks": 42624,
          "time": 83.25,
          "velocity": 0.3937007874015748
        },
        {
          "duration": 0.046875,
          "durationTicks": 24,
          "midi": 54,
          "name": "F#3",
          "ticks": 42624,
          "time": 83.25,
          "velocity": 0.3937007874015748
        },
        {
          "duration": 0.046875,
          "durationTicks": 24,
          "midi": 49,
          "name": "C#3",
          "ticks": 42648,
          "time": 83.296875,
          "velocity": 0.3937007874015748
        },
        {
          "duration": 0.046875,
          "durationTicks": 24,
          "midi": 49,
          "name": "C#3",
          "ticks": 42648,
          "time": 83.296875,
          "velocity": 0.3937007874015748
        },
        {
          "duration": 0.046875,
          "durationTicks": 24,
          "midi": 69,
          "name": "A4",
          "ticks": 42648,
          "time": 83.296875,
          "velocity": 0.3937007874015748
        },
        {
          "duration": 0.046875,
          "durationTicks": 24,
          "midi": 81,
          "name": "A5",
          "ticks": 42648,
          "time": 83.296875,
          "velocity": 0.3937007874015748
        },
        {
          "duration": 0.046875,
          "durationTicks": 24,
          "midi": 81,
          "name": "A5",
          "ticks": 42648,
          "time": 83.296875,
          "velocity": 0.3937007874015748
        },
        {
          "duration": 0.046875,
          "durationTicks": 24,
          "midi": 69,
          "name": "A4",
          "ticks": 42648,
          "time": 83.296875,
          "velocity": 0.3937007874015748
        },
        {
          "duration": 0.046875,
          "durationTicks": 24,
          "midi": 81,
          "name": "A5",
          "ticks": 42648,
          "time": 83.296875,
          "velocity": 0.3937007874015748
        },
        {
          "duration": 0.046875,
          "durationTicks": 24,
          "midi": 54,
          "name": "F#3",
          "ticks": 42648,
          "time": 83.296875,
          "velocity": 0.3937007874015748
        },
        {
          "duration": 0.046875,
          "durationTicks": 24,
          "midi": 81,
          "name": "A5",
          "ticks": 42648,
          "time": 83.296875,
          "velocity": 0.3937007874015748
        },
        {
          "duration": 0.046875,
          "durationTicks": 24,
          "midi": 69,
          "name": "A4",
          "ticks": 42648,
          "time": 83.296875,
          "velocity": 0.3937007874015748
        },
        {
          "duration": 0.046875,
          "durationTicks": 24,
          "midi": 49,
          "name": "C#3",
          "ticks": 42648,
          "time": 83.296875,
          "velocity": 0.3937007874015748
        },
        {
          "duration": 0.046875,
          "durationTicks": 24,
          "midi": 54,
          "name": "F#3",
          "ticks": 42648,
          "time": 83.296875,
          "velocity": 0.3937007874015748
        },
        {
          "duration": 0.046875,
          "durationTicks": 24,
          "midi": 49,
          "name": "C#3",
          "ticks": 42648,
          "time": 83.296875,
          "velocity": 0.3937007874015748
        },
        {
          "duration": 0.046875,
          "durationTicks": 24,
          "midi": 49,
          "name": "C#3",
          "ticks": 42648,
          "time": 83.296875,
          "velocity": 0.3937007874015748
        },
        {
          "duration": 0.046875,
          "durationTicks": 24,
          "midi": 69,
          "name": "A4",
          "ticks": 42648,
          "time": 83.296875,
          "velocity": 0.3937007874015748
        },
        {
          "duration": 0.046875,
          "durationTicks": 24,
          "midi": 54,
          "name": "F#3",
          "ticks": 42648,
          "time": 83.296875,
          "velocity": 0.3937007874015748
        },
        {
          "duration": 0.046875,
          "durationTicks": 24,
          "midi": 81,
          "name": "A5",
          "ticks": 42648,
          "time": 83.296875,
          "velocity": 0.3937007874015748
        },
        {
          "duration": 0.046875,
          "durationTicks": 24,
          "midi": 69,
          "name": "A4",
          "ticks": 42648,
          "time": 83.296875,
          "velocity": 0.3937007874015748
        },
        {
          "duration": 0.046875,
          "durationTicks": 24,
          "midi": 49,
          "name": "C#3",
          "ticks": 42648,
          "time": 83.296875,
          "velocity": 0.3937007874015748
        },
        {
          "duration": 0.046875,
          "durationTicks": 24,
          "midi": 69,
          "name": "A4",
          "ticks": 42648,
          "time": 83.296875,
          "velocity": 0.3937007874015748
        },
        {
          "duration": 0.046875,
          "durationTicks": 24,
          "midi": 54,
          "name": "F#3",
          "ticks": 42648,
          "time": 83.296875,
          "velocity": 0.3937007874015748
        },
        {
          "duration": 0.046875,
          "durationTicks": 24,
          "midi": 54,
          "name": "F#3",
          "ticks": 42648,
          "time": 83.296875,
          "velocity": 0.3937007874015748
        },
        {
          "duration": 0.046875,
          "durationTicks": 24,
          "midi": 54,
          "name": "F#3",
          "ticks": 42648,
          "time": 83.296875,
          "velocity": 0.3937007874015748
        },
        {
          "duration": 0.046875,
          "durationTicks": 24,
          "midi": 81,
          "name": "A5",
          "ticks": 42648,
          "time": 83.296875,
          "velocity": 0.3937007874015748
        },
        {
          "duration": 0.046875,
          "durationTicks": 24,
          "midi": 81,
          "name": "A5",
          "ticks": 42672,
          "time": 83.34375,
          "velocity": 0.3937007874015748
        },
        {
          "duration": 0.046875,
          "durationTicks": 24,
          "midi": 69,
          "name": "A4",
          "ticks": 42672,
          "time": 83.34375,
          "velocity": 0.3937007874015748
        },
        {
          "duration": 0.046875,
          "durationTicks": 24,
          "midi": 54,
          "name": "F#3",
          "ticks": 42672,
          "time": 83.34375,
          "velocity": 0.3937007874015748
        },
        {
          "duration": 0.046875,
          "durationTicks": 24,
          "midi": 69,
          "name": "A4",
          "ticks": 42672,
          "time": 83.34375,
          "velocity": 0.3937007874015748
        },
        {
          "duration": 0.046875,
          "durationTicks": 24,
          "midi": 69,
          "name": "A4",
          "ticks": 42672,
          "time": 83.34375,
          "velocity": 0.3937007874015748
        },
        {
          "duration": 0.046875,
          "durationTicks": 24,
          "midi": 49,
          "name": "C#3",
          "ticks": 42672,
          "time": 83.34375,
          "velocity": 0.3937007874015748
        },
        {
          "duration": 0.046875,
          "durationTicks": 24,
          "midi": 69,
          "name": "A4",
          "ticks": 42672,
          "time": 83.34375,
          "velocity": 0.3937007874015748
        },
        {
          "duration": 0.046875,
          "durationTicks": 24,
          "midi": 81,
          "name": "A5",
          "ticks": 42672,
          "time": 83.34375,
          "velocity": 0.3937007874015748
        },
        {
          "duration": 0.046875,
          "durationTicks": 24,
          "midi": 54,
          "name": "F#3",
          "ticks": 42672,
          "time": 83.34375,
          "velocity": 0.3937007874015748
        },
        {
          "duration": 0.046875,
          "durationTicks": 24,
          "midi": 49,
          "name": "C#3",
          "ticks": 42672,
          "time": 83.34375,
          "velocity": 0.3937007874015748
        },
        {
          "duration": 0.046875,
          "durationTicks": 24,
          "midi": 69,
          "name": "A4",
          "ticks": 42672,
          "time": 83.34375,
          "velocity": 0.3937007874015748
        },
        {
          "duration": 0.046875,
          "durationTicks": 24,
          "midi": 54,
          "name": "F#3",
          "ticks": 42672,
          "time": 83.34375,
          "velocity": 0.3937007874015748
        },
        {
          "duration": 0.046875,
          "durationTicks": 24,
          "midi": 81,
          "name": "A5",
          "ticks": 42672,
          "time": 83.34375,
          "velocity": 0.3937007874015748
        },
        {
          "duration": 0.046875,
          "durationTicks": 24,
          "midi": 49,
          "name": "C#3",
          "ticks": 42672,
          "time": 83.34375,
          "velocity": 0.3937007874015748
        },
        {
          "duration": 0.046875,
          "durationTicks": 24,
          "midi": 54,
          "name": "F#3",
          "ticks": 42672,
          "time": 83.34375,
          "velocity": 0.3937007874015748
        },
        {
          "duration": 0.046875,
          "durationTicks": 24,
          "midi": 69,
          "name": "A4",
          "ticks": 42672,
          "time": 83.34375,
          "velocity": 0.3937007874015748
        },
        {
          "duration": 0.046875,
          "durationTicks": 24,
          "midi": 81,
          "name": "A5",
          "ticks": 42672,
          "time": 83.34375,
          "velocity": 0.3937007874015748
        },
        {
          "duration": 0.046875,
          "durationTicks": 24,
          "midi": 49,
          "name": "C#3",
          "ticks": 42672,
          "time": 83.34375,
          "velocity": 0.3937007874015748
        },
        {
          "duration": 0.046875,
          "durationTicks": 24,
          "midi": 81,
          "name": "A5",
          "ticks": 42672,
          "time": 83.34375,
          "velocity": 0.3937007874015748
        },
        {
          "duration": 0.046875,
          "durationTicks": 24,
          "midi": 54,
          "name": "F#3",
          "ticks": 42672,
          "time": 83.34375,
          "velocity": 0.3937007874015748
        },
        {
          "duration": 0.046875,
          "durationTicks": 24,
          "midi": 49,
          "name": "C#3",
          "ticks": 42672,
          "time": 83.34375,
          "velocity": 0.3937007874015748
        },
        {
          "duration": 0.046875,
          "durationTicks": 24,
          "midi": 81,
          "name": "A5",
          "ticks": 42672,
          "time": 83.34375,
          "velocity": 0.3937007874015748
        },
        {
          "duration": 0.046875,
          "durationTicks": 24,
          "midi": 54,
          "name": "F#3",
          "ticks": 42672,
          "time": 83.34375,
          "velocity": 0.3937007874015748
        },
        {
          "duration": 0.046875,
          "durationTicks": 24,
          "midi": 49,
          "name": "C#3",
          "ticks": 42672,
          "time": 83.34375,
          "velocity": 0.3937007874015748
        },
        {
          "duration": 0.046875,
          "durationTicks": 24,
          "midi": 81,
          "name": "A5",
          "ticks": 42696,
          "time": 83.390625,
          "velocity": 0.3937007874015748
        },
        {
          "duration": 0.046875,
          "durationTicks": 24,
          "midi": 54,
          "name": "F#3",
          "ticks": 42696,
          "time": 83.390625,
          "velocity": 0.3937007874015748
        },
        {
          "duration": 0.046875,
          "durationTicks": 24,
          "midi": 81,
          "name": "A5",
          "ticks": 42696,
          "time": 83.390625,
          "velocity": 0.3937007874015748
        },
        {
          "duration": 0.046875,
          "durationTicks": 24,
          "midi": 81,
          "name": "A5",
          "ticks": 42696,
          "time": 83.390625,
          "velocity": 0.3937007874015748
        },
        {
          "duration": 0.046875,
          "durationTicks": 24,
          "midi": 69,
          "name": "A4",
          "ticks": 42696,
          "time": 83.390625,
          "velocity": 0.3937007874015748
        },
        {
          "duration": 0.046875,
          "durationTicks": 24,
          "midi": 49,
          "name": "C#3",
          "ticks": 42696,
          "time": 83.390625,
          "velocity": 0.3937007874015748
        },
        {
          "duration": 0.046875,
          "durationTicks": 24,
          "midi": 69,
          "name": "A4",
          "ticks": 42696,
          "time": 83.390625,
          "velocity": 0.3937007874015748
        },
        {
          "duration": 0.046875,
          "durationTicks": 24,
          "midi": 69,
          "name": "A4",
          "ticks": 42696,
          "time": 83.390625,
          "velocity": 0.3937007874015748
        },
        {
          "duration": 0.046875,
          "durationTicks": 24,
          "midi": 49,
          "name": "C#3",
          "ticks": 42696,
          "time": 83.390625,
          "velocity": 0.3937007874015748
        },
        {
          "duration": 0.046875,
          "durationTicks": 24,
          "midi": 69,
          "name": "A4",
          "ticks": 42696,
          "time": 83.390625,
          "velocity": 0.3937007874015748
        },
        {
          "duration": 0.046875,
          "durationTicks": 24,
          "midi": 81,
          "name": "A5",
          "ticks": 42696,
          "time": 83.390625,
          "velocity": 0.3937007874015748
        },
        {
          "duration": 0.046875,
          "durationTicks": 24,
          "midi": 54,
          "name": "F#3",
          "ticks": 42696,
          "time": 83.390625,
          "velocity": 0.3937007874015748
        },
        {
          "duration": 0.046875,
          "durationTicks": 24,
          "midi": 49,
          "name": "C#3",
          "ticks": 42696,
          "time": 83.390625,
          "velocity": 0.3937007874015748
        },
        {
          "duration": 0.046875,
          "durationTicks": 24,
          "midi": 69,
          "name": "A4",
          "ticks": 42696,
          "time": 83.390625,
          "velocity": 0.3937007874015748
        },
        {
          "duration": 0.046875,
          "durationTicks": 24,
          "midi": 54,
          "name": "F#3",
          "ticks": 42696,
          "time": 83.390625,
          "velocity": 0.3937007874015748
        },
        {
          "duration": 0.046875,
          "durationTicks": 24,
          "midi": 54,
          "name": "F#3",
          "ticks": 42696,
          "time": 83.390625,
          "velocity": 0.3937007874015748
        },
        {
          "duration": 0.046875,
          "durationTicks": 24,
          "midi": 54,
          "name": "F#3",
          "ticks": 42696,
          "time": 83.390625,
          "velocity": 0.3937007874015748
        },
        {
          "duration": 0.046875,
          "durationTicks": 24,
          "midi": 81,
          "name": "A5",
          "ticks": 42696,
          "time": 83.390625,
          "velocity": 0.3937007874015748
        },
        {
          "duration": 0.046875,
          "durationTicks": 24,
          "midi": 69,
          "name": "A4",
          "ticks": 42696,
          "time": 83.390625,
          "velocity": 0.3937007874015748
        },
        {
          "duration": 0.046875,
          "durationTicks": 24,
          "midi": 49,
          "name": "C#3",
          "ticks": 42696,
          "time": 83.390625,
          "velocity": 0.3937007874015748
        },
        {
          "duration": 0.046875,
          "durationTicks": 24,
          "midi": 49,
          "name": "C#3",
          "ticks": 42696,
          "time": 83.390625,
          "velocity": 0.3937007874015748
        },
        {
          "duration": 0.046875,
          "durationTicks": 24,
          "midi": 81,
          "name": "A5",
          "ticks": 42696,
          "time": 83.390625,
          "velocity": 0.3937007874015748
        },
        {
          "duration": 0.046875,
          "durationTicks": 24,
          "midi": 49,
          "name": "C#3",
          "ticks": 42696,
          "time": 83.390625,
          "velocity": 0.3937007874015748
        },
        {
          "duration": 0.046875,
          "durationTicks": 24,
          "midi": 54,
          "name": "F#3",
          "ticks": 42696,
          "time": 83.390625,
          "velocity": 0.3937007874015748
        },
        {
          "duration": 0.046875,
          "durationTicks": 24,
          "midi": 54,
          "name": "F#3",
          "ticks": 42720,
          "time": 83.4375,
          "velocity": 0.3937007874015748
        },
        {
          "duration": 0.046875,
          "durationTicks": 24,
          "midi": 69,
          "name": "A4",
          "ticks": 42720,
          "time": 83.4375,
          "velocity": 0.3937007874015748
        },
        {
          "duration": 0.046875,
          "durationTicks": 24,
          "midi": 54,
          "name": "F#3",
          "ticks": 42720,
          "time": 83.4375,
          "velocity": 0.3937007874015748
        },
        {
          "duration": 0.046875,
          "durationTicks": 24,
          "midi": 69,
          "name": "A4",
          "ticks": 42720,
          "time": 83.4375,
          "velocity": 0.3937007874015748
        },
        {
          "duration": 0.046875,
          "durationTicks": 24,
          "midi": 49,
          "name": "C#3",
          "ticks": 42720,
          "time": 83.4375,
          "velocity": 0.3937007874015748
        },
        {
          "duration": 0.046875,
          "durationTicks": 24,
          "midi": 49,
          "name": "C#3",
          "ticks": 42720,
          "time": 83.4375,
          "velocity": 0.3937007874015748
        },
        {
          "duration": 0.046875,
          "durationTicks": 24,
          "midi": 54,
          "name": "F#3",
          "ticks": 42720,
          "time": 83.4375,
          "velocity": 0.3937007874015748
        },
        {
          "duration": 0.046875,
          "durationTicks": 24,
          "midi": 81,
          "name": "A5",
          "ticks": 42720,
          "time": 83.4375,
          "velocity": 0.3937007874015748
        },
        {
          "duration": 0.046875,
          "durationTicks": 24,
          "midi": 69,
          "name": "A4",
          "ticks": 42720,
          "time": 83.4375,
          "velocity": 0.3937007874015748
        },
        {
          "duration": 0.046875,
          "durationTicks": 24,
          "midi": 69,
          "name": "A4",
          "ticks": 42720,
          "time": 83.4375,
          "velocity": 0.3937007874015748
        },
        {
          "duration": 0.046875,
          "durationTicks": 24,
          "midi": 81,
          "name": "A5",
          "ticks": 42720,
          "time": 83.4375,
          "velocity": 0.3937007874015748
        },
        {
          "duration": 0.046875,
          "durationTicks": 24,
          "midi": 49,
          "name": "C#3",
          "ticks": 42720,
          "time": 83.4375,
          "velocity": 0.3937007874015748
        },
        {
          "duration": 0.046875,
          "durationTicks": 24,
          "midi": 81,
          "name": "A5",
          "ticks": 42720,
          "time": 83.4375,
          "velocity": 0.3937007874015748
        },
        {
          "duration": 0.046875,
          "durationTicks": 24,
          "midi": 49,
          "name": "C#3",
          "ticks": 42720,
          "time": 83.4375,
          "velocity": 0.3937007874015748
        },
        {
          "duration": 0.046875,
          "durationTicks": 24,
          "midi": 81,
          "name": "A5",
          "ticks": 42720,
          "time": 83.4375,
          "velocity": 0.3937007874015748
        },
        {
          "duration": 0.046875,
          "durationTicks": 24,
          "midi": 54,
          "name": "F#3",
          "ticks": 42720,
          "time": 83.4375,
          "velocity": 0.3937007874015748
        },
        {
          "duration": 0.046875,
          "durationTicks": 24,
          "midi": 81,
          "name": "A5",
          "ticks": 42720,
          "time": 83.4375,
          "velocity": 0.3937007874015748
        },
        {
          "duration": 0.046875,
          "durationTicks": 24,
          "midi": 69,
          "name": "A4",
          "ticks": 42720,
          "time": 83.4375,
          "velocity": 0.3937007874015748
        },
        {
          "duration": 0.046875,
          "durationTicks": 24,
          "midi": 81,
          "name": "A5",
          "ticks": 42720,
          "time": 83.4375,
          "velocity": 0.3937007874015748
        },
        {
          "duration": 0.046875,
          "durationTicks": 24,
          "midi": 69,
          "name": "A4",
          "ticks": 42720,
          "time": 83.4375,
          "velocity": 0.3937007874015748
        },
        {
          "duration": 0.046875,
          "durationTicks": 24,
          "midi": 49,
          "name": "C#3",
          "ticks": 42744,
          "time": 83.484375,
          "velocity": 0.3937007874015748
        },
        {
          "duration": 0.046875,
          "durationTicks": 24,
          "midi": 49,
          "name": "C#3",
          "ticks": 42744,
          "time": 83.484375,
          "velocity": 0.3937007874015748
        },
        {
          "duration": 0.046875,
          "durationTicks": 24,
          "midi": 49,
          "name": "C#3",
          "ticks": 42744,
          "time": 83.484375,
          "velocity": 0.3937007874015748
        },
        {
          "duration": 0.046875,
          "durationTicks": 24,
          "midi": 49,
          "name": "C#3",
          "ticks": 42744,
          "time": 83.484375,
          "velocity": 0.3937007874015748
        },
        {
          "duration": 0.046875,
          "durationTicks": 24,
          "midi": 54,
          "name": "F#3",
          "ticks": 42744,
          "time": 83.484375,
          "velocity": 0.3937007874015748
        },
        {
          "duration": 0.046875,
          "durationTicks": 24,
          "midi": 54,
          "name": "F#3",
          "ticks": 42744,
          "time": 83.484375,
          "velocity": 0.3937007874015748
        },
        {
          "duration": 0.046875,
          "durationTicks": 24,
          "midi": 54,
          "name": "F#3",
          "ticks": 42744,
          "time": 83.484375,
          "velocity": 0.3937007874015748
        },
        {
          "duration": 0.046875,
          "durationTicks": 24,
          "midi": 54,
          "name": "F#3",
          "ticks": 42744,
          "time": 83.484375,
          "velocity": 0.3937007874015748
        },
        {
          "duration": 0.046875,
          "durationTicks": 24,
          "midi": 54,
          "name": "F#3",
          "ticks": 42768,
          "time": 83.53125,
          "velocity": 0.3937007874015748
        },
        {
          "duration": 0.046875,
          "durationTicks": 24,
          "midi": 49,
          "name": "C#3",
          "ticks": 42768,
          "time": 83.53125,
          "velocity": 0.3937007874015748
        },
        {
          "duration": 0.046875,
          "durationTicks": 24,
          "midi": 67,
          "name": "G4",
          "ticks": 42768,
          "time": 83.53125,
          "velocity": 0.3937007874015748
        },
        {
          "duration": 0.046875,
          "durationTicks": 24,
          "midi": 67,
          "name": "G4",
          "ticks": 42768,
          "time": 83.53125,
          "velocity": 0.3937007874015748
        },
        {
          "duration": 0.046875,
          "durationTicks": 24,
          "midi": 54,
          "name": "F#3",
          "ticks": 42768,
          "time": 83.53125,
          "velocity": 0.3937007874015748
        },
        {
          "duration": 0.046875,
          "durationTicks": 24,
          "midi": 67,
          "name": "G4",
          "ticks": 42768,
          "time": 83.53125,
          "velocity": 0.3937007874015748
        },
        {
          "duration": 0.046875,
          "durationTicks": 24,
          "midi": 79,
          "name": "G5",
          "ticks": 42768,
          "time": 83.53125,
          "velocity": 0.3937007874015748
        },
        {
          "duration": 0.046875,
          "durationTicks": 24,
          "midi": 79,
          "name": "G5",
          "ticks": 42768,
          "time": 83.53125,
          "velocity": 0.3937007874015748
        },
        {
          "duration": 0.046875,
          "durationTicks": 24,
          "midi": 79,
          "name": "G5",
          "ticks": 42768,
          "time": 83.53125,
          "velocity": 0.3937007874015748
        },
        {
          "duration": 0.046875,
          "durationTicks": 24,
          "midi": 49,
          "name": "C#3",
          "ticks": 42768,
          "time": 83.53125,
          "velocity": 0.3937007874015748
        },
        {
          "duration": 0.046875,
          "durationTicks": 24,
          "midi": 79,
          "name": "G5",
          "ticks": 42768,
          "time": 83.53125,
          "velocity": 0.3937007874015748
        },
        {
          "duration": 0.046875,
          "durationTicks": 24,
          "midi": 54,
          "name": "F#3",
          "ticks": 42768,
          "time": 83.53125,
          "velocity": 0.3937007874015748
        },
        {
          "duration": 0.046875,
          "durationTicks": 24,
          "midi": 67,
          "name": "G4",
          "ticks": 42768,
          "time": 83.53125,
          "velocity": 0.3937007874015748
        },
        {
          "duration": 0.046875,
          "durationTicks": 24,
          "midi": 54,
          "name": "F#3",
          "ticks": 42768,
          "time": 83.53125,
          "velocity": 0.3937007874015748
        },
        {
          "duration": 0.046875,
          "durationTicks": 24,
          "midi": 79,
          "name": "G5",
          "ticks": 42768,
          "time": 83.53125,
          "velocity": 0.3937007874015748
        },
        {
          "duration": 0.046875,
          "durationTicks": 24,
          "midi": 67,
          "name": "G4",
          "ticks": 42768,
          "time": 83.53125,
          "velocity": 0.3937007874015748
        },
        {
          "duration": 0.046875,
          "durationTicks": 24,
          "midi": 49,
          "name": "C#3",
          "ticks": 42768,
          "time": 83.53125,
          "velocity": 0.3937007874015748
        },
        {
          "duration": 0.046875,
          "durationTicks": 24,
          "midi": 79,
          "name": "G5",
          "ticks": 42768,
          "time": 83.53125,
          "velocity": 0.3937007874015748
        },
        {
          "duration": 0.046875,
          "durationTicks": 24,
          "midi": 49,
          "name": "C#3",
          "ticks": 42768,
          "time": 83.53125,
          "velocity": 0.3937007874015748
        },
        {
          "duration": 0.046875,
          "durationTicks": 24,
          "midi": 67,
          "name": "G4",
          "ticks": 42768,
          "time": 83.53125,
          "velocity": 0.3937007874015748
        },
        {
          "duration": 0.046875,
          "durationTicks": 24,
          "midi": 67,
          "name": "G4",
          "ticks": 42792,
          "time": 83.578125,
          "velocity": 0.3937007874015748
        },
        {
          "duration": 0.046875,
          "durationTicks": 24,
          "midi": 79,
          "name": "G5",
          "ticks": 42792,
          "time": 83.578125,
          "velocity": 0.3937007874015748
        },
        {
          "duration": 0.046875,
          "durationTicks": 24,
          "midi": 49,
          "name": "C#3",
          "ticks": 42792,
          "time": 83.578125,
          "velocity": 0.3937007874015748
        },
        {
          "duration": 0.046875,
          "durationTicks": 24,
          "midi": 54,
          "name": "F#3",
          "ticks": 42792,
          "time": 83.578125,
          "velocity": 0.3937007874015748
        },
        {
          "duration": 0.046875,
          "durationTicks": 24,
          "midi": 79,
          "name": "G5",
          "ticks": 42792,
          "time": 83.578125,
          "velocity": 0.3937007874015748
        },
        {
          "duration": 0.046875,
          "durationTicks": 24,
          "midi": 49,
          "name": "C#3",
          "ticks": 42792,
          "time": 83.578125,
          "velocity": 0.3937007874015748
        },
        {
          "duration": 0.046875,
          "durationTicks": 24,
          "midi": 79,
          "name": "G5",
          "ticks": 42792,
          "time": 83.578125,
          "velocity": 0.3937007874015748
        },
        {
          "duration": 0.046875,
          "durationTicks": 24,
          "midi": 79,
          "name": "G5",
          "ticks": 42792,
          "time": 83.578125,
          "velocity": 0.3937007874015748
        },
        {
          "duration": 0.046875,
          "durationTicks": 24,
          "midi": 67,
          "name": "G4",
          "ticks": 42792,
          "time": 83.578125,
          "velocity": 0.3937007874015748
        },
        {
          "duration": 0.046875,
          "durationTicks": 24,
          "midi": 54,
          "name": "F#3",
          "ticks": 42792,
          "time": 83.578125,
          "velocity": 0.3937007874015748
        },
        {
          "duration": 0.046875,
          "durationTicks": 24,
          "midi": 54,
          "name": "F#3",
          "ticks": 42792,
          "time": 83.578125,
          "velocity": 0.3937007874015748
        },
        {
          "duration": 0.046875,
          "durationTicks": 24,
          "midi": 67,
          "name": "G4",
          "ticks": 42792,
          "time": 83.578125,
          "velocity": 0.3937007874015748
        },
        {
          "duration": 0.046875,
          "durationTicks": 24,
          "midi": 67,
          "name": "G4",
          "ticks": 42792,
          "time": 83.578125,
          "velocity": 0.3937007874015748
        },
        {
          "duration": 0.046875,
          "durationTicks": 24,
          "midi": 49,
          "name": "C#3",
          "ticks": 42792,
          "time": 83.578125,
          "velocity": 0.3937007874015748
        },
        {
          "duration": 0.046875,
          "durationTicks": 24,
          "midi": 49,
          "name": "C#3",
          "ticks": 42792,
          "time": 83.578125,
          "velocity": 0.3937007874015748
        },
        {
          "duration": 0.046875,
          "durationTicks": 24,
          "midi": 79,
          "name": "G5",
          "ticks": 42792,
          "time": 83.578125,
          "velocity": 0.3937007874015748
        },
        {
          "duration": 0.046875,
          "durationTicks": 24,
          "midi": 79,
          "name": "G5",
          "ticks": 42792,
          "time": 83.578125,
          "velocity": 0.3937007874015748
        },
        {
          "duration": 0.046875,
          "durationTicks": 24,
          "midi": 67,
          "name": "G4",
          "ticks": 42792,
          "time": 83.578125,
          "velocity": 0.3937007874015748
        },
        {
          "duration": 0.046875,
          "durationTicks": 24,
          "midi": 54,
          "name": "F#3",
          "ticks": 42792,
          "time": 83.578125,
          "velocity": 0.3937007874015748
        },
        {
          "duration": 0.046875,
          "durationTicks": 24,
          "midi": 67,
          "name": "G4",
          "ticks": 42792,
          "time": 83.578125,
          "velocity": 0.3937007874015748
        },
        {
          "duration": 0.046875,
          "durationTicks": 24,
          "midi": 79,
          "name": "G5",
          "ticks": 42816,
          "time": 83.625,
          "velocity": 0.3937007874015748
        },
        {
          "duration": 0.046875,
          "durationTicks": 24,
          "midi": 67,
          "name": "G4",
          "ticks": 42816,
          "time": 83.625,
          "velocity": 0.3937007874015748
        },
        {
          "duration": 0.046875,
          "durationTicks": 24,
          "midi": 67,
          "name": "G4",
          "ticks": 42816,
          "time": 83.625,
          "velocity": 0.3937007874015748
        },
        {
          "duration": 0.046875,
          "durationTicks": 24,
          "midi": 54,
          "name": "F#3",
          "ticks": 42816,
          "time": 83.625,
          "velocity": 0.3937007874015748
        },
        {
          "duration": 0.046875,
          "durationTicks": 24,
          "midi": 67,
          "name": "G4",
          "ticks": 42816,
          "time": 83.625,
          "velocity": 0.3937007874015748
        },
        {
          "duration": 0.046875,
          "durationTicks": 24,
          "midi": 67,
          "name": "G4",
          "ticks": 42816,
          "time": 83.625,
          "velocity": 0.3937007874015748
        },
        {
          "duration": 0.046875,
          "durationTicks": 24,
          "midi": 49,
          "name": "C#3",
          "ticks": 42816,
          "time": 83.625,
          "velocity": 0.3937007874015748
        },
        {
          "duration": 0.046875,
          "durationTicks": 24,
          "midi": 49,
          "name": "C#3",
          "ticks": 42816,
          "time": 83.625,
          "velocity": 0.3937007874015748
        },
        {
          "duration": 0.046875,
          "durationTicks": 24,
          "midi": 54,
          "name": "F#3",
          "ticks": 42816,
          "time": 83.625,
          "velocity": 0.3937007874015748
        },
        {
          "duration": 0.046875,
          "durationTicks": 24,
          "midi": 54,
          "name": "F#3",
          "ticks": 42816,
          "time": 83.625,
          "velocity": 0.3937007874015748
        },
        {
          "duration": 0.046875,
          "durationTicks": 24,
          "midi": 49,
          "name": "C#3",
          "ticks": 42816,
          "time": 83.625,
          "velocity": 0.3937007874015748
        },
        {
          "duration": 0.046875,
          "durationTicks": 24,
          "midi": 79,
          "name": "G5",
          "ticks": 42816,
          "time": 83.625,
          "velocity": 0.3937007874015748
        },
        {
          "duration": 0.046875,
          "durationTicks": 24,
          "midi": 79,
          "name": "G5",
          "ticks": 42816,
          "time": 83.625,
          "velocity": 0.3937007874015748
        },
        {
          "duration": 0.046875,
          "durationTicks": 24,
          "midi": 79,
          "name": "G5",
          "ticks": 42816,
          "time": 83.625,
          "velocity": 0.3937007874015748
        },
        {
          "duration": 0.046875,
          "durationTicks": 24,
          "midi": 67,
          "name": "G4",
          "ticks": 42816,
          "time": 83.625,
          "velocity": 0.3937007874015748
        },
        {
          "duration": 0.046875,
          "durationTicks": 24,
          "midi": 67,
          "name": "G4",
          "ticks": 42816,
          "time": 83.625,
          "velocity": 0.3937007874015748
        },
        {
          "duration": 0.046875,
          "durationTicks": 24,
          "midi": 79,
          "name": "G5",
          "ticks": 42816,
          "time": 83.625,
          "velocity": 0.3937007874015748
        },
        {
          "duration": 0.046875,
          "durationTicks": 24,
          "midi": 79,
          "name": "G5",
          "ticks": 42816,
          "time": 83.625,
          "velocity": 0.3937007874015748
        },
        {
          "duration": 0.046875,
          "durationTicks": 24,
          "midi": 49,
          "name": "C#3",
          "ticks": 42816,
          "time": 83.625,
          "velocity": 0.3937007874015748
        },
        {
          "duration": 0.046875,
          "durationTicks": 24,
          "midi": 54,
          "name": "F#3",
          "ticks": 42816,
          "time": 83.625,
          "velocity": 0.3937007874015748
        },
        {
          "duration": 0.046875,
          "durationTicks": 24,
          "midi": 49,
          "name": "C#3",
          "ticks": 42840,
          "time": 83.671875,
          "velocity": 0.3937007874015748
        },
        {
          "duration": 0.046875,
          "durationTicks": 24,
          "midi": 54,
          "name": "F#3",
          "ticks": 42840,
          "time": 83.671875,
          "velocity": 0.3937007874015748
        },
        {
          "duration": 0.046875,
          "durationTicks": 24,
          "midi": 54,
          "name": "F#3",
          "ticks": 42840,
          "time": 83.671875,
          "velocity": 0.3937007874015748
        },
        {
          "duration": 0.046875,
          "durationTicks": 24,
          "midi": 79,
          "name": "G5",
          "ticks": 42840,
          "time": 83.671875,
          "velocity": 0.3937007874015748
        },
        {
          "duration": 0.046875,
          "durationTicks": 24,
          "midi": 49,
          "name": "C#3",
          "ticks": 42840,
          "time": 83.671875,
          "velocity": 0.3937007874015748
        },
        {
          "duration": 0.046875,
          "durationTicks": 24,
          "midi": 54,
          "name": "F#3",
          "ticks": 42840,
          "time": 83.671875,
          "velocity": 0.3937007874015748
        },
        {
          "duration": 0.046875,
          "durationTicks": 24,
          "midi": 67,
          "name": "G4",
          "ticks": 42840,
          "time": 83.671875,
          "velocity": 0.3937007874015748
        },
        {
          "duration": 0.046875,
          "durationTicks": 24,
          "midi": 49,
          "name": "C#3",
          "ticks": 42840,
          "time": 83.671875,
          "velocity": 0.3937007874015748
        },
        {
          "duration": 0.046875,
          "durationTicks": 24,
          "midi": 54,
          "name": "F#3",
          "ticks": 42840,
          "time": 83.671875,
          "velocity": 0.3937007874015748
        },
        {
          "duration": 0.046875,
          "durationTicks": 24,
          "midi": 79,
          "name": "G5",
          "ticks": 42840,
          "time": 83.671875,
          "velocity": 0.3937007874015748
        },
        {
          "duration": 0.046875,
          "durationTicks": 24,
          "midi": 67,
          "name": "G4",
          "ticks": 42840,
          "time": 83.671875,
          "velocity": 0.3937007874015748
        },
        {
          "duration": 0.046875,
          "durationTicks": 24,
          "midi": 67,
          "name": "G4",
          "ticks": 42840,
          "time": 83.671875,
          "velocity": 0.3937007874015748
        },
        {
          "duration": 0.046875,
          "durationTicks": 24,
          "midi": 67,
          "name": "G4",
          "ticks": 42840,
          "time": 83.671875,
          "velocity": 0.3937007874015748
        },
        {
          "duration": 0.046875,
          "durationTicks": 24,
          "midi": 79,
          "name": "G5",
          "ticks": 42840,
          "time": 83.671875,
          "velocity": 0.3937007874015748
        },
        {
          "duration": 0.046875,
          "durationTicks": 24,
          "midi": 79,
          "name": "G5",
          "ticks": 42840,
          "time": 83.671875,
          "velocity": 0.3937007874015748
        },
        {
          "duration": 0.046875,
          "durationTicks": 24,
          "midi": 79,
          "name": "G5",
          "ticks": 42840,
          "time": 83.671875,
          "velocity": 0.3937007874015748
        },
        {
          "duration": 0.046875,
          "durationTicks": 24,
          "midi": 67,
          "name": "G4",
          "ticks": 42840,
          "time": 83.671875,
          "velocity": 0.3937007874015748
        },
        {
          "duration": 0.046875,
          "durationTicks": 24,
          "midi": 49,
          "name": "C#3",
          "ticks": 42840,
          "time": 83.671875,
          "velocity": 0.3937007874015748
        },
        {
          "duration": 0.046875,
          "durationTicks": 24,
          "midi": 67,
          "name": "G4",
          "ticks": 42840,
          "time": 83.671875,
          "velocity": 0.3937007874015748
        },
        {
          "duration": 0.046875,
          "durationTicks": 24,
          "midi": 79,
          "name": "G5",
          "ticks": 42840,
          "time": 83.671875,
          "velocity": 0.3937007874015748
        },
        {
          "duration": 0.046875,
          "durationTicks": 24,
          "midi": 49,
          "name": "C#3",
          "ticks": 42864,
          "time": 83.71875,
          "velocity": 0.3937007874015748
        },
        {
          "duration": 0.046875,
          "durationTicks": 24,
          "midi": 49,
          "name": "C#3",
          "ticks": 42864,
          "time": 83.71875,
          "velocity": 0.3937007874015748
        },
        {
          "duration": 0.046875,
          "durationTicks": 24,
          "midi": 54,
          "name": "F#3",
          "ticks": 42864,
          "time": 83.71875,
          "velocity": 0.3937007874015748
        },
        {
          "duration": 0.046875,
          "durationTicks": 24,
          "midi": 54,
          "name": "F#3",
          "ticks": 42864,
          "time": 83.71875,
          "velocity": 0.3937007874015748
        },
        {
          "duration": 0.046875,
          "durationTicks": 24,
          "midi": 49,
          "name": "C#3",
          "ticks": 42864,
          "time": 83.71875,
          "velocity": 0.3937007874015748
        },
        {
          "duration": 0.046875,
          "durationTicks": 24,
          "midi": 49,
          "name": "C#3",
          "ticks": 42864,
          "time": 83.71875,
          "velocity": 0.3937007874015748
        },
        {
          "duration": 0.046875,
          "durationTicks": 24,
          "midi": 54,
          "name": "F#3",
          "ticks": 42864,
          "time": 83.71875,
          "velocity": 0.3937007874015748
        },
        {
          "duration": 0.046875,
          "durationTicks": 24,
          "midi": 54,
          "name": "F#3",
          "ticks": 42864,
          "time": 83.71875,
          "velocity": 0.3937007874015748
        },
        {
          "duration": 0.046875,
          "durationTicks": 24,
          "midi": 78,
          "name": "F#5",
          "ticks": 42888,
          "time": 83.765625,
          "velocity": 0.3937007874015748
        },
        {
          "duration": 0.046875,
          "durationTicks": 24,
          "midi": 66,
          "name": "F#4",
          "ticks": 42888,
          "time": 83.765625,
          "velocity": 0.3937007874015748
        },
        {
          "duration": 0.046875,
          "durationTicks": 24,
          "midi": 49,
          "name": "C#3",
          "ticks": 42888,
          "time": 83.765625,
          "velocity": 0.3937007874015748
        },
        {
          "duration": 0.046875,
          "durationTicks": 24,
          "midi": 66,
          "name": "F#4",
          "ticks": 42888,
          "time": 83.765625,
          "velocity": 0.3937007874015748
        },
        {
          "duration": 0.046875,
          "durationTicks": 24,
          "midi": 66,
          "name": "F#4",
          "ticks": 42888,
          "time": 83.765625,
          "velocity": 0.3937007874015748
        },
        {
          "duration": 0.046875,
          "durationTicks": 24,
          "midi": 66,
          "name": "F#4",
          "ticks": 42888,
          "time": 83.765625,
          "velocity": 0.3937007874015748
        },
        {
          "duration": 0.046875,
          "durationTicks": 24,
          "midi": 78,
          "name": "F#5",
          "ticks": 42888,
          "time": 83.765625,
          "velocity": 0.3937007874015748
        },
        {
          "duration": 0.046875,
          "durationTicks": 24,
          "midi": 54,
          "name": "F#3",
          "ticks": 42888,
          "time": 83.765625,
          "velocity": 0.3937007874015748
        },
        {
          "duration": 0.046875,
          "durationTicks": 24,
          "midi": 78,
          "name": "F#5",
          "ticks": 42888,
          "time": 83.765625,
          "velocity": 0.3937007874015748
        },
        {
          "duration": 0.046875,
          "durationTicks": 24,
          "midi": 78,
          "name": "F#5",
          "ticks": 42888,
          "time": 83.765625,
          "velocity": 0.3937007874015748
        },
        {
          "duration": 0.046875,
          "durationTicks": 24,
          "midi": 66,
          "name": "F#4",
          "ticks": 42888,
          "time": 83.765625,
          "velocity": 0.3937007874015748
        },
        {
          "duration": 0.046875,
          "durationTicks": 24,
          "midi": 54,
          "name": "F#3",
          "ticks": 42888,
          "time": 83.765625,
          "velocity": 0.3937007874015748
        },
        {
          "duration": 0.046875,
          "durationTicks": 24,
          "midi": 66,
          "name": "F#4",
          "ticks": 42888,
          "time": 83.765625,
          "velocity": 0.3937007874015748
        },
        {
          "duration": 0.046875,
          "durationTicks": 24,
          "midi": 49,
          "name": "C#3",
          "ticks": 42888,
          "time": 83.765625,
          "velocity": 0.3937007874015748
        },
        {
          "duration": 0.046875,
          "durationTicks": 24,
          "midi": 78,
          "name": "F#5",
          "ticks": 42888,
          "time": 83.765625,
          "velocity": 0.3937007874015748
        },
        {
          "duration": 0.046875,
          "durationTicks": 24,
          "midi": 54,
          "name": "F#3",
          "ticks": 42888,
          "time": 83.765625,
          "velocity": 0.3937007874015748
        },
        {
          "duration": 0.046875,
          "durationTicks": 24,
          "midi": 78,
          "name": "F#5",
          "ticks": 42888,
          "time": 83.765625,
          "velocity": 0.3937007874015748
        },
        {
          "duration": 0.046875,
          "durationTicks": 24,
          "midi": 54,
          "name": "F#3",
          "ticks": 42888,
          "time": 83.765625,
          "velocity": 0.3937007874015748
        },
        {
          "duration": 0.046875,
          "durationTicks": 24,
          "midi": 49,
          "name": "C#3",
          "ticks": 42888,
          "time": 83.765625,
          "velocity": 0.3937007874015748
        },
        {
          "duration": 0.046875,
          "durationTicks": 24,
          "midi": 49,
          "name": "C#3",
          "ticks": 42888,
          "time": 83.765625,
          "velocity": 0.3937007874015748
        },
        {
          "duration": 0.046875,
          "durationTicks": 24,
          "midi": 78,
          "name": "F#5",
          "ticks": 42912,
          "time": 83.8125,
          "velocity": 0.3937007874015748
        },
        {
          "duration": 0.046875,
          "durationTicks": 24,
          "midi": 54,
          "name": "F#3",
          "ticks": 42912,
          "time": 83.8125,
          "velocity": 0.3937007874015748
        },
        {
          "duration": 0.046875,
          "durationTicks": 24,
          "midi": 66,
          "name": "F#4",
          "ticks": 42912,
          "time": 83.8125,
          "velocity": 0.3937007874015748
        },
        {
          "duration": 0.046875,
          "durationTicks": 24,
          "midi": 66,
          "name": "F#4",
          "ticks": 42912,
          "time": 83.8125,
          "velocity": 0.3937007874015748
        },
        {
          "duration": 0.046875,
          "durationTicks": 24,
          "midi": 78,
          "name": "F#5",
          "ticks": 42912,
          "time": 83.8125,
          "velocity": 0.3937007874015748
        },
        {
          "duration": 0.046875,
          "durationTicks": 24,
          "midi": 66,
          "name": "F#4",
          "ticks": 42912,
          "time": 83.8125,
          "velocity": 0.3937007874015748
        },
        {
          "duration": 0.046875,
          "durationTicks": 24,
          "midi": 78,
          "name": "F#5",
          "ticks": 42912,
          "time": 83.8125,
          "velocity": 0.3937007874015748
        },
        {
          "duration": 0.046875,
          "durationTicks": 24,
          "midi": 54,
          "name": "F#3",
          "ticks": 42912,
          "time": 83.8125,
          "velocity": 0.3937007874015748
        },
        {
          "duration": 0.046875,
          "durationTicks": 24,
          "midi": 49,
          "name": "C#3",
          "ticks": 42912,
          "time": 83.8125,
          "velocity": 0.3937007874015748
        },
        {
          "duration": 0.046875,
          "durationTicks": 24,
          "midi": 78,
          "name": "F#5",
          "ticks": 42912,
          "time": 83.8125,
          "velocity": 0.3937007874015748
        },
        {
          "duration": 0.046875,
          "durationTicks": 24,
          "midi": 66,
          "name": "F#4",
          "ticks": 42912,
          "time": 83.8125,
          "velocity": 0.3937007874015748
        },
        {
          "duration": 0.046875,
          "durationTicks": 24,
          "midi": 66,
          "name": "F#4",
          "ticks": 42912,
          "time": 83.8125,
          "velocity": 0.3937007874015748
        },
        {
          "duration": 0.046875,
          "durationTicks": 24,
          "midi": 66,
          "name": "F#4",
          "ticks": 42912,
          "time": 83.8125,
          "velocity": 0.3937007874015748
        },
        {
          "duration": 0.046875,
          "durationTicks": 24,
          "midi": 78,
          "name": "F#5",
          "ticks": 42912,
          "time": 83.8125,
          "velocity": 0.3937007874015748
        },
        {
          "duration": 0.046875,
          "durationTicks": 24,
          "midi": 49,
          "name": "C#3",
          "ticks": 42912,
          "time": 83.8125,
          "velocity": 0.3937007874015748
        },
        {
          "duration": 0.046875,
          "durationTicks": 24,
          "midi": 78,
          "name": "F#5",
          "ticks": 42912,
          "time": 83.8125,
          "velocity": 0.3937007874015748
        },
        {
          "duration": 0.046875,
          "durationTicks": 24,
          "midi": 78,
          "name": "F#5",
          "ticks": 42936,
          "time": 83.859375,
          "velocity": 0.3937007874015748
        },
        {
          "duration": 0.046875,
          "durationTicks": 24,
          "midi": 78,
          "name": "F#5",
          "ticks": 42936,
          "time": 83.859375,
          "velocity": 0.3937007874015748
        },
        {
          "duration": 0.046875,
          "durationTicks": 24,
          "midi": 78,
          "name": "F#5",
          "ticks": 42936,
          "time": 83.859375,
          "velocity": 0.3937007874015748
        },
        {
          "duration": 0.046875,
          "durationTicks": 24,
          "midi": 66,
          "name": "F#4",
          "ticks": 42936,
          "time": 83.859375,
          "velocity": 0.3937007874015748
        },
        {
          "duration": 0.046875,
          "durationTicks": 24,
          "midi": 78,
          "name": "F#5",
          "ticks": 42936,
          "time": 83.859375,
          "velocity": 0.3937007874015748
        },
        {
          "duration": 0.046875,
          "durationTicks": 24,
          "midi": 54,
          "name": "F#3",
          "ticks": 42936,
          "time": 83.859375,
          "velocity": 0.3937007874015748
        },
        {
          "duration": 0.046875,
          "durationTicks": 24,
          "midi": 66,
          "name": "F#4",
          "ticks": 42936,
          "time": 83.859375,
          "velocity": 0.3937007874015748
        },
        {
          "duration": 0.046875,
          "durationTicks": 24,
          "midi": 54,
          "name": "F#3",
          "ticks": 42936,
          "time": 83.859375,
          "velocity": 0.3937007874015748
        },
        {
          "duration": 0.046875,
          "durationTicks": 24,
          "midi": 66,
          "name": "F#4",
          "ticks": 42936,
          "time": 83.859375,
          "velocity": 0.3937007874015748
        },
        {
          "duration": 0.046875,
          "durationTicks": 24,
          "midi": 78,
          "name": "F#5",
          "ticks": 42936,
          "time": 83.859375,
          "velocity": 0.3937007874015748
        },
        {
          "duration": 0.046875,
          "durationTicks": 24,
          "midi": 49,
          "name": "C#3",
          "ticks": 42936,
          "time": 83.859375,
          "velocity": 0.3937007874015748
        },
        {
          "duration": 0.046875,
          "durationTicks": 24,
          "midi": 49,
          "name": "C#3",
          "ticks": 42936,
          "time": 83.859375,
          "velocity": 0.3937007874015748
        },
        {
          "duration": 0.046875,
          "durationTicks": 24,
          "midi": 66,
          "name": "F#4",
          "ticks": 42936,
          "time": 83.859375,
          "velocity": 0.3937007874015748
        },
        {
          "duration": 0.046875,
          "durationTicks": 24,
          "midi": 66,
          "name": "F#4",
          "ticks": 42936,
          "time": 83.859375,
          "velocity": 0.3937007874015748
        },
        {
          "duration": 0.046875,
          "durationTicks": 24,
          "midi": 78,
          "name": "F#5",
          "ticks": 42936,
          "time": 83.859375,
          "velocity": 0.3937007874015748
        },
        {
          "duration": 0.046875,
          "durationTicks": 24,
          "midi": 66,
          "name": "F#4",
          "ticks": 42936,
          "time": 83.859375,
          "velocity": 0.3937007874015748
        },
        {
          "duration": 0.046875,
          "durationTicks": 24,
          "midi": 66,
          "name": "F#4",
          "ticks": 42960,
          "time": 83.90625,
          "velocity": 0.3937007874015748
        },
        {
          "duration": 0.046875,
          "durationTicks": 24,
          "midi": 54,
          "name": "F#3",
          "ticks": 42960,
          "time": 83.90625,
          "velocity": 0.3937007874015748
        },
        {
          "duration": 0.046875,
          "durationTicks": 24,
          "midi": 66,
          "name": "F#4",
          "ticks": 42960,
          "time": 83.90625,
          "velocity": 0.3937007874015748
        },
        {
          "duration": 0.046875,
          "durationTicks": 24,
          "midi": 66,
          "name": "F#4",
          "ticks": 42960,
          "time": 83.90625,
          "velocity": 0.3937007874015748
        },
        {
          "duration": 0.046875,
          "durationTicks": 24,
          "midi": 49,
          "name": "C#3",
          "ticks": 42960,
          "time": 83.90625,
          "velocity": 0.3937007874015748
        },
        {
          "duration": 0.046875,
          "durationTicks": 24,
          "midi": 66,
          "name": "F#4",
          "ticks": 42960,
          "time": 83.90625,
          "velocity": 0.3937007874015748
        },
        {
          "duration": 0.046875,
          "durationTicks": 24,
          "midi": 66,
          "name": "F#4",
          "ticks": 42960,
          "time": 83.90625,
          "velocity": 0.3937007874015748
        },
        {
          "duration": 0.046875,
          "durationTicks": 24,
          "midi": 54,
          "name": "F#3",
          "ticks": 42960,
          "time": 83.90625,
          "velocity": 0.3937007874015748
        },
        {
          "duration": 0.046875,
          "durationTicks": 24,
          "midi": 66,
          "name": "F#4",
          "ticks": 42960,
          "time": 83.90625,
          "velocity": 0.3937007874015748
        },
        {
          "duration": 0.046875,
          "durationTicks": 24,
          "midi": 78,
          "name": "F#5",
          "ticks": 42960,
          "time": 83.90625,
          "velocity": 0.3937007874015748
        },
        {
          "duration": 0.046875,
          "durationTicks": 24,
          "midi": 78,
          "name": "F#5",
          "ticks": 42960,
          "time": 83.90625,
          "velocity": 0.3937007874015748
        },
        {
          "duration": 0.046875,
          "durationTicks": 24,
          "midi": 49,
          "name": "C#3",
          "ticks": 42960,
          "time": 83.90625,
          "velocity": 0.3937007874015748
        },
        {
          "duration": 0.046875,
          "durationTicks": 24,
          "midi": 78,
          "name": "F#5",
          "ticks": 42960,
          "time": 83.90625,
          "velocity": 0.3937007874015748
        },
        {
          "duration": 0.046875,
          "durationTicks": 24,
          "midi": 78,
          "name": "F#5",
          "ticks": 42960,
          "time": 83.90625,
          "velocity": 0.3937007874015748
        },
        {
          "duration": 0.046875,
          "durationTicks": 24,
          "midi": 78,
          "name": "F#5",
          "ticks": 42960,
          "time": 83.90625,
          "velocity": 0.3937007874015748
        },
        {
          "duration": 0.046875,
          "durationTicks": 24,
          "midi": 78,
          "name": "F#5",
          "ticks": 42960,
          "time": 83.90625,
          "velocity": 0.3937007874015748
        },
        {
          "duration": 0.046875,
          "durationTicks": 24,
          "midi": 54,
          "name": "F#3",
          "ticks": 42984,
          "time": 83.953125,
          "velocity": 0.3937007874015748
        },
        {
          "duration": 0.046875,
          "durationTicks": 24,
          "midi": 54,
          "name": "F#3",
          "ticks": 42984,
          "time": 83.953125,
          "velocity": 0.3937007874015748
        },
        {
          "duration": 0.046875,
          "durationTicks": 24,
          "midi": 49,
          "name": "C#3",
          "ticks": 42984,
          "time": 83.953125,
          "velocity": 0.3937007874015748
        },
        {
          "duration": 0.046875,
          "durationTicks": 24,
          "midi": 49,
          "name": "C#3",
          "ticks": 42984,
          "time": 83.953125,
          "velocity": 0.3937007874015748
        },
        {
          "duration": 0.046875,
          "durationTicks": 24,
          "midi": 45,
          "name": "A2",
          "ticks": 43008,
          "time": 84,
          "velocity": 0.3937007874015748
        },
        {
          "duration": 0.046875,
          "durationTicks": 24,
          "midi": 77,
          "name": "F5",
          "ticks": 43008,
          "time": 84,
          "velocity": 0.3937007874015748
        },
        {
          "duration": 0.046875,
          "durationTicks": 24,
          "midi": 77,
          "name": "F5",
          "ticks": 43008,
          "time": 84,
          "velocity": 0.3937007874015748
        },
        {
          "duration": 0.046875,
          "durationTicks": 24,
          "midi": 33,
          "name": "A1",
          "ticks": 43008,
          "time": 84,
          "velocity": 0.3937007874015748
        },
        {
          "duration": 0.046875,
          "durationTicks": 24,
          "midi": 33,
          "name": "A1",
          "ticks": 43008,
          "time": 84,
          "velocity": 0.3937007874015748
        },
        {
          "duration": 0.046875,
          "durationTicks": 24,
          "midi": 33,
          "name": "A1",
          "ticks": 43008,
          "time": 84,
          "velocity": 0.3937007874015748
        },
        {
          "duration": 0.046875,
          "durationTicks": 24,
          "midi": 45,
          "name": "A2",
          "ticks": 43008,
          "time": 84,
          "velocity": 0.3937007874015748
        },
        {
          "duration": 0.046875,
          "durationTicks": 24,
          "midi": 33,
          "name": "A1",
          "ticks": 43008,
          "time": 84,
          "velocity": 0.3937007874015748
        },
        {
          "duration": 0.046875,
          "durationTicks": 24,
          "midi": 33,
          "name": "A1",
          "ticks": 43008,
          "time": 84,
          "velocity": 0.3937007874015748
        },
        {
          "duration": 0.046875,
          "durationTicks": 24,
          "midi": 45,
          "name": "A2",
          "ticks": 43008,
          "time": 84,
          "velocity": 0.3937007874015748
        },
        {
          "duration": 0.046875,
          "durationTicks": 24,
          "midi": 65,
          "name": "F4",
          "ticks": 43008,
          "time": 84,
          "velocity": 0.3937007874015748
        },
        {
          "duration": 0.046875,
          "durationTicks": 24,
          "midi": 65,
          "name": "F4",
          "ticks": 43008,
          "time": 84,
          "velocity": 0.3937007874015748
        },
        {
          "duration": 0.046875,
          "durationTicks": 24,
          "midi": 45,
          "name": "A2",
          "ticks": 43008,
          "time": 84,
          "velocity": 0.3937007874015748
        },
        {
          "duration": 0.046875,
          "durationTicks": 24,
          "midi": 77,
          "name": "F5",
          "ticks": 43008,
          "time": 84,
          "velocity": 0.3937007874015748
        },
        {
          "duration": 0.046875,
          "durationTicks": 24,
          "midi": 77,
          "name": "F5",
          "ticks": 43008,
          "time": 84,
          "velocity": 0.3937007874015748
        },
        {
          "duration": 0.046875,
          "durationTicks": 24,
          "midi": 77,
          "name": "F5",
          "ticks": 43008,
          "time": 84,
          "velocity": 0.3937007874015748
        },
        {
          "duration": 0.046875,
          "durationTicks": 24,
          "midi": 45,
          "name": "A2",
          "ticks": 43008,
          "time": 84,
          "velocity": 0.3937007874015748
        },
        {
          "duration": 0.046875,
          "durationTicks": 24,
          "midi": 65,
          "name": "F4",
          "ticks": 43008,
          "time": 84,
          "velocity": 0.3937007874015748
        },
        {
          "duration": 0.046875,
          "durationTicks": 24,
          "midi": 65,
          "name": "F4",
          "ticks": 43008,
          "time": 84,
          "velocity": 0.3937007874015748
        },
        {
          "duration": 0.046875,
          "durationTicks": 24,
          "midi": 33,
          "name": "A1",
          "ticks": 43008,
          "time": 84,
          "velocity": 0.3937007874015748
        },
        {
          "duration": 0.046875,
          "durationTicks": 24,
          "midi": 65,
          "name": "F4",
          "ticks": 43008,
          "time": 84,
          "velocity": 0.3937007874015748
        },
        {
          "duration": 0.046875,
          "durationTicks": 24,
          "midi": 65,
          "name": "F4",
          "ticks": 43008,
          "time": 84,
          "velocity": 0.3937007874015748
        },
        {
          "duration": 0.046875,
          "durationTicks": 24,
          "midi": 77,
          "name": "F5",
          "ticks": 43008,
          "time": 84,
          "velocity": 0.3937007874015748
        },
        {
          "duration": 0.046875,
          "durationTicks": 24,
          "midi": 45,
          "name": "A2",
          "ticks": 43008,
          "time": 84,
          "velocity": 0.3937007874015748
        },
        {
          "duration": 0.046875,
          "durationTicks": 24,
          "midi": 65,
          "name": "F4",
          "ticks": 43032,
          "time": 84.046875,
          "velocity": 0.3937007874015748
        },
        {
          "duration": 0.046875,
          "durationTicks": 24,
          "midi": 65,
          "name": "F4",
          "ticks": 43032,
          "time": 84.046875,
          "velocity": 0.3937007874015748
        },
        {
          "duration": 0.046875,
          "durationTicks": 24,
          "midi": 33,
          "name": "A1",
          "ticks": 43032,
          "time": 84.046875,
          "velocity": 0.3937007874015748
        },
        {
          "duration": 0.046875,
          "durationTicks": 24,
          "midi": 65,
          "name": "F4",
          "ticks": 43032,
          "time": 84.046875,
          "velocity": 0.3937007874015748
        },
        {
          "duration": 0.046875,
          "durationTicks": 24,
          "midi": 77,
          "name": "F5",
          "ticks": 43032,
          "time": 84.046875,
          "velocity": 0.3937007874015748
        },
        {
          "duration": 0.046875,
          "durationTicks": 24,
          "midi": 33,
          "name": "A1",
          "ticks": 43032,
          "time": 84.046875,
          "velocity": 0.3937007874015748
        },
        {
          "duration": 0.046875,
          "durationTicks": 24,
          "midi": 77,
          "name": "F5",
          "ticks": 43032,
          "time": 84.046875,
          "velocity": 0.3937007874015748
        },
        {
          "duration": 0.046875,
          "durationTicks": 24,
          "midi": 77,
          "name": "F5",
          "ticks": 43032,
          "time": 84.046875,
          "velocity": 0.3937007874015748
        },
        {
          "duration": 0.046875,
          "durationTicks": 24,
          "midi": 65,
          "name": "F4",
          "ticks": 43032,
          "time": 84.046875,
          "velocity": 0.3937007874015748
        },
        {
          "duration": 0.046875,
          "durationTicks": 24,
          "midi": 45,
          "name": "A2",
          "ticks": 43032,
          "time": 84.046875,
          "velocity": 0.3937007874015748
        },
        {
          "duration": 0.046875,
          "durationTicks": 24,
          "midi": 45,
          "name": "A2",
          "ticks": 43032,
          "time": 84.046875,
          "velocity": 0.3937007874015748
        },
        {
          "duration": 0.046875,
          "durationTicks": 24,
          "midi": 45,
          "name": "A2",
          "ticks": 43032,
          "time": 84.046875,
          "velocity": 0.3937007874015748
        },
        {
          "duration": 0.046875,
          "durationTicks": 24,
          "midi": 33,
          "name": "A1",
          "ticks": 43032,
          "time": 84.046875,
          "velocity": 0.3937007874015748
        },
        {
          "duration": 0.046875,
          "durationTicks": 24,
          "midi": 33,
          "name": "A1",
          "ticks": 43032,
          "time": 84.046875,
          "velocity": 0.3937007874015748
        },
        {
          "duration": 0.046875,
          "durationTicks": 24,
          "midi": 65,
          "name": "F4",
          "ticks": 43032,
          "time": 84.046875,
          "velocity": 0.3937007874015748
        },
        {
          "duration": 0.046875,
          "durationTicks": 24,
          "midi": 65,
          "name": "F4",
          "ticks": 43032,
          "time": 84.046875,
          "velocity": 0.3937007874015748
        },
        {
          "duration": 0.046875,
          "durationTicks": 24,
          "midi": 77,
          "name": "F5",
          "ticks": 43032,
          "time": 84.046875,
          "velocity": 0.3937007874015748
        },
        {
          "duration": 0.046875,
          "durationTicks": 24,
          "midi": 45,
          "name": "A2",
          "ticks": 43032,
          "time": 84.046875,
          "velocity": 0.3937007874015748
        },
        {
          "duration": 0.046875,
          "durationTicks": 24,
          "midi": 33,
          "name": "A1",
          "ticks": 43032,
          "time": 84.046875,
          "velocity": 0.3937007874015748
        },
        {
          "duration": 0.046875,
          "durationTicks": 24,
          "midi": 77,
          "name": "F5",
          "ticks": 43032,
          "time": 84.046875,
          "velocity": 0.3937007874015748
        },
        {
          "duration": 0.046875,
          "durationTicks": 24,
          "midi": 77,
          "name": "F5",
          "ticks": 43032,
          "time": 84.046875,
          "velocity": 0.3937007874015748
        },
        {
          "duration": 0.046875,
          "durationTicks": 24,
          "midi": 45,
          "name": "A2",
          "ticks": 43032,
          "time": 84.046875,
          "velocity": 0.3937007874015748
        },
        {
          "duration": 0.046875,
          "durationTicks": 24,
          "midi": 45,
          "name": "A2",
          "ticks": 43032,
          "time": 84.046875,
          "velocity": 0.3937007874015748
        },
        {
          "duration": 0.046875,
          "durationTicks": 24,
          "midi": 33,
          "name": "A1",
          "ticks": 43032,
          "time": 84.046875,
          "velocity": 0.3937007874015748
        },
        {
          "duration": 0.046875,
          "durationTicks": 24,
          "midi": 45,
          "name": "A2",
          "ticks": 43056,
          "time": 84.09375,
          "velocity": 0.3937007874015748
        },
        {
          "duration": 0.046875,
          "durationTicks": 24,
          "midi": 33,
          "name": "A1",
          "ticks": 43056,
          "time": 84.09375,
          "velocity": 0.3937007874015748
        },
        {
          "duration": 0.046875,
          "durationTicks": 24,
          "midi": 65,
          "name": "F4",
          "ticks": 43056,
          "time": 84.09375,
          "velocity": 0.3937007874015748
        },
        {
          "duration": 0.046875,
          "durationTicks": 24,
          "midi": 77,
          "name": "F5",
          "ticks": 43056,
          "time": 84.09375,
          "velocity": 0.3937007874015748
        },
        {
          "duration": 0.046875,
          "durationTicks": 24,
          "midi": 33,
          "name": "A1",
          "ticks": 43056,
          "time": 84.09375,
          "velocity": 0.3937007874015748
        },
        {
          "duration": 0.046875,
          "durationTicks": 24,
          "midi": 65,
          "name": "F4",
          "ticks": 43056,
          "time": 84.09375,
          "velocity": 0.3937007874015748
        },
        {
          "duration": 0.046875,
          "durationTicks": 24,
          "midi": 77,
          "name": "F5",
          "ticks": 43056,
          "time": 84.09375,
          "velocity": 0.3937007874015748
        },
        {
          "duration": 0.046875,
          "durationTicks": 24,
          "midi": 65,
          "name": "F4",
          "ticks": 43056,
          "time": 84.09375,
          "velocity": 0.3937007874015748
        },
        {
          "duration": 0.046875,
          "durationTicks": 24,
          "midi": 45,
          "name": "A2",
          "ticks": 43056,
          "time": 84.09375,
          "velocity": 0.3937007874015748
        },
        {
          "duration": 0.046875,
          "durationTicks": 24,
          "midi": 33,
          "name": "A1",
          "ticks": 43056,
          "time": 84.09375,
          "velocity": 0.3937007874015748
        },
        {
          "duration": 0.046875,
          "durationTicks": 24,
          "midi": 77,
          "name": "F5",
          "ticks": 43056,
          "time": 84.09375,
          "velocity": 0.3937007874015748
        },
        {
          "duration": 0.046875,
          "durationTicks": 24,
          "midi": 65,
          "name": "F4",
          "ticks": 43056,
          "time": 84.09375,
          "velocity": 0.3937007874015748
        },
        {
          "duration": 0.046875,
          "durationTicks": 24,
          "midi": 45,
          "name": "A2",
          "ticks": 43056,
          "time": 84.09375,
          "velocity": 0.3937007874015748
        },
        {
          "duration": 0.046875,
          "durationTicks": 24,
          "midi": 65,
          "name": "F4",
          "ticks": 43056,
          "time": 84.09375,
          "velocity": 0.3937007874015748
        },
        {
          "duration": 0.046875,
          "durationTicks": 24,
          "midi": 45,
          "name": "A2",
          "ticks": 43056,
          "time": 84.09375,
          "velocity": 0.3937007874015748
        },
        {
          "duration": 0.046875,
          "durationTicks": 24,
          "midi": 65,
          "name": "F4",
          "ticks": 43056,
          "time": 84.09375,
          "velocity": 0.3937007874015748
        },
        {
          "duration": 0.046875,
          "durationTicks": 24,
          "midi": 33,
          "name": "A1",
          "ticks": 43056,
          "time": 84.09375,
          "velocity": 0.3937007874015748
        },
        {
          "duration": 0.046875,
          "durationTicks": 24,
          "midi": 77,
          "name": "F5",
          "ticks": 43056,
          "time": 84.09375,
          "velocity": 0.3937007874015748
        },
        {
          "duration": 0.046875,
          "durationTicks": 24,
          "midi": 77,
          "name": "F5",
          "ticks": 43056,
          "time": 84.09375,
          "velocity": 0.3937007874015748
        },
        {
          "duration": 0.046875,
          "durationTicks": 24,
          "midi": 77,
          "name": "F5",
          "ticks": 43056,
          "time": 84.09375,
          "velocity": 0.3937007874015748
        },
        {
          "duration": 0.046875,
          "durationTicks": 24,
          "midi": 33,
          "name": "A1",
          "ticks": 43056,
          "time": 84.09375,
          "velocity": 0.3937007874015748
        },
        {
          "duration": 0.046875,
          "durationTicks": 24,
          "midi": 45,
          "name": "A2",
          "ticks": 43056,
          "time": 84.09375,
          "velocity": 0.3937007874015748
        },
        {
          "duration": 0.046875,
          "durationTicks": 24,
          "midi": 33,
          "name": "A1",
          "ticks": 43056,
          "time": 84.09375,
          "velocity": 0.3937007874015748
        },
        {
          "duration": 0.046875,
          "durationTicks": 24,
          "midi": 45,
          "name": "A2",
          "ticks": 43056,
          "time": 84.09375,
          "velocity": 0.3937007874015748
        },
        {
          "duration": 0.046875,
          "durationTicks": 24,
          "midi": 45,
          "name": "A2",
          "ticks": 43080,
          "time": 84.140625,
          "velocity": 0.3937007874015748
        },
        {
          "duration": 0.046875,
          "durationTicks": 24,
          "midi": 65,
          "name": "F4",
          "ticks": 43080,
          "time": 84.140625,
          "velocity": 0.3937007874015748
        },
        {
          "duration": 0.046875,
          "durationTicks": 24,
          "midi": 33,
          "name": "A1",
          "ticks": 43080,
          "time": 84.140625,
          "velocity": 0.3937007874015748
        },
        {
          "duration": 0.046875,
          "durationTicks": 24,
          "midi": 65,
          "name": "F4",
          "ticks": 43080,
          "time": 84.140625,
          "velocity": 0.3937007874015748
        },
        {
          "duration": 0.046875,
          "durationTicks": 24,
          "midi": 45,
          "name": "A2",
          "ticks": 43080,
          "time": 84.140625,
          "velocity": 0.3937007874015748
        },
        {
          "duration": 0.046875,
          "durationTicks": 24,
          "midi": 77,
          "name": "F5",
          "ticks": 43080,
          "time": 84.140625,
          "velocity": 0.3937007874015748
        },
        {
          "duration": 0.046875,
          "durationTicks": 24,
          "midi": 77,
          "name": "F5",
          "ticks": 43080,
          "time": 84.140625,
          "velocity": 0.3937007874015748
        },
        {
          "duration": 0.046875,
          "durationTicks": 24,
          "midi": 77,
          "name": "F5",
          "ticks": 43080,
          "time": 84.140625,
          "velocity": 0.3937007874015748
        },
        {
          "duration": 0.046875,
          "durationTicks": 24,
          "midi": 65,
          "name": "F4",
          "ticks": 43080,
          "time": 84.140625,
          "velocity": 0.3937007874015748
        },
        {
          "duration": 0.046875,
          "durationTicks": 24,
          "midi": 33,
          "name": "A1",
          "ticks": 43080,
          "time": 84.140625,
          "velocity": 0.3937007874015748
        },
        {
          "duration": 0.046875,
          "durationTicks": 24,
          "midi": 65,
          "name": "F4",
          "ticks": 43080,
          "time": 84.140625,
          "velocity": 0.3937007874015748
        },
        {
          "duration": 0.046875,
          "durationTicks": 24,
          "midi": 33,
          "name": "A1",
          "ticks": 43080,
          "time": 84.140625,
          "velocity": 0.3937007874015748
        },
        {
          "duration": 0.046875,
          "durationTicks": 24,
          "midi": 45,
          "name": "A2",
          "ticks": 43080,
          "time": 84.140625,
          "velocity": 0.3937007874015748
        },
        {
          "duration": 0.046875,
          "durationTicks": 24,
          "midi": 45,
          "name": "A2",
          "ticks": 43080,
          "time": 84.140625,
          "velocity": 0.3937007874015748
        },
        {
          "duration": 0.046875,
          "durationTicks": 24,
          "midi": 65,
          "name": "F4",
          "ticks": 43080,
          "time": 84.140625,
          "velocity": 0.3937007874015748
        },
        {
          "duration": 0.046875,
          "durationTicks": 24,
          "midi": 33,
          "name": "A1",
          "ticks": 43080,
          "time": 84.140625,
          "velocity": 0.3937007874015748
        },
        {
          "duration": 0.046875,
          "durationTicks": 24,
          "midi": 65,
          "name": "F4",
          "ticks": 43080,
          "time": 84.140625,
          "velocity": 0.3937007874015748
        },
        {
          "duration": 0.046875,
          "durationTicks": 24,
          "midi": 77,
          "name": "F5",
          "ticks": 43080,
          "time": 84.140625,
          "velocity": 0.3937007874015748
        },
        {
          "duration": 0.046875,
          "durationTicks": 24,
          "midi": 33,
          "name": "A1",
          "ticks": 43080,
          "time": 84.140625,
          "velocity": 0.3937007874015748
        },
        {
          "duration": 0.046875,
          "durationTicks": 24,
          "midi": 45,
          "name": "A2",
          "ticks": 43080,
          "time": 84.140625,
          "velocity": 0.3937007874015748
        },
        {
          "duration": 0.046875,
          "durationTicks": 24,
          "midi": 45,
          "name": "A2",
          "ticks": 43080,
          "time": 84.140625,
          "velocity": 0.3937007874015748
        },
        {
          "duration": 0.046875,
          "durationTicks": 24,
          "midi": 33,
          "name": "A1",
          "ticks": 43080,
          "time": 84.140625,
          "velocity": 0.3937007874015748
        },
        {
          "duration": 0.046875,
          "durationTicks": 24,
          "midi": 77,
          "name": "F5",
          "ticks": 43080,
          "time": 84.140625,
          "velocity": 0.3937007874015748
        },
        {
          "duration": 0.046875,
          "durationTicks": 24,
          "midi": 77,
          "name": "F5",
          "ticks": 43080,
          "time": 84.140625,
          "velocity": 0.3937007874015748
        },
        {
          "duration": 0.046875,
          "durationTicks": 24,
          "midi": 77,
          "name": "F5",
          "ticks": 43104,
          "time": 84.1875,
          "velocity": 0.3937007874015748
        },
        {
          "duration": 0.046875,
          "durationTicks": 24,
          "midi": 65,
          "name": "F4",
          "ticks": 43104,
          "time": 84.1875,
          "velocity": 0.3937007874015748
        },
        {
          "duration": 0.046875,
          "durationTicks": 24,
          "midi": 65,
          "name": "F4",
          "ticks": 43104,
          "time": 84.1875,
          "velocity": 0.3937007874015748
        },
        {
          "duration": 0.046875,
          "durationTicks": 24,
          "midi": 77,
          "name": "F5",
          "ticks": 43104,
          "time": 84.1875,
          "velocity": 0.3937007874015748
        },
        {
          "duration": 0.046875,
          "durationTicks": 24,
          "midi": 33,
          "name": "A1",
          "ticks": 43104,
          "time": 84.1875,
          "velocity": 0.3937007874015748
        },
        {
          "duration": 0.046875,
          "durationTicks": 24,
          "midi": 45,
          "name": "A2",
          "ticks": 43104,
          "time": 84.1875,
          "velocity": 0.3937007874015748
        },
        {
          "duration": 0.046875,
          "durationTicks": 24,
          "midi": 65,
          "name": "F4",
          "ticks": 43104,
          "time": 84.1875,
          "velocity": 0.3937007874015748
        },
        {
          "duration": 0.046875,
          "durationTicks": 24,
          "midi": 33,
          "name": "A1",
          "ticks": 43104,
          "time": 84.1875,
          "velocity": 0.3937007874015748
        },
        {
          "duration": 0.046875,
          "durationTicks": 24,
          "midi": 45,
          "name": "A2",
          "ticks": 43104,
          "time": 84.1875,
          "velocity": 0.3937007874015748
        },
        {
          "duration": 0.046875,
          "durationTicks": 24,
          "midi": 77,
          "name": "F5",
          "ticks": 43104,
          "time": 84.1875,
          "velocity": 0.3937007874015748
        },
        {
          "duration": 0.046875,
          "durationTicks": 24,
          "midi": 45,
          "name": "A2",
          "ticks": 43104,
          "time": 84.1875,
          "velocity": 0.3937007874015748
        },
        {
          "duration": 0.046875,
          "durationTicks": 24,
          "midi": 45,
          "name": "A2",
          "ticks": 43104,
          "time": 84.1875,
          "velocity": 0.3937007874015748
        },
        {
          "duration": 0.046875,
          "durationTicks": 24,
          "midi": 33,
          "name": "A1",
          "ticks": 43104,
          "time": 84.1875,
          "velocity": 0.3937007874015748
        },
        {
          "duration": 0.046875,
          "durationTicks": 24,
          "midi": 65,
          "name": "F4",
          "ticks": 43104,
          "time": 84.1875,
          "velocity": 0.3937007874015748
        },
        {
          "duration": 0.046875,
          "durationTicks": 24,
          "midi": 33,
          "name": "A1",
          "ticks": 43104,
          "time": 84.1875,
          "velocity": 0.3937007874015748
        },
        {
          "duration": 0.046875,
          "durationTicks": 24,
          "midi": 77,
          "name": "F5",
          "ticks": 43104,
          "time": 84.1875,
          "velocity": 0.3937007874015748
        },
        {
          "duration": 0.046875,
          "durationTicks": 24,
          "midi": 65,
          "name": "F4",
          "ticks": 43128,
          "time": 84.234375,
          "velocity": 0.3937007874015748
        },
        {
          "duration": 0.046875,
          "durationTicks": 24,
          "midi": 33,
          "name": "A1",
          "ticks": 43128,
          "time": 84.234375,
          "velocity": 0.3937007874015748
        },
        {
          "duration": 0.046875,
          "durationTicks": 24,
          "midi": 65,
          "name": "F4",
          "ticks": 43128,
          "time": 84.234375,
          "velocity": 0.3937007874015748
        },
        {
          "duration": 0.046875,
          "durationTicks": 24,
          "midi": 45,
          "name": "A2",
          "ticks": 43128,
          "time": 84.234375,
          "velocity": 0.3937007874015748
        },
        {
          "duration": 0.046875,
          "durationTicks": 24,
          "midi": 65,
          "name": "F4",
          "ticks": 43128,
          "time": 84.234375,
          "velocity": 0.3937007874015748
        },
        {
          "duration": 0.046875,
          "durationTicks": 24,
          "midi": 33,
          "name": "A1",
          "ticks": 43128,
          "time": 84.234375,
          "velocity": 0.3937007874015748
        },
        {
          "duration": 0.046875,
          "durationTicks": 24,
          "midi": 77,
          "name": "F5",
          "ticks": 43128,
          "time": 84.234375,
          "velocity": 0.3937007874015748
        },
        {
          "duration": 0.046875,
          "durationTicks": 24,
          "midi": 77,
          "name": "F5",
          "ticks": 43128,
          "time": 84.234375,
          "velocity": 0.3937007874015748
        },
        {
          "duration": 0.046875,
          "durationTicks": 24,
          "midi": 33,
          "name": "A1",
          "ticks": 43128,
          "time": 84.234375,
          "velocity": 0.3937007874015748
        },
        {
          "duration": 0.046875,
          "durationTicks": 24,
          "midi": 45,
          "name": "A2",
          "ticks": 43128,
          "time": 84.234375,
          "velocity": 0.3937007874015748
        },
        {
          "duration": 0.046875,
          "durationTicks": 24,
          "midi": 77,
          "name": "F5",
          "ticks": 43128,
          "time": 84.234375,
          "velocity": 0.3937007874015748
        },
        {
          "duration": 0.046875,
          "durationTicks": 24,
          "midi": 77,
          "name": "F5",
          "ticks": 43128,
          "time": 84.234375,
          "velocity": 0.3937007874015748
        },
        {
          "duration": 0.046875,
          "durationTicks": 24,
          "midi": 65,
          "name": "F4",
          "ticks": 43128,
          "time": 84.234375,
          "velocity": 0.3937007874015748
        },
        {
          "duration": 0.046875,
          "durationTicks": 24,
          "midi": 45,
          "name": "A2",
          "ticks": 43128,
          "time": 84.234375,
          "velocity": 0.3937007874015748
        },
        {
          "duration": 0.046875,
          "durationTicks": 24,
          "midi": 33,
          "name": "A1",
          "ticks": 43128,
          "time": 84.234375,
          "velocity": 0.3937007874015748
        },
        {
          "duration": 0.046875,
          "durationTicks": 24,
          "midi": 45,
          "name": "A2",
          "ticks": 43128,
          "time": 84.234375,
          "velocity": 0.3937007874015748
        },
        {
          "duration": 0.046875,
          "durationTicks": 24,
          "midi": 65,
          "name": "F4",
          "ticks": 43152,
          "time": 84.28125,
          "velocity": 0.3937007874015748
        },
        {
          "duration": 0.046875,
          "durationTicks": 24,
          "midi": 77,
          "name": "F5",
          "ticks": 43152,
          "time": 84.28125,
          "velocity": 0.3937007874015748
        },
        {
          "duration": 0.046875,
          "durationTicks": 24,
          "midi": 33,
          "name": "A1",
          "ticks": 43152,
          "time": 84.28125,
          "velocity": 0.3937007874015748
        },
        {
          "duration": 0.046875,
          "durationTicks": 24,
          "midi": 77,
          "name": "F5",
          "ticks": 43152,
          "time": 84.28125,
          "velocity": 0.3937007874015748
        },
        {
          "duration": 0.046875,
          "durationTicks": 24,
          "midi": 65,
          "name": "F4",
          "ticks": 43152,
          "time": 84.28125,
          "velocity": 0.3937007874015748
        },
        {
          "duration": 0.046875,
          "durationTicks": 24,
          "midi": 77,
          "name": "F5",
          "ticks": 43152,
          "time": 84.28125,
          "velocity": 0.3937007874015748
        },
        {
          "duration": 0.046875,
          "durationTicks": 24,
          "midi": 45,
          "name": "A2",
          "ticks": 43152,
          "time": 84.28125,
          "velocity": 0.3937007874015748
        },
        {
          "duration": 0.046875,
          "durationTicks": 24,
          "midi": 65,
          "name": "F4",
          "ticks": 43152,
          "time": 84.28125,
          "velocity": 0.3937007874015748
        },
        {
          "duration": 0.046875,
          "durationTicks": 24,
          "midi": 33,
          "name": "A1",
          "ticks": 43152,
          "time": 84.28125,
          "velocity": 0.3937007874015748
        },
        {
          "duration": 0.046875,
          "durationTicks": 24,
          "midi": 45,
          "name": "A2",
          "ticks": 43152,
          "time": 84.28125,
          "velocity": 0.3937007874015748
        },
        {
          "duration": 0.046875,
          "durationTicks": 24,
          "midi": 45,
          "name": "A2",
          "ticks": 43152,
          "time": 84.28125,
          "velocity": 0.3937007874015748
        },
        {
          "duration": 0.046875,
          "durationTicks": 24,
          "midi": 65,
          "name": "F4",
          "ticks": 43152,
          "time": 84.28125,
          "velocity": 0.3937007874015748
        },
        {
          "duration": 0.046875,
          "durationTicks": 24,
          "midi": 33,
          "name": "A1",
          "ticks": 43152,
          "time": 84.28125,
          "velocity": 0.3937007874015748
        },
        {
          "duration": 0.046875,
          "durationTicks": 24,
          "midi": 33,
          "name": "A1",
          "ticks": 43152,
          "time": 84.28125,
          "velocity": 0.3937007874015748
        },
        {
          "duration": 0.046875,
          "durationTicks": 24,
          "midi": 45,
          "name": "A2",
          "ticks": 43152,
          "time": 84.28125,
          "velocity": 0.3937007874015748
        },
        {
          "duration": 0.046875,
          "durationTicks": 24,
          "midi": 77,
          "name": "F5",
          "ticks": 43152,
          "time": 84.28125,
          "velocity": 0.3937007874015748
        },
        {
          "duration": 0.046875,
          "durationTicks": 24,
          "midi": 45,
          "name": "A2",
          "ticks": 43176,
          "time": 84.328125,
          "velocity": 0.3937007874015748
        },
        {
          "duration": 0.046875,
          "durationTicks": 24,
          "midi": 33,
          "name": "A1",
          "ticks": 43176,
          "time": 84.328125,
          "velocity": 0.3937007874015748
        },
        {
          "duration": 0.046875,
          "durationTicks": 24,
          "midi": 77,
          "name": "F5",
          "ticks": 43176,
          "time": 84.328125,
          "velocity": 0.3937007874015748
        },
        {
          "duration": 0.046875,
          "durationTicks": 24,
          "midi": 45,
          "name": "A2",
          "ticks": 43176,
          "time": 84.328125,
          "velocity": 0.3937007874015748
        },
        {
          "duration": 0.046875,
          "durationTicks": 24,
          "midi": 33,
          "name": "A1",
          "ticks": 43176,
          "time": 84.328125,
          "velocity": 0.3937007874015748
        },
        {
          "duration": 0.046875,
          "durationTicks": 24,
          "midi": 33,
          "name": "A1",
          "ticks": 43176,
          "time": 84.328125,
          "velocity": 0.3937007874015748
        },
        {
          "duration": 0.046875,
          "durationTicks": 24,
          "midi": 65,
          "name": "F4",
          "ticks": 43176,
          "time": 84.328125,
          "velocity": 0.3937007874015748
        },
        {
          "duration": 0.046875,
          "durationTicks": 24,
          "midi": 65,
          "name": "F4",
          "ticks": 43176,
          "time": 84.328125,
          "velocity": 0.3937007874015748
        },
        {
          "duration": 0.046875,
          "durationTicks": 24,
          "midi": 77,
          "name": "F5",
          "ticks": 43176,
          "time": 84.328125,
          "velocity": 0.3937007874015748
        },
        {
          "duration": 0.046875,
          "durationTicks": 24,
          "midi": 65,
          "name": "F4",
          "ticks": 43176,
          "time": 84.328125,
          "velocity": 0.3937007874015748
        },
        {
          "duration": 0.046875,
          "durationTicks": 24,
          "midi": 45,
          "name": "A2",
          "ticks": 43176,
          "time": 84.328125,
          "velocity": 0.3937007874015748
        },
        {
          "duration": 0.046875,
          "durationTicks": 24,
          "midi": 33,
          "name": "A1",
          "ticks": 43176,
          "time": 84.328125,
          "velocity": 0.3937007874015748
        },
        {
          "duration": 0.046875,
          "durationTicks": 24,
          "midi": 45,
          "name": "A2",
          "ticks": 43176,
          "time": 84.328125,
          "velocity": 0.3937007874015748
        },
        {
          "duration": 0.046875,
          "durationTicks": 24,
          "midi": 77,
          "name": "F5",
          "ticks": 43176,
          "time": 84.328125,
          "velocity": 0.3937007874015748
        },
        {
          "duration": 0.046875,
          "durationTicks": 24,
          "midi": 65,
          "name": "F4",
          "ticks": 43176,
          "time": 84.328125,
          "velocity": 0.3937007874015748
        },
        {
          "duration": 0.046875,
          "durationTicks": 24,
          "midi": 77,
          "name": "F5",
          "ticks": 43176,
          "time": 84.328125,
          "velocity": 0.3937007874015748
        },
        {
          "duration": 0.046875,
          "durationTicks": 24,
          "midi": 33,
          "name": "A1",
          "ticks": 43200,
          "time": 84.375,
          "velocity": 0.3937007874015748
        },
        {
          "duration": 0.046875,
          "durationTicks": 24,
          "midi": 45,
          "name": "A2",
          "ticks": 43200,
          "time": 84.375,
          "velocity": 0.3937007874015748
        },
        {
          "duration": 0.046875,
          "durationTicks": 24,
          "midi": 77,
          "name": "F5",
          "ticks": 43200,
          "time": 84.375,
          "velocity": 0.3937007874015748
        },
        {
          "duration": 0.046875,
          "durationTicks": 24,
          "midi": 33,
          "name": "A1",
          "ticks": 43200,
          "time": 84.375,
          "velocity": 0.3937007874015748
        },
        {
          "duration": 0.046875,
          "durationTicks": 24,
          "midi": 45,
          "name": "A2",
          "ticks": 43200,
          "time": 84.375,
          "velocity": 0.3937007874015748
        },
        {
          "duration": 0.046875,
          "durationTicks": 24,
          "midi": 65,
          "name": "F4",
          "ticks": 43200,
          "time": 84.375,
          "velocity": 0.3937007874015748
        },
        {
          "duration": 0.046875,
          "durationTicks": 24,
          "midi": 65,
          "name": "F4",
          "ticks": 43200,
          "time": 84.375,
          "velocity": 0.3937007874015748
        },
        {
          "duration": 0.046875,
          "durationTicks": 24,
          "midi": 45,
          "name": "A2",
          "ticks": 43200,
          "time": 84.375,
          "velocity": 0.3937007874015748
        },
        {
          "duration": 0.046875,
          "durationTicks": 24,
          "midi": 77,
          "name": "F5",
          "ticks": 43200,
          "time": 84.375,
          "velocity": 0.3937007874015748
        },
        {
          "duration": 0.046875,
          "durationTicks": 24,
          "midi": 33,
          "name": "A1",
          "ticks": 43200,
          "time": 84.375,
          "velocity": 0.3937007874015748
        },
        {
          "duration": 0.046875,
          "durationTicks": 24,
          "midi": 65,
          "name": "F4",
          "ticks": 43200,
          "time": 84.375,
          "velocity": 0.3937007874015748
        },
        {
          "duration": 0.046875,
          "durationTicks": 24,
          "midi": 65,
          "name": "F4",
          "ticks": 43200,
          "time": 84.375,
          "velocity": 0.3937007874015748
        },
        {
          "duration": 0.046875,
          "durationTicks": 24,
          "midi": 33,
          "name": "A1",
          "ticks": 43200,
          "time": 84.375,
          "velocity": 0.3937007874015748
        },
        {
          "duration": 0.046875,
          "durationTicks": 24,
          "midi": 45,
          "name": "A2",
          "ticks": 43200,
          "time": 84.375,
          "velocity": 0.3937007874015748
        },
        {
          "duration": 0.046875,
          "durationTicks": 24,
          "midi": 77,
          "name": "F5",
          "ticks": 43200,
          "time": 84.375,
          "velocity": 0.3937007874015748
        },
        {
          "duration": 0.046875,
          "durationTicks": 24,
          "midi": 77,
          "name": "F5",
          "ticks": 43200,
          "time": 84.375,
          "velocity": 0.3937007874015748
        },
        {
          "duration": 0.046875,
          "durationTicks": 24,
          "midi": 65,
          "name": "F4",
          "ticks": 43224,
          "time": 84.421875,
          "velocity": 0.3937007874015748
        },
        {
          "duration": 0.046875,
          "durationTicks": 24,
          "midi": 65,
          "name": "F4",
          "ticks": 43224,
          "time": 84.421875,
          "velocity": 0.3937007874015748
        },
        {
          "duration": 0.046875,
          "durationTicks": 24,
          "midi": 77,
          "name": "F5",
          "ticks": 43224,
          "time": 84.421875,
          "velocity": 0.3937007874015748
        },
        {
          "duration": 0.046875,
          "durationTicks": 24,
          "midi": 65,
          "name": "F4",
          "ticks": 43224,
          "time": 84.421875,
          "velocity": 0.3937007874015748
        },
        {
          "duration": 0.046875,
          "durationTicks": 24,
          "midi": 33,
          "name": "A1",
          "ticks": 43224,
          "time": 84.421875,
          "velocity": 0.3937007874015748
        },
        {
          "duration": 0.046875,
          "durationTicks": 24,
          "midi": 77,
          "name": "F5",
          "ticks": 43224,
          "time": 84.421875,
          "velocity": 0.3937007874015748
        },
        {
          "duration": 0.046875,
          "durationTicks": 24,
          "midi": 33,
          "name": "A1",
          "ticks": 43224,
          "time": 84.421875,
          "velocity": 0.3937007874015748
        },
        {
          "duration": 0.046875,
          "durationTicks": 24,
          "midi": 65,
          "name": "F4",
          "ticks": 43224,
          "time": 84.421875,
          "velocity": 0.3937007874015748
        },
        {
          "duration": 0.046875,
          "durationTicks": 24,
          "midi": 45,
          "name": "A2",
          "ticks": 43224,
          "time": 84.421875,
          "velocity": 0.3937007874015748
        },
        {
          "duration": 0.046875,
          "durationTicks": 24,
          "midi": 33,
          "name": "A1",
          "ticks": 43224,
          "time": 84.421875,
          "velocity": 0.3937007874015748
        },
        {
          "duration": 0.046875,
          "durationTicks": 24,
          "midi": 33,
          "name": "A1",
          "ticks": 43224,
          "time": 84.421875,
          "velocity": 0.3937007874015748
        },
        {
          "duration": 0.046875,
          "durationTicks": 24,
          "midi": 77,
          "name": "F5",
          "ticks": 43224,
          "time": 84.421875,
          "velocity": 0.3937007874015748
        },
        {
          "duration": 0.046875,
          "durationTicks": 24,
          "midi": 77,
          "name": "F5",
          "ticks": 43224,
          "time": 84.421875,
          "velocity": 0.3937007874015748
        },
        {
          "duration": 0.046875,
          "durationTicks": 24,
          "midi": 45,
          "name": "A2",
          "ticks": 43224,
          "time": 84.421875,
          "velocity": 0.3937007874015748
        },
        {
          "duration": 0.046875,
          "durationTicks": 24,
          "midi": 45,
          "name": "A2",
          "ticks": 43224,
          "time": 84.421875,
          "velocity": 0.3937007874015748
        },
        {
          "duration": 0.046875,
          "durationTicks": 24,
          "midi": 45,
          "name": "A2",
          "ticks": 43224,
          "time": 84.421875,
          "velocity": 0.3937007874015748
        },
        {
          "duration": 0.046875,
          "durationTicks": 24,
          "midi": 45,
          "name": "A2",
          "ticks": 43248,
          "time": 84.46875,
          "velocity": 0.3937007874015748
        },
        {
          "duration": 0.046875,
          "durationTicks": 24,
          "midi": 77,
          "name": "F5",
          "ticks": 43248,
          "time": 84.46875,
          "velocity": 0.3937007874015748
        },
        {
          "duration": 0.046875,
          "durationTicks": 24,
          "midi": 77,
          "name": "F5",
          "ticks": 43248,
          "time": 84.46875,
          "velocity": 0.3937007874015748
        },
        {
          "duration": 0.046875,
          "durationTicks": 24,
          "midi": 65,
          "name": "F4",
          "ticks": 43248,
          "time": 84.46875,
          "velocity": 0.3937007874015748
        },
        {
          "duration": 0.046875,
          "durationTicks": 24,
          "midi": 45,
          "name": "A2",
          "ticks": 43248,
          "time": 84.46875,
          "velocity": 0.3937007874015748
        },
        {
          "duration": 0.046875,
          "durationTicks": 24,
          "midi": 33,
          "name": "A1",
          "ticks": 43248,
          "time": 84.46875,
          "velocity": 0.3937007874015748
        },
        {
          "duration": 0.046875,
          "durationTicks": 24,
          "midi": 77,
          "name": "F5",
          "ticks": 43248,
          "time": 84.46875,
          "velocity": 0.3937007874015748
        },
        {
          "duration": 0.046875,
          "durationTicks": 24,
          "midi": 33,
          "name": "A1",
          "ticks": 43248,
          "time": 84.46875,
          "velocity": 0.3937007874015748
        },
        {
          "duration": 0.046875,
          "durationTicks": 24,
          "midi": 45,
          "name": "A2",
          "ticks": 43248,
          "time": 84.46875,
          "velocity": 0.3937007874015748
        },
        {
          "duration": 0.046875,
          "durationTicks": 24,
          "midi": 33,
          "name": "A1",
          "ticks": 43248,
          "time": 84.46875,
          "velocity": 0.3937007874015748
        },
        {
          "duration": 0.046875,
          "durationTicks": 24,
          "midi": 65,
          "name": "F4",
          "ticks": 43248,
          "time": 84.46875,
          "velocity": 0.3937007874015748
        },
        {
          "duration": 0.046875,
          "durationTicks": 24,
          "midi": 65,
          "name": "F4",
          "ticks": 43248,
          "time": 84.46875,
          "velocity": 0.3937007874015748
        },
        {
          "duration": 0.046875,
          "durationTicks": 24,
          "midi": 45,
          "name": "A2",
          "ticks": 43248,
          "time": 84.46875,
          "velocity": 0.3937007874015748
        },
        {
          "duration": 0.046875,
          "durationTicks": 24,
          "midi": 77,
          "name": "F5",
          "ticks": 43248,
          "time": 84.46875,
          "velocity": 0.3937007874015748
        },
        {
          "duration": 0.046875,
          "durationTicks": 24,
          "midi": 65,
          "name": "F4",
          "ticks": 43248,
          "time": 84.46875,
          "velocity": 0.3937007874015748
        },
        {
          "duration": 0.046875,
          "durationTicks": 24,
          "midi": 33,
          "name": "A1",
          "ticks": 43248,
          "time": 84.46875,
          "velocity": 0.3937007874015748
        },
        {
          "duration": 0.046875,
          "durationTicks": 24,
          "midi": 45,
          "name": "A2",
          "ticks": 43272,
          "time": 84.515625,
          "velocity": 0.3937007874015748
        },
        {
          "duration": 0.046875,
          "durationTicks": 24,
          "midi": 45,
          "name": "A2",
          "ticks": 43272,
          "time": 84.515625,
          "velocity": 0.3937007874015748
        },
        {
          "duration": 0.046875,
          "durationTicks": 24,
          "midi": 65,
          "name": "F4",
          "ticks": 43272,
          "time": 84.515625,
          "velocity": 0.3937007874015748
        },
        {
          "duration": 0.046875,
          "durationTicks": 24,
          "midi": 33,
          "name": "A1",
          "ticks": 43272,
          "time": 84.515625,
          "velocity": 0.3937007874015748
        },
        {
          "duration": 0.046875,
          "durationTicks": 24,
          "midi": 33,
          "name": "A1",
          "ticks": 43272,
          "time": 84.515625,
          "velocity": 0.3937007874015748
        },
        {
          "duration": 0.046875,
          "durationTicks": 24,
          "midi": 33,
          "name": "A1",
          "ticks": 43272,
          "time": 84.515625,
          "velocity": 0.3937007874015748
        },
        {
          "duration": 0.046875,
          "durationTicks": 24,
          "midi": 65,
          "name": "F4",
          "ticks": 43272,
          "time": 84.515625,
          "velocity": 0.3937007874015748
        },
        {
          "duration": 0.046875,
          "durationTicks": 24,
          "midi": 77,
          "name": "F5",
          "ticks": 43272,
          "time": 84.515625,
          "velocity": 0.3937007874015748
        },
        {
          "duration": 0.046875,
          "durationTicks": 24,
          "midi": 45,
          "name": "A2",
          "ticks": 43272,
          "time": 84.515625,
          "velocity": 0.3937007874015748
        },
        {
          "duration": 0.046875,
          "durationTicks": 24,
          "midi": 65,
          "name": "F4",
          "ticks": 43272,
          "time": 84.515625,
          "velocity": 0.3937007874015748
        },
        {
          "duration": 0.046875,
          "durationTicks": 24,
          "midi": 77,
          "name": "F5",
          "ticks": 43272,
          "time": 84.515625,
          "velocity": 0.3937007874015748
        },
        {
          "duration": 0.046875,
          "durationTicks": 24,
          "midi": 45,
          "name": "A2",
          "ticks": 43272,
          "time": 84.515625,
          "velocity": 0.3937007874015748
        },
        {
          "duration": 0.046875,
          "durationTicks": 24,
          "midi": 33,
          "name": "A1",
          "ticks": 43272,
          "time": 84.515625,
          "velocity": 0.3937007874015748
        },
        {
          "duration": 0.046875,
          "durationTicks": 24,
          "midi": 77,
          "name": "F5",
          "ticks": 43272,
          "time": 84.515625,
          "velocity": 0.3937007874015748
        },
        {
          "duration": 0.046875,
          "durationTicks": 24,
          "midi": 77,
          "name": "F5",
          "ticks": 43272,
          "time": 84.515625,
          "velocity": 0.3937007874015748
        },
        {
          "duration": 0.046875,
          "durationTicks": 24,
          "midi": 65,
          "name": "F4",
          "ticks": 43272,
          "time": 84.515625,
          "velocity": 0.3937007874015748
        },
        {
          "duration": 0.046875,
          "durationTicks": 24,
          "midi": 45,
          "name": "A2",
          "ticks": 43296,
          "time": 84.5625,
          "velocity": 0.3937007874015748
        },
        {
          "duration": 0.046875,
          "durationTicks": 24,
          "midi": 77,
          "name": "F5",
          "ticks": 43296,
          "time": 84.5625,
          "velocity": 0.3937007874015748
        },
        {
          "duration": 0.046875,
          "durationTicks": 24,
          "midi": 65,
          "name": "F4",
          "ticks": 43296,
          "time": 84.5625,
          "velocity": 0.3937007874015748
        },
        {
          "duration": 0.046875,
          "durationTicks": 24,
          "midi": 33,
          "name": "A1",
          "ticks": 43296,
          "time": 84.5625,
          "velocity": 0.3937007874015748
        },
        {
          "duration": 0.046875,
          "durationTicks": 24,
          "midi": 33,
          "name": "A1",
          "ticks": 43296,
          "time": 84.5625,
          "velocity": 0.3937007874015748
        },
        {
          "duration": 0.046875,
          "durationTicks": 24,
          "midi": 65,
          "name": "F4",
          "ticks": 43296,
          "time": 84.5625,
          "velocity": 0.3937007874015748
        },
        {
          "duration": 0.046875,
          "durationTicks": 24,
          "midi": 77,
          "name": "F5",
          "ticks": 43296,
          "time": 84.5625,
          "velocity": 0.3937007874015748
        },
        {
          "duration": 0.046875,
          "durationTicks": 24,
          "midi": 45,
          "name": "A2",
          "ticks": 43296,
          "time": 84.5625,
          "velocity": 0.3937007874015748
        },
        {
          "duration": 0.046875,
          "durationTicks": 24,
          "midi": 65,
          "name": "F4",
          "ticks": 43320,
          "time": 84.609375,
          "velocity": 0.3937007874015748
        },
        {
          "duration": 0.046875,
          "durationTicks": 24,
          "midi": 77,
          "name": "F5",
          "ticks": 43320,
          "time": 84.609375,
          "velocity": 0.3937007874015748
        },
        {
          "duration": 0.046875,
          "durationTicks": 24,
          "midi": 77,
          "name": "F5",
          "ticks": 43320,
          "time": 84.609375,
          "velocity": 0.3937007874015748
        },
        {
          "duration": 0.046875,
          "durationTicks": 24,
          "midi": 45,
          "name": "A2",
          "ticks": 43320,
          "time": 84.609375,
          "velocity": 0.3937007874015748
        },
        {
          "duration": 0.046875,
          "durationTicks": 24,
          "midi": 65,
          "name": "F4",
          "ticks": 43320,
          "time": 84.609375,
          "velocity": 0.3937007874015748
        },
        {
          "duration": 0.046875,
          "durationTicks": 24,
          "midi": 33,
          "name": "A1",
          "ticks": 43320,
          "time": 84.609375,
          "velocity": 0.3937007874015748
        },
        {
          "duration": 0.046875,
          "durationTicks": 24,
          "midi": 33,
          "name": "A1",
          "ticks": 43320,
          "time": 84.609375,
          "velocity": 0.3937007874015748
        },
        {
          "duration": 0.046875,
          "durationTicks": 24,
          "midi": 45,
          "name": "A2",
          "ticks": 43320,
          "time": 84.609375,
          "velocity": 0.3937007874015748
        },
        {
          "duration": 0.046875,
          "durationTicks": 24,
          "midi": 45,
          "name": "A2",
          "ticks": 43344,
          "time": 84.65625,
          "velocity": 0.3937007874015748
        },
        {
          "duration": 0.046875,
          "durationTicks": 24,
          "midi": 77,
          "name": "F5",
          "ticks": 43344,
          "time": 84.65625,
          "velocity": 0.3937007874015748
        },
        {
          "duration": 0.046875,
          "durationTicks": 24,
          "midi": 33,
          "name": "A1",
          "ticks": 43344,
          "time": 84.65625,
          "velocity": 0.3937007874015748
        },
        {
          "duration": 0.046875,
          "durationTicks": 24,
          "midi": 45,
          "name": "A2",
          "ticks": 43344,
          "time": 84.65625,
          "velocity": 0.3937007874015748
        },
        {
          "duration": 0.046875,
          "durationTicks": 24,
          "midi": 33,
          "name": "A1",
          "ticks": 43344,
          "time": 84.65625,
          "velocity": 0.3937007874015748
        },
        {
          "duration": 0.046875,
          "durationTicks": 24,
          "midi": 77,
          "name": "F5",
          "ticks": 43344,
          "time": 84.65625,
          "velocity": 0.3937007874015748
        },
        {
          "duration": 0.046875,
          "durationTicks": 24,
          "midi": 65,
          "name": "F4",
          "ticks": 43344,
          "time": 84.65625,
          "velocity": 0.3937007874015748
        },
        {
          "duration": 0.046875,
          "durationTicks": 24,
          "midi": 65,
          "name": "F4",
          "ticks": 43344,
          "time": 84.65625,
          "velocity": 0.3937007874015748
        },
        {
          "duration": 0.046875,
          "durationTicks": 24,
          "midi": 77,
          "name": "F5",
          "ticks": 43368,
          "time": 84.703125,
          "velocity": 0.3937007874015748
        },
        {
          "duration": 0.046875,
          "durationTicks": 24,
          "midi": 33,
          "name": "A1",
          "ticks": 43368,
          "time": 84.703125,
          "velocity": 0.3937007874015748
        },
        {
          "duration": 0.046875,
          "durationTicks": 24,
          "midi": 33,
          "name": "A1",
          "ticks": 43368,
          "time": 84.703125,
          "velocity": 0.3937007874015748
        },
        {
          "duration": 0.046875,
          "durationTicks": 24,
          "midi": 45,
          "name": "A2",
          "ticks": 43368,
          "time": 84.703125,
          "velocity": 0.3937007874015748
        },
        {
          "duration": 0.046875,
          "durationTicks": 24,
          "midi": 65,
          "name": "F4",
          "ticks": 43368,
          "time": 84.703125,
          "velocity": 0.3937007874015748
        },
        {
          "duration": 0.046875,
          "durationTicks": 24,
          "midi": 45,
          "name": "A2",
          "ticks": 43368,
          "time": 84.703125,
          "velocity": 0.3937007874015748
        },
        {
          "duration": 0.046875,
          "durationTicks": 24,
          "midi": 65,
          "name": "F4",
          "ticks": 43368,
          "time": 84.703125,
          "velocity": 0.3937007874015748
        },
        {
          "duration": 0.046875,
          "durationTicks": 24,
          "midi": 77,
          "name": "F5",
          "ticks": 43368,
          "time": 84.703125,
          "velocity": 0.3937007874015748
        },
        {
          "duration": 0.046875,
          "durationTicks": 24,
          "midi": 53,
          "name": "F3",
          "ticks": 43392,
          "time": 84.75,
          "velocity": 0.3937007874015748
        },
        {
          "duration": 0.046875,
          "durationTicks": 24,
          "midi": 77,
          "name": "F5",
          "ticks": 43392,
          "time": 84.75,
          "velocity": 0.3937007874015748
        },
        {
          "duration": 0.046875,
          "durationTicks": 24,
          "midi": 53,
          "name": "F3",
          "ticks": 43392,
          "time": 84.75,
          "velocity": 0.3937007874015748
        },
        {
          "duration": 0.046875,
          "durationTicks": 24,
          "midi": 57,
          "name": "A3",
          "ticks": 43392,
          "time": 84.75,
          "velocity": 0.3937007874015748
        },
        {
          "duration": 0.046875,
          "durationTicks": 24,
          "midi": 53,
          "name": "F3",
          "ticks": 43392,
          "time": 84.75,
          "velocity": 0.3937007874015748
        },
        {
          "duration": 0.046875,
          "durationTicks": 24,
          "midi": 57,
          "name": "A3",
          "ticks": 43392,
          "time": 84.75,
          "velocity": 0.3937007874015748
        },
        {
          "duration": 0.046875,
          "durationTicks": 24,
          "midi": 77,
          "name": "F5",
          "ticks": 43392,
          "time": 84.75,
          "velocity": 0.3937007874015748
        },
        {
          "duration": 0.046875,
          "durationTicks": 24,
          "midi": 57,
          "name": "A3",
          "ticks": 43392,
          "time": 84.75,
          "velocity": 0.3937007874015748
        },
        {
          "duration": 0.046875,
          "durationTicks": 24,
          "midi": 57,
          "name": "A3",
          "ticks": 43392,
          "time": 84.75,
          "velocity": 0.3937007874015748
        },
        {
          "duration": 0.046875,
          "durationTicks": 24,
          "midi": 53,
          "name": "F3",
          "ticks": 43392,
          "time": 84.75,
          "velocity": 0.3937007874015748
        },
        {
          "duration": 0.046875,
          "durationTicks": 24,
          "midi": 57,
          "name": "A3",
          "ticks": 43392,
          "time": 84.75,
          "velocity": 0.3937007874015748
        },
        {
          "duration": 0.046875,
          "durationTicks": 24,
          "midi": 53,
          "name": "F3",
          "ticks": 43392,
          "time": 84.75,
          "velocity": 0.3937007874015748
        },
        {
          "duration": 0.046875,
          "durationTicks": 24,
          "midi": 57,
          "name": "A3",
          "ticks": 43392,
          "time": 84.75,
          "velocity": 0.3937007874015748
        },
        {
          "duration": 0.046875,
          "durationTicks": 24,
          "midi": 65,
          "name": "F4",
          "ticks": 43392,
          "time": 84.75,
          "velocity": 0.3937007874015748
        },
        {
          "duration": 0.046875,
          "durationTicks": 24,
          "midi": 53,
          "name": "F3",
          "ticks": 43392,
          "time": 84.75,
          "velocity": 0.3937007874015748
        },
        {
          "duration": 0.046875,
          "durationTicks": 24,
          "midi": 65,
          "name": "F4",
          "ticks": 43392,
          "time": 84.75,
          "velocity": 0.3937007874015748
        },
        {
          "duration": 0.046875,
          "durationTicks": 24,
          "midi": 57,
          "name": "A3",
          "ticks": 43416,
          "time": 84.796875,
          "velocity": 0.3937007874015748
        },
        {
          "duration": 0.046875,
          "durationTicks": 24,
          "midi": 57,
          "name": "A3",
          "ticks": 43416,
          "time": 84.796875,
          "velocity": 0.3937007874015748
        },
        {
          "duration": 0.046875,
          "durationTicks": 24,
          "midi": 65,
          "name": "F4",
          "ticks": 43416,
          "time": 84.796875,
          "velocity": 0.3937007874015748
        },
        {
          "duration": 0.046875,
          "durationTicks": 24,
          "midi": 53,
          "name": "F3",
          "ticks": 43416,
          "time": 84.796875,
          "velocity": 0.3937007874015748
        },
        {
          "duration": 0.046875,
          "durationTicks": 24,
          "midi": 77,
          "name": "F5",
          "ticks": 43416,
          "time": 84.796875,
          "velocity": 0.3937007874015748
        },
        {
          "duration": 0.046875,
          "durationTicks": 24,
          "midi": 65,
          "name": "F4",
          "ticks": 43416,
          "time": 84.796875,
          "velocity": 0.3937007874015748
        },
        {
          "duration": 0.046875,
          "durationTicks": 24,
          "midi": 53,
          "name": "F3",
          "ticks": 43416,
          "time": 84.796875,
          "velocity": 0.3937007874015748
        },
        {
          "duration": 0.046875,
          "durationTicks": 24,
          "midi": 57,
          "name": "A3",
          "ticks": 43416,
          "time": 84.796875,
          "velocity": 0.3937007874015748
        },
        {
          "duration": 0.046875,
          "durationTicks": 24,
          "midi": 53,
          "name": "F3",
          "ticks": 43416,
          "time": 84.796875,
          "velocity": 0.3937007874015748
        },
        {
          "duration": 0.046875,
          "durationTicks": 24,
          "midi": 57,
          "name": "A3",
          "ticks": 43416,
          "time": 84.796875,
          "velocity": 0.3937007874015748
        },
        {
          "duration": 0.046875,
          "durationTicks": 24,
          "midi": 57,
          "name": "A3",
          "ticks": 43416,
          "time": 84.796875,
          "velocity": 0.3937007874015748
        },
        {
          "duration": 0.046875,
          "durationTicks": 24,
          "midi": 53,
          "name": "F3",
          "ticks": 43416,
          "time": 84.796875,
          "velocity": 0.3937007874015748
        },
        {
          "duration": 0.046875,
          "durationTicks": 24,
          "midi": 57,
          "name": "A3",
          "ticks": 43416,
          "time": 84.796875,
          "velocity": 0.3937007874015748
        },
        {
          "duration": 0.046875,
          "durationTicks": 24,
          "midi": 53,
          "name": "F3",
          "ticks": 43416,
          "time": 84.796875,
          "velocity": 0.3937007874015748
        },
        {
          "duration": 0.046875,
          "durationTicks": 24,
          "midi": 77,
          "name": "F5",
          "ticks": 43416,
          "time": 84.796875,
          "velocity": 0.3937007874015748
        },
        {
          "duration": 0.046875,
          "durationTicks": 24,
          "midi": 53,
          "name": "F3",
          "ticks": 43416,
          "time": 84.796875,
          "velocity": 0.3937007874015748
        },
        {
          "duration": 0.046875,
          "durationTicks": 24,
          "midi": 65,
          "name": "F4",
          "ticks": 43440,
          "time": 84.84375,
          "velocity": 0.3937007874015748
        },
        {
          "duration": 0.046875,
          "durationTicks": 24,
          "midi": 57,
          "name": "A3",
          "ticks": 43440,
          "time": 84.84375,
          "velocity": 0.3937007874015748
        },
        {
          "duration": 0.046875,
          "durationTicks": 24,
          "midi": 57,
          "name": "A3",
          "ticks": 43440,
          "time": 84.84375,
          "velocity": 0.3937007874015748
        },
        {
          "duration": 0.046875,
          "durationTicks": 24,
          "midi": 53,
          "name": "F3",
          "ticks": 43440,
          "time": 84.84375,
          "velocity": 0.3937007874015748
        },
        {
          "duration": 0.046875,
          "durationTicks": 24,
          "midi": 65,
          "name": "F4",
          "ticks": 43440,
          "time": 84.84375,
          "velocity": 0.3937007874015748
        },
        {
          "duration": 0.046875,
          "durationTicks": 24,
          "midi": 53,
          "name": "F3",
          "ticks": 43440,
          "time": 84.84375,
          "velocity": 0.3937007874015748
        },
        {
          "duration": 0.046875,
          "durationTicks": 24,
          "midi": 57,
          "name": "A3",
          "ticks": 43440,
          "time": 84.84375,
          "velocity": 0.3937007874015748
        },
        {
          "duration": 0.046875,
          "durationTicks": 24,
          "midi": 57,
          "name": "A3",
          "ticks": 43440,
          "time": 84.84375,
          "velocity": 0.3937007874015748
        },
        {
          "duration": 0.046875,
          "durationTicks": 24,
          "midi": 53,
          "name": "F3",
          "ticks": 43440,
          "time": 84.84375,
          "velocity": 0.3937007874015748
        },
        {
          "duration": 0.046875,
          "durationTicks": 24,
          "midi": 53,
          "name": "F3",
          "ticks": 43440,
          "time": 84.84375,
          "velocity": 0.3937007874015748
        },
        {
          "duration": 0.046875,
          "durationTicks": 24,
          "midi": 53,
          "name": "F3",
          "ticks": 43440,
          "time": 84.84375,
          "velocity": 0.3937007874015748
        },
        {
          "duration": 0.046875,
          "durationTicks": 24,
          "midi": 57,
          "name": "A3",
          "ticks": 43440,
          "time": 84.84375,
          "velocity": 0.3937007874015748
        },
        {
          "duration": 0.046875,
          "durationTicks": 24,
          "midi": 57,
          "name": "A3",
          "ticks": 43440,
          "time": 84.84375,
          "velocity": 0.3937007874015748
        },
        {
          "duration": 0.046875,
          "durationTicks": 24,
          "midi": 53,
          "name": "F3",
          "ticks": 43440,
          "time": 84.84375,
          "velocity": 0.3937007874015748
        },
        {
          "duration": 0.046875,
          "durationTicks": 24,
          "midi": 77,
          "name": "F5",
          "ticks": 43440,
          "time": 84.84375,
          "velocity": 0.3937007874015748
        },
        {
          "duration": 0.046875,
          "durationTicks": 24,
          "midi": 77,
          "name": "F5",
          "ticks": 43440,
          "time": 84.84375,
          "velocity": 0.3937007874015748
        },
        {
          "duration": 0.046875,
          "durationTicks": 24,
          "midi": 57,
          "name": "A3",
          "ticks": 43464,
          "time": 84.890625,
          "velocity": 0.3937007874015748
        },
        {
          "duration": 0.046875,
          "durationTicks": 24,
          "midi": 53,
          "name": "F3",
          "ticks": 43464,
          "time": 84.890625,
          "velocity": 0.3937007874015748
        },
        {
          "duration": 0.046875,
          "durationTicks": 24,
          "midi": 57,
          "name": "A3",
          "ticks": 43464,
          "time": 84.890625,
          "velocity": 0.3937007874015748
        },
        {
          "duration": 0.046875,
          "durationTicks": 24,
          "midi": 57,
          "name": "A3",
          "ticks": 43464,
          "time": 84.890625,
          "velocity": 0.3937007874015748
        },
        {
          "duration": 0.046875,
          "durationTicks": 24,
          "midi": 65,
          "name": "F4",
          "ticks": 43464,
          "time": 84.890625,
          "velocity": 0.3937007874015748
        },
        {
          "duration": 0.046875,
          "durationTicks": 24,
          "midi": 57,
          "name": "A3",
          "ticks": 43464,
          "time": 84.890625,
          "velocity": 0.3937007874015748
        },
        {
          "duration": 0.046875,
          "durationTicks": 24,
          "midi": 53,
          "name": "F3",
          "ticks": 43464,
          "time": 84.890625,
          "velocity": 0.3937007874015748
        },
        {
          "duration": 0.046875,
          "durationTicks": 24,
          "midi": 65,
          "name": "F4",
          "ticks": 43464,
          "time": 84.890625,
          "velocity": 0.3937007874015748
        },
        {
          "duration": 0.046875,
          "durationTicks": 24,
          "midi": 53,
          "name": "F3",
          "ticks": 43464,
          "time": 84.890625,
          "velocity": 0.3937007874015748
        },
        {
          "duration": 0.046875,
          "durationTicks": 24,
          "midi": 57,
          "name": "A3",
          "ticks": 43464,
          "time": 84.890625,
          "velocity": 0.3937007874015748
        },
        {
          "duration": 0.046875,
          "durationTicks": 24,
          "midi": 53,
          "name": "F3",
          "ticks": 43464,
          "time": 84.890625,
          "velocity": 0.3937007874015748
        },
        {
          "duration": 0.046875,
          "durationTicks": 24,
          "midi": 77,
          "name": "F5",
          "ticks": 43464,
          "time": 84.890625,
          "velocity": 0.3937007874015748
        },
        {
          "duration": 0.046875,
          "durationTicks": 24,
          "midi": 57,
          "name": "A3",
          "ticks": 43464,
          "time": 84.890625,
          "velocity": 0.3937007874015748
        },
        {
          "duration": 0.046875,
          "durationTicks": 24,
          "midi": 53,
          "name": "F3",
          "ticks": 43464,
          "time": 84.890625,
          "velocity": 0.3937007874015748
        },
        {
          "duration": 0.046875,
          "durationTicks": 24,
          "midi": 53,
          "name": "F3",
          "ticks": 43464,
          "time": 84.890625,
          "velocity": 0.3937007874015748
        },
        {
          "duration": 0.046875,
          "durationTicks": 24,
          "midi": 77,
          "name": "F5",
          "ticks": 43464,
          "time": 84.890625,
          "velocity": 0.3937007874015748
        },
        {
          "duration": 0.046875,
          "durationTicks": 24,
          "midi": 53,
          "name": "F3",
          "ticks": 43488,
          "time": 84.9375,
          "velocity": 0.3937007874015748
        },
        {
          "duration": 0.046875,
          "durationTicks": 24,
          "midi": 53,
          "name": "F3",
          "ticks": 43488,
          "time": 84.9375,
          "velocity": 0.3937007874015748
        },
        {
          "duration": 0.046875,
          "durationTicks": 24,
          "midi": 57,
          "name": "A3",
          "ticks": 43488,
          "time": 84.9375,
          "velocity": 0.3937007874015748
        },
        {
          "duration": 0.046875,
          "durationTicks": 24,
          "midi": 53,
          "name": "F3",
          "ticks": 43488,
          "time": 84.9375,
          "velocity": 0.3937007874015748
        },
        {
          "duration": 0.046875,
          "durationTicks": 24,
          "midi": 57,
          "name": "A3",
          "ticks": 43488,
          "time": 84.9375,
          "velocity": 0.3937007874015748
        },
        {
          "duration": 0.046875,
          "durationTicks": 24,
          "midi": 77,
          "name": "F5",
          "ticks": 43488,
          "time": 84.9375,
          "velocity": 0.3937007874015748
        },
        {
          "duration": 0.046875,
          "durationTicks": 24,
          "midi": 57,
          "name": "A3",
          "ticks": 43488,
          "time": 84.9375,
          "velocity": 0.3937007874015748
        },
        {
          "duration": 0.046875,
          "durationTicks": 24,
          "midi": 57,
          "name": "A3",
          "ticks": 43488,
          "time": 84.9375,
          "velocity": 0.3937007874015748
        },
        {
          "duration": 0.046875,
          "durationTicks": 24,
          "midi": 53,
          "name": "F3",
          "ticks": 43488,
          "time": 84.9375,
          "velocity": 0.3937007874015748
        },
        {
          "duration": 0.046875,
          "durationTicks": 24,
          "midi": 77,
          "name": "F5",
          "ticks": 43488,
          "time": 84.9375,
          "velocity": 0.3937007874015748
        },
        {
          "duration": 0.046875,
          "durationTicks": 24,
          "midi": 65,
          "name": "F4",
          "ticks": 43488,
          "time": 84.9375,
          "velocity": 0.3937007874015748
        },
        {
          "duration": 0.046875,
          "durationTicks": 24,
          "midi": 65,
          "name": "F4",
          "ticks": 43488,
          "time": 84.9375,
          "velocity": 0.3937007874015748
        },
        {
          "duration": 0.046875,
          "durationTicks": 24,
          "midi": 57,
          "name": "A3",
          "ticks": 43512,
          "time": 84.984375,
          "velocity": 0.3937007874015748
        },
        {
          "duration": 0.046875,
          "durationTicks": 24,
          "midi": 57,
          "name": "A3",
          "ticks": 43512,
          "time": 84.984375,
          "velocity": 0.3937007874015748
        },
        {
          "duration": 0.046875,
          "durationTicks": 24,
          "midi": 57,
          "name": "A3",
          "ticks": 43512,
          "time": 84.984375,
          "velocity": 0.3937007874015748
        },
        {
          "duration": 0.046875,
          "durationTicks": 24,
          "midi": 53,
          "name": "F3",
          "ticks": 43512,
          "time": 84.984375,
          "velocity": 0.3937007874015748
        },
        {
          "duration": 0.046875,
          "durationTicks": 24,
          "midi": 77,
          "name": "F5",
          "ticks": 43512,
          "time": 84.984375,
          "velocity": 0.3937007874015748
        },
        {
          "duration": 0.046875,
          "durationTicks": 24,
          "midi": 53,
          "name": "F3",
          "ticks": 43512,
          "time": 84.984375,
          "velocity": 0.3937007874015748
        },
        {
          "duration": 0.046875,
          "durationTicks": 24,
          "midi": 77,
          "name": "F5",
          "ticks": 43512,
          "time": 84.984375,
          "velocity": 0.3937007874015748
        },
        {
          "duration": 0.046875,
          "durationTicks": 24,
          "midi": 65,
          "name": "F4",
          "ticks": 43512,
          "time": 84.984375,
          "velocity": 0.3937007874015748
        },
        {
          "duration": 0.046875,
          "durationTicks": 24,
          "midi": 65,
          "name": "F4",
          "ticks": 43512,
          "time": 84.984375,
          "velocity": 0.3937007874015748
        },
        {
          "duration": 0.046875,
          "durationTicks": 24,
          "midi": 57,
          "name": "A3",
          "ticks": 43512,
          "time": 84.984375,
          "velocity": 0.3937007874015748
        },
        {
          "duration": 0.046875,
          "durationTicks": 24,
          "midi": 53,
          "name": "F3",
          "ticks": 43512,
          "time": 84.984375,
          "velocity": 0.3937007874015748
        },
        {
          "duration": 0.046875,
          "durationTicks": 24,
          "midi": 53,
          "name": "F3",
          "ticks": 43512,
          "time": 84.984375,
          "velocity": 0.3937007874015748
        },
        {
          "duration": 0.046875,
          "durationTicks": 24,
          "midi": 65,
          "name": "F4",
          "ticks": 43536,
          "time": 85.03125,
          "velocity": 0.3937007874015748
        },
        {
          "duration": 0.046875,
          "durationTicks": 24,
          "midi": 53,
          "name": "F3",
          "ticks": 43536,
          "time": 85.03125,
          "velocity": 0.3937007874015748
        },
        {
          "duration": 0.046875,
          "durationTicks": 24,
          "midi": 53,
          "name": "F3",
          "ticks": 43536,
          "time": 85.03125,
          "velocity": 0.3937007874015748
        },
        {
          "duration": 0.046875,
          "durationTicks": 24,
          "midi": 77,
          "name": "F5",
          "ticks": 43536,
          "time": 85.03125,
          "velocity": 0.3937007874015748
        },
        {
          "duration": 0.046875,
          "durationTicks": 24,
          "midi": 57,
          "name": "A3",
          "ticks": 43536,
          "time": 85.03125,
          "velocity": 0.3937007874015748
        },
        {
          "duration": 0.046875,
          "durationTicks": 24,
          "midi": 53,
          "name": "F3",
          "ticks": 43536,
          "time": 85.03125,
          "velocity": 0.3937007874015748
        },
        {
          "duration": 0.046875,
          "durationTicks": 24,
          "midi": 77,
          "name": "F5",
          "ticks": 43536,
          "time": 85.03125,
          "velocity": 0.3937007874015748
        },
        {
          "duration": 0.046875,
          "durationTicks": 24,
          "midi": 57,
          "name": "A3",
          "ticks": 43536,
          "time": 85.03125,
          "velocity": 0.3937007874015748
        },
        {
          "duration": 0.046875,
          "durationTicks": 24,
          "midi": 57,
          "name": "A3",
          "ticks": 43536,
          "time": 85.03125,
          "velocity": 0.3937007874015748
        },
        {
          "duration": 0.046875,
          "durationTicks": 24,
          "midi": 57,
          "name": "A3",
          "ticks": 43536,
          "time": 85.03125,
          "velocity": 0.3937007874015748
        },
        {
          "duration": 0.046875,
          "durationTicks": 24,
          "midi": 53,
          "name": "F3",
          "ticks": 43536,
          "time": 85.03125,
          "velocity": 0.3937007874015748
        },
        {
          "duration": 0.046875,
          "durationTicks": 24,
          "midi": 65,
          "name": "F4",
          "ticks": 43536,
          "time": 85.03125,
          "velocity": 0.3937007874015748
        },
        {
          "duration": 0.046875,
          "durationTicks": 24,
          "midi": 77,
          "name": "F5",
          "ticks": 43560,
          "time": 85.078125,
          "velocity": 0.3937007874015748
        },
        {
          "duration": 0.046875,
          "durationTicks": 24,
          "midi": 57,
          "name": "A3",
          "ticks": 43560,
          "time": 85.078125,
          "velocity": 0.3937007874015748
        },
        {
          "duration": 0.046875,
          "durationTicks": 24,
          "midi": 57,
          "name": "A3",
          "ticks": 43560,
          "time": 85.078125,
          "velocity": 0.3937007874015748
        },
        {
          "duration": 0.046875,
          "durationTicks": 24,
          "midi": 53,
          "name": "F3",
          "ticks": 43560,
          "time": 85.078125,
          "velocity": 0.3937007874015748
        },
        {
          "duration": 0.046875,
          "durationTicks": 24,
          "midi": 53,
          "name": "F3",
          "ticks": 43560,
          "time": 85.078125,
          "velocity": 0.3937007874015748
        },
        {
          "duration": 0.046875,
          "durationTicks": 24,
          "midi": 65,
          "name": "F4",
          "ticks": 43560,
          "time": 85.078125,
          "velocity": 0.3937007874015748
        },
        {
          "duration": 0.046875,
          "durationTicks": 24,
          "midi": 77,
          "name": "F5",
          "ticks": 43560,
          "time": 85.078125,
          "velocity": 0.3937007874015748
        },
        {
          "duration": 0.046875,
          "durationTicks": 24,
          "midi": 53,
          "name": "F3",
          "ticks": 43560,
          "time": 85.078125,
          "velocity": 0.3937007874015748
        },
        {
          "duration": 0.046875,
          "durationTicks": 24,
          "midi": 65,
          "name": "F4",
          "ticks": 43560,
          "time": 85.078125,
          "velocity": 0.3937007874015748
        },
        {
          "duration": 0.046875,
          "durationTicks": 24,
          "midi": 57,
          "name": "A3",
          "ticks": 43560,
          "time": 85.078125,
          "velocity": 0.3937007874015748
        },
        {
          "duration": 0.046875,
          "durationTicks": 24,
          "midi": 53,
          "name": "F3",
          "ticks": 43560,
          "time": 85.078125,
          "velocity": 0.3937007874015748
        },
        {
          "duration": 0.046875,
          "durationTicks": 24,
          "midi": 57,
          "name": "A3",
          "ticks": 43560,
          "time": 85.078125,
          "velocity": 0.3937007874015748
        },
        {
          "duration": 0.046875,
          "durationTicks": 24,
          "midi": 57,
          "name": "A3",
          "ticks": 43584,
          "time": 85.125,
          "velocity": 0.3937007874015748
        },
        {
          "duration": 0.046875,
          "durationTicks": 24,
          "midi": 53,
          "name": "F3",
          "ticks": 43584,
          "time": 85.125,
          "velocity": 0.3937007874015748
        },
        {
          "duration": 0.046875,
          "durationTicks": 24,
          "midi": 57,
          "name": "A3",
          "ticks": 43584,
          "time": 85.125,
          "velocity": 0.3937007874015748
        },
        {
          "duration": 0.046875,
          "durationTicks": 24,
          "midi": 65,
          "name": "F4",
          "ticks": 43584,
          "time": 85.125,
          "velocity": 0.3937007874015748
        },
        {
          "duration": 0.046875,
          "durationTicks": 24,
          "midi": 57,
          "name": "A3",
          "ticks": 43584,
          "time": 85.125,
          "velocity": 0.3937007874015748
        },
        {
          "duration": 0.046875,
          "durationTicks": 24,
          "midi": 57,
          "name": "A3",
          "ticks": 43584,
          "time": 85.125,
          "velocity": 0.3937007874015748
        },
        {
          "duration": 0.046875,
          "durationTicks": 24,
          "midi": 53,
          "name": "F3",
          "ticks": 43584,
          "time": 85.125,
          "velocity": 0.3937007874015748
        },
        {
          "duration": 0.046875,
          "durationTicks": 24,
          "midi": 65,
          "name": "F4",
          "ticks": 43584,
          "time": 85.125,
          "velocity": 0.3937007874015748
        },
        {
          "duration": 0.046875,
          "durationTicks": 24,
          "midi": 77,
          "name": "F5",
          "ticks": 43584,
          "time": 85.125,
          "velocity": 0.3937007874015748
        },
        {
          "duration": 0.046875,
          "durationTicks": 24,
          "midi": 77,
          "name": "F5",
          "ticks": 43584,
          "time": 85.125,
          "velocity": 0.3937007874015748
        },
        {
          "duration": 0.046875,
          "durationTicks": 24,
          "midi": 53,
          "name": "F3",
          "ticks": 43584,
          "time": 85.125,
          "velocity": 0.3937007874015748
        },
        {
          "duration": 0.046875,
          "durationTicks": 24,
          "midi": 53,
          "name": "F3",
          "ticks": 43584,
          "time": 85.125,
          "velocity": 0.3937007874015748
        },
        {
          "duration": 0.046875,
          "durationTicks": 24,
          "midi": 53,
          "name": "F3",
          "ticks": 43608,
          "time": 85.171875,
          "velocity": 0.3937007874015748
        },
        {
          "duration": 0.046875,
          "durationTicks": 24,
          "midi": 65,
          "name": "F4",
          "ticks": 43608,
          "time": 85.171875,
          "velocity": 0.3937007874015748
        },
        {
          "duration": 0.046875,
          "durationTicks": 24,
          "midi": 57,
          "name": "A3",
          "ticks": 43608,
          "time": 85.171875,
          "velocity": 0.3937007874015748
        },
        {
          "duration": 0.046875,
          "durationTicks": 24,
          "midi": 53,
          "name": "F3",
          "ticks": 43608,
          "time": 85.171875,
          "velocity": 0.3937007874015748
        },
        {
          "duration": 0.046875,
          "durationTicks": 24,
          "midi": 57,
          "name": "A3",
          "ticks": 43608,
          "time": 85.171875,
          "velocity": 0.3937007874015748
        },
        {
          "duration": 0.046875,
          "durationTicks": 24,
          "midi": 77,
          "name": "F5",
          "ticks": 43608,
          "time": 85.171875,
          "velocity": 0.3937007874015748
        },
        {
          "duration": 0.046875,
          "durationTicks": 24,
          "midi": 53,
          "name": "F3",
          "ticks": 43608,
          "time": 85.171875,
          "velocity": 0.3937007874015748
        },
        {
          "duration": 0.046875,
          "durationTicks": 24,
          "midi": 57,
          "name": "A3",
          "ticks": 43608,
          "time": 85.171875,
          "velocity": 0.3937007874015748
        },
        {
          "duration": 0.046875,
          "durationTicks": 24,
          "midi": 77,
          "name": "F5",
          "ticks": 43608,
          "time": 85.171875,
          "velocity": 0.3937007874015748
        },
        {
          "duration": 0.046875,
          "durationTicks": 24,
          "midi": 65,
          "name": "F4",
          "ticks": 43608,
          "time": 85.171875,
          "velocity": 0.3937007874015748
        },
        {
          "duration": 0.046875,
          "durationTicks": 24,
          "midi": 57,
          "name": "A3",
          "ticks": 43608,
          "time": 85.171875,
          "velocity": 0.3937007874015748
        },
        {
          "duration": 0.046875,
          "durationTicks": 24,
          "midi": 53,
          "name": "F3",
          "ticks": 43608,
          "time": 85.171875,
          "velocity": 0.3937007874015748
        },
        {
          "duration": 0.046875,
          "durationTicks": 24,
          "midi": 53,
          "name": "F3",
          "ticks": 43632,
          "time": 85.21875,
          "velocity": 0.3937007874015748
        },
        {
          "duration": 0.046875,
          "durationTicks": 24,
          "midi": 77,
          "name": "F5",
          "ticks": 43632,
          "time": 85.21875,
          "velocity": 0.3937007874015748
        },
        {
          "duration": 0.046875,
          "durationTicks": 24,
          "midi": 57,
          "name": "A3",
          "ticks": 43632,
          "time": 85.21875,
          "velocity": 0.3937007874015748
        },
        {
          "duration": 0.046875,
          "durationTicks": 24,
          "midi": 53,
          "name": "F3",
          "ticks": 43632,
          "time": 85.21875,
          "velocity": 0.3937007874015748
        },
        {
          "duration": 0.046875,
          "durationTicks": 24,
          "midi": 53,
          "name": "F3",
          "ticks": 43632,
          "time": 85.21875,
          "velocity": 0.3937007874015748
        },
        {
          "duration": 0.046875,
          "durationTicks": 24,
          "midi": 65,
          "name": "F4",
          "ticks": 43632,
          "time": 85.21875,
          "velocity": 0.3937007874015748
        },
        {
          "duration": 0.046875,
          "durationTicks": 24,
          "midi": 57,
          "name": "A3",
          "ticks": 43632,
          "time": 85.21875,
          "velocity": 0.3937007874015748
        },
        {
          "duration": 0.046875,
          "durationTicks": 24,
          "midi": 57,
          "name": "A3",
          "ticks": 43632,
          "time": 85.21875,
          "velocity": 0.3937007874015748
        },
        {
          "duration": 0.046875,
          "durationTicks": 24,
          "midi": 53,
          "name": "F3",
          "ticks": 43632,
          "time": 85.21875,
          "velocity": 0.3937007874015748
        },
        {
          "duration": 0.046875,
          "durationTicks": 24,
          "midi": 77,
          "name": "F5",
          "ticks": 43632,
          "time": 85.21875,
          "velocity": 0.3937007874015748
        },
        {
          "duration": 0.046875,
          "durationTicks": 24,
          "midi": 57,
          "name": "A3",
          "ticks": 43632,
          "time": 85.21875,
          "velocity": 0.3937007874015748
        },
        {
          "duration": 0.046875,
          "durationTicks": 24,
          "midi": 65,
          "name": "F4",
          "ticks": 43632,
          "time": 85.21875,
          "velocity": 0.3937007874015748
        },
        {
          "duration": 0.046875,
          "durationTicks": 24,
          "midi": 65,
          "name": "F4",
          "ticks": 43656,
          "time": 85.265625,
          "velocity": 0.3937007874015748
        },
        {
          "duration": 0.046875,
          "durationTicks": 24,
          "midi": 53,
          "name": "F3",
          "ticks": 43656,
          "time": 85.265625,
          "velocity": 0.3937007874015748
        },
        {
          "duration": 0.046875,
          "durationTicks": 24,
          "midi": 53,
          "name": "F3",
          "ticks": 43656,
          "time": 85.265625,
          "velocity": 0.3937007874015748
        },
        {
          "duration": 0.046875,
          "durationTicks": 24,
          "midi": 53,
          "name": "F3",
          "ticks": 43656,
          "time": 85.265625,
          "velocity": 0.3937007874015748
        },
        {
          "duration": 0.046875,
          "durationTicks": 24,
          "midi": 57,
          "name": "A3",
          "ticks": 43656,
          "time": 85.265625,
          "velocity": 0.3937007874015748
        },
        {
          "duration": 0.046875,
          "durationTicks": 24,
          "midi": 57,
          "name": "A3",
          "ticks": 43656,
          "time": 85.265625,
          "velocity": 0.3937007874015748
        },
        {
          "duration": 0.046875,
          "durationTicks": 24,
          "midi": 57,
          "name": "A3",
          "ticks": 43656,
          "time": 85.265625,
          "velocity": 0.3937007874015748
        },
        {
          "duration": 0.046875,
          "durationTicks": 24,
          "midi": 57,
          "name": "A3",
          "ticks": 43656,
          "time": 85.265625,
          "velocity": 0.3937007874015748
        },
        {
          "duration": 0.046875,
          "durationTicks": 24,
          "midi": 65,
          "name": "F4",
          "ticks": 43656,
          "time": 85.265625,
          "velocity": 0.3937007874015748
        },
        {
          "duration": 0.046875,
          "durationTicks": 24,
          "midi": 77,
          "name": "F5",
          "ticks": 43656,
          "time": 85.265625,
          "velocity": 0.3937007874015748
        },
        {
          "duration": 0.046875,
          "durationTicks": 24,
          "midi": 53,
          "name": "F3",
          "ticks": 43656,
          "time": 85.265625,
          "velocity": 0.3937007874015748
        },
        {
          "duration": 0.046875,
          "durationTicks": 24,
          "midi": 77,
          "name": "F5",
          "ticks": 43656,
          "time": 85.265625,
          "velocity": 0.3937007874015748
        },
        {
          "duration": 0.046875,
          "durationTicks": 24,
          "midi": 65,
          "name": "F4",
          "ticks": 43680,
          "time": 85.3125,
          "velocity": 0.3937007874015748
        },
        {
          "duration": 0.046875,
          "durationTicks": 24,
          "midi": 57,
          "name": "A3",
          "ticks": 43680,
          "time": 85.3125,
          "velocity": 0.3937007874015748
        },
        {
          "duration": 0.046875,
          "durationTicks": 24,
          "midi": 77,
          "name": "F5",
          "ticks": 43680,
          "time": 85.3125,
          "velocity": 0.3937007874015748
        },
        {
          "duration": 0.046875,
          "durationTicks": 24,
          "midi": 77,
          "name": "F5",
          "ticks": 43680,
          "time": 85.3125,
          "velocity": 0.3937007874015748
        },
        {
          "duration": 0.046875,
          "durationTicks": 24,
          "midi": 53,
          "name": "F3",
          "ticks": 43680,
          "time": 85.3125,
          "velocity": 0.3937007874015748
        },
        {
          "duration": 0.046875,
          "durationTicks": 24,
          "midi": 53,
          "name": "F3",
          "ticks": 43680,
          "time": 85.3125,
          "velocity": 0.3937007874015748
        },
        {
          "duration": 0.046875,
          "durationTicks": 24,
          "midi": 65,
          "name": "F4",
          "ticks": 43680,
          "time": 85.3125,
          "velocity": 0.3937007874015748
        },
        {
          "duration": 0.046875,
          "durationTicks": 24,
          "midi": 57,
          "name": "A3",
          "ticks": 43680,
          "time": 85.3125,
          "velocity": 0.3937007874015748
        },
        {
          "duration": 0.046875,
          "durationTicks": 24,
          "midi": 65,
          "name": "F4",
          "ticks": 43704,
          "time": 85.359375,
          "velocity": 0.3937007874015748
        },
        {
          "duration": 0.046875,
          "durationTicks": 24,
          "midi": 57,
          "name": "A3",
          "ticks": 43704,
          "time": 85.359375,
          "velocity": 0.3937007874015748
        },
        {
          "duration": 0.046875,
          "durationTicks": 24,
          "midi": 53,
          "name": "F3",
          "ticks": 43704,
          "time": 85.359375,
          "velocity": 0.3937007874015748
        },
        {
          "duration": 0.046875,
          "durationTicks": 24,
          "midi": 57,
          "name": "A3",
          "ticks": 43704,
          "time": 85.359375,
          "velocity": 0.3937007874015748
        },
        {
          "duration": 0.046875,
          "durationTicks": 24,
          "midi": 65,
          "name": "F4",
          "ticks": 43704,
          "time": 85.359375,
          "velocity": 0.3937007874015748
        },
        {
          "duration": 0.046875,
          "durationTicks": 24,
          "midi": 53,
          "name": "F3",
          "ticks": 43704,
          "time": 85.359375,
          "velocity": 0.3937007874015748
        },
        {
          "duration": 0.046875,
          "durationTicks": 24,
          "midi": 77,
          "name": "F5",
          "ticks": 43704,
          "time": 85.359375,
          "velocity": 0.3937007874015748
        },
        {
          "duration": 0.046875,
          "durationTicks": 24,
          "midi": 77,
          "name": "F5",
          "ticks": 43704,
          "time": 85.359375,
          "velocity": 0.3937007874015748
        },
        {
          "duration": 0.046875,
          "durationTicks": 24,
          "midi": 57,
          "name": "A3",
          "ticks": 43728,
          "time": 85.40625,
          "velocity": 0.3937007874015748
        },
        {
          "duration": 0.046875,
          "durationTicks": 24,
          "midi": 53,
          "name": "F3",
          "ticks": 43728,
          "time": 85.40625,
          "velocity": 0.3937007874015748
        },
        {
          "duration": 0.046875,
          "durationTicks": 24,
          "midi": 77,
          "name": "F5",
          "ticks": 43728,
          "time": 85.40625,
          "velocity": 0.3937007874015748
        },
        {
          "duration": 0.046875,
          "durationTicks": 24,
          "midi": 53,
          "name": "F3",
          "ticks": 43728,
          "time": 85.40625,
          "velocity": 0.3937007874015748
        },
        {
          "duration": 0.046875,
          "durationTicks": 24,
          "midi": 65,
          "name": "F4",
          "ticks": 43728,
          "time": 85.40625,
          "velocity": 0.3937007874015748
        },
        {
          "duration": 0.046875,
          "durationTicks": 24,
          "midi": 57,
          "name": "A3",
          "ticks": 43728,
          "time": 85.40625,
          "velocity": 0.3937007874015748
        },
        {
          "duration": 0.046875,
          "durationTicks": 24,
          "midi": 77,
          "name": "F5",
          "ticks": 43728,
          "time": 85.40625,
          "velocity": 0.3937007874015748
        },
        {
          "duration": 0.046875,
          "durationTicks": 24,
          "midi": 65,
          "name": "F4",
          "ticks": 43728,
          "time": 85.40625,
          "velocity": 0.3937007874015748
        },
        {
          "duration": 0.046875,
          "durationTicks": 24,
          "midi": 57,
          "name": "A3",
          "ticks": 43752,
          "time": 85.453125,
          "velocity": 0.3937007874015748
        },
        {
          "duration": 0.046875,
          "durationTicks": 24,
          "midi": 53,
          "name": "F3",
          "ticks": 43752,
          "time": 85.453125,
          "velocity": 0.3937007874015748
        },
        {
          "duration": 0.046875,
          "durationTicks": 24,
          "midi": 77,
          "name": "F5",
          "ticks": 43752,
          "time": 85.453125,
          "velocity": 0.3937007874015748
        },
        {
          "duration": 0.046875,
          "durationTicks": 24,
          "midi": 65,
          "name": "F4",
          "ticks": 43752,
          "time": 85.453125,
          "velocity": 0.3937007874015748
        },
        {
          "duration": 0.046875,
          "durationTicks": 24,
          "midi": 53,
          "name": "F3",
          "ticks": 43752,
          "time": 85.453125,
          "velocity": 0.3937007874015748
        },
        {
          "duration": 0.046875,
          "durationTicks": 24,
          "midi": 77,
          "name": "F5",
          "ticks": 43752,
          "time": 85.453125,
          "velocity": 0.3937007874015748
        },
        {
          "duration": 0.046875,
          "durationTicks": 24,
          "midi": 57,
          "name": "A3",
          "ticks": 43752,
          "time": 85.453125,
          "velocity": 0.3937007874015748
        },
        {
          "duration": 0.046875,
          "durationTicks": 24,
          "midi": 65,
          "name": "F4",
          "ticks": 43752,
          "time": 85.453125,
          "velocity": 0.3937007874015748
        },
        {
          "duration": 0.046875,
          "durationTicks": 24,
          "midi": 64,
          "name": "E4",
          "ticks": 43776,
          "time": 85.5,
          "velocity": 0.3937007874015748
        },
        {
          "duration": 0.046875,
          "durationTicks": 24,
          "midi": 39,
          "name": "D#2",
          "ticks": 43776,
          "time": 85.5,
          "velocity": 0.3937007874015748
        },
        {
          "duration": 0.046875,
          "durationTicks": 24,
          "midi": 27,
          "name": "D#1",
          "ticks": 43776,
          "time": 85.5,
          "velocity": 0.3937007874015748
        },
        {
          "duration": 0.046875,
          "durationTicks": 24,
          "midi": 64,
          "name": "E4",
          "ticks": 43776,
          "time": 85.5,
          "velocity": 0.3937007874015748
        },
        {
          "duration": 0.046875,
          "durationTicks": 24,
          "midi": 64,
          "name": "E4",
          "ticks": 43776,
          "time": 85.5,
          "velocity": 0.3937007874015748
        },
        {
          "duration": 0.046875,
          "durationTicks": 24,
          "midi": 76,
          "name": "E5",
          "ticks": 43776,
          "time": 85.5,
          "velocity": 0.3937007874015748
        },
        {
          "duration": 0.046875,
          "durationTicks": 24,
          "midi": 76,
          "name": "E5",
          "ticks": 43776,
          "time": 85.5,
          "velocity": 0.3937007874015748
        },
        {
          "duration": 0.046875,
          "durationTicks": 24,
          "midi": 64,
          "name": "E4",
          "ticks": 43776,
          "time": 85.5,
          "velocity": 0.3937007874015748
        },
        {
          "duration": 0.046875,
          "durationTicks": 24,
          "midi": 27,
          "name": "D#1",
          "ticks": 43776,
          "time": 85.5,
          "velocity": 0.3937007874015748
        },
        {
          "duration": 0.046875,
          "durationTicks": 24,
          "midi": 39,
          "name": "D#2",
          "ticks": 43776,
          "time": 85.5,
          "velocity": 0.3937007874015748
        },
        {
          "duration": 0.046875,
          "durationTicks": 24,
          "midi": 27,
          "name": "D#1",
          "ticks": 43776,
          "time": 85.5,
          "velocity": 0.3937007874015748
        },
        {
          "duration": 0.046875,
          "durationTicks": 24,
          "midi": 76,
          "name": "E5",
          "ticks": 43776,
          "time": 85.5,
          "velocity": 0.3937007874015748
        },
        {
          "duration": 0.046875,
          "durationTicks": 24,
          "midi": 27,
          "name": "D#1",
          "ticks": 43776,
          "time": 85.5,
          "velocity": 0.3937007874015748
        },
        {
          "duration": 0.046875,
          "durationTicks": 24,
          "midi": 27,
          "name": "D#1",
          "ticks": 43776,
          "time": 85.5,
          "velocity": 0.3937007874015748
        },
        {
          "duration": 0.046875,
          "durationTicks": 24,
          "midi": 64,
          "name": "E4",
          "ticks": 43776,
          "time": 85.5,
          "velocity": 0.3937007874015748
        },
        {
          "duration": 0.046875,
          "durationTicks": 24,
          "midi": 39,
          "name": "D#2",
          "ticks": 43776,
          "time": 85.5,
          "velocity": 0.3937007874015748
        },
        {
          "duration": 0.046875,
          "durationTicks": 24,
          "midi": 64,
          "name": "E4",
          "ticks": 43776,
          "time": 85.5,
          "velocity": 0.3937007874015748
        },
        {
          "duration": 0.046875,
          "durationTicks": 24,
          "midi": 76,
          "name": "E5",
          "ticks": 43776,
          "time": 85.5,
          "velocity": 0.3937007874015748
        },
        {
          "duration": 0.046875,
          "durationTicks": 24,
          "midi": 27,
          "name": "D#1",
          "ticks": 43776,
          "time": 85.5,
          "velocity": 0.3937007874015748
        },
        {
          "duration": 0.046875,
          "durationTicks": 24,
          "midi": 39,
          "name": "D#2",
          "ticks": 43776,
          "time": 85.5,
          "velocity": 0.3937007874015748
        },
        {
          "duration": 0.046875,
          "durationTicks": 24,
          "midi": 39,
          "name": "D#2",
          "ticks": 43776,
          "time": 85.5,
          "velocity": 0.3937007874015748
        },
        {
          "duration": 0.046875,
          "durationTicks": 24,
          "midi": 76,
          "name": "E5",
          "ticks": 43776,
          "time": 85.5,
          "velocity": 0.3937007874015748
        },
        {
          "duration": 0.046875,
          "durationTicks": 24,
          "midi": 76,
          "name": "E5",
          "ticks": 43776,
          "time": 85.5,
          "velocity": 0.3937007874015748
        },
        {
          "duration": 0.046875,
          "durationTicks": 24,
          "midi": 39,
          "name": "D#2",
          "ticks": 43776,
          "time": 85.5,
          "velocity": 0.3937007874015748
        },
        {
          "duration": 0.046875,
          "durationTicks": 24,
          "midi": 64,
          "name": "E4",
          "ticks": 43800,
          "time": 85.546875,
          "velocity": 0.3937007874015748
        },
        {
          "duration": 0.046875,
          "durationTicks": 24,
          "midi": 64,
          "name": "E4",
          "ticks": 43800,
          "time": 85.546875,
          "velocity": 0.3937007874015748
        },
        {
          "duration": 0.046875,
          "durationTicks": 24,
          "midi": 64,
          "name": "E4",
          "ticks": 43800,
          "time": 85.546875,
          "velocity": 0.3937007874015748
        },
        {
          "duration": 0.046875,
          "durationTicks": 24,
          "midi": 27,
          "name": "D#1",
          "ticks": 43800,
          "time": 85.546875,
          "velocity": 0.3937007874015748
        },
        {
          "duration": 0.046875,
          "durationTicks": 24,
          "midi": 27,
          "name": "D#1",
          "ticks": 43800,
          "time": 85.546875,
          "velocity": 0.3937007874015748
        },
        {
          "duration": 0.046875,
          "durationTicks": 24,
          "midi": 39,
          "name": "D#2",
          "ticks": 43800,
          "time": 85.546875,
          "velocity": 0.3937007874015748
        },
        {
          "duration": 0.046875,
          "durationTicks": 24,
          "midi": 76,
          "name": "E5",
          "ticks": 43800,
          "time": 85.546875,
          "velocity": 0.3937007874015748
        },
        {
          "duration": 0.046875,
          "durationTicks": 24,
          "midi": 39,
          "name": "D#2",
          "ticks": 43800,
          "time": 85.546875,
          "velocity": 0.3937007874015748
        },
        {
          "duration": 0.046875,
          "durationTicks": 24,
          "midi": 39,
          "name": "D#2",
          "ticks": 43800,
          "time": 85.546875,
          "velocity": 0.3937007874015748
        },
        {
          "duration": 0.046875,
          "durationTicks": 24,
          "midi": 76,
          "name": "E5",
          "ticks": 43800,
          "time": 85.546875,
          "velocity": 0.3937007874015748
        },
        {
          "duration": 0.046875,
          "durationTicks": 24,
          "midi": 39,
          "name": "D#2",
          "ticks": 43800,
          "time": 85.546875,
          "velocity": 0.3937007874015748
        },
        {
          "duration": 0.046875,
          "durationTicks": 24,
          "midi": 64,
          "name": "E4",
          "ticks": 43800,
          "time": 85.546875,
          "velocity": 0.3937007874015748
        },
        {
          "duration": 0.046875,
          "durationTicks": 24,
          "midi": 27,
          "name": "D#1",
          "ticks": 43800,
          "time": 85.546875,
          "velocity": 0.3937007874015748
        },
        {
          "duration": 0.046875,
          "durationTicks": 24,
          "midi": 27,
          "name": "D#1",
          "ticks": 43800,
          "time": 85.546875,
          "velocity": 0.3937007874015748
        },
        {
          "duration": 0.046875,
          "durationTicks": 24,
          "midi": 76,
          "name": "E5",
          "ticks": 43800,
          "time": 85.546875,
          "velocity": 0.3937007874015748
        },
        {
          "duration": 0.046875,
          "durationTicks": 24,
          "midi": 76,
          "name": "E5",
          "ticks": 43800,
          "time": 85.546875,
          "velocity": 0.3937007874015748
        },
        {
          "duration": 0.046875,
          "durationTicks": 24,
          "midi": 64,
          "name": "E4",
          "ticks": 43800,
          "time": 85.546875,
          "velocity": 0.3937007874015748
        },
        {
          "duration": 0.046875,
          "durationTicks": 24,
          "midi": 27,
          "name": "D#1",
          "ticks": 43800,
          "time": 85.546875,
          "velocity": 0.3937007874015748
        },
        {
          "duration": 0.046875,
          "durationTicks": 24,
          "midi": 76,
          "name": "E5",
          "ticks": 43800,
          "time": 85.546875,
          "velocity": 0.3937007874015748
        },
        {
          "duration": 0.046875,
          "durationTicks": 24,
          "midi": 76,
          "name": "E5",
          "ticks": 43800,
          "time": 85.546875,
          "velocity": 0.3937007874015748
        },
        {
          "duration": 0.046875,
          "durationTicks": 24,
          "midi": 39,
          "name": "D#2",
          "ticks": 43800,
          "time": 85.546875,
          "velocity": 0.3937007874015748
        },
        {
          "duration": 0.046875,
          "durationTicks": 24,
          "midi": 64,
          "name": "E4",
          "ticks": 43800,
          "time": 85.546875,
          "velocity": 0.3937007874015748
        },
        {
          "duration": 0.046875,
          "durationTicks": 24,
          "midi": 39,
          "name": "D#2",
          "ticks": 43800,
          "time": 85.546875,
          "velocity": 0.3937007874015748
        },
        {
          "duration": 0.046875,
          "durationTicks": 24,
          "midi": 27,
          "name": "D#1",
          "ticks": 43800,
          "time": 85.546875,
          "velocity": 0.3937007874015748
        },
        {
          "duration": 0.046875,
          "durationTicks": 24,
          "midi": 27,
          "name": "D#1",
          "ticks": 43824,
          "time": 85.59375,
          "velocity": 0.3937007874015748
        },
        {
          "duration": 0.046875,
          "durationTicks": 24,
          "midi": 76,
          "name": "E5",
          "ticks": 43824,
          "time": 85.59375,
          "velocity": 0.3937007874015748
        },
        {
          "duration": 0.046875,
          "durationTicks": 24,
          "midi": 76,
          "name": "E5",
          "ticks": 43824,
          "time": 85.59375,
          "velocity": 0.3937007874015748
        },
        {
          "duration": 0.046875,
          "durationTicks": 24,
          "midi": 27,
          "name": "D#1",
          "ticks": 43824,
          "time": 85.59375,
          "velocity": 0.3937007874015748
        },
        {
          "duration": 0.046875,
          "durationTicks": 24,
          "midi": 39,
          "name": "D#2",
          "ticks": 43824,
          "time": 85.59375,
          "velocity": 0.3937007874015748
        },
        {
          "duration": 0.046875,
          "durationTicks": 24,
          "midi": 27,
          "name": "D#1",
          "ticks": 43824,
          "time": 85.59375,
          "velocity": 0.3937007874015748
        },
        {
          "duration": 0.046875,
          "durationTicks": 24,
          "midi": 39,
          "name": "D#2",
          "ticks": 43824,
          "time": 85.59375,
          "velocity": 0.3937007874015748
        },
        {
          "duration": 0.046875,
          "durationTicks": 24,
          "midi": 64,
          "name": "E4",
          "ticks": 43824,
          "time": 85.59375,
          "velocity": 0.3937007874015748
        },
        {
          "duration": 0.046875,
          "durationTicks": 24,
          "midi": 76,
          "name": "E5",
          "ticks": 43824,
          "time": 85.59375,
          "velocity": 0.3937007874015748
        },
        {
          "duration": 0.046875,
          "durationTicks": 24,
          "midi": 27,
          "name": "D#1",
          "ticks": 43824,
          "time": 85.59375,
          "velocity": 0.3937007874015748
        },
        {
          "duration": 0.046875,
          "durationTicks": 24,
          "midi": 76,
          "name": "E5",
          "ticks": 43824,
          "time": 85.59375,
          "velocity": 0.3937007874015748
        },
        {
          "duration": 0.046875,
          "durationTicks": 24,
          "midi": 27,
          "name": "D#1",
          "ticks": 43824,
          "time": 85.59375,
          "velocity": 0.3937007874015748
        },
        {
          "duration": 0.046875,
          "durationTicks": 24,
          "midi": 64,
          "name": "E4",
          "ticks": 43824,
          "time": 85.59375,
          "velocity": 0.3937007874015748
        },
        {
          "duration": 0.046875,
          "durationTicks": 24,
          "midi": 64,
          "name": "E4",
          "ticks": 43824,
          "time": 85.59375,
          "velocity": 0.3937007874015748
        },
        {
          "duration": 0.046875,
          "durationTicks": 24,
          "midi": 76,
          "name": "E5",
          "ticks": 43824,
          "time": 85.59375,
          "velocity": 0.3937007874015748
        },
        {
          "duration": 0.046875,
          "durationTicks": 24,
          "midi": 39,
          "name": "D#2",
          "ticks": 43824,
          "time": 85.59375,
          "velocity": 0.3937007874015748
        },
        {
          "duration": 0.046875,
          "durationTicks": 24,
          "midi": 27,
          "name": "D#1",
          "ticks": 43824,
          "time": 85.59375,
          "velocity": 0.3937007874015748
        },
        {
          "duration": 0.046875,
          "durationTicks": 24,
          "midi": 76,
          "name": "E5",
          "ticks": 43824,
          "time": 85.59375,
          "velocity": 0.3937007874015748
        },
        {
          "duration": 0.046875,
          "durationTicks": 24,
          "midi": 39,
          "name": "D#2",
          "ticks": 43824,
          "time": 85.59375,
          "velocity": 0.3937007874015748
        },
        {
          "duration": 0.046875,
          "durationTicks": 24,
          "midi": 39,
          "name": "D#2",
          "ticks": 43824,
          "time": 85.59375,
          "velocity": 0.3937007874015748
        },
        {
          "duration": 0.046875,
          "durationTicks": 24,
          "midi": 64,
          "name": "E4",
          "ticks": 43824,
          "time": 85.59375,
          "velocity": 0.3937007874015748
        },
        {
          "duration": 0.046875,
          "durationTicks": 24,
          "midi": 39,
          "name": "D#2",
          "ticks": 43824,
          "time": 85.59375,
          "velocity": 0.3937007874015748
        },
        {
          "duration": 0.046875,
          "durationTicks": 24,
          "midi": 64,
          "name": "E4",
          "ticks": 43824,
          "time": 85.59375,
          "velocity": 0.3937007874015748
        },
        {
          "duration": 0.046875,
          "durationTicks": 24,
          "midi": 64,
          "name": "E4",
          "ticks": 43824,
          "time": 85.59375,
          "velocity": 0.3937007874015748
        },
        {
          "duration": 0.046875,
          "durationTicks": 24,
          "midi": 76,
          "name": "E5",
          "ticks": 43848,
          "time": 85.640625,
          "velocity": 0.3937007874015748
        },
        {
          "duration": 0.046875,
          "durationTicks": 24,
          "midi": 39,
          "name": "D#2",
          "ticks": 43848,
          "time": 85.640625,
          "velocity": 0.3937007874015748
        },
        {
          "duration": 0.046875,
          "durationTicks": 24,
          "midi": 64,
          "name": "E4",
          "ticks": 43848,
          "time": 85.640625,
          "velocity": 0.3937007874015748
        },
        {
          "duration": 0.046875,
          "durationTicks": 24,
          "midi": 64,
          "name": "E4",
          "ticks": 43848,
          "time": 85.640625,
          "velocity": 0.3937007874015748
        },
        {
          "duration": 0.046875,
          "durationTicks": 24,
          "midi": 39,
          "name": "D#2",
          "ticks": 43848,
          "time": 85.640625,
          "velocity": 0.3937007874015748
        },
        {
          "duration": 0.046875,
          "durationTicks": 24,
          "midi": 27,
          "name": "D#1",
          "ticks": 43848,
          "time": 85.640625,
          "velocity": 0.3937007874015748
        },
        {
          "duration": 0.046875,
          "durationTicks": 24,
          "midi": 64,
          "name": "E4",
          "ticks": 43848,
          "time": 85.640625,
          "velocity": 0.3937007874015748
        },
        {
          "duration": 0.046875,
          "durationTicks": 24,
          "midi": 27,
          "name": "D#1",
          "ticks": 43848,
          "time": 85.640625,
          "velocity": 0.3937007874015748
        },
        {
          "duration": 0.046875,
          "durationTicks": 24,
          "midi": 76,
          "name": "E5",
          "ticks": 43848,
          "time": 85.640625,
          "velocity": 0.3937007874015748
        },
        {
          "duration": 0.046875,
          "durationTicks": 24,
          "midi": 27,
          "name": "D#1",
          "ticks": 43848,
          "time": 85.640625,
          "velocity": 0.3937007874015748
        },
        {
          "duration": 0.046875,
          "durationTicks": 24,
          "midi": 76,
          "name": "E5",
          "ticks": 43848,
          "time": 85.640625,
          "velocity": 0.3937007874015748
        },
        {
          "duration": 0.046875,
          "durationTicks": 24,
          "midi": 76,
          "name": "E5",
          "ticks": 43848,
          "time": 85.640625,
          "velocity": 0.3937007874015748
        },
        {
          "duration": 0.046875,
          "durationTicks": 24,
          "midi": 27,
          "name": "D#1",
          "ticks": 43848,
          "time": 85.640625,
          "velocity": 0.3937007874015748
        },
        {
          "duration": 0.046875,
          "durationTicks": 24,
          "midi": 27,
          "name": "D#1",
          "ticks": 43848,
          "time": 85.640625,
          "velocity": 0.3937007874015748
        },
        {
          "duration": 0.046875,
          "durationTicks": 24,
          "midi": 39,
          "name": "D#2",
          "ticks": 43848,
          "time": 85.640625,
          "velocity": 0.3937007874015748
        },
        {
          "duration": 0.046875,
          "durationTicks": 24,
          "midi": 39,
          "name": "D#2",
          "ticks": 43848,
          "time": 85.640625,
          "velocity": 0.3937007874015748
        },
        {
          "duration": 0.046875,
          "durationTicks": 24,
          "midi": 39,
          "name": "D#2",
          "ticks": 43848,
          "time": 85.640625,
          "velocity": 0.3937007874015748
        },
        {
          "duration": 0.046875,
          "durationTicks": 24,
          "midi": 64,
          "name": "E4",
          "ticks": 43848,
          "time": 85.640625,
          "velocity": 0.3937007874015748
        },
        {
          "duration": 0.046875,
          "durationTicks": 24,
          "midi": 64,
          "name": "E4",
          "ticks": 43848,
          "time": 85.640625,
          "velocity": 0.3937007874015748
        },
        {
          "duration": 0.046875,
          "durationTicks": 24,
          "midi": 76,
          "name": "E5",
          "ticks": 43848,
          "time": 85.640625,
          "velocity": 0.3937007874015748
        },
        {
          "duration": 0.046875,
          "durationTicks": 24,
          "midi": 76,
          "name": "E5",
          "ticks": 43848,
          "time": 85.640625,
          "velocity": 0.3937007874015748
        },
        {
          "duration": 0.046875,
          "durationTicks": 24,
          "midi": 27,
          "name": "D#1",
          "ticks": 43848,
          "time": 85.640625,
          "velocity": 0.3937007874015748
        },
        {
          "duration": 0.046875,
          "durationTicks": 24,
          "midi": 64,
          "name": "E4",
          "ticks": 43848,
          "time": 85.640625,
          "velocity": 0.3937007874015748
        },
        {
          "duration": 0.046875,
          "durationTicks": 24,
          "midi": 39,
          "name": "D#2",
          "ticks": 43848,
          "time": 85.640625,
          "velocity": 0.3937007874015748
        },
        {
          "duration": 0.046875,
          "durationTicks": 24,
          "midi": 27,
          "name": "D#1",
          "ticks": 43872,
          "time": 85.6875,
          "velocity": 0.3937007874015748
        },
        {
          "duration": 0.046875,
          "durationTicks": 24,
          "midi": 27,
          "name": "D#1",
          "ticks": 43872,
          "time": 85.6875,
          "velocity": 0.3937007874015748
        },
        {
          "duration": 0.046875,
          "durationTicks": 24,
          "midi": 76,
          "name": "E5",
          "ticks": 43872,
          "time": 85.6875,
          "velocity": 0.3937007874015748
        },
        {
          "duration": 0.046875,
          "durationTicks": 24,
          "midi": 64,
          "name": "E4",
          "ticks": 43872,
          "time": 85.6875,
          "velocity": 0.3937007874015748
        },
        {
          "duration": 0.046875,
          "durationTicks": 24,
          "midi": 76,
          "name": "E5",
          "ticks": 43872,
          "time": 85.6875,
          "velocity": 0.3937007874015748
        },
        {
          "duration": 0.046875,
          "durationTicks": 24,
          "midi": 64,
          "name": "E4",
          "ticks": 43872,
          "time": 85.6875,
          "velocity": 0.3937007874015748
        },
        {
          "duration": 0.046875,
          "durationTicks": 24,
          "midi": 27,
          "name": "D#1",
          "ticks": 43872,
          "time": 85.6875,
          "velocity": 0.3937007874015748
        },
        {
          "duration": 0.046875,
          "durationTicks": 24,
          "midi": 39,
          "name": "D#2",
          "ticks": 43872,
          "time": 85.6875,
          "velocity": 0.3937007874015748
        },
        {
          "duration": 0.046875,
          "durationTicks": 24,
          "midi": 76,
          "name": "E5",
          "ticks": 43872,
          "time": 85.6875,
          "velocity": 0.3937007874015748
        },
        {
          "duration": 0.046875,
          "durationTicks": 24,
          "midi": 39,
          "name": "D#2",
          "ticks": 43872,
          "time": 85.6875,
          "velocity": 0.3937007874015748
        },
        {
          "duration": 0.046875,
          "durationTicks": 24,
          "midi": 27,
          "name": "D#1",
          "ticks": 43872,
          "time": 85.6875,
          "velocity": 0.3937007874015748
        },
        {
          "duration": 0.046875,
          "durationTicks": 24,
          "midi": 39,
          "name": "D#2",
          "ticks": 43872,
          "time": 85.6875,
          "velocity": 0.3937007874015748
        },
        {
          "duration": 0.046875,
          "durationTicks": 24,
          "midi": 76,
          "name": "E5",
          "ticks": 43872,
          "time": 85.6875,
          "velocity": 0.3937007874015748
        },
        {
          "duration": 0.046875,
          "durationTicks": 24,
          "midi": 64,
          "name": "E4",
          "ticks": 43872,
          "time": 85.6875,
          "velocity": 0.3937007874015748
        },
        {
          "duration": 0.046875,
          "durationTicks": 24,
          "midi": 64,
          "name": "E4",
          "ticks": 43872,
          "time": 85.6875,
          "velocity": 0.3937007874015748
        },
        {
          "duration": 0.046875,
          "durationTicks": 24,
          "midi": 39,
          "name": "D#2",
          "ticks": 43872,
          "time": 85.6875,
          "velocity": 0.3937007874015748
        },
        {
          "duration": 0.046875,
          "durationTicks": 24,
          "midi": 27,
          "name": "D#1",
          "ticks": 43896,
          "time": 85.734375,
          "velocity": 0.3937007874015748
        },
        {
          "duration": 0.046875,
          "durationTicks": 24,
          "midi": 39,
          "name": "D#2",
          "ticks": 43896,
          "time": 85.734375,
          "velocity": 0.3937007874015748
        },
        {
          "duration": 0.046875,
          "durationTicks": 24,
          "midi": 27,
          "name": "D#1",
          "ticks": 43896,
          "time": 85.734375,
          "velocity": 0.3937007874015748
        },
        {
          "duration": 0.046875,
          "durationTicks": 24,
          "midi": 27,
          "name": "D#1",
          "ticks": 43896,
          "time": 85.734375,
          "velocity": 0.3937007874015748
        },
        {
          "duration": 0.046875,
          "durationTicks": 24,
          "midi": 39,
          "name": "D#2",
          "ticks": 43896,
          "time": 85.734375,
          "velocity": 0.3937007874015748
        },
        {
          "duration": 0.046875,
          "durationTicks": 24,
          "midi": 39,
          "name": "D#2",
          "ticks": 43896,
          "time": 85.734375,
          "velocity": 0.3937007874015748
        },
        {
          "duration": 0.046875,
          "durationTicks": 24,
          "midi": 76,
          "name": "E5",
          "ticks": 43896,
          "time": 85.734375,
          "velocity": 0.3937007874015748
        },
        {
          "duration": 0.046875,
          "durationTicks": 24,
          "midi": 64,
          "name": "E4",
          "ticks": 43896,
          "time": 85.734375,
          "velocity": 0.3937007874015748
        },
        {
          "duration": 0.046875,
          "durationTicks": 24,
          "midi": 76,
          "name": "E5",
          "ticks": 43896,
          "time": 85.734375,
          "velocity": 0.3937007874015748
        },
        {
          "duration": 0.046875,
          "durationTicks": 24,
          "midi": 39,
          "name": "D#2",
          "ticks": 43896,
          "time": 85.734375,
          "velocity": 0.3937007874015748
        },
        {
          "duration": 0.046875,
          "durationTicks": 24,
          "midi": 64,
          "name": "E4",
          "ticks": 43896,
          "time": 85.734375,
          "velocity": 0.3937007874015748
        },
        {
          "duration": 0.046875,
          "durationTicks": 24,
          "midi": 76,
          "name": "E5",
          "ticks": 43896,
          "time": 85.734375,
          "velocity": 0.3937007874015748
        },
        {
          "duration": 0.046875,
          "durationTicks": 24,
          "midi": 64,
          "name": "E4",
          "ticks": 43896,
          "time": 85.734375,
          "velocity": 0.3937007874015748
        },
        {
          "duration": 0.046875,
          "durationTicks": 24,
          "midi": 64,
          "name": "E4",
          "ticks": 43896,
          "time": 85.734375,
          "velocity": 0.3937007874015748
        },
        {
          "duration": 0.046875,
          "durationTicks": 24,
          "midi": 27,
          "name": "D#1",
          "ticks": 43896,
          "time": 85.734375,
          "velocity": 0.3937007874015748
        },
        {
          "duration": 0.046875,
          "durationTicks": 24,
          "midi": 76,
          "name": "E5",
          "ticks": 43896,
          "time": 85.734375,
          "velocity": 0.3937007874015748
        },
        {
          "duration": 0.046875,
          "durationTicks": 24,
          "midi": 64,
          "name": "E4",
          "ticks": 43920,
          "time": 85.78125,
          "velocity": 0.3937007874015748
        },
        {
          "duration": 0.046875,
          "durationTicks": 24,
          "midi": 64,
          "name": "E4",
          "ticks": 43920,
          "time": 85.78125,
          "velocity": 0.3937007874015748
        },
        {
          "duration": 0.046875,
          "durationTicks": 24,
          "midi": 27,
          "name": "D#1",
          "ticks": 43920,
          "time": 85.78125,
          "velocity": 0.3937007874015748
        },
        {
          "duration": 0.046875,
          "durationTicks": 24,
          "midi": 64,
          "name": "E4",
          "ticks": 43920,
          "time": 85.78125,
          "velocity": 0.3937007874015748
        },
        {
          "duration": 0.046875,
          "durationTicks": 24,
          "midi": 27,
          "name": "D#1",
          "ticks": 43920,
          "time": 85.78125,
          "velocity": 0.3937007874015748
        },
        {
          "duration": 0.046875,
          "durationTicks": 24,
          "midi": 76,
          "name": "E5",
          "ticks": 43920,
          "time": 85.78125,
          "velocity": 0.3937007874015748
        },
        {
          "duration": 0.046875,
          "durationTicks": 24,
          "midi": 27,
          "name": "D#1",
          "ticks": 43920,
          "time": 85.78125,
          "velocity": 0.3937007874015748
        },
        {
          "duration": 0.046875,
          "durationTicks": 24,
          "midi": 39,
          "name": "D#2",
          "ticks": 43920,
          "time": 85.78125,
          "velocity": 0.3937007874015748
        },
        {
          "duration": 0.046875,
          "durationTicks": 24,
          "midi": 76,
          "name": "E5",
          "ticks": 43920,
          "time": 85.78125,
          "velocity": 0.3937007874015748
        },
        {
          "duration": 0.046875,
          "durationTicks": 24,
          "midi": 39,
          "name": "D#2",
          "ticks": 43920,
          "time": 85.78125,
          "velocity": 0.3937007874015748
        },
        {
          "duration": 0.046875,
          "durationTicks": 24,
          "midi": 76,
          "name": "E5",
          "ticks": 43920,
          "time": 85.78125,
          "velocity": 0.3937007874015748
        },
        {
          "duration": 0.046875,
          "durationTicks": 24,
          "midi": 76,
          "name": "E5",
          "ticks": 43920,
          "time": 85.78125,
          "velocity": 0.3937007874015748
        },
        {
          "duration": 0.046875,
          "durationTicks": 24,
          "midi": 39,
          "name": "D#2",
          "ticks": 43920,
          "time": 85.78125,
          "velocity": 0.3937007874015748
        },
        {
          "duration": 0.046875,
          "durationTicks": 24,
          "midi": 64,
          "name": "E4",
          "ticks": 43920,
          "time": 85.78125,
          "velocity": 0.3937007874015748
        },
        {
          "duration": 0.046875,
          "durationTicks": 24,
          "midi": 27,
          "name": "D#1",
          "ticks": 43920,
          "time": 85.78125,
          "velocity": 0.3937007874015748
        },
        {
          "duration": 0.046875,
          "durationTicks": 24,
          "midi": 39,
          "name": "D#2",
          "ticks": 43920,
          "time": 85.78125,
          "velocity": 0.3937007874015748
        },
        {
          "duration": 0.046875,
          "durationTicks": 24,
          "midi": 64,
          "name": "E4",
          "ticks": 43944,
          "time": 85.828125,
          "velocity": 0.3937007874015748
        },
        {
          "duration": 0.046875,
          "durationTicks": 24,
          "midi": 27,
          "name": "D#1",
          "ticks": 43944,
          "time": 85.828125,
          "velocity": 0.3937007874015748
        },
        {
          "duration": 0.046875,
          "durationTicks": 24,
          "midi": 39,
          "name": "D#2",
          "ticks": 43944,
          "time": 85.828125,
          "velocity": 0.3937007874015748
        },
        {
          "duration": 0.046875,
          "durationTicks": 24,
          "midi": 76,
          "name": "E5",
          "ticks": 43944,
          "time": 85.828125,
          "velocity": 0.3937007874015748
        },
        {
          "duration": 0.046875,
          "durationTicks": 24,
          "midi": 64,
          "name": "E4",
          "ticks": 43944,
          "time": 85.828125,
          "velocity": 0.3937007874015748
        },
        {
          "duration": 0.046875,
          "durationTicks": 24,
          "midi": 27,
          "name": "D#1",
          "ticks": 43944,
          "time": 85.828125,
          "velocity": 0.3937007874015748
        },
        {
          "duration": 0.046875,
          "durationTicks": 24,
          "midi": 64,
          "name": "E4",
          "ticks": 43944,
          "time": 85.828125,
          "velocity": 0.3937007874015748
        },
        {
          "duration": 0.046875,
          "durationTicks": 24,
          "midi": 64,
          "name": "E4",
          "ticks": 43944,
          "time": 85.828125,
          "velocity": 0.3937007874015748
        },
        {
          "duration": 0.046875,
          "durationTicks": 24,
          "midi": 39,
          "name": "D#2",
          "ticks": 43944,
          "time": 85.828125,
          "velocity": 0.3937007874015748
        },
        {
          "duration": 0.046875,
          "durationTicks": 24,
          "midi": 76,
          "name": "E5",
          "ticks": 43944,
          "time": 85.828125,
          "velocity": 0.3937007874015748
        },
        {
          "duration": 0.046875,
          "durationTicks": 24,
          "midi": 39,
          "name": "D#2",
          "ticks": 43944,
          "time": 85.828125,
          "velocity": 0.3937007874015748
        },
        {
          "duration": 0.046875,
          "durationTicks": 24,
          "midi": 76,
          "name": "E5",
          "ticks": 43944,
          "time": 85.828125,
          "velocity": 0.3937007874015748
        },
        {
          "duration": 0.046875,
          "durationTicks": 24,
          "midi": 39,
          "name": "D#2",
          "ticks": 43944,
          "time": 85.828125,
          "velocity": 0.3937007874015748
        },
        {
          "duration": 0.046875,
          "durationTicks": 24,
          "midi": 76,
          "name": "E5",
          "ticks": 43944,
          "time": 85.828125,
          "velocity": 0.3937007874015748
        },
        {
          "duration": 0.046875,
          "durationTicks": 24,
          "midi": 27,
          "name": "D#1",
          "ticks": 43944,
          "time": 85.828125,
          "velocity": 0.3937007874015748
        },
        {
          "duration": 0.046875,
          "durationTicks": 24,
          "midi": 27,
          "name": "D#1",
          "ticks": 43944,
          "time": 85.828125,
          "velocity": 0.3937007874015748
        },
        {
          "duration": 0.046875,
          "durationTicks": 24,
          "midi": 64,
          "name": "E4",
          "ticks": 43968,
          "time": 85.875,
          "velocity": 0.3937007874015748
        },
        {
          "duration": 0.046875,
          "durationTicks": 24,
          "midi": 39,
          "name": "D#2",
          "ticks": 43968,
          "time": 85.875,
          "velocity": 0.3937007874015748
        },
        {
          "duration": 0.046875,
          "durationTicks": 24,
          "midi": 39,
          "name": "D#2",
          "ticks": 43968,
          "time": 85.875,
          "velocity": 0.3937007874015748
        },
        {
          "duration": 0.046875,
          "durationTicks": 24,
          "midi": 64,
          "name": "E4",
          "ticks": 43968,
          "time": 85.875,
          "velocity": 0.3937007874015748
        },
        {
          "duration": 0.046875,
          "durationTicks": 24,
          "midi": 76,
          "name": "E5",
          "ticks": 43968,
          "time": 85.875,
          "velocity": 0.3937007874015748
        },
        {
          "duration": 0.046875,
          "durationTicks": 24,
          "midi": 64,
          "name": "E4",
          "ticks": 43968,
          "time": 85.875,
          "velocity": 0.3937007874015748
        },
        {
          "duration": 0.046875,
          "durationTicks": 24,
          "midi": 27,
          "name": "D#1",
          "ticks": 43968,
          "time": 85.875,
          "velocity": 0.3937007874015748
        },
        {
          "duration": 0.046875,
          "durationTicks": 24,
          "midi": 27,
          "name": "D#1",
          "ticks": 43968,
          "time": 85.875,
          "velocity": 0.3937007874015748
        },
        {
          "duration": 0.046875,
          "durationTicks": 24,
          "midi": 27,
          "name": "D#1",
          "ticks": 43968,
          "time": 85.875,
          "velocity": 0.3937007874015748
        },
        {
          "duration": 0.046875,
          "durationTicks": 24,
          "midi": 76,
          "name": "E5",
          "ticks": 43968,
          "time": 85.875,
          "velocity": 0.3937007874015748
        },
        {
          "duration": 0.046875,
          "durationTicks": 24,
          "midi": 27,
          "name": "D#1",
          "ticks": 43968,
          "time": 85.875,
          "velocity": 0.3937007874015748
        },
        {
          "duration": 0.046875,
          "durationTicks": 24,
          "midi": 39,
          "name": "D#2",
          "ticks": 43968,
          "time": 85.875,
          "velocity": 0.3937007874015748
        },
        {
          "duration": 0.046875,
          "durationTicks": 24,
          "midi": 76,
          "name": "E5",
          "ticks": 43968,
          "time": 85.875,
          "velocity": 0.3937007874015748
        },
        {
          "duration": 0.046875,
          "durationTicks": 24,
          "midi": 64,
          "name": "E4",
          "ticks": 43968,
          "time": 85.875,
          "velocity": 0.3937007874015748
        },
        {
          "duration": 0.046875,
          "durationTicks": 24,
          "midi": 76,
          "name": "E5",
          "ticks": 43968,
          "time": 85.875,
          "velocity": 0.3937007874015748
        },
        {
          "duration": 0.046875,
          "durationTicks": 24,
          "midi": 39,
          "name": "D#2",
          "ticks": 43968,
          "time": 85.875,
          "velocity": 0.3937007874015748
        },
        {
          "duration": 0.046875,
          "durationTicks": 24,
          "midi": 64,
          "name": "E4",
          "ticks": 43992,
          "time": 85.921875,
          "velocity": 0.3937007874015748
        },
        {
          "duration": 0.046875,
          "durationTicks": 24,
          "midi": 39,
          "name": "D#2",
          "ticks": 43992,
          "time": 85.921875,
          "velocity": 0.3937007874015748
        },
        {
          "duration": 0.046875,
          "durationTicks": 24,
          "midi": 76,
          "name": "E5",
          "ticks": 43992,
          "time": 85.921875,
          "velocity": 0.3937007874015748
        },
        {
          "duration": 0.046875,
          "durationTicks": 24,
          "midi": 27,
          "name": "D#1",
          "ticks": 43992,
          "time": 85.921875,
          "velocity": 0.3937007874015748
        },
        {
          "duration": 0.046875,
          "durationTicks": 24,
          "midi": 76,
          "name": "E5",
          "ticks": 43992,
          "time": 85.921875,
          "velocity": 0.3937007874015748
        },
        {
          "duration": 0.046875,
          "durationTicks": 24,
          "midi": 27,
          "name": "D#1",
          "ticks": 43992,
          "time": 85.921875,
          "velocity": 0.3937007874015748
        },
        {
          "duration": 0.046875,
          "durationTicks": 24,
          "midi": 27,
          "name": "D#1",
          "ticks": 43992,
          "time": 85.921875,
          "velocity": 0.3937007874015748
        },
        {
          "duration": 0.046875,
          "durationTicks": 24,
          "midi": 39,
          "name": "D#2",
          "ticks": 43992,
          "time": 85.921875,
          "velocity": 0.3937007874015748
        },
        {
          "duration": 0.046875,
          "durationTicks": 24,
          "midi": 64,
          "name": "E4",
          "ticks": 43992,
          "time": 85.921875,
          "velocity": 0.3937007874015748
        },
        {
          "duration": 0.046875,
          "durationTicks": 24,
          "midi": 64,
          "name": "E4",
          "ticks": 43992,
          "time": 85.921875,
          "velocity": 0.3937007874015748
        },
        {
          "duration": 0.046875,
          "durationTicks": 24,
          "midi": 39,
          "name": "D#2",
          "ticks": 43992,
          "time": 85.921875,
          "velocity": 0.3937007874015748
        },
        {
          "duration": 0.046875,
          "durationTicks": 24,
          "midi": 27,
          "name": "D#1",
          "ticks": 43992,
          "time": 85.921875,
          "velocity": 0.3937007874015748
        },
        {
          "duration": 0.046875,
          "durationTicks": 24,
          "midi": 64,
          "name": "E4",
          "ticks": 43992,
          "time": 85.921875,
          "velocity": 0.3937007874015748
        },
        {
          "duration": 0.046875,
          "durationTicks": 24,
          "midi": 76,
          "name": "E5",
          "ticks": 43992,
          "time": 85.921875,
          "velocity": 0.3937007874015748
        },
        {
          "duration": 0.046875,
          "durationTicks": 24,
          "midi": 76,
          "name": "E5",
          "ticks": 43992,
          "time": 85.921875,
          "velocity": 0.3937007874015748
        },
        {
          "duration": 0.046875,
          "durationTicks": 24,
          "midi": 39,
          "name": "D#2",
          "ticks": 43992,
          "time": 85.921875,
          "velocity": 0.3937007874015748
        },
        {
          "duration": 0.046875,
          "durationTicks": 24,
          "midi": 76,
          "name": "E5",
          "ticks": 44016,
          "time": 85.96875,
          "velocity": 0.3937007874015748
        },
        {
          "duration": 0.046875,
          "durationTicks": 24,
          "midi": 76,
          "name": "E5",
          "ticks": 44016,
          "time": 85.96875,
          "velocity": 0.3937007874015748
        },
        {
          "duration": 0.046875,
          "durationTicks": 24,
          "midi": 27,
          "name": "D#1",
          "ticks": 44016,
          "time": 85.96875,
          "velocity": 0.3937007874015748
        },
        {
          "duration": 0.046875,
          "durationTicks": 24,
          "midi": 64,
          "name": "E4",
          "ticks": 44016,
          "time": 85.96875,
          "velocity": 0.3937007874015748
        },
        {
          "duration": 0.046875,
          "durationTicks": 24,
          "midi": 76,
          "name": "E5",
          "ticks": 44016,
          "time": 85.96875,
          "velocity": 0.3937007874015748
        },
        {
          "duration": 0.046875,
          "durationTicks": 24,
          "midi": 64,
          "name": "E4",
          "ticks": 44016,
          "time": 85.96875,
          "velocity": 0.3937007874015748
        },
        {
          "duration": 0.046875,
          "durationTicks": 24,
          "midi": 39,
          "name": "D#2",
          "ticks": 44016,
          "time": 85.96875,
          "velocity": 0.3937007874015748
        },
        {
          "duration": 0.046875,
          "durationTicks": 24,
          "midi": 39,
          "name": "D#2",
          "ticks": 44016,
          "time": 85.96875,
          "velocity": 0.3937007874015748
        },
        {
          "duration": 0.046875,
          "durationTicks": 24,
          "midi": 27,
          "name": "D#1",
          "ticks": 44016,
          "time": 85.96875,
          "velocity": 0.3937007874015748
        },
        {
          "duration": 0.046875,
          "durationTicks": 24,
          "midi": 39,
          "name": "D#2",
          "ticks": 44016,
          "time": 85.96875,
          "velocity": 0.3937007874015748
        },
        {
          "duration": 0.046875,
          "durationTicks": 24,
          "midi": 64,
          "name": "E4",
          "ticks": 44016,
          "time": 85.96875,
          "velocity": 0.3937007874015748
        },
        {
          "duration": 0.046875,
          "durationTicks": 24,
          "midi": 27,
          "name": "D#1",
          "ticks": 44016,
          "time": 85.96875,
          "velocity": 0.3937007874015748
        },
        {
          "duration": 0.046875,
          "durationTicks": 24,
          "midi": 27,
          "name": "D#1",
          "ticks": 44016,
          "time": 85.96875,
          "velocity": 0.3937007874015748
        },
        {
          "duration": 0.046875,
          "durationTicks": 24,
          "midi": 39,
          "name": "D#2",
          "ticks": 44016,
          "time": 85.96875,
          "velocity": 0.3937007874015748
        },
        {
          "duration": 0.046875,
          "durationTicks": 24,
          "midi": 64,
          "name": "E4",
          "ticks": 44016,
          "time": 85.96875,
          "velocity": 0.3937007874015748
        },
        {
          "duration": 0.046875,
          "durationTicks": 24,
          "midi": 76,
          "name": "E5",
          "ticks": 44016,
          "time": 85.96875,
          "velocity": 0.3937007874015748
        },
        {
          "duration": 0.046875,
          "durationTicks": 24,
          "midi": 27,
          "name": "D#1",
          "ticks": 44040,
          "time": 86.015625,
          "velocity": 0.3937007874015748
        },
        {
          "duration": 0.046875,
          "durationTicks": 24,
          "midi": 64,
          "name": "E4",
          "ticks": 44040,
          "time": 86.015625,
          "velocity": 0.3937007874015748
        },
        {
          "duration": 0.046875,
          "durationTicks": 24,
          "midi": 27,
          "name": "D#1",
          "ticks": 44040,
          "time": 86.015625,
          "velocity": 0.3937007874015748
        },
        {
          "duration": 0.046875,
          "durationTicks": 24,
          "midi": 39,
          "name": "D#2",
          "ticks": 44040,
          "time": 86.015625,
          "velocity": 0.3937007874015748
        },
        {
          "duration": 0.046875,
          "durationTicks": 24,
          "midi": 76,
          "name": "E5",
          "ticks": 44040,
          "time": 86.015625,
          "velocity": 0.3937007874015748
        },
        {
          "duration": 0.046875,
          "durationTicks": 24,
          "midi": 64,
          "name": "E4",
          "ticks": 44040,
          "time": 86.015625,
          "velocity": 0.3937007874015748
        },
        {
          "duration": 0.046875,
          "durationTicks": 24,
          "midi": 64,
          "name": "E4",
          "ticks": 44040,
          "time": 86.015625,
          "velocity": 0.3937007874015748
        },
        {
          "duration": 0.046875,
          "durationTicks": 24,
          "midi": 27,
          "name": "D#1",
          "ticks": 44040,
          "time": 86.015625,
          "velocity": 0.3937007874015748
        },
        {
          "duration": 0.046875,
          "durationTicks": 24,
          "midi": 76,
          "name": "E5",
          "ticks": 44040,
          "time": 86.015625,
          "velocity": 0.3937007874015748
        },
        {
          "duration": 0.046875,
          "durationTicks": 24,
          "midi": 76,
          "name": "E5",
          "ticks": 44040,
          "time": 86.015625,
          "velocity": 0.3937007874015748
        },
        {
          "duration": 0.046875,
          "durationTicks": 24,
          "midi": 39,
          "name": "D#2",
          "ticks": 44040,
          "time": 86.015625,
          "velocity": 0.3937007874015748
        },
        {
          "duration": 0.046875,
          "durationTicks": 24,
          "midi": 39,
          "name": "D#2",
          "ticks": 44040,
          "time": 86.015625,
          "velocity": 0.3937007874015748
        },
        {
          "duration": 0.046875,
          "durationTicks": 24,
          "midi": 76,
          "name": "E5",
          "ticks": 44040,
          "time": 86.015625,
          "velocity": 0.3937007874015748
        },
        {
          "duration": 0.046875,
          "durationTicks": 24,
          "midi": 64,
          "name": "E4",
          "ticks": 44040,
          "time": 86.015625,
          "velocity": 0.3937007874015748
        },
        {
          "duration": 0.046875,
          "durationTicks": 24,
          "midi": 39,
          "name": "D#2",
          "ticks": 44040,
          "time": 86.015625,
          "velocity": 0.3937007874015748
        },
        {
          "duration": 0.046875,
          "durationTicks": 24,
          "midi": 27,
          "name": "D#1",
          "ticks": 44040,
          "time": 86.015625,
          "velocity": 0.3937007874015748
        },
        {
          "duration": 0.046875,
          "durationTicks": 24,
          "midi": 76,
          "name": "E5",
          "ticks": 44064,
          "time": 86.0625,
          "velocity": 0.3937007874015748
        },
        {
          "duration": 0.046875,
          "durationTicks": 24,
          "midi": 39,
          "name": "D#2",
          "ticks": 44064,
          "time": 86.0625,
          "velocity": 0.3937007874015748
        },
        {
          "duration": 0.046875,
          "durationTicks": 24,
          "midi": 76,
          "name": "E5",
          "ticks": 44064,
          "time": 86.0625,
          "velocity": 0.3937007874015748
        },
        {
          "duration": 0.046875,
          "durationTicks": 24,
          "midi": 39,
          "name": "D#2",
          "ticks": 44064,
          "time": 86.0625,
          "velocity": 0.3937007874015748
        },
        {
          "duration": 0.046875,
          "durationTicks": 24,
          "midi": 64,
          "name": "E4",
          "ticks": 44064,
          "time": 86.0625,
          "velocity": 0.3937007874015748
        },
        {
          "duration": 0.046875,
          "durationTicks": 24,
          "midi": 27,
          "name": "D#1",
          "ticks": 44064,
          "time": 86.0625,
          "velocity": 0.3937007874015748
        },
        {
          "duration": 0.046875,
          "durationTicks": 24,
          "midi": 27,
          "name": "D#1",
          "ticks": 44064,
          "time": 86.0625,
          "velocity": 0.3937007874015748
        },
        {
          "duration": 0.046875,
          "durationTicks": 24,
          "midi": 64,
          "name": "E4",
          "ticks": 44064,
          "time": 86.0625,
          "velocity": 0.3937007874015748
        },
        {
          "duration": 0.046875,
          "durationTicks": 24,
          "midi": 39,
          "name": "D#2",
          "ticks": 44088,
          "time": 86.109375,
          "velocity": 0.3937007874015748
        },
        {
          "duration": 0.046875,
          "durationTicks": 24,
          "midi": 64,
          "name": "E4",
          "ticks": 44088,
          "time": 86.109375,
          "velocity": 0.3937007874015748
        },
        {
          "duration": 0.046875,
          "durationTicks": 24,
          "midi": 39,
          "name": "D#2",
          "ticks": 44088,
          "time": 86.109375,
          "velocity": 0.3937007874015748
        },
        {
          "duration": 0.046875,
          "durationTicks": 24,
          "midi": 27,
          "name": "D#1",
          "ticks": 44088,
          "time": 86.109375,
          "velocity": 0.3937007874015748
        },
        {
          "duration": 0.046875,
          "durationTicks": 24,
          "midi": 76,
          "name": "E5",
          "ticks": 44088,
          "time": 86.109375,
          "velocity": 0.3937007874015748
        },
        {
          "duration": 0.046875,
          "durationTicks": 24,
          "midi": 64,
          "name": "E4",
          "ticks": 44088,
          "time": 86.109375,
          "velocity": 0.3937007874015748
        },
        {
          "duration": 0.046875,
          "durationTicks": 24,
          "midi": 76,
          "name": "E5",
          "ticks": 44088,
          "time": 86.109375,
          "velocity": 0.3937007874015748
        },
        {
          "duration": 0.046875,
          "durationTicks": 24,
          "midi": 27,
          "name": "D#1",
          "ticks": 44088,
          "time": 86.109375,
          "velocity": 0.3937007874015748
        },
        {
          "duration": 0.046875,
          "durationTicks": 24,
          "midi": 27,
          "name": "D#1",
          "ticks": 44112,
          "time": 86.15625,
          "velocity": 0.3937007874015748
        },
        {
          "duration": 0.046875,
          "durationTicks": 24,
          "midi": 27,
          "name": "D#1",
          "ticks": 44112,
          "time": 86.15625,
          "velocity": 0.3937007874015748
        },
        {
          "duration": 0.046875,
          "durationTicks": 24,
          "midi": 64,
          "name": "E4",
          "ticks": 44112,
          "time": 86.15625,
          "velocity": 0.3937007874015748
        },
        {
          "duration": 0.046875,
          "durationTicks": 24,
          "midi": 64,
          "name": "E4",
          "ticks": 44112,
          "time": 86.15625,
          "velocity": 0.3937007874015748
        },
        {
          "duration": 0.046875,
          "durationTicks": 24,
          "midi": 76,
          "name": "E5",
          "ticks": 44112,
          "time": 86.15625,
          "velocity": 0.3937007874015748
        },
        {
          "duration": 0.046875,
          "durationTicks": 24,
          "midi": 39,
          "name": "D#2",
          "ticks": 44112,
          "time": 86.15625,
          "velocity": 0.3937007874015748
        },
        {
          "duration": 0.046875,
          "durationTicks": 24,
          "midi": 76,
          "name": "E5",
          "ticks": 44112,
          "time": 86.15625,
          "velocity": 0.3937007874015748
        },
        {
          "duration": 0.046875,
          "durationTicks": 24,
          "midi": 39,
          "name": "D#2",
          "ticks": 44112,
          "time": 86.15625,
          "velocity": 0.3937007874015748
        },
        {
          "duration": 0.046875,
          "durationTicks": 24,
          "midi": 76,
          "name": "E5",
          "ticks": 44136,
          "time": 86.203125,
          "velocity": 0.3937007874015748
        },
        {
          "duration": 0.046875,
          "durationTicks": 24,
          "midi": 27,
          "name": "D#1",
          "ticks": 44136,
          "time": 86.203125,
          "velocity": 0.3937007874015748
        },
        {
          "duration": 0.046875,
          "durationTicks": 24,
          "midi": 39,
          "name": "D#2",
          "ticks": 44136,
          "time": 86.203125,
          "velocity": 0.3937007874015748
        },
        {
          "duration": 0.046875,
          "durationTicks": 24,
          "midi": 64,
          "name": "E4",
          "ticks": 44136,
          "time": 86.203125,
          "velocity": 0.3937007874015748
        },
        {
          "duration": 0.046875,
          "durationTicks": 24,
          "midi": 76,
          "name": "E5",
          "ticks": 44136,
          "time": 86.203125,
          "velocity": 0.3937007874015748
        },
        {
          "duration": 0.046875,
          "durationTicks": 24,
          "midi": 27,
          "name": "D#1",
          "ticks": 44136,
          "time": 86.203125,
          "velocity": 0.3937007874015748
        },
        {
          "duration": 0.046875,
          "durationTicks": 24,
          "midi": 64,
          "name": "E4",
          "ticks": 44136,
          "time": 86.203125,
          "velocity": 0.3937007874015748
        },
        {
          "duration": 0.046875,
          "durationTicks": 24,
          "midi": 39,
          "name": "D#2",
          "ticks": 44136,
          "time": 86.203125,
          "velocity": 0.3937007874015748
        },
        {
          "duration": 0.046875,
          "durationTicks": 24,
          "midi": 57,
          "name": "A3",
          "ticks": 44160,
          "time": 86.25,
          "velocity": 0.3937007874015748
        },
        {
          "duration": 0.046875,
          "durationTicks": 24,
          "midi": 76,
          "name": "E5",
          "ticks": 44160,
          "time": 86.25,
          "velocity": 0.3937007874015748
        },
        {
          "duration": 0.046875,
          "durationTicks": 24,
          "midi": 57,
          "name": "A3",
          "ticks": 44160,
          "time": 86.25,
          "velocity": 0.3937007874015748
        },
        {
          "duration": 0.046875,
          "durationTicks": 24,
          "midi": 53,
          "name": "F3",
          "ticks": 44160,
          "time": 86.25,
          "velocity": 0.3937007874015748
        },
        {
          "duration": 0.046875,
          "durationTicks": 24,
          "midi": 53,
          "name": "F3",
          "ticks": 44160,
          "time": 86.25,
          "velocity": 0.3937007874015748
        },
        {
          "duration": 0.046875,
          "durationTicks": 24,
          "midi": 53,
          "name": "F3",
          "ticks": 44160,
          "time": 86.25,
          "velocity": 0.3937007874015748
        },
        {
          "duration": 0.046875,
          "durationTicks": 24,
          "midi": 57,
          "name": "A3",
          "ticks": 44160,
          "time": 86.25,
          "velocity": 0.3937007874015748
        },
        {
          "duration": 0.046875,
          "durationTicks": 24,
          "midi": 53,
          "name": "F3",
          "ticks": 44160,
          "time": 86.25,
          "velocity": 0.3937007874015748
        },
        {
          "duration": 0.046875,
          "durationTicks": 24,
          "midi": 64,
          "name": "E4",
          "ticks": 44160,
          "time": 86.25,
          "velocity": 0.3937007874015748
        },
        {
          "duration": 0.046875,
          "durationTicks": 24,
          "midi": 57,
          "name": "A3",
          "ticks": 44160,
          "time": 86.25,
          "velocity": 0.3937007874015748
        },
        {
          "duration": 0.046875,
          "durationTicks": 24,
          "midi": 64,
          "name": "E4",
          "ticks": 44160,
          "time": 86.25,
          "velocity": 0.3937007874015748
        },
        {
          "duration": 0.046875,
          "durationTicks": 24,
          "midi": 53,
          "name": "F3",
          "ticks": 44160,
          "time": 86.25,
          "velocity": 0.3937007874015748
        },
        {
          "duration": 0.046875,
          "durationTicks": 24,
          "midi": 76,
          "name": "E5",
          "ticks": 44160,
          "time": 86.25,
          "velocity": 0.3937007874015748
        },
        {
          "duration": 0.046875,
          "durationTicks": 24,
          "midi": 57,
          "name": "A3",
          "ticks": 44160,
          "time": 86.25,
          "velocity": 0.3937007874015748
        },
        {
          "duration": 0.046875,
          "durationTicks": 24,
          "midi": 57,
          "name": "A3",
          "ticks": 44160,
          "time": 86.25,
          "velocity": 0.3937007874015748
        },
        {
          "duration": 0.046875,
          "durationTicks": 24,
          "midi": 53,
          "name": "F3",
          "ticks": 44160,
          "time": 86.25,
          "velocity": 0.3937007874015748
        },
        {
          "duration": 0.046875,
          "durationTicks": 24,
          "midi": 57,
          "name": "A3",
          "ticks": 44184,
          "time": 86.296875,
          "velocity": 0.3937007874015748
        },
        {
          "duration": 0.046875,
          "durationTicks": 24,
          "midi": 76,
          "name": "E5",
          "ticks": 44184,
          "time": 86.296875,
          "velocity": 0.3937007874015748
        },
        {
          "duration": 0.046875,
          "durationTicks": 24,
          "midi": 76,
          "name": "E5",
          "ticks": 44184,
          "time": 86.296875,
          "velocity": 0.3937007874015748
        },
        {
          "duration": 0.046875,
          "durationTicks": 24,
          "midi": 57,
          "name": "A3",
          "ticks": 44184,
          "time": 86.296875,
          "velocity": 0.3937007874015748
        },
        {
          "duration": 0.046875,
          "durationTicks": 24,
          "midi": 57,
          "name": "A3",
          "ticks": 44184,
          "time": 86.296875,
          "velocity": 0.3937007874015748
        },
        {
          "duration": 0.046875,
          "durationTicks": 24,
          "midi": 64,
          "name": "E4",
          "ticks": 44184,
          "time": 86.296875,
          "velocity": 0.3937007874015748
        },
        {
          "duration": 0.046875,
          "durationTicks": 24,
          "midi": 53,
          "name": "F3",
          "ticks": 44184,
          "time": 86.296875,
          "velocity": 0.3937007874015748
        },
        {
          "duration": 0.046875,
          "durationTicks": 24,
          "midi": 57,
          "name": "A3",
          "ticks": 44184,
          "time": 86.296875,
          "velocity": 0.3937007874015748
        },
        {
          "duration": 0.046875,
          "durationTicks": 24,
          "midi": 53,
          "name": "F3",
          "ticks": 44184,
          "time": 86.296875,
          "velocity": 0.3937007874015748
        },
        {
          "duration": 0.046875,
          "durationTicks": 24,
          "midi": 53,
          "name": "F3",
          "ticks": 44184,
          "time": 86.296875,
          "velocity": 0.3937007874015748
        },
        {
          "duration": 0.046875,
          "durationTicks": 24,
          "midi": 53,
          "name": "F3",
          "ticks": 44184,
          "time": 86.296875,
          "velocity": 0.3937007874015748
        },
        {
          "duration": 0.046875,
          "durationTicks": 24,
          "midi": 64,
          "name": "E4",
          "ticks": 44184,
          "time": 86.296875,
          "velocity": 0.3937007874015748
        },
        {
          "duration": 0.046875,
          "durationTicks": 24,
          "midi": 57,
          "name": "A3",
          "ticks": 44184,
          "time": 86.296875,
          "velocity": 0.3937007874015748
        },
        {
          "duration": 0.046875,
          "durationTicks": 24,
          "midi": 53,
          "name": "F3",
          "ticks": 44184,
          "time": 86.296875,
          "velocity": 0.3937007874015748
        },
        {
          "duration": 0.046875,
          "durationTicks": 24,
          "midi": 53,
          "name": "F3",
          "ticks": 44184,
          "time": 86.296875,
          "velocity": 0.3937007874015748
        },
        {
          "duration": 0.046875,
          "durationTicks": 24,
          "midi": 57,
          "name": "A3",
          "ticks": 44184,
          "time": 86.296875,
          "velocity": 0.3937007874015748
        },
        {
          "duration": 0.046875,
          "durationTicks": 24,
          "midi": 53,
          "name": "F3",
          "ticks": 44208,
          "time": 86.34375,
          "velocity": 0.3937007874015748
        },
        {
          "duration": 0.046875,
          "durationTicks": 24,
          "midi": 57,
          "name": "A3",
          "ticks": 44208,
          "time": 86.34375,
          "velocity": 0.3937007874015748
        },
        {
          "duration": 0.046875,
          "durationTicks": 24,
          "midi": 53,
          "name": "F3",
          "ticks": 44208,
          "time": 86.34375,
          "velocity": 0.3937007874015748
        },
        {
          "duration": 0.046875,
          "durationTicks": 24,
          "midi": 76,
          "name": "E5",
          "ticks": 44208,
          "time": 86.34375,
          "velocity": 0.3937007874015748
        },
        {
          "duration": 0.046875,
          "durationTicks": 24,
          "midi": 53,
          "name": "F3",
          "ticks": 44208,
          "time": 86.34375,
          "velocity": 0.3937007874015748
        },
        {
          "duration": 0.046875,
          "durationTicks": 24,
          "midi": 53,
          "name": "F3",
          "ticks": 44208,
          "time": 86.34375,
          "velocity": 0.3937007874015748
        },
        {
          "duration": 0.046875,
          "durationTicks": 24,
          "midi": 76,
          "name": "E5",
          "ticks": 44208,
          "time": 86.34375,
          "velocity": 0.3937007874015748
        },
        {
          "duration": 0.046875,
          "durationTicks": 24,
          "midi": 57,
          "name": "A3",
          "ticks": 44208,
          "time": 86.34375,
          "velocity": 0.3937007874015748
        },
        {
          "duration": 0.046875,
          "durationTicks": 24,
          "midi": 53,
          "name": "F3",
          "ticks": 44208,
          "time": 86.34375,
          "velocity": 0.3937007874015748
        },
        {
          "duration": 0.046875,
          "durationTicks": 24,
          "midi": 64,
          "name": "E4",
          "ticks": 44208,
          "time": 86.34375,
          "velocity": 0.3937007874015748
        },
        {
          "duration": 0.046875,
          "durationTicks": 24,
          "midi": 64,
          "name": "E4",
          "ticks": 44208,
          "time": 86.34375,
          "velocity": 0.3937007874015748
        },
        {
          "duration": 0.046875,
          "durationTicks": 24,
          "midi": 57,
          "name": "A3",
          "ticks": 44208,
          "time": 86.34375,
          "velocity": 0.3937007874015748
        },
        {
          "duration": 0.046875,
          "durationTicks": 24,
          "midi": 57,
          "name": "A3",
          "ticks": 44208,
          "time": 86.34375,
          "velocity": 0.3937007874015748
        },
        {
          "duration": 0.046875,
          "durationTicks": 24,
          "midi": 57,
          "name": "A3",
          "ticks": 44208,
          "time": 86.34375,
          "velocity": 0.3937007874015748
        },
        {
          "duration": 0.046875,
          "durationTicks": 24,
          "midi": 53,
          "name": "F3",
          "ticks": 44208,
          "time": 86.34375,
          "velocity": 0.3937007874015748
        },
        {
          "duration": 0.046875,
          "durationTicks": 24,
          "midi": 57,
          "name": "A3",
          "ticks": 44208,
          "time": 86.34375,
          "velocity": 0.3937007874015748
        },
        {
          "duration": 0.046875,
          "durationTicks": 24,
          "midi": 57,
          "name": "A3",
          "ticks": 44232,
          "time": 86.390625,
          "velocity": 0.3937007874015748
        },
        {
          "duration": 0.046875,
          "durationTicks": 24,
          "midi": 57,
          "name": "A3",
          "ticks": 44232,
          "time": 86.390625,
          "velocity": 0.3937007874015748
        },
        {
          "duration": 0.046875,
          "durationTicks": 24,
          "midi": 57,
          "name": "A3",
          "ticks": 44232,
          "time": 86.390625,
          "velocity": 0.3937007874015748
        },
        {
          "duration": 0.046875,
          "durationTicks": 24,
          "midi": 57,
          "name": "A3",
          "ticks": 44232,
          "time": 86.390625,
          "velocity": 0.3937007874015748
        },
        {
          "duration": 0.046875,
          "durationTicks": 24,
          "midi": 53,
          "name": "F3",
          "ticks": 44232,
          "time": 86.390625,
          "velocity": 0.3937007874015748
        },
        {
          "duration": 0.046875,
          "durationTicks": 24,
          "midi": 57,
          "name": "A3",
          "ticks": 44232,
          "time": 86.390625,
          "velocity": 0.3937007874015748
        },
        {
          "duration": 0.046875,
          "durationTicks": 24,
          "midi": 53,
          "name": "F3",
          "ticks": 44232,
          "time": 86.390625,
          "velocity": 0.3937007874015748
        },
        {
          "duration": 0.046875,
          "durationTicks": 24,
          "midi": 53,
          "name": "F3",
          "ticks": 44232,
          "time": 86.390625,
          "velocity": 0.3937007874015748
        },
        {
          "duration": 0.046875,
          "durationTicks": 24,
          "midi": 57,
          "name": "A3",
          "ticks": 44232,
          "time": 86.390625,
          "velocity": 0.3937007874015748
        },
        {
          "duration": 0.046875,
          "durationTicks": 24,
          "midi": 53,
          "name": "F3",
          "ticks": 44232,
          "time": 86.390625,
          "velocity": 0.3937007874015748
        },
        {
          "duration": 0.046875,
          "durationTicks": 24,
          "midi": 76,
          "name": "E5",
          "ticks": 44232,
          "time": 86.390625,
          "velocity": 0.3937007874015748
        },
        {
          "duration": 0.046875,
          "durationTicks": 24,
          "midi": 64,
          "name": "E4",
          "ticks": 44232,
          "time": 86.390625,
          "velocity": 0.3937007874015748
        },
        {
          "duration": 0.046875,
          "durationTicks": 24,
          "midi": 53,
          "name": "F3",
          "ticks": 44232,
          "time": 86.390625,
          "velocity": 0.3937007874015748
        },
        {
          "duration": 0.046875,
          "durationTicks": 24,
          "midi": 64,
          "name": "E4",
          "ticks": 44232,
          "time": 86.390625,
          "velocity": 0.3937007874015748
        },
        {
          "duration": 0.046875,
          "durationTicks": 24,
          "midi": 76,
          "name": "E5",
          "ticks": 44232,
          "time": 86.390625,
          "velocity": 0.3937007874015748
        },
        {
          "duration": 0.046875,
          "durationTicks": 24,
          "midi": 53,
          "name": "F3",
          "ticks": 44232,
          "time": 86.390625,
          "velocity": 0.3937007874015748
        },
        {
          "duration": 0.046875,
          "durationTicks": 24,
          "midi": 53,
          "name": "F3",
          "ticks": 44256,
          "time": 86.4375,
          "velocity": 0.3937007874015748
        },
        {
          "duration": 0.046875,
          "durationTicks": 24,
          "midi": 76,
          "name": "E5",
          "ticks": 44256,
          "time": 86.4375,
          "velocity": 0.3937007874015748
        },
        {
          "duration": 0.046875,
          "durationTicks": 24,
          "midi": 53,
          "name": "F3",
          "ticks": 44256,
          "time": 86.4375,
          "velocity": 0.3937007874015748
        },
        {
          "duration": 0.046875,
          "durationTicks": 24,
          "midi": 57,
          "name": "A3",
          "ticks": 44256,
          "time": 86.4375,
          "velocity": 0.3937007874015748
        },
        {
          "duration": 0.046875,
          "durationTicks": 24,
          "midi": 57,
          "name": "A3",
          "ticks": 44256,
          "time": 86.4375,
          "velocity": 0.3937007874015748
        },
        {
          "duration": 0.046875,
          "durationTicks": 24,
          "midi": 64,
          "name": "E4",
          "ticks": 44256,
          "time": 86.4375,
          "velocity": 0.3937007874015748
        },
        {
          "duration": 0.046875,
          "durationTicks": 24,
          "midi": 53,
          "name": "F3",
          "ticks": 44256,
          "time": 86.4375,
          "velocity": 0.3937007874015748
        },
        {
          "duration": 0.046875,
          "durationTicks": 24,
          "midi": 57,
          "name": "A3",
          "ticks": 44256,
          "time": 86.4375,
          "velocity": 0.3937007874015748
        },
        {
          "duration": 0.046875,
          "durationTicks": 24,
          "midi": 76,
          "name": "E5",
          "ticks": 44256,
          "time": 86.4375,
          "velocity": 0.3937007874015748
        },
        {
          "duration": 0.046875,
          "durationTicks": 24,
          "midi": 53,
          "name": "F3",
          "ticks": 44256,
          "time": 86.4375,
          "velocity": 0.3937007874015748
        },
        {
          "duration": 0.046875,
          "durationTicks": 24,
          "midi": 64,
          "name": "E4",
          "ticks": 44256,
          "time": 86.4375,
          "velocity": 0.3937007874015748
        },
        {
          "duration": 0.046875,
          "durationTicks": 24,
          "midi": 57,
          "name": "A3",
          "ticks": 44256,
          "time": 86.4375,
          "velocity": 0.3937007874015748
        },
        {
          "duration": 0.046875,
          "durationTicks": 24,
          "midi": 53,
          "name": "F3",
          "ticks": 44280,
          "time": 86.484375,
          "velocity": 0.3937007874015748
        },
        {
          "duration": 0.046875,
          "durationTicks": 24,
          "midi": 53,
          "name": "F3",
          "ticks": 44280,
          "time": 86.484375,
          "velocity": 0.3937007874015748
        },
        {
          "duration": 0.046875,
          "durationTicks": 24,
          "midi": 76,
          "name": "E5",
          "ticks": 44280,
          "time": 86.484375,
          "velocity": 0.3937007874015748
        },
        {
          "duration": 0.046875,
          "durationTicks": 24,
          "midi": 57,
          "name": "A3",
          "ticks": 44280,
          "time": 86.484375,
          "velocity": 0.3937007874015748
        },
        {
          "duration": 0.046875,
          "durationTicks": 24,
          "midi": 53,
          "name": "F3",
          "ticks": 44280,
          "time": 86.484375,
          "velocity": 0.3937007874015748
        },
        {
          "duration": 0.046875,
          "durationTicks": 24,
          "midi": 57,
          "name": "A3",
          "ticks": 44280,
          "time": 86.484375,
          "velocity": 0.3937007874015748
        },
        {
          "duration": 0.046875,
          "durationTicks": 24,
          "midi": 76,
          "name": "E5",
          "ticks": 44280,
          "time": 86.484375,
          "velocity": 0.3937007874015748
        },
        {
          "duration": 0.046875,
          "durationTicks": 24,
          "midi": 64,
          "name": "E4",
          "ticks": 44280,
          "time": 86.484375,
          "velocity": 0.3937007874015748
        },
        {
          "duration": 0.046875,
          "durationTicks": 24,
          "midi": 64,
          "name": "E4",
          "ticks": 44280,
          "time": 86.484375,
          "velocity": 0.3937007874015748
        },
        {
          "duration": 0.046875,
          "durationTicks": 24,
          "midi": 57,
          "name": "A3",
          "ticks": 44280,
          "time": 86.484375,
          "velocity": 0.3937007874015748
        },
        {
          "duration": 0.046875,
          "durationTicks": 24,
          "midi": 53,
          "name": "F3",
          "ticks": 44280,
          "time": 86.484375,
          "velocity": 0.3937007874015748
        },
        {
          "duration": 0.046875,
          "durationTicks": 24,
          "midi": 57,
          "name": "A3",
          "ticks": 44280,
          "time": 86.484375,
          "velocity": 0.3937007874015748
        },
        {
          "duration": 0.046875,
          "durationTicks": 24,
          "midi": 53,
          "name": "F3",
          "ticks": 44304,
          "time": 86.53125,
          "velocity": 0.3937007874015748
        },
        {
          "duration": 0.046875,
          "durationTicks": 24,
          "midi": 57,
          "name": "A3",
          "ticks": 44304,
          "time": 86.53125,
          "velocity": 0.3937007874015748
        },
        {
          "duration": 0.046875,
          "durationTicks": 24,
          "midi": 53,
          "name": "F3",
          "ticks": 44304,
          "time": 86.53125,
          "velocity": 0.3937007874015748
        },
        {
          "duration": 0.046875,
          "durationTicks": 24,
          "midi": 64,
          "name": "E4",
          "ticks": 44304,
          "time": 86.53125,
          "velocity": 0.3937007874015748
        },
        {
          "duration": 0.046875,
          "durationTicks": 24,
          "midi": 57,
          "name": "A3",
          "ticks": 44304,
          "time": 86.53125,
          "velocity": 0.3937007874015748
        },
        {
          "duration": 0.046875,
          "durationTicks": 24,
          "midi": 76,
          "name": "E5",
          "ticks": 44304,
          "time": 86.53125,
          "velocity": 0.3937007874015748
        },
        {
          "duration": 0.046875,
          "durationTicks": 24,
          "midi": 57,
          "name": "A3",
          "ticks": 44304,
          "time": 86.53125,
          "velocity": 0.3937007874015748
        },
        {
          "duration": 0.046875,
          "durationTicks": 24,
          "midi": 53,
          "name": "F3",
          "ticks": 44304,
          "time": 86.53125,
          "velocity": 0.3937007874015748
        },
        {
          "duration": 0.046875,
          "durationTicks": 24,
          "midi": 64,
          "name": "E4",
          "ticks": 44304,
          "time": 86.53125,
          "velocity": 0.3937007874015748
        },
        {
          "duration": 0.046875,
          "durationTicks": 24,
          "midi": 57,
          "name": "A3",
          "ticks": 44304,
          "time": 86.53125,
          "velocity": 0.3937007874015748
        },
        {
          "duration": 0.046875,
          "durationTicks": 24,
          "midi": 76,
          "name": "E5",
          "ticks": 44304,
          "time": 86.53125,
          "velocity": 0.3937007874015748
        },
        {
          "duration": 0.046875,
          "durationTicks": 24,
          "midi": 53,
          "name": "F3",
          "ticks": 44304,
          "time": 86.53125,
          "velocity": 0.3937007874015748
        },
        {
          "duration": 0.046875,
          "durationTicks": 24,
          "midi": 53,
          "name": "F3",
          "ticks": 44328,
          "time": 86.578125,
          "velocity": 0.3937007874015748
        },
        {
          "duration": 0.046875,
          "durationTicks": 24,
          "midi": 64,
          "name": "E4",
          "ticks": 44328,
          "time": 86.578125,
          "velocity": 0.3937007874015748
        },
        {
          "duration": 0.046875,
          "durationTicks": 24,
          "midi": 53,
          "name": "F3",
          "ticks": 44328,
          "time": 86.578125,
          "velocity": 0.3937007874015748
        },
        {
          "duration": 0.046875,
          "durationTicks": 24,
          "midi": 57,
          "name": "A3",
          "ticks": 44328,
          "time": 86.578125,
          "velocity": 0.3937007874015748
        },
        {
          "duration": 0.046875,
          "durationTicks": 24,
          "midi": 57,
          "name": "A3",
          "ticks": 44328,
          "time": 86.578125,
          "velocity": 0.3937007874015748
        },
        {
          "duration": 0.046875,
          "durationTicks": 24,
          "midi": 57,
          "name": "A3",
          "ticks": 44328,
          "time": 86.578125,
          "velocity": 0.3937007874015748
        },
        {
          "duration": 0.046875,
          "durationTicks": 24,
          "midi": 57,
          "name": "A3",
          "ticks": 44328,
          "time": 86.578125,
          "velocity": 0.3937007874015748
        },
        {
          "duration": 0.046875,
          "durationTicks": 24,
          "midi": 64,
          "name": "E4",
          "ticks": 44328,
          "time": 86.578125,
          "velocity": 0.3937007874015748
        },
        {
          "duration": 0.046875,
          "durationTicks": 24,
          "midi": 76,
          "name": "E5",
          "ticks": 44328,
          "time": 86.578125,
          "velocity": 0.3937007874015748
        },
        {
          "duration": 0.046875,
          "durationTicks": 24,
          "midi": 53,
          "name": "F3",
          "ticks": 44328,
          "time": 86.578125,
          "velocity": 0.3937007874015748
        },
        {
          "duration": 0.046875,
          "durationTicks": 24,
          "midi": 53,
          "name": "F3",
          "ticks": 44328,
          "time": 86.578125,
          "velocity": 0.3937007874015748
        },
        {
          "duration": 0.046875,
          "durationTicks": 24,
          "midi": 76,
          "name": "E5",
          "ticks": 44328,
          "time": 86.578125,
          "velocity": 0.3937007874015748
        },
        {
          "duration": 0.046875,
          "durationTicks": 24,
          "midi": 57,
          "name": "A3",
          "ticks": 44352,
          "time": 86.625,
          "velocity": 0.3937007874015748
        },
        {
          "duration": 0.046875,
          "durationTicks": 24,
          "midi": 57,
          "name": "A3",
          "ticks": 44352,
          "time": 86.625,
          "velocity": 0.3937007874015748
        },
        {
          "duration": 0.046875,
          "durationTicks": 24,
          "midi": 57,
          "name": "A3",
          "ticks": 44352,
          "time": 86.625,
          "velocity": 0.3937007874015748
        },
        {
          "duration": 0.046875,
          "durationTicks": 24,
          "midi": 53,
          "name": "F3",
          "ticks": 44352,
          "time": 86.625,
          "velocity": 0.3937007874015748
        },
        {
          "duration": 0.046875,
          "durationTicks": 24,
          "midi": 53,
          "name": "F3",
          "ticks": 44352,
          "time": 86.625,
          "velocity": 0.3937007874015748
        },
        {
          "duration": 0.046875,
          "durationTicks": 24,
          "midi": 76,
          "name": "E5",
          "ticks": 44352,
          "time": 86.625,
          "velocity": 0.3937007874015748
        },
        {
          "duration": 0.046875,
          "durationTicks": 24,
          "midi": 53,
          "name": "F3",
          "ticks": 44352,
          "time": 86.625,
          "velocity": 0.3937007874015748
        },
        {
          "duration": 0.046875,
          "durationTicks": 24,
          "midi": 64,
          "name": "E4",
          "ticks": 44352,
          "time": 86.625,
          "velocity": 0.3937007874015748
        },
        {
          "duration": 0.046875,
          "durationTicks": 24,
          "midi": 76,
          "name": "E5",
          "ticks": 44352,
          "time": 86.625,
          "velocity": 0.3937007874015748
        },
        {
          "duration": 0.046875,
          "durationTicks": 24,
          "midi": 64,
          "name": "E4",
          "ticks": 44352,
          "time": 86.625,
          "velocity": 0.3937007874015748
        },
        {
          "duration": 0.046875,
          "durationTicks": 24,
          "midi": 57,
          "name": "A3",
          "ticks": 44352,
          "time": 86.625,
          "velocity": 0.3937007874015748
        },
        {
          "duration": 0.046875,
          "durationTicks": 24,
          "midi": 53,
          "name": "F3",
          "ticks": 44352,
          "time": 86.625,
          "velocity": 0.3937007874015748
        },
        {
          "duration": 0.046875,
          "durationTicks": 24,
          "midi": 53,
          "name": "F3",
          "ticks": 44376,
          "time": 86.671875,
          "velocity": 0.3937007874015748
        },
        {
          "duration": 0.046875,
          "durationTicks": 24,
          "midi": 76,
          "name": "E5",
          "ticks": 44376,
          "time": 86.671875,
          "velocity": 0.3937007874015748
        },
        {
          "duration": 0.046875,
          "durationTicks": 24,
          "midi": 64,
          "name": "E4",
          "ticks": 44376,
          "time": 86.671875,
          "velocity": 0.3937007874015748
        },
        {
          "duration": 0.046875,
          "durationTicks": 24,
          "midi": 57,
          "name": "A3",
          "ticks": 44376,
          "time": 86.671875,
          "velocity": 0.3937007874015748
        },
        {
          "duration": 0.046875,
          "durationTicks": 24,
          "midi": 53,
          "name": "F3",
          "ticks": 44376,
          "time": 86.671875,
          "velocity": 0.3937007874015748
        },
        {
          "duration": 0.046875,
          "durationTicks": 24,
          "midi": 57,
          "name": "A3",
          "ticks": 44376,
          "time": 86.671875,
          "velocity": 0.3937007874015748
        },
        {
          "duration": 0.046875,
          "durationTicks": 24,
          "midi": 53,
          "name": "F3",
          "ticks": 44376,
          "time": 86.671875,
          "velocity": 0.3937007874015748
        },
        {
          "duration": 0.046875,
          "durationTicks": 24,
          "midi": 57,
          "name": "A3",
          "ticks": 44376,
          "time": 86.671875,
          "velocity": 0.3937007874015748
        },
        {
          "duration": 0.046875,
          "durationTicks": 24,
          "midi": 53,
          "name": "F3",
          "ticks": 44376,
          "time": 86.671875,
          "velocity": 0.3937007874015748
        },
        {
          "duration": 0.046875,
          "durationTicks": 24,
          "midi": 76,
          "name": "E5",
          "ticks": 44376,
          "time": 86.671875,
          "velocity": 0.3937007874015748
        },
        {
          "duration": 0.046875,
          "durationTicks": 24,
          "midi": 64,
          "name": "E4",
          "ticks": 44376,
          "time": 86.671875,
          "velocity": 0.3937007874015748
        },
        {
          "duration": 0.046875,
          "durationTicks": 24,
          "midi": 57,
          "name": "A3",
          "ticks": 44376,
          "time": 86.671875,
          "velocity": 0.3937007874015748
        },
        {
          "duration": 0.046875,
          "durationTicks": 24,
          "midi": 76,
          "name": "E5",
          "ticks": 44400,
          "time": 86.71875,
          "velocity": 0.3937007874015748
        },
        {
          "duration": 0.046875,
          "durationTicks": 24,
          "midi": 64,
          "name": "E4",
          "ticks": 44400,
          "time": 86.71875,
          "velocity": 0.3937007874015748
        },
        {
          "duration": 0.046875,
          "durationTicks": 24,
          "midi": 53,
          "name": "F3",
          "ticks": 44400,
          "time": 86.71875,
          "velocity": 0.3937007874015748
        },
        {
          "duration": 0.046875,
          "durationTicks": 24,
          "midi": 53,
          "name": "F3",
          "ticks": 44400,
          "time": 86.71875,
          "velocity": 0.3937007874015748
        },
        {
          "duration": 0.046875,
          "durationTicks": 24,
          "midi": 57,
          "name": "A3",
          "ticks": 44400,
          "time": 86.71875,
          "velocity": 0.3937007874015748
        },
        {
          "duration": 0.046875,
          "durationTicks": 24,
          "midi": 57,
          "name": "A3",
          "ticks": 44400,
          "time": 86.71875,
          "velocity": 0.3937007874015748
        },
        {
          "duration": 0.046875,
          "durationTicks": 24,
          "midi": 76,
          "name": "E5",
          "ticks": 44400,
          "time": 86.71875,
          "velocity": 0.3937007874015748
        },
        {
          "duration": 0.046875,
          "durationTicks": 24,
          "midi": 53,
          "name": "F3",
          "ticks": 44400,
          "time": 86.71875,
          "velocity": 0.3937007874015748
        },
        {
          "duration": 0.046875,
          "durationTicks": 24,
          "midi": 64,
          "name": "E4",
          "ticks": 44400,
          "time": 86.71875,
          "velocity": 0.3937007874015748
        },
        {
          "duration": 0.046875,
          "durationTicks": 24,
          "midi": 57,
          "name": "A3",
          "ticks": 44400,
          "time": 86.71875,
          "velocity": 0.3937007874015748
        },
        {
          "duration": 0.046875,
          "durationTicks": 24,
          "midi": 57,
          "name": "A3",
          "ticks": 44400,
          "time": 86.71875,
          "velocity": 0.3937007874015748
        },
        {
          "duration": 0.046875,
          "durationTicks": 24,
          "midi": 53,
          "name": "F3",
          "ticks": 44400,
          "time": 86.71875,
          "velocity": 0.3937007874015748
        },
        {
          "duration": 0.046875,
          "durationTicks": 24,
          "midi": 53,
          "name": "F3",
          "ticks": 44424,
          "time": 86.765625,
          "velocity": 0.3937007874015748
        },
        {
          "duration": 0.046875,
          "durationTicks": 24,
          "midi": 64,
          "name": "E4",
          "ticks": 44424,
          "time": 86.765625,
          "velocity": 0.3937007874015748
        },
        {
          "duration": 0.046875,
          "durationTicks": 24,
          "midi": 76,
          "name": "E5",
          "ticks": 44424,
          "time": 86.765625,
          "velocity": 0.3937007874015748
        },
        {
          "duration": 0.046875,
          "durationTicks": 24,
          "midi": 64,
          "name": "E4",
          "ticks": 44424,
          "time": 86.765625,
          "velocity": 0.3937007874015748
        },
        {
          "duration": 0.046875,
          "durationTicks": 24,
          "midi": 76,
          "name": "E5",
          "ticks": 44424,
          "time": 86.765625,
          "velocity": 0.3937007874015748
        },
        {
          "duration": 0.046875,
          "durationTicks": 24,
          "midi": 53,
          "name": "F3",
          "ticks": 44424,
          "time": 86.765625,
          "velocity": 0.3937007874015748
        },
        {
          "duration": 0.046875,
          "durationTicks": 24,
          "midi": 57,
          "name": "A3",
          "ticks": 44424,
          "time": 86.765625,
          "velocity": 0.3937007874015748
        },
        {
          "duration": 0.046875,
          "durationTicks": 24,
          "midi": 57,
          "name": "A3",
          "ticks": 44424,
          "time": 86.765625,
          "velocity": 0.3937007874015748
        },
        {
          "duration": 0.046875,
          "durationTicks": 24,
          "midi": 57,
          "name": "A3",
          "ticks": 44424,
          "time": 86.765625,
          "velocity": 0.3937007874015748
        },
        {
          "duration": 0.046875,
          "durationTicks": 24,
          "midi": 57,
          "name": "A3",
          "ticks": 44424,
          "time": 86.765625,
          "velocity": 0.3937007874015748
        },
        {
          "duration": 0.046875,
          "durationTicks": 24,
          "midi": 53,
          "name": "F3",
          "ticks": 44424,
          "time": 86.765625,
          "velocity": 0.3937007874015748
        },
        {
          "duration": 0.046875,
          "durationTicks": 24,
          "midi": 53,
          "name": "F3",
          "ticks": 44424,
          "time": 86.765625,
          "velocity": 0.3937007874015748
        },
        {
          "duration": 0.046875,
          "durationTicks": 24,
          "midi": 53,
          "name": "F3",
          "ticks": 44448,
          "time": 86.8125,
          "velocity": 0.3937007874015748
        },
        {
          "duration": 0.046875,
          "durationTicks": 24,
          "midi": 53,
          "name": "F3",
          "ticks": 44448,
          "time": 86.8125,
          "velocity": 0.3937007874015748
        },
        {
          "duration": 0.046875,
          "durationTicks": 24,
          "midi": 57,
          "name": "A3",
          "ticks": 44448,
          "time": 86.8125,
          "velocity": 0.3937007874015748
        },
        {
          "duration": 0.046875,
          "durationTicks": 24,
          "midi": 76,
          "name": "E5",
          "ticks": 44448,
          "time": 86.8125,
          "velocity": 0.3937007874015748
        },
        {
          "duration": 0.046875,
          "durationTicks": 24,
          "midi": 76,
          "name": "E5",
          "ticks": 44448,
          "time": 86.8125,
          "velocity": 0.3937007874015748
        },
        {
          "duration": 0.046875,
          "durationTicks": 24,
          "midi": 64,
          "name": "E4",
          "ticks": 44448,
          "time": 86.8125,
          "velocity": 0.3937007874015748
        },
        {
          "duration": 0.046875,
          "durationTicks": 24,
          "midi": 57,
          "name": "A3",
          "ticks": 44448,
          "time": 86.8125,
          "velocity": 0.3937007874015748
        },
        {
          "duration": 0.046875,
          "durationTicks": 24,
          "midi": 64,
          "name": "E4",
          "ticks": 44448,
          "time": 86.8125,
          "velocity": 0.3937007874015748
        },
        {
          "duration": 0.046875,
          "durationTicks": 24,
          "midi": 64,
          "name": "E4",
          "ticks": 44472,
          "time": 86.859375,
          "velocity": 0.3937007874015748
        },
        {
          "duration": 0.046875,
          "durationTicks": 24,
          "midi": 57,
          "name": "A3",
          "ticks": 44472,
          "time": 86.859375,
          "velocity": 0.3937007874015748
        },
        {
          "duration": 0.046875,
          "durationTicks": 24,
          "midi": 76,
          "name": "E5",
          "ticks": 44472,
          "time": 86.859375,
          "velocity": 0.3937007874015748
        },
        {
          "duration": 0.046875,
          "durationTicks": 24,
          "midi": 53,
          "name": "F3",
          "ticks": 44472,
          "time": 86.859375,
          "velocity": 0.3937007874015748
        },
        {
          "duration": 0.046875,
          "durationTicks": 24,
          "midi": 57,
          "name": "A3",
          "ticks": 44472,
          "time": 86.859375,
          "velocity": 0.3937007874015748
        },
        {
          "duration": 0.046875,
          "durationTicks": 24,
          "midi": 64,
          "name": "E4",
          "ticks": 44472,
          "time": 86.859375,
          "velocity": 0.3937007874015748
        },
        {
          "duration": 0.046875,
          "durationTicks": 24,
          "midi": 53,
          "name": "F3",
          "ticks": 44472,
          "time": 86.859375,
          "velocity": 0.3937007874015748
        },
        {
          "duration": 0.046875,
          "durationTicks": 24,
          "midi": 76,
          "name": "E5",
          "ticks": 44472,
          "time": 86.859375,
          "velocity": 0.3937007874015748
        },
        {
          "duration": 0.046875,
          "durationTicks": 24,
          "midi": 57,
          "name": "A3",
          "ticks": 44496,
          "time": 86.90625,
          "velocity": 0.3937007874015748
        },
        {
          "duration": 0.046875,
          "durationTicks": 24,
          "midi": 53,
          "name": "F3",
          "ticks": 44496,
          "time": 86.90625,
          "velocity": 0.3937007874015748
        },
        {
          "duration": 0.046875,
          "durationTicks": 24,
          "midi": 64,
          "name": "E4",
          "ticks": 44496,
          "time": 86.90625,
          "velocity": 0.3937007874015748
        },
        {
          "duration": 0.046875,
          "durationTicks": 24,
          "midi": 64,
          "name": "E4",
          "ticks": 44496,
          "time": 86.90625,
          "velocity": 0.3937007874015748
        },
        {
          "duration": 0.046875,
          "durationTicks": 24,
          "midi": 76,
          "name": "E5",
          "ticks": 44496,
          "time": 86.90625,
          "velocity": 0.3937007874015748
        },
        {
          "duration": 0.046875,
          "durationTicks": 24,
          "midi": 57,
          "name": "A3",
          "ticks": 44496,
          "time": 86.90625,
          "velocity": 0.3937007874015748
        },
        {
          "duration": 0.046875,
          "durationTicks": 24,
          "midi": 53,
          "name": "F3",
          "ticks": 44496,
          "time": 86.90625,
          "velocity": 0.3937007874015748
        },
        {
          "duration": 0.046875,
          "durationTicks": 24,
          "midi": 76,
          "name": "E5",
          "ticks": 44496,
          "time": 86.90625,
          "velocity": 0.3937007874015748
        },
        {
          "duration": 0.046875,
          "durationTicks": 24,
          "midi": 76,
          "name": "E5",
          "ticks": 44520,
          "time": 86.953125,
          "velocity": 0.3937007874015748
        },
        {
          "duration": 0.046875,
          "durationTicks": 24,
          "midi": 76,
          "name": "E5",
          "ticks": 44520,
          "time": 86.953125,
          "velocity": 0.3937007874015748
        },
        {
          "duration": 0.046875,
          "durationTicks": 24,
          "midi": 53,
          "name": "F3",
          "ticks": 44520,
          "time": 86.953125,
          "velocity": 0.3937007874015748
        },
        {
          "duration": 0.046875,
          "durationTicks": 24,
          "midi": 57,
          "name": "A3",
          "ticks": 44520,
          "time": 86.953125,
          "velocity": 0.3937007874015748
        },
        {
          "duration": 0.046875,
          "durationTicks": 24,
          "midi": 57,
          "name": "A3",
          "ticks": 44520,
          "time": 86.953125,
          "velocity": 0.3937007874015748
        },
        {
          "duration": 0.046875,
          "durationTicks": 24,
          "midi": 64,
          "name": "E4",
          "ticks": 44520,
          "time": 86.953125,
          "velocity": 0.3937007874015748
        },
        {
          "duration": 0.046875,
          "durationTicks": 24,
          "midi": 53,
          "name": "F3",
          "ticks": 44520,
          "time": 86.953125,
          "velocity": 0.3937007874015748
        },
        {
          "duration": 0.046875,
          "durationTicks": 24,
          "midi": 64,
          "name": "E4",
          "ticks": 44520,
          "time": 86.953125,
          "velocity": 0.3937007874015748
        },
        {
          "duration": 0.046875,
          "durationTicks": 24,
          "midi": 63,
          "name": "D#4",
          "ticks": 44544,
          "time": 87,
          "velocity": 0.3937007874015748
        },
        {
          "duration": 0.046875,
          "durationTicks": 24,
          "midi": 75,
          "name": "D#5",
          "ticks": 44544,
          "time": 87,
          "velocity": 0.3937007874015748
        },
        {
          "duration": 0.046875,
          "durationTicks": 24,
          "midi": 35,
          "name": "B1",
          "ticks": 44544,
          "time": 87,
          "velocity": 0.3937007874015748
        },
        {
          "duration": 0.046875,
          "durationTicks": 24,
          "midi": 63,
          "name": "D#4",
          "ticks": 44544,
          "time": 87,
          "velocity": 0.3937007874015748
        },
        {
          "duration": 0.046875,
          "durationTicks": 24,
          "midi": 47,
          "name": "B2",
          "ticks": 44544,
          "time": 87,
          "velocity": 0.3937007874015748
        },
        {
          "duration": 0.046875,
          "durationTicks": 24,
          "midi": 47,
          "name": "B2",
          "ticks": 44544,
          "time": 87,
          "velocity": 0.3937007874015748
        },
        {
          "duration": 0.046875,
          "durationTicks": 24,
          "midi": 75,
          "name": "D#5",
          "ticks": 44544,
          "time": 87,
          "velocity": 0.3937007874015748
        },
        {
          "duration": 0.046875,
          "durationTicks": 24,
          "midi": 75,
          "name": "D#5",
          "ticks": 44544,
          "time": 87,
          "velocity": 0.3937007874015748
        },
        {
          "duration": 0.046875,
          "durationTicks": 24,
          "midi": 47,
          "name": "B2",
          "ticks": 44544,
          "time": 87,
          "velocity": 0.3937007874015748
        },
        {
          "duration": 0.046875,
          "durationTicks": 24,
          "midi": 63,
          "name": "D#4",
          "ticks": 44544,
          "time": 87,
          "velocity": 0.3937007874015748
        },
        {
          "duration": 0.046875,
          "durationTicks": 24,
          "midi": 75,
          "name": "D#5",
          "ticks": 44544,
          "time": 87,
          "velocity": 0.3937007874015748
        },
        {
          "duration": 0.046875,
          "durationTicks": 24,
          "midi": 47,
          "name": "B2",
          "ticks": 44544,
          "time": 87,
          "velocity": 0.3937007874015748
        },
        {
          "duration": 0.046875,
          "durationTicks": 24,
          "midi": 35,
          "name": "B1",
          "ticks": 44544,
          "time": 87,
          "velocity": 0.3937007874015748
        },
        {
          "duration": 0.046875,
          "durationTicks": 24,
          "midi": 35,
          "name": "B1",
          "ticks": 44544,
          "time": 87,
          "velocity": 0.3937007874015748
        },
        {
          "duration": 0.046875,
          "durationTicks": 24,
          "midi": 47,
          "name": "B2",
          "ticks": 44544,
          "time": 87,
          "velocity": 0.3937007874015748
        },
        {
          "duration": 0.046875,
          "durationTicks": 24,
          "midi": 63,
          "name": "D#4",
          "ticks": 44544,
          "time": 87,
          "velocity": 0.3937007874015748
        },
        {
          "duration": 0.046875,
          "durationTicks": 24,
          "midi": 47,
          "name": "B2",
          "ticks": 44544,
          "time": 87,
          "velocity": 0.3937007874015748
        },
        {
          "duration": 0.046875,
          "durationTicks": 24,
          "midi": 63,
          "name": "D#4",
          "ticks": 44544,
          "time": 87,
          "velocity": 0.3937007874015748
        },
        {
          "duration": 0.046875,
          "durationTicks": 24,
          "midi": 63,
          "name": "D#4",
          "ticks": 44544,
          "time": 87,
          "velocity": 0.3937007874015748
        },
        {
          "duration": 0.046875,
          "durationTicks": 24,
          "midi": 35,
          "name": "B1",
          "ticks": 44544,
          "time": 87,
          "velocity": 0.3937007874015748
        },
        {
          "duration": 0.046875,
          "durationTicks": 24,
          "midi": 35,
          "name": "B1",
          "ticks": 44544,
          "time": 87,
          "velocity": 0.3937007874015748
        },
        {
          "duration": 0.046875,
          "durationTicks": 24,
          "midi": 75,
          "name": "D#5",
          "ticks": 44544,
          "time": 87,
          "velocity": 0.3937007874015748
        },
        {
          "duration": 0.046875,
          "durationTicks": 24,
          "midi": 35,
          "name": "B1",
          "ticks": 44544,
          "time": 87,
          "velocity": 0.3937007874015748
        },
        {
          "duration": 0.046875,
          "durationTicks": 24,
          "midi": 75,
          "name": "D#5",
          "ticks": 44544,
          "time": 87,
          "velocity": 0.3937007874015748
        },
        {
          "duration": 0.046875,
          "durationTicks": 24,
          "midi": 35,
          "name": "B1",
          "ticks": 44568,
          "time": 87.046875,
          "velocity": 0.3937007874015748
        },
        {
          "duration": 0.046875,
          "durationTicks": 24,
          "midi": 35,
          "name": "B1",
          "ticks": 44568,
          "time": 87.046875,
          "velocity": 0.3937007874015748
        },
        {
          "duration": 0.046875,
          "durationTicks": 24,
          "midi": 75,
          "name": "D#5",
          "ticks": 44568,
          "time": 87.046875,
          "velocity": 0.3937007874015748
        },
        {
          "duration": 0.046875,
          "durationTicks": 24,
          "midi": 35,
          "name": "B1",
          "ticks": 44568,
          "time": 87.046875,
          "velocity": 0.3937007874015748
        },
        {
          "duration": 0.046875,
          "durationTicks": 24,
          "midi": 63,
          "name": "D#4",
          "ticks": 44568,
          "time": 87.046875,
          "velocity": 0.3937007874015748
        },
        {
          "duration": 0.046875,
          "durationTicks": 24,
          "midi": 63,
          "name": "D#4",
          "ticks": 44568,
          "time": 87.046875,
          "velocity": 0.3937007874015748
        },
        {
          "duration": 0.046875,
          "durationTicks": 24,
          "midi": 47,
          "name": "B2",
          "ticks": 44568,
          "time": 87.046875,
          "velocity": 0.3937007874015748
        },
        {
          "duration": 0.046875,
          "durationTicks": 24,
          "midi": 75,
          "name": "D#5",
          "ticks": 44568,
          "time": 87.046875,
          "velocity": 0.3937007874015748
        },
        {
          "duration": 0.046875,
          "durationTicks": 24,
          "midi": 47,
          "name": "B2",
          "ticks": 44568,
          "time": 87.046875,
          "velocity": 0.3937007874015748
        },
        {
          "duration": 0.046875,
          "durationTicks": 24,
          "midi": 35,
          "name": "B1",
          "ticks": 44568,
          "time": 87.046875,
          "velocity": 0.3937007874015748
        },
        {
          "duration": 0.046875,
          "durationTicks": 24,
          "midi": 63,
          "name": "D#4",
          "ticks": 44568,
          "time": 87.046875,
          "velocity": 0.3937007874015748
        },
        {
          "duration": 0.046875,
          "durationTicks": 24,
          "midi": 63,
          "name": "D#4",
          "ticks": 44568,
          "time": 87.046875,
          "velocity": 0.3937007874015748
        },
        {
          "duration": 0.046875,
          "durationTicks": 24,
          "midi": 75,
          "name": "D#5",
          "ticks": 44568,
          "time": 87.046875,
          "velocity": 0.3937007874015748
        },
        {
          "duration": 0.046875,
          "durationTicks": 24,
          "midi": 75,
          "name": "D#5",
          "ticks": 44568,
          "time": 87.046875,
          "velocity": 0.3937007874015748
        },
        {
          "duration": 0.046875,
          "durationTicks": 24,
          "midi": 63,
          "name": "D#4",
          "ticks": 44568,
          "time": 87.046875,
          "velocity": 0.3937007874015748
        },
        {
          "duration": 0.046875,
          "durationTicks": 24,
          "midi": 75,
          "name": "D#5",
          "ticks": 44568,
          "time": 87.046875,
          "velocity": 0.3937007874015748
        },
        {
          "duration": 0.046875,
          "durationTicks": 24,
          "midi": 75,
          "name": "D#5",
          "ticks": 44568,
          "time": 87.046875,
          "velocity": 0.3937007874015748
        },
        {
          "duration": 0.046875,
          "durationTicks": 24,
          "midi": 63,
          "name": "D#4",
          "ticks": 44568,
          "time": 87.046875,
          "velocity": 0.3937007874015748
        },
        {
          "duration": 0.046875,
          "durationTicks": 24,
          "midi": 35,
          "name": "B1",
          "ticks": 44568,
          "time": 87.046875,
          "velocity": 0.3937007874015748
        },
        {
          "duration": 0.046875,
          "durationTicks": 24,
          "midi": 47,
          "name": "B2",
          "ticks": 44568,
          "time": 87.046875,
          "velocity": 0.3937007874015748
        },
        {
          "duration": 0.046875,
          "durationTicks": 24,
          "midi": 35,
          "name": "B1",
          "ticks": 44568,
          "time": 87.046875,
          "velocity": 0.3937007874015748
        },
        {
          "duration": 0.046875,
          "durationTicks": 24,
          "midi": 47,
          "name": "B2",
          "ticks": 44568,
          "time": 87.046875,
          "velocity": 0.3937007874015748
        },
        {
          "duration": 0.046875,
          "durationTicks": 24,
          "midi": 47,
          "name": "B2",
          "ticks": 44568,
          "time": 87.046875,
          "velocity": 0.3937007874015748
        },
        {
          "duration": 0.046875,
          "durationTicks": 24,
          "midi": 47,
          "name": "B2",
          "ticks": 44568,
          "time": 87.046875,
          "velocity": 0.3937007874015748
        },
        {
          "duration": 0.046875,
          "durationTicks": 24,
          "midi": 75,
          "name": "D#5",
          "ticks": 44592,
          "time": 87.09375,
          "velocity": 0.3937007874015748
        },
        {
          "duration": 0.046875,
          "durationTicks": 24,
          "midi": 63,
          "name": "D#4",
          "ticks": 44592,
          "time": 87.09375,
          "velocity": 0.3937007874015748
        },
        {
          "duration": 0.046875,
          "durationTicks": 24,
          "midi": 63,
          "name": "D#4",
          "ticks": 44592,
          "time": 87.09375,
          "velocity": 0.3937007874015748
        },
        {
          "duration": 0.046875,
          "durationTicks": 24,
          "midi": 47,
          "name": "B2",
          "ticks": 44592,
          "time": 87.09375,
          "velocity": 0.3937007874015748
        },
        {
          "duration": 0.046875,
          "durationTicks": 24,
          "midi": 47,
          "name": "B2",
          "ticks": 44592,
          "time": 87.09375,
          "velocity": 0.3937007874015748
        },
        {
          "duration": 0.046875,
          "durationTicks": 24,
          "midi": 35,
          "name": "B1",
          "ticks": 44592,
          "time": 87.09375,
          "velocity": 0.3937007874015748
        },
        {
          "duration": 0.046875,
          "durationTicks": 24,
          "midi": 63,
          "name": "D#4",
          "ticks": 44592,
          "time": 87.09375,
          "velocity": 0.3937007874015748
        },
        {
          "duration": 0.046875,
          "durationTicks": 24,
          "midi": 47,
          "name": "B2",
          "ticks": 44592,
          "time": 87.09375,
          "velocity": 0.3937007874015748
        },
        {
          "duration": 0.046875,
          "durationTicks": 24,
          "midi": 35,
          "name": "B1",
          "ticks": 44592,
          "time": 87.09375,
          "velocity": 0.3937007874015748
        },
        {
          "duration": 0.046875,
          "durationTicks": 24,
          "midi": 35,
          "name": "B1",
          "ticks": 44592,
          "time": 87.09375,
          "velocity": 0.3937007874015748
        },
        {
          "duration": 0.046875,
          "durationTicks": 24,
          "midi": 75,
          "name": "D#5",
          "ticks": 44592,
          "time": 87.09375,
          "velocity": 0.3937007874015748
        },
        {
          "duration": 0.046875,
          "durationTicks": 24,
          "midi": 47,
          "name": "B2",
          "ticks": 44592,
          "time": 87.09375,
          "velocity": 0.3937007874015748
        },
        {
          "duration": 0.046875,
          "durationTicks": 24,
          "midi": 35,
          "name": "B1",
          "ticks": 44592,
          "time": 87.09375,
          "velocity": 0.3937007874015748
        },
        {
          "duration": 0.046875,
          "durationTicks": 24,
          "midi": 35,
          "name": "B1",
          "ticks": 44592,
          "time": 87.09375,
          "velocity": 0.3937007874015748
        },
        {
          "duration": 0.046875,
          "durationTicks": 24,
          "midi": 75,
          "name": "D#5",
          "ticks": 44592,
          "time": 87.09375,
          "velocity": 0.3937007874015748
        },
        {
          "duration": 0.046875,
          "durationTicks": 24,
          "midi": 75,
          "name": "D#5",
          "ticks": 44592,
          "time": 87.09375,
          "velocity": 0.3937007874015748
        },
        {
          "duration": 0.046875,
          "durationTicks": 24,
          "midi": 63,
          "name": "D#4",
          "ticks": 44592,
          "time": 87.09375,
          "velocity": 0.3937007874015748
        },
        {
          "duration": 0.046875,
          "durationTicks": 24,
          "midi": 75,
          "name": "D#5",
          "ticks": 44592,
          "time": 87.09375,
          "velocity": 0.3937007874015748
        },
        {
          "duration": 0.046875,
          "durationTicks": 24,
          "midi": 63,
          "name": "D#4",
          "ticks": 44592,
          "time": 87.09375,
          "velocity": 0.3937007874015748
        },
        {
          "duration": 0.046875,
          "durationTicks": 24,
          "midi": 63,
          "name": "D#4",
          "ticks": 44592,
          "time": 87.09375,
          "velocity": 0.3937007874015748
        },
        {
          "duration": 0.046875,
          "durationTicks": 24,
          "midi": 35,
          "name": "B1",
          "ticks": 44592,
          "time": 87.09375,
          "velocity": 0.3937007874015748
        },
        {
          "duration": 0.046875,
          "durationTicks": 24,
          "midi": 47,
          "name": "B2",
          "ticks": 44592,
          "time": 87.09375,
          "velocity": 0.3937007874015748
        },
        {
          "duration": 0.046875,
          "durationTicks": 24,
          "midi": 47,
          "name": "B2",
          "ticks": 44592,
          "time": 87.09375,
          "velocity": 0.3937007874015748
        },
        {
          "duration": 0.046875,
          "durationTicks": 24,
          "midi": 75,
          "name": "D#5",
          "ticks": 44592,
          "time": 87.09375,
          "velocity": 0.3937007874015748
        },
        {
          "duration": 0.046875,
          "durationTicks": 24,
          "midi": 47,
          "name": "B2",
          "ticks": 44616,
          "time": 87.140625,
          "velocity": 0.3937007874015748
        },
        {
          "duration": 0.046875,
          "durationTicks": 24,
          "midi": 63,
          "name": "D#4",
          "ticks": 44616,
          "time": 87.140625,
          "velocity": 0.3937007874015748
        },
        {
          "duration": 0.046875,
          "durationTicks": 24,
          "midi": 63,
          "name": "D#4",
          "ticks": 44616,
          "time": 87.140625,
          "velocity": 0.3937007874015748
        },
        {
          "duration": 0.046875,
          "durationTicks": 24,
          "midi": 75,
          "name": "D#5",
          "ticks": 44616,
          "time": 87.140625,
          "velocity": 0.3937007874015748
        },
        {
          "duration": 0.046875,
          "durationTicks": 24,
          "midi": 75,
          "name": "D#5",
          "ticks": 44616,
          "time": 87.140625,
          "velocity": 0.3937007874015748
        },
        {
          "duration": 0.046875,
          "durationTicks": 24,
          "midi": 35,
          "name": "B1",
          "ticks": 44616,
          "time": 87.140625,
          "velocity": 0.3937007874015748
        },
        {
          "duration": 0.046875,
          "durationTicks": 24,
          "midi": 35,
          "name": "B1",
          "ticks": 44616,
          "time": 87.140625,
          "velocity": 0.3937007874015748
        },
        {
          "duration": 0.046875,
          "durationTicks": 24,
          "midi": 63,
          "name": "D#4",
          "ticks": 44616,
          "time": 87.140625,
          "velocity": 0.3937007874015748
        },
        {
          "duration": 0.046875,
          "durationTicks": 24,
          "midi": 47,
          "name": "B2",
          "ticks": 44616,
          "time": 87.140625,
          "velocity": 0.3937007874015748
        },
        {
          "duration": 0.046875,
          "durationTicks": 24,
          "midi": 47,
          "name": "B2",
          "ticks": 44616,
          "time": 87.140625,
          "velocity": 0.3937007874015748
        },
        {
          "duration": 0.046875,
          "durationTicks": 24,
          "midi": 63,
          "name": "D#4",
          "ticks": 44616,
          "time": 87.140625,
          "velocity": 0.3937007874015748
        },
        {
          "duration": 0.046875,
          "durationTicks": 24,
          "midi": 75,
          "name": "D#5",
          "ticks": 44616,
          "time": 87.140625,
          "velocity": 0.3937007874015748
        },
        {
          "duration": 0.046875,
          "durationTicks": 24,
          "midi": 47,
          "name": "B2",
          "ticks": 44616,
          "time": 87.140625,
          "velocity": 0.3937007874015748
        },
        {
          "duration": 0.046875,
          "durationTicks": 24,
          "midi": 35,
          "name": "B1",
          "ticks": 44616,
          "time": 87.140625,
          "velocity": 0.3937007874015748
        },
        {
          "duration": 0.046875,
          "durationTicks": 24,
          "midi": 35,
          "name": "B1",
          "ticks": 44616,
          "time": 87.140625,
          "velocity": 0.3937007874015748
        },
        {
          "duration": 0.046875,
          "durationTicks": 24,
          "midi": 47,
          "name": "B2",
          "ticks": 44616,
          "time": 87.140625,
          "velocity": 0.3937007874015748
        },
        {
          "duration": 0.046875,
          "durationTicks": 24,
          "midi": 75,
          "name": "D#5",
          "ticks": 44616,
          "time": 87.140625,
          "velocity": 0.3937007874015748
        },
        {
          "duration": 0.046875,
          "durationTicks": 24,
          "midi": 63,
          "name": "D#4",
          "ticks": 44616,
          "time": 87.140625,
          "velocity": 0.3937007874015748
        },
        {
          "duration": 0.046875,
          "durationTicks": 24,
          "midi": 35,
          "name": "B1",
          "ticks": 44616,
          "time": 87.140625,
          "velocity": 0.3937007874015748
        },
        {
          "duration": 0.046875,
          "durationTicks": 24,
          "midi": 47,
          "name": "B2",
          "ticks": 44616,
          "time": 87.140625,
          "velocity": 0.3937007874015748
        },
        {
          "duration": 0.046875,
          "durationTicks": 24,
          "midi": 63,
          "name": "D#4",
          "ticks": 44616,
          "time": 87.140625,
          "velocity": 0.3937007874015748
        },
        {
          "duration": 0.046875,
          "durationTicks": 24,
          "midi": 75,
          "name": "D#5",
          "ticks": 44616,
          "time": 87.140625,
          "velocity": 0.3937007874015748
        },
        {
          "duration": 0.046875,
          "durationTicks": 24,
          "midi": 75,
          "name": "D#5",
          "ticks": 44616,
          "time": 87.140625,
          "velocity": 0.3937007874015748
        },
        {
          "duration": 0.046875,
          "durationTicks": 24,
          "midi": 35,
          "name": "B1",
          "ticks": 44616,
          "time": 87.140625,
          "velocity": 0.3937007874015748
        },
        {
          "duration": 0.046875,
          "durationTicks": 24,
          "midi": 47,
          "name": "B2",
          "ticks": 44640,
          "time": 87.1875,
          "velocity": 0.3937007874015748
        },
        {
          "duration": 0.046875,
          "durationTicks": 24,
          "midi": 75,
          "name": "D#5",
          "ticks": 44640,
          "time": 87.1875,
          "velocity": 0.3937007874015748
        },
        {
          "duration": 0.046875,
          "durationTicks": 24,
          "midi": 75,
          "name": "D#5",
          "ticks": 44640,
          "time": 87.1875,
          "velocity": 0.3937007874015748
        },
        {
          "duration": 0.046875,
          "durationTicks": 24,
          "midi": 63,
          "name": "D#4",
          "ticks": 44640,
          "time": 87.1875,
          "velocity": 0.3937007874015748
        },
        {
          "duration": 0.046875,
          "durationTicks": 24,
          "midi": 35,
          "name": "B1",
          "ticks": 44640,
          "time": 87.1875,
          "velocity": 0.3937007874015748
        },
        {
          "duration": 0.046875,
          "durationTicks": 24,
          "midi": 63,
          "name": "D#4",
          "ticks": 44640,
          "time": 87.1875,
          "velocity": 0.3937007874015748
        },
        {
          "duration": 0.046875,
          "durationTicks": 24,
          "midi": 35,
          "name": "B1",
          "ticks": 44640,
          "time": 87.1875,
          "velocity": 0.3937007874015748
        },
        {
          "duration": 0.046875,
          "durationTicks": 24,
          "midi": 63,
          "name": "D#4",
          "ticks": 44640,
          "time": 87.1875,
          "velocity": 0.3937007874015748
        },
        {
          "duration": 0.046875,
          "durationTicks": 24,
          "midi": 35,
          "name": "B1",
          "ticks": 44640,
          "time": 87.1875,
          "velocity": 0.3937007874015748
        },
        {
          "duration": 0.046875,
          "durationTicks": 24,
          "midi": 75,
          "name": "D#5",
          "ticks": 44640,
          "time": 87.1875,
          "velocity": 0.3937007874015748
        },
        {
          "duration": 0.046875,
          "durationTicks": 24,
          "midi": 47,
          "name": "B2",
          "ticks": 44640,
          "time": 87.1875,
          "velocity": 0.3937007874015748
        },
        {
          "duration": 0.046875,
          "durationTicks": 24,
          "midi": 63,
          "name": "D#4",
          "ticks": 44640,
          "time": 87.1875,
          "velocity": 0.3937007874015748
        },
        {
          "duration": 0.046875,
          "durationTicks": 24,
          "midi": 75,
          "name": "D#5",
          "ticks": 44640,
          "time": 87.1875,
          "velocity": 0.3937007874015748
        },
        {
          "duration": 0.046875,
          "durationTicks": 24,
          "midi": 35,
          "name": "B1",
          "ticks": 44640,
          "time": 87.1875,
          "velocity": 0.3937007874015748
        },
        {
          "duration": 0.046875,
          "durationTicks": 24,
          "midi": 47,
          "name": "B2",
          "ticks": 44640,
          "time": 87.1875,
          "velocity": 0.3937007874015748
        },
        {
          "duration": 0.046875,
          "durationTicks": 24,
          "midi": 47,
          "name": "B2",
          "ticks": 44640,
          "time": 87.1875,
          "velocity": 0.3937007874015748
        },
        {
          "duration": 0.046875,
          "durationTicks": 24,
          "midi": 75,
          "name": "D#5",
          "ticks": 44664,
          "time": 87.234375,
          "velocity": 0.3937007874015748
        },
        {
          "duration": 0.046875,
          "durationTicks": 24,
          "midi": 63,
          "name": "D#4",
          "ticks": 44664,
          "time": 87.234375,
          "velocity": 0.3937007874015748
        },
        {
          "duration": 0.046875,
          "durationTicks": 24,
          "midi": 75,
          "name": "D#5",
          "ticks": 44664,
          "time": 87.234375,
          "velocity": 0.3937007874015748
        },
        {
          "duration": 0.046875,
          "durationTicks": 24,
          "midi": 63,
          "name": "D#4",
          "ticks": 44664,
          "time": 87.234375,
          "velocity": 0.3937007874015748
        },
        {
          "duration": 0.046875,
          "durationTicks": 24,
          "midi": 35,
          "name": "B1",
          "ticks": 44664,
          "time": 87.234375,
          "velocity": 0.3937007874015748
        },
        {
          "duration": 0.046875,
          "durationTicks": 24,
          "midi": 47,
          "name": "B2",
          "ticks": 44664,
          "time": 87.234375,
          "velocity": 0.3937007874015748
        },
        {
          "duration": 0.046875,
          "durationTicks": 24,
          "midi": 35,
          "name": "B1",
          "ticks": 44664,
          "time": 87.234375,
          "velocity": 0.3937007874015748
        },
        {
          "duration": 0.046875,
          "durationTicks": 24,
          "midi": 35,
          "name": "B1",
          "ticks": 44664,
          "time": 87.234375,
          "velocity": 0.3937007874015748
        },
        {
          "duration": 0.046875,
          "durationTicks": 24,
          "midi": 47,
          "name": "B2",
          "ticks": 44664,
          "time": 87.234375,
          "velocity": 0.3937007874015748
        },
        {
          "duration": 0.046875,
          "durationTicks": 24,
          "midi": 35,
          "name": "B1",
          "ticks": 44664,
          "time": 87.234375,
          "velocity": 0.3937007874015748
        },
        {
          "duration": 0.046875,
          "durationTicks": 24,
          "midi": 75,
          "name": "D#5",
          "ticks": 44664,
          "time": 87.234375,
          "velocity": 0.3937007874015748
        },
        {
          "duration": 0.046875,
          "durationTicks": 24,
          "midi": 47,
          "name": "B2",
          "ticks": 44664,
          "time": 87.234375,
          "velocity": 0.3937007874015748
        },
        {
          "duration": 0.046875,
          "durationTicks": 24,
          "midi": 75,
          "name": "D#5",
          "ticks": 44664,
          "time": 87.234375,
          "velocity": 0.3937007874015748
        },
        {
          "duration": 0.046875,
          "durationTicks": 24,
          "midi": 63,
          "name": "D#4",
          "ticks": 44664,
          "time": 87.234375,
          "velocity": 0.3937007874015748
        },
        {
          "duration": 0.046875,
          "durationTicks": 24,
          "midi": 63,
          "name": "D#4",
          "ticks": 44664,
          "time": 87.234375,
          "velocity": 0.3937007874015748
        },
        {
          "duration": 0.046875,
          "durationTicks": 24,
          "midi": 47,
          "name": "B2",
          "ticks": 44664,
          "time": 87.234375,
          "velocity": 0.3937007874015748
        },
        {
          "duration": 0.046875,
          "durationTicks": 24,
          "midi": 75,
          "name": "D#5",
          "ticks": 44688,
          "time": 87.28125,
          "velocity": 0.3937007874015748
        },
        {
          "duration": 0.046875,
          "durationTicks": 24,
          "midi": 47,
          "name": "B2",
          "ticks": 44688,
          "time": 87.28125,
          "velocity": 0.3937007874015748
        },
        {
          "duration": 0.046875,
          "durationTicks": 24,
          "midi": 47,
          "name": "B2",
          "ticks": 44688,
          "time": 87.28125,
          "velocity": 0.3937007874015748
        },
        {
          "duration": 0.046875,
          "durationTicks": 24,
          "midi": 35,
          "name": "B1",
          "ticks": 44688,
          "time": 87.28125,
          "velocity": 0.3937007874015748
        },
        {
          "duration": 0.046875,
          "durationTicks": 24,
          "midi": 63,
          "name": "D#4",
          "ticks": 44688,
          "time": 87.28125,
          "velocity": 0.3937007874015748
        },
        {
          "duration": 0.046875,
          "durationTicks": 24,
          "midi": 35,
          "name": "B1",
          "ticks": 44688,
          "time": 87.28125,
          "velocity": 0.3937007874015748
        },
        {
          "duration": 0.046875,
          "durationTicks": 24,
          "midi": 75,
          "name": "D#5",
          "ticks": 44688,
          "time": 87.28125,
          "velocity": 0.3937007874015748
        },
        {
          "duration": 0.046875,
          "durationTicks": 24,
          "midi": 63,
          "name": "D#4",
          "ticks": 44688,
          "time": 87.28125,
          "velocity": 0.3937007874015748
        },
        {
          "duration": 0.046875,
          "durationTicks": 24,
          "midi": 63,
          "name": "D#4",
          "ticks": 44688,
          "time": 87.28125,
          "velocity": 0.3937007874015748
        },
        {
          "duration": 0.046875,
          "durationTicks": 24,
          "midi": 47,
          "name": "B2",
          "ticks": 44688,
          "time": 87.28125,
          "velocity": 0.3937007874015748
        },
        {
          "duration": 0.046875,
          "durationTicks": 24,
          "midi": 63,
          "name": "D#4",
          "ticks": 44688,
          "time": 87.28125,
          "velocity": 0.3937007874015748
        },
        {
          "duration": 0.046875,
          "durationTicks": 24,
          "midi": 47,
          "name": "B2",
          "ticks": 44688,
          "time": 87.28125,
          "velocity": 0.3937007874015748
        },
        {
          "duration": 0.046875,
          "durationTicks": 24,
          "midi": 35,
          "name": "B1",
          "ticks": 44688,
          "time": 87.28125,
          "velocity": 0.3937007874015748
        },
        {
          "duration": 0.046875,
          "durationTicks": 24,
          "midi": 35,
          "name": "B1",
          "ticks": 44688,
          "time": 87.28125,
          "velocity": 0.3937007874015748
        },
        {
          "duration": 0.046875,
          "durationTicks": 24,
          "midi": 75,
          "name": "D#5",
          "ticks": 44688,
          "time": 87.28125,
          "velocity": 0.3937007874015748
        },
        {
          "duration": 0.046875,
          "durationTicks": 24,
          "midi": 75,
          "name": "D#5",
          "ticks": 44688,
          "time": 87.28125,
          "velocity": 0.3937007874015748
        },
        {
          "duration": 0.046875,
          "durationTicks": 24,
          "midi": 35,
          "name": "B1",
          "ticks": 44712,
          "time": 87.328125,
          "velocity": 0.3937007874015748
        },
        {
          "duration": 0.046875,
          "durationTicks": 24,
          "midi": 75,
          "name": "D#5",
          "ticks": 44712,
          "time": 87.328125,
          "velocity": 0.3937007874015748
        },
        {
          "duration": 0.046875,
          "durationTicks": 24,
          "midi": 75,
          "name": "D#5",
          "ticks": 44712,
          "time": 87.328125,
          "velocity": 0.3937007874015748
        },
        {
          "duration": 0.046875,
          "durationTicks": 24,
          "midi": 47,
          "name": "B2",
          "ticks": 44712,
          "time": 87.328125,
          "velocity": 0.3937007874015748
        },
        {
          "duration": 0.046875,
          "durationTicks": 24,
          "midi": 63,
          "name": "D#4",
          "ticks": 44712,
          "time": 87.328125,
          "velocity": 0.3937007874015748
        },
        {
          "duration": 0.046875,
          "durationTicks": 24,
          "midi": 63,
          "name": "D#4",
          "ticks": 44712,
          "time": 87.328125,
          "velocity": 0.3937007874015748
        },
        {
          "duration": 0.046875,
          "durationTicks": 24,
          "midi": 63,
          "name": "D#4",
          "ticks": 44712,
          "time": 87.328125,
          "velocity": 0.3937007874015748
        },
        {
          "duration": 0.046875,
          "durationTicks": 24,
          "midi": 63,
          "name": "D#4",
          "ticks": 44712,
          "time": 87.328125,
          "velocity": 0.3937007874015748
        },
        {
          "duration": 0.046875,
          "durationTicks": 24,
          "midi": 47,
          "name": "B2",
          "ticks": 44712,
          "time": 87.328125,
          "velocity": 0.3937007874015748
        },
        {
          "duration": 0.046875,
          "durationTicks": 24,
          "midi": 35,
          "name": "B1",
          "ticks": 44712,
          "time": 87.328125,
          "velocity": 0.3937007874015748
        },
        {
          "duration": 0.046875,
          "durationTicks": 24,
          "midi": 75,
          "name": "D#5",
          "ticks": 44712,
          "time": 87.328125,
          "velocity": 0.3937007874015748
        },
        {
          "duration": 0.046875,
          "durationTicks": 24,
          "midi": 75,
          "name": "D#5",
          "ticks": 44712,
          "time": 87.328125,
          "velocity": 0.3937007874015748
        },
        {
          "duration": 0.046875,
          "durationTicks": 24,
          "midi": 47,
          "name": "B2",
          "ticks": 44712,
          "time": 87.328125,
          "velocity": 0.3937007874015748
        },
        {
          "duration": 0.046875,
          "durationTicks": 24,
          "midi": 47,
          "name": "B2",
          "ticks": 44712,
          "time": 87.328125,
          "velocity": 0.3937007874015748
        },
        {
          "duration": 0.046875,
          "durationTicks": 24,
          "midi": 35,
          "name": "B1",
          "ticks": 44712,
          "time": 87.328125,
          "velocity": 0.3937007874015748
        },
        {
          "duration": 0.046875,
          "durationTicks": 24,
          "midi": 35,
          "name": "B1",
          "ticks": 44712,
          "time": 87.328125,
          "velocity": 0.3937007874015748
        },
        {
          "duration": 0.046875,
          "durationTicks": 24,
          "midi": 63,
          "name": "D#4",
          "ticks": 44736,
          "time": 87.375,
          "velocity": 0.3937007874015748
        },
        {
          "duration": 0.046875,
          "durationTicks": 24,
          "midi": 63,
          "name": "D#4",
          "ticks": 44736,
          "time": 87.375,
          "velocity": 0.3937007874015748
        },
        {
          "duration": 0.046875,
          "durationTicks": 24,
          "midi": 75,
          "name": "D#5",
          "ticks": 44736,
          "time": 87.375,
          "velocity": 0.3937007874015748
        },
        {
          "duration": 0.046875,
          "durationTicks": 24,
          "midi": 47,
          "name": "B2",
          "ticks": 44736,
          "time": 87.375,
          "velocity": 0.3937007874015748
        },
        {
          "duration": 0.046875,
          "durationTicks": 24,
          "midi": 47,
          "name": "B2",
          "ticks": 44736,
          "time": 87.375,
          "velocity": 0.3937007874015748
        },
        {
          "duration": 0.046875,
          "durationTicks": 24,
          "midi": 75,
          "name": "D#5",
          "ticks": 44736,
          "time": 87.375,
          "velocity": 0.3937007874015748
        },
        {
          "duration": 0.046875,
          "durationTicks": 24,
          "midi": 63,
          "name": "D#4",
          "ticks": 44736,
          "time": 87.375,
          "velocity": 0.3937007874015748
        },
        {
          "duration": 0.046875,
          "durationTicks": 24,
          "midi": 35,
          "name": "B1",
          "ticks": 44736,
          "time": 87.375,
          "velocity": 0.3937007874015748
        },
        {
          "duration": 0.046875,
          "durationTicks": 24,
          "midi": 35,
          "name": "B1",
          "ticks": 44736,
          "time": 87.375,
          "velocity": 0.3937007874015748
        },
        {
          "duration": 0.046875,
          "durationTicks": 24,
          "midi": 35,
          "name": "B1",
          "ticks": 44736,
          "time": 87.375,
          "velocity": 0.3937007874015748
        },
        {
          "duration": 0.046875,
          "durationTicks": 24,
          "midi": 75,
          "name": "D#5",
          "ticks": 44736,
          "time": 87.375,
          "velocity": 0.3937007874015748
        },
        {
          "duration": 0.046875,
          "durationTicks": 24,
          "midi": 47,
          "name": "B2",
          "ticks": 44736,
          "time": 87.375,
          "velocity": 0.3937007874015748
        },
        {
          "duration": 0.046875,
          "durationTicks": 24,
          "midi": 75,
          "name": "D#5",
          "ticks": 44736,
          "time": 87.375,
          "velocity": 0.3937007874015748
        },
        {
          "duration": 0.046875,
          "durationTicks": 24,
          "midi": 47,
          "name": "B2",
          "ticks": 44736,
          "time": 87.375,
          "velocity": 0.3937007874015748
        },
        {
          "duration": 0.046875,
          "durationTicks": 24,
          "midi": 63,
          "name": "D#4",
          "ticks": 44736,
          "time": 87.375,
          "velocity": 0.3937007874015748
        },
        {
          "duration": 0.046875,
          "durationTicks": 24,
          "midi": 35,
          "name": "B1",
          "ticks": 44736,
          "time": 87.375,
          "velocity": 0.3937007874015748
        },
        {
          "duration": 0.046875,
          "durationTicks": 24,
          "midi": 63,
          "name": "D#4",
          "ticks": 44760,
          "time": 87.421875,
          "velocity": 0.3937007874015748
        },
        {
          "duration": 0.046875,
          "durationTicks": 24,
          "midi": 35,
          "name": "B1",
          "ticks": 44760,
          "time": 87.421875,
          "velocity": 0.3937007874015748
        },
        {
          "duration": 0.046875,
          "durationTicks": 24,
          "midi": 47,
          "name": "B2",
          "ticks": 44760,
          "time": 87.421875,
          "velocity": 0.3937007874015748
        },
        {
          "duration": 0.046875,
          "durationTicks": 24,
          "midi": 47,
          "name": "B2",
          "ticks": 44760,
          "time": 87.421875,
          "velocity": 0.3937007874015748
        },
        {
          "duration": 0.046875,
          "durationTicks": 24,
          "midi": 75,
          "name": "D#5",
          "ticks": 44760,
          "time": 87.421875,
          "velocity": 0.3937007874015748
        },
        {
          "duration": 0.046875,
          "durationTicks": 24,
          "midi": 63,
          "name": "D#4",
          "ticks": 44760,
          "time": 87.421875,
          "velocity": 0.3937007874015748
        },
        {
          "duration": 0.046875,
          "durationTicks": 24,
          "midi": 47,
          "name": "B2",
          "ticks": 44760,
          "time": 87.421875,
          "velocity": 0.3937007874015748
        },
        {
          "duration": 0.046875,
          "durationTicks": 24,
          "midi": 63,
          "name": "D#4",
          "ticks": 44760,
          "time": 87.421875,
          "velocity": 0.3937007874015748
        },
        {
          "duration": 0.046875,
          "durationTicks": 24,
          "midi": 75,
          "name": "D#5",
          "ticks": 44760,
          "time": 87.421875,
          "velocity": 0.3937007874015748
        },
        {
          "duration": 0.046875,
          "durationTicks": 24,
          "midi": 75,
          "name": "D#5",
          "ticks": 44760,
          "time": 87.421875,
          "velocity": 0.3937007874015748
        },
        {
          "duration": 0.046875,
          "durationTicks": 24,
          "midi": 63,
          "name": "D#4",
          "ticks": 44760,
          "time": 87.421875,
          "velocity": 0.3937007874015748
        },
        {
          "duration": 0.046875,
          "durationTicks": 24,
          "midi": 35,
          "name": "B1",
          "ticks": 44760,
          "time": 87.421875,
          "velocity": 0.3937007874015748
        },
        {
          "duration": 0.046875,
          "durationTicks": 24,
          "midi": 35,
          "name": "B1",
          "ticks": 44760,
          "time": 87.421875,
          "velocity": 0.3937007874015748
        },
        {
          "duration": 0.046875,
          "durationTicks": 24,
          "midi": 75,
          "name": "D#5",
          "ticks": 44760,
          "time": 87.421875,
          "velocity": 0.3937007874015748
        },
        {
          "duration": 0.046875,
          "durationTicks": 24,
          "midi": 47,
          "name": "B2",
          "ticks": 44760,
          "time": 87.421875,
          "velocity": 0.3937007874015748
        },
        {
          "duration": 0.046875,
          "durationTicks": 24,
          "midi": 35,
          "name": "B1",
          "ticks": 44760,
          "time": 87.421875,
          "velocity": 0.3937007874015748
        },
        {
          "duration": 0.046875,
          "durationTicks": 24,
          "midi": 47,
          "name": "B2",
          "ticks": 44784,
          "time": 87.46875,
          "velocity": 0.3937007874015748
        },
        {
          "duration": 0.046875,
          "durationTicks": 24,
          "midi": 35,
          "name": "B1",
          "ticks": 44784,
          "time": 87.46875,
          "velocity": 0.3937007874015748
        },
        {
          "duration": 0.046875,
          "durationTicks": 24,
          "midi": 75,
          "name": "D#5",
          "ticks": 44784,
          "time": 87.46875,
          "velocity": 0.3937007874015748
        },
        {
          "duration": 0.046875,
          "durationTicks": 24,
          "midi": 35,
          "name": "B1",
          "ticks": 44784,
          "time": 87.46875,
          "velocity": 0.3937007874015748
        },
        {
          "duration": 0.046875,
          "durationTicks": 24,
          "midi": 63,
          "name": "D#4",
          "ticks": 44784,
          "time": 87.46875,
          "velocity": 0.3937007874015748
        },
        {
          "duration": 0.046875,
          "durationTicks": 24,
          "midi": 47,
          "name": "B2",
          "ticks": 44784,
          "time": 87.46875,
          "velocity": 0.3937007874015748
        },
        {
          "duration": 0.046875,
          "durationTicks": 24,
          "midi": 75,
          "name": "D#5",
          "ticks": 44784,
          "time": 87.46875,
          "velocity": 0.3937007874015748
        },
        {
          "duration": 0.046875,
          "durationTicks": 24,
          "midi": 63,
          "name": "D#4",
          "ticks": 44784,
          "time": 87.46875,
          "velocity": 0.3937007874015748
        },
        {
          "duration": 0.046875,
          "durationTicks": 24,
          "midi": 75,
          "name": "D#5",
          "ticks": 44784,
          "time": 87.46875,
          "velocity": 0.3937007874015748
        },
        {
          "duration": 0.046875,
          "durationTicks": 24,
          "midi": 35,
          "name": "B1",
          "ticks": 44784,
          "time": 87.46875,
          "velocity": 0.3937007874015748
        },
        {
          "duration": 0.046875,
          "durationTicks": 24,
          "midi": 35,
          "name": "B1",
          "ticks": 44784,
          "time": 87.46875,
          "velocity": 0.3937007874015748
        },
        {
          "duration": 0.046875,
          "durationTicks": 24,
          "midi": 63,
          "name": "D#4",
          "ticks": 44784,
          "time": 87.46875,
          "velocity": 0.3937007874015748
        },
        {
          "duration": 0.046875,
          "durationTicks": 24,
          "midi": 47,
          "name": "B2",
          "ticks": 44784,
          "time": 87.46875,
          "velocity": 0.3937007874015748
        },
        {
          "duration": 0.046875,
          "durationTicks": 24,
          "midi": 47,
          "name": "B2",
          "ticks": 44784,
          "time": 87.46875,
          "velocity": 0.3937007874015748
        },
        {
          "duration": 0.046875,
          "durationTicks": 24,
          "midi": 63,
          "name": "D#4",
          "ticks": 44784,
          "time": 87.46875,
          "velocity": 0.3937007874015748
        },
        {
          "duration": 0.046875,
          "durationTicks": 24,
          "midi": 75,
          "name": "D#5",
          "ticks": 44784,
          "time": 87.46875,
          "velocity": 0.3937007874015748
        },
        {
          "duration": 0.046875,
          "durationTicks": 24,
          "midi": 63,
          "name": "D#4",
          "ticks": 44808,
          "time": 87.515625,
          "velocity": 0.3937007874015748
        },
        {
          "duration": 0.046875,
          "durationTicks": 24,
          "midi": 35,
          "name": "B1",
          "ticks": 44808,
          "time": 87.515625,
          "velocity": 0.3937007874015748
        },
        {
          "duration": 0.046875,
          "durationTicks": 24,
          "midi": 63,
          "name": "D#4",
          "ticks": 44808,
          "time": 87.515625,
          "velocity": 0.3937007874015748
        },
        {
          "duration": 0.046875,
          "durationTicks": 24,
          "midi": 35,
          "name": "B1",
          "ticks": 44808,
          "time": 87.515625,
          "velocity": 0.3937007874015748
        },
        {
          "duration": 0.046875,
          "durationTicks": 24,
          "midi": 47,
          "name": "B2",
          "ticks": 44808,
          "time": 87.515625,
          "velocity": 0.3937007874015748
        },
        {
          "duration": 0.046875,
          "durationTicks": 24,
          "midi": 75,
          "name": "D#5",
          "ticks": 44808,
          "time": 87.515625,
          "velocity": 0.3937007874015748
        },
        {
          "duration": 0.046875,
          "durationTicks": 24,
          "midi": 47,
          "name": "B2",
          "ticks": 44808,
          "time": 87.515625,
          "velocity": 0.3937007874015748
        },
        {
          "duration": 0.046875,
          "durationTicks": 24,
          "midi": 75,
          "name": "D#5",
          "ticks": 44808,
          "time": 87.515625,
          "velocity": 0.3937007874015748
        },
        {
          "duration": 0.046875,
          "durationTicks": 24,
          "midi": 63,
          "name": "D#4",
          "ticks": 44808,
          "time": 87.515625,
          "velocity": 0.3937007874015748
        },
        {
          "duration": 0.046875,
          "durationTicks": 24,
          "midi": 63,
          "name": "D#4",
          "ticks": 44808,
          "time": 87.515625,
          "velocity": 0.3937007874015748
        },
        {
          "duration": 0.046875,
          "durationTicks": 24,
          "midi": 75,
          "name": "D#5",
          "ticks": 44808,
          "time": 87.515625,
          "velocity": 0.3937007874015748
        },
        {
          "duration": 0.046875,
          "durationTicks": 24,
          "midi": 35,
          "name": "B1",
          "ticks": 44808,
          "time": 87.515625,
          "velocity": 0.3937007874015748
        },
        {
          "duration": 0.046875,
          "durationTicks": 24,
          "midi": 47,
          "name": "B2",
          "ticks": 44808,
          "time": 87.515625,
          "velocity": 0.3937007874015748
        },
        {
          "duration": 0.046875,
          "durationTicks": 24,
          "midi": 75,
          "name": "D#5",
          "ticks": 44808,
          "time": 87.515625,
          "velocity": 0.3937007874015748
        },
        {
          "duration": 0.046875,
          "durationTicks": 24,
          "midi": 47,
          "name": "B2",
          "ticks": 44808,
          "time": 87.515625,
          "velocity": 0.3937007874015748
        },
        {
          "duration": 0.046875,
          "durationTicks": 24,
          "midi": 35,
          "name": "B1",
          "ticks": 44808,
          "time": 87.515625,
          "velocity": 0.3937007874015748
        },
        {
          "duration": 0.046875,
          "durationTicks": 24,
          "midi": 63,
          "name": "D#4",
          "ticks": 44832,
          "time": 87.5625,
          "velocity": 0.3937007874015748
        },
        {
          "duration": 0.046875,
          "durationTicks": 24,
          "midi": 35,
          "name": "B1",
          "ticks": 44832,
          "time": 87.5625,
          "velocity": 0.3937007874015748
        },
        {
          "duration": 0.046875,
          "durationTicks": 24,
          "midi": 75,
          "name": "D#5",
          "ticks": 44832,
          "time": 87.5625,
          "velocity": 0.3937007874015748
        },
        {
          "duration": 0.046875,
          "durationTicks": 24,
          "midi": 75,
          "name": "D#5",
          "ticks": 44832,
          "time": 87.5625,
          "velocity": 0.3937007874015748
        },
        {
          "duration": 0.046875,
          "durationTicks": 24,
          "midi": 35,
          "name": "B1",
          "ticks": 44832,
          "time": 87.5625,
          "velocity": 0.3937007874015748
        },
        {
          "duration": 0.046875,
          "durationTicks": 24,
          "midi": 47,
          "name": "B2",
          "ticks": 44832,
          "time": 87.5625,
          "velocity": 0.3937007874015748
        },
        {
          "duration": 0.046875,
          "durationTicks": 24,
          "midi": 63,
          "name": "D#4",
          "ticks": 44832,
          "time": 87.5625,
          "velocity": 0.3937007874015748
        },
        {
          "duration": 0.046875,
          "durationTicks": 24,
          "midi": 47,
          "name": "B2",
          "ticks": 44832,
          "time": 87.5625,
          "velocity": 0.3937007874015748
        },
        {
          "duration": 0.046875,
          "durationTicks": 24,
          "midi": 75,
          "name": "D#5",
          "ticks": 44856,
          "time": 87.609375,
          "velocity": 0.3937007874015748
        },
        {
          "duration": 0.046875,
          "durationTicks": 24,
          "midi": 47,
          "name": "B2",
          "ticks": 44856,
          "time": 87.609375,
          "velocity": 0.3937007874015748
        },
        {
          "duration": 0.046875,
          "durationTicks": 24,
          "midi": 75,
          "name": "D#5",
          "ticks": 44856,
          "time": 87.609375,
          "velocity": 0.3937007874015748
        },
        {
          "duration": 0.046875,
          "durationTicks": 24,
          "midi": 63,
          "name": "D#4",
          "ticks": 44856,
          "time": 87.609375,
          "velocity": 0.3937007874015748
        },
        {
          "duration": 0.046875,
          "durationTicks": 24,
          "midi": 35,
          "name": "B1",
          "ticks": 44856,
          "time": 87.609375,
          "velocity": 0.3937007874015748
        },
        {
          "duration": 0.046875,
          "durationTicks": 24,
          "midi": 63,
          "name": "D#4",
          "ticks": 44856,
          "time": 87.609375,
          "velocity": 0.3937007874015748
        },
        {
          "duration": 0.046875,
          "durationTicks": 24,
          "midi": 35,
          "name": "B1",
          "ticks": 44856,
          "time": 87.609375,
          "velocity": 0.3937007874015748
        },
        {
          "duration": 0.046875,
          "durationTicks": 24,
          "midi": 47,
          "name": "B2",
          "ticks": 44856,
          "time": 87.609375,
          "velocity": 0.3937007874015748
        },
        {
          "duration": 0.046875,
          "durationTicks": 24,
          "midi": 63,
          "name": "D#4",
          "ticks": 44880,
          "time": 87.65625,
          "velocity": 0.3937007874015748
        },
        {
          "duration": 0.046875,
          "durationTicks": 24,
          "midi": 75,
          "name": "D#5",
          "ticks": 44880,
          "time": 87.65625,
          "velocity": 0.3937007874015748
        },
        {
          "duration": 0.046875,
          "durationTicks": 24,
          "midi": 75,
          "name": "D#5",
          "ticks": 44880,
          "time": 87.65625,
          "velocity": 0.3937007874015748
        },
        {
          "duration": 0.046875,
          "durationTicks": 24,
          "midi": 35,
          "name": "B1",
          "ticks": 44880,
          "time": 87.65625,
          "velocity": 0.3937007874015748
        },
        {
          "duration": 0.046875,
          "durationTicks": 24,
          "midi": 35,
          "name": "B1",
          "ticks": 44880,
          "time": 87.65625,
          "velocity": 0.3937007874015748
        },
        {
          "duration": 0.046875,
          "durationTicks": 24,
          "midi": 47,
          "name": "B2",
          "ticks": 44880,
          "time": 87.65625,
          "velocity": 0.3937007874015748
        },
        {
          "duration": 0.046875,
          "durationTicks": 24,
          "midi": 47,
          "name": "B2",
          "ticks": 44880,
          "time": 87.65625,
          "velocity": 0.3937007874015748
        },
        {
          "duration": 0.046875,
          "durationTicks": 24,
          "midi": 63,
          "name": "D#4",
          "ticks": 44880,
          "time": 87.65625,
          "velocity": 0.3937007874015748
        },
        {
          "duration": 0.046875,
          "durationTicks": 24,
          "midi": 63,
          "name": "D#4",
          "ticks": 44904,
          "time": 87.703125,
          "velocity": 0.3937007874015748
        },
        {
          "duration": 0.046875,
          "durationTicks": 24,
          "midi": 75,
          "name": "D#5",
          "ticks": 44904,
          "time": 87.703125,
          "velocity": 0.3937007874015748
        },
        {
          "duration": 0.046875,
          "durationTicks": 24,
          "midi": 47,
          "name": "B2",
          "ticks": 44904,
          "time": 87.703125,
          "velocity": 0.3937007874015748
        },
        {
          "duration": 0.046875,
          "durationTicks": 24,
          "midi": 47,
          "name": "B2",
          "ticks": 44904,
          "time": 87.703125,
          "velocity": 0.3937007874015748
        },
        {
          "duration": 0.046875,
          "durationTicks": 24,
          "midi": 35,
          "name": "B1",
          "ticks": 44904,
          "time": 87.703125,
          "velocity": 0.3937007874015748
        },
        {
          "duration": 0.046875,
          "durationTicks": 24,
          "midi": 63,
          "name": "D#4",
          "ticks": 44904,
          "time": 87.703125,
          "velocity": 0.3937007874015748
        },
        {
          "duration": 0.046875,
          "durationTicks": 24,
          "midi": 35,
          "name": "B1",
          "ticks": 44904,
          "time": 87.703125,
          "velocity": 0.3937007874015748
        },
        {
          "duration": 0.046875,
          "durationTicks": 24,
          "midi": 75,
          "name": "D#5",
          "ticks": 44904,
          "time": 87.703125,
          "velocity": 0.3937007874015748
        },
        {
          "duration": 0.046875,
          "durationTicks": 24,
          "midi": 75,
          "name": "D#5",
          "ticks": 44928,
          "time": 87.75,
          "velocity": 0.3937007874015748
        },
        {
          "duration": 0.046875,
          "durationTicks": 24,
          "midi": 63,
          "name": "D#4",
          "ticks": 44928,
          "time": 87.75,
          "velocity": 0.3937007874015748
        },
        {
          "duration": 0.046875,
          "durationTicks": 24,
          "midi": 75,
          "name": "D#5",
          "ticks": 44928,
          "time": 87.75,
          "velocity": 0.3937007874015748
        },
        {
          "duration": 0.046875,
          "durationTicks": 24,
          "midi": 54,
          "name": "F#3",
          "ticks": 44928,
          "time": 87.75,
          "velocity": 0.3937007874015748
        },
        {
          "duration": 0.046875,
          "durationTicks": 24,
          "midi": 54,
          "name": "F#3",
          "ticks": 44928,
          "time": 87.75,
          "velocity": 0.3937007874015748
        },
        {
          "duration": 0.046875,
          "durationTicks": 24,
          "midi": 59,
          "name": "B3",
          "ticks": 44928,
          "time": 87.75,
          "velocity": 0.3937007874015748
        },
        {
          "duration": 0.046875,
          "durationTicks": 24,
          "midi": 59,
          "name": "B3",
          "ticks": 44928,
          "time": 87.75,
          "velocity": 0.3937007874015748
        },
        {
          "duration": 0.046875,
          "durationTicks": 24,
          "midi": 54,
          "name": "F#3",
          "ticks": 44928,
          "time": 87.75,
          "velocity": 0.3937007874015748
        },
        {
          "duration": 0.046875,
          "durationTicks": 24,
          "midi": 54,
          "name": "F#3",
          "ticks": 44928,
          "time": 87.75,
          "velocity": 0.3937007874015748
        },
        {
          "duration": 0.046875,
          "durationTicks": 24,
          "midi": 59,
          "name": "B3",
          "ticks": 44928,
          "time": 87.75,
          "velocity": 0.3937007874015748
        },
        {
          "duration": 0.046875,
          "durationTicks": 24,
          "midi": 59,
          "name": "B3",
          "ticks": 44928,
          "time": 87.75,
          "velocity": 0.3937007874015748
        },
        {
          "duration": 0.046875,
          "durationTicks": 24,
          "midi": 59,
          "name": "B3",
          "ticks": 44928,
          "time": 87.75,
          "velocity": 0.3937007874015748
        },
        {
          "duration": 0.046875,
          "durationTicks": 24,
          "midi": 54,
          "name": "F#3",
          "ticks": 44928,
          "time": 87.75,
          "velocity": 0.3937007874015748
        },
        {
          "duration": 0.046875,
          "durationTicks": 24,
          "midi": 63,
          "name": "D#4",
          "ticks": 44928,
          "time": 87.75,
          "velocity": 0.3937007874015748
        },
        {
          "duration": 0.046875,
          "durationTicks": 24,
          "midi": 54,
          "name": "F#3",
          "ticks": 44928,
          "time": 87.75,
          "velocity": 0.3937007874015748
        },
        {
          "duration": 0.046875,
          "durationTicks": 24,
          "midi": 59,
          "name": "B3",
          "ticks": 44928,
          "time": 87.75,
          "velocity": 0.3937007874015748
        },
        {
          "duration": 0.046875,
          "durationTicks": 24,
          "midi": 59,
          "name": "B3",
          "ticks": 44952,
          "time": 87.796875,
          "velocity": 0.3937007874015748
        },
        {
          "duration": 0.046875,
          "durationTicks": 24,
          "midi": 59,
          "name": "B3",
          "ticks": 44952,
          "time": 87.796875,
          "velocity": 0.3937007874015748
        },
        {
          "duration": 0.046875,
          "durationTicks": 24,
          "midi": 54,
          "name": "F#3",
          "ticks": 44952,
          "time": 87.796875,
          "velocity": 0.3937007874015748
        },
        {
          "duration": 0.046875,
          "durationTicks": 24,
          "midi": 63,
          "name": "D#4",
          "ticks": 44952,
          "time": 87.796875,
          "velocity": 0.3937007874015748
        },
        {
          "duration": 0.046875,
          "durationTicks": 24,
          "midi": 63,
          "name": "D#4",
          "ticks": 44952,
          "time": 87.796875,
          "velocity": 0.3937007874015748
        },
        {
          "duration": 0.046875,
          "durationTicks": 24,
          "midi": 59,
          "name": "B3",
          "ticks": 44952,
          "time": 87.796875,
          "velocity": 0.3937007874015748
        },
        {
          "duration": 0.046875,
          "durationTicks": 24,
          "midi": 54,
          "name": "F#3",
          "ticks": 44952,
          "time": 87.796875,
          "velocity": 0.3937007874015748
        },
        {
          "duration": 0.046875,
          "durationTicks": 24,
          "midi": 59,
          "name": "B3",
          "ticks": 44952,
          "time": 87.796875,
          "velocity": 0.3937007874015748
        },
        {
          "duration": 0.046875,
          "durationTicks": 24,
          "midi": 59,
          "name": "B3",
          "ticks": 44952,
          "time": 87.796875,
          "velocity": 0.3937007874015748
        },
        {
          "duration": 0.046875,
          "durationTicks": 24,
          "midi": 54,
          "name": "F#3",
          "ticks": 44952,
          "time": 87.796875,
          "velocity": 0.3937007874015748
        },
        {
          "duration": 0.046875,
          "durationTicks": 24,
          "midi": 54,
          "name": "F#3",
          "ticks": 44952,
          "time": 87.796875,
          "velocity": 0.3937007874015748
        },
        {
          "duration": 0.046875,
          "durationTicks": 24,
          "midi": 75,
          "name": "D#5",
          "ticks": 44952,
          "time": 87.796875,
          "velocity": 0.3937007874015748
        },
        {
          "duration": 0.046875,
          "durationTicks": 24,
          "midi": 59,
          "name": "B3",
          "ticks": 44952,
          "time": 87.796875,
          "velocity": 0.3937007874015748
        },
        {
          "duration": 0.046875,
          "durationTicks": 24,
          "midi": 75,
          "name": "D#5",
          "ticks": 44952,
          "time": 87.796875,
          "velocity": 0.3937007874015748
        },
        {
          "duration": 0.046875,
          "durationTicks": 24,
          "midi": 54,
          "name": "F#3",
          "ticks": 44952,
          "time": 87.796875,
          "velocity": 0.3937007874015748
        },
        {
          "duration": 0.046875,
          "durationTicks": 24,
          "midi": 54,
          "name": "F#3",
          "ticks": 44952,
          "time": 87.796875,
          "velocity": 0.3937007874015748
        },
        {
          "duration": 0.046875,
          "durationTicks": 24,
          "midi": 59,
          "name": "B3",
          "ticks": 44976,
          "time": 87.84375,
          "velocity": 0.3937007874015748
        },
        {
          "duration": 0.046875,
          "durationTicks": 24,
          "midi": 63,
          "name": "D#4",
          "ticks": 44976,
          "time": 87.84375,
          "velocity": 0.3937007874015748
        },
        {
          "duration": 0.046875,
          "durationTicks": 24,
          "midi": 54,
          "name": "F#3",
          "ticks": 44976,
          "time": 87.84375,
          "velocity": 0.3937007874015748
        },
        {
          "duration": 0.046875,
          "durationTicks": 24,
          "midi": 54,
          "name": "F#3",
          "ticks": 44976,
          "time": 87.84375,
          "velocity": 0.3937007874015748
        },
        {
          "duration": 0.046875,
          "durationTicks": 24,
          "midi": 54,
          "name": "F#3",
          "ticks": 44976,
          "time": 87.84375,
          "velocity": 0.3937007874015748
        },
        {
          "duration": 0.046875,
          "durationTicks": 24,
          "midi": 75,
          "name": "D#5",
          "ticks": 44976,
          "time": 87.84375,
          "velocity": 0.3937007874015748
        },
        {
          "duration": 0.046875,
          "durationTicks": 24,
          "midi": 59,
          "name": "B3",
          "ticks": 44976,
          "time": 87.84375,
          "velocity": 0.3937007874015748
        },
        {
          "duration": 0.046875,
          "durationTicks": 24,
          "midi": 54,
          "name": "F#3",
          "ticks": 44976,
          "time": 87.84375,
          "velocity": 0.3937007874015748
        },
        {
          "duration": 0.046875,
          "durationTicks": 24,
          "midi": 59,
          "name": "B3",
          "ticks": 44976,
          "time": 87.84375,
          "velocity": 0.3937007874015748
        },
        {
          "duration": 0.046875,
          "durationTicks": 24,
          "midi": 63,
          "name": "D#4",
          "ticks": 44976,
          "time": 87.84375,
          "velocity": 0.3937007874015748
        },
        {
          "duration": 0.046875,
          "durationTicks": 24,
          "midi": 54,
          "name": "F#3",
          "ticks": 44976,
          "time": 87.84375,
          "velocity": 0.3937007874015748
        },
        {
          "duration": 0.046875,
          "durationTicks": 24,
          "midi": 59,
          "name": "B3",
          "ticks": 44976,
          "time": 87.84375,
          "velocity": 0.3937007874015748
        },
        {
          "duration": 0.046875,
          "durationTicks": 24,
          "midi": 75,
          "name": "D#5",
          "ticks": 44976,
          "time": 87.84375,
          "velocity": 0.3937007874015748
        },
        {
          "duration": 0.046875,
          "durationTicks": 24,
          "midi": 59,
          "name": "B3",
          "ticks": 44976,
          "time": 87.84375,
          "velocity": 0.3937007874015748
        },
        {
          "duration": 0.046875,
          "durationTicks": 24,
          "midi": 54,
          "name": "F#3",
          "ticks": 44976,
          "time": 87.84375,
          "velocity": 0.3937007874015748
        },
        {
          "duration": 0.046875,
          "durationTicks": 24,
          "midi": 59,
          "name": "B3",
          "ticks": 44976,
          "time": 87.84375,
          "velocity": 0.3937007874015748
        },
        {
          "duration": 0.046875,
          "durationTicks": 24,
          "midi": 63,
          "name": "D#4",
          "ticks": 45000,
          "time": 87.890625,
          "velocity": 0.3937007874015748
        },
        {
          "duration": 0.046875,
          "durationTicks": 24,
          "midi": 54,
          "name": "F#3",
          "ticks": 45000,
          "time": 87.890625,
          "velocity": 0.3937007874015748
        },
        {
          "duration": 0.046875,
          "durationTicks": 24,
          "midi": 59,
          "name": "B3",
          "ticks": 45000,
          "time": 87.890625,
          "velocity": 0.3937007874015748
        },
        {
          "duration": 0.046875,
          "durationTicks": 24,
          "midi": 54,
          "name": "F#3",
          "ticks": 45000,
          "time": 87.890625,
          "velocity": 0.3937007874015748
        },
        {
          "duration": 0.046875,
          "durationTicks": 24,
          "midi": 59,
          "name": "B3",
          "ticks": 45000,
          "time": 87.890625,
          "velocity": 0.3937007874015748
        },
        {
          "duration": 0.046875,
          "durationTicks": 24,
          "midi": 59,
          "name": "B3",
          "ticks": 45000,
          "time": 87.890625,
          "velocity": 0.3937007874015748
        },
        {
          "duration": 0.046875,
          "durationTicks": 24,
          "midi": 75,
          "name": "D#5",
          "ticks": 45000,
          "time": 87.890625,
          "velocity": 0.3937007874015748
        },
        {
          "duration": 0.046875,
          "durationTicks": 24,
          "midi": 54,
          "name": "F#3",
          "ticks": 45000,
          "time": 87.890625,
          "velocity": 0.3937007874015748
        },
        {
          "duration": 0.046875,
          "durationTicks": 24,
          "midi": 54,
          "name": "F#3",
          "ticks": 45000,
          "time": 87.890625,
          "velocity": 0.3937007874015748
        },
        {
          "duration": 0.046875,
          "durationTicks": 24,
          "midi": 54,
          "name": "F#3",
          "ticks": 45000,
          "time": 87.890625,
          "velocity": 0.3937007874015748
        },
        {
          "duration": 0.046875,
          "durationTicks": 24,
          "midi": 59,
          "name": "B3",
          "ticks": 45000,
          "time": 87.890625,
          "velocity": 0.3937007874015748
        },
        {
          "duration": 0.046875,
          "durationTicks": 24,
          "midi": 54,
          "name": "F#3",
          "ticks": 45000,
          "time": 87.890625,
          "velocity": 0.3937007874015748
        },
        {
          "duration": 0.046875,
          "durationTicks": 24,
          "midi": 59,
          "name": "B3",
          "ticks": 45000,
          "time": 87.890625,
          "velocity": 0.3937007874015748
        },
        {
          "duration": 0.046875,
          "durationTicks": 24,
          "midi": 75,
          "name": "D#5",
          "ticks": 45000,
          "time": 87.890625,
          "velocity": 0.3937007874015748
        },
        {
          "duration": 0.046875,
          "durationTicks": 24,
          "midi": 59,
          "name": "B3",
          "ticks": 45000,
          "time": 87.890625,
          "velocity": 0.3937007874015748
        },
        {
          "duration": 0.046875,
          "durationTicks": 24,
          "midi": 63,
          "name": "D#4",
          "ticks": 45000,
          "time": 87.890625,
          "velocity": 0.3937007874015748
        },
        {
          "duration": 0.046875,
          "durationTicks": 24,
          "midi": 59,
          "name": "B3",
          "ticks": 45024,
          "time": 87.9375,
          "velocity": 0.3937007874015748
        },
        {
          "duration": 0.046875,
          "durationTicks": 24,
          "midi": 59,
          "name": "B3",
          "ticks": 45024,
          "time": 87.9375,
          "velocity": 0.3937007874015748
        },
        {
          "duration": 0.046875,
          "durationTicks": 24,
          "midi": 63,
          "name": "D#4",
          "ticks": 45024,
          "time": 87.9375,
          "velocity": 0.3937007874015748
        },
        {
          "duration": 0.046875,
          "durationTicks": 24,
          "midi": 75,
          "name": "D#5",
          "ticks": 45024,
          "time": 87.9375,
          "velocity": 0.3937007874015748
        },
        {
          "duration": 0.046875,
          "durationTicks": 24,
          "midi": 75,
          "name": "D#5",
          "ticks": 45024,
          "time": 87.9375,
          "velocity": 0.3937007874015748
        },
        {
          "duration": 0.046875,
          "durationTicks": 24,
          "midi": 54,
          "name": "F#3",
          "ticks": 45024,
          "time": 87.9375,
          "velocity": 0.3937007874015748
        },
        {
          "duration": 0.046875,
          "durationTicks": 24,
          "midi": 54,
          "name": "F#3",
          "ticks": 45024,
          "time": 87.9375,
          "velocity": 0.3937007874015748
        },
        {
          "duration": 0.046875,
          "durationTicks": 24,
          "midi": 54,
          "name": "F#3",
          "ticks": 45024,
          "time": 87.9375,
          "velocity": 0.3937007874015748
        },
        {
          "duration": 0.046875,
          "durationTicks": 24,
          "midi": 63,
          "name": "D#4",
          "ticks": 45024,
          "time": 87.9375,
          "velocity": 0.3937007874015748
        },
        {
          "duration": 0.046875,
          "durationTicks": 24,
          "midi": 54,
          "name": "F#3",
          "ticks": 45024,
          "time": 87.9375,
          "velocity": 0.3937007874015748
        },
        {
          "duration": 0.046875,
          "durationTicks": 24,
          "midi": 59,
          "name": "B3",
          "ticks": 45024,
          "time": 87.9375,
          "velocity": 0.3937007874015748
        },
        {
          "duration": 0.046875,
          "durationTicks": 24,
          "midi": 59,
          "name": "B3",
          "ticks": 45024,
          "time": 87.9375,
          "velocity": 0.3937007874015748
        },
        {
          "duration": 0.046875,
          "durationTicks": 24,
          "midi": 75,
          "name": "D#5",
          "ticks": 45048,
          "time": 87.984375,
          "velocity": 0.3937007874015748
        },
        {
          "duration": 0.046875,
          "durationTicks": 24,
          "midi": 63,
          "name": "D#4",
          "ticks": 45048,
          "time": 87.984375,
          "velocity": 0.3937007874015748
        },
        {
          "duration": 0.046875,
          "durationTicks": 24,
          "midi": 59,
          "name": "B3",
          "ticks": 45048,
          "time": 87.984375,
          "velocity": 0.3937007874015748
        },
        {
          "duration": 0.046875,
          "durationTicks": 24,
          "midi": 54,
          "name": "F#3",
          "ticks": 45048,
          "time": 87.984375,
          "velocity": 0.3937007874015748
        },
        {
          "duration": 0.046875,
          "durationTicks": 24,
          "midi": 75,
          "name": "D#5",
          "ticks": 45048,
          "time": 87.984375,
          "velocity": 0.3937007874015748
        },
        {
          "duration": 0.046875,
          "durationTicks": 24,
          "midi": 59,
          "name": "B3",
          "ticks": 45048,
          "time": 87.984375,
          "velocity": 0.3937007874015748
        },
        {
          "duration": 0.046875,
          "durationTicks": 24,
          "midi": 54,
          "name": "F#3",
          "ticks": 45048,
          "time": 87.984375,
          "velocity": 0.3937007874015748
        },
        {
          "duration": 0.046875,
          "durationTicks": 24,
          "midi": 59,
          "name": "B3",
          "ticks": 45048,
          "time": 87.984375,
          "velocity": 0.3937007874015748
        },
        {
          "duration": 0.046875,
          "durationTicks": 24,
          "midi": 63,
          "name": "D#4",
          "ticks": 45048,
          "time": 87.984375,
          "velocity": 0.3937007874015748
        },
        {
          "duration": 0.046875,
          "durationTicks": 24,
          "midi": 59,
          "name": "B3",
          "ticks": 45048,
          "time": 87.984375,
          "velocity": 0.3937007874015748
        },
        {
          "duration": 0.046875,
          "durationTicks": 24,
          "midi": 54,
          "name": "F#3",
          "ticks": 45048,
          "time": 87.984375,
          "velocity": 0.3937007874015748
        },
        {
          "duration": 0.046875,
          "durationTicks": 24,
          "midi": 54,
          "name": "F#3",
          "ticks": 45048,
          "time": 87.984375,
          "velocity": 0.3937007874015748
        },
        {
          "duration": 0.046875,
          "durationTicks": 24,
          "midi": 59,
          "name": "B3",
          "ticks": 45072,
          "time": 88.03125,
          "velocity": 0.3937007874015748
        },
        {
          "duration": 0.046875,
          "durationTicks": 24,
          "midi": 54,
          "name": "F#3",
          "ticks": 45072,
          "time": 88.03125,
          "velocity": 0.3937007874015748
        },
        {
          "duration": 0.046875,
          "durationTicks": 24,
          "midi": 59,
          "name": "B3",
          "ticks": 45072,
          "time": 88.03125,
          "velocity": 0.3937007874015748
        },
        {
          "duration": 0.046875,
          "durationTicks": 24,
          "midi": 63,
          "name": "D#4",
          "ticks": 45072,
          "time": 88.03125,
          "velocity": 0.3937007874015748
        },
        {
          "duration": 0.046875,
          "durationTicks": 24,
          "midi": 59,
          "name": "B3",
          "ticks": 45072,
          "time": 88.03125,
          "velocity": 0.3937007874015748
        },
        {
          "duration": 0.046875,
          "durationTicks": 24,
          "midi": 75,
          "name": "D#5",
          "ticks": 45072,
          "time": 88.03125,
          "velocity": 0.3937007874015748
        },
        {
          "duration": 0.046875,
          "durationTicks": 24,
          "midi": 54,
          "name": "F#3",
          "ticks": 45072,
          "time": 88.03125,
          "velocity": 0.3937007874015748
        },
        {
          "duration": 0.046875,
          "durationTicks": 24,
          "midi": 59,
          "name": "B3",
          "ticks": 45072,
          "time": 88.03125,
          "velocity": 0.3937007874015748
        },
        {
          "duration": 0.046875,
          "durationTicks": 24,
          "midi": 54,
          "name": "F#3",
          "ticks": 45072,
          "time": 88.03125,
          "velocity": 0.3937007874015748
        },
        {
          "duration": 0.046875,
          "durationTicks": 24,
          "midi": 63,
          "name": "D#4",
          "ticks": 45072,
          "time": 88.03125,
          "velocity": 0.3937007874015748
        },
        {
          "duration": 0.046875,
          "durationTicks": 24,
          "midi": 75,
          "name": "D#5",
          "ticks": 45072,
          "time": 88.03125,
          "velocity": 0.3937007874015748
        },
        {
          "duration": 0.046875,
          "durationTicks": 24,
          "midi": 54,
          "name": "F#3",
          "ticks": 45072,
          "time": 88.03125,
          "velocity": 0.3937007874015748
        },
        {
          "duration": 0.046875,
          "durationTicks": 24,
          "midi": 75,
          "name": "D#5",
          "ticks": 45096,
          "time": 88.078125,
          "velocity": 0.3937007874015748
        },
        {
          "duration": 0.046875,
          "durationTicks": 24,
          "midi": 63,
          "name": "D#4",
          "ticks": 45096,
          "time": 88.078125,
          "velocity": 0.3937007874015748
        },
        {
          "duration": 0.046875,
          "durationTicks": 24,
          "midi": 59,
          "name": "B3",
          "ticks": 45096,
          "time": 88.078125,
          "velocity": 0.3937007874015748
        },
        {
          "duration": 0.046875,
          "durationTicks": 24,
          "midi": 59,
          "name": "B3",
          "ticks": 45096,
          "time": 88.078125,
          "velocity": 0.3937007874015748
        },
        {
          "duration": 0.046875,
          "durationTicks": 24,
          "midi": 63,
          "name": "D#4",
          "ticks": 45096,
          "time": 88.078125,
          "velocity": 0.3937007874015748
        },
        {
          "duration": 0.046875,
          "durationTicks": 24,
          "midi": 59,
          "name": "B3",
          "ticks": 45096,
          "time": 88.078125,
          "velocity": 0.3937007874015748
        },
        {
          "duration": 0.046875,
          "durationTicks": 24,
          "midi": 75,
          "name": "D#5",
          "ticks": 45096,
          "time": 88.078125,
          "velocity": 0.3937007874015748
        },
        {
          "duration": 0.046875,
          "durationTicks": 24,
          "midi": 59,
          "name": "B3",
          "ticks": 45096,
          "time": 88.078125,
          "velocity": 0.3937007874015748
        },
        {
          "duration": 0.046875,
          "durationTicks": 24,
          "midi": 54,
          "name": "F#3",
          "ticks": 45096,
          "time": 88.078125,
          "velocity": 0.3937007874015748
        },
        {
          "duration": 0.046875,
          "durationTicks": 24,
          "midi": 54,
          "name": "F#3",
          "ticks": 45096,
          "time": 88.078125,
          "velocity": 0.3937007874015748
        },
        {
          "duration": 0.046875,
          "durationTicks": 24,
          "midi": 54,
          "name": "F#3",
          "ticks": 45096,
          "time": 88.078125,
          "velocity": 0.3937007874015748
        },
        {
          "duration": 0.046875,
          "durationTicks": 24,
          "midi": 54,
          "name": "F#3",
          "ticks": 45096,
          "time": 88.078125,
          "velocity": 0.3937007874015748
        },
        {
          "duration": 0.046875,
          "durationTicks": 24,
          "midi": 54,
          "name": "F#3",
          "ticks": 45120,
          "time": 88.125,
          "velocity": 0.3937007874015748
        },
        {
          "duration": 0.046875,
          "durationTicks": 24,
          "midi": 59,
          "name": "B3",
          "ticks": 45120,
          "time": 88.125,
          "velocity": 0.3937007874015748
        },
        {
          "duration": 0.046875,
          "durationTicks": 24,
          "midi": 54,
          "name": "F#3",
          "ticks": 45120,
          "time": 88.125,
          "velocity": 0.3937007874015748
        },
        {
          "duration": 0.046875,
          "durationTicks": 24,
          "midi": 59,
          "name": "B3",
          "ticks": 45120,
          "time": 88.125,
          "velocity": 0.3937007874015748
        },
        {
          "duration": 0.046875,
          "durationTicks": 24,
          "midi": 63,
          "name": "D#4",
          "ticks": 45120,
          "time": 88.125,
          "velocity": 0.3937007874015748
        },
        {
          "duration": 0.046875,
          "durationTicks": 24,
          "midi": 75,
          "name": "D#5",
          "ticks": 45120,
          "time": 88.125,
          "velocity": 0.3937007874015748
        },
        {
          "duration": 0.046875,
          "durationTicks": 24,
          "midi": 59,
          "name": "B3",
          "ticks": 45120,
          "time": 88.125,
          "velocity": 0.3937007874015748
        },
        {
          "duration": 0.046875,
          "durationTicks": 24,
          "midi": 75,
          "name": "D#5",
          "ticks": 45120,
          "time": 88.125,
          "velocity": 0.3937007874015748
        },
        {
          "duration": 0.046875,
          "durationTicks": 24,
          "midi": 59,
          "name": "B3",
          "ticks": 45120,
          "time": 88.125,
          "velocity": 0.3937007874015748
        },
        {
          "duration": 0.046875,
          "durationTicks": 24,
          "midi": 54,
          "name": "F#3",
          "ticks": 45120,
          "time": 88.125,
          "velocity": 0.3937007874015748
        },
        {
          "duration": 0.046875,
          "durationTicks": 24,
          "midi": 63,
          "name": "D#4",
          "ticks": 45120,
          "time": 88.125,
          "velocity": 0.3937007874015748
        },
        {
          "duration": 0.046875,
          "durationTicks": 24,
          "midi": 54,
          "name": "F#3",
          "ticks": 45120,
          "time": 88.125,
          "velocity": 0.3937007874015748
        },
        {
          "duration": 0.046875,
          "durationTicks": 24,
          "midi": 59,
          "name": "B3",
          "ticks": 45144,
          "time": 88.171875,
          "velocity": 0.3937007874015748
        },
        {
          "duration": 0.046875,
          "durationTicks": 24,
          "midi": 59,
          "name": "B3",
          "ticks": 45144,
          "time": 88.171875,
          "velocity": 0.3937007874015748
        },
        {
          "duration": 0.046875,
          "durationTicks": 24,
          "midi": 59,
          "name": "B3",
          "ticks": 45144,
          "time": 88.171875,
          "velocity": 0.3937007874015748
        },
        {
          "duration": 0.046875,
          "durationTicks": 24,
          "midi": 54,
          "name": "F#3",
          "ticks": 45144,
          "time": 88.171875,
          "velocity": 0.3937007874015748
        },
        {
          "duration": 0.046875,
          "durationTicks": 24,
          "midi": 75,
          "name": "D#5",
          "ticks": 45144,
          "time": 88.171875,
          "velocity": 0.3937007874015748
        },
        {
          "duration": 0.046875,
          "durationTicks": 24,
          "midi": 54,
          "name": "F#3",
          "ticks": 45144,
          "time": 88.171875,
          "velocity": 0.3937007874015748
        },
        {
          "duration": 0.046875,
          "durationTicks": 24,
          "midi": 63,
          "name": "D#4",
          "ticks": 45144,
          "time": 88.171875,
          "velocity": 0.3937007874015748
        },
        {
          "duration": 0.046875,
          "durationTicks": 24,
          "midi": 75,
          "name": "D#5",
          "ticks": 45144,
          "time": 88.171875,
          "velocity": 0.3937007874015748
        },
        {
          "duration": 0.046875,
          "durationTicks": 24,
          "midi": 59,
          "name": "B3",
          "ticks": 45144,
          "time": 88.171875,
          "velocity": 0.3937007874015748
        },
        {
          "duration": 0.046875,
          "durationTicks": 24,
          "midi": 54,
          "name": "F#3",
          "ticks": 45144,
          "time": 88.171875,
          "velocity": 0.3937007874015748
        },
        {
          "duration": 0.046875,
          "durationTicks": 24,
          "midi": 63,
          "name": "D#4",
          "ticks": 45144,
          "time": 88.171875,
          "velocity": 0.3937007874015748
        },
        {
          "duration": 0.046875,
          "durationTicks": 24,
          "midi": 54,
          "name": "F#3",
          "ticks": 45144,
          "time": 88.171875,
          "velocity": 0.3937007874015748
        },
        {
          "duration": 0.046875,
          "durationTicks": 24,
          "midi": 63,
          "name": "D#4",
          "ticks": 45168,
          "time": 88.21875,
          "velocity": 0.3937007874015748
        },
        {
          "duration": 0.046875,
          "durationTicks": 24,
          "midi": 54,
          "name": "F#3",
          "ticks": 45168,
          "time": 88.21875,
          "velocity": 0.3937007874015748
        },
        {
          "duration": 0.046875,
          "durationTicks": 24,
          "midi": 59,
          "name": "B3",
          "ticks": 45168,
          "time": 88.21875,
          "velocity": 0.3937007874015748
        },
        {
          "duration": 0.046875,
          "durationTicks": 24,
          "midi": 63,
          "name": "D#4",
          "ticks": 45168,
          "time": 88.21875,
          "velocity": 0.3937007874015748
        },
        {
          "duration": 0.046875,
          "durationTicks": 24,
          "midi": 59,
          "name": "B3",
          "ticks": 45168,
          "time": 88.21875,
          "velocity": 0.3937007874015748
        },
        {
          "duration": 0.046875,
          "durationTicks": 24,
          "midi": 54,
          "name": "F#3",
          "ticks": 45168,
          "time": 88.21875,
          "velocity": 0.3937007874015748
        },
        {
          "duration": 0.046875,
          "durationTicks": 24,
          "midi": 75,
          "name": "D#5",
          "ticks": 45168,
          "time": 88.21875,
          "velocity": 0.3937007874015748
        },
        {
          "duration": 0.046875,
          "durationTicks": 24,
          "midi": 75,
          "name": "D#5",
          "ticks": 45168,
          "time": 88.21875,
          "velocity": 0.3937007874015748
        },
        {
          "duration": 0.046875,
          "durationTicks": 24,
          "midi": 54,
          "name": "F#3",
          "ticks": 45168,
          "time": 88.21875,
          "velocity": 0.3937007874015748
        },
        {
          "duration": 0.046875,
          "durationTicks": 24,
          "midi": 54,
          "name": "F#3",
          "ticks": 45168,
          "time": 88.21875,
          "velocity": 0.3937007874015748
        },
        {
          "duration": 0.046875,
          "durationTicks": 24,
          "midi": 59,
          "name": "B3",
          "ticks": 45168,
          "time": 88.21875,
          "velocity": 0.3937007874015748
        },
        {
          "duration": 0.046875,
          "durationTicks": 24,
          "midi": 59,
          "name": "B3",
          "ticks": 45168,
          "time": 88.21875,
          "velocity": 0.3937007874015748
        },
        {
          "duration": 0.046875,
          "durationTicks": 24,
          "midi": 59,
          "name": "B3",
          "ticks": 45192,
          "time": 88.265625,
          "velocity": 0.3937007874015748
        },
        {
          "duration": 0.046875,
          "durationTicks": 24,
          "midi": 54,
          "name": "F#3",
          "ticks": 45192,
          "time": 88.265625,
          "velocity": 0.3937007874015748
        },
        {
          "duration": 0.046875,
          "durationTicks": 24,
          "midi": 59,
          "name": "B3",
          "ticks": 45192,
          "time": 88.265625,
          "velocity": 0.3937007874015748
        },
        {
          "duration": 0.046875,
          "durationTicks": 24,
          "midi": 59,
          "name": "B3",
          "ticks": 45192,
          "time": 88.265625,
          "velocity": 0.3937007874015748
        },
        {
          "duration": 0.046875,
          "durationTicks": 24,
          "midi": 75,
          "name": "D#5",
          "ticks": 45192,
          "time": 88.265625,
          "velocity": 0.3937007874015748
        },
        {
          "duration": 0.046875,
          "durationTicks": 24,
          "midi": 54,
          "name": "F#3",
          "ticks": 45192,
          "time": 88.265625,
          "velocity": 0.3937007874015748
        },
        {
          "duration": 0.046875,
          "durationTicks": 24,
          "midi": 54,
          "name": "F#3",
          "ticks": 45192,
          "time": 88.265625,
          "velocity": 0.3937007874015748
        },
        {
          "duration": 0.046875,
          "durationTicks": 24,
          "midi": 63,
          "name": "D#4",
          "ticks": 45192,
          "time": 88.265625,
          "velocity": 0.3937007874015748
        },
        {
          "duration": 0.046875,
          "durationTicks": 24,
          "midi": 75,
          "name": "D#5",
          "ticks": 45192,
          "time": 88.265625,
          "velocity": 0.3937007874015748
        },
        {
          "duration": 0.046875,
          "durationTicks": 24,
          "midi": 54,
          "name": "F#3",
          "ticks": 45192,
          "time": 88.265625,
          "velocity": 0.3937007874015748
        },
        {
          "duration": 0.046875,
          "durationTicks": 24,
          "midi": 59,
          "name": "B3",
          "ticks": 45192,
          "time": 88.265625,
          "velocity": 0.3937007874015748
        },
        {
          "duration": 0.046875,
          "durationTicks": 24,
          "midi": 63,
          "name": "D#4",
          "ticks": 45192,
          "time": 88.265625,
          "velocity": 0.3937007874015748
        },
        {
          "duration": 0.046875,
          "durationTicks": 24,
          "midi": 59,
          "name": "B3",
          "ticks": 45216,
          "time": 88.3125,
          "velocity": 0.3937007874015748
        },
        {
          "duration": 0.046875,
          "durationTicks": 24,
          "midi": 54,
          "name": "F#3",
          "ticks": 45216,
          "time": 88.3125,
          "velocity": 0.3937007874015748
        },
        {
          "duration": 0.046875,
          "durationTicks": 24,
          "midi": 75,
          "name": "D#5",
          "ticks": 45216,
          "time": 88.3125,
          "velocity": 0.3937007874015748
        },
        {
          "duration": 0.046875,
          "durationTicks": 24,
          "midi": 54,
          "name": "F#3",
          "ticks": 45216,
          "time": 88.3125,
          "velocity": 0.3937007874015748
        },
        {
          "duration": 0.046875,
          "durationTicks": 24,
          "midi": 63,
          "name": "D#4",
          "ticks": 45216,
          "time": 88.3125,
          "velocity": 0.3937007874015748
        },
        {
          "duration": 0.046875,
          "durationTicks": 24,
          "midi": 59,
          "name": "B3",
          "ticks": 45216,
          "time": 88.3125,
          "velocity": 0.3937007874015748
        },
        {
          "duration": 0.046875,
          "durationTicks": 24,
          "midi": 75,
          "name": "D#5",
          "ticks": 45216,
          "time": 88.3125,
          "velocity": 0.3937007874015748
        },
        {
          "duration": 0.046875,
          "durationTicks": 24,
          "midi": 63,
          "name": "D#4",
          "ticks": 45216,
          "time": 88.3125,
          "velocity": 0.3937007874015748
        },
        {
          "duration": 0.046875,
          "durationTicks": 24,
          "midi": 54,
          "name": "F#3",
          "ticks": 45240,
          "time": 88.359375,
          "velocity": 0.3937007874015748
        },
        {
          "duration": 0.046875,
          "durationTicks": 24,
          "midi": 54,
          "name": "F#3",
          "ticks": 45240,
          "time": 88.359375,
          "velocity": 0.3937007874015748
        },
        {
          "duration": 0.046875,
          "durationTicks": 24,
          "midi": 59,
          "name": "B3",
          "ticks": 45240,
          "time": 88.359375,
          "velocity": 0.3937007874015748
        },
        {
          "duration": 0.046875,
          "durationTicks": 24,
          "midi": 63,
          "name": "D#4",
          "ticks": 45240,
          "time": 88.359375,
          "velocity": 0.3937007874015748
        },
        {
          "duration": 0.046875,
          "durationTicks": 24,
          "midi": 59,
          "name": "B3",
          "ticks": 45240,
          "time": 88.359375,
          "velocity": 0.3937007874015748
        },
        {
          "duration": 0.046875,
          "durationTicks": 24,
          "midi": 75,
          "name": "D#5",
          "ticks": 45240,
          "time": 88.359375,
          "velocity": 0.3937007874015748
        },
        {
          "duration": 0.046875,
          "durationTicks": 24,
          "midi": 75,
          "name": "D#5",
          "ticks": 45240,
          "time": 88.359375,
          "velocity": 0.3937007874015748
        },
        {
          "duration": 0.046875,
          "durationTicks": 24,
          "midi": 63,
          "name": "D#4",
          "ticks": 45240,
          "time": 88.359375,
          "velocity": 0.3937007874015748
        },
        {
          "duration": 0.046875,
          "durationTicks": 24,
          "midi": 63,
          "name": "D#4",
          "ticks": 45264,
          "time": 88.40625,
          "velocity": 0.3937007874015748
        },
        {
          "duration": 0.046875,
          "durationTicks": 24,
          "midi": 63,
          "name": "D#4",
          "ticks": 45264,
          "time": 88.40625,
          "velocity": 0.3937007874015748
        },
        {
          "duration": 0.046875,
          "durationTicks": 24,
          "midi": 54,
          "name": "F#3",
          "ticks": 45264,
          "time": 88.40625,
          "velocity": 0.3937007874015748
        },
        {
          "duration": 0.046875,
          "durationTicks": 24,
          "midi": 54,
          "name": "F#3",
          "ticks": 45264,
          "time": 88.40625,
          "velocity": 0.3937007874015748
        },
        {
          "duration": 0.046875,
          "durationTicks": 24,
          "midi": 75,
          "name": "D#5",
          "ticks": 45264,
          "time": 88.40625,
          "velocity": 0.3937007874015748
        },
        {
          "duration": 0.046875,
          "durationTicks": 24,
          "midi": 59,
          "name": "B3",
          "ticks": 45264,
          "time": 88.40625,
          "velocity": 0.3937007874015748
        },
        {
          "duration": 0.046875,
          "durationTicks": 24,
          "midi": 59,
          "name": "B3",
          "ticks": 45264,
          "time": 88.40625,
          "velocity": 0.3937007874015748
        },
        {
          "duration": 0.046875,
          "durationTicks": 24,
          "midi": 75,
          "name": "D#5",
          "ticks": 45264,
          "time": 88.40625,
          "velocity": 0.3937007874015748
        },
        {
          "duration": 0.046875,
          "durationTicks": 24,
          "midi": 59,
          "name": "B3",
          "ticks": 45288,
          "time": 88.453125,
          "velocity": 0.3937007874015748
        },
        {
          "duration": 0.046875,
          "durationTicks": 24,
          "midi": 54,
          "name": "F#3",
          "ticks": 45288,
          "time": 88.453125,
          "velocity": 0.3937007874015748
        },
        {
          "duration": 0.046875,
          "durationTicks": 24,
          "midi": 75,
          "name": "D#5",
          "ticks": 45288,
          "time": 88.453125,
          "velocity": 0.3937007874015748
        },
        {
          "duration": 0.046875,
          "durationTicks": 24,
          "midi": 54,
          "name": "F#3",
          "ticks": 45288,
          "time": 88.453125,
          "velocity": 0.3937007874015748
        },
        {
          "duration": 0.046875,
          "durationTicks": 24,
          "midi": 75,
          "name": "D#5",
          "ticks": 45288,
          "time": 88.453125,
          "velocity": 0.3937007874015748
        },
        {
          "duration": 0.046875,
          "durationTicks": 24,
          "midi": 63,
          "name": "D#4",
          "ticks": 45288,
          "time": 88.453125,
          "velocity": 0.3937007874015748
        },
        {
          "duration": 0.046875,
          "durationTicks": 24,
          "midi": 63,
          "name": "D#4",
          "ticks": 45288,
          "time": 88.453125,
          "velocity": 0.3937007874015748
        },
        {
          "duration": 0.046875,
          "durationTicks": 24,
          "midi": 59,
          "name": "B3",
          "ticks": 45288,
          "time": 88.453125,
          "velocity": 0.3937007874015748
        },
        {
          "duration": 0.046875,
          "durationTicks": 24,
          "midi": 24,
          "name": "C1",
          "ticks": 45312,
          "time": 88.5,
          "velocity": 0.3937007874015748
        },
        {
          "duration": 0.046875,
          "durationTicks": 24,
          "midi": 35,
          "name": "B1",
          "ticks": 45312,
          "time": 88.5,
          "velocity": 0.3937007874015748
        },
        {
          "duration": 0.046875,
          "durationTicks": 24,
          "midi": 35,
          "name": "B1",
          "ticks": 45312,
          "time": 88.5,
          "velocity": 0.3937007874015748
        },
        {
          "duration": 0.046875,
          "durationTicks": 24,
          "midi": 24,
          "name": "C1",
          "ticks": 45312,
          "time": 88.5,
          "velocity": 0.3937007874015748
        },
        {
          "duration": 0.046875,
          "durationTicks": 24,
          "midi": 24,
          "name": "C1",
          "ticks": 45312,
          "time": 88.5,
          "velocity": 0.3937007874015748
        },
        {
          "duration": 0.046875,
          "durationTicks": 24,
          "midi": 24,
          "name": "C1",
          "ticks": 45312,
          "time": 88.5,
          "velocity": 0.3937007874015748
        },
        {
          "duration": 0.046875,
          "durationTicks": 24,
          "midi": 35,
          "name": "B1",
          "ticks": 45312,
          "time": 88.5,
          "velocity": 0.3937007874015748
        },
        {
          "duration": 0.046875,
          "durationTicks": 24,
          "midi": 35,
          "name": "B1",
          "ticks": 45312,
          "time": 88.5,
          "velocity": 0.3937007874015748
        },
        {
          "duration": 0.046875,
          "durationTicks": 24,
          "midi": 35,
          "name": "B1",
          "ticks": 45312,
          "time": 88.5,
          "velocity": 0.3937007874015748
        },
        {
          "duration": 0.046875,
          "durationTicks": 24,
          "midi": 35,
          "name": "B1",
          "ticks": 45312,
          "time": 88.5,
          "velocity": 0.3937007874015748
        },
        {
          "duration": 0.046875,
          "durationTicks": 24,
          "midi": 24,
          "name": "C1",
          "ticks": 45312,
          "time": 88.5,
          "velocity": 0.3937007874015748
        },
        {
          "duration": 0.046875,
          "durationTicks": 24,
          "midi": 24,
          "name": "C1",
          "ticks": 45312,
          "time": 88.5,
          "velocity": 0.3937007874015748
        },
        {
          "duration": 0.046875,
          "durationTicks": 24,
          "midi": 24,
          "name": "C1",
          "ticks": 45336,
          "time": 88.546875,
          "velocity": 0.3937007874015748
        },
        {
          "duration": 0.046875,
          "durationTicks": 24,
          "midi": 24,
          "name": "C1",
          "ticks": 45336,
          "time": 88.546875,
          "velocity": 0.3937007874015748
        },
        {
          "duration": 0.046875,
          "durationTicks": 24,
          "midi": 24,
          "name": "C1",
          "ticks": 45336,
          "time": 88.546875,
          "velocity": 0.3937007874015748
        },
        {
          "duration": 0.046875,
          "durationTicks": 24,
          "midi": 24,
          "name": "C1",
          "ticks": 45336,
          "time": 88.546875,
          "velocity": 0.3937007874015748
        },
        {
          "duration": 0.046875,
          "durationTicks": 24,
          "midi": 24,
          "name": "C1",
          "ticks": 45336,
          "time": 88.546875,
          "velocity": 0.3937007874015748
        },
        {
          "duration": 0.046875,
          "durationTicks": 24,
          "midi": 35,
          "name": "B1",
          "ticks": 45336,
          "time": 88.546875,
          "velocity": 0.3937007874015748
        },
        {
          "duration": 0.046875,
          "durationTicks": 24,
          "midi": 35,
          "name": "B1",
          "ticks": 45336,
          "time": 88.546875,
          "velocity": 0.3937007874015748
        },
        {
          "duration": 0.046875,
          "durationTicks": 24,
          "midi": 35,
          "name": "B1",
          "ticks": 45336,
          "time": 88.546875,
          "velocity": 0.3937007874015748
        },
        {
          "duration": 0.046875,
          "durationTicks": 24,
          "midi": 35,
          "name": "B1",
          "ticks": 45336,
          "time": 88.546875,
          "velocity": 0.3937007874015748
        },
        {
          "duration": 0.046875,
          "durationTicks": 24,
          "midi": 35,
          "name": "B1",
          "ticks": 45336,
          "time": 88.546875,
          "velocity": 0.3937007874015748
        },
        {
          "duration": 0.046875,
          "durationTicks": 24,
          "midi": 24,
          "name": "C1",
          "ticks": 45336,
          "time": 88.546875,
          "velocity": 0.3937007874015748
        },
        {
          "duration": 0.046875,
          "durationTicks": 24,
          "midi": 35,
          "name": "B1",
          "ticks": 45336,
          "time": 88.546875,
          "velocity": 0.3937007874015748
        },
        {
          "duration": 0.046875,
          "durationTicks": 24,
          "midi": 24,
          "name": "C1",
          "ticks": 45360,
          "time": 88.59375,
          "velocity": 0.3937007874015748
        },
        {
          "duration": 0.046875,
          "durationTicks": 24,
          "midi": 35,
          "name": "B1",
          "ticks": 45360,
          "time": 88.59375,
          "velocity": 0.3937007874015748
        },
        {
          "duration": 0.046875,
          "durationTicks": 24,
          "midi": 24,
          "name": "C1",
          "ticks": 45360,
          "time": 88.59375,
          "velocity": 0.3937007874015748
        },
        {
          "duration": 0.046875,
          "durationTicks": 24,
          "midi": 35,
          "name": "B1",
          "ticks": 45360,
          "time": 88.59375,
          "velocity": 0.3937007874015748
        },
        {
          "duration": 0.046875,
          "durationTicks": 24,
          "midi": 24,
          "name": "C1",
          "ticks": 45360,
          "time": 88.59375,
          "velocity": 0.3937007874015748
        },
        {
          "duration": 0.046875,
          "durationTicks": 24,
          "midi": 35,
          "name": "B1",
          "ticks": 45360,
          "time": 88.59375,
          "velocity": 0.3937007874015748
        },
        {
          "duration": 0.046875,
          "durationTicks": 24,
          "midi": 35,
          "name": "B1",
          "ticks": 45360,
          "time": 88.59375,
          "velocity": 0.3937007874015748
        },
        {
          "duration": 0.046875,
          "durationTicks": 24,
          "midi": 35,
          "name": "B1",
          "ticks": 45360,
          "time": 88.59375,
          "velocity": 0.3937007874015748
        },
        {
          "duration": 0.046875,
          "durationTicks": 24,
          "midi": 24,
          "name": "C1",
          "ticks": 45360,
          "time": 88.59375,
          "velocity": 0.3937007874015748
        },
        {
          "duration": 0.046875,
          "durationTicks": 24,
          "midi": 24,
          "name": "C1",
          "ticks": 45360,
          "time": 88.59375,
          "velocity": 0.3937007874015748
        },
        {
          "duration": 0.046875,
          "durationTicks": 24,
          "midi": 35,
          "name": "B1",
          "ticks": 45360,
          "time": 88.59375,
          "velocity": 0.3937007874015748
        },
        {
          "duration": 0.046875,
          "durationTicks": 24,
          "midi": 24,
          "name": "C1",
          "ticks": 45360,
          "time": 88.59375,
          "velocity": 0.3937007874015748
        },
        {
          "duration": 0.046875,
          "durationTicks": 24,
          "midi": 35,
          "name": "B1",
          "ticks": 45384,
          "time": 88.640625,
          "velocity": 0.3937007874015748
        },
        {
          "duration": 0.046875,
          "durationTicks": 24,
          "midi": 24,
          "name": "C1",
          "ticks": 45384,
          "time": 88.640625,
          "velocity": 0.3937007874015748
        },
        {
          "duration": 0.046875,
          "durationTicks": 24,
          "midi": 24,
          "name": "C1",
          "ticks": 45384,
          "time": 88.640625,
          "velocity": 0.3937007874015748
        },
        {
          "duration": 0.046875,
          "durationTicks": 24,
          "midi": 35,
          "name": "B1",
          "ticks": 45384,
          "time": 88.640625,
          "velocity": 0.3937007874015748
        },
        {
          "duration": 0.046875,
          "durationTicks": 24,
          "midi": 24,
          "name": "C1",
          "ticks": 45384,
          "time": 88.640625,
          "velocity": 0.3937007874015748
        },
        {
          "duration": 0.046875,
          "durationTicks": 24,
          "midi": 24,
          "name": "C1",
          "ticks": 45384,
          "time": 88.640625,
          "velocity": 0.3937007874015748
        },
        {
          "duration": 0.046875,
          "durationTicks": 24,
          "midi": 35,
          "name": "B1",
          "ticks": 45384,
          "time": 88.640625,
          "velocity": 0.3937007874015748
        },
        {
          "duration": 0.046875,
          "durationTicks": 24,
          "midi": 35,
          "name": "B1",
          "ticks": 45384,
          "time": 88.640625,
          "velocity": 0.3937007874015748
        },
        {
          "duration": 0.046875,
          "durationTicks": 24,
          "midi": 24,
          "name": "C1",
          "ticks": 45384,
          "time": 88.640625,
          "velocity": 0.3937007874015748
        },
        {
          "duration": 0.046875,
          "durationTicks": 24,
          "midi": 35,
          "name": "B1",
          "ticks": 45384,
          "time": 88.640625,
          "velocity": 0.3937007874015748
        },
        {
          "duration": 0.046875,
          "durationTicks": 24,
          "midi": 24,
          "name": "C1",
          "ticks": 45384,
          "time": 88.640625,
          "velocity": 0.3937007874015748
        },
        {
          "duration": 0.046875,
          "durationTicks": 24,
          "midi": 35,
          "name": "B1",
          "ticks": 45384,
          "time": 88.640625,
          "velocity": 0.3937007874015748
        },
        {
          "duration": 0.046875,
          "durationTicks": 24,
          "midi": 35,
          "name": "B1",
          "ticks": 45408,
          "time": 88.6875,
          "velocity": 0.3937007874015748
        },
        {
          "duration": 0.046875,
          "durationTicks": 24,
          "midi": 24,
          "name": "C1",
          "ticks": 45408,
          "time": 88.6875,
          "velocity": 0.3937007874015748
        },
        {
          "duration": 0.046875,
          "durationTicks": 24,
          "midi": 24,
          "name": "C1",
          "ticks": 45408,
          "time": 88.6875,
          "velocity": 0.3937007874015748
        },
        {
          "duration": 0.046875,
          "durationTicks": 24,
          "midi": 24,
          "name": "C1",
          "ticks": 45408,
          "time": 88.6875,
          "velocity": 0.3937007874015748
        },
        {
          "duration": 0.046875,
          "durationTicks": 24,
          "midi": 35,
          "name": "B1",
          "ticks": 45408,
          "time": 88.6875,
          "velocity": 0.3937007874015748
        },
        {
          "duration": 0.046875,
          "durationTicks": 24,
          "midi": 24,
          "name": "C1",
          "ticks": 45408,
          "time": 88.6875,
          "velocity": 0.3937007874015748
        },
        {
          "duration": 0.046875,
          "durationTicks": 24,
          "midi": 35,
          "name": "B1",
          "ticks": 45408,
          "time": 88.6875,
          "velocity": 0.3937007874015748
        },
        {
          "duration": 0.046875,
          "durationTicks": 24,
          "midi": 35,
          "name": "B1",
          "ticks": 45408,
          "time": 88.6875,
          "velocity": 0.3937007874015748
        },
        {
          "duration": 0.046875,
          "durationTicks": 24,
          "midi": 35,
          "name": "B1",
          "ticks": 45432,
          "time": 88.734375,
          "velocity": 0.3937007874015748
        },
        {
          "duration": 0.046875,
          "durationTicks": 24,
          "midi": 24,
          "name": "C1",
          "ticks": 45432,
          "time": 88.734375,
          "velocity": 0.3937007874015748
        },
        {
          "duration": 0.046875,
          "durationTicks": 24,
          "midi": 35,
          "name": "B1",
          "ticks": 45432,
          "time": 88.734375,
          "velocity": 0.3937007874015748
        },
        {
          "duration": 0.046875,
          "durationTicks": 24,
          "midi": 35,
          "name": "B1",
          "ticks": 45432,
          "time": 88.734375,
          "velocity": 0.3937007874015748
        },
        {
          "duration": 0.046875,
          "durationTicks": 24,
          "midi": 24,
          "name": "C1",
          "ticks": 45432,
          "time": 88.734375,
          "velocity": 0.3937007874015748
        },
        {
          "duration": 0.046875,
          "durationTicks": 24,
          "midi": 35,
          "name": "B1",
          "ticks": 45432,
          "time": 88.734375,
          "velocity": 0.3937007874015748
        },
        {
          "duration": 0.046875,
          "durationTicks": 24,
          "midi": 24,
          "name": "C1",
          "ticks": 45432,
          "time": 88.734375,
          "velocity": 0.3937007874015748
        },
        {
          "duration": 0.046875,
          "durationTicks": 24,
          "midi": 24,
          "name": "C1",
          "ticks": 45432,
          "time": 88.734375,
          "velocity": 0.3937007874015748
        },
        {
          "duration": 0.046875,
          "durationTicks": 24,
          "midi": 35,
          "name": "B1",
          "ticks": 45456,
          "time": 88.78125,
          "velocity": 0.3937007874015748
        },
        {
          "duration": 0.046875,
          "durationTicks": 24,
          "midi": 35,
          "name": "B1",
          "ticks": 45456,
          "time": 88.78125,
          "velocity": 0.3937007874015748
        },
        {
          "duration": 0.046875,
          "durationTicks": 24,
          "midi": 24,
          "name": "C1",
          "ticks": 45456,
          "time": 88.78125,
          "velocity": 0.3937007874015748
        },
        {
          "duration": 0.046875,
          "durationTicks": 24,
          "midi": 35,
          "name": "B1",
          "ticks": 45456,
          "time": 88.78125,
          "velocity": 0.3937007874015748
        },
        {
          "duration": 0.046875,
          "durationTicks": 24,
          "midi": 24,
          "name": "C1",
          "ticks": 45456,
          "time": 88.78125,
          "velocity": 0.3937007874015748
        },
        {
          "duration": 0.046875,
          "durationTicks": 24,
          "midi": 24,
          "name": "C1",
          "ticks": 45456,
          "time": 88.78125,
          "velocity": 0.3937007874015748
        },
        {
          "duration": 0.046875,
          "durationTicks": 24,
          "midi": 35,
          "name": "B1",
          "ticks": 45456,
          "time": 88.78125,
          "velocity": 0.3937007874015748
        },
        {
          "duration": 0.046875,
          "durationTicks": 24,
          "midi": 24,
          "name": "C1",
          "ticks": 45456,
          "time": 88.78125,
          "velocity": 0.3937007874015748
        },
        {
          "duration": 0.046875,
          "durationTicks": 24,
          "midi": 35,
          "name": "B1",
          "ticks": 45480,
          "time": 88.828125,
          "velocity": 0.3937007874015748
        },
        {
          "duration": 0.046875,
          "durationTicks": 24,
          "midi": 24,
          "name": "C1",
          "ticks": 45480,
          "time": 88.828125,
          "velocity": 0.3937007874015748
        },
        {
          "duration": 0.046875,
          "durationTicks": 24,
          "midi": 35,
          "name": "B1",
          "ticks": 45480,
          "time": 88.828125,
          "velocity": 0.3937007874015748
        },
        {
          "duration": 0.046875,
          "durationTicks": 24,
          "midi": 24,
          "name": "C1",
          "ticks": 45480,
          "time": 88.828125,
          "velocity": 0.3937007874015748
        },
        {
          "duration": 0.046875,
          "durationTicks": 24,
          "midi": 24,
          "name": "C1",
          "ticks": 45480,
          "time": 88.828125,
          "velocity": 0.3937007874015748
        },
        {
          "duration": 0.046875,
          "durationTicks": 24,
          "midi": 35,
          "name": "B1",
          "ticks": 45480,
          "time": 88.828125,
          "velocity": 0.3937007874015748
        },
        {
          "duration": 0.046875,
          "durationTicks": 24,
          "midi": 24,
          "name": "C1",
          "ticks": 45480,
          "time": 88.828125,
          "velocity": 0.3937007874015748
        },
        {
          "duration": 0.046875,
          "durationTicks": 24,
          "midi": 35,
          "name": "B1",
          "ticks": 45480,
          "time": 88.828125,
          "velocity": 0.3937007874015748
        },
        {
          "duration": 0.046875,
          "durationTicks": 24,
          "midi": 62,
          "name": "D4",
          "ticks": 46080,
          "time": 90,
          "velocity": 0.3937007874015748
        },
        {
          "duration": 0.046875,
          "durationTicks": 24,
          "midi": 62,
          "name": "D4",
          "ticks": 46152,
          "time": 90.140625,
          "velocity": 0.3937007874015748
        },
        {
          "duration": 0.046875,
          "durationTicks": 24,
          "midi": 74,
          "name": "D5",
          "ticks": 46224,
          "time": 90.28125,
          "velocity": 0.3937007874015748
        },
        {
          "duration": 0.046875,
          "durationTicks": 24,
          "midi": 69,
          "name": "A4",
          "ticks": 46368,
          "time": 90.5625,
          "velocity": 0.3937007874015748
        },
        {
          "duration": 0.046875,
          "durationTicks": 24,
          "midi": 68,
          "name": "G#4",
          "ticks": 46584,
          "time": 90.984375,
          "velocity": 0.3937007874015748
        },
        {
          "duration": 0.046875,
          "durationTicks": 24,
          "midi": 67,
          "name": "G4",
          "ticks": 46728,
          "time": 91.265625,
          "velocity": 0.3937007874015748
        },
        {
          "duration": 0.046875,
          "durationTicks": 24,
          "midi": 65,
          "name": "F4",
          "ticks": 46872,
          "time": 91.546875,
          "velocity": 0.3937007874015748
        },
        {
          "duration": 0.046875,
          "durationTicks": 24,
          "midi": 62,
          "name": "D4",
          "ticks": 47016,
          "time": 91.828125,
          "velocity": 0.3937007874015748
        },
        {
          "duration": 0.046875,
          "durationTicks": 24,
          "midi": 65,
          "name": "F4",
          "ticks": 47088,
          "time": 91.96875,
          "velocity": 0.3937007874015748
        },
        {
          "duration": 0.046875,
          "durationTicks": 24,
          "midi": 67,
          "name": "G4",
          "ticks": 47160,
          "time": 92.109375,
          "velocity": 0.3937007874015748
        }
      ],
      "endOfTrackTicks": 47184
    }
  ]
}
