{
  "header": {
    "keySignatures": [],
    "meta": [],
    "name": "",
    "ppq": 96,
    "tempos": [
      {
        "bpm": 80,
        "ticks": 0
      }
    ],
    "timeSignatures": [
      {
        "ticks": 0,
        "timeSignature": [
          4,
          4
        ],
        "measures": 0
      }
    ]
  },
  "tracks": [
    {
      "channel": 0,
      "controlChanges": {},
      "pitchBends": [],
      "instrument": {
        "family": "piano",
        "number": 0,
        "name": "acoustic grand piano"
      },
      "name": "",
      "notes": [],
      "endOfTrackTicks": 0
    },
    {
      "channel": 0,
      "controlChanges": {
        "6": [
          {
            "number": 6,
            "ticks": 0,
            "time": 0,
            "value": 0.09448818897637795
          },
          {
            "number": 6,
            "ticks": 0,
            "time": 0,
            "value": 0.09448818897637795
          },
          {
            "number": 6,
            "ticks": 0,
            "time": 0,
            "value": 0.09448818897637795
          },
          {
            "number": 6,
            "ticks": 23808,
            "time": 186,
            "value": 0.09448818897637795
          },
          {
            "number": 6,
            "ticks": 23883,
            "time": 186.5859375,
            "value": 0.09448818897637795
          }
        ],
        "7": [
          {
            "number": 7,
            "ticks": 0,
            "time": 0,
            "value": 0.7874015748031497
          },
          {
            "number": 7,
            "ticks": 0,
            "time": 0,
            "value": 0.7874015748031497
          },
          {
            "number": 7,
            "ticks": 0,
            "time": 0,
            "value": 0.7874015748031497
          },
          {
            "number": 7,
            "ticks": 0,
            "time": 0,
            "value": 0.7874015748031497
          },
          {
            "number": 7,
            "ticks": 23808,
            "time": 186,
            "value": 0.7874015748031497
          },
          {
            "number": 7,
            "ticks": 23883,
            "time": 186.5859375,
            "value": 0.7874015748031497
          }
        ],
        "10": [
          {
            "number": 10,
            "ticks": 0,
            "time": 0,
            "value": 0.5039370078740157
          },
          {
            "number": 10,
            "ticks": 0,
            "time": 0,
            "value": 0.5039370078740157
          },
          {
            "number": 10,
            "ticks": 0,
            "time": 0,
            "value": 0.5039370078740157
          },
          {
            "number": 10,
            "ticks": 0,
            "time": 0,
            "value": 0.5039370078740157
          },
          {
            "number": 10,
            "ticks": 23808,
            "time": 186,
            "value": 0.5039370078740157
          },
          {
            "number": 10,
            "ticks": 23883,
            "time": 186.5859375,
            "value": 0.5039370078740157
          }
        ],
        "100": [
          {
            "number": 100,
            "ticks": 0,
            "time": 0,
            "value": 0
          },
          {
            "number": 100,
            "ticks": 0,
            "time": 0,
            "value": 0
          },
          {
            "number": 100,
            "ticks": 0,
            "time": 0,
            "value": 0
          },
          {
            "number": 100,
            "ticks": 23808,
            "time": 186,
            "value": 0
          },
          {
            "number": 100,
            "ticks": 23883,
            "time": 186.5859375,
            "value": 0
          }
        ],
        "101": [
          {
            "number": 101,
            "ticks": 0,
            "time": 0,
            "value": 0
          },
          {
            "number": 101,
            "ticks": 0,
            "time": 0,
            "value": 0
          },
          {
            "number": 101,
            "ticks": 0,
            "time": 0,
            "value": 0
          },
          {
            "number": 101,
            "ticks": 23808,
            "time": 186,
            "value": 0
          },
          {
            "number": 101,
            "ticks": 23883,
            "time": 186.5859375,
            "value": 0
          }
        ]
      },
      "pitchBends": [
        {
          "ticks": 0,
          "time": 0,
          "value": 0
        },
        {
          "ticks": 0,
          "time": 0,
          "value": 0
        },
        {
          "ticks": 0,
          "time": 0,
          "value": 0
        },
        {
          "ticks": 0,
          "time": 0,
          "value": 0
        },
        {
          "ticks": 23808,
          "time": 186,
          "value": 0
        },
        {
          "ticks": 23883,
          "time": 186.5859375,
          "value": 0
        }
      ],
      "instrument": {
        "family": "piano",
        "number": 0,
        "name": "acoustic grand piano"
      },
      "name": "Ample Guitar T II",
      "notes": [
        {
          "duration": 0.1875,
          "durationTicks": 24,
          "midi": 71,
          "name": "B4",
          "ticks": 384,
          "time": 3,
          "velocity": 0.905511811023622
        },
        {
          "duration": 0.1875,
          "durationTicks": 24,
          "midi": 71,
          "name": "B4",
          "ticks": 480,
          "time": 3.75,
          "velocity": 0.905511811023622
        },
        {
          "duration": 0.1875,
          "durationTicks": 24,
          "midi": 70,
          "name": "A#4",
          "ticks": 576,
          "time": 4.5,
          "velocity": 0.905511811023622
        },
        {
          "duration": 0.1875,
          "durationTicks": 24,
          "midi": 70,
          "name": "A#4",
          "ticks": 672,
          "time": 5.25,
          "velocity": 0.905511811023622
        },
        {
          "duration": 0.1875,
          "durationTicks": 24,
          "midi": 71,
          "name": "B4",
          "ticks": 768,
          "time": 6,
          "velocity": 0.905511811023622
        },
        {
          "duration": 0.1875,
          "durationTicks": 24,
          "midi": 70,
          "name": "A#4",
          "ticks": 864,
          "time": 6.75,
          "velocity": 0.905511811023622
        },
        {
          "duration": 0.1875,
          "durationTicks": 24,
          "midi": 71,
          "name": "B4",
          "ticks": 1152,
          "time": 9,
          "velocity": 0.889763779527559
        },
        {
          "duration": 0.1875,
          "durationTicks": 24,
          "midi": 71,
          "name": "B4",
          "ticks": 1248,
          "time": 9.75,
          "velocity": 0.889763779527559
        },
        {
          "duration": 0.1875,
          "durationTicks": 24,
          "midi": 70,
          "name": "A#4",
          "ticks": 1344,
          "time": 10.5,
          "velocity": 0.889763779527559
        },
        {
          "duration": 0.1875,
          "durationTicks": 24,
          "midi": 70,
          "name": "A#4",
          "ticks": 1440,
          "time": 11.25,
          "velocity": 0.889763779527559
        },
        {
          "duration": 0.1875,
          "durationTicks": 24,
          "midi": 71,
          "name": "B4",
          "ticks": 1536,
          "time": 12,
          "velocity": 0.8818897637795275
        },
        {
          "duration": 0.1875,
          "durationTicks": 24,
          "midi": 70,
          "name": "A#4",
          "ticks": 1632,
          "time": 12.75,
          "velocity": 0.8503937007874016
        },
        {
          "duration": 0.75,
          "durationTicks": 96,
          "midi": 56,
          "name": "G#3",
          "ticks": 2016,
          "time": 15.75,
          "velocity": 0.9133858267716536
        },
        {
          "duration": 0.75,
          "durationTicks": 96,
          "midi": 58,
          "name": "A#3",
          "ticks": 2112,
          "time": 16.5,
          "velocity": 0.9133858267716536
        },
        {
          "duration": 0.75,
          "durationTicks": 96,
          "midi": 59,
          "name": "B3",
          "ticks": 2208,
          "time": 17.25,
          "velocity": 0.9133858267716536
        },
        {
          "duration": 0.75,
          "durationTicks": 96,
          "midi": 65,
          "name": "F4",
          "ticks": 2304,
          "time": 18,
          "velocity": 0.9133858267716536
        },
        {
          "duration": 0.75,
          "durationTicks": 96,
          "midi": 66,
          "name": "F#4",
          "ticks": 2400,
          "time": 18.75,
          "velocity": 0.9133858267716536
        },
        {
          "duration": 0.0625,
          "durationTicks": 8,
          "midi": 65,
          "name": "F4",
          "ticks": 2496,
          "time": 19.5,
          "velocity": 0.9133858267716536
        },
        {
          "duration": 0.0625,
          "durationTicks": 8,
          "midi": 66,
          "name": "F#4",
          "ticks": 2504,
          "time": 19.5625,
          "velocity": 0.9133858267716536
        },
        {
          "duration": 0.625,
          "durationTicks": 80,
          "midi": 65,
          "name": "F4",
          "ticks": 2512,
          "time": 19.625,
          "velocity": 0.9133858267716536
        },
        {
          "duration": 0.75,
          "durationTicks": 96,
          "midi": 63,
          "name": "D#4",
          "ticks": 2592,
          "time": 20.25,
          "velocity": 0.9133858267716536
        },
        {
          "duration": 2.25,
          "durationTicks": 288,
          "midi": 62,
          "name": "D4",
          "ticks": 2688,
          "time": 21,
          "velocity": 0.9133858267716536
        },
        {
          "duration": 0.75,
          "durationTicks": 96,
          "midi": 63,
          "name": "D#4",
          "ticks": 2976,
          "time": 23.25,
          "velocity": 0.905511811023622
        },
        {
          "duration": 3.75,
          "durationTicks": 480,
          "midi": 58,
          "name": "A#3",
          "ticks": 3072,
          "time": 24,
          "velocity": 0.905511811023622
        },
        {
          "duration": 0.75,
          "durationTicks": 96,
          "midi": 56,
          "name": "G#3",
          "ticks": 3552,
          "time": 27.75,
          "velocity": 0.905511811023622
        },
        {
          "duration": 0.75,
          "durationTicks": 96,
          "midi": 58,
          "name": "A#3",
          "ticks": 3648,
          "time": 28.5,
          "velocity": 0.8976377952755905
        },
        {
          "duration": 0.75,
          "durationTicks": 96,
          "midi": 59,
          "name": "B3",
          "ticks": 3744,
          "time": 29.25,
          "velocity": 0.8976377952755905
        },
        {
          "duration": 0.75,
          "durationTicks": 96,
          "midi": 65,
          "name": "F4",
          "ticks": 3840,
          "time": 30,
          "velocity": 0.8976377952755905
        },
        {
          "duration": 0.75,
          "durationTicks": 96,
          "midi": 63,
          "name": "D#4",
          "ticks": 3936,
          "time": 30.75,
          "velocity": 0.8976377952755905
        },
        {
          "duration": 0.75,
          "durationTicks": 96,
          "midi": 65,
          "name": "F4",
          "ticks": 4032,
          "time": 31.5,
          "velocity": 0.889763779527559
        },
        {
          "duration": 0.75,
          "durationTicks": 96,
          "midi": 66,
          "name": "F#4",
          "ticks": 4128,
          "time": 32.25,
          "velocity": 0.889763779527559
        },
        {
          "duration": 2.625,
          "durationTicks": 336,
          "midi": 67,
          "name": "G4",
          "ticks": 4224,
          "time": 33,
          "velocity": 0.889763779527559
        },
        {
          "duration": 0.125,
          "durationTicks": 16,
          "midi": 62,
          "name": "D4",
          "ticks": 4560,
          "time": 35.625,
          "velocity": 0.889763779527559
        },
        {
          "duration": 0.125,
          "durationTicks": 16,
          "midi": 63,
          "name": "D#4",
          "ticks": 4576,
          "time": 35.75,
          "velocity": 0.7874015748031497
        },
        {
          "duration": 0.125,
          "durationTicks": 16,
          "midi": 64,
          "name": "E4",
          "ticks": 4592,
          "time": 35.875,
          "velocity": 0.7874015748031497
        },
        {
          "duration": 3,
          "durationTicks": 384,
          "midi": 63,
          "name": "D#4",
          "ticks": 4608,
          "time": 36,
          "velocity": 0.889763779527559
        },
        {
          "duration": 1.3125,
          "durationTicks": 168,
          "midi": 73,
          "name": "C#5",
          "ticks": 4992,
          "time": 39,
          "velocity": 0.889763779527559
        },
        {
          "duration": 0.1875,
          "durationTicks": 24,
          "midi": 73,
          "name": "C#5",
          "ticks": 5160,
          "time": 40.3125,
          "velocity": 0.889763779527559
        },
        {
          "duration": 0.375,
          "durationTicks": 48,
          "midi": 73,
          "name": "C#5",
          "ticks": 5184,
          "time": 40.5,
          "velocity": 0.889763779527559
        },
        {
          "duration": 0.1875,
          "durationTicks": 24,
          "midi": 71,
          "name": "B4",
          "ticks": 5232,
          "time": 40.875,
          "velocity": 0.889763779527559
        },
        {
          "duration": 0.1875,
          "durationTicks": 24,
          "midi": 70,
          "name": "A#4",
          "ticks": 5256,
          "time": 41.0625,
          "velocity": 0.889763779527559
        },
        {
          "duration": 0.375,
          "durationTicks": 48,
          "midi": 73,
          "name": "C#5",
          "ticks": 5280,
          "time": 41.25,
          "velocity": 0.889763779527559
        },
        {
          "duration": 0.1875,
          "durationTicks": 24,
          "midi": 71,
          "name": "B4",
          "ticks": 5328,
          "time": 41.625,
          "velocity": 0.889763779527559
        },
        {
          "duration": 0.1875,
          "durationTicks": 24,
          "midi": 70,
          "name": "A#4",
          "ticks": 5352,
          "time": 41.8125,
          "velocity": 0.889763779527559
        },
        {
          "duration": 1.3125,
          "durationTicks": 168,
          "midi": 69,
          "name": "A4",
          "ticks": 5376,
          "time": 42,
          "velocity": 0.889763779527559
        },
        {
          "duration": 0.1875,
          "durationTicks": 24,
          "midi": 69,
          "name": "A4",
          "ticks": 5544,
          "time": 43.3125,
          "velocity": 0.889763779527559
        },
        {
          "duration": 0.375,
          "durationTicks": 48,
          "midi": 69,
          "name": "A4",
          "ticks": 5568,
          "time": 43.5,
          "velocity": 0.889763779527559
        },
        {
          "duration": 0.1875,
          "durationTicks": 24,
          "midi": 67,
          "name": "G4",
          "ticks": 5616,
          "time": 43.875,
          "velocity": 0.8818897637795275
        },
        {
          "duration": 0.1875,
          "durationTicks": 24,
          "midi": 66,
          "name": "F#4",
          "ticks": 5640,
          "time": 44.0625,
          "velocity": 0.7874015748031497
        },
        {
          "duration": 0.375,
          "durationTicks": 48,
          "midi": 69,
          "name": "A4",
          "ticks": 5664,
          "time": 44.25,
          "velocity": 0.889763779527559
        },
        {
          "duration": 0.1875,
          "durationTicks": 24,
          "midi": 67,
          "name": "G4",
          "ticks": 5712,
          "time": 44.625,
          "velocity": 0.889763779527559
        },
        {
          "duration": 0.1875,
          "durationTicks": 24,
          "midi": 66,
          "name": "F#4",
          "ticks": 5736,
          "time": 44.8125,
          "velocity": 0.889763779527559
        },
        {
          "duration": 1.5,
          "durationTicks": 192,
          "midi": 65,
          "name": "F4",
          "ticks": 5760,
          "time": 45,
          "velocity": 0.889763779527559
        },
        {
          "duration": 1.5,
          "durationTicks": 192,
          "midi": 64,
          "name": "E4",
          "ticks": 5952,
          "time": 46.5,
          "velocity": 0.889763779527559
        },
        {
          "duration": 3.015625,
          "durationTicks": 386,
          "midi": 63,
          "name": "D#4",
          "ticks": 6144,
          "time": 48,
          "velocity": 0.889763779527559
        },
        {
          "duration": 0.1875,
          "durationTicks": 24,
          "midi": 71,
          "name": "B4",
          "ticks": 6528,
          "time": 51,
          "velocity": 0.968503937007874
        },
        {
          "duration": 0.1875,
          "durationTicks": 24,
          "midi": 71,
          "name": "B4",
          "ticks": 6624,
          "time": 51.75,
          "velocity": 0.968503937007874
        },
        {
          "duration": 0.1875,
          "durationTicks": 24,
          "midi": 70,
          "name": "A#4",
          "ticks": 6720,
          "time": 52.5,
          "velocity": 0.9763779527559056
        },
        {
          "duration": 0.1875,
          "durationTicks": 24,
          "midi": 70,
          "name": "A#4",
          "ticks": 6816,
          "time": 53.25,
          "velocity": 0.9763779527559056
        },
        {
          "duration": 0.1875,
          "durationTicks": 24,
          "midi": 71,
          "name": "B4",
          "ticks": 6912,
          "time": 54,
          "velocity": 0.9763779527559056
        },
        {
          "duration": 0.1875,
          "durationTicks": 24,
          "midi": 70,
          "name": "A#4",
          "ticks": 7008,
          "time": 54.75,
          "velocity": 0.984251968503937
        },
        {
          "duration": 0.1875,
          "durationTicks": 24,
          "midi": 71,
          "name": "B4",
          "ticks": 7296,
          "time": 57,
          "velocity": 0.984251968503937
        },
        {
          "duration": 0.1875,
          "durationTicks": 24,
          "midi": 71,
          "name": "B4",
          "ticks": 7392,
          "time": 57.75,
          "velocity": 0.984251968503937
        },
        {
          "duration": 0.1875,
          "durationTicks": 24,
          "midi": 70,
          "name": "A#4",
          "ticks": 7488,
          "time": 58.5,
          "velocity": 0.984251968503937
        },
        {
          "duration": 0.1875,
          "durationTicks": 24,
          "midi": 70,
          "name": "A#4",
          "ticks": 7584,
          "time": 59.25,
          "velocity": 0.9921259842519685
        },
        {
          "duration": 0.1875,
          "durationTicks": 24,
          "midi": 71,
          "name": "B4",
          "ticks": 7680,
          "time": 60,
          "velocity": 0.9921259842519685
        },
        {
          "duration": 0.1875,
          "durationTicks": 24,
          "midi": 70,
          "name": "A#4",
          "ticks": 7776,
          "time": 60.75,
          "velocity": 0.9921259842519685
        },
        {
          "duration": 0.109375,
          "durationTicks": 14,
          "midi": 59,
          "name": "B3",
          "ticks": 12768,
          "time": 99.75,
          "velocity": 0.7874015748031497
        },
        {
          "duration": 0.109375,
          "durationTicks": 14,
          "midi": 51,
          "name": "D#3",
          "ticks": 12864,
          "time": 100.5,
          "velocity": 0.7874015748031497
        },
        {
          "duration": 0.109375,
          "durationTicks": 14,
          "midi": 59,
          "name": "B3",
          "ticks": 12960,
          "time": 101.25,
          "velocity": 0.7874015748031497
        },
        {
          "duration": 0.109375,
          "durationTicks": 14,
          "midi": 44,
          "name": "G#2",
          "ticks": 13056,
          "time": 102,
          "velocity": 0.7874015748031497
        },
        {
          "duration": 0.109375,
          "durationTicks": 14,
          "midi": 59,
          "name": "B3",
          "ticks": 13104,
          "time": 102.375,
          "velocity": 0.7874015748031497
        },
        {
          "duration": 0.109375,
          "durationTicks": 14,
          "midi": 51,
          "name": "D#3",
          "ticks": 13152,
          "time": 102.75,
          "velocity": 0.7874015748031497
        },
        {
          "duration": 0.109375,
          "durationTicks": 14,
          "midi": 55,
          "name": "G3",
          "ticks": 13200,
          "time": 103.125,
          "velocity": 0.7874015748031497
        },
        {
          "duration": 0.109375,
          "durationTicks": 14,
          "midi": 44,
          "name": "G#2",
          "ticks": 13440,
          "time": 105,
          "velocity": 0.9291338582677166
        },
        {
          "duration": 0.109375,
          "durationTicks": 14,
          "midi": 59,
          "name": "B3",
          "ticks": 13536,
          "time": 105.75,
          "velocity": 0.9291338582677166
        },
        {
          "duration": 0.109375,
          "durationTicks": 14,
          "midi": 51,
          "name": "D#3",
          "ticks": 13632,
          "time": 106.5,
          "velocity": 0.9291338582677166
        },
        {
          "duration": 0.109375,
          "durationTicks": 14,
          "midi": 59,
          "name": "B3",
          "ticks": 13728,
          "time": 107.25,
          "velocity": 0.9291338582677166
        },
        {
          "duration": 0.109375,
          "durationTicks": 14,
          "midi": 44,
          "name": "G#2",
          "ticks": 13824,
          "time": 108,
          "velocity": 0.9291338582677166
        },
        {
          "duration": 0.109375,
          "durationTicks": 14,
          "midi": 59,
          "name": "B3",
          "ticks": 13872,
          "time": 108.375,
          "velocity": 0.7874015748031497
        },
        {
          "duration": 0.109375,
          "durationTicks": 14,
          "midi": 51,
          "name": "D#3",
          "ticks": 13920,
          "time": 108.75,
          "velocity": 0.9291338582677166
        },
        {
          "duration": 0.109375,
          "durationTicks": 14,
          "midi": 55,
          "name": "G3",
          "ticks": 13968,
          "time": 109.125,
          "velocity": 0.9291338582677166
        },
        {
          "duration": 0.75,
          "durationTicks": 96,
          "midi": 56,
          "name": "G#3",
          "ticks": 14304,
          "time": 111.75,
          "velocity": 0.9291338582677166
        },
        {
          "duration": 0.75,
          "durationTicks": 96,
          "midi": 58,
          "name": "A#3",
          "ticks": 14400,
          "time": 112.5,
          "velocity": 0.9291338582677166
        },
        {
          "duration": 0.75,
          "durationTicks": 96,
          "midi": 59,
          "name": "B3",
          "ticks": 14496,
          "time": 113.25,
          "velocity": 0.937007874015748
        },
        {
          "duration": 0.75,
          "durationTicks": 96,
          "midi": 65,
          "name": "F4",
          "ticks": 14592,
          "time": 114,
          "velocity": 0.937007874015748
        },
        {
          "duration": 0.75,
          "durationTicks": 96,
          "midi": 66,
          "name": "F#4",
          "ticks": 14688,
          "time": 114.75,
          "velocity": 0.952755905511811
        },
        {
          "duration": 0.0625,
          "durationTicks": 8,
          "midi": 65,
          "name": "F4",
          "ticks": 14784,
          "time": 115.5,
          "velocity": 0.952755905511811
        },
        {
          "duration": 0.0625,
          "durationTicks": 8,
          "midi": 66,
          "name": "F#4",
          "ticks": 14792,
          "time": 115.5625,
          "velocity": 0.952755905511811
        },
        {
          "duration": 0.625,
          "durationTicks": 80,
          "midi": 65,
          "name": "F4",
          "ticks": 14800,
          "time": 115.625,
          "velocity": 0.9291338582677166
        },
        {
          "duration": 0.75,
          "durationTicks": 96,
          "midi": 63,
          "name": "D#4",
          "ticks": 14880,
          "time": 116.25,
          "velocity": 0.952755905511811
        },
        {
          "duration": 0.0625,
          "durationTicks": 8,
          "midi": 62,
          "name": "D4",
          "ticks": 14976,
          "time": 117,
          "velocity": 0.9606299212598425
        },
        {
          "duration": 0.0625,
          "durationTicks": 8,
          "midi": 63,
          "name": "D#4",
          "ticks": 14984,
          "time": 117.0625,
          "velocity": 0.9606299212598425
        },
        {
          "duration": 2.125,
          "durationTicks": 272,
          "midi": 62,
          "name": "D4",
          "ticks": 14992,
          "time": 117.125,
          "velocity": 0.9606299212598425
        },
        {
          "duration": 0.75,
          "durationTicks": 96,
          "midi": 63,
          "name": "D#4",
          "ticks": 15264,
          "time": 119.25,
          "velocity": 0.9606299212598425
        },
        {
          "duration": 3.75,
          "durationTicks": 480,
          "midi": 58,
          "name": "A#3",
          "ticks": 15360,
          "time": 120,
          "velocity": 0.9763779527559056
        },
        {
          "duration": 0.75,
          "durationTicks": 96,
          "midi": 56,
          "name": "G#3",
          "ticks": 15840,
          "time": 123.75,
          "velocity": 0.9763779527559056
        },
        {
          "duration": 0.75,
          "durationTicks": 96,
          "midi": 58,
          "name": "A#3",
          "ticks": 15936,
          "time": 124.5,
          "velocity": 0.968503937007874
        },
        {
          "duration": 0.75,
          "durationTicks": 96,
          "midi": 59,
          "name": "B3",
          "ticks": 16032,
          "time": 125.25,
          "velocity": 0.968503937007874
        },
        {
          "duration": 0.75,
          "durationTicks": 96,
          "midi": 65,
          "name": "F4",
          "ticks": 16128,
          "time": 126,
          "velocity": 0.968503937007874
        },
        {
          "duration": 0.75,
          "durationTicks": 96,
          "midi": 63,
          "name": "D#4",
          "ticks": 16224,
          "time": 126.75,
          "velocity": 0.968503937007874
        },
        {
          "duration": 0.75,
          "durationTicks": 96,
          "midi": 65,
          "name": "F4",
          "ticks": 16320,
          "time": 127.5,
          "velocity": 0.968503937007874
        },
        {
          "duration": 0.75,
          "durationTicks": 96,
          "midi": 66,
          "name": "F#4",
          "ticks": 16416,
          "time": 128.25,
          "velocity": 0.968503937007874
        },
        {
          "duration": 2.625,
          "durationTicks": 336,
          "midi": 67,
          "name": "G4",
          "ticks": 16512,
          "time": 129,
          "velocity": 0.968503937007874
        },
        {
          "duration": 0.125,
          "durationTicks": 16,
          "midi": 62,
          "name": "D4",
          "ticks": 16848,
          "time": 131.625,
          "velocity": 0.968503937007874
        },
        {
          "duration": 0.125,
          "durationTicks": 16,
          "midi": 63,
          "name": "D#4",
          "ticks": 16864,
          "time": 131.75,
          "velocity": 0.968503937007874
        },
        {
          "duration": 0.125,
          "durationTicks": 16,
          "midi": 64,
          "name": "E4",
          "ticks": 16880,
          "time": 131.875,
          "velocity": 0.968503937007874
        },
        {
          "duration": 2.25,
          "durationTicks": 288,
          "midi": 63,
          "name": "D#4",
          "ticks": 16896,
          "time": 132,
          "velocity": 0.968503937007874
        },
        {
          "duration": 1.3125,
          "durationTicks": 168,
          "midi": 73,
          "name": "C#5",
          "ticks": 17280,
          "time": 135,
          "velocity": 0.968503937007874
        },
        {
          "duration": 0.1875,
          "durationTicks": 24,
          "midi": 73,
          "name": "C#5",
          "ticks": 17448,
          "time": 136.3125,
          "velocity": 0.968503937007874
        },
        {
          "duration": 0.375,
          "durationTicks": 48,
          "midi": 73,
          "name": "C#5",
          "ticks": 17472,
          "time": 136.5,
          "velocity": 0.968503937007874
        },
        {
          "duration": 0.1875,
          "durationTicks": 24,
          "midi": 71,
          "name": "B4",
          "ticks": 17520,
          "time": 136.875,
          "velocity": 0.968503937007874
        },
        {
          "duration": 0.1875,
          "durationTicks": 24,
          "midi": 70,
          "name": "A#4",
          "ticks": 17544,
          "time": 137.0625,
          "velocity": 0.968503937007874
        },
        {
          "duration": 0.375,
          "durationTicks": 48,
          "midi": 73,
          "name": "C#5",
          "ticks": 17568,
          "time": 137.25,
          "velocity": 0.968503937007874
        },
        {
          "duration": 0.1875,
          "durationTicks": 24,
          "midi": 71,
          "name": "B4",
          "ticks": 17616,
          "time": 137.625,
          "velocity": 0.968503937007874
        },
        {
          "duration": 0.1875,
          "durationTicks": 24,
          "midi": 70,
          "name": "A#4",
          "ticks": 17640,
          "time": 137.8125,
          "velocity": 0.968503937007874
        },
        {
          "duration": 1.3125,
          "durationTicks": 168,
          "midi": 69,
          "name": "A4",
          "ticks": 17664,
          "time": 138,
          "velocity": 0.968503937007874
        },
        {
          "duration": 0.1875,
          "durationTicks": 24,
          "midi": 69,
          "name": "A4",
          "ticks": 17832,
          "time": 139.3125,
          "velocity": 0.9606299212598425
        },
        {
          "duration": 0.375,
          "durationTicks": 48,
          "midi": 69,
          "name": "A4",
          "ticks": 17856,
          "time": 139.5,
          "velocity": 0.9606299212598425
        },
        {
          "duration": 0.1875,
          "durationTicks": 24,
          "midi": 67,
          "name": "G4",
          "ticks": 17904,
          "time": 139.875,
          "velocity": 0.9606299212598425
        },
        {
          "duration": 0.1875,
          "durationTicks": 24,
          "midi": 66,
          "name": "F#4",
          "ticks": 17928,
          "time": 140.0625,
          "velocity": 0.8818897637795275
        },
        {
          "duration": 0.375,
          "durationTicks": 48,
          "midi": 69,
          "name": "A4",
          "ticks": 17952,
          "time": 140.25,
          "velocity": 0.9606299212598425
        },
        {
          "duration": 0.1875,
          "durationTicks": 24,
          "midi": 67,
          "name": "G4",
          "ticks": 18000,
          "time": 140.625,
          "velocity": 0.9606299212598425
        },
        {
          "duration": 0.1875,
          "durationTicks": 24,
          "midi": 66,
          "name": "F#4",
          "ticks": 18024,
          "time": 140.8125,
          "velocity": 0.8818897637795275
        },
        {
          "duration": 1.5,
          "durationTicks": 192,
          "midi": 65,
          "name": "F4",
          "ticks": 18048,
          "time": 141,
          "velocity": 0.9606299212598425
        },
        {
          "duration": 1.5,
          "durationTicks": 192,
          "midi": 64,
          "name": "E4",
          "ticks": 18240,
          "time": 142.5,
          "velocity": 0.9606299212598425
        },
        {
          "duration": 2.25,
          "durationTicks": 288,
          "midi": 63,
          "name": "D#4",
          "ticks": 18432,
          "time": 144,
          "velocity": 0.952755905511811
        },
        {
          "duration": 0.1875,
          "durationTicks": 24,
          "midi": 46,
          "name": "A#2",
          "ticks": 18816,
          "time": 147,
          "velocity": 0.6850393700787402
        },
        {
          "duration": 0.1875,
          "durationTicks": 24,
          "midi": 46,
          "name": "A#2",
          "ticks": 19008,
          "time": 148.5,
          "velocity": 0.6850393700787402
        },
        {
          "duration": 0.1875,
          "durationTicks": 24,
          "midi": 46,
          "name": "A#2",
          "ticks": 19200,
          "time": 150,
          "velocity": 0.6929133858267716
        },
        {
          "duration": 0.1875,
          "durationTicks": 24,
          "midi": 46,
          "name": "A#2",
          "ticks": 19296,
          "time": 150.75,
          "velocity": 0.7007874015748031
        },
        {
          "duration": 0.1875,
          "durationTicks": 24,
          "midi": 46,
          "name": "A#2",
          "ticks": 19392,
          "time": 151.5,
          "velocity": 0.7086614173228346
        },
        {
          "duration": 0.1875,
          "durationTicks": 24,
          "midi": 46,
          "name": "A#2",
          "ticks": 19488,
          "time": 152.25,
          "velocity": 0.7086614173228346
        },
        {
          "duration": 0.1875,
          "durationTicks": 24,
          "midi": 46,
          "name": "A#2",
          "ticks": 19584,
          "time": 153,
          "velocity": 0.7244094488188977
        },
        {
          "duration": 0.1875,
          "durationTicks": 24,
          "midi": 46,
          "name": "A#2",
          "ticks": 19648,
          "time": 153.5,
          "velocity": 0.7244094488188977
        },
        {
          "duration": 0.1875,
          "durationTicks": 24,
          "midi": 46,
          "name": "A#2",
          "ticks": 19712,
          "time": 154,
          "velocity": 0.7401574803149606
        },
        {
          "duration": 0.1875,
          "durationTicks": 24,
          "midi": 50,
          "name": "D3",
          "ticks": 19776,
          "time": 154.5,
          "velocity": 0.7559055118110236
        },
        {
          "duration": 0.1875,
          "durationTicks": 24,
          "midi": 50,
          "name": "D3",
          "ticks": 19840,
          "time": 155,
          "velocity": 0.7559055118110236
        },
        {
          "duration": 0.1875,
          "durationTicks": 24,
          "midi": 50,
          "name": "D3",
          "ticks": 19904,
          "time": 155.5,
          "velocity": 0.7795275590551181
        },
        {
          "duration": 0.1875,
          "durationTicks": 24,
          "midi": 54,
          "name": "F#3",
          "ticks": 19968,
          "time": 156,
          "velocity": 0.7795275590551181
        },
        {
          "duration": 0.1875,
          "durationTicks": 24,
          "midi": 54,
          "name": "F#3",
          "ticks": 20016,
          "time": 156.375,
          "velocity": 0.7874015748031497
        },
        {
          "duration": 0.1875,
          "durationTicks": 24,
          "midi": 54,
          "name": "F#3",
          "ticks": 20064,
          "time": 156.75,
          "velocity": 0.7874015748031497
        },
        {
          "duration": 0.1875,
          "durationTicks": 24,
          "midi": 58,
          "name": "A#3",
          "ticks": 20112,
          "time": 157.125,
          "velocity": 0.8110236220472441
        },
        {
          "duration": 0.1875,
          "durationTicks": 24,
          "midi": 58,
          "name": "A#3",
          "ticks": 20160,
          "time": 157.5,
          "velocity": 0.8188976377952756
        },
        {
          "duration": 0.1875,
          "durationTicks": 24,
          "midi": 58,
          "name": "A#3",
          "ticks": 20208,
          "time": 157.875,
          "velocity": 0.8267716535433071
        },
        {
          "duration": 0.1875,
          "durationTicks": 24,
          "midi": 62,
          "name": "D4",
          "ticks": 20256,
          "time": 158.25,
          "velocity": 0.8267716535433071
        },
        {
          "duration": 0.1875,
          "durationTicks": 24,
          "midi": 62,
          "name": "D4",
          "ticks": 20304,
          "time": 158.625,
          "velocity": 0.8267716535433071
        },
        {
          "duration": 0.1875,
          "durationTicks": 24,
          "midi": 62,
          "name": "D4",
          "ticks": 20352,
          "time": 159,
          "velocity": 0.84251968503937
        },
        {
          "duration": 0.1875,
          "durationTicks": 24,
          "midi": 66,
          "name": "F#4",
          "ticks": 20384,
          "time": 159.25,
          "velocity": 0.8661417322834646
        },
        {
          "duration": 0.1875,
          "durationTicks": 24,
          "midi": 66,
          "name": "F#4",
          "ticks": 20416,
          "time": 159.5,
          "velocity": 0.8740157480314961
        },
        {
          "duration": 0.1875,
          "durationTicks": 24,
          "midi": 66,
          "name": "F#4",
          "ticks": 20448,
          "time": 159.75,
          "velocity": 0.8818897637795275
        },
        {
          "duration": 0.1875,
          "durationTicks": 24,
          "midi": 70,
          "name": "A#4",
          "ticks": 20480,
          "time": 160,
          "velocity": 0.889763779527559
        },
        {
          "duration": 0.1875,
          "durationTicks": 24,
          "midi": 70,
          "name": "A#4",
          "ticks": 20512,
          "time": 160.25,
          "velocity": 0.8976377952755905
        },
        {
          "duration": 0.1875,
          "durationTicks": 24,
          "midi": 70,
          "name": "A#4",
          "ticks": 20544,
          "time": 160.5,
          "velocity": 0.905511811023622
        },
        {
          "duration": 0.1875,
          "durationTicks": 24,
          "midi": 74,
          "name": "D5",
          "ticks": 20576,
          "time": 160.75,
          "velocity": 0.905511811023622
        },
        {
          "duration": 0.1875,
          "durationTicks": 24,
          "midi": 74,
          "name": "D5",
          "ticks": 20608,
          "time": 161,
          "velocity": 0.905511811023622
        },
        {
          "duration": 0.1875,
          "durationTicks": 24,
          "midi": 74,
          "name": "D5",
          "ticks": 20640,
          "time": 161.25,
          "velocity": 0.9291338582677166
        },
        {
          "duration": 0.125,
          "durationTicks": 16,
          "midi": 78,
          "name": "F#5",
          "ticks": 20672,
          "time": 161.5,
          "velocity": 0.937007874015748
        },
        {
          "duration": 0.125,
          "durationTicks": 16,
          "midi": 78,
          "name": "F#5",
          "ticks": 20704,
          "time": 161.75,
          "velocity": 0.937007874015748
        },
        {
          "duration": 0.125,
          "durationTicks": 16,
          "midi": 78,
          "name": "F#5",
          "ticks": 20736,
          "time": 162,
          "velocity": 0.9606299212598425
        },
        {
          "duration": 0.125,
          "durationTicks": 16,
          "midi": 59,
          "name": "B3",
          "ticks": 21600,
          "time": 168.75,
          "velocity": 0.9133858267716536
        },
        {
          "duration": 0.125,
          "durationTicks": 16,
          "midi": 51,
          "name": "D#3",
          "ticks": 21696,
          "time": 169.5,
          "velocity": 0.9133858267716536
        },
        {
          "duration": 0.125,
          "durationTicks": 16,
          "midi": 59,
          "name": "B3",
          "ticks": 21792,
          "time": 170.25,
          "velocity": 0.9133858267716536
        },
        {
          "duration": 0.125,
          "durationTicks": 16,
          "midi": 44,
          "name": "G#2",
          "ticks": 21888,
          "time": 171,
          "velocity": 0.9133858267716536
        },
        {
          "duration": 0.125,
          "durationTicks": 16,
          "midi": 59,
          "name": "B3",
          "ticks": 21936,
          "time": 171.375,
          "velocity": 0.8582677165354331
        },
        {
          "duration": 0.125,
          "durationTicks": 16,
          "midi": 51,
          "name": "D#3",
          "ticks": 21984,
          "time": 171.75,
          "velocity": 0.8582677165354331
        },
        {
          "duration": 0.125,
          "durationTicks": 16,
          "midi": 59,
          "name": "B3",
          "ticks": 22032,
          "time": 172.125,
          "velocity": 0.9133858267716536
        },
        {
          "duration": 0.125,
          "durationTicks": 16,
          "midi": 44,
          "name": "G#2",
          "ticks": 22272,
          "time": 174,
          "velocity": 0.9133858267716536
        },
        {
          "duration": 0.125,
          "durationTicks": 16,
          "midi": 59,
          "name": "B3",
          "ticks": 22368,
          "time": 174.75,
          "velocity": 0.9133858267716536
        },
        {
          "duration": 0.125,
          "durationTicks": 16,
          "midi": 51,
          "name": "D#3",
          "ticks": 22464,
          "time": 175.5,
          "velocity": 0.9133858267716536
        },
        {
          "duration": 0.125,
          "durationTicks": 16,
          "midi": 59,
          "name": "B3",
          "ticks": 22560,
          "time": 176.25,
          "velocity": 0.9133858267716536
        },
        {
          "duration": 0.125,
          "durationTicks": 16,
          "midi": 44,
          "name": "G#2",
          "ticks": 22656,
          "time": 177,
          "velocity": 0.9133858267716536
        },
        {
          "duration": 0.125,
          "durationTicks": 16,
          "midi": 59,
          "name": "B3",
          "ticks": 22704,
          "time": 177.375,
          "velocity": 0.8582677165354331
        },
        {
          "duration": 0.125,
          "durationTicks": 16,
          "midi": 51,
          "name": "D#3",
          "ticks": 22752,
          "time": 177.75,
          "velocity": 0.9133858267716536
        },
        {
          "duration": 0.125,
          "durationTicks": 16,
          "midi": 59,
          "name": "B3",
          "ticks": 22800,
          "time": 178.125,
          "velocity": 0.9133858267716536
        },
        {
          "duration": 0.75,
          "durationTicks": 96,
          "midi": 51,
          "name": "D#3",
          "ticks": 22944,
          "time": 179.25,
          "velocity": 0.8188976377952756
        },
        {
          "duration": 3,
          "durationTicks": 384,
          "midi": 44,
          "name": "G#2",
          "ticks": 23040,
          "time": 180,
          "velocity": 0.8188976377952756
        },
        {
          "duration": 0.234375,
          "durationTicks": 30,
          "midi": 56,
          "name": "G#3",
          "ticks": 23424,
          "time": 183,
          "velocity": 0.8188976377952756
        }
      ],
      "endOfTrackTicks": 23883
    },
    {
      "channel": 1,
      "controlChanges": {
        "6": [
          {
            "number": 6,
            "ticks": 0,
            "time": 0,
            "value": 0.09448818897637795
          },
          {
            "number": 6,
            "ticks": 0,
            "time": 0,
            "value": 0.09448818897637795
          },
          {
            "number": 6,
            "ticks": 0,
            "time": 0,
            "value": 0.09448818897637795
          },
          {
            "number": 6,
            "ticks": 23808,
            "time": 186,
            "value": 0.09448818897637795
          },
          {
            "number": 6,
            "ticks": 23883,
            "time": 186.5859375,
            "value": 0.09448818897637795
          }
        ],
        "7": [
          {
            "number": 7,
            "ticks": 0,
            "time": 0,
            "value": 0.7874015748031497
          },
          {
            "number": 7,
            "ticks": 0,
            "time": 0,
            "value": 0.7874015748031497
          },
          {
            "number": 7,
            "ticks": 0,
            "time": 0,
            "value": 0.7874015748031497
          },
          {
            "number": 7,
            "ticks": 0,
            "time": 0,
            "value": 0.7874015748031497
          },
          {
            "number": 7,
            "ticks": 23808,
            "time": 186,
            "value": 0.7874015748031497
          },
          {
            "number": 7,
            "ticks": 23883,
            "time": 186.5859375,
            "value": 0.7874015748031497
          }
        ],
        "10": [
          {
            "number": 10,
            "ticks": 0,
            "time": 0,
            "value": 0.5039370078740157
          },
          {
            "number": 10,
            "ticks": 0,
            "time": 0,
            "value": 0.5039370078740157
          },
          {
            "number": 10,
            "ticks": 0,
            "time": 0,
            "value": 0.5039370078740157
          },
          {
            "number": 10,
            "ticks": 0,
            "time": 0,
            "value": 0.5039370078740157
          },
          {
            "number": 10,
            "ticks": 23808,
            "time": 186,
            "value": 0.5039370078740157
          },
          {
            "number": 10,
            "ticks": 23883,
            "time": 186.5859375,
            "value": 0.5039370078740157
          }
        ],
        "100": [
          {
            "number": 100,
            "ticks": 0,
            "time": 0,
            "value": 0
          },
          {
            "number": 100,
            "ticks": 0,
            "time": 0,
            "value": 0
          },
          {
            "number": 100,
            "ticks": 0,
            "time": 0,
            "value": 0
          },
          {
            "number": 100,
            "ticks": 23808,
            "time": 186,
            "value": 0
          },
          {
            "number": 100,
            "ticks": 23883,
            "time": 186.5859375,
            "value": 0
          }
        ],
        "101": [
          {
            "number": 101,
            "ticks": 0,
            "time": 0,
            "value": 0
          },
          {
            "number": 101,
            "ticks": 0,
            "time": 0,
            "value": 0
          },
          {
            "number": 101,
            "ticks": 0,
            "time": 0,
            "value": 0
          },
          {
            "number": 101,
            "ticks": 23808,
            "time": 186,
            "value": 0
          },
          {
            "number": 101,
            "ticks": 23883,
            "time": 186.5859375,
            "value": 0
          }
        ]
      },
      "pitchBends": [
        {
          "ticks": 0,
          "time": 0,
          "value": 0
        },
        {
          "ticks": 0,
          "time": 0,
          "value": 0
        },
        {
          "ticks": 0,
          "time": 0,
          "value": 0
        },
        {
          "ticks": 0,
          "time": 0,
          "value": 0
        },
        {
          "ticks": 23808,
          "time": 186,
          "value": 0
        },
        {
          "ticks": 23883,
          "time": 186.5859375,
          "value": 0
        }
      ],
      "instrument": {
        "family": "piano",
        "number": 0,
        "name": "acoustic grand piano"
      },
      "name": "Ample Guitar T II #3",
      "notes": [
        {
          "duration": 1.5,
          "durationTicks": 192,
          "midi": 44,
          "name": "G#2",
          "ticks": 9600,
          "time": 75,
          "velocity": 0.8582677165354331
        },
        {
          "duration": 1.5,
          "durationTicks": 192,
          "midi": 46,
          "name": "A#2",
          "ticks": 9792,
          "time": 76.5,
          "velocity": 0.8818897637795275
        },
        {
          "duration": 1.5,
          "durationTicks": 192,
          "midi": 47,
          "name": "B2",
          "ticks": 9984,
          "time": 78,
          "velocity": 0.8818897637795275
        },
        {
          "duration": 1.5,
          "durationTicks": 192,
          "midi": 49,
          "name": "C#3",
          "ticks": 10176,
          "time": 79.5,
          "velocity": 0.8818897637795275
        },
        {
          "duration": 0.75,
          "durationTicks": 96,
          "midi": 50,
          "name": "D3",
          "ticks": 10368,
          "time": 81,
          "velocity": 0.889763779527559
        },
        {
          "duration": 0.75,
          "durationTicks": 96,
          "midi": 53,
          "name": "F3",
          "ticks": 10464,
          "time": 81.75,
          "velocity": 0.889763779527559
        },
        {
          "duration": 1.5,
          "durationTicks": 192,
          "midi": 41,
          "name": "F2",
          "ticks": 10560,
          "time": 82.5,
          "velocity": 0.889763779527559
        },
        {
          "duration": 0.75,
          "durationTicks": 96,
          "midi": 49,
          "name": "C#3",
          "ticks": 10752,
          "time": 84,
          "velocity": 0.889763779527559
        },
        {
          "duration": 0.75,
          "durationTicks": 96,
          "midi": 56,
          "name": "G#3",
          "ticks": 10848,
          "time": 84.75,
          "velocity": 0.8740157480314961
        },
        {
          "duration": 1.5,
          "durationTicks": 192,
          "midi": 44,
          "name": "G#2",
          "ticks": 10944,
          "time": 85.5,
          "velocity": 0.8818897637795275
        },
        {
          "duration": 1.4921875,
          "durationTicks": 191,
          "midi": 50,
          "name": "D3",
          "ticks": 11136,
          "time": 87,
          "velocity": 0.889763779527559
        },
        {
          "duration": 1.4921875,
          "durationTicks": 191,
          "midi": 49,
          "name": "C#3",
          "ticks": 11328,
          "time": 88.5,
          "velocity": 0.8976377952755905
        },
        {
          "duration": 1.4921875,
          "durationTicks": 191,
          "midi": 50,
          "name": "D3",
          "ticks": 11520,
          "time": 90,
          "velocity": 0.905511811023622
        },
        {
          "duration": 2.2421875,
          "durationTicks": 287,
          "midi": 49,
          "name": "C#3",
          "ticks": 11712,
          "time": 91.5,
          "velocity": 0.9212598425196851
        },
        {
          "duration": 0.75,
          "durationTicks": 96,
          "midi": 48,
          "name": "C3",
          "ticks": 12000,
          "time": 93.75,
          "velocity": 0.9212598425196851
        },
        {
          "duration": 2.25,
          "durationTicks": 288,
          "midi": 49,
          "name": "C#3",
          "ticks": 12096,
          "time": 94.5,
          "velocity": 0.9212598425196851
        },
        {
          "duration": 0.75,
          "durationTicks": 96,
          "midi": 48,
          "name": "C3",
          "ticks": 12384,
          "time": 96.75,
          "velocity": 0.9212598425196851
        },
        {
          "duration": 1.5,
          "durationTicks": 192,
          "midi": 48,
          "name": "C3",
          "ticks": 12480,
          "time": 97.5,
          "velocity": 0.9212598425196851
        },
        {
          "duration": 0.09375,
          "durationTicks": 12,
          "midi": 39,
          "name": "D#2",
          "ticks": 12636,
          "time": 98.71875,
          "velocity": 0.9212598425196851
        },
        {
          "duration": 0.09375,
          "durationTicks": 12,
          "midi": 41,
          "name": "F2",
          "ticks": 12648,
          "time": 98.8125,
          "velocity": 0.9212598425196851
        },
        {
          "duration": 0.09375,
          "durationTicks": 12,
          "midi": 43,
          "name": "G2",
          "ticks": 12660,
          "time": 98.90625,
          "velocity": 0.9212598425196851
        },
        {
          "duration": 0.09375,
          "durationTicks": 12,
          "midi": 44,
          "name": "G#2",
          "ticks": 12672,
          "time": 99,
          "velocity": 0.9212598425196851
        },
        {
          "duration": 0.09375,
          "durationTicks": 12,
          "midi": 39,
          "name": "D#2",
          "ticks": 21468,
          "time": 167.71875,
          "velocity": 0.8818897637795275
        },
        {
          "duration": 0.09375,
          "durationTicks": 12,
          "midi": 41,
          "name": "F2",
          "ticks": 21480,
          "time": 167.8125,
          "velocity": 0.8818897637795275
        },
        {
          "duration": 0.09375,
          "durationTicks": 12,
          "midi": 43,
          "name": "G2",
          "ticks": 21492,
          "time": 167.90625,
          "velocity": 0.8818897637795275
        },
        {
          "duration": 0.09375,
          "durationTicks": 12,
          "midi": 44,
          "name": "G#2",
          "ticks": 21504,
          "time": 168,
          "velocity": 0.8818897637795275
        }
      ],
      "endOfTrackTicks": 23883
    },
    {
      "channel": 2,
      "controlChanges": {
        "6": [
          {
            "number": 6,
            "ticks": 0,
            "time": 0,
            "value": 0.09448818897637795
          },
          {
            "number": 6,
            "ticks": 0,
            "time": 0,
            "value": 0.09448818897637795
          },
          {
            "number": 6,
            "ticks": 0,
            "time": 0,
            "value": 0.09448818897637795
          },
          {
            "number": 6,
            "ticks": 23808,
            "time": 186,
            "value": 0.09448818897637795
          },
          {
            "number": 6,
            "ticks": 23883,
            "time": 186.5859375,
            "value": 0.09448818897637795
          }
        ],
        "7": [
          {
            "number": 7,
            "ticks": 0,
            "time": 0,
            "value": 0.7874015748031497
          },
          {
            "number": 7,
            "ticks": 0,
            "time": 0,
            "value": 0.7874015748031497
          },
          {
            "number": 7,
            "ticks": 0,
            "time": 0,
            "value": 0.7874015748031497
          },
          {
            "number": 7,
            "ticks": 0,
            "time": 0,
            "value": 0.7874015748031497
          },
          {
            "number": 7,
            "ticks": 23808,
            "time": 186,
            "value": 0.7874015748031497
          },
          {
            "number": 7,
            "ticks": 23883,
            "time": 186.5859375,
            "value": 0.7874015748031497
          }
        ],
        "10": [
          {
            "number": 10,
            "ticks": 0,
            "time": 0,
            "value": 0.5039370078740157
          },
          {
            "number": 10,
            "ticks": 0,
            "time": 0,
            "value": 0.5039370078740157
          },
          {
            "number": 10,
            "ticks": 0,
            "time": 0,
            "value": 0.5039370078740157
          },
          {
            "number": 10,
            "ticks": 0,
            "time": 0,
            "value": 0.5039370078740157
          },
          {
            "number": 10,
            "ticks": 23808,
            "time": 186,
            "value": 0.5039370078740157
          },
          {
            "number": 10,
            "ticks": 23883,
            "time": 186.5859375,
            "value": 0.5039370078740157
          }
        ],
        "100": [
          {
            "number": 100,
            "ticks": 0,
            "time": 0,
            "value": 0
          },
          {
            "number": 100,
            "ticks": 0,
            "time": 0,
            "value": 0
          },
          {
            "number": 100,
            "ticks": 0,
            "time": 0,
            "value": 0
          },
          {
            "number": 100,
            "ticks": 23808,
            "time": 186,
            "value": 0
          },
          {
            "number": 100,
            "ticks": 23883,
            "time": 186.5859375,
            "value": 0
          }
        ],
        "101": [
          {
            "number": 101,
            "ticks": 0,
            "time": 0,
            "value": 0
          },
          {
            "number": 101,
            "ticks": 0,
            "time": 0,
            "value": 0
          },
          {
            "number": 101,
            "ticks": 0,
            "time": 0,
            "value": 0
          },
          {
            "number": 101,
            "ticks": 23808,
            "time": 186,
            "value": 0
          },
          {
            "number": 101,
            "ticks": 23883,
            "time": 186.5859375,
            "value": 0
          }
        ]
      },
      "pitchBends": [
        {
          "ticks": 0,
          "time": 0,
          "value": 0
        },
        {
          "ticks": 0,
          "time": 0,
          "value": 0
        },
        {
          "ticks": 0,
          "time": 0,
          "value": 0
        },
        {
          "ticks": 0,
          "time": 0,
          "value": 0
        },
        {
          "ticks": 23808,
          "time": 186,
          "value": 0
        },
        {
          "ticks": 23883,
          "time": 186.5859375,
          "value": 0
        }
      ],
      "instrument": {
        "family": "piano",
        "number": 0,
        "name": "acoustic grand piano"
      },
      "name": "Ample Guitar T II #2",
      "notes": [
        {
          "duration": 0.375,
          "durationTicks": 48,
          "midi": 59,
          "name": "B3",
          "ticks": 8064,
          "time": 63,
          "velocity": 0.7244094488188977
        },
        {
          "duration": 0.75,
          "durationTicks": 96,
          "midi": 60,
          "name": "C4",
          "ticks": 8112,
          "time": 63.375,
          "velocity": 0.7322834645669292
        },
        {
          "duration": 0.75,
          "durationTicks": 96,
          "midi": 64,
          "name": "E4",
          "ticks": 8160,
          "time": 63.75,
          "velocity": 0.7322834645669292
        },
        {
          "duration": 0.75,
          "durationTicks": 96,
          "midi": 56,
          "name": "G#3",
          "ticks": 8208,
          "time": 64.125,
          "velocity": 0.7401574803149606
        },
        {
          "duration": 0.75,
          "durationTicks": 96,
          "midi": 64,
          "name": "E4",
          "ticks": 8256,
          "time": 64.5,
          "velocity": 0.7401574803149606
        },
        {
          "duration": 0.75,
          "durationTicks": 96,
          "midi": 56,
          "name": "G#3",
          "ticks": 8304,
          "time": 64.875,
          "velocity": 0.7401574803149606
        },
        {
          "duration": 0.75,
          "durationTicks": 96,
          "midi": 64,
          "name": "E4",
          "ticks": 8352,
          "time": 65.25,
          "velocity": 0.7401574803149606
        },
        {
          "duration": 0.375,
          "durationTicks": 48,
          "midi": 56,
          "name": "G#3",
          "ticks": 8400,
          "time": 65.625,
          "velocity": 0.7322834645669292
        },
        {
          "duration": 0.375,
          "durationTicks": 48,
          "midi": 59,
          "name": "B3",
          "ticks": 8448,
          "time": 66,
          "velocity": 0.7322834645669292
        },
        {
          "duration": 0.75,
          "durationTicks": 96,
          "midi": 58,
          "name": "A#3",
          "ticks": 8496,
          "time": 66.375,
          "velocity": 0.7322834645669292
        },
        {
          "duration": 0.75,
          "durationTicks": 96,
          "midi": 63,
          "name": "D#4",
          "ticks": 8544,
          "time": 66.75,
          "velocity": 0.7322834645669292
        },
        {
          "duration": 0.75,
          "durationTicks": 96,
          "midi": 55,
          "name": "G3",
          "ticks": 8592,
          "time": 67.125,
          "velocity": 0.7322834645669292
        },
        {
          "duration": 0.75,
          "durationTicks": 96,
          "midi": 63,
          "name": "D#4",
          "ticks": 8640,
          "time": 67.5,
          "velocity": 0.7322834645669292
        },
        {
          "duration": 0.75,
          "durationTicks": 96,
          "midi": 55,
          "name": "G3",
          "ticks": 8688,
          "time": 67.875,
          "velocity": 0.7480314960629921
        },
        {
          "duration": 0.75,
          "durationTicks": 96,
          "midi": 63,
          "name": "D#4",
          "ticks": 8736,
          "time": 68.25,
          "velocity": 0.7480314960629921
        },
        {
          "duration": 0.375,
          "durationTicks": 48,
          "midi": 55,
          "name": "G3",
          "ticks": 8784,
          "time": 68.625,
          "velocity": 0.7480314960629921
        },
        {
          "duration": 0.375,
          "durationTicks": 48,
          "midi": 59,
          "name": "B3",
          "ticks": 8832,
          "time": 69,
          "velocity": 0.7480314960629921
        },
        {
          "duration": 0.75,
          "durationTicks": 96,
          "midi": 60,
          "name": "C4",
          "ticks": 8880,
          "time": 69.375,
          "velocity": 0.7480314960629921
        },
        {
          "duration": 0.75,
          "durationTicks": 96,
          "midi": 64,
          "name": "E4",
          "ticks": 8928,
          "time": 69.75,
          "velocity": 0.7480314960629921
        },
        {
          "duration": 0.75,
          "durationTicks": 96,
          "midi": 56,
          "name": "G#3",
          "ticks": 8976,
          "time": 70.125,
          "velocity": 0.7480314960629921
        },
        {
          "duration": 0.75,
          "durationTicks": 96,
          "midi": 64,
          "name": "E4",
          "ticks": 9024,
          "time": 70.5,
          "velocity": 0.7480314960629921
        },
        {
          "duration": 0.75,
          "durationTicks": 96,
          "midi": 56,
          "name": "G#3",
          "ticks": 9072,
          "time": 70.875,
          "velocity": 0.7480314960629921
        },
        {
          "duration": 0.75,
          "durationTicks": 96,
          "midi": 64,
          "name": "E4",
          "ticks": 9120,
          "time": 71.25,
          "velocity": 0.7480314960629921
        },
        {
          "duration": 0.375,
          "durationTicks": 48,
          "midi": 56,
          "name": "G#3",
          "ticks": 9168,
          "time": 71.625,
          "velocity": 0.7480314960629921
        },
        {
          "duration": 0.375,
          "durationTicks": 48,
          "midi": 59,
          "name": "B3",
          "ticks": 9216,
          "time": 72,
          "velocity": 0.7401574803149606
        },
        {
          "duration": 0.75,
          "durationTicks": 96,
          "midi": 58,
          "name": "A#3",
          "ticks": 9264,
          "time": 72.375,
          "velocity": 0.7401574803149606
        },
        {
          "duration": 0.75,
          "durationTicks": 96,
          "midi": 63,
          "name": "D#4",
          "ticks": 9312,
          "time": 72.75,
          "velocity": 0.7401574803149606
        },
        {
          "duration": 0.75,
          "durationTicks": 96,
          "midi": 55,
          "name": "G3",
          "ticks": 9360,
          "time": 73.125,
          "velocity": 0.7401574803149606
        },
        {
          "duration": 0.75,
          "durationTicks": 96,
          "midi": 63,
          "name": "D#4",
          "ticks": 9408,
          "time": 73.5,
          "velocity": 0.7401574803149606
        },
        {
          "duration": 0.75,
          "durationTicks": 96,
          "midi": 55,
          "name": "G3",
          "ticks": 9456,
          "time": 73.875,
          "velocity": 0.7401574803149606
        },
        {
          "duration": 0.75,
          "durationTicks": 96,
          "midi": 63,
          "name": "D#4",
          "ticks": 9504,
          "time": 74.25,
          "velocity": 0.7244094488188977
        },
        {
          "duration": 0.375,
          "durationTicks": 48,
          "midi": 55,
          "name": "G3",
          "ticks": 9552,
          "time": 74.625,
          "velocity": 0.7244094488188977
        },
        {
          "duration": 0.75,
          "durationTicks": 96,
          "midi": 66,
          "name": "F#4",
          "ticks": 9600,
          "time": 75,
          "velocity": 0.7401574803149606
        },
        {
          "duration": 0.75,
          "durationTicks": 96,
          "midi": 62,
          "name": "D4",
          "ticks": 9648,
          "time": 75.375,
          "velocity": 0.7480314960629921
        },
        {
          "duration": 0.75,
          "durationTicks": 96,
          "midi": 66,
          "name": "F#4",
          "ticks": 9696,
          "time": 75.75,
          "velocity": 0.7165354330708661
        },
        {
          "duration": 0.75,
          "durationTicks": 96,
          "midi": 62,
          "name": "D4",
          "ticks": 9744,
          "time": 76.125,
          "velocity": 0.7165354330708661
        },
        {
          "duration": 0.7421875,
          "durationTicks": 95,
          "midi": 66,
          "name": "F#4",
          "ticks": 9792,
          "time": 76.5,
          "velocity": 0.7165354330708661
        },
        {
          "duration": 0.75,
          "durationTicks": 96,
          "midi": 62,
          "name": "D4",
          "ticks": 9840,
          "time": 76.875,
          "velocity": 0.7165354330708661
        },
        {
          "duration": 0.75,
          "durationTicks": 96,
          "midi": 66,
          "name": "F#4",
          "ticks": 9887,
          "time": 77.2421875,
          "velocity": 0.7165354330708661
        },
        {
          "duration": 0.75,
          "durationTicks": 96,
          "midi": 62,
          "name": "D4",
          "ticks": 9936,
          "time": 77.625,
          "velocity": 0.7165354330708661
        },
        {
          "duration": 0.75,
          "durationTicks": 96,
          "midi": 66,
          "name": "F#4",
          "ticks": 9984,
          "time": 78,
          "velocity": 0.7165354330708661
        },
        {
          "duration": 0.75,
          "durationTicks": 96,
          "midi": 62,
          "name": "D4",
          "ticks": 10032,
          "time": 78.375,
          "velocity": 0.7165354330708661
        },
        {
          "duration": 0.75,
          "durationTicks": 96,
          "midi": 66,
          "name": "F#4",
          "ticks": 10080,
          "time": 78.75,
          "velocity": 0.7165354330708661
        },
        {
          "duration": 0.75,
          "durationTicks": 96,
          "midi": 62,
          "name": "D4",
          "ticks": 10128,
          "time": 79.125,
          "velocity": 0.7165354330708661
        },
        {
          "duration": 0.75,
          "durationTicks": 96,
          "midi": 66,
          "name": "F#4",
          "ticks": 10176,
          "time": 79.5,
          "velocity": 0.7165354330708661
        },
        {
          "duration": 0.75,
          "durationTicks": 96,
          "midi": 62,
          "name": "D4",
          "ticks": 10224,
          "time": 79.875,
          "velocity": 0.7165354330708661
        },
        {
          "duration": 0.75,
          "durationTicks": 96,
          "midi": 66,
          "name": "F#4",
          "ticks": 10272,
          "time": 80.25,
          "velocity": 0.7165354330708661
        },
        {
          "duration": 0.75,
          "durationTicks": 96,
          "midi": 62,
          "name": "D4",
          "ticks": 10320,
          "time": 80.625,
          "velocity": 0.7165354330708661
        },
        {
          "duration": 0.75,
          "durationTicks": 96,
          "midi": 65,
          "name": "F4",
          "ticks": 10368,
          "time": 81,
          "velocity": 0.7165354330708661
        },
        {
          "duration": 0.75,
          "durationTicks": 96,
          "midi": 61,
          "name": "C#4",
          "ticks": 10416,
          "time": 81.375,
          "velocity": 0.7165354330708661
        },
        {
          "duration": 0.75,
          "durationTicks": 96,
          "midi": 65,
          "name": "F4",
          "ticks": 10464,
          "time": 81.75,
          "velocity": 0.7165354330708661
        },
        {
          "duration": 0.75,
          "durationTicks": 96,
          "midi": 61,
          "name": "C#4",
          "ticks": 10512,
          "time": 82.125,
          "velocity": 0.7165354330708661
        },
        {
          "duration": 0.75,
          "durationTicks": 96,
          "midi": 65,
          "name": "F4",
          "ticks": 10560,
          "time": 82.5,
          "velocity": 0.7165354330708661
        },
        {
          "duration": 0.75,
          "durationTicks": 96,
          "midi": 61,
          "name": "C#4",
          "ticks": 10608,
          "time": 82.875,
          "velocity": 0.7165354330708661
        },
        {
          "duration": 0.75,
          "durationTicks": 96,
          "midi": 65,
          "name": "F4",
          "ticks": 10656,
          "time": 83.25,
          "velocity": 0.7165354330708661
        },
        {
          "duration": 0.375,
          "durationTicks": 48,
          "midi": 61,
          "name": "C#4",
          "ticks": 10704,
          "time": 83.625,
          "velocity": 0.7165354330708661
        },
        {
          "duration": 0.75,
          "durationTicks": 96,
          "midi": 65,
          "name": "F4",
          "ticks": 10752,
          "time": 84,
          "velocity": 0.7165354330708661
        },
        {
          "duration": 0.75,
          "durationTicks": 96,
          "midi": 61,
          "name": "C#4",
          "ticks": 10800,
          "time": 84.375,
          "velocity": 0.7165354330708661
        },
        {
          "duration": 0.75,
          "durationTicks": 96,
          "midi": 65,
          "name": "F4",
          "ticks": 10848,
          "time": 84.75,
          "velocity": 0.7165354330708661
        },
        {
          "duration": 0.75,
          "durationTicks": 96,
          "midi": 61,
          "name": "C#4",
          "ticks": 10896,
          "time": 85.125,
          "velocity": 0.7165354330708661
        },
        {
          "duration": 0.75,
          "durationTicks": 96,
          "midi": 65,
          "name": "F4",
          "ticks": 10944,
          "time": 85.5,
          "velocity": 0.7165354330708661
        },
        {
          "duration": 0.75,
          "durationTicks": 96,
          "midi": 61,
          "name": "C#4",
          "ticks": 10992,
          "time": 85.875,
          "velocity": 0.7165354330708661
        },
        {
          "duration": 0.75,
          "durationTicks": 96,
          "midi": 65,
          "name": "F4",
          "ticks": 11040,
          "time": 86.25,
          "velocity": 0.7165354330708661
        },
        {
          "duration": 0.375,
          "durationTicks": 48,
          "midi": 61,
          "name": "C#4",
          "ticks": 11088,
          "time": 86.625,
          "velocity": 0.7165354330708661
        },
        {
          "duration": 0.75,
          "durationTicks": 96,
          "midi": 66,
          "name": "F#4",
          "ticks": 11136,
          "time": 87,
          "velocity": 0.7165354330708661
        },
        {
          "duration": 0.75,
          "durationTicks": 96,
          "midi": 61,
          "name": "C#4",
          "ticks": 11184,
          "time": 87.375,
          "velocity": 0.7165354330708661
        },
        {
          "duration": 0.75,
          "durationTicks": 96,
          "midi": 66,
          "name": "F#4",
          "ticks": 11232,
          "time": 87.75,
          "velocity": 0.7165354330708661
        },
        {
          "duration": 0.75,
          "durationTicks": 96,
          "midi": 61,
          "name": "C#4",
          "ticks": 11280,
          "time": 88.125,
          "velocity": 0.7165354330708661
        },
        {
          "duration": 0.75,
          "durationTicks": 96,
          "midi": 66,
          "name": "F#4",
          "ticks": 11328,
          "time": 88.5,
          "velocity": 0.7165354330708661
        },
        {
          "duration": 0.75,
          "durationTicks": 96,
          "midi": 61,
          "name": "C#4",
          "ticks": 11376,
          "time": 88.875,
          "velocity": 0.7165354330708661
        },
        {
          "duration": 0.75,
          "durationTicks": 96,
          "midi": 66,
          "name": "F#4",
          "ticks": 11424,
          "time": 89.25,
          "velocity": 0.7165354330708661
        },
        {
          "duration": 0.75,
          "durationTicks": 96,
          "midi": 61,
          "name": "C#4",
          "ticks": 11472,
          "time": 89.625,
          "velocity": 0.7165354330708661
        },
        {
          "duration": 0.75,
          "durationTicks": 96,
          "midi": 66,
          "name": "F#4",
          "ticks": 11520,
          "time": 90,
          "velocity": 0.7165354330708661
        },
        {
          "duration": 0.75,
          "durationTicks": 96,
          "midi": 61,
          "name": "C#4",
          "ticks": 11568,
          "time": 90.375,
          "velocity": 0.7165354330708661
        },
        {
          "duration": 0.75,
          "durationTicks": 96,
          "midi": 66,
          "name": "F#4",
          "ticks": 11616,
          "time": 90.75,
          "velocity": 0.7165354330708661
        },
        {
          "duration": 0.75,
          "durationTicks": 96,
          "midi": 61,
          "name": "C#4",
          "ticks": 11664,
          "time": 91.125,
          "velocity": 0.7165354330708661
        },
        {
          "duration": 0.75,
          "durationTicks": 96,
          "midi": 66,
          "name": "F#4",
          "ticks": 11712,
          "time": 91.5,
          "velocity": 0.7165354330708661
        },
        {
          "duration": 0.75,
          "durationTicks": 96,
          "midi": 61,
          "name": "C#4",
          "ticks": 11760,
          "time": 91.875,
          "velocity": 0.7165354330708661
        },
        {
          "duration": 0.75,
          "durationTicks": 96,
          "midi": 66,
          "name": "F#4",
          "ticks": 11808,
          "time": 92.25,
          "velocity": 0.7165354330708661
        },
        {
          "duration": 0.75,
          "durationTicks": 96,
          "midi": 61,
          "name": "C#4",
          "ticks": 11856,
          "time": 92.625,
          "velocity": 0.7165354330708661
        },
        {
          "duration": 0.75,
          "durationTicks": 96,
          "midi": 66,
          "name": "F#4",
          "ticks": 11904,
          "time": 93,
          "velocity": 0.7165354330708661
        },
        {
          "duration": 0.75,
          "durationTicks": 96,
          "midi": 61,
          "name": "C#4",
          "ticks": 11952,
          "time": 93.375,
          "velocity": 0.7165354330708661
        },
        {
          "duration": 0.75,
          "durationTicks": 96,
          "midi": 66,
          "name": "F#4",
          "ticks": 12000,
          "time": 93.75,
          "velocity": 0.7165354330708661
        },
        {
          "duration": 0.75,
          "durationTicks": 96,
          "midi": 61,
          "name": "C#4",
          "ticks": 12048,
          "time": 94.125,
          "velocity": 0.7165354330708661
        },
        {
          "duration": 0.75,
          "durationTicks": 96,
          "midi": 66,
          "name": "F#4",
          "ticks": 12096,
          "time": 94.5,
          "velocity": 0.7165354330708661
        },
        {
          "duration": 0.75,
          "durationTicks": 96,
          "midi": 61,
          "name": "C#4",
          "ticks": 12144,
          "time": 94.875,
          "velocity": 0.7165354330708661
        },
        {
          "duration": 0.75,
          "durationTicks": 96,
          "midi": 66,
          "name": "F#4",
          "ticks": 12192,
          "time": 95.25,
          "velocity": 0.7165354330708661
        },
        {
          "duration": 0.75,
          "durationTicks": 96,
          "midi": 61,
          "name": "C#4",
          "ticks": 12240,
          "time": 95.625,
          "velocity": 0.7165354330708661
        },
        {
          "duration": 0.75,
          "durationTicks": 96,
          "midi": 65,
          "name": "F4",
          "ticks": 12288,
          "time": 96,
          "velocity": 0.7165354330708661
        },
        {
          "duration": 0.75,
          "durationTicks": 96,
          "midi": 61,
          "name": "C#4",
          "ticks": 12336,
          "time": 96.375,
          "velocity": 0.7165354330708661
        },
        {
          "duration": 0.75,
          "durationTicks": 96,
          "midi": 65,
          "name": "F4",
          "ticks": 12384,
          "time": 96.75,
          "velocity": 0.7165354330708661
        },
        {
          "duration": 0.75,
          "durationTicks": 96,
          "midi": 61,
          "name": "C#4",
          "ticks": 12432,
          "time": 97.125,
          "velocity": 0.7165354330708661
        },
        {
          "duration": 0.75,
          "durationTicks": 96,
          "midi": 65,
          "name": "F4",
          "ticks": 12480,
          "time": 97.5,
          "velocity": 0.7244094488188977
        },
        {
          "duration": 0.75,
          "durationTicks": 96,
          "midi": 61,
          "name": "C#4",
          "ticks": 12528,
          "time": 97.875,
          "velocity": 0.6377952755905512
        },
        {
          "duration": 0.375,
          "durationTicks": 48,
          "midi": 65,
          "name": "F4",
          "ticks": 12576,
          "time": 98.25,
          "velocity": 0.6377952755905512
        }
      ],
      "endOfTrackTicks": 23883
    },
    {
      "channel": 3,
      "controlChanges": {
        "6": [
          {
            "number": 6,
            "ticks": 0,
            "time": 0,
            "value": 0.09448818897637795
          },
          {
            "number": 6,
            "ticks": 0,
            "time": 0,
            "value": 0.09448818897637795
          },
          {
            "number": 6,
            "ticks": 0,
            "time": 0,
            "value": 0.09448818897637795
          },
          {
            "number": 6,
            "ticks": 23808,
            "time": 186,
            "value": 0.09448818897637795
          },
          {
            "number": 6,
            "ticks": 23883,
            "time": 186.5859375,
            "value": 0.09448818897637795
          }
        ],
        "7": [
          {
            "number": 7,
            "ticks": 0,
            "time": 0,
            "value": 0.7874015748031497
          },
          {
            "number": 7,
            "ticks": 0,
            "time": 0,
            "value": 0.7874015748031497
          },
          {
            "number": 7,
            "ticks": 0,
            "time": 0,
            "value": 0.7874015748031497
          },
          {
            "number": 7,
            "ticks": 0,
            "time": 0,
            "value": 0.7874015748031497
          },
          {
            "number": 7,
            "ticks": 0,
            "time": 0,
            "value": 0.7874015748031497
          },
          {
            "number": 7,
            "ticks": 0,
            "time": 0,
            "value": 0.7874015748031497
          },
          {
            "number": 7,
            "ticks": 23808,
            "time": 186,
            "value": 0.7874015748031497
          },
          {
            "number": 7,
            "ticks": 23882,
            "time": 186.578125,
            "value": 0.7874015748031497
          },
          {
            "number": 7,
            "ticks": 23883,
            "time": 186.5859375,
            "value": 0.7874015748031497
          }
        ],
        "10": [
          {
            "number": 10,
            "ticks": 0,
            "time": 0,
            "value": 0.5039370078740157
          },
          {
            "number": 10,
            "ticks": 0,
            "time": 0,
            "value": 0.5039370078740157
          },
          {
            "number": 10,
            "ticks": 0,
            "time": 0,
            "value": 0.5039370078740157
          },
          {
            "number": 10,
            "ticks": 0,
            "time": 0,
            "value": 0.5039370078740157
          },
          {
            "number": 10,
            "ticks": 0,
            "time": 0,
            "value": 0.5039370078740157
          },
          {
            "number": 10,
            "ticks": 0,
            "time": 0,
            "value": 0.5039370078740157
          },
          {
            "number": 10,
            "ticks": 23808,
            "time": 186,
            "value": 0.5039370078740157
          },
          {
            "number": 10,
            "ticks": 23882,
            "time": 186.578125,
            "value": 0.5039370078740157
          },
          {
            "number": 10,
            "ticks": 23883,
            "time": 186.5859375,
            "value": 0.5039370078740157
          }
        ],
        "100": [
          {
            "number": 100,
            "ticks": 0,
            "time": 0,
            "value": 0
          },
          {
            "number": 100,
            "ticks": 0,
            "time": 0,
            "value": 0
          },
          {
            "number": 100,
            "ticks": 0,
            "time": 0,
            "value": 0
          },
          {
            "number": 100,
            "ticks": 23808,
            "time": 186,
            "value": 0
          },
          {
            "number": 100,
            "ticks": 23883,
            "time": 186.5859375,
            "value": 0
          }
        ],
        "101": [
          {
            "number": 101,
            "ticks": 0,
            "time": 0,
            "value": 0
          },
          {
            "number": 101,
            "ticks": 0,
            "time": 0,
            "value": 0
          },
          {
            "number": 101,
            "ticks": 0,
            "time": 0,
            "value": 0
          },
          {
            "number": 101,
            "ticks": 23808,
            "time": 186,
            "value": 0
          },
          {
            "number": 101,
            "ticks": 23883,
            "time": 186.5859375,
            "value": 0
          }
        ]
      },
      "pitchBends": [
        {
          "ticks": 0,
          "time": 0,
          "value": 0
        },
        {
          "ticks": 0,
          "time": 0,
          "value": 0
        },
        {
          "ticks": 0,
          "time": 0,
          "value": 0
        },
        {
          "ticks": 0,
          "time": 0,
          "value": 0
        },
        {
          "ticks": 23808,
          "time": 186,
          "value": 0
        },
        {
          "ticks": 23883,
          "time": 186.5859375,
          "value": 0
        }
      ],
      "instrument": {
        "family": "piano",
        "number": 0,
        "name": "acoustic grand piano"
      },
      "name": "yamaha piano",
      "notes": [
        {
          "duration": 0.1875,
          "durationTicks": 24,
          "midi": 68,
          "name": "G#4",
          "ticks": 384,
          "time": 3,
          "velocity": 0.6771653543307087
        },
        {
          "duration": 0.1875,
          "durationTicks": 24,
          "midi": 75,
          "name": "D#5",
          "ticks": 384,
          "time": 3,
          "velocity": 0.6771653543307087
        },
        {
          "duration": 0.1875,
          "durationTicks": 24,
          "midi": 68,
          "name": "G#4",
          "ticks": 480,
          "time": 3.75,
          "velocity": 0.6850393700787402
        },
        {
          "duration": 0.1875,
          "durationTicks": 24,
          "midi": 75,
          "name": "D#5",
          "ticks": 480,
          "time": 3.75,
          "velocity": 0.6850393700787402
        },
        {
          "duration": 0.1875,
          "durationTicks": 24,
          "midi": 68,
          "name": "G#4",
          "ticks": 576,
          "time": 4.5,
          "velocity": 0.6929133858267716
        },
        {
          "duration": 0.1875,
          "durationTicks": 24,
          "midi": 75,
          "name": "D#5",
          "ticks": 576,
          "time": 4.5,
          "velocity": 0.6929133858267716
        },
        {
          "duration": 0.1875,
          "durationTicks": 24,
          "midi": 68,
          "name": "G#4",
          "ticks": 672,
          "time": 5.25,
          "velocity": 0.7007874015748031
        },
        {
          "duration": 0.1875,
          "durationTicks": 24,
          "midi": 75,
          "name": "D#5",
          "ticks": 672,
          "time": 5.25,
          "velocity": 0.7007874015748031
        },
        {
          "duration": 0.1875,
          "durationTicks": 24,
          "midi": 75,
          "name": "D#5",
          "ticks": 768,
          "time": 6,
          "velocity": 0.7007874015748031
        },
        {
          "duration": 0.1875,
          "durationTicks": 24,
          "midi": 68,
          "name": "G#4",
          "ticks": 768,
          "time": 6,
          "velocity": 0.7007874015748031
        },
        {
          "duration": 0.1875,
          "durationTicks": 24,
          "midi": 75,
          "name": "D#5",
          "ticks": 864,
          "time": 6.75,
          "velocity": 0.7165354330708661
        },
        {
          "duration": 0.1875,
          "durationTicks": 24,
          "midi": 68,
          "name": "G#4",
          "ticks": 864,
          "time": 6.75,
          "velocity": 0.7165354330708661
        },
        {
          "duration": 0.75,
          "durationTicks": 96,
          "midi": 27,
          "name": "D#1",
          "ticks": 1056,
          "time": 8.25,
          "velocity": 0.8818897637795275
        },
        {
          "duration": 0.09375,
          "durationTicks": 12,
          "midi": 32,
          "name": "G#1",
          "ticks": 1152,
          "time": 9,
          "velocity": 0.8818897637795275
        },
        {
          "duration": 0.1875,
          "durationTicks": 24,
          "midi": 68,
          "name": "G#4",
          "ticks": 1152,
          "time": 9,
          "velocity": 0.7716535433070866
        },
        {
          "duration": 0.1875,
          "durationTicks": 24,
          "midi": 75,
          "name": "D#5",
          "ticks": 1152,
          "time": 9,
          "velocity": 0.7716535433070866
        },
        {
          "duration": 0.1875,
          "durationTicks": 24,
          "midi": 68,
          "name": "G#4",
          "ticks": 1248,
          "time": 9.75,
          "velocity": 0.6456692913385826
        },
        {
          "duration": 0.1875,
          "durationTicks": 24,
          "midi": 75,
          "name": "D#5",
          "ticks": 1248,
          "time": 9.75,
          "velocity": 0.6456692913385826
        },
        {
          "duration": 0.1875,
          "durationTicks": 24,
          "midi": 67,
          "name": "G4",
          "ticks": 1344,
          "time": 10.5,
          "velocity": 0.6377952755905512
        },
        {
          "duration": 0.1875,
          "durationTicks": 24,
          "midi": 75,
          "name": "D#5",
          "ticks": 1344,
          "time": 10.5,
          "velocity": 0.6377952755905512
        },
        {
          "duration": 0.1875,
          "durationTicks": 24,
          "midi": 67,
          "name": "G4",
          "ticks": 1440,
          "time": 11.25,
          "velocity": 0.6377952755905512
        },
        {
          "duration": 0.1875,
          "durationTicks": 24,
          "midi": 75,
          "name": "D#5",
          "ticks": 1440,
          "time": 11.25,
          "velocity": 0.6377952755905512
        },
        {
          "duration": 0.1875,
          "durationTicks": 24,
          "midi": 75,
          "name": "D#5",
          "ticks": 1536,
          "time": 12,
          "velocity": 0.6377952755905512
        },
        {
          "duration": 0.1875,
          "durationTicks": 24,
          "midi": 68,
          "name": "G#4",
          "ticks": 1536,
          "time": 12,
          "velocity": 0.6377952755905512
        },
        {
          "duration": 0.1875,
          "durationTicks": 24,
          "midi": 75,
          "name": "D#5",
          "ticks": 1632,
          "time": 12.75,
          "velocity": 0.6535433070866141
        },
        {
          "duration": 0.1875,
          "durationTicks": 24,
          "midi": 67,
          "name": "G4",
          "ticks": 1632,
          "time": 12.75,
          "velocity": 0.6535433070866141
        },
        {
          "duration": 0.75,
          "durationTicks": 96,
          "midi": 27,
          "name": "D#1",
          "ticks": 1824,
          "time": 14.25,
          "velocity": 0.8818897637795275
        },
        {
          "duration": 0.09375,
          "durationTicks": 12,
          "midi": 56,
          "name": "G#3",
          "ticks": 1920,
          "time": 15,
          "velocity": 0.7795275590551181
        },
        {
          "duration": 0.09375,
          "durationTicks": 12,
          "midi": 71,
          "name": "B4",
          "ticks": 1920,
          "time": 15,
          "velocity": 0.7795275590551181
        },
        {
          "duration": 0.09375,
          "durationTicks": 12,
          "midi": 75,
          "name": "D#5",
          "ticks": 1920,
          "time": 15,
          "velocity": 0.7795275590551181
        },
        {
          "duration": 0.09375,
          "durationTicks": 12,
          "midi": 32,
          "name": "G#1",
          "ticks": 1920,
          "time": 15,
          "velocity": 0.7795275590551181
        },
        {
          "duration": 0.1875,
          "durationTicks": 24,
          "midi": 68,
          "name": "G#4",
          "ticks": 1920,
          "time": 15,
          "velocity": 0.8188976377952756
        },
        {
          "duration": 0.09375,
          "durationTicks": 12,
          "midi": 44,
          "name": "G#2",
          "ticks": 1920,
          "time": 15,
          "velocity": 0.7795275590551181
        },
        {
          "duration": 0.1875,
          "durationTicks": 24,
          "midi": 71,
          "name": "B4",
          "ticks": 2016,
          "time": 15.75,
          "velocity": 0.8188976377952756
        },
        {
          "duration": 0.1875,
          "durationTicks": 24,
          "midi": 68,
          "name": "G#4",
          "ticks": 2016,
          "time": 15.75,
          "velocity": 0.8188976377952756
        },
        {
          "duration": 0.09375,
          "durationTicks": 12,
          "midi": 56,
          "name": "G#3",
          "ticks": 2016,
          "time": 15.75,
          "velocity": 0.7480314960629921
        },
        {
          "duration": 0.09375,
          "durationTicks": 12,
          "midi": 75,
          "name": "D#5",
          "ticks": 2016,
          "time": 15.75,
          "velocity": 0.7480314960629921
        },
        {
          "duration": 0.09375,
          "durationTicks": 12,
          "midi": 44,
          "name": "G#2",
          "ticks": 2016,
          "time": 15.75,
          "velocity": 0.7480314960629921
        },
        {
          "duration": 0.09375,
          "durationTicks": 12,
          "midi": 71,
          "name": "B4",
          "ticks": 2064,
          "time": 16.125,
          "velocity": 0.7480314960629921
        },
        {
          "duration": 0.09375,
          "durationTicks": 12,
          "midi": 56,
          "name": "G#3",
          "ticks": 2064,
          "time": 16.125,
          "velocity": 0.7480314960629921
        },
        {
          "duration": 0.09375,
          "durationTicks": 12,
          "midi": 75,
          "name": "D#5",
          "ticks": 2064,
          "time": 16.125,
          "velocity": 0.7480314960629921
        },
        {
          "duration": 0.09375,
          "durationTicks": 12,
          "midi": 44,
          "name": "G#2",
          "ticks": 2064,
          "time": 16.125,
          "velocity": 0.7480314960629921
        },
        {
          "duration": 0.09375,
          "durationTicks": 12,
          "midi": 75,
          "name": "D#5",
          "ticks": 2112,
          "time": 16.5,
          "velocity": 0.7480314960629921
        },
        {
          "duration": 0.09375,
          "durationTicks": 12,
          "midi": 56,
          "name": "G#3",
          "ticks": 2112,
          "time": 16.5,
          "velocity": 0.7480314960629921
        },
        {
          "duration": 0.1875,
          "durationTicks": 24,
          "midi": 68,
          "name": "G#4",
          "ticks": 2112,
          "time": 16.5,
          "velocity": 0.8188976377952756
        },
        {
          "duration": 0.1875,
          "durationTicks": 24,
          "midi": 71,
          "name": "B4",
          "ticks": 2112,
          "time": 16.5,
          "velocity": 0.8188976377952756
        },
        {
          "duration": 0.09375,
          "durationTicks": 12,
          "midi": 44,
          "name": "G#2",
          "ticks": 2112,
          "time": 16.5,
          "velocity": 0.7480314960629921
        },
        {
          "duration": 0.09375,
          "durationTicks": 12,
          "midi": 71,
          "name": "B4",
          "ticks": 2208,
          "time": 17.25,
          "velocity": 0.7480314960629921
        },
        {
          "duration": 0.09375,
          "durationTicks": 12,
          "midi": 56,
          "name": "G#3",
          "ticks": 2208,
          "time": 17.25,
          "velocity": 0.7480314960629921
        },
        {
          "duration": 0.09375,
          "durationTicks": 12,
          "midi": 75,
          "name": "D#5",
          "ticks": 2208,
          "time": 17.25,
          "velocity": 0.7480314960629921
        },
        {
          "duration": 0.09375,
          "durationTicks": 12,
          "midi": 44,
          "name": "G#2",
          "ticks": 2208,
          "time": 17.25,
          "velocity": 0.7480314960629921
        },
        {
          "duration": 0.375,
          "durationTicks": 48,
          "midi": 75,
          "name": "D#5",
          "ticks": 2256,
          "time": 17.625,
          "velocity": 0.7480314960629921
        },
        {
          "duration": 0.375,
          "durationTicks": 48,
          "midi": 68,
          "name": "G#4",
          "ticks": 2256,
          "time": 17.625,
          "velocity": 0.7480314960629921
        },
        {
          "duration": 0.09375,
          "durationTicks": 12,
          "midi": 56,
          "name": "G#3",
          "ticks": 2256,
          "time": 17.625,
          "velocity": 0.7480314960629921
        },
        {
          "duration": 0.375,
          "durationTicks": 48,
          "midi": 71,
          "name": "B4",
          "ticks": 2256,
          "time": 17.625,
          "velocity": 0.7480314960629921
        },
        {
          "duration": 0.09375,
          "durationTicks": 12,
          "midi": 44,
          "name": "G#2",
          "ticks": 2256,
          "time": 17.625,
          "velocity": 0.7480314960629921
        },
        {
          "duration": 0.1875,
          "durationTicks": 24,
          "midi": 68,
          "name": "G#4",
          "ticks": 2304,
          "time": 18,
          "velocity": 0.8188976377952756
        },
        {
          "duration": 0.09375,
          "durationTicks": 12,
          "midi": 56,
          "name": "G#3",
          "ticks": 2304,
          "time": 18,
          "velocity": 0.7480314960629921
        },
        {
          "duration": 0.09375,
          "durationTicks": 12,
          "midi": 71,
          "name": "B4",
          "ticks": 2304,
          "time": 18,
          "velocity": 0.7480314960629921
        },
        {
          "duration": 0.09375,
          "durationTicks": 12,
          "midi": 75,
          "name": "D#5",
          "ticks": 2304,
          "time": 18,
          "velocity": 0.7480314960629921
        },
        {
          "duration": 0.09375,
          "durationTicks": 12,
          "midi": 44,
          "name": "G#2",
          "ticks": 2304,
          "time": 18,
          "velocity": 0.7480314960629921
        },
        {
          "duration": 0.09375,
          "durationTicks": 12,
          "midi": 75,
          "name": "D#5",
          "ticks": 2400,
          "time": 18.75,
          "velocity": 0.7480314960629921
        },
        {
          "duration": 0.09375,
          "durationTicks": 12,
          "midi": 56,
          "name": "G#3",
          "ticks": 2400,
          "time": 18.75,
          "velocity": 0.7480314960629921
        },
        {
          "duration": 0.09375,
          "durationTicks": 12,
          "midi": 44,
          "name": "G#2",
          "ticks": 2400,
          "time": 18.75,
          "velocity": 0.7480314960629921
        },
        {
          "duration": 0.09375,
          "durationTicks": 12,
          "midi": 56,
          "name": "G#3",
          "ticks": 2448,
          "time": 19.125,
          "velocity": 0.7480314960629921
        },
        {
          "duration": 0.09375,
          "durationTicks": 12,
          "midi": 71,
          "name": "B4",
          "ticks": 2448,
          "time": 19.125,
          "velocity": 0.7480314960629921
        },
        {
          "duration": 0.09375,
          "durationTicks": 12,
          "midi": 68,
          "name": "G#4",
          "ticks": 2448,
          "time": 19.125,
          "velocity": 0.7480314960629921
        },
        {
          "duration": 0.09375,
          "durationTicks": 12,
          "midi": 75,
          "name": "D#5",
          "ticks": 2448,
          "time": 19.125,
          "velocity": 0.7480314960629921
        },
        {
          "duration": 0.09375,
          "durationTicks": 12,
          "midi": 44,
          "name": "G#2",
          "ticks": 2448,
          "time": 19.125,
          "velocity": 0.7480314960629921
        },
        {
          "duration": 0.09375,
          "durationTicks": 12,
          "midi": 56,
          "name": "G#3",
          "ticks": 2496,
          "time": 19.5,
          "velocity": 0.7480314960629921
        },
        {
          "duration": 0.375,
          "durationTicks": 48,
          "midi": 71,
          "name": "B4",
          "ticks": 2496,
          "time": 19.5,
          "velocity": 0.7480314960629921
        },
        {
          "duration": 0.375,
          "durationTicks": 48,
          "midi": 68,
          "name": "G#4",
          "ticks": 2496,
          "time": 19.5,
          "velocity": 0.7480314960629921
        },
        {
          "duration": 0.375,
          "durationTicks": 48,
          "midi": 75,
          "name": "D#5",
          "ticks": 2496,
          "time": 19.5,
          "velocity": 0.7480314960629921
        },
        {
          "duration": 0.09375,
          "durationTicks": 12,
          "midi": 44,
          "name": "G#2",
          "ticks": 2496,
          "time": 19.5,
          "velocity": 0.7480314960629921
        },
        {
          "duration": 0.09375,
          "durationTicks": 12,
          "midi": 75,
          "name": "D#5",
          "ticks": 2592,
          "time": 20.25,
          "velocity": 0.7480314960629921
        },
        {
          "duration": 0.09375,
          "durationTicks": 12,
          "midi": 71,
          "name": "B4",
          "ticks": 2592,
          "time": 20.25,
          "velocity": 0.7480314960629921
        },
        {
          "duration": 0.09375,
          "durationTicks": 12,
          "midi": 56,
          "name": "G#3",
          "ticks": 2592,
          "time": 20.25,
          "velocity": 0.7480314960629921
        },
        {
          "duration": 0.65625,
          "durationTicks": 84,
          "midi": 31,
          "name": "G1",
          "ticks": 2592,
          "time": 20.25,
          "velocity": 0.905511811023622
        },
        {
          "duration": 0.09375,
          "durationTicks": 12,
          "midi": 44,
          "name": "G#2",
          "ticks": 2592,
          "time": 20.25,
          "velocity": 0.7480314960629921
        },
        {
          "duration": 0.09375,
          "durationTicks": 12,
          "midi": 56,
          "name": "G#3",
          "ticks": 2640,
          "time": 20.625,
          "velocity": 0.7480314960629921
        },
        {
          "duration": 0.375,
          "durationTicks": 48,
          "midi": 71,
          "name": "B4",
          "ticks": 2640,
          "time": 20.625,
          "velocity": 0.7480314960629921
        },
        {
          "duration": 0.375,
          "durationTicks": 48,
          "midi": 68,
          "name": "G#4",
          "ticks": 2640,
          "time": 20.625,
          "velocity": 0.7480314960629921
        },
        {
          "duration": 0.375,
          "durationTicks": 48,
          "midi": 75,
          "name": "D#5",
          "ticks": 2640,
          "time": 20.625,
          "velocity": 0.7480314960629921
        },
        {
          "duration": 0.09375,
          "durationTicks": 12,
          "midi": 44,
          "name": "G#2",
          "ticks": 2640,
          "time": 20.625,
          "velocity": 0.7480314960629921
        },
        {
          "duration": 0.09375,
          "durationTicks": 12,
          "midi": 75,
          "name": "D#5",
          "ticks": 2688,
          "time": 21,
          "velocity": 0.7795275590551181
        },
        {
          "duration": 0.09375,
          "durationTicks": 12,
          "midi": 70,
          "name": "A#4",
          "ticks": 2688,
          "time": 21,
          "velocity": 0.7795275590551181
        },
        {
          "duration": 0.09375,
          "durationTicks": 12,
          "midi": 67,
          "name": "G4",
          "ticks": 2688,
          "time": 21,
          "velocity": 0.7795275590551181
        },
        {
          "duration": 0.09375,
          "durationTicks": 12,
          "midi": 27,
          "name": "D#1",
          "ticks": 2688,
          "time": 21,
          "velocity": 0.8976377952755905
        },
        {
          "duration": 0.09375,
          "durationTicks": 12,
          "midi": 75,
          "name": "D#5",
          "ticks": 2784,
          "time": 21.75,
          "velocity": 0.7322834645669292
        },
        {
          "duration": 0.09375,
          "durationTicks": 12,
          "midi": 51,
          "name": "D#3",
          "ticks": 2784,
          "time": 21.75,
          "velocity": 0.7322834645669292
        },
        {
          "duration": 0.09375,
          "durationTicks": 12,
          "midi": 70,
          "name": "A#4",
          "ticks": 2784,
          "time": 21.75,
          "velocity": 0.7322834645669292
        },
        {
          "duration": 0.09375,
          "durationTicks": 12,
          "midi": 67,
          "name": "G4",
          "ticks": 2784,
          "time": 21.75,
          "velocity": 0.7322834645669292
        },
        {
          "duration": 0.09375,
          "durationTicks": 12,
          "midi": 39,
          "name": "D#2",
          "ticks": 2784,
          "time": 21.75,
          "velocity": 0.7322834645669292
        },
        {
          "duration": 0.375,
          "durationTicks": 48,
          "midi": 67,
          "name": "G4",
          "ticks": 2880,
          "time": 22.5,
          "velocity": 0.7165354330708661
        },
        {
          "duration": 0.375,
          "durationTicks": 48,
          "midi": 70,
          "name": "A#4",
          "ticks": 2880,
          "time": 22.5,
          "velocity": 0.7165354330708661
        },
        {
          "duration": 0.09375,
          "durationTicks": 12,
          "midi": 51,
          "name": "D#3",
          "ticks": 2880,
          "time": 22.5,
          "velocity": 0.7165354330708661
        },
        {
          "duration": 0.375,
          "durationTicks": 48,
          "midi": 75,
          "name": "D#5",
          "ticks": 2880,
          "time": 22.5,
          "velocity": 0.7165354330708661
        },
        {
          "duration": 0.09375,
          "durationTicks": 12,
          "midi": 39,
          "name": "D#2",
          "ticks": 2880,
          "time": 22.5,
          "velocity": 0.7165354330708661
        },
        {
          "duration": 0.09375,
          "durationTicks": 12,
          "midi": 75,
          "name": "D#5",
          "ticks": 2976,
          "time": 23.25,
          "velocity": 0.7086614173228346
        },
        {
          "duration": 0.09375,
          "durationTicks": 12,
          "midi": 51,
          "name": "D#3",
          "ticks": 2976,
          "time": 23.25,
          "velocity": 0.7086614173228346
        },
        {
          "duration": 0.09375,
          "durationTicks": 12,
          "midi": 70,
          "name": "A#4",
          "ticks": 2976,
          "time": 23.25,
          "velocity": 0.7086614173228346
        },
        {
          "duration": 0.09375,
          "durationTicks": 12,
          "midi": 67,
          "name": "G4",
          "ticks": 2976,
          "time": 23.25,
          "velocity": 0.7086614173228346
        },
        {
          "duration": 0.09375,
          "durationTicks": 12,
          "midi": 39,
          "name": "D#2",
          "ticks": 2976,
          "time": 23.25,
          "velocity": 0.7086614173228346
        },
        {
          "duration": 0.375,
          "durationTicks": 48,
          "midi": 75,
          "name": "D#5",
          "ticks": 3024,
          "time": 23.625,
          "velocity": 0.7086614173228346
        },
        {
          "duration": 0.09375,
          "durationTicks": 12,
          "midi": 51,
          "name": "D#3",
          "ticks": 3024,
          "time": 23.625,
          "velocity": 0.7086614173228346
        },
        {
          "duration": 0.375,
          "durationTicks": 48,
          "midi": 70,
          "name": "A#4",
          "ticks": 3024,
          "time": 23.625,
          "velocity": 0.7086614173228346
        },
        {
          "duration": 0.375,
          "durationTicks": 48,
          "midi": 67,
          "name": "G4",
          "ticks": 3024,
          "time": 23.625,
          "velocity": 0.7086614173228346
        },
        {
          "duration": 0.09375,
          "durationTicks": 12,
          "midi": 39,
          "name": "D#2",
          "ticks": 3024,
          "time": 23.625,
          "velocity": 0.7086614173228346
        },
        {
          "duration": 0.09375,
          "durationTicks": 12,
          "midi": 75,
          "name": "D#5",
          "ticks": 3072,
          "time": 24,
          "velocity": 0.7086614173228346
        },
        {
          "duration": 0.09375,
          "durationTicks": 12,
          "midi": 51,
          "name": "D#3",
          "ticks": 3072,
          "time": 24,
          "velocity": 0.7086614173228346
        },
        {
          "duration": 0.09375,
          "durationTicks": 12,
          "midi": 70,
          "name": "A#4",
          "ticks": 3072,
          "time": 24,
          "velocity": 0.7086614173228346
        },
        {
          "duration": 0.09375,
          "durationTicks": 12,
          "midi": 67,
          "name": "G4",
          "ticks": 3072,
          "time": 24,
          "velocity": 0.7086614173228346
        },
        {
          "duration": 0.09375,
          "durationTicks": 12,
          "midi": 39,
          "name": "D#2",
          "ticks": 3072,
          "time": 24,
          "velocity": 0.7086614173228346
        },
        {
          "duration": 0.09375,
          "durationTicks": 12,
          "midi": 75,
          "name": "D#5",
          "ticks": 3168,
          "time": 24.75,
          "velocity": 0.7086614173228346
        },
        {
          "duration": 0.09375,
          "durationTicks": 12,
          "midi": 51,
          "name": "D#3",
          "ticks": 3168,
          "time": 24.75,
          "velocity": 0.7086614173228346
        },
        {
          "duration": 0.09375,
          "durationTicks": 12,
          "midi": 67,
          "name": "G4",
          "ticks": 3168,
          "time": 24.75,
          "velocity": 0.7086614173228346
        },
        {
          "duration": 0.09375,
          "durationTicks": 12,
          "midi": 70,
          "name": "A#4",
          "ticks": 3168,
          "time": 24.75,
          "velocity": 0.7086614173228346
        },
        {
          "duration": 0.09375,
          "durationTicks": 12,
          "midi": 39,
          "name": "D#2",
          "ticks": 3168,
          "time": 24.75,
          "velocity": 0.7086614173228346
        },
        {
          "duration": 0.09375,
          "durationTicks": 12,
          "midi": 75,
          "name": "D#5",
          "ticks": 3216,
          "time": 25.125,
          "velocity": 0.7086614173228346
        },
        {
          "duration": 0.09375,
          "durationTicks": 12,
          "midi": 51,
          "name": "D#3",
          "ticks": 3216,
          "time": 25.125,
          "velocity": 0.7086614173228346
        },
        {
          "duration": 0.09375,
          "durationTicks": 12,
          "midi": 70,
          "name": "A#4",
          "ticks": 3216,
          "time": 25.125,
          "velocity": 0.7086614173228346
        },
        {
          "duration": 0.09375,
          "durationTicks": 12,
          "midi": 67,
          "name": "G4",
          "ticks": 3216,
          "time": 25.125,
          "velocity": 0.7086614173228346
        },
        {
          "duration": 0.09375,
          "durationTicks": 12,
          "midi": 39,
          "name": "D#2",
          "ticks": 3216,
          "time": 25.125,
          "velocity": 0.7086614173228346
        },
        {
          "duration": 0.375,
          "durationTicks": 48,
          "midi": 75,
          "name": "D#5",
          "ticks": 3264,
          "time": 25.5,
          "velocity": 0.7086614173228346
        },
        {
          "duration": 0.09375,
          "durationTicks": 12,
          "midi": 51,
          "name": "D#3",
          "ticks": 3264,
          "time": 25.5,
          "velocity": 0.7086614173228346
        },
        {
          "duration": 0.375,
          "durationTicks": 48,
          "midi": 79,
          "name": "G5",
          "ticks": 3264,
          "time": 25.5,
          "velocity": 0.7086614173228346
        },
        {
          "duration": 0.375,
          "durationTicks": 48,
          "midi": 70,
          "name": "A#4",
          "ticks": 3264,
          "time": 25.5,
          "velocity": 0.7086614173228346
        },
        {
          "duration": 0.09375,
          "durationTicks": 12,
          "midi": 39,
          "name": "D#2",
          "ticks": 3264,
          "time": 25.5,
          "velocity": 0.7086614173228346
        },
        {
          "duration": 0.09375,
          "durationTicks": 12,
          "midi": 67,
          "name": "G4",
          "ticks": 3360,
          "time": 26.25,
          "velocity": 0.7086614173228346
        },
        {
          "duration": 0.09375,
          "durationTicks": 12,
          "midi": 70,
          "name": "A#4",
          "ticks": 3360,
          "time": 26.25,
          "velocity": 0.7086614173228346
        },
        {
          "duration": 0.375,
          "durationTicks": 48,
          "midi": 82,
          "name": "A#5",
          "ticks": 3360,
          "time": 26.25,
          "velocity": 0.7086614173228346
        },
        {
          "duration": 0.09375,
          "durationTicks": 12,
          "midi": 51,
          "name": "D#3",
          "ticks": 3360,
          "time": 26.25,
          "velocity": 0.7086614173228346
        },
        {
          "duration": 0.09375,
          "durationTicks": 12,
          "midi": 75,
          "name": "D#5",
          "ticks": 3360,
          "time": 26.25,
          "velocity": 0.7086614173228346
        },
        {
          "duration": 0.84375,
          "durationTicks": 108,
          "midi": 27,
          "name": "D#1",
          "ticks": 3360,
          "time": 26.25,
          "velocity": 0.905511811023622
        },
        {
          "duration": 0.09375,
          "durationTicks": 12,
          "midi": 39,
          "name": "D#2",
          "ticks": 3360,
          "time": 26.25,
          "velocity": 0.7086614173228346
        },
        {
          "duration": 0.375,
          "durationTicks": 48,
          "midi": 67,
          "name": "G4",
          "ticks": 3408,
          "time": 26.625,
          "velocity": 0.7086614173228346
        },
        {
          "duration": 0.375,
          "durationTicks": 48,
          "midi": 70,
          "name": "A#4",
          "ticks": 3408,
          "time": 26.625,
          "velocity": 0.7086614173228346
        },
        {
          "duration": 0.09375,
          "durationTicks": 12,
          "midi": 51,
          "name": "D#3",
          "ticks": 3408,
          "time": 26.625,
          "velocity": 0.7086614173228346
        },
        {
          "duration": 0.375,
          "durationTicks": 48,
          "midi": 75,
          "name": "D#5",
          "ticks": 3408,
          "time": 26.625,
          "velocity": 0.7086614173228346
        },
        {
          "duration": 0.09375,
          "durationTicks": 12,
          "midi": 39,
          "name": "D#2",
          "ticks": 3408,
          "time": 26.625,
          "velocity": 0.7086614173228346
        },
        {
          "duration": 0.09375,
          "durationTicks": 12,
          "midi": 32,
          "name": "G#1",
          "ticks": 3456,
          "time": 27,
          "velocity": 0.905511811023622
        },
        {
          "duration": 0.09375,
          "durationTicks": 12,
          "midi": 56,
          "name": "G#3",
          "ticks": 3456,
          "time": 27,
          "velocity": 0.7086614173228346
        },
        {
          "duration": 0.09375,
          "durationTicks": 12,
          "midi": 71,
          "name": "B4",
          "ticks": 3456,
          "time": 27,
          "velocity": 0.7086614173228346
        },
        {
          "duration": 0.09375,
          "durationTicks": 12,
          "midi": 75,
          "name": "D#5",
          "ticks": 3456,
          "time": 27,
          "velocity": 0.7086614173228346
        },
        {
          "duration": 0.09375,
          "durationTicks": 12,
          "midi": 44,
          "name": "G#2",
          "ticks": 3456,
          "time": 27,
          "velocity": 0.7086614173228346
        },
        {
          "duration": 0.09375,
          "durationTicks": 12,
          "midi": 56,
          "name": "G#3",
          "ticks": 3552,
          "time": 27.75,
          "velocity": 0.7086614173228346
        },
        {
          "duration": 0.09375,
          "durationTicks": 12,
          "midi": 71,
          "name": "B4",
          "ticks": 3552,
          "time": 27.75,
          "velocity": 0.7086614173228346
        },
        {
          "duration": 0.09375,
          "durationTicks": 12,
          "midi": 68,
          "name": "G#4",
          "ticks": 3552,
          "time": 27.75,
          "velocity": 0.7086614173228346
        },
        {
          "duration": 0.09375,
          "durationTicks": 12,
          "midi": 75,
          "name": "D#5",
          "ticks": 3552,
          "time": 27.75,
          "velocity": 0.7086614173228346
        },
        {
          "duration": 0.09375,
          "durationTicks": 12,
          "midi": 44,
          "name": "G#2",
          "ticks": 3552,
          "time": 27.75,
          "velocity": 0.7086614173228346
        },
        {
          "duration": 0.375,
          "durationTicks": 48,
          "midi": 75,
          "name": "D#5",
          "ticks": 3648,
          "time": 28.5,
          "velocity": 0.7086614173228346
        },
        {
          "duration": 0.375,
          "durationTicks": 48,
          "midi": 71,
          "name": "B4",
          "ticks": 3648,
          "time": 28.5,
          "velocity": 0.7086614173228346
        },
        {
          "duration": 0.375,
          "durationTicks": 48,
          "midi": 68,
          "name": "G#4",
          "ticks": 3648,
          "time": 28.5,
          "velocity": 0.7086614173228346
        },
        {
          "duration": 0.09375,
          "durationTicks": 12,
          "midi": 56,
          "name": "G#3",
          "ticks": 3648,
          "time": 28.5,
          "velocity": 0.7086614173228346
        },
        {
          "duration": 0.09375,
          "durationTicks": 12,
          "midi": 44,
          "name": "G#2",
          "ticks": 3648,
          "time": 28.5,
          "velocity": 0.7086614173228346
        },
        {
          "duration": 0.09375,
          "durationTicks": 12,
          "midi": 75,
          "name": "D#5",
          "ticks": 3744,
          "time": 29.25,
          "velocity": 0.7244094488188977
        },
        {
          "duration": 0.09375,
          "durationTicks": 12,
          "midi": 56,
          "name": "G#3",
          "ticks": 3744,
          "time": 29.25,
          "velocity": 0.7244094488188977
        },
        {
          "duration": 0.09375,
          "durationTicks": 12,
          "midi": 71,
          "name": "B4",
          "ticks": 3744,
          "time": 29.25,
          "velocity": 0.7244094488188977
        },
        {
          "duration": 0.09375,
          "durationTicks": 12,
          "midi": 44,
          "name": "G#2",
          "ticks": 3744,
          "time": 29.25,
          "velocity": 0.7244094488188977
        },
        {
          "duration": 0.375,
          "durationTicks": 48,
          "midi": 75,
          "name": "D#5",
          "ticks": 3792,
          "time": 29.625,
          "velocity": 0.7401574803149606
        },
        {
          "duration": 0.375,
          "durationTicks": 48,
          "midi": 68,
          "name": "G#4",
          "ticks": 3792,
          "time": 29.625,
          "velocity": 0.7401574803149606
        },
        {
          "duration": 0.09375,
          "durationTicks": 12,
          "midi": 56,
          "name": "G#3",
          "ticks": 3792,
          "time": 29.625,
          "velocity": 0.7401574803149606
        },
        {
          "duration": 0.375,
          "durationTicks": 48,
          "midi": 71,
          "name": "B4",
          "ticks": 3792,
          "time": 29.625,
          "velocity": 0.7401574803149606
        },
        {
          "duration": 0.09375,
          "durationTicks": 12,
          "midi": 44,
          "name": "G#2",
          "ticks": 3792,
          "time": 29.625,
          "velocity": 0.7401574803149606
        },
        {
          "duration": 0.09375,
          "durationTicks": 12,
          "midi": 56,
          "name": "G#3",
          "ticks": 3840,
          "time": 30,
          "velocity": 0.6929133858267716
        },
        {
          "duration": 0.09375,
          "durationTicks": 12,
          "midi": 71,
          "name": "B4",
          "ticks": 3840,
          "time": 30,
          "velocity": 0.6929133858267716
        },
        {
          "duration": 0.09375,
          "durationTicks": 12,
          "midi": 75,
          "name": "D#5",
          "ticks": 3840,
          "time": 30,
          "velocity": 0.6929133858267716
        },
        {
          "duration": 0.09375,
          "durationTicks": 12,
          "midi": 44,
          "name": "G#2",
          "ticks": 3840,
          "time": 30,
          "velocity": 0.6929133858267716
        },
        {
          "duration": 0.09375,
          "durationTicks": 12,
          "midi": 75,
          "name": "D#5",
          "ticks": 3936,
          "time": 30.75,
          "velocity": 0.6929133858267716
        },
        {
          "duration": 0.09375,
          "durationTicks": 12,
          "midi": 68,
          "name": "G#4",
          "ticks": 3936,
          "time": 30.75,
          "velocity": 0.6929133858267716
        },
        {
          "duration": 0.09375,
          "durationTicks": 12,
          "midi": 71,
          "name": "B4",
          "ticks": 3936,
          "time": 30.75,
          "velocity": 0.6929133858267716
        },
        {
          "duration": 0.09375,
          "durationTicks": 12,
          "midi": 56,
          "name": "G#3",
          "ticks": 3936,
          "time": 30.75,
          "velocity": 0.6929133858267716
        },
        {
          "duration": 0.09375,
          "durationTicks": 12,
          "midi": 44,
          "name": "G#2",
          "ticks": 3936,
          "time": 30.75,
          "velocity": 0.6929133858267716
        },
        {
          "duration": 0.375,
          "durationTicks": 48,
          "midi": 71,
          "name": "B4",
          "ticks": 4032,
          "time": 31.5,
          "velocity": 0.6929133858267716
        },
        {
          "duration": 0.375,
          "durationTicks": 48,
          "midi": 68,
          "name": "G#4",
          "ticks": 4032,
          "time": 31.5,
          "velocity": 0.6929133858267716
        },
        {
          "duration": 0.09375,
          "durationTicks": 12,
          "midi": 56,
          "name": "G#3",
          "ticks": 4032,
          "time": 31.5,
          "velocity": 0.6929133858267716
        },
        {
          "duration": 0.375,
          "durationTicks": 48,
          "midi": 75,
          "name": "D#5",
          "ticks": 4032,
          "time": 31.5,
          "velocity": 0.6929133858267716
        },
        {
          "duration": 0.09375,
          "durationTicks": 12,
          "midi": 44,
          "name": "G#2",
          "ticks": 4032,
          "time": 31.5,
          "velocity": 0.6929133858267716
        },
        {
          "duration": 0.09375,
          "durationTicks": 12,
          "midi": 56,
          "name": "G#3",
          "ticks": 4128,
          "time": 32.25,
          "velocity": 0.7007874015748031
        },
        {
          "duration": 0.09375,
          "durationTicks": 12,
          "midi": 71,
          "name": "B4",
          "ticks": 4128,
          "time": 32.25,
          "velocity": 0.7007874015748031
        },
        {
          "duration": 0.09375,
          "durationTicks": 12,
          "midi": 75,
          "name": "D#5",
          "ticks": 4128,
          "time": 32.25,
          "velocity": 0.7007874015748031
        },
        {
          "duration": 0.65625,
          "durationTicks": 84,
          "midi": 31,
          "name": "G1",
          "ticks": 4128,
          "time": 32.25,
          "velocity": 0.8976377952755905
        },
        {
          "duration": 0.09375,
          "durationTicks": 12,
          "midi": 44,
          "name": "G#2",
          "ticks": 4128,
          "time": 32.25,
          "velocity": 0.7007874015748031
        },
        {
          "duration": 0.09375,
          "durationTicks": 12,
          "midi": 56,
          "name": "G#3",
          "ticks": 4176,
          "time": 32.625,
          "velocity": 0.7086614173228346
        },
        {
          "duration": 0.375,
          "durationTicks": 48,
          "midi": 71,
          "name": "B4",
          "ticks": 4176,
          "time": 32.625,
          "velocity": 0.7086614173228346
        },
        {
          "duration": 0.375,
          "durationTicks": 48,
          "midi": 68,
          "name": "G#4",
          "ticks": 4176,
          "time": 32.625,
          "velocity": 0.7086614173228346
        },
        {
          "duration": 0.375,
          "durationTicks": 48,
          "midi": 75,
          "name": "D#5",
          "ticks": 4176,
          "time": 32.625,
          "velocity": 0.7086614173228346
        },
        {
          "duration": 0.09375,
          "durationTicks": 12,
          "midi": 44,
          "name": "G#2",
          "ticks": 4176,
          "time": 32.625,
          "velocity": 0.7086614173228346
        },
        {
          "duration": 0.09375,
          "durationTicks": 12,
          "midi": 28,
          "name": "E1",
          "ticks": 4224,
          "time": 33,
          "velocity": 0.889763779527559
        },
        {
          "duration": 0.09375,
          "durationTicks": 12,
          "midi": 75,
          "name": "D#5",
          "ticks": 4224,
          "time": 33,
          "velocity": 0.7165354330708661
        },
        {
          "duration": 0.09375,
          "durationTicks": 12,
          "midi": 51,
          "name": "D#3",
          "ticks": 4224,
          "time": 33,
          "velocity": 0.7165354330708661
        },
        {
          "duration": 0.09375,
          "durationTicks": 12,
          "midi": 70,
          "name": "A#4",
          "ticks": 4224,
          "time": 33,
          "velocity": 0.7165354330708661
        },
        {
          "duration": 0.09375,
          "durationTicks": 12,
          "midi": 67,
          "name": "G4",
          "ticks": 4224,
          "time": 33,
          "velocity": 0.7165354330708661
        },
        {
          "duration": 0.09375,
          "durationTicks": 12,
          "midi": 39,
          "name": "D#2",
          "ticks": 4224,
          "time": 33,
          "velocity": 0.7165354330708661
        },
        {
          "duration": 0.375,
          "durationTicks": 48,
          "midi": 67,
          "name": "G4",
          "ticks": 4320,
          "time": 33.75,
          "velocity": 0.7244094488188977
        },
        {
          "duration": 0.375,
          "durationTicks": 48,
          "midi": 70,
          "name": "A#4",
          "ticks": 4320,
          "time": 33.75,
          "velocity": 0.7244094488188977
        },
        {
          "duration": 0.09375,
          "durationTicks": 12,
          "midi": 51,
          "name": "D#3",
          "ticks": 4320,
          "time": 33.75,
          "velocity": 0.7244094488188977
        },
        {
          "duration": 0.375,
          "durationTicks": 48,
          "midi": 75,
          "name": "D#5",
          "ticks": 4320,
          "time": 33.75,
          "velocity": 0.7244094488188977
        },
        {
          "duration": 0.09375,
          "durationTicks": 12,
          "midi": 39,
          "name": "D#2",
          "ticks": 4320,
          "time": 33.75,
          "velocity": 0.7244094488188977
        },
        {
          "duration": 0.09375,
          "durationTicks": 12,
          "midi": 67,
          "name": "G4",
          "ticks": 4416,
          "time": 34.5,
          "velocity": 0.7401574803149606
        },
        {
          "duration": 0.09375,
          "durationTicks": 12,
          "midi": 70,
          "name": "A#4",
          "ticks": 4416,
          "time": 34.5,
          "velocity": 0.7401574803149606
        },
        {
          "duration": 0.09375,
          "durationTicks": 12,
          "midi": 51,
          "name": "D#3",
          "ticks": 4416,
          "time": 34.5,
          "velocity": 0.7401574803149606
        },
        {
          "duration": 0.09375,
          "durationTicks": 12,
          "midi": 75,
          "name": "D#5",
          "ticks": 4416,
          "time": 34.5,
          "velocity": 0.7401574803149606
        },
        {
          "duration": 0.09375,
          "durationTicks": 12,
          "midi": 39,
          "name": "D#2",
          "ticks": 4416,
          "time": 34.5,
          "velocity": 0.7401574803149606
        },
        {
          "duration": 0.09375,
          "durationTicks": 12,
          "midi": 67,
          "name": "G4",
          "ticks": 4512,
          "time": 35.25,
          "velocity": 0.7401574803149606
        },
        {
          "duration": 0.09375,
          "durationTicks": 12,
          "midi": 70,
          "name": "A#4",
          "ticks": 4512,
          "time": 35.25,
          "velocity": 0.7401574803149606
        },
        {
          "duration": 0.09375,
          "durationTicks": 12,
          "midi": 51,
          "name": "D#3",
          "ticks": 4512,
          "time": 35.25,
          "velocity": 0.7401574803149606
        },
        {
          "duration": 0.09375,
          "durationTicks": 12,
          "midi": 75,
          "name": "D#5",
          "ticks": 4512,
          "time": 35.25,
          "velocity": 0.7401574803149606
        },
        {
          "duration": 0.09375,
          "durationTicks": 12,
          "midi": 39,
          "name": "D#2",
          "ticks": 4512,
          "time": 35.25,
          "velocity": 0.7401574803149606
        },
        {
          "duration": 0.375,
          "durationTicks": 48,
          "midi": 67,
          "name": "G4",
          "ticks": 4560,
          "time": 35.625,
          "velocity": 0.7401574803149606
        },
        {
          "duration": 0.375,
          "durationTicks": 48,
          "midi": 70,
          "name": "A#4",
          "ticks": 4560,
          "time": 35.625,
          "velocity": 0.7401574803149606
        },
        {
          "duration": 0.09375,
          "durationTicks": 12,
          "midi": 51,
          "name": "D#3",
          "ticks": 4560,
          "time": 35.625,
          "velocity": 0.7401574803149606
        },
        {
          "duration": 0.375,
          "durationTicks": 48,
          "midi": 75,
          "name": "D#5",
          "ticks": 4560,
          "time": 35.625,
          "velocity": 0.7401574803149606
        },
        {
          "duration": 0.09375,
          "durationTicks": 12,
          "midi": 39,
          "name": "D#2",
          "ticks": 4560,
          "time": 35.625,
          "velocity": 0.7401574803149606
        },
        {
          "duration": 0.09375,
          "durationTicks": 12,
          "midi": 75,
          "name": "D#5",
          "ticks": 4608,
          "time": 36,
          "velocity": 0.7322834645669292
        },
        {
          "duration": 0.09375,
          "durationTicks": 12,
          "midi": 51,
          "name": "D#3",
          "ticks": 4608,
          "time": 36,
          "velocity": 0.7322834645669292
        },
        {
          "duration": 0.09375,
          "durationTicks": 12,
          "midi": 70,
          "name": "A#4",
          "ticks": 4608,
          "time": 36,
          "velocity": 0.7322834645669292
        },
        {
          "duration": 0.09375,
          "durationTicks": 12,
          "midi": 67,
          "name": "G4",
          "ticks": 4608,
          "time": 36,
          "velocity": 0.7322834645669292
        },
        {
          "duration": 0.09375,
          "durationTicks": 12,
          "midi": 39,
          "name": "D#2",
          "ticks": 4608,
          "time": 36,
          "velocity": 0.7322834645669292
        },
        {
          "duration": 0.09375,
          "durationTicks": 12,
          "midi": 70,
          "name": "A#4",
          "ticks": 4704,
          "time": 36.75,
          "velocity": 0.7637795275590551
        },
        {
          "duration": 0.09375,
          "durationTicks": 12,
          "midi": 67,
          "name": "G4",
          "ticks": 4704,
          "time": 36.75,
          "velocity": 0.7637795275590551
        },
        {
          "duration": 0.09375,
          "durationTicks": 12,
          "midi": 51,
          "name": "D#3",
          "ticks": 4704,
          "time": 36.75,
          "velocity": 0.7637795275590551
        },
        {
          "duration": 0.09375,
          "durationTicks": 12,
          "midi": 75,
          "name": "D#5",
          "ticks": 4704,
          "time": 36.75,
          "velocity": 0.7637795275590551
        },
        {
          "duration": 0.09375,
          "durationTicks": 12,
          "midi": 39,
          "name": "D#2",
          "ticks": 4704,
          "time": 36.75,
          "velocity": 0.7637795275590551
        },
        {
          "duration": 0.09375,
          "durationTicks": 12,
          "midi": 75,
          "name": "D#5",
          "ticks": 4752,
          "time": 37.125,
          "velocity": 0.7716535433070866
        },
        {
          "duration": 0.09375,
          "durationTicks": 12,
          "midi": 51,
          "name": "D#3",
          "ticks": 4752,
          "time": 37.125,
          "velocity": 0.7716535433070866
        },
        {
          "duration": 0.09375,
          "durationTicks": 12,
          "midi": 70,
          "name": "A#4",
          "ticks": 4752,
          "time": 37.125,
          "velocity": 0.7716535433070866
        },
        {
          "duration": 0.09375,
          "durationTicks": 12,
          "midi": 67,
          "name": "G4",
          "ticks": 4752,
          "time": 37.125,
          "velocity": 0.7716535433070866
        },
        {
          "duration": 0.09375,
          "durationTicks": 12,
          "midi": 39,
          "name": "D#2",
          "ticks": 4752,
          "time": 37.125,
          "velocity": 0.7716535433070866
        },
        {
          "duration": 0.375,
          "durationTicks": 48,
          "midi": 75,
          "name": "D#5",
          "ticks": 4800,
          "time": 37.5,
          "velocity": 0.7716535433070866
        },
        {
          "duration": 0.09375,
          "durationTicks": 12,
          "midi": 51,
          "name": "D#3",
          "ticks": 4800,
          "time": 37.5,
          "velocity": 0.7716535433070866
        },
        {
          "duration": 0.375,
          "durationTicks": 48,
          "midi": 70,
          "name": "A#4",
          "ticks": 4800,
          "time": 37.5,
          "velocity": 0.7716535433070866
        },
        {
          "duration": 0.09375,
          "durationTicks": 12,
          "midi": 39,
          "name": "D#2",
          "ticks": 4800,
          "time": 37.5,
          "velocity": 0.7716535433070866
        },
        {
          "duration": 0.09375,
          "durationTicks": 12,
          "midi": 75,
          "name": "D#5",
          "ticks": 4896,
          "time": 38.25,
          "velocity": 0.7716535433070866
        },
        {
          "duration": 0.09375,
          "durationTicks": 12,
          "midi": 51,
          "name": "D#3",
          "ticks": 4896,
          "time": 38.25,
          "velocity": 0.7716535433070866
        },
        {
          "duration": 0.09375,
          "durationTicks": 12,
          "midi": 70,
          "name": "A#4",
          "ticks": 4896,
          "time": 38.25,
          "velocity": 0.7716535433070866
        },
        {
          "duration": 0.09375,
          "durationTicks": 12,
          "midi": 67,
          "name": "G4",
          "ticks": 4896,
          "time": 38.25,
          "velocity": 0.7716535433070866
        },
        {
          "duration": 0.09375,
          "durationTicks": 12,
          "midi": 39,
          "name": "D#2",
          "ticks": 4896,
          "time": 38.25,
          "velocity": 0.7716535433070866
        },
        {
          "duration": 0.375,
          "durationTicks": 48,
          "midi": 75,
          "name": "D#5",
          "ticks": 4944,
          "time": 38.625,
          "velocity": 0.7716535433070866
        },
        {
          "duration": 0.09375,
          "durationTicks": 12,
          "midi": 51,
          "name": "D#3",
          "ticks": 4944,
          "time": 38.625,
          "velocity": 0.7716535433070866
        },
        {
          "duration": 0.375,
          "durationTicks": 48,
          "midi": 70,
          "name": "A#4",
          "ticks": 4944,
          "time": 38.625,
          "velocity": 0.7716535433070866
        },
        {
          "duration": 0.375,
          "durationTicks": 48,
          "midi": 67,
          "name": "G4",
          "ticks": 4944,
          "time": 38.625,
          "velocity": 0.7716535433070866
        },
        {
          "duration": 0.09375,
          "durationTicks": 12,
          "midi": 39,
          "name": "D#2",
          "ticks": 4944,
          "time": 38.625,
          "velocity": 0.7716535433070866
        },
        {
          "duration": 0.09375,
          "durationTicks": 12,
          "midi": 70,
          "name": "A#4",
          "ticks": 4992,
          "time": 39,
          "velocity": 0.7795275590551181
        },
        {
          "duration": 0.09375,
          "durationTicks": 12,
          "midi": 73,
          "name": "C#5",
          "ticks": 4992,
          "time": 39,
          "velocity": 0.7795275590551181
        },
        {
          "duration": 0.09375,
          "durationTicks": 12,
          "midi": 46,
          "name": "A#2",
          "ticks": 4992,
          "time": 39,
          "velocity": 0.7795275590551181
        },
        {
          "duration": 0.09375,
          "durationTicks": 12,
          "midi": 58,
          "name": "A#3",
          "ticks": 4992,
          "time": 39,
          "velocity": 0.7795275590551181
        },
        {
          "duration": 0.09375,
          "durationTicks": 12,
          "midi": 65,
          "name": "F4",
          "ticks": 4992,
          "time": 39,
          "velocity": 0.7795275590551181
        },
        {
          "duration": 0.09375,
          "durationTicks": 12,
          "midi": 65,
          "name": "F4",
          "ticks": 5088,
          "time": 39.75,
          "velocity": 0.7795275590551181
        },
        {
          "duration": 0.09375,
          "durationTicks": 12,
          "midi": 58,
          "name": "A#3",
          "ticks": 5088,
          "time": 39.75,
          "velocity": 0.7795275590551181
        },
        {
          "duration": 0.09375,
          "durationTicks": 12,
          "midi": 46,
          "name": "A#2",
          "ticks": 5088,
          "time": 39.75,
          "velocity": 0.7795275590551181
        },
        {
          "duration": 0.09375,
          "durationTicks": 12,
          "midi": 70,
          "name": "A#4",
          "ticks": 5088,
          "time": 39.75,
          "velocity": 0.7795275590551181
        },
        {
          "duration": 0.09375,
          "durationTicks": 12,
          "midi": 73,
          "name": "C#5",
          "ticks": 5088,
          "time": 39.75,
          "velocity": 0.7795275590551181
        },
        {
          "duration": 0.09375,
          "durationTicks": 12,
          "midi": 46,
          "name": "A#2",
          "ticks": 5184,
          "time": 40.5,
          "velocity": 0.7795275590551181
        },
        {
          "duration": 0.375,
          "durationTicks": 48,
          "midi": 70,
          "name": "A#4",
          "ticks": 5184,
          "time": 40.5,
          "velocity": 0.7795275590551181
        },
        {
          "duration": 0.375,
          "durationTicks": 48,
          "midi": 73,
          "name": "C#5",
          "ticks": 5184,
          "time": 40.5,
          "velocity": 0.7795275590551181
        },
        {
          "duration": 0.09375,
          "durationTicks": 12,
          "midi": 58,
          "name": "A#3",
          "ticks": 5184,
          "time": 40.5,
          "velocity": 0.7795275590551181
        },
        {
          "duration": 0.375,
          "durationTicks": 48,
          "midi": 65,
          "name": "F4",
          "ticks": 5184,
          "time": 40.5,
          "velocity": 0.7795275590551181
        },
        {
          "duration": 0.09375,
          "durationTicks": 12,
          "midi": 65,
          "name": "F4",
          "ticks": 5280,
          "time": 41.25,
          "velocity": 0.7874015748031497
        },
        {
          "duration": 0.09375,
          "durationTicks": 12,
          "midi": 58,
          "name": "A#3",
          "ticks": 5280,
          "time": 41.25,
          "velocity": 0.7874015748031497
        },
        {
          "duration": 0.09375,
          "durationTicks": 12,
          "midi": 73,
          "name": "C#5",
          "ticks": 5280,
          "time": 41.25,
          "velocity": 0.7874015748031497
        },
        {
          "duration": 0.09375,
          "durationTicks": 12,
          "midi": 70,
          "name": "A#4",
          "ticks": 5280,
          "time": 41.25,
          "velocity": 0.7874015748031497
        },
        {
          "duration": 0.09375,
          "durationTicks": 12,
          "midi": 46,
          "name": "A#2",
          "ticks": 5280,
          "time": 41.25,
          "velocity": 0.7874015748031497
        },
        {
          "duration": 0.375,
          "durationTicks": 48,
          "midi": 61,
          "name": "C#4",
          "ticks": 5328,
          "time": 41.625,
          "velocity": 0.7952755905511811
        },
        {
          "duration": 0.09375,
          "durationTicks": 12,
          "midi": 58,
          "name": "A#3",
          "ticks": 5328,
          "time": 41.625,
          "velocity": 0.7952755905511811
        },
        {
          "duration": 0.375,
          "durationTicks": 48,
          "midi": 70,
          "name": "A#4",
          "ticks": 5328,
          "time": 41.625,
          "velocity": 0.7952755905511811
        },
        {
          "duration": 0.375,
          "durationTicks": 48,
          "midi": 65,
          "name": "F4",
          "ticks": 5328,
          "time": 41.625,
          "velocity": 0.7952755905511811
        },
        {
          "duration": 0.09375,
          "durationTicks": 12,
          "midi": 46,
          "name": "A#2",
          "ticks": 5328,
          "time": 41.625,
          "velocity": 0.7952755905511811
        },
        {
          "duration": 0.09375,
          "durationTicks": 12,
          "midi": 42,
          "name": "F#2",
          "ticks": 5376,
          "time": 42,
          "velocity": 0.7952755905511811
        },
        {
          "duration": 0.09375,
          "durationTicks": 12,
          "midi": 66,
          "name": "F#4",
          "ticks": 5376,
          "time": 42,
          "velocity": 0.7952755905511811
        },
        {
          "duration": 0.09375,
          "durationTicks": 12,
          "midi": 69,
          "name": "A4",
          "ticks": 5376,
          "time": 42,
          "velocity": 0.7952755905511811
        },
        {
          "duration": 0.09375,
          "durationTicks": 12,
          "midi": 73,
          "name": "C#5",
          "ticks": 5376,
          "time": 42,
          "velocity": 0.7952755905511811
        },
        {
          "duration": 0.09375,
          "durationTicks": 12,
          "midi": 54,
          "name": "F#3",
          "ticks": 5376,
          "time": 42,
          "velocity": 0.7952755905511811
        },
        {
          "duration": 0.09375,
          "durationTicks": 12,
          "midi": 73,
          "name": "C#5",
          "ticks": 5472,
          "time": 42.75,
          "velocity": 0.7952755905511811
        },
        {
          "duration": 0.09375,
          "durationTicks": 12,
          "midi": 69,
          "name": "A4",
          "ticks": 5472,
          "time": 42.75,
          "velocity": 0.7952755905511811
        },
        {
          "duration": 0.09375,
          "durationTicks": 12,
          "midi": 66,
          "name": "F#4",
          "ticks": 5472,
          "time": 42.75,
          "velocity": 0.7952755905511811
        },
        {
          "duration": 0.09375,
          "durationTicks": 12,
          "midi": 42,
          "name": "F#2",
          "ticks": 5472,
          "time": 42.75,
          "velocity": 0.7952755905511811
        },
        {
          "duration": 0.09375,
          "durationTicks": 12,
          "midi": 54,
          "name": "F#3",
          "ticks": 5472,
          "time": 42.75,
          "velocity": 0.7952755905511811
        },
        {
          "duration": 0.09375,
          "durationTicks": 12,
          "midi": 42,
          "name": "F#2",
          "ticks": 5568,
          "time": 43.5,
          "velocity": 0.7952755905511811
        },
        {
          "duration": 0.09375,
          "durationTicks": 12,
          "midi": 54,
          "name": "F#3",
          "ticks": 5568,
          "time": 43.5,
          "velocity": 0.7952755905511811
        },
        {
          "duration": 0.375,
          "durationTicks": 48,
          "midi": 66,
          "name": "F#4",
          "ticks": 5568,
          "time": 43.5,
          "velocity": 0.7952755905511811
        },
        {
          "duration": 0.375,
          "durationTicks": 48,
          "midi": 73,
          "name": "C#5",
          "ticks": 5568,
          "time": 43.5,
          "velocity": 0.7952755905511811
        },
        {
          "duration": 0.375,
          "durationTicks": 48,
          "midi": 69,
          "name": "A4",
          "ticks": 5568,
          "time": 43.5,
          "velocity": 0.7952755905511811
        },
        {
          "duration": 0.09375,
          "durationTicks": 12,
          "midi": 42,
          "name": "F#2",
          "ticks": 5664,
          "time": 44.25,
          "velocity": 0.7874015748031497
        },
        {
          "duration": 0.09375,
          "durationTicks": 12,
          "midi": 54,
          "name": "F#3",
          "ticks": 5664,
          "time": 44.25,
          "velocity": 0.7874015748031497
        },
        {
          "duration": 0.09375,
          "durationTicks": 12,
          "midi": 66,
          "name": "F#4",
          "ticks": 5664,
          "time": 44.25,
          "velocity": 0.7874015748031497
        },
        {
          "duration": 0.09375,
          "durationTicks": 12,
          "midi": 73,
          "name": "C#5",
          "ticks": 5664,
          "time": 44.25,
          "velocity": 0.7874015748031497
        },
        {
          "duration": 0.09375,
          "durationTicks": 12,
          "midi": 69,
          "name": "A4",
          "ticks": 5664,
          "time": 44.25,
          "velocity": 0.7874015748031497
        },
        {
          "duration": 0.375,
          "durationTicks": 48,
          "midi": 69,
          "name": "A4",
          "ticks": 5712,
          "time": 44.625,
          "velocity": 0.7874015748031497
        },
        {
          "duration": 0.375,
          "durationTicks": 48,
          "midi": 61,
          "name": "C#4",
          "ticks": 5712,
          "time": 44.625,
          "velocity": 0.7874015748031497
        },
        {
          "duration": 0.375,
          "durationTicks": 48,
          "midi": 66,
          "name": "F#4",
          "ticks": 5712,
          "time": 44.625,
          "velocity": 0.7874015748031497
        },
        {
          "duration": 0.09375,
          "durationTicks": 12,
          "midi": 54,
          "name": "F#3",
          "ticks": 5712,
          "time": 44.625,
          "velocity": 0.7874015748031497
        },
        {
          "duration": 0.09375,
          "durationTicks": 12,
          "midi": 42,
          "name": "F#2",
          "ticks": 5712,
          "time": 44.625,
          "velocity": 0.7874015748031497
        },
        {
          "duration": 0.09375,
          "durationTicks": 12,
          "midi": 50,
          "name": "D3",
          "ticks": 5760,
          "time": 45,
          "velocity": 0.7874015748031497
        },
        {
          "duration": 0.09375,
          "durationTicks": 12,
          "midi": 69,
          "name": "A4",
          "ticks": 5760,
          "time": 45,
          "velocity": 0.7874015748031497
        },
        {
          "duration": 0.09375,
          "durationTicks": 12,
          "midi": 65,
          "name": "F4",
          "ticks": 5760,
          "time": 45,
          "velocity": 0.7874015748031497
        },
        {
          "duration": 0.09375,
          "durationTicks": 12,
          "midi": 62,
          "name": "D4",
          "ticks": 5760,
          "time": 45,
          "velocity": 0.7874015748031497
        },
        {
          "duration": 0.09375,
          "durationTicks": 12,
          "midi": 38,
          "name": "D2",
          "ticks": 5760,
          "time": 45,
          "velocity": 0.7874015748031497
        },
        {
          "duration": 0.09375,
          "durationTicks": 12,
          "midi": 50,
          "name": "D3",
          "ticks": 5856,
          "time": 45.75,
          "velocity": 0.7716535433070866
        },
        {
          "duration": 0.09375,
          "durationTicks": 12,
          "midi": 38,
          "name": "D2",
          "ticks": 5856,
          "time": 45.75,
          "velocity": 0.7716535433070866
        },
        {
          "duration": 0.09375,
          "durationTicks": 12,
          "midi": 62,
          "name": "D4",
          "ticks": 5856,
          "time": 45.75,
          "velocity": 0.7716535433070866
        },
        {
          "duration": 0.09375,
          "durationTicks": 12,
          "midi": 65,
          "name": "F4",
          "ticks": 5856,
          "time": 45.75,
          "velocity": 0.7716535433070866
        },
        {
          "duration": 0.09375,
          "durationTicks": 12,
          "midi": 69,
          "name": "A4",
          "ticks": 5856,
          "time": 45.75,
          "velocity": 0.7716535433070866
        },
        {
          "duration": 0.09375,
          "durationTicks": 12,
          "midi": 38,
          "name": "D2",
          "ticks": 5952,
          "time": 46.5,
          "velocity": 0.7716535433070866
        },
        {
          "duration": 0.09375,
          "durationTicks": 12,
          "midi": 50,
          "name": "D3",
          "ticks": 5952,
          "time": 46.5,
          "velocity": 0.7716535433070866
        },
        {
          "duration": 0.375,
          "durationTicks": 48,
          "midi": 62,
          "name": "D4",
          "ticks": 5952,
          "time": 46.5,
          "velocity": 0.7716535433070866
        },
        {
          "duration": 0.375,
          "durationTicks": 48,
          "midi": 69,
          "name": "A4",
          "ticks": 5952,
          "time": 46.5,
          "velocity": 0.7716535433070866
        },
        {
          "duration": 0.375,
          "durationTicks": 48,
          "midi": 65,
          "name": "F4",
          "ticks": 5952,
          "time": 46.5,
          "velocity": 0.7716535433070866
        },
        {
          "duration": 0.09375,
          "durationTicks": 12,
          "midi": 65,
          "name": "F4",
          "ticks": 6048,
          "time": 47.25,
          "velocity": 0.7716535433070866
        },
        {
          "duration": 0.09375,
          "durationTicks": 12,
          "midi": 69,
          "name": "A4",
          "ticks": 6048,
          "time": 47.25,
          "velocity": 0.7716535433070866
        },
        {
          "duration": 0.09375,
          "durationTicks": 12,
          "midi": 62,
          "name": "D4",
          "ticks": 6048,
          "time": 47.25,
          "velocity": 0.7716535433070866
        },
        {
          "duration": 0.09375,
          "durationTicks": 12,
          "midi": 50,
          "name": "D3",
          "ticks": 6048,
          "time": 47.25,
          "velocity": 0.7716535433070866
        },
        {
          "duration": 0.09375,
          "durationTicks": 12,
          "midi": 38,
          "name": "D2",
          "ticks": 6048,
          "time": 47.25,
          "velocity": 0.7716535433070866
        },
        {
          "duration": 0.09375,
          "durationTicks": 12,
          "midi": 38,
          "name": "D2",
          "ticks": 6096,
          "time": 47.625,
          "velocity": 0.7716535433070866
        },
        {
          "duration": 0.09375,
          "durationTicks": 12,
          "midi": 50,
          "name": "D3",
          "ticks": 6096,
          "time": 47.625,
          "velocity": 0.7716535433070866
        },
        {
          "duration": 0.375,
          "durationTicks": 48,
          "midi": 62,
          "name": "D4",
          "ticks": 6096,
          "time": 47.625,
          "velocity": 0.7716535433070866
        },
        {
          "duration": 0.375,
          "durationTicks": 48,
          "midi": 57,
          "name": "A3",
          "ticks": 6096,
          "time": 47.625,
          "velocity": 0.7716535433070866
        },
        {
          "duration": 0.375,
          "durationTicks": 48,
          "midi": 65,
          "name": "F4",
          "ticks": 6096,
          "time": 47.625,
          "velocity": 0.7716535433070866
        },
        {
          "duration": 0.09375,
          "durationTicks": 12,
          "midi": 35,
          "name": "B1",
          "ticks": 6144,
          "time": 48,
          "velocity": 0.7716535433070866
        },
        {
          "duration": 0.09375,
          "durationTicks": 12,
          "midi": 63,
          "name": "D#4",
          "ticks": 6144,
          "time": 48,
          "velocity": 0.7716535433070866
        },
        {
          "duration": 0.09375,
          "durationTicks": 12,
          "midi": 66,
          "name": "F#4",
          "ticks": 6144,
          "time": 48,
          "velocity": 0.7716535433070866
        },
        {
          "duration": 0.09375,
          "durationTicks": 12,
          "midi": 47,
          "name": "B2",
          "ticks": 6144,
          "time": 48,
          "velocity": 0.7716535433070866
        },
        {
          "duration": 0.09375,
          "durationTicks": 12,
          "midi": 59,
          "name": "B3",
          "ticks": 6144,
          "time": 48,
          "velocity": 0.7716535433070866
        },
        {
          "duration": 0.09375,
          "durationTicks": 12,
          "midi": 47,
          "name": "B2",
          "ticks": 6240,
          "time": 48.75,
          "velocity": 0.7716535433070866
        },
        {
          "duration": 0.09375,
          "durationTicks": 12,
          "midi": 35,
          "name": "B1",
          "ticks": 6240,
          "time": 48.75,
          "velocity": 0.7716535433070866
        },
        {
          "duration": 0.09375,
          "durationTicks": 12,
          "midi": 59,
          "name": "B3",
          "ticks": 6240,
          "time": 48.75,
          "velocity": 0.7716535433070866
        },
        {
          "duration": 0.09375,
          "durationTicks": 12,
          "midi": 63,
          "name": "D#4",
          "ticks": 6240,
          "time": 48.75,
          "velocity": 0.7716535433070866
        },
        {
          "duration": 0.09375,
          "durationTicks": 12,
          "midi": 66,
          "name": "F#4",
          "ticks": 6240,
          "time": 48.75,
          "velocity": 0.7716535433070866
        },
        {
          "duration": 0.375,
          "durationTicks": 48,
          "midi": 63,
          "name": "D#4",
          "ticks": 6336,
          "time": 49.5,
          "velocity": 0.7716535433070866
        },
        {
          "duration": 0.375,
          "durationTicks": 48,
          "midi": 66,
          "name": "F#4",
          "ticks": 6336,
          "time": 49.5,
          "velocity": 0.7716535433070866
        },
        {
          "duration": 0.375,
          "durationTicks": 48,
          "midi": 59,
          "name": "B3",
          "ticks": 6336,
          "time": 49.5,
          "velocity": 0.7716535433070866
        },
        {
          "duration": 0.09375,
          "durationTicks": 12,
          "midi": 47,
          "name": "B2",
          "ticks": 6336,
          "time": 49.5,
          "velocity": 0.7716535433070866
        },
        {
          "duration": 0.09375,
          "durationTicks": 12,
          "midi": 35,
          "name": "B1",
          "ticks": 6336,
          "time": 49.5,
          "velocity": 0.7716535433070866
        },
        {
          "duration": 0.09375,
          "durationTicks": 12,
          "midi": 35,
          "name": "B1",
          "ticks": 6432,
          "time": 50.25,
          "velocity": 0.7716535433070866
        },
        {
          "duration": 0.09375,
          "durationTicks": 12,
          "midi": 47,
          "name": "B2",
          "ticks": 6432,
          "time": 50.25,
          "velocity": 0.7716535433070866
        },
        {
          "duration": 0.09375,
          "durationTicks": 12,
          "midi": 59,
          "name": "B3",
          "ticks": 6432,
          "time": 50.25,
          "velocity": 0.7716535433070866
        },
        {
          "duration": 0.09375,
          "durationTicks": 12,
          "midi": 66,
          "name": "F#4",
          "ticks": 6432,
          "time": 50.25,
          "velocity": 0.7716535433070866
        },
        {
          "duration": 0.09375,
          "durationTicks": 12,
          "midi": 63,
          "name": "D#4",
          "ticks": 6432,
          "time": 50.25,
          "velocity": 0.7716535433070866
        },
        {
          "duration": 0.09375,
          "durationTicks": 12,
          "midi": 35,
          "name": "B1",
          "ticks": 6480,
          "time": 50.625,
          "velocity": 0.7716535433070866
        },
        {
          "duration": 0.09375,
          "durationTicks": 12,
          "midi": 47,
          "name": "B2",
          "ticks": 6480,
          "time": 50.625,
          "velocity": 0.7716535433070866
        },
        {
          "duration": 0.375,
          "durationTicks": 48,
          "midi": 59,
          "name": "B3",
          "ticks": 6480,
          "time": 50.625,
          "velocity": 0.7716535433070866
        },
        {
          "duration": 0.375,
          "durationTicks": 48,
          "midi": 54,
          "name": "F#3",
          "ticks": 6480,
          "time": 50.625,
          "velocity": 0.7716535433070866
        },
        {
          "duration": 0.375,
          "durationTicks": 48,
          "midi": 63,
          "name": "D#4",
          "ticks": 6480,
          "time": 50.625,
          "velocity": 0.7716535433070866
        },
        {
          "duration": 0.1875,
          "durationTicks": 24,
          "midi": 68,
          "name": "G#4",
          "ticks": 6528,
          "time": 51,
          "velocity": 0.7716535433070866
        },
        {
          "duration": 0.1875,
          "durationTicks": 24,
          "midi": 75,
          "name": "D#5",
          "ticks": 6528,
          "time": 51,
          "velocity": 0.7716535433070866
        },
        {
          "duration": 0.1875,
          "durationTicks": 24,
          "midi": 75,
          "name": "D#5",
          "ticks": 6624,
          "time": 51.75,
          "velocity": 0.7716535433070866
        },
        {
          "duration": 0.1875,
          "durationTicks": 24,
          "midi": 68,
          "name": "G#4",
          "ticks": 6624,
          "time": 51.75,
          "velocity": 0.7716535433070866
        },
        {
          "duration": 0.1875,
          "durationTicks": 24,
          "midi": 75,
          "name": "D#5",
          "ticks": 6720,
          "time": 52.5,
          "velocity": 0.7716535433070866
        },
        {
          "duration": 0.1875,
          "durationTicks": 24,
          "midi": 68,
          "name": "G#4",
          "ticks": 6720,
          "time": 52.5,
          "velocity": 0.7716535433070866
        },
        {
          "duration": 0.1875,
          "durationTicks": 24,
          "midi": 68,
          "name": "G#4",
          "ticks": 6816,
          "time": 53.25,
          "velocity": 0.7716535433070866
        },
        {
          "duration": 0.1875,
          "durationTicks": 24,
          "midi": 75,
          "name": "D#5",
          "ticks": 6816,
          "time": 53.25,
          "velocity": 0.7716535433070866
        },
        {
          "duration": 0.1875,
          "durationTicks": 24,
          "midi": 68,
          "name": "G#4",
          "ticks": 6912,
          "time": 54,
          "velocity": 0.7716535433070866
        },
        {
          "duration": 0.1875,
          "durationTicks": 24,
          "midi": 75,
          "name": "D#5",
          "ticks": 6912,
          "time": 54,
          "velocity": 0.7716535433070866
        },
        {
          "duration": 0.1875,
          "durationTicks": 24,
          "midi": 75,
          "name": "D#5",
          "ticks": 7008,
          "time": 54.75,
          "velocity": 0.7952755905511811
        },
        {
          "duration": 0.1875,
          "durationTicks": 24,
          "midi": 68,
          "name": "G#4",
          "ticks": 7008,
          "time": 54.75,
          "velocity": 0.7952755905511811
        },
        {
          "duration": 0.75,
          "durationTicks": 96,
          "midi": 27,
          "name": "D#1",
          "ticks": 7200,
          "time": 56.25,
          "velocity": 0.8818897637795275
        },
        {
          "duration": 0.09375,
          "durationTicks": 12,
          "midi": 32,
          "name": "G#1",
          "ticks": 7296,
          "time": 57,
          "velocity": 0.8818897637795275
        },
        {
          "duration": 0.1875,
          "durationTicks": 24,
          "midi": 75,
          "name": "D#5",
          "ticks": 7296,
          "time": 57,
          "velocity": 0.6850393700787402
        },
        {
          "duration": 0.1875,
          "durationTicks": 24,
          "midi": 68,
          "name": "G#4",
          "ticks": 7296,
          "time": 57,
          "velocity": 0.6850393700787402
        },
        {
          "duration": 0.1875,
          "durationTicks": 24,
          "midi": 68,
          "name": "G#4",
          "ticks": 7392,
          "time": 57.75,
          "velocity": 0.6850393700787402
        },
        {
          "duration": 0.1875,
          "durationTicks": 24,
          "midi": 75,
          "name": "D#5",
          "ticks": 7392,
          "time": 57.75,
          "velocity": 0.6850393700787402
        },
        {
          "duration": 0.1875,
          "durationTicks": 24,
          "midi": 67,
          "name": "G4",
          "ticks": 7488,
          "time": 58.5,
          "velocity": 0.6929133858267716
        },
        {
          "duration": 0.1875,
          "durationTicks": 24,
          "midi": 75,
          "name": "D#5",
          "ticks": 7488,
          "time": 58.5,
          "velocity": 0.6929133858267716
        },
        {
          "duration": 0.1875,
          "durationTicks": 24,
          "midi": 75,
          "name": "D#5",
          "ticks": 7584,
          "time": 59.25,
          "velocity": 0.6929133858267716
        },
        {
          "duration": 0.1875,
          "durationTicks": 24,
          "midi": 67,
          "name": "G4",
          "ticks": 7584,
          "time": 59.25,
          "velocity": 0.6929133858267716
        },
        {
          "duration": 0.1875,
          "durationTicks": 24,
          "midi": 68,
          "name": "G#4",
          "ticks": 7680,
          "time": 60,
          "velocity": 0.6929133858267716
        },
        {
          "duration": 0.1875,
          "durationTicks": 24,
          "midi": 75,
          "name": "D#5",
          "ticks": 7680,
          "time": 60,
          "velocity": 0.6929133858267716
        },
        {
          "duration": 0.1875,
          "durationTicks": 24,
          "midi": 75,
          "name": "D#5",
          "ticks": 7776,
          "time": 60.75,
          "velocity": 0.6929133858267716
        },
        {
          "duration": 0.1875,
          "durationTicks": 24,
          "midi": 67,
          "name": "G4",
          "ticks": 7776,
          "time": 60.75,
          "velocity": 0.6929133858267716
        },
        {
          "duration": 0.75,
          "durationTicks": 96,
          "midi": 27,
          "name": "D#1",
          "ticks": 7968,
          "time": 62.25,
          "velocity": 0.8818897637795275
        },
        {
          "duration": 0.75,
          "durationTicks": 96,
          "midi": 32,
          "name": "G#1",
          "ticks": 8064,
          "time": 63,
          "velocity": 0.5984251968503937
        },
        {
          "duration": 1.4765625,
          "durationTicks": 189,
          "midi": 59,
          "name": "B3",
          "ticks": 8064,
          "time": 63,
          "velocity": 0.5984251968503937
        },
        {
          "duration": 1.4765625,
          "durationTicks": 189,
          "midi": 68,
          "name": "G#4",
          "ticks": 8112,
          "time": 63.375,
          "velocity": 0.5984251968503937
        },
        {
          "duration": 1.5,
          "durationTicks": 192,
          "midi": 76,
          "name": "E5",
          "ticks": 8160,
          "time": 63.75,
          "velocity": 0.5984251968503937
        },
        {
          "duration": 1.5,
          "durationTicks": 192,
          "midi": 40,
          "name": "E2",
          "ticks": 8256,
          "time": 64.5,
          "velocity": 0.7716535433070866
        },
        {
          "duration": 1.4765625,
          "durationTicks": 189,
          "midi": 92,
          "name": "G#6",
          "ticks": 8256,
          "time": 64.5,
          "velocity": 0.7480314960629921
        },
        {
          "duration": 1.4765625,
          "durationTicks": 189,
          "midi": 83,
          "name": "B5",
          "ticks": 8256,
          "time": 64.5,
          "velocity": 0.7480314960629921
        },
        {
          "duration": 1.4765625,
          "durationTicks": 189,
          "midi": 76,
          "name": "E5",
          "ticks": 8256,
          "time": 64.5,
          "velocity": 0.7480314960629921
        },
        {
          "duration": 1.4765625,
          "durationTicks": 189,
          "midi": 55,
          "name": "G3",
          "ticks": 8448,
          "time": 66,
          "velocity": 0.7480314960629921
        },
        {
          "duration": 1.5,
          "durationTicks": 192,
          "midi": 63,
          "name": "D#4",
          "ticks": 8496,
          "time": 66.375,
          "velocity": 0.7480314960629921
        },
        {
          "duration": 1.4765625,
          "durationTicks": 189,
          "midi": 70,
          "name": "A#4",
          "ticks": 8544,
          "time": 66.75,
          "velocity": 0.7480314960629921
        },
        {
          "duration": 1.5,
          "durationTicks": 192,
          "midi": 39,
          "name": "D#2",
          "ticks": 8640,
          "time": 67.5,
          "velocity": 0.7716535433070866
        },
        {
          "duration": 1.4765625,
          "durationTicks": 189,
          "midi": 94,
          "name": "A#6",
          "ticks": 8640,
          "time": 67.5,
          "velocity": 0.7480314960629921
        },
        {
          "duration": 1.4765625,
          "durationTicks": 189,
          "midi": 79,
          "name": "G5",
          "ticks": 8640,
          "time": 67.5,
          "velocity": 0.7480314960629921
        },
        {
          "duration": 1.5234375,
          "durationTicks": 195,
          "midi": 87,
          "name": "D#6",
          "ticks": 8640,
          "time": 67.5,
          "velocity": 0.7480314960629921
        },
        {
          "duration": 1.5,
          "durationTicks": 192,
          "midi": 59,
          "name": "B3",
          "ticks": 8832,
          "time": 69,
          "velocity": 0.7322834645669292
        },
        {
          "duration": 1.5,
          "durationTicks": 192,
          "midi": 68,
          "name": "G#4",
          "ticks": 8880,
          "time": 69.375,
          "velocity": 0.7322834645669292
        },
        {
          "duration": 1.5,
          "durationTicks": 192,
          "midi": 76,
          "name": "E5",
          "ticks": 8928,
          "time": 69.75,
          "velocity": 0.7322834645669292
        },
        {
          "duration": 1.4765625,
          "durationTicks": 189,
          "midi": 95,
          "name": "B6",
          "ticks": 9024,
          "time": 70.5,
          "velocity": 0.7244094488188977
        },
        {
          "duration": 1.5,
          "durationTicks": 192,
          "midi": 92,
          "name": "G#6",
          "ticks": 9024,
          "time": 70.5,
          "velocity": 0.7244094488188977
        },
        {
          "duration": 1.5,
          "durationTicks": 192,
          "midi": 76,
          "name": "E5",
          "ticks": 9024,
          "time": 70.5,
          "velocity": 0.7244094488188977
        },
        {
          "duration": 1.5,
          "durationTicks": 192,
          "midi": 40,
          "name": "E2",
          "ticks": 9024,
          "time": 70.5,
          "velocity": 0.7165354330708661
        },
        {
          "duration": 1.5,
          "durationTicks": 192,
          "midi": 52,
          "name": "E3",
          "ticks": 9024,
          "time": 70.5,
          "velocity": 0.7165354330708661
        },
        {
          "duration": 1.5,
          "durationTicks": 192,
          "midi": 55,
          "name": "G3",
          "ticks": 9216,
          "time": 72,
          "velocity": 0.7322834645669292
        },
        {
          "duration": 1.5,
          "durationTicks": 192,
          "midi": 63,
          "name": "D#4",
          "ticks": 9264,
          "time": 72.375,
          "velocity": 0.7244094488188977
        },
        {
          "duration": 1.5,
          "durationTicks": 192,
          "midi": 71,
          "name": "B4",
          "ticks": 9312,
          "time": 72.75,
          "velocity": 0.7244094488188977
        },
        {
          "duration": 1.5,
          "durationTicks": 192,
          "midi": 51,
          "name": "D#3",
          "ticks": 9408,
          "time": 73.5,
          "velocity": 0.7007874015748031
        },
        {
          "duration": 1.5,
          "durationTicks": 192,
          "midi": 39,
          "name": "D#2",
          "ticks": 9408,
          "time": 73.5,
          "velocity": 0.7007874015748031
        },
        {
          "duration": 1.5,
          "durationTicks": 192,
          "midi": 79,
          "name": "G5",
          "ticks": 9408,
          "time": 73.5,
          "velocity": 0.7244094488188977
        },
        {
          "duration": 1.5,
          "durationTicks": 192,
          "midi": 83,
          "name": "B5",
          "ticks": 9408,
          "time": 73.5,
          "velocity": 0.7244094488188977
        },
        {
          "duration": 1.5,
          "durationTicks": 192,
          "midi": 87,
          "name": "D#6",
          "ticks": 9408,
          "time": 73.5,
          "velocity": 0.7244094488188977
        },
        {
          "duration": 6.0234375,
          "durationTicks": 771,
          "midi": 50,
          "name": "D3",
          "ticks": 9600,
          "time": 75,
          "velocity": 0.7244094488188977
        },
        {
          "duration": 3,
          "durationTicks": 384,
          "midi": 78,
          "name": "F#5",
          "ticks": 9600,
          "time": 75,
          "velocity": 0.7244094488188977
        },
        {
          "duration": 6.0234375,
          "durationTicks": 771,
          "midi": 38,
          "name": "D2",
          "ticks": 9600,
          "time": 75,
          "velocity": 0.7244094488188977
        },
        {
          "duration": 3,
          "durationTicks": 384,
          "midi": 74,
          "name": "D5",
          "ticks": 9600,
          "time": 75,
          "velocity": 0.7244094488188977
        },
        {
          "duration": 3,
          "durationTicks": 384,
          "midi": 69,
          "name": "A4",
          "ticks": 9600,
          "time": 75,
          "velocity": 0.7244094488188977
        },
        {
          "duration": 1.5,
          "durationTicks": 192,
          "midi": 90,
          "name": "F#6",
          "ticks": 9984,
          "time": 78,
          "velocity": 0.7559055118110236
        },
        {
          "duration": 1.5,
          "durationTicks": 192,
          "midi": 86,
          "name": "D6",
          "ticks": 9984,
          "time": 78,
          "velocity": 0.7559055118110236
        },
        {
          "duration": 1.5,
          "durationTicks": 192,
          "midi": 81,
          "name": "A5",
          "ticks": 9984,
          "time": 78,
          "velocity": 0.7559055118110236
        },
        {
          "duration": 1.5,
          "durationTicks": 192,
          "midi": 98,
          "name": "D7",
          "ticks": 10176,
          "time": 79.5,
          "velocity": 0.7559055118110236
        },
        {
          "duration": 1.5,
          "durationTicks": 192,
          "midi": 93,
          "name": "A6",
          "ticks": 10176,
          "time": 79.5,
          "velocity": 0.7559055118110236
        },
        {
          "duration": 1.5,
          "durationTicks": 192,
          "midi": 90,
          "name": "F#6",
          "ticks": 10176,
          "time": 79.5,
          "velocity": 0.7559055118110236
        },
        {
          "duration": 3,
          "durationTicks": 384,
          "midi": 69,
          "name": "A4",
          "ticks": 10368,
          "time": 81,
          "velocity": 0.7559055118110236
        },
        {
          "duration": 3,
          "durationTicks": 384,
          "midi": 73,
          "name": "C#5",
          "ticks": 10368,
          "time": 81,
          "velocity": 0.7559055118110236
        },
        {
          "duration": 6,
          "durationTicks": 768,
          "midi": 37,
          "name": "C#2",
          "ticks": 10368,
          "time": 81,
          "velocity": 0.7244094488188977
        },
        {
          "duration": 3,
          "durationTicks": 384,
          "midi": 77,
          "name": "F5",
          "ticks": 10368,
          "time": 81,
          "velocity": 0.7559055118110236
        },
        {
          "duration": 6,
          "durationTicks": 768,
          "midi": 49,
          "name": "C#3",
          "ticks": 10368,
          "time": 81,
          "velocity": 0.7244094488188977
        },
        {
          "duration": 3,
          "durationTicks": 384,
          "midi": 77,
          "name": "F5",
          "ticks": 10752,
          "time": 84,
          "velocity": 0.7559055118110236
        },
        {
          "duration": 3,
          "durationTicks": 384,
          "midi": 85,
          "name": "C#6",
          "ticks": 10752,
          "time": 84,
          "velocity": 0.7559055118110236
        },
        {
          "duration": 3,
          "durationTicks": 384,
          "midi": 81,
          "name": "A5",
          "ticks": 10752,
          "time": 84,
          "velocity": 0.7559055118110236
        },
        {
          "duration": 0.75,
          "durationTicks": 96,
          "midi": 69,
          "name": "A4",
          "ticks": 11136,
          "time": 87,
          "velocity": 0.7322834645669292
        },
        {
          "duration": 6,
          "durationTicks": 768,
          "midi": 37,
          "name": "C#2",
          "ticks": 11136,
          "time": 87,
          "velocity": 0.7244094488188977
        },
        {
          "duration": 5.625,
          "durationTicks": 720,
          "midi": 49,
          "name": "C#3",
          "ticks": 11136,
          "time": 87,
          "velocity": 0.7244094488188977
        },
        {
          "duration": 0.75,
          "durationTicks": 96,
          "midi": 73,
          "name": "C#5",
          "ticks": 11184,
          "time": 87.375,
          "velocity": 0.7322834645669292
        },
        {
          "duration": 0.75,
          "durationTicks": 96,
          "midi": 78,
          "name": "F#5",
          "ticks": 11232,
          "time": 87.75,
          "velocity": 0.7322834645669292
        },
        {
          "duration": 0.75,
          "durationTicks": 96,
          "midi": 81,
          "name": "A5",
          "ticks": 11280,
          "time": 88.125,
          "velocity": 0.7322834645669292
        },
        {
          "duration": 0.75,
          "durationTicks": 96,
          "midi": 85,
          "name": "C#6",
          "ticks": 11328,
          "time": 88.5,
          "velocity": 0.7322834645669292
        },
        {
          "duration": 0.75,
          "durationTicks": 96,
          "midi": 90,
          "name": "F#6",
          "ticks": 11376,
          "time": 88.875,
          "velocity": 0.7322834645669292
        },
        {
          "duration": 0.75,
          "durationTicks": 96,
          "midi": 93,
          "name": "A6",
          "ticks": 11424,
          "time": 89.25,
          "velocity": 0.7322834645669292
        },
        {
          "duration": 0.75,
          "durationTicks": 96,
          "midi": 69,
          "name": "A4",
          "ticks": 11520,
          "time": 90,
          "velocity": 0.7322834645669292
        },
        {
          "duration": 0.75,
          "durationTicks": 96,
          "midi": 66,
          "name": "F#4",
          "ticks": 11568,
          "time": 90.375,
          "velocity": 0.7322834645669292
        },
        {
          "duration": 0.75,
          "durationTicks": 96,
          "midi": 61,
          "name": "C#4",
          "ticks": 11616,
          "time": 90.75,
          "velocity": 0.7322834645669292
        },
        {
          "duration": 0.75,
          "durationTicks": 96,
          "midi": 57,
          "name": "A3",
          "ticks": 11664,
          "time": 91.125,
          "velocity": 0.7322834645669292
        },
        {
          "duration": 0.75,
          "durationTicks": 96,
          "midi": 54,
          "name": "F#3",
          "ticks": 11712,
          "time": 91.5,
          "velocity": 0.7322834645669292
        },
        {
          "duration": 1.125,
          "durationTicks": 144,
          "midi": 49,
          "name": "C#3",
          "ticks": 11760,
          "time": 91.875,
          "velocity": 0.7322834645669292
        },
        {
          "duration": 0.75,
          "durationTicks": 96,
          "midi": 45,
          "name": "A2",
          "ticks": 11808,
          "time": 92.25,
          "velocity": 0.7322834645669292
        },
        {
          "duration": 3.0234375,
          "durationTicks": 387,
          "midi": 61,
          "name": "C#4",
          "ticks": 11904,
          "time": 93,
          "velocity": 0.7322834645669292
        },
        {
          "duration": 3.0234375,
          "durationTicks": 387,
          "midi": 77,
          "name": "F5",
          "ticks": 11904,
          "time": 93,
          "velocity": 0.7322834645669292
        },
        {
          "duration": 3.0234375,
          "durationTicks": 387,
          "midi": 81,
          "name": "A5",
          "ticks": 11904,
          "time": 93,
          "velocity": 0.7322834645669292
        },
        {
          "duration": 3.0234375,
          "durationTicks": 387,
          "midi": 73,
          "name": "C#5",
          "ticks": 11904,
          "time": 93,
          "velocity": 0.7322834645669292
        },
        {
          "duration": 6,
          "durationTicks": 768,
          "midi": 49,
          "name": "C#3",
          "ticks": 11904,
          "time": 93,
          "velocity": 0.7559055118110236
        },
        {
          "duration": 3.0234375,
          "durationTicks": 387,
          "midi": 65,
          "name": "F4",
          "ticks": 12288,
          "time": 96,
          "velocity": 0.7322834645669292
        },
        {
          "duration": 3.0234375,
          "durationTicks": 387,
          "midi": 81,
          "name": "A5",
          "ticks": 12291,
          "time": 96.0234375,
          "velocity": 0.7322834645669292
        },
        {
          "duration": 3.0234375,
          "durationTicks": 387,
          "midi": 73,
          "name": "C#5",
          "ticks": 12291,
          "time": 96.0234375,
          "velocity": 0.7322834645669292
        },
        {
          "duration": 3.0234375,
          "durationTicks": 387,
          "midi": 77,
          "name": "F5",
          "ticks": 12291,
          "time": 96.0234375,
          "velocity": 0.7322834645669292
        },
        {
          "duration": 0.046875,
          "durationTicks": 6,
          "midi": 44,
          "name": "G#2",
          "ticks": 12672,
          "time": 99,
          "velocity": 0.8661417322834646
        },
        {
          "duration": 0.046875,
          "durationTicks": 6,
          "midi": 32,
          "name": "G#1",
          "ticks": 12672,
          "time": 99,
          "velocity": 0.8661417322834646
        },
        {
          "duration": 0.046875,
          "durationTicks": 6,
          "midi": 47,
          "name": "B2",
          "ticks": 12768,
          "time": 99.75,
          "velocity": 0.8661417322834646
        },
        {
          "duration": 0.046875,
          "durationTicks": 6,
          "midi": 44,
          "name": "G#2",
          "ticks": 12768,
          "time": 99.75,
          "velocity": 0.8661417322834646
        },
        {
          "duration": 0.046875,
          "durationTicks": 6,
          "midi": 39,
          "name": "D#2",
          "ticks": 12864,
          "time": 100.5,
          "velocity": 0.8661417322834646
        },
        {
          "duration": 0.046875,
          "durationTicks": 6,
          "midi": 43,
          "name": "G2",
          "ticks": 12960,
          "time": 101.25,
          "velocity": 0.8661417322834646
        },
        {
          "duration": 0.046875,
          "durationTicks": 6,
          "midi": 47,
          "name": "B2",
          "ticks": 12960,
          "time": 101.25,
          "velocity": 0.8661417322834646
        },
        {
          "duration": 0.046875,
          "durationTicks": 6,
          "midi": 44,
          "name": "G#2",
          "ticks": 13056,
          "time": 102,
          "velocity": 0.8661417322834646
        },
        {
          "duration": 0.046875,
          "durationTicks": 6,
          "midi": 32,
          "name": "G#1",
          "ticks": 13056,
          "time": 102,
          "velocity": 0.8661417322834646
        },
        {
          "duration": 0.046875,
          "durationTicks": 6,
          "midi": 44,
          "name": "G#2",
          "ticks": 13104,
          "time": 102.375,
          "velocity": 0.8661417322834646
        },
        {
          "duration": 0.046875,
          "durationTicks": 6,
          "midi": 47,
          "name": "B2",
          "ticks": 13104,
          "time": 102.375,
          "velocity": 0.8661417322834646
        },
        {
          "duration": 0.046875,
          "durationTicks": 6,
          "midi": 39,
          "name": "D#2",
          "ticks": 13152,
          "time": 102.75,
          "velocity": 0.8661417322834646
        },
        {
          "duration": 0.046875,
          "durationTicks": 6,
          "midi": 47,
          "name": "B2",
          "ticks": 13200,
          "time": 103.125,
          "velocity": 0.8661417322834646
        },
        {
          "duration": 0.046875,
          "durationTicks": 6,
          "midi": 43,
          "name": "G2",
          "ticks": 13200,
          "time": 103.125,
          "velocity": 0.8661417322834646
        },
        {
          "duration": 0.75,
          "durationTicks": 96,
          "midi": 27,
          "name": "D#1",
          "ticks": 13344,
          "time": 104.25,
          "velocity": 0.8818897637795275
        },
        {
          "duration": 0.046875,
          "durationTicks": 6,
          "midi": 32,
          "name": "G#1",
          "ticks": 13440,
          "time": 105,
          "velocity": 0.8818897637795275
        },
        {
          "duration": 0.09375,
          "durationTicks": 12,
          "midi": 32,
          "name": "G#1",
          "ticks": 13440,
          "time": 105,
          "velocity": 0.8661417322834646
        },
        {
          "duration": 0.046875,
          "durationTicks": 6,
          "midi": 44,
          "name": "G#2",
          "ticks": 13440,
          "time": 105,
          "velocity": 0.8661417322834646
        },
        {
          "duration": 0.046875,
          "durationTicks": 6,
          "midi": 44,
          "name": "G#2",
          "ticks": 13536,
          "time": 105.75,
          "velocity": 0.8661417322834646
        },
        {
          "duration": 0.046875,
          "durationTicks": 6,
          "midi": 47,
          "name": "B2",
          "ticks": 13536,
          "time": 105.75,
          "velocity": 0.8661417322834646
        },
        {
          "duration": 0.046875,
          "durationTicks": 6,
          "midi": 39,
          "name": "D#2",
          "ticks": 13632,
          "time": 106.5,
          "velocity": 0.8661417322834646
        },
        {
          "duration": 0.046875,
          "durationTicks": 6,
          "midi": 43,
          "name": "G2",
          "ticks": 13728,
          "time": 107.25,
          "velocity": 0.8661417322834646
        },
        {
          "duration": 0.046875,
          "durationTicks": 6,
          "midi": 47,
          "name": "B2",
          "ticks": 13728,
          "time": 107.25,
          "velocity": 0.8661417322834646
        },
        {
          "duration": 0.046875,
          "durationTicks": 6,
          "midi": 32,
          "name": "G#1",
          "ticks": 13824,
          "time": 108,
          "velocity": 0.8661417322834646
        },
        {
          "duration": 0.046875,
          "durationTicks": 6,
          "midi": 44,
          "name": "G#2",
          "ticks": 13824,
          "time": 108,
          "velocity": 0.8661417322834646
        },
        {
          "duration": 0.046875,
          "durationTicks": 6,
          "midi": 47,
          "name": "B2",
          "ticks": 13872,
          "time": 108.375,
          "velocity": 0.8661417322834646
        },
        {
          "duration": 0.046875,
          "durationTicks": 6,
          "midi": 44,
          "name": "G#2",
          "ticks": 13872,
          "time": 108.375,
          "velocity": 0.8661417322834646
        },
        {
          "duration": 0.046875,
          "durationTicks": 6,
          "midi": 39,
          "name": "D#2",
          "ticks": 13920,
          "time": 108.75,
          "velocity": 0.8661417322834646
        },
        {
          "duration": 0.046875,
          "durationTicks": 6,
          "midi": 47,
          "name": "B2",
          "ticks": 13968,
          "time": 109.125,
          "velocity": 0.8661417322834646
        },
        {
          "duration": 0.046875,
          "durationTicks": 6,
          "midi": 43,
          "name": "G2",
          "ticks": 13968,
          "time": 109.125,
          "velocity": 0.8661417322834646
        },
        {
          "duration": 0.75,
          "durationTicks": 96,
          "midi": 27,
          "name": "D#1",
          "ticks": 14112,
          "time": 110.25,
          "velocity": 0.8818897637795275
        },
        {
          "duration": 0.09375,
          "durationTicks": 12,
          "midi": 32,
          "name": "G#1",
          "ticks": 14208,
          "time": 111,
          "velocity": 0.7795275590551181
        },
        {
          "duration": 0.75,
          "durationTicks": 96,
          "midi": 44,
          "name": "G#2",
          "ticks": 14208,
          "time": 111,
          "velocity": 0.9133858267716536
        },
        {
          "duration": 0.75,
          "durationTicks": 96,
          "midi": 32,
          "name": "G#1",
          "ticks": 14208,
          "time": 111,
          "velocity": 0.9133858267716536
        },
        {
          "duration": 0.046875,
          "durationTicks": 6,
          "midi": 59,
          "name": "B3",
          "ticks": 14304,
          "time": 111.75,
          "velocity": 0.9133858267716536
        },
        {
          "duration": 0.046875,
          "durationTicks": 6,
          "midi": 56,
          "name": "G#3",
          "ticks": 14304,
          "time": 111.75,
          "velocity": 0.9133858267716536
        },
        {
          "duration": 0.046875,
          "durationTicks": 6,
          "midi": 63,
          "name": "D#4",
          "ticks": 14400,
          "time": 112.5,
          "velocity": 0.9133858267716536
        },
        {
          "duration": 0.046875,
          "durationTicks": 6,
          "midi": 51,
          "name": "D#3",
          "ticks": 14400,
          "time": 112.5,
          "velocity": 0.9133858267716536
        },
        {
          "duration": 0.046875,
          "durationTicks": 6,
          "midi": 55,
          "name": "G3",
          "ticks": 14496,
          "time": 113.25,
          "velocity": 0.905511811023622
        },
        {
          "duration": 0.046875,
          "durationTicks": 6,
          "midi": 59,
          "name": "B3",
          "ticks": 14496,
          "time": 113.25,
          "velocity": 0.905511811023622
        },
        {
          "duration": 0.0390625,
          "durationTicks": 5,
          "midi": 44,
          "name": "G#2",
          "ticks": 14592,
          "time": 114,
          "velocity": 0.905511811023622
        },
        {
          "duration": 0.0390625,
          "durationTicks": 5,
          "midi": 32,
          "name": "G#1",
          "ticks": 14592,
          "time": 114,
          "velocity": 0.905511811023622
        },
        {
          "duration": 0.046875,
          "durationTicks": 6,
          "midi": 56,
          "name": "G#3",
          "ticks": 14640,
          "time": 114.375,
          "velocity": 0.905511811023622
        },
        {
          "duration": 0.046875,
          "durationTicks": 6,
          "midi": 59,
          "name": "B3",
          "ticks": 14640,
          "time": 114.375,
          "velocity": 0.905511811023622
        },
        {
          "duration": 0.046875,
          "durationTicks": 6,
          "midi": 51,
          "name": "D#3",
          "ticks": 14688,
          "time": 114.75,
          "velocity": 0.905511811023622
        },
        {
          "duration": 0.046875,
          "durationTicks": 6,
          "midi": 63,
          "name": "D#4",
          "ticks": 14688,
          "time": 114.75,
          "velocity": 0.905511811023622
        },
        {
          "duration": 0.046875,
          "durationTicks": 6,
          "midi": 59,
          "name": "B3",
          "ticks": 14736,
          "time": 115.125,
          "velocity": 0.8976377952755905
        },
        {
          "duration": 0.046875,
          "durationTicks": 6,
          "midi": 55,
          "name": "G3",
          "ticks": 14736,
          "time": 115.125,
          "velocity": 0.8976377952755905
        },
        {
          "duration": 0.1875,
          "durationTicks": 24,
          "midi": 27,
          "name": "D#1",
          "ticks": 14952,
          "time": 116.8125,
          "velocity": 0.7244094488188977
        },
        {
          "duration": 0.7578125,
          "durationTicks": 97,
          "midi": 31,
          "name": "G1",
          "ticks": 14976,
          "time": 117,
          "velocity": 0.8976377952755905
        },
        {
          "duration": 0.7578125,
          "durationTicks": 97,
          "midi": 43,
          "name": "G2",
          "ticks": 14976,
          "time": 117,
          "velocity": 0.8976377952755905
        },
        {
          "duration": 0.046875,
          "durationTicks": 6,
          "midi": 58,
          "name": "A#3",
          "ticks": 15072,
          "time": 117.75,
          "velocity": 0.8976377952755905
        },
        {
          "duration": 0.046875,
          "durationTicks": 6,
          "midi": 55,
          "name": "G3",
          "ticks": 15072,
          "time": 117.75,
          "velocity": 0.8976377952755905
        },
        {
          "duration": 0.046875,
          "durationTicks": 6,
          "midi": 62,
          "name": "D4",
          "ticks": 15168,
          "time": 118.5,
          "velocity": 0.8818897637795275
        },
        {
          "duration": 0.046875,
          "durationTicks": 6,
          "midi": 50,
          "name": "D3",
          "ticks": 15168,
          "time": 118.5,
          "velocity": 0.8818897637795275
        },
        {
          "duration": 0.046875,
          "durationTicks": 6,
          "midi": 58,
          "name": "A#3",
          "ticks": 15264,
          "time": 119.25,
          "velocity": 0.8818897637795275
        },
        {
          "duration": 0.046875,
          "durationTicks": 6,
          "midi": 55,
          "name": "G3",
          "ticks": 15264,
          "time": 119.25,
          "velocity": 0.8818897637795275
        },
        {
          "duration": 0.046875,
          "durationTicks": 6,
          "midi": 31,
          "name": "G1",
          "ticks": 15360,
          "time": 120,
          "velocity": 0.889763779527559
        },
        {
          "duration": 0.046875,
          "durationTicks": 6,
          "midi": 43,
          "name": "G2",
          "ticks": 15360,
          "time": 120,
          "velocity": 0.889763779527559
        },
        {
          "duration": 0.046875,
          "durationTicks": 6,
          "midi": 58,
          "name": "A#3",
          "ticks": 15408,
          "time": 120.375,
          "velocity": 0.8818897637795275
        },
        {
          "duration": 0.046875,
          "durationTicks": 6,
          "midi": 55,
          "name": "G3",
          "ticks": 15408,
          "time": 120.375,
          "velocity": 0.8818897637795275
        },
        {
          "duration": 0.046875,
          "durationTicks": 6,
          "midi": 50,
          "name": "D3",
          "ticks": 15456,
          "time": 120.75,
          "velocity": 0.905511811023622
        },
        {
          "duration": 0.046875,
          "durationTicks": 6,
          "midi": 62,
          "name": "D4",
          "ticks": 15456,
          "time": 120.75,
          "velocity": 0.8818897637795275
        },
        {
          "duration": 0.046875,
          "durationTicks": 6,
          "midi": 58,
          "name": "A#3",
          "ticks": 15504,
          "time": 121.125,
          "velocity": 0.8818897637795275
        },
        {
          "duration": 0.046875,
          "durationTicks": 6,
          "midi": 55,
          "name": "G3",
          "ticks": 15504,
          "time": 121.125,
          "velocity": 0.8818897637795275
        },
        {
          "duration": 0.796875,
          "durationTicks": 102,
          "midi": 31,
          "name": "G1",
          "ticks": 15648,
          "time": 122.25,
          "velocity": 0.905511811023622
        },
        {
          "duration": 0.75,
          "durationTicks": 96,
          "midi": 44,
          "name": "G#2",
          "ticks": 15744,
          "time": 123,
          "velocity": 0.9133858267716536
        },
        {
          "duration": 0.75,
          "durationTicks": 96,
          "midi": 32,
          "name": "G#1",
          "ticks": 15744,
          "time": 123,
          "velocity": 0.9133858267716536
        },
        {
          "duration": 0.046875,
          "durationTicks": 6,
          "midi": 56,
          "name": "G#3",
          "ticks": 15840,
          "time": 123.75,
          "velocity": 0.9133858267716536
        },
        {
          "duration": 0.046875,
          "durationTicks": 6,
          "midi": 59,
          "name": "B3",
          "ticks": 15840,
          "time": 123.75,
          "velocity": 0.9133858267716536
        },
        {
          "duration": 0.046875,
          "durationTicks": 6,
          "midi": 51,
          "name": "D#3",
          "ticks": 15936,
          "time": 124.5,
          "velocity": 0.9133858267716536
        },
        {
          "duration": 0.046875,
          "durationTicks": 6,
          "midi": 63,
          "name": "D#4",
          "ticks": 15936,
          "time": 124.5,
          "velocity": 0.9133858267716536
        },
        {
          "duration": 0.046875,
          "durationTicks": 6,
          "midi": 59,
          "name": "B3",
          "ticks": 16032,
          "time": 125.25,
          "velocity": 0.905511811023622
        },
        {
          "duration": 0.046875,
          "durationTicks": 6,
          "midi": 55,
          "name": "G3",
          "ticks": 16032,
          "time": 125.25,
          "velocity": 0.905511811023622
        },
        {
          "duration": 0.0390625,
          "durationTicks": 5,
          "midi": 44,
          "name": "G#2",
          "ticks": 16128,
          "time": 126,
          "velocity": 0.905511811023622
        },
        {
          "duration": 0.0390625,
          "durationTicks": 5,
          "midi": 32,
          "name": "G#1",
          "ticks": 16128,
          "time": 126,
          "velocity": 0.905511811023622
        },
        {
          "duration": 0.046875,
          "durationTicks": 6,
          "midi": 56,
          "name": "G#3",
          "ticks": 16176,
          "time": 126.375,
          "velocity": 0.905511811023622
        },
        {
          "duration": 0.046875,
          "durationTicks": 6,
          "midi": 59,
          "name": "B3",
          "ticks": 16176,
          "time": 126.375,
          "velocity": 0.905511811023622
        },
        {
          "duration": 0.046875,
          "durationTicks": 6,
          "midi": 63,
          "name": "D#4",
          "ticks": 16224,
          "time": 126.75,
          "velocity": 0.905511811023622
        },
        {
          "duration": 0.046875,
          "durationTicks": 6,
          "midi": 51,
          "name": "D#3",
          "ticks": 16224,
          "time": 126.75,
          "velocity": 0.905511811023622
        },
        {
          "duration": 0.046875,
          "durationTicks": 6,
          "midi": 55,
          "name": "G3",
          "ticks": 16272,
          "time": 127.125,
          "velocity": 0.8976377952755905
        },
        {
          "duration": 0.046875,
          "durationTicks": 6,
          "midi": 59,
          "name": "B3",
          "ticks": 16272,
          "time": 127.125,
          "velocity": 0.8976377952755905
        },
        {
          "duration": 0.234375,
          "durationTicks": 30,
          "midi": 27,
          "name": "D#1",
          "ticks": 16488,
          "time": 128.8125,
          "velocity": 0.905511811023622
        },
        {
          "duration": 0.7578125,
          "durationTicks": 97,
          "midi": 31,
          "name": "G1",
          "ticks": 16512,
          "time": 129,
          "velocity": 0.8976377952755905
        },
        {
          "duration": 0.7578125,
          "durationTicks": 97,
          "midi": 43,
          "name": "G2",
          "ticks": 16512,
          "time": 129,
          "velocity": 0.8976377952755905
        },
        {
          "duration": 0.046875,
          "durationTicks": 6,
          "midi": 58,
          "name": "A#3",
          "ticks": 16608,
          "time": 129.75,
          "velocity": 0.8976377952755905
        },
        {
          "duration": 0.046875,
          "durationTicks": 6,
          "midi": 55,
          "name": "G3",
          "ticks": 16608,
          "time": 129.75,
          "velocity": 0.8976377952755905
        },
        {
          "duration": 0.046875,
          "durationTicks": 6,
          "midi": 50,
          "name": "D3",
          "ticks": 16704,
          "time": 130.5,
          "velocity": 0.8818897637795275
        },
        {
          "duration": 0.046875,
          "durationTicks": 6,
          "midi": 62,
          "name": "D4",
          "ticks": 16704,
          "time": 130.5,
          "velocity": 0.8818897637795275
        },
        {
          "duration": 0.046875,
          "durationTicks": 6,
          "midi": 58,
          "name": "A#3",
          "ticks": 16800,
          "time": 131.25,
          "velocity": 0.8818897637795275
        },
        {
          "duration": 0.046875,
          "durationTicks": 6,
          "midi": 55,
          "name": "G3",
          "ticks": 16800,
          "time": 131.25,
          "velocity": 0.8818897637795275
        },
        {
          "duration": 0.046875,
          "durationTicks": 6,
          "midi": 43,
          "name": "G2",
          "ticks": 16896,
          "time": 132,
          "velocity": 0.889763779527559
        },
        {
          "duration": 0.046875,
          "durationTicks": 6,
          "midi": 31,
          "name": "G1",
          "ticks": 16896,
          "time": 132,
          "velocity": 0.889763779527559
        },
        {
          "duration": 0.046875,
          "durationTicks": 6,
          "midi": 55,
          "name": "G3",
          "ticks": 16944,
          "time": 132.375,
          "velocity": 0.8818897637795275
        },
        {
          "duration": 0.046875,
          "durationTicks": 6,
          "midi": 58,
          "name": "A#3",
          "ticks": 16944,
          "time": 132.375,
          "velocity": 0.8818897637795275
        },
        {
          "duration": 0.046875,
          "durationTicks": 6,
          "midi": 50,
          "name": "D3",
          "ticks": 16992,
          "time": 132.75,
          "velocity": 0.905511811023622
        },
        {
          "duration": 0.046875,
          "durationTicks": 6,
          "midi": 62,
          "name": "D4",
          "ticks": 16992,
          "time": 132.75,
          "velocity": 0.8818897637795275
        },
        {
          "duration": 0.046875,
          "durationTicks": 6,
          "midi": 58,
          "name": "A#3",
          "ticks": 17040,
          "time": 133.125,
          "velocity": 0.8818897637795275
        },
        {
          "duration": 0.046875,
          "durationTicks": 6,
          "midi": 55,
          "name": "G3",
          "ticks": 17040,
          "time": 133.125,
          "velocity": 0.8818897637795275
        },
        {
          "duration": 0.75,
          "durationTicks": 96,
          "midi": 58,
          "name": "A#3",
          "ticks": 17280,
          "time": 135,
          "velocity": 0.937007874015748
        },
        {
          "duration": 0.75,
          "durationTicks": 96,
          "midi": 34,
          "name": "A#1",
          "ticks": 17280,
          "time": 135,
          "velocity": 0.937007874015748
        },
        {
          "duration": 0.75,
          "durationTicks": 96,
          "midi": 46,
          "name": "A#2",
          "ticks": 17280,
          "time": 135,
          "velocity": 0.937007874015748
        },
        {
          "duration": 0.046875,
          "durationTicks": 6,
          "midi": 65,
          "name": "F4",
          "ticks": 17376,
          "time": 135.75,
          "velocity": 0.9606299212598425
        },
        {
          "duration": 0.046875,
          "durationTicks": 6,
          "midi": 58,
          "name": "A#3",
          "ticks": 17376,
          "time": 135.75,
          "velocity": 0.9606299212598425
        },
        {
          "duration": 0.046875,
          "durationTicks": 6,
          "midi": 61,
          "name": "C#4",
          "ticks": 17376,
          "time": 135.75,
          "velocity": 0.9606299212598425
        },
        {
          "duration": 0.75,
          "durationTicks": 96,
          "midi": 41,
          "name": "F2",
          "ticks": 17472,
          "time": 136.5,
          "velocity": 0.9606299212598425
        },
        {
          "duration": 0.75,
          "durationTicks": 96,
          "midi": 29,
          "name": "F1",
          "ticks": 17472,
          "time": 136.5,
          "velocity": 0.9606299212598425
        },
        {
          "duration": 0.375,
          "durationTicks": 48,
          "midi": 58,
          "name": "A#3",
          "ticks": 17568,
          "time": 137.25,
          "velocity": 0.9606299212598425
        },
        {
          "duration": 0.375,
          "durationTicks": 48,
          "midi": 65,
          "name": "F4",
          "ticks": 17568,
          "time": 137.25,
          "velocity": 0.9606299212598425
        },
        {
          "duration": 0.375,
          "durationTicks": 48,
          "midi": 61,
          "name": "C#4",
          "ticks": 17568,
          "time": 137.25,
          "velocity": 0.9606299212598425
        },
        {
          "duration": 0.75,
          "durationTicks": 96,
          "midi": 54,
          "name": "F#3",
          "ticks": 17664,
          "time": 138,
          "velocity": 0.937007874015748
        },
        {
          "duration": 0.75,
          "durationTicks": 96,
          "midi": 30,
          "name": "F#1",
          "ticks": 17664,
          "time": 138,
          "velocity": 0.9606299212598425
        },
        {
          "duration": 0.75,
          "durationTicks": 96,
          "midi": 42,
          "name": "F#2",
          "ticks": 17664,
          "time": 138,
          "velocity": 0.9606299212598425
        },
        {
          "duration": 0.046875,
          "durationTicks": 6,
          "midi": 61,
          "name": "C#4",
          "ticks": 17760,
          "time": 138.75,
          "velocity": 0.9448818897637795
        },
        {
          "duration": 0.046875,
          "durationTicks": 6,
          "midi": 54,
          "name": "F#3",
          "ticks": 17760,
          "time": 138.75,
          "velocity": 0.9448818897637795
        },
        {
          "duration": 0.046875,
          "durationTicks": 6,
          "midi": 57,
          "name": "A3",
          "ticks": 17760,
          "time": 138.75,
          "velocity": 0.9448818897637795
        },
        {
          "duration": 0.75,
          "durationTicks": 96,
          "midi": 37,
          "name": "C#2",
          "ticks": 17856,
          "time": 139.5,
          "velocity": 0.9606299212598425
        },
        {
          "duration": 0.75,
          "durationTicks": 96,
          "midi": 25,
          "name": "C#1",
          "ticks": 17856,
          "time": 139.5,
          "velocity": 0.9606299212598425
        },
        {
          "duration": 0.375,
          "durationTicks": 48,
          "midi": 57,
          "name": "A3",
          "ticks": 17952,
          "time": 140.25,
          "velocity": 0.9448818897637795
        },
        {
          "duration": 0.375,
          "durationTicks": 48,
          "midi": 54,
          "name": "F#3",
          "ticks": 17952,
          "time": 140.25,
          "velocity": 0.9448818897637795
        },
        {
          "duration": 0.375,
          "durationTicks": 48,
          "midi": 61,
          "name": "C#4",
          "ticks": 17952,
          "time": 140.25,
          "velocity": 0.9448818897637795
        },
        {
          "duration": 0.75,
          "durationTicks": 96,
          "midi": 29,
          "name": "F1",
          "ticks": 18048,
          "time": 141,
          "velocity": 0.9448818897637795
        },
        {
          "duration": 0.75,
          "durationTicks": 96,
          "midi": 41,
          "name": "F2",
          "ticks": 18048,
          "time": 141,
          "velocity": 0.9448818897637795
        },
        {
          "duration": 0.75,
          "durationTicks": 96,
          "midi": 53,
          "name": "F3",
          "ticks": 18048,
          "time": 141,
          "velocity": 0.937007874015748
        },
        {
          "duration": 0.046875,
          "durationTicks": 6,
          "midi": 53,
          "name": "F3",
          "ticks": 18144,
          "time": 141.75,
          "velocity": 0.937007874015748
        },
        {
          "duration": 0.046875,
          "durationTicks": 6,
          "midi": 57,
          "name": "A3",
          "ticks": 18144,
          "time": 141.75,
          "velocity": 0.937007874015748
        },
        {
          "duration": 0.046875,
          "durationTicks": 6,
          "midi": 50,
          "name": "D3",
          "ticks": 18144,
          "time": 141.75,
          "velocity": 0.937007874015748
        },
        {
          "duration": 0.75,
          "durationTicks": 96,
          "midi": 38,
          "name": "D2",
          "ticks": 18240,
          "time": 142.5,
          "velocity": 0.9606299212598425
        },
        {
          "duration": 0.75,
          "durationTicks": 96,
          "midi": 26,
          "name": "D1",
          "ticks": 18240,
          "time": 142.5,
          "velocity": 0.9606299212598425
        },
        {
          "duration": 0.75,
          "durationTicks": 96,
          "midi": 50,
          "name": "D3",
          "ticks": 18240,
          "time": 142.5,
          "velocity": 0.937007874015748
        },
        {
          "duration": 0.375,
          "durationTicks": 48,
          "midi": 62,
          "name": "D4",
          "ticks": 18336,
          "time": 143.25,
          "velocity": 0.937007874015748
        },
        {
          "duration": 0.375,
          "durationTicks": 48,
          "midi": 53,
          "name": "F3",
          "ticks": 18336,
          "time": 143.25,
          "velocity": 0.937007874015748
        },
        {
          "duration": 0.375,
          "durationTicks": 48,
          "midi": 57,
          "name": "A3",
          "ticks": 18336,
          "time": 143.25,
          "velocity": 0.937007874015748
        },
        {
          "duration": 0.75,
          "durationTicks": 96,
          "midi": 35,
          "name": "B1",
          "ticks": 18432,
          "time": 144,
          "velocity": 0.937007874015748
        },
        {
          "duration": 0.75,
          "durationTicks": 96,
          "midi": 47,
          "name": "B2",
          "ticks": 18432,
          "time": 144,
          "velocity": 0.937007874015748
        },
        {
          "duration": 0.75,
          "durationTicks": 96,
          "midi": 59,
          "name": "B3",
          "ticks": 18432,
          "time": 144,
          "velocity": 0.937007874015748
        },
        {
          "duration": 0.046875,
          "durationTicks": 6,
          "midi": 51,
          "name": "D#3",
          "ticks": 18528,
          "time": 144.75,
          "velocity": 0.937007874015748
        },
        {
          "duration": 0.046875,
          "durationTicks": 6,
          "midi": 54,
          "name": "F#3",
          "ticks": 18528,
          "time": 144.75,
          "velocity": 0.937007874015748
        },
        {
          "duration": 0.046875,
          "durationTicks": 6,
          "midi": 47,
          "name": "B2",
          "ticks": 18528,
          "time": 144.75,
          "velocity": 0.937007874015748
        },
        {
          "duration": 0.234375,
          "durationTicks": 30,
          "midi": 66,
          "name": "F#4",
          "ticks": 18624,
          "time": 145.5,
          "velocity": 0.905511811023622
        },
        {
          "duration": 0.1875,
          "durationTicks": 24,
          "midi": 63,
          "name": "D#4",
          "ticks": 18624,
          "time": 145.5,
          "velocity": 0.937007874015748
        },
        {
          "duration": 0.234375,
          "durationTicks": 30,
          "midi": 59,
          "name": "B3",
          "ticks": 18624,
          "time": 145.5,
          "velocity": 0.905511811023622
        },
        {
          "duration": 0.1875,
          "durationTicks": 24,
          "midi": 42,
          "name": "F#2",
          "ticks": 18624,
          "time": 145.5,
          "velocity": 0.905511811023622
        },
        {
          "duration": 0.1875,
          "durationTicks": 24,
          "midi": 34,
          "name": "A#1",
          "ticks": 18816,
          "time": 147,
          "velocity": 0.4251968503937008
        },
        {
          "duration": 0.1875,
          "durationTicks": 24,
          "midi": 50,
          "name": "D3",
          "ticks": 18816,
          "time": 147,
          "velocity": 0.4251968503937008
        },
        {
          "duration": 0.1875,
          "durationTicks": 24,
          "midi": 54,
          "name": "F#3",
          "ticks": 18816,
          "time": 147,
          "velocity": 0.4251968503937008
        },
        {
          "duration": 0.1875,
          "durationTicks": 24,
          "midi": 34,
          "name": "A#1",
          "ticks": 19008,
          "time": 148.5,
          "velocity": 0.48031496062992124
        },
        {
          "duration": 0.1875,
          "durationTicks": 24,
          "midi": 50,
          "name": "D3",
          "ticks": 19008,
          "time": 148.5,
          "velocity": 0.48031496062992124
        },
        {
          "duration": 0.1875,
          "durationTicks": 24,
          "midi": 54,
          "name": "F#3",
          "ticks": 19008,
          "time": 148.5,
          "velocity": 0.48031496062992124
        },
        {
          "duration": 0.1875,
          "durationTicks": 24,
          "midi": 34,
          "name": "A#1",
          "ticks": 19200,
          "time": 150,
          "velocity": 0.5275590551181102
        },
        {
          "duration": 0.1875,
          "durationTicks": 24,
          "midi": 50,
          "name": "D3",
          "ticks": 19200,
          "time": 150,
          "velocity": 0.5275590551181102
        },
        {
          "duration": 0.1875,
          "durationTicks": 24,
          "midi": 54,
          "name": "F#3",
          "ticks": 19200,
          "time": 150,
          "velocity": 0.5275590551181102
        },
        {
          "duration": 0.1875,
          "durationTicks": 24,
          "midi": 34,
          "name": "A#1",
          "ticks": 19296,
          "time": 150.75,
          "velocity": 0.5433070866141733
        },
        {
          "duration": 0.1875,
          "durationTicks": 24,
          "midi": 50,
          "name": "D3",
          "ticks": 19296,
          "time": 150.75,
          "velocity": 0.5433070866141733
        },
        {
          "duration": 0.1875,
          "durationTicks": 24,
          "midi": 54,
          "name": "F#3",
          "ticks": 19296,
          "time": 150.75,
          "velocity": 0.5433070866141733
        },
        {
          "duration": 0.1875,
          "durationTicks": 24,
          "midi": 54,
          "name": "F#3",
          "ticks": 19392,
          "time": 151.5,
          "velocity": 0.5511811023622047
        },
        {
          "duration": 0.1875,
          "durationTicks": 24,
          "midi": 50,
          "name": "D3",
          "ticks": 19392,
          "time": 151.5,
          "velocity": 0.5511811023622047
        },
        {
          "duration": 0.1875,
          "durationTicks": 24,
          "midi": 34,
          "name": "A#1",
          "ticks": 19392,
          "time": 151.5,
          "velocity": 0.5511811023622047
        },
        {
          "duration": 0.1875,
          "durationTicks": 24,
          "midi": 34,
          "name": "A#1",
          "ticks": 19488,
          "time": 152.25,
          "velocity": 0.5511811023622047
        },
        {
          "duration": 0.1875,
          "durationTicks": 24,
          "midi": 54,
          "name": "F#3",
          "ticks": 19488,
          "time": 152.25,
          "velocity": 0.5511811023622047
        },
        {
          "duration": 0.1875,
          "durationTicks": 24,
          "midi": 50,
          "name": "D3",
          "ticks": 19488,
          "time": 152.25,
          "velocity": 0.5511811023622047
        },
        {
          "duration": 0.1875,
          "durationTicks": 24,
          "midi": 34,
          "name": "A#1",
          "ticks": 19584,
          "time": 153,
          "velocity": 0.5511811023622047
        },
        {
          "duration": 0.1875,
          "durationTicks": 24,
          "midi": 54,
          "name": "F#3",
          "ticks": 19584,
          "time": 153,
          "velocity": 0.5511811023622047
        },
        {
          "duration": 0.1875,
          "durationTicks": 24,
          "midi": 58,
          "name": "A#3",
          "ticks": 19584,
          "time": 153,
          "velocity": 0.5511811023622047
        },
        {
          "duration": 0.1875,
          "durationTicks": 24,
          "midi": 34,
          "name": "A#1",
          "ticks": 19648,
          "time": 153.5,
          "velocity": 0.5669291338582677
        },
        {
          "duration": 0.1875,
          "durationTicks": 24,
          "midi": 54,
          "name": "F#3",
          "ticks": 19648,
          "time": 153.5,
          "velocity": 0.5669291338582677
        },
        {
          "duration": 0.1875,
          "durationTicks": 24,
          "midi": 58,
          "name": "A#3",
          "ticks": 19648,
          "time": 153.5,
          "velocity": 0.5669291338582677
        },
        {
          "duration": 0.1875,
          "durationTicks": 24,
          "midi": 58,
          "name": "A#3",
          "ticks": 19712,
          "time": 154,
          "velocity": 0.5748031496062992
        },
        {
          "duration": 0.1875,
          "durationTicks": 24,
          "midi": 34,
          "name": "A#1",
          "ticks": 19712,
          "time": 154,
          "velocity": 0.5748031496062992
        },
        {
          "duration": 0.1875,
          "durationTicks": 24,
          "midi": 54,
          "name": "F#3",
          "ticks": 19712,
          "time": 154,
          "velocity": 0.5748031496062992
        },
        {
          "duration": 0.1875,
          "durationTicks": 24,
          "midi": 34,
          "name": "A#1",
          "ticks": 19776,
          "time": 154.5,
          "velocity": 0.5748031496062992
        },
        {
          "duration": 0.1875,
          "durationTicks": 24,
          "midi": 58,
          "name": "A#3",
          "ticks": 19776,
          "time": 154.5,
          "velocity": 0.5748031496062992
        },
        {
          "duration": 0.1875,
          "durationTicks": 24,
          "midi": 62,
          "name": "D4",
          "ticks": 19776,
          "time": 154.5,
          "velocity": 0.5748031496062992
        },
        {
          "duration": 0.1875,
          "durationTicks": 24,
          "midi": 34,
          "name": "A#1",
          "ticks": 19840,
          "time": 155,
          "velocity": 0.5748031496062992
        },
        {
          "duration": 0.1875,
          "durationTicks": 24,
          "midi": 58,
          "name": "A#3",
          "ticks": 19840,
          "time": 155,
          "velocity": 0.5748031496062992
        },
        {
          "duration": 0.1875,
          "durationTicks": 24,
          "midi": 62,
          "name": "D4",
          "ticks": 19840,
          "time": 155,
          "velocity": 0.5748031496062992
        },
        {
          "duration": 0.1875,
          "durationTicks": 24,
          "midi": 62,
          "name": "D4",
          "ticks": 19904,
          "time": 155.5,
          "velocity": 0.5748031496062992
        },
        {
          "duration": 0.1875,
          "durationTicks": 24,
          "midi": 58,
          "name": "A#3",
          "ticks": 19904,
          "time": 155.5,
          "velocity": 0.5748031496062992
        },
        {
          "duration": 0.1875,
          "durationTicks": 24,
          "midi": 34,
          "name": "A#1",
          "ticks": 19904,
          "time": 155.5,
          "velocity": 0.5748031496062992
        },
        {
          "duration": 0.1875,
          "durationTicks": 24,
          "midi": 34,
          "name": "A#1",
          "ticks": 19968,
          "time": 156,
          "velocity": 0.5905511811023622
        },
        {
          "duration": 0.1875,
          "durationTicks": 24,
          "midi": 62,
          "name": "D4",
          "ticks": 19968,
          "time": 156,
          "velocity": 0.5905511811023622
        },
        {
          "duration": 0.1875,
          "durationTicks": 24,
          "midi": 66,
          "name": "F#4",
          "ticks": 19968,
          "time": 156,
          "velocity": 0.5905511811023622
        },
        {
          "duration": 0.1875,
          "durationTicks": 24,
          "midi": 34,
          "name": "A#1",
          "ticks": 20016,
          "time": 156.375,
          "velocity": 0.6614173228346457
        },
        {
          "duration": 0.1875,
          "durationTicks": 24,
          "midi": 62,
          "name": "D4",
          "ticks": 20016,
          "time": 156.375,
          "velocity": 0.6614173228346457
        },
        {
          "duration": 0.1875,
          "durationTicks": 24,
          "midi": 66,
          "name": "F#4",
          "ticks": 20016,
          "time": 156.375,
          "velocity": 0.6614173228346457
        },
        {
          "duration": 0.1875,
          "durationTicks": 24,
          "midi": 66,
          "name": "F#4",
          "ticks": 20064,
          "time": 156.75,
          "velocity": 0.6614173228346457
        },
        {
          "duration": 0.1875,
          "durationTicks": 24,
          "midi": 62,
          "name": "D4",
          "ticks": 20064,
          "time": 156.75,
          "velocity": 0.6614173228346457
        },
        {
          "duration": 0.1875,
          "durationTicks": 24,
          "midi": 34,
          "name": "A#1",
          "ticks": 20064,
          "time": 156.75,
          "velocity": 0.6614173228346457
        },
        {
          "duration": 0.1875,
          "durationTicks": 24,
          "midi": 34,
          "name": "A#1",
          "ticks": 20112,
          "time": 157.125,
          "velocity": 0.6692913385826772
        },
        {
          "duration": 0.1875,
          "durationTicks": 24,
          "midi": 66,
          "name": "F#4",
          "ticks": 20112,
          "time": 157.125,
          "velocity": 0.6692913385826772
        },
        {
          "duration": 0.1875,
          "durationTicks": 24,
          "midi": 70,
          "name": "A#4",
          "ticks": 20112,
          "time": 157.125,
          "velocity": 0.6692913385826772
        },
        {
          "duration": 0.1875,
          "durationTicks": 24,
          "midi": 34,
          "name": "A#1",
          "ticks": 20160,
          "time": 157.5,
          "velocity": 0.6929133858267716
        },
        {
          "duration": 0.1875,
          "durationTicks": 24,
          "midi": 66,
          "name": "F#4",
          "ticks": 20160,
          "time": 157.5,
          "velocity": 0.6929133858267716
        },
        {
          "duration": 0.1875,
          "durationTicks": 24,
          "midi": 70,
          "name": "A#4",
          "ticks": 20160,
          "time": 157.5,
          "velocity": 0.6929133858267716
        },
        {
          "duration": 0.1875,
          "durationTicks": 24,
          "midi": 34,
          "name": "A#1",
          "ticks": 20208,
          "time": 157.875,
          "velocity": 0.7086614173228346
        },
        {
          "duration": 0.1875,
          "durationTicks": 24,
          "midi": 66,
          "name": "F#4",
          "ticks": 20208,
          "time": 157.875,
          "velocity": 0.7086614173228346
        },
        {
          "duration": 0.1875,
          "durationTicks": 24,
          "midi": 70,
          "name": "A#4",
          "ticks": 20208,
          "time": 157.875,
          "velocity": 0.7086614173228346
        },
        {
          "duration": 0.1875,
          "durationTicks": 24,
          "midi": 70,
          "name": "A#4",
          "ticks": 20256,
          "time": 158.25,
          "velocity": 0.7244094488188977
        },
        {
          "duration": 0.1875,
          "durationTicks": 24,
          "midi": 34,
          "name": "A#1",
          "ticks": 20256,
          "time": 158.25,
          "velocity": 0.7244094488188977
        },
        {
          "duration": 0.1875,
          "durationTicks": 24,
          "midi": 74,
          "name": "D5",
          "ticks": 20256,
          "time": 158.25,
          "velocity": 0.7244094488188977
        },
        {
          "duration": 0.1875,
          "durationTicks": 24,
          "midi": 74,
          "name": "D5",
          "ticks": 20304,
          "time": 158.625,
          "velocity": 0.7244094488188977
        },
        {
          "duration": 0.1875,
          "durationTicks": 24,
          "midi": 34,
          "name": "A#1",
          "ticks": 20304,
          "time": 158.625,
          "velocity": 0.7244094488188977
        },
        {
          "duration": 0.1875,
          "durationTicks": 24,
          "midi": 70,
          "name": "A#4",
          "ticks": 20304,
          "time": 158.625,
          "velocity": 0.7244094488188977
        },
        {
          "duration": 0.1875,
          "durationTicks": 24,
          "midi": 70,
          "name": "A#4",
          "ticks": 20352,
          "time": 159,
          "velocity": 0.7874015748031497
        },
        {
          "duration": 0.1875,
          "durationTicks": 24,
          "midi": 74,
          "name": "D5",
          "ticks": 20352,
          "time": 159,
          "velocity": 0.7874015748031497
        },
        {
          "duration": 0.1875,
          "durationTicks": 24,
          "midi": 34,
          "name": "A#1",
          "ticks": 20352,
          "time": 159,
          "velocity": 0.7874015748031497
        },
        {
          "duration": 0.1875,
          "durationTicks": 24,
          "midi": 78,
          "name": "F#5",
          "ticks": 20384,
          "time": 159.25,
          "velocity": 0.7874015748031497
        },
        {
          "duration": 0.1875,
          "durationTicks": 24,
          "midi": 34,
          "name": "A#1",
          "ticks": 20384,
          "time": 159.25,
          "velocity": 0.7874015748031497
        },
        {
          "duration": 0.1875,
          "durationTicks": 24,
          "midi": 74,
          "name": "D5",
          "ticks": 20384,
          "time": 159.25,
          "velocity": 0.7874015748031497
        },
        {
          "duration": 0.1875,
          "durationTicks": 24,
          "midi": 34,
          "name": "A#1",
          "ticks": 20416,
          "time": 159.5,
          "velocity": 0.8031496062992126
        },
        {
          "duration": 0.1875,
          "durationTicks": 24,
          "midi": 74,
          "name": "D5",
          "ticks": 20416,
          "time": 159.5,
          "velocity": 0.8031496062992126
        },
        {
          "duration": 0.1875,
          "durationTicks": 24,
          "midi": 78,
          "name": "F#5",
          "ticks": 20416,
          "time": 159.5,
          "velocity": 0.8031496062992126
        },
        {
          "duration": 0.1875,
          "durationTicks": 24,
          "midi": 78,
          "name": "F#5",
          "ticks": 20448,
          "time": 159.75,
          "velocity": 0.8188976377952756
        },
        {
          "duration": 0.1875,
          "durationTicks": 24,
          "midi": 74,
          "name": "D5",
          "ticks": 20448,
          "time": 159.75,
          "velocity": 0.8188976377952756
        },
        {
          "duration": 0.1875,
          "durationTicks": 24,
          "midi": 34,
          "name": "A#1",
          "ticks": 20448,
          "time": 159.75,
          "velocity": 0.8188976377952756
        },
        {
          "duration": 0.1875,
          "durationTicks": 24,
          "midi": 82,
          "name": "A#5",
          "ticks": 20480,
          "time": 160,
          "velocity": 0.8346456692913385
        },
        {
          "duration": 0.1875,
          "durationTicks": 24,
          "midi": 34,
          "name": "A#1",
          "ticks": 20480,
          "time": 160,
          "velocity": 0.8346456692913385
        },
        {
          "duration": 0.1875,
          "durationTicks": 24,
          "midi": 78,
          "name": "F#5",
          "ticks": 20480,
          "time": 160,
          "velocity": 0.8346456692913385
        },
        {
          "duration": 0.1875,
          "durationTicks": 24,
          "midi": 78,
          "name": "F#5",
          "ticks": 20512,
          "time": 160.25,
          "velocity": 0.84251968503937
        },
        {
          "duration": 0.1875,
          "durationTicks": 24,
          "midi": 34,
          "name": "A#1",
          "ticks": 20512,
          "time": 160.25,
          "velocity": 0.84251968503937
        },
        {
          "duration": 0.1875,
          "durationTicks": 24,
          "midi": 82,
          "name": "A#5",
          "ticks": 20512,
          "time": 160.25,
          "velocity": 0.84251968503937
        },
        {
          "duration": 0.1875,
          "durationTicks": 24,
          "midi": 82,
          "name": "A#5",
          "ticks": 20544,
          "time": 160.5,
          "velocity": 0.889763779527559
        },
        {
          "duration": 0.1875,
          "durationTicks": 24,
          "midi": 34,
          "name": "A#1",
          "ticks": 20544,
          "time": 160.5,
          "velocity": 0.889763779527559
        },
        {
          "duration": 0.1875,
          "durationTicks": 24,
          "midi": 78,
          "name": "F#5",
          "ticks": 20544,
          "time": 160.5,
          "velocity": 0.889763779527559
        },
        {
          "duration": 0.1875,
          "durationTicks": 24,
          "midi": 86,
          "name": "D6",
          "ticks": 20576,
          "time": 160.75,
          "velocity": 0.905511811023622
        },
        {
          "duration": 0.1875,
          "durationTicks": 24,
          "midi": 34,
          "name": "A#1",
          "ticks": 20576,
          "time": 160.75,
          "velocity": 0.905511811023622
        },
        {
          "duration": 0.1875,
          "durationTicks": 24,
          "midi": 82,
          "name": "A#5",
          "ticks": 20576,
          "time": 160.75,
          "velocity": 0.905511811023622
        },
        {
          "duration": 0.1875,
          "durationTicks": 24,
          "midi": 86,
          "name": "D6",
          "ticks": 20608,
          "time": 161,
          "velocity": 0.9212598425196851
        },
        {
          "duration": 0.1875,
          "durationTicks": 24,
          "midi": 34,
          "name": "A#1",
          "ticks": 20608,
          "time": 161,
          "velocity": 0.9212598425196851
        },
        {
          "duration": 0.1875,
          "durationTicks": 24,
          "midi": 82,
          "name": "A#5",
          "ticks": 20608,
          "time": 161,
          "velocity": 0.9212598425196851
        },
        {
          "duration": 0.1875,
          "durationTicks": 24,
          "midi": 82,
          "name": "A#5",
          "ticks": 20640,
          "time": 161.25,
          "velocity": 0.937007874015748
        },
        {
          "duration": 0.1875,
          "durationTicks": 24,
          "midi": 34,
          "name": "A#1",
          "ticks": 20640,
          "time": 161.25,
          "velocity": 0.937007874015748
        },
        {
          "duration": 0.1875,
          "durationTicks": 24,
          "midi": 86,
          "name": "D6",
          "ticks": 20640,
          "time": 161.25,
          "velocity": 0.937007874015748
        },
        {
          "duration": 0.1875,
          "durationTicks": 24,
          "midi": 86,
          "name": "D6",
          "ticks": 20672,
          "time": 161.5,
          "velocity": 0.9448818897637795
        },
        {
          "duration": 0.1875,
          "durationTicks": 24,
          "midi": 34,
          "name": "A#1",
          "ticks": 20672,
          "time": 161.5,
          "velocity": 0.9448818897637795
        },
        {
          "duration": 0.1875,
          "durationTicks": 24,
          "midi": 90,
          "name": "F#6",
          "ticks": 20672,
          "time": 161.5,
          "velocity": 0.9448818897637795
        },
        {
          "duration": 0.1875,
          "durationTicks": 24,
          "midi": 90,
          "name": "F#6",
          "ticks": 20704,
          "time": 161.75,
          "velocity": 0.9606299212598425
        },
        {
          "duration": 0.1875,
          "durationTicks": 24,
          "midi": 34,
          "name": "A#1",
          "ticks": 20704,
          "time": 161.75,
          "velocity": 0.9606299212598425
        },
        {
          "duration": 0.1875,
          "durationTicks": 24,
          "midi": 86,
          "name": "D6",
          "ticks": 20704,
          "time": 161.75,
          "velocity": 0.9606299212598425
        },
        {
          "duration": 0.1875,
          "durationTicks": 24,
          "midi": 86,
          "name": "D6",
          "ticks": 20736,
          "time": 162,
          "velocity": 0.9606299212598425
        },
        {
          "duration": 0.1875,
          "durationTicks": 24,
          "midi": 90,
          "name": "F#6",
          "ticks": 20736,
          "time": 162,
          "velocity": 0.9606299212598425
        },
        {
          "duration": 2.25,
          "durationTicks": 288,
          "midi": 94,
          "name": "A#6",
          "ticks": 20832,
          "time": 162.75,
          "velocity": 0.9606299212598425
        },
        {
          "duration": 2.25,
          "durationTicks": 288,
          "midi": 90,
          "name": "F#6",
          "ticks": 20832,
          "time": 162.75,
          "velocity": 0.9606299212598425
        },
        {
          "duration": 2.25,
          "durationTicks": 288,
          "midi": 86,
          "name": "D6",
          "ticks": 20832,
          "time": 162.75,
          "velocity": 0.9606299212598425
        },
        {
          "duration": 2.25,
          "durationTicks": 288,
          "midi": 26,
          "name": "D1",
          "ticks": 20832,
          "time": 162.75,
          "velocity": 0.9606299212598425
        },
        {
          "duration": 2.25,
          "durationTicks": 288,
          "midi": 38,
          "name": "D2",
          "ticks": 20832,
          "time": 162.75,
          "velocity": 0.9606299212598425
        },
        {
          "duration": 1.5,
          "durationTicks": 192,
          "midi": 27,
          "name": "D#1",
          "ticks": 21120,
          "time": 165,
          "velocity": 0.937007874015748
        },
        {
          "duration": 1.5,
          "durationTicks": 192,
          "midi": 39,
          "name": "D#2",
          "ticks": 21120,
          "time": 165,
          "velocity": 0.937007874015748
        },
        {
          "duration": 1.3125,
          "durationTicks": 168,
          "midi": 43,
          "name": "G2",
          "ticks": 21312,
          "time": 166.5,
          "velocity": 0.937007874015748
        },
        {
          "duration": 1.3125,
          "durationTicks": 168,
          "midi": 31,
          "name": "G1",
          "ticks": 21312,
          "time": 166.5,
          "velocity": 0.937007874015748
        },
        {
          "duration": 0.1875,
          "durationTicks": 24,
          "midi": 44,
          "name": "G#2",
          "ticks": 21480,
          "time": 167.8125,
          "velocity": 0.937007874015748
        },
        {
          "duration": 0.1875,
          "durationTicks": 24,
          "midi": 32,
          "name": "G#1",
          "ticks": 21480,
          "time": 167.8125,
          "velocity": 0.937007874015748
        },
        {
          "duration": 0.09375,
          "durationTicks": 12,
          "midi": 44,
          "name": "G#2",
          "ticks": 21504,
          "time": 168,
          "velocity": 0.8346456692913385
        },
        {
          "duration": 0.09375,
          "durationTicks": 12,
          "midi": 32,
          "name": "G#1",
          "ticks": 21504,
          "time": 168,
          "velocity": 0.8346456692913385
        },
        {
          "duration": 0.046875,
          "durationTicks": 6,
          "midi": 47,
          "name": "B2",
          "ticks": 21600,
          "time": 168.75,
          "velocity": 0.9291338582677166
        },
        {
          "duration": 0.046875,
          "durationTicks": 6,
          "midi": 44,
          "name": "G#2",
          "ticks": 21600,
          "time": 168.75,
          "velocity": 0.9291338582677166
        },
        {
          "duration": 0.046875,
          "durationTicks": 6,
          "midi": 39,
          "name": "D#2",
          "ticks": 21600,
          "time": 168.75,
          "velocity": 0.9291338582677166
        },
        {
          "duration": 0.046875,
          "durationTicks": 6,
          "midi": 39,
          "name": "D#2",
          "ticks": 21696,
          "time": 169.5,
          "velocity": 0.9291338582677166
        },
        {
          "duration": 0.046875,
          "durationTicks": 6,
          "midi": 47,
          "name": "B2",
          "ticks": 21792,
          "time": 170.25,
          "velocity": 0.9291338582677166
        },
        {
          "duration": 0.046875,
          "durationTicks": 6,
          "midi": 43,
          "name": "G2",
          "ticks": 21792,
          "time": 170.25,
          "velocity": 0.9291338582677166
        },
        {
          "duration": 0.046875,
          "durationTicks": 6,
          "midi": 39,
          "name": "D#2",
          "ticks": 21792,
          "time": 170.25,
          "velocity": 0.9291338582677166
        },
        {
          "duration": 0.046875,
          "durationTicks": 6,
          "midi": 44,
          "name": "G#2",
          "ticks": 21888,
          "time": 171,
          "velocity": 0.9291338582677166
        },
        {
          "duration": 0.046875,
          "durationTicks": 6,
          "midi": 47,
          "name": "B2",
          "ticks": 21936,
          "time": 171.375,
          "velocity": 0.9291338582677166
        },
        {
          "duration": 0.046875,
          "durationTicks": 6,
          "midi": 44,
          "name": "G#2",
          "ticks": 21936,
          "time": 171.375,
          "velocity": 0.9291338582677166
        },
        {
          "duration": 0.046875,
          "durationTicks": 6,
          "midi": 39,
          "name": "D#2",
          "ticks": 21936,
          "time": 171.375,
          "velocity": 0.9291338582677166
        },
        {
          "duration": 0.046875,
          "durationTicks": 6,
          "midi": 39,
          "name": "D#2",
          "ticks": 21984,
          "time": 171.75,
          "velocity": 0.9291338582677166
        },
        {
          "duration": 0.046875,
          "durationTicks": 6,
          "midi": 47,
          "name": "B2",
          "ticks": 22032,
          "time": 172.125,
          "velocity": 0.9291338582677166
        },
        {
          "duration": 0.046875,
          "durationTicks": 6,
          "midi": 43,
          "name": "G2",
          "ticks": 22032,
          "time": 172.125,
          "velocity": 0.9291338582677166
        },
        {
          "duration": 0.609375,
          "durationTicks": 78,
          "midi": 27,
          "name": "D#1",
          "ticks": 22176,
          "time": 173.25,
          "velocity": 0.952755905511811
        },
        {
          "duration": 0.046875,
          "durationTicks": 6,
          "midi": 44,
          "name": "G#2",
          "ticks": 22272,
          "time": 174,
          "velocity": 0.952755905511811
        },
        {
          "duration": 0.046875,
          "durationTicks": 6,
          "midi": 32,
          "name": "G#1",
          "ticks": 22272,
          "time": 174,
          "velocity": 0.952755905511811
        },
        {
          "duration": 0.046875,
          "durationTicks": 6,
          "midi": 47,
          "name": "B2",
          "ticks": 22368,
          "time": 174.75,
          "velocity": 0.9291338582677166
        },
        {
          "duration": 0.046875,
          "durationTicks": 6,
          "midi": 44,
          "name": "G#2",
          "ticks": 22368,
          "time": 174.75,
          "velocity": 0.9291338582677166
        },
        {
          "duration": 0.046875,
          "durationTicks": 6,
          "midi": 39,
          "name": "D#2",
          "ticks": 22368,
          "time": 174.75,
          "velocity": 0.9291338582677166
        },
        {
          "duration": 0.046875,
          "durationTicks": 6,
          "midi": 39,
          "name": "D#2",
          "ticks": 22464,
          "time": 175.5,
          "velocity": 0.9291338582677166
        },
        {
          "duration": 0.046875,
          "durationTicks": 6,
          "midi": 47,
          "name": "B2",
          "ticks": 22560,
          "time": 176.25,
          "velocity": 0.9291338582677166
        },
        {
          "duration": 0.046875,
          "durationTicks": 6,
          "midi": 43,
          "name": "G2",
          "ticks": 22560,
          "time": 176.25,
          "velocity": 0.9291338582677166
        },
        {
          "duration": 0.046875,
          "durationTicks": 6,
          "midi": 44,
          "name": "G#2",
          "ticks": 22656,
          "time": 177,
          "velocity": 0.9291338582677166
        },
        {
          "duration": 0.046875,
          "durationTicks": 6,
          "midi": 47,
          "name": "B2",
          "ticks": 22704,
          "time": 177.375,
          "velocity": 0.9291338582677166
        },
        {
          "duration": 0.046875,
          "durationTicks": 6,
          "midi": 44,
          "name": "G#2",
          "ticks": 22704,
          "time": 177.375,
          "velocity": 0.9291338582677166
        },
        {
          "duration": 0.046875,
          "durationTicks": 6,
          "midi": 39,
          "name": "D#2",
          "ticks": 22704,
          "time": 177.375,
          "velocity": 0.9291338582677166
        },
        {
          "duration": 0.046875,
          "durationTicks": 6,
          "midi": 39,
          "name": "D#2",
          "ticks": 22752,
          "time": 177.75,
          "velocity": 0.9291338582677166
        },
        {
          "duration": 0.046875,
          "durationTicks": 6,
          "midi": 43,
          "name": "G2",
          "ticks": 22800,
          "time": 178.125,
          "velocity": 0.9291338582677166
        },
        {
          "duration": 0.046875,
          "durationTicks": 6,
          "midi": 47,
          "name": "B2",
          "ticks": 22800,
          "time": 178.125,
          "velocity": 0.9291338582677166
        },
        {
          "duration": 0.75,
          "durationTicks": 96,
          "midi": 39,
          "name": "D#2",
          "ticks": 22944,
          "time": 179.25,
          "velocity": 0.8188976377952756
        },
        {
          "duration": 0.75,
          "durationTicks": 96,
          "midi": 51,
          "name": "D#3",
          "ticks": 22944,
          "time": 179.25,
          "velocity": 0.8188976377952756
        },
        {
          "duration": 3.046875,
          "durationTicks": 390,
          "midi": 44,
          "name": "G#2",
          "ticks": 23040,
          "time": 180,
          "velocity": 0.8661417322834646
        },
        {
          "duration": 3.046875,
          "durationTicks": 390,
          "midi": 32,
          "name": "G#1",
          "ticks": 23040,
          "time": 180,
          "velocity": 0.8661417322834646
        }
      ],
      "endOfTrackTicks": 23883
    },
    {
      "channel": 4,
      "controlChanges": {
        "6": [
          {
            "number": 6,
            "ticks": 0,
            "time": 0,
            "value": 0.09448818897637795
          },
          {
            "number": 6,
            "ticks": 0,
            "time": 0,
            "value": 0.09448818897637795
          },
          {
            "number": 6,
            "ticks": 0,
            "time": 0,
            "value": 0.09448818897637795
          },
          {
            "number": 6,
            "ticks": 23808,
            "time": 186,
            "value": 0.09448818897637795
          },
          {
            "number": 6,
            "ticks": 23883,
            "time": 186.5859375,
            "value": 0.09448818897637795
          }
        ],
        "7": [
          {
            "number": 7,
            "ticks": 0,
            "time": 0,
            "value": 0.7874015748031497
          },
          {
            "number": 7,
            "ticks": 0,
            "time": 0,
            "value": 0.7874015748031497
          },
          {
            "number": 7,
            "ticks": 0,
            "time": 0,
            "value": 0.7874015748031497
          },
          {
            "number": 7,
            "ticks": 0,
            "time": 0,
            "value": 0.7874015748031497
          },
          {
            "number": 7,
            "ticks": 23808,
            "time": 186,
            "value": 0.7874015748031497
          },
          {
            "number": 7,
            "ticks": 23883,
            "time": 186.5859375,
            "value": 0.7874015748031497
          }
        ],
        "10": [
          {
            "number": 10,
            "ticks": 0,
            "time": 0,
            "value": 0.5039370078740157
          },
          {
            "number": 10,
            "ticks": 0,
            "time": 0,
            "value": 0.5039370078740157
          },
          {
            "number": 10,
            "ticks": 0,
            "time": 0,
            "value": 0.5039370078740157
          },
          {
            "number": 10,
            "ticks": 0,
            "time": 0,
            "value": 0.5039370078740157
          },
          {
            "number": 10,
            "ticks": 23808,
            "time": 186,
            "value": 0.5039370078740157
          },
          {
            "number": 10,
            "ticks": 23883,
            "time": 186.5859375,
            "value": 0.5039370078740157
          }
        ],
        "100": [
          {
            "number": 100,
            "ticks": 0,
            "time": 0,
            "value": 0
          },
          {
            "number": 100,
            "ticks": 0,
            "time": 0,
            "value": 0
          },
          {
            "number": 100,
            "ticks": 0,
            "time": 0,
            "value": 0
          },
          {
            "number": 100,
            "ticks": 23808,
            "time": 186,
            "value": 0
          },
          {
            "number": 100,
            "ticks": 23883,
            "time": 186.5859375,
            "value": 0
          }
        ],
        "101": [
          {
            "number": 101,
            "ticks": 0,
            "time": 0,
            "value": 0
          },
          {
            "number": 101,
            "ticks": 0,
            "time": 0,
            "value": 0
          },
          {
            "number": 101,
            "ticks": 0,
            "time": 0,
            "value": 0
          },
          {
            "number": 101,
            "ticks": 23808,
            "time": 186,
            "value": 0
          },
          {
            "number": 101,
            "ticks": 23883,
            "time": 186.5859375,
            "value": 0
          }
        ]
      },
      "pitchBends": [
        {
          "ticks": 0,
          "time": 0,
          "value": 0
        },
        {
          "ticks": 0,
          "time": 0,
          "value": 0
        },
        {
          "ticks": 0,
          "time": 0,
          "value": 0
        },
        {
          "ticks": 0,
          "time": 0,
          "value": 0
        },
        {
          "ticks": 23808,
          "time": 186,
          "value": 0
        },
        {
          "ticks": 23883,
          "time": 186.5859375,
          "value": 0
        }
      ],
      "instrument": {
        "family": "piano",
        "number": 0,
        "name": "acoustic grand piano"
      },
      "name": "gUITAR cHAIN",
      "notes": [
        {
          "duration": 0.1875,
          "durationTicks": 24,
          "midi": 71,
          "name": "B4",
          "ticks": 384,
          "time": 3,
          "velocity": 0.952755905511811
        },
        {
          "duration": 0.1875,
          "durationTicks": 24,
          "midi": 71,
          "name": "B4",
          "ticks": 480,
          "time": 3.75,
          "velocity": 0.9448818897637795
        },
        {
          "duration": 0.1875,
          "durationTicks": 24,
          "midi": 70,
          "name": "A#4",
          "ticks": 576,
          "time": 4.5,
          "velocity": 0.9448818897637795
        },
        {
          "duration": 0.1875,
          "durationTicks": 24,
          "midi": 70,
          "name": "A#4",
          "ticks": 672,
          "time": 5.25,
          "velocity": 0.9448818897637795
        },
        {
          "duration": 0.1875,
          "durationTicks": 24,
          "midi": 71,
          "name": "B4",
          "ticks": 768,
          "time": 6,
          "velocity": 0.9448818897637795
        },
        {
          "duration": 0.1875,
          "durationTicks": 24,
          "midi": 70,
          "name": "A#4",
          "ticks": 864,
          "time": 6.75,
          "velocity": 0.9448818897637795
        },
        {
          "duration": 0.1875,
          "durationTicks": 24,
          "midi": 71,
          "name": "B4",
          "ticks": 1152,
          "time": 9,
          "velocity": 0.952755905511811
        },
        {
          "duration": 0.1875,
          "durationTicks": 24,
          "midi": 71,
          "name": "B4",
          "ticks": 1248,
          "time": 9.75,
          "velocity": 0.952755905511811
        },
        {
          "duration": 0.1875,
          "durationTicks": 24,
          "midi": 70,
          "name": "A#4",
          "ticks": 1344,
          "time": 10.5,
          "velocity": 0.952755905511811
        },
        {
          "duration": 0.1875,
          "durationTicks": 24,
          "midi": 70,
          "name": "A#4",
          "ticks": 1440,
          "time": 11.25,
          "velocity": 0.952755905511811
        },
        {
          "duration": 0.1875,
          "durationTicks": 24,
          "midi": 71,
          "name": "B4",
          "ticks": 1536,
          "time": 12,
          "velocity": 0.952755905511811
        },
        {
          "duration": 0.1875,
          "durationTicks": 24,
          "midi": 70,
          "name": "A#4",
          "ticks": 1632,
          "time": 12.75,
          "velocity": 0.9133858267716536
        },
        {
          "duration": 0.75,
          "durationTicks": 96,
          "midi": 56,
          "name": "G#3",
          "ticks": 2016,
          "time": 15.75,
          "velocity": 0.9133858267716536
        },
        {
          "duration": 0.75,
          "durationTicks": 96,
          "midi": 58,
          "name": "A#3",
          "ticks": 2112,
          "time": 16.5,
          "velocity": 0.9133858267716536
        },
        {
          "duration": 0.75,
          "durationTicks": 96,
          "midi": 59,
          "name": "B3",
          "ticks": 2208,
          "time": 17.25,
          "velocity": 0.9133858267716536
        },
        {
          "duration": 0.75,
          "durationTicks": 96,
          "midi": 65,
          "name": "F4",
          "ticks": 2304,
          "time": 18,
          "velocity": 0.9133858267716536
        },
        {
          "duration": 0.75,
          "durationTicks": 96,
          "midi": 66,
          "name": "F#4",
          "ticks": 2400,
          "time": 18.75,
          "velocity": 0.9133858267716536
        },
        {
          "duration": 0.0625,
          "durationTicks": 8,
          "midi": 65,
          "name": "F4",
          "ticks": 2496,
          "time": 19.5,
          "velocity": 0.9133858267716536
        },
        {
          "duration": 0.0625,
          "durationTicks": 8,
          "midi": 66,
          "name": "F#4",
          "ticks": 2504,
          "time": 19.5625,
          "velocity": 0.9133858267716536
        },
        {
          "duration": 0.625,
          "durationTicks": 80,
          "midi": 65,
          "name": "F4",
          "ticks": 2512,
          "time": 19.625,
          "velocity": 0.9133858267716536
        },
        {
          "duration": 0.75,
          "durationTicks": 96,
          "midi": 63,
          "name": "D#4",
          "ticks": 2592,
          "time": 20.25,
          "velocity": 0.9133858267716536
        },
        {
          "duration": 2.25,
          "durationTicks": 288,
          "midi": 62,
          "name": "D4",
          "ticks": 2688,
          "time": 21,
          "velocity": 0.9133858267716536
        },
        {
          "duration": 0.75,
          "durationTicks": 96,
          "midi": 63,
          "name": "D#4",
          "ticks": 2976,
          "time": 23.25,
          "velocity": 0.905511811023622
        },
        {
          "duration": 3.75,
          "durationTicks": 480,
          "midi": 58,
          "name": "A#3",
          "ticks": 3072,
          "time": 24,
          "velocity": 0.905511811023622
        },
        {
          "duration": 0.75,
          "durationTicks": 96,
          "midi": 56,
          "name": "G#3",
          "ticks": 3552,
          "time": 27.75,
          "velocity": 0.905511811023622
        },
        {
          "duration": 0.75,
          "durationTicks": 96,
          "midi": 58,
          "name": "A#3",
          "ticks": 3648,
          "time": 28.5,
          "velocity": 0.8976377952755905
        },
        {
          "duration": 0.75,
          "durationTicks": 96,
          "midi": 59,
          "name": "B3",
          "ticks": 3744,
          "time": 29.25,
          "velocity": 0.8976377952755905
        },
        {
          "duration": 0.75,
          "durationTicks": 96,
          "midi": 65,
          "name": "F4",
          "ticks": 3840,
          "time": 30,
          "velocity": 0.8976377952755905
        },
        {
          "duration": 0.75,
          "durationTicks": 96,
          "midi": 63,
          "name": "D#4",
          "ticks": 3936,
          "time": 30.75,
          "velocity": 0.8976377952755905
        },
        {
          "duration": 0.75,
          "durationTicks": 96,
          "midi": 65,
          "name": "F4",
          "ticks": 4032,
          "time": 31.5,
          "velocity": 0.889763779527559
        },
        {
          "duration": 0.75,
          "durationTicks": 96,
          "midi": 66,
          "name": "F#4",
          "ticks": 4128,
          "time": 32.25,
          "velocity": 0.889763779527559
        },
        {
          "duration": 2.625,
          "durationTicks": 336,
          "midi": 67,
          "name": "G4",
          "ticks": 4224,
          "time": 33,
          "velocity": 0.889763779527559
        },
        {
          "duration": 0.125,
          "durationTicks": 16,
          "midi": 62,
          "name": "D4",
          "ticks": 4560,
          "time": 35.625,
          "velocity": 0.889763779527559
        },
        {
          "duration": 0.125,
          "durationTicks": 16,
          "midi": 63,
          "name": "D#4",
          "ticks": 4576,
          "time": 35.75,
          "velocity": 0.7874015748031497
        },
        {
          "duration": 0.125,
          "durationTicks": 16,
          "midi": 64,
          "name": "E4",
          "ticks": 4592,
          "time": 35.875,
          "velocity": 0.7874015748031497
        },
        {
          "duration": 3,
          "durationTicks": 384,
          "midi": 63,
          "name": "D#4",
          "ticks": 4608,
          "time": 36,
          "velocity": 0.889763779527559
        },
        {
          "duration": 1.3125,
          "durationTicks": 168,
          "midi": 73,
          "name": "C#5",
          "ticks": 4992,
          "time": 39,
          "velocity": 0.889763779527559
        },
        {
          "duration": 0.1875,
          "durationTicks": 24,
          "midi": 73,
          "name": "C#5",
          "ticks": 5160,
          "time": 40.3125,
          "velocity": 0.889763779527559
        },
        {
          "duration": 0.375,
          "durationTicks": 48,
          "midi": 73,
          "name": "C#5",
          "ticks": 5184,
          "time": 40.5,
          "velocity": 0.889763779527559
        },
        {
          "duration": 0.1875,
          "durationTicks": 24,
          "midi": 71,
          "name": "B4",
          "ticks": 5232,
          "time": 40.875,
          "velocity": 0.889763779527559
        },
        {
          "duration": 0.1875,
          "durationTicks": 24,
          "midi": 70,
          "name": "A#4",
          "ticks": 5256,
          "time": 41.0625,
          "velocity": 0.889763779527559
        },
        {
          "duration": 0.375,
          "durationTicks": 48,
          "midi": 73,
          "name": "C#5",
          "ticks": 5280,
          "time": 41.25,
          "velocity": 0.889763779527559
        },
        {
          "duration": 0.1875,
          "durationTicks": 24,
          "midi": 71,
          "name": "B4",
          "ticks": 5328,
          "time": 41.625,
          "velocity": 0.889763779527559
        },
        {
          "duration": 0.1875,
          "durationTicks": 24,
          "midi": 70,
          "name": "A#4",
          "ticks": 5352,
          "time": 41.8125,
          "velocity": 0.889763779527559
        },
        {
          "duration": 1.3125,
          "durationTicks": 168,
          "midi": 69,
          "name": "A4",
          "ticks": 5376,
          "time": 42,
          "velocity": 0.889763779527559
        },
        {
          "duration": 0.1875,
          "durationTicks": 24,
          "midi": 69,
          "name": "A4",
          "ticks": 5544,
          "time": 43.3125,
          "velocity": 0.889763779527559
        },
        {
          "duration": 0.375,
          "durationTicks": 48,
          "midi": 69,
          "name": "A4",
          "ticks": 5568,
          "time": 43.5,
          "velocity": 0.889763779527559
        },
        {
          "duration": 0.1875,
          "durationTicks": 24,
          "midi": 67,
          "name": "G4",
          "ticks": 5616,
          "time": 43.875,
          "velocity": 0.8818897637795275
        },
        {
          "duration": 0.1875,
          "durationTicks": 24,
          "midi": 66,
          "name": "F#4",
          "ticks": 5640,
          "time": 44.0625,
          "velocity": 0.7874015748031497
        },
        {
          "duration": 0.375,
          "durationTicks": 48,
          "midi": 69,
          "name": "A4",
          "ticks": 5664,
          "time": 44.25,
          "velocity": 0.889763779527559
        },
        {
          "duration": 0.1875,
          "durationTicks": 24,
          "midi": 67,
          "name": "G4",
          "ticks": 5712,
          "time": 44.625,
          "velocity": 0.889763779527559
        },
        {
          "duration": 0.1875,
          "durationTicks": 24,
          "midi": 66,
          "name": "F#4",
          "ticks": 5736,
          "time": 44.8125,
          "velocity": 0.889763779527559
        },
        {
          "duration": 1.5,
          "durationTicks": 192,
          "midi": 65,
          "name": "F4",
          "ticks": 5760,
          "time": 45,
          "velocity": 0.889763779527559
        },
        {
          "duration": 1.5,
          "durationTicks": 192,
          "midi": 64,
          "name": "E4",
          "ticks": 5952,
          "time": 46.5,
          "velocity": 0.889763779527559
        },
        {
          "duration": 3.015625,
          "durationTicks": 386,
          "midi": 63,
          "name": "D#4",
          "ticks": 6144,
          "time": 48,
          "velocity": 0.889763779527559
        },
        {
          "duration": 0.1875,
          "durationTicks": 24,
          "midi": 71,
          "name": "B4",
          "ticks": 6528,
          "time": 51,
          "velocity": 0.968503937007874
        },
        {
          "duration": 0.1875,
          "durationTicks": 24,
          "midi": 71,
          "name": "B4",
          "ticks": 6624,
          "time": 51.75,
          "velocity": 0.968503937007874
        },
        {
          "duration": 0.1875,
          "durationTicks": 24,
          "midi": 70,
          "name": "A#4",
          "ticks": 6720,
          "time": 52.5,
          "velocity": 0.9763779527559056
        },
        {
          "duration": 0.1875,
          "durationTicks": 24,
          "midi": 70,
          "name": "A#4",
          "ticks": 6816,
          "time": 53.25,
          "velocity": 0.9763779527559056
        },
        {
          "duration": 0.1875,
          "durationTicks": 24,
          "midi": 71,
          "name": "B4",
          "ticks": 6912,
          "time": 54,
          "velocity": 0.9763779527559056
        },
        {
          "duration": 0.1875,
          "durationTicks": 24,
          "midi": 70,
          "name": "A#4",
          "ticks": 7008,
          "time": 54.75,
          "velocity": 0.984251968503937
        },
        {
          "duration": 0.1875,
          "durationTicks": 24,
          "midi": 71,
          "name": "B4",
          "ticks": 7296,
          "time": 57,
          "velocity": 0.984251968503937
        },
        {
          "duration": 0.1875,
          "durationTicks": 24,
          "midi": 71,
          "name": "B4",
          "ticks": 7392,
          "time": 57.75,
          "velocity": 0.984251968503937
        },
        {
          "duration": 0.1875,
          "durationTicks": 24,
          "midi": 70,
          "name": "A#4",
          "ticks": 7488,
          "time": 58.5,
          "velocity": 0.984251968503937
        },
        {
          "duration": 0.1875,
          "durationTicks": 24,
          "midi": 70,
          "name": "A#4",
          "ticks": 7584,
          "time": 59.25,
          "velocity": 0.9921259842519685
        },
        {
          "duration": 0.1875,
          "durationTicks": 24,
          "midi": 71,
          "name": "B4",
          "ticks": 7680,
          "time": 60,
          "velocity": 0.9921259842519685
        },
        {
          "duration": 0.1875,
          "durationTicks": 24,
          "midi": 70,
          "name": "A#4",
          "ticks": 7776,
          "time": 60.75,
          "velocity": 0.9921259842519685
        },
        {
          "duration": 0.375,
          "durationTicks": 48,
          "midi": 59,
          "name": "B3",
          "ticks": 8064,
          "time": 63,
          "velocity": 0.7244094488188977
        },
        {
          "duration": 0.75,
          "durationTicks": 96,
          "midi": 60,
          "name": "C4",
          "ticks": 8112,
          "time": 63.375,
          "velocity": 0.7322834645669292
        },
        {
          "duration": 0.75,
          "durationTicks": 96,
          "midi": 64,
          "name": "E4",
          "ticks": 8160,
          "time": 63.75,
          "velocity": 0.7322834645669292
        },
        {
          "duration": 0.75,
          "durationTicks": 96,
          "midi": 56,
          "name": "G#3",
          "ticks": 8208,
          "time": 64.125,
          "velocity": 0.7401574803149606
        },
        {
          "duration": 0.75,
          "durationTicks": 96,
          "midi": 64,
          "name": "E4",
          "ticks": 8256,
          "time": 64.5,
          "velocity": 0.7401574803149606
        },
        {
          "duration": 0.75,
          "durationTicks": 96,
          "midi": 56,
          "name": "G#3",
          "ticks": 8304,
          "time": 64.875,
          "velocity": 0.7401574803149606
        },
        {
          "duration": 0.75,
          "durationTicks": 96,
          "midi": 64,
          "name": "E4",
          "ticks": 8352,
          "time": 65.25,
          "velocity": 0.7401574803149606
        },
        {
          "duration": 0.375,
          "durationTicks": 48,
          "midi": 56,
          "name": "G#3",
          "ticks": 8400,
          "time": 65.625,
          "velocity": 0.7322834645669292
        },
        {
          "duration": 0.375,
          "durationTicks": 48,
          "midi": 59,
          "name": "B3",
          "ticks": 8448,
          "time": 66,
          "velocity": 0.7322834645669292
        },
        {
          "duration": 0.75,
          "durationTicks": 96,
          "midi": 58,
          "name": "A#3",
          "ticks": 8496,
          "time": 66.375,
          "velocity": 0.7322834645669292
        },
        {
          "duration": 0.75,
          "durationTicks": 96,
          "midi": 63,
          "name": "D#4",
          "ticks": 8544,
          "time": 66.75,
          "velocity": 0.7322834645669292
        },
        {
          "duration": 0.75,
          "durationTicks": 96,
          "midi": 55,
          "name": "G3",
          "ticks": 8592,
          "time": 67.125,
          "velocity": 0.7322834645669292
        },
        {
          "duration": 0.75,
          "durationTicks": 96,
          "midi": 63,
          "name": "D#4",
          "ticks": 8640,
          "time": 67.5,
          "velocity": 0.7322834645669292
        },
        {
          "duration": 0.75,
          "durationTicks": 96,
          "midi": 55,
          "name": "G3",
          "ticks": 8688,
          "time": 67.875,
          "velocity": 0.7480314960629921
        },
        {
          "duration": 0.75,
          "durationTicks": 96,
          "midi": 63,
          "name": "D#4",
          "ticks": 8736,
          "time": 68.25,
          "velocity": 0.7480314960629921
        },
        {
          "duration": 0.375,
          "durationTicks": 48,
          "midi": 55,
          "name": "G3",
          "ticks": 8784,
          "time": 68.625,
          "velocity": 0.7480314960629921
        },
        {
          "duration": 0.375,
          "durationTicks": 48,
          "midi": 59,
          "name": "B3",
          "ticks": 8832,
          "time": 69,
          "velocity": 0.7480314960629921
        },
        {
          "duration": 0.75,
          "durationTicks": 96,
          "midi": 60,
          "name": "C4",
          "ticks": 8880,
          "time": 69.375,
          "velocity": 0.7480314960629921
        },
        {
          "duration": 0.75,
          "durationTicks": 96,
          "midi": 64,
          "name": "E4",
          "ticks": 8928,
          "time": 69.75,
          "velocity": 0.7480314960629921
        },
        {
          "duration": 0.75,
          "durationTicks": 96,
          "midi": 56,
          "name": "G#3",
          "ticks": 8976,
          "time": 70.125,
          "velocity": 0.7480314960629921
        },
        {
          "duration": 0.75,
          "durationTicks": 96,
          "midi": 64,
          "name": "E4",
          "ticks": 9024,
          "time": 70.5,
          "velocity": 0.7480314960629921
        },
        {
          "duration": 0.75,
          "durationTicks": 96,
          "midi": 56,
          "name": "G#3",
          "ticks": 9072,
          "time": 70.875,
          "velocity": 0.7480314960629921
        },
        {
          "duration": 0.75,
          "durationTicks": 96,
          "midi": 64,
          "name": "E4",
          "ticks": 9120,
          "time": 71.25,
          "velocity": 0.7480314960629921
        },
        {
          "duration": 0.375,
          "durationTicks": 48,
          "midi": 56,
          "name": "G#3",
          "ticks": 9168,
          "time": 71.625,
          "velocity": 0.7480314960629921
        },
        {
          "duration": 0.375,
          "durationTicks": 48,
          "midi": 59,
          "name": "B3",
          "ticks": 9216,
          "time": 72,
          "velocity": 0.7401574803149606
        },
        {
          "duration": 0.75,
          "durationTicks": 96,
          "midi": 58,
          "name": "A#3",
          "ticks": 9264,
          "time": 72.375,
          "velocity": 0.7401574803149606
        },
        {
          "duration": 0.75,
          "durationTicks": 96,
          "midi": 63,
          "name": "D#4",
          "ticks": 9312,
          "time": 72.75,
          "velocity": 0.7401574803149606
        },
        {
          "duration": 0.75,
          "durationTicks": 96,
          "midi": 55,
          "name": "G3",
          "ticks": 9360,
          "time": 73.125,
          "velocity": 0.7401574803149606
        },
        {
          "duration": 0.75,
          "durationTicks": 96,
          "midi": 63,
          "name": "D#4",
          "ticks": 9408,
          "time": 73.5,
          "velocity": 0.7401574803149606
        },
        {
          "duration": 0.75,
          "durationTicks": 96,
          "midi": 55,
          "name": "G3",
          "ticks": 9456,
          "time": 73.875,
          "velocity": 0.7401574803149606
        },
        {
          "duration": 0.75,
          "durationTicks": 96,
          "midi": 63,
          "name": "D#4",
          "ticks": 9504,
          "time": 74.25,
          "velocity": 0.7244094488188977
        },
        {
          "duration": 0.375,
          "durationTicks": 48,
          "midi": 55,
          "name": "G3",
          "ticks": 9552,
          "time": 74.625,
          "velocity": 0.7244094488188977
        },
        {
          "duration": 1.5,
          "durationTicks": 192,
          "midi": 44,
          "name": "G#2",
          "ticks": 9600,
          "time": 75,
          "velocity": 0.905511811023622
        },
        {
          "duration": 0.75,
          "durationTicks": 96,
          "midi": 66,
          "name": "F#4",
          "ticks": 9600,
          "time": 75,
          "velocity": 0.7401574803149606
        },
        {
          "duration": 0.75,
          "durationTicks": 96,
          "midi": 62,
          "name": "D4",
          "ticks": 9648,
          "time": 75.375,
          "velocity": 0.7480314960629921
        },
        {
          "duration": 0.75,
          "durationTicks": 96,
          "midi": 66,
          "name": "F#4",
          "ticks": 9696,
          "time": 75.75,
          "velocity": 0.7165354330708661
        },
        {
          "duration": 0.75,
          "durationTicks": 96,
          "midi": 62,
          "name": "D4",
          "ticks": 9744,
          "time": 76.125,
          "velocity": 0.7165354330708661
        },
        {
          "duration": 0.7421875,
          "durationTicks": 95,
          "midi": 66,
          "name": "F#4",
          "ticks": 9792,
          "time": 76.5,
          "velocity": 0.7165354330708661
        },
        {
          "duration": 1.5,
          "durationTicks": 192,
          "midi": 46,
          "name": "A#2",
          "ticks": 9792,
          "time": 76.5,
          "velocity": 0.9133858267716536
        },
        {
          "duration": 0.75,
          "durationTicks": 96,
          "midi": 62,
          "name": "D4",
          "ticks": 9840,
          "time": 76.875,
          "velocity": 0.7165354330708661
        },
        {
          "duration": 0.75,
          "durationTicks": 96,
          "midi": 66,
          "name": "F#4",
          "ticks": 9887,
          "time": 77.2421875,
          "velocity": 0.7165354330708661
        },
        {
          "duration": 0.75,
          "durationTicks": 96,
          "midi": 62,
          "name": "D4",
          "ticks": 9936,
          "time": 77.625,
          "velocity": 0.7165354330708661
        },
        {
          "duration": 0.75,
          "durationTicks": 96,
          "midi": 66,
          "name": "F#4",
          "ticks": 9984,
          "time": 78,
          "velocity": 0.7165354330708661
        },
        {
          "duration": 1.5,
          "durationTicks": 192,
          "midi": 47,
          "name": "B2",
          "ticks": 9984,
          "time": 78,
          "velocity": 0.905511811023622
        },
        {
          "duration": 0.75,
          "durationTicks": 96,
          "midi": 62,
          "name": "D4",
          "ticks": 10032,
          "time": 78.375,
          "velocity": 0.7165354330708661
        },
        {
          "duration": 0.75,
          "durationTicks": 96,
          "midi": 66,
          "name": "F#4",
          "ticks": 10080,
          "time": 78.75,
          "velocity": 0.7165354330708661
        },
        {
          "duration": 0.75,
          "durationTicks": 96,
          "midi": 62,
          "name": "D4",
          "ticks": 10128,
          "time": 79.125,
          "velocity": 0.7165354330708661
        },
        {
          "duration": 0.75,
          "durationTicks": 96,
          "midi": 66,
          "name": "F#4",
          "ticks": 10176,
          "time": 79.5,
          "velocity": 0.7165354330708661
        },
        {
          "duration": 1.5,
          "durationTicks": 192,
          "midi": 49,
          "name": "C#3",
          "ticks": 10176,
          "time": 79.5,
          "velocity": 0.905511811023622
        },
        {
          "duration": 0.75,
          "durationTicks": 96,
          "midi": 62,
          "name": "D4",
          "ticks": 10224,
          "time": 79.875,
          "velocity": 0.7165354330708661
        },
        {
          "duration": 0.75,
          "durationTicks": 96,
          "midi": 66,
          "name": "F#4",
          "ticks": 10272,
          "time": 80.25,
          "velocity": 0.7165354330708661
        },
        {
          "duration": 0.75,
          "durationTicks": 96,
          "midi": 62,
          "name": "D4",
          "ticks": 10320,
          "time": 80.625,
          "velocity": 0.7165354330708661
        },
        {
          "duration": 1.5,
          "durationTicks": 192,
          "midi": 50,
          "name": "D3",
          "ticks": 10368,
          "time": 81,
          "velocity": 0.9133858267716536
        },
        {
          "duration": 0.75,
          "durationTicks": 96,
          "midi": 65,
          "name": "F4",
          "ticks": 10368,
          "time": 81,
          "velocity": 0.7165354330708661
        },
        {
          "duration": 0.75,
          "durationTicks": 96,
          "midi": 61,
          "name": "C#4",
          "ticks": 10416,
          "time": 81.375,
          "velocity": 0.7165354330708661
        },
        {
          "duration": 0.75,
          "durationTicks": 96,
          "midi": 65,
          "name": "F4",
          "ticks": 10464,
          "time": 81.75,
          "velocity": 0.7165354330708661
        },
        {
          "duration": 0.75,
          "durationTicks": 96,
          "midi": 53,
          "name": "F3",
          "ticks": 10464,
          "time": 81.75,
          "velocity": 0.9133858267716536
        },
        {
          "duration": 0.75,
          "durationTicks": 96,
          "midi": 61,
          "name": "C#4",
          "ticks": 10512,
          "time": 82.125,
          "velocity": 0.7165354330708661
        },
        {
          "duration": 1.5,
          "durationTicks": 192,
          "midi": 41,
          "name": "F2",
          "ticks": 10560,
          "time": 82.5,
          "velocity": 0.9133858267716536
        },
        {
          "duration": 0.75,
          "durationTicks": 96,
          "midi": 65,
          "name": "F4",
          "ticks": 10560,
          "time": 82.5,
          "velocity": 0.7165354330708661
        },
        {
          "duration": 0.75,
          "durationTicks": 96,
          "midi": 61,
          "name": "C#4",
          "ticks": 10608,
          "time": 82.875,
          "velocity": 0.7165354330708661
        },
        {
          "duration": 0.75,
          "durationTicks": 96,
          "midi": 65,
          "name": "F4",
          "ticks": 10656,
          "time": 83.25,
          "velocity": 0.7165354330708661
        },
        {
          "duration": 0.375,
          "durationTicks": 48,
          "midi": 61,
          "name": "C#4",
          "ticks": 10704,
          "time": 83.625,
          "velocity": 0.7165354330708661
        },
        {
          "duration": 0.75,
          "durationTicks": 96,
          "midi": 65,
          "name": "F4",
          "ticks": 10752,
          "time": 84,
          "velocity": 0.7165354330708661
        },
        {
          "duration": 1.5,
          "durationTicks": 192,
          "midi": 49,
          "name": "C#3",
          "ticks": 10752,
          "time": 84,
          "velocity": 0.8976377952755905
        },
        {
          "duration": 0.75,
          "durationTicks": 96,
          "midi": 61,
          "name": "C#4",
          "ticks": 10800,
          "time": 84.375,
          "velocity": 0.7165354330708661
        },
        {
          "duration": 0.75,
          "durationTicks": 96,
          "midi": 56,
          "name": "G#3",
          "ticks": 10848,
          "time": 84.75,
          "velocity": 0.8976377952755905
        },
        {
          "duration": 0.75,
          "durationTicks": 96,
          "midi": 65,
          "name": "F4",
          "ticks": 10848,
          "time": 84.75,
          "velocity": 0.7165354330708661
        },
        {
          "duration": 0.75,
          "durationTicks": 96,
          "midi": 61,
          "name": "C#4",
          "ticks": 10896,
          "time": 85.125,
          "velocity": 0.7165354330708661
        },
        {
          "duration": 0.75,
          "durationTicks": 96,
          "midi": 65,
          "name": "F4",
          "ticks": 10944,
          "time": 85.5,
          "velocity": 0.7165354330708661
        },
        {
          "duration": 1.5,
          "durationTicks": 192,
          "midi": 44,
          "name": "G#2",
          "ticks": 10944,
          "time": 85.5,
          "velocity": 0.8976377952755905
        },
        {
          "duration": 0.75,
          "durationTicks": 96,
          "midi": 61,
          "name": "C#4",
          "ticks": 10992,
          "time": 85.875,
          "velocity": 0.7165354330708661
        },
        {
          "duration": 0.75,
          "durationTicks": 96,
          "midi": 65,
          "name": "F4",
          "ticks": 11040,
          "time": 86.25,
          "velocity": 0.7165354330708661
        },
        {
          "duration": 0.375,
          "durationTicks": 48,
          "midi": 61,
          "name": "C#4",
          "ticks": 11088,
          "time": 86.625,
          "velocity": 0.7165354330708661
        },
        {
          "duration": 1.5,
          "durationTicks": 192,
          "midi": 50,
          "name": "D3",
          "ticks": 11136,
          "time": 87,
          "velocity": 0.8976377952755905
        },
        {
          "duration": 0.75,
          "durationTicks": 96,
          "midi": 66,
          "name": "F#4",
          "ticks": 11136,
          "time": 87,
          "velocity": 0.7165354330708661
        },
        {
          "duration": 0.75,
          "durationTicks": 96,
          "midi": 61,
          "name": "C#4",
          "ticks": 11184,
          "time": 87.375,
          "velocity": 0.7165354330708661
        },
        {
          "duration": 0.75,
          "durationTicks": 96,
          "midi": 66,
          "name": "F#4",
          "ticks": 11232,
          "time": 87.75,
          "velocity": 0.7165354330708661
        },
        {
          "duration": 0.75,
          "durationTicks": 96,
          "midi": 61,
          "name": "C#4",
          "ticks": 11280,
          "time": 88.125,
          "velocity": 0.7165354330708661
        },
        {
          "duration": 0.75,
          "durationTicks": 96,
          "midi": 66,
          "name": "F#4",
          "ticks": 11328,
          "time": 88.5,
          "velocity": 0.7165354330708661
        },
        {
          "duration": 1.5,
          "durationTicks": 192,
          "midi": 49,
          "name": "C#3",
          "ticks": 11328,
          "time": 88.5,
          "velocity": 0.8976377952755905
        },
        {
          "duration": 0.75,
          "durationTicks": 96,
          "midi": 61,
          "name": "C#4",
          "ticks": 11376,
          "time": 88.875,
          "velocity": 0.7165354330708661
        },
        {
          "duration": 0.75,
          "durationTicks": 96,
          "midi": 66,
          "name": "F#4",
          "ticks": 11424,
          "time": 89.25,
          "velocity": 0.7165354330708661
        },
        {
          "duration": 0.75,
          "durationTicks": 96,
          "midi": 61,
          "name": "C#4",
          "ticks": 11472,
          "time": 89.625,
          "velocity": 0.7165354330708661
        },
        {
          "duration": 0.75,
          "durationTicks": 96,
          "midi": 66,
          "name": "F#4",
          "ticks": 11520,
          "time": 90,
          "velocity": 0.7165354330708661
        },
        {
          "duration": 1.4921875,
          "durationTicks": 191,
          "midi": 50,
          "name": "D3",
          "ticks": 11520,
          "time": 90,
          "velocity": 0.8976377952755905
        },
        {
          "duration": 0.75,
          "durationTicks": 96,
          "midi": 61,
          "name": "C#4",
          "ticks": 11568,
          "time": 90.375,
          "velocity": 0.7165354330708661
        },
        {
          "duration": 0.75,
          "durationTicks": 96,
          "midi": 66,
          "name": "F#4",
          "ticks": 11616,
          "time": 90.75,
          "velocity": 0.7165354330708661
        },
        {
          "duration": 0.75,
          "durationTicks": 96,
          "midi": 61,
          "name": "C#4",
          "ticks": 11664,
          "time": 91.125,
          "velocity": 0.7165354330708661
        },
        {
          "duration": 0.75,
          "durationTicks": 96,
          "midi": 66,
          "name": "F#4",
          "ticks": 11712,
          "time": 91.5,
          "velocity": 0.7165354330708661
        },
        {
          "duration": 1.4921875,
          "durationTicks": 191,
          "midi": 49,
          "name": "C#3",
          "ticks": 11712,
          "time": 91.5,
          "velocity": 0.8818897637795275
        },
        {
          "duration": 0.75,
          "durationTicks": 96,
          "midi": 61,
          "name": "C#4",
          "ticks": 11760,
          "time": 91.875,
          "velocity": 0.7165354330708661
        },
        {
          "duration": 0.75,
          "durationTicks": 96,
          "midi": 66,
          "name": "F#4",
          "ticks": 11808,
          "time": 92.25,
          "velocity": 0.7165354330708661
        },
        {
          "duration": 0.75,
          "durationTicks": 96,
          "midi": 61,
          "name": "C#4",
          "ticks": 11856,
          "time": 92.625,
          "velocity": 0.7165354330708661
        },
        {
          "duration": 0.75,
          "durationTicks": 96,
          "midi": 66,
          "name": "F#4",
          "ticks": 11904,
          "time": 93,
          "velocity": 0.7165354330708661
        },
        {
          "duration": 0.75,
          "durationTicks": 96,
          "midi": 61,
          "name": "C#4",
          "ticks": 11952,
          "time": 93.375,
          "velocity": 0.7165354330708661
        },
        {
          "duration": 0.75,
          "durationTicks": 96,
          "midi": 48,
          "name": "C3",
          "ticks": 12000,
          "time": 93.75,
          "velocity": 0.8661417322834646
        },
        {
          "duration": 0.75,
          "durationTicks": 96,
          "midi": 66,
          "name": "F#4",
          "ticks": 12000,
          "time": 93.75,
          "velocity": 0.7165354330708661
        },
        {
          "duration": 0.75,
          "durationTicks": 96,
          "midi": 61,
          "name": "C#4",
          "ticks": 12048,
          "time": 94.125,
          "velocity": 0.7165354330708661
        },
        {
          "duration": 0.75,
          "durationTicks": 96,
          "midi": 66,
          "name": "F#4",
          "ticks": 12096,
          "time": 94.5,
          "velocity": 0.7165354330708661
        },
        {
          "duration": 2.25,
          "durationTicks": 288,
          "midi": 49,
          "name": "C#3",
          "ticks": 12096,
          "time": 94.5,
          "velocity": 0.8661417322834646
        },
        {
          "duration": 0.75,
          "durationTicks": 96,
          "midi": 61,
          "name": "C#4",
          "ticks": 12144,
          "time": 94.875,
          "velocity": 0.7165354330708661
        },
        {
          "duration": 0.75,
          "durationTicks": 96,
          "midi": 66,
          "name": "F#4",
          "ticks": 12192,
          "time": 95.25,
          "velocity": 0.7165354330708661
        },
        {
          "duration": 0.75,
          "durationTicks": 96,
          "midi": 61,
          "name": "C#4",
          "ticks": 12240,
          "time": 95.625,
          "velocity": 0.7165354330708661
        },
        {
          "duration": 0.75,
          "durationTicks": 96,
          "midi": 65,
          "name": "F4",
          "ticks": 12288,
          "time": 96,
          "velocity": 0.7165354330708661
        },
        {
          "duration": 0.75,
          "durationTicks": 96,
          "midi": 61,
          "name": "C#4",
          "ticks": 12336,
          "time": 96.375,
          "velocity": 0.7165354330708661
        },
        {
          "duration": 0.75,
          "durationTicks": 96,
          "midi": 65,
          "name": "F4",
          "ticks": 12384,
          "time": 96.75,
          "velocity": 0.7165354330708661
        },
        {
          "duration": 0.75,
          "durationTicks": 96,
          "midi": 48,
          "name": "C3",
          "ticks": 12384,
          "time": 96.75,
          "velocity": 0.8740157480314961
        },
        {
          "duration": 0.75,
          "durationTicks": 96,
          "midi": 61,
          "name": "C#4",
          "ticks": 12432,
          "time": 97.125,
          "velocity": 0.7165354330708661
        },
        {
          "duration": 0.75,
          "durationTicks": 96,
          "midi": 65,
          "name": "F4",
          "ticks": 12480,
          "time": 97.5,
          "velocity": 0.7244094488188977
        },
        {
          "duration": 1.5,
          "durationTicks": 192,
          "midi": 48,
          "name": "C3",
          "ticks": 12480,
          "time": 97.5,
          "velocity": 0.8818897637795275
        },
        {
          "duration": 0.75,
          "durationTicks": 96,
          "midi": 61,
          "name": "C#4",
          "ticks": 12528,
          "time": 97.875,
          "velocity": 0.6377952755905512
        },
        {
          "duration": 0.375,
          "durationTicks": 48,
          "midi": 65,
          "name": "F4",
          "ticks": 12576,
          "time": 98.25,
          "velocity": 0.6377952755905512
        },
        {
          "duration": 0.09375,
          "durationTicks": 12,
          "midi": 39,
          "name": "D#2",
          "ticks": 12636,
          "time": 98.71875,
          "velocity": 0.8818897637795275
        },
        {
          "duration": 0.09375,
          "durationTicks": 12,
          "midi": 41,
          "name": "F2",
          "ticks": 12648,
          "time": 98.8125,
          "velocity": 0.8818897637795275
        },
        {
          "duration": 0.09375,
          "durationTicks": 12,
          "midi": 43,
          "name": "G2",
          "ticks": 12660,
          "time": 98.90625,
          "velocity": 0.8818897637795275
        },
        {
          "duration": 0.09375,
          "durationTicks": 12,
          "midi": 44,
          "name": "G#2",
          "ticks": 12672,
          "time": 99,
          "velocity": 0.8818897637795275
        },
        {
          "duration": 0.109375,
          "durationTicks": 14,
          "midi": 59,
          "name": "B3",
          "ticks": 12768,
          "time": 99.75,
          "velocity": 0.7874015748031497
        },
        {
          "duration": 0.109375,
          "durationTicks": 14,
          "midi": 51,
          "name": "D#3",
          "ticks": 12864,
          "time": 100.5,
          "velocity": 0.7874015748031497
        },
        {
          "duration": 0.109375,
          "durationTicks": 14,
          "midi": 59,
          "name": "B3",
          "ticks": 12960,
          "time": 101.25,
          "velocity": 0.7874015748031497
        },
        {
          "duration": 0.109375,
          "durationTicks": 14,
          "midi": 44,
          "name": "G#2",
          "ticks": 13056,
          "time": 102,
          "velocity": 0.7874015748031497
        },
        {
          "duration": 0.109375,
          "durationTicks": 14,
          "midi": 59,
          "name": "B3",
          "ticks": 13104,
          "time": 102.375,
          "velocity": 0.7874015748031497
        },
        {
          "duration": 0.109375,
          "durationTicks": 14,
          "midi": 51,
          "name": "D#3",
          "ticks": 13152,
          "time": 102.75,
          "velocity": 0.7874015748031497
        },
        {
          "duration": 0.109375,
          "durationTicks": 14,
          "midi": 55,
          "name": "G3",
          "ticks": 13200,
          "time": 103.125,
          "velocity": 0.7874015748031497
        },
        {
          "duration": 0.109375,
          "durationTicks": 14,
          "midi": 44,
          "name": "G#2",
          "ticks": 13440,
          "time": 105,
          "velocity": 0.9291338582677166
        },
        {
          "duration": 0.109375,
          "durationTicks": 14,
          "midi": 59,
          "name": "B3",
          "ticks": 13536,
          "time": 105.75,
          "velocity": 0.9291338582677166
        },
        {
          "duration": 0.109375,
          "durationTicks": 14,
          "midi": 51,
          "name": "D#3",
          "ticks": 13632,
          "time": 106.5,
          "velocity": 0.9291338582677166
        },
        {
          "duration": 0.109375,
          "durationTicks": 14,
          "midi": 59,
          "name": "B3",
          "ticks": 13728,
          "time": 107.25,
          "velocity": 0.9291338582677166
        },
        {
          "duration": 0.109375,
          "durationTicks": 14,
          "midi": 44,
          "name": "G#2",
          "ticks": 13824,
          "time": 108,
          "velocity": 0.9291338582677166
        },
        {
          "duration": 0.109375,
          "durationTicks": 14,
          "midi": 59,
          "name": "B3",
          "ticks": 13872,
          "time": 108.375,
          "velocity": 0.7874015748031497
        },
        {
          "duration": 0.109375,
          "durationTicks": 14,
          "midi": 51,
          "name": "D#3",
          "ticks": 13920,
          "time": 108.75,
          "velocity": 0.9291338582677166
        },
        {
          "duration": 0.109375,
          "durationTicks": 14,
          "midi": 55,
          "name": "G3",
          "ticks": 13968,
          "time": 109.125,
          "velocity": 0.9291338582677166
        },
        {
          "duration": 0.75,
          "durationTicks": 96,
          "midi": 56,
          "name": "G#3",
          "ticks": 14304,
          "time": 111.75,
          "velocity": 0.9291338582677166
        },
        {
          "duration": 0.75,
          "durationTicks": 96,
          "midi": 58,
          "name": "A#3",
          "ticks": 14400,
          "time": 112.5,
          "velocity": 0.9291338582677166
        },
        {
          "duration": 0.75,
          "durationTicks": 96,
          "midi": 59,
          "name": "B3",
          "ticks": 14496,
          "time": 113.25,
          "velocity": 0.937007874015748
        },
        {
          "duration": 0.75,
          "durationTicks": 96,
          "midi": 65,
          "name": "F4",
          "ticks": 14592,
          "time": 114,
          "velocity": 0.937007874015748
        },
        {
          "duration": 0.75,
          "durationTicks": 96,
          "midi": 66,
          "name": "F#4",
          "ticks": 14688,
          "time": 114.75,
          "velocity": 0.952755905511811
        },
        {
          "duration": 0.0625,
          "durationTicks": 8,
          "midi": 65,
          "name": "F4",
          "ticks": 14784,
          "time": 115.5,
          "velocity": 0.952755905511811
        },
        {
          "duration": 0.0625,
          "durationTicks": 8,
          "midi": 66,
          "name": "F#4",
          "ticks": 14792,
          "time": 115.5625,
          "velocity": 0.952755905511811
        },
        {
          "duration": 0.625,
          "durationTicks": 80,
          "midi": 65,
          "name": "F4",
          "ticks": 14800,
          "time": 115.625,
          "velocity": 0.9291338582677166
        },
        {
          "duration": 0.75,
          "durationTicks": 96,
          "midi": 63,
          "name": "D#4",
          "ticks": 14880,
          "time": 116.25,
          "velocity": 0.952755905511811
        },
        {
          "duration": 0.0625,
          "durationTicks": 8,
          "midi": 62,
          "name": "D4",
          "ticks": 14976,
          "time": 117,
          "velocity": 0.9606299212598425
        },
        {
          "duration": 0.0625,
          "durationTicks": 8,
          "midi": 63,
          "name": "D#4",
          "ticks": 14984,
          "time": 117.0625,
          "velocity": 0.9606299212598425
        },
        {
          "duration": 2.125,
          "durationTicks": 272,
          "midi": 62,
          "name": "D4",
          "ticks": 14992,
          "time": 117.125,
          "velocity": 0.9606299212598425
        },
        {
          "duration": 0.75,
          "durationTicks": 96,
          "midi": 63,
          "name": "D#4",
          "ticks": 15264,
          "time": 119.25,
          "velocity": 0.9606299212598425
        },
        {
          "duration": 3.75,
          "durationTicks": 480,
          "midi": 58,
          "name": "A#3",
          "ticks": 15360,
          "time": 120,
          "velocity": 0.9763779527559056
        },
        {
          "duration": 0.75,
          "durationTicks": 96,
          "midi": 56,
          "name": "G#3",
          "ticks": 15840,
          "time": 123.75,
          "velocity": 0.9763779527559056
        },
        {
          "duration": 0.75,
          "durationTicks": 96,
          "midi": 58,
          "name": "A#3",
          "ticks": 15936,
          "time": 124.5,
          "velocity": 0.968503937007874
        },
        {
          "duration": 0.75,
          "durationTicks": 96,
          "midi": 59,
          "name": "B3",
          "ticks": 16032,
          "time": 125.25,
          "velocity": 0.968503937007874
        },
        {
          "duration": 0.75,
          "durationTicks": 96,
          "midi": 65,
          "name": "F4",
          "ticks": 16128,
          "time": 126,
          "velocity": 0.968503937007874
        },
        {
          "duration": 0.75,
          "durationTicks": 96,
          "midi": 63,
          "name": "D#4",
          "ticks": 16224,
          "time": 126.75,
          "velocity": 0.968503937007874
        },
        {
          "duration": 0.75,
          "durationTicks": 96,
          "midi": 65,
          "name": "F4",
          "ticks": 16320,
          "time": 127.5,
          "velocity": 0.968503937007874
        },
        {
          "duration": 0.75,
          "durationTicks": 96,
          "midi": 66,
          "name": "F#4",
          "ticks": 16416,
          "time": 128.25,
          "velocity": 0.968503937007874
        },
        {
          "duration": 2.625,
          "durationTicks": 336,
          "midi": 67,
          "name": "G4",
          "ticks": 16512,
          "time": 129,
          "velocity": 0.968503937007874
        },
        {
          "duration": 0.125,
          "durationTicks": 16,
          "midi": 62,
          "name": "D4",
          "ticks": 16848,
          "time": 131.625,
          "velocity": 0.968503937007874
        },
        {
          "duration": 0.125,
          "durationTicks": 16,
          "midi": 63,
          "name": "D#4",
          "ticks": 16864,
          "time": 131.75,
          "velocity": 0.968503937007874
        },
        {
          "duration": 0.125,
          "durationTicks": 16,
          "midi": 64,
          "name": "E4",
          "ticks": 16880,
          "time": 131.875,
          "velocity": 0.968503937007874
        },
        {
          "duration": 2.25,
          "durationTicks": 288,
          "midi": 63,
          "name": "D#4",
          "ticks": 16896,
          "time": 132,
          "velocity": 0.968503937007874
        },
        {
          "duration": 1.3125,
          "durationTicks": 168,
          "midi": 73,
          "name": "C#5",
          "ticks": 17280,
          "time": 135,
          "velocity": 0.968503937007874
        },
        {
          "duration": 0.1875,
          "durationTicks": 24,
          "midi": 73,
          "name": "C#5",
          "ticks": 17448,
          "time": 136.3125,
          "velocity": 0.968503937007874
        },
        {
          "duration": 0.375,
          "durationTicks": 48,
          "midi": 73,
          "name": "C#5",
          "ticks": 17472,
          "time": 136.5,
          "velocity": 0.968503937007874
        },
        {
          "duration": 0.1875,
          "durationTicks": 24,
          "midi": 71,
          "name": "B4",
          "ticks": 17520,
          "time": 136.875,
          "velocity": 0.968503937007874
        },
        {
          "duration": 0.1875,
          "durationTicks": 24,
          "midi": 70,
          "name": "A#4",
          "ticks": 17544,
          "time": 137.0625,
          "velocity": 0.968503937007874
        },
        {
          "duration": 0.375,
          "durationTicks": 48,
          "midi": 73,
          "name": "C#5",
          "ticks": 17568,
          "time": 137.25,
          "velocity": 0.968503937007874
        },
        {
          "duration": 0.1875,
          "durationTicks": 24,
          "midi": 71,
          "name": "B4",
          "ticks": 17616,
          "time": 137.625,
          "velocity": 0.968503937007874
        },
        {
          "duration": 0.1875,
          "durationTicks": 24,
          "midi": 70,
          "name": "A#4",
          "ticks": 17640,
          "time": 137.8125,
          "velocity": 0.968503937007874
        },
        {
          "duration": 1.3125,
          "durationTicks": 168,
          "midi": 69,
          "name": "A4",
          "ticks": 17664,
          "time": 138,
          "velocity": 0.968503937007874
        },
        {
          "duration": 0.1875,
          "durationTicks": 24,
          "midi": 69,
          "name": "A4",
          "ticks": 17832,
          "time": 139.3125,
          "velocity": 0.9606299212598425
        },
        {
          "duration": 0.375,
          "durationTicks": 48,
          "midi": 69,
          "name": "A4",
          "ticks": 17856,
          "time": 139.5,
          "velocity": 0.9606299212598425
        },
        {
          "duration": 0.1875,
          "durationTicks": 24,
          "midi": 67,
          "name": "G4",
          "ticks": 17904,
          "time": 139.875,
          "velocity": 0.9606299212598425
        },
        {
          "duration": 0.1875,
          "durationTicks": 24,
          "midi": 66,
          "name": "F#4",
          "ticks": 17928,
          "time": 140.0625,
          "velocity": 0.8818897637795275
        },
        {
          "duration": 0.375,
          "durationTicks": 48,
          "midi": 69,
          "name": "A4",
          "ticks": 17952,
          "time": 140.25,
          "velocity": 0.9606299212598425
        },
        {
          "duration": 0.1875,
          "durationTicks": 24,
          "midi": 67,
          "name": "G4",
          "ticks": 18000,
          "time": 140.625,
          "velocity": 0.9606299212598425
        },
        {
          "duration": 0.1875,
          "durationTicks": 24,
          "midi": 66,
          "name": "F#4",
          "ticks": 18024,
          "time": 140.8125,
          "velocity": 0.8818897637795275
        },
        {
          "duration": 1.5,
          "durationTicks": 192,
          "midi": 65,
          "name": "F4",
          "ticks": 18048,
          "time": 141,
          "velocity": 0.9606299212598425
        },
        {
          "duration": 1.5,
          "durationTicks": 192,
          "midi": 64,
          "name": "E4",
          "ticks": 18240,
          "time": 142.5,
          "velocity": 0.9606299212598425
        },
        {
          "duration": 2.25,
          "durationTicks": 288,
          "midi": 63,
          "name": "D#4",
          "ticks": 18432,
          "time": 144,
          "velocity": 0.952755905511811
        },
        {
          "duration": 0.1875,
          "durationTicks": 24,
          "midi": 46,
          "name": "A#2",
          "ticks": 18816,
          "time": 147,
          "velocity": 0.6220472440944882
        },
        {
          "duration": 0.1875,
          "durationTicks": 24,
          "midi": 46,
          "name": "A#2",
          "ticks": 19008,
          "time": 148.5,
          "velocity": 0.6220472440944882
        },
        {
          "duration": 0.1875,
          "durationTicks": 24,
          "midi": 46,
          "name": "A#2",
          "ticks": 19200,
          "time": 150,
          "velocity": 0.6299212598425197
        },
        {
          "duration": 0.1875,
          "durationTicks": 24,
          "midi": 46,
          "name": "A#2",
          "ticks": 19296,
          "time": 150.75,
          "velocity": 0.6377952755905512
        },
        {
          "duration": 0.1875,
          "durationTicks": 24,
          "midi": 46,
          "name": "A#2",
          "ticks": 19392,
          "time": 151.5,
          "velocity": 0.6614173228346457
        },
        {
          "duration": 0.1875,
          "durationTicks": 24,
          "midi": 46,
          "name": "A#2",
          "ticks": 19488,
          "time": 152.25,
          "velocity": 0.6692913385826772
        },
        {
          "duration": 0.1875,
          "durationTicks": 24,
          "midi": 46,
          "name": "A#2",
          "ticks": 19584,
          "time": 153,
          "velocity": 0.6850393700787402
        },
        {
          "duration": 0.1875,
          "durationTicks": 24,
          "midi": 46,
          "name": "A#2",
          "ticks": 19648,
          "time": 153.5,
          "velocity": 0.6929133858267716
        },
        {
          "duration": 0.1875,
          "durationTicks": 24,
          "midi": 46,
          "name": "A#2",
          "ticks": 19712,
          "time": 154,
          "velocity": 0.7086614173228346
        },
        {
          "duration": 0.1875,
          "durationTicks": 24,
          "midi": 50,
          "name": "D3",
          "ticks": 19776,
          "time": 154.5,
          "velocity": 0.7244094488188977
        },
        {
          "duration": 0.1875,
          "durationTicks": 24,
          "midi": 50,
          "name": "D3",
          "ticks": 19840,
          "time": 155,
          "velocity": 0.7244094488188977
        },
        {
          "duration": 0.1875,
          "durationTicks": 24,
          "midi": 50,
          "name": "D3",
          "ticks": 19904,
          "time": 155.5,
          "velocity": 0.7244094488188977
        },
        {
          "duration": 0.1875,
          "durationTicks": 24,
          "midi": 54,
          "name": "F#3",
          "ticks": 19968,
          "time": 156,
          "velocity": 0.7401574803149606
        },
        {
          "duration": 0.1875,
          "durationTicks": 24,
          "midi": 54,
          "name": "F#3",
          "ticks": 20016,
          "time": 156.375,
          "velocity": 0.7480314960629921
        },
        {
          "duration": 0.1875,
          "durationTicks": 24,
          "midi": 54,
          "name": "F#3",
          "ticks": 20064,
          "time": 156.75,
          "velocity": 0.7559055118110236
        },
        {
          "duration": 0.1875,
          "durationTicks": 24,
          "midi": 58,
          "name": "A#3",
          "ticks": 20112,
          "time": 157.125,
          "velocity": 0.7716535433070866
        },
        {
          "duration": 0.1875,
          "durationTicks": 24,
          "midi": 58,
          "name": "A#3",
          "ticks": 20160,
          "time": 157.5,
          "velocity": 0.7874015748031497
        },
        {
          "duration": 0.1875,
          "durationTicks": 24,
          "midi": 58,
          "name": "A#3",
          "ticks": 20208,
          "time": 157.875,
          "velocity": 0.7952755905511811
        },
        {
          "duration": 0.1875,
          "durationTicks": 24,
          "midi": 62,
          "name": "D4",
          "ticks": 20256,
          "time": 158.25,
          "velocity": 0.8188976377952756
        },
        {
          "duration": 0.1875,
          "durationTicks": 24,
          "midi": 62,
          "name": "D4",
          "ticks": 20304,
          "time": 158.625,
          "velocity": 0.8267716535433071
        },
        {
          "duration": 0.1875,
          "durationTicks": 24,
          "midi": 62,
          "name": "D4",
          "ticks": 20352,
          "time": 159,
          "velocity": 0.84251968503937
        },
        {
          "duration": 0.1875,
          "durationTicks": 24,
          "midi": 66,
          "name": "F#4",
          "ticks": 20384,
          "time": 159.25,
          "velocity": 0.8661417322834646
        },
        {
          "duration": 0.1875,
          "durationTicks": 24,
          "midi": 66,
          "name": "F#4",
          "ticks": 20416,
          "time": 159.5,
          "velocity": 0.8740157480314961
        },
        {
          "duration": 0.1875,
          "durationTicks": 24,
          "midi": 66,
          "name": "F#4",
          "ticks": 20448,
          "time": 159.75,
          "velocity": 0.8818897637795275
        },
        {
          "duration": 0.1875,
          "durationTicks": 24,
          "midi": 70,
          "name": "A#4",
          "ticks": 20480,
          "time": 160,
          "velocity": 0.889763779527559
        },
        {
          "duration": 0.1875,
          "durationTicks": 24,
          "midi": 70,
          "name": "A#4",
          "ticks": 20512,
          "time": 160.25,
          "velocity": 0.8976377952755905
        },
        {
          "duration": 0.1875,
          "durationTicks": 24,
          "midi": 70,
          "name": "A#4",
          "ticks": 20544,
          "time": 160.5,
          "velocity": 0.905511811023622
        },
        {
          "duration": 0.1875,
          "durationTicks": 24,
          "midi": 74,
          "name": "D5",
          "ticks": 20576,
          "time": 160.75,
          "velocity": 0.905511811023622
        },
        {
          "duration": 0.1875,
          "durationTicks": 24,
          "midi": 74,
          "name": "D5",
          "ticks": 20608,
          "time": 161,
          "velocity": 0.905511811023622
        },
        {
          "duration": 0.1875,
          "durationTicks": 24,
          "midi": 74,
          "name": "D5",
          "ticks": 20640,
          "time": 161.25,
          "velocity": 0.9291338582677166
        },
        {
          "duration": 0.125,
          "durationTicks": 16,
          "midi": 78,
          "name": "F#5",
          "ticks": 20672,
          "time": 161.5,
          "velocity": 0.937007874015748
        },
        {
          "duration": 0.125,
          "durationTicks": 16,
          "midi": 78,
          "name": "F#5",
          "ticks": 20704,
          "time": 161.75,
          "velocity": 0.937007874015748
        },
        {
          "duration": 0.125,
          "durationTicks": 16,
          "midi": 78,
          "name": "F#5",
          "ticks": 20736,
          "time": 162,
          "velocity": 0.9606299212598425
        },
        {
          "duration": 0.09375,
          "durationTicks": 12,
          "midi": 39,
          "name": "D#2",
          "ticks": 21468,
          "time": 167.71875,
          "velocity": 0.8818897637795275
        },
        {
          "duration": 0.09375,
          "durationTicks": 12,
          "midi": 41,
          "name": "F2",
          "ticks": 21480,
          "time": 167.8125,
          "velocity": 0.8818897637795275
        },
        {
          "duration": 0.09375,
          "durationTicks": 12,
          "midi": 43,
          "name": "G2",
          "ticks": 21492,
          "time": 167.90625,
          "velocity": 0.8818897637795275
        },
        {
          "duration": 0.09375,
          "durationTicks": 12,
          "midi": 44,
          "name": "G#2",
          "ticks": 21504,
          "time": 168,
          "velocity": 0.8818897637795275
        },
        {
          "duration": 0.125,
          "durationTicks": 16,
          "midi": 59,
          "name": "B3",
          "ticks": 21600,
          "time": 168.75,
          "velocity": 0.9133858267716536
        },
        {
          "duration": 0.125,
          "durationTicks": 16,
          "midi": 51,
          "name": "D#3",
          "ticks": 21696,
          "time": 169.5,
          "velocity": 0.9133858267716536
        },
        {
          "duration": 0.125,
          "durationTicks": 16,
          "midi": 59,
          "name": "B3",
          "ticks": 21792,
          "time": 170.25,
          "velocity": 0.9133858267716536
        },
        {
          "duration": 0.125,
          "durationTicks": 16,
          "midi": 44,
          "name": "G#2",
          "ticks": 21888,
          "time": 171,
          "velocity": 0.9133858267716536
        },
        {
          "duration": 0.125,
          "durationTicks": 16,
          "midi": 59,
          "name": "B3",
          "ticks": 21936,
          "time": 171.375,
          "velocity": 0.8582677165354331
        },
        {
          "duration": 0.125,
          "durationTicks": 16,
          "midi": 51,
          "name": "D#3",
          "ticks": 21984,
          "time": 171.75,
          "velocity": 0.8582677165354331
        },
        {
          "duration": 0.125,
          "durationTicks": 16,
          "midi": 59,
          "name": "B3",
          "ticks": 22032,
          "time": 172.125,
          "velocity": 0.9133858267716536
        },
        {
          "duration": 0.125,
          "durationTicks": 16,
          "midi": 44,
          "name": "G#2",
          "ticks": 22272,
          "time": 174,
          "velocity": 0.9133858267716536
        },
        {
          "duration": 0.125,
          "durationTicks": 16,
          "midi": 59,
          "name": "B3",
          "ticks": 22368,
          "time": 174.75,
          "velocity": 0.9133858267716536
        },
        {
          "duration": 0.125,
          "durationTicks": 16,
          "midi": 51,
          "name": "D#3",
          "ticks": 22464,
          "time": 175.5,
          "velocity": 0.9133858267716536
        },
        {
          "duration": 0.125,
          "durationTicks": 16,
          "midi": 59,
          "name": "B3",
          "ticks": 22560,
          "time": 176.25,
          "velocity": 0.9133858267716536
        },
        {
          "duration": 0.125,
          "durationTicks": 16,
          "midi": 44,
          "name": "G#2",
          "ticks": 22656,
          "time": 177,
          "velocity": 0.9133858267716536
        },
        {
          "duration": 0.125,
          "durationTicks": 16,
          "midi": 59,
          "name": "B3",
          "ticks": 22704,
          "time": 177.375,
          "velocity": 0.8582677165354331
        },
        {
          "duration": 0.125,
          "durationTicks": 16,
          "midi": 51,
          "name": "D#3",
          "ticks": 22752,
          "time": 177.75,
          "velocity": 0.9133858267716536
        },
        {
          "duration": 0.125,
          "durationTicks": 16,
          "midi": 59,
          "name": "B3",
          "ticks": 22800,
          "time": 178.125,
          "velocity": 0.9133858267716536
        },
        {
          "duration": 0.75,
          "durationTicks": 96,
          "midi": 51,
          "name": "D#3",
          "ticks": 22944,
          "time": 179.25,
          "velocity": 0.8188976377952756
        },
        {
          "duration": 3,
          "durationTicks": 384,
          "midi": 44,
          "name": "G#2",
          "ticks": 23040,
          "time": 180,
          "velocity": 0.8188976377952756
        },
        {
          "duration": 0.1875,
          "durationTicks": 24,
          "midi": 56,
          "name": "G#3",
          "ticks": 23424,
          "time": 183,
          "velocity": 0.8188976377952756
        }
      ],
      "endOfTrackTicks": 23883
    }
  ]
}