{
  "header": {
    "keySignatures": [],
    "meta": [],
    "name": "",
    "ppq": 96,
    "tempos": [
      {
        "bpm": 128.13202724086898,
        "ticks": 0
      }
    ],
    "timeSignatures": [
      {
        "ticks": 0,
        "timeSignature": [
          4,
          4
        ],
        "measures": 0
      }
    ]
  },
  "tracks": [
    {
      "channel": 0,
      "controlChanges": {},
      "pitchBends": [],
      "instrument": {
        "family": "piano",
        "number": 0,
        "name": "acoustic grand piano"
      },
      "name": "",
      "notes": [],
      "endOfTrackTicks": 0
    },
    {
      "channel": 0,
      "controlChanges": {},
      "pitchBends": [],
      "instrument": {
        "family": "piano",
        "number": 0,
        "name": "acoustic grand piano"
      },
      "name": "reFX Nexus #4",
      "notes": [],
      "endOfTrackTicks": 0
    },
    {
      "channel": 0,
      "controlChanges": {},
      "pitchBends": [],
      "instrument": {
        "family": "piano",
        "number": 0,
        "name": "acoustic grand piano"
      },
      "name": "Serum",
      "notes": [],
      "endOfTrackTicks": 0
    },
    {
      "channel": 0,
      "controlChanges": {},
      "pitchBends": [],
      "instrument": {
        "family": "piano",
        "number": 0,
        "name": "acoustic grand piano"
      },
      "name": "Serum #2",
      "notes": [],
      "endOfTrackTicks": 0
    },
    {
      "channel": 0,
      "controlChanges": {},
      "pitchBends": [],
      "instrument": {
        "family": "piano",
        "number": 0,
        "name": "acoustic grand piano"
      },
      "name": "Serum #3",
      "notes": [],
      "endOfTrackTicks": 0
    },
    {
      "channel": 0,
      "controlChanges": {},
      "pitchBends": [],
      "instrument": {
        "family": "piano",
        "number": 0,
        "name": "acoustic grand piano"
      },
      "name": "Subbass",
      "notes": [],
      "endOfTrackTicks": 0
    },
    {
      "channel": 0,
      "controlChanges": {},
      "pitchBends": [],
      "instrument": {
        "family": "piano",
        "number": 0,
        "name": "acoustic grand piano"
      },
      "name": "reFX Nexus #3",
      "notes": [],
      "endOfTrackTicks": 0
    },
    {
      "channel": 0,
      "controlChanges": {},
      "pitchBends": [],
      "instrument": {
        "family": "piano",
        "number": 0,
        "name": "acoustic grand piano"
      },
      "name": "reFX Nexus",
      "notes": [],
      "endOfTrackTicks": 0
    },
    {
      "channel": 0,
      "controlChanges": {},
      "pitchBends": [],
      "instrument": {
        "family": "piano",
        "number": 0,
        "name": "acoustic grand piano"
      },
      "name": "reFX Nexus #2",
      "notes": [],
      "endOfTrackTicks": 0
    },
    {
      "channel": 0,
      "controlChanges": {},
      "pitchBends": [],
      "instrument": {
        "family": "piano",
        "number": 0,
        "name": "acoustic grand piano"
      },
      "name": "Serum #4",
      "notes": [],
      "endOfTrackTicks": 0
    },
    {
      "channel": 0,
      "controlChanges": {},
      "pitchBends": [],
      "instrument": {
        "family": "piano",
        "number": 0,
        "name": "acoustic grand piano"
      },
      "name": "Serum #5",
      "notes": [],
      "endOfTrackTicks": 0
    },
    {
      "channel": 0,
      "controlChanges": {},
      "pitchBends": [],
      "instrument": {
        "family": "piano",
        "number": 0,
        "name": "acoustic grand piano"
      },
      "name": "Serum #6",
      "notes": [],
      "endOfTrackTicks": 0
    },
    {
      "channel": 0,
      "controlChanges": {},
      "pitchBends": [],
      "instrument": {
        "family": "piano",
        "number": 0,
        "name": "acoustic grand piano"
      },
      "name": "Serum #7",
      "notes": [],
      "endOfTrackTicks": 0
    },
    {
      "channel": 0,
      "controlChanges": {},
      "pitchBends": [],
      "instrument": {
        "family": "piano",
        "number": 0,
        "name": "acoustic grand piano"
      },
      "name": "Serum #8",
      "notes": [],
      "endOfTrackTicks": 0
    },
    {
      "channel": 0,
      "controlChanges": {},
      "pitchBends": [],
      "instrument": {
        "family": "piano",
        "number": 0,
        "name": "acoustic grand piano"
      },
      "name": "Serum #9",
      "notes": [],
      "endOfTrackTicks": 0
    },
    {
      "channel": 0,
      "controlChanges": {},
      "pitchBends": [],
      "instrument": {
        "family": "piano",
        "number": 0,
        "name": "acoustic grand piano"
      },
      "name": "Serum #10",
      "notes": [],
      "endOfTrackTicks": 0
    },
    {
      "channel": 0,
      "controlChanges": {
        "6": [
          {
            "number": 6,
            "ticks": 0,
            "time": 0,
            "value": 0.09448818897637795
          },
          {
            "number": 6,
            "ticks": 0,
            "time": 0,
            "value": 0.09448818897637795
          },
          {
            "number": 6,
            "ticks": 0,
            "time": 0,
            "value": 0.09448818897637795
          },
          {
            "number": 6,
            "ticks": 72576,
            "time": 354.009852,
            "value": 0.09448818897637795
          },
          {
            "number": 6,
            "ticks": 72579,
            "time": 354.02448534375003,
            "value": 0.09448818897637795
          }
        ],
        "7": [
          {
            "number": 7,
            "ticks": 0,
            "time": 0,
            "value": 0.7874015748031497
          },
          {
            "number": 7,
            "ticks": 0,
            "time": 0,
            "value": 0.7874015748031497
          },
          {
            "number": 7,
            "ticks": 0,
            "time": 0,
            "value": 0.7874015748031497
          },
          {
            "number": 7,
            "ticks": 0,
            "time": 0,
            "value": 0.7874015748031497
          },
          {
            "number": 7,
            "ticks": 72576,
            "time": 354.009852,
            "value": 0.7874015748031497
          },
          {
            "number": 7,
            "ticks": 72579,
            "time": 354.02448534375003,
            "value": 0.7874015748031497
          }
        ],
        "10": [
          {
            "number": 10,
            "ticks": 0,
            "time": 0,
            "value": 0.5039370078740157
          },
          {
            "number": 10,
            "ticks": 0,
            "time": 0,
            "value": 0.5039370078740157
          },
          {
            "number": 10,
            "ticks": 0,
            "time": 0,
            "value": 0.5039370078740157
          },
          {
            "number": 10,
            "ticks": 0,
            "time": 0,
            "value": 0.5039370078740157
          },
          {
            "number": 10,
            "ticks": 72576,
            "time": 354.009852,
            "value": 0.5039370078740157
          },
          {
            "number": 10,
            "ticks": 72579,
            "time": 354.02448534375003,
            "value": 0.5039370078740157
          }
        ],
        "100": [
          {
            "number": 100,
            "ticks": 0,
            "time": 0,
            "value": 0
          },
          {
            "number": 100,
            "ticks": 0,
            "time": 0,
            "value": 0
          },
          {
            "number": 100,
            "ticks": 0,
            "time": 0,
            "value": 0
          },
          {
            "number": 100,
            "ticks": 72576,
            "time": 354.009852,
            "value": 0
          },
          {
            "number": 100,
            "ticks": 72579,
            "time": 354.02448534375003,
            "value": 0
          }
        ],
        "101": [
          {
            "number": 101,
            "ticks": 0,
            "time": 0,
            "value": 0
          },
          {
            "number": 101,
            "ticks": 0,
            "time": 0,
            "value": 0
          },
          {
            "number": 101,
            "ticks": 0,
            "time": 0,
            "value": 0
          },
          {
            "number": 101,
            "ticks": 72576,
            "time": 354.009852,
            "value": 0
          },
          {
            "number": 101,
            "ticks": 72579,
            "time": 354.02448534375003,
            "value": 0
          }
        ]
      },
      "pitchBends": [
        {
          "ticks": 0,
          "time": 0,
          "value": 0
        },
        {
          "ticks": 0,
          "time": 0,
          "value": 0
        },
        {
          "ticks": 0,
          "time": 0,
          "value": 0
        },
        {
          "ticks": 0,
          "time": 0,
          "value": 0
        },
        {
          "ticks": 72576,
          "time": 354.009852,
          "value": 0
        },
        {
          "ticks": 72579,
          "time": 354.02448534375003,
          "value": 0
        }
      ],
      "instrument": {
        "family": "piano",
        "number": 0,
        "name": "acoustic grand piano"
      },
      "name": "MIDI Out",
      "notes": [
        {
          "duration": 0.1073111875,
          "durationTicks": 22,
          "midi": 60,
          "name": "C4",
          "ticks": 0,
          "time": 0,
          "velocity": 0.6299212598425197
        },
        {
          "duration": 0.1073111875,
          "durationTicks": 22,
          "midi": 65,
          "name": "F4",
          "ticks": 0,
          "time": 0,
          "velocity": 0.6299212598425197
        },
        {
          "duration": 0.10731118749999999,
          "durationTicks": 22,
          "midi": 60,
          "name": "C4",
          "ticks": 48,
          "time": 0.23413350000000002,
          "velocity": 0.6299212598425197
        },
        {
          "duration": 0.10731118749999999,
          "durationTicks": 22,
          "midi": 65,
          "name": "F4",
          "ticks": 48,
          "time": 0.23413350000000002,
          "velocity": 0.6299212598425197
        },
        {
          "duration": 0.10731118750000002,
          "durationTicks": 22,
          "midi": 65,
          "name": "F4",
          "ticks": 78,
          "time": 0.38046693750000005,
          "velocity": 0.6299212598425197
        },
        {
          "duration": 0.10731118750000002,
          "durationTicks": 22,
          "midi": 60,
          "name": "C4",
          "ticks": 78,
          "time": 0.38046693750000005,
          "velocity": 0.6299212598425197
        },
        {
          "duration": 0.10731118750000002,
          "durationTicks": 22,
          "midi": 60,
          "name": "C4",
          "ticks": 144,
          "time": 0.7024005000000001,
          "velocity": 0.6299212598425197
        },
        {
          "duration": 0.10731118750000002,
          "durationTicks": 22,
          "midi": 65,
          "name": "F4",
          "ticks": 144,
          "time": 0.7024005000000001,
          "velocity": 0.6299212598425197
        },
        {
          "duration": 0.10731118750000002,
          "durationTicks": 22,
          "midi": 60,
          "name": "C4",
          "ticks": 192,
          "time": 0.9365340000000001,
          "velocity": 0.6299212598425197
        },
        {
          "duration": 0.10731118750000002,
          "durationTicks": 22,
          "midi": 65,
          "name": "F4",
          "ticks": 192,
          "time": 0.9365340000000001,
          "velocity": 0.6299212598425197
        },
        {
          "duration": 0.1073111874999999,
          "durationTicks": 22,
          "midi": 65,
          "name": "F4",
          "ticks": 222,
          "time": 1.0828674375,
          "velocity": 0.6299212598425197
        },
        {
          "duration": 0.1073111874999999,
          "durationTicks": 22,
          "midi": 60,
          "name": "C4",
          "ticks": 222,
          "time": 1.0828674375,
          "velocity": 0.6299212598425197
        },
        {
          "duration": 0.1073111874999999,
          "durationTicks": 22,
          "midi": 60,
          "name": "C4",
          "ticks": 288,
          "time": 1.4048010000000002,
          "velocity": 0.6299212598425197
        },
        {
          "duration": 0.1073111874999999,
          "durationTicks": 22,
          "midi": 65,
          "name": "F4",
          "ticks": 288,
          "time": 1.4048010000000002,
          "velocity": 0.6299212598425197
        },
        {
          "duration": 0.1073111874999999,
          "durationTicks": 22,
          "midi": 60,
          "name": "C4",
          "ticks": 336,
          "time": 1.6389345000000002,
          "velocity": 0.6299212598425197
        },
        {
          "duration": 0.1073111874999999,
          "durationTicks": 22,
          "midi": 65,
          "name": "F4",
          "ticks": 336,
          "time": 1.6389345000000002,
          "velocity": 0.6299212598425197
        },
        {
          "duration": 0.10731118750000013,
          "durationTicks": 22,
          "midi": 65,
          "name": "F4",
          "ticks": 366,
          "time": 1.7852679375000002,
          "velocity": 0.6299212598425197
        },
        {
          "duration": 0.10731118750000013,
          "durationTicks": 22,
          "midi": 60,
          "name": "C4",
          "ticks": 366,
          "time": 1.7852679375000002,
          "velocity": 0.6299212598425197
        },
        {
          "duration": 0.10731118750000013,
          "durationTicks": 22,
          "midi": 60,
          "name": "C4",
          "ticks": 432,
          "time": 2.1072015000000004,
          "velocity": 0.6299212598425197
        },
        {
          "duration": 0.10731118750000013,
          "durationTicks": 22,
          "midi": 65,
          "name": "F4",
          "ticks": 432,
          "time": 2.1072015000000004,
          "velocity": 0.6299212598425197
        },
        {
          "duration": 0.10731118750000013,
          "durationTicks": 22,
          "midi": 60,
          "name": "C4",
          "ticks": 480,
          "time": 2.3413350000000004,
          "velocity": 0.6299212598425197
        },
        {
          "duration": 0.10731118750000013,
          "durationTicks": 22,
          "midi": 65,
          "name": "F4",
          "ticks": 480,
          "time": 2.3413350000000004,
          "velocity": 0.6299212598425197
        },
        {
          "duration": 0.10731118750000013,
          "durationTicks": 22,
          "midi": 65,
          "name": "F4",
          "ticks": 510,
          "time": 2.4876684375000004,
          "velocity": 0.6299212598425197
        },
        {
          "duration": 0.10731118750000013,
          "durationTicks": 22,
          "midi": 60,
          "name": "C4",
          "ticks": 510,
          "time": 2.4876684375000004,
          "velocity": 0.6299212598425197
        },
        {
          "duration": 0.10731118750000013,
          "durationTicks": 22,
          "midi": 60,
          "name": "C4",
          "ticks": 576,
          "time": 2.8096020000000004,
          "velocity": 0.6299212598425197
        },
        {
          "duration": 0.10731118750000013,
          "durationTicks": 22,
          "midi": 65,
          "name": "F4",
          "ticks": 576,
          "time": 2.8096020000000004,
          "velocity": 0.6299212598425197
        },
        {
          "duration": 0.10731118750000013,
          "durationTicks": 22,
          "midi": 65,
          "name": "F4",
          "ticks": 606,
          "time": 2.9559354375000004,
          "velocity": 0.6299212598425197
        },
        {
          "duration": 0.10731118750000013,
          "durationTicks": 22,
          "midi": 60,
          "name": "C4",
          "ticks": 606,
          "time": 2.9559354375000004,
          "velocity": 0.6299212598425197
        },
        {
          "duration": 0.21950015625000008,
          "durationTicks": 45,
          "midi": 61,
          "name": "C#4",
          "ticks": 672,
          "time": 3.2778690000000004,
          "velocity": 0.6299212598425197
        },
        {
          "duration": 0.21950015625000008,
          "durationTicks": 45,
          "midi": 66,
          "name": "F#4",
          "ticks": 672,
          "time": 3.2778690000000004,
          "velocity": 0.6299212598425197
        },
        {
          "duration": 0.10731118749999968,
          "durationTicks": 22,
          "midi": 60,
          "name": "C4",
          "ticks": 768,
          "time": 3.7461360000000004,
          "velocity": 0.6299212598425197
        },
        {
          "duration": 0.10731118749999968,
          "durationTicks": 22,
          "midi": 65,
          "name": "F4",
          "ticks": 768,
          "time": 3.7461360000000004,
          "velocity": 0.6299212598425197
        },
        {
          "duration": 0.10731118749999968,
          "durationTicks": 22,
          "midi": 60,
          "name": "C4",
          "ticks": 816,
          "time": 3.9802695000000003,
          "velocity": 0.6299212598425197
        },
        {
          "duration": 0.10731118749999968,
          "durationTicks": 22,
          "midi": 65,
          "name": "F4",
          "ticks": 816,
          "time": 3.9802695000000003,
          "velocity": 0.6299212598425197
        },
        {
          "duration": 0.10731118749999968,
          "durationTicks": 22,
          "midi": 65,
          "name": "F4",
          "ticks": 846,
          "time": 4.1266029375,
          "velocity": 0.6299212598425197
        },
        {
          "duration": 0.10731118749999968,
          "durationTicks": 22,
          "midi": 60,
          "name": "C4",
          "ticks": 846,
          "time": 4.1266029375,
          "velocity": 0.6299212598425197
        },
        {
          "duration": 0.10731118749999968,
          "durationTicks": 22,
          "midi": 60,
          "name": "C4",
          "ticks": 912,
          "time": 4.4485365,
          "velocity": 0.6299212598425197
        },
        {
          "duration": 0.10731118749999968,
          "durationTicks": 22,
          "midi": 65,
          "name": "F4",
          "ticks": 912,
          "time": 4.4485365,
          "velocity": 0.6299212598425197
        },
        {
          "duration": 0.10731118749999968,
          "durationTicks": 22,
          "midi": 60,
          "name": "C4",
          "ticks": 960,
          "time": 4.682670000000001,
          "velocity": 0.6299212598425197
        },
        {
          "duration": 0.10731118749999968,
          "durationTicks": 22,
          "midi": 65,
          "name": "F4",
          "ticks": 960,
          "time": 4.682670000000001,
          "velocity": 0.6299212598425197
        },
        {
          "duration": 0.10731118749999968,
          "durationTicks": 22,
          "midi": 65,
          "name": "F4",
          "ticks": 990,
          "time": 4.829003437500001,
          "velocity": 0.6299212598425197
        },
        {
          "duration": 0.10731118749999968,
          "durationTicks": 22,
          "midi": 60,
          "name": "C4",
          "ticks": 990,
          "time": 4.829003437500001,
          "velocity": 0.6299212598425197
        },
        {
          "duration": 0.10731118749999968,
          "durationTicks": 22,
          "midi": 60,
          "name": "C4",
          "ticks": 1056,
          "time": 5.150937000000001,
          "velocity": 0.6299212598425197
        },
        {
          "duration": 0.10731118749999968,
          "durationTicks": 22,
          "midi": 65,
          "name": "F4",
          "ticks": 1056,
          "time": 5.150937000000001,
          "velocity": 0.6299212598425197
        },
        {
          "duration": 0.10731118749999968,
          "durationTicks": 22,
          "midi": 60,
          "name": "C4",
          "ticks": 1104,
          "time": 5.3850705,
          "velocity": 0.6299212598425197
        },
        {
          "duration": 0.10731118749999968,
          "durationTicks": 22,
          "midi": 65,
          "name": "F4",
          "ticks": 1104,
          "time": 5.3850705,
          "velocity": 0.6299212598425197
        },
        {
          "duration": 0.10731118749999968,
          "durationTicks": 22,
          "midi": 65,
          "name": "F4",
          "ticks": 1134,
          "time": 5.5314039375,
          "velocity": 0.6299212598425197
        },
        {
          "duration": 0.10731118749999968,
          "durationTicks": 22,
          "midi": 60,
          "name": "C4",
          "ticks": 1134,
          "time": 5.5314039375,
          "velocity": 0.6299212598425197
        },
        {
          "duration": 0.10731118749999968,
          "durationTicks": 22,
          "midi": 60,
          "name": "C4",
          "ticks": 1200,
          "time": 5.8533375,
          "velocity": 0.6299212598425197
        },
        {
          "duration": 0.10731118749999968,
          "durationTicks": 22,
          "midi": 65,
          "name": "F4",
          "ticks": 1200,
          "time": 5.8533375,
          "velocity": 0.6299212598425197
        },
        {
          "duration": 0.10731118749999968,
          "durationTicks": 22,
          "midi": 60,
          "name": "C4",
          "ticks": 1248,
          "time": 6.087471000000001,
          "velocity": 0.6299212598425197
        },
        {
          "duration": 0.10731118749999968,
          "durationTicks": 22,
          "midi": 65,
          "name": "F4",
          "ticks": 1248,
          "time": 6.087471000000001,
          "velocity": 0.6299212598425197
        },
        {
          "duration": 0.10731118749999968,
          "durationTicks": 22,
          "midi": 65,
          "name": "F4",
          "ticks": 1278,
          "time": 6.233804437500001,
          "velocity": 0.6299212598425197
        },
        {
          "duration": 0.10731118749999968,
          "durationTicks": 22,
          "midi": 60,
          "name": "C4",
          "ticks": 1278,
          "time": 6.233804437500001,
          "velocity": 0.6299212598425197
        },
        {
          "duration": 0.10731118749999968,
          "durationTicks": 22,
          "midi": 60,
          "name": "C4",
          "ticks": 1344,
          "time": 6.555738000000001,
          "velocity": 0.6299212598425197
        },
        {
          "duration": 0.10731118749999968,
          "durationTicks": 22,
          "midi": 65,
          "name": "F4",
          "ticks": 1344,
          "time": 6.555738000000001,
          "velocity": 0.6299212598425197
        },
        {
          "duration": 0.10731118749999968,
          "durationTicks": 22,
          "midi": 65,
          "name": "F4",
          "ticks": 1374,
          "time": 6.702071437500001,
          "velocity": 0.6299212598425197
        },
        {
          "duration": 0.10731118749999968,
          "durationTicks": 22,
          "midi": 60,
          "name": "C4",
          "ticks": 1374,
          "time": 6.702071437500001,
          "velocity": 0.6299212598425197
        },
        {
          "duration": 0.21950015624999963,
          "durationTicks": 45,
          "midi": 61,
          "name": "C#4",
          "ticks": 1440,
          "time": 7.024005000000001,
          "velocity": 0.6299212598425197
        },
        {
          "duration": 0.21950015624999963,
          "durationTicks": 45,
          "midi": 66,
          "name": "F#4",
          "ticks": 1440,
          "time": 7.024005000000001,
          "velocity": 0.6299212598425197
        },
        {
          "duration": 0.10731118750000057,
          "durationTicks": 22,
          "midi": 60,
          "name": "C4",
          "ticks": 1536,
          "time": 7.492272000000001,
          "velocity": 0.6299212598425197
        },
        {
          "duration": 0.10731118750000057,
          "durationTicks": 22,
          "midi": 65,
          "name": "F4",
          "ticks": 1536,
          "time": 7.492272000000001,
          "velocity": 0.6299212598425197
        },
        {
          "duration": 0.10731118750000057,
          "durationTicks": 22,
          "midi": 60,
          "name": "C4",
          "ticks": 1584,
          "time": 7.726405500000001,
          "velocity": 0.6299212598425197
        },
        {
          "duration": 0.10731118750000057,
          "durationTicks": 22,
          "midi": 65,
          "name": "F4",
          "ticks": 1584,
          "time": 7.726405500000001,
          "velocity": 0.6299212598425197
        },
        {
          "duration": 0.10731118750000057,
          "durationTicks": 22,
          "midi": 65,
          "name": "F4",
          "ticks": 1614,
          "time": 7.8727389375,
          "velocity": 0.6299212598425197
        },
        {
          "duration": 0.10731118750000057,
          "durationTicks": 22,
          "midi": 60,
          "name": "C4",
          "ticks": 1614,
          "time": 7.8727389375,
          "velocity": 0.6299212598425197
        },
        {
          "duration": 0.10731118750000057,
          "durationTicks": 22,
          "midi": 60,
          "name": "C4",
          "ticks": 1680,
          "time": 8.194672500000001,
          "velocity": 0.6299212598425197
        },
        {
          "duration": 0.10731118750000057,
          "durationTicks": 22,
          "midi": 65,
          "name": "F4",
          "ticks": 1680,
          "time": 8.194672500000001,
          "velocity": 0.6299212598425197
        },
        {
          "duration": 0.10731118750000057,
          "durationTicks": 22,
          "midi": 60,
          "name": "C4",
          "ticks": 1728,
          "time": 8.428806000000002,
          "velocity": 0.6299212598425197
        },
        {
          "duration": 0.10731118750000057,
          "durationTicks": 22,
          "midi": 65,
          "name": "F4",
          "ticks": 1728,
          "time": 8.428806000000002,
          "velocity": 0.6299212598425197
        },
        {
          "duration": 0.10731118750000057,
          "durationTicks": 22,
          "midi": 65,
          "name": "F4",
          "ticks": 1758,
          "time": 8.5751394375,
          "velocity": 0.6299212598425197
        },
        {
          "duration": 0.10731118750000057,
          "durationTicks": 22,
          "midi": 60,
          "name": "C4",
          "ticks": 1758,
          "time": 8.5751394375,
          "velocity": 0.6299212598425197
        },
        {
          "duration": 0.10731118750000057,
          "durationTicks": 22,
          "midi": 60,
          "name": "C4",
          "ticks": 1824,
          "time": 8.897073,
          "velocity": 0.6299212598425197
        },
        {
          "duration": 0.10731118750000057,
          "durationTicks": 22,
          "midi": 65,
          "name": "F4",
          "ticks": 1824,
          "time": 8.897073,
          "velocity": 0.6299212598425197
        },
        {
          "duration": 0.10731118750000057,
          "durationTicks": 22,
          "midi": 60,
          "name": "C4",
          "ticks": 1872,
          "time": 9.131206500000001,
          "velocity": 0.6299212598425197
        },
        {
          "duration": 0.10731118750000057,
          "durationTicks": 22,
          "midi": 65,
          "name": "F4",
          "ticks": 1872,
          "time": 9.131206500000001,
          "velocity": 0.6299212598425197
        },
        {
          "duration": 0.10731118750000057,
          "durationTicks": 22,
          "midi": 65,
          "name": "F4",
          "ticks": 1902,
          "time": 9.2775399375,
          "velocity": 0.6299212598425197
        },
        {
          "duration": 0.10731118750000057,
          "durationTicks": 22,
          "midi": 60,
          "name": "C4",
          "ticks": 1902,
          "time": 9.2775399375,
          "velocity": 0.6299212598425197
        },
        {
          "duration": 0.10731118750000057,
          "durationTicks": 22,
          "midi": 60,
          "name": "C4",
          "ticks": 1968,
          "time": 9.5994735,
          "velocity": 0.6299212598425197
        },
        {
          "duration": 0.10731118750000057,
          "durationTicks": 22,
          "midi": 65,
          "name": "F4",
          "ticks": 1968,
          "time": 9.5994735,
          "velocity": 0.6299212598425197
        },
        {
          "duration": 0.10731118750000057,
          "durationTicks": 22,
          "midi": 60,
          "name": "C4",
          "ticks": 2016,
          "time": 9.833607,
          "velocity": 0.6299212598425197
        },
        {
          "duration": 0.10731118750000057,
          "durationTicks": 22,
          "midi": 65,
          "name": "F4",
          "ticks": 2016,
          "time": 9.833607,
          "velocity": 0.6299212598425197
        },
        {
          "duration": 0.10731118750000057,
          "durationTicks": 22,
          "midi": 65,
          "name": "F4",
          "ticks": 2046,
          "time": 9.979940437500002,
          "velocity": 0.6299212598425197
        },
        {
          "duration": 0.10731118750000057,
          "durationTicks": 22,
          "midi": 60,
          "name": "C4",
          "ticks": 2046,
          "time": 9.979940437500002,
          "velocity": 0.6299212598425197
        },
        {
          "duration": 0.10731118750000057,
          "durationTicks": 22,
          "midi": 60,
          "name": "C4",
          "ticks": 2112,
          "time": 10.301874000000002,
          "velocity": 0.6299212598425197
        },
        {
          "duration": 0.10731118750000057,
          "durationTicks": 22,
          "midi": 65,
          "name": "F4",
          "ticks": 2112,
          "time": 10.301874000000002,
          "velocity": 0.6299212598425197
        },
        {
          "duration": 0.10731118750000057,
          "durationTicks": 22,
          "midi": 65,
          "name": "F4",
          "ticks": 2142,
          "time": 10.4482074375,
          "velocity": 0.6299212598425197
        },
        {
          "duration": 0.10731118750000057,
          "durationTicks": 22,
          "midi": 60,
          "name": "C4",
          "ticks": 2142,
          "time": 10.4482074375,
          "velocity": 0.6299212598425197
        },
        {
          "duration": 0.21950015624999963,
          "durationTicks": 45,
          "midi": 61,
          "name": "C#4",
          "ticks": 2208,
          "time": 10.770141,
          "velocity": 0.6299212598425197
        },
        {
          "duration": 0.21950015624999963,
          "durationTicks": 45,
          "midi": 66,
          "name": "F#4",
          "ticks": 2208,
          "time": 10.770141,
          "velocity": 0.6299212598425197
        },
        {
          "duration": 0.10731118750000057,
          "durationTicks": 22,
          "midi": 60,
          "name": "C4",
          "ticks": 2304,
          "time": 11.238408000000002,
          "velocity": 0.6299212598425197
        },
        {
          "duration": 0.10731118750000057,
          "durationTicks": 22,
          "midi": 65,
          "name": "F4",
          "ticks": 2304,
          "time": 11.238408000000002,
          "velocity": 0.6299212598425197
        },
        {
          "duration": 0.10731118750000057,
          "durationTicks": 22,
          "midi": 60,
          "name": "C4",
          "ticks": 2352,
          "time": 11.472541500000002,
          "velocity": 0.6299212598425197
        },
        {
          "duration": 0.10731118750000057,
          "durationTicks": 22,
          "midi": 65,
          "name": "F4",
          "ticks": 2352,
          "time": 11.472541500000002,
          "velocity": 0.6299212598425197
        },
        {
          "duration": 0.10731118750000057,
          "durationTicks": 22,
          "midi": 65,
          "name": "F4",
          "ticks": 2382,
          "time": 11.618874937500001,
          "velocity": 0.6299212598425197
        },
        {
          "duration": 0.10731118750000057,
          "durationTicks": 22,
          "midi": 60,
          "name": "C4",
          "ticks": 2382,
          "time": 11.618874937500001,
          "velocity": 0.6299212598425197
        },
        {
          "duration": 0.10731118750000057,
          "durationTicks": 22,
          "midi": 60,
          "name": "C4",
          "ticks": 2448,
          "time": 11.940808500000001,
          "velocity": 0.6299212598425197
        },
        {
          "duration": 0.10731118750000057,
          "durationTicks": 22,
          "midi": 65,
          "name": "F4",
          "ticks": 2448,
          "time": 11.940808500000001,
          "velocity": 0.6299212598425197
        },
        {
          "duration": 0.10731118750000057,
          "durationTicks": 22,
          "midi": 60,
          "name": "C4",
          "ticks": 2496,
          "time": 12.174942000000001,
          "velocity": 0.6299212598425197
        },
        {
          "duration": 0.10731118750000057,
          "durationTicks": 22,
          "midi": 65,
          "name": "F4",
          "ticks": 2496,
          "time": 12.174942000000001,
          "velocity": 0.6299212598425197
        },
        {
          "duration": 0.10731118750000057,
          "durationTicks": 22,
          "midi": 65,
          "name": "F4",
          "ticks": 2526,
          "time": 12.3212754375,
          "velocity": 0.6299212598425197
        },
        {
          "duration": 0.10731118750000057,
          "durationTicks": 22,
          "midi": 60,
          "name": "C4",
          "ticks": 2526,
          "time": 12.3212754375,
          "velocity": 0.6299212598425197
        },
        {
          "duration": 0.10731118750000057,
          "durationTicks": 22,
          "midi": 60,
          "name": "C4",
          "ticks": 2592,
          "time": 12.643209,
          "velocity": 0.6299212598425197
        },
        {
          "duration": 0.10731118750000057,
          "durationTicks": 22,
          "midi": 65,
          "name": "F4",
          "ticks": 2592,
          "time": 12.643209,
          "velocity": 0.6299212598425197
        },
        {
          "duration": 0.10731118750000057,
          "durationTicks": 22,
          "midi": 60,
          "name": "C4",
          "ticks": 2640,
          "time": 12.877342500000001,
          "velocity": 0.6299212598425197
        },
        {
          "duration": 0.10731118750000057,
          "durationTicks": 22,
          "midi": 65,
          "name": "F4",
          "ticks": 2640,
          "time": 12.877342500000001,
          "velocity": 0.6299212598425197
        },
        {
          "duration": 0.10731118750000057,
          "durationTicks": 22,
          "midi": 65,
          "name": "F4",
          "ticks": 2670,
          "time": 13.023675937500002,
          "velocity": 0.6299212598425197
        },
        {
          "duration": 0.10731118750000057,
          "durationTicks": 22,
          "midi": 60,
          "name": "C4",
          "ticks": 2670,
          "time": 13.023675937500002,
          "velocity": 0.6299212598425197
        },
        {
          "duration": 0.10731118750000057,
          "durationTicks": 22,
          "midi": 60,
          "name": "C4",
          "ticks": 2736,
          "time": 13.345609500000002,
          "velocity": 0.6299212598425197
        },
        {
          "duration": 0.10731118750000057,
          "durationTicks": 22,
          "midi": 65,
          "name": "F4",
          "ticks": 2736,
          "time": 13.345609500000002,
          "velocity": 0.6299212598425197
        },
        {
          "duration": 0.10731118750000057,
          "durationTicks": 22,
          "midi": 60,
          "name": "C4",
          "ticks": 2784,
          "time": 13.579743,
          "velocity": 0.6299212598425197
        },
        {
          "duration": 0.10731118750000057,
          "durationTicks": 22,
          "midi": 65,
          "name": "F4",
          "ticks": 2784,
          "time": 13.579743,
          "velocity": 0.6299212598425197
        },
        {
          "duration": 0.10731118750000057,
          "durationTicks": 22,
          "midi": 65,
          "name": "F4",
          "ticks": 2814,
          "time": 13.726076437500002,
          "velocity": 0.6299212598425197
        },
        {
          "duration": 0.10731118750000057,
          "durationTicks": 22,
          "midi": 60,
          "name": "C4",
          "ticks": 2814,
          "time": 13.726076437500002,
          "velocity": 0.6299212598425197
        },
        {
          "duration": 0.10731118750000057,
          "durationTicks": 22,
          "midi": 60,
          "name": "C4",
          "ticks": 2880,
          "time": 14.048010000000001,
          "velocity": 0.6299212598425197
        },
        {
          "duration": 0.10731118750000057,
          "durationTicks": 22,
          "midi": 65,
          "name": "F4",
          "ticks": 2880,
          "time": 14.048010000000001,
          "velocity": 0.6299212598425197
        },
        {
          "duration": 0.10731118750000057,
          "durationTicks": 22,
          "midi": 65,
          "name": "F4",
          "ticks": 2910,
          "time": 14.1943434375,
          "velocity": 0.6299212598425197
        },
        {
          "duration": 0.10731118750000057,
          "durationTicks": 22,
          "midi": 60,
          "name": "C4",
          "ticks": 2910,
          "time": 14.1943434375,
          "velocity": 0.6299212598425197
        },
        {
          "duration": 0.2195001562500014,
          "durationTicks": 45,
          "midi": 61,
          "name": "C#4",
          "ticks": 2976,
          "time": 14.516277,
          "velocity": 0.6299212598425197
        },
        {
          "duration": 0.2195001562500014,
          "durationTicks": 45,
          "midi": 66,
          "name": "F#4",
          "ticks": 2976,
          "time": 14.516277,
          "velocity": 0.6299212598425197
        },
        {
          "duration": 0.1073111874999988,
          "durationTicks": 22,
          "midi": 60,
          "name": "C4",
          "ticks": 3072,
          "time": 14.984544000000001,
          "velocity": 0.6299212598425197
        },
        {
          "duration": 0.1073111874999988,
          "durationTicks": 22,
          "midi": 65,
          "name": "F4",
          "ticks": 3072,
          "time": 14.984544000000001,
          "velocity": 0.6299212598425197
        },
        {
          "duration": 0.1073111874999988,
          "durationTicks": 22,
          "midi": 60,
          "name": "C4",
          "ticks": 3120,
          "time": 15.218677500000002,
          "velocity": 0.6299212598425197
        },
        {
          "duration": 0.1073111874999988,
          "durationTicks": 22,
          "midi": 65,
          "name": "F4",
          "ticks": 3120,
          "time": 15.218677500000002,
          "velocity": 0.6299212598425197
        },
        {
          "duration": 0.1073111874999988,
          "durationTicks": 22,
          "midi": 65,
          "name": "F4",
          "ticks": 3150,
          "time": 15.365010937500001,
          "velocity": 0.6299212598425197
        },
        {
          "duration": 0.1073111874999988,
          "durationTicks": 22,
          "midi": 60,
          "name": "C4",
          "ticks": 3150,
          "time": 15.365010937500001,
          "velocity": 0.6299212598425197
        },
        {
          "duration": 0.1073111874999988,
          "durationTicks": 22,
          "midi": 60,
          "name": "C4",
          "ticks": 3216,
          "time": 15.686944500000001,
          "velocity": 0.6299212598425197
        },
        {
          "duration": 0.1073111874999988,
          "durationTicks": 22,
          "midi": 65,
          "name": "F4",
          "ticks": 3216,
          "time": 15.686944500000001,
          "velocity": 0.6299212598425197
        },
        {
          "duration": 0.1073111874999988,
          "durationTicks": 22,
          "midi": 60,
          "name": "C4",
          "ticks": 3264,
          "time": 15.921078000000001,
          "velocity": 0.6299212598425197
        },
        {
          "duration": 0.1073111874999988,
          "durationTicks": 22,
          "midi": 65,
          "name": "F4",
          "ticks": 3264,
          "time": 15.921078000000001,
          "velocity": 0.6299212598425197
        },
        {
          "duration": 0.1073111874999988,
          "durationTicks": 22,
          "midi": 65,
          "name": "F4",
          "ticks": 3294,
          "time": 16.067411437500002,
          "velocity": 0.6299212598425197
        },
        {
          "duration": 0.1073111874999988,
          "durationTicks": 22,
          "midi": 60,
          "name": "C4",
          "ticks": 3294,
          "time": 16.067411437500002,
          "velocity": 0.6299212598425197
        },
        {
          "duration": 0.1073111874999988,
          "durationTicks": 22,
          "midi": 60,
          "name": "C4",
          "ticks": 3360,
          "time": 16.389345000000002,
          "velocity": 0.6299212598425197
        },
        {
          "duration": 0.1073111874999988,
          "durationTicks": 22,
          "midi": 65,
          "name": "F4",
          "ticks": 3360,
          "time": 16.389345000000002,
          "velocity": 0.6299212598425197
        },
        {
          "duration": 0.1073111874999988,
          "durationTicks": 22,
          "midi": 60,
          "name": "C4",
          "ticks": 3408,
          "time": 16.6234785,
          "velocity": 0.6299212598425197
        },
        {
          "duration": 0.1073111874999988,
          "durationTicks": 22,
          "midi": 65,
          "name": "F4",
          "ticks": 3408,
          "time": 16.6234785,
          "velocity": 0.6299212598425197
        },
        {
          "duration": 0.1073111874999988,
          "durationTicks": 22,
          "midi": 65,
          "name": "F4",
          "ticks": 3438,
          "time": 16.769811937500002,
          "velocity": 0.6299212598425197
        },
        {
          "duration": 0.1073111874999988,
          "durationTicks": 22,
          "midi": 60,
          "name": "C4",
          "ticks": 3438,
          "time": 16.769811937500002,
          "velocity": 0.6299212598425197
        },
        {
          "duration": 0.1073111874999988,
          "durationTicks": 22,
          "midi": 60,
          "name": "C4",
          "ticks": 3504,
          "time": 17.091745500000002,
          "velocity": 0.6299212598425197
        },
        {
          "duration": 0.1073111874999988,
          "durationTicks": 22,
          "midi": 65,
          "name": "F4",
          "ticks": 3504,
          "time": 17.091745500000002,
          "velocity": 0.6299212598425197
        },
        {
          "duration": 0.1073111874999988,
          "durationTicks": 22,
          "midi": 60,
          "name": "C4",
          "ticks": 3552,
          "time": 17.325879,
          "velocity": 0.6299212598425197
        },
        {
          "duration": 0.1073111874999988,
          "durationTicks": 22,
          "midi": 65,
          "name": "F4",
          "ticks": 3552,
          "time": 17.325879,
          "velocity": 0.6299212598425197
        },
        {
          "duration": 0.1073111874999988,
          "durationTicks": 22,
          "midi": 65,
          "name": "F4",
          "ticks": 3582,
          "time": 17.4722124375,
          "velocity": 0.6299212598425197
        },
        {
          "duration": 0.1073111874999988,
          "durationTicks": 22,
          "midi": 60,
          "name": "C4",
          "ticks": 3582,
          "time": 17.4722124375,
          "velocity": 0.6299212598425197
        },
        {
          "duration": 0.1073111874999988,
          "durationTicks": 22,
          "midi": 60,
          "name": "C4",
          "ticks": 3648,
          "time": 17.794146,
          "velocity": 0.6299212598425197
        },
        {
          "duration": 0.1073111874999988,
          "durationTicks": 22,
          "midi": 65,
          "name": "F4",
          "ticks": 3648,
          "time": 17.794146,
          "velocity": 0.6299212598425197
        },
        {
          "duration": 0.1073111874999988,
          "durationTicks": 22,
          "midi": 65,
          "name": "F4",
          "ticks": 3678,
          "time": 17.940479437500002,
          "velocity": 0.6299212598425197
        },
        {
          "duration": 0.1073111874999988,
          "durationTicks": 22,
          "midi": 60,
          "name": "C4",
          "ticks": 3678,
          "time": 17.940479437500002,
          "velocity": 0.6299212598425197
        },
        {
          "duration": 0.21950015624999963,
          "durationTicks": 45,
          "midi": 61,
          "name": "C#4",
          "ticks": 3744,
          "time": 18.262413000000002,
          "velocity": 0.6299212598425197
        },
        {
          "duration": 0.21950015624999963,
          "durationTicks": 45,
          "midi": 66,
          "name": "F#4",
          "ticks": 3744,
          "time": 18.262413000000002,
          "velocity": 0.6299212598425197
        },
        {
          "duration": 0.1073111874999988,
          "durationTicks": 22,
          "midi": 60,
          "name": "C4",
          "ticks": 3840,
          "time": 18.730680000000003,
          "velocity": 0.6299212598425197
        },
        {
          "duration": 0.1073111874999988,
          "durationTicks": 22,
          "midi": 65,
          "name": "F4",
          "ticks": 3840,
          "time": 18.730680000000003,
          "velocity": 0.6299212598425197
        },
        {
          "duration": 0.1073111874999988,
          "durationTicks": 22,
          "midi": 60,
          "name": "C4",
          "ticks": 3888,
          "time": 18.9648135,
          "velocity": 0.6299212598425197
        },
        {
          "duration": 0.1073111874999988,
          "durationTicks": 22,
          "midi": 65,
          "name": "F4",
          "ticks": 3888,
          "time": 18.9648135,
          "velocity": 0.6299212598425197
        },
        {
          "duration": 0.1073111874999988,
          "durationTicks": 22,
          "midi": 65,
          "name": "F4",
          "ticks": 3918,
          "time": 19.111146937500003,
          "velocity": 0.6299212598425197
        },
        {
          "duration": 0.1073111874999988,
          "durationTicks": 22,
          "midi": 60,
          "name": "C4",
          "ticks": 3918,
          "time": 19.111146937500003,
          "velocity": 0.6299212598425197
        },
        {
          "duration": 0.1073111874999988,
          "durationTicks": 22,
          "midi": 60,
          "name": "C4",
          "ticks": 3984,
          "time": 19.433080500000003,
          "velocity": 0.6299212598425197
        },
        {
          "duration": 0.1073111874999988,
          "durationTicks": 22,
          "midi": 65,
          "name": "F4",
          "ticks": 3984,
          "time": 19.433080500000003,
          "velocity": 0.6299212598425197
        },
        {
          "duration": 0.1073111874999988,
          "durationTicks": 22,
          "midi": 60,
          "name": "C4",
          "ticks": 4032,
          "time": 19.667214,
          "velocity": 0.6299212598425197
        },
        {
          "duration": 0.1073111874999988,
          "durationTicks": 22,
          "midi": 65,
          "name": "F4",
          "ticks": 4032,
          "time": 19.667214,
          "velocity": 0.6299212598425197
        },
        {
          "duration": 0.1073111874999988,
          "durationTicks": 22,
          "midi": 65,
          "name": "F4",
          "ticks": 4062,
          "time": 19.813547437500002,
          "velocity": 0.6299212598425197
        },
        {
          "duration": 0.1073111874999988,
          "durationTicks": 22,
          "midi": 60,
          "name": "C4",
          "ticks": 4062,
          "time": 19.813547437500002,
          "velocity": 0.6299212598425197
        },
        {
          "duration": 0.1073111874999988,
          "durationTicks": 22,
          "midi": 60,
          "name": "C4",
          "ticks": 4128,
          "time": 20.135481000000002,
          "velocity": 0.6299212598425197
        },
        {
          "duration": 0.1073111874999988,
          "durationTicks": 22,
          "midi": 65,
          "name": "F4",
          "ticks": 4128,
          "time": 20.135481000000002,
          "velocity": 0.6299212598425197
        },
        {
          "duration": 0.1073111874999988,
          "durationTicks": 22,
          "midi": 60,
          "name": "C4",
          "ticks": 4176,
          "time": 20.3696145,
          "velocity": 0.6299212598425197
        },
        {
          "duration": 0.1073111874999988,
          "durationTicks": 22,
          "midi": 65,
          "name": "F4",
          "ticks": 4176,
          "time": 20.3696145,
          "velocity": 0.6299212598425197
        },
        {
          "duration": 0.1073111874999988,
          "durationTicks": 22,
          "midi": 65,
          "name": "F4",
          "ticks": 4206,
          "time": 20.515947937500002,
          "velocity": 0.6299212598425197
        },
        {
          "duration": 0.1073111874999988,
          "durationTicks": 22,
          "midi": 60,
          "name": "C4",
          "ticks": 4206,
          "time": 20.515947937500002,
          "velocity": 0.6299212598425197
        },
        {
          "duration": 0.1073111874999988,
          "durationTicks": 22,
          "midi": 60,
          "name": "C4",
          "ticks": 4272,
          "time": 20.8378815,
          "velocity": 0.6299212598425197
        },
        {
          "duration": 0.1073111874999988,
          "durationTicks": 22,
          "midi": 65,
          "name": "F4",
          "ticks": 4272,
          "time": 20.8378815,
          "velocity": 0.6299212598425197
        },
        {
          "duration": 0.1073111874999988,
          "durationTicks": 22,
          "midi": 60,
          "name": "C4",
          "ticks": 4320,
          "time": 21.072015,
          "velocity": 0.6299212598425197
        },
        {
          "duration": 0.1073111874999988,
          "durationTicks": 22,
          "midi": 65,
          "name": "F4",
          "ticks": 4320,
          "time": 21.072015,
          "velocity": 0.6299212598425197
        },
        {
          "duration": 0.1073111874999988,
          "durationTicks": 22,
          "midi": 65,
          "name": "F4",
          "ticks": 4350,
          "time": 21.2183484375,
          "velocity": 0.6299212598425197
        },
        {
          "duration": 0.1073111874999988,
          "durationTicks": 22,
          "midi": 60,
          "name": "C4",
          "ticks": 4350,
          "time": 21.2183484375,
          "velocity": 0.6299212598425197
        },
        {
          "duration": 0.1073111874999988,
          "durationTicks": 22,
          "midi": 60,
          "name": "C4",
          "ticks": 4416,
          "time": 21.540282,
          "velocity": 0.6299212598425197
        },
        {
          "duration": 0.1073111874999988,
          "durationTicks": 22,
          "midi": 65,
          "name": "F4",
          "ticks": 4416,
          "time": 21.540282,
          "velocity": 0.6299212598425197
        },
        {
          "duration": 0.1073111874999988,
          "durationTicks": 22,
          "midi": 65,
          "name": "F4",
          "ticks": 4446,
          "time": 21.686615437500002,
          "velocity": 0.6299212598425197
        },
        {
          "duration": 0.1073111874999988,
          "durationTicks": 22,
          "midi": 60,
          "name": "C4",
          "ticks": 4446,
          "time": 21.686615437500002,
          "velocity": 0.6299212598425197
        },
        {
          "duration": 0.21950015624999963,
          "durationTicks": 45,
          "midi": 61,
          "name": "C#4",
          "ticks": 4512,
          "time": 22.008549000000002,
          "velocity": 0.6299212598425197
        },
        {
          "duration": 0.21950015624999963,
          "durationTicks": 45,
          "midi": 66,
          "name": "F#4",
          "ticks": 4512,
          "time": 22.008549000000002,
          "velocity": 0.6299212598425197
        },
        {
          "duration": 0.1073111874999988,
          "durationTicks": 22,
          "midi": 60,
          "name": "C4",
          "ticks": 4608,
          "time": 22.476816000000003,
          "velocity": 0.6299212598425197
        },
        {
          "duration": 0.1073111874999988,
          "durationTicks": 22,
          "midi": 65,
          "name": "F4",
          "ticks": 4608,
          "time": 22.476816000000003,
          "velocity": 0.6299212598425197
        },
        {
          "duration": 0.1073111874999988,
          "durationTicks": 22,
          "midi": 60,
          "name": "C4",
          "ticks": 4656,
          "time": 22.7109495,
          "velocity": 0.6299212598425197
        },
        {
          "duration": 0.1073111874999988,
          "durationTicks": 22,
          "midi": 65,
          "name": "F4",
          "ticks": 4656,
          "time": 22.7109495,
          "velocity": 0.6299212598425197
        },
        {
          "duration": 0.1073111874999988,
          "durationTicks": 22,
          "midi": 65,
          "name": "F4",
          "ticks": 4686,
          "time": 22.857282937500003,
          "velocity": 0.6299212598425197
        },
        {
          "duration": 0.1073111874999988,
          "durationTicks": 22,
          "midi": 60,
          "name": "C4",
          "ticks": 4686,
          "time": 22.857282937500003,
          "velocity": 0.6299212598425197
        },
        {
          "duration": 0.1073111874999988,
          "durationTicks": 22,
          "midi": 60,
          "name": "C4",
          "ticks": 4752,
          "time": 23.179216500000003,
          "velocity": 0.6299212598425197
        },
        {
          "duration": 0.1073111874999988,
          "durationTicks": 22,
          "midi": 65,
          "name": "F4",
          "ticks": 4752,
          "time": 23.179216500000003,
          "velocity": 0.6299212598425197
        },
        {
          "duration": 0.1073111874999988,
          "durationTicks": 22,
          "midi": 60,
          "name": "C4",
          "ticks": 4800,
          "time": 23.41335,
          "velocity": 0.6299212598425197
        },
        {
          "duration": 0.1073111874999988,
          "durationTicks": 22,
          "midi": 65,
          "name": "F4",
          "ticks": 4800,
          "time": 23.41335,
          "velocity": 0.6299212598425197
        },
        {
          "duration": 0.1073111874999988,
          "durationTicks": 22,
          "midi": 65,
          "name": "F4",
          "ticks": 4830,
          "time": 23.559683437500002,
          "velocity": 0.6299212598425197
        },
        {
          "duration": 0.1073111874999988,
          "durationTicks": 22,
          "midi": 60,
          "name": "C4",
          "ticks": 4830,
          "time": 23.559683437500002,
          "velocity": 0.6299212598425197
        },
        {
          "duration": 0.1073111874999988,
          "durationTicks": 22,
          "midi": 60,
          "name": "C4",
          "ticks": 4896,
          "time": 23.881617000000002,
          "velocity": 0.6299212598425197
        },
        {
          "duration": 0.1073111874999988,
          "durationTicks": 22,
          "midi": 65,
          "name": "F4",
          "ticks": 4896,
          "time": 23.881617000000002,
          "velocity": 0.6299212598425197
        },
        {
          "duration": 0.1073111874999988,
          "durationTicks": 22,
          "midi": 60,
          "name": "C4",
          "ticks": 4944,
          "time": 24.1157505,
          "velocity": 0.6299212598425197
        },
        {
          "duration": 0.1073111874999988,
          "durationTicks": 22,
          "midi": 65,
          "name": "F4",
          "ticks": 4944,
          "time": 24.1157505,
          "velocity": 0.6299212598425197
        },
        {
          "duration": 0.1073111874999988,
          "durationTicks": 22,
          "midi": 65,
          "name": "F4",
          "ticks": 4974,
          "time": 24.2620839375,
          "velocity": 0.6299212598425197
        },
        {
          "duration": 0.1073111874999988,
          "durationTicks": 22,
          "midi": 60,
          "name": "C4",
          "ticks": 4974,
          "time": 24.2620839375,
          "velocity": 0.6299212598425197
        },
        {
          "duration": 0.1073111874999988,
          "durationTicks": 22,
          "midi": 60,
          "name": "C4",
          "ticks": 5040,
          "time": 24.5840175,
          "velocity": 0.6299212598425197
        },
        {
          "duration": 0.1073111874999988,
          "durationTicks": 22,
          "midi": 65,
          "name": "F4",
          "ticks": 5040,
          "time": 24.5840175,
          "velocity": 0.6299212598425197
        },
        {
          "duration": 0.1073111874999988,
          "durationTicks": 22,
          "midi": 60,
          "name": "C4",
          "ticks": 5088,
          "time": 24.818151000000004,
          "velocity": 0.6299212598425197
        },
        {
          "duration": 0.1073111874999988,
          "durationTicks": 22,
          "midi": 65,
          "name": "F4",
          "ticks": 5088,
          "time": 24.818151000000004,
          "velocity": 0.6299212598425197
        },
        {
          "duration": 0.1073111874999988,
          "durationTicks": 22,
          "midi": 65,
          "name": "F4",
          "ticks": 5118,
          "time": 24.9644844375,
          "velocity": 0.6299212598425197
        },
        {
          "duration": 0.1073111874999988,
          "durationTicks": 22,
          "midi": 60,
          "name": "C4",
          "ticks": 5118,
          "time": 24.9644844375,
          "velocity": 0.6299212598425197
        },
        {
          "duration": 0.1073111874999988,
          "durationTicks": 22,
          "midi": 60,
          "name": "C4",
          "ticks": 5184,
          "time": 25.286418,
          "velocity": 0.6299212598425197
        },
        {
          "duration": 0.1073111874999988,
          "durationTicks": 22,
          "midi": 65,
          "name": "F4",
          "ticks": 5184,
          "time": 25.286418,
          "velocity": 0.6299212598425197
        },
        {
          "duration": 0.1073111874999988,
          "durationTicks": 22,
          "midi": 65,
          "name": "F4",
          "ticks": 5214,
          "time": 25.432751437500002,
          "velocity": 0.6299212598425197
        },
        {
          "duration": 0.1073111874999988,
          "durationTicks": 22,
          "midi": 60,
          "name": "C4",
          "ticks": 5214,
          "time": 25.432751437500002,
          "velocity": 0.6299212598425197
        },
        {
          "duration": 0.21950015624999963,
          "durationTicks": 45,
          "midi": 61,
          "name": "C#4",
          "ticks": 5280,
          "time": 25.754685000000002,
          "velocity": 0.6299212598425197
        },
        {
          "duration": 0.21950015624999963,
          "durationTicks": 45,
          "midi": 66,
          "name": "F#4",
          "ticks": 5280,
          "time": 25.754685000000002,
          "velocity": 0.6299212598425197
        },
        {
          "duration": 0.1073111874999988,
          "durationTicks": 22,
          "midi": 60,
          "name": "C4",
          "ticks": 5376,
          "time": 26.222952000000003,
          "velocity": 0.6299212598425197
        },
        {
          "duration": 0.1073111874999988,
          "durationTicks": 22,
          "midi": 65,
          "name": "F4",
          "ticks": 5376,
          "time": 26.222952000000003,
          "velocity": 0.6299212598425197
        },
        {
          "duration": 0.1073111874999988,
          "durationTicks": 22,
          "midi": 60,
          "name": "C4",
          "ticks": 5424,
          "time": 26.4570855,
          "velocity": 0.6299212598425197
        },
        {
          "duration": 0.1073111874999988,
          "durationTicks": 22,
          "midi": 65,
          "name": "F4",
          "ticks": 5424,
          "time": 26.4570855,
          "velocity": 0.6299212598425197
        },
        {
          "duration": 0.1073111874999988,
          "durationTicks": 22,
          "midi": 65,
          "name": "F4",
          "ticks": 5454,
          "time": 26.603418937500003,
          "velocity": 0.6299212598425197
        },
        {
          "duration": 0.1073111874999988,
          "durationTicks": 22,
          "midi": 60,
          "name": "C4",
          "ticks": 5454,
          "time": 26.603418937500003,
          "velocity": 0.6299212598425197
        },
        {
          "duration": 0.1073111874999988,
          "durationTicks": 22,
          "midi": 60,
          "name": "C4",
          "ticks": 5520,
          "time": 26.925352500000002,
          "velocity": 0.6299212598425197
        },
        {
          "duration": 0.1073111874999988,
          "durationTicks": 22,
          "midi": 65,
          "name": "F4",
          "ticks": 5520,
          "time": 26.925352500000002,
          "velocity": 0.6299212598425197
        },
        {
          "duration": 0.1073111874999988,
          "durationTicks": 22,
          "midi": 60,
          "name": "C4",
          "ticks": 5568,
          "time": 27.159486,
          "velocity": 0.6299212598425197
        },
        {
          "duration": 0.1073111874999988,
          "durationTicks": 22,
          "midi": 65,
          "name": "F4",
          "ticks": 5568,
          "time": 27.159486,
          "velocity": 0.6299212598425197
        },
        {
          "duration": 0.1073111874999988,
          "durationTicks": 22,
          "midi": 65,
          "name": "F4",
          "ticks": 5598,
          "time": 27.305819437500002,
          "velocity": 0.6299212598425197
        },
        {
          "duration": 0.1073111874999988,
          "durationTicks": 22,
          "midi": 60,
          "name": "C4",
          "ticks": 5598,
          "time": 27.305819437500002,
          "velocity": 0.6299212598425197
        },
        {
          "duration": 0.1073111874999988,
          "durationTicks": 22,
          "midi": 60,
          "name": "C4",
          "ticks": 5664,
          "time": 27.627753000000002,
          "velocity": 0.6299212598425197
        },
        {
          "duration": 0.1073111874999988,
          "durationTicks": 22,
          "midi": 65,
          "name": "F4",
          "ticks": 5664,
          "time": 27.627753000000002,
          "velocity": 0.6299212598425197
        },
        {
          "duration": 0.1073111874999988,
          "durationTicks": 22,
          "midi": 60,
          "name": "C4",
          "ticks": 5712,
          "time": 27.861886500000004,
          "velocity": 0.6299212598425197
        },
        {
          "duration": 0.1073111874999988,
          "durationTicks": 22,
          "midi": 65,
          "name": "F4",
          "ticks": 5712,
          "time": 27.861886500000004,
          "velocity": 0.6299212598425197
        },
        {
          "duration": 0.1073111874999988,
          "durationTicks": 22,
          "midi": 65,
          "name": "F4",
          "ticks": 5742,
          "time": 28.0082199375,
          "velocity": 0.6299212598425197
        },
        {
          "duration": 0.1073111874999988,
          "durationTicks": 22,
          "midi": 60,
          "name": "C4",
          "ticks": 5742,
          "time": 28.0082199375,
          "velocity": 0.6299212598425197
        },
        {
          "duration": 0.1073111874999988,
          "durationTicks": 22,
          "midi": 60,
          "name": "C4",
          "ticks": 5808,
          "time": 28.3301535,
          "velocity": 0.6299212598425197
        },
        {
          "duration": 0.1073111874999988,
          "durationTicks": 22,
          "midi": 65,
          "name": "F4",
          "ticks": 5808,
          "time": 28.3301535,
          "velocity": 0.6299212598425197
        },
        {
          "duration": 0.1073111874999988,
          "durationTicks": 22,
          "midi": 60,
          "name": "C4",
          "ticks": 5856,
          "time": 28.564287000000004,
          "velocity": 0.6299212598425197
        },
        {
          "duration": 0.1073111874999988,
          "durationTicks": 22,
          "midi": 65,
          "name": "F4",
          "ticks": 5856,
          "time": 28.564287000000004,
          "velocity": 0.6299212598425197
        },
        {
          "duration": 0.1073111874999988,
          "durationTicks": 22,
          "midi": 65,
          "name": "F4",
          "ticks": 5886,
          "time": 28.7106204375,
          "velocity": 0.6299212598425197
        },
        {
          "duration": 0.1073111874999988,
          "durationTicks": 22,
          "midi": 60,
          "name": "C4",
          "ticks": 5886,
          "time": 28.7106204375,
          "velocity": 0.6299212598425197
        },
        {
          "duration": 0.1073111874999988,
          "durationTicks": 22,
          "midi": 60,
          "name": "C4",
          "ticks": 5952,
          "time": 29.032554,
          "velocity": 0.6299212598425197
        },
        {
          "duration": 0.1073111874999988,
          "durationTicks": 22,
          "midi": 65,
          "name": "F4",
          "ticks": 5952,
          "time": 29.032554,
          "velocity": 0.6299212598425197
        },
        {
          "duration": 0.1073111874999988,
          "durationTicks": 22,
          "midi": 65,
          "name": "F4",
          "ticks": 5982,
          "time": 29.178887437500002,
          "velocity": 0.6299212598425197
        },
        {
          "duration": 0.1073111874999988,
          "durationTicks": 22,
          "midi": 60,
          "name": "C4",
          "ticks": 5982,
          "time": 29.178887437500002,
          "velocity": 0.6299212598425197
        },
        {
          "duration": 0.21950015624999963,
          "durationTicks": 45,
          "midi": 61,
          "name": "C#4",
          "ticks": 6048,
          "time": 29.500821000000002,
          "velocity": 0.6299212598425197
        },
        {
          "duration": 0.21950015624999963,
          "durationTicks": 45,
          "midi": 66,
          "name": "F#4",
          "ticks": 6048,
          "time": 29.500821000000002,
          "velocity": 0.6299212598425197
        },
        {
          "duration": 0.10731118750000235,
          "durationTicks": 22,
          "midi": 60,
          "name": "C4",
          "ticks": 6144,
          "time": 29.969088000000003,
          "velocity": 0.6299212598425197
        },
        {
          "duration": 0.10731118750000235,
          "durationTicks": 22,
          "midi": 65,
          "name": "F4",
          "ticks": 6144,
          "time": 29.969088000000003,
          "velocity": 0.6299212598425197
        },
        {
          "duration": 0.10731118750000235,
          "durationTicks": 22,
          "midi": 60,
          "name": "C4",
          "ticks": 6192,
          "time": 30.2032215,
          "velocity": 0.6299212598425197
        },
        {
          "duration": 0.10731118750000235,
          "durationTicks": 22,
          "midi": 65,
          "name": "F4",
          "ticks": 6192,
          "time": 30.2032215,
          "velocity": 0.6299212598425197
        },
        {
          "duration": 0.10731118750000235,
          "durationTicks": 22,
          "midi": 65,
          "name": "F4",
          "ticks": 6222,
          "time": 30.349554937500002,
          "velocity": 0.6299212598425197
        },
        {
          "duration": 0.10731118750000235,
          "durationTicks": 22,
          "midi": 60,
          "name": "C4",
          "ticks": 6222,
          "time": 30.349554937500002,
          "velocity": 0.6299212598425197
        },
        {
          "duration": 0.10731118750000235,
          "durationTicks": 22,
          "midi": 60,
          "name": "C4",
          "ticks": 6288,
          "time": 30.671488500000002,
          "velocity": 0.6299212598425197
        },
        {
          "duration": 0.10731118750000235,
          "durationTicks": 22,
          "midi": 65,
          "name": "F4",
          "ticks": 6288,
          "time": 30.671488500000002,
          "velocity": 0.6299212598425197
        },
        {
          "duration": 0.1073111874999988,
          "durationTicks": 22,
          "midi": 60,
          "name": "C4",
          "ticks": 6336,
          "time": 30.905622000000005,
          "velocity": 0.6299212598425197
        },
        {
          "duration": 0.1073111874999988,
          "durationTicks": 22,
          "midi": 65,
          "name": "F4",
          "ticks": 6336,
          "time": 30.905622000000005,
          "velocity": 0.6299212598425197
        },
        {
          "duration": 0.10731118750000235,
          "durationTicks": 22,
          "midi": 65,
          "name": "F4",
          "ticks": 6366,
          "time": 31.051955437500002,
          "velocity": 0.6299212598425197
        },
        {
          "duration": 0.10731118750000235,
          "durationTicks": 22,
          "midi": 60,
          "name": "C4",
          "ticks": 6366,
          "time": 31.051955437500002,
          "velocity": 0.6299212598425197
        },
        {
          "duration": 0.10731118750000235,
          "durationTicks": 22,
          "midi": 60,
          "name": "C4",
          "ticks": 6432,
          "time": 31.373889000000002,
          "velocity": 0.6299212598425197
        },
        {
          "duration": 0.10731118750000235,
          "durationTicks": 22,
          "midi": 65,
          "name": "F4",
          "ticks": 6432,
          "time": 31.373889000000002,
          "velocity": 0.6299212598425197
        },
        {
          "duration": 0.10731118750000235,
          "durationTicks": 22,
          "midi": 60,
          "name": "C4",
          "ticks": 6480,
          "time": 31.608022500000004,
          "velocity": 0.6299212598425197
        },
        {
          "duration": 0.10731118750000235,
          "durationTicks": 22,
          "midi": 65,
          "name": "F4",
          "ticks": 6480,
          "time": 31.608022500000004,
          "velocity": 0.6299212598425197
        },
        {
          "duration": 0.10731118750000235,
          "durationTicks": 22,
          "midi": 65,
          "name": "F4",
          "ticks": 6510,
          "time": 31.7543559375,
          "velocity": 0.6299212598425197
        },
        {
          "duration": 0.10731118750000235,
          "durationTicks": 22,
          "midi": 60,
          "name": "C4",
          "ticks": 6510,
          "time": 31.7543559375,
          "velocity": 0.6299212598425197
        },
        {
          "duration": 0.10731118750000235,
          "durationTicks": 22,
          "midi": 60,
          "name": "C4",
          "ticks": 6576,
          "time": 32.0762895,
          "velocity": 0.6299212598425197
        },
        {
          "duration": 0.10731118750000235,
          "durationTicks": 22,
          "midi": 65,
          "name": "F4",
          "ticks": 6576,
          "time": 32.0762895,
          "velocity": 0.6299212598425197
        },
        {
          "duration": 0.10731118750000235,
          "durationTicks": 22,
          "midi": 60,
          "name": "C4",
          "ticks": 6624,
          "time": 32.310423,
          "velocity": 0.6299212598425197
        },
        {
          "duration": 0.10731118750000235,
          "durationTicks": 22,
          "midi": 65,
          "name": "F4",
          "ticks": 6624,
          "time": 32.310423,
          "velocity": 0.6299212598425197
        },
        {
          "duration": 0.10731118750000235,
          "durationTicks": 22,
          "midi": 65,
          "name": "F4",
          "ticks": 6654,
          "time": 32.456756437500005,
          "velocity": 0.6299212598425197
        },
        {
          "duration": 0.10731118750000235,
          "durationTicks": 22,
          "midi": 60,
          "name": "C4",
          "ticks": 6654,
          "time": 32.456756437500005,
          "velocity": 0.6299212598425197
        },
        {
          "duration": 0.10731118750000235,
          "durationTicks": 22,
          "midi": 60,
          "name": "C4",
          "ticks": 6720,
          "time": 32.778690000000005,
          "velocity": 0.6299212598425197
        },
        {
          "duration": 0.10731118750000235,
          "durationTicks": 22,
          "midi": 65,
          "name": "F4",
          "ticks": 6720,
          "time": 32.778690000000005,
          "velocity": 0.6299212598425197
        },
        {
          "duration": 0.10731118750000235,
          "durationTicks": 22,
          "midi": 65,
          "name": "F4",
          "ticks": 6750,
          "time": 32.9250234375,
          "velocity": 0.6299212598425197
        },
        {
          "duration": 0.10731118750000235,
          "durationTicks": 22,
          "midi": 60,
          "name": "C4",
          "ticks": 6750,
          "time": 32.9250234375,
          "velocity": 0.6299212598425197
        },
        {
          "duration": 0.21950015624999963,
          "durationTicks": 45,
          "midi": 61,
          "name": "C#4",
          "ticks": 6816,
          "time": 33.246957,
          "velocity": 0.6299212598425197
        },
        {
          "duration": 0.21950015624999963,
          "durationTicks": 45,
          "midi": 66,
          "name": "F#4",
          "ticks": 6816,
          "time": 33.246957,
          "velocity": 0.6299212598425197
        },
        {
          "duration": 0.10731118750000235,
          "durationTicks": 22,
          "midi": 60,
          "name": "C4",
          "ticks": 6912,
          "time": 33.715224000000006,
          "velocity": 0.6299212598425197
        },
        {
          "duration": 0.10731118750000235,
          "durationTicks": 22,
          "midi": 65,
          "name": "F4",
          "ticks": 6912,
          "time": 33.715224000000006,
          "velocity": 0.6299212598425197
        },
        {
          "duration": 0.10731118750000235,
          "durationTicks": 22,
          "midi": 60,
          "name": "C4",
          "ticks": 6960,
          "time": 33.949357500000005,
          "velocity": 0.6299212598425197
        },
        {
          "duration": 0.10731118750000235,
          "durationTicks": 22,
          "midi": 65,
          "name": "F4",
          "ticks": 6960,
          "time": 33.949357500000005,
          "velocity": 0.6299212598425197
        },
        {
          "duration": 0.10731118750000235,
          "durationTicks": 22,
          "midi": 65,
          "name": "F4",
          "ticks": 6990,
          "time": 34.0956909375,
          "velocity": 0.6299212598425197
        },
        {
          "duration": 0.10731118750000235,
          "durationTicks": 22,
          "midi": 60,
          "name": "C4",
          "ticks": 6990,
          "time": 34.0956909375,
          "velocity": 0.6299212598425197
        },
        {
          "duration": 0.10731118750000235,
          "durationTicks": 22,
          "midi": 60,
          "name": "C4",
          "ticks": 7056,
          "time": 34.4176245,
          "velocity": 0.6299212598425197
        },
        {
          "duration": 0.10731118750000235,
          "durationTicks": 22,
          "midi": 65,
          "name": "F4",
          "ticks": 7056,
          "time": 34.4176245,
          "velocity": 0.6299212598425197
        },
        {
          "duration": 0.10731118750000235,
          "durationTicks": 22,
          "midi": 60,
          "name": "C4",
          "ticks": 7104,
          "time": 34.651758,
          "velocity": 0.6299212598425197
        },
        {
          "duration": 0.10731118750000235,
          "durationTicks": 22,
          "midi": 65,
          "name": "F4",
          "ticks": 7104,
          "time": 34.651758,
          "velocity": 0.6299212598425197
        },
        {
          "duration": 0.10731118750000235,
          "durationTicks": 22,
          "midi": 65,
          "name": "F4",
          "ticks": 7134,
          "time": 34.798091437500005,
          "velocity": 0.6299212598425197
        },
        {
          "duration": 0.10731118750000235,
          "durationTicks": 22,
          "midi": 60,
          "name": "C4",
          "ticks": 7134,
          "time": 34.798091437500005,
          "velocity": 0.6299212598425197
        },
        {
          "duration": 0.10731118750000235,
          "durationTicks": 22,
          "midi": 60,
          "name": "C4",
          "ticks": 7200,
          "time": 35.120025000000005,
          "velocity": 0.6299212598425197
        },
        {
          "duration": 0.10731118750000235,
          "durationTicks": 22,
          "midi": 65,
          "name": "F4",
          "ticks": 7200,
          "time": 35.120025000000005,
          "velocity": 0.6299212598425197
        },
        {
          "duration": 0.10731118750000235,
          "durationTicks": 22,
          "midi": 60,
          "name": "C4",
          "ticks": 7248,
          "time": 35.354158500000004,
          "velocity": 0.6299212598425197
        },
        {
          "duration": 0.10731118750000235,
          "durationTicks": 22,
          "midi": 65,
          "name": "F4",
          "ticks": 7248,
          "time": 35.354158500000004,
          "velocity": 0.6299212598425197
        },
        {
          "duration": 0.10731118750000235,
          "durationTicks": 22,
          "midi": 65,
          "name": "F4",
          "ticks": 7278,
          "time": 35.5004919375,
          "velocity": 0.6299212598425197
        },
        {
          "duration": 0.10731118750000235,
          "durationTicks": 22,
          "midi": 60,
          "name": "C4",
          "ticks": 7278,
          "time": 35.5004919375,
          "velocity": 0.6299212598425197
        },
        {
          "duration": 0.10731118750000235,
          "durationTicks": 22,
          "midi": 60,
          "name": "C4",
          "ticks": 7344,
          "time": 35.8224255,
          "velocity": 0.6299212598425197
        },
        {
          "duration": 0.10731118750000235,
          "durationTicks": 22,
          "midi": 65,
          "name": "F4",
          "ticks": 7344,
          "time": 35.8224255,
          "velocity": 0.6299212598425197
        },
        {
          "duration": 0.10731118750000235,
          "durationTicks": 22,
          "midi": 60,
          "name": "C4",
          "ticks": 7392,
          "time": 36.056559,
          "velocity": 0.6299212598425197
        },
        {
          "duration": 0.10731118750000235,
          "durationTicks": 22,
          "midi": 65,
          "name": "F4",
          "ticks": 7392,
          "time": 36.056559,
          "velocity": 0.6299212598425197
        },
        {
          "duration": 0.10731118750000235,
          "durationTicks": 22,
          "midi": 65,
          "name": "F4",
          "ticks": 7422,
          "time": 36.202892437500005,
          "velocity": 0.6299212598425197
        },
        {
          "duration": 0.10731118750000235,
          "durationTicks": 22,
          "midi": 60,
          "name": "C4",
          "ticks": 7422,
          "time": 36.202892437500005,
          "velocity": 0.6299212598425197
        },
        {
          "duration": 0.10731118750000235,
          "durationTicks": 22,
          "midi": 60,
          "name": "C4",
          "ticks": 7488,
          "time": 36.524826000000004,
          "velocity": 0.6299212598425197
        },
        {
          "duration": 0.10731118750000235,
          "durationTicks": 22,
          "midi": 65,
          "name": "F4",
          "ticks": 7488,
          "time": 36.524826000000004,
          "velocity": 0.6299212598425197
        },
        {
          "duration": 0.10731118750000235,
          "durationTicks": 22,
          "midi": 65,
          "name": "F4",
          "ticks": 7518,
          "time": 36.6711594375,
          "velocity": 0.6299212598425197
        },
        {
          "duration": 0.10731118750000235,
          "durationTicks": 22,
          "midi": 60,
          "name": "C4",
          "ticks": 7518,
          "time": 36.6711594375,
          "velocity": 0.6299212598425197
        },
        {
          "duration": 0.21950015624999963,
          "durationTicks": 45,
          "midi": 61,
          "name": "C#4",
          "ticks": 7584,
          "time": 36.993093,
          "velocity": 0.6299212598425197
        },
        {
          "duration": 0.21950015624999963,
          "durationTicks": 45,
          "midi": 66,
          "name": "F#4",
          "ticks": 7584,
          "time": 36.993093,
          "velocity": 0.6299212598425197
        },
        {
          "duration": 0.10731118750000235,
          "durationTicks": 22,
          "midi": 60,
          "name": "C4",
          "ticks": 7680,
          "time": 37.461360000000006,
          "velocity": 0.6299212598425197
        },
        {
          "duration": 0.10731118750000235,
          "durationTicks": 22,
          "midi": 65,
          "name": "F4",
          "ticks": 7680,
          "time": 37.461360000000006,
          "velocity": 0.6299212598425197
        },
        {
          "duration": 0.10731118750000235,
          "durationTicks": 22,
          "midi": 60,
          "name": "C4",
          "ticks": 7728,
          "time": 37.695493500000005,
          "velocity": 0.6299212598425197
        },
        {
          "duration": 0.10731118750000235,
          "durationTicks": 22,
          "midi": 65,
          "name": "F4",
          "ticks": 7728,
          "time": 37.695493500000005,
          "velocity": 0.6299212598425197
        },
        {
          "duration": 0.10731118750000235,
          "durationTicks": 22,
          "midi": 65,
          "name": "F4",
          "ticks": 7758,
          "time": 37.8418269375,
          "velocity": 0.6299212598425197
        },
        {
          "duration": 0.10731118750000235,
          "durationTicks": 22,
          "midi": 60,
          "name": "C4",
          "ticks": 7758,
          "time": 37.8418269375,
          "velocity": 0.6299212598425197
        },
        {
          "duration": 0.10731118750000235,
          "durationTicks": 22,
          "midi": 60,
          "name": "C4",
          "ticks": 7824,
          "time": 38.1637605,
          "velocity": 0.6299212598425197
        },
        {
          "duration": 0.10731118750000235,
          "durationTicks": 22,
          "midi": 65,
          "name": "F4",
          "ticks": 7824,
          "time": 38.1637605,
          "velocity": 0.6299212598425197
        },
        {
          "duration": 0.10731118750000235,
          "durationTicks": 22,
          "midi": 60,
          "name": "C4",
          "ticks": 7872,
          "time": 38.397894,
          "velocity": 0.6299212598425197
        },
        {
          "duration": 0.10731118750000235,
          "durationTicks": 22,
          "midi": 65,
          "name": "F4",
          "ticks": 7872,
          "time": 38.397894,
          "velocity": 0.6299212598425197
        },
        {
          "duration": 0.10731118750000235,
          "durationTicks": 22,
          "midi": 65,
          "name": "F4",
          "ticks": 7902,
          "time": 38.544227437500005,
          "velocity": 0.6299212598425197
        },
        {
          "duration": 0.10731118750000235,
          "durationTicks": 22,
          "midi": 60,
          "name": "C4",
          "ticks": 7902,
          "time": 38.544227437500005,
          "velocity": 0.6299212598425197
        },
        {
          "duration": 0.10731118750000235,
          "durationTicks": 22,
          "midi": 60,
          "name": "C4",
          "ticks": 7968,
          "time": 38.866161000000005,
          "velocity": 0.6299212598425197
        },
        {
          "duration": 0.10731118750000235,
          "durationTicks": 22,
          "midi": 65,
          "name": "F4",
          "ticks": 7968,
          "time": 38.866161000000005,
          "velocity": 0.6299212598425197
        },
        {
          "duration": 0.10731118750000235,
          "durationTicks": 22,
          "midi": 60,
          "name": "C4",
          "ticks": 8016,
          "time": 39.100294500000004,
          "velocity": 0.6299212598425197
        },
        {
          "duration": 0.10731118750000235,
          "durationTicks": 22,
          "midi": 65,
          "name": "F4",
          "ticks": 8016,
          "time": 39.100294500000004,
          "velocity": 0.6299212598425197
        },
        {
          "duration": 0.10731118750000235,
          "durationTicks": 22,
          "midi": 65,
          "name": "F4",
          "ticks": 8046,
          "time": 39.2466279375,
          "velocity": 0.6299212598425197
        },
        {
          "duration": 0.10731118750000235,
          "durationTicks": 22,
          "midi": 60,
          "name": "C4",
          "ticks": 8046,
          "time": 39.2466279375,
          "velocity": 0.6299212598425197
        },
        {
          "duration": 0.10731118750000235,
          "durationTicks": 22,
          "midi": 60,
          "name": "C4",
          "ticks": 8112,
          "time": 39.5685615,
          "velocity": 0.6299212598425197
        },
        {
          "duration": 0.10731118750000235,
          "durationTicks": 22,
          "midi": 65,
          "name": "F4",
          "ticks": 8112,
          "time": 39.5685615,
          "velocity": 0.6299212598425197
        },
        {
          "duration": 0.10731118750000235,
          "durationTicks": 22,
          "midi": 60,
          "name": "C4",
          "ticks": 8160,
          "time": 39.80269500000001,
          "velocity": 0.6299212598425197
        },
        {
          "duration": 0.10731118750000235,
          "durationTicks": 22,
          "midi": 65,
          "name": "F4",
          "ticks": 8160,
          "time": 39.80269500000001,
          "velocity": 0.6299212598425197
        },
        {
          "duration": 0.10731118750000235,
          "durationTicks": 22,
          "midi": 65,
          "name": "F4",
          "ticks": 8190,
          "time": 39.949028437500004,
          "velocity": 0.6299212598425197
        },
        {
          "duration": 0.10731118750000235,
          "durationTicks": 22,
          "midi": 60,
          "name": "C4",
          "ticks": 8190,
          "time": 39.949028437500004,
          "velocity": 0.6299212598425197
        },
        {
          "duration": 0.10731118750000235,
          "durationTicks": 22,
          "midi": 60,
          "name": "C4",
          "ticks": 8256,
          "time": 40.270962000000004,
          "velocity": 0.6299212598425197
        },
        {
          "duration": 0.10731118750000235,
          "durationTicks": 22,
          "midi": 65,
          "name": "F4",
          "ticks": 8256,
          "time": 40.270962000000004,
          "velocity": 0.6299212598425197
        },
        {
          "duration": 0.10731118750000235,
          "durationTicks": 22,
          "midi": 65,
          "name": "F4",
          "ticks": 8286,
          "time": 40.4172954375,
          "velocity": 0.6299212598425197
        },
        {
          "duration": 0.10731118750000235,
          "durationTicks": 22,
          "midi": 60,
          "name": "C4",
          "ticks": 8286,
          "time": 40.4172954375,
          "velocity": 0.6299212598425197
        },
        {
          "duration": 0.21950015624999963,
          "durationTicks": 45,
          "midi": 61,
          "name": "C#4",
          "ticks": 8352,
          "time": 40.739229,
          "velocity": 0.6299212598425197
        },
        {
          "duration": 0.21950015624999963,
          "durationTicks": 45,
          "midi": 66,
          "name": "F#4",
          "ticks": 8352,
          "time": 40.739229,
          "velocity": 0.6299212598425197
        },
        {
          "duration": 0.10731118750000235,
          "durationTicks": 22,
          "midi": 60,
          "name": "C4",
          "ticks": 8448,
          "time": 41.207496000000006,
          "velocity": 0.6299212598425197
        },
        {
          "duration": 0.10731118750000235,
          "durationTicks": 22,
          "midi": 65,
          "name": "F4",
          "ticks": 8448,
          "time": 41.207496000000006,
          "velocity": 0.6299212598425197
        },
        {
          "duration": 0.10731118750000235,
          "durationTicks": 22,
          "midi": 60,
          "name": "C4",
          "ticks": 8496,
          "time": 41.441629500000005,
          "velocity": 0.6299212598425197
        },
        {
          "duration": 0.10731118750000235,
          "durationTicks": 22,
          "midi": 65,
          "name": "F4",
          "ticks": 8496,
          "time": 41.441629500000005,
          "velocity": 0.6299212598425197
        },
        {
          "duration": 0.10731118750000235,
          "durationTicks": 22,
          "midi": 65,
          "name": "F4",
          "ticks": 8526,
          "time": 41.5879629375,
          "velocity": 0.6299212598425197
        },
        {
          "duration": 0.10731118750000235,
          "durationTicks": 22,
          "midi": 60,
          "name": "C4",
          "ticks": 8526,
          "time": 41.5879629375,
          "velocity": 0.6299212598425197
        },
        {
          "duration": 0.10731118750000235,
          "durationTicks": 22,
          "midi": 60,
          "name": "C4",
          "ticks": 8592,
          "time": 41.9098965,
          "velocity": 0.6299212598425197
        },
        {
          "duration": 0.10731118750000235,
          "durationTicks": 22,
          "midi": 65,
          "name": "F4",
          "ticks": 8592,
          "time": 41.9098965,
          "velocity": 0.6299212598425197
        },
        {
          "duration": 0.10731118750000235,
          "durationTicks": 22,
          "midi": 60,
          "name": "C4",
          "ticks": 8640,
          "time": 42.14403,
          "velocity": 0.6299212598425197
        },
        {
          "duration": 0.10731118750000235,
          "durationTicks": 22,
          "midi": 65,
          "name": "F4",
          "ticks": 8640,
          "time": 42.14403,
          "velocity": 0.6299212598425197
        },
        {
          "duration": 0.10731118750000235,
          "durationTicks": 22,
          "midi": 65,
          "name": "F4",
          "ticks": 8670,
          "time": 42.290363437500005,
          "velocity": 0.6299212598425197
        },
        {
          "duration": 0.10731118750000235,
          "durationTicks": 22,
          "midi": 60,
          "name": "C4",
          "ticks": 8670,
          "time": 42.290363437500005,
          "velocity": 0.6299212598425197
        },
        {
          "duration": 0.10731118750000235,
          "durationTicks": 22,
          "midi": 60,
          "name": "C4",
          "ticks": 8736,
          "time": 42.612297000000005,
          "velocity": 0.6299212598425197
        },
        {
          "duration": 0.10731118750000235,
          "durationTicks": 22,
          "midi": 65,
          "name": "F4",
          "ticks": 8736,
          "time": 42.612297000000005,
          "velocity": 0.6299212598425197
        },
        {
          "duration": 0.10731118750000235,
          "durationTicks": 22,
          "midi": 60,
          "name": "C4",
          "ticks": 8784,
          "time": 42.846430500000004,
          "velocity": 0.6299212598425197
        },
        {
          "duration": 0.10731118750000235,
          "durationTicks": 22,
          "midi": 65,
          "name": "F4",
          "ticks": 8784,
          "time": 42.846430500000004,
          "velocity": 0.6299212598425197
        },
        {
          "duration": 0.10731118750000235,
          "durationTicks": 22,
          "midi": 65,
          "name": "F4",
          "ticks": 8814,
          "time": 42.9927639375,
          "velocity": 0.6299212598425197
        },
        {
          "duration": 0.10731118750000235,
          "durationTicks": 22,
          "midi": 60,
          "name": "C4",
          "ticks": 8814,
          "time": 42.9927639375,
          "velocity": 0.6299212598425197
        },
        {
          "duration": 0.10731118750000235,
          "durationTicks": 22,
          "midi": 60,
          "name": "C4",
          "ticks": 8880,
          "time": 43.3146975,
          "velocity": 0.6299212598425197
        },
        {
          "duration": 0.10731118750000235,
          "durationTicks": 22,
          "midi": 65,
          "name": "F4",
          "ticks": 8880,
          "time": 43.3146975,
          "velocity": 0.6299212598425197
        },
        {
          "duration": 0.10731118750000235,
          "durationTicks": 22,
          "midi": 60,
          "name": "C4",
          "ticks": 8928,
          "time": 43.54883100000001,
          "velocity": 0.6299212598425197
        },
        {
          "duration": 0.10731118750000235,
          "durationTicks": 22,
          "midi": 65,
          "name": "F4",
          "ticks": 8928,
          "time": 43.54883100000001,
          "velocity": 0.6299212598425197
        },
        {
          "duration": 0.10731118750000235,
          "durationTicks": 22,
          "midi": 65,
          "name": "F4",
          "ticks": 8958,
          "time": 43.695164437500004,
          "velocity": 0.6299212598425197
        },
        {
          "duration": 0.10731118750000235,
          "durationTicks": 22,
          "midi": 60,
          "name": "C4",
          "ticks": 8958,
          "time": 43.695164437500004,
          "velocity": 0.6299212598425197
        },
        {
          "duration": 0.10731118750000235,
          "durationTicks": 22,
          "midi": 60,
          "name": "C4",
          "ticks": 9024,
          "time": 44.017098000000004,
          "velocity": 0.6299212598425197
        },
        {
          "duration": 0.10731118750000235,
          "durationTicks": 22,
          "midi": 65,
          "name": "F4",
          "ticks": 9024,
          "time": 44.017098000000004,
          "velocity": 0.6299212598425197
        },
        {
          "duration": 0.10731118750000235,
          "durationTicks": 22,
          "midi": 65,
          "name": "F4",
          "ticks": 9054,
          "time": 44.1634314375,
          "velocity": 0.6299212598425197
        },
        {
          "duration": 0.10731118750000235,
          "durationTicks": 22,
          "midi": 60,
          "name": "C4",
          "ticks": 9054,
          "time": 44.1634314375,
          "velocity": 0.6299212598425197
        },
        {
          "duration": 0.21950015624999963,
          "durationTicks": 45,
          "midi": 61,
          "name": "C#4",
          "ticks": 9120,
          "time": 44.485365,
          "velocity": 0.6299212598425197
        },
        {
          "duration": 0.21950015624999963,
          "durationTicks": 45,
          "midi": 66,
          "name": "F#4",
          "ticks": 9120,
          "time": 44.485365,
          "velocity": 0.6299212598425197
        },
        {
          "duration": 0.10731118750000235,
          "durationTicks": 22,
          "midi": 60,
          "name": "C4",
          "ticks": 9216,
          "time": 44.953632000000006,
          "velocity": 0.6299212598425197
        },
        {
          "duration": 0.10731118750000235,
          "durationTicks": 22,
          "midi": 65,
          "name": "F4",
          "ticks": 9216,
          "time": 44.953632000000006,
          "velocity": 0.6299212598425197
        },
        {
          "duration": 0.10731118750000235,
          "durationTicks": 22,
          "midi": 60,
          "name": "C4",
          "ticks": 9264,
          "time": 45.187765500000005,
          "velocity": 0.6299212598425197
        },
        {
          "duration": 0.10731118750000235,
          "durationTicks": 22,
          "midi": 65,
          "name": "F4",
          "ticks": 9264,
          "time": 45.187765500000005,
          "velocity": 0.6299212598425197
        },
        {
          "duration": 0.10731118750000235,
          "durationTicks": 22,
          "midi": 65,
          "name": "F4",
          "ticks": 9294,
          "time": 45.3340989375,
          "velocity": 0.6299212598425197
        },
        {
          "duration": 0.10731118750000235,
          "durationTicks": 22,
          "midi": 60,
          "name": "C4",
          "ticks": 9294,
          "time": 45.3340989375,
          "velocity": 0.6299212598425197
        },
        {
          "duration": 0.10731118750000235,
          "durationTicks": 22,
          "midi": 60,
          "name": "C4",
          "ticks": 9360,
          "time": 45.6560325,
          "velocity": 0.6299212598425197
        },
        {
          "duration": 0.10731118750000235,
          "durationTicks": 22,
          "midi": 65,
          "name": "F4",
          "ticks": 9360,
          "time": 45.6560325,
          "velocity": 0.6299212598425197
        },
        {
          "duration": 0.10731118749999524,
          "durationTicks": 22,
          "midi": 60,
          "name": "C4",
          "ticks": 9408,
          "time": 45.89016600000001,
          "velocity": 0.6299212598425197
        },
        {
          "duration": 0.10731118749999524,
          "durationTicks": 22,
          "midi": 65,
          "name": "F4",
          "ticks": 9408,
          "time": 45.89016600000001,
          "velocity": 0.6299212598425197
        },
        {
          "duration": 0.10731118750000235,
          "durationTicks": 22,
          "midi": 65,
          "name": "F4",
          "ticks": 9438,
          "time": 46.036499437500005,
          "velocity": 0.6299212598425197
        },
        {
          "duration": 0.10731118750000235,
          "durationTicks": 22,
          "midi": 60,
          "name": "C4",
          "ticks": 9438,
          "time": 46.036499437500005,
          "velocity": 0.6299212598425197
        },
        {
          "duration": 0.10731118750000235,
          "durationTicks": 22,
          "midi": 60,
          "name": "C4",
          "ticks": 9504,
          "time": 46.358433000000005,
          "velocity": 0.6299212598425197
        },
        {
          "duration": 0.10731118750000235,
          "durationTicks": 22,
          "midi": 65,
          "name": "F4",
          "ticks": 9504,
          "time": 46.358433000000005,
          "velocity": 0.6299212598425197
        },
        {
          "duration": 0.10731118750000235,
          "durationTicks": 22,
          "midi": 60,
          "name": "C4",
          "ticks": 9552,
          "time": 46.592566500000004,
          "velocity": 0.6299212598425197
        },
        {
          "duration": 0.10731118750000235,
          "durationTicks": 22,
          "midi": 65,
          "name": "F4",
          "ticks": 9552,
          "time": 46.592566500000004,
          "velocity": 0.6299212598425197
        },
        {
          "duration": 0.10731118750000235,
          "durationTicks": 22,
          "midi": 65,
          "name": "F4",
          "ticks": 9582,
          "time": 46.7388999375,
          "velocity": 0.6299212598425197
        },
        {
          "duration": 0.10731118750000235,
          "durationTicks": 22,
          "midi": 60,
          "name": "C4",
          "ticks": 9582,
          "time": 46.7388999375,
          "velocity": 0.6299212598425197
        },
        {
          "duration": 0.10731118750000235,
          "durationTicks": 22,
          "midi": 60,
          "name": "C4",
          "ticks": 9648,
          "time": 47.0608335,
          "velocity": 0.6299212598425197
        },
        {
          "duration": 0.10731118750000235,
          "durationTicks": 22,
          "midi": 65,
          "name": "F4",
          "ticks": 9648,
          "time": 47.0608335,
          "velocity": 0.6299212598425197
        },
        {
          "duration": 0.10731118750000235,
          "durationTicks": 22,
          "midi": 60,
          "name": "C4",
          "ticks": 9696,
          "time": 47.29496700000001,
          "velocity": 0.6299212598425197
        },
        {
          "duration": 0.10731118750000235,
          "durationTicks": 22,
          "midi": 65,
          "name": "F4",
          "ticks": 9696,
          "time": 47.29496700000001,
          "velocity": 0.6299212598425197
        },
        {
          "duration": 0.10731118750000235,
          "durationTicks": 22,
          "midi": 65,
          "name": "F4",
          "ticks": 9726,
          "time": 47.441300437500004,
          "velocity": 0.6299212598425197
        },
        {
          "duration": 0.10731118750000235,
          "durationTicks": 22,
          "midi": 60,
          "name": "C4",
          "ticks": 9726,
          "time": 47.441300437500004,
          "velocity": 0.6299212598425197
        },
        {
          "duration": 0.10731118750000235,
          "durationTicks": 22,
          "midi": 60,
          "name": "C4",
          "ticks": 9792,
          "time": 47.763234000000004,
          "velocity": 0.6299212598425197
        },
        {
          "duration": 0.10731118750000235,
          "durationTicks": 22,
          "midi": 65,
          "name": "F4",
          "ticks": 9792,
          "time": 47.763234000000004,
          "velocity": 0.6299212598425197
        },
        {
          "duration": 0.10731118750000235,
          "durationTicks": 22,
          "midi": 65,
          "name": "F4",
          "ticks": 9822,
          "time": 47.9095674375,
          "velocity": 0.6299212598425197
        },
        {
          "duration": 0.10731118750000235,
          "durationTicks": 22,
          "midi": 60,
          "name": "C4",
          "ticks": 9822,
          "time": 47.9095674375,
          "velocity": 0.6299212598425197
        },
        {
          "duration": 0.21950015624999963,
          "durationTicks": 45,
          "midi": 61,
          "name": "C#4",
          "ticks": 9888,
          "time": 48.231501,
          "velocity": 0.6299212598425197
        },
        {
          "duration": 0.21950015624999963,
          "durationTicks": 45,
          "midi": 66,
          "name": "F#4",
          "ticks": 9888,
          "time": 48.231501,
          "velocity": 0.6299212598425197
        },
        {
          "duration": 0.10731118750000235,
          "durationTicks": 22,
          "midi": 60,
          "name": "C4",
          "ticks": 9984,
          "time": 48.699768000000006,
          "velocity": 0.6299212598425197
        },
        {
          "duration": 0.10731118750000235,
          "durationTicks": 22,
          "midi": 65,
          "name": "F4",
          "ticks": 9984,
          "time": 48.699768000000006,
          "velocity": 0.6299212598425197
        },
        {
          "duration": 0.10731118750000235,
          "durationTicks": 22,
          "midi": 60,
          "name": "C4",
          "ticks": 10032,
          "time": 48.933901500000005,
          "velocity": 0.6299212598425197
        },
        {
          "duration": 0.10731118750000235,
          "durationTicks": 22,
          "midi": 65,
          "name": "F4",
          "ticks": 10032,
          "time": 48.933901500000005,
          "velocity": 0.6299212598425197
        },
        {
          "duration": 0.10731118750000235,
          "durationTicks": 22,
          "midi": 65,
          "name": "F4",
          "ticks": 10062,
          "time": 49.0802349375,
          "velocity": 0.6299212598425197
        },
        {
          "duration": 0.10731118750000235,
          "durationTicks": 22,
          "midi": 60,
          "name": "C4",
          "ticks": 10062,
          "time": 49.0802349375,
          "velocity": 0.6299212598425197
        },
        {
          "duration": 0.10731118750000235,
          "durationTicks": 22,
          "midi": 60,
          "name": "C4",
          "ticks": 10128,
          "time": 49.4021685,
          "velocity": 0.6299212598425197
        },
        {
          "duration": 0.10731118750000235,
          "durationTicks": 22,
          "midi": 65,
          "name": "F4",
          "ticks": 10128,
          "time": 49.4021685,
          "velocity": 0.6299212598425197
        },
        {
          "duration": 0.10731118750000235,
          "durationTicks": 22,
          "midi": 60,
          "name": "C4",
          "ticks": 10176,
          "time": 49.63630200000001,
          "velocity": 0.6299212598425197
        },
        {
          "duration": 0.10731118750000235,
          "durationTicks": 22,
          "midi": 65,
          "name": "F4",
          "ticks": 10176,
          "time": 49.63630200000001,
          "velocity": 0.6299212598425197
        },
        {
          "duration": 0.10731118750000235,
          "durationTicks": 22,
          "midi": 65,
          "name": "F4",
          "ticks": 10206,
          "time": 49.782635437500005,
          "velocity": 0.6299212598425197
        },
        {
          "duration": 0.10731118750000235,
          "durationTicks": 22,
          "midi": 60,
          "name": "C4",
          "ticks": 10206,
          "time": 49.782635437500005,
          "velocity": 0.6299212598425197
        },
        {
          "duration": 0.10731118750000235,
          "durationTicks": 22,
          "midi": 60,
          "name": "C4",
          "ticks": 10272,
          "time": 50.104569000000005,
          "velocity": 0.6299212598425197
        },
        {
          "duration": 0.10731118750000235,
          "durationTicks": 22,
          "midi": 65,
          "name": "F4",
          "ticks": 10272,
          "time": 50.104569000000005,
          "velocity": 0.6299212598425197
        },
        {
          "duration": 0.10731118750000235,
          "durationTicks": 22,
          "midi": 60,
          "name": "C4",
          "ticks": 10320,
          "time": 50.338702500000004,
          "velocity": 0.6299212598425197
        },
        {
          "duration": 0.10731118750000235,
          "durationTicks": 22,
          "midi": 65,
          "name": "F4",
          "ticks": 10320,
          "time": 50.338702500000004,
          "velocity": 0.6299212598425197
        },
        {
          "duration": 0.10731118750000235,
          "durationTicks": 22,
          "midi": 65,
          "name": "F4",
          "ticks": 10350,
          "time": 50.48503593750001,
          "velocity": 0.6299212598425197
        },
        {
          "duration": 0.10731118750000235,
          "durationTicks": 22,
          "midi": 60,
          "name": "C4",
          "ticks": 10350,
          "time": 50.48503593750001,
          "velocity": 0.6299212598425197
        },
        {
          "duration": 0.10731118750000235,
          "durationTicks": 22,
          "midi": 60,
          "name": "C4",
          "ticks": 10416,
          "time": 50.80696950000001,
          "velocity": 0.6299212598425197
        },
        {
          "duration": 0.10731118750000235,
          "durationTicks": 22,
          "midi": 65,
          "name": "F4",
          "ticks": 10416,
          "time": 50.80696950000001,
          "velocity": 0.6299212598425197
        },
        {
          "duration": 0.10731118750000235,
          "durationTicks": 22,
          "midi": 60,
          "name": "C4",
          "ticks": 10464,
          "time": 51.04110300000001,
          "velocity": 0.6299212598425197
        },
        {
          "duration": 0.10731118750000235,
          "durationTicks": 22,
          "midi": 65,
          "name": "F4",
          "ticks": 10464,
          "time": 51.04110300000001,
          "velocity": 0.6299212598425197
        },
        {
          "duration": 0.10731118750000235,
          "durationTicks": 22,
          "midi": 65,
          "name": "F4",
          "ticks": 10494,
          "time": 51.187436437500004,
          "velocity": 0.6299212598425197
        },
        {
          "duration": 0.10731118750000235,
          "durationTicks": 22,
          "midi": 60,
          "name": "C4",
          "ticks": 10494,
          "time": 51.187436437500004,
          "velocity": 0.6299212598425197
        },
        {
          "duration": 0.21950015624999963,
          "durationTicks": 45,
          "midi": 56,
          "name": "G#3",
          "ticks": 10512,
          "time": 51.275236500000005,
          "velocity": 0.6299212598425197
        },
        {
          "duration": 0.4438780937500013,
          "durationTicks": 91,
          "midi": 56,
          "name": "G#3",
          "ticks": 10560,
          "time": 51.509370000000004,
          "velocity": 0.6299212598425197
        },
        {
          "duration": 0.21950015625000674,
          "durationTicks": 45,
          "midi": 58,
          "name": "A#3",
          "ticks": 10656,
          "time": 51.977637,
          "velocity": 0.6299212598425197
        },
        {
          "duration": 0.8877561874999955,
          "durationTicks": 182,
          "midi": 48,
          "name": "C3",
          "ticks": 10704,
          "time": 52.21177050000001,
          "velocity": 0.6299212598425197
        },
        {
          "duration": 0.8877561874999955,
          "durationTicks": 182,
          "midi": 53,
          "name": "F3",
          "ticks": 10704,
          "time": 52.21177050000001,
          "velocity": 0.6299212598425197
        },
        {
          "duration": 0.21950015625000674,
          "durationTicks": 45,
          "midi": 56,
          "name": "G#3",
          "ticks": 10896,
          "time": 53.1483045,
          "velocity": 0.6299212598425197
        },
        {
          "duration": 0.4438780937500013,
          "durationTicks": 91,
          "midi": 56,
          "name": "G#3",
          "ticks": 10944,
          "time": 53.38243800000001,
          "velocity": 0.6299212598425197
        },
        {
          "duration": 0.21950015624999963,
          "durationTicks": 45,
          "midi": 58,
          "name": "A#3",
          "ticks": 11040,
          "time": 53.850705000000005,
          "velocity": 0.6299212598425197
        },
        {
          "duration": 0.4438780937500013,
          "durationTicks": 91,
          "midi": 53,
          "name": "F3",
          "ticks": 11088,
          "time": 54.084838500000004,
          "velocity": 0.6299212598425197
        },
        {
          "duration": 0.4438780937500013,
          "durationTicks": 91,
          "midi": 56,
          "name": "G#3",
          "ticks": 11088,
          "time": 54.084838500000004,
          "velocity": 0.6299212598425197
        },
        {
          "duration": 0.4438780937500013,
          "durationTicks": 91,
          "midi": 60,
          "name": "C4",
          "ticks": 11088,
          "time": 54.084838500000004,
          "velocity": 0.6299212598425197
        },
        {
          "duration": 0.4438780937500013,
          "durationTicks": 91,
          "midi": 63,
          "name": "D#4",
          "ticks": 11184,
          "time": 54.55310550000001,
          "velocity": 0.6299212598425197
        },
        {
          "duration": 0.4438780937500013,
          "durationTicks": 91,
          "midi": 65,
          "name": "F4",
          "ticks": 11280,
          "time": 55.021372500000005,
          "velocity": 0.6299212598425197
        },
        {
          "duration": 0.4438780937500013,
          "durationTicks": 91,
          "midi": 68,
          "name": "G#4",
          "ticks": 11376,
          "time": 55.4896395,
          "velocity": 0.6299212598425197
        },
        {
          "duration": 0.663378250000001,
          "durationTicks": 136,
          "midi": 62,
          "name": "D4",
          "ticks": 11472,
          "time": 55.95790650000001,
          "velocity": 0.6299212598425197
        },
        {
          "duration": 0.663378250000001,
          "durationTicks": 136,
          "midi": 65,
          "name": "F4",
          "ticks": 11472,
          "time": 55.95790650000001,
          "velocity": 0.6299212598425197
        },
        {
          "duration": 0.663378250000001,
          "durationTicks": 136,
          "midi": 70,
          "name": "A#4",
          "ticks": 11472,
          "time": 55.95790650000001,
          "velocity": 0.6299212598425197
        },
        {
          "duration": 0.21950015624999963,
          "durationTicks": 45,
          "midi": 70,
          "name": "A#4",
          "ticks": 11616,
          "time": 56.660307,
          "velocity": 0.6299212598425197
        },
        {
          "duration": 0.4438780937500013,
          "durationTicks": 91,
          "midi": 68,
          "name": "G#4",
          "ticks": 11664,
          "time": 56.89444050000001,
          "velocity": 0.6299212598425197
        },
        {
          "duration": 0.8877561874999955,
          "durationTicks": 182,
          "midi": 65,
          "name": "F4",
          "ticks": 11760,
          "time": 57.362707500000006,
          "velocity": 0.6299212598425197
        },
        {
          "duration": 0.21950015624999963,
          "durationTicks": 45,
          "midi": 65,
          "name": "F4",
          "ticks": 12048,
          "time": 58.767508500000005,
          "velocity": 0.6299212598425197
        },
        {
          "duration": 0.4438780937500013,
          "durationTicks": 91,
          "midi": 63,
          "name": "D#4",
          "ticks": 12096,
          "time": 59.001642000000004,
          "velocity": 0.6299212598425197
        },
        {
          "duration": 0.21950015624999963,
          "durationTicks": 45,
          "midi": 65,
          "name": "F4",
          "ticks": 12192,
          "time": 59.46990900000001,
          "velocity": 0.6299212598425197
        },
        {
          "duration": 0.4438780937499942,
          "durationTicks": 91,
          "midi": 60,
          "name": "C4",
          "ticks": 12240,
          "time": 59.70404250000001,
          "velocity": 0.6299212598425197
        },
        {
          "duration": 0.4438780937499942,
          "durationTicks": 91,
          "midi": 68,
          "name": "G#4",
          "ticks": 12240,
          "time": 59.70404250000001,
          "velocity": 0.6299212598425197
        },
        {
          "duration": 0.4438780937499942,
          "durationTicks": 91,
          "midi": 60,
          "name": "C4",
          "ticks": 12336,
          "time": 60.172309500000004,
          "velocity": 0.6299212598425197
        },
        {
          "duration": 0.4438780937499942,
          "durationTicks": 91,
          "midi": 68,
          "name": "G#4",
          "ticks": 12336,
          "time": 60.172309500000004,
          "velocity": 0.6299212598425197
        },
        {
          "duration": 0.21950015624999963,
          "durationTicks": 45,
          "midi": 65,
          "name": "F4",
          "ticks": 12432,
          "time": 60.64057650000001,
          "velocity": 0.6299212598425197
        },
        {
          "duration": 0.4438780937499942,
          "durationTicks": 91,
          "midi": 63,
          "name": "D#4",
          "ticks": 12480,
          "time": 60.87471000000001,
          "velocity": 0.6299212598425197
        },
        {
          "duration": 0.21950015624999963,
          "durationTicks": 45,
          "midi": 65,
          "name": "F4",
          "ticks": 12576,
          "time": 61.342977000000005,
          "velocity": 0.6299212598425197
        },
        {
          "duration": 0.4438780937500013,
          "durationTicks": 91,
          "midi": 63,
          "name": "D#4",
          "ticks": 12624,
          "time": 61.5771105,
          "velocity": 0.6299212598425197
        },
        {
          "duration": 0.4438780937500013,
          "durationTicks": 91,
          "midi": 70,
          "name": "A#4",
          "ticks": 12624,
          "time": 61.5771105,
          "velocity": 0.6299212598425197
        },
        {
          "duration": 0.4438780937499942,
          "durationTicks": 91,
          "midi": 63,
          "name": "D#4",
          "ticks": 12720,
          "time": 62.04537750000001,
          "velocity": 0.6299212598425197
        },
        {
          "duration": 0.4438780937499942,
          "durationTicks": 91,
          "midi": 70,
          "name": "A#4",
          "ticks": 12720,
          "time": 62.04537750000001,
          "velocity": 0.6299212598425197
        },
        {
          "duration": 0.21950015624999963,
          "durationTicks": 45,
          "midi": 65,
          "name": "F4",
          "ticks": 12816,
          "time": 62.513644500000005,
          "velocity": 0.6299212598425197
        },
        {
          "duration": 0.4438780937499942,
          "durationTicks": 91,
          "midi": 63,
          "name": "D#4",
          "ticks": 12864,
          "time": 62.747778000000004,
          "velocity": 0.6299212598425197
        },
        {
          "duration": 0.21950015624999963,
          "durationTicks": 45,
          "midi": 65,
          "name": "F4",
          "ticks": 12960,
          "time": 63.21604500000001,
          "velocity": 0.6299212598425197
        },
        {
          "duration": 0.4438780937499942,
          "durationTicks": 91,
          "midi": 65,
          "name": "F4",
          "ticks": 13008,
          "time": 63.45017850000001,
          "velocity": 0.6299212598425197
        },
        {
          "duration": 0.4438780937499942,
          "durationTicks": 91,
          "midi": 68,
          "name": "G#4",
          "ticks": 13008,
          "time": 63.45017850000001,
          "velocity": 0.6299212598425197
        },
        {
          "duration": 0.4438780937499942,
          "durationTicks": 91,
          "midi": 72,
          "name": "C5",
          "ticks": 13008,
          "time": 63.45017850000001,
          "velocity": 0.6299212598425197
        },
        {
          "duration": 0.4438780937500013,
          "durationTicks": 91,
          "midi": 75,
          "name": "D#5",
          "ticks": 13104,
          "time": 63.918445500000004,
          "velocity": 0.6299212598425197
        },
        {
          "duration": 0.8877561875000026,
          "durationTicks": 182,
          "midi": 62,
          "name": "D4",
          "ticks": 13200,
          "time": 64.3867125,
          "velocity": 0.6299212598425197
        },
        {
          "duration": 0.8877561875000026,
          "durationTicks": 182,
          "midi": 65,
          "name": "F4",
          "ticks": 13200,
          "time": 64.3867125,
          "velocity": 0.6299212598425197
        },
        {
          "duration": 0.8877561875000026,
          "durationTicks": 182,
          "midi": 70,
          "name": "A#4",
          "ticks": 13200,
          "time": 64.3867125,
          "velocity": 0.6299212598425197
        },
        {
          "duration": 0.8877561875000026,
          "durationTicks": 182,
          "midi": 53,
          "name": "F3",
          "ticks": 13440,
          "time": 65.55738000000001,
          "velocity": 0.6299212598425197
        },
        {
          "duration": 0.8877561875000026,
          "durationTicks": 182,
          "midi": 58,
          "name": "A#3",
          "ticks": 13440,
          "time": 65.55738000000001,
          "velocity": 0.6299212598425197
        },
        {
          "duration": 0.4438780937500013,
          "durationTicks": 91,
          "midi": 55,
          "name": "G3",
          "ticks": 13632,
          "time": 66.493914,
          "velocity": 0.6299212598425197
        },
        {
          "duration": 0.4438780937500013,
          "durationTicks": 91,
          "midi": 60,
          "name": "C4",
          "ticks": 13632,
          "time": 66.493914,
          "velocity": 0.6299212598425197
        },
        {
          "duration": 0.4438780937500013,
          "durationTicks": 91,
          "midi": 65,
          "name": "F4",
          "ticks": 13776,
          "time": 67.1963145,
          "velocity": 0.6299212598425197
        },
        {
          "duration": 0.4438780937500013,
          "durationTicks": 91,
          "midi": 72,
          "name": "C5",
          "ticks": 13776,
          "time": 67.1963145,
          "velocity": 0.6299212598425197
        },
        {
          "duration": 0.21950015624999253,
          "durationTicks": 45,
          "midi": 68,
          "name": "G#4",
          "ticks": 13872,
          "time": 67.66458150000001,
          "velocity": 0.6299212598425197
        },
        {
          "duration": 0.21950015624999253,
          "durationTicks": 45,
          "midi": 70,
          "name": "A#4",
          "ticks": 13920,
          "time": 67.89871500000001,
          "velocity": 0.6299212598425197
        },
        {
          "duration": 0.21950015624999253,
          "durationTicks": 45,
          "midi": 65,
          "name": "F4",
          "ticks": 13968,
          "time": 68.13284850000001,
          "velocity": 0.6299212598425197
        },
        {
          "duration": 0.4438780937500013,
          "durationTicks": 91,
          "midi": 68,
          "name": "G#4",
          "ticks": 14016,
          "time": 68.36698200000001,
          "velocity": 0.6299212598425197
        },
        {
          "duration": 0.10731118750000235,
          "durationTicks": 22,
          "midi": 63,
          "name": "D#4",
          "ticks": 14112,
          "time": 68.835249,
          "velocity": 0.6299212598425197
        },
        {
          "duration": 0.21950015624999253,
          "durationTicks": 45,
          "midi": 65,
          "name": "F4",
          "ticks": 14142,
          "time": 68.98158243750001,
          "velocity": 0.6299212598425197
        },
        {
          "duration": 0.10731118750000235,
          "durationTicks": 22,
          "midi": 58,
          "name": "A#3",
          "ticks": 14208,
          "time": 69.303516,
          "velocity": 0.6299212598425197
        },
        {
          "duration": 0.21950015625000674,
          "durationTicks": 45,
          "midi": 60,
          "name": "C4",
          "ticks": 14238,
          "time": 69.4498494375,
          "velocity": 0.6299212598425197
        },
        {
          "duration": 0.10731118749998814,
          "durationTicks": 22,
          "midi": 58,
          "name": "A#3",
          "ticks": 14304,
          "time": 69.77178300000001,
          "velocity": 0.6299212598425197
        },
        {
          "duration": 0.10731118750000235,
          "durationTicks": 22,
          "midi": 60,
          "name": "C4",
          "ticks": 14334,
          "time": 69.9181164375,
          "velocity": 0.6299212598425197
        },
        {
          "duration": 0.10731118749998814,
          "durationTicks": 22,
          "midi": 58,
          "name": "A#3",
          "ticks": 14352,
          "time": 70.00591650000001,
          "velocity": 0.6299212598425197
        },
        {
          "duration": 0.21950015625000674,
          "durationTicks": 45,
          "midi": 56,
          "name": "G#3",
          "ticks": 14382,
          "time": 70.1522499375,
          "velocity": 0.6299212598425197
        },
        {
          "duration": 0.10731118750000235,
          "durationTicks": 22,
          "midi": 56,
          "name": "G#3",
          "ticks": 14430,
          "time": 70.3863834375,
          "velocity": 0.6299212598425197
        },
        {
          "duration": 0.10731118749998814,
          "durationTicks": 22,
          "midi": 56,
          "name": "G#3",
          "ticks": 14448,
          "time": 70.47418350000001,
          "velocity": 0.6299212598425197
        },
        {
          "duration": 0.10731118750000235,
          "durationTicks": 22,
          "midi": 53,
          "name": "F3",
          "ticks": 14478,
          "time": 70.6205169375,
          "velocity": 0.6299212598425197
        },
        {
          "duration": 0.4438780937500013,
          "durationTicks": 91,
          "midi": 63,
          "name": "D#4",
          "ticks": 14544,
          "time": 70.9424505,
          "velocity": 0.6299212598425197
        },
        {
          "duration": 0.4438780937500013,
          "durationTicks": 91,
          "midi": 72,
          "name": "C5",
          "ticks": 14544,
          "time": 70.9424505,
          "velocity": 0.6299212598425197
        },
        {
          "duration": 0.21950015625000674,
          "durationTicks": 45,
          "midi": 68,
          "name": "G#4",
          "ticks": 14640,
          "time": 71.4107175,
          "velocity": 0.6299212598425197
        },
        {
          "duration": 0.21950015625000674,
          "durationTicks": 45,
          "midi": 70,
          "name": "A#4",
          "ticks": 14688,
          "time": 71.644851,
          "velocity": 0.6299212598425197
        },
        {
          "duration": 0.21950015625000674,
          "durationTicks": 45,
          "midi": 65,
          "name": "F4",
          "ticks": 14736,
          "time": 71.8789845,
          "velocity": 0.6299212598425197
        },
        {
          "duration": 0.4438780937500013,
          "durationTicks": 91,
          "midi": 68,
          "name": "G#4",
          "ticks": 14784,
          "time": 72.113118,
          "velocity": 0.6299212598425197
        },
        {
          "duration": 0.10731118749998814,
          "durationTicks": 22,
          "midi": 63,
          "name": "D#4",
          "ticks": 14880,
          "time": 72.58138500000001,
          "velocity": 0.6299212598425197
        },
        {
          "duration": 0.21950015625000674,
          "durationTicks": 45,
          "midi": 65,
          "name": "F4",
          "ticks": 14910,
          "time": 72.7277184375,
          "velocity": 0.6299212598425197
        },
        {
          "duration": 0.10731118749998814,
          "durationTicks": 22,
          "midi": 58,
          "name": "A#3",
          "ticks": 14976,
          "time": 73.04965200000001,
          "velocity": 0.6299212598425197
        },
        {
          "duration": 0.21950015624999253,
          "durationTicks": 45,
          "midi": 60,
          "name": "C4",
          "ticks": 15006,
          "time": 73.19598543750001,
          "velocity": 0.6299212598425197
        },
        {
          "duration": 0.10731118750000235,
          "durationTicks": 22,
          "midi": 53,
          "name": "F3",
          "ticks": 15072,
          "time": 73.517919,
          "velocity": 0.6299212598425197
        },
        {
          "duration": 0.10731118749998814,
          "durationTicks": 22,
          "midi": 56,
          "name": "G#3",
          "ticks": 15102,
          "time": 73.66425243750001,
          "velocity": 0.6299212598425197
        },
        {
          "duration": 0.10731118750000235,
          "durationTicks": 22,
          "midi": 58,
          "name": "A#3",
          "ticks": 15120,
          "time": 73.7520525,
          "velocity": 0.6299212598425197
        },
        {
          "duration": 0.10731118749998814,
          "durationTicks": 22,
          "midi": 60,
          "name": "C4",
          "ticks": 15150,
          "time": 73.89838593750001,
          "velocity": 0.6299212598425197
        },
        {
          "duration": 0.21950015625000674,
          "durationTicks": 45,
          "midi": 63,
          "name": "D#4",
          "ticks": 15168,
          "time": 73.986186,
          "velocity": 0.6299212598425197
        },
        {
          "duration": 0.10731118750000235,
          "durationTicks": 22,
          "midi": 60,
          "name": "C4",
          "ticks": 15216,
          "time": 74.2203195,
          "velocity": 0.6299212598425197
        },
        {
          "duration": 0.21950015625000674,
          "durationTicks": 45,
          "midi": 65,
          "name": "F4",
          "ticks": 15246,
          "time": 74.3666529375,
          "velocity": 0.6299212598425197
        },
        {
          "duration": 0.4438780937499871,
          "durationTicks": 91,
          "midi": 62,
          "name": "D4",
          "ticks": 15312,
          "time": 74.68858650000001,
          "velocity": 0.6299212598425197
        },
        {
          "duration": 0.4438780937499871,
          "durationTicks": 91,
          "midi": 72,
          "name": "C5",
          "ticks": 15312,
          "time": 74.68858650000001,
          "velocity": 0.6299212598425197
        },
        {
          "duration": 0.21950015624999253,
          "durationTicks": 45,
          "midi": 68,
          "name": "G#4",
          "ticks": 15408,
          "time": 75.15685350000001,
          "velocity": 0.6299212598425197
        },
        {
          "duration": 0.21950015624999253,
          "durationTicks": 45,
          "midi": 70,
          "name": "A#4",
          "ticks": 15456,
          "time": 75.39098700000001,
          "velocity": 0.6299212598425197
        },
        {
          "duration": 0.21950015624999253,
          "durationTicks": 45,
          "midi": 65,
          "name": "F4",
          "ticks": 15504,
          "time": 75.62512050000001,
          "velocity": 0.6299212598425197
        },
        {
          "duration": 0.4438780937500013,
          "durationTicks": 91,
          "midi": 68,
          "name": "G#4",
          "ticks": 15552,
          "time": 75.859254,
          "velocity": 0.6299212598425197
        },
        {
          "duration": 0.10731118750000235,
          "durationTicks": 22,
          "midi": 63,
          "name": "D#4",
          "ticks": 15648,
          "time": 76.327521,
          "velocity": 0.6299212598425197
        },
        {
          "duration": 0.21950015624999253,
          "durationTicks": 45,
          "midi": 65,
          "name": "F4",
          "ticks": 15678,
          "time": 76.47385443750001,
          "velocity": 0.6299212598425197
        },
        {
          "duration": 0.10731118750000235,
          "durationTicks": 22,
          "midi": 58,
          "name": "A#3",
          "ticks": 15744,
          "time": 76.795788,
          "velocity": 0.6299212598425197
        },
        {
          "duration": 0.21950015625000674,
          "durationTicks": 45,
          "midi": 60,
          "name": "C4",
          "ticks": 15774,
          "time": 76.9421214375,
          "velocity": 0.6299212598425197
        },
        {
          "duration": 0.4438780937499871,
          "durationTicks": 91,
          "midi": 55,
          "name": "G3",
          "ticks": 15840,
          "time": 77.26405500000001,
          "velocity": 0.6299212598425197
        },
        {
          "duration": 0.4438780937499871,
          "durationTicks": 91,
          "midi": 58,
          "name": "A#3",
          "ticks": 15840,
          "time": 77.26405500000001,
          "velocity": 0.6299212598425197
        },
        {
          "duration": 0.4438780937499871,
          "durationTicks": 91,
          "midi": 55,
          "name": "G3",
          "ticks": 15936,
          "time": 77.73232200000001,
          "velocity": 0.6299212598425197
        },
        {
          "duration": 0.4438780937500013,
          "durationTicks": 91,
          "midi": 67,
          "name": "G4",
          "ticks": 16032,
          "time": 78.20058900000001,
          "velocity": 0.6299212598425197
        },
        {
          "duration": 0.4438780937500013,
          "durationTicks": 91,
          "midi": 70,
          "name": "A#4",
          "ticks": 16032,
          "time": 78.20058900000001,
          "velocity": 0.6299212598425197
        },
        {
          "duration": 0.4438780937500013,
          "durationTicks": 91,
          "midi": 64,
          "name": "E4",
          "ticks": 16128,
          "time": 78.668856,
          "velocity": 0.6299212598425197
        },
        {
          "duration": 0.4438780937500013,
          "durationTicks": 91,
          "midi": 67,
          "name": "G4",
          "ticks": 16128,
          "time": 78.668856,
          "velocity": 0.6299212598425197
        },
        {
          "duration": 0.4438780937500013,
          "durationTicks": 91,
          "midi": 58,
          "name": "A#3",
          "ticks": 16224,
          "time": 79.137123,
          "velocity": 0.6299212598425197
        },
        {
          "duration": 0.4438780937499871,
          "durationTicks": 91,
          "midi": 60,
          "name": "C4",
          "ticks": 16320,
          "time": 79.60539000000001,
          "velocity": 0.6299212598425197
        },
        {
          "duration": 0.4438780937499871,
          "durationTicks": 91,
          "midi": 65,
          "name": "F4",
          "ticks": 16416,
          "time": 80.07365700000001,
          "velocity": 0.6299212598425197
        },
        {
          "duration": 0.8877561875000026,
          "durationTicks": 182,
          "midi": 60,
          "name": "C4",
          "ticks": 16512,
          "time": 80.54192400000001,
          "velocity": 0.6299212598425197
        },
        {
          "duration": 0.8877561875000026,
          "durationTicks": 182,
          "midi": 63,
          "name": "D#4",
          "ticks": 16512,
          "time": 80.54192400000001,
          "velocity": 0.6299212598425197
        },
        {
          "duration": 0.6633782499999938,
          "durationTicks": 136,
          "midi": 60,
          "name": "C4",
          "ticks": 16704,
          "time": 81.478458,
          "velocity": 0.6299212598425197
        },
        {
          "duration": 0.6633782499999938,
          "durationTicks": 136,
          "midi": 64,
          "name": "E4",
          "ticks": 16704,
          "time": 81.478458,
          "velocity": 0.6299212598425197
        },
        {
          "duration": 0.4438780937499871,
          "durationTicks": 91,
          "midi": 60,
          "name": "C4",
          "ticks": 16848,
          "time": 82.18085850000001,
          "velocity": 0.6299212598425197
        },
        {
          "duration": 0.4438780937499871,
          "durationTicks": 91,
          "midi": 65,
          "name": "F4",
          "ticks": 16848,
          "time": 82.18085850000001,
          "velocity": 0.6299212598425197
        },
        {
          "duration": 0.4438780937499871,
          "durationTicks": 91,
          "midi": 72,
          "name": "C5",
          "ticks": 16848,
          "time": 82.18085850000001,
          "velocity": 0.6299212598425197
        },
        {
          "duration": 0.21950015624999253,
          "durationTicks": 45,
          "midi": 68,
          "name": "G#4",
          "ticks": 16944,
          "time": 82.64912550000001,
          "velocity": 0.6299212598425197
        },
        {
          "duration": 0.21950015624999253,
          "durationTicks": 45,
          "midi": 70,
          "name": "A#4",
          "ticks": 16992,
          "time": 82.88325900000001,
          "velocity": 0.6299212598425197
        },
        {
          "duration": 0.21950015625000674,
          "durationTicks": 45,
          "midi": 65,
          "name": "F4",
          "ticks": 17040,
          "time": 83.11739250000001,
          "velocity": 0.6299212598425197
        },
        {
          "duration": 0.4438780937500013,
          "durationTicks": 91,
          "midi": 68,
          "name": "G#4",
          "ticks": 17088,
          "time": 83.351526,
          "velocity": 0.6299212598425197
        },
        {
          "duration": 0.10731118750000235,
          "durationTicks": 22,
          "midi": 63,
          "name": "D#4",
          "ticks": 17184,
          "time": 83.819793,
          "velocity": 0.6299212598425197
        },
        {
          "duration": 0.21950015624999253,
          "durationTicks": 45,
          "midi": 65,
          "name": "F4",
          "ticks": 17214,
          "time": 83.96612643750001,
          "velocity": 0.6299212598425197
        },
        {
          "duration": 0.10731118750000235,
          "durationTicks": 22,
          "midi": 58,
          "name": "A#3",
          "ticks": 17280,
          "time": 84.28806,
          "velocity": 0.6299212598425197
        },
        {
          "duration": 0.21950015625000674,
          "durationTicks": 45,
          "midi": 60,
          "name": "C4",
          "ticks": 17310,
          "time": 84.4343934375,
          "velocity": 0.6299212598425197
        },
        {
          "duration": 0.10731118749998814,
          "durationTicks": 22,
          "midi": 58,
          "name": "A#3",
          "ticks": 17376,
          "time": 84.75632700000001,
          "velocity": 0.6299212598425197
        },
        {
          "duration": 0.10731118750000235,
          "durationTicks": 22,
          "midi": 60,
          "name": "C4",
          "ticks": 17406,
          "time": 84.9026604375,
          "velocity": 0.6299212598425197
        },
        {
          "duration": 0.10731118749998814,
          "durationTicks": 22,
          "midi": 58,
          "name": "A#3",
          "ticks": 17424,
          "time": 84.99046050000001,
          "velocity": 0.6299212598425197
        },
        {
          "duration": 0.21950015625000674,
          "durationTicks": 45,
          "midi": 56,
          "name": "G#3",
          "ticks": 17454,
          "time": 85.1367939375,
          "velocity": 0.6299212598425197
        },
        {
          "duration": 0.10731118749998814,
          "durationTicks": 22,
          "midi": 56,
          "name": "G#3",
          "ticks": 17502,
          "time": 85.37092743750001,
          "velocity": 0.6299212598425197
        },
        {
          "duration": 0.10731118749998814,
          "durationTicks": 22,
          "midi": 56,
          "name": "G#3",
          "ticks": 17520,
          "time": 85.45872750000001,
          "velocity": 0.6299212598425197
        },
        {
          "duration": 0.10731118749998814,
          "durationTicks": 22,
          "midi": 53,
          "name": "F3",
          "ticks": 17550,
          "time": 85.60506093750001,
          "velocity": 0.6299212598425197
        },
        {
          "duration": 0.4438780937500013,
          "durationTicks": 91,
          "midi": 60,
          "name": "C4",
          "ticks": 17616,
          "time": 85.9269945,
          "velocity": 0.6299212598425197
        },
        {
          "duration": 0.4438780937500013,
          "durationTicks": 91,
          "midi": 65,
          "name": "F4",
          "ticks": 17616,
          "time": 85.9269945,
          "velocity": 0.6299212598425197
        },
        {
          "duration": 0.4438780937500013,
          "durationTicks": 91,
          "midi": 68,
          "name": "G#4",
          "ticks": 17616,
          "time": 85.9269945,
          "velocity": 0.6299212598425197
        },
        {
          "duration": 0.4438780937500013,
          "durationTicks": 91,
          "midi": 72,
          "name": "C5",
          "ticks": 17616,
          "time": 85.9269945,
          "velocity": 0.6299212598425197
        },
        {
          "duration": 0.21950015625000674,
          "durationTicks": 45,
          "midi": 68,
          "name": "G#4",
          "ticks": 17712,
          "time": 86.3952615,
          "velocity": 0.6299212598425197
        },
        {
          "duration": 0.21950015625000674,
          "durationTicks": 45,
          "midi": 70,
          "name": "A#4",
          "ticks": 17760,
          "time": 86.629395,
          "velocity": 0.6299212598425197
        },
        {
          "duration": 0.21950015624999253,
          "durationTicks": 45,
          "midi": 65,
          "name": "F4",
          "ticks": 17808,
          "time": 86.86352850000002,
          "velocity": 0.6299212598425197
        },
        {
          "duration": 0.4438780937499871,
          "durationTicks": 91,
          "midi": 68,
          "name": "G#4",
          "ticks": 17856,
          "time": 87.09766200000001,
          "velocity": 0.6299212598425197
        },
        {
          "duration": 0.10731118749998814,
          "durationTicks": 22,
          "midi": 63,
          "name": "D#4",
          "ticks": 17952,
          "time": 87.56592900000001,
          "velocity": 0.6299212598425197
        },
        {
          "duration": 0.21950015625000674,
          "durationTicks": 45,
          "midi": 65,
          "name": "F4",
          "ticks": 17982,
          "time": 87.7122624375,
          "velocity": 0.6299212598425197
        },
        {
          "duration": 0.10731118750000235,
          "durationTicks": 22,
          "midi": 58,
          "name": "A#3",
          "ticks": 18048,
          "time": 88.03419600000001,
          "velocity": 0.6299212598425197
        },
        {
          "duration": 0.21950015624999253,
          "durationTicks": 45,
          "midi": 60,
          "name": "C4",
          "ticks": 18078,
          "time": 88.18052943750001,
          "velocity": 0.6299212598425197
        },
        {
          "duration": 0.10731118750000235,
          "durationTicks": 22,
          "midi": 53,
          "name": "F3",
          "ticks": 18144,
          "time": 88.502463,
          "velocity": 0.6299212598425197
        },
        {
          "duration": 0.10731118749998814,
          "durationTicks": 22,
          "midi": 56,
          "name": "G#3",
          "ticks": 18174,
          "time": 88.64879643750001,
          "velocity": 0.6299212598425197
        },
        {
          "duration": 0.10731118750000235,
          "durationTicks": 22,
          "midi": 58,
          "name": "A#3",
          "ticks": 18192,
          "time": 88.7365965,
          "velocity": 0.6299212598425197
        },
        {
          "duration": 0.10731118749998814,
          "durationTicks": 22,
          "midi": 60,
          "name": "C4",
          "ticks": 18222,
          "time": 88.88292993750001,
          "velocity": 0.6299212598425197
        },
        {
          "duration": 0.21950015625000674,
          "durationTicks": 45,
          "midi": 63,
          "name": "D#4",
          "ticks": 18240,
          "time": 88.97073,
          "velocity": 0.6299212598425197
        },
        {
          "duration": 0.10731118750000235,
          "durationTicks": 22,
          "midi": 60,
          "name": "C4",
          "ticks": 18288,
          "time": 89.2048635,
          "velocity": 0.6299212598425197
        },
        {
          "duration": 0.21950015625000674,
          "durationTicks": 45,
          "midi": 65,
          "name": "F4",
          "ticks": 18318,
          "time": 89.3511969375,
          "velocity": 0.6299212598425197
        },
        {
          "duration": 0.4438780937499871,
          "durationTicks": 91,
          "midi": 62,
          "name": "D4",
          "ticks": 18384,
          "time": 89.67313050000001,
          "velocity": 0.6299212598425197
        },
        {
          "duration": 0.4438780937499871,
          "durationTicks": 91,
          "midi": 65,
          "name": "F4",
          "ticks": 18384,
          "time": 89.67313050000001,
          "velocity": 0.6299212598425197
        },
        {
          "duration": 0.4438780937499871,
          "durationTicks": 91,
          "midi": 68,
          "name": "G#4",
          "ticks": 18384,
          "time": 89.67313050000001,
          "velocity": 0.6299212598425197
        },
        {
          "duration": 0.4438780937499871,
          "durationTicks": 91,
          "midi": 72,
          "name": "C5",
          "ticks": 18384,
          "time": 89.67313050000001,
          "velocity": 0.6299212598425197
        },
        {
          "duration": 0.21950015624999253,
          "durationTicks": 45,
          "midi": 68,
          "name": "G#4",
          "ticks": 18480,
          "time": 90.14139750000001,
          "velocity": 0.6299212598425197
        },
        {
          "duration": 0.21950015624999253,
          "durationTicks": 45,
          "midi": 70,
          "name": "A#4",
          "ticks": 18528,
          "time": 90.37553100000001,
          "velocity": 0.6299212598425197
        },
        {
          "duration": 0.21950015625000674,
          "durationTicks": 45,
          "midi": 65,
          "name": "F4",
          "ticks": 18576,
          "time": 90.60966450000001,
          "velocity": 0.6299212598425197
        },
        {
          "duration": 0.4438780937500013,
          "durationTicks": 91,
          "midi": 68,
          "name": "G#4",
          "ticks": 18624,
          "time": 90.843798,
          "velocity": 0.6299212598425197
        },
        {
          "duration": 0.10731118750000235,
          "durationTicks": 22,
          "midi": 63,
          "name": "D#4",
          "ticks": 18720,
          "time": 91.312065,
          "velocity": 0.6299212598425197
        },
        {
          "duration": 0.21950015625000674,
          "durationTicks": 45,
          "midi": 65,
          "name": "F4",
          "ticks": 18750,
          "time": 91.45839843750001,
          "velocity": 0.6299212598425197
        },
        {
          "duration": 0.10731118749998814,
          "durationTicks": 22,
          "midi": 58,
          "name": "A#3",
          "ticks": 18816,
          "time": 91.78033200000002,
          "velocity": 0.6299212598425197
        },
        {
          "duration": 0.21950015625000674,
          "durationTicks": 45,
          "midi": 60,
          "name": "C4",
          "ticks": 18846,
          "time": 91.9266654375,
          "velocity": 0.6299212598425197
        },
        {
          "duration": 0.4438780937499871,
          "durationTicks": 91,
          "midi": 55,
          "name": "G3",
          "ticks": 18912,
          "time": 92.24859900000001,
          "velocity": 0.6299212598425197
        },
        {
          "duration": 0.4438780937499871,
          "durationTicks": 91,
          "midi": 58,
          "name": "A#3",
          "ticks": 18912,
          "time": 92.24859900000001,
          "velocity": 0.6299212598425197
        },
        {
          "duration": 0.4438780937499871,
          "durationTicks": 91,
          "midi": 55,
          "name": "G3",
          "ticks": 19008,
          "time": 92.71686600000001,
          "velocity": 0.6299212598425197
        },
        {
          "duration": 0.4438780937500013,
          "durationTicks": 91,
          "midi": 65,
          "name": "F4",
          "ticks": 19104,
          "time": 93.18513300000001,
          "velocity": 0.6299212598425197
        },
        {
          "duration": 0.4438780937500013,
          "durationTicks": 91,
          "midi": 70,
          "name": "A#4",
          "ticks": 19104,
          "time": 93.18513300000001,
          "velocity": 0.6299212598425197
        },
        {
          "duration": 0.4438780937500013,
          "durationTicks": 91,
          "midi": 59,
          "name": "B3",
          "ticks": 19200,
          "time": 93.6534,
          "velocity": 0.6299212598425197
        },
        {
          "duration": 0.4438780937500013,
          "durationTicks": 91,
          "midi": 67,
          "name": "G4",
          "ticks": 19200,
          "time": 93.6534,
          "velocity": 0.6299212598425197
        },
        {
          "duration": 0.4438780937500013,
          "durationTicks": 91,
          "midi": 58,
          "name": "A#3",
          "ticks": 19296,
          "time": 94.121667,
          "velocity": 0.6299212598425197
        },
        {
          "duration": 0.4438780937499871,
          "durationTicks": 91,
          "midi": 60,
          "name": "C4",
          "ticks": 19392,
          "time": 94.58993400000001,
          "velocity": 0.6299212598425197
        },
        {
          "duration": 0.4438780937499871,
          "durationTicks": 91,
          "midi": 63,
          "name": "D#4",
          "ticks": 19488,
          "time": 95.05820100000001,
          "velocity": 0.6299212598425197
        },
        {
          "duration": 1.775512374999991,
          "durationTicks": 364,
          "midi": 64,
          "name": "E4",
          "ticks": 19584,
          "time": 95.52646800000001,
          "velocity": 0.6299212598425197
        },
        {
          "duration": 0.10731118749998814,
          "durationTicks": 22,
          "midi": 65,
          "name": "F4",
          "ticks": 19968,
          "time": 97.39953600000001,
          "velocity": 0.6299212598425197
        },
        {
          "duration": 0.10731118750000235,
          "durationTicks": 22,
          "midi": 65,
          "name": "F4",
          "ticks": 19998,
          "time": 97.5458694375,
          "velocity": 0.6299212598425197
        },
        {
          "duration": 0.21950015624999253,
          "durationTicks": 45,
          "midi": 65,
          "name": "F4",
          "ticks": 20016,
          "time": 97.63366950000001,
          "velocity": 0.6299212598425197
        },
        {
          "duration": 0.21950015625000674,
          "durationTicks": 45,
          "midi": 64,
          "name": "E4",
          "ticks": 20064,
          "time": 97.86780300000001,
          "velocity": 0.6299212598425197
        },
        {
          "duration": 0.21950015625000674,
          "durationTicks": 45,
          "midi": 64,
          "name": "E4",
          "ticks": 20112,
          "time": 98.10193650000001,
          "velocity": 0.6299212598425197
        },
        {
          "duration": 0.21950015625000674,
          "durationTicks": 45,
          "midi": 63,
          "name": "D#4",
          "ticks": 20160,
          "time": 98.33607,
          "velocity": 0.6299212598425197
        },
        {
          "duration": 0.21950015625000674,
          "durationTicks": 45,
          "midi": 63,
          "name": "D#4",
          "ticks": 20208,
          "time": 98.5702035,
          "velocity": 0.6299212598425197
        },
        {
          "duration": 0.21950015625000674,
          "durationTicks": 45,
          "midi": 62,
          "name": "D4",
          "ticks": 20256,
          "time": 98.804337,
          "velocity": 0.6299212598425197
        },
        {
          "duration": 0.21950015625000674,
          "durationTicks": 45,
          "midi": 61,
          "name": "C#4",
          "ticks": 20304,
          "time": 99.0384705,
          "velocity": 0.6299212598425197
        },
        {
          "duration": 0.10731118749998814,
          "durationTicks": 22,
          "midi": 60,
          "name": "C4",
          "ticks": 20352,
          "time": 99.27260400000002,
          "velocity": 0.6299212598425197
        },
        {
          "duration": 0.10731118750000235,
          "durationTicks": 22,
          "midi": 60,
          "name": "C4",
          "ticks": 20382,
          "time": 99.4189374375,
          "velocity": 0.6299212598425197
        },
        {
          "duration": 0.21950015624999253,
          "durationTicks": 45,
          "midi": 60,
          "name": "C4",
          "ticks": 20400,
          "time": 99.50673750000001,
          "velocity": 0.6299212598425197
        },
        {
          "duration": 0.21950015624999253,
          "durationTicks": 45,
          "midi": 59,
          "name": "B3",
          "ticks": 20448,
          "time": 99.74087100000001,
          "velocity": 0.6299212598425197
        },
        {
          "duration": 0.21950015624999253,
          "durationTicks": 45,
          "midi": 59,
          "name": "B3",
          "ticks": 20496,
          "time": 99.97500450000001,
          "velocity": 0.6299212598425197
        },
        {
          "duration": 0.21950015624999253,
          "durationTicks": 45,
          "midi": 58,
          "name": "A#3",
          "ticks": 20544,
          "time": 100.20913800000001,
          "velocity": 0.6299212598425197
        },
        {
          "duration": 0.21950015625000674,
          "durationTicks": 45,
          "midi": 58,
          "name": "A#3",
          "ticks": 20592,
          "time": 100.44327150000001,
          "velocity": 0.6299212598425197
        },
        {
          "duration": 0.21950015625000674,
          "durationTicks": 45,
          "midi": 56,
          "name": "G#3",
          "ticks": 20640,
          "time": 100.67740500000001,
          "velocity": 0.6299212598425197
        },
        {
          "duration": 0.21950015625000674,
          "durationTicks": 45,
          "midi": 53,
          "name": "F3",
          "ticks": 20688,
          "time": 100.9115385,
          "velocity": 0.6299212598425197
        },
        {
          "duration": 0.10731118750000235,
          "durationTicks": 22,
          "midi": 65,
          "name": "F4",
          "ticks": 20736,
          "time": 101.145672,
          "velocity": 0.6299212598425197
        },
        {
          "duration": 0.10731118750000235,
          "durationTicks": 22,
          "midi": 65,
          "name": "F4",
          "ticks": 20766,
          "time": 101.29200543750001,
          "velocity": 0.6299212598425197
        },
        {
          "duration": 0.21950015625000674,
          "durationTicks": 45,
          "midi": 65,
          "name": "F4",
          "ticks": 20784,
          "time": 101.3798055,
          "velocity": 0.6299212598425197
        },
        {
          "duration": 0.21950015624999253,
          "durationTicks": 45,
          "midi": 64,
          "name": "E4",
          "ticks": 20832,
          "time": 101.61393900000002,
          "velocity": 0.6299212598425197
        },
        {
          "duration": 0.21950015624999253,
          "durationTicks": 45,
          "midi": 64,
          "name": "E4",
          "ticks": 20880,
          "time": 101.84807250000001,
          "velocity": 0.6299212598425197
        },
        {
          "duration": 0.21950015624999253,
          "durationTicks": 45,
          "midi": 63,
          "name": "D#4",
          "ticks": 20928,
          "time": 102.08220600000001,
          "velocity": 0.6299212598425197
        },
        {
          "duration": 0.21950015624999253,
          "durationTicks": 45,
          "midi": 63,
          "name": "D#4",
          "ticks": 20976,
          "time": 102.31633950000001,
          "velocity": 0.6299212598425197
        },
        {
          "duration": 0.21950015624999253,
          "durationTicks": 45,
          "midi": 62,
          "name": "D4",
          "ticks": 21024,
          "time": 102.55047300000001,
          "velocity": 0.6299212598425197
        },
        {
          "duration": 0.21950015625000674,
          "durationTicks": 45,
          "midi": 61,
          "name": "C#4",
          "ticks": 21072,
          "time": 102.78460650000001,
          "velocity": 0.6299212598425197
        },
        {
          "duration": 0.10731118750000235,
          "durationTicks": 22,
          "midi": 60,
          "name": "C4",
          "ticks": 21120,
          "time": 103.01874000000001,
          "velocity": 0.6299212598425197
        },
        {
          "duration": 0.10731118749998814,
          "durationTicks": 22,
          "midi": 60,
          "name": "C4",
          "ticks": 21150,
          "time": 103.16507343750001,
          "velocity": 0.6299212598425197
        },
        {
          "duration": 0.21950015625000674,
          "durationTicks": 45,
          "midi": 60,
          "name": "C4",
          "ticks": 21168,
          "time": 103.2528735,
          "velocity": 0.6299212598425197
        },
        {
          "duration": 0.21950015625000674,
          "durationTicks": 45,
          "midi": 59,
          "name": "B3",
          "ticks": 21216,
          "time": 103.487007,
          "velocity": 0.6299212598425197
        },
        {
          "duration": 0.21950015625000674,
          "durationTicks": 45,
          "midi": 59,
          "name": "B3",
          "ticks": 21264,
          "time": 103.7211405,
          "velocity": 0.6299212598425197
        },
        {
          "duration": 0.21950015625000674,
          "durationTicks": 45,
          "midi": 58,
          "name": "A#3",
          "ticks": 21312,
          "time": 103.955274,
          "velocity": 0.6299212598425197
        },
        {
          "duration": 0.21950015624999253,
          "durationTicks": 45,
          "midi": 58,
          "name": "A#3",
          "ticks": 21360,
          "time": 104.18940750000002,
          "velocity": 0.6299212598425197
        },
        {
          "duration": 0.21950015624999253,
          "durationTicks": 45,
          "midi": 56,
          "name": "G#3",
          "ticks": 21408,
          "time": 104.42354100000001,
          "velocity": 0.6299212598425197
        },
        {
          "duration": 0.21950015624999253,
          "durationTicks": 45,
          "midi": 53,
          "name": "F3",
          "ticks": 21456,
          "time": 104.65767450000001,
          "velocity": 0.6299212598425197
        },
        {
          "duration": 0.06341115624999816,
          "durationTicks": 13,
          "midi": 63,
          "name": "D#4",
          "ticks": 21504,
          "time": 104.89180800000001,
          "velocity": 0.6299212598425197
        },
        {
          "duration": 1.7121012187499929,
          "durationTicks": 351,
          "midi": 65,
          "name": "F4",
          "ticks": 21517,
          "time": 104.95521915625001,
          "velocity": 0.6299212598425197
        },
        {
          "duration": 0.06341115624998395,
          "durationTicks": 13,
          "midi": 63,
          "name": "D#4",
          "ticks": 21888,
          "time": 106.76487600000002,
          "velocity": 0.6299212598425197
        },
        {
          "duration": 0.268277968750013,
          "durationTicks": 55,
          "midi": 65,
          "name": "F4",
          "ticks": 21901,
          "time": 106.82828715625,
          "velocity": 0.6299212598425197
        },
        {
          "duration": 0.06341115624999816,
          "durationTicks": 13,
          "midi": 63,
          "name": "D#4",
          "ticks": 21966,
          "time": 107.1453429375,
          "velocity": 0.6299212598425197
        },
        {
          "duration": 0.268277968750013,
          "durationTicks": 55,
          "midi": 65,
          "name": "F4",
          "ticks": 21973,
          "time": 107.17948740625,
          "velocity": 0.6299212598425197
        },
        {
          "duration": 0.06341115624999816,
          "durationTicks": 13,
          "midi": 63,
          "name": "D#4",
          "ticks": 22032,
          "time": 107.46727650000001,
          "velocity": 0.6299212598425197
        },
        {
          "duration": 0.26827796874999876,
          "durationTicks": 55,
          "midi": 65,
          "name": "F4",
          "ticks": 22045,
          "time": 107.53068765625001,
          "velocity": 0.6299212598425197
        },
        {
          "duration": 0.06341115624999816,
          "durationTicks": 13,
          "midi": 63,
          "name": "D#4",
          "ticks": 22110,
          "time": 107.84774343750001,
          "velocity": 0.6299212598425197
        },
        {
          "duration": 0.268277968750013,
          "durationTicks": 55,
          "midi": 65,
          "name": "F4",
          "ticks": 22117,
          "time": 107.88188790625,
          "velocity": 0.6299212598425197
        },
        {
          "duration": 0.06341115624999816,
          "durationTicks": 13,
          "midi": 63,
          "name": "D#4",
          "ticks": 22176,
          "time": 108.16967700000001,
          "velocity": 0.6299212598425197
        },
        {
          "duration": 0.38046693750000316,
          "durationTicks": 78,
          "midi": 65,
          "name": "F4",
          "ticks": 22189,
          "time": 108.23308815625,
          "velocity": 0.6299212598425197
        },
        {
          "duration": 0.8877561875000168,
          "durationTicks": 182,
          "midi": 68,
          "name": "G#4",
          "ticks": 22272,
          "time": 108.637944,
          "velocity": 0.6299212598425197
        },
        {
          "duration": 0.33168912500001113,
          "durationTicks": 68,
          "midi": 65,
          "name": "F4",
          "ticks": 22704,
          "time": 110.7451455,
          "velocity": 0.6299212598425197
        },
        {
          "duration": 0.33168912500001113,
          "durationTicks": 68,
          "midi": 70,
          "name": "A#4",
          "ticks": 22704,
          "time": 110.7451455,
          "velocity": 0.6299212598425197
        },
        {
          "duration": 0.33168912500001113,
          "durationTicks": 68,
          "midi": 68,
          "name": "G#4",
          "ticks": 22782,
          "time": 111.12561243750001,
          "velocity": 0.6299212598425197
        },
        {
          "duration": 0.3316891249999969,
          "durationTicks": 68,
          "midi": 65,
          "name": "F4",
          "ticks": 22848,
          "time": 111.44754600000002,
          "velocity": 0.6299212598425197
        },
        {
          "duration": 0.3316891249999969,
          "durationTicks": 68,
          "midi": 70,
          "name": "A#4",
          "ticks": 22848,
          "time": 111.44754600000002,
          "velocity": 0.6299212598425197
        },
        {
          "duration": 0.33168912500001113,
          "durationTicks": 68,
          "midi": 68,
          "name": "G#4",
          "ticks": 22926,
          "time": 111.8280129375,
          "velocity": 0.6299212598425197
        },
        {
          "duration": 0.21950015624999253,
          "durationTicks": 45,
          "midi": 65,
          "name": "F4",
          "ticks": 22992,
          "time": 112.14994650000001,
          "velocity": 0.6299212598425197
        },
        {
          "duration": 0.21950015624999253,
          "durationTicks": 45,
          "midi": 70,
          "name": "A#4",
          "ticks": 22992,
          "time": 112.14994650000001,
          "velocity": 0.6299212598425197
        },
        {
          "duration": 0.3316891249999969,
          "durationTicks": 68,
          "midi": 60,
          "name": "C4",
          "ticks": 23040,
          "time": 112.38408000000001,
          "velocity": 0.6299212598425197
        },
        {
          "duration": 0.3316891249999969,
          "durationTicks": 68,
          "midi": 65,
          "name": "F4",
          "ticks": 23040,
          "time": 112.38408000000001,
          "velocity": 0.6299212598425197
        },
        {
          "duration": 0.3316891249999969,
          "durationTicks": 68,
          "midi": 68,
          "name": "G#4",
          "ticks": 23118,
          "time": 112.76454693750001,
          "velocity": 0.6299212598425197
        },
        {
          "duration": 0.3316891249999969,
          "durationTicks": 68,
          "midi": 65,
          "name": "F4",
          "ticks": 23118,
          "time": 112.76454693750001,
          "velocity": 0.6299212598425197
        },
        {
          "duration": 0.10731118750000235,
          "durationTicks": 22,
          "midi": 63,
          "name": "D#4",
          "ticks": 23262,
          "time": 113.46694743750001,
          "velocity": 0.6299212598425197
        },
        {
          "duration": 0.21950015625000674,
          "durationTicks": 45,
          "midi": 65,
          "name": "F4",
          "ticks": 23280,
          "time": 113.5547475,
          "velocity": 0.6299212598425197
        },
        {
          "duration": 0.10731118750000235,
          "durationTicks": 22,
          "midi": 58,
          "name": "A#3",
          "ticks": 23358,
          "time": 113.93521443750001,
          "velocity": 0.6299212598425197
        },
        {
          "duration": 0.21950015624999253,
          "durationTicks": 45,
          "midi": 60,
          "name": "C4",
          "ticks": 23376,
          "time": 114.02301450000002,
          "velocity": 0.6299212598425197
        },
        {
          "duration": 0.21950015624999253,
          "durationTicks": 45,
          "midi": 67,
          "name": "G4",
          "ticks": 23424,
          "time": 114.25714800000002,
          "velocity": 0.6299212598425197
        },
        {
          "duration": 0.3316891249999969,
          "durationTicks": 68,
          "midi": 65,
          "name": "F4",
          "ticks": 23472,
          "time": 114.49128150000001,
          "velocity": 0.6299212598425197
        },
        {
          "duration": 0.3316891249999969,
          "durationTicks": 68,
          "midi": 68,
          "name": "G#4",
          "ticks": 23472,
          "time": 114.49128150000001,
          "velocity": 0.6299212598425197
        },
        {
          "duration": 0.3316891249999969,
          "durationTicks": 68,
          "midi": 68,
          "name": "G#4",
          "ticks": 23550,
          "time": 114.87174843750002,
          "velocity": 0.6299212598425197
        },
        {
          "duration": 0.3316891249999969,
          "durationTicks": 68,
          "midi": 65,
          "name": "F4",
          "ticks": 23550,
          "time": 114.87174843750002,
          "velocity": 0.6299212598425197
        },
        {
          "duration": 0.33168912500001113,
          "durationTicks": 68,
          "midi": 65,
          "name": "F4",
          "ticks": 23616,
          "time": 115.19368200000001,
          "velocity": 0.6299212598425197
        },
        {
          "duration": 0.33168912500001113,
          "durationTicks": 68,
          "midi": 68,
          "name": "G#4",
          "ticks": 23616,
          "time": 115.19368200000001,
          "velocity": 0.6299212598425197
        },
        {
          "duration": 0.3316891249999969,
          "durationTicks": 68,
          "midi": 68,
          "name": "G#4",
          "ticks": 23694,
          "time": 115.57414893750001,
          "velocity": 0.6299212598425197
        },
        {
          "duration": 0.3316891249999969,
          "durationTicks": 68,
          "midi": 65,
          "name": "F4",
          "ticks": 23694,
          "time": 115.57414893750001,
          "velocity": 0.6299212598425197
        },
        {
          "duration": 0.21950015625000674,
          "durationTicks": 45,
          "midi": 70,
          "name": "A#4",
          "ticks": 23760,
          "time": 115.8960825,
          "velocity": 0.6299212598425197
        },
        {
          "duration": 0.33168912500001113,
          "durationTicks": 68,
          "midi": 63,
          "name": "D#4",
          "ticks": 23808,
          "time": 116.130216,
          "velocity": 0.6299212598425197
        },
        {
          "duration": 0.33168912500001113,
          "durationTicks": 68,
          "midi": 68,
          "name": "G#4",
          "ticks": 23808,
          "time": 116.130216,
          "velocity": 0.6299212598425197
        },
        {
          "duration": 0.33168912500001113,
          "durationTicks": 68,
          "midi": 65,
          "name": "F4",
          "ticks": 23886,
          "time": 116.51068293750001,
          "velocity": 0.6299212598425197
        },
        {
          "duration": 0.10731118749998814,
          "durationTicks": 22,
          "midi": 63,
          "name": "D#4",
          "ticks": 24030,
          "time": 117.21308343750002,
          "velocity": 0.6299212598425197
        },
        {
          "duration": 0.21950015624999253,
          "durationTicks": 45,
          "midi": 65,
          "name": "F4",
          "ticks": 24048,
          "time": 117.30088350000001,
          "velocity": 0.6299212598425197
        },
        {
          "duration": 0.10731118749998814,
          "durationTicks": 22,
          "midi": 58,
          "name": "A#3",
          "ticks": 24126,
          "time": 117.68135043750002,
          "velocity": 0.6299212598425197
        },
        {
          "duration": 0.21950015625000674,
          "durationTicks": 45,
          "midi": 60,
          "name": "C4",
          "ticks": 24144,
          "time": 117.76915050000001,
          "velocity": 0.6299212598425197
        },
        {
          "duration": 0.33168912500001113,
          "durationTicks": 68,
          "midi": 60,
          "name": "C4",
          "ticks": 24240,
          "time": 118.2374175,
          "velocity": 0.6299212598425197
        },
        {
          "duration": 0.33168912500001113,
          "durationTicks": 68,
          "midi": 68,
          "name": "G#4",
          "ticks": 24240,
          "time": 118.2374175,
          "velocity": 0.6299212598425197
        },
        {
          "duration": 0.33168912500001113,
          "durationTicks": 68,
          "midi": 68,
          "name": "G#4",
          "ticks": 24318,
          "time": 118.61788443750001,
          "velocity": 0.6299212598425197
        },
        {
          "duration": 0.33168912500001113,
          "durationTicks": 68,
          "midi": 60,
          "name": "C4",
          "ticks": 24318,
          "time": 118.61788443750001,
          "velocity": 0.6299212598425197
        },
        {
          "duration": 0.3316891249999969,
          "durationTicks": 68,
          "midi": 60,
          "name": "C4",
          "ticks": 24384,
          "time": 118.93981800000002,
          "velocity": 0.6299212598425197
        },
        {
          "duration": 0.3316891249999969,
          "durationTicks": 68,
          "midi": 68,
          "name": "G#4",
          "ticks": 24384,
          "time": 118.93981800000002,
          "velocity": 0.6299212598425197
        },
        {
          "duration": 0.33168912500001113,
          "durationTicks": 68,
          "midi": 68,
          "name": "G#4",
          "ticks": 24462,
          "time": 119.3202849375,
          "velocity": 0.6299212598425197
        },
        {
          "duration": 0.33168912500001113,
          "durationTicks": 68,
          "midi": 60,
          "name": "C4",
          "ticks": 24462,
          "time": 119.3202849375,
          "velocity": 0.6299212598425197
        },
        {
          "duration": 0.21950015624999253,
          "durationTicks": 45,
          "midi": 70,
          "name": "A#4",
          "ticks": 24528,
          "time": 119.64221850000001,
          "velocity": 0.6299212598425197
        },
        {
          "duration": 0.3316891249999969,
          "durationTicks": 68,
          "midi": 62,
          "name": "D4",
          "ticks": 24576,
          "time": 119.87635200000001,
          "velocity": 0.6299212598425197
        },
        {
          "duration": 0.3316891249999969,
          "durationTicks": 68,
          "midi": 65,
          "name": "F4",
          "ticks": 24576,
          "time": 119.87635200000001,
          "velocity": 0.6299212598425197
        },
        {
          "duration": 0.3316891249999827,
          "durationTicks": 68,
          "midi": 68,
          "name": "G#4",
          "ticks": 24654,
          "time": 120.25681893750001,
          "velocity": 0.6299212598425197
        },
        {
          "duration": 0.3316891249999827,
          "durationTicks": 68,
          "midi": 65,
          "name": "F4",
          "ticks": 24654,
          "time": 120.25681893750001,
          "velocity": 0.6299212598425197
        },
        {
          "duration": 0.10731118750001656,
          "durationTicks": 22,
          "midi": 63,
          "name": "D#4",
          "ticks": 24798,
          "time": 120.95921943750001,
          "velocity": 0.6299212598425197
        },
        {
          "duration": 0.21950015625000674,
          "durationTicks": 45,
          "midi": 65,
          "name": "F4",
          "ticks": 24816,
          "time": 121.0470195,
          "velocity": 0.6299212598425197
        },
        {
          "duration": 0.21950015624999253,
          "durationTicks": 45,
          "midi": 65,
          "name": "F4",
          "ticks": 24864,
          "time": 121.28115300000002,
          "velocity": 0.6299212598425197
        },
        {
          "duration": 0.21950015624999253,
          "durationTicks": 45,
          "midi": 65,
          "name": "F4",
          "ticks": 24912,
          "time": 121.51528650000002,
          "velocity": 0.6299212598425197
        },
        {
          "duration": 0.3316891249999827,
          "durationTicks": 68,
          "midi": 65,
          "name": "F4",
          "ticks": 24960,
          "time": 121.74942000000001,
          "velocity": 0.6299212598425197
        },
        {
          "duration": 0.3316891249999827,
          "durationTicks": 68,
          "midi": 72,
          "name": "C5",
          "ticks": 24960,
          "time": 121.74942000000001,
          "velocity": 0.6299212598425197
        },
        {
          "duration": 0.3316891249999827,
          "durationTicks": 68,
          "midi": 70,
          "name": "A#4",
          "ticks": 25038,
          "time": 122.12988693750002,
          "velocity": 0.6299212598425197
        },
        {
          "duration": 0.4438780937500155,
          "durationTicks": 91,
          "midi": 68,
          "name": "G#4",
          "ticks": 25104,
          "time": 122.45182050000001,
          "velocity": 0.6299212598425197
        },
        {
          "duration": 0.4438780937500155,
          "durationTicks": 91,
          "midi": 70,
          "name": "A#4",
          "ticks": 25200,
          "time": 122.92008750000001,
          "velocity": 0.6299212598425197
        },
        {
          "duration": 0.21950015625000674,
          "durationTicks": 45,
          "midi": 65,
          "name": "F4",
          "ticks": 25296,
          "time": 123.3883545,
          "velocity": 0.6299212598425197
        },
        {
          "duration": 0.663378250000008,
          "durationTicks": 136,
          "midi": 53,
          "name": "F3",
          "ticks": 25344,
          "time": 123.62248800000002,
          "velocity": 0.6299212598425197
        },
        {
          "duration": 0.663378250000008,
          "durationTicks": 136,
          "midi": 60,
          "name": "C4",
          "ticks": 25344,
          "time": 123.62248800000002,
          "velocity": 0.6299212598425197
        },
        {
          "duration": 0.663378250000008,
          "durationTicks": 136,
          "midi": 54,
          "name": "F#3",
          "ticks": 25488,
          "time": 124.32488850000001,
          "velocity": 0.6299212598425197
        },
        {
          "duration": 0.663378250000008,
          "durationTicks": 136,
          "midi": 60,
          "name": "C4",
          "ticks": 25488,
          "time": 124.32488850000001,
          "velocity": 0.6299212598425197
        },
        {
          "duration": 0.3316891249999969,
          "durationTicks": 68,
          "midi": 60,
          "name": "C4",
          "ticks": 25776,
          "time": 125.7296895,
          "velocity": 0.6299212598425197
        },
        {
          "duration": 0.3316891249999969,
          "durationTicks": 68,
          "midi": 67,
          "name": "G4",
          "ticks": 25776,
          "time": 125.7296895,
          "velocity": 0.6299212598425197
        },
        {
          "duration": 0.3316891249999969,
          "durationTicks": 68,
          "midi": 70,
          "name": "A#4",
          "ticks": 25776,
          "time": 125.7296895,
          "velocity": 0.6299212598425197
        },
        {
          "duration": 0.3316891249999969,
          "durationTicks": 68,
          "midi": 68,
          "name": "G#4",
          "ticks": 25854,
          "time": 126.11015643750001,
          "velocity": 0.6299212598425197
        },
        {
          "duration": 0.3316891249999827,
          "durationTicks": 68,
          "midi": 60,
          "name": "C4",
          "ticks": 25920,
          "time": 126.43209000000002,
          "velocity": 0.6299212598425197
        },
        {
          "duration": 0.3316891249999827,
          "durationTicks": 68,
          "midi": 67,
          "name": "G4",
          "ticks": 25920,
          "time": 126.43209000000002,
          "velocity": 0.6299212598425197
        },
        {
          "duration": 0.3316891249999827,
          "durationTicks": 68,
          "midi": 70,
          "name": "A#4",
          "ticks": 25920,
          "time": 126.43209000000002,
          "velocity": 0.6299212598425197
        },
        {
          "duration": 0.3316891249999969,
          "durationTicks": 68,
          "midi": 68,
          "name": "G#4",
          "ticks": 25998,
          "time": 126.8125569375,
          "velocity": 0.6299212598425197
        },
        {
          "duration": 0.21950015624999253,
          "durationTicks": 45,
          "midi": 60,
          "name": "C4",
          "ticks": 26064,
          "time": 127.13449050000001,
          "velocity": 0.6299212598425197
        },
        {
          "duration": 0.21950015624999253,
          "durationTicks": 45,
          "midi": 67,
          "name": "G4",
          "ticks": 26064,
          "time": 127.13449050000001,
          "velocity": 0.6299212598425197
        },
        {
          "duration": 0.21950015624999253,
          "durationTicks": 45,
          "midi": 70,
          "name": "A#4",
          "ticks": 26064,
          "time": 127.13449050000001,
          "velocity": 0.6299212598425197
        },
        {
          "duration": 0.3316891249999969,
          "durationTicks": 68,
          "midi": 60,
          "name": "C4",
          "ticks": 26112,
          "time": 127.36862400000001,
          "velocity": 0.6299212598425197
        },
        {
          "duration": 0.3316891249999969,
          "durationTicks": 68,
          "midi": 65,
          "name": "F4",
          "ticks": 26112,
          "time": 127.36862400000001,
          "velocity": 0.6299212598425197
        },
        {
          "duration": 0.3316891249999827,
          "durationTicks": 68,
          "midi": 68,
          "name": "G#4",
          "ticks": 26190,
          "time": 127.74909093750001,
          "velocity": 0.6299212598425197
        },
        {
          "duration": 0.3316891249999827,
          "durationTicks": 68,
          "midi": 65,
          "name": "F4",
          "ticks": 26190,
          "time": 127.74909093750001,
          "velocity": 0.6299212598425197
        },
        {
          "duration": 0.3316891249999827,
          "durationTicks": 68,
          "midi": 60,
          "name": "C4",
          "ticks": 26190,
          "time": 127.74909093750001,
          "velocity": 0.6299212598425197
        },
        {
          "duration": 0.10731118750001656,
          "durationTicks": 22,
          "midi": 63,
          "name": "D#4",
          "ticks": 26334,
          "time": 128.4514914375,
          "velocity": 0.6299212598425197
        },
        {
          "duration": 0.21950015625000674,
          "durationTicks": 45,
          "midi": 65,
          "name": "F4",
          "ticks": 26352,
          "time": 128.53929150000002,
          "velocity": 0.6299212598425197
        },
        {
          "duration": 0.10731118750001656,
          "durationTicks": 22,
          "midi": 58,
          "name": "A#3",
          "ticks": 26430,
          "time": 128.9197584375,
          "velocity": 0.6299212598425197
        },
        {
          "duration": 0.21950015625000674,
          "durationTicks": 45,
          "midi": 60,
          "name": "C4",
          "ticks": 26448,
          "time": 129.00755850000002,
          "velocity": 0.6299212598425197
        },
        {
          "duration": 0.3316891249999969,
          "durationTicks": 68,
          "midi": 60,
          "name": "C4",
          "ticks": 26544,
          "time": 129.4758255,
          "velocity": 0.6299212598425197
        },
        {
          "duration": 0.3316891249999969,
          "durationTicks": 68,
          "midi": 65,
          "name": "F4",
          "ticks": 26544,
          "time": 129.4758255,
          "velocity": 0.6299212598425197
        },
        {
          "duration": 0.3316891249999969,
          "durationTicks": 68,
          "midi": 68,
          "name": "G#4",
          "ticks": 26544,
          "time": 129.4758255,
          "velocity": 0.6299212598425197
        },
        {
          "duration": 0.3316891249999969,
          "durationTicks": 68,
          "midi": 68,
          "name": "G#4",
          "ticks": 26622,
          "time": 129.8562924375,
          "velocity": 0.6299212598425197
        },
        {
          "duration": 0.3316891249999969,
          "durationTicks": 68,
          "midi": 65,
          "name": "F4",
          "ticks": 26622,
          "time": 129.8562924375,
          "velocity": 0.6299212598425197
        },
        {
          "duration": 0.3316891249999969,
          "durationTicks": 68,
          "midi": 60,
          "name": "C4",
          "ticks": 26622,
          "time": 129.8562924375,
          "velocity": 0.6299212598425197
        },
        {
          "duration": 0.3316891249999685,
          "durationTicks": 68,
          "midi": 60,
          "name": "C4",
          "ticks": 26688,
          "time": 130.17822600000002,
          "velocity": 0.6299212598425197
        },
        {
          "duration": 0.3316891249999685,
          "durationTicks": 68,
          "midi": 65,
          "name": "F4",
          "ticks": 26688,
          "time": 130.17822600000002,
          "velocity": 0.6299212598425197
        },
        {
          "duration": 0.3316891249999685,
          "durationTicks": 68,
          "midi": 68,
          "name": "G#4",
          "ticks": 26688,
          "time": 130.17822600000002,
          "velocity": 0.6299212598425197
        },
        {
          "duration": 0.3316891249999969,
          "durationTicks": 68,
          "midi": 68,
          "name": "G#4",
          "ticks": 26766,
          "time": 130.5586929375,
          "velocity": 0.6299212598425197
        },
        {
          "duration": 0.3316891249999969,
          "durationTicks": 68,
          "midi": 65,
          "name": "F4",
          "ticks": 26766,
          "time": 130.5586929375,
          "velocity": 0.6299212598425197
        },
        {
          "duration": 0.3316891249999969,
          "durationTicks": 68,
          "midi": 60,
          "name": "C4",
          "ticks": 26766,
          "time": 130.5586929375,
          "velocity": 0.6299212598425197
        },
        {
          "duration": 0.21950015625000674,
          "durationTicks": 45,
          "midi": 70,
          "name": "A#4",
          "ticks": 26832,
          "time": 130.8806265,
          "velocity": 0.6299212598425197
        },
        {
          "duration": 0.3316891249999969,
          "durationTicks": 68,
          "midi": 60,
          "name": "C4",
          "ticks": 26880,
          "time": 131.11476000000002,
          "velocity": 0.6299212598425197
        },
        {
          "duration": 0.3316891249999969,
          "durationTicks": 68,
          "midi": 63,
          "name": "D#4",
          "ticks": 26880,
          "time": 131.11476000000002,
          "velocity": 0.6299212598425197
        },
        {
          "duration": 0.3316891249999969,
          "durationTicks": 68,
          "midi": 68,
          "name": "G#4",
          "ticks": 26880,
          "time": 131.11476000000002,
          "velocity": 0.6299212598425197
        },
        {
          "duration": 0.3316891249999969,
          "durationTicks": 68,
          "midi": 65,
          "name": "F4",
          "ticks": 26958,
          "time": 131.4952269375,
          "velocity": 0.6299212598425197
        },
        {
          "duration": 0.3316891249999969,
          "durationTicks": 68,
          "midi": 60,
          "name": "C4",
          "ticks": 26958,
          "time": 131.4952269375,
          "velocity": 0.6299212598425197
        },
        {
          "duration": 0.10731118750001656,
          "durationTicks": 22,
          "midi": 63,
          "name": "D#4",
          "ticks": 27102,
          "time": 132.19762743750002,
          "velocity": 0.6299212598425197
        },
        {
          "duration": 0.21950015624997832,
          "durationTicks": 45,
          "midi": 65,
          "name": "F4",
          "ticks": 27120,
          "time": 132.28542750000003,
          "velocity": 0.6299212598425197
        },
        {
          "duration": 0.10731118750001656,
          "durationTicks": 22,
          "midi": 58,
          "name": "A#3",
          "ticks": 27198,
          "time": 132.66589443750001,
          "velocity": 0.6299212598425197
        },
        {
          "duration": 0.21950015624997832,
          "durationTicks": 45,
          "midi": 60,
          "name": "C4",
          "ticks": 27216,
          "time": 132.75369450000002,
          "velocity": 0.6299212598425197
        },
        {
          "duration": 0.3316891249999969,
          "durationTicks": 68,
          "midi": 60,
          "name": "C4",
          "ticks": 27312,
          "time": 133.22196150000002,
          "velocity": 0.6299212598425197
        },
        {
          "duration": 0.3316891249999969,
          "durationTicks": 68,
          "midi": 63,
          "name": "D#4",
          "ticks": 27312,
          "time": 133.22196150000002,
          "velocity": 0.6299212598425197
        },
        {
          "duration": 0.3316891249999969,
          "durationTicks": 68,
          "midi": 68,
          "name": "G#4",
          "ticks": 27312,
          "time": 133.22196150000002,
          "velocity": 0.6299212598425197
        },
        {
          "duration": 0.3316891249999969,
          "durationTicks": 68,
          "midi": 68,
          "name": "G#4",
          "ticks": 27390,
          "time": 133.6024284375,
          "velocity": 0.6299212598425197
        },
        {
          "duration": 0.3316891249999969,
          "durationTicks": 68,
          "midi": 63,
          "name": "D#4",
          "ticks": 27390,
          "time": 133.6024284375,
          "velocity": 0.6299212598425197
        },
        {
          "duration": 0.3316891249999969,
          "durationTicks": 68,
          "midi": 60,
          "name": "C4",
          "ticks": 27390,
          "time": 133.6024284375,
          "velocity": 0.6299212598425197
        },
        {
          "duration": 0.3316891249999969,
          "durationTicks": 68,
          "midi": 60,
          "name": "C4",
          "ticks": 27456,
          "time": 133.924362,
          "velocity": 0.6299212598425197
        },
        {
          "duration": 0.3316891249999969,
          "durationTicks": 68,
          "midi": 63,
          "name": "D#4",
          "ticks": 27456,
          "time": 133.924362,
          "velocity": 0.6299212598425197
        },
        {
          "duration": 0.3316891249999969,
          "durationTicks": 68,
          "midi": 68,
          "name": "G#4",
          "ticks": 27456,
          "time": 133.924362,
          "velocity": 0.6299212598425197
        },
        {
          "duration": 0.3316891249999969,
          "durationTicks": 68,
          "midi": 68,
          "name": "G#4",
          "ticks": 27534,
          "time": 134.30482893750002,
          "velocity": 0.6299212598425197
        },
        {
          "duration": 0.3316891249999969,
          "durationTicks": 68,
          "midi": 63,
          "name": "D#4",
          "ticks": 27534,
          "time": 134.30482893750002,
          "velocity": 0.6299212598425197
        },
        {
          "duration": 0.3316891249999969,
          "durationTicks": 68,
          "midi": 60,
          "name": "C4",
          "ticks": 27534,
          "time": 134.30482893750002,
          "velocity": 0.6299212598425197
        },
        {
          "duration": 0.21950015625000674,
          "durationTicks": 45,
          "midi": 70,
          "name": "A#4",
          "ticks": 27600,
          "time": 134.6267625,
          "velocity": 0.6299212598425197
        },
        {
          "duration": 0.3316891249999685,
          "durationTicks": 68,
          "midi": 58,
          "name": "A#3",
          "ticks": 27648,
          "time": 134.86089600000003,
          "velocity": 0.6299212598425197
        },
        {
          "duration": 0.3316891249999685,
          "durationTicks": 68,
          "midi": 62,
          "name": "D4",
          "ticks": 27648,
          "time": 134.86089600000003,
          "velocity": 0.6299212598425197
        },
        {
          "duration": 0.3316891249999685,
          "durationTicks": 68,
          "midi": 65,
          "name": "F4",
          "ticks": 27648,
          "time": 134.86089600000003,
          "velocity": 0.6299212598425197
        },
        {
          "duration": 0.3316891249999969,
          "durationTicks": 68,
          "midi": 68,
          "name": "G#4",
          "ticks": 27726,
          "time": 135.2413629375,
          "velocity": 0.6299212598425197
        },
        {
          "duration": 0.3316891249999969,
          "durationTicks": 68,
          "midi": 65,
          "name": "F4",
          "ticks": 27726,
          "time": 135.2413629375,
          "velocity": 0.6299212598425197
        },
        {
          "duration": 0.3316891249999969,
          "durationTicks": 68,
          "midi": 62,
          "name": "D4",
          "ticks": 27726,
          "time": 135.2413629375,
          "velocity": 0.6299212598425197
        },
        {
          "duration": 0.3316891249999969,
          "durationTicks": 68,
          "midi": 58,
          "name": "A#3",
          "ticks": 27726,
          "time": 135.2413629375,
          "velocity": 0.6299212598425197
        },
        {
          "duration": 0.10731118749998814,
          "durationTicks": 22,
          "midi": 63,
          "name": "D#4",
          "ticks": 27870,
          "time": 135.94376343750002,
          "velocity": 0.6299212598425197
        },
        {
          "duration": 0.21950015625000674,
          "durationTicks": 45,
          "midi": 65,
          "name": "F4",
          "ticks": 27888,
          "time": 136.0315635,
          "velocity": 0.6299212598425197
        },
        {
          "duration": 0.21950015625000674,
          "durationTicks": 45,
          "midi": 65,
          "name": "F4",
          "ticks": 27936,
          "time": 136.26569700000002,
          "velocity": 0.6299212598425197
        },
        {
          "duration": 0.21950015625000674,
          "durationTicks": 45,
          "midi": 65,
          "name": "F4",
          "ticks": 27984,
          "time": 136.4998305,
          "velocity": 0.6299212598425197
        },
        {
          "duration": 0.3316891249999969,
          "durationTicks": 68,
          "midi": 65,
          "name": "F4",
          "ticks": 28032,
          "time": 136.73396400000001,
          "velocity": 0.6299212598425197
        },
        {
          "duration": 0.3316891249999969,
          "durationTicks": 68,
          "midi": 72,
          "name": "C5",
          "ticks": 28032,
          "time": 136.73396400000001,
          "velocity": 0.6299212598425197
        },
        {
          "duration": 0.3316891249999969,
          "durationTicks": 68,
          "midi": 75,
          "name": "D#5",
          "ticks": 28110,
          "time": 137.1144309375,
          "velocity": 0.6299212598425197
        },
        {
          "duration": 0.3316891249999969,
          "durationTicks": 68,
          "midi": 68,
          "name": "G#4",
          "ticks": 28110,
          "time": 137.1144309375,
          "velocity": 0.6299212598425197
        },
        {
          "duration": 0.4438780937499871,
          "durationTicks": 91,
          "midi": 67,
          "name": "G4",
          "ticks": 28176,
          "time": 137.43636450000002,
          "velocity": 0.6299212598425197
        },
        {
          "duration": 0.4438780937499871,
          "durationTicks": 91,
          "midi": 70,
          "name": "A#4",
          "ticks": 28176,
          "time": 137.43636450000002,
          "velocity": 0.6299212598425197
        },
        {
          "duration": 0.4438780937499871,
          "durationTicks": 91,
          "midi": 65,
          "name": "F4",
          "ticks": 28272,
          "time": 137.90463150000002,
          "velocity": 0.6299212598425197
        },
        {
          "duration": 0.4438780937499871,
          "durationTicks": 91,
          "midi": 70,
          "name": "A#4",
          "ticks": 28272,
          "time": 137.90463150000002,
          "velocity": 0.6299212598425197
        },
        {
          "duration": 0.4438780937500155,
          "durationTicks": 91,
          "midi": 65,
          "name": "F4",
          "ticks": 28368,
          "time": 138.37289850000002,
          "velocity": 0.6299212598425197
        },
        {
          "duration": 0.4438780937500155,
          "durationTicks": 91,
          "midi": 68,
          "name": "G#4",
          "ticks": 28368,
          "time": 138.37289850000002,
          "velocity": 0.6299212598425197
        },
        {
          "duration": 1.3316342812499897,
          "durationTicks": 273,
          "midi": 53,
          "name": "F3",
          "ticks": 28464,
          "time": 138.84116550000002,
          "velocity": 0.6299212598425197
        },
        {
          "duration": 1.3316342812499897,
          "durationTicks": 273,
          "midi": 60,
          "name": "C4",
          "ticks": 28464,
          "time": 138.84116550000002,
          "velocity": 0.6299212598425197
        },
        {
          "duration": 1.3316342812499897,
          "durationTicks": 273,
          "midi": 65,
          "name": "F4",
          "ticks": 28464,
          "time": 138.84116550000002,
          "velocity": 0.6299212598425197
        },
        {
          "duration": 1.7755123750000052,
          "durationTicks": 364,
          "midi": 60,
          "name": "C4",
          "ticks": 29184,
          "time": 142.353168,
          "velocity": 0.6299212598425197
        },
        {
          "duration": 0.4438780937500155,
          "durationTicks": 91,
          "midi": 60,
          "name": "C4",
          "ticks": 29568,
          "time": 144.226236,
          "velocity": 0.6299212598425197
        },
        {
          "duration": 0.4438780937500155,
          "durationTicks": 91,
          "midi": 63,
          "name": "D#4",
          "ticks": 29568,
          "time": 144.226236,
          "velocity": 0.6299212598425197
        },
        {
          "duration": 0.21950015624997832,
          "durationTicks": 45,
          "midi": 60,
          "name": "C4",
          "ticks": 29664,
          "time": 144.69450300000003,
          "velocity": 0.6299212598425197
        },
        {
          "duration": 0.4438780937500155,
          "durationTicks": 91,
          "midi": 60,
          "name": "C4",
          "ticks": 29712,
          "time": 144.9286365,
          "velocity": 0.6299212598425197
        },
        {
          "duration": 0.4438780937500155,
          "durationTicks": 91,
          "midi": 63,
          "name": "D#4",
          "ticks": 29712,
          "time": 144.9286365,
          "velocity": 0.6299212598425197
        },
        {
          "duration": 0.21950015625000674,
          "durationTicks": 45,
          "midi": 60,
          "name": "C4",
          "ticks": 29808,
          "time": 145.3969035,
          "velocity": 0.6299212598425197
        },
        {
          "duration": 0.4438780937500155,
          "durationTicks": 91,
          "midi": 60,
          "name": "C4",
          "ticks": 29856,
          "time": 145.63103700000002,
          "velocity": 0.6299212598425197
        },
        {
          "duration": 0.4438780937500155,
          "durationTicks": 91,
          "midi": 63,
          "name": "D#4",
          "ticks": 29856,
          "time": 145.63103700000002,
          "velocity": 0.6299212598425197
        },
        {
          "duration": 1.3316342812499897,
          "durationTicks": 273,
          "midi": 60,
          "name": "C4",
          "ticks": 29952,
          "time": 146.09930400000002,
          "velocity": 0.6299212598425197
        },
        {
          "duration": 1.3316342812499897,
          "durationTicks": 273,
          "midi": 65,
          "name": "F4",
          "ticks": 29952,
          "time": 146.09930400000002,
          "velocity": 0.6299212598425197
        },
        {
          "duration": 0.21950015624997832,
          "durationTicks": 45,
          "midi": 60,
          "name": "C4",
          "ticks": 30288,
          "time": 147.73823850000002,
          "velocity": 0.6299212598425197
        },
        {
          "duration": 0.4438780937500155,
          "durationTicks": 91,
          "midi": 60,
          "name": "C4",
          "ticks": 30336,
          "time": 147.972372,
          "velocity": 0.6299212598425197
        },
        {
          "duration": 0.4438780937500155,
          "durationTicks": 91,
          "midi": 63,
          "name": "D#4",
          "ticks": 30336,
          "time": 147.972372,
          "velocity": 0.6299212598425197
        },
        {
          "duration": 0.21950015625000674,
          "durationTicks": 45,
          "midi": 60,
          "name": "C4",
          "ticks": 30432,
          "time": 148.440639,
          "velocity": 0.6299212598425197
        },
        {
          "duration": 0.4438780937500155,
          "durationTicks": 91,
          "midi": 60,
          "name": "C4",
          "ticks": 30480,
          "time": 148.67477250000002,
          "velocity": 0.6299212598425197
        },
        {
          "duration": 0.4438780937500155,
          "durationTicks": 91,
          "midi": 63,
          "name": "D#4",
          "ticks": 30480,
          "time": 148.67477250000002,
          "velocity": 0.6299212598425197
        },
        {
          "duration": 0.21950015625000674,
          "durationTicks": 45,
          "midi": 60,
          "name": "C4",
          "ticks": 30576,
          "time": 149.14303950000001,
          "velocity": 0.6299212598425197
        },
        {
          "duration": 0.4438780937499871,
          "durationTicks": 91,
          "midi": 60,
          "name": "C4",
          "ticks": 30624,
          "time": 149.37717300000003,
          "velocity": 0.6299212598425197
        },
        {
          "duration": 0.4438780937499871,
          "durationTicks": 91,
          "midi": 63,
          "name": "D#4",
          "ticks": 30624,
          "time": 149.37717300000003,
          "velocity": 0.6299212598425197
        },
        {
          "duration": 0.8877561874999742,
          "durationTicks": 182,
          "midi": 58,
          "name": "A#3",
          "ticks": 30720,
          "time": 149.84544000000002,
          "velocity": 0.6299212598425197
        },
        {
          "duration": 0.8877561874999742,
          "durationTicks": 182,
          "midi": 62,
          "name": "D4",
          "ticks": 30720,
          "time": 149.84544000000002,
          "velocity": 0.6299212598425197
        },
        {
          "duration": 0.8877561874999742,
          "durationTicks": 182,
          "midi": 62,
          "name": "D4",
          "ticks": 30912,
          "time": 150.78197400000002,
          "velocity": 0.6299212598425197
        },
        {
          "duration": 0.8877561874999742,
          "durationTicks": 182,
          "midi": 65,
          "name": "F4",
          "ticks": 30912,
          "time": 150.78197400000002,
          "velocity": 0.6299212598425197
        },
        {
          "duration": 0.4438780937500155,
          "durationTicks": 91,
          "midi": 65,
          "name": "F4",
          "ticks": 31296,
          "time": 152.655042,
          "velocity": 0.6299212598425197
        },
        {
          "duration": 0.4438780937500155,
          "durationTicks": 91,
          "midi": 68,
          "name": "G#4",
          "ticks": 31296,
          "time": 152.655042,
          "velocity": 0.6299212598425197
        },
        {
          "duration": 0.4438780937500155,
          "durationTicks": 91,
          "midi": 65,
          "name": "F4",
          "ticks": 31392,
          "time": 153.123309,
          "velocity": 0.6299212598425197
        },
        {
          "duration": 0.4438780937500155,
          "durationTicks": 91,
          "midi": 68,
          "name": "G#4",
          "ticks": 31392,
          "time": 153.123309,
          "velocity": 0.6299212598425197
        },
        {
          "duration": 0.6633782500000223,
          "durationTicks": 136,
          "midi": 60,
          "name": "C4",
          "ticks": 31488,
          "time": 153.591576,
          "velocity": 0.6299212598425197
        },
        {
          "duration": 0.8877561875000026,
          "durationTicks": 182,
          "midi": 61,
          "name": "C#4",
          "ticks": 31632,
          "time": 154.2939765,
          "velocity": 0.6299212598425197
        },
        {
          "duration": 0.6633782499999938,
          "durationTicks": 136,
          "midi": 61,
          "name": "C#4",
          "ticks": 31872,
          "time": 155.46464400000002,
          "velocity": 0.6299212598425197
        },
        {
          "duration": 0.8877561875000026,
          "durationTicks": 182,
          "midi": 64,
          "name": "E4",
          "ticks": 32016,
          "time": 156.1670445,
          "velocity": 0.6299212598425197
        },
        {
          "duration": 1.7755123750000052,
          "durationTicks": 364,
          "midi": 60,
          "name": "C4",
          "ticks": 32256,
          "time": 157.337712,
          "velocity": 0.6299212598425197
        },
        {
          "duration": 0.4438780937499871,
          "durationTicks": 91,
          "midi": 53,
          "name": "F3",
          "ticks": 32640,
          "time": 159.21078000000003,
          "velocity": 0.6299212598425197
        },
        {
          "duration": 0.4438780937499871,
          "durationTicks": 91,
          "midi": 60,
          "name": "C4",
          "ticks": 32640,
          "time": 159.21078000000003,
          "velocity": 0.6299212598425197
        },
        {
          "duration": 0.4438780937499871,
          "durationTicks": 91,
          "midi": 63,
          "name": "D#4",
          "ticks": 32640,
          "time": 159.21078000000003,
          "velocity": 0.6299212598425197
        },
        {
          "duration": 0.21950015624997832,
          "durationTicks": 45,
          "midi": 60,
          "name": "C4",
          "ticks": 32736,
          "time": 159.67904700000003,
          "velocity": 0.6299212598425197
        },
        {
          "duration": 0.4438780937500155,
          "durationTicks": 91,
          "midi": 53,
          "name": "F3",
          "ticks": 32784,
          "time": 159.9131805,
          "velocity": 0.6299212598425197
        },
        {
          "duration": 0.4438780937500155,
          "durationTicks": 91,
          "midi": 60,
          "name": "C4",
          "ticks": 32784,
          "time": 159.9131805,
          "velocity": 0.6299212598425197
        },
        {
          "duration": 0.4438780937500155,
          "durationTicks": 91,
          "midi": 63,
          "name": "D#4",
          "ticks": 32784,
          "time": 159.9131805,
          "velocity": 0.6299212598425197
        },
        {
          "duration": 0.21950015625000674,
          "durationTicks": 45,
          "midi": 60,
          "name": "C4",
          "ticks": 32880,
          "time": 160.3814475,
          "velocity": 0.6299212598425197
        },
        {
          "duration": 0.4438780937500155,
          "durationTicks": 91,
          "midi": 53,
          "name": "F3",
          "ticks": 32928,
          "time": 160.61558100000002,
          "velocity": 0.6299212598425197
        },
        {
          "duration": 0.4438780937500155,
          "durationTicks": 91,
          "midi": 60,
          "name": "C4",
          "ticks": 32928,
          "time": 160.61558100000002,
          "velocity": 0.6299212598425197
        },
        {
          "duration": 0.4438780937500155,
          "durationTicks": 91,
          "midi": 63,
          "name": "D#4",
          "ticks": 32928,
          "time": 160.61558100000002,
          "velocity": 0.6299212598425197
        },
        {
          "duration": 1.3316342812499897,
          "durationTicks": 273,
          "midi": 60,
          "name": "C4",
          "ticks": 33024,
          "time": 161.08384800000002,
          "velocity": 0.6299212598425197
        },
        {
          "duration": 1.3316342812499897,
          "durationTicks": 273,
          "midi": 65,
          "name": "F4",
          "ticks": 33024,
          "time": 161.08384800000002,
          "velocity": 0.6299212598425197
        },
        {
          "duration": 0.21950015625000674,
          "durationTicks": 45,
          "midi": 60,
          "name": "C4",
          "ticks": 33360,
          "time": 162.72278250000002,
          "velocity": 0.6299212598425197
        },
        {
          "duration": 0.4438780937500155,
          "durationTicks": 91,
          "midi": 56,
          "name": "G#3",
          "ticks": 33408,
          "time": 162.956916,
          "velocity": 0.6299212598425197
        },
        {
          "duration": 0.4438780937500155,
          "durationTicks": 91,
          "midi": 60,
          "name": "C4",
          "ticks": 33408,
          "time": 162.956916,
          "velocity": 0.6299212598425197
        },
        {
          "duration": 0.4438780937500155,
          "durationTicks": 91,
          "midi": 63,
          "name": "D#4",
          "ticks": 33408,
          "time": 162.956916,
          "velocity": 0.6299212598425197
        },
        {
          "duration": 0.21950015625000674,
          "durationTicks": 45,
          "midi": 60,
          "name": "C4",
          "ticks": 33504,
          "time": 163.425183,
          "velocity": 0.6299212598425197
        },
        {
          "duration": 0.4438780937500155,
          "durationTicks": 91,
          "midi": 56,
          "name": "G#3",
          "ticks": 33552,
          "time": 163.65931650000002,
          "velocity": 0.6299212598425197
        },
        {
          "duration": 0.4438780937500155,
          "durationTicks": 91,
          "midi": 60,
          "name": "C4",
          "ticks": 33552,
          "time": 163.65931650000002,
          "velocity": 0.6299212598425197
        },
        {
          "duration": 0.4438780937500155,
          "durationTicks": 91,
          "midi": 63,
          "name": "D#4",
          "ticks": 33552,
          "time": 163.65931650000002,
          "velocity": 0.6299212598425197
        },
        {
          "duration": 0.21950015625000674,
          "durationTicks": 45,
          "midi": 60,
          "name": "C4",
          "ticks": 33648,
          "time": 164.12758350000001,
          "velocity": 0.6299212598425197
        },
        {
          "duration": 0.4438780937499871,
          "durationTicks": 91,
          "midi": 56,
          "name": "G#3",
          "ticks": 33696,
          "time": 164.36171700000003,
          "velocity": 0.6299212598425197
        },
        {
          "duration": 0.4438780937499871,
          "durationTicks": 91,
          "midi": 60,
          "name": "C4",
          "ticks": 33696,
          "time": 164.36171700000003,
          "velocity": 0.6299212598425197
        },
        {
          "duration": 0.4438780937499871,
          "durationTicks": 91,
          "midi": 63,
          "name": "D#4",
          "ticks": 33696,
          "time": 164.36171700000003,
          "velocity": 0.6299212598425197
        },
        {
          "duration": 1.3316342812499897,
          "durationTicks": 273,
          "midi": 58,
          "name": "A#3",
          "ticks": 33792,
          "time": 164.82998400000002,
          "velocity": 0.6299212598425197
        },
        {
          "duration": 1.3316342812499897,
          "durationTicks": 273,
          "midi": 62,
          "name": "D4",
          "ticks": 33792,
          "time": 164.82998400000002,
          "velocity": 0.6299212598425197
        },
        {
          "duration": 1.3316342812499897,
          "durationTicks": 273,
          "midi": 65,
          "name": "F4",
          "ticks": 33792,
          "time": 164.82998400000002,
          "velocity": 0.6299212598425197
        },
        {
          "duration": 0.21950015624997832,
          "durationTicks": 45,
          "midi": 65,
          "name": "F4",
          "ticks": 34128,
          "time": 166.46891850000003,
          "velocity": 0.6299212598425197
        },
        {
          "duration": 0.4438780937500155,
          "durationTicks": 91,
          "midi": 62,
          "name": "D4",
          "ticks": 34176,
          "time": 166.703052,
          "velocity": 0.6299212598425197
        },
        {
          "duration": 0.4438780937500155,
          "durationTicks": 91,
          "midi": 65,
          "name": "F4",
          "ticks": 34176,
          "time": 166.703052,
          "velocity": 0.6299212598425197
        },
        {
          "duration": 0.4438780937500155,
          "durationTicks": 91,
          "midi": 68,
          "name": "G#4",
          "ticks": 34176,
          "time": 166.703052,
          "velocity": 0.6299212598425197
        },
        {
          "duration": 0.21950015625000674,
          "durationTicks": 45,
          "midi": 65,
          "name": "F4",
          "ticks": 34272,
          "time": 167.171319,
          "velocity": 0.6299212598425197
        },
        {
          "duration": 0.4438780937499871,
          "durationTicks": 91,
          "midi": 62,
          "name": "D4",
          "ticks": 34320,
          "time": 167.40545250000002,
          "velocity": 0.6299212598425197
        },
        {
          "duration": 0.4438780937499871,
          "durationTicks": 91,
          "midi": 65,
          "name": "F4",
          "ticks": 34320,
          "time": 167.40545250000002,
          "velocity": 0.6299212598425197
        },
        {
          "duration": 0.4438780937499871,
          "durationTicks": 91,
          "midi": 68,
          "name": "G#4",
          "ticks": 34320,
          "time": 167.40545250000002,
          "velocity": 0.6299212598425197
        },
        {
          "duration": 0.21950015625000674,
          "durationTicks": 45,
          "midi": 65,
          "name": "F4",
          "ticks": 34416,
          "time": 167.87371950000002,
          "velocity": 0.6299212598425197
        },
        {
          "duration": 0.8877561875000026,
          "durationTicks": 182,
          "midi": 62,
          "name": "D4",
          "ticks": 34464,
          "time": 168.107853,
          "velocity": 0.6299212598425197
        },
        {
          "duration": 0.8877561875000026,
          "durationTicks": 182,
          "midi": 65,
          "name": "F4",
          "ticks": 34464,
          "time": 168.107853,
          "velocity": 0.6299212598425197
        },
        {
          "duration": 0.8877561875000026,
          "durationTicks": 182,
          "midi": 68,
          "name": "G#4",
          "ticks": 34464,
          "time": 168.107853,
          "velocity": 0.6299212598425197
        },
        {
          "duration": 1.3316342812499897,
          "durationTicks": 273,
          "midi": 53,
          "name": "F3",
          "ticks": 34656,
          "time": 169.04438700000003,
          "velocity": 0.6299212598425197
        },
        {
          "duration": 1.3316342812499897,
          "durationTicks": 273,
          "midi": 60,
          "name": "C4",
          "ticks": 34656,
          "time": 169.04438700000003,
          "velocity": 0.6299212598425197
        },
        {
          "duration": 1.3316342812499897,
          "durationTicks": 273,
          "midi": 65,
          "name": "F4",
          "ticks": 34656,
          "time": 169.04438700000003,
          "velocity": 0.6299212598425197
        },
        {
          "duration": 0.21950015625000674,
          "durationTicks": 45,
          "midi": 56,
          "name": "G#3",
          "ticks": 35088,
          "time": 171.1515885,
          "velocity": 0.6299212598425197
        },
        {
          "duration": 0.4438780937500155,
          "durationTicks": 91,
          "midi": 56,
          "name": "G#3",
          "ticks": 35136,
          "time": 171.38572200000002,
          "velocity": 0.6299212598425197
        },
        {
          "duration": 0.21950015625000674,
          "durationTicks": 45,
          "midi": 58,
          "name": "A#3",
          "ticks": 35232,
          "time": 171.853989,
          "velocity": 0.6299212598425197
        },
        {
          "duration": 0.8877561874999742,
          "durationTicks": 182,
          "midi": 48,
          "name": "C3",
          "ticks": 35280,
          "time": 172.08812250000003,
          "velocity": 0.6299212598425197
        },
        {
          "duration": 0.8877561874999742,
          "durationTicks": 182,
          "midi": 53,
          "name": "F3",
          "ticks": 35280,
          "time": 172.08812250000003,
          "velocity": 0.6299212598425197
        },
        {
          "duration": 0.21950015625000674,
          "durationTicks": 45,
          "midi": 56,
          "name": "G#3",
          "ticks": 35472,
          "time": 173.02465650000002,
          "velocity": 0.6299212598425197
        },
        {
          "duration": 0.4438780937500155,
          "durationTicks": 91,
          "midi": 56,
          "name": "G#3",
          "ticks": 35520,
          "time": 173.25879,
          "velocity": 0.6299212598425197
        },
        {
          "duration": 0.21950015624997832,
          "durationTicks": 45,
          "midi": 58,
          "name": "A#3",
          "ticks": 35616,
          "time": 173.72705700000003,
          "velocity": 0.6299212598425197
        },
        {
          "duration": 0.4438780937500155,
          "durationTicks": 91,
          "midi": 53,
          "name": "F3",
          "ticks": 35664,
          "time": 173.96119050000001,
          "velocity": 0.6299212598425197
        },
        {
          "duration": 0.4438780937500155,
          "durationTicks": 91,
          "midi": 56,
          "name": "G#3",
          "ticks": 35664,
          "time": 173.96119050000001,
          "velocity": 0.6299212598425197
        },
        {
          "duration": 0.4438780937500155,
          "durationTicks": 91,
          "midi": 60,
          "name": "C4",
          "ticks": 35664,
          "time": 173.96119050000001,
          "velocity": 0.6299212598425197
        },
        {
          "duration": 0.4438780937500155,
          "durationTicks": 91,
          "midi": 63,
          "name": "D#4",
          "ticks": 35760,
          "time": 174.4294575,
          "velocity": 0.6299212598425197
        },
        {
          "duration": 0.4438780937500155,
          "durationTicks": 91,
          "midi": 65,
          "name": "F4",
          "ticks": 35856,
          "time": 174.8977245,
          "velocity": 0.6299212598425197
        },
        {
          "duration": 0.4438780937500155,
          "durationTicks": 91,
          "midi": 68,
          "name": "G#4",
          "ticks": 35952,
          "time": 175.3659915,
          "velocity": 0.6299212598425197
        },
        {
          "duration": 0.06341115625002658,
          "durationTicks": 13,
          "midi": 69,
          "name": "A4",
          "ticks": 36048,
          "time": 175.8342585,
          "velocity": 0.6299212598425197
        },
        {
          "duration": 0.6048448749999693,
          "durationTicks": 124,
          "midi": 65,
          "name": "F4",
          "ticks": 36061,
          "time": 175.89766965625003,
          "velocity": 0.6299212598425197
        },
        {
          "duration": 0.6048448749999693,
          "durationTicks": 124,
          "midi": 70,
          "name": "A#4",
          "ticks": 36061,
          "time": 175.89766965625003,
          "velocity": 0.6299212598425197
        },
        {
          "duration": 0.21950015625000674,
          "durationTicks": 45,
          "midi": 65,
          "name": "F4",
          "ticks": 36192,
          "time": 176.53665900000001,
          "velocity": 0.6299212598425197
        },
        {
          "duration": 0.21950015625000674,
          "durationTicks": 45,
          "midi": 70,
          "name": "A#4",
          "ticks": 36192,
          "time": 176.53665900000001,
          "velocity": 0.6299212598425197
        },
        {
          "duration": 0.4438780937499871,
          "durationTicks": 91,
          "midi": 65,
          "name": "F4",
          "ticks": 36240,
          "time": 176.77079250000003,
          "velocity": 0.6299212598425197
        },
        {
          "duration": 0.4438780937499871,
          "durationTicks": 91,
          "midi": 68,
          "name": "G#4",
          "ticks": 36240,
          "time": 176.77079250000003,
          "velocity": 0.6299212598425197
        },
        {
          "duration": 0.8877561874999742,
          "durationTicks": 182,
          "midi": 58,
          "name": "A#3",
          "ticks": 36336,
          "time": 177.23905950000002,
          "velocity": 0.6299212598425197
        },
        {
          "duration": 0.8877561874999742,
          "durationTicks": 182,
          "midi": 65,
          "name": "F4",
          "ticks": 36336,
          "time": 177.23905950000002,
          "velocity": 0.6299212598425197
        },
        {
          "duration": 0.21950015625000674,
          "durationTicks": 45,
          "midi": 65,
          "name": "F4",
          "ticks": 36624,
          "time": 178.64386050000002,
          "velocity": 0.6299212598425197
        },
        {
          "duration": 0.4438780937499871,
          "durationTicks": 91,
          "midi": 63,
          "name": "D#4",
          "ticks": 36672,
          "time": 178.87799400000003,
          "velocity": 0.6299212598425197
        },
        {
          "duration": 0.21950015624997832,
          "durationTicks": 45,
          "midi": 65,
          "name": "F4",
          "ticks": 36768,
          "time": 179.34626100000003,
          "velocity": 0.6299212598425197
        },
        {
          "duration": 0.4438780937500155,
          "durationTicks": 91,
          "midi": 60,
          "name": "C4",
          "ticks": 36816,
          "time": 179.5803945,
          "velocity": 0.6299212598425197
        },
        {
          "duration": 0.4438780937500155,
          "durationTicks": 91,
          "midi": 68,
          "name": "G#4",
          "ticks": 36816,
          "time": 179.5803945,
          "velocity": 0.6299212598425197
        },
        {
          "duration": 0.4438780937500155,
          "durationTicks": 91,
          "midi": 60,
          "name": "C4",
          "ticks": 36912,
          "time": 180.0486615,
          "velocity": 0.6299212598425197
        },
        {
          "duration": 0.4438780937500155,
          "durationTicks": 91,
          "midi": 68,
          "name": "G#4",
          "ticks": 36912,
          "time": 180.0486615,
          "velocity": 0.6299212598425197
        },
        {
          "duration": 0.21950015625000674,
          "durationTicks": 45,
          "midi": 65,
          "name": "F4",
          "ticks": 37008,
          "time": 180.5169285,
          "velocity": 0.6299212598425197
        },
        {
          "duration": 0.4438780937500155,
          "durationTicks": 91,
          "midi": 63,
          "name": "D#4",
          "ticks": 37056,
          "time": 180.75106200000002,
          "velocity": 0.6299212598425197
        },
        {
          "duration": 0.21950015625000674,
          "durationTicks": 45,
          "midi": 65,
          "name": "F4",
          "ticks": 37152,
          "time": 181.21932900000002,
          "velocity": 0.6299212598425197
        },
        {
          "duration": 0.3316891249999685,
          "durationTicks": 68,
          "midi": 63,
          "name": "D#4",
          "ticks": 37200,
          "time": 181.45346250000003,
          "velocity": 0.6299212598425197
        },
        {
          "duration": 0.3316891249999685,
          "durationTicks": 68,
          "midi": 70,
          "name": "A#4",
          "ticks": 37200,
          "time": 181.45346250000003,
          "velocity": 0.6299212598425197
        },
        {
          "duration": 0.10731118750001656,
          "durationTicks": 22,
          "midi": 70,
          "name": "A#4",
          "ticks": 37278,
          "time": 181.83392943750002,
          "velocity": 0.6299212598425197
        },
        {
          "duration": 0.4438780937499871,
          "durationTicks": 91,
          "midi": 63,
          "name": "D#4",
          "ticks": 37296,
          "time": 181.92172950000003,
          "velocity": 0.6299212598425197
        },
        {
          "duration": 0.4438780937499871,
          "durationTicks": 91,
          "midi": 70,
          "name": "A#4",
          "ticks": 37296,
          "time": 181.92172950000003,
          "velocity": 0.6299212598425197
        },
        {
          "duration": 0.21950015625000674,
          "durationTicks": 45,
          "midi": 65,
          "name": "F4",
          "ticks": 37392,
          "time": 182.38999650000002,
          "velocity": 0.6299212598425197
        },
        {
          "duration": 0.4438780937500155,
          "durationTicks": 91,
          "midi": 63,
          "name": "D#4",
          "ticks": 37440,
          "time": 182.62413,
          "velocity": 0.6299212598425197
        },
        {
          "duration": 0.21950015625000674,
          "durationTicks": 45,
          "midi": 65,
          "name": "F4",
          "ticks": 37536,
          "time": 183.092397,
          "velocity": 0.6299212598425197
        },
        {
          "duration": 0.4438780937500155,
          "durationTicks": 91,
          "midi": 65,
          "name": "F4",
          "ticks": 37584,
          "time": 183.32653050000002,
          "velocity": 0.6299212598425197
        },
        {
          "duration": 0.4438780937500155,
          "durationTicks": 91,
          "midi": 68,
          "name": "G#4",
          "ticks": 37584,
          "time": 183.32653050000002,
          "velocity": 0.6299212598425197
        },
        {
          "duration": 0.4438780937500155,
          "durationTicks": 91,
          "midi": 72,
          "name": "C5",
          "ticks": 37584,
          "time": 183.32653050000002,
          "velocity": 0.6299212598425197
        },
        {
          "duration": 0.4438780937500155,
          "durationTicks": 91,
          "midi": 70,
          "name": "A#4",
          "ticks": 37680,
          "time": 183.79479750000002,
          "velocity": 0.6299212598425197
        },
        {
          "duration": 0.4438780937500155,
          "durationTicks": 91,
          "midi": 75,
          "name": "D#5",
          "ticks": 37680,
          "time": 183.79479750000002,
          "velocity": 0.6299212598425197
        },
        {
          "duration": 0.8877561875000026,
          "durationTicks": 182,
          "midi": 62,
          "name": "D4",
          "ticks": 37776,
          "time": 184.2630645,
          "velocity": 0.6299212598425197
        },
        {
          "duration": 0.8877561875000026,
          "durationTicks": 182,
          "midi": 65,
          "name": "F4",
          "ticks": 37776,
          "time": 184.2630645,
          "velocity": 0.6299212598425197
        },
        {
          "duration": 0.8877561875000026,
          "durationTicks": 182,
          "midi": 70,
          "name": "A#4",
          "ticks": 37776,
          "time": 184.2630645,
          "velocity": 0.6299212598425197
        },
        {
          "duration": 0.8877561874999742,
          "durationTicks": 182,
          "midi": 53,
          "name": "F3",
          "ticks": 38016,
          "time": 185.43373200000002,
          "velocity": 0.6299212598425197
        },
        {
          "duration": 0.8877561874999742,
          "durationTicks": 182,
          "midi": 58,
          "name": "A#3",
          "ticks": 38016,
          "time": 185.43373200000002,
          "velocity": 0.6299212598425197
        },
        {
          "duration": 0.4438780937500155,
          "durationTicks": 91,
          "midi": 55,
          "name": "G3",
          "ticks": 38208,
          "time": 186.37026600000002,
          "velocity": 0.6299212598425197
        },
        {
          "duration": 0.4438780937500155,
          "durationTicks": 91,
          "midi": 60,
          "name": "C4",
          "ticks": 38208,
          "time": 186.37026600000002,
          "velocity": 0.6299212598425197
        },
        {
          "duration": 0.21950015625000674,
          "durationTicks": 45,
          "midi": 65,
          "name": "F4",
          "ticks": 38304,
          "time": 186.838533,
          "velocity": 0.6299212598425197
        },
        {
          "duration": 0.4438780937500155,
          "durationTicks": 91,
          "midi": 65,
          "name": "F4",
          "ticks": 38352,
          "time": 187.07266650000003,
          "velocity": 0.6299212598425197
        },
        {
          "duration": 0.4438780937500155,
          "durationTicks": 91,
          "midi": 72,
          "name": "C5",
          "ticks": 38352,
          "time": 187.07266650000003,
          "velocity": 0.6299212598425197
        },
        {
          "duration": 0.21950015625000674,
          "durationTicks": 45,
          "midi": 68,
          "name": "G#4",
          "ticks": 38448,
          "time": 187.54093350000002,
          "velocity": 0.6299212598425197
        },
        {
          "duration": 0.21950015625000674,
          "durationTicks": 45,
          "midi": 70,
          "name": "A#4",
          "ticks": 38496,
          "time": 187.775067,
          "velocity": 0.6299212598425197
        },
        {
          "duration": 0.21950015625000674,
          "durationTicks": 45,
          "midi": 65,
          "name": "F4",
          "ticks": 38544,
          "time": 188.00920050000002,
          "velocity": 0.6299212598425197
        },
        {
          "duration": 0.4438780937500155,
          "durationTicks": 91,
          "midi": 68,
          "name": "G#4",
          "ticks": 38592,
          "time": 188.243334,
          "velocity": 0.6299212598425197
        },
        {
          "duration": 0.10731118749998814,
          "durationTicks": 22,
          "midi": 63,
          "name": "D#4",
          "ticks": 38688,
          "time": 188.71160100000003,
          "velocity": 0.6299212598425197
        },
        {
          "duration": 0.21950015625000674,
          "durationTicks": 45,
          "midi": 65,
          "name": "F4",
          "ticks": 38718,
          "time": 188.8579344375,
          "velocity": 0.6299212598425197
        },
        {
          "duration": 0.10731118749998814,
          "durationTicks": 22,
          "midi": 58,
          "name": "A#3",
          "ticks": 38784,
          "time": 189.17986800000003,
          "velocity": 0.6299212598425197
        },
        {
          "duration": 0.21950015624997832,
          "durationTicks": 45,
          "midi": 60,
          "name": "C4",
          "ticks": 38814,
          "time": 189.32620143750003,
          "velocity": 0.6299212598425197
        },
        {
          "duration": 0.10731118749998814,
          "durationTicks": 22,
          "midi": 58,
          "name": "A#3",
          "ticks": 38880,
          "time": 189.64813500000002,
          "velocity": 0.6299212598425197
        },
        {
          "duration": 0.10731118749998814,
          "durationTicks": 22,
          "midi": 60,
          "name": "C4",
          "ticks": 38910,
          "time": 189.79446843750003,
          "velocity": 0.6299212598425197
        },
        {
          "duration": 0.10731118750001656,
          "durationTicks": 22,
          "midi": 58,
          "name": "A#3",
          "ticks": 38928,
          "time": 189.8822685,
          "velocity": 0.6299212598425197
        },
        {
          "duration": 0.21950015625000674,
          "durationTicks": 45,
          "midi": 56,
          "name": "G#3",
          "ticks": 38958,
          "time": 190.0286019375,
          "velocity": 0.6299212598425197
        },
        {
          "duration": 0.10731118749998814,
          "durationTicks": 22,
          "midi": 56,
          "name": "G#3",
          "ticks": 39006,
          "time": 190.26273543750003,
          "velocity": 0.6299212598425197
        },
        {
          "duration": 0.10731118750001656,
          "durationTicks": 22,
          "midi": 56,
          "name": "G#3",
          "ticks": 39024,
          "time": 190.3505355,
          "velocity": 0.6299212598425197
        },
        {
          "duration": 0.10731118750001656,
          "durationTicks": 22,
          "midi": 53,
          "name": "F3",
          "ticks": 39054,
          "time": 190.4968689375,
          "velocity": 0.6299212598425197
        },
        {
          "duration": 0.4438780937500155,
          "durationTicks": 91,
          "midi": 63,
          "name": "D#4",
          "ticks": 39120,
          "time": 190.8188025,
          "velocity": 0.6299212598425197
        },
        {
          "duration": 0.4438780937500155,
          "durationTicks": 91,
          "midi": 72,
          "name": "C5",
          "ticks": 39120,
          "time": 190.8188025,
          "velocity": 0.6299212598425197
        },
        {
          "duration": 0.21950015624997832,
          "durationTicks": 45,
          "midi": 68,
          "name": "G#4",
          "ticks": 39216,
          "time": 191.28706950000003,
          "velocity": 0.6299212598425197
        },
        {
          "duration": 0.21950015625000674,
          "durationTicks": 45,
          "midi": 70,
          "name": "A#4",
          "ticks": 39264,
          "time": 191.521203,
          "velocity": 0.6299212598425197
        },
        {
          "duration": 0.21950015624997832,
          "durationTicks": 45,
          "midi": 65,
          "name": "F4",
          "ticks": 39312,
          "time": 191.75533650000003,
          "velocity": 0.6299212598425197
        },
        {
          "duration": 0.4438780937500155,
          "durationTicks": 91,
          "midi": 68,
          "name": "G#4",
          "ticks": 39360,
          "time": 191.98947,
          "velocity": 0.6299212598425197
        },
        {
          "duration": 0.10731118750001656,
          "durationTicks": 22,
          "midi": 63,
          "name": "D#4",
          "ticks": 39456,
          "time": 192.457737,
          "velocity": 0.6299212598425197
        },
        {
          "duration": 0.21950015625000674,
          "durationTicks": 45,
          "midi": 65,
          "name": "F4",
          "ticks": 39486,
          "time": 192.6040704375,
          "velocity": 0.6299212598425197
        },
        {
          "duration": 0.10731118750001656,
          "durationTicks": 22,
          "midi": 58,
          "name": "A#3",
          "ticks": 39552,
          "time": 192.926004,
          "velocity": 0.6299212598425197
        },
        {
          "duration": 0.21950015625000674,
          "durationTicks": 45,
          "midi": 60,
          "name": "C4",
          "ticks": 39582,
          "time": 193.0723374375,
          "velocity": 0.6299212598425197
        },
        {
          "duration": 0.10731118749998814,
          "durationTicks": 22,
          "midi": 53,
          "name": "F3",
          "ticks": 39648,
          "time": 193.39427100000003,
          "velocity": 0.6299212598425197
        },
        {
          "duration": 0.10731118750001656,
          "durationTicks": 22,
          "midi": 56,
          "name": "G#3",
          "ticks": 39678,
          "time": 193.5406044375,
          "velocity": 0.6299212598425197
        },
        {
          "duration": 0.10731118750001656,
          "durationTicks": 22,
          "midi": 58,
          "name": "A#3",
          "ticks": 39696,
          "time": 193.62840450000002,
          "velocity": 0.6299212598425197
        },
        {
          "duration": 0.10731118750001656,
          "durationTicks": 22,
          "midi": 60,
          "name": "C4",
          "ticks": 39726,
          "time": 193.77473793750002,
          "velocity": 0.6299212598425197
        },
        {
          "duration": 0.21950015624997832,
          "durationTicks": 45,
          "midi": 63,
          "name": "D#4",
          "ticks": 39744,
          "time": 193.86253800000003,
          "velocity": 0.6299212598425197
        },
        {
          "duration": 0.10731118750001656,
          "durationTicks": 22,
          "midi": 60,
          "name": "C4",
          "ticks": 39792,
          "time": 194.0966715,
          "velocity": 0.6299212598425197
        },
        {
          "duration": 0.21950015625000674,
          "durationTicks": 45,
          "midi": 65,
          "name": "F4",
          "ticks": 39822,
          "time": 194.24300493750002,
          "velocity": 0.6299212598425197
        },
        {
          "duration": 0.4438780937500155,
          "durationTicks": 91,
          "midi": 62,
          "name": "D4",
          "ticks": 39888,
          "time": 194.5649385,
          "velocity": 0.6299212598425197
        },
        {
          "duration": 0.4438780937500155,
          "durationTicks": 91,
          "midi": 72,
          "name": "C5",
          "ticks": 39888,
          "time": 194.5649385,
          "velocity": 0.6299212598425197
        },
        {
          "duration": 0.21950015625000674,
          "durationTicks": 45,
          "midi": 68,
          "name": "G#4",
          "ticks": 39984,
          "time": 195.0332055,
          "velocity": 0.6299212598425197
        },
        {
          "duration": 0.21950015625000674,
          "durationTicks": 45,
          "midi": 70,
          "name": "A#4",
          "ticks": 40032,
          "time": 195.26733900000002,
          "velocity": 0.6299212598425197
        },
        {
          "duration": 0.21950015625000674,
          "durationTicks": 45,
          "midi": 65,
          "name": "F4",
          "ticks": 40080,
          "time": 195.5014725,
          "velocity": 0.6299212598425197
        },
        {
          "duration": 0.4438780937500155,
          "durationTicks": 91,
          "midi": 68,
          "name": "G#4",
          "ticks": 40128,
          "time": 195.73560600000002,
          "velocity": 0.6299212598425197
        },
        {
          "duration": 0.10731118750001656,
          "durationTicks": 22,
          "midi": 63,
          "name": "D#4",
          "ticks": 40224,
          "time": 196.20387300000002,
          "velocity": 0.6299212598425197
        },
        {
          "duration": 0.21950015625000674,
          "durationTicks": 45,
          "midi": 65,
          "name": "F4",
          "ticks": 40254,
          "time": 196.35020643750002,
          "velocity": 0.6299212598425197
        },
        {
          "duration": 0.10731118750001656,
          "durationTicks": 22,
          "midi": 58,
          "name": "A#3",
          "ticks": 40320,
          "time": 196.67214,
          "velocity": 0.6299212598425197
        },
        {
          "duration": 0.21950015625000674,
          "durationTicks": 45,
          "midi": 60,
          "name": "C4",
          "ticks": 40350,
          "time": 196.81847343750002,
          "velocity": 0.6299212598425197
        },
        {
          "duration": 0.4438780937500155,
          "durationTicks": 91,
          "midi": 55,
          "name": "G3",
          "ticks": 40416,
          "time": 197.140407,
          "velocity": 0.6299212598425197
        },
        {
          "duration": 0.4438780937500155,
          "durationTicks": 91,
          "midi": 58,
          "name": "A#3",
          "ticks": 40416,
          "time": 197.140407,
          "velocity": 0.6299212598425197
        },
        {
          "duration": 0.4438780937500155,
          "durationTicks": 91,
          "midi": 55,
          "name": "G3",
          "ticks": 40512,
          "time": 197.608674,
          "velocity": 0.6299212598425197
        },
        {
          "duration": 0.4438780937500155,
          "durationTicks": 91,
          "midi": 67,
          "name": "G4",
          "ticks": 40608,
          "time": 198.076941,
          "velocity": 0.6299212598425197
        },
        {
          "duration": 0.4438780937500155,
          "durationTicks": 91,
          "midi": 70,
          "name": "A#4",
          "ticks": 40608,
          "time": 198.076941,
          "velocity": 0.6299212598425197
        },
        {
          "duration": 0.4438780937499871,
          "durationTicks": 91,
          "midi": 58,
          "name": "A#3",
          "ticks": 40704,
          "time": 198.54520800000003,
          "velocity": 0.6299212598425197
        },
        {
          "duration": 0.4438780937499871,
          "durationTicks": 91,
          "midi": 67,
          "name": "G4",
          "ticks": 40704,
          "time": 198.54520800000003,
          "velocity": 0.6299212598425197
        },
        {
          "duration": 0.4438780937499871,
          "durationTicks": 91,
          "midi": 58,
          "name": "A#3",
          "ticks": 40800,
          "time": 199.01347500000003,
          "velocity": 0.6299212598425197
        },
        {
          "duration": 0.4438780937500155,
          "durationTicks": 91,
          "midi": 60,
          "name": "C4",
          "ticks": 40896,
          "time": 199.48174200000003,
          "velocity": 0.6299212598425197
        },
        {
          "duration": 0.4438780937500155,
          "durationTicks": 91,
          "midi": 65,
          "name": "F4",
          "ticks": 40992,
          "time": 199.95000900000002,
          "velocity": 0.6299212598425197
        },
        {
          "duration": 0.8877561875000026,
          "durationTicks": 182,
          "midi": 60,
          "name": "C4",
          "ticks": 41088,
          "time": 200.41827600000002,
          "velocity": 0.6299212598425197
        },
        {
          "duration": 0.8877561875000026,
          "durationTicks": 182,
          "midi": 63,
          "name": "D#4",
          "ticks": 41088,
          "time": 200.41827600000002,
          "velocity": 0.6299212598425197
        },
        {
          "duration": 0.4438780937500155,
          "durationTicks": 91,
          "midi": 60,
          "name": "C4",
          "ticks": 41280,
          "time": 201.35481000000001,
          "velocity": 0.6299212598425197
        },
        {
          "duration": 0.4438780937500155,
          "durationTicks": 91,
          "midi": 64,
          "name": "E4",
          "ticks": 41280,
          "time": 201.35481000000001,
          "velocity": 0.6299212598425197
        },
        {
          "duration": 0.21950015625000674,
          "durationTicks": 45,
          "midi": 65,
          "name": "F4",
          "ticks": 41376,
          "time": 201.823077,
          "velocity": 0.6299212598425197
        },
        {
          "duration": 0.4438780937500155,
          "durationTicks": 91,
          "midi": 60,
          "name": "C4",
          "ticks": 41424,
          "time": 202.05721050000002,
          "velocity": 0.6299212598425197
        },
        {
          "duration": 0.4438780937500155,
          "durationTicks": 91,
          "midi": 65,
          "name": "F4",
          "ticks": 41424,
          "time": 202.05721050000002,
          "velocity": 0.6299212598425197
        },
        {
          "duration": 0.4438780937500155,
          "durationTicks": 91,
          "midi": 72,
          "name": "C5",
          "ticks": 41424,
          "time": 202.05721050000002,
          "velocity": 0.6299212598425197
        },
        {
          "duration": 0.21950015625000674,
          "durationTicks": 45,
          "midi": 68,
          "name": "G#4",
          "ticks": 41520,
          "time": 202.52547750000002,
          "velocity": 0.6299212598425197
        },
        {
          "duration": 0.21950015625000674,
          "durationTicks": 45,
          "midi": 70,
          "name": "A#4",
          "ticks": 41568,
          "time": 202.759611,
          "velocity": 0.6299212598425197
        },
        {
          "duration": 0.21950015625000674,
          "durationTicks": 45,
          "midi": 65,
          "name": "F4",
          "ticks": 41616,
          "time": 202.99374450000002,
          "velocity": 0.6299212598425197
        },
        {
          "duration": 0.4438780937499871,
          "durationTicks": 91,
          "midi": 68,
          "name": "G#4",
          "ticks": 41664,
          "time": 203.22787800000003,
          "velocity": 0.6299212598425197
        },
        {
          "duration": 0.10731118749998814,
          "durationTicks": 22,
          "midi": 63,
          "name": "D#4",
          "ticks": 41760,
          "time": 203.69614500000003,
          "velocity": 0.6299212598425197
        },
        {
          "duration": 0.21950015625000674,
          "durationTicks": 45,
          "midi": 65,
          "name": "F4",
          "ticks": 41790,
          "time": 203.8424784375,
          "velocity": 0.6299212598425197
        },
        {
          "duration": 0.10731118749998814,
          "durationTicks": 22,
          "midi": 58,
          "name": "A#3",
          "ticks": 41856,
          "time": 204.16441200000003,
          "velocity": 0.6299212598425197
        },
        {
          "duration": 0.21950015624997832,
          "durationTicks": 45,
          "midi": 60,
          "name": "C4",
          "ticks": 41886,
          "time": 204.31074543750003,
          "velocity": 0.6299212598425197
        },
        {
          "duration": 0.10731118750001656,
          "durationTicks": 22,
          "midi": 58,
          "name": "A#3",
          "ticks": 41952,
          "time": 204.63267900000002,
          "velocity": 0.6299212598425197
        },
        {
          "duration": 0.10731118749998814,
          "durationTicks": 22,
          "midi": 60,
          "name": "C4",
          "ticks": 41982,
          "time": 204.77901243750003,
          "velocity": 0.6299212598425197
        },
        {
          "duration": 0.10731118750001656,
          "durationTicks": 22,
          "midi": 58,
          "name": "A#3",
          "ticks": 42000,
          "time": 204.8668125,
          "velocity": 0.6299212598425197
        },
        {
          "duration": 0.21950015625000674,
          "durationTicks": 45,
          "midi": 56,
          "name": "G#3",
          "ticks": 42030,
          "time": 205.0131459375,
          "velocity": 0.6299212598425197
        },
        {
          "duration": 0.10731118749998814,
          "durationTicks": 22,
          "midi": 56,
          "name": "G#3",
          "ticks": 42078,
          "time": 205.24727943750003,
          "velocity": 0.6299212598425197
        },
        {
          "duration": 0.10731118750001656,
          "durationTicks": 22,
          "midi": 56,
          "name": "G#3",
          "ticks": 42096,
          "time": 205.3350795,
          "velocity": 0.6299212598425197
        },
        {
          "duration": 0.10731118750001656,
          "durationTicks": 22,
          "midi": 53,
          "name": "F3",
          "ticks": 42126,
          "time": 205.4814129375,
          "velocity": 0.6299212598425197
        },
        {
          "duration": 0.4438780937499871,
          "durationTicks": 91,
          "midi": 60,
          "name": "C4",
          "ticks": 42192,
          "time": 205.80334650000003,
          "velocity": 0.6299212598425197
        },
        {
          "duration": 0.4438780937499871,
          "durationTicks": 91,
          "midi": 65,
          "name": "F4",
          "ticks": 42192,
          "time": 205.80334650000003,
          "velocity": 0.6299212598425197
        },
        {
          "duration": 0.4438780937499871,
          "durationTicks": 91,
          "midi": 68,
          "name": "G#4",
          "ticks": 42192,
          "time": 205.80334650000003,
          "velocity": 0.6299212598425197
        },
        {
          "duration": 0.4438780937499871,
          "durationTicks": 91,
          "midi": 72,
          "name": "C5",
          "ticks": 42192,
          "time": 205.80334650000003,
          "velocity": 0.6299212598425197
        },
        {
          "duration": 0.21950015624997832,
          "durationTicks": 45,
          "midi": 75,
          "name": "D#5",
          "ticks": 42288,
          "time": 206.27161350000003,
          "velocity": 0.6299212598425197
        },
        {
          "duration": 0.21950015625000674,
          "durationTicks": 45,
          "midi": 70,
          "name": "A#4",
          "ticks": 42336,
          "time": 206.505747,
          "velocity": 0.6299212598425197
        },
        {
          "duration": 0.21950015625000674,
          "durationTicks": 45,
          "midi": 65,
          "name": "F4",
          "ticks": 42384,
          "time": 206.73988050000003,
          "velocity": 0.6299212598425197
        },
        {
          "duration": 0.4438780937500155,
          "durationTicks": 91,
          "midi": 68,
          "name": "G#4",
          "ticks": 42432,
          "time": 206.974014,
          "velocity": 0.6299212598425197
        },
        {
          "duration": 0.10731118750001656,
          "durationTicks": 22,
          "midi": 63,
          "name": "D#4",
          "ticks": 42528,
          "time": 207.442281,
          "velocity": 0.6299212598425197
        },
        {
          "duration": 0.21950015625000674,
          "durationTicks": 45,
          "midi": 65,
          "name": "F4",
          "ticks": 42558,
          "time": 207.5886144375,
          "velocity": 0.6299212598425197
        },
        {
          "duration": 0.10731118750001656,
          "durationTicks": 22,
          "midi": 58,
          "name": "A#3",
          "ticks": 42624,
          "time": 207.910548,
          "velocity": 0.6299212598425197
        },
        {
          "duration": 0.21950015625000674,
          "durationTicks": 45,
          "midi": 60,
          "name": "C4",
          "ticks": 42654,
          "time": 208.0568814375,
          "velocity": 0.6299212598425197
        },
        {
          "duration": 0.10731118749998814,
          "durationTicks": 22,
          "midi": 53,
          "name": "F3",
          "ticks": 42720,
          "time": 208.37881500000003,
          "velocity": 0.6299212598425197
        },
        {
          "duration": 0.10731118750001656,
          "durationTicks": 22,
          "midi": 56,
          "name": "G#3",
          "ticks": 42750,
          "time": 208.5251484375,
          "velocity": 0.6299212598425197
        },
        {
          "duration": 0.10731118750001656,
          "durationTicks": 22,
          "midi": 58,
          "name": "A#3",
          "ticks": 42768,
          "time": 208.61294850000002,
          "velocity": 0.6299212598425197
        },
        {
          "duration": 0.10731118750001656,
          "durationTicks": 22,
          "midi": 60,
          "name": "C4",
          "ticks": 42798,
          "time": 208.75928193750002,
          "velocity": 0.6299212598425197
        },
        {
          "duration": 0.21950015624997832,
          "durationTicks": 45,
          "midi": 63,
          "name": "D#4",
          "ticks": 42816,
          "time": 208.84708200000003,
          "velocity": 0.6299212598425197
        },
        {
          "duration": 0.10731118750001656,
          "durationTicks": 22,
          "midi": 60,
          "name": "C4",
          "ticks": 42864,
          "time": 209.0812155,
          "velocity": 0.6299212598425197
        },
        {
          "duration": 0.21950015625000674,
          "durationTicks": 45,
          "midi": 65,
          "name": "F4",
          "ticks": 42894,
          "time": 209.22754893750002,
          "velocity": 0.6299212598425197
        },
        {
          "duration": 0.4438780937500155,
          "durationTicks": 91,
          "midi": 62,
          "name": "D4",
          "ticks": 42960,
          "time": 209.5494825,
          "velocity": 0.6299212598425197
        },
        {
          "duration": 0.4438780937500155,
          "durationTicks": 91,
          "midi": 65,
          "name": "F4",
          "ticks": 42960,
          "time": 209.5494825,
          "velocity": 0.6299212598425197
        },
        {
          "duration": 0.4438780937500155,
          "durationTicks": 91,
          "midi": 68,
          "name": "G#4",
          "ticks": 42960,
          "time": 209.5494825,
          "velocity": 0.6299212598425197
        },
        {
          "duration": 0.4438780937500155,
          "durationTicks": 91,
          "midi": 72,
          "name": "C5",
          "ticks": 42960,
          "time": 209.5494825,
          "velocity": 0.6299212598425197
        },
        {
          "duration": 0.21950015625000674,
          "durationTicks": 45,
          "midi": 68,
          "name": "G#4",
          "ticks": 43056,
          "time": 210.0177495,
          "velocity": 0.6299212598425197
        },
        {
          "duration": 0.21950015625000674,
          "durationTicks": 45,
          "midi": 70,
          "name": "A#4",
          "ticks": 43104,
          "time": 210.25188300000002,
          "velocity": 0.6299212598425197
        },
        {
          "duration": 0.21950015624997832,
          "durationTicks": 45,
          "midi": 65,
          "name": "F4",
          "ticks": 43152,
          "time": 210.48601650000003,
          "velocity": 0.6299212598425197
        },
        {
          "duration": 0.4438780937500155,
          "durationTicks": 91,
          "midi": 68,
          "name": "G#4",
          "ticks": 43200,
          "time": 210.72015000000002,
          "velocity": 0.6299212598425197
        },
        {
          "duration": 0.10731118750001656,
          "durationTicks": 22,
          "midi": 63,
          "name": "D#4",
          "ticks": 43296,
          "time": 211.18841700000002,
          "velocity": 0.6299212598425197
        },
        {
          "duration": 0.21950015625000674,
          "durationTicks": 45,
          "midi": 65,
          "name": "F4",
          "ticks": 43326,
          "time": 211.33475043750002,
          "velocity": 0.6299212598425197
        },
        {
          "duration": 0.10731118750001656,
          "durationTicks": 22,
          "midi": 58,
          "name": "A#3",
          "ticks": 43392,
          "time": 211.656684,
          "velocity": 0.6299212598425197
        },
        {
          "duration": 0.21950015625000674,
          "durationTicks": 45,
          "midi": 60,
          "name": "C4",
          "ticks": 43422,
          "time": 211.80301743750002,
          "velocity": 0.6299212598425197
        },
        {
          "duration": 0.4438780937500155,
          "durationTicks": 91,
          "midi": 55,
          "name": "G3",
          "ticks": 43488,
          "time": 212.124951,
          "velocity": 0.6299212598425197
        },
        {
          "duration": 0.4438780937500155,
          "durationTicks": 91,
          "midi": 58,
          "name": "A#3",
          "ticks": 43488,
          "time": 212.124951,
          "velocity": 0.6299212598425197
        },
        {
          "duration": 0.4438780937500155,
          "durationTicks": 91,
          "midi": 55,
          "name": "G3",
          "ticks": 43584,
          "time": 212.593218,
          "velocity": 0.6299212598425197
        },
        {
          "duration": 0.4438780937499871,
          "durationTicks": 91,
          "midi": 65,
          "name": "F4",
          "ticks": 43680,
          "time": 213.06148500000003,
          "velocity": 0.6299212598425197
        },
        {
          "duration": 0.4438780937499871,
          "durationTicks": 91,
          "midi": 70,
          "name": "A#4",
          "ticks": 43680,
          "time": 213.06148500000003,
          "velocity": 0.6299212598425197
        },
        {
          "duration": 0.4438780937499871,
          "durationTicks": 91,
          "midi": 59,
          "name": "B3",
          "ticks": 43776,
          "time": 213.52975200000003,
          "velocity": 0.6299212598425197
        },
        {
          "duration": 0.4438780937499871,
          "durationTicks": 91,
          "midi": 67,
          "name": "G4",
          "ticks": 43776,
          "time": 213.52975200000003,
          "velocity": 0.6299212598425197
        },
        {
          "duration": 0.4438780937500155,
          "durationTicks": 91,
          "midi": 58,
          "name": "A#3",
          "ticks": 43872,
          "time": 213.99801900000003,
          "velocity": 0.6299212598425197
        },
        {
          "duration": 0.4438780937500155,
          "durationTicks": 91,
          "midi": 60,
          "name": "C4",
          "ticks": 43968,
          "time": 214.46628600000003,
          "velocity": 0.6299212598425197
        },
        {
          "duration": 0.4438780937500155,
          "durationTicks": 91,
          "midi": 63,
          "name": "D#4",
          "ticks": 44064,
          "time": 214.93455300000002,
          "velocity": 0.6299212598425197
        },
        {
          "duration": 1.7755123750000052,
          "durationTicks": 364,
          "midi": 64,
          "name": "E4",
          "ticks": 44160,
          "time": 215.40282000000002,
          "velocity": 0.6299212598425197
        },
        {
          "duration": 0.10731118750001656,
          "durationTicks": 22,
          "midi": 65,
          "name": "F4",
          "ticks": 44544,
          "time": 217.275888,
          "velocity": 0.6299212598425197
        },
        {
          "duration": 0.10731118750001656,
          "durationTicks": 22,
          "midi": 65,
          "name": "F4",
          "ticks": 44574,
          "time": 217.4222214375,
          "velocity": 0.6299212598425197
        },
        {
          "duration": 0.21950015625000674,
          "durationTicks": 45,
          "midi": 65,
          "name": "F4",
          "ticks": 44592,
          "time": 217.51002150000002,
          "velocity": 0.6299212598425197
        },
        {
          "duration": 0.21950015624997832,
          "durationTicks": 45,
          "midi": 64,
          "name": "E4",
          "ticks": 44640,
          "time": 217.74415500000003,
          "velocity": 0.6299212598425197
        },
        {
          "duration": 0.21950015625000674,
          "durationTicks": 45,
          "midi": 64,
          "name": "E4",
          "ticks": 44688,
          "time": 217.97828850000002,
          "velocity": 0.6299212598425197
        },
        {
          "duration": 0.21950015624997832,
          "durationTicks": 45,
          "midi": 63,
          "name": "D#4",
          "ticks": 44736,
          "time": 218.21242200000003,
          "velocity": 0.6299212598425197
        },
        {
          "duration": 0.21950015625000674,
          "durationTicks": 45,
          "midi": 63,
          "name": "D#4",
          "ticks": 44784,
          "time": 218.44655550000002,
          "velocity": 0.6299212598425197
        },
        {
          "duration": 0.21950015624997832,
          "durationTicks": 45,
          "midi": 62,
          "name": "D4",
          "ticks": 44832,
          "time": 218.68068900000003,
          "velocity": 0.6299212598425197
        },
        {
          "duration": 0.21950015625000674,
          "durationTicks": 45,
          "midi": 61,
          "name": "C#4",
          "ticks": 44880,
          "time": 218.9148225,
          "velocity": 0.6299212598425197
        },
        {
          "duration": 0.10731118750001656,
          "durationTicks": 22,
          "midi": 60,
          "name": "C4",
          "ticks": 44928,
          "time": 219.14895600000003,
          "velocity": 0.6299212598425197
        },
        {
          "duration": 0.10731118749998814,
          "durationTicks": 22,
          "midi": 60,
          "name": "C4",
          "ticks": 44958,
          "time": 219.29528943750003,
          "velocity": 0.6299212598425197
        },
        {
          "duration": 0.21950015625000674,
          "durationTicks": 45,
          "midi": 60,
          "name": "C4",
          "ticks": 44976,
          "time": 219.3830895,
          "velocity": 0.6299212598425197
        },
        {
          "duration": 0.21950015625000674,
          "durationTicks": 45,
          "midi": 59,
          "name": "B3",
          "ticks": 45024,
          "time": 219.61722300000002,
          "velocity": 0.6299212598425197
        },
        {
          "duration": 0.21950015625000674,
          "durationTicks": 45,
          "midi": 59,
          "name": "B3",
          "ticks": 45072,
          "time": 219.8513565,
          "velocity": 0.6299212598425197
        },
        {
          "duration": 0.21950015625000674,
          "durationTicks": 45,
          "midi": 58,
          "name": "A#3",
          "ticks": 45120,
          "time": 220.08549000000002,
          "velocity": 0.6299212598425197
        },
        {
          "duration": 0.21950015624997832,
          "durationTicks": 45,
          "midi": 58,
          "name": "A#3",
          "ticks": 45168,
          "time": 220.31962350000003,
          "velocity": 0.6299212598425197
        },
        {
          "duration": 0.21950015625000674,
          "durationTicks": 45,
          "midi": 56,
          "name": "G#3",
          "ticks": 45216,
          "time": 220.55375700000002,
          "velocity": 0.6299212598425197
        },
        {
          "duration": 0.21950015624997832,
          "durationTicks": 45,
          "midi": 53,
          "name": "F3",
          "ticks": 45264,
          "time": 220.78789050000003,
          "velocity": 0.6299212598425197
        },
        {
          "duration": 0.10731118750001656,
          "durationTicks": 22,
          "midi": 65,
          "name": "F4",
          "ticks": 45312,
          "time": 221.02202400000002,
          "velocity": 0.6299212598425197
        },
        {
          "duration": 0.10731118750001656,
          "durationTicks": 22,
          "midi": 65,
          "name": "F4",
          "ticks": 45342,
          "time": 221.16835743750002,
          "velocity": 0.6299212598425197
        },
        {
          "duration": 0.21950015624997832,
          "durationTicks": 45,
          "midi": 65,
          "name": "F4",
          "ticks": 45360,
          "time": 221.25615750000003,
          "velocity": 0.6299212598425197
        },
        {
          "duration": 0.21950015625000674,
          "durationTicks": 45,
          "midi": 64,
          "name": "E4",
          "ticks": 45408,
          "time": 221.490291,
          "velocity": 0.6299212598425197
        },
        {
          "duration": 0.21950015625000674,
          "durationTicks": 45,
          "midi": 64,
          "name": "E4",
          "ticks": 45456,
          "time": 221.72442450000003,
          "velocity": 0.6299212598425197
        },
        {
          "duration": 0.21950015625000674,
          "durationTicks": 45,
          "midi": 63,
          "name": "D#4",
          "ticks": 45504,
          "time": 221.958558,
          "velocity": 0.6299212598425197
        },
        {
          "duration": 0.21950015625000674,
          "durationTicks": 45,
          "midi": 63,
          "name": "D#4",
          "ticks": 45552,
          "time": 222.19269150000002,
          "velocity": 0.6299212598425197
        },
        {
          "duration": 0.21950015625000674,
          "durationTicks": 45,
          "midi": 62,
          "name": "D4",
          "ticks": 45600,
          "time": 222.426825,
          "velocity": 0.6299212598425197
        },
        {
          "duration": 0.21950015625000674,
          "durationTicks": 45,
          "midi": 61,
          "name": "C#4",
          "ticks": 45648,
          "time": 222.66095850000002,
          "velocity": 0.6299212598425197
        },
        {
          "duration": 0.10731118749998814,
          "durationTicks": 22,
          "midi": 60,
          "name": "C4",
          "ticks": 45696,
          "time": 222.89509200000003,
          "velocity": 0.6299212598425197
        },
        {
          "duration": 0.10731118750001656,
          "durationTicks": 22,
          "midi": 60,
          "name": "C4",
          "ticks": 45726,
          "time": 223.0414254375,
          "velocity": 0.6299212598425197
        },
        {
          "duration": 0.21950015625000674,
          "durationTicks": 45,
          "midi": 60,
          "name": "C4",
          "ticks": 45744,
          "time": 223.12922550000002,
          "velocity": 0.6299212598425197
        },
        {
          "duration": 0.21950015624997832,
          "durationTicks": 45,
          "midi": 59,
          "name": "B3",
          "ticks": 45792,
          "time": 223.36335900000003,
          "velocity": 0.6299212598425197
        },
        {
          "duration": 0.21950015625000674,
          "durationTicks": 45,
          "midi": 59,
          "name": "B3",
          "ticks": 45840,
          "time": 223.59749250000002,
          "velocity": 0.6299212598425197
        },
        {
          "duration": 0.21950015625000674,
          "durationTicks": 45,
          "midi": 58,
          "name": "A#3",
          "ticks": 45888,
          "time": 223.83162600000003,
          "velocity": 0.6299212598425197
        },
        {
          "duration": 0.21950015625000674,
          "durationTicks": 45,
          "midi": 58,
          "name": "A#3",
          "ticks": 45936,
          "time": 224.0657595,
          "velocity": 0.6299212598425197
        },
        {
          "duration": 0.21950015625000674,
          "durationTicks": 45,
          "midi": 56,
          "name": "G#3",
          "ticks": 45984,
          "time": 224.29989300000003,
          "velocity": 0.6299212598425197
        },
        {
          "duration": 0.21950015625000674,
          "durationTicks": 45,
          "midi": 53,
          "name": "F3",
          "ticks": 46032,
          "time": 224.5340265,
          "velocity": 0.6299212598425197
        },
        {
          "duration": 0.06341115624999816,
          "durationTicks": 13,
          "midi": 63,
          "name": "D#4",
          "ticks": 46080,
          "time": 224.76816000000002,
          "velocity": 0.6299212598425197
        },
        {
          "duration": 1.712101218750007,
          "durationTicks": 351,
          "midi": 65,
          "name": "F4",
          "ticks": 46093,
          "time": 224.83157115625002,
          "velocity": 0.6299212598425197
        },
        {
          "duration": 0.06341115625002658,
          "durationTicks": 13,
          "midi": 63,
          "name": "D#4",
          "ticks": 46464,
          "time": 226.641228,
          "velocity": 0.6299212598425197
        },
        {
          "duration": 0.26827796874997034,
          "durationTicks": 55,
          "midi": 65,
          "name": "F4",
          "ticks": 46477,
          "time": 226.70463915625004,
          "velocity": 0.6299212598425197
        },
        {
          "duration": 0.06341115624999816,
          "durationTicks": 13,
          "midi": 63,
          "name": "D#4",
          "ticks": 46542,
          "time": 227.02169493750003,
          "velocity": 0.6299212598425197
        },
        {
          "duration": 0.26827796874997034,
          "durationTicks": 55,
          "midi": 65,
          "name": "F4",
          "ticks": 46549,
          "time": 227.05583940625004,
          "velocity": 0.6299212598425197
        },
        {
          "duration": 0.06341115624999816,
          "durationTicks": 13,
          "midi": 63,
          "name": "D#4",
          "ticks": 46608,
          "time": 227.34362850000002,
          "velocity": 0.6299212598425197
        },
        {
          "duration": 0.26827796874999876,
          "durationTicks": 55,
          "midi": 65,
          "name": "F4",
          "ticks": 46621,
          "time": 227.40703965625002,
          "velocity": 0.6299212598425197
        },
        {
          "duration": 0.06341115625002658,
          "durationTicks": 13,
          "midi": 63,
          "name": "D#4",
          "ticks": 46686,
          "time": 227.7240954375,
          "velocity": 0.6299212598425197
        },
        {
          "duration": 0.26827796874999876,
          "durationTicks": 55,
          "midi": 65,
          "name": "F4",
          "ticks": 46693,
          "time": 227.75823990625003,
          "velocity": 0.6299212598425197
        },
        {
          "duration": 0.06341115624999816,
          "durationTicks": 13,
          "midi": 63,
          "name": "D#4",
          "ticks": 46752,
          "time": 228.04602900000003,
          "velocity": 0.6299212598425197
        },
        {
          "duration": 0.38046693749998894,
          "durationTicks": 78,
          "midi": 65,
          "name": "F4",
          "ticks": 46765,
          "time": 228.10944015625003,
          "velocity": 0.6299212598425197
        },
        {
          "duration": 0.8877561874999742,
          "durationTicks": 182,
          "midi": 68,
          "name": "G#4",
          "ticks": 46848,
          "time": 228.51429600000003,
          "velocity": 0.6299212598425197
        },
        {
          "duration": 0.3316891249999685,
          "durationTicks": 68,
          "midi": 65,
          "name": "F4",
          "ticks": 47280,
          "time": 230.62149750000003,
          "velocity": 0.6299212598425197
        },
        {
          "duration": 0.3316891249999685,
          "durationTicks": 68,
          "midi": 70,
          "name": "A#4",
          "ticks": 47280,
          "time": 230.62149750000003,
          "velocity": 0.6299212598425197
        },
        {
          "duration": 0.3316891249999969,
          "durationTicks": 68,
          "midi": 68,
          "name": "G#4",
          "ticks": 47358,
          "time": 231.00196443750002,
          "velocity": 0.6299212598425197
        },
        {
          "duration": 0.3316891249999969,
          "durationTicks": 68,
          "midi": 65,
          "name": "F4",
          "ticks": 47424,
          "time": 231.323898,
          "velocity": 0.6299212598425197
        },
        {
          "duration": 0.3316891249999969,
          "durationTicks": 68,
          "midi": 70,
          "name": "A#4",
          "ticks": 47424,
          "time": 231.323898,
          "velocity": 0.6299212598425197
        },
        {
          "duration": 0.3316891249999685,
          "durationTicks": 68,
          "midi": 68,
          "name": "G#4",
          "ticks": 47502,
          "time": 231.70436493750003,
          "velocity": 0.6299212598425197
        },
        {
          "duration": 0.21950015625000674,
          "durationTicks": 45,
          "midi": 65,
          "name": "F4",
          "ticks": 47568,
          "time": 232.02629850000002,
          "velocity": 0.6299212598425197
        },
        {
          "duration": 0.21950015625000674,
          "durationTicks": 45,
          "midi": 70,
          "name": "A#4",
          "ticks": 47568,
          "time": 232.02629850000002,
          "velocity": 0.6299212598425197
        },
        {
          "duration": 0.3316891249999969,
          "durationTicks": 68,
          "midi": 60,
          "name": "C4",
          "ticks": 47616,
          "time": 232.260432,
          "velocity": 0.6299212598425197
        },
        {
          "duration": 0.3316891249999969,
          "durationTicks": 68,
          "midi": 65,
          "name": "F4",
          "ticks": 47616,
          "time": 232.260432,
          "velocity": 0.6299212598425197
        },
        {
          "duration": 0.3316891249999969,
          "durationTicks": 68,
          "midi": 68,
          "name": "G#4",
          "ticks": 47694,
          "time": 232.64089893750003,
          "velocity": 0.6299212598425197
        },
        {
          "duration": 0.3316891249999969,
          "durationTicks": 68,
          "midi": 65,
          "name": "F4",
          "ticks": 47694,
          "time": 232.64089893750003,
          "velocity": 0.6299212598425197
        },
        {
          "duration": 0.10731118749998814,
          "durationTicks": 22,
          "midi": 63,
          "name": "D#4",
          "ticks": 47838,
          "time": 233.34329943750004,
          "velocity": 0.6299212598425197
        },
        {
          "duration": 0.21950015625000674,
          "durationTicks": 45,
          "midi": 65,
          "name": "F4",
          "ticks": 47856,
          "time": 233.43109950000002,
          "velocity": 0.6299212598425197
        },
        {
          "duration": 0.10731118749998814,
          "durationTicks": 22,
          "midi": 58,
          "name": "A#3",
          "ticks": 47934,
          "time": 233.81156643750003,
          "velocity": 0.6299212598425197
        },
        {
          "duration": 0.21950015625000674,
          "durationTicks": 45,
          "midi": 60,
          "name": "C4",
          "ticks": 47952,
          "time": 233.8993665,
          "velocity": 0.6299212598425197
        },
        {
          "duration": 0.3316891249999969,
          "durationTicks": 68,
          "midi": 65,
          "name": "F4",
          "ticks": 48048,
          "time": 234.3676335,
          "velocity": 0.6299212598425197
        },
        {
          "duration": 0.3316891249999969,
          "durationTicks": 68,
          "midi": 68,
          "name": "G#4",
          "ticks": 48048,
          "time": 234.3676335,
          "velocity": 0.6299212598425197
        },
        {
          "duration": 0.3316891249999969,
          "durationTicks": 68,
          "midi": 68,
          "name": "G#4",
          "ticks": 48126,
          "time": 234.74810043750003,
          "velocity": 0.6299212598425197
        },
        {
          "duration": 0.3316891249999969,
          "durationTicks": 68,
          "midi": 65,
          "name": "F4",
          "ticks": 48126,
          "time": 234.74810043750003,
          "velocity": 0.6299212598425197
        },
        {
          "duration": 0.3316891249999969,
          "durationTicks": 68,
          "midi": 65,
          "name": "F4",
          "ticks": 48192,
          "time": 235.07003400000002,
          "velocity": 0.6299212598425197
        },
        {
          "duration": 0.3316891249999969,
          "durationTicks": 68,
          "midi": 68,
          "name": "G#4",
          "ticks": 48192,
          "time": 235.07003400000002,
          "velocity": 0.6299212598425197
        },
        {
          "duration": 0.3316891249999969,
          "durationTicks": 68,
          "midi": 68,
          "name": "G#4",
          "ticks": 48270,
          "time": 235.4505009375,
          "velocity": 0.6299212598425197
        },
        {
          "duration": 0.3316891249999969,
          "durationTicks": 68,
          "midi": 65,
          "name": "F4",
          "ticks": 48270,
          "time": 235.4505009375,
          "velocity": 0.6299212598425197
        },
        {
          "duration": 0.21950015624997832,
          "durationTicks": 45,
          "midi": 70,
          "name": "A#4",
          "ticks": 48336,
          "time": 235.77243450000003,
          "velocity": 0.6299212598425197
        },
        {
          "duration": 0.3316891249999969,
          "durationTicks": 68,
          "midi": 63,
          "name": "D#4",
          "ticks": 48384,
          "time": 236.00656800000002,
          "velocity": 0.6299212598425197
        },
        {
          "duration": 0.3316891249999969,
          "durationTicks": 68,
          "midi": 68,
          "name": "G#4",
          "ticks": 48384,
          "time": 236.00656800000002,
          "velocity": 0.6299212598425197
        },
        {
          "duration": 0.3316891249999685,
          "durationTicks": 68,
          "midi": 65,
          "name": "F4",
          "ticks": 48462,
          "time": 236.38703493750003,
          "velocity": 0.6299212598425197
        },
        {
          "duration": 0.10731118750001656,
          "durationTicks": 22,
          "midi": 63,
          "name": "D#4",
          "ticks": 48606,
          "time": 237.08943543750001,
          "velocity": 0.6299212598425197
        },
        {
          "duration": 0.21950015625000674,
          "durationTicks": 45,
          "midi": 65,
          "name": "F4",
          "ticks": 48624,
          "time": 237.17723550000002,
          "velocity": 0.6299212598425197
        },
        {
          "duration": 0.10731118750001656,
          "durationTicks": 22,
          "midi": 58,
          "name": "A#3",
          "ticks": 48702,
          "time": 237.5577024375,
          "velocity": 0.6299212598425197
        },
        {
          "duration": 0.21950015625000674,
          "durationTicks": 45,
          "midi": 60,
          "name": "C4",
          "ticks": 48720,
          "time": 237.64550250000002,
          "velocity": 0.6299212598425197
        },
        {
          "duration": 0.3316891249999969,
          "durationTicks": 68,
          "midi": 60,
          "name": "C4",
          "ticks": 48816,
          "time": 238.11376950000002,
          "velocity": 0.6299212598425197
        },
        {
          "duration": 0.3316891249999969,
          "durationTicks": 68,
          "midi": 68,
          "name": "G#4",
          "ticks": 48816,
          "time": 238.11376950000002,
          "velocity": 0.6299212598425197
        },
        {
          "duration": 0.3316891249999685,
          "durationTicks": 68,
          "midi": 68,
          "name": "G#4",
          "ticks": 48894,
          "time": 238.49423643750004,
          "velocity": 0.6299212598425197
        },
        {
          "duration": 0.3316891249999685,
          "durationTicks": 68,
          "midi": 60,
          "name": "C4",
          "ticks": 48894,
          "time": 238.49423643750004,
          "velocity": 0.6299212598425197
        },
        {
          "duration": 0.3316891249999969,
          "durationTicks": 68,
          "midi": 60,
          "name": "C4",
          "ticks": 48960,
          "time": 238.81617000000003,
          "velocity": 0.6299212598425197
        },
        {
          "duration": 0.3316891249999969,
          "durationTicks": 68,
          "midi": 68,
          "name": "G#4",
          "ticks": 48960,
          "time": 238.81617000000003,
          "velocity": 0.6299212598425197
        },
        {
          "duration": 0.3316891249999969,
          "durationTicks": 68,
          "midi": 68,
          "name": "G#4",
          "ticks": 49038,
          "time": 239.19663693750002,
          "velocity": 0.6299212598425197
        },
        {
          "duration": 0.3316891249999969,
          "durationTicks": 68,
          "midi": 60,
          "name": "C4",
          "ticks": 49038,
          "time": 239.19663693750002,
          "velocity": 0.6299212598425197
        },
        {
          "duration": 0.21950015625000674,
          "durationTicks": 45,
          "midi": 70,
          "name": "A#4",
          "ticks": 49104,
          "time": 239.5185705,
          "velocity": 0.6299212598425197
        },
        {
          "duration": 0.33168912500002534,
          "durationTicks": 68,
          "midi": 62,
          "name": "D4",
          "ticks": 49152,
          "time": 239.75270400000002,
          "velocity": 0.6299212598425197
        },
        {
          "duration": 0.33168912500002534,
          "durationTicks": 68,
          "midi": 65,
          "name": "F4",
          "ticks": 49152,
          "time": 239.75270400000002,
          "velocity": 0.6299212598425197
        },
        {
          "duration": 0.33168912500002534,
          "durationTicks": 68,
          "midi": 68,
          "name": "G#4",
          "ticks": 49230,
          "time": 240.1331709375,
          "velocity": 0.6299212598425197
        },
        {
          "duration": 0.33168912500002534,
          "durationTicks": 68,
          "midi": 65,
          "name": "F4",
          "ticks": 49230,
          "time": 240.1331709375,
          "velocity": 0.6299212598425197
        },
        {
          "duration": 0.10731118749998814,
          "durationTicks": 22,
          "midi": 63,
          "name": "D#4",
          "ticks": 49374,
          "time": 240.83557143750002,
          "velocity": 0.6299212598425197
        },
        {
          "duration": 0.21950015625000674,
          "durationTicks": 45,
          "midi": 65,
          "name": "F4",
          "ticks": 49392,
          "time": 240.92337150000003,
          "velocity": 0.6299212598425197
        },
        {
          "duration": 0.21950015625000674,
          "durationTicks": 45,
          "midi": 65,
          "name": "F4",
          "ticks": 49440,
          "time": 241.15750500000001,
          "velocity": 0.6299212598425197
        },
        {
          "duration": 0.21950015625000674,
          "durationTicks": 45,
          "midi": 65,
          "name": "F4",
          "ticks": 49488,
          "time": 241.39163850000003,
          "velocity": 0.6299212598425197
        },
        {
          "duration": 0.33168912500002534,
          "durationTicks": 68,
          "midi": 65,
          "name": "F4",
          "ticks": 49536,
          "time": 241.625772,
          "velocity": 0.6299212598425197
        },
        {
          "duration": 0.33168912500002534,
          "durationTicks": 68,
          "midi": 72,
          "name": "C5",
          "ticks": 49536,
          "time": 241.625772,
          "velocity": 0.6299212598425197
        },
        {
          "duration": 0.33168912500002534,
          "durationTicks": 68,
          "midi": 70,
          "name": "A#4",
          "ticks": 49614,
          "time": 242.00623893750003,
          "velocity": 0.6299212598425197
        },
        {
          "duration": 0.4438780937499871,
          "durationTicks": 91,
          "midi": 68,
          "name": "G#4",
          "ticks": 49680,
          "time": 242.32817250000002,
          "velocity": 0.6299212598425197
        },
        {
          "duration": 0.4438780937499871,
          "durationTicks": 91,
          "midi": 70,
          "name": "A#4",
          "ticks": 49776,
          "time": 242.79643950000002,
          "velocity": 0.6299212598425197
        },
        {
          "duration": 0.21950015625000674,
          "durationTicks": 45,
          "midi": 65,
          "name": "F4",
          "ticks": 49872,
          "time": 243.26470650000002,
          "velocity": 0.6299212598425197
        },
        {
          "duration": 0.6633782499999654,
          "durationTicks": 136,
          "midi": 53,
          "name": "F3",
          "ticks": 49920,
          "time": 243.49884000000003,
          "velocity": 0.6299212598425197
        },
        {
          "duration": 0.6633782499999654,
          "durationTicks": 136,
          "midi": 60,
          "name": "C4",
          "ticks": 49920,
          "time": 243.49884000000003,
          "velocity": 0.6299212598425197
        },
        {
          "duration": 0.6633782499999938,
          "durationTicks": 136,
          "midi": 54,
          "name": "F#3",
          "ticks": 50064,
          "time": 244.2012405,
          "velocity": 0.6299212598425197
        },
        {
          "duration": 0.6633782499999938,
          "durationTicks": 136,
          "midi": 60,
          "name": "C4",
          "ticks": 50064,
          "time": 244.2012405,
          "velocity": 0.6299212598425197
        },
        {
          "duration": 0.3316891249999969,
          "durationTicks": 68,
          "midi": 60,
          "name": "C4",
          "ticks": 50352,
          "time": 245.60604150000003,
          "velocity": 0.6299212598425197
        },
        {
          "duration": 0.3316891249999969,
          "durationTicks": 68,
          "midi": 67,
          "name": "G4",
          "ticks": 50352,
          "time": 245.60604150000003,
          "velocity": 0.6299212598425197
        },
        {
          "duration": 0.3316891249999969,
          "durationTicks": 68,
          "midi": 70,
          "name": "A#4",
          "ticks": 50352,
          "time": 245.60604150000003,
          "velocity": 0.6299212598425197
        },
        {
          "duration": 0.33168912500002534,
          "durationTicks": 68,
          "midi": 68,
          "name": "G#4",
          "ticks": 50430,
          "time": 245.98650843750002,
          "velocity": 0.6299212598425197
        },
        {
          "duration": 0.33168912500002534,
          "durationTicks": 68,
          "midi": 60,
          "name": "C4",
          "ticks": 50496,
          "time": 246.308442,
          "velocity": 0.6299212598425197
        },
        {
          "duration": 0.33168912500002534,
          "durationTicks": 68,
          "midi": 67,
          "name": "G4",
          "ticks": 50496,
          "time": 246.308442,
          "velocity": 0.6299212598425197
        },
        {
          "duration": 0.33168912500002534,
          "durationTicks": 68,
          "midi": 70,
          "name": "A#4",
          "ticks": 50496,
          "time": 246.308442,
          "velocity": 0.6299212598425197
        },
        {
          "duration": 0.3316891249999969,
          "durationTicks": 68,
          "midi": 68,
          "name": "G#4",
          "ticks": 50574,
          "time": 246.68890893750003,
          "velocity": 0.6299212598425197
        },
        {
          "duration": 0.21950015625000674,
          "durationTicks": 45,
          "midi": 60,
          "name": "C4",
          "ticks": 50640,
          "time": 247.01084250000002,
          "velocity": 0.6299212598425197
        },
        {
          "duration": 0.21950015625000674,
          "durationTicks": 45,
          "midi": 67,
          "name": "G4",
          "ticks": 50640,
          "time": 247.01084250000002,
          "velocity": 0.6299212598425197
        },
        {
          "duration": 0.21950015625000674,
          "durationTicks": 45,
          "midi": 70,
          "name": "A#4",
          "ticks": 50640,
          "time": 247.01084250000002,
          "velocity": 0.6299212598425197
        },
        {
          "duration": 0.3316891249999969,
          "durationTicks": 68,
          "midi": 60,
          "name": "C4",
          "ticks": 50688,
          "time": 247.24497600000004,
          "velocity": 0.6299212598425197
        },
        {
          "duration": 0.3316891249999969,
          "durationTicks": 68,
          "midi": 65,
          "name": "F4",
          "ticks": 50688,
          "time": 247.24497600000004,
          "velocity": 0.6299212598425197
        },
        {
          "duration": 0.33168912500002534,
          "durationTicks": 68,
          "midi": 68,
          "name": "G#4",
          "ticks": 50766,
          "time": 247.62544293750003,
          "velocity": 0.6299212598425197
        },
        {
          "duration": 0.33168912500002534,
          "durationTicks": 68,
          "midi": 65,
          "name": "F4",
          "ticks": 50766,
          "time": 247.62544293750003,
          "velocity": 0.6299212598425197
        },
        {
          "duration": 0.33168912500002534,
          "durationTicks": 68,
          "midi": 60,
          "name": "C4",
          "ticks": 50766,
          "time": 247.62544293750003,
          "velocity": 0.6299212598425197
        },
        {
          "duration": 0.10731118749995971,
          "durationTicks": 22,
          "midi": 63,
          "name": "D#4",
          "ticks": 50910,
          "time": 248.32784343750004,
          "velocity": 0.6299212598425197
        },
        {
          "duration": 0.21950015625000674,
          "durationTicks": 45,
          "midi": 65,
          "name": "F4",
          "ticks": 50928,
          "time": 248.41564350000002,
          "velocity": 0.6299212598425197
        },
        {
          "duration": 0.10731118749995971,
          "durationTicks": 22,
          "midi": 58,
          "name": "A#3",
          "ticks": 51006,
          "time": 248.79611043750003,
          "velocity": 0.6299212598425197
        },
        {
          "duration": 0.21950015625000674,
          "durationTicks": 45,
          "midi": 60,
          "name": "C4",
          "ticks": 51024,
          "time": 248.8839105,
          "velocity": 0.6299212598425197
        },
        {
          "duration": 0.33168912500002534,
          "durationTicks": 68,
          "midi": 60,
          "name": "C4",
          "ticks": 51120,
          "time": 249.3521775,
          "velocity": 0.6299212598425197
        },
        {
          "duration": 0.33168912500002534,
          "durationTicks": 68,
          "midi": 65,
          "name": "F4",
          "ticks": 51120,
          "time": 249.3521775,
          "velocity": 0.6299212598425197
        },
        {
          "duration": 0.33168912500002534,
          "durationTicks": 68,
          "midi": 68,
          "name": "G#4",
          "ticks": 51120,
          "time": 249.3521775,
          "velocity": 0.6299212598425197
        },
        {
          "duration": 0.33168912500002534,
          "durationTicks": 68,
          "midi": 68,
          "name": "G#4",
          "ticks": 51198,
          "time": 249.73264443750003,
          "velocity": 0.6299212598425197
        },
        {
          "duration": 0.33168912500002534,
          "durationTicks": 68,
          "midi": 65,
          "name": "F4",
          "ticks": 51198,
          "time": 249.73264443750003,
          "velocity": 0.6299212598425197
        },
        {
          "duration": 0.33168912500002534,
          "durationTicks": 68,
          "midi": 60,
          "name": "C4",
          "ticks": 51198,
          "time": 249.73264443750003,
          "velocity": 0.6299212598425197
        },
        {
          "duration": 0.33168912500002534,
          "durationTicks": 68,
          "midi": 60,
          "name": "C4",
          "ticks": 51264,
          "time": 250.05457800000002,
          "velocity": 0.6299212598425197
        },
        {
          "duration": 0.33168912500002534,
          "durationTicks": 68,
          "midi": 65,
          "name": "F4",
          "ticks": 51264,
          "time": 250.05457800000002,
          "velocity": 0.6299212598425197
        },
        {
          "duration": 0.33168912500002534,
          "durationTicks": 68,
          "midi": 68,
          "name": "G#4",
          "ticks": 51264,
          "time": 250.05457800000002,
          "velocity": 0.6299212598425197
        },
        {
          "duration": 0.33168912500002534,
          "durationTicks": 68,
          "midi": 68,
          "name": "G#4",
          "ticks": 51342,
          "time": 250.4350449375,
          "velocity": 0.6299212598425197
        },
        {
          "duration": 0.33168912500002534,
          "durationTicks": 68,
          "midi": 65,
          "name": "F4",
          "ticks": 51342,
          "time": 250.4350449375,
          "velocity": 0.6299212598425197
        },
        {
          "duration": 0.33168912500002534,
          "durationTicks": 68,
          "midi": 60,
          "name": "C4",
          "ticks": 51342,
          "time": 250.4350449375,
          "velocity": 0.6299212598425197
        },
        {
          "duration": 0.21950015625000674,
          "durationTicks": 45,
          "midi": 70,
          "name": "A#4",
          "ticks": 51408,
          "time": 250.75697850000003,
          "velocity": 0.6299212598425197
        },
        {
          "duration": 0.33168912500002534,
          "durationTicks": 68,
          "midi": 60,
          "name": "C4",
          "ticks": 51456,
          "time": 250.99111200000002,
          "velocity": 0.6299212598425197
        },
        {
          "duration": 0.33168912500002534,
          "durationTicks": 68,
          "midi": 63,
          "name": "D#4",
          "ticks": 51456,
          "time": 250.99111200000002,
          "velocity": 0.6299212598425197
        },
        {
          "duration": 0.33168912500002534,
          "durationTicks": 68,
          "midi": 68,
          "name": "G#4",
          "ticks": 51456,
          "time": 250.99111200000002,
          "velocity": 0.6299212598425197
        },
        {
          "duration": 0.3316891249999969,
          "durationTicks": 68,
          "midi": 65,
          "name": "F4",
          "ticks": 51534,
          "time": 251.37157893750003,
          "velocity": 0.6299212598425197
        },
        {
          "duration": 0.3316891249999969,
          "durationTicks": 68,
          "midi": 60,
          "name": "C4",
          "ticks": 51534,
          "time": 251.37157893750003,
          "velocity": 0.6299212598425197
        },
        {
          "duration": 0.10731118749998814,
          "durationTicks": 22,
          "midi": 63,
          "name": "D#4",
          "ticks": 51678,
          "time": 252.07397943750001,
          "velocity": 0.6299212598425197
        },
        {
          "duration": 0.21950015625000674,
          "durationTicks": 45,
          "midi": 65,
          "name": "F4",
          "ticks": 51696,
          "time": 252.16177950000002,
          "velocity": 0.6299212598425197
        },
        {
          "duration": 0.10731118749998814,
          "durationTicks": 22,
          "midi": 58,
          "name": "A#3",
          "ticks": 51774,
          "time": 252.5422464375,
          "velocity": 0.6299212598425197
        },
        {
          "duration": 0.21950015625000674,
          "durationTicks": 45,
          "midi": 60,
          "name": "C4",
          "ticks": 51792,
          "time": 252.63004650000002,
          "velocity": 0.6299212598425197
        },
        {
          "duration": 0.33168912500002534,
          "durationTicks": 68,
          "midi": 60,
          "name": "C4",
          "ticks": 51888,
          "time": 253.09831350000002,
          "velocity": 0.6299212598425197
        },
        {
          "duration": 0.33168912500002534,
          "durationTicks": 68,
          "midi": 63,
          "name": "D#4",
          "ticks": 51888,
          "time": 253.09831350000002,
          "velocity": 0.6299212598425197
        },
        {
          "duration": 0.33168912500002534,
          "durationTicks": 68,
          "midi": 68,
          "name": "G#4",
          "ticks": 51888,
          "time": 253.09831350000002,
          "velocity": 0.6299212598425197
        },
        {
          "duration": 0.3316891249999969,
          "durationTicks": 68,
          "midi": 68,
          "name": "G#4",
          "ticks": 51966,
          "time": 253.47878043750003,
          "velocity": 0.6299212598425197
        },
        {
          "duration": 0.3316891249999969,
          "durationTicks": 68,
          "midi": 63,
          "name": "D#4",
          "ticks": 51966,
          "time": 253.47878043750003,
          "velocity": 0.6299212598425197
        },
        {
          "duration": 0.3316891249999969,
          "durationTicks": 68,
          "midi": 60,
          "name": "C4",
          "ticks": 51966,
          "time": 253.47878043750003,
          "velocity": 0.6299212598425197
        },
        {
          "duration": 0.33168912500002534,
          "durationTicks": 68,
          "midi": 60,
          "name": "C4",
          "ticks": 52032,
          "time": 253.80071400000003,
          "velocity": 0.6299212598425197
        },
        {
          "duration": 0.33168912500002534,
          "durationTicks": 68,
          "midi": 63,
          "name": "D#4",
          "ticks": 52032,
          "time": 253.80071400000003,
          "velocity": 0.6299212598425197
        },
        {
          "duration": 0.33168912500002534,
          "durationTicks": 68,
          "midi": 68,
          "name": "G#4",
          "ticks": 52032,
          "time": 253.80071400000003,
          "velocity": 0.6299212598425197
        },
        {
          "duration": 0.33168912500002534,
          "durationTicks": 68,
          "midi": 68,
          "name": "G#4",
          "ticks": 52110,
          "time": 254.18118093750002,
          "velocity": 0.6299212598425197
        },
        {
          "duration": 0.33168912500002534,
          "durationTicks": 68,
          "midi": 63,
          "name": "D#4",
          "ticks": 52110,
          "time": 254.18118093750002,
          "velocity": 0.6299212598425197
        },
        {
          "duration": 0.33168912500002534,
          "durationTicks": 68,
          "midi": 60,
          "name": "C4",
          "ticks": 52110,
          "time": 254.18118093750002,
          "velocity": 0.6299212598425197
        },
        {
          "duration": 0.21950015624997832,
          "durationTicks": 45,
          "midi": 70,
          "name": "A#4",
          "ticks": 52176,
          "time": 254.50311450000004,
          "velocity": 0.6299212598425197
        },
        {
          "duration": 0.33168912500002534,
          "durationTicks": 68,
          "midi": 58,
          "name": "A#3",
          "ticks": 52224,
          "time": 254.73724800000002,
          "velocity": 0.6299212598425197
        },
        {
          "duration": 0.33168912500002534,
          "durationTicks": 68,
          "midi": 62,
          "name": "D4",
          "ticks": 52224,
          "time": 254.73724800000002,
          "velocity": 0.6299212598425197
        },
        {
          "duration": 0.33168912500002534,
          "durationTicks": 68,
          "midi": 65,
          "name": "F4",
          "ticks": 52224,
          "time": 254.73724800000002,
          "velocity": 0.6299212598425197
        },
        {
          "duration": 0.33168912500002534,
          "durationTicks": 68,
          "midi": 68,
          "name": "G#4",
          "ticks": 52302,
          "time": 255.1177149375,
          "velocity": 0.6299212598425197
        },
        {
          "duration": 0.33168912500002534,
          "durationTicks": 68,
          "midi": 65,
          "name": "F4",
          "ticks": 52302,
          "time": 255.1177149375,
          "velocity": 0.6299212598425197
        },
        {
          "duration": 0.33168912500002534,
          "durationTicks": 68,
          "midi": 62,
          "name": "D4",
          "ticks": 52302,
          "time": 255.1177149375,
          "velocity": 0.6299212598425197
        },
        {
          "duration": 0.33168912500002534,
          "durationTicks": 68,
          "midi": 58,
          "name": "A#3",
          "ticks": 52302,
          "time": 255.1177149375,
          "velocity": 0.6299212598425197
        },
        {
          "duration": 0.10731118749998814,
          "durationTicks": 22,
          "midi": 63,
          "name": "D#4",
          "ticks": 52446,
          "time": 255.82011543750002,
          "velocity": 0.6299212598425197
        },
        {
          "duration": 0.21950015625000674,
          "durationTicks": 45,
          "midi": 65,
          "name": "F4",
          "ticks": 52464,
          "time": 255.90791550000003,
          "velocity": 0.6299212598425197
        },
        {
          "duration": 0.21950015624997832,
          "durationTicks": 45,
          "midi": 65,
          "name": "F4",
          "ticks": 52512,
          "time": 256.14204900000004,
          "velocity": 0.6299212598425197
        },
        {
          "duration": 0.21950015624997832,
          "durationTicks": 45,
          "midi": 65,
          "name": "F4",
          "ticks": 52560,
          "time": 256.3761825,
          "velocity": 0.6299212598425197
        },
        {
          "duration": 0.33168912500002534,
          "durationTicks": 68,
          "midi": 65,
          "name": "F4",
          "ticks": 52608,
          "time": 256.610316,
          "velocity": 0.6299212598425197
        },
        {
          "duration": 0.33168912500002534,
          "durationTicks": 68,
          "midi": 72,
          "name": "C5",
          "ticks": 52608,
          "time": 256.610316,
          "velocity": 0.6299212598425197
        },
        {
          "duration": 0.33168912500002534,
          "durationTicks": 68,
          "midi": 75,
          "name": "D#5",
          "ticks": 52686,
          "time": 256.9907829375,
          "velocity": 0.6299212598425197
        },
        {
          "duration": 0.33168912500002534,
          "durationTicks": 68,
          "midi": 68,
          "name": "G#4",
          "ticks": 52686,
          "time": 256.9907829375,
          "velocity": 0.6299212598425197
        },
        {
          "duration": 0.4438780937499587,
          "durationTicks": 91,
          "midi": 67,
          "name": "G4",
          "ticks": 52752,
          "time": 257.3127165,
          "velocity": 0.6299212598425197
        },
        {
          "duration": 0.4438780937499587,
          "durationTicks": 91,
          "midi": 70,
          "name": "A#4",
          "ticks": 52752,
          "time": 257.3127165,
          "velocity": 0.6299212598425197
        },
        {
          "duration": 0.4438780937499587,
          "durationTicks": 91,
          "midi": 65,
          "name": "F4",
          "ticks": 52848,
          "time": 257.78098350000005,
          "velocity": 0.6299212598425197
        },
        {
          "duration": 0.4438780937499587,
          "durationTicks": 91,
          "midi": 70,
          "name": "A#4",
          "ticks": 52848,
          "time": 257.78098350000005,
          "velocity": 0.6299212598425197
        },
        {
          "duration": 0.4438780937500155,
          "durationTicks": 91,
          "midi": 65,
          "name": "F4",
          "ticks": 52944,
          "time": 258.2492505,
          "velocity": 0.6299212598425197
        },
        {
          "duration": 0.4438780937500155,
          "durationTicks": 91,
          "midi": 68,
          "name": "G#4",
          "ticks": 52944,
          "time": 258.2492505,
          "velocity": 0.6299212598425197
        },
        {
          "duration": 1.3316342812499897,
          "durationTicks": 273,
          "midi": 53,
          "name": "F3",
          "ticks": 53040,
          "time": 258.71751750000004,
          "velocity": 0.6299212598425197
        },
        {
          "duration": 1.3316342812499897,
          "durationTicks": 273,
          "midi": 60,
          "name": "C4",
          "ticks": 53040,
          "time": 258.71751750000004,
          "velocity": 0.6299212598425197
        },
        {
          "duration": 1.3316342812499897,
          "durationTicks": 273,
          "midi": 65,
          "name": "F4",
          "ticks": 53040,
          "time": 258.71751750000004,
          "velocity": 0.6299212598425197
        },
        {
          "duration": 1.7755123749999484,
          "durationTicks": 364,
          "midi": 60,
          "name": "C4",
          "ticks": 53760,
          "time": 262.22952000000004,
          "velocity": 0.6299212598425197
        },
        {
          "duration": 0.4438780937499587,
          "durationTicks": 91,
          "midi": 60,
          "name": "C4",
          "ticks": 54144,
          "time": 264.102588,
          "velocity": 0.6299212598425197
        },
        {
          "duration": 0.4438780937499587,
          "durationTicks": 91,
          "midi": 63,
          "name": "D#4",
          "ticks": 54144,
          "time": 264.102588,
          "velocity": 0.6299212598425197
        },
        {
          "duration": 0.21950015624997832,
          "durationTicks": 45,
          "midi": 60,
          "name": "C4",
          "ticks": 54240,
          "time": 264.57085500000005,
          "velocity": 0.6299212598425197
        },
        {
          "duration": 0.4438780937499587,
          "durationTicks": 91,
          "midi": 60,
          "name": "C4",
          "ticks": 54288,
          "time": 264.80498850000004,
          "velocity": 0.6299212598425197
        },
        {
          "duration": 0.4438780937499587,
          "durationTicks": 91,
          "midi": 63,
          "name": "D#4",
          "ticks": 54288,
          "time": 264.80498850000004,
          "velocity": 0.6299212598425197
        },
        {
          "duration": 0.21950015625003516,
          "durationTicks": 45,
          "midi": 60,
          "name": "C4",
          "ticks": 54384,
          "time": 265.2732555,
          "velocity": 0.6299212598425197
        },
        {
          "duration": 0.4438780937499587,
          "durationTicks": 91,
          "midi": 60,
          "name": "C4",
          "ticks": 54432,
          "time": 265.50738900000005,
          "velocity": 0.6299212598425197
        },
        {
          "duration": 0.4438780937499587,
          "durationTicks": 91,
          "midi": 63,
          "name": "D#4",
          "ticks": 54432,
          "time": 265.50738900000005,
          "velocity": 0.6299212598425197
        },
        {
          "duration": 1.3316342812499897,
          "durationTicks": 273,
          "midi": 60,
          "name": "C4",
          "ticks": 54528,
          "time": 265.975656,
          "velocity": 0.6299212598425197
        },
        {
          "duration": 1.3316342812499897,
          "durationTicks": 273,
          "midi": 65,
          "name": "F4",
          "ticks": 54528,
          "time": 265.975656,
          "velocity": 0.6299212598425197
        },
        {
          "duration": 0.21950015624997832,
          "durationTicks": 45,
          "midi": 60,
          "name": "C4",
          "ticks": 54864,
          "time": 267.6145905,
          "velocity": 0.6299212598425197
        },
        {
          "duration": 0.4438780937500155,
          "durationTicks": 91,
          "midi": 60,
          "name": "C4",
          "ticks": 54912,
          "time": 267.848724,
          "velocity": 0.6299212598425197
        },
        {
          "duration": 0.4438780937500155,
          "durationTicks": 91,
          "midi": 63,
          "name": "D#4",
          "ticks": 54912,
          "time": 267.848724,
          "velocity": 0.6299212598425197
        },
        {
          "duration": 0.21950015624997832,
          "durationTicks": 45,
          "midi": 60,
          "name": "C4",
          "ticks": 55008,
          "time": 268.31699100000003,
          "velocity": 0.6299212598425197
        },
        {
          "duration": 0.4438780937500155,
          "durationTicks": 91,
          "midi": 60,
          "name": "C4",
          "ticks": 55056,
          "time": 268.5511245,
          "velocity": 0.6299212598425197
        },
        {
          "duration": 0.4438780937500155,
          "durationTicks": 91,
          "midi": 63,
          "name": "D#4",
          "ticks": 55056,
          "time": 268.5511245,
          "velocity": 0.6299212598425197
        },
        {
          "duration": 0.21950015624997832,
          "durationTicks": 45,
          "midi": 60,
          "name": "C4",
          "ticks": 55152,
          "time": 269.01939150000004,
          "velocity": 0.6299212598425197
        },
        {
          "duration": 0.4438780937499587,
          "durationTicks": 91,
          "midi": 60,
          "name": "C4",
          "ticks": 55200,
          "time": 269.253525,
          "velocity": 0.6299212598425197
        },
        {
          "duration": 0.4438780937499587,
          "durationTicks": 91,
          "midi": 63,
          "name": "D#4",
          "ticks": 55200,
          "time": 269.253525,
          "velocity": 0.6299212598425197
        },
        {
          "duration": 0.8877561874999742,
          "durationTicks": 182,
          "midi": 58,
          "name": "A#3",
          "ticks": 55296,
          "time": 269.72179200000005,
          "velocity": 0.6299212598425197
        },
        {
          "duration": 0.8877561874999742,
          "durationTicks": 182,
          "midi": 62,
          "name": "D4",
          "ticks": 55296,
          "time": 269.72179200000005,
          "velocity": 0.6299212598425197
        },
        {
          "duration": 0.8877561874999742,
          "durationTicks": 182,
          "midi": 62,
          "name": "D4",
          "ticks": 55488,
          "time": 270.65832600000005,
          "velocity": 0.6299212598425197
        },
        {
          "duration": 0.8877561874999742,
          "durationTicks": 182,
          "midi": 65,
          "name": "F4",
          "ticks": 55488,
          "time": 270.65832600000005,
          "velocity": 0.6299212598425197
        },
        {
          "duration": 0.4438780937499587,
          "durationTicks": 91,
          "midi": 65,
          "name": "F4",
          "ticks": 55872,
          "time": 272.53139400000003,
          "velocity": 0.6299212598425197
        },
        {
          "duration": 0.4438780937499587,
          "durationTicks": 91,
          "midi": 68,
          "name": "G#4",
          "ticks": 55872,
          "time": 272.53139400000003,
          "velocity": 0.6299212598425197
        },
        {
          "duration": 0.4438780937500155,
          "durationTicks": 91,
          "midi": 65,
          "name": "F4",
          "ticks": 55968,
          "time": 272.999661,
          "velocity": 0.6299212598425197
        },
        {
          "duration": 0.4438780937500155,
          "durationTicks": 91,
          "midi": 68,
          "name": "G#4",
          "ticks": 55968,
          "time": 272.999661,
          "velocity": 0.6299212598425197
        },
        {
          "duration": 0.6633782499999938,
          "durationTicks": 136,
          "midi": 60,
          "name": "C4",
          "ticks": 56064,
          "time": 273.46792800000003,
          "velocity": 0.6299212598425197
        },
        {
          "duration": 0.887756187500031,
          "durationTicks": 182,
          "midi": 61,
          "name": "C#4",
          "ticks": 56208,
          "time": 274.17032850000004,
          "velocity": 0.6299212598425197
        },
        {
          "duration": 0.6633782499999938,
          "durationTicks": 136,
          "midi": 61,
          "name": "C#4",
          "ticks": 56448,
          "time": 275.340996,
          "velocity": 0.6299212598425197
        },
        {
          "duration": 0.887756187500031,
          "durationTicks": 182,
          "midi": 64,
          "name": "E4",
          "ticks": 56592,
          "time": 276.04339650000003,
          "velocity": 0.6299212598425197
        },
        {
          "duration": 1.7755123750000052,
          "durationTicks": 364,
          "midi": 60,
          "name": "C4",
          "ticks": 56832,
          "time": 277.214064,
          "velocity": 0.6299212598425197
        },
        {
          "duration": 0.4438780937499587,
          "durationTicks": 91,
          "midi": 53,
          "name": "F3",
          "ticks": 57216,
          "time": 279.08713200000005,
          "velocity": 0.6299212598425197
        },
        {
          "duration": 0.4438780937499587,
          "durationTicks": 91,
          "midi": 60,
          "name": "C4",
          "ticks": 57216,
          "time": 279.08713200000005,
          "velocity": 0.6299212598425197
        },
        {
          "duration": 0.4438780937499587,
          "durationTicks": 91,
          "midi": 63,
          "name": "D#4",
          "ticks": 57216,
          "time": 279.08713200000005,
          "velocity": 0.6299212598425197
        },
        {
          "duration": 0.21950015624997832,
          "durationTicks": 45,
          "midi": 60,
          "name": "C4",
          "ticks": 57312,
          "time": 279.555399,
          "velocity": 0.6299212598425197
        },
        {
          "duration": 0.4438780937500155,
          "durationTicks": 91,
          "midi": 53,
          "name": "F3",
          "ticks": 57360,
          "time": 279.7895325,
          "velocity": 0.6299212598425197
        },
        {
          "duration": 0.4438780937500155,
          "durationTicks": 91,
          "midi": 60,
          "name": "C4",
          "ticks": 57360,
          "time": 279.7895325,
          "velocity": 0.6299212598425197
        },
        {
          "duration": 0.4438780937500155,
          "durationTicks": 91,
          "midi": 63,
          "name": "D#4",
          "ticks": 57360,
          "time": 279.7895325,
          "velocity": 0.6299212598425197
        },
        {
          "duration": 0.21950015624997832,
          "durationTicks": 45,
          "midi": 60,
          "name": "C4",
          "ticks": 57456,
          "time": 280.25779950000003,
          "velocity": 0.6299212598425197
        },
        {
          "duration": 0.4438780937500155,
          "durationTicks": 91,
          "midi": 53,
          "name": "F3",
          "ticks": 57504,
          "time": 280.491933,
          "velocity": 0.6299212598425197
        },
        {
          "duration": 0.4438780937500155,
          "durationTicks": 91,
          "midi": 60,
          "name": "C4",
          "ticks": 57504,
          "time": 280.491933,
          "velocity": 0.6299212598425197
        },
        {
          "duration": 0.4438780937500155,
          "durationTicks": 91,
          "midi": 63,
          "name": "D#4",
          "ticks": 57504,
          "time": 280.491933,
          "velocity": 0.6299212598425197
        },
        {
          "duration": 1.3316342812499897,
          "durationTicks": 273,
          "midi": 60,
          "name": "C4",
          "ticks": 57600,
          "time": 280.96020000000004,
          "velocity": 0.6299212598425197
        },
        {
          "duration": 1.3316342812499897,
          "durationTicks": 273,
          "midi": 65,
          "name": "F4",
          "ticks": 57600,
          "time": 280.96020000000004,
          "velocity": 0.6299212598425197
        },
        {
          "duration": 0.21950015624997832,
          "durationTicks": 45,
          "midi": 60,
          "name": "C4",
          "ticks": 57936,
          "time": 282.59913450000005,
          "velocity": 0.6299212598425197
        },
        {
          "duration": 0.4438780937499587,
          "durationTicks": 91,
          "midi": 56,
          "name": "G#3",
          "ticks": 57984,
          "time": 282.83326800000003,
          "velocity": 0.6299212598425197
        },
        {
          "duration": 0.4438780937499587,
          "durationTicks": 91,
          "midi": 60,
          "name": "C4",
          "ticks": 57984,
          "time": 282.83326800000003,
          "velocity": 0.6299212598425197
        },
        {
          "duration": 0.4438780937499587,
          "durationTicks": 91,
          "midi": 63,
          "name": "D#4",
          "ticks": 57984,
          "time": 282.83326800000003,
          "velocity": 0.6299212598425197
        },
        {
          "duration": 0.21950015625003516,
          "durationTicks": 45,
          "midi": 60,
          "name": "C4",
          "ticks": 58080,
          "time": 283.301535,
          "velocity": 0.6299212598425197
        },
        {
          "duration": 0.4438780937499587,
          "durationTicks": 91,
          "midi": 56,
          "name": "G#3",
          "ticks": 58128,
          "time": 283.53566850000004,
          "velocity": 0.6299212598425197
        },
        {
          "duration": 0.4438780937499587,
          "durationTicks": 91,
          "midi": 60,
          "name": "C4",
          "ticks": 58128,
          "time": 283.53566850000004,
          "velocity": 0.6299212598425197
        },
        {
          "duration": 0.4438780937499587,
          "durationTicks": 91,
          "midi": 63,
          "name": "D#4",
          "ticks": 58128,
          "time": 283.53566850000004,
          "velocity": 0.6299212598425197
        },
        {
          "duration": 0.21950015625003516,
          "durationTicks": 45,
          "midi": 60,
          "name": "C4",
          "ticks": 58224,
          "time": 284.0039355,
          "velocity": 0.6299212598425197
        },
        {
          "duration": 0.4438780937499587,
          "durationTicks": 91,
          "midi": 63,
          "name": "D#4",
          "ticks": 58272,
          "time": 284.23806900000005,
          "velocity": 0.6299212598425197
        },
        {
          "duration": 0.4438780937499587,
          "durationTicks": 91,
          "midi": 60,
          "name": "C4",
          "ticks": 58272,
          "time": 284.23806900000005,
          "velocity": 0.6299212598425197
        },
        {
          "duration": 0.4438780937499587,
          "durationTicks": 91,
          "midi": 56,
          "name": "G#3",
          "ticks": 58272,
          "time": 284.23806900000005,
          "velocity": 0.6299212598425197
        },
        {
          "duration": 1.3316342812499897,
          "durationTicks": 273,
          "midi": 58,
          "name": "A#3",
          "ticks": 58368,
          "time": 284.706336,
          "velocity": 0.6299212598425197
        },
        {
          "duration": 1.3316342812499897,
          "durationTicks": 273,
          "midi": 62,
          "name": "D4",
          "ticks": 58368,
          "time": 284.706336,
          "velocity": 0.6299212598425197
        },
        {
          "duration": 1.3316342812499897,
          "durationTicks": 273,
          "midi": 65,
          "name": "F4",
          "ticks": 58368,
          "time": 284.706336,
          "velocity": 0.6299212598425197
        },
        {
          "duration": 0.21950015624997832,
          "durationTicks": 45,
          "midi": 65,
          "name": "F4",
          "ticks": 58704,
          "time": 286.3452705,
          "velocity": 0.6299212598425197
        },
        {
          "duration": 0.4438780937500155,
          "durationTicks": 91,
          "midi": 62,
          "name": "D4",
          "ticks": 58752,
          "time": 286.579404,
          "velocity": 0.6299212598425197
        },
        {
          "duration": 0.4438780937500155,
          "durationTicks": 91,
          "midi": 65,
          "name": "F4",
          "ticks": 58752,
          "time": 286.579404,
          "velocity": 0.6299212598425197
        },
        {
          "duration": 0.4438780937500155,
          "durationTicks": 91,
          "midi": 68,
          "name": "G#4",
          "ticks": 58752,
          "time": 286.579404,
          "velocity": 0.6299212598425197
        },
        {
          "duration": 0.21950015624997832,
          "durationTicks": 45,
          "midi": 65,
          "name": "F4",
          "ticks": 58848,
          "time": 287.04767100000004,
          "velocity": 0.6299212598425197
        },
        {
          "duration": 0.4438780937500155,
          "durationTicks": 91,
          "midi": 68,
          "name": "G#4",
          "ticks": 58896,
          "time": 287.2818045,
          "velocity": 0.6299212598425197
        },
        {
          "duration": 0.4438780937500155,
          "durationTicks": 91,
          "midi": 65,
          "name": "F4",
          "ticks": 58896,
          "time": 287.2818045,
          "velocity": 0.6299212598425197
        },
        {
          "duration": 0.4438780937500155,
          "durationTicks": 91,
          "midi": 62,
          "name": "D4",
          "ticks": 58896,
          "time": 287.2818045,
          "velocity": 0.6299212598425197
        },
        {
          "duration": 0.21950015624997832,
          "durationTicks": 45,
          "midi": 65,
          "name": "F4",
          "ticks": 58992,
          "time": 287.75007150000005,
          "velocity": 0.6299212598425197
        },
        {
          "duration": 0.887756187500031,
          "durationTicks": 182,
          "midi": 68,
          "name": "G#4",
          "ticks": 59040,
          "time": 287.98420500000003,
          "velocity": 0.6299212598425197
        },
        {
          "duration": 0.887756187500031,
          "durationTicks": 182,
          "midi": 65,
          "name": "F4",
          "ticks": 59040,
          "time": 287.98420500000003,
          "velocity": 0.6299212598425197
        },
        {
          "duration": 0.887756187500031,
          "durationTicks": 182,
          "midi": 62,
          "name": "D4",
          "ticks": 59040,
          "time": 287.98420500000003,
          "velocity": 0.6299212598425197
        },
        {
          "duration": 2.1754904375000024,
          "durationTicks": 446,
          "midi": 53,
          "name": "F3",
          "ticks": 59232,
          "time": 288.920739,
          "velocity": 0.6299212598425197
        },
        {
          "duration": 2.1754904375000024,
          "durationTicks": 446,
          "midi": 65,
          "name": "F4",
          "ticks": 59328,
          "time": 289.38900600000005,
          "velocity": 0.6299212598425197
        },
        {
          "duration": 2.1754904375000024,
          "durationTicks": 446,
          "midi": 60,
          "name": "C4",
          "ticks": 59328,
          "time": 289.38900600000005,
          "velocity": 0.6299212598425197
        },
        {
          "duration": 0.21950015625003516,
          "durationTicks": 45,
          "midi": 56,
          "name": "G#3",
          "ticks": 59664,
          "time": 291.0279405,
          "velocity": 0.6299212598425197
        },
        {
          "duration": 0.4438780937499587,
          "durationTicks": 91,
          "midi": 56,
          "name": "G#3",
          "ticks": 59712,
          "time": 291.26207400000004,
          "velocity": 0.6299212598425197
        },
        {
          "duration": 0.21950015625003516,
          "durationTicks": 45,
          "midi": 58,
          "name": "A#3",
          "ticks": 59808,
          "time": 291.730341,
          "velocity": 0.6299212598425197
        },
        {
          "duration": 0.8877561874999742,
          "durationTicks": 182,
          "midi": 48,
          "name": "C3",
          "ticks": 59856,
          "time": 291.96447450000005,
          "velocity": 0.6299212598425197
        },
        {
          "duration": 0.8877561874999742,
          "durationTicks": 182,
          "midi": 53,
          "name": "F3",
          "ticks": 59856,
          "time": 291.96447450000005,
          "velocity": 0.6299212598425197
        },
        {
          "duration": 0.21950015624997832,
          "durationTicks": 45,
          "midi": 56,
          "name": "G#3",
          "ticks": 60048,
          "time": 292.90100850000005,
          "velocity": 0.6299212598425197
        },
        {
          "duration": 0.4438780937499587,
          "durationTicks": 91,
          "midi": 56,
          "name": "G#3",
          "ticks": 60096,
          "time": 293.13514200000003,
          "velocity": 0.6299212598425197
        },
        {
          "duration": 0.21950015624997832,
          "durationTicks": 45,
          "midi": 58,
          "name": "A#3",
          "ticks": 60192,
          "time": 293.60340900000006,
          "velocity": 0.6299212598425197
        },
        {
          "duration": 0.4438780937499587,
          "durationTicks": 91,
          "midi": 53,
          "name": "F3",
          "ticks": 60240,
          "time": 293.83754250000004,
          "velocity": 0.6299212598425197
        },
        {
          "duration": 0.4438780937499587,
          "durationTicks": 91,
          "midi": 56,
          "name": "G#3",
          "ticks": 60240,
          "time": 293.83754250000004,
          "velocity": 0.6299212598425197
        },
        {
          "duration": 0.4438780937499587,
          "durationTicks": 91,
          "midi": 60,
          "name": "C4",
          "ticks": 60240,
          "time": 293.83754250000004,
          "velocity": 0.6299212598425197
        },
        {
          "duration": 0.4438780937500155,
          "durationTicks": 91,
          "midi": 63,
          "name": "D#4",
          "ticks": 60336,
          "time": 294.3058095,
          "velocity": 0.6299212598425197
        },
        {
          "duration": 0.4438780937499587,
          "durationTicks": 91,
          "midi": 65,
          "name": "F4",
          "ticks": 60432,
          "time": 294.77407650000004,
          "velocity": 0.6299212598425197
        },
        {
          "duration": 0.4438780937500155,
          "durationTicks": 91,
          "midi": 68,
          "name": "G#4",
          "ticks": 60528,
          "time": 295.2423435,
          "velocity": 0.6299212598425197
        },
        {
          "duration": 0.6633782499999938,
          "durationTicks": 136,
          "midi": 62,
          "name": "D4",
          "ticks": 60624,
          "time": 295.71061050000003,
          "velocity": 0.6299212598425197
        },
        {
          "duration": 0.6633782499999938,
          "durationTicks": 136,
          "midi": 65,
          "name": "F4",
          "ticks": 60624,
          "time": 295.71061050000003,
          "velocity": 0.6299212598425197
        },
        {
          "duration": 0.6633782499999938,
          "durationTicks": 136,
          "midi": 70,
          "name": "A#4",
          "ticks": 60624,
          "time": 295.71061050000003,
          "velocity": 0.6299212598425197
        },
        {
          "duration": 0.21950015624997832,
          "durationTicks": 45,
          "midi": 70,
          "name": "A#4",
          "ticks": 60768,
          "time": 296.41301100000004,
          "velocity": 0.6299212598425197
        },
        {
          "duration": 0.4438780937499587,
          "durationTicks": 91,
          "midi": 68,
          "name": "G#4",
          "ticks": 60816,
          "time": 296.6471445,
          "velocity": 0.6299212598425197
        },
        {
          "duration": 0.8877561874999742,
          "durationTicks": 182,
          "midi": 65,
          "name": "F4",
          "ticks": 60912,
          "time": 297.11541150000005,
          "velocity": 0.6299212598425197
        },
        {
          "duration": 0.21950015625003516,
          "durationTicks": 45,
          "midi": 65,
          "name": "F4",
          "ticks": 61200,
          "time": 298.5202125,
          "velocity": 0.6299212598425197
        },
        {
          "duration": 0.4438780937499587,
          "durationTicks": 91,
          "midi": 63,
          "name": "D#4",
          "ticks": 61248,
          "time": 298.75434600000006,
          "velocity": 0.6299212598425197
        },
        {
          "duration": 0.21950015624997832,
          "durationTicks": 45,
          "midi": 65,
          "name": "F4",
          "ticks": 61344,
          "time": 299.222613,
          "velocity": 0.6299212598425197
        },
        {
          "duration": 0.4438780937500155,
          "durationTicks": 91,
          "midi": 60,
          "name": "C4",
          "ticks": 61392,
          "time": 299.4567465,
          "velocity": 0.6299212598425197
        },
        {
          "duration": 0.4438780937500155,
          "durationTicks": 91,
          "midi": 68,
          "name": "G#4",
          "ticks": 61392,
          "time": 299.4567465,
          "velocity": 0.6299212598425197
        },
        {
          "duration": 0.4438780937499587,
          "durationTicks": 91,
          "midi": 60,
          "name": "C4",
          "ticks": 61488,
          "time": 299.92501350000003,
          "velocity": 0.6299212598425197
        },
        {
          "duration": 0.4438780937499587,
          "durationTicks": 91,
          "midi": 68,
          "name": "G#4",
          "ticks": 61488,
          "time": 299.92501350000003,
          "velocity": 0.6299212598425197
        },
        {
          "duration": 0.21950015625003516,
          "durationTicks": 45,
          "midi": 65,
          "name": "F4",
          "ticks": 61584,
          "time": 300.3932805,
          "velocity": 0.6299212598425197
        },
        {
          "duration": 0.4438780937499587,
          "durationTicks": 91,
          "midi": 63,
          "name": "D#4",
          "ticks": 61632,
          "time": 300.62741400000004,
          "velocity": 0.6299212598425197
        },
        {
          "duration": 0.21950015625003516,
          "durationTicks": 45,
          "midi": 65,
          "name": "F4",
          "ticks": 61728,
          "time": 301.095681,
          "velocity": 0.6299212598425197
        },
        {
          "duration": 0.4438780937499587,
          "durationTicks": 91,
          "midi": 63,
          "name": "D#4",
          "ticks": 61776,
          "time": 301.32981450000005,
          "velocity": 0.6299212598425197
        },
        {
          "duration": 0.4438780937499587,
          "durationTicks": 91,
          "midi": 70,
          "name": "A#4",
          "ticks": 61776,
          "time": 301.32981450000005,
          "velocity": 0.6299212598425197
        },
        {
          "duration": 0.4438780937500155,
          "durationTicks": 91,
          "midi": 63,
          "name": "D#4",
          "ticks": 61872,
          "time": 301.7980815,
          "velocity": 0.6299212598425197
        },
        {
          "duration": 0.4438780937500155,
          "durationTicks": 91,
          "midi": 70,
          "name": "A#4",
          "ticks": 61872,
          "time": 301.7980815,
          "velocity": 0.6299212598425197
        },
        {
          "duration": 0.21950015624997832,
          "durationTicks": 45,
          "midi": 65,
          "name": "F4",
          "ticks": 61968,
          "time": 302.26634850000005,
          "velocity": 0.6299212598425197
        },
        {
          "duration": 0.4438780937499587,
          "durationTicks": 91,
          "midi": 63,
          "name": "D#4",
          "ticks": 62016,
          "time": 302.50048200000003,
          "velocity": 0.6299212598425197
        },
        {
          "duration": 0.21950015625003516,
          "durationTicks": 45,
          "midi": 65,
          "name": "F4",
          "ticks": 62112,
          "time": 302.968749,
          "velocity": 0.6299212598425197
        },
        {
          "duration": 0.4438780937499587,
          "durationTicks": 91,
          "midi": 65,
          "name": "F4",
          "ticks": 62160,
          "time": 303.20288250000004,
          "velocity": 0.6299212598425197
        },
        {
          "duration": 0.4438780937499587,
          "durationTicks": 91,
          "midi": 68,
          "name": "G#4",
          "ticks": 62160,
          "time": 303.20288250000004,
          "velocity": 0.6299212598425197
        },
        {
          "duration": 0.4438780937499587,
          "durationTicks": 91,
          "midi": 72,
          "name": "C5",
          "ticks": 62160,
          "time": 303.20288250000004,
          "velocity": 0.6299212598425197
        },
        {
          "duration": 0.4438780937500155,
          "durationTicks": 91,
          "midi": 75,
          "name": "D#5",
          "ticks": 62256,
          "time": 303.6711495,
          "velocity": 0.6299212598425197
        },
        {
          "duration": 0.887756187500031,
          "durationTicks": 182,
          "midi": 62,
          "name": "D4",
          "ticks": 62352,
          "time": 304.13941650000004,
          "velocity": 0.6299212598425197
        },
        {
          "duration": 0.887756187500031,
          "durationTicks": 182,
          "midi": 65,
          "name": "F4",
          "ticks": 62352,
          "time": 304.13941650000004,
          "velocity": 0.6299212598425197
        },
        {
          "duration": 0.887756187500031,
          "durationTicks": 182,
          "midi": 70,
          "name": "A#4",
          "ticks": 62352,
          "time": 304.13941650000004,
          "velocity": 0.6299212598425197
        },
        {
          "duration": 0.887756187500031,
          "durationTicks": 182,
          "midi": 53,
          "name": "F3",
          "ticks": 62592,
          "time": 305.310084,
          "velocity": 0.6299212598425197
        },
        {
          "duration": 0.887756187500031,
          "durationTicks": 182,
          "midi": 58,
          "name": "A#3",
          "ticks": 62592,
          "time": 305.310084,
          "velocity": 0.6299212598425197
        },
        {
          "duration": 0.4438780937500155,
          "durationTicks": 91,
          "midi": 55,
          "name": "G3",
          "ticks": 62784,
          "time": 306.246618,
          "velocity": 0.6299212598425197
        },
        {
          "duration": 0.4438780937500155,
          "durationTicks": 91,
          "midi": 60,
          "name": "C4",
          "ticks": 62784,
          "time": 306.246618,
          "velocity": 0.6299212598425197
        },
        {
          "duration": 0.4438780937500155,
          "durationTicks": 91,
          "midi": 65,
          "name": "F4",
          "ticks": 62928,
          "time": 306.9490185,
          "velocity": 0.6299212598425197
        },
        {
          "duration": 0.4438780937500155,
          "durationTicks": 91,
          "midi": 72,
          "name": "C5",
          "ticks": 62928,
          "time": 306.9490185,
          "velocity": 0.6299212598425197
        },
        {
          "duration": 0.21950015624997832,
          "durationTicks": 45,
          "midi": 68,
          "name": "G#4",
          "ticks": 63024,
          "time": 307.41728550000005,
          "velocity": 0.6299212598425197
        },
        {
          "duration": 0.21950015624997832,
          "durationTicks": 45,
          "midi": 70,
          "name": "A#4",
          "ticks": 63072,
          "time": 307.65141900000003,
          "velocity": 0.6299212598425197
        },
        {
          "duration": 0.21950015625003516,
          "durationTicks": 45,
          "midi": 65,
          "name": "F4",
          "ticks": 63120,
          "time": 307.8855525,
          "velocity": 0.6299212598425197
        },
        {
          "duration": 0.4438780937500155,
          "durationTicks": 91,
          "midi": 68,
          "name": "G#4",
          "ticks": 63168,
          "time": 308.119686,
          "velocity": 0.6299212598425197
        },
        {
          "duration": 0.10731118749998814,
          "durationTicks": 22,
          "midi": 63,
          "name": "D#4",
          "ticks": 63264,
          "time": 308.587953,
          "velocity": 0.6299212598425197
        },
        {
          "duration": 0.21950015624997832,
          "durationTicks": 45,
          "midi": 65,
          "name": "F4",
          "ticks": 63294,
          "time": 308.73428643750003,
          "velocity": 0.6299212598425197
        },
        {
          "duration": 0.1073111874999313,
          "durationTicks": 22,
          "midi": 58,
          "name": "A#3",
          "ticks": 63360,
          "time": 309.05622000000005,
          "velocity": 0.6299212598425197
        },
        {
          "duration": 0.21950015624997832,
          "durationTicks": 45,
          "midi": 60,
          "name": "C4",
          "ticks": 63390,
          "time": 309.20255343750006,
          "velocity": 0.6299212598425197
        },
        {
          "duration": 0.10731118749998814,
          "durationTicks": 22,
          "midi": 58,
          "name": "A#3",
          "ticks": 63456,
          "time": 309.524487,
          "velocity": 0.6299212598425197
        },
        {
          "duration": 0.10731118749998814,
          "durationTicks": 22,
          "midi": 60,
          "name": "C4",
          "ticks": 63486,
          "time": 309.6708204375,
          "velocity": 0.6299212598425197
        },
        {
          "duration": 0.10731118749998814,
          "durationTicks": 22,
          "midi": 58,
          "name": "A#3",
          "ticks": 63504,
          "time": 309.7586205,
          "velocity": 0.6299212598425197
        },
        {
          "duration": 0.21950015625003516,
          "durationTicks": 45,
          "midi": 56,
          "name": "G#3",
          "ticks": 63534,
          "time": 309.9049539375,
          "velocity": 0.6299212598425197
        },
        {
          "duration": 0.1073111874999313,
          "durationTicks": 22,
          "midi": 56,
          "name": "G#3",
          "ticks": 63582,
          "time": 310.13908743750005,
          "velocity": 0.6299212598425197
        },
        {
          "duration": 0.10731118749998814,
          "durationTicks": 22,
          "midi": 56,
          "name": "G#3",
          "ticks": 63600,
          "time": 310.22688750000003,
          "velocity": 0.6299212598425197
        },
        {
          "duration": 0.10731118749998814,
          "durationTicks": 22,
          "midi": 53,
          "name": "F3",
          "ticks": 63630,
          "time": 310.37322093750004,
          "velocity": 0.6299212598425197
        },
        {
          "duration": 0.4438780937500155,
          "durationTicks": 91,
          "midi": 63,
          "name": "D#4",
          "ticks": 63696,
          "time": 310.6951545,
          "velocity": 0.6299212598425197
        },
        {
          "duration": 0.4438780937500155,
          "durationTicks": 91,
          "midi": 72,
          "name": "C5",
          "ticks": 63696,
          "time": 310.6951545,
          "velocity": 0.6299212598425197
        },
        {
          "duration": 0.21950015624997832,
          "durationTicks": 45,
          "midi": 68,
          "name": "G#4",
          "ticks": 63792,
          "time": 311.1634215,
          "velocity": 0.6299212598425197
        },
        {
          "duration": 0.21950015625003516,
          "durationTicks": 45,
          "midi": 70,
          "name": "A#4",
          "ticks": 63840,
          "time": 311.397555,
          "velocity": 0.6299212598425197
        },
        {
          "duration": 0.21950015624997832,
          "durationTicks": 45,
          "midi": 65,
          "name": "F4",
          "ticks": 63888,
          "time": 311.63168850000005,
          "velocity": 0.6299212598425197
        },
        {
          "duration": 0.4438780937499587,
          "durationTicks": 91,
          "midi": 68,
          "name": "G#4",
          "ticks": 63936,
          "time": 311.86582200000004,
          "velocity": 0.6299212598425197
        },
        {
          "duration": 0.10731118749998814,
          "durationTicks": 22,
          "midi": 63,
          "name": "D#4",
          "ticks": 64032,
          "time": 312.334089,
          "velocity": 0.6299212598425197
        },
        {
          "duration": 0.21950015625003516,
          "durationTicks": 45,
          "midi": 65,
          "name": "F4",
          "ticks": 64062,
          "time": 312.4804224375,
          "velocity": 0.6299212598425197
        },
        {
          "duration": 0.10731118749998814,
          "durationTicks": 22,
          "midi": 58,
          "name": "A#3",
          "ticks": 64128,
          "time": 312.80235600000003,
          "velocity": 0.6299212598425197
        },
        {
          "duration": 0.21950015624997832,
          "durationTicks": 45,
          "midi": 60,
          "name": "C4",
          "ticks": 64158,
          "time": 312.94868943750004,
          "velocity": 0.6299212598425197
        },
        {
          "duration": 0.1073111874999313,
          "durationTicks": 22,
          "midi": 53,
          "name": "F3",
          "ticks": 64224,
          "time": 313.27062300000006,
          "velocity": 0.6299212598425197
        },
        {
          "duration": 0.10731118749998814,
          "durationTicks": 22,
          "midi": 56,
          "name": "G#3",
          "ticks": 64254,
          "time": 313.4169564375,
          "velocity": 0.6299212598425197
        },
        {
          "duration": 0.10731118749998814,
          "durationTicks": 22,
          "midi": 58,
          "name": "A#3",
          "ticks": 64272,
          "time": 313.50475650000004,
          "velocity": 0.6299212598425197
        },
        {
          "duration": 0.10731118749998814,
          "durationTicks": 22,
          "midi": 60,
          "name": "C4",
          "ticks": 64302,
          "time": 313.65108993750005,
          "velocity": 0.6299212598425197
        },
        {
          "duration": 0.21950015624997832,
          "durationTicks": 45,
          "midi": 63,
          "name": "D#4",
          "ticks": 64320,
          "time": 313.73889,
          "velocity": 0.6299212598425197
        },
        {
          "duration": 0.10731118749998814,
          "durationTicks": 22,
          "midi": 60,
          "name": "C4",
          "ticks": 64368,
          "time": 313.9730235,
          "velocity": 0.6299212598425197
        },
        {
          "duration": 0.21950015625003516,
          "durationTicks": 45,
          "midi": 65,
          "name": "F4",
          "ticks": 64398,
          "time": 314.1193569375,
          "velocity": 0.6299212598425197
        },
        {
          "duration": 0.4438780937499587,
          "durationTicks": 91,
          "midi": 62,
          "name": "D4",
          "ticks": 64464,
          "time": 314.44129050000004,
          "velocity": 0.6299212598425197
        },
        {
          "duration": 0.4438780937499587,
          "durationTicks": 91,
          "midi": 72,
          "name": "C5",
          "ticks": 64464,
          "time": 314.44129050000004,
          "velocity": 0.6299212598425197
        },
        {
          "duration": 0.21950015625003516,
          "durationTicks": 45,
          "midi": 68,
          "name": "G#4",
          "ticks": 64560,
          "time": 314.9095575,
          "velocity": 0.6299212598425197
        },
        {
          "duration": 0.21950015624997832,
          "durationTicks": 45,
          "midi": 70,
          "name": "A#4",
          "ticks": 64608,
          "time": 315.14369100000005,
          "velocity": 0.6299212598425197
        },
        {
          "duration": 0.21950015624997832,
          "durationTicks": 45,
          "midi": 65,
          "name": "F4",
          "ticks": 64656,
          "time": 315.37782450000003,
          "velocity": 0.6299212598425197
        },
        {
          "duration": 0.4438780937500155,
          "durationTicks": 91,
          "midi": 68,
          "name": "G#4",
          "ticks": 64704,
          "time": 315.611958,
          "velocity": 0.6299212598425197
        },
        {
          "duration": 0.10731118749998814,
          "durationTicks": 22,
          "midi": 63,
          "name": "D#4",
          "ticks": 64800,
          "time": 316.08022500000004,
          "velocity": 0.6299212598425197
        },
        {
          "duration": 0.21950015624997832,
          "durationTicks": 45,
          "midi": 65,
          "name": "F4",
          "ticks": 64830,
          "time": 316.22655843750005,
          "velocity": 0.6299212598425197
        },
        {
          "duration": 0.10731118749998814,
          "durationTicks": 22,
          "midi": 58,
          "name": "A#3",
          "ticks": 64896,
          "time": 316.548492,
          "velocity": 0.6299212598425197
        },
        {
          "duration": 0.21950015625003516,
          "durationTicks": 45,
          "midi": 60,
          "name": "C4",
          "ticks": 64926,
          "time": 316.6948254375,
          "velocity": 0.6299212598425197
        },
        {
          "duration": 0.4438780937499587,
          "durationTicks": 91,
          "midi": 55,
          "name": "G3",
          "ticks": 64992,
          "time": 317.01675900000004,
          "velocity": 0.6299212598425197
        },
        {
          "duration": 0.4438780937499587,
          "durationTicks": 91,
          "midi": 58,
          "name": "A#3",
          "ticks": 64992,
          "time": 317.01675900000004,
          "velocity": 0.6299212598425197
        },
        {
          "duration": 0.4438780937500155,
          "durationTicks": 91,
          "midi": 55,
          "name": "G3",
          "ticks": 65088,
          "time": 317.485026,
          "velocity": 0.6299212598425197
        },
        {
          "duration": 0.4438780937499587,
          "durationTicks": 91,
          "midi": 67,
          "name": "G4",
          "ticks": 65184,
          "time": 317.95329300000003,
          "velocity": 0.6299212598425197
        },
        {
          "duration": 0.4438780937499587,
          "durationTicks": 91,
          "midi": 70,
          "name": "A#4",
          "ticks": 65184,
          "time": 317.95329300000003,
          "velocity": 0.6299212598425197
        },
        {
          "duration": 0.4438780937499587,
          "durationTicks": 91,
          "midi": 64,
          "name": "E4",
          "ticks": 65280,
          "time": 318.42156000000006,
          "velocity": 0.6299212598425197
        },
        {
          "duration": 0.4438780937499587,
          "durationTicks": 91,
          "midi": 67,
          "name": "G4",
          "ticks": 65280,
          "time": 318.42156000000006,
          "velocity": 0.6299212598425197
        },
        {
          "duration": 0.4438780937500155,
          "durationTicks": 91,
          "midi": 58,
          "name": "A#3",
          "ticks": 65376,
          "time": 318.889827,
          "velocity": 0.6299212598425197
        },
        {
          "duration": 0.4438780937499587,
          "durationTicks": 91,
          "midi": 60,
          "name": "C4",
          "ticks": 65472,
          "time": 319.35809400000005,
          "velocity": 0.6299212598425197
        },
        {
          "duration": 0.4438780937500155,
          "durationTicks": 91,
          "midi": 65,
          "name": "F4",
          "ticks": 65568,
          "time": 319.826361,
          "velocity": 0.6299212598425197
        },
        {
          "duration": 0.8877561874999742,
          "durationTicks": 182,
          "midi": 60,
          "name": "C4",
          "ticks": 65664,
          "time": 320.29462800000005,
          "velocity": 0.6299212598425197
        },
        {
          "duration": 0.8877561874999742,
          "durationTicks": 182,
          "midi": 63,
          "name": "D#4",
          "ticks": 65664,
          "time": 320.29462800000005,
          "velocity": 0.6299212598425197
        },
        {
          "duration": 0.6633782499999938,
          "durationTicks": 136,
          "midi": 60,
          "name": "C4",
          "ticks": 65856,
          "time": 321.23116200000004,
          "velocity": 0.6299212598425197
        },
        {
          "duration": 0.6633782499999938,
          "durationTicks": 136,
          "midi": 64,
          "name": "E4",
          "ticks": 65856,
          "time": 321.23116200000004,
          "velocity": 0.6299212598425197
        },
        {
          "duration": 0.4438780937499587,
          "durationTicks": 91,
          "midi": 60,
          "name": "C4",
          "ticks": 66000,
          "time": 321.93356250000005,
          "velocity": 0.6299212598425197
        },
        {
          "duration": 0.4438780937499587,
          "durationTicks": 91,
          "midi": 65,
          "name": "F4",
          "ticks": 66000,
          "time": 321.93356250000005,
          "velocity": 0.6299212598425197
        },
        {
          "duration": 0.4438780937499587,
          "durationTicks": 91,
          "midi": 72,
          "name": "C5",
          "ticks": 66000,
          "time": 321.93356250000005,
          "velocity": 0.6299212598425197
        },
        {
          "duration": 0.21950015625003516,
          "durationTicks": 45,
          "midi": 68,
          "name": "G#4",
          "ticks": 66096,
          "time": 322.4018295,
          "velocity": 0.6299212598425197
        },
        {
          "duration": 0.21950015625003516,
          "durationTicks": 45,
          "midi": 70,
          "name": "A#4",
          "ticks": 66144,
          "time": 322.635963,
          "velocity": 0.6299212598425197
        },
        {
          "duration": 0.21950015624997832,
          "durationTicks": 45,
          "midi": 65,
          "name": "F4",
          "ticks": 66192,
          "time": 322.87009650000005,
          "velocity": 0.6299212598425197
        },
        {
          "duration": 0.4438780937499587,
          "durationTicks": 91,
          "midi": 68,
          "name": "G#4",
          "ticks": 66240,
          "time": 323.10423000000003,
          "velocity": 0.6299212598425197
        },
        {
          "duration": 0.1073111874999313,
          "durationTicks": 22,
          "midi": 63,
          "name": "D#4",
          "ticks": 66336,
          "time": 323.57249700000006,
          "velocity": 0.6299212598425197
        },
        {
          "duration": 0.21950015625003516,
          "durationTicks": 45,
          "midi": 65,
          "name": "F4",
          "ticks": 66366,
          "time": 323.7188304375,
          "velocity": 0.6299212598425197
        },
        {
          "duration": 0.10731118749998814,
          "durationTicks": 22,
          "midi": 58,
          "name": "A#3",
          "ticks": 66432,
          "time": 324.040764,
          "velocity": 0.6299212598425197
        },
        {
          "duration": 0.21950015624997832,
          "durationTicks": 45,
          "midi": 60,
          "name": "C4",
          "ticks": 66462,
          "time": 324.18709743750003,
          "velocity": 0.6299212598425197
        },
        {
          "duration": 0.10731118749998814,
          "durationTicks": 22,
          "midi": 58,
          "name": "A#3",
          "ticks": 66528,
          "time": 324.50903100000005,
          "velocity": 0.6299212598425197
        },
        {
          "duration": 0.1073111874999313,
          "durationTicks": 22,
          "midi": 60,
          "name": "C4",
          "ticks": 66558,
          "time": 324.65536443750005,
          "velocity": 0.6299212598425197
        },
        {
          "duration": 0.10731118749998814,
          "durationTicks": 22,
          "midi": 58,
          "name": "A#3",
          "ticks": 66576,
          "time": 324.74316450000003,
          "velocity": 0.6299212598425197
        },
        {
          "duration": 0.21950015624997832,
          "durationTicks": 45,
          "midi": 56,
          "name": "G#3",
          "ticks": 66606,
          "time": 324.88949793750004,
          "velocity": 0.6299212598425197
        },
        {
          "duration": 0.10731118749998814,
          "durationTicks": 22,
          "midi": 56,
          "name": "G#3",
          "ticks": 66654,
          "time": 325.1236314375,
          "velocity": 0.6299212598425197
        },
        {
          "duration": 0.10731118749998814,
          "durationTicks": 22,
          "midi": 56,
          "name": "G#3",
          "ticks": 66672,
          "time": 325.2114315,
          "velocity": 0.6299212598425197
        },
        {
          "duration": 0.10731118749998814,
          "durationTicks": 22,
          "midi": 53,
          "name": "F3",
          "ticks": 66702,
          "time": 325.3577649375,
          "velocity": 0.6299212598425197
        },
        {
          "duration": 0.4438780937499587,
          "durationTicks": 91,
          "midi": 60,
          "name": "C4",
          "ticks": 66768,
          "time": 325.67969850000003,
          "velocity": 0.6299212598425197
        },
        {
          "duration": 0.4438780937499587,
          "durationTicks": 91,
          "midi": 65,
          "name": "F4",
          "ticks": 66768,
          "time": 325.67969850000003,
          "velocity": 0.6299212598425197
        },
        {
          "duration": 0.4438780937499587,
          "durationTicks": 91,
          "midi": 68,
          "name": "G#4",
          "ticks": 66768,
          "time": 325.67969850000003,
          "velocity": 0.6299212598425197
        },
        {
          "duration": 0.4438780937499587,
          "durationTicks": 91,
          "midi": 72,
          "name": "C5",
          "ticks": 66768,
          "time": 325.67969850000003,
          "velocity": 0.6299212598425197
        },
        {
          "duration": 0.21950015624997832,
          "durationTicks": 45,
          "midi": 68,
          "name": "G#4",
          "ticks": 66864,
          "time": 326.14796550000005,
          "velocity": 0.6299212598425197
        },
        {
          "duration": 0.21950015624997832,
          "durationTicks": 45,
          "midi": 70,
          "name": "A#4",
          "ticks": 66912,
          "time": 326.38209900000004,
          "velocity": 0.6299212598425197
        },
        {
          "duration": 0.21950015625003516,
          "durationTicks": 45,
          "midi": 65,
          "name": "F4",
          "ticks": 66960,
          "time": 326.6162325,
          "velocity": 0.6299212598425197
        },
        {
          "duration": 0.4438780937500155,
          "durationTicks": 91,
          "midi": 68,
          "name": "G#4",
          "ticks": 67008,
          "time": 326.850366,
          "velocity": 0.6299212598425197
        },
        {
          "duration": 0.10731118749998814,
          "durationTicks": 22,
          "midi": 63,
          "name": "D#4",
          "ticks": 67104,
          "time": 327.31863300000003,
          "velocity": 0.6299212598425197
        },
        {
          "duration": 0.21950015624997832,
          "durationTicks": 45,
          "midi": 65,
          "name": "F4",
          "ticks": 67134,
          "time": 327.46496643750004,
          "velocity": 0.6299212598425197
        },
        {
          "duration": 0.10731118749998814,
          "durationTicks": 22,
          "midi": 58,
          "name": "A#3",
          "ticks": 67200,
          "time": 327.7869,
          "velocity": 0.6299212598425197
        },
        {
          "duration": 0.21950015625003516,
          "durationTicks": 45,
          "midi": 60,
          "name": "C4",
          "ticks": 67230,
          "time": 327.9332334375,
          "velocity": 0.6299212598425197
        },
        {
          "duration": 0.10731118749998814,
          "durationTicks": 22,
          "midi": 53,
          "name": "F3",
          "ticks": 67296,
          "time": 328.25516700000003,
          "velocity": 0.6299212598425197
        },
        {
          "duration": 0.10731118749998814,
          "durationTicks": 22,
          "midi": 56,
          "name": "G#3",
          "ticks": 67326,
          "time": 328.40150043750003,
          "velocity": 0.6299212598425197
        },
        {
          "duration": 0.10731118749998814,
          "durationTicks": 22,
          "midi": 58,
          "name": "A#3",
          "ticks": 67344,
          "time": 328.4893005,
          "velocity": 0.6299212598425197
        },
        {
          "duration": 0.10731118749998814,
          "durationTicks": 22,
          "midi": 60,
          "name": "C4",
          "ticks": 67374,
          "time": 328.6356339375,
          "velocity": 0.6299212598425197
        },
        {
          "duration": 0.21950015624997832,
          "durationTicks": 45,
          "midi": 63,
          "name": "D#4",
          "ticks": 67392,
          "time": 328.72343400000005,
          "velocity": 0.6299212598425197
        },
        {
          "duration": 0.10731118749998814,
          "durationTicks": 22,
          "midi": 60,
          "name": "C4",
          "ticks": 67440,
          "time": 328.95756750000004,
          "velocity": 0.6299212598425197
        },
        {
          "duration": 0.21950015624997832,
          "durationTicks": 45,
          "midi": 65,
          "name": "F4",
          "ticks": 67470,
          "time": 329.10390093750004,
          "velocity": 0.6299212598425197
        },
        {
          "duration": 0.4438780937500155,
          "durationTicks": 91,
          "midi": 62,
          "name": "D4",
          "ticks": 67536,
          "time": 329.4258345,
          "velocity": 0.6299212598425197
        },
        {
          "duration": 0.4438780937500155,
          "durationTicks": 91,
          "midi": 65,
          "name": "F4",
          "ticks": 67536,
          "time": 329.4258345,
          "velocity": 0.6299212598425197
        },
        {
          "duration": 0.4438780937500155,
          "durationTicks": 91,
          "midi": 68,
          "name": "G#4",
          "ticks": 67536,
          "time": 329.4258345,
          "velocity": 0.6299212598425197
        },
        {
          "duration": 0.4438780937500155,
          "durationTicks": 91,
          "midi": 72,
          "name": "C5",
          "ticks": 67536,
          "time": 329.4258345,
          "velocity": 0.6299212598425197
        },
        {
          "duration": 0.21950015624997832,
          "durationTicks": 45,
          "midi": 68,
          "name": "G#4",
          "ticks": 67632,
          "time": 329.89410150000003,
          "velocity": 0.6299212598425197
        },
        {
          "duration": 0.21950015625003516,
          "durationTicks": 45,
          "midi": 70,
          "name": "A#4",
          "ticks": 67680,
          "time": 330.128235,
          "velocity": 0.6299212598425197
        },
        {
          "duration": 0.21950015624997832,
          "durationTicks": 45,
          "midi": 65,
          "name": "F4",
          "ticks": 67728,
          "time": 330.36236850000006,
          "velocity": 0.6299212598425197
        },
        {
          "duration": 0.4438780937499587,
          "durationTicks": 91,
          "midi": 68,
          "name": "G#4",
          "ticks": 67776,
          "time": 330.59650200000004,
          "velocity": 0.6299212598425197
        },
        {
          "duration": 0.10731118749998814,
          "durationTicks": 22,
          "midi": 63,
          "name": "D#4",
          "ticks": 67872,
          "time": 331.064769,
          "velocity": 0.6299212598425197
        },
        {
          "duration": 0.21950015625003516,
          "durationTicks": 45,
          "midi": 65,
          "name": "F4",
          "ticks": 67902,
          "time": 331.2111024375,
          "velocity": 0.6299212598425197
        },
        {
          "duration": 0.10731118749998814,
          "durationTicks": 22,
          "midi": 58,
          "name": "A#3",
          "ticks": 67968,
          "time": 331.53303600000004,
          "velocity": 0.6299212598425197
        },
        {
          "duration": 0.21950015624997832,
          "durationTicks": 45,
          "midi": 60,
          "name": "C4",
          "ticks": 67998,
          "time": 331.67936943750004,
          "velocity": 0.6299212598425197
        },
        {
          "duration": 0.4438780937500155,
          "durationTicks": 91,
          "midi": 55,
          "name": "G3",
          "ticks": 68064,
          "time": 332.001303,
          "velocity": 0.6299212598425197
        },
        {
          "duration": 0.4438780937500155,
          "durationTicks": 91,
          "midi": 58,
          "name": "A#3",
          "ticks": 68064,
          "time": 332.001303,
          "velocity": 0.6299212598425197
        },
        {
          "duration": 0.4438780937499587,
          "durationTicks": 91,
          "midi": 55,
          "name": "G3",
          "ticks": 68160,
          "time": 332.46957000000003,
          "velocity": 0.6299212598425197
        },
        {
          "duration": 0.4438780937499587,
          "durationTicks": 91,
          "midi": 65,
          "name": "F4",
          "ticks": 68256,
          "time": 332.93783700000006,
          "velocity": 0.6299212598425197
        },
        {
          "duration": 0.4438780937499587,
          "durationTicks": 91,
          "midi": 70,
          "name": "A#4",
          "ticks": 68256,
          "time": 332.93783700000006,
          "velocity": 0.6299212598425197
        },
        {
          "duration": 0.4438780937499587,
          "durationTicks": 91,
          "midi": 59,
          "name": "B3",
          "ticks": 68352,
          "time": 333.406104,
          "velocity": 0.6299212598425197
        },
        {
          "duration": 0.4438780937499587,
          "durationTicks": 91,
          "midi": 67,
          "name": "G4",
          "ticks": 68352,
          "time": 333.406104,
          "velocity": 0.6299212598425197
        },
        {
          "duration": 0.4438780937499587,
          "durationTicks": 91,
          "midi": 58,
          "name": "A#3",
          "ticks": 68448,
          "time": 333.87437100000005,
          "velocity": 0.6299212598425197
        },
        {
          "duration": 0.4438780937500155,
          "durationTicks": 91,
          "midi": 60,
          "name": "C4",
          "ticks": 68544,
          "time": 334.342638,
          "velocity": 0.6299212598425197
        },
        {
          "duration": 0.4438780937499587,
          "durationTicks": 91,
          "midi": 63,
          "name": "D#4",
          "ticks": 68640,
          "time": 334.81090500000005,
          "velocity": 0.6299212598425197
        },
        {
          "duration": 1.7755123750000052,
          "durationTicks": 364,
          "midi": 64,
          "name": "E4",
          "ticks": 68736,
          "time": 335.279172,
          "velocity": 0.6299212598425197
        },
        {
          "duration": 0.10731118749998814,
          "durationTicks": 22,
          "midi": 65,
          "name": "F4",
          "ticks": 69120,
          "time": 337.15224,
          "velocity": 0.6299212598425197
        },
        {
          "duration": 0.10731118749998814,
          "durationTicks": 22,
          "midi": 65,
          "name": "F4",
          "ticks": 69150,
          "time": 337.2985734375,
          "velocity": 0.6299212598425197
        },
        {
          "duration": 0.21950015624997832,
          "durationTicks": 45,
          "midi": 65,
          "name": "F4",
          "ticks": 69168,
          "time": 337.38637350000005,
          "velocity": 0.6299212598425197
        },
        {
          "duration": 0.21950015624997832,
          "durationTicks": 45,
          "midi": 64,
          "name": "E4",
          "ticks": 69216,
          "time": 337.62050700000003,
          "velocity": 0.6299212598425197
        },
        {
          "duration": 0.21950015625003516,
          "durationTicks": 45,
          "midi": 64,
          "name": "E4",
          "ticks": 69264,
          "time": 337.8546405,
          "velocity": 0.6299212598425197
        },
        {
          "duration": 0.21950015624997832,
          "durationTicks": 45,
          "midi": 63,
          "name": "D#4",
          "ticks": 69312,
          "time": 338.08877400000006,
          "velocity": 0.6299212598425197
        },
        {
          "duration": 0.21950015624997832,
          "durationTicks": 45,
          "midi": 63,
          "name": "D#4",
          "ticks": 69360,
          "time": 338.32290750000004,
          "velocity": 0.6299212598425197
        },
        {
          "duration": 0.21950015624997832,
          "durationTicks": 45,
          "midi": 62,
          "name": "D4",
          "ticks": 69408,
          "time": 338.557041,
          "velocity": 0.6299212598425197
        },
        {
          "duration": 0.21950015625003516,
          "durationTicks": 45,
          "midi": 61,
          "name": "C#4",
          "ticks": 69456,
          "time": 338.7911745,
          "velocity": 0.6299212598425197
        },
        {
          "duration": 0.10731118749998814,
          "durationTicks": 22,
          "midi": 60,
          "name": "C4",
          "ticks": 69504,
          "time": 339.02530800000005,
          "velocity": 0.6299212598425197
        },
        {
          "duration": 0.1073111874999313,
          "durationTicks": 22,
          "midi": 60,
          "name": "C4",
          "ticks": 69534,
          "time": 339.17164143750006,
          "velocity": 0.6299212598425197
        },
        {
          "duration": 0.21950015624997832,
          "durationTicks": 45,
          "midi": 60,
          "name": "C4",
          "ticks": 69552,
          "time": 339.25944150000004,
          "velocity": 0.6299212598425197
        },
        {
          "duration": 0.21950015625003516,
          "durationTicks": 45,
          "midi": 59,
          "name": "B3",
          "ticks": 69600,
          "time": 339.493575,
          "velocity": 0.6299212598425197
        },
        {
          "duration": 0.21950015625003516,
          "durationTicks": 45,
          "midi": 59,
          "name": "B3",
          "ticks": 69648,
          "time": 339.7277085,
          "velocity": 0.6299212598425197
        },
        {
          "duration": 0.21950015624997832,
          "durationTicks": 45,
          "midi": 58,
          "name": "A#3",
          "ticks": 69696,
          "time": 339.96184200000005,
          "velocity": 0.6299212598425197
        },
        {
          "duration": 0.21950015624997832,
          "durationTicks": 45,
          "midi": 58,
          "name": "A#3",
          "ticks": 69744,
          "time": 340.19597550000003,
          "velocity": 0.6299212598425197
        },
        {
          "duration": 0.21950015625003516,
          "durationTicks": 45,
          "midi": 56,
          "name": "G#3",
          "ticks": 69792,
          "time": 340.430109,
          "velocity": 0.6299212598425197
        },
        {
          "duration": 0.21950015624997832,
          "durationTicks": 45,
          "midi": 53,
          "name": "F3",
          "ticks": 69840,
          "time": 340.66424250000006,
          "velocity": 0.6299212598425197
        },
        {
          "duration": 0.10731118749998814,
          "durationTicks": 22,
          "midi": 65,
          "name": "F4",
          "ticks": 69888,
          "time": 340.89837600000004,
          "velocity": 0.6299212598425197
        },
        {
          "duration": 0.10731118749998814,
          "durationTicks": 22,
          "midi": 65,
          "name": "F4",
          "ticks": 69918,
          "time": 341.04470943750005,
          "velocity": 0.6299212598425197
        },
        {
          "duration": 0.21950015624997832,
          "durationTicks": 45,
          "midi": 65,
          "name": "F4",
          "ticks": 69936,
          "time": 341.1325095,
          "velocity": 0.6299212598425197
        },
        {
          "duration": 0.21950015625003516,
          "durationTicks": 45,
          "midi": 64,
          "name": "E4",
          "ticks": 69984,
          "time": 341.366643,
          "velocity": 0.6299212598425197
        },
        {
          "duration": 0.21950015624997832,
          "durationTicks": 45,
          "midi": 64,
          "name": "E4",
          "ticks": 70032,
          "time": 341.60077650000005,
          "velocity": 0.6299212598425197
        },
        {
          "duration": 0.21950015624997832,
          "durationTicks": 45,
          "midi": 63,
          "name": "D#4",
          "ticks": 70080,
          "time": 341.83491000000004,
          "velocity": 0.6299212598425197
        },
        {
          "duration": 0.21950015625003516,
          "durationTicks": 45,
          "midi": 63,
          "name": "D#4",
          "ticks": 70128,
          "time": 342.0690435,
          "velocity": 0.6299212598425197
        },
        {
          "duration": 0.21950015625003516,
          "durationTicks": 45,
          "midi": 62,
          "name": "D4",
          "ticks": 70176,
          "time": 342.303177,
          "velocity": 0.6299212598425197
        },
        {
          "duration": 0.21950015624997832,
          "durationTicks": 45,
          "midi": 61,
          "name": "C#4",
          "ticks": 70224,
          "time": 342.53731050000005,
          "velocity": 0.6299212598425197
        },
        {
          "duration": 0.10731118749998814,
          "durationTicks": 22,
          "midi": 60,
          "name": "C4",
          "ticks": 70272,
          "time": 342.77144400000003,
          "velocity": 0.6299212598425197
        },
        {
          "duration": 0.10731118749998814,
          "durationTicks": 22,
          "midi": 60,
          "name": "C4",
          "ticks": 70302,
          "time": 342.91777743750004,
          "velocity": 0.6299212598425197
        },
        {
          "duration": 0.21950015625003516,
          "durationTicks": 45,
          "midi": 60,
          "name": "C4",
          "ticks": 70320,
          "time": 343.0055775,
          "velocity": 0.6299212598425197
        },
        {
          "duration": 0.21950015624997832,
          "durationTicks": 45,
          "midi": 59,
          "name": "B3",
          "ticks": 70368,
          "time": 343.23971100000006,
          "velocity": 0.6299212598425197
        },
        {
          "duration": 0.21950015624997832,
          "durationTicks": 45,
          "midi": 59,
          "name": "B3",
          "ticks": 70416,
          "time": 343.47384450000004,
          "velocity": 0.6299212598425197
        },
        {
          "duration": 0.21950015625003516,
          "durationTicks": 45,
          "midi": 58,
          "name": "A#3",
          "ticks": 70464,
          "time": 343.707978,
          "velocity": 0.6299212598425197
        },
        {
          "duration": 0.21950015625003516,
          "durationTicks": 45,
          "midi": 58,
          "name": "A#3",
          "ticks": 70512,
          "time": 343.9421115,
          "velocity": 0.6299212598425197
        },
        {
          "duration": 0.21950015624997832,
          "durationTicks": 45,
          "midi": 56,
          "name": "G#3",
          "ticks": 70560,
          "time": 344.17624500000005,
          "velocity": 0.6299212598425197
        },
        {
          "duration": 0.21950015624997832,
          "durationTicks": 45,
          "midi": 53,
          "name": "F3",
          "ticks": 70608,
          "time": 344.41037850000004,
          "velocity": 0.6299212598425197
        }
      ],
      "endOfTrackTicks": 72579
    },
    {
      "channel": 0,
      "controlChanges": {
        "6": [
          {
            "number": 6,
            "ticks": 0,
            "time": 0,
            "value": 0.09448818897637795
          },
          {
            "number": 6,
            "ticks": 0,
            "time": 0,
            "value": 0.09448818897637795
          },
          {
            "number": 6,
            "ticks": 0,
            "time": 0,
            "value": 0.09448818897637795
          },
          {
            "number": 6,
            "ticks": 72576,
            "time": 354.009852,
            "value": 0.09448818897637795
          },
          {
            "number": 6,
            "ticks": 72579,
            "time": 354.02448534375003,
            "value": 0.09448818897637795
          }
        ],
        "7": [
          {
            "number": 7,
            "ticks": 0,
            "time": 0,
            "value": 0.7874015748031497
          },
          {
            "number": 7,
            "ticks": 0,
            "time": 0,
            "value": 0.7874015748031497
          },
          {
            "number": 7,
            "ticks": 0,
            "time": 0,
            "value": 0.7874015748031497
          },
          {
            "number": 7,
            "ticks": 0,
            "time": 0,
            "value": 0.7874015748031497
          },
          {
            "number": 7,
            "ticks": 72576,
            "time": 354.009852,
            "value": 0.7874015748031497
          },
          {
            "number": 7,
            "ticks": 72579,
            "time": 354.02448534375003,
            "value": 0.7874015748031497
          }
        ],
        "10": [
          {
            "number": 10,
            "ticks": 0,
            "time": 0,
            "value": 0.5039370078740157
          },
          {
            "number": 10,
            "ticks": 0,
            "time": 0,
            "value": 0.5039370078740157
          },
          {
            "number": 10,
            "ticks": 0,
            "time": 0,
            "value": 0.5039370078740157
          },
          {
            "number": 10,
            "ticks": 0,
            "time": 0,
            "value": 0.5039370078740157
          },
          {
            "number": 10,
            "ticks": 72576,
            "time": 354.009852,
            "value": 0.5039370078740157
          },
          {
            "number": 10,
            "ticks": 72579,
            "time": 354.02448534375003,
            "value": 0.5039370078740157
          }
        ],
        "100": [
          {
            "number": 100,
            "ticks": 0,
            "time": 0,
            "value": 0
          },
          {
            "number": 100,
            "ticks": 0,
            "time": 0,
            "value": 0
          },
          {
            "number": 100,
            "ticks": 0,
            "time": 0,
            "value": 0
          },
          {
            "number": 100,
            "ticks": 72576,
            "time": 354.009852,
            "value": 0
          },
          {
            "number": 100,
            "ticks": 72579,
            "time": 354.02448534375003,
            "value": 0
          }
        ],
        "101": [
          {
            "number": 101,
            "ticks": 0,
            "time": 0,
            "value": 0
          },
          {
            "number": 101,
            "ticks": 0,
            "time": 0,
            "value": 0
          },
          {
            "number": 101,
            "ticks": 0,
            "time": 0,
            "value": 0
          },
          {
            "number": 101,
            "ticks": 72576,
            "time": 354.009852,
            "value": 0
          },
          {
            "number": 101,
            "ticks": 72579,
            "time": 354.02448534375003,
            "value": 0
          }
        ]
      },
      "pitchBends": [
        {
          "ticks": 0,
          "time": 0,
          "value": 0
        },
        {
          "ticks": 0,
          "time": 0,
          "value": 0
        },
        {
          "ticks": 0,
          "time": 0,
          "value": 0
        },
        {
          "ticks": 0,
          "time": 0,
          "value": 0
        },
        {
          "ticks": 72576,
          "time": 354.009852,
          "value": 0
        },
        {
          "ticks": 72579,
          "time": 354.02448534375003,
          "value": 0
        }
      ],
      "instrument": {
        "family": "piano",
        "number": 0,
        "name": "acoustic grand piano"
      },
      "name": "MIDI Out #2",
      "notes": [
        {
          "duration": 0.8877561874999991,
          "durationTicks": 182,
          "midi": 53,
          "name": "F3",
          "ticks": 5376,
          "time": 26.222952000000003,
          "velocity": 0.6299212598425197
        },
        {
          "duration": 0.8877561875000026,
          "durationTicks": 182,
          "midi": 53,
          "name": "F3",
          "ticks": 5568,
          "time": 27.159486,
          "velocity": 0.6299212598425197
        },
        {
          "duration": 0.8877561875000026,
          "durationTicks": 182,
          "midi": 41,
          "name": "F2",
          "ticks": 5760,
          "time": 28.096020000000003,
          "velocity": 0.6299212598425197
        },
        {
          "duration": 0.8877561875000026,
          "durationTicks": 182,
          "midi": 41,
          "name": "F2",
          "ticks": 5952,
          "time": 29.032554,
          "velocity": 0.6299212598425197
        },
        {
          "duration": 0.4438780937500013,
          "durationTicks": 91,
          "midi": 53,
          "name": "F3",
          "ticks": 6144,
          "time": 29.969088000000003,
          "velocity": 0.6299212598425197
        },
        {
          "duration": 0.4438780937500013,
          "durationTicks": 91,
          "midi": 53,
          "name": "F3",
          "ticks": 6240,
          "time": 30.437355000000004,
          "velocity": 0.6299212598425197
        },
        {
          "duration": 0.4438780937500013,
          "durationTicks": 91,
          "midi": 53,
          "name": "F3",
          "ticks": 6336,
          "time": 30.905622000000005,
          "velocity": 0.6299212598425197
        },
        {
          "duration": 0.44387809375000487,
          "durationTicks": 91,
          "midi": 53,
          "name": "F3",
          "ticks": 6432,
          "time": 31.373889000000002,
          "velocity": 0.6299212598425197
        },
        {
          "duration": 0.4438780937500013,
          "durationTicks": 91,
          "midi": 53,
          "name": "F3",
          "ticks": 6528,
          "time": 31.842156000000003,
          "velocity": 0.6299212598425197
        },
        {
          "duration": 0.4438780937500084,
          "durationTicks": 91,
          "midi": 53,
          "name": "F3",
          "ticks": 6624,
          "time": 32.310423,
          "velocity": 0.6299212598425197
        },
        {
          "duration": 0.4438780937500013,
          "durationTicks": 91,
          "midi": 53,
          "name": "F3",
          "ticks": 6720,
          "time": 32.778690000000005,
          "velocity": 0.6299212598425197
        },
        {
          "duration": 0.4438780937500013,
          "durationTicks": 91,
          "midi": 54,
          "name": "F#3",
          "ticks": 6816,
          "time": 33.246957,
          "velocity": 0.6299212598425197
        },
        {
          "duration": 0.4438780937500013,
          "durationTicks": 91,
          "midi": 53,
          "name": "F3",
          "ticks": 6912,
          "time": 33.715224000000006,
          "velocity": 0.6299212598425197
        },
        {
          "duration": 0.4438780937500013,
          "durationTicks": 91,
          "midi": 53,
          "name": "F3",
          "ticks": 7008,
          "time": 34.183491000000004,
          "velocity": 0.6299212598425197
        },
        {
          "duration": 0.4438780937500013,
          "durationTicks": 91,
          "midi": 53,
          "name": "F3",
          "ticks": 7104,
          "time": 34.651758,
          "velocity": 0.6299212598425197
        },
        {
          "duration": 0.4438780937500013,
          "durationTicks": 91,
          "midi": 53,
          "name": "F3",
          "ticks": 7200,
          "time": 35.120025000000005,
          "velocity": 0.6299212598425197
        },
        {
          "duration": 0.4438780937500013,
          "durationTicks": 91,
          "midi": 53,
          "name": "F3",
          "ticks": 7296,
          "time": 35.588292,
          "velocity": 0.6299212598425197
        },
        {
          "duration": 0.4438780937500084,
          "durationTicks": 91,
          "midi": 53,
          "name": "F3",
          "ticks": 7392,
          "time": 36.056559,
          "velocity": 0.6299212598425197
        },
        {
          "duration": 0.4438780937500013,
          "durationTicks": 91,
          "midi": 53,
          "name": "F3",
          "ticks": 7488,
          "time": 36.524826000000004,
          "velocity": 0.6299212598425197
        },
        {
          "duration": 0.4438780937500013,
          "durationTicks": 91,
          "midi": 54,
          "name": "F#3",
          "ticks": 7584,
          "time": 36.993093,
          "velocity": 0.6299212598425197
        },
        {
          "duration": 0.4438780937500013,
          "durationTicks": 91,
          "midi": 41,
          "name": "F2",
          "ticks": 7680,
          "time": 37.461360000000006,
          "velocity": 0.6299212598425197
        },
        {
          "duration": 0.4438780937500013,
          "durationTicks": 91,
          "midi": 53,
          "name": "F3",
          "ticks": 7680,
          "time": 37.461360000000006,
          "velocity": 0.6299212598425197
        },
        {
          "duration": 0.4438780937500013,
          "durationTicks": 91,
          "midi": 41,
          "name": "F2",
          "ticks": 7776,
          "time": 37.929627,
          "velocity": 0.6299212598425197
        },
        {
          "duration": 0.4438780937500013,
          "durationTicks": 91,
          "midi": 53,
          "name": "F3",
          "ticks": 7776,
          "time": 37.929627,
          "velocity": 0.6299212598425197
        },
        {
          "duration": 0.4438780937500084,
          "durationTicks": 91,
          "midi": 41,
          "name": "F2",
          "ticks": 7872,
          "time": 38.397894,
          "velocity": 0.6299212598425197
        },
        {
          "duration": 0.4438780937500084,
          "durationTicks": 91,
          "midi": 53,
          "name": "F3",
          "ticks": 7872,
          "time": 38.397894,
          "velocity": 0.6299212598425197
        },
        {
          "duration": 0.4438780937500013,
          "durationTicks": 91,
          "midi": 41,
          "name": "F2",
          "ticks": 7968,
          "time": 38.866161000000005,
          "velocity": 0.6299212598425197
        },
        {
          "duration": 0.4438780937500013,
          "durationTicks": 91,
          "midi": 53,
          "name": "F3",
          "ticks": 7968,
          "time": 38.866161000000005,
          "velocity": 0.6299212598425197
        },
        {
          "duration": 0.4438780937500013,
          "durationTicks": 91,
          "midi": 41,
          "name": "F2",
          "ticks": 8064,
          "time": 39.334428,
          "velocity": 0.6299212598425197
        },
        {
          "duration": 0.4438780937500013,
          "durationTicks": 91,
          "midi": 53,
          "name": "F3",
          "ticks": 8064,
          "time": 39.334428,
          "velocity": 0.6299212598425197
        },
        {
          "duration": 0.4438780937500013,
          "durationTicks": 91,
          "midi": 41,
          "name": "F2",
          "ticks": 8160,
          "time": 39.80269500000001,
          "velocity": 0.6299212598425197
        },
        {
          "duration": 0.4438780937500013,
          "durationTicks": 91,
          "midi": 53,
          "name": "F3",
          "ticks": 8160,
          "time": 39.80269500000001,
          "velocity": 0.6299212598425197
        },
        {
          "duration": 0.21950015624999963,
          "durationTicks": 45,
          "midi": 41,
          "name": "F2",
          "ticks": 8256,
          "time": 40.270962000000004,
          "velocity": 0.6299212598425197
        },
        {
          "duration": 0.21950015624999963,
          "durationTicks": 45,
          "midi": 53,
          "name": "F3",
          "ticks": 8256,
          "time": 40.270962000000004,
          "velocity": 0.6299212598425197
        },
        {
          "duration": 0.21950015624999963,
          "durationTicks": 45,
          "midi": 48,
          "name": "C3",
          "ticks": 8304,
          "time": 40.5050955,
          "velocity": 0.6299212598425197
        },
        {
          "duration": 0.4438780937500013,
          "durationTicks": 91,
          "midi": 42,
          "name": "F#2",
          "ticks": 8352,
          "time": 40.739229,
          "velocity": 0.6299212598425197
        },
        {
          "duration": 0.4438780937500013,
          "durationTicks": 91,
          "midi": 54,
          "name": "F#3",
          "ticks": 8352,
          "time": 40.739229,
          "velocity": 0.6299212598425197
        },
        {
          "duration": 0.21950015624999963,
          "durationTicks": 45,
          "midi": 41,
          "name": "F2",
          "ticks": 8448,
          "time": 41.207496000000006,
          "velocity": 0.6299212598425197
        },
        {
          "duration": 0.21950015624999963,
          "durationTicks": 45,
          "midi": 53,
          "name": "F3",
          "ticks": 8496,
          "time": 41.441629500000005,
          "velocity": 0.6299212598425197
        },
        {
          "duration": 0.21950015624999963,
          "durationTicks": 45,
          "midi": 41,
          "name": "F2",
          "ticks": 8544,
          "time": 41.675763,
          "velocity": 0.6299212598425197
        },
        {
          "duration": 0.21950015624999963,
          "durationTicks": 45,
          "midi": 53,
          "name": "F3",
          "ticks": 8592,
          "time": 41.9098965,
          "velocity": 0.6299212598425197
        },
        {
          "duration": 0.21950015625000674,
          "durationTicks": 45,
          "midi": 41,
          "name": "F2",
          "ticks": 8640,
          "time": 42.14403,
          "velocity": 0.6299212598425197
        },
        {
          "duration": 0.21950015624999963,
          "durationTicks": 45,
          "midi": 53,
          "name": "F3",
          "ticks": 8688,
          "time": 42.37816350000001,
          "velocity": 0.6299212598425197
        },
        {
          "duration": 0.21950015624999963,
          "durationTicks": 45,
          "midi": 41,
          "name": "F2",
          "ticks": 8736,
          "time": 42.612297000000005,
          "velocity": 0.6299212598425197
        },
        {
          "duration": 0.21950015624999963,
          "durationTicks": 45,
          "midi": 53,
          "name": "F3",
          "ticks": 8784,
          "time": 42.846430500000004,
          "velocity": 0.6299212598425197
        },
        {
          "duration": 0.21950015624999963,
          "durationTicks": 45,
          "midi": 41,
          "name": "F2",
          "ticks": 8832,
          "time": 43.080564,
          "velocity": 0.6299212598425197
        },
        {
          "duration": 0.21950015624999963,
          "durationTicks": 45,
          "midi": 53,
          "name": "F3",
          "ticks": 8880,
          "time": 43.3146975,
          "velocity": 0.6299212598425197
        },
        {
          "duration": 0.21950015624999963,
          "durationTicks": 45,
          "midi": 41,
          "name": "F2",
          "ticks": 8928,
          "time": 43.54883100000001,
          "velocity": 0.6299212598425197
        },
        {
          "duration": 0.21950015624999963,
          "durationTicks": 45,
          "midi": 53,
          "name": "F3",
          "ticks": 8976,
          "time": 43.782964500000006,
          "velocity": 0.6299212598425197
        },
        {
          "duration": 0.21950015624999963,
          "durationTicks": 45,
          "midi": 41,
          "name": "F2",
          "ticks": 9024,
          "time": 44.017098000000004,
          "velocity": 0.6299212598425197
        },
        {
          "duration": 0.21950015624999963,
          "durationTicks": 45,
          "midi": 53,
          "name": "F3",
          "ticks": 9072,
          "time": 44.2512315,
          "velocity": 0.6299212598425197
        },
        {
          "duration": 0.4438780937500084,
          "durationTicks": 91,
          "midi": 42,
          "name": "F#2",
          "ticks": 9120,
          "time": 44.485365,
          "velocity": 0.6299212598425197
        },
        {
          "duration": 0.4438780937500084,
          "durationTicks": 91,
          "midi": 54,
          "name": "F#3",
          "ticks": 9120,
          "time": 44.485365,
          "velocity": 0.6299212598425197
        },
        {
          "duration": 0.21950015624999963,
          "durationTicks": 45,
          "midi": 41,
          "name": "F2",
          "ticks": 9216,
          "time": 44.953632000000006,
          "velocity": 0.6299212598425197
        },
        {
          "duration": 0.21950015624999963,
          "durationTicks": 45,
          "midi": 53,
          "name": "F3",
          "ticks": 9264,
          "time": 45.187765500000005,
          "velocity": 0.6299212598425197
        },
        {
          "duration": 0.21950015624999963,
          "durationTicks": 45,
          "midi": 41,
          "name": "F2",
          "ticks": 9312,
          "time": 45.421899,
          "velocity": 0.6299212598425197
        },
        {
          "duration": 0.21950015624999963,
          "durationTicks": 45,
          "midi": 53,
          "name": "F3",
          "ticks": 9360,
          "time": 45.6560325,
          "velocity": 0.6299212598425197
        },
        {
          "duration": 0.21950015624999963,
          "durationTicks": 45,
          "midi": 41,
          "name": "F2",
          "ticks": 9408,
          "time": 45.89016600000001,
          "velocity": 0.6299212598425197
        },
        {
          "duration": 0.21950015624999963,
          "durationTicks": 45,
          "midi": 53,
          "name": "F3",
          "ticks": 9456,
          "time": 46.124299500000006,
          "velocity": 0.6299212598425197
        },
        {
          "duration": 0.21950015624999963,
          "durationTicks": 45,
          "midi": 41,
          "name": "F2",
          "ticks": 9504,
          "time": 46.358433000000005,
          "velocity": 0.6299212598425197
        },
        {
          "duration": 0.21950015624999963,
          "durationTicks": 45,
          "midi": 53,
          "name": "F3",
          "ticks": 9552,
          "time": 46.592566500000004,
          "velocity": 0.6299212598425197
        },
        {
          "duration": 1.7755123750000052,
          "durationTicks": 364,
          "midi": 29,
          "name": "F1",
          "ticks": 9600,
          "time": 46.8267,
          "velocity": 0.6299212598425197
        },
        {
          "duration": 1.7755123750000052,
          "durationTicks": 364,
          "midi": 41,
          "name": "F2",
          "ticks": 9600,
          "time": 46.8267,
          "velocity": 0.6299212598425197
        },
        {
          "duration": 1.7755123749999981,
          "durationTicks": 364,
          "midi": 41,
          "name": "F2",
          "ticks": 9984,
          "time": 48.699768000000006,
          "velocity": 0.6299212598425197
        },
        {
          "duration": 1.7755123749999981,
          "durationTicks": 364,
          "midi": 53,
          "name": "F3",
          "ticks": 9984,
          "time": 48.699768000000006,
          "velocity": 0.6299212598425197
        },
        {
          "duration": 0.21950015624999963,
          "durationTicks": 45,
          "midi": 41,
          "name": "F2",
          "ticks": 10752,
          "time": 52.445904000000006,
          "velocity": 0.6299212598425197
        },
        {
          "duration": 0.21950015624999963,
          "durationTicks": 45,
          "midi": 48,
          "name": "C3",
          "ticks": 10800,
          "time": 52.680037500000005,
          "velocity": 0.6299212598425197
        },
        {
          "duration": 0.21950015624999963,
          "durationTicks": 45,
          "midi": 53,
          "name": "F3",
          "ticks": 10800,
          "time": 52.680037500000005,
          "velocity": 0.6299212598425197
        },
        {
          "duration": 0.21950015624999963,
          "durationTicks": 45,
          "midi": 41,
          "name": "F2",
          "ticks": 10848,
          "time": 52.914171,
          "velocity": 0.6299212598425197
        },
        {
          "duration": 0.21950015625000674,
          "durationTicks": 45,
          "midi": 48,
          "name": "C3",
          "ticks": 10896,
          "time": 53.1483045,
          "velocity": 0.6299212598425197
        },
        {
          "duration": 0.21950015625000674,
          "durationTicks": 45,
          "midi": 53,
          "name": "F3",
          "ticks": 10896,
          "time": 53.1483045,
          "velocity": 0.6299212598425197
        },
        {
          "duration": 0.21950015624999963,
          "durationTicks": 45,
          "midi": 41,
          "name": "F2",
          "ticks": 10944,
          "time": 53.38243800000001,
          "velocity": 0.6299212598425197
        },
        {
          "duration": 0.21950015624999963,
          "durationTicks": 45,
          "midi": 48,
          "name": "C3",
          "ticks": 10992,
          "time": 53.616571500000006,
          "velocity": 0.6299212598425197
        },
        {
          "duration": 0.21950015624999963,
          "durationTicks": 45,
          "midi": 53,
          "name": "F3",
          "ticks": 10992,
          "time": 53.616571500000006,
          "velocity": 0.6299212598425197
        },
        {
          "duration": 0.21950015624999963,
          "durationTicks": 45,
          "midi": 41,
          "name": "F2",
          "ticks": 11040,
          "time": 53.850705000000005,
          "velocity": 0.6299212598425197
        },
        {
          "duration": 0.21950015624999963,
          "durationTicks": 45,
          "midi": 48,
          "name": "C3",
          "ticks": 11088,
          "time": 54.084838500000004,
          "velocity": 0.6299212598425197
        },
        {
          "duration": 0.21950015624999963,
          "durationTicks": 45,
          "midi": 53,
          "name": "F3",
          "ticks": 11088,
          "time": 54.084838500000004,
          "velocity": 0.6299212598425197
        },
        {
          "duration": 0.21950015624999963,
          "durationTicks": 45,
          "midi": 44,
          "name": "G#2",
          "ticks": 11136,
          "time": 54.318972,
          "velocity": 0.6299212598425197
        },
        {
          "duration": 0.21950015624999963,
          "durationTicks": 45,
          "midi": 51,
          "name": "D#3",
          "ticks": 11184,
          "time": 54.55310550000001,
          "velocity": 0.6299212598425197
        },
        {
          "duration": 0.21950015624999963,
          "durationTicks": 45,
          "midi": 56,
          "name": "G#3",
          "ticks": 11184,
          "time": 54.55310550000001,
          "velocity": 0.6299212598425197
        },
        {
          "duration": 0.21950015624999963,
          "durationTicks": 45,
          "midi": 44,
          "name": "G#2",
          "ticks": 11232,
          "time": 54.78723900000001,
          "velocity": 0.6299212598425197
        },
        {
          "duration": 0.21950015624999963,
          "durationTicks": 45,
          "midi": 51,
          "name": "D#3",
          "ticks": 11280,
          "time": 55.021372500000005,
          "velocity": 0.6299212598425197
        },
        {
          "duration": 0.21950015624999963,
          "durationTicks": 45,
          "midi": 56,
          "name": "G#3",
          "ticks": 11280,
          "time": 55.021372500000005,
          "velocity": 0.6299212598425197
        },
        {
          "duration": 0.21950015624999963,
          "durationTicks": 45,
          "midi": 44,
          "name": "G#2",
          "ticks": 11328,
          "time": 55.255506000000004,
          "velocity": 0.6299212598425197
        },
        {
          "duration": 0.21950015624999963,
          "durationTicks": 45,
          "midi": 51,
          "name": "D#3",
          "ticks": 11376,
          "time": 55.4896395,
          "velocity": 0.6299212598425197
        },
        {
          "duration": 0.21950015624999963,
          "durationTicks": 45,
          "midi": 56,
          "name": "G#3",
          "ticks": 11376,
          "time": 55.4896395,
          "velocity": 0.6299212598425197
        },
        {
          "duration": 0.21950015624999963,
          "durationTicks": 45,
          "midi": 44,
          "name": "G#2",
          "ticks": 11424,
          "time": 55.72377300000001,
          "velocity": 0.6299212598425197
        },
        {
          "duration": 0.21950015624999963,
          "durationTicks": 45,
          "midi": 53,
          "name": "F3",
          "ticks": 11472,
          "time": 55.95790650000001,
          "velocity": 0.6299212598425197
        },
        {
          "duration": 0.21950015624999963,
          "durationTicks": 45,
          "midi": 56,
          "name": "G#3",
          "ticks": 11472,
          "time": 55.95790650000001,
          "velocity": 0.6299212598425197
        },
        {
          "duration": 0.21950015624999963,
          "durationTicks": 45,
          "midi": 46,
          "name": "A#2",
          "ticks": 11520,
          "time": 56.192040000000006,
          "velocity": 0.6299212598425197
        },
        {
          "duration": 0.21950015624999963,
          "durationTicks": 45,
          "midi": 53,
          "name": "F3",
          "ticks": 11568,
          "time": 56.426173500000004,
          "velocity": 0.6299212598425197
        },
        {
          "duration": 0.21950015624999963,
          "durationTicks": 45,
          "midi": 58,
          "name": "A#3",
          "ticks": 11568,
          "time": 56.426173500000004,
          "velocity": 0.6299212598425197
        },
        {
          "duration": 0.21950015624999963,
          "durationTicks": 45,
          "midi": 46,
          "name": "A#2",
          "ticks": 11616,
          "time": 56.660307,
          "velocity": 0.6299212598425197
        },
        {
          "duration": 0.21950015624999963,
          "durationTicks": 45,
          "midi": 53,
          "name": "F3",
          "ticks": 11664,
          "time": 56.89444050000001,
          "velocity": 0.6299212598425197
        },
        {
          "duration": 0.21950015624999963,
          "durationTicks": 45,
          "midi": 58,
          "name": "A#3",
          "ticks": 11664,
          "time": 56.89444050000001,
          "velocity": 0.6299212598425197
        },
        {
          "duration": 0.21950015624999963,
          "durationTicks": 45,
          "midi": 46,
          "name": "A#2",
          "ticks": 11712,
          "time": 57.12857400000001,
          "velocity": 0.6299212598425197
        },
        {
          "duration": 0.21950015624999963,
          "durationTicks": 45,
          "midi": 53,
          "name": "F3",
          "ticks": 11760,
          "time": 57.362707500000006,
          "velocity": 0.6299212598425197
        },
        {
          "duration": 0.21950015624999963,
          "durationTicks": 45,
          "midi": 58,
          "name": "A#3",
          "ticks": 11760,
          "time": 57.362707500000006,
          "velocity": 0.6299212598425197
        },
        {
          "duration": 0.21950015624999963,
          "durationTicks": 45,
          "midi": 46,
          "name": "A#2",
          "ticks": 11808,
          "time": 57.596841000000005,
          "velocity": 0.6299212598425197
        },
        {
          "duration": 0.21950015624999963,
          "durationTicks": 45,
          "midi": 53,
          "name": "F3",
          "ticks": 11856,
          "time": 57.8309745,
          "velocity": 0.6299212598425197
        },
        {
          "duration": 0.21950015624999963,
          "durationTicks": 45,
          "midi": 58,
          "name": "A#3",
          "ticks": 11856,
          "time": 57.8309745,
          "velocity": 0.6299212598425197
        },
        {
          "duration": 0.21950015625000674,
          "durationTicks": 45,
          "midi": 48,
          "name": "C3",
          "ticks": 11904,
          "time": 58.065108,
          "velocity": 0.6299212598425197
        },
        {
          "duration": 0.21950015624999963,
          "durationTicks": 45,
          "midi": 55,
          "name": "G3",
          "ticks": 11952,
          "time": 58.29924150000001,
          "velocity": 0.6299212598425197
        },
        {
          "duration": 0.21950015624999963,
          "durationTicks": 45,
          "midi": 60,
          "name": "C4",
          "ticks": 11952,
          "time": 58.29924150000001,
          "velocity": 0.6299212598425197
        },
        {
          "duration": 0.21950015624999963,
          "durationTicks": 45,
          "midi": 48,
          "name": "C3",
          "ticks": 12000,
          "time": 58.53337500000001,
          "velocity": 0.6299212598425197
        },
        {
          "duration": 0.21950015624999963,
          "durationTicks": 45,
          "midi": 55,
          "name": "G3",
          "ticks": 12048,
          "time": 58.767508500000005,
          "velocity": 0.6299212598425197
        },
        {
          "duration": 0.21950015624999963,
          "durationTicks": 45,
          "midi": 60,
          "name": "C4",
          "ticks": 12048,
          "time": 58.767508500000005,
          "velocity": 0.6299212598425197
        },
        {
          "duration": 0.21950015624999963,
          "durationTicks": 45,
          "midi": 48,
          "name": "C3",
          "ticks": 12096,
          "time": 59.001642000000004,
          "velocity": 0.6299212598425197
        },
        {
          "duration": 0.21950015624999963,
          "durationTicks": 45,
          "midi": 55,
          "name": "G3",
          "ticks": 12144,
          "time": 59.2357755,
          "velocity": 0.6299212598425197
        },
        {
          "duration": 0.21950015624999963,
          "durationTicks": 45,
          "midi": 60,
          "name": "C4",
          "ticks": 12144,
          "time": 59.2357755,
          "velocity": 0.6299212598425197
        },
        {
          "duration": 0.21950015624999963,
          "durationTicks": 45,
          "midi": 48,
          "name": "C3",
          "ticks": 12192,
          "time": 59.46990900000001,
          "velocity": 0.6299212598425197
        },
        {
          "duration": 0.21950015624999963,
          "durationTicks": 45,
          "midi": 55,
          "name": "G3",
          "ticks": 12240,
          "time": 59.70404250000001,
          "velocity": 0.6299212598425197
        },
        {
          "duration": 0.21950015624999963,
          "durationTicks": 45,
          "midi": 60,
          "name": "C4",
          "ticks": 12240,
          "time": 59.70404250000001,
          "velocity": 0.6299212598425197
        },
        {
          "duration": 0.21950015624999963,
          "durationTicks": 45,
          "midi": 41,
          "name": "F2",
          "ticks": 12288,
          "time": 59.938176000000006,
          "velocity": 0.6299212598425197
        },
        {
          "duration": 0.21950015624999963,
          "durationTicks": 45,
          "midi": 48,
          "name": "C3",
          "ticks": 12336,
          "time": 60.172309500000004,
          "velocity": 0.6299212598425197
        },
        {
          "duration": 0.21950015624999963,
          "durationTicks": 45,
          "midi": 53,
          "name": "F3",
          "ticks": 12336,
          "time": 60.172309500000004,
          "velocity": 0.6299212598425197
        },
        {
          "duration": 0.21950015624999963,
          "durationTicks": 45,
          "midi": 41,
          "name": "F2",
          "ticks": 12384,
          "time": 60.406443,
          "velocity": 0.6299212598425197
        },
        {
          "duration": 0.21950015624999963,
          "durationTicks": 45,
          "midi": 48,
          "name": "C3",
          "ticks": 12432,
          "time": 60.64057650000001,
          "velocity": 0.6299212598425197
        },
        {
          "duration": 0.21950015624999963,
          "durationTicks": 45,
          "midi": 53,
          "name": "F3",
          "ticks": 12432,
          "time": 60.64057650000001,
          "velocity": 0.6299212598425197
        },
        {
          "duration": 0.21950015624999963,
          "durationTicks": 45,
          "midi": 41,
          "name": "F2",
          "ticks": 12480,
          "time": 60.87471000000001,
          "velocity": 0.6299212598425197
        },
        {
          "duration": 0.21950015624999963,
          "durationTicks": 45,
          "midi": 48,
          "name": "C3",
          "ticks": 12528,
          "time": 61.108843500000006,
          "velocity": 0.6299212598425197
        },
        {
          "duration": 0.21950015624999963,
          "durationTicks": 45,
          "midi": 53,
          "name": "F3",
          "ticks": 12528,
          "time": 61.108843500000006,
          "velocity": 0.6299212598425197
        },
        {
          "duration": 0.21950015624999963,
          "durationTicks": 45,
          "midi": 41,
          "name": "F2",
          "ticks": 12576,
          "time": 61.342977000000005,
          "velocity": 0.6299212598425197
        },
        {
          "duration": 0.21950015624999963,
          "durationTicks": 45,
          "midi": 48,
          "name": "C3",
          "ticks": 12624,
          "time": 61.5771105,
          "velocity": 0.6299212598425197
        },
        {
          "duration": 0.21950015624999963,
          "durationTicks": 45,
          "midi": 53,
          "name": "F3",
          "ticks": 12624,
          "time": 61.5771105,
          "velocity": 0.6299212598425197
        },
        {
          "duration": 0.21950015624999963,
          "durationTicks": 45,
          "midi": 44,
          "name": "G#2",
          "ticks": 12672,
          "time": 61.81124400000001,
          "velocity": 0.6299212598425197
        },
        {
          "duration": 0.21950015624999963,
          "durationTicks": 45,
          "midi": 51,
          "name": "D#3",
          "ticks": 12720,
          "time": 62.04537750000001,
          "velocity": 0.6299212598425197
        },
        {
          "duration": 0.21950015624999963,
          "durationTicks": 45,
          "midi": 56,
          "name": "G#3",
          "ticks": 12720,
          "time": 62.04537750000001,
          "velocity": 0.6299212598425197
        },
        {
          "duration": 0.21950015624999963,
          "durationTicks": 45,
          "midi": 44,
          "name": "G#2",
          "ticks": 12768,
          "time": 62.27951100000001,
          "velocity": 0.6299212598425197
        },
        {
          "duration": 0.21950015624999963,
          "durationTicks": 45,
          "midi": 51,
          "name": "D#3",
          "ticks": 12816,
          "time": 62.513644500000005,
          "velocity": 0.6299212598425197
        },
        {
          "duration": 0.21950015624999963,
          "durationTicks": 45,
          "midi": 56,
          "name": "G#3",
          "ticks": 12816,
          "time": 62.513644500000005,
          "velocity": 0.6299212598425197
        },
        {
          "duration": 0.21950015624999963,
          "durationTicks": 45,
          "midi": 44,
          "name": "G#2",
          "ticks": 12864,
          "time": 62.747778000000004,
          "velocity": 0.6299212598425197
        },
        {
          "duration": 0.21950015625000674,
          "durationTicks": 45,
          "midi": 51,
          "name": "D#3",
          "ticks": 12912,
          "time": 62.9819115,
          "velocity": 0.6299212598425197
        },
        {
          "duration": 0.21950015625000674,
          "durationTicks": 45,
          "midi": 56,
          "name": "G#3",
          "ticks": 12912,
          "time": 62.9819115,
          "velocity": 0.6299212598425197
        },
        {
          "duration": 0.21950015624999963,
          "durationTicks": 45,
          "midi": 44,
          "name": "G#2",
          "ticks": 12960,
          "time": 63.21604500000001,
          "velocity": 0.6299212598425197
        },
        {
          "duration": 0.21950015624999963,
          "durationTicks": 45,
          "midi": 51,
          "name": "D#3",
          "ticks": 13008,
          "time": 63.45017850000001,
          "velocity": 0.6299212598425197
        },
        {
          "duration": 0.21950015624999963,
          "durationTicks": 45,
          "midi": 56,
          "name": "G#3",
          "ticks": 13008,
          "time": 63.45017850000001,
          "velocity": 0.6299212598425197
        },
        {
          "duration": 0.21950015624999963,
          "durationTicks": 45,
          "midi": 46,
          "name": "A#2",
          "ticks": 13056,
          "time": 63.684312000000006,
          "velocity": 0.6299212598425197
        },
        {
          "duration": 0.21950015625000674,
          "durationTicks": 45,
          "midi": 53,
          "name": "F3",
          "ticks": 13104,
          "time": 63.918445500000004,
          "velocity": 0.6299212598425197
        },
        {
          "duration": 0.21950015625000674,
          "durationTicks": 45,
          "midi": 58,
          "name": "A#3",
          "ticks": 13104,
          "time": 63.918445500000004,
          "velocity": 0.6299212598425197
        },
        {
          "duration": 0.21950015625000674,
          "durationTicks": 45,
          "midi": 46,
          "name": "A#2",
          "ticks": 13152,
          "time": 64.152579,
          "velocity": 0.6299212598425197
        },
        {
          "duration": 0.21950015625000674,
          "durationTicks": 45,
          "midi": 53,
          "name": "F3",
          "ticks": 13200,
          "time": 64.3867125,
          "velocity": 0.6299212598425197
        },
        {
          "duration": 0.21950015625000674,
          "durationTicks": 45,
          "midi": 58,
          "name": "A#3",
          "ticks": 13200,
          "time": 64.3867125,
          "velocity": 0.6299212598425197
        },
        {
          "duration": 0.21950015625000674,
          "durationTicks": 45,
          "midi": 46,
          "name": "A#2",
          "ticks": 13248,
          "time": 64.620846,
          "velocity": 0.6299212598425197
        },
        {
          "duration": 0.21950015624999253,
          "durationTicks": 45,
          "midi": 53,
          "name": "F3",
          "ticks": 13296,
          "time": 64.85497950000001,
          "velocity": 0.6299212598425197
        },
        {
          "duration": 0.21950015624999253,
          "durationTicks": 45,
          "midi": 58,
          "name": "A#3",
          "ticks": 13296,
          "time": 64.85497950000001,
          "velocity": 0.6299212598425197
        },
        {
          "duration": 0.21950015624999253,
          "durationTicks": 45,
          "midi": 46,
          "name": "A#2",
          "ticks": 13344,
          "time": 65.08911300000001,
          "velocity": 0.6299212598425197
        },
        {
          "duration": 0.21950015624999253,
          "durationTicks": 45,
          "midi": 53,
          "name": "F3",
          "ticks": 13392,
          "time": 65.32324650000001,
          "velocity": 0.6299212598425197
        },
        {
          "duration": 0.21950015624999253,
          "durationTicks": 45,
          "midi": 58,
          "name": "A#3",
          "ticks": 13392,
          "time": 65.32324650000001,
          "velocity": 0.6299212598425197
        },
        {
          "duration": 0.21950015624999253,
          "durationTicks": 45,
          "midi": 43,
          "name": "G2",
          "ticks": 13440,
          "time": 65.55738000000001,
          "velocity": 0.6299212598425197
        },
        {
          "duration": 0.21950015624999253,
          "durationTicks": 45,
          "midi": 55,
          "name": "G3",
          "ticks": 13488,
          "time": 65.79151350000001,
          "velocity": 0.6299212598425197
        },
        {
          "duration": 0.21950015625000674,
          "durationTicks": 45,
          "midi": 43,
          "name": "G2",
          "ticks": 13536,
          "time": 66.025647,
          "velocity": 0.6299212598425197
        },
        {
          "duration": 0.21950015625000674,
          "durationTicks": 45,
          "midi": 55,
          "name": "G3",
          "ticks": 13584,
          "time": 66.2597805,
          "velocity": 0.6299212598425197
        },
        {
          "duration": 0.21950015625000674,
          "durationTicks": 45,
          "midi": 48,
          "name": "C3",
          "ticks": 13632,
          "time": 66.493914,
          "velocity": 0.6299212598425197
        },
        {
          "duration": 0.21950015625000674,
          "durationTicks": 45,
          "midi": 60,
          "name": "C4",
          "ticks": 13680,
          "time": 66.7280475,
          "velocity": 0.6299212598425197
        },
        {
          "duration": 0.21950015625000674,
          "durationTicks": 45,
          "midi": 48,
          "name": "C3",
          "ticks": 13728,
          "time": 66.962181,
          "velocity": 0.6299212598425197
        },
        {
          "duration": 0.21950015625000674,
          "durationTicks": 45,
          "midi": 60,
          "name": "C4",
          "ticks": 13776,
          "time": 67.1963145,
          "velocity": 0.6299212598425197
        },
        {
          "duration": 0.21950015624999253,
          "durationTicks": 45,
          "midi": 41,
          "name": "F2",
          "ticks": 13824,
          "time": 67.43044800000001,
          "velocity": 0.6299212598425197
        },
        {
          "duration": 0.21950015624999253,
          "durationTicks": 45,
          "midi": 53,
          "name": "F3",
          "ticks": 13872,
          "time": 67.66458150000001,
          "velocity": 0.6299212598425197
        },
        {
          "duration": 0.21950015624999253,
          "durationTicks": 45,
          "midi": 41,
          "name": "F2",
          "ticks": 13920,
          "time": 67.89871500000001,
          "velocity": 0.6299212598425197
        },
        {
          "duration": 0.21950015624999253,
          "durationTicks": 45,
          "midi": 53,
          "name": "F3",
          "ticks": 13968,
          "time": 68.13284850000001,
          "velocity": 0.6299212598425197
        },
        {
          "duration": 0.21950015624999253,
          "durationTicks": 45,
          "midi": 41,
          "name": "F2",
          "ticks": 14016,
          "time": 68.36698200000001,
          "velocity": 0.6299212598425197
        },
        {
          "duration": 0.21950015625000674,
          "durationTicks": 45,
          "midi": 53,
          "name": "F3",
          "ticks": 14064,
          "time": 68.6011155,
          "velocity": 0.6299212598425197
        },
        {
          "duration": 0.21950015625000674,
          "durationTicks": 45,
          "midi": 41,
          "name": "F2",
          "ticks": 14112,
          "time": 68.835249,
          "velocity": 0.6299212598425197
        },
        {
          "duration": 0.21950015625000674,
          "durationTicks": 45,
          "midi": 53,
          "name": "F3",
          "ticks": 14160,
          "time": 69.0693825,
          "velocity": 0.6299212598425197
        },
        {
          "duration": 0.21950015625000674,
          "durationTicks": 45,
          "midi": 41,
          "name": "F2",
          "ticks": 14208,
          "time": 69.303516,
          "velocity": 0.6299212598425197
        },
        {
          "duration": 0.21950015625000674,
          "durationTicks": 45,
          "midi": 53,
          "name": "F3",
          "ticks": 14256,
          "time": 69.5376495,
          "velocity": 0.6299212598425197
        },
        {
          "duration": 0.21950015624999253,
          "durationTicks": 45,
          "midi": 41,
          "name": "F2",
          "ticks": 14304,
          "time": 69.77178300000001,
          "velocity": 0.6299212598425197
        },
        {
          "duration": 0.21950015624999253,
          "durationTicks": 45,
          "midi": 53,
          "name": "F3",
          "ticks": 14352,
          "time": 70.00591650000001,
          "velocity": 0.6299212598425197
        },
        {
          "duration": 0.21950015624999253,
          "durationTicks": 45,
          "midi": 41,
          "name": "F2",
          "ticks": 14400,
          "time": 70.24005000000001,
          "velocity": 0.6299212598425197
        },
        {
          "duration": 0.21950015624999253,
          "durationTicks": 45,
          "midi": 53,
          "name": "F3",
          "ticks": 14448,
          "time": 70.47418350000001,
          "velocity": 0.6299212598425197
        },
        {
          "duration": 0.21950015624999253,
          "durationTicks": 45,
          "midi": 41,
          "name": "F2",
          "ticks": 14496,
          "time": 70.70831700000001,
          "velocity": 0.6299212598425197
        },
        {
          "duration": 0.21950015625000674,
          "durationTicks": 45,
          "midi": 53,
          "name": "F3",
          "ticks": 14544,
          "time": 70.9424505,
          "velocity": 0.6299212598425197
        },
        {
          "duration": 0.21950015625000674,
          "durationTicks": 45,
          "midi": 44,
          "name": "G#2",
          "ticks": 14592,
          "time": 71.176584,
          "velocity": 0.6299212598425197
        },
        {
          "duration": 0.21950015625000674,
          "durationTicks": 45,
          "midi": 56,
          "name": "G#3",
          "ticks": 14640,
          "time": 71.4107175,
          "velocity": 0.6299212598425197
        },
        {
          "duration": 0.21950015625000674,
          "durationTicks": 45,
          "midi": 44,
          "name": "G#2",
          "ticks": 14688,
          "time": 71.644851,
          "velocity": 0.6299212598425197
        },
        {
          "duration": 0.21950015625000674,
          "durationTicks": 45,
          "midi": 56,
          "name": "G#3",
          "ticks": 14736,
          "time": 71.8789845,
          "velocity": 0.6299212598425197
        },
        {
          "duration": 0.21950015625000674,
          "durationTicks": 45,
          "midi": 44,
          "name": "G#2",
          "ticks": 14784,
          "time": 72.113118,
          "velocity": 0.6299212598425197
        },
        {
          "duration": 0.21950015624999253,
          "durationTicks": 45,
          "midi": 56,
          "name": "G#3",
          "ticks": 14832,
          "time": 72.34725150000001,
          "velocity": 0.6299212598425197
        },
        {
          "duration": 0.21950015624999253,
          "durationTicks": 45,
          "midi": 44,
          "name": "G#2",
          "ticks": 14880,
          "time": 72.58138500000001,
          "velocity": 0.6299212598425197
        },
        {
          "duration": 0.21950015624999253,
          "durationTicks": 45,
          "midi": 56,
          "name": "G#3",
          "ticks": 14928,
          "time": 72.81551850000001,
          "velocity": 0.6299212598425197
        },
        {
          "duration": 0.21950015624999253,
          "durationTicks": 45,
          "midi": 44,
          "name": "G#2",
          "ticks": 14976,
          "time": 73.04965200000001,
          "velocity": 0.6299212598425197
        },
        {
          "duration": 0.21950015624999253,
          "durationTicks": 45,
          "midi": 56,
          "name": "G#3",
          "ticks": 15024,
          "time": 73.28378550000001,
          "velocity": 0.6299212598425197
        },
        {
          "duration": 0.21950015625000674,
          "durationTicks": 45,
          "midi": 44,
          "name": "G#2",
          "ticks": 15072,
          "time": 73.517919,
          "velocity": 0.6299212598425197
        },
        {
          "duration": 0.21950015625000674,
          "durationTicks": 45,
          "midi": 56,
          "name": "G#3",
          "ticks": 15120,
          "time": 73.7520525,
          "velocity": 0.6299212598425197
        },
        {
          "duration": 0.21950015625000674,
          "durationTicks": 45,
          "midi": 44,
          "name": "G#2",
          "ticks": 15168,
          "time": 73.986186,
          "velocity": 0.6299212598425197
        },
        {
          "duration": 0.21950015625000674,
          "durationTicks": 45,
          "midi": 56,
          "name": "G#3",
          "ticks": 15216,
          "time": 74.2203195,
          "velocity": 0.6299212598425197
        },
        {
          "duration": 0.21950015625000674,
          "durationTicks": 45,
          "midi": 44,
          "name": "G#2",
          "ticks": 15264,
          "time": 74.454453,
          "velocity": 0.6299212598425197
        },
        {
          "duration": 0.21950015624999253,
          "durationTicks": 45,
          "midi": 56,
          "name": "G#3",
          "ticks": 15312,
          "time": 74.68858650000001,
          "velocity": 0.6299212598425197
        },
        {
          "duration": 0.21950015624999253,
          "durationTicks": 45,
          "midi": 46,
          "name": "A#2",
          "ticks": 15360,
          "time": 74.92272000000001,
          "velocity": 0.6299212598425197
        },
        {
          "duration": 0.21950015624999253,
          "durationTicks": 45,
          "midi": 58,
          "name": "A#3",
          "ticks": 15408,
          "time": 75.15685350000001,
          "velocity": 0.6299212598425197
        },
        {
          "duration": 0.21950015624999253,
          "durationTicks": 45,
          "midi": 46,
          "name": "A#2",
          "ticks": 15456,
          "time": 75.39098700000001,
          "velocity": 0.6299212598425197
        },
        {
          "duration": 0.21950015624999253,
          "durationTicks": 45,
          "midi": 58,
          "name": "A#3",
          "ticks": 15504,
          "time": 75.62512050000001,
          "velocity": 0.6299212598425197
        },
        {
          "duration": 0.21950015625000674,
          "durationTicks": 45,
          "midi": 46,
          "name": "A#2",
          "ticks": 15552,
          "time": 75.859254,
          "velocity": 0.6299212598425197
        },
        {
          "duration": 0.21950015625000674,
          "durationTicks": 45,
          "midi": 58,
          "name": "A#3",
          "ticks": 15600,
          "time": 76.0933875,
          "velocity": 0.6299212598425197
        },
        {
          "duration": 0.21950015625000674,
          "durationTicks": 45,
          "midi": 46,
          "name": "A#2",
          "ticks": 15648,
          "time": 76.327521,
          "velocity": 0.6299212598425197
        },
        {
          "duration": 0.21950015625000674,
          "durationTicks": 45,
          "midi": 58,
          "name": "A#3",
          "ticks": 15696,
          "time": 76.5616545,
          "velocity": 0.6299212598425197
        },
        {
          "duration": 0.21950015625000674,
          "durationTicks": 45,
          "midi": 46,
          "name": "A#2",
          "ticks": 15744,
          "time": 76.795788,
          "velocity": 0.6299212598425197
        },
        {
          "duration": 0.21950015625000674,
          "durationTicks": 45,
          "midi": 58,
          "name": "A#3",
          "ticks": 15792,
          "time": 77.0299215,
          "velocity": 0.6299212598425197
        },
        {
          "duration": 0.21950015624999253,
          "durationTicks": 45,
          "midi": 46,
          "name": "A#2",
          "ticks": 15840,
          "time": 77.26405500000001,
          "velocity": 0.6299212598425197
        },
        {
          "duration": 0.21950015624999253,
          "durationTicks": 45,
          "midi": 58,
          "name": "A#3",
          "ticks": 15888,
          "time": 77.49818850000001,
          "velocity": 0.6299212598425197
        },
        {
          "duration": 0.21950015624999253,
          "durationTicks": 45,
          "midi": 46,
          "name": "A#2",
          "ticks": 15936,
          "time": 77.73232200000001,
          "velocity": 0.6299212598425197
        },
        {
          "duration": 0.21950015624999253,
          "durationTicks": 45,
          "midi": 58,
          "name": "A#3",
          "ticks": 15984,
          "time": 77.96645550000001,
          "velocity": 0.6299212598425197
        },
        {
          "duration": 0.21950015624999253,
          "durationTicks": 45,
          "midi": 46,
          "name": "A#2",
          "ticks": 16032,
          "time": 78.20058900000001,
          "velocity": 0.6299212598425197
        },
        {
          "duration": 0.21950015625000674,
          "durationTicks": 45,
          "midi": 58,
          "name": "A#3",
          "ticks": 16080,
          "time": 78.4347225,
          "velocity": 0.6299212598425197
        },
        {
          "duration": 0.21950015625000674,
          "durationTicks": 45,
          "midi": 43,
          "name": "G2",
          "ticks": 16128,
          "time": 78.668856,
          "velocity": 0.6299212598425197
        },
        {
          "duration": 0.21950015625000674,
          "durationTicks": 45,
          "midi": 55,
          "name": "G3",
          "ticks": 16176,
          "time": 78.9029895,
          "velocity": 0.6299212598425197
        },
        {
          "duration": 0.21950015625000674,
          "durationTicks": 45,
          "midi": 43,
          "name": "G2",
          "ticks": 16224,
          "time": 79.137123,
          "velocity": 0.6299212598425197
        },
        {
          "duration": 0.21950015625000674,
          "durationTicks": 45,
          "midi": 55,
          "name": "G3",
          "ticks": 16272,
          "time": 79.3712565,
          "velocity": 0.6299212598425197
        },
        {
          "duration": 0.21950015624999253,
          "durationTicks": 45,
          "midi": 43,
          "name": "G2",
          "ticks": 16320,
          "time": 79.60539000000001,
          "velocity": 0.6299212598425197
        },
        {
          "duration": 0.21950015624999253,
          "durationTicks": 45,
          "midi": 55,
          "name": "G3",
          "ticks": 16368,
          "time": 79.83952350000001,
          "velocity": 0.6299212598425197
        },
        {
          "duration": 0.21950015624999253,
          "durationTicks": 45,
          "midi": 43,
          "name": "G2",
          "ticks": 16416,
          "time": 80.07365700000001,
          "velocity": 0.6299212598425197
        },
        {
          "duration": 0.21950015624999253,
          "durationTicks": 45,
          "midi": 55,
          "name": "G3",
          "ticks": 16464,
          "time": 80.30779050000001,
          "velocity": 0.6299212598425197
        },
        {
          "duration": 0.21950015624999253,
          "durationTicks": 45,
          "midi": 48,
          "name": "C3",
          "ticks": 16512,
          "time": 80.54192400000001,
          "velocity": 0.6299212598425197
        },
        {
          "duration": 0.21950015625000674,
          "durationTicks": 45,
          "midi": 60,
          "name": "C4",
          "ticks": 16560,
          "time": 80.77605750000001,
          "velocity": 0.6299212598425197
        },
        {
          "duration": 0.21950015625000674,
          "durationTicks": 45,
          "midi": 48,
          "name": "C3",
          "ticks": 16608,
          "time": 81.010191,
          "velocity": 0.6299212598425197
        },
        {
          "duration": 0.21950015625000674,
          "durationTicks": 45,
          "midi": 60,
          "name": "C4",
          "ticks": 16656,
          "time": 81.2443245,
          "velocity": 0.6299212598425197
        },
        {
          "duration": 0.21950015625000674,
          "durationTicks": 45,
          "midi": 48,
          "name": "C3",
          "ticks": 16704,
          "time": 81.478458,
          "velocity": 0.6299212598425197
        },
        {
          "duration": 0.21950015625000674,
          "durationTicks": 45,
          "midi": 60,
          "name": "C4",
          "ticks": 16752,
          "time": 81.7125915,
          "velocity": 0.6299212598425197
        },
        {
          "duration": 0.21950015625000674,
          "durationTicks": 45,
          "midi": 48,
          "name": "C3",
          "ticks": 16800,
          "time": 81.946725,
          "velocity": 0.6299212598425197
        },
        {
          "duration": 0.21950015624999253,
          "durationTicks": 45,
          "midi": 60,
          "name": "C4",
          "ticks": 16848,
          "time": 82.18085850000001,
          "velocity": 0.6299212598425197
        },
        {
          "duration": 0.21950015624999253,
          "durationTicks": 45,
          "midi": 41,
          "name": "F2",
          "ticks": 16896,
          "time": 82.41499200000001,
          "velocity": 0.6299212598425197
        },
        {
          "duration": 0.21950015624999253,
          "durationTicks": 45,
          "midi": 53,
          "name": "F3",
          "ticks": 16944,
          "time": 82.64912550000001,
          "velocity": 0.6299212598425197
        },
        {
          "duration": 0.21950015624999253,
          "durationTicks": 45,
          "midi": 41,
          "name": "F2",
          "ticks": 16992,
          "time": 82.88325900000001,
          "velocity": 0.6299212598425197
        },
        {
          "duration": 0.21950015625000674,
          "durationTicks": 45,
          "midi": 53,
          "name": "F3",
          "ticks": 17040,
          "time": 83.11739250000001,
          "velocity": 0.6299212598425197
        },
        {
          "duration": 0.21950015625000674,
          "durationTicks": 45,
          "midi": 41,
          "name": "F2",
          "ticks": 17088,
          "time": 83.351526,
          "velocity": 0.6299212598425197
        },
        {
          "duration": 0.21950015625000674,
          "durationTicks": 45,
          "midi": 53,
          "name": "F3",
          "ticks": 17136,
          "time": 83.5856595,
          "velocity": 0.6299212598425197
        },
        {
          "duration": 0.21950015625000674,
          "durationTicks": 45,
          "midi": 41,
          "name": "F2",
          "ticks": 17184,
          "time": 83.819793,
          "velocity": 0.6299212598425197
        },
        {
          "duration": 0.21950015625000674,
          "durationTicks": 45,
          "midi": 53,
          "name": "F3",
          "ticks": 17232,
          "time": 84.0539265,
          "velocity": 0.6299212598425197
        },
        {
          "duration": 0.21950015625000674,
          "durationTicks": 45,
          "midi": 41,
          "name": "F2",
          "ticks": 17280,
          "time": 84.28806,
          "velocity": 0.6299212598425197
        },
        {
          "duration": 0.21950015624999253,
          "durationTicks": 45,
          "midi": 53,
          "name": "F3",
          "ticks": 17328,
          "time": 84.52219350000001,
          "velocity": 0.6299212598425197
        },
        {
          "duration": 0.21950015624999253,
          "durationTicks": 45,
          "midi": 41,
          "name": "F2",
          "ticks": 17376,
          "time": 84.75632700000001,
          "velocity": 0.6299212598425197
        },
        {
          "duration": 0.21950015624999253,
          "durationTicks": 45,
          "midi": 53,
          "name": "F3",
          "ticks": 17424,
          "time": 84.99046050000001,
          "velocity": 0.6299212598425197
        },
        {
          "duration": 0.21950015624999253,
          "durationTicks": 45,
          "midi": 41,
          "name": "F2",
          "ticks": 17472,
          "time": 85.22459400000001,
          "velocity": 0.6299212598425197
        },
        {
          "duration": 0.21950015624999253,
          "durationTicks": 45,
          "midi": 53,
          "name": "F3",
          "ticks": 17520,
          "time": 85.45872750000001,
          "velocity": 0.6299212598425197
        },
        {
          "duration": 0.21950015625000674,
          "durationTicks": 45,
          "midi": 41,
          "name": "F2",
          "ticks": 17568,
          "time": 85.69286100000001,
          "velocity": 0.6299212598425197
        },
        {
          "duration": 0.21950015625000674,
          "durationTicks": 45,
          "midi": 53,
          "name": "F3",
          "ticks": 17616,
          "time": 85.9269945,
          "velocity": 0.6299212598425197
        },
        {
          "duration": 0.21950015625000674,
          "durationTicks": 45,
          "midi": 44,
          "name": "G#2",
          "ticks": 17664,
          "time": 86.161128,
          "velocity": 0.6299212598425197
        },
        {
          "duration": 0.21950015625000674,
          "durationTicks": 45,
          "midi": 56,
          "name": "G#3",
          "ticks": 17712,
          "time": 86.3952615,
          "velocity": 0.6299212598425197
        },
        {
          "duration": 0.21950015625000674,
          "durationTicks": 45,
          "midi": 44,
          "name": "G#2",
          "ticks": 17760,
          "time": 86.629395,
          "velocity": 0.6299212598425197
        },
        {
          "duration": 0.21950015624999253,
          "durationTicks": 45,
          "midi": 56,
          "name": "G#3",
          "ticks": 17808,
          "time": 86.86352850000002,
          "velocity": 0.6299212598425197
        },
        {
          "duration": 0.21950015624999253,
          "durationTicks": 45,
          "midi": 44,
          "name": "G#2",
          "ticks": 17856,
          "time": 87.09766200000001,
          "velocity": 0.6299212598425197
        },
        {
          "duration": 0.21950015624999253,
          "durationTicks": 45,
          "midi": 56,
          "name": "G#3",
          "ticks": 17904,
          "time": 87.33179550000001,
          "velocity": 0.6299212598425197
        },
        {
          "duration": 0.21950015624999253,
          "durationTicks": 45,
          "midi": 44,
          "name": "G#2",
          "ticks": 17952,
          "time": 87.56592900000001,
          "velocity": 0.6299212598425197
        },
        {
          "duration": 0.21950015624999253,
          "durationTicks": 45,
          "midi": 56,
          "name": "G#3",
          "ticks": 18000,
          "time": 87.80006250000001,
          "velocity": 0.6299212598425197
        },
        {
          "duration": 0.21950015625000674,
          "durationTicks": 45,
          "midi": 44,
          "name": "G#2",
          "ticks": 18048,
          "time": 88.03419600000001,
          "velocity": 0.6299212598425197
        },
        {
          "duration": 0.21950015625000674,
          "durationTicks": 45,
          "midi": 56,
          "name": "G#3",
          "ticks": 18096,
          "time": 88.26832950000001,
          "velocity": 0.6299212598425197
        },
        {
          "duration": 0.21950015625000674,
          "durationTicks": 45,
          "midi": 44,
          "name": "G#2",
          "ticks": 18144,
          "time": 88.502463,
          "velocity": 0.6299212598425197
        },
        {
          "duration": 0.21950015625000674,
          "durationTicks": 45,
          "midi": 56,
          "name": "G#3",
          "ticks": 18192,
          "time": 88.7365965,
          "velocity": 0.6299212598425197
        },
        {
          "duration": 0.21950015625000674,
          "durationTicks": 45,
          "midi": 44,
          "name": "G#2",
          "ticks": 18240,
          "time": 88.97073,
          "velocity": 0.6299212598425197
        },
        {
          "duration": 0.21950015625000674,
          "durationTicks": 45,
          "midi": 56,
          "name": "G#3",
          "ticks": 18288,
          "time": 89.2048635,
          "velocity": 0.6299212598425197
        },
        {
          "duration": 0.21950015624999253,
          "durationTicks": 45,
          "midi": 44,
          "name": "G#2",
          "ticks": 18336,
          "time": 89.43899700000001,
          "velocity": 0.6299212598425197
        },
        {
          "duration": 0.21950015624999253,
          "durationTicks": 45,
          "midi": 56,
          "name": "G#3",
          "ticks": 18384,
          "time": 89.67313050000001,
          "velocity": 0.6299212598425197
        },
        {
          "duration": 0.21950015624999253,
          "durationTicks": 45,
          "midi": 46,
          "name": "A#2",
          "ticks": 18432,
          "time": 89.90726400000001,
          "velocity": 0.6299212598425197
        },
        {
          "duration": 0.21950015624999253,
          "durationTicks": 45,
          "midi": 58,
          "name": "A#3",
          "ticks": 18480,
          "time": 90.14139750000001,
          "velocity": 0.6299212598425197
        },
        {
          "duration": 0.21950015624999253,
          "durationTicks": 45,
          "midi": 46,
          "name": "A#2",
          "ticks": 18528,
          "time": 90.37553100000001,
          "velocity": 0.6299212598425197
        },
        {
          "duration": 0.21950015625000674,
          "durationTicks": 45,
          "midi": 58,
          "name": "A#3",
          "ticks": 18576,
          "time": 90.60966450000001,
          "velocity": 0.6299212598425197
        },
        {
          "duration": 0.21950015625000674,
          "durationTicks": 45,
          "midi": 46,
          "name": "A#2",
          "ticks": 18624,
          "time": 90.843798,
          "velocity": 0.6299212598425197
        },
        {
          "duration": 0.21950015625000674,
          "durationTicks": 45,
          "midi": 58,
          "name": "A#3",
          "ticks": 18672,
          "time": 91.0779315,
          "velocity": 0.6299212598425197
        },
        {
          "duration": 0.21950015625000674,
          "durationTicks": 45,
          "midi": 46,
          "name": "A#2",
          "ticks": 18720,
          "time": 91.312065,
          "velocity": 0.6299212598425197
        },
        {
          "duration": 0.21950015625000674,
          "durationTicks": 45,
          "midi": 58,
          "name": "A#3",
          "ticks": 18768,
          "time": 91.5461985,
          "velocity": 0.6299212598425197
        },
        {
          "duration": 0.21950015624999253,
          "durationTicks": 45,
          "midi": 46,
          "name": "A#2",
          "ticks": 18816,
          "time": 91.78033200000002,
          "velocity": 0.6299212598425197
        },
        {
          "duration": 0.21950015624999253,
          "durationTicks": 45,
          "midi": 58,
          "name": "A#3",
          "ticks": 18864,
          "time": 92.01446550000001,
          "velocity": 0.6299212598425197
        },
        {
          "duration": 0.21950015624999253,
          "durationTicks": 45,
          "midi": 46,
          "name": "A#2",
          "ticks": 18912,
          "time": 92.24859900000001,
          "velocity": 0.6299212598425197
        },
        {
          "duration": 0.21950015624999253,
          "durationTicks": 45,
          "midi": 58,
          "name": "A#3",
          "ticks": 18960,
          "time": 92.48273250000001,
          "velocity": 0.6299212598425197
        },
        {
          "duration": 0.21950015624999253,
          "durationTicks": 45,
          "midi": 46,
          "name": "A#2",
          "ticks": 19008,
          "time": 92.71686600000001,
          "velocity": 0.6299212598425197
        },
        {
          "duration": 0.21950015625000674,
          "durationTicks": 45,
          "midi": 58,
          "name": "A#3",
          "ticks": 19056,
          "time": 92.95099950000001,
          "velocity": 0.6299212598425197
        },
        {
          "duration": 0.21950015625000674,
          "durationTicks": 45,
          "midi": 46,
          "name": "A#2",
          "ticks": 19104,
          "time": 93.18513300000001,
          "velocity": 0.6299212598425197
        },
        {
          "duration": 0.21950015625000674,
          "durationTicks": 45,
          "midi": 58,
          "name": "A#3",
          "ticks": 19152,
          "time": 93.4192665,
          "velocity": 0.6299212598425197
        },
        {
          "duration": 0.21950015625000674,
          "durationTicks": 45,
          "midi": 43,
          "name": "G2",
          "ticks": 19200,
          "time": 93.6534,
          "velocity": 0.6299212598425197
        },
        {
          "duration": 0.21950015625000674,
          "durationTicks": 45,
          "midi": 55,
          "name": "G3",
          "ticks": 19248,
          "time": 93.8875335,
          "velocity": 0.6299212598425197
        },
        {
          "duration": 0.21950015625000674,
          "durationTicks": 45,
          "midi": 43,
          "name": "G2",
          "ticks": 19296,
          "time": 94.121667,
          "velocity": 0.6299212598425197
        },
        {
          "duration": 0.21950015624999253,
          "durationTicks": 45,
          "midi": 55,
          "name": "G3",
          "ticks": 19344,
          "time": 94.35580050000002,
          "velocity": 0.6299212598425197
        },
        {
          "duration": 0.21950015624999253,
          "durationTicks": 45,
          "midi": 43,
          "name": "G2",
          "ticks": 19392,
          "time": 94.58993400000001,
          "velocity": 0.6299212598425197
        },
        {
          "duration": 0.21950015624999253,
          "durationTicks": 45,
          "midi": 55,
          "name": "G3",
          "ticks": 19440,
          "time": 94.82406750000001,
          "velocity": 0.6299212598425197
        },
        {
          "duration": 0.21950015624999253,
          "durationTicks": 45,
          "midi": 43,
          "name": "G2",
          "ticks": 19488,
          "time": 95.05820100000001,
          "velocity": 0.6299212598425197
        },
        {
          "duration": 0.21950015624999253,
          "durationTicks": 45,
          "midi": 55,
          "name": "G3",
          "ticks": 19536,
          "time": 95.29233450000001,
          "velocity": 0.6299212598425197
        },
        {
          "duration": 0.21950015625000674,
          "durationTicks": 45,
          "midi": 48,
          "name": "C3",
          "ticks": 19584,
          "time": 95.52646800000001,
          "velocity": 0.6299212598425197
        },
        {
          "duration": 0.21950015625000674,
          "durationTicks": 45,
          "midi": 60,
          "name": "C4",
          "ticks": 19632,
          "time": 95.7606015,
          "velocity": 0.6299212598425197
        },
        {
          "duration": 0.21950015625000674,
          "durationTicks": 45,
          "midi": 48,
          "name": "C3",
          "ticks": 19680,
          "time": 95.994735,
          "velocity": 0.6299212598425197
        },
        {
          "duration": 0.21950015625000674,
          "durationTicks": 45,
          "midi": 60,
          "name": "C4",
          "ticks": 19728,
          "time": 96.2288685,
          "velocity": 0.6299212598425197
        },
        {
          "duration": 0.21950015625000674,
          "durationTicks": 45,
          "midi": 48,
          "name": "C3",
          "ticks": 19776,
          "time": 96.463002,
          "velocity": 0.6299212598425197
        },
        {
          "duration": 0.21950015624999253,
          "durationTicks": 45,
          "midi": 60,
          "name": "C4",
          "ticks": 19824,
          "time": 96.69713550000002,
          "velocity": 0.6299212598425197
        },
        {
          "duration": 0.21950015624999253,
          "durationTicks": 45,
          "midi": 48,
          "name": "C3",
          "ticks": 19872,
          "time": 96.93126900000001,
          "velocity": 0.6299212598425197
        },
        {
          "duration": 0.21950015624999253,
          "durationTicks": 45,
          "midi": 60,
          "name": "C4",
          "ticks": 19920,
          "time": 97.16540250000001,
          "velocity": 0.6299212598425197
        },
        {
          "duration": 0.10731118749998814,
          "durationTicks": 22,
          "midi": 48,
          "name": "C3",
          "ticks": 19968,
          "time": 97.39953600000001,
          "velocity": 0.6299212598425197
        },
        {
          "duration": 0.10731118749998814,
          "durationTicks": 22,
          "midi": 53,
          "name": "F3",
          "ticks": 19968,
          "time": 97.39953600000001,
          "velocity": 0.6299212598425197
        },
        {
          "duration": 0.10731118749998814,
          "durationTicks": 22,
          "midi": 48,
          "name": "C3",
          "ticks": 20016,
          "time": 97.63366950000001,
          "velocity": 0.6299212598425197
        },
        {
          "duration": 0.10731118749998814,
          "durationTicks": 22,
          "midi": 53,
          "name": "F3",
          "ticks": 20016,
          "time": 97.63366950000001,
          "velocity": 0.6299212598425197
        },
        {
          "duration": 0.10731118749998814,
          "durationTicks": 22,
          "midi": 53,
          "name": "F3",
          "ticks": 20046,
          "time": 97.78000293750002,
          "velocity": 0.6299212598425197
        },
        {
          "duration": 0.10731118749998814,
          "durationTicks": 22,
          "midi": 48,
          "name": "C3",
          "ticks": 20046,
          "time": 97.78000293750002,
          "velocity": 0.6299212598425197
        },
        {
          "duration": 0.10731118750000235,
          "durationTicks": 22,
          "midi": 48,
          "name": "C3",
          "ticks": 20112,
          "time": 98.10193650000001,
          "velocity": 0.6299212598425197
        },
        {
          "duration": 0.10731118750000235,
          "durationTicks": 22,
          "midi": 53,
          "name": "F3",
          "ticks": 20112,
          "time": 98.10193650000001,
          "velocity": 0.6299212598425197
        },
        {
          "duration": 0.10731118749998814,
          "durationTicks": 22,
          "midi": 53,
          "name": "F3",
          "ticks": 20190,
          "time": 98.48240343750001,
          "velocity": 0.6299212598425197
        },
        {
          "duration": 0.10731118749998814,
          "durationTicks": 22,
          "midi": 48,
          "name": "C3",
          "ticks": 20190,
          "time": 98.48240343750001,
          "velocity": 0.6299212598425197
        },
        {
          "duration": 0.10731118750000235,
          "durationTicks": 22,
          "midi": 48,
          "name": "C3",
          "ticks": 20256,
          "time": 98.804337,
          "velocity": 0.6299212598425197
        },
        {
          "duration": 0.10731118750000235,
          "durationTicks": 22,
          "midi": 53,
          "name": "F3",
          "ticks": 20256,
          "time": 98.804337,
          "velocity": 0.6299212598425197
        },
        {
          "duration": 0.10731118750000235,
          "durationTicks": 22,
          "midi": 48,
          "name": "C3",
          "ticks": 20304,
          "time": 99.0384705,
          "velocity": 0.6299212598425197
        },
        {
          "duration": 0.10731118750000235,
          "durationTicks": 22,
          "midi": 53,
          "name": "F3",
          "ticks": 20304,
          "time": 99.0384705,
          "velocity": 0.6299212598425197
        },
        {
          "duration": 0.10731118750000235,
          "durationTicks": 22,
          "midi": 53,
          "name": "F3",
          "ticks": 20334,
          "time": 99.1848039375,
          "velocity": 0.6299212598425197
        },
        {
          "duration": 0.10731118750000235,
          "durationTicks": 22,
          "midi": 48,
          "name": "C3",
          "ticks": 20334,
          "time": 99.1848039375,
          "velocity": 0.6299212598425197
        },
        {
          "duration": 0.10731118749998814,
          "durationTicks": 22,
          "midi": 48,
          "name": "C3",
          "ticks": 20352,
          "time": 99.27260400000002,
          "velocity": 0.6299212598425197
        },
        {
          "duration": 0.10731118749998814,
          "durationTicks": 22,
          "midi": 53,
          "name": "F3",
          "ticks": 20352,
          "time": 99.27260400000002,
          "velocity": 0.6299212598425197
        },
        {
          "duration": 0.10731118749998814,
          "durationTicks": 22,
          "midi": 48,
          "name": "C3",
          "ticks": 20400,
          "time": 99.50673750000001,
          "velocity": 0.6299212598425197
        },
        {
          "duration": 0.10731118749998814,
          "durationTicks": 22,
          "midi": 53,
          "name": "F3",
          "ticks": 20400,
          "time": 99.50673750000001,
          "velocity": 0.6299212598425197
        },
        {
          "duration": 0.10731118750000235,
          "durationTicks": 22,
          "midi": 53,
          "name": "F3",
          "ticks": 20430,
          "time": 99.6530709375,
          "velocity": 0.6299212598425197
        },
        {
          "duration": 0.10731118750000235,
          "durationTicks": 22,
          "midi": 48,
          "name": "C3",
          "ticks": 20430,
          "time": 99.6530709375,
          "velocity": 0.6299212598425197
        },
        {
          "duration": 0.10731118749998814,
          "durationTicks": 22,
          "midi": 48,
          "name": "C3",
          "ticks": 20496,
          "time": 99.97500450000001,
          "velocity": 0.6299212598425197
        },
        {
          "duration": 0.10731118749998814,
          "durationTicks": 22,
          "midi": 53,
          "name": "F3",
          "ticks": 20496,
          "time": 99.97500450000001,
          "velocity": 0.6299212598425197
        },
        {
          "duration": 0.10731118749998814,
          "durationTicks": 22,
          "midi": 53,
          "name": "F3",
          "ticks": 20574,
          "time": 100.35547143750001,
          "velocity": 0.6299212598425197
        },
        {
          "duration": 0.10731118749998814,
          "durationTicks": 22,
          "midi": 48,
          "name": "C3",
          "ticks": 20574,
          "time": 100.35547143750001,
          "velocity": 0.6299212598425197
        },
        {
          "duration": 0.10731118750000235,
          "durationTicks": 22,
          "midi": 48,
          "name": "C3",
          "ticks": 20640,
          "time": 100.67740500000001,
          "velocity": 0.6299212598425197
        },
        {
          "duration": 0.10731118750000235,
          "durationTicks": 22,
          "midi": 53,
          "name": "F3",
          "ticks": 20640,
          "time": 100.67740500000001,
          "velocity": 0.6299212598425197
        },
        {
          "duration": 0.10731118750000235,
          "durationTicks": 22,
          "midi": 48,
          "name": "C3",
          "ticks": 20688,
          "time": 100.9115385,
          "velocity": 0.6299212598425197
        },
        {
          "duration": 0.10731118750000235,
          "durationTicks": 22,
          "midi": 53,
          "name": "F3",
          "ticks": 20688,
          "time": 100.9115385,
          "velocity": 0.6299212598425197
        },
        {
          "duration": 0.10731118749998814,
          "durationTicks": 22,
          "midi": 53,
          "name": "F3",
          "ticks": 20718,
          "time": 101.05787193750001,
          "velocity": 0.6299212598425197
        },
        {
          "duration": 0.10731118749998814,
          "durationTicks": 22,
          "midi": 48,
          "name": "C3",
          "ticks": 20718,
          "time": 101.05787193750001,
          "velocity": 0.6299212598425197
        },
        {
          "duration": 0.10731118750000235,
          "durationTicks": 22,
          "midi": 48,
          "name": "C3",
          "ticks": 20736,
          "time": 101.145672,
          "velocity": 0.6299212598425197
        },
        {
          "duration": 0.10731118750000235,
          "durationTicks": 22,
          "midi": 53,
          "name": "F3",
          "ticks": 20736,
          "time": 101.145672,
          "velocity": 0.6299212598425197
        },
        {
          "duration": 0.10731118750000235,
          "durationTicks": 22,
          "midi": 48,
          "name": "C3",
          "ticks": 20784,
          "time": 101.3798055,
          "velocity": 0.6299212598425197
        },
        {
          "duration": 0.10731118750000235,
          "durationTicks": 22,
          "midi": 53,
          "name": "F3",
          "ticks": 20784,
          "time": 101.3798055,
          "velocity": 0.6299212598425197
        },
        {
          "duration": 0.10731118750000235,
          "durationTicks": 22,
          "midi": 53,
          "name": "F3",
          "ticks": 20814,
          "time": 101.52613893750001,
          "velocity": 0.6299212598425197
        },
        {
          "duration": 0.10731118750000235,
          "durationTicks": 22,
          "midi": 48,
          "name": "C3",
          "ticks": 20814,
          "time": 101.52613893750001,
          "velocity": 0.6299212598425197
        },
        {
          "duration": 0.10731118749998814,
          "durationTicks": 22,
          "midi": 48,
          "name": "C3",
          "ticks": 20880,
          "time": 101.84807250000001,
          "velocity": 0.6299212598425197
        },
        {
          "duration": 0.10731118749998814,
          "durationTicks": 22,
          "midi": 53,
          "name": "F3",
          "ticks": 20880,
          "time": 101.84807250000001,
          "velocity": 0.6299212598425197
        },
        {
          "duration": 0.10731118750000235,
          "durationTicks": 22,
          "midi": 53,
          "name": "F3",
          "ticks": 20958,
          "time": 102.2285394375,
          "velocity": 0.6299212598425197
        },
        {
          "duration": 0.10731118750000235,
          "durationTicks": 22,
          "midi": 48,
          "name": "C3",
          "ticks": 20958,
          "time": 102.2285394375,
          "velocity": 0.6299212598425197
        },
        {
          "duration": 0.10731118749998814,
          "durationTicks": 22,
          "midi": 48,
          "name": "C3",
          "ticks": 21024,
          "time": 102.55047300000001,
          "velocity": 0.6299212598425197
        },
        {
          "duration": 0.10731118749998814,
          "durationTicks": 22,
          "midi": 53,
          "name": "F3",
          "ticks": 21024,
          "time": 102.55047300000001,
          "velocity": 0.6299212598425197
        },
        {
          "duration": 0.10731118750000235,
          "durationTicks": 22,
          "midi": 48,
          "name": "C3",
          "ticks": 21072,
          "time": 102.78460650000001,
          "velocity": 0.6299212598425197
        },
        {
          "duration": 0.10731118750000235,
          "durationTicks": 22,
          "midi": 53,
          "name": "F3",
          "ticks": 21072,
          "time": 102.78460650000001,
          "velocity": 0.6299212598425197
        },
        {
          "duration": 0.10731118749998814,
          "durationTicks": 22,
          "midi": 53,
          "name": "F3",
          "ticks": 21102,
          "time": 102.93093993750001,
          "velocity": 0.6299212598425197
        },
        {
          "duration": 0.10731118749998814,
          "durationTicks": 22,
          "midi": 48,
          "name": "C3",
          "ticks": 21102,
          "time": 102.93093993750001,
          "velocity": 0.6299212598425197
        },
        {
          "duration": 0.10731118750000235,
          "durationTicks": 22,
          "midi": 48,
          "name": "C3",
          "ticks": 21120,
          "time": 103.01874000000001,
          "velocity": 0.6299212598425197
        },
        {
          "duration": 0.10731118750000235,
          "durationTicks": 22,
          "midi": 53,
          "name": "F3",
          "ticks": 21120,
          "time": 103.01874000000001,
          "velocity": 0.6299212598425197
        },
        {
          "duration": 0.10731118750000235,
          "durationTicks": 22,
          "midi": 48,
          "name": "C3",
          "ticks": 21168,
          "time": 103.2528735,
          "velocity": 0.6299212598425197
        },
        {
          "duration": 0.10731118750000235,
          "durationTicks": 22,
          "midi": 53,
          "name": "F3",
          "ticks": 21168,
          "time": 103.2528735,
          "velocity": 0.6299212598425197
        },
        {
          "duration": 0.10731118749998814,
          "durationTicks": 22,
          "midi": 53,
          "name": "F3",
          "ticks": 21198,
          "time": 103.39920693750001,
          "velocity": 0.6299212598425197
        },
        {
          "duration": 0.10731118749998814,
          "durationTicks": 22,
          "midi": 48,
          "name": "C3",
          "ticks": 21198,
          "time": 103.39920693750001,
          "velocity": 0.6299212598425197
        },
        {
          "duration": 0.10731118750000235,
          "durationTicks": 22,
          "midi": 48,
          "name": "C3",
          "ticks": 21264,
          "time": 103.7211405,
          "velocity": 0.6299212598425197
        },
        {
          "duration": 0.10731118750000235,
          "durationTicks": 22,
          "midi": 53,
          "name": "F3",
          "ticks": 21264,
          "time": 103.7211405,
          "velocity": 0.6299212598425197
        },
        {
          "duration": 0.10731118750000235,
          "durationTicks": 22,
          "midi": 53,
          "name": "F3",
          "ticks": 21342,
          "time": 104.10160743750001,
          "velocity": 0.6299212598425197
        },
        {
          "duration": 0.10731118750000235,
          "durationTicks": 22,
          "midi": 48,
          "name": "C3",
          "ticks": 21342,
          "time": 104.10160743750001,
          "velocity": 0.6299212598425197
        },
        {
          "duration": 0.10731118749998814,
          "durationTicks": 22,
          "midi": 48,
          "name": "C3",
          "ticks": 21408,
          "time": 104.42354100000001,
          "velocity": 0.6299212598425197
        },
        {
          "duration": 0.10731118749998814,
          "durationTicks": 22,
          "midi": 53,
          "name": "F3",
          "ticks": 21408,
          "time": 104.42354100000001,
          "velocity": 0.6299212598425197
        },
        {
          "duration": 0.10731118749998814,
          "durationTicks": 22,
          "midi": 48,
          "name": "C3",
          "ticks": 21456,
          "time": 104.65767450000001,
          "velocity": 0.6299212598425197
        },
        {
          "duration": 0.10731118749998814,
          "durationTicks": 22,
          "midi": 53,
          "name": "F3",
          "ticks": 21456,
          "time": 104.65767450000001,
          "velocity": 0.6299212598425197
        },
        {
          "duration": 0.10731118750000235,
          "durationTicks": 22,
          "midi": 53,
          "name": "F3",
          "ticks": 21486,
          "time": 104.8040079375,
          "velocity": 0.6299212598425197
        },
        {
          "duration": 0.10731118750000235,
          "durationTicks": 22,
          "midi": 48,
          "name": "C3",
          "ticks": 21486,
          "time": 104.8040079375,
          "velocity": 0.6299212598425197
        },
        {
          "duration": 0.10731118749998814,
          "durationTicks": 22,
          "midi": 53,
          "name": "F3",
          "ticks": 21504,
          "time": 104.89180800000001,
          "velocity": 0.6299212598425197
        },
        {
          "duration": 0.10731118749998814,
          "durationTicks": 22,
          "midi": 53,
          "name": "F3",
          "ticks": 21534,
          "time": 105.03814143750002,
          "velocity": 0.6299212598425197
        },
        {
          "duration": 0.21950015624999253,
          "durationTicks": 45,
          "midi": 53,
          "name": "F3",
          "ticks": 21552,
          "time": 105.12594150000001,
          "velocity": 0.6299212598425197
        },
        {
          "duration": 0.21950015625000674,
          "durationTicks": 45,
          "midi": 52,
          "name": "E3",
          "ticks": 21600,
          "time": 105.36007500000001,
          "velocity": 0.6299212598425197
        },
        {
          "duration": 0.21950015625000674,
          "durationTicks": 45,
          "midi": 52,
          "name": "E3",
          "ticks": 21648,
          "time": 105.59420850000001,
          "velocity": 0.6299212598425197
        },
        {
          "duration": 0.21950015625000674,
          "durationTicks": 45,
          "midi": 51,
          "name": "D#3",
          "ticks": 21696,
          "time": 105.828342,
          "velocity": 0.6299212598425197
        },
        {
          "duration": 0.21950015625000674,
          "durationTicks": 45,
          "midi": 51,
          "name": "D#3",
          "ticks": 21744,
          "time": 106.0624755,
          "velocity": 0.6299212598425197
        },
        {
          "duration": 0.21950015625000674,
          "durationTicks": 45,
          "midi": 50,
          "name": "D3",
          "ticks": 21792,
          "time": 106.296609,
          "velocity": 0.6299212598425197
        },
        {
          "duration": 0.21950015624999253,
          "durationTicks": 45,
          "midi": 49,
          "name": "C#3",
          "ticks": 21840,
          "time": 106.53074250000002,
          "velocity": 0.6299212598425197
        },
        {
          "duration": 0.10731118749998814,
          "durationTicks": 22,
          "midi": 48,
          "name": "C3",
          "ticks": 21888,
          "time": 106.76487600000002,
          "velocity": 0.6299212598425197
        },
        {
          "duration": 0.10731118750000235,
          "durationTicks": 22,
          "midi": 48,
          "name": "C3",
          "ticks": 21918,
          "time": 106.9112094375,
          "velocity": 0.6299212598425197
        },
        {
          "duration": 0.21950015624999253,
          "durationTicks": 45,
          "midi": 48,
          "name": "C3",
          "ticks": 21936,
          "time": 106.99900950000001,
          "velocity": 0.6299212598425197
        },
        {
          "duration": 0.21950015624999253,
          "durationTicks": 45,
          "midi": 47,
          "name": "B2",
          "ticks": 21984,
          "time": 107.23314300000001,
          "velocity": 0.6299212598425197
        },
        {
          "duration": 0.21950015624999253,
          "durationTicks": 45,
          "midi": 47,
          "name": "B2",
          "ticks": 22032,
          "time": 107.46727650000001,
          "velocity": 0.6299212598425197
        },
        {
          "duration": 0.21950015625000674,
          "durationTicks": 45,
          "midi": 46,
          "name": "A#2",
          "ticks": 22080,
          "time": 107.70141000000001,
          "velocity": 0.6299212598425197
        },
        {
          "duration": 0.21950015625000674,
          "durationTicks": 45,
          "midi": 46,
          "name": "A#2",
          "ticks": 22128,
          "time": 107.93554350000001,
          "velocity": 0.6299212598425197
        },
        {
          "duration": 0.21950015625000674,
          "durationTicks": 45,
          "midi": 44,
          "name": "G#2",
          "ticks": 22176,
          "time": 108.16967700000001,
          "velocity": 0.6299212598425197
        },
        {
          "duration": 0.21950015625000674,
          "durationTicks": 45,
          "midi": 41,
          "name": "F2",
          "ticks": 22224,
          "time": 108.4038105,
          "velocity": 0.6299212598425197
        },
        {
          "duration": 0.10731118750000235,
          "durationTicks": 22,
          "midi": 53,
          "name": "F3",
          "ticks": 22272,
          "time": 108.637944,
          "velocity": 0.6299212598425197
        },
        {
          "duration": 0.10731118750000235,
          "durationTicks": 22,
          "midi": 53,
          "name": "F3",
          "ticks": 22302,
          "time": 108.78427743750001,
          "velocity": 0.6299212598425197
        },
        {
          "duration": 0.21950015624999253,
          "durationTicks": 45,
          "midi": 53,
          "name": "F3",
          "ticks": 22320,
          "time": 108.87207750000002,
          "velocity": 0.6299212598425197
        },
        {
          "duration": 0.21950015624999253,
          "durationTicks": 45,
          "midi": 52,
          "name": "E3",
          "ticks": 22368,
          "time": 109.10621100000002,
          "velocity": 0.6299212598425197
        },
        {
          "duration": 0.21950015624999253,
          "durationTicks": 45,
          "midi": 52,
          "name": "E3",
          "ticks": 22416,
          "time": 109.34034450000001,
          "velocity": 0.6299212598425197
        },
        {
          "duration": 0.21950015624999253,
          "durationTicks": 45,
          "midi": 51,
          "name": "D#3",
          "ticks": 22464,
          "time": 109.57447800000001,
          "velocity": 0.6299212598425197
        },
        {
          "duration": 0.21950015624999253,
          "durationTicks": 45,
          "midi": 51,
          "name": "D#3",
          "ticks": 22512,
          "time": 109.80861150000001,
          "velocity": 0.6299212598425197
        },
        {
          "duration": 0.21950015625000674,
          "durationTicks": 45,
          "midi": 50,
          "name": "D3",
          "ticks": 22560,
          "time": 110.04274500000001,
          "velocity": 0.6299212598425197
        },
        {
          "duration": 0.21950015625000674,
          "durationTicks": 45,
          "midi": 49,
          "name": "C#3",
          "ticks": 22608,
          "time": 110.27687850000001,
          "velocity": 0.6299212598425197
        },
        {
          "duration": 0.10731118750000235,
          "durationTicks": 22,
          "midi": 48,
          "name": "C3",
          "ticks": 22656,
          "time": 110.51101200000001,
          "velocity": 0.6299212598425197
        },
        {
          "duration": 0.10731118749998814,
          "durationTicks": 22,
          "midi": 48,
          "name": "C3",
          "ticks": 22686,
          "time": 110.65734543750001,
          "velocity": 0.6299212598425197
        },
        {
          "duration": 0.21950015625000674,
          "durationTicks": 45,
          "midi": 48,
          "name": "C3",
          "ticks": 22704,
          "time": 110.7451455,
          "velocity": 0.6299212598425197
        },
        {
          "duration": 0.21950015625000674,
          "durationTicks": 45,
          "midi": 47,
          "name": "B2",
          "ticks": 22752,
          "time": 110.979279,
          "velocity": 0.6299212598425197
        },
        {
          "duration": 0.21950015625000674,
          "durationTicks": 45,
          "midi": 47,
          "name": "B2",
          "ticks": 22800,
          "time": 111.2134125,
          "velocity": 0.6299212598425197
        },
        {
          "duration": 0.21950015624999253,
          "durationTicks": 45,
          "midi": 46,
          "name": "A#2",
          "ticks": 22848,
          "time": 111.44754600000002,
          "velocity": 0.6299212598425197
        },
        {
          "duration": 0.21950015624999253,
          "durationTicks": 45,
          "midi": 46,
          "name": "A#2",
          "ticks": 22896,
          "time": 111.68167950000002,
          "velocity": 0.6299212598425197
        },
        {
          "duration": 0.21950015624999253,
          "durationTicks": 45,
          "midi": 44,
          "name": "G#2",
          "ticks": 22944,
          "time": 111.91581300000001,
          "velocity": 0.6299212598425197
        },
        {
          "duration": 0.21950015624999253,
          "durationTicks": 45,
          "midi": 41,
          "name": "F2",
          "ticks": 22992,
          "time": 112.14994650000001,
          "velocity": 0.6299212598425197
        },
        {
          "duration": 0.21950015624999253,
          "durationTicks": 45,
          "midi": 41,
          "name": "F2",
          "ticks": 23040,
          "time": 112.38408000000001,
          "velocity": 0.6299212598425197
        },
        {
          "duration": 0.21950015625000674,
          "durationTicks": 45,
          "midi": 53,
          "name": "F3",
          "ticks": 23088,
          "time": 112.61821350000001,
          "velocity": 0.6299212598425197
        },
        {
          "duration": 0.21950015625000674,
          "durationTicks": 45,
          "midi": 41,
          "name": "F2",
          "ticks": 23136,
          "time": 112.85234700000001,
          "velocity": 0.6299212598425197
        },
        {
          "duration": 0.21950015625000674,
          "durationTicks": 45,
          "midi": 53,
          "name": "F3",
          "ticks": 23184,
          "time": 113.08648050000001,
          "velocity": 0.6299212598425197
        },
        {
          "duration": 0.21950015625000674,
          "durationTicks": 45,
          "midi": 41,
          "name": "F2",
          "ticks": 23232,
          "time": 113.320614,
          "velocity": 0.6299212598425197
        },
        {
          "duration": 0.21950015625000674,
          "durationTicks": 45,
          "midi": 53,
          "name": "F3",
          "ticks": 23280,
          "time": 113.5547475,
          "velocity": 0.6299212598425197
        },
        {
          "duration": 0.21950015624999253,
          "durationTicks": 45,
          "midi": 41,
          "name": "F2",
          "ticks": 23328,
          "time": 113.78888100000002,
          "velocity": 0.6299212598425197
        },
        {
          "duration": 0.21950015624999253,
          "durationTicks": 45,
          "midi": 53,
          "name": "F3",
          "ticks": 23376,
          "time": 114.02301450000002,
          "velocity": 0.6299212598425197
        },
        {
          "duration": 0.21950015624999253,
          "durationTicks": 45,
          "midi": 41,
          "name": "F2",
          "ticks": 23424,
          "time": 114.25714800000002,
          "velocity": 0.6299212598425197
        },
        {
          "duration": 0.21950015624999253,
          "durationTicks": 45,
          "midi": 48,
          "name": "C3",
          "ticks": 23472,
          "time": 114.49128150000001,
          "velocity": 0.6299212598425197
        },
        {
          "duration": 0.21950015624999253,
          "durationTicks": 45,
          "midi": 53,
          "name": "F3",
          "ticks": 23472,
          "time": 114.49128150000001,
          "velocity": 0.6299212598425197
        },
        {
          "duration": 0.21950015624999253,
          "durationTicks": 45,
          "midi": 41,
          "name": "F2",
          "ticks": 23520,
          "time": 114.72541500000001,
          "velocity": 0.6299212598425197
        },
        {
          "duration": 0.21950015625000674,
          "durationTicks": 45,
          "midi": 48,
          "name": "C3",
          "ticks": 23568,
          "time": 114.95954850000001,
          "velocity": 0.6299212598425197
        },
        {
          "duration": 0.21950015625000674,
          "durationTicks": 45,
          "midi": 53,
          "name": "F3",
          "ticks": 23568,
          "time": 114.95954850000001,
          "velocity": 0.6299212598425197
        },
        {
          "duration": 0.21950015625000674,
          "durationTicks": 45,
          "midi": 41,
          "name": "F2",
          "ticks": 23616,
          "time": 115.19368200000001,
          "velocity": 0.6299212598425197
        },
        {
          "duration": 0.21950015625000674,
          "durationTicks": 45,
          "midi": 48,
          "name": "C3",
          "ticks": 23664,
          "time": 115.42781550000001,
          "velocity": 0.6299212598425197
        },
        {
          "duration": 0.21950015625000674,
          "durationTicks": 45,
          "midi": 53,
          "name": "F3",
          "ticks": 23664,
          "time": 115.42781550000001,
          "velocity": 0.6299212598425197
        },
        {
          "duration": 0.21950015625000674,
          "durationTicks": 45,
          "midi": 41,
          "name": "F2",
          "ticks": 23712,
          "time": 115.661949,
          "velocity": 0.6299212598425197
        },
        {
          "duration": 0.21950015625000674,
          "durationTicks": 45,
          "midi": 48,
          "name": "C3",
          "ticks": 23760,
          "time": 115.8960825,
          "velocity": 0.6299212598425197
        },
        {
          "duration": 0.21950015625000674,
          "durationTicks": 45,
          "midi": 53,
          "name": "F3",
          "ticks": 23760,
          "time": 115.8960825,
          "velocity": 0.6299212598425197
        },
        {
          "duration": 0.21950015625000674,
          "durationTicks": 45,
          "midi": 44,
          "name": "G#2",
          "ticks": 23808,
          "time": 116.130216,
          "velocity": 0.6299212598425197
        },
        {
          "duration": 0.21950015624999253,
          "durationTicks": 45,
          "midi": 56,
          "name": "G#3",
          "ticks": 23856,
          "time": 116.36434950000002,
          "velocity": 0.6299212598425197
        },
        {
          "duration": 0.21950015624999253,
          "durationTicks": 45,
          "midi": 44,
          "name": "G#2",
          "ticks": 23904,
          "time": 116.59848300000002,
          "velocity": 0.6299212598425197
        },
        {
          "duration": 0.21950015624999253,
          "durationTicks": 45,
          "midi": 56,
          "name": "G#3",
          "ticks": 23952,
          "time": 116.83261650000001,
          "velocity": 0.6299212598425197
        },
        {
          "duration": 0.21950015624999253,
          "durationTicks": 45,
          "midi": 44,
          "name": "G#2",
          "ticks": 24000,
          "time": 117.06675000000001,
          "velocity": 0.6299212598425197
        },
        {
          "duration": 0.21950015624999253,
          "durationTicks": 45,
          "midi": 56,
          "name": "G#3",
          "ticks": 24048,
          "time": 117.30088350000001,
          "velocity": 0.6299212598425197
        },
        {
          "duration": 0.21950015625000674,
          "durationTicks": 45,
          "midi": 44,
          "name": "G#2",
          "ticks": 24096,
          "time": 117.53501700000001,
          "velocity": 0.6299212598425197
        },
        {
          "duration": 0.21950015625000674,
          "durationTicks": 45,
          "midi": 56,
          "name": "G#3",
          "ticks": 24144,
          "time": 117.76915050000001,
          "velocity": 0.6299212598425197
        },
        {
          "duration": 0.21950015625000674,
          "durationTicks": 45,
          "midi": 44,
          "name": "G#2",
          "ticks": 24192,
          "time": 118.00328400000001,
          "velocity": 0.6299212598425197
        },
        {
          "duration": 0.21950015625000674,
          "durationTicks": 45,
          "midi": 48,
          "name": "C3",
          "ticks": 24240,
          "time": 118.2374175,
          "velocity": 0.6299212598425197
        },
        {
          "duration": 0.21950015625000674,
          "durationTicks": 45,
          "midi": 56,
          "name": "G#3",
          "ticks": 24240,
          "time": 118.2374175,
          "velocity": 0.6299212598425197
        },
        {
          "duration": 0.21950015625000674,
          "durationTicks": 45,
          "midi": 44,
          "name": "G#2",
          "ticks": 24288,
          "time": 118.471551,
          "velocity": 0.6299212598425197
        },
        {
          "duration": 0.21950015624999253,
          "durationTicks": 45,
          "midi": 48,
          "name": "C3",
          "ticks": 24336,
          "time": 118.70568450000002,
          "velocity": 0.6299212598425197
        },
        {
          "duration": 0.21950015624999253,
          "durationTicks": 45,
          "midi": 56,
          "name": "G#3",
          "ticks": 24336,
          "time": 118.70568450000002,
          "velocity": 0.6299212598425197
        },
        {
          "duration": 0.21950015624999253,
          "durationTicks": 45,
          "midi": 44,
          "name": "G#2",
          "ticks": 24384,
          "time": 118.93981800000002,
          "velocity": 0.6299212598425197
        },
        {
          "duration": 0.21950015624999253,
          "durationTicks": 45,
          "midi": 48,
          "name": "C3",
          "ticks": 24432,
          "time": 119.17395150000002,
          "velocity": 0.6299212598425197
        },
        {
          "duration": 0.21950015624999253,
          "durationTicks": 45,
          "midi": 56,
          "name": "G#3",
          "ticks": 24432,
          "time": 119.17395150000002,
          "velocity": 0.6299212598425197
        },
        {
          "duration": 0.21950015624999253,
          "durationTicks": 45,
          "midi": 44,
          "name": "G#2",
          "ticks": 24480,
          "time": 119.40808500000001,
          "velocity": 0.6299212598425197
        },
        {
          "duration": 0.21950015624999253,
          "durationTicks": 45,
          "midi": 48,
          "name": "C3",
          "ticks": 24528,
          "time": 119.64221850000001,
          "velocity": 0.6299212598425197
        },
        {
          "duration": 0.21950015624999253,
          "durationTicks": 45,
          "midi": 56,
          "name": "G#3",
          "ticks": 24528,
          "time": 119.64221850000001,
          "velocity": 0.6299212598425197
        },
        {
          "duration": 0.21950015625000674,
          "durationTicks": 45,
          "midi": 46,
          "name": "A#2",
          "ticks": 24576,
          "time": 119.87635200000001,
          "velocity": 0.6299212598425197
        },
        {
          "duration": 0.21950015625000674,
          "durationTicks": 45,
          "midi": 58,
          "name": "A#3",
          "ticks": 24624,
          "time": 120.11048550000001,
          "velocity": 0.6299212598425197
        },
        {
          "duration": 0.21950015625000674,
          "durationTicks": 45,
          "midi": 46,
          "name": "A#2",
          "ticks": 24672,
          "time": 120.34461900000001,
          "velocity": 0.6299212598425197
        },
        {
          "duration": 0.21950015625000674,
          "durationTicks": 45,
          "midi": 58,
          "name": "A#3",
          "ticks": 24720,
          "time": 120.57875250000001,
          "velocity": 0.6299212598425197
        },
        {
          "duration": 0.21950015625000674,
          "durationTicks": 45,
          "midi": 46,
          "name": "A#2",
          "ticks": 24768,
          "time": 120.812886,
          "velocity": 0.6299212598425197
        },
        {
          "duration": 0.21950015625000674,
          "durationTicks": 45,
          "midi": 58,
          "name": "A#3",
          "ticks": 24816,
          "time": 121.0470195,
          "velocity": 0.6299212598425197
        },
        {
          "duration": 0.21950015624999253,
          "durationTicks": 45,
          "midi": 46,
          "name": "A#2",
          "ticks": 24864,
          "time": 121.28115300000002,
          "velocity": 0.6299212598425197
        },
        {
          "duration": 0.21950015624999253,
          "durationTicks": 45,
          "midi": 58,
          "name": "A#3",
          "ticks": 24912,
          "time": 121.51528650000002,
          "velocity": 0.6299212598425197
        },
        {
          "duration": 0.21950015624999253,
          "durationTicks": 45,
          "midi": 46,
          "name": "A#2",
          "ticks": 24960,
          "time": 121.74942000000001,
          "velocity": 0.6299212598425197
        },
        {
          "duration": 0.21950015624999253,
          "durationTicks": 45,
          "midi": 53,
          "name": "F3",
          "ticks": 25008,
          "time": 121.98355350000001,
          "velocity": 0.6299212598425197
        },
        {
          "duration": 0.21950015624999253,
          "durationTicks": 45,
          "midi": 58,
          "name": "A#3",
          "ticks": 25008,
          "time": 121.98355350000001,
          "velocity": 0.6299212598425197
        },
        {
          "duration": 0.21950015624999253,
          "durationTicks": 45,
          "midi": 46,
          "name": "A#2",
          "ticks": 25056,
          "time": 122.21768700000001,
          "velocity": 0.6299212598425197
        },
        {
          "duration": 0.21950015625000674,
          "durationTicks": 45,
          "midi": 53,
          "name": "F3",
          "ticks": 25104,
          "time": 122.45182050000001,
          "velocity": 0.6299212598425197
        },
        {
          "duration": 0.21950015625000674,
          "durationTicks": 45,
          "midi": 58,
          "name": "A#3",
          "ticks": 25104,
          "time": 122.45182050000001,
          "velocity": 0.6299212598425197
        },
        {
          "duration": 0.21950015625000674,
          "durationTicks": 45,
          "midi": 46,
          "name": "A#2",
          "ticks": 25152,
          "time": 122.68595400000001,
          "velocity": 0.6299212598425197
        },
        {
          "duration": 0.21950015625000674,
          "durationTicks": 45,
          "midi": 53,
          "name": "F3",
          "ticks": 25200,
          "time": 122.92008750000001,
          "velocity": 0.6299212598425197
        },
        {
          "duration": 0.21950015625000674,
          "durationTicks": 45,
          "midi": 58,
          "name": "A#3",
          "ticks": 25200,
          "time": 122.92008750000001,
          "velocity": 0.6299212598425197
        },
        {
          "duration": 0.21950015625000674,
          "durationTicks": 45,
          "midi": 46,
          "name": "A#2",
          "ticks": 25248,
          "time": 123.154221,
          "velocity": 0.6299212598425197
        },
        {
          "duration": 0.21950015625000674,
          "durationTicks": 45,
          "midi": 53,
          "name": "F3",
          "ticks": 25296,
          "time": 123.3883545,
          "velocity": 0.6299212598425197
        },
        {
          "duration": 0.21950015625000674,
          "durationTicks": 45,
          "midi": 58,
          "name": "A#3",
          "ticks": 25296,
          "time": 123.3883545,
          "velocity": 0.6299212598425197
        },
        {
          "duration": 0.663378250000008,
          "durationTicks": 136,
          "midi": 41,
          "name": "F2",
          "ticks": 25344,
          "time": 123.62248800000002,
          "velocity": 0.6299212598425197
        },
        {
          "duration": 0.663378250000008,
          "durationTicks": 136,
          "midi": 53,
          "name": "F3",
          "ticks": 25344,
          "time": 123.62248800000002,
          "velocity": 0.6299212598425197
        },
        {
          "duration": 0.8877561874999884,
          "durationTicks": 182,
          "midi": 42,
          "name": "F#2",
          "ticks": 25488,
          "time": 124.32488850000001,
          "velocity": 0.6299212598425197
        },
        {
          "duration": 0.8877561874999884,
          "durationTicks": 182,
          "midi": 54,
          "name": "F#3",
          "ticks": 25488,
          "time": 124.32488850000001,
          "velocity": 0.6299212598425197
        },
        {
          "duration": 0.663378250000008,
          "durationTicks": 136,
          "midi": 43,
          "name": "G2",
          "ticks": 25728,
          "time": 125.49555600000001,
          "velocity": 0.6299212598425197
        },
        {
          "duration": 0.663378250000008,
          "durationTicks": 136,
          "midi": 51,
          "name": "D#3",
          "ticks": 25728,
          "time": 125.49555600000001,
          "velocity": 0.6299212598425197
        },
        {
          "duration": 0.663378250000008,
          "durationTicks": 136,
          "midi": 55,
          "name": "G3",
          "ticks": 25728,
          "time": 125.49555600000001,
          "velocity": 0.6299212598425197
        },
        {
          "duration": 0.8877561874999884,
          "durationTicks": 182,
          "midi": 48,
          "name": "C3",
          "ticks": 25872,
          "time": 126.19795650000002,
          "velocity": 0.6299212598425197
        },
        {
          "duration": 0.8877561874999884,
          "durationTicks": 182,
          "midi": 60,
          "name": "C4",
          "ticks": 25872,
          "time": 126.19795650000002,
          "velocity": 0.6299212598425197
        },
        {
          "duration": 0.21950015625000674,
          "durationTicks": 45,
          "midi": 41,
          "name": "F2",
          "ticks": 26112,
          "time": 127.36862400000001,
          "velocity": 0.6299212598425197
        },
        {
          "duration": 0.21950015625000674,
          "durationTicks": 45,
          "midi": 53,
          "name": "F3",
          "ticks": 26160,
          "time": 127.60275750000001,
          "velocity": 0.6299212598425197
        },
        {
          "duration": 0.21950015625000674,
          "durationTicks": 45,
          "midi": 41,
          "name": "F2",
          "ticks": 26208,
          "time": 127.83689100000001,
          "velocity": 0.6299212598425197
        },
        {
          "duration": 0.21950015624997832,
          "durationTicks": 45,
          "midi": 53,
          "name": "F3",
          "ticks": 26256,
          "time": 128.07102450000002,
          "velocity": 0.6299212598425197
        },
        {
          "duration": 0.21950015625000674,
          "durationTicks": 45,
          "midi": 41,
          "name": "F2",
          "ticks": 26304,
          "time": 128.305158,
          "velocity": 0.6299212598425197
        },
        {
          "duration": 0.21950015625000674,
          "durationTicks": 45,
          "midi": 53,
          "name": "F3",
          "ticks": 26352,
          "time": 128.53929150000002,
          "velocity": 0.6299212598425197
        },
        {
          "duration": 0.21950015625000674,
          "durationTicks": 45,
          "midi": 41,
          "name": "F2",
          "ticks": 26400,
          "time": 128.773425,
          "velocity": 0.6299212598425197
        },
        {
          "duration": 0.21950015625000674,
          "durationTicks": 45,
          "midi": 53,
          "name": "F3",
          "ticks": 26448,
          "time": 129.00755850000002,
          "velocity": 0.6299212598425197
        },
        {
          "duration": 0.21950015625000674,
          "durationTicks": 45,
          "midi": 41,
          "name": "F2",
          "ticks": 26496,
          "time": 129.241692,
          "velocity": 0.6299212598425197
        },
        {
          "duration": 0.21950015625000674,
          "durationTicks": 45,
          "midi": 48,
          "name": "C3",
          "ticks": 26544,
          "time": 129.4758255,
          "velocity": 0.6299212598425197
        },
        {
          "duration": 0.21950015625000674,
          "durationTicks": 45,
          "midi": 53,
          "name": "F3",
          "ticks": 26544,
          "time": 129.4758255,
          "velocity": 0.6299212598425197
        },
        {
          "duration": 0.21950015624997832,
          "durationTicks": 45,
          "midi": 41,
          "name": "F2",
          "ticks": 26592,
          "time": 129.70995900000003,
          "velocity": 0.6299212598425197
        },
        {
          "duration": 0.21950015625000674,
          "durationTicks": 45,
          "midi": 48,
          "name": "C3",
          "ticks": 26640,
          "time": 129.9440925,
          "velocity": 0.6299212598425197
        },
        {
          "duration": 0.21950015625000674,
          "durationTicks": 45,
          "midi": 53,
          "name": "F3",
          "ticks": 26640,
          "time": 129.9440925,
          "velocity": 0.6299212598425197
        },
        {
          "duration": 0.21950015624997832,
          "durationTicks": 45,
          "midi": 41,
          "name": "F2",
          "ticks": 26688,
          "time": 130.17822600000002,
          "velocity": 0.6299212598425197
        },
        {
          "duration": 0.21950015625000674,
          "durationTicks": 45,
          "midi": 48,
          "name": "C3",
          "ticks": 26736,
          "time": 130.4123595,
          "velocity": 0.6299212598425197
        },
        {
          "duration": 0.21950015625000674,
          "durationTicks": 45,
          "midi": 53,
          "name": "F3",
          "ticks": 26736,
          "time": 130.4123595,
          "velocity": 0.6299212598425197
        },
        {
          "duration": 0.21950015624997832,
          "durationTicks": 45,
          "midi": 41,
          "name": "F2",
          "ticks": 26784,
          "time": 130.64649300000002,
          "velocity": 0.6299212598425197
        },
        {
          "duration": 0.21950015625000674,
          "durationTicks": 45,
          "midi": 48,
          "name": "C3",
          "ticks": 26832,
          "time": 130.8806265,
          "velocity": 0.6299212598425197
        },
        {
          "duration": 0.21950015625000674,
          "durationTicks": 45,
          "midi": 53,
          "name": "F3",
          "ticks": 26832,
          "time": 130.8806265,
          "velocity": 0.6299212598425197
        },
        {
          "duration": 0.21950015625000674,
          "durationTicks": 45,
          "midi": 44,
          "name": "G#2",
          "ticks": 26880,
          "time": 131.11476000000002,
          "velocity": 0.6299212598425197
        },
        {
          "duration": 0.21950015625000674,
          "durationTicks": 45,
          "midi": 56,
          "name": "G#3",
          "ticks": 26928,
          "time": 131.3488935,
          "velocity": 0.6299212598425197
        },
        {
          "duration": 0.21950015625000674,
          "durationTicks": 45,
          "midi": 44,
          "name": "G#2",
          "ticks": 26976,
          "time": 131.58302700000002,
          "velocity": 0.6299212598425197
        },
        {
          "duration": 0.21950015625000674,
          "durationTicks": 45,
          "midi": 56,
          "name": "G#3",
          "ticks": 27024,
          "time": 131.8171605,
          "velocity": 0.6299212598425197
        },
        {
          "duration": 0.21950015625000674,
          "durationTicks": 45,
          "midi": 44,
          "name": "G#2",
          "ticks": 27072,
          "time": 132.051294,
          "velocity": 0.6299212598425197
        },
        {
          "duration": 0.21950015624997832,
          "durationTicks": 45,
          "midi": 56,
          "name": "G#3",
          "ticks": 27120,
          "time": 132.28542750000003,
          "velocity": 0.6299212598425197
        },
        {
          "duration": 0.21950015625000674,
          "durationTicks": 45,
          "midi": 44,
          "name": "G#2",
          "ticks": 27168,
          "time": 132.519561,
          "velocity": 0.6299212598425197
        },
        {
          "duration": 0.21950015624997832,
          "durationTicks": 45,
          "midi": 56,
          "name": "G#3",
          "ticks": 27216,
          "time": 132.75369450000002,
          "velocity": 0.6299212598425197
        },
        {
          "duration": 0.21950015625000674,
          "durationTicks": 45,
          "midi": 44,
          "name": "G#2",
          "ticks": 27264,
          "time": 132.987828,
          "velocity": 0.6299212598425197
        },
        {
          "duration": 0.21950015624997832,
          "durationTicks": 45,
          "midi": 48,
          "name": "C3",
          "ticks": 27312,
          "time": 133.22196150000002,
          "velocity": 0.6299212598425197
        },
        {
          "duration": 0.21950015624997832,
          "durationTicks": 45,
          "midi": 56,
          "name": "G#3",
          "ticks": 27312,
          "time": 133.22196150000002,
          "velocity": 0.6299212598425197
        },
        {
          "duration": 0.21950015625000674,
          "durationTicks": 45,
          "midi": 44,
          "name": "G#2",
          "ticks": 27360,
          "time": 133.456095,
          "velocity": 0.6299212598425197
        },
        {
          "duration": 0.21950015625000674,
          "durationTicks": 45,
          "midi": 48,
          "name": "C3",
          "ticks": 27408,
          "time": 133.69022850000002,
          "velocity": 0.6299212598425197
        },
        {
          "duration": 0.21950015625000674,
          "durationTicks": 45,
          "midi": 56,
          "name": "G#3",
          "ticks": 27408,
          "time": 133.69022850000002,
          "velocity": 0.6299212598425197
        },
        {
          "duration": 0.21950015625000674,
          "durationTicks": 45,
          "midi": 44,
          "name": "G#2",
          "ticks": 27456,
          "time": 133.924362,
          "velocity": 0.6299212598425197
        },
        {
          "duration": 0.21950015625000674,
          "durationTicks": 45,
          "midi": 48,
          "name": "C3",
          "ticks": 27504,
          "time": 134.15849550000001,
          "velocity": 0.6299212598425197
        },
        {
          "duration": 0.21950015625000674,
          "durationTicks": 45,
          "midi": 56,
          "name": "G#3",
          "ticks": 27504,
          "time": 134.15849550000001,
          "velocity": 0.6299212598425197
        },
        {
          "duration": 0.21950015625000674,
          "durationTicks": 45,
          "midi": 44,
          "name": "G#2",
          "ticks": 27552,
          "time": 134.392629,
          "velocity": 0.6299212598425197
        },
        {
          "duration": 0.21950015625000674,
          "durationTicks": 45,
          "midi": 48,
          "name": "C3",
          "ticks": 27600,
          "time": 134.6267625,
          "velocity": 0.6299212598425197
        },
        {
          "duration": 0.21950015625000674,
          "durationTicks": 45,
          "midi": 56,
          "name": "G#3",
          "ticks": 27600,
          "time": 134.6267625,
          "velocity": 0.6299212598425197
        },
        {
          "duration": 0.21950015624997832,
          "durationTicks": 45,
          "midi": 46,
          "name": "A#2",
          "ticks": 27648,
          "time": 134.86089600000003,
          "velocity": 0.6299212598425197
        },
        {
          "duration": 0.21950015625000674,
          "durationTicks": 45,
          "midi": 58,
          "name": "A#3",
          "ticks": 27696,
          "time": 135.0950295,
          "velocity": 0.6299212598425197
        },
        {
          "duration": 0.21950015624997832,
          "durationTicks": 45,
          "midi": 46,
          "name": "A#2",
          "ticks": 27744,
          "time": 135.32916300000002,
          "velocity": 0.6299212598425197
        },
        {
          "duration": 0.21950015625000674,
          "durationTicks": 45,
          "midi": 58,
          "name": "A#3",
          "ticks": 27792,
          "time": 135.5632965,
          "velocity": 0.6299212598425197
        },
        {
          "duration": 0.21950015625000674,
          "durationTicks": 45,
          "midi": 46,
          "name": "A#2",
          "ticks": 27840,
          "time": 135.79743000000002,
          "velocity": 0.6299212598425197
        },
        {
          "duration": 0.21950015625000674,
          "durationTicks": 45,
          "midi": 58,
          "name": "A#3",
          "ticks": 27888,
          "time": 136.0315635,
          "velocity": 0.6299212598425197
        },
        {
          "duration": 0.21950015625000674,
          "durationTicks": 45,
          "midi": 46,
          "name": "A#2",
          "ticks": 27936,
          "time": 136.26569700000002,
          "velocity": 0.6299212598425197
        },
        {
          "duration": 0.21950015625000674,
          "durationTicks": 45,
          "midi": 58,
          "name": "A#3",
          "ticks": 27984,
          "time": 136.4998305,
          "velocity": 0.6299212598425197
        },
        {
          "duration": 0.21950015625000674,
          "durationTicks": 45,
          "midi": 46,
          "name": "A#2",
          "ticks": 28032,
          "time": 136.73396400000001,
          "velocity": 0.6299212598425197
        },
        {
          "duration": 0.21950015625000674,
          "durationTicks": 45,
          "midi": 53,
          "name": "F3",
          "ticks": 28080,
          "time": 136.9680975,
          "velocity": 0.6299212598425197
        },
        {
          "duration": 0.21950015625000674,
          "durationTicks": 45,
          "midi": 58,
          "name": "A#3",
          "ticks": 28080,
          "time": 136.9680975,
          "velocity": 0.6299212598425197
        },
        {
          "duration": 0.21950015625000674,
          "durationTicks": 45,
          "midi": 46,
          "name": "A#2",
          "ticks": 28128,
          "time": 137.202231,
          "velocity": 0.6299212598425197
        },
        {
          "duration": 0.21950015624997832,
          "durationTicks": 45,
          "midi": 53,
          "name": "F3",
          "ticks": 28176,
          "time": 137.43636450000002,
          "velocity": 0.6299212598425197
        },
        {
          "duration": 0.21950015624997832,
          "durationTicks": 45,
          "midi": 58,
          "name": "A#3",
          "ticks": 28176,
          "time": 137.43636450000002,
          "velocity": 0.6299212598425197
        },
        {
          "duration": 0.21950015625000674,
          "durationTicks": 45,
          "midi": 46,
          "name": "A#2",
          "ticks": 28224,
          "time": 137.670498,
          "velocity": 0.6299212598425197
        },
        {
          "duration": 0.21950015624997832,
          "durationTicks": 45,
          "midi": 53,
          "name": "F3",
          "ticks": 28272,
          "time": 137.90463150000002,
          "velocity": 0.6299212598425197
        },
        {
          "duration": 0.21950015624997832,
          "durationTicks": 45,
          "midi": 58,
          "name": "A#3",
          "ticks": 28272,
          "time": 137.90463150000002,
          "velocity": 0.6299212598425197
        },
        {
          "duration": 0.21950015625000674,
          "durationTicks": 45,
          "midi": 46,
          "name": "A#2",
          "ticks": 28320,
          "time": 138.138765,
          "velocity": 0.6299212598425197
        },
        {
          "duration": 0.21950015625000674,
          "durationTicks": 45,
          "midi": 53,
          "name": "F3",
          "ticks": 28368,
          "time": 138.37289850000002,
          "velocity": 0.6299212598425197
        },
        {
          "duration": 0.21950015625000674,
          "durationTicks": 45,
          "midi": 58,
          "name": "A#3",
          "ticks": 28368,
          "time": 138.37289850000002,
          "velocity": 0.6299212598425197
        },
        {
          "duration": 0.21950015625000674,
          "durationTicks": 45,
          "midi": 41,
          "name": "F2",
          "ticks": 28416,
          "time": 138.607032,
          "velocity": 0.6299212598425197
        },
        {
          "duration": 0.21950015625000674,
          "durationTicks": 45,
          "midi": 53,
          "name": "F3",
          "ticks": 28464,
          "time": 138.84116550000002,
          "velocity": 0.6299212598425197
        },
        {
          "duration": 0.21950015625000674,
          "durationTicks": 45,
          "midi": 41,
          "name": "F2",
          "ticks": 28512,
          "time": 139.075299,
          "velocity": 0.6299212598425197
        },
        {
          "duration": 0.21950015625000674,
          "durationTicks": 45,
          "midi": 53,
          "name": "F3",
          "ticks": 28560,
          "time": 139.3094325,
          "velocity": 0.6299212598425197
        },
        {
          "duration": 0.21950015624997832,
          "durationTicks": 45,
          "midi": 41,
          "name": "F2",
          "ticks": 28608,
          "time": 139.54356600000003,
          "velocity": 0.6299212598425197
        },
        {
          "duration": 0.21950015625000674,
          "durationTicks": 45,
          "midi": 53,
          "name": "F3",
          "ticks": 28656,
          "time": 139.7776995,
          "velocity": 0.6299212598425197
        },
        {
          "duration": 0.21950015624997832,
          "durationTicks": 45,
          "midi": 41,
          "name": "F2",
          "ticks": 28704,
          "time": 140.01183300000002,
          "velocity": 0.6299212598425197
        },
        {
          "duration": 0.21950015625000674,
          "durationTicks": 45,
          "midi": 53,
          "name": "F3",
          "ticks": 28752,
          "time": 140.2459665,
          "velocity": 0.6299212598425197
        },
        {
          "duration": 0.21950015624997832,
          "durationTicks": 45,
          "midi": 41,
          "name": "F2",
          "ticks": 28800,
          "time": 140.48010000000002,
          "velocity": 0.6299212598425197
        },
        {
          "duration": 0.21950015625000674,
          "durationTicks": 45,
          "midi": 53,
          "name": "F3",
          "ticks": 28848,
          "time": 140.7142335,
          "velocity": 0.6299212598425197
        },
        {
          "duration": 0.21950015625000674,
          "durationTicks": 45,
          "midi": 41,
          "name": "F2",
          "ticks": 28896,
          "time": 140.94836700000002,
          "velocity": 0.6299212598425197
        },
        {
          "duration": 0.21950015625000674,
          "durationTicks": 45,
          "midi": 53,
          "name": "F3",
          "ticks": 28944,
          "time": 141.1825005,
          "velocity": 0.6299212598425197
        },
        {
          "duration": 0.21950015625000674,
          "durationTicks": 45,
          "midi": 41,
          "name": "F2",
          "ticks": 28992,
          "time": 141.41663400000002,
          "velocity": 0.6299212598425197
        },
        {
          "duration": 0.21950015625000674,
          "durationTicks": 45,
          "midi": 53,
          "name": "F3",
          "ticks": 29040,
          "time": 141.6507675,
          "velocity": 0.6299212598425197
        },
        {
          "duration": 0.21950015625000674,
          "durationTicks": 45,
          "midi": 41,
          "name": "F2",
          "ticks": 29088,
          "time": 141.884901,
          "velocity": 0.6299212598425197
        },
        {
          "duration": 0.21950015624997832,
          "durationTicks": 45,
          "midi": 53,
          "name": "F3",
          "ticks": 29136,
          "time": 142.11903450000003,
          "velocity": 0.6299212598425197
        },
        {
          "duration": 0.21950015625000674,
          "durationTicks": 45,
          "midi": 41,
          "name": "F2",
          "ticks": 29184,
          "time": 142.353168,
          "velocity": 0.6299212598425197
        },
        {
          "duration": 0.21950015624997832,
          "durationTicks": 45,
          "midi": 53,
          "name": "F3",
          "ticks": 29232,
          "time": 142.58730150000002,
          "velocity": 0.6299212598425197
        },
        {
          "duration": 0.21950015625000674,
          "durationTicks": 45,
          "midi": 41,
          "name": "F2",
          "ticks": 29280,
          "time": 142.821435,
          "velocity": 0.6299212598425197
        },
        {
          "duration": 0.21950015625000674,
          "durationTicks": 45,
          "midi": 53,
          "name": "F3",
          "ticks": 29328,
          "time": 143.05556850000002,
          "velocity": 0.6299212598425197
        },
        {
          "duration": 0.21950015625000674,
          "durationTicks": 45,
          "midi": 41,
          "name": "F2",
          "ticks": 29376,
          "time": 143.289702,
          "velocity": 0.6299212598425197
        },
        {
          "duration": 0.21950015625000674,
          "durationTicks": 45,
          "midi": 53,
          "name": "F3",
          "ticks": 29424,
          "time": 143.52383550000002,
          "velocity": 0.6299212598425197
        },
        {
          "duration": 0.21950015625000674,
          "durationTicks": 45,
          "midi": 41,
          "name": "F2",
          "ticks": 29472,
          "time": 143.757969,
          "velocity": 0.6299212598425197
        },
        {
          "duration": 0.21950015625000674,
          "durationTicks": 45,
          "midi": 53,
          "name": "F3",
          "ticks": 29520,
          "time": 143.99210250000002,
          "velocity": 0.6299212598425197
        },
        {
          "duration": 0.21950015625000674,
          "durationTicks": 45,
          "midi": 41,
          "name": "F2",
          "ticks": 29568,
          "time": 144.226236,
          "velocity": 0.6299212598425197
        },
        {
          "duration": 0.21950015625000674,
          "durationTicks": 45,
          "midi": 53,
          "name": "F3",
          "ticks": 29616,
          "time": 144.4603695,
          "velocity": 0.6299212598425197
        },
        {
          "duration": 0.21950015624997832,
          "durationTicks": 45,
          "midi": 41,
          "name": "F2",
          "ticks": 29664,
          "time": 144.69450300000003,
          "velocity": 0.6299212598425197
        },
        {
          "duration": 0.21950015625000674,
          "durationTicks": 45,
          "midi": 53,
          "name": "F3",
          "ticks": 29712,
          "time": 144.9286365,
          "velocity": 0.6299212598425197
        },
        {
          "duration": 0.21950015624997832,
          "durationTicks": 45,
          "midi": 41,
          "name": "F2",
          "ticks": 29760,
          "time": 145.16277000000002,
          "velocity": 0.6299212598425197
        },
        {
          "duration": 0.21950015625000674,
          "durationTicks": 45,
          "midi": 53,
          "name": "F3",
          "ticks": 29808,
          "time": 145.3969035,
          "velocity": 0.6299212598425197
        },
        {
          "duration": 0.21950015625000674,
          "durationTicks": 45,
          "midi": 41,
          "name": "F2",
          "ticks": 29856,
          "time": 145.63103700000002,
          "velocity": 0.6299212598425197
        },
        {
          "duration": 0.21950015625000674,
          "durationTicks": 45,
          "midi": 53,
          "name": "F3",
          "ticks": 29904,
          "time": 145.8651705,
          "velocity": 0.6299212598425197
        },
        {
          "duration": 0.21950015625000674,
          "durationTicks": 45,
          "midi": 44,
          "name": "G#2",
          "ticks": 29952,
          "time": 146.09930400000002,
          "velocity": 0.6299212598425197
        },
        {
          "duration": 0.21950015625000674,
          "durationTicks": 45,
          "midi": 56,
          "name": "G#3",
          "ticks": 30000,
          "time": 146.3334375,
          "velocity": 0.6299212598425197
        },
        {
          "duration": 0.21950015625000674,
          "durationTicks": 45,
          "midi": 44,
          "name": "G#2",
          "ticks": 30048,
          "time": 146.56757100000002,
          "velocity": 0.6299212598425197
        },
        {
          "duration": 0.21950015624997832,
          "durationTicks": 45,
          "midi": 56,
          "name": "G#3",
          "ticks": 30096,
          "time": 146.80170450000003,
          "velocity": 0.6299212598425197
        },
        {
          "duration": 0.21950015625000674,
          "durationTicks": 45,
          "midi": 44,
          "name": "G#2",
          "ticks": 30144,
          "time": 147.035838,
          "velocity": 0.6299212598425197
        },
        {
          "duration": 0.21950015624997832,
          "durationTicks": 45,
          "midi": 56,
          "name": "G#3",
          "ticks": 30192,
          "time": 147.26997150000003,
          "velocity": 0.6299212598425197
        },
        {
          "duration": 0.21950015625000674,
          "durationTicks": 45,
          "midi": 44,
          "name": "G#2",
          "ticks": 30240,
          "time": 147.504105,
          "velocity": 0.6299212598425197
        },
        {
          "duration": 0.21950015624997832,
          "durationTicks": 45,
          "midi": 56,
          "name": "G#3",
          "ticks": 30288,
          "time": 147.73823850000002,
          "velocity": 0.6299212598425197
        },
        {
          "duration": 0.21950015625000674,
          "durationTicks": 45,
          "midi": 44,
          "name": "G#2",
          "ticks": 30336,
          "time": 147.972372,
          "velocity": 0.6299212598425197
        },
        {
          "duration": 0.21950015625000674,
          "durationTicks": 45,
          "midi": 56,
          "name": "G#3",
          "ticks": 30384,
          "time": 148.20650550000002,
          "velocity": 0.6299212598425197
        },
        {
          "duration": 0.21950015625000674,
          "durationTicks": 45,
          "midi": 44,
          "name": "G#2",
          "ticks": 30432,
          "time": 148.440639,
          "velocity": 0.6299212598425197
        },
        {
          "duration": 0.21950015625000674,
          "durationTicks": 45,
          "midi": 56,
          "name": "G#3",
          "ticks": 30480,
          "time": 148.67477250000002,
          "velocity": 0.6299212598425197
        },
        {
          "duration": 0.21950015625000674,
          "durationTicks": 45,
          "midi": 44,
          "name": "G#2",
          "ticks": 30528,
          "time": 148.908906,
          "velocity": 0.6299212598425197
        },
        {
          "duration": 0.21950015625000674,
          "durationTicks": 45,
          "midi": 56,
          "name": "G#3",
          "ticks": 30576,
          "time": 149.14303950000001,
          "velocity": 0.6299212598425197
        },
        {
          "duration": 0.21950015624997832,
          "durationTicks": 45,
          "midi": 44,
          "name": "G#2",
          "ticks": 30624,
          "time": 149.37717300000003,
          "velocity": 0.6299212598425197
        },
        {
          "duration": 0.21950015625000674,
          "durationTicks": 45,
          "midi": 56,
          "name": "G#3",
          "ticks": 30672,
          "time": 149.6113065,
          "velocity": 0.6299212598425197
        },
        {
          "duration": 0.21950015624997832,
          "durationTicks": 45,
          "midi": 46,
          "name": "A#2",
          "ticks": 30720,
          "time": 149.84544000000002,
          "velocity": 0.6299212598425197
        },
        {
          "duration": 0.21950015625000674,
          "durationTicks": 45,
          "midi": 58,
          "name": "A#3",
          "ticks": 30768,
          "time": 150.0795735,
          "velocity": 0.6299212598425197
        },
        {
          "duration": 0.21950015624997832,
          "durationTicks": 45,
          "midi": 46,
          "name": "A#2",
          "ticks": 30816,
          "time": 150.31370700000002,
          "velocity": 0.6299212598425197
        },
        {
          "duration": 0.21950015625000674,
          "durationTicks": 45,
          "midi": 58,
          "name": "A#3",
          "ticks": 30864,
          "time": 150.5478405,
          "velocity": 0.6299212598425197
        },
        {
          "duration": 0.21950015625000674,
          "durationTicks": 45,
          "midi": 46,
          "name": "A#2",
          "ticks": 30912,
          "time": 150.78197400000002,
          "velocity": 0.6299212598425197
        },
        {
          "duration": 0.21950015625000674,
          "durationTicks": 45,
          "midi": 58,
          "name": "A#3",
          "ticks": 30960,
          "time": 151.0161075,
          "velocity": 0.6299212598425197
        },
        {
          "duration": 0.21950015625000674,
          "durationTicks": 45,
          "midi": 46,
          "name": "A#2",
          "ticks": 31008,
          "time": 151.25024100000002,
          "velocity": 0.6299212598425197
        },
        {
          "duration": 0.21950015625000674,
          "durationTicks": 45,
          "midi": 58,
          "name": "A#3",
          "ticks": 31056,
          "time": 151.4843745,
          "velocity": 0.6299212598425197
        },
        {
          "duration": 0.21950015625000674,
          "durationTicks": 45,
          "midi": 46,
          "name": "A#2",
          "ticks": 31104,
          "time": 151.718508,
          "velocity": 0.6299212598425197
        },
        {
          "duration": 0.21950015624997832,
          "durationTicks": 45,
          "midi": 58,
          "name": "A#3",
          "ticks": 31152,
          "time": 151.95264150000003,
          "velocity": 0.6299212598425197
        },
        {
          "duration": 0.21950015625000674,
          "durationTicks": 45,
          "midi": 46,
          "name": "A#2",
          "ticks": 31200,
          "time": 152.186775,
          "velocity": 0.6299212598425197
        },
        {
          "duration": 0.21950015624997832,
          "durationTicks": 45,
          "midi": 58,
          "name": "A#3",
          "ticks": 31248,
          "time": 152.42090850000002,
          "velocity": 0.6299212598425197
        },
        {
          "duration": 0.21950015625000674,
          "durationTicks": 45,
          "midi": 46,
          "name": "A#2",
          "ticks": 31296,
          "time": 152.655042,
          "velocity": 0.6299212598425197
        },
        {
          "duration": 0.21950015625000674,
          "durationTicks": 45,
          "midi": 58,
          "name": "A#3",
          "ticks": 31344,
          "time": 152.88917550000002,
          "velocity": 0.6299212598425197
        },
        {
          "duration": 0.21950015625000674,
          "durationTicks": 45,
          "midi": 46,
          "name": "A#2",
          "ticks": 31392,
          "time": 153.123309,
          "velocity": 0.6299212598425197
        },
        {
          "duration": 0.21950015625000674,
          "durationTicks": 45,
          "midi": 58,
          "name": "A#3",
          "ticks": 31440,
          "time": 153.35744250000002,
          "velocity": 0.6299212598425197
        },
        {
          "duration": 0.6633782500000223,
          "durationTicks": 136,
          "midi": 29,
          "name": "F1",
          "ticks": 31488,
          "time": 153.591576,
          "velocity": 0.6299212598425197
        },
        {
          "duration": 0.6633782500000223,
          "durationTicks": 136,
          "midi": 41,
          "name": "F2",
          "ticks": 31488,
          "time": 153.591576,
          "velocity": 0.6299212598425197
        },
        {
          "duration": 0.8877561875000026,
          "durationTicks": 182,
          "midi": 30,
          "name": "F#1",
          "ticks": 31632,
          "time": 154.2939765,
          "velocity": 0.6299212598425197
        },
        {
          "duration": 0.8877561875000026,
          "durationTicks": 182,
          "midi": 42,
          "name": "F#2",
          "ticks": 31632,
          "time": 154.2939765,
          "velocity": 0.6299212598425197
        },
        {
          "duration": 0.6633782499999938,
          "durationTicks": 136,
          "midi": 31,
          "name": "G1",
          "ticks": 31872,
          "time": 155.46464400000002,
          "velocity": 0.6299212598425197
        },
        {
          "duration": 0.6633782499999938,
          "durationTicks": 136,
          "midi": 43,
          "name": "G2",
          "ticks": 31872,
          "time": 155.46464400000002,
          "velocity": 0.6299212598425197
        },
        {
          "duration": 0.8877561875000026,
          "durationTicks": 182,
          "midi": 36,
          "name": "C2",
          "ticks": 32016,
          "time": 156.1670445,
          "velocity": 0.6299212598425197
        },
        {
          "duration": 0.8877561875000026,
          "durationTicks": 182,
          "midi": 48,
          "name": "C3",
          "ticks": 32016,
          "time": 156.1670445,
          "velocity": 0.6299212598425197
        },
        {
          "duration": 0.0048777812500020445,
          "durationTicks": 1,
          "midi": 64,
          "name": "E4",
          "ticks": 32208,
          "time": 157.10357850000003,
          "velocity": 0.6299212598425197
        },
        {
          "duration": 0.009755562499975667,
          "durationTicks": 2,
          "midi": 63,
          "name": "D#4",
          "ticks": 32209,
          "time": 157.10845628125003,
          "velocity": 0.6299212598425197
        },
        {
          "duration": 0.009755562500004089,
          "durationTicks": 2,
          "midi": 62,
          "name": "D4",
          "ticks": 32211,
          "time": 157.11821184375,
          "velocity": 0.6299212598425197
        },
        {
          "duration": 0.0048777812500020445,
          "durationTicks": 1,
          "midi": 61,
          "name": "C#4",
          "ticks": 32214,
          "time": 157.1328451875,
          "velocity": 0.6299212598425197
        },
        {
          "duration": 0.009755562500004089,
          "durationTicks": 2,
          "midi": 60,
          "name": "C4",
          "ticks": 32215,
          "time": 157.13772296875,
          "velocity": 0.6299212598425197
        },
        {
          "duration": 0.009755562500004089,
          "durationTicks": 2,
          "midi": 59,
          "name": "B3",
          "ticks": 32217,
          "time": 157.14747853125002,
          "velocity": 0.6299212598425197
        },
        {
          "duration": 0.0048777812500020445,
          "durationTicks": 1,
          "midi": 58,
          "name": "A#3",
          "ticks": 32220,
          "time": 157.16211187500002,
          "velocity": 0.6299212598425197
        },
        {
          "duration": 0.009755562500004089,
          "durationTicks": 2,
          "midi": 57,
          "name": "A3",
          "ticks": 32221,
          "time": 157.16698965625002,
          "velocity": 0.6299212598425197
        },
        {
          "duration": 0.009755562499975667,
          "durationTicks": 2,
          "midi": 56,
          "name": "G#3",
          "ticks": 32224,
          "time": 157.18162300000003,
          "velocity": 0.6299212598425197
        },
        {
          "duration": 0.0048777812500020445,
          "durationTicks": 1,
          "midi": 55,
          "name": "G3",
          "ticks": 32229,
          "time": 157.20601190625,
          "velocity": 0.6299212598425197
        },
        {
          "duration": 0.009755562500004089,
          "durationTicks": 2,
          "midi": 54,
          "name": "F#3",
          "ticks": 32230,
          "time": 157.2108896875,
          "velocity": 0.6299212598425197
        },
        {
          "duration": 0.009755562500004089,
          "durationTicks": 2,
          "midi": 53,
          "name": "F3",
          "ticks": 32233,
          "time": 157.22552303125002,
          "velocity": 0.6299212598425197
        },
        {
          "duration": 0.009755562500004089,
          "durationTicks": 2,
          "midi": 51,
          "name": "D#3",
          "ticks": 32238,
          "time": 157.2499119375,
          "velocity": 0.6299212598425197
        },
        {
          "duration": 0.004877781250030466,
          "durationTicks": 1,
          "midi": 52,
          "name": "E3",
          "ticks": 32238,
          "time": 157.2499119375,
          "velocity": 0.6299212598425197
        },
        {
          "duration": 0.009755562499975667,
          "durationTicks": 2,
          "midi": 50,
          "name": "D3",
          "ticks": 32239,
          "time": 157.25478971875003,
          "velocity": 0.6299212598425197
        },
        {
          "duration": 0.009755562500004089,
          "durationTicks": 2,
          "midi": 48,
          "name": "C3",
          "ticks": 32241,
          "time": 157.26454528125,
          "velocity": 0.6299212598425197
        },
        {
          "duration": 0.0048777812500020445,
          "durationTicks": 1,
          "midi": 49,
          "name": "C#3",
          "ticks": 32241,
          "time": 157.26454528125,
          "velocity": 0.6299212598425197
        },
        {
          "duration": 0.009755562500004089,
          "durationTicks": 2,
          "midi": 47,
          "name": "B2",
          "ticks": 32242,
          "time": 157.2694230625,
          "velocity": 0.6299212598425197
        },
        {
          "duration": 0.0048777812500020445,
          "durationTicks": 1,
          "midi": 46,
          "name": "A#2",
          "ticks": 32244,
          "time": 157.27917862500001,
          "velocity": 0.6299212598425197
        },
        {
          "duration": 0.009755562500004089,
          "durationTicks": 2,
          "midi": 45,
          "name": "A2",
          "ticks": 32245,
          "time": 157.28405640625002,
          "velocity": 0.6299212598425197
        },
        {
          "duration": 0.009755562499975667,
          "durationTicks": 2,
          "midi": 44,
          "name": "G#2",
          "ticks": 32247,
          "time": 157.29381196875002,
          "velocity": 0.6299212598425197
        },
        {
          "duration": 0.0048777812500020445,
          "durationTicks": 1,
          "midi": 43,
          "name": "G2",
          "ticks": 32250,
          "time": 157.30844531250003,
          "velocity": 0.6299212598425197
        },
        {
          "duration": 0.019511124999979756,
          "durationTicks": 4,
          "midi": 42,
          "name": "F#2",
          "ticks": 32251,
          "time": 157.31332309375003,
          "velocity": 0.6299212598425197
        },
        {
          "duration": 0.21950015625000674,
          "durationTicks": 45,
          "midi": 41,
          "name": "F2",
          "ticks": 32256,
          "time": 157.337712,
          "velocity": 0.6299212598425197
        },
        {
          "duration": 0.21950015624997832,
          "durationTicks": 45,
          "midi": 53,
          "name": "F3",
          "ticks": 32304,
          "time": 157.57184550000002,
          "velocity": 0.6299212598425197
        },
        {
          "duration": 0.21950015625000674,
          "durationTicks": 45,
          "midi": 41,
          "name": "F2",
          "ticks": 32352,
          "time": 157.805979,
          "velocity": 0.6299212598425197
        },
        {
          "duration": 0.21950015625000674,
          "durationTicks": 45,
          "midi": 53,
          "name": "F3",
          "ticks": 32400,
          "time": 158.04011250000002,
          "velocity": 0.6299212598425197
        },
        {
          "duration": 0.21950015625000674,
          "durationTicks": 45,
          "midi": 41,
          "name": "F2",
          "ticks": 32448,
          "time": 158.274246,
          "velocity": 0.6299212598425197
        },
        {
          "duration": 0.21950015625000674,
          "durationTicks": 45,
          "midi": 53,
          "name": "F3",
          "ticks": 32496,
          "time": 158.50837950000002,
          "velocity": 0.6299212598425197
        },
        {
          "duration": 0.21950015625000674,
          "durationTicks": 45,
          "midi": 41,
          "name": "F2",
          "ticks": 32544,
          "time": 158.742513,
          "velocity": 0.6299212598425197
        },
        {
          "duration": 0.21950015625000674,
          "durationTicks": 45,
          "midi": 53,
          "name": "F3",
          "ticks": 32592,
          "time": 158.97664650000002,
          "velocity": 0.6299212598425197
        },
        {
          "duration": 0.21950015624997832,
          "durationTicks": 45,
          "midi": 41,
          "name": "F2",
          "ticks": 32640,
          "time": 159.21078000000003,
          "velocity": 0.6299212598425197
        },
        {
          "duration": 0.21950015625000674,
          "durationTicks": 45,
          "midi": 53,
          "name": "F3",
          "ticks": 32688,
          "time": 159.4449135,
          "velocity": 0.6299212598425197
        },
        {
          "duration": 0.21950015624997832,
          "durationTicks": 45,
          "midi": 41,
          "name": "F2",
          "ticks": 32736,
          "time": 159.67904700000003,
          "velocity": 0.6299212598425197
        },
        {
          "duration": 0.21950015625000674,
          "durationTicks": 45,
          "midi": 53,
          "name": "F3",
          "ticks": 32784,
          "time": 159.9131805,
          "velocity": 0.6299212598425197
        },
        {
          "duration": 0.21950015624997832,
          "durationTicks": 45,
          "midi": 41,
          "name": "F2",
          "ticks": 32832,
          "time": 160.14731400000002,
          "velocity": 0.6299212598425197
        },
        {
          "duration": 0.21950015625000674,
          "durationTicks": 45,
          "midi": 53,
          "name": "F3",
          "ticks": 32880,
          "time": 160.3814475,
          "velocity": 0.6299212598425197
        },
        {
          "duration": 0.21950015625000674,
          "durationTicks": 45,
          "midi": 41,
          "name": "F2",
          "ticks": 32928,
          "time": 160.61558100000002,
          "velocity": 0.6299212598425197
        },
        {
          "duration": 0.21950015625000674,
          "durationTicks": 45,
          "midi": 53,
          "name": "F3",
          "ticks": 32976,
          "time": 160.8497145,
          "velocity": 0.6299212598425197
        },
        {
          "duration": 0.21950015625000674,
          "durationTicks": 45,
          "midi": 44,
          "name": "G#2",
          "ticks": 33024,
          "time": 161.08384800000002,
          "velocity": 0.6299212598425197
        },
        {
          "duration": 0.21950015625000674,
          "durationTicks": 45,
          "midi": 56,
          "name": "G#3",
          "ticks": 33072,
          "time": 161.3179815,
          "velocity": 0.6299212598425197
        },
        {
          "duration": 0.21950015625000674,
          "durationTicks": 45,
          "midi": 44,
          "name": "G#2",
          "ticks": 33120,
          "time": 161.55211500000001,
          "velocity": 0.6299212598425197
        },
        {
          "duration": 0.21950015624997832,
          "durationTicks": 45,
          "midi": 56,
          "name": "G#3",
          "ticks": 33168,
          "time": 161.78624850000003,
          "velocity": 0.6299212598425197
        },
        {
          "duration": 0.21950015625000674,
          "durationTicks": 45,
          "midi": 44,
          "name": "G#2",
          "ticks": 33216,
          "time": 162.020382,
          "velocity": 0.6299212598425197
        },
        {
          "duration": 0.21950015624997832,
          "durationTicks": 45,
          "midi": 56,
          "name": "G#3",
          "ticks": 33264,
          "time": 162.25451550000002,
          "velocity": 0.6299212598425197
        },
        {
          "duration": 0.21950015625000674,
          "durationTicks": 45,
          "midi": 44,
          "name": "G#2",
          "ticks": 33312,
          "time": 162.488649,
          "velocity": 0.6299212598425197
        },
        {
          "duration": 0.21950015625000674,
          "durationTicks": 45,
          "midi": 56,
          "name": "G#3",
          "ticks": 33360,
          "time": 162.72278250000002,
          "velocity": 0.6299212598425197
        },
        {
          "duration": 0.21950015625000674,
          "durationTicks": 45,
          "midi": 44,
          "name": "G#2",
          "ticks": 33408,
          "time": 162.956916,
          "velocity": 0.6299212598425197
        },
        {
          "duration": 0.21950015625000674,
          "durationTicks": 45,
          "midi": 56,
          "name": "G#3",
          "ticks": 33456,
          "time": 163.19104950000002,
          "velocity": 0.6299212598425197
        },
        {
          "duration": 0.21950015625000674,
          "durationTicks": 45,
          "midi": 44,
          "name": "G#2",
          "ticks": 33504,
          "time": 163.425183,
          "velocity": 0.6299212598425197
        },
        {
          "duration": 0.21950015625000674,
          "durationTicks": 45,
          "midi": 56,
          "name": "G#3",
          "ticks": 33552,
          "time": 163.65931650000002,
          "velocity": 0.6299212598425197
        },
        {
          "duration": 0.21950015625000674,
          "durationTicks": 45,
          "midi": 44,
          "name": "G#2",
          "ticks": 33600,
          "time": 163.89345,
          "velocity": 0.6299212598425197
        },
        {
          "duration": 0.21950015625000674,
          "durationTicks": 45,
          "midi": 56,
          "name": "G#3",
          "ticks": 33648,
          "time": 164.12758350000001,
          "velocity": 0.6299212598425197
        },
        {
          "duration": 0.21950015624997832,
          "durationTicks": 45,
          "midi": 44,
          "name": "G#2",
          "ticks": 33696,
          "time": 164.36171700000003,
          "velocity": 0.6299212598425197
        },
        {
          "duration": 0.21950015625000674,
          "durationTicks": 45,
          "midi": 56,
          "name": "G#3",
          "ticks": 33744,
          "time": 164.5958505,
          "velocity": 0.6299212598425197
        },
        {
          "duration": 0.21950015624997832,
          "durationTicks": 45,
          "midi": 46,
          "name": "A#2",
          "ticks": 33792,
          "time": 164.82998400000002,
          "velocity": 0.6299212598425197
        },
        {
          "duration": 0.21950015625000674,
          "durationTicks": 45,
          "midi": 58,
          "name": "A#3",
          "ticks": 33840,
          "time": 165.0641175,
          "velocity": 0.6299212598425197
        },
        {
          "duration": 0.21950015625000674,
          "durationTicks": 45,
          "midi": 46,
          "name": "A#2",
          "ticks": 33888,
          "time": 165.29825100000002,
          "velocity": 0.6299212598425197
        },
        {
          "duration": 0.21950015625000674,
          "durationTicks": 45,
          "midi": 58,
          "name": "A#3",
          "ticks": 33936,
          "time": 165.5323845,
          "velocity": 0.6299212598425197
        },
        {
          "duration": 0.21950015625000674,
          "durationTicks": 45,
          "midi": 46,
          "name": "A#2",
          "ticks": 33984,
          "time": 165.76651800000002,
          "velocity": 0.6299212598425197
        },
        {
          "duration": 0.21950015625000674,
          "durationTicks": 45,
          "midi": 58,
          "name": "A#3",
          "ticks": 34032,
          "time": 166.0006515,
          "velocity": 0.6299212598425197
        },
        {
          "duration": 0.21950015625000674,
          "durationTicks": 45,
          "midi": 46,
          "name": "A#2",
          "ticks": 34080,
          "time": 166.23478500000002,
          "velocity": 0.6299212598425197
        },
        {
          "duration": 0.21950015624997832,
          "durationTicks": 45,
          "midi": 58,
          "name": "A#3",
          "ticks": 34128,
          "time": 166.46891850000003,
          "velocity": 0.6299212598425197
        },
        {
          "duration": 0.21950015625000674,
          "durationTicks": 45,
          "midi": 46,
          "name": "A#2",
          "ticks": 34176,
          "time": 166.703052,
          "velocity": 0.6299212598425197
        },
        {
          "duration": 0.21950015624997832,
          "durationTicks": 45,
          "midi": 58,
          "name": "A#3",
          "ticks": 34224,
          "time": 166.93718550000003,
          "velocity": 0.6299212598425197
        },
        {
          "duration": 0.21950015625000674,
          "durationTicks": 45,
          "midi": 46,
          "name": "A#2",
          "ticks": 34272,
          "time": 167.171319,
          "velocity": 0.6299212598425197
        },
        {
          "duration": 0.21950015624997832,
          "durationTicks": 45,
          "midi": 58,
          "name": "A#3",
          "ticks": 34320,
          "time": 167.40545250000002,
          "velocity": 0.6299212598425197
        },
        {
          "duration": 0.21950015625000674,
          "durationTicks": 45,
          "midi": 46,
          "name": "A#2",
          "ticks": 34368,
          "time": 167.639586,
          "velocity": 0.6299212598425197
        },
        {
          "duration": 0.21950015625000674,
          "durationTicks": 45,
          "midi": 58,
          "name": "A#3",
          "ticks": 34416,
          "time": 167.87371950000002,
          "velocity": 0.6299212598425197
        },
        {
          "duration": 0.21950015625000674,
          "durationTicks": 45,
          "midi": 46,
          "name": "A#2",
          "ticks": 34464,
          "time": 168.107853,
          "velocity": 0.6299212598425197
        },
        {
          "duration": 0.21950015625000674,
          "durationTicks": 45,
          "midi": 58,
          "name": "A#3",
          "ticks": 34512,
          "time": 168.34198650000002,
          "velocity": 0.6299212598425197
        },
        {
          "duration": 0.21950015625000674,
          "durationTicks": 45,
          "midi": 41,
          "name": "F2",
          "ticks": 34560,
          "time": 168.57612,
          "velocity": 0.6299212598425197
        },
        {
          "duration": 0.21950015625000674,
          "durationTicks": 45,
          "midi": 53,
          "name": "F3",
          "ticks": 34608,
          "time": 168.81025350000002,
          "velocity": 0.6299212598425197
        },
        {
          "duration": 0.21950015624997832,
          "durationTicks": 45,
          "midi": 41,
          "name": "F2",
          "ticks": 34656,
          "time": 169.04438700000003,
          "velocity": 0.6299212598425197
        },
        {
          "duration": 0.21950015625000674,
          "durationTicks": 45,
          "midi": 53,
          "name": "F3",
          "ticks": 34704,
          "time": 169.2785205,
          "velocity": 0.6299212598425197
        },
        {
          "duration": 0.21950015624997832,
          "durationTicks": 45,
          "midi": 41,
          "name": "F2",
          "ticks": 34752,
          "time": 169.51265400000003,
          "velocity": 0.6299212598425197
        },
        {
          "duration": 0.21950015625000674,
          "durationTicks": 45,
          "midi": 53,
          "name": "F3",
          "ticks": 34800,
          "time": 169.7467875,
          "velocity": 0.6299212598425197
        },
        {
          "duration": 0.21950015625000674,
          "durationTicks": 45,
          "midi": 41,
          "name": "F2",
          "ticks": 34848,
          "time": 169.98092100000002,
          "velocity": 0.6299212598425197
        },
        {
          "duration": 0.21950015625000674,
          "durationTicks": 45,
          "midi": 53,
          "name": "F3",
          "ticks": 34896,
          "time": 170.2150545,
          "velocity": 0.6299212598425197
        },
        {
          "duration": 0.21950015625000674,
          "durationTicks": 45,
          "midi": 41,
          "name": "F2",
          "ticks": 34944,
          "time": 170.44918800000002,
          "velocity": 0.6299212598425197
        },
        {
          "duration": 0.21950015625000674,
          "durationTicks": 45,
          "midi": 53,
          "name": "F3",
          "ticks": 34992,
          "time": 170.6833215,
          "velocity": 0.6299212598425197
        },
        {
          "duration": 0.21950015625000674,
          "durationTicks": 45,
          "midi": 41,
          "name": "F2",
          "ticks": 35040,
          "time": 170.91745500000002,
          "velocity": 0.6299212598425197
        },
        {
          "duration": 0.21950015625000674,
          "durationTicks": 45,
          "midi": 53,
          "name": "F3",
          "ticks": 35088,
          "time": 171.1515885,
          "velocity": 0.6299212598425197
        },
        {
          "duration": 0.21950015625000674,
          "durationTicks": 45,
          "midi": 41,
          "name": "F2",
          "ticks": 35136,
          "time": 171.38572200000002,
          "velocity": 0.6299212598425197
        },
        {
          "duration": 0.21950015624997832,
          "durationTicks": 45,
          "midi": 53,
          "name": "F3",
          "ticks": 35184,
          "time": 171.61985550000003,
          "velocity": 0.6299212598425197
        },
        {
          "duration": 0.21950015625000674,
          "durationTicks": 45,
          "midi": 41,
          "name": "F2",
          "ticks": 35232,
          "time": 171.853989,
          "velocity": 0.6299212598425197
        },
        {
          "duration": 0.21950015624997832,
          "durationTicks": 45,
          "midi": 53,
          "name": "F3",
          "ticks": 35280,
          "time": 172.08812250000003,
          "velocity": 0.6299212598425197
        },
        {
          "duration": 0.21950015625000674,
          "durationTicks": 45,
          "midi": 41,
          "name": "F2",
          "ticks": 35328,
          "time": 172.322256,
          "velocity": 0.6299212598425197
        },
        {
          "duration": 0.21950015625000674,
          "durationTicks": 45,
          "midi": 48,
          "name": "C3",
          "ticks": 35376,
          "time": 172.55638950000002,
          "velocity": 0.6299212598425197
        },
        {
          "duration": 0.21950015625000674,
          "durationTicks": 45,
          "midi": 53,
          "name": "F3",
          "ticks": 35376,
          "time": 172.55638950000002,
          "velocity": 0.6299212598425197
        },
        {
          "duration": 0.21950015625000674,
          "durationTicks": 45,
          "midi": 41,
          "name": "F2",
          "ticks": 35424,
          "time": 172.790523,
          "velocity": 0.6299212598425197
        },
        {
          "duration": 0.21950015625000674,
          "durationTicks": 45,
          "midi": 48,
          "name": "C3",
          "ticks": 35472,
          "time": 173.02465650000002,
          "velocity": 0.6299212598425197
        },
        {
          "duration": 0.21950015625000674,
          "durationTicks": 45,
          "midi": 53,
          "name": "F3",
          "ticks": 35472,
          "time": 173.02465650000002,
          "velocity": 0.6299212598425197
        },
        {
          "duration": 0.21950015625000674,
          "durationTicks": 45,
          "midi": 41,
          "name": "F2",
          "ticks": 35520,
          "time": 173.25879,
          "velocity": 0.6299212598425197
        },
        {
          "duration": 0.21950015625000674,
          "durationTicks": 45,
          "midi": 48,
          "name": "C3",
          "ticks": 35568,
          "time": 173.49292350000002,
          "velocity": 0.6299212598425197
        },
        {
          "duration": 0.21950015625000674,
          "durationTicks": 45,
          "midi": 53,
          "name": "F3",
          "ticks": 35568,
          "time": 173.49292350000002,
          "velocity": 0.6299212598425197
        },
        {
          "duration": 0.21950015624997832,
          "durationTicks": 45,
          "midi": 41,
          "name": "F2",
          "ticks": 35616,
          "time": 173.72705700000003,
          "velocity": 0.6299212598425197
        },
        {
          "duration": 0.21950015625000674,
          "durationTicks": 45,
          "midi": 48,
          "name": "C3",
          "ticks": 35664,
          "time": 173.96119050000001,
          "velocity": 0.6299212598425197
        },
        {
          "duration": 0.21950015625000674,
          "durationTicks": 45,
          "midi": 53,
          "name": "F3",
          "ticks": 35664,
          "time": 173.96119050000001,
          "velocity": 0.6299212598425197
        },
        {
          "duration": 0.21950015624997832,
          "durationTicks": 45,
          "midi": 44,
          "name": "G#2",
          "ticks": 35712,
          "time": 174.19532400000003,
          "velocity": 0.6299212598425197
        },
        {
          "duration": 0.21950015625000674,
          "durationTicks": 45,
          "midi": 51,
          "name": "D#3",
          "ticks": 35760,
          "time": 174.4294575,
          "velocity": 0.6299212598425197
        },
        {
          "duration": 0.21950015625000674,
          "durationTicks": 45,
          "midi": 56,
          "name": "G#3",
          "ticks": 35760,
          "time": 174.4294575,
          "velocity": 0.6299212598425197
        },
        {
          "duration": 0.21950015624997832,
          "durationTicks": 45,
          "midi": 44,
          "name": "G#2",
          "ticks": 35808,
          "time": 174.66359100000003,
          "velocity": 0.6299212598425197
        },
        {
          "duration": 0.21950015625000674,
          "durationTicks": 45,
          "midi": 51,
          "name": "D#3",
          "ticks": 35856,
          "time": 174.8977245,
          "velocity": 0.6299212598425197
        },
        {
          "duration": 0.21950015625000674,
          "durationTicks": 45,
          "midi": 56,
          "name": "G#3",
          "ticks": 35856,
          "time": 174.8977245,
          "velocity": 0.6299212598425197
        },
        {
          "duration": 0.21950015625000674,
          "durationTicks": 45,
          "midi": 44,
          "name": "G#2",
          "ticks": 35904,
          "time": 175.13185800000002,
          "velocity": 0.6299212598425197
        },
        {
          "duration": 0.21950015625000674,
          "durationTicks": 45,
          "midi": 51,
          "name": "D#3",
          "ticks": 35952,
          "time": 175.3659915,
          "velocity": 0.6299212598425197
        },
        {
          "duration": 0.21950015625000674,
          "durationTicks": 45,
          "midi": 56,
          "name": "G#3",
          "ticks": 35952,
          "time": 175.3659915,
          "velocity": 0.6299212598425197
        },
        {
          "duration": 0.21950015625000674,
          "durationTicks": 45,
          "midi": 44,
          "name": "G#2",
          "ticks": 36000,
          "time": 175.60012500000002,
          "velocity": 0.6299212598425197
        },
        {
          "duration": 0.21950015625000674,
          "durationTicks": 45,
          "midi": 53,
          "name": "F3",
          "ticks": 36048,
          "time": 175.8342585,
          "velocity": 0.6299212598425197
        },
        {
          "duration": 0.21950015625000674,
          "durationTicks": 45,
          "midi": 56,
          "name": "G#3",
          "ticks": 36048,
          "time": 175.8342585,
          "velocity": 0.6299212598425197
        },
        {
          "duration": 0.21950015625000674,
          "durationTicks": 45,
          "midi": 46,
          "name": "A#2",
          "ticks": 36096,
          "time": 176.06839200000002,
          "velocity": 0.6299212598425197
        },
        {
          "duration": 0.21950015624997832,
          "durationTicks": 45,
          "midi": 53,
          "name": "F3",
          "ticks": 36144,
          "time": 176.30252550000003,
          "velocity": 0.6299212598425197
        },
        {
          "duration": 0.21950015624997832,
          "durationTicks": 45,
          "midi": 58,
          "name": "A#3",
          "ticks": 36144,
          "time": 176.30252550000003,
          "velocity": 0.6299212598425197
        },
        {
          "duration": 0.21950015625000674,
          "durationTicks": 45,
          "midi": 46,
          "name": "A#2",
          "ticks": 36192,
          "time": 176.53665900000001,
          "velocity": 0.6299212598425197
        },
        {
          "duration": 0.21950015624997832,
          "durationTicks": 45,
          "midi": 53,
          "name": "F3",
          "ticks": 36240,
          "time": 176.77079250000003,
          "velocity": 0.6299212598425197
        },
        {
          "duration": 0.21950015624997832,
          "durationTicks": 45,
          "midi": 58,
          "name": "A#3",
          "ticks": 36240,
          "time": 176.77079250000003,
          "velocity": 0.6299212598425197
        },
        {
          "duration": 0.21950015625000674,
          "durationTicks": 45,
          "midi": 46,
          "name": "A#2",
          "ticks": 36288,
          "time": 177.004926,
          "velocity": 0.6299212598425197
        },
        {
          "duration": 0.21950015624997832,
          "durationTicks": 45,
          "midi": 53,
          "name": "F3",
          "ticks": 36336,
          "time": 177.23905950000002,
          "velocity": 0.6299212598425197
        },
        {
          "duration": 0.21950015624997832,
          "durationTicks": 45,
          "midi": 58,
          "name": "A#3",
          "ticks": 36336,
          "time": 177.23905950000002,
          "velocity": 0.6299212598425197
        },
        {
          "duration": 0.21950015625000674,
          "durationTicks": 45,
          "midi": 46,
          "name": "A#2",
          "ticks": 36384,
          "time": 177.473193,
          "velocity": 0.6299212598425197
        },
        {
          "duration": 0.21950015625000674,
          "durationTicks": 45,
          "midi": 53,
          "name": "F3",
          "ticks": 36432,
          "time": 177.70732650000002,
          "velocity": 0.6299212598425197
        },
        {
          "duration": 0.21950015625000674,
          "durationTicks": 45,
          "midi": 58,
          "name": "A#3",
          "ticks": 36432,
          "time": 177.70732650000002,
          "velocity": 0.6299212598425197
        },
        {
          "duration": 0.21950015625000674,
          "durationTicks": 45,
          "midi": 48,
          "name": "C3",
          "ticks": 36480,
          "time": 177.94146,
          "velocity": 0.6299212598425197
        },
        {
          "duration": 0.21950015625000674,
          "durationTicks": 45,
          "midi": 55,
          "name": "G3",
          "ticks": 36528,
          "time": 178.17559350000002,
          "velocity": 0.6299212598425197
        },
        {
          "duration": 0.21950015625000674,
          "durationTicks": 45,
          "midi": 60,
          "name": "C4",
          "ticks": 36528,
          "time": 178.17559350000002,
          "velocity": 0.6299212598425197
        },
        {
          "duration": 0.21950015625000674,
          "durationTicks": 45,
          "midi": 48,
          "name": "C3",
          "ticks": 36576,
          "time": 178.409727,
          "velocity": 0.6299212598425197
        },
        {
          "duration": 0.21950015625000674,
          "durationTicks": 45,
          "midi": 55,
          "name": "G3",
          "ticks": 36624,
          "time": 178.64386050000002,
          "velocity": 0.6299212598425197
        },
        {
          "duration": 0.21950015625000674,
          "durationTicks": 45,
          "midi": 60,
          "name": "C4",
          "ticks": 36624,
          "time": 178.64386050000002,
          "velocity": 0.6299212598425197
        },
        {
          "duration": 0.21950015624997832,
          "durationTicks": 45,
          "midi": 48,
          "name": "C3",
          "ticks": 36672,
          "time": 178.87799400000003,
          "velocity": 0.6299212598425197
        },
        {
          "duration": 0.21950015625000674,
          "durationTicks": 45,
          "midi": 55,
          "name": "G3",
          "ticks": 36720,
          "time": 179.1121275,
          "velocity": 0.6299212598425197
        },
        {
          "duration": 0.21950015625000674,
          "durationTicks": 45,
          "midi": 60,
          "name": "C4",
          "ticks": 36720,
          "time": 179.1121275,
          "velocity": 0.6299212598425197
        },
        {
          "duration": 0.21950015624997832,
          "durationTicks": 45,
          "midi": 48,
          "name": "C3",
          "ticks": 36768,
          "time": 179.34626100000003,
          "velocity": 0.6299212598425197
        },
        {
          "duration": 0.21950015625000674,
          "durationTicks": 45,
          "midi": 55,
          "name": "G3",
          "ticks": 36816,
          "time": 179.5803945,
          "velocity": 0.6299212598425197
        },
        {
          "duration": 0.21950015625000674,
          "durationTicks": 45,
          "midi": 60,
          "name": "C4",
          "ticks": 36816,
          "time": 179.5803945,
          "velocity": 0.6299212598425197
        },
        {
          "duration": 0.21950015625000674,
          "durationTicks": 45,
          "midi": 41,
          "name": "F2",
          "ticks": 36864,
          "time": 179.81452800000002,
          "velocity": 0.6299212598425197
        },
        {
          "duration": 0.21950015625000674,
          "durationTicks": 45,
          "midi": 48,
          "name": "C3",
          "ticks": 36912,
          "time": 180.0486615,
          "velocity": 0.6299212598425197
        },
        {
          "duration": 0.21950015625000674,
          "durationTicks": 45,
          "midi": 53,
          "name": "F3",
          "ticks": 36912,
          "time": 180.0486615,
          "velocity": 0.6299212598425197
        },
        {
          "duration": 0.21950015625000674,
          "durationTicks": 45,
          "midi": 41,
          "name": "F2",
          "ticks": 36960,
          "time": 180.28279500000002,
          "velocity": 0.6299212598425197
        },
        {
          "duration": 0.21950015625000674,
          "durationTicks": 45,
          "midi": 48,
          "name": "C3",
          "ticks": 37008,
          "time": 180.5169285,
          "velocity": 0.6299212598425197
        },
        {
          "duration": 0.21950015625000674,
          "durationTicks": 45,
          "midi": 53,
          "name": "F3",
          "ticks": 37008,
          "time": 180.5169285,
          "velocity": 0.6299212598425197
        },
        {
          "duration": 0.21950015625000674,
          "durationTicks": 45,
          "midi": 41,
          "name": "F2",
          "ticks": 37056,
          "time": 180.75106200000002,
          "velocity": 0.6299212598425197
        },
        {
          "duration": 0.21950015625000674,
          "durationTicks": 45,
          "midi": 48,
          "name": "C3",
          "ticks": 37104,
          "time": 180.9851955,
          "velocity": 0.6299212598425197
        },
        {
          "duration": 0.21950015625000674,
          "durationTicks": 45,
          "midi": 53,
          "name": "F3",
          "ticks": 37104,
          "time": 180.9851955,
          "velocity": 0.6299212598425197
        },
        {
          "duration": 0.21950015625000674,
          "durationTicks": 45,
          "midi": 41,
          "name": "F2",
          "ticks": 37152,
          "time": 181.21932900000002,
          "velocity": 0.6299212598425197
        },
        {
          "duration": 0.21950015624997832,
          "durationTicks": 45,
          "midi": 48,
          "name": "C3",
          "ticks": 37200,
          "time": 181.45346250000003,
          "velocity": 0.6299212598425197
        },
        {
          "duration": 0.21950015624997832,
          "durationTicks": 45,
          "midi": 53,
          "name": "F3",
          "ticks": 37200,
          "time": 181.45346250000003,
          "velocity": 0.6299212598425197
        },
        {
          "duration": 0.21950015625000674,
          "durationTicks": 45,
          "midi": 44,
          "name": "G#2",
          "ticks": 37248,
          "time": 181.687596,
          "velocity": 0.6299212598425197
        },
        {
          "duration": 0.21950015624997832,
          "durationTicks": 45,
          "midi": 51,
          "name": "D#3",
          "ticks": 37296,
          "time": 181.92172950000003,
          "velocity": 0.6299212598425197
        },
        {
          "duration": 0.21950015624997832,
          "durationTicks": 45,
          "midi": 56,
          "name": "G#3",
          "ticks": 37296,
          "time": 181.92172950000003,
          "velocity": 0.6299212598425197
        },
        {
          "duration": 0.21950015625000674,
          "durationTicks": 45,
          "midi": 44,
          "name": "G#2",
          "ticks": 37344,
          "time": 182.155863,
          "velocity": 0.6299212598425197
        },
        {
          "duration": 0.21950015625000674,
          "durationTicks": 45,
          "midi": 51,
          "name": "D#3",
          "ticks": 37392,
          "time": 182.38999650000002,
          "velocity": 0.6299212598425197
        },
        {
          "duration": 0.21950015625000674,
          "durationTicks": 45,
          "midi": 56,
          "name": "G#3",
          "ticks": 37392,
          "time": 182.38999650000002,
          "velocity": 0.6299212598425197
        },
        {
          "duration": 0.21950015625000674,
          "durationTicks": 45,
          "midi": 44,
          "name": "G#2",
          "ticks": 37440,
          "time": 182.62413,
          "velocity": 0.6299212598425197
        },
        {
          "duration": 0.21950015625000674,
          "durationTicks": 45,
          "midi": 51,
          "name": "D#3",
          "ticks": 37488,
          "time": 182.85826350000002,
          "velocity": 0.6299212598425197
        },
        {
          "duration": 0.21950015625000674,
          "durationTicks": 45,
          "midi": 56,
          "name": "G#3",
          "ticks": 37488,
          "time": 182.85826350000002,
          "velocity": 0.6299212598425197
        },
        {
          "duration": 0.21950015625000674,
          "durationTicks": 45,
          "midi": 44,
          "name": "G#2",
          "ticks": 37536,
          "time": 183.092397,
          "velocity": 0.6299212598425197
        },
        {
          "duration": 0.21950015625000674,
          "durationTicks": 45,
          "midi": 51,
          "name": "D#3",
          "ticks": 37584,
          "time": 183.32653050000002,
          "velocity": 0.6299212598425197
        },
        {
          "duration": 0.21950015625000674,
          "durationTicks": 45,
          "midi": 56,
          "name": "G#3",
          "ticks": 37584,
          "time": 183.32653050000002,
          "velocity": 0.6299212598425197
        },
        {
          "duration": 0.21950015624997832,
          "durationTicks": 45,
          "midi": 46,
          "name": "A#2",
          "ticks": 37632,
          "time": 183.56066400000003,
          "velocity": 0.6299212598425197
        },
        {
          "duration": 0.21950015625000674,
          "durationTicks": 45,
          "midi": 53,
          "name": "F3",
          "ticks": 37680,
          "time": 183.79479750000002,
          "velocity": 0.6299212598425197
        },
        {
          "duration": 0.21950015625000674,
          "durationTicks": 45,
          "midi": 58,
          "name": "A#3",
          "ticks": 37680,
          "time": 183.79479750000002,
          "velocity": 0.6299212598425197
        },
        {
          "duration": 0.21950015624997832,
          "durationTicks": 45,
          "midi": 46,
          "name": "A#2",
          "ticks": 37728,
          "time": 184.02893100000003,
          "velocity": 0.6299212598425197
        },
        {
          "duration": 0.21950015625000674,
          "durationTicks": 45,
          "midi": 53,
          "name": "F3",
          "ticks": 37776,
          "time": 184.2630645,
          "velocity": 0.6299212598425197
        },
        {
          "duration": 0.21950015625000674,
          "durationTicks": 45,
          "midi": 58,
          "name": "A#3",
          "ticks": 37776,
          "time": 184.2630645,
          "velocity": 0.6299212598425197
        },
        {
          "duration": 0.21950015624997832,
          "durationTicks": 45,
          "midi": 46,
          "name": "A#2",
          "ticks": 37824,
          "time": 184.49719800000003,
          "velocity": 0.6299212598425197
        },
        {
          "duration": 0.21950015625000674,
          "durationTicks": 45,
          "midi": 53,
          "name": "F3",
          "ticks": 37872,
          "time": 184.7313315,
          "velocity": 0.6299212598425197
        },
        {
          "duration": 0.21950015625000674,
          "durationTicks": 45,
          "midi": 58,
          "name": "A#3",
          "ticks": 37872,
          "time": 184.7313315,
          "velocity": 0.6299212598425197
        },
        {
          "duration": 0.21950015625000674,
          "durationTicks": 45,
          "midi": 46,
          "name": "A#2",
          "ticks": 37920,
          "time": 184.96546500000002,
          "velocity": 0.6299212598425197
        },
        {
          "duration": 0.21950015625000674,
          "durationTicks": 45,
          "midi": 53,
          "name": "F3",
          "ticks": 37968,
          "time": 185.1995985,
          "velocity": 0.6299212598425197
        },
        {
          "duration": 0.21950015625000674,
          "durationTicks": 45,
          "midi": 58,
          "name": "A#3",
          "ticks": 37968,
          "time": 185.1995985,
          "velocity": 0.6299212598425197
        },
        {
          "duration": 0.21950015625000674,
          "durationTicks": 45,
          "midi": 43,
          "name": "G2",
          "ticks": 38016,
          "time": 185.43373200000002,
          "velocity": 0.6299212598425197
        },
        {
          "duration": 0.21950015625000674,
          "durationTicks": 45,
          "midi": 55,
          "name": "G3",
          "ticks": 38064,
          "time": 185.6678655,
          "velocity": 0.6299212598425197
        },
        {
          "duration": 0.21950015625000674,
          "durationTicks": 45,
          "midi": 43,
          "name": "G2",
          "ticks": 38112,
          "time": 185.90199900000002,
          "velocity": 0.6299212598425197
        },
        {
          "duration": 0.21950015624997832,
          "durationTicks": 45,
          "midi": 55,
          "name": "G3",
          "ticks": 38160,
          "time": 186.13613250000003,
          "velocity": 0.6299212598425197
        },
        {
          "duration": 0.21950015625000674,
          "durationTicks": 45,
          "midi": 48,
          "name": "C3",
          "ticks": 38208,
          "time": 186.37026600000002,
          "velocity": 0.6299212598425197
        },
        {
          "duration": 0.21950015624997832,
          "durationTicks": 45,
          "midi": 60,
          "name": "C4",
          "ticks": 38256,
          "time": 186.60439950000003,
          "velocity": 0.6299212598425197
        },
        {
          "duration": 0.21950015625000674,
          "durationTicks": 45,
          "midi": 48,
          "name": "C3",
          "ticks": 38304,
          "time": 186.838533,
          "velocity": 0.6299212598425197
        },
        {
          "duration": 0.21950015624997832,
          "durationTicks": 45,
          "midi": 60,
          "name": "C4",
          "ticks": 38352,
          "time": 187.07266650000003,
          "velocity": 0.6299212598425197
        },
        {
          "duration": 0.21950015625000674,
          "durationTicks": 45,
          "midi": 41,
          "name": "F2",
          "ticks": 38400,
          "time": 187.3068,
          "velocity": 0.6299212598425197
        },
        {
          "duration": 0.21950015625000674,
          "durationTicks": 45,
          "midi": 53,
          "name": "F3",
          "ticks": 38448,
          "time": 187.54093350000002,
          "velocity": 0.6299212598425197
        },
        {
          "duration": 0.21950015625000674,
          "durationTicks": 45,
          "midi": 41,
          "name": "F2",
          "ticks": 38496,
          "time": 187.775067,
          "velocity": 0.6299212598425197
        },
        {
          "duration": 0.21950015625000674,
          "durationTicks": 45,
          "midi": 53,
          "name": "F3",
          "ticks": 38544,
          "time": 188.00920050000002,
          "velocity": 0.6299212598425197
        },
        {
          "duration": 0.21950015625000674,
          "durationTicks": 45,
          "midi": 41,
          "name": "F2",
          "ticks": 38592,
          "time": 188.243334,
          "velocity": 0.6299212598425197
        },
        {
          "duration": 0.21950015625000674,
          "durationTicks": 45,
          "midi": 53,
          "name": "F3",
          "ticks": 38640,
          "time": 188.47746750000002,
          "velocity": 0.6299212598425197
        },
        {
          "duration": 0.21950015624997832,
          "durationTicks": 45,
          "midi": 41,
          "name": "F2",
          "ticks": 38688,
          "time": 188.71160100000003,
          "velocity": 0.6299212598425197
        },
        {
          "duration": 0.21950015625000674,
          "durationTicks": 45,
          "midi": 53,
          "name": "F3",
          "ticks": 38736,
          "time": 188.94573450000001,
          "velocity": 0.6299212598425197
        },
        {
          "duration": 0.21950015624997832,
          "durationTicks": 45,
          "midi": 41,
          "name": "F2",
          "ticks": 38784,
          "time": 189.17986800000003,
          "velocity": 0.6299212598425197
        },
        {
          "duration": 0.21950015625000674,
          "durationTicks": 45,
          "midi": 53,
          "name": "F3",
          "ticks": 38832,
          "time": 189.4140015,
          "velocity": 0.6299212598425197
        },
        {
          "duration": 0.21950015625000674,
          "durationTicks": 45,
          "midi": 41,
          "name": "F2",
          "ticks": 38880,
          "time": 189.64813500000002,
          "velocity": 0.6299212598425197
        },
        {
          "duration": 0.21950015625000674,
          "durationTicks": 45,
          "midi": 53,
          "name": "F3",
          "ticks": 38928,
          "time": 189.8822685,
          "velocity": 0.6299212598425197
        },
        {
          "duration": 0.21950015625000674,
          "durationTicks": 45,
          "midi": 41,
          "name": "F2",
          "ticks": 38976,
          "time": 190.11640200000002,
          "velocity": 0.6299212598425197
        },
        {
          "duration": 0.21950015625000674,
          "durationTicks": 45,
          "midi": 53,
          "name": "F3",
          "ticks": 39024,
          "time": 190.3505355,
          "velocity": 0.6299212598425197
        },
        {
          "duration": 0.21950015625000674,
          "durationTicks": 45,
          "midi": 41,
          "name": "F2",
          "ticks": 39072,
          "time": 190.58466900000002,
          "velocity": 0.6299212598425197
        },
        {
          "duration": 0.21950015625000674,
          "durationTicks": 45,
          "midi": 53,
          "name": "F3",
          "ticks": 39120,
          "time": 190.8188025,
          "velocity": 0.6299212598425197
        },
        {
          "duration": 0.21950015625000674,
          "durationTicks": 45,
          "midi": 44,
          "name": "G#2",
          "ticks": 39168,
          "time": 191.05293600000002,
          "velocity": 0.6299212598425197
        },
        {
          "duration": 0.21950015624997832,
          "durationTicks": 45,
          "midi": 56,
          "name": "G#3",
          "ticks": 39216,
          "time": 191.28706950000003,
          "velocity": 0.6299212598425197
        },
        {
          "duration": 0.21950015625000674,
          "durationTicks": 45,
          "midi": 44,
          "name": "G#2",
          "ticks": 39264,
          "time": 191.521203,
          "velocity": 0.6299212598425197
        },
        {
          "duration": 0.21950015624997832,
          "durationTicks": 45,
          "midi": 56,
          "name": "G#3",
          "ticks": 39312,
          "time": 191.75533650000003,
          "velocity": 0.6299212598425197
        },
        {
          "duration": 0.21950015625000674,
          "durationTicks": 45,
          "midi": 44,
          "name": "G#2",
          "ticks": 39360,
          "time": 191.98947,
          "velocity": 0.6299212598425197
        },
        {
          "duration": 0.21950015625000674,
          "durationTicks": 45,
          "midi": 56,
          "name": "G#3",
          "ticks": 39408,
          "time": 192.22360350000002,
          "velocity": 0.6299212598425197
        },
        {
          "duration": 0.21950015625000674,
          "durationTicks": 45,
          "midi": 44,
          "name": "G#2",
          "ticks": 39456,
          "time": 192.457737,
          "velocity": 0.6299212598425197
        },
        {
          "duration": 0.21950015625000674,
          "durationTicks": 45,
          "midi": 56,
          "name": "G#3",
          "ticks": 39504,
          "time": 192.69187050000002,
          "velocity": 0.6299212598425197
        },
        {
          "duration": 0.21950015625000674,
          "durationTicks": 45,
          "midi": 44,
          "name": "G#2",
          "ticks": 39552,
          "time": 192.926004,
          "velocity": 0.6299212598425197
        },
        {
          "duration": 0.21950015625000674,
          "durationTicks": 45,
          "midi": 56,
          "name": "G#3",
          "ticks": 39600,
          "time": 193.16013750000002,
          "velocity": 0.6299212598425197
        },
        {
          "duration": 0.21950015624997832,
          "durationTicks": 45,
          "midi": 44,
          "name": "G#2",
          "ticks": 39648,
          "time": 193.39427100000003,
          "velocity": 0.6299212598425197
        },
        {
          "duration": 0.21950015625000674,
          "durationTicks": 45,
          "midi": 56,
          "name": "G#3",
          "ticks": 39696,
          "time": 193.62840450000002,
          "velocity": 0.6299212598425197
        },
        {
          "duration": 0.21950015624997832,
          "durationTicks": 45,
          "midi": 44,
          "name": "G#2",
          "ticks": 39744,
          "time": 193.86253800000003,
          "velocity": 0.6299212598425197
        },
        {
          "duration": 0.21950015625000674,
          "durationTicks": 45,
          "midi": 56,
          "name": "G#3",
          "ticks": 39792,
          "time": 194.0966715,
          "velocity": 0.6299212598425197
        },
        {
          "duration": 0.21950015624997832,
          "durationTicks": 45,
          "midi": 44,
          "name": "G#2",
          "ticks": 39840,
          "time": 194.33080500000003,
          "velocity": 0.6299212598425197
        },
        {
          "duration": 0.21950015625000674,
          "durationTicks": 45,
          "midi": 56,
          "name": "G#3",
          "ticks": 39888,
          "time": 194.5649385,
          "velocity": 0.6299212598425197
        },
        {
          "duration": 0.21950015625000674,
          "durationTicks": 45,
          "midi": 46,
          "name": "A#2",
          "ticks": 39936,
          "time": 194.79907200000002,
          "velocity": 0.6299212598425197
        },
        {
          "duration": 0.21950015625000674,
          "durationTicks": 45,
          "midi": 58,
          "name": "A#3",
          "ticks": 39984,
          "time": 195.0332055,
          "velocity": 0.6299212598425197
        },
        {
          "duration": 0.21950015625000674,
          "durationTicks": 45,
          "midi": 46,
          "name": "A#2",
          "ticks": 40032,
          "time": 195.26733900000002,
          "velocity": 0.6299212598425197
        },
        {
          "duration": 0.21950015625000674,
          "durationTicks": 45,
          "midi": 58,
          "name": "A#3",
          "ticks": 40080,
          "time": 195.5014725,
          "velocity": 0.6299212598425197
        },
        {
          "duration": 0.21950015625000674,
          "durationTicks": 45,
          "midi": 46,
          "name": "A#2",
          "ticks": 40128,
          "time": 195.73560600000002,
          "velocity": 0.6299212598425197
        },
        {
          "duration": 0.21950015624997832,
          "durationTicks": 45,
          "midi": 58,
          "name": "A#3",
          "ticks": 40176,
          "time": 195.96973950000003,
          "velocity": 0.6299212598425197
        },
        {
          "duration": 0.21950015625000674,
          "durationTicks": 45,
          "midi": 46,
          "name": "A#2",
          "ticks": 40224,
          "time": 196.20387300000002,
          "velocity": 0.6299212598425197
        },
        {
          "duration": 0.21950015624997832,
          "durationTicks": 45,
          "midi": 58,
          "name": "A#3",
          "ticks": 40272,
          "time": 196.43800650000003,
          "velocity": 0.6299212598425197
        },
        {
          "duration": 0.21950015625000674,
          "durationTicks": 45,
          "midi": 46,
          "name": "A#2",
          "ticks": 40320,
          "time": 196.67214,
          "velocity": 0.6299212598425197
        },
        {
          "duration": 0.21950015625000674,
          "durationTicks": 45,
          "midi": 58,
          "name": "A#3",
          "ticks": 40368,
          "time": 196.90627350000003,
          "velocity": 0.6299212598425197
        },
        {
          "duration": 0.21950015625000674,
          "durationTicks": 45,
          "midi": 46,
          "name": "A#2",
          "ticks": 40416,
          "time": 197.140407,
          "velocity": 0.6299212598425197
        },
        {
          "duration": 0.21950015625000674,
          "durationTicks": 45,
          "midi": 58,
          "name": "A#3",
          "ticks": 40464,
          "time": 197.37454050000002,
          "velocity": 0.6299212598425197
        },
        {
          "duration": 0.21950015625000674,
          "durationTicks": 45,
          "midi": 46,
          "name": "A#2",
          "ticks": 40512,
          "time": 197.608674,
          "velocity": 0.6299212598425197
        },
        {
          "duration": 0.21950015625000674,
          "durationTicks": 45,
          "midi": 58,
          "name": "A#3",
          "ticks": 40560,
          "time": 197.84280750000002,
          "velocity": 0.6299212598425197
        },
        {
          "duration": 0.21950015625000674,
          "durationTicks": 45,
          "midi": 46,
          "name": "A#2",
          "ticks": 40608,
          "time": 198.076941,
          "velocity": 0.6299212598425197
        },
        {
          "duration": 0.21950015625000674,
          "durationTicks": 45,
          "midi": 58,
          "name": "A#3",
          "ticks": 40656,
          "time": 198.31107450000002,
          "velocity": 0.6299212598425197
        },
        {
          "duration": 0.21950015624997832,
          "durationTicks": 45,
          "midi": 43,
          "name": "G2",
          "ticks": 40704,
          "time": 198.54520800000003,
          "velocity": 0.6299212598425197
        },
        {
          "duration": 0.21950015625000674,
          "durationTicks": 45,
          "midi": 55,
          "name": "G3",
          "ticks": 40752,
          "time": 198.77934150000002,
          "velocity": 0.6299212598425197
        },
        {
          "duration": 0.21950015624997832,
          "durationTicks": 45,
          "midi": 43,
          "name": "G2",
          "ticks": 40800,
          "time": 199.01347500000003,
          "velocity": 0.6299212598425197
        },
        {
          "duration": 0.21950015625000674,
          "durationTicks": 45,
          "midi": 55,
          "name": "G3",
          "ticks": 40848,
          "time": 199.2476085,
          "velocity": 0.6299212598425197
        },
        {
          "duration": 0.21950015625000674,
          "durationTicks": 45,
          "midi": 43,
          "name": "G2",
          "ticks": 40896,
          "time": 199.48174200000003,
          "velocity": 0.6299212598425197
        },
        {
          "duration": 0.21950015625000674,
          "durationTicks": 45,
          "midi": 55,
          "name": "G3",
          "ticks": 40944,
          "time": 199.7158755,
          "velocity": 0.6299212598425197
        },
        {
          "duration": 0.21950015625000674,
          "durationTicks": 45,
          "midi": 43,
          "name": "G2",
          "ticks": 40992,
          "time": 199.95000900000002,
          "velocity": 0.6299212598425197
        },
        {
          "duration": 0.21950015625000674,
          "durationTicks": 45,
          "midi": 55,
          "name": "G3",
          "ticks": 41040,
          "time": 200.1841425,
          "velocity": 0.6299212598425197
        },
        {
          "duration": 0.21950015625000674,
          "durationTicks": 45,
          "midi": 48,
          "name": "C3",
          "ticks": 41088,
          "time": 200.41827600000002,
          "velocity": 0.6299212598425197
        },
        {
          "duration": 0.21950015624997832,
          "durationTicks": 45,
          "midi": 60,
          "name": "C4",
          "ticks": 41136,
          "time": 200.65240950000003,
          "velocity": 0.6299212598425197
        },
        {
          "duration": 0.21950015625000674,
          "durationTicks": 45,
          "midi": 48,
          "name": "C3",
          "ticks": 41184,
          "time": 200.88654300000002,
          "velocity": 0.6299212598425197
        },
        {
          "duration": 0.21950015624997832,
          "durationTicks": 45,
          "midi": 60,
          "name": "C4",
          "ticks": 41232,
          "time": 201.12067650000003,
          "velocity": 0.6299212598425197
        },
        {
          "duration": 0.21950015625000674,
          "durationTicks": 45,
          "midi": 48,
          "name": "C3",
          "ticks": 41280,
          "time": 201.35481000000001,
          "velocity": 0.6299212598425197
        },
        {
          "duration": 0.21950015624997832,
          "durationTicks": 45,
          "midi": 60,
          "name": "C4",
          "ticks": 41328,
          "time": 201.58894350000003,
          "velocity": 0.6299212598425197
        },
        {
          "duration": 0.21950015625000674,
          "durationTicks": 45,
          "midi": 48,
          "name": "C3",
          "ticks": 41376,
          "time": 201.823077,
          "velocity": 0.6299212598425197
        },
        {
          "duration": 0.21950015625000674,
          "durationTicks": 45,
          "midi": 60,
          "name": "C4",
          "ticks": 41424,
          "time": 202.05721050000002,
          "velocity": 0.6299212598425197
        },
        {
          "duration": 0.21950015625000674,
          "durationTicks": 45,
          "midi": 41,
          "name": "F2",
          "ticks": 41472,
          "time": 202.291344,
          "velocity": 0.6299212598425197
        },
        {
          "duration": 0.21950015625000674,
          "durationTicks": 45,
          "midi": 53,
          "name": "F3",
          "ticks": 41520,
          "time": 202.52547750000002,
          "velocity": 0.6299212598425197
        },
        {
          "duration": 0.21950015625000674,
          "durationTicks": 45,
          "midi": 41,
          "name": "F2",
          "ticks": 41568,
          "time": 202.759611,
          "velocity": 0.6299212598425197
        },
        {
          "duration": 0.21950015625000674,
          "durationTicks": 45,
          "midi": 53,
          "name": "F3",
          "ticks": 41616,
          "time": 202.99374450000002,
          "velocity": 0.6299212598425197
        },
        {
          "duration": 0.21950015624997832,
          "durationTicks": 45,
          "midi": 41,
          "name": "F2",
          "ticks": 41664,
          "time": 203.22787800000003,
          "velocity": 0.6299212598425197
        },
        {
          "duration": 0.21950015625000674,
          "durationTicks": 45,
          "midi": 53,
          "name": "F3",
          "ticks": 41712,
          "time": 203.46201150000002,
          "velocity": 0.6299212598425197
        },
        {
          "duration": 0.21950015624997832,
          "durationTicks": 45,
          "midi": 41,
          "name": "F2",
          "ticks": 41760,
          "time": 203.69614500000003,
          "velocity": 0.6299212598425197
        },
        {
          "duration": 0.21950015625000674,
          "durationTicks": 45,
          "midi": 53,
          "name": "F3",
          "ticks": 41808,
          "time": 203.93027850000001,
          "velocity": 0.6299212598425197
        },
        {
          "duration": 0.21950015624997832,
          "durationTicks": 45,
          "midi": 41,
          "name": "F2",
          "ticks": 41856,
          "time": 204.16441200000003,
          "velocity": 0.6299212598425197
        },
        {
          "duration": 0.21950015625000674,
          "durationTicks": 45,
          "midi": 53,
          "name": "F3",
          "ticks": 41904,
          "time": 204.3985455,
          "velocity": 0.6299212598425197
        },
        {
          "duration": 0.21950015625000674,
          "durationTicks": 45,
          "midi": 41,
          "name": "F2",
          "ticks": 41952,
          "time": 204.63267900000002,
          "velocity": 0.6299212598425197
        },
        {
          "duration": 0.21950015625000674,
          "durationTicks": 45,
          "midi": 53,
          "name": "F3",
          "ticks": 42000,
          "time": 204.8668125,
          "velocity": 0.6299212598425197
        },
        {
          "duration": 0.21950015625000674,
          "durationTicks": 45,
          "midi": 41,
          "name": "F2",
          "ticks": 42048,
          "time": 205.10094600000002,
          "velocity": 0.6299212598425197
        },
        {
          "duration": 0.21950015625000674,
          "durationTicks": 45,
          "midi": 53,
          "name": "F3",
          "ticks": 42096,
          "time": 205.3350795,
          "velocity": 0.6299212598425197
        },
        {
          "duration": 0.21950015625000674,
          "durationTicks": 45,
          "midi": 41,
          "name": "F2",
          "ticks": 42144,
          "time": 205.56921300000002,
          "velocity": 0.6299212598425197
        },
        {
          "duration": 0.21950015624997832,
          "durationTicks": 45,
          "midi": 53,
          "name": "F3",
          "ticks": 42192,
          "time": 205.80334650000003,
          "velocity": 0.6299212598425197
        },
        {
          "duration": 0.21950015625000674,
          "durationTicks": 45,
          "midi": 44,
          "name": "G#2",
          "ticks": 42240,
          "time": 206.03748000000002,
          "velocity": 0.6299212598425197
        },
        {
          "duration": 0.21950015624997832,
          "durationTicks": 45,
          "midi": 56,
          "name": "G#3",
          "ticks": 42288,
          "time": 206.27161350000003,
          "velocity": 0.6299212598425197
        },
        {
          "duration": 0.21950015625000674,
          "durationTicks": 45,
          "midi": 44,
          "name": "G#2",
          "ticks": 42336,
          "time": 206.505747,
          "velocity": 0.6299212598425197
        },
        {
          "duration": 0.21950015625000674,
          "durationTicks": 45,
          "midi": 56,
          "name": "G#3",
          "ticks": 42384,
          "time": 206.73988050000003,
          "velocity": 0.6299212598425197
        },
        {
          "duration": 0.21950015625000674,
          "durationTicks": 45,
          "midi": 44,
          "name": "G#2",
          "ticks": 42432,
          "time": 206.974014,
          "velocity": 0.6299212598425197
        },
        {
          "duration": 0.21950015625000674,
          "durationTicks": 45,
          "midi": 56,
          "name": "G#3",
          "ticks": 42480,
          "time": 207.20814750000002,
          "velocity": 0.6299212598425197
        },
        {
          "duration": 0.21950015625000674,
          "durationTicks": 45,
          "midi": 44,
          "name": "G#2",
          "ticks": 42528,
          "time": 207.442281,
          "velocity": 0.6299212598425197
        },
        {
          "duration": 0.21950015625000674,
          "durationTicks": 45,
          "midi": 56,
          "name": "G#3",
          "ticks": 42576,
          "time": 207.67641450000002,
          "velocity": 0.6299212598425197
        },
        {
          "duration": 0.21950015625000674,
          "durationTicks": 45,
          "midi": 44,
          "name": "G#2",
          "ticks": 42624,
          "time": 207.910548,
          "velocity": 0.6299212598425197
        },
        {
          "duration": 0.21950015625000674,
          "durationTicks": 45,
          "midi": 56,
          "name": "G#3",
          "ticks": 42672,
          "time": 208.14468150000002,
          "velocity": 0.6299212598425197
        },
        {
          "duration": 0.21950015624997832,
          "durationTicks": 45,
          "midi": 44,
          "name": "G#2",
          "ticks": 42720,
          "time": 208.37881500000003,
          "velocity": 0.6299212598425197
        },
        {
          "duration": 0.21950015625000674,
          "durationTicks": 45,
          "midi": 56,
          "name": "G#3",
          "ticks": 42768,
          "time": 208.61294850000002,
          "velocity": 0.6299212598425197
        },
        {
          "duration": 0.21950015624997832,
          "durationTicks": 45,
          "midi": 44,
          "name": "G#2",
          "ticks": 42816,
          "time": 208.84708200000003,
          "velocity": 0.6299212598425197
        },
        {
          "duration": 0.21950015625000674,
          "durationTicks": 45,
          "midi": 56,
          "name": "G#3",
          "ticks": 42864,
          "time": 209.0812155,
          "velocity": 0.6299212598425197
        },
        {
          "duration": 0.21950015625000674,
          "durationTicks": 45,
          "midi": 44,
          "name": "G#2",
          "ticks": 42912,
          "time": 209.31534900000003,
          "velocity": 0.6299212598425197
        },
        {
          "duration": 0.21950015625000674,
          "durationTicks": 45,
          "midi": 56,
          "name": "G#3",
          "ticks": 42960,
          "time": 209.5494825,
          "velocity": 0.6299212598425197
        },
        {
          "duration": 0.21950015625000674,
          "durationTicks": 45,
          "midi": 46,
          "name": "A#2",
          "ticks": 43008,
          "time": 209.78361600000002,
          "velocity": 0.6299212598425197
        },
        {
          "duration": 0.21950015625000674,
          "durationTicks": 45,
          "midi": 58,
          "name": "A#3",
          "ticks": 43056,
          "time": 210.0177495,
          "velocity": 0.6299212598425197
        },
        {
          "duration": 0.21950015625000674,
          "durationTicks": 45,
          "midi": 46,
          "name": "A#2",
          "ticks": 43104,
          "time": 210.25188300000002,
          "velocity": 0.6299212598425197
        },
        {
          "duration": 0.21950015624997832,
          "durationTicks": 45,
          "midi": 58,
          "name": "A#3",
          "ticks": 43152,
          "time": 210.48601650000003,
          "velocity": 0.6299212598425197
        },
        {
          "duration": 0.21950015625000674,
          "durationTicks": 45,
          "midi": 46,
          "name": "A#2",
          "ticks": 43200,
          "time": 210.72015000000002,
          "velocity": 0.6299212598425197
        },
        {
          "duration": 0.21950015624997832,
          "durationTicks": 45,
          "midi": 58,
          "name": "A#3",
          "ticks": 43248,
          "time": 210.95428350000003,
          "velocity": 0.6299212598425197
        },
        {
          "duration": 0.21950015625000674,
          "durationTicks": 45,
          "midi": 46,
          "name": "A#2",
          "ticks": 43296,
          "time": 211.18841700000002,
          "velocity": 0.6299212598425197
        },
        {
          "duration": 0.21950015624997832,
          "durationTicks": 45,
          "midi": 58,
          "name": "A#3",
          "ticks": 43344,
          "time": 211.42255050000003,
          "velocity": 0.6299212598425197
        },
        {
          "duration": 0.21950015625000674,
          "durationTicks": 45,
          "midi": 46,
          "name": "A#2",
          "ticks": 43392,
          "time": 211.656684,
          "velocity": 0.6299212598425197
        },
        {
          "duration": 0.21950015625000674,
          "durationTicks": 45,
          "midi": 58,
          "name": "A#3",
          "ticks": 43440,
          "time": 211.89081750000003,
          "velocity": 0.6299212598425197
        },
        {
          "duration": 0.21950015625000674,
          "durationTicks": 45,
          "midi": 46,
          "name": "A#2",
          "ticks": 43488,
          "time": 212.124951,
          "velocity": 0.6299212598425197
        },
        {
          "duration": 0.21950015625000674,
          "durationTicks": 45,
          "midi": 58,
          "name": "A#3",
          "ticks": 43536,
          "time": 212.35908450000002,
          "velocity": 0.6299212598425197
        },
        {
          "duration": 0.21950015625000674,
          "durationTicks": 45,
          "midi": 46,
          "name": "A#2",
          "ticks": 43584,
          "time": 212.593218,
          "velocity": 0.6299212598425197
        },
        {
          "duration": 0.21950015625000674,
          "durationTicks": 45,
          "midi": 58,
          "name": "A#3",
          "ticks": 43632,
          "time": 212.82735150000002,
          "velocity": 0.6299212598425197
        },
        {
          "duration": 0.21950015624997832,
          "durationTicks": 45,
          "midi": 46,
          "name": "A#2",
          "ticks": 43680,
          "time": 213.06148500000003,
          "velocity": 0.6299212598425197
        },
        {
          "duration": 0.21950015625000674,
          "durationTicks": 45,
          "midi": 58,
          "name": "A#3",
          "ticks": 43728,
          "time": 213.29561850000002,
          "velocity": 0.6299212598425197
        },
        {
          "duration": 0.21950015624997832,
          "durationTicks": 45,
          "midi": 43,
          "name": "G2",
          "ticks": 43776,
          "time": 213.52975200000003,
          "velocity": 0.6299212598425197
        },
        {
          "duration": 0.21950015625000674,
          "durationTicks": 45,
          "midi": 55,
          "name": "G3",
          "ticks": 43824,
          "time": 213.76388550000001,
          "velocity": 0.6299212598425197
        },
        {
          "duration": 0.21950015624997832,
          "durationTicks": 45,
          "midi": 43,
          "name": "G2",
          "ticks": 43872,
          "time": 213.99801900000003,
          "velocity": 0.6299212598425197
        },
        {
          "duration": 0.21950015625000674,
          "durationTicks": 45,
          "midi": 55,
          "name": "G3",
          "ticks": 43920,
          "time": 214.2321525,
          "velocity": 0.6299212598425197
        },
        {
          "duration": 0.21950015625000674,
          "durationTicks": 45,
          "midi": 43,
          "name": "G2",
          "ticks": 43968,
          "time": 214.46628600000003,
          "velocity": 0.6299212598425197
        },
        {
          "duration": 0.21950015625000674,
          "durationTicks": 45,
          "midi": 55,
          "name": "G3",
          "ticks": 44016,
          "time": 214.7004195,
          "velocity": 0.6299212598425197
        },
        {
          "duration": 0.21950015625000674,
          "durationTicks": 45,
          "midi": 43,
          "name": "G2",
          "ticks": 44064,
          "time": 214.93455300000002,
          "velocity": 0.6299212598425197
        },
        {
          "duration": 0.21950015625000674,
          "durationTicks": 45,
          "midi": 55,
          "name": "G3",
          "ticks": 44112,
          "time": 215.1686865,
          "velocity": 0.6299212598425197
        },
        {
          "duration": 0.21950015625000674,
          "durationTicks": 45,
          "midi": 48,
          "name": "C3",
          "ticks": 44160,
          "time": 215.40282000000002,
          "velocity": 0.6299212598425197
        },
        {
          "duration": 0.21950015624997832,
          "durationTicks": 45,
          "midi": 60,
          "name": "C4",
          "ticks": 44208,
          "time": 215.63695350000003,
          "velocity": 0.6299212598425197
        },
        {
          "duration": 0.21950015625000674,
          "durationTicks": 45,
          "midi": 48,
          "name": "C3",
          "ticks": 44256,
          "time": 215.87108700000002,
          "velocity": 0.6299212598425197
        },
        {
          "duration": 0.21950015624997832,
          "durationTicks": 45,
          "midi": 60,
          "name": "C4",
          "ticks": 44304,
          "time": 216.10522050000003,
          "velocity": 0.6299212598425197
        },
        {
          "duration": 0.21950015625000674,
          "durationTicks": 45,
          "midi": 48,
          "name": "C3",
          "ticks": 44352,
          "time": 216.33935400000001,
          "velocity": 0.6299212598425197
        },
        {
          "duration": 0.21950015625000674,
          "durationTicks": 45,
          "midi": 60,
          "name": "C4",
          "ticks": 44400,
          "time": 216.57348750000003,
          "velocity": 0.6299212598425197
        },
        {
          "duration": 0.21950015625000674,
          "durationTicks": 45,
          "midi": 48,
          "name": "C3",
          "ticks": 44448,
          "time": 216.807621,
          "velocity": 0.6299212598425197
        },
        {
          "duration": 0.21950015625000674,
          "durationTicks": 45,
          "midi": 60,
          "name": "C4",
          "ticks": 44496,
          "time": 217.04175450000002,
          "velocity": 0.6299212598425197
        },
        {
          "duration": 0.10731118750001656,
          "durationTicks": 22,
          "midi": 48,
          "name": "C3",
          "ticks": 44544,
          "time": 217.275888,
          "velocity": 0.6299212598425197
        },
        {
          "duration": 0.10731118750001656,
          "durationTicks": 22,
          "midi": 53,
          "name": "F3",
          "ticks": 44544,
          "time": 217.275888,
          "velocity": 0.6299212598425197
        },
        {
          "duration": 0.10731118750001656,
          "durationTicks": 22,
          "midi": 48,
          "name": "C3",
          "ticks": 44592,
          "time": 217.51002150000002,
          "velocity": 0.6299212598425197
        },
        {
          "duration": 0.10731118750001656,
          "durationTicks": 22,
          "midi": 53,
          "name": "F3",
          "ticks": 44592,
          "time": 217.51002150000002,
          "velocity": 0.6299212598425197
        },
        {
          "duration": 0.10731118750001656,
          "durationTicks": 22,
          "midi": 53,
          "name": "F3",
          "ticks": 44622,
          "time": 217.65635493750003,
          "velocity": 0.6299212598425197
        },
        {
          "duration": 0.10731118750001656,
          "durationTicks": 22,
          "midi": 48,
          "name": "C3",
          "ticks": 44622,
          "time": 217.65635493750003,
          "velocity": 0.6299212598425197
        },
        {
          "duration": 0.10731118750001656,
          "durationTicks": 22,
          "midi": 48,
          "name": "C3",
          "ticks": 44688,
          "time": 217.97828850000002,
          "velocity": 0.6299212598425197
        },
        {
          "duration": 0.10731118750001656,
          "durationTicks": 22,
          "midi": 53,
          "name": "F3",
          "ticks": 44688,
          "time": 217.97828850000002,
          "velocity": 0.6299212598425197
        },
        {
          "duration": 0.10731118750001656,
          "durationTicks": 22,
          "midi": 53,
          "name": "F3",
          "ticks": 44766,
          "time": 218.3587554375,
          "velocity": 0.6299212598425197
        },
        {
          "duration": 0.10731118750001656,
          "durationTicks": 22,
          "midi": 48,
          "name": "C3",
          "ticks": 44766,
          "time": 218.3587554375,
          "velocity": 0.6299212598425197
        },
        {
          "duration": 0.10731118749998814,
          "durationTicks": 22,
          "midi": 48,
          "name": "C3",
          "ticks": 44832,
          "time": 218.68068900000003,
          "velocity": 0.6299212598425197
        },
        {
          "duration": 0.10731118749998814,
          "durationTicks": 22,
          "midi": 53,
          "name": "F3",
          "ticks": 44832,
          "time": 218.68068900000003,
          "velocity": 0.6299212598425197
        },
        {
          "duration": 0.10731118750001656,
          "durationTicks": 22,
          "midi": 48,
          "name": "C3",
          "ticks": 44880,
          "time": 218.9148225,
          "velocity": 0.6299212598425197
        },
        {
          "duration": 0.10731118750001656,
          "durationTicks": 22,
          "midi": 53,
          "name": "F3",
          "ticks": 44880,
          "time": 218.9148225,
          "velocity": 0.6299212598425197
        },
        {
          "duration": 0.10731118750001656,
          "durationTicks": 22,
          "midi": 53,
          "name": "F3",
          "ticks": 44910,
          "time": 219.06115593750002,
          "velocity": 0.6299212598425197
        },
        {
          "duration": 0.10731118750001656,
          "durationTicks": 22,
          "midi": 48,
          "name": "C3",
          "ticks": 44910,
          "time": 219.06115593750002,
          "velocity": 0.6299212598425197
        },
        {
          "duration": 0.10731118750001656,
          "durationTicks": 22,
          "midi": 48,
          "name": "C3",
          "ticks": 44928,
          "time": 219.14895600000003,
          "velocity": 0.6299212598425197
        },
        {
          "duration": 0.10731118750001656,
          "durationTicks": 22,
          "midi": 53,
          "name": "F3",
          "ticks": 44928,
          "time": 219.14895600000003,
          "velocity": 0.6299212598425197
        },
        {
          "duration": 0.10731118750001656,
          "durationTicks": 22,
          "midi": 48,
          "name": "C3",
          "ticks": 44976,
          "time": 219.3830895,
          "velocity": 0.6299212598425197
        },
        {
          "duration": 0.10731118750001656,
          "durationTicks": 22,
          "midi": 53,
          "name": "F3",
          "ticks": 44976,
          "time": 219.3830895,
          "velocity": 0.6299212598425197
        },
        {
          "duration": 0.10731118750001656,
          "durationTicks": 22,
          "midi": 53,
          "name": "F3",
          "ticks": 45006,
          "time": 219.52942293750002,
          "velocity": 0.6299212598425197
        },
        {
          "duration": 0.10731118750001656,
          "durationTicks": 22,
          "midi": 48,
          "name": "C3",
          "ticks": 45006,
          "time": 219.52942293750002,
          "velocity": 0.6299212598425197
        },
        {
          "duration": 0.10731118750001656,
          "durationTicks": 22,
          "midi": 48,
          "name": "C3",
          "ticks": 45072,
          "time": 219.8513565,
          "velocity": 0.6299212598425197
        },
        {
          "duration": 0.10731118750001656,
          "durationTicks": 22,
          "midi": 53,
          "name": "F3",
          "ticks": 45072,
          "time": 219.8513565,
          "velocity": 0.6299212598425197
        },
        {
          "duration": 0.10731118750001656,
          "durationTicks": 22,
          "midi": 53,
          "name": "F3",
          "ticks": 45150,
          "time": 220.23182343750003,
          "velocity": 0.6299212598425197
        },
        {
          "duration": 0.10731118750001656,
          "durationTicks": 22,
          "midi": 48,
          "name": "C3",
          "ticks": 45150,
          "time": 220.23182343750003,
          "velocity": 0.6299212598425197
        },
        {
          "duration": 0.10731118750001656,
          "durationTicks": 22,
          "midi": 48,
          "name": "C3",
          "ticks": 45216,
          "time": 220.55375700000002,
          "velocity": 0.6299212598425197
        },
        {
          "duration": 0.10731118750001656,
          "durationTicks": 22,
          "midi": 53,
          "name": "F3",
          "ticks": 45216,
          "time": 220.55375700000002,
          "velocity": 0.6299212598425197
        },
        {
          "duration": 0.10731118749998814,
          "durationTicks": 22,
          "midi": 48,
          "name": "C3",
          "ticks": 45264,
          "time": 220.78789050000003,
          "velocity": 0.6299212598425197
        },
        {
          "duration": 0.10731118749998814,
          "durationTicks": 22,
          "midi": 53,
          "name": "F3",
          "ticks": 45264,
          "time": 220.78789050000003,
          "velocity": 0.6299212598425197
        },
        {
          "duration": 0.10731118750001656,
          "durationTicks": 22,
          "midi": 53,
          "name": "F3",
          "ticks": 45294,
          "time": 220.9342239375,
          "velocity": 0.6299212598425197
        },
        {
          "duration": 0.10731118750001656,
          "durationTicks": 22,
          "midi": 48,
          "name": "C3",
          "ticks": 45294,
          "time": 220.9342239375,
          "velocity": 0.6299212598425197
        },
        {
          "duration": 0.10731118750001656,
          "durationTicks": 22,
          "midi": 48,
          "name": "C3",
          "ticks": 45312,
          "time": 221.02202400000002,
          "velocity": 0.6299212598425197
        },
        {
          "duration": 0.10731118750001656,
          "durationTicks": 22,
          "midi": 53,
          "name": "F3",
          "ticks": 45312,
          "time": 221.02202400000002,
          "velocity": 0.6299212598425197
        },
        {
          "duration": 0.10731118749998814,
          "durationTicks": 22,
          "midi": 48,
          "name": "C3",
          "ticks": 45360,
          "time": 221.25615750000003,
          "velocity": 0.6299212598425197
        },
        {
          "duration": 0.10731118749998814,
          "durationTicks": 22,
          "midi": 53,
          "name": "F3",
          "ticks": 45360,
          "time": 221.25615750000003,
          "velocity": 0.6299212598425197
        },
        {
          "duration": 0.10731118749998814,
          "durationTicks": 22,
          "midi": 53,
          "name": "F3",
          "ticks": 45390,
          "time": 221.40249093750003,
          "velocity": 0.6299212598425197
        },
        {
          "duration": 0.10731118749998814,
          "durationTicks": 22,
          "midi": 48,
          "name": "C3",
          "ticks": 45390,
          "time": 221.40249093750003,
          "velocity": 0.6299212598425197
        },
        {
          "duration": 0.10731118750001656,
          "durationTicks": 22,
          "midi": 48,
          "name": "C3",
          "ticks": 45456,
          "time": 221.72442450000003,
          "velocity": 0.6299212598425197
        },
        {
          "duration": 0.10731118750001656,
          "durationTicks": 22,
          "midi": 53,
          "name": "F3",
          "ticks": 45456,
          "time": 221.72442450000003,
          "velocity": 0.6299212598425197
        },
        {
          "duration": 0.10731118750001656,
          "durationTicks": 22,
          "midi": 53,
          "name": "F3",
          "ticks": 45534,
          "time": 222.10489143750002,
          "velocity": 0.6299212598425197
        },
        {
          "duration": 0.10731118750001656,
          "durationTicks": 22,
          "midi": 48,
          "name": "C3",
          "ticks": 45534,
          "time": 222.10489143750002,
          "velocity": 0.6299212598425197
        },
        {
          "duration": 0.10731118750001656,
          "durationTicks": 22,
          "midi": 48,
          "name": "C3",
          "ticks": 45600,
          "time": 222.426825,
          "velocity": 0.6299212598425197
        },
        {
          "duration": 0.10731118750001656,
          "durationTicks": 22,
          "midi": 53,
          "name": "F3",
          "ticks": 45600,
          "time": 222.426825,
          "velocity": 0.6299212598425197
        },
        {
          "duration": 0.10731118750001656,
          "durationTicks": 22,
          "midi": 48,
          "name": "C3",
          "ticks": 45648,
          "time": 222.66095850000002,
          "velocity": 0.6299212598425197
        },
        {
          "duration": 0.10731118750001656,
          "durationTicks": 22,
          "midi": 53,
          "name": "F3",
          "ticks": 45648,
          "time": 222.66095850000002,
          "velocity": 0.6299212598425197
        },
        {
          "duration": 0.10731118750001656,
          "durationTicks": 22,
          "midi": 53,
          "name": "F3",
          "ticks": 45678,
          "time": 222.80729193750003,
          "velocity": 0.6299212598425197
        },
        {
          "duration": 0.10731118750001656,
          "durationTicks": 22,
          "midi": 48,
          "name": "C3",
          "ticks": 45678,
          "time": 222.80729193750003,
          "velocity": 0.6299212598425197
        },
        {
          "duration": 0.10731118749998814,
          "durationTicks": 22,
          "midi": 48,
          "name": "C3",
          "ticks": 45696,
          "time": 222.89509200000003,
          "velocity": 0.6299212598425197
        },
        {
          "duration": 0.10731118749998814,
          "durationTicks": 22,
          "midi": 53,
          "name": "F3",
          "ticks": 45696,
          "time": 222.89509200000003,
          "velocity": 0.6299212598425197
        },
        {
          "duration": 0.10731118750001656,
          "durationTicks": 22,
          "midi": 48,
          "name": "C3",
          "ticks": 45744,
          "time": 223.12922550000002,
          "velocity": 0.6299212598425197
        },
        {
          "duration": 0.10731118750001656,
          "durationTicks": 22,
          "midi": 53,
          "name": "F3",
          "ticks": 45744,
          "time": 223.12922550000002,
          "velocity": 0.6299212598425197
        },
        {
          "duration": 0.10731118750001656,
          "durationTicks": 22,
          "midi": 53,
          "name": "F3",
          "ticks": 45774,
          "time": 223.27555893750002,
          "velocity": 0.6299212598425197
        },
        {
          "duration": 0.10731118750001656,
          "durationTicks": 22,
          "midi": 48,
          "name": "C3",
          "ticks": 45774,
          "time": 223.27555893750002,
          "velocity": 0.6299212598425197
        },
        {
          "duration": 0.10731118750001656,
          "durationTicks": 22,
          "midi": 48,
          "name": "C3",
          "ticks": 45840,
          "time": 223.59749250000002,
          "velocity": 0.6299212598425197
        },
        {
          "duration": 0.10731118750001656,
          "durationTicks": 22,
          "midi": 53,
          "name": "F3",
          "ticks": 45840,
          "time": 223.59749250000002,
          "velocity": 0.6299212598425197
        },
        {
          "duration": 0.10731118749998814,
          "durationTicks": 22,
          "midi": 53,
          "name": "F3",
          "ticks": 45918,
          "time": 223.97795943750003,
          "velocity": 0.6299212598425197
        },
        {
          "duration": 0.10731118749998814,
          "durationTicks": 22,
          "midi": 48,
          "name": "C3",
          "ticks": 45918,
          "time": 223.97795943750003,
          "velocity": 0.6299212598425197
        },
        {
          "duration": 0.10731118750001656,
          "durationTicks": 22,
          "midi": 48,
          "name": "C3",
          "ticks": 45984,
          "time": 224.29989300000003,
          "velocity": 0.6299212598425197
        },
        {
          "duration": 0.10731118750001656,
          "durationTicks": 22,
          "midi": 53,
          "name": "F3",
          "ticks": 45984,
          "time": 224.29989300000003,
          "velocity": 0.6299212598425197
        },
        {
          "duration": 0.10731118750001656,
          "durationTicks": 22,
          "midi": 48,
          "name": "C3",
          "ticks": 46032,
          "time": 224.5340265,
          "velocity": 0.6299212598425197
        },
        {
          "duration": 0.10731118750001656,
          "durationTicks": 22,
          "midi": 53,
          "name": "F3",
          "ticks": 46032,
          "time": 224.5340265,
          "velocity": 0.6299212598425197
        },
        {
          "duration": 0.10731118750001656,
          "durationTicks": 22,
          "midi": 53,
          "name": "F3",
          "ticks": 46062,
          "time": 224.68035993750001,
          "velocity": 0.6299212598425197
        },
        {
          "duration": 0.10731118750001656,
          "durationTicks": 22,
          "midi": 48,
          "name": "C3",
          "ticks": 46062,
          "time": 224.68035993750001,
          "velocity": 0.6299212598425197
        },
        {
          "duration": 0.10731118750001656,
          "durationTicks": 22,
          "midi": 53,
          "name": "F3",
          "ticks": 46080,
          "time": 224.76816000000002,
          "velocity": 0.6299212598425197
        },
        {
          "duration": 0.10731118750001656,
          "durationTicks": 22,
          "midi": 53,
          "name": "F3",
          "ticks": 46110,
          "time": 224.91449343750003,
          "velocity": 0.6299212598425197
        },
        {
          "duration": 0.21950015625000674,
          "durationTicks": 45,
          "midi": 53,
          "name": "F3",
          "ticks": 46128,
          "time": 225.0022935,
          "velocity": 0.6299212598425197
        },
        {
          "duration": 0.21950015625000674,
          "durationTicks": 45,
          "midi": 52,
          "name": "E3",
          "ticks": 46176,
          "time": 225.23642700000002,
          "velocity": 0.6299212598425197
        },
        {
          "duration": 0.21950015624997832,
          "durationTicks": 45,
          "midi": 52,
          "name": "E3",
          "ticks": 46224,
          "time": 225.47056050000003,
          "velocity": 0.6299212598425197
        },
        {
          "duration": 0.21950015625000674,
          "durationTicks": 45,
          "midi": 51,
          "name": "D#3",
          "ticks": 46272,
          "time": 225.70469400000002,
          "velocity": 0.6299212598425197
        },
        {
          "duration": 0.21950015624997832,
          "durationTicks": 45,
          "midi": 51,
          "name": "D#3",
          "ticks": 46320,
          "time": 225.93882750000003,
          "velocity": 0.6299212598425197
        },
        {
          "duration": 0.21950015625000674,
          "durationTicks": 45,
          "midi": 50,
          "name": "D3",
          "ticks": 46368,
          "time": 226.17296100000002,
          "velocity": 0.6299212598425197
        },
        {
          "duration": 0.21950015625000674,
          "durationTicks": 45,
          "midi": 49,
          "name": "C#3",
          "ticks": 46416,
          "time": 226.40709450000003,
          "velocity": 0.6299212598425197
        },
        {
          "duration": 0.10731118750001656,
          "durationTicks": 22,
          "midi": 48,
          "name": "C3",
          "ticks": 46464,
          "time": 226.641228,
          "velocity": 0.6299212598425197
        },
        {
          "duration": 0.10731118750001656,
          "durationTicks": 22,
          "midi": 48,
          "name": "C3",
          "ticks": 46494,
          "time": 226.78756143750002,
          "velocity": 0.6299212598425197
        },
        {
          "duration": 0.21950015625000674,
          "durationTicks": 45,
          "midi": 48,
          "name": "C3",
          "ticks": 46512,
          "time": 226.87536150000003,
          "velocity": 0.6299212598425197
        },
        {
          "duration": 0.21950015625000674,
          "durationTicks": 45,
          "midi": 47,
          "name": "B2",
          "ticks": 46560,
          "time": 227.109495,
          "velocity": 0.6299212598425197
        },
        {
          "duration": 0.21950015625000674,
          "durationTicks": 45,
          "midi": 47,
          "name": "B2",
          "ticks": 46608,
          "time": 227.34362850000002,
          "velocity": 0.6299212598425197
        },
        {
          "duration": 0.21950015624997832,
          "durationTicks": 45,
          "midi": 46,
          "name": "A#2",
          "ticks": 46656,
          "time": 227.57776200000004,
          "velocity": 0.6299212598425197
        },
        {
          "duration": 0.21950015625000674,
          "durationTicks": 45,
          "midi": 46,
          "name": "A#2",
          "ticks": 46704,
          "time": 227.81189550000002,
          "velocity": 0.6299212598425197
        },
        {
          "duration": 0.21950015624997832,
          "durationTicks": 45,
          "midi": 44,
          "name": "G#2",
          "ticks": 46752,
          "time": 228.04602900000003,
          "velocity": 0.6299212598425197
        },
        {
          "duration": 0.21950015625000674,
          "durationTicks": 45,
          "midi": 41,
          "name": "F2",
          "ticks": 46800,
          "time": 228.28016250000002,
          "velocity": 0.6299212598425197
        },
        {
          "duration": 0.10731118749998814,
          "durationTicks": 22,
          "midi": 53,
          "name": "F3",
          "ticks": 46848,
          "time": 228.51429600000003,
          "velocity": 0.6299212598425197
        },
        {
          "duration": 0.10731118749998814,
          "durationTicks": 22,
          "midi": 53,
          "name": "F3",
          "ticks": 46878,
          "time": 228.66062943750003,
          "velocity": 0.6299212598425197
        },
        {
          "duration": 0.21950015625000674,
          "durationTicks": 45,
          "midi": 53,
          "name": "F3",
          "ticks": 46896,
          "time": 228.74842950000001,
          "velocity": 0.6299212598425197
        },
        {
          "duration": 0.21950015625000674,
          "durationTicks": 45,
          "midi": 52,
          "name": "E3",
          "ticks": 46944,
          "time": 228.98256300000003,
          "velocity": 0.6299212598425197
        },
        {
          "duration": 0.21950015625000674,
          "durationTicks": 45,
          "midi": 52,
          "name": "E3",
          "ticks": 46992,
          "time": 229.2166965,
          "velocity": 0.6299212598425197
        },
        {
          "duration": 0.21950015625000674,
          "durationTicks": 45,
          "midi": 51,
          "name": "D#3",
          "ticks": 47040,
          "time": 229.45083000000002,
          "velocity": 0.6299212598425197
        },
        {
          "duration": 0.21950015625000674,
          "durationTicks": 45,
          "midi": 51,
          "name": "D#3",
          "ticks": 47088,
          "time": 229.6849635,
          "velocity": 0.6299212598425197
        },
        {
          "duration": 0.21950015625000674,
          "durationTicks": 45,
          "midi": 50,
          "name": "D3",
          "ticks": 47136,
          "time": 229.91909700000002,
          "velocity": 0.6299212598425197
        },
        {
          "duration": 0.21950015624997832,
          "durationTicks": 45,
          "midi": 49,
          "name": "C#3",
          "ticks": 47184,
          "time": 230.15323050000003,
          "velocity": 0.6299212598425197
        },
        {
          "duration": 0.10731118750001656,
          "durationTicks": 22,
          "midi": 48,
          "name": "C3",
          "ticks": 47232,
          "time": 230.38736400000002,
          "velocity": 0.6299212598425197
        },
        {
          "duration": 0.10731118750001656,
          "durationTicks": 22,
          "midi": 48,
          "name": "C3",
          "ticks": 47262,
          "time": 230.53369743750002,
          "velocity": 0.6299212598425197
        },
        {
          "duration": 0.21950015624997832,
          "durationTicks": 45,
          "midi": 48,
          "name": "C3",
          "ticks": 47280,
          "time": 230.62149750000003,
          "velocity": 0.6299212598425197
        },
        {
          "duration": 0.21950015625000674,
          "durationTicks": 45,
          "midi": 47,
          "name": "B2",
          "ticks": 47328,
          "time": 230.85563100000002,
          "velocity": 0.6299212598425197
        },
        {
          "duration": 0.21950015624997832,
          "durationTicks": 45,
          "midi": 47,
          "name": "B2",
          "ticks": 47376,
          "time": 231.08976450000003,
          "velocity": 0.6299212598425197
        },
        {
          "duration": 0.21950015625000674,
          "durationTicks": 45,
          "midi": 46,
          "name": "A#2",
          "ticks": 47424,
          "time": 231.323898,
          "velocity": 0.6299212598425197
        },
        {
          "duration": 0.21950015625000674,
          "durationTicks": 45,
          "midi": 46,
          "name": "A#2",
          "ticks": 47472,
          "time": 231.55803150000003,
          "velocity": 0.6299212598425197
        },
        {
          "duration": 0.21950015625000674,
          "durationTicks": 45,
          "midi": 44,
          "name": "G#2",
          "ticks": 47520,
          "time": 231.792165,
          "velocity": 0.6299212598425197
        },
        {
          "duration": 0.21950015625000674,
          "durationTicks": 45,
          "midi": 41,
          "name": "F2",
          "ticks": 47568,
          "time": 232.02629850000002,
          "velocity": 0.6299212598425197
        },
        {
          "duration": 0.21950015625000674,
          "durationTicks": 45,
          "midi": 41,
          "name": "F2",
          "ticks": 47616,
          "time": 232.260432,
          "velocity": 0.6299212598425197
        },
        {
          "duration": 0.21950015625000674,
          "durationTicks": 45,
          "midi": 53,
          "name": "F3",
          "ticks": 47664,
          "time": 232.49456550000002,
          "velocity": 0.6299212598425197
        },
        {
          "duration": 0.21950015624997832,
          "durationTicks": 45,
          "midi": 41,
          "name": "F2",
          "ticks": 47712,
          "time": 232.72869900000003,
          "velocity": 0.6299212598425197
        },
        {
          "duration": 0.21950015625000674,
          "durationTicks": 45,
          "midi": 53,
          "name": "F3",
          "ticks": 47760,
          "time": 232.96283250000002,
          "velocity": 0.6299212598425197
        },
        {
          "duration": 0.21950015624997832,
          "durationTicks": 45,
          "midi": 41,
          "name": "F2",
          "ticks": 47808,
          "time": 233.19696600000003,
          "velocity": 0.6299212598425197
        },
        {
          "duration": 0.21950015625000674,
          "durationTicks": 45,
          "midi": 53,
          "name": "F3",
          "ticks": 47856,
          "time": 233.43109950000002,
          "velocity": 0.6299212598425197
        },
        {
          "duration": 0.21950015625000674,
          "durationTicks": 45,
          "midi": 41,
          "name": "F2",
          "ticks": 47904,
          "time": 233.66523300000003,
          "velocity": 0.6299212598425197
        },
        {
          "duration": 0.21950015625000674,
          "durationTicks": 45,
          "midi": 53,
          "name": "F3",
          "ticks": 47952,
          "time": 233.8993665,
          "velocity": 0.6299212598425197
        },
        {
          "duration": 0.21950015625000674,
          "durationTicks": 45,
          "midi": 41,
          "name": "F2",
          "ticks": 48000,
          "time": 234.13350000000003,
          "velocity": 0.6299212598425197
        },
        {
          "duration": 0.21950015625000674,
          "durationTicks": 45,
          "midi": 53,
          "name": "F3",
          "ticks": 48048,
          "time": 234.3676335,
          "velocity": 0.6299212598425197
        },
        {
          "duration": 0.21950015625000674,
          "durationTicks": 45,
          "midi": 41,
          "name": "F2",
          "ticks": 48096,
          "time": 234.60176700000002,
          "velocity": 0.6299212598425197
        },
        {
          "duration": 0.21950015625000674,
          "durationTicks": 45,
          "midi": 53,
          "name": "F3",
          "ticks": 48144,
          "time": 234.8359005,
          "velocity": 0.6299212598425197
        },
        {
          "duration": 0.21950015625000674,
          "durationTicks": 45,
          "midi": 41,
          "name": "F2",
          "ticks": 48192,
          "time": 235.07003400000002,
          "velocity": 0.6299212598425197
        },
        {
          "duration": 0.21950015624997832,
          "durationTicks": 45,
          "midi": 53,
          "name": "F3",
          "ticks": 48240,
          "time": 235.30416750000003,
          "velocity": 0.6299212598425197
        },
        {
          "duration": 0.21950015625000674,
          "durationTicks": 45,
          "midi": 41,
          "name": "F2",
          "ticks": 48288,
          "time": 235.53830100000002,
          "velocity": 0.6299212598425197
        },
        {
          "duration": 0.21950015624997832,
          "durationTicks": 45,
          "midi": 53,
          "name": "F3",
          "ticks": 48336,
          "time": 235.77243450000003,
          "velocity": 0.6299212598425197
        },
        {
          "duration": 0.21950015625000674,
          "durationTicks": 45,
          "midi": 44,
          "name": "G#2",
          "ticks": 48384,
          "time": 236.00656800000002,
          "velocity": 0.6299212598425197
        },
        {
          "duration": 0.21950015625000674,
          "durationTicks": 45,
          "midi": 56,
          "name": "G#3",
          "ticks": 48432,
          "time": 236.24070150000003,
          "velocity": 0.6299212598425197
        },
        {
          "duration": 0.21950015625000674,
          "durationTicks": 45,
          "midi": 44,
          "name": "G#2",
          "ticks": 48480,
          "time": 236.474835,
          "velocity": 0.6299212598425197
        },
        {
          "duration": 0.21950015625000674,
          "durationTicks": 45,
          "midi": 56,
          "name": "G#3",
          "ticks": 48528,
          "time": 236.70896850000003,
          "velocity": 0.6299212598425197
        },
        {
          "duration": 0.21950015625000674,
          "durationTicks": 45,
          "midi": 44,
          "name": "G#2",
          "ticks": 48576,
          "time": 236.943102,
          "velocity": 0.6299212598425197
        },
        {
          "duration": 0.21950015625000674,
          "durationTicks": 45,
          "midi": 56,
          "name": "G#3",
          "ticks": 48624,
          "time": 237.17723550000002,
          "velocity": 0.6299212598425197
        },
        {
          "duration": 0.21950015624997832,
          "durationTicks": 45,
          "midi": 44,
          "name": "G#2",
          "ticks": 48672,
          "time": 237.41136900000004,
          "velocity": 0.6299212598425197
        },
        {
          "duration": 0.21950015625000674,
          "durationTicks": 45,
          "midi": 56,
          "name": "G#3",
          "ticks": 48720,
          "time": 237.64550250000002,
          "velocity": 0.6299212598425197
        },
        {
          "duration": 0.21950015624997832,
          "durationTicks": 45,
          "midi": 44,
          "name": "G#2",
          "ticks": 48768,
          "time": 237.87963600000003,
          "velocity": 0.6299212598425197
        },
        {
          "duration": 0.21950015625000674,
          "durationTicks": 45,
          "midi": 56,
          "name": "G#3",
          "ticks": 48816,
          "time": 238.11376950000002,
          "velocity": 0.6299212598425197
        },
        {
          "duration": 0.21950015624997832,
          "durationTicks": 45,
          "midi": 44,
          "name": "G#2",
          "ticks": 48864,
          "time": 238.34790300000003,
          "velocity": 0.6299212598425197
        },
        {
          "duration": 0.21950015625000674,
          "durationTicks": 45,
          "midi": 56,
          "name": "G#3",
          "ticks": 48912,
          "time": 238.58203650000002,
          "velocity": 0.6299212598425197
        },
        {
          "duration": 0.21950015625000674,
          "durationTicks": 45,
          "midi": 44,
          "name": "G#2",
          "ticks": 48960,
          "time": 238.81617000000003,
          "velocity": 0.6299212598425197
        },
        {
          "duration": 0.21950015625000674,
          "durationTicks": 45,
          "midi": 56,
          "name": "G#3",
          "ticks": 49008,
          "time": 239.0503035,
          "velocity": 0.6299212598425197
        },
        {
          "duration": 0.21950015625000674,
          "durationTicks": 45,
          "midi": 44,
          "name": "G#2",
          "ticks": 49056,
          "time": 239.28443700000003,
          "velocity": 0.6299212598425197
        },
        {
          "duration": 0.21950015625000674,
          "durationTicks": 45,
          "midi": 56,
          "name": "G#3",
          "ticks": 49104,
          "time": 239.5185705,
          "velocity": 0.6299212598425197
        },
        {
          "duration": 0.21950015625000674,
          "durationTicks": 45,
          "midi": 46,
          "name": "A#2",
          "ticks": 49152,
          "time": 239.75270400000002,
          "velocity": 0.6299212598425197
        },
        {
          "duration": 0.21950015624997832,
          "durationTicks": 45,
          "midi": 58,
          "name": "A#3",
          "ticks": 49200,
          "time": 239.98683750000004,
          "velocity": 0.6299212598425197
        },
        {
          "duration": 0.21950015625000674,
          "durationTicks": 45,
          "midi": 46,
          "name": "A#2",
          "ticks": 49248,
          "time": 240.22097100000002,
          "velocity": 0.6299212598425197
        },
        {
          "duration": 0.21950015624997832,
          "durationTicks": 45,
          "midi": 58,
          "name": "A#3",
          "ticks": 49296,
          "time": 240.45510450000003,
          "velocity": 0.6299212598425197
        },
        {
          "duration": 0.21950015625000674,
          "durationTicks": 45,
          "midi": 46,
          "name": "A#2",
          "ticks": 49344,
          "time": 240.68923800000002,
          "velocity": 0.6299212598425197
        },
        {
          "duration": 0.21950015625000674,
          "durationTicks": 45,
          "midi": 58,
          "name": "A#3",
          "ticks": 49392,
          "time": 240.92337150000003,
          "velocity": 0.6299212598425197
        },
        {
          "duration": 0.21950015625000674,
          "durationTicks": 45,
          "midi": 46,
          "name": "A#2",
          "ticks": 49440,
          "time": 241.15750500000001,
          "velocity": 0.6299212598425197
        },
        {
          "duration": 0.21950015625000674,
          "durationTicks": 45,
          "midi": 58,
          "name": "A#3",
          "ticks": 49488,
          "time": 241.39163850000003,
          "velocity": 0.6299212598425197
        },
        {
          "duration": 0.21950015625000674,
          "durationTicks": 45,
          "midi": 46,
          "name": "A#2",
          "ticks": 49536,
          "time": 241.625772,
          "velocity": 0.6299212598425197
        },
        {
          "duration": 0.21950015625000674,
          "durationTicks": 45,
          "midi": 58,
          "name": "A#3",
          "ticks": 49584,
          "time": 241.85990550000002,
          "velocity": 0.6299212598425197
        },
        {
          "duration": 0.21950015625000674,
          "durationTicks": 45,
          "midi": 46,
          "name": "A#2",
          "ticks": 49632,
          "time": 242.094039,
          "velocity": 0.6299212598425197
        },
        {
          "duration": 0.21950015625000674,
          "durationTicks": 45,
          "midi": 58,
          "name": "A#3",
          "ticks": 49680,
          "time": 242.32817250000002,
          "velocity": 0.6299212598425197
        },
        {
          "duration": 0.21950015624997832,
          "durationTicks": 45,
          "midi": 46,
          "name": "A#2",
          "ticks": 49728,
          "time": 242.56230600000004,
          "velocity": 0.6299212598425197
        },
        {
          "duration": 0.21950015625000674,
          "durationTicks": 45,
          "midi": 58,
          "name": "A#3",
          "ticks": 49776,
          "time": 242.79643950000002,
          "velocity": 0.6299212598425197
        },
        {
          "duration": 0.21950015624997832,
          "durationTicks": 45,
          "midi": 46,
          "name": "A#2",
          "ticks": 49824,
          "time": 243.03057300000003,
          "velocity": 0.6299212598425197
        },
        {
          "duration": 0.21950015625000674,
          "durationTicks": 45,
          "midi": 58,
          "name": "A#3",
          "ticks": 49872,
          "time": 243.26470650000002,
          "velocity": 0.6299212598425197
        },
        {
          "duration": 0.6633782499999654,
          "durationTicks": 136,
          "midi": 41,
          "name": "F2",
          "ticks": 49920,
          "time": 243.49884000000003,
          "velocity": 0.6299212598425197
        },
        {
          "duration": 0.6633782499999654,
          "durationTicks": 136,
          "midi": 53,
          "name": "F3",
          "ticks": 49920,
          "time": 243.49884000000003,
          "velocity": 0.6299212598425197
        },
        {
          "duration": 0.887756187500031,
          "durationTicks": 182,
          "midi": 42,
          "name": "F#2",
          "ticks": 50064,
          "time": 244.2012405,
          "velocity": 0.6299212598425197
        },
        {
          "duration": 0.887756187500031,
          "durationTicks": 182,
          "midi": 54,
          "name": "F#3",
          "ticks": 50064,
          "time": 244.2012405,
          "velocity": 0.6299212598425197
        },
        {
          "duration": 0.6633782499999938,
          "durationTicks": 136,
          "midi": 43,
          "name": "G2",
          "ticks": 50304,
          "time": 245.37190800000002,
          "velocity": 0.6299212598425197
        },
        {
          "duration": 0.6633782499999938,
          "durationTicks": 136,
          "midi": 51,
          "name": "D#3",
          "ticks": 50304,
          "time": 245.37190800000002,
          "velocity": 0.6299212598425197
        },
        {
          "duration": 0.6633782499999938,
          "durationTicks": 136,
          "midi": 55,
          "name": "G3",
          "ticks": 50304,
          "time": 245.37190800000002,
          "velocity": 0.6299212598425197
        },
        {
          "duration": 0.8877561875000026,
          "durationTicks": 182,
          "midi": 48,
          "name": "C3",
          "ticks": 50448,
          "time": 246.07430850000003,
          "velocity": 0.6299212598425197
        },
        {
          "duration": 0.8877561875000026,
          "durationTicks": 182,
          "midi": 60,
          "name": "C4",
          "ticks": 50448,
          "time": 246.07430850000003,
          "velocity": 0.6299212598425197
        },
        {
          "duration": 0.21950015624997832,
          "durationTicks": 45,
          "midi": 41,
          "name": "F2",
          "ticks": 50688,
          "time": 247.24497600000004,
          "velocity": 0.6299212598425197
        },
        {
          "duration": 0.21950015625000674,
          "durationTicks": 45,
          "midi": 53,
          "name": "F3",
          "ticks": 50736,
          "time": 247.47910950000002,
          "velocity": 0.6299212598425197
        },
        {
          "duration": 0.21950015624997832,
          "durationTicks": 45,
          "midi": 41,
          "name": "F2",
          "ticks": 50784,
          "time": 247.71324300000003,
          "velocity": 0.6299212598425197
        },
        {
          "duration": 0.21950015625000674,
          "durationTicks": 45,
          "midi": 53,
          "name": "F3",
          "ticks": 50832,
          "time": 247.94737650000002,
          "velocity": 0.6299212598425197
        },
        {
          "duration": 0.21950015624997832,
          "durationTicks": 45,
          "midi": 41,
          "name": "F2",
          "ticks": 50880,
          "time": 248.18151000000003,
          "velocity": 0.6299212598425197
        },
        {
          "duration": 0.21950015625000674,
          "durationTicks": 45,
          "midi": 53,
          "name": "F3",
          "ticks": 50928,
          "time": 248.41564350000002,
          "velocity": 0.6299212598425197
        },
        {
          "duration": 0.21950015625000674,
          "durationTicks": 45,
          "midi": 41,
          "name": "F2",
          "ticks": 50976,
          "time": 248.64977700000003,
          "velocity": 0.6299212598425197
        },
        {
          "duration": 0.21950015625000674,
          "durationTicks": 45,
          "midi": 53,
          "name": "F3",
          "ticks": 51024,
          "time": 248.8839105,
          "velocity": 0.6299212598425197
        },
        {
          "duration": 0.21950015625000674,
          "durationTicks": 45,
          "midi": 41,
          "name": "F2",
          "ticks": 51072,
          "time": 249.11804400000003,
          "velocity": 0.6299212598425197
        },
        {
          "duration": 0.21950015625000674,
          "durationTicks": 45,
          "midi": 53,
          "name": "F3",
          "ticks": 51120,
          "time": 249.3521775,
          "velocity": 0.6299212598425197
        },
        {
          "duration": 0.21950015625000674,
          "durationTicks": 45,
          "midi": 41,
          "name": "F2",
          "ticks": 51168,
          "time": 249.58631100000002,
          "velocity": 0.6299212598425197
        },
        {
          "duration": 0.21950015624997832,
          "durationTicks": 45,
          "midi": 53,
          "name": "F3",
          "ticks": 51216,
          "time": 249.82044450000004,
          "velocity": 0.6299212598425197
        },
        {
          "duration": 0.21950015625000674,
          "durationTicks": 45,
          "midi": 41,
          "name": "F2",
          "ticks": 51264,
          "time": 250.05457800000002,
          "velocity": 0.6299212598425197
        },
        {
          "duration": 0.21950015624997832,
          "durationTicks": 45,
          "midi": 53,
          "name": "F3",
          "ticks": 51312,
          "time": 250.28871150000003,
          "velocity": 0.6299212598425197
        },
        {
          "duration": 0.21950015625000674,
          "durationTicks": 45,
          "midi": 41,
          "name": "F2",
          "ticks": 51360,
          "time": 250.52284500000002,
          "velocity": 0.6299212598425197
        },
        {
          "duration": 0.21950015625000674,
          "durationTicks": 45,
          "midi": 53,
          "name": "F3",
          "ticks": 51408,
          "time": 250.75697850000003,
          "velocity": 0.6299212598425197
        },
        {
          "duration": 0.21950015625000674,
          "durationTicks": 45,
          "midi": 44,
          "name": "G#2",
          "ticks": 51456,
          "time": 250.99111200000002,
          "velocity": 0.6299212598425197
        },
        {
          "duration": 0.21950015625000674,
          "durationTicks": 45,
          "midi": 56,
          "name": "G#3",
          "ticks": 51504,
          "time": 251.22524550000003,
          "velocity": 0.6299212598425197
        },
        {
          "duration": 0.21950015625000674,
          "durationTicks": 45,
          "midi": 44,
          "name": "G#2",
          "ticks": 51552,
          "time": 251.459379,
          "velocity": 0.6299212598425197
        },
        {
          "duration": 0.21950015625000674,
          "durationTicks": 45,
          "midi": 56,
          "name": "G#3",
          "ticks": 51600,
          "time": 251.69351250000003,
          "velocity": 0.6299212598425197
        },
        {
          "duration": 0.21950015625000674,
          "durationTicks": 45,
          "midi": 44,
          "name": "G#2",
          "ticks": 51648,
          "time": 251.927646,
          "velocity": 0.6299212598425197
        },
        {
          "duration": 0.21950015625000674,
          "durationTicks": 45,
          "midi": 56,
          "name": "G#3",
          "ticks": 51696,
          "time": 252.16177950000002,
          "velocity": 0.6299212598425197
        },
        {
          "duration": 0.21950015624997832,
          "durationTicks": 45,
          "midi": 44,
          "name": "G#2",
          "ticks": 51744,
          "time": 252.39591300000004,
          "velocity": 0.6299212598425197
        },
        {
          "duration": 0.21950015625000674,
          "durationTicks": 45,
          "midi": 56,
          "name": "G#3",
          "ticks": 51792,
          "time": 252.63004650000002,
          "velocity": 0.6299212598425197
        },
        {
          "duration": 0.21950015624997832,
          "durationTicks": 45,
          "midi": 44,
          "name": "G#2",
          "ticks": 51840,
          "time": 252.86418000000003,
          "velocity": 0.6299212598425197
        },
        {
          "duration": 0.21950015625000674,
          "durationTicks": 45,
          "midi": 56,
          "name": "G#3",
          "ticks": 51888,
          "time": 253.09831350000002,
          "velocity": 0.6299212598425197
        },
        {
          "duration": 0.21950015625000674,
          "durationTicks": 45,
          "midi": 44,
          "name": "G#2",
          "ticks": 51936,
          "time": 253.33244700000003,
          "velocity": 0.6299212598425197
        },
        {
          "duration": 0.21950015625000674,
          "durationTicks": 45,
          "midi": 56,
          "name": "G#3",
          "ticks": 51984,
          "time": 253.56658050000001,
          "velocity": 0.6299212598425197
        },
        {
          "duration": 0.21950015625000674,
          "durationTicks": 45,
          "midi": 44,
          "name": "G#2",
          "ticks": 52032,
          "time": 253.80071400000003,
          "velocity": 0.6299212598425197
        },
        {
          "duration": 0.21950015625000674,
          "durationTicks": 45,
          "midi": 56,
          "name": "G#3",
          "ticks": 52080,
          "time": 254.0348475,
          "velocity": 0.6299212598425197
        },
        {
          "duration": 0.21950015625000674,
          "durationTicks": 45,
          "midi": 44,
          "name": "G#2",
          "ticks": 52128,
          "time": 254.26898100000003,
          "velocity": 0.6299212598425197
        },
        {
          "duration": 0.21950015624997832,
          "durationTicks": 45,
          "midi": 56,
          "name": "G#3",
          "ticks": 52176,
          "time": 254.50311450000004,
          "velocity": 0.6299212598425197
        },
        {
          "duration": 0.21950015625000674,
          "durationTicks": 45,
          "midi": 46,
          "name": "A#2",
          "ticks": 52224,
          "time": 254.73724800000002,
          "velocity": 0.6299212598425197
        },
        {
          "duration": 0.21950015624997832,
          "durationTicks": 45,
          "midi": 58,
          "name": "A#3",
          "ticks": 52272,
          "time": 254.97138150000004,
          "velocity": 0.6299212598425197
        },
        {
          "duration": 0.21950015625000674,
          "durationTicks": 45,
          "midi": 46,
          "name": "A#2",
          "ticks": 52320,
          "time": 255.20551500000002,
          "velocity": 0.6299212598425197
        },
        {
          "duration": 0.21950015624997832,
          "durationTicks": 45,
          "midi": 58,
          "name": "A#3",
          "ticks": 52368,
          "time": 255.43964850000003,
          "velocity": 0.6299212598425197
        },
        {
          "duration": 0.21950015625000674,
          "durationTicks": 45,
          "midi": 46,
          "name": "A#2",
          "ticks": 52416,
          "time": 255.67378200000002,
          "velocity": 0.6299212598425197
        },
        {
          "duration": 0.21950015625000674,
          "durationTicks": 45,
          "midi": 58,
          "name": "A#3",
          "ticks": 52464,
          "time": 255.90791550000003,
          "velocity": 0.6299212598425197
        },
        {
          "duration": 0.21950015624997832,
          "durationTicks": 45,
          "midi": 46,
          "name": "A#2",
          "ticks": 52512,
          "time": 256.14204900000004,
          "velocity": 0.6299212598425197
        },
        {
          "duration": 0.21950015624997832,
          "durationTicks": 45,
          "midi": 58,
          "name": "A#3",
          "ticks": 52560,
          "time": 256.3761825,
          "velocity": 0.6299212598425197
        },
        {
          "duration": 0.21950015625003516,
          "durationTicks": 45,
          "midi": 46,
          "name": "A#2",
          "ticks": 52608,
          "time": 256.610316,
          "velocity": 0.6299212598425197
        },
        {
          "duration": 0.21950015625003516,
          "durationTicks": 45,
          "midi": 58,
          "name": "A#3",
          "ticks": 52656,
          "time": 256.8444495,
          "velocity": 0.6299212598425197
        },
        {
          "duration": 0.21950015624997832,
          "durationTicks": 45,
          "midi": 46,
          "name": "A#2",
          "ticks": 52704,
          "time": 257.07858300000004,
          "velocity": 0.6299212598425197
        },
        {
          "duration": 0.21950015624997832,
          "durationTicks": 45,
          "midi": 58,
          "name": "A#3",
          "ticks": 52752,
          "time": 257.3127165,
          "velocity": 0.6299212598425197
        },
        {
          "duration": 0.21950015625003516,
          "durationTicks": 45,
          "midi": 46,
          "name": "A#2",
          "ticks": 52800,
          "time": 257.54685,
          "velocity": 0.6299212598425197
        },
        {
          "duration": 0.21950015624997832,
          "durationTicks": 45,
          "midi": 58,
          "name": "A#3",
          "ticks": 52848,
          "time": 257.78098350000005,
          "velocity": 0.6299212598425197
        },
        {
          "duration": 0.21950015624997832,
          "durationTicks": 45,
          "midi": 46,
          "name": "A#2",
          "ticks": 52896,
          "time": 258.01511700000003,
          "velocity": 0.6299212598425197
        },
        {
          "duration": 0.21950015625003516,
          "durationTicks": 45,
          "midi": 58,
          "name": "A#3",
          "ticks": 52944,
          "time": 258.2492505,
          "velocity": 0.6299212598425197
        },
        {
          "duration": 0.21950015625003516,
          "durationTicks": 45,
          "midi": 41,
          "name": "F2",
          "ticks": 52992,
          "time": 258.483384,
          "velocity": 0.6299212598425197
        },
        {
          "duration": 0.21950015624997832,
          "durationTicks": 45,
          "midi": 53,
          "name": "F3",
          "ticks": 53040,
          "time": 258.71751750000004,
          "velocity": 0.6299212598425197
        },
        {
          "duration": 0.21950015624997832,
          "durationTicks": 45,
          "midi": 41,
          "name": "F2",
          "ticks": 53088,
          "time": 258.951651,
          "velocity": 0.6299212598425197
        },
        {
          "duration": 0.21950015625003516,
          "durationTicks": 45,
          "midi": 53,
          "name": "F3",
          "ticks": 53136,
          "time": 259.1857845,
          "velocity": 0.6299212598425197
        },
        {
          "duration": 0.21950015624997832,
          "durationTicks": 45,
          "midi": 41,
          "name": "F2",
          "ticks": 53184,
          "time": 259.41991800000005,
          "velocity": 0.6299212598425197
        },
        {
          "duration": 0.21950015624997832,
          "durationTicks": 45,
          "midi": 53,
          "name": "F3",
          "ticks": 53232,
          "time": 259.65405150000004,
          "velocity": 0.6299212598425197
        },
        {
          "duration": 0.21950015624997832,
          "durationTicks": 45,
          "midi": 41,
          "name": "F2",
          "ticks": 53280,
          "time": 259.888185,
          "velocity": 0.6299212598425197
        },
        {
          "duration": 0.21950015625003516,
          "durationTicks": 45,
          "midi": 53,
          "name": "F3",
          "ticks": 53328,
          "time": 260.1223185,
          "velocity": 0.6299212598425197
        },
        {
          "duration": 0.21950015624997832,
          "durationTicks": 45,
          "midi": 41,
          "name": "F2",
          "ticks": 53376,
          "time": 260.35645200000005,
          "velocity": 0.6299212598425197
        },
        {
          "duration": 0.21950015624997832,
          "durationTicks": 45,
          "midi": 53,
          "name": "F3",
          "ticks": 53424,
          "time": 260.59058550000003,
          "velocity": 0.6299212598425197
        },
        {
          "duration": 0.21950015625003516,
          "durationTicks": 45,
          "midi": 41,
          "name": "F2",
          "ticks": 53472,
          "time": 260.824719,
          "velocity": 0.6299212598425197
        },
        {
          "duration": 0.21950015625003516,
          "durationTicks": 45,
          "midi": 53,
          "name": "F3",
          "ticks": 53520,
          "time": 261.0588525,
          "velocity": 0.6299212598425197
        },
        {
          "duration": 0.21950015624997832,
          "durationTicks": 45,
          "midi": 41,
          "name": "F2",
          "ticks": 53568,
          "time": 261.29298600000004,
          "velocity": 0.6299212598425197
        },
        {
          "duration": 0.21950015624997832,
          "durationTicks": 45,
          "midi": 53,
          "name": "F3",
          "ticks": 53616,
          "time": 261.5271195,
          "velocity": 0.6299212598425197
        },
        {
          "duration": 0.21950015625003516,
          "durationTicks": 45,
          "midi": 41,
          "name": "F2",
          "ticks": 53664,
          "time": 261.761253,
          "velocity": 0.6299212598425197
        },
        {
          "duration": 0.21950015624997832,
          "durationTicks": 45,
          "midi": 53,
          "name": "F3",
          "ticks": 53712,
          "time": 261.99538650000005,
          "velocity": 0.6299212598425197
        },
        {
          "duration": 0.21950015624997832,
          "durationTicks": 45,
          "midi": 41,
          "name": "F2",
          "ticks": 53760,
          "time": 262.22952000000004,
          "velocity": 0.6299212598425197
        },
        {
          "duration": 0.21950015624997832,
          "durationTicks": 45,
          "midi": 48,
          "name": "C3",
          "ticks": 53808,
          "time": 262.4636535,
          "velocity": 0.6299212598425197
        },
        {
          "duration": 0.21950015624997832,
          "durationTicks": 45,
          "midi": 53,
          "name": "F3",
          "ticks": 53808,
          "time": 262.4636535,
          "velocity": 0.6299212598425197
        },
        {
          "duration": 0.21950015625003516,
          "durationTicks": 45,
          "midi": 41,
          "name": "F2",
          "ticks": 53856,
          "time": 262.697787,
          "velocity": 0.6299212598425197
        },
        {
          "duration": 0.21950015624997832,
          "durationTicks": 45,
          "midi": 48,
          "name": "C3",
          "ticks": 53904,
          "time": 262.93192050000005,
          "velocity": 0.6299212598425197
        },
        {
          "duration": 0.21950015624997832,
          "durationTicks": 45,
          "midi": 53,
          "name": "F3",
          "ticks": 53904,
          "time": 262.93192050000005,
          "velocity": 0.6299212598425197
        },
        {
          "duration": 0.21950015624997832,
          "durationTicks": 45,
          "midi": 41,
          "name": "F2",
          "ticks": 53952,
          "time": 263.16605400000003,
          "velocity": 0.6299212598425197
        },
        {
          "duration": 0.21950015625003516,
          "durationTicks": 45,
          "midi": 48,
          "name": "C3",
          "ticks": 54000,
          "time": 263.4001875,
          "velocity": 0.6299212598425197
        },
        {
          "duration": 0.21950015625003516,
          "durationTicks": 45,
          "midi": 53,
          "name": "F3",
          "ticks": 54000,
          "time": 263.4001875,
          "velocity": 0.6299212598425197
        },
        {
          "duration": 0.21950015625003516,
          "durationTicks": 45,
          "midi": 41,
          "name": "F2",
          "ticks": 54048,
          "time": 263.634321,
          "velocity": 0.6299212598425197
        },
        {
          "duration": 0.21950015624997832,
          "durationTicks": 45,
          "midi": 48,
          "name": "C3",
          "ticks": 54096,
          "time": 263.86845450000004,
          "velocity": 0.6299212598425197
        },
        {
          "duration": 0.21950015624997832,
          "durationTicks": 45,
          "midi": 53,
          "name": "F3",
          "ticks": 54096,
          "time": 263.86845450000004,
          "velocity": 0.6299212598425197
        },
        {
          "duration": 0.21950015624997832,
          "durationTicks": 45,
          "midi": 41,
          "name": "F2",
          "ticks": 54144,
          "time": 264.102588,
          "velocity": 0.6299212598425197
        },
        {
          "duration": 0.21950015625003516,
          "durationTicks": 45,
          "midi": 53,
          "name": "F3",
          "ticks": 54192,
          "time": 264.3367215,
          "velocity": 0.6299212598425197
        },
        {
          "duration": 0.21950015624997832,
          "durationTicks": 45,
          "midi": 41,
          "name": "F2",
          "ticks": 54240,
          "time": 264.57085500000005,
          "velocity": 0.6299212598425197
        },
        {
          "duration": 0.21950015624997832,
          "durationTicks": 45,
          "midi": 53,
          "name": "F3",
          "ticks": 54288,
          "time": 264.80498850000004,
          "velocity": 0.6299212598425197
        },
        {
          "duration": 0.21950015624997832,
          "durationTicks": 45,
          "midi": 41,
          "name": "F2",
          "ticks": 54336,
          "time": 265.039122,
          "velocity": 0.6299212598425197
        },
        {
          "duration": 0.21950015625003516,
          "durationTicks": 45,
          "midi": 53,
          "name": "F3",
          "ticks": 54384,
          "time": 265.2732555,
          "velocity": 0.6299212598425197
        },
        {
          "duration": 0.21950015624997832,
          "durationTicks": 45,
          "midi": 41,
          "name": "F2",
          "ticks": 54432,
          "time": 265.50738900000005,
          "velocity": 0.6299212598425197
        },
        {
          "duration": 0.21950015624997832,
          "durationTicks": 45,
          "midi": 53,
          "name": "F3",
          "ticks": 54480,
          "time": 265.74152250000003,
          "velocity": 0.6299212598425197
        },
        {
          "duration": 0.21950015625003516,
          "durationTicks": 45,
          "midi": 44,
          "name": "G#2",
          "ticks": 54528,
          "time": 265.975656,
          "velocity": 0.6299212598425197
        },
        {
          "duration": 0.21950015625003516,
          "durationTicks": 45,
          "midi": 51,
          "name": "D#3",
          "ticks": 54576,
          "time": 266.2097895,
          "velocity": 0.6299212598425197
        },
        {
          "duration": 0.21950015625003516,
          "durationTicks": 45,
          "midi": 56,
          "name": "G#3",
          "ticks": 54576,
          "time": 266.2097895,
          "velocity": 0.6299212598425197
        },
        {
          "duration": 0.21950015624997832,
          "durationTicks": 45,
          "midi": 44,
          "name": "G#2",
          "ticks": 54624,
          "time": 266.44392300000004,
          "velocity": 0.6299212598425197
        },
        {
          "duration": 0.21950015624997832,
          "durationTicks": 45,
          "midi": 51,
          "name": "D#3",
          "ticks": 54672,
          "time": 266.6780565,
          "velocity": 0.6299212598425197
        },
        {
          "duration": 0.21950015624997832,
          "durationTicks": 45,
          "midi": 56,
          "name": "G#3",
          "ticks": 54672,
          "time": 266.6780565,
          "velocity": 0.6299212598425197
        },
        {
          "duration": 0.21950015625003516,
          "durationTicks": 45,
          "midi": 44,
          "name": "G#2",
          "ticks": 54720,
          "time": 266.91219,
          "velocity": 0.6299212598425197
        },
        {
          "duration": 0.21950015624997832,
          "durationTicks": 45,
          "midi": 51,
          "name": "D#3",
          "ticks": 54768,
          "time": 267.14632350000005,
          "velocity": 0.6299212598425197
        },
        {
          "duration": 0.21950015624997832,
          "durationTicks": 45,
          "midi": 56,
          "name": "G#3",
          "ticks": 54768,
          "time": 267.14632350000005,
          "velocity": 0.6299212598425197
        },
        {
          "duration": 0.21950015624997832,
          "durationTicks": 45,
          "midi": 44,
          "name": "G#2",
          "ticks": 54816,
          "time": 267.38045700000004,
          "velocity": 0.6299212598425197
        },
        {
          "duration": 0.21950015624997832,
          "durationTicks": 45,
          "midi": 51,
          "name": "D#3",
          "ticks": 54864,
          "time": 267.6145905,
          "velocity": 0.6299212598425197
        },
        {
          "duration": 0.21950015624997832,
          "durationTicks": 45,
          "midi": 56,
          "name": "G#3",
          "ticks": 54864,
          "time": 267.6145905,
          "velocity": 0.6299212598425197
        },
        {
          "duration": 0.21950015625003516,
          "durationTicks": 45,
          "midi": 44,
          "name": "G#2",
          "ticks": 54912,
          "time": 267.848724,
          "velocity": 0.6299212598425197
        },
        {
          "duration": 0.21950015624997832,
          "durationTicks": 45,
          "midi": 56,
          "name": "G#3",
          "ticks": 54960,
          "time": 268.08285750000005,
          "velocity": 0.6299212598425197
        },
        {
          "duration": 0.21950015624997832,
          "durationTicks": 45,
          "midi": 44,
          "name": "G#2",
          "ticks": 55008,
          "time": 268.31699100000003,
          "velocity": 0.6299212598425197
        },
        {
          "duration": 0.21950015625003516,
          "durationTicks": 45,
          "midi": 56,
          "name": "G#3",
          "ticks": 55056,
          "time": 268.5511245,
          "velocity": 0.6299212598425197
        },
        {
          "duration": 0.21950015625003516,
          "durationTicks": 45,
          "midi": 44,
          "name": "G#2",
          "ticks": 55104,
          "time": 268.785258,
          "velocity": 0.6299212598425197
        },
        {
          "duration": 0.21950015624997832,
          "durationTicks": 45,
          "midi": 56,
          "name": "G#3",
          "ticks": 55152,
          "time": 269.01939150000004,
          "velocity": 0.6299212598425197
        },
        {
          "duration": 0.21950015624997832,
          "durationTicks": 45,
          "midi": 44,
          "name": "G#2",
          "ticks": 55200,
          "time": 269.253525,
          "velocity": 0.6299212598425197
        },
        {
          "duration": 0.21950015625003516,
          "durationTicks": 45,
          "midi": 56,
          "name": "G#3",
          "ticks": 55248,
          "time": 269.4876585,
          "velocity": 0.6299212598425197
        },
        {
          "duration": 0.21950015624997832,
          "durationTicks": 45,
          "midi": 46,
          "name": "A#2",
          "ticks": 55296,
          "time": 269.72179200000005,
          "velocity": 0.6299212598425197
        },
        {
          "duration": 0.21950015624997832,
          "durationTicks": 45,
          "midi": 53,
          "name": "F3",
          "ticks": 55344,
          "time": 269.95592550000003,
          "velocity": 0.6299212598425197
        },
        {
          "duration": 0.21950015624997832,
          "durationTicks": 45,
          "midi": 58,
          "name": "A#3",
          "ticks": 55344,
          "time": 269.95592550000003,
          "velocity": 0.6299212598425197
        },
        {
          "duration": 0.21950015624997832,
          "durationTicks": 45,
          "midi": 46,
          "name": "A#2",
          "ticks": 55392,
          "time": 270.190059,
          "velocity": 0.6299212598425197
        },
        {
          "duration": 0.21950015625003516,
          "durationTicks": 45,
          "midi": 53,
          "name": "F3",
          "ticks": 55440,
          "time": 270.4241925,
          "velocity": 0.6299212598425197
        },
        {
          "duration": 0.21950015625003516,
          "durationTicks": 45,
          "midi": 58,
          "name": "A#3",
          "ticks": 55440,
          "time": 270.4241925,
          "velocity": 0.6299212598425197
        },
        {
          "duration": 0.21950015624997832,
          "durationTicks": 45,
          "midi": 46,
          "name": "A#2",
          "ticks": 55488,
          "time": 270.65832600000005,
          "velocity": 0.6299212598425197
        },
        {
          "duration": 0.21950015624997832,
          "durationTicks": 45,
          "midi": 53,
          "name": "F3",
          "ticks": 55536,
          "time": 270.89245950000003,
          "velocity": 0.6299212598425197
        },
        {
          "duration": 0.21950015624997832,
          "durationTicks": 45,
          "midi": 58,
          "name": "A#3",
          "ticks": 55536,
          "time": 270.89245950000003,
          "velocity": 0.6299212598425197
        },
        {
          "duration": 0.21950015625003516,
          "durationTicks": 45,
          "midi": 46,
          "name": "A#2",
          "ticks": 55584,
          "time": 271.126593,
          "velocity": 0.6299212598425197
        },
        {
          "duration": 0.21950015625003516,
          "durationTicks": 45,
          "midi": 53,
          "name": "F3",
          "ticks": 55632,
          "time": 271.3607265,
          "velocity": 0.6299212598425197
        },
        {
          "duration": 0.21950015625003516,
          "durationTicks": 45,
          "midi": 58,
          "name": "A#3",
          "ticks": 55632,
          "time": 271.3607265,
          "velocity": 0.6299212598425197
        },
        {
          "duration": 0.21950015624997832,
          "durationTicks": 45,
          "midi": 46,
          "name": "A#2",
          "ticks": 55680,
          "time": 271.59486000000004,
          "velocity": 0.6299212598425197
        },
        {
          "duration": 0.21950015624997832,
          "durationTicks": 45,
          "midi": 53,
          "name": "F3",
          "ticks": 55728,
          "time": 271.8289935,
          "velocity": 0.6299212598425197
        },
        {
          "duration": 0.21950015624997832,
          "durationTicks": 45,
          "midi": 58,
          "name": "A#3",
          "ticks": 55728,
          "time": 271.8289935,
          "velocity": 0.6299212598425197
        },
        {
          "duration": 0.21950015625003516,
          "durationTicks": 45,
          "midi": 46,
          "name": "A#2",
          "ticks": 55776,
          "time": 272.063127,
          "velocity": 0.6299212598425197
        },
        {
          "duration": 0.21950015624997832,
          "durationTicks": 45,
          "midi": 58,
          "name": "A#3",
          "ticks": 55824,
          "time": 272.29726050000005,
          "velocity": 0.6299212598425197
        },
        {
          "duration": 0.21950015624997832,
          "durationTicks": 45,
          "midi": 53,
          "name": "F3",
          "ticks": 55824,
          "time": 272.29726050000005,
          "velocity": 0.6299212598425197
        },
        {
          "duration": 0.21950015624997832,
          "durationTicks": 45,
          "midi": 46,
          "name": "A#2",
          "ticks": 55872,
          "time": 272.53139400000003,
          "velocity": 0.6299212598425197
        },
        {
          "duration": 0.21950015625003516,
          "durationTicks": 45,
          "midi": 58,
          "name": "A#3",
          "ticks": 55920,
          "time": 272.7655275,
          "velocity": 0.6299212598425197
        },
        {
          "duration": 0.21950015625003516,
          "durationTicks": 45,
          "midi": 53,
          "name": "F3",
          "ticks": 55920,
          "time": 272.7655275,
          "velocity": 0.6299212598425197
        },
        {
          "duration": 0.21950015625003516,
          "durationTicks": 45,
          "midi": 46,
          "name": "A#2",
          "ticks": 55968,
          "time": 272.999661,
          "velocity": 0.6299212598425197
        },
        {
          "duration": 0.21950015624997832,
          "durationTicks": 45,
          "midi": 58,
          "name": "A#3",
          "ticks": 56016,
          "time": 273.23379450000004,
          "velocity": 0.6299212598425197
        },
        {
          "duration": 0.21950015624997832,
          "durationTicks": 45,
          "midi": 53,
          "name": "F3",
          "ticks": 56016,
          "time": 273.23379450000004,
          "velocity": 0.6299212598425197
        },
        {
          "duration": 0.6633782499999938,
          "durationTicks": 136,
          "midi": 41,
          "name": "F2",
          "ticks": 56064,
          "time": 273.46792800000003,
          "velocity": 0.6299212598425197
        },
        {
          "duration": 0.6633782499999938,
          "durationTicks": 136,
          "midi": 29,
          "name": "F1",
          "ticks": 56064,
          "time": 273.46792800000003,
          "velocity": 0.6299212598425197
        },
        {
          "duration": 0.887756187500031,
          "durationTicks": 182,
          "midi": 42,
          "name": "F#2",
          "ticks": 56208,
          "time": 274.17032850000004,
          "velocity": 0.6299212598425197
        },
        {
          "duration": 0.887756187500031,
          "durationTicks": 182,
          "midi": 30,
          "name": "F#1",
          "ticks": 56208,
          "time": 274.17032850000004,
          "velocity": 0.6299212598425197
        },
        {
          "duration": 0.6633782499999938,
          "durationTicks": 136,
          "midi": 43,
          "name": "G2",
          "ticks": 56448,
          "time": 275.340996,
          "velocity": 0.6299212598425197
        },
        {
          "duration": 0.6633782499999938,
          "durationTicks": 136,
          "midi": 31,
          "name": "G1",
          "ticks": 56448,
          "time": 275.340996,
          "velocity": 0.6299212598425197
        },
        {
          "duration": 0.887756187500031,
          "durationTicks": 182,
          "midi": 48,
          "name": "C3",
          "ticks": 56592,
          "time": 276.04339650000003,
          "velocity": 0.6299212598425197
        },
        {
          "duration": 0.887756187500031,
          "durationTicks": 182,
          "midi": 36,
          "name": "C2",
          "ticks": 56592,
          "time": 276.04339650000003,
          "velocity": 0.6299212598425197
        },
        {
          "duration": 0.0048777812500020445,
          "durationTicks": 1,
          "midi": 64,
          "name": "E4",
          "ticks": 56784,
          "time": 276.9799305,
          "velocity": 0.6299212598425197
        },
        {
          "duration": 0.009755562500004089,
          "durationTicks": 2,
          "midi": 63,
          "name": "D#4",
          "ticks": 56785,
          "time": 276.98480828125,
          "velocity": 0.6299212598425197
        },
        {
          "duration": 0.009755562500004089,
          "durationTicks": 2,
          "midi": 62,
          "name": "D4",
          "ticks": 56787,
          "time": 276.99456384375003,
          "velocity": 0.6299212598425197
        },
        {
          "duration": 0.004877781249945201,
          "durationTicks": 1,
          "midi": 61,
          "name": "C#4",
          "ticks": 56790,
          "time": 277.00919718750004,
          "velocity": 0.6299212598425197
        },
        {
          "duration": 0.009755562500060933,
          "durationTicks": 2,
          "midi": 60,
          "name": "C4",
          "ticks": 56791,
          "time": 277.01407496875,
          "velocity": 0.6299212598425197
        },
        {
          "duration": 0.009755562500004089,
          "durationTicks": 2,
          "midi": 59,
          "name": "B3",
          "ticks": 56793,
          "time": 277.02383053125004,
          "velocity": 0.6299212598425197
        },
        {
          "duration": 0.004877781249945201,
          "durationTicks": 1,
          "midi": 58,
          "name": "A#3",
          "ticks": 56796,
          "time": 277.03846387500005,
          "velocity": 0.6299212598425197
        },
        {
          "duration": 0.009755562500060933,
          "durationTicks": 2,
          "midi": 57,
          "name": "A3",
          "ticks": 56797,
          "time": 277.04334165625,
          "velocity": 0.6299212598425197
        },
        {
          "duration": 0.009755562500004089,
          "durationTicks": 2,
          "midi": 56,
          "name": "G#3",
          "ticks": 56800,
          "time": 277.057975,
          "velocity": 0.6299212598425197
        },
        {
          "duration": 0.0048777812500020445,
          "durationTicks": 1,
          "midi": 55,
          "name": "G3",
          "ticks": 56805,
          "time": 277.08236390625,
          "velocity": 0.6299212598425197
        },
        {
          "duration": 0.009755562500004089,
          "durationTicks": 2,
          "midi": 54,
          "name": "F#3",
          "ticks": 56806,
          "time": 277.0872416875,
          "velocity": 0.6299212598425197
        },
        {
          "duration": 0.009755562500004089,
          "durationTicks": 2,
          "midi": 53,
          "name": "F3",
          "ticks": 56809,
          "time": 277.10187503125,
          "velocity": 0.6299212598425197
        },
        {
          "duration": 0.009755562500004089,
          "durationTicks": 2,
          "midi": 51,
          "name": "D#3",
          "ticks": 56814,
          "time": 277.1262639375,
          "velocity": 0.6299212598425197
        },
        {
          "duration": 0.0048777812500020445,
          "durationTicks": 1,
          "midi": 52,
          "name": "E3",
          "ticks": 56814,
          "time": 277.1262639375,
          "velocity": 0.6299212598425197
        },
        {
          "duration": 0.009755562500004089,
          "durationTicks": 2,
          "midi": 50,
          "name": "D3",
          "ticks": 56815,
          "time": 277.13114171875003,
          "velocity": 0.6299212598425197
        },
        {
          "duration": 0.009755562500004089,
          "durationTicks": 2,
          "midi": 48,
          "name": "C3",
          "ticks": 56817,
          "time": 277.14089728125003,
          "velocity": 0.6299212598425197
        },
        {
          "duration": 0.0048777812500020445,
          "durationTicks": 1,
          "midi": 49,
          "name": "C#3",
          "ticks": 56817,
          "time": 277.14089728125003,
          "velocity": 0.6299212598425197
        },
        {
          "duration": 0.009755562500004089,
          "durationTicks": 2,
          "midi": 47,
          "name": "B2",
          "ticks": 56818,
          "time": 277.14577506250004,
          "velocity": 0.6299212598425197
        },
        {
          "duration": 0.004877781249945201,
          "durationTicks": 1,
          "midi": 46,
          "name": "A#2",
          "ticks": 56820,
          "time": 277.15553062500004,
          "velocity": 0.6299212598425197
        },
        {
          "duration": 0.009755562500060933,
          "durationTicks": 2,
          "midi": 45,
          "name": "A2",
          "ticks": 56821,
          "time": 277.16040840625,
          "velocity": 0.6299212598425197
        },
        {
          "duration": 0.009755562500004089,
          "durationTicks": 2,
          "midi": 44,
          "name": "G#2",
          "ticks": 56823,
          "time": 277.17016396875005,
          "velocity": 0.6299212598425197
        },
        {
          "duration": 0.004877781249945201,
          "durationTicks": 1,
          "midi": 43,
          "name": "G2",
          "ticks": 56826,
          "time": 277.18479731250005,
          "velocity": 0.6299212598425197
        },
        {
          "duration": 0.01951112500006502,
          "durationTicks": 4,
          "midi": 42,
          "name": "F#2",
          "ticks": 56827,
          "time": 277.18967509375,
          "velocity": 0.6299212598425197
        },
        {
          "duration": 0.21950015625003516,
          "durationTicks": 45,
          "midi": 41,
          "name": "F2",
          "ticks": 56832,
          "time": 277.214064,
          "velocity": 0.6299212598425197
        },
        {
          "duration": 0.21950015624997832,
          "durationTicks": 45,
          "midi": 53,
          "name": "F3",
          "ticks": 56880,
          "time": 277.44819750000005,
          "velocity": 0.6299212598425197
        },
        {
          "duration": 0.21950015624997832,
          "durationTicks": 45,
          "midi": 48,
          "name": "C3",
          "ticks": 56880,
          "time": 277.44819750000005,
          "velocity": 0.6299212598425197
        },
        {
          "duration": 0.21950015624997832,
          "durationTicks": 45,
          "midi": 41,
          "name": "F2",
          "ticks": 56928,
          "time": 277.68233100000003,
          "velocity": 0.6299212598425197
        },
        {
          "duration": 0.21950015625003516,
          "durationTicks": 45,
          "midi": 53,
          "name": "F3",
          "ticks": 56976,
          "time": 277.9164645,
          "velocity": 0.6299212598425197
        },
        {
          "duration": 0.21950015625003516,
          "durationTicks": 45,
          "midi": 48,
          "name": "C3",
          "ticks": 56976,
          "time": 277.9164645,
          "velocity": 0.6299212598425197
        },
        {
          "duration": 0.21950015625003516,
          "durationTicks": 45,
          "midi": 41,
          "name": "F2",
          "ticks": 57024,
          "time": 278.150598,
          "velocity": 0.6299212598425197
        },
        {
          "duration": 0.21950015624997832,
          "durationTicks": 45,
          "midi": 53,
          "name": "F3",
          "ticks": 57072,
          "time": 278.38473150000004,
          "velocity": 0.6299212598425197
        },
        {
          "duration": 0.21950015624997832,
          "durationTicks": 45,
          "midi": 48,
          "name": "C3",
          "ticks": 57072,
          "time": 278.38473150000004,
          "velocity": 0.6299212598425197
        },
        {
          "duration": 0.21950015624997832,
          "durationTicks": 45,
          "midi": 41,
          "name": "F2",
          "ticks": 57120,
          "time": 278.618865,
          "velocity": 0.6299212598425197
        },
        {
          "duration": 0.21950015625003516,
          "durationTicks": 45,
          "midi": 53,
          "name": "F3",
          "ticks": 57168,
          "time": 278.8529985,
          "velocity": 0.6299212598425197
        },
        {
          "duration": 0.21950015625003516,
          "durationTicks": 45,
          "midi": 48,
          "name": "C3",
          "ticks": 57168,
          "time": 278.8529985,
          "velocity": 0.6299212598425197
        },
        {
          "duration": 0.21950015624997832,
          "durationTicks": 45,
          "midi": 41,
          "name": "F2",
          "ticks": 57216,
          "time": 279.08713200000005,
          "velocity": 0.6299212598425197
        },
        {
          "duration": 0.21950015624997832,
          "durationTicks": 45,
          "midi": 53,
          "name": "F3",
          "ticks": 57264,
          "time": 279.32126550000004,
          "velocity": 0.6299212598425197
        },
        {
          "duration": 0.21950015624997832,
          "durationTicks": 45,
          "midi": 41,
          "name": "F2",
          "ticks": 57312,
          "time": 279.555399,
          "velocity": 0.6299212598425197
        },
        {
          "duration": 0.21950015625003516,
          "durationTicks": 45,
          "midi": 53,
          "name": "F3",
          "ticks": 57360,
          "time": 279.7895325,
          "velocity": 0.6299212598425197
        },
        {
          "duration": 0.21950015624997832,
          "durationTicks": 45,
          "midi": 41,
          "name": "F2",
          "ticks": 57408,
          "time": 280.02366600000005,
          "velocity": 0.6299212598425197
        },
        {
          "duration": 0.21950015624997832,
          "durationTicks": 45,
          "midi": 53,
          "name": "F3",
          "ticks": 57456,
          "time": 280.25779950000003,
          "velocity": 0.6299212598425197
        },
        {
          "duration": 0.21950015625003516,
          "durationTicks": 45,
          "midi": 41,
          "name": "F2",
          "ticks": 57504,
          "time": 280.491933,
          "velocity": 0.6299212598425197
        },
        {
          "duration": 0.21950015625003516,
          "durationTicks": 45,
          "midi": 53,
          "name": "F3",
          "ticks": 57552,
          "time": 280.7260665,
          "velocity": 0.6299212598425197
        },
        {
          "duration": 0.21950015624997832,
          "durationTicks": 45,
          "midi": 44,
          "name": "G#2",
          "ticks": 57600,
          "time": 280.96020000000004,
          "velocity": 0.6299212598425197
        },
        {
          "duration": 0.21950015624997832,
          "durationTicks": 45,
          "midi": 56,
          "name": "G#3",
          "ticks": 57648,
          "time": 281.1943335,
          "velocity": 0.6299212598425197
        },
        {
          "duration": 0.21950015624997832,
          "durationTicks": 45,
          "midi": 51,
          "name": "D#3",
          "ticks": 57648,
          "time": 281.1943335,
          "velocity": 0.6299212598425197
        },
        {
          "duration": 0.21950015625003516,
          "durationTicks": 45,
          "midi": 44,
          "name": "G#2",
          "ticks": 57696,
          "time": 281.428467,
          "velocity": 0.6299212598425197
        },
        {
          "duration": 0.21950015624997832,
          "durationTicks": 45,
          "midi": 56,
          "name": "G#3",
          "ticks": 57744,
          "time": 281.66260050000005,
          "velocity": 0.6299212598425197
        },
        {
          "duration": 0.21950015624997832,
          "durationTicks": 45,
          "midi": 51,
          "name": "D#3",
          "ticks": 57744,
          "time": 281.66260050000005,
          "velocity": 0.6299212598425197
        },
        {
          "duration": 0.21950015624997832,
          "durationTicks": 45,
          "midi": 44,
          "name": "G#2",
          "ticks": 57792,
          "time": 281.89673400000004,
          "velocity": 0.6299212598425197
        },
        {
          "duration": 0.21950015624997832,
          "durationTicks": 45,
          "midi": 56,
          "name": "G#3",
          "ticks": 57840,
          "time": 282.1308675,
          "velocity": 0.6299212598425197
        },
        {
          "duration": 0.21950015624997832,
          "durationTicks": 45,
          "midi": 51,
          "name": "D#3",
          "ticks": 57840,
          "time": 282.1308675,
          "velocity": 0.6299212598425197
        },
        {
          "duration": 0.21950015625003516,
          "durationTicks": 45,
          "midi": 44,
          "name": "G#2",
          "ticks": 57888,
          "time": 282.365001,
          "velocity": 0.6299212598425197
        },
        {
          "duration": 0.21950015624997832,
          "durationTicks": 45,
          "midi": 56,
          "name": "G#3",
          "ticks": 57936,
          "time": 282.59913450000005,
          "velocity": 0.6299212598425197
        },
        {
          "duration": 0.21950015624997832,
          "durationTicks": 45,
          "midi": 51,
          "name": "D#3",
          "ticks": 57936,
          "time": 282.59913450000005,
          "velocity": 0.6299212598425197
        },
        {
          "duration": 0.21950015624997832,
          "durationTicks": 45,
          "midi": 44,
          "name": "G#2",
          "ticks": 57984,
          "time": 282.83326800000003,
          "velocity": 0.6299212598425197
        },
        {
          "duration": 0.21950015625003516,
          "durationTicks": 45,
          "midi": 56,
          "name": "G#3",
          "ticks": 58032,
          "time": 283.0674015,
          "velocity": 0.6299212598425197
        },
        {
          "duration": 0.21950015625003516,
          "durationTicks": 45,
          "midi": 44,
          "name": "G#2",
          "ticks": 58080,
          "time": 283.301535,
          "velocity": 0.6299212598425197
        },
        {
          "duration": 0.21950015624997832,
          "durationTicks": 45,
          "midi": 56,
          "name": "G#3",
          "ticks": 58128,
          "time": 283.53566850000004,
          "velocity": 0.6299212598425197
        },
        {
          "duration": 0.21950015624997832,
          "durationTicks": 45,
          "midi": 44,
          "name": "G#2",
          "ticks": 58176,
          "time": 283.769802,
          "velocity": 0.6299212598425197
        },
        {
          "duration": 0.21950015625003516,
          "durationTicks": 45,
          "midi": 56,
          "name": "G#3",
          "ticks": 58224,
          "time": 284.0039355,
          "velocity": 0.6299212598425197
        },
        {
          "duration": 0.21950015624997832,
          "durationTicks": 45,
          "midi": 44,
          "name": "G#2",
          "ticks": 58272,
          "time": 284.23806900000005,
          "velocity": 0.6299212598425197
        },
        {
          "duration": 0.21950015624997832,
          "durationTicks": 45,
          "midi": 56,
          "name": "G#3",
          "ticks": 58320,
          "time": 284.47220250000004,
          "velocity": 0.6299212598425197
        },
        {
          "duration": 0.21950015624997832,
          "durationTicks": 45,
          "midi": 46,
          "name": "A#2",
          "ticks": 58368,
          "time": 284.706336,
          "velocity": 0.6299212598425197
        },
        {
          "duration": 0.21950015625003516,
          "durationTicks": 45,
          "midi": 58,
          "name": "A#3",
          "ticks": 58416,
          "time": 284.9404695,
          "velocity": 0.6299212598425197
        },
        {
          "duration": 0.21950015625003516,
          "durationTicks": 45,
          "midi": 53,
          "name": "F3",
          "ticks": 58416,
          "time": 284.9404695,
          "velocity": 0.6299212598425197
        },
        {
          "duration": 0.21950015624997832,
          "durationTicks": 45,
          "midi": 46,
          "name": "A#2",
          "ticks": 58464,
          "time": 285.17460300000005,
          "velocity": 0.6299212598425197
        },
        {
          "duration": 0.21950015624997832,
          "durationTicks": 45,
          "midi": 58,
          "name": "A#3",
          "ticks": 58512,
          "time": 285.40873650000003,
          "velocity": 0.6299212598425197
        },
        {
          "duration": 0.21950015624997832,
          "durationTicks": 45,
          "midi": 53,
          "name": "F3",
          "ticks": 58512,
          "time": 285.40873650000003,
          "velocity": 0.6299212598425197
        },
        {
          "duration": 0.21950015625003516,
          "durationTicks": 45,
          "midi": 46,
          "name": "A#2",
          "ticks": 58560,
          "time": 285.64287,
          "velocity": 0.6299212598425197
        },
        {
          "duration": 0.21950015625003516,
          "durationTicks": 45,
          "midi": 58,
          "name": "A#3",
          "ticks": 58608,
          "time": 285.8770035,
          "velocity": 0.6299212598425197
        },
        {
          "duration": 0.21950015625003516,
          "durationTicks": 45,
          "midi": 53,
          "name": "F3",
          "ticks": 58608,
          "time": 285.8770035,
          "velocity": 0.6299212598425197
        },
        {
          "duration": 0.21950015624997832,
          "durationTicks": 45,
          "midi": 46,
          "name": "A#2",
          "ticks": 58656,
          "time": 286.11113700000004,
          "velocity": 0.6299212598425197
        },
        {
          "duration": 0.21950015624997832,
          "durationTicks": 45,
          "midi": 58,
          "name": "A#3",
          "ticks": 58704,
          "time": 286.3452705,
          "velocity": 0.6299212598425197
        },
        {
          "duration": 0.21950015624997832,
          "durationTicks": 45,
          "midi": 53,
          "name": "F3",
          "ticks": 58704,
          "time": 286.3452705,
          "velocity": 0.6299212598425197
        },
        {
          "duration": 0.21950015625003516,
          "durationTicks": 45,
          "midi": 46,
          "name": "A#2",
          "ticks": 58752,
          "time": 286.579404,
          "velocity": 0.6299212598425197
        },
        {
          "duration": 0.21950015624997832,
          "durationTicks": 45,
          "midi": 58,
          "name": "A#3",
          "ticks": 58800,
          "time": 286.81353750000005,
          "velocity": 0.6299212598425197
        },
        {
          "duration": 0.21950015624997832,
          "durationTicks": 45,
          "midi": 46,
          "name": "A#2",
          "ticks": 58848,
          "time": 287.04767100000004,
          "velocity": 0.6299212598425197
        },
        {
          "duration": 0.21950015624997832,
          "durationTicks": 45,
          "midi": 58,
          "name": "A#3",
          "ticks": 58896,
          "time": 287.2818045,
          "velocity": 0.6299212598425197
        },
        {
          "duration": 0.21950015625003516,
          "durationTicks": 45,
          "midi": 46,
          "name": "A#2",
          "ticks": 58944,
          "time": 287.515938,
          "velocity": 0.6299212598425197
        },
        {
          "duration": 0.21950015624997832,
          "durationTicks": 45,
          "midi": 58,
          "name": "A#3",
          "ticks": 58992,
          "time": 287.75007150000005,
          "velocity": 0.6299212598425197
        },
        {
          "duration": 0.887756187500031,
          "durationTicks": 182,
          "midi": 58,
          "name": "A#3",
          "ticks": 59040,
          "time": 287.98420500000003,
          "velocity": 0.6299212598425197
        },
        {
          "duration": 0.887756187500031,
          "durationTicks": 182,
          "midi": 46,
          "name": "A#2",
          "ticks": 59040,
          "time": 287.98420500000003,
          "velocity": 0.6299212598425197
        },
        {
          "duration": 3.112024437499997,
          "durationTicks": 638,
          "midi": 29,
          "name": "F1",
          "ticks": 59232,
          "time": 288.920739,
          "velocity": 0.6299212598425197
        },
        {
          "duration": 3.112024437499997,
          "durationTicks": 638,
          "midi": 41,
          "name": "F2",
          "ticks": 59262,
          "time": 289.06707243750003,
          "velocity": 0.6299212598425197
        },
        {
          "duration": 0.21950015624997832,
          "durationTicks": 45,
          "midi": 41,
          "name": "F2",
          "ticks": 59904,
          "time": 292.19860800000004,
          "velocity": 0.6299212598425197
        },
        {
          "duration": 0.21950015625003516,
          "durationTicks": 45,
          "midi": 48,
          "name": "C3",
          "ticks": 59952,
          "time": 292.4327415,
          "velocity": 0.6299212598425197
        },
        {
          "duration": 0.21950015625003516,
          "durationTicks": 45,
          "midi": 53,
          "name": "F3",
          "ticks": 59952,
          "time": 292.4327415,
          "velocity": 0.6299212598425197
        },
        {
          "duration": 0.21950015625003516,
          "durationTicks": 45,
          "midi": 41,
          "name": "F2",
          "ticks": 60000,
          "time": 292.666875,
          "velocity": 0.6299212598425197
        },
        {
          "duration": 0.21950015624997832,
          "durationTicks": 45,
          "midi": 48,
          "name": "C3",
          "ticks": 60048,
          "time": 292.90100850000005,
          "velocity": 0.6299212598425197
        },
        {
          "duration": 0.21950015624997832,
          "durationTicks": 45,
          "midi": 53,
          "name": "F3",
          "ticks": 60048,
          "time": 292.90100850000005,
          "velocity": 0.6299212598425197
        },
        {
          "duration": 0.21950015624997832,
          "durationTicks": 45,
          "midi": 41,
          "name": "F2",
          "ticks": 60096,
          "time": 293.13514200000003,
          "velocity": 0.6299212598425197
        },
        {
          "duration": 0.21950015625003516,
          "durationTicks": 45,
          "midi": 48,
          "name": "C3",
          "ticks": 60144,
          "time": 293.3692755,
          "velocity": 0.6299212598425197
        },
        {
          "duration": 0.21950015625003516,
          "durationTicks": 45,
          "midi": 53,
          "name": "F3",
          "ticks": 60144,
          "time": 293.3692755,
          "velocity": 0.6299212598425197
        },
        {
          "duration": 0.21950015624997832,
          "durationTicks": 45,
          "midi": 41,
          "name": "F2",
          "ticks": 60192,
          "time": 293.60340900000006,
          "velocity": 0.6299212598425197
        },
        {
          "duration": 0.21950015624997832,
          "durationTicks": 45,
          "midi": 48,
          "name": "C3",
          "ticks": 60240,
          "time": 293.83754250000004,
          "velocity": 0.6299212598425197
        },
        {
          "duration": 0.21950015624997832,
          "durationTicks": 45,
          "midi": 53,
          "name": "F3",
          "ticks": 60240,
          "time": 293.83754250000004,
          "velocity": 0.6299212598425197
        },
        {
          "duration": 0.21950015624997832,
          "durationTicks": 45,
          "midi": 44,
          "name": "G#2",
          "ticks": 60288,
          "time": 294.071676,
          "velocity": 0.6299212598425197
        },
        {
          "duration": 0.21950015625003516,
          "durationTicks": 45,
          "midi": 51,
          "name": "D#3",
          "ticks": 60336,
          "time": 294.3058095,
          "velocity": 0.6299212598425197
        },
        {
          "duration": 0.21950015625003516,
          "durationTicks": 45,
          "midi": 56,
          "name": "G#3",
          "ticks": 60336,
          "time": 294.3058095,
          "velocity": 0.6299212598425197
        },
        {
          "duration": 0.21950015624997832,
          "durationTicks": 45,
          "midi": 44,
          "name": "G#2",
          "ticks": 60384,
          "time": 294.53994300000005,
          "velocity": 0.6299212598425197
        },
        {
          "duration": 0.21950015624997832,
          "durationTicks": 45,
          "midi": 51,
          "name": "D#3",
          "ticks": 60432,
          "time": 294.77407650000004,
          "velocity": 0.6299212598425197
        },
        {
          "duration": 0.21950015624997832,
          "durationTicks": 45,
          "midi": 56,
          "name": "G#3",
          "ticks": 60432,
          "time": 294.77407650000004,
          "velocity": 0.6299212598425197
        },
        {
          "duration": 0.21950015625003516,
          "durationTicks": 45,
          "midi": 44,
          "name": "G#2",
          "ticks": 60480,
          "time": 295.00821,
          "velocity": 0.6299212598425197
        },
        {
          "duration": 0.21950015625003516,
          "durationTicks": 45,
          "midi": 51,
          "name": "D#3",
          "ticks": 60528,
          "time": 295.2423435,
          "velocity": 0.6299212598425197
        },
        {
          "duration": 0.21950015625003516,
          "durationTicks": 45,
          "midi": 56,
          "name": "G#3",
          "ticks": 60528,
          "time": 295.2423435,
          "velocity": 0.6299212598425197
        },
        {
          "duration": 0.21950015624997832,
          "durationTicks": 45,
          "midi": 44,
          "name": "G#2",
          "ticks": 60576,
          "time": 295.47647700000005,
          "velocity": 0.6299212598425197
        },
        {
          "duration": 0.21950015624997832,
          "durationTicks": 45,
          "midi": 53,
          "name": "F3",
          "ticks": 60624,
          "time": 295.71061050000003,
          "velocity": 0.6299212598425197
        },
        {
          "duration": 0.21950015624997832,
          "durationTicks": 45,
          "midi": 56,
          "name": "G#3",
          "ticks": 60624,
          "time": 295.71061050000003,
          "velocity": 0.6299212598425197
        },
        {
          "duration": 0.21950015625003516,
          "durationTicks": 45,
          "midi": 46,
          "name": "A#2",
          "ticks": 60672,
          "time": 295.944744,
          "velocity": 0.6299212598425197
        },
        {
          "duration": 0.21950015624997832,
          "durationTicks": 45,
          "midi": 53,
          "name": "F3",
          "ticks": 60720,
          "time": 296.17887750000006,
          "velocity": 0.6299212598425197
        },
        {
          "duration": 0.21950015624997832,
          "durationTicks": 45,
          "midi": 58,
          "name": "A#3",
          "ticks": 60720,
          "time": 296.17887750000006,
          "velocity": 0.6299212598425197
        },
        {
          "duration": 0.21950015624997832,
          "durationTicks": 45,
          "midi": 46,
          "name": "A#2",
          "ticks": 60768,
          "time": 296.41301100000004,
          "velocity": 0.6299212598425197
        },
        {
          "duration": 0.21950015624997832,
          "durationTicks": 45,
          "midi": 53,
          "name": "F3",
          "ticks": 60816,
          "time": 296.6471445,
          "velocity": 0.6299212598425197
        },
        {
          "duration": 0.21950015624997832,
          "durationTicks": 45,
          "midi": 58,
          "name": "A#3",
          "ticks": 60816,
          "time": 296.6471445,
          "velocity": 0.6299212598425197
        },
        {
          "duration": 0.21950015625003516,
          "durationTicks": 45,
          "midi": 46,
          "name": "A#2",
          "ticks": 60864,
          "time": 296.881278,
          "velocity": 0.6299212598425197
        },
        {
          "duration": 0.21950015624997832,
          "durationTicks": 45,
          "midi": 53,
          "name": "F3",
          "ticks": 60912,
          "time": 297.11541150000005,
          "velocity": 0.6299212598425197
        },
        {
          "duration": 0.21950015624997832,
          "durationTicks": 45,
          "midi": 58,
          "name": "A#3",
          "ticks": 60912,
          "time": 297.11541150000005,
          "velocity": 0.6299212598425197
        },
        {
          "duration": 0.21950015624997832,
          "durationTicks": 45,
          "midi": 46,
          "name": "A#2",
          "ticks": 60960,
          "time": 297.34954500000003,
          "velocity": 0.6299212598425197
        },
        {
          "duration": 0.21950015625003516,
          "durationTicks": 45,
          "midi": 53,
          "name": "F3",
          "ticks": 61008,
          "time": 297.5836785,
          "velocity": 0.6299212598425197
        },
        {
          "duration": 0.21950015625003516,
          "durationTicks": 45,
          "midi": 58,
          "name": "A#3",
          "ticks": 61008,
          "time": 297.5836785,
          "velocity": 0.6299212598425197
        },
        {
          "duration": 0.21950015625003516,
          "durationTicks": 45,
          "midi": 48,
          "name": "C3",
          "ticks": 61056,
          "time": 297.817812,
          "velocity": 0.6299212598425197
        },
        {
          "duration": 0.21950015624997832,
          "durationTicks": 45,
          "midi": 55,
          "name": "G3",
          "ticks": 61104,
          "time": 298.05194550000004,
          "velocity": 0.6299212598425197
        },
        {
          "duration": 0.21950015624997832,
          "durationTicks": 45,
          "midi": 60,
          "name": "C4",
          "ticks": 61104,
          "time": 298.05194550000004,
          "velocity": 0.6299212598425197
        },
        {
          "duration": 0.21950015624997832,
          "durationTicks": 45,
          "midi": 48,
          "name": "C3",
          "ticks": 61152,
          "time": 298.28607900000003,
          "velocity": 0.6299212598425197
        },
        {
          "duration": 0.21950015625003516,
          "durationTicks": 45,
          "midi": 55,
          "name": "G3",
          "ticks": 61200,
          "time": 298.5202125,
          "velocity": 0.6299212598425197
        },
        {
          "duration": 0.21950015625003516,
          "durationTicks": 45,
          "midi": 60,
          "name": "C4",
          "ticks": 61200,
          "time": 298.5202125,
          "velocity": 0.6299212598425197
        },
        {
          "duration": 0.21950015624997832,
          "durationTicks": 45,
          "midi": 48,
          "name": "C3",
          "ticks": 61248,
          "time": 298.75434600000006,
          "velocity": 0.6299212598425197
        },
        {
          "duration": 0.21950015624997832,
          "durationTicks": 45,
          "midi": 55,
          "name": "G3",
          "ticks": 61296,
          "time": 298.98847950000004,
          "velocity": 0.6299212598425197
        },
        {
          "duration": 0.21950015624997832,
          "durationTicks": 45,
          "midi": 60,
          "name": "C4",
          "ticks": 61296,
          "time": 298.98847950000004,
          "velocity": 0.6299212598425197
        },
        {
          "duration": 0.21950015624997832,
          "durationTicks": 45,
          "midi": 48,
          "name": "C3",
          "ticks": 61344,
          "time": 299.222613,
          "velocity": 0.6299212598425197
        },
        {
          "duration": 0.21950015625003516,
          "durationTicks": 45,
          "midi": 55,
          "name": "G3",
          "ticks": 61392,
          "time": 299.4567465,
          "velocity": 0.6299212598425197
        },
        {
          "duration": 0.21950015625003516,
          "durationTicks": 45,
          "midi": 60,
          "name": "C4",
          "ticks": 61392,
          "time": 299.4567465,
          "velocity": 0.6299212598425197
        },
        {
          "duration": 0.21950015624997832,
          "durationTicks": 45,
          "midi": 41,
          "name": "F2",
          "ticks": 61440,
          "time": 299.69088000000005,
          "velocity": 0.6299212598425197
        },
        {
          "duration": 0.21950015624997832,
          "durationTicks": 45,
          "midi": 48,
          "name": "C3",
          "ticks": 61488,
          "time": 299.92501350000003,
          "velocity": 0.6299212598425197
        },
        {
          "duration": 0.21950015624997832,
          "durationTicks": 45,
          "midi": 53,
          "name": "F3",
          "ticks": 61488,
          "time": 299.92501350000003,
          "velocity": 0.6299212598425197
        },
        {
          "duration": 0.21950015625003516,
          "durationTicks": 45,
          "midi": 41,
          "name": "F2",
          "ticks": 61536,
          "time": 300.159147,
          "velocity": 0.6299212598425197
        },
        {
          "duration": 0.21950015625003516,
          "durationTicks": 45,
          "midi": 48,
          "name": "C3",
          "ticks": 61584,
          "time": 300.3932805,
          "velocity": 0.6299212598425197
        },
        {
          "duration": 0.21950015625003516,
          "durationTicks": 45,
          "midi": 53,
          "name": "F3",
          "ticks": 61584,
          "time": 300.3932805,
          "velocity": 0.6299212598425197
        },
        {
          "duration": 0.21950015624997832,
          "durationTicks": 45,
          "midi": 41,
          "name": "F2",
          "ticks": 61632,
          "time": 300.62741400000004,
          "velocity": 0.6299212598425197
        },
        {
          "duration": 0.21950015624997832,
          "durationTicks": 45,
          "midi": 48,
          "name": "C3",
          "ticks": 61680,
          "time": 300.86154750000003,
          "velocity": 0.6299212598425197
        },
        {
          "duration": 0.21950015624997832,
          "durationTicks": 45,
          "midi": 53,
          "name": "F3",
          "ticks": 61680,
          "time": 300.86154750000003,
          "velocity": 0.6299212598425197
        },
        {
          "duration": 0.21950015625003516,
          "durationTicks": 45,
          "midi": 41,
          "name": "F2",
          "ticks": 61728,
          "time": 301.095681,
          "velocity": 0.6299212598425197
        },
        {
          "duration": 0.21950015624997832,
          "durationTicks": 45,
          "midi": 48,
          "name": "C3",
          "ticks": 61776,
          "time": 301.32981450000005,
          "velocity": 0.6299212598425197
        },
        {
          "duration": 0.21950015624997832,
          "durationTicks": 45,
          "midi": 53,
          "name": "F3",
          "ticks": 61776,
          "time": 301.32981450000005,
          "velocity": 0.6299212598425197
        },
        {
          "duration": 0.21950015624997832,
          "durationTicks": 45,
          "midi": 44,
          "name": "G#2",
          "ticks": 61824,
          "time": 301.56394800000004,
          "velocity": 0.6299212598425197
        },
        {
          "duration": 0.21950015624997832,
          "durationTicks": 45,
          "midi": 51,
          "name": "D#3",
          "ticks": 61872,
          "time": 301.7980815,
          "velocity": 0.6299212598425197
        },
        {
          "duration": 0.21950015624997832,
          "durationTicks": 45,
          "midi": 56,
          "name": "G#3",
          "ticks": 61872,
          "time": 301.7980815,
          "velocity": 0.6299212598425197
        },
        {
          "duration": 0.21950015625003516,
          "durationTicks": 45,
          "midi": 44,
          "name": "G#2",
          "ticks": 61920,
          "time": 302.032215,
          "velocity": 0.6299212598425197
        },
        {
          "duration": 0.21950015624997832,
          "durationTicks": 45,
          "midi": 51,
          "name": "D#3",
          "ticks": 61968,
          "time": 302.26634850000005,
          "velocity": 0.6299212598425197
        },
        {
          "duration": 0.21950015624997832,
          "durationTicks": 45,
          "midi": 56,
          "name": "G#3",
          "ticks": 61968,
          "time": 302.26634850000005,
          "velocity": 0.6299212598425197
        },
        {
          "duration": 0.21950015624997832,
          "durationTicks": 45,
          "midi": 44,
          "name": "G#2",
          "ticks": 62016,
          "time": 302.50048200000003,
          "velocity": 0.6299212598425197
        },
        {
          "duration": 0.21950015625003516,
          "durationTicks": 45,
          "midi": 51,
          "name": "D#3",
          "ticks": 62064,
          "time": 302.7346155,
          "velocity": 0.6299212598425197
        },
        {
          "duration": 0.21950015625003516,
          "durationTicks": 45,
          "midi": 56,
          "name": "G#3",
          "ticks": 62064,
          "time": 302.7346155,
          "velocity": 0.6299212598425197
        },
        {
          "duration": 0.21950015625003516,
          "durationTicks": 45,
          "midi": 44,
          "name": "G#2",
          "ticks": 62112,
          "time": 302.968749,
          "velocity": 0.6299212598425197
        },
        {
          "duration": 0.21950015624997832,
          "durationTicks": 45,
          "midi": 51,
          "name": "D#3",
          "ticks": 62160,
          "time": 303.20288250000004,
          "velocity": 0.6299212598425197
        },
        {
          "duration": 0.21950015624997832,
          "durationTicks": 45,
          "midi": 56,
          "name": "G#3",
          "ticks": 62160,
          "time": 303.20288250000004,
          "velocity": 0.6299212598425197
        },
        {
          "duration": 0.21950015624997832,
          "durationTicks": 45,
          "midi": 46,
          "name": "A#2",
          "ticks": 62208,
          "time": 303.437016,
          "velocity": 0.6299212598425197
        },
        {
          "duration": 0.21950015625003516,
          "durationTicks": 45,
          "midi": 53,
          "name": "F3",
          "ticks": 62256,
          "time": 303.6711495,
          "velocity": 0.6299212598425197
        },
        {
          "duration": 0.21950015625003516,
          "durationTicks": 45,
          "midi": 58,
          "name": "A#3",
          "ticks": 62256,
          "time": 303.6711495,
          "velocity": 0.6299212598425197
        },
        {
          "duration": 0.21950015624997832,
          "durationTicks": 45,
          "midi": 46,
          "name": "A#2",
          "ticks": 62304,
          "time": 303.90528300000005,
          "velocity": 0.6299212598425197
        },
        {
          "duration": 0.21950015624997832,
          "durationTicks": 45,
          "midi": 53,
          "name": "F3",
          "ticks": 62352,
          "time": 304.13941650000004,
          "velocity": 0.6299212598425197
        },
        {
          "duration": 0.21950015624997832,
          "durationTicks": 45,
          "midi": 58,
          "name": "A#3",
          "ticks": 62352,
          "time": 304.13941650000004,
          "velocity": 0.6299212598425197
        },
        {
          "duration": 0.21950015624997832,
          "durationTicks": 45,
          "midi": 46,
          "name": "A#2",
          "ticks": 62400,
          "time": 304.37355,
          "velocity": 0.6299212598425197
        },
        {
          "duration": 0.21950015625003516,
          "durationTicks": 45,
          "midi": 53,
          "name": "F3",
          "ticks": 62448,
          "time": 304.6076835,
          "velocity": 0.6299212598425197
        },
        {
          "duration": 0.21950015625003516,
          "durationTicks": 45,
          "midi": 58,
          "name": "A#3",
          "ticks": 62448,
          "time": 304.6076835,
          "velocity": 0.6299212598425197
        },
        {
          "duration": 0.21950015624997832,
          "durationTicks": 45,
          "midi": 46,
          "name": "A#2",
          "ticks": 62496,
          "time": 304.84181700000005,
          "velocity": 0.6299212598425197
        },
        {
          "duration": 0.21950015624997832,
          "durationTicks": 45,
          "midi": 53,
          "name": "F3",
          "ticks": 62544,
          "time": 305.07595050000003,
          "velocity": 0.6299212598425197
        },
        {
          "duration": 0.21950015624997832,
          "durationTicks": 45,
          "midi": 58,
          "name": "A#3",
          "ticks": 62544,
          "time": 305.07595050000003,
          "velocity": 0.6299212598425197
        },
        {
          "duration": 0.21950015625003516,
          "durationTicks": 45,
          "midi": 43,
          "name": "G2",
          "ticks": 62592,
          "time": 305.310084,
          "velocity": 0.6299212598425197
        },
        {
          "duration": 0.21950015625003516,
          "durationTicks": 45,
          "midi": 55,
          "name": "G3",
          "ticks": 62640,
          "time": 305.5442175,
          "velocity": 0.6299212598425197
        },
        {
          "duration": 0.21950015624997832,
          "durationTicks": 45,
          "midi": 43,
          "name": "G2",
          "ticks": 62688,
          "time": 305.77835100000004,
          "velocity": 0.6299212598425197
        },
        {
          "duration": 0.21950015624997832,
          "durationTicks": 45,
          "midi": 55,
          "name": "G3",
          "ticks": 62736,
          "time": 306.0124845,
          "velocity": 0.6299212598425197
        },
        {
          "duration": 0.21950015625003516,
          "durationTicks": 45,
          "midi": 48,
          "name": "C3",
          "ticks": 62784,
          "time": 306.246618,
          "velocity": 0.6299212598425197
        },
        {
          "duration": 0.21950015624997832,
          "durationTicks": 45,
          "midi": 60,
          "name": "C4",
          "ticks": 62832,
          "time": 306.48075150000005,
          "velocity": 0.6299212598425197
        },
        {
          "duration": 0.21950015624997832,
          "durationTicks": 45,
          "midi": 48,
          "name": "C3",
          "ticks": 62880,
          "time": 306.71488500000004,
          "velocity": 0.6299212598425197
        },
        {
          "duration": 0.21950015624997832,
          "durationTicks": 45,
          "midi": 60,
          "name": "C4",
          "ticks": 62928,
          "time": 306.9490185,
          "velocity": 0.6299212598425197
        },
        {
          "duration": 0.21950015625003516,
          "durationTicks": 45,
          "midi": 41,
          "name": "F2",
          "ticks": 62976,
          "time": 307.183152,
          "velocity": 0.6299212598425197
        },
        {
          "duration": 0.21950015624997832,
          "durationTicks": 45,
          "midi": 53,
          "name": "F3",
          "ticks": 63024,
          "time": 307.41728550000005,
          "velocity": 0.6299212598425197
        },
        {
          "duration": 0.21950015624997832,
          "durationTicks": 45,
          "midi": 41,
          "name": "F2",
          "ticks": 63072,
          "time": 307.65141900000003,
          "velocity": 0.6299212598425197
        },
        {
          "duration": 0.21950015625003516,
          "durationTicks": 45,
          "midi": 53,
          "name": "F3",
          "ticks": 63120,
          "time": 307.8855525,
          "velocity": 0.6299212598425197
        },
        {
          "duration": 0.21950015625003516,
          "durationTicks": 45,
          "midi": 41,
          "name": "F2",
          "ticks": 63168,
          "time": 308.119686,
          "velocity": 0.6299212598425197
        },
        {
          "duration": 0.21950015624997832,
          "durationTicks": 45,
          "midi": 53,
          "name": "F3",
          "ticks": 63216,
          "time": 308.35381950000004,
          "velocity": 0.6299212598425197
        },
        {
          "duration": 0.21950015624997832,
          "durationTicks": 45,
          "midi": 41,
          "name": "F2",
          "ticks": 63264,
          "time": 308.587953,
          "velocity": 0.6299212598425197
        },
        {
          "duration": 0.21950015625003516,
          "durationTicks": 45,
          "midi": 53,
          "name": "F3",
          "ticks": 63312,
          "time": 308.8220865,
          "velocity": 0.6299212598425197
        },
        {
          "duration": 0.21950015624997832,
          "durationTicks": 45,
          "midi": 41,
          "name": "F2",
          "ticks": 63360,
          "time": 309.05622000000005,
          "velocity": 0.6299212598425197
        },
        {
          "duration": 0.21950015624997832,
          "durationTicks": 45,
          "midi": 53,
          "name": "F3",
          "ticks": 63408,
          "time": 309.29035350000004,
          "velocity": 0.6299212598425197
        },
        {
          "duration": 0.21950015625003516,
          "durationTicks": 45,
          "midi": 41,
          "name": "F2",
          "ticks": 63456,
          "time": 309.524487,
          "velocity": 0.6299212598425197
        },
        {
          "duration": 0.21950015625003516,
          "durationTicks": 45,
          "midi": 53,
          "name": "F3",
          "ticks": 63504,
          "time": 309.7586205,
          "velocity": 0.6299212598425197
        },
        {
          "duration": 0.21950015624997832,
          "durationTicks": 45,
          "midi": 41,
          "name": "F2",
          "ticks": 63552,
          "time": 309.99275400000005,
          "velocity": 0.6299212598425197
        },
        {
          "duration": 0.21950015624997832,
          "durationTicks": 45,
          "midi": 53,
          "name": "F3",
          "ticks": 63600,
          "time": 310.22688750000003,
          "velocity": 0.6299212598425197
        },
        {
          "duration": 0.21950015625003516,
          "durationTicks": 45,
          "midi": 41,
          "name": "F2",
          "ticks": 63648,
          "time": 310.461021,
          "velocity": 0.6299212598425197
        },
        {
          "duration": 0.21950015625003516,
          "durationTicks": 45,
          "midi": 53,
          "name": "F3",
          "ticks": 63696,
          "time": 310.6951545,
          "velocity": 0.6299212598425197
        },
        {
          "duration": 0.21950015624997832,
          "durationTicks": 45,
          "midi": 44,
          "name": "G#2",
          "ticks": 63744,
          "time": 310.92928800000004,
          "velocity": 0.6299212598425197
        },
        {
          "duration": 0.21950015624997832,
          "durationTicks": 45,
          "midi": 56,
          "name": "G#3",
          "ticks": 63792,
          "time": 311.1634215,
          "velocity": 0.6299212598425197
        },
        {
          "duration": 0.21950015625003516,
          "durationTicks": 45,
          "midi": 44,
          "name": "G#2",
          "ticks": 63840,
          "time": 311.397555,
          "velocity": 0.6299212598425197
        },
        {
          "duration": 0.21950015624997832,
          "durationTicks": 45,
          "midi": 56,
          "name": "G#3",
          "ticks": 63888,
          "time": 311.63168850000005,
          "velocity": 0.6299212598425197
        },
        {
          "duration": 0.21950015624997832,
          "durationTicks": 45,
          "midi": 44,
          "name": "G#2",
          "ticks": 63936,
          "time": 311.86582200000004,
          "velocity": 0.6299212598425197
        },
        {
          "duration": 0.21950015625003516,
          "durationTicks": 45,
          "midi": 56,
          "name": "G#3",
          "ticks": 63984,
          "time": 312.0999555,
          "velocity": 0.6299212598425197
        },
        {
          "duration": 0.21950015625003516,
          "durationTicks": 45,
          "midi": 44,
          "name": "G#2",
          "ticks": 64032,
          "time": 312.334089,
          "velocity": 0.6299212598425197
        },
        {
          "duration": 0.21950015624997832,
          "durationTicks": 45,
          "midi": 56,
          "name": "G#3",
          "ticks": 64080,
          "time": 312.56822250000005,
          "velocity": 0.6299212598425197
        },
        {
          "duration": 0.21950015624997832,
          "durationTicks": 45,
          "midi": 44,
          "name": "G#2",
          "ticks": 64128,
          "time": 312.80235600000003,
          "velocity": 0.6299212598425197
        },
        {
          "duration": 0.21950015625003516,
          "durationTicks": 45,
          "midi": 56,
          "name": "G#3",
          "ticks": 64176,
          "time": 313.0364895,
          "velocity": 0.6299212598425197
        },
        {
          "duration": 0.21950015624997832,
          "durationTicks": 45,
          "midi": 44,
          "name": "G#2",
          "ticks": 64224,
          "time": 313.27062300000006,
          "velocity": 0.6299212598425197
        },
        {
          "duration": 0.21950015624997832,
          "durationTicks": 45,
          "midi": 56,
          "name": "G#3",
          "ticks": 64272,
          "time": 313.50475650000004,
          "velocity": 0.6299212598425197
        },
        {
          "duration": 0.21950015624997832,
          "durationTicks": 45,
          "midi": 44,
          "name": "G#2",
          "ticks": 64320,
          "time": 313.73889,
          "velocity": 0.6299212598425197
        },
        {
          "duration": 0.21950015625003516,
          "durationTicks": 45,
          "midi": 56,
          "name": "G#3",
          "ticks": 64368,
          "time": 313.9730235,
          "velocity": 0.6299212598425197
        },
        {
          "duration": 0.21950015624997832,
          "durationTicks": 45,
          "midi": 44,
          "name": "G#2",
          "ticks": 64416,
          "time": 314.20715700000005,
          "velocity": 0.6299212598425197
        },
        {
          "duration": 0.21950015624997832,
          "durationTicks": 45,
          "midi": 56,
          "name": "G#3",
          "ticks": 64464,
          "time": 314.44129050000004,
          "velocity": 0.6299212598425197
        },
        {
          "duration": 0.21950015625003516,
          "durationTicks": 45,
          "midi": 46,
          "name": "A#2",
          "ticks": 64512,
          "time": 314.675424,
          "velocity": 0.6299212598425197
        },
        {
          "duration": 0.21950015625003516,
          "durationTicks": 45,
          "midi": 58,
          "name": "A#3",
          "ticks": 64560,
          "time": 314.9095575,
          "velocity": 0.6299212598425197
        },
        {
          "duration": 0.21950015624997832,
          "durationTicks": 45,
          "midi": 46,
          "name": "A#2",
          "ticks": 64608,
          "time": 315.14369100000005,
          "velocity": 0.6299212598425197
        },
        {
          "duration": 0.21950015624997832,
          "durationTicks": 45,
          "midi": 58,
          "name": "A#3",
          "ticks": 64656,
          "time": 315.37782450000003,
          "velocity": 0.6299212598425197
        },
        {
          "duration": 0.21950015625003516,
          "durationTicks": 45,
          "midi": 46,
          "name": "A#2",
          "ticks": 64704,
          "time": 315.611958,
          "velocity": 0.6299212598425197
        },
        {
          "duration": 0.21950015624997832,
          "durationTicks": 45,
          "midi": 58,
          "name": "A#3",
          "ticks": 64752,
          "time": 315.84609150000006,
          "velocity": 0.6299212598425197
        },
        {
          "duration": 0.21950015624997832,
          "durationTicks": 45,
          "midi": 46,
          "name": "A#2",
          "ticks": 64800,
          "time": 316.08022500000004,
          "velocity": 0.6299212598425197
        },
        {
          "duration": 0.21950015624997832,
          "durationTicks": 45,
          "midi": 58,
          "name": "A#3",
          "ticks": 64848,
          "time": 316.3143585,
          "velocity": 0.6299212598425197
        },
        {
          "duration": 0.21950015625003516,
          "durationTicks": 45,
          "midi": 46,
          "name": "A#2",
          "ticks": 64896,
          "time": 316.548492,
          "velocity": 0.6299212598425197
        },
        {
          "duration": 0.21950015624997832,
          "durationTicks": 45,
          "midi": 58,
          "name": "A#3",
          "ticks": 64944,
          "time": 316.78262550000005,
          "velocity": 0.6299212598425197
        },
        {
          "duration": 0.21950015624997832,
          "durationTicks": 45,
          "midi": 46,
          "name": "A#2",
          "ticks": 64992,
          "time": 317.01675900000004,
          "velocity": 0.6299212598425197
        },
        {
          "duration": 0.21950015625003516,
          "durationTicks": 45,
          "midi": 58,
          "name": "A#3",
          "ticks": 65040,
          "time": 317.2508925,
          "velocity": 0.6299212598425197
        },
        {
          "duration": 0.21950015625003516,
          "durationTicks": 45,
          "midi": 46,
          "name": "A#2",
          "ticks": 65088,
          "time": 317.485026,
          "velocity": 0.6299212598425197
        },
        {
          "duration": 0.21950015624997832,
          "durationTicks": 45,
          "midi": 58,
          "name": "A#3",
          "ticks": 65136,
          "time": 317.71915950000005,
          "velocity": 0.6299212598425197
        },
        {
          "duration": 0.21950015624997832,
          "durationTicks": 45,
          "midi": 46,
          "name": "A#2",
          "ticks": 65184,
          "time": 317.95329300000003,
          "velocity": 0.6299212598425197
        },
        {
          "duration": 0.21950015625003516,
          "durationTicks": 45,
          "midi": 58,
          "name": "A#3",
          "ticks": 65232,
          "time": 318.1874265,
          "velocity": 0.6299212598425197
        },
        {
          "duration": 0.21950015624997832,
          "durationTicks": 45,
          "midi": 43,
          "name": "G2",
          "ticks": 65280,
          "time": 318.42156000000006,
          "velocity": 0.6299212598425197
        },
        {
          "duration": 0.21950015624997832,
          "durationTicks": 45,
          "midi": 55,
          "name": "G3",
          "ticks": 65328,
          "time": 318.65569350000004,
          "velocity": 0.6299212598425197
        },
        {
          "duration": 0.21950015624997832,
          "durationTicks": 45,
          "midi": 43,
          "name": "G2",
          "ticks": 65376,
          "time": 318.889827,
          "velocity": 0.6299212598425197
        },
        {
          "duration": 0.21950015625003516,
          "durationTicks": 45,
          "midi": 55,
          "name": "G3",
          "ticks": 65424,
          "time": 319.1239605,
          "velocity": 0.6299212598425197
        },
        {
          "duration": 0.21950015624997832,
          "durationTicks": 45,
          "midi": 43,
          "name": "G2",
          "ticks": 65472,
          "time": 319.35809400000005,
          "velocity": 0.6299212598425197
        },
        {
          "duration": 0.21950015624997832,
          "durationTicks": 45,
          "midi": 55,
          "name": "G3",
          "ticks": 65520,
          "time": 319.59222750000004,
          "velocity": 0.6299212598425197
        },
        {
          "duration": 0.21950015625003516,
          "durationTicks": 45,
          "midi": 43,
          "name": "G2",
          "ticks": 65568,
          "time": 319.826361,
          "velocity": 0.6299212598425197
        },
        {
          "duration": 0.21950015625003516,
          "durationTicks": 45,
          "midi": 55,
          "name": "G3",
          "ticks": 65616,
          "time": 320.0604945,
          "velocity": 0.6299212598425197
        },
        {
          "duration": 0.21950015624997832,
          "durationTicks": 45,
          "midi": 48,
          "name": "C3",
          "ticks": 65664,
          "time": 320.29462800000005,
          "velocity": 0.6299212598425197
        },
        {
          "duration": 0.21950015624997832,
          "durationTicks": 45,
          "midi": 60,
          "name": "C4",
          "ticks": 65712,
          "time": 320.52876150000003,
          "velocity": 0.6299212598425197
        },
        {
          "duration": 0.21950015625003516,
          "durationTicks": 45,
          "midi": 48,
          "name": "C3",
          "ticks": 65760,
          "time": 320.762895,
          "velocity": 0.6299212598425197
        },
        {
          "duration": 0.21950015624997832,
          "durationTicks": 45,
          "midi": 60,
          "name": "C4",
          "ticks": 65808,
          "time": 320.99702850000006,
          "velocity": 0.6299212598425197
        },
        {
          "duration": 0.21950015624997832,
          "durationTicks": 45,
          "midi": 48,
          "name": "C3",
          "ticks": 65856,
          "time": 321.23116200000004,
          "velocity": 0.6299212598425197
        },
        {
          "duration": 0.21950015624997832,
          "durationTicks": 45,
          "midi": 60,
          "name": "C4",
          "ticks": 65904,
          "time": 321.4652955,
          "velocity": 0.6299212598425197
        },
        {
          "duration": 0.21950015625003516,
          "durationTicks": 45,
          "midi": 48,
          "name": "C3",
          "ticks": 65952,
          "time": 321.699429,
          "velocity": 0.6299212598425197
        },
        {
          "duration": 0.21950015624997832,
          "durationTicks": 45,
          "midi": 60,
          "name": "C4",
          "ticks": 66000,
          "time": 321.93356250000005,
          "velocity": 0.6299212598425197
        },
        {
          "duration": 0.21950015624997832,
          "durationTicks": 45,
          "midi": 41,
          "name": "F2",
          "ticks": 66048,
          "time": 322.16769600000003,
          "velocity": 0.6299212598425197
        },
        {
          "duration": 0.21950015625003516,
          "durationTicks": 45,
          "midi": 53,
          "name": "F3",
          "ticks": 66096,
          "time": 322.4018295,
          "velocity": 0.6299212598425197
        },
        {
          "duration": 0.21950015625003516,
          "durationTicks": 45,
          "midi": 41,
          "name": "F2",
          "ticks": 66144,
          "time": 322.635963,
          "velocity": 0.6299212598425197
        },
        {
          "duration": 0.21950015624997832,
          "durationTicks": 45,
          "midi": 53,
          "name": "F3",
          "ticks": 66192,
          "time": 322.87009650000005,
          "velocity": 0.6299212598425197
        },
        {
          "duration": 0.21950015624997832,
          "durationTicks": 45,
          "midi": 41,
          "name": "F2",
          "ticks": 66240,
          "time": 323.10423000000003,
          "velocity": 0.6299212598425197
        },
        {
          "duration": 0.21950015625003516,
          "durationTicks": 45,
          "midi": 53,
          "name": "F3",
          "ticks": 66288,
          "time": 323.3383635,
          "velocity": 0.6299212598425197
        },
        {
          "duration": 0.21950015624997832,
          "durationTicks": 45,
          "midi": 41,
          "name": "F2",
          "ticks": 66336,
          "time": 323.57249700000006,
          "velocity": 0.6299212598425197
        },
        {
          "duration": 0.21950015624997832,
          "durationTicks": 45,
          "midi": 53,
          "name": "F3",
          "ticks": 66384,
          "time": 323.80663050000004,
          "velocity": 0.6299212598425197
        },
        {
          "duration": 0.21950015624997832,
          "durationTicks": 45,
          "midi": 41,
          "name": "F2",
          "ticks": 66432,
          "time": 324.040764,
          "velocity": 0.6299212598425197
        },
        {
          "duration": 0.21950015625003516,
          "durationTicks": 45,
          "midi": 53,
          "name": "F3",
          "ticks": 66480,
          "time": 324.2748975,
          "velocity": 0.6299212598425197
        },
        {
          "duration": 0.21950015624997832,
          "durationTicks": 45,
          "midi": 41,
          "name": "F2",
          "ticks": 66528,
          "time": 324.50903100000005,
          "velocity": 0.6299212598425197
        },
        {
          "duration": 0.21950015624997832,
          "durationTicks": 45,
          "midi": 53,
          "name": "F3",
          "ticks": 66576,
          "time": 324.74316450000003,
          "velocity": 0.6299212598425197
        },
        {
          "duration": 0.21950015625003516,
          "durationTicks": 45,
          "midi": 41,
          "name": "F2",
          "ticks": 66624,
          "time": 324.977298,
          "velocity": 0.6299212598425197
        },
        {
          "duration": 0.21950015625003516,
          "durationTicks": 45,
          "midi": 53,
          "name": "F3",
          "ticks": 66672,
          "time": 325.2114315,
          "velocity": 0.6299212598425197
        },
        {
          "duration": 0.21950015624997832,
          "durationTicks": 45,
          "midi": 41,
          "name": "F2",
          "ticks": 66720,
          "time": 325.44556500000004,
          "velocity": 0.6299212598425197
        },
        {
          "duration": 0.21950015624997832,
          "durationTicks": 45,
          "midi": 53,
          "name": "F3",
          "ticks": 66768,
          "time": 325.67969850000003,
          "velocity": 0.6299212598425197
        },
        {
          "duration": 0.21950015625003516,
          "durationTicks": 45,
          "midi": 44,
          "name": "G#2",
          "ticks": 66816,
          "time": 325.913832,
          "velocity": 0.6299212598425197
        },
        {
          "duration": 0.21950015624997832,
          "durationTicks": 45,
          "midi": 56,
          "name": "G#3",
          "ticks": 66864,
          "time": 326.14796550000005,
          "velocity": 0.6299212598425197
        },
        {
          "duration": 0.21950015624997832,
          "durationTicks": 45,
          "midi": 44,
          "name": "G#2",
          "ticks": 66912,
          "time": 326.38209900000004,
          "velocity": 0.6299212598425197
        },
        {
          "duration": 0.21950015625003516,
          "durationTicks": 45,
          "midi": 56,
          "name": "G#3",
          "ticks": 66960,
          "time": 326.6162325,
          "velocity": 0.6299212598425197
        },
        {
          "duration": 0.21950015625003516,
          "durationTicks": 45,
          "midi": 44,
          "name": "G#2",
          "ticks": 67008,
          "time": 326.850366,
          "velocity": 0.6299212598425197
        },
        {
          "duration": 0.21950015624997832,
          "durationTicks": 45,
          "midi": 56,
          "name": "G#3",
          "ticks": 67056,
          "time": 327.08449950000005,
          "velocity": 0.6299212598425197
        },
        {
          "duration": 0.21950015624997832,
          "durationTicks": 45,
          "midi": 44,
          "name": "G#2",
          "ticks": 67104,
          "time": 327.31863300000003,
          "velocity": 0.6299212598425197
        },
        {
          "duration": 0.21950015625003516,
          "durationTicks": 45,
          "midi": 56,
          "name": "G#3",
          "ticks": 67152,
          "time": 327.5527665,
          "velocity": 0.6299212598425197
        },
        {
          "duration": 0.21950015625003516,
          "durationTicks": 45,
          "midi": 44,
          "name": "G#2",
          "ticks": 67200,
          "time": 327.7869,
          "velocity": 0.6299212598425197
        },
        {
          "duration": 0.21950015624997832,
          "durationTicks": 45,
          "midi": 56,
          "name": "G#3",
          "ticks": 67248,
          "time": 328.02103350000004,
          "velocity": 0.6299212598425197
        },
        {
          "duration": 0.21950015624997832,
          "durationTicks": 45,
          "midi": 44,
          "name": "G#2",
          "ticks": 67296,
          "time": 328.25516700000003,
          "velocity": 0.6299212598425197
        },
        {
          "duration": 0.21950015625003516,
          "durationTicks": 45,
          "midi": 56,
          "name": "G#3",
          "ticks": 67344,
          "time": 328.4893005,
          "velocity": 0.6299212598425197
        },
        {
          "duration": 0.21950015624997832,
          "durationTicks": 45,
          "midi": 44,
          "name": "G#2",
          "ticks": 67392,
          "time": 328.72343400000005,
          "velocity": 0.6299212598425197
        },
        {
          "duration": 0.21950015624997832,
          "durationTicks": 45,
          "midi": 56,
          "name": "G#3",
          "ticks": 67440,
          "time": 328.95756750000004,
          "velocity": 0.6299212598425197
        },
        {
          "duration": 0.21950015625003516,
          "durationTicks": 45,
          "midi": 44,
          "name": "G#2",
          "ticks": 67488,
          "time": 329.191701,
          "velocity": 0.6299212598425197
        },
        {
          "duration": 0.21950015625003516,
          "durationTicks": 45,
          "midi": 56,
          "name": "G#3",
          "ticks": 67536,
          "time": 329.4258345,
          "velocity": 0.6299212598425197
        },
        {
          "duration": 0.21950015624997832,
          "durationTicks": 45,
          "midi": 46,
          "name": "A#2",
          "ticks": 67584,
          "time": 329.65996800000005,
          "velocity": 0.6299212598425197
        },
        {
          "duration": 0.21950015624997832,
          "durationTicks": 45,
          "midi": 58,
          "name": "A#3",
          "ticks": 67632,
          "time": 329.89410150000003,
          "velocity": 0.6299212598425197
        },
        {
          "duration": 0.21950015625003516,
          "durationTicks": 45,
          "midi": 46,
          "name": "A#2",
          "ticks": 67680,
          "time": 330.128235,
          "velocity": 0.6299212598425197
        },
        {
          "duration": 0.21950015624997832,
          "durationTicks": 45,
          "midi": 58,
          "name": "A#3",
          "ticks": 67728,
          "time": 330.36236850000006,
          "velocity": 0.6299212598425197
        },
        {
          "duration": 0.21950015624997832,
          "durationTicks": 45,
          "midi": 46,
          "name": "A#2",
          "ticks": 67776,
          "time": 330.59650200000004,
          "velocity": 0.6299212598425197
        },
        {
          "duration": 0.21950015624997832,
          "durationTicks": 45,
          "midi": 58,
          "name": "A#3",
          "ticks": 67824,
          "time": 330.8306355,
          "velocity": 0.6299212598425197
        },
        {
          "duration": 0.21950015625003516,
          "durationTicks": 45,
          "midi": 46,
          "name": "A#2",
          "ticks": 67872,
          "time": 331.064769,
          "velocity": 0.6299212598425197
        },
        {
          "duration": 0.21950015624997832,
          "durationTicks": 45,
          "midi": 58,
          "name": "A#3",
          "ticks": 67920,
          "time": 331.29890250000005,
          "velocity": 0.6299212598425197
        },
        {
          "duration": 0.21950015624997832,
          "durationTicks": 45,
          "midi": 46,
          "name": "A#2",
          "ticks": 67968,
          "time": 331.53303600000004,
          "velocity": 0.6299212598425197
        },
        {
          "duration": 0.21950015625003516,
          "durationTicks": 45,
          "midi": 58,
          "name": "A#3",
          "ticks": 68016,
          "time": 331.7671695,
          "velocity": 0.6299212598425197
        },
        {
          "duration": 0.21950015625003516,
          "durationTicks": 45,
          "midi": 46,
          "name": "A#2",
          "ticks": 68064,
          "time": 332.001303,
          "velocity": 0.6299212598425197
        },
        {
          "duration": 0.21950015624997832,
          "durationTicks": 45,
          "midi": 58,
          "name": "A#3",
          "ticks": 68112,
          "time": 332.23543650000005,
          "velocity": 0.6299212598425197
        },
        {
          "duration": 0.21950015624997832,
          "durationTicks": 45,
          "midi": 46,
          "name": "A#2",
          "ticks": 68160,
          "time": 332.46957000000003,
          "velocity": 0.6299212598425197
        },
        {
          "duration": 0.21950015625003516,
          "durationTicks": 45,
          "midi": 58,
          "name": "A#3",
          "ticks": 68208,
          "time": 332.7037035,
          "velocity": 0.6299212598425197
        },
        {
          "duration": 0.21950015624997832,
          "durationTicks": 45,
          "midi": 46,
          "name": "A#2",
          "ticks": 68256,
          "time": 332.93783700000006,
          "velocity": 0.6299212598425197
        },
        {
          "duration": 0.21950015624997832,
          "durationTicks": 45,
          "midi": 58,
          "name": "A#3",
          "ticks": 68304,
          "time": 333.17197050000004,
          "velocity": 0.6299212598425197
        },
        {
          "duration": 0.21950015624997832,
          "durationTicks": 45,
          "midi": 43,
          "name": "G2",
          "ticks": 68352,
          "time": 333.406104,
          "velocity": 0.6299212598425197
        },
        {
          "duration": 0.21950015625003516,
          "durationTicks": 45,
          "midi": 55,
          "name": "G3",
          "ticks": 68400,
          "time": 333.6402375,
          "velocity": 0.6299212598425197
        },
        {
          "duration": 0.21950015624997832,
          "durationTicks": 45,
          "midi": 43,
          "name": "G2",
          "ticks": 68448,
          "time": 333.87437100000005,
          "velocity": 0.6299212598425197
        },
        {
          "duration": 0.21950015624997832,
          "durationTicks": 45,
          "midi": 55,
          "name": "G3",
          "ticks": 68496,
          "time": 334.10850450000004,
          "velocity": 0.6299212598425197
        },
        {
          "duration": 0.21950015625003516,
          "durationTicks": 45,
          "midi": 43,
          "name": "G2",
          "ticks": 68544,
          "time": 334.342638,
          "velocity": 0.6299212598425197
        },
        {
          "duration": 0.21950015625003516,
          "durationTicks": 45,
          "midi": 55,
          "name": "G3",
          "ticks": 68592,
          "time": 334.5767715,
          "velocity": 0.6299212598425197
        },
        {
          "duration": 0.21950015624997832,
          "durationTicks": 45,
          "midi": 43,
          "name": "G2",
          "ticks": 68640,
          "time": 334.81090500000005,
          "velocity": 0.6299212598425197
        },
        {
          "duration": 0.21950015624997832,
          "durationTicks": 45,
          "midi": 55,
          "name": "G3",
          "ticks": 68688,
          "time": 335.04503850000003,
          "velocity": 0.6299212598425197
        },
        {
          "duration": 0.21950015625003516,
          "durationTicks": 45,
          "midi": 48,
          "name": "C3",
          "ticks": 68736,
          "time": 335.279172,
          "velocity": 0.6299212598425197
        },
        {
          "duration": 0.21950015624997832,
          "durationTicks": 45,
          "midi": 60,
          "name": "C4",
          "ticks": 68784,
          "time": 335.51330550000006,
          "velocity": 0.6299212598425197
        },
        {
          "duration": 0.21950015624997832,
          "durationTicks": 45,
          "midi": 48,
          "name": "C3",
          "ticks": 68832,
          "time": 335.74743900000004,
          "velocity": 0.6299212598425197
        },
        {
          "duration": 0.21950015624997832,
          "durationTicks": 45,
          "midi": 60,
          "name": "C4",
          "ticks": 68880,
          "time": 335.9815725,
          "velocity": 0.6299212598425197
        },
        {
          "duration": 0.21950015625003516,
          "durationTicks": 45,
          "midi": 48,
          "name": "C3",
          "ticks": 68928,
          "time": 336.215706,
          "velocity": 0.6299212598425197
        },
        {
          "duration": 0.21950015624997832,
          "durationTicks": 45,
          "midi": 60,
          "name": "C4",
          "ticks": 68976,
          "time": 336.44983950000005,
          "velocity": 0.6299212598425197
        },
        {
          "duration": 0.21950015624997832,
          "durationTicks": 45,
          "midi": 48,
          "name": "C3",
          "ticks": 69024,
          "time": 336.68397300000004,
          "velocity": 0.6299212598425197
        },
        {
          "duration": 0.21950015625003516,
          "durationTicks": 45,
          "midi": 60,
          "name": "C4",
          "ticks": 69072,
          "time": 336.9181065,
          "velocity": 0.6299212598425197
        },
        {
          "duration": 0.10731118749998814,
          "durationTicks": 22,
          "midi": 48,
          "name": "C3",
          "ticks": 69120,
          "time": 337.15224,
          "velocity": 0.6299212598425197
        },
        {
          "duration": 0.10731118749998814,
          "durationTicks": 22,
          "midi": 53,
          "name": "F3",
          "ticks": 69120,
          "time": 337.15224,
          "velocity": 0.6299212598425197
        },
        {
          "duration": 0.10731118749998814,
          "durationTicks": 22,
          "midi": 48,
          "name": "C3",
          "ticks": 69168,
          "time": 337.38637350000005,
          "velocity": 0.6299212598425197
        },
        {
          "duration": 0.10731118749998814,
          "durationTicks": 22,
          "midi": 53,
          "name": "F3",
          "ticks": 69168,
          "time": 337.38637350000005,
          "velocity": 0.6299212598425197
        },
        {
          "duration": 0.10731118749998814,
          "durationTicks": 22,
          "midi": 53,
          "name": "F3",
          "ticks": 69198,
          "time": 337.53270693750005,
          "velocity": 0.6299212598425197
        },
        {
          "duration": 0.10731118749998814,
          "durationTicks": 22,
          "midi": 48,
          "name": "C3",
          "ticks": 69198,
          "time": 337.53270693750005,
          "velocity": 0.6299212598425197
        },
        {
          "duration": 0.10731118749998814,
          "durationTicks": 22,
          "midi": 48,
          "name": "C3",
          "ticks": 69264,
          "time": 337.8546405,
          "velocity": 0.6299212598425197
        },
        {
          "duration": 0.10731118749998814,
          "durationTicks": 22,
          "midi": 53,
          "name": "F3",
          "ticks": 69264,
          "time": 337.8546405,
          "velocity": 0.6299212598425197
        },
        {
          "duration": 0.10731118749998814,
          "durationTicks": 22,
          "midi": 53,
          "name": "F3",
          "ticks": 69342,
          "time": 338.2351074375,
          "velocity": 0.6299212598425197
        },
        {
          "duration": 0.10731118749998814,
          "durationTicks": 22,
          "midi": 48,
          "name": "C3",
          "ticks": 69342,
          "time": 338.2351074375,
          "velocity": 0.6299212598425197
        },
        {
          "duration": 0.10731118749998814,
          "durationTicks": 22,
          "midi": 48,
          "name": "C3",
          "ticks": 69408,
          "time": 338.557041,
          "velocity": 0.6299212598425197
        },
        {
          "duration": 0.10731118749998814,
          "durationTicks": 22,
          "midi": 53,
          "name": "F3",
          "ticks": 69408,
          "time": 338.557041,
          "velocity": 0.6299212598425197
        },
        {
          "duration": 0.10731118749998814,
          "durationTicks": 22,
          "midi": 48,
          "name": "C3",
          "ticks": 69456,
          "time": 338.7911745,
          "velocity": 0.6299212598425197
        },
        {
          "duration": 0.10731118749998814,
          "durationTicks": 22,
          "midi": 53,
          "name": "F3",
          "ticks": 69456,
          "time": 338.7911745,
          "velocity": 0.6299212598425197
        },
        {
          "duration": 0.10731118749998814,
          "durationTicks": 22,
          "midi": 53,
          "name": "F3",
          "ticks": 69486,
          "time": 338.9375079375,
          "velocity": 0.6299212598425197
        },
        {
          "duration": 0.10731118749998814,
          "durationTicks": 22,
          "midi": 48,
          "name": "C3",
          "ticks": 69486,
          "time": 338.9375079375,
          "velocity": 0.6299212598425197
        },
        {
          "duration": 0.10731118749998814,
          "durationTicks": 22,
          "midi": 48,
          "name": "C3",
          "ticks": 69504,
          "time": 339.02530800000005,
          "velocity": 0.6299212598425197
        },
        {
          "duration": 0.10731118749998814,
          "durationTicks": 22,
          "midi": 53,
          "name": "F3",
          "ticks": 69504,
          "time": 339.02530800000005,
          "velocity": 0.6299212598425197
        },
        {
          "duration": 0.10731118749998814,
          "durationTicks": 22,
          "midi": 48,
          "name": "C3",
          "ticks": 69552,
          "time": 339.25944150000004,
          "velocity": 0.6299212598425197
        },
        {
          "duration": 0.10731118749998814,
          "durationTicks": 22,
          "midi": 53,
          "name": "F3",
          "ticks": 69552,
          "time": 339.25944150000004,
          "velocity": 0.6299212598425197
        },
        {
          "duration": 0.10731118749998814,
          "durationTicks": 22,
          "midi": 53,
          "name": "F3",
          "ticks": 69582,
          "time": 339.40577493750004,
          "velocity": 0.6299212598425197
        },
        {
          "duration": 0.10731118749998814,
          "durationTicks": 22,
          "midi": 48,
          "name": "C3",
          "ticks": 69582,
          "time": 339.40577493750004,
          "velocity": 0.6299212598425197
        },
        {
          "duration": 0.10731118749998814,
          "durationTicks": 22,
          "midi": 48,
          "name": "C3",
          "ticks": 69648,
          "time": 339.7277085,
          "velocity": 0.6299212598425197
        },
        {
          "duration": 0.10731118749998814,
          "durationTicks": 22,
          "midi": 53,
          "name": "F3",
          "ticks": 69648,
          "time": 339.7277085,
          "velocity": 0.6299212598425197
        },
        {
          "duration": 0.10731118749998814,
          "durationTicks": 22,
          "midi": 53,
          "name": "F3",
          "ticks": 69726,
          "time": 340.10817543750005,
          "velocity": 0.6299212598425197
        },
        {
          "duration": 0.10731118749998814,
          "durationTicks": 22,
          "midi": 48,
          "name": "C3",
          "ticks": 69726,
          "time": 340.10817543750005,
          "velocity": 0.6299212598425197
        },
        {
          "duration": 0.10731118749998814,
          "durationTicks": 22,
          "midi": 48,
          "name": "C3",
          "ticks": 69792,
          "time": 340.430109,
          "velocity": 0.6299212598425197
        },
        {
          "duration": 0.10731118749998814,
          "durationTicks": 22,
          "midi": 53,
          "name": "F3",
          "ticks": 69792,
          "time": 340.430109,
          "velocity": 0.6299212598425197
        },
        {
          "duration": 0.1073111874999313,
          "durationTicks": 22,
          "midi": 48,
          "name": "C3",
          "ticks": 69840,
          "time": 340.66424250000006,
          "velocity": 0.6299212598425197
        },
        {
          "duration": 0.1073111874999313,
          "durationTicks": 22,
          "midi": 53,
          "name": "F3",
          "ticks": 69840,
          "time": 340.66424250000006,
          "velocity": 0.6299212598425197
        },
        {
          "duration": 0.10731118749998814,
          "durationTicks": 22,
          "midi": 53,
          "name": "F3",
          "ticks": 69870,
          "time": 340.8105759375,
          "velocity": 0.6299212598425197
        },
        {
          "duration": 0.10731118749998814,
          "durationTicks": 22,
          "midi": 48,
          "name": "C3",
          "ticks": 69870,
          "time": 340.8105759375,
          "velocity": 0.6299212598425197
        },
        {
          "duration": 0.10731118749998814,
          "durationTicks": 22,
          "midi": 48,
          "name": "C3",
          "ticks": 69888,
          "time": 340.89837600000004,
          "velocity": 0.6299212598425197
        },
        {
          "duration": 0.10731118749998814,
          "durationTicks": 22,
          "midi": 53,
          "name": "F3",
          "ticks": 69888,
          "time": 340.89837600000004,
          "velocity": 0.6299212598425197
        },
        {
          "duration": 0.10731118749998814,
          "durationTicks": 22,
          "midi": 48,
          "name": "C3",
          "ticks": 69936,
          "time": 341.1325095,
          "velocity": 0.6299212598425197
        },
        {
          "duration": 0.10731118749998814,
          "durationTicks": 22,
          "midi": 53,
          "name": "F3",
          "ticks": 69936,
          "time": 341.1325095,
          "velocity": 0.6299212598425197
        },
        {
          "duration": 0.10731118749998814,
          "durationTicks": 22,
          "midi": 53,
          "name": "F3",
          "ticks": 69966,
          "time": 341.27884293750003,
          "velocity": 0.6299212598425197
        },
        {
          "duration": 0.10731118749998814,
          "durationTicks": 22,
          "midi": 48,
          "name": "C3",
          "ticks": 69966,
          "time": 341.27884293750003,
          "velocity": 0.6299212598425197
        },
        {
          "duration": 0.10731118749998814,
          "durationTicks": 22,
          "midi": 48,
          "name": "C3",
          "ticks": 70032,
          "time": 341.60077650000005,
          "velocity": 0.6299212598425197
        },
        {
          "duration": 0.10731118749998814,
          "durationTicks": 22,
          "midi": 53,
          "name": "F3",
          "ticks": 70032,
          "time": 341.60077650000005,
          "velocity": 0.6299212598425197
        },
        {
          "duration": 0.10731118749998814,
          "durationTicks": 22,
          "midi": 53,
          "name": "F3",
          "ticks": 70110,
          "time": 341.98124343750004,
          "velocity": 0.6299212598425197
        },
        {
          "duration": 0.10731118749998814,
          "durationTicks": 22,
          "midi": 48,
          "name": "C3",
          "ticks": 70110,
          "time": 341.98124343750004,
          "velocity": 0.6299212598425197
        },
        {
          "duration": 0.10731118749998814,
          "durationTicks": 22,
          "midi": 48,
          "name": "C3",
          "ticks": 70176,
          "time": 342.303177,
          "velocity": 0.6299212598425197
        },
        {
          "duration": 0.10731118749998814,
          "durationTicks": 22,
          "midi": 53,
          "name": "F3",
          "ticks": 70176,
          "time": 342.303177,
          "velocity": 0.6299212598425197
        },
        {
          "duration": 0.10731118749998814,
          "durationTicks": 22,
          "midi": 48,
          "name": "C3",
          "ticks": 70224,
          "time": 342.53731050000005,
          "velocity": 0.6299212598425197
        },
        {
          "duration": 0.10731118749998814,
          "durationTicks": 22,
          "midi": 53,
          "name": "F3",
          "ticks": 70224,
          "time": 342.53731050000005,
          "velocity": 0.6299212598425197
        },
        {
          "duration": 0.10731118749998814,
          "durationTicks": 22,
          "midi": 53,
          "name": "F3",
          "ticks": 70254,
          "time": 342.68364393750005,
          "velocity": 0.6299212598425197
        },
        {
          "duration": 0.10731118749998814,
          "durationTicks": 22,
          "midi": 48,
          "name": "C3",
          "ticks": 70254,
          "time": 342.68364393750005,
          "velocity": 0.6299212598425197
        },
        {
          "duration": 0.10731118749998814,
          "durationTicks": 22,
          "midi": 48,
          "name": "C3",
          "ticks": 70272,
          "time": 342.77144400000003,
          "velocity": 0.6299212598425197
        },
        {
          "duration": 0.10731118749998814,
          "durationTicks": 22,
          "midi": 53,
          "name": "F3",
          "ticks": 70272,
          "time": 342.77144400000003,
          "velocity": 0.6299212598425197
        },
        {
          "duration": 0.10731118749998814,
          "durationTicks": 22,
          "midi": 48,
          "name": "C3",
          "ticks": 70320,
          "time": 343.0055775,
          "velocity": 0.6299212598425197
        },
        {
          "duration": 0.10731118749998814,
          "durationTicks": 22,
          "midi": 53,
          "name": "F3",
          "ticks": 70320,
          "time": 343.0055775,
          "velocity": 0.6299212598425197
        },
        {
          "duration": 0.10731118749998814,
          "durationTicks": 22,
          "midi": 53,
          "name": "F3",
          "ticks": 70350,
          "time": 343.1519109375,
          "velocity": 0.6299212598425197
        },
        {
          "duration": 0.10731118749998814,
          "durationTicks": 22,
          "midi": 48,
          "name": "C3",
          "ticks": 70350,
          "time": 343.1519109375,
          "velocity": 0.6299212598425197
        },
        {
          "duration": 0.10731118749998814,
          "durationTicks": 22,
          "midi": 48,
          "name": "C3",
          "ticks": 70416,
          "time": 343.47384450000004,
          "velocity": 0.6299212598425197
        },
        {
          "duration": 0.10731118749998814,
          "durationTicks": 22,
          "midi": 53,
          "name": "F3",
          "ticks": 70416,
          "time": 343.47384450000004,
          "velocity": 0.6299212598425197
        },
        {
          "duration": 0.10731118749998814,
          "durationTicks": 22,
          "midi": 53,
          "name": "F3",
          "ticks": 70494,
          "time": 343.85431143750003,
          "velocity": 0.6299212598425197
        },
        {
          "duration": 0.10731118749998814,
          "durationTicks": 22,
          "midi": 48,
          "name": "C3",
          "ticks": 70494,
          "time": 343.85431143750003,
          "velocity": 0.6299212598425197
        },
        {
          "duration": 0.10731118749998814,
          "durationTicks": 22,
          "midi": 48,
          "name": "C3",
          "ticks": 70560,
          "time": 344.17624500000005,
          "velocity": 0.6299212598425197
        },
        {
          "duration": 0.10731118749998814,
          "durationTicks": 22,
          "midi": 53,
          "name": "F3",
          "ticks": 70560,
          "time": 344.17624500000005,
          "velocity": 0.6299212598425197
        },
        {
          "duration": 0.10731118749998814,
          "durationTicks": 22,
          "midi": 48,
          "name": "C3",
          "ticks": 70608,
          "time": 344.41037850000004,
          "velocity": 0.6299212598425197
        },
        {
          "duration": 0.10731118749998814,
          "durationTicks": 22,
          "midi": 53,
          "name": "F3",
          "ticks": 70608,
          "time": 344.41037850000004,
          "velocity": 0.6299212598425197
        },
        {
          "duration": 0.10731118749998814,
          "durationTicks": 22,
          "midi": 53,
          "name": "F3",
          "ticks": 70638,
          "time": 344.55671193750004,
          "velocity": 0.6299212598425197
        },
        {
          "duration": 0.10731118749998814,
          "durationTicks": 22,
          "midi": 48,
          "name": "C3",
          "ticks": 70638,
          "time": 344.55671193750004,
          "velocity": 0.6299212598425197
        },
        {
          "duration": 0.10731118749998814,
          "durationTicks": 22,
          "midi": 53,
          "name": "F3",
          "ticks": 70656,
          "time": 344.644512,
          "velocity": 0.6299212598425197
        },
        {
          "duration": 0.10731118749998814,
          "durationTicks": 22,
          "midi": 53,
          "name": "F3",
          "ticks": 70686,
          "time": 344.7908454375,
          "velocity": 0.6299212598425197
        },
        {
          "duration": 0.21950015625003516,
          "durationTicks": 45,
          "midi": 53,
          "name": "F3",
          "ticks": 70704,
          "time": 344.8786455,
          "velocity": 0.6299212598425197
        },
        {
          "duration": 0.21950015624997832,
          "durationTicks": 45,
          "midi": 52,
          "name": "E3",
          "ticks": 70752,
          "time": 345.11277900000005,
          "velocity": 0.6299212598425197
        },
        {
          "duration": 0.21950015624997832,
          "durationTicks": 45,
          "midi": 52,
          "name": "E3",
          "ticks": 70800,
          "time": 345.34691250000003,
          "velocity": 0.6299212598425197
        },
        {
          "duration": 0.21950015625003516,
          "durationTicks": 45,
          "midi": 51,
          "name": "D#3",
          "ticks": 70848,
          "time": 345.581046,
          "velocity": 0.6299212598425197
        },
        {
          "duration": 0.21950015624997832,
          "durationTicks": 45,
          "midi": 51,
          "name": "D#3",
          "ticks": 70896,
          "time": 345.81517950000006,
          "velocity": 0.6299212598425197
        },
        {
          "duration": 0.21950015624997832,
          "durationTicks": 45,
          "midi": 50,
          "name": "D3",
          "ticks": 70944,
          "time": 346.04931300000004,
          "velocity": 0.6299212598425197
        },
        {
          "duration": 0.21950015625003516,
          "durationTicks": 45,
          "midi": 49,
          "name": "C#3",
          "ticks": 70992,
          "time": 346.2834465,
          "velocity": 0.6299212598425197
        },
        {
          "duration": 0.10731118749998814,
          "durationTicks": 22,
          "midi": 48,
          "name": "C3",
          "ticks": 71040,
          "time": 346.51758,
          "velocity": 0.6299212598425197
        },
        {
          "duration": 0.10731118749998814,
          "durationTicks": 22,
          "midi": 48,
          "name": "C3",
          "ticks": 71070,
          "time": 346.6639134375,
          "velocity": 0.6299212598425197
        },
        {
          "duration": 0.21950015624997832,
          "durationTicks": 45,
          "midi": 48,
          "name": "C3",
          "ticks": 71088,
          "time": 346.75171350000005,
          "velocity": 0.6299212598425197
        },
        {
          "duration": 0.21950015624997832,
          "durationTicks": 45,
          "midi": 47,
          "name": "B2",
          "ticks": 71136,
          "time": 346.98584700000004,
          "velocity": 0.6299212598425197
        },
        {
          "duration": 0.21950015625003516,
          "durationTicks": 45,
          "midi": 47,
          "name": "B2",
          "ticks": 71184,
          "time": 347.2199805,
          "velocity": 0.6299212598425197
        },
        {
          "duration": 0.21950015624997832,
          "durationTicks": 45,
          "midi": 46,
          "name": "A#2",
          "ticks": 71232,
          "time": 347.45411400000006,
          "velocity": 0.6299212598425197
        },
        {
          "duration": 0.21950015624997832,
          "durationTicks": 45,
          "midi": 46,
          "name": "A#2",
          "ticks": 71280,
          "time": 347.68824750000005,
          "velocity": 0.6299212598425197
        },
        {
          "duration": 0.21950015624997832,
          "durationTicks": 45,
          "midi": 44,
          "name": "G#2",
          "ticks": 71328,
          "time": 347.92238100000003,
          "velocity": 0.6299212598425197
        },
        {
          "duration": 0.21950015625003516,
          "durationTicks": 45,
          "midi": 41,
          "name": "F2",
          "ticks": 71376,
          "time": 348.1565145,
          "velocity": 0.6299212598425197
        },
        {
          "duration": 0.1073111874999313,
          "durationTicks": 22,
          "midi": 53,
          "name": "F3",
          "ticks": 71424,
          "time": 348.39064800000006,
          "velocity": 0.6299212598425197
        },
        {
          "duration": 0.1073111874999313,
          "durationTicks": 22,
          "midi": 53,
          "name": "F3",
          "ticks": 71454,
          "time": 348.53698143750006,
          "velocity": 0.6299212598425197
        },
        {
          "duration": 0.21950015624997832,
          "durationTicks": 45,
          "midi": 53,
          "name": "F3",
          "ticks": 71472,
          "time": 348.62478150000004,
          "velocity": 0.6299212598425197
        },
        {
          "duration": 0.21950015625003516,
          "durationTicks": 45,
          "midi": 52,
          "name": "E3",
          "ticks": 71520,
          "time": 348.858915,
          "velocity": 0.6299212598425197
        },
        {
          "duration": 0.21950015625003516,
          "durationTicks": 45,
          "midi": 52,
          "name": "E3",
          "ticks": 71568,
          "time": 349.0930485,
          "velocity": 0.6299212598425197
        },
        {
          "duration": 0.21950015624997832,
          "durationTicks": 45,
          "midi": 51,
          "name": "D#3",
          "ticks": 71616,
          "time": 349.32718200000005,
          "velocity": 0.6299212598425197
        },
        {
          "duration": 0.21950015624997832,
          "durationTicks": 45,
          "midi": 51,
          "name": "D#3",
          "ticks": 71664,
          "time": 349.56131550000003,
          "velocity": 0.6299212598425197
        },
        {
          "duration": 0.21950015625003516,
          "durationTicks": 45,
          "midi": 50,
          "name": "D3",
          "ticks": 71712,
          "time": 349.795449,
          "velocity": 0.6299212598425197
        },
        {
          "duration": 0.21950015624997832,
          "durationTicks": 45,
          "midi": 49,
          "name": "C#3",
          "ticks": 71760,
          "time": 350.02958250000006,
          "velocity": 0.6299212598425197
        },
        {
          "duration": 0.10731118749998814,
          "durationTicks": 22,
          "midi": 48,
          "name": "C3",
          "ticks": 71808,
          "time": 350.26371600000004,
          "velocity": 0.6299212598425197
        },
        {
          "duration": 0.10731118749998814,
          "durationTicks": 22,
          "midi": 48,
          "name": "C3",
          "ticks": 71838,
          "time": 350.41004943750005,
          "velocity": 0.6299212598425197
        },
        {
          "duration": 0.21950015624997832,
          "durationTicks": 45,
          "midi": 48,
          "name": "C3",
          "ticks": 71856,
          "time": 350.49784950000003,
          "velocity": 0.6299212598425197
        },
        {
          "duration": 0.21950015625003516,
          "durationTicks": 45,
          "midi": 47,
          "name": "B2",
          "ticks": 71904,
          "time": 350.731983,
          "velocity": 0.6299212598425197
        },
        {
          "duration": 0.21950015624997832,
          "durationTicks": 45,
          "midi": 47,
          "name": "B2",
          "ticks": 71952,
          "time": 350.96611650000006,
          "velocity": 0.6299212598425197
        },
        {
          "duration": 0.21950015624997832,
          "durationTicks": 45,
          "midi": 46,
          "name": "A#2",
          "ticks": 72000,
          "time": 351.20025000000004,
          "velocity": 0.6299212598425197
        },
        {
          "duration": 0.21950015625003516,
          "durationTicks": 45,
          "midi": 46,
          "name": "A#2",
          "ticks": 72048,
          "time": 351.4343835,
          "velocity": 0.6299212598425197
        },
        {
          "duration": 0.21950015625003516,
          "durationTicks": 45,
          "midi": 44,
          "name": "G#2",
          "ticks": 72096,
          "time": 351.668517,
          "velocity": 0.6299212598425197
        },
        {
          "duration": 0.21950015624997832,
          "durationTicks": 45,
          "midi": 41,
          "name": "F2",
          "ticks": 72144,
          "time": 351.90265050000005,
          "velocity": 0.6299212598425197
        },
        {
          "duration": 0.21950015624997832,
          "durationTicks": 45,
          "midi": 41,
          "name": "F2",
          "ticks": 72192,
          "time": 352.13678400000003,
          "velocity": 0.6299212598425197
        }
      ],
      "endOfTrackTicks": 72579
    }
  ]
}
