{
  "header": {
    "keySignatures": [],
    "meta": [],
    "name": "",
    "ppq": 384,
    "tempos": [
      {
        "bpm": 120,
        "ticks": 0
      }
    ],
    "timeSignatures": [
      {
        "ticks": 0,
        "timeSignature": [
          4,
          4
        ],
        "measures": 0
      }
    ]
  },
  "tracks": [
    {
      "channel": 1,
      "controlChanges": {
        "7": [
          {
            "number": 7,
            "ticks": 1536,
            "time": 2,
            "value": 0.9448818897637795
          }
        ]
      },
      "pitchBends": [],
      "instrument": {
        "family": "bass",
        "number": 32,
        "name": "acoustic bass"
      },
      "name": "ACOU BASS",
      "notes": [
        {
          "duration": 0.658854166666667,
          "durationTicks": 506,
          "midi": 48,
          "name": "C3",
          "ticks": 3072,
          "time": 4,
          "velocity": 0.889763779527559
        },
        {
          "duration": 0.18489583333333304,
          "durationTicks": 142,
          "midi": 48,
          "name": "C3",
          "ticks": 3648,
          "time": 4.75,
          "velocity": 0.7165354330708661
        },
        {
          "duration": 0.15364583333333304,
          "durationTicks": 118,
          "midi": 48,
          "name": "C3",
          "ticks": 3840,
          "time": 5,
          "velocity": 0.7165354330708661
        },
        {
          "duration": 0.15625,
          "durationTicks": 120,
          "midi": 48,
          "name": "C3",
          "ticks": 4032,
          "time": 5.25,
          "velocity": 0.7874015748031497
        },
        {
          "duration": 0.2578125,
          "durationTicks": 198,
          "midi": 48,
          "name": "C3",
          "ticks": 4224,
          "time": 5.5,
          "velocity": 0.8267716535433071
        },
        {
          "duration": 0.24479166666666696,
          "durationTicks": 188,
          "midi": 49,
          "name": "C#3",
          "ticks": 4416,
          "time": 5.75,
          "velocity": 0.8267716535433071
        },
        {
          "duration": 0.40364583333333304,
          "durationTicks": 310,
          "midi": 50,
          "name": "D3",
          "ticks": 4608,
          "time": 6,
          "velocity": 0.8267716535433071
        },
        {
          "duration": 0.40885416666666696,
          "durationTicks": 314,
          "midi": 50,
          "name": "D3",
          "ticks": 4992,
          "time": 6.5,
          "velocity": 0.7165354330708661
        },
        {
          "duration": 0.14322916666666696,
          "durationTicks": 110,
          "midi": 50,
          "name": "D3",
          "ticks": 5376,
          "time": 7,
          "velocity": 0.7007874015748031
        },
        {
          "duration": 0.36458333333333304,
          "durationTicks": 280,
          "midi": 50,
          "name": "D3",
          "ticks": 5568,
          "time": 7.25,
          "velocity": 0.7480314960629921
        },
        {
          "duration": 0.13802083333333304,
          "durationTicks": 106,
          "midi": 50,
          "name": "D3",
          "ticks": 5952,
          "time": 7.75,
          "velocity": 0.7322834645669292
        },
        {
          "duration": 0.4114583333333339,
          "durationTicks": 316,
          "midi": 53,
          "name": "F3",
          "ticks": 6144,
          "time": 8,
          "velocity": 0.8267716535433071
        },
        {
          "duration": 0.2916666666666661,
          "durationTicks": 224,
          "midi": 53,
          "name": "F3",
          "ticks": 6528,
          "time": 8.5,
          "velocity": 0.8031496062992126
        },
        {
          "duration": 0.23177083333333393,
          "durationTicks": 178,
          "midi": 41,
          "name": "F2",
          "ticks": 6720,
          "time": 8.75,
          "velocity": 0.7165354330708661
        },
        {
          "duration": 0.3229166666666661,
          "durationTicks": 248,
          "midi": 53,
          "name": "F3",
          "ticks": 6912,
          "time": 9,
          "velocity": 0.7716535433070866
        },
        {
          "duration": 0.2526041666666661,
          "durationTicks": 194,
          "midi": 41,
          "name": "F2",
          "ticks": 7104,
          "time": 9.25,
          "velocity": 0.8031496062992126
        },
        {
          "duration": 0.23177083333333393,
          "durationTicks": 178,
          "midi": 53,
          "name": "F3",
          "ticks": 7296,
          "time": 9.5,
          "velocity": 0.7874015748031497
        },
        {
          "duration": 0.20572916666666607,
          "durationTicks": 158,
          "midi": 54,
          "name": "F#3",
          "ticks": 7488,
          "time": 9.75,
          "velocity": 0.6692913385826772
        },
        {
          "duration": 0.4270833333333339,
          "durationTicks": 328,
          "midi": 55,
          "name": "G3",
          "ticks": 7680,
          "time": 10,
          "velocity": 0.7874015748031497
        },
        {
          "duration": 0.28125,
          "durationTicks": 216,
          "midi": 55,
          "name": "G3",
          "ticks": 8064,
          "time": 10.5,
          "velocity": 0.7716535433070866
        },
        {
          "duration": 0.22395833333333393,
          "durationTicks": 172,
          "midi": 43,
          "name": "G2",
          "ticks": 8256,
          "time": 10.75,
          "velocity": 0.7716535433070866
        },
        {
          "duration": 0.3359375,
          "durationTicks": 258,
          "midi": 55,
          "name": "G3",
          "ticks": 8448,
          "time": 11,
          "velocity": 0.7322834645669292
        },
        {
          "duration": 0.21875,
          "durationTicks": 168,
          "midi": 43,
          "name": "G2",
          "ticks": 8640,
          "time": 11.25,
          "velocity": 0.7874015748031497
        },
        {
          "duration": 0.234375,
          "durationTicks": 180,
          "midi": 55,
          "name": "G3",
          "ticks": 8832,
          "time": 11.5,
          "velocity": 0.7007874015748031
        },
        {
          "duration": 0.22135416666666607,
          "durationTicks": 170,
          "midi": 43,
          "name": "G2",
          "ticks": 9024,
          "time": 11.75,
          "velocity": 0.8031496062992126
        },
        {
          "duration": 0.4270833333333339,
          "durationTicks": 328,
          "midi": 48,
          "name": "C3",
          "ticks": 9216,
          "time": 12,
          "velocity": 0.8031496062992126
        },
        {
          "duration": 0.4036458333333339,
          "durationTicks": 310,
          "midi": 48,
          "name": "C3",
          "ticks": 9600,
          "time": 12.5,
          "velocity": 0.7874015748031497
        },
        {
          "duration": 0.14583333333333393,
          "durationTicks": 112,
          "midi": 48,
          "name": "C3",
          "ticks": 9984,
          "time": 13,
          "velocity": 0.7716535433070866
        },
        {
          "duration": 0.3958333333333339,
          "durationTicks": 304,
          "midi": 48,
          "name": "C3",
          "ticks": 10176,
          "time": 13.25,
          "velocity": 0.8031496062992126
        },
        {
          "duration": 0.18229166666666607,
          "durationTicks": 140,
          "midi": 48,
          "name": "C3",
          "ticks": 10560,
          "time": 13.75,
          "velocity": 0.7716535433070866
        },
        {
          "duration": 0.4270833333333339,
          "durationTicks": 328,
          "midi": 50,
          "name": "D3",
          "ticks": 10752,
          "time": 14,
          "velocity": 0.8661417322834646
        },
        {
          "duration": 0.17447916666666607,
          "durationTicks": 134,
          "midi": 50,
          "name": "D3",
          "ticks": 11136,
          "time": 14.5,
          "velocity": 0.7007874015748031
        },
        {
          "duration": 0.140625,
          "durationTicks": 108,
          "midi": 50,
          "name": "D3",
          "ticks": 11328,
          "time": 14.75,
          "velocity": 0.7322834645669292
        },
        {
          "duration": 0.13020833333333393,
          "durationTicks": 100,
          "midi": 50,
          "name": "D3",
          "ticks": 11520,
          "time": 15,
          "velocity": 0.8031496062992126
        },
        {
          "duration": 0.34375,
          "durationTicks": 264,
          "midi": 50,
          "name": "D3",
          "ticks": 11712,
          "time": 15.25,
          "velocity": 0.7874015748031497
        },
        {
          "duration": 0.21875,
          "durationTicks": 168,
          "midi": 52,
          "name": "E3",
          "ticks": 12096,
          "time": 15.75,
          "velocity": 0.8267716535433071
        },
        {
          "duration": 0.43229166666666785,
          "durationTicks": 332,
          "midi": 53,
          "name": "F3",
          "ticks": 12288,
          "time": 16,
          "velocity": 0.8031496062992126
        },
        {
          "duration": 0.265625,
          "durationTicks": 204,
          "midi": 53,
          "name": "F3",
          "ticks": 12672,
          "time": 16.5,
          "velocity": 0.7874015748031497
        },
        {
          "duration": 0.23958333333333215,
          "durationTicks": 184,
          "midi": 41,
          "name": "F2",
          "ticks": 12864,
          "time": 16.75,
          "velocity": 0.7874015748031497
        },
        {
          "duration": 0.32291666666666785,
          "durationTicks": 248,
          "midi": 53,
          "name": "F3",
          "ticks": 13056,
          "time": 17,
          "velocity": 0.7165354330708661
        },
        {
          "duration": 0.23958333333333215,
          "durationTicks": 184,
          "midi": 41,
          "name": "F2",
          "ticks": 13248,
          "time": 17.25,
          "velocity": 0.7716535433070866
        },
        {
          "duration": 0.23958333333333215,
          "durationTicks": 184,
          "midi": 53,
          "name": "F3",
          "ticks": 13440,
          "time": 17.5,
          "velocity": 0.7716535433070866
        },
        {
          "duration": 0.19270833333333215,
          "durationTicks": 148,
          "midi": 54,
          "name": "F#3",
          "ticks": 13632,
          "time": 17.75,
          "velocity": 0.6692913385826772
        },
        {
          "duration": 0.42708333333333215,
          "durationTicks": 328,
          "midi": 55,
          "name": "G3",
          "ticks": 13824,
          "time": 18,
          "velocity": 0.6850393700787402
        },
        {
          "duration": 0.3125,
          "durationTicks": 240,
          "midi": 55,
          "name": "G3",
          "ticks": 14208,
          "time": 18.5,
          "velocity": 0.7716535433070866
        },
        {
          "duration": 0.22395833333333215,
          "durationTicks": 172,
          "midi": 43,
          "name": "G2",
          "ticks": 14400,
          "time": 18.75,
          "velocity": 0.8031496062992126
        },
        {
          "duration": 0.34895833333333215,
          "durationTicks": 268,
          "midi": 55,
          "name": "G3",
          "ticks": 14592,
          "time": 19,
          "velocity": 0.7007874015748031
        },
        {
          "duration": 0.21875,
          "durationTicks": 168,
          "midi": 43,
          "name": "G2",
          "ticks": 14784,
          "time": 19.25,
          "velocity": 0.8031496062992126
        },
        {
          "duration": 0.33072916666666785,
          "durationTicks": 254,
          "midi": 55,
          "name": "G3",
          "ticks": 14976,
          "time": 19.5,
          "velocity": 0.6850393700787402
        },
        {
          "duration": 0.42708333333333215,
          "durationTicks": 328,
          "midi": 48,
          "name": "C3",
          "ticks": 15360,
          "time": 20,
          "velocity": 0.8031496062992126
        },
        {
          "duration": 0.40364583333333215,
          "durationTicks": 310,
          "midi": 48,
          "name": "C3",
          "ticks": 15744,
          "time": 20.5,
          "velocity": 0.7874015748031497
        },
        {
          "duration": 0.14583333333333215,
          "durationTicks": 112,
          "midi": 48,
          "name": "C3",
          "ticks": 16128,
          "time": 21,
          "velocity": 0.7716535433070866
        },
        {
          "duration": 0.39583333333333215,
          "durationTicks": 304,
          "midi": 48,
          "name": "C3",
          "ticks": 16320,
          "time": 21.25,
          "velocity": 0.8031496062992126
        },
        {
          "duration": 0.18229166666666785,
          "durationTicks": 140,
          "midi": 48,
          "name": "C3",
          "ticks": 16704,
          "time": 21.75,
          "velocity": 0.7716535433070866
        },
        {
          "duration": 0.42708333333333215,
          "durationTicks": 328,
          "midi": 50,
          "name": "D3",
          "ticks": 16896,
          "time": 22,
          "velocity": 0.8661417322834646
        },
        {
          "duration": 0.17447916666666785,
          "durationTicks": 134,
          "midi": 50,
          "name": "D3",
          "ticks": 17280,
          "time": 22.5,
          "velocity": 0.7007874015748031
        },
        {
          "duration": 0.140625,
          "durationTicks": 108,
          "midi": 50,
          "name": "D3",
          "ticks": 17472,
          "time": 22.75,
          "velocity": 0.7322834645669292
        },
        {
          "duration": 0.13020833333333215,
          "durationTicks": 100,
          "midi": 50,
          "name": "D3",
          "ticks": 17664,
          "time": 23,
          "velocity": 0.8031496062992126
        },
        {
          "duration": 0.34375,
          "durationTicks": 264,
          "midi": 50,
          "name": "D3",
          "ticks": 17856,
          "time": 23.25,
          "velocity": 0.7874015748031497
        },
        {
          "duration": 0.21875,
          "durationTicks": 168,
          "midi": 52,
          "name": "E3",
          "ticks": 18240,
          "time": 23.75,
          "velocity": 0.8267716535433071
        },
        {
          "duration": 0.43229166666666785,
          "durationTicks": 332,
          "midi": 53,
          "name": "F3",
          "ticks": 18432,
          "time": 24,
          "velocity": 0.8031496062992126
        },
        {
          "duration": 0.265625,
          "durationTicks": 204,
          "midi": 53,
          "name": "F3",
          "ticks": 18816,
          "time": 24.5,
          "velocity": 0.7874015748031497
        },
        {
          "duration": 0.23958333333333215,
          "durationTicks": 184,
          "midi": 41,
          "name": "F2",
          "ticks": 19008,
          "time": 24.75,
          "velocity": 0.7874015748031497
        },
        {
          "duration": 0.32291666666666785,
          "durationTicks": 248,
          "midi": 53,
          "name": "F3",
          "ticks": 19200,
          "time": 25,
          "velocity": 0.7165354330708661
        },
        {
          "duration": 0.23958333333333215,
          "durationTicks": 184,
          "midi": 41,
          "name": "F2",
          "ticks": 19392,
          "time": 25.25,
          "velocity": 0.7716535433070866
        },
        {
          "duration": 0.23958333333333215,
          "durationTicks": 184,
          "midi": 53,
          "name": "F3",
          "ticks": 19584,
          "time": 25.5,
          "velocity": 0.7716535433070866
        },
        {
          "duration": 0.19270833333333215,
          "durationTicks": 148,
          "midi": 54,
          "name": "F#3",
          "ticks": 19776,
          "time": 25.75,
          "velocity": 0.6692913385826772
        },
        {
          "duration": 0.42708333333333215,
          "durationTicks": 328,
          "midi": 55,
          "name": "G3",
          "ticks": 19968,
          "time": 26,
          "velocity": 0.6850393700787402
        },
        {
          "duration": 0.3125,
          "durationTicks": 240,
          "midi": 55,
          "name": "G3",
          "ticks": 20352,
          "time": 26.5,
          "velocity": 0.7716535433070866
        },
        {
          "duration": 0.22395833333333215,
          "durationTicks": 172,
          "midi": 43,
          "name": "G2",
          "ticks": 20544,
          "time": 26.75,
          "velocity": 0.8031496062992126
        },
        {
          "duration": 0.34895833333333215,
          "durationTicks": 268,
          "midi": 55,
          "name": "G3",
          "ticks": 20736,
          "time": 27,
          "velocity": 0.7007874015748031
        },
        {
          "duration": 0.21875,
          "durationTicks": 168,
          "midi": 43,
          "name": "G2",
          "ticks": 20928,
          "time": 27.25,
          "velocity": 0.8031496062992126
        },
        {
          "duration": 0.33072916666666785,
          "durationTicks": 254,
          "midi": 55,
          "name": "G3",
          "ticks": 21120,
          "time": 27.5,
          "velocity": 0.6850393700787402
        },
        {
          "duration": 0.49739583333333215,
          "durationTicks": 382,
          "midi": 43,
          "name": "G2",
          "ticks": 21504,
          "time": 28,
          "velocity": 0.937007874015748
        },
        {
          "duration": 0.390625,
          "durationTicks": 300,
          "midi": 55,
          "name": "G3",
          "ticks": 21888,
          "time": 28.5,
          "velocity": 0.84251968503937
        },
        {
          "duration": 0.07291666666666785,
          "durationTicks": 56,
          "midi": 43,
          "name": "G2",
          "ticks": 22176,
          "time": 28.875,
          "velocity": 0.7007874015748031
        },
        {
          "duration": 0.13541666666666785,
          "durationTicks": 104,
          "midi": 55,
          "name": "G3",
          "ticks": 22272,
          "time": 29,
          "velocity": 0.7480314960629921
        },
        {
          "duration": 0.29427083333333215,
          "durationTicks": 226,
          "midi": 55,
          "name": "G3",
          "ticks": 22464,
          "time": 29.25,
          "velocity": 0.7874015748031497
        },
        {
          "duration": 0.2265625,
          "durationTicks": 174,
          "midi": 43,
          "name": "G2",
          "ticks": 22656,
          "time": 29.5,
          "velocity": 0.8031496062992126
        },
        {
          "duration": 0.26041666666666785,
          "durationTicks": 200,
          "midi": 55,
          "name": "G3",
          "ticks": 22848,
          "time": 29.75,
          "velocity": 0.8267716535433071
        },
        {
          "duration": 0.46875,
          "durationTicks": 360,
          "midi": 43,
          "name": "G2",
          "ticks": 23040,
          "time": 30,
          "velocity": 0.8267716535433071
        },
        {
          "duration": 0.38020833333333215,
          "durationTicks": 292,
          "midi": 55,
          "name": "G3",
          "ticks": 23424,
          "time": 30.5,
          "velocity": 0.8661417322834646
        },
        {
          "duration": 0.078125,
          "durationTicks": 60,
          "midi": 43,
          "name": "G2",
          "ticks": 23712,
          "time": 30.875,
          "velocity": 0.7007874015748031
        },
        {
          "duration": 0.41666666666666785,
          "durationTicks": 320,
          "midi": 55,
          "name": "G3",
          "ticks": 23808,
          "time": 31,
          "velocity": 0.7165354330708661
        },
        {
          "duration": 0.26041666666666785,
          "durationTicks": 200,
          "midi": 55,
          "name": "G3",
          "ticks": 24192,
          "time": 31.5,
          "velocity": 0.7716535433070866
        },
        {
          "duration": 0.21875,
          "durationTicks": 168,
          "midi": 43,
          "name": "G2",
          "ticks": 24384,
          "time": 31.75,
          "velocity": 0.8031496062992126
        },
        {
          "duration": 0.4010416666666643,
          "durationTicks": 308,
          "midi": 53,
          "name": "F3",
          "ticks": 24576,
          "time": 32,
          "velocity": 0.7716535433070866
        },
        {
          "duration": 0.3723958333333357,
          "durationTicks": 286,
          "midi": 53,
          "name": "F3",
          "ticks": 24960,
          "time": 32.5,
          "velocity": 0.7007874015748031
        },
        {
          "duration": 0.0963541666666643,
          "durationTicks": 74,
          "midi": 41,
          "name": "F2",
          "ticks": 25248,
          "time": 32.875,
          "velocity": 0.6692913385826772
        },
        {
          "duration": 0.1276041666666643,
          "durationTicks": 98,
          "midi": 53,
          "name": "F3",
          "ticks": 25344,
          "time": 33,
          "velocity": 0.7480314960629921
        },
        {
          "duration": 0.4791666666666643,
          "durationTicks": 368,
          "midi": 53,
          "name": "F3",
          "ticks": 25536,
          "time": 33.25,
          "velocity": 0.7874015748031497
        },
        {
          "duration": 0.265625,
          "durationTicks": 204,
          "midi": 41,
          "name": "F2",
          "ticks": 25920,
          "time": 33.75,
          "velocity": 0.8031496062992126
        },
        {
          "duration": 0.3958333333333357,
          "durationTicks": 304,
          "midi": 53,
          "name": "F3",
          "ticks": 26112,
          "time": 34,
          "velocity": 0.7874015748031497
        },
        {
          "duration": 0.390625,
          "durationTicks": 300,
          "midi": 53,
          "name": "F3",
          "ticks": 26496,
          "time": 34.5,
          "velocity": 0.7874015748031497
        },
        {
          "duration": 0.1041666666666643,
          "durationTicks": 80,
          "midi": 41,
          "name": "F2",
          "ticks": 26784,
          "time": 34.875,
          "velocity": 0.7716535433070866
        },
        {
          "duration": 0.3229166666666643,
          "durationTicks": 248,
          "midi": 53,
          "name": "F3",
          "ticks": 26880,
          "time": 35,
          "velocity": 0.7874015748031497
        },
        {
          "duration": 0.2317708333333357,
          "durationTicks": 178,
          "midi": 41,
          "name": "F2",
          "ticks": 27072,
          "time": 35.25,
          "velocity": 0.8267716535433071
        },
        {
          "duration": 0.2473958333333357,
          "durationTicks": 190,
          "midi": 53,
          "name": "F3",
          "ticks": 27264,
          "time": 35.5,
          "velocity": 0.7716535433070866
        },
        {
          "duration": 0.1953125,
          "durationTicks": 150,
          "midi": 54,
          "name": "F#3",
          "ticks": 27456,
          "time": 35.75,
          "velocity": 0.6692913385826772
        },
        {
          "duration": 0.4166666666666643,
          "durationTicks": 320,
          "midi": 55,
          "name": "G3",
          "ticks": 27648,
          "time": 36,
          "velocity": 0.7716535433070866
        },
        {
          "duration": 0.3958333333333357,
          "durationTicks": 304,
          "midi": 55,
          "name": "G3",
          "ticks": 28032,
          "time": 36.5,
          "velocity": 0.8267716535433071
        },
        {
          "duration": 0.09375,
          "durationTicks": 72,
          "midi": 43,
          "name": "G2",
          "ticks": 28320,
          "time": 36.875,
          "velocity": 0.6692913385826772
        },
        {
          "duration": 0.1145833333333357,
          "durationTicks": 88,
          "midi": 55,
          "name": "G3",
          "ticks": 28416,
          "time": 37,
          "velocity": 0.7165354330708661
        },
        {
          "duration": 0.1770833333333357,
          "durationTicks": 136,
          "midi": 55,
          "name": "G3",
          "ticks": 28608,
          "time": 37.25,
          "velocity": 0.7874015748031497
        },
        {
          "duration": 0.1197916666666643,
          "durationTicks": 92,
          "midi": 55,
          "name": "G3",
          "ticks": 28800,
          "time": 37.5,
          "velocity": 0.7874015748031497
        },
        {
          "duration": 0.1328125,
          "durationTicks": 102,
          "midi": 50,
          "name": "D3",
          "ticks": 28896,
          "time": 37.625,
          "velocity": 0.8267716535433071
        },
        {
          "duration": 0.2135416666666643,
          "durationTicks": 164,
          "midi": 43,
          "name": "G2",
          "ticks": 28992,
          "time": 37.75,
          "velocity": 0.8031496062992126
        },
        {
          "duration": 0.3984375,
          "durationTicks": 306,
          "midi": 43,
          "name": "G2",
          "ticks": 29184,
          "time": 38,
          "velocity": 0.8267716535433071
        },
        {
          "duration": 0.3958333333333357,
          "durationTicks": 304,
          "midi": 55,
          "name": "G3",
          "ticks": 29568,
          "time": 38.5,
          "velocity": 0.7480314960629921
        },
        {
          "duration": 0.0911458333333357,
          "durationTicks": 70,
          "midi": 43,
          "name": "G2",
          "ticks": 29856,
          "time": 38.875,
          "velocity": 0.7874015748031497
        },
        {
          "duration": 0.3125,
          "durationTicks": 240,
          "midi": 55,
          "name": "G3",
          "ticks": 29952,
          "time": 39,
          "velocity": 0.7716535433070866
        },
        {
          "duration": 0.2135416666666643,
          "durationTicks": 164,
          "midi": 43,
          "name": "G2",
          "ticks": 30144,
          "time": 39.25,
          "velocity": 0.8267716535433071
        },
        {
          "duration": 0.3854166666666643,
          "durationTicks": 296,
          "midi": 55,
          "name": "G3",
          "ticks": 30336,
          "time": 39.5,
          "velocity": 0.7716535433070866
        },
        {
          "duration": 0.2161458333333357,
          "durationTicks": 166,
          "midi": 43,
          "name": "G2",
          "ticks": 30528,
          "time": 39.75,
          "velocity": 0.7874015748031497
        },
        {
          "duration": 0.3854166666666643,
          "durationTicks": 296,
          "midi": 53,
          "name": "F3",
          "ticks": 30720,
          "time": 40,
          "velocity": 0.8031496062992126
        },
        {
          "duration": 0.4010416666666643,
          "durationTicks": 308,
          "midi": 53,
          "name": "F3",
          "ticks": 31104,
          "time": 40.5,
          "velocity": 0.7874015748031497
        },
        {
          "duration": 0.0885416666666643,
          "durationTicks": 68,
          "midi": 41,
          "name": "F2",
          "ticks": 31392,
          "time": 40.875,
          "velocity": 0.7322834645669292
        },
        {
          "duration": 0.1380208333333357,
          "durationTicks": 106,
          "midi": 53,
          "name": "F3",
          "ticks": 31488,
          "time": 41,
          "velocity": 0.6850393700787402
        },
        {
          "duration": 0.5260416666666643,
          "durationTicks": 404,
          "midi": 53,
          "name": "F3",
          "ticks": 31680,
          "time": 41.25,
          "velocity": 0.8031496062992126
        },
        {
          "duration": 0.2473958333333357,
          "durationTicks": 190,
          "midi": 41,
          "name": "F2",
          "ticks": 32064,
          "time": 41.75,
          "velocity": 0.84251968503937
        },
        {
          "duration": 0.3828125,
          "durationTicks": 294,
          "midi": 53,
          "name": "F3",
          "ticks": 32256,
          "time": 42,
          "velocity": 0.8267716535433071
        },
        {
          "duration": 0.3697916666666643,
          "durationTicks": 284,
          "midi": 53,
          "name": "F3",
          "ticks": 32640,
          "time": 42.5,
          "velocity": 0.8267716535433071
        },
        {
          "duration": 0.1041666666666643,
          "durationTicks": 80,
          "midi": 41,
          "name": "F2",
          "ticks": 32928,
          "time": 42.875,
          "velocity": 0.7874015748031497
        },
        {
          "duration": 0.3645833333333357,
          "durationTicks": 280,
          "midi": 53,
          "name": "F3",
          "ticks": 33024,
          "time": 43,
          "velocity": 0.7874015748031497
        },
        {
          "duration": 0.2161458333333357,
          "durationTicks": 166,
          "midi": 41,
          "name": "F2",
          "ticks": 33216,
          "time": 43.25,
          "velocity": 0.8031496062992126
        },
        {
          "duration": 0.2421875,
          "durationTicks": 186,
          "midi": 53,
          "name": "F3",
          "ticks": 33408,
          "time": 43.5,
          "velocity": 0.84251968503937
        },
        {
          "duration": 0.2005208333333357,
          "durationTicks": 154,
          "midi": 54,
          "name": "F#3",
          "ticks": 33600,
          "time": 43.75,
          "velocity": 0.6299212598425197
        },
        {
          "duration": 0.4088541666666643,
          "durationTicks": 314,
          "midi": 55,
          "name": "G3",
          "ticks": 33792,
          "time": 44,
          "velocity": 0.8031496062992126
        },
        {
          "duration": 0.4010416666666643,
          "durationTicks": 308,
          "midi": 55,
          "name": "G3",
          "ticks": 34176,
          "time": 44.5,
          "velocity": 0.8031496062992126
        },
        {
          "duration": 0.0807291666666643,
          "durationTicks": 62,
          "midi": 43,
          "name": "G2",
          "ticks": 34464,
          "time": 44.875,
          "velocity": 0.7165354330708661
        },
        {
          "duration": 0.1276041666666643,
          "durationTicks": 98,
          "midi": 55,
          "name": "G3",
          "ticks": 34560,
          "time": 45,
          "velocity": 0.7480314960629921
        },
        {
          "duration": 0.4401041666666643,
          "durationTicks": 338,
          "midi": 55,
          "name": "G3",
          "ticks": 34752,
          "time": 45.25,
          "velocity": 0.8267716535433071
        },
        {
          "duration": 0.2395833333333357,
          "durationTicks": 184,
          "midi": 50,
          "name": "D3",
          "ticks": 35136,
          "time": 45.75,
          "velocity": 0.8267716535433071
        },
        {
          "duration": 0.4739583333333357,
          "durationTicks": 364,
          "midi": 43,
          "name": "G2",
          "ticks": 35328,
          "time": 46,
          "velocity": 0.84251968503937
        },
        {
          "duration": 0.3854166666666643,
          "durationTicks": 296,
          "midi": 55,
          "name": "G3",
          "ticks": 35712,
          "time": 46.5,
          "velocity": 0.7874015748031497
        },
        {
          "duration": 0.078125,
          "durationTicks": 60,
          "midi": 43,
          "name": "G2",
          "ticks": 36000,
          "time": 46.875,
          "velocity": 0.6850393700787402
        },
        {
          "duration": 0.3489583333333357,
          "durationTicks": 268,
          "midi": 55,
          "name": "G3",
          "ticks": 36096,
          "time": 47,
          "velocity": 0.7480314960629921
        },
        {
          "duration": 0.2395833333333357,
          "durationTicks": 184,
          "midi": 43,
          "name": "G2",
          "ticks": 36288,
          "time": 47.25,
          "velocity": 0.7874015748031497
        },
        {
          "duration": 0.25,
          "durationTicks": 192,
          "midi": 55,
          "name": "G3",
          "ticks": 36480,
          "time": 47.5,
          "velocity": 0.7874015748031497
        },
        {
          "duration": 0.1953125,
          "durationTicks": 150,
          "midi": 56,
          "name": "G#3",
          "ticks": 36672,
          "time": 47.75,
          "velocity": 0.6850393700787402
        },
        {
          "duration": 0.421875,
          "durationTicks": 324,
          "midi": 57,
          "name": "A3",
          "ticks": 36864,
          "time": 48,
          "velocity": 0.7874015748031497
        },
        {
          "duration": 0.4505208333333357,
          "durationTicks": 346,
          "midi": 57,
          "name": "A3",
          "ticks": 37248,
          "time": 48.5,
          "velocity": 0.8031496062992126
        },
        {
          "duration": 0.0989583333333357,
          "durationTicks": 76,
          "midi": 52,
          "name": "E3",
          "ticks": 37632,
          "time": 49,
          "velocity": 0.7165354330708661
        },
        {
          "duration": 0.359375,
          "durationTicks": 276,
          "midi": 52,
          "name": "E3",
          "ticks": 37824,
          "time": 49.25,
          "velocity": 0.8267716535433071
        },
        {
          "duration": 0.1875,
          "durationTicks": 144,
          "midi": 55,
          "name": "G3",
          "ticks": 38208,
          "time": 49.75,
          "velocity": 0.8031496062992126
        },
        {
          "duration": 0.40625,
          "durationTicks": 312,
          "midi": 57,
          "name": "A3",
          "ticks": 38400,
          "time": 50,
          "velocity": 0.7874015748031497
        },
        {
          "duration": 0.4036458333333357,
          "durationTicks": 310,
          "midi": 57,
          "name": "A3",
          "ticks": 38784,
          "time": 50.5,
          "velocity": 0.8267716535433071
        },
        {
          "duration": 0.0911458333333357,
          "durationTicks": 70,
          "midi": 45,
          "name": "A2",
          "ticks": 39072,
          "time": 50.875,
          "velocity": 0.7480314960629921
        },
        {
          "duration": 0.3645833333333357,
          "durationTicks": 280,
          "midi": 57,
          "name": "A3",
          "ticks": 39168,
          "time": 51,
          "velocity": 0.7480314960629921
        },
        {
          "duration": 0.2291666666666643,
          "durationTicks": 176,
          "midi": 45,
          "name": "A2",
          "ticks": 39360,
          "time": 51.25,
          "velocity": 0.8267716535433071
        },
        {
          "duration": 0.2447916666666643,
          "durationTicks": 188,
          "midi": 57,
          "name": "A3",
          "ticks": 39552,
          "time": 51.5,
          "velocity": 0.7716535433070866
        },
        {
          "duration": 0.2395833333333357,
          "durationTicks": 184,
          "midi": 45,
          "name": "A2",
          "ticks": 39744,
          "time": 51.75,
          "velocity": 0.8031496062992126
        },
        {
          "duration": 0.3932291666666643,
          "durationTicks": 302,
          "midi": 50,
          "name": "D3",
          "ticks": 39936,
          "time": 52,
          "velocity": 0.8031496062992126
        },
        {
          "duration": 0.3567708333333357,
          "durationTicks": 274,
          "midi": 50,
          "name": "D3",
          "ticks": 40320,
          "time": 52.5,
          "velocity": 0.8661417322834646
        },
        {
          "duration": 0.0989583333333357,
          "durationTicks": 76,
          "midi": 45,
          "name": "A2",
          "ticks": 40608,
          "time": 52.875,
          "velocity": 0.6456692913385826
        },
        {
          "duration": 0.1197916666666643,
          "durationTicks": 92,
          "midi": 50,
          "name": "D3",
          "ticks": 40704,
          "time": 53,
          "velocity": 0.7874015748031497
        },
        {
          "duration": 0.4973958333333357,
          "durationTicks": 382,
          "midi": 50,
          "name": "D3",
          "ticks": 40896,
          "time": 53.25,
          "velocity": 0.8661417322834646
        },
        {
          "duration": 0.234375,
          "durationTicks": 180,
          "midi": 45,
          "name": "A2",
          "ticks": 41280,
          "time": 53.75,
          "velocity": 0.8031496062992126
        },
        {
          "duration": 0.390625,
          "durationTicks": 300,
          "midi": 50,
          "name": "D3",
          "ticks": 41472,
          "time": 54,
          "velocity": 0.84251968503937
        },
        {
          "duration": 0.375,
          "durationTicks": 288,
          "midi": 50,
          "name": "D3",
          "ticks": 41856,
          "time": 54.5,
          "velocity": 0.8267716535433071
        },
        {
          "duration": 0.0963541666666643,
          "durationTicks": 74,
          "midi": 45,
          "name": "A2",
          "ticks": 42144,
          "time": 54.875,
          "velocity": 0.7716535433070866
        },
        {
          "duration": 0.3020833333333357,
          "durationTicks": 232,
          "midi": 50,
          "name": "D3",
          "ticks": 42240,
          "time": 55,
          "velocity": 0.84251968503937
        },
        {
          "duration": 0.2291666666666643,
          "durationTicks": 176,
          "midi": 45,
          "name": "A2",
          "ticks": 42432,
          "time": 55.25,
          "velocity": 0.84251968503937
        },
        {
          "duration": 0.2630208333333357,
          "durationTicks": 202,
          "midi": 50,
          "name": "D3",
          "ticks": 42624,
          "time": 55.5,
          "velocity": 0.889763779527559
        },
        {
          "duration": 0.2213541666666643,
          "durationTicks": 170,
          "midi": 45,
          "name": "A2",
          "ticks": 42816,
          "time": 55.75,
          "velocity": 0.7874015748031497
        },
        {
          "duration": 0.421875,
          "durationTicks": 324,
          "midi": 55,
          "name": "G3",
          "ticks": 43008,
          "time": 56,
          "velocity": 0.7716535433070866
        },
        {
          "duration": 0.4166666666666643,
          "durationTicks": 320,
          "midi": 55,
          "name": "G3",
          "ticks": 43392,
          "time": 56.5,
          "velocity": 0.8031496062992126
        },
        {
          "duration": 0.40625,
          "durationTicks": 312,
          "midi": 53,
          "name": "F3",
          "ticks": 43776,
          "time": 57,
          "velocity": 0.8031496062992126
        },
        {
          "duration": 0.3776041666666643,
          "durationTicks": 290,
          "midi": 53,
          "name": "F3",
          "ticks": 44160,
          "time": 57.5,
          "velocity": 0.7165354330708661
        },
        {
          "duration": 0.3984375,
          "durationTicks": 306,
          "midi": 52,
          "name": "E3",
          "ticks": 44544,
          "time": 58,
          "velocity": 0.8031496062992126
        },
        {
          "duration": 0.3854166666666643,
          "durationTicks": 296,
          "midi": 52,
          "name": "E3",
          "ticks": 44928,
          "time": 58.5,
          "velocity": 0.84251968503937
        },
        {
          "duration": 0.4270833333333357,
          "durationTicks": 328,
          "midi": 50,
          "name": "D3",
          "ticks": 45312,
          "time": 59,
          "velocity": 0.8267716535433071
        },
        {
          "duration": 0.3854166666666643,
          "durationTicks": 296,
          "midi": 43,
          "name": "G2",
          "ticks": 45696,
          "time": 59.5,
          "velocity": 0.9133858267716536
        },
        {
          "duration": 0.4270833333333357,
          "durationTicks": 328,
          "midi": 48,
          "name": "C3",
          "ticks": 46080,
          "time": 60,
          "velocity": 0.8031496062992126
        },
        {
          "duration": 0.4036458333333357,
          "durationTicks": 310,
          "midi": 48,
          "name": "C3",
          "ticks": 46464,
          "time": 60.5,
          "velocity": 0.7874015748031497
        },
        {
          "duration": 0.1458333333333357,
          "durationTicks": 112,
          "midi": 48,
          "name": "C3",
          "ticks": 46848,
          "time": 61,
          "velocity": 0.7716535433070866
        },
        {
          "duration": 0.3958333333333357,
          "durationTicks": 304,
          "midi": 48,
          "name": "C3",
          "ticks": 47040,
          "time": 61.25,
          "velocity": 0.8031496062992126
        },
        {
          "duration": 0.1822916666666643,
          "durationTicks": 140,
          "midi": 48,
          "name": "C3",
          "ticks": 47424,
          "time": 61.75,
          "velocity": 0.7716535433070866
        },
        {
          "duration": 0.4270833333333357,
          "durationTicks": 328,
          "midi": 50,
          "name": "D3",
          "ticks": 47616,
          "time": 62,
          "velocity": 0.8661417322834646
        },
        {
          "duration": 0.1744791666666643,
          "durationTicks": 134,
          "midi": 50,
          "name": "D3",
          "ticks": 48000,
          "time": 62.5,
          "velocity": 0.7007874015748031
        },
        {
          "duration": 0.140625,
          "durationTicks": 108,
          "midi": 50,
          "name": "D3",
          "ticks": 48192,
          "time": 62.75,
          "velocity": 0.7322834645669292
        },
        {
          "duration": 0.1302083333333357,
          "durationTicks": 100,
          "midi": 50,
          "name": "D3",
          "ticks": 48384,
          "time": 63,
          "velocity": 0.8031496062992126
        },
        {
          "duration": 0.34375,
          "durationTicks": 264,
          "midi": 50,
          "name": "D3",
          "ticks": 48576,
          "time": 63.25,
          "velocity": 0.7874015748031497
        },
        {
          "duration": 0.21875,
          "durationTicks": 168,
          "midi": 52,
          "name": "E3",
          "ticks": 48960,
          "time": 63.75,
          "velocity": 0.8267716535433071
        },
        {
          "duration": 0.4322916666666714,
          "durationTicks": 332,
          "midi": 53,
          "name": "F3",
          "ticks": 49152,
          "time": 64,
          "velocity": 0.8031496062992126
        },
        {
          "duration": 0.265625,
          "durationTicks": 204,
          "midi": 53,
          "name": "F3",
          "ticks": 49536,
          "time": 64.5,
          "velocity": 0.7874015748031497
        },
        {
          "duration": 0.2395833333333286,
          "durationTicks": 184,
          "midi": 41,
          "name": "F2",
          "ticks": 49728,
          "time": 64.75,
          "velocity": 0.7874015748031497
        },
        {
          "duration": 0.3229166666666714,
          "durationTicks": 248,
          "midi": 53,
          "name": "F3",
          "ticks": 49920,
          "time": 65,
          "velocity": 0.7165354330708661
        },
        {
          "duration": 0.2395833333333286,
          "durationTicks": 184,
          "midi": 41,
          "name": "F2",
          "ticks": 50112,
          "time": 65.25,
          "velocity": 0.7716535433070866
        },
        {
          "duration": 0.2395833333333286,
          "durationTicks": 184,
          "midi": 53,
          "name": "F3",
          "ticks": 50304,
          "time": 65.5,
          "velocity": 0.7716535433070866
        },
        {
          "duration": 0.1927083333333286,
          "durationTicks": 148,
          "midi": 54,
          "name": "F#3",
          "ticks": 50496,
          "time": 65.75,
          "velocity": 0.6692913385826772
        },
        {
          "duration": 0.4270833333333286,
          "durationTicks": 328,
          "midi": 55,
          "name": "G3",
          "ticks": 50688,
          "time": 66,
          "velocity": 0.6850393700787402
        },
        {
          "duration": 0.3125,
          "durationTicks": 240,
          "midi": 55,
          "name": "G3",
          "ticks": 51072,
          "time": 66.5,
          "velocity": 0.7716535433070866
        },
        {
          "duration": 0.2239583333333286,
          "durationTicks": 172,
          "midi": 43,
          "name": "G2",
          "ticks": 51264,
          "time": 66.75,
          "velocity": 0.8031496062992126
        },
        {
          "duration": 0.3489583333333286,
          "durationTicks": 268,
          "midi": 55,
          "name": "G3",
          "ticks": 51456,
          "time": 67,
          "velocity": 0.7007874015748031
        },
        {
          "duration": 0.21875,
          "durationTicks": 168,
          "midi": 43,
          "name": "G2",
          "ticks": 51648,
          "time": 67.25,
          "velocity": 0.8031496062992126
        },
        {
          "duration": 0.3307291666666714,
          "durationTicks": 254,
          "midi": 55,
          "name": "G3",
          "ticks": 51840,
          "time": 67.5,
          "velocity": 0.6850393700787402
        },
        {
          "duration": 0.4270833333333286,
          "durationTicks": 328,
          "midi": 48,
          "name": "C3",
          "ticks": 52224,
          "time": 68,
          "velocity": 0.8031496062992126
        },
        {
          "duration": 0.4036458333333286,
          "durationTicks": 310,
          "midi": 48,
          "name": "C3",
          "ticks": 52608,
          "time": 68.5,
          "velocity": 0.7874015748031497
        },
        {
          "duration": 0.1458333333333286,
          "durationTicks": 112,
          "midi": 48,
          "name": "C3",
          "ticks": 52992,
          "time": 69,
          "velocity": 0.7716535433070866
        },
        {
          "duration": 0.3958333333333286,
          "durationTicks": 304,
          "midi": 48,
          "name": "C3",
          "ticks": 53184,
          "time": 69.25,
          "velocity": 0.8031496062992126
        },
        {
          "duration": 0.1822916666666714,
          "durationTicks": 140,
          "midi": 48,
          "name": "C3",
          "ticks": 53568,
          "time": 69.75,
          "velocity": 0.7716535433070866
        },
        {
          "duration": 0.4270833333333286,
          "durationTicks": 328,
          "midi": 50,
          "name": "D3",
          "ticks": 53760,
          "time": 70,
          "velocity": 0.8661417322834646
        },
        {
          "duration": 0.1744791666666714,
          "durationTicks": 134,
          "midi": 50,
          "name": "D3",
          "ticks": 54144,
          "time": 70.5,
          "velocity": 0.7007874015748031
        },
        {
          "duration": 0.140625,
          "durationTicks": 108,
          "midi": 50,
          "name": "D3",
          "ticks": 54336,
          "time": 70.75,
          "velocity": 0.7322834645669292
        },
        {
          "duration": 0.1302083333333286,
          "durationTicks": 100,
          "midi": 50,
          "name": "D3",
          "ticks": 54528,
          "time": 71,
          "velocity": 0.8031496062992126
        },
        {
          "duration": 0.34375,
          "durationTicks": 264,
          "midi": 50,
          "name": "D3",
          "ticks": 54720,
          "time": 71.25,
          "velocity": 0.7874015748031497
        },
        {
          "duration": 0.21875,
          "durationTicks": 168,
          "midi": 52,
          "name": "E3",
          "ticks": 55104,
          "time": 71.75,
          "velocity": 0.8267716535433071
        },
        {
          "duration": 0.4322916666666714,
          "durationTicks": 332,
          "midi": 53,
          "name": "F3",
          "ticks": 55296,
          "time": 72,
          "velocity": 0.8031496062992126
        },
        {
          "duration": 0.265625,
          "durationTicks": 204,
          "midi": 53,
          "name": "F3",
          "ticks": 55680,
          "time": 72.5,
          "velocity": 0.7874015748031497
        },
        {
          "duration": 0.2395833333333286,
          "durationTicks": 184,
          "midi": 41,
          "name": "F2",
          "ticks": 55872,
          "time": 72.75,
          "velocity": 0.7874015748031497
        },
        {
          "duration": 0.3229166666666714,
          "durationTicks": 248,
          "midi": 53,
          "name": "F3",
          "ticks": 56064,
          "time": 73,
          "velocity": 0.7165354330708661
        },
        {
          "duration": 0.2395833333333286,
          "durationTicks": 184,
          "midi": 41,
          "name": "F2",
          "ticks": 56256,
          "time": 73.25,
          "velocity": 0.7716535433070866
        },
        {
          "duration": 0.2395833333333286,
          "durationTicks": 184,
          "midi": 53,
          "name": "F3",
          "ticks": 56448,
          "time": 73.5,
          "velocity": 0.7716535433070866
        },
        {
          "duration": 0.1927083333333286,
          "durationTicks": 148,
          "midi": 54,
          "name": "F#3",
          "ticks": 56640,
          "time": 73.75,
          "velocity": 0.6692913385826772
        },
        {
          "duration": 0.4270833333333286,
          "durationTicks": 328,
          "midi": 55,
          "name": "G3",
          "ticks": 56832,
          "time": 74,
          "velocity": 0.6850393700787402
        },
        {
          "duration": 0.3125,
          "durationTicks": 240,
          "midi": 55,
          "name": "G3",
          "ticks": 57216,
          "time": 74.5,
          "velocity": 0.7716535433070866
        },
        {
          "duration": 0.2239583333333286,
          "durationTicks": 172,
          "midi": 43,
          "name": "G2",
          "ticks": 57408,
          "time": 74.75,
          "velocity": 0.8031496062992126
        },
        {
          "duration": 0.3489583333333286,
          "durationTicks": 268,
          "midi": 55,
          "name": "G3",
          "ticks": 57600,
          "time": 75,
          "velocity": 0.7007874015748031
        },
        {
          "duration": 0.21875,
          "durationTicks": 168,
          "midi": 43,
          "name": "G2",
          "ticks": 57792,
          "time": 75.25,
          "velocity": 0.8031496062992126
        },
        {
          "duration": 0.3307291666666714,
          "durationTicks": 254,
          "midi": 55,
          "name": "G3",
          "ticks": 57984,
          "time": 75.5,
          "velocity": 0.6850393700787402
        },
        {
          "duration": 0.4973958333333286,
          "durationTicks": 382,
          "midi": 43,
          "name": "G2",
          "ticks": 58368,
          "time": 76,
          "velocity": 0.937007874015748
        },
        {
          "duration": 0.390625,
          "durationTicks": 300,
          "midi": 55,
          "name": "G3",
          "ticks": 58752,
          "time": 76.5,
          "velocity": 0.84251968503937
        },
        {
          "duration": 0.0729166666666714,
          "durationTicks": 56,
          "midi": 43,
          "name": "G2",
          "ticks": 59040,
          "time": 76.875,
          "velocity": 0.7007874015748031
        },
        {
          "duration": 0.1354166666666714,
          "durationTicks": 104,
          "midi": 55,
          "name": "G3",
          "ticks": 59136,
          "time": 77,
          "velocity": 0.7480314960629921
        },
        {
          "duration": 0.2942708333333286,
          "durationTicks": 226,
          "midi": 55,
          "name": "G3",
          "ticks": 59328,
          "time": 77.25,
          "velocity": 0.7874015748031497
        },
        {
          "duration": 0.2265625,
          "durationTicks": 174,
          "midi": 43,
          "name": "G2",
          "ticks": 59520,
          "time": 77.5,
          "velocity": 0.8031496062992126
        },
        {
          "duration": 0.2604166666666714,
          "durationTicks": 200,
          "midi": 55,
          "name": "G3",
          "ticks": 59712,
          "time": 77.75,
          "velocity": 0.8267716535433071
        },
        {
          "duration": 0.46875,
          "durationTicks": 360,
          "midi": 43,
          "name": "G2",
          "ticks": 59904,
          "time": 78,
          "velocity": 0.8267716535433071
        },
        {
          "duration": 0.3802083333333286,
          "durationTicks": 292,
          "midi": 55,
          "name": "G3",
          "ticks": 60288,
          "time": 78.5,
          "velocity": 0.8661417322834646
        },
        {
          "duration": 0.078125,
          "durationTicks": 60,
          "midi": 43,
          "name": "G2",
          "ticks": 60576,
          "time": 78.875,
          "velocity": 0.7007874015748031
        },
        {
          "duration": 0.4166666666666714,
          "durationTicks": 320,
          "midi": 55,
          "name": "G3",
          "ticks": 60672,
          "time": 79,
          "velocity": 0.7165354330708661
        },
        {
          "duration": 0.2604166666666714,
          "durationTicks": 200,
          "midi": 55,
          "name": "G3",
          "ticks": 61056,
          "time": 79.5,
          "velocity": 0.7716535433070866
        },
        {
          "duration": 0.21875,
          "durationTicks": 168,
          "midi": 43,
          "name": "G2",
          "ticks": 61248,
          "time": 79.75,
          "velocity": 0.8031496062992126
        },
        {
          "duration": 0.4010416666666714,
          "durationTicks": 308,
          "midi": 53,
          "name": "F3",
          "ticks": 61440,
          "time": 80,
          "velocity": 0.7716535433070866
        },
        {
          "duration": 0.3723958333333286,
          "durationTicks": 286,
          "midi": 53,
          "name": "F3",
          "ticks": 61824,
          "time": 80.5,
          "velocity": 0.7007874015748031
        },
        {
          "duration": 0.0963541666666714,
          "durationTicks": 74,
          "midi": 41,
          "name": "F2",
          "ticks": 62112,
          "time": 80.875,
          "velocity": 0.6692913385826772
        },
        {
          "duration": 0.1276041666666714,
          "durationTicks": 98,
          "midi": 53,
          "name": "F3",
          "ticks": 62208,
          "time": 81,
          "velocity": 0.7480314960629921
        },
        {
          "duration": 0.4791666666666714,
          "durationTicks": 368,
          "midi": 53,
          "name": "F3",
          "ticks": 62400,
          "time": 81.25,
          "velocity": 0.7874015748031497
        },
        {
          "duration": 0.265625,
          "durationTicks": 204,
          "midi": 41,
          "name": "F2",
          "ticks": 62784,
          "time": 81.75,
          "velocity": 0.8031496062992126
        },
        {
          "duration": 0.3958333333333286,
          "durationTicks": 304,
          "midi": 53,
          "name": "F3",
          "ticks": 62976,
          "time": 82,
          "velocity": 0.7874015748031497
        },
        {
          "duration": 0.390625,
          "durationTicks": 300,
          "midi": 53,
          "name": "F3",
          "ticks": 63360,
          "time": 82.5,
          "velocity": 0.7874015748031497
        },
        {
          "duration": 0.1041666666666714,
          "durationTicks": 80,
          "midi": 41,
          "name": "F2",
          "ticks": 63648,
          "time": 82.875,
          "velocity": 0.7716535433070866
        },
        {
          "duration": 0.3229166666666714,
          "durationTicks": 248,
          "midi": 53,
          "name": "F3",
          "ticks": 63744,
          "time": 83,
          "velocity": 0.7874015748031497
        },
        {
          "duration": 0.2317708333333286,
          "durationTicks": 178,
          "midi": 41,
          "name": "F2",
          "ticks": 63936,
          "time": 83.25,
          "velocity": 0.8267716535433071
        },
        {
          "duration": 0.2473958333333286,
          "durationTicks": 190,
          "midi": 53,
          "name": "F3",
          "ticks": 64128,
          "time": 83.5,
          "velocity": 0.7716535433070866
        },
        {
          "duration": 0.1953125,
          "durationTicks": 150,
          "midi": 54,
          "name": "F#3",
          "ticks": 64320,
          "time": 83.75,
          "velocity": 0.6692913385826772
        },
        {
          "duration": 0.4166666666666714,
          "durationTicks": 320,
          "midi": 55,
          "name": "G3",
          "ticks": 64512,
          "time": 84,
          "velocity": 0.7716535433070866
        },
        {
          "duration": 0.3958333333333286,
          "durationTicks": 304,
          "midi": 55,
          "name": "G3",
          "ticks": 64896,
          "time": 84.5,
          "velocity": 0.8267716535433071
        },
        {
          "duration": 0.09375,
          "durationTicks": 72,
          "midi": 43,
          "name": "G2",
          "ticks": 65184,
          "time": 84.875,
          "velocity": 0.6692913385826772
        },
        {
          "duration": 0.1145833333333286,
          "durationTicks": 88,
          "midi": 55,
          "name": "G3",
          "ticks": 65280,
          "time": 85,
          "velocity": 0.7165354330708661
        },
        {
          "duration": 0.1770833333333286,
          "durationTicks": 136,
          "midi": 55,
          "name": "G3",
          "ticks": 65472,
          "time": 85.25,
          "velocity": 0.7874015748031497
        },
        {
          "duration": 0.1197916666666714,
          "durationTicks": 92,
          "midi": 55,
          "name": "G3",
          "ticks": 65664,
          "time": 85.5,
          "velocity": 0.7874015748031497
        },
        {
          "duration": 0.1328125,
          "durationTicks": 102,
          "midi": 50,
          "name": "D3",
          "ticks": 65760,
          "time": 85.625,
          "velocity": 0.8267716535433071
        },
        {
          "duration": 0.2135416666666714,
          "durationTicks": 164,
          "midi": 43,
          "name": "G2",
          "ticks": 65856,
          "time": 85.75,
          "velocity": 0.8031496062992126
        },
        {
          "duration": 0.3984375,
          "durationTicks": 306,
          "midi": 43,
          "name": "G2",
          "ticks": 66048,
          "time": 86,
          "velocity": 0.8267716535433071
        },
        {
          "duration": 0.3958333333333286,
          "durationTicks": 304,
          "midi": 55,
          "name": "G3",
          "ticks": 66432,
          "time": 86.5,
          "velocity": 0.7480314960629921
        },
        {
          "duration": 0.0911458333333286,
          "durationTicks": 70,
          "midi": 43,
          "name": "G2",
          "ticks": 66720,
          "time": 86.875,
          "velocity": 0.7874015748031497
        },
        {
          "duration": 0.3125,
          "durationTicks": 240,
          "midi": 55,
          "name": "G3",
          "ticks": 66816,
          "time": 87,
          "velocity": 0.7716535433070866
        },
        {
          "duration": 0.2135416666666714,
          "durationTicks": 164,
          "midi": 43,
          "name": "G2",
          "ticks": 67008,
          "time": 87.25,
          "velocity": 0.8267716535433071
        },
        {
          "duration": 0.3854166666666714,
          "durationTicks": 296,
          "midi": 55,
          "name": "G3",
          "ticks": 67200,
          "time": 87.5,
          "velocity": 0.7716535433070866
        },
        {
          "duration": 0.2161458333333286,
          "durationTicks": 166,
          "midi": 43,
          "name": "G2",
          "ticks": 67392,
          "time": 87.75,
          "velocity": 0.7874015748031497
        },
        {
          "duration": 0.3854166666666714,
          "durationTicks": 296,
          "midi": 53,
          "name": "F3",
          "ticks": 67584,
          "time": 88,
          "velocity": 0.8031496062992126
        },
        {
          "duration": 0.4010416666666714,
          "durationTicks": 308,
          "midi": 53,
          "name": "F3",
          "ticks": 67968,
          "time": 88.5,
          "velocity": 0.7874015748031497
        },
        {
          "duration": 0.0885416666666714,
          "durationTicks": 68,
          "midi": 41,
          "name": "F2",
          "ticks": 68256,
          "time": 88.875,
          "velocity": 0.7322834645669292
        },
        {
          "duration": 0.1380208333333286,
          "durationTicks": 106,
          "midi": 53,
          "name": "F3",
          "ticks": 68352,
          "time": 89,
          "velocity": 0.6850393700787402
        },
        {
          "duration": 0.5260416666666714,
          "durationTicks": 404,
          "midi": 53,
          "name": "F3",
          "ticks": 68544,
          "time": 89.25,
          "velocity": 0.8031496062992126
        },
        {
          "duration": 0.2473958333333286,
          "durationTicks": 190,
          "midi": 41,
          "name": "F2",
          "ticks": 68928,
          "time": 89.75,
          "velocity": 0.84251968503937
        },
        {
          "duration": 0.3828125,
          "durationTicks": 294,
          "midi": 53,
          "name": "F3",
          "ticks": 69120,
          "time": 90,
          "velocity": 0.8267716535433071
        },
        {
          "duration": 0.3697916666666714,
          "durationTicks": 284,
          "midi": 53,
          "name": "F3",
          "ticks": 69504,
          "time": 90.5,
          "velocity": 0.8267716535433071
        },
        {
          "duration": 0.1041666666666714,
          "durationTicks": 80,
          "midi": 41,
          "name": "F2",
          "ticks": 69792,
          "time": 90.875,
          "velocity": 0.7874015748031497
        },
        {
          "duration": 0.3645833333333286,
          "durationTicks": 280,
          "midi": 53,
          "name": "F3",
          "ticks": 69888,
          "time": 91,
          "velocity": 0.7874015748031497
        },
        {
          "duration": 0.2161458333333286,
          "durationTicks": 166,
          "midi": 41,
          "name": "F2",
          "ticks": 70080,
          "time": 91.25,
          "velocity": 0.8031496062992126
        },
        {
          "duration": 0.2421875,
          "durationTicks": 186,
          "midi": 53,
          "name": "F3",
          "ticks": 70272,
          "time": 91.5,
          "velocity": 0.84251968503937
        },
        {
          "duration": 0.2005208333333286,
          "durationTicks": 154,
          "midi": 54,
          "name": "F#3",
          "ticks": 70464,
          "time": 91.75,
          "velocity": 0.6299212598425197
        },
        {
          "duration": 0.4088541666666714,
          "durationTicks": 314,
          "midi": 55,
          "name": "G3",
          "ticks": 70656,
          "time": 92,
          "velocity": 0.8031496062992126
        },
        {
          "duration": 0.4010416666666714,
          "durationTicks": 308,
          "midi": 55,
          "name": "G3",
          "ticks": 71040,
          "time": 92.5,
          "velocity": 0.8031496062992126
        },
        {
          "duration": 0.0807291666666714,
          "durationTicks": 62,
          "midi": 43,
          "name": "G2",
          "ticks": 71328,
          "time": 92.875,
          "velocity": 0.7165354330708661
        },
        {
          "duration": 0.1276041666666714,
          "durationTicks": 98,
          "midi": 55,
          "name": "G3",
          "ticks": 71424,
          "time": 93,
          "velocity": 0.7480314960629921
        },
        {
          "duration": 0.4401041666666714,
          "durationTicks": 338,
          "midi": 55,
          "name": "G3",
          "ticks": 71616,
          "time": 93.25,
          "velocity": 0.8267716535433071
        },
        {
          "duration": 0.2395833333333286,
          "durationTicks": 184,
          "midi": 50,
          "name": "D3",
          "ticks": 72000,
          "time": 93.75,
          "velocity": 0.8267716535433071
        },
        {
          "duration": 0.4739583333333286,
          "durationTicks": 364,
          "midi": 43,
          "name": "G2",
          "ticks": 72192,
          "time": 94,
          "velocity": 0.84251968503937
        },
        {
          "duration": 0.3854166666666714,
          "durationTicks": 296,
          "midi": 55,
          "name": "G3",
          "ticks": 72576,
          "time": 94.5,
          "velocity": 0.7874015748031497
        },
        {
          "duration": 0.078125,
          "durationTicks": 60,
          "midi": 43,
          "name": "G2",
          "ticks": 72864,
          "time": 94.875,
          "velocity": 0.6850393700787402
        },
        {
          "duration": 0.3489583333333286,
          "durationTicks": 268,
          "midi": 55,
          "name": "G3",
          "ticks": 72960,
          "time": 95,
          "velocity": 0.7480314960629921
        },
        {
          "duration": 0.2395833333333286,
          "durationTicks": 184,
          "midi": 43,
          "name": "G2",
          "ticks": 73152,
          "time": 95.25,
          "velocity": 0.7874015748031497
        },
        {
          "duration": 0.25,
          "durationTicks": 192,
          "midi": 55,
          "name": "G3",
          "ticks": 73344,
          "time": 95.5,
          "velocity": 0.7874015748031497
        },
        {
          "duration": 0.1953125,
          "durationTicks": 150,
          "midi": 56,
          "name": "G#3",
          "ticks": 73536,
          "time": 95.75,
          "velocity": 0.6850393700787402
        },
        {
          "duration": 0.421875,
          "durationTicks": 324,
          "midi": 57,
          "name": "A3",
          "ticks": 73728,
          "time": 96,
          "velocity": 0.7874015748031497
        },
        {
          "duration": 0.4505208333333286,
          "durationTicks": 346,
          "midi": 57,
          "name": "A3",
          "ticks": 74112,
          "time": 96.5,
          "velocity": 0.8031496062992126
        },
        {
          "duration": 0.0989583333333286,
          "durationTicks": 76,
          "midi": 52,
          "name": "E3",
          "ticks": 74496,
          "time": 97,
          "velocity": 0.7165354330708661
        },
        {
          "duration": 0.359375,
          "durationTicks": 276,
          "midi": 52,
          "name": "E3",
          "ticks": 74688,
          "time": 97.25,
          "velocity": 0.8267716535433071
        },
        {
          "duration": 0.1875,
          "durationTicks": 144,
          "midi": 55,
          "name": "G3",
          "ticks": 75072,
          "time": 97.75,
          "velocity": 0.8031496062992126
        },
        {
          "duration": 0.40625,
          "durationTicks": 312,
          "midi": 57,
          "name": "A3",
          "ticks": 75264,
          "time": 98,
          "velocity": 0.7874015748031497
        },
        {
          "duration": 0.4036458333333286,
          "durationTicks": 310,
          "midi": 57,
          "name": "A3",
          "ticks": 75648,
          "time": 98.5,
          "velocity": 0.8267716535433071
        },
        {
          "duration": 0.0911458333333286,
          "durationTicks": 70,
          "midi": 45,
          "name": "A2",
          "ticks": 75936,
          "time": 98.875,
          "velocity": 0.7480314960629921
        },
        {
          "duration": 0.3645833333333286,
          "durationTicks": 280,
          "midi": 57,
          "name": "A3",
          "ticks": 76032,
          "time": 99,
          "velocity": 0.7480314960629921
        },
        {
          "duration": 0.2291666666666714,
          "durationTicks": 176,
          "midi": 45,
          "name": "A2",
          "ticks": 76224,
          "time": 99.25,
          "velocity": 0.8267716535433071
        },
        {
          "duration": 0.2447916666666714,
          "durationTicks": 188,
          "midi": 57,
          "name": "A3",
          "ticks": 76416,
          "time": 99.5,
          "velocity": 0.7716535433070866
        },
        {
          "duration": 0.2395833333333286,
          "durationTicks": 184,
          "midi": 45,
          "name": "A2",
          "ticks": 76608,
          "time": 99.75,
          "velocity": 0.8031496062992126
        },
        {
          "duration": 0.3932291666666714,
          "durationTicks": 302,
          "midi": 50,
          "name": "D3",
          "ticks": 76800,
          "time": 100,
          "velocity": 0.8031496062992126
        },
        {
          "duration": 0.3567708333333286,
          "durationTicks": 274,
          "midi": 50,
          "name": "D3",
          "ticks": 77184,
          "time": 100.5,
          "velocity": 0.8661417322834646
        },
        {
          "duration": 0.0989583333333286,
          "durationTicks": 76,
          "midi": 45,
          "name": "A2",
          "ticks": 77472,
          "time": 100.875,
          "velocity": 0.6456692913385826
        },
        {
          "duration": 0.1197916666666714,
          "durationTicks": 92,
          "midi": 50,
          "name": "D3",
          "ticks": 77568,
          "time": 101,
          "velocity": 0.7874015748031497
        },
        {
          "duration": 0.4973958333333286,
          "durationTicks": 382,
          "midi": 50,
          "name": "D3",
          "ticks": 77760,
          "time": 101.25,
          "velocity": 0.8661417322834646
        },
        {
          "duration": 0.234375,
          "durationTicks": 180,
          "midi": 45,
          "name": "A2",
          "ticks": 78144,
          "time": 101.75,
          "velocity": 0.8031496062992126
        },
        {
          "duration": 0.390625,
          "durationTicks": 300,
          "midi": 50,
          "name": "D3",
          "ticks": 78336,
          "time": 102,
          "velocity": 0.84251968503937
        },
        {
          "duration": 0.375,
          "durationTicks": 288,
          "midi": 50,
          "name": "D3",
          "ticks": 78720,
          "time": 102.5,
          "velocity": 0.8267716535433071
        },
        {
          "duration": 0.0963541666666714,
          "durationTicks": 74,
          "midi": 45,
          "name": "A2",
          "ticks": 79008,
          "time": 102.875,
          "velocity": 0.7716535433070866
        },
        {
          "duration": 0.3020833333333286,
          "durationTicks": 232,
          "midi": 50,
          "name": "D3",
          "ticks": 79104,
          "time": 103,
          "velocity": 0.84251968503937
        },
        {
          "duration": 0.2291666666666714,
          "durationTicks": 176,
          "midi": 45,
          "name": "A2",
          "ticks": 79296,
          "time": 103.25,
          "velocity": 0.84251968503937
        },
        {
          "duration": 0.2630208333333286,
          "durationTicks": 202,
          "midi": 50,
          "name": "D3",
          "ticks": 79488,
          "time": 103.5,
          "velocity": 0.889763779527559
        },
        {
          "duration": 0.2213541666666714,
          "durationTicks": 170,
          "midi": 45,
          "name": "A2",
          "ticks": 79680,
          "time": 103.75,
          "velocity": 0.7874015748031497
        },
        {
          "duration": 0.421875,
          "durationTicks": 324,
          "midi": 55,
          "name": "G3",
          "ticks": 79872,
          "time": 104,
          "velocity": 0.7716535433070866
        },
        {
          "duration": 0.4166666666666714,
          "durationTicks": 320,
          "midi": 55,
          "name": "G3",
          "ticks": 80256,
          "time": 104.5,
          "velocity": 0.8031496062992126
        },
        {
          "duration": 0.40625,
          "durationTicks": 312,
          "midi": 53,
          "name": "F3",
          "ticks": 80640,
          "time": 105,
          "velocity": 0.8031496062992126
        },
        {
          "duration": 0.3776041666666714,
          "durationTicks": 290,
          "midi": 53,
          "name": "F3",
          "ticks": 81024,
          "time": 105.5,
          "velocity": 0.7165354330708661
        },
        {
          "duration": 0.3984375,
          "durationTicks": 306,
          "midi": 52,
          "name": "E3",
          "ticks": 81408,
          "time": 106,
          "velocity": 0.8031496062992126
        },
        {
          "duration": 0.3854166666666714,
          "durationTicks": 296,
          "midi": 52,
          "name": "E3",
          "ticks": 81792,
          "time": 106.5,
          "velocity": 0.84251968503937
        },
        {
          "duration": 0.4270833333333286,
          "durationTicks": 328,
          "midi": 50,
          "name": "D3",
          "ticks": 82176,
          "time": 107,
          "velocity": 0.8267716535433071
        },
        {
          "duration": 0.3854166666666714,
          "durationTicks": 296,
          "midi": 43,
          "name": "G2",
          "ticks": 82560,
          "time": 107.5,
          "velocity": 0.9133858267716536
        },
        {
          "duration": 0.4270833333333286,
          "durationTicks": 328,
          "midi": 48,
          "name": "C3",
          "ticks": 82944,
          "time": 108,
          "velocity": 0.8031496062992126
        },
        {
          "duration": 0.4036458333333286,
          "durationTicks": 310,
          "midi": 48,
          "name": "C3",
          "ticks": 83328,
          "time": 108.5,
          "velocity": 0.7874015748031497
        },
        {
          "duration": 0.1458333333333286,
          "durationTicks": 112,
          "midi": 48,
          "name": "C3",
          "ticks": 83712,
          "time": 109,
          "velocity": 0.7716535433070866
        },
        {
          "duration": 0.3958333333333286,
          "durationTicks": 304,
          "midi": 48,
          "name": "C3",
          "ticks": 83904,
          "time": 109.25,
          "velocity": 0.8031496062992126
        },
        {
          "duration": 0.1822916666666714,
          "durationTicks": 140,
          "midi": 48,
          "name": "C3",
          "ticks": 84288,
          "time": 109.75,
          "velocity": 0.7716535433070866
        },
        {
          "duration": 0.4270833333333286,
          "durationTicks": 328,
          "midi": 50,
          "name": "D3",
          "ticks": 84480,
          "time": 110,
          "velocity": 0.8661417322834646
        },
        {
          "duration": 0.1744791666666714,
          "durationTicks": 134,
          "midi": 50,
          "name": "D3",
          "ticks": 84864,
          "time": 110.5,
          "velocity": 0.7007874015748031
        },
        {
          "duration": 0.140625,
          "durationTicks": 108,
          "midi": 50,
          "name": "D3",
          "ticks": 85056,
          "time": 110.75,
          "velocity": 0.7322834645669292
        },
        {
          "duration": 0.1302083333333286,
          "durationTicks": 100,
          "midi": 50,
          "name": "D3",
          "ticks": 85248,
          "time": 111,
          "velocity": 0.8031496062992126
        },
        {
          "duration": 0.34375,
          "durationTicks": 264,
          "midi": 50,
          "name": "D3",
          "ticks": 85440,
          "time": 111.25,
          "velocity": 0.7874015748031497
        },
        {
          "duration": 0.21875,
          "durationTicks": 168,
          "midi": 52,
          "name": "E3",
          "ticks": 85824,
          "time": 111.75,
          "velocity": 0.8267716535433071
        },
        {
          "duration": 0.4322916666666714,
          "durationTicks": 332,
          "midi": 53,
          "name": "F3",
          "ticks": 86016,
          "time": 112,
          "velocity": 0.8031496062992126
        },
        {
          "duration": 0.265625,
          "durationTicks": 204,
          "midi": 53,
          "name": "F3",
          "ticks": 86400,
          "time": 112.5,
          "velocity": 0.7874015748031497
        },
        {
          "duration": 0.2395833333333286,
          "durationTicks": 184,
          "midi": 41,
          "name": "F2",
          "ticks": 86592,
          "time": 112.75,
          "velocity": 0.7874015748031497
        },
        {
          "duration": 0.3229166666666714,
          "durationTicks": 248,
          "midi": 53,
          "name": "F3",
          "ticks": 86784,
          "time": 113,
          "velocity": 0.7165354330708661
        },
        {
          "duration": 0.2395833333333286,
          "durationTicks": 184,
          "midi": 41,
          "name": "F2",
          "ticks": 86976,
          "time": 113.25,
          "velocity": 0.7716535433070866
        },
        {
          "duration": 0.2395833333333286,
          "durationTicks": 184,
          "midi": 53,
          "name": "F3",
          "ticks": 87168,
          "time": 113.5,
          "velocity": 0.7716535433070866
        },
        {
          "duration": 0.1927083333333286,
          "durationTicks": 148,
          "midi": 54,
          "name": "F#3",
          "ticks": 87360,
          "time": 113.75,
          "velocity": 0.6692913385826772
        },
        {
          "duration": 0.4270833333333286,
          "durationTicks": 328,
          "midi": 55,
          "name": "G3",
          "ticks": 87552,
          "time": 114,
          "velocity": 0.6850393700787402
        },
        {
          "duration": 0.3125,
          "durationTicks": 240,
          "midi": 55,
          "name": "G3",
          "ticks": 87936,
          "time": 114.5,
          "velocity": 0.7716535433070866
        },
        {
          "duration": 0.2239583333333286,
          "durationTicks": 172,
          "midi": 43,
          "name": "G2",
          "ticks": 88128,
          "time": 114.75,
          "velocity": 0.8031496062992126
        },
        {
          "duration": 0.3489583333333286,
          "durationTicks": 268,
          "midi": 55,
          "name": "G3",
          "ticks": 88320,
          "time": 115,
          "velocity": 0.7007874015748031
        },
        {
          "duration": 0.21875,
          "durationTicks": 168,
          "midi": 43,
          "name": "G2",
          "ticks": 88512,
          "time": 115.25,
          "velocity": 0.8031496062992126
        },
        {
          "duration": 0.3307291666666714,
          "durationTicks": 254,
          "midi": 55,
          "name": "G3",
          "ticks": 88704,
          "time": 115.5,
          "velocity": 0.6850393700787402
        },
        {
          "duration": 0.4270833333333286,
          "durationTicks": 328,
          "midi": 48,
          "name": "C3",
          "ticks": 89088,
          "time": 116,
          "velocity": 0.8031496062992126
        },
        {
          "duration": 0.4036458333333286,
          "durationTicks": 310,
          "midi": 48,
          "name": "C3",
          "ticks": 89472,
          "time": 116.5,
          "velocity": 0.7874015748031497
        },
        {
          "duration": 0.1458333333333286,
          "durationTicks": 112,
          "midi": 48,
          "name": "C3",
          "ticks": 89856,
          "time": 117,
          "velocity": 0.7716535433070866
        },
        {
          "duration": 0.3958333333333286,
          "durationTicks": 304,
          "midi": 48,
          "name": "C3",
          "ticks": 90048,
          "time": 117.25,
          "velocity": 0.8031496062992126
        },
        {
          "duration": 0.1822916666666714,
          "durationTicks": 140,
          "midi": 48,
          "name": "C3",
          "ticks": 90432,
          "time": 117.75,
          "velocity": 0.7716535433070866
        },
        {
          "duration": 0.4270833333333286,
          "durationTicks": 328,
          "midi": 50,
          "name": "D3",
          "ticks": 90624,
          "time": 118,
          "velocity": 0.8661417322834646
        },
        {
          "duration": 0.1744791666666714,
          "durationTicks": 134,
          "midi": 50,
          "name": "D3",
          "ticks": 91008,
          "time": 118.5,
          "velocity": 0.7007874015748031
        },
        {
          "duration": 0.140625,
          "durationTicks": 108,
          "midi": 50,
          "name": "D3",
          "ticks": 91200,
          "time": 118.75,
          "velocity": 0.7322834645669292
        },
        {
          "duration": 0.1302083333333286,
          "durationTicks": 100,
          "midi": 50,
          "name": "D3",
          "ticks": 91392,
          "time": 119,
          "velocity": 0.8031496062992126
        },
        {
          "duration": 0.34375,
          "durationTicks": 264,
          "midi": 50,
          "name": "D3",
          "ticks": 91584,
          "time": 119.25,
          "velocity": 0.7874015748031497
        },
        {
          "duration": 0.21875,
          "durationTicks": 168,
          "midi": 52,
          "name": "E3",
          "ticks": 91968,
          "time": 119.75,
          "velocity": 0.8267716535433071
        },
        {
          "duration": 0.4322916666666714,
          "durationTicks": 332,
          "midi": 53,
          "name": "F3",
          "ticks": 92160,
          "time": 120,
          "velocity": 0.8031496062992126
        },
        {
          "duration": 0.265625,
          "durationTicks": 204,
          "midi": 53,
          "name": "F3",
          "ticks": 92544,
          "time": 120.5,
          "velocity": 0.7874015748031497
        },
        {
          "duration": 0.2395833333333286,
          "durationTicks": 184,
          "midi": 41,
          "name": "F2",
          "ticks": 92736,
          "time": 120.75,
          "velocity": 0.7874015748031497
        },
        {
          "duration": 0.3229166666666714,
          "durationTicks": 248,
          "midi": 53,
          "name": "F3",
          "ticks": 92928,
          "time": 121,
          "velocity": 0.7165354330708661
        },
        {
          "duration": 0.2395833333333286,
          "durationTicks": 184,
          "midi": 41,
          "name": "F2",
          "ticks": 93120,
          "time": 121.25,
          "velocity": 0.7716535433070866
        },
        {
          "duration": 0.2395833333333286,
          "durationTicks": 184,
          "midi": 53,
          "name": "F3",
          "ticks": 93312,
          "time": 121.5,
          "velocity": 0.7716535433070866
        },
        {
          "duration": 0.1927083333333286,
          "durationTicks": 148,
          "midi": 54,
          "name": "F#3",
          "ticks": 93504,
          "time": 121.75,
          "velocity": 0.6692913385826772
        },
        {
          "duration": 0.4270833333333286,
          "durationTicks": 328,
          "midi": 55,
          "name": "G3",
          "ticks": 93696,
          "time": 122,
          "velocity": 0.6850393700787402
        },
        {
          "duration": 0.3125,
          "durationTicks": 240,
          "midi": 55,
          "name": "G3",
          "ticks": 94080,
          "time": 122.5,
          "velocity": 0.7716535433070866
        },
        {
          "duration": 0.2239583333333286,
          "durationTicks": 172,
          "midi": 43,
          "name": "G2",
          "ticks": 94272,
          "time": 122.75,
          "velocity": 0.8031496062992126
        },
        {
          "duration": 0.3489583333333286,
          "durationTicks": 268,
          "midi": 55,
          "name": "G3",
          "ticks": 94464,
          "time": 123,
          "velocity": 0.7007874015748031
        },
        {
          "duration": 0.21875,
          "durationTicks": 168,
          "midi": 43,
          "name": "G2",
          "ticks": 94656,
          "time": 123.25,
          "velocity": 0.8031496062992126
        },
        {
          "duration": 0.3307291666666714,
          "durationTicks": 254,
          "midi": 55,
          "name": "G3",
          "ticks": 94848,
          "time": 123.5,
          "velocity": 0.6850393700787402
        },
        {
          "duration": 0.3880208333333286,
          "durationTicks": 298,
          "midi": 51,
          "name": "D#3",
          "ticks": 95232,
          "time": 124,
          "velocity": 0.7165354330708661
        },
        {
          "duration": 0.3828125,
          "durationTicks": 294,
          "midi": 51,
          "name": "D#3",
          "ticks": 95616,
          "time": 124.5,
          "velocity": 0.6141732283464567
        },
        {
          "duration": 0.0625,
          "durationTicks": 48,
          "midi": 46,
          "name": "A#2",
          "ticks": 95904,
          "time": 124.875,
          "velocity": 0.5984251968503937
        },
        {
          "duration": 0.1119791666666714,
          "durationTicks": 86,
          "midi": 51,
          "name": "D#3",
          "ticks": 96000,
          "time": 125,
          "velocity": 0.7480314960629921
        },
        {
          "duration": 0.453125,
          "durationTicks": 348,
          "midi": 51,
          "name": "D#3",
          "ticks": 96192,
          "time": 125.25,
          "velocity": 0.6692913385826772
        },
        {
          "duration": 0.1927083333333286,
          "durationTicks": 148,
          "midi": 46,
          "name": "A#2",
          "ticks": 96576,
          "time": 125.75,
          "velocity": 0.7716535433070866
        },
        {
          "duration": 0.3958333333333286,
          "durationTicks": 304,
          "midi": 51,
          "name": "D#3",
          "ticks": 96768,
          "time": 126,
          "velocity": 0.6299212598425197
        },
        {
          "duration": 0.3333333333333286,
          "durationTicks": 256,
          "midi": 51,
          "name": "D#3",
          "ticks": 97152,
          "time": 126.5,
          "velocity": 0.6692913385826772
        },
        {
          "duration": 0.1145833333333286,
          "durationTicks": 88,
          "midi": 46,
          "name": "A#2",
          "ticks": 97440,
          "time": 126.875,
          "velocity": 0.6692913385826772
        },
        {
          "duration": 0.1015625,
          "durationTicks": 78,
          "midi": 51,
          "name": "D#3",
          "ticks": 97536,
          "time": 127,
          "velocity": 0.6456692913385826
        },
        {
          "duration": 0.4609375,
          "durationTicks": 354,
          "midi": 51,
          "name": "D#3",
          "ticks": 97728,
          "time": 127.25,
          "velocity": 0.6141732283464567
        },
        {
          "duration": 0.2083333333333286,
          "durationTicks": 160,
          "midi": 46,
          "name": "A#2",
          "ticks": 98112,
          "time": 127.75,
          "velocity": 0.7874015748031497
        },
        {
          "duration": 0.4583333333333428,
          "durationTicks": 352,
          "midi": 48,
          "name": "C3",
          "ticks": 98304,
          "time": 128,
          "velocity": 0.8267716535433071
        },
        {
          "duration": 0.3645833333333428,
          "durationTicks": 280,
          "midi": 48,
          "name": "C3",
          "ticks": 98688,
          "time": 128.5,
          "velocity": 0.8031496062992126
        },
        {
          "duration": 0.0703125,
          "durationTicks": 54,
          "midi": 43,
          "name": "G2",
          "ticks": 98976,
          "time": 128.875,
          "velocity": 0.6850393700787402
        },
        {
          "duration": 0.11197916666665719,
          "durationTicks": 86,
          "midi": 48,
          "name": "C3",
          "ticks": 99072,
          "time": 129,
          "velocity": 0.8031496062992126
        },
        {
          "duration": 0.5,
          "durationTicks": 384,
          "midi": 48,
          "name": "C3",
          "ticks": 99264,
          "time": 129.25,
          "velocity": 0.889763779527559
        },
        {
          "duration": 0.1901041666666572,
          "durationTicks": 146,
          "midi": 43,
          "name": "G2",
          "ticks": 99648,
          "time": 129.75,
          "velocity": 0.84251968503937
        },
        {
          "duration": 0.4453125,
          "durationTicks": 342,
          "midi": 48,
          "name": "C3",
          "ticks": 99840,
          "time": 130,
          "velocity": 0.8267716535433071
        },
        {
          "duration": 0.4765625,
          "durationTicks": 366,
          "midi": 52,
          "name": "E3",
          "ticks": 100224,
          "time": 130.5,
          "velocity": 0.8661417322834646
        },
        {
          "duration": 0.453125,
          "durationTicks": 348,
          "midi": 55,
          "name": "G3",
          "ticks": 100608,
          "time": 131,
          "velocity": 0.8267716535433071
        },
        {
          "duration": 0.2604166666666572,
          "durationTicks": 200,
          "midi": 52,
          "name": "E3",
          "ticks": 100992,
          "time": 131.5,
          "velocity": 0.84251968503937
        },
        {
          "duration": 0.2291666666666572,
          "durationTicks": 176,
          "midi": 48,
          "name": "C3",
          "ticks": 101184,
          "time": 131.75,
          "velocity": 0.8031496062992126
        },
        {
          "duration": 0.4270833333333428,
          "durationTicks": 328,
          "midi": 51,
          "name": "D#3",
          "ticks": 101376,
          "time": 132,
          "velocity": 0.7716535433070866
        },
        {
          "duration": 0.3932291666666572,
          "durationTicks": 302,
          "midi": 51,
          "name": "D#3",
          "ticks": 101760,
          "time": 132.5,
          "velocity": 0.7874015748031497
        },
        {
          "duration": 0.09375,
          "durationTicks": 72,
          "midi": 46,
          "name": "A#2",
          "ticks": 102048,
          "time": 132.875,
          "velocity": 0.5669291338582677
        },
        {
          "duration": 0.1354166666666572,
          "durationTicks": 104,
          "midi": 51,
          "name": "D#3",
          "ticks": 102144,
          "time": 133,
          "velocity": 0.7007874015748031
        },
        {
          "duration": 0.53125,
          "durationTicks": 408,
          "midi": 51,
          "name": "D#3",
          "ticks": 102336,
          "time": 133.25,
          "velocity": 0.84251968503937
        },
        {
          "duration": 0.2135416666666572,
          "durationTicks": 164,
          "midi": 46,
          "name": "A#2",
          "ticks": 102720,
          "time": 133.75,
          "velocity": 0.6850393700787402
        },
        {
          "duration": 0.4140625,
          "durationTicks": 318,
          "midi": 51,
          "name": "D#3",
          "ticks": 102912,
          "time": 134,
          "velocity": 0.7007874015748031
        },
        {
          "duration": 0.3880208333333428,
          "durationTicks": 298,
          "midi": 51,
          "name": "D#3",
          "ticks": 103296,
          "time": 134.5,
          "velocity": 0.7322834645669292
        },
        {
          "duration": 0.078125,
          "durationTicks": 60,
          "midi": 46,
          "name": "A#2",
          "ticks": 103584,
          "time": 134.875,
          "velocity": 0.6299212598425197
        },
        {
          "duration": 0.125,
          "durationTicks": 96,
          "midi": 51,
          "name": "D#3",
          "ticks": 103680,
          "time": 135,
          "velocity": 0.6850393700787402
        },
        {
          "duration": 0.3958333333333428,
          "durationTicks": 304,
          "midi": 51,
          "name": "D#3",
          "ticks": 103872,
          "time": 135.25,
          "velocity": 0.7165354330708661
        },
        {
          "duration": 0.1354166666666572,
          "durationTicks": 104,
          "midi": 51,
          "name": "D#3",
          "ticks": 104256,
          "time": 135.75,
          "velocity": 0.6692913385826772
        },
        {
          "duration": 0.4270833333333428,
          "durationTicks": 328,
          "midi": 55,
          "name": "G3",
          "ticks": 104448,
          "time": 136,
          "velocity": 0.7716535433070866
        },
        {
          "duration": 0.4270833333333428,
          "durationTicks": 328,
          "midi": 55,
          "name": "G3",
          "ticks": 104832,
          "time": 136.5,
          "velocity": 0.8031496062992126
        },
        {
          "duration": 0.3697916666666572,
          "durationTicks": 284,
          "midi": 55,
          "name": "G3",
          "ticks": 105216,
          "time": 137,
          "velocity": 0.7716535433070866
        },
        {
          "duration": 0.2317708333333428,
          "durationTicks": 178,
          "midi": 55,
          "name": "G3",
          "ticks": 105600,
          "time": 137.5,
          "velocity": 0.7716535433070866
        },
        {
          "duration": 0.2682291666666572,
          "durationTicks": 206,
          "midi": 50,
          "name": "D3",
          "ticks": 105792,
          "time": 137.75,
          "velocity": 0.7165354330708661
        },
        {
          "duration": 0.4244791666666572,
          "durationTicks": 326,
          "midi": 43,
          "name": "G2",
          "ticks": 105984,
          "time": 138,
          "velocity": 0.7874015748031497
        },
        {
          "duration": 0.4348958333333428,
          "durationTicks": 334,
          "midi": 43,
          "name": "G2",
          "ticks": 106368,
          "time": 138.5,
          "velocity": 0.8031496062992126
        },
        {
          "duration": 0.1536458333333428,
          "durationTicks": 118,
          "midi": 43,
          "name": "G2",
          "ticks": 106752,
          "time": 139,
          "velocity": 0.7322834645669292
        },
        {
          "duration": 0.1640625,
          "durationTicks": 126,
          "midi": 43,
          "name": "G2",
          "ticks": 106944,
          "time": 139.25,
          "velocity": 0.8031496062992126
        },
        {
          "duration": 0.1588541666666572,
          "durationTicks": 122,
          "midi": 43,
          "name": "G2",
          "ticks": 107136,
          "time": 139.5,
          "velocity": 0.8267716535433071
        },
        {
          "duration": 0.1927083333333428,
          "durationTicks": 148,
          "midi": 43,
          "name": "G2",
          "ticks": 107328,
          "time": 139.75,
          "velocity": 0.8267716535433071
        },
        {
          "duration": 0.4270833333333428,
          "durationTicks": 328,
          "midi": 48,
          "name": "C3",
          "ticks": 107520,
          "time": 140,
          "velocity": 0.8031496062992126
        },
        {
          "duration": 0.4036458333333428,
          "durationTicks": 310,
          "midi": 48,
          "name": "C3",
          "ticks": 107904,
          "time": 140.5,
          "velocity": 0.7874015748031497
        },
        {
          "duration": 0.1458333333333428,
          "durationTicks": 112,
          "midi": 48,
          "name": "C3",
          "ticks": 108288,
          "time": 141,
          "velocity": 0.7716535433070866
        },
        {
          "duration": 0.3958333333333428,
          "durationTicks": 304,
          "midi": 48,
          "name": "C3",
          "ticks": 108480,
          "time": 141.25,
          "velocity": 0.8031496062992126
        },
        {
          "duration": 0.1822916666666572,
          "durationTicks": 140,
          "midi": 48,
          "name": "C3",
          "ticks": 108864,
          "time": 141.75,
          "velocity": 0.7716535433070866
        },
        {
          "duration": 0.4270833333333428,
          "durationTicks": 328,
          "midi": 50,
          "name": "D3",
          "ticks": 109056,
          "time": 142,
          "velocity": 0.8661417322834646
        },
        {
          "duration": 0.1744791666666572,
          "durationTicks": 134,
          "midi": 50,
          "name": "D3",
          "ticks": 109440,
          "time": 142.5,
          "velocity": 0.7007874015748031
        },
        {
          "duration": 0.140625,
          "durationTicks": 108,
          "midi": 50,
          "name": "D3",
          "ticks": 109632,
          "time": 142.75,
          "velocity": 0.7322834645669292
        },
        {
          "duration": 0.1302083333333428,
          "durationTicks": 100,
          "midi": 50,
          "name": "D3",
          "ticks": 109824,
          "time": 143,
          "velocity": 0.8031496062992126
        },
        {
          "duration": 0.34375,
          "durationTicks": 264,
          "midi": 50,
          "name": "D3",
          "ticks": 110016,
          "time": 143.25,
          "velocity": 0.7874015748031497
        },
        {
          "duration": 0.21875,
          "durationTicks": 168,
          "midi": 52,
          "name": "E3",
          "ticks": 110400,
          "time": 143.75,
          "velocity": 0.8267716535433071
        },
        {
          "duration": 0.4322916666666572,
          "durationTicks": 332,
          "midi": 53,
          "name": "F3",
          "ticks": 110592,
          "time": 144,
          "velocity": 0.8031496062992126
        },
        {
          "duration": 0.265625,
          "durationTicks": 204,
          "midi": 53,
          "name": "F3",
          "ticks": 110976,
          "time": 144.5,
          "velocity": 0.7874015748031497
        },
        {
          "duration": 0.2395833333333428,
          "durationTicks": 184,
          "midi": 41,
          "name": "F2",
          "ticks": 111168,
          "time": 144.75,
          "velocity": 0.7874015748031497
        },
        {
          "duration": 0.3229166666666572,
          "durationTicks": 248,
          "midi": 53,
          "name": "F3",
          "ticks": 111360,
          "time": 145,
          "velocity": 0.7165354330708661
        },
        {
          "duration": 0.2395833333333428,
          "durationTicks": 184,
          "midi": 41,
          "name": "F2",
          "ticks": 111552,
          "time": 145.25,
          "velocity": 0.7716535433070866
        },
        {
          "duration": 0.2395833333333428,
          "durationTicks": 184,
          "midi": 53,
          "name": "F3",
          "ticks": 111744,
          "time": 145.5,
          "velocity": 0.7716535433070866
        },
        {
          "duration": 0.1927083333333428,
          "durationTicks": 148,
          "midi": 54,
          "name": "F#3",
          "ticks": 111936,
          "time": 145.75,
          "velocity": 0.6692913385826772
        },
        {
          "duration": 0.4270833333333428,
          "durationTicks": 328,
          "midi": 55,
          "name": "G3",
          "ticks": 112128,
          "time": 146,
          "velocity": 0.6850393700787402
        },
        {
          "duration": 0.3125,
          "durationTicks": 240,
          "midi": 55,
          "name": "G3",
          "ticks": 112512,
          "time": 146.5,
          "velocity": 0.7716535433070866
        },
        {
          "duration": 0.2239583333333428,
          "durationTicks": 172,
          "midi": 43,
          "name": "G2",
          "ticks": 112704,
          "time": 146.75,
          "velocity": 0.8031496062992126
        },
        {
          "duration": 0.3489583333333428,
          "durationTicks": 268,
          "midi": 55,
          "name": "G3",
          "ticks": 112896,
          "time": 147,
          "velocity": 0.7007874015748031
        },
        {
          "duration": 0.21875,
          "durationTicks": 168,
          "midi": 43,
          "name": "G2",
          "ticks": 113088,
          "time": 147.25,
          "velocity": 0.8031496062992126
        },
        {
          "duration": 0.3307291666666572,
          "durationTicks": 254,
          "midi": 55,
          "name": "G3",
          "ticks": 113280,
          "time": 147.5,
          "velocity": 0.6850393700787402
        },
        {
          "duration": 0.4270833333333428,
          "durationTicks": 328,
          "midi": 48,
          "name": "C3",
          "ticks": 113664,
          "time": 148,
          "velocity": 0.8031496062992126
        },
        {
          "duration": 0.4036458333333428,
          "durationTicks": 310,
          "midi": 48,
          "name": "C3",
          "ticks": 114048,
          "time": 148.5,
          "velocity": 0.7874015748031497
        },
        {
          "duration": 0.1458333333333428,
          "durationTicks": 112,
          "midi": 48,
          "name": "C3",
          "ticks": 114432,
          "time": 149,
          "velocity": 0.7716535433070866
        },
        {
          "duration": 0.3958333333333428,
          "durationTicks": 304,
          "midi": 48,
          "name": "C3",
          "ticks": 114624,
          "time": 149.25,
          "velocity": 0.8031496062992126
        },
        {
          "duration": 0.1822916666666572,
          "durationTicks": 140,
          "midi": 48,
          "name": "C3",
          "ticks": 115008,
          "time": 149.75,
          "velocity": 0.7716535433070866
        },
        {
          "duration": 0.4270833333333428,
          "durationTicks": 328,
          "midi": 50,
          "name": "D3",
          "ticks": 115200,
          "time": 150,
          "velocity": 0.8661417322834646
        },
        {
          "duration": 0.1744791666666572,
          "durationTicks": 134,
          "midi": 50,
          "name": "D3",
          "ticks": 115584,
          "time": 150.5,
          "velocity": 0.7007874015748031
        },
        {
          "duration": 0.140625,
          "durationTicks": 108,
          "midi": 50,
          "name": "D3",
          "ticks": 115776,
          "time": 150.75,
          "velocity": 0.7322834645669292
        },
        {
          "duration": 0.1302083333333428,
          "durationTicks": 100,
          "midi": 50,
          "name": "D3",
          "ticks": 115968,
          "time": 151,
          "velocity": 0.8031496062992126
        },
        {
          "duration": 0.34375,
          "durationTicks": 264,
          "midi": 50,
          "name": "D3",
          "ticks": 116160,
          "time": 151.25,
          "velocity": 0.7874015748031497
        },
        {
          "duration": 0.21875,
          "durationTicks": 168,
          "midi": 52,
          "name": "E3",
          "ticks": 116544,
          "time": 151.75,
          "velocity": 0.8267716535433071
        },
        {
          "duration": 0.4322916666666572,
          "durationTicks": 332,
          "midi": 53,
          "name": "F3",
          "ticks": 116736,
          "time": 152,
          "velocity": 0.8031496062992126
        },
        {
          "duration": 0.265625,
          "durationTicks": 204,
          "midi": 53,
          "name": "F3",
          "ticks": 117120,
          "time": 152.5,
          "velocity": 0.7874015748031497
        },
        {
          "duration": 0.2395833333333428,
          "durationTicks": 184,
          "midi": 41,
          "name": "F2",
          "ticks": 117312,
          "time": 152.75,
          "velocity": 0.7874015748031497
        },
        {
          "duration": 0.3229166666666572,
          "durationTicks": 248,
          "midi": 53,
          "name": "F3",
          "ticks": 117504,
          "time": 153,
          "velocity": 0.7165354330708661
        },
        {
          "duration": 0.2395833333333428,
          "durationTicks": 184,
          "midi": 41,
          "name": "F2",
          "ticks": 117696,
          "time": 153.25,
          "velocity": 0.7716535433070866
        },
        {
          "duration": 0.2395833333333428,
          "durationTicks": 184,
          "midi": 53,
          "name": "F3",
          "ticks": 117888,
          "time": 153.5,
          "velocity": 0.7716535433070866
        },
        {
          "duration": 0.1927083333333428,
          "durationTicks": 148,
          "midi": 54,
          "name": "F#3",
          "ticks": 118080,
          "time": 153.75,
          "velocity": 0.6692913385826772
        },
        {
          "duration": 0.4270833333333428,
          "durationTicks": 328,
          "midi": 55,
          "name": "G3",
          "ticks": 118272,
          "time": 154,
          "velocity": 0.6850393700787402
        },
        {
          "duration": 0.3125,
          "durationTicks": 240,
          "midi": 55,
          "name": "G3",
          "ticks": 118656,
          "time": 154.5,
          "velocity": 0.7716535433070866
        },
        {
          "duration": 0.2239583333333428,
          "durationTicks": 172,
          "midi": 43,
          "name": "G2",
          "ticks": 118848,
          "time": 154.75,
          "velocity": 0.8031496062992126
        },
        {
          "duration": 0.3489583333333428,
          "durationTicks": 268,
          "midi": 55,
          "name": "G3",
          "ticks": 119040,
          "time": 155,
          "velocity": 0.7007874015748031
        },
        {
          "duration": 0.21875,
          "durationTicks": 168,
          "midi": 43,
          "name": "G2",
          "ticks": 119232,
          "time": 155.25,
          "velocity": 0.8031496062992126
        },
        {
          "duration": 0.3307291666666572,
          "durationTicks": 254,
          "midi": 55,
          "name": "G3",
          "ticks": 119424,
          "time": 155.5,
          "velocity": 0.6850393700787402
        },
        {
          "duration": 0.4270833333333428,
          "durationTicks": 328,
          "midi": 48,
          "name": "C3",
          "ticks": 119808,
          "time": 156,
          "velocity": 0.8031496062992126
        },
        {
          "duration": 0.4036458333333428,
          "durationTicks": 310,
          "midi": 48,
          "name": "C3",
          "ticks": 120192,
          "time": 156.5,
          "velocity": 0.7874015748031497
        },
        {
          "duration": 0.1458333333333428,
          "durationTicks": 112,
          "midi": 48,
          "name": "C3",
          "ticks": 120576,
          "time": 157,
          "velocity": 0.7716535433070866
        },
        {
          "duration": 0.3958333333333428,
          "durationTicks": 304,
          "midi": 48,
          "name": "C3",
          "ticks": 120768,
          "time": 157.25,
          "velocity": 0.8031496062992126
        },
        {
          "duration": 0.1822916666666572,
          "durationTicks": 140,
          "midi": 48,
          "name": "C3",
          "ticks": 121152,
          "time": 157.75,
          "velocity": 0.7716535433070866
        },
        {
          "duration": 0.4270833333333428,
          "durationTicks": 328,
          "midi": 50,
          "name": "D3",
          "ticks": 121344,
          "time": 158,
          "velocity": 0.8661417322834646
        },
        {
          "duration": 0.1744791666666572,
          "durationTicks": 134,
          "midi": 50,
          "name": "D3",
          "ticks": 121728,
          "time": 158.5,
          "velocity": 0.7007874015748031
        },
        {
          "duration": 0.140625,
          "durationTicks": 108,
          "midi": 50,
          "name": "D3",
          "ticks": 121920,
          "time": 158.75,
          "velocity": 0.7322834645669292
        },
        {
          "duration": 0.1302083333333428,
          "durationTicks": 100,
          "midi": 50,
          "name": "D3",
          "ticks": 122112,
          "time": 159,
          "velocity": 0.8031496062992126
        },
        {
          "duration": 0.34375,
          "durationTicks": 264,
          "midi": 50,
          "name": "D3",
          "ticks": 122304,
          "time": 159.25,
          "velocity": 0.7874015748031497
        },
        {
          "duration": 0.21875,
          "durationTicks": 168,
          "midi": 52,
          "name": "E3",
          "ticks": 122688,
          "time": 159.75,
          "velocity": 0.8267716535433071
        },
        {
          "duration": 0.4322916666666572,
          "durationTicks": 332,
          "midi": 53,
          "name": "F3",
          "ticks": 122880,
          "time": 160,
          "velocity": 0.8031496062992126
        },
        {
          "duration": 0.265625,
          "durationTicks": 204,
          "midi": 53,
          "name": "F3",
          "ticks": 123264,
          "time": 160.5,
          "velocity": 0.7874015748031497
        },
        {
          "duration": 0.2395833333333428,
          "durationTicks": 184,
          "midi": 41,
          "name": "F2",
          "ticks": 123456,
          "time": 160.75,
          "velocity": 0.7874015748031497
        },
        {
          "duration": 0.3229166666666572,
          "durationTicks": 248,
          "midi": 53,
          "name": "F3",
          "ticks": 123648,
          "time": 161,
          "velocity": 0.7165354330708661
        },
        {
          "duration": 0.2395833333333428,
          "durationTicks": 184,
          "midi": 41,
          "name": "F2",
          "ticks": 123840,
          "time": 161.25,
          "velocity": 0.7716535433070866
        },
        {
          "duration": 0.2395833333333428,
          "durationTicks": 184,
          "midi": 53,
          "name": "F3",
          "ticks": 124032,
          "time": 161.5,
          "velocity": 0.7716535433070866
        },
        {
          "duration": 0.1927083333333428,
          "durationTicks": 148,
          "midi": 54,
          "name": "F#3",
          "ticks": 124224,
          "time": 161.75,
          "velocity": 0.6692913385826772
        },
        {
          "duration": 0.4270833333333428,
          "durationTicks": 328,
          "midi": 55,
          "name": "G3",
          "ticks": 124416,
          "time": 162,
          "velocity": 0.6850393700787402
        },
        {
          "duration": 0.3125,
          "durationTicks": 240,
          "midi": 55,
          "name": "G3",
          "ticks": 124800,
          "time": 162.5,
          "velocity": 0.7716535433070866
        },
        {
          "duration": 0.2239583333333428,
          "durationTicks": 172,
          "midi": 43,
          "name": "G2",
          "ticks": 124992,
          "time": 162.75,
          "velocity": 0.8031496062992126
        },
        {
          "duration": 0.3489583333333428,
          "durationTicks": 268,
          "midi": 55,
          "name": "G3",
          "ticks": 125184,
          "time": 163,
          "velocity": 0.7007874015748031
        },
        {
          "duration": 0.21875,
          "durationTicks": 168,
          "midi": 43,
          "name": "G2",
          "ticks": 125376,
          "time": 163.25,
          "velocity": 0.8031496062992126
        },
        {
          "duration": 0.3307291666666572,
          "durationTicks": 254,
          "midi": 55,
          "name": "G3",
          "ticks": 125568,
          "time": 163.5,
          "velocity": 0.6850393700787402
        },
        {
          "duration": 0.4270833333333428,
          "durationTicks": 328,
          "midi": 48,
          "name": "C3",
          "ticks": 125952,
          "time": 164,
          "velocity": 0.8031496062992126
        },
        {
          "duration": 0.4036458333333428,
          "durationTicks": 310,
          "midi": 48,
          "name": "C3",
          "ticks": 126336,
          "time": 164.5,
          "velocity": 0.7874015748031497
        },
        {
          "duration": 0.1458333333333428,
          "durationTicks": 112,
          "midi": 48,
          "name": "C3",
          "ticks": 126720,
          "time": 165,
          "velocity": 0.7716535433070866
        },
        {
          "duration": 0.3958333333333428,
          "durationTicks": 304,
          "midi": 48,
          "name": "C3",
          "ticks": 126912,
          "time": 165.25,
          "velocity": 0.8031496062992126
        },
        {
          "duration": 0.1822916666666572,
          "durationTicks": 140,
          "midi": 48,
          "name": "C3",
          "ticks": 127296,
          "time": 165.75,
          "velocity": 0.7716535433070866
        },
        {
          "duration": 0.4270833333333428,
          "durationTicks": 328,
          "midi": 50,
          "name": "D3",
          "ticks": 127488,
          "time": 166,
          "velocity": 0.8661417322834646
        },
        {
          "duration": 0.1744791666666572,
          "durationTicks": 134,
          "midi": 50,
          "name": "D3",
          "ticks": 127872,
          "time": 166.5,
          "velocity": 0.7007874015748031
        },
        {
          "duration": 0.140625,
          "durationTicks": 108,
          "midi": 50,
          "name": "D3",
          "ticks": 128064,
          "time": 166.75,
          "velocity": 0.7322834645669292
        },
        {
          "duration": 0.1302083333333428,
          "durationTicks": 100,
          "midi": 50,
          "name": "D3",
          "ticks": 128256,
          "time": 167,
          "velocity": 0.8031496062992126
        },
        {
          "duration": 0.34375,
          "durationTicks": 264,
          "midi": 50,
          "name": "D3",
          "ticks": 128448,
          "time": 167.25,
          "velocity": 0.7874015748031497
        },
        {
          "duration": 0.21875,
          "durationTicks": 168,
          "midi": 52,
          "name": "E3",
          "ticks": 128832,
          "time": 167.75,
          "velocity": 0.8267716535433071
        },
        {
          "duration": 0.4322916666666572,
          "durationTicks": 332,
          "midi": 53,
          "name": "F3",
          "ticks": 129024,
          "time": 168,
          "velocity": 0.8031496062992126
        },
        {
          "duration": 0.265625,
          "durationTicks": 204,
          "midi": 53,
          "name": "F3",
          "ticks": 129408,
          "time": 168.5,
          "velocity": 0.7874015748031497
        },
        {
          "duration": 0.2395833333333428,
          "durationTicks": 184,
          "midi": 41,
          "name": "F2",
          "ticks": 129600,
          "time": 168.75,
          "velocity": 0.7874015748031497
        },
        {
          "duration": 0.3229166666666572,
          "durationTicks": 248,
          "midi": 53,
          "name": "F3",
          "ticks": 129792,
          "time": 169,
          "velocity": 0.7165354330708661
        },
        {
          "duration": 0.2395833333333428,
          "durationTicks": 184,
          "midi": 41,
          "name": "F2",
          "ticks": 129984,
          "time": 169.25,
          "velocity": 0.7716535433070866
        },
        {
          "duration": 0.2395833333333428,
          "durationTicks": 184,
          "midi": 53,
          "name": "F3",
          "ticks": 130176,
          "time": 169.5,
          "velocity": 0.7716535433070866
        },
        {
          "duration": 0.1927083333333428,
          "durationTicks": 148,
          "midi": 54,
          "name": "F#3",
          "ticks": 130368,
          "time": 169.75,
          "velocity": 0.6692913385826772
        },
        {
          "duration": 0.4270833333333428,
          "durationTicks": 328,
          "midi": 55,
          "name": "G3",
          "ticks": 130560,
          "time": 170,
          "velocity": 0.6850393700787402
        },
        {
          "duration": 0.3125,
          "durationTicks": 240,
          "midi": 55,
          "name": "G3",
          "ticks": 130944,
          "time": 170.5,
          "velocity": 0.7716535433070866
        },
        {
          "duration": 0.2239583333333428,
          "durationTicks": 172,
          "midi": 43,
          "name": "G2",
          "ticks": 131136,
          "time": 170.75,
          "velocity": 0.8031496062992126
        },
        {
          "duration": 0.3489583333333428,
          "durationTicks": 268,
          "midi": 55,
          "name": "G3",
          "ticks": 131328,
          "time": 171,
          "velocity": 0.7007874015748031
        },
        {
          "duration": 0.21875,
          "durationTicks": 168,
          "midi": 43,
          "name": "G2",
          "ticks": 131520,
          "time": 171.25,
          "velocity": 0.8031496062992126
        },
        {
          "duration": 0.3307291666666572,
          "durationTicks": 254,
          "midi": 55,
          "name": "G3",
          "ticks": 131712,
          "time": 171.5,
          "velocity": 0.6850393700787402
        },
        {
          "duration": 4.114583333333343,
          "durationTicks": 3160,
          "midi": 48,
          "name": "C3",
          "ticks": 132096,
          "time": 172,
          "velocity": 0.9606299212598425
        }
      ],
      "endOfTrackTicks": 135448
    },
    {
      "channel": 0,
      "controlChanges": {
        "7": [
          {
            "number": 7,
            "ticks": 1536,
            "time": 2,
            "value": 0.7874015748031497
          }
        ]
      },
      "pitchBends": [],
      "instrument": {
        "family": "piano",
        "number": 0,
        "name": "acoustic grand piano"
      },
      "name": "E.PIANO 1",
      "notes": [],
      "endOfTrackTicks": 135518
    },
    {
      "channel": 2,
      "controlChanges": {
        "64": [
          {
            "number": 64,
            "ticks": 95310,
            "time": 124.1015625,
            "value": 1
          },
          {
            "number": 64,
            "ticks": 96750,
            "time": 125.9765625,
            "value": 0
          },
          {
            "number": 64,
            "ticks": 96880,
            "time": 126.14583333333333,
            "value": 1
          },
          {
            "number": 64,
            "ticks": 98290,
            "time": 127.98177083333333,
            "value": 0
          },
          {
            "number": 64,
            "ticks": 98468,
            "time": 128.21354166666666,
            "value": 1
          },
          {
            "number": 64,
            "ticks": 100088,
            "time": 130.32291666666666,
            "value": 0
          },
          {
            "number": 64,
            "ticks": 100232,
            "time": 130.51041666666666,
            "value": 1
          },
          {
            "number": 64,
            "ticks": 101312,
            "time": 131.91666666666666,
            "value": 0
          },
          {
            "number": 64,
            "ticks": 101556,
            "time": 132.234375,
            "value": 1
          },
          {
            "number": 64,
            "ticks": 102092,
            "time": 132.93229166666666,
            "value": 0
          },
          {
            "number": 64,
            "ticks": 102392,
            "time": 133.32291666666666,
            "value": 1
          },
          {
            "number": 64,
            "ticks": 102870,
            "time": 133.9453125,
            "value": 0
          },
          {
            "number": 64,
            "ticks": 103096,
            "time": 134.23958333333334,
            "value": 1
          },
          {
            "number": 64,
            "ticks": 103426,
            "time": 134.66927083333334,
            "value": 0
          },
          {
            "number": 64,
            "ticks": 103696,
            "time": 135.02083333333334,
            "value": 1
          },
          {
            "number": 64,
            "ticks": 104408,
            "time": 135.94791666666666,
            "value": 0
          },
          {
            "number": 64,
            "ticks": 104656,
            "time": 136.27083333333334,
            "value": 1
          },
          {
            "number": 64,
            "ticks": 105100,
            "time": 136.84895833333334,
            "value": 0
          },
          {
            "number": 64,
            "ticks": 105226,
            "time": 137.01302083333334,
            "value": 1
          },
          {
            "number": 64,
            "ticks": 105370,
            "time": 137.20052083333334,
            "value": 0
          },
          {
            "number": 64,
            "ticks": 105598,
            "time": 137.49739583333334,
            "value": 1
          },
          {
            "number": 64,
            "ticks": 105956,
            "time": 137.96354166666666,
            "value": 0
          }
        ]
      },
      "pitchBends": [],
      "instrument": {
        "family": "piano",
        "number": 4,
        "name": "electric piano 1"
      },
      "name": "",
      "notes": [
        {
          "duration": 1.104166666666667,
          "durationTicks": 848,
          "midi": 60,
          "name": "C4",
          "ticks": 3072,
          "time": 4,
          "velocity": 0.7874015748031497
        },
        {
          "duration": 1.104166666666667,
          "durationTicks": 848,
          "midi": 52,
          "name": "E3",
          "ticks": 3072,
          "time": 4,
          "velocity": 0.7007874015748031
        },
        {
          "duration": 1.166666666666667,
          "durationTicks": 896,
          "midi": 64,
          "name": "E4",
          "ticks": 3072,
          "time": 4,
          "velocity": 0.8267716535433071
        },
        {
          "duration": 1.098958333333333,
          "durationTicks": 844,
          "midi": 55,
          "name": "G3",
          "ticks": 3072,
          "time": 4,
          "velocity": 0.6850393700787402
        },
        {
          "duration": 1.1171875,
          "durationTicks": 858,
          "midi": 48,
          "name": "C3",
          "ticks": 3072,
          "time": 4,
          "velocity": 0.7165354330708661
        },
        {
          "duration": 0.08072916666666696,
          "durationTicks": 62,
          "midi": 60,
          "name": "C4",
          "ticks": 4032,
          "time": 5.25,
          "velocity": 0.7480314960629921
        },
        {
          "duration": 0.04427083333333304,
          "durationTicks": 34,
          "midi": 48,
          "name": "C3",
          "ticks": 4032,
          "time": 5.25,
          "velocity": 0.6456692913385826
        },
        {
          "duration": 0.05208333333333304,
          "durationTicks": 40,
          "midi": 52,
          "name": "E3",
          "ticks": 4032,
          "time": 5.25,
          "velocity": 0.6299212598425197
        },
        {
          "duration": 0.06510416666666696,
          "durationTicks": 50,
          "midi": 55,
          "name": "G3",
          "ticks": 4032,
          "time": 5.25,
          "velocity": 0.6850393700787402
        },
        {
          "duration": 0.08072916666666696,
          "durationTicks": 62,
          "midi": 60,
          "name": "C4",
          "ticks": 4128,
          "time": 5.375,
          "velocity": 0.5511811023622047
        },
        {
          "duration": 0.05989583333333304,
          "durationTicks": 46,
          "midi": 48,
          "name": "C3",
          "ticks": 4128,
          "time": 5.375,
          "velocity": 0.7007874015748031
        },
        {
          "duration": 0.06510416666666696,
          "durationTicks": 50,
          "midi": 52,
          "name": "E3",
          "ticks": 4128,
          "time": 5.375,
          "velocity": 0.7716535433070866
        },
        {
          "duration": 0.07291666666666696,
          "durationTicks": 56,
          "midi": 55,
          "name": "G3",
          "ticks": 4128,
          "time": 5.375,
          "velocity": 0.7716535433070866
        },
        {
          "duration": 0.10416666666666696,
          "durationTicks": 80,
          "midi": 60,
          "name": "C4",
          "ticks": 4224,
          "time": 5.5,
          "velocity": 0.4645669291338583
        },
        {
          "duration": 0.0859375,
          "durationTicks": 66,
          "midi": 48,
          "name": "C3",
          "ticks": 4224,
          "time": 5.5,
          "velocity": 0.7874015748031497
        },
        {
          "duration": 0.09375,
          "durationTicks": 72,
          "midi": 52,
          "name": "E3",
          "ticks": 4224,
          "time": 5.5,
          "velocity": 0.8267716535433071
        },
        {
          "duration": 0.09375,
          "durationTicks": 72,
          "midi": 55,
          "name": "G3",
          "ticks": 4224,
          "time": 5.5,
          "velocity": 0.8031496062992126
        },
        {
          "duration": 0.203125,
          "durationTicks": 156,
          "midi": 52,
          "name": "E3",
          "ticks": 4416,
          "time": 5.75,
          "velocity": 0.8661417322834646
        },
        {
          "duration": 0.20052083333333304,
          "durationTicks": 154,
          "midi": 48,
          "name": "C3",
          "ticks": 4416,
          "time": 5.75,
          "velocity": 0.8661417322834646
        },
        {
          "duration": 0.2109375,
          "durationTicks": 162,
          "midi": 55,
          "name": "G3",
          "ticks": 4416,
          "time": 5.75,
          "velocity": 0.8661417322834646
        },
        {
          "duration": 1.138020833333333,
          "durationTicks": 874,
          "midi": 62,
          "name": "D4",
          "ticks": 4608,
          "time": 6,
          "velocity": 0.8267716535433071
        },
        {
          "duration": 1.15625,
          "durationTicks": 888,
          "midi": 57,
          "name": "A3",
          "ticks": 4608,
          "time": 6,
          "velocity": 0.8267716535433071
        },
        {
          "duration": 1.153645833333333,
          "durationTicks": 886,
          "midi": 54,
          "name": "F#3",
          "ticks": 4608,
          "time": 6,
          "velocity": 0.7716535433070866
        },
        {
          "duration": 0.140625,
          "durationTicks": 108,
          "midi": 62,
          "name": "D4",
          "ticks": 5568,
          "time": 7.25,
          "velocity": 0.8661417322834646
        },
        {
          "duration": 0.09375,
          "durationTicks": 72,
          "midi": 50,
          "name": "D3",
          "ticks": 5568,
          "time": 7.25,
          "velocity": 0.9133858267716536
        },
        {
          "duration": 0.140625,
          "durationTicks": 108,
          "midi": 57,
          "name": "A3",
          "ticks": 5568,
          "time": 7.25,
          "velocity": 0.84251968503937
        },
        {
          "duration": 0.14322916666666696,
          "durationTicks": 110,
          "midi": 54,
          "name": "F#3",
          "ticks": 5568,
          "time": 7.25,
          "velocity": 0.8031496062992126
        },
        {
          "duration": 0.10677083333333304,
          "durationTicks": 82,
          "midi": 57,
          "name": "A3",
          "ticks": 5952,
          "time": 7.75,
          "velocity": 0.8031496062992126
        },
        {
          "duration": 0.125,
          "durationTicks": 96,
          "midi": 54,
          "name": "F#3",
          "ticks": 5952,
          "time": 7.75,
          "velocity": 0.8267716535433071
        },
        {
          "duration": 0.13541666666666696,
          "durationTicks": 104,
          "midi": 62,
          "name": "D4",
          "ticks": 5952,
          "time": 7.75,
          "velocity": 0.8031496062992126
        },
        {
          "duration": 1.0859375,
          "durationTicks": 834,
          "midi": 60,
          "name": "C4",
          "ticks": 6144,
          "time": 8,
          "velocity": 0.8031496062992126
        },
        {
          "duration": 1.114583333333334,
          "durationTicks": 856,
          "midi": 57,
          "name": "A3",
          "ticks": 6144,
          "time": 8,
          "velocity": 0.8031496062992126
        },
        {
          "duration": 1.109375,
          "durationTicks": 852,
          "midi": 48,
          "name": "C3",
          "ticks": 6144,
          "time": 8,
          "velocity": 0.8031496062992126
        },
        {
          "duration": 1.104166666666666,
          "durationTicks": 848,
          "midi": 53,
          "name": "F3",
          "ticks": 6144,
          "time": 8,
          "velocity": 0.7480314960629921
        },
        {
          "duration": 1.109375,
          "durationTicks": 852,
          "midi": 41,
          "name": "F2",
          "ticks": 6144,
          "time": 8,
          "velocity": 0.7874015748031497
        },
        {
          "duration": 0.06510416666666607,
          "durationTicks": 50,
          "midi": 41,
          "name": "F2",
          "ticks": 7104,
          "time": 9.25,
          "velocity": 0.7322834645669292
        },
        {
          "duration": 0.052083333333333925,
          "durationTicks": 40,
          "midi": 48,
          "name": "C3",
          "ticks": 7104,
          "time": 9.25,
          "velocity": 0.7322834645669292
        },
        {
          "duration": 0.052083333333333925,
          "durationTicks": 40,
          "midi": 60,
          "name": "C4",
          "ticks": 7104,
          "time": 9.25,
          "velocity": 0.7007874015748031
        },
        {
          "duration": 0.059895833333333925,
          "durationTicks": 46,
          "midi": 53,
          "name": "F3",
          "ticks": 7104,
          "time": 9.25,
          "velocity": 0.7007874015748031
        },
        {
          "duration": 0.06510416666666607,
          "durationTicks": 50,
          "midi": 57,
          "name": "A3",
          "ticks": 7104,
          "time": 9.25,
          "velocity": 0.7716535433070866
        },
        {
          "duration": 0.08333333333333393,
          "durationTicks": 64,
          "midi": 60,
          "name": "C4",
          "ticks": 7200,
          "time": 9.375,
          "velocity": 0.7716535433070866
        },
        {
          "duration": 0.08333333333333393,
          "durationTicks": 64,
          "midi": 57,
          "name": "A3",
          "ticks": 7200,
          "time": 9.375,
          "velocity": 0.8031496062992126
        },
        {
          "duration": 0.078125,
          "durationTicks": 60,
          "midi": 41,
          "name": "F2",
          "ticks": 7200,
          "time": 9.375,
          "velocity": 0.7480314960629921
        },
        {
          "duration": 0.09114583333333393,
          "durationTicks": 70,
          "midi": 53,
          "name": "F3",
          "ticks": 7200,
          "time": 9.375,
          "velocity": 0.7480314960629921
        },
        {
          "duration": 0.078125,
          "durationTicks": 60,
          "midi": 48,
          "name": "C3",
          "ticks": 7200,
          "time": 9.375,
          "velocity": 0.7716535433070866
        },
        {
          "duration": 0.08333333333333393,
          "durationTicks": 64,
          "midi": 53,
          "name": "F3",
          "ticks": 7296,
          "time": 9.5,
          "velocity": 0.5196850393700787
        },
        {
          "duration": 0.11458333333333393,
          "durationTicks": 88,
          "midi": 41,
          "name": "F2",
          "ticks": 7296,
          "time": 9.5,
          "velocity": 0.7007874015748031
        },
        {
          "duration": 0.07552083333333393,
          "durationTicks": 58,
          "midi": 48,
          "name": "C3",
          "ticks": 7296,
          "time": 9.5,
          "velocity": 0.7007874015748031
        },
        {
          "duration": 0.10677083333333393,
          "durationTicks": 82,
          "midi": 60,
          "name": "C4",
          "ticks": 7296,
          "time": 9.5,
          "velocity": 0.6299212598425197
        },
        {
          "duration": 0.10677083333333393,
          "durationTicks": 82,
          "midi": 57,
          "name": "A3",
          "ticks": 7296,
          "time": 9.5,
          "velocity": 0.6692913385826772
        },
        {
          "duration": 0.09114583333333393,
          "durationTicks": 70,
          "midi": 53,
          "name": "F3",
          "ticks": 7488,
          "time": 9.75,
          "velocity": 0.7874015748031497
        },
        {
          "duration": 0.1015625,
          "durationTicks": 78,
          "midi": 57,
          "name": "A3",
          "ticks": 7488,
          "time": 9.75,
          "velocity": 0.8031496062992126
        },
        {
          "duration": 0.10416666666666607,
          "durationTicks": 80,
          "midi": 60,
          "name": "C4",
          "ticks": 7488,
          "time": 9.75,
          "velocity": 0.8267716535433071
        },
        {
          "duration": 1.1015625,
          "durationTicks": 846,
          "midi": 43,
          "name": "G2",
          "ticks": 7680,
          "time": 10,
          "velocity": 0.7874015748031497
        },
        {
          "duration": 1.111979166666666,
          "durationTicks": 854,
          "midi": 60,
          "name": "C4",
          "ticks": 7680,
          "time": 10,
          "velocity": 0.8031496062992126
        },
        {
          "duration": 1.111979166666666,
          "durationTicks": 854,
          "midi": 53,
          "name": "F3",
          "ticks": 7680,
          "time": 10,
          "velocity": 0.8031496062992126
        },
        {
          "duration": 1.119791666666666,
          "durationTicks": 860,
          "midi": 57,
          "name": "A3",
          "ticks": 7680,
          "time": 10,
          "velocity": 0.8267716535433071
        },
        {
          "duration": 0.08333333333333393,
          "durationTicks": 64,
          "midi": 43,
          "name": "G2",
          "ticks": 8640,
          "time": 11.25,
          "velocity": 0.8267716535433071
        },
        {
          "duration": 0.09635416666666607,
          "durationTicks": 74,
          "midi": 60,
          "name": "C4",
          "ticks": 8640,
          "time": 11.25,
          "velocity": 0.8267716535433071
        },
        {
          "duration": 0.09375,
          "durationTicks": 72,
          "midi": 57,
          "name": "A3",
          "ticks": 8640,
          "time": 11.25,
          "velocity": 0.8267716535433071
        },
        {
          "duration": 0.09114583333333393,
          "durationTicks": 70,
          "midi": 53,
          "name": "F3",
          "ticks": 8640,
          "time": 11.25,
          "velocity": 0.7874015748031497
        },
        {
          "duration": 0.15104166666666607,
          "durationTicks": 116,
          "midi": 60,
          "name": "C4",
          "ticks": 9024,
          "time": 11.75,
          "velocity": 0.8031496062992126
        },
        {
          "duration": 0.12760416666666607,
          "durationTicks": 98,
          "midi": 57,
          "name": "A3",
          "ticks": 9024,
          "time": 11.75,
          "velocity": 0.8031496062992126
        },
        {
          "duration": 0.125,
          "durationTicks": 96,
          "midi": 53,
          "name": "F3",
          "ticks": 9024,
          "time": 11.75,
          "velocity": 0.7716535433070866
        },
        {
          "duration": 1.080729166666666,
          "durationTicks": 830,
          "midi": 55,
          "name": "G3",
          "ticks": 9216,
          "time": 12,
          "velocity": 0.889763779527559
        },
        {
          "duration": 1.083333333333334,
          "durationTicks": 832,
          "midi": 52,
          "name": "E3",
          "ticks": 9216,
          "time": 12,
          "velocity": 0.8661417322834646
        },
        {
          "duration": 1.09375,
          "durationTicks": 840,
          "midi": 48,
          "name": "C3",
          "ticks": 9216,
          "time": 12,
          "velocity": 0.889763779527559
        },
        {
          "duration": 0.1171875,
          "durationTicks": 90,
          "midi": 48,
          "name": "C3",
          "ticks": 10176,
          "time": 13.25,
          "velocity": 0.8661417322834646
        },
        {
          "duration": 0.10677083333333393,
          "durationTicks": 82,
          "midi": 52,
          "name": "E3",
          "ticks": 10176,
          "time": 13.25,
          "velocity": 0.8267716535433071
        },
        {
          "duration": 0.1015625,
          "durationTicks": 78,
          "midi": 60,
          "name": "C4",
          "ticks": 10176,
          "time": 13.25,
          "velocity": 0.9133858267716536
        },
        {
          "duration": 0.11458333333333393,
          "durationTicks": 88,
          "midi": 55,
          "name": "G3",
          "ticks": 10176,
          "time": 13.25,
          "velocity": 0.889763779527559
        },
        {
          "duration": 1.111979166666666,
          "durationTicks": 854,
          "midi": 54,
          "name": "F#3",
          "ticks": 10752,
          "time": 14,
          "velocity": 0.7716535433070866
        },
        {
          "duration": 1.1328125,
          "durationTicks": 870,
          "midi": 57,
          "name": "A3",
          "ticks": 10752,
          "time": 14,
          "velocity": 0.8031496062992126
        },
        {
          "duration": 1.125,
          "durationTicks": 864,
          "midi": 62,
          "name": "D4",
          "ticks": 10752,
          "time": 14,
          "velocity": 0.8267716535433071
        },
        {
          "duration": 0.13802083333333393,
          "durationTicks": 106,
          "midi": 62,
          "name": "D4",
          "ticks": 11712,
          "time": 15.25,
          "velocity": 0.84251968503937
        },
        {
          "duration": 0.15625,
          "durationTicks": 120,
          "midi": 57,
          "name": "A3",
          "ticks": 11712,
          "time": 15.25,
          "velocity": 0.8661417322834646
        },
        {
          "duration": 0.16145833333333393,
          "durationTicks": 124,
          "midi": 54,
          "name": "F#3",
          "ticks": 11712,
          "time": 15.25,
          "velocity": 0.8267716535433071
        },
        {
          "duration": 0.09635416666666607,
          "durationTicks": 74,
          "midi": 50,
          "name": "D3",
          "ticks": 11712,
          "time": 15.25,
          "velocity": 0.889763779527559
        },
        {
          "duration": 0.10416666666666607,
          "durationTicks": 80,
          "midi": 57,
          "name": "A3",
          "ticks": 12096,
          "time": 15.75,
          "velocity": 0.7480314960629921
        },
        {
          "duration": 0.14322916666666607,
          "durationTicks": 110,
          "midi": 54,
          "name": "F#3",
          "ticks": 12096,
          "time": 15.75,
          "velocity": 0.7165354330708661
        },
        {
          "duration": 0.1328125,
          "durationTicks": 102,
          "midi": 62,
          "name": "D4",
          "ticks": 12096,
          "time": 15.75,
          "velocity": 0.7716535433070866
        },
        {
          "duration": 1.2604166666666679,
          "durationTicks": 968,
          "midi": 48,
          "name": "C3",
          "ticks": 12288,
          "time": 16,
          "velocity": 0.6850393700787402
        },
        {
          "duration": 1.1328125,
          "durationTicks": 870,
          "midi": 60,
          "name": "C4",
          "ticks": 12288,
          "time": 16,
          "velocity": 0.7874015748031497
        },
        {
          "duration": 1.265625,
          "durationTicks": 972,
          "midi": 41,
          "name": "F2",
          "ticks": 12288,
          "time": 16,
          "velocity": 0.6850393700787402
        },
        {
          "duration": 1.1458333333333321,
          "durationTicks": 880,
          "midi": 57,
          "name": "A3",
          "ticks": 12288,
          "time": 16,
          "velocity": 0.7007874015748031
        },
        {
          "duration": 1.1354166666666679,
          "durationTicks": 872,
          "midi": 53,
          "name": "F3",
          "ticks": 12288,
          "time": 16,
          "velocity": 0.6692913385826772
        },
        {
          "duration": 0.10416666666666785,
          "durationTicks": 80,
          "midi": 60,
          "name": "C4",
          "ticks": 13248,
          "time": 17.25,
          "velocity": 0.8031496062992126
        },
        {
          "duration": 0.10416666666666785,
          "durationTicks": 80,
          "midi": 57,
          "name": "A3",
          "ticks": 13248,
          "time": 17.25,
          "velocity": 0.8031496062992126
        },
        {
          "duration": 0.10677083333333215,
          "durationTicks": 82,
          "midi": 53,
          "name": "F3",
          "ticks": 13248,
          "time": 17.25,
          "velocity": 0.7716535433070866
        },
        {
          "duration": 0.11458333333333215,
          "durationTicks": 88,
          "midi": 41,
          "name": "F2",
          "ticks": 13344,
          "time": 17.375,
          "velocity": 0.8031496062992126
        },
        {
          "duration": 0.11197916666666785,
          "durationTicks": 86,
          "midi": 48,
          "name": "C3",
          "ticks": 13344,
          "time": 17.375,
          "velocity": 0.8267716535433071
        },
        {
          "duration": 0.1640625,
          "durationTicks": 126,
          "midi": 57,
          "name": "A3",
          "ticks": 13440,
          "time": 17.5,
          "velocity": 0.8031496062992126
        },
        {
          "duration": 0.15885416666666785,
          "durationTicks": 122,
          "midi": 53,
          "name": "F3",
          "ticks": 13440,
          "time": 17.5,
          "velocity": 0.7480314960629921
        },
        {
          "duration": 0.15625,
          "durationTicks": 120,
          "midi": 60,
          "name": "C4",
          "ticks": 13440,
          "time": 17.5,
          "velocity": 0.8267716535433071
        },
        {
          "duration": 0.11197916666666785,
          "durationTicks": 86,
          "midi": 53,
          "name": "F3",
          "ticks": 13632,
          "time": 17.75,
          "velocity": 0.7716535433070866
        },
        {
          "duration": 0.12239583333333215,
          "durationTicks": 94,
          "midi": 60,
          "name": "C4",
          "ticks": 13632,
          "time": 17.75,
          "velocity": 0.7874015748031497
        },
        {
          "duration": 0.11458333333333215,
          "durationTicks": 88,
          "midi": 57,
          "name": "A3",
          "ticks": 13632,
          "time": 17.75,
          "velocity": 0.8267716535433071
        },
        {
          "duration": 1.125,
          "durationTicks": 864,
          "midi": 60,
          "name": "C4",
          "ticks": 13824,
          "time": 18,
          "velocity": 0.8031496062992126
        },
        {
          "duration": 1.0963541666666679,
          "durationTicks": 842,
          "midi": 53,
          "name": "F3",
          "ticks": 13824,
          "time": 18,
          "velocity": 0.8031496062992126
        },
        {
          "duration": 1.125,
          "durationTicks": 864,
          "midi": 57,
          "name": "A3",
          "ticks": 13824,
          "time": 18,
          "velocity": 0.8267716535433071
        },
        {
          "duration": 1.1354166666666679,
          "durationTicks": 872,
          "midi": 43,
          "name": "G2",
          "ticks": 13824,
          "time": 18,
          "velocity": 0.7874015748031497
        },
        {
          "duration": 0.08854166666666785,
          "durationTicks": 68,
          "midi": 43,
          "name": "G2",
          "ticks": 14784,
          "time": 19.25,
          "velocity": 0.8267716535433071
        },
        {
          "duration": 0.07552083333333215,
          "durationTicks": 58,
          "midi": 62,
          "name": "D4",
          "ticks": 14784,
          "time": 19.25,
          "velocity": 0.7874015748031497
        },
        {
          "duration": 0.07291666666666785,
          "durationTicks": 56,
          "midi": 55,
          "name": "G3",
          "ticks": 14784,
          "time": 19.25,
          "velocity": 0.7480314960629921
        },
        {
          "duration": 0.06770833333333215,
          "durationTicks": 52,
          "midi": 59,
          "name": "B3",
          "ticks": 14784,
          "time": 19.25,
          "velocity": 0.84251968503937
        },
        {
          "duration": 0.078125,
          "durationTicks": 60,
          "midi": 43,
          "name": "G2",
          "ticks": 15168,
          "time": 19.75,
          "velocity": 0.8661417322834646
        },
        {
          "duration": 0.0703125,
          "durationTicks": 54,
          "midi": 55,
          "name": "G3",
          "ticks": 15168,
          "time": 19.75,
          "velocity": 0.7874015748031497
        },
        {
          "duration": 0.09114583333333215,
          "durationTicks": 70,
          "midi": 62,
          "name": "D4",
          "ticks": 15168,
          "time": 19.75,
          "velocity": 0.84251968503937
        },
        {
          "duration": 0.07291666666666785,
          "durationTicks": 56,
          "midi": 59,
          "name": "B3",
          "ticks": 15168,
          "time": 19.75,
          "velocity": 0.8661417322834646
        },
        {
          "duration": 1.0807291666666679,
          "durationTicks": 830,
          "midi": 55,
          "name": "G3",
          "ticks": 15360,
          "time": 20,
          "velocity": 0.889763779527559
        },
        {
          "duration": 1.0833333333333321,
          "durationTicks": 832,
          "midi": 52,
          "name": "E3",
          "ticks": 15360,
          "time": 20,
          "velocity": 0.8661417322834646
        },
        {
          "duration": 1.09375,
          "durationTicks": 840,
          "midi": 48,
          "name": "C3",
          "ticks": 15360,
          "time": 20,
          "velocity": 0.889763779527559
        },
        {
          "duration": 0.1171875,
          "durationTicks": 90,
          "midi": 48,
          "name": "C3",
          "ticks": 16320,
          "time": 21.25,
          "velocity": 0.8661417322834646
        },
        {
          "duration": 0.10677083333333215,
          "durationTicks": 82,
          "midi": 52,
          "name": "E3",
          "ticks": 16320,
          "time": 21.25,
          "velocity": 0.8267716535433071
        },
        {
          "duration": 0.1015625,
          "durationTicks": 78,
          "midi": 60,
          "name": "C4",
          "ticks": 16320,
          "time": 21.25,
          "velocity": 0.9133858267716536
        },
        {
          "duration": 0.11458333333333215,
          "durationTicks": 88,
          "midi": 55,
          "name": "G3",
          "ticks": 16320,
          "time": 21.25,
          "velocity": 0.889763779527559
        },
        {
          "duration": 1.1119791666666679,
          "durationTicks": 854,
          "midi": 54,
          "name": "F#3",
          "ticks": 16896,
          "time": 22,
          "velocity": 0.7716535433070866
        },
        {
          "duration": 1.1328125,
          "durationTicks": 870,
          "midi": 57,
          "name": "A3",
          "ticks": 16896,
          "time": 22,
          "velocity": 0.8031496062992126
        },
        {
          "duration": 1.125,
          "durationTicks": 864,
          "midi": 62,
          "name": "D4",
          "ticks": 16896,
          "time": 22,
          "velocity": 0.8267716535433071
        },
        {
          "duration": 0.13802083333333215,
          "durationTicks": 106,
          "midi": 62,
          "name": "D4",
          "ticks": 17856,
          "time": 23.25,
          "velocity": 0.84251968503937
        },
        {
          "duration": 0.15625,
          "durationTicks": 120,
          "midi": 57,
          "name": "A3",
          "ticks": 17856,
          "time": 23.25,
          "velocity": 0.8661417322834646
        },
        {
          "duration": 0.16145833333333215,
          "durationTicks": 124,
          "midi": 54,
          "name": "F#3",
          "ticks": 17856,
          "time": 23.25,
          "velocity": 0.8267716535433071
        },
        {
          "duration": 0.09635416666666785,
          "durationTicks": 74,
          "midi": 50,
          "name": "D3",
          "ticks": 17856,
          "time": 23.25,
          "velocity": 0.889763779527559
        },
        {
          "duration": 0.10416666666666785,
          "durationTicks": 80,
          "midi": 57,
          "name": "A3",
          "ticks": 18240,
          "time": 23.75,
          "velocity": 0.7480314960629921
        },
        {
          "duration": 0.14322916666666785,
          "durationTicks": 110,
          "midi": 54,
          "name": "F#3",
          "ticks": 18240,
          "time": 23.75,
          "velocity": 0.7165354330708661
        },
        {
          "duration": 0.1328125,
          "durationTicks": 102,
          "midi": 62,
          "name": "D4",
          "ticks": 18240,
          "time": 23.75,
          "velocity": 0.7716535433070866
        },
        {
          "duration": 1.2604166666666679,
          "durationTicks": 968,
          "midi": 48,
          "name": "C3",
          "ticks": 18432,
          "time": 24,
          "velocity": 0.6850393700787402
        },
        {
          "duration": 1.1328125,
          "durationTicks": 870,
          "midi": 60,
          "name": "C4",
          "ticks": 18432,
          "time": 24,
          "velocity": 0.7874015748031497
        },
        {
          "duration": 1.265625,
          "durationTicks": 972,
          "midi": 41,
          "name": "F2",
          "ticks": 18432,
          "time": 24,
          "velocity": 0.6850393700787402
        },
        {
          "duration": 1.1458333333333321,
          "durationTicks": 880,
          "midi": 57,
          "name": "A3",
          "ticks": 18432,
          "time": 24,
          "velocity": 0.7007874015748031
        },
        {
          "duration": 1.1354166666666679,
          "durationTicks": 872,
          "midi": 53,
          "name": "F3",
          "ticks": 18432,
          "time": 24,
          "velocity": 0.6692913385826772
        },
        {
          "duration": 0.10416666666666785,
          "durationTicks": 80,
          "midi": 60,
          "name": "C4",
          "ticks": 19392,
          "time": 25.25,
          "velocity": 0.8031496062992126
        },
        {
          "duration": 0.10416666666666785,
          "durationTicks": 80,
          "midi": 57,
          "name": "A3",
          "ticks": 19392,
          "time": 25.25,
          "velocity": 0.8031496062992126
        },
        {
          "duration": 0.10677083333333215,
          "durationTicks": 82,
          "midi": 53,
          "name": "F3",
          "ticks": 19392,
          "time": 25.25,
          "velocity": 0.7716535433070866
        },
        {
          "duration": 0.11458333333333215,
          "durationTicks": 88,
          "midi": 41,
          "name": "F2",
          "ticks": 19488,
          "time": 25.375,
          "velocity": 0.8031496062992126
        },
        {
          "duration": 0.11197916666666785,
          "durationTicks": 86,
          "midi": 48,
          "name": "C3",
          "ticks": 19488,
          "time": 25.375,
          "velocity": 0.8267716535433071
        },
        {
          "duration": 0.1640625,
          "durationTicks": 126,
          "midi": 57,
          "name": "A3",
          "ticks": 19584,
          "time": 25.5,
          "velocity": 0.8031496062992126
        },
        {
          "duration": 0.15885416666666785,
          "durationTicks": 122,
          "midi": 53,
          "name": "F3",
          "ticks": 19584,
          "time": 25.5,
          "velocity": 0.7480314960629921
        },
        {
          "duration": 0.15625,
          "durationTicks": 120,
          "midi": 60,
          "name": "C4",
          "ticks": 19584,
          "time": 25.5,
          "velocity": 0.8267716535433071
        },
        {
          "duration": 0.11197916666666785,
          "durationTicks": 86,
          "midi": 53,
          "name": "F3",
          "ticks": 19776,
          "time": 25.75,
          "velocity": 0.7716535433070866
        },
        {
          "duration": 0.12239583333333215,
          "durationTicks": 94,
          "midi": 60,
          "name": "C4",
          "ticks": 19776,
          "time": 25.75,
          "velocity": 0.7874015748031497
        },
        {
          "duration": 0.11458333333333215,
          "durationTicks": 88,
          "midi": 57,
          "name": "A3",
          "ticks": 19776,
          "time": 25.75,
          "velocity": 0.8267716535433071
        },
        {
          "duration": 1.125,
          "durationTicks": 864,
          "midi": 60,
          "name": "C4",
          "ticks": 19968,
          "time": 26,
          "velocity": 0.8031496062992126
        },
        {
          "duration": 1.0963541666666679,
          "durationTicks": 842,
          "midi": 53,
          "name": "F3",
          "ticks": 19968,
          "time": 26,
          "velocity": 0.8031496062992126
        },
        {
          "duration": 1.125,
          "durationTicks": 864,
          "midi": 57,
          "name": "A3",
          "ticks": 19968,
          "time": 26,
          "velocity": 0.8267716535433071
        },
        {
          "duration": 1.1354166666666679,
          "durationTicks": 872,
          "midi": 43,
          "name": "G2",
          "ticks": 19968,
          "time": 26,
          "velocity": 0.7874015748031497
        },
        {
          "duration": 0.08854166666666785,
          "durationTicks": 68,
          "midi": 43,
          "name": "G2",
          "ticks": 20928,
          "time": 27.25,
          "velocity": 0.8267716535433071
        },
        {
          "duration": 0.07552083333333215,
          "durationTicks": 58,
          "midi": 62,
          "name": "D4",
          "ticks": 20928,
          "time": 27.25,
          "velocity": 0.7874015748031497
        },
        {
          "duration": 0.07291666666666785,
          "durationTicks": 56,
          "midi": 55,
          "name": "G3",
          "ticks": 20928,
          "time": 27.25,
          "velocity": 0.7480314960629921
        },
        {
          "duration": 0.06770833333333215,
          "durationTicks": 52,
          "midi": 59,
          "name": "B3",
          "ticks": 20928,
          "time": 27.25,
          "velocity": 0.84251968503937
        },
        {
          "duration": 0.078125,
          "durationTicks": 60,
          "midi": 43,
          "name": "G2",
          "ticks": 21312,
          "time": 27.75,
          "velocity": 0.8661417322834646
        },
        {
          "duration": 0.0703125,
          "durationTicks": 54,
          "midi": 55,
          "name": "G3",
          "ticks": 21312,
          "time": 27.75,
          "velocity": 0.7874015748031497
        },
        {
          "duration": 0.09114583333333215,
          "durationTicks": 70,
          "midi": 62,
          "name": "D4",
          "ticks": 21312,
          "time": 27.75,
          "velocity": 0.84251968503937
        },
        {
          "duration": 0.07291666666666785,
          "durationTicks": 56,
          "midi": 59,
          "name": "B3",
          "ticks": 21312,
          "time": 27.75,
          "velocity": 0.8661417322834646
        },
        {
          "duration": 0.5208333333333321,
          "durationTicks": 400,
          "midi": 50,
          "name": "D3",
          "ticks": 21504,
          "time": 28,
          "velocity": 0.8031496062992126
        },
        {
          "duration": 0.5416666666666679,
          "durationTicks": 416,
          "midi": 43,
          "name": "G2",
          "ticks": 21504,
          "time": 28,
          "velocity": 0.7874015748031497
        },
        {
          "duration": 0.38541666666666785,
          "durationTicks": 296,
          "midi": 62,
          "name": "D4",
          "ticks": 21504,
          "time": 28,
          "velocity": 0.7716535433070866
        },
        {
          "duration": 0.38541666666666785,
          "durationTicks": 296,
          "midi": 59,
          "name": "B3",
          "ticks": 21504,
          "time": 28,
          "velocity": 0.7165354330708661
        },
        {
          "duration": 0.375,
          "durationTicks": 288,
          "midi": 67,
          "name": "G4",
          "ticks": 21504,
          "time": 28,
          "velocity": 0.7480314960629921
        },
        {
          "duration": 0.29427083333333215,
          "durationTicks": 226,
          "midi": 69,
          "name": "A4",
          "ticks": 21888,
          "time": 28.5,
          "velocity": 0.8267716535433071
        },
        {
          "duration": 0.27864583333333215,
          "durationTicks": 214,
          "midi": 59,
          "name": "B3",
          "ticks": 21888,
          "time": 28.5,
          "velocity": 0.6299212598425197
        },
        {
          "duration": 0.28125,
          "durationTicks": 216,
          "midi": 62,
          "name": "D4",
          "ticks": 21888,
          "time": 28.5,
          "velocity": 0.7874015748031497
        },
        {
          "duration": 0.09375,
          "durationTicks": 72,
          "midi": 43,
          "name": "G2",
          "ticks": 22080,
          "time": 28.75,
          "velocity": 0.7007874015748031
        },
        {
          "duration": 0.08333333333333215,
          "durationTicks": 64,
          "midi": 50,
          "name": "D3",
          "ticks": 22080,
          "time": 28.75,
          "velocity": 0.7716535433070866
        },
        {
          "duration": 0.08072916666666785,
          "durationTicks": 62,
          "midi": 67,
          "name": "G4",
          "ticks": 22272,
          "time": 29,
          "velocity": 0.7165354330708661
        },
        {
          "duration": 0.07552083333333215,
          "durationTicks": 58,
          "midi": 59,
          "name": "B3",
          "ticks": 22272,
          "time": 29,
          "velocity": 0.6692913385826772
        },
        {
          "duration": 0.078125,
          "durationTicks": 60,
          "midi": 62,
          "name": "D4",
          "ticks": 22272,
          "time": 29,
          "velocity": 0.8031496062992126
        },
        {
          "duration": 0.37760416666666785,
          "durationTicks": 290,
          "midi": 62,
          "name": "D4",
          "ticks": 22464,
          "time": 29.25,
          "velocity": 0.8267716535433071
        },
        {
          "duration": 0.36458333333333215,
          "durationTicks": 280,
          "midi": 59,
          "name": "B3",
          "ticks": 22464,
          "time": 29.25,
          "velocity": 0.6850393700787402
        },
        {
          "duration": 0.3671875,
          "durationTicks": 282,
          "midi": 67,
          "name": "G4",
          "ticks": 22464,
          "time": 29.25,
          "velocity": 0.8031496062992126
        },
        {
          "duration": 0.08072916666666785,
          "durationTicks": 62,
          "midi": 43,
          "name": "G2",
          "ticks": 22656,
          "time": 29.5,
          "velocity": 0.7165354330708661
        },
        {
          "duration": 0.078125,
          "durationTicks": 60,
          "midi": 50,
          "name": "D3",
          "ticks": 22656,
          "time": 29.5,
          "velocity": 0.7716535433070866
        },
        {
          "duration": 0.38541666666666785,
          "durationTicks": 296,
          "midi": 59,
          "name": "B3",
          "ticks": 22848,
          "time": 29.75,
          "velocity": 0.6692913385826772
        },
        {
          "duration": 0.65625,
          "durationTicks": 504,
          "midi": 62,
          "name": "D4",
          "ticks": 22848,
          "time": 29.75,
          "velocity": 0.8031496062992126
        },
        {
          "duration": 0.5807291666666679,
          "durationTicks": 446,
          "midi": 67,
          "name": "G4",
          "ticks": 22848,
          "time": 29.75,
          "velocity": 0.7874015748031497
        },
        {
          "duration": 0.8697916666666679,
          "durationTicks": 668,
          "midi": 50,
          "name": "D3",
          "ticks": 22848,
          "time": 29.75,
          "velocity": 0.7480314960629921
        },
        {
          "duration": 0.8880208333333321,
          "durationTicks": 682,
          "midi": 43,
          "name": "G2",
          "ticks": 22848,
          "time": 29.75,
          "velocity": 0.7322834645669292
        },
        {
          "duration": 0.14583333333333215,
          "durationTicks": 112,
          "midi": 59,
          "name": "B3",
          "ticks": 23232,
          "time": 30.25,
          "velocity": 0.7874015748031497
        },
        {
          "duration": 0.375,
          "durationTicks": 288,
          "midi": 59,
          "name": "B3",
          "ticks": 23424,
          "time": 30.5,
          "velocity": 0.6692913385826772
        },
        {
          "duration": 0.375,
          "durationTicks": 288,
          "midi": 69,
          "name": "A4",
          "ticks": 23424,
          "time": 30.5,
          "velocity": 0.84251968503937
        },
        {
          "duration": 0.40104166666666785,
          "durationTicks": 308,
          "midi": 62,
          "name": "D4",
          "ticks": 23424,
          "time": 30.5,
          "velocity": 0.7716535433070866
        },
        {
          "duration": 0.09895833333333215,
          "durationTicks": 76,
          "midi": 50,
          "name": "D3",
          "ticks": 23712,
          "time": 30.875,
          "velocity": 0.7480314960629921
        },
        {
          "duration": 0.09375,
          "durationTicks": 72,
          "midi": 43,
          "name": "G2",
          "ticks": 23712,
          "time": 30.875,
          "velocity": 0.5669291338582677
        },
        {
          "duration": 0.28125,
          "durationTicks": 216,
          "midi": 59,
          "name": "B3",
          "ticks": 23808,
          "time": 31,
          "velocity": 0.6692913385826772
        },
        {
          "duration": 0.29166666666666785,
          "durationTicks": 224,
          "midi": 67,
          "name": "G4",
          "ticks": 23808,
          "time": 31,
          "velocity": 0.7874015748031497
        },
        {
          "duration": 0.30729166666666785,
          "durationTicks": 236,
          "midi": 62,
          "name": "D4",
          "ticks": 23808,
          "time": 31,
          "velocity": 0.8031496062992126
        },
        {
          "duration": 0.125,
          "durationTicks": 96,
          "midi": 43,
          "name": "G2",
          "ticks": 24000,
          "time": 31.25,
          "velocity": 0.8031496062992126
        },
        {
          "duration": 0.09375,
          "durationTicks": 72,
          "midi": 50,
          "name": "D3",
          "ticks": 24000,
          "time": 31.25,
          "velocity": 0.84251968503937
        },
        {
          "duration": 0.22135416666666785,
          "durationTicks": 170,
          "midi": 62,
          "name": "D4",
          "ticks": 24192,
          "time": 31.5,
          "velocity": 0.8267716535433071
        },
        {
          "duration": 0.22395833333333215,
          "durationTicks": 172,
          "midi": 67,
          "name": "G4",
          "ticks": 24192,
          "time": 31.5,
          "velocity": 0.8267716535433071
        },
        {
          "duration": 0.24739583333333215,
          "durationTicks": 190,
          "midi": 59,
          "name": "B3",
          "ticks": 24192,
          "time": 31.5,
          "velocity": 0.7716535433070866
        },
        {
          "duration": 0.3932291666666643,
          "durationTicks": 302,
          "midi": 57,
          "name": "A3",
          "ticks": 24576,
          "time": 32,
          "velocity": 0.5984251968503937
        },
        {
          "duration": 0.4036458333333357,
          "durationTicks": 310,
          "midi": 60,
          "name": "C4",
          "ticks": 24576,
          "time": 32,
          "velocity": 0.8031496062992126
        },
        {
          "duration": 0.578125,
          "durationTicks": 444,
          "midi": 41,
          "name": "F2",
          "ticks": 24576,
          "time": 32,
          "velocity": 0.7322834645669292
        },
        {
          "duration": 0.578125,
          "durationTicks": 444,
          "midi": 48,
          "name": "C3",
          "ticks": 24576,
          "time": 32,
          "velocity": 0.7480314960629921
        },
        {
          "duration": 0.3671875,
          "durationTicks": 282,
          "midi": 65,
          "name": "F4",
          "ticks": 24576,
          "time": 32,
          "velocity": 0.7874015748031497
        },
        {
          "duration": 0.1875,
          "durationTicks": 144,
          "midi": 67,
          "name": "G4",
          "ticks": 24960,
          "time": 32.5,
          "velocity": 0.8267716535433071
        },
        {
          "duration": 0.2213541666666643,
          "durationTicks": 170,
          "midi": 60,
          "name": "C4",
          "ticks": 24960,
          "time": 32.5,
          "velocity": 0.8031496062992126
        },
        {
          "duration": 0.2291666666666643,
          "durationTicks": 176,
          "midi": 57,
          "name": "A3",
          "ticks": 24960,
          "time": 32.5,
          "velocity": 0.7874015748031497
        },
        {
          "duration": 0.0833333333333357,
          "durationTicks": 64,
          "midi": 41,
          "name": "F2",
          "ticks": 25152,
          "time": 32.75,
          "velocity": 0.6850393700787402
        },
        {
          "duration": 0.09375,
          "durationTicks": 72,
          "midi": 48,
          "name": "C3",
          "ticks": 25152,
          "time": 32.75,
          "velocity": 0.7716535433070866
        },
        {
          "duration": 0.09375,
          "durationTicks": 72,
          "midi": 57,
          "name": "A3",
          "ticks": 25344,
          "time": 33,
          "velocity": 0.6299212598425197
        },
        {
          "duration": 0.0911458333333357,
          "durationTicks": 70,
          "midi": 60,
          "name": "C4",
          "ticks": 25344,
          "time": 33,
          "velocity": 0.7874015748031497
        },
        {
          "duration": 0.1067708333333357,
          "durationTicks": 82,
          "midi": 65,
          "name": "F4",
          "ticks": 25344,
          "time": 33,
          "velocity": 0.7874015748031497
        },
        {
          "duration": 0.2890625,
          "durationTicks": 222,
          "midi": 65,
          "name": "F4",
          "ticks": 25536,
          "time": 33.25,
          "velocity": 0.84251968503937
        },
        {
          "duration": 0.3020833333333357,
          "durationTicks": 232,
          "midi": 57,
          "name": "A3",
          "ticks": 25536,
          "time": 33.25,
          "velocity": 0.8031496062992126
        },
        {
          "duration": 0.3020833333333357,
          "durationTicks": 232,
          "midi": 60,
          "name": "C4",
          "ticks": 25536,
          "time": 33.25,
          "velocity": 0.84251968503937
        },
        {
          "duration": 0.078125,
          "durationTicks": 60,
          "midi": 48,
          "name": "C3",
          "ticks": 25728,
          "time": 33.5,
          "velocity": 0.8267716535433071
        },
        {
          "duration": 0.1015625,
          "durationTicks": 78,
          "midi": 41,
          "name": "F2",
          "ticks": 25728,
          "time": 33.5,
          "velocity": 0.8267716535433071
        },
        {
          "duration": 0.5833333333333357,
          "durationTicks": 448,
          "midi": 65,
          "name": "F4",
          "ticks": 25920,
          "time": 33.75,
          "velocity": 0.8031496062992126
        },
        {
          "duration": 0.5859375,
          "durationTicks": 450,
          "midi": 57,
          "name": "A3",
          "ticks": 25920,
          "time": 33.75,
          "velocity": 0.7480314960629921
        },
        {
          "duration": 0.6145833333333357,
          "durationTicks": 472,
          "midi": 60,
          "name": "C4",
          "ticks": 25920,
          "time": 33.75,
          "velocity": 0.8267716535433071
        },
        {
          "duration": 0.3333333333333357,
          "durationTicks": 256,
          "midi": 41,
          "name": "F2",
          "ticks": 26304,
          "time": 34.25,
          "velocity": 0.7874015748031497
        },
        {
          "duration": 0.3229166666666643,
          "durationTicks": 248,
          "midi": 48,
          "name": "C3",
          "ticks": 26304,
          "time": 34.25,
          "velocity": 0.7874015748031497
        },
        {
          "duration": 0.3333333333333357,
          "durationTicks": 256,
          "midi": 67,
          "name": "G4",
          "ticks": 26496,
          "time": 34.5,
          "velocity": 0.8267716535433071
        },
        {
          "duration": 0.3463541666666643,
          "durationTicks": 266,
          "midi": 57,
          "name": "A3",
          "ticks": 26496,
          "time": 34.5,
          "velocity": 0.6692913385826772
        },
        {
          "duration": 0.3697916666666643,
          "durationTicks": 284,
          "midi": 60,
          "name": "C4",
          "ticks": 26496,
          "time": 34.5,
          "velocity": 0.8031496062992126
        },
        {
          "duration": 0.2526041666666643,
          "durationTicks": 194,
          "midi": 48,
          "name": "C3",
          "ticks": 26688,
          "time": 34.75,
          "velocity": 0.7716535433070866
        },
        {
          "duration": 0.2578125,
          "durationTicks": 198,
          "midi": 41,
          "name": "F2",
          "ticks": 26688,
          "time": 34.75,
          "velocity": 0.7716535433070866
        },
        {
          "duration": 0.0755208333333357,
          "durationTicks": 58,
          "midi": 57,
          "name": "A3",
          "ticks": 26880,
          "time": 35,
          "velocity": 0.7165354330708661
        },
        {
          "duration": 0.078125,
          "durationTicks": 60,
          "midi": 60,
          "name": "C4",
          "ticks": 26880,
          "time": 35,
          "velocity": 0.8031496062992126
        },
        {
          "duration": 0.0963541666666643,
          "durationTicks": 74,
          "midi": 65,
          "name": "F4",
          "ticks": 26880,
          "time": 35,
          "velocity": 0.8031496062992126
        },
        {
          "duration": 0.3489583333333357,
          "durationTicks": 268,
          "midi": 60,
          "name": "C4",
          "ticks": 27072,
          "time": 35.25,
          "velocity": 0.84251968503937
        },
        {
          "duration": 0.3333333333333357,
          "durationTicks": 256,
          "midi": 57,
          "name": "A3",
          "ticks": 27072,
          "time": 35.25,
          "velocity": 0.8031496062992126
        },
        {
          "duration": 0.3489583333333357,
          "durationTicks": 268,
          "midi": 65,
          "name": "F4",
          "ticks": 27072,
          "time": 35.25,
          "velocity": 0.8031496062992126
        },
        {
          "duration": 0.1223958333333357,
          "durationTicks": 94,
          "midi": 48,
          "name": "C3",
          "ticks": 27264,
          "time": 35.5,
          "velocity": 0.8267716535433071
        },
        {
          "duration": 0.1354166666666643,
          "durationTicks": 104,
          "midi": 41,
          "name": "F2",
          "ticks": 27264,
          "time": 35.5,
          "velocity": 0.8031496062992126
        },
        {
          "duration": 0.1145833333333357,
          "durationTicks": 88,
          "midi": 60,
          "name": "C4",
          "ticks": 27456,
          "time": 35.75,
          "velocity": 0.8267716535433071
        },
        {
          "duration": 0.0885416666666643,
          "durationTicks": 68,
          "midi": 57,
          "name": "A3",
          "ticks": 27456,
          "time": 35.75,
          "velocity": 0.6141732283464567
        },
        {
          "duration": 0.1354166666666643,
          "durationTicks": 104,
          "midi": 65,
          "name": "F4",
          "ticks": 27456,
          "time": 35.75,
          "velocity": 0.7874015748031497
        },
        {
          "duration": 0.5833333333333357,
          "durationTicks": 448,
          "midi": 50,
          "name": "D3",
          "ticks": 27648,
          "time": 36,
          "velocity": 0.7007874015748031
        },
        {
          "duration": 0.3697916666666643,
          "durationTicks": 284,
          "midi": 59,
          "name": "B3",
          "ticks": 27648,
          "time": 36,
          "velocity": 0.7165354330708661
        },
        {
          "duration": 0.3645833333333357,
          "durationTicks": 280,
          "midi": 67,
          "name": "G4",
          "ticks": 27648,
          "time": 36,
          "velocity": 0.8031496062992126
        },
        {
          "duration": 0.3854166666666643,
          "durationTicks": 296,
          "midi": 62,
          "name": "D4",
          "ticks": 27648,
          "time": 36,
          "velocity": 0.8267716535433071
        },
        {
          "duration": 0.578125,
          "durationTicks": 444,
          "midi": 43,
          "name": "G2",
          "ticks": 27648,
          "time": 36,
          "velocity": 0.7322834645669292
        },
        {
          "duration": 0.3151041666666643,
          "durationTicks": 242,
          "midi": 62,
          "name": "D4",
          "ticks": 28032,
          "time": 36.5,
          "velocity": 0.8267716535433071
        },
        {
          "duration": 0.3046875,
          "durationTicks": 234,
          "midi": 69,
          "name": "A4",
          "ticks": 28032,
          "time": 36.5,
          "velocity": 0.8661417322834646
        },
        {
          "duration": 0.3046875,
          "durationTicks": 234,
          "midi": 59,
          "name": "B3",
          "ticks": 28032,
          "time": 36.5,
          "velocity": 0.7007874015748031
        },
        {
          "duration": 0.078125,
          "durationTicks": 60,
          "midi": 50,
          "name": "D3",
          "ticks": 28224,
          "time": 36.75,
          "velocity": 0.7480314960629921
        },
        {
          "duration": 0.0885416666666643,
          "durationTicks": 68,
          "midi": 43,
          "name": "G2",
          "ticks": 28224,
          "time": 36.75,
          "velocity": 0.7716535433070866
        },
        {
          "duration": 0.0625,
          "durationTicks": 48,
          "midi": 59,
          "name": "B3",
          "ticks": 28416,
          "time": 37,
          "velocity": 0.7007874015748031
        },
        {
          "duration": 0.0833333333333357,
          "durationTicks": 64,
          "midi": 62,
          "name": "D4",
          "ticks": 28416,
          "time": 37,
          "velocity": 0.8267716535433071
        },
        {
          "duration": 0.0989583333333357,
          "durationTicks": 76,
          "midi": 67,
          "name": "G4",
          "ticks": 28416,
          "time": 37,
          "velocity": 0.8267716535433071
        },
        {
          "duration": 0.2786458333333357,
          "durationTicks": 214,
          "midi": 59,
          "name": "B3",
          "ticks": 28608,
          "time": 37.25,
          "velocity": 0.8031496062992126
        },
        {
          "duration": 0.28125,
          "durationTicks": 216,
          "midi": 62,
          "name": "D4",
          "ticks": 28608,
          "time": 37.25,
          "velocity": 0.8661417322834646
        },
        {
          "duration": 0.28125,
          "durationTicks": 216,
          "midi": 67,
          "name": "G4",
          "ticks": 28608,
          "time": 37.25,
          "velocity": 0.8031496062992126
        },
        {
          "duration": 0.0598958333333357,
          "durationTicks": 46,
          "midi": 50,
          "name": "D3",
          "ticks": 28800,
          "time": 37.5,
          "velocity": 0.7874015748031497
        },
        {
          "duration": 0.0703125,
          "durationTicks": 54,
          "midi": 43,
          "name": "G2",
          "ticks": 28800,
          "time": 37.5,
          "velocity": 0.7874015748031497
        },
        {
          "duration": 0.6458333333333357,
          "durationTicks": 496,
          "midi": 62,
          "name": "D4",
          "ticks": 28992,
          "time": 37.75,
          "velocity": 0.8661417322834646
        },
        {
          "duration": 0.3671875,
          "durationTicks": 282,
          "midi": 59,
          "name": "B3",
          "ticks": 28992,
          "time": 37.75,
          "velocity": 0.7716535433070866
        },
        {
          "duration": 0.5911458333333357,
          "durationTicks": 454,
          "midi": 67,
          "name": "G4",
          "ticks": 28992,
          "time": 37.75,
          "velocity": 0.7874015748031497
        },
        {
          "duration": 0.6015625,
          "durationTicks": 462,
          "midi": 50,
          "name": "D3",
          "ticks": 29184,
          "time": 38,
          "velocity": 0.7874015748031497
        },
        {
          "duration": 0.5911458333333357,
          "durationTicks": 454,
          "midi": 43,
          "name": "G2",
          "ticks": 29184,
          "time": 38,
          "velocity": 0.7716535433070866
        },
        {
          "duration": 0.1380208333333357,
          "durationTicks": 106,
          "midi": 59,
          "name": "B3",
          "ticks": 29376,
          "time": 38.25,
          "velocity": 0.7007874015748031
        },
        {
          "duration": 0.3567708333333357,
          "durationTicks": 274,
          "midi": 59,
          "name": "B3",
          "ticks": 29568,
          "time": 38.5,
          "velocity": 0.6692913385826772
        },
        {
          "duration": 0.3541666666666643,
          "durationTicks": 272,
          "midi": 69,
          "name": "A4",
          "ticks": 29568,
          "time": 38.5,
          "velocity": 0.8267716535433071
        },
        {
          "duration": 0.4114583333333357,
          "durationTicks": 316,
          "midi": 62,
          "name": "D4",
          "ticks": 29568,
          "time": 38.5,
          "velocity": 0.7874015748031497
        },
        {
          "duration": 0.2786458333333357,
          "durationTicks": 214,
          "midi": 43,
          "name": "G2",
          "ticks": 29760,
          "time": 38.75,
          "velocity": 0.5354330708661418
        },
        {
          "duration": 0.1536458333333357,
          "durationTicks": 118,
          "midi": 50,
          "name": "D3",
          "ticks": 29856,
          "time": 38.875,
          "velocity": 0.7165354330708661
        },
        {
          "duration": 0.2265625,
          "durationTicks": 174,
          "midi": 59,
          "name": "B3",
          "ticks": 29952,
          "time": 39,
          "velocity": 0.7007874015748031
        },
        {
          "duration": 0.25,
          "durationTicks": 192,
          "midi": 67,
          "name": "G4",
          "ticks": 29952,
          "time": 39,
          "velocity": 0.7874015748031497
        },
        {
          "duration": 0.25,
          "durationTicks": 192,
          "midi": 62,
          "name": "D4",
          "ticks": 29952,
          "time": 39,
          "velocity": 0.7874015748031497
        },
        {
          "duration": 0.0963541666666643,
          "durationTicks": 74,
          "midi": 50,
          "name": "D3",
          "ticks": 30144,
          "time": 39.25,
          "velocity": 0.8661417322834646
        },
        {
          "duration": 0.1041666666666643,
          "durationTicks": 80,
          "midi": 43,
          "name": "G2",
          "ticks": 30144,
          "time": 39.25,
          "velocity": 0.84251968503937
        },
        {
          "duration": 0.1380208333333357,
          "durationTicks": 106,
          "midi": 62,
          "name": "D4",
          "ticks": 30336,
          "time": 39.5,
          "velocity": 0.8661417322834646
        },
        {
          "duration": 0.1145833333333357,
          "durationTicks": 88,
          "midi": 59,
          "name": "B3",
          "ticks": 30336,
          "time": 39.5,
          "velocity": 0.7874015748031497
        },
        {
          "duration": 0.1510416666666643,
          "durationTicks": 116,
          "midi": 67,
          "name": "G4",
          "ticks": 30336,
          "time": 39.5,
          "velocity": 0.7874015748031497
        },
        {
          "duration": 0.1380208333333357,
          "durationTicks": 106,
          "midi": 59,
          "name": "B3",
          "ticks": 30528,
          "time": 39.75,
          "velocity": 0.6692913385826772
        },
        {
          "duration": 0.1354166666666643,
          "durationTicks": 104,
          "midi": 62,
          "name": "D4",
          "ticks": 30528,
          "time": 39.75,
          "velocity": 0.8031496062992126
        },
        {
          "duration": 0.1354166666666643,
          "durationTicks": 104,
          "midi": 67,
          "name": "G4",
          "ticks": 30528,
          "time": 39.75,
          "velocity": 0.7322834645669292
        },
        {
          "duration": 0.3880208333333357,
          "durationTicks": 298,
          "midi": 57,
          "name": "A3",
          "ticks": 30720,
          "time": 40,
          "velocity": 0.7007874015748031
        },
        {
          "duration": 0.3958333333333357,
          "durationTicks": 304,
          "midi": 60,
          "name": "C4",
          "ticks": 30720,
          "time": 40,
          "velocity": 0.7716535433070866
        },
        {
          "duration": 0.3723958333333357,
          "durationTicks": 286,
          "midi": 65,
          "name": "F4",
          "ticks": 30720,
          "time": 40,
          "velocity": 0.8031496062992126
        },
        {
          "duration": 0.5859375,
          "durationTicks": 450,
          "midi": 48,
          "name": "C3",
          "ticks": 30720,
          "time": 40,
          "velocity": 0.7716535433070866
        },
        {
          "duration": 0.5963541666666643,
          "durationTicks": 458,
          "midi": 41,
          "name": "F2",
          "ticks": 30720,
          "time": 40,
          "velocity": 0.7480314960629921
        },
        {
          "duration": 0.2942708333333357,
          "durationTicks": 226,
          "midi": 67,
          "name": "G4",
          "ticks": 31104,
          "time": 40.5,
          "velocity": 0.8267716535433071
        },
        {
          "duration": 0.3333333333333357,
          "durationTicks": 256,
          "midi": 60,
          "name": "C4",
          "ticks": 31104,
          "time": 40.5,
          "velocity": 0.8031496062992126
        },
        {
          "duration": 0.3307291666666643,
          "durationTicks": 254,
          "midi": 57,
          "name": "A3",
          "ticks": 31104,
          "time": 40.5,
          "velocity": 0.6850393700787402
        },
        {
          "duration": 0.0989583333333357,
          "durationTicks": 76,
          "midi": 41,
          "name": "F2",
          "ticks": 31296,
          "time": 40.75,
          "velocity": 0.7716535433070866
        },
        {
          "duration": 0.0963541666666643,
          "durationTicks": 74,
          "midi": 48,
          "name": "C3",
          "ticks": 31296,
          "time": 40.75,
          "velocity": 0.7716535433070866
        },
        {
          "duration": 0.0703125,
          "durationTicks": 54,
          "midi": 57,
          "name": "A3",
          "ticks": 31488,
          "time": 41,
          "velocity": 0.6692913385826772
        },
        {
          "duration": 0.0703125,
          "durationTicks": 54,
          "midi": 60,
          "name": "C4",
          "ticks": 31488,
          "time": 41,
          "velocity": 0.8031496062992126
        },
        {
          "duration": 0.0911458333333357,
          "durationTicks": 70,
          "midi": 65,
          "name": "F4",
          "ticks": 31488,
          "time": 41,
          "velocity": 0.8031496062992126
        },
        {
          "duration": 0.2447916666666643,
          "durationTicks": 188,
          "midi": 57,
          "name": "A3",
          "ticks": 31680,
          "time": 41.25,
          "velocity": 0.7874015748031497
        },
        {
          "duration": 0.2578125,
          "durationTicks": 198,
          "midi": 60,
          "name": "C4",
          "ticks": 31680,
          "time": 41.25,
          "velocity": 0.84251968503937
        },
        {
          "duration": 0.2708333333333357,
          "durationTicks": 208,
          "midi": 65,
          "name": "F4",
          "ticks": 31680,
          "time": 41.25,
          "velocity": 0.8267716535433071
        },
        {
          "duration": 0.0885416666666643,
          "durationTicks": 68,
          "midi": 41,
          "name": "F2",
          "ticks": 31872,
          "time": 41.5,
          "velocity": 0.8267716535433071
        },
        {
          "duration": 0.0755208333333357,
          "durationTicks": 58,
          "midi": 48,
          "name": "C3",
          "ticks": 31872,
          "time": 41.5,
          "velocity": 0.84251968503937
        },
        {
          "duration": 0.6041666666666643,
          "durationTicks": 464,
          "midi": 60,
          "name": "C4",
          "ticks": 32064,
          "time": 41.75,
          "velocity": 0.8267716535433071
        },
        {
          "duration": 0.5989583333333357,
          "durationTicks": 460,
          "midi": 65,
          "name": "F4",
          "ticks": 32064,
          "time": 41.75,
          "velocity": 0.7874015748031497
        },
        {
          "duration": 0.3958333333333357,
          "durationTicks": 304,
          "midi": 57,
          "name": "A3",
          "ticks": 32064,
          "time": 41.75,
          "velocity": 0.7716535433070866
        },
        {
          "duration": 0.5885416666666643,
          "durationTicks": 452,
          "midi": 48,
          "name": "C3",
          "ticks": 32256,
          "time": 42,
          "velocity": 0.84251968503937
        },
        {
          "duration": 0.5885416666666643,
          "durationTicks": 452,
          "midi": 41,
          "name": "F2",
          "ticks": 32256,
          "time": 42,
          "velocity": 0.8267716535433071
        },
        {
          "duration": 0.1171875,
          "durationTicks": 90,
          "midi": 57,
          "name": "A3",
          "ticks": 32448,
          "time": 42.25,
          "velocity": 0.7322834645669292
        },
        {
          "duration": 0.2083333333333357,
          "durationTicks": 160,
          "midi": 57,
          "name": "A3",
          "ticks": 32640,
          "time": 42.5,
          "velocity": 0.7716535433070866
        },
        {
          "duration": 0.3645833333333357,
          "durationTicks": 280,
          "midi": 65,
          "name": "F4",
          "ticks": 32640,
          "time": 42.5,
          "velocity": 0.8267716535433071
        },
        {
          "duration": 0.3932291666666643,
          "durationTicks": 302,
          "midi": 60,
          "name": "C4",
          "ticks": 32640,
          "time": 42.5,
          "velocity": 0.8267716535433071
        },
        {
          "duration": 0.2552083333333357,
          "durationTicks": 196,
          "midi": 41,
          "name": "F2",
          "ticks": 32832,
          "time": 42.75,
          "velocity": 0.7165354330708661
        },
        {
          "duration": 0.1692708333333357,
          "durationTicks": 130,
          "midi": 48,
          "name": "C3",
          "ticks": 32928,
          "time": 42.875,
          "velocity": 0.6850393700787402
        },
        {
          "duration": 0.25,
          "durationTicks": 192,
          "midi": 60,
          "name": "C4",
          "ticks": 33024,
          "time": 43,
          "velocity": 0.8267716535433071
        },
        {
          "duration": 0.2265625,
          "durationTicks": 174,
          "midi": 57,
          "name": "A3",
          "ticks": 33024,
          "time": 43,
          "velocity": 0.7480314960629921
        },
        {
          "duration": 0.2526041666666643,
          "durationTicks": 194,
          "midi": 65,
          "name": "F4",
          "ticks": 33024,
          "time": 43,
          "velocity": 0.8031496062992126
        },
        {
          "duration": 0.1744791666666643,
          "durationTicks": 134,
          "midi": 48,
          "name": "C3",
          "ticks": 33216,
          "time": 43.25,
          "velocity": 0.889763779527559
        },
        {
          "duration": 0.171875,
          "durationTicks": 132,
          "midi": 41,
          "name": "F2",
          "ticks": 33216,
          "time": 43.25,
          "velocity": 0.84251968503937
        },
        {
          "duration": 0.2083333333333357,
          "durationTicks": 160,
          "midi": 57,
          "name": "A3",
          "ticks": 33408,
          "time": 43.5,
          "velocity": 0.7322834645669292
        },
        {
          "duration": 0.234375,
          "durationTicks": 180,
          "midi": 60,
          "name": "C4",
          "ticks": 33408,
          "time": 43.5,
          "velocity": 0.8267716535433071
        },
        {
          "duration": 0.2630208333333357,
          "durationTicks": 202,
          "midi": 65,
          "name": "F4",
          "ticks": 33408,
          "time": 43.5,
          "velocity": 0.8031496062992126
        },
        {
          "duration": 0.3723958333333357,
          "durationTicks": 286,
          "midi": 59,
          "name": "B3",
          "ticks": 33792,
          "time": 44,
          "velocity": 0.5511811023622047
        },
        {
          "duration": 0.6171875,
          "durationTicks": 474,
          "midi": 50,
          "name": "D3",
          "ticks": 33792,
          "time": 44,
          "velocity": 0.7874015748031497
        },
        {
          "duration": 0.609375,
          "durationTicks": 468,
          "midi": 43,
          "name": "G2",
          "ticks": 33792,
          "time": 44,
          "velocity": 0.7480314960629921
        },
        {
          "duration": 0.3984375,
          "durationTicks": 306,
          "midi": 67,
          "name": "G4",
          "ticks": 33792,
          "time": 44,
          "velocity": 0.7480314960629921
        },
        {
          "duration": 0.3958333333333357,
          "durationTicks": 304,
          "midi": 62,
          "name": "D4",
          "ticks": 33792,
          "time": 44,
          "velocity": 0.7716535433070866
        },
        {
          "duration": 0.2760416666666643,
          "durationTicks": 212,
          "midi": 59,
          "name": "B3",
          "ticks": 34176,
          "time": 44.5,
          "velocity": 0.6850393700787402
        },
        {
          "duration": 0.3020833333333357,
          "durationTicks": 232,
          "midi": 69,
          "name": "A4",
          "ticks": 34176,
          "time": 44.5,
          "velocity": 0.8661417322834646
        },
        {
          "duration": 0.3125,
          "durationTicks": 240,
          "midi": 62,
          "name": "D4",
          "ticks": 34176,
          "time": 44.5,
          "velocity": 0.8267716535433071
        },
        {
          "duration": 0.0546875,
          "durationTicks": 42,
          "midi": 43,
          "name": "G2",
          "ticks": 34368,
          "time": 44.75,
          "velocity": 0.6141732283464567
        },
        {
          "duration": 0.09375,
          "durationTicks": 72,
          "midi": 50,
          "name": "D3",
          "ticks": 34368,
          "time": 44.75,
          "velocity": 0.7716535433070866
        },
        {
          "duration": 0.0755208333333357,
          "durationTicks": 58,
          "midi": 59,
          "name": "B3",
          "ticks": 34560,
          "time": 45,
          "velocity": 0.6456692913385826
        },
        {
          "duration": 0.0703125,
          "durationTicks": 54,
          "midi": 62,
          "name": "D4",
          "ticks": 34560,
          "time": 45,
          "velocity": 0.7874015748031497
        },
        {
          "duration": 0.1015625,
          "durationTicks": 78,
          "midi": 67,
          "name": "G4",
          "ticks": 34560,
          "time": 45,
          "velocity": 0.8031496062992126
        },
        {
          "duration": 0.3255208333333357,
          "durationTicks": 250,
          "midi": 62,
          "name": "D4",
          "ticks": 34752,
          "time": 45.25,
          "velocity": 0.84251968503937
        },
        {
          "duration": 0.3307291666666643,
          "durationTicks": 254,
          "midi": 67,
          "name": "G4",
          "ticks": 34752,
          "time": 45.25,
          "velocity": 0.8031496062992126
        },
        {
          "duration": 0.3072916666666643,
          "durationTicks": 236,
          "midi": 59,
          "name": "B3",
          "ticks": 34752,
          "time": 45.25,
          "velocity": 0.7716535433070866
        },
        {
          "duration": 0.5,
          "durationTicks": 384,
          "midi": 50,
          "name": "D3",
          "ticks": 34944,
          "time": 45.5,
          "velocity": 0.84251968503937
        },
        {
          "duration": 0.5,
          "durationTicks": 384,
          "midi": 43,
          "name": "G2",
          "ticks": 34944,
          "time": 45.5,
          "velocity": 0.8031496062992126
        },
        {
          "duration": 0.25,
          "durationTicks": 192,
          "midi": 59,
          "name": "B3",
          "ticks": 35136,
          "time": 45.75,
          "velocity": 0.6456692913385826
        },
        {
          "duration": 0.25,
          "durationTicks": 192,
          "midi": 62,
          "name": "D4",
          "ticks": 35136,
          "time": 45.75,
          "velocity": 0.8267716535433071
        },
        {
          "duration": 0.25,
          "durationTicks": 192,
          "midi": 67,
          "name": "G4",
          "ticks": 35136,
          "time": 45.75,
          "velocity": 0.8267716535433071
        },
        {
          "duration": 0.1354166666666643,
          "durationTicks": 104,
          "midi": 59,
          "name": "B3",
          "ticks": 35520,
          "time": 46.25,
          "velocity": 0.7165354330708661
        },
        {
          "duration": 0.15625,
          "durationTicks": 120,
          "midi": 67,
          "name": "G4",
          "ticks": 35520,
          "time": 46.25,
          "velocity": 0.7874015748031497
        },
        {
          "duration": 0.1614583333333357,
          "durationTicks": 124,
          "midi": 62,
          "name": "D4",
          "ticks": 35520,
          "time": 46.25,
          "velocity": 0.8267716535433071
        },
        {
          "duration": 0.1588541666666643,
          "durationTicks": 122,
          "midi": 62,
          "name": "D4",
          "ticks": 35904,
          "time": 46.75,
          "velocity": 0.7716535433070866
        },
        {
          "duration": 0.1510416666666643,
          "durationTicks": 116,
          "midi": 69,
          "name": "A4",
          "ticks": 35904,
          "time": 46.75,
          "velocity": 0.8031496062992126
        },
        {
          "duration": 0.1770833333333357,
          "durationTicks": 136,
          "midi": 59,
          "name": "B3",
          "ticks": 35904,
          "time": 46.75,
          "velocity": 0.7322834645669292
        },
        {
          "duration": 0.3645833333333357,
          "durationTicks": 280,
          "midi": 59,
          "name": "B3",
          "ticks": 36096,
          "time": 47,
          "velocity": 0.6141732283464567
        },
        {
          "duration": 0.3854166666666643,
          "durationTicks": 296,
          "midi": 67,
          "name": "G4",
          "ticks": 36096,
          "time": 47,
          "velocity": 0.8031496062992126
        },
        {
          "duration": 0.3984375,
          "durationTicks": 306,
          "midi": 62,
          "name": "D4",
          "ticks": 36096,
          "time": 47,
          "velocity": 0.8031496062992126
        },
        {
          "duration": 0.1354166666666643,
          "durationTicks": 104,
          "midi": 62,
          "name": "D4",
          "ticks": 36480,
          "time": 47.5,
          "velocity": 0.8267716535433071
        },
        {
          "duration": 0.125,
          "durationTicks": 96,
          "midi": 67,
          "name": "G4",
          "ticks": 36480,
          "time": 47.5,
          "velocity": 0.8267716535433071
        },
        {
          "duration": 0.1458333333333357,
          "durationTicks": 112,
          "midi": 59,
          "name": "B3",
          "ticks": 36480,
          "time": 47.5,
          "velocity": 0.7165354330708661
        },
        {
          "duration": 0.3828125,
          "durationTicks": 294,
          "midi": 64,
          "name": "E4",
          "ticks": 36864,
          "time": 48,
          "velocity": 0.7716535433070866
        },
        {
          "duration": 0.3854166666666643,
          "durationTicks": 296,
          "midi": 60,
          "name": "C4",
          "ticks": 36864,
          "time": 48,
          "velocity": 0.8031496062992126
        },
        {
          "duration": 0.3802083333333357,
          "durationTicks": 292,
          "midi": 57,
          "name": "A3",
          "ticks": 36864,
          "time": 48,
          "velocity": 0.7716535433070866
        },
        {
          "duration": 0.7083333333333357,
          "durationTicks": 544,
          "midi": 45,
          "name": "A2",
          "ticks": 36864,
          "time": 48,
          "velocity": 0.6692913385826772
        },
        {
          "duration": 0.3854166666666643,
          "durationTicks": 296,
          "midi": 60,
          "name": "C4",
          "ticks": 37248,
          "time": 48.5,
          "velocity": 0.84251968503937
        },
        {
          "duration": 0.3723958333333357,
          "durationTicks": 286,
          "midi": 57,
          "name": "A3",
          "ticks": 37248,
          "time": 48.5,
          "velocity": 0.8031496062992126
        },
        {
          "duration": 0.3541666666666643,
          "durationTicks": 272,
          "midi": 64,
          "name": "E4",
          "ticks": 37248,
          "time": 48.5,
          "velocity": 0.8661417322834646
        },
        {
          "duration": 0.2552083333333357,
          "durationTicks": 196,
          "midi": 62,
          "name": "D4",
          "ticks": 37632,
          "time": 49,
          "velocity": 0.7874015748031497
        },
        {
          "duration": 0.2395833333333357,
          "durationTicks": 184,
          "midi": 55,
          "name": "G3",
          "ticks": 37632,
          "time": 49,
          "velocity": 0.7480314960629921
        },
        {
          "duration": 0.2734375,
          "durationTicks": 210,
          "midi": 59,
          "name": "B3",
          "ticks": 37632,
          "time": 49,
          "velocity": 0.7874015748031497
        },
        {
          "duration": 0.1067708333333357,
          "durationTicks": 82,
          "midi": 43,
          "name": "G2",
          "ticks": 37824,
          "time": 49.25,
          "velocity": 0.8031496062992126
        },
        {
          "duration": 0.0729166666666643,
          "durationTicks": 56,
          "midi": 59,
          "name": "B3",
          "ticks": 38016,
          "time": 49.5,
          "velocity": 0.8031496062992126
        },
        {
          "duration": 0.0807291666666643,
          "durationTicks": 62,
          "midi": 55,
          "name": "G3",
          "ticks": 38016,
          "time": 49.5,
          "velocity": 0.6850393700787402
        },
        {
          "duration": 0.0859375,
          "durationTicks": 66,
          "midi": 62,
          "name": "D4",
          "ticks": 38016,
          "time": 49.5,
          "velocity": 0.7874015748031497
        },
        {
          "duration": 0.3359375,
          "durationTicks": 258,
          "midi": 45,
          "name": "A2",
          "ticks": 38208,
          "time": 49.75,
          "velocity": 0.4566929133858268
        },
        {
          "duration": 0.6145833333333357,
          "durationTicks": 472,
          "midi": 64,
          "name": "E4",
          "ticks": 38208,
          "time": 49.75,
          "velocity": 0.84251968503937
        },
        {
          "duration": 0.640625,
          "durationTicks": 492,
          "midi": 60,
          "name": "C4",
          "ticks": 38208,
          "time": 49.75,
          "velocity": 0.8267716535433071
        },
        {
          "duration": 0.625,
          "durationTicks": 480,
          "midi": 57,
          "name": "A3",
          "ticks": 38208,
          "time": 49.75,
          "velocity": 0.7874015748031497
        },
        {
          "duration": 1.0520833333333357,
          "durationTicks": 808,
          "midi": 45,
          "name": "A2",
          "ticks": 38592,
          "time": 50.25,
          "velocity": 0.8267716535433071
        },
        {
          "duration": 0.4036458333333357,
          "durationTicks": 310,
          "midi": 60,
          "name": "C4",
          "ticks": 38784,
          "time": 50.5,
          "velocity": 0.84251968503937
        },
        {
          "duration": 0.3958333333333357,
          "durationTicks": 304,
          "midi": 64,
          "name": "E4",
          "ticks": 38784,
          "time": 50.5,
          "velocity": 0.84251968503937
        },
        {
          "duration": 0.34375,
          "durationTicks": 264,
          "midi": 57,
          "name": "A3",
          "ticks": 38784,
          "time": 50.5,
          "velocity": 0.8267716535433071
        },
        {
          "duration": 0.1302083333333357,
          "durationTicks": 100,
          "midi": 52,
          "name": "E3",
          "ticks": 38976,
          "time": 50.75,
          "velocity": 0.84251968503937
        },
        {
          "duration": 0.0885416666666643,
          "durationTicks": 68,
          "midi": 57,
          "name": "A3",
          "ticks": 39168,
          "time": 51,
          "velocity": 0.7322834645669292
        },
        {
          "duration": 0.0885416666666643,
          "durationTicks": 68,
          "midi": 60,
          "name": "C4",
          "ticks": 39168,
          "time": 51,
          "velocity": 0.8031496062992126
        },
        {
          "duration": 0.1119791666666643,
          "durationTicks": 86,
          "midi": 64,
          "name": "E4",
          "ticks": 39168,
          "time": 51,
          "velocity": 0.7874015748031497
        },
        {
          "duration": 0.3619791666666643,
          "durationTicks": 278,
          "midi": 60,
          "name": "C4",
          "ticks": 39360,
          "time": 51.25,
          "velocity": 0.9133858267716536
        },
        {
          "duration": 0.3046875,
          "durationTicks": 234,
          "midi": 57,
          "name": "A3",
          "ticks": 39360,
          "time": 51.25,
          "velocity": 0.8267716535433071
        },
        {
          "duration": 0.3489583333333357,
          "durationTicks": 268,
          "midi": 64,
          "name": "E4",
          "ticks": 39360,
          "time": 51.25,
          "velocity": 0.8267716535433071
        },
        {
          "duration": 0.1041666666666643,
          "durationTicks": 80,
          "midi": 52,
          "name": "E3",
          "ticks": 39552,
          "time": 51.5,
          "velocity": 0.8267716535433071
        },
        {
          "duration": 0.1145833333333357,
          "durationTicks": 88,
          "midi": 45,
          "name": "A2",
          "ticks": 39552,
          "time": 51.5,
          "velocity": 0.7716535433070866
        },
        {
          "duration": 0.5885416666666643,
          "durationTicks": 452,
          "midi": 57,
          "name": "A3",
          "ticks": 39936,
          "time": 52,
          "velocity": 0.7007874015748031
        },
        {
          "duration": 0.9791666666666643,
          "durationTicks": 752,
          "midi": 50,
          "name": "D3",
          "ticks": 39936,
          "time": 52,
          "velocity": 0.7007874015748031
        },
        {
          "duration": 0.4166666666666643,
          "durationTicks": 320,
          "midi": 69,
          "name": "A4",
          "ticks": 39936,
          "time": 52,
          "velocity": 0.8031496062992126
        },
        {
          "duration": 0.9947916666666643,
          "durationTicks": 764,
          "midi": 53,
          "name": "F3",
          "ticks": 39936,
          "time": 52,
          "velocity": 0.6692913385826772
        },
        {
          "duration": 0.4479166666666643,
          "durationTicks": 344,
          "midi": 65,
          "name": "F4",
          "ticks": 39936,
          "time": 52,
          "velocity": 0.8267716535433071
        },
        {
          "duration": 0.4296875,
          "durationTicks": 330,
          "midi": 60,
          "name": "C4",
          "ticks": 39936,
          "time": 52,
          "velocity": 0.7716535433070866
        },
        {
          "duration": 0.375,
          "durationTicks": 288,
          "midi": 69,
          "name": "A4",
          "ticks": 40320,
          "time": 52.5,
          "velocity": 0.7716535433070866
        },
        {
          "duration": 0.3802083333333357,
          "durationTicks": 292,
          "midi": 60,
          "name": "C4",
          "ticks": 40320,
          "time": 52.5,
          "velocity": 0.6850393700787402
        },
        {
          "duration": 0.40625,
          "durationTicks": 312,
          "midi": 65,
          "name": "F4",
          "ticks": 40320,
          "time": 52.5,
          "velocity": 0.7874015748031497
        },
        {
          "duration": 0.0859375,
          "durationTicks": 66,
          "midi": 57,
          "name": "A3",
          "ticks": 40608,
          "time": 52.875,
          "velocity": 0.7007874015748031
        },
        {
          "duration": 0.0703125,
          "durationTicks": 54,
          "midi": 60,
          "name": "C4",
          "ticks": 40704,
          "time": 53,
          "velocity": 0.7716535433070866
        },
        {
          "duration": 0.0677083333333357,
          "durationTicks": 52,
          "midi": 65,
          "name": "F4",
          "ticks": 40704,
          "time": 53,
          "velocity": 0.8267716535433071
        },
        {
          "duration": 0.0833333333333357,
          "durationTicks": 64,
          "midi": 69,
          "name": "A4",
          "ticks": 40704,
          "time": 53,
          "velocity": 0.7716535433070866
        },
        {
          "duration": 0.3333333333333357,
          "durationTicks": 256,
          "midi": 60,
          "name": "C4",
          "ticks": 40896,
          "time": 53.25,
          "velocity": 0.8031496062992126
        },
        {
          "duration": 0.3619791666666643,
          "durationTicks": 278,
          "midi": 69,
          "name": "A4",
          "ticks": 40896,
          "time": 53.25,
          "velocity": 0.8031496062992126
        },
        {
          "duration": 0.3854166666666643,
          "durationTicks": 296,
          "midi": 65,
          "name": "F4",
          "ticks": 40896,
          "time": 53.25,
          "velocity": 0.84251968503937
        },
        {
          "duration": 0.7630208333333357,
          "durationTicks": 586,
          "midi": 57,
          "name": "A3",
          "ticks": 41088,
          "time": 53.5,
          "velocity": 0.7165354330708661
        },
        {
          "duration": 1.125,
          "durationTicks": 864,
          "midi": 53,
          "name": "F3",
          "ticks": 41088,
          "time": 53.5,
          "velocity": 0.7007874015748031
        },
        {
          "duration": 1.0963541666666643,
          "durationTicks": 842,
          "midi": 50,
          "name": "D3",
          "ticks": 41088,
          "time": 53.5,
          "velocity": 0.7716535433070866
        },
        {
          "duration": 0.125,
          "durationTicks": 96,
          "midi": 62,
          "name": "D4",
          "ticks": 41280,
          "time": 53.75,
          "velocity": 0.8031496062992126
        },
        {
          "duration": 0.1354166666666643,
          "durationTicks": 104,
          "midi": 65,
          "name": "F4",
          "ticks": 41280,
          "time": 53.75,
          "velocity": 0.8267716535433071
        },
        {
          "duration": 0.1380208333333357,
          "durationTicks": 106,
          "midi": 69,
          "name": "A4",
          "ticks": 41280,
          "time": 53.75,
          "velocity": 0.8031496062992126
        },
        {
          "duration": 0.3958333333333357,
          "durationTicks": 304,
          "midi": 60,
          "name": "C4",
          "ticks": 41472,
          "time": 54,
          "velocity": 0.8031496062992126
        },
        {
          "duration": 0.421875,
          "durationTicks": 324,
          "midi": 65,
          "name": "F4",
          "ticks": 41472,
          "time": 54,
          "velocity": 0.84251968503937
        },
        {
          "duration": 0.4114583333333357,
          "durationTicks": 316,
          "midi": 69,
          "name": "A4",
          "ticks": 41472,
          "time": 54,
          "velocity": 0.8031496062992126
        },
        {
          "duration": 0.390625,
          "durationTicks": 300,
          "midi": 60,
          "name": "C4",
          "ticks": 41856,
          "time": 54.5,
          "velocity": 0.8031496062992126
        },
        {
          "duration": 0.4010416666666643,
          "durationTicks": 308,
          "midi": 69,
          "name": "A4",
          "ticks": 41856,
          "time": 54.5,
          "velocity": 0.8267716535433071
        },
        {
          "duration": 0.4166666666666643,
          "durationTicks": 320,
          "midi": 65,
          "name": "F4",
          "ticks": 41856,
          "time": 54.5,
          "velocity": 0.8267716535433071
        },
        {
          "duration": 0.1145833333333357,
          "durationTicks": 88,
          "midi": 57,
          "name": "A3",
          "ticks": 42144,
          "time": 54.875,
          "velocity": 0.8031496062992126
        },
        {
          "duration": 0.1666666666666643,
          "durationTicks": 128,
          "midi": 53,
          "name": "F3",
          "ticks": 42144,
          "time": 54.875,
          "velocity": 0.5039370078740157
        },
        {
          "duration": 0.21875,
          "durationTicks": 168,
          "midi": 50,
          "name": "D3",
          "ticks": 42144,
          "time": 54.875,
          "velocity": 0.5196850393700787
        },
        {
          "duration": 0.3046875,
          "durationTicks": 234,
          "midi": 60,
          "name": "C4",
          "ticks": 42240,
          "time": 55,
          "velocity": 0.7874015748031497
        },
        {
          "duration": 0.34375,
          "durationTicks": 264,
          "midi": 69,
          "name": "A4",
          "ticks": 42240,
          "time": 55,
          "velocity": 0.8031496062992126
        },
        {
          "duration": 0.3645833333333357,
          "durationTicks": 280,
          "midi": 65,
          "name": "F4",
          "ticks": 42240,
          "time": 55,
          "velocity": 0.84251968503937
        },
        {
          "duration": 0.1744791666666643,
          "durationTicks": 134,
          "midi": 57,
          "name": "A3",
          "ticks": 42432,
          "time": 55.25,
          "velocity": 0.7874015748031497
        },
        {
          "duration": 0.2135416666666643,
          "durationTicks": 164,
          "midi": 53,
          "name": "F3",
          "ticks": 42432,
          "time": 55.25,
          "velocity": 0.7480314960629921
        },
        {
          "duration": 0.25,
          "durationTicks": 192,
          "midi": 50,
          "name": "D3",
          "ticks": 42432,
          "time": 55.25,
          "velocity": 0.7716535433070866
        },
        {
          "duration": 0.0885416666666643,
          "durationTicks": 68,
          "midi": 69,
          "name": "A4",
          "ticks": 42624,
          "time": 55.5,
          "velocity": 0.84251968503937
        },
        {
          "duration": 0.1119791666666643,
          "durationTicks": 86,
          "midi": 60,
          "name": "C4",
          "ticks": 42624,
          "time": 55.5,
          "velocity": 0.8031496062992126
        },
        {
          "duration": 0.09375,
          "durationTicks": 72,
          "midi": 65,
          "name": "F4",
          "ticks": 42624,
          "time": 55.5,
          "velocity": 0.84251968503937
        },
        {
          "duration": 0.3645833333333357,
          "durationTicks": 280,
          "midi": 62,
          "name": "D4",
          "ticks": 43008,
          "time": 56,
          "velocity": 0.8661417322834646
        },
        {
          "duration": 0.3828125,
          "durationTicks": 294,
          "midi": 59,
          "name": "B3",
          "ticks": 43008,
          "time": 56,
          "velocity": 0.8267716535433071
        },
        {
          "duration": 0.375,
          "durationTicks": 288,
          "midi": 55,
          "name": "G3",
          "ticks": 43008,
          "time": 56,
          "velocity": 0.8031496062992126
        },
        {
          "duration": 0.7109375,
          "durationTicks": 546,
          "midi": 43,
          "name": "G2",
          "ticks": 43008,
          "time": 56,
          "velocity": 0.6850393700787402
        },
        {
          "duration": 0.3776041666666643,
          "durationTicks": 290,
          "midi": 55,
          "name": "G3",
          "ticks": 43392,
          "time": 56.5,
          "velocity": 0.8661417322834646
        },
        {
          "duration": 0.390625,
          "durationTicks": 300,
          "midi": 59,
          "name": "B3",
          "ticks": 43392,
          "time": 56.5,
          "velocity": 0.84251968503937
        },
        {
          "duration": 0.3776041666666643,
          "durationTicks": 290,
          "midi": 62,
          "name": "D4",
          "ticks": 43392,
          "time": 56.5,
          "velocity": 0.8661417322834646
        },
        {
          "duration": 0.1744791666666643,
          "durationTicks": 134,
          "midi": 41,
          "name": "F2",
          "ticks": 43776,
          "time": 57,
          "velocity": 0.6299212598425197
        },
        {
          "duration": 0.3854166666666643,
          "durationTicks": 296,
          "midi": 53,
          "name": "F3",
          "ticks": 43776,
          "time": 57,
          "velocity": 0.8031496062992126
        },
        {
          "duration": 0.4036458333333357,
          "durationTicks": 310,
          "midi": 59,
          "name": "B3",
          "ticks": 43776,
          "time": 57,
          "velocity": 0.8267716535433071
        },
        {
          "duration": 0.3776041666666643,
          "durationTicks": 290,
          "midi": 62,
          "name": "D4",
          "ticks": 43776,
          "time": 57,
          "velocity": 0.8267716535433071
        },
        {
          "duration": 0.3671875,
          "durationTicks": 282,
          "midi": 59,
          "name": "B3",
          "ticks": 44160,
          "time": 57.5,
          "velocity": 0.8267716535433071
        },
        {
          "duration": 0.3567708333333357,
          "durationTicks": 274,
          "midi": 53,
          "name": "F3",
          "ticks": 44160,
          "time": 57.5,
          "velocity": 0.8031496062992126
        },
        {
          "duration": 0.359375,
          "durationTicks": 276,
          "midi": 62,
          "name": "D4",
          "ticks": 44160,
          "time": 57.5,
          "velocity": 0.8267716535433071
        },
        {
          "duration": 0.390625,
          "durationTicks": 300,
          "midi": 52,
          "name": "E3",
          "ticks": 44544,
          "time": 58,
          "velocity": 0.8031496062992126
        },
        {
          "duration": 0.3958333333333357,
          "durationTicks": 304,
          "midi": 59,
          "name": "B3",
          "ticks": 44544,
          "time": 58,
          "velocity": 0.8267716535433071
        },
        {
          "duration": 0.3854166666666643,
          "durationTicks": 296,
          "midi": 62,
          "name": "D4",
          "ticks": 44544,
          "time": 58,
          "velocity": 0.8031496062992126
        },
        {
          "duration": 0.3645833333333357,
          "durationTicks": 280,
          "midi": 52,
          "name": "E3",
          "ticks": 44928,
          "time": 58.5,
          "velocity": 0.8267716535433071
        },
        {
          "duration": 0.40625,
          "durationTicks": 312,
          "midi": 59,
          "name": "B3",
          "ticks": 44928,
          "time": 58.5,
          "velocity": 0.84251968503937
        },
        {
          "duration": 0.4036458333333357,
          "durationTicks": 310,
          "midi": 62,
          "name": "D4",
          "ticks": 44928,
          "time": 58.5,
          "velocity": 0.8267716535433071
        },
        {
          "duration": 0.0651041666666643,
          "durationTicks": 50,
          "midi": 50,
          "name": "D3",
          "ticks": 45216,
          "time": 58.875,
          "velocity": 0.889763779527559
        },
        {
          "duration": 0.3125,
          "durationTicks": 240,
          "midi": 55,
          "name": "G3",
          "ticks": 45312,
          "time": 59,
          "velocity": 0.7874015748031497
        },
        {
          "duration": 0.328125,
          "durationTicks": 252,
          "midi": 62,
          "name": "D4",
          "ticks": 45312,
          "time": 59,
          "velocity": 0.7874015748031497
        },
        {
          "duration": 0.3411458333333357,
          "durationTicks": 262,
          "midi": 59,
          "name": "B3",
          "ticks": 45312,
          "time": 59,
          "velocity": 0.7716535433070866
        },
        {
          "duration": 0.2005208333333357,
          "durationTicks": 154,
          "midi": 50,
          "name": "D3",
          "ticks": 45504,
          "time": 59.25,
          "velocity": 0.9606299212598425
        },
        {
          "duration": 0.3020833333333357,
          "durationTicks": 232,
          "midi": 62,
          "name": "D4",
          "ticks": 45696,
          "time": 59.5,
          "velocity": 0.8661417322834646
        },
        {
          "duration": 0.2890625,
          "durationTicks": 222,
          "midi": 59,
          "name": "B3",
          "ticks": 45696,
          "time": 59.5,
          "velocity": 0.889763779527559
        },
        {
          "duration": 0.2760416666666643,
          "durationTicks": 212,
          "midi": 55,
          "name": "G3",
          "ticks": 45696,
          "time": 59.5,
          "velocity": 0.8267716535433071
        },
        {
          "duration": 0.1145833333333357,
          "durationTicks": 88,
          "midi": 50,
          "name": "D3",
          "ticks": 45888,
          "time": 59.75,
          "velocity": 0.937007874015748
        },
        {
          "duration": 1.0807291666666643,
          "durationTicks": 830,
          "midi": 55,
          "name": "G3",
          "ticks": 46080,
          "time": 60,
          "velocity": 0.889763779527559
        },
        {
          "duration": 1.0833333333333357,
          "durationTicks": 832,
          "midi": 52,
          "name": "E3",
          "ticks": 46080,
          "time": 60,
          "velocity": 0.8661417322834646
        },
        {
          "duration": 1.09375,
          "durationTicks": 840,
          "midi": 48,
          "name": "C3",
          "ticks": 46080,
          "time": 60,
          "velocity": 0.889763779527559
        },
        {
          "duration": 0.1171875,
          "durationTicks": 90,
          "midi": 48,
          "name": "C3",
          "ticks": 47040,
          "time": 61.25,
          "velocity": 0.8661417322834646
        },
        {
          "duration": 0.1067708333333357,
          "durationTicks": 82,
          "midi": 52,
          "name": "E3",
          "ticks": 47040,
          "time": 61.25,
          "velocity": 0.8267716535433071
        },
        {
          "duration": 0.1015625,
          "durationTicks": 78,
          "midi": 60,
          "name": "C4",
          "ticks": 47040,
          "time": 61.25,
          "velocity": 0.9133858267716536
        },
        {
          "duration": 0.1145833333333357,
          "durationTicks": 88,
          "midi": 55,
          "name": "G3",
          "ticks": 47040,
          "time": 61.25,
          "velocity": 0.889763779527559
        },
        {
          "duration": 1.1119791666666643,
          "durationTicks": 854,
          "midi": 54,
          "name": "F#3",
          "ticks": 47616,
          "time": 62,
          "velocity": 0.7716535433070866
        },
        {
          "duration": 1.1328125,
          "durationTicks": 870,
          "midi": 57,
          "name": "A3",
          "ticks": 47616,
          "time": 62,
          "velocity": 0.8031496062992126
        },
        {
          "duration": 1.125,
          "durationTicks": 864,
          "midi": 62,
          "name": "D4",
          "ticks": 47616,
          "time": 62,
          "velocity": 0.8267716535433071
        },
        {
          "duration": 0.1380208333333357,
          "durationTicks": 106,
          "midi": 62,
          "name": "D4",
          "ticks": 48576,
          "time": 63.25,
          "velocity": 0.84251968503937
        },
        {
          "duration": 0.15625,
          "durationTicks": 120,
          "midi": 57,
          "name": "A3",
          "ticks": 48576,
          "time": 63.25,
          "velocity": 0.8661417322834646
        },
        {
          "duration": 0.1614583333333357,
          "durationTicks": 124,
          "midi": 54,
          "name": "F#3",
          "ticks": 48576,
          "time": 63.25,
          "velocity": 0.8267716535433071
        },
        {
          "duration": 0.0963541666666643,
          "durationTicks": 74,
          "midi": 50,
          "name": "D3",
          "ticks": 48576,
          "time": 63.25,
          "velocity": 0.889763779527559
        },
        {
          "duration": 0.1041666666666643,
          "durationTicks": 80,
          "midi": 57,
          "name": "A3",
          "ticks": 48960,
          "time": 63.75,
          "velocity": 0.7480314960629921
        },
        {
          "duration": 0.1432291666666643,
          "durationTicks": 110,
          "midi": 54,
          "name": "F#3",
          "ticks": 48960,
          "time": 63.75,
          "velocity": 0.7165354330708661
        },
        {
          "duration": 0.1328125,
          "durationTicks": 102,
          "midi": 62,
          "name": "D4",
          "ticks": 48960,
          "time": 63.75,
          "velocity": 0.7716535433070866
        },
        {
          "duration": 1.2604166666666714,
          "durationTicks": 968,
          "midi": 48,
          "name": "C3",
          "ticks": 49152,
          "time": 64,
          "velocity": 0.6850393700787402
        },
        {
          "duration": 1.1328125,
          "durationTicks": 870,
          "midi": 60,
          "name": "C4",
          "ticks": 49152,
          "time": 64,
          "velocity": 0.7874015748031497
        },
        {
          "duration": 1.265625,
          "durationTicks": 972,
          "midi": 41,
          "name": "F2",
          "ticks": 49152,
          "time": 64,
          "velocity": 0.6850393700787402
        },
        {
          "duration": 1.1458333333333286,
          "durationTicks": 880,
          "midi": 57,
          "name": "A3",
          "ticks": 49152,
          "time": 64,
          "velocity": 0.7007874015748031
        },
        {
          "duration": 1.1354166666666714,
          "durationTicks": 872,
          "midi": 53,
          "name": "F3",
          "ticks": 49152,
          "time": 64,
          "velocity": 0.6692913385826772
        },
        {
          "duration": 0.1041666666666714,
          "durationTicks": 80,
          "midi": 60,
          "name": "C4",
          "ticks": 50112,
          "time": 65.25,
          "velocity": 0.8031496062992126
        },
        {
          "duration": 0.1041666666666714,
          "durationTicks": 80,
          "midi": 57,
          "name": "A3",
          "ticks": 50112,
          "time": 65.25,
          "velocity": 0.8031496062992126
        },
        {
          "duration": 0.1067708333333286,
          "durationTicks": 82,
          "midi": 53,
          "name": "F3",
          "ticks": 50112,
          "time": 65.25,
          "velocity": 0.7716535433070866
        },
        {
          "duration": 0.1145833333333286,
          "durationTicks": 88,
          "midi": 41,
          "name": "F2",
          "ticks": 50208,
          "time": 65.375,
          "velocity": 0.8031496062992126
        },
        {
          "duration": 0.1119791666666714,
          "durationTicks": 86,
          "midi": 48,
          "name": "C3",
          "ticks": 50208,
          "time": 65.375,
          "velocity": 0.8267716535433071
        },
        {
          "duration": 0.1640625,
          "durationTicks": 126,
          "midi": 57,
          "name": "A3",
          "ticks": 50304,
          "time": 65.5,
          "velocity": 0.8031496062992126
        },
        {
          "duration": 0.1588541666666714,
          "durationTicks": 122,
          "midi": 53,
          "name": "F3",
          "ticks": 50304,
          "time": 65.5,
          "velocity": 0.7480314960629921
        },
        {
          "duration": 0.15625,
          "durationTicks": 120,
          "midi": 60,
          "name": "C4",
          "ticks": 50304,
          "time": 65.5,
          "velocity": 0.8267716535433071
        },
        {
          "duration": 0.1119791666666714,
          "durationTicks": 86,
          "midi": 53,
          "name": "F3",
          "ticks": 50496,
          "time": 65.75,
          "velocity": 0.7716535433070866
        },
        {
          "duration": 0.1223958333333286,
          "durationTicks": 94,
          "midi": 60,
          "name": "C4",
          "ticks": 50496,
          "time": 65.75,
          "velocity": 0.7874015748031497
        },
        {
          "duration": 0.1145833333333286,
          "durationTicks": 88,
          "midi": 57,
          "name": "A3",
          "ticks": 50496,
          "time": 65.75,
          "velocity": 0.8267716535433071
        },
        {
          "duration": 1.125,
          "durationTicks": 864,
          "midi": 60,
          "name": "C4",
          "ticks": 50688,
          "time": 66,
          "velocity": 0.8031496062992126
        },
        {
          "duration": 1.0963541666666714,
          "durationTicks": 842,
          "midi": 53,
          "name": "F3",
          "ticks": 50688,
          "time": 66,
          "velocity": 0.8031496062992126
        },
        {
          "duration": 1.125,
          "durationTicks": 864,
          "midi": 57,
          "name": "A3",
          "ticks": 50688,
          "time": 66,
          "velocity": 0.8267716535433071
        },
        {
          "duration": 1.1354166666666714,
          "durationTicks": 872,
          "midi": 43,
          "name": "G2",
          "ticks": 50688,
          "time": 66,
          "velocity": 0.7874015748031497
        },
        {
          "duration": 0.0885416666666714,
          "durationTicks": 68,
          "midi": 43,
          "name": "G2",
          "ticks": 51648,
          "time": 67.25,
          "velocity": 0.8267716535433071
        },
        {
          "duration": 0.0755208333333286,
          "durationTicks": 58,
          "midi": 62,
          "name": "D4",
          "ticks": 51648,
          "time": 67.25,
          "velocity": 0.7874015748031497
        },
        {
          "duration": 0.0729166666666714,
          "durationTicks": 56,
          "midi": 55,
          "name": "G3",
          "ticks": 51648,
          "time": 67.25,
          "velocity": 0.7480314960629921
        },
        {
          "duration": 0.0677083333333286,
          "durationTicks": 52,
          "midi": 59,
          "name": "B3",
          "ticks": 51648,
          "time": 67.25,
          "velocity": 0.84251968503937
        },
        {
          "duration": 0.078125,
          "durationTicks": 60,
          "midi": 43,
          "name": "G2",
          "ticks": 52032,
          "time": 67.75,
          "velocity": 0.8661417322834646
        },
        {
          "duration": 0.0703125,
          "durationTicks": 54,
          "midi": 55,
          "name": "G3",
          "ticks": 52032,
          "time": 67.75,
          "velocity": 0.7874015748031497
        },
        {
          "duration": 0.0911458333333286,
          "durationTicks": 70,
          "midi": 62,
          "name": "D4",
          "ticks": 52032,
          "time": 67.75,
          "velocity": 0.84251968503937
        },
        {
          "duration": 0.0729166666666714,
          "durationTicks": 56,
          "midi": 59,
          "name": "B3",
          "ticks": 52032,
          "time": 67.75,
          "velocity": 0.8661417322834646
        },
        {
          "duration": 1.0807291666666714,
          "durationTicks": 830,
          "midi": 55,
          "name": "G3",
          "ticks": 52224,
          "time": 68,
          "velocity": 0.889763779527559
        },
        {
          "duration": 1.0833333333333286,
          "durationTicks": 832,
          "midi": 52,
          "name": "E3",
          "ticks": 52224,
          "time": 68,
          "velocity": 0.8661417322834646
        },
        {
          "duration": 1.09375,
          "durationTicks": 840,
          "midi": 48,
          "name": "C3",
          "ticks": 52224,
          "time": 68,
          "velocity": 0.889763779527559
        },
        {
          "duration": 0.1171875,
          "durationTicks": 90,
          "midi": 48,
          "name": "C3",
          "ticks": 53184,
          "time": 69.25,
          "velocity": 0.8661417322834646
        },
        {
          "duration": 0.1067708333333286,
          "durationTicks": 82,
          "midi": 52,
          "name": "E3",
          "ticks": 53184,
          "time": 69.25,
          "velocity": 0.8267716535433071
        },
        {
          "duration": 0.1015625,
          "durationTicks": 78,
          "midi": 60,
          "name": "C4",
          "ticks": 53184,
          "time": 69.25,
          "velocity": 0.9133858267716536
        },
        {
          "duration": 0.1145833333333286,
          "durationTicks": 88,
          "midi": 55,
          "name": "G3",
          "ticks": 53184,
          "time": 69.25,
          "velocity": 0.889763779527559
        },
        {
          "duration": 1.1119791666666714,
          "durationTicks": 854,
          "midi": 54,
          "name": "F#3",
          "ticks": 53760,
          "time": 70,
          "velocity": 0.7716535433070866
        },
        {
          "duration": 1.1328125,
          "durationTicks": 870,
          "midi": 57,
          "name": "A3",
          "ticks": 53760,
          "time": 70,
          "velocity": 0.8031496062992126
        },
        {
          "duration": 1.125,
          "durationTicks": 864,
          "midi": 62,
          "name": "D4",
          "ticks": 53760,
          "time": 70,
          "velocity": 0.8267716535433071
        },
        {
          "duration": 0.1380208333333286,
          "durationTicks": 106,
          "midi": 62,
          "name": "D4",
          "ticks": 54720,
          "time": 71.25,
          "velocity": 0.84251968503937
        },
        {
          "duration": 0.15625,
          "durationTicks": 120,
          "midi": 57,
          "name": "A3",
          "ticks": 54720,
          "time": 71.25,
          "velocity": 0.8661417322834646
        },
        {
          "duration": 0.1614583333333286,
          "durationTicks": 124,
          "midi": 54,
          "name": "F#3",
          "ticks": 54720,
          "time": 71.25,
          "velocity": 0.8267716535433071
        },
        {
          "duration": 0.0963541666666714,
          "durationTicks": 74,
          "midi": 50,
          "name": "D3",
          "ticks": 54720,
          "time": 71.25,
          "velocity": 0.889763779527559
        },
        {
          "duration": 0.1041666666666714,
          "durationTicks": 80,
          "midi": 57,
          "name": "A3",
          "ticks": 55104,
          "time": 71.75,
          "velocity": 0.7480314960629921
        },
        {
          "duration": 0.1432291666666714,
          "durationTicks": 110,
          "midi": 54,
          "name": "F#3",
          "ticks": 55104,
          "time": 71.75,
          "velocity": 0.7165354330708661
        },
        {
          "duration": 0.1328125,
          "durationTicks": 102,
          "midi": 62,
          "name": "D4",
          "ticks": 55104,
          "time": 71.75,
          "velocity": 0.7716535433070866
        },
        {
          "duration": 1.2604166666666714,
          "durationTicks": 968,
          "midi": 48,
          "name": "C3",
          "ticks": 55296,
          "time": 72,
          "velocity": 0.6850393700787402
        },
        {
          "duration": 1.1328125,
          "durationTicks": 870,
          "midi": 60,
          "name": "C4",
          "ticks": 55296,
          "time": 72,
          "velocity": 0.7874015748031497
        },
        {
          "duration": 1.265625,
          "durationTicks": 972,
          "midi": 41,
          "name": "F2",
          "ticks": 55296,
          "time": 72,
          "velocity": 0.6850393700787402
        },
        {
          "duration": 1.1458333333333286,
          "durationTicks": 880,
          "midi": 57,
          "name": "A3",
          "ticks": 55296,
          "time": 72,
          "velocity": 0.7007874015748031
        },
        {
          "duration": 1.1354166666666714,
          "durationTicks": 872,
          "midi": 53,
          "name": "F3",
          "ticks": 55296,
          "time": 72,
          "velocity": 0.6692913385826772
        },
        {
          "duration": 0.1041666666666714,
          "durationTicks": 80,
          "midi": 60,
          "name": "C4",
          "ticks": 56256,
          "time": 73.25,
          "velocity": 0.8031496062992126
        },
        {
          "duration": 0.1041666666666714,
          "durationTicks": 80,
          "midi": 57,
          "name": "A3",
          "ticks": 56256,
          "time": 73.25,
          "velocity": 0.8031496062992126
        },
        {
          "duration": 0.1067708333333286,
          "durationTicks": 82,
          "midi": 53,
          "name": "F3",
          "ticks": 56256,
          "time": 73.25,
          "velocity": 0.7716535433070866
        },
        {
          "duration": 0.1145833333333286,
          "durationTicks": 88,
          "midi": 41,
          "name": "F2",
          "ticks": 56352,
          "time": 73.375,
          "velocity": 0.8031496062992126
        },
        {
          "duration": 0.1119791666666714,
          "durationTicks": 86,
          "midi": 48,
          "name": "C3",
          "ticks": 56352,
          "time": 73.375,
          "velocity": 0.8267716535433071
        },
        {
          "duration": 0.1640625,
          "durationTicks": 126,
          "midi": 57,
          "name": "A3",
          "ticks": 56448,
          "time": 73.5,
          "velocity": 0.8031496062992126
        },
        {
          "duration": 0.1588541666666714,
          "durationTicks": 122,
          "midi": 53,
          "name": "F3",
          "ticks": 56448,
          "time": 73.5,
          "velocity": 0.7480314960629921
        },
        {
          "duration": 0.15625,
          "durationTicks": 120,
          "midi": 60,
          "name": "C4",
          "ticks": 56448,
          "time": 73.5,
          "velocity": 0.8267716535433071
        },
        {
          "duration": 0.1119791666666714,
          "durationTicks": 86,
          "midi": 53,
          "name": "F3",
          "ticks": 56640,
          "time": 73.75,
          "velocity": 0.7716535433070866
        },
        {
          "duration": 0.1223958333333286,
          "durationTicks": 94,
          "midi": 60,
          "name": "C4",
          "ticks": 56640,
          "time": 73.75,
          "velocity": 0.7874015748031497
        },
        {
          "duration": 0.1145833333333286,
          "durationTicks": 88,
          "midi": 57,
          "name": "A3",
          "ticks": 56640,
          "time": 73.75,
          "velocity": 0.8267716535433071
        },
        {
          "duration": 1.125,
          "durationTicks": 864,
          "midi": 60,
          "name": "C4",
          "ticks": 56832,
          "time": 74,
          "velocity": 0.8031496062992126
        },
        {
          "duration": 1.0963541666666714,
          "durationTicks": 842,
          "midi": 53,
          "name": "F3",
          "ticks": 56832,
          "time": 74,
          "velocity": 0.8031496062992126
        },
        {
          "duration": 1.125,
          "durationTicks": 864,
          "midi": 57,
          "name": "A3",
          "ticks": 56832,
          "time": 74,
          "velocity": 0.8267716535433071
        },
        {
          "duration": 1.1354166666666714,
          "durationTicks": 872,
          "midi": 43,
          "name": "G2",
          "ticks": 56832,
          "time": 74,
          "velocity": 0.7874015748031497
        },
        {
          "duration": 0.0885416666666714,
          "durationTicks": 68,
          "midi": 43,
          "name": "G2",
          "ticks": 57792,
          "time": 75.25,
          "velocity": 0.8267716535433071
        },
        {
          "duration": 0.0755208333333286,
          "durationTicks": 58,
          "midi": 62,
          "name": "D4",
          "ticks": 57792,
          "time": 75.25,
          "velocity": 0.7874015748031497
        },
        {
          "duration": 0.0729166666666714,
          "durationTicks": 56,
          "midi": 55,
          "name": "G3",
          "ticks": 57792,
          "time": 75.25,
          "velocity": 0.7480314960629921
        },
        {
          "duration": 0.0677083333333286,
          "durationTicks": 52,
          "midi": 59,
          "name": "B3",
          "ticks": 57792,
          "time": 75.25,
          "velocity": 0.84251968503937
        },
        {
          "duration": 0.078125,
          "durationTicks": 60,
          "midi": 43,
          "name": "G2",
          "ticks": 58176,
          "time": 75.75,
          "velocity": 0.8661417322834646
        },
        {
          "duration": 0.0703125,
          "durationTicks": 54,
          "midi": 55,
          "name": "G3",
          "ticks": 58176,
          "time": 75.75,
          "velocity": 0.7874015748031497
        },
        {
          "duration": 0.0911458333333286,
          "durationTicks": 70,
          "midi": 62,
          "name": "D4",
          "ticks": 58176,
          "time": 75.75,
          "velocity": 0.84251968503937
        },
        {
          "duration": 0.0729166666666714,
          "durationTicks": 56,
          "midi": 59,
          "name": "B3",
          "ticks": 58176,
          "time": 75.75,
          "velocity": 0.8661417322834646
        },
        {
          "duration": 0.5208333333333286,
          "durationTicks": 400,
          "midi": 50,
          "name": "D3",
          "ticks": 58368,
          "time": 76,
          "velocity": 0.8031496062992126
        },
        {
          "duration": 0.5416666666666714,
          "durationTicks": 416,
          "midi": 43,
          "name": "G2",
          "ticks": 58368,
          "time": 76,
          "velocity": 0.7874015748031497
        },
        {
          "duration": 0.3854166666666714,
          "durationTicks": 296,
          "midi": 62,
          "name": "D4",
          "ticks": 58368,
          "time": 76,
          "velocity": 0.7716535433070866
        },
        {
          "duration": 0.3854166666666714,
          "durationTicks": 296,
          "midi": 59,
          "name": "B3",
          "ticks": 58368,
          "time": 76,
          "velocity": 0.7165354330708661
        },
        {
          "duration": 0.375,
          "durationTicks": 288,
          "midi": 67,
          "name": "G4",
          "ticks": 58368,
          "time": 76,
          "velocity": 0.7480314960629921
        },
        {
          "duration": 0.2942708333333286,
          "durationTicks": 226,
          "midi": 69,
          "name": "A4",
          "ticks": 58752,
          "time": 76.5,
          "velocity": 0.8267716535433071
        },
        {
          "duration": 0.2786458333333286,
          "durationTicks": 214,
          "midi": 59,
          "name": "B3",
          "ticks": 58752,
          "time": 76.5,
          "velocity": 0.6299212598425197
        },
        {
          "duration": 0.28125,
          "durationTicks": 216,
          "midi": 62,
          "name": "D4",
          "ticks": 58752,
          "time": 76.5,
          "velocity": 0.7874015748031497
        },
        {
          "duration": 0.09375,
          "durationTicks": 72,
          "midi": 43,
          "name": "G2",
          "ticks": 58944,
          "time": 76.75,
          "velocity": 0.7007874015748031
        },
        {
          "duration": 0.0833333333333286,
          "durationTicks": 64,
          "midi": 50,
          "name": "D3",
          "ticks": 58944,
          "time": 76.75,
          "velocity": 0.7716535433070866
        },
        {
          "duration": 0.0807291666666714,
          "durationTicks": 62,
          "midi": 67,
          "name": "G4",
          "ticks": 59136,
          "time": 77,
          "velocity": 0.7165354330708661
        },
        {
          "duration": 0.0755208333333286,
          "durationTicks": 58,
          "midi": 59,
          "name": "B3",
          "ticks": 59136,
          "time": 77,
          "velocity": 0.6692913385826772
        },
        {
          "duration": 0.078125,
          "durationTicks": 60,
          "midi": 62,
          "name": "D4",
          "ticks": 59136,
          "time": 77,
          "velocity": 0.8031496062992126
        },
        {
          "duration": 0.3776041666666714,
          "durationTicks": 290,
          "midi": 62,
          "name": "D4",
          "ticks": 59328,
          "time": 77.25,
          "velocity": 0.8267716535433071
        },
        {
          "duration": 0.3645833333333286,
          "durationTicks": 280,
          "midi": 59,
          "name": "B3",
          "ticks": 59328,
          "time": 77.25,
          "velocity": 0.6850393700787402
        },
        {
          "duration": 0.3671875,
          "durationTicks": 282,
          "midi": 67,
          "name": "G4",
          "ticks": 59328,
          "time": 77.25,
          "velocity": 0.8031496062992126
        },
        {
          "duration": 0.0807291666666714,
          "durationTicks": 62,
          "midi": 43,
          "name": "G2",
          "ticks": 59520,
          "time": 77.5,
          "velocity": 0.7165354330708661
        },
        {
          "duration": 0.078125,
          "durationTicks": 60,
          "midi": 50,
          "name": "D3",
          "ticks": 59520,
          "time": 77.5,
          "velocity": 0.7716535433070866
        },
        {
          "duration": 0.3854166666666714,
          "durationTicks": 296,
          "midi": 59,
          "name": "B3",
          "ticks": 59712,
          "time": 77.75,
          "velocity": 0.6692913385826772
        },
        {
          "duration": 0.65625,
          "durationTicks": 504,
          "midi": 62,
          "name": "D4",
          "ticks": 59712,
          "time": 77.75,
          "velocity": 0.8031496062992126
        },
        {
          "duration": 0.5807291666666714,
          "durationTicks": 446,
          "midi": 67,
          "name": "G4",
          "ticks": 59712,
          "time": 77.75,
          "velocity": 0.7874015748031497
        },
        {
          "duration": 0.8697916666666714,
          "durationTicks": 668,
          "midi": 50,
          "name": "D3",
          "ticks": 59712,
          "time": 77.75,
          "velocity": 0.7480314960629921
        },
        {
          "duration": 0.8880208333333286,
          "durationTicks": 682,
          "midi": 43,
          "name": "G2",
          "ticks": 59712,
          "time": 77.75,
          "velocity": 0.7322834645669292
        },
        {
          "duration": 0.1458333333333286,
          "durationTicks": 112,
          "midi": 59,
          "name": "B3",
          "ticks": 60096,
          "time": 78.25,
          "velocity": 0.7874015748031497
        },
        {
          "duration": 0.375,
          "durationTicks": 288,
          "midi": 59,
          "name": "B3",
          "ticks": 60288,
          "time": 78.5,
          "velocity": 0.6692913385826772
        },
        {
          "duration": 0.375,
          "durationTicks": 288,
          "midi": 69,
          "name": "A4",
          "ticks": 60288,
          "time": 78.5,
          "velocity": 0.84251968503937
        },
        {
          "duration": 0.4010416666666714,
          "durationTicks": 308,
          "midi": 62,
          "name": "D4",
          "ticks": 60288,
          "time": 78.5,
          "velocity": 0.7716535433070866
        },
        {
          "duration": 0.0989583333333286,
          "durationTicks": 76,
          "midi": 50,
          "name": "D3",
          "ticks": 60576,
          "time": 78.875,
          "velocity": 0.7480314960629921
        },
        {
          "duration": 0.09375,
          "durationTicks": 72,
          "midi": 43,
          "name": "G2",
          "ticks": 60576,
          "time": 78.875,
          "velocity": 0.5669291338582677
        },
        {
          "duration": 0.28125,
          "durationTicks": 216,
          "midi": 59,
          "name": "B3",
          "ticks": 60672,
          "time": 79,
          "velocity": 0.6692913385826772
        },
        {
          "duration": 0.2916666666666714,
          "durationTicks": 224,
          "midi": 67,
          "name": "G4",
          "ticks": 60672,
          "time": 79,
          "velocity": 0.7874015748031497
        },
        {
          "duration": 0.3072916666666714,
          "durationTicks": 236,
          "midi": 62,
          "name": "D4",
          "ticks": 60672,
          "time": 79,
          "velocity": 0.8031496062992126
        },
        {
          "duration": 0.125,
          "durationTicks": 96,
          "midi": 43,
          "name": "G2",
          "ticks": 60864,
          "time": 79.25,
          "velocity": 0.8031496062992126
        },
        {
          "duration": 0.09375,
          "durationTicks": 72,
          "midi": 50,
          "name": "D3",
          "ticks": 60864,
          "time": 79.25,
          "velocity": 0.84251968503937
        },
        {
          "duration": 0.2213541666666714,
          "durationTicks": 170,
          "midi": 62,
          "name": "D4",
          "ticks": 61056,
          "time": 79.5,
          "velocity": 0.8267716535433071
        },
        {
          "duration": 0.2239583333333286,
          "durationTicks": 172,
          "midi": 67,
          "name": "G4",
          "ticks": 61056,
          "time": 79.5,
          "velocity": 0.8267716535433071
        },
        {
          "duration": 0.2473958333333286,
          "durationTicks": 190,
          "midi": 59,
          "name": "B3",
          "ticks": 61056,
          "time": 79.5,
          "velocity": 0.7716535433070866
        },
        {
          "duration": 0.3932291666666714,
          "durationTicks": 302,
          "midi": 57,
          "name": "A3",
          "ticks": 61440,
          "time": 80,
          "velocity": 0.5984251968503937
        },
        {
          "duration": 0.4036458333333286,
          "durationTicks": 310,
          "midi": 60,
          "name": "C4",
          "ticks": 61440,
          "time": 80,
          "velocity": 0.8031496062992126
        },
        {
          "duration": 0.578125,
          "durationTicks": 444,
          "midi": 41,
          "name": "F2",
          "ticks": 61440,
          "time": 80,
          "velocity": 0.7322834645669292
        },
        {
          "duration": 0.578125,
          "durationTicks": 444,
          "midi": 48,
          "name": "C3",
          "ticks": 61440,
          "time": 80,
          "velocity": 0.7480314960629921
        },
        {
          "duration": 0.3671875,
          "durationTicks": 282,
          "midi": 65,
          "name": "F4",
          "ticks": 61440,
          "time": 80,
          "velocity": 0.7874015748031497
        },
        {
          "duration": 0.1875,
          "durationTicks": 144,
          "midi": 67,
          "name": "G4",
          "ticks": 61824,
          "time": 80.5,
          "velocity": 0.8267716535433071
        },
        {
          "duration": 0.2213541666666714,
          "durationTicks": 170,
          "midi": 60,
          "name": "C4",
          "ticks": 61824,
          "time": 80.5,
          "velocity": 0.8031496062992126
        },
        {
          "duration": 0.2291666666666714,
          "durationTicks": 176,
          "midi": 57,
          "name": "A3",
          "ticks": 61824,
          "time": 80.5,
          "velocity": 0.7874015748031497
        },
        {
          "duration": 0.0833333333333286,
          "durationTicks": 64,
          "midi": 41,
          "name": "F2",
          "ticks": 62016,
          "time": 80.75,
          "velocity": 0.6850393700787402
        },
        {
          "duration": 0.09375,
          "durationTicks": 72,
          "midi": 48,
          "name": "C3",
          "ticks": 62016,
          "time": 80.75,
          "velocity": 0.7716535433070866
        },
        {
          "duration": 0.09375,
          "durationTicks": 72,
          "midi": 57,
          "name": "A3",
          "ticks": 62208,
          "time": 81,
          "velocity": 0.6299212598425197
        },
        {
          "duration": 0.0911458333333286,
          "durationTicks": 70,
          "midi": 60,
          "name": "C4",
          "ticks": 62208,
          "time": 81,
          "velocity": 0.7874015748031497
        },
        {
          "duration": 0.1067708333333286,
          "durationTicks": 82,
          "midi": 65,
          "name": "F4",
          "ticks": 62208,
          "time": 81,
          "velocity": 0.7874015748031497
        },
        {
          "duration": 0.2890625,
          "durationTicks": 222,
          "midi": 65,
          "name": "F4",
          "ticks": 62400,
          "time": 81.25,
          "velocity": 0.84251968503937
        },
        {
          "duration": 0.3020833333333286,
          "durationTicks": 232,
          "midi": 57,
          "name": "A3",
          "ticks": 62400,
          "time": 81.25,
          "velocity": 0.8031496062992126
        },
        {
          "duration": 0.3020833333333286,
          "durationTicks": 232,
          "midi": 60,
          "name": "C4",
          "ticks": 62400,
          "time": 81.25,
          "velocity": 0.84251968503937
        },
        {
          "duration": 0.078125,
          "durationTicks": 60,
          "midi": 48,
          "name": "C3",
          "ticks": 62592,
          "time": 81.5,
          "velocity": 0.8267716535433071
        },
        {
          "duration": 0.1015625,
          "durationTicks": 78,
          "midi": 41,
          "name": "F2",
          "ticks": 62592,
          "time": 81.5,
          "velocity": 0.8267716535433071
        },
        {
          "duration": 0.5833333333333286,
          "durationTicks": 448,
          "midi": 65,
          "name": "F4",
          "ticks": 62784,
          "time": 81.75,
          "velocity": 0.8031496062992126
        },
        {
          "duration": 0.5859375,
          "durationTicks": 450,
          "midi": 57,
          "name": "A3",
          "ticks": 62784,
          "time": 81.75,
          "velocity": 0.7480314960629921
        },
        {
          "duration": 0.6145833333333286,
          "durationTicks": 472,
          "midi": 60,
          "name": "C4",
          "ticks": 62784,
          "time": 81.75,
          "velocity": 0.8267716535433071
        },
        {
          "duration": 0.3333333333333286,
          "durationTicks": 256,
          "midi": 41,
          "name": "F2",
          "ticks": 63168,
          "time": 82.25,
          "velocity": 0.7874015748031497
        },
        {
          "duration": 0.3229166666666714,
          "durationTicks": 248,
          "midi": 48,
          "name": "C3",
          "ticks": 63168,
          "time": 82.25,
          "velocity": 0.7874015748031497
        },
        {
          "duration": 0.3333333333333286,
          "durationTicks": 256,
          "midi": 67,
          "name": "G4",
          "ticks": 63360,
          "time": 82.5,
          "velocity": 0.8267716535433071
        },
        {
          "duration": 0.3463541666666714,
          "durationTicks": 266,
          "midi": 57,
          "name": "A3",
          "ticks": 63360,
          "time": 82.5,
          "velocity": 0.6692913385826772
        },
        {
          "duration": 0.3697916666666714,
          "durationTicks": 284,
          "midi": 60,
          "name": "C4",
          "ticks": 63360,
          "time": 82.5,
          "velocity": 0.8031496062992126
        },
        {
          "duration": 0.2526041666666714,
          "durationTicks": 194,
          "midi": 48,
          "name": "C3",
          "ticks": 63552,
          "time": 82.75,
          "velocity": 0.7716535433070866
        },
        {
          "duration": 0.2578125,
          "durationTicks": 198,
          "midi": 41,
          "name": "F2",
          "ticks": 63552,
          "time": 82.75,
          "velocity": 0.7716535433070866
        },
        {
          "duration": 0.0755208333333286,
          "durationTicks": 58,
          "midi": 57,
          "name": "A3",
          "ticks": 63744,
          "time": 83,
          "velocity": 0.7165354330708661
        },
        {
          "duration": 0.078125,
          "durationTicks": 60,
          "midi": 60,
          "name": "C4",
          "ticks": 63744,
          "time": 83,
          "velocity": 0.8031496062992126
        },
        {
          "duration": 0.0963541666666714,
          "durationTicks": 74,
          "midi": 65,
          "name": "F4",
          "ticks": 63744,
          "time": 83,
          "velocity": 0.8031496062992126
        },
        {
          "duration": 0.3489583333333286,
          "durationTicks": 268,
          "midi": 60,
          "name": "C4",
          "ticks": 63936,
          "time": 83.25,
          "velocity": 0.84251968503937
        },
        {
          "duration": 0.3333333333333286,
          "durationTicks": 256,
          "midi": 57,
          "name": "A3",
          "ticks": 63936,
          "time": 83.25,
          "velocity": 0.8031496062992126
        },
        {
          "duration": 0.3489583333333286,
          "durationTicks": 268,
          "midi": 65,
          "name": "F4",
          "ticks": 63936,
          "time": 83.25,
          "velocity": 0.8031496062992126
        },
        {
          "duration": 0.1223958333333286,
          "durationTicks": 94,
          "midi": 48,
          "name": "C3",
          "ticks": 64128,
          "time": 83.5,
          "velocity": 0.8267716535433071
        },
        {
          "duration": 0.1354166666666714,
          "durationTicks": 104,
          "midi": 41,
          "name": "F2",
          "ticks": 64128,
          "time": 83.5,
          "velocity": 0.8031496062992126
        },
        {
          "duration": 0.1145833333333286,
          "durationTicks": 88,
          "midi": 60,
          "name": "C4",
          "ticks": 64320,
          "time": 83.75,
          "velocity": 0.8267716535433071
        },
        {
          "duration": 0.0885416666666714,
          "durationTicks": 68,
          "midi": 57,
          "name": "A3",
          "ticks": 64320,
          "time": 83.75,
          "velocity": 0.6141732283464567
        },
        {
          "duration": 0.1354166666666714,
          "durationTicks": 104,
          "midi": 65,
          "name": "F4",
          "ticks": 64320,
          "time": 83.75,
          "velocity": 0.7874015748031497
        },
        {
          "duration": 0.5833333333333286,
          "durationTicks": 448,
          "midi": 50,
          "name": "D3",
          "ticks": 64512,
          "time": 84,
          "velocity": 0.7007874015748031
        },
        {
          "duration": 0.3697916666666714,
          "durationTicks": 284,
          "midi": 59,
          "name": "B3",
          "ticks": 64512,
          "time": 84,
          "velocity": 0.7165354330708661
        },
        {
          "duration": 0.3645833333333286,
          "durationTicks": 280,
          "midi": 67,
          "name": "G4",
          "ticks": 64512,
          "time": 84,
          "velocity": 0.8031496062992126
        },
        {
          "duration": 0.3854166666666714,
          "durationTicks": 296,
          "midi": 62,
          "name": "D4",
          "ticks": 64512,
          "time": 84,
          "velocity": 0.8267716535433071
        },
        {
          "duration": 0.578125,
          "durationTicks": 444,
          "midi": 43,
          "name": "G2",
          "ticks": 64512,
          "time": 84,
          "velocity": 0.7322834645669292
        },
        {
          "duration": 0.3151041666666714,
          "durationTicks": 242,
          "midi": 62,
          "name": "D4",
          "ticks": 64896,
          "time": 84.5,
          "velocity": 0.8267716535433071
        },
        {
          "duration": 0.3046875,
          "durationTicks": 234,
          "midi": 69,
          "name": "A4",
          "ticks": 64896,
          "time": 84.5,
          "velocity": 0.8661417322834646
        },
        {
          "duration": 0.3046875,
          "durationTicks": 234,
          "midi": 59,
          "name": "B3",
          "ticks": 64896,
          "time": 84.5,
          "velocity": 0.7007874015748031
        },
        {
          "duration": 0.078125,
          "durationTicks": 60,
          "midi": 50,
          "name": "D3",
          "ticks": 65088,
          "time": 84.75,
          "velocity": 0.7480314960629921
        },
        {
          "duration": 0.0885416666666714,
          "durationTicks": 68,
          "midi": 43,
          "name": "G2",
          "ticks": 65088,
          "time": 84.75,
          "velocity": 0.7716535433070866
        },
        {
          "duration": 0.0625,
          "durationTicks": 48,
          "midi": 59,
          "name": "B3",
          "ticks": 65280,
          "time": 85,
          "velocity": 0.7007874015748031
        },
        {
          "duration": 0.0833333333333286,
          "durationTicks": 64,
          "midi": 62,
          "name": "D4",
          "ticks": 65280,
          "time": 85,
          "velocity": 0.8267716535433071
        },
        {
          "duration": 0.0989583333333286,
          "durationTicks": 76,
          "midi": 67,
          "name": "G4",
          "ticks": 65280,
          "time": 85,
          "velocity": 0.8267716535433071
        },
        {
          "duration": 0.2786458333333286,
          "durationTicks": 214,
          "midi": 59,
          "name": "B3",
          "ticks": 65472,
          "time": 85.25,
          "velocity": 0.8031496062992126
        },
        {
          "duration": 0.28125,
          "durationTicks": 216,
          "midi": 62,
          "name": "D4",
          "ticks": 65472,
          "time": 85.25,
          "velocity": 0.8661417322834646
        },
        {
          "duration": 0.28125,
          "durationTicks": 216,
          "midi": 67,
          "name": "G4",
          "ticks": 65472,
          "time": 85.25,
          "velocity": 0.8031496062992126
        },
        {
          "duration": 0.059895833333328596,
          "durationTicks": 46,
          "midi": 50,
          "name": "D3",
          "ticks": 65664,
          "time": 85.5,
          "velocity": 0.7874015748031497
        },
        {
          "duration": 0.0703125,
          "durationTicks": 54,
          "midi": 43,
          "name": "G2",
          "ticks": 65664,
          "time": 85.5,
          "velocity": 0.7874015748031497
        },
        {
          "duration": 0.6458333333333286,
          "durationTicks": 496,
          "midi": 62,
          "name": "D4",
          "ticks": 65856,
          "time": 85.75,
          "velocity": 0.8661417322834646
        },
        {
          "duration": 0.3671875,
          "durationTicks": 282,
          "midi": 59,
          "name": "B3",
          "ticks": 65856,
          "time": 85.75,
          "velocity": 0.7716535433070866
        },
        {
          "duration": 0.5911458333333286,
          "durationTicks": 454,
          "midi": 67,
          "name": "G4",
          "ticks": 65856,
          "time": 85.75,
          "velocity": 0.7874015748031497
        },
        {
          "duration": 0.6015625,
          "durationTicks": 462,
          "midi": 50,
          "name": "D3",
          "ticks": 66048,
          "time": 86,
          "velocity": 0.7874015748031497
        },
        {
          "duration": 0.5911458333333286,
          "durationTicks": 454,
          "midi": 43,
          "name": "G2",
          "ticks": 66048,
          "time": 86,
          "velocity": 0.7716535433070866
        },
        {
          "duration": 0.1380208333333286,
          "durationTicks": 106,
          "midi": 59,
          "name": "B3",
          "ticks": 66240,
          "time": 86.25,
          "velocity": 0.7007874015748031
        },
        {
          "duration": 0.3567708333333286,
          "durationTicks": 274,
          "midi": 59,
          "name": "B3",
          "ticks": 66432,
          "time": 86.5,
          "velocity": 0.6692913385826772
        },
        {
          "duration": 0.3541666666666714,
          "durationTicks": 272,
          "midi": 69,
          "name": "A4",
          "ticks": 66432,
          "time": 86.5,
          "velocity": 0.8267716535433071
        },
        {
          "duration": 0.4114583333333286,
          "durationTicks": 316,
          "midi": 62,
          "name": "D4",
          "ticks": 66432,
          "time": 86.5,
          "velocity": 0.7874015748031497
        },
        {
          "duration": 0.2786458333333286,
          "durationTicks": 214,
          "midi": 43,
          "name": "G2",
          "ticks": 66624,
          "time": 86.75,
          "velocity": 0.5354330708661418
        },
        {
          "duration": 0.1536458333333286,
          "durationTicks": 118,
          "midi": 50,
          "name": "D3",
          "ticks": 66720,
          "time": 86.875,
          "velocity": 0.7165354330708661
        },
        {
          "duration": 0.2265625,
          "durationTicks": 174,
          "midi": 59,
          "name": "B3",
          "ticks": 66816,
          "time": 87,
          "velocity": 0.7007874015748031
        },
        {
          "duration": 0.25,
          "durationTicks": 192,
          "midi": 67,
          "name": "G4",
          "ticks": 66816,
          "time": 87,
          "velocity": 0.7874015748031497
        },
        {
          "duration": 0.25,
          "durationTicks": 192,
          "midi": 62,
          "name": "D4",
          "ticks": 66816,
          "time": 87,
          "velocity": 0.7874015748031497
        },
        {
          "duration": 0.0963541666666714,
          "durationTicks": 74,
          "midi": 50,
          "name": "D3",
          "ticks": 67008,
          "time": 87.25,
          "velocity": 0.8661417322834646
        },
        {
          "duration": 0.1041666666666714,
          "durationTicks": 80,
          "midi": 43,
          "name": "G2",
          "ticks": 67008,
          "time": 87.25,
          "velocity": 0.84251968503937
        },
        {
          "duration": 0.1380208333333286,
          "durationTicks": 106,
          "midi": 62,
          "name": "D4",
          "ticks": 67200,
          "time": 87.5,
          "velocity": 0.8661417322834646
        },
        {
          "duration": 0.1145833333333286,
          "durationTicks": 88,
          "midi": 59,
          "name": "B3",
          "ticks": 67200,
          "time": 87.5,
          "velocity": 0.7874015748031497
        },
        {
          "duration": 0.1510416666666714,
          "durationTicks": 116,
          "midi": 67,
          "name": "G4",
          "ticks": 67200,
          "time": 87.5,
          "velocity": 0.7874015748031497
        },
        {
          "duration": 0.1380208333333286,
          "durationTicks": 106,
          "midi": 59,
          "name": "B3",
          "ticks": 67392,
          "time": 87.75,
          "velocity": 0.6692913385826772
        },
        {
          "duration": 0.1354166666666714,
          "durationTicks": 104,
          "midi": 62,
          "name": "D4",
          "ticks": 67392,
          "time": 87.75,
          "velocity": 0.8031496062992126
        },
        {
          "duration": 0.1354166666666714,
          "durationTicks": 104,
          "midi": 67,
          "name": "G4",
          "ticks": 67392,
          "time": 87.75,
          "velocity": 0.7322834645669292
        },
        {
          "duration": 0.3880208333333286,
          "durationTicks": 298,
          "midi": 57,
          "name": "A3",
          "ticks": 67584,
          "time": 88,
          "velocity": 0.7007874015748031
        },
        {
          "duration": 0.3958333333333286,
          "durationTicks": 304,
          "midi": 60,
          "name": "C4",
          "ticks": 67584,
          "time": 88,
          "velocity": 0.7716535433070866
        },
        {
          "duration": 0.3723958333333286,
          "durationTicks": 286,
          "midi": 65,
          "name": "F4",
          "ticks": 67584,
          "time": 88,
          "velocity": 0.8031496062992126
        },
        {
          "duration": 0.5859375,
          "durationTicks": 450,
          "midi": 48,
          "name": "C3",
          "ticks": 67584,
          "time": 88,
          "velocity": 0.7716535433070866
        },
        {
          "duration": 0.5963541666666714,
          "durationTicks": 458,
          "midi": 41,
          "name": "F2",
          "ticks": 67584,
          "time": 88,
          "velocity": 0.7480314960629921
        },
        {
          "duration": 0.2942708333333286,
          "durationTicks": 226,
          "midi": 67,
          "name": "G4",
          "ticks": 67968,
          "time": 88.5,
          "velocity": 0.8267716535433071
        },
        {
          "duration": 0.3333333333333286,
          "durationTicks": 256,
          "midi": 60,
          "name": "C4",
          "ticks": 67968,
          "time": 88.5,
          "velocity": 0.8031496062992126
        },
        {
          "duration": 0.3307291666666714,
          "durationTicks": 254,
          "midi": 57,
          "name": "A3",
          "ticks": 67968,
          "time": 88.5,
          "velocity": 0.6850393700787402
        },
        {
          "duration": 0.0989583333333286,
          "durationTicks": 76,
          "midi": 41,
          "name": "F2",
          "ticks": 68160,
          "time": 88.75,
          "velocity": 0.7716535433070866
        },
        {
          "duration": 0.0963541666666714,
          "durationTicks": 74,
          "midi": 48,
          "name": "C3",
          "ticks": 68160,
          "time": 88.75,
          "velocity": 0.7716535433070866
        },
        {
          "duration": 0.0703125,
          "durationTicks": 54,
          "midi": 57,
          "name": "A3",
          "ticks": 68352,
          "time": 89,
          "velocity": 0.6692913385826772
        },
        {
          "duration": 0.0703125,
          "durationTicks": 54,
          "midi": 60,
          "name": "C4",
          "ticks": 68352,
          "time": 89,
          "velocity": 0.8031496062992126
        },
        {
          "duration": 0.0911458333333286,
          "durationTicks": 70,
          "midi": 65,
          "name": "F4",
          "ticks": 68352,
          "time": 89,
          "velocity": 0.8031496062992126
        },
        {
          "duration": 0.2447916666666714,
          "durationTicks": 188,
          "midi": 57,
          "name": "A3",
          "ticks": 68544,
          "time": 89.25,
          "velocity": 0.7874015748031497
        },
        {
          "duration": 0.2578125,
          "durationTicks": 198,
          "midi": 60,
          "name": "C4",
          "ticks": 68544,
          "time": 89.25,
          "velocity": 0.84251968503937
        },
        {
          "duration": 0.2708333333333286,
          "durationTicks": 208,
          "midi": 65,
          "name": "F4",
          "ticks": 68544,
          "time": 89.25,
          "velocity": 0.8267716535433071
        },
        {
          "duration": 0.0885416666666714,
          "durationTicks": 68,
          "midi": 41,
          "name": "F2",
          "ticks": 68736,
          "time": 89.5,
          "velocity": 0.8267716535433071
        },
        {
          "duration": 0.0755208333333286,
          "durationTicks": 58,
          "midi": 48,
          "name": "C3",
          "ticks": 68736,
          "time": 89.5,
          "velocity": 0.84251968503937
        },
        {
          "duration": 0.6041666666666714,
          "durationTicks": 464,
          "midi": 60,
          "name": "C4",
          "ticks": 68928,
          "time": 89.75,
          "velocity": 0.8267716535433071
        },
        {
          "duration": 0.5989583333333286,
          "durationTicks": 460,
          "midi": 65,
          "name": "F4",
          "ticks": 68928,
          "time": 89.75,
          "velocity": 0.7874015748031497
        },
        {
          "duration": 0.3958333333333286,
          "durationTicks": 304,
          "midi": 57,
          "name": "A3",
          "ticks": 68928,
          "time": 89.75,
          "velocity": 0.7716535433070866
        },
        {
          "duration": 0.5885416666666714,
          "durationTicks": 452,
          "midi": 48,
          "name": "C3",
          "ticks": 69120,
          "time": 90,
          "velocity": 0.84251968503937
        },
        {
          "duration": 0.5885416666666714,
          "durationTicks": 452,
          "midi": 41,
          "name": "F2",
          "ticks": 69120,
          "time": 90,
          "velocity": 0.8267716535433071
        },
        {
          "duration": 0.1171875,
          "durationTicks": 90,
          "midi": 57,
          "name": "A3",
          "ticks": 69312,
          "time": 90.25,
          "velocity": 0.7322834645669292
        },
        {
          "duration": 0.2083333333333286,
          "durationTicks": 160,
          "midi": 57,
          "name": "A3",
          "ticks": 69504,
          "time": 90.5,
          "velocity": 0.7716535433070866
        },
        {
          "duration": 0.3645833333333286,
          "durationTicks": 280,
          "midi": 65,
          "name": "F4",
          "ticks": 69504,
          "time": 90.5,
          "velocity": 0.8267716535433071
        },
        {
          "duration": 0.3932291666666714,
          "durationTicks": 302,
          "midi": 60,
          "name": "C4",
          "ticks": 69504,
          "time": 90.5,
          "velocity": 0.8267716535433071
        },
        {
          "duration": 0.2552083333333286,
          "durationTicks": 196,
          "midi": 41,
          "name": "F2",
          "ticks": 69696,
          "time": 90.75,
          "velocity": 0.7165354330708661
        },
        {
          "duration": 0.1692708333333286,
          "durationTicks": 130,
          "midi": 48,
          "name": "C3",
          "ticks": 69792,
          "time": 90.875,
          "velocity": 0.6850393700787402
        },
        {
          "duration": 0.25,
          "durationTicks": 192,
          "midi": 60,
          "name": "C4",
          "ticks": 69888,
          "time": 91,
          "velocity": 0.8267716535433071
        },
        {
          "duration": 0.2265625,
          "durationTicks": 174,
          "midi": 57,
          "name": "A3",
          "ticks": 69888,
          "time": 91,
          "velocity": 0.7480314960629921
        },
        {
          "duration": 0.2526041666666714,
          "durationTicks": 194,
          "midi": 65,
          "name": "F4",
          "ticks": 69888,
          "time": 91,
          "velocity": 0.8031496062992126
        },
        {
          "duration": 0.1744791666666714,
          "durationTicks": 134,
          "midi": 48,
          "name": "C3",
          "ticks": 70080,
          "time": 91.25,
          "velocity": 0.889763779527559
        },
        {
          "duration": 0.171875,
          "durationTicks": 132,
          "midi": 41,
          "name": "F2",
          "ticks": 70080,
          "time": 91.25,
          "velocity": 0.84251968503937
        },
        {
          "duration": 0.2083333333333286,
          "durationTicks": 160,
          "midi": 57,
          "name": "A3",
          "ticks": 70272,
          "time": 91.5,
          "velocity": 0.7322834645669292
        },
        {
          "duration": 0.234375,
          "durationTicks": 180,
          "midi": 60,
          "name": "C4",
          "ticks": 70272,
          "time": 91.5,
          "velocity": 0.8267716535433071
        },
        {
          "duration": 0.2630208333333286,
          "durationTicks": 202,
          "midi": 65,
          "name": "F4",
          "ticks": 70272,
          "time": 91.5,
          "velocity": 0.8031496062992126
        },
        {
          "duration": 0.3723958333333286,
          "durationTicks": 286,
          "midi": 59,
          "name": "B3",
          "ticks": 70656,
          "time": 92,
          "velocity": 0.5511811023622047
        },
        {
          "duration": 0.6171875,
          "durationTicks": 474,
          "midi": 50,
          "name": "D3",
          "ticks": 70656,
          "time": 92,
          "velocity": 0.7874015748031497
        },
        {
          "duration": 0.609375,
          "durationTicks": 468,
          "midi": 43,
          "name": "G2",
          "ticks": 70656,
          "time": 92,
          "velocity": 0.7480314960629921
        },
        {
          "duration": 0.3984375,
          "durationTicks": 306,
          "midi": 67,
          "name": "G4",
          "ticks": 70656,
          "time": 92,
          "velocity": 0.7480314960629921
        },
        {
          "duration": 0.3958333333333286,
          "durationTicks": 304,
          "midi": 62,
          "name": "D4",
          "ticks": 70656,
          "time": 92,
          "velocity": 0.7716535433070866
        },
        {
          "duration": 0.2760416666666714,
          "durationTicks": 212,
          "midi": 59,
          "name": "B3",
          "ticks": 71040,
          "time": 92.5,
          "velocity": 0.6850393700787402
        },
        {
          "duration": 0.3020833333333286,
          "durationTicks": 232,
          "midi": 69,
          "name": "A4",
          "ticks": 71040,
          "time": 92.5,
          "velocity": 0.8661417322834646
        },
        {
          "duration": 0.3125,
          "durationTicks": 240,
          "midi": 62,
          "name": "D4",
          "ticks": 71040,
          "time": 92.5,
          "velocity": 0.8267716535433071
        },
        {
          "duration": 0.0546875,
          "durationTicks": 42,
          "midi": 43,
          "name": "G2",
          "ticks": 71232,
          "time": 92.75,
          "velocity": 0.6141732283464567
        },
        {
          "duration": 0.09375,
          "durationTicks": 72,
          "midi": 50,
          "name": "D3",
          "ticks": 71232,
          "time": 92.75,
          "velocity": 0.7716535433070866
        },
        {
          "duration": 0.0755208333333286,
          "durationTicks": 58,
          "midi": 59,
          "name": "B3",
          "ticks": 71424,
          "time": 93,
          "velocity": 0.6456692913385826
        },
        {
          "duration": 0.0703125,
          "durationTicks": 54,
          "midi": 62,
          "name": "D4",
          "ticks": 71424,
          "time": 93,
          "velocity": 0.7874015748031497
        },
        {
          "duration": 0.1015625,
          "durationTicks": 78,
          "midi": 67,
          "name": "G4",
          "ticks": 71424,
          "time": 93,
          "velocity": 0.8031496062992126
        },
        {
          "duration": 0.3255208333333286,
          "durationTicks": 250,
          "midi": 62,
          "name": "D4",
          "ticks": 71616,
          "time": 93.25,
          "velocity": 0.84251968503937
        },
        {
          "duration": 0.3307291666666714,
          "durationTicks": 254,
          "midi": 67,
          "name": "G4",
          "ticks": 71616,
          "time": 93.25,
          "velocity": 0.8031496062992126
        },
        {
          "duration": 0.3072916666666714,
          "durationTicks": 236,
          "midi": 59,
          "name": "B3",
          "ticks": 71616,
          "time": 93.25,
          "velocity": 0.7716535433070866
        },
        {
          "duration": 0.5,
          "durationTicks": 384,
          "midi": 50,
          "name": "D3",
          "ticks": 71808,
          "time": 93.5,
          "velocity": 0.84251968503937
        },
        {
          "duration": 0.5,
          "durationTicks": 384,
          "midi": 43,
          "name": "G2",
          "ticks": 71808,
          "time": 93.5,
          "velocity": 0.8031496062992126
        },
        {
          "duration": 0.25,
          "durationTicks": 192,
          "midi": 59,
          "name": "B3",
          "ticks": 72000,
          "time": 93.75,
          "velocity": 0.6456692913385826
        },
        {
          "duration": 0.25,
          "durationTicks": 192,
          "midi": 62,
          "name": "D4",
          "ticks": 72000,
          "time": 93.75,
          "velocity": 0.8267716535433071
        },
        {
          "duration": 0.25,
          "durationTicks": 192,
          "midi": 67,
          "name": "G4",
          "ticks": 72000,
          "time": 93.75,
          "velocity": 0.8267716535433071
        },
        {
          "duration": 0.1354166666666714,
          "durationTicks": 104,
          "midi": 59,
          "name": "B3",
          "ticks": 72384,
          "time": 94.25,
          "velocity": 0.7165354330708661
        },
        {
          "duration": 0.15625,
          "durationTicks": 120,
          "midi": 67,
          "name": "G4",
          "ticks": 72384,
          "time": 94.25,
          "velocity": 0.7874015748031497
        },
        {
          "duration": 0.1614583333333286,
          "durationTicks": 124,
          "midi": 62,
          "name": "D4",
          "ticks": 72384,
          "time": 94.25,
          "velocity": 0.8267716535433071
        },
        {
          "duration": 0.1588541666666714,
          "durationTicks": 122,
          "midi": 62,
          "name": "D4",
          "ticks": 72768,
          "time": 94.75,
          "velocity": 0.7716535433070866
        },
        {
          "duration": 0.1510416666666714,
          "durationTicks": 116,
          "midi": 69,
          "name": "A4",
          "ticks": 72768,
          "time": 94.75,
          "velocity": 0.8031496062992126
        },
        {
          "duration": 0.1770833333333286,
          "durationTicks": 136,
          "midi": 59,
          "name": "B3",
          "ticks": 72768,
          "time": 94.75,
          "velocity": 0.7322834645669292
        },
        {
          "duration": 0.3645833333333286,
          "durationTicks": 280,
          "midi": 59,
          "name": "B3",
          "ticks": 72960,
          "time": 95,
          "velocity": 0.6141732283464567
        },
        {
          "duration": 0.3854166666666714,
          "durationTicks": 296,
          "midi": 67,
          "name": "G4",
          "ticks": 72960,
          "time": 95,
          "velocity": 0.8031496062992126
        },
        {
          "duration": 0.3984375,
          "durationTicks": 306,
          "midi": 62,
          "name": "D4",
          "ticks": 72960,
          "time": 95,
          "velocity": 0.8031496062992126
        },
        {
          "duration": 0.1354166666666714,
          "durationTicks": 104,
          "midi": 62,
          "name": "D4",
          "ticks": 73344,
          "time": 95.5,
          "velocity": 0.8267716535433071
        },
        {
          "duration": 0.125,
          "durationTicks": 96,
          "midi": 67,
          "name": "G4",
          "ticks": 73344,
          "time": 95.5,
          "velocity": 0.8267716535433071
        },
        {
          "duration": 0.1458333333333286,
          "durationTicks": 112,
          "midi": 59,
          "name": "B3",
          "ticks": 73344,
          "time": 95.5,
          "velocity": 0.7165354330708661
        },
        {
          "duration": 0.3828125,
          "durationTicks": 294,
          "midi": 64,
          "name": "E4",
          "ticks": 73728,
          "time": 96,
          "velocity": 0.7716535433070866
        },
        {
          "duration": 0.3854166666666714,
          "durationTicks": 296,
          "midi": 60,
          "name": "C4",
          "ticks": 73728,
          "time": 96,
          "velocity": 0.8031496062992126
        },
        {
          "duration": 0.3802083333333286,
          "durationTicks": 292,
          "midi": 57,
          "name": "A3",
          "ticks": 73728,
          "time": 96,
          "velocity": 0.7716535433070866
        },
        {
          "duration": 0.7083333333333286,
          "durationTicks": 544,
          "midi": 45,
          "name": "A2",
          "ticks": 73728,
          "time": 96,
          "velocity": 0.6692913385826772
        },
        {
          "duration": 0.3854166666666714,
          "durationTicks": 296,
          "midi": 60,
          "name": "C4",
          "ticks": 74112,
          "time": 96.5,
          "velocity": 0.84251968503937
        },
        {
          "duration": 0.3723958333333286,
          "durationTicks": 286,
          "midi": 57,
          "name": "A3",
          "ticks": 74112,
          "time": 96.5,
          "velocity": 0.8031496062992126
        },
        {
          "duration": 0.3541666666666714,
          "durationTicks": 272,
          "midi": 64,
          "name": "E4",
          "ticks": 74112,
          "time": 96.5,
          "velocity": 0.8661417322834646
        },
        {
          "duration": 0.2552083333333286,
          "durationTicks": 196,
          "midi": 62,
          "name": "D4",
          "ticks": 74496,
          "time": 97,
          "velocity": 0.7874015748031497
        },
        {
          "duration": 0.2395833333333286,
          "durationTicks": 184,
          "midi": 55,
          "name": "G3",
          "ticks": 74496,
          "time": 97,
          "velocity": 0.7480314960629921
        },
        {
          "duration": 0.2734375,
          "durationTicks": 210,
          "midi": 59,
          "name": "B3",
          "ticks": 74496,
          "time": 97,
          "velocity": 0.7874015748031497
        },
        {
          "duration": 0.1067708333333286,
          "durationTicks": 82,
          "midi": 43,
          "name": "G2",
          "ticks": 74688,
          "time": 97.25,
          "velocity": 0.8031496062992126
        },
        {
          "duration": 0.0729166666666714,
          "durationTicks": 56,
          "midi": 59,
          "name": "B3",
          "ticks": 74880,
          "time": 97.5,
          "velocity": 0.8031496062992126
        },
        {
          "duration": 0.0807291666666714,
          "durationTicks": 62,
          "midi": 55,
          "name": "G3",
          "ticks": 74880,
          "time": 97.5,
          "velocity": 0.6850393700787402
        },
        {
          "duration": 0.0859375,
          "durationTicks": 66,
          "midi": 62,
          "name": "D4",
          "ticks": 74880,
          "time": 97.5,
          "velocity": 0.7874015748031497
        },
        {
          "duration": 0.3359375,
          "durationTicks": 258,
          "midi": 45,
          "name": "A2",
          "ticks": 75072,
          "time": 97.75,
          "velocity": 0.4566929133858268
        },
        {
          "duration": 0.6145833333333286,
          "durationTicks": 472,
          "midi": 64,
          "name": "E4",
          "ticks": 75072,
          "time": 97.75,
          "velocity": 0.84251968503937
        },
        {
          "duration": 0.640625,
          "durationTicks": 492,
          "midi": 60,
          "name": "C4",
          "ticks": 75072,
          "time": 97.75,
          "velocity": 0.8267716535433071
        },
        {
          "duration": 0.625,
          "durationTicks": 480,
          "midi": 57,
          "name": "A3",
          "ticks": 75072,
          "time": 97.75,
          "velocity": 0.7874015748031497
        },
        {
          "duration": 1.0520833333333286,
          "durationTicks": 808,
          "midi": 45,
          "name": "A2",
          "ticks": 75456,
          "time": 98.25,
          "velocity": 0.8267716535433071
        },
        {
          "duration": 0.4036458333333286,
          "durationTicks": 310,
          "midi": 60,
          "name": "C4",
          "ticks": 75648,
          "time": 98.5,
          "velocity": 0.84251968503937
        },
        {
          "duration": 0.3958333333333286,
          "durationTicks": 304,
          "midi": 64,
          "name": "E4",
          "ticks": 75648,
          "time": 98.5,
          "velocity": 0.84251968503937
        },
        {
          "duration": 0.34375,
          "durationTicks": 264,
          "midi": 57,
          "name": "A3",
          "ticks": 75648,
          "time": 98.5,
          "velocity": 0.8267716535433071
        },
        {
          "duration": 0.1302083333333286,
          "durationTicks": 100,
          "midi": 52,
          "name": "E3",
          "ticks": 75840,
          "time": 98.75,
          "velocity": 0.84251968503937
        },
        {
          "duration": 0.0885416666666714,
          "durationTicks": 68,
          "midi": 57,
          "name": "A3",
          "ticks": 76032,
          "time": 99,
          "velocity": 0.7322834645669292
        },
        {
          "duration": 0.0885416666666714,
          "durationTicks": 68,
          "midi": 60,
          "name": "C4",
          "ticks": 76032,
          "time": 99,
          "velocity": 0.8031496062992126
        },
        {
          "duration": 0.1119791666666714,
          "durationTicks": 86,
          "midi": 64,
          "name": "E4",
          "ticks": 76032,
          "time": 99,
          "velocity": 0.7874015748031497
        },
        {
          "duration": 0.3619791666666714,
          "durationTicks": 278,
          "midi": 60,
          "name": "C4",
          "ticks": 76224,
          "time": 99.25,
          "velocity": 0.9133858267716536
        },
        {
          "duration": 0.3046875,
          "durationTicks": 234,
          "midi": 57,
          "name": "A3",
          "ticks": 76224,
          "time": 99.25,
          "velocity": 0.8267716535433071
        },
        {
          "duration": 0.3489583333333286,
          "durationTicks": 268,
          "midi": 64,
          "name": "E4",
          "ticks": 76224,
          "time": 99.25,
          "velocity": 0.8267716535433071
        },
        {
          "duration": 0.1041666666666714,
          "durationTicks": 80,
          "midi": 52,
          "name": "E3",
          "ticks": 76416,
          "time": 99.5,
          "velocity": 0.8267716535433071
        },
        {
          "duration": 0.1145833333333286,
          "durationTicks": 88,
          "midi": 45,
          "name": "A2",
          "ticks": 76416,
          "time": 99.5,
          "velocity": 0.7716535433070866
        },
        {
          "duration": 0.5885416666666714,
          "durationTicks": 452,
          "midi": 57,
          "name": "A3",
          "ticks": 76800,
          "time": 100,
          "velocity": 0.7007874015748031
        },
        {
          "duration": 0.9791666666666714,
          "durationTicks": 752,
          "midi": 50,
          "name": "D3",
          "ticks": 76800,
          "time": 100,
          "velocity": 0.7007874015748031
        },
        {
          "duration": 0.4166666666666714,
          "durationTicks": 320,
          "midi": 69,
          "name": "A4",
          "ticks": 76800,
          "time": 100,
          "velocity": 0.8031496062992126
        },
        {
          "duration": 0.9947916666666714,
          "durationTicks": 764,
          "midi": 53,
          "name": "F3",
          "ticks": 76800,
          "time": 100,
          "velocity": 0.6692913385826772
        },
        {
          "duration": 0.4479166666666714,
          "durationTicks": 344,
          "midi": 65,
          "name": "F4",
          "ticks": 76800,
          "time": 100,
          "velocity": 0.8267716535433071
        },
        {
          "duration": 0.4296875,
          "durationTicks": 330,
          "midi": 60,
          "name": "C4",
          "ticks": 76800,
          "time": 100,
          "velocity": 0.7716535433070866
        },
        {
          "duration": 0.375,
          "durationTicks": 288,
          "midi": 69,
          "name": "A4",
          "ticks": 77184,
          "time": 100.5,
          "velocity": 0.7716535433070866
        },
        {
          "duration": 0.3802083333333286,
          "durationTicks": 292,
          "midi": 60,
          "name": "C4",
          "ticks": 77184,
          "time": 100.5,
          "velocity": 0.6850393700787402
        },
        {
          "duration": 0.40625,
          "durationTicks": 312,
          "midi": 65,
          "name": "F4",
          "ticks": 77184,
          "time": 100.5,
          "velocity": 0.7874015748031497
        },
        {
          "duration": 0.0859375,
          "durationTicks": 66,
          "midi": 57,
          "name": "A3",
          "ticks": 77472,
          "time": 100.875,
          "velocity": 0.7007874015748031
        },
        {
          "duration": 0.0703125,
          "durationTicks": 54,
          "midi": 60,
          "name": "C4",
          "ticks": 77568,
          "time": 101,
          "velocity": 0.7716535433070866
        },
        {
          "duration": 0.0677083333333286,
          "durationTicks": 52,
          "midi": 65,
          "name": "F4",
          "ticks": 77568,
          "time": 101,
          "velocity": 0.8267716535433071
        },
        {
          "duration": 0.0833333333333286,
          "durationTicks": 64,
          "midi": 69,
          "name": "A4",
          "ticks": 77568,
          "time": 101,
          "velocity": 0.7716535433070866
        },
        {
          "duration": 0.3333333333333286,
          "durationTicks": 256,
          "midi": 60,
          "name": "C4",
          "ticks": 77760,
          "time": 101.25,
          "velocity": 0.8031496062992126
        },
        {
          "duration": 0.3619791666666714,
          "durationTicks": 278,
          "midi": 69,
          "name": "A4",
          "ticks": 77760,
          "time": 101.25,
          "velocity": 0.8031496062992126
        },
        {
          "duration": 0.3854166666666714,
          "durationTicks": 296,
          "midi": 65,
          "name": "F4",
          "ticks": 77760,
          "time": 101.25,
          "velocity": 0.84251968503937
        },
        {
          "duration": 0.7630208333333286,
          "durationTicks": 586,
          "midi": 57,
          "name": "A3",
          "ticks": 77952,
          "time": 101.5,
          "velocity": 0.7165354330708661
        },
        {
          "duration": 1.125,
          "durationTicks": 864,
          "midi": 53,
          "name": "F3",
          "ticks": 77952,
          "time": 101.5,
          "velocity": 0.7007874015748031
        },
        {
          "duration": 1.0963541666666714,
          "durationTicks": 842,
          "midi": 50,
          "name": "D3",
          "ticks": 77952,
          "time": 101.5,
          "velocity": 0.7716535433070866
        },
        {
          "duration": 0.125,
          "durationTicks": 96,
          "midi": 62,
          "name": "D4",
          "ticks": 78144,
          "time": 101.75,
          "velocity": 0.8031496062992126
        },
        {
          "duration": 0.1354166666666714,
          "durationTicks": 104,
          "midi": 65,
          "name": "F4",
          "ticks": 78144,
          "time": 101.75,
          "velocity": 0.8267716535433071
        },
        {
          "duration": 0.1380208333333286,
          "durationTicks": 106,
          "midi": 69,
          "name": "A4",
          "ticks": 78144,
          "time": 101.75,
          "velocity": 0.8031496062992126
        },
        {
          "duration": 0.3958333333333286,
          "durationTicks": 304,
          "midi": 60,
          "name": "C4",
          "ticks": 78336,
          "time": 102,
          "velocity": 0.8031496062992126
        },
        {
          "duration": 0.421875,
          "durationTicks": 324,
          "midi": 65,
          "name": "F4",
          "ticks": 78336,
          "time": 102,
          "velocity": 0.84251968503937
        },
        {
          "duration": 0.4114583333333286,
          "durationTicks": 316,
          "midi": 69,
          "name": "A4",
          "ticks": 78336,
          "time": 102,
          "velocity": 0.8031496062992126
        },
        {
          "duration": 0.390625,
          "durationTicks": 300,
          "midi": 60,
          "name": "C4",
          "ticks": 78720,
          "time": 102.5,
          "velocity": 0.8031496062992126
        },
        {
          "duration": 0.4010416666666714,
          "durationTicks": 308,
          "midi": 69,
          "name": "A4",
          "ticks": 78720,
          "time": 102.5,
          "velocity": 0.8267716535433071
        },
        {
          "duration": 0.4166666666666714,
          "durationTicks": 320,
          "midi": 65,
          "name": "F4",
          "ticks": 78720,
          "time": 102.5,
          "velocity": 0.8267716535433071
        },
        {
          "duration": 0.1145833333333286,
          "durationTicks": 88,
          "midi": 57,
          "name": "A3",
          "ticks": 79008,
          "time": 102.875,
          "velocity": 0.8031496062992126
        },
        {
          "duration": 0.1666666666666714,
          "durationTicks": 128,
          "midi": 53,
          "name": "F3",
          "ticks": 79008,
          "time": 102.875,
          "velocity": 0.5039370078740157
        },
        {
          "duration": 0.21875,
          "durationTicks": 168,
          "midi": 50,
          "name": "D3",
          "ticks": 79008,
          "time": 102.875,
          "velocity": 0.5196850393700787
        },
        {
          "duration": 0.3046875,
          "durationTicks": 234,
          "midi": 60,
          "name": "C4",
          "ticks": 79104,
          "time": 103,
          "velocity": 0.7874015748031497
        },
        {
          "duration": 0.34375,
          "durationTicks": 264,
          "midi": 69,
          "name": "A4",
          "ticks": 79104,
          "time": 103,
          "velocity": 0.8031496062992126
        },
        {
          "duration": 0.3645833333333286,
          "durationTicks": 280,
          "midi": 65,
          "name": "F4",
          "ticks": 79104,
          "time": 103,
          "velocity": 0.84251968503937
        },
        {
          "duration": 0.1744791666666714,
          "durationTicks": 134,
          "midi": 57,
          "name": "A3",
          "ticks": 79296,
          "time": 103.25,
          "velocity": 0.7874015748031497
        },
        {
          "duration": 0.2135416666666714,
          "durationTicks": 164,
          "midi": 53,
          "name": "F3",
          "ticks": 79296,
          "time": 103.25,
          "velocity": 0.7480314960629921
        },
        {
          "duration": 0.25,
          "durationTicks": 192,
          "midi": 50,
          "name": "D3",
          "ticks": 79296,
          "time": 103.25,
          "velocity": 0.7716535433070866
        },
        {
          "duration": 0.0885416666666714,
          "durationTicks": 68,
          "midi": 69,
          "name": "A4",
          "ticks": 79488,
          "time": 103.5,
          "velocity": 0.84251968503937
        },
        {
          "duration": 0.1119791666666714,
          "durationTicks": 86,
          "midi": 60,
          "name": "C4",
          "ticks": 79488,
          "time": 103.5,
          "velocity": 0.8031496062992126
        },
        {
          "duration": 0.09375,
          "durationTicks": 72,
          "midi": 65,
          "name": "F4",
          "ticks": 79488,
          "time": 103.5,
          "velocity": 0.84251968503937
        },
        {
          "duration": 0.3645833333333286,
          "durationTicks": 280,
          "midi": 62,
          "name": "D4",
          "ticks": 79872,
          "time": 104,
          "velocity": 0.8661417322834646
        },
        {
          "duration": 0.3828125,
          "durationTicks": 294,
          "midi": 59,
          "name": "B3",
          "ticks": 79872,
          "time": 104,
          "velocity": 0.8267716535433071
        },
        {
          "duration": 0.375,
          "durationTicks": 288,
          "midi": 55,
          "name": "G3",
          "ticks": 79872,
          "time": 104,
          "velocity": 0.8031496062992126
        },
        {
          "duration": 0.7109375,
          "durationTicks": 546,
          "midi": 43,
          "name": "G2",
          "ticks": 79872,
          "time": 104,
          "velocity": 0.6850393700787402
        },
        {
          "duration": 0.3776041666666714,
          "durationTicks": 290,
          "midi": 55,
          "name": "G3",
          "ticks": 80256,
          "time": 104.5,
          "velocity": 0.8661417322834646
        },
        {
          "duration": 0.390625,
          "durationTicks": 300,
          "midi": 59,
          "name": "B3",
          "ticks": 80256,
          "time": 104.5,
          "velocity": 0.84251968503937
        },
        {
          "duration": 0.3776041666666714,
          "durationTicks": 290,
          "midi": 62,
          "name": "D4",
          "ticks": 80256,
          "time": 104.5,
          "velocity": 0.8661417322834646
        },
        {
          "duration": 0.1744791666666714,
          "durationTicks": 134,
          "midi": 41,
          "name": "F2",
          "ticks": 80640,
          "time": 105,
          "velocity": 0.6299212598425197
        },
        {
          "duration": 0.3854166666666714,
          "durationTicks": 296,
          "midi": 53,
          "name": "F3",
          "ticks": 80640,
          "time": 105,
          "velocity": 0.8031496062992126
        },
        {
          "duration": 0.4036458333333286,
          "durationTicks": 310,
          "midi": 59,
          "name": "B3",
          "ticks": 80640,
          "time": 105,
          "velocity": 0.8267716535433071
        },
        {
          "duration": 0.3776041666666714,
          "durationTicks": 290,
          "midi": 62,
          "name": "D4",
          "ticks": 80640,
          "time": 105,
          "velocity": 0.8267716535433071
        },
        {
          "duration": 0.3671875,
          "durationTicks": 282,
          "midi": 59,
          "name": "B3",
          "ticks": 81024,
          "time": 105.5,
          "velocity": 0.8267716535433071
        },
        {
          "duration": 0.3567708333333286,
          "durationTicks": 274,
          "midi": 53,
          "name": "F3",
          "ticks": 81024,
          "time": 105.5,
          "velocity": 0.8031496062992126
        },
        {
          "duration": 0.359375,
          "durationTicks": 276,
          "midi": 62,
          "name": "D4",
          "ticks": 81024,
          "time": 105.5,
          "velocity": 0.8267716535433071
        },
        {
          "duration": 0.390625,
          "durationTicks": 300,
          "midi": 52,
          "name": "E3",
          "ticks": 81408,
          "time": 106,
          "velocity": 0.8031496062992126
        },
        {
          "duration": 0.3958333333333286,
          "durationTicks": 304,
          "midi": 59,
          "name": "B3",
          "ticks": 81408,
          "time": 106,
          "velocity": 0.8267716535433071
        },
        {
          "duration": 0.3854166666666714,
          "durationTicks": 296,
          "midi": 62,
          "name": "D4",
          "ticks": 81408,
          "time": 106,
          "velocity": 0.8031496062992126
        },
        {
          "duration": 0.3645833333333286,
          "durationTicks": 280,
          "midi": 52,
          "name": "E3",
          "ticks": 81792,
          "time": 106.5,
          "velocity": 0.8267716535433071
        },
        {
          "duration": 0.40625,
          "durationTicks": 312,
          "midi": 59,
          "name": "B3",
          "ticks": 81792,
          "time": 106.5,
          "velocity": 0.84251968503937
        },
        {
          "duration": 0.4036458333333286,
          "durationTicks": 310,
          "midi": 62,
          "name": "D4",
          "ticks": 81792,
          "time": 106.5,
          "velocity": 0.8267716535433071
        },
        {
          "duration": 0.0651041666666714,
          "durationTicks": 50,
          "midi": 50,
          "name": "D3",
          "ticks": 82080,
          "time": 106.875,
          "velocity": 0.889763779527559
        },
        {
          "duration": 0.3125,
          "durationTicks": 240,
          "midi": 55,
          "name": "G3",
          "ticks": 82176,
          "time": 107,
          "velocity": 0.7874015748031497
        },
        {
          "duration": 0.328125,
          "durationTicks": 252,
          "midi": 62,
          "name": "D4",
          "ticks": 82176,
          "time": 107,
          "velocity": 0.7874015748031497
        },
        {
          "duration": 0.3411458333333286,
          "durationTicks": 262,
          "midi": 59,
          "name": "B3",
          "ticks": 82176,
          "time": 107,
          "velocity": 0.7716535433070866
        },
        {
          "duration": 0.2005208333333286,
          "durationTicks": 154,
          "midi": 50,
          "name": "D3",
          "ticks": 82368,
          "time": 107.25,
          "velocity": 0.9606299212598425
        },
        {
          "duration": 0.3020833333333286,
          "durationTicks": 232,
          "midi": 62,
          "name": "D4",
          "ticks": 82560,
          "time": 107.5,
          "velocity": 0.8661417322834646
        },
        {
          "duration": 0.2890625,
          "durationTicks": 222,
          "midi": 59,
          "name": "B3",
          "ticks": 82560,
          "time": 107.5,
          "velocity": 0.889763779527559
        },
        {
          "duration": 0.2760416666666714,
          "durationTicks": 212,
          "midi": 55,
          "name": "G3",
          "ticks": 82560,
          "time": 107.5,
          "velocity": 0.8267716535433071
        },
        {
          "duration": 0.1145833333333286,
          "durationTicks": 88,
          "midi": 50,
          "name": "D3",
          "ticks": 82752,
          "time": 107.75,
          "velocity": 0.937007874015748
        },
        {
          "duration": 1.0807291666666714,
          "durationTicks": 830,
          "midi": 55,
          "name": "G3",
          "ticks": 82944,
          "time": 108,
          "velocity": 0.889763779527559
        },
        {
          "duration": 1.0833333333333286,
          "durationTicks": 832,
          "midi": 52,
          "name": "E3",
          "ticks": 82944,
          "time": 108,
          "velocity": 0.8661417322834646
        },
        {
          "duration": 1.09375,
          "durationTicks": 840,
          "midi": 48,
          "name": "C3",
          "ticks": 82944,
          "time": 108,
          "velocity": 0.889763779527559
        },
        {
          "duration": 0.1171875,
          "durationTicks": 90,
          "midi": 48,
          "name": "C3",
          "ticks": 83904,
          "time": 109.25,
          "velocity": 0.8661417322834646
        },
        {
          "duration": 0.1067708333333286,
          "durationTicks": 82,
          "midi": 52,
          "name": "E3",
          "ticks": 83904,
          "time": 109.25,
          "velocity": 0.8267716535433071
        },
        {
          "duration": 0.1015625,
          "durationTicks": 78,
          "midi": 60,
          "name": "C4",
          "ticks": 83904,
          "time": 109.25,
          "velocity": 0.9133858267716536
        },
        {
          "duration": 0.1145833333333286,
          "durationTicks": 88,
          "midi": 55,
          "name": "G3",
          "ticks": 83904,
          "time": 109.25,
          "velocity": 0.889763779527559
        },
        {
          "duration": 1.1119791666666714,
          "durationTicks": 854,
          "midi": 54,
          "name": "F#3",
          "ticks": 84480,
          "time": 110,
          "velocity": 0.7716535433070866
        },
        {
          "duration": 1.1328125,
          "durationTicks": 870,
          "midi": 57,
          "name": "A3",
          "ticks": 84480,
          "time": 110,
          "velocity": 0.8031496062992126
        },
        {
          "duration": 1.125,
          "durationTicks": 864,
          "midi": 62,
          "name": "D4",
          "ticks": 84480,
          "time": 110,
          "velocity": 0.8267716535433071
        },
        {
          "duration": 0.1380208333333286,
          "durationTicks": 106,
          "midi": 62,
          "name": "D4",
          "ticks": 85440,
          "time": 111.25,
          "velocity": 0.84251968503937
        },
        {
          "duration": 0.15625,
          "durationTicks": 120,
          "midi": 57,
          "name": "A3",
          "ticks": 85440,
          "time": 111.25,
          "velocity": 0.8661417322834646
        },
        {
          "duration": 0.1614583333333286,
          "durationTicks": 124,
          "midi": 54,
          "name": "F#3",
          "ticks": 85440,
          "time": 111.25,
          "velocity": 0.8267716535433071
        },
        {
          "duration": 0.0963541666666714,
          "durationTicks": 74,
          "midi": 50,
          "name": "D3",
          "ticks": 85440,
          "time": 111.25,
          "velocity": 0.889763779527559
        },
        {
          "duration": 0.1041666666666714,
          "durationTicks": 80,
          "midi": 57,
          "name": "A3",
          "ticks": 85824,
          "time": 111.75,
          "velocity": 0.7480314960629921
        },
        {
          "duration": 0.1432291666666714,
          "durationTicks": 110,
          "midi": 54,
          "name": "F#3",
          "ticks": 85824,
          "time": 111.75,
          "velocity": 0.7165354330708661
        },
        {
          "duration": 0.1328125,
          "durationTicks": 102,
          "midi": 62,
          "name": "D4",
          "ticks": 85824,
          "time": 111.75,
          "velocity": 0.7716535433070866
        },
        {
          "duration": 1.2604166666666714,
          "durationTicks": 968,
          "midi": 48,
          "name": "C3",
          "ticks": 86016,
          "time": 112,
          "velocity": 0.6850393700787402
        },
        {
          "duration": 1.1328125,
          "durationTicks": 870,
          "midi": 60,
          "name": "C4",
          "ticks": 86016,
          "time": 112,
          "velocity": 0.7874015748031497
        },
        {
          "duration": 1.265625,
          "durationTicks": 972,
          "midi": 41,
          "name": "F2",
          "ticks": 86016,
          "time": 112,
          "velocity": 0.6850393700787402
        },
        {
          "duration": 1.1458333333333286,
          "durationTicks": 880,
          "midi": 57,
          "name": "A3",
          "ticks": 86016,
          "time": 112,
          "velocity": 0.7007874015748031
        },
        {
          "duration": 1.1354166666666714,
          "durationTicks": 872,
          "midi": 53,
          "name": "F3",
          "ticks": 86016,
          "time": 112,
          "velocity": 0.6692913385826772
        },
        {
          "duration": 0.1041666666666714,
          "durationTicks": 80,
          "midi": 60,
          "name": "C4",
          "ticks": 86976,
          "time": 113.25,
          "velocity": 0.8031496062992126
        },
        {
          "duration": 0.1041666666666714,
          "durationTicks": 80,
          "midi": 57,
          "name": "A3",
          "ticks": 86976,
          "time": 113.25,
          "velocity": 0.8031496062992126
        },
        {
          "duration": 0.1067708333333286,
          "durationTicks": 82,
          "midi": 53,
          "name": "F3",
          "ticks": 86976,
          "time": 113.25,
          "velocity": 0.7716535433070866
        },
        {
          "duration": 0.1145833333333286,
          "durationTicks": 88,
          "midi": 41,
          "name": "F2",
          "ticks": 87072,
          "time": 113.375,
          "velocity": 0.8031496062992126
        },
        {
          "duration": 0.1119791666666714,
          "durationTicks": 86,
          "midi": 48,
          "name": "C3",
          "ticks": 87072,
          "time": 113.375,
          "velocity": 0.8267716535433071
        },
        {
          "duration": 0.1640625,
          "durationTicks": 126,
          "midi": 57,
          "name": "A3",
          "ticks": 87168,
          "time": 113.5,
          "velocity": 0.8031496062992126
        },
        {
          "duration": 0.1588541666666714,
          "durationTicks": 122,
          "midi": 53,
          "name": "F3",
          "ticks": 87168,
          "time": 113.5,
          "velocity": 0.7480314960629921
        },
        {
          "duration": 0.15625,
          "durationTicks": 120,
          "midi": 60,
          "name": "C4",
          "ticks": 87168,
          "time": 113.5,
          "velocity": 0.8267716535433071
        },
        {
          "duration": 0.1119791666666714,
          "durationTicks": 86,
          "midi": 53,
          "name": "F3",
          "ticks": 87360,
          "time": 113.75,
          "velocity": 0.7716535433070866
        },
        {
          "duration": 0.1223958333333286,
          "durationTicks": 94,
          "midi": 60,
          "name": "C4",
          "ticks": 87360,
          "time": 113.75,
          "velocity": 0.7874015748031497
        },
        {
          "duration": 0.1145833333333286,
          "durationTicks": 88,
          "midi": 57,
          "name": "A3",
          "ticks": 87360,
          "time": 113.75,
          "velocity": 0.8267716535433071
        },
        {
          "duration": 1.125,
          "durationTicks": 864,
          "midi": 60,
          "name": "C4",
          "ticks": 87552,
          "time": 114,
          "velocity": 0.8031496062992126
        },
        {
          "duration": 1.0963541666666714,
          "durationTicks": 842,
          "midi": 53,
          "name": "F3",
          "ticks": 87552,
          "time": 114,
          "velocity": 0.8031496062992126
        },
        {
          "duration": 1.125,
          "durationTicks": 864,
          "midi": 57,
          "name": "A3",
          "ticks": 87552,
          "time": 114,
          "velocity": 0.8267716535433071
        },
        {
          "duration": 1.1354166666666714,
          "durationTicks": 872,
          "midi": 43,
          "name": "G2",
          "ticks": 87552,
          "time": 114,
          "velocity": 0.7874015748031497
        },
        {
          "duration": 0.0885416666666714,
          "durationTicks": 68,
          "midi": 43,
          "name": "G2",
          "ticks": 88512,
          "time": 115.25,
          "velocity": 0.8267716535433071
        },
        {
          "duration": 0.0755208333333286,
          "durationTicks": 58,
          "midi": 62,
          "name": "D4",
          "ticks": 88512,
          "time": 115.25,
          "velocity": 0.7874015748031497
        },
        {
          "duration": 0.0729166666666714,
          "durationTicks": 56,
          "midi": 55,
          "name": "G3",
          "ticks": 88512,
          "time": 115.25,
          "velocity": 0.7480314960629921
        },
        {
          "duration": 0.0677083333333286,
          "durationTicks": 52,
          "midi": 59,
          "name": "B3",
          "ticks": 88512,
          "time": 115.25,
          "velocity": 0.84251968503937
        },
        {
          "duration": 0.078125,
          "durationTicks": 60,
          "midi": 43,
          "name": "G2",
          "ticks": 88896,
          "time": 115.75,
          "velocity": 0.8661417322834646
        },
        {
          "duration": 0.0703125,
          "durationTicks": 54,
          "midi": 55,
          "name": "G3",
          "ticks": 88896,
          "time": 115.75,
          "velocity": 0.7874015748031497
        },
        {
          "duration": 0.0911458333333286,
          "durationTicks": 70,
          "midi": 62,
          "name": "D4",
          "ticks": 88896,
          "time": 115.75,
          "velocity": 0.84251968503937
        },
        {
          "duration": 0.0729166666666714,
          "durationTicks": 56,
          "midi": 59,
          "name": "B3",
          "ticks": 88896,
          "time": 115.75,
          "velocity": 0.8661417322834646
        },
        {
          "duration": 1.0807291666666714,
          "durationTicks": 830,
          "midi": 55,
          "name": "G3",
          "ticks": 89088,
          "time": 116,
          "velocity": 0.889763779527559
        },
        {
          "duration": 1.0833333333333286,
          "durationTicks": 832,
          "midi": 52,
          "name": "E3",
          "ticks": 89088,
          "time": 116,
          "velocity": 0.8661417322834646
        },
        {
          "duration": 1.09375,
          "durationTicks": 840,
          "midi": 48,
          "name": "C3",
          "ticks": 89088,
          "time": 116,
          "velocity": 0.889763779527559
        },
        {
          "duration": 0.1171875,
          "durationTicks": 90,
          "midi": 48,
          "name": "C3",
          "ticks": 90048,
          "time": 117.25,
          "velocity": 0.8661417322834646
        },
        {
          "duration": 0.1067708333333286,
          "durationTicks": 82,
          "midi": 52,
          "name": "E3",
          "ticks": 90048,
          "time": 117.25,
          "velocity": 0.8267716535433071
        },
        {
          "duration": 0.1015625,
          "durationTicks": 78,
          "midi": 60,
          "name": "C4",
          "ticks": 90048,
          "time": 117.25,
          "velocity": 0.9133858267716536
        },
        {
          "duration": 0.1145833333333286,
          "durationTicks": 88,
          "midi": 55,
          "name": "G3",
          "ticks": 90048,
          "time": 117.25,
          "velocity": 0.889763779527559
        },
        {
          "duration": 1.1119791666666714,
          "durationTicks": 854,
          "midi": 54,
          "name": "F#3",
          "ticks": 90624,
          "time": 118,
          "velocity": 0.7716535433070866
        },
        {
          "duration": 1.1328125,
          "durationTicks": 870,
          "midi": 57,
          "name": "A3",
          "ticks": 90624,
          "time": 118,
          "velocity": 0.8031496062992126
        },
        {
          "duration": 1.125,
          "durationTicks": 864,
          "midi": 62,
          "name": "D4",
          "ticks": 90624,
          "time": 118,
          "velocity": 0.8267716535433071
        },
        {
          "duration": 0.1380208333333286,
          "durationTicks": 106,
          "midi": 62,
          "name": "D4",
          "ticks": 91584,
          "time": 119.25,
          "velocity": 0.84251968503937
        },
        {
          "duration": 0.15625,
          "durationTicks": 120,
          "midi": 57,
          "name": "A3",
          "ticks": 91584,
          "time": 119.25,
          "velocity": 0.8661417322834646
        },
        {
          "duration": 0.1614583333333286,
          "durationTicks": 124,
          "midi": 54,
          "name": "F#3",
          "ticks": 91584,
          "time": 119.25,
          "velocity": 0.8267716535433071
        },
        {
          "duration": 0.0963541666666714,
          "durationTicks": 74,
          "midi": 50,
          "name": "D3",
          "ticks": 91584,
          "time": 119.25,
          "velocity": 0.889763779527559
        },
        {
          "duration": 0.1041666666666714,
          "durationTicks": 80,
          "midi": 57,
          "name": "A3",
          "ticks": 91968,
          "time": 119.75,
          "velocity": 0.7480314960629921
        },
        {
          "duration": 0.1432291666666714,
          "durationTicks": 110,
          "midi": 54,
          "name": "F#3",
          "ticks": 91968,
          "time": 119.75,
          "velocity": 0.7165354330708661
        },
        {
          "duration": 0.1328125,
          "durationTicks": 102,
          "midi": 62,
          "name": "D4",
          "ticks": 91968,
          "time": 119.75,
          "velocity": 0.7716535433070866
        },
        {
          "duration": 1.2604166666666714,
          "durationTicks": 968,
          "midi": 48,
          "name": "C3",
          "ticks": 92160,
          "time": 120,
          "velocity": 0.6850393700787402
        },
        {
          "duration": 1.1328125,
          "durationTicks": 870,
          "midi": 60,
          "name": "C4",
          "ticks": 92160,
          "time": 120,
          "velocity": 0.7874015748031497
        },
        {
          "duration": 1.265625,
          "durationTicks": 972,
          "midi": 41,
          "name": "F2",
          "ticks": 92160,
          "time": 120,
          "velocity": 0.6850393700787402
        },
        {
          "duration": 1.1458333333333286,
          "durationTicks": 880,
          "midi": 57,
          "name": "A3",
          "ticks": 92160,
          "time": 120,
          "velocity": 0.7007874015748031
        },
        {
          "duration": 1.1354166666666714,
          "durationTicks": 872,
          "midi": 53,
          "name": "F3",
          "ticks": 92160,
          "time": 120,
          "velocity": 0.6692913385826772
        },
        {
          "duration": 0.1041666666666714,
          "durationTicks": 80,
          "midi": 60,
          "name": "C4",
          "ticks": 93120,
          "time": 121.25,
          "velocity": 0.8031496062992126
        },
        {
          "duration": 0.1041666666666714,
          "durationTicks": 80,
          "midi": 57,
          "name": "A3",
          "ticks": 93120,
          "time": 121.25,
          "velocity": 0.8031496062992126
        },
        {
          "duration": 0.1067708333333286,
          "durationTicks": 82,
          "midi": 53,
          "name": "F3",
          "ticks": 93120,
          "time": 121.25,
          "velocity": 0.7716535433070866
        },
        {
          "duration": 0.1145833333333286,
          "durationTicks": 88,
          "midi": 41,
          "name": "F2",
          "ticks": 93216,
          "time": 121.375,
          "velocity": 0.8031496062992126
        },
        {
          "duration": 0.1119791666666714,
          "durationTicks": 86,
          "midi": 48,
          "name": "C3",
          "ticks": 93216,
          "time": 121.375,
          "velocity": 0.8267716535433071
        },
        {
          "duration": 0.1640625,
          "durationTicks": 126,
          "midi": 57,
          "name": "A3",
          "ticks": 93312,
          "time": 121.5,
          "velocity": 0.8031496062992126
        },
        {
          "duration": 0.1588541666666714,
          "durationTicks": 122,
          "midi": 53,
          "name": "F3",
          "ticks": 93312,
          "time": 121.5,
          "velocity": 0.7480314960629921
        },
        {
          "duration": 0.15625,
          "durationTicks": 120,
          "midi": 60,
          "name": "C4",
          "ticks": 93312,
          "time": 121.5,
          "velocity": 0.8267716535433071
        },
        {
          "duration": 0.1119791666666714,
          "durationTicks": 86,
          "midi": 53,
          "name": "F3",
          "ticks": 93504,
          "time": 121.75,
          "velocity": 0.7716535433070866
        },
        {
          "duration": 0.1223958333333286,
          "durationTicks": 94,
          "midi": 60,
          "name": "C4",
          "ticks": 93504,
          "time": 121.75,
          "velocity": 0.7874015748031497
        },
        {
          "duration": 0.1145833333333286,
          "durationTicks": 88,
          "midi": 57,
          "name": "A3",
          "ticks": 93504,
          "time": 121.75,
          "velocity": 0.8267716535433071
        },
        {
          "duration": 1.125,
          "durationTicks": 864,
          "midi": 60,
          "name": "C4",
          "ticks": 93696,
          "time": 122,
          "velocity": 0.8031496062992126
        },
        {
          "duration": 1.0963541666666714,
          "durationTicks": 842,
          "midi": 53,
          "name": "F3",
          "ticks": 93696,
          "time": 122,
          "velocity": 0.8031496062992126
        },
        {
          "duration": 1.125,
          "durationTicks": 864,
          "midi": 57,
          "name": "A3",
          "ticks": 93696,
          "time": 122,
          "velocity": 0.8267716535433071
        },
        {
          "duration": 1.1354166666666714,
          "durationTicks": 872,
          "midi": 43,
          "name": "G2",
          "ticks": 93696,
          "time": 122,
          "velocity": 0.7874015748031497
        },
        {
          "duration": 0.0885416666666714,
          "durationTicks": 68,
          "midi": 43,
          "name": "G2",
          "ticks": 94656,
          "time": 123.25,
          "velocity": 0.8267716535433071
        },
        {
          "duration": 0.0755208333333286,
          "durationTicks": 58,
          "midi": 62,
          "name": "D4",
          "ticks": 94656,
          "time": 123.25,
          "velocity": 0.7874015748031497
        },
        {
          "duration": 0.0729166666666714,
          "durationTicks": 56,
          "midi": 55,
          "name": "G3",
          "ticks": 94656,
          "time": 123.25,
          "velocity": 0.7480314960629921
        },
        {
          "duration": 0.0677083333333286,
          "durationTicks": 52,
          "midi": 59,
          "name": "B3",
          "ticks": 94656,
          "time": 123.25,
          "velocity": 0.84251968503937
        },
        {
          "duration": 0.078125,
          "durationTicks": 60,
          "midi": 43,
          "name": "G2",
          "ticks": 95040,
          "time": 123.75,
          "velocity": 0.8661417322834646
        },
        {
          "duration": 0.0703125,
          "durationTicks": 54,
          "midi": 55,
          "name": "G3",
          "ticks": 95040,
          "time": 123.75,
          "velocity": 0.7874015748031497
        },
        {
          "duration": 0.0911458333333286,
          "durationTicks": 70,
          "midi": 62,
          "name": "D4",
          "ticks": 95040,
          "time": 123.75,
          "velocity": 0.84251968503937
        },
        {
          "duration": 0.0729166666666714,
          "durationTicks": 56,
          "midi": 59,
          "name": "B3",
          "ticks": 95040,
          "time": 123.75,
          "velocity": 0.8661417322834646
        },
        {
          "duration": 0.2083333333333286,
          "durationTicks": 160,
          "midi": 58,
          "name": "A#3",
          "ticks": 95232,
          "time": 124,
          "velocity": 0.6692913385826772
        },
        {
          "duration": 0.25,
          "durationTicks": 192,
          "midi": 67,
          "name": "G4",
          "ticks": 95232,
          "time": 124,
          "velocity": 0.8031496062992126
        },
        {
          "duration": 0.4166666666666714,
          "durationTicks": 320,
          "midi": 63,
          "name": "D#4",
          "ticks": 95232,
          "time": 124,
          "velocity": 0.7480314960629921
        },
        {
          "duration": 0.3489583333333286,
          "durationTicks": 268,
          "midi": 51,
          "name": "D#3",
          "ticks": 95232,
          "time": 124,
          "velocity": 0.6456692913385826
        },
        {
          "duration": 0.3645833333333286,
          "durationTicks": 280,
          "midi": 55,
          "name": "G3",
          "ticks": 95232,
          "time": 124,
          "velocity": 0.7716535433070866
        },
        {
          "duration": 0.7291666666666714,
          "durationTicks": 560,
          "midi": 51,
          "name": "D#3",
          "ticks": 95520,
          "time": 124.375,
          "velocity": 0.6850393700787402
        },
        {
          "duration": 0.09375,
          "durationTicks": 72,
          "midi": 67,
          "name": "G4",
          "ticks": 95520,
          "time": 124.375,
          "velocity": 0.36220472440944884
        },
        {
          "duration": 0.1041666666666714,
          "durationTicks": 80,
          "midi": 58,
          "name": "A#3",
          "ticks": 95520,
          "time": 124.375,
          "velocity": 0.47244094488188976
        },
        {
          "duration": 0.1640625,
          "durationTicks": 126,
          "midi": 67,
          "name": "G4",
          "ticks": 95616,
          "time": 124.5,
          "velocity": 0.6456692913385826
        },
        {
          "duration": 0.203125,
          "durationTicks": 156,
          "midi": 63,
          "name": "D#4",
          "ticks": 95616,
          "time": 124.5,
          "velocity": 0.6850393700787402
        },
        {
          "duration": 0.1171875,
          "durationTicks": 90,
          "midi": 58,
          "name": "A#3",
          "ticks": 95808,
          "time": 124.75,
          "velocity": 0.7874015748031497
        },
        {
          "duration": 0.1458333333333286,
          "durationTicks": 112,
          "midi": 67,
          "name": "G4",
          "ticks": 95808,
          "time": 124.75,
          "velocity": 0.3700787401574803
        },
        {
          "duration": 0.2369791666666714,
          "durationTicks": 182,
          "midi": 67,
          "name": "G4",
          "ticks": 96000,
          "time": 125,
          "velocity": 0.7874015748031497
        },
        {
          "duration": 0.4166666666666714,
          "durationTicks": 320,
          "midi": 62,
          "name": "D4",
          "ticks": 96000,
          "time": 125,
          "velocity": 0.8031496062992126
        },
        {
          "duration": 0.421875,
          "durationTicks": 324,
          "midi": 67,
          "name": "G4",
          "ticks": 96384,
          "time": 125.5,
          "velocity": 0.7874015748031497
        },
        {
          "duration": 0.2291666666666714,
          "durationTicks": 176,
          "midi": 62,
          "name": "D4",
          "ticks": 96384,
          "time": 125.5,
          "velocity": 0.7874015748031497
        },
        {
          "duration": 0.0833333333333286,
          "durationTicks": 64,
          "midi": 55,
          "name": "G3",
          "ticks": 96576,
          "time": 125.75,
          "velocity": 0.1968503937007874
        },
        {
          "duration": 0.34375,
          "durationTicks": 264,
          "midi": 60,
          "name": "C4",
          "ticks": 96768,
          "time": 126,
          "velocity": 0.8031496062992126
        },
        {
          "duration": 0.3802083333333286,
          "durationTicks": 292,
          "midi": 67,
          "name": "G4",
          "ticks": 96768,
          "time": 126,
          "velocity": 0.7716535433070866
        },
        {
          "duration": 1.4036458333333286,
          "durationTicks": 1078,
          "midi": 51,
          "name": "D#3",
          "ticks": 96768,
          "time": 126,
          "velocity": 0.7874015748031497
        },
        {
          "duration": 0.3567708333333286,
          "durationTicks": 274,
          "midi": 60,
          "name": "C4",
          "ticks": 97152,
          "time": 126.5,
          "velocity": 0.84251968503937
        },
        {
          "duration": 0.3723958333333286,
          "durationTicks": 286,
          "midi": 67,
          "name": "G4",
          "ticks": 97152,
          "time": 126.5,
          "velocity": 0.84251968503937
        },
        {
          "duration": 0.09375,
          "durationTicks": 72,
          "midi": 55,
          "name": "G3",
          "ticks": 97440,
          "time": 126.875,
          "velocity": 0.7322834645669292
        },
        {
          "duration": 0.3229166666666714,
          "durationTicks": 248,
          "midi": 62,
          "name": "D4",
          "ticks": 97536,
          "time": 127,
          "velocity": 0.889763779527559
        },
        {
          "duration": 0.328125,
          "durationTicks": 252,
          "midi": 67,
          "name": "G4",
          "ticks": 97536,
          "time": 127,
          "velocity": 0.8031496062992126
        },
        {
          "duration": 0.1145833333333286,
          "durationTicks": 88,
          "midi": 62,
          "name": "D4",
          "ticks": 97920,
          "time": 127.5,
          "velocity": 0.8661417322834646
        },
        {
          "duration": 0.1484375,
          "durationTicks": 114,
          "midi": 67,
          "name": "G4",
          "ticks": 97920,
          "time": 127.5,
          "velocity": 0.8031496062992126
        },
        {
          "duration": 1.203125,
          "durationTicks": 924,
          "midi": 48,
          "name": "C3",
          "ticks": 98208,
          "time": 127.875,
          "velocity": 0.6141732283464567
        },
        {
          "duration": 0.3854166666666572,
          "durationTicks": 296,
          "midi": 60,
          "name": "C4",
          "ticks": 98304,
          "time": 128,
          "velocity": 0.7874015748031497
        },
        {
          "duration": 0.4401041666666572,
          "durationTicks": 338,
          "midi": 64,
          "name": "E4",
          "ticks": 98304,
          "time": 128,
          "velocity": 0.8267716535433071
        },
        {
          "duration": 0.3489583333333428,
          "durationTicks": 268,
          "midi": 55,
          "name": "G3",
          "ticks": 98304,
          "time": 128,
          "velocity": 0.6692913385826772
        },
        {
          "duration": 1.1067708333333428,
          "durationTicks": 850,
          "midi": 52,
          "name": "E3",
          "ticks": 98304,
          "time": 128,
          "velocity": 0.5039370078740157
        },
        {
          "duration": 0.07291666666665719,
          "durationTicks": 56,
          "midi": 64,
          "name": "E4",
          "ticks": 98688,
          "time": 128.5,
          "velocity": 0.5511811023622047
        },
        {
          "duration": 0.109375,
          "durationTicks": 84,
          "midi": 60,
          "name": "C4",
          "ticks": 98688,
          "time": 128.5,
          "velocity": 0.6692913385826772
        },
        {
          "duration": 0.11197916666665719,
          "durationTicks": 86,
          "midi": 60,
          "name": "C4",
          "ticks": 99072,
          "time": 129,
          "velocity": 0.6299212598425197
        },
        {
          "duration": 0.0625,
          "durationTicks": 48,
          "midi": 55,
          "name": "G3",
          "ticks": 99072,
          "time": 129,
          "velocity": 0.3464566929133858
        },
        {
          "duration": 0.0703125,
          "durationTicks": 54,
          "midi": 62,
          "name": "D4",
          "ticks": 99264,
          "time": 129.25,
          "velocity": 0.7480314960629921
        },
        {
          "duration": 0.08072916666665719,
          "durationTicks": 62,
          "midi": 64,
          "name": "E4",
          "ticks": 99264,
          "time": 129.25,
          "velocity": 0.7165354330708661
        },
        {
          "duration": 0.109375,
          "durationTicks": 84,
          "midi": 67,
          "name": "G4",
          "ticks": 99264,
          "time": 129.25,
          "velocity": 0.7716535433070866
        },
        {
          "duration": 0.09635416666665719,
          "durationTicks": 74,
          "midi": 55,
          "name": "G3",
          "ticks": 99264,
          "time": 129.25,
          "velocity": 0.44881889763779526
        },
        {
          "duration": 0.08854166666665719,
          "durationTicks": 68,
          "midi": 52,
          "name": "E3",
          "ticks": 99264,
          "time": 129.25,
          "velocity": 0.5511811023622047
        },
        {
          "duration": 0.09375,
          "durationTicks": 72,
          "midi": 48,
          "name": "C3",
          "ticks": 99264,
          "time": 129.25,
          "velocity": 0.6456692913385826
        },
        {
          "duration": 0.0859375,
          "durationTicks": 66,
          "midi": 48,
          "name": "C3",
          "ticks": 99648,
          "time": 129.75,
          "velocity": 0.6456692913385826
        },
        {
          "duration": 0.08333333333334281,
          "durationTicks": 64,
          "midi": 52,
          "name": "E3",
          "ticks": 99648,
          "time": 129.75,
          "velocity": 0.6141732283464567
        },
        {
          "duration": 0.09375,
          "durationTicks": 72,
          "midi": 55,
          "name": "G3",
          "ticks": 99648,
          "time": 129.75,
          "velocity": 0.6850393700787402
        },
        {
          "duration": 0.09635416666665719,
          "durationTicks": 74,
          "midi": 67,
          "name": "G4",
          "ticks": 99648,
          "time": 129.75,
          "velocity": 0.8031496062992126
        },
        {
          "duration": 0.09114583333334281,
          "durationTicks": 70,
          "midi": 62,
          "name": "D4",
          "ticks": 99648,
          "time": 129.75,
          "velocity": 0.84251968503937
        },
        {
          "duration": 0.3880208333333428,
          "durationTicks": 298,
          "midi": 67,
          "name": "G4",
          "ticks": 100032,
          "time": 130.25,
          "velocity": 0.7874015748031497
        },
        {
          "duration": 0.2864583333333428,
          "durationTicks": 220,
          "midi": 62,
          "name": "D4",
          "ticks": 100032,
          "time": 130.25,
          "velocity": 0.84251968503937
        },
        {
          "duration": 0.2213541666666572,
          "durationTicks": 170,
          "midi": 55,
          "name": "G3",
          "ticks": 100032,
          "time": 130.25,
          "velocity": 0.6456692913385826
        },
        {
          "duration": 0.6640625,
          "durationTicks": 510,
          "midi": 52,
          "name": "E3",
          "ticks": 100032,
          "time": 130.25,
          "velocity": 0.6456692913385826
        },
        {
          "duration": 0.6953125,
          "durationTicks": 534,
          "midi": 48,
          "name": "C3",
          "ticks": 100032,
          "time": 130.25,
          "velocity": 0.7007874015748031
        },
        {
          "duration": 0.2083333333333428,
          "durationTicks": 160,
          "midi": 60,
          "name": "C4",
          "ticks": 100224,
          "time": 130.5,
          "velocity": 0.7480314960629921
        },
        {
          "duration": 0.1302083333333428,
          "durationTicks": 100,
          "midi": 55,
          "name": "G3",
          "ticks": 100416,
          "time": 130.75,
          "velocity": 0.889763779527559
        },
        {
          "duration": 0.2213541666666572,
          "durationTicks": 170,
          "midi": 60,
          "name": "C4",
          "ticks": 100608,
          "time": 131,
          "velocity": 0.7874015748031497
        },
        {
          "duration": 0.34375,
          "durationTicks": 264,
          "midi": 64,
          "name": "E4",
          "ticks": 100608,
          "time": 131,
          "velocity": 0.84251968503937
        },
        {
          "duration": 0.3046875,
          "durationTicks": 234,
          "midi": 67,
          "name": "G4",
          "ticks": 100608,
          "time": 131,
          "velocity": 0.8267716535433071
        },
        {
          "duration": 0.09635416666665719,
          "durationTicks": 74,
          "midi": 55,
          "name": "G3",
          "ticks": 100800,
          "time": 131.25,
          "velocity": 0.7007874015748031
        },
        {
          "duration": 0.10416666666665719,
          "durationTicks": 80,
          "midi": 52,
          "name": "E3",
          "ticks": 100800,
          "time": 131.25,
          "velocity": 0.5196850393700787
        },
        {
          "duration": 0.11979166666665719,
          "durationTicks": 92,
          "midi": 48,
          "name": "C3",
          "ticks": 100800,
          "time": 131.25,
          "velocity": 0.5984251968503937
        },
        {
          "duration": 0.09895833333334281,
          "durationTicks": 76,
          "midi": 60,
          "name": "C4",
          "ticks": 100992,
          "time": 131.5,
          "velocity": 0.84251968503937
        },
        {
          "duration": 0.5859375,
          "durationTicks": 450,
          "midi": 51,
          "name": "D#3",
          "ticks": 101376,
          "time": 132,
          "velocity": 0.6456692913385826
        },
        {
          "duration": 0.5729166666666572,
          "durationTicks": 440,
          "midi": 55,
          "name": "G3",
          "ticks": 101376,
          "time": 132,
          "velocity": 0.7874015748031497
        },
        {
          "duration": 0.3645833333333428,
          "durationTicks": 280,
          "midi": 58,
          "name": "A#3",
          "ticks": 101376,
          "time": 132,
          "velocity": 0.7480314960629921
        },
        {
          "duration": 0.3567708333333428,
          "durationTicks": 274,
          "midi": 67,
          "name": "G4",
          "ticks": 101376,
          "time": 132,
          "velocity": 0.7874015748031497
        },
        {
          "duration": 0.3854166666666572,
          "durationTicks": 296,
          "midi": 63,
          "name": "D#4",
          "ticks": 101376,
          "time": 132,
          "velocity": 0.7480314960629921
        },
        {
          "duration": 0.3854166666666572,
          "durationTicks": 296,
          "midi": 58,
          "name": "A#3",
          "ticks": 101760,
          "time": 132.5,
          "velocity": 0.7874015748031497
        },
        {
          "duration": 0.3776041666666572,
          "durationTicks": 290,
          "midi": 67,
          "name": "G4",
          "ticks": 101760,
          "time": 132.5,
          "velocity": 0.8031496062992126
        },
        {
          "duration": 0.375,
          "durationTicks": 288,
          "midi": 63,
          "name": "D#4",
          "ticks": 101760,
          "time": 132.5,
          "velocity": 0.8031496062992126
        },
        {
          "duration": 0.7942708333333428,
          "durationTicks": 610,
          "midi": 51,
          "name": "D#3",
          "ticks": 102048,
          "time": 132.875,
          "velocity": 0.6141732283464567
        },
        {
          "duration": 0.7708333333333428,
          "durationTicks": 592,
          "midi": 55,
          "name": "G3",
          "ticks": 102048,
          "time": 132.875,
          "velocity": 0.7480314960629921
        },
        {
          "duration": 0.3932291666666572,
          "durationTicks": 302,
          "midi": 62,
          "name": "D4",
          "ticks": 102144,
          "time": 133,
          "velocity": 0.8267716535433071
        },
        {
          "duration": 0.3854166666666572,
          "durationTicks": 296,
          "midi": 67,
          "name": "G4",
          "ticks": 102144,
          "time": 133,
          "velocity": 0.7874015748031497
        },
        {
          "duration": 0.3697916666666572,
          "durationTicks": 284,
          "midi": 62,
          "name": "D4",
          "ticks": 102528,
          "time": 133.5,
          "velocity": 0.7716535433070866
        },
        {
          "duration": 0.3567708333333428,
          "durationTicks": 274,
          "midi": 67,
          "name": "G4",
          "ticks": 102528,
          "time": 133.5,
          "velocity": 0.8267716535433071
        },
        {
          "duration": 1.5911458333333428,
          "durationTicks": 1222,
          "midi": 51,
          "name": "D#3",
          "ticks": 102816,
          "time": 133.875,
          "velocity": 0.6299212598425197
        },
        {
          "duration": 0.3932291666666572,
          "durationTicks": 302,
          "midi": 67,
          "name": "G4",
          "ticks": 102912,
          "time": 134,
          "velocity": 0.7874015748031497
        },
        {
          "duration": 0.3854166666666572,
          "durationTicks": 296,
          "midi": 60,
          "name": "C4",
          "ticks": 102912,
          "time": 134,
          "velocity": 0.84251968503937
        },
        {
          "duration": 0.7109375,
          "durationTicks": 546,
          "midi": 55,
          "name": "G3",
          "ticks": 102912,
          "time": 134,
          "velocity": 0.7007874015748031
        },
        {
          "duration": 0.3854166666666572,
          "durationTicks": 296,
          "midi": 60,
          "name": "C4",
          "ticks": 103296,
          "time": 134.5,
          "velocity": 0.8031496062992126
        },
        {
          "duration": 0.3854166666666572,
          "durationTicks": 296,
          "midi": 67,
          "name": "G4",
          "ticks": 103296,
          "time": 134.5,
          "velocity": 0.8031496062992126
        },
        {
          "duration": 0.28125,
          "durationTicks": 216,
          "midi": 55,
          "name": "G3",
          "ticks": 103584,
          "time": 134.875,
          "velocity": 0.7165354330708661
        },
        {
          "duration": 0.3489583333333428,
          "durationTicks": 268,
          "midi": 62,
          "name": "D4",
          "ticks": 103680,
          "time": 135,
          "velocity": 0.8661417322834646
        },
        {
          "duration": 0.375,
          "durationTicks": 288,
          "midi": 67,
          "name": "G4",
          "ticks": 103680,
          "time": 135,
          "velocity": 0.8267716535433071
        },
        {
          "duration": 0.1380208333333428,
          "durationTicks": 106,
          "midi": 62,
          "name": "D4",
          "ticks": 104064,
          "time": 135.5,
          "velocity": 0.8661417322834646
        },
        {
          "duration": 0.1328125,
          "durationTicks": 102,
          "midi": 67,
          "name": "G4",
          "ticks": 104064,
          "time": 135.5,
          "velocity": 0.8267716535433071
        },
        {
          "duration": 0.3697916666666572,
          "durationTicks": 284,
          "midi": 60,
          "name": "C4",
          "ticks": 104448,
          "time": 136,
          "velocity": 0.8031496062992126
        },
        {
          "duration": 0.390625,
          "durationTicks": 300,
          "midi": 57,
          "name": "A3",
          "ticks": 104448,
          "time": 136,
          "velocity": 0.8267716535433071
        },
        {
          "duration": 0.3828125,
          "durationTicks": 294,
          "midi": 53,
          "name": "F3",
          "ticks": 104448,
          "time": 136,
          "velocity": 0.7874015748031497
        },
        {
          "duration": 0.4322916666666572,
          "durationTicks": 332,
          "midi": 43,
          "name": "G2",
          "ticks": 104448,
          "time": 136,
          "velocity": 0.6850393700787402
        },
        {
          "duration": 0.078125,
          "durationTicks": 60,
          "midi": 53,
          "name": "F3",
          "ticks": 104832,
          "time": 136.5,
          "velocity": 0.6456692913385826
        },
        {
          "duration": 0.078125,
          "durationTicks": 60,
          "midi": 57,
          "name": "A3",
          "ticks": 104832,
          "time": 136.5,
          "velocity": 0.7322834645669292
        },
        {
          "duration": 0.08854166666665719,
          "durationTicks": 68,
          "midi": 60,
          "name": "C4",
          "ticks": 104832,
          "time": 136.5,
          "velocity": 0.7007874015748031
        },
        {
          "duration": 0.3619791666666572,
          "durationTicks": 278,
          "midi": 53,
          "name": "F3",
          "ticks": 105024,
          "time": 136.75,
          "velocity": 0.8267716535433071
        },
        {
          "duration": 0.3697916666666572,
          "durationTicks": 284,
          "midi": 60,
          "name": "C4",
          "ticks": 105024,
          "time": 136.75,
          "velocity": 0.8031496062992126
        },
        {
          "duration": 0.3802083333333428,
          "durationTicks": 292,
          "midi": 57,
          "name": "A3",
          "ticks": 105024,
          "time": 136.75,
          "velocity": 0.889763779527559
        },
        {
          "duration": 0.3776041666666572,
          "durationTicks": 290,
          "midi": 43,
          "name": "G2",
          "ticks": 105024,
          "time": 136.75,
          "velocity": 0.8267716535433071
        },
        {
          "duration": 0.34375,
          "durationTicks": 264,
          "midi": 53,
          "name": "F3",
          "ticks": 105408,
          "time": 137.25,
          "velocity": 0.7480314960629921
        },
        {
          "duration": 0.3645833333333428,
          "durationTicks": 280,
          "midi": 57,
          "name": "A3",
          "ticks": 105408,
          "time": 137.25,
          "velocity": 0.8031496062992126
        },
        {
          "duration": 0.3854166666666572,
          "durationTicks": 296,
          "midi": 43,
          "name": "G2",
          "ticks": 105408,
          "time": 137.25,
          "velocity": 0.8267716535433071
        },
        {
          "duration": 0.3619791666666572,
          "durationTicks": 278,
          "midi": 60,
          "name": "C4",
          "ticks": 105408,
          "time": 137.25,
          "velocity": 0.7874015748031497
        },
        {
          "duration": 0.10416666666665719,
          "durationTicks": 80,
          "midi": 43,
          "name": "G2",
          "ticks": 105792,
          "time": 137.75,
          "velocity": 0.6299212598425197
        },
        {
          "duration": 0.09375,
          "durationTicks": 72,
          "midi": 57,
          "name": "A3",
          "ticks": 105792,
          "time": 137.75,
          "velocity": 0.7716535433070866
        },
        {
          "duration": 0.08854166666665719,
          "durationTicks": 68,
          "midi": 53,
          "name": "F3",
          "ticks": 105792,
          "time": 137.75,
          "velocity": 0.7007874015748031
        },
        {
          "duration": 0.1171875,
          "durationTicks": 90,
          "midi": 60,
          "name": "C4",
          "ticks": 105792,
          "time": 137.75,
          "velocity": 0.7874015748031497
        },
        {
          "duration": 0.08333333333334281,
          "durationTicks": 64,
          "midi": 55,
          "name": "G3",
          "ticks": 105984,
          "time": 138,
          "velocity": 0.6692913385826772
        },
        {
          "duration": 0.09375,
          "durationTicks": 72,
          "midi": 62,
          "name": "D4",
          "ticks": 105984,
          "time": 138,
          "velocity": 0.7007874015748031
        },
        {
          "duration": 0.08333333333334281,
          "durationTicks": 64,
          "midi": 59,
          "name": "B3",
          "ticks": 105984,
          "time": 138,
          "velocity": 0.7322834645669292
        },
        {
          "duration": 0.09895833333334281,
          "durationTicks": 76,
          "midi": 43,
          "name": "G2",
          "ticks": 105984,
          "time": 138,
          "velocity": 0.7165354330708661
        },
        {
          "duration": 0.109375,
          "durationTicks": 84,
          "midi": 62,
          "name": "D4",
          "ticks": 106176,
          "time": 138.25,
          "velocity": 0.7322834645669292
        },
        {
          "duration": 0.10416666666665719,
          "durationTicks": 80,
          "midi": 59,
          "name": "B3",
          "ticks": 106176,
          "time": 138.25,
          "velocity": 0.7165354330708661
        },
        {
          "duration": 0.10416666666665719,
          "durationTicks": 80,
          "midi": 55,
          "name": "G3",
          "ticks": 106176,
          "time": 138.25,
          "velocity": 0.7007874015748031
        },
        {
          "duration": 0.11458333333334281,
          "durationTicks": 88,
          "midi": 43,
          "name": "G2",
          "ticks": 106176,
          "time": 138.25,
          "velocity": 0.7007874015748031
        },
        {
          "duration": 0.09375,
          "durationTicks": 72,
          "midi": 55,
          "name": "G3",
          "ticks": 106368,
          "time": 138.5,
          "velocity": 0.6692913385826772
        },
        {
          "duration": 0.10416666666665719,
          "durationTicks": 80,
          "midi": 59,
          "name": "B3",
          "ticks": 106368,
          "time": 138.5,
          "velocity": 0.7874015748031497
        },
        {
          "duration": 0.10416666666665719,
          "durationTicks": 80,
          "midi": 43,
          "name": "G2",
          "ticks": 106368,
          "time": 138.5,
          "velocity": 0.7874015748031497
        },
        {
          "duration": 0.11458333333334281,
          "durationTicks": 88,
          "midi": 62,
          "name": "D4",
          "ticks": 106368,
          "time": 138.5,
          "velocity": 0.7874015748031497
        },
        {
          "duration": 0.1302083333333428,
          "durationTicks": 100,
          "midi": 62,
          "name": "D4",
          "ticks": 106560,
          "time": 138.75,
          "velocity": 0.8031496062992126
        },
        {
          "duration": 0.11458333333334281,
          "durationTicks": 88,
          "midi": 59,
          "name": "B3",
          "ticks": 106560,
          "time": 138.75,
          "velocity": 0.84251968503937
        },
        {
          "duration": 0.11458333333334281,
          "durationTicks": 88,
          "midi": 55,
          "name": "G3",
          "ticks": 106560,
          "time": 138.75,
          "velocity": 0.7716535433070866
        },
        {
          "duration": 0.10416666666665719,
          "durationTicks": 80,
          "midi": 43,
          "name": "G2",
          "ticks": 106560,
          "time": 138.75,
          "velocity": 0.8267716535433071
        },
        {
          "duration": 0.10416666666665719,
          "durationTicks": 80,
          "midi": 55,
          "name": "G3",
          "ticks": 106752,
          "time": 139,
          "velocity": 0.7874015748031497
        },
        {
          "duration": 0.11979166666665719,
          "durationTicks": 92,
          "midi": 62,
          "name": "D4",
          "ticks": 106752,
          "time": 139,
          "velocity": 0.8031496062992126
        },
        {
          "duration": 0.11979166666665719,
          "durationTicks": 92,
          "midi": 59,
          "name": "B3",
          "ticks": 106752,
          "time": 139,
          "velocity": 0.84251968503937
        },
        {
          "duration": 0.11197916666665719,
          "durationTicks": 86,
          "midi": 43,
          "name": "G2",
          "ticks": 106752,
          "time": 139,
          "velocity": 0.8031496062992126
        },
        {
          "duration": 0.10416666666665719,
          "durationTicks": 80,
          "midi": 55,
          "name": "G3",
          "ticks": 106944,
          "time": 139.25,
          "velocity": 0.8031496062992126
        },
        {
          "duration": 0.11458333333334281,
          "durationTicks": 88,
          "midi": 59,
          "name": "B3",
          "ticks": 106944,
          "time": 139.25,
          "velocity": 0.8661417322834646
        },
        {
          "duration": 0.125,
          "durationTicks": 96,
          "midi": 62,
          "name": "D4",
          "ticks": 106944,
          "time": 139.25,
          "velocity": 0.84251968503937
        },
        {
          "duration": 0.1015625,
          "durationTicks": 78,
          "midi": 43,
          "name": "G2",
          "ticks": 106944,
          "time": 139.25,
          "velocity": 0.8267716535433071
        },
        {
          "duration": 0.08333333333334281,
          "durationTicks": 64,
          "midi": 55,
          "name": "G3",
          "ticks": 107136,
          "time": 139.5,
          "velocity": 0.84251968503937
        },
        {
          "duration": 0.09635416666665719,
          "durationTicks": 74,
          "midi": 59,
          "name": "B3",
          "ticks": 107136,
          "time": 139.5,
          "velocity": 0.889763779527559
        },
        {
          "duration": 0.11458333333334281,
          "durationTicks": 88,
          "midi": 62,
          "name": "D4",
          "ticks": 107136,
          "time": 139.5,
          "velocity": 0.84251968503937
        },
        {
          "duration": 0.11458333333334281,
          "durationTicks": 88,
          "midi": 43,
          "name": "G2",
          "ticks": 107136,
          "time": 139.5,
          "velocity": 0.84251968503937
        },
        {
          "duration": 0.10416666666665719,
          "durationTicks": 80,
          "midi": 55,
          "name": "G3",
          "ticks": 107328,
          "time": 139.75,
          "velocity": 0.8661417322834646
        },
        {
          "duration": 0.125,
          "durationTicks": 96,
          "midi": 62,
          "name": "D4",
          "ticks": 107328,
          "time": 139.75,
          "velocity": 0.8661417322834646
        },
        {
          "duration": 0.10677083333334281,
          "durationTicks": 82,
          "midi": 59,
          "name": "B3",
          "ticks": 107328,
          "time": 139.75,
          "velocity": 0.84251968503937
        },
        {
          "duration": 0.1276041666666572,
          "durationTicks": 98,
          "midi": 43,
          "name": "G2",
          "ticks": 107328,
          "time": 139.75,
          "velocity": 0.8267716535433071
        },
        {
          "duration": 1.0807291666666572,
          "durationTicks": 830,
          "midi": 55,
          "name": "G3",
          "ticks": 107520,
          "time": 140,
          "velocity": 0.889763779527559
        },
        {
          "duration": 1.0833333333333428,
          "durationTicks": 832,
          "midi": 52,
          "name": "E3",
          "ticks": 107520,
          "time": 140,
          "velocity": 0.8661417322834646
        },
        {
          "duration": 1.09375,
          "durationTicks": 840,
          "midi": 48,
          "name": "C3",
          "ticks": 107520,
          "time": 140,
          "velocity": 0.889763779527559
        },
        {
          "duration": 0.1171875,
          "durationTicks": 90,
          "midi": 48,
          "name": "C3",
          "ticks": 108480,
          "time": 141.25,
          "velocity": 0.8661417322834646
        },
        {
          "duration": 0.10677083333334281,
          "durationTicks": 82,
          "midi": 52,
          "name": "E3",
          "ticks": 108480,
          "time": 141.25,
          "velocity": 0.8267716535433071
        },
        {
          "duration": 0.1015625,
          "durationTicks": 78,
          "midi": 60,
          "name": "C4",
          "ticks": 108480,
          "time": 141.25,
          "velocity": 0.9133858267716536
        },
        {
          "duration": 0.11458333333334281,
          "durationTicks": 88,
          "midi": 55,
          "name": "G3",
          "ticks": 108480,
          "time": 141.25,
          "velocity": 0.889763779527559
        },
        {
          "duration": 1.1119791666666572,
          "durationTicks": 854,
          "midi": 54,
          "name": "F#3",
          "ticks": 109056,
          "time": 142,
          "velocity": 0.7716535433070866
        },
        {
          "duration": 1.1328125,
          "durationTicks": 870,
          "midi": 57,
          "name": "A3",
          "ticks": 109056,
          "time": 142,
          "velocity": 0.8031496062992126
        },
        {
          "duration": 1.125,
          "durationTicks": 864,
          "midi": 62,
          "name": "D4",
          "ticks": 109056,
          "time": 142,
          "velocity": 0.8267716535433071
        },
        {
          "duration": 0.1380208333333428,
          "durationTicks": 106,
          "midi": 62,
          "name": "D4",
          "ticks": 110016,
          "time": 143.25,
          "velocity": 0.84251968503937
        },
        {
          "duration": 0.15625,
          "durationTicks": 120,
          "midi": 57,
          "name": "A3",
          "ticks": 110016,
          "time": 143.25,
          "velocity": 0.8661417322834646
        },
        {
          "duration": 0.1614583333333428,
          "durationTicks": 124,
          "midi": 54,
          "name": "F#3",
          "ticks": 110016,
          "time": 143.25,
          "velocity": 0.8267716535433071
        },
        {
          "duration": 0.09635416666665719,
          "durationTicks": 74,
          "midi": 50,
          "name": "D3",
          "ticks": 110016,
          "time": 143.25,
          "velocity": 0.889763779527559
        },
        {
          "duration": 0.10416666666665719,
          "durationTicks": 80,
          "midi": 57,
          "name": "A3",
          "ticks": 110400,
          "time": 143.75,
          "velocity": 0.7480314960629921
        },
        {
          "duration": 0.1432291666666572,
          "durationTicks": 110,
          "midi": 54,
          "name": "F#3",
          "ticks": 110400,
          "time": 143.75,
          "velocity": 0.7165354330708661
        },
        {
          "duration": 0.1328125,
          "durationTicks": 102,
          "midi": 62,
          "name": "D4",
          "ticks": 110400,
          "time": 143.75,
          "velocity": 0.7716535433070866
        },
        {
          "duration": 1.2604166666666572,
          "durationTicks": 968,
          "midi": 48,
          "name": "C3",
          "ticks": 110592,
          "time": 144,
          "velocity": 0.6850393700787402
        },
        {
          "duration": 1.1328125,
          "durationTicks": 870,
          "midi": 60,
          "name": "C4",
          "ticks": 110592,
          "time": 144,
          "velocity": 0.7874015748031497
        },
        {
          "duration": 1.265625,
          "durationTicks": 972,
          "midi": 41,
          "name": "F2",
          "ticks": 110592,
          "time": 144,
          "velocity": 0.6850393700787402
        },
        {
          "duration": 1.1458333333333428,
          "durationTicks": 880,
          "midi": 57,
          "name": "A3",
          "ticks": 110592,
          "time": 144,
          "velocity": 0.7007874015748031
        },
        {
          "duration": 1.1354166666666572,
          "durationTicks": 872,
          "midi": 53,
          "name": "F3",
          "ticks": 110592,
          "time": 144,
          "velocity": 0.6692913385826772
        },
        {
          "duration": 0.10416666666665719,
          "durationTicks": 80,
          "midi": 60,
          "name": "C4",
          "ticks": 111552,
          "time": 145.25,
          "velocity": 0.8031496062992126
        },
        {
          "duration": 0.10416666666665719,
          "durationTicks": 80,
          "midi": 57,
          "name": "A3",
          "ticks": 111552,
          "time": 145.25,
          "velocity": 0.8031496062992126
        },
        {
          "duration": 0.10677083333334281,
          "durationTicks": 82,
          "midi": 53,
          "name": "F3",
          "ticks": 111552,
          "time": 145.25,
          "velocity": 0.7716535433070866
        },
        {
          "duration": 0.11458333333334281,
          "durationTicks": 88,
          "midi": 41,
          "name": "F2",
          "ticks": 111648,
          "time": 145.375,
          "velocity": 0.8031496062992126
        },
        {
          "duration": 0.11197916666665719,
          "durationTicks": 86,
          "midi": 48,
          "name": "C3",
          "ticks": 111648,
          "time": 145.375,
          "velocity": 0.8267716535433071
        },
        {
          "duration": 0.1640625,
          "durationTicks": 126,
          "midi": 57,
          "name": "A3",
          "ticks": 111744,
          "time": 145.5,
          "velocity": 0.8031496062992126
        },
        {
          "duration": 0.1588541666666572,
          "durationTicks": 122,
          "midi": 53,
          "name": "F3",
          "ticks": 111744,
          "time": 145.5,
          "velocity": 0.7480314960629921
        },
        {
          "duration": 0.15625,
          "durationTicks": 120,
          "midi": 60,
          "name": "C4",
          "ticks": 111744,
          "time": 145.5,
          "velocity": 0.8267716535433071
        },
        {
          "duration": 0.11197916666665719,
          "durationTicks": 86,
          "midi": 53,
          "name": "F3",
          "ticks": 111936,
          "time": 145.75,
          "velocity": 0.7716535433070866
        },
        {
          "duration": 0.12239583333334281,
          "durationTicks": 94,
          "midi": 60,
          "name": "C4",
          "ticks": 111936,
          "time": 145.75,
          "velocity": 0.7874015748031497
        },
        {
          "duration": 0.11458333333334281,
          "durationTicks": 88,
          "midi": 57,
          "name": "A3",
          "ticks": 111936,
          "time": 145.75,
          "velocity": 0.8267716535433071
        },
        {
          "duration": 1.125,
          "durationTicks": 864,
          "midi": 60,
          "name": "C4",
          "ticks": 112128,
          "time": 146,
          "velocity": 0.8031496062992126
        },
        {
          "duration": 1.0963541666666572,
          "durationTicks": 842,
          "midi": 53,
          "name": "F3",
          "ticks": 112128,
          "time": 146,
          "velocity": 0.8031496062992126
        },
        {
          "duration": 1.125,
          "durationTicks": 864,
          "midi": 57,
          "name": "A3",
          "ticks": 112128,
          "time": 146,
          "velocity": 0.8267716535433071
        },
        {
          "duration": 1.1354166666666572,
          "durationTicks": 872,
          "midi": 43,
          "name": "G2",
          "ticks": 112128,
          "time": 146,
          "velocity": 0.7874015748031497
        },
        {
          "duration": 0.08854166666665719,
          "durationTicks": 68,
          "midi": 43,
          "name": "G2",
          "ticks": 113088,
          "time": 147.25,
          "velocity": 0.8267716535433071
        },
        {
          "duration": 0.07552083333334281,
          "durationTicks": 58,
          "midi": 62,
          "name": "D4",
          "ticks": 113088,
          "time": 147.25,
          "velocity": 0.7874015748031497
        },
        {
          "duration": 0.07291666666665719,
          "durationTicks": 56,
          "midi": 55,
          "name": "G3",
          "ticks": 113088,
          "time": 147.25,
          "velocity": 0.7480314960629921
        },
        {
          "duration": 0.06770833333334281,
          "durationTicks": 52,
          "midi": 59,
          "name": "B3",
          "ticks": 113088,
          "time": 147.25,
          "velocity": 0.84251968503937
        },
        {
          "duration": 0.078125,
          "durationTicks": 60,
          "midi": 43,
          "name": "G2",
          "ticks": 113472,
          "time": 147.75,
          "velocity": 0.8661417322834646
        },
        {
          "duration": 0.0703125,
          "durationTicks": 54,
          "midi": 55,
          "name": "G3",
          "ticks": 113472,
          "time": 147.75,
          "velocity": 0.7874015748031497
        },
        {
          "duration": 0.09114583333334281,
          "durationTicks": 70,
          "midi": 62,
          "name": "D4",
          "ticks": 113472,
          "time": 147.75,
          "velocity": 0.84251968503937
        },
        {
          "duration": 0.07291666666665719,
          "durationTicks": 56,
          "midi": 59,
          "name": "B3",
          "ticks": 113472,
          "time": 147.75,
          "velocity": 0.8661417322834646
        },
        {
          "duration": 1.0807291666666572,
          "durationTicks": 830,
          "midi": 55,
          "name": "G3",
          "ticks": 113664,
          "time": 148,
          "velocity": 0.889763779527559
        },
        {
          "duration": 1.0833333333333428,
          "durationTicks": 832,
          "midi": 52,
          "name": "E3",
          "ticks": 113664,
          "time": 148,
          "velocity": 0.8661417322834646
        },
        {
          "duration": 1.09375,
          "durationTicks": 840,
          "midi": 48,
          "name": "C3",
          "ticks": 113664,
          "time": 148,
          "velocity": 0.889763779527559
        },
        {
          "duration": 0.1171875,
          "durationTicks": 90,
          "midi": 48,
          "name": "C3",
          "ticks": 114624,
          "time": 149.25,
          "velocity": 0.8661417322834646
        },
        {
          "duration": 0.10677083333334281,
          "durationTicks": 82,
          "midi": 52,
          "name": "E3",
          "ticks": 114624,
          "time": 149.25,
          "velocity": 0.8267716535433071
        },
        {
          "duration": 0.1015625,
          "durationTicks": 78,
          "midi": 60,
          "name": "C4",
          "ticks": 114624,
          "time": 149.25,
          "velocity": 0.9133858267716536
        },
        {
          "duration": 0.11458333333334281,
          "durationTicks": 88,
          "midi": 55,
          "name": "G3",
          "ticks": 114624,
          "time": 149.25,
          "velocity": 0.889763779527559
        },
        {
          "duration": 1.1119791666666572,
          "durationTicks": 854,
          "midi": 54,
          "name": "F#3",
          "ticks": 115200,
          "time": 150,
          "velocity": 0.7716535433070866
        },
        {
          "duration": 1.1328125,
          "durationTicks": 870,
          "midi": 57,
          "name": "A3",
          "ticks": 115200,
          "time": 150,
          "velocity": 0.8031496062992126
        },
        {
          "duration": 1.125,
          "durationTicks": 864,
          "midi": 62,
          "name": "D4",
          "ticks": 115200,
          "time": 150,
          "velocity": 0.8267716535433071
        },
        {
          "duration": 0.1380208333333428,
          "durationTicks": 106,
          "midi": 62,
          "name": "D4",
          "ticks": 116160,
          "time": 151.25,
          "velocity": 0.84251968503937
        },
        {
          "duration": 0.15625,
          "durationTicks": 120,
          "midi": 57,
          "name": "A3",
          "ticks": 116160,
          "time": 151.25,
          "velocity": 0.8661417322834646
        },
        {
          "duration": 0.1614583333333428,
          "durationTicks": 124,
          "midi": 54,
          "name": "F#3",
          "ticks": 116160,
          "time": 151.25,
          "velocity": 0.8267716535433071
        },
        {
          "duration": 0.09635416666665719,
          "durationTicks": 74,
          "midi": 50,
          "name": "D3",
          "ticks": 116160,
          "time": 151.25,
          "velocity": 0.889763779527559
        },
        {
          "duration": 0.10416666666665719,
          "durationTicks": 80,
          "midi": 57,
          "name": "A3",
          "ticks": 116544,
          "time": 151.75,
          "velocity": 0.7480314960629921
        },
        {
          "duration": 0.1432291666666572,
          "durationTicks": 110,
          "midi": 54,
          "name": "F#3",
          "ticks": 116544,
          "time": 151.75,
          "velocity": 0.7165354330708661
        },
        {
          "duration": 0.1328125,
          "durationTicks": 102,
          "midi": 62,
          "name": "D4",
          "ticks": 116544,
          "time": 151.75,
          "velocity": 0.7716535433070866
        },
        {
          "duration": 1.2604166666666572,
          "durationTicks": 968,
          "midi": 48,
          "name": "C3",
          "ticks": 116736,
          "time": 152,
          "velocity": 0.6850393700787402
        },
        {
          "duration": 1.1328125,
          "durationTicks": 870,
          "midi": 60,
          "name": "C4",
          "ticks": 116736,
          "time": 152,
          "velocity": 0.7874015748031497
        },
        {
          "duration": 1.265625,
          "durationTicks": 972,
          "midi": 41,
          "name": "F2",
          "ticks": 116736,
          "time": 152,
          "velocity": 0.6850393700787402
        },
        {
          "duration": 1.1458333333333428,
          "durationTicks": 880,
          "midi": 57,
          "name": "A3",
          "ticks": 116736,
          "time": 152,
          "velocity": 0.7007874015748031
        },
        {
          "duration": 1.1354166666666572,
          "durationTicks": 872,
          "midi": 53,
          "name": "F3",
          "ticks": 116736,
          "time": 152,
          "velocity": 0.6692913385826772
        },
        {
          "duration": 0.10416666666665719,
          "durationTicks": 80,
          "midi": 60,
          "name": "C4",
          "ticks": 117696,
          "time": 153.25,
          "velocity": 0.8031496062992126
        },
        {
          "duration": 0.10416666666665719,
          "durationTicks": 80,
          "midi": 57,
          "name": "A3",
          "ticks": 117696,
          "time": 153.25,
          "velocity": 0.8031496062992126
        },
        {
          "duration": 0.10677083333334281,
          "durationTicks": 82,
          "midi": 53,
          "name": "F3",
          "ticks": 117696,
          "time": 153.25,
          "velocity": 0.7716535433070866
        },
        {
          "duration": 0.11458333333334281,
          "durationTicks": 88,
          "midi": 41,
          "name": "F2",
          "ticks": 117792,
          "time": 153.375,
          "velocity": 0.8031496062992126
        },
        {
          "duration": 0.11197916666665719,
          "durationTicks": 86,
          "midi": 48,
          "name": "C3",
          "ticks": 117792,
          "time": 153.375,
          "velocity": 0.8267716535433071
        },
        {
          "duration": 0.1640625,
          "durationTicks": 126,
          "midi": 57,
          "name": "A3",
          "ticks": 117888,
          "time": 153.5,
          "velocity": 0.8031496062992126
        },
        {
          "duration": 0.1588541666666572,
          "durationTicks": 122,
          "midi": 53,
          "name": "F3",
          "ticks": 117888,
          "time": 153.5,
          "velocity": 0.7480314960629921
        },
        {
          "duration": 0.15625,
          "durationTicks": 120,
          "midi": 60,
          "name": "C4",
          "ticks": 117888,
          "time": 153.5,
          "velocity": 0.8267716535433071
        },
        {
          "duration": 0.11197916666665719,
          "durationTicks": 86,
          "midi": 53,
          "name": "F3",
          "ticks": 118080,
          "time": 153.75,
          "velocity": 0.7716535433070866
        },
        {
          "duration": 0.12239583333334281,
          "durationTicks": 94,
          "midi": 60,
          "name": "C4",
          "ticks": 118080,
          "time": 153.75,
          "velocity": 0.7874015748031497
        },
        {
          "duration": 0.11458333333334281,
          "durationTicks": 88,
          "midi": 57,
          "name": "A3",
          "ticks": 118080,
          "time": 153.75,
          "velocity": 0.8267716535433071
        },
        {
          "duration": 1.125,
          "durationTicks": 864,
          "midi": 60,
          "name": "C4",
          "ticks": 118272,
          "time": 154,
          "velocity": 0.8031496062992126
        },
        {
          "duration": 1.0963541666666572,
          "durationTicks": 842,
          "midi": 53,
          "name": "F3",
          "ticks": 118272,
          "time": 154,
          "velocity": 0.8031496062992126
        },
        {
          "duration": 1.125,
          "durationTicks": 864,
          "midi": 57,
          "name": "A3",
          "ticks": 118272,
          "time": 154,
          "velocity": 0.8267716535433071
        },
        {
          "duration": 1.1354166666666572,
          "durationTicks": 872,
          "midi": 43,
          "name": "G2",
          "ticks": 118272,
          "time": 154,
          "velocity": 0.7874015748031497
        },
        {
          "duration": 0.08854166666665719,
          "durationTicks": 68,
          "midi": 43,
          "name": "G2",
          "ticks": 119232,
          "time": 155.25,
          "velocity": 0.8267716535433071
        },
        {
          "duration": 0.07552083333334281,
          "durationTicks": 58,
          "midi": 62,
          "name": "D4",
          "ticks": 119232,
          "time": 155.25,
          "velocity": 0.7874015748031497
        },
        {
          "duration": 0.07291666666665719,
          "durationTicks": 56,
          "midi": 55,
          "name": "G3",
          "ticks": 119232,
          "time": 155.25,
          "velocity": 0.7480314960629921
        },
        {
          "duration": 0.06770833333334281,
          "durationTicks": 52,
          "midi": 59,
          "name": "B3",
          "ticks": 119232,
          "time": 155.25,
          "velocity": 0.84251968503937
        },
        {
          "duration": 0.078125,
          "durationTicks": 60,
          "midi": 43,
          "name": "G2",
          "ticks": 119616,
          "time": 155.75,
          "velocity": 0.8661417322834646
        },
        {
          "duration": 0.0703125,
          "durationTicks": 54,
          "midi": 55,
          "name": "G3",
          "ticks": 119616,
          "time": 155.75,
          "velocity": 0.7874015748031497
        },
        {
          "duration": 0.09114583333334281,
          "durationTicks": 70,
          "midi": 62,
          "name": "D4",
          "ticks": 119616,
          "time": 155.75,
          "velocity": 0.84251968503937
        },
        {
          "duration": 0.07291666666665719,
          "durationTicks": 56,
          "midi": 59,
          "name": "B3",
          "ticks": 119616,
          "time": 155.75,
          "velocity": 0.8661417322834646
        },
        {
          "duration": 1.0807291666666572,
          "durationTicks": 830,
          "midi": 55,
          "name": "G3",
          "ticks": 119808,
          "time": 156,
          "velocity": 0.889763779527559
        },
        {
          "duration": 1.0833333333333428,
          "durationTicks": 832,
          "midi": 52,
          "name": "E3",
          "ticks": 119808,
          "time": 156,
          "velocity": 0.8661417322834646
        },
        {
          "duration": 1.09375,
          "durationTicks": 840,
          "midi": 48,
          "name": "C3",
          "ticks": 119808,
          "time": 156,
          "velocity": 0.889763779527559
        },
        {
          "duration": 0.1171875,
          "durationTicks": 90,
          "midi": 48,
          "name": "C3",
          "ticks": 120768,
          "time": 157.25,
          "velocity": 0.8661417322834646
        },
        {
          "duration": 0.10677083333334281,
          "durationTicks": 82,
          "midi": 52,
          "name": "E3",
          "ticks": 120768,
          "time": 157.25,
          "velocity": 0.8267716535433071
        },
        {
          "duration": 0.1015625,
          "durationTicks": 78,
          "midi": 60,
          "name": "C4",
          "ticks": 120768,
          "time": 157.25,
          "velocity": 0.9133858267716536
        },
        {
          "duration": 0.11458333333334281,
          "durationTicks": 88,
          "midi": 55,
          "name": "G3",
          "ticks": 120768,
          "time": 157.25,
          "velocity": 0.889763779527559
        },
        {
          "duration": 1.1119791666666572,
          "durationTicks": 854,
          "midi": 54,
          "name": "F#3",
          "ticks": 121344,
          "time": 158,
          "velocity": 0.7716535433070866
        },
        {
          "duration": 1.1328125,
          "durationTicks": 870,
          "midi": 57,
          "name": "A3",
          "ticks": 121344,
          "time": 158,
          "velocity": 0.8031496062992126
        },
        {
          "duration": 1.125,
          "durationTicks": 864,
          "midi": 62,
          "name": "D4",
          "ticks": 121344,
          "time": 158,
          "velocity": 0.8267716535433071
        },
        {
          "duration": 0.1380208333333428,
          "durationTicks": 106,
          "midi": 62,
          "name": "D4",
          "ticks": 122304,
          "time": 159.25,
          "velocity": 0.84251968503937
        },
        {
          "duration": 0.15625,
          "durationTicks": 120,
          "midi": 57,
          "name": "A3",
          "ticks": 122304,
          "time": 159.25,
          "velocity": 0.8661417322834646
        },
        {
          "duration": 0.1614583333333428,
          "durationTicks": 124,
          "midi": 54,
          "name": "F#3",
          "ticks": 122304,
          "time": 159.25,
          "velocity": 0.8267716535433071
        },
        {
          "duration": 0.09635416666665719,
          "durationTicks": 74,
          "midi": 50,
          "name": "D3",
          "ticks": 122304,
          "time": 159.25,
          "velocity": 0.889763779527559
        },
        {
          "duration": 0.10416666666665719,
          "durationTicks": 80,
          "midi": 57,
          "name": "A3",
          "ticks": 122688,
          "time": 159.75,
          "velocity": 0.7480314960629921
        },
        {
          "duration": 0.1432291666666572,
          "durationTicks": 110,
          "midi": 54,
          "name": "F#3",
          "ticks": 122688,
          "time": 159.75,
          "velocity": 0.7165354330708661
        },
        {
          "duration": 0.1328125,
          "durationTicks": 102,
          "midi": 62,
          "name": "D4",
          "ticks": 122688,
          "time": 159.75,
          "velocity": 0.7716535433070866
        },
        {
          "duration": 1.2604166666666572,
          "durationTicks": 968,
          "midi": 48,
          "name": "C3",
          "ticks": 122880,
          "time": 160,
          "velocity": 0.6850393700787402
        },
        {
          "duration": 1.1328125,
          "durationTicks": 870,
          "midi": 60,
          "name": "C4",
          "ticks": 122880,
          "time": 160,
          "velocity": 0.7874015748031497
        },
        {
          "duration": 1.265625,
          "durationTicks": 972,
          "midi": 41,
          "name": "F2",
          "ticks": 122880,
          "time": 160,
          "velocity": 0.6850393700787402
        },
        {
          "duration": 1.1458333333333428,
          "durationTicks": 880,
          "midi": 57,
          "name": "A3",
          "ticks": 122880,
          "time": 160,
          "velocity": 0.7007874015748031
        },
        {
          "duration": 1.1354166666666572,
          "durationTicks": 872,
          "midi": 53,
          "name": "F3",
          "ticks": 122880,
          "time": 160,
          "velocity": 0.6692913385826772
        },
        {
          "duration": 0.10416666666665719,
          "durationTicks": 80,
          "midi": 60,
          "name": "C4",
          "ticks": 123840,
          "time": 161.25,
          "velocity": 0.8031496062992126
        },
        {
          "duration": 0.10416666666665719,
          "durationTicks": 80,
          "midi": 57,
          "name": "A3",
          "ticks": 123840,
          "time": 161.25,
          "velocity": 0.8031496062992126
        },
        {
          "duration": 0.10677083333334281,
          "durationTicks": 82,
          "midi": 53,
          "name": "F3",
          "ticks": 123840,
          "time": 161.25,
          "velocity": 0.7716535433070866
        },
        {
          "duration": 0.11458333333334281,
          "durationTicks": 88,
          "midi": 41,
          "name": "F2",
          "ticks": 123936,
          "time": 161.375,
          "velocity": 0.8031496062992126
        },
        {
          "duration": 0.11197916666665719,
          "durationTicks": 86,
          "midi": 48,
          "name": "C3",
          "ticks": 123936,
          "time": 161.375,
          "velocity": 0.8267716535433071
        },
        {
          "duration": 0.1640625,
          "durationTicks": 126,
          "midi": 57,
          "name": "A3",
          "ticks": 124032,
          "time": 161.5,
          "velocity": 0.8031496062992126
        },
        {
          "duration": 0.1588541666666572,
          "durationTicks": 122,
          "midi": 53,
          "name": "F3",
          "ticks": 124032,
          "time": 161.5,
          "velocity": 0.7480314960629921
        },
        {
          "duration": 0.15625,
          "durationTicks": 120,
          "midi": 60,
          "name": "C4",
          "ticks": 124032,
          "time": 161.5,
          "velocity": 0.8267716535433071
        },
        {
          "duration": 0.11197916666665719,
          "durationTicks": 86,
          "midi": 53,
          "name": "F3",
          "ticks": 124224,
          "time": 161.75,
          "velocity": 0.7716535433070866
        },
        {
          "duration": 0.12239583333334281,
          "durationTicks": 94,
          "midi": 60,
          "name": "C4",
          "ticks": 124224,
          "time": 161.75,
          "velocity": 0.7874015748031497
        },
        {
          "duration": 0.11458333333334281,
          "durationTicks": 88,
          "midi": 57,
          "name": "A3",
          "ticks": 124224,
          "time": 161.75,
          "velocity": 0.8267716535433071
        },
        {
          "duration": 1.125,
          "durationTicks": 864,
          "midi": 60,
          "name": "C4",
          "ticks": 124416,
          "time": 162,
          "velocity": 0.8031496062992126
        },
        {
          "duration": 1.0963541666666572,
          "durationTicks": 842,
          "midi": 53,
          "name": "F3",
          "ticks": 124416,
          "time": 162,
          "velocity": 0.8031496062992126
        },
        {
          "duration": 1.125,
          "durationTicks": 864,
          "midi": 57,
          "name": "A3",
          "ticks": 124416,
          "time": 162,
          "velocity": 0.8267716535433071
        },
        {
          "duration": 1.1354166666666572,
          "durationTicks": 872,
          "midi": 43,
          "name": "G2",
          "ticks": 124416,
          "time": 162,
          "velocity": 0.7874015748031497
        },
        {
          "duration": 0.08854166666665719,
          "durationTicks": 68,
          "midi": 43,
          "name": "G2",
          "ticks": 125376,
          "time": 163.25,
          "velocity": 0.8267716535433071
        },
        {
          "duration": 0.07552083333334281,
          "durationTicks": 58,
          "midi": 62,
          "name": "D4",
          "ticks": 125376,
          "time": 163.25,
          "velocity": 0.7874015748031497
        },
        {
          "duration": 0.07291666666665719,
          "durationTicks": 56,
          "midi": 55,
          "name": "G3",
          "ticks": 125376,
          "time": 163.25,
          "velocity": 0.7480314960629921
        },
        {
          "duration": 0.06770833333334281,
          "durationTicks": 52,
          "midi": 59,
          "name": "B3",
          "ticks": 125376,
          "time": 163.25,
          "velocity": 0.84251968503937
        },
        {
          "duration": 0.078125,
          "durationTicks": 60,
          "midi": 43,
          "name": "G2",
          "ticks": 125760,
          "time": 163.75,
          "velocity": 0.8661417322834646
        },
        {
          "duration": 0.0703125,
          "durationTicks": 54,
          "midi": 55,
          "name": "G3",
          "ticks": 125760,
          "time": 163.75,
          "velocity": 0.7874015748031497
        },
        {
          "duration": 0.09114583333334281,
          "durationTicks": 70,
          "midi": 62,
          "name": "D4",
          "ticks": 125760,
          "time": 163.75,
          "velocity": 0.84251968503937
        },
        {
          "duration": 0.07291666666665719,
          "durationTicks": 56,
          "midi": 59,
          "name": "B3",
          "ticks": 125760,
          "time": 163.75,
          "velocity": 0.8661417322834646
        },
        {
          "duration": 1.0807291666666572,
          "durationTicks": 830,
          "midi": 55,
          "name": "G3",
          "ticks": 125952,
          "time": 164,
          "velocity": 0.889763779527559
        },
        {
          "duration": 1.0833333333333428,
          "durationTicks": 832,
          "midi": 52,
          "name": "E3",
          "ticks": 125952,
          "time": 164,
          "velocity": 0.8661417322834646
        },
        {
          "duration": 1.09375,
          "durationTicks": 840,
          "midi": 48,
          "name": "C3",
          "ticks": 125952,
          "time": 164,
          "velocity": 0.889763779527559
        },
        {
          "duration": 0.1171875,
          "durationTicks": 90,
          "midi": 48,
          "name": "C3",
          "ticks": 126912,
          "time": 165.25,
          "velocity": 0.8661417322834646
        },
        {
          "duration": 0.10677083333334281,
          "durationTicks": 82,
          "midi": 52,
          "name": "E3",
          "ticks": 126912,
          "time": 165.25,
          "velocity": 0.8267716535433071
        },
        {
          "duration": 0.1015625,
          "durationTicks": 78,
          "midi": 60,
          "name": "C4",
          "ticks": 126912,
          "time": 165.25,
          "velocity": 0.9133858267716536
        },
        {
          "duration": 0.11458333333334281,
          "durationTicks": 88,
          "midi": 55,
          "name": "G3",
          "ticks": 126912,
          "time": 165.25,
          "velocity": 0.889763779527559
        },
        {
          "duration": 1.1119791666666572,
          "durationTicks": 854,
          "midi": 54,
          "name": "F#3",
          "ticks": 127488,
          "time": 166,
          "velocity": 0.7716535433070866
        },
        {
          "duration": 1.1328125,
          "durationTicks": 870,
          "midi": 57,
          "name": "A3",
          "ticks": 127488,
          "time": 166,
          "velocity": 0.8031496062992126
        },
        {
          "duration": 1.125,
          "durationTicks": 864,
          "midi": 62,
          "name": "D4",
          "ticks": 127488,
          "time": 166,
          "velocity": 0.8267716535433071
        },
        {
          "duration": 0.1380208333333428,
          "durationTicks": 106,
          "midi": 62,
          "name": "D4",
          "ticks": 128448,
          "time": 167.25,
          "velocity": 0.84251968503937
        },
        {
          "duration": 0.15625,
          "durationTicks": 120,
          "midi": 57,
          "name": "A3",
          "ticks": 128448,
          "time": 167.25,
          "velocity": 0.8661417322834646
        },
        {
          "duration": 0.1614583333333428,
          "durationTicks": 124,
          "midi": 54,
          "name": "F#3",
          "ticks": 128448,
          "time": 167.25,
          "velocity": 0.8267716535433071
        },
        {
          "duration": 0.09635416666665719,
          "durationTicks": 74,
          "midi": 50,
          "name": "D3",
          "ticks": 128448,
          "time": 167.25,
          "velocity": 0.889763779527559
        },
        {
          "duration": 0.10416666666665719,
          "durationTicks": 80,
          "midi": 57,
          "name": "A3",
          "ticks": 128832,
          "time": 167.75,
          "velocity": 0.7480314960629921
        },
        {
          "duration": 0.1432291666666572,
          "durationTicks": 110,
          "midi": 54,
          "name": "F#3",
          "ticks": 128832,
          "time": 167.75,
          "velocity": 0.7165354330708661
        },
        {
          "duration": 0.1328125,
          "durationTicks": 102,
          "midi": 62,
          "name": "D4",
          "ticks": 128832,
          "time": 167.75,
          "velocity": 0.7716535433070866
        },
        {
          "duration": 1.2604166666666572,
          "durationTicks": 968,
          "midi": 48,
          "name": "C3",
          "ticks": 129024,
          "time": 168,
          "velocity": 0.6850393700787402
        },
        {
          "duration": 1.1328125,
          "durationTicks": 870,
          "midi": 60,
          "name": "C4",
          "ticks": 129024,
          "time": 168,
          "velocity": 0.7874015748031497
        },
        {
          "duration": 1.265625,
          "durationTicks": 972,
          "midi": 41,
          "name": "F2",
          "ticks": 129024,
          "time": 168,
          "velocity": 0.6850393700787402
        },
        {
          "duration": 1.1458333333333428,
          "durationTicks": 880,
          "midi": 57,
          "name": "A3",
          "ticks": 129024,
          "time": 168,
          "velocity": 0.7007874015748031
        },
        {
          "duration": 1.1354166666666572,
          "durationTicks": 872,
          "midi": 53,
          "name": "F3",
          "ticks": 129024,
          "time": 168,
          "velocity": 0.6692913385826772
        },
        {
          "duration": 0.10416666666665719,
          "durationTicks": 80,
          "midi": 60,
          "name": "C4",
          "ticks": 129984,
          "time": 169.25,
          "velocity": 0.8031496062992126
        },
        {
          "duration": 0.10416666666665719,
          "durationTicks": 80,
          "midi": 57,
          "name": "A3",
          "ticks": 129984,
          "time": 169.25,
          "velocity": 0.8031496062992126
        },
        {
          "duration": 0.10677083333334281,
          "durationTicks": 82,
          "midi": 53,
          "name": "F3",
          "ticks": 129984,
          "time": 169.25,
          "velocity": 0.7716535433070866
        },
        {
          "duration": 0.11458333333334281,
          "durationTicks": 88,
          "midi": 41,
          "name": "F2",
          "ticks": 130080,
          "time": 169.375,
          "velocity": 0.8031496062992126
        },
        {
          "duration": 0.11197916666665719,
          "durationTicks": 86,
          "midi": 48,
          "name": "C3",
          "ticks": 130080,
          "time": 169.375,
          "velocity": 0.8267716535433071
        },
        {
          "duration": 0.1640625,
          "durationTicks": 126,
          "midi": 57,
          "name": "A3",
          "ticks": 130176,
          "time": 169.5,
          "velocity": 0.8031496062992126
        },
        {
          "duration": 0.1588541666666572,
          "durationTicks": 122,
          "midi": 53,
          "name": "F3",
          "ticks": 130176,
          "time": 169.5,
          "velocity": 0.7480314960629921
        },
        {
          "duration": 0.15625,
          "durationTicks": 120,
          "midi": 60,
          "name": "C4",
          "ticks": 130176,
          "time": 169.5,
          "velocity": 0.8267716535433071
        },
        {
          "duration": 0.11197916666665719,
          "durationTicks": 86,
          "midi": 53,
          "name": "F3",
          "ticks": 130368,
          "time": 169.75,
          "velocity": 0.7716535433070866
        },
        {
          "duration": 0.12239583333334281,
          "durationTicks": 94,
          "midi": 60,
          "name": "C4",
          "ticks": 130368,
          "time": 169.75,
          "velocity": 0.7874015748031497
        },
        {
          "duration": 0.11458333333334281,
          "durationTicks": 88,
          "midi": 57,
          "name": "A3",
          "ticks": 130368,
          "time": 169.75,
          "velocity": 0.8267716535433071
        },
        {
          "duration": 1.125,
          "durationTicks": 864,
          "midi": 60,
          "name": "C4",
          "ticks": 130560,
          "time": 170,
          "velocity": 0.8031496062992126
        },
        {
          "duration": 1.0963541666666572,
          "durationTicks": 842,
          "midi": 53,
          "name": "F3",
          "ticks": 130560,
          "time": 170,
          "velocity": 0.8031496062992126
        },
        {
          "duration": 1.125,
          "durationTicks": 864,
          "midi": 57,
          "name": "A3",
          "ticks": 130560,
          "time": 170,
          "velocity": 0.8267716535433071
        },
        {
          "duration": 1.1354166666666572,
          "durationTicks": 872,
          "midi": 43,
          "name": "G2",
          "ticks": 130560,
          "time": 170,
          "velocity": 0.7874015748031497
        },
        {
          "duration": 0.08854166666665719,
          "durationTicks": 68,
          "midi": 43,
          "name": "G2",
          "ticks": 131520,
          "time": 171.25,
          "velocity": 0.8267716535433071
        },
        {
          "duration": 0.07552083333334281,
          "durationTicks": 58,
          "midi": 62,
          "name": "D4",
          "ticks": 131520,
          "time": 171.25,
          "velocity": 0.7874015748031497
        },
        {
          "duration": 0.07291666666665719,
          "durationTicks": 56,
          "midi": 55,
          "name": "G3",
          "ticks": 131520,
          "time": 171.25,
          "velocity": 0.7480314960629921
        },
        {
          "duration": 0.06770833333334281,
          "durationTicks": 52,
          "midi": 59,
          "name": "B3",
          "ticks": 131520,
          "time": 171.25,
          "velocity": 0.84251968503937
        },
        {
          "duration": 0.078125,
          "durationTicks": 60,
          "midi": 43,
          "name": "G2",
          "ticks": 131904,
          "time": 171.75,
          "velocity": 0.8661417322834646
        },
        {
          "duration": 0.0703125,
          "durationTicks": 54,
          "midi": 55,
          "name": "G3",
          "ticks": 131904,
          "time": 171.75,
          "velocity": 0.7874015748031497
        },
        {
          "duration": 0.09114583333334281,
          "durationTicks": 70,
          "midi": 62,
          "name": "D4",
          "ticks": 131904,
          "time": 171.75,
          "velocity": 0.84251968503937
        },
        {
          "duration": 0.07291666666665719,
          "durationTicks": 56,
          "midi": 59,
          "name": "B3",
          "ticks": 131904,
          "time": 171.75,
          "velocity": 0.8661417322834646
        },
        {
          "duration": 4.153645833333343,
          "durationTicks": 3190,
          "midi": 60,
          "name": "C4",
          "ticks": 132096,
          "time": 172,
          "velocity": 0.7874015748031497
        },
        {
          "duration": 4.140625,
          "durationTicks": 3180,
          "midi": 55,
          "name": "G3",
          "ticks": 132096,
          "time": 172,
          "velocity": 0.7165354330708661
        },
        {
          "duration": 4.166666666666657,
          "durationTicks": 3200,
          "midi": 48,
          "name": "C3",
          "ticks": 132096,
          "time": 172,
          "velocity": 0.7716535433070866
        },
        {
          "duration": 4.177083333333343,
          "durationTicks": 3208,
          "midi": 64,
          "name": "E4",
          "ticks": 132096,
          "time": 172,
          "velocity": 0.7874015748031497
        },
        {
          "duration": 4.205729166666657,
          "durationTicks": 3230,
          "midi": 67,
          "name": "G4",
          "ticks": 132096,
          "time": 172,
          "velocity": 0.8031496062992126
        }
      ]
    },
    {
      "channel": 3,
      "controlChanges": {
        "7": [
          {
            "number": 7,
            "ticks": 1536,
            "time": 2,
            "value": 0.7401574803149606
          }
        ]
      },
      "pitchBends": [],
      "instrument": {
        "family": "brass",
        "number": 61,
        "name": "brass section"
      },
      "name": "BRASS 1",
      "notes": [
        {
          "duration": 0.06770833333333304,
          "durationTicks": 52,
          "midi": 72,
          "name": "C5",
          "ticks": 3072,
          "time": 4,
          "velocity": 0.8976377952755905
        },
        {
          "duration": 0.05729166666666696,
          "durationTicks": 44,
          "midi": 67,
          "name": "G4",
          "ticks": 3072,
          "time": 4,
          "velocity": 0.8976377952755905
        },
        {
          "duration": 0.09375,
          "durationTicks": 72,
          "midi": 76,
          "name": "E5",
          "ticks": 3072,
          "time": 4,
          "velocity": 0.8976377952755905
        },
        {
          "duration": 0.08854166666666696,
          "durationTicks": 68,
          "midi": 76,
          "name": "E5",
          "ticks": 4032,
          "time": 5.25,
          "velocity": 0.8976377952755905
        },
        {
          "duration": 0.0625,
          "durationTicks": 48,
          "midi": 67,
          "name": "G4",
          "ticks": 4032,
          "time": 5.25,
          "velocity": 0.8976377952755905
        },
        {
          "duration": 0.07291666666666696,
          "durationTicks": 56,
          "midi": 72,
          "name": "C5",
          "ticks": 4032,
          "time": 5.25,
          "velocity": 0.8976377952755905
        },
        {
          "duration": 0.1015625,
          "durationTicks": 78,
          "midi": 66,
          "name": "F#4",
          "ticks": 4608,
          "time": 6,
          "velocity": 0.8976377952755905
        },
        {
          "duration": 0.09635416666666696,
          "durationTicks": 74,
          "midi": 69,
          "name": "A4",
          "ticks": 4608,
          "time": 6,
          "velocity": 0.8976377952755905
        },
        {
          "duration": 0.10677083333333304,
          "durationTicks": 82,
          "midi": 74,
          "name": "D5",
          "ticks": 4608,
          "time": 6,
          "velocity": 0.8976377952755905
        },
        {
          "duration": 0.0859375,
          "durationTicks": 66,
          "midi": 66,
          "name": "F#4",
          "ticks": 5568,
          "time": 7.25,
          "velocity": 0.8976377952755905
        },
        {
          "duration": 0.109375,
          "durationTicks": 84,
          "midi": 74,
          "name": "D5",
          "ticks": 5568,
          "time": 7.25,
          "velocity": 0.8976377952755905
        },
        {
          "duration": 0.08072916666666696,
          "durationTicks": 62,
          "midi": 69,
          "name": "A4",
          "ticks": 5568,
          "time": 7.25,
          "velocity": 0.8976377952755905
        },
        {
          "duration": 0.09375,
          "durationTicks": 72,
          "midi": 74,
          "name": "D5",
          "ticks": 5952,
          "time": 7.75,
          "velocity": 0.8976377952755905
        },
        {
          "duration": 0.1015625,
          "durationTicks": 78,
          "midi": 69,
          "name": "A4",
          "ticks": 5952,
          "time": 7.75,
          "velocity": 0.8976377952755905
        },
        {
          "duration": 0.1171875,
          "durationTicks": 90,
          "midi": 66,
          "name": "F#4",
          "ticks": 5952,
          "time": 7.75,
          "velocity": 0.8976377952755905
        },
        {
          "duration": 0.10677083333333393,
          "durationTicks": 82,
          "midi": 72,
          "name": "C5",
          "ticks": 6144,
          "time": 8,
          "velocity": 0.8976377952755905
        },
        {
          "duration": 0.09375,
          "durationTicks": 72,
          "midi": 65,
          "name": "F4",
          "ticks": 6144,
          "time": 8,
          "velocity": 0.8976377952755905
        },
        {
          "duration": 0.1015625,
          "durationTicks": 78,
          "midi": 69,
          "name": "A4",
          "ticks": 6144,
          "time": 8,
          "velocity": 0.8976377952755905
        },
        {
          "duration": 0.0546875,
          "durationTicks": 42,
          "midi": 65,
          "name": "F4",
          "ticks": 7104,
          "time": 9.25,
          "velocity": 0.8976377952755905
        },
        {
          "duration": 0.07552083333333393,
          "durationTicks": 58,
          "midi": 72,
          "name": "C5",
          "ticks": 7104,
          "time": 9.25,
          "velocity": 0.8976377952755905
        },
        {
          "duration": 0.0859375,
          "durationTicks": 66,
          "midi": 69,
          "name": "A4",
          "ticks": 7104,
          "time": 9.25,
          "velocity": 0.8976377952755905
        },
        {
          "duration": 0.06510416666666607,
          "durationTicks": 50,
          "midi": 65,
          "name": "F4",
          "ticks": 7488,
          "time": 9.75,
          "velocity": 0.8976377952755905
        },
        {
          "duration": 0.059895833333333925,
          "durationTicks": 46,
          "midi": 69,
          "name": "A4",
          "ticks": 7488,
          "time": 9.75,
          "velocity": 0.8976377952755905
        },
        {
          "duration": 0.09114583333333393,
          "durationTicks": 70,
          "midi": 72,
          "name": "C5",
          "ticks": 7488,
          "time": 9.75,
          "velocity": 0.8976377952755905
        },
        {
          "duration": 0.052083333333333925,
          "durationTicks": 40,
          "midi": 65,
          "name": "F4",
          "ticks": 7680,
          "time": 10,
          "velocity": 0.8976377952755905
        },
        {
          "duration": 0.08333333333333393,
          "durationTicks": 64,
          "midi": 69,
          "name": "A4",
          "ticks": 7680,
          "time": 10,
          "velocity": 0.8976377952755905
        },
        {
          "duration": 0.10416666666666607,
          "durationTicks": 80,
          "midi": 72,
          "name": "C5",
          "ticks": 7680,
          "time": 10,
          "velocity": 0.8976377952755905
        },
        {
          "duration": 0.0703125,
          "durationTicks": 54,
          "midi": 65,
          "name": "F4",
          "ticks": 8256,
          "time": 10.75,
          "velocity": 0.8976377952755905
        },
        {
          "duration": 0.08854166666666607,
          "durationTicks": 68,
          "midi": 72,
          "name": "C5",
          "ticks": 8256,
          "time": 10.75,
          "velocity": 0.8976377952755905
        },
        {
          "duration": 0.07291666666666607,
          "durationTicks": 56,
          "midi": 69,
          "name": "A4",
          "ticks": 8256,
          "time": 10.75,
          "velocity": 0.8976377952755905
        },
        {
          "duration": 0.0625,
          "durationTicks": 48,
          "midi": 65,
          "name": "F4",
          "ticks": 8640,
          "time": 11.25,
          "velocity": 0.8976377952755905
        },
        {
          "duration": 0.078125,
          "durationTicks": 60,
          "midi": 72,
          "name": "C5",
          "ticks": 8640,
          "time": 11.25,
          "velocity": 0.8976377952755905
        },
        {
          "duration": 0.06510416666666607,
          "durationTicks": 50,
          "midi": 69,
          "name": "A4",
          "ticks": 8640,
          "time": 11.25,
          "velocity": 0.8976377952755905
        },
        {
          "duration": 0.0546875,
          "durationTicks": 42,
          "midi": 65,
          "name": "F4",
          "ticks": 9024,
          "time": 11.75,
          "velocity": 0.8976377952755905
        },
        {
          "duration": 0.0703125,
          "durationTicks": 54,
          "midi": 69,
          "name": "A4",
          "ticks": 9024,
          "time": 11.75,
          "velocity": 0.8976377952755905
        },
        {
          "duration": 0.08333333333333393,
          "durationTicks": 64,
          "midi": 72,
          "name": "C5",
          "ticks": 9024,
          "time": 11.75,
          "velocity": 0.8976377952755905
        },
        {
          "duration": 0.06510416666666607,
          "durationTicks": 50,
          "midi": 67,
          "name": "G4",
          "ticks": 9216,
          "time": 12,
          "velocity": 0.8976377952755905
        },
        {
          "duration": 0.078125,
          "durationTicks": 60,
          "midi": 72,
          "name": "C5",
          "ticks": 9216,
          "time": 12,
          "velocity": 0.8976377952755905
        },
        {
          "duration": 0.08333333333333393,
          "durationTicks": 64,
          "midi": 76,
          "name": "E5",
          "ticks": 9216,
          "time": 12,
          "velocity": 0.8976377952755905
        },
        {
          "duration": 0.2916666666666661,
          "durationTicks": 224,
          "midi": 67,
          "name": "G4",
          "ticks": 9312,
          "time": 12.125,
          "velocity": 0.8976377952755905
        },
        {
          "duration": 0.0859375,
          "durationTicks": 66,
          "midi": 72,
          "name": "C5",
          "ticks": 9312,
          "time": 12.125,
          "velocity": 0.8976377952755905
        },
        {
          "duration": 0.09635416666666607,
          "durationTicks": 74,
          "midi": 76,
          "name": "E5",
          "ticks": 9312,
          "time": 12.125,
          "velocity": 0.8976377952755905
        },
        {
          "duration": 0.23697916666666607,
          "durationTicks": 182,
          "midi": 67,
          "name": "G4",
          "ticks": 9600,
          "time": 12.5,
          "velocity": 0.8976377952755905
        },
        {
          "duration": 0.4088541666666661,
          "durationTicks": 314,
          "midi": 72,
          "name": "C5",
          "ticks": 9600,
          "time": 12.5,
          "velocity": 0.8976377952755905
        },
        {
          "duration": 0.4348958333333339,
          "durationTicks": 334,
          "midi": 76,
          "name": "E5",
          "ticks": 9600,
          "time": 12.5,
          "velocity": 0.8976377952755905
        },
        {
          "duration": 0.11979166666666607,
          "durationTicks": 92,
          "midi": 67,
          "name": "G4",
          "ticks": 9792,
          "time": 12.75,
          "velocity": 0.8976377952755905
        },
        {
          "duration": 0.24479166666666607,
          "durationTicks": 188,
          "midi": 72,
          "name": "C5",
          "ticks": 9984,
          "time": 13,
          "velocity": 0.8976377952755905
        },
        {
          "duration": 0.203125,
          "durationTicks": 156,
          "midi": 76,
          "name": "E5",
          "ticks": 9984,
          "time": 13,
          "velocity": 0.8976377952755905
        },
        {
          "duration": 0.1875,
          "durationTicks": 144,
          "midi": 79,
          "name": "G5",
          "ticks": 9984,
          "time": 13,
          "velocity": 0.8976377952755905
        },
        {
          "duration": 0.4270833333333339,
          "durationTicks": 328,
          "midi": 72,
          "name": "C5",
          "ticks": 11136,
          "time": 14.5,
          "velocity": 0.8976377952755905
        },
        {
          "duration": 0.4375,
          "durationTicks": 336,
          "midi": 76,
          "name": "E5",
          "ticks": 11136,
          "time": 14.5,
          "velocity": 0.8976377952755905
        },
        {
          "duration": 0.3515625,
          "durationTicks": 270,
          "midi": 81,
          "name": "A5",
          "ticks": 11136,
          "time": 14.5,
          "velocity": 0.8976377952755905
        },
        {
          "duration": 0.21875,
          "durationTicks": 168,
          "midi": 69,
          "name": "A4",
          "ticks": 11520,
          "time": 15,
          "velocity": 0.8976377952755905
        },
        {
          "duration": 0.2682291666666661,
          "durationTicks": 206,
          "midi": 72,
          "name": "C5",
          "ticks": 11520,
          "time": 15,
          "velocity": 0.8976377952755905
        },
        {
          "duration": 0.23177083333333393,
          "durationTicks": 178,
          "midi": 76,
          "name": "E5",
          "ticks": 11520,
          "time": 15,
          "velocity": 0.8976377952755905
        },
        {
          "duration": 0.16927083333333215,
          "durationTicks": 130,
          "midi": 69,
          "name": "A4",
          "ticks": 12672,
          "time": 16.5,
          "velocity": 0.8976377952755905
        },
        {
          "duration": 0.13541666666666785,
          "durationTicks": 104,
          "midi": 72,
          "name": "C5",
          "ticks": 12672,
          "time": 16.5,
          "velocity": 0.8976377952755905
        },
        {
          "duration": 0.13541666666666785,
          "durationTicks": 104,
          "midi": 76,
          "name": "E5",
          "ticks": 12672,
          "time": 16.5,
          "velocity": 0.8976377952755905
        },
        {
          "duration": 0.20052083333333215,
          "durationTicks": 154,
          "midi": 69,
          "name": "A4",
          "ticks": 12864,
          "time": 16.75,
          "velocity": 0.8976377952755905
        },
        {
          "duration": 0.1875,
          "durationTicks": 144,
          "midi": 72,
          "name": "C5",
          "ticks": 12864,
          "time": 16.75,
          "velocity": 0.8976377952755905
        },
        {
          "duration": 0.1953125,
          "durationTicks": 150,
          "midi": 76,
          "name": "E5",
          "ticks": 12864,
          "time": 16.75,
          "velocity": 0.8976377952755905
        },
        {
          "duration": 0.421875,
          "durationTicks": 324,
          "midi": 72,
          "name": "C5",
          "ticks": 13056,
          "time": 17,
          "velocity": 0.8976377952755905
        },
        {
          "duration": 0.46875,
          "durationTicks": 360,
          "midi": 76,
          "name": "E5",
          "ticks": 13056,
          "time": 17,
          "velocity": 0.8976377952755905
        },
        {
          "duration": 0.421875,
          "durationTicks": 324,
          "midi": 81,
          "name": "A5",
          "ticks": 13056,
          "time": 17,
          "velocity": 0.8976377952755905
        },
        {
          "duration": 0.234375,
          "durationTicks": 180,
          "midi": 69,
          "name": "A4",
          "ticks": 13440,
          "time": 17.5,
          "velocity": 0.8976377952755905
        },
        {
          "duration": 0.40625,
          "durationTicks": 312,
          "midi": 72,
          "name": "C5",
          "ticks": 13440,
          "time": 17.5,
          "velocity": 0.8976377952755905
        },
        {
          "duration": 0.2578125,
          "durationTicks": 198,
          "midi": 76,
          "name": "E5",
          "ticks": 13440,
          "time": 17.5,
          "velocity": 0.8976377952755905
        },
        {
          "duration": 0.375,
          "durationTicks": 288,
          "midi": 72,
          "name": "C5",
          "ticks": 14208,
          "time": 18.5,
          "velocity": 0.8976377952755905
        },
        {
          "duration": 0.44010416666666785,
          "durationTicks": 338,
          "midi": 76,
          "name": "E5",
          "ticks": 14208,
          "time": 18.5,
          "velocity": 0.8976377952755905
        },
        {
          "duration": 0.39583333333333215,
          "durationTicks": 304,
          "midi": 81,
          "name": "A5",
          "ticks": 14208,
          "time": 18.5,
          "velocity": 0.8976377952755905
        },
        {
          "duration": 0.19791666666666785,
          "durationTicks": 152,
          "midi": 69,
          "name": "A4",
          "ticks": 14592,
          "time": 19,
          "velocity": 0.8976377952755905
        },
        {
          "duration": 0.46614583333333215,
          "durationTicks": 358,
          "midi": 72,
          "name": "C5",
          "ticks": 14592,
          "time": 19,
          "velocity": 0.8976377952755905
        },
        {
          "duration": 0.27864583333333215,
          "durationTicks": 214,
          "midi": 76,
          "name": "E5",
          "ticks": 14592,
          "time": 19,
          "velocity": 0.8976377952755905
        },
        {
          "duration": 0.0625,
          "durationTicks": 48,
          "midi": 67,
          "name": "G4",
          "ticks": 15360,
          "time": 20,
          "velocity": 0.8976377952755905
        },
        {
          "duration": 0.08333333333333215,
          "durationTicks": 64,
          "midi": 72,
          "name": "C5",
          "ticks": 15360,
          "time": 20,
          "velocity": 0.8976377952755905
        },
        {
          "duration": 0.07291666666666785,
          "durationTicks": 56,
          "midi": 76,
          "name": "E5",
          "ticks": 15360,
          "time": 20,
          "velocity": 0.8976377952755905
        },
        {
          "duration": 0.27604166666666785,
          "durationTicks": 212,
          "midi": 67,
          "name": "G4",
          "ticks": 15456,
          "time": 20.125,
          "velocity": 0.8976377952755905
        },
        {
          "duration": 0.5130208333333321,
          "durationTicks": 394,
          "midi": 72,
          "name": "C5",
          "ticks": 15456,
          "time": 20.125,
          "velocity": 0.8976377952755905
        },
        {
          "duration": 0.35416666666666785,
          "durationTicks": 272,
          "midi": 76,
          "name": "E5",
          "ticks": 15456,
          "time": 20.125,
          "velocity": 0.8976377952755905
        },
        {
          "duration": 0.17708333333333215,
          "durationTicks": 136,
          "midi": 67,
          "name": "G4",
          "ticks": 15936,
          "time": 20.75,
          "velocity": 0.8976377952755905
        },
        {
          "duration": 0.22135416666666785,
          "durationTicks": 170,
          "midi": 72,
          "name": "C5",
          "ticks": 15936,
          "time": 20.75,
          "velocity": 0.8976377952755905
        },
        {
          "duration": 0.20833333333333215,
          "durationTicks": 160,
          "midi": 76,
          "name": "E5",
          "ticks": 15936,
          "time": 20.75,
          "velocity": 0.8976377952755905
        },
        {
          "duration": 0.2890625,
          "durationTicks": 222,
          "midi": 72,
          "name": "C5",
          "ticks": 16128,
          "time": 21,
          "velocity": 0.8976377952755905
        },
        {
          "duration": 0.38541666666666785,
          "durationTicks": 296,
          "midi": 76,
          "name": "E5",
          "ticks": 16128,
          "time": 21,
          "velocity": 0.8976377952755905
        },
        {
          "duration": 0.26302083333333215,
          "durationTicks": 202,
          "midi": 79,
          "name": "G5",
          "ticks": 16128,
          "time": 21,
          "velocity": 0.8976377952755905
        },
        {
          "duration": 0.375,
          "durationTicks": 288,
          "midi": 72,
          "name": "C5",
          "ticks": 17280,
          "time": 22.5,
          "velocity": 0.8976377952755905
        },
        {
          "duration": 0.41666666666666785,
          "durationTicks": 320,
          "midi": 76,
          "name": "E5",
          "ticks": 17280,
          "time": 22.5,
          "velocity": 0.8976377952755905
        },
        {
          "duration": 0.390625,
          "durationTicks": 300,
          "midi": 81,
          "name": "A5",
          "ticks": 17280,
          "time": 22.5,
          "velocity": 0.8976377952755905
        },
        {
          "duration": 0.22135416666666785,
          "durationTicks": 170,
          "midi": 69,
          "name": "A4",
          "ticks": 17664,
          "time": 23,
          "velocity": 0.8976377952755905
        },
        {
          "duration": 0.44010416666666785,
          "durationTicks": 338,
          "midi": 72,
          "name": "C5",
          "ticks": 17664,
          "time": 23,
          "velocity": 0.8976377952755905
        },
        {
          "duration": 0.28385416666666785,
          "durationTicks": 218,
          "midi": 76,
          "name": "E5",
          "ticks": 17664,
          "time": 23,
          "velocity": 0.8976377952755905
        },
        {
          "duration": 0.1171875,
          "durationTicks": 90,
          "midi": 69,
          "name": "A4",
          "ticks": 18816,
          "time": 24.5,
          "velocity": 0.8976377952755905
        },
        {
          "duration": 0.1796875,
          "durationTicks": 138,
          "midi": 72,
          "name": "C5",
          "ticks": 18816,
          "time": 24.5,
          "velocity": 0.8976377952755905
        },
        {
          "duration": 0.18489583333333215,
          "durationTicks": 142,
          "midi": 76,
          "name": "E5",
          "ticks": 18816,
          "time": 24.5,
          "velocity": 0.8976377952755905
        },
        {
          "duration": 0.14322916666666785,
          "durationTicks": 110,
          "midi": 69,
          "name": "A4",
          "ticks": 19008,
          "time": 24.75,
          "velocity": 0.8976377952755905
        },
        {
          "duration": 0.1796875,
          "durationTicks": 138,
          "midi": 72,
          "name": "C5",
          "ticks": 19008,
          "time": 24.75,
          "velocity": 0.8976377952755905
        },
        {
          "duration": 0.17708333333333215,
          "durationTicks": 136,
          "midi": 76,
          "name": "E5",
          "ticks": 19008,
          "time": 24.75,
          "velocity": 0.8976377952755905
        },
        {
          "duration": 0.375,
          "durationTicks": 288,
          "midi": 81,
          "name": "A5",
          "ticks": 19200,
          "time": 25,
          "velocity": 0.8976377952755905
        },
        {
          "duration": 0.34375,
          "durationTicks": 264,
          "midi": 72,
          "name": "C5",
          "ticks": 19200,
          "time": 25,
          "velocity": 0.8976377952755905
        },
        {
          "duration": 0.36458333333333215,
          "durationTicks": 280,
          "midi": 76,
          "name": "E5",
          "ticks": 19200,
          "time": 25,
          "velocity": 0.8976377952755905
        },
        {
          "duration": 0.125,
          "durationTicks": 96,
          "midi": 69,
          "name": "A4",
          "ticks": 19584,
          "time": 25.5,
          "velocity": 0.8976377952755905
        },
        {
          "duration": 0.25,
          "durationTicks": 192,
          "midi": 72,
          "name": "C5",
          "ticks": 19584,
          "time": 25.5,
          "velocity": 0.8976377952755905
        },
        {
          "duration": 0.44270833333333215,
          "durationTicks": 340,
          "midi": 76,
          "name": "E5",
          "ticks": 19584,
          "time": 25.5,
          "velocity": 0.8976377952755905
        },
        {
          "duration": 0.33333333333333215,
          "durationTicks": 256,
          "midi": 81,
          "name": "A5",
          "ticks": 20352,
          "time": 26.5,
          "velocity": 0.8976377952755905
        },
        {
          "duration": 0.2890625,
          "durationTicks": 222,
          "midi": 72,
          "name": "C5",
          "ticks": 20352,
          "time": 26.5,
          "velocity": 0.8976377952755905
        },
        {
          "duration": 0.33072916666666785,
          "durationTicks": 254,
          "midi": 76,
          "name": "E5",
          "ticks": 20352,
          "time": 26.5,
          "velocity": 0.8976377952755905
        },
        {
          "duration": 0.16145833333333215,
          "durationTicks": 124,
          "midi": 69,
          "name": "A4",
          "ticks": 20736,
          "time": 27,
          "velocity": 0.8976377952755905
        },
        {
          "duration": 0.24739583333333215,
          "durationTicks": 190,
          "midi": 72,
          "name": "C5",
          "ticks": 20736,
          "time": 27,
          "velocity": 0.8976377952755905
        },
        {
          "duration": 0.3671875,
          "durationTicks": 282,
          "midi": 76,
          "name": "E5",
          "ticks": 20736,
          "time": 27,
          "velocity": 0.8976377952755905
        },
        {
          "duration": 0.0651041666666643,
          "durationTicks": 50,
          "midi": 67,
          "name": "G4",
          "ticks": 46080,
          "time": 60,
          "velocity": 0.8976377952755905
        },
        {
          "duration": 0.078125,
          "durationTicks": 60,
          "midi": 72,
          "name": "C5",
          "ticks": 46080,
          "time": 60,
          "velocity": 0.8976377952755905
        },
        {
          "duration": 0.0833333333333357,
          "durationTicks": 64,
          "midi": 76,
          "name": "E5",
          "ticks": 46080,
          "time": 60,
          "velocity": 0.8976377952755905
        },
        {
          "duration": 0.2916666666666643,
          "durationTicks": 224,
          "midi": 67,
          "name": "G4",
          "ticks": 46176,
          "time": 60.125,
          "velocity": 0.8976377952755905
        },
        {
          "duration": 0.0859375,
          "durationTicks": 66,
          "midi": 72,
          "name": "C5",
          "ticks": 46176,
          "time": 60.125,
          "velocity": 0.8976377952755905
        },
        {
          "duration": 0.0963541666666643,
          "durationTicks": 74,
          "midi": 76,
          "name": "E5",
          "ticks": 46176,
          "time": 60.125,
          "velocity": 0.8976377952755905
        },
        {
          "duration": 0.2369791666666643,
          "durationTicks": 182,
          "midi": 67,
          "name": "G4",
          "ticks": 46464,
          "time": 60.5,
          "velocity": 0.8976377952755905
        },
        {
          "duration": 0.4088541666666643,
          "durationTicks": 314,
          "midi": 72,
          "name": "C5",
          "ticks": 46464,
          "time": 60.5,
          "velocity": 0.8976377952755905
        },
        {
          "duration": 0.4348958333333357,
          "durationTicks": 334,
          "midi": 76,
          "name": "E5",
          "ticks": 46464,
          "time": 60.5,
          "velocity": 0.8976377952755905
        },
        {
          "duration": 0.1197916666666643,
          "durationTicks": 92,
          "midi": 67,
          "name": "G4",
          "ticks": 46656,
          "time": 60.75,
          "velocity": 0.8976377952755905
        },
        {
          "duration": 0.2447916666666643,
          "durationTicks": 188,
          "midi": 72,
          "name": "C5",
          "ticks": 46848,
          "time": 61,
          "velocity": 0.8976377952755905
        },
        {
          "duration": 0.203125,
          "durationTicks": 156,
          "midi": 76,
          "name": "E5",
          "ticks": 46848,
          "time": 61,
          "velocity": 0.8976377952755905
        },
        {
          "duration": 0.1875,
          "durationTicks": 144,
          "midi": 79,
          "name": "G5",
          "ticks": 46848,
          "time": 61,
          "velocity": 0.8976377952755905
        },
        {
          "duration": 0.4270833333333357,
          "durationTicks": 328,
          "midi": 72,
          "name": "C5",
          "ticks": 48000,
          "time": 62.5,
          "velocity": 0.8976377952755905
        },
        {
          "duration": 0.4375,
          "durationTicks": 336,
          "midi": 76,
          "name": "E5",
          "ticks": 48000,
          "time": 62.5,
          "velocity": 0.8976377952755905
        },
        {
          "duration": 0.3515625,
          "durationTicks": 270,
          "midi": 81,
          "name": "A5",
          "ticks": 48000,
          "time": 62.5,
          "velocity": 0.8976377952755905
        },
        {
          "duration": 0.21875,
          "durationTicks": 168,
          "midi": 69,
          "name": "A4",
          "ticks": 48384,
          "time": 63,
          "velocity": 0.8976377952755905
        },
        {
          "duration": 0.2682291666666643,
          "durationTicks": 206,
          "midi": 72,
          "name": "C5",
          "ticks": 48384,
          "time": 63,
          "velocity": 0.8976377952755905
        },
        {
          "duration": 0.2317708333333357,
          "durationTicks": 178,
          "midi": 76,
          "name": "E5",
          "ticks": 48384,
          "time": 63,
          "velocity": 0.8976377952755905
        },
        {
          "duration": 0.1692708333333286,
          "durationTicks": 130,
          "midi": 69,
          "name": "A4",
          "ticks": 49536,
          "time": 64.5,
          "velocity": 0.8976377952755905
        },
        {
          "duration": 0.1354166666666714,
          "durationTicks": 104,
          "midi": 72,
          "name": "C5",
          "ticks": 49536,
          "time": 64.5,
          "velocity": 0.8976377952755905
        },
        {
          "duration": 0.1354166666666714,
          "durationTicks": 104,
          "midi": 76,
          "name": "E5",
          "ticks": 49536,
          "time": 64.5,
          "velocity": 0.8976377952755905
        },
        {
          "duration": 0.2005208333333286,
          "durationTicks": 154,
          "midi": 69,
          "name": "A4",
          "ticks": 49728,
          "time": 64.75,
          "velocity": 0.8976377952755905
        },
        {
          "duration": 0.1875,
          "durationTicks": 144,
          "midi": 72,
          "name": "C5",
          "ticks": 49728,
          "time": 64.75,
          "velocity": 0.8976377952755905
        },
        {
          "duration": 0.1953125,
          "durationTicks": 150,
          "midi": 76,
          "name": "E5",
          "ticks": 49728,
          "time": 64.75,
          "velocity": 0.8976377952755905
        },
        {
          "duration": 0.421875,
          "durationTicks": 324,
          "midi": 72,
          "name": "C5",
          "ticks": 49920,
          "time": 65,
          "velocity": 0.8976377952755905
        },
        {
          "duration": 0.46875,
          "durationTicks": 360,
          "midi": 76,
          "name": "E5",
          "ticks": 49920,
          "time": 65,
          "velocity": 0.8976377952755905
        },
        {
          "duration": 0.421875,
          "durationTicks": 324,
          "midi": 81,
          "name": "A5",
          "ticks": 49920,
          "time": 65,
          "velocity": 0.8976377952755905
        },
        {
          "duration": 0.234375,
          "durationTicks": 180,
          "midi": 69,
          "name": "A4",
          "ticks": 50304,
          "time": 65.5,
          "velocity": 0.8976377952755905
        },
        {
          "duration": 0.40625,
          "durationTicks": 312,
          "midi": 72,
          "name": "C5",
          "ticks": 50304,
          "time": 65.5,
          "velocity": 0.8976377952755905
        },
        {
          "duration": 0.2578125,
          "durationTicks": 198,
          "midi": 76,
          "name": "E5",
          "ticks": 50304,
          "time": 65.5,
          "velocity": 0.8976377952755905
        },
        {
          "duration": 0.375,
          "durationTicks": 288,
          "midi": 72,
          "name": "C5",
          "ticks": 51072,
          "time": 66.5,
          "velocity": 0.8976377952755905
        },
        {
          "duration": 0.4401041666666714,
          "durationTicks": 338,
          "midi": 76,
          "name": "E5",
          "ticks": 51072,
          "time": 66.5,
          "velocity": 0.8976377952755905
        },
        {
          "duration": 0.3958333333333286,
          "durationTicks": 304,
          "midi": 81,
          "name": "A5",
          "ticks": 51072,
          "time": 66.5,
          "velocity": 0.8976377952755905
        },
        {
          "duration": 0.1979166666666714,
          "durationTicks": 152,
          "midi": 69,
          "name": "A4",
          "ticks": 51456,
          "time": 67,
          "velocity": 0.8976377952755905
        },
        {
          "duration": 0.4661458333333286,
          "durationTicks": 358,
          "midi": 72,
          "name": "C5",
          "ticks": 51456,
          "time": 67,
          "velocity": 0.8976377952755905
        },
        {
          "duration": 0.2786458333333286,
          "durationTicks": 214,
          "midi": 76,
          "name": "E5",
          "ticks": 51456,
          "time": 67,
          "velocity": 0.8976377952755905
        },
        {
          "duration": 0.0625,
          "durationTicks": 48,
          "midi": 67,
          "name": "G4",
          "ticks": 52224,
          "time": 68,
          "velocity": 0.8976377952755905
        },
        {
          "duration": 0.0833333333333286,
          "durationTicks": 64,
          "midi": 72,
          "name": "C5",
          "ticks": 52224,
          "time": 68,
          "velocity": 0.8976377952755905
        },
        {
          "duration": 0.0729166666666714,
          "durationTicks": 56,
          "midi": 76,
          "name": "E5",
          "ticks": 52224,
          "time": 68,
          "velocity": 0.8976377952755905
        },
        {
          "duration": 0.2760416666666714,
          "durationTicks": 212,
          "midi": 67,
          "name": "G4",
          "ticks": 52320,
          "time": 68.125,
          "velocity": 0.8976377952755905
        },
        {
          "duration": 0.5130208333333286,
          "durationTicks": 394,
          "midi": 72,
          "name": "C5",
          "ticks": 52320,
          "time": 68.125,
          "velocity": 0.8976377952755905
        },
        {
          "duration": 0.3541666666666714,
          "durationTicks": 272,
          "midi": 76,
          "name": "E5",
          "ticks": 52320,
          "time": 68.125,
          "velocity": 0.8976377952755905
        },
        {
          "duration": 0.1770833333333286,
          "durationTicks": 136,
          "midi": 67,
          "name": "G4",
          "ticks": 52800,
          "time": 68.75,
          "velocity": 0.8976377952755905
        },
        {
          "duration": 0.2213541666666714,
          "durationTicks": 170,
          "midi": 72,
          "name": "C5",
          "ticks": 52800,
          "time": 68.75,
          "velocity": 0.8976377952755905
        },
        {
          "duration": 0.2083333333333286,
          "durationTicks": 160,
          "midi": 76,
          "name": "E5",
          "ticks": 52800,
          "time": 68.75,
          "velocity": 0.8976377952755905
        },
        {
          "duration": 0.2890625,
          "durationTicks": 222,
          "midi": 72,
          "name": "C5",
          "ticks": 52992,
          "time": 69,
          "velocity": 0.8976377952755905
        },
        {
          "duration": 0.3854166666666714,
          "durationTicks": 296,
          "midi": 76,
          "name": "E5",
          "ticks": 52992,
          "time": 69,
          "velocity": 0.8976377952755905
        },
        {
          "duration": 0.2630208333333286,
          "durationTicks": 202,
          "midi": 79,
          "name": "G5",
          "ticks": 52992,
          "time": 69,
          "velocity": 0.8976377952755905
        },
        {
          "duration": 0.375,
          "durationTicks": 288,
          "midi": 72,
          "name": "C5",
          "ticks": 54144,
          "time": 70.5,
          "velocity": 0.8976377952755905
        },
        {
          "duration": 0.4166666666666714,
          "durationTicks": 320,
          "midi": 76,
          "name": "E5",
          "ticks": 54144,
          "time": 70.5,
          "velocity": 0.8976377952755905
        },
        {
          "duration": 0.390625,
          "durationTicks": 300,
          "midi": 81,
          "name": "A5",
          "ticks": 54144,
          "time": 70.5,
          "velocity": 0.8976377952755905
        },
        {
          "duration": 0.2213541666666714,
          "durationTicks": 170,
          "midi": 69,
          "name": "A4",
          "ticks": 54528,
          "time": 71,
          "velocity": 0.8976377952755905
        },
        {
          "duration": 0.4401041666666714,
          "durationTicks": 338,
          "midi": 72,
          "name": "C5",
          "ticks": 54528,
          "time": 71,
          "velocity": 0.8976377952755905
        },
        {
          "duration": 0.2838541666666714,
          "durationTicks": 218,
          "midi": 76,
          "name": "E5",
          "ticks": 54528,
          "time": 71,
          "velocity": 0.8976377952755905
        },
        {
          "duration": 0.1171875,
          "durationTicks": 90,
          "midi": 69,
          "name": "A4",
          "ticks": 55680,
          "time": 72.5,
          "velocity": 0.8976377952755905
        },
        {
          "duration": 0.1796875,
          "durationTicks": 138,
          "midi": 72,
          "name": "C5",
          "ticks": 55680,
          "time": 72.5,
          "velocity": 0.8976377952755905
        },
        {
          "duration": 0.1848958333333286,
          "durationTicks": 142,
          "midi": 76,
          "name": "E5",
          "ticks": 55680,
          "time": 72.5,
          "velocity": 0.8976377952755905
        },
        {
          "duration": 0.1432291666666714,
          "durationTicks": 110,
          "midi": 69,
          "name": "A4",
          "ticks": 55872,
          "time": 72.75,
          "velocity": 0.8976377952755905
        },
        {
          "duration": 0.1796875,
          "durationTicks": 138,
          "midi": 72,
          "name": "C5",
          "ticks": 55872,
          "time": 72.75,
          "velocity": 0.8976377952755905
        },
        {
          "duration": 0.1770833333333286,
          "durationTicks": 136,
          "midi": 76,
          "name": "E5",
          "ticks": 55872,
          "time": 72.75,
          "velocity": 0.8976377952755905
        },
        {
          "duration": 0.375,
          "durationTicks": 288,
          "midi": 81,
          "name": "A5",
          "ticks": 56064,
          "time": 73,
          "velocity": 0.8976377952755905
        },
        {
          "duration": 0.34375,
          "durationTicks": 264,
          "midi": 72,
          "name": "C5",
          "ticks": 56064,
          "time": 73,
          "velocity": 0.8976377952755905
        },
        {
          "duration": 0.3645833333333286,
          "durationTicks": 280,
          "midi": 76,
          "name": "E5",
          "ticks": 56064,
          "time": 73,
          "velocity": 0.8976377952755905
        },
        {
          "duration": 0.125,
          "durationTicks": 96,
          "midi": 69,
          "name": "A4",
          "ticks": 56448,
          "time": 73.5,
          "velocity": 0.8976377952755905
        },
        {
          "duration": 0.25,
          "durationTicks": 192,
          "midi": 72,
          "name": "C5",
          "ticks": 56448,
          "time": 73.5,
          "velocity": 0.8976377952755905
        },
        {
          "duration": 0.4427083333333286,
          "durationTicks": 340,
          "midi": 76,
          "name": "E5",
          "ticks": 56448,
          "time": 73.5,
          "velocity": 0.8976377952755905
        },
        {
          "duration": 0.3333333333333286,
          "durationTicks": 256,
          "midi": 81,
          "name": "A5",
          "ticks": 57216,
          "time": 74.5,
          "velocity": 0.8976377952755905
        },
        {
          "duration": 0.2890625,
          "durationTicks": 222,
          "midi": 72,
          "name": "C5",
          "ticks": 57216,
          "time": 74.5,
          "velocity": 0.8976377952755905
        },
        {
          "duration": 0.3307291666666714,
          "durationTicks": 254,
          "midi": 76,
          "name": "E5",
          "ticks": 57216,
          "time": 74.5,
          "velocity": 0.8976377952755905
        },
        {
          "duration": 0.1614583333333286,
          "durationTicks": 124,
          "midi": 69,
          "name": "A4",
          "ticks": 57600,
          "time": 75,
          "velocity": 0.8976377952755905
        },
        {
          "duration": 0.2473958333333286,
          "durationTicks": 190,
          "midi": 72,
          "name": "C5",
          "ticks": 57600,
          "time": 75,
          "velocity": 0.8976377952755905
        },
        {
          "duration": 0.3671875,
          "durationTicks": 282,
          "midi": 76,
          "name": "E5",
          "ticks": 57600,
          "time": 75,
          "velocity": 0.8976377952755905
        },
        {
          "duration": 0.0651041666666714,
          "durationTicks": 50,
          "midi": 67,
          "name": "G4",
          "ticks": 82944,
          "time": 108,
          "velocity": 0.8976377952755905
        },
        {
          "duration": 0.078125,
          "durationTicks": 60,
          "midi": 72,
          "name": "C5",
          "ticks": 82944,
          "time": 108,
          "velocity": 0.8976377952755905
        },
        {
          "duration": 0.0833333333333286,
          "durationTicks": 64,
          "midi": 76,
          "name": "E5",
          "ticks": 82944,
          "time": 108,
          "velocity": 0.8976377952755905
        },
        {
          "duration": 0.2916666666666714,
          "durationTicks": 224,
          "midi": 67,
          "name": "G4",
          "ticks": 83040,
          "time": 108.125,
          "velocity": 0.8976377952755905
        },
        {
          "duration": 0.0859375,
          "durationTicks": 66,
          "midi": 72,
          "name": "C5",
          "ticks": 83040,
          "time": 108.125,
          "velocity": 0.8976377952755905
        },
        {
          "duration": 0.0963541666666714,
          "durationTicks": 74,
          "midi": 76,
          "name": "E5",
          "ticks": 83040,
          "time": 108.125,
          "velocity": 0.8976377952755905
        },
        {
          "duration": 0.2369791666666714,
          "durationTicks": 182,
          "midi": 67,
          "name": "G4",
          "ticks": 83328,
          "time": 108.5,
          "velocity": 0.8976377952755905
        },
        {
          "duration": 0.4088541666666714,
          "durationTicks": 314,
          "midi": 72,
          "name": "C5",
          "ticks": 83328,
          "time": 108.5,
          "velocity": 0.8976377952755905
        },
        {
          "duration": 0.4348958333333286,
          "durationTicks": 334,
          "midi": 76,
          "name": "E5",
          "ticks": 83328,
          "time": 108.5,
          "velocity": 0.8976377952755905
        },
        {
          "duration": 0.1197916666666714,
          "durationTicks": 92,
          "midi": 67,
          "name": "G4",
          "ticks": 83520,
          "time": 108.75,
          "velocity": 0.8976377952755905
        },
        {
          "duration": 0.2447916666666714,
          "durationTicks": 188,
          "midi": 72,
          "name": "C5",
          "ticks": 83712,
          "time": 109,
          "velocity": 0.8976377952755905
        },
        {
          "duration": 0.203125,
          "durationTicks": 156,
          "midi": 76,
          "name": "E5",
          "ticks": 83712,
          "time": 109,
          "velocity": 0.8976377952755905
        },
        {
          "duration": 0.1875,
          "durationTicks": 144,
          "midi": 79,
          "name": "G5",
          "ticks": 83712,
          "time": 109,
          "velocity": 0.8976377952755905
        },
        {
          "duration": 0.4270833333333286,
          "durationTicks": 328,
          "midi": 72,
          "name": "C5",
          "ticks": 84864,
          "time": 110.5,
          "velocity": 0.8976377952755905
        },
        {
          "duration": 0.4375,
          "durationTicks": 336,
          "midi": 76,
          "name": "E5",
          "ticks": 84864,
          "time": 110.5,
          "velocity": 0.8976377952755905
        },
        {
          "duration": 0.3515625,
          "durationTicks": 270,
          "midi": 81,
          "name": "A5",
          "ticks": 84864,
          "time": 110.5,
          "velocity": 0.8976377952755905
        },
        {
          "duration": 0.21875,
          "durationTicks": 168,
          "midi": 69,
          "name": "A4",
          "ticks": 85248,
          "time": 111,
          "velocity": 0.8976377952755905
        },
        {
          "duration": 0.2682291666666714,
          "durationTicks": 206,
          "midi": 72,
          "name": "C5",
          "ticks": 85248,
          "time": 111,
          "velocity": 0.8976377952755905
        },
        {
          "duration": 0.2317708333333286,
          "durationTicks": 178,
          "midi": 76,
          "name": "E5",
          "ticks": 85248,
          "time": 111,
          "velocity": 0.8976377952755905
        },
        {
          "duration": 0.1692708333333286,
          "durationTicks": 130,
          "midi": 69,
          "name": "A4",
          "ticks": 86400,
          "time": 112.5,
          "velocity": 0.8976377952755905
        },
        {
          "duration": 0.1354166666666714,
          "durationTicks": 104,
          "midi": 72,
          "name": "C5",
          "ticks": 86400,
          "time": 112.5,
          "velocity": 0.8976377952755905
        },
        {
          "duration": 0.1354166666666714,
          "durationTicks": 104,
          "midi": 76,
          "name": "E5",
          "ticks": 86400,
          "time": 112.5,
          "velocity": 0.8976377952755905
        },
        {
          "duration": 0.2005208333333286,
          "durationTicks": 154,
          "midi": 69,
          "name": "A4",
          "ticks": 86592,
          "time": 112.75,
          "velocity": 0.8976377952755905
        },
        {
          "duration": 0.1875,
          "durationTicks": 144,
          "midi": 72,
          "name": "C5",
          "ticks": 86592,
          "time": 112.75,
          "velocity": 0.8976377952755905
        },
        {
          "duration": 0.1953125,
          "durationTicks": 150,
          "midi": 76,
          "name": "E5",
          "ticks": 86592,
          "time": 112.75,
          "velocity": 0.8976377952755905
        },
        {
          "duration": 0.421875,
          "durationTicks": 324,
          "midi": 72,
          "name": "C5",
          "ticks": 86784,
          "time": 113,
          "velocity": 0.8976377952755905
        },
        {
          "duration": 0.46875,
          "durationTicks": 360,
          "midi": 76,
          "name": "E5",
          "ticks": 86784,
          "time": 113,
          "velocity": 0.8976377952755905
        },
        {
          "duration": 0.421875,
          "durationTicks": 324,
          "midi": 81,
          "name": "A5",
          "ticks": 86784,
          "time": 113,
          "velocity": 0.8976377952755905
        },
        {
          "duration": 0.234375,
          "durationTicks": 180,
          "midi": 69,
          "name": "A4",
          "ticks": 87168,
          "time": 113.5,
          "velocity": 0.8976377952755905
        },
        {
          "duration": 0.40625,
          "durationTicks": 312,
          "midi": 72,
          "name": "C5",
          "ticks": 87168,
          "time": 113.5,
          "velocity": 0.8976377952755905
        },
        {
          "duration": 0.2578125,
          "durationTicks": 198,
          "midi": 76,
          "name": "E5",
          "ticks": 87168,
          "time": 113.5,
          "velocity": 0.8976377952755905
        },
        {
          "duration": 0.375,
          "durationTicks": 288,
          "midi": 72,
          "name": "C5",
          "ticks": 87936,
          "time": 114.5,
          "velocity": 0.8976377952755905
        },
        {
          "duration": 0.4401041666666714,
          "durationTicks": 338,
          "midi": 76,
          "name": "E5",
          "ticks": 87936,
          "time": 114.5,
          "velocity": 0.8976377952755905
        },
        {
          "duration": 0.3958333333333286,
          "durationTicks": 304,
          "midi": 81,
          "name": "A5",
          "ticks": 87936,
          "time": 114.5,
          "velocity": 0.8976377952755905
        },
        {
          "duration": 0.1979166666666714,
          "durationTicks": 152,
          "midi": 69,
          "name": "A4",
          "ticks": 88320,
          "time": 115,
          "velocity": 0.8976377952755905
        },
        {
          "duration": 0.4661458333333286,
          "durationTicks": 358,
          "midi": 72,
          "name": "C5",
          "ticks": 88320,
          "time": 115,
          "velocity": 0.8976377952755905
        },
        {
          "duration": 0.2786458333333286,
          "durationTicks": 214,
          "midi": 76,
          "name": "E5",
          "ticks": 88320,
          "time": 115,
          "velocity": 0.8976377952755905
        },
        {
          "duration": 0.0625,
          "durationTicks": 48,
          "midi": 67,
          "name": "G4",
          "ticks": 89088,
          "time": 116,
          "velocity": 0.8976377952755905
        },
        {
          "duration": 0.0833333333333286,
          "durationTicks": 64,
          "midi": 72,
          "name": "C5",
          "ticks": 89088,
          "time": 116,
          "velocity": 0.8976377952755905
        },
        {
          "duration": 0.0729166666666714,
          "durationTicks": 56,
          "midi": 76,
          "name": "E5",
          "ticks": 89088,
          "time": 116,
          "velocity": 0.8976377952755905
        },
        {
          "duration": 0.2760416666666714,
          "durationTicks": 212,
          "midi": 67,
          "name": "G4",
          "ticks": 89184,
          "time": 116.125,
          "velocity": 0.8976377952755905
        },
        {
          "duration": 0.5130208333333286,
          "durationTicks": 394,
          "midi": 72,
          "name": "C5",
          "ticks": 89184,
          "time": 116.125,
          "velocity": 0.8976377952755905
        },
        {
          "duration": 0.3541666666666714,
          "durationTicks": 272,
          "midi": 76,
          "name": "E5",
          "ticks": 89184,
          "time": 116.125,
          "velocity": 0.8976377952755905
        },
        {
          "duration": 0.1770833333333286,
          "durationTicks": 136,
          "midi": 67,
          "name": "G4",
          "ticks": 89664,
          "time": 116.75,
          "velocity": 0.8976377952755905
        },
        {
          "duration": 0.2213541666666714,
          "durationTicks": 170,
          "midi": 72,
          "name": "C5",
          "ticks": 89664,
          "time": 116.75,
          "velocity": 0.8976377952755905
        },
        {
          "duration": 0.2083333333333286,
          "durationTicks": 160,
          "midi": 76,
          "name": "E5",
          "ticks": 89664,
          "time": 116.75,
          "velocity": 0.8976377952755905
        },
        {
          "duration": 0.2890625,
          "durationTicks": 222,
          "midi": 72,
          "name": "C5",
          "ticks": 89856,
          "time": 117,
          "velocity": 0.8976377952755905
        },
        {
          "duration": 0.3854166666666714,
          "durationTicks": 296,
          "midi": 76,
          "name": "E5",
          "ticks": 89856,
          "time": 117,
          "velocity": 0.8976377952755905
        },
        {
          "duration": 0.2630208333333286,
          "durationTicks": 202,
          "midi": 79,
          "name": "G5",
          "ticks": 89856,
          "time": 117,
          "velocity": 0.8976377952755905
        },
        {
          "duration": 0.375,
          "durationTicks": 288,
          "midi": 72,
          "name": "C5",
          "ticks": 91008,
          "time": 118.5,
          "velocity": 0.8976377952755905
        },
        {
          "duration": 0.4166666666666714,
          "durationTicks": 320,
          "midi": 76,
          "name": "E5",
          "ticks": 91008,
          "time": 118.5,
          "velocity": 0.8976377952755905
        },
        {
          "duration": 0.390625,
          "durationTicks": 300,
          "midi": 81,
          "name": "A5",
          "ticks": 91008,
          "time": 118.5,
          "velocity": 0.8976377952755905
        },
        {
          "duration": 0.2213541666666714,
          "durationTicks": 170,
          "midi": 69,
          "name": "A4",
          "ticks": 91392,
          "time": 119,
          "velocity": 0.8976377952755905
        },
        {
          "duration": 0.4401041666666714,
          "durationTicks": 338,
          "midi": 72,
          "name": "C5",
          "ticks": 91392,
          "time": 119,
          "velocity": 0.8976377952755905
        },
        {
          "duration": 0.2838541666666714,
          "durationTicks": 218,
          "midi": 76,
          "name": "E5",
          "ticks": 91392,
          "time": 119,
          "velocity": 0.8976377952755905
        },
        {
          "duration": 0.1171875,
          "durationTicks": 90,
          "midi": 69,
          "name": "A4",
          "ticks": 92544,
          "time": 120.5,
          "velocity": 0.8976377952755905
        },
        {
          "duration": 0.1796875,
          "durationTicks": 138,
          "midi": 72,
          "name": "C5",
          "ticks": 92544,
          "time": 120.5,
          "velocity": 0.8976377952755905
        },
        {
          "duration": 0.1848958333333286,
          "durationTicks": 142,
          "midi": 76,
          "name": "E5",
          "ticks": 92544,
          "time": 120.5,
          "velocity": 0.8976377952755905
        },
        {
          "duration": 0.1432291666666714,
          "durationTicks": 110,
          "midi": 69,
          "name": "A4",
          "ticks": 92736,
          "time": 120.75,
          "velocity": 0.8976377952755905
        },
        {
          "duration": 0.1796875,
          "durationTicks": 138,
          "midi": 72,
          "name": "C5",
          "ticks": 92736,
          "time": 120.75,
          "velocity": 0.8976377952755905
        },
        {
          "duration": 0.1770833333333286,
          "durationTicks": 136,
          "midi": 76,
          "name": "E5",
          "ticks": 92736,
          "time": 120.75,
          "velocity": 0.8976377952755905
        },
        {
          "duration": 0.375,
          "durationTicks": 288,
          "midi": 81,
          "name": "A5",
          "ticks": 92928,
          "time": 121,
          "velocity": 0.8976377952755905
        },
        {
          "duration": 0.34375,
          "durationTicks": 264,
          "midi": 72,
          "name": "C5",
          "ticks": 92928,
          "time": 121,
          "velocity": 0.8976377952755905
        },
        {
          "duration": 0.3645833333333286,
          "durationTicks": 280,
          "midi": 76,
          "name": "E5",
          "ticks": 92928,
          "time": 121,
          "velocity": 0.8976377952755905
        },
        {
          "duration": 0.125,
          "durationTicks": 96,
          "midi": 69,
          "name": "A4",
          "ticks": 93312,
          "time": 121.5,
          "velocity": 0.8976377952755905
        },
        {
          "duration": 0.25,
          "durationTicks": 192,
          "midi": 72,
          "name": "C5",
          "ticks": 93312,
          "time": 121.5,
          "velocity": 0.8976377952755905
        },
        {
          "duration": 0.4427083333333286,
          "durationTicks": 340,
          "midi": 76,
          "name": "E5",
          "ticks": 93312,
          "time": 121.5,
          "velocity": 0.8976377952755905
        },
        {
          "duration": 0.3333333333333286,
          "durationTicks": 256,
          "midi": 81,
          "name": "A5",
          "ticks": 94080,
          "time": 122.5,
          "velocity": 0.8976377952755905
        },
        {
          "duration": 0.2890625,
          "durationTicks": 222,
          "midi": 72,
          "name": "C5",
          "ticks": 94080,
          "time": 122.5,
          "velocity": 0.8976377952755905
        },
        {
          "duration": 0.3307291666666714,
          "durationTicks": 254,
          "midi": 76,
          "name": "E5",
          "ticks": 94080,
          "time": 122.5,
          "velocity": 0.8976377952755905
        },
        {
          "duration": 0.1614583333333286,
          "durationTicks": 124,
          "midi": 69,
          "name": "A4",
          "ticks": 94464,
          "time": 123,
          "velocity": 0.8976377952755905
        },
        {
          "duration": 0.2473958333333286,
          "durationTicks": 190,
          "midi": 72,
          "name": "C5",
          "ticks": 94464,
          "time": 123,
          "velocity": 0.8976377952755905
        },
        {
          "duration": 0.3671875,
          "durationTicks": 282,
          "midi": 76,
          "name": "E5",
          "ticks": 94464,
          "time": 123,
          "velocity": 0.8976377952755905
        },
        {
          "duration": 0.890625,
          "durationTicks": 684,
          "midi": 70,
          "name": "A#4",
          "ticks": 95232,
          "time": 124,
          "velocity": 0.8976377952755905
        },
        {
          "duration": 0.9375,
          "durationTicks": 720,
          "midi": 75,
          "name": "D#5",
          "ticks": 95232,
          "time": 124,
          "velocity": 0.8976377952755905
        },
        {
          "duration": 0.9348958333333286,
          "durationTicks": 718,
          "midi": 79,
          "name": "G5",
          "ticks": 95232,
          "time": 124,
          "velocity": 0.8976377952755905
        },
        {
          "duration": 0.8671875,
          "durationTicks": 666,
          "midi": 74,
          "name": "D5",
          "ticks": 96000,
          "time": 125,
          "velocity": 0.8976377952755905
        },
        {
          "duration": 0.8463541666666714,
          "durationTicks": 650,
          "midi": 79,
          "name": "G5",
          "ticks": 96000,
          "time": 125,
          "velocity": 0.8976377952755905
        },
        {
          "duration": 0.8958333333333286,
          "durationTicks": 688,
          "midi": 72,
          "name": "C5",
          "ticks": 96768,
          "time": 126,
          "velocity": 0.8976377952755905
        },
        {
          "duration": 0.9114583333333286,
          "durationTicks": 700,
          "midi": 79,
          "name": "G5",
          "ticks": 96768,
          "time": 126,
          "velocity": 0.8976377952755905
        },
        {
          "duration": 0.6744791666666714,
          "durationTicks": 518,
          "midi": 74,
          "name": "D5",
          "ticks": 97536,
          "time": 127,
          "velocity": 0.8976377952755905
        },
        {
          "duration": 0.8229166666666714,
          "durationTicks": 632,
          "midi": 79,
          "name": "G5",
          "ticks": 97536,
          "time": 127,
          "velocity": 0.8976377952755905
        },
        {
          "duration": 3.138020833333343,
          "durationTicks": 2410,
          "midi": 72,
          "name": "C5",
          "ticks": 98304,
          "time": 128,
          "velocity": 0.8976377952755905
        },
        {
          "duration": 3.140625,
          "durationTicks": 2412,
          "midi": 79,
          "name": "G5",
          "ticks": 98304,
          "time": 128,
          "velocity": 0.8976377952755905
        },
        {
          "duration": 3.138020833333343,
          "durationTicks": 2410,
          "midi": 76,
          "name": "E5",
          "ticks": 98304,
          "time": 128,
          "velocity": 0.8976377952755905
        },
        {
          "duration": 0.09114583333334281,
          "durationTicks": 70,
          "midi": 76,
          "name": "E5",
          "ticks": 100800,
          "time": 131.25,
          "velocity": 0.8976377952755905
        },
        {
          "duration": 0.11979166666665719,
          "durationTicks": 92,
          "midi": 79,
          "name": "G5",
          "ticks": 100800,
          "time": 131.25,
          "velocity": 0.8976377952755905
        },
        {
          "duration": 0.09635416666665719,
          "durationTicks": 74,
          "midi": 72,
          "name": "C5",
          "ticks": 100800,
          "time": 131.25,
          "velocity": 0.8976377952755905
        },
        {
          "duration": 0.09895833333334281,
          "durationTicks": 76,
          "midi": 72,
          "name": "C5",
          "ticks": 100992,
          "time": 131.5,
          "velocity": 0.8976377952755905
        },
        {
          "duration": 0.09375,
          "durationTicks": 72,
          "midi": 76,
          "name": "E5",
          "ticks": 100992,
          "time": 131.5,
          "velocity": 0.8976377952755905
        },
        {
          "duration": 0.11197916666665719,
          "durationTicks": 86,
          "midi": 79,
          "name": "G5",
          "ticks": 100992,
          "time": 131.5,
          "velocity": 0.8976377952755905
        },
        {
          "duration": 0.08854166666665719,
          "durationTicks": 68,
          "midi": 72,
          "name": "C5",
          "ticks": 101184,
          "time": 131.75,
          "velocity": 0.8976377952755905
        },
        {
          "duration": 0.09635416666665719,
          "durationTicks": 74,
          "midi": 76,
          "name": "E5",
          "ticks": 101184,
          "time": 131.75,
          "velocity": 0.8976377952755905
        },
        {
          "duration": 0.12239583333334281,
          "durationTicks": 94,
          "midi": 79,
          "name": "G5",
          "ticks": 101184,
          "time": 131.75,
          "velocity": 0.8976377952755905
        },
        {
          "duration": 0.875,
          "durationTicks": 672,
          "midi": 70,
          "name": "A#4",
          "ticks": 101376,
          "time": 132,
          "velocity": 0.8976377952755905
        },
        {
          "duration": 0.8854166666666572,
          "durationTicks": 680,
          "midi": 75,
          "name": "D#5",
          "ticks": 101376,
          "time": 132,
          "velocity": 0.8976377952755905
        },
        {
          "duration": 0.8932291666666572,
          "durationTicks": 686,
          "midi": 79,
          "name": "G5",
          "ticks": 101376,
          "time": 132,
          "velocity": 0.8976377952755905
        },
        {
          "duration": 0.8229166666666572,
          "durationTicks": 632,
          "midi": 74,
          "name": "D5",
          "ticks": 102144,
          "time": 133,
          "velocity": 0.8976377952755905
        },
        {
          "duration": 0.890625,
          "durationTicks": 684,
          "midi": 70,
          "name": "A#4",
          "ticks": 102144,
          "time": 133,
          "velocity": 0.8976377952755905
        },
        {
          "duration": 0.8984375,
          "durationTicks": 690,
          "midi": 79,
          "name": "G5",
          "ticks": 102144,
          "time": 133,
          "velocity": 0.8976377952755905
        },
        {
          "duration": 0.84375,
          "durationTicks": 648,
          "midi": 70,
          "name": "A#4",
          "ticks": 102912,
          "time": 134,
          "velocity": 0.8976377952755905
        },
        {
          "duration": 0.8802083333333428,
          "durationTicks": 676,
          "midi": 79,
          "name": "G5",
          "ticks": 102912,
          "time": 134,
          "velocity": 0.8976377952755905
        },
        {
          "duration": 0.8463541666666572,
          "durationTicks": 650,
          "midi": 72,
          "name": "C5",
          "ticks": 102912,
          "time": 134,
          "velocity": 0.8976377952755905
        },
        {
          "duration": 0.7630208333333428,
          "durationTicks": 586,
          "midi": 74,
          "name": "D5",
          "ticks": 103680,
          "time": 135,
          "velocity": 0.8976377952755905
        },
        {
          "duration": 0.7421875,
          "durationTicks": 570,
          "midi": 70,
          "name": "A#4",
          "ticks": 103680,
          "time": 135,
          "velocity": 0.8976377952755905
        },
        {
          "duration": 0.7734375,
          "durationTicks": 594,
          "midi": 79,
          "name": "G5",
          "ticks": 103680,
          "time": 135,
          "velocity": 0.8976377952755905
        },
        {
          "duration": 3.84375,
          "durationTicks": 2952,
          "midi": 67,
          "name": "G4",
          "ticks": 104448,
          "time": 136,
          "velocity": 0.8976377952755905
        },
        {
          "duration": 3.838541666666657,
          "durationTicks": 2948,
          "midi": 79,
          "name": "G5",
          "ticks": 104448,
          "time": 136,
          "velocity": 0.8976377952755905
        },
        {
          "duration": 1.8333333333333428,
          "durationTicks": 1408,
          "midi": 74,
          "name": "D5",
          "ticks": 105984,
          "time": 138,
          "velocity": 0.8976377952755905
        },
        {
          "duration": 0.06510416666665719,
          "durationTicks": 50,
          "midi": 67,
          "name": "G4",
          "ticks": 107520,
          "time": 140,
          "velocity": 0.8976377952755905
        },
        {
          "duration": 0.078125,
          "durationTicks": 60,
          "midi": 72,
          "name": "C5",
          "ticks": 107520,
          "time": 140,
          "velocity": 0.8976377952755905
        },
        {
          "duration": 0.08333333333334281,
          "durationTicks": 64,
          "midi": 76,
          "name": "E5",
          "ticks": 107520,
          "time": 140,
          "velocity": 0.8976377952755905
        },
        {
          "duration": 0.2916666666666572,
          "durationTicks": 224,
          "midi": 67,
          "name": "G4",
          "ticks": 107616,
          "time": 140.125,
          "velocity": 0.8976377952755905
        },
        {
          "duration": 0.0859375,
          "durationTicks": 66,
          "midi": 72,
          "name": "C5",
          "ticks": 107616,
          "time": 140.125,
          "velocity": 0.8976377952755905
        },
        {
          "duration": 0.09635416666665719,
          "durationTicks": 74,
          "midi": 76,
          "name": "E5",
          "ticks": 107616,
          "time": 140.125,
          "velocity": 0.8976377952755905
        },
        {
          "duration": 0.2369791666666572,
          "durationTicks": 182,
          "midi": 67,
          "name": "G4",
          "ticks": 107904,
          "time": 140.5,
          "velocity": 0.8976377952755905
        },
        {
          "duration": 0.4088541666666572,
          "durationTicks": 314,
          "midi": 72,
          "name": "C5",
          "ticks": 107904,
          "time": 140.5,
          "velocity": 0.8976377952755905
        },
        {
          "duration": 0.4348958333333428,
          "durationTicks": 334,
          "midi": 76,
          "name": "E5",
          "ticks": 107904,
          "time": 140.5,
          "velocity": 0.8976377952755905
        },
        {
          "duration": 0.11979166666665719,
          "durationTicks": 92,
          "midi": 67,
          "name": "G4",
          "ticks": 108096,
          "time": 140.75,
          "velocity": 0.8976377952755905
        },
        {
          "duration": 0.2447916666666572,
          "durationTicks": 188,
          "midi": 72,
          "name": "C5",
          "ticks": 108288,
          "time": 141,
          "velocity": 0.8976377952755905
        },
        {
          "duration": 0.203125,
          "durationTicks": 156,
          "midi": 76,
          "name": "E5",
          "ticks": 108288,
          "time": 141,
          "velocity": 0.8976377952755905
        },
        {
          "duration": 0.1875,
          "durationTicks": 144,
          "midi": 79,
          "name": "G5",
          "ticks": 108288,
          "time": 141,
          "velocity": 0.8976377952755905
        },
        {
          "duration": 0.4270833333333428,
          "durationTicks": 328,
          "midi": 72,
          "name": "C5",
          "ticks": 109440,
          "time": 142.5,
          "velocity": 0.8976377952755905
        },
        {
          "duration": 0.4375,
          "durationTicks": 336,
          "midi": 76,
          "name": "E5",
          "ticks": 109440,
          "time": 142.5,
          "velocity": 0.8976377952755905
        },
        {
          "duration": 0.3515625,
          "durationTicks": 270,
          "midi": 81,
          "name": "A5",
          "ticks": 109440,
          "time": 142.5,
          "velocity": 0.8976377952755905
        },
        {
          "duration": 0.21875,
          "durationTicks": 168,
          "midi": 69,
          "name": "A4",
          "ticks": 109824,
          "time": 143,
          "velocity": 0.8976377952755905
        },
        {
          "duration": 0.2682291666666572,
          "durationTicks": 206,
          "midi": 72,
          "name": "C5",
          "ticks": 109824,
          "time": 143,
          "velocity": 0.8976377952755905
        },
        {
          "duration": 0.2317708333333428,
          "durationTicks": 178,
          "midi": 76,
          "name": "E5",
          "ticks": 109824,
          "time": 143,
          "velocity": 0.8976377952755905
        },
        {
          "duration": 0.1692708333333428,
          "durationTicks": 130,
          "midi": 69,
          "name": "A4",
          "ticks": 110976,
          "time": 144.5,
          "velocity": 0.8976377952755905
        },
        {
          "duration": 0.1354166666666572,
          "durationTicks": 104,
          "midi": 72,
          "name": "C5",
          "ticks": 110976,
          "time": 144.5,
          "velocity": 0.8976377952755905
        },
        {
          "duration": 0.1354166666666572,
          "durationTicks": 104,
          "midi": 76,
          "name": "E5",
          "ticks": 110976,
          "time": 144.5,
          "velocity": 0.8976377952755905
        },
        {
          "duration": 0.2005208333333428,
          "durationTicks": 154,
          "midi": 69,
          "name": "A4",
          "ticks": 111168,
          "time": 144.75,
          "velocity": 0.8976377952755905
        },
        {
          "duration": 0.1875,
          "durationTicks": 144,
          "midi": 72,
          "name": "C5",
          "ticks": 111168,
          "time": 144.75,
          "velocity": 0.8976377952755905
        },
        {
          "duration": 0.1953125,
          "durationTicks": 150,
          "midi": 76,
          "name": "E5",
          "ticks": 111168,
          "time": 144.75,
          "velocity": 0.8976377952755905
        },
        {
          "duration": 0.421875,
          "durationTicks": 324,
          "midi": 72,
          "name": "C5",
          "ticks": 111360,
          "time": 145,
          "velocity": 0.8976377952755905
        },
        {
          "duration": 0.46875,
          "durationTicks": 360,
          "midi": 76,
          "name": "E5",
          "ticks": 111360,
          "time": 145,
          "velocity": 0.8976377952755905
        },
        {
          "duration": 0.421875,
          "durationTicks": 324,
          "midi": 81,
          "name": "A5",
          "ticks": 111360,
          "time": 145,
          "velocity": 0.8976377952755905
        },
        {
          "duration": 0.234375,
          "durationTicks": 180,
          "midi": 69,
          "name": "A4",
          "ticks": 111744,
          "time": 145.5,
          "velocity": 0.8976377952755905
        },
        {
          "duration": 0.40625,
          "durationTicks": 312,
          "midi": 72,
          "name": "C5",
          "ticks": 111744,
          "time": 145.5,
          "velocity": 0.8976377952755905
        },
        {
          "duration": 0.2578125,
          "durationTicks": 198,
          "midi": 76,
          "name": "E5",
          "ticks": 111744,
          "time": 145.5,
          "velocity": 0.8976377952755905
        },
        {
          "duration": 0.375,
          "durationTicks": 288,
          "midi": 72,
          "name": "C5",
          "ticks": 112512,
          "time": 146.5,
          "velocity": 0.8976377952755905
        },
        {
          "duration": 0.4401041666666572,
          "durationTicks": 338,
          "midi": 76,
          "name": "E5",
          "ticks": 112512,
          "time": 146.5,
          "velocity": 0.8976377952755905
        },
        {
          "duration": 0.3958333333333428,
          "durationTicks": 304,
          "midi": 81,
          "name": "A5",
          "ticks": 112512,
          "time": 146.5,
          "velocity": 0.8976377952755905
        },
        {
          "duration": 0.1979166666666572,
          "durationTicks": 152,
          "midi": 69,
          "name": "A4",
          "ticks": 112896,
          "time": 147,
          "velocity": 0.8976377952755905
        },
        {
          "duration": 0.4661458333333428,
          "durationTicks": 358,
          "midi": 72,
          "name": "C5",
          "ticks": 112896,
          "time": 147,
          "velocity": 0.8976377952755905
        },
        {
          "duration": 0.2786458333333428,
          "durationTicks": 214,
          "midi": 76,
          "name": "E5",
          "ticks": 112896,
          "time": 147,
          "velocity": 0.8976377952755905
        },
        {
          "duration": 0.0625,
          "durationTicks": 48,
          "midi": 67,
          "name": "G4",
          "ticks": 113664,
          "time": 148,
          "velocity": 0.8976377952755905
        },
        {
          "duration": 0.08333333333334281,
          "durationTicks": 64,
          "midi": 72,
          "name": "C5",
          "ticks": 113664,
          "time": 148,
          "velocity": 0.8976377952755905
        },
        {
          "duration": 0.07291666666665719,
          "durationTicks": 56,
          "midi": 76,
          "name": "E5",
          "ticks": 113664,
          "time": 148,
          "velocity": 0.8976377952755905
        },
        {
          "duration": 0.2760416666666572,
          "durationTicks": 212,
          "midi": 67,
          "name": "G4",
          "ticks": 113760,
          "time": 148.125,
          "velocity": 0.8976377952755905
        },
        {
          "duration": 0.5130208333333428,
          "durationTicks": 394,
          "midi": 72,
          "name": "C5",
          "ticks": 113760,
          "time": 148.125,
          "velocity": 0.8976377952755905
        },
        {
          "duration": 0.3541666666666572,
          "durationTicks": 272,
          "midi": 76,
          "name": "E5",
          "ticks": 113760,
          "time": 148.125,
          "velocity": 0.8976377952755905
        },
        {
          "duration": 0.1770833333333428,
          "durationTicks": 136,
          "midi": 67,
          "name": "G4",
          "ticks": 114240,
          "time": 148.75,
          "velocity": 0.8976377952755905
        },
        {
          "duration": 0.2213541666666572,
          "durationTicks": 170,
          "midi": 72,
          "name": "C5",
          "ticks": 114240,
          "time": 148.75,
          "velocity": 0.8976377952755905
        },
        {
          "duration": 0.2083333333333428,
          "durationTicks": 160,
          "midi": 76,
          "name": "E5",
          "ticks": 114240,
          "time": 148.75,
          "velocity": 0.8976377952755905
        },
        {
          "duration": 0.2890625,
          "durationTicks": 222,
          "midi": 72,
          "name": "C5",
          "ticks": 114432,
          "time": 149,
          "velocity": 0.8976377952755905
        },
        {
          "duration": 0.3854166666666572,
          "durationTicks": 296,
          "midi": 76,
          "name": "E5",
          "ticks": 114432,
          "time": 149,
          "velocity": 0.8976377952755905
        },
        {
          "duration": 0.2630208333333428,
          "durationTicks": 202,
          "midi": 79,
          "name": "G5",
          "ticks": 114432,
          "time": 149,
          "velocity": 0.8976377952755905
        },
        {
          "duration": 0.375,
          "durationTicks": 288,
          "midi": 72,
          "name": "C5",
          "ticks": 115584,
          "time": 150.5,
          "velocity": 0.8976377952755905
        },
        {
          "duration": 0.4166666666666572,
          "durationTicks": 320,
          "midi": 76,
          "name": "E5",
          "ticks": 115584,
          "time": 150.5,
          "velocity": 0.8976377952755905
        },
        {
          "duration": 0.390625,
          "durationTicks": 300,
          "midi": 81,
          "name": "A5",
          "ticks": 115584,
          "time": 150.5,
          "velocity": 0.8976377952755905
        },
        {
          "duration": 0.2213541666666572,
          "durationTicks": 170,
          "midi": 69,
          "name": "A4",
          "ticks": 115968,
          "time": 151,
          "velocity": 0.8976377952755905
        },
        {
          "duration": 0.4401041666666572,
          "durationTicks": 338,
          "midi": 72,
          "name": "C5",
          "ticks": 115968,
          "time": 151,
          "velocity": 0.8976377952755905
        },
        {
          "duration": 0.2838541666666572,
          "durationTicks": 218,
          "midi": 76,
          "name": "E5",
          "ticks": 115968,
          "time": 151,
          "velocity": 0.8976377952755905
        },
        {
          "duration": 0.1171875,
          "durationTicks": 90,
          "midi": 69,
          "name": "A4",
          "ticks": 117120,
          "time": 152.5,
          "velocity": 0.8976377952755905
        },
        {
          "duration": 0.1796875,
          "durationTicks": 138,
          "midi": 72,
          "name": "C5",
          "ticks": 117120,
          "time": 152.5,
          "velocity": 0.8976377952755905
        },
        {
          "duration": 0.1848958333333428,
          "durationTicks": 142,
          "midi": 76,
          "name": "E5",
          "ticks": 117120,
          "time": 152.5,
          "velocity": 0.8976377952755905
        },
        {
          "duration": 0.1432291666666572,
          "durationTicks": 110,
          "midi": 69,
          "name": "A4",
          "ticks": 117312,
          "time": 152.75,
          "velocity": 0.8976377952755905
        },
        {
          "duration": 0.1796875,
          "durationTicks": 138,
          "midi": 72,
          "name": "C5",
          "ticks": 117312,
          "time": 152.75,
          "velocity": 0.8976377952755905
        },
        {
          "duration": 0.1770833333333428,
          "durationTicks": 136,
          "midi": 76,
          "name": "E5",
          "ticks": 117312,
          "time": 152.75,
          "velocity": 0.8976377952755905
        },
        {
          "duration": 0.375,
          "durationTicks": 288,
          "midi": 81,
          "name": "A5",
          "ticks": 117504,
          "time": 153,
          "velocity": 0.8976377952755905
        },
        {
          "duration": 0.34375,
          "durationTicks": 264,
          "midi": 72,
          "name": "C5",
          "ticks": 117504,
          "time": 153,
          "velocity": 0.8976377952755905
        },
        {
          "duration": 0.3645833333333428,
          "durationTicks": 280,
          "midi": 76,
          "name": "E5",
          "ticks": 117504,
          "time": 153,
          "velocity": 0.8976377952755905
        },
        {
          "duration": 0.125,
          "durationTicks": 96,
          "midi": 69,
          "name": "A4",
          "ticks": 117888,
          "time": 153.5,
          "velocity": 0.8976377952755905
        },
        {
          "duration": 0.25,
          "durationTicks": 192,
          "midi": 72,
          "name": "C5",
          "ticks": 117888,
          "time": 153.5,
          "velocity": 0.8976377952755905
        },
        {
          "duration": 0.4427083333333428,
          "durationTicks": 340,
          "midi": 76,
          "name": "E5",
          "ticks": 117888,
          "time": 153.5,
          "velocity": 0.8976377952755905
        },
        {
          "duration": 0.3333333333333428,
          "durationTicks": 256,
          "midi": 81,
          "name": "A5",
          "ticks": 118656,
          "time": 154.5,
          "velocity": 0.8976377952755905
        },
        {
          "duration": 0.2890625,
          "durationTicks": 222,
          "midi": 72,
          "name": "C5",
          "ticks": 118656,
          "time": 154.5,
          "velocity": 0.8976377952755905
        },
        {
          "duration": 0.3307291666666572,
          "durationTicks": 254,
          "midi": 76,
          "name": "E5",
          "ticks": 118656,
          "time": 154.5,
          "velocity": 0.8976377952755905
        },
        {
          "duration": 0.1614583333333428,
          "durationTicks": 124,
          "midi": 69,
          "name": "A4",
          "ticks": 119040,
          "time": 155,
          "velocity": 0.8976377952755905
        },
        {
          "duration": 0.2473958333333428,
          "durationTicks": 190,
          "midi": 72,
          "name": "C5",
          "ticks": 119040,
          "time": 155,
          "velocity": 0.8976377952755905
        },
        {
          "duration": 0.3671875,
          "durationTicks": 282,
          "midi": 76,
          "name": "E5",
          "ticks": 119040,
          "time": 155,
          "velocity": 0.8976377952755905
        },
        {
          "duration": 0.06510416666665719,
          "durationTicks": 50,
          "midi": 67,
          "name": "G4",
          "ticks": 119808,
          "time": 156,
          "velocity": 0.8976377952755905
        },
        {
          "duration": 0.078125,
          "durationTicks": 60,
          "midi": 72,
          "name": "C5",
          "ticks": 119808,
          "time": 156,
          "velocity": 0.8976377952755905
        },
        {
          "duration": 0.08333333333334281,
          "durationTicks": 64,
          "midi": 76,
          "name": "E5",
          "ticks": 119808,
          "time": 156,
          "velocity": 0.8976377952755905
        },
        {
          "duration": 0.2916666666666572,
          "durationTicks": 224,
          "midi": 67,
          "name": "G4",
          "ticks": 119904,
          "time": 156.125,
          "velocity": 0.8976377952755905
        },
        {
          "duration": 0.0859375,
          "durationTicks": 66,
          "midi": 72,
          "name": "C5",
          "ticks": 119904,
          "time": 156.125,
          "velocity": 0.8976377952755905
        },
        {
          "duration": 0.09635416666665719,
          "durationTicks": 74,
          "midi": 76,
          "name": "E5",
          "ticks": 119904,
          "time": 156.125,
          "velocity": 0.8976377952755905
        },
        {
          "duration": 0.2369791666666572,
          "durationTicks": 182,
          "midi": 67,
          "name": "G4",
          "ticks": 120192,
          "time": 156.5,
          "velocity": 0.8976377952755905
        },
        {
          "duration": 0.4088541666666572,
          "durationTicks": 314,
          "midi": 72,
          "name": "C5",
          "ticks": 120192,
          "time": 156.5,
          "velocity": 0.8976377952755905
        },
        {
          "duration": 0.4348958333333428,
          "durationTicks": 334,
          "midi": 76,
          "name": "E5",
          "ticks": 120192,
          "time": 156.5,
          "velocity": 0.8976377952755905
        },
        {
          "duration": 0.11979166666665719,
          "durationTicks": 92,
          "midi": 67,
          "name": "G4",
          "ticks": 120384,
          "time": 156.75,
          "velocity": 0.8976377952755905
        },
        {
          "duration": 0.2447916666666572,
          "durationTicks": 188,
          "midi": 72,
          "name": "C5",
          "ticks": 120576,
          "time": 157,
          "velocity": 0.8976377952755905
        },
        {
          "duration": 0.203125,
          "durationTicks": 156,
          "midi": 76,
          "name": "E5",
          "ticks": 120576,
          "time": 157,
          "velocity": 0.8976377952755905
        },
        {
          "duration": 0.1875,
          "durationTicks": 144,
          "midi": 79,
          "name": "G5",
          "ticks": 120576,
          "time": 157,
          "velocity": 0.8976377952755905
        },
        {
          "duration": 0.4270833333333428,
          "durationTicks": 328,
          "midi": 72,
          "name": "C5",
          "ticks": 121728,
          "time": 158.5,
          "velocity": 0.8976377952755905
        },
        {
          "duration": 0.4375,
          "durationTicks": 336,
          "midi": 76,
          "name": "E5",
          "ticks": 121728,
          "time": 158.5,
          "velocity": 0.8976377952755905
        },
        {
          "duration": 0.3515625,
          "durationTicks": 270,
          "midi": 81,
          "name": "A5",
          "ticks": 121728,
          "time": 158.5,
          "velocity": 0.8976377952755905
        },
        {
          "duration": 0.21875,
          "durationTicks": 168,
          "midi": 69,
          "name": "A4",
          "ticks": 122112,
          "time": 159,
          "velocity": 0.8976377952755905
        },
        {
          "duration": 0.2682291666666572,
          "durationTicks": 206,
          "midi": 72,
          "name": "C5",
          "ticks": 122112,
          "time": 159,
          "velocity": 0.8976377952755905
        },
        {
          "duration": 0.2317708333333428,
          "durationTicks": 178,
          "midi": 76,
          "name": "E5",
          "ticks": 122112,
          "time": 159,
          "velocity": 0.8976377952755905
        },
        {
          "duration": 0.1692708333333428,
          "durationTicks": 130,
          "midi": 69,
          "name": "A4",
          "ticks": 123264,
          "time": 160.5,
          "velocity": 0.8976377952755905
        },
        {
          "duration": 0.1354166666666572,
          "durationTicks": 104,
          "midi": 72,
          "name": "C5",
          "ticks": 123264,
          "time": 160.5,
          "velocity": 0.8976377952755905
        },
        {
          "duration": 0.1354166666666572,
          "durationTicks": 104,
          "midi": 76,
          "name": "E5",
          "ticks": 123264,
          "time": 160.5,
          "velocity": 0.8976377952755905
        },
        {
          "duration": 0.2005208333333428,
          "durationTicks": 154,
          "midi": 69,
          "name": "A4",
          "ticks": 123456,
          "time": 160.75,
          "velocity": 0.8976377952755905
        },
        {
          "duration": 0.1875,
          "durationTicks": 144,
          "midi": 72,
          "name": "C5",
          "ticks": 123456,
          "time": 160.75,
          "velocity": 0.8976377952755905
        },
        {
          "duration": 0.1953125,
          "durationTicks": 150,
          "midi": 76,
          "name": "E5",
          "ticks": 123456,
          "time": 160.75,
          "velocity": 0.8976377952755905
        },
        {
          "duration": 0.421875,
          "durationTicks": 324,
          "midi": 72,
          "name": "C5",
          "ticks": 123648,
          "time": 161,
          "velocity": 0.8976377952755905
        },
        {
          "duration": 0.46875,
          "durationTicks": 360,
          "midi": 76,
          "name": "E5",
          "ticks": 123648,
          "time": 161,
          "velocity": 0.8976377952755905
        },
        {
          "duration": 0.421875,
          "durationTicks": 324,
          "midi": 81,
          "name": "A5",
          "ticks": 123648,
          "time": 161,
          "velocity": 0.8976377952755905
        },
        {
          "duration": 0.234375,
          "durationTicks": 180,
          "midi": 69,
          "name": "A4",
          "ticks": 124032,
          "time": 161.5,
          "velocity": 0.8976377952755905
        },
        {
          "duration": 0.40625,
          "durationTicks": 312,
          "midi": 72,
          "name": "C5",
          "ticks": 124032,
          "time": 161.5,
          "velocity": 0.8976377952755905
        },
        {
          "duration": 0.2578125,
          "durationTicks": 198,
          "midi": 76,
          "name": "E5",
          "ticks": 124032,
          "time": 161.5,
          "velocity": 0.8976377952755905
        },
        {
          "duration": 0.375,
          "durationTicks": 288,
          "midi": 72,
          "name": "C5",
          "ticks": 124800,
          "time": 162.5,
          "velocity": 0.8976377952755905
        },
        {
          "duration": 0.4401041666666572,
          "durationTicks": 338,
          "midi": 76,
          "name": "E5",
          "ticks": 124800,
          "time": 162.5,
          "velocity": 0.8976377952755905
        },
        {
          "duration": 0.3958333333333428,
          "durationTicks": 304,
          "midi": 81,
          "name": "A5",
          "ticks": 124800,
          "time": 162.5,
          "velocity": 0.8976377952755905
        },
        {
          "duration": 0.1979166666666572,
          "durationTicks": 152,
          "midi": 69,
          "name": "A4",
          "ticks": 125184,
          "time": 163,
          "velocity": 0.8976377952755905
        },
        {
          "duration": 0.4661458333333428,
          "durationTicks": 358,
          "midi": 72,
          "name": "C5",
          "ticks": 125184,
          "time": 163,
          "velocity": 0.8976377952755905
        },
        {
          "duration": 0.2786458333333428,
          "durationTicks": 214,
          "midi": 76,
          "name": "E5",
          "ticks": 125184,
          "time": 163,
          "velocity": 0.8976377952755905
        },
        {
          "duration": 0.0625,
          "durationTicks": 48,
          "midi": 67,
          "name": "G4",
          "ticks": 125952,
          "time": 164,
          "velocity": 0.8976377952755905
        },
        {
          "duration": 0.08333333333334281,
          "durationTicks": 64,
          "midi": 72,
          "name": "C5",
          "ticks": 125952,
          "time": 164,
          "velocity": 0.8976377952755905
        },
        {
          "duration": 0.07291666666665719,
          "durationTicks": 56,
          "midi": 76,
          "name": "E5",
          "ticks": 125952,
          "time": 164,
          "velocity": 0.8976377952755905
        },
        {
          "duration": 0.2760416666666572,
          "durationTicks": 212,
          "midi": 67,
          "name": "G4",
          "ticks": 126048,
          "time": 164.125,
          "velocity": 0.8976377952755905
        },
        {
          "duration": 0.5130208333333428,
          "durationTicks": 394,
          "midi": 72,
          "name": "C5",
          "ticks": 126048,
          "time": 164.125,
          "velocity": 0.8976377952755905
        },
        {
          "duration": 0.3541666666666572,
          "durationTicks": 272,
          "midi": 76,
          "name": "E5",
          "ticks": 126048,
          "time": 164.125,
          "velocity": 0.8976377952755905
        },
        {
          "duration": 0.1770833333333428,
          "durationTicks": 136,
          "midi": 67,
          "name": "G4",
          "ticks": 126528,
          "time": 164.75,
          "velocity": 0.8976377952755905
        },
        {
          "duration": 0.2213541666666572,
          "durationTicks": 170,
          "midi": 72,
          "name": "C5",
          "ticks": 126528,
          "time": 164.75,
          "velocity": 0.8976377952755905
        },
        {
          "duration": 0.2083333333333428,
          "durationTicks": 160,
          "midi": 76,
          "name": "E5",
          "ticks": 126528,
          "time": 164.75,
          "velocity": 0.8976377952755905
        },
        {
          "duration": 0.2890625,
          "durationTicks": 222,
          "midi": 72,
          "name": "C5",
          "ticks": 126720,
          "time": 165,
          "velocity": 0.8976377952755905
        },
        {
          "duration": 0.3854166666666572,
          "durationTicks": 296,
          "midi": 76,
          "name": "E5",
          "ticks": 126720,
          "time": 165,
          "velocity": 0.8976377952755905
        },
        {
          "duration": 0.2630208333333428,
          "durationTicks": 202,
          "midi": 79,
          "name": "G5",
          "ticks": 126720,
          "time": 165,
          "velocity": 0.8976377952755905
        },
        {
          "duration": 0.375,
          "durationTicks": 288,
          "midi": 72,
          "name": "C5",
          "ticks": 127872,
          "time": 166.5,
          "velocity": 0.8976377952755905
        },
        {
          "duration": 0.4166666666666572,
          "durationTicks": 320,
          "midi": 76,
          "name": "E5",
          "ticks": 127872,
          "time": 166.5,
          "velocity": 0.8976377952755905
        },
        {
          "duration": 0.390625,
          "durationTicks": 300,
          "midi": 81,
          "name": "A5",
          "ticks": 127872,
          "time": 166.5,
          "velocity": 0.8976377952755905
        },
        {
          "duration": 0.2213541666666572,
          "durationTicks": 170,
          "midi": 69,
          "name": "A4",
          "ticks": 128256,
          "time": 167,
          "velocity": 0.8976377952755905
        },
        {
          "duration": 0.4401041666666572,
          "durationTicks": 338,
          "midi": 72,
          "name": "C5",
          "ticks": 128256,
          "time": 167,
          "velocity": 0.8976377952755905
        },
        {
          "duration": 0.2838541666666572,
          "durationTicks": 218,
          "midi": 76,
          "name": "E5",
          "ticks": 128256,
          "time": 167,
          "velocity": 0.8976377952755905
        },
        {
          "duration": 0.1171875,
          "durationTicks": 90,
          "midi": 69,
          "name": "A4",
          "ticks": 129408,
          "time": 168.5,
          "velocity": 0.8976377952755905
        },
        {
          "duration": 0.1796875,
          "durationTicks": 138,
          "midi": 72,
          "name": "C5",
          "ticks": 129408,
          "time": 168.5,
          "velocity": 0.8976377952755905
        },
        {
          "duration": 0.1848958333333428,
          "durationTicks": 142,
          "midi": 76,
          "name": "E5",
          "ticks": 129408,
          "time": 168.5,
          "velocity": 0.8976377952755905
        },
        {
          "duration": 0.1432291666666572,
          "durationTicks": 110,
          "midi": 69,
          "name": "A4",
          "ticks": 129600,
          "time": 168.75,
          "velocity": 0.8976377952755905
        },
        {
          "duration": 0.1796875,
          "durationTicks": 138,
          "midi": 72,
          "name": "C5",
          "ticks": 129600,
          "time": 168.75,
          "velocity": 0.8976377952755905
        },
        {
          "duration": 0.1770833333333428,
          "durationTicks": 136,
          "midi": 76,
          "name": "E5",
          "ticks": 129600,
          "time": 168.75,
          "velocity": 0.8976377952755905
        },
        {
          "duration": 0.375,
          "durationTicks": 288,
          "midi": 81,
          "name": "A5",
          "ticks": 129792,
          "time": 169,
          "velocity": 0.8976377952755905
        },
        {
          "duration": 0.34375,
          "durationTicks": 264,
          "midi": 72,
          "name": "C5",
          "ticks": 129792,
          "time": 169,
          "velocity": 0.8976377952755905
        },
        {
          "duration": 0.3645833333333428,
          "durationTicks": 280,
          "midi": 76,
          "name": "E5",
          "ticks": 129792,
          "time": 169,
          "velocity": 0.8976377952755905
        },
        {
          "duration": 0.125,
          "durationTicks": 96,
          "midi": 69,
          "name": "A4",
          "ticks": 130176,
          "time": 169.5,
          "velocity": 0.8976377952755905
        },
        {
          "duration": 0.25,
          "durationTicks": 192,
          "midi": 72,
          "name": "C5",
          "ticks": 130176,
          "time": 169.5,
          "velocity": 0.8976377952755905
        },
        {
          "duration": 0.4427083333333428,
          "durationTicks": 340,
          "midi": 76,
          "name": "E5",
          "ticks": 130176,
          "time": 169.5,
          "velocity": 0.8976377952755905
        },
        {
          "duration": 0.3333333333333428,
          "durationTicks": 256,
          "midi": 81,
          "name": "A5",
          "ticks": 130944,
          "time": 170.5,
          "velocity": 0.8976377952755905
        },
        {
          "duration": 0.2890625,
          "durationTicks": 222,
          "midi": 72,
          "name": "C5",
          "ticks": 130944,
          "time": 170.5,
          "velocity": 0.8976377952755905
        },
        {
          "duration": 0.3307291666666572,
          "durationTicks": 254,
          "midi": 76,
          "name": "E5",
          "ticks": 130944,
          "time": 170.5,
          "velocity": 0.8976377952755905
        },
        {
          "duration": 0.1614583333333428,
          "durationTicks": 124,
          "midi": 69,
          "name": "A4",
          "ticks": 131328,
          "time": 171,
          "velocity": 0.8976377952755905
        },
        {
          "duration": 0.2473958333333428,
          "durationTicks": 190,
          "midi": 72,
          "name": "C5",
          "ticks": 131328,
          "time": 171,
          "velocity": 0.8976377952755905
        },
        {
          "duration": 0.3671875,
          "durationTicks": 282,
          "midi": 76,
          "name": "E5",
          "ticks": 131328,
          "time": 171,
          "velocity": 0.8976377952755905
        },
        {
          "duration": 4.0859375,
          "durationTicks": 3138,
          "midi": 72,
          "name": "C5",
          "ticks": 132096,
          "time": 172,
          "velocity": 0.8976377952755905
        },
        {
          "duration": 4.104166666666657,
          "durationTicks": 3152,
          "midi": 76,
          "name": "E5",
          "ticks": 132096,
          "time": 172,
          "velocity": 0.8976377952755905
        },
        {
          "duration": 4.065104166666657,
          "durationTicks": 3122,
          "midi": 67,
          "name": "G4",
          "ticks": 132096,
          "time": 172,
          "velocity": 0.8976377952755905
        }
      ],
      "endOfTrackTicks": 135440
    },
    {
      "channel": 0,
      "controlChanges": {
        "7": [
          {
            "number": 7,
            "ticks": 1536,
            "time": 2,
            "value": 0.7874015748031497
          }
        ]
      },
      "pitchBends": [],
      "instrument": {
        "family": "piano",
        "number": 0,
        "name": "acoustic grand piano"
      },
      "name": "NYLON GTR",
      "notes": [],
      "endOfTrackTicks": 135104
    },
    {
      "channel": 4,
      "controlChanges": {
        "64": [
          {
            "number": 64,
            "ticks": 95292,
            "time": 124.078125,
            "value": 1
          },
          {
            "number": 64,
            "ticks": 96014,
            "time": 125.01822916666667,
            "value": 0
          },
          {
            "number": 64,
            "ticks": 96158,
            "time": 125.20572916666667,
            "value": 1
          },
          {
            "number": 64,
            "ticks": 96714,
            "time": 125.9296875,
            "value": 0
          },
          {
            "number": 64,
            "ticks": 96892,
            "time": 126.16145833333333,
            "value": 1
          },
          {
            "number": 64,
            "ticks": 97480,
            "time": 126.92708333333333,
            "value": 0
          },
          {
            "number": 64,
            "ticks": 97632,
            "time": 127.125,
            "value": 1
          },
          {
            "number": 64,
            "ticks": 98248,
            "time": 127.92708333333333,
            "value": 0
          },
          {
            "number": 64,
            "ticks": 98688,
            "time": 128.5,
            "value": 1
          },
          {
            "number": 64,
            "ticks": 99036,
            "time": 128.953125,
            "value": 0
          },
          {
            "number": 64,
            "ticks": 99450,
            "time": 129.4921875,
            "value": 1
          },
          {
            "number": 64,
            "ticks": 99752,
            "time": 129.88541666666666,
            "value": 0
          },
          {
            "number": 64,
            "ticks": 100164,
            "time": 130.421875,
            "value": 1
          },
          {
            "number": 64,
            "ticks": 100292,
            "time": 130.58854166666666,
            "value": 0
          },
          {
            "number": 64,
            "ticks": 101018,
            "time": 131.53385416666666,
            "value": 1
          },
          {
            "number": 64,
            "ticks": 101274,
            "time": 131.8671875,
            "value": 0
          },
          {
            "number": 64,
            "ticks": 102688,
            "time": 133.70833333333334,
            "value": 1
          },
          {
            "number": 64,
            "ticks": 102864,
            "time": 133.9375,
            "value": 0
          },
          {
            "number": 64,
            "ticks": 103750,
            "time": 135.09114583333334,
            "value": 1
          },
          {
            "number": 64,
            "ticks": 104322,
            "time": 135.8359375,
            "value": 0
          }
        ]
      },
      "pitchBends": [
        {
          "ticks": 3976,
          "time": 5.177083333333333,
          "value": 0.3912353515625
        },
        {
          "ticks": 3988,
          "time": 5.192708333333333,
          "value": 0.8802490234375
        },
        {
          "ticks": 4000,
          "time": 5.208333333333333,
          "value": 0.9998779296875
        },
        {
          "ticks": 4672,
          "time": 6.083333333333333,
          "value": 0.489013671875
        },
        {
          "ticks": 4684,
          "time": 6.098958333333333,
          "value": 0
        },
        {
          "ticks": 5020,
          "time": 6.536458333333333,
          "value": 0.3260498046875
        },
        {
          "ticks": 5028,
          "time": 6.546875,
          "value": 0.9454345703125
        },
        {
          "ticks": 5040,
          "time": 6.5625,
          "value": 0.9998779296875
        },
        {
          "ticks": 5306,
          "time": 6.908854166666667,
          "value": 0.3912353515625
        },
        {
          "ticks": 5320,
          "time": 6.927083333333333,
          "value": 0
        },
        {
          "ticks": 6944,
          "time": 9.041666666666666,
          "value": 0.1087646484375
        },
        {
          "ticks": 6960,
          "time": 9.0625,
          "value": 0.7281494140625
        },
        {
          "ticks": 6968,
          "time": 9.072916666666666,
          "value": 0.9998779296875
        },
        {
          "ticks": 7138,
          "time": 9.294270833333334,
          "value": 0.6302490234375
        },
        {
          "ticks": 7152,
          "time": 9.3125,
          "value": 0
        },
        {
          "ticks": 8124,
          "time": 10.578125,
          "value": 0.5867919921875
        },
        {
          "ticks": 8136,
          "time": 10.59375,
          "value": 0.9998779296875
        },
        {
          "ticks": 8294,
          "time": 10.799479166666666,
          "value": 0.9888916015625
        },
        {
          "ticks": 8306,
          "time": 10.815104166666666,
          "value": 0.1739501953125
        },
        {
          "ticks": 8316,
          "time": 10.828125,
          "value": 0
        },
        {
          "ticks": 10120,
          "time": 13.177083333333334,
          "value": 0.3912353515625
        },
        {
          "ticks": 10132,
          "time": 13.192708333333334,
          "value": 0.8802490234375
        },
        {
          "ticks": 10144,
          "time": 13.208333333333334,
          "value": 0.9998779296875
        },
        {
          "ticks": 10816,
          "time": 14.083333333333334,
          "value": 0.489013671875
        },
        {
          "ticks": 10828,
          "time": 14.098958333333334,
          "value": 0
        },
        {
          "ticks": 11164,
          "time": 14.536458333333334,
          "value": 0.3260498046875
        },
        {
          "ticks": 11172,
          "time": 14.546875,
          "value": 0.9454345703125
        },
        {
          "ticks": 11184,
          "time": 14.5625,
          "value": 0.9998779296875
        },
        {
          "ticks": 11450,
          "time": 14.908854166666666,
          "value": 0.3912353515625
        },
        {
          "ticks": 11464,
          "time": 14.927083333333334,
          "value": 0
        },
        {
          "ticks": 13088,
          "time": 17.041666666666668,
          "value": 0.1087646484375
        },
        {
          "ticks": 13104,
          "time": 17.0625,
          "value": 0.7281494140625
        },
        {
          "ticks": 13112,
          "time": 17.072916666666668,
          "value": 0.9998779296875
        },
        {
          "ticks": 13282,
          "time": 17.294270833333332,
          "value": 0.6302490234375
        },
        {
          "ticks": 13296,
          "time": 17.3125,
          "value": 0
        },
        {
          "ticks": 14268,
          "time": 18.578125,
          "value": 0.5867919921875
        },
        {
          "ticks": 14280,
          "time": 18.59375,
          "value": 0.9998779296875
        },
        {
          "ticks": 14438,
          "time": 18.799479166666668,
          "value": 0.9888916015625
        },
        {
          "ticks": 14450,
          "time": 18.815104166666668,
          "value": 0.1739501953125
        },
        {
          "ticks": 14460,
          "time": 18.828125,
          "value": 0
        },
        {
          "ticks": 16264,
          "time": 21.177083333333332,
          "value": 0.3912353515625
        },
        {
          "ticks": 16276,
          "time": 21.192708333333332,
          "value": 0.8802490234375
        },
        {
          "ticks": 16288,
          "time": 21.208333333333332,
          "value": 0.9998779296875
        },
        {
          "ticks": 16960,
          "time": 22.083333333333332,
          "value": 0.489013671875
        },
        {
          "ticks": 16972,
          "time": 22.098958333333332,
          "value": 0
        },
        {
          "ticks": 17308,
          "time": 22.536458333333332,
          "value": 0.3260498046875
        },
        {
          "ticks": 17316,
          "time": 22.546875,
          "value": 0.9454345703125
        },
        {
          "ticks": 17328,
          "time": 22.5625,
          "value": 0.9998779296875
        },
        {
          "ticks": 17594,
          "time": 22.908854166666668,
          "value": 0.3912353515625
        },
        {
          "ticks": 17608,
          "time": 22.927083333333332,
          "value": 0
        },
        {
          "ticks": 19232,
          "time": 25.041666666666668,
          "value": 0.1087646484375
        },
        {
          "ticks": 19248,
          "time": 25.0625,
          "value": 0.7281494140625
        },
        {
          "ticks": 19256,
          "time": 25.072916666666668,
          "value": 0.9998779296875
        },
        {
          "ticks": 19426,
          "time": 25.294270833333332,
          "value": 0.6302490234375
        },
        {
          "ticks": 19440,
          "time": 25.3125,
          "value": 0
        },
        {
          "ticks": 20412,
          "time": 26.578125,
          "value": 0.5867919921875
        },
        {
          "ticks": 20424,
          "time": 26.59375,
          "value": 0.9998779296875
        },
        {
          "ticks": 20582,
          "time": 26.799479166666668,
          "value": 0.9888916015625
        },
        {
          "ticks": 20594,
          "time": 26.815104166666668,
          "value": 0.1739501953125
        },
        {
          "ticks": 20604,
          "time": 26.828125,
          "value": 0
        },
        {
          "ticks": 46984,
          "time": 61.177083333333336,
          "value": 0.3912353515625
        },
        {
          "ticks": 46996,
          "time": 61.192708333333336,
          "value": 0.8802490234375
        },
        {
          "ticks": 47008,
          "time": 61.208333333333336,
          "value": 0.9998779296875
        },
        {
          "ticks": 47680,
          "time": 62.083333333333336,
          "value": 0.489013671875
        },
        {
          "ticks": 47692,
          "time": 62.098958333333336,
          "value": 0
        },
        {
          "ticks": 48028,
          "time": 62.536458333333336,
          "value": 0.3260498046875
        },
        {
          "ticks": 48036,
          "time": 62.546875,
          "value": 0.9454345703125
        },
        {
          "ticks": 48048,
          "time": 62.5625,
          "value": 0.9998779296875
        },
        {
          "ticks": 48314,
          "time": 62.908854166666664,
          "value": 0.3912353515625
        },
        {
          "ticks": 48328,
          "time": 62.927083333333336,
          "value": 0
        },
        {
          "ticks": 49952,
          "time": 65.04166666666667,
          "value": 0.1087646484375
        },
        {
          "ticks": 49968,
          "time": 65.0625,
          "value": 0.7281494140625
        },
        {
          "ticks": 49976,
          "time": 65.07291666666667,
          "value": 0.9998779296875
        },
        {
          "ticks": 50146,
          "time": 65.29427083333333,
          "value": 0.6302490234375
        },
        {
          "ticks": 50160,
          "time": 65.3125,
          "value": 0
        },
        {
          "ticks": 51132,
          "time": 66.578125,
          "value": 0.5867919921875
        },
        {
          "ticks": 51144,
          "time": 66.59375,
          "value": 0.9998779296875
        },
        {
          "ticks": 51302,
          "time": 66.79947916666667,
          "value": 0.9888916015625
        },
        {
          "ticks": 51314,
          "time": 66.81510416666667,
          "value": 0.1739501953125
        },
        {
          "ticks": 51324,
          "time": 66.828125,
          "value": 0
        },
        {
          "ticks": 53128,
          "time": 69.17708333333333,
          "value": 0.3912353515625
        },
        {
          "ticks": 53140,
          "time": 69.19270833333333,
          "value": 0.8802490234375
        },
        {
          "ticks": 53152,
          "time": 69.20833333333333,
          "value": 0.9998779296875
        },
        {
          "ticks": 53824,
          "time": 70.08333333333333,
          "value": 0.489013671875
        },
        {
          "ticks": 53836,
          "time": 70.09895833333333,
          "value": 0
        },
        {
          "ticks": 54172,
          "time": 70.53645833333333,
          "value": 0.3260498046875
        },
        {
          "ticks": 54180,
          "time": 70.546875,
          "value": 0.9454345703125
        },
        {
          "ticks": 54192,
          "time": 70.5625,
          "value": 0.9998779296875
        },
        {
          "ticks": 54458,
          "time": 70.90885416666667,
          "value": 0.3912353515625
        },
        {
          "ticks": 54472,
          "time": 70.92708333333333,
          "value": 0
        },
        {
          "ticks": 56096,
          "time": 73.04166666666667,
          "value": 0.1087646484375
        },
        {
          "ticks": 56112,
          "time": 73.0625,
          "value": 0.7281494140625
        },
        {
          "ticks": 56120,
          "time": 73.07291666666667,
          "value": 0.9998779296875
        },
        {
          "ticks": 56290,
          "time": 73.29427083333333,
          "value": 0.6302490234375
        },
        {
          "ticks": 56304,
          "time": 73.3125,
          "value": 0
        },
        {
          "ticks": 57276,
          "time": 74.578125,
          "value": 0.5867919921875
        },
        {
          "ticks": 57288,
          "time": 74.59375,
          "value": 0.9998779296875
        },
        {
          "ticks": 57446,
          "time": 74.79947916666667,
          "value": 0.9888916015625
        },
        {
          "ticks": 57458,
          "time": 74.81510416666667,
          "value": 0.1739501953125
        },
        {
          "ticks": 57468,
          "time": 74.828125,
          "value": 0
        },
        {
          "ticks": 83848,
          "time": 109.17708333333333,
          "value": 0.3912353515625
        },
        {
          "ticks": 83860,
          "time": 109.19270833333333,
          "value": 0.8802490234375
        },
        {
          "ticks": 83872,
          "time": 109.20833333333333,
          "value": 0.9998779296875
        },
        {
          "ticks": 84544,
          "time": 110.08333333333333,
          "value": 0.489013671875
        },
        {
          "ticks": 84556,
          "time": 110.09895833333333,
          "value": 0
        },
        {
          "ticks": 84892,
          "time": 110.53645833333333,
          "value": 0.3260498046875
        },
        {
          "ticks": 84900,
          "time": 110.546875,
          "value": 0.9454345703125
        },
        {
          "ticks": 84912,
          "time": 110.5625,
          "value": 0.9998779296875
        },
        {
          "ticks": 85178,
          "time": 110.90885416666667,
          "value": 0.3912353515625
        },
        {
          "ticks": 85192,
          "time": 110.92708333333333,
          "value": 0
        },
        {
          "ticks": 86816,
          "time": 113.04166666666667,
          "value": 0.1087646484375
        },
        {
          "ticks": 86832,
          "time": 113.0625,
          "value": 0.7281494140625
        },
        {
          "ticks": 86840,
          "time": 113.07291666666667,
          "value": 0.9998779296875
        },
        {
          "ticks": 87010,
          "time": 113.29427083333333,
          "value": 0.6302490234375
        },
        {
          "ticks": 87024,
          "time": 113.3125,
          "value": 0
        },
        {
          "ticks": 87996,
          "time": 114.578125,
          "value": 0.5867919921875
        },
        {
          "ticks": 88008,
          "time": 114.59375,
          "value": 0.9998779296875
        },
        {
          "ticks": 88166,
          "time": 114.79947916666667,
          "value": 0.9888916015625
        },
        {
          "ticks": 88178,
          "time": 114.81510416666667,
          "value": 0.1739501953125
        },
        {
          "ticks": 88188,
          "time": 114.828125,
          "value": 0
        },
        {
          "ticks": 89992,
          "time": 117.17708333333333,
          "value": 0.3912353515625
        },
        {
          "ticks": 90004,
          "time": 117.19270833333333,
          "value": 0.8802490234375
        },
        {
          "ticks": 90016,
          "time": 117.20833333333333,
          "value": 0.9998779296875
        },
        {
          "ticks": 90688,
          "time": 118.08333333333333,
          "value": 0.489013671875
        },
        {
          "ticks": 90700,
          "time": 118.09895833333333,
          "value": 0
        },
        {
          "ticks": 91036,
          "time": 118.53645833333333,
          "value": 0.3260498046875
        },
        {
          "ticks": 91044,
          "time": 118.546875,
          "value": 0.9454345703125
        },
        {
          "ticks": 91056,
          "time": 118.5625,
          "value": 0.9998779296875
        },
        {
          "ticks": 91322,
          "time": 118.90885416666667,
          "value": 0.3912353515625
        },
        {
          "ticks": 91336,
          "time": 118.92708333333333,
          "value": 0
        },
        {
          "ticks": 92960,
          "time": 121.04166666666667,
          "value": 0.1087646484375
        },
        {
          "ticks": 92976,
          "time": 121.0625,
          "value": 0.7281494140625
        },
        {
          "ticks": 92984,
          "time": 121.07291666666667,
          "value": 0.9998779296875
        },
        {
          "ticks": 93154,
          "time": 121.29427083333333,
          "value": 0.6302490234375
        },
        {
          "ticks": 93168,
          "time": 121.3125,
          "value": 0
        },
        {
          "ticks": 94140,
          "time": 122.578125,
          "value": 0.5867919921875
        },
        {
          "ticks": 94152,
          "time": 122.59375,
          "value": 0.9998779296875
        },
        {
          "ticks": 94310,
          "time": 122.79947916666667,
          "value": 0.9888916015625
        },
        {
          "ticks": 94322,
          "time": 122.81510416666667,
          "value": 0.1739501953125
        },
        {
          "ticks": 94332,
          "time": 122.828125,
          "value": 0
        },
        {
          "ticks": 108424,
          "time": 141.17708333333334,
          "value": 0.3912353515625
        },
        {
          "ticks": 108436,
          "time": 141.19270833333334,
          "value": 0.8802490234375
        },
        {
          "ticks": 108448,
          "time": 141.20833333333334,
          "value": 0.9998779296875
        },
        {
          "ticks": 109120,
          "time": 142.08333333333334,
          "value": 0.489013671875
        },
        {
          "ticks": 109132,
          "time": 142.09895833333334,
          "value": 0
        },
        {
          "ticks": 109468,
          "time": 142.53645833333334,
          "value": 0.3260498046875
        },
        {
          "ticks": 109476,
          "time": 142.546875,
          "value": 0.9454345703125
        },
        {
          "ticks": 109488,
          "time": 142.5625,
          "value": 0.9998779296875
        },
        {
          "ticks": 109754,
          "time": 142.90885416666666,
          "value": 0.3912353515625
        },
        {
          "ticks": 109768,
          "time": 142.92708333333334,
          "value": 0
        },
        {
          "ticks": 111392,
          "time": 145.04166666666666,
          "value": 0.1087646484375
        },
        {
          "ticks": 111408,
          "time": 145.0625,
          "value": 0.7281494140625
        },
        {
          "ticks": 111416,
          "time": 145.07291666666666,
          "value": 0.9998779296875
        },
        {
          "ticks": 111586,
          "time": 145.29427083333334,
          "value": 0.6302490234375
        },
        {
          "ticks": 111600,
          "time": 145.3125,
          "value": 0
        },
        {
          "ticks": 112572,
          "time": 146.578125,
          "value": 0.5867919921875
        },
        {
          "ticks": 112584,
          "time": 146.59375,
          "value": 0.9998779296875
        },
        {
          "ticks": 112742,
          "time": 146.79947916666666,
          "value": 0.9888916015625
        },
        {
          "ticks": 112754,
          "time": 146.81510416666666,
          "value": 0.1739501953125
        },
        {
          "ticks": 112764,
          "time": 146.828125,
          "value": 0
        },
        {
          "ticks": 114568,
          "time": 149.17708333333334,
          "value": 0.3912353515625
        },
        {
          "ticks": 114580,
          "time": 149.19270833333334,
          "value": 0.8802490234375
        },
        {
          "ticks": 114592,
          "time": 149.20833333333334,
          "value": 0.9998779296875
        },
        {
          "ticks": 115264,
          "time": 150.08333333333334,
          "value": 0.489013671875
        },
        {
          "ticks": 115276,
          "time": 150.09895833333334,
          "value": 0
        },
        {
          "ticks": 115612,
          "time": 150.53645833333334,
          "value": 0.3260498046875
        },
        {
          "ticks": 115620,
          "time": 150.546875,
          "value": 0.9454345703125
        },
        {
          "ticks": 115632,
          "time": 150.5625,
          "value": 0.9998779296875
        },
        {
          "ticks": 115898,
          "time": 150.90885416666666,
          "value": 0.3912353515625
        },
        {
          "ticks": 115912,
          "time": 150.92708333333334,
          "value": 0
        },
        {
          "ticks": 117536,
          "time": 153.04166666666666,
          "value": 0.1087646484375
        },
        {
          "ticks": 117552,
          "time": 153.0625,
          "value": 0.7281494140625
        },
        {
          "ticks": 117560,
          "time": 153.07291666666666,
          "value": 0.9998779296875
        },
        {
          "ticks": 117730,
          "time": 153.29427083333334,
          "value": 0.6302490234375
        },
        {
          "ticks": 117744,
          "time": 153.3125,
          "value": 0
        },
        {
          "ticks": 118716,
          "time": 154.578125,
          "value": 0.5867919921875
        },
        {
          "ticks": 118728,
          "time": 154.59375,
          "value": 0.9998779296875
        },
        {
          "ticks": 118886,
          "time": 154.79947916666666,
          "value": 0.9888916015625
        },
        {
          "ticks": 118898,
          "time": 154.81510416666666,
          "value": 0.1739501953125
        },
        {
          "ticks": 118908,
          "time": 154.828125,
          "value": 0
        },
        {
          "ticks": 120712,
          "time": 157.17708333333334,
          "value": 0.3912353515625
        },
        {
          "ticks": 120724,
          "time": 157.19270833333334,
          "value": 0.8802490234375
        },
        {
          "ticks": 120736,
          "time": 157.20833333333334,
          "value": 0.9998779296875
        },
        {
          "ticks": 121408,
          "time": 158.08333333333334,
          "value": 0.489013671875
        },
        {
          "ticks": 121420,
          "time": 158.09895833333334,
          "value": 0
        },
        {
          "ticks": 121756,
          "time": 158.53645833333334,
          "value": 0.3260498046875
        },
        {
          "ticks": 121764,
          "time": 158.546875,
          "value": 0.9454345703125
        },
        {
          "ticks": 121776,
          "time": 158.5625,
          "value": 0.9998779296875
        },
        {
          "ticks": 122042,
          "time": 158.90885416666666,
          "value": 0.3912353515625
        },
        {
          "ticks": 122056,
          "time": 158.92708333333334,
          "value": 0
        },
        {
          "ticks": 123680,
          "time": 161.04166666666666,
          "value": 0.1087646484375
        },
        {
          "ticks": 123696,
          "time": 161.0625,
          "value": 0.7281494140625
        },
        {
          "ticks": 123704,
          "time": 161.07291666666666,
          "value": 0.9998779296875
        },
        {
          "ticks": 123874,
          "time": 161.29427083333334,
          "value": 0.6302490234375
        },
        {
          "ticks": 123888,
          "time": 161.3125,
          "value": 0
        },
        {
          "ticks": 124860,
          "time": 162.578125,
          "value": 0.5867919921875
        },
        {
          "ticks": 124872,
          "time": 162.59375,
          "value": 0.9998779296875
        },
        {
          "ticks": 125030,
          "time": 162.79947916666666,
          "value": 0.9888916015625
        },
        {
          "ticks": 125042,
          "time": 162.81510416666666,
          "value": 0.1739501953125
        },
        {
          "ticks": 125052,
          "time": 162.828125,
          "value": 0
        },
        {
          "ticks": 126856,
          "time": 165.17708333333334,
          "value": 0.3912353515625
        },
        {
          "ticks": 126868,
          "time": 165.19270833333334,
          "value": 0.8802490234375
        },
        {
          "ticks": 126880,
          "time": 165.20833333333334,
          "value": 0.9998779296875
        },
        {
          "ticks": 127552,
          "time": 166.08333333333334,
          "value": 0.489013671875
        },
        {
          "ticks": 127564,
          "time": 166.09895833333334,
          "value": 0
        },
        {
          "ticks": 127900,
          "time": 166.53645833333334,
          "value": 0.3260498046875
        },
        {
          "ticks": 127908,
          "time": 166.546875,
          "value": 0.9454345703125
        },
        {
          "ticks": 127920,
          "time": 166.5625,
          "value": 0.9998779296875
        },
        {
          "ticks": 128186,
          "time": 166.90885416666666,
          "value": 0.3912353515625
        },
        {
          "ticks": 128200,
          "time": 166.92708333333334,
          "value": 0
        },
        {
          "ticks": 129824,
          "time": 169.04166666666666,
          "value": 0.1087646484375
        },
        {
          "ticks": 129840,
          "time": 169.0625,
          "value": 0.7281494140625
        },
        {
          "ticks": 129848,
          "time": 169.07291666666666,
          "value": 0.9998779296875
        },
        {
          "ticks": 130018,
          "time": 169.29427083333334,
          "value": 0.6302490234375
        },
        {
          "ticks": 130032,
          "time": 169.3125,
          "value": 0
        },
        {
          "ticks": 131004,
          "time": 170.578125,
          "value": 0.5867919921875
        },
        {
          "ticks": 131016,
          "time": 170.59375,
          "value": 0.9998779296875
        },
        {
          "ticks": 131174,
          "time": 170.79947916666666,
          "value": 0.9888916015625
        },
        {
          "ticks": 131186,
          "time": 170.81510416666666,
          "value": 0.1739501953125
        },
        {
          "ticks": 131196,
          "time": 170.828125,
          "value": 0
        }
      ],
      "instrument": {
        "family": "guitar",
        "number": 24,
        "name": "acoustic guitar (nylon)"
      },
      "name": "",
      "notes": [
        {
          "duration": 0.390625,
          "durationTicks": 300,
          "midi": 72,
          "name": "C5",
          "ticks": 3456,
          "time": 4.5,
          "velocity": 0.9291338582677166
        },
        {
          "duration": 0.35416666666666696,
          "durationTicks": 272,
          "midi": 60,
          "name": "C4",
          "ticks": 3456,
          "time": 4.5,
          "velocity": 0.9291338582677166
        },
        {
          "duration": 0.809895833333333,
          "durationTicks": 622,
          "midi": 74,
          "name": "D5",
          "ticks": 3840,
          "time": 5,
          "velocity": 0.9291338582677166
        },
        {
          "duration": 0.809895833333333,
          "durationTicks": 622,
          "midi": 62,
          "name": "D4",
          "ticks": 3840,
          "time": 5,
          "velocity": 0.9291338582677166
        },
        {
          "duration": 0.38541666666666696,
          "durationTicks": 296,
          "midi": 62,
          "name": "D4",
          "ticks": 4992,
          "time": 6.5,
          "velocity": 0.9291338582677166
        },
        {
          "duration": 0.37760416666666696,
          "durationTicks": 290,
          "midi": 74,
          "name": "D5",
          "ticks": 4992,
          "time": 6.5,
          "velocity": 0.9291338582677166
        },
        {
          "duration": 0.8125,
          "durationTicks": 624,
          "midi": 60,
          "name": "C4",
          "ticks": 5376,
          "time": 7,
          "velocity": 0.9291338582677166
        },
        {
          "duration": 0.838541666666667,
          "durationTicks": 644,
          "midi": 72,
          "name": "C5",
          "ticks": 5376,
          "time": 7,
          "velocity": 0.9291338582677166
        },
        {
          "duration": 0.1015625,
          "durationTicks": 78,
          "midi": 72,
          "name": "C5",
          "ticks": 6528,
          "time": 8.5,
          "velocity": 0.9291338582677166
        },
        {
          "duration": 0.08854166666666607,
          "durationTicks": 68,
          "midi": 60,
          "name": "C4",
          "ticks": 6528,
          "time": 8.5,
          "velocity": 0.9291338582677166
        },
        {
          "duration": 0.06770833333333393,
          "durationTicks": 52,
          "midi": 60,
          "name": "C4",
          "ticks": 6720,
          "time": 8.75,
          "velocity": 0.9291338582677166
        },
        {
          "duration": 0.09375,
          "durationTicks": 72,
          "midi": 72,
          "name": "C5",
          "ticks": 6720,
          "time": 8.75,
          "velocity": 0.9291338582677166
        },
        {
          "duration": 0.3020833333333339,
          "durationTicks": 232,
          "midi": 74,
          "name": "D5",
          "ticks": 6912,
          "time": 9,
          "velocity": 0.9291338582677166
        },
        {
          "duration": 0.3177083333333339,
          "durationTicks": 244,
          "midi": 62,
          "name": "D4",
          "ticks": 6912,
          "time": 9,
          "velocity": 0.9291338582677166
        },
        {
          "duration": 0.4609375,
          "durationTicks": 354,
          "midi": 60,
          "name": "C4",
          "ticks": 7296,
          "time": 9.5,
          "velocity": 0.9291338582677166
        },
        {
          "duration": 0.5104166666666661,
          "durationTicks": 392,
          "midi": 72,
          "name": "C5",
          "ticks": 7296,
          "time": 9.5,
          "velocity": 0.9291338582677166
        },
        {
          "duration": 0.3072916666666661,
          "durationTicks": 236,
          "midi": 62,
          "name": "D4",
          "ticks": 8064,
          "time": 10.5,
          "velocity": 0.9291338582677166
        },
        {
          "duration": 0.3046875,
          "durationTicks": 234,
          "midi": 74,
          "name": "D5",
          "ticks": 8064,
          "time": 10.5,
          "velocity": 0.9291338582677166
        },
        {
          "duration": 0.5208333333333339,
          "durationTicks": 400,
          "midi": 60,
          "name": "C4",
          "ticks": 8448,
          "time": 11,
          "velocity": 0.9291338582677166
        },
        {
          "duration": 0.5651041666666661,
          "durationTicks": 434,
          "midi": 72,
          "name": "C5",
          "ticks": 8448,
          "time": 11,
          "velocity": 0.9291338582677166
        },
        {
          "duration": 0.390625,
          "durationTicks": 300,
          "midi": 72,
          "name": "C5",
          "ticks": 9600,
          "time": 12.5,
          "velocity": 0.9291338582677166
        },
        {
          "duration": 0.3541666666666661,
          "durationTicks": 272,
          "midi": 60,
          "name": "C4",
          "ticks": 9600,
          "time": 12.5,
          "velocity": 0.9291338582677166
        },
        {
          "duration": 0.8098958333333339,
          "durationTicks": 622,
          "midi": 74,
          "name": "D5",
          "ticks": 9984,
          "time": 13,
          "velocity": 0.9291338582677166
        },
        {
          "duration": 0.8098958333333339,
          "durationTicks": 622,
          "midi": 62,
          "name": "D4",
          "ticks": 9984,
          "time": 13,
          "velocity": 0.9291338582677166
        },
        {
          "duration": 0.3854166666666661,
          "durationTicks": 296,
          "midi": 62,
          "name": "D4",
          "ticks": 11136,
          "time": 14.5,
          "velocity": 0.9291338582677166
        },
        {
          "duration": 0.3776041666666661,
          "durationTicks": 290,
          "midi": 74,
          "name": "D5",
          "ticks": 11136,
          "time": 14.5,
          "velocity": 0.9291338582677166
        },
        {
          "duration": 0.8125,
          "durationTicks": 624,
          "midi": 60,
          "name": "C4",
          "ticks": 11520,
          "time": 15,
          "velocity": 0.9291338582677166
        },
        {
          "duration": 0.8385416666666661,
          "durationTicks": 644,
          "midi": 72,
          "name": "C5",
          "ticks": 11520,
          "time": 15,
          "velocity": 0.9291338582677166
        },
        {
          "duration": 0.1015625,
          "durationTicks": 78,
          "midi": 72,
          "name": "C5",
          "ticks": 12672,
          "time": 16.5,
          "velocity": 0.9291338582677166
        },
        {
          "duration": 0.08854166666666785,
          "durationTicks": 68,
          "midi": 60,
          "name": "C4",
          "ticks": 12672,
          "time": 16.5,
          "velocity": 0.9291338582677166
        },
        {
          "duration": 0.06770833333333215,
          "durationTicks": 52,
          "midi": 60,
          "name": "C4",
          "ticks": 12864,
          "time": 16.75,
          "velocity": 0.9291338582677166
        },
        {
          "duration": 0.09375,
          "durationTicks": 72,
          "midi": 72,
          "name": "C5",
          "ticks": 12864,
          "time": 16.75,
          "velocity": 0.9291338582677166
        },
        {
          "duration": 0.30208333333333215,
          "durationTicks": 232,
          "midi": 74,
          "name": "D5",
          "ticks": 13056,
          "time": 17,
          "velocity": 0.9291338582677166
        },
        {
          "duration": 0.31770833333333215,
          "durationTicks": 244,
          "midi": 62,
          "name": "D4",
          "ticks": 13056,
          "time": 17,
          "velocity": 0.9291338582677166
        },
        {
          "duration": 0.4609375,
          "durationTicks": 354,
          "midi": 60,
          "name": "C4",
          "ticks": 13440,
          "time": 17.5,
          "velocity": 0.9291338582677166
        },
        {
          "duration": 0.5104166666666679,
          "durationTicks": 392,
          "midi": 72,
          "name": "C5",
          "ticks": 13440,
          "time": 17.5,
          "velocity": 0.9291338582677166
        },
        {
          "duration": 0.30729166666666785,
          "durationTicks": 236,
          "midi": 62,
          "name": "D4",
          "ticks": 14208,
          "time": 18.5,
          "velocity": 0.9291338582677166
        },
        {
          "duration": 0.3046875,
          "durationTicks": 234,
          "midi": 74,
          "name": "D5",
          "ticks": 14208,
          "time": 18.5,
          "velocity": 0.9291338582677166
        },
        {
          "duration": 0.5208333333333321,
          "durationTicks": 400,
          "midi": 60,
          "name": "C4",
          "ticks": 14592,
          "time": 19,
          "velocity": 0.9291338582677166
        },
        {
          "duration": 0.5651041666666679,
          "durationTicks": 434,
          "midi": 72,
          "name": "C5",
          "ticks": 14592,
          "time": 19,
          "velocity": 0.9291338582677166
        },
        {
          "duration": 0.390625,
          "durationTicks": 300,
          "midi": 72,
          "name": "C5",
          "ticks": 15744,
          "time": 20.5,
          "velocity": 0.9291338582677166
        },
        {
          "duration": 0.35416666666666785,
          "durationTicks": 272,
          "midi": 60,
          "name": "C4",
          "ticks": 15744,
          "time": 20.5,
          "velocity": 0.9291338582677166
        },
        {
          "duration": 0.8098958333333321,
          "durationTicks": 622,
          "midi": 74,
          "name": "D5",
          "ticks": 16128,
          "time": 21,
          "velocity": 0.9291338582677166
        },
        {
          "duration": 0.8098958333333321,
          "durationTicks": 622,
          "midi": 62,
          "name": "D4",
          "ticks": 16128,
          "time": 21,
          "velocity": 0.9291338582677166
        },
        {
          "duration": 0.38541666666666785,
          "durationTicks": 296,
          "midi": 62,
          "name": "D4",
          "ticks": 17280,
          "time": 22.5,
          "velocity": 0.9291338582677166
        },
        {
          "duration": 0.37760416666666785,
          "durationTicks": 290,
          "midi": 74,
          "name": "D5",
          "ticks": 17280,
          "time": 22.5,
          "velocity": 0.9291338582677166
        },
        {
          "duration": 0.8125,
          "durationTicks": 624,
          "midi": 60,
          "name": "C4",
          "ticks": 17664,
          "time": 23,
          "velocity": 0.9291338582677166
        },
        {
          "duration": 0.8385416666666679,
          "durationTicks": 644,
          "midi": 72,
          "name": "C5",
          "ticks": 17664,
          "time": 23,
          "velocity": 0.9291338582677166
        },
        {
          "duration": 0.1015625,
          "durationTicks": 78,
          "midi": 72,
          "name": "C5",
          "ticks": 18816,
          "time": 24.5,
          "velocity": 0.9291338582677166
        },
        {
          "duration": 0.08854166666666785,
          "durationTicks": 68,
          "midi": 60,
          "name": "C4",
          "ticks": 18816,
          "time": 24.5,
          "velocity": 0.9291338582677166
        },
        {
          "duration": 0.06770833333333215,
          "durationTicks": 52,
          "midi": 60,
          "name": "C4",
          "ticks": 19008,
          "time": 24.75,
          "velocity": 0.9291338582677166
        },
        {
          "duration": 0.09375,
          "durationTicks": 72,
          "midi": 72,
          "name": "C5",
          "ticks": 19008,
          "time": 24.75,
          "velocity": 0.9291338582677166
        },
        {
          "duration": 0.30208333333333215,
          "durationTicks": 232,
          "midi": 74,
          "name": "D5",
          "ticks": 19200,
          "time": 25,
          "velocity": 0.9291338582677166
        },
        {
          "duration": 0.31770833333333215,
          "durationTicks": 244,
          "midi": 62,
          "name": "D4",
          "ticks": 19200,
          "time": 25,
          "velocity": 0.9291338582677166
        },
        {
          "duration": 0.4609375,
          "durationTicks": 354,
          "midi": 60,
          "name": "C4",
          "ticks": 19584,
          "time": 25.5,
          "velocity": 0.9291338582677166
        },
        {
          "duration": 0.5104166666666679,
          "durationTicks": 392,
          "midi": 72,
          "name": "C5",
          "ticks": 19584,
          "time": 25.5,
          "velocity": 0.9291338582677166
        },
        {
          "duration": 0.30729166666666785,
          "durationTicks": 236,
          "midi": 62,
          "name": "D4",
          "ticks": 20352,
          "time": 26.5,
          "velocity": 0.9291338582677166
        },
        {
          "duration": 0.3046875,
          "durationTicks": 234,
          "midi": 74,
          "name": "D5",
          "ticks": 20352,
          "time": 26.5,
          "velocity": 0.9291338582677166
        },
        {
          "duration": 0.5208333333333321,
          "durationTicks": 400,
          "midi": 60,
          "name": "C4",
          "ticks": 20736,
          "time": 27,
          "velocity": 0.9291338582677166
        },
        {
          "duration": 0.5651041666666679,
          "durationTicks": 434,
          "midi": 72,
          "name": "C5",
          "ticks": 20736,
          "time": 27,
          "velocity": 0.9291338582677166
        },
        {
          "duration": 0.05208333333333215,
          "durationTicks": 40,
          "midi": 55,
          "name": "G3",
          "ticks": 21504,
          "time": 28,
          "velocity": 0.7716535433070866
        },
        {
          "duration": 0.06770833333333215,
          "durationTicks": 52,
          "midi": 59,
          "name": "B3",
          "ticks": 21504,
          "time": 28,
          "velocity": 0.8661417322834646
        },
        {
          "duration": 0.09635416666666785,
          "durationTicks": 74,
          "midi": 62,
          "name": "D4",
          "ticks": 21504,
          "time": 28,
          "velocity": 0.84251968503937
        },
        {
          "duration": 0.06510416666666785,
          "durationTicks": 50,
          "midi": 55,
          "name": "G3",
          "ticks": 21888,
          "time": 28.5,
          "velocity": 0.7165354330708661
        },
        {
          "duration": 0.07552083333333215,
          "durationTicks": 58,
          "midi": 59,
          "name": "B3",
          "ticks": 21888,
          "time": 28.5,
          "velocity": 0.8661417322834646
        },
        {
          "duration": 0.08854166666666785,
          "durationTicks": 68,
          "midi": 62,
          "name": "D4",
          "ticks": 21888,
          "time": 28.5,
          "velocity": 0.8267716535433071
        },
        {
          "duration": 0.0625,
          "durationTicks": 48,
          "midi": 55,
          "name": "G3",
          "ticks": 22272,
          "time": 29,
          "velocity": 0.7480314960629921
        },
        {
          "duration": 0.05729166666666785,
          "durationTicks": 44,
          "midi": 59,
          "name": "B3",
          "ticks": 22272,
          "time": 29,
          "velocity": 0.8267716535433071
        },
        {
          "duration": 0.07291666666666785,
          "durationTicks": 56,
          "midi": 62,
          "name": "D4",
          "ticks": 22272,
          "time": 29,
          "velocity": 0.8031496062992126
        },
        {
          "duration": 0.05989583333333215,
          "durationTicks": 46,
          "midi": 55,
          "name": "G3",
          "ticks": 22656,
          "time": 29.5,
          "velocity": 0.7165354330708661
        },
        {
          "duration": 0.0546875,
          "durationTicks": 42,
          "midi": 59,
          "name": "B3",
          "ticks": 22656,
          "time": 29.5,
          "velocity": 0.8031496062992126
        },
        {
          "duration": 0.07291666666666785,
          "durationTicks": 56,
          "midi": 62,
          "name": "D4",
          "ticks": 22656,
          "time": 29.5,
          "velocity": 0.8031496062992126
        },
        {
          "duration": 0.0546875,
          "durationTicks": 42,
          "midi": 59,
          "name": "B3",
          "ticks": 23040,
          "time": 30,
          "velocity": 0.7716535433070866
        },
        {
          "duration": 0.06770833333333215,
          "durationTicks": 52,
          "midi": 55,
          "name": "G3",
          "ticks": 23040,
          "time": 30,
          "velocity": 0.6692913385826772
        },
        {
          "duration": 0.08072916666666785,
          "durationTicks": 62,
          "midi": 62,
          "name": "D4",
          "ticks": 23040,
          "time": 30,
          "velocity": 0.7874015748031497
        },
        {
          "duration": 0.0546875,
          "durationTicks": 42,
          "midi": 59,
          "name": "B3",
          "ticks": 23424,
          "time": 30.5,
          "velocity": 0.8031496062992126
        },
        {
          "duration": 0.05989583333333215,
          "durationTicks": 46,
          "midi": 55,
          "name": "G3",
          "ticks": 23424,
          "time": 30.5,
          "velocity": 0.7322834645669292
        },
        {
          "duration": 0.07291666666666785,
          "durationTicks": 56,
          "midi": 62,
          "name": "D4",
          "ticks": 23424,
          "time": 30.5,
          "velocity": 0.8031496062992126
        },
        {
          "duration": 0.05208333333333215,
          "durationTicks": 40,
          "midi": 55,
          "name": "G3",
          "ticks": 23808,
          "time": 31,
          "velocity": 0.6850393700787402
        },
        {
          "duration": 0.0546875,
          "durationTicks": 42,
          "midi": 62,
          "name": "D4",
          "ticks": 23808,
          "time": 31,
          "velocity": 0.7874015748031497
        },
        {
          "duration": 0.046875,
          "durationTicks": 36,
          "midi": 59,
          "name": "B3",
          "ticks": 23808,
          "time": 31,
          "velocity": 0.84251968503937
        },
        {
          "duration": 0.0546875,
          "durationTicks": 42,
          "midi": 59,
          "name": "B3",
          "ticks": 24000,
          "time": 31.25,
          "velocity": 0.8661417322834646
        },
        {
          "duration": 0.05989583333333215,
          "durationTicks": 46,
          "midi": 62,
          "name": "D4",
          "ticks": 24000,
          "time": 31.25,
          "velocity": 0.7716535433070866
        },
        {
          "duration": 0.06510416666666785,
          "durationTicks": 50,
          "midi": 55,
          "name": "G3",
          "ticks": 24000,
          "time": 31.25,
          "velocity": 0.7874015748031497
        },
        {
          "duration": 0.05729166666666785,
          "durationTicks": 44,
          "midi": 59,
          "name": "B3",
          "ticks": 24192,
          "time": 31.5,
          "velocity": 0.9133858267716536
        },
        {
          "duration": 0.06510416666666785,
          "durationTicks": 50,
          "midi": 55,
          "name": "G3",
          "ticks": 24192,
          "time": 31.5,
          "velocity": 0.8267716535433071
        },
        {
          "duration": 0.07291666666666785,
          "durationTicks": 56,
          "midi": 62,
          "name": "D4",
          "ticks": 24192,
          "time": 31.5,
          "velocity": 0.84251968503937
        },
        {
          "duration": 0.6119791666666643,
          "durationTicks": 470,
          "midi": 60,
          "name": "C4",
          "ticks": 24384,
          "time": 31.75,
          "velocity": 0.8661417322834646
        },
        {
          "duration": 0.6432291666666643,
          "durationTicks": 494,
          "midi": 57,
          "name": "A3",
          "ticks": 24384,
          "time": 31.75,
          "velocity": 0.9133858267716536
        },
        {
          "duration": 0.6276041666666643,
          "durationTicks": 482,
          "midi": 53,
          "name": "F3",
          "ticks": 24384,
          "time": 31.75,
          "velocity": 0.9133858267716536
        },
        {
          "duration": 0.078125,
          "durationTicks": 60,
          "midi": 60,
          "name": "C4",
          "ticks": 24960,
          "time": 32.5,
          "velocity": 0.84251968503937
        },
        {
          "duration": 0.0598958333333357,
          "durationTicks": 46,
          "midi": 53,
          "name": "F3",
          "ticks": 24960,
          "time": 32.5,
          "velocity": 0.8031496062992126
        },
        {
          "duration": 0.0625,
          "durationTicks": 48,
          "midi": 57,
          "name": "A3",
          "ticks": 24960,
          "time": 32.5,
          "velocity": 0.889763779527559
        },
        {
          "duration": 0.0651041666666643,
          "durationTicks": 50,
          "midi": 53,
          "name": "F3",
          "ticks": 25344,
          "time": 33,
          "velocity": 0.7165354330708661
        },
        {
          "duration": 0.0859375,
          "durationTicks": 66,
          "midi": 60,
          "name": "C4",
          "ticks": 25344,
          "time": 33,
          "velocity": 0.7874015748031497
        },
        {
          "duration": 0.0677083333333357,
          "durationTicks": 52,
          "midi": 57,
          "name": "A3",
          "ticks": 25344,
          "time": 33,
          "velocity": 0.8267716535433071
        },
        {
          "duration": 0.0625,
          "durationTicks": 48,
          "midi": 53,
          "name": "F3",
          "ticks": 25728,
          "time": 33.5,
          "velocity": 0.7322834645669292
        },
        {
          "duration": 0.0625,
          "durationTicks": 48,
          "midi": 57,
          "name": "A3",
          "ticks": 25728,
          "time": 33.5,
          "velocity": 0.7874015748031497
        },
        {
          "duration": 0.0833333333333357,
          "durationTicks": 64,
          "midi": 60,
          "name": "C4",
          "ticks": 25728,
          "time": 33.5,
          "velocity": 0.8267716535433071
        },
        {
          "duration": 0.0625,
          "durationTicks": 48,
          "midi": 53,
          "name": "F3",
          "ticks": 26112,
          "time": 34,
          "velocity": 0.7165354330708661
        },
        {
          "duration": 0.0572916666666643,
          "durationTicks": 44,
          "midi": 57,
          "name": "A3",
          "ticks": 26112,
          "time": 34,
          "velocity": 0.8031496062992126
        },
        {
          "duration": 0.078125,
          "durationTicks": 60,
          "midi": 60,
          "name": "C4",
          "ticks": 26112,
          "time": 34,
          "velocity": 0.8661417322834646
        },
        {
          "duration": 0.0598958333333357,
          "durationTicks": 46,
          "midi": 53,
          "name": "F3",
          "ticks": 26496,
          "time": 34.5,
          "velocity": 0.7716535433070866
        },
        {
          "duration": 0.0625,
          "durationTicks": 48,
          "midi": 57,
          "name": "A3",
          "ticks": 26496,
          "time": 34.5,
          "velocity": 0.8031496062992126
        },
        {
          "duration": 0.0859375,
          "durationTicks": 66,
          "midi": 60,
          "name": "C4",
          "ticks": 26496,
          "time": 34.5,
          "velocity": 0.7480314960629921
        },
        {
          "duration": 0.0338541666666643,
          "durationTicks": 26,
          "midi": 60,
          "name": "C4",
          "ticks": 26688,
          "time": 34.75,
          "velocity": 0.4566929133858268
        },
        {
          "duration": 0.0625,
          "durationTicks": 48,
          "midi": 53,
          "name": "F3",
          "ticks": 26880,
          "time": 35,
          "velocity": 0.7165354330708661
        },
        {
          "duration": 0.0546875,
          "durationTicks": 42,
          "midi": 57,
          "name": "A3",
          "ticks": 26880,
          "time": 35,
          "velocity": 0.8031496062992126
        },
        {
          "duration": 0.0625,
          "durationTicks": 48,
          "midi": 60,
          "name": "C4",
          "ticks": 26880,
          "time": 35,
          "velocity": 0.7874015748031497
        },
        {
          "duration": 0.046875,
          "durationTicks": 36,
          "midi": 53,
          "name": "F3",
          "ticks": 27072,
          "time": 35.25,
          "velocity": 0.7165354330708661
        },
        {
          "duration": 0.0703125,
          "durationTicks": 54,
          "midi": 57,
          "name": "A3",
          "ticks": 27072,
          "time": 35.25,
          "velocity": 0.84251968503937
        },
        {
          "duration": 0.0729166666666643,
          "durationTicks": 56,
          "midi": 60,
          "name": "C4",
          "ticks": 27072,
          "time": 35.25,
          "velocity": 0.8031496062992126
        },
        {
          "duration": 0.0416666666666643,
          "durationTicks": 32,
          "midi": 57,
          "name": "A3",
          "ticks": 27264,
          "time": 35.5,
          "velocity": 0.8267716535433071
        },
        {
          "duration": 0.0677083333333357,
          "durationTicks": 52,
          "midi": 53,
          "name": "F3",
          "ticks": 27264,
          "time": 35.5,
          "velocity": 0.7874015748031497
        },
        {
          "duration": 0.0807291666666643,
          "durationTicks": 62,
          "midi": 60,
          "name": "C4",
          "ticks": 27264,
          "time": 35.5,
          "velocity": 0.8031496062992126
        },
        {
          "duration": 0.609375,
          "durationTicks": 468,
          "midi": 55,
          "name": "G3",
          "ticks": 27456,
          "time": 35.75,
          "velocity": 0.84251968503937
        },
        {
          "duration": 0.6171875,
          "durationTicks": 474,
          "midi": 62,
          "name": "D4",
          "ticks": 27456,
          "time": 35.75,
          "velocity": 0.8661417322834646
        },
        {
          "duration": 0.6354166666666643,
          "durationTicks": 488,
          "midi": 59,
          "name": "B3",
          "ticks": 27456,
          "time": 35.75,
          "velocity": 0.889763779527559
        },
        {
          "duration": 0.0625,
          "durationTicks": 48,
          "midi": 62,
          "name": "D4",
          "ticks": 28032,
          "time": 36.5,
          "velocity": 0.7874015748031497
        },
        {
          "duration": 0.0625,
          "durationTicks": 48,
          "midi": 55,
          "name": "G3",
          "ticks": 28032,
          "time": 36.5,
          "velocity": 0.7480314960629921
        },
        {
          "duration": 0.0572916666666643,
          "durationTicks": 44,
          "midi": 59,
          "name": "B3",
          "ticks": 28032,
          "time": 36.5,
          "velocity": 0.8267716535433071
        },
        {
          "duration": 0.0651041666666643,
          "durationTicks": 50,
          "midi": 55,
          "name": "G3",
          "ticks": 28416,
          "time": 37,
          "velocity": 0.7874015748031497
        },
        {
          "duration": 0.0833333333333357,
          "durationTicks": 64,
          "midi": 62,
          "name": "D4",
          "ticks": 28416,
          "time": 37,
          "velocity": 0.8267716535433071
        },
        {
          "duration": 0.0625,
          "durationTicks": 48,
          "midi": 59,
          "name": "B3",
          "ticks": 28416,
          "time": 37,
          "velocity": 0.8267716535433071
        },
        {
          "duration": 0.0625,
          "durationTicks": 48,
          "midi": 55,
          "name": "G3",
          "ticks": 28800,
          "time": 37.5,
          "velocity": 0.8031496062992126
        },
        {
          "duration": 0.0520833333333357,
          "durationTicks": 40,
          "midi": 59,
          "name": "B3",
          "ticks": 28800,
          "time": 37.5,
          "velocity": 0.8661417322834646
        },
        {
          "duration": 0.0807291666666643,
          "durationTicks": 62,
          "midi": 62,
          "name": "D4",
          "ticks": 28800,
          "time": 37.5,
          "velocity": 0.8031496062992126
        },
        {
          "duration": 0.0625,
          "durationTicks": 48,
          "midi": 59,
          "name": "B3",
          "ticks": 29184,
          "time": 38,
          "velocity": 0.84251968503937
        },
        {
          "duration": 0.0651041666666643,
          "durationTicks": 50,
          "midi": 55,
          "name": "G3",
          "ticks": 29184,
          "time": 38,
          "velocity": 0.7874015748031497
        },
        {
          "duration": 0.0807291666666643,
          "durationTicks": 62,
          "midi": 62,
          "name": "D4",
          "ticks": 29184,
          "time": 38,
          "velocity": 0.8031496062992126
        },
        {
          "duration": 0.0677083333333357,
          "durationTicks": 52,
          "midi": 55,
          "name": "G3",
          "ticks": 29568,
          "time": 38.5,
          "velocity": 0.7874015748031497
        },
        {
          "duration": 0.0677083333333357,
          "durationTicks": 52,
          "midi": 59,
          "name": "B3",
          "ticks": 29568,
          "time": 38.5,
          "velocity": 0.889763779527559
        },
        {
          "duration": 0.0833333333333357,
          "durationTicks": 64,
          "midi": 62,
          "name": "D4",
          "ticks": 29568,
          "time": 38.5,
          "velocity": 0.8031496062992126
        },
        {
          "duration": 0.0546875,
          "durationTicks": 42,
          "midi": 55,
          "name": "G3",
          "ticks": 29952,
          "time": 39,
          "velocity": 0.7716535433070866
        },
        {
          "duration": 0.0598958333333357,
          "durationTicks": 46,
          "midi": 59,
          "name": "B3",
          "ticks": 29952,
          "time": 39,
          "velocity": 0.8661417322834646
        },
        {
          "duration": 0.0677083333333357,
          "durationTicks": 52,
          "midi": 62,
          "name": "D4",
          "ticks": 29952,
          "time": 39,
          "velocity": 0.8031496062992126
        },
        {
          "duration": 0.0598958333333357,
          "durationTicks": 46,
          "midi": 55,
          "name": "G3",
          "ticks": 30144,
          "time": 39.25,
          "velocity": 0.8267716535433071
        },
        {
          "duration": 0.0755208333333357,
          "durationTicks": 58,
          "midi": 62,
          "name": "D4",
          "ticks": 30144,
          "time": 39.25,
          "velocity": 0.8267716535433071
        },
        {
          "duration": 0.0625,
          "durationTicks": 48,
          "midi": 59,
          "name": "B3",
          "ticks": 30144,
          "time": 39.25,
          "velocity": 0.8661417322834646
        },
        {
          "duration": 0.046875,
          "durationTicks": 36,
          "midi": 59,
          "name": "B3",
          "ticks": 30336,
          "time": 39.5,
          "velocity": 0.8031496062992126
        },
        {
          "duration": 0.0625,
          "durationTicks": 48,
          "midi": 55,
          "name": "G3",
          "ticks": 30336,
          "time": 39.5,
          "velocity": 0.84251968503937
        },
        {
          "duration": 0.0729166666666643,
          "durationTicks": 56,
          "midi": 62,
          "name": "D4",
          "ticks": 30336,
          "time": 39.5,
          "velocity": 0.84251968503937
        },
        {
          "duration": 0.6223958333333357,
          "durationTicks": 478,
          "midi": 53,
          "name": "F3",
          "ticks": 30528,
          "time": 39.75,
          "velocity": 0.8661417322834646
        },
        {
          "duration": 0.6223958333333357,
          "durationTicks": 478,
          "midi": 60,
          "name": "C4",
          "ticks": 30528,
          "time": 39.75,
          "velocity": 0.84251968503937
        },
        {
          "duration": 0.6458333333333357,
          "durationTicks": 496,
          "midi": 57,
          "name": "A3",
          "ticks": 30528,
          "time": 39.75,
          "velocity": 0.9133858267716536
        },
        {
          "duration": 0.0729166666666643,
          "durationTicks": 56,
          "midi": 53,
          "name": "F3",
          "ticks": 31104,
          "time": 40.5,
          "velocity": 0.7165354330708661
        },
        {
          "duration": 0.09375,
          "durationTicks": 72,
          "midi": 60,
          "name": "C4",
          "ticks": 31104,
          "time": 40.5,
          "velocity": 0.8031496062992126
        },
        {
          "duration": 0.0833333333333357,
          "durationTicks": 64,
          "midi": 57,
          "name": "A3",
          "ticks": 31104,
          "time": 40.5,
          "velocity": 0.84251968503937
        },
        {
          "duration": 0.0625,
          "durationTicks": 48,
          "midi": 57,
          "name": "A3",
          "ticks": 31488,
          "time": 41,
          "velocity": 0.8267716535433071
        },
        {
          "duration": 0.0885416666666643,
          "durationTicks": 68,
          "midi": 60,
          "name": "C4",
          "ticks": 31488,
          "time": 41,
          "velocity": 0.84251968503937
        },
        {
          "duration": 0.0703125,
          "durationTicks": 54,
          "midi": 53,
          "name": "F3",
          "ticks": 31488,
          "time": 41,
          "velocity": 0.7480314960629921
        },
        {
          "duration": 0.0625,
          "durationTicks": 48,
          "midi": 57,
          "name": "A3",
          "ticks": 31872,
          "time": 41.5,
          "velocity": 0.8031496062992126
        },
        {
          "duration": 0.0677083333333357,
          "durationTicks": 52,
          "midi": 53,
          "name": "F3",
          "ticks": 31872,
          "time": 41.5,
          "velocity": 0.7716535433070866
        },
        {
          "duration": 0.0885416666666643,
          "durationTicks": 68,
          "midi": 60,
          "name": "C4",
          "ticks": 31872,
          "time": 41.5,
          "velocity": 0.8031496062992126
        },
        {
          "duration": 0.0572916666666643,
          "durationTicks": 44,
          "midi": 57,
          "name": "A3",
          "ticks": 32256,
          "time": 42,
          "velocity": 0.8031496062992126
        },
        {
          "duration": 0.0625,
          "durationTicks": 48,
          "midi": 53,
          "name": "F3",
          "ticks": 32256,
          "time": 42,
          "velocity": 0.7874015748031497
        },
        {
          "duration": 0.0703125,
          "durationTicks": 54,
          "midi": 60,
          "name": "C4",
          "ticks": 32256,
          "time": 42,
          "velocity": 0.8031496062992126
        },
        {
          "duration": 0.0572916666666643,
          "durationTicks": 44,
          "midi": 53,
          "name": "F3",
          "ticks": 32640,
          "time": 42.5,
          "velocity": 0.8031496062992126
        },
        {
          "duration": 0.0572916666666643,
          "durationTicks": 44,
          "midi": 57,
          "name": "A3",
          "ticks": 32640,
          "time": 42.5,
          "velocity": 0.889763779527559
        },
        {
          "duration": 0.0729166666666643,
          "durationTicks": 56,
          "midi": 60,
          "name": "C4",
          "ticks": 32640,
          "time": 42.5,
          "velocity": 0.8267716535433071
        },
        {
          "duration": 0.0546875,
          "durationTicks": 42,
          "midi": 53,
          "name": "F3",
          "ticks": 33024,
          "time": 43,
          "velocity": 0.7874015748031497
        },
        {
          "duration": 0.0546875,
          "durationTicks": 42,
          "midi": 57,
          "name": "A3",
          "ticks": 33024,
          "time": 43,
          "velocity": 0.8661417322834646
        },
        {
          "duration": 0.0651041666666643,
          "durationTicks": 50,
          "midi": 60,
          "name": "C4",
          "ticks": 33024,
          "time": 43,
          "velocity": 0.8031496062992126
        },
        {
          "duration": 0.0572916666666643,
          "durationTicks": 44,
          "midi": 57,
          "name": "A3",
          "ticks": 33216,
          "time": 43.25,
          "velocity": 0.8661417322834646
        },
        {
          "duration": 0.0651041666666643,
          "durationTicks": 50,
          "midi": 53,
          "name": "F3",
          "ticks": 33216,
          "time": 43.25,
          "velocity": 0.7874015748031497
        },
        {
          "duration": 0.0677083333333357,
          "durationTicks": 52,
          "midi": 60,
          "name": "C4",
          "ticks": 33216,
          "time": 43.25,
          "velocity": 0.8031496062992126
        },
        {
          "duration": 0.0625,
          "durationTicks": 48,
          "midi": 57,
          "name": "A3",
          "ticks": 33408,
          "time": 43.5,
          "velocity": 0.8661417322834646
        },
        {
          "duration": 0.0703125,
          "durationTicks": 54,
          "midi": 53,
          "name": "F3",
          "ticks": 33408,
          "time": 43.5,
          "velocity": 0.8031496062992126
        },
        {
          "duration": 0.0833333333333357,
          "durationTicks": 64,
          "midi": 60,
          "name": "C4",
          "ticks": 33408,
          "time": 43.5,
          "velocity": 0.8267716535433071
        },
        {
          "duration": 0.6458333333333357,
          "durationTicks": 496,
          "midi": 59,
          "name": "B3",
          "ticks": 33600,
          "time": 43.75,
          "velocity": 0.84251968503937
        },
        {
          "duration": 0.6354166666666643,
          "durationTicks": 488,
          "midi": 62,
          "name": "D4",
          "ticks": 33600,
          "time": 43.75,
          "velocity": 0.8661417322834646
        },
        {
          "duration": 0.6302083333333357,
          "durationTicks": 484,
          "midi": 55,
          "name": "G3",
          "ticks": 33600,
          "time": 43.75,
          "velocity": 0.84251968503937
        },
        {
          "duration": 0.0729166666666643,
          "durationTicks": 56,
          "midi": 55,
          "name": "G3",
          "ticks": 34176,
          "time": 44.5,
          "velocity": 0.6850393700787402
        },
        {
          "duration": 0.09375,
          "durationTicks": 72,
          "midi": 62,
          "name": "D4",
          "ticks": 34176,
          "time": 44.5,
          "velocity": 0.8267716535433071
        },
        {
          "duration": 0.0625,
          "durationTicks": 48,
          "midi": 59,
          "name": "B3",
          "ticks": 34176,
          "time": 44.5,
          "velocity": 0.84251968503937
        },
        {
          "duration": 0.0520833333333357,
          "durationTicks": 40,
          "midi": 55,
          "name": "G3",
          "ticks": 34560,
          "time": 45,
          "velocity": 0.7007874015748031
        },
        {
          "duration": 0.0833333333333357,
          "durationTicks": 64,
          "midi": 62,
          "name": "D4",
          "ticks": 34560,
          "time": 45,
          "velocity": 0.8031496062992126
        },
        {
          "duration": 0.0651041666666643,
          "durationTicks": 50,
          "midi": 59,
          "name": "B3",
          "ticks": 34560,
          "time": 45,
          "velocity": 0.84251968503937
        },
        {
          "duration": 0.0651041666666643,
          "durationTicks": 50,
          "midi": 55,
          "name": "G3",
          "ticks": 34944,
          "time": 45.5,
          "velocity": 0.8031496062992126
        },
        {
          "duration": 0.0520833333333357,
          "durationTicks": 40,
          "midi": 59,
          "name": "B3",
          "ticks": 34944,
          "time": 45.5,
          "velocity": 0.8267716535433071
        },
        {
          "duration": 0.0677083333333357,
          "durationTicks": 52,
          "midi": 62,
          "name": "D4",
          "ticks": 34944,
          "time": 45.5,
          "velocity": 0.8031496062992126
        },
        {
          "duration": 0.0625,
          "durationTicks": 48,
          "midi": 55,
          "name": "G3",
          "ticks": 35328,
          "time": 46,
          "velocity": 0.7874015748031497
        },
        {
          "duration": 0.0520833333333357,
          "durationTicks": 40,
          "midi": 59,
          "name": "B3",
          "ticks": 35328,
          "time": 46,
          "velocity": 0.8031496062992126
        },
        {
          "duration": 0.0859375,
          "durationTicks": 66,
          "midi": 62,
          "name": "D4",
          "ticks": 35328,
          "time": 46,
          "velocity": 0.8267716535433071
        },
        {
          "duration": 0.0598958333333357,
          "durationTicks": 46,
          "midi": 55,
          "name": "G3",
          "ticks": 35712,
          "time": 46.5,
          "velocity": 0.7480314960629921
        },
        {
          "duration": 0.0494791666666643,
          "durationTicks": 38,
          "midi": 59,
          "name": "B3",
          "ticks": 35712,
          "time": 46.5,
          "velocity": 0.84251968503937
        },
        {
          "duration": 0.0807291666666643,
          "durationTicks": 62,
          "midi": 62,
          "name": "D4",
          "ticks": 35712,
          "time": 46.5,
          "velocity": 0.8267716535433071
        },
        {
          "duration": 0.0520833333333357,
          "durationTicks": 40,
          "midi": 55,
          "name": "G3",
          "ticks": 36096,
          "time": 47,
          "velocity": 0.8031496062992126
        },
        {
          "duration": 0.0494791666666643,
          "durationTicks": 38,
          "midi": 59,
          "name": "B3",
          "ticks": 36096,
          "time": 47,
          "velocity": 0.8661417322834646
        },
        {
          "duration": 0.0677083333333357,
          "durationTicks": 52,
          "midi": 62,
          "name": "D4",
          "ticks": 36096,
          "time": 47,
          "velocity": 0.8267716535433071
        },
        {
          "duration": 0.0677083333333357,
          "durationTicks": 52,
          "midi": 55,
          "name": "G3",
          "ticks": 36288,
          "time": 47.25,
          "velocity": 0.7480314960629921
        },
        {
          "duration": 0.0625,
          "durationTicks": 48,
          "midi": 59,
          "name": "B3",
          "ticks": 36288,
          "time": 47.25,
          "velocity": 0.889763779527559
        },
        {
          "duration": 0.0729166666666643,
          "durationTicks": 56,
          "midi": 62,
          "name": "D4",
          "ticks": 36288,
          "time": 47.25,
          "velocity": 0.8031496062992126
        },
        {
          "duration": 0.0598958333333357,
          "durationTicks": 46,
          "midi": 59,
          "name": "B3",
          "ticks": 36672,
          "time": 47.75,
          "velocity": 0.8661417322834646
        },
        {
          "duration": 0.0677083333333357,
          "durationTicks": 52,
          "midi": 55,
          "name": "G3",
          "ticks": 36672,
          "time": 47.75,
          "velocity": 0.8031496062992126
        },
        {
          "duration": 0.0963541666666643,
          "durationTicks": 74,
          "midi": 62,
          "name": "D4",
          "ticks": 36672,
          "time": 47.75,
          "velocity": 0.84251968503937
        },
        {
          "duration": 0.0598958333333357,
          "durationTicks": 46,
          "midi": 64,
          "name": "E4",
          "ticks": 36864,
          "time": 48,
          "velocity": 0.7322834645669292
        },
        {
          "duration": 0.0572916666666643,
          "durationTicks": 44,
          "midi": 57,
          "name": "A3",
          "ticks": 36864,
          "time": 48,
          "velocity": 0.7007874015748031
        },
        {
          "duration": 0.0625,
          "durationTicks": 48,
          "midi": 60,
          "name": "C4",
          "ticks": 36864,
          "time": 48,
          "velocity": 0.7874015748031497
        },
        {
          "duration": 0.0598958333333357,
          "durationTicks": 46,
          "midi": 60,
          "name": "C4",
          "ticks": 37248,
          "time": 48.5,
          "velocity": 0.7322834645669292
        },
        {
          "duration": 0.0885416666666643,
          "durationTicks": 68,
          "midi": 57,
          "name": "A3",
          "ticks": 37248,
          "time": 48.5,
          "velocity": 0.7165354330708661
        },
        {
          "duration": 0.0989583333333357,
          "durationTicks": 76,
          "midi": 64,
          "name": "E4",
          "ticks": 37248,
          "time": 48.5,
          "velocity": 0.7716535433070866
        },
        {
          "duration": 0.0677083333333357,
          "durationTicks": 52,
          "midi": 59,
          "name": "B3",
          "ticks": 38016,
          "time": 49.5,
          "velocity": 0.8267716535433071
        },
        {
          "duration": 0.0729166666666643,
          "durationTicks": 56,
          "midi": 55,
          "name": "G3",
          "ticks": 38016,
          "time": 49.5,
          "velocity": 0.7716535433070866
        },
        {
          "duration": 0.0859375,
          "durationTicks": 66,
          "midi": 62,
          "name": "D4",
          "ticks": 38016,
          "time": 49.5,
          "velocity": 0.8031496062992126
        },
        {
          "duration": 0.0598958333333357,
          "durationTicks": 46,
          "midi": 64,
          "name": "E4",
          "ticks": 38400,
          "time": 50,
          "velocity": 0.6850393700787402
        },
        {
          "duration": 0.0651041666666643,
          "durationTicks": 50,
          "midi": 57,
          "name": "A3",
          "ticks": 38400,
          "time": 50,
          "velocity": 0.6456692913385826
        },
        {
          "duration": 0.0494791666666643,
          "durationTicks": 38,
          "midi": 60,
          "name": "C4",
          "ticks": 38400,
          "time": 50,
          "velocity": 0.7165354330708661
        },
        {
          "duration": 0.0520833333333357,
          "durationTicks": 40,
          "midi": 60,
          "name": "C4",
          "ticks": 38784,
          "time": 50.5,
          "velocity": 0.84251968503937
        },
        {
          "duration": 0.0546875,
          "durationTicks": 42,
          "midi": 57,
          "name": "A3",
          "ticks": 38784,
          "time": 50.5,
          "velocity": 0.8031496062992126
        },
        {
          "duration": 0.0755208333333357,
          "durationTicks": 58,
          "midi": 64,
          "name": "E4",
          "ticks": 38784,
          "time": 50.5,
          "velocity": 0.8031496062992126
        },
        {
          "duration": 0.0520833333333357,
          "durationTicks": 40,
          "midi": 57,
          "name": "A3",
          "ticks": 39360,
          "time": 51.25,
          "velocity": 0.7007874015748031
        },
        {
          "duration": 0.0494791666666643,
          "durationTicks": 38,
          "midi": 60,
          "name": "C4",
          "ticks": 39360,
          "time": 51.25,
          "velocity": 0.7716535433070866
        },
        {
          "duration": 0.0807291666666643,
          "durationTicks": 62,
          "midi": 64,
          "name": "E4",
          "ticks": 39360,
          "time": 51.25,
          "velocity": 0.8031496062992126
        },
        {
          "duration": 0.0416666666666643,
          "durationTicks": 32,
          "midi": 60,
          "name": "C4",
          "ticks": 39552,
          "time": 51.5,
          "velocity": 0.8267716535433071
        },
        {
          "duration": 0.0520833333333357,
          "durationTicks": 40,
          "midi": 57,
          "name": "A3",
          "ticks": 39552,
          "time": 51.5,
          "velocity": 0.7716535433070866
        },
        {
          "duration": 0.0859375,
          "durationTicks": 66,
          "midi": 64,
          "name": "E4",
          "ticks": 39552,
          "time": 51.5,
          "velocity": 0.84251968503937
        },
        {
          "duration": 0.0859375,
          "durationTicks": 66,
          "midi": 57,
          "name": "A3",
          "ticks": 40320,
          "time": 52.5,
          "velocity": 0.7480314960629921
        },
        {
          "duration": 0.1041666666666643,
          "durationTicks": 80,
          "midi": 50,
          "name": "D3",
          "ticks": 40320,
          "time": 52.5,
          "velocity": 0.8267716535433071
        },
        {
          "duration": 0.0755208333333357,
          "durationTicks": 58,
          "midi": 65,
          "name": "F4",
          "ticks": 40320,
          "time": 52.5,
          "velocity": 0.84251968503937
        },
        {
          "duration": 0.0833333333333357,
          "durationTicks": 64,
          "midi": 62,
          "name": "D4",
          "ticks": 40320,
          "time": 52.5,
          "velocity": 0.7716535433070866
        },
        {
          "duration": 0.109375,
          "durationTicks": 84,
          "midi": 69,
          "name": "A4",
          "ticks": 40320,
          "time": 52.5,
          "velocity": 0.8267716535433071
        },
        {
          "duration": 0.0989583333333357,
          "durationTicks": 76,
          "midi": 50,
          "name": "D3",
          "ticks": 41088,
          "time": 53.5,
          "velocity": 0.84251968503937
        },
        {
          "duration": 0.09375,
          "durationTicks": 72,
          "midi": 57,
          "name": "A3",
          "ticks": 41088,
          "time": 53.5,
          "velocity": 0.8267716535433071
        },
        {
          "duration": 0.0677083333333357,
          "durationTicks": 52,
          "midi": 65,
          "name": "F4",
          "ticks": 41088,
          "time": 53.5,
          "velocity": 0.8661417322834646
        },
        {
          "duration": 0.0859375,
          "durationTicks": 66,
          "midi": 62,
          "name": "D4",
          "ticks": 41088,
          "time": 53.5,
          "velocity": 0.8267716535433071
        },
        {
          "duration": 0.1145833333333357,
          "durationTicks": 88,
          "midi": 69,
          "name": "A4",
          "ticks": 41088,
          "time": 53.5,
          "velocity": 0.8661417322834646
        },
        {
          "duration": 0.0989583333333357,
          "durationTicks": 76,
          "midi": 57,
          "name": "A3",
          "ticks": 41856,
          "time": 54.5,
          "velocity": 0.7716535433070866
        },
        {
          "duration": 0.1067708333333357,
          "durationTicks": 82,
          "midi": 50,
          "name": "D3",
          "ticks": 41856,
          "time": 54.5,
          "velocity": 0.8031496062992126
        },
        {
          "duration": 0.0729166666666643,
          "durationTicks": 56,
          "midi": 65,
          "name": "F4",
          "ticks": 41856,
          "time": 54.5,
          "velocity": 0.8031496062992126
        },
        {
          "duration": 0.0885416666666643,
          "durationTicks": 68,
          "midi": 62,
          "name": "D4",
          "ticks": 41856,
          "time": 54.5,
          "velocity": 0.7874015748031497
        },
        {
          "duration": 0.1041666666666643,
          "durationTicks": 80,
          "midi": 69,
          "name": "A4",
          "ticks": 41856,
          "time": 54.5,
          "velocity": 0.8267716535433071
        },
        {
          "duration": 0.0651041666666643,
          "durationTicks": 50,
          "midi": 57,
          "name": "A3",
          "ticks": 42624,
          "time": 55.5,
          "velocity": 0.7322834645669292
        },
        {
          "duration": 0.09375,
          "durationTicks": 72,
          "midi": 50,
          "name": "D3",
          "ticks": 42624,
          "time": 55.5,
          "velocity": 0.7874015748031497
        },
        {
          "duration": 0.0729166666666643,
          "durationTicks": 56,
          "midi": 65,
          "name": "F4",
          "ticks": 42624,
          "time": 55.5,
          "velocity": 0.7874015748031497
        },
        {
          "duration": 0.0807291666666643,
          "durationTicks": 62,
          "midi": 69,
          "name": "A4",
          "ticks": 42624,
          "time": 55.5,
          "velocity": 0.7874015748031497
        },
        {
          "duration": 0.1015625,
          "durationTicks": 78,
          "midi": 62,
          "name": "D4",
          "ticks": 42624,
          "time": 55.5,
          "velocity": 0.7165354330708661
        },
        {
          "duration": 0.4114583333333357,
          "durationTicks": 316,
          "midi": 59,
          "name": "B3",
          "ticks": 43008,
          "time": 56,
          "velocity": 0.8031496062992126
        },
        {
          "duration": 0.3958333333333357,
          "durationTicks": 304,
          "midi": 62,
          "name": "D4",
          "ticks": 43008,
          "time": 56,
          "velocity": 0.8267716535433071
        },
        {
          "duration": 0.4036458333333357,
          "durationTicks": 310,
          "midi": 55,
          "name": "G3",
          "ticks": 43008,
          "time": 56,
          "velocity": 0.7480314960629921
        },
        {
          "duration": 0.3932291666666643,
          "durationTicks": 302,
          "midi": 59,
          "name": "B3",
          "ticks": 43392,
          "time": 56.5,
          "velocity": 0.8031496062992126
        },
        {
          "duration": 0.3828125,
          "durationTicks": 294,
          "midi": 62,
          "name": "D4",
          "ticks": 43392,
          "time": 56.5,
          "velocity": 0.7874015748031497
        },
        {
          "duration": 0.3619791666666643,
          "durationTicks": 278,
          "midi": 55,
          "name": "G3",
          "ticks": 43392,
          "time": 56.5,
          "velocity": 0.7007874015748031
        },
        {
          "duration": 0.40625,
          "durationTicks": 312,
          "midi": 53,
          "name": "F3",
          "ticks": 43776,
          "time": 57,
          "velocity": 0.8031496062992126
        },
        {
          "duration": 0.40625,
          "durationTicks": 312,
          "midi": 59,
          "name": "B3",
          "ticks": 43776,
          "time": 57,
          "velocity": 0.8031496062992126
        },
        {
          "duration": 0.4010416666666643,
          "durationTicks": 308,
          "midi": 62,
          "name": "D4",
          "ticks": 43776,
          "time": 57,
          "velocity": 0.8267716535433071
        },
        {
          "duration": 0.4010416666666643,
          "durationTicks": 308,
          "midi": 59,
          "name": "B3",
          "ticks": 44160,
          "time": 57.5,
          "velocity": 0.8031496062992126
        },
        {
          "duration": 0.3932291666666643,
          "durationTicks": 302,
          "midi": 62,
          "name": "D4",
          "ticks": 44160,
          "time": 57.5,
          "velocity": 0.7874015748031497
        },
        {
          "duration": 0.3776041666666643,
          "durationTicks": 290,
          "midi": 53,
          "name": "F3",
          "ticks": 44160,
          "time": 57.5,
          "velocity": 0.7716535433070866
        },
        {
          "duration": 0.40625,
          "durationTicks": 312,
          "midi": 62,
          "name": "D4",
          "ticks": 44544,
          "time": 58,
          "velocity": 0.8031496062992126
        },
        {
          "duration": 0.4036458333333357,
          "durationTicks": 310,
          "midi": 55,
          "name": "G3",
          "ticks": 44544,
          "time": 58,
          "velocity": 0.7874015748031497
        },
        {
          "duration": 0.40625,
          "durationTicks": 312,
          "midi": 52,
          "name": "E3",
          "ticks": 44544,
          "time": 58,
          "velocity": 0.7716535433070866
        },
        {
          "duration": 0.4140625,
          "durationTicks": 318,
          "midi": 59,
          "name": "B3",
          "ticks": 44544,
          "time": 58,
          "velocity": 0.8031496062992126
        },
        {
          "duration": 0.40625,
          "durationTicks": 312,
          "midi": 59,
          "name": "B3",
          "ticks": 44928,
          "time": 58.5,
          "velocity": 0.7716535433070866
        },
        {
          "duration": 0.3958333333333357,
          "durationTicks": 304,
          "midi": 52,
          "name": "E3",
          "ticks": 44928,
          "time": 58.5,
          "velocity": 0.7480314960629921
        },
        {
          "duration": 0.4010416666666643,
          "durationTicks": 308,
          "midi": 55,
          "name": "G3",
          "ticks": 44928,
          "time": 58.5,
          "velocity": 0.7874015748031497
        },
        {
          "duration": 0.4010416666666643,
          "durationTicks": 308,
          "midi": 62,
          "name": "D4",
          "ticks": 44928,
          "time": 58.5,
          "velocity": 0.7874015748031497
        },
        {
          "duration": 0.390625,
          "durationTicks": 300,
          "midi": 55,
          "name": "G3",
          "ticks": 45312,
          "time": 59,
          "velocity": 0.6692913385826772
        },
        {
          "duration": 0.3984375,
          "durationTicks": 306,
          "midi": 59,
          "name": "B3",
          "ticks": 45312,
          "time": 59,
          "velocity": 0.7480314960629921
        },
        {
          "duration": 0.7682291666666643,
          "durationTicks": 590,
          "midi": 50,
          "name": "D3",
          "ticks": 45312,
          "time": 59,
          "velocity": 0.84251968503937
        },
        {
          "duration": 0.4010416666666643,
          "durationTicks": 308,
          "midi": 62,
          "name": "D4",
          "ticks": 45312,
          "time": 59,
          "velocity": 0.7716535433070866
        },
        {
          "duration": 0.2734375,
          "durationTicks": 210,
          "midi": 59,
          "name": "B3",
          "ticks": 45696,
          "time": 59.5,
          "velocity": 0.8267716535433071
        },
        {
          "duration": 0.265625,
          "durationTicks": 204,
          "midi": 55,
          "name": "G3",
          "ticks": 45696,
          "time": 59.5,
          "velocity": 0.7480314960629921
        },
        {
          "duration": 0.2838541666666643,
          "durationTicks": 218,
          "midi": 62,
          "name": "D4",
          "ticks": 45696,
          "time": 59.5,
          "velocity": 0.8031496062992126
        },
        {
          "duration": 0.390625,
          "durationTicks": 300,
          "midi": 72,
          "name": "C5",
          "ticks": 46464,
          "time": 60.5,
          "velocity": 0.9291338582677166
        },
        {
          "duration": 0.3541666666666643,
          "durationTicks": 272,
          "midi": 60,
          "name": "C4",
          "ticks": 46464,
          "time": 60.5,
          "velocity": 0.9291338582677166
        },
        {
          "duration": 0.8098958333333357,
          "durationTicks": 622,
          "midi": 74,
          "name": "D5",
          "ticks": 46848,
          "time": 61,
          "velocity": 0.9291338582677166
        },
        {
          "duration": 0.8098958333333357,
          "durationTicks": 622,
          "midi": 62,
          "name": "D4",
          "ticks": 46848,
          "time": 61,
          "velocity": 0.9291338582677166
        },
        {
          "duration": 0.3854166666666643,
          "durationTicks": 296,
          "midi": 62,
          "name": "D4",
          "ticks": 48000,
          "time": 62.5,
          "velocity": 0.9291338582677166
        },
        {
          "duration": 0.3776041666666643,
          "durationTicks": 290,
          "midi": 74,
          "name": "D5",
          "ticks": 48000,
          "time": 62.5,
          "velocity": 0.9291338582677166
        },
        {
          "duration": 0.8125,
          "durationTicks": 624,
          "midi": 60,
          "name": "C4",
          "ticks": 48384,
          "time": 63,
          "velocity": 0.9291338582677166
        },
        {
          "duration": 0.8385416666666643,
          "durationTicks": 644,
          "midi": 72,
          "name": "C5",
          "ticks": 48384,
          "time": 63,
          "velocity": 0.9291338582677166
        },
        {
          "duration": 0.1015625,
          "durationTicks": 78,
          "midi": 72,
          "name": "C5",
          "ticks": 49536,
          "time": 64.5,
          "velocity": 0.9291338582677166
        },
        {
          "duration": 0.0885416666666714,
          "durationTicks": 68,
          "midi": 60,
          "name": "C4",
          "ticks": 49536,
          "time": 64.5,
          "velocity": 0.9291338582677166
        },
        {
          "duration": 0.0677083333333286,
          "durationTicks": 52,
          "midi": 60,
          "name": "C4",
          "ticks": 49728,
          "time": 64.75,
          "velocity": 0.9291338582677166
        },
        {
          "duration": 0.09375,
          "durationTicks": 72,
          "midi": 72,
          "name": "C5",
          "ticks": 49728,
          "time": 64.75,
          "velocity": 0.9291338582677166
        },
        {
          "duration": 0.3020833333333286,
          "durationTicks": 232,
          "midi": 74,
          "name": "D5",
          "ticks": 49920,
          "time": 65,
          "velocity": 0.9291338582677166
        },
        {
          "duration": 0.3177083333333286,
          "durationTicks": 244,
          "midi": 62,
          "name": "D4",
          "ticks": 49920,
          "time": 65,
          "velocity": 0.9291338582677166
        },
        {
          "duration": 0.4609375,
          "durationTicks": 354,
          "midi": 60,
          "name": "C4",
          "ticks": 50304,
          "time": 65.5,
          "velocity": 0.9291338582677166
        },
        {
          "duration": 0.5104166666666714,
          "durationTicks": 392,
          "midi": 72,
          "name": "C5",
          "ticks": 50304,
          "time": 65.5,
          "velocity": 0.9291338582677166
        },
        {
          "duration": 0.3072916666666714,
          "durationTicks": 236,
          "midi": 62,
          "name": "D4",
          "ticks": 51072,
          "time": 66.5,
          "velocity": 0.9291338582677166
        },
        {
          "duration": 0.3046875,
          "durationTicks": 234,
          "midi": 74,
          "name": "D5",
          "ticks": 51072,
          "time": 66.5,
          "velocity": 0.9291338582677166
        },
        {
          "duration": 0.5208333333333286,
          "durationTicks": 400,
          "midi": 60,
          "name": "C4",
          "ticks": 51456,
          "time": 67,
          "velocity": 0.9291338582677166
        },
        {
          "duration": 0.5651041666666714,
          "durationTicks": 434,
          "midi": 72,
          "name": "C5",
          "ticks": 51456,
          "time": 67,
          "velocity": 0.9291338582677166
        },
        {
          "duration": 0.390625,
          "durationTicks": 300,
          "midi": 72,
          "name": "C5",
          "ticks": 52608,
          "time": 68.5,
          "velocity": 0.9291338582677166
        },
        {
          "duration": 0.3541666666666714,
          "durationTicks": 272,
          "midi": 60,
          "name": "C4",
          "ticks": 52608,
          "time": 68.5,
          "velocity": 0.9291338582677166
        },
        {
          "duration": 0.8098958333333286,
          "durationTicks": 622,
          "midi": 74,
          "name": "D5",
          "ticks": 52992,
          "time": 69,
          "velocity": 0.9291338582677166
        },
        {
          "duration": 0.8098958333333286,
          "durationTicks": 622,
          "midi": 62,
          "name": "D4",
          "ticks": 52992,
          "time": 69,
          "velocity": 0.9291338582677166
        },
        {
          "duration": 0.3854166666666714,
          "durationTicks": 296,
          "midi": 62,
          "name": "D4",
          "ticks": 54144,
          "time": 70.5,
          "velocity": 0.9291338582677166
        },
        {
          "duration": 0.3776041666666714,
          "durationTicks": 290,
          "midi": 74,
          "name": "D5",
          "ticks": 54144,
          "time": 70.5,
          "velocity": 0.9291338582677166
        },
        {
          "duration": 0.8125,
          "durationTicks": 624,
          "midi": 60,
          "name": "C4",
          "ticks": 54528,
          "time": 71,
          "velocity": 0.9291338582677166
        },
        {
          "duration": 0.8385416666666714,
          "durationTicks": 644,
          "midi": 72,
          "name": "C5",
          "ticks": 54528,
          "time": 71,
          "velocity": 0.9291338582677166
        },
        {
          "duration": 0.1015625,
          "durationTicks": 78,
          "midi": 72,
          "name": "C5",
          "ticks": 55680,
          "time": 72.5,
          "velocity": 0.9291338582677166
        },
        {
          "duration": 0.0885416666666714,
          "durationTicks": 68,
          "midi": 60,
          "name": "C4",
          "ticks": 55680,
          "time": 72.5,
          "velocity": 0.9291338582677166
        },
        {
          "duration": 0.0677083333333286,
          "durationTicks": 52,
          "midi": 60,
          "name": "C4",
          "ticks": 55872,
          "time": 72.75,
          "velocity": 0.9291338582677166
        },
        {
          "duration": 0.09375,
          "durationTicks": 72,
          "midi": 72,
          "name": "C5",
          "ticks": 55872,
          "time": 72.75,
          "velocity": 0.9291338582677166
        },
        {
          "duration": 0.3020833333333286,
          "durationTicks": 232,
          "midi": 74,
          "name": "D5",
          "ticks": 56064,
          "time": 73,
          "velocity": 0.9291338582677166
        },
        {
          "duration": 0.3177083333333286,
          "durationTicks": 244,
          "midi": 62,
          "name": "D4",
          "ticks": 56064,
          "time": 73,
          "velocity": 0.9291338582677166
        },
        {
          "duration": 0.4609375,
          "durationTicks": 354,
          "midi": 60,
          "name": "C4",
          "ticks": 56448,
          "time": 73.5,
          "velocity": 0.9291338582677166
        },
        {
          "duration": 0.5104166666666714,
          "durationTicks": 392,
          "midi": 72,
          "name": "C5",
          "ticks": 56448,
          "time": 73.5,
          "velocity": 0.9291338582677166
        },
        {
          "duration": 0.3072916666666714,
          "durationTicks": 236,
          "midi": 62,
          "name": "D4",
          "ticks": 57216,
          "time": 74.5,
          "velocity": 0.9291338582677166
        },
        {
          "duration": 0.3046875,
          "durationTicks": 234,
          "midi": 74,
          "name": "D5",
          "ticks": 57216,
          "time": 74.5,
          "velocity": 0.9291338582677166
        },
        {
          "duration": 0.5208333333333286,
          "durationTicks": 400,
          "midi": 60,
          "name": "C4",
          "ticks": 57600,
          "time": 75,
          "velocity": 0.9291338582677166
        },
        {
          "duration": 0.5651041666666714,
          "durationTicks": 434,
          "midi": 72,
          "name": "C5",
          "ticks": 57600,
          "time": 75,
          "velocity": 0.9291338582677166
        },
        {
          "duration": 0.052083333333328596,
          "durationTicks": 40,
          "midi": 55,
          "name": "G3",
          "ticks": 58368,
          "time": 76,
          "velocity": 0.7716535433070866
        },
        {
          "duration": 0.0677083333333286,
          "durationTicks": 52,
          "midi": 59,
          "name": "B3",
          "ticks": 58368,
          "time": 76,
          "velocity": 0.8661417322834646
        },
        {
          "duration": 0.0963541666666714,
          "durationTicks": 74,
          "midi": 62,
          "name": "D4",
          "ticks": 58368,
          "time": 76,
          "velocity": 0.84251968503937
        },
        {
          "duration": 0.0651041666666714,
          "durationTicks": 50,
          "midi": 55,
          "name": "G3",
          "ticks": 58752,
          "time": 76.5,
          "velocity": 0.7165354330708661
        },
        {
          "duration": 0.0755208333333286,
          "durationTicks": 58,
          "midi": 59,
          "name": "B3",
          "ticks": 58752,
          "time": 76.5,
          "velocity": 0.8661417322834646
        },
        {
          "duration": 0.0885416666666714,
          "durationTicks": 68,
          "midi": 62,
          "name": "D4",
          "ticks": 58752,
          "time": 76.5,
          "velocity": 0.8267716535433071
        },
        {
          "duration": 0.0625,
          "durationTicks": 48,
          "midi": 55,
          "name": "G3",
          "ticks": 59136,
          "time": 77,
          "velocity": 0.7480314960629921
        },
        {
          "duration": 0.057291666666671404,
          "durationTicks": 44,
          "midi": 59,
          "name": "B3",
          "ticks": 59136,
          "time": 77,
          "velocity": 0.8267716535433071
        },
        {
          "duration": 0.0729166666666714,
          "durationTicks": 56,
          "midi": 62,
          "name": "D4",
          "ticks": 59136,
          "time": 77,
          "velocity": 0.8031496062992126
        },
        {
          "duration": 0.059895833333328596,
          "durationTicks": 46,
          "midi": 55,
          "name": "G3",
          "ticks": 59520,
          "time": 77.5,
          "velocity": 0.7165354330708661
        },
        {
          "duration": 0.0546875,
          "durationTicks": 42,
          "midi": 59,
          "name": "B3",
          "ticks": 59520,
          "time": 77.5,
          "velocity": 0.8031496062992126
        },
        {
          "duration": 0.0729166666666714,
          "durationTicks": 56,
          "midi": 62,
          "name": "D4",
          "ticks": 59520,
          "time": 77.5,
          "velocity": 0.8031496062992126
        },
        {
          "duration": 0.0546875,
          "durationTicks": 42,
          "midi": 59,
          "name": "B3",
          "ticks": 59904,
          "time": 78,
          "velocity": 0.7716535433070866
        },
        {
          "duration": 0.0677083333333286,
          "durationTicks": 52,
          "midi": 55,
          "name": "G3",
          "ticks": 59904,
          "time": 78,
          "velocity": 0.6692913385826772
        },
        {
          "duration": 0.0807291666666714,
          "durationTicks": 62,
          "midi": 62,
          "name": "D4",
          "ticks": 59904,
          "time": 78,
          "velocity": 0.7874015748031497
        },
        {
          "duration": 0.0546875,
          "durationTicks": 42,
          "midi": 59,
          "name": "B3",
          "ticks": 60288,
          "time": 78.5,
          "velocity": 0.8031496062992126
        },
        {
          "duration": 0.059895833333328596,
          "durationTicks": 46,
          "midi": 55,
          "name": "G3",
          "ticks": 60288,
          "time": 78.5,
          "velocity": 0.7322834645669292
        },
        {
          "duration": 0.0729166666666714,
          "durationTicks": 56,
          "midi": 62,
          "name": "D4",
          "ticks": 60288,
          "time": 78.5,
          "velocity": 0.8031496062992126
        },
        {
          "duration": 0.052083333333328596,
          "durationTicks": 40,
          "midi": 55,
          "name": "G3",
          "ticks": 60672,
          "time": 79,
          "velocity": 0.6850393700787402
        },
        {
          "duration": 0.0546875,
          "durationTicks": 42,
          "midi": 62,
          "name": "D4",
          "ticks": 60672,
          "time": 79,
          "velocity": 0.7874015748031497
        },
        {
          "duration": 0.046875,
          "durationTicks": 36,
          "midi": 59,
          "name": "B3",
          "ticks": 60672,
          "time": 79,
          "velocity": 0.84251968503937
        },
        {
          "duration": 0.0546875,
          "durationTicks": 42,
          "midi": 59,
          "name": "B3",
          "ticks": 60864,
          "time": 79.25,
          "velocity": 0.8661417322834646
        },
        {
          "duration": 0.059895833333328596,
          "durationTicks": 46,
          "midi": 62,
          "name": "D4",
          "ticks": 60864,
          "time": 79.25,
          "velocity": 0.7716535433070866
        },
        {
          "duration": 0.0651041666666714,
          "durationTicks": 50,
          "midi": 55,
          "name": "G3",
          "ticks": 60864,
          "time": 79.25,
          "velocity": 0.7874015748031497
        },
        {
          "duration": 0.057291666666671404,
          "durationTicks": 44,
          "midi": 59,
          "name": "B3",
          "ticks": 61056,
          "time": 79.5,
          "velocity": 0.9133858267716536
        },
        {
          "duration": 0.0651041666666714,
          "durationTicks": 50,
          "midi": 55,
          "name": "G3",
          "ticks": 61056,
          "time": 79.5,
          "velocity": 0.8267716535433071
        },
        {
          "duration": 0.0729166666666714,
          "durationTicks": 56,
          "midi": 62,
          "name": "D4",
          "ticks": 61056,
          "time": 79.5,
          "velocity": 0.84251968503937
        },
        {
          "duration": 0.6119791666666714,
          "durationTicks": 470,
          "midi": 60,
          "name": "C4",
          "ticks": 61248,
          "time": 79.75,
          "velocity": 0.8661417322834646
        },
        {
          "duration": 0.6432291666666714,
          "durationTicks": 494,
          "midi": 57,
          "name": "A3",
          "ticks": 61248,
          "time": 79.75,
          "velocity": 0.9133858267716536
        },
        {
          "duration": 0.6276041666666714,
          "durationTicks": 482,
          "midi": 53,
          "name": "F3",
          "ticks": 61248,
          "time": 79.75,
          "velocity": 0.9133858267716536
        },
        {
          "duration": 0.078125,
          "durationTicks": 60,
          "midi": 60,
          "name": "C4",
          "ticks": 61824,
          "time": 80.5,
          "velocity": 0.84251968503937
        },
        {
          "duration": 0.059895833333328596,
          "durationTicks": 46,
          "midi": 53,
          "name": "F3",
          "ticks": 61824,
          "time": 80.5,
          "velocity": 0.8031496062992126
        },
        {
          "duration": 0.0625,
          "durationTicks": 48,
          "midi": 57,
          "name": "A3",
          "ticks": 61824,
          "time": 80.5,
          "velocity": 0.889763779527559
        },
        {
          "duration": 0.0651041666666714,
          "durationTicks": 50,
          "midi": 53,
          "name": "F3",
          "ticks": 62208,
          "time": 81,
          "velocity": 0.7165354330708661
        },
        {
          "duration": 0.0859375,
          "durationTicks": 66,
          "midi": 60,
          "name": "C4",
          "ticks": 62208,
          "time": 81,
          "velocity": 0.7874015748031497
        },
        {
          "duration": 0.0677083333333286,
          "durationTicks": 52,
          "midi": 57,
          "name": "A3",
          "ticks": 62208,
          "time": 81,
          "velocity": 0.8267716535433071
        },
        {
          "duration": 0.0625,
          "durationTicks": 48,
          "midi": 53,
          "name": "F3",
          "ticks": 62592,
          "time": 81.5,
          "velocity": 0.7322834645669292
        },
        {
          "duration": 0.0625,
          "durationTicks": 48,
          "midi": 57,
          "name": "A3",
          "ticks": 62592,
          "time": 81.5,
          "velocity": 0.7874015748031497
        },
        {
          "duration": 0.0833333333333286,
          "durationTicks": 64,
          "midi": 60,
          "name": "C4",
          "ticks": 62592,
          "time": 81.5,
          "velocity": 0.8267716535433071
        },
        {
          "duration": 0.0625,
          "durationTicks": 48,
          "midi": 53,
          "name": "F3",
          "ticks": 62976,
          "time": 82,
          "velocity": 0.7165354330708661
        },
        {
          "duration": 0.057291666666671404,
          "durationTicks": 44,
          "midi": 57,
          "name": "A3",
          "ticks": 62976,
          "time": 82,
          "velocity": 0.8031496062992126
        },
        {
          "duration": 0.078125,
          "durationTicks": 60,
          "midi": 60,
          "name": "C4",
          "ticks": 62976,
          "time": 82,
          "velocity": 0.8661417322834646
        },
        {
          "duration": 0.059895833333328596,
          "durationTicks": 46,
          "midi": 53,
          "name": "F3",
          "ticks": 63360,
          "time": 82.5,
          "velocity": 0.7716535433070866
        },
        {
          "duration": 0.0625,
          "durationTicks": 48,
          "midi": 57,
          "name": "A3",
          "ticks": 63360,
          "time": 82.5,
          "velocity": 0.8031496062992126
        },
        {
          "duration": 0.0859375,
          "durationTicks": 66,
          "midi": 60,
          "name": "C4",
          "ticks": 63360,
          "time": 82.5,
          "velocity": 0.7480314960629921
        },
        {
          "duration": 0.033854166666671404,
          "durationTicks": 26,
          "midi": 60,
          "name": "C4",
          "ticks": 63552,
          "time": 82.75,
          "velocity": 0.4566929133858268
        },
        {
          "duration": 0.0625,
          "durationTicks": 48,
          "midi": 53,
          "name": "F3",
          "ticks": 63744,
          "time": 83,
          "velocity": 0.7165354330708661
        },
        {
          "duration": 0.0546875,
          "durationTicks": 42,
          "midi": 57,
          "name": "A3",
          "ticks": 63744,
          "time": 83,
          "velocity": 0.8031496062992126
        },
        {
          "duration": 0.0625,
          "durationTicks": 48,
          "midi": 60,
          "name": "C4",
          "ticks": 63744,
          "time": 83,
          "velocity": 0.7874015748031497
        },
        {
          "duration": 0.046875,
          "durationTicks": 36,
          "midi": 53,
          "name": "F3",
          "ticks": 63936,
          "time": 83.25,
          "velocity": 0.7165354330708661
        },
        {
          "duration": 0.0703125,
          "durationTicks": 54,
          "midi": 57,
          "name": "A3",
          "ticks": 63936,
          "time": 83.25,
          "velocity": 0.84251968503937
        },
        {
          "duration": 0.0729166666666714,
          "durationTicks": 56,
          "midi": 60,
          "name": "C4",
          "ticks": 63936,
          "time": 83.25,
          "velocity": 0.8031496062992126
        },
        {
          "duration": 0.041666666666671404,
          "durationTicks": 32,
          "midi": 57,
          "name": "A3",
          "ticks": 64128,
          "time": 83.5,
          "velocity": 0.8267716535433071
        },
        {
          "duration": 0.0677083333333286,
          "durationTicks": 52,
          "midi": 53,
          "name": "F3",
          "ticks": 64128,
          "time": 83.5,
          "velocity": 0.7874015748031497
        },
        {
          "duration": 0.0807291666666714,
          "durationTicks": 62,
          "midi": 60,
          "name": "C4",
          "ticks": 64128,
          "time": 83.5,
          "velocity": 0.8031496062992126
        },
        {
          "duration": 0.609375,
          "durationTicks": 468,
          "midi": 55,
          "name": "G3",
          "ticks": 64320,
          "time": 83.75,
          "velocity": 0.84251968503937
        },
        {
          "duration": 0.6171875,
          "durationTicks": 474,
          "midi": 62,
          "name": "D4",
          "ticks": 64320,
          "time": 83.75,
          "velocity": 0.8661417322834646
        },
        {
          "duration": 0.6354166666666714,
          "durationTicks": 488,
          "midi": 59,
          "name": "B3",
          "ticks": 64320,
          "time": 83.75,
          "velocity": 0.889763779527559
        },
        {
          "duration": 0.0625,
          "durationTicks": 48,
          "midi": 62,
          "name": "D4",
          "ticks": 64896,
          "time": 84.5,
          "velocity": 0.7874015748031497
        },
        {
          "duration": 0.0625,
          "durationTicks": 48,
          "midi": 55,
          "name": "G3",
          "ticks": 64896,
          "time": 84.5,
          "velocity": 0.7480314960629921
        },
        {
          "duration": 0.057291666666671404,
          "durationTicks": 44,
          "midi": 59,
          "name": "B3",
          "ticks": 64896,
          "time": 84.5,
          "velocity": 0.8267716535433071
        },
        {
          "duration": 0.0651041666666714,
          "durationTicks": 50,
          "midi": 55,
          "name": "G3",
          "ticks": 65280,
          "time": 85,
          "velocity": 0.7874015748031497
        },
        {
          "duration": 0.0833333333333286,
          "durationTicks": 64,
          "midi": 62,
          "name": "D4",
          "ticks": 65280,
          "time": 85,
          "velocity": 0.8267716535433071
        },
        {
          "duration": 0.0625,
          "durationTicks": 48,
          "midi": 59,
          "name": "B3",
          "ticks": 65280,
          "time": 85,
          "velocity": 0.8267716535433071
        },
        {
          "duration": 0.0625,
          "durationTicks": 48,
          "midi": 55,
          "name": "G3",
          "ticks": 65664,
          "time": 85.5,
          "velocity": 0.8031496062992126
        },
        {
          "duration": 0.052083333333328596,
          "durationTicks": 40,
          "midi": 59,
          "name": "B3",
          "ticks": 65664,
          "time": 85.5,
          "velocity": 0.8661417322834646
        },
        {
          "duration": 0.0807291666666714,
          "durationTicks": 62,
          "midi": 62,
          "name": "D4",
          "ticks": 65664,
          "time": 85.5,
          "velocity": 0.8031496062992126
        },
        {
          "duration": 0.0625,
          "durationTicks": 48,
          "midi": 59,
          "name": "B3",
          "ticks": 66048,
          "time": 86,
          "velocity": 0.84251968503937
        },
        {
          "duration": 0.0651041666666714,
          "durationTicks": 50,
          "midi": 55,
          "name": "G3",
          "ticks": 66048,
          "time": 86,
          "velocity": 0.7874015748031497
        },
        {
          "duration": 0.0807291666666714,
          "durationTicks": 62,
          "midi": 62,
          "name": "D4",
          "ticks": 66048,
          "time": 86,
          "velocity": 0.8031496062992126
        },
        {
          "duration": 0.0677083333333286,
          "durationTicks": 52,
          "midi": 55,
          "name": "G3",
          "ticks": 66432,
          "time": 86.5,
          "velocity": 0.7874015748031497
        },
        {
          "duration": 0.0677083333333286,
          "durationTicks": 52,
          "midi": 59,
          "name": "B3",
          "ticks": 66432,
          "time": 86.5,
          "velocity": 0.889763779527559
        },
        {
          "duration": 0.0833333333333286,
          "durationTicks": 64,
          "midi": 62,
          "name": "D4",
          "ticks": 66432,
          "time": 86.5,
          "velocity": 0.8031496062992126
        },
        {
          "duration": 0.0546875,
          "durationTicks": 42,
          "midi": 55,
          "name": "G3",
          "ticks": 66816,
          "time": 87,
          "velocity": 0.7716535433070866
        },
        {
          "duration": 0.059895833333328596,
          "durationTicks": 46,
          "midi": 59,
          "name": "B3",
          "ticks": 66816,
          "time": 87,
          "velocity": 0.8661417322834646
        },
        {
          "duration": 0.0677083333333286,
          "durationTicks": 52,
          "midi": 62,
          "name": "D4",
          "ticks": 66816,
          "time": 87,
          "velocity": 0.8031496062992126
        },
        {
          "duration": 0.059895833333328596,
          "durationTicks": 46,
          "midi": 55,
          "name": "G3",
          "ticks": 67008,
          "time": 87.25,
          "velocity": 0.8267716535433071
        },
        {
          "duration": 0.0755208333333286,
          "durationTicks": 58,
          "midi": 62,
          "name": "D4",
          "ticks": 67008,
          "time": 87.25,
          "velocity": 0.8267716535433071
        },
        {
          "duration": 0.0625,
          "durationTicks": 48,
          "midi": 59,
          "name": "B3",
          "ticks": 67008,
          "time": 87.25,
          "velocity": 0.8661417322834646
        },
        {
          "duration": 0.046875,
          "durationTicks": 36,
          "midi": 59,
          "name": "B3",
          "ticks": 67200,
          "time": 87.5,
          "velocity": 0.8031496062992126
        },
        {
          "duration": 0.0625,
          "durationTicks": 48,
          "midi": 55,
          "name": "G3",
          "ticks": 67200,
          "time": 87.5,
          "velocity": 0.84251968503937
        },
        {
          "duration": 0.0729166666666714,
          "durationTicks": 56,
          "midi": 62,
          "name": "D4",
          "ticks": 67200,
          "time": 87.5,
          "velocity": 0.84251968503937
        },
        {
          "duration": 0.6223958333333286,
          "durationTicks": 478,
          "midi": 53,
          "name": "F3",
          "ticks": 67392,
          "time": 87.75,
          "velocity": 0.8661417322834646
        },
        {
          "duration": 0.6223958333333286,
          "durationTicks": 478,
          "midi": 60,
          "name": "C4",
          "ticks": 67392,
          "time": 87.75,
          "velocity": 0.84251968503937
        },
        {
          "duration": 0.6458333333333286,
          "durationTicks": 496,
          "midi": 57,
          "name": "A3",
          "ticks": 67392,
          "time": 87.75,
          "velocity": 0.9133858267716536
        },
        {
          "duration": 0.0729166666666714,
          "durationTicks": 56,
          "midi": 53,
          "name": "F3",
          "ticks": 67968,
          "time": 88.5,
          "velocity": 0.7165354330708661
        },
        {
          "duration": 0.09375,
          "durationTicks": 72,
          "midi": 60,
          "name": "C4",
          "ticks": 67968,
          "time": 88.5,
          "velocity": 0.8031496062992126
        },
        {
          "duration": 0.0833333333333286,
          "durationTicks": 64,
          "midi": 57,
          "name": "A3",
          "ticks": 67968,
          "time": 88.5,
          "velocity": 0.84251968503937
        },
        {
          "duration": 0.0625,
          "durationTicks": 48,
          "midi": 57,
          "name": "A3",
          "ticks": 68352,
          "time": 89,
          "velocity": 0.8267716535433071
        },
        {
          "duration": 0.0885416666666714,
          "durationTicks": 68,
          "midi": 60,
          "name": "C4",
          "ticks": 68352,
          "time": 89,
          "velocity": 0.84251968503937
        },
        {
          "duration": 0.0703125,
          "durationTicks": 54,
          "midi": 53,
          "name": "F3",
          "ticks": 68352,
          "time": 89,
          "velocity": 0.7480314960629921
        },
        {
          "duration": 0.0625,
          "durationTicks": 48,
          "midi": 57,
          "name": "A3",
          "ticks": 68736,
          "time": 89.5,
          "velocity": 0.8031496062992126
        },
        {
          "duration": 0.0677083333333286,
          "durationTicks": 52,
          "midi": 53,
          "name": "F3",
          "ticks": 68736,
          "time": 89.5,
          "velocity": 0.7716535433070866
        },
        {
          "duration": 0.0885416666666714,
          "durationTicks": 68,
          "midi": 60,
          "name": "C4",
          "ticks": 68736,
          "time": 89.5,
          "velocity": 0.8031496062992126
        },
        {
          "duration": 0.057291666666671404,
          "durationTicks": 44,
          "midi": 57,
          "name": "A3",
          "ticks": 69120,
          "time": 90,
          "velocity": 0.8031496062992126
        },
        {
          "duration": 0.0625,
          "durationTicks": 48,
          "midi": 53,
          "name": "F3",
          "ticks": 69120,
          "time": 90,
          "velocity": 0.7874015748031497
        },
        {
          "duration": 0.0703125,
          "durationTicks": 54,
          "midi": 60,
          "name": "C4",
          "ticks": 69120,
          "time": 90,
          "velocity": 0.8031496062992126
        },
        {
          "duration": 0.057291666666671404,
          "durationTicks": 44,
          "midi": 53,
          "name": "F3",
          "ticks": 69504,
          "time": 90.5,
          "velocity": 0.8031496062992126
        },
        {
          "duration": 0.057291666666671404,
          "durationTicks": 44,
          "midi": 57,
          "name": "A3",
          "ticks": 69504,
          "time": 90.5,
          "velocity": 0.889763779527559
        },
        {
          "duration": 0.0729166666666714,
          "durationTicks": 56,
          "midi": 60,
          "name": "C4",
          "ticks": 69504,
          "time": 90.5,
          "velocity": 0.8267716535433071
        },
        {
          "duration": 0.0546875,
          "durationTicks": 42,
          "midi": 53,
          "name": "F3",
          "ticks": 69888,
          "time": 91,
          "velocity": 0.7874015748031497
        },
        {
          "duration": 0.0546875,
          "durationTicks": 42,
          "midi": 57,
          "name": "A3",
          "ticks": 69888,
          "time": 91,
          "velocity": 0.8661417322834646
        },
        {
          "duration": 0.0651041666666714,
          "durationTicks": 50,
          "midi": 60,
          "name": "C4",
          "ticks": 69888,
          "time": 91,
          "velocity": 0.8031496062992126
        },
        {
          "duration": 0.057291666666671404,
          "durationTicks": 44,
          "midi": 57,
          "name": "A3",
          "ticks": 70080,
          "time": 91.25,
          "velocity": 0.8661417322834646
        },
        {
          "duration": 0.0651041666666714,
          "durationTicks": 50,
          "midi": 53,
          "name": "F3",
          "ticks": 70080,
          "time": 91.25,
          "velocity": 0.7874015748031497
        },
        {
          "duration": 0.0677083333333286,
          "durationTicks": 52,
          "midi": 60,
          "name": "C4",
          "ticks": 70080,
          "time": 91.25,
          "velocity": 0.8031496062992126
        },
        {
          "duration": 0.0625,
          "durationTicks": 48,
          "midi": 57,
          "name": "A3",
          "ticks": 70272,
          "time": 91.5,
          "velocity": 0.8661417322834646
        },
        {
          "duration": 0.0703125,
          "durationTicks": 54,
          "midi": 53,
          "name": "F3",
          "ticks": 70272,
          "time": 91.5,
          "velocity": 0.8031496062992126
        },
        {
          "duration": 0.0833333333333286,
          "durationTicks": 64,
          "midi": 60,
          "name": "C4",
          "ticks": 70272,
          "time": 91.5,
          "velocity": 0.8267716535433071
        },
        {
          "duration": 0.6458333333333286,
          "durationTicks": 496,
          "midi": 59,
          "name": "B3",
          "ticks": 70464,
          "time": 91.75,
          "velocity": 0.84251968503937
        },
        {
          "duration": 0.6354166666666714,
          "durationTicks": 488,
          "midi": 62,
          "name": "D4",
          "ticks": 70464,
          "time": 91.75,
          "velocity": 0.8661417322834646
        },
        {
          "duration": 0.6302083333333286,
          "durationTicks": 484,
          "midi": 55,
          "name": "G3",
          "ticks": 70464,
          "time": 91.75,
          "velocity": 0.84251968503937
        },
        {
          "duration": 0.0729166666666714,
          "durationTicks": 56,
          "midi": 55,
          "name": "G3",
          "ticks": 71040,
          "time": 92.5,
          "velocity": 0.6850393700787402
        },
        {
          "duration": 0.09375,
          "durationTicks": 72,
          "midi": 62,
          "name": "D4",
          "ticks": 71040,
          "time": 92.5,
          "velocity": 0.8267716535433071
        },
        {
          "duration": 0.0625,
          "durationTicks": 48,
          "midi": 59,
          "name": "B3",
          "ticks": 71040,
          "time": 92.5,
          "velocity": 0.84251968503937
        },
        {
          "duration": 0.052083333333328596,
          "durationTicks": 40,
          "midi": 55,
          "name": "G3",
          "ticks": 71424,
          "time": 93,
          "velocity": 0.7007874015748031
        },
        {
          "duration": 0.0833333333333286,
          "durationTicks": 64,
          "midi": 62,
          "name": "D4",
          "ticks": 71424,
          "time": 93,
          "velocity": 0.8031496062992126
        },
        {
          "duration": 0.0651041666666714,
          "durationTicks": 50,
          "midi": 59,
          "name": "B3",
          "ticks": 71424,
          "time": 93,
          "velocity": 0.84251968503937
        },
        {
          "duration": 0.0651041666666714,
          "durationTicks": 50,
          "midi": 55,
          "name": "G3",
          "ticks": 71808,
          "time": 93.5,
          "velocity": 0.8031496062992126
        },
        {
          "duration": 0.052083333333328596,
          "durationTicks": 40,
          "midi": 59,
          "name": "B3",
          "ticks": 71808,
          "time": 93.5,
          "velocity": 0.8267716535433071
        },
        {
          "duration": 0.0677083333333286,
          "durationTicks": 52,
          "midi": 62,
          "name": "D4",
          "ticks": 71808,
          "time": 93.5,
          "velocity": 0.8031496062992126
        },
        {
          "duration": 0.0625,
          "durationTicks": 48,
          "midi": 55,
          "name": "G3",
          "ticks": 72192,
          "time": 94,
          "velocity": 0.7874015748031497
        },
        {
          "duration": 0.052083333333328596,
          "durationTicks": 40,
          "midi": 59,
          "name": "B3",
          "ticks": 72192,
          "time": 94,
          "velocity": 0.8031496062992126
        },
        {
          "duration": 0.0859375,
          "durationTicks": 66,
          "midi": 62,
          "name": "D4",
          "ticks": 72192,
          "time": 94,
          "velocity": 0.8267716535433071
        },
        {
          "duration": 0.059895833333328596,
          "durationTicks": 46,
          "midi": 55,
          "name": "G3",
          "ticks": 72576,
          "time": 94.5,
          "velocity": 0.7480314960629921
        },
        {
          "duration": 0.049479166666671404,
          "durationTicks": 38,
          "midi": 59,
          "name": "B3",
          "ticks": 72576,
          "time": 94.5,
          "velocity": 0.84251968503937
        },
        {
          "duration": 0.0807291666666714,
          "durationTicks": 62,
          "midi": 62,
          "name": "D4",
          "ticks": 72576,
          "time": 94.5,
          "velocity": 0.8267716535433071
        },
        {
          "duration": 0.052083333333328596,
          "durationTicks": 40,
          "midi": 55,
          "name": "G3",
          "ticks": 72960,
          "time": 95,
          "velocity": 0.8031496062992126
        },
        {
          "duration": 0.049479166666671404,
          "durationTicks": 38,
          "midi": 59,
          "name": "B3",
          "ticks": 72960,
          "time": 95,
          "velocity": 0.8661417322834646
        },
        {
          "duration": 0.0677083333333286,
          "durationTicks": 52,
          "midi": 62,
          "name": "D4",
          "ticks": 72960,
          "time": 95,
          "velocity": 0.8267716535433071
        },
        {
          "duration": 0.0677083333333286,
          "durationTicks": 52,
          "midi": 55,
          "name": "G3",
          "ticks": 73152,
          "time": 95.25,
          "velocity": 0.7480314960629921
        },
        {
          "duration": 0.0625,
          "durationTicks": 48,
          "midi": 59,
          "name": "B3",
          "ticks": 73152,
          "time": 95.25,
          "velocity": 0.889763779527559
        },
        {
          "duration": 0.0729166666666714,
          "durationTicks": 56,
          "midi": 62,
          "name": "D4",
          "ticks": 73152,
          "time": 95.25,
          "velocity": 0.8031496062992126
        },
        {
          "duration": 0.059895833333328596,
          "durationTicks": 46,
          "midi": 59,
          "name": "B3",
          "ticks": 73536,
          "time": 95.75,
          "velocity": 0.8661417322834646
        },
        {
          "duration": 0.0677083333333286,
          "durationTicks": 52,
          "midi": 55,
          "name": "G3",
          "ticks": 73536,
          "time": 95.75,
          "velocity": 0.8031496062992126
        },
        {
          "duration": 0.0963541666666714,
          "durationTicks": 74,
          "midi": 62,
          "name": "D4",
          "ticks": 73536,
          "time": 95.75,
          "velocity": 0.84251968503937
        },
        {
          "duration": 0.059895833333328596,
          "durationTicks": 46,
          "midi": 64,
          "name": "E4",
          "ticks": 73728,
          "time": 96,
          "velocity": 0.7322834645669292
        },
        {
          "duration": 0.057291666666671404,
          "durationTicks": 44,
          "midi": 57,
          "name": "A3",
          "ticks": 73728,
          "time": 96,
          "velocity": 0.7007874015748031
        },
        {
          "duration": 0.0625,
          "durationTicks": 48,
          "midi": 60,
          "name": "C4",
          "ticks": 73728,
          "time": 96,
          "velocity": 0.7874015748031497
        },
        {
          "duration": 0.059895833333328596,
          "durationTicks": 46,
          "midi": 60,
          "name": "C4",
          "ticks": 74112,
          "time": 96.5,
          "velocity": 0.7322834645669292
        },
        {
          "duration": 0.0885416666666714,
          "durationTicks": 68,
          "midi": 57,
          "name": "A3",
          "ticks": 74112,
          "time": 96.5,
          "velocity": 0.7165354330708661
        },
        {
          "duration": 0.0989583333333286,
          "durationTicks": 76,
          "midi": 64,
          "name": "E4",
          "ticks": 74112,
          "time": 96.5,
          "velocity": 0.7716535433070866
        },
        {
          "duration": 0.0677083333333286,
          "durationTicks": 52,
          "midi": 59,
          "name": "B3",
          "ticks": 74880,
          "time": 97.5,
          "velocity": 0.8267716535433071
        },
        {
          "duration": 0.0729166666666714,
          "durationTicks": 56,
          "midi": 55,
          "name": "G3",
          "ticks": 74880,
          "time": 97.5,
          "velocity": 0.7716535433070866
        },
        {
          "duration": 0.0859375,
          "durationTicks": 66,
          "midi": 62,
          "name": "D4",
          "ticks": 74880,
          "time": 97.5,
          "velocity": 0.8031496062992126
        },
        {
          "duration": 0.059895833333328596,
          "durationTicks": 46,
          "midi": 64,
          "name": "E4",
          "ticks": 75264,
          "time": 98,
          "velocity": 0.6850393700787402
        },
        {
          "duration": 0.0651041666666714,
          "durationTicks": 50,
          "midi": 57,
          "name": "A3",
          "ticks": 75264,
          "time": 98,
          "velocity": 0.6456692913385826
        },
        {
          "duration": 0.049479166666671404,
          "durationTicks": 38,
          "midi": 60,
          "name": "C4",
          "ticks": 75264,
          "time": 98,
          "velocity": 0.7165354330708661
        },
        {
          "duration": 0.052083333333328596,
          "durationTicks": 40,
          "midi": 60,
          "name": "C4",
          "ticks": 75648,
          "time": 98.5,
          "velocity": 0.84251968503937
        },
        {
          "duration": 0.0546875,
          "durationTicks": 42,
          "midi": 57,
          "name": "A3",
          "ticks": 75648,
          "time": 98.5,
          "velocity": 0.8031496062992126
        },
        {
          "duration": 0.0755208333333286,
          "durationTicks": 58,
          "midi": 64,
          "name": "E4",
          "ticks": 75648,
          "time": 98.5,
          "velocity": 0.8031496062992126
        },
        {
          "duration": 0.052083333333328596,
          "durationTicks": 40,
          "midi": 57,
          "name": "A3",
          "ticks": 76224,
          "time": 99.25,
          "velocity": 0.7007874015748031
        },
        {
          "duration": 0.049479166666671404,
          "durationTicks": 38,
          "midi": 60,
          "name": "C4",
          "ticks": 76224,
          "time": 99.25,
          "velocity": 0.7716535433070866
        },
        {
          "duration": 0.0807291666666714,
          "durationTicks": 62,
          "midi": 64,
          "name": "E4",
          "ticks": 76224,
          "time": 99.25,
          "velocity": 0.8031496062992126
        },
        {
          "duration": 0.041666666666671404,
          "durationTicks": 32,
          "midi": 60,
          "name": "C4",
          "ticks": 76416,
          "time": 99.5,
          "velocity": 0.8267716535433071
        },
        {
          "duration": 0.052083333333328596,
          "durationTicks": 40,
          "midi": 57,
          "name": "A3",
          "ticks": 76416,
          "time": 99.5,
          "velocity": 0.7716535433070866
        },
        {
          "duration": 0.0859375,
          "durationTicks": 66,
          "midi": 64,
          "name": "E4",
          "ticks": 76416,
          "time": 99.5,
          "velocity": 0.84251968503937
        },
        {
          "duration": 0.0859375,
          "durationTicks": 66,
          "midi": 57,
          "name": "A3",
          "ticks": 77184,
          "time": 100.5,
          "velocity": 0.7480314960629921
        },
        {
          "duration": 0.1041666666666714,
          "durationTicks": 80,
          "midi": 50,
          "name": "D3",
          "ticks": 77184,
          "time": 100.5,
          "velocity": 0.8267716535433071
        },
        {
          "duration": 0.0755208333333286,
          "durationTicks": 58,
          "midi": 65,
          "name": "F4",
          "ticks": 77184,
          "time": 100.5,
          "velocity": 0.84251968503937
        },
        {
          "duration": 0.0833333333333286,
          "durationTicks": 64,
          "midi": 62,
          "name": "D4",
          "ticks": 77184,
          "time": 100.5,
          "velocity": 0.7716535433070866
        },
        {
          "duration": 0.109375,
          "durationTicks": 84,
          "midi": 69,
          "name": "A4",
          "ticks": 77184,
          "time": 100.5,
          "velocity": 0.8267716535433071
        },
        {
          "duration": 0.0989583333333286,
          "durationTicks": 76,
          "midi": 50,
          "name": "D3",
          "ticks": 77952,
          "time": 101.5,
          "velocity": 0.84251968503937
        },
        {
          "duration": 0.09375,
          "durationTicks": 72,
          "midi": 57,
          "name": "A3",
          "ticks": 77952,
          "time": 101.5,
          "velocity": 0.8267716535433071
        },
        {
          "duration": 0.0677083333333286,
          "durationTicks": 52,
          "midi": 65,
          "name": "F4",
          "ticks": 77952,
          "time": 101.5,
          "velocity": 0.8661417322834646
        },
        {
          "duration": 0.0859375,
          "durationTicks": 66,
          "midi": 62,
          "name": "D4",
          "ticks": 77952,
          "time": 101.5,
          "velocity": 0.8267716535433071
        },
        {
          "duration": 0.1145833333333286,
          "durationTicks": 88,
          "midi": 69,
          "name": "A4",
          "ticks": 77952,
          "time": 101.5,
          "velocity": 0.8661417322834646
        },
        {
          "duration": 0.0989583333333286,
          "durationTicks": 76,
          "midi": 57,
          "name": "A3",
          "ticks": 78720,
          "time": 102.5,
          "velocity": 0.7716535433070866
        },
        {
          "duration": 0.1067708333333286,
          "durationTicks": 82,
          "midi": 50,
          "name": "D3",
          "ticks": 78720,
          "time": 102.5,
          "velocity": 0.8031496062992126
        },
        {
          "duration": 0.0729166666666714,
          "durationTicks": 56,
          "midi": 65,
          "name": "F4",
          "ticks": 78720,
          "time": 102.5,
          "velocity": 0.8031496062992126
        },
        {
          "duration": 0.0885416666666714,
          "durationTicks": 68,
          "midi": 62,
          "name": "D4",
          "ticks": 78720,
          "time": 102.5,
          "velocity": 0.7874015748031497
        },
        {
          "duration": 0.1041666666666714,
          "durationTicks": 80,
          "midi": 69,
          "name": "A4",
          "ticks": 78720,
          "time": 102.5,
          "velocity": 0.8267716535433071
        },
        {
          "duration": 0.0651041666666714,
          "durationTicks": 50,
          "midi": 57,
          "name": "A3",
          "ticks": 79488,
          "time": 103.5,
          "velocity": 0.7322834645669292
        },
        {
          "duration": 0.09375,
          "durationTicks": 72,
          "midi": 50,
          "name": "D3",
          "ticks": 79488,
          "time": 103.5,
          "velocity": 0.7874015748031497
        },
        {
          "duration": 0.0729166666666714,
          "durationTicks": 56,
          "midi": 65,
          "name": "F4",
          "ticks": 79488,
          "time": 103.5,
          "velocity": 0.7874015748031497
        },
        {
          "duration": 0.0807291666666714,
          "durationTicks": 62,
          "midi": 69,
          "name": "A4",
          "ticks": 79488,
          "time": 103.5,
          "velocity": 0.7874015748031497
        },
        {
          "duration": 0.1015625,
          "durationTicks": 78,
          "midi": 62,
          "name": "D4",
          "ticks": 79488,
          "time": 103.5,
          "velocity": 0.7165354330708661
        },
        {
          "duration": 0.4114583333333286,
          "durationTicks": 316,
          "midi": 59,
          "name": "B3",
          "ticks": 79872,
          "time": 104,
          "velocity": 0.8031496062992126
        },
        {
          "duration": 0.3958333333333286,
          "durationTicks": 304,
          "midi": 62,
          "name": "D4",
          "ticks": 79872,
          "time": 104,
          "velocity": 0.8267716535433071
        },
        {
          "duration": 0.4036458333333286,
          "durationTicks": 310,
          "midi": 55,
          "name": "G3",
          "ticks": 79872,
          "time": 104,
          "velocity": 0.7480314960629921
        },
        {
          "duration": 0.3932291666666714,
          "durationTicks": 302,
          "midi": 59,
          "name": "B3",
          "ticks": 80256,
          "time": 104.5,
          "velocity": 0.8031496062992126
        },
        {
          "duration": 0.3828125,
          "durationTicks": 294,
          "midi": 62,
          "name": "D4",
          "ticks": 80256,
          "time": 104.5,
          "velocity": 0.7874015748031497
        },
        {
          "duration": 0.3619791666666714,
          "durationTicks": 278,
          "midi": 55,
          "name": "G3",
          "ticks": 80256,
          "time": 104.5,
          "velocity": 0.7007874015748031
        },
        {
          "duration": 0.40625,
          "durationTicks": 312,
          "midi": 53,
          "name": "F3",
          "ticks": 80640,
          "time": 105,
          "velocity": 0.8031496062992126
        },
        {
          "duration": 0.40625,
          "durationTicks": 312,
          "midi": 59,
          "name": "B3",
          "ticks": 80640,
          "time": 105,
          "velocity": 0.8031496062992126
        },
        {
          "duration": 0.4010416666666714,
          "durationTicks": 308,
          "midi": 62,
          "name": "D4",
          "ticks": 80640,
          "time": 105,
          "velocity": 0.8267716535433071
        },
        {
          "duration": 0.4010416666666714,
          "durationTicks": 308,
          "midi": 59,
          "name": "B3",
          "ticks": 81024,
          "time": 105.5,
          "velocity": 0.8031496062992126
        },
        {
          "duration": 0.3932291666666714,
          "durationTicks": 302,
          "midi": 62,
          "name": "D4",
          "ticks": 81024,
          "time": 105.5,
          "velocity": 0.7874015748031497
        },
        {
          "duration": 0.3776041666666714,
          "durationTicks": 290,
          "midi": 53,
          "name": "F3",
          "ticks": 81024,
          "time": 105.5,
          "velocity": 0.7716535433070866
        },
        {
          "duration": 0.40625,
          "durationTicks": 312,
          "midi": 62,
          "name": "D4",
          "ticks": 81408,
          "time": 106,
          "velocity": 0.8031496062992126
        },
        {
          "duration": 0.4036458333333286,
          "durationTicks": 310,
          "midi": 55,
          "name": "G3",
          "ticks": 81408,
          "time": 106,
          "velocity": 0.7874015748031497
        },
        {
          "duration": 0.40625,
          "durationTicks": 312,
          "midi": 52,
          "name": "E3",
          "ticks": 81408,
          "time": 106,
          "velocity": 0.7716535433070866
        },
        {
          "duration": 0.4140625,
          "durationTicks": 318,
          "midi": 59,
          "name": "B3",
          "ticks": 81408,
          "time": 106,
          "velocity": 0.8031496062992126
        },
        {
          "duration": 0.40625,
          "durationTicks": 312,
          "midi": 59,
          "name": "B3",
          "ticks": 81792,
          "time": 106.5,
          "velocity": 0.7716535433070866
        },
        {
          "duration": 0.3958333333333286,
          "durationTicks": 304,
          "midi": 52,
          "name": "E3",
          "ticks": 81792,
          "time": 106.5,
          "velocity": 0.7480314960629921
        },
        {
          "duration": 0.4010416666666714,
          "durationTicks": 308,
          "midi": 55,
          "name": "G3",
          "ticks": 81792,
          "time": 106.5,
          "velocity": 0.7874015748031497
        },
        {
          "duration": 0.4010416666666714,
          "durationTicks": 308,
          "midi": 62,
          "name": "D4",
          "ticks": 81792,
          "time": 106.5,
          "velocity": 0.7874015748031497
        },
        {
          "duration": 0.390625,
          "durationTicks": 300,
          "midi": 55,
          "name": "G3",
          "ticks": 82176,
          "time": 107,
          "velocity": 0.6692913385826772
        },
        {
          "duration": 0.3984375,
          "durationTicks": 306,
          "midi": 59,
          "name": "B3",
          "ticks": 82176,
          "time": 107,
          "velocity": 0.7480314960629921
        },
        {
          "duration": 0.7682291666666714,
          "durationTicks": 590,
          "midi": 50,
          "name": "D3",
          "ticks": 82176,
          "time": 107,
          "velocity": 0.84251968503937
        },
        {
          "duration": 0.4010416666666714,
          "durationTicks": 308,
          "midi": 62,
          "name": "D4",
          "ticks": 82176,
          "time": 107,
          "velocity": 0.7716535433070866
        },
        {
          "duration": 0.2734375,
          "durationTicks": 210,
          "midi": 59,
          "name": "B3",
          "ticks": 82560,
          "time": 107.5,
          "velocity": 0.8267716535433071
        },
        {
          "duration": 0.265625,
          "durationTicks": 204,
          "midi": 55,
          "name": "G3",
          "ticks": 82560,
          "time": 107.5,
          "velocity": 0.7480314960629921
        },
        {
          "duration": 0.2838541666666714,
          "durationTicks": 218,
          "midi": 62,
          "name": "D4",
          "ticks": 82560,
          "time": 107.5,
          "velocity": 0.8031496062992126
        },
        {
          "duration": 0.390625,
          "durationTicks": 300,
          "midi": 72,
          "name": "C5",
          "ticks": 83328,
          "time": 108.5,
          "velocity": 0.9291338582677166
        },
        {
          "duration": 0.3541666666666714,
          "durationTicks": 272,
          "midi": 60,
          "name": "C4",
          "ticks": 83328,
          "time": 108.5,
          "velocity": 0.9291338582677166
        },
        {
          "duration": 0.8098958333333286,
          "durationTicks": 622,
          "midi": 74,
          "name": "D5",
          "ticks": 83712,
          "time": 109,
          "velocity": 0.9291338582677166
        },
        {
          "duration": 0.8098958333333286,
          "durationTicks": 622,
          "midi": 62,
          "name": "D4",
          "ticks": 83712,
          "time": 109,
          "velocity": 0.9291338582677166
        },
        {
          "duration": 0.3854166666666714,
          "durationTicks": 296,
          "midi": 62,
          "name": "D4",
          "ticks": 84864,
          "time": 110.5,
          "velocity": 0.9291338582677166
        },
        {
          "duration": 0.3776041666666714,
          "durationTicks": 290,
          "midi": 74,
          "name": "D5",
          "ticks": 84864,
          "time": 110.5,
          "velocity": 0.9291338582677166
        },
        {
          "duration": 0.8125,
          "durationTicks": 624,
          "midi": 60,
          "name": "C4",
          "ticks": 85248,
          "time": 111,
          "velocity": 0.9291338582677166
        },
        {
          "duration": 0.8385416666666714,
          "durationTicks": 644,
          "midi": 72,
          "name": "C5",
          "ticks": 85248,
          "time": 111,
          "velocity": 0.9291338582677166
        },
        {
          "duration": 0.1015625,
          "durationTicks": 78,
          "midi": 72,
          "name": "C5",
          "ticks": 86400,
          "time": 112.5,
          "velocity": 0.9291338582677166
        },
        {
          "duration": 0.0885416666666714,
          "durationTicks": 68,
          "midi": 60,
          "name": "C4",
          "ticks": 86400,
          "time": 112.5,
          "velocity": 0.9291338582677166
        },
        {
          "duration": 0.0677083333333286,
          "durationTicks": 52,
          "midi": 60,
          "name": "C4",
          "ticks": 86592,
          "time": 112.75,
          "velocity": 0.9291338582677166
        },
        {
          "duration": 0.09375,
          "durationTicks": 72,
          "midi": 72,
          "name": "C5",
          "ticks": 86592,
          "time": 112.75,
          "velocity": 0.9291338582677166
        },
        {
          "duration": 0.3020833333333286,
          "durationTicks": 232,
          "midi": 74,
          "name": "D5",
          "ticks": 86784,
          "time": 113,
          "velocity": 0.9291338582677166
        },
        {
          "duration": 0.3177083333333286,
          "durationTicks": 244,
          "midi": 62,
          "name": "D4",
          "ticks": 86784,
          "time": 113,
          "velocity": 0.9291338582677166
        },
        {
          "duration": 0.4609375,
          "durationTicks": 354,
          "midi": 60,
          "name": "C4",
          "ticks": 87168,
          "time": 113.5,
          "velocity": 0.9291338582677166
        },
        {
          "duration": 0.5104166666666714,
          "durationTicks": 392,
          "midi": 72,
          "name": "C5",
          "ticks": 87168,
          "time": 113.5,
          "velocity": 0.9291338582677166
        },
        {
          "duration": 0.3072916666666714,
          "durationTicks": 236,
          "midi": 62,
          "name": "D4",
          "ticks": 87936,
          "time": 114.5,
          "velocity": 0.9291338582677166
        },
        {
          "duration": 0.3046875,
          "durationTicks": 234,
          "midi": 74,
          "name": "D5",
          "ticks": 87936,
          "time": 114.5,
          "velocity": 0.9291338582677166
        },
        {
          "duration": 0.5208333333333286,
          "durationTicks": 400,
          "midi": 60,
          "name": "C4",
          "ticks": 88320,
          "time": 115,
          "velocity": 0.9291338582677166
        },
        {
          "duration": 0.5651041666666714,
          "durationTicks": 434,
          "midi": 72,
          "name": "C5",
          "ticks": 88320,
          "time": 115,
          "velocity": 0.9291338582677166
        },
        {
          "duration": 0.390625,
          "durationTicks": 300,
          "midi": 72,
          "name": "C5",
          "ticks": 89472,
          "time": 116.5,
          "velocity": 0.9291338582677166
        },
        {
          "duration": 0.3541666666666714,
          "durationTicks": 272,
          "midi": 60,
          "name": "C4",
          "ticks": 89472,
          "time": 116.5,
          "velocity": 0.9291338582677166
        },
        {
          "duration": 0.8098958333333286,
          "durationTicks": 622,
          "midi": 74,
          "name": "D5",
          "ticks": 89856,
          "time": 117,
          "velocity": 0.9291338582677166
        },
        {
          "duration": 0.8098958333333286,
          "durationTicks": 622,
          "midi": 62,
          "name": "D4",
          "ticks": 89856,
          "time": 117,
          "velocity": 0.9291338582677166
        },
        {
          "duration": 0.3854166666666714,
          "durationTicks": 296,
          "midi": 62,
          "name": "D4",
          "ticks": 91008,
          "time": 118.5,
          "velocity": 0.9291338582677166
        },
        {
          "duration": 0.3776041666666714,
          "durationTicks": 290,
          "midi": 74,
          "name": "D5",
          "ticks": 91008,
          "time": 118.5,
          "velocity": 0.9291338582677166
        },
        {
          "duration": 0.8125,
          "durationTicks": 624,
          "midi": 60,
          "name": "C4",
          "ticks": 91392,
          "time": 119,
          "velocity": 0.9291338582677166
        },
        {
          "duration": 0.8385416666666714,
          "durationTicks": 644,
          "midi": 72,
          "name": "C5",
          "ticks": 91392,
          "time": 119,
          "velocity": 0.9291338582677166
        },
        {
          "duration": 0.1015625,
          "durationTicks": 78,
          "midi": 72,
          "name": "C5",
          "ticks": 92544,
          "time": 120.5,
          "velocity": 0.9291338582677166
        },
        {
          "duration": 0.0885416666666714,
          "durationTicks": 68,
          "midi": 60,
          "name": "C4",
          "ticks": 92544,
          "time": 120.5,
          "velocity": 0.9291338582677166
        },
        {
          "duration": 0.0677083333333286,
          "durationTicks": 52,
          "midi": 60,
          "name": "C4",
          "ticks": 92736,
          "time": 120.75,
          "velocity": 0.9291338582677166
        },
        {
          "duration": 0.09375,
          "durationTicks": 72,
          "midi": 72,
          "name": "C5",
          "ticks": 92736,
          "time": 120.75,
          "velocity": 0.9291338582677166
        },
        {
          "duration": 0.3020833333333286,
          "durationTicks": 232,
          "midi": 74,
          "name": "D5",
          "ticks": 92928,
          "time": 121,
          "velocity": 0.9291338582677166
        },
        {
          "duration": 0.3177083333333286,
          "durationTicks": 244,
          "midi": 62,
          "name": "D4",
          "ticks": 92928,
          "time": 121,
          "velocity": 0.9291338582677166
        },
        {
          "duration": 0.4609375,
          "durationTicks": 354,
          "midi": 60,
          "name": "C4",
          "ticks": 93312,
          "time": 121.5,
          "velocity": 0.9291338582677166
        },
        {
          "duration": 0.5104166666666714,
          "durationTicks": 392,
          "midi": 72,
          "name": "C5",
          "ticks": 93312,
          "time": 121.5,
          "velocity": 0.9291338582677166
        },
        {
          "duration": 0.3072916666666714,
          "durationTicks": 236,
          "midi": 62,
          "name": "D4",
          "ticks": 94080,
          "time": 122.5,
          "velocity": 0.9291338582677166
        },
        {
          "duration": 0.3046875,
          "durationTicks": 234,
          "midi": 74,
          "name": "D5",
          "ticks": 94080,
          "time": 122.5,
          "velocity": 0.9291338582677166
        },
        {
          "duration": 0.5208333333333286,
          "durationTicks": 400,
          "midi": 60,
          "name": "C4",
          "ticks": 94464,
          "time": 123,
          "velocity": 0.9291338582677166
        },
        {
          "duration": 0.5651041666666714,
          "durationTicks": 434,
          "midi": 72,
          "name": "C5",
          "ticks": 94464,
          "time": 123,
          "velocity": 0.9291338582677166
        },
        {
          "duration": 0.78125,
          "durationTicks": 600,
          "midi": 51,
          "name": "D#3",
          "ticks": 95232,
          "time": 124,
          "velocity": 0.5984251968503937
        },
        {
          "duration": 0.3723958333333286,
          "durationTicks": 286,
          "midi": 58,
          "name": "A#3",
          "ticks": 95232,
          "time": 124,
          "velocity": 0.7480314960629921
        },
        {
          "duration": 0.3541666666666714,
          "durationTicks": 272,
          "midi": 67,
          "name": "G4",
          "ticks": 95232,
          "time": 124,
          "velocity": 0.7322834645669292
        },
        {
          "duration": 0.3854166666666714,
          "durationTicks": 296,
          "midi": 63,
          "name": "D#4",
          "ticks": 95232,
          "time": 124,
          "velocity": 0.7322834645669292
        },
        {
          "duration": 0.8072916666666714,
          "durationTicks": 620,
          "midi": 55,
          "name": "G3",
          "ticks": 95232,
          "time": 124,
          "velocity": 0.6850393700787402
        },
        {
          "duration": 0.1848958333333286,
          "durationTicks": 142,
          "midi": 58,
          "name": "A#3",
          "ticks": 95616,
          "time": 124.5,
          "velocity": 0.6456692913385826
        },
        {
          "duration": 0.2109375,
          "durationTicks": 162,
          "midi": 63,
          "name": "D#4",
          "ticks": 95616,
          "time": 124.5,
          "velocity": 0.7322834645669292
        },
        {
          "duration": 0.375,
          "durationTicks": 288,
          "midi": 67,
          "name": "G4",
          "ticks": 95616,
          "time": 124.5,
          "velocity": 0.8031496062992126
        },
        {
          "duration": 0.3697916666666714,
          "durationTicks": 284,
          "midi": 67,
          "name": "G4",
          "ticks": 96000,
          "time": 125,
          "velocity": 0.84251968503937
        },
        {
          "duration": 0.3567708333333286,
          "durationTicks": 274,
          "midi": 62,
          "name": "D4",
          "ticks": 96000,
          "time": 125,
          "velocity": 0.8031496062992126
        },
        {
          "duration": 0.6223958333333286,
          "durationTicks": 478,
          "midi": 51,
          "name": "D#3",
          "ticks": 96000,
          "time": 125,
          "velocity": 0.5354330708661418
        },
        {
          "duration": 0.640625,
          "durationTicks": 492,
          "midi": 55,
          "name": "G3",
          "ticks": 96000,
          "time": 125,
          "velocity": 0.7007874015748031
        },
        {
          "duration": 0.2369791666666714,
          "durationTicks": 182,
          "midi": 62,
          "name": "D4",
          "ticks": 96384,
          "time": 125.5,
          "velocity": 0.8031496062992126
        },
        {
          "duration": 0.2890625,
          "durationTicks": 222,
          "midi": 67,
          "name": "G4",
          "ticks": 96384,
          "time": 125.5,
          "velocity": 0.8031496062992126
        },
        {
          "duration": 0.859375,
          "durationTicks": 660,
          "midi": 51,
          "name": "D#3",
          "ticks": 96576,
          "time": 125.75,
          "velocity": 0.6692913385826772
        },
        {
          "duration": 0.2786458333333286,
          "durationTicks": 214,
          "midi": 55,
          "name": "G3",
          "ticks": 96672,
          "time": 125.875,
          "velocity": 0.5984251968503937
        },
        {
          "duration": 0.3151041666666714,
          "durationTicks": 242,
          "midi": 60,
          "name": "C4",
          "ticks": 96768,
          "time": 126,
          "velocity": 0.7874015748031497
        },
        {
          "duration": 0.3307291666666714,
          "durationTicks": 254,
          "midi": 67,
          "name": "G4",
          "ticks": 96768,
          "time": 126,
          "velocity": 0.8031496062992126
        },
        {
          "duration": 0.1875,
          "durationTicks": 144,
          "midi": 60,
          "name": "C4",
          "ticks": 97152,
          "time": 126.5,
          "velocity": 0.7874015748031497
        },
        {
          "duration": 0.3020833333333286,
          "durationTicks": 232,
          "midi": 67,
          "name": "G4",
          "ticks": 97152,
          "time": 126.5,
          "velocity": 0.8031496062992126
        },
        {
          "duration": 0.6197916666666714,
          "durationTicks": 476,
          "midi": 51,
          "name": "D#3",
          "ticks": 97344,
          "time": 126.75,
          "velocity": 0.5354330708661418
        },
        {
          "duration": 0.1979166666666714,
          "durationTicks": 152,
          "midi": 55,
          "name": "G3",
          "ticks": 97440,
          "time": 126.875,
          "velocity": 0.5196850393700787
        },
        {
          "duration": 0.3020833333333286,
          "durationTicks": 232,
          "midi": 62,
          "name": "D4",
          "ticks": 97536,
          "time": 127,
          "velocity": 0.7874015748031497
        },
        {
          "duration": 0.328125,
          "durationTicks": 252,
          "midi": 67,
          "name": "G4",
          "ticks": 97536,
          "time": 127,
          "velocity": 0.7716535433070866
        },
        {
          "duration": 0.1328125,
          "durationTicks": 102,
          "midi": 55,
          "name": "G3",
          "ticks": 97728,
          "time": 127.25,
          "velocity": 0.6850393700787402
        },
        {
          "duration": 0.1380208333333286,
          "durationTicks": 106,
          "midi": 62,
          "name": "D4",
          "ticks": 97920,
          "time": 127.5,
          "velocity": 0.7716535433070866
        },
        {
          "duration": 0.1458333333333286,
          "durationTicks": 112,
          "midi": 67,
          "name": "G4",
          "ticks": 97920,
          "time": 127.5,
          "velocity": 0.8031496062992126
        },
        {
          "duration": 1.8463541666666572,
          "durationTicks": 1418,
          "midi": 48,
          "name": "C3",
          "ticks": 98208,
          "time": 127.875,
          "velocity": 0.6141732283464567
        },
        {
          "duration": 0.3880208333333428,
          "durationTicks": 298,
          "midi": 67,
          "name": "G4",
          "ticks": 98304,
          "time": 128,
          "velocity": 0.7480314960629921
        },
        {
          "duration": 0.4270833333333428,
          "durationTicks": 328,
          "midi": 64,
          "name": "E4",
          "ticks": 98304,
          "time": 128,
          "velocity": 0.8267716535433071
        },
        {
          "duration": 0.3984375,
          "durationTicks": 306,
          "midi": 60,
          "name": "C4",
          "ticks": 98304,
          "time": 128,
          "velocity": 0.7322834645669292
        },
        {
          "duration": 0.3645833333333428,
          "durationTicks": 280,
          "midi": 64,
          "name": "E4",
          "ticks": 98688,
          "time": 128.5,
          "velocity": 0.7480314960629921
        },
        {
          "duration": 0.3359375,
          "durationTicks": 258,
          "midi": 60,
          "name": "C4",
          "ticks": 98688,
          "time": 128.5,
          "velocity": 0.6692913385826772
        },
        {
          "duration": 0.34375,
          "durationTicks": 264,
          "midi": 67,
          "name": "G4",
          "ticks": 98688,
          "time": 128.5,
          "velocity": 0.6692913385826772
        },
        {
          "duration": 0.06770833333334281,
          "durationTicks": 52,
          "midi": 55,
          "name": "G3",
          "ticks": 98976,
          "time": 128.875,
          "velocity": 0.4566929133858268
        },
        {
          "duration": 0.07552083333334281,
          "durationTicks": 58,
          "midi": 67,
          "name": "G4",
          "ticks": 99072,
          "time": 129,
          "velocity": 0.7007874015748031
        },
        {
          "duration": 0.07552083333334281,
          "durationTicks": 58,
          "midi": 64,
          "name": "E4",
          "ticks": 99072,
          "time": 129,
          "velocity": 0.7322834645669292
        },
        {
          "duration": 0.0859375,
          "durationTicks": 66,
          "midi": 59,
          "name": "B3",
          "ticks": 99072,
          "time": 129,
          "velocity": 0.7007874015748031
        },
        {
          "duration": 0.40625,
          "durationTicks": 312,
          "midi": 64,
          "name": "E4",
          "ticks": 99264,
          "time": 129.25,
          "velocity": 0.7165354330708661
        },
        {
          "duration": 0.3463541666666572,
          "durationTicks": 266,
          "midi": 59,
          "name": "B3",
          "ticks": 99264,
          "time": 129.25,
          "velocity": 0.7716535433070866
        },
        {
          "duration": 0.3541666666666572,
          "durationTicks": 272,
          "midi": 67,
          "name": "G4",
          "ticks": 99264,
          "time": 129.25,
          "velocity": 0.8031496062992126
        },
        {
          "duration": 0.1666666666666572,
          "durationTicks": 128,
          "midi": 55,
          "name": "G3",
          "ticks": 99456,
          "time": 129.5,
          "velocity": 0.7165354330708661
        },
        {
          "duration": 0.10416666666665719,
          "durationTicks": 80,
          "midi": 60,
          "name": "C4",
          "ticks": 99648,
          "time": 129.75,
          "velocity": 0.7165354330708661
        },
        {
          "duration": 0.1015625,
          "durationTicks": 78,
          "midi": 67,
          "name": "G4",
          "ticks": 99648,
          "time": 129.75,
          "velocity": 0.6692913385826772
        },
        {
          "duration": 0.1015625,
          "durationTicks": 78,
          "midi": 64,
          "name": "E4",
          "ticks": 99648,
          "time": 129.75,
          "velocity": 0.6850393700787402
        },
        {
          "duration": 0.3880208333333428,
          "durationTicks": 298,
          "midi": 60,
          "name": "C4",
          "ticks": 99840,
          "time": 130,
          "velocity": 0.6692913385826772
        },
        {
          "duration": 0.3958333333333428,
          "durationTicks": 304,
          "midi": 67,
          "name": "G4",
          "ticks": 99840,
          "time": 130,
          "velocity": 0.7165354330708661
        },
        {
          "duration": 0.4166666666666572,
          "durationTicks": 320,
          "midi": 64,
          "name": "E4",
          "ticks": 99840,
          "time": 130,
          "velocity": 0.7874015748031497
        },
        {
          "duration": 1.5755208333333428,
          "durationTicks": 1210,
          "midi": 48,
          "name": "C3",
          "ticks": 99840,
          "time": 130,
          "velocity": 0.5354330708661418
        },
        {
          "duration": 0.375,
          "durationTicks": 288,
          "midi": 64,
          "name": "E4",
          "ticks": 100224,
          "time": 130.5,
          "velocity": 0.7716535433070866
        },
        {
          "duration": 0.3567708333333428,
          "durationTicks": 274,
          "midi": 60,
          "name": "C4",
          "ticks": 100224,
          "time": 130.5,
          "velocity": 0.7716535433070866
        },
        {
          "duration": 0.359375,
          "durationTicks": 276,
          "midi": 67,
          "name": "G4",
          "ticks": 100224,
          "time": 130.5,
          "velocity": 0.7874015748031497
        },
        {
          "duration": 0.05729166666665719,
          "durationTicks": 44,
          "midi": 55,
          "name": "G3",
          "ticks": 100512,
          "time": 130.875,
          "velocity": 0.5826771653543307
        },
        {
          "duration": 0.07552083333334281,
          "durationTicks": 58,
          "midi": 64,
          "name": "E4",
          "ticks": 100608,
          "time": 131,
          "velocity": 0.7716535433070866
        },
        {
          "duration": 0.07552083333334281,
          "durationTicks": 58,
          "midi": 60,
          "name": "C4",
          "ticks": 100608,
          "time": 131,
          "velocity": 0.7716535433070866
        },
        {
          "duration": 0.09375,
          "durationTicks": 72,
          "midi": 67,
          "name": "G4",
          "ticks": 100608,
          "time": 131,
          "velocity": 0.7480314960629921
        },
        {
          "duration": 0.11458333333334281,
          "durationTicks": 88,
          "midi": 60,
          "name": "C4",
          "ticks": 100800,
          "time": 131.25,
          "velocity": 0.7874015748031497
        },
        {
          "duration": 0.12239583333334281,
          "durationTicks": 94,
          "midi": 64,
          "name": "E4",
          "ticks": 100800,
          "time": 131.25,
          "velocity": 0.84251968503937
        },
        {
          "duration": 0.125,
          "durationTicks": 96,
          "midi": 67,
          "name": "G4",
          "ticks": 100800,
          "time": 131.25,
          "velocity": 0.8031496062992126
        },
        {
          "duration": 0.11979166666665719,
          "durationTicks": 92,
          "midi": 64,
          "name": "E4",
          "ticks": 100992,
          "time": 131.5,
          "velocity": 0.84251968503937
        },
        {
          "duration": 0.09635416666665719,
          "durationTicks": 74,
          "midi": 60,
          "name": "C4",
          "ticks": 100992,
          "time": 131.5,
          "velocity": 0.8267716535433071
        },
        {
          "duration": 0.125,
          "durationTicks": 96,
          "midi": 67,
          "name": "G4",
          "ticks": 100992,
          "time": 131.5,
          "velocity": 0.8031496062992126
        },
        {
          "duration": 0.9010416666666572,
          "durationTicks": 692,
          "midi": 51,
          "name": "D#3",
          "ticks": 101376,
          "time": 132,
          "velocity": 0.5984251968503937
        },
        {
          "duration": 0.8932291666666572,
          "durationTicks": 686,
          "midi": 55,
          "name": "G3",
          "ticks": 101376,
          "time": 132,
          "velocity": 0.7480314960629921
        },
        {
          "duration": 0.3489583333333428,
          "durationTicks": 268,
          "midi": 58,
          "name": "A#3",
          "ticks": 101376,
          "time": 132,
          "velocity": 0.7165354330708661
        },
        {
          "duration": 0.3776041666666572,
          "durationTicks": 290,
          "midi": 63,
          "name": "D#4",
          "ticks": 101376,
          "time": 132,
          "velocity": 0.7165354330708661
        },
        {
          "duration": 0.3359375,
          "durationTicks": 258,
          "midi": 67,
          "name": "G4",
          "ticks": 101376,
          "time": 132,
          "velocity": 0.7480314960629921
        },
        {
          "duration": 0.4140625,
          "durationTicks": 318,
          "midi": 58,
          "name": "A#3",
          "ticks": 101760,
          "time": 132.5,
          "velocity": 0.7716535433070866
        },
        {
          "duration": 0.40625,
          "durationTicks": 312,
          "midi": 67,
          "name": "G4",
          "ticks": 101760,
          "time": 132.5,
          "velocity": 0.7716535433070866
        },
        {
          "duration": 0.4010416666666572,
          "durationTicks": 308,
          "midi": 63,
          "name": "D#4",
          "ticks": 101760,
          "time": 132.5,
          "velocity": 0.7716535433070866
        },
        {
          "duration": 0.3489583333333428,
          "durationTicks": 268,
          "midi": 58,
          "name": "A#3",
          "ticks": 102144,
          "time": 133,
          "velocity": 0.5354330708661418
        },
        {
          "duration": 0.3671875,
          "durationTicks": 282,
          "midi": 62,
          "name": "D4",
          "ticks": 102144,
          "time": 133,
          "velocity": 0.7874015748031497
        },
        {
          "duration": 0.3463541666666572,
          "durationTicks": 266,
          "midi": 67,
          "name": "G4",
          "ticks": 102144,
          "time": 133,
          "velocity": 0.6850393700787402
        },
        {
          "duration": 0.890625,
          "durationTicks": 684,
          "midi": 55,
          "name": "G3",
          "ticks": 102144,
          "time": 133,
          "velocity": 0.6456692913385826
        },
        {
          "duration": 0.8932291666666572,
          "durationTicks": 686,
          "midi": 51,
          "name": "D#3",
          "ticks": 102144,
          "time": 133,
          "velocity": 0.6456692913385826
        },
        {
          "duration": 0.390625,
          "durationTicks": 300,
          "midi": 67,
          "name": "G4",
          "ticks": 102528,
          "time": 133.5,
          "velocity": 0.7874015748031497
        },
        {
          "duration": 0.2265625,
          "durationTicks": 174,
          "midi": 58,
          "name": "A#3",
          "ticks": 102528,
          "time": 133.5,
          "velocity": 0.7480314960629921
        },
        {
          "duration": 0.4114583333333428,
          "durationTicks": 316,
          "midi": 62,
          "name": "D4",
          "ticks": 102528,
          "time": 133.5,
          "velocity": 0.84251968503937
        },
        {
          "duration": 0.3802083333333428,
          "durationTicks": 292,
          "midi": 60,
          "name": "C4",
          "ticks": 102912,
          "time": 134,
          "velocity": 0.8031496062992126
        },
        {
          "duration": 0.4036458333333428,
          "durationTicks": 310,
          "midi": 67,
          "name": "G4",
          "ticks": 102912,
          "time": 134,
          "velocity": 0.7874015748031497
        },
        {
          "duration": 0.3671875,
          "durationTicks": 282,
          "midi": 60,
          "name": "C4",
          "ticks": 103296,
          "time": 134.5,
          "velocity": 0.84251968503937
        },
        {
          "duration": 0.375,
          "durationTicks": 288,
          "midi": 67,
          "name": "G4",
          "ticks": 103296,
          "time": 134.5,
          "velocity": 0.8031496062992126
        },
        {
          "duration": 0.08072916666665719,
          "durationTicks": 62,
          "midi": 51,
          "name": "D#3",
          "ticks": 103584,
          "time": 134.875,
          "velocity": 0.5826771653543307
        },
        {
          "duration": 0.07552083333334281,
          "durationTicks": 58,
          "midi": 55,
          "name": "G3",
          "ticks": 103584,
          "time": 134.875,
          "velocity": 0.7007874015748031
        },
        {
          "duration": 0.3385416666666572,
          "durationTicks": 260,
          "midi": 62,
          "name": "D4",
          "ticks": 103680,
          "time": 135,
          "velocity": 0.8661417322834646
        },
        {
          "duration": 0.3333333333333428,
          "durationTicks": 256,
          "midi": 67,
          "name": "G4",
          "ticks": 103680,
          "time": 135,
          "velocity": 0.8267716535433071
        },
        {
          "duration": 0.1484375,
          "durationTicks": 114,
          "midi": 62,
          "name": "D4",
          "ticks": 104064,
          "time": 135.5,
          "velocity": 0.8661417322834646
        },
        {
          "duration": 0.1380208333333428,
          "durationTicks": 106,
          "midi": 67,
          "name": "G4",
          "ticks": 104064,
          "time": 135.5,
          "velocity": 0.8031496062992126
        },
        {
          "duration": 0.05729166666665719,
          "durationTicks": 44,
          "midi": 57,
          "name": "A3",
          "ticks": 104640,
          "time": 136.25,
          "velocity": 0.3779527559055118
        },
        {
          "duration": 0.05208333333334281,
          "durationTicks": 40,
          "midi": 50,
          "name": "D3",
          "ticks": 104640,
          "time": 136.25,
          "velocity": 0.3700787401574803
        },
        {
          "duration": 0.07291666666665719,
          "durationTicks": 56,
          "midi": 53,
          "name": "F3",
          "ticks": 104640,
          "time": 136.25,
          "velocity": 0.44881889763779526
        },
        {
          "duration": 0.08333333333334281,
          "durationTicks": 64,
          "midi": 57,
          "name": "A3",
          "ticks": 104832,
          "time": 136.5,
          "velocity": 0.6850393700787402
        },
        {
          "duration": 0.09114583333334281,
          "durationTicks": 70,
          "midi": 53,
          "name": "F3",
          "ticks": 104832,
          "time": 136.5,
          "velocity": 0.6850393700787402
        },
        {
          "duration": 0.09635416666665719,
          "durationTicks": 74,
          "midi": 50,
          "name": "D3",
          "ticks": 104832,
          "time": 136.5,
          "velocity": 0.7165354330708661
        },
        {
          "duration": 0.09114583333334281,
          "durationTicks": 70,
          "midi": 57,
          "name": "A3",
          "ticks": 105024,
          "time": 136.75,
          "velocity": 0.7165354330708661
        },
        {
          "duration": 0.09895833333334281,
          "durationTicks": 76,
          "midi": 50,
          "name": "D3",
          "ticks": 105024,
          "time": 136.75,
          "velocity": 0.7165354330708661
        },
        {
          "duration": 0.09375,
          "durationTicks": 72,
          "midi": 53,
          "name": "F3",
          "ticks": 105024,
          "time": 136.75,
          "velocity": 0.7007874015748031
        },
        {
          "duration": 0.0859375,
          "durationTicks": 66,
          "midi": 57,
          "name": "A3",
          "ticks": 105216,
          "time": 137,
          "velocity": 0.8031496062992126
        },
        {
          "duration": 0.09375,
          "durationTicks": 72,
          "midi": 53,
          "name": "F3",
          "ticks": 105216,
          "time": 137,
          "velocity": 0.8031496062992126
        },
        {
          "duration": 0.09635416666665719,
          "durationTicks": 74,
          "midi": 50,
          "name": "D3",
          "ticks": 105216,
          "time": 137,
          "velocity": 0.8031496062992126
        },
        {
          "duration": 0.08072916666665719,
          "durationTicks": 62,
          "midi": 53,
          "name": "F3",
          "ticks": 105408,
          "time": 137.25,
          "velocity": 0.7716535433070866
        },
        {
          "duration": 0.0859375,
          "durationTicks": 66,
          "midi": 50,
          "name": "D3",
          "ticks": 105408,
          "time": 137.25,
          "velocity": 0.8031496062992126
        },
        {
          "duration": 0.0859375,
          "durationTicks": 66,
          "midi": 57,
          "name": "A3",
          "ticks": 105408,
          "time": 137.25,
          "velocity": 0.84251968503937
        },
        {
          "duration": 0.078125,
          "durationTicks": 60,
          "midi": 53,
          "name": "F3",
          "ticks": 105600,
          "time": 137.5,
          "velocity": 0.7874015748031497
        },
        {
          "duration": 0.078125,
          "durationTicks": 60,
          "midi": 57,
          "name": "A3",
          "ticks": 105600,
          "time": 137.5,
          "velocity": 0.84251968503937
        },
        {
          "duration": 0.08854166666665719,
          "durationTicks": 68,
          "midi": 50,
          "name": "D3",
          "ticks": 105600,
          "time": 137.5,
          "velocity": 0.8031496062992126
        },
        {
          "duration": 0.08854166666665719,
          "durationTicks": 68,
          "midi": 53,
          "name": "F3",
          "ticks": 105792,
          "time": 137.75,
          "velocity": 0.8267716535433071
        },
        {
          "duration": 0.08854166666665719,
          "durationTicks": 68,
          "midi": 57,
          "name": "A3",
          "ticks": 105792,
          "time": 137.75,
          "velocity": 0.889763779527559
        },
        {
          "duration": 0.09635416666665719,
          "durationTicks": 74,
          "midi": 50,
          "name": "D3",
          "ticks": 105792,
          "time": 137.75,
          "velocity": 0.84251968503937
        },
        {
          "duration": 0.08333333333334281,
          "durationTicks": 64,
          "midi": 55,
          "name": "G3",
          "ticks": 105984,
          "time": 138,
          "velocity": 0.7165354330708661
        },
        {
          "duration": 0.10677083333334281,
          "durationTicks": 82,
          "midi": 59,
          "name": "B3",
          "ticks": 105984,
          "time": 138,
          "velocity": 0.7716535433070866
        },
        {
          "duration": 0.09635416666665719,
          "durationTicks": 74,
          "midi": 55,
          "name": "G3",
          "ticks": 106176,
          "time": 138.25,
          "velocity": 0.7007874015748031
        },
        {
          "duration": 0.125,
          "durationTicks": 96,
          "midi": 59,
          "name": "B3",
          "ticks": 106176,
          "time": 138.25,
          "velocity": 0.8031496062992126
        },
        {
          "duration": 0.0625,
          "durationTicks": 48,
          "midi": 43,
          "name": "G2",
          "ticks": 106368,
          "time": 138.5,
          "velocity": 0.5511811023622047
        },
        {
          "duration": 0.06770833333334281,
          "durationTicks": 52,
          "midi": 50,
          "name": "D3",
          "ticks": 106368,
          "time": 138.5,
          "velocity": 0.7007874015748031
        },
        {
          "duration": 0.09635416666665719,
          "durationTicks": 74,
          "midi": 59,
          "name": "B3",
          "ticks": 106368,
          "time": 138.5,
          "velocity": 0.7165354330708661
        },
        {
          "duration": 0.10677083333334281,
          "durationTicks": 82,
          "midi": 62,
          "name": "D4",
          "ticks": 106368,
          "time": 138.5,
          "velocity": 0.7874015748031497
        },
        {
          "duration": 0.1015625,
          "durationTicks": 78,
          "midi": 55,
          "name": "G3",
          "ticks": 106368,
          "time": 138.5,
          "velocity": 0.6850393700787402
        },
        {
          "duration": 0.078125,
          "durationTicks": 60,
          "midi": 50,
          "name": "D3",
          "ticks": 106560,
          "time": 138.75,
          "velocity": 0.7007874015748031
        },
        {
          "duration": 0.09375,
          "durationTicks": 72,
          "midi": 43,
          "name": "G2",
          "ticks": 106560,
          "time": 138.75,
          "velocity": 0.7007874015748031
        },
        {
          "duration": 0.09375,
          "durationTicks": 72,
          "midi": 55,
          "name": "G3",
          "ticks": 106560,
          "time": 138.75,
          "velocity": 0.7007874015748031
        },
        {
          "duration": 0.10416666666665719,
          "durationTicks": 80,
          "midi": 62,
          "name": "D4",
          "ticks": 106560,
          "time": 138.75,
          "velocity": 0.7874015748031497
        },
        {
          "duration": 0.11458333333334281,
          "durationTicks": 88,
          "midi": 59,
          "name": "B3",
          "ticks": 106560,
          "time": 138.75,
          "velocity": 0.8031496062992126
        },
        {
          "duration": 0.0703125,
          "durationTicks": 54,
          "midi": 50,
          "name": "D3",
          "ticks": 106752,
          "time": 139,
          "velocity": 0.7480314960629921
        },
        {
          "duration": 0.10416666666665719,
          "durationTicks": 80,
          "midi": 43,
          "name": "G2",
          "ticks": 106752,
          "time": 139,
          "velocity": 0.7480314960629921
        },
        {
          "duration": 0.11197916666665719,
          "durationTicks": 86,
          "midi": 62,
          "name": "D4",
          "ticks": 106752,
          "time": 139,
          "velocity": 0.8031496062992126
        },
        {
          "duration": 0.109375,
          "durationTicks": 84,
          "midi": 59,
          "name": "B3",
          "ticks": 106752,
          "time": 139,
          "velocity": 0.8031496062992126
        },
        {
          "duration": 0.10416666666665719,
          "durationTicks": 80,
          "midi": 55,
          "name": "G3",
          "ticks": 106752,
          "time": 139,
          "velocity": 0.7874015748031497
        },
        {
          "duration": 0.0703125,
          "durationTicks": 54,
          "midi": 50,
          "name": "D3",
          "ticks": 106944,
          "time": 139.25,
          "velocity": 0.84251968503937
        },
        {
          "duration": 0.1015625,
          "durationTicks": 78,
          "midi": 43,
          "name": "G2",
          "ticks": 106944,
          "time": 139.25,
          "velocity": 0.7874015748031497
        },
        {
          "duration": 0.08854166666665719,
          "durationTicks": 68,
          "midi": 55,
          "name": "G3",
          "ticks": 106944,
          "time": 139.25,
          "velocity": 0.8031496062992126
        },
        {
          "duration": 0.09895833333334281,
          "durationTicks": 76,
          "midi": 59,
          "name": "B3",
          "ticks": 106944,
          "time": 139.25,
          "velocity": 0.8267716535433071
        },
        {
          "duration": 0.10416666666665719,
          "durationTicks": 80,
          "midi": 62,
          "name": "D4",
          "ticks": 106944,
          "time": 139.25,
          "velocity": 0.8031496062992126
        },
        {
          "duration": 0.0859375,
          "durationTicks": 66,
          "midi": 50,
          "name": "D3",
          "ticks": 107136,
          "time": 139.5,
          "velocity": 0.8267716535433071
        },
        {
          "duration": 0.10416666666665719,
          "durationTicks": 80,
          "midi": 43,
          "name": "G2",
          "ticks": 107136,
          "time": 139.5,
          "velocity": 0.8031496062992126
        },
        {
          "duration": 0.09375,
          "durationTicks": 72,
          "midi": 55,
          "name": "G3",
          "ticks": 107136,
          "time": 139.5,
          "velocity": 0.8031496062992126
        },
        {
          "duration": 0.09635416666665719,
          "durationTicks": 74,
          "midi": 59,
          "name": "B3",
          "ticks": 107136,
          "time": 139.5,
          "velocity": 0.8661417322834646
        },
        {
          "duration": 0.11979166666665719,
          "durationTicks": 92,
          "midi": 62,
          "name": "D4",
          "ticks": 107136,
          "time": 139.5,
          "velocity": 0.8267716535433071
        },
        {
          "duration": 0.08333333333334281,
          "durationTicks": 64,
          "midi": 55,
          "name": "G3",
          "ticks": 107328,
          "time": 139.75,
          "velocity": 0.8267716535433071
        },
        {
          "duration": 0.12239583333334281,
          "durationTicks": 94,
          "midi": 62,
          "name": "D4",
          "ticks": 107328,
          "time": 139.75,
          "velocity": 0.8661417322834646
        },
        {
          "duration": 0.09635416666665719,
          "durationTicks": 74,
          "midi": 59,
          "name": "B3",
          "ticks": 107328,
          "time": 139.75,
          "velocity": 0.889763779527559
        },
        {
          "duration": 0.109375,
          "durationTicks": 84,
          "midi": 50,
          "name": "D3",
          "ticks": 107328,
          "time": 139.75,
          "velocity": 0.8661417322834646
        },
        {
          "duration": 0.11458333333334281,
          "durationTicks": 88,
          "midi": 43,
          "name": "G2",
          "ticks": 107328,
          "time": 139.75,
          "velocity": 0.8267716535433071
        },
        {
          "duration": 0.390625,
          "durationTicks": 300,
          "midi": 72,
          "name": "C5",
          "ticks": 107904,
          "time": 140.5,
          "velocity": 0.9291338582677166
        },
        {
          "duration": 0.3541666666666572,
          "durationTicks": 272,
          "midi": 60,
          "name": "C4",
          "ticks": 107904,
          "time": 140.5,
          "velocity": 0.9291338582677166
        },
        {
          "duration": 0.8098958333333428,
          "durationTicks": 622,
          "midi": 74,
          "name": "D5",
          "ticks": 108288,
          "time": 141,
          "velocity": 0.9291338582677166
        },
        {
          "duration": 0.8098958333333428,
          "durationTicks": 622,
          "midi": 62,
          "name": "D4",
          "ticks": 108288,
          "time": 141,
          "velocity": 0.9291338582677166
        },
        {
          "duration": 0.3854166666666572,
          "durationTicks": 296,
          "midi": 62,
          "name": "D4",
          "ticks": 109440,
          "time": 142.5,
          "velocity": 0.9291338582677166
        },
        {
          "duration": 0.3776041666666572,
          "durationTicks": 290,
          "midi": 74,
          "name": "D5",
          "ticks": 109440,
          "time": 142.5,
          "velocity": 0.9291338582677166
        },
        {
          "duration": 0.8125,
          "durationTicks": 624,
          "midi": 60,
          "name": "C4",
          "ticks": 109824,
          "time": 143,
          "velocity": 0.9291338582677166
        },
        {
          "duration": 0.8385416666666572,
          "durationTicks": 644,
          "midi": 72,
          "name": "C5",
          "ticks": 109824,
          "time": 143,
          "velocity": 0.9291338582677166
        },
        {
          "duration": 0.1015625,
          "durationTicks": 78,
          "midi": 72,
          "name": "C5",
          "ticks": 110976,
          "time": 144.5,
          "velocity": 0.9291338582677166
        },
        {
          "duration": 0.08854166666665719,
          "durationTicks": 68,
          "midi": 60,
          "name": "C4",
          "ticks": 110976,
          "time": 144.5,
          "velocity": 0.9291338582677166
        },
        {
          "duration": 0.06770833333334281,
          "durationTicks": 52,
          "midi": 60,
          "name": "C4",
          "ticks": 111168,
          "time": 144.75,
          "velocity": 0.9291338582677166
        },
        {
          "duration": 0.09375,
          "durationTicks": 72,
          "midi": 72,
          "name": "C5",
          "ticks": 111168,
          "time": 144.75,
          "velocity": 0.9291338582677166
        },
        {
          "duration": 0.3020833333333428,
          "durationTicks": 232,
          "midi": 74,
          "name": "D5",
          "ticks": 111360,
          "time": 145,
          "velocity": 0.9291338582677166
        },
        {
          "duration": 0.3177083333333428,
          "durationTicks": 244,
          "midi": 62,
          "name": "D4",
          "ticks": 111360,
          "time": 145,
          "velocity": 0.9291338582677166
        },
        {
          "duration": 0.4609375,
          "durationTicks": 354,
          "midi": 60,
          "name": "C4",
          "ticks": 111744,
          "time": 145.5,
          "velocity": 0.9291338582677166
        },
        {
          "duration": 0.5104166666666572,
          "durationTicks": 392,
          "midi": 72,
          "name": "C5",
          "ticks": 111744,
          "time": 145.5,
          "velocity": 0.9291338582677166
        },
        {
          "duration": 0.3072916666666572,
          "durationTicks": 236,
          "midi": 62,
          "name": "D4",
          "ticks": 112512,
          "time": 146.5,
          "velocity": 0.9291338582677166
        },
        {
          "duration": 0.3046875,
          "durationTicks": 234,
          "midi": 74,
          "name": "D5",
          "ticks": 112512,
          "time": 146.5,
          "velocity": 0.9291338582677166
        },
        {
          "duration": 0.5208333333333428,
          "durationTicks": 400,
          "midi": 60,
          "name": "C4",
          "ticks": 112896,
          "time": 147,
          "velocity": 0.9291338582677166
        },
        {
          "duration": 0.5651041666666572,
          "durationTicks": 434,
          "midi": 72,
          "name": "C5",
          "ticks": 112896,
          "time": 147,
          "velocity": 0.9291338582677166
        },
        {
          "duration": 0.390625,
          "durationTicks": 300,
          "midi": 72,
          "name": "C5",
          "ticks": 114048,
          "time": 148.5,
          "velocity": 0.9291338582677166
        },
        {
          "duration": 0.3541666666666572,
          "durationTicks": 272,
          "midi": 60,
          "name": "C4",
          "ticks": 114048,
          "time": 148.5,
          "velocity": 0.9291338582677166
        },
        {
          "duration": 0.8098958333333428,
          "durationTicks": 622,
          "midi": 74,
          "name": "D5",
          "ticks": 114432,
          "time": 149,
          "velocity": 0.9291338582677166
        },
        {
          "duration": 0.8098958333333428,
          "durationTicks": 622,
          "midi": 62,
          "name": "D4",
          "ticks": 114432,
          "time": 149,
          "velocity": 0.9291338582677166
        },
        {
          "duration": 0.3854166666666572,
          "durationTicks": 296,
          "midi": 62,
          "name": "D4",
          "ticks": 115584,
          "time": 150.5,
          "velocity": 0.9291338582677166
        },
        {
          "duration": 0.3776041666666572,
          "durationTicks": 290,
          "midi": 74,
          "name": "D5",
          "ticks": 115584,
          "time": 150.5,
          "velocity": 0.9291338582677166
        },
        {
          "duration": 0.8125,
          "durationTicks": 624,
          "midi": 60,
          "name": "C4",
          "ticks": 115968,
          "time": 151,
          "velocity": 0.9291338582677166
        },
        {
          "duration": 0.8385416666666572,
          "durationTicks": 644,
          "midi": 72,
          "name": "C5",
          "ticks": 115968,
          "time": 151,
          "velocity": 0.9291338582677166
        },
        {
          "duration": 0.1015625,
          "durationTicks": 78,
          "midi": 72,
          "name": "C5",
          "ticks": 117120,
          "time": 152.5,
          "velocity": 0.9291338582677166
        },
        {
          "duration": 0.08854166666665719,
          "durationTicks": 68,
          "midi": 60,
          "name": "C4",
          "ticks": 117120,
          "time": 152.5,
          "velocity": 0.9291338582677166
        },
        {
          "duration": 0.06770833333334281,
          "durationTicks": 52,
          "midi": 60,
          "name": "C4",
          "ticks": 117312,
          "time": 152.75,
          "velocity": 0.9291338582677166
        },
        {
          "duration": 0.09375,
          "durationTicks": 72,
          "midi": 72,
          "name": "C5",
          "ticks": 117312,
          "time": 152.75,
          "velocity": 0.9291338582677166
        },
        {
          "duration": 0.3020833333333428,
          "durationTicks": 232,
          "midi": 74,
          "name": "D5",
          "ticks": 117504,
          "time": 153,
          "velocity": 0.9291338582677166
        },
        {
          "duration": 0.3177083333333428,
          "durationTicks": 244,
          "midi": 62,
          "name": "D4",
          "ticks": 117504,
          "time": 153,
          "velocity": 0.9291338582677166
        },
        {
          "duration": 0.4609375,
          "durationTicks": 354,
          "midi": 60,
          "name": "C4",
          "ticks": 117888,
          "time": 153.5,
          "velocity": 0.9291338582677166
        },
        {
          "duration": 0.5104166666666572,
          "durationTicks": 392,
          "midi": 72,
          "name": "C5",
          "ticks": 117888,
          "time": 153.5,
          "velocity": 0.9291338582677166
        },
        {
          "duration": 0.3072916666666572,
          "durationTicks": 236,
          "midi": 62,
          "name": "D4",
          "ticks": 118656,
          "time": 154.5,
          "velocity": 0.9291338582677166
        },
        {
          "duration": 0.3046875,
          "durationTicks": 234,
          "midi": 74,
          "name": "D5",
          "ticks": 118656,
          "time": 154.5,
          "velocity": 0.9291338582677166
        },
        {
          "duration": 0.5208333333333428,
          "durationTicks": 400,
          "midi": 60,
          "name": "C4",
          "ticks": 119040,
          "time": 155,
          "velocity": 0.9291338582677166
        },
        {
          "duration": 0.5651041666666572,
          "durationTicks": 434,
          "midi": 72,
          "name": "C5",
          "ticks": 119040,
          "time": 155,
          "velocity": 0.9291338582677166
        },
        {
          "duration": 0.390625,
          "durationTicks": 300,
          "midi": 72,
          "name": "C5",
          "ticks": 120192,
          "time": 156.5,
          "velocity": 0.9291338582677166
        },
        {
          "duration": 0.3541666666666572,
          "durationTicks": 272,
          "midi": 60,
          "name": "C4",
          "ticks": 120192,
          "time": 156.5,
          "velocity": 0.9291338582677166
        },
        {
          "duration": 0.8098958333333428,
          "durationTicks": 622,
          "midi": 74,
          "name": "D5",
          "ticks": 120576,
          "time": 157,
          "velocity": 0.9291338582677166
        },
        {
          "duration": 0.8098958333333428,
          "durationTicks": 622,
          "midi": 62,
          "name": "D4",
          "ticks": 120576,
          "time": 157,
          "velocity": 0.9291338582677166
        },
        {
          "duration": 0.3854166666666572,
          "durationTicks": 296,
          "midi": 62,
          "name": "D4",
          "ticks": 121728,
          "time": 158.5,
          "velocity": 0.9291338582677166
        },
        {
          "duration": 0.3776041666666572,
          "durationTicks": 290,
          "midi": 74,
          "name": "D5",
          "ticks": 121728,
          "time": 158.5,
          "velocity": 0.9291338582677166
        },
        {
          "duration": 0.8125,
          "durationTicks": 624,
          "midi": 60,
          "name": "C4",
          "ticks": 122112,
          "time": 159,
          "velocity": 0.9291338582677166
        },
        {
          "duration": 0.8385416666666572,
          "durationTicks": 644,
          "midi": 72,
          "name": "C5",
          "ticks": 122112,
          "time": 159,
          "velocity": 0.9291338582677166
        },
        {
          "duration": 0.1015625,
          "durationTicks": 78,
          "midi": 72,
          "name": "C5",
          "ticks": 123264,
          "time": 160.5,
          "velocity": 0.9291338582677166
        },
        {
          "duration": 0.08854166666665719,
          "durationTicks": 68,
          "midi": 60,
          "name": "C4",
          "ticks": 123264,
          "time": 160.5,
          "velocity": 0.9291338582677166
        },
        {
          "duration": 0.06770833333334281,
          "durationTicks": 52,
          "midi": 60,
          "name": "C4",
          "ticks": 123456,
          "time": 160.75,
          "velocity": 0.9291338582677166
        },
        {
          "duration": 0.09375,
          "durationTicks": 72,
          "midi": 72,
          "name": "C5",
          "ticks": 123456,
          "time": 160.75,
          "velocity": 0.9291338582677166
        },
        {
          "duration": 0.3020833333333428,
          "durationTicks": 232,
          "midi": 74,
          "name": "D5",
          "ticks": 123648,
          "time": 161,
          "velocity": 0.9291338582677166
        },
        {
          "duration": 0.3177083333333428,
          "durationTicks": 244,
          "midi": 62,
          "name": "D4",
          "ticks": 123648,
          "time": 161,
          "velocity": 0.9291338582677166
        },
        {
          "duration": 0.4609375,
          "durationTicks": 354,
          "midi": 60,
          "name": "C4",
          "ticks": 124032,
          "time": 161.5,
          "velocity": 0.9291338582677166
        },
        {
          "duration": 0.5104166666666572,
          "durationTicks": 392,
          "midi": 72,
          "name": "C5",
          "ticks": 124032,
          "time": 161.5,
          "velocity": 0.9291338582677166
        },
        {
          "duration": 0.3072916666666572,
          "durationTicks": 236,
          "midi": 62,
          "name": "D4",
          "ticks": 124800,
          "time": 162.5,
          "velocity": 0.9291338582677166
        },
        {
          "duration": 0.3046875,
          "durationTicks": 234,
          "midi": 74,
          "name": "D5",
          "ticks": 124800,
          "time": 162.5,
          "velocity": 0.9291338582677166
        },
        {
          "duration": 0.5208333333333428,
          "durationTicks": 400,
          "midi": 60,
          "name": "C4",
          "ticks": 125184,
          "time": 163,
          "velocity": 0.9291338582677166
        },
        {
          "duration": 0.5651041666666572,
          "durationTicks": 434,
          "midi": 72,
          "name": "C5",
          "ticks": 125184,
          "time": 163,
          "velocity": 0.9291338582677166
        },
        {
          "duration": 0.390625,
          "durationTicks": 300,
          "midi": 72,
          "name": "C5",
          "ticks": 126336,
          "time": 164.5,
          "velocity": 0.9291338582677166
        },
        {
          "duration": 0.3541666666666572,
          "durationTicks": 272,
          "midi": 60,
          "name": "C4",
          "ticks": 126336,
          "time": 164.5,
          "velocity": 0.9291338582677166
        },
        {
          "duration": 0.8098958333333428,
          "durationTicks": 622,
          "midi": 74,
          "name": "D5",
          "ticks": 126720,
          "time": 165,
          "velocity": 0.9291338582677166
        },
        {
          "duration": 0.8098958333333428,
          "durationTicks": 622,
          "midi": 62,
          "name": "D4",
          "ticks": 126720,
          "time": 165,
          "velocity": 0.9291338582677166
        },
        {
          "duration": 0.3854166666666572,
          "durationTicks": 296,
          "midi": 62,
          "name": "D4",
          "ticks": 127872,
          "time": 166.5,
          "velocity": 0.9291338582677166
        },
        {
          "duration": 0.3776041666666572,
          "durationTicks": 290,
          "midi": 74,
          "name": "D5",
          "ticks": 127872,
          "time": 166.5,
          "velocity": 0.9291338582677166
        },
        {
          "duration": 0.8125,
          "durationTicks": 624,
          "midi": 60,
          "name": "C4",
          "ticks": 128256,
          "time": 167,
          "velocity": 0.9291338582677166
        },
        {
          "duration": 0.8385416666666572,
          "durationTicks": 644,
          "midi": 72,
          "name": "C5",
          "ticks": 128256,
          "time": 167,
          "velocity": 0.9291338582677166
        },
        {
          "duration": 0.1015625,
          "durationTicks": 78,
          "midi": 72,
          "name": "C5",
          "ticks": 129408,
          "time": 168.5,
          "velocity": 0.9291338582677166
        },
        {
          "duration": 0.08854166666665719,
          "durationTicks": 68,
          "midi": 60,
          "name": "C4",
          "ticks": 129408,
          "time": 168.5,
          "velocity": 0.9291338582677166
        },
        {
          "duration": 0.06770833333334281,
          "durationTicks": 52,
          "midi": 60,
          "name": "C4",
          "ticks": 129600,
          "time": 168.75,
          "velocity": 0.9291338582677166
        },
        {
          "duration": 0.09375,
          "durationTicks": 72,
          "midi": 72,
          "name": "C5",
          "ticks": 129600,
          "time": 168.75,
          "velocity": 0.9291338582677166
        },
        {
          "duration": 0.3020833333333428,
          "durationTicks": 232,
          "midi": 74,
          "name": "D5",
          "ticks": 129792,
          "time": 169,
          "velocity": 0.9291338582677166
        },
        {
          "duration": 0.3177083333333428,
          "durationTicks": 244,
          "midi": 62,
          "name": "D4",
          "ticks": 129792,
          "time": 169,
          "velocity": 0.9291338582677166
        },
        {
          "duration": 0.4609375,
          "durationTicks": 354,
          "midi": 60,
          "name": "C4",
          "ticks": 130176,
          "time": 169.5,
          "velocity": 0.9291338582677166
        },
        {
          "duration": 0.5104166666666572,
          "durationTicks": 392,
          "midi": 72,
          "name": "C5",
          "ticks": 130176,
          "time": 169.5,
          "velocity": 0.9291338582677166
        },
        {
          "duration": 0.3072916666666572,
          "durationTicks": 236,
          "midi": 62,
          "name": "D4",
          "ticks": 130944,
          "time": 170.5,
          "velocity": 0.9291338582677166
        },
        {
          "duration": 0.3046875,
          "durationTicks": 234,
          "midi": 74,
          "name": "D5",
          "ticks": 130944,
          "time": 170.5,
          "velocity": 0.9291338582677166
        },
        {
          "duration": 0.5208333333333428,
          "durationTicks": 400,
          "midi": 60,
          "name": "C4",
          "ticks": 131328,
          "time": 171,
          "velocity": 0.9291338582677166
        },
        {
          "duration": 0.5651041666666572,
          "durationTicks": 434,
          "midi": 72,
          "name": "C5",
          "ticks": 131328,
          "time": 171,
          "velocity": 0.9291338582677166
        },
        {
          "duration": 3.643229166666657,
          "durationTicks": 2798,
          "midi": 48,
          "name": "C3",
          "ticks": 132096,
          "time": 172,
          "velocity": 0.7874015748031497
        },
        {
          "duration": 3.635416666666657,
          "durationTicks": 2792,
          "midi": 52,
          "name": "E3",
          "ticks": 132096,
          "time": 172,
          "velocity": 0.7716535433070866
        },
        {
          "duration": 3.640625,
          "durationTicks": 2796,
          "midi": 55,
          "name": "G3",
          "ticks": 132096,
          "time": 172,
          "velocity": 0.8267716535433071
        },
        {
          "duration": 3.604166666666657,
          "durationTicks": 2768,
          "midi": 60,
          "name": "C4",
          "ticks": 132096,
          "time": 172,
          "velocity": 0.84251968503937
        },
        {
          "duration": 3.666666666666657,
          "durationTicks": 2816,
          "midi": 64,
          "name": "E4",
          "ticks": 132096,
          "time": 172,
          "velocity": 0.84251968503937
        }
      ]
    },
    {
      "channel": 5,
      "controlChanges": {
        "7": [
          {
            "number": 7,
            "ticks": 1536,
            "time": 2,
            "value": 0.6299212598425197
          }
        ]
      },
      "pitchBends": [],
      "instrument": {
        "family": "ensemble",
        "number": 50,
        "name": "synthstrings 1"
      },
      "name": "SYN STR 1",
      "notes": [
        {
          "duration": 1.419270833333334,
          "durationTicks": 1090,
          "midi": 72,
          "name": "C5",
          "ticks": 9216,
          "time": 12,
          "velocity": 0.8976377952755905
        },
        {
          "duration": 1.419270833333334,
          "durationTicks": 1090,
          "midi": 84,
          "name": "C6",
          "ticks": 9216,
          "time": 12,
          "velocity": 0.8976377952755905
        },
        {
          "duration": 0.4010416666666661,
          "durationTicks": 308,
          "midi": 72,
          "name": "C5",
          "ticks": 10368,
          "time": 13.5,
          "velocity": 0.8976377952755905
        },
        {
          "duration": 0.4010416666666661,
          "durationTicks": 308,
          "midi": 84,
          "name": "C6",
          "ticks": 10368,
          "time": 13.5,
          "velocity": 0.8976377952755905
        },
        {
          "duration": 1.333333333333334,
          "durationTicks": 1024,
          "midi": 76,
          "name": "E5",
          "ticks": 10752,
          "time": 14,
          "velocity": 0.8976377952755905
        },
        {
          "duration": 1.333333333333334,
          "durationTicks": 1024,
          "midi": 88,
          "name": "E6",
          "ticks": 10752,
          "time": 14,
          "velocity": 0.8976377952755905
        },
        {
          "duration": 0.24739583333333393,
          "durationTicks": 190,
          "midi": 76,
          "name": "E5",
          "ticks": 11904,
          "time": 15.5,
          "velocity": 0.8976377952755905
        },
        {
          "duration": 0.24739583333333393,
          "durationTicks": 190,
          "midi": 88,
          "name": "E6",
          "ticks": 11904,
          "time": 15.5,
          "velocity": 0.8976377952755905
        },
        {
          "duration": 0.16666666666666607,
          "durationTicks": 128,
          "midi": 74,
          "name": "D5",
          "ticks": 12000,
          "time": 15.625,
          "velocity": 0.8976377952755905
        },
        {
          "duration": 0.16666666666666607,
          "durationTicks": 128,
          "midi": 86,
          "name": "D6",
          "ticks": 12000,
          "time": 15.625,
          "velocity": 0.8976377952755905
        },
        {
          "duration": 0.08333333333333393,
          "durationTicks": 64,
          "midi": 72,
          "name": "C5",
          "ticks": 12096,
          "time": 15.75,
          "velocity": 0.8976377952755905
        },
        {
          "duration": 0.08333333333333393,
          "durationTicks": 64,
          "midi": 84,
          "name": "C6",
          "ticks": 12096,
          "time": 15.75,
          "velocity": 0.8976377952755905
        },
        {
          "duration": 0.08333333333333393,
          "durationTicks": 64,
          "midi": 69,
          "name": "A4",
          "ticks": 12192,
          "time": 15.875,
          "velocity": 0.8976377952755905
        },
        {
          "duration": 0.08333333333333393,
          "durationTicks": 64,
          "midi": 81,
          "name": "A5",
          "ticks": 12192,
          "time": 15.875,
          "velocity": 0.8976377952755905
        },
        {
          "duration": 1.375,
          "durationTicks": 1056,
          "midi": 72,
          "name": "C5",
          "ticks": 12288,
          "time": 16,
          "velocity": 0.8976377952755905
        },
        {
          "duration": 1.375,
          "durationTicks": 1056,
          "midi": 84,
          "name": "C6",
          "ticks": 12288,
          "time": 16,
          "velocity": 0.8976377952755905
        },
        {
          "duration": 0.9296875,
          "durationTicks": 714,
          "midi": 76,
          "name": "E5",
          "ticks": 13824,
          "time": 18,
          "velocity": 0.8976377952755905
        },
        {
          "duration": 0.9296875,
          "durationTicks": 714,
          "midi": 88,
          "name": "E6",
          "ticks": 13824,
          "time": 18,
          "velocity": 0.8976377952755905
        },
        {
          "duration": 0.45833333333333215,
          "durationTicks": 352,
          "midi": 74,
          "name": "D5",
          "ticks": 14592,
          "time": 19,
          "velocity": 0.8976377952755905
        },
        {
          "duration": 0.45833333333333215,
          "durationTicks": 352,
          "midi": 86,
          "name": "D6",
          "ticks": 14592,
          "time": 19,
          "velocity": 0.8976377952755905
        },
        {
          "duration": 0.44270833333333215,
          "durationTicks": 340,
          "midi": 72,
          "name": "C5",
          "ticks": 14976,
          "time": 19.5,
          "velocity": 0.8976377952755905
        },
        {
          "duration": 0.44270833333333215,
          "durationTicks": 340,
          "midi": 84,
          "name": "C6",
          "ticks": 14976,
          "time": 19.5,
          "velocity": 0.8976377952755905
        },
        {
          "duration": 1.4192708333333321,
          "durationTicks": 1090,
          "midi": 72,
          "name": "C5",
          "ticks": 15360,
          "time": 20,
          "velocity": 0.8976377952755905
        },
        {
          "duration": 1.4192708333333321,
          "durationTicks": 1090,
          "midi": 84,
          "name": "C6",
          "ticks": 15360,
          "time": 20,
          "velocity": 0.8976377952755905
        },
        {
          "duration": 0.40104166666666785,
          "durationTicks": 308,
          "midi": 72,
          "name": "C5",
          "ticks": 16512,
          "time": 21.5,
          "velocity": 0.8976377952755905
        },
        {
          "duration": 0.40104166666666785,
          "durationTicks": 308,
          "midi": 84,
          "name": "C6",
          "ticks": 16512,
          "time": 21.5,
          "velocity": 0.8976377952755905
        },
        {
          "duration": 1.3333333333333321,
          "durationTicks": 1024,
          "midi": 76,
          "name": "E5",
          "ticks": 16896,
          "time": 22,
          "velocity": 0.8976377952755905
        },
        {
          "duration": 1.3333333333333321,
          "durationTicks": 1024,
          "midi": 88,
          "name": "E6",
          "ticks": 16896,
          "time": 22,
          "velocity": 0.8976377952755905
        },
        {
          "duration": 0.24739583333333215,
          "durationTicks": 190,
          "midi": 76,
          "name": "E5",
          "ticks": 18048,
          "time": 23.5,
          "velocity": 0.8976377952755905
        },
        {
          "duration": 0.24739583333333215,
          "durationTicks": 190,
          "midi": 88,
          "name": "E6",
          "ticks": 18048,
          "time": 23.5,
          "velocity": 0.8976377952755905
        },
        {
          "duration": 0.16666666666666785,
          "durationTicks": 128,
          "midi": 74,
          "name": "D5",
          "ticks": 18144,
          "time": 23.625,
          "velocity": 0.8976377952755905
        },
        {
          "duration": 0.16666666666666785,
          "durationTicks": 128,
          "midi": 86,
          "name": "D6",
          "ticks": 18144,
          "time": 23.625,
          "velocity": 0.8976377952755905
        },
        {
          "duration": 0.08333333333333215,
          "durationTicks": 64,
          "midi": 72,
          "name": "C5",
          "ticks": 18240,
          "time": 23.75,
          "velocity": 0.8976377952755905
        },
        {
          "duration": 0.08333333333333215,
          "durationTicks": 64,
          "midi": 84,
          "name": "C6",
          "ticks": 18240,
          "time": 23.75,
          "velocity": 0.8976377952755905
        },
        {
          "duration": 0.08333333333333215,
          "durationTicks": 64,
          "midi": 69,
          "name": "A4",
          "ticks": 18336,
          "time": 23.875,
          "velocity": 0.8976377952755905
        },
        {
          "duration": 0.08333333333333215,
          "durationTicks": 64,
          "midi": 81,
          "name": "A5",
          "ticks": 18336,
          "time": 23.875,
          "velocity": 0.8976377952755905
        },
        {
          "duration": 1.375,
          "durationTicks": 1056,
          "midi": 72,
          "name": "C5",
          "ticks": 18432,
          "time": 24,
          "velocity": 0.8976377952755905
        },
        {
          "duration": 1.375,
          "durationTicks": 1056,
          "midi": 84,
          "name": "C6",
          "ticks": 18432,
          "time": 24,
          "velocity": 0.8976377952755905
        },
        {
          "duration": 0.9296875,
          "durationTicks": 714,
          "midi": 76,
          "name": "E5",
          "ticks": 19968,
          "time": 26,
          "velocity": 0.8976377952755905
        },
        {
          "duration": 0.9296875,
          "durationTicks": 714,
          "midi": 88,
          "name": "E6",
          "ticks": 19968,
          "time": 26,
          "velocity": 0.8976377952755905
        },
        {
          "duration": 0.45833333333333215,
          "durationTicks": 352,
          "midi": 74,
          "name": "D5",
          "ticks": 20736,
          "time": 27,
          "velocity": 0.8976377952755905
        },
        {
          "duration": 0.45833333333333215,
          "durationTicks": 352,
          "midi": 86,
          "name": "D6",
          "ticks": 20736,
          "time": 27,
          "velocity": 0.8976377952755905
        },
        {
          "duration": 0.44270833333333215,
          "durationTicks": 340,
          "midi": 72,
          "name": "C5",
          "ticks": 21120,
          "time": 27.5,
          "velocity": 0.8976377952755905
        },
        {
          "duration": 0.44270833333333215,
          "durationTicks": 340,
          "midi": 84,
          "name": "C6",
          "ticks": 21120,
          "time": 27.5,
          "velocity": 0.8976377952755905
        },
        {
          "duration": 2.9791666666666643,
          "durationTicks": 2288,
          "midi": 67,
          "name": "G4",
          "ticks": 33792,
          "time": 44,
          "velocity": 0.8976377952755905
        },
        {
          "duration": 2.9791666666666643,
          "durationTicks": 2288,
          "midi": 79,
          "name": "G5",
          "ticks": 33792,
          "time": 44,
          "velocity": 0.8976377952755905
        },
        {
          "duration": 1.0026041666666643,
          "durationTicks": 770,
          "midi": 71,
          "name": "B4",
          "ticks": 36096,
          "time": 47,
          "velocity": 0.8976377952755905
        },
        {
          "duration": 1.0026041666666643,
          "durationTicks": 770,
          "midi": 83,
          "name": "B5",
          "ticks": 36096,
          "time": 47,
          "velocity": 0.8976377952755905
        },
        {
          "duration": 1.4973958333333357,
          "durationTicks": 1150,
          "midi": 69,
          "name": "A4",
          "ticks": 36864,
          "time": 48,
          "velocity": 0.8976377952755905
        },
        {
          "duration": 1.4973958333333357,
          "durationTicks": 1150,
          "midi": 81,
          "name": "A5",
          "ticks": 36864,
          "time": 48,
          "velocity": 0.8976377952755905
        },
        {
          "duration": 0.4609375,
          "durationTicks": 354,
          "midi": 67,
          "name": "G4",
          "ticks": 38016,
          "time": 49.5,
          "velocity": 0.8976377952755905
        },
        {
          "duration": 0.4609375,
          "durationTicks": 354,
          "midi": 79,
          "name": "G5",
          "ticks": 38016,
          "time": 49.5,
          "velocity": 0.8976377952755905
        },
        {
          "duration": 1.8489583333333357,
          "durationTicks": 1420,
          "midi": 69,
          "name": "A4",
          "ticks": 38400,
          "time": 50,
          "velocity": 0.8976377952755905
        },
        {
          "duration": 1.8489583333333357,
          "durationTicks": 1420,
          "midi": 81,
          "name": "A5",
          "ticks": 38400,
          "time": 50,
          "velocity": 0.8976377952755905
        },
        {
          "duration": 3.8072916666666643,
          "durationTicks": 2924,
          "midi": 72,
          "name": "C5",
          "ticks": 39936,
          "time": 52,
          "velocity": 0.8267716535433071
        },
        {
          "duration": 3.7994791666666643,
          "durationTicks": 2918,
          "midi": 65,
          "name": "F4",
          "ticks": 39936,
          "time": 52,
          "velocity": 0.7874015748031497
        },
        {
          "duration": 3.8229166666666643,
          "durationTicks": 2936,
          "midi": 69,
          "name": "A4",
          "ticks": 39936,
          "time": 52,
          "velocity": 0.8031496062992126
        },
        {
          "duration": 3.8333333333333357,
          "durationTicks": 2944,
          "midi": 74,
          "name": "D5",
          "ticks": 43008,
          "time": 56,
          "velocity": 0.8267716535433071
        },
        {
          "duration": 3.8541666666666643,
          "durationTicks": 2960,
          "midi": 67,
          "name": "G4",
          "ticks": 43008,
          "time": 56,
          "velocity": 0.7874015748031497
        },
        {
          "duration": 3.8411458333333357,
          "durationTicks": 2950,
          "midi": 79,
          "name": "G5",
          "ticks": 43008,
          "time": 56,
          "velocity": 0.937007874015748
        },
        {
          "duration": 3.8489583333333357,
          "durationTicks": 2956,
          "midi": 71,
          "name": "B4",
          "ticks": 43008,
          "time": 56,
          "velocity": 0.7716535433070866
        },
        {
          "duration": 1.8854166666666643,
          "durationTicks": 1448,
          "midi": 86,
          "name": "D6",
          "ticks": 44544,
          "time": 58,
          "velocity": 0.7716535433070866
        },
        {
          "duration": 0.890625,
          "durationTicks": 684,
          "midi": 91,
          "name": "G6",
          "ticks": 45312,
          "time": 59,
          "velocity": 0.6850393700787402
        },
        {
          "duration": 1.4192708333333357,
          "durationTicks": 1090,
          "midi": 72,
          "name": "C5",
          "ticks": 46080,
          "time": 60,
          "velocity": 0.8976377952755905
        },
        {
          "duration": 1.4192708333333357,
          "durationTicks": 1090,
          "midi": 84,
          "name": "C6",
          "ticks": 46080,
          "time": 60,
          "velocity": 0.8976377952755905
        },
        {
          "duration": 0.4010416666666643,
          "durationTicks": 308,
          "midi": 72,
          "name": "C5",
          "ticks": 47232,
          "time": 61.5,
          "velocity": 0.8976377952755905
        },
        {
          "duration": 0.4010416666666643,
          "durationTicks": 308,
          "midi": 84,
          "name": "C6",
          "ticks": 47232,
          "time": 61.5,
          "velocity": 0.8976377952755905
        },
        {
          "duration": 1.3333333333333357,
          "durationTicks": 1024,
          "midi": 76,
          "name": "E5",
          "ticks": 47616,
          "time": 62,
          "velocity": 0.8976377952755905
        },
        {
          "duration": 1.3333333333333357,
          "durationTicks": 1024,
          "midi": 88,
          "name": "E6",
          "ticks": 47616,
          "time": 62,
          "velocity": 0.8976377952755905
        },
        {
          "duration": 0.2473958333333357,
          "durationTicks": 190,
          "midi": 76,
          "name": "E5",
          "ticks": 48768,
          "time": 63.5,
          "velocity": 0.8976377952755905
        },
        {
          "duration": 0.2473958333333357,
          "durationTicks": 190,
          "midi": 88,
          "name": "E6",
          "ticks": 48768,
          "time": 63.5,
          "velocity": 0.8976377952755905
        },
        {
          "duration": 0.1666666666666643,
          "durationTicks": 128,
          "midi": 74,
          "name": "D5",
          "ticks": 48864,
          "time": 63.625,
          "velocity": 0.8976377952755905
        },
        {
          "duration": 0.1666666666666643,
          "durationTicks": 128,
          "midi": 86,
          "name": "D6",
          "ticks": 48864,
          "time": 63.625,
          "velocity": 0.8976377952755905
        },
        {
          "duration": 0.0833333333333357,
          "durationTicks": 64,
          "midi": 72,
          "name": "C5",
          "ticks": 48960,
          "time": 63.75,
          "velocity": 0.8976377952755905
        },
        {
          "duration": 0.0833333333333357,
          "durationTicks": 64,
          "midi": 84,
          "name": "C6",
          "ticks": 48960,
          "time": 63.75,
          "velocity": 0.8976377952755905
        },
        {
          "duration": 0.0833333333333357,
          "durationTicks": 64,
          "midi": 69,
          "name": "A4",
          "ticks": 49056,
          "time": 63.875,
          "velocity": 0.8976377952755905
        },
        {
          "duration": 0.0833333333333357,
          "durationTicks": 64,
          "midi": 81,
          "name": "A5",
          "ticks": 49056,
          "time": 63.875,
          "velocity": 0.8976377952755905
        },
        {
          "duration": 1.375,
          "durationTicks": 1056,
          "midi": 72,
          "name": "C5",
          "ticks": 49152,
          "time": 64,
          "velocity": 0.8976377952755905
        },
        {
          "duration": 1.375,
          "durationTicks": 1056,
          "midi": 84,
          "name": "C6",
          "ticks": 49152,
          "time": 64,
          "velocity": 0.8976377952755905
        },
        {
          "duration": 0.9296875,
          "durationTicks": 714,
          "midi": 76,
          "name": "E5",
          "ticks": 50688,
          "time": 66,
          "velocity": 0.8976377952755905
        },
        {
          "duration": 0.9296875,
          "durationTicks": 714,
          "midi": 88,
          "name": "E6",
          "ticks": 50688,
          "time": 66,
          "velocity": 0.8976377952755905
        },
        {
          "duration": 0.4583333333333286,
          "durationTicks": 352,
          "midi": 74,
          "name": "D5",
          "ticks": 51456,
          "time": 67,
          "velocity": 0.8976377952755905
        },
        {
          "duration": 0.4583333333333286,
          "durationTicks": 352,
          "midi": 86,
          "name": "D6",
          "ticks": 51456,
          "time": 67,
          "velocity": 0.8976377952755905
        },
        {
          "duration": 0.4427083333333286,
          "durationTicks": 340,
          "midi": 72,
          "name": "C5",
          "ticks": 51840,
          "time": 67.5,
          "velocity": 0.8976377952755905
        },
        {
          "duration": 0.4427083333333286,
          "durationTicks": 340,
          "midi": 84,
          "name": "C6",
          "ticks": 51840,
          "time": 67.5,
          "velocity": 0.8976377952755905
        },
        {
          "duration": 1.4192708333333286,
          "durationTicks": 1090,
          "midi": 72,
          "name": "C5",
          "ticks": 52224,
          "time": 68,
          "velocity": 0.8976377952755905
        },
        {
          "duration": 1.4192708333333286,
          "durationTicks": 1090,
          "midi": 84,
          "name": "C6",
          "ticks": 52224,
          "time": 68,
          "velocity": 0.8976377952755905
        },
        {
          "duration": 0.4010416666666714,
          "durationTicks": 308,
          "midi": 72,
          "name": "C5",
          "ticks": 53376,
          "time": 69.5,
          "velocity": 0.8976377952755905
        },
        {
          "duration": 0.4010416666666714,
          "durationTicks": 308,
          "midi": 84,
          "name": "C6",
          "ticks": 53376,
          "time": 69.5,
          "velocity": 0.8976377952755905
        },
        {
          "duration": 1.3333333333333286,
          "durationTicks": 1024,
          "midi": 76,
          "name": "E5",
          "ticks": 53760,
          "time": 70,
          "velocity": 0.8976377952755905
        },
        {
          "duration": 1.3333333333333286,
          "durationTicks": 1024,
          "midi": 88,
          "name": "E6",
          "ticks": 53760,
          "time": 70,
          "velocity": 0.8976377952755905
        },
        {
          "duration": 0.2473958333333286,
          "durationTicks": 190,
          "midi": 76,
          "name": "E5",
          "ticks": 54912,
          "time": 71.5,
          "velocity": 0.8976377952755905
        },
        {
          "duration": 0.2473958333333286,
          "durationTicks": 190,
          "midi": 88,
          "name": "E6",
          "ticks": 54912,
          "time": 71.5,
          "velocity": 0.8976377952755905
        },
        {
          "duration": 0.1666666666666714,
          "durationTicks": 128,
          "midi": 74,
          "name": "D5",
          "ticks": 55008,
          "time": 71.625,
          "velocity": 0.8976377952755905
        },
        {
          "duration": 0.1666666666666714,
          "durationTicks": 128,
          "midi": 86,
          "name": "D6",
          "ticks": 55008,
          "time": 71.625,
          "velocity": 0.8976377952755905
        },
        {
          "duration": 0.0833333333333286,
          "durationTicks": 64,
          "midi": 72,
          "name": "C5",
          "ticks": 55104,
          "time": 71.75,
          "velocity": 0.8976377952755905
        },
        {
          "duration": 0.0833333333333286,
          "durationTicks": 64,
          "midi": 84,
          "name": "C6",
          "ticks": 55104,
          "time": 71.75,
          "velocity": 0.8976377952755905
        },
        {
          "duration": 0.0833333333333286,
          "durationTicks": 64,
          "midi": 69,
          "name": "A4",
          "ticks": 55200,
          "time": 71.875,
          "velocity": 0.8976377952755905
        },
        {
          "duration": 0.0833333333333286,
          "durationTicks": 64,
          "midi": 81,
          "name": "A5",
          "ticks": 55200,
          "time": 71.875,
          "velocity": 0.8976377952755905
        },
        {
          "duration": 1.375,
          "durationTicks": 1056,
          "midi": 72,
          "name": "C5",
          "ticks": 55296,
          "time": 72,
          "velocity": 0.8976377952755905
        },
        {
          "duration": 1.375,
          "durationTicks": 1056,
          "midi": 84,
          "name": "C6",
          "ticks": 55296,
          "time": 72,
          "velocity": 0.8976377952755905
        },
        {
          "duration": 0.9296875,
          "durationTicks": 714,
          "midi": 76,
          "name": "E5",
          "ticks": 56832,
          "time": 74,
          "velocity": 0.8976377952755905
        },
        {
          "duration": 0.9296875,
          "durationTicks": 714,
          "midi": 88,
          "name": "E6",
          "ticks": 56832,
          "time": 74,
          "velocity": 0.8976377952755905
        },
        {
          "duration": 0.4583333333333286,
          "durationTicks": 352,
          "midi": 74,
          "name": "D5",
          "ticks": 57600,
          "time": 75,
          "velocity": 0.8976377952755905
        },
        {
          "duration": 0.4583333333333286,
          "durationTicks": 352,
          "midi": 86,
          "name": "D6",
          "ticks": 57600,
          "time": 75,
          "velocity": 0.8976377952755905
        },
        {
          "duration": 0.4427083333333286,
          "durationTicks": 340,
          "midi": 72,
          "name": "C5",
          "ticks": 57984,
          "time": 75.5,
          "velocity": 0.8976377952755905
        },
        {
          "duration": 0.4427083333333286,
          "durationTicks": 340,
          "midi": 84,
          "name": "C6",
          "ticks": 57984,
          "time": 75.5,
          "velocity": 0.8976377952755905
        },
        {
          "duration": 2.9791666666666714,
          "durationTicks": 2288,
          "midi": 67,
          "name": "G4",
          "ticks": 70656,
          "time": 92,
          "velocity": 0.8976377952755905
        },
        {
          "duration": 2.9791666666666714,
          "durationTicks": 2288,
          "midi": 79,
          "name": "G5",
          "ticks": 70656,
          "time": 92,
          "velocity": 0.8976377952755905
        },
        {
          "duration": 1.0026041666666714,
          "durationTicks": 770,
          "midi": 71,
          "name": "B4",
          "ticks": 72960,
          "time": 95,
          "velocity": 0.8976377952755905
        },
        {
          "duration": 1.0026041666666714,
          "durationTicks": 770,
          "midi": 83,
          "name": "B5",
          "ticks": 72960,
          "time": 95,
          "velocity": 0.8976377952755905
        },
        {
          "duration": 1.4973958333333286,
          "durationTicks": 1150,
          "midi": 69,
          "name": "A4",
          "ticks": 73728,
          "time": 96,
          "velocity": 0.8976377952755905
        },
        {
          "duration": 1.4973958333333286,
          "durationTicks": 1150,
          "midi": 81,
          "name": "A5",
          "ticks": 73728,
          "time": 96,
          "velocity": 0.8976377952755905
        },
        {
          "duration": 0.4609375,
          "durationTicks": 354,
          "midi": 67,
          "name": "G4",
          "ticks": 74880,
          "time": 97.5,
          "velocity": 0.8976377952755905
        },
        {
          "duration": 0.4609375,
          "durationTicks": 354,
          "midi": 79,
          "name": "G5",
          "ticks": 74880,
          "time": 97.5,
          "velocity": 0.8976377952755905
        },
        {
          "duration": 1.8489583333333286,
          "durationTicks": 1420,
          "midi": 69,
          "name": "A4",
          "ticks": 75264,
          "time": 98,
          "velocity": 0.8976377952755905
        },
        {
          "duration": 1.8489583333333286,
          "durationTicks": 1420,
          "midi": 81,
          "name": "A5",
          "ticks": 75264,
          "time": 98,
          "velocity": 0.8976377952755905
        },
        {
          "duration": 3.8072916666666714,
          "durationTicks": 2924,
          "midi": 72,
          "name": "C5",
          "ticks": 76800,
          "time": 100,
          "velocity": 0.8267716535433071
        },
        {
          "duration": 3.7994791666666714,
          "durationTicks": 2918,
          "midi": 65,
          "name": "F4",
          "ticks": 76800,
          "time": 100,
          "velocity": 0.7874015748031497
        },
        {
          "duration": 3.8229166666666714,
          "durationTicks": 2936,
          "midi": 69,
          "name": "A4",
          "ticks": 76800,
          "time": 100,
          "velocity": 0.8031496062992126
        },
        {
          "duration": 3.8333333333333286,
          "durationTicks": 2944,
          "midi": 74,
          "name": "D5",
          "ticks": 79872,
          "time": 104,
          "velocity": 0.8267716535433071
        },
        {
          "duration": 3.8541666666666714,
          "durationTicks": 2960,
          "midi": 67,
          "name": "G4",
          "ticks": 79872,
          "time": 104,
          "velocity": 0.7874015748031497
        },
        {
          "duration": 3.8411458333333286,
          "durationTicks": 2950,
          "midi": 79,
          "name": "G5",
          "ticks": 79872,
          "time": 104,
          "velocity": 0.937007874015748
        },
        {
          "duration": 3.8489583333333286,
          "durationTicks": 2956,
          "midi": 71,
          "name": "B4",
          "ticks": 79872,
          "time": 104,
          "velocity": 0.7716535433070866
        },
        {
          "duration": 1.8854166666666714,
          "durationTicks": 1448,
          "midi": 86,
          "name": "D6",
          "ticks": 81408,
          "time": 106,
          "velocity": 0.7716535433070866
        },
        {
          "duration": 0.890625,
          "durationTicks": 684,
          "midi": 91,
          "name": "G6",
          "ticks": 82176,
          "time": 107,
          "velocity": 0.6850393700787402
        },
        {
          "duration": 1.4192708333333286,
          "durationTicks": 1090,
          "midi": 72,
          "name": "C5",
          "ticks": 82944,
          "time": 108,
          "velocity": 0.8976377952755905
        },
        {
          "duration": 1.4192708333333286,
          "durationTicks": 1090,
          "midi": 84,
          "name": "C6",
          "ticks": 82944,
          "time": 108,
          "velocity": 0.8976377952755905
        },
        {
          "duration": 0.4010416666666714,
          "durationTicks": 308,
          "midi": 72,
          "name": "C5",
          "ticks": 84096,
          "time": 109.5,
          "velocity": 0.8976377952755905
        },
        {
          "duration": 0.4010416666666714,
          "durationTicks": 308,
          "midi": 84,
          "name": "C6",
          "ticks": 84096,
          "time": 109.5,
          "velocity": 0.8976377952755905
        },
        {
          "duration": 1.3333333333333286,
          "durationTicks": 1024,
          "midi": 76,
          "name": "E5",
          "ticks": 84480,
          "time": 110,
          "velocity": 0.8976377952755905
        },
        {
          "duration": 1.3333333333333286,
          "durationTicks": 1024,
          "midi": 88,
          "name": "E6",
          "ticks": 84480,
          "time": 110,
          "velocity": 0.8976377952755905
        },
        {
          "duration": 0.2473958333333286,
          "durationTicks": 190,
          "midi": 76,
          "name": "E5",
          "ticks": 85632,
          "time": 111.5,
          "velocity": 0.8976377952755905
        },
        {
          "duration": 0.2473958333333286,
          "durationTicks": 190,
          "midi": 88,
          "name": "E6",
          "ticks": 85632,
          "time": 111.5,
          "velocity": 0.8976377952755905
        },
        {
          "duration": 0.1666666666666714,
          "durationTicks": 128,
          "midi": 74,
          "name": "D5",
          "ticks": 85728,
          "time": 111.625,
          "velocity": 0.8976377952755905
        },
        {
          "duration": 0.1666666666666714,
          "durationTicks": 128,
          "midi": 86,
          "name": "D6",
          "ticks": 85728,
          "time": 111.625,
          "velocity": 0.8976377952755905
        },
        {
          "duration": 0.0833333333333286,
          "durationTicks": 64,
          "midi": 72,
          "name": "C5",
          "ticks": 85824,
          "time": 111.75,
          "velocity": 0.8976377952755905
        },
        {
          "duration": 0.0833333333333286,
          "durationTicks": 64,
          "midi": 84,
          "name": "C6",
          "ticks": 85824,
          "time": 111.75,
          "velocity": 0.8976377952755905
        },
        {
          "duration": 0.0833333333333286,
          "durationTicks": 64,
          "midi": 69,
          "name": "A4",
          "ticks": 85920,
          "time": 111.875,
          "velocity": 0.8976377952755905
        },
        {
          "duration": 0.0833333333333286,
          "durationTicks": 64,
          "midi": 81,
          "name": "A5",
          "ticks": 85920,
          "time": 111.875,
          "velocity": 0.8976377952755905
        },
        {
          "duration": 1.375,
          "durationTicks": 1056,
          "midi": 72,
          "name": "C5",
          "ticks": 86016,
          "time": 112,
          "velocity": 0.8976377952755905
        },
        {
          "duration": 1.375,
          "durationTicks": 1056,
          "midi": 84,
          "name": "C6",
          "ticks": 86016,
          "time": 112,
          "velocity": 0.8976377952755905
        },
        {
          "duration": 0.9296875,
          "durationTicks": 714,
          "midi": 76,
          "name": "E5",
          "ticks": 87552,
          "time": 114,
          "velocity": 0.8976377952755905
        },
        {
          "duration": 0.9296875,
          "durationTicks": 714,
          "midi": 88,
          "name": "E6",
          "ticks": 87552,
          "time": 114,
          "velocity": 0.8976377952755905
        },
        {
          "duration": 0.4583333333333286,
          "durationTicks": 352,
          "midi": 74,
          "name": "D5",
          "ticks": 88320,
          "time": 115,
          "velocity": 0.8976377952755905
        },
        {
          "duration": 0.4583333333333286,
          "durationTicks": 352,
          "midi": 86,
          "name": "D6",
          "ticks": 88320,
          "time": 115,
          "velocity": 0.8976377952755905
        },
        {
          "duration": 0.4427083333333286,
          "durationTicks": 340,
          "midi": 72,
          "name": "C5",
          "ticks": 88704,
          "time": 115.5,
          "velocity": 0.8976377952755905
        },
        {
          "duration": 0.4427083333333286,
          "durationTicks": 340,
          "midi": 84,
          "name": "C6",
          "ticks": 88704,
          "time": 115.5,
          "velocity": 0.8976377952755905
        },
        {
          "duration": 1.4192708333333286,
          "durationTicks": 1090,
          "midi": 72,
          "name": "C5",
          "ticks": 89088,
          "time": 116,
          "velocity": 0.8976377952755905
        },
        {
          "duration": 1.4192708333333286,
          "durationTicks": 1090,
          "midi": 84,
          "name": "C6",
          "ticks": 89088,
          "time": 116,
          "velocity": 0.8976377952755905
        },
        {
          "duration": 0.4010416666666714,
          "durationTicks": 308,
          "midi": 72,
          "name": "C5",
          "ticks": 90240,
          "time": 117.5,
          "velocity": 0.8976377952755905
        },
        {
          "duration": 0.4010416666666714,
          "durationTicks": 308,
          "midi": 84,
          "name": "C6",
          "ticks": 90240,
          "time": 117.5,
          "velocity": 0.8976377952755905
        },
        {
          "duration": 1.3333333333333286,
          "durationTicks": 1024,
          "midi": 76,
          "name": "E5",
          "ticks": 90624,
          "time": 118,
          "velocity": 0.8976377952755905
        },
        {
          "duration": 1.3333333333333286,
          "durationTicks": 1024,
          "midi": 88,
          "name": "E6",
          "ticks": 90624,
          "time": 118,
          "velocity": 0.8976377952755905
        },
        {
          "duration": 0.2473958333333286,
          "durationTicks": 190,
          "midi": 76,
          "name": "E5",
          "ticks": 91776,
          "time": 119.5,
          "velocity": 0.8976377952755905
        },
        {
          "duration": 0.2473958333333286,
          "durationTicks": 190,
          "midi": 88,
          "name": "E6",
          "ticks": 91776,
          "time": 119.5,
          "velocity": 0.8976377952755905
        },
        {
          "duration": 0.1666666666666714,
          "durationTicks": 128,
          "midi": 74,
          "name": "D5",
          "ticks": 91872,
          "time": 119.625,
          "velocity": 0.8976377952755905
        },
        {
          "duration": 0.1666666666666714,
          "durationTicks": 128,
          "midi": 86,
          "name": "D6",
          "ticks": 91872,
          "time": 119.625,
          "velocity": 0.8976377952755905
        },
        {
          "duration": 0.0833333333333286,
          "durationTicks": 64,
          "midi": 72,
          "name": "C5",
          "ticks": 91968,
          "time": 119.75,
          "velocity": 0.8976377952755905
        },
        {
          "duration": 0.0833333333333286,
          "durationTicks": 64,
          "midi": 84,
          "name": "C6",
          "ticks": 91968,
          "time": 119.75,
          "velocity": 0.8976377952755905
        },
        {
          "duration": 0.0833333333333286,
          "durationTicks": 64,
          "midi": 69,
          "name": "A4",
          "ticks": 92064,
          "time": 119.875,
          "velocity": 0.8976377952755905
        },
        {
          "duration": 0.0833333333333286,
          "durationTicks": 64,
          "midi": 81,
          "name": "A5",
          "ticks": 92064,
          "time": 119.875,
          "velocity": 0.8976377952755905
        },
        {
          "duration": 1.375,
          "durationTicks": 1056,
          "midi": 72,
          "name": "C5",
          "ticks": 92160,
          "time": 120,
          "velocity": 0.8976377952755905
        },
        {
          "duration": 1.375,
          "durationTicks": 1056,
          "midi": 84,
          "name": "C6",
          "ticks": 92160,
          "time": 120,
          "velocity": 0.8976377952755905
        },
        {
          "duration": 0.9296875,
          "durationTicks": 714,
          "midi": 76,
          "name": "E5",
          "ticks": 93696,
          "time": 122,
          "velocity": 0.8976377952755905
        },
        {
          "duration": 0.9296875,
          "durationTicks": 714,
          "midi": 88,
          "name": "E6",
          "ticks": 93696,
          "time": 122,
          "velocity": 0.8976377952755905
        },
        {
          "duration": 0.4583333333333286,
          "durationTicks": 352,
          "midi": 74,
          "name": "D5",
          "ticks": 94464,
          "time": 123,
          "velocity": 0.8976377952755905
        },
        {
          "duration": 0.4583333333333286,
          "durationTicks": 352,
          "midi": 86,
          "name": "D6",
          "ticks": 94464,
          "time": 123,
          "velocity": 0.8976377952755905
        },
        {
          "duration": 0.4427083333333286,
          "durationTicks": 340,
          "midi": 72,
          "name": "C5",
          "ticks": 94848,
          "time": 123.5,
          "velocity": 0.8976377952755905
        },
        {
          "duration": 0.4427083333333286,
          "durationTicks": 340,
          "midi": 84,
          "name": "C6",
          "ticks": 94848,
          "time": 123.5,
          "velocity": 0.8976377952755905
        },
        {
          "duration": 1,
          "durationTicks": 768,
          "midi": 75,
          "name": "D#5",
          "ticks": 95232,
          "time": 124,
          "velocity": 0.8976377952755905
        },
        {
          "duration": 0.9739583333333286,
          "durationTicks": 748,
          "midi": 87,
          "name": "D#6",
          "ticks": 95232,
          "time": 124,
          "velocity": 0.8976377952755905
        },
        {
          "duration": 0.9557291666666714,
          "durationTicks": 734,
          "midi": 86,
          "name": "D6",
          "ticks": 96000,
          "time": 125,
          "velocity": 0.8976377952755905
        },
        {
          "duration": 0.9375,
          "durationTicks": 720,
          "midi": 74,
          "name": "D5",
          "ticks": 96000,
          "time": 125,
          "velocity": 0.8976377952755905
        },
        {
          "duration": 0.9791666666666714,
          "durationTicks": 752,
          "midi": 72,
          "name": "C5",
          "ticks": 96768,
          "time": 126,
          "velocity": 0.8976377952755905
        },
        {
          "duration": 0.9244791666666714,
          "durationTicks": 710,
          "midi": 84,
          "name": "C6",
          "ticks": 96768,
          "time": 126,
          "velocity": 0.8976377952755905
        },
        {
          "duration": 0.7916666666666714,
          "durationTicks": 608,
          "midi": 70,
          "name": "A#4",
          "ticks": 97536,
          "time": 127,
          "velocity": 0.8976377952755905
        },
        {
          "duration": 0.8020833333333286,
          "durationTicks": 616,
          "midi": 82,
          "name": "A#5",
          "ticks": 97536,
          "time": 127,
          "velocity": 0.8976377952755905
        },
        {
          "duration": 0.9713541666666572,
          "durationTicks": 746,
          "midi": 67,
          "name": "G4",
          "ticks": 98304,
          "time": 128,
          "velocity": 0.84251968503937
        },
        {
          "duration": 0.9609375,
          "durationTicks": 738,
          "midi": 79,
          "name": "G5",
          "ticks": 98304,
          "time": 128,
          "velocity": 0.84251968503937
        },
        {
          "duration": 0.96875,
          "durationTicks": 744,
          "midi": 81,
          "name": "A5",
          "ticks": 99072,
          "time": 129,
          "velocity": 0.8031496062992126
        },
        {
          "duration": 0.9791666666666572,
          "durationTicks": 752,
          "midi": 69,
          "name": "A4",
          "ticks": 99072,
          "time": 129,
          "velocity": 0.7874015748031497
        },
        {
          "duration": 1.875,
          "durationTicks": 1440,
          "midi": 79,
          "name": "G5",
          "ticks": 99840,
          "time": 130,
          "velocity": 0.889763779527559
        },
        {
          "duration": 1.8671875,
          "durationTicks": 1434,
          "midi": 67,
          "name": "G4",
          "ticks": 99840,
          "time": 130,
          "velocity": 0.7874015748031497
        },
        {
          "duration": 0.9635416666666572,
          "durationTicks": 740,
          "midi": 75,
          "name": "D#5",
          "ticks": 101376,
          "time": 132,
          "velocity": 0.8976377952755905
        },
        {
          "duration": 0.953125,
          "durationTicks": 732,
          "midi": 87,
          "name": "D#6",
          "ticks": 101376,
          "time": 132,
          "velocity": 0.8976377952755905
        },
        {
          "duration": 0.90625,
          "durationTicks": 696,
          "midi": 74,
          "name": "D5",
          "ticks": 102144,
          "time": 133,
          "velocity": 0.8976377952755905
        },
        {
          "duration": 0.9739583333333428,
          "durationTicks": 748,
          "midi": 86,
          "name": "D6",
          "ticks": 102144,
          "time": 133,
          "velocity": 0.8976377952755905
        },
        {
          "duration": 0.9557291666666572,
          "durationTicks": 734,
          "midi": 72,
          "name": "C5",
          "ticks": 102912,
          "time": 134,
          "velocity": 0.8976377952755905
        },
        {
          "duration": 0.9270833333333428,
          "durationTicks": 712,
          "midi": 84,
          "name": "C6",
          "ticks": 102912,
          "time": 134,
          "velocity": 0.8976377952755905
        },
        {
          "duration": 0.765625,
          "durationTicks": 588,
          "midi": 70,
          "name": "A#4",
          "ticks": 103680,
          "time": 135,
          "velocity": 0.8976377952755905
        },
        {
          "duration": 0.8098958333333428,
          "durationTicks": 622,
          "midi": 82,
          "name": "A#5",
          "ticks": 103680,
          "time": 135,
          "velocity": 0.8976377952755905
        },
        {
          "duration": 3.841145833333343,
          "durationTicks": 2950,
          "midi": 79,
          "name": "G5",
          "ticks": 104448,
          "time": 136,
          "velocity": 0.84251968503937
        },
        {
          "duration": 3.872395833333343,
          "durationTicks": 2974,
          "midi": 91,
          "name": "G6",
          "ticks": 104448,
          "time": 136,
          "velocity": 0.8267716535433071
        },
        {
          "duration": 1.4192708333333428,
          "durationTicks": 1090,
          "midi": 72,
          "name": "C5",
          "ticks": 107520,
          "time": 140,
          "velocity": 0.8976377952755905
        },
        {
          "duration": 1.4192708333333428,
          "durationTicks": 1090,
          "midi": 84,
          "name": "C6",
          "ticks": 107520,
          "time": 140,
          "velocity": 0.8976377952755905
        },
        {
          "duration": 0.4010416666666572,
          "durationTicks": 308,
          "midi": 72,
          "name": "C5",
          "ticks": 108672,
          "time": 141.5,
          "velocity": 0.8976377952755905
        },
        {
          "duration": 0.4010416666666572,
          "durationTicks": 308,
          "midi": 84,
          "name": "C6",
          "ticks": 108672,
          "time": 141.5,
          "velocity": 0.8976377952755905
        },
        {
          "duration": 1.3333333333333428,
          "durationTicks": 1024,
          "midi": 76,
          "name": "E5",
          "ticks": 109056,
          "time": 142,
          "velocity": 0.8976377952755905
        },
        {
          "duration": 1.3333333333333428,
          "durationTicks": 1024,
          "midi": 88,
          "name": "E6",
          "ticks": 109056,
          "time": 142,
          "velocity": 0.8976377952755905
        },
        {
          "duration": 0.2473958333333428,
          "durationTicks": 190,
          "midi": 76,
          "name": "E5",
          "ticks": 110208,
          "time": 143.5,
          "velocity": 0.8976377952755905
        },
        {
          "duration": 0.2473958333333428,
          "durationTicks": 190,
          "midi": 88,
          "name": "E6",
          "ticks": 110208,
          "time": 143.5,
          "velocity": 0.8976377952755905
        },
        {
          "duration": 0.1666666666666572,
          "durationTicks": 128,
          "midi": 74,
          "name": "D5",
          "ticks": 110304,
          "time": 143.625,
          "velocity": 0.8976377952755905
        },
        {
          "duration": 0.1666666666666572,
          "durationTicks": 128,
          "midi": 86,
          "name": "D6",
          "ticks": 110304,
          "time": 143.625,
          "velocity": 0.8976377952755905
        },
        {
          "duration": 0.08333333333334281,
          "durationTicks": 64,
          "midi": 72,
          "name": "C5",
          "ticks": 110400,
          "time": 143.75,
          "velocity": 0.8976377952755905
        },
        {
          "duration": 0.08333333333334281,
          "durationTicks": 64,
          "midi": 84,
          "name": "C6",
          "ticks": 110400,
          "time": 143.75,
          "velocity": 0.8976377952755905
        },
        {
          "duration": 0.08333333333334281,
          "durationTicks": 64,
          "midi": 69,
          "name": "A4",
          "ticks": 110496,
          "time": 143.875,
          "velocity": 0.8976377952755905
        },
        {
          "duration": 0.08333333333334281,
          "durationTicks": 64,
          "midi": 81,
          "name": "A5",
          "ticks": 110496,
          "time": 143.875,
          "velocity": 0.8976377952755905
        },
        {
          "duration": 1.375,
          "durationTicks": 1056,
          "midi": 72,
          "name": "C5",
          "ticks": 110592,
          "time": 144,
          "velocity": 0.8976377952755905
        },
        {
          "duration": 1.375,
          "durationTicks": 1056,
          "midi": 84,
          "name": "C6",
          "ticks": 110592,
          "time": 144,
          "velocity": 0.8976377952755905
        },
        {
          "duration": 0.9296875,
          "durationTicks": 714,
          "midi": 76,
          "name": "E5",
          "ticks": 112128,
          "time": 146,
          "velocity": 0.8976377952755905
        },
        {
          "duration": 0.9296875,
          "durationTicks": 714,
          "midi": 88,
          "name": "E6",
          "ticks": 112128,
          "time": 146,
          "velocity": 0.8976377952755905
        },
        {
          "duration": 0.4583333333333428,
          "durationTicks": 352,
          "midi": 74,
          "name": "D5",
          "ticks": 112896,
          "time": 147,
          "velocity": 0.8976377952755905
        },
        {
          "duration": 0.4583333333333428,
          "durationTicks": 352,
          "midi": 86,
          "name": "D6",
          "ticks": 112896,
          "time": 147,
          "velocity": 0.8976377952755905
        },
        {
          "duration": 0.4427083333333428,
          "durationTicks": 340,
          "midi": 72,
          "name": "C5",
          "ticks": 113280,
          "time": 147.5,
          "velocity": 0.8976377952755905
        },
        {
          "duration": 0.4427083333333428,
          "durationTicks": 340,
          "midi": 84,
          "name": "C6",
          "ticks": 113280,
          "time": 147.5,
          "velocity": 0.8976377952755905
        },
        {
          "duration": 1.4192708333333428,
          "durationTicks": 1090,
          "midi": 72,
          "name": "C5",
          "ticks": 113664,
          "time": 148,
          "velocity": 0.8976377952755905
        },
        {
          "duration": 1.4192708333333428,
          "durationTicks": 1090,
          "midi": 84,
          "name": "C6",
          "ticks": 113664,
          "time": 148,
          "velocity": 0.8976377952755905
        },
        {
          "duration": 0.4010416666666572,
          "durationTicks": 308,
          "midi": 72,
          "name": "C5",
          "ticks": 114816,
          "time": 149.5,
          "velocity": 0.8976377952755905
        },
        {
          "duration": 0.4010416666666572,
          "durationTicks": 308,
          "midi": 84,
          "name": "C6",
          "ticks": 114816,
          "time": 149.5,
          "velocity": 0.8976377952755905
        },
        {
          "duration": 1.3333333333333428,
          "durationTicks": 1024,
          "midi": 76,
          "name": "E5",
          "ticks": 115200,
          "time": 150,
          "velocity": 0.8976377952755905
        },
        {
          "duration": 1.3333333333333428,
          "durationTicks": 1024,
          "midi": 88,
          "name": "E6",
          "ticks": 115200,
          "time": 150,
          "velocity": 0.8976377952755905
        },
        {
          "duration": 0.2473958333333428,
          "durationTicks": 190,
          "midi": 76,
          "name": "E5",
          "ticks": 116352,
          "time": 151.5,
          "velocity": 0.8976377952755905
        },
        {
          "duration": 0.2473958333333428,
          "durationTicks": 190,
          "midi": 88,
          "name": "E6",
          "ticks": 116352,
          "time": 151.5,
          "velocity": 0.8976377952755905
        },
        {
          "duration": 0.1666666666666572,
          "durationTicks": 128,
          "midi": 74,
          "name": "D5",
          "ticks": 116448,
          "time": 151.625,
          "velocity": 0.8976377952755905
        },
        {
          "duration": 0.1666666666666572,
          "durationTicks": 128,
          "midi": 86,
          "name": "D6",
          "ticks": 116448,
          "time": 151.625,
          "velocity": 0.8976377952755905
        },
        {
          "duration": 0.08333333333334281,
          "durationTicks": 64,
          "midi": 72,
          "name": "C5",
          "ticks": 116544,
          "time": 151.75,
          "velocity": 0.8976377952755905
        },
        {
          "duration": 0.08333333333334281,
          "durationTicks": 64,
          "midi": 84,
          "name": "C6",
          "ticks": 116544,
          "time": 151.75,
          "velocity": 0.8976377952755905
        },
        {
          "duration": 0.08333333333334281,
          "durationTicks": 64,
          "midi": 69,
          "name": "A4",
          "ticks": 116640,
          "time": 151.875,
          "velocity": 0.8976377952755905
        },
        {
          "duration": 0.08333333333334281,
          "durationTicks": 64,
          "midi": 81,
          "name": "A5",
          "ticks": 116640,
          "time": 151.875,
          "velocity": 0.8976377952755905
        },
        {
          "duration": 1.375,
          "durationTicks": 1056,
          "midi": 72,
          "name": "C5",
          "ticks": 116736,
          "time": 152,
          "velocity": 0.8976377952755905
        },
        {
          "duration": 1.375,
          "durationTicks": 1056,
          "midi": 84,
          "name": "C6",
          "ticks": 116736,
          "time": 152,
          "velocity": 0.8976377952755905
        },
        {
          "duration": 0.9296875,
          "durationTicks": 714,
          "midi": 76,
          "name": "E5",
          "ticks": 118272,
          "time": 154,
          "velocity": 0.8976377952755905
        },
        {
          "duration": 0.9296875,
          "durationTicks": 714,
          "midi": 88,
          "name": "E6",
          "ticks": 118272,
          "time": 154,
          "velocity": 0.8976377952755905
        },
        {
          "duration": 0.4583333333333428,
          "durationTicks": 352,
          "midi": 74,
          "name": "D5",
          "ticks": 119040,
          "time": 155,
          "velocity": 0.8976377952755905
        },
        {
          "duration": 0.4583333333333428,
          "durationTicks": 352,
          "midi": 86,
          "name": "D6",
          "ticks": 119040,
          "time": 155,
          "velocity": 0.8976377952755905
        },
        {
          "duration": 0.4427083333333428,
          "durationTicks": 340,
          "midi": 72,
          "name": "C5",
          "ticks": 119424,
          "time": 155.5,
          "velocity": 0.8976377952755905
        },
        {
          "duration": 0.4427083333333428,
          "durationTicks": 340,
          "midi": 84,
          "name": "C6",
          "ticks": 119424,
          "time": 155.5,
          "velocity": 0.8976377952755905
        },
        {
          "duration": 1.4192708333333428,
          "durationTicks": 1090,
          "midi": 72,
          "name": "C5",
          "ticks": 119808,
          "time": 156,
          "velocity": 0.8976377952755905
        },
        {
          "duration": 1.4192708333333428,
          "durationTicks": 1090,
          "midi": 84,
          "name": "C6",
          "ticks": 119808,
          "time": 156,
          "velocity": 0.8976377952755905
        },
        {
          "duration": 0.4010416666666572,
          "durationTicks": 308,
          "midi": 72,
          "name": "C5",
          "ticks": 120960,
          "time": 157.5,
          "velocity": 0.8976377952755905
        },
        {
          "duration": 0.4010416666666572,
          "durationTicks": 308,
          "midi": 84,
          "name": "C6",
          "ticks": 120960,
          "time": 157.5,
          "velocity": 0.8976377952755905
        },
        {
          "duration": 1.3333333333333428,
          "durationTicks": 1024,
          "midi": 76,
          "name": "E5",
          "ticks": 121344,
          "time": 158,
          "velocity": 0.8976377952755905
        },
        {
          "duration": 1.3333333333333428,
          "durationTicks": 1024,
          "midi": 88,
          "name": "E6",
          "ticks": 121344,
          "time": 158,
          "velocity": 0.8976377952755905
        },
        {
          "duration": 0.2473958333333428,
          "durationTicks": 190,
          "midi": 76,
          "name": "E5",
          "ticks": 122496,
          "time": 159.5,
          "velocity": 0.8976377952755905
        },
        {
          "duration": 0.2473958333333428,
          "durationTicks": 190,
          "midi": 88,
          "name": "E6",
          "ticks": 122496,
          "time": 159.5,
          "velocity": 0.8976377952755905
        },
        {
          "duration": 0.1666666666666572,
          "durationTicks": 128,
          "midi": 74,
          "name": "D5",
          "ticks": 122592,
          "time": 159.625,
          "velocity": 0.8976377952755905
        },
        {
          "duration": 0.1666666666666572,
          "durationTicks": 128,
          "midi": 86,
          "name": "D6",
          "ticks": 122592,
          "time": 159.625,
          "velocity": 0.8976377952755905
        },
        {
          "duration": 0.08333333333334281,
          "durationTicks": 64,
          "midi": 72,
          "name": "C5",
          "ticks": 122688,
          "time": 159.75,
          "velocity": 0.8976377952755905
        },
        {
          "duration": 0.08333333333334281,
          "durationTicks": 64,
          "midi": 84,
          "name": "C6",
          "ticks": 122688,
          "time": 159.75,
          "velocity": 0.8976377952755905
        },
        {
          "duration": 0.08333333333334281,
          "durationTicks": 64,
          "midi": 69,
          "name": "A4",
          "ticks": 122784,
          "time": 159.875,
          "velocity": 0.8976377952755905
        },
        {
          "duration": 0.08333333333334281,
          "durationTicks": 64,
          "midi": 81,
          "name": "A5",
          "ticks": 122784,
          "time": 159.875,
          "velocity": 0.8976377952755905
        },
        {
          "duration": 1.375,
          "durationTicks": 1056,
          "midi": 72,
          "name": "C5",
          "ticks": 122880,
          "time": 160,
          "velocity": 0.8976377952755905
        },
        {
          "duration": 1.375,
          "durationTicks": 1056,
          "midi": 84,
          "name": "C6",
          "ticks": 122880,
          "time": 160,
          "velocity": 0.8976377952755905
        },
        {
          "duration": 0.9296875,
          "durationTicks": 714,
          "midi": 76,
          "name": "E5",
          "ticks": 124416,
          "time": 162,
          "velocity": 0.8976377952755905
        },
        {
          "duration": 0.9296875,
          "durationTicks": 714,
          "midi": 88,
          "name": "E6",
          "ticks": 124416,
          "time": 162,
          "velocity": 0.8976377952755905
        },
        {
          "duration": 0.4583333333333428,
          "durationTicks": 352,
          "midi": 74,
          "name": "D5",
          "ticks": 125184,
          "time": 163,
          "velocity": 0.8976377952755905
        },
        {
          "duration": 0.4583333333333428,
          "durationTicks": 352,
          "midi": 86,
          "name": "D6",
          "ticks": 125184,
          "time": 163,
          "velocity": 0.8976377952755905
        },
        {
          "duration": 0.4427083333333428,
          "durationTicks": 340,
          "midi": 72,
          "name": "C5",
          "ticks": 125568,
          "time": 163.5,
          "velocity": 0.8976377952755905
        },
        {
          "duration": 0.4427083333333428,
          "durationTicks": 340,
          "midi": 84,
          "name": "C6",
          "ticks": 125568,
          "time": 163.5,
          "velocity": 0.8976377952755905
        },
        {
          "duration": 1.4192708333333428,
          "durationTicks": 1090,
          "midi": 72,
          "name": "C5",
          "ticks": 125952,
          "time": 164,
          "velocity": 0.8976377952755905
        },
        {
          "duration": 1.4192708333333428,
          "durationTicks": 1090,
          "midi": 84,
          "name": "C6",
          "ticks": 125952,
          "time": 164,
          "velocity": 0.8976377952755905
        },
        {
          "duration": 0.4010416666666572,
          "durationTicks": 308,
          "midi": 72,
          "name": "C5",
          "ticks": 127104,
          "time": 165.5,
          "velocity": 0.8976377952755905
        },
        {
          "duration": 0.4010416666666572,
          "durationTicks": 308,
          "midi": 84,
          "name": "C6",
          "ticks": 127104,
          "time": 165.5,
          "velocity": 0.8976377952755905
        },
        {
          "duration": 1.3333333333333428,
          "durationTicks": 1024,
          "midi": 76,
          "name": "E5",
          "ticks": 127488,
          "time": 166,
          "velocity": 0.8976377952755905
        },
        {
          "duration": 1.3333333333333428,
          "durationTicks": 1024,
          "midi": 88,
          "name": "E6",
          "ticks": 127488,
          "time": 166,
          "velocity": 0.8976377952755905
        },
        {
          "duration": 0.2473958333333428,
          "durationTicks": 190,
          "midi": 76,
          "name": "E5",
          "ticks": 128640,
          "time": 167.5,
          "velocity": 0.8976377952755905
        },
        {
          "duration": 0.2473958333333428,
          "durationTicks": 190,
          "midi": 88,
          "name": "E6",
          "ticks": 128640,
          "time": 167.5,
          "velocity": 0.8976377952755905
        },
        {
          "duration": 0.1666666666666572,
          "durationTicks": 128,
          "midi": 74,
          "name": "D5",
          "ticks": 128736,
          "time": 167.625,
          "velocity": 0.8976377952755905
        },
        {
          "duration": 0.1666666666666572,
          "durationTicks": 128,
          "midi": 86,
          "name": "D6",
          "ticks": 128736,
          "time": 167.625,
          "velocity": 0.8976377952755905
        },
        {
          "duration": 0.08333333333334281,
          "durationTicks": 64,
          "midi": 72,
          "name": "C5",
          "ticks": 128832,
          "time": 167.75,
          "velocity": 0.8976377952755905
        },
        {
          "duration": 0.08333333333334281,
          "durationTicks": 64,
          "midi": 84,
          "name": "C6",
          "ticks": 128832,
          "time": 167.75,
          "velocity": 0.8976377952755905
        },
        {
          "duration": 0.08333333333334281,
          "durationTicks": 64,
          "midi": 69,
          "name": "A4",
          "ticks": 128928,
          "time": 167.875,
          "velocity": 0.8976377952755905
        },
        {
          "duration": 0.08333333333334281,
          "durationTicks": 64,
          "midi": 81,
          "name": "A5",
          "ticks": 128928,
          "time": 167.875,
          "velocity": 0.8976377952755905
        },
        {
          "duration": 1.375,
          "durationTicks": 1056,
          "midi": 72,
          "name": "C5",
          "ticks": 129024,
          "time": 168,
          "velocity": 0.8976377952755905
        },
        {
          "duration": 1.375,
          "durationTicks": 1056,
          "midi": 84,
          "name": "C6",
          "ticks": 129024,
          "time": 168,
          "velocity": 0.8976377952755905
        },
        {
          "duration": 0.9296875,
          "durationTicks": 714,
          "midi": 76,
          "name": "E5",
          "ticks": 130560,
          "time": 170,
          "velocity": 0.8976377952755905
        },
        {
          "duration": 0.9296875,
          "durationTicks": 714,
          "midi": 88,
          "name": "E6",
          "ticks": 130560,
          "time": 170,
          "velocity": 0.8976377952755905
        },
        {
          "duration": 0.4583333333333428,
          "durationTicks": 352,
          "midi": 74,
          "name": "D5",
          "ticks": 131328,
          "time": 171,
          "velocity": 0.8976377952755905
        },
        {
          "duration": 0.4583333333333428,
          "durationTicks": 352,
          "midi": 86,
          "name": "D6",
          "ticks": 131328,
          "time": 171,
          "velocity": 0.8976377952755905
        },
        {
          "duration": 0.4427083333333428,
          "durationTicks": 340,
          "midi": 72,
          "name": "C5",
          "ticks": 131712,
          "time": 171.5,
          "velocity": 0.8976377952755905
        },
        {
          "duration": 0.4427083333333428,
          "durationTicks": 340,
          "midi": 84,
          "name": "C6",
          "ticks": 131712,
          "time": 171.5,
          "velocity": 0.8976377952755905
        }
      ],
      "endOfTrackTicks": 132244
    },
    {
      "channel": 0,
      "controlChanges": {
        "7": [
          {
            "number": 7,
            "ticks": 1536,
            "time": 2,
            "value": 0.8818897637795275
          }
        ]
      },
      "pitchBends": [],
      "instrument": {
        "family": "piano",
        "number": 0,
        "name": "acoustic grand piano"
      },
      "name": "BASS DRUM",
      "notes": [],
      "endOfTrackTicks": 132306
    },
    {
      "channel": 9,
      "controlChanges": {},
      "pitchBends": [],
      "instrument": {
        "family": "drums",
        "number": 127
      },
      "name": "",
      "notes": [
        {
          "duration": 0.015625,
          "durationTicks": 12,
          "midi": 36,
          "name": "C2",
          "ticks": 3076,
          "time": 4.005208333333333,
          "velocity": 1
        },
        {
          "duration": 0.018229166666666963,
          "durationTicks": 14,
          "midi": 36,
          "name": "C2",
          "ticks": 3652,
          "time": 4.755208333333333,
          "velocity": 1
        },
        {
          "duration": 0.018229166666666075,
          "durationTicks": 14,
          "midi": 36,
          "name": "C2",
          "ticks": 3842,
          "time": 5.002604166666667,
          "velocity": 1
        },
        {
          "duration": 0.018229166666666963,
          "durationTicks": 14,
          "midi": 36,
          "name": "C2",
          "ticks": 4036,
          "time": 5.255208333333333,
          "velocity": 1
        },
        {
          "duration": 0.018229166666666963,
          "durationTicks": 14,
          "midi": 36,
          "name": "C2",
          "ticks": 4420,
          "time": 5.755208333333333,
          "velocity": 1
        },
        {
          "duration": 0.018229166666666075,
          "durationTicks": 14,
          "midi": 36,
          "name": "C2",
          "ticks": 4610,
          "time": 6.002604166666667,
          "velocity": 1
        },
        {
          "duration": 0.018229166666666075,
          "durationTicks": 14,
          "midi": 36,
          "name": "C2",
          "ticks": 5186,
          "time": 6.752604166666667,
          "velocity": 1
        },
        {
          "duration": 0.015625,
          "durationTicks": 12,
          "midi": 36,
          "name": "C2",
          "ticks": 5380,
          "time": 7.005208333333333,
          "velocity": 1
        },
        {
          "duration": 0.018229166666666075,
          "durationTicks": 14,
          "midi": 36,
          "name": "C2",
          "ticks": 5570,
          "time": 7.252604166666667,
          "velocity": 1
        },
        {
          "duration": 0.018229166666666963,
          "durationTicks": 14,
          "midi": 36,
          "name": "C2",
          "ticks": 5956,
          "time": 7.755208333333333,
          "velocity": 1
        },
        {
          "duration": 0.01822916666666785,
          "durationTicks": 14,
          "midi": 36,
          "name": "C2",
          "ticks": 6146,
          "time": 8.002604166666666,
          "velocity": 1
        },
        {
          "duration": 0.018229166666666075,
          "durationTicks": 14,
          "midi": 36,
          "name": "C2",
          "ticks": 6724,
          "time": 8.755208333333334,
          "velocity": 1
        },
        {
          "duration": 0.01822916666666785,
          "durationTicks": 14,
          "midi": 36,
          "name": "C2",
          "ticks": 6914,
          "time": 9.002604166666666,
          "velocity": 1
        },
        {
          "duration": 0.015625,
          "durationTicks": 12,
          "midi": 36,
          "name": "C2",
          "ticks": 7108,
          "time": 9.255208333333334,
          "velocity": 1
        },
        {
          "duration": 0.01822916666666785,
          "durationTicks": 14,
          "midi": 36,
          "name": "C2",
          "ticks": 7490,
          "time": 9.752604166666666,
          "velocity": 1
        },
        {
          "duration": 0.018229166666666075,
          "durationTicks": 14,
          "midi": 36,
          "name": "C2",
          "ticks": 7684,
          "time": 10.005208333333334,
          "velocity": 1
        },
        {
          "duration": 0.015625,
          "durationTicks": 12,
          "midi": 36,
          "name": "C2",
          "ticks": 8260,
          "time": 10.755208333333334,
          "velocity": 1
        },
        {
          "duration": 0.01822916666666785,
          "durationTicks": 14,
          "midi": 36,
          "name": "C2",
          "ticks": 8450,
          "time": 11.002604166666666,
          "velocity": 1
        },
        {
          "duration": 0.018229166666666075,
          "durationTicks": 14,
          "midi": 36,
          "name": "C2",
          "ticks": 8644,
          "time": 11.255208333333334,
          "velocity": 1
        },
        {
          "duration": 0.018229166666666075,
          "durationTicks": 14,
          "midi": 36,
          "name": "C2",
          "ticks": 9028,
          "time": 11.755208333333334,
          "velocity": 1
        },
        {
          "duration": 0.020833333333333925,
          "durationTicks": 16,
          "midi": 36,
          "name": "C2",
          "ticks": 9218,
          "time": 12.002604166666666,
          "velocity": 1
        },
        {
          "duration": 0.01822916666666785,
          "durationTicks": 14,
          "midi": 36,
          "name": "C2",
          "ticks": 9794,
          "time": 12.752604166666666,
          "velocity": 1
        },
        {
          "duration": 0.018229166666666075,
          "durationTicks": 14,
          "midi": 36,
          "name": "C2",
          "ticks": 9988,
          "time": 13.005208333333334,
          "velocity": 1
        },
        {
          "duration": 0.01822916666666785,
          "durationTicks": 14,
          "midi": 36,
          "name": "C2",
          "ticks": 10178,
          "time": 13.252604166666666,
          "velocity": 1
        },
        {
          "duration": 0.015625,
          "durationTicks": 12,
          "midi": 36,
          "name": "C2",
          "ticks": 10564,
          "time": 13.755208333333334,
          "velocity": 1
        },
        {
          "duration": 0.01822916666666785,
          "durationTicks": 14,
          "midi": 36,
          "name": "C2",
          "ticks": 10754,
          "time": 14.002604166666666,
          "velocity": 1
        },
        {
          "duration": 0.018229166666666075,
          "durationTicks": 14,
          "midi": 36,
          "name": "C2",
          "ticks": 11332,
          "time": 14.755208333333334,
          "velocity": 1
        },
        {
          "duration": 0.01822916666666785,
          "durationTicks": 14,
          "midi": 36,
          "name": "C2",
          "ticks": 11522,
          "time": 15.002604166666666,
          "velocity": 1
        },
        {
          "duration": 0.015625,
          "durationTicks": 12,
          "midi": 36,
          "name": "C2",
          "ticks": 11716,
          "time": 15.255208333333334,
          "velocity": 1
        },
        {
          "duration": 0.01822916666666785,
          "durationTicks": 14,
          "midi": 36,
          "name": "C2",
          "ticks": 12098,
          "time": 15.752604166666666,
          "velocity": 1
        },
        {
          "duration": 0.01822916666666785,
          "durationTicks": 14,
          "midi": 36,
          "name": "C2",
          "ticks": 12292,
          "time": 16.005208333333332,
          "velocity": 1
        },
        {
          "duration": 0.015625,
          "durationTicks": 12,
          "midi": 36,
          "name": "C2",
          "ticks": 12868,
          "time": 16.755208333333332,
          "velocity": 1
        },
        {
          "duration": 0.018229166666664298,
          "durationTicks": 14,
          "midi": 36,
          "name": "C2",
          "ticks": 13058,
          "time": 17.002604166666668,
          "velocity": 1
        },
        {
          "duration": 0.01822916666666785,
          "durationTicks": 14,
          "midi": 36,
          "name": "C2",
          "ticks": 13252,
          "time": 17.255208333333332,
          "velocity": 1
        },
        {
          "duration": 0.018229166666664298,
          "durationTicks": 14,
          "midi": 36,
          "name": "C2",
          "ticks": 13634,
          "time": 17.752604166666668,
          "velocity": 1
        },
        {
          "duration": 0.01822916666666785,
          "durationTicks": 14,
          "midi": 36,
          "name": "C2",
          "ticks": 13828,
          "time": 18.005208333333332,
          "velocity": 1
        },
        {
          "duration": 0.018229166666664298,
          "durationTicks": 14,
          "midi": 36,
          "name": "C2",
          "ticks": 14402,
          "time": 18.752604166666668,
          "velocity": 1
        },
        {
          "duration": 0.015625,
          "durationTicks": 12,
          "midi": 36,
          "name": "C2",
          "ticks": 14596,
          "time": 19.005208333333332,
          "velocity": 1
        },
        {
          "duration": 0.01822916666666785,
          "durationTicks": 14,
          "midi": 36,
          "name": "C2",
          "ticks": 14788,
          "time": 19.255208333333332,
          "velocity": 1
        },
        {
          "duration": 0.01822916666666785,
          "durationTicks": 14,
          "midi": 36,
          "name": "C2",
          "ticks": 15172,
          "time": 19.755208333333332,
          "velocity": 1
        },
        {
          "duration": 0.02083333333333215,
          "durationTicks": 16,
          "midi": 36,
          "name": "C2",
          "ticks": 15362,
          "time": 20.002604166666668,
          "velocity": 1
        },
        {
          "duration": 0.018229166666664298,
          "durationTicks": 14,
          "midi": 36,
          "name": "C2",
          "ticks": 15938,
          "time": 20.752604166666668,
          "velocity": 1
        },
        {
          "duration": 0.015625,
          "durationTicks": 12,
          "midi": 36,
          "name": "C2",
          "ticks": 16132,
          "time": 21.005208333333332,
          "velocity": 1
        },
        {
          "duration": 0.02083333333333215,
          "durationTicks": 16,
          "midi": 36,
          "name": "C2",
          "ticks": 16322,
          "time": 21.252604166666668,
          "velocity": 1
        },
        {
          "duration": 0.01822916666666785,
          "durationTicks": 14,
          "midi": 36,
          "name": "C2",
          "ticks": 16708,
          "time": 21.755208333333332,
          "velocity": 1
        },
        {
          "duration": 0.018229166666664298,
          "durationTicks": 14,
          "midi": 36,
          "name": "C2",
          "ticks": 16898,
          "time": 22.002604166666668,
          "velocity": 1
        },
        {
          "duration": 0.018229166666664298,
          "durationTicks": 14,
          "midi": 36,
          "name": "C2",
          "ticks": 17474,
          "time": 22.752604166666668,
          "velocity": 1
        },
        {
          "duration": 0.01822916666666785,
          "durationTicks": 14,
          "midi": 36,
          "name": "C2",
          "ticks": 17668,
          "time": 23.005208333333332,
          "velocity": 1
        },
        {
          "duration": 0.018229166666664298,
          "durationTicks": 14,
          "midi": 36,
          "name": "C2",
          "ticks": 17858,
          "time": 23.252604166666668,
          "velocity": 1
        },
        {
          "duration": 0.01822916666666785,
          "durationTicks": 14,
          "midi": 36,
          "name": "C2",
          "ticks": 18244,
          "time": 23.755208333333332,
          "velocity": 1
        },
        {
          "duration": 0.018229166666664298,
          "durationTicks": 14,
          "midi": 36,
          "name": "C2",
          "ticks": 18434,
          "time": 24.002604166666668,
          "velocity": 1
        },
        {
          "duration": 0.01822916666666785,
          "durationTicks": 14,
          "midi": 36,
          "name": "C2",
          "ticks": 19012,
          "time": 24.755208333333332,
          "velocity": 1
        },
        {
          "duration": 0.018229166666664298,
          "durationTicks": 14,
          "midi": 36,
          "name": "C2",
          "ticks": 19202,
          "time": 25.002604166666668,
          "velocity": 1
        },
        {
          "duration": 0.018229166666664298,
          "durationTicks": 14,
          "midi": 36,
          "name": "C2",
          "ticks": 19394,
          "time": 25.252604166666668,
          "velocity": 1
        },
        {
          "duration": 0.018229166666664298,
          "durationTicks": 14,
          "midi": 36,
          "name": "C2",
          "ticks": 19778,
          "time": 25.752604166666668,
          "velocity": 1
        },
        {
          "duration": 0.01822916666666785,
          "durationTicks": 14,
          "midi": 36,
          "name": "C2",
          "ticks": 19972,
          "time": 26.005208333333332,
          "velocity": 1
        },
        {
          "duration": 0.015625,
          "durationTicks": 12,
          "midi": 36,
          "name": "C2",
          "ticks": 20548,
          "time": 26.755208333333332,
          "velocity": 1
        },
        {
          "duration": 0.018229166666664298,
          "durationTicks": 14,
          "midi": 36,
          "name": "C2",
          "ticks": 20738,
          "time": 27.002604166666668,
          "velocity": 1
        },
        {
          "duration": 0.015625,
          "durationTicks": 12,
          "midi": 36,
          "name": "C2",
          "ticks": 20932,
          "time": 27.255208333333332,
          "velocity": 1
        },
        {
          "duration": 0.018229166666664298,
          "durationTicks": 14,
          "midi": 36,
          "name": "C2",
          "ticks": 21314,
          "time": 27.752604166666668,
          "velocity": 1
        },
        {
          "duration": 0.01822916666666785,
          "durationTicks": 14,
          "midi": 36,
          "name": "C2",
          "ticks": 21508,
          "time": 28.005208333333332,
          "velocity": 1
        },
        {
          "duration": 0.01822916666666785,
          "durationTicks": 14,
          "midi": 36,
          "name": "C2",
          "ticks": 22276,
          "time": 29.005208333333332,
          "velocity": 1
        },
        {
          "duration": 0.018229166666664298,
          "durationTicks": 14,
          "midi": 36,
          "name": "C2",
          "ticks": 23042,
          "time": 30.002604166666668,
          "velocity": 1
        },
        {
          "duration": 0.018229166666664298,
          "durationTicks": 14,
          "midi": 36,
          "name": "C2",
          "ticks": 23810,
          "time": 31.002604166666668,
          "velocity": 1
        },
        {
          "duration": 0.018229166666664298,
          "durationTicks": 14,
          "midi": 36,
          "name": "C2",
          "ticks": 24580,
          "time": 32.005208333333336,
          "velocity": 1
        },
        {
          "duration": 0.018229166666664298,
          "durationTicks": 14,
          "midi": 36,
          "name": "C2",
          "ticks": 25348,
          "time": 33.005208333333336,
          "velocity": 1
        },
        {
          "duration": 0.018229166666664298,
          "durationTicks": 14,
          "midi": 36,
          "name": "C2",
          "ticks": 26116,
          "time": 34.005208333333336,
          "velocity": 1
        },
        {
          "duration": 0.018229166666664298,
          "durationTicks": 14,
          "midi": 36,
          "name": "C2",
          "ticks": 26884,
          "time": 35.005208333333336,
          "velocity": 1
        },
        {
          "duration": 0.018229166666671404,
          "durationTicks": 14,
          "midi": 36,
          "name": "C2",
          "ticks": 27650,
          "time": 36.002604166666664,
          "velocity": 1
        },
        {
          "duration": 0.015625,
          "durationTicks": 12,
          "midi": 36,
          "name": "C2",
          "ticks": 28420,
          "time": 37.005208333333336,
          "velocity": 1
        },
        {
          "duration": 0.015625,
          "durationTicks": 12,
          "midi": 36,
          "name": "C2",
          "ticks": 29188,
          "time": 38.005208333333336,
          "velocity": 1
        },
        {
          "duration": 0.018229166666671404,
          "durationTicks": 14,
          "midi": 36,
          "name": "C2",
          "ticks": 29954,
          "time": 39.002604166666664,
          "velocity": 1
        },
        {
          "duration": 0.018229166666671404,
          "durationTicks": 14,
          "midi": 36,
          "name": "C2",
          "ticks": 30722,
          "time": 40.002604166666664,
          "velocity": 1
        },
        {
          "duration": 0.018229166666671404,
          "durationTicks": 14,
          "midi": 36,
          "name": "C2",
          "ticks": 31490,
          "time": 41.002604166666664,
          "velocity": 1
        },
        {
          "duration": 0.018229166666671404,
          "durationTicks": 14,
          "midi": 36,
          "name": "C2",
          "ticks": 32258,
          "time": 42.002604166666664,
          "velocity": 1
        },
        {
          "duration": 0.015625,
          "durationTicks": 12,
          "midi": 36,
          "name": "C2",
          "ticks": 33028,
          "time": 43.005208333333336,
          "velocity": 1
        },
        {
          "duration": 0.018229166666671404,
          "durationTicks": 14,
          "midi": 36,
          "name": "C2",
          "ticks": 33794,
          "time": 44.002604166666664,
          "velocity": 1
        },
        {
          "duration": 0.018229166666671404,
          "durationTicks": 14,
          "midi": 36,
          "name": "C2",
          "ticks": 34562,
          "time": 45.002604166666664,
          "velocity": 1
        },
        {
          "duration": 0.018229166666671404,
          "durationTicks": 14,
          "midi": 36,
          "name": "C2",
          "ticks": 35330,
          "time": 46.002604166666664,
          "velocity": 1
        },
        {
          "duration": 0.018229166666671404,
          "durationTicks": 14,
          "midi": 36,
          "name": "C2",
          "ticks": 36098,
          "time": 47.002604166666664,
          "velocity": 1
        },
        {
          "duration": 0.015625,
          "durationTicks": 12,
          "midi": 36,
          "name": "C2",
          "ticks": 36868,
          "time": 48.005208333333336,
          "velocity": 1
        },
        {
          "duration": 0.015625,
          "durationTicks": 12,
          "midi": 36,
          "name": "C2",
          "ticks": 37636,
          "time": 49.005208333333336,
          "velocity": 1
        },
        {
          "duration": 0.018229166666671404,
          "durationTicks": 14,
          "midi": 36,
          "name": "C2",
          "ticks": 38402,
          "time": 50.002604166666664,
          "velocity": 1
        },
        {
          "duration": 0.018229166666671404,
          "durationTicks": 14,
          "midi": 36,
          "name": "C2",
          "ticks": 39170,
          "time": 51.002604166666664,
          "velocity": 1
        },
        {
          "duration": 0.018229166666664298,
          "durationTicks": 14,
          "midi": 36,
          "name": "C2",
          "ticks": 39940,
          "time": 52.005208333333336,
          "velocity": 1
        },
        {
          "duration": 0.018229166666671404,
          "durationTicks": 14,
          "midi": 36,
          "name": "C2",
          "ticks": 40706,
          "time": 53.002604166666664,
          "velocity": 1
        },
        {
          "duration": 0.018229166666671404,
          "durationTicks": 14,
          "midi": 36,
          "name": "C2",
          "ticks": 41474,
          "time": 54.002604166666664,
          "velocity": 1
        },
        {
          "duration": 0.018229166666671404,
          "durationTicks": 14,
          "midi": 36,
          "name": "C2",
          "ticks": 42242,
          "time": 55.002604166666664,
          "velocity": 1
        },
        {
          "duration": 0.015625,
          "durationTicks": 12,
          "midi": 36,
          "name": "C2",
          "ticks": 43012,
          "time": 56.005208333333336,
          "velocity": 1
        },
        {
          "duration": 0.018229166666671404,
          "durationTicks": 14,
          "midi": 36,
          "name": "C2",
          "ticks": 43778,
          "time": 57.002604166666664,
          "velocity": 1
        },
        {
          "duration": 0.015625,
          "durationTicks": 12,
          "midi": 36,
          "name": "C2",
          "ticks": 44548,
          "time": 58.005208333333336,
          "velocity": 1
        },
        {
          "duration": 0.018229166666664298,
          "durationTicks": 14,
          "midi": 36,
          "name": "C2",
          "ticks": 45316,
          "time": 59.005208333333336,
          "velocity": 1
        },
        {
          "duration": 0.018229166666664298,
          "durationTicks": 14,
          "midi": 36,
          "name": "C2",
          "ticks": 46084,
          "time": 60.005208333333336,
          "velocity": 1
        },
        {
          "duration": 0.015625,
          "durationTicks": 12,
          "midi": 36,
          "name": "C2",
          "ticks": 46660,
          "time": 60.755208333333336,
          "velocity": 1
        },
        {
          "duration": 0.018229166666664298,
          "durationTicks": 14,
          "midi": 36,
          "name": "C2",
          "ticks": 46852,
          "time": 61.005208333333336,
          "velocity": 1
        },
        {
          "duration": 0.018229166666664298,
          "durationTicks": 14,
          "midi": 36,
          "name": "C2",
          "ticks": 47044,
          "time": 61.255208333333336,
          "velocity": 1
        },
        {
          "duration": 0.018229166666664298,
          "durationTicks": 14,
          "midi": 36,
          "name": "C2",
          "ticks": 47428,
          "time": 61.755208333333336,
          "velocity": 1
        },
        {
          "duration": 0.018229166666664298,
          "durationTicks": 14,
          "midi": 36,
          "name": "C2",
          "ticks": 47620,
          "time": 62.005208333333336,
          "velocity": 1
        },
        {
          "duration": 0.018229166666664298,
          "durationTicks": 14,
          "midi": 36,
          "name": "C2",
          "ticks": 48196,
          "time": 62.755208333333336,
          "velocity": 1
        },
        {
          "duration": 0.018229166666664298,
          "durationTicks": 14,
          "midi": 36,
          "name": "C2",
          "ticks": 48388,
          "time": 63.005208333333336,
          "velocity": 1
        },
        {
          "duration": 0.018229166666664298,
          "durationTicks": 14,
          "midi": 36,
          "name": "C2",
          "ticks": 48580,
          "time": 63.255208333333336,
          "velocity": 1
        },
        {
          "duration": 0.018229166666664298,
          "durationTicks": 14,
          "midi": 36,
          "name": "C2",
          "ticks": 48964,
          "time": 63.755208333333336,
          "velocity": 1
        },
        {
          "duration": 0.018229166666671404,
          "durationTicks": 14,
          "midi": 36,
          "name": "C2",
          "ticks": 49156,
          "time": 64.00520833333333,
          "velocity": 1
        },
        {
          "duration": 0.018229166666657193,
          "durationTicks": 14,
          "midi": 36,
          "name": "C2",
          "ticks": 49730,
          "time": 64.75260416666667,
          "velocity": 1
        },
        {
          "duration": 0.020833333333328596,
          "durationTicks": 16,
          "midi": 36,
          "name": "C2",
          "ticks": 49922,
          "time": 65.00260416666667,
          "velocity": 1
        },
        {
          "duration": 0.018229166666671404,
          "durationTicks": 14,
          "midi": 36,
          "name": "C2",
          "ticks": 50116,
          "time": 65.25520833333333,
          "velocity": 1
        },
        {
          "duration": 0.018229166666671404,
          "durationTicks": 14,
          "midi": 36,
          "name": "C2",
          "ticks": 50500,
          "time": 65.75520833333333,
          "velocity": 1
        },
        {
          "duration": 0.018229166666671404,
          "durationTicks": 14,
          "midi": 36,
          "name": "C2",
          "ticks": 50692,
          "time": 66.00520833333333,
          "velocity": 1
        },
        {
          "duration": 0.015625,
          "durationTicks": 12,
          "midi": 36,
          "name": "C2",
          "ticks": 51268,
          "time": 66.75520833333333,
          "velocity": 1
        },
        {
          "duration": 0.018229166666671404,
          "durationTicks": 14,
          "midi": 36,
          "name": "C2",
          "ticks": 51460,
          "time": 67.00520833333333,
          "velocity": 1
        },
        {
          "duration": 0.018229166666671404,
          "durationTicks": 14,
          "midi": 36,
          "name": "C2",
          "ticks": 51652,
          "time": 67.25520833333333,
          "velocity": 1
        },
        {
          "duration": 0.018229166666671404,
          "durationTicks": 14,
          "midi": 36,
          "name": "C2",
          "ticks": 52036,
          "time": 67.75520833333333,
          "velocity": 1
        },
        {
          "duration": 0.018229166666671404,
          "durationTicks": 14,
          "midi": 36,
          "name": "C2",
          "ticks": 52228,
          "time": 68.00520833333333,
          "velocity": 1
        },
        {
          "duration": 0.018229166666671404,
          "durationTicks": 14,
          "midi": 36,
          "name": "C2",
          "ticks": 52804,
          "time": 68.75520833333333,
          "velocity": 1
        },
        {
          "duration": 0.018229166666671404,
          "durationTicks": 14,
          "midi": 36,
          "name": "C2",
          "ticks": 52996,
          "time": 69.00520833333333,
          "velocity": 1
        },
        {
          "duration": 0.018229166666671404,
          "durationTicks": 14,
          "midi": 36,
          "name": "C2",
          "ticks": 53188,
          "time": 69.25520833333333,
          "velocity": 1
        },
        {
          "duration": 0.018229166666671404,
          "durationTicks": 14,
          "midi": 36,
          "name": "C2",
          "ticks": 53572,
          "time": 69.75520833333333,
          "velocity": 1
        },
        {
          "duration": 0.018229166666671404,
          "durationTicks": 14,
          "midi": 36,
          "name": "C2",
          "ticks": 53764,
          "time": 70.00520833333333,
          "velocity": 1
        },
        {
          "duration": 0.015625,
          "durationTicks": 12,
          "midi": 36,
          "name": "C2",
          "ticks": 54340,
          "time": 70.75520833333333,
          "velocity": 1
        },
        {
          "duration": 0.020833333333328596,
          "durationTicks": 16,
          "midi": 36,
          "name": "C2",
          "ticks": 54530,
          "time": 71.00260416666667,
          "velocity": 1
        },
        {
          "duration": 0.018229166666671404,
          "durationTicks": 14,
          "midi": 36,
          "name": "C2",
          "ticks": 54724,
          "time": 71.25520833333333,
          "velocity": 1
        },
        {
          "duration": 0.018229166666671404,
          "durationTicks": 14,
          "midi": 36,
          "name": "C2",
          "ticks": 55108,
          "time": 71.75520833333333,
          "velocity": 1
        },
        {
          "duration": 0.018229166666671404,
          "durationTicks": 14,
          "midi": 36,
          "name": "C2",
          "ticks": 55300,
          "time": 72.00520833333333,
          "velocity": 1
        },
        {
          "duration": 0.015625,
          "durationTicks": 12,
          "midi": 36,
          "name": "C2",
          "ticks": 55876,
          "time": 72.75520833333333,
          "velocity": 1
        },
        {
          "duration": 0.020833333333328596,
          "durationTicks": 16,
          "midi": 36,
          "name": "C2",
          "ticks": 56066,
          "time": 73.00260416666667,
          "velocity": 1
        },
        {
          "duration": 0.018229166666671404,
          "durationTicks": 14,
          "midi": 36,
          "name": "C2",
          "ticks": 56260,
          "time": 73.25520833333333,
          "velocity": 1
        },
        {
          "duration": 0.015625,
          "durationTicks": 12,
          "midi": 36,
          "name": "C2",
          "ticks": 56644,
          "time": 73.75520833333333,
          "velocity": 1
        },
        {
          "duration": 0.020833333333328596,
          "durationTicks": 16,
          "midi": 36,
          "name": "C2",
          "ticks": 56834,
          "time": 74.00260416666667,
          "velocity": 1
        },
        {
          "duration": 0.015625,
          "durationTicks": 12,
          "midi": 36,
          "name": "C2",
          "ticks": 57412,
          "time": 74.75520833333333,
          "velocity": 1
        },
        {
          "duration": 0.020833333333328596,
          "durationTicks": 16,
          "midi": 36,
          "name": "C2",
          "ticks": 57602,
          "time": 75.00260416666667,
          "velocity": 1
        },
        {
          "duration": 0.018229166666671404,
          "durationTicks": 14,
          "midi": 36,
          "name": "C2",
          "ticks": 57796,
          "time": 75.25520833333333,
          "velocity": 1
        },
        {
          "duration": 0.015625,
          "durationTicks": 12,
          "midi": 36,
          "name": "C2",
          "ticks": 58180,
          "time": 75.75520833333333,
          "velocity": 1
        },
        {
          "duration": 0.018229166666671404,
          "durationTicks": 14,
          "midi": 36,
          "name": "C2",
          "ticks": 58372,
          "time": 76.00520833333333,
          "velocity": 1
        },
        {
          "duration": 0.015625,
          "durationTicks": 12,
          "midi": 36,
          "name": "C2",
          "ticks": 59140,
          "time": 77.00520833333333,
          "velocity": 1
        },
        {
          "duration": 0.015625,
          "durationTicks": 12,
          "midi": 36,
          "name": "C2",
          "ticks": 59908,
          "time": 78.00520833333333,
          "velocity": 1
        },
        {
          "duration": 0.015625,
          "durationTicks": 12,
          "midi": 36,
          "name": "C2",
          "ticks": 60676,
          "time": 79.00520833333333,
          "velocity": 1
        },
        {
          "duration": 0.015625,
          "durationTicks": 12,
          "midi": 36,
          "name": "C2",
          "ticks": 61444,
          "time": 80.00520833333333,
          "velocity": 1
        },
        {
          "duration": 0.020833333333328596,
          "durationTicks": 16,
          "midi": 36,
          "name": "C2",
          "ticks": 62210,
          "time": 81.00260416666667,
          "velocity": 1
        },
        {
          "duration": 0.015625,
          "durationTicks": 12,
          "midi": 36,
          "name": "C2",
          "ticks": 62980,
          "time": 82.00520833333333,
          "velocity": 1
        },
        {
          "duration": 0.018229166666657193,
          "durationTicks": 14,
          "midi": 36,
          "name": "C2",
          "ticks": 63746,
          "time": 83.00260416666667,
          "velocity": 1
        },
        {
          "duration": 0.018229166666657193,
          "durationTicks": 14,
          "midi": 36,
          "name": "C2",
          "ticks": 64514,
          "time": 84.00260416666667,
          "velocity": 1
        },
        {
          "duration": 0.018229166666657193,
          "durationTicks": 14,
          "midi": 36,
          "name": "C2",
          "ticks": 65282,
          "time": 85.00260416666667,
          "velocity": 1
        },
        {
          "duration": 0.018229166666657193,
          "durationTicks": 14,
          "midi": 36,
          "name": "C2",
          "ticks": 66050,
          "time": 86.00260416666667,
          "velocity": 1
        },
        {
          "duration": 0.018229166666657193,
          "durationTicks": 14,
          "midi": 36,
          "name": "C2",
          "ticks": 66818,
          "time": 87.00260416666667,
          "velocity": 1
        },
        {
          "duration": 0.015625,
          "durationTicks": 12,
          "midi": 36,
          "name": "C2",
          "ticks": 67588,
          "time": 88.00520833333333,
          "velocity": 1
        },
        {
          "duration": 0.018229166666657193,
          "durationTicks": 14,
          "midi": 36,
          "name": "C2",
          "ticks": 68354,
          "time": 89.00260416666667,
          "velocity": 1
        },
        {
          "duration": 0.018229166666657193,
          "durationTicks": 14,
          "midi": 36,
          "name": "C2",
          "ticks": 69122,
          "time": 90.00260416666667,
          "velocity": 1
        },
        {
          "duration": 0.015625,
          "durationTicks": 12,
          "midi": 36,
          "name": "C2",
          "ticks": 69892,
          "time": 91.00520833333333,
          "velocity": 1
        },
        {
          "duration": 0.018229166666671404,
          "durationTicks": 14,
          "midi": 36,
          "name": "C2",
          "ticks": 70660,
          "time": 92.00520833333333,
          "velocity": 1
        },
        {
          "duration": 0.018229166666657193,
          "durationTicks": 14,
          "midi": 36,
          "name": "C2",
          "ticks": 71426,
          "time": 93.00260416666667,
          "velocity": 1
        },
        {
          "duration": 0.015625,
          "durationTicks": 12,
          "midi": 36,
          "name": "C2",
          "ticks": 72196,
          "time": 94.00520833333333,
          "velocity": 1
        },
        {
          "duration": 0.018229166666657193,
          "durationTicks": 14,
          "midi": 36,
          "name": "C2",
          "ticks": 72962,
          "time": 95.00260416666667,
          "velocity": 1
        },
        {
          "duration": 0.018229166666657193,
          "durationTicks": 14,
          "midi": 36,
          "name": "C2",
          "ticks": 73730,
          "time": 96.00260416666667,
          "velocity": 1
        },
        {
          "duration": 0.015625,
          "durationTicks": 12,
          "midi": 36,
          "name": "C2",
          "ticks": 74500,
          "time": 97.00520833333333,
          "velocity": 1
        },
        {
          "duration": 0.018229166666657193,
          "durationTicks": 14,
          "midi": 36,
          "name": "C2",
          "ticks": 75266,
          "time": 98.00260416666667,
          "velocity": 1
        },
        {
          "duration": 0.018229166666657193,
          "durationTicks": 14,
          "midi": 36,
          "name": "C2",
          "ticks": 76034,
          "time": 99.00260416666667,
          "velocity": 1
        },
        {
          "duration": 0.020833333333328596,
          "durationTicks": 16,
          "midi": 36,
          "name": "C2",
          "ticks": 76802,
          "time": 100.00260416666667,
          "velocity": 1
        },
        {
          "duration": 0.018229166666657193,
          "durationTicks": 14,
          "midi": 36,
          "name": "C2",
          "ticks": 77570,
          "time": 101.00260416666667,
          "velocity": 1
        },
        {
          "duration": 0.018229166666657193,
          "durationTicks": 14,
          "midi": 36,
          "name": "C2",
          "ticks": 78338,
          "time": 102.00260416666667,
          "velocity": 1
        },
        {
          "duration": 0.015625,
          "durationTicks": 12,
          "midi": 36,
          "name": "C2",
          "ticks": 79108,
          "time": 103.00520833333333,
          "velocity": 1
        },
        {
          "duration": 0.015625,
          "durationTicks": 12,
          "midi": 36,
          "name": "C2",
          "ticks": 79876,
          "time": 104.00520833333333,
          "velocity": 1
        },
        {
          "duration": 0.018229166666657193,
          "durationTicks": 14,
          "midi": 36,
          "name": "C2",
          "ticks": 80642,
          "time": 105.00260416666667,
          "velocity": 1
        },
        {
          "duration": 0.018229166666657193,
          "durationTicks": 14,
          "midi": 36,
          "name": "C2",
          "ticks": 81410,
          "time": 106.00260416666667,
          "velocity": 1
        },
        {
          "duration": 0.018229166666671404,
          "durationTicks": 14,
          "midi": 36,
          "name": "C2",
          "ticks": 82180,
          "time": 107.00520833333333,
          "velocity": 1
        },
        {
          "duration": 0.018229166666671404,
          "durationTicks": 14,
          "midi": 36,
          "name": "C2",
          "ticks": 82948,
          "time": 108.00520833333333,
          "velocity": 1
        },
        {
          "duration": 0.018229166666657193,
          "durationTicks": 14,
          "midi": 36,
          "name": "C2",
          "ticks": 83522,
          "time": 108.75260416666667,
          "velocity": 1
        },
        {
          "duration": 0.018229166666671404,
          "durationTicks": 14,
          "midi": 36,
          "name": "C2",
          "ticks": 83716,
          "time": 109.00520833333333,
          "velocity": 1
        },
        {
          "duration": 0.018229166666671404,
          "durationTicks": 14,
          "midi": 36,
          "name": "C2",
          "ticks": 83908,
          "time": 109.25520833333333,
          "velocity": 1
        },
        {
          "duration": 0.018229166666671404,
          "durationTicks": 14,
          "midi": 36,
          "name": "C2",
          "ticks": 84292,
          "time": 109.75520833333333,
          "velocity": 1
        },
        {
          "duration": 0.018229166666671404,
          "durationTicks": 14,
          "midi": 36,
          "name": "C2",
          "ticks": 84484,
          "time": 110.00520833333333,
          "velocity": 1
        },
        {
          "duration": 0.018229166666671404,
          "durationTicks": 14,
          "midi": 36,
          "name": "C2",
          "ticks": 85060,
          "time": 110.75520833333333,
          "velocity": 1
        },
        {
          "duration": 0.018229166666671404,
          "durationTicks": 14,
          "midi": 36,
          "name": "C2",
          "ticks": 85252,
          "time": 111.00520833333333,
          "velocity": 1
        },
        {
          "duration": 0.018229166666671404,
          "durationTicks": 14,
          "midi": 36,
          "name": "C2",
          "ticks": 85444,
          "time": 111.25520833333333,
          "velocity": 1
        },
        {
          "duration": 0.018229166666671404,
          "durationTicks": 14,
          "midi": 36,
          "name": "C2",
          "ticks": 85828,
          "time": 111.75520833333333,
          "velocity": 1
        },
        {
          "duration": 0.018229166666671404,
          "durationTicks": 14,
          "midi": 36,
          "name": "C2",
          "ticks": 86020,
          "time": 112.00520833333333,
          "velocity": 1
        },
        {
          "duration": 0.018229166666657193,
          "durationTicks": 14,
          "midi": 36,
          "name": "C2",
          "ticks": 86594,
          "time": 112.75260416666667,
          "velocity": 1
        },
        {
          "duration": 0.020833333333328596,
          "durationTicks": 16,
          "midi": 36,
          "name": "C2",
          "ticks": 86786,
          "time": 113.00260416666667,
          "velocity": 1
        },
        {
          "duration": 0.020833333333328596,
          "durationTicks": 16,
          "midi": 36,
          "name": "C2",
          "ticks": 86978,
          "time": 113.25260416666667,
          "velocity": 1
        },
        {
          "duration": 0.018229166666671404,
          "durationTicks": 14,
          "midi": 36,
          "name": "C2",
          "ticks": 87364,
          "time": 113.75520833333333,
          "velocity": 1
        },
        {
          "duration": 0.018229166666671404,
          "durationTicks": 14,
          "midi": 36,
          "name": "C2",
          "ticks": 87556,
          "time": 114.00520833333333,
          "velocity": 1
        },
        {
          "duration": 0.015625,
          "durationTicks": 12,
          "midi": 36,
          "name": "C2",
          "ticks": 88132,
          "time": 114.75520833333333,
          "velocity": 1
        },
        {
          "duration": 0.018229166666671404,
          "durationTicks": 14,
          "midi": 36,
          "name": "C2",
          "ticks": 88324,
          "time": 115.00520833333333,
          "velocity": 1
        },
        {
          "duration": 0.020833333333328596,
          "durationTicks": 16,
          "midi": 36,
          "name": "C2",
          "ticks": 88514,
          "time": 115.25260416666667,
          "velocity": 1
        },
        {
          "duration": 0.018229166666671404,
          "durationTicks": 14,
          "midi": 36,
          "name": "C2",
          "ticks": 88900,
          "time": 115.75520833333333,
          "velocity": 1
        },
        {
          "duration": 0.015625,
          "durationTicks": 12,
          "midi": 36,
          "name": "C2",
          "ticks": 89092,
          "time": 116.00520833333333,
          "velocity": 1
        },
        {
          "duration": 0.018229166666671404,
          "durationTicks": 14,
          "midi": 36,
          "name": "C2",
          "ticks": 89668,
          "time": 116.75520833333333,
          "velocity": 1
        },
        {
          "duration": 0.015625,
          "durationTicks": 12,
          "midi": 36,
          "name": "C2",
          "ticks": 89860,
          "time": 117.00520833333333,
          "velocity": 1
        },
        {
          "duration": 0.020833333333328596,
          "durationTicks": 16,
          "midi": 36,
          "name": "C2",
          "ticks": 90050,
          "time": 117.25260416666667,
          "velocity": 1
        },
        {
          "duration": 0.018229166666671404,
          "durationTicks": 14,
          "midi": 36,
          "name": "C2",
          "ticks": 90436,
          "time": 117.75520833333333,
          "velocity": 1
        },
        {
          "duration": 0.015625,
          "durationTicks": 12,
          "midi": 36,
          "name": "C2",
          "ticks": 90628,
          "time": 118.00520833333333,
          "velocity": 1
        },
        {
          "duration": 0.018229166666657193,
          "durationTicks": 14,
          "midi": 36,
          "name": "C2",
          "ticks": 91202,
          "time": 118.75260416666667,
          "velocity": 1
        },
        {
          "duration": 0.018229166666671404,
          "durationTicks": 14,
          "midi": 36,
          "name": "C2",
          "ticks": 91396,
          "time": 119.00520833333333,
          "velocity": 1
        },
        {
          "duration": 0.018229166666657193,
          "durationTicks": 14,
          "midi": 36,
          "name": "C2",
          "ticks": 91586,
          "time": 119.25260416666667,
          "velocity": 1
        },
        {
          "duration": 0.018229166666657193,
          "durationTicks": 14,
          "midi": 36,
          "name": "C2",
          "ticks": 91970,
          "time": 119.75260416666667,
          "velocity": 1
        },
        {
          "duration": 0.018229166666671404,
          "durationTicks": 14,
          "midi": 36,
          "name": "C2",
          "ticks": 92164,
          "time": 120.00520833333333,
          "velocity": 1
        },
        {
          "duration": 0.018229166666671404,
          "durationTicks": 14,
          "midi": 36,
          "name": "C2",
          "ticks": 92740,
          "time": 120.75520833333333,
          "velocity": 1
        },
        {
          "duration": 0.015625,
          "durationTicks": 12,
          "midi": 36,
          "name": "C2",
          "ticks": 92932,
          "time": 121.00520833333333,
          "velocity": 1
        },
        {
          "duration": 0.018229166666671404,
          "durationTicks": 14,
          "midi": 36,
          "name": "C2",
          "ticks": 93124,
          "time": 121.25520833333333,
          "velocity": 1
        },
        {
          "duration": 0.018229166666671404,
          "durationTicks": 14,
          "midi": 36,
          "name": "C2",
          "ticks": 93508,
          "time": 121.75520833333333,
          "velocity": 1
        },
        {
          "duration": 0.015625,
          "durationTicks": 12,
          "midi": 36,
          "name": "C2",
          "ticks": 93700,
          "time": 122.00520833333333,
          "velocity": 1
        },
        {
          "duration": 0.018229166666671404,
          "durationTicks": 14,
          "midi": 36,
          "name": "C2",
          "ticks": 94276,
          "time": 122.75520833333333,
          "velocity": 1
        },
        {
          "duration": 0.015625,
          "durationTicks": 12,
          "midi": 36,
          "name": "C2",
          "ticks": 94468,
          "time": 123.00520833333333,
          "velocity": 1
        },
        {
          "duration": 0.020833333333328596,
          "durationTicks": 16,
          "midi": 36,
          "name": "C2",
          "ticks": 94658,
          "time": 123.25260416666667,
          "velocity": 1
        },
        {
          "duration": 0.020833333333328596,
          "durationTicks": 16,
          "midi": 36,
          "name": "C2",
          "ticks": 95042,
          "time": 123.75260416666667,
          "velocity": 1
        },
        {
          "duration": 0.018229166666671404,
          "durationTicks": 14,
          "midi": 36,
          "name": "C2",
          "ticks": 95236,
          "time": 124.00520833333333,
          "velocity": 1
        },
        {
          "duration": 0.018229166666671404,
          "durationTicks": 14,
          "midi": 36,
          "name": "C2",
          "ticks": 96004,
          "time": 125.00520833333333,
          "velocity": 1
        },
        {
          "duration": 0.018229166666657193,
          "durationTicks": 14,
          "midi": 36,
          "name": "C2",
          "ticks": 96770,
          "time": 126.00260416666667,
          "velocity": 1
        },
        {
          "duration": 0.018229166666671404,
          "durationTicks": 14,
          "midi": 36,
          "name": "C2",
          "ticks": 97540,
          "time": 127.00520833333333,
          "velocity": 1
        },
        {
          "duration": 0.018229166666657193,
          "durationTicks": 14,
          "midi": 36,
          "name": "C2",
          "ticks": 98308,
          "time": 128.00520833333334,
          "velocity": 1
        },
        {
          "duration": 0.015625,
          "durationTicks": 12,
          "midi": 36,
          "name": "C2",
          "ticks": 99076,
          "time": 129.00520833333334,
          "velocity": 1
        },
        {
          "duration": 0.015625,
          "durationTicks": 12,
          "midi": 36,
          "name": "C2",
          "ticks": 99844,
          "time": 130.00520833333334,
          "velocity": 1
        },
        {
          "duration": 0.018229166666657193,
          "durationTicks": 14,
          "midi": 36,
          "name": "C2",
          "ticks": 100612,
          "time": 131.00520833333334,
          "velocity": 1
        },
        {
          "duration": 0.018229166666657193,
          "durationTicks": 14,
          "midi": 36,
          "name": "C2",
          "ticks": 101380,
          "time": 132.00520833333334,
          "velocity": 1
        },
        {
          "duration": 0.018229166666685614,
          "durationTicks": 14,
          "midi": 36,
          "name": "C2",
          "ticks": 102146,
          "time": 133.00260416666666,
          "velocity": 1
        },
        {
          "duration": 0.015625,
          "durationTicks": 12,
          "midi": 36,
          "name": "C2",
          "ticks": 102916,
          "time": 134.00520833333334,
          "velocity": 1
        },
        {
          "duration": 0.018229166666657193,
          "durationTicks": 14,
          "midi": 36,
          "name": "C2",
          "ticks": 103684,
          "time": 135.00520833333334,
          "velocity": 1
        },
        {
          "duration": 0.018229166666685614,
          "durationTicks": 14,
          "midi": 36,
          "name": "C2",
          "ticks": 104450,
          "time": 136.00260416666666,
          "velocity": 1
        },
        {
          "duration": 0.015625,
          "durationTicks": 12,
          "midi": 36,
          "name": "C2",
          "ticks": 105220,
          "time": 137.00520833333334,
          "velocity": 1
        },
        {
          "duration": 0.015625,
          "durationTicks": 12,
          "midi": 36,
          "name": "C2",
          "ticks": 105988,
          "time": 138.00520833333334,
          "velocity": 1
        },
        {
          "duration": 0.015625,
          "durationTicks": 12,
          "midi": 36,
          "name": "C2",
          "ticks": 106372,
          "time": 138.50520833333334,
          "velocity": 1
        },
        {
          "duration": 0.015625,
          "durationTicks": 12,
          "midi": 36,
          "name": "C2",
          "ticks": 106564,
          "time": 138.75520833333334,
          "velocity": 1
        },
        {
          "duration": 0.020833333333342807,
          "durationTicks": 16,
          "midi": 36,
          "name": "C2",
          "ticks": 106754,
          "time": 139.00260416666666,
          "velocity": 1
        },
        {
          "duration": 0.015625,
          "durationTicks": 12,
          "midi": 36,
          "name": "C2",
          "ticks": 106948,
          "time": 139.25520833333334,
          "velocity": 1
        },
        {
          "duration": 0.015625,
          "durationTicks": 12,
          "midi": 36,
          "name": "C2",
          "ticks": 107140,
          "time": 139.50520833333334,
          "velocity": 1
        },
        {
          "duration": 0.015625,
          "durationTicks": 12,
          "midi": 36,
          "name": "C2",
          "ticks": 107332,
          "time": 139.75520833333334,
          "velocity": 1
        },
        {
          "duration": 0.020833333333342807,
          "durationTicks": 16,
          "midi": 36,
          "name": "C2",
          "ticks": 107522,
          "time": 140.00260416666666,
          "velocity": 1
        },
        {
          "duration": 0.018229166666657193,
          "durationTicks": 14,
          "midi": 36,
          "name": "C2",
          "ticks": 108100,
          "time": 140.75520833333334,
          "velocity": 1
        },
        {
          "duration": 0.015625,
          "durationTicks": 12,
          "midi": 36,
          "name": "C2",
          "ticks": 108292,
          "time": 141.00520833333334,
          "velocity": 1
        },
        {
          "duration": 0.020833333333342807,
          "durationTicks": 16,
          "midi": 36,
          "name": "C2",
          "ticks": 108482,
          "time": 141.25260416666666,
          "velocity": 1
        },
        {
          "duration": 0.018229166666657193,
          "durationTicks": 14,
          "midi": 36,
          "name": "C2",
          "ticks": 108868,
          "time": 141.75520833333334,
          "velocity": 1
        },
        {
          "duration": 0.015625,
          "durationTicks": 12,
          "midi": 36,
          "name": "C2",
          "ticks": 109060,
          "time": 142.00520833333334,
          "velocity": 1
        },
        {
          "duration": 0.018229166666657193,
          "durationTicks": 14,
          "midi": 36,
          "name": "C2",
          "ticks": 109636,
          "time": 142.75520833333334,
          "velocity": 1
        },
        {
          "duration": 0.018229166666657193,
          "durationTicks": 14,
          "midi": 36,
          "name": "C2",
          "ticks": 109828,
          "time": 143.00520833333334,
          "velocity": 1
        },
        {
          "duration": 0.018229166666685614,
          "durationTicks": 14,
          "midi": 36,
          "name": "C2",
          "ticks": 110018,
          "time": 143.25260416666666,
          "velocity": 1
        },
        {
          "duration": 0.018229166666685614,
          "durationTicks": 14,
          "midi": 36,
          "name": "C2",
          "ticks": 110402,
          "time": 143.75260416666666,
          "velocity": 1
        },
        {
          "duration": 0.018229166666657193,
          "durationTicks": 14,
          "midi": 36,
          "name": "C2",
          "ticks": 110596,
          "time": 144.00520833333334,
          "velocity": 1
        },
        {
          "duration": 0.018229166666657193,
          "durationTicks": 14,
          "midi": 36,
          "name": "C2",
          "ticks": 111172,
          "time": 144.75520833333334,
          "velocity": 1
        },
        {
          "duration": 0.015625,
          "durationTicks": 12,
          "midi": 36,
          "name": "C2",
          "ticks": 111364,
          "time": 145.00520833333334,
          "velocity": 1
        },
        {
          "duration": 0.018229166666685614,
          "durationTicks": 14,
          "midi": 36,
          "name": "C2",
          "ticks": 111554,
          "time": 145.25260416666666,
          "velocity": 1
        },
        {
          "duration": 0.018229166666685614,
          "durationTicks": 14,
          "midi": 36,
          "name": "C2",
          "ticks": 111938,
          "time": 145.75260416666666,
          "velocity": 1
        },
        {
          "duration": 0.018229166666657193,
          "durationTicks": 14,
          "midi": 36,
          "name": "C2",
          "ticks": 112132,
          "time": 146.00520833333334,
          "velocity": 1
        },
        {
          "duration": 0.018229166666685614,
          "durationTicks": 14,
          "midi": 36,
          "name": "C2",
          "ticks": 112706,
          "time": 146.75260416666666,
          "velocity": 1
        },
        {
          "duration": 0.018229166666657193,
          "durationTicks": 14,
          "midi": 36,
          "name": "C2",
          "ticks": 112900,
          "time": 147.00520833333334,
          "velocity": 1
        },
        {
          "duration": 0.015625,
          "durationTicks": 12,
          "midi": 36,
          "name": "C2",
          "ticks": 113092,
          "time": 147.25520833333334,
          "velocity": 1
        },
        {
          "duration": 0.015625,
          "durationTicks": 12,
          "midi": 36,
          "name": "C2",
          "ticks": 113476,
          "time": 147.75520833333334,
          "velocity": 1
        },
        {
          "duration": 0.020833333333342807,
          "durationTicks": 16,
          "midi": 36,
          "name": "C2",
          "ticks": 113666,
          "time": 148.00260416666666,
          "velocity": 1
        },
        {
          "duration": 0.018229166666657193,
          "durationTicks": 14,
          "midi": 36,
          "name": "C2",
          "ticks": 114244,
          "time": 148.75520833333334,
          "velocity": 1
        },
        {
          "duration": 0.015625,
          "durationTicks": 12,
          "midi": 36,
          "name": "C2",
          "ticks": 114436,
          "time": 149.00520833333334,
          "velocity": 1
        },
        {
          "duration": 0.018229166666657193,
          "durationTicks": 14,
          "midi": 36,
          "name": "C2",
          "ticks": 114628,
          "time": 149.25520833333334,
          "velocity": 1
        },
        {
          "duration": 0.018229166666657193,
          "durationTicks": 14,
          "midi": 36,
          "name": "C2",
          "ticks": 115012,
          "time": 149.75520833333334,
          "velocity": 1
        },
        {
          "duration": 0.018229166666657193,
          "durationTicks": 14,
          "midi": 36,
          "name": "C2",
          "ticks": 115204,
          "time": 150.00520833333334,
          "velocity": 1
        },
        {
          "duration": 0.018229166666685614,
          "durationTicks": 14,
          "midi": 36,
          "name": "C2",
          "ticks": 115778,
          "time": 150.75260416666666,
          "velocity": 1
        },
        {
          "duration": 0.018229166666657193,
          "durationTicks": 14,
          "midi": 36,
          "name": "C2",
          "ticks": 115972,
          "time": 151.00520833333334,
          "velocity": 1
        },
        {
          "duration": 0.015625,
          "durationTicks": 12,
          "midi": 36,
          "name": "C2",
          "ticks": 116164,
          "time": 151.25520833333334,
          "velocity": 1
        },
        {
          "duration": 0.018229166666657193,
          "durationTicks": 14,
          "midi": 36,
          "name": "C2",
          "ticks": 116548,
          "time": 151.75520833333334,
          "velocity": 1
        },
        {
          "duration": 0.018229166666657193,
          "durationTicks": 14,
          "midi": 36,
          "name": "C2",
          "ticks": 116740,
          "time": 152.00520833333334,
          "velocity": 1
        },
        {
          "duration": 0.018229166666685614,
          "durationTicks": 14,
          "midi": 36,
          "name": "C2",
          "ticks": 117314,
          "time": 152.75260416666666,
          "velocity": 1
        },
        {
          "duration": 0.018229166666657193,
          "durationTicks": 14,
          "midi": 36,
          "name": "C2",
          "ticks": 117508,
          "time": 153.00520833333334,
          "velocity": 1
        },
        {
          "duration": 0.015625,
          "durationTicks": 12,
          "midi": 36,
          "name": "C2",
          "ticks": 117700,
          "time": 153.25520833333334,
          "velocity": 1
        },
        {
          "duration": 0.018229166666657193,
          "durationTicks": 14,
          "midi": 36,
          "name": "C2",
          "ticks": 118084,
          "time": 153.75520833333334,
          "velocity": 1
        },
        {
          "duration": 0.020833333333342807,
          "durationTicks": 16,
          "midi": 36,
          "name": "C2",
          "ticks": 118274,
          "time": 154.00260416666666,
          "velocity": 1
        },
        {
          "duration": 0.018229166666657193,
          "durationTicks": 14,
          "midi": 36,
          "name": "C2",
          "ticks": 118852,
          "time": 154.75520833333334,
          "velocity": 1
        },
        {
          "duration": 0.020833333333342807,
          "durationTicks": 16,
          "midi": 36,
          "name": "C2",
          "ticks": 119042,
          "time": 155.00260416666666,
          "velocity": 1
        },
        {
          "duration": 0.015625,
          "durationTicks": 12,
          "midi": 36,
          "name": "C2",
          "ticks": 119236,
          "time": 155.25520833333334,
          "velocity": 1
        },
        {
          "duration": 0.015625,
          "durationTicks": 12,
          "midi": 36,
          "name": "C2",
          "ticks": 119620,
          "time": 155.75520833333334,
          "velocity": 1
        },
        {
          "duration": 0.015625,
          "durationTicks": 12,
          "midi": 36,
          "name": "C2",
          "ticks": 119812,
          "time": 156.00520833333334,
          "velocity": 1
        },
        {
          "duration": 0.018229166666685614,
          "durationTicks": 14,
          "midi": 36,
          "name": "C2",
          "ticks": 120386,
          "time": 156.75260416666666,
          "velocity": 1
        },
        {
          "duration": 0.018229166666657193,
          "durationTicks": 14,
          "midi": 36,
          "name": "C2",
          "ticks": 120580,
          "time": 157.00520833333334,
          "velocity": 1
        },
        {
          "duration": 0.018229166666657193,
          "durationTicks": 14,
          "midi": 36,
          "name": "C2",
          "ticks": 120772,
          "time": 157.25520833333334,
          "velocity": 1
        },
        {
          "duration": 0.015625,
          "durationTicks": 12,
          "midi": 36,
          "name": "C2",
          "ticks": 121156,
          "time": 157.75520833333334,
          "velocity": 1
        },
        {
          "duration": 0.018229166666657193,
          "durationTicks": 14,
          "midi": 36,
          "name": "C2",
          "ticks": 121348,
          "time": 158.00520833333334,
          "velocity": 1
        },
        {
          "duration": 0.018229166666657193,
          "durationTicks": 14,
          "midi": 36,
          "name": "C2",
          "ticks": 121924,
          "time": 158.75520833333334,
          "velocity": 1
        },
        {
          "duration": 0.018229166666657193,
          "durationTicks": 14,
          "midi": 36,
          "name": "C2",
          "ticks": 122116,
          "time": 159.00520833333334,
          "velocity": 1
        },
        {
          "duration": 0.018229166666657193,
          "durationTicks": 14,
          "midi": 36,
          "name": "C2",
          "ticks": 122308,
          "time": 159.25520833333334,
          "velocity": 1
        },
        {
          "duration": 0.015625,
          "durationTicks": 12,
          "midi": 36,
          "name": "C2",
          "ticks": 122692,
          "time": 159.75520833333334,
          "velocity": 1
        },
        {
          "duration": 0.018229166666657193,
          "durationTicks": 14,
          "midi": 36,
          "name": "C2",
          "ticks": 122884,
          "time": 160.00520833333334,
          "velocity": 1
        },
        {
          "duration": 0.015625,
          "durationTicks": 12,
          "midi": 36,
          "name": "C2",
          "ticks": 123460,
          "time": 160.75520833333334,
          "velocity": 1
        },
        {
          "duration": 0.018229166666657193,
          "durationTicks": 14,
          "midi": 36,
          "name": "C2",
          "ticks": 123652,
          "time": 161.00520833333334,
          "velocity": 1
        },
        {
          "duration": 0.018229166666657193,
          "durationTicks": 14,
          "midi": 36,
          "name": "C2",
          "ticks": 123844,
          "time": 161.25520833333334,
          "velocity": 1
        },
        {
          "duration": 0.015625,
          "durationTicks": 12,
          "midi": 36,
          "name": "C2",
          "ticks": 124228,
          "time": 161.75520833333334,
          "velocity": 1
        },
        {
          "duration": 0.018229166666657193,
          "durationTicks": 14,
          "midi": 36,
          "name": "C2",
          "ticks": 124420,
          "time": 162.00520833333334,
          "velocity": 1
        },
        {
          "duration": 0.018229166666657193,
          "durationTicks": 14,
          "midi": 36,
          "name": "C2",
          "ticks": 124996,
          "time": 162.75520833333334,
          "velocity": 1
        },
        {
          "duration": 0.018229166666657193,
          "durationTicks": 14,
          "midi": 36,
          "name": "C2",
          "ticks": 125188,
          "time": 163.00520833333334,
          "velocity": 1
        },
        {
          "duration": 0.018229166666657193,
          "durationTicks": 14,
          "midi": 36,
          "name": "C2",
          "ticks": 125380,
          "time": 163.25520833333334,
          "velocity": 1
        },
        {
          "duration": 0.018229166666657193,
          "durationTicks": 14,
          "midi": 36,
          "name": "C2",
          "ticks": 125764,
          "time": 163.75520833333334,
          "velocity": 1
        },
        {
          "duration": 0.015625,
          "durationTicks": 12,
          "midi": 36,
          "name": "C2",
          "ticks": 125956,
          "time": 164.00520833333334,
          "velocity": 1
        },
        {
          "duration": 0.015625,
          "durationTicks": 12,
          "midi": 36,
          "name": "C2",
          "ticks": 126532,
          "time": 164.75520833333334,
          "velocity": 1
        },
        {
          "duration": 0.018229166666657193,
          "durationTicks": 14,
          "midi": 36,
          "name": "C2",
          "ticks": 126724,
          "time": 165.00520833333334,
          "velocity": 1
        },
        {
          "duration": 0.018229166666657193,
          "durationTicks": 14,
          "midi": 36,
          "name": "C2",
          "ticks": 126916,
          "time": 165.25520833333334,
          "velocity": 1
        },
        {
          "duration": 0.018229166666657193,
          "durationTicks": 14,
          "midi": 36,
          "name": "C2",
          "ticks": 127300,
          "time": 165.75520833333334,
          "velocity": 1
        },
        {
          "duration": 0.018229166666657193,
          "durationTicks": 14,
          "midi": 36,
          "name": "C2",
          "ticks": 127492,
          "time": 166.00520833333334,
          "velocity": 1
        },
        {
          "duration": 0.018229166666657193,
          "durationTicks": 14,
          "midi": 36,
          "name": "C2",
          "ticks": 128068,
          "time": 166.75520833333334,
          "velocity": 1
        },
        {
          "duration": 0.018229166666657193,
          "durationTicks": 14,
          "midi": 36,
          "name": "C2",
          "ticks": 128260,
          "time": 167.00520833333334,
          "velocity": 1
        },
        {
          "duration": 0.018229166666657193,
          "durationTicks": 14,
          "midi": 36,
          "name": "C2",
          "ticks": 128452,
          "time": 167.25520833333334,
          "velocity": 1
        },
        {
          "duration": 0.018229166666657193,
          "durationTicks": 14,
          "midi": 36,
          "name": "C2",
          "ticks": 128836,
          "time": 167.75520833333334,
          "velocity": 1
        },
        {
          "duration": 0.018229166666657193,
          "durationTicks": 14,
          "midi": 36,
          "name": "C2",
          "ticks": 129028,
          "time": 168.00520833333334,
          "velocity": 1
        },
        {
          "duration": 0.018229166666685614,
          "durationTicks": 14,
          "midi": 36,
          "name": "C2",
          "ticks": 129602,
          "time": 168.75260416666666,
          "velocity": 1
        },
        {
          "duration": 0.018229166666657193,
          "durationTicks": 14,
          "midi": 36,
          "name": "C2",
          "ticks": 129796,
          "time": 169.00520833333334,
          "velocity": 1
        },
        {
          "duration": 0.018229166666657193,
          "durationTicks": 14,
          "midi": 36,
          "name": "C2",
          "ticks": 129988,
          "time": 169.25520833333334,
          "velocity": 1
        },
        {
          "duration": 0.015625,
          "durationTicks": 12,
          "midi": 36,
          "name": "C2",
          "ticks": 130372,
          "time": 169.75520833333334,
          "velocity": 1
        },
        {
          "duration": 0.018229166666657193,
          "durationTicks": 14,
          "midi": 36,
          "name": "C2",
          "ticks": 130564,
          "time": 170.00520833333334,
          "velocity": 1
        },
        {
          "duration": 0.015625,
          "durationTicks": 12,
          "midi": 36,
          "name": "C2",
          "ticks": 131140,
          "time": 170.75520833333334,
          "velocity": 1
        },
        {
          "duration": 0.018229166666657193,
          "durationTicks": 14,
          "midi": 36,
          "name": "C2",
          "ticks": 131332,
          "time": 171.00520833333334,
          "velocity": 1
        },
        {
          "duration": 0.018229166666657193,
          "durationTicks": 14,
          "midi": 36,
          "name": "C2",
          "ticks": 131524,
          "time": 171.25520833333334,
          "velocity": 1
        },
        {
          "duration": 0.015625,
          "durationTicks": 12,
          "midi": 36,
          "name": "C2",
          "ticks": 131908,
          "time": 171.75520833333334,
          "velocity": 1
        },
        {
          "duration": 0.018229166666657193,
          "durationTicks": 14,
          "midi": 36,
          "name": "C2",
          "ticks": 132100,
          "time": 172.00520833333334,
          "velocity": 1
        }
      ]
    },
    {
      "channel": 9,
      "controlChanges": {},
      "pitchBends": [],
      "instrument": {
        "family": "drums",
        "number": 0,
        "name": "standard kit"
      },
      "name": "SNARE DRUM",
      "notes": [
        {
          "duration": 0.018229166666666075,
          "durationTicks": 14,
          "midi": 38,
          "name": "D2",
          "ticks": 3458,
          "time": 4.502604166666667,
          "velocity": 1
        },
        {
          "duration": 0.018229166666666075,
          "durationTicks": 14,
          "midi": 38,
          "name": "D2",
          "ticks": 4226,
          "time": 5.502604166666667,
          "velocity": 1
        },
        {
          "duration": 0.018229166666666963,
          "durationTicks": 14,
          "midi": 38,
          "name": "D2",
          "ticks": 4996,
          "time": 6.505208333333333,
          "velocity": 1
        },
        {
          "duration": 0.015625,
          "durationTicks": 12,
          "midi": 38,
          "name": "D2",
          "ticks": 5764,
          "time": 7.505208333333333,
          "velocity": 1
        },
        {
          "duration": 0.01822916666666785,
          "durationTicks": 14,
          "midi": 38,
          "name": "D2",
          "ticks": 6530,
          "time": 8.502604166666666,
          "velocity": 1
        },
        {
          "duration": 0.018229166666666075,
          "durationTicks": 14,
          "midi": 38,
          "name": "D2",
          "ticks": 7300,
          "time": 9.505208333333334,
          "velocity": 1
        },
        {
          "duration": 0.015625,
          "durationTicks": 12,
          "midi": 38,
          "name": "D2",
          "ticks": 8068,
          "time": 10.505208333333334,
          "velocity": 1
        },
        {
          "duration": 0.01822916666666785,
          "durationTicks": 14,
          "midi": 38,
          "name": "D2",
          "ticks": 8834,
          "time": 11.502604166666666,
          "velocity": 1
        },
        {
          "duration": 0.018229166666666075,
          "durationTicks": 14,
          "midi": 38,
          "name": "D2",
          "ticks": 9604,
          "time": 12.505208333333334,
          "velocity": 1
        },
        {
          "duration": 0.015625,
          "durationTicks": 12,
          "midi": 38,
          "name": "D2",
          "ticks": 10372,
          "time": 13.505208333333334,
          "velocity": 1
        },
        {
          "duration": 0.01822916666666785,
          "durationTicks": 14,
          "midi": 38,
          "name": "D2",
          "ticks": 11138,
          "time": 14.502604166666666,
          "velocity": 1
        },
        {
          "duration": 0.018229166666666075,
          "durationTicks": 14,
          "midi": 38,
          "name": "D2",
          "ticks": 11908,
          "time": 15.505208333333334,
          "velocity": 1
        },
        {
          "duration": 0.015625,
          "durationTicks": 12,
          "midi": 38,
          "name": "D2",
          "ticks": 12676,
          "time": 16.505208333333332,
          "velocity": 1
        },
        {
          "duration": 0.02083333333333215,
          "durationTicks": 16,
          "midi": 38,
          "name": "D2",
          "ticks": 13442,
          "time": 17.502604166666668,
          "velocity": 1
        },
        {
          "duration": 0.015625,
          "durationTicks": 12,
          "midi": 38,
          "name": "D2",
          "ticks": 14212,
          "time": 18.505208333333332,
          "velocity": 1
        },
        {
          "duration": 0.018229166666664298,
          "durationTicks": 14,
          "midi": 38,
          "name": "D2",
          "ticks": 14978,
          "time": 19.502604166666668,
          "velocity": 1
        },
        {
          "duration": 0.01822916666666785,
          "durationTicks": 14,
          "midi": 38,
          "name": "D2",
          "ticks": 15748,
          "time": 20.505208333333332,
          "velocity": 1
        },
        {
          "duration": 0.018229166666664298,
          "durationTicks": 14,
          "midi": 38,
          "name": "D2",
          "ticks": 16514,
          "time": 21.502604166666668,
          "velocity": 1
        },
        {
          "duration": 0.01822916666666785,
          "durationTicks": 14,
          "midi": 38,
          "name": "D2",
          "ticks": 17284,
          "time": 22.505208333333332,
          "velocity": 1
        },
        {
          "duration": 0.015625,
          "durationTicks": 12,
          "midi": 38,
          "name": "D2",
          "ticks": 18052,
          "time": 23.505208333333332,
          "velocity": 1
        },
        {
          "duration": 0.018229166666664298,
          "durationTicks": 14,
          "midi": 38,
          "name": "D2",
          "ticks": 18818,
          "time": 24.502604166666668,
          "velocity": 1
        },
        {
          "duration": 0.02083333333333215,
          "durationTicks": 16,
          "midi": 38,
          "name": "D2",
          "ticks": 19586,
          "time": 25.502604166666668,
          "velocity": 1
        },
        {
          "duration": 0.015625,
          "durationTicks": 12,
          "midi": 38,
          "name": "D2",
          "ticks": 20356,
          "time": 26.505208333333332,
          "velocity": 1
        },
        {
          "duration": 0.01822916666666785,
          "durationTicks": 14,
          "midi": 38,
          "name": "D2",
          "ticks": 20932,
          "time": 27.255208333333332,
          "velocity": 0.33858267716535434
        },
        {
          "duration": 0.018229166666664298,
          "durationTicks": 14,
          "midi": 38,
          "name": "D2",
          "ticks": 21026,
          "time": 27.377604166666668,
          "velocity": 0.33858267716535434
        },
        {
          "duration": 0.01822916666666785,
          "durationTicks": 14,
          "midi": 38,
          "name": "D2",
          "ticks": 21124,
          "time": 27.505208333333332,
          "velocity": 0.33858267716535434
        },
        {
          "duration": 0.01822916666666785,
          "durationTicks": 14,
          "midi": 38,
          "name": "D2",
          "ticks": 21220,
          "time": 27.630208333333332,
          "velocity": 0.33858267716535434
        },
        {
          "duration": 0.015625,
          "durationTicks": 12,
          "midi": 38,
          "name": "D2",
          "ticks": 21316,
          "time": 27.755208333333332,
          "velocity": 1
        },
        {
          "duration": 0.015625,
          "durationTicks": 12,
          "midi": 38,
          "name": "D2",
          "ticks": 21412,
          "time": 27.880208333333332,
          "velocity": 1
        },
        {
          "duration": 0.015625,
          "durationTicks": 12,
          "midi": 38,
          "name": "D2",
          "ticks": 21892,
          "time": 28.505208333333332,
          "velocity": 1
        },
        {
          "duration": 0.018229166666664298,
          "durationTicks": 14,
          "midi": 38,
          "name": "D2",
          "ticks": 22658,
          "time": 29.502604166666668,
          "velocity": 1
        },
        {
          "duration": 0.018229166666664298,
          "durationTicks": 14,
          "midi": 38,
          "name": "D2",
          "ticks": 23426,
          "time": 30.502604166666668,
          "velocity": 1
        },
        {
          "duration": 0.01822916666666785,
          "durationTicks": 14,
          "midi": 38,
          "name": "D2",
          "ticks": 24196,
          "time": 31.505208333333332,
          "velocity": 1
        },
        {
          "duration": 0.018229166666664298,
          "durationTicks": 14,
          "midi": 38,
          "name": "D2",
          "ticks": 24964,
          "time": 32.505208333333336,
          "velocity": 1
        },
        {
          "duration": 0.015625,
          "durationTicks": 12,
          "midi": 38,
          "name": "D2",
          "ticks": 25732,
          "time": 33.505208333333336,
          "velocity": 1
        },
        {
          "duration": 0.015625,
          "durationTicks": 12,
          "midi": 38,
          "name": "D2",
          "ticks": 26500,
          "time": 34.505208333333336,
          "velocity": 1
        },
        {
          "duration": 0.015625,
          "durationTicks": 12,
          "midi": 38,
          "name": "D2",
          "ticks": 27268,
          "time": 35.505208333333336,
          "velocity": 1
        },
        {
          "duration": 0.020833333333335702,
          "durationTicks": 16,
          "midi": 38,
          "name": "D2",
          "ticks": 28034,
          "time": 36.502604166666664,
          "velocity": 1
        },
        {
          "duration": 0.018229166666664298,
          "durationTicks": 14,
          "midi": 38,
          "name": "D2",
          "ticks": 28804,
          "time": 37.505208333333336,
          "velocity": 1
        },
        {
          "duration": 0.018229166666664298,
          "durationTicks": 14,
          "midi": 38,
          "name": "D2",
          "ticks": 29572,
          "time": 38.505208333333336,
          "velocity": 1
        },
        {
          "duration": 0.018229166666671404,
          "durationTicks": 14,
          "midi": 38,
          "name": "D2",
          "ticks": 30338,
          "time": 39.502604166666664,
          "velocity": 1
        },
        {
          "duration": 0.018229166666671404,
          "durationTicks": 14,
          "midi": 38,
          "name": "D2",
          "ticks": 31106,
          "time": 40.502604166666664,
          "velocity": 1
        },
        {
          "duration": 0.020833333333335702,
          "durationTicks": 16,
          "midi": 38,
          "name": "D2",
          "ticks": 31874,
          "time": 41.502604166666664,
          "velocity": 1
        },
        {
          "duration": 0.020833333333335702,
          "durationTicks": 16,
          "midi": 38,
          "name": "D2",
          "ticks": 32642,
          "time": 42.502604166666664,
          "velocity": 1
        },
        {
          "duration": 0.018229166666664298,
          "durationTicks": 14,
          "midi": 38,
          "name": "D2",
          "ticks": 33412,
          "time": 43.505208333333336,
          "velocity": 1
        },
        {
          "duration": 0.018229166666664298,
          "durationTicks": 14,
          "midi": 38,
          "name": "D2",
          "ticks": 34180,
          "time": 44.505208333333336,
          "velocity": 1
        },
        {
          "duration": 0.020833333333335702,
          "durationTicks": 16,
          "midi": 38,
          "name": "D2",
          "ticks": 34946,
          "time": 45.502604166666664,
          "velocity": 1
        },
        {
          "duration": 0.020833333333335702,
          "durationTicks": 16,
          "midi": 38,
          "name": "D2",
          "ticks": 35714,
          "time": 46.502604166666664,
          "velocity": 1
        },
        {
          "duration": 0.020833333333335702,
          "durationTicks": 16,
          "midi": 38,
          "name": "D2",
          "ticks": 36482,
          "time": 47.502604166666664,
          "velocity": 1
        },
        {
          "duration": 0.020833333333335702,
          "durationTicks": 16,
          "midi": 38,
          "name": "D2",
          "ticks": 37250,
          "time": 48.502604166666664,
          "velocity": 1
        },
        {
          "duration": 0.020833333333335702,
          "durationTicks": 16,
          "midi": 38,
          "name": "D2",
          "ticks": 38018,
          "time": 49.502604166666664,
          "velocity": 1
        },
        {
          "duration": 0.018229166666671404,
          "durationTicks": 14,
          "midi": 38,
          "name": "D2",
          "ticks": 38786,
          "time": 50.502604166666664,
          "velocity": 1
        },
        {
          "duration": 0.020833333333335702,
          "durationTicks": 16,
          "midi": 38,
          "name": "D2",
          "ticks": 39554,
          "time": 51.502604166666664,
          "velocity": 1
        },
        {
          "duration": 0.020833333333335702,
          "durationTicks": 16,
          "midi": 38,
          "name": "D2",
          "ticks": 40322,
          "time": 52.502604166666664,
          "velocity": 1
        },
        {
          "duration": 0.018229166666671404,
          "durationTicks": 14,
          "midi": 38,
          "name": "D2",
          "ticks": 41090,
          "time": 53.502604166666664,
          "velocity": 1
        },
        {
          "duration": 0.020833333333335702,
          "durationTicks": 16,
          "midi": 38,
          "name": "D2",
          "ticks": 41858,
          "time": 54.502604166666664,
          "velocity": 1
        },
        {
          "duration": 0.020833333333335702,
          "durationTicks": 16,
          "midi": 38,
          "name": "D2",
          "ticks": 42626,
          "time": 55.502604166666664,
          "velocity": 1
        },
        {
          "duration": 0.020833333333335702,
          "durationTicks": 16,
          "midi": 38,
          "name": "D2",
          "ticks": 43394,
          "time": 56.502604166666664,
          "velocity": 1
        },
        {
          "duration": 0.020833333333335702,
          "durationTicks": 16,
          "midi": 38,
          "name": "D2",
          "ticks": 44162,
          "time": 57.502604166666664,
          "velocity": 1
        },
        {
          "duration": 0.020833333333335702,
          "durationTicks": 16,
          "midi": 38,
          "name": "D2",
          "ticks": 44930,
          "time": 58.502604166666664,
          "velocity": 1
        },
        {
          "duration": 0.018229166666664298,
          "durationTicks": 14,
          "midi": 38,
          "name": "D2",
          "ticks": 45124,
          "time": 58.755208333333336,
          "velocity": 0.33858267716535434
        },
        {
          "duration": 0.018229166666664298,
          "durationTicks": 14,
          "midi": 38,
          "name": "D2",
          "ticks": 45316,
          "time": 59.005208333333336,
          "velocity": 0.33858267716535434
        },
        {
          "duration": 0.018229166666664298,
          "durationTicks": 14,
          "midi": 38,
          "name": "D2",
          "ticks": 45508,
          "time": 59.255208333333336,
          "velocity": 1
        },
        {
          "duration": 0.018229166666664298,
          "durationTicks": 14,
          "midi": 38,
          "name": "D2",
          "ticks": 45700,
          "time": 59.505208333333336,
          "velocity": 0.33858267716535434
        },
        {
          "duration": 0.015625,
          "durationTicks": 12,
          "midi": 38,
          "name": "D2",
          "ticks": 45796,
          "time": 59.630208333333336,
          "velocity": 0.33858267716535434
        },
        {
          "duration": 0.020833333333335702,
          "durationTicks": 16,
          "midi": 38,
          "name": "D2",
          "ticks": 45890,
          "time": 59.752604166666664,
          "velocity": 1
        },
        {
          "duration": 0.015625,
          "durationTicks": 12,
          "midi": 38,
          "name": "D2",
          "ticks": 45988,
          "time": 59.880208333333336,
          "velocity": 1
        },
        {
          "duration": 0.020833333333335702,
          "durationTicks": 16,
          "midi": 38,
          "name": "D2",
          "ticks": 46466,
          "time": 60.502604166666664,
          "velocity": 1
        },
        {
          "duration": 0.018229166666664298,
          "durationTicks": 14,
          "midi": 38,
          "name": "D2",
          "ticks": 47236,
          "time": 61.505208333333336,
          "velocity": 1
        },
        {
          "duration": 0.015625,
          "durationTicks": 12,
          "midi": 38,
          "name": "D2",
          "ticks": 48004,
          "time": 62.505208333333336,
          "velocity": 1
        },
        {
          "duration": 0.018229166666664298,
          "durationTicks": 14,
          "midi": 38,
          "name": "D2",
          "ticks": 48772,
          "time": 63.505208333333336,
          "velocity": 1
        },
        {
          "duration": 0.020833333333328596,
          "durationTicks": 16,
          "midi": 38,
          "name": "D2",
          "ticks": 49538,
          "time": 64.50260416666667,
          "velocity": 1
        },
        {
          "duration": 0.015625,
          "durationTicks": 12,
          "midi": 38,
          "name": "D2",
          "ticks": 50308,
          "time": 65.50520833333333,
          "velocity": 1
        },
        {
          "duration": 0.018229166666671404,
          "durationTicks": 14,
          "midi": 38,
          "name": "D2",
          "ticks": 51076,
          "time": 66.50520833333333,
          "velocity": 1
        },
        {
          "duration": 0.015625,
          "durationTicks": 12,
          "midi": 38,
          "name": "D2",
          "ticks": 51844,
          "time": 67.50520833333333,
          "velocity": 1
        },
        {
          "duration": 0.020833333333328596,
          "durationTicks": 16,
          "midi": 38,
          "name": "D2",
          "ticks": 52610,
          "time": 68.50260416666667,
          "velocity": 1
        },
        {
          "duration": 0.018229166666671404,
          "durationTicks": 14,
          "midi": 38,
          "name": "D2",
          "ticks": 53380,
          "time": 69.50520833333333,
          "velocity": 1
        },
        {
          "duration": 0.020833333333328596,
          "durationTicks": 16,
          "midi": 38,
          "name": "D2",
          "ticks": 54146,
          "time": 70.50260416666667,
          "velocity": 1
        },
        {
          "duration": 0.018229166666671404,
          "durationTicks": 14,
          "midi": 38,
          "name": "D2",
          "ticks": 54916,
          "time": 71.50520833333333,
          "velocity": 1
        },
        {
          "duration": 0.020833333333328596,
          "durationTicks": 16,
          "midi": 38,
          "name": "D2",
          "ticks": 55682,
          "time": 72.50260416666667,
          "velocity": 1
        },
        {
          "duration": 0.018229166666671404,
          "durationTicks": 14,
          "midi": 38,
          "name": "D2",
          "ticks": 56452,
          "time": 73.50520833333333,
          "velocity": 1
        },
        {
          "duration": 0.020833333333328596,
          "durationTicks": 16,
          "midi": 38,
          "name": "D2",
          "ticks": 57218,
          "time": 74.50260416666667,
          "velocity": 1
        },
        {
          "duration": 0.018229166666671404,
          "durationTicks": 14,
          "midi": 38,
          "name": "D2",
          "ticks": 57796,
          "time": 75.25520833333333,
          "velocity": 0.33858267716535434
        },
        {
          "duration": 0.018229166666671404,
          "durationTicks": 14,
          "midi": 38,
          "name": "D2",
          "ticks": 57892,
          "time": 75.38020833333333,
          "velocity": 0.33858267716535434
        },
        {
          "duration": 0.015625,
          "durationTicks": 12,
          "midi": 38,
          "name": "D2",
          "ticks": 57988,
          "time": 75.50520833333333,
          "velocity": 0.33858267716535434
        },
        {
          "duration": 0.015625,
          "durationTicks": 12,
          "midi": 38,
          "name": "D2",
          "ticks": 58084,
          "time": 75.63020833333333,
          "velocity": 0.33858267716535434
        },
        {
          "duration": 0.015625,
          "durationTicks": 12,
          "midi": 38,
          "name": "D2",
          "ticks": 58180,
          "time": 75.75520833333333,
          "velocity": 1
        },
        {
          "duration": 0.015625,
          "durationTicks": 12,
          "midi": 38,
          "name": "D2",
          "ticks": 58276,
          "time": 75.88020833333333,
          "velocity": 1
        },
        {
          "duration": 0.018229166666671404,
          "durationTicks": 14,
          "midi": 38,
          "name": "D2",
          "ticks": 58756,
          "time": 76.50520833333333,
          "velocity": 1
        },
        {
          "duration": 0.018229166666671404,
          "durationTicks": 14,
          "midi": 38,
          "name": "D2",
          "ticks": 59524,
          "time": 77.50520833333333,
          "velocity": 1
        },
        {
          "duration": 0.020833333333328596,
          "durationTicks": 16,
          "midi": 38,
          "name": "D2",
          "ticks": 60290,
          "time": 78.50260416666667,
          "velocity": 1
        },
        {
          "duration": 0.020833333333328596,
          "durationTicks": 16,
          "midi": 38,
          "name": "D2",
          "ticks": 61058,
          "time": 79.50260416666667,
          "velocity": 1
        },
        {
          "duration": 0.020833333333328596,
          "durationTicks": 16,
          "midi": 38,
          "name": "D2",
          "ticks": 61826,
          "time": 80.50260416666667,
          "velocity": 1
        },
        {
          "duration": 0.020833333333328596,
          "durationTicks": 16,
          "midi": 38,
          "name": "D2",
          "ticks": 62594,
          "time": 81.50260416666667,
          "velocity": 1
        },
        {
          "duration": 0.020833333333328596,
          "durationTicks": 16,
          "midi": 38,
          "name": "D2",
          "ticks": 63362,
          "time": 82.50260416666667,
          "velocity": 1
        },
        {
          "duration": 0.020833333333328596,
          "durationTicks": 16,
          "midi": 38,
          "name": "D2",
          "ticks": 64130,
          "time": 83.50260416666667,
          "velocity": 1
        },
        {
          "duration": 0.018229166666657193,
          "durationTicks": 14,
          "midi": 38,
          "name": "D2",
          "ticks": 64898,
          "time": 84.50260416666667,
          "velocity": 1
        },
        {
          "duration": 0.020833333333328596,
          "durationTicks": 16,
          "midi": 38,
          "name": "D2",
          "ticks": 65666,
          "time": 85.50260416666667,
          "velocity": 1
        },
        {
          "duration": 0.020833333333328596,
          "durationTicks": 16,
          "midi": 38,
          "name": "D2",
          "ticks": 66434,
          "time": 86.50260416666667,
          "velocity": 1
        },
        {
          "duration": 0.020833333333328596,
          "durationTicks": 16,
          "midi": 38,
          "name": "D2",
          "ticks": 67202,
          "time": 87.50260416666667,
          "velocity": 1
        },
        {
          "duration": 0.018229166666657193,
          "durationTicks": 14,
          "midi": 38,
          "name": "D2",
          "ticks": 67970,
          "time": 88.50260416666667,
          "velocity": 1
        },
        {
          "duration": 0.020833333333328596,
          "durationTicks": 16,
          "midi": 38,
          "name": "D2",
          "ticks": 68738,
          "time": 89.50260416666667,
          "velocity": 1
        },
        {
          "duration": 0.020833333333328596,
          "durationTicks": 16,
          "midi": 38,
          "name": "D2",
          "ticks": 69506,
          "time": 90.50260416666667,
          "velocity": 1
        },
        {
          "duration": 0.020833333333328596,
          "durationTicks": 16,
          "midi": 38,
          "name": "D2",
          "ticks": 70274,
          "time": 91.50260416666667,
          "velocity": 1
        },
        {
          "duration": 0.020833333333328596,
          "durationTicks": 16,
          "midi": 38,
          "name": "D2",
          "ticks": 71042,
          "time": 92.50260416666667,
          "velocity": 1
        },
        {
          "duration": 0.020833333333328596,
          "durationTicks": 16,
          "midi": 38,
          "name": "D2",
          "ticks": 71810,
          "time": 93.50260416666667,
          "velocity": 1
        },
        {
          "duration": 0.018229166666657193,
          "durationTicks": 14,
          "midi": 38,
          "name": "D2",
          "ticks": 72578,
          "time": 94.50260416666667,
          "velocity": 1
        },
        {
          "duration": 0.020833333333328596,
          "durationTicks": 16,
          "midi": 38,
          "name": "D2",
          "ticks": 73346,
          "time": 95.50260416666667,
          "velocity": 1
        },
        {
          "duration": 0.020833333333328596,
          "durationTicks": 16,
          "midi": 38,
          "name": "D2",
          "ticks": 74114,
          "time": 96.50260416666667,
          "velocity": 1
        },
        {
          "duration": 0.018229166666671404,
          "durationTicks": 14,
          "midi": 38,
          "name": "D2",
          "ticks": 74884,
          "time": 97.50520833333333,
          "velocity": 1
        },
        {
          "duration": 0.018229166666657193,
          "durationTicks": 14,
          "midi": 38,
          "name": "D2",
          "ticks": 75650,
          "time": 98.50260416666667,
          "velocity": 1
        },
        {
          "duration": 0.020833333333328596,
          "durationTicks": 16,
          "midi": 38,
          "name": "D2",
          "ticks": 76418,
          "time": 99.50260416666667,
          "velocity": 1
        },
        {
          "duration": 0.018229166666671404,
          "durationTicks": 14,
          "midi": 38,
          "name": "D2",
          "ticks": 77188,
          "time": 100.50520833333333,
          "velocity": 1
        },
        {
          "duration": 0.020833333333328596,
          "durationTicks": 16,
          "midi": 38,
          "name": "D2",
          "ticks": 77954,
          "time": 101.50260416666667,
          "velocity": 1
        },
        {
          "duration": 0.020833333333328596,
          "durationTicks": 16,
          "midi": 38,
          "name": "D2",
          "ticks": 78722,
          "time": 102.50260416666667,
          "velocity": 1
        },
        {
          "duration": 0.020833333333328596,
          "durationTicks": 16,
          "midi": 38,
          "name": "D2",
          "ticks": 79490,
          "time": 103.50260416666667,
          "velocity": 1
        },
        {
          "duration": 0.018229166666657193,
          "durationTicks": 14,
          "midi": 38,
          "name": "D2",
          "ticks": 80258,
          "time": 104.50260416666667,
          "velocity": 1
        },
        {
          "duration": 0.018229166666657193,
          "durationTicks": 14,
          "midi": 38,
          "name": "D2",
          "ticks": 81026,
          "time": 105.50260416666667,
          "velocity": 1
        },
        {
          "duration": 0.020833333333328596,
          "durationTicks": 16,
          "midi": 38,
          "name": "D2",
          "ticks": 81794,
          "time": 106.50260416666667,
          "velocity": 1
        },
        {
          "duration": 0.018229166666671404,
          "durationTicks": 14,
          "midi": 38,
          "name": "D2",
          "ticks": 81988,
          "time": 106.75520833333333,
          "velocity": 0.33858267716535434
        },
        {
          "duration": 0.018229166666671404,
          "durationTicks": 14,
          "midi": 38,
          "name": "D2",
          "ticks": 82180,
          "time": 107.00520833333333,
          "velocity": 0.33858267716535434
        },
        {
          "duration": 0.018229166666671404,
          "durationTicks": 14,
          "midi": 38,
          "name": "D2",
          "ticks": 82372,
          "time": 107.25520833333333,
          "velocity": 1
        },
        {
          "duration": 0.018229166666671404,
          "durationTicks": 14,
          "midi": 38,
          "name": "D2",
          "ticks": 82564,
          "time": 107.50520833333333,
          "velocity": 0.33858267716535434
        },
        {
          "duration": 0.015625,
          "durationTicks": 12,
          "midi": 38,
          "name": "D2",
          "ticks": 82660,
          "time": 107.63020833333333,
          "velocity": 0.33858267716535434
        },
        {
          "duration": 0.020833333333328596,
          "durationTicks": 16,
          "midi": 38,
          "name": "D2",
          "ticks": 82754,
          "time": 107.75260416666667,
          "velocity": 1
        },
        {
          "duration": 0.015625,
          "durationTicks": 12,
          "midi": 38,
          "name": "D2",
          "ticks": 82852,
          "time": 107.88020833333333,
          "velocity": 1
        },
        {
          "duration": 0.020833333333328596,
          "durationTicks": 16,
          "midi": 38,
          "name": "D2",
          "ticks": 83330,
          "time": 108.50260416666667,
          "velocity": 1
        },
        {
          "duration": 0.015625,
          "durationTicks": 12,
          "midi": 38,
          "name": "D2",
          "ticks": 84100,
          "time": 109.50520833333333,
          "velocity": 1
        },
        {
          "duration": 0.018229166666671404,
          "durationTicks": 14,
          "midi": 38,
          "name": "D2",
          "ticks": 84868,
          "time": 110.50520833333333,
          "velocity": 1
        },
        {
          "duration": 0.018229166666671404,
          "durationTicks": 14,
          "midi": 38,
          "name": "D2",
          "ticks": 85636,
          "time": 111.50520833333333,
          "velocity": 1
        },
        {
          "duration": 0.020833333333328596,
          "durationTicks": 16,
          "midi": 38,
          "name": "D2",
          "ticks": 86402,
          "time": 112.50260416666667,
          "velocity": 1
        },
        {
          "duration": 0.015625,
          "durationTicks": 12,
          "midi": 38,
          "name": "D2",
          "ticks": 87172,
          "time": 113.50520833333333,
          "velocity": 1
        },
        {
          "duration": 0.018229166666671404,
          "durationTicks": 14,
          "midi": 38,
          "name": "D2",
          "ticks": 87940,
          "time": 114.50520833333333,
          "velocity": 1
        },
        {
          "duration": 0.018229166666671404,
          "durationTicks": 14,
          "midi": 38,
          "name": "D2",
          "ticks": 88708,
          "time": 115.50520833333333,
          "velocity": 1
        },
        {
          "duration": 0.015625,
          "durationTicks": 12,
          "midi": 38,
          "name": "D2",
          "ticks": 89476,
          "time": 116.50520833333333,
          "velocity": 1
        },
        {
          "duration": 0.015625,
          "durationTicks": 12,
          "midi": 38,
          "name": "D2",
          "ticks": 90244,
          "time": 117.50520833333333,
          "velocity": 1
        },
        {
          "duration": 0.018229166666671404,
          "durationTicks": 14,
          "midi": 38,
          "name": "D2",
          "ticks": 91012,
          "time": 118.50520833333333,
          "velocity": 1
        },
        {
          "duration": 0.018229166666671404,
          "durationTicks": 14,
          "midi": 38,
          "name": "D2",
          "ticks": 91780,
          "time": 119.50520833333333,
          "velocity": 1
        },
        {
          "duration": 0.015625,
          "durationTicks": 12,
          "midi": 38,
          "name": "D2",
          "ticks": 92548,
          "time": 120.50520833333333,
          "velocity": 1
        },
        {
          "duration": 0.015625,
          "durationTicks": 12,
          "midi": 38,
          "name": "D2",
          "ticks": 93316,
          "time": 121.50520833333333,
          "velocity": 1
        },
        {
          "duration": 0.015625,
          "durationTicks": 12,
          "midi": 38,
          "name": "D2",
          "ticks": 94084,
          "time": 122.50520833333333,
          "velocity": 1
        },
        {
          "duration": 0.018229166666671404,
          "durationTicks": 14,
          "midi": 38,
          "name": "D2",
          "ticks": 94660,
          "time": 123.25520833333333,
          "velocity": 0.33858267716535434
        },
        {
          "duration": 0.018229166666657193,
          "durationTicks": 14,
          "midi": 38,
          "name": "D2",
          "ticks": 94754,
          "time": 123.37760416666667,
          "velocity": 0.33858267716535434
        },
        {
          "duration": 0.015625,
          "durationTicks": 12,
          "midi": 38,
          "name": "D2",
          "ticks": 94852,
          "time": 123.50520833333333,
          "velocity": 0.33858267716535434
        },
        {
          "duration": 0.015625,
          "durationTicks": 12,
          "midi": 38,
          "name": "D2",
          "ticks": 94948,
          "time": 123.63020833333333,
          "velocity": 0.33858267716535434
        },
        {
          "duration": 0.018229166666671404,
          "durationTicks": 14,
          "midi": 38,
          "name": "D2",
          "ticks": 95044,
          "time": 123.75520833333333,
          "velocity": 1
        },
        {
          "duration": 0.018229166666671404,
          "durationTicks": 14,
          "midi": 38,
          "name": "D2",
          "ticks": 95140,
          "time": 123.88020833333333,
          "velocity": 1
        },
        {
          "duration": 0.018229166666657193,
          "durationTicks": 14,
          "midi": 38,
          "name": "D2",
          "ticks": 95618,
          "time": 124.50260416666667,
          "velocity": 1
        },
        {
          "duration": 0.020833333333328596,
          "durationTicks": 16,
          "midi": 38,
          "name": "D2",
          "ticks": 96386,
          "time": 125.50260416666667,
          "velocity": 1
        },
        {
          "duration": 0.018229166666657193,
          "durationTicks": 14,
          "midi": 38,
          "name": "D2",
          "ticks": 97154,
          "time": 126.50260416666667,
          "velocity": 1
        },
        {
          "duration": 0.018229166666671404,
          "durationTicks": 14,
          "midi": 38,
          "name": "D2",
          "ticks": 97924,
          "time": 127.50520833333333,
          "velocity": 1
        },
        {
          "duration": 0.018229166666685614,
          "durationTicks": 14,
          "midi": 38,
          "name": "D2",
          "ticks": 98690,
          "time": 128.50260416666666,
          "velocity": 1
        },
        {
          "duration": 0.015625,
          "durationTicks": 12,
          "midi": 38,
          "name": "D2",
          "ticks": 99460,
          "time": 129.50520833333334,
          "velocity": 1
        },
        {
          "duration": 0.015625,
          "durationTicks": 12,
          "midi": 38,
          "name": "D2",
          "ticks": 100228,
          "time": 130.50520833333334,
          "velocity": 1
        },
        {
          "duration": 0.020833333333342807,
          "durationTicks": 16,
          "midi": 38,
          "name": "D2",
          "ticks": 100994,
          "time": 131.50260416666666,
          "velocity": 1
        },
        {
          "duration": 0.020833333333342807,
          "durationTicks": 16,
          "midi": 38,
          "name": "D2",
          "ticks": 101762,
          "time": 132.50260416666666,
          "velocity": 1
        },
        {
          "duration": 0.018229166666685614,
          "durationTicks": 14,
          "midi": 38,
          "name": "D2",
          "ticks": 102530,
          "time": 133.50260416666666,
          "velocity": 1
        },
        {
          "duration": 0.015625,
          "durationTicks": 12,
          "midi": 38,
          "name": "D2",
          "ticks": 103300,
          "time": 134.50520833333334,
          "velocity": 1
        },
        {
          "duration": 0.020833333333342807,
          "durationTicks": 16,
          "midi": 38,
          "name": "D2",
          "ticks": 104066,
          "time": 135.50260416666666,
          "velocity": 1
        },
        {
          "duration": 0.018229166666657193,
          "durationTicks": 14,
          "midi": 38,
          "name": "D2",
          "ticks": 104644,
          "time": 136.25520833333334,
          "velocity": 0.33858267716535434
        },
        {
          "duration": 0.018229166666685614,
          "durationTicks": 14,
          "midi": 38,
          "name": "D2",
          "ticks": 104834,
          "time": 136.50260416666666,
          "velocity": 0.33858267716535434
        },
        {
          "duration": 0.018229166666657193,
          "durationTicks": 14,
          "midi": 38,
          "name": "D2",
          "ticks": 105028,
          "time": 136.75520833333334,
          "velocity": 0.33858267716535434
        },
        {
          "duration": 0.015625,
          "durationTicks": 12,
          "midi": 38,
          "name": "D2",
          "ticks": 105220,
          "time": 137.00520833333334,
          "velocity": 0.33858267716535434
        },
        {
          "duration": 0.018229166666657193,
          "durationTicks": 14,
          "midi": 38,
          "name": "D2",
          "ticks": 105412,
          "time": 137.25520833333334,
          "velocity": 0.33858267716535434
        },
        {
          "duration": 0.015625,
          "durationTicks": 12,
          "midi": 38,
          "name": "D2",
          "ticks": 105604,
          "time": 137.50520833333334,
          "velocity": 0.33858267716535434
        },
        {
          "duration": 0.018229166666657193,
          "durationTicks": 14,
          "midi": 38,
          "name": "D2",
          "ticks": 105796,
          "time": 137.75520833333334,
          "velocity": 0.33858267716535434
        },
        {
          "duration": 0.018229166666657193,
          "durationTicks": 14,
          "midi": 38,
          "name": "D2",
          "ticks": 105988,
          "time": 138.00520833333334,
          "velocity": 0.33858267716535434
        },
        {
          "duration": 0.018229166666657193,
          "durationTicks": 14,
          "midi": 38,
          "name": "D2",
          "ticks": 106180,
          "time": 138.25520833333334,
          "velocity": 1
        },
        {
          "duration": 0.018229166666657193,
          "durationTicks": 14,
          "midi": 38,
          "name": "D2",
          "ticks": 106372,
          "time": 138.50520833333334,
          "velocity": 1
        },
        {
          "duration": 0.018229166666657193,
          "durationTicks": 14,
          "midi": 38,
          "name": "D2",
          "ticks": 106564,
          "time": 138.75520833333334,
          "velocity": 1
        },
        {
          "duration": 0.018229166666657193,
          "durationTicks": 14,
          "midi": 38,
          "name": "D2",
          "ticks": 106756,
          "time": 139.00520833333334,
          "velocity": 0.33858267716535434
        },
        {
          "duration": 0.018229166666685614,
          "durationTicks": 14,
          "midi": 38,
          "name": "D2",
          "ticks": 106850,
          "time": 139.12760416666666,
          "velocity": 0.33858267716535434
        },
        {
          "duration": 0.015625,
          "durationTicks": 12,
          "midi": 38,
          "name": "D2",
          "ticks": 106948,
          "time": 139.25520833333334,
          "velocity": 1
        },
        {
          "duration": 0.018229166666657193,
          "durationTicks": 14,
          "midi": 38,
          "name": "D2",
          "ticks": 107140,
          "time": 139.50520833333334,
          "velocity": 1
        },
        {
          "duration": 0.018229166666685614,
          "durationTicks": 14,
          "midi": 38,
          "name": "D2",
          "ticks": 107234,
          "time": 139.62760416666666,
          "velocity": 0.33858267716535434
        },
        {
          "duration": 0.018229166666657193,
          "durationTicks": 14,
          "midi": 38,
          "name": "D2",
          "ticks": 107332,
          "time": 139.75520833333334,
          "velocity": 1
        },
        {
          "duration": 0.018229166666657193,
          "durationTicks": 14,
          "midi": 38,
          "name": "D2",
          "ticks": 107428,
          "time": 139.88020833333334,
          "velocity": 0.33858267716535434
        },
        {
          "duration": 0.018229166666685614,
          "durationTicks": 14,
          "midi": 38,
          "name": "D2",
          "ticks": 107906,
          "time": 140.50260416666666,
          "velocity": 1
        },
        {
          "duration": 0.015625,
          "durationTicks": 12,
          "midi": 38,
          "name": "D2",
          "ticks": 108676,
          "time": 141.50520833333334,
          "velocity": 1
        },
        {
          "duration": 0.015625,
          "durationTicks": 12,
          "midi": 38,
          "name": "D2",
          "ticks": 109444,
          "time": 142.50520833333334,
          "velocity": 1
        },
        {
          "duration": 0.015625,
          "durationTicks": 12,
          "midi": 38,
          "name": "D2",
          "ticks": 110212,
          "time": 143.50520833333334,
          "velocity": 1
        },
        {
          "duration": 0.018229166666685614,
          "durationTicks": 14,
          "midi": 38,
          "name": "D2",
          "ticks": 110978,
          "time": 144.50260416666666,
          "velocity": 1
        },
        {
          "duration": 0.020833333333342807,
          "durationTicks": 16,
          "midi": 38,
          "name": "D2",
          "ticks": 111746,
          "time": 145.50260416666666,
          "velocity": 1
        },
        {
          "duration": 0.015625,
          "durationTicks": 12,
          "midi": 38,
          "name": "D2",
          "ticks": 112516,
          "time": 146.50520833333334,
          "velocity": 1
        },
        {
          "duration": 0.020833333333342807,
          "durationTicks": 16,
          "midi": 38,
          "name": "D2",
          "ticks": 113282,
          "time": 147.50260416666666,
          "velocity": 1
        },
        {
          "duration": 0.018229166666685614,
          "durationTicks": 14,
          "midi": 38,
          "name": "D2",
          "ticks": 114050,
          "time": 148.50260416666666,
          "velocity": 1
        },
        {
          "duration": 0.015625,
          "durationTicks": 12,
          "midi": 38,
          "name": "D2",
          "ticks": 114820,
          "time": 149.50520833333334,
          "velocity": 1
        },
        {
          "duration": 0.015625,
          "durationTicks": 12,
          "midi": 38,
          "name": "D2",
          "ticks": 115588,
          "time": 150.50520833333334,
          "velocity": 1
        },
        {
          "duration": 0.015625,
          "durationTicks": 12,
          "midi": 38,
          "name": "D2",
          "ticks": 116356,
          "time": 151.50520833333334,
          "velocity": 1
        },
        {
          "duration": 0.015625,
          "durationTicks": 12,
          "midi": 38,
          "name": "D2",
          "ticks": 117124,
          "time": 152.50520833333334,
          "velocity": 1
        },
        {
          "duration": 0.020833333333342807,
          "durationTicks": 16,
          "midi": 38,
          "name": "D2",
          "ticks": 117890,
          "time": 153.50260416666666,
          "velocity": 1
        },
        {
          "duration": 0.020833333333342807,
          "durationTicks": 16,
          "midi": 38,
          "name": "D2",
          "ticks": 118658,
          "time": 154.50260416666666,
          "velocity": 1
        },
        {
          "duration": 0.018229166666685614,
          "durationTicks": 14,
          "midi": 38,
          "name": "D2",
          "ticks": 119426,
          "time": 155.50260416666666,
          "velocity": 1
        },
        {
          "duration": 0.018229166666657193,
          "durationTicks": 14,
          "midi": 38,
          "name": "D2",
          "ticks": 119620,
          "time": 155.75520833333334,
          "velocity": 1
        },
        {
          "duration": 0.015625,
          "durationTicks": 12,
          "midi": 38,
          "name": "D2",
          "ticks": 119716,
          "time": 155.88020833333334,
          "velocity": 1
        },
        {
          "duration": 0.020833333333342807,
          "durationTicks": 16,
          "midi": 38,
          "name": "D2",
          "ticks": 120194,
          "time": 156.50260416666666,
          "velocity": 1
        },
        {
          "duration": 0.018229166666657193,
          "durationTicks": 14,
          "midi": 38,
          "name": "D2",
          "ticks": 120964,
          "time": 157.50520833333334,
          "velocity": 1
        },
        {
          "duration": 0.020833333333342807,
          "durationTicks": 16,
          "midi": 38,
          "name": "D2",
          "ticks": 121730,
          "time": 158.50260416666666,
          "velocity": 1
        },
        {
          "duration": 0.015625,
          "durationTicks": 12,
          "midi": 38,
          "name": "D2",
          "ticks": 122500,
          "time": 159.50520833333334,
          "velocity": 1
        },
        {
          "duration": 0.020833333333342807,
          "durationTicks": 16,
          "midi": 38,
          "name": "D2",
          "ticks": 123266,
          "time": 160.50260416666666,
          "velocity": 1
        },
        {
          "duration": 0.020833333333342807,
          "durationTicks": 16,
          "midi": 38,
          "name": "D2",
          "ticks": 124034,
          "time": 161.50260416666666,
          "velocity": 1
        },
        {
          "duration": 0.020833333333342807,
          "durationTicks": 16,
          "midi": 38,
          "name": "D2",
          "ticks": 124802,
          "time": 162.50260416666666,
          "velocity": 1
        },
        {
          "duration": 0.018229166666657193,
          "durationTicks": 14,
          "midi": 38,
          "name": "D2",
          "ticks": 125572,
          "time": 163.50520833333334,
          "velocity": 1
        },
        {
          "duration": 0.020833333333342807,
          "durationTicks": 16,
          "midi": 38,
          "name": "D2",
          "ticks": 126338,
          "time": 164.50260416666666,
          "velocity": 1
        },
        {
          "duration": 0.018229166666657193,
          "durationTicks": 14,
          "midi": 38,
          "name": "D2",
          "ticks": 127108,
          "time": 165.50520833333334,
          "velocity": 1
        },
        {
          "duration": 0.020833333333342807,
          "durationTicks": 16,
          "midi": 38,
          "name": "D2",
          "ticks": 127874,
          "time": 166.50260416666666,
          "velocity": 1
        },
        {
          "duration": 0.015625,
          "durationTicks": 12,
          "midi": 38,
          "name": "D2",
          "ticks": 128644,
          "time": 167.50520833333334,
          "velocity": 1
        },
        {
          "duration": 0.020833333333342807,
          "durationTicks": 16,
          "midi": 38,
          "name": "D2",
          "ticks": 129410,
          "time": 168.50260416666666,
          "velocity": 1
        },
        {
          "duration": 0.018229166666657193,
          "durationTicks": 14,
          "midi": 38,
          "name": "D2",
          "ticks": 130180,
          "time": 169.50520833333334,
          "velocity": 1
        },
        {
          "duration": 0.020833333333342807,
          "durationTicks": 16,
          "midi": 38,
          "name": "D2",
          "ticks": 130946,
          "time": 170.50260416666666,
          "velocity": 1
        },
        {
          "duration": 0.018229166666657193,
          "durationTicks": 14,
          "midi": 38,
          "name": "D2",
          "ticks": 131524,
          "time": 171.25520833333334,
          "velocity": 0.33858267716535434
        },
        {
          "duration": 0.018229166666657193,
          "durationTicks": 14,
          "midi": 38,
          "name": "D2",
          "ticks": 131620,
          "time": 171.38020833333334,
          "velocity": 0.33858267716535434
        },
        {
          "duration": 0.015625,
          "durationTicks": 12,
          "midi": 38,
          "name": "D2",
          "ticks": 131716,
          "time": 171.50520833333334,
          "velocity": 0.33858267716535434
        },
        {
          "duration": 0.015625,
          "durationTicks": 12,
          "midi": 38,
          "name": "D2",
          "ticks": 131812,
          "time": 171.63020833333334,
          "velocity": 0.33858267716535434
        },
        {
          "duration": 0.018229166666657193,
          "durationTicks": 14,
          "midi": 38,
          "name": "D2",
          "ticks": 131908,
          "time": 171.75520833333334,
          "velocity": 1
        },
        {
          "duration": 0.015625,
          "durationTicks": 12,
          "midi": 38,
          "name": "D2",
          "ticks": 132004,
          "time": 171.88020833333334,
          "velocity": 1
        }
      ],
      "endOfTrackTicks": 132208
    },
    {
      "channel": 9,
      "controlChanges": {},
      "pitchBends": [],
      "instrument": {
        "family": "drums",
        "number": 0,
        "name": "standard kit"
      },
      "name": "CLOSED H.H",
      "notes": [
        {
          "duration": 0.018229166666666963,
          "durationTicks": 14,
          "midi": 42,
          "name": "F#2",
          "ticks": 3076,
          "time": 4.005208333333333,
          "velocity": 1
        },
        {
          "duration": 0.015625,
          "durationTicks": 12,
          "midi": 42,
          "name": "F#2",
          "ticks": 3268,
          "time": 4.255208333333333,
          "velocity": 0.33858267716535434
        },
        {
          "duration": 0.015625,
          "durationTicks": 12,
          "midi": 42,
          "name": "F#2",
          "ticks": 3460,
          "time": 4.505208333333333,
          "velocity": 1
        },
        {
          "duration": 0.018229166666666963,
          "durationTicks": 14,
          "midi": 42,
          "name": "F#2",
          "ticks": 3652,
          "time": 4.755208333333333,
          "velocity": 0.33858267716535434
        },
        {
          "duration": 0.015625,
          "durationTicks": 12,
          "midi": 42,
          "name": "F#2",
          "ticks": 3844,
          "time": 5.005208333333333,
          "velocity": 1
        },
        {
          "duration": 0.018229166666666963,
          "durationTicks": 14,
          "midi": 42,
          "name": "F#2",
          "ticks": 4036,
          "time": 5.255208333333333,
          "velocity": 0.33858267716535434
        },
        {
          "duration": 0.015625,
          "durationTicks": 12,
          "midi": 42,
          "name": "F#2",
          "ticks": 4228,
          "time": 5.505208333333333,
          "velocity": 1
        },
        {
          "duration": 0.018229166666666963,
          "durationTicks": 14,
          "midi": 42,
          "name": "F#2",
          "ticks": 4420,
          "time": 5.755208333333333,
          "velocity": 0.33858267716535434
        },
        {
          "duration": 0.015625,
          "durationTicks": 12,
          "midi": 42,
          "name": "F#2",
          "ticks": 4612,
          "time": 6.005208333333333,
          "velocity": 1
        },
        {
          "duration": 0.018229166666666963,
          "durationTicks": 14,
          "midi": 42,
          "name": "F#2",
          "ticks": 4804,
          "time": 6.255208333333333,
          "velocity": 0.33858267716535434
        },
        {
          "duration": 0.018229166666666963,
          "durationTicks": 14,
          "midi": 42,
          "name": "F#2",
          "ticks": 4996,
          "time": 6.505208333333333,
          "velocity": 1
        },
        {
          "duration": 0.018229166666666963,
          "durationTicks": 14,
          "midi": 42,
          "name": "F#2",
          "ticks": 5188,
          "time": 6.755208333333333,
          "velocity": 0.33858267716535434
        },
        {
          "duration": 0.018229166666666963,
          "durationTicks": 14,
          "midi": 42,
          "name": "F#2",
          "ticks": 5380,
          "time": 7.005208333333333,
          "velocity": 1
        },
        {
          "duration": 0.015625,
          "durationTicks": 12,
          "midi": 42,
          "name": "F#2",
          "ticks": 5572,
          "time": 7.255208333333333,
          "velocity": 0.33858267716535434
        },
        {
          "duration": 0.018229166666666963,
          "durationTicks": 14,
          "midi": 42,
          "name": "F#2",
          "ticks": 5764,
          "time": 7.505208333333333,
          "velocity": 1
        },
        {
          "duration": 0.018229166666666075,
          "durationTicks": 14,
          "midi": 42,
          "name": "F#2",
          "ticks": 6148,
          "time": 8.005208333333334,
          "velocity": 1
        },
        {
          "duration": 0.015625,
          "durationTicks": 12,
          "midi": 42,
          "name": "F#2",
          "ticks": 6340,
          "time": 8.255208333333334,
          "velocity": 0.33858267716535434
        },
        {
          "duration": 0.015625,
          "durationTicks": 12,
          "midi": 42,
          "name": "F#2",
          "ticks": 6532,
          "time": 8.505208333333334,
          "velocity": 1
        },
        {
          "duration": 0.018229166666666075,
          "durationTicks": 14,
          "midi": 42,
          "name": "F#2",
          "ticks": 6724,
          "time": 8.755208333333334,
          "velocity": 0.33858267716535434
        },
        {
          "duration": 0.015625,
          "durationTicks": 12,
          "midi": 42,
          "name": "F#2",
          "ticks": 6916,
          "time": 9.005208333333334,
          "velocity": 1
        },
        {
          "duration": 0.018229166666666075,
          "durationTicks": 14,
          "midi": 42,
          "name": "F#2",
          "ticks": 7108,
          "time": 9.255208333333334,
          "velocity": 0.33858267716535434
        },
        {
          "duration": 0.018229166666666075,
          "durationTicks": 14,
          "midi": 42,
          "name": "F#2",
          "ticks": 7300,
          "time": 9.505208333333334,
          "velocity": 1
        },
        {
          "duration": 0.018229166666666075,
          "durationTicks": 14,
          "midi": 42,
          "name": "F#2",
          "ticks": 7492,
          "time": 9.755208333333334,
          "velocity": 0.33858267716535434
        },
        {
          "duration": 0.018229166666666075,
          "durationTicks": 14,
          "midi": 42,
          "name": "F#2",
          "ticks": 7684,
          "time": 10.005208333333334,
          "velocity": 1
        },
        {
          "duration": 0.01822916666666785,
          "durationTicks": 14,
          "midi": 42,
          "name": "F#2",
          "ticks": 7874,
          "time": 10.252604166666666,
          "velocity": 0.33858267716535434
        },
        {
          "duration": 0.015625,
          "durationTicks": 12,
          "midi": 42,
          "name": "F#2",
          "ticks": 8068,
          "time": 10.505208333333334,
          "velocity": 1
        },
        {
          "duration": 0.015625,
          "durationTicks": 12,
          "midi": 42,
          "name": "F#2",
          "ticks": 8260,
          "time": 10.755208333333334,
          "velocity": 0.33858267716535434
        },
        {
          "duration": 0.018229166666666075,
          "durationTicks": 14,
          "midi": 42,
          "name": "F#2",
          "ticks": 8452,
          "time": 11.005208333333334,
          "velocity": 1
        },
        {
          "duration": 0.018229166666666075,
          "durationTicks": 14,
          "midi": 42,
          "name": "F#2",
          "ticks": 8644,
          "time": 11.255208333333334,
          "velocity": 0.33858267716535434
        },
        {
          "duration": 0.015625,
          "durationTicks": 12,
          "midi": 42,
          "name": "F#2",
          "ticks": 8836,
          "time": 11.505208333333334,
          "velocity": 1
        },
        {
          "duration": 0.018229166666666075,
          "durationTicks": 14,
          "midi": 42,
          "name": "F#2",
          "ticks": 9220,
          "time": 12.005208333333334,
          "velocity": 1
        },
        {
          "duration": 0.018229166666666075,
          "durationTicks": 14,
          "midi": 42,
          "name": "F#2",
          "ticks": 9412,
          "time": 12.255208333333334,
          "velocity": 0.33858267716535434
        },
        {
          "duration": 0.018229166666666075,
          "durationTicks": 14,
          "midi": 42,
          "name": "F#2",
          "ticks": 9604,
          "time": 12.505208333333334,
          "velocity": 1
        },
        {
          "duration": 0.018229166666666075,
          "durationTicks": 14,
          "midi": 42,
          "name": "F#2",
          "ticks": 9796,
          "time": 12.755208333333334,
          "velocity": 0.33858267716535434
        },
        {
          "duration": 0.018229166666666075,
          "durationTicks": 14,
          "midi": 42,
          "name": "F#2",
          "ticks": 9988,
          "time": 13.005208333333334,
          "velocity": 1
        },
        {
          "duration": 0.018229166666666075,
          "durationTicks": 14,
          "midi": 42,
          "name": "F#2",
          "ticks": 10180,
          "time": 13.255208333333334,
          "velocity": 0.33858267716535434
        },
        {
          "duration": 0.018229166666666075,
          "durationTicks": 14,
          "midi": 42,
          "name": "F#2",
          "ticks": 10372,
          "time": 13.505208333333334,
          "velocity": 1
        },
        {
          "duration": 0.015625,
          "durationTicks": 12,
          "midi": 42,
          "name": "F#2",
          "ticks": 10564,
          "time": 13.755208333333334,
          "velocity": 0.33858267716535434
        },
        {
          "duration": 0.018229166666666075,
          "durationTicks": 14,
          "midi": 42,
          "name": "F#2",
          "ticks": 10756,
          "time": 14.005208333333334,
          "velocity": 1
        },
        {
          "duration": 0.015625,
          "durationTicks": 12,
          "midi": 42,
          "name": "F#2",
          "ticks": 10948,
          "time": 14.255208333333334,
          "velocity": 0.33858267716535434
        },
        {
          "duration": 0.015625,
          "durationTicks": 12,
          "midi": 42,
          "name": "F#2",
          "ticks": 11140,
          "time": 14.505208333333334,
          "velocity": 1
        },
        {
          "duration": 0.018229166666666075,
          "durationTicks": 14,
          "midi": 42,
          "name": "F#2",
          "ticks": 11332,
          "time": 14.755208333333334,
          "velocity": 0.33858267716535434
        },
        {
          "duration": 0.015625,
          "durationTicks": 12,
          "midi": 42,
          "name": "F#2",
          "ticks": 11524,
          "time": 15.005208333333334,
          "velocity": 1
        },
        {
          "duration": 0.018229166666666075,
          "durationTicks": 14,
          "midi": 42,
          "name": "F#2",
          "ticks": 11716,
          "time": 15.255208333333334,
          "velocity": 0.33858267716535434
        },
        {
          "duration": 0.018229166666666075,
          "durationTicks": 14,
          "midi": 42,
          "name": "F#2",
          "ticks": 11908,
          "time": 15.505208333333334,
          "velocity": 1
        },
        {
          "duration": 0.01822916666666785,
          "durationTicks": 14,
          "midi": 42,
          "name": "F#2",
          "ticks": 12292,
          "time": 16.005208333333332,
          "velocity": 1
        },
        {
          "duration": 0.018229166666664298,
          "durationTicks": 14,
          "midi": 42,
          "name": "F#2",
          "ticks": 12482,
          "time": 16.252604166666668,
          "velocity": 0.33858267716535434
        },
        {
          "duration": 0.01822916666666785,
          "durationTicks": 14,
          "midi": 42,
          "name": "F#2",
          "ticks": 12676,
          "time": 16.505208333333332,
          "velocity": 1
        },
        {
          "duration": 0.015625,
          "durationTicks": 12,
          "midi": 42,
          "name": "F#2",
          "ticks": 12868,
          "time": 16.755208333333332,
          "velocity": 0.33858267716535434
        },
        {
          "duration": 0.01822916666666785,
          "durationTicks": 14,
          "midi": 42,
          "name": "F#2",
          "ticks": 13060,
          "time": 17.005208333333332,
          "velocity": 1
        },
        {
          "duration": 0.01822916666666785,
          "durationTicks": 14,
          "midi": 42,
          "name": "F#2",
          "ticks": 13252,
          "time": 17.255208333333332,
          "velocity": 0.33858267716535434
        },
        {
          "duration": 0.01822916666666785,
          "durationTicks": 14,
          "midi": 42,
          "name": "F#2",
          "ticks": 13444,
          "time": 17.505208333333332,
          "velocity": 1
        },
        {
          "duration": 0.01822916666666785,
          "durationTicks": 14,
          "midi": 42,
          "name": "F#2",
          "ticks": 13636,
          "time": 17.755208333333332,
          "velocity": 0.33858267716535434
        },
        {
          "duration": 0.01822916666666785,
          "durationTicks": 14,
          "midi": 42,
          "name": "F#2",
          "ticks": 13828,
          "time": 18.005208333333332,
          "velocity": 1
        },
        {
          "duration": 0.018229166666664298,
          "durationTicks": 14,
          "midi": 42,
          "name": "F#2",
          "ticks": 14018,
          "time": 18.252604166666668,
          "velocity": 0.33858267716535434
        },
        {
          "duration": 0.01822916666666785,
          "durationTicks": 14,
          "midi": 42,
          "name": "F#2",
          "ticks": 14212,
          "time": 18.505208333333332,
          "velocity": 1
        },
        {
          "duration": 0.01822916666666785,
          "durationTicks": 14,
          "midi": 42,
          "name": "F#2",
          "ticks": 14404,
          "time": 18.755208333333332,
          "velocity": 0.33858267716535434
        },
        {
          "duration": 0.01822916666666785,
          "durationTicks": 14,
          "midi": 42,
          "name": "F#2",
          "ticks": 14596,
          "time": 19.005208333333332,
          "velocity": 1
        },
        {
          "duration": 0.01822916666666785,
          "durationTicks": 14,
          "midi": 42,
          "name": "F#2",
          "ticks": 14788,
          "time": 19.255208333333332,
          "velocity": 0.33858267716535434
        },
        {
          "duration": 0.015625,
          "durationTicks": 12,
          "midi": 42,
          "name": "F#2",
          "ticks": 14980,
          "time": 19.505208333333332,
          "velocity": 1
        },
        {
          "duration": 0.02083333333333215,
          "durationTicks": 16,
          "midi": 42,
          "name": "F#2",
          "ticks": 15362,
          "time": 20.002604166666668,
          "velocity": 1
        },
        {
          "duration": 0.01822916666666785,
          "durationTicks": 14,
          "midi": 42,
          "name": "F#2",
          "ticks": 15556,
          "time": 20.255208333333332,
          "velocity": 0.33858267716535434
        },
        {
          "duration": 0.01822916666666785,
          "durationTicks": 14,
          "midi": 42,
          "name": "F#2",
          "ticks": 15748,
          "time": 20.505208333333332,
          "velocity": 1
        },
        {
          "duration": 0.015625,
          "durationTicks": 12,
          "midi": 42,
          "name": "F#2",
          "ticks": 15940,
          "time": 20.755208333333332,
          "velocity": 0.33858267716535434
        },
        {
          "duration": 0.01822916666666785,
          "durationTicks": 14,
          "midi": 42,
          "name": "F#2",
          "ticks": 16132,
          "time": 21.005208333333332,
          "velocity": 1
        },
        {
          "duration": 0.01822916666666785,
          "durationTicks": 14,
          "midi": 42,
          "name": "F#2",
          "ticks": 16324,
          "time": 21.255208333333332,
          "velocity": 0.33858267716535434
        },
        {
          "duration": 0.015625,
          "durationTicks": 12,
          "midi": 42,
          "name": "F#2",
          "ticks": 16516,
          "time": 21.505208333333332,
          "velocity": 1
        },
        {
          "duration": 0.01822916666666785,
          "durationTicks": 14,
          "midi": 42,
          "name": "F#2",
          "ticks": 16708,
          "time": 21.755208333333332,
          "velocity": 0.33858267716535434
        },
        {
          "duration": 0.015625,
          "durationTicks": 12,
          "midi": 42,
          "name": "F#2",
          "ticks": 16900,
          "time": 22.005208333333332,
          "velocity": 1
        },
        {
          "duration": 0.01822916666666785,
          "durationTicks": 14,
          "midi": 42,
          "name": "F#2",
          "ticks": 17092,
          "time": 22.255208333333332,
          "velocity": 0.33858267716535434
        },
        {
          "duration": 0.01822916666666785,
          "durationTicks": 14,
          "midi": 42,
          "name": "F#2",
          "ticks": 17284,
          "time": 22.505208333333332,
          "velocity": 1
        },
        {
          "duration": 0.01822916666666785,
          "durationTicks": 14,
          "midi": 42,
          "name": "F#2",
          "ticks": 17476,
          "time": 22.755208333333332,
          "velocity": 0.33858267716535434
        },
        {
          "duration": 0.01822916666666785,
          "durationTicks": 14,
          "midi": 42,
          "name": "F#2",
          "ticks": 17668,
          "time": 23.005208333333332,
          "velocity": 1
        },
        {
          "duration": 0.01822916666666785,
          "durationTicks": 14,
          "midi": 42,
          "name": "F#2",
          "ticks": 17860,
          "time": 23.255208333333332,
          "velocity": 0.33858267716535434
        },
        {
          "duration": 0.01822916666666785,
          "durationTicks": 14,
          "midi": 42,
          "name": "F#2",
          "ticks": 18052,
          "time": 23.505208333333332,
          "velocity": 1
        },
        {
          "duration": 0.01822916666666785,
          "durationTicks": 14,
          "midi": 42,
          "name": "F#2",
          "ticks": 18436,
          "time": 24.005208333333332,
          "velocity": 1
        },
        {
          "duration": 0.015625,
          "durationTicks": 12,
          "midi": 42,
          "name": "F#2",
          "ticks": 18628,
          "time": 24.255208333333332,
          "velocity": 0.33858267716535434
        },
        {
          "duration": 0.015625,
          "durationTicks": 12,
          "midi": 42,
          "name": "F#2",
          "ticks": 18820,
          "time": 24.505208333333332,
          "velocity": 1
        },
        {
          "duration": 0.01822916666666785,
          "durationTicks": 14,
          "midi": 42,
          "name": "F#2",
          "ticks": 19012,
          "time": 24.755208333333332,
          "velocity": 0.33858267716535434
        },
        {
          "duration": 0.01822916666666785,
          "durationTicks": 14,
          "midi": 42,
          "name": "F#2",
          "ticks": 19204,
          "time": 25.005208333333332,
          "velocity": 1
        },
        {
          "duration": 0.01822916666666785,
          "durationTicks": 14,
          "midi": 42,
          "name": "F#2",
          "ticks": 19396,
          "time": 25.255208333333332,
          "velocity": 0.33858267716535434
        },
        {
          "duration": 0.01822916666666785,
          "durationTicks": 14,
          "midi": 42,
          "name": "F#2",
          "ticks": 19588,
          "time": 25.505208333333332,
          "velocity": 1
        },
        {
          "duration": 0.01822916666666785,
          "durationTicks": 14,
          "midi": 42,
          "name": "F#2",
          "ticks": 19780,
          "time": 25.755208333333332,
          "velocity": 0.33858267716535434
        },
        {
          "duration": 0.01822916666666785,
          "durationTicks": 14,
          "midi": 42,
          "name": "F#2",
          "ticks": 19972,
          "time": 26.005208333333332,
          "velocity": 1
        },
        {
          "duration": 0.018229166666664298,
          "durationTicks": 14,
          "midi": 42,
          "name": "F#2",
          "ticks": 20162,
          "time": 26.252604166666668,
          "velocity": 0.33858267716535434
        },
        {
          "duration": 0.01822916666666785,
          "durationTicks": 14,
          "midi": 42,
          "name": "F#2",
          "ticks": 20356,
          "time": 26.505208333333332,
          "velocity": 1
        },
        {
          "duration": 0.015625,
          "durationTicks": 12,
          "midi": 42,
          "name": "F#2",
          "ticks": 20548,
          "time": 26.755208333333332,
          "velocity": 0.33858267716535434
        },
        {
          "duration": 0.01822916666666785,
          "durationTicks": 14,
          "midi": 42,
          "name": "F#2",
          "ticks": 20740,
          "time": 27.005208333333332,
          "velocity": 1
        },
        {
          "duration": 0.01822916666666785,
          "durationTicks": 14,
          "midi": 42,
          "name": "F#2",
          "ticks": 20932,
          "time": 27.255208333333332,
          "velocity": 0.33858267716535434
        },
        {
          "duration": 0.01822916666666785,
          "durationTicks": 14,
          "midi": 42,
          "name": "F#2",
          "ticks": 21124,
          "time": 27.505208333333332,
          "velocity": 1
        },
        {
          "duration": 0.01822916666666785,
          "durationTicks": 14,
          "midi": 42,
          "name": "F#2",
          "ticks": 21508,
          "time": 28.005208333333332,
          "velocity": 1
        },
        {
          "duration": 0.018229166666664298,
          "durationTicks": 14,
          "midi": 42,
          "name": "F#2",
          "ticks": 21698,
          "time": 28.252604166666668,
          "velocity": 0.33858267716535434
        },
        {
          "duration": 0.01822916666666785,
          "durationTicks": 14,
          "midi": 42,
          "name": "F#2",
          "ticks": 21892,
          "time": 28.505208333333332,
          "velocity": 1
        },
        {
          "duration": 0.018229166666664298,
          "durationTicks": 14,
          "midi": 42,
          "name": "F#2",
          "ticks": 22082,
          "time": 28.752604166666668,
          "velocity": 0.33858267716535434
        },
        {
          "duration": 0.01822916666666785,
          "durationTicks": 14,
          "midi": 42,
          "name": "F#2",
          "ticks": 22276,
          "time": 29.005208333333332,
          "velocity": 1
        },
        {
          "duration": 0.015625,
          "durationTicks": 12,
          "midi": 42,
          "name": "F#2",
          "ticks": 22468,
          "time": 29.255208333333332,
          "velocity": 0.33858267716535434
        },
        {
          "duration": 0.01822916666666785,
          "durationTicks": 14,
          "midi": 42,
          "name": "F#2",
          "ticks": 22660,
          "time": 29.505208333333332,
          "velocity": 1
        },
        {
          "duration": 0.015625,
          "durationTicks": 12,
          "midi": 42,
          "name": "F#2",
          "ticks": 22852,
          "time": 29.755208333333332,
          "velocity": 0.33858267716535434
        },
        {
          "duration": 0.01822916666666785,
          "durationTicks": 14,
          "midi": 42,
          "name": "F#2",
          "ticks": 23044,
          "time": 30.005208333333332,
          "velocity": 1
        },
        {
          "duration": 0.01822916666666785,
          "durationTicks": 14,
          "midi": 42,
          "name": "F#2",
          "ticks": 23236,
          "time": 30.255208333333332,
          "velocity": 0.33858267716535434
        },
        {
          "duration": 0.02083333333333215,
          "durationTicks": 16,
          "midi": 42,
          "name": "F#2",
          "ticks": 23426,
          "time": 30.502604166666668,
          "velocity": 1
        },
        {
          "duration": 0.01822916666666785,
          "durationTicks": 14,
          "midi": 42,
          "name": "F#2",
          "ticks": 23620,
          "time": 30.755208333333332,
          "velocity": 0.33858267716535434
        },
        {
          "duration": 0.01822916666666785,
          "durationTicks": 14,
          "midi": 42,
          "name": "F#2",
          "ticks": 23812,
          "time": 31.005208333333332,
          "velocity": 1
        },
        {
          "duration": 0.01822916666666785,
          "durationTicks": 14,
          "midi": 42,
          "name": "F#2",
          "ticks": 24004,
          "time": 31.255208333333332,
          "velocity": 0.33858267716535434
        },
        {
          "duration": 0.01822916666666785,
          "durationTicks": 14,
          "midi": 42,
          "name": "F#2",
          "ticks": 24196,
          "time": 31.505208333333332,
          "velocity": 1
        },
        {
          "duration": 0.018229166666664298,
          "durationTicks": 14,
          "midi": 42,
          "name": "F#2",
          "ticks": 24580,
          "time": 32.005208333333336,
          "velocity": 1
        },
        {
          "duration": 0.018229166666671404,
          "durationTicks": 14,
          "midi": 42,
          "name": "F#2",
          "ticks": 24770,
          "time": 32.252604166666664,
          "velocity": 0.33858267716535434
        },
        {
          "duration": 0.018229166666664298,
          "durationTicks": 14,
          "midi": 42,
          "name": "F#2",
          "ticks": 24964,
          "time": 32.505208333333336,
          "velocity": 1
        },
        {
          "duration": 0.018229166666671404,
          "durationTicks": 14,
          "midi": 42,
          "name": "F#2",
          "ticks": 25154,
          "time": 32.752604166666664,
          "velocity": 0.33858267716535434
        },
        {
          "duration": 0.018229166666664298,
          "durationTicks": 14,
          "midi": 42,
          "name": "F#2",
          "ticks": 25348,
          "time": 33.005208333333336,
          "velocity": 1
        },
        {
          "duration": 0.018229166666671404,
          "durationTicks": 14,
          "midi": 42,
          "name": "F#2",
          "ticks": 25538,
          "time": 33.252604166666664,
          "velocity": 0.33858267716535434
        },
        {
          "duration": 0.018229166666664298,
          "durationTicks": 14,
          "midi": 42,
          "name": "F#2",
          "ticks": 25732,
          "time": 33.505208333333336,
          "velocity": 1
        },
        {
          "duration": 0.018229166666671404,
          "durationTicks": 14,
          "midi": 42,
          "name": "F#2",
          "ticks": 25922,
          "time": 33.752604166666664,
          "velocity": 0.33858267716535434
        },
        {
          "duration": 0.018229166666664298,
          "durationTicks": 14,
          "midi": 42,
          "name": "F#2",
          "ticks": 26116,
          "time": 34.005208333333336,
          "velocity": 1
        },
        {
          "duration": 0.018229166666671404,
          "durationTicks": 14,
          "midi": 42,
          "name": "F#2",
          "ticks": 26306,
          "time": 34.252604166666664,
          "velocity": 0.33858267716535434
        },
        {
          "duration": 0.018229166666664298,
          "durationTicks": 14,
          "midi": 42,
          "name": "F#2",
          "ticks": 26500,
          "time": 34.505208333333336,
          "velocity": 1
        },
        {
          "duration": 0.015625,
          "durationTicks": 12,
          "midi": 42,
          "name": "F#2",
          "ticks": 26692,
          "time": 34.755208333333336,
          "velocity": 0.33858267716535434
        },
        {
          "duration": 0.018229166666664298,
          "durationTicks": 14,
          "midi": 42,
          "name": "F#2",
          "ticks": 26884,
          "time": 35.005208333333336,
          "velocity": 1
        },
        {
          "duration": 0.018229166666671404,
          "durationTicks": 14,
          "midi": 42,
          "name": "F#2",
          "ticks": 27074,
          "time": 35.252604166666664,
          "velocity": 0.33858267716535434
        },
        {
          "duration": 0.018229166666664298,
          "durationTicks": 14,
          "midi": 42,
          "name": "F#2",
          "ticks": 27268,
          "time": 35.505208333333336,
          "velocity": 1
        },
        {
          "duration": 0.018229166666664298,
          "durationTicks": 14,
          "midi": 42,
          "name": "F#2",
          "ticks": 27652,
          "time": 36.005208333333336,
          "velocity": 1
        },
        {
          "duration": 0.018229166666671404,
          "durationTicks": 14,
          "midi": 42,
          "name": "F#2",
          "ticks": 27842,
          "time": 36.252604166666664,
          "velocity": 0.33858267716535434
        },
        {
          "duration": 0.018229166666664298,
          "durationTicks": 14,
          "midi": 42,
          "name": "F#2",
          "ticks": 28036,
          "time": 36.505208333333336,
          "velocity": 1
        },
        {
          "duration": 0.015625,
          "durationTicks": 12,
          "midi": 42,
          "name": "F#2",
          "ticks": 28228,
          "time": 36.755208333333336,
          "velocity": 0.33858267716535434
        },
        {
          "duration": 0.015625,
          "durationTicks": 12,
          "midi": 42,
          "name": "F#2",
          "ticks": 28420,
          "time": 37.005208333333336,
          "velocity": 1
        },
        {
          "duration": 0.018229166666671404,
          "durationTicks": 14,
          "midi": 42,
          "name": "F#2",
          "ticks": 28610,
          "time": 37.252604166666664,
          "velocity": 0.33858267716535434
        },
        {
          "duration": 0.018229166666664298,
          "durationTicks": 14,
          "midi": 42,
          "name": "F#2",
          "ticks": 28804,
          "time": 37.505208333333336,
          "velocity": 1
        },
        {
          "duration": 0.015625,
          "durationTicks": 12,
          "midi": 42,
          "name": "F#2",
          "ticks": 28996,
          "time": 37.755208333333336,
          "velocity": 0.33858267716535434
        },
        {
          "duration": 0.015625,
          "durationTicks": 12,
          "midi": 42,
          "name": "F#2",
          "ticks": 29188,
          "time": 38.005208333333336,
          "velocity": 1
        },
        {
          "duration": 0.018229166666671404,
          "durationTicks": 14,
          "midi": 42,
          "name": "F#2",
          "ticks": 29378,
          "time": 38.252604166666664,
          "velocity": 0.33858267716535434
        },
        {
          "duration": 0.018229166666664298,
          "durationTicks": 14,
          "midi": 42,
          "name": "F#2",
          "ticks": 29572,
          "time": 38.505208333333336,
          "velocity": 1
        },
        {
          "duration": 0.015625,
          "durationTicks": 12,
          "midi": 42,
          "name": "F#2",
          "ticks": 29764,
          "time": 38.755208333333336,
          "velocity": 0.33858267716535434
        },
        {
          "duration": 0.015625,
          "durationTicks": 12,
          "midi": 42,
          "name": "F#2",
          "ticks": 29956,
          "time": 39.005208333333336,
          "velocity": 1
        },
        {
          "duration": 0.018229166666671404,
          "durationTicks": 14,
          "midi": 42,
          "name": "F#2",
          "ticks": 30146,
          "time": 39.252604166666664,
          "velocity": 0.33858267716535434
        },
        {
          "duration": 0.015625,
          "durationTicks": 12,
          "midi": 42,
          "name": "F#2",
          "ticks": 30340,
          "time": 39.505208333333336,
          "velocity": 1
        },
        {
          "duration": 0.018229166666664298,
          "durationTicks": 14,
          "midi": 42,
          "name": "F#2",
          "ticks": 30724,
          "time": 40.005208333333336,
          "velocity": 1
        },
        {
          "duration": 0.018229166666671404,
          "durationTicks": 14,
          "midi": 42,
          "name": "F#2",
          "ticks": 30914,
          "time": 40.252604166666664,
          "velocity": 0.33858267716535434
        },
        {
          "duration": 0.018229166666671404,
          "durationTicks": 14,
          "midi": 42,
          "name": "F#2",
          "ticks": 31106,
          "time": 40.502604166666664,
          "velocity": 1
        },
        {
          "duration": 0.018229166666671404,
          "durationTicks": 14,
          "midi": 42,
          "name": "F#2",
          "ticks": 31298,
          "time": 40.752604166666664,
          "velocity": 0.33858267716535434
        },
        {
          "duration": 0.018229166666664298,
          "durationTicks": 14,
          "midi": 42,
          "name": "F#2",
          "ticks": 31492,
          "time": 41.005208333333336,
          "velocity": 1
        },
        {
          "duration": 0.018229166666671404,
          "durationTicks": 14,
          "midi": 42,
          "name": "F#2",
          "ticks": 31682,
          "time": 41.252604166666664,
          "velocity": 0.33858267716535434
        },
        {
          "duration": 0.018229166666664298,
          "durationTicks": 14,
          "midi": 42,
          "name": "F#2",
          "ticks": 31876,
          "time": 41.505208333333336,
          "velocity": 1
        },
        {
          "duration": 0.015625,
          "durationTicks": 12,
          "midi": 42,
          "name": "F#2",
          "ticks": 32068,
          "time": 41.755208333333336,
          "velocity": 0.33858267716535434
        },
        {
          "duration": 0.018229166666664298,
          "durationTicks": 14,
          "midi": 42,
          "name": "F#2",
          "ticks": 32260,
          "time": 42.005208333333336,
          "velocity": 1
        },
        {
          "duration": 0.018229166666671404,
          "durationTicks": 14,
          "midi": 42,
          "name": "F#2",
          "ticks": 32450,
          "time": 42.252604166666664,
          "velocity": 0.33858267716535434
        },
        {
          "duration": 0.018229166666664298,
          "durationTicks": 14,
          "midi": 42,
          "name": "F#2",
          "ticks": 32644,
          "time": 42.505208333333336,
          "velocity": 1
        },
        {
          "duration": 0.015625,
          "durationTicks": 12,
          "midi": 42,
          "name": "F#2",
          "ticks": 32836,
          "time": 42.755208333333336,
          "velocity": 0.33858267716535434
        },
        {
          "duration": 0.015625,
          "durationTicks": 12,
          "midi": 42,
          "name": "F#2",
          "ticks": 33028,
          "time": 43.005208333333336,
          "velocity": 1
        },
        {
          "duration": 0.018229166666664298,
          "durationTicks": 14,
          "midi": 42,
          "name": "F#2",
          "ticks": 33220,
          "time": 43.255208333333336,
          "velocity": 0.33858267716535434
        },
        {
          "duration": 0.018229166666664298,
          "durationTicks": 14,
          "midi": 42,
          "name": "F#2",
          "ticks": 33412,
          "time": 43.505208333333336,
          "velocity": 1
        },
        {
          "duration": 0.018229166666664298,
          "durationTicks": 14,
          "midi": 42,
          "name": "F#2",
          "ticks": 33796,
          "time": 44.005208333333336,
          "velocity": 1
        },
        {
          "duration": 0.018229166666671404,
          "durationTicks": 14,
          "midi": 42,
          "name": "F#2",
          "ticks": 33986,
          "time": 44.252604166666664,
          "velocity": 0.33858267716535434
        },
        {
          "duration": 0.018229166666664298,
          "durationTicks": 14,
          "midi": 42,
          "name": "F#2",
          "ticks": 34180,
          "time": 44.505208333333336,
          "velocity": 1
        },
        {
          "duration": 0.015625,
          "durationTicks": 12,
          "midi": 42,
          "name": "F#2",
          "ticks": 34372,
          "time": 44.755208333333336,
          "velocity": 0.33858267716535434
        },
        {
          "duration": 0.015625,
          "durationTicks": 12,
          "midi": 42,
          "name": "F#2",
          "ticks": 34564,
          "time": 45.005208333333336,
          "velocity": 1
        },
        {
          "duration": 0.018229166666671404,
          "durationTicks": 14,
          "midi": 42,
          "name": "F#2",
          "ticks": 34754,
          "time": 45.252604166666664,
          "velocity": 0.33858267716535434
        },
        {
          "duration": 0.018229166666664298,
          "durationTicks": 14,
          "midi": 42,
          "name": "F#2",
          "ticks": 34948,
          "time": 45.505208333333336,
          "velocity": 1
        },
        {
          "duration": 0.015625,
          "durationTicks": 12,
          "midi": 42,
          "name": "F#2",
          "ticks": 35140,
          "time": 45.755208333333336,
          "velocity": 0.33858267716535434
        },
        {
          "duration": 0.015625,
          "durationTicks": 12,
          "midi": 42,
          "name": "F#2",
          "ticks": 35332,
          "time": 46.005208333333336,
          "velocity": 1
        },
        {
          "duration": 0.018229166666671404,
          "durationTicks": 14,
          "midi": 42,
          "name": "F#2",
          "ticks": 35522,
          "time": 46.252604166666664,
          "velocity": 0.33858267716535434
        },
        {
          "duration": 0.018229166666664298,
          "durationTicks": 14,
          "midi": 42,
          "name": "F#2",
          "ticks": 35716,
          "time": 46.505208333333336,
          "velocity": 1
        },
        {
          "duration": 0.018229166666671404,
          "durationTicks": 14,
          "midi": 42,
          "name": "F#2",
          "ticks": 35906,
          "time": 46.752604166666664,
          "velocity": 0.33858267716535434
        },
        {
          "duration": 0.018229166666664298,
          "durationTicks": 14,
          "midi": 42,
          "name": "F#2",
          "ticks": 36100,
          "time": 47.005208333333336,
          "velocity": 1
        },
        {
          "duration": 0.018229166666671404,
          "durationTicks": 14,
          "midi": 42,
          "name": "F#2",
          "ticks": 36290,
          "time": 47.252604166666664,
          "velocity": 0.33858267716535434
        },
        {
          "duration": 0.018229166666664298,
          "durationTicks": 14,
          "midi": 42,
          "name": "F#2",
          "ticks": 36484,
          "time": 47.505208333333336,
          "velocity": 1
        },
        {
          "duration": 0.018229166666664298,
          "durationTicks": 14,
          "midi": 42,
          "name": "F#2",
          "ticks": 36868,
          "time": 48.005208333333336,
          "velocity": 1
        },
        {
          "duration": 0.018229166666671404,
          "durationTicks": 14,
          "midi": 42,
          "name": "F#2",
          "ticks": 37058,
          "time": 48.252604166666664,
          "velocity": 0.33858267716535434
        },
        {
          "duration": 0.018229166666664298,
          "durationTicks": 14,
          "midi": 42,
          "name": "F#2",
          "ticks": 37252,
          "time": 48.505208333333336,
          "velocity": 1
        },
        {
          "duration": 0.015625,
          "durationTicks": 12,
          "midi": 42,
          "name": "F#2",
          "ticks": 37444,
          "time": 48.755208333333336,
          "velocity": 0.33858267716535434
        },
        {
          "duration": 0.015625,
          "durationTicks": 12,
          "midi": 42,
          "name": "F#2",
          "ticks": 37636,
          "time": 49.005208333333336,
          "velocity": 1
        },
        {
          "duration": 0.018229166666671404,
          "durationTicks": 14,
          "midi": 42,
          "name": "F#2",
          "ticks": 37826,
          "time": 49.252604166666664,
          "velocity": 0.33858267716535434
        },
        {
          "duration": 0.018229166666664298,
          "durationTicks": 14,
          "midi": 42,
          "name": "F#2",
          "ticks": 38020,
          "time": 49.505208333333336,
          "velocity": 1
        },
        {
          "duration": 0.018229166666671404,
          "durationTicks": 14,
          "midi": 42,
          "name": "F#2",
          "ticks": 38210,
          "time": 49.752604166666664,
          "velocity": 0.33858267716535434
        },
        {
          "duration": 0.018229166666664298,
          "durationTicks": 14,
          "midi": 42,
          "name": "F#2",
          "ticks": 38404,
          "time": 50.005208333333336,
          "velocity": 1
        },
        {
          "duration": 0.018229166666671404,
          "durationTicks": 14,
          "midi": 42,
          "name": "F#2",
          "ticks": 38594,
          "time": 50.252604166666664,
          "velocity": 0.33858267716535434
        },
        {
          "duration": 0.015625,
          "durationTicks": 12,
          "midi": 42,
          "name": "F#2",
          "ticks": 38788,
          "time": 50.505208333333336,
          "velocity": 1
        },
        {
          "duration": 0.018229166666671404,
          "durationTicks": 14,
          "midi": 42,
          "name": "F#2",
          "ticks": 38978,
          "time": 50.752604166666664,
          "velocity": 0.33858267716535434
        },
        {
          "duration": 0.018229166666664298,
          "durationTicks": 14,
          "midi": 42,
          "name": "F#2",
          "ticks": 39172,
          "time": 51.005208333333336,
          "velocity": 1
        },
        {
          "duration": 0.018229166666671404,
          "durationTicks": 14,
          "midi": 42,
          "name": "F#2",
          "ticks": 39362,
          "time": 51.252604166666664,
          "velocity": 0.33858267716535434
        },
        {
          "duration": 0.020833333333335702,
          "durationTicks": 16,
          "midi": 42,
          "name": "F#2",
          "ticks": 39554,
          "time": 51.502604166666664,
          "velocity": 1
        },
        {
          "duration": 0.018229166666664298,
          "durationTicks": 14,
          "midi": 42,
          "name": "F#2",
          "ticks": 39940,
          "time": 52.005208333333336,
          "velocity": 1
        },
        {
          "duration": 0.015625,
          "durationTicks": 12,
          "midi": 42,
          "name": "F#2",
          "ticks": 40132,
          "time": 52.255208333333336,
          "velocity": 0.33858267716535434
        },
        {
          "duration": 0.018229166666664298,
          "durationTicks": 14,
          "midi": 42,
          "name": "F#2",
          "ticks": 40324,
          "time": 52.505208333333336,
          "velocity": 1
        },
        {
          "duration": 0.015625,
          "durationTicks": 12,
          "midi": 42,
          "name": "F#2",
          "ticks": 40516,
          "time": 52.755208333333336,
          "velocity": 0.33858267716535434
        },
        {
          "duration": 0.018229166666664298,
          "durationTicks": 14,
          "midi": 42,
          "name": "F#2",
          "ticks": 40708,
          "time": 53.005208333333336,
          "velocity": 1
        },
        {
          "duration": 0.018229166666671404,
          "durationTicks": 14,
          "midi": 42,
          "name": "F#2",
          "ticks": 40898,
          "time": 53.252604166666664,
          "velocity": 0.33858267716535434
        },
        {
          "duration": 0.015625,
          "durationTicks": 12,
          "midi": 42,
          "name": "F#2",
          "ticks": 41092,
          "time": 53.505208333333336,
          "velocity": 1
        },
        {
          "duration": 0.018229166666671404,
          "durationTicks": 14,
          "midi": 42,
          "name": "F#2",
          "ticks": 41282,
          "time": 53.752604166666664,
          "velocity": 0.33858267716535434
        },
        {
          "duration": 0.018229166666664298,
          "durationTicks": 14,
          "midi": 42,
          "name": "F#2",
          "ticks": 41476,
          "time": 54.005208333333336,
          "velocity": 1
        },
        {
          "duration": 0.018229166666671404,
          "durationTicks": 14,
          "midi": 42,
          "name": "F#2",
          "ticks": 41666,
          "time": 54.252604166666664,
          "velocity": 0.33858267716535434
        },
        {
          "duration": 0.018229166666664298,
          "durationTicks": 14,
          "midi": 42,
          "name": "F#2",
          "ticks": 41860,
          "time": 54.505208333333336,
          "velocity": 1
        },
        {
          "duration": 0.018229166666671404,
          "durationTicks": 14,
          "midi": 42,
          "name": "F#2",
          "ticks": 42050,
          "time": 54.752604166666664,
          "velocity": 0.33858267716535434
        },
        {
          "duration": 0.018229166666664298,
          "durationTicks": 14,
          "midi": 42,
          "name": "F#2",
          "ticks": 42244,
          "time": 55.005208333333336,
          "velocity": 1
        },
        {
          "duration": 0.018229166666671404,
          "durationTicks": 14,
          "midi": 42,
          "name": "F#2",
          "ticks": 42434,
          "time": 55.252604166666664,
          "velocity": 0.33858267716535434
        },
        {
          "duration": 0.018229166666664298,
          "durationTicks": 14,
          "midi": 42,
          "name": "F#2",
          "ticks": 42628,
          "time": 55.505208333333336,
          "velocity": 1
        },
        {
          "duration": 0.015625,
          "durationTicks": 12,
          "midi": 42,
          "name": "F#2",
          "ticks": 43012,
          "time": 56.005208333333336,
          "velocity": 1
        },
        {
          "duration": 0.018229166666671404,
          "durationTicks": 14,
          "midi": 42,
          "name": "F#2",
          "ticks": 43202,
          "time": 56.252604166666664,
          "velocity": 0.33858267716535434
        },
        {
          "duration": 0.018229166666664298,
          "durationTicks": 14,
          "midi": 42,
          "name": "F#2",
          "ticks": 43396,
          "time": 56.505208333333336,
          "velocity": 1
        },
        {
          "duration": 0.015625,
          "durationTicks": 12,
          "midi": 42,
          "name": "F#2",
          "ticks": 43588,
          "time": 56.755208333333336,
          "velocity": 0.33858267716535434
        },
        {
          "duration": 0.015625,
          "durationTicks": 12,
          "midi": 42,
          "name": "F#2",
          "ticks": 43780,
          "time": 57.005208333333336,
          "velocity": 1
        },
        {
          "duration": 0.018229166666671404,
          "durationTicks": 14,
          "midi": 42,
          "name": "F#2",
          "ticks": 43970,
          "time": 57.252604166666664,
          "velocity": 0.33858267716535434
        },
        {
          "duration": 0.018229166666664298,
          "durationTicks": 14,
          "midi": 42,
          "name": "F#2",
          "ticks": 44164,
          "time": 57.505208333333336,
          "velocity": 1
        },
        {
          "duration": 0.015625,
          "durationTicks": 12,
          "midi": 42,
          "name": "F#2",
          "ticks": 44356,
          "time": 57.755208333333336,
          "velocity": 0.33858267716535434
        },
        {
          "duration": 0.015625,
          "durationTicks": 12,
          "midi": 42,
          "name": "F#2",
          "ticks": 44548,
          "time": 58.005208333333336,
          "velocity": 1
        },
        {
          "duration": 0.015625,
          "durationTicks": 12,
          "midi": 42,
          "name": "F#2",
          "ticks": 44740,
          "time": 58.255208333333336,
          "velocity": 0.33858267716535434
        },
        {
          "duration": 0.018229166666664298,
          "durationTicks": 14,
          "midi": 42,
          "name": "F#2",
          "ticks": 44932,
          "time": 58.505208333333336,
          "velocity": 1
        },
        {
          "duration": 0.018229166666664298,
          "durationTicks": 14,
          "midi": 42,
          "name": "F#2",
          "ticks": 45124,
          "time": 58.755208333333336,
          "velocity": 0.33858267716535434
        },
        {
          "duration": 0.015625,
          "durationTicks": 12,
          "midi": 42,
          "name": "F#2",
          "ticks": 45318,
          "time": 59.0078125,
          "velocity": 1
        },
        {
          "duration": 0.018229166666664298,
          "durationTicks": 14,
          "midi": 42,
          "name": "F#2",
          "ticks": 45508,
          "time": 59.255208333333336,
          "velocity": 0.33858267716535434
        },
        {
          "duration": 0.018229166666664298,
          "durationTicks": 14,
          "midi": 42,
          "name": "F#2",
          "ticks": 45700,
          "time": 59.505208333333336,
          "velocity": 1
        },
        {
          "duration": 0.018229166666664298,
          "durationTicks": 14,
          "midi": 42,
          "name": "F#2",
          "ticks": 46084,
          "time": 60.005208333333336,
          "velocity": 1
        },
        {
          "duration": 0.015625,
          "durationTicks": 12,
          "midi": 42,
          "name": "F#2",
          "ticks": 46276,
          "time": 60.255208333333336,
          "velocity": 0.33858267716535434
        },
        {
          "duration": 0.018229166666664298,
          "durationTicks": 14,
          "midi": 42,
          "name": "F#2",
          "ticks": 46468,
          "time": 60.505208333333336,
          "velocity": 1
        },
        {
          "duration": 0.015625,
          "durationTicks": 12,
          "midi": 42,
          "name": "F#2",
          "ticks": 46660,
          "time": 60.755208333333336,
          "velocity": 0.33858267716535434
        },
        {
          "duration": 0.018229166666664298,
          "durationTicks": 14,
          "midi": 42,
          "name": "F#2",
          "ticks": 46852,
          "time": 61.005208333333336,
          "velocity": 1
        },
        {
          "duration": 0.018229166666664298,
          "durationTicks": 14,
          "midi": 42,
          "name": "F#2",
          "ticks": 47044,
          "time": 61.255208333333336,
          "velocity": 0.33858267716535434
        },
        {
          "duration": 0.018229166666664298,
          "durationTicks": 14,
          "midi": 42,
          "name": "F#2",
          "ticks": 47236,
          "time": 61.505208333333336,
          "velocity": 1
        },
        {
          "duration": 0.018229166666664298,
          "durationTicks": 14,
          "midi": 42,
          "name": "F#2",
          "ticks": 47428,
          "time": 61.755208333333336,
          "velocity": 0.33858267716535434
        },
        {
          "duration": 0.018229166666664298,
          "durationTicks": 14,
          "midi": 42,
          "name": "F#2",
          "ticks": 47620,
          "time": 62.005208333333336,
          "velocity": 1
        },
        {
          "duration": 0.015625,
          "durationTicks": 12,
          "midi": 42,
          "name": "F#2",
          "ticks": 47812,
          "time": 62.255208333333336,
          "velocity": 0.33858267716535434
        },
        {
          "duration": 0.018229166666664298,
          "durationTicks": 14,
          "midi": 42,
          "name": "F#2",
          "ticks": 48004,
          "time": 62.505208333333336,
          "velocity": 1
        },
        {
          "duration": 0.018229166666664298,
          "durationTicks": 14,
          "midi": 42,
          "name": "F#2",
          "ticks": 48196,
          "time": 62.755208333333336,
          "velocity": 0.33858267716535434
        },
        {
          "duration": 0.018229166666664298,
          "durationTicks": 14,
          "midi": 42,
          "name": "F#2",
          "ticks": 48388,
          "time": 63.005208333333336,
          "velocity": 1
        },
        {
          "duration": 0.018229166666664298,
          "durationTicks": 14,
          "midi": 42,
          "name": "F#2",
          "ticks": 48580,
          "time": 63.255208333333336,
          "velocity": 0.33858267716535434
        },
        {
          "duration": 0.018229166666664298,
          "durationTicks": 14,
          "midi": 42,
          "name": "F#2",
          "ticks": 48772,
          "time": 63.505208333333336,
          "velocity": 1
        },
        {
          "duration": 0.018229166666671404,
          "durationTicks": 14,
          "midi": 42,
          "name": "F#2",
          "ticks": 49156,
          "time": 64.00520833333333,
          "velocity": 1
        },
        {
          "duration": 0.018229166666657193,
          "durationTicks": 14,
          "midi": 42,
          "name": "F#2",
          "ticks": 49346,
          "time": 64.25260416666667,
          "velocity": 0.33858267716535434
        },
        {
          "duration": 0.020833333333328596,
          "durationTicks": 16,
          "midi": 42,
          "name": "F#2",
          "ticks": 49538,
          "time": 64.50260416666667,
          "velocity": 1
        },
        {
          "duration": 0.015625,
          "durationTicks": 12,
          "midi": 42,
          "name": "F#2",
          "ticks": 49732,
          "time": 64.75520833333333,
          "velocity": 0.33858267716535434
        },
        {
          "duration": 0.018229166666671404,
          "durationTicks": 14,
          "midi": 42,
          "name": "F#2",
          "ticks": 49924,
          "time": 65.00520833333333,
          "velocity": 1
        },
        {
          "duration": 0.018229166666671404,
          "durationTicks": 14,
          "midi": 42,
          "name": "F#2",
          "ticks": 50116,
          "time": 65.25520833333333,
          "velocity": 0.33858267716535434
        },
        {
          "duration": 0.015625,
          "durationTicks": 12,
          "midi": 42,
          "name": "F#2",
          "ticks": 50308,
          "time": 65.50520833333333,
          "velocity": 1
        },
        {
          "duration": 0.018229166666671404,
          "durationTicks": 14,
          "midi": 42,
          "name": "F#2",
          "ticks": 50500,
          "time": 65.75520833333333,
          "velocity": 0.33858267716535434
        },
        {
          "duration": 0.018229166666671404,
          "durationTicks": 14,
          "midi": 42,
          "name": "F#2",
          "ticks": 50692,
          "time": 66.00520833333333,
          "velocity": 1
        },
        {
          "duration": 0.015625,
          "durationTicks": 12,
          "midi": 42,
          "name": "F#2",
          "ticks": 50884,
          "time": 66.25520833333333,
          "velocity": 0.33858267716535434
        },
        {
          "duration": 0.018229166666671404,
          "durationTicks": 14,
          "midi": 42,
          "name": "F#2",
          "ticks": 51076,
          "time": 66.50520833333333,
          "velocity": 1
        },
        {
          "duration": 0.015625,
          "durationTicks": 12,
          "midi": 42,
          "name": "F#2",
          "ticks": 51268,
          "time": 66.75520833333333,
          "velocity": 0.33858267716535434
        },
        {
          "duration": 0.018229166666671404,
          "durationTicks": 14,
          "midi": 42,
          "name": "F#2",
          "ticks": 51460,
          "time": 67.00520833333333,
          "velocity": 1
        },
        {
          "duration": 0.018229166666671404,
          "durationTicks": 14,
          "midi": 42,
          "name": "F#2",
          "ticks": 51652,
          "time": 67.25520833333333,
          "velocity": 0.33858267716535434
        },
        {
          "duration": 0.018229166666671404,
          "durationTicks": 14,
          "midi": 42,
          "name": "F#2",
          "ticks": 51844,
          "time": 67.50520833333333,
          "velocity": 1
        },
        {
          "duration": 0.018229166666671404,
          "durationTicks": 14,
          "midi": 42,
          "name": "F#2",
          "ticks": 52228,
          "time": 68.00520833333333,
          "velocity": 1
        },
        {
          "duration": 0.018229166666657193,
          "durationTicks": 14,
          "midi": 42,
          "name": "F#2",
          "ticks": 52418,
          "time": 68.25260416666667,
          "velocity": 0.33858267716535434
        },
        {
          "duration": 0.018229166666671404,
          "durationTicks": 14,
          "midi": 42,
          "name": "F#2",
          "ticks": 52612,
          "time": 68.50520833333333,
          "velocity": 1
        },
        {
          "duration": 0.018229166666671404,
          "durationTicks": 14,
          "midi": 42,
          "name": "F#2",
          "ticks": 52804,
          "time": 68.75520833333333,
          "velocity": 0.33858267716535434
        },
        {
          "duration": 0.018229166666671404,
          "durationTicks": 14,
          "midi": 42,
          "name": "F#2",
          "ticks": 52996,
          "time": 69.00520833333333,
          "velocity": 1
        },
        {
          "duration": 0.018229166666671404,
          "durationTicks": 14,
          "midi": 42,
          "name": "F#2",
          "ticks": 53188,
          "time": 69.25520833333333,
          "velocity": 0.33858267716535434
        },
        {
          "duration": 0.018229166666671404,
          "durationTicks": 14,
          "midi": 42,
          "name": "F#2",
          "ticks": 53380,
          "time": 69.50520833333333,
          "velocity": 1
        },
        {
          "duration": 0.018229166666671404,
          "durationTicks": 14,
          "midi": 42,
          "name": "F#2",
          "ticks": 53572,
          "time": 69.75520833333333,
          "velocity": 0.33858267716535434
        },
        {
          "duration": 0.018229166666671404,
          "durationTicks": 14,
          "midi": 42,
          "name": "F#2",
          "ticks": 53764,
          "time": 70.00520833333333,
          "velocity": 1
        },
        {
          "duration": 0.015625,
          "durationTicks": 12,
          "midi": 42,
          "name": "F#2",
          "ticks": 53956,
          "time": 70.25520833333333,
          "velocity": 0.33858267716535434
        },
        {
          "duration": 0.018229166666671404,
          "durationTicks": 14,
          "midi": 42,
          "name": "F#2",
          "ticks": 54148,
          "time": 70.50520833333333,
          "velocity": 1
        },
        {
          "duration": 0.015625,
          "durationTicks": 12,
          "midi": 42,
          "name": "F#2",
          "ticks": 54340,
          "time": 70.75520833333333,
          "velocity": 0.33858267716535434
        },
        {
          "duration": 0.018229166666671404,
          "durationTicks": 14,
          "midi": 42,
          "name": "F#2",
          "ticks": 54532,
          "time": 71.00520833333333,
          "velocity": 1
        },
        {
          "duration": 0.018229166666671404,
          "durationTicks": 14,
          "midi": 42,
          "name": "F#2",
          "ticks": 54724,
          "time": 71.25520833333333,
          "velocity": 0.33858267716535434
        },
        {
          "duration": 0.018229166666671404,
          "durationTicks": 14,
          "midi": 42,
          "name": "F#2",
          "ticks": 54916,
          "time": 71.50520833333333,
          "velocity": 1
        },
        {
          "duration": 0.018229166666671404,
          "durationTicks": 14,
          "midi": 42,
          "name": "F#2",
          "ticks": 55300,
          "time": 72.00520833333333,
          "velocity": 1
        },
        {
          "duration": 0.015625,
          "durationTicks": 12,
          "midi": 42,
          "name": "F#2",
          "ticks": 55492,
          "time": 72.25520833333333,
          "velocity": 0.33858267716535434
        },
        {
          "duration": 0.018229166666671404,
          "durationTicks": 14,
          "midi": 42,
          "name": "F#2",
          "ticks": 55684,
          "time": 72.50520833333333,
          "velocity": 1
        },
        {
          "duration": 0.015625,
          "durationTicks": 12,
          "midi": 42,
          "name": "F#2",
          "ticks": 55876,
          "time": 72.75520833333333,
          "velocity": 0.33858267716535434
        },
        {
          "duration": 0.018229166666671404,
          "durationTicks": 14,
          "midi": 42,
          "name": "F#2",
          "ticks": 56068,
          "time": 73.00520833333333,
          "velocity": 1
        },
        {
          "duration": 0.018229166666671404,
          "durationTicks": 14,
          "midi": 42,
          "name": "F#2",
          "ticks": 56260,
          "time": 73.25520833333333,
          "velocity": 0.33858267716535434
        },
        {
          "duration": 0.018229166666671404,
          "durationTicks": 14,
          "midi": 42,
          "name": "F#2",
          "ticks": 56452,
          "time": 73.50520833333333,
          "velocity": 1
        },
        {
          "duration": 0.015625,
          "durationTicks": 12,
          "midi": 42,
          "name": "F#2",
          "ticks": 56644,
          "time": 73.75520833333333,
          "velocity": 0.33858267716535434
        },
        {
          "duration": 0.018229166666671404,
          "durationTicks": 14,
          "midi": 42,
          "name": "F#2",
          "ticks": 56836,
          "time": 74.00520833333333,
          "velocity": 1
        },
        {
          "duration": 0.015625,
          "durationTicks": 12,
          "midi": 42,
          "name": "F#2",
          "ticks": 57028,
          "time": 74.25520833333333,
          "velocity": 0.33858267716535434
        },
        {
          "duration": 0.018229166666671404,
          "durationTicks": 14,
          "midi": 42,
          "name": "F#2",
          "ticks": 57220,
          "time": 74.50520833333333,
          "velocity": 1
        },
        {
          "duration": 0.015625,
          "durationTicks": 12,
          "midi": 42,
          "name": "F#2",
          "ticks": 57412,
          "time": 74.75520833333333,
          "velocity": 0.33858267716535434
        },
        {
          "duration": 0.020833333333328596,
          "durationTicks": 16,
          "midi": 42,
          "name": "F#2",
          "ticks": 57602,
          "time": 75.00260416666667,
          "velocity": 1
        },
        {
          "duration": 0.015625,
          "durationTicks": 12,
          "midi": 42,
          "name": "F#2",
          "ticks": 57798,
          "time": 75.2578125,
          "velocity": 0.33858267716535434
        },
        {
          "duration": 0.018229166666671404,
          "durationTicks": 14,
          "midi": 42,
          "name": "F#2",
          "ticks": 57988,
          "time": 75.50520833333333,
          "velocity": 1
        },
        {
          "duration": 0.018229166666671404,
          "durationTicks": 14,
          "midi": 42,
          "name": "F#2",
          "ticks": 58372,
          "time": 76.00520833333333,
          "velocity": 1
        },
        {
          "duration": 0.018229166666671404,
          "durationTicks": 14,
          "midi": 42,
          "name": "F#2",
          "ticks": 58564,
          "time": 76.25520833333333,
          "velocity": 0.33858267716535434
        },
        {
          "duration": 0.018229166666671404,
          "durationTicks": 14,
          "midi": 42,
          "name": "F#2",
          "ticks": 58756,
          "time": 76.50520833333333,
          "velocity": 1
        },
        {
          "duration": 0.015625,
          "durationTicks": 12,
          "midi": 42,
          "name": "F#2",
          "ticks": 58948,
          "time": 76.75520833333333,
          "velocity": 0.33858267716535434
        },
        {
          "duration": 0.015625,
          "durationTicks": 12,
          "midi": 42,
          "name": "F#2",
          "ticks": 59140,
          "time": 77.00520833333333,
          "velocity": 1
        },
        {
          "duration": 0.018229166666671404,
          "durationTicks": 14,
          "midi": 42,
          "name": "F#2",
          "ticks": 59332,
          "time": 77.25520833333333,
          "velocity": 0.33858267716535434
        },
        {
          "duration": 0.018229166666671404,
          "durationTicks": 14,
          "midi": 42,
          "name": "F#2",
          "ticks": 59524,
          "time": 77.50520833333333,
          "velocity": 1
        },
        {
          "duration": 0.015625,
          "durationTicks": 12,
          "midi": 42,
          "name": "F#2",
          "ticks": 59716,
          "time": 77.75520833333333,
          "velocity": 0.33858267716535434
        },
        {
          "duration": 0.015625,
          "durationTicks": 12,
          "midi": 42,
          "name": "F#2",
          "ticks": 59908,
          "time": 78.00520833333333,
          "velocity": 1
        },
        {
          "duration": 0.018229166666657193,
          "durationTicks": 14,
          "midi": 42,
          "name": "F#2",
          "ticks": 60098,
          "time": 78.25260416666667,
          "velocity": 0.33858267716535434
        },
        {
          "duration": 0.018229166666671404,
          "durationTicks": 14,
          "midi": 42,
          "name": "F#2",
          "ticks": 60292,
          "time": 78.50520833333333,
          "velocity": 1
        },
        {
          "duration": 0.015625,
          "durationTicks": 12,
          "midi": 42,
          "name": "F#2",
          "ticks": 60484,
          "time": 78.75520833333333,
          "velocity": 0.33858267716535434
        },
        {
          "duration": 0.015625,
          "durationTicks": 12,
          "midi": 42,
          "name": "F#2",
          "ticks": 60676,
          "time": 79.00520833333333,
          "velocity": 1
        },
        {
          "duration": 0.018229166666657193,
          "durationTicks": 14,
          "midi": 42,
          "name": "F#2",
          "ticks": 60866,
          "time": 79.25260416666667,
          "velocity": 0.33858267716535434
        },
        {
          "duration": 0.018229166666671404,
          "durationTicks": 14,
          "midi": 42,
          "name": "F#2",
          "ticks": 61060,
          "time": 79.50520833333333,
          "velocity": 1
        },
        {
          "duration": 0.015625,
          "durationTicks": 12,
          "midi": 42,
          "name": "F#2",
          "ticks": 61444,
          "time": 80.00520833333333,
          "velocity": 1
        },
        {
          "duration": 0.018229166666657193,
          "durationTicks": 14,
          "midi": 42,
          "name": "F#2",
          "ticks": 61634,
          "time": 80.25260416666667,
          "velocity": 0.33858267716535434
        },
        {
          "duration": 0.018229166666671404,
          "durationTicks": 14,
          "midi": 42,
          "name": "F#2",
          "ticks": 61828,
          "time": 80.50520833333333,
          "velocity": 1
        },
        {
          "duration": 0.018229166666657193,
          "durationTicks": 14,
          "midi": 42,
          "name": "F#2",
          "ticks": 62018,
          "time": 80.75260416666667,
          "velocity": 0.33858267716535434
        },
        {
          "duration": 0.018229166666671404,
          "durationTicks": 14,
          "midi": 42,
          "name": "F#2",
          "ticks": 62212,
          "time": 81.00520833333333,
          "velocity": 1
        },
        {
          "duration": 0.018229166666657193,
          "durationTicks": 14,
          "midi": 42,
          "name": "F#2",
          "ticks": 62402,
          "time": 81.25260416666667,
          "velocity": 0.33858267716535434
        },
        {
          "duration": 0.018229166666671404,
          "durationTicks": 14,
          "midi": 42,
          "name": "F#2",
          "ticks": 62596,
          "time": 81.50520833333333,
          "velocity": 1
        },
        {
          "duration": 0.015625,
          "durationTicks": 12,
          "midi": 42,
          "name": "F#2",
          "ticks": 62788,
          "time": 81.75520833333333,
          "velocity": 0.33858267716535434
        },
        {
          "duration": 0.015625,
          "durationTicks": 12,
          "midi": 42,
          "name": "F#2",
          "ticks": 62980,
          "time": 82.00520833333333,
          "velocity": 1
        },
        {
          "duration": 0.018229166666657193,
          "durationTicks": 14,
          "midi": 42,
          "name": "F#2",
          "ticks": 63170,
          "time": 82.25260416666667,
          "velocity": 0.33858267716535434
        },
        {
          "duration": 0.018229166666671404,
          "durationTicks": 14,
          "midi": 42,
          "name": "F#2",
          "ticks": 63364,
          "time": 82.50520833333333,
          "velocity": 1
        },
        {
          "duration": 0.018229166666657193,
          "durationTicks": 14,
          "midi": 42,
          "name": "F#2",
          "ticks": 63554,
          "time": 82.75260416666667,
          "velocity": 0.33858267716535434
        },
        {
          "duration": 0.018229166666671404,
          "durationTicks": 14,
          "midi": 42,
          "name": "F#2",
          "ticks": 63748,
          "time": 83.00520833333333,
          "velocity": 1
        },
        {
          "duration": 0.018229166666657193,
          "durationTicks": 14,
          "midi": 42,
          "name": "F#2",
          "ticks": 63938,
          "time": 83.25260416666667,
          "velocity": 0.33858267716535434
        },
        {
          "duration": 0.018229166666671404,
          "durationTicks": 14,
          "midi": 42,
          "name": "F#2",
          "ticks": 64132,
          "time": 83.50520833333333,
          "velocity": 1
        },
        {
          "duration": 0.018229166666671404,
          "durationTicks": 14,
          "midi": 42,
          "name": "F#2",
          "ticks": 64516,
          "time": 84.00520833333333,
          "velocity": 1
        },
        {
          "duration": 0.018229166666657193,
          "durationTicks": 14,
          "midi": 42,
          "name": "F#2",
          "ticks": 64706,
          "time": 84.25260416666667,
          "velocity": 0.33858267716535434
        },
        {
          "duration": 0.015625,
          "durationTicks": 12,
          "midi": 42,
          "name": "F#2",
          "ticks": 64900,
          "time": 84.50520833333333,
          "velocity": 1
        },
        {
          "duration": 0.018229166666657193,
          "durationTicks": 14,
          "midi": 42,
          "name": "F#2",
          "ticks": 65090,
          "time": 84.75260416666667,
          "velocity": 0.33858267716535434
        },
        {
          "duration": 0.018229166666671404,
          "durationTicks": 14,
          "midi": 42,
          "name": "F#2",
          "ticks": 65284,
          "time": 85.00520833333333,
          "velocity": 1
        },
        {
          "duration": 0.018229166666657193,
          "durationTicks": 14,
          "midi": 42,
          "name": "F#2",
          "ticks": 65474,
          "time": 85.25260416666667,
          "velocity": 0.33858267716535434
        },
        {
          "duration": 0.018229166666671404,
          "durationTicks": 14,
          "midi": 42,
          "name": "F#2",
          "ticks": 65668,
          "time": 85.50520833333333,
          "velocity": 1
        },
        {
          "duration": 0.015625,
          "durationTicks": 12,
          "midi": 42,
          "name": "F#2",
          "ticks": 65860,
          "time": 85.75520833333333,
          "velocity": 0.33858267716535434
        },
        {
          "duration": 0.015625,
          "durationTicks": 12,
          "midi": 42,
          "name": "F#2",
          "ticks": 66052,
          "time": 86.00520833333333,
          "velocity": 1
        },
        {
          "duration": 0.015625,
          "durationTicks": 12,
          "midi": 42,
          "name": "F#2",
          "ticks": 66244,
          "time": 86.25520833333333,
          "velocity": 0.33858267716535434
        },
        {
          "duration": 0.018229166666671404,
          "durationTicks": 14,
          "midi": 42,
          "name": "F#2",
          "ticks": 66436,
          "time": 86.50520833333333,
          "velocity": 1
        },
        {
          "duration": 0.015625,
          "durationTicks": 12,
          "midi": 42,
          "name": "F#2",
          "ticks": 66628,
          "time": 86.75520833333333,
          "velocity": 0.33858267716535434
        },
        {
          "duration": 0.015625,
          "durationTicks": 12,
          "midi": 42,
          "name": "F#2",
          "ticks": 66820,
          "time": 87.00520833333333,
          "velocity": 1
        },
        {
          "duration": 0.018229166666657193,
          "durationTicks": 14,
          "midi": 42,
          "name": "F#2",
          "ticks": 67010,
          "time": 87.25260416666667,
          "velocity": 0.33858267716535434
        },
        {
          "duration": 0.018229166666671404,
          "durationTicks": 14,
          "midi": 42,
          "name": "F#2",
          "ticks": 67204,
          "time": 87.50520833333333,
          "velocity": 1
        },
        {
          "duration": 0.018229166666671404,
          "durationTicks": 14,
          "midi": 42,
          "name": "F#2",
          "ticks": 67588,
          "time": 88.00520833333333,
          "velocity": 1
        },
        {
          "duration": 0.018229166666657193,
          "durationTicks": 14,
          "midi": 42,
          "name": "F#2",
          "ticks": 67778,
          "time": 88.25260416666667,
          "velocity": 0.33858267716535434
        },
        {
          "duration": 0.015625,
          "durationTicks": 12,
          "midi": 42,
          "name": "F#2",
          "ticks": 67972,
          "time": 88.50520833333333,
          "velocity": 1
        },
        {
          "duration": 0.018229166666657193,
          "durationTicks": 14,
          "midi": 42,
          "name": "F#2",
          "ticks": 68162,
          "time": 88.75260416666667,
          "velocity": 0.33858267716535434
        },
        {
          "duration": 0.015625,
          "durationTicks": 12,
          "midi": 42,
          "name": "F#2",
          "ticks": 68356,
          "time": 89.00520833333333,
          "velocity": 1
        },
        {
          "duration": 0.018229166666657193,
          "durationTicks": 14,
          "midi": 42,
          "name": "F#2",
          "ticks": 68546,
          "time": 89.25260416666667,
          "velocity": 0.33858267716535434
        },
        {
          "duration": 0.018229166666671404,
          "durationTicks": 14,
          "midi": 42,
          "name": "F#2",
          "ticks": 68740,
          "time": 89.50520833333333,
          "velocity": 1
        },
        {
          "duration": 0.018229166666657193,
          "durationTicks": 14,
          "midi": 42,
          "name": "F#2",
          "ticks": 68930,
          "time": 89.75260416666667,
          "velocity": 0.33858267716535434
        },
        {
          "duration": 0.018229166666671404,
          "durationTicks": 14,
          "midi": 42,
          "name": "F#2",
          "ticks": 69124,
          "time": 90.00520833333333,
          "velocity": 1
        },
        {
          "duration": 0.018229166666657193,
          "durationTicks": 14,
          "midi": 42,
          "name": "F#2",
          "ticks": 69314,
          "time": 90.25260416666667,
          "velocity": 0.33858267716535434
        },
        {
          "duration": 0.018229166666671404,
          "durationTicks": 14,
          "midi": 42,
          "name": "F#2",
          "ticks": 69508,
          "time": 90.50520833333333,
          "velocity": 1
        },
        {
          "duration": 0.015625,
          "durationTicks": 12,
          "midi": 42,
          "name": "F#2",
          "ticks": 69700,
          "time": 90.75520833333333,
          "velocity": 0.33858267716535434
        },
        {
          "duration": 0.018229166666671404,
          "durationTicks": 14,
          "midi": 42,
          "name": "F#2",
          "ticks": 69892,
          "time": 91.00520833333333,
          "velocity": 1
        },
        {
          "duration": 0.018229166666657193,
          "durationTicks": 14,
          "midi": 42,
          "name": "F#2",
          "ticks": 70082,
          "time": 91.25260416666667,
          "velocity": 0.33858267716535434
        },
        {
          "duration": 0.018229166666671404,
          "durationTicks": 14,
          "midi": 42,
          "name": "F#2",
          "ticks": 70276,
          "time": 91.50520833333333,
          "velocity": 1
        },
        {
          "duration": 0.018229166666671404,
          "durationTicks": 14,
          "midi": 42,
          "name": "F#2",
          "ticks": 70660,
          "time": 92.00520833333333,
          "velocity": 1
        },
        {
          "duration": 0.018229166666657193,
          "durationTicks": 14,
          "midi": 42,
          "name": "F#2",
          "ticks": 70850,
          "time": 92.25260416666667,
          "velocity": 0.33858267716535434
        },
        {
          "duration": 0.018229166666671404,
          "durationTicks": 14,
          "midi": 42,
          "name": "F#2",
          "ticks": 71044,
          "time": 92.50520833333333,
          "velocity": 1
        },
        {
          "duration": 0.015625,
          "durationTicks": 12,
          "midi": 42,
          "name": "F#2",
          "ticks": 71236,
          "time": 92.75520833333333,
          "velocity": 0.33858267716535434
        },
        {
          "duration": 0.018229166666671404,
          "durationTicks": 14,
          "midi": 42,
          "name": "F#2",
          "ticks": 71428,
          "time": 93.00520833333333,
          "velocity": 1
        },
        {
          "duration": 0.018229166666657193,
          "durationTicks": 14,
          "midi": 42,
          "name": "F#2",
          "ticks": 71618,
          "time": 93.25260416666667,
          "velocity": 0.33858267716535434
        },
        {
          "duration": 0.018229166666671404,
          "durationTicks": 14,
          "midi": 42,
          "name": "F#2",
          "ticks": 71812,
          "time": 93.50520833333333,
          "velocity": 1
        },
        {
          "duration": 0.015625,
          "durationTicks": 12,
          "midi": 42,
          "name": "F#2",
          "ticks": 72004,
          "time": 93.75520833333333,
          "velocity": 0.33858267716535434
        },
        {
          "duration": 0.018229166666671404,
          "durationTicks": 14,
          "midi": 42,
          "name": "F#2",
          "ticks": 72196,
          "time": 94.00520833333333,
          "velocity": 1
        },
        {
          "duration": 0.018229166666657193,
          "durationTicks": 14,
          "midi": 42,
          "name": "F#2",
          "ticks": 72386,
          "time": 94.25260416666667,
          "velocity": 0.33858267716535434
        },
        {
          "duration": 0.015625,
          "durationTicks": 12,
          "midi": 42,
          "name": "F#2",
          "ticks": 72580,
          "time": 94.50520833333333,
          "velocity": 1
        },
        {
          "duration": 0.018229166666657193,
          "durationTicks": 14,
          "midi": 42,
          "name": "F#2",
          "ticks": 72770,
          "time": 94.75260416666667,
          "velocity": 0.33858267716535434
        },
        {
          "duration": 0.018229166666671404,
          "durationTicks": 14,
          "midi": 42,
          "name": "F#2",
          "ticks": 72964,
          "time": 95.00520833333333,
          "velocity": 1
        },
        {
          "duration": 0.018229166666657193,
          "durationTicks": 14,
          "midi": 42,
          "name": "F#2",
          "ticks": 73154,
          "time": 95.25260416666667,
          "velocity": 0.33858267716535434
        },
        {
          "duration": 0.018229166666671404,
          "durationTicks": 14,
          "midi": 42,
          "name": "F#2",
          "ticks": 73348,
          "time": 95.50520833333333,
          "velocity": 1
        },
        {
          "duration": 0.018229166666671404,
          "durationTicks": 14,
          "midi": 42,
          "name": "F#2",
          "ticks": 73732,
          "time": 96.00520833333333,
          "velocity": 1
        },
        {
          "duration": 0.018229166666657193,
          "durationTicks": 14,
          "midi": 42,
          "name": "F#2",
          "ticks": 73922,
          "time": 96.25260416666667,
          "velocity": 0.33858267716535434
        },
        {
          "duration": 0.018229166666671404,
          "durationTicks": 14,
          "midi": 42,
          "name": "F#2",
          "ticks": 74116,
          "time": 96.50520833333333,
          "velocity": 1
        },
        {
          "duration": 0.015625,
          "durationTicks": 12,
          "midi": 42,
          "name": "F#2",
          "ticks": 74308,
          "time": 96.75520833333333,
          "velocity": 0.33858267716535434
        },
        {
          "duration": 0.015625,
          "durationTicks": 12,
          "midi": 42,
          "name": "F#2",
          "ticks": 74500,
          "time": 97.00520833333333,
          "velocity": 1
        },
        {
          "duration": 0.018229166666657193,
          "durationTicks": 14,
          "midi": 42,
          "name": "F#2",
          "ticks": 74690,
          "time": 97.25260416666667,
          "velocity": 0.33858267716535434
        },
        {
          "duration": 0.018229166666671404,
          "durationTicks": 14,
          "midi": 42,
          "name": "F#2",
          "ticks": 74884,
          "time": 97.50520833333333,
          "velocity": 1
        },
        {
          "duration": 0.015625,
          "durationTicks": 12,
          "midi": 42,
          "name": "F#2",
          "ticks": 75076,
          "time": 97.75520833333333,
          "velocity": 0.33858267716535434
        },
        {
          "duration": 0.018229166666671404,
          "durationTicks": 14,
          "midi": 42,
          "name": "F#2",
          "ticks": 75268,
          "time": 98.00520833333333,
          "velocity": 1
        },
        {
          "duration": 0.018229166666657193,
          "durationTicks": 14,
          "midi": 42,
          "name": "F#2",
          "ticks": 75458,
          "time": 98.25260416666667,
          "velocity": 0.33858267716535434
        },
        {
          "duration": 0.018229166666657193,
          "durationTicks": 14,
          "midi": 42,
          "name": "F#2",
          "ticks": 75650,
          "time": 98.50260416666667,
          "velocity": 1
        },
        {
          "duration": 0.018229166666657193,
          "durationTicks": 14,
          "midi": 42,
          "name": "F#2",
          "ticks": 75842,
          "time": 98.75260416666667,
          "velocity": 0.33858267716535434
        },
        {
          "duration": 0.018229166666671404,
          "durationTicks": 14,
          "midi": 42,
          "name": "F#2",
          "ticks": 76036,
          "time": 99.00520833333333,
          "velocity": 1
        },
        {
          "duration": 0.018229166666657193,
          "durationTicks": 14,
          "midi": 42,
          "name": "F#2",
          "ticks": 76226,
          "time": 99.25260416666667,
          "velocity": 0.33858267716535434
        },
        {
          "duration": 0.018229166666671404,
          "durationTicks": 14,
          "midi": 42,
          "name": "F#2",
          "ticks": 76420,
          "time": 99.50520833333333,
          "velocity": 1
        },
        {
          "duration": 0.018229166666671404,
          "durationTicks": 14,
          "midi": 42,
          "name": "F#2",
          "ticks": 76804,
          "time": 100.00520833333333,
          "velocity": 1
        },
        {
          "duration": 0.015625,
          "durationTicks": 12,
          "midi": 42,
          "name": "F#2",
          "ticks": 76996,
          "time": 100.25520833333333,
          "velocity": 0.33858267716535434
        },
        {
          "duration": 0.018229166666671404,
          "durationTicks": 14,
          "midi": 42,
          "name": "F#2",
          "ticks": 77188,
          "time": 100.50520833333333,
          "velocity": 1
        },
        {
          "duration": 0.015625,
          "durationTicks": 12,
          "midi": 42,
          "name": "F#2",
          "ticks": 77380,
          "time": 100.75520833333333,
          "velocity": 0.33858267716535434
        },
        {
          "duration": 0.015625,
          "durationTicks": 12,
          "midi": 42,
          "name": "F#2",
          "ticks": 77572,
          "time": 101.00520833333333,
          "velocity": 1
        },
        {
          "duration": 0.018229166666657193,
          "durationTicks": 14,
          "midi": 42,
          "name": "F#2",
          "ticks": 77762,
          "time": 101.25260416666667,
          "velocity": 0.33858267716535434
        },
        {
          "duration": 0.018229166666671404,
          "durationTicks": 14,
          "midi": 42,
          "name": "F#2",
          "ticks": 77956,
          "time": 101.50520833333333,
          "velocity": 1
        },
        {
          "duration": 0.015625,
          "durationTicks": 12,
          "midi": 42,
          "name": "F#2",
          "ticks": 78148,
          "time": 101.75520833333333,
          "velocity": 0.33858267716535434
        },
        {
          "duration": 0.018229166666671404,
          "durationTicks": 14,
          "midi": 42,
          "name": "F#2",
          "ticks": 78340,
          "time": 102.00520833333333,
          "velocity": 1
        },
        {
          "duration": 0.018229166666657193,
          "durationTicks": 14,
          "midi": 42,
          "name": "F#2",
          "ticks": 78530,
          "time": 102.25260416666667,
          "velocity": 0.33858267716535434
        },
        {
          "duration": 0.018229166666671404,
          "durationTicks": 14,
          "midi": 42,
          "name": "F#2",
          "ticks": 78724,
          "time": 102.50520833333333,
          "velocity": 1
        },
        {
          "duration": 0.015625,
          "durationTicks": 12,
          "midi": 42,
          "name": "F#2",
          "ticks": 78916,
          "time": 102.75520833333333,
          "velocity": 0.33858267716535434
        },
        {
          "duration": 0.018229166666671404,
          "durationTicks": 14,
          "midi": 42,
          "name": "F#2",
          "ticks": 79108,
          "time": 103.00520833333333,
          "velocity": 1
        },
        {
          "duration": 0.018229166666657193,
          "durationTicks": 14,
          "midi": 42,
          "name": "F#2",
          "ticks": 79298,
          "time": 103.25260416666667,
          "velocity": 0.33858267716535434
        },
        {
          "duration": 0.018229166666671404,
          "durationTicks": 14,
          "midi": 42,
          "name": "F#2",
          "ticks": 79492,
          "time": 103.50520833333333,
          "velocity": 1
        },
        {
          "duration": 0.015625,
          "durationTicks": 12,
          "midi": 42,
          "name": "F#2",
          "ticks": 79876,
          "time": 104.00520833333333,
          "velocity": 1
        },
        {
          "duration": 0.018229166666657193,
          "durationTicks": 14,
          "midi": 42,
          "name": "F#2",
          "ticks": 80066,
          "time": 104.25260416666667,
          "velocity": 0.33858267716535434
        },
        {
          "duration": 0.015625,
          "durationTicks": 12,
          "midi": 42,
          "name": "F#2",
          "ticks": 80260,
          "time": 104.50520833333333,
          "velocity": 1
        },
        {
          "duration": 0.018229166666657193,
          "durationTicks": 14,
          "midi": 42,
          "name": "F#2",
          "ticks": 80450,
          "time": 104.75260416666667,
          "velocity": 0.33858267716535434
        },
        {
          "duration": 0.018229166666671404,
          "durationTicks": 14,
          "midi": 42,
          "name": "F#2",
          "ticks": 80644,
          "time": 105.00520833333333,
          "velocity": 1
        },
        {
          "duration": 0.018229166666657193,
          "durationTicks": 14,
          "midi": 42,
          "name": "F#2",
          "ticks": 80834,
          "time": 105.25260416666667,
          "velocity": 0.33858267716535434
        },
        {
          "duration": 0.015625,
          "durationTicks": 12,
          "midi": 42,
          "name": "F#2",
          "ticks": 81028,
          "time": 105.50520833333333,
          "velocity": 1
        },
        {
          "duration": 0.018229166666657193,
          "durationTicks": 14,
          "midi": 42,
          "name": "F#2",
          "ticks": 81218,
          "time": 105.75260416666667,
          "velocity": 0.33858267716535434
        },
        {
          "duration": 0.018229166666671404,
          "durationTicks": 14,
          "midi": 42,
          "name": "F#2",
          "ticks": 81412,
          "time": 106.00520833333333,
          "velocity": 1
        },
        {
          "duration": 0.018229166666657193,
          "durationTicks": 14,
          "midi": 42,
          "name": "F#2",
          "ticks": 81602,
          "time": 106.25260416666667,
          "velocity": 0.33858267716535434
        },
        {
          "duration": 0.018229166666671404,
          "durationTicks": 14,
          "midi": 42,
          "name": "F#2",
          "ticks": 81796,
          "time": 106.50520833333333,
          "velocity": 1
        },
        {
          "duration": 0.018229166666671404,
          "durationTicks": 14,
          "midi": 42,
          "name": "F#2",
          "ticks": 81988,
          "time": 106.75520833333333,
          "velocity": 0.33858267716535434
        },
        {
          "duration": 0.015625,
          "durationTicks": 12,
          "midi": 42,
          "name": "F#2",
          "ticks": 82182,
          "time": 107.0078125,
          "velocity": 1
        },
        {
          "duration": 0.018229166666671404,
          "durationTicks": 14,
          "midi": 42,
          "name": "F#2",
          "ticks": 82372,
          "time": 107.25520833333333,
          "velocity": 0.33858267716535434
        },
        {
          "duration": 0.018229166666671404,
          "durationTicks": 14,
          "midi": 42,
          "name": "F#2",
          "ticks": 82564,
          "time": 107.50520833333333,
          "velocity": 1
        },
        {
          "duration": 0.018229166666671404,
          "durationTicks": 14,
          "midi": 42,
          "name": "F#2",
          "ticks": 82948,
          "time": 108.00520833333333,
          "velocity": 1
        },
        {
          "duration": 0.018229166666657193,
          "durationTicks": 14,
          "midi": 42,
          "name": "F#2",
          "ticks": 83138,
          "time": 108.25260416666667,
          "velocity": 0.33858267716535434
        },
        {
          "duration": 0.018229166666671404,
          "durationTicks": 14,
          "midi": 42,
          "name": "F#2",
          "ticks": 83332,
          "time": 108.50520833333333,
          "velocity": 1
        },
        {
          "duration": 0.015625,
          "durationTicks": 12,
          "midi": 42,
          "name": "F#2",
          "ticks": 83524,
          "time": 108.75520833333333,
          "velocity": 0.33858267716535434
        },
        {
          "duration": 0.018229166666671404,
          "durationTicks": 14,
          "midi": 42,
          "name": "F#2",
          "ticks": 83716,
          "time": 109.00520833333333,
          "velocity": 1
        },
        {
          "duration": 0.018229166666671404,
          "durationTicks": 14,
          "midi": 42,
          "name": "F#2",
          "ticks": 83908,
          "time": 109.25520833333333,
          "velocity": 0.33858267716535434
        },
        {
          "duration": 0.018229166666671404,
          "durationTicks": 14,
          "midi": 42,
          "name": "F#2",
          "ticks": 84100,
          "time": 109.50520833333333,
          "velocity": 1
        },
        {
          "duration": 0.018229166666671404,
          "durationTicks": 14,
          "midi": 42,
          "name": "F#2",
          "ticks": 84292,
          "time": 109.75520833333333,
          "velocity": 0.33858267716535434
        },
        {
          "duration": 0.018229166666671404,
          "durationTicks": 14,
          "midi": 42,
          "name": "F#2",
          "ticks": 84484,
          "time": 110.00520833333333,
          "velocity": 1
        },
        {
          "duration": 0.015625,
          "durationTicks": 12,
          "midi": 42,
          "name": "F#2",
          "ticks": 84676,
          "time": 110.25520833333333,
          "velocity": 0.33858267716535434
        },
        {
          "duration": 0.018229166666671404,
          "durationTicks": 14,
          "midi": 42,
          "name": "F#2",
          "ticks": 84868,
          "time": 110.50520833333333,
          "velocity": 1
        },
        {
          "duration": 0.018229166666671404,
          "durationTicks": 14,
          "midi": 42,
          "name": "F#2",
          "ticks": 85060,
          "time": 110.75520833333333,
          "velocity": 0.33858267716535434
        },
        {
          "duration": 0.018229166666671404,
          "durationTicks": 14,
          "midi": 42,
          "name": "F#2",
          "ticks": 85252,
          "time": 111.00520833333333,
          "velocity": 1
        },
        {
          "duration": 0.018229166666671404,
          "durationTicks": 14,
          "midi": 42,
          "name": "F#2",
          "ticks": 85444,
          "time": 111.25520833333333,
          "velocity": 0.33858267716535434
        },
        {
          "duration": 0.018229166666671404,
          "durationTicks": 14,
          "midi": 42,
          "name": "F#2",
          "ticks": 85636,
          "time": 111.50520833333333,
          "velocity": 1
        },
        {
          "duration": 0.018229166666671404,
          "durationTicks": 14,
          "midi": 42,
          "name": "F#2",
          "ticks": 86020,
          "time": 112.00520833333333,
          "velocity": 1
        },
        {
          "duration": 0.015625,
          "durationTicks": 12,
          "midi": 42,
          "name": "F#2",
          "ticks": 86212,
          "time": 112.25520833333333,
          "velocity": 0.33858267716535434
        },
        {
          "duration": 0.018229166666671404,
          "durationTicks": 14,
          "midi": 42,
          "name": "F#2",
          "ticks": 86404,
          "time": 112.50520833333333,
          "velocity": 1
        },
        {
          "duration": 0.018229166666657193,
          "durationTicks": 14,
          "midi": 42,
          "name": "F#2",
          "ticks": 86594,
          "time": 112.75260416666667,
          "velocity": 0.33858267716535434
        },
        {
          "duration": 0.018229166666671404,
          "durationTicks": 14,
          "midi": 42,
          "name": "F#2",
          "ticks": 86788,
          "time": 113.00520833333333,
          "velocity": 1
        },
        {
          "duration": 0.018229166666671404,
          "durationTicks": 14,
          "midi": 42,
          "name": "F#2",
          "ticks": 86980,
          "time": 113.25520833333333,
          "velocity": 0.33858267716535434
        },
        {
          "duration": 0.018229166666671404,
          "durationTicks": 14,
          "midi": 42,
          "name": "F#2",
          "ticks": 87172,
          "time": 113.50520833333333,
          "velocity": 1
        },
        {
          "duration": 0.018229166666671404,
          "durationTicks": 14,
          "midi": 42,
          "name": "F#2",
          "ticks": 87364,
          "time": 113.75520833333333,
          "velocity": 0.33858267716535434
        },
        {
          "duration": 0.018229166666671404,
          "durationTicks": 14,
          "midi": 42,
          "name": "F#2",
          "ticks": 87556,
          "time": 114.00520833333333,
          "velocity": 1
        },
        {
          "duration": 0.015625,
          "durationTicks": 12,
          "midi": 42,
          "name": "F#2",
          "ticks": 87748,
          "time": 114.25520833333333,
          "velocity": 0.33858267716535434
        },
        {
          "duration": 0.018229166666671404,
          "durationTicks": 14,
          "midi": 42,
          "name": "F#2",
          "ticks": 87940,
          "time": 114.50520833333333,
          "velocity": 1
        },
        {
          "duration": 0.015625,
          "durationTicks": 12,
          "midi": 42,
          "name": "F#2",
          "ticks": 88132,
          "time": 114.75520833333333,
          "velocity": 0.33858267716535434
        },
        {
          "duration": 0.018229166666671404,
          "durationTicks": 14,
          "midi": 42,
          "name": "F#2",
          "ticks": 88324,
          "time": 115.00520833333333,
          "velocity": 1
        },
        {
          "duration": 0.018229166666671404,
          "durationTicks": 14,
          "midi": 42,
          "name": "F#2",
          "ticks": 88516,
          "time": 115.25520833333333,
          "velocity": 0.33858267716535434
        },
        {
          "duration": 0.018229166666671404,
          "durationTicks": 14,
          "midi": 42,
          "name": "F#2",
          "ticks": 88708,
          "time": 115.50520833333333,
          "velocity": 1
        },
        {
          "duration": 0.018229166666671404,
          "durationTicks": 14,
          "midi": 42,
          "name": "F#2",
          "ticks": 89092,
          "time": 116.00520833333333,
          "velocity": 1
        },
        {
          "duration": 0.018229166666657193,
          "durationTicks": 14,
          "midi": 42,
          "name": "F#2",
          "ticks": 89282,
          "time": 116.25260416666667,
          "velocity": 0.33858267716535434
        },
        {
          "duration": 0.018229166666671404,
          "durationTicks": 14,
          "midi": 42,
          "name": "F#2",
          "ticks": 89476,
          "time": 116.50520833333333,
          "velocity": 1
        },
        {
          "duration": 0.018229166666671404,
          "durationTicks": 14,
          "midi": 42,
          "name": "F#2",
          "ticks": 89668,
          "time": 116.75520833333333,
          "velocity": 0.33858267716535434
        },
        {
          "duration": 0.018229166666671404,
          "durationTicks": 14,
          "midi": 42,
          "name": "F#2",
          "ticks": 89860,
          "time": 117.00520833333333,
          "velocity": 1
        },
        {
          "duration": 0.018229166666671404,
          "durationTicks": 14,
          "midi": 42,
          "name": "F#2",
          "ticks": 90052,
          "time": 117.25520833333333,
          "velocity": 0.33858267716535434
        },
        {
          "duration": 0.015625,
          "durationTicks": 12,
          "midi": 42,
          "name": "F#2",
          "ticks": 90244,
          "time": 117.50520833333333,
          "velocity": 1
        },
        {
          "duration": 0.018229166666671404,
          "durationTicks": 14,
          "midi": 42,
          "name": "F#2",
          "ticks": 90436,
          "time": 117.75520833333333,
          "velocity": 0.33858267716535434
        },
        {
          "duration": 0.018229166666671404,
          "durationTicks": 14,
          "midi": 42,
          "name": "F#2",
          "ticks": 90628,
          "time": 118.00520833333333,
          "velocity": 1
        },
        {
          "duration": 0.018229166666657193,
          "durationTicks": 14,
          "midi": 42,
          "name": "F#2",
          "ticks": 90818,
          "time": 118.25260416666667,
          "velocity": 0.33858267716535434
        },
        {
          "duration": 0.018229166666671404,
          "durationTicks": 14,
          "midi": 42,
          "name": "F#2",
          "ticks": 91012,
          "time": 118.50520833333333,
          "velocity": 1
        },
        {
          "duration": 0.018229166666671404,
          "durationTicks": 14,
          "midi": 42,
          "name": "F#2",
          "ticks": 91204,
          "time": 118.75520833333333,
          "velocity": 0.33858267716535434
        },
        {
          "duration": 0.018229166666671404,
          "durationTicks": 14,
          "midi": 42,
          "name": "F#2",
          "ticks": 91396,
          "time": 119.00520833333333,
          "velocity": 1
        },
        {
          "duration": 0.018229166666671404,
          "durationTicks": 14,
          "midi": 42,
          "name": "F#2",
          "ticks": 91588,
          "time": 119.25520833333333,
          "velocity": 0.33858267716535434
        },
        {
          "duration": 0.018229166666671404,
          "durationTicks": 14,
          "midi": 42,
          "name": "F#2",
          "ticks": 91780,
          "time": 119.50520833333333,
          "velocity": 1
        },
        {
          "duration": 0.018229166666671404,
          "durationTicks": 14,
          "midi": 42,
          "name": "F#2",
          "ticks": 92164,
          "time": 120.00520833333333,
          "velocity": 1
        },
        {
          "duration": 0.018229166666671404,
          "durationTicks": 14,
          "midi": 42,
          "name": "F#2",
          "ticks": 92356,
          "time": 120.25520833333333,
          "velocity": 0.33858267716535434
        },
        {
          "duration": 0.015625,
          "durationTicks": 12,
          "midi": 42,
          "name": "F#2",
          "ticks": 92548,
          "time": 120.50520833333333,
          "velocity": 1
        },
        {
          "duration": 0.018229166666671404,
          "durationTicks": 14,
          "midi": 42,
          "name": "F#2",
          "ticks": 92740,
          "time": 120.75520833333333,
          "velocity": 0.33858267716535434
        },
        {
          "duration": 0.018229166666671404,
          "durationTicks": 14,
          "midi": 42,
          "name": "F#2",
          "ticks": 92932,
          "time": 121.00520833333333,
          "velocity": 1
        },
        {
          "duration": 0.018229166666671404,
          "durationTicks": 14,
          "midi": 42,
          "name": "F#2",
          "ticks": 93124,
          "time": 121.25520833333333,
          "velocity": 0.33858267716535434
        },
        {
          "duration": 0.018229166666671404,
          "durationTicks": 14,
          "midi": 42,
          "name": "F#2",
          "ticks": 93316,
          "time": 121.50520833333333,
          "velocity": 1
        },
        {
          "duration": 0.018229166666671404,
          "durationTicks": 14,
          "midi": 42,
          "name": "F#2",
          "ticks": 93508,
          "time": 121.75520833333333,
          "velocity": 0.33858267716535434
        },
        {
          "duration": 0.015625,
          "durationTicks": 12,
          "midi": 42,
          "name": "F#2",
          "ticks": 93700,
          "time": 122.00520833333333,
          "velocity": 1
        },
        {
          "duration": 0.015625,
          "durationTicks": 12,
          "midi": 42,
          "name": "F#2",
          "ticks": 93892,
          "time": 122.25520833333333,
          "velocity": 0.33858267716535434
        },
        {
          "duration": 0.018229166666671404,
          "durationTicks": 14,
          "midi": 42,
          "name": "F#2",
          "ticks": 94084,
          "time": 122.50520833333333,
          "velocity": 1
        },
        {
          "duration": 0.018229166666671404,
          "durationTicks": 14,
          "midi": 42,
          "name": "F#2",
          "ticks": 94276,
          "time": 122.75520833333333,
          "velocity": 0.33858267716535434
        },
        {
          "duration": 0.018229166666671404,
          "durationTicks": 14,
          "midi": 42,
          "name": "F#2",
          "ticks": 94468,
          "time": 123.00520833333333,
          "velocity": 1
        },
        {
          "duration": 0.018229166666671404,
          "durationTicks": 14,
          "midi": 42,
          "name": "F#2",
          "ticks": 94660,
          "time": 123.25520833333333,
          "velocity": 0.33858267716535434
        },
        {
          "duration": 0.018229166666671404,
          "durationTicks": 14,
          "midi": 42,
          "name": "F#2",
          "ticks": 94852,
          "time": 123.50520833333333,
          "velocity": 1
        },
        {
          "duration": 0.018229166666671404,
          "durationTicks": 14,
          "midi": 42,
          "name": "F#2",
          "ticks": 95236,
          "time": 124.00520833333333,
          "velocity": 1
        },
        {
          "duration": 0.018229166666671404,
          "durationTicks": 14,
          "midi": 42,
          "name": "F#2",
          "ticks": 95428,
          "time": 124.25520833333333,
          "velocity": 0.33858267716535434
        },
        {
          "duration": 0.015625,
          "durationTicks": 12,
          "midi": 42,
          "name": "F#2",
          "ticks": 95620,
          "time": 124.50520833333333,
          "velocity": 1
        },
        {
          "duration": 0.015625,
          "durationTicks": 12,
          "midi": 42,
          "name": "F#2",
          "ticks": 95812,
          "time": 124.75520833333333,
          "velocity": 0.33858267716535434
        },
        {
          "duration": 0.018229166666671404,
          "durationTicks": 14,
          "midi": 42,
          "name": "F#2",
          "ticks": 96004,
          "time": 125.00520833333333,
          "velocity": 1
        },
        {
          "duration": 0.015625,
          "durationTicks": 12,
          "midi": 42,
          "name": "F#2",
          "ticks": 96196,
          "time": 125.25520833333333,
          "velocity": 0.33858267716535434
        },
        {
          "duration": 0.018229166666671404,
          "durationTicks": 14,
          "midi": 42,
          "name": "F#2",
          "ticks": 96388,
          "time": 125.50520833333333,
          "velocity": 1
        },
        {
          "duration": 0.018229166666671404,
          "durationTicks": 14,
          "midi": 42,
          "name": "F#2",
          "ticks": 96580,
          "time": 125.75520833333333,
          "velocity": 0.33858267716535434
        },
        {
          "duration": 0.018229166666671404,
          "durationTicks": 14,
          "midi": 42,
          "name": "F#2",
          "ticks": 96772,
          "time": 126.00520833333333,
          "velocity": 1
        },
        {
          "duration": 0.018229166666671404,
          "durationTicks": 14,
          "midi": 42,
          "name": "F#2",
          "ticks": 96964,
          "time": 126.25520833333333,
          "velocity": 0.33858267716535434
        },
        {
          "duration": 0.018229166666671404,
          "durationTicks": 14,
          "midi": 42,
          "name": "F#2",
          "ticks": 97156,
          "time": 126.50520833333333,
          "velocity": 1
        },
        {
          "duration": 0.015625,
          "durationTicks": 12,
          "midi": 42,
          "name": "F#2",
          "ticks": 97348,
          "time": 126.75520833333333,
          "velocity": 0.33858267716535434
        },
        {
          "duration": 0.018229166666671404,
          "durationTicks": 14,
          "midi": 42,
          "name": "F#2",
          "ticks": 97540,
          "time": 127.00520833333333,
          "velocity": 1
        },
        {
          "duration": 0.018229166666657193,
          "durationTicks": 14,
          "midi": 42,
          "name": "F#2",
          "ticks": 97730,
          "time": 127.25260416666667,
          "velocity": 0.33858267716535434
        },
        {
          "duration": 0.018229166666671404,
          "durationTicks": 14,
          "midi": 42,
          "name": "F#2",
          "ticks": 97924,
          "time": 127.50520833333333,
          "velocity": 1
        },
        {
          "duration": 0.018229166666657193,
          "durationTicks": 14,
          "midi": 42,
          "name": "F#2",
          "ticks": 98308,
          "time": 128.00520833333334,
          "velocity": 1
        },
        {
          "duration": 0.018229166666657193,
          "durationTicks": 14,
          "midi": 42,
          "name": "F#2",
          "ticks": 98500,
          "time": 128.25520833333334,
          "velocity": 0.33858267716535434
        },
        {
          "duration": 0.018229166666657193,
          "durationTicks": 14,
          "midi": 42,
          "name": "F#2",
          "ticks": 98692,
          "time": 128.50520833333334,
          "velocity": 1
        },
        {
          "duration": 0.015625,
          "durationTicks": 12,
          "midi": 42,
          "name": "F#2",
          "ticks": 98884,
          "time": 128.75520833333334,
          "velocity": 0.33858267716535434
        },
        {
          "duration": 0.018229166666657193,
          "durationTicks": 14,
          "midi": 42,
          "name": "F#2",
          "ticks": 99076,
          "time": 129.00520833333334,
          "velocity": 1
        },
        {
          "duration": 0.018229166666657193,
          "durationTicks": 14,
          "midi": 42,
          "name": "F#2",
          "ticks": 99268,
          "time": 129.25520833333334,
          "velocity": 0.33858267716535434
        },
        {
          "duration": 0.018229166666657193,
          "durationTicks": 14,
          "midi": 42,
          "name": "F#2",
          "ticks": 99460,
          "time": 129.50520833333334,
          "velocity": 1
        },
        {
          "duration": 0.015625,
          "durationTicks": 12,
          "midi": 42,
          "name": "F#2",
          "ticks": 99652,
          "time": 129.75520833333334,
          "velocity": 0.33858267716535434
        },
        {
          "duration": 0.018229166666657193,
          "durationTicks": 14,
          "midi": 42,
          "name": "F#2",
          "ticks": 99844,
          "time": 130.00520833333334,
          "velocity": 1
        },
        {
          "duration": 0.018229166666657193,
          "durationTicks": 14,
          "midi": 42,
          "name": "F#2",
          "ticks": 100036,
          "time": 130.25520833333334,
          "velocity": 0.33858267716535434
        },
        {
          "duration": 0.018229166666657193,
          "durationTicks": 14,
          "midi": 42,
          "name": "F#2",
          "ticks": 100228,
          "time": 130.50520833333334,
          "velocity": 1
        },
        {
          "duration": 0.018229166666685614,
          "durationTicks": 14,
          "midi": 42,
          "name": "F#2",
          "ticks": 100418,
          "time": 130.75260416666666,
          "velocity": 0.33858267716535434
        },
        {
          "duration": 0.018229166666657193,
          "durationTicks": 14,
          "midi": 42,
          "name": "F#2",
          "ticks": 100612,
          "time": 131.00520833333334,
          "velocity": 1
        },
        {
          "duration": 0.018229166666685614,
          "durationTicks": 14,
          "midi": 42,
          "name": "F#2",
          "ticks": 100802,
          "time": 131.25260416666666,
          "velocity": 0.33858267716535434
        },
        {
          "duration": 0.018229166666657193,
          "durationTicks": 14,
          "midi": 42,
          "name": "F#2",
          "ticks": 100996,
          "time": 131.50520833333334,
          "velocity": 1
        },
        {
          "duration": 0.018229166666657193,
          "durationTicks": 14,
          "midi": 42,
          "name": "F#2",
          "ticks": 101380,
          "time": 132.00520833333334,
          "velocity": 1
        },
        {
          "duration": 0.018229166666657193,
          "durationTicks": 14,
          "midi": 42,
          "name": "F#2",
          "ticks": 101572,
          "time": 132.25520833333334,
          "velocity": 0.33858267716535434
        },
        {
          "duration": 0.020833333333342807,
          "durationTicks": 16,
          "midi": 42,
          "name": "F#2",
          "ticks": 101762,
          "time": 132.50260416666666,
          "velocity": 1
        },
        {
          "duration": 0.018229166666657193,
          "durationTicks": 14,
          "midi": 42,
          "name": "F#2",
          "ticks": 101956,
          "time": 132.75520833333334,
          "velocity": 0.33858267716535434
        },
        {
          "duration": 0.018229166666657193,
          "durationTicks": 14,
          "midi": 42,
          "name": "F#2",
          "ticks": 102148,
          "time": 133.00520833333334,
          "velocity": 1
        },
        {
          "duration": 0.018229166666657193,
          "durationTicks": 14,
          "midi": 42,
          "name": "F#2",
          "ticks": 102340,
          "time": 133.25520833333334,
          "velocity": 0.33858267716535434
        },
        {
          "duration": 0.018229166666657193,
          "durationTicks": 14,
          "midi": 42,
          "name": "F#2",
          "ticks": 102532,
          "time": 133.50520833333334,
          "velocity": 1
        },
        {
          "duration": 0.015625,
          "durationTicks": 12,
          "midi": 42,
          "name": "F#2",
          "ticks": 102724,
          "time": 133.75520833333334,
          "velocity": 0.33858267716535434
        },
        {
          "duration": 0.018229166666657193,
          "durationTicks": 14,
          "midi": 42,
          "name": "F#2",
          "ticks": 102916,
          "time": 134.00520833333334,
          "velocity": 1
        },
        {
          "duration": 0.018229166666657193,
          "durationTicks": 14,
          "midi": 42,
          "name": "F#2",
          "ticks": 103108,
          "time": 134.25520833333334,
          "velocity": 0.33858267716535434
        },
        {
          "duration": 0.018229166666657193,
          "durationTicks": 14,
          "midi": 42,
          "name": "F#2",
          "ticks": 103300,
          "time": 134.50520833333334,
          "velocity": 1
        },
        {
          "duration": 0.018229166666685614,
          "durationTicks": 14,
          "midi": 42,
          "name": "F#2",
          "ticks": 103490,
          "time": 134.75260416666666,
          "velocity": 0.33858267716535434
        },
        {
          "duration": 0.018229166666657193,
          "durationTicks": 14,
          "midi": 42,
          "name": "F#2",
          "ticks": 103684,
          "time": 135.00520833333334,
          "velocity": 1
        },
        {
          "duration": 0.018229166666685614,
          "durationTicks": 14,
          "midi": 42,
          "name": "F#2",
          "ticks": 103874,
          "time": 135.25260416666666,
          "velocity": 0.33858267716535434
        },
        {
          "duration": 0.018229166666657193,
          "durationTicks": 14,
          "midi": 42,
          "name": "F#2",
          "ticks": 104068,
          "time": 135.50520833333334,
          "velocity": 1
        },
        {
          "duration": 0.015625,
          "durationTicks": 12,
          "midi": 42,
          "name": "F#2",
          "ticks": 104452,
          "time": 136.00520833333334,
          "velocity": 1
        },
        {
          "duration": 0.018229166666657193,
          "durationTicks": 14,
          "midi": 42,
          "name": "F#2",
          "ticks": 104644,
          "time": 136.25520833333334,
          "velocity": 0.33858267716535434
        },
        {
          "duration": 0.018229166666657193,
          "durationTicks": 14,
          "midi": 42,
          "name": "F#2",
          "ticks": 104836,
          "time": 136.50520833333334,
          "velocity": 1
        },
        {
          "duration": 0.018229166666657193,
          "durationTicks": 14,
          "midi": 42,
          "name": "F#2",
          "ticks": 105028,
          "time": 136.75520833333334,
          "velocity": 0.33858267716535434
        },
        {
          "duration": 0.015625,
          "durationTicks": 12,
          "midi": 42,
          "name": "F#2",
          "ticks": 105222,
          "time": 137.0078125,
          "velocity": 1
        },
        {
          "duration": 0.018229166666657193,
          "durationTicks": 14,
          "midi": 42,
          "name": "F#2",
          "ticks": 105412,
          "time": 137.25520833333334,
          "velocity": 0.33858267716535434
        },
        {
          "duration": 0.018229166666657193,
          "durationTicks": 14,
          "midi": 42,
          "name": "F#2",
          "ticks": 105604,
          "time": 137.50520833333334,
          "velocity": 1
        },
        {
          "duration": 0.018229166666657193,
          "durationTicks": 14,
          "midi": 42,
          "name": "F#2",
          "ticks": 105796,
          "time": 137.75520833333334,
          "velocity": 0.33858267716535434
        },
        {
          "duration": 0.018229166666657193,
          "durationTicks": 14,
          "midi": 42,
          "name": "F#2",
          "ticks": 105988,
          "time": 138.00520833333334,
          "velocity": 1
        },
        {
          "duration": 0.018229166666657193,
          "durationTicks": 14,
          "midi": 42,
          "name": "F#2",
          "ticks": 106180,
          "time": 138.25520833333334,
          "velocity": 0.33858267716535434
        },
        {
          "duration": 0.018229166666657193,
          "durationTicks": 14,
          "midi": 42,
          "name": "F#2",
          "ticks": 106372,
          "time": 138.50520833333334,
          "velocity": 1
        },
        {
          "duration": 0.015625,
          "durationTicks": 12,
          "midi": 42,
          "name": "F#2",
          "ticks": 106566,
          "time": 138.7578125,
          "velocity": 0.33858267716535434
        },
        {
          "duration": 0.018229166666657193,
          "durationTicks": 14,
          "midi": 42,
          "name": "F#2",
          "ticks": 106756,
          "time": 139.00520833333334,
          "velocity": 1
        },
        {
          "duration": 0.015625,
          "durationTicks": 12,
          "midi": 42,
          "name": "F#2",
          "ticks": 106948,
          "time": 139.25520833333334,
          "velocity": 0.33858267716535434
        },
        {
          "duration": 0.015625,
          "durationTicks": 12,
          "midi": 42,
          "name": "F#2",
          "ticks": 107142,
          "time": 139.5078125,
          "velocity": 1
        },
        {
          "duration": 0.018229166666657193,
          "durationTicks": 14,
          "midi": 42,
          "name": "F#2",
          "ticks": 107524,
          "time": 140.00520833333334,
          "velocity": 1
        },
        {
          "duration": 0.018229166666657193,
          "durationTicks": 14,
          "midi": 42,
          "name": "F#2",
          "ticks": 107716,
          "time": 140.25520833333334,
          "velocity": 0.33858267716535434
        },
        {
          "duration": 0.015625,
          "durationTicks": 12,
          "midi": 42,
          "name": "F#2",
          "ticks": 107908,
          "time": 140.50520833333334,
          "velocity": 1
        },
        {
          "duration": 0.018229166666657193,
          "durationTicks": 14,
          "midi": 42,
          "name": "F#2",
          "ticks": 108100,
          "time": 140.75520833333334,
          "velocity": 0.33858267716535434
        },
        {
          "duration": 0.018229166666657193,
          "durationTicks": 14,
          "midi": 42,
          "name": "F#2",
          "ticks": 108292,
          "time": 141.00520833333334,
          "velocity": 1
        },
        {
          "duration": 0.018229166666657193,
          "durationTicks": 14,
          "midi": 42,
          "name": "F#2",
          "ticks": 108484,
          "time": 141.25520833333334,
          "velocity": 0.33858267716535434
        },
        {
          "duration": 0.018229166666657193,
          "durationTicks": 14,
          "midi": 42,
          "name": "F#2",
          "ticks": 108676,
          "time": 141.50520833333334,
          "velocity": 1
        },
        {
          "duration": 0.018229166666657193,
          "durationTicks": 14,
          "midi": 42,
          "name": "F#2",
          "ticks": 108868,
          "time": 141.75520833333334,
          "velocity": 0.33858267716535434
        },
        {
          "duration": 0.018229166666657193,
          "durationTicks": 14,
          "midi": 42,
          "name": "F#2",
          "ticks": 109060,
          "time": 142.00520833333334,
          "velocity": 1
        },
        {
          "duration": 0.018229166666657193,
          "durationTicks": 14,
          "midi": 42,
          "name": "F#2",
          "ticks": 109252,
          "time": 142.25520833333334,
          "velocity": 0.33858267716535434
        },
        {
          "duration": 0.018229166666657193,
          "durationTicks": 14,
          "midi": 42,
          "name": "F#2",
          "ticks": 109444,
          "time": 142.50520833333334,
          "velocity": 1
        },
        {
          "duration": 0.018229166666657193,
          "durationTicks": 14,
          "midi": 42,
          "name": "F#2",
          "ticks": 109636,
          "time": 142.75520833333334,
          "velocity": 0.33858267716535434
        },
        {
          "duration": 0.018229166666657193,
          "durationTicks": 14,
          "midi": 42,
          "name": "F#2",
          "ticks": 109828,
          "time": 143.00520833333334,
          "velocity": 1
        },
        {
          "duration": 0.018229166666657193,
          "durationTicks": 14,
          "midi": 42,
          "name": "F#2",
          "ticks": 110020,
          "time": 143.25520833333334,
          "velocity": 0.33858267716535434
        },
        {
          "duration": 0.018229166666657193,
          "durationTicks": 14,
          "midi": 42,
          "name": "F#2",
          "ticks": 110212,
          "time": 143.50520833333334,
          "velocity": 1
        },
        {
          "duration": 0.018229166666657193,
          "durationTicks": 14,
          "midi": 42,
          "name": "F#2",
          "ticks": 110596,
          "time": 144.00520833333334,
          "velocity": 1
        },
        {
          "duration": 0.018229166666657193,
          "durationTicks": 14,
          "midi": 42,
          "name": "F#2",
          "ticks": 110788,
          "time": 144.25520833333334,
          "velocity": 0.33858267716535434
        },
        {
          "duration": 0.015625,
          "durationTicks": 12,
          "midi": 42,
          "name": "F#2",
          "ticks": 110980,
          "time": 144.50520833333334,
          "velocity": 1
        },
        {
          "duration": 0.018229166666657193,
          "durationTicks": 14,
          "midi": 42,
          "name": "F#2",
          "ticks": 111172,
          "time": 144.75520833333334,
          "velocity": 0.33858267716535434
        },
        {
          "duration": 0.018229166666657193,
          "durationTicks": 14,
          "midi": 42,
          "name": "F#2",
          "ticks": 111364,
          "time": 145.00520833333334,
          "velocity": 1
        },
        {
          "duration": 0.018229166666657193,
          "durationTicks": 14,
          "midi": 42,
          "name": "F#2",
          "ticks": 111556,
          "time": 145.25520833333334,
          "velocity": 0.33858267716535434
        },
        {
          "duration": 0.018229166666657193,
          "durationTicks": 14,
          "midi": 42,
          "name": "F#2",
          "ticks": 111748,
          "time": 145.50520833333334,
          "velocity": 1
        },
        {
          "duration": 0.018229166666657193,
          "durationTicks": 14,
          "midi": 42,
          "name": "F#2",
          "ticks": 111940,
          "time": 145.75520833333334,
          "velocity": 0.33858267716535434
        },
        {
          "duration": 0.018229166666657193,
          "durationTicks": 14,
          "midi": 42,
          "name": "F#2",
          "ticks": 112132,
          "time": 146.00520833333334,
          "velocity": 1
        },
        {
          "duration": 0.018229166666657193,
          "durationTicks": 14,
          "midi": 42,
          "name": "F#2",
          "ticks": 112324,
          "time": 146.25520833333334,
          "velocity": 0.33858267716535434
        },
        {
          "duration": 0.018229166666657193,
          "durationTicks": 14,
          "midi": 42,
          "name": "F#2",
          "ticks": 112516,
          "time": 146.50520833333334,
          "velocity": 1
        },
        {
          "duration": 0.018229166666657193,
          "durationTicks": 14,
          "midi": 42,
          "name": "F#2",
          "ticks": 112708,
          "time": 146.75520833333334,
          "velocity": 0.33858267716535434
        },
        {
          "duration": 0.018229166666657193,
          "durationTicks": 14,
          "midi": 42,
          "name": "F#2",
          "ticks": 112900,
          "time": 147.00520833333334,
          "velocity": 1
        },
        {
          "duration": 0.018229166666657193,
          "durationTicks": 14,
          "midi": 42,
          "name": "F#2",
          "ticks": 113092,
          "time": 147.25520833333334,
          "velocity": 0.33858267716535434
        },
        {
          "duration": 0.018229166666657193,
          "durationTicks": 14,
          "midi": 42,
          "name": "F#2",
          "ticks": 113284,
          "time": 147.50520833333334,
          "velocity": 1
        },
        {
          "duration": 0.018229166666657193,
          "durationTicks": 14,
          "midi": 42,
          "name": "F#2",
          "ticks": 113668,
          "time": 148.00520833333334,
          "velocity": 1
        },
        {
          "duration": 0.018229166666657193,
          "durationTicks": 14,
          "midi": 42,
          "name": "F#2",
          "ticks": 113860,
          "time": 148.25520833333334,
          "velocity": 0.33858267716535434
        },
        {
          "duration": 0.015625,
          "durationTicks": 12,
          "midi": 42,
          "name": "F#2",
          "ticks": 114052,
          "time": 148.50520833333334,
          "velocity": 1
        },
        {
          "duration": 0.018229166666657193,
          "durationTicks": 14,
          "midi": 42,
          "name": "F#2",
          "ticks": 114244,
          "time": 148.75520833333334,
          "velocity": 0.33858267716535434
        },
        {
          "duration": 0.018229166666657193,
          "durationTicks": 14,
          "midi": 42,
          "name": "F#2",
          "ticks": 114436,
          "time": 149.00520833333334,
          "velocity": 1
        },
        {
          "duration": 0.018229166666657193,
          "durationTicks": 14,
          "midi": 42,
          "name": "F#2",
          "ticks": 114628,
          "time": 149.25520833333334,
          "velocity": 0.33858267716535434
        },
        {
          "duration": 0.018229166666657193,
          "durationTicks": 14,
          "midi": 42,
          "name": "F#2",
          "ticks": 114820,
          "time": 149.50520833333334,
          "velocity": 1
        },
        {
          "duration": 0.018229166666657193,
          "durationTicks": 14,
          "midi": 42,
          "name": "F#2",
          "ticks": 115012,
          "time": 149.75520833333334,
          "velocity": 0.33858267716535434
        },
        {
          "duration": 0.018229166666657193,
          "durationTicks": 14,
          "midi": 42,
          "name": "F#2",
          "ticks": 115204,
          "time": 150.00520833333334,
          "velocity": 1
        },
        {
          "duration": 0.018229166666685614,
          "durationTicks": 14,
          "midi": 42,
          "name": "F#2",
          "ticks": 115394,
          "time": 150.25260416666666,
          "velocity": 0.33858267716535434
        },
        {
          "duration": 0.018229166666657193,
          "durationTicks": 14,
          "midi": 42,
          "name": "F#2",
          "ticks": 115588,
          "time": 150.50520833333334,
          "velocity": 1
        },
        {
          "duration": 0.018229166666657193,
          "durationTicks": 14,
          "midi": 42,
          "name": "F#2",
          "ticks": 115780,
          "time": 150.75520833333334,
          "velocity": 0.33858267716535434
        },
        {
          "duration": 0.018229166666657193,
          "durationTicks": 14,
          "midi": 42,
          "name": "F#2",
          "ticks": 115972,
          "time": 151.00520833333334,
          "velocity": 1
        },
        {
          "duration": 0.018229166666657193,
          "durationTicks": 14,
          "midi": 42,
          "name": "F#2",
          "ticks": 116164,
          "time": 151.25520833333334,
          "velocity": 0.33858267716535434
        },
        {
          "duration": 0.018229166666657193,
          "durationTicks": 14,
          "midi": 42,
          "name": "F#2",
          "ticks": 116356,
          "time": 151.50520833333334,
          "velocity": 1
        },
        {
          "duration": 0.018229166666657193,
          "durationTicks": 14,
          "midi": 42,
          "name": "F#2",
          "ticks": 116740,
          "time": 152.00520833333334,
          "velocity": 1
        },
        {
          "duration": 0.018229166666657193,
          "durationTicks": 14,
          "midi": 42,
          "name": "F#2",
          "ticks": 116932,
          "time": 152.25520833333334,
          "velocity": 0.33858267716535434
        },
        {
          "duration": 0.018229166666657193,
          "durationTicks": 14,
          "midi": 42,
          "name": "F#2",
          "ticks": 117124,
          "time": 152.50520833333334,
          "velocity": 1
        },
        {
          "duration": 0.018229166666657193,
          "durationTicks": 14,
          "midi": 42,
          "name": "F#2",
          "ticks": 117316,
          "time": 152.75520833333334,
          "velocity": 0.33858267716535434
        },
        {
          "duration": 0.018229166666657193,
          "durationTicks": 14,
          "midi": 42,
          "name": "F#2",
          "ticks": 117508,
          "time": 153.00520833333334,
          "velocity": 1
        },
        {
          "duration": 0.018229166666657193,
          "durationTicks": 14,
          "midi": 42,
          "name": "F#2",
          "ticks": 117700,
          "time": 153.25520833333334,
          "velocity": 0.33858267716535434
        },
        {
          "duration": 0.018229166666657193,
          "durationTicks": 14,
          "midi": 42,
          "name": "F#2",
          "ticks": 117892,
          "time": 153.50520833333334,
          "velocity": 1
        },
        {
          "duration": 0.018229166666657193,
          "durationTicks": 14,
          "midi": 42,
          "name": "F#2",
          "ticks": 118084,
          "time": 153.75520833333334,
          "velocity": 0.33858267716535434
        },
        {
          "duration": 0.018229166666657193,
          "durationTicks": 14,
          "midi": 42,
          "name": "F#2",
          "ticks": 118276,
          "time": 154.00520833333334,
          "velocity": 1
        },
        {
          "duration": 0.018229166666657193,
          "durationTicks": 14,
          "midi": 42,
          "name": "F#2",
          "ticks": 118468,
          "time": 154.25520833333334,
          "velocity": 0.33858267716535434
        },
        {
          "duration": 0.018229166666657193,
          "durationTicks": 14,
          "midi": 42,
          "name": "F#2",
          "ticks": 118660,
          "time": 154.50520833333334,
          "velocity": 1
        },
        {
          "duration": 0.018229166666657193,
          "durationTicks": 14,
          "midi": 42,
          "name": "F#2",
          "ticks": 118852,
          "time": 154.75520833333334,
          "velocity": 0.33858267716535434
        },
        {
          "duration": 0.018229166666657193,
          "durationTicks": 14,
          "midi": 42,
          "name": "F#2",
          "ticks": 119044,
          "time": 155.00520833333334,
          "velocity": 1
        },
        {
          "duration": 0.018229166666657193,
          "durationTicks": 14,
          "midi": 42,
          "name": "F#2",
          "ticks": 119236,
          "time": 155.25520833333334,
          "velocity": 0.33858267716535434
        },
        {
          "duration": 0.015625,
          "durationTicks": 12,
          "midi": 42,
          "name": "F#2",
          "ticks": 119428,
          "time": 155.50520833333334,
          "velocity": 1
        },
        {
          "duration": 0.018229166666657193,
          "durationTicks": 14,
          "midi": 42,
          "name": "F#2",
          "ticks": 119812,
          "time": 156.00520833333334,
          "velocity": 1
        },
        {
          "duration": 0.018229166666685614,
          "durationTicks": 14,
          "midi": 42,
          "name": "F#2",
          "ticks": 120002,
          "time": 156.25260416666666,
          "velocity": 0.33858267716535434
        },
        {
          "duration": 0.018229166666657193,
          "durationTicks": 14,
          "midi": 42,
          "name": "F#2",
          "ticks": 120196,
          "time": 156.50520833333334,
          "velocity": 1
        },
        {
          "duration": 0.015625,
          "durationTicks": 12,
          "midi": 42,
          "name": "F#2",
          "ticks": 120388,
          "time": 156.75520833333334,
          "velocity": 0.33858267716535434
        },
        {
          "duration": 0.018229166666657193,
          "durationTicks": 14,
          "midi": 42,
          "name": "F#2",
          "ticks": 120580,
          "time": 157.00520833333334,
          "velocity": 1
        },
        {
          "duration": 0.018229166666657193,
          "durationTicks": 14,
          "midi": 42,
          "name": "F#2",
          "ticks": 120772,
          "time": 157.25520833333334,
          "velocity": 0.33858267716535434
        },
        {
          "duration": 0.018229166666657193,
          "durationTicks": 14,
          "midi": 42,
          "name": "F#2",
          "ticks": 120964,
          "time": 157.50520833333334,
          "velocity": 1
        },
        {
          "duration": 0.015625,
          "durationTicks": 12,
          "midi": 42,
          "name": "F#2",
          "ticks": 121156,
          "time": 157.75520833333334,
          "velocity": 0.33858267716535434
        },
        {
          "duration": 0.018229166666657193,
          "durationTicks": 14,
          "midi": 42,
          "name": "F#2",
          "ticks": 121348,
          "time": 158.00520833333334,
          "velocity": 1
        },
        {
          "duration": 0.015625,
          "durationTicks": 12,
          "midi": 42,
          "name": "F#2",
          "ticks": 121540,
          "time": 158.25520833333334,
          "velocity": 0.33858267716535434
        },
        {
          "duration": 0.018229166666657193,
          "durationTicks": 14,
          "midi": 42,
          "name": "F#2",
          "ticks": 121732,
          "time": 158.50520833333334,
          "velocity": 1
        },
        {
          "duration": 0.018229166666657193,
          "durationTicks": 14,
          "midi": 42,
          "name": "F#2",
          "ticks": 121924,
          "time": 158.75520833333334,
          "velocity": 0.33858267716535434
        },
        {
          "duration": 0.018229166666657193,
          "durationTicks": 14,
          "midi": 42,
          "name": "F#2",
          "ticks": 122116,
          "time": 159.00520833333334,
          "velocity": 1
        },
        {
          "duration": 0.018229166666657193,
          "durationTicks": 14,
          "midi": 42,
          "name": "F#2",
          "ticks": 122308,
          "time": 159.25520833333334,
          "velocity": 0.33858267716535434
        },
        {
          "duration": 0.018229166666657193,
          "durationTicks": 14,
          "midi": 42,
          "name": "F#2",
          "ticks": 122500,
          "time": 159.50520833333334,
          "velocity": 1
        },
        {
          "duration": 0.018229166666657193,
          "durationTicks": 14,
          "midi": 42,
          "name": "F#2",
          "ticks": 122884,
          "time": 160.00520833333334,
          "velocity": 1
        },
        {
          "duration": 0.015625,
          "durationTicks": 12,
          "midi": 42,
          "name": "F#2",
          "ticks": 123076,
          "time": 160.25520833333334,
          "velocity": 0.33858267716535434
        },
        {
          "duration": 0.018229166666657193,
          "durationTicks": 14,
          "midi": 42,
          "name": "F#2",
          "ticks": 123268,
          "time": 160.50520833333334,
          "velocity": 1
        },
        {
          "duration": 0.015625,
          "durationTicks": 12,
          "midi": 42,
          "name": "F#2",
          "ticks": 123460,
          "time": 160.75520833333334,
          "velocity": 0.33858267716535434
        },
        {
          "duration": 0.018229166666657193,
          "durationTicks": 14,
          "midi": 42,
          "name": "F#2",
          "ticks": 123652,
          "time": 161.00520833333334,
          "velocity": 1
        },
        {
          "duration": 0.018229166666657193,
          "durationTicks": 14,
          "midi": 42,
          "name": "F#2",
          "ticks": 123844,
          "time": 161.25520833333334,
          "velocity": 0.33858267716535434
        },
        {
          "duration": 0.018229166666657193,
          "durationTicks": 14,
          "midi": 42,
          "name": "F#2",
          "ticks": 124036,
          "time": 161.50520833333334,
          "velocity": 1
        },
        {
          "duration": 0.015625,
          "durationTicks": 12,
          "midi": 42,
          "name": "F#2",
          "ticks": 124228,
          "time": 161.75520833333334,
          "velocity": 0.33858267716535434
        },
        {
          "duration": 0.018229166666657193,
          "durationTicks": 14,
          "midi": 42,
          "name": "F#2",
          "ticks": 124420,
          "time": 162.00520833333334,
          "velocity": 1
        },
        {
          "duration": 0.015625,
          "durationTicks": 12,
          "midi": 42,
          "name": "F#2",
          "ticks": 124612,
          "time": 162.25520833333334,
          "velocity": 0.33858267716535434
        },
        {
          "duration": 0.018229166666657193,
          "durationTicks": 14,
          "midi": 42,
          "name": "F#2",
          "ticks": 124804,
          "time": 162.50520833333334,
          "velocity": 1
        },
        {
          "duration": 0.018229166666657193,
          "durationTicks": 14,
          "midi": 42,
          "name": "F#2",
          "ticks": 124996,
          "time": 162.75520833333334,
          "velocity": 0.33858267716535434
        },
        {
          "duration": 0.018229166666657193,
          "durationTicks": 14,
          "midi": 42,
          "name": "F#2",
          "ticks": 125188,
          "time": 163.00520833333334,
          "velocity": 1
        },
        {
          "duration": 0.018229166666657193,
          "durationTicks": 14,
          "midi": 42,
          "name": "F#2",
          "ticks": 125380,
          "time": 163.25520833333334,
          "velocity": 0.33858267716535434
        },
        {
          "duration": 0.018229166666657193,
          "durationTicks": 14,
          "midi": 42,
          "name": "F#2",
          "ticks": 125572,
          "time": 163.50520833333334,
          "velocity": 1
        },
        {
          "duration": 0.018229166666657193,
          "durationTicks": 14,
          "midi": 42,
          "name": "F#2",
          "ticks": 125956,
          "time": 164.00520833333334,
          "velocity": 1
        },
        {
          "duration": 0.015625,
          "durationTicks": 12,
          "midi": 42,
          "name": "F#2",
          "ticks": 126148,
          "time": 164.25520833333334,
          "velocity": 0.33858267716535434
        },
        {
          "duration": 0.018229166666657193,
          "durationTicks": 14,
          "midi": 42,
          "name": "F#2",
          "ticks": 126340,
          "time": 164.50520833333334,
          "velocity": 1
        },
        {
          "duration": 0.015625,
          "durationTicks": 12,
          "midi": 42,
          "name": "F#2",
          "ticks": 126532,
          "time": 164.75520833333334,
          "velocity": 0.33858267716535434
        },
        {
          "duration": 0.018229166666657193,
          "durationTicks": 14,
          "midi": 42,
          "name": "F#2",
          "ticks": 126724,
          "time": 165.00520833333334,
          "velocity": 1
        },
        {
          "duration": 0.018229166666657193,
          "durationTicks": 14,
          "midi": 42,
          "name": "F#2",
          "ticks": 126916,
          "time": 165.25520833333334,
          "velocity": 0.33858267716535434
        },
        {
          "duration": 0.018229166666657193,
          "durationTicks": 14,
          "midi": 42,
          "name": "F#2",
          "ticks": 127108,
          "time": 165.50520833333334,
          "velocity": 1
        },
        {
          "duration": 0.018229166666657193,
          "durationTicks": 14,
          "midi": 42,
          "name": "F#2",
          "ticks": 127300,
          "time": 165.75520833333334,
          "velocity": 0.33858267716535434
        },
        {
          "duration": 0.018229166666657193,
          "durationTicks": 14,
          "midi": 42,
          "name": "F#2",
          "ticks": 127492,
          "time": 166.00520833333334,
          "velocity": 1
        },
        {
          "duration": 0.015625,
          "durationTicks": 12,
          "midi": 42,
          "name": "F#2",
          "ticks": 127684,
          "time": 166.25520833333334,
          "velocity": 0.33858267716535434
        },
        {
          "duration": 0.020833333333342807,
          "durationTicks": 16,
          "midi": 42,
          "name": "F#2",
          "ticks": 127874,
          "time": 166.50260416666666,
          "velocity": 1
        },
        {
          "duration": 0.018229166666657193,
          "durationTicks": 14,
          "midi": 42,
          "name": "F#2",
          "ticks": 128068,
          "time": 166.75520833333334,
          "velocity": 0.33858267716535434
        },
        {
          "duration": 0.018229166666657193,
          "durationTicks": 14,
          "midi": 42,
          "name": "F#2",
          "ticks": 128260,
          "time": 167.00520833333334,
          "velocity": 1
        },
        {
          "duration": 0.018229166666657193,
          "durationTicks": 14,
          "midi": 42,
          "name": "F#2",
          "ticks": 128452,
          "time": 167.25520833333334,
          "velocity": 0.33858267716535434
        },
        {
          "duration": 0.018229166666657193,
          "durationTicks": 14,
          "midi": 42,
          "name": "F#2",
          "ticks": 128644,
          "time": 167.50520833333334,
          "velocity": 1
        },
        {
          "duration": 0.018229166666657193,
          "durationTicks": 14,
          "midi": 42,
          "name": "F#2",
          "ticks": 129028,
          "time": 168.00520833333334,
          "velocity": 1
        },
        {
          "duration": 0.015625,
          "durationTicks": 12,
          "midi": 42,
          "name": "F#2",
          "ticks": 129220,
          "time": 168.25520833333334,
          "velocity": 0.33858267716535434
        },
        {
          "duration": 0.018229166666657193,
          "durationTicks": 14,
          "midi": 42,
          "name": "F#2",
          "ticks": 129412,
          "time": 168.50520833333334,
          "velocity": 1
        },
        {
          "duration": 0.015625,
          "durationTicks": 12,
          "midi": 42,
          "name": "F#2",
          "ticks": 129604,
          "time": 168.75520833333334,
          "velocity": 0.33858267716535434
        },
        {
          "duration": 0.018229166666657193,
          "durationTicks": 14,
          "midi": 42,
          "name": "F#2",
          "ticks": 129796,
          "time": 169.00520833333334,
          "velocity": 1
        },
        {
          "duration": 0.018229166666657193,
          "durationTicks": 14,
          "midi": 42,
          "name": "F#2",
          "ticks": 129988,
          "time": 169.25520833333334,
          "velocity": 0.33858267716535434
        },
        {
          "duration": 0.018229166666657193,
          "durationTicks": 14,
          "midi": 42,
          "name": "F#2",
          "ticks": 130180,
          "time": 169.50520833333334,
          "velocity": 1
        },
        {
          "duration": 0.015625,
          "durationTicks": 12,
          "midi": 42,
          "name": "F#2",
          "ticks": 130372,
          "time": 169.75520833333334,
          "velocity": 0.33858267716535434
        },
        {
          "duration": 0.018229166666657193,
          "durationTicks": 14,
          "midi": 42,
          "name": "F#2",
          "ticks": 130564,
          "time": 170.00520833333334,
          "velocity": 1
        },
        {
          "duration": 0.015625,
          "durationTicks": 12,
          "midi": 42,
          "name": "F#2",
          "ticks": 130756,
          "time": 170.25520833333334,
          "velocity": 0.33858267716535434
        },
        {
          "duration": 0.018229166666657193,
          "durationTicks": 14,
          "midi": 42,
          "name": "F#2",
          "ticks": 130948,
          "time": 170.50520833333334,
          "velocity": 1
        },
        {
          "duration": 0.015625,
          "durationTicks": 12,
          "midi": 42,
          "name": "F#2",
          "ticks": 131140,
          "time": 170.75520833333334,
          "velocity": 0.33858267716535434
        },
        {
          "duration": 0.018229166666657193,
          "durationTicks": 14,
          "midi": 42,
          "name": "F#2",
          "ticks": 131332,
          "time": 171.00520833333334,
          "velocity": 1
        },
        {
          "duration": 0.015625,
          "durationTicks": 12,
          "midi": 42,
          "name": "F#2",
          "ticks": 131526,
          "time": 171.2578125,
          "velocity": 0.33858267716535434
        },
        {
          "duration": 0.018229166666657193,
          "durationTicks": 14,
          "midi": 42,
          "name": "F#2",
          "ticks": 131716,
          "time": 171.50520833333334,
          "velocity": 1
        }
      ],
      "endOfTrackTicks": 131922
    },
    {
      "channel": 9,
      "controlChanges": {},
      "pitchBends": [],
      "instrument": {
        "family": "drums",
        "number": 0,
        "name": "standard kit"
      },
      "name": "RIDE CYMB",
      "notes": [
        {
          "duration": 0.015625,
          "durationTicks": 12,
          "midi": 51,
          "name": "D#3",
          "ticks": 132102,
          "time": 172.0078125,
          "velocity": 1
        }
      ],
      "endOfTrackTicks": 132306
    },
    {
      "channel": 9,
      "controlChanges": {},
      "pitchBends": [],
      "instrument": {
        "family": "drums",
        "number": 0,
        "name": "standard kit"
      },
      "name": "CRASH CYMB",
      "notes": [
        {
          "duration": 0.018229166666666963,
          "durationTicks": 14,
          "midi": 49,
          "name": "C#3",
          "ticks": 3076,
          "time": 4.005208333333333,
          "velocity": 1
        },
        {
          "duration": 0.018229166666666075,
          "durationTicks": 14,
          "midi": 49,
          "name": "C#3",
          "ticks": 9220,
          "time": 12.005208333333334,
          "velocity": 1
        },
        {
          "duration": 0.01822916666666785,
          "durationTicks": 14,
          "midi": 49,
          "name": "C#3",
          "ticks": 15364,
          "time": 20.005208333333332,
          "velocity": 1
        },
        {
          "duration": 0.01822916666666785,
          "durationTicks": 14,
          "midi": 49,
          "name": "C#3",
          "ticks": 21508,
          "time": 28.005208333333332,
          "velocity": 1
        },
        {
          "duration": 0.015625,
          "durationTicks": 12,
          "midi": 49,
          "name": "C#3",
          "ticks": 39942,
          "time": 52.0078125,
          "velocity": 1
        },
        {
          "duration": 0.018229166666664298,
          "durationTicks": 14,
          "midi": 49,
          "name": "C#3",
          "ticks": 46084,
          "time": 60.005208333333336,
          "velocity": 1
        },
        {
          "duration": 0.015625,
          "durationTicks": 12,
          "midi": 49,
          "name": "C#3",
          "ticks": 52230,
          "time": 68.0078125,
          "velocity": 1
        },
        {
          "duration": 0.015625,
          "durationTicks": 12,
          "midi": 49,
          "name": "C#3",
          "ticks": 58374,
          "time": 76.0078125,
          "velocity": 1
        },
        {
          "duration": 0.018229166666671404,
          "durationTicks": 14,
          "midi": 49,
          "name": "C#3",
          "ticks": 76804,
          "time": 100.00520833333333,
          "velocity": 1
        },
        {
          "duration": 0.015625,
          "durationTicks": 12,
          "midi": 49,
          "name": "C#3",
          "ticks": 82950,
          "time": 108.0078125,
          "velocity": 1
        },
        {
          "duration": 0.018229166666671404,
          "durationTicks": 14,
          "midi": 49,
          "name": "C#3",
          "ticks": 89092,
          "time": 116.00520833333333,
          "velocity": 1
        },
        {
          "duration": 0.015625,
          "durationTicks": 12,
          "midi": 49,
          "name": "C#3",
          "ticks": 95238,
          "time": 124.0078125,
          "velocity": 1
        },
        {
          "duration": 0.015625,
          "durationTicks": 12,
          "midi": 49,
          "name": "C#3",
          "ticks": 101382,
          "time": 132.0078125,
          "velocity": 1
        },
        {
          "duration": 0.018229166666657193,
          "durationTicks": 14,
          "midi": 49,
          "name": "C#3",
          "ticks": 107524,
          "time": 140.00520833333334,
          "velocity": 1
        },
        {
          "duration": 0.018229166666657193,
          "durationTicks": 14,
          "midi": 49,
          "name": "C#3",
          "ticks": 113668,
          "time": 148.00520833333334,
          "velocity": 1
        },
        {
          "duration": 0.018229166666657193,
          "durationTicks": 14,
          "midi": 49,
          "name": "C#3",
          "ticks": 119812,
          "time": 156.00520833333334,
          "velocity": 1
        },
        {
          "duration": 0.015625,
          "durationTicks": 12,
          "midi": 49,
          "name": "C#3",
          "ticks": 125958,
          "time": 164.0078125,
          "velocity": 1
        },
        {
          "duration": 0.018229166666657193,
          "durationTicks": 14,
          "midi": 49,
          "name": "C#3",
          "ticks": 132102,
          "time": 172.0078125,
          "velocity": 1
        }
      ],
      "endOfTrackTicks": 132308
    },
    {
      "channel": 9,
      "controlChanges": {},
      "pitchBends": [],
      "instrument": {
        "family": "drums",
        "number": 0,
        "name": "standard kit"
      },
      "name": "COWBELL",
      "notes": [
        {
          "duration": 0.015625,
          "durationTicks": 12,
          "midi": 56,
          "name": "G#3",
          "ticks": 3078,
          "time": 4.0078125,
          "velocity": 1
        },
        {
          "duration": 0.018229166666666963,
          "durationTicks": 14,
          "midi": 56,
          "name": "G#3",
          "ticks": 3460,
          "time": 4.505208333333333,
          "velocity": 1
        },
        {
          "duration": 0.015625,
          "durationTicks": 12,
          "midi": 56,
          "name": "G#3",
          "ticks": 3844,
          "time": 5.005208333333333,
          "velocity": 1
        },
        {
          "duration": 0.018229166666666963,
          "durationTicks": 14,
          "midi": 56,
          "name": "G#3",
          "ticks": 4228,
          "time": 5.505208333333333,
          "velocity": 1
        },
        {
          "duration": 0.018229166666666963,
          "durationTicks": 14,
          "midi": 56,
          "name": "G#3",
          "ticks": 4612,
          "time": 6.005208333333333,
          "velocity": 1
        },
        {
          "duration": 0.018229166666666963,
          "durationTicks": 14,
          "midi": 56,
          "name": "G#3",
          "ticks": 4998,
          "time": 6.5078125,
          "velocity": 1
        },
        {
          "duration": 0.018229166666666963,
          "durationTicks": 14,
          "midi": 56,
          "name": "G#3",
          "ticks": 5380,
          "time": 7.005208333333333,
          "velocity": 1
        },
        {
          "duration": 0.015625,
          "durationTicks": 12,
          "midi": 56,
          "name": "G#3",
          "ticks": 5766,
          "time": 7.5078125,
          "velocity": 1
        },
        {
          "duration": 0.018229166666666075,
          "durationTicks": 14,
          "midi": 56,
          "name": "G#3",
          "ticks": 6148,
          "time": 8.005208333333334,
          "velocity": 1
        },
        {
          "duration": 0.015625,
          "durationTicks": 12,
          "midi": 56,
          "name": "G#3",
          "ticks": 6534,
          "time": 8.5078125,
          "velocity": 1
        },
        {
          "duration": 0.018229166666666075,
          "durationTicks": 14,
          "midi": 56,
          "name": "G#3",
          "ticks": 6916,
          "time": 9.005208333333334,
          "velocity": 1
        },
        {
          "duration": 0.018229166666666075,
          "durationTicks": 14,
          "midi": 56,
          "name": "G#3",
          "ticks": 7302,
          "time": 9.5078125,
          "velocity": 1
        },
        {
          "duration": 0.018229166666666075,
          "durationTicks": 14,
          "midi": 56,
          "name": "G#3",
          "ticks": 7684,
          "time": 10.005208333333334,
          "velocity": 1
        },
        {
          "duration": 0.013020833333333925,
          "durationTicks": 10,
          "midi": 56,
          "name": "G#3",
          "ticks": 8070,
          "time": 10.5078125,
          "velocity": 1
        },
        {
          "duration": 0.018229166666666075,
          "durationTicks": 14,
          "midi": 56,
          "name": "G#3",
          "ticks": 8452,
          "time": 11.005208333333334,
          "velocity": 1
        },
        {
          "duration": 0.015625,
          "durationTicks": 12,
          "midi": 56,
          "name": "G#3",
          "ticks": 8838,
          "time": 11.5078125,
          "velocity": 1
        },
        {
          "duration": 0.02083333333333215,
          "durationTicks": 16,
          "midi": 56,
          "name": "G#3",
          "ticks": 9220,
          "time": 12.005208333333334,
          "velocity": 1
        },
        {
          "duration": 0.02083333333333215,
          "durationTicks": 16,
          "midi": 56,
          "name": "G#3",
          "ticks": 9604,
          "time": 12.505208333333334,
          "velocity": 1
        },
        {
          "duration": 0.015625,
          "durationTicks": 12,
          "midi": 56,
          "name": "G#3",
          "ticks": 9990,
          "time": 13.0078125,
          "velocity": 1
        },
        {
          "duration": 0.015625,
          "durationTicks": 12,
          "midi": 56,
          "name": "G#3",
          "ticks": 10374,
          "time": 13.5078125,
          "velocity": 1
        },
        {
          "duration": 0.018229166666666075,
          "durationTicks": 14,
          "midi": 56,
          "name": "G#3",
          "ticks": 10756,
          "time": 14.005208333333334,
          "velocity": 1
        },
        {
          "duration": 0.015625,
          "durationTicks": 12,
          "midi": 56,
          "name": "G#3",
          "ticks": 11142,
          "time": 14.5078125,
          "velocity": 1
        },
        {
          "duration": 0.018229166666666075,
          "durationTicks": 14,
          "midi": 56,
          "name": "G#3",
          "ticks": 11524,
          "time": 15.005208333333334,
          "velocity": 1
        },
        {
          "duration": 0.02083333333333215,
          "durationTicks": 16,
          "midi": 56,
          "name": "G#3",
          "ticks": 11908,
          "time": 15.505208333333334,
          "velocity": 1
        },
        {
          "duration": 0.01822916666666785,
          "durationTicks": 14,
          "midi": 56,
          "name": "G#3",
          "ticks": 12292,
          "time": 16.005208333333332,
          "velocity": 1
        },
        {
          "duration": 0.015625,
          "durationTicks": 12,
          "midi": 56,
          "name": "G#3",
          "ticks": 12678,
          "time": 16.5078125,
          "velocity": 1
        },
        {
          "duration": 0.01822916666666785,
          "durationTicks": 14,
          "midi": 56,
          "name": "G#3",
          "ticks": 13060,
          "time": 17.005208333333332,
          "velocity": 1
        },
        {
          "duration": 0.020833333333335702,
          "durationTicks": 16,
          "midi": 56,
          "name": "G#3",
          "ticks": 13444,
          "time": 17.505208333333332,
          "velocity": 1
        },
        {
          "duration": 0.015625,
          "durationTicks": 12,
          "midi": 56,
          "name": "G#3",
          "ticks": 13830,
          "time": 18.0078125,
          "velocity": 1
        },
        {
          "duration": 0.015625,
          "durationTicks": 12,
          "midi": 56,
          "name": "G#3",
          "ticks": 14214,
          "time": 18.5078125,
          "velocity": 1
        },
        {
          "duration": 0.01822916666666785,
          "durationTicks": 14,
          "midi": 56,
          "name": "G#3",
          "ticks": 14596,
          "time": 19.005208333333332,
          "velocity": 1
        },
        {
          "duration": 0.015625,
          "durationTicks": 12,
          "midi": 56,
          "name": "G#3",
          "ticks": 14982,
          "time": 19.5078125,
          "velocity": 1
        },
        {
          "duration": 0.020833333333335702,
          "durationTicks": 16,
          "midi": 56,
          "name": "G#3",
          "ticks": 15364,
          "time": 20.005208333333332,
          "velocity": 1
        },
        {
          "duration": 0.01822916666666785,
          "durationTicks": 14,
          "midi": 56,
          "name": "G#3",
          "ticks": 15750,
          "time": 20.5078125,
          "velocity": 1
        },
        {
          "duration": 0.01822916666666785,
          "durationTicks": 14,
          "midi": 56,
          "name": "G#3",
          "ticks": 16132,
          "time": 21.005208333333332,
          "velocity": 1
        },
        {
          "duration": 0.013020833333332149,
          "durationTicks": 10,
          "midi": 56,
          "name": "G#3",
          "ticks": 16518,
          "time": 21.5078125,
          "velocity": 1
        },
        {
          "duration": 0.01822916666666785,
          "durationTicks": 14,
          "midi": 56,
          "name": "G#3",
          "ticks": 16900,
          "time": 22.005208333333332,
          "velocity": 1
        },
        {
          "duration": 0.01822916666666785,
          "durationTicks": 14,
          "midi": 56,
          "name": "G#3",
          "ticks": 17286,
          "time": 22.5078125,
          "velocity": 1
        },
        {
          "duration": 0.01822916666666785,
          "durationTicks": 14,
          "midi": 56,
          "name": "G#3",
          "ticks": 17668,
          "time": 23.005208333333332,
          "velocity": 1
        },
        {
          "duration": 0.015625,
          "durationTicks": 12,
          "midi": 56,
          "name": "G#3",
          "ticks": 18054,
          "time": 23.5078125,
          "velocity": 1
        },
        {
          "duration": 0.01822916666666785,
          "durationTicks": 14,
          "midi": 56,
          "name": "G#3",
          "ticks": 18436,
          "time": 24.005208333333332,
          "velocity": 1
        },
        {
          "duration": 0.015625,
          "durationTicks": 12,
          "midi": 56,
          "name": "G#3",
          "ticks": 18822,
          "time": 24.5078125,
          "velocity": 1
        },
        {
          "duration": 0.01822916666666785,
          "durationTicks": 14,
          "midi": 56,
          "name": "G#3",
          "ticks": 19204,
          "time": 25.005208333333332,
          "velocity": 1
        },
        {
          "duration": 0.020833333333335702,
          "durationTicks": 16,
          "midi": 56,
          "name": "G#3",
          "ticks": 19588,
          "time": 25.505208333333332,
          "velocity": 1
        },
        {
          "duration": 0.015625,
          "durationTicks": 12,
          "midi": 56,
          "name": "G#3",
          "ticks": 19974,
          "time": 26.0078125,
          "velocity": 1
        },
        {
          "duration": 0.01822916666666785,
          "durationTicks": 14,
          "midi": 56,
          "name": "G#3",
          "ticks": 20356,
          "time": 26.505208333333332,
          "velocity": 1
        },
        {
          "duration": 0.01822916666666785,
          "durationTicks": 14,
          "midi": 56,
          "name": "G#3",
          "ticks": 20740,
          "time": 27.005208333333332,
          "velocity": 1
        },
        {
          "duration": 0.015625,
          "durationTicks": 12,
          "midi": 56,
          "name": "G#3",
          "ticks": 21126,
          "time": 27.5078125,
          "velocity": 1
        },
        {
          "duration": 0.018229166666664298,
          "durationTicks": 14,
          "midi": 56,
          "name": "G#3",
          "ticks": 46086,
          "time": 60.0078125,
          "velocity": 1
        },
        {
          "duration": 0.020833333333328596,
          "durationTicks": 16,
          "midi": 56,
          "name": "G#3",
          "ticks": 46468,
          "time": 60.505208333333336,
          "velocity": 1
        },
        {
          "duration": 0.015625,
          "durationTicks": 12,
          "midi": 56,
          "name": "G#3",
          "ticks": 46854,
          "time": 61.0078125,
          "velocity": 1
        },
        {
          "duration": 0.015625,
          "durationTicks": 12,
          "midi": 56,
          "name": "G#3",
          "ticks": 47238,
          "time": 61.5078125,
          "velocity": 1
        },
        {
          "duration": 0.015625,
          "durationTicks": 12,
          "midi": 56,
          "name": "G#3",
          "ticks": 47622,
          "time": 62.0078125,
          "velocity": 1
        },
        {
          "duration": 0.015625,
          "durationTicks": 12,
          "midi": 56,
          "name": "G#3",
          "ticks": 48006,
          "time": 62.5078125,
          "velocity": 1
        },
        {
          "duration": 0.015625,
          "durationTicks": 12,
          "midi": 56,
          "name": "G#3",
          "ticks": 48390,
          "time": 63.0078125,
          "velocity": 1
        },
        {
          "duration": 0.018229166666664298,
          "durationTicks": 14,
          "midi": 56,
          "name": "G#3",
          "ticks": 48774,
          "time": 63.5078125,
          "velocity": 1
        },
        {
          "duration": 0.015625,
          "durationTicks": 12,
          "midi": 56,
          "name": "G#3",
          "ticks": 49158,
          "time": 64.0078125,
          "velocity": 1
        },
        {
          "duration": 0.020833333333342807,
          "durationTicks": 16,
          "midi": 56,
          "name": "G#3",
          "ticks": 49540,
          "time": 64.50520833333333,
          "velocity": 1
        },
        {
          "duration": 0.018229166666671404,
          "durationTicks": 14,
          "midi": 56,
          "name": "G#3",
          "ticks": 49924,
          "time": 65.00520833333333,
          "velocity": 1
        },
        {
          "duration": 0.013020833333328596,
          "durationTicks": 10,
          "midi": 56,
          "name": "G#3",
          "ticks": 50310,
          "time": 65.5078125,
          "velocity": 1
        },
        {
          "duration": 0.015625,
          "durationTicks": 12,
          "midi": 56,
          "name": "G#3",
          "ticks": 50694,
          "time": 66.0078125,
          "velocity": 1
        },
        {
          "duration": 0.018229166666671404,
          "durationTicks": 14,
          "midi": 56,
          "name": "G#3",
          "ticks": 51078,
          "time": 66.5078125,
          "velocity": 1
        },
        {
          "duration": 0.015625,
          "durationTicks": 12,
          "midi": 56,
          "name": "G#3",
          "ticks": 51462,
          "time": 67.0078125,
          "velocity": 1
        },
        {
          "duration": 0.015625,
          "durationTicks": 12,
          "midi": 56,
          "name": "G#3",
          "ticks": 51846,
          "time": 67.5078125,
          "velocity": 1
        },
        {
          "duration": 0.018229166666671404,
          "durationTicks": 14,
          "midi": 56,
          "name": "G#3",
          "ticks": 52230,
          "time": 68.0078125,
          "velocity": 1
        },
        {
          "duration": 0.020833333333342807,
          "durationTicks": 16,
          "midi": 56,
          "name": "G#3",
          "ticks": 52612,
          "time": 68.50520833333333,
          "velocity": 1
        },
        {
          "duration": 0.015625,
          "durationTicks": 12,
          "midi": 56,
          "name": "G#3",
          "ticks": 52998,
          "time": 69.0078125,
          "velocity": 1
        },
        {
          "duration": 0.015625,
          "durationTicks": 12,
          "midi": 56,
          "name": "G#3",
          "ticks": 53382,
          "time": 69.5078125,
          "velocity": 1
        },
        {
          "duration": 0.015625,
          "durationTicks": 12,
          "midi": 56,
          "name": "G#3",
          "ticks": 53766,
          "time": 70.0078125,
          "velocity": 1
        },
        {
          "duration": 0.020833333333342807,
          "durationTicks": 16,
          "midi": 56,
          "name": "G#3",
          "ticks": 54148,
          "time": 70.50520833333333,
          "velocity": 1
        },
        {
          "duration": 0.018229166666671404,
          "durationTicks": 14,
          "midi": 56,
          "name": "G#3",
          "ticks": 54532,
          "time": 71.00520833333333,
          "velocity": 1
        },
        {
          "duration": 0.015625,
          "durationTicks": 12,
          "midi": 56,
          "name": "G#3",
          "ticks": 54918,
          "time": 71.5078125,
          "velocity": 1
        },
        {
          "duration": 0.015625,
          "durationTicks": 12,
          "midi": 56,
          "name": "G#3",
          "ticks": 55302,
          "time": 72.0078125,
          "velocity": 1
        },
        {
          "duration": 0.020833333333342807,
          "durationTicks": 16,
          "midi": 56,
          "name": "G#3",
          "ticks": 55684,
          "time": 72.50520833333333,
          "velocity": 1
        },
        {
          "duration": 0.018229166666671404,
          "durationTicks": 14,
          "midi": 56,
          "name": "G#3",
          "ticks": 56068,
          "time": 73.00520833333333,
          "velocity": 1
        },
        {
          "duration": 0.018229166666671404,
          "durationTicks": 14,
          "midi": 56,
          "name": "G#3",
          "ticks": 56454,
          "time": 73.5078125,
          "velocity": 1
        },
        {
          "duration": 0.018229166666671404,
          "durationTicks": 14,
          "midi": 56,
          "name": "G#3",
          "ticks": 56836,
          "time": 74.00520833333333,
          "velocity": 1
        },
        {
          "duration": 0.020833333333342807,
          "durationTicks": 16,
          "midi": 56,
          "name": "G#3",
          "ticks": 57220,
          "time": 74.50520833333333,
          "velocity": 1
        },
        {
          "duration": 0.018229166666671404,
          "durationTicks": 14,
          "midi": 56,
          "name": "G#3",
          "ticks": 57604,
          "time": 75.00520833333333,
          "velocity": 1
        },
        {
          "duration": 0.015625,
          "durationTicks": 12,
          "midi": 56,
          "name": "G#3",
          "ticks": 57990,
          "time": 75.5078125,
          "velocity": 1
        },
        {
          "duration": 0.015625,
          "durationTicks": 12,
          "midi": 56,
          "name": "G#3",
          "ticks": 82950,
          "time": 108.0078125,
          "velocity": 1
        },
        {
          "duration": 0.020833333333342807,
          "durationTicks": 16,
          "midi": 56,
          "name": "G#3",
          "ticks": 83332,
          "time": 108.50520833333333,
          "velocity": 1
        },
        {
          "duration": 0.015625,
          "durationTicks": 12,
          "midi": 56,
          "name": "G#3",
          "ticks": 83718,
          "time": 109.0078125,
          "velocity": 1
        },
        {
          "duration": 0.015625,
          "durationTicks": 12,
          "midi": 56,
          "name": "G#3",
          "ticks": 84102,
          "time": 109.5078125,
          "velocity": 1
        },
        {
          "duration": 0.015625,
          "durationTicks": 12,
          "midi": 56,
          "name": "G#3",
          "ticks": 84486,
          "time": 110.0078125,
          "velocity": 1
        },
        {
          "duration": 0.018229166666671404,
          "durationTicks": 14,
          "midi": 56,
          "name": "G#3",
          "ticks": 84870,
          "time": 110.5078125,
          "velocity": 1
        },
        {
          "duration": 0.015625,
          "durationTicks": 12,
          "midi": 56,
          "name": "G#3",
          "ticks": 85254,
          "time": 111.0078125,
          "velocity": 1
        },
        {
          "duration": 0.018229166666671404,
          "durationTicks": 14,
          "midi": 56,
          "name": "G#3",
          "ticks": 85638,
          "time": 111.5078125,
          "velocity": 1
        },
        {
          "duration": 0.015625,
          "durationTicks": 12,
          "midi": 56,
          "name": "G#3",
          "ticks": 86022,
          "time": 112.0078125,
          "velocity": 1
        },
        {
          "duration": 0.020833333333342807,
          "durationTicks": 16,
          "midi": 56,
          "name": "G#3",
          "ticks": 86404,
          "time": 112.50520833333333,
          "velocity": 1
        },
        {
          "duration": 0.018229166666671404,
          "durationTicks": 14,
          "midi": 56,
          "name": "G#3",
          "ticks": 86788,
          "time": 113.00520833333333,
          "velocity": 1
        },
        {
          "duration": 0.015625,
          "durationTicks": 12,
          "midi": 56,
          "name": "G#3",
          "ticks": 87174,
          "time": 113.5078125,
          "velocity": 1
        },
        {
          "duration": 0.015625,
          "durationTicks": 12,
          "midi": 56,
          "name": "G#3",
          "ticks": 87558,
          "time": 114.0078125,
          "velocity": 1
        },
        {
          "duration": 0.020833333333342807,
          "durationTicks": 16,
          "midi": 56,
          "name": "G#3",
          "ticks": 87940,
          "time": 114.50520833333333,
          "velocity": 1
        },
        {
          "duration": 0.015625,
          "durationTicks": 12,
          "midi": 56,
          "name": "G#3",
          "ticks": 88326,
          "time": 115.0078125,
          "velocity": 1
        },
        {
          "duration": 0.018229166666671404,
          "durationTicks": 14,
          "midi": 56,
          "name": "G#3",
          "ticks": 88710,
          "time": 115.5078125,
          "velocity": 1
        },
        {
          "duration": 0.018229166666671404,
          "durationTicks": 14,
          "midi": 56,
          "name": "G#3",
          "ticks": 89092,
          "time": 116.00520833333333,
          "velocity": 1
        },
        {
          "duration": 0.015625,
          "durationTicks": 12,
          "midi": 56,
          "name": "G#3",
          "ticks": 89478,
          "time": 116.5078125,
          "velocity": 1
        },
        {
          "duration": 0.018229166666671404,
          "durationTicks": 14,
          "midi": 56,
          "name": "G#3",
          "ticks": 89860,
          "time": 117.00520833333333,
          "velocity": 1
        },
        {
          "duration": 0.015625,
          "durationTicks": 12,
          "midi": 56,
          "name": "G#3",
          "ticks": 90246,
          "time": 117.5078125,
          "velocity": 1
        },
        {
          "duration": 0.018229166666671404,
          "durationTicks": 14,
          "midi": 56,
          "name": "G#3",
          "ticks": 90628,
          "time": 118.00520833333333,
          "velocity": 1
        },
        {
          "duration": 0.015625,
          "durationTicks": 12,
          "midi": 56,
          "name": "G#3",
          "ticks": 91014,
          "time": 118.5078125,
          "velocity": 1
        },
        {
          "duration": 0.015625,
          "durationTicks": 12,
          "midi": 56,
          "name": "G#3",
          "ticks": 91398,
          "time": 119.0078125,
          "velocity": 1
        },
        {
          "duration": 0.015625,
          "durationTicks": 12,
          "midi": 56,
          "name": "G#3",
          "ticks": 91782,
          "time": 119.5078125,
          "velocity": 1
        },
        {
          "duration": 0.015625,
          "durationTicks": 12,
          "midi": 56,
          "name": "G#3",
          "ticks": 92166,
          "time": 120.0078125,
          "velocity": 1
        },
        {
          "duration": 0.015625,
          "durationTicks": 12,
          "midi": 56,
          "name": "G#3",
          "ticks": 92550,
          "time": 120.5078125,
          "velocity": 1
        },
        {
          "duration": 0.018229166666671404,
          "durationTicks": 14,
          "midi": 56,
          "name": "G#3",
          "ticks": 92932,
          "time": 121.00520833333333,
          "velocity": 1
        },
        {
          "duration": 0.015625,
          "durationTicks": 12,
          "midi": 56,
          "name": "G#3",
          "ticks": 93318,
          "time": 121.5078125,
          "velocity": 1
        },
        {
          "duration": 0.015625,
          "durationTicks": 12,
          "midi": 56,
          "name": "G#3",
          "ticks": 93700,
          "time": 122.00520833333333,
          "velocity": 1
        },
        {
          "duration": 0.015625,
          "durationTicks": 12,
          "midi": 56,
          "name": "G#3",
          "ticks": 94086,
          "time": 122.5078125,
          "velocity": 1
        },
        {
          "duration": 0.018229166666671404,
          "durationTicks": 14,
          "midi": 56,
          "name": "G#3",
          "ticks": 94468,
          "time": 123.00520833333333,
          "velocity": 1
        },
        {
          "duration": 0.015625,
          "durationTicks": 12,
          "midi": 56,
          "name": "G#3",
          "ticks": 94854,
          "time": 123.5078125,
          "velocity": 1
        },
        {
          "duration": 0.020833333333314386,
          "durationTicks": 16,
          "midi": 56,
          "name": "G#3",
          "ticks": 107524,
          "time": 140.00520833333334,
          "velocity": 1
        },
        {
          "duration": 0.015625,
          "durationTicks": 12,
          "midi": 56,
          "name": "G#3",
          "ticks": 107910,
          "time": 140.5078125,
          "velocity": 1
        },
        {
          "duration": 0.018229166666657193,
          "durationTicks": 14,
          "midi": 56,
          "name": "G#3",
          "ticks": 108292,
          "time": 141.00520833333334,
          "velocity": 1
        },
        {
          "duration": 0.015625,
          "durationTicks": 12,
          "midi": 56,
          "name": "G#3",
          "ticks": 108678,
          "time": 141.5078125,
          "velocity": 1
        },
        {
          "duration": 0.018229166666657193,
          "durationTicks": 14,
          "midi": 56,
          "name": "G#3",
          "ticks": 109060,
          "time": 142.00520833333334,
          "velocity": 1
        },
        {
          "duration": 0.015625,
          "durationTicks": 12,
          "midi": 56,
          "name": "G#3",
          "ticks": 109446,
          "time": 142.5078125,
          "velocity": 1
        },
        {
          "duration": 0.018229166666657193,
          "durationTicks": 14,
          "midi": 56,
          "name": "G#3",
          "ticks": 109828,
          "time": 143.00520833333334,
          "velocity": 1
        },
        {
          "duration": 0.015625,
          "durationTicks": 12,
          "midi": 56,
          "name": "G#3",
          "ticks": 110214,
          "time": 143.5078125,
          "velocity": 1
        },
        {
          "duration": 0.015625,
          "durationTicks": 12,
          "midi": 56,
          "name": "G#3",
          "ticks": 110598,
          "time": 144.0078125,
          "velocity": 1
        },
        {
          "duration": 0.015625,
          "durationTicks": 12,
          "midi": 56,
          "name": "G#3",
          "ticks": 110982,
          "time": 144.5078125,
          "velocity": 1
        },
        {
          "duration": 0.018229166666657193,
          "durationTicks": 14,
          "midi": 56,
          "name": "G#3",
          "ticks": 111364,
          "time": 145.00520833333334,
          "velocity": 1
        },
        {
          "duration": 0.018229166666657193,
          "durationTicks": 14,
          "midi": 56,
          "name": "G#3",
          "ticks": 111748,
          "time": 145.50520833333334,
          "velocity": 1
        },
        {
          "duration": 0.015625,
          "durationTicks": 12,
          "midi": 56,
          "name": "G#3",
          "ticks": 112134,
          "time": 146.0078125,
          "velocity": 1
        },
        {
          "duration": 0.015625,
          "durationTicks": 12,
          "midi": 56,
          "name": "G#3",
          "ticks": 112518,
          "time": 146.5078125,
          "velocity": 1
        },
        {
          "duration": 0.015625,
          "durationTicks": 12,
          "midi": 56,
          "name": "G#3",
          "ticks": 112902,
          "time": 147.0078125,
          "velocity": 1
        },
        {
          "duration": 0.018229166666657193,
          "durationTicks": 14,
          "midi": 56,
          "name": "G#3",
          "ticks": 113286,
          "time": 147.5078125,
          "velocity": 1
        },
        {
          "duration": 0.020833333333314386,
          "durationTicks": 16,
          "midi": 56,
          "name": "G#3",
          "ticks": 113668,
          "time": 148.00520833333334,
          "velocity": 1
        },
        {
          "duration": 0.018229166666657193,
          "durationTicks": 14,
          "midi": 56,
          "name": "G#3",
          "ticks": 114052,
          "time": 148.50520833333334,
          "velocity": 1
        },
        {
          "duration": 0.018229166666657193,
          "durationTicks": 14,
          "midi": 56,
          "name": "G#3",
          "ticks": 114436,
          "time": 149.00520833333334,
          "velocity": 1
        },
        {
          "duration": 0.015625,
          "durationTicks": 12,
          "midi": 56,
          "name": "G#3",
          "ticks": 114822,
          "time": 149.5078125,
          "velocity": 1
        },
        {
          "duration": 0.015625,
          "durationTicks": 12,
          "midi": 56,
          "name": "G#3",
          "ticks": 115206,
          "time": 150.0078125,
          "velocity": 1
        },
        {
          "duration": 0.015625,
          "durationTicks": 12,
          "midi": 56,
          "name": "G#3",
          "ticks": 115590,
          "time": 150.5078125,
          "velocity": 1
        },
        {
          "duration": 0.015625,
          "durationTicks": 12,
          "midi": 56,
          "name": "G#3",
          "ticks": 115974,
          "time": 151.0078125,
          "velocity": 1
        },
        {
          "duration": 0.015625,
          "durationTicks": 12,
          "midi": 56,
          "name": "G#3",
          "ticks": 116358,
          "time": 151.5078125,
          "velocity": 1
        },
        {
          "duration": 0.018229166666657193,
          "durationTicks": 14,
          "midi": 56,
          "name": "G#3",
          "ticks": 116740,
          "time": 152.00520833333334,
          "velocity": 1
        },
        {
          "duration": 0.015625,
          "durationTicks": 12,
          "midi": 56,
          "name": "G#3",
          "ticks": 117126,
          "time": 152.5078125,
          "velocity": 1
        },
        {
          "duration": 0.015625,
          "durationTicks": 12,
          "midi": 56,
          "name": "G#3",
          "ticks": 117510,
          "time": 153.0078125,
          "velocity": 1
        },
        {
          "duration": 0.018229166666657193,
          "durationTicks": 14,
          "midi": 56,
          "name": "G#3",
          "ticks": 117892,
          "time": 153.50520833333334,
          "velocity": 1
        },
        {
          "duration": 0.018229166666657193,
          "durationTicks": 14,
          "midi": 56,
          "name": "G#3",
          "ticks": 118276,
          "time": 154.00520833333334,
          "velocity": 1
        },
        {
          "duration": 0.018229166666657193,
          "durationTicks": 14,
          "midi": 56,
          "name": "G#3",
          "ticks": 118660,
          "time": 154.50520833333334,
          "velocity": 1
        },
        {
          "duration": 0.018229166666657193,
          "durationTicks": 14,
          "midi": 56,
          "name": "G#3",
          "ticks": 119044,
          "time": 155.00520833333334,
          "velocity": 1
        },
        {
          "duration": 0.015625,
          "durationTicks": 12,
          "midi": 56,
          "name": "G#3",
          "ticks": 119430,
          "time": 155.5078125,
          "velocity": 1
        },
        {
          "duration": 0.015625,
          "durationTicks": 12,
          "midi": 56,
          "name": "G#3",
          "ticks": 119814,
          "time": 156.0078125,
          "velocity": 1
        },
        {
          "duration": 0.020833333333314386,
          "durationTicks": 16,
          "midi": 56,
          "name": "G#3",
          "ticks": 120196,
          "time": 156.50520833333334,
          "velocity": 1
        },
        {
          "duration": 0.015625,
          "durationTicks": 12,
          "midi": 56,
          "name": "G#3",
          "ticks": 120582,
          "time": 157.0078125,
          "velocity": 1
        },
        {
          "duration": 0.018229166666657193,
          "durationTicks": 14,
          "midi": 56,
          "name": "G#3",
          "ticks": 120966,
          "time": 157.5078125,
          "velocity": 1
        },
        {
          "duration": 0.015625,
          "durationTicks": 12,
          "midi": 56,
          "name": "G#3",
          "ticks": 121350,
          "time": 158.0078125,
          "velocity": 1
        },
        {
          "duration": 0.020833333333314386,
          "durationTicks": 16,
          "midi": 56,
          "name": "G#3",
          "ticks": 121732,
          "time": 158.50520833333334,
          "velocity": 1
        },
        {
          "duration": 0.018229166666657193,
          "durationTicks": 14,
          "midi": 56,
          "name": "G#3",
          "ticks": 122116,
          "time": 159.00520833333334,
          "velocity": 1
        },
        {
          "duration": 0.015625,
          "durationTicks": 12,
          "midi": 56,
          "name": "G#3",
          "ticks": 122502,
          "time": 159.5078125,
          "velocity": 1
        },
        {
          "duration": 0.018229166666657193,
          "durationTicks": 14,
          "midi": 56,
          "name": "G#3",
          "ticks": 122884,
          "time": 160.00520833333334,
          "velocity": 1
        },
        {
          "duration": 0.020833333333314386,
          "durationTicks": 16,
          "midi": 56,
          "name": "G#3",
          "ticks": 123268,
          "time": 160.50520833333334,
          "velocity": 1
        },
        {
          "duration": 0.015625,
          "durationTicks": 12,
          "midi": 56,
          "name": "G#3",
          "ticks": 123654,
          "time": 161.0078125,
          "velocity": 1
        },
        {
          "duration": 0.020833333333314386,
          "durationTicks": 16,
          "midi": 56,
          "name": "G#3",
          "ticks": 124036,
          "time": 161.50520833333334,
          "velocity": 1
        },
        {
          "duration": 0.015625,
          "durationTicks": 12,
          "midi": 56,
          "name": "G#3",
          "ticks": 124422,
          "time": 162.0078125,
          "velocity": 1
        },
        {
          "duration": 0.020833333333314386,
          "durationTicks": 16,
          "midi": 56,
          "name": "G#3",
          "ticks": 124804,
          "time": 162.50520833333334,
          "velocity": 1
        },
        {
          "duration": 0.015625,
          "durationTicks": 12,
          "midi": 56,
          "name": "G#3",
          "ticks": 125190,
          "time": 163.0078125,
          "velocity": 1
        },
        {
          "duration": 0.015625,
          "durationTicks": 12,
          "midi": 56,
          "name": "G#3",
          "ticks": 125574,
          "time": 163.5078125,
          "velocity": 1
        },
        {
          "duration": 0.015625,
          "durationTicks": 12,
          "midi": 56,
          "name": "G#3",
          "ticks": 125958,
          "time": 164.0078125,
          "velocity": 1
        },
        {
          "duration": 0.018229166666657193,
          "durationTicks": 14,
          "midi": 56,
          "name": "G#3",
          "ticks": 126340,
          "time": 164.50520833333334,
          "velocity": 1
        },
        {
          "duration": 0.015625,
          "durationTicks": 12,
          "midi": 56,
          "name": "G#3",
          "ticks": 126726,
          "time": 165.0078125,
          "velocity": 1
        },
        {
          "duration": 0.018229166666657193,
          "durationTicks": 14,
          "midi": 56,
          "name": "G#3",
          "ticks": 127110,
          "time": 165.5078125,
          "velocity": 1
        },
        {
          "duration": 0.015625,
          "durationTicks": 12,
          "midi": 56,
          "name": "G#3",
          "ticks": 127494,
          "time": 166.0078125,
          "velocity": 1
        },
        {
          "duration": 0.020833333333314386,
          "durationTicks": 16,
          "midi": 56,
          "name": "G#3",
          "ticks": 127876,
          "time": 166.50520833333334,
          "velocity": 1
        },
        {
          "duration": 0.015625,
          "durationTicks": 12,
          "midi": 56,
          "name": "G#3",
          "ticks": 128262,
          "time": 167.0078125,
          "velocity": 1
        },
        {
          "duration": 0.015625,
          "durationTicks": 12,
          "midi": 56,
          "name": "G#3",
          "ticks": 128646,
          "time": 167.5078125,
          "velocity": 1
        },
        {
          "duration": 0.015625,
          "durationTicks": 12,
          "midi": 56,
          "name": "G#3",
          "ticks": 129030,
          "time": 168.0078125,
          "velocity": 1
        },
        {
          "duration": 0.020833333333314386,
          "durationTicks": 16,
          "midi": 56,
          "name": "G#3",
          "ticks": 129412,
          "time": 168.50520833333334,
          "velocity": 1
        },
        {
          "duration": 0.015625,
          "durationTicks": 12,
          "midi": 56,
          "name": "G#3",
          "ticks": 129798,
          "time": 169.0078125,
          "velocity": 1
        },
        {
          "duration": 0.020833333333314386,
          "durationTicks": 16,
          "midi": 56,
          "name": "G#3",
          "ticks": 130180,
          "time": 169.50520833333334,
          "velocity": 1
        },
        {
          "duration": 0.015625,
          "durationTicks": 12,
          "midi": 56,
          "name": "G#3",
          "ticks": 130566,
          "time": 170.0078125,
          "velocity": 1
        },
        {
          "duration": 0.020833333333314386,
          "durationTicks": 16,
          "midi": 56,
          "name": "G#3",
          "ticks": 130948,
          "time": 170.50520833333334,
          "velocity": 1
        },
        {
          "duration": 0.018229166666657193,
          "durationTicks": 14,
          "midi": 56,
          "name": "G#3",
          "ticks": 131332,
          "time": 171.00520833333334,
          "velocity": 1
        },
        {
          "duration": 0.015625,
          "durationTicks": 12,
          "midi": 56,
          "name": "G#3",
          "ticks": 131718,
          "time": 171.5078125,
          "velocity": 1
        }
      ],
      "endOfTrackTicks": 131922
    },
    {
      "channel": 9,
      "controlChanges": {},
      "pitchBends": [],
      "instrument": {
        "family": "drums",
        "number": 0,
        "name": "standard kit"
      },
      "name": "OPEN HIHAT",
      "notes": [
        {
          "duration": 0.018229166666666963,
          "durationTicks": 14,
          "midi": 46,
          "name": "A#2",
          "ticks": 5956,
          "time": 7.755208333333333,
          "velocity": 1
        },
        {
          "duration": 0.018229166666666075,
          "durationTicks": 14,
          "midi": 46,
          "name": "A#2",
          "ticks": 9028,
          "time": 11.755208333333334,
          "velocity": 1
        },
        {
          "duration": 0.018229166666666075,
          "durationTicks": 14,
          "midi": 46,
          "name": "A#2",
          "ticks": 12100,
          "time": 15.755208333333334,
          "velocity": 1
        },
        {
          "duration": 0.01822916666666785,
          "durationTicks": 14,
          "midi": 46,
          "name": "A#2",
          "ticks": 15172,
          "time": 19.755208333333332,
          "velocity": 1
        },
        {
          "duration": 0.01822916666666785,
          "durationTicks": 14,
          "midi": 46,
          "name": "A#2",
          "ticks": 18244,
          "time": 23.755208333333332,
          "velocity": 1
        },
        {
          "duration": 0.015625,
          "durationTicks": 12,
          "midi": 46,
          "name": "A#2",
          "ticks": 21316,
          "time": 27.755208333333332,
          "velocity": 1
        },
        {
          "duration": 0.018229166666664298,
          "durationTicks": 14,
          "midi": 46,
          "name": "A#2",
          "ticks": 24386,
          "time": 31.752604166666668,
          "velocity": 1
        },
        {
          "duration": 0.015625,
          "durationTicks": 12,
          "midi": 46,
          "name": "A#2",
          "ticks": 27460,
          "time": 35.755208333333336,
          "velocity": 1
        },
        {
          "duration": 0.018229166666671404,
          "durationTicks": 14,
          "midi": 46,
          "name": "A#2",
          "ticks": 30530,
          "time": 39.752604166666664,
          "velocity": 1
        },
        {
          "duration": 0.015625,
          "durationTicks": 12,
          "midi": 46,
          "name": "A#2",
          "ticks": 33604,
          "time": 43.755208333333336,
          "velocity": 1
        },
        {
          "duration": 0.015625,
          "durationTicks": 12,
          "midi": 46,
          "name": "A#2",
          "ticks": 36676,
          "time": 47.755208333333336,
          "velocity": 1
        },
        {
          "duration": 0.018229166666671404,
          "durationTicks": 14,
          "midi": 46,
          "name": "A#2",
          "ticks": 39746,
          "time": 51.752604166666664,
          "velocity": 1
        },
        {
          "duration": 0.018229166666671404,
          "durationTicks": 14,
          "midi": 46,
          "name": "A#2",
          "ticks": 42818,
          "time": 55.752604166666664,
          "velocity": 1
        },
        {
          "duration": 0.018229166666664298,
          "durationTicks": 14,
          "midi": 46,
          "name": "A#2",
          "ticks": 45892,
          "time": 59.755208333333336,
          "velocity": 1
        },
        {
          "duration": 0.018229166666664298,
          "durationTicks": 14,
          "midi": 46,
          "name": "A#2",
          "ticks": 48964,
          "time": 63.755208333333336,
          "velocity": 1
        },
        {
          "duration": 0.018229166666671404,
          "durationTicks": 14,
          "midi": 46,
          "name": "A#2",
          "ticks": 52036,
          "time": 67.75520833333333,
          "velocity": 1
        },
        {
          "duration": 0.018229166666671404,
          "durationTicks": 14,
          "midi": 46,
          "name": "A#2",
          "ticks": 55108,
          "time": 71.75520833333333,
          "velocity": 1
        },
        {
          "duration": 0.013020833333328596,
          "durationTicks": 10,
          "midi": 46,
          "name": "A#2",
          "ticks": 58182,
          "time": 75.7578125,
          "velocity": 1
        },
        {
          "duration": 0.018229166666657193,
          "durationTicks": 14,
          "midi": 46,
          "name": "A#2",
          "ticks": 61250,
          "time": 79.75260416666667,
          "velocity": 1
        },
        {
          "duration": 0.015625,
          "durationTicks": 12,
          "midi": 46,
          "name": "A#2",
          "ticks": 64324,
          "time": 83.75520833333333,
          "velocity": 1
        },
        {
          "duration": 0.018229166666657193,
          "durationTicks": 14,
          "midi": 46,
          "name": "A#2",
          "ticks": 67394,
          "time": 87.75260416666667,
          "velocity": 1
        },
        {
          "duration": 0.018229166666657193,
          "durationTicks": 14,
          "midi": 46,
          "name": "A#2",
          "ticks": 70466,
          "time": 91.75260416666667,
          "velocity": 1
        },
        {
          "duration": 0.018229166666657193,
          "durationTicks": 14,
          "midi": 46,
          "name": "A#2",
          "ticks": 73538,
          "time": 95.75260416666667,
          "velocity": 1
        },
        {
          "duration": 0.015625,
          "durationTicks": 12,
          "midi": 46,
          "name": "A#2",
          "ticks": 76612,
          "time": 99.75520833333333,
          "velocity": 1
        },
        {
          "duration": 0.018229166666657193,
          "durationTicks": 14,
          "midi": 46,
          "name": "A#2",
          "ticks": 79682,
          "time": 103.75260416666667,
          "velocity": 1
        },
        {
          "duration": 0.018229166666671404,
          "durationTicks": 14,
          "midi": 46,
          "name": "A#2",
          "ticks": 82756,
          "time": 107.75520833333333,
          "velocity": 1
        },
        {
          "duration": 0.018229166666671404,
          "durationTicks": 14,
          "midi": 46,
          "name": "A#2",
          "ticks": 85828,
          "time": 111.75520833333333,
          "velocity": 1
        },
        {
          "duration": 0.018229166666671404,
          "durationTicks": 14,
          "midi": 46,
          "name": "A#2",
          "ticks": 88900,
          "time": 115.75520833333333,
          "velocity": 1
        },
        {
          "duration": 0.018229166666671404,
          "durationTicks": 14,
          "midi": 46,
          "name": "A#2",
          "ticks": 91972,
          "time": 119.75520833333333,
          "velocity": 1
        },
        {
          "duration": 0.018229166666671404,
          "durationTicks": 14,
          "midi": 46,
          "name": "A#2",
          "ticks": 95044,
          "time": 123.75520833333333,
          "velocity": 1
        },
        {
          "duration": 0.015625,
          "durationTicks": 12,
          "midi": 46,
          "name": "A#2",
          "ticks": 98116,
          "time": 127.75520833333333,
          "velocity": 1
        },
        {
          "duration": 0.018229166666657193,
          "durationTicks": 14,
          "midi": 46,
          "name": "A#2",
          "ticks": 101188,
          "time": 131.75520833333334,
          "velocity": 1
        },
        {
          "duration": 0.018229166666657193,
          "durationTicks": 14,
          "midi": 46,
          "name": "A#2",
          "ticks": 104260,
          "time": 135.75520833333334,
          "velocity": 1
        },
        {
          "duration": 0.018229166666657193,
          "durationTicks": 14,
          "midi": 46,
          "name": "A#2",
          "ticks": 107332,
          "time": 139.75520833333334,
          "velocity": 1
        },
        {
          "duration": 0.018229166666657193,
          "durationTicks": 14,
          "midi": 46,
          "name": "A#2",
          "ticks": 110404,
          "time": 143.75520833333334,
          "velocity": 1
        },
        {
          "duration": 0.018229166666657193,
          "durationTicks": 14,
          "midi": 46,
          "name": "A#2",
          "ticks": 113476,
          "time": 147.75520833333334,
          "velocity": 1
        },
        {
          "duration": 0.018229166666657193,
          "durationTicks": 14,
          "midi": 46,
          "name": "A#2",
          "ticks": 116548,
          "time": 151.75520833333334,
          "velocity": 1
        },
        {
          "duration": 0.015625,
          "durationTicks": 12,
          "midi": 46,
          "name": "A#2",
          "ticks": 119622,
          "time": 155.7578125,
          "velocity": 1
        },
        {
          "duration": 0.018229166666657193,
          "durationTicks": 14,
          "midi": 46,
          "name": "A#2",
          "ticks": 122692,
          "time": 159.75520833333334,
          "velocity": 1
        },
        {
          "duration": 0.018229166666657193,
          "durationTicks": 14,
          "midi": 46,
          "name": "A#2",
          "ticks": 125764,
          "time": 163.75520833333334,
          "velocity": 1
        },
        {
          "duration": 0.018229166666657193,
          "durationTicks": 14,
          "midi": 46,
          "name": "A#2",
          "ticks": 128836,
          "time": 167.75520833333334,
          "velocity": 1
        },
        {
          "duration": 0.015625,
          "durationTicks": 12,
          "midi": 46,
          "name": "A#2",
          "ticks": 131910,
          "time": 171.7578125,
          "velocity": 1
        },
        {
          "duration": 0.018229166666657193,
          "durationTicks": 14,
          "midi": 46,
          "name": "A#2",
          "ticks": 132100,
          "time": 172.00520833333334,
          "velocity": 1
        }
      ],
      "endOfTrackTicks": 132306
    },
    {
      "channel": 9,
      "controlChanges": {},
      "pitchBends": [],
      "instrument": {
        "family": "drums",
        "number": 0,
        "name": "standard kit"
      },
      "name": "HIGH CONGA",
      "notes": [
        {
          "duration": 0.020833333333333037,
          "durationTicks": 16,
          "midi": 63,
          "name": "D#4",
          "ticks": 3360,
          "time": 4.375,
          "velocity": 1
        },
        {
          "duration": 0.018229166666666075,
          "durationTicks": 14,
          "midi": 63,
          "name": "D#4",
          "ticks": 3458,
          "time": 4.502604166666667,
          "velocity": 1
        },
        {
          "duration": 0.018229166666666075,
          "durationTicks": 14,
          "midi": 63,
          "name": "D#4",
          "ticks": 4034,
          "time": 5.252604166666667,
          "velocity": 1
        },
        {
          "duration": 0.020833333333333037,
          "durationTicks": 16,
          "midi": 63,
          "name": "D#4",
          "ticks": 4128,
          "time": 5.375,
          "velocity": 1
        },
        {
          "duration": 0.018229166666666963,
          "durationTicks": 14,
          "midi": 63,
          "name": "D#4",
          "ticks": 4896,
          "time": 6.375,
          "velocity": 1
        },
        {
          "duration": 0.015625,
          "durationTicks": 12,
          "midi": 63,
          "name": "D#4",
          "ticks": 4996,
          "time": 6.505208333333333,
          "velocity": 1
        },
        {
          "duration": 0.018229166666666075,
          "durationTicks": 14,
          "midi": 63,
          "name": "D#4",
          "ticks": 5570,
          "time": 7.252604166666667,
          "velocity": 1
        },
        {
          "duration": 0.015625,
          "durationTicks": 12,
          "midi": 63,
          "name": "D#4",
          "ticks": 5666,
          "time": 7.377604166666667,
          "velocity": 1
        },
        {
          "duration": 0.01822916666666785,
          "durationTicks": 14,
          "midi": 63,
          "name": "D#4",
          "ticks": 6434,
          "time": 8.377604166666666,
          "velocity": 1
        },
        {
          "duration": 0.01822916666666785,
          "durationTicks": 14,
          "midi": 63,
          "name": "D#4",
          "ticks": 6530,
          "time": 8.502604166666666,
          "velocity": 1
        },
        {
          "duration": 0.01822916666666785,
          "durationTicks": 14,
          "midi": 63,
          "name": "D#4",
          "ticks": 7106,
          "time": 9.252604166666666,
          "velocity": 1
        },
        {
          "duration": 0.018229166666666075,
          "durationTicks": 14,
          "midi": 63,
          "name": "D#4",
          "ticks": 7200,
          "time": 9.375,
          "velocity": 1
        },
        {
          "duration": 0.015625,
          "durationTicks": 12,
          "midi": 63,
          "name": "D#4",
          "ticks": 7970,
          "time": 10.377604166666666,
          "velocity": 1
        },
        {
          "duration": 0.015625,
          "durationTicks": 12,
          "midi": 63,
          "name": "D#4",
          "ticks": 8066,
          "time": 10.502604166666666,
          "velocity": 1
        },
        {
          "duration": 0.01822916666666785,
          "durationTicks": 14,
          "midi": 63,
          "name": "D#4",
          "ticks": 8642,
          "time": 11.252604166666666,
          "velocity": 1
        },
        {
          "duration": 0.01822916666666785,
          "durationTicks": 14,
          "midi": 63,
          "name": "D#4",
          "ticks": 8738,
          "time": 11.377604166666666,
          "velocity": 1
        },
        {
          "duration": 0.018229166666666075,
          "durationTicks": 14,
          "midi": 63,
          "name": "D#4",
          "ticks": 9504,
          "time": 12.375,
          "velocity": 1
        },
        {
          "duration": 0.01822916666666785,
          "durationTicks": 14,
          "midi": 63,
          "name": "D#4",
          "ticks": 9602,
          "time": 12.502604166666666,
          "velocity": 1
        },
        {
          "duration": 0.01822916666666785,
          "durationTicks": 14,
          "midi": 63,
          "name": "D#4",
          "ticks": 10178,
          "time": 13.252604166666666,
          "velocity": 1
        },
        {
          "duration": 0.015625,
          "durationTicks": 12,
          "midi": 63,
          "name": "D#4",
          "ticks": 10274,
          "time": 13.377604166666666,
          "velocity": 1
        },
        {
          "duration": 0.01822916666666785,
          "durationTicks": 14,
          "midi": 63,
          "name": "D#4",
          "ticks": 11042,
          "time": 14.377604166666666,
          "velocity": 1
        },
        {
          "duration": 0.01822916666666785,
          "durationTicks": 14,
          "midi": 63,
          "name": "D#4",
          "ticks": 11138,
          "time": 14.502604166666666,
          "velocity": 1
        },
        {
          "duration": 0.01822916666666785,
          "durationTicks": 14,
          "midi": 63,
          "name": "D#4",
          "ticks": 11714,
          "time": 15.252604166666666,
          "velocity": 1
        },
        {
          "duration": 0.018229166666666075,
          "durationTicks": 14,
          "midi": 63,
          "name": "D#4",
          "ticks": 11808,
          "time": 15.375,
          "velocity": 1
        },
        {
          "duration": 0.015625,
          "durationTicks": 12,
          "midi": 63,
          "name": "D#4",
          "ticks": 12578,
          "time": 16.377604166666668,
          "velocity": 1
        },
        {
          "duration": 0.018229166666664298,
          "durationTicks": 14,
          "midi": 63,
          "name": "D#4",
          "ticks": 12674,
          "time": 16.502604166666668,
          "velocity": 1
        },
        {
          "duration": 0.015625,
          "durationTicks": 12,
          "midi": 63,
          "name": "D#4",
          "ticks": 13252,
          "time": 17.255208333333332,
          "velocity": 1
        },
        {
          "duration": 0.018229166666664298,
          "durationTicks": 14,
          "midi": 63,
          "name": "D#4",
          "ticks": 13346,
          "time": 17.377604166666668,
          "velocity": 1
        },
        {
          "duration": 0.015625,
          "durationTicks": 12,
          "midi": 63,
          "name": "D#4",
          "ticks": 14114,
          "time": 18.377604166666668,
          "velocity": 1
        },
        {
          "duration": 0.018229166666664298,
          "durationTicks": 14,
          "midi": 63,
          "name": "D#4",
          "ticks": 14210,
          "time": 18.502604166666668,
          "velocity": 1
        },
        {
          "duration": 0.015625,
          "durationTicks": 12,
          "midi": 63,
          "name": "D#4",
          "ticks": 14788,
          "time": 19.255208333333332,
          "velocity": 1
        },
        {
          "duration": 0.018229166666664298,
          "durationTicks": 14,
          "midi": 63,
          "name": "D#4",
          "ticks": 14882,
          "time": 19.377604166666668,
          "velocity": 1
        },
        {
          "duration": 0.01822916666666785,
          "durationTicks": 14,
          "midi": 63,
          "name": "D#4",
          "ticks": 15648,
          "time": 20.375,
          "velocity": 1
        },
        {
          "duration": 0.015625,
          "durationTicks": 12,
          "midi": 63,
          "name": "D#4",
          "ticks": 15748,
          "time": 20.505208333333332,
          "velocity": 1
        },
        {
          "duration": 0.018229166666664298,
          "durationTicks": 14,
          "midi": 63,
          "name": "D#4",
          "ticks": 16322,
          "time": 21.252604166666668,
          "velocity": 1
        },
        {
          "duration": 0.018229166666664298,
          "durationTicks": 14,
          "midi": 63,
          "name": "D#4",
          "ticks": 16418,
          "time": 21.377604166666668,
          "velocity": 1
        },
        {
          "duration": 0.01822916666666785,
          "durationTicks": 14,
          "midi": 63,
          "name": "D#4",
          "ticks": 17184,
          "time": 22.375,
          "velocity": 1
        },
        {
          "duration": 0.015625,
          "durationTicks": 12,
          "midi": 63,
          "name": "D#4",
          "ticks": 17284,
          "time": 22.505208333333332,
          "velocity": 1
        },
        {
          "duration": 0.018229166666664298,
          "durationTicks": 14,
          "midi": 63,
          "name": "D#4",
          "ticks": 17858,
          "time": 23.252604166666668,
          "velocity": 1
        },
        {
          "duration": 0.015625,
          "durationTicks": 12,
          "midi": 63,
          "name": "D#4",
          "ticks": 17954,
          "time": 23.377604166666668,
          "velocity": 1
        },
        {
          "duration": 0.018229166666664298,
          "durationTicks": 14,
          "midi": 63,
          "name": "D#4",
          "ticks": 18722,
          "time": 24.377604166666668,
          "velocity": 1
        },
        {
          "duration": 0.018229166666664298,
          "durationTicks": 14,
          "midi": 63,
          "name": "D#4",
          "ticks": 18818,
          "time": 24.502604166666668,
          "velocity": 1
        },
        {
          "duration": 0.018229166666664298,
          "durationTicks": 14,
          "midi": 63,
          "name": "D#4",
          "ticks": 19394,
          "time": 25.252604166666668,
          "velocity": 1
        },
        {
          "duration": 0.01822916666666785,
          "durationTicks": 14,
          "midi": 63,
          "name": "D#4",
          "ticks": 19488,
          "time": 25.375,
          "velocity": 1
        },
        {
          "duration": 0.015625,
          "durationTicks": 12,
          "midi": 63,
          "name": "D#4",
          "ticks": 20258,
          "time": 26.377604166666668,
          "velocity": 1
        },
        {
          "duration": 0.018229166666664298,
          "durationTicks": 14,
          "midi": 63,
          "name": "D#4",
          "ticks": 20354,
          "time": 26.502604166666668,
          "velocity": 1
        },
        {
          "duration": 0.015625,
          "durationTicks": 12,
          "midi": 63,
          "name": "D#4",
          "ticks": 20932,
          "time": 27.255208333333332,
          "velocity": 1
        },
        {
          "duration": 0.018229166666664298,
          "durationTicks": 14,
          "midi": 63,
          "name": "D#4",
          "ticks": 21026,
          "time": 27.377604166666668,
          "velocity": 1
        },
        {
          "duration": 0.018229166666664298,
          "durationTicks": 14,
          "midi": 63,
          "name": "D#4",
          "ticks": 21698,
          "time": 28.252604166666668,
          "velocity": 1
        },
        {
          "duration": 0.015625,
          "durationTicks": 12,
          "midi": 63,
          "name": "D#4",
          "ticks": 21794,
          "time": 28.377604166666668,
          "velocity": 1
        },
        {
          "duration": 0.018229166666664298,
          "durationTicks": 14,
          "midi": 63,
          "name": "D#4",
          "ticks": 21890,
          "time": 28.502604166666668,
          "velocity": 1
        },
        {
          "duration": 0.015625,
          "durationTicks": 12,
          "midi": 63,
          "name": "D#4",
          "ticks": 22466,
          "time": 29.252604166666668,
          "velocity": 1
        },
        {
          "duration": 0.015625,
          "durationTicks": 12,
          "midi": 63,
          "name": "D#4",
          "ticks": 22562,
          "time": 29.377604166666668,
          "velocity": 1
        },
        {
          "duration": 0.018229166666664298,
          "durationTicks": 14,
          "midi": 63,
          "name": "D#4",
          "ticks": 23234,
          "time": 30.252604166666668,
          "velocity": 1
        },
        {
          "duration": 0.018229166666664298,
          "durationTicks": 14,
          "midi": 63,
          "name": "D#4",
          "ticks": 23330,
          "time": 30.377604166666668,
          "velocity": 1
        },
        {
          "duration": 0.018229166666664298,
          "durationTicks": 14,
          "midi": 63,
          "name": "D#4",
          "ticks": 23426,
          "time": 30.502604166666668,
          "velocity": 1
        },
        {
          "duration": 0.018229166666664298,
          "durationTicks": 14,
          "midi": 63,
          "name": "D#4",
          "ticks": 24002,
          "time": 31.252604166666668,
          "velocity": 1
        },
        {
          "duration": 0.01822916666666785,
          "durationTicks": 14,
          "midi": 63,
          "name": "D#4",
          "ticks": 24096,
          "time": 31.375,
          "velocity": 1
        },
        {
          "duration": 0.018229166666671404,
          "durationTicks": 14,
          "midi": 63,
          "name": "D#4",
          "ticks": 24770,
          "time": 32.252604166666664,
          "velocity": 1
        },
        {
          "duration": 0.015625,
          "durationTicks": 12,
          "midi": 63,
          "name": "D#4",
          "ticks": 24866,
          "time": 32.377604166666664,
          "velocity": 1
        },
        {
          "duration": 0.018229166666671404,
          "durationTicks": 14,
          "midi": 63,
          "name": "D#4",
          "ticks": 24962,
          "time": 32.502604166666664,
          "velocity": 1
        },
        {
          "duration": 0.018229166666671404,
          "durationTicks": 14,
          "midi": 63,
          "name": "D#4",
          "ticks": 25538,
          "time": 33.252604166666664,
          "velocity": 1
        },
        {
          "duration": 0.015625,
          "durationTicks": 12,
          "midi": 63,
          "name": "D#4",
          "ticks": 25634,
          "time": 33.377604166666664,
          "velocity": 1
        },
        {
          "duration": 0.018229166666671404,
          "durationTicks": 14,
          "midi": 63,
          "name": "D#4",
          "ticks": 26306,
          "time": 34.252604166666664,
          "velocity": 1
        },
        {
          "duration": 0.015625,
          "durationTicks": 12,
          "midi": 63,
          "name": "D#4",
          "ticks": 26402,
          "time": 34.377604166666664,
          "velocity": 1
        },
        {
          "duration": 0.018229166666671404,
          "durationTicks": 14,
          "midi": 63,
          "name": "D#4",
          "ticks": 26498,
          "time": 34.502604166666664,
          "velocity": 1
        },
        {
          "duration": 0.018229166666671404,
          "durationTicks": 14,
          "midi": 63,
          "name": "D#4",
          "ticks": 27074,
          "time": 35.252604166666664,
          "velocity": 1
        },
        {
          "duration": 0.015625,
          "durationTicks": 12,
          "midi": 63,
          "name": "D#4",
          "ticks": 27170,
          "time": 35.377604166666664,
          "velocity": 1
        },
        {
          "duration": 0.018229166666671404,
          "durationTicks": 14,
          "midi": 63,
          "name": "D#4",
          "ticks": 27842,
          "time": 36.252604166666664,
          "velocity": 1
        },
        {
          "duration": 0.018229166666664298,
          "durationTicks": 14,
          "midi": 63,
          "name": "D#4",
          "ticks": 27936,
          "time": 36.375,
          "velocity": 1
        },
        {
          "duration": 0.018229166666671404,
          "durationTicks": 14,
          "midi": 63,
          "name": "D#4",
          "ticks": 28034,
          "time": 36.502604166666664,
          "velocity": 1
        },
        {
          "duration": 0.015625,
          "durationTicks": 12,
          "midi": 63,
          "name": "D#4",
          "ticks": 28610,
          "time": 37.252604166666664,
          "velocity": 1
        },
        {
          "duration": 0.015625,
          "durationTicks": 12,
          "midi": 63,
          "name": "D#4",
          "ticks": 28706,
          "time": 37.377604166666664,
          "velocity": 1
        },
        {
          "duration": 0.015625,
          "durationTicks": 12,
          "midi": 63,
          "name": "D#4",
          "ticks": 29378,
          "time": 38.252604166666664,
          "velocity": 1
        },
        {
          "duration": 0.015625,
          "durationTicks": 12,
          "midi": 63,
          "name": "D#4",
          "ticks": 29474,
          "time": 38.377604166666664,
          "velocity": 1
        },
        {
          "duration": 0.015625,
          "durationTicks": 12,
          "midi": 63,
          "name": "D#4",
          "ticks": 29572,
          "time": 38.505208333333336,
          "velocity": 1
        },
        {
          "duration": 0.015625,
          "durationTicks": 12,
          "midi": 63,
          "name": "D#4",
          "ticks": 30146,
          "time": 39.252604166666664,
          "velocity": 1
        },
        {
          "duration": 0.018229166666664298,
          "durationTicks": 14,
          "midi": 63,
          "name": "D#4",
          "ticks": 30240,
          "time": 39.375,
          "velocity": 1
        },
        {
          "duration": 0.018229166666671404,
          "durationTicks": 14,
          "midi": 63,
          "name": "D#4",
          "ticks": 30914,
          "time": 40.252604166666664,
          "velocity": 1
        },
        {
          "duration": 0.018229166666664298,
          "durationTicks": 14,
          "midi": 63,
          "name": "D#4",
          "ticks": 31008,
          "time": 40.375,
          "velocity": 1
        },
        {
          "duration": 0.018229166666671404,
          "durationTicks": 14,
          "midi": 63,
          "name": "D#4",
          "ticks": 31106,
          "time": 40.502604166666664,
          "velocity": 1
        },
        {
          "duration": 0.015625,
          "durationTicks": 12,
          "midi": 63,
          "name": "D#4",
          "ticks": 31682,
          "time": 41.252604166666664,
          "velocity": 1
        },
        {
          "duration": 0.018229166666664298,
          "durationTicks": 14,
          "midi": 63,
          "name": "D#4",
          "ticks": 31776,
          "time": 41.375,
          "velocity": 1
        },
        {
          "duration": 0.015625,
          "durationTicks": 12,
          "midi": 63,
          "name": "D#4",
          "ticks": 32450,
          "time": 42.252604166666664,
          "velocity": 1
        },
        {
          "duration": 0.018229166666664298,
          "durationTicks": 14,
          "midi": 63,
          "name": "D#4",
          "ticks": 32544,
          "time": 42.375,
          "velocity": 1
        },
        {
          "duration": 0.018229166666671404,
          "durationTicks": 14,
          "midi": 63,
          "name": "D#4",
          "ticks": 32642,
          "time": 42.502604166666664,
          "velocity": 1
        },
        {
          "duration": 0.018229166666671404,
          "durationTicks": 14,
          "midi": 63,
          "name": "D#4",
          "ticks": 33218,
          "time": 43.252604166666664,
          "velocity": 1
        },
        {
          "duration": 0.015625,
          "durationTicks": 12,
          "midi": 63,
          "name": "D#4",
          "ticks": 33314,
          "time": 43.377604166666664,
          "velocity": 1
        },
        {
          "duration": 0.015625,
          "durationTicks": 12,
          "midi": 63,
          "name": "D#4",
          "ticks": 33986,
          "time": 44.252604166666664,
          "velocity": 1
        },
        {
          "duration": 0.015625,
          "durationTicks": 12,
          "midi": 63,
          "name": "D#4",
          "ticks": 34082,
          "time": 44.377604166666664,
          "velocity": 1
        },
        {
          "duration": 0.015625,
          "durationTicks": 12,
          "midi": 63,
          "name": "D#4",
          "ticks": 34180,
          "time": 44.505208333333336,
          "velocity": 1
        },
        {
          "duration": 0.015625,
          "durationTicks": 12,
          "midi": 63,
          "name": "D#4",
          "ticks": 34754,
          "time": 45.252604166666664,
          "velocity": 1
        },
        {
          "duration": 0.018229166666664298,
          "durationTicks": 14,
          "midi": 63,
          "name": "D#4",
          "ticks": 34848,
          "time": 45.375,
          "velocity": 1
        },
        {
          "duration": 0.015625,
          "durationTicks": 12,
          "midi": 63,
          "name": "D#4",
          "ticks": 35522,
          "time": 46.252604166666664,
          "velocity": 1
        },
        {
          "duration": 0.018229166666664298,
          "durationTicks": 14,
          "midi": 63,
          "name": "D#4",
          "ticks": 35616,
          "time": 46.375,
          "velocity": 1
        },
        {
          "duration": 0.018229166666671404,
          "durationTicks": 14,
          "midi": 63,
          "name": "D#4",
          "ticks": 35714,
          "time": 46.502604166666664,
          "velocity": 1
        },
        {
          "duration": 0.015625,
          "durationTicks": 12,
          "midi": 63,
          "name": "D#4",
          "ticks": 36290,
          "time": 47.252604166666664,
          "velocity": 1
        },
        {
          "duration": 0.018229166666664298,
          "durationTicks": 14,
          "midi": 63,
          "name": "D#4",
          "ticks": 36384,
          "time": 47.375,
          "velocity": 1
        },
        {
          "duration": 0.015625,
          "durationTicks": 12,
          "midi": 63,
          "name": "D#4",
          "ticks": 37058,
          "time": 48.252604166666664,
          "velocity": 1
        },
        {
          "duration": 0.018229166666664298,
          "durationTicks": 14,
          "midi": 63,
          "name": "D#4",
          "ticks": 37152,
          "time": 48.375,
          "velocity": 1
        },
        {
          "duration": 0.018229166666671404,
          "durationTicks": 14,
          "midi": 63,
          "name": "D#4",
          "ticks": 37250,
          "time": 48.502604166666664,
          "velocity": 1
        },
        {
          "duration": 0.015625,
          "durationTicks": 12,
          "midi": 63,
          "name": "D#4",
          "ticks": 37826,
          "time": 49.252604166666664,
          "velocity": 1
        },
        {
          "duration": 0.015625,
          "durationTicks": 12,
          "midi": 63,
          "name": "D#4",
          "ticks": 37922,
          "time": 49.377604166666664,
          "velocity": 1
        },
        {
          "duration": 0.018229166666671404,
          "durationTicks": 14,
          "midi": 63,
          "name": "D#4",
          "ticks": 38594,
          "time": 50.252604166666664,
          "velocity": 1
        },
        {
          "duration": 0.018229166666664298,
          "durationTicks": 14,
          "midi": 63,
          "name": "D#4",
          "ticks": 38688,
          "time": 50.375,
          "velocity": 1
        },
        {
          "duration": 0.018229166666671404,
          "durationTicks": 14,
          "midi": 63,
          "name": "D#4",
          "ticks": 38786,
          "time": 50.502604166666664,
          "velocity": 1
        },
        {
          "duration": 0.015625,
          "durationTicks": 12,
          "midi": 63,
          "name": "D#4",
          "ticks": 39362,
          "time": 51.252604166666664,
          "velocity": 1
        },
        {
          "duration": 0.018229166666664298,
          "durationTicks": 14,
          "midi": 63,
          "name": "D#4",
          "ticks": 39456,
          "time": 51.375,
          "velocity": 1
        },
        {
          "duration": 0.015625,
          "durationTicks": 12,
          "midi": 63,
          "name": "D#4",
          "ticks": 40130,
          "time": 52.252604166666664,
          "velocity": 1
        },
        {
          "duration": 0.018229166666664298,
          "durationTicks": 14,
          "midi": 63,
          "name": "D#4",
          "ticks": 40224,
          "time": 52.375,
          "velocity": 1
        },
        {
          "duration": 0.018229166666671404,
          "durationTicks": 14,
          "midi": 63,
          "name": "D#4",
          "ticks": 40322,
          "time": 52.502604166666664,
          "velocity": 1
        },
        {
          "duration": 0.015625,
          "durationTicks": 12,
          "midi": 63,
          "name": "D#4",
          "ticks": 40898,
          "time": 53.252604166666664,
          "velocity": 1
        },
        {
          "duration": 0.018229166666664298,
          "durationTicks": 14,
          "midi": 63,
          "name": "D#4",
          "ticks": 40992,
          "time": 53.375,
          "velocity": 1
        },
        {
          "duration": 0.015625,
          "durationTicks": 12,
          "midi": 63,
          "name": "D#4",
          "ticks": 41666,
          "time": 54.252604166666664,
          "velocity": 1
        },
        {
          "duration": 0.018229166666664298,
          "durationTicks": 14,
          "midi": 63,
          "name": "D#4",
          "ticks": 41760,
          "time": 54.375,
          "velocity": 1
        },
        {
          "duration": 0.018229166666671404,
          "durationTicks": 14,
          "midi": 63,
          "name": "D#4",
          "ticks": 41858,
          "time": 54.502604166666664,
          "velocity": 1
        },
        {
          "duration": 0.018229166666671404,
          "durationTicks": 14,
          "midi": 63,
          "name": "D#4",
          "ticks": 42434,
          "time": 55.252604166666664,
          "velocity": 1
        },
        {
          "duration": 0.018229166666664298,
          "durationTicks": 14,
          "midi": 63,
          "name": "D#4",
          "ticks": 42528,
          "time": 55.375,
          "velocity": 1
        },
        {
          "duration": 0.015625,
          "durationTicks": 12,
          "midi": 63,
          "name": "D#4",
          "ticks": 43202,
          "time": 56.252604166666664,
          "velocity": 1
        },
        {
          "duration": 0.018229166666664298,
          "durationTicks": 14,
          "midi": 63,
          "name": "D#4",
          "ticks": 43296,
          "time": 56.375,
          "velocity": 1
        },
        {
          "duration": 0.018229166666671404,
          "durationTicks": 14,
          "midi": 63,
          "name": "D#4",
          "ticks": 43394,
          "time": 56.502604166666664,
          "velocity": 1
        },
        {
          "duration": 0.015625,
          "durationTicks": 12,
          "midi": 63,
          "name": "D#4",
          "ticks": 43970,
          "time": 57.252604166666664,
          "velocity": 1
        },
        {
          "duration": 0.015625,
          "durationTicks": 12,
          "midi": 63,
          "name": "D#4",
          "ticks": 44066,
          "time": 57.377604166666664,
          "velocity": 1
        },
        {
          "duration": 0.015625,
          "durationTicks": 12,
          "midi": 63,
          "name": "D#4",
          "ticks": 44738,
          "time": 58.252604166666664,
          "velocity": 1
        },
        {
          "duration": 0.015625,
          "durationTicks": 12,
          "midi": 63,
          "name": "D#4",
          "ticks": 44834,
          "time": 58.377604166666664,
          "velocity": 1
        },
        {
          "duration": 0.018229166666671404,
          "durationTicks": 14,
          "midi": 63,
          "name": "D#4",
          "ticks": 44930,
          "time": 58.502604166666664,
          "velocity": 1
        },
        {
          "duration": 0.015625,
          "durationTicks": 12,
          "midi": 63,
          "name": "D#4",
          "ticks": 45602,
          "time": 59.377604166666664,
          "velocity": 1
        },
        {
          "duration": 0.015625,
          "durationTicks": 12,
          "midi": 63,
          "name": "D#4",
          "ticks": 46370,
          "time": 60.377604166666664,
          "velocity": 1
        },
        {
          "duration": 0.018229166666671404,
          "durationTicks": 14,
          "midi": 63,
          "name": "D#4",
          "ticks": 46466,
          "time": 60.502604166666664,
          "velocity": 1
        },
        {
          "duration": 0.015625,
          "durationTicks": 12,
          "midi": 63,
          "name": "D#4",
          "ticks": 47044,
          "time": 61.255208333333336,
          "velocity": 1
        },
        {
          "duration": 0.015625,
          "durationTicks": 12,
          "midi": 63,
          "name": "D#4",
          "ticks": 47138,
          "time": 61.377604166666664,
          "velocity": 1
        },
        {
          "duration": 0.015625,
          "durationTicks": 12,
          "midi": 63,
          "name": "D#4",
          "ticks": 47906,
          "time": 62.377604166666664,
          "velocity": 1
        },
        {
          "duration": 0.015625,
          "durationTicks": 12,
          "midi": 63,
          "name": "D#4",
          "ticks": 48004,
          "time": 62.505208333333336,
          "velocity": 1
        },
        {
          "duration": 0.015625,
          "durationTicks": 12,
          "midi": 63,
          "name": "D#4",
          "ticks": 48580,
          "time": 63.255208333333336,
          "velocity": 1
        },
        {
          "duration": 0.015625,
          "durationTicks": 12,
          "midi": 63,
          "name": "D#4",
          "ticks": 48674,
          "time": 63.377604166666664,
          "velocity": 1
        },
        {
          "duration": 0.018229166666671404,
          "durationTicks": 14,
          "midi": 63,
          "name": "D#4",
          "ticks": 49440,
          "time": 64.375,
          "velocity": 1
        },
        {
          "duration": 0.018229166666657193,
          "durationTicks": 14,
          "midi": 63,
          "name": "D#4",
          "ticks": 49538,
          "time": 64.50260416666667,
          "velocity": 1
        },
        {
          "duration": 0.015625,
          "durationTicks": 12,
          "midi": 63,
          "name": "D#4",
          "ticks": 50116,
          "time": 65.25520833333333,
          "velocity": 1
        },
        {
          "duration": 0.015625,
          "durationTicks": 12,
          "midi": 63,
          "name": "D#4",
          "ticks": 50210,
          "time": 65.37760416666667,
          "velocity": 1
        },
        {
          "duration": 0.015625,
          "durationTicks": 12,
          "midi": 63,
          "name": "D#4",
          "ticks": 50978,
          "time": 66.37760416666667,
          "velocity": 1
        },
        {
          "duration": 0.015625,
          "durationTicks": 12,
          "midi": 63,
          "name": "D#4",
          "ticks": 51076,
          "time": 66.50520833333333,
          "velocity": 1
        },
        {
          "duration": 0.015625,
          "durationTicks": 12,
          "midi": 63,
          "name": "D#4",
          "ticks": 51652,
          "time": 67.25520833333333,
          "velocity": 1
        },
        {
          "duration": 0.015625,
          "durationTicks": 12,
          "midi": 63,
          "name": "D#4",
          "ticks": 51746,
          "time": 67.37760416666667,
          "velocity": 1
        },
        {
          "duration": 0.018229166666671404,
          "durationTicks": 14,
          "midi": 63,
          "name": "D#4",
          "ticks": 52512,
          "time": 68.375,
          "velocity": 1
        },
        {
          "duration": 0.018229166666657193,
          "durationTicks": 14,
          "midi": 63,
          "name": "D#4",
          "ticks": 52610,
          "time": 68.50260416666667,
          "velocity": 1
        },
        {
          "duration": 0.015625,
          "durationTicks": 12,
          "midi": 63,
          "name": "D#4",
          "ticks": 53188,
          "time": 69.25520833333333,
          "velocity": 1
        },
        {
          "duration": 0.015625,
          "durationTicks": 12,
          "midi": 63,
          "name": "D#4",
          "ticks": 53282,
          "time": 69.37760416666667,
          "velocity": 1
        },
        {
          "duration": 0.015625,
          "durationTicks": 12,
          "midi": 63,
          "name": "D#4",
          "ticks": 54050,
          "time": 70.37760416666667,
          "velocity": 1
        },
        {
          "duration": 0.018229166666657193,
          "durationTicks": 14,
          "midi": 63,
          "name": "D#4",
          "ticks": 54146,
          "time": 70.50260416666667,
          "velocity": 1
        },
        {
          "duration": 0.015625,
          "durationTicks": 12,
          "midi": 63,
          "name": "D#4",
          "ticks": 54724,
          "time": 71.25520833333333,
          "velocity": 1
        },
        {
          "duration": 0.015625,
          "durationTicks": 12,
          "midi": 63,
          "name": "D#4",
          "ticks": 54818,
          "time": 71.37760416666667,
          "velocity": 1
        },
        {
          "duration": 0.018229166666671404,
          "durationTicks": 14,
          "midi": 63,
          "name": "D#4",
          "ticks": 55584,
          "time": 72.375,
          "velocity": 1
        },
        {
          "duration": 0.018229166666657193,
          "durationTicks": 14,
          "midi": 63,
          "name": "D#4",
          "ticks": 55682,
          "time": 72.50260416666667,
          "velocity": 1
        },
        {
          "duration": 0.015625,
          "durationTicks": 12,
          "midi": 63,
          "name": "D#4",
          "ticks": 56260,
          "time": 73.25520833333333,
          "velocity": 1
        },
        {
          "duration": 0.015625,
          "durationTicks": 12,
          "midi": 63,
          "name": "D#4",
          "ticks": 56354,
          "time": 73.37760416666667,
          "velocity": 1
        },
        {
          "duration": 0.015625,
          "durationTicks": 12,
          "midi": 63,
          "name": "D#4",
          "ticks": 57122,
          "time": 74.37760416666667,
          "velocity": 1
        },
        {
          "duration": 0.018229166666657193,
          "durationTicks": 14,
          "midi": 63,
          "name": "D#4",
          "ticks": 57218,
          "time": 74.50260416666667,
          "velocity": 1
        },
        {
          "duration": 0.015625,
          "durationTicks": 12,
          "midi": 63,
          "name": "D#4",
          "ticks": 57796,
          "time": 75.25520833333333,
          "velocity": 1
        },
        {
          "duration": 0.018229166666657193,
          "durationTicks": 14,
          "midi": 63,
          "name": "D#4",
          "ticks": 57890,
          "time": 75.37760416666667,
          "velocity": 1
        },
        {
          "duration": 0.018229166666657193,
          "durationTicks": 14,
          "midi": 63,
          "name": "D#4",
          "ticks": 58562,
          "time": 76.25260416666667,
          "velocity": 1
        },
        {
          "duration": 0.015625,
          "durationTicks": 12,
          "midi": 63,
          "name": "D#4",
          "ticks": 58658,
          "time": 76.37760416666667,
          "velocity": 1
        },
        {
          "duration": 0.015625,
          "durationTicks": 12,
          "midi": 63,
          "name": "D#4",
          "ticks": 58756,
          "time": 76.50520833333333,
          "velocity": 1
        },
        {
          "duration": 0.018229166666657193,
          "durationTicks": 14,
          "midi": 63,
          "name": "D#4",
          "ticks": 59330,
          "time": 77.25260416666667,
          "velocity": 1
        },
        {
          "duration": 0.015625,
          "durationTicks": 12,
          "midi": 63,
          "name": "D#4",
          "ticks": 59426,
          "time": 77.37760416666667,
          "velocity": 1
        },
        {
          "duration": 0.015625,
          "durationTicks": 12,
          "midi": 63,
          "name": "D#4",
          "ticks": 60098,
          "time": 78.25260416666667,
          "velocity": 1
        },
        {
          "duration": 0.018229166666671404,
          "durationTicks": 14,
          "midi": 63,
          "name": "D#4",
          "ticks": 60192,
          "time": 78.375,
          "velocity": 1
        },
        {
          "duration": 0.018229166666657193,
          "durationTicks": 14,
          "midi": 63,
          "name": "D#4",
          "ticks": 60290,
          "time": 78.50260416666667,
          "velocity": 1
        },
        {
          "duration": 0.015625,
          "durationTicks": 12,
          "midi": 63,
          "name": "D#4",
          "ticks": 60866,
          "time": 79.25260416666667,
          "velocity": 1
        },
        {
          "duration": 0.018229166666671404,
          "durationTicks": 14,
          "midi": 63,
          "name": "D#4",
          "ticks": 60960,
          "time": 79.375,
          "velocity": 1
        },
        {
          "duration": 0.018229166666657193,
          "durationTicks": 14,
          "midi": 63,
          "name": "D#4",
          "ticks": 61634,
          "time": 80.25260416666667,
          "velocity": 1
        },
        {
          "duration": 0.018229166666671404,
          "durationTicks": 14,
          "midi": 63,
          "name": "D#4",
          "ticks": 61728,
          "time": 80.375,
          "velocity": 1
        },
        {
          "duration": 0.018229166666657193,
          "durationTicks": 14,
          "midi": 63,
          "name": "D#4",
          "ticks": 61826,
          "time": 80.50260416666667,
          "velocity": 1
        },
        {
          "duration": 0.015625,
          "durationTicks": 12,
          "midi": 63,
          "name": "D#4",
          "ticks": 62402,
          "time": 81.25260416666667,
          "velocity": 1
        },
        {
          "duration": 0.018229166666671404,
          "durationTicks": 14,
          "midi": 63,
          "name": "D#4",
          "ticks": 62496,
          "time": 81.375,
          "velocity": 1
        },
        {
          "duration": 0.015625,
          "durationTicks": 12,
          "midi": 63,
          "name": "D#4",
          "ticks": 63170,
          "time": 82.25260416666667,
          "velocity": 1
        },
        {
          "duration": 0.018229166666671404,
          "durationTicks": 14,
          "midi": 63,
          "name": "D#4",
          "ticks": 63264,
          "time": 82.375,
          "velocity": 1
        },
        {
          "duration": 0.018229166666657193,
          "durationTicks": 14,
          "midi": 63,
          "name": "D#4",
          "ticks": 63362,
          "time": 82.50260416666667,
          "velocity": 1
        },
        {
          "duration": 0.018229166666657193,
          "durationTicks": 14,
          "midi": 63,
          "name": "D#4",
          "ticks": 63938,
          "time": 83.25260416666667,
          "velocity": 1
        },
        {
          "duration": 0.018229166666671404,
          "durationTicks": 14,
          "midi": 63,
          "name": "D#4",
          "ticks": 64032,
          "time": 83.375,
          "velocity": 1
        },
        {
          "duration": 0.015625,
          "durationTicks": 12,
          "midi": 63,
          "name": "D#4",
          "ticks": 64706,
          "time": 84.25260416666667,
          "velocity": 1
        },
        {
          "duration": 0.018229166666671404,
          "durationTicks": 14,
          "midi": 63,
          "name": "D#4",
          "ticks": 64800,
          "time": 84.375,
          "velocity": 1
        },
        {
          "duration": 0.018229166666657193,
          "durationTicks": 14,
          "midi": 63,
          "name": "D#4",
          "ticks": 64898,
          "time": 84.50260416666667,
          "velocity": 1
        },
        {
          "duration": 0.015625,
          "durationTicks": 12,
          "midi": 63,
          "name": "D#4",
          "ticks": 65474,
          "time": 85.25260416666667,
          "velocity": 1
        },
        {
          "duration": 0.018229166666671404,
          "durationTicks": 14,
          "midi": 63,
          "name": "D#4",
          "ticks": 65568,
          "time": 85.375,
          "velocity": 1
        },
        {
          "duration": 0.015625,
          "durationTicks": 12,
          "midi": 63,
          "name": "D#4",
          "ticks": 66242,
          "time": 86.25260416666667,
          "velocity": 1
        },
        {
          "duration": 0.015625,
          "durationTicks": 12,
          "midi": 63,
          "name": "D#4",
          "ticks": 66338,
          "time": 86.37760416666667,
          "velocity": 1
        },
        {
          "duration": 0.018229166666657193,
          "durationTicks": 14,
          "midi": 63,
          "name": "D#4",
          "ticks": 66434,
          "time": 86.50260416666667,
          "velocity": 1
        },
        {
          "duration": 0.015625,
          "durationTicks": 12,
          "midi": 63,
          "name": "D#4",
          "ticks": 67010,
          "time": 87.25260416666667,
          "velocity": 1
        },
        {
          "duration": 0.018229166666671404,
          "durationTicks": 14,
          "midi": 63,
          "name": "D#4",
          "ticks": 67104,
          "time": 87.375,
          "velocity": 1
        },
        {
          "duration": 0.015625,
          "durationTicks": 12,
          "midi": 63,
          "name": "D#4",
          "ticks": 67778,
          "time": 88.25260416666667,
          "velocity": 1
        },
        {
          "duration": 0.018229166666671404,
          "durationTicks": 14,
          "midi": 63,
          "name": "D#4",
          "ticks": 67872,
          "time": 88.375,
          "velocity": 1
        },
        {
          "duration": 0.018229166666657193,
          "durationTicks": 14,
          "midi": 63,
          "name": "D#4",
          "ticks": 67970,
          "time": 88.50260416666667,
          "velocity": 1
        },
        {
          "duration": 0.015625,
          "durationTicks": 12,
          "midi": 63,
          "name": "D#4",
          "ticks": 68546,
          "time": 89.25260416666667,
          "velocity": 1
        },
        {
          "duration": 0.018229166666671404,
          "durationTicks": 14,
          "midi": 63,
          "name": "D#4",
          "ticks": 68640,
          "time": 89.375,
          "velocity": 1
        },
        {
          "duration": 0.015625,
          "durationTicks": 12,
          "midi": 63,
          "name": "D#4",
          "ticks": 69314,
          "time": 90.25260416666667,
          "velocity": 1
        },
        {
          "duration": 0.018229166666671404,
          "durationTicks": 14,
          "midi": 63,
          "name": "D#4",
          "ticks": 69408,
          "time": 90.375,
          "velocity": 1
        },
        {
          "duration": 0.018229166666657193,
          "durationTicks": 14,
          "midi": 63,
          "name": "D#4",
          "ticks": 69506,
          "time": 90.50260416666667,
          "velocity": 1
        },
        {
          "duration": 0.015625,
          "durationTicks": 12,
          "midi": 63,
          "name": "D#4",
          "ticks": 70082,
          "time": 91.25260416666667,
          "velocity": 1
        },
        {
          "duration": 0.018229166666671404,
          "durationTicks": 14,
          "midi": 63,
          "name": "D#4",
          "ticks": 70176,
          "time": 91.375,
          "velocity": 1
        },
        {
          "duration": 0.015625,
          "durationTicks": 12,
          "midi": 63,
          "name": "D#4",
          "ticks": 70850,
          "time": 92.25260416666667,
          "velocity": 1
        },
        {
          "duration": 0.018229166666671404,
          "durationTicks": 14,
          "midi": 63,
          "name": "D#4",
          "ticks": 70944,
          "time": 92.375,
          "velocity": 1
        },
        {
          "duration": 0.018229166666657193,
          "durationTicks": 14,
          "midi": 63,
          "name": "D#4",
          "ticks": 71042,
          "time": 92.50260416666667,
          "velocity": 1
        },
        {
          "duration": 0.020833333333328596,
          "durationTicks": 16,
          "midi": 63,
          "name": "D#4",
          "ticks": 71616,
          "time": 93.25,
          "velocity": 1
        },
        {
          "duration": 0.018229166666671404,
          "durationTicks": 14,
          "midi": 63,
          "name": "D#4",
          "ticks": 71712,
          "time": 93.375,
          "velocity": 1
        },
        {
          "duration": 0.015625,
          "durationTicks": 12,
          "midi": 63,
          "name": "D#4",
          "ticks": 72386,
          "time": 94.25260416666667,
          "velocity": 1
        },
        {
          "duration": 0.018229166666671404,
          "durationTicks": 14,
          "midi": 63,
          "name": "D#4",
          "ticks": 72480,
          "time": 94.375,
          "velocity": 1
        },
        {
          "duration": 0.018229166666657193,
          "durationTicks": 14,
          "midi": 63,
          "name": "D#4",
          "ticks": 72578,
          "time": 94.50260416666667,
          "velocity": 1
        },
        {
          "duration": 0.015625,
          "durationTicks": 12,
          "midi": 63,
          "name": "D#4",
          "ticks": 73154,
          "time": 95.25260416666667,
          "velocity": 1
        },
        {
          "duration": 0.018229166666671404,
          "durationTicks": 14,
          "midi": 63,
          "name": "D#4",
          "ticks": 73248,
          "time": 95.375,
          "velocity": 1
        },
        {
          "duration": 0.018229166666657193,
          "durationTicks": 14,
          "midi": 63,
          "name": "D#4",
          "ticks": 73922,
          "time": 96.25260416666667,
          "velocity": 1
        },
        {
          "duration": 0.018229166666671404,
          "durationTicks": 14,
          "midi": 63,
          "name": "D#4",
          "ticks": 74016,
          "time": 96.375,
          "velocity": 1
        },
        {
          "duration": 0.018229166666657193,
          "durationTicks": 14,
          "midi": 63,
          "name": "D#4",
          "ticks": 74114,
          "time": 96.50260416666667,
          "velocity": 1
        },
        {
          "duration": 0.015625,
          "durationTicks": 12,
          "midi": 63,
          "name": "D#4",
          "ticks": 74690,
          "time": 97.25260416666667,
          "velocity": 1
        },
        {
          "duration": 0.015625,
          "durationTicks": 12,
          "midi": 63,
          "name": "D#4",
          "ticks": 74786,
          "time": 97.37760416666667,
          "velocity": 1
        },
        {
          "duration": 0.015625,
          "durationTicks": 12,
          "midi": 63,
          "name": "D#4",
          "ticks": 75458,
          "time": 98.25260416666667,
          "velocity": 1
        },
        {
          "duration": 0.018229166666671404,
          "durationTicks": 14,
          "midi": 63,
          "name": "D#4",
          "ticks": 75552,
          "time": 98.375,
          "velocity": 1
        },
        {
          "duration": 0.018229166666657193,
          "durationTicks": 14,
          "midi": 63,
          "name": "D#4",
          "ticks": 75650,
          "time": 98.50260416666667,
          "velocity": 1
        },
        {
          "duration": 0.015625,
          "durationTicks": 12,
          "midi": 63,
          "name": "D#4",
          "ticks": 76226,
          "time": 99.25260416666667,
          "velocity": 1
        },
        {
          "duration": 0.018229166666671404,
          "durationTicks": 14,
          "midi": 63,
          "name": "D#4",
          "ticks": 76320,
          "time": 99.375,
          "velocity": 1
        },
        {
          "duration": 0.015625,
          "durationTicks": 12,
          "midi": 63,
          "name": "D#4",
          "ticks": 76994,
          "time": 100.25260416666667,
          "velocity": 1
        },
        {
          "duration": 0.015625,
          "durationTicks": 12,
          "midi": 63,
          "name": "D#4",
          "ticks": 77090,
          "time": 100.37760416666667,
          "velocity": 1
        },
        {
          "duration": 0.015625,
          "durationTicks": 12,
          "midi": 63,
          "name": "D#4",
          "ticks": 77188,
          "time": 100.50520833333333,
          "velocity": 1
        },
        {
          "duration": 0.015625,
          "durationTicks": 12,
          "midi": 63,
          "name": "D#4",
          "ticks": 77762,
          "time": 101.25260416666667,
          "velocity": 1
        },
        {
          "duration": 0.015625,
          "durationTicks": 12,
          "midi": 63,
          "name": "D#4",
          "ticks": 77858,
          "time": 101.37760416666667,
          "velocity": 1
        },
        {
          "duration": 0.015625,
          "durationTicks": 12,
          "midi": 63,
          "name": "D#4",
          "ticks": 78530,
          "time": 102.25260416666667,
          "velocity": 1
        },
        {
          "duration": 0.018229166666671404,
          "durationTicks": 14,
          "midi": 63,
          "name": "D#4",
          "ticks": 78624,
          "time": 102.375,
          "velocity": 1
        },
        {
          "duration": 0.018229166666657193,
          "durationTicks": 14,
          "midi": 63,
          "name": "D#4",
          "ticks": 78722,
          "time": 102.50260416666667,
          "velocity": 1
        },
        {
          "duration": 0.018229166666657193,
          "durationTicks": 14,
          "midi": 63,
          "name": "D#4",
          "ticks": 79298,
          "time": 103.25260416666667,
          "velocity": 1
        },
        {
          "duration": 0.018229166666671404,
          "durationTicks": 14,
          "midi": 63,
          "name": "D#4",
          "ticks": 79392,
          "time": 103.375,
          "velocity": 1
        },
        {
          "duration": 0.018229166666657193,
          "durationTicks": 14,
          "midi": 63,
          "name": "D#4",
          "ticks": 80066,
          "time": 104.25260416666667,
          "velocity": 1
        },
        {
          "duration": 0.018229166666671404,
          "durationTicks": 14,
          "midi": 63,
          "name": "D#4",
          "ticks": 80160,
          "time": 104.375,
          "velocity": 1
        },
        {
          "duration": 0.015625,
          "durationTicks": 12,
          "midi": 63,
          "name": "D#4",
          "ticks": 80258,
          "time": 104.50260416666667,
          "velocity": 1
        },
        {
          "duration": 0.015625,
          "durationTicks": 12,
          "midi": 63,
          "name": "D#4",
          "ticks": 80834,
          "time": 105.25260416666667,
          "velocity": 1
        },
        {
          "duration": 0.018229166666671404,
          "durationTicks": 14,
          "midi": 63,
          "name": "D#4",
          "ticks": 80928,
          "time": 105.375,
          "velocity": 1
        },
        {
          "duration": 0.015625,
          "durationTicks": 12,
          "midi": 63,
          "name": "D#4",
          "ticks": 81602,
          "time": 106.25260416666667,
          "velocity": 1
        },
        {
          "duration": 0.018229166666671404,
          "durationTicks": 14,
          "midi": 63,
          "name": "D#4",
          "ticks": 81696,
          "time": 106.375,
          "velocity": 1
        },
        {
          "duration": 0.018229166666657193,
          "durationTicks": 14,
          "midi": 63,
          "name": "D#4",
          "ticks": 81794,
          "time": 106.50260416666667,
          "velocity": 1
        },
        {
          "duration": 0.015625,
          "durationTicks": 12,
          "midi": 63,
          "name": "D#4",
          "ticks": 82466,
          "time": 107.37760416666667,
          "velocity": 1
        },
        {
          "duration": 0.018229166666671404,
          "durationTicks": 14,
          "midi": 63,
          "name": "D#4",
          "ticks": 83232,
          "time": 108.375,
          "velocity": 1
        },
        {
          "duration": 0.018229166666657193,
          "durationTicks": 14,
          "midi": 63,
          "name": "D#4",
          "ticks": 83330,
          "time": 108.50260416666667,
          "velocity": 1
        },
        {
          "duration": 0.015625,
          "durationTicks": 12,
          "midi": 63,
          "name": "D#4",
          "ticks": 83908,
          "time": 109.25520833333333,
          "velocity": 1
        },
        {
          "duration": 0.015625,
          "durationTicks": 12,
          "midi": 63,
          "name": "D#4",
          "ticks": 84002,
          "time": 109.37760416666667,
          "velocity": 1
        },
        {
          "duration": 0.015625,
          "durationTicks": 12,
          "midi": 63,
          "name": "D#4",
          "ticks": 84770,
          "time": 110.37760416666667,
          "velocity": 1
        },
        {
          "duration": 0.015625,
          "durationTicks": 12,
          "midi": 63,
          "name": "D#4",
          "ticks": 84868,
          "time": 110.50520833333333,
          "velocity": 1
        },
        {
          "duration": 0.015625,
          "durationTicks": 12,
          "midi": 63,
          "name": "D#4",
          "ticks": 85444,
          "time": 111.25520833333333,
          "velocity": 1
        },
        {
          "duration": 0.015625,
          "durationTicks": 12,
          "midi": 63,
          "name": "D#4",
          "ticks": 85538,
          "time": 111.37760416666667,
          "velocity": 1
        },
        {
          "duration": 0.018229166666671404,
          "durationTicks": 14,
          "midi": 63,
          "name": "D#4",
          "ticks": 86304,
          "time": 112.375,
          "velocity": 1
        },
        {
          "duration": 0.018229166666657193,
          "durationTicks": 14,
          "midi": 63,
          "name": "D#4",
          "ticks": 86402,
          "time": 112.50260416666667,
          "velocity": 1
        },
        {
          "duration": 0.018229166666657193,
          "durationTicks": 14,
          "midi": 63,
          "name": "D#4",
          "ticks": 86978,
          "time": 113.25260416666667,
          "velocity": 1
        },
        {
          "duration": 0.015625,
          "durationTicks": 12,
          "midi": 63,
          "name": "D#4",
          "ticks": 87074,
          "time": 113.37760416666667,
          "velocity": 1
        },
        {
          "duration": 0.015625,
          "durationTicks": 12,
          "midi": 63,
          "name": "D#4",
          "ticks": 87842,
          "time": 114.37760416666667,
          "velocity": 1
        },
        {
          "duration": 0.018229166666657193,
          "durationTicks": 14,
          "midi": 63,
          "name": "D#4",
          "ticks": 87938,
          "time": 114.50260416666667,
          "velocity": 1
        },
        {
          "duration": 0.018229166666657193,
          "durationTicks": 14,
          "midi": 63,
          "name": "D#4",
          "ticks": 88514,
          "time": 115.25260416666667,
          "velocity": 1
        },
        {
          "duration": 0.015625,
          "durationTicks": 12,
          "midi": 63,
          "name": "D#4",
          "ticks": 88610,
          "time": 115.37760416666667,
          "velocity": 1
        },
        {
          "duration": 0.015625,
          "durationTicks": 12,
          "midi": 63,
          "name": "D#4",
          "ticks": 89378,
          "time": 116.37760416666667,
          "velocity": 1
        },
        {
          "duration": 0.015625,
          "durationTicks": 12,
          "midi": 63,
          "name": "D#4",
          "ticks": 89476,
          "time": 116.50520833333333,
          "velocity": 1
        },
        {
          "duration": 0.018229166666657193,
          "durationTicks": 14,
          "midi": 63,
          "name": "D#4",
          "ticks": 90050,
          "time": 117.25260416666667,
          "velocity": 1
        },
        {
          "duration": 0.018229166666671404,
          "durationTicks": 14,
          "midi": 63,
          "name": "D#4",
          "ticks": 90144,
          "time": 117.375,
          "velocity": 1
        },
        {
          "duration": 0.018229166666657193,
          "durationTicks": 14,
          "midi": 63,
          "name": "D#4",
          "ticks": 90914,
          "time": 118.37760416666667,
          "velocity": 1
        },
        {
          "duration": 0.015625,
          "durationTicks": 12,
          "midi": 63,
          "name": "D#4",
          "ticks": 91012,
          "time": 118.50520833333333,
          "velocity": 1
        },
        {
          "duration": 0.018229166666657193,
          "durationTicks": 14,
          "midi": 63,
          "name": "D#4",
          "ticks": 91586,
          "time": 119.25260416666667,
          "velocity": 1
        },
        {
          "duration": 0.018229166666657193,
          "durationTicks": 14,
          "midi": 63,
          "name": "D#4",
          "ticks": 91682,
          "time": 119.37760416666667,
          "velocity": 1
        },
        {
          "duration": 0.018229166666671404,
          "durationTicks": 14,
          "midi": 63,
          "name": "D#4",
          "ticks": 92448,
          "time": 120.375,
          "velocity": 1
        },
        {
          "duration": 0.018229166666657193,
          "durationTicks": 14,
          "midi": 63,
          "name": "D#4",
          "ticks": 92546,
          "time": 120.50260416666667,
          "velocity": 1
        },
        {
          "duration": 0.015625,
          "durationTicks": 12,
          "midi": 63,
          "name": "D#4",
          "ticks": 93124,
          "time": 121.25520833333333,
          "velocity": 1
        },
        {
          "duration": 0.018229166666671404,
          "durationTicks": 14,
          "midi": 63,
          "name": "D#4",
          "ticks": 93216,
          "time": 121.375,
          "velocity": 1
        },
        {
          "duration": 0.018229166666671404,
          "durationTicks": 14,
          "midi": 63,
          "name": "D#4",
          "ticks": 93984,
          "time": 122.375,
          "velocity": 1
        },
        {
          "duration": 0.015625,
          "durationTicks": 12,
          "midi": 63,
          "name": "D#4",
          "ticks": 94084,
          "time": 122.50520833333333,
          "velocity": 1
        },
        {
          "duration": 0.020833333333328596,
          "durationTicks": 16,
          "midi": 63,
          "name": "D#4",
          "ticks": 94658,
          "time": 123.25260416666667,
          "velocity": 1
        },
        {
          "duration": 0.020833333333328596,
          "durationTicks": 16,
          "midi": 63,
          "name": "D#4",
          "ticks": 94752,
          "time": 123.375,
          "velocity": 1
        },
        {
          "duration": 0.018229166666657193,
          "durationTicks": 14,
          "midi": 63,
          "name": "D#4",
          "ticks": 95426,
          "time": 124.25260416666667,
          "velocity": 1
        },
        {
          "duration": 0.015625,
          "durationTicks": 12,
          "midi": 63,
          "name": "D#4",
          "ticks": 95522,
          "time": 124.37760416666667,
          "velocity": 1
        },
        {
          "duration": 0.018229166666657193,
          "durationTicks": 14,
          "midi": 63,
          "name": "D#4",
          "ticks": 95618,
          "time": 124.50260416666667,
          "velocity": 1
        },
        {
          "duration": 0.018229166666657193,
          "durationTicks": 14,
          "midi": 63,
          "name": "D#4",
          "ticks": 96194,
          "time": 125.25260416666667,
          "velocity": 1
        },
        {
          "duration": 0.015625,
          "durationTicks": 12,
          "midi": 63,
          "name": "D#4",
          "ticks": 96290,
          "time": 125.37760416666667,
          "velocity": 1
        },
        {
          "duration": 0.018229166666657193,
          "durationTicks": 14,
          "midi": 63,
          "name": "D#4",
          "ticks": 96962,
          "time": 126.25260416666667,
          "velocity": 1
        },
        {
          "duration": 0.015625,
          "durationTicks": 12,
          "midi": 63,
          "name": "D#4",
          "ticks": 97058,
          "time": 126.37760416666667,
          "velocity": 1
        },
        {
          "duration": 0.018229166666657193,
          "durationTicks": 14,
          "midi": 63,
          "name": "D#4",
          "ticks": 97154,
          "time": 126.50260416666667,
          "velocity": 1
        },
        {
          "duration": 0.015625,
          "durationTicks": 12,
          "midi": 63,
          "name": "D#4",
          "ticks": 97730,
          "time": 127.25260416666667,
          "velocity": 1
        },
        {
          "duration": 0.015625,
          "durationTicks": 12,
          "midi": 63,
          "name": "D#4",
          "ticks": 97826,
          "time": 127.37760416666667,
          "velocity": 1
        },
        {
          "duration": 0.018229166666685614,
          "durationTicks": 14,
          "midi": 63,
          "name": "D#4",
          "ticks": 98498,
          "time": 128.25260416666666,
          "velocity": 1
        },
        {
          "duration": 0.015625,
          "durationTicks": 12,
          "midi": 63,
          "name": "D#4",
          "ticks": 98594,
          "time": 128.37760416666666,
          "velocity": 1
        },
        {
          "duration": 0.018229166666685614,
          "durationTicks": 14,
          "midi": 63,
          "name": "D#4",
          "ticks": 98690,
          "time": 128.50260416666666,
          "velocity": 1
        },
        {
          "duration": 0.018229166666685614,
          "durationTicks": 14,
          "midi": 63,
          "name": "D#4",
          "ticks": 99266,
          "time": 129.25260416666666,
          "velocity": 1
        },
        {
          "duration": 0.018229166666657193,
          "durationTicks": 14,
          "midi": 63,
          "name": "D#4",
          "ticks": 99360,
          "time": 129.375,
          "velocity": 1
        },
        {
          "duration": 0.018229166666685614,
          "durationTicks": 14,
          "midi": 63,
          "name": "D#4",
          "ticks": 100034,
          "time": 130.25260416666666,
          "velocity": 1
        },
        {
          "duration": 0.018229166666657193,
          "durationTicks": 14,
          "midi": 63,
          "name": "D#4",
          "ticks": 100128,
          "time": 130.375,
          "velocity": 1
        },
        {
          "duration": 0.018229166666685614,
          "durationTicks": 14,
          "midi": 63,
          "name": "D#4",
          "ticks": 100226,
          "time": 130.50260416666666,
          "velocity": 1
        },
        {
          "duration": 0.018229166666685614,
          "durationTicks": 14,
          "midi": 63,
          "name": "D#4",
          "ticks": 100802,
          "time": 131.25260416666666,
          "velocity": 1
        },
        {
          "duration": 0.018229166666685614,
          "durationTicks": 14,
          "midi": 63,
          "name": "D#4",
          "ticks": 100898,
          "time": 131.37760416666666,
          "velocity": 1
        },
        {
          "duration": 0.018229166666685614,
          "durationTicks": 14,
          "midi": 63,
          "name": "D#4",
          "ticks": 101570,
          "time": 132.25260416666666,
          "velocity": 1
        },
        {
          "duration": 0.015625,
          "durationTicks": 12,
          "midi": 63,
          "name": "D#4",
          "ticks": 101666,
          "time": 132.37760416666666,
          "velocity": 1
        },
        {
          "duration": 0.018229166666685614,
          "durationTicks": 14,
          "midi": 63,
          "name": "D#4",
          "ticks": 101762,
          "time": 132.50260416666666,
          "velocity": 1
        },
        {
          "duration": 0.018229166666685614,
          "durationTicks": 14,
          "midi": 63,
          "name": "D#4",
          "ticks": 102338,
          "time": 133.25260416666666,
          "velocity": 1
        },
        {
          "duration": 0.015625,
          "durationTicks": 12,
          "midi": 63,
          "name": "D#4",
          "ticks": 102434,
          "time": 133.37760416666666,
          "velocity": 1
        },
        {
          "duration": 0.018229166666685614,
          "durationTicks": 14,
          "midi": 63,
          "name": "D#4",
          "ticks": 103106,
          "time": 134.25260416666666,
          "velocity": 1
        },
        {
          "duration": 0.018229166666657193,
          "durationTicks": 14,
          "midi": 63,
          "name": "D#4",
          "ticks": 103200,
          "time": 134.375,
          "velocity": 1
        },
        {
          "duration": 0.018229166666685614,
          "durationTicks": 14,
          "midi": 63,
          "name": "D#4",
          "ticks": 103298,
          "time": 134.50260416666666,
          "velocity": 1
        },
        {
          "duration": 0.018229166666685614,
          "durationTicks": 14,
          "midi": 63,
          "name": "D#4",
          "ticks": 103874,
          "time": 135.25260416666666,
          "velocity": 1
        },
        {
          "duration": 0.018229166666685614,
          "durationTicks": 14,
          "midi": 63,
          "name": "D#4",
          "ticks": 103970,
          "time": 135.37760416666666,
          "velocity": 1
        },
        {
          "duration": 0.015625,
          "durationTicks": 12,
          "midi": 63,
          "name": "D#4",
          "ticks": 107810,
          "time": 140.37760416666666,
          "velocity": 1
        },
        {
          "duration": 0.018229166666685614,
          "durationTicks": 14,
          "midi": 63,
          "name": "D#4",
          "ticks": 107906,
          "time": 140.50260416666666,
          "velocity": 1
        },
        {
          "duration": 0.018229166666685614,
          "durationTicks": 14,
          "midi": 63,
          "name": "D#4",
          "ticks": 108482,
          "time": 141.25260416666666,
          "velocity": 1
        },
        {
          "duration": 0.018229166666657193,
          "durationTicks": 14,
          "midi": 63,
          "name": "D#4",
          "ticks": 108576,
          "time": 141.375,
          "velocity": 1
        },
        {
          "duration": 0.018229166666657193,
          "durationTicks": 14,
          "midi": 63,
          "name": "D#4",
          "ticks": 109344,
          "time": 142.375,
          "velocity": 1
        },
        {
          "duration": 0.015625,
          "durationTicks": 12,
          "midi": 63,
          "name": "D#4",
          "ticks": 109444,
          "time": 142.50520833333334,
          "velocity": 1
        },
        {
          "duration": 0.018229166666685614,
          "durationTicks": 14,
          "midi": 63,
          "name": "D#4",
          "ticks": 110018,
          "time": 143.25260416666666,
          "velocity": 1
        },
        {
          "duration": 0.018229166666685614,
          "durationTicks": 14,
          "midi": 63,
          "name": "D#4",
          "ticks": 110114,
          "time": 143.37760416666666,
          "velocity": 1
        },
        {
          "duration": 0.015625,
          "durationTicks": 12,
          "midi": 63,
          "name": "D#4",
          "ticks": 110882,
          "time": 144.37760416666666,
          "velocity": 1
        },
        {
          "duration": 0.018229166666685614,
          "durationTicks": 14,
          "midi": 63,
          "name": "D#4",
          "ticks": 110978,
          "time": 144.50260416666666,
          "velocity": 1
        },
        {
          "duration": 0.018229166666685614,
          "durationTicks": 14,
          "midi": 63,
          "name": "D#4",
          "ticks": 111554,
          "time": 145.25260416666666,
          "velocity": 1
        },
        {
          "duration": 0.018229166666685614,
          "durationTicks": 14,
          "midi": 63,
          "name": "D#4",
          "ticks": 111650,
          "time": 145.37760416666666,
          "velocity": 1
        },
        {
          "duration": 0.018229166666685614,
          "durationTicks": 14,
          "midi": 63,
          "name": "D#4",
          "ticks": 112418,
          "time": 146.37760416666666,
          "velocity": 1
        },
        {
          "duration": 0.015625,
          "durationTicks": 12,
          "midi": 63,
          "name": "D#4",
          "ticks": 112516,
          "time": 146.50520833333334,
          "velocity": 1
        },
        {
          "duration": 0.018229166666685614,
          "durationTicks": 14,
          "midi": 63,
          "name": "D#4",
          "ticks": 113090,
          "time": 147.25260416666666,
          "velocity": 1
        },
        {
          "duration": 0.015625,
          "durationTicks": 12,
          "midi": 63,
          "name": "D#4",
          "ticks": 113186,
          "time": 147.37760416666666,
          "velocity": 1
        },
        {
          "duration": 0.015625,
          "durationTicks": 12,
          "midi": 63,
          "name": "D#4",
          "ticks": 113954,
          "time": 148.37760416666666,
          "velocity": 1
        },
        {
          "duration": 0.018229166666685614,
          "durationTicks": 14,
          "midi": 63,
          "name": "D#4",
          "ticks": 114050,
          "time": 148.50260416666666,
          "velocity": 1
        },
        {
          "duration": 0.015625,
          "durationTicks": 12,
          "midi": 63,
          "name": "D#4",
          "ticks": 114628,
          "time": 149.25520833333334,
          "velocity": 1
        },
        {
          "duration": 0.018229166666657193,
          "durationTicks": 14,
          "midi": 63,
          "name": "D#4",
          "ticks": 114720,
          "time": 149.375,
          "velocity": 1
        },
        {
          "duration": 0.018229166666685614,
          "durationTicks": 14,
          "midi": 63,
          "name": "D#4",
          "ticks": 115490,
          "time": 150.37760416666666,
          "velocity": 1
        },
        {
          "duration": 0.015625,
          "durationTicks": 12,
          "midi": 63,
          "name": "D#4",
          "ticks": 115588,
          "time": 150.50520833333334,
          "velocity": 1
        },
        {
          "duration": 0.018229166666685614,
          "durationTicks": 14,
          "midi": 63,
          "name": "D#4",
          "ticks": 116162,
          "time": 151.25260416666666,
          "velocity": 1
        },
        {
          "duration": 0.015625,
          "durationTicks": 12,
          "midi": 63,
          "name": "D#4",
          "ticks": 116258,
          "time": 151.37760416666666,
          "velocity": 1
        },
        {
          "duration": 0.018229166666685614,
          "durationTicks": 14,
          "midi": 63,
          "name": "D#4",
          "ticks": 117026,
          "time": 152.37760416666666,
          "velocity": 1
        },
        {
          "duration": 0.015625,
          "durationTicks": 12,
          "midi": 63,
          "name": "D#4",
          "ticks": 117124,
          "time": 152.50520833333334,
          "velocity": 1
        },
        {
          "duration": 0.018229166666685614,
          "durationTicks": 14,
          "midi": 63,
          "name": "D#4",
          "ticks": 117698,
          "time": 153.25260416666666,
          "velocity": 1
        },
        {
          "duration": 0.015625,
          "durationTicks": 12,
          "midi": 63,
          "name": "D#4",
          "ticks": 117794,
          "time": 153.37760416666666,
          "velocity": 1
        },
        {
          "duration": 0.015625,
          "durationTicks": 12,
          "midi": 63,
          "name": "D#4",
          "ticks": 118562,
          "time": 154.37760416666666,
          "velocity": 1
        },
        {
          "duration": 0.018229166666685614,
          "durationTicks": 14,
          "midi": 63,
          "name": "D#4",
          "ticks": 118658,
          "time": 154.50260416666666,
          "velocity": 1
        },
        {
          "duration": 0.018229166666685614,
          "durationTicks": 14,
          "midi": 63,
          "name": "D#4",
          "ticks": 119234,
          "time": 155.25260416666666,
          "velocity": 1
        },
        {
          "duration": 0.015625,
          "durationTicks": 12,
          "midi": 63,
          "name": "D#4",
          "ticks": 119330,
          "time": 155.37760416666666,
          "velocity": 1
        },
        {
          "duration": 0.018229166666657193,
          "durationTicks": 14,
          "midi": 63,
          "name": "D#4",
          "ticks": 120096,
          "time": 156.375,
          "velocity": 1
        },
        {
          "duration": 0.018229166666685614,
          "durationTicks": 14,
          "midi": 63,
          "name": "D#4",
          "ticks": 120194,
          "time": 156.50260416666666,
          "velocity": 1
        },
        {
          "duration": 0.015625,
          "durationTicks": 12,
          "midi": 63,
          "name": "D#4",
          "ticks": 120772,
          "time": 157.25520833333334,
          "velocity": 1
        },
        {
          "duration": 0.015625,
          "durationTicks": 12,
          "midi": 63,
          "name": "D#4",
          "ticks": 120866,
          "time": 157.37760416666666,
          "velocity": 1
        },
        {
          "duration": 0.015625,
          "durationTicks": 12,
          "midi": 63,
          "name": "D#4",
          "ticks": 121634,
          "time": 158.37760416666666,
          "velocity": 1
        },
        {
          "duration": 0.018229166666685614,
          "durationTicks": 14,
          "midi": 63,
          "name": "D#4",
          "ticks": 121730,
          "time": 158.50260416666666,
          "velocity": 1
        },
        {
          "duration": 0.015625,
          "durationTicks": 12,
          "midi": 63,
          "name": "D#4",
          "ticks": 122308,
          "time": 159.25520833333334,
          "velocity": 1
        },
        {
          "duration": 0.015625,
          "durationTicks": 12,
          "midi": 63,
          "name": "D#4",
          "ticks": 122402,
          "time": 159.37760416666666,
          "velocity": 1
        },
        {
          "duration": 0.015625,
          "durationTicks": 12,
          "midi": 63,
          "name": "D#4",
          "ticks": 123170,
          "time": 160.37760416666666,
          "velocity": 1
        },
        {
          "duration": 0.018229166666685614,
          "durationTicks": 14,
          "midi": 63,
          "name": "D#4",
          "ticks": 123266,
          "time": 160.50260416666666,
          "velocity": 1
        },
        {
          "duration": 0.015625,
          "durationTicks": 12,
          "midi": 63,
          "name": "D#4",
          "ticks": 123844,
          "time": 161.25520833333334,
          "velocity": 1
        },
        {
          "duration": 0.015625,
          "durationTicks": 12,
          "midi": 63,
          "name": "D#4",
          "ticks": 123938,
          "time": 161.37760416666666,
          "velocity": 1
        },
        {
          "duration": 0.015625,
          "durationTicks": 12,
          "midi": 63,
          "name": "D#4",
          "ticks": 124706,
          "time": 162.37760416666666,
          "velocity": 1
        },
        {
          "duration": 0.018229166666685614,
          "durationTicks": 14,
          "midi": 63,
          "name": "D#4",
          "ticks": 124802,
          "time": 162.50260416666666,
          "velocity": 1
        },
        {
          "duration": 0.015625,
          "durationTicks": 12,
          "midi": 63,
          "name": "D#4",
          "ticks": 125380,
          "time": 163.25520833333334,
          "velocity": 1
        },
        {
          "duration": 0.015625,
          "durationTicks": 12,
          "midi": 63,
          "name": "D#4",
          "ticks": 125474,
          "time": 163.37760416666666,
          "velocity": 1
        },
        {
          "duration": 0.015625,
          "durationTicks": 12,
          "midi": 63,
          "name": "D#4",
          "ticks": 126242,
          "time": 164.37760416666666,
          "velocity": 1
        },
        {
          "duration": 0.018229166666685614,
          "durationTicks": 14,
          "midi": 63,
          "name": "D#4",
          "ticks": 126338,
          "time": 164.50260416666666,
          "velocity": 1
        },
        {
          "duration": 0.015625,
          "durationTicks": 12,
          "midi": 63,
          "name": "D#4",
          "ticks": 126916,
          "time": 165.25520833333334,
          "velocity": 1
        },
        {
          "duration": 0.015625,
          "durationTicks": 12,
          "midi": 63,
          "name": "D#4",
          "ticks": 127010,
          "time": 165.37760416666666,
          "velocity": 1
        },
        {
          "duration": 0.015625,
          "durationTicks": 12,
          "midi": 63,
          "name": "D#4",
          "ticks": 127778,
          "time": 166.37760416666666,
          "velocity": 1
        },
        {
          "duration": 0.018229166666685614,
          "durationTicks": 14,
          "midi": 63,
          "name": "D#4",
          "ticks": 127874,
          "time": 166.50260416666666,
          "velocity": 1
        },
        {
          "duration": 0.015625,
          "durationTicks": 12,
          "midi": 63,
          "name": "D#4",
          "ticks": 128452,
          "time": 167.25520833333334,
          "velocity": 1
        },
        {
          "duration": 0.018229166666685614,
          "durationTicks": 14,
          "midi": 63,
          "name": "D#4",
          "ticks": 128546,
          "time": 167.37760416666666,
          "velocity": 1
        },
        {
          "duration": 0.018229166666657193,
          "durationTicks": 14,
          "midi": 63,
          "name": "D#4",
          "ticks": 129312,
          "time": 168.375,
          "velocity": 1
        },
        {
          "duration": 0.018229166666685614,
          "durationTicks": 14,
          "midi": 63,
          "name": "D#4",
          "ticks": 129410,
          "time": 168.50260416666666,
          "velocity": 1
        },
        {
          "duration": 0.015625,
          "durationTicks": 12,
          "midi": 63,
          "name": "D#4",
          "ticks": 129988,
          "time": 169.25520833333334,
          "velocity": 1
        },
        {
          "duration": 0.015625,
          "durationTicks": 12,
          "midi": 63,
          "name": "D#4",
          "ticks": 130082,
          "time": 169.37760416666666,
          "velocity": 1
        },
        {
          "duration": 0.015625,
          "durationTicks": 12,
          "midi": 63,
          "name": "D#4",
          "ticks": 130850,
          "time": 170.37760416666666,
          "velocity": 1
        },
        {
          "duration": 0.018229166666685614,
          "durationTicks": 14,
          "midi": 63,
          "name": "D#4",
          "ticks": 130946,
          "time": 170.50260416666666,
          "velocity": 1
        },
        {
          "duration": 0.015625,
          "durationTicks": 12,
          "midi": 63,
          "name": "D#4",
          "ticks": 131524,
          "time": 171.25520833333334,
          "velocity": 1
        },
        {
          "duration": 0.018229166666685614,
          "durationTicks": 14,
          "midi": 63,
          "name": "D#4",
          "ticks": 131618,
          "time": 171.37760416666666,
          "velocity": 1
        }
      ],
      "endOfTrackTicks": 131826
    },
    {
      "channel": 9,
      "controlChanges": {},
      "pitchBends": [],
      "instrument": {
        "family": "drums",
        "number": 0,
        "name": "standard kit"
      },
      "name": "LOW CONGA",
      "notes": [
        {
          "duration": 0.018229166666666963,
          "durationTicks": 14,
          "midi": 64,
          "name": "E4",
          "ticks": 4228,
          "time": 5.505208333333333,
          "velocity": 1
        },
        {
          "duration": 0.018229166666666963,
          "durationTicks": 14,
          "midi": 64,
          "name": "E4",
          "ticks": 5764,
          "time": 7.505208333333333,
          "velocity": 1
        },
        {
          "duration": 0.018229166666666963,
          "durationTicks": 14,
          "midi": 64,
          "name": "E4",
          "ticks": 5956,
          "time": 7.755208333333333,
          "velocity": 1
        },
        {
          "duration": 0.015625,
          "durationTicks": 12,
          "midi": 64,
          "name": "E4",
          "ticks": 7302,
          "time": 9.5078125,
          "velocity": 1
        },
        {
          "duration": 0.018229166666666075,
          "durationTicks": 14,
          "midi": 64,
          "name": "E4",
          "ticks": 8836,
          "time": 11.505208333333334,
          "velocity": 1
        },
        {
          "duration": 0.018229166666666075,
          "durationTicks": 14,
          "midi": 64,
          "name": "E4",
          "ticks": 9028,
          "time": 11.755208333333334,
          "velocity": 1
        },
        {
          "duration": 0.018229166666666075,
          "durationTicks": 14,
          "midi": 64,
          "name": "E4",
          "ticks": 10372,
          "time": 13.505208333333334,
          "velocity": 1
        },
        {
          "duration": 0.018229166666666075,
          "durationTicks": 14,
          "midi": 64,
          "name": "E4",
          "ticks": 11908,
          "time": 15.505208333333334,
          "velocity": 1
        },
        {
          "duration": 0.018229166666666075,
          "durationTicks": 14,
          "midi": 64,
          "name": "E4",
          "ticks": 12100,
          "time": 15.755208333333334,
          "velocity": 1
        },
        {
          "duration": 0.01822916666666785,
          "durationTicks": 14,
          "midi": 64,
          "name": "E4",
          "ticks": 13444,
          "time": 17.505208333333332,
          "velocity": 1
        },
        {
          "duration": 0.01822916666666785,
          "durationTicks": 14,
          "midi": 64,
          "name": "E4",
          "ticks": 14980,
          "time": 19.505208333333332,
          "velocity": 1
        },
        {
          "duration": 0.01822916666666785,
          "durationTicks": 14,
          "midi": 64,
          "name": "E4",
          "ticks": 15172,
          "time": 19.755208333333332,
          "velocity": 1
        },
        {
          "duration": 0.015625,
          "durationTicks": 12,
          "midi": 64,
          "name": "E4",
          "ticks": 16516,
          "time": 21.505208333333332,
          "velocity": 1
        },
        {
          "duration": 0.01822916666666785,
          "durationTicks": 14,
          "midi": 64,
          "name": "E4",
          "ticks": 18052,
          "time": 23.505208333333332,
          "velocity": 1
        },
        {
          "duration": 0.015625,
          "durationTicks": 12,
          "midi": 64,
          "name": "E4",
          "ticks": 18246,
          "time": 23.7578125,
          "velocity": 1
        },
        {
          "duration": 0.01822916666666785,
          "durationTicks": 14,
          "midi": 64,
          "name": "E4",
          "ticks": 19588,
          "time": 25.505208333333332,
          "velocity": 1
        },
        {
          "duration": 0.015625,
          "durationTicks": 12,
          "midi": 64,
          "name": "E4",
          "ticks": 21126,
          "time": 27.5078125,
          "velocity": 1
        },
        {
          "duration": 0.01822916666666785,
          "durationTicks": 14,
          "midi": 64,
          "name": "E4",
          "ticks": 21316,
          "time": 27.755208333333332,
          "velocity": 1
        },
        {
          "duration": 0.01822916666666785,
          "durationTicks": 14,
          "midi": 64,
          "name": "E4",
          "ticks": 22660,
          "time": 29.505208333333332,
          "velocity": 1
        },
        {
          "duration": 0.015625,
          "durationTicks": 12,
          "midi": 64,
          "name": "E4",
          "ticks": 24198,
          "time": 31.5078125,
          "velocity": 1
        },
        {
          "duration": 0.01822916666666785,
          "durationTicks": 14,
          "midi": 64,
          "name": "E4",
          "ticks": 24388,
          "time": 31.755208333333332,
          "velocity": 1
        },
        {
          "duration": 0.018229166666664298,
          "durationTicks": 14,
          "midi": 64,
          "name": "E4",
          "ticks": 25732,
          "time": 33.505208333333336,
          "velocity": 1
        },
        {
          "duration": 0.018229166666664298,
          "durationTicks": 14,
          "midi": 64,
          "name": "E4",
          "ticks": 27268,
          "time": 35.505208333333336,
          "velocity": 1
        },
        {
          "duration": 0.015625,
          "durationTicks": 12,
          "midi": 64,
          "name": "E4",
          "ticks": 27460,
          "time": 35.755208333333336,
          "velocity": 1
        },
        {
          "duration": 0.018229166666664298,
          "durationTicks": 14,
          "midi": 64,
          "name": "E4",
          "ticks": 28804,
          "time": 37.505208333333336,
          "velocity": 1
        },
        {
          "duration": 0.018229166666664298,
          "durationTicks": 14,
          "midi": 64,
          "name": "E4",
          "ticks": 30340,
          "time": 39.505208333333336,
          "velocity": 1
        },
        {
          "duration": 0.015625,
          "durationTicks": 12,
          "midi": 64,
          "name": "E4",
          "ticks": 30532,
          "time": 39.755208333333336,
          "velocity": 1
        },
        {
          "duration": 0.018229166666664298,
          "durationTicks": 14,
          "midi": 64,
          "name": "E4",
          "ticks": 31876,
          "time": 41.505208333333336,
          "velocity": 1
        },
        {
          "duration": 0.015625,
          "durationTicks": 12,
          "midi": 64,
          "name": "E4",
          "ticks": 33414,
          "time": 43.5078125,
          "velocity": 1
        },
        {
          "duration": 0.015625,
          "durationTicks": 12,
          "midi": 64,
          "name": "E4",
          "ticks": 33604,
          "time": 43.755208333333336,
          "velocity": 1
        },
        {
          "duration": 0.018229166666664298,
          "durationTicks": 14,
          "midi": 64,
          "name": "E4",
          "ticks": 34948,
          "time": 45.505208333333336,
          "velocity": 1
        },
        {
          "duration": 0.018229166666664298,
          "durationTicks": 14,
          "midi": 64,
          "name": "E4",
          "ticks": 36484,
          "time": 47.505208333333336,
          "velocity": 1
        },
        {
          "duration": 0.015625,
          "durationTicks": 12,
          "midi": 64,
          "name": "E4",
          "ticks": 36676,
          "time": 47.755208333333336,
          "velocity": 1
        },
        {
          "duration": 0.018229166666664298,
          "durationTicks": 14,
          "midi": 64,
          "name": "E4",
          "ticks": 38020,
          "time": 49.505208333333336,
          "velocity": 1
        },
        {
          "duration": 0.020833333333335702,
          "durationTicks": 16,
          "midi": 64,
          "name": "E4",
          "ticks": 39554,
          "time": 51.502604166666664,
          "velocity": 1
        },
        {
          "duration": 0.015625,
          "durationTicks": 12,
          "midi": 64,
          "name": "E4",
          "ticks": 39748,
          "time": 51.755208333333336,
          "velocity": 1
        },
        {
          "duration": 0.018229166666664298,
          "durationTicks": 14,
          "midi": 64,
          "name": "E4",
          "ticks": 41092,
          "time": 53.505208333333336,
          "velocity": 1
        },
        {
          "duration": 0.018229166666664298,
          "durationTicks": 14,
          "midi": 64,
          "name": "E4",
          "ticks": 42628,
          "time": 55.505208333333336,
          "velocity": 1
        },
        {
          "duration": 0.015625,
          "durationTicks": 12,
          "midi": 64,
          "name": "E4",
          "ticks": 42820,
          "time": 55.755208333333336,
          "velocity": 1
        },
        {
          "duration": 0.018229166666664298,
          "durationTicks": 14,
          "midi": 64,
          "name": "E4",
          "ticks": 44164,
          "time": 57.505208333333336,
          "velocity": 1
        },
        {
          "duration": 0.015625,
          "durationTicks": 12,
          "midi": 64,
          "name": "E4",
          "ticks": 47238,
          "time": 61.5078125,
          "velocity": 1
        },
        {
          "duration": 0.015625,
          "durationTicks": 12,
          "midi": 64,
          "name": "E4",
          "ticks": 48774,
          "time": 63.5078125,
          "velocity": 1
        },
        {
          "duration": 0.015625,
          "durationTicks": 12,
          "midi": 64,
          "name": "E4",
          "ticks": 48966,
          "time": 63.7578125,
          "velocity": 1
        },
        {
          "duration": 0.013020833333328596,
          "durationTicks": 10,
          "midi": 64,
          "name": "E4",
          "ticks": 50310,
          "time": 65.5078125,
          "velocity": 1
        },
        {
          "duration": 0.015625,
          "durationTicks": 12,
          "midi": 64,
          "name": "E4",
          "ticks": 51846,
          "time": 67.5078125,
          "velocity": 1
        },
        {
          "duration": 0.018229166666671404,
          "durationTicks": 14,
          "midi": 64,
          "name": "E4",
          "ticks": 52036,
          "time": 67.75520833333333,
          "velocity": 1
        },
        {
          "duration": 0.015625,
          "durationTicks": 12,
          "midi": 64,
          "name": "E4",
          "ticks": 53382,
          "time": 69.5078125,
          "velocity": 1
        },
        {
          "duration": 0.015625,
          "durationTicks": 12,
          "midi": 64,
          "name": "E4",
          "ticks": 54918,
          "time": 71.5078125,
          "velocity": 1
        },
        {
          "duration": 0.015625,
          "durationTicks": 12,
          "midi": 64,
          "name": "E4",
          "ticks": 55110,
          "time": 71.7578125,
          "velocity": 1
        },
        {
          "duration": 0.015625,
          "durationTicks": 12,
          "midi": 64,
          "name": "E4",
          "ticks": 56454,
          "time": 73.5078125,
          "velocity": 1
        },
        {
          "duration": 0.015625,
          "durationTicks": 12,
          "midi": 64,
          "name": "E4",
          "ticks": 57990,
          "time": 75.5078125,
          "velocity": 1
        },
        {
          "duration": 0.015625,
          "durationTicks": 12,
          "midi": 64,
          "name": "E4",
          "ticks": 58182,
          "time": 75.7578125,
          "velocity": 1
        },
        {
          "duration": 0.015625,
          "durationTicks": 12,
          "midi": 64,
          "name": "E4",
          "ticks": 59526,
          "time": 77.5078125,
          "velocity": 1
        },
        {
          "duration": 0.018229166666671404,
          "durationTicks": 14,
          "midi": 64,
          "name": "E4",
          "ticks": 61060,
          "time": 79.50520833333333,
          "velocity": 1
        },
        {
          "duration": 0.018229166666657193,
          "durationTicks": 14,
          "midi": 64,
          "name": "E4",
          "ticks": 61250,
          "time": 79.75260416666667,
          "velocity": 1
        },
        {
          "duration": 0.018229166666671404,
          "durationTicks": 14,
          "midi": 64,
          "name": "E4",
          "ticks": 62596,
          "time": 81.50520833333333,
          "velocity": 1
        },
        {
          "duration": 0.018229166666671404,
          "durationTicks": 14,
          "midi": 64,
          "name": "E4",
          "ticks": 64132,
          "time": 83.50520833333333,
          "velocity": 1
        },
        {
          "duration": 0.015625,
          "durationTicks": 12,
          "midi": 64,
          "name": "E4",
          "ticks": 64324,
          "time": 83.75520833333333,
          "velocity": 1
        },
        {
          "duration": 0.018229166666671404,
          "durationTicks": 14,
          "midi": 64,
          "name": "E4",
          "ticks": 65668,
          "time": 85.50520833333333,
          "velocity": 1
        },
        {
          "duration": 0.018229166666671404,
          "durationTicks": 14,
          "midi": 64,
          "name": "E4",
          "ticks": 67204,
          "time": 87.50520833333333,
          "velocity": 1
        },
        {
          "duration": 0.015625,
          "durationTicks": 12,
          "midi": 64,
          "name": "E4",
          "ticks": 67396,
          "time": 87.75520833333333,
          "velocity": 1
        },
        {
          "duration": 0.018229166666671404,
          "durationTicks": 14,
          "midi": 64,
          "name": "E4",
          "ticks": 68740,
          "time": 89.50520833333333,
          "velocity": 1
        },
        {
          "duration": 0.018229166666671404,
          "durationTicks": 14,
          "midi": 64,
          "name": "E4",
          "ticks": 70276,
          "time": 91.50520833333333,
          "velocity": 1
        },
        {
          "duration": 0.015625,
          "durationTicks": 12,
          "midi": 64,
          "name": "E4",
          "ticks": 70468,
          "time": 91.75520833333333,
          "velocity": 1
        },
        {
          "duration": 0.018229166666671404,
          "durationTicks": 14,
          "midi": 64,
          "name": "E4",
          "ticks": 71812,
          "time": 93.50520833333333,
          "velocity": 1
        },
        {
          "duration": 0.018229166666671404,
          "durationTicks": 14,
          "midi": 64,
          "name": "E4",
          "ticks": 73348,
          "time": 95.50520833333333,
          "velocity": 1
        },
        {
          "duration": 0.015625,
          "durationTicks": 12,
          "midi": 64,
          "name": "E4",
          "ticks": 73540,
          "time": 95.75520833333333,
          "velocity": 1
        },
        {
          "duration": 0.015625,
          "durationTicks": 12,
          "midi": 64,
          "name": "E4",
          "ticks": 74886,
          "time": 97.5078125,
          "velocity": 1
        },
        {
          "duration": 0.018229166666671404,
          "durationTicks": 14,
          "midi": 64,
          "name": "E4",
          "ticks": 76420,
          "time": 99.50520833333333,
          "velocity": 1
        },
        {
          "duration": 0.015625,
          "durationTicks": 12,
          "midi": 64,
          "name": "E4",
          "ticks": 76612,
          "time": 99.75520833333333,
          "velocity": 1
        },
        {
          "duration": 0.018229166666671404,
          "durationTicks": 14,
          "midi": 64,
          "name": "E4",
          "ticks": 77956,
          "time": 101.50520833333333,
          "velocity": 1
        },
        {
          "duration": 0.018229166666671404,
          "durationTicks": 14,
          "midi": 64,
          "name": "E4",
          "ticks": 79492,
          "time": 103.50520833333333,
          "velocity": 1
        },
        {
          "duration": 0.015625,
          "durationTicks": 12,
          "midi": 64,
          "name": "E4",
          "ticks": 79684,
          "time": 103.75520833333333,
          "velocity": 1
        },
        {
          "duration": 0.018229166666671404,
          "durationTicks": 14,
          "midi": 64,
          "name": "E4",
          "ticks": 81028,
          "time": 105.50520833333333,
          "velocity": 1
        },
        {
          "duration": 0.015625,
          "durationTicks": 12,
          "midi": 64,
          "name": "E4",
          "ticks": 84102,
          "time": 109.5078125,
          "velocity": 1
        },
        {
          "duration": 0.015625,
          "durationTicks": 12,
          "midi": 64,
          "name": "E4",
          "ticks": 85638,
          "time": 111.5078125,
          "velocity": 1
        },
        {
          "duration": 0.015625,
          "durationTicks": 12,
          "midi": 64,
          "name": "E4",
          "ticks": 85830,
          "time": 111.7578125,
          "velocity": 1
        },
        {
          "duration": 0.015625,
          "durationTicks": 12,
          "midi": 64,
          "name": "E4",
          "ticks": 87174,
          "time": 113.5078125,
          "velocity": 1
        },
        {
          "duration": 0.015625,
          "durationTicks": 12,
          "midi": 64,
          "name": "E4",
          "ticks": 88710,
          "time": 115.5078125,
          "velocity": 1
        },
        {
          "duration": 0.015625,
          "durationTicks": 12,
          "midi": 64,
          "name": "E4",
          "ticks": 88902,
          "time": 115.7578125,
          "velocity": 1
        },
        {
          "duration": 0.015625,
          "durationTicks": 12,
          "midi": 64,
          "name": "E4",
          "ticks": 90244,
          "time": 117.50520833333333,
          "velocity": 1
        },
        {
          "duration": 0.015625,
          "durationTicks": 12,
          "midi": 64,
          "name": "E4",
          "ticks": 91782,
          "time": 119.5078125,
          "velocity": 1
        },
        {
          "duration": 0.018229166666671404,
          "durationTicks": 14,
          "midi": 64,
          "name": "E4",
          "ticks": 91972,
          "time": 119.75520833333333,
          "velocity": 1
        },
        {
          "duration": 0.015625,
          "durationTicks": 12,
          "midi": 64,
          "name": "E4",
          "ticks": 93318,
          "time": 121.5078125,
          "velocity": 1
        },
        {
          "duration": 0.015625,
          "durationTicks": 12,
          "midi": 64,
          "name": "E4",
          "ticks": 94854,
          "time": 123.5078125,
          "velocity": 1
        },
        {
          "duration": 0.018229166666671404,
          "durationTicks": 14,
          "midi": 64,
          "name": "E4",
          "ticks": 95046,
          "time": 123.7578125,
          "velocity": 1
        },
        {
          "duration": 0.018229166666671404,
          "durationTicks": 14,
          "midi": 64,
          "name": "E4",
          "ticks": 96388,
          "time": 125.50520833333333,
          "velocity": 1
        },
        {
          "duration": 0.015625,
          "durationTicks": 12,
          "midi": 64,
          "name": "E4",
          "ticks": 97926,
          "time": 127.5078125,
          "velocity": 1
        },
        {
          "duration": 0.018229166666671404,
          "durationTicks": 14,
          "midi": 64,
          "name": "E4",
          "ticks": 98116,
          "time": 127.75520833333333,
          "velocity": 1
        },
        {
          "duration": 0.018229166666657193,
          "durationTicks": 14,
          "midi": 64,
          "name": "E4",
          "ticks": 99460,
          "time": 129.50520833333334,
          "velocity": 1
        },
        {
          "duration": 0.018229166666657193,
          "durationTicks": 14,
          "midi": 64,
          "name": "E4",
          "ticks": 100996,
          "time": 131.50520833333334,
          "velocity": 1
        },
        {
          "duration": 0.018229166666657193,
          "durationTicks": 14,
          "midi": 64,
          "name": "E4",
          "ticks": 101188,
          "time": 131.75520833333334,
          "velocity": 1
        },
        {
          "duration": 0.018229166666657193,
          "durationTicks": 14,
          "midi": 64,
          "name": "E4",
          "ticks": 102532,
          "time": 133.50520833333334,
          "velocity": 1
        },
        {
          "duration": 0.018229166666657193,
          "durationTicks": 14,
          "midi": 64,
          "name": "E4",
          "ticks": 104068,
          "time": 135.50520833333334,
          "velocity": 1
        },
        {
          "duration": 0.018229166666657193,
          "durationTicks": 14,
          "midi": 64,
          "name": "E4",
          "ticks": 104260,
          "time": 135.75520833333334,
          "velocity": 1
        },
        {
          "duration": 0.015625,
          "durationTicks": 12,
          "midi": 64,
          "name": "E4",
          "ticks": 108678,
          "time": 141.5078125,
          "velocity": 1
        },
        {
          "duration": 0.015625,
          "durationTicks": 12,
          "midi": 64,
          "name": "E4",
          "ticks": 110214,
          "time": 143.5078125,
          "velocity": 1
        },
        {
          "duration": 0.018229166666657193,
          "durationTicks": 14,
          "midi": 64,
          "name": "E4",
          "ticks": 110404,
          "time": 143.75520833333334,
          "velocity": 1
        },
        {
          "duration": 0.018229166666657193,
          "durationTicks": 14,
          "midi": 64,
          "name": "E4",
          "ticks": 111748,
          "time": 145.50520833333334,
          "velocity": 1
        },
        {
          "duration": 0.018229166666657193,
          "durationTicks": 14,
          "midi": 64,
          "name": "E4",
          "ticks": 113284,
          "time": 147.50520833333334,
          "velocity": 1
        },
        {
          "duration": 0.018229166666657193,
          "durationTicks": 14,
          "midi": 64,
          "name": "E4",
          "ticks": 113476,
          "time": 147.75520833333334,
          "velocity": 1
        },
        {
          "duration": 0.018229166666657193,
          "durationTicks": 14,
          "midi": 64,
          "name": "E4",
          "ticks": 114820,
          "time": 149.50520833333334,
          "velocity": 1
        },
        {
          "duration": 0.018229166666657193,
          "durationTicks": 14,
          "midi": 64,
          "name": "E4",
          "ticks": 116356,
          "time": 151.50520833333334,
          "velocity": 1
        },
        {
          "duration": 0.015625,
          "durationTicks": 12,
          "midi": 64,
          "name": "E4",
          "ticks": 116550,
          "time": 151.7578125,
          "velocity": 1
        },
        {
          "duration": 0.018229166666657193,
          "durationTicks": 14,
          "midi": 64,
          "name": "E4",
          "ticks": 117892,
          "time": 153.50520833333334,
          "velocity": 1
        },
        {
          "duration": 0.018229166666657193,
          "durationTicks": 14,
          "midi": 64,
          "name": "E4",
          "ticks": 119428,
          "time": 155.50520833333334,
          "velocity": 1
        },
        {
          "duration": 0.015625,
          "durationTicks": 12,
          "midi": 64,
          "name": "E4",
          "ticks": 119622,
          "time": 155.7578125,
          "velocity": 1
        },
        {
          "duration": 0.015625,
          "durationTicks": 12,
          "midi": 64,
          "name": "E4",
          "ticks": 120966,
          "time": 157.5078125,
          "velocity": 1
        },
        {
          "duration": 0.015625,
          "durationTicks": 12,
          "midi": 64,
          "name": "E4",
          "ticks": 122502,
          "time": 159.5078125,
          "velocity": 1
        },
        {
          "duration": 0.018229166666657193,
          "durationTicks": 14,
          "midi": 64,
          "name": "E4",
          "ticks": 122692,
          "time": 159.75520833333334,
          "velocity": 1
        },
        {
          "duration": 0.018229166666657193,
          "durationTicks": 14,
          "midi": 64,
          "name": "E4",
          "ticks": 124036,
          "time": 161.50520833333334,
          "velocity": 1
        },
        {
          "duration": 0.015625,
          "durationTicks": 12,
          "midi": 64,
          "name": "E4",
          "ticks": 125574,
          "time": 163.5078125,
          "velocity": 1
        },
        {
          "duration": 0.015625,
          "durationTicks": 12,
          "midi": 64,
          "name": "E4",
          "ticks": 125766,
          "time": 163.7578125,
          "velocity": 1
        },
        {
          "duration": 0.015625,
          "durationTicks": 12,
          "midi": 64,
          "name": "E4",
          "ticks": 127110,
          "time": 165.5078125,
          "velocity": 1
        },
        {
          "duration": 0.015625,
          "durationTicks": 12,
          "midi": 64,
          "name": "E4",
          "ticks": 128646,
          "time": 167.5078125,
          "velocity": 1
        },
        {
          "duration": 0.015625,
          "durationTicks": 12,
          "midi": 64,
          "name": "E4",
          "ticks": 128838,
          "time": 167.7578125,
          "velocity": 1
        },
        {
          "duration": 0.018229166666657193,
          "durationTicks": 14,
          "midi": 64,
          "name": "E4",
          "ticks": 130180,
          "time": 169.50520833333334,
          "velocity": 1
        },
        {
          "duration": 0.015625,
          "durationTicks": 12,
          "midi": 64,
          "name": "E4",
          "ticks": 131718,
          "time": 171.5078125,
          "velocity": 1
        },
        {
          "duration": 0.015625,
          "durationTicks": 12,
          "midi": 64,
          "name": "E4",
          "ticks": 131910,
          "time": 171.7578125,
          "velocity": 1
        }
      ],
      "endOfTrackTicks": 132114
    },
    {
      "channel": 9,
      "controlChanges": {},
      "pitchBends": [],
      "instrument": {
        "family": "drums",
        "number": 0,
        "name": "standard kit"
      },
      "name": "MID TOM",
      "notes": [
        {
          "duration": 0.015625,
          "durationTicks": 12,
          "midi": 45,
          "name": "A2",
          "ticks": 45126,
          "time": 58.7578125,
          "velocity": 1
        },
        {
          "duration": 0.018229166666664298,
          "durationTicks": 14,
          "midi": 45,
          "name": "A2",
          "ticks": 45318,
          "time": 59.0078125,
          "velocity": 1
        },
        {
          "duration": 0.015625,
          "durationTicks": 12,
          "midi": 45,
          "name": "A2",
          "ticks": 45510,
          "time": 59.2578125,
          "velocity": 1
        },
        {
          "duration": 0.015625,
          "durationTicks": 12,
          "midi": 45,
          "name": "A2",
          "ticks": 81990,
          "time": 106.7578125,
          "velocity": 1
        },
        {
          "duration": 0.018229166666671404,
          "durationTicks": 14,
          "midi": 45,
          "name": "A2",
          "ticks": 82182,
          "time": 107.0078125,
          "velocity": 1
        },
        {
          "duration": 0.015625,
          "durationTicks": 12,
          "midi": 45,
          "name": "A2",
          "ticks": 82374,
          "time": 107.2578125,
          "velocity": 1
        },
        {
          "duration": 0.015625,
          "durationTicks": 12,
          "midi": 45,
          "name": "A2",
          "ticks": 106374,
          "time": 138.5078125,
          "velocity": 1
        },
        {
          "duration": 0.015625,
          "durationTicks": 12,
          "midi": 45,
          "name": "A2",
          "ticks": 106566,
          "time": 138.7578125,
          "velocity": 1
        },
        {
          "duration": 0.020833333333314386,
          "durationTicks": 16,
          "midi": 45,
          "name": "A2",
          "ticks": 106756,
          "time": 139.00520833333334,
          "velocity": 1
        }
      ],
      "endOfTrackTicks": 106964
    },
    {
      "channel": 9,
      "controlChanges": {},
      "pitchBends": [],
      "instrument": {
        "family": "drums",
        "number": 0,
        "name": "standard kit"
      },
      "name": "LOW TOM",
      "notes": [
        {
          "duration": 0.018229166666664298,
          "durationTicks": 14,
          "midi": 41,
          "name": "F2",
          "ticks": 45700,
          "time": 59.505208333333336,
          "velocity": 1
        },
        {
          "duration": 0.018229166666664298,
          "durationTicks": 14,
          "midi": 41,
          "name": "F2",
          "ticks": 45892,
          "time": 59.755208333333336,
          "velocity": 1
        },
        {
          "duration": 0.015625,
          "durationTicks": 12,
          "midi": 41,
          "name": "F2",
          "ticks": 82566,
          "time": 107.5078125,
          "velocity": 1
        },
        {
          "duration": 0.018229166666671404,
          "durationTicks": 14,
          "midi": 41,
          "name": "F2",
          "ticks": 82756,
          "time": 107.75520833333333,
          "velocity": 1
        },
        {
          "duration": 0.015625,
          "durationTicks": 12,
          "midi": 41,
          "name": "F2",
          "ticks": 106950,
          "time": 139.2578125,
          "velocity": 1
        },
        {
          "duration": 0.015625,
          "durationTicks": 12,
          "midi": 41,
          "name": "F2",
          "ticks": 107142,
          "time": 139.5078125,
          "velocity": 1
        },
        {
          "duration": 0.015625,
          "durationTicks": 12,
          "midi": 41,
          "name": "F2",
          "ticks": 107334,
          "time": 139.7578125,
          "velocity": 1
        }
      ],
      "endOfTrackTicks": 107538
    },
    {
      "channel": 0,
      "controlChanges": {},
      "pitchBends": [],
      "instrument": {
        "family": "piano",
        "number": 0,
        "name": "acoustic grand piano"
      },
      "name": "GS/RESET",
      "notes": [],
      "endOfTrackTicks": 6144
    }
  ]
}